<?xml version="1.0" encoding="UTF-8" standalone="no"?>
<!DOCTYPE svg PUBLIC "-//W3C//DTD SVG 1.1//EN"
 "http://www.w3.org/Graphics/SVG/1.1/DTD/svg11.dtd">
<!-- Generated by graphviz version 2.38.0 (20140413.2041)
 -->
<!-- Title: Control&#45;flow graph for function &#39;function_402ee0(**a1, a2, a3)&#39;. Pages: 1 -->
<svg width="478pt" height="278pt"
 viewBox="0.00 0.00 478.00 278.00" xmlns="http://www.w3.org/2000/svg" xmlns:xlink="http://www.w3.org/1999/xlink">
<g id="graph0" class="graph" transform="scale(1 1) rotate(0) translate(4 274)">
<title>Control&#45;flow graph for function &#39;function_402ee0(**a1, a2, a3)&#39;.</title>
<polygon fill="white" stroke="none" points="-4,4 -4,-274 474,-274 474,4 -4,4"/>
<text text-anchor="middle" x="235" y="-7.8" font-family="Times,serif" font-size="14.00">Control&#45;flow graph for function &#39;function_402ee0(**a1, a2, a3)&#39;.</text>
<!-- Node0x22272900 -->
<g id="node1" class="node"><title>Node0x22272900</title>
<polygon fill="none" stroke="black" points="205.5,-201.5 205.5,-269.5 264.5,-269.5 264.5,-201.5 205.5,-201.5"/>
<text text-anchor="start" x="213.5" y="-254.3" font-family="Times,serif" font-size="14.00">entry:</text>
<text text-anchor="start" x="213.5" y="-239.3" font-family="Times,serif" font-size="14.00"> a1</text>
<text text-anchor="start" x="213.5" y="-224.3" font-family="Times,serif" font-size="14.00"> a2</text>
<text text-anchor="start" x="213.5" y="-209.3" font-family="Times,serif" font-size="14.00"> a3</text>
</g>
<!-- Node0x22273ce0 -->
<g id="node2" class="node"><title>Node0x22273ce0</title>
<polygon fill="none" stroke="black" points="156,-96.5 156,-164.5 314,-164.5 314,-96.5 156,-96.5"/>
<text text-anchor="start" x="164" y="-149.3" font-family="Times,serif" font-size="14.00">v1</text>
<text text-anchor="start" x="164" y="-134.3" font-family="Times,serif" font-size="14.00"> g3 = &amp;(v1)</text>
<text text-anchor="start" x="164" y="-119.3" font-family="Times,serif" font-size="14.00"> abort()</text>
<text text-anchor="start" x="164" y="-104.3" font-family="Times,serif" font-size="14.00"> # UNREACHABLE</text>
</g>
<!-- Node0x22272900&#45;&gt;Node0x22273ce0 -->
<g id="edge1" class="edge"><title>Node0x22272900&#45;&gt;Node0x22273ce0</title>
<path fill="none" stroke="black" d="M235,-201.343C235,-192.889 235,-183.677 235,-174.799"/>
<polygon fill="black" stroke="black" points="238.5,-174.595 235,-164.595 231.5,-174.595 238.5,-174.595"/>
</g>
<!-- Node0x22274400 -->
<g id="node3" class="node"><title>Node0x22274400</title>
<polygon fill="none" stroke="black" points="208,-23.5 208,-59.5 262,-59.5 262,-23.5 208,-23.5"/>
<text text-anchor="start" x="216" y="-37.8" font-family="Times,serif" font-size="14.00">exit:</text>
</g>
<!-- Node0x22273ce0&#45;&gt;Node0x22274400 -->
<g id="edge2" class="edge"><title>Node0x22273ce0&#45;&gt;Node0x22274400</title>
<path fill="none" stroke="black" d="M235,-96.1123C235,-87.3522 235,-78.0128 235,-69.6246"/>
<polygon fill="black" stroke="black" points="238.5,-69.6235 235,-59.6235 231.5,-69.6235 238.5,-69.6235"/>
</g>
</g>
</svg>
