<?xml version="1.0" encoding="UTF-8" standalone="no"?>
<!DOCTYPE svg PUBLIC "-//W3C//DTD SVG 1.1//EN"
 "http://www.w3.org/Graphics/SVG/1.1/DTD/svg11.dtd">
<!-- Generated by graphviz version 2.38.0 (20140413.2041)
 -->
<!-- Title: Control&#45;flow graph for function &#39;function_402380(*a1, a2, a3)&#39;. Pages: 1 -->
<svg width="1522pt" height="1619pt"
 viewBox="0.00 0.00 1521.50 1619.00" xmlns="http://www.w3.org/2000/svg" xmlns:xlink="http://www.w3.org/1999/xlink">
<g id="graph0" class="graph" transform="scale(1 1) rotate(0) translate(4 1615)">
<title>Control&#45;flow graph for function &#39;function_402380(*a1, a2, a3)&#39;.</title>
<polygon fill="white" stroke="none" points="-4,4 -4,-1615 1517.5,-1615 1517.5,4 -4,4"/>
<text text-anchor="middle" x="756.75" y="-7.8" font-family="Times,serif" font-size="14.00">Control&#45;flow graph for function &#39;function_402380(*a1, a2, a3)&#39;.</text>
<!-- Node0x214ff4e0 -->
<g id="node1" class="node"><title>Node0x214ff4e0</title>
<polygon fill="none" stroke="black" points="391,-1542.5 391,-1610.5 450,-1610.5 450,-1542.5 391,-1542.5"/>
<text text-anchor="start" x="399" y="-1595.3" font-family="Times,serif" font-size="14.00">entry:</text>
<text text-anchor="start" x="399" y="-1580.3" font-family="Times,serif" font-size="14.00"> a1</text>
<text text-anchor="start" x="399" y="-1565.3" font-family="Times,serif" font-size="14.00"> a2</text>
<text text-anchor="start" x="399" y="-1550.3" font-family="Times,serif" font-size="14.00"> a3</text>
</g>
<!-- Node0x9d26f2e0 -->
<g id="node2" class="node"><title>Node0x9d26f2e0</title>
<polygon fill="none" stroke="black" points="197,-1271.5 197,-1504.5 644,-1504.5 644,-1271.5 197,-1271.5"/>
<text text-anchor="start" x="205" y="-1489.3" font-family="Times,serif" font-size="14.00">v1</text>
<text text-anchor="start" x="205" y="-1474.3" font-family="Times,serif" font-size="14.00"> v2 = &amp;(v1)</text>
<text text-anchor="start" x="205" y="-1459.3" font-family="Times,serif" font-size="14.00"> v3 = g9</text>
<text text-anchor="start" x="205" y="-1444.3" font-family="Times,serif" font-size="14.00"> v4 = g7</text>
<text text-anchor="start" x="205" y="-1429.3" font-family="Times,serif" font-size="14.00"> v5 = v4</text>
<text text-anchor="start" x="205" y="-1414.3" font-family="Times,serif" font-size="14.00"> lpPathName</text>
<text text-anchor="start" x="205" y="-1399.3" font-family="Times,serif" font-size="14.00"> v6 = &amp;(lpPathName)</text>
<text text-anchor="start" x="205" y="-1384.3" font-family="Times,serif" font-size="14.00"> g2 = v6</text>
<text text-anchor="start" x="205" y="-1369.3" font-family="Times,serif" font-size="14.00"> _memset(BitCastExpr&lt;ptr&gt;(&amp;(lpPathName)))</text>
<text text-anchor="start" x="205" y="-1354.3" font-family="Times,serif" font-size="14.00"> g9 = v6</text>
<text text-anchor="start" x="205" y="-1339.3" font-family="Times,serif" font-size="14.00"> function_4047f0(v4)</text>
<text text-anchor="start" x="205" y="-1324.3" font-family="Times,serif" font-size="14.00"> SetCurrentDirectoryA(BitCastExpr&lt;ptr&gt;(&amp;(lpPathName)))</text>
<text text-anchor="start" x="205" y="-1309.3" font-family="Times,serif" font-size="14.00"> file = fopen(&quot;StartupVersion.dat&quot;, &quot;w&quot;)</text>
<text text-anchor="start" x="205" y="-1294.3" font-family="Times,serif" font-size="14.00"> g7 = PtrToIntCastExpr&lt;int32&gt;(file)</text>
<text text-anchor="start" x="205" y="-1279.3" font-family="Times,serif" font-size="14.00"> v7 = &amp;(v5)</text>
</g>
<!-- Node0x214ff4e0&#45;&gt;Node0x9d26f2e0 -->
<g id="edge1" class="edge"><title>Node0x214ff4e0&#45;&gt;Node0x9d26f2e0</title>
<path fill="none" stroke="black" d="M420.5,-1542.16C420.5,-1533.91 420.5,-1524.57 420.5,-1514.68"/>
<polygon fill="black" stroke="black" points="424,-1514.62 420.5,-1504.62 417,-1514.62 424,-1514.62"/>
</g>
<!-- Node0x215017a0 -->
<g id="node3" class="node"><title>Node0x215017a0</title>
<polygon fill="none" stroke="black" points="348.5,-1197.5 348.5,-1233.5 492.5,-1233.5 492.5,-1197.5 348.5,-1197.5"/>
<text text-anchor="start" x="356.5" y="-1211.8" font-family="Times,serif" font-size="14.00">if (file == NULL):</text>
</g>
<!-- Node0x9d26f2e0&#45;&gt;Node0x215017a0 -->
<g id="edge2" class="edge"><title>Node0x9d26f2e0&#45;&gt;Node0x215017a0</title>
<path fill="none" stroke="black" d="M420.5,-1271.39C420.5,-1261.42 420.5,-1252.1 420.5,-1244.06"/>
<polygon fill="black" stroke="black" points="424,-1243.96 420.5,-1233.96 417,-1243.96 424,-1243.96"/>
</g>
<!-- Node0x1c032300 -->
<g id="node4" class="node"><title>Node0x1c032300</title>
<polygon fill="none" stroke="black" points="0,-915.5 0,-1013.5 263,-1013.5 263,-915.5 0,-915.5"/>
<text text-anchor="start" x="8" y="-998.3" font-family="Times,serif" font-size="14.00">0x40244e:</text>
<text text-anchor="start" x="8" y="-983.3" font-family="Times,serif" font-size="14.00"> g7 = v4</text>
<text text-anchor="start" x="8" y="-968.3" font-family="Times,serif" font-size="14.00"> g9 = v3</text>
<text text-anchor="start" x="8" y="-953.3" font-family="Times,serif" font-size="14.00"> g5 = (v2 ^ v7)</text>
<text text-anchor="start" x="8" y="-938.3" font-family="Times,serif" font-size="14.00"> function_4201ce(&amp;(lpPathName))</text>
<text text-anchor="start" x="8" y="-923.3" font-family="Times,serif" font-size="14.00"> return &amp;(file[&#39;0&#39;])</text>
</g>
<!-- Node0x215017a0&#45;&gt;Node0x1c032300 -->
<g id="edge3" class="edge"><title>Node0x215017a0&#45;&gt;Node0x1c032300</title>
<path fill="none" stroke="black" d="M397.814,-1197.45C390.312,-1191.69 381.975,-1185.16 374.5,-1179 310.933,-1126.64 240.45,-1064.2 191.836,-1020.42"/>
<polygon fill="black" stroke="black" points="193.996,-1017.65 184.226,-1013.56 189.309,-1022.85 193.996,-1017.65"/>
<text text-anchor="middle" x="424" y="-1167.8" font-family="Times,serif" font-size="14.00">file == NULL</text>
</g>
<!-- Node0x21501800 -->
<g id="node5" class="node"><title>Node0x21501800</title>
<polygon fill="none" stroke="black" points="426,-1032.5 426,-1145.5 799,-1145.5 799,-1032.5 426,-1032.5"/>
<text text-anchor="start" x="434" y="-1130.3" font-family="Times,serif" font-size="14.00">v8 = _malloc(16)</text>
<text text-anchor="start" x="434" y="-1115.3" font-family="Times,serif" font-size="14.00"> _sprintf(ExtCastExpr&lt;int32&gt;(*(v8)))</text>
<text text-anchor="start" x="434" y="-1100.3" font-family="Times,serif" font-size="14.00"> v9 = (PtrToIntCastExpr&lt;int32&gt;(v8) + 1)</text>
<text text-anchor="start" x="434" y="-1085.3" font-family="Times,serif" font-size="14.00"> v10 = (ExtCastExpr&lt;int32&gt;(*(v8)) | (v6 &amp; &#45;256))</text>
<text text-anchor="start" x="434" y="-1070.3" font-family="Times,serif" font-size="14.00"> v11 = PtrToIntCastExpr&lt;int32&gt;(v8)</text>
<text text-anchor="start" x="434" y="-1055.3" font-family="Times,serif" font-size="14.00"> v12 = (v11 + 1)</text>
<text text-anchor="start" x="434" y="-1040.3" font-family="Times,serif" font-size="14.00"> v13 = IntToPtrCastExpr&lt;ptr&gt;(v12)</text>
</g>
<!-- Node0x215017a0&#45;&gt;Node0x21501800 -->
<g id="edge4" class="edge"><title>Node0x215017a0&#45;&gt;Node0x21501800</title>
<path fill="none" stroke="black" d="M446.794,-1197.45C465.514,-1185.31 491.907,-1168.2 518.136,-1151.19"/>
<polygon fill="black" stroke="black" points="520.151,-1154.05 526.637,-1145.68 516.342,-1148.18 520.151,-1154.05"/>
<text text-anchor="middle" x="541" y="-1167.8" font-family="Times,serif" font-size="14.00">file != NULL</text>
</g>
<!-- Node0x9d26f280 -->
<g id="node6" class="node"><title>Node0x9d26f280</title>
<polygon fill="none" stroke="black" points="125.5,-143.5 125.5,-179.5 179.5,-179.5 179.5,-143.5 125.5,-143.5"/>
<text text-anchor="start" x="133.5" y="-157.8" font-family="Times,serif" font-size="14.00">exit:</text>
</g>
<!-- Node0x1c032300&#45;&gt;Node0x9d26f280 -->
<g id="edge5" class="edge"><title>Node0x1c032300&#45;&gt;Node0x9d26f280</title>
<path fill="none" stroke="black" d="M115.863,-915.415C109.449,-891.635 103.5,-862.342 103.5,-835.5 103.5,-835.5 103.5,-835.5 103.5,-303 103.5,-263.856 108.699,-253.63 122.5,-217 126.174,-207.248 131.34,-197.106 136.352,-188.252"/>
<polygon fill="black" stroke="black" points="139.408,-189.959 141.449,-179.563 133.37,-186.417 139.408,-189.959"/>
</g>
<!-- Node0x21501b30 -->
<g id="node7" class="node"><title>Node0x21501b30</title>
<polygon fill="none" stroke="black" points="608,-860.5 608,-896.5 745,-896.5 745,-860.5 608,-860.5"/>
<text text-anchor="start" x="616" y="-874.8" font-family="Times,serif" font-size="14.00">while (v10 != 0):</text>
</g>
<!-- Node0x21501800&#45;&gt;Node0x21501b30 -->
<g id="edge6" class="edge"><title>Node0x21501800&#45;&gt;Node0x21501b30</title>
<path fill="none" stroke="black" d="M629.567,-1032.4C642.076,-991.648 658.509,-938.111 668.243,-906.399"/>
<polygon fill="black" stroke="black" points="671.683,-907.119 671.272,-896.532 664.992,-905.065 671.683,-907.119"/>
</g>
<!-- Node0x215019e0 -->
<g id="node8" class="node"><title>Node0x215019e0</title>
<polygon fill="none" stroke="black" points="631.5,-710.5 631.5,-808.5 1013.5,-808.5 1013.5,-710.5 631.5,-710.5"/>
<text text-anchor="start" x="639.5" y="-793.3" font-family="Times,serif" font-size="14.00">0x4023f8:</text>
<text text-anchor="start" x="639.5" y="-778.3" font-family="Times,serif" font-size="14.00"> v8 = v13</text>
<text text-anchor="start" x="639.5" y="-763.3" font-family="Times,serif" font-size="14.00"> v10 = (ExtCastExpr&lt;int32&gt;(*(v8)) | (v10 &amp; &#45;256))</text>
<text text-anchor="start" x="639.5" y="-748.3" font-family="Times,serif" font-size="14.00"> v11 = PtrToIntCastExpr&lt;int32&gt;(v8)</text>
<text text-anchor="start" x="639.5" y="-733.3" font-family="Times,serif" font-size="14.00"> v12 = (v11 + 1)</text>
<text text-anchor="start" x="639.5" y="-718.3" font-family="Times,serif" font-size="14.00"> v13 = IntToPtrCastExpr&lt;ptr&gt;(v12)</text>
</g>
<!-- Node0x21501b30&#45;&gt;Node0x215019e0 -->
<g id="edge7" class="edge"><title>Node0x21501b30&#45;&gt;Node0x215019e0</title>
<path fill="none" stroke="black" d="M697.73,-860.487C712.807,-848.404 733.955,-831.457 754.563,-814.943"/>
<polygon fill="black" stroke="black" points="756.806,-817.63 762.421,-808.646 752.429,-812.168 756.806,-817.63"/>
<text text-anchor="middle" x="768" y="-830.8" font-family="Times,serif" font-size="14.00">v10 != 0</text>
</g>
<!-- Node0x214fd930 -->
<g id="node9" class="node"><title>Node0x214fd930</title>
<polygon fill="none" stroke="black" points="482,-740.5 482,-778.5 613,-778.5 613,-740.5 482,-740.5"/>
<text text-anchor="start" x="490" y="-763.3" font-family="Times,serif" font-size="14.00">v14 = (v12 &#45; v9)</text>
<text text-anchor="start" x="490" y="-748.3" font-family="Times,serif" font-size="14.00"> g2 = 0</text>
</g>
<!-- Node0x21501b30&#45;&gt;Node0x214fd930 -->
<g id="edge8" class="edge"><title>Node0x21501b30&#45;&gt;Node0x214fd930</title>
<path fill="none" stroke="black" d="M635.496,-860.334C625.764,-855.23 615.806,-849.077 607.5,-842 589.445,-826.617 573.747,-804.793 562.941,-787.6"/>
<polygon fill="black" stroke="black" points="565.648,-785.316 557.457,-778.595 559.669,-788.957 565.648,-785.316"/>
<text text-anchor="middle" x="642" y="-830.8" font-family="Times,serif" font-size="14.00">v10 == 0</text>
</g>
<!-- Node0x215019e0&#45;&gt;Node0x21501b30 -->
<g id="edge9" class="edge"><title>Node0x215019e0&#45;&gt;Node0x21501b30</title>
<path fill="none" stroke="black" d="M743.741,-808.64C735.657,-814.518 727.757,-820.687 720.5,-827 711.857,-834.518 703.35,-843.729 696.154,-852.216"/>
<polygon fill="black" stroke="black" points="693.355,-850.109 689.695,-860.052 698.757,-854.561 693.355,-850.109"/>
</g>
<!-- Node0x343535b0 -->
<g id="node10" class="node"><title>Node0x343535b0</title>
<polygon fill="none" stroke="black" points="540.5,-636.5 540.5,-672.5 654.5,-672.5 654.5,-636.5 540.5,-636.5"/>
<text text-anchor="start" x="548.5" y="-650.8" font-family="Times,serif" font-size="14.00">if (v14 &gt;= 1):</text>
</g>
<!-- Node0x214fd930&#45;&gt;Node0x343535b0 -->
<g id="edge10" class="edge"><title>Node0x214fd930&#45;&gt;Node0x343535b0</title>
<path fill="none" stroke="black" d="M556.439,-740.086C564.296,-723.9 575.824,-700.152 584.667,-681.936"/>
<polygon fill="black" stroke="black" points="587.919,-683.252 589.137,-672.727 581.622,-680.195 587.919,-683.252"/>
</g>
<!-- Node0x21502ac0 -->
<g id="node11" class="node"><title>Node0x21502ac0</title>
<polygon fill="none" stroke="black" points="837,-532.5 837,-568.5 910,-568.5 910,-532.5 837,-532.5"/>
<text text-anchor="start" x="845" y="-546.8" font-family="Times,serif" font-size="14.00">v15 = 0</text>
</g>
<!-- Node0x343535b0&#45;&gt;Node0x21502ac0 -->
<g id="edge11" class="edge"><title>Node0x343535b0&#45;&gt;Node0x21502ac0</title>
<path fill="none" stroke="black" d="M654.712,-636.381C696.196,-623.486 753.397,-604.707 802.5,-585 811.606,-581.345 821.206,-577.097 830.301,-572.877"/>
<polygon fill="black" stroke="black" points="832,-575.946 839.555,-568.517 829.017,-569.613 832,-575.946"/>
<text text-anchor="middle" x="788" y="-606.8" font-family="Times,serif" font-size="14.00">v14 &gt;= 1</text>
</g>
<!-- Node0x2d062e20 -->
<g id="node12" class="node"><title>Node0x2d062e20</title>
<polygon fill="none" stroke="black" points="402,-516.5 402,-584.5 793,-584.5 793,-516.5 402,-516.5"/>
<text text-anchor="start" x="410" y="-569.3" font-family="Times,serif" font-size="14.00">v18 = v13</text>
<text text-anchor="start" x="410" y="-554.3" font-family="Times,serif" font-size="14.00"> v19 = (ExtCastExpr&lt;int32&gt;(*(v18)) | (v14 &amp; &#45;256))</text>
<text text-anchor="start" x="410" y="-539.3" font-family="Times,serif" font-size="14.00"> v20 = (PtrToIntCastExpr&lt;int32&gt;(v18) + 1)</text>
<text text-anchor="start" x="410" y="-524.3" font-family="Times,serif" font-size="14.00"> v21 = IntToPtrCastExpr&lt;ptr&gt;(v20)</text>
</g>
<!-- Node0x343535b0&#45;&gt;Node0x2d062e20 -->
<g id="edge12" class="edge"><title>Node0x343535b0&#45;&gt;Node0x2d062e20</title>
<path fill="none" stroke="black" d="M597.5,-636.197C597.5,-624.854 597.5,-609.486 597.5,-594.954"/>
<polygon fill="black" stroke="black" points="601,-594.59 597.5,-584.59 594,-594.59 601,-594.59"/>
<text text-anchor="middle" x="626" y="-606.8" font-family="Times,serif" font-size="14.00">v14 &lt; 1</text>
</g>
<!-- Node0x21502b50 -->
<g id="node13" class="node"><title>Node0x21502b50</title>
<polygon fill="none" stroke="black" points="978,-442.5 978,-478.5 1075,-478.5 1075,-442.5 978,-442.5"/>
<text text-anchor="start" x="986" y="-456.8" font-family="Times,serif" font-size="14.00">while True:</text>
</g>
<!-- Node0x21502ac0&#45;&gt;Node0x21502b50 -->
<g id="edge13" class="edge"><title>Node0x21502ac0&#45;&gt;Node0x21502b50</title>
<path fill="none" stroke="black" d="M903.363,-532.324C927.479,-518.453 961.593,-498.832 987.801,-483.758"/>
<polygon fill="black" stroke="black" points="989.789,-486.653 996.712,-478.633 986.299,-480.585 989.789,-486.653"/>
</g>
<!-- Node0x21501860 -->
<g id="node14" class="node"><title>Node0x21501860</title>
<polygon fill="none" stroke="black" points="529,-442.5 529,-478.5 666,-478.5 666,-442.5 529,-442.5"/>
<text text-anchor="start" x="537" y="-456.8" font-family="Times,serif" font-size="14.00">while (v19 != 0):</text>
</g>
<!-- Node0x2d062e20&#45;&gt;Node0x21501860 -->
<g id="edge14" class="edge"><title>Node0x2d062e20&#45;&gt;Node0x21501860</title>
<path fill="none" stroke="black" d="M597.5,-516.482C597.5,-507.328 597.5,-497.497 597.5,-488.715"/>
<polygon fill="black" stroke="black" points="601,-488.64 597.5,-478.64 594,-488.64 601,-488.64"/>
</g>
<!-- Node0x21502f20 -->
<g id="node15" class="node"><title>Node0x21502f20</title>
<polygon fill="none" stroke="black" points="927,-270 927,-338 1382,-338 1382,-270 927,-270"/>
<text text-anchor="start" x="935" y="-322.8" font-family="Times,serif" font-size="14.00">v16 = ((ExtCastExpr&lt;int32&gt;(v13[v15]) | (v9 &amp; &#45;256)) ^ 255)</text>
<text text-anchor="start" x="935" y="-307.8" font-family="Times,serif" font-size="14.00"> v13[v15] = v16</text>
<text text-anchor="start" x="935" y="-292.8" font-family="Times,serif" font-size="14.00"> v17 = (g2 + 1)</text>
<text text-anchor="start" x="935" y="-277.8" font-family="Times,serif" font-size="14.00"> g2 = v17</text>
</g>
<!-- Node0x21502b50&#45;&gt;Node0x21502f20 -->
<g id="edge15" class="edge"><title>Node0x21502b50&#45;&gt;Node0x21502f20</title>
<path fill="none" stroke="black" d="M1040.69,-442.375C1059.83,-419.271 1094.53,-377.387 1120.6,-345.919"/>
<polygon fill="black" stroke="black" points="1123.34,-348.094 1127.03,-338.16 1117.95,-343.628 1123.34,-348.094"/>
<text text-anchor="middle" x="1084.5" y="-412.8" font-family="Times,serif" font-size="14.00">True</text>
</g>
<!-- Node0x21502dd0 -->
<g id="node16" class="node"><title>Node0x21502dd0</title>
<polygon fill="none" stroke="black" points="480,-262.5 480,-345.5 871,-345.5 871,-262.5 480,-262.5"/>
<text text-anchor="start" x="488" y="-330.3" font-family="Times,serif" font-size="14.00">0x402424:</text>
<text text-anchor="start" x="488" y="-315.3" font-family="Times,serif" font-size="14.00"> v18 = v21</text>
<text text-anchor="start" x="488" y="-300.3" font-family="Times,serif" font-size="14.00"> v19 = (ExtCastExpr&lt;int32&gt;(*(v18)) | (v19 &amp; &#45;256))</text>
<text text-anchor="start" x="488" y="-285.3" font-family="Times,serif" font-size="14.00"> v20 = (PtrToIntCastExpr&lt;int32&gt;(v18) + 1)</text>
<text text-anchor="start" x="488" y="-270.3" font-family="Times,serif" font-size="14.00"> v21 = IntToPtrCastExpr&lt;ptr&gt;(v20)</text>
</g>
<!-- Node0x21501860&#45;&gt;Node0x21502dd0 -->
<g id="edge16" class="edge"><title>Node0x21501860&#45;&gt;Node0x21502dd0</title>
<path fill="none" stroke="black" d="M595.284,-442.218C594.628,-432.249 594.878,-419.624 598.5,-409 605.29,-389.082 617.421,-369.816 630.074,-353.391"/>
<polygon fill="black" stroke="black" points="632.814,-355.569 636.307,-345.566 627.339,-351.208 632.814,-355.569"/>
<text text-anchor="middle" x="630" y="-412.8" font-family="Times,serif" font-size="14.00">v19 != 0</text>
</g>
<!-- Node0x1c032200 -->
<g id="node17" class="node"><title>Node0x1c032200</title>
<polygon fill="none" stroke="black" points="131.5,-217.5 131.5,-390.5 461.5,-390.5 461.5,-217.5 131.5,-217.5"/>
<text text-anchor="start" x="139.5" y="-375.3" font-family="Times,serif" font-size="14.00">0x40242d:</text>
<text text-anchor="start" x="139.5" y="-360.3" font-family="Times,serif" font-size="14.00"> g2 = (v20 &#45; (v11 + 2))</text>
<text text-anchor="start" x="139.5" y="-345.3" font-family="Times,serif" font-size="14.00"> _fwrite(ExtCastExpr&lt;int32&gt;(*(v21)))</text>
<text text-anchor="start" x="139.5" y="-330.3" font-family="Times,serif" font-size="14.00"> free(v21)</text>
<text text-anchor="start" x="139.5" y="-315.3" font-family="Times,serif" font-size="14.00"> _fflush(g7)</text>
<text text-anchor="start" x="139.5" y="-300.3" font-family="Times,serif" font-size="14.00"> v22 = IntToPtrCastExpr&lt;ptr&gt;(_fclose(g7))</text>
<text text-anchor="start" x="139.5" y="-285.3" font-family="Times,serif" font-size="14.00"> g7 = v5</text>
<text text-anchor="start" x="139.5" y="-270.3" font-family="Times,serif" font-size="14.00"> g9 = v3</text>
<text text-anchor="start" x="139.5" y="-255.3" font-family="Times,serif" font-size="14.00"> g5 = (v2 ^ v7)</text>
<text text-anchor="start" x="139.5" y="-240.3" font-family="Times,serif" font-size="14.00"> function_4201ce(&amp;(lpPathName))</text>
<text text-anchor="start" x="139.5" y="-225.3" font-family="Times,serif" font-size="14.00"> return PtrToIntCastExpr&lt;int32&gt;(v22)</text>
</g>
<!-- Node0x21501860&#45;&gt;Node0x1c032200 -->
<g id="edge17" class="edge"><title>Node0x21501860&#45;&gt;Node0x1c032200</title>
<path fill="none" stroke="black" d="M560.728,-442.476C548.511,-436.719 534.871,-430.181 522.5,-424 504.094,-414.803 484.935,-405.031 465.902,-395.194"/>
<polygon fill="black" stroke="black" points="467.361,-392.008 456.872,-390.517 464.142,-398.224 467.361,-392.008"/>
<text text-anchor="middle" x="557" y="-412.8" font-family="Times,serif" font-size="14.00">v19 == 0</text>
</g>
<!-- Node0x2d062fc0 -->
<g id="node18" class="node"><title>Node0x2d062fc0</title>
<polygon fill="none" stroke="black" points="1095,-143.5 1095,-179.5 1214,-179.5 1214,-143.5 1095,-143.5"/>
<text text-anchor="start" x="1103" y="-157.8" font-family="Times,serif" font-size="14.00">if (v17 &lt; v14):</text>
</g>
<!-- Node0x21502f20&#45;&gt;Node0x2d062fc0 -->
<g id="edge18" class="edge"><title>Node0x21502f20&#45;&gt;Node0x2d062fc0</title>
<path fill="none" stroke="black" d="M1154.5,-269.703C1154.5,-245.325 1154.5,-212.646 1154.5,-189.801"/>
<polygon fill="black" stroke="black" points="1158,-189.759 1154.5,-179.759 1151,-189.759 1158,-189.759"/>
</g>
<!-- Node0x21502dd0&#45;&gt;Node0x21501860 -->
<g id="edge19" class="edge"><title>Node0x21502dd0&#45;&gt;Node0x21501860</title>
<path fill="none" stroke="black" d="M679.593,-345.66C680.038,-370.269 676.794,-401.195 661.5,-424 658.36,-428.683 654.385,-432.809 649.96,-436.43"/>
<polygon fill="black" stroke="black" points="647.688,-433.752 641.59,-442.416 651.76,-439.446 647.688,-433.752"/>
</g>
<!-- Node0x1c032200&#45;&gt;Node0x9d26f280 -->
<g id="edge20" class="edge"><title>Node0x1c032200&#45;&gt;Node0x9d26f280</title>
<path fill="none" stroke="black" d="M208.586,-217.223C197.355,-206.264 186.667,-195.836 177.692,-187.079"/>
<polygon fill="black" stroke="black" points="179.876,-184.321 170.275,-179.843 174.988,-189.331 179.876,-184.321"/>
</g>
<!-- Node0x2d062fc0&#45;&gt;Node0x21502b50 -->
<g id="edge22" class="edge"><title>Node0x2d062fc0&#45;&gt;Node0x21502b50</title>
<path fill="none" stroke="black" d="M1214.26,-167.87C1277.06,-174.897 1369.74,-189.668 1391.5,-217 1439.67,-277.501 1440.88,-331.487 1391.5,-391 1353.25,-437.091 1178.28,-452.36 1085.18,-457.269"/>
<polygon fill="black" stroke="black" points="1084.88,-453.78 1075.07,-457.779 1085.23,-460.771 1084.88,-453.78"/>
<text text-anchor="middle" x="1470.5" y="-300.3" font-family="Times,serif" font-size="14.00">v17 &gt;= v14</text>
</g>
<!-- Node0x21503240 -->
<g id="node19" class="node"><title>Node0x21503240</title>
<polygon fill="none" stroke="black" points="924,-23.5 924,-91.5 1019,-91.5 1019,-23.5 924,-23.5"/>
<text text-anchor="start" x="932" y="-76.3" font-family="Times,serif" font-size="14.00">0x402410:</text>
<text text-anchor="start" x="932" y="-61.3" font-family="Times,serif" font-size="14.00"> v9 = v16</text>
<text text-anchor="start" x="932" y="-46.3" font-family="Times,serif" font-size="14.00"> v15 = v17</text>
<text text-anchor="start" x="932" y="-31.3" font-family="Times,serif" font-size="14.00"> continue</text>
</g>
<!-- Node0x2d062fc0&#45;&gt;Node0x21503240 -->
<g id="edge21" class="edge"><title>Node0x2d062fc0&#45;&gt;Node0x21503240</title>
<path fill="none" stroke="black" d="M1123.87,-143.427C1097.85,-128.923 1059.8,-107.718 1028.24,-90.1257"/>
<polygon fill="black" stroke="black" points="1029.54,-86.8429 1019.1,-85.0315 1026.13,-92.9573 1029.54,-86.8429"/>
<text text-anchor="middle" x="1126.5" y="-113.8" font-family="Times,serif" font-size="14.00">v17 &lt; v14</text>
</g>
<!-- Node0x21503240&#45;&gt;Node0x21502b50 -->
<g id="edge23" class="edge"><title>Node0x21503240&#45;&gt;Node0x21502b50</title>
<path fill="none" stroke="black" d="M953.327,-91.5248C921.569,-154.079 864.278,-292.401 918.5,-391 929.866,-411.668 950.396,-426.978 970.527,-437.818"/>
<polygon fill="black" stroke="black" points="969.214,-441.077 979.714,-442.488 972.385,-434.837 969.214,-441.077"/>
</g>
</g>
</svg>
