<?xml version="1.0" encoding="UTF-8" standalone="no"?>
<!DOCTYPE svg PUBLIC "-//W3C//DTD SVG 1.1//EN"
 "http://www.w3.org/Graphics/SVG/1.1/DTD/svg11.dtd">
<!-- Generated by graphviz version 2.38.0 (20140413.2041)
 -->
<!-- Title: Control&#45;flow graph for function &#39;function_40c07b(*a1, a2, a3, *a4)&#39;. Pages: 1 -->
<svg width="1138pt" height="597pt"
 viewBox="0.00 0.00 1138.00 597.00" xmlns="http://www.w3.org/2000/svg" xmlns:xlink="http://www.w3.org/1999/xlink">
<g id="graph0" class="graph" transform="scale(1 1) rotate(0) translate(4 593)">
<title>Control&#45;flow graph for function &#39;function_40c07b(*a1, a2, a3, *a4)&#39;.</title>
<polygon fill="white" stroke="none" points="-4,4 -4,-593 1134,-593 1134,4 -4,4"/>
<text text-anchor="middle" x="565" y="-7.8" font-family="Times,serif" font-size="14.00">Control&#45;flow graph for function &#39;function_40c07b(*a1, a2, a3, *a4)&#39;.</text>
<!-- Node0xa53b4a20 -->
<g id="node1" class="node"><title>Node0xa53b4a20</title>
<polygon fill="none" stroke="black" points="646,-505.5 646,-588.5 705,-588.5 705,-505.5 646,-505.5"/>
<text text-anchor="start" x="654" y="-573.3" font-family="Times,serif" font-size="14.00">entry:</text>
<text text-anchor="start" x="654" y="-558.3" font-family="Times,serif" font-size="14.00"> a1</text>
<text text-anchor="start" x="654" y="-543.3" font-family="Times,serif" font-size="14.00"> a2</text>
<text text-anchor="start" x="654" y="-528.3" font-family="Times,serif" font-size="14.00"> a3</text>
<text text-anchor="start" x="654" y="-513.3" font-family="Times,serif" font-size="14.00"> a4</text>
</g>
<!-- Node0x20e486e0 -->
<g id="node2" class="node"><title>Node0x20e486e0</title>
<polygon fill="none" stroke="black" points="516,-369.5 516,-467.5 835,-467.5 835,-369.5 516,-369.5"/>
<text text-anchor="start" x="524" y="-452.3" font-family="Times,serif" font-size="14.00">v1 = PtrToIntCastExpr&lt;int32&gt;(a1)</text>
<text text-anchor="start" x="524" y="-437.3" font-family="Times,serif" font-size="14.00"> g2 = v1</text>
<text text-anchor="start" x="524" y="-422.3" font-family="Times,serif" font-size="14.00"> v2 = *(IntToPtrCastExpr&lt;ptr&gt;((v1 + 8)))</text>
<text text-anchor="start" x="524" y="-407.3" font-family="Times,serif" font-size="14.00"> g1 = False</text>
<text text-anchor="start" x="524" y="-392.3" font-family="Times,serif" font-size="14.00"> g180 = (v2 == 0)</text>
<text text-anchor="start" x="524" y="-377.3" font-family="Times,serif" font-size="14.00"> v3</text>
</g>
<!-- Node0xa53b4a20&#45;&gt;Node0x20e486e0 -->
<g id="edge1" class="edge"><title>Node0xa53b4a20&#45;&gt;Node0x20e486e0</title>
<path fill="none" stroke="black" d="M675.5,-505.278C675.5,-496.473 675.5,-486.999 675.5,-477.672"/>
<polygon fill="black" stroke="black" points="679,-477.648 675.5,-467.648 672,-477.648 679,-477.648"/>
</g>
<!-- Node0xa53b5340 -->
<g id="node3" class="node"><title>Node0xa53b5340</title>
<polygon fill="none" stroke="black" points="626,-293.5 626,-331.5 725,-331.5 725,-293.5 626,-293.5"/>
<text text-anchor="start" x="634" y="-316.3" font-family="Times,serif" font-size="14.00">if (v2 != 0):</text>
<text text-anchor="start" x="634" y="-301.3" font-family="Times,serif" font-size="14.00"> else:</text>
</g>
<!-- Node0x20e486e0&#45;&gt;Node0xa53b5340 -->
<g id="edge2" class="edge"><title>Node0x20e486e0&#45;&gt;Node0xa53b5340</title>
<path fill="none" stroke="black" d="M675.5,-369.458C675.5,-359.952 675.5,-350.27 675.5,-341.69"/>
<polygon fill="black" stroke="black" points="679,-341.509 675.5,-331.509 672,-341.509 679,-341.509"/>
</g>
<!-- Node0xa53b5610 -->
<g id="node4" class="node"><title>Node0xa53b5610</title>
<polygon fill="none" stroke="black" points="0,-173.5 0,-241.5 779,-241.5 779,-173.5 0,-173.5"/>
<text text-anchor="start" x="8" y="-226.3" font-family="Times,serif" font-size="14.00">v4 = *(IntToPtrCastExpr&lt;ptr&gt;(v2))</text>
<text text-anchor="start" x="8" y="-211.3" font-family="Times,serif" font-size="14.00"> g5 = v4</text>
<text text-anchor="start" x="8" y="-196.3" font-family="Times,serif" font-size="14.00"> IntToPtrCastExpr&lt;ptr&gt;(*(IntToPtrCastExpr&lt;ptr&gt;((v4 + 16))))(v2, a2, a3, PtrToIntCastExpr&lt;int32&gt;(a4))</text>
<text text-anchor="start" x="8" y="-181.3" font-family="Times,serif" font-size="14.00"> v3 = IntToPtrCastExpr&lt;ptr&gt;(v2)</text>
</g>
<!-- Node0xa53b5340&#45;&gt;Node0xa53b5610 -->
<g id="edge3" class="edge"><title>Node0xa53b5340&#45;&gt;Node0xa53b5610</title>
<path fill="none" stroke="black" d="M625.683,-293.559C588.553,-280.187 536.58,-261.469 490.837,-244.996"/>
<polygon fill="black" stroke="black" points="491.773,-241.613 481.178,-241.517 489.401,-248.198 491.773,-241.613"/>
<text text-anchor="middle" x="594.5" y="-263.8" font-family="Times,serif" font-size="14.00">v2 != 0</text>
</g>
<!-- Node0xa53b56b0 -->
<g id="node5" class="node"><title>Node0xa53b56b0</title>
<polygon fill="none" stroke="black" points="797,-189.5 797,-225.5 1130,-225.5 1130,-189.5 797,-189.5"/>
<text text-anchor="start" x="805" y="-203.8" font-family="Times,serif" font-size="14.00">v3 = IntToPtrCastExpr&lt;ptr&gt;(&#45;2147417848)</text>
</g>
<!-- Node0xa53b5340&#45;&gt;Node0xa53b56b0 -->
<g id="edge4" class="edge"><title>Node0xa53b5340&#45;&gt;Node0xa53b56b0</title>
<path fill="none" stroke="black" d="M725.009,-293.794C775.275,-275.817 853.043,-248.004 906.006,-229.062"/>
<polygon fill="black" stroke="black" points="907.357,-232.296 915.594,-225.633 904.999,-225.705 907.357,-232.296"/>
<text text-anchor="middle" x="849.5" y="-263.8" font-family="Times,serif" font-size="14.00">v2 == 0</text>
</g>
<!-- Node0xa53b4c00 -->
<g id="node6" class="node"><title>Node0xa53b4c00</title>
<polygon fill="none" stroke="black" points="600.5,-97.5 600.5,-135.5 888.5,-135.5 888.5,-97.5 600.5,-97.5"/>
<text text-anchor="start" x="608.5" y="-120.3" font-family="Times,serif" font-size="14.00">0x40c0a1:</text>
<text text-anchor="start" x="608.5" y="-105.3" font-family="Times,serif" font-size="14.00"> return PtrToIntCastExpr&lt;int32&gt;(v3)</text>
</g>
<!-- Node0xa53b5610&#45;&gt;Node0xa53b4c00 -->
<g id="edge5" class="edge"><title>Node0xa53b5610&#45;&gt;Node0xa53b4c00</title>
<path fill="none" stroke="black" d="M521.184,-173.486C568.589,-161.602 620.674,-148.544 662.61,-138.03"/>
<polygon fill="black" stroke="black" points="663.644,-141.379 672.493,-135.552 661.942,-134.589 663.644,-141.379"/>
</g>
<!-- Node0xa53b56b0&#45;&gt;Node0xa53b4c00 -->
<g id="edge6" class="edge"><title>Node0xa53b56b0&#45;&gt;Node0xa53b4c00</title>
<path fill="none" stroke="black" d="M921.534,-189.445C886.498,-175.207 836.328,-154.818 798.337,-139.379"/>
<polygon fill="black" stroke="black" points="799.539,-136.09 788.957,-135.567 796.904,-142.574 799.539,-136.09"/>
</g>
<!-- Node0x20d062f0 -->
<g id="node7" class="node"><title>Node0x20d062f0</title>
<polygon fill="none" stroke="black" points="717.5,-23.5 717.5,-59.5 771.5,-59.5 771.5,-23.5 717.5,-23.5"/>
<text text-anchor="start" x="725.5" y="-37.8" font-family="Times,serif" font-size="14.00">exit:</text>
</g>
<!-- Node0xa53b4c00&#45;&gt;Node0x20d062f0 -->
<g id="edge7" class="edge"><title>Node0xa53b4c00&#45;&gt;Node0x20d062f0</title>
<path fill="none" stroke="black" d="M744.5,-97.4551C744.5,-89.2008 744.5,-79.2377 744.5,-70.0742"/>
<polygon fill="black" stroke="black" points="748,-69.8347 744.5,-59.8347 741,-69.8347 748,-69.8347"/>
</g>
</g>
</svg>
