<?xml version="1.0" encoding="UTF-8" standalone="no"?>
<!DOCTYPE svg PUBLIC "-//W3C//DTD SVG 1.1//EN"
 "http://www.w3.org/Graphics/SVG/1.1/DTD/svg11.dtd">
<!-- Generated by graphviz version 2.38.0 (20140413.2041)
 -->
<!-- Title: Control&#45;flow graph for function &#39;function_4320b3(*a1)&#39;. Pages: 1 -->
<svg width="661pt" height="278pt"
 viewBox="0.00 0.00 661.00 278.00" xmlns="http://www.w3.org/2000/svg" xmlns:xlink="http://www.w3.org/1999/xlink">
<g id="graph0" class="graph" transform="scale(1 1) rotate(0) translate(4 274)">
<title>Control&#45;flow graph for function &#39;function_4320b3(*a1)&#39;.</title>
<polygon fill="white" stroke="none" points="-4,4 -4,-274 657,-274 657,4 -4,4"/>
<text text-anchor="middle" x="326.5" y="-7.8" font-family="Times,serif" font-size="14.00">Control&#45;flow graph for function &#39;function_4320b3(*a1)&#39;.</text>
<!-- Node0x10ced7a0 -->
<g id="node1" class="node"><title>Node0x10ced7a0</title>
<polygon fill="none" stroke="black" points="297,-231.5 297,-269.5 356,-269.5 356,-231.5 297,-231.5"/>
<text text-anchor="start" x="305" y="-254.3" font-family="Times,serif" font-size="14.00">entry:</text>
<text text-anchor="start" x="305" y="-239.3" font-family="Times,serif" font-size="14.00"> a1</text>
</g>
<!-- Node0x10ceec10 -->
<g id="node2" class="node"><title>Node0x10ceec10</title>
<polygon fill="none" stroke="black" points="0,-96.5 0,-194.5 653,-194.5 653,-96.5 0,-96.5"/>
<text text-anchor="start" x="8" y="-179.3" font-family="Times,serif" font-size="14.00">v1 = ExtCastExpr&lt;int32&gt;(*(a1))</text>
<text text-anchor="start" x="8" y="-164.3" font-family="Times,serif" font-size="14.00"> v2 = (56 * (v1 &amp; 31))</text>
<text text-anchor="start" x="8" y="-149.3" font-family="Times,serif" font-size="14.00"> g2 = v2</text>
<text text-anchor="start" x="8" y="-134.3" font-family="Times,serif" font-size="14.00"> lpCriticalSection = ((*(IntToPtrCastExpr&lt;ptr&gt;(((4 * (v1 / 32)) + 4506848))) + 12) + v2)</text>
<text text-anchor="start" x="8" y="-119.3" font-family="Times,serif" font-size="14.00"> LeaveCriticalSection(IntToPtrCastExpr&lt;ptr&gt;(lpCriticalSection))</text>
<text text-anchor="start" x="8" y="-104.3" font-family="Times,serif" font-size="14.00"> return lpCriticalSection</text>
</g>
<!-- Node0x10ced7a0&#45;&gt;Node0x10ceec10 -->
<g id="edge1" class="edge"><title>Node0x10ced7a0&#45;&gt;Node0x10ceec10</title>
<path fill="none" stroke="black" d="M326.5,-231.086C326.5,-223.607 326.5,-214.513 326.5,-205.097"/>
<polygon fill="black" stroke="black" points="330,-204.814 326.5,-194.814 323,-204.815 330,-204.814"/>
</g>
<!-- Node0x10ceeb90 -->
<g id="node3" class="node"><title>Node0x10ceeb90</title>
<polygon fill="none" stroke="black" points="299.5,-23.5 299.5,-59.5 353.5,-59.5 353.5,-23.5 299.5,-23.5"/>
<text text-anchor="start" x="307.5" y="-37.8" font-family="Times,serif" font-size="14.00">exit:</text>
</g>
<!-- Node0x10ceec10&#45;&gt;Node0x10ceeb90 -->
<g id="edge2" class="edge"><title>Node0x10ceec10&#45;&gt;Node0x10ceeb90</title>
<path fill="none" stroke="black" d="M326.5,-96.4868C326.5,-87.2893 326.5,-77.9618 326.5,-69.7064"/>
<polygon fill="black" stroke="black" points="330,-69.5725 326.5,-59.5725 323,-69.5725 330,-69.5725"/>
</g>
</g>
</svg>
