<?xml version="1.0" encoding="UTF-8" standalone="no"?>
<!DOCTYPE svg PUBLIC "-//W3C//DTD SVG 1.1//EN"
 "http://www.w3.org/Graphics/SVG/1.1/DTD/svg11.dtd">
<!-- Generated by graphviz version 2.38.0 (20140413.2041)
 -->
<!-- Title: Control&#45;flow graph for function &#39;function_401740(a1, a2)&#39;. Pages: 1 -->
<svg width="471pt" height="278pt"
 viewBox="0.00 0.00 471.00 278.00" xmlns="http://www.w3.org/2000/svg" xmlns:xlink="http://www.w3.org/1999/xlink">
<g id="graph0" class="graph" transform="scale(1 1) rotate(0) translate(4 274)">
<title>Control&#45;flow graph for function &#39;function_401740(a1, a2)&#39;.</title>
<polygon fill="white" stroke="none" points="-4,4 -4,-274 467,-274 467,4 -4,4"/>
<text text-anchor="middle" x="231.5" y="-7.8" font-family="Times,serif" font-size="14.00">Control&#45;flow graph for function &#39;function_401740(a1, a2)&#39;.</text>
<!-- Node0x1bf09620 -->
<g id="node1" class="node"><title>Node0x1bf09620</title>
<polygon fill="none" stroke="black" points="202,-216.5 202,-269.5 261,-269.5 261,-216.5 202,-216.5"/>
<text text-anchor="start" x="210" y="-254.3" font-family="Times,serif" font-size="14.00">entry:</text>
<text text-anchor="start" x="210" y="-239.3" font-family="Times,serif" font-size="14.00"> a1</text>
<text text-anchor="start" x="210" y="-224.3" font-family="Times,serif" font-size="14.00"> a2</text>
</g>
<!-- Node0x214f9630 -->
<g id="node2" class="node"><title>Node0x214f9630</title>
<polygon fill="none" stroke="black" points="0,-96.5 0,-179.5 463,-179.5 463,-96.5 0,-96.5"/>
<text text-anchor="start" x="8" y="-164.3" font-family="Times,serif" font-size="14.00">v1 = a1</text>
<text text-anchor="start" x="8" y="-149.3" font-family="Times,serif" font-size="14.00"> g2 = v1</text>
<text text-anchor="start" x="8" y="-134.3" font-family="Times,serif" font-size="14.00"> v2 = (g5 + 428)</text>
<text text-anchor="start" x="8" y="-119.3" font-family="Times,serif" font-size="14.00"> v3 = 1005</text>
<text text-anchor="start" x="8" y="-104.3" font-family="Times,serif" font-size="14.00"> return function_4102e8(v1, BitCastExpr&lt;ptr&gt;(&amp;(v3)), &amp;(v2))</text>
</g>
<!-- Node0x1bf09620&#45;&gt;Node0x214f9630 -->
<g id="edge1" class="edge"><title>Node0x1bf09620&#45;&gt;Node0x214f9630</title>
<path fill="none" stroke="black" d="M231.5,-216.274C231.5,-208.222 231.5,-199.037 231.5,-189.878"/>
<polygon fill="black" stroke="black" points="235,-189.61 231.5,-179.61 228,-189.61 235,-189.61"/>
</g>
<!-- Node0x214f95d0 -->
<g id="node3" class="node"><title>Node0x214f95d0</title>
<polygon fill="none" stroke="black" points="204.5,-23.5 204.5,-59.5 258.5,-59.5 258.5,-23.5 204.5,-23.5"/>
<text text-anchor="start" x="212.5" y="-37.8" font-family="Times,serif" font-size="14.00">exit:</text>
</g>
<!-- Node0x214f9630&#45;&gt;Node0x214f95d0 -->
<g id="edge2" class="edge"><title>Node0x214f9630&#45;&gt;Node0x214f95d0</title>
<path fill="none" stroke="black" d="M231.5,-96.3751C231.5,-87.4706 231.5,-78.246 231.5,-70"/>
<polygon fill="black" stroke="black" points="235,-69.8327 231.5,-59.8328 228,-69.8328 235,-69.8327"/>
</g>
</g>
</svg>
