<?xml version="1.0" encoding="UTF-8" standalone="no"?>
<!DOCTYPE svg PUBLIC "-//W3C//DTD SVG 1.1//EN"
 "http://www.w3.org/Graphics/SVG/1.1/DTD/svg11.dtd">
<!-- Generated by graphviz version 2.38.0 (20140413.2041)
 -->
<!-- Title: Control&#45;flow graph for function &#39;function_40c38b(*a1, a2)&#39;. Pages: 1 -->
<svg width="1376pt" height="834pt"
 viewBox="0.00 0.00 1376.00 834.00" xmlns="http://www.w3.org/2000/svg" xmlns:xlink="http://www.w3.org/1999/xlink">
<g id="graph0" class="graph" transform="scale(1 1) rotate(0) translate(4 830)">
<title>Control&#45;flow graph for function &#39;function_40c38b(*a1, a2)&#39;.</title>
<polygon fill="white" stroke="none" points="-4,4 -4,-830 1372,-830 1372,4 -4,4"/>
<text text-anchor="middle" x="684" y="-7.8" font-family="Times,serif" font-size="14.00">Control&#45;flow graph for function &#39;function_40c38b(*a1, a2)&#39;.</text>
<!-- Node0xa539f890 -->
<g id="node1" class="node"><title>Node0xa539f890</title>
<polygon fill="none" stroke="black" points="831,-772.5 831,-825.5 890,-825.5 890,-772.5 831,-772.5"/>
<text text-anchor="start" x="839" y="-810.3" font-family="Times,serif" font-size="14.00">entry:</text>
<text text-anchor="start" x="839" y="-795.3" font-family="Times,serif" font-size="14.00"> a1</text>
<text text-anchor="start" x="839" y="-780.3" font-family="Times,serif" font-size="14.00"> a2</text>
</g>
<!-- Node0xa539e960 -->
<g id="node2" class="node"><title>Node0xa539e960</title>
<polygon fill="none" stroke="black" points="644.5,-666.5 644.5,-734.5 1076.5,-734.5 1076.5,-666.5 644.5,-666.5"/>
<text text-anchor="start" x="652.5" y="-719.3" font-family="Times,serif" font-size="14.00">v1 = IntToPtrCastExpr&lt;ptr&gt;(g9)</text>
<text text-anchor="start" x="652.5" y="-704.3" font-family="Times,serif" font-size="14.00"> g9 = g5</text>
<text text-anchor="start" x="652.5" y="-689.3" font-family="Times,serif" font-size="14.00"> v2 = *(IntToPtrCastExpr&lt;ptr&gt;((function_41022a() + 4)))</text>
<text text-anchor="start" x="652.5" y="-674.3" font-family="Times,serif" font-size="14.00"> g2 = v2</text>
</g>
<!-- Node0xa539f890&#45;&gt;Node0xa539e960 -->
<g id="edge1" class="edge"><title>Node0xa539f890&#45;&gt;Node0xa539e960</title>
<path fill="none" stroke="black" d="M860.5,-772.393C860.5,-763.864 860.5,-754.114 860.5,-744.631"/>
<polygon fill="black" stroke="black" points="864,-744.516 860.5,-734.516 857,-744.516 864,-744.516"/>
</g>
<!-- Node0xa53a0a70 -->
<g id="node3" class="node"><title>Node0xa53a0a70</title>
<polygon fill="none" stroke="black" points="811,-592.5 811,-628.5 910,-628.5 910,-592.5 811,-592.5"/>
<text text-anchor="start" x="819" y="-606.8" font-family="Times,serif" font-size="14.00">if (v2 != 0):</text>
</g>
<!-- Node0xa539e960&#45;&gt;Node0xa53a0a70 -->
<g id="edge2" class="edge"><title>Node0xa539e960&#45;&gt;Node0xa53a0a70</title>
<path fill="none" stroke="black" d="M860.5,-666.482C860.5,-657.328 860.5,-647.497 860.5,-638.715"/>
<polygon fill="black" stroke="black" points="864,-638.64 860.5,-628.64 857,-638.64 864,-638.64"/>
</g>
<!-- Node0xa53a1450 -->
<g id="node4" class="node"><title>Node0xa53a1450</title>
<polygon fill="none" stroke="black" points="435.5,-502.5 435.5,-540.5 805.5,-540.5 805.5,-502.5 435.5,-502.5"/>
<text text-anchor="start" x="443.5" y="-525.3" font-family="Times,serif" font-size="14.00">0x40c39a:</text>
<text text-anchor="start" x="443.5" y="-510.3" font-family="Times,serif" font-size="14.00"> if (*(IntToPtrCastExpr&lt;ptr&gt;((v2 + 32))) == g9):</text>
</g>
<!-- Node0xa53a0a70&#45;&gt;Node0xa53a1450 -->
<g id="edge3" class="edge"><title>Node0xa53a0a70&#45;&gt;Node0xa53a1450</title>
<path fill="none" stroke="black" d="M813.37,-592.415C775.203,-578.58 721.208,-559.007 680.052,-544.088"/>
<polygon fill="black" stroke="black" points="681.01,-540.712 670.416,-540.595 678.625,-547.293 681.01,-540.712"/>
<text text-anchor="middle" x="789.5" y="-562.8" font-family="Times,serif" font-size="14.00">v2 != 0</text>
</g>
<!-- Node0xa53a0d70 -->
<g id="node5" class="node"><title>Node0xa53a0d70</title>
<polygon fill="none" stroke="black" points="624,-291.5 624,-359.5 877,-359.5 877,-291.5 624,-291.5"/>
<text text-anchor="start" x="632" y="-344.3" font-family="Times,serif" font-size="14.00">0x40c3a9:</text>
<text text-anchor="start" x="632" y="-329.3" font-family="Times,serif" font-size="14.00"> g5 = g9</text>
<text text-anchor="start" x="632" y="-314.3" font-family="Times,serif" font-size="14.00"> v3 = function_40dfca(&amp;(v1[&#39;0&#39;]))</text>
<text text-anchor="start" x="632" y="-299.3" font-family="Times,serif" font-size="14.00"> v4 = g9</text>
</g>
<!-- Node0xa53a0a70&#45;&gt;Node0xa53a0d70 -->
<g id="edge4" class="edge"><title>Node0xa53a0a70&#45;&gt;Node0xa53a0d70</title>
<path fill="none" stroke="black" d="M877.461,-592.479C913.082,-554.634 988.784,-461.752 943.5,-397 929.395,-376.831 908.874,-362.413 886.42,-352.11"/>
<polygon fill="black" stroke="black" points="887.611,-348.812 877.041,-348.082 884.848,-355.244 887.611,-348.812"/>
<text text-anchor="middle" x="984.5" y="-472.8" font-family="Times,serif" font-size="14.00">v2 == 0</text>
</g>
<!-- Node0xa53a1450&#45;&gt;Node0xa53a0d70 -->
<g id="edge6" class="edge"><title>Node0xa53a1450&#45;&gt;Node0xa53a0d70</title>
<path fill="none" stroke="black" d="M435.41,-513.881C309.242,-502.646 176.136,-473.21 242.5,-397 266.679,-369.233 471.685,-347.916 613.754,-336.306"/>
<polygon fill="black" stroke="black" points="614.186,-339.783 623.871,-335.487 613.621,-332.806 614.186,-339.783"/>
<text text-anchor="middle" x="399.5" y="-420.3" font-family="Times,serif" font-size="14.00">*(IntToPtrCastExpr&lt;ptr&gt;((v2 + 32))) != g9</text>
</g>
<!-- Node0x11ac1480 -->
<g id="node6" class="node"><title>Node0x11ac1480</title>
<polygon fill="none" stroke="black" points="566,-397.5 566,-450.5 935,-450.5 935,-397.5 566,-397.5"/>
<text text-anchor="start" x="574" y="-435.3" font-family="Times,serif" font-size="14.00">0x40c39f:</text>
<text text-anchor="start" x="574" y="-420.3" font-family="Times,serif" font-size="14.00"> g5 = 4503400</text>
<text text-anchor="start" x="574" y="-405.3" font-family="Times,serif" font-size="14.00"> function_410bb4(PtrToIntCastExpr&lt;int32&gt;(v1))</text>
</g>
<!-- Node0xa53a1450&#45;&gt;Node0x11ac1480 -->
<g id="edge5" class="edge"><title>Node0xa53a1450&#45;&gt;Node0x11ac1480</title>
<path fill="none" stroke="black" d="M616.006,-502.177C614.493,-491.522 614.644,-478.389 621.5,-469 624.814,-464.461 628.624,-460.386 632.809,-456.728"/>
<polygon fill="black" stroke="black" points="634.97,-459.481 640.72,-450.582 630.675,-453.953 634.97,-459.481"/>
<text text-anchor="middle" x="781.5" y="-472.8" font-family="Times,serif" font-size="14.00">*(IntToPtrCastExpr&lt;ptr&gt;((v2 + 32))) == g9</text>
</g>
<!-- Node0xa53a0dd0 -->
<g id="node7" class="node"><title>Node0xa53a0dd0</title>
<polygon fill="none" stroke="black" points="657.5,-217.5 657.5,-253.5 843.5,-253.5 843.5,-217.5 657.5,-217.5"/>
<text text-anchor="start" x="665.5" y="-231.8" font-family="Times,serif" font-size="14.00">if (v3 == 1073741824):</text>
</g>
<!-- Node0xa53a0d70&#45;&gt;Node0xa53a0dd0 -->
<g id="edge7" class="edge"><title>Node0xa53a0d70&#45;&gt;Node0xa53a0dd0</title>
<path fill="none" stroke="black" d="M750.5,-291.482C750.5,-282.328 750.5,-272.497 750.5,-263.715"/>
<polygon fill="black" stroke="black" points="754,-263.64 750.5,-253.64 747,-263.64 754,-263.64"/>
</g>
<!-- Node0x11ac1480&#45;&gt;Node0xa53a0d70 -->
<g id="edge8" class="edge"><title>Node0x11ac1480&#45;&gt;Node0xa53a0d70</title>
<path fill="none" stroke="black" d="M750.5,-397.393C750.5,-388.864 750.5,-379.114 750.5,-369.631"/>
<polygon fill="black" stroke="black" points="754,-369.516 750.5,-359.516 747,-369.516 754,-369.516"/>
</g>
<!-- Node0xa53a1840 -->
<g id="node8" class="node"><title>Node0xa53a1840</title>
<polygon fill="none" stroke="black" points="0,-105 0,-158 1073,-158 1073,-105 0,-105"/>
<text text-anchor="start" x="8" y="-142.8" font-family="Times,serif" font-size="14.00">v5 = *(IntToPtrCastExpr&lt;ptr&gt;((v4 + 32)))</text>
<text text-anchor="start" x="8" y="-127.8" font-family="Times,serif" font-size="14.00"> function_40b999(IntToPtrCastExpr&lt;ptr&gt;(v5), IntToPtrCastExpr&lt;ptr&gt;(21), NULL, NULL, IntToPtrCastExpr&lt;ptr&gt;(1), IntToPtrCastExpr&lt;ptr&gt;(1))</text>
<text text-anchor="start" x="8" y="-112.8" font-family="Times,serif" font-size="14.00"> return 0</text>
</g>
<!-- Node0xa53a0dd0&#45;&gt;Node0xa53a1840 -->
<g id="edge9" class="edge"><title>Node0xa53a0dd0&#45;&gt;Node0xa53a1840</title>
<path fill="none" stroke="black" d="M714.681,-217.427C683.31,-202.475 636.999,-180.401 599.453,-162.506"/>
<polygon fill="black" stroke="black" points="600.644,-159.196 590.111,-158.053 597.632,-165.515 600.644,-159.196"/>
<text text-anchor="middle" x="746" y="-187.8" font-family="Times,serif" font-size="14.00">v3 == 1073741824</text>
</g>
<!-- Node0xa53a05d0 -->
<g id="node9" class="node"><title>Node0xa53a05d0</title>
<polygon fill="none" stroke="black" points="1091,-97.5 1091,-165.5 1368,-165.5 1368,-97.5 1091,-97.5"/>
<text text-anchor="start" x="1099" y="-150.3" font-family="Times,serif" font-size="14.00">0x40c3c9:</text>
<text text-anchor="start" x="1099" y="-135.3" font-family="Times,serif" font-size="14.00"> g5 = v4</text>
<text text-anchor="start" x="1099" y="-120.3" font-family="Times,serif" font-size="14.00"> g9 = PtrToIntCastExpr&lt;int32&gt;(v1)</text>
<text text-anchor="start" x="1099" y="-105.3" font-family="Times,serif" font-size="14.00"> return function_40afc3(v1)</text>
</g>
<!-- Node0xa53a0dd0&#45;&gt;Node0xa53a05d0 -->
<g id="edge10" class="edge"><title>Node0xa53a0dd0&#45;&gt;Node0xa53a05d0</title>
<path fill="none" stroke="black" d="M835.55,-217.454C900.257,-204.368 991.775,-185.611 1080.65,-166.39"/>
<polygon fill="black" stroke="black" points="1081.6,-169.766 1090.63,-164.227 1080.12,-162.924 1081.6,-169.766"/>
<text text-anchor="middle" x="1058" y="-187.8" font-family="Times,serif" font-size="14.00">v3 != 1073741824</text>
</g>
<!-- Node0xa539ff80 -->
<g id="node10" class="node"><title>Node0xa539ff80</title>
<polygon fill="none" stroke="black" points="939.5,-23.5 939.5,-59.5 993.5,-59.5 993.5,-23.5 939.5,-23.5"/>
<text text-anchor="start" x="947.5" y="-37.8" font-family="Times,serif" font-size="14.00">exit:</text>
</g>
<!-- Node0xa53a1840&#45;&gt;Node0xa539ff80 -->
<g id="edge11" class="edge"><title>Node0xa53a1840&#45;&gt;Node0xa539ff80</title>
<path fill="none" stroke="black" d="M661.163,-104.988C752.405,-86.3148 870.179,-62.2121 929.242,-50.1249"/>
<polygon fill="black" stroke="black" points="930.132,-53.5153 939.227,-48.0814 928.729,-46.6575 930.132,-53.5153"/>
</g>
<!-- Node0xa53a05d0&#45;&gt;Node0xa539ff80 -->
<g id="edge12" class="edge"><title>Node0xa53a05d0&#45;&gt;Node0xa539ff80</title>
<path fill="none" stroke="black" d="M1130.82,-97.4817C1086.31,-82.5869 1036.43,-65.8986 1003.43,-54.8561"/>
<polygon fill="black" stroke="black" points="1004.35,-51.4726 993.752,-51.6186 1002.12,-58.1109 1004.35,-51.4726"/>
</g>
</g>
</svg>
