<?xml version="1.0" encoding="UTF-8" standalone="no"?>
<!DOCTYPE svg PUBLIC "-//W3C//DTD SVG 1.1//EN"
 "http://www.w3.org/Graphics/SVG/1.1/DTD/svg11.dtd">
<!-- Generated by graphviz version 2.38.0 (20140413.2041)
 -->
<!-- Title: Control&#45;flow graph for function &#39;function_41a9bc()&#39;. Pages: 1 -->
<svg width="1014pt" height="1250pt"
 viewBox="0.00 0.00 1014.00 1250.00" xmlns="http://www.w3.org/2000/svg" xmlns:xlink="http://www.w3.org/1999/xlink">
<g id="graph0" class="graph" transform="scale(1 1) rotate(0) translate(4 1246)">
<title>Control&#45;flow graph for function &#39;function_41a9bc()&#39;.</title>
<polygon fill="white" stroke="none" points="-4,4 -4,-1246 1010,-1246 1010,4 -4,4"/>
<text text-anchor="middle" x="503" y="-7.8" font-family="Times,serif" font-size="14.00">Control&#45;flow graph for function &#39;function_41a9bc()&#39;.</text>
<!-- Node0x11580d90 -->
<g id="node1" class="node"><title>Node0x11580d90</title>
<polygon fill="none" stroke="black" points="589,-1205.5 589,-1241.5 648,-1241.5 648,-1205.5 589,-1205.5"/>
<text text-anchor="start" x="597" y="-1219.8" font-family="Times,serif" font-size="14.00">entry:</text>
</g>
<!-- Node0x11581e10 -->
<g id="node2" class="node"><title>Node0x11581e10</title>
<polygon fill="none" stroke="black" points="573,-1069.5 573,-1167.5 664,-1167.5 664,-1069.5 573,-1069.5"/>
<text text-anchor="start" x="581" y="-1152.3" font-family="Times,serif" font-size="14.00">0x41a9bc:</text>
<text text-anchor="start" x="581" y="-1137.3" font-family="Times,serif" font-size="14.00"> v1</text>
<text text-anchor="start" x="581" y="-1122.3" font-family="Times,serif" font-size="14.00"> g9 = v1</text>
<text text-anchor="start" x="581" y="-1107.3" font-family="Times,serif" font-size="14.00"> v2</text>
<text text-anchor="start" x="581" y="-1092.3" font-family="Times,serif" font-size="14.00"> v3</text>
<text text-anchor="start" x="581" y="-1077.3" font-family="Times,serif" font-size="14.00"> v4</text>
</g>
<!-- Node0x11580d90&#45;&gt;Node0x11581e10 -->
<g id="edge1" class="edge"><title>Node0x11580d90&#45;&gt;Node0x11581e10</title>
<path fill="none" stroke="black" d="M618.5,-1205.49C618.5,-1197.69 618.5,-1187.94 618.5,-1177.83"/>
<polygon fill="black" stroke="black" points="622,-1177.66 618.5,-1167.66 615,-1177.66 622,-1177.66"/>
</g>
<!-- Node0x11582020 -->
<g id="node3" class="node"><title>Node0x11582020</title>
<polygon fill="none" stroke="black" points="569,-995.5 569,-1031.5 668,-1031.5 668,-995.5 569,-995.5"/>
<text text-anchor="start" x="577" y="-1009.8" font-family="Times,serif" font-size="14.00">if (v1 != 0):</text>
</g>
<!-- Node0x11581e10&#45;&gt;Node0x11582020 -->
<g id="edge2" class="edge"><title>Node0x11581e10&#45;&gt;Node0x11582020</title>
<path fill="none" stroke="black" d="M618.5,-1069.32C618.5,-1059.89 618.5,-1050.32 618.5,-1041.87"/>
<polygon fill="black" stroke="black" points="622,-1041.86 618.5,-1031.86 615,-1041.86 622,-1041.86"/>
</g>
<!-- Node0x2640bcb0 -->
<g id="node4" class="node"><title>Node0x2640bcb0</title>
<polygon fill="none" stroke="black" points="0,-905.5 0,-943.5 683,-943.5 683,-905.5 0,-905.5"/>
<text text-anchor="start" x="8" y="-928.3" font-family="Times,serif" font-size="14.00">0x41a9c6:</text>
<text text-anchor="start" x="8" y="-913.3" font-family="Times,serif" font-size="14.00"> v2 = GetWindowLongA(IntToPtrCastExpr&lt;ptr&gt;(*(IntToPtrCastExpr&lt;ptr&gt;((v1 + 32)))), &#45;20)</text>
</g>
<!-- Node0x11582020&#45;&gt;Node0x2640bcb0 -->
<g id="edge3" class="edge"><title>Node0x11582020&#45;&gt;Node0x2640bcb0</title>
<path fill="none" stroke="black" d="M568.978,-996.946C524.336,-982.925 458.306,-962.186 408.87,-946.66"/>
<polygon fill="black" stroke="black" points="409.805,-943.285 399.215,-943.627 407.707,-949.963 409.805,-943.285"/>
<text text-anchor="middle" x="532.5" y="-965.8" font-family="Times,serif" font-size="14.00">v1 != 0</text>
</g>
<!-- Node0x11582210 -->
<g id="node5" class="node"><title>Node0x11582210</title>
<polygon fill="none" stroke="black" points="635.5,-675 635.5,-728 787.5,-728 787.5,-675 635.5,-675"/>
<text text-anchor="start" x="643.5" y="-712.8" font-family="Times,serif" font-size="14.00">v6 = NULL</text>
<text text-anchor="start" x="643.5" y="-697.8" font-family="Times,serif" font-size="14.00"> function_41a756()</text>
<text text-anchor="start" x="643.5" y="-682.8" font-family="Times,serif" font-size="14.00"> g7 = v2</text>
</g>
<!-- Node0x11582020&#45;&gt;Node0x11582210 -->
<g id="edge4" class="edge"><title>Node0x11582020&#45;&gt;Node0x11582210</title>
<path fill="none" stroke="black" d="M644.807,-995.487C661.261,-983.286 681.221,-965.284 691.5,-944 723.886,-876.941 721.047,-787.155 716.212,-738.133"/>
<polygon fill="black" stroke="black" points="719.675,-737.596 715.129,-728.026 712.715,-738.342 719.675,-737.596"/>
<text text-anchor="middle" x="743.5" y="-875.8" font-family="Times,serif" font-size="14.00">v1 == 0</text>
</g>
<!-- Node0x11582d60 -->
<g id="node6" class="node"><title>Node0x11582d60</title>
<polygon fill="none" stroke="black" points="271,-817.5 271,-853.5 412,-853.5 412,-817.5 271,-817.5"/>
<text text-anchor="start" x="279" y="-831.8" font-family="Times,serif" font-size="14.00">if (v2 == 65536):</text>
</g>
<!-- Node0x2640bcb0&#45;&gt;Node0x11582d60 -->
<g id="edge5" class="edge"><title>Node0x2640bcb0&#45;&gt;Node0x11582d60</title>
<path fill="none" stroke="black" d="M341.5,-905.474C341.5,-893.456 341.5,-877.434 341.5,-863.857"/>
<polygon fill="black" stroke="black" points="345,-863.615 341.5,-853.615 338,-863.615 345,-863.615"/>
</g>
<!-- Node0x11582270 -->
<g id="node7" class="node"><title>Node0x11582270</title>
<polygon fill="none" stroke="black" points="661,-563.5 661,-599.5 766,-599.5 766,-563.5 661,-563.5"/>
<text text-anchor="start" x="669" y="-577.8" font-family="Times,serif" font-size="14.00">if (v2 == 0):</text>
</g>
<!-- Node0x11582210&#45;&gt;Node0x11582270 -->
<g id="edge6" class="edge"><title>Node0x11582210&#45;&gt;Node0x11582270</title>
<path fill="none" stroke="black" d="M711.934,-674.896C712.26,-655.679 712.705,-629.415 713.037,-609.8"/>
<polygon fill="black" stroke="black" points="716.539,-609.732 713.209,-599.674 709.54,-609.613 716.539,-609.732"/>
</g>
<!-- Node0x11582d60&#45;&gt;Node0x11582210 -->
<g id="edge8" class="edge"><title>Node0x11582d60&#45;&gt;Node0x11582210</title>
<path fill="none" stroke="black" d="M389.492,-817.379C450.403,-795.648 556.396,-757.834 630.064,-731.553"/>
<polygon fill="black" stroke="black" points="631.542,-734.742 639.785,-728.085 629.19,-728.149 631.542,-734.742"/>
<text text-anchor="middle" x="527.5" y="-787.8" font-family="Times,serif" font-size="14.00">v2 != 65536</text>
</g>
<!-- Node0x115826d0 -->
<g id="node8" class="node"><title>Node0x115826d0</title>
<polygon fill="none" stroke="black" points="255.5,-637.5 255.5,-765.5 407.5,-765.5 407.5,-637.5 255.5,-637.5"/>
<text text-anchor="start" x="263.5" y="-750.3" font-family="Times,serif" font-size="14.00">0x41a9f1:</text>
<text text-anchor="start" x="263.5" y="-735.3" font-family="Times,serif" font-size="14.00"> function_41a701()</text>
<text text-anchor="start" x="263.5" y="-720.3" font-family="Times,serif" font-size="14.00"> g7 = 65536</text>
<text text-anchor="start" x="263.5" y="-705.3" font-family="Times,serif" font-size="14.00"> v4 = 65536</text>
<text text-anchor="start" x="263.5" y="-690.3" font-family="Times,serif" font-size="14.00"> g9 = v4</text>
<text text-anchor="start" x="263.5" y="-675.3" font-family="Times,serif" font-size="14.00"> function_41a96f()</text>
<text text-anchor="start" x="263.5" y="-660.3" font-family="Times,serif" font-size="14.00"> function_41a756()</text>
<text text-anchor="start" x="263.5" y="-645.3" font-family="Times,serif" font-size="14.00"> g9 = v4</text>
</g>
<!-- Node0x11582d60&#45;&gt;Node0x115826d0 -->
<g id="edge7" class="edge"><title>Node0x11582d60&#45;&gt;Node0x115826d0</title>
<path fill="none" stroke="black" d="M340.193,-817.243C339.363,-806.294 338.227,-791.301 337.05,-775.764"/>
<polygon fill="black" stroke="black" points="340.519,-775.22 336.274,-765.513 333.539,-775.749 340.519,-775.22"/>
<text text-anchor="middle" x="387.5" y="-787.8" font-family="Times,serif" font-size="14.00">v2 == 65536</text>
</g>
<!-- Node0x11582f00 -->
<g id="node9" class="node"><title>Node0x11582f00</title>
<polygon fill="none" stroke="black" points="729,-341.5 729,-409.5 1006,-409.5 1006,-341.5 729,-341.5"/>
<text text-anchor="start" x="737" y="-394.3" font-family="Times,serif" font-size="14.00">0x41aa19:</text>
<text text-anchor="start" x="737" y="-379.3" font-family="Times,serif" font-size="14.00"> g7 = PtrToIntCastExpr&lt;int32&gt;(v3)</text>
<text text-anchor="start" x="737" y="-364.3" font-family="Times,serif" font-size="14.00"> g9 = PtrToIntCastExpr&lt;int32&gt;(v6)</text>
<text text-anchor="start" x="737" y="-349.3" font-family="Times,serif" font-size="14.00"> return</text>
</g>
<!-- Node0x11582270&#45;&gt;Node0x11582f00 -->
<g id="edge9" class="edge"><title>Node0x11582270&#45;&gt;Node0x11582f00</title>
<path fill="none" stroke="black" d="M745.836,-563.339C754.581,-558.013 763.759,-551.751 771.5,-545 810.516,-510.976 837.296,-457.037 852.464,-419.38"/>
<polygon fill="black" stroke="black" points="855.867,-420.288 856.252,-409.701 849.348,-417.737 855.867,-420.288"/>
<text text-anchor="middle" x="815.5" y="-533.8" font-family="Times,serif" font-size="14.00">v2 == 0</text>
</g>
<!-- Node0x11582670 -->
<g id="node10" class="node"><title>Node0x11582670</title>
<polygon fill="none" stroke="black" points="637.5,-428.5 637.5,-511.5 789.5,-511.5 789.5,-428.5 637.5,-428.5"/>
<text text-anchor="start" x="645.5" y="-496.3" font-family="Times,serif" font-size="14.00">v4 = v2</text>
<text text-anchor="start" x="645.5" y="-481.3" font-family="Times,serif" font-size="14.00"> g9 = v4</text>
<text text-anchor="start" x="645.5" y="-466.3" font-family="Times,serif" font-size="14.00"> function_41a96f()</text>
<text text-anchor="start" x="645.5" y="-451.3" font-family="Times,serif" font-size="14.00"> function_41a756()</text>
<text text-anchor="start" x="645.5" y="-436.3" font-family="Times,serif" font-size="14.00"> g9 = v4</text>
</g>
<!-- Node0x11582270&#45;&gt;Node0x11582670 -->
<g id="edge10" class="edge"><title>Node0x11582270&#45;&gt;Node0x11582670</title>
<path fill="none" stroke="black" d="M713.5,-563.391C713.5,-552.15 713.5,-536.807 713.5,-521.853"/>
<polygon fill="black" stroke="black" points="717,-521.618 713.5,-511.618 710,-521.618 717,-521.618"/>
<text text-anchor="middle" x="740.5" y="-533.8" font-family="Times,serif" font-size="14.00">v2 != 0</text>
</g>
<!-- Node0x1157e3f0 -->
<g id="node11" class="node"><title>Node0x1157e3f0</title>
<polygon fill="none" stroke="black" points="262,-563.5 262,-599.5 399,-599.5 399,-563.5 262,-563.5"/>
<text text-anchor="start" x="270" y="-577.8" font-family="Times,serif" font-size="14.00">while (v4 != g7):</text>
</g>
<!-- Node0x115826d0&#45;&gt;Node0x1157e3f0 -->
<g id="edge11" class="edge"><title>Node0x115826d0&#45;&gt;Node0x1157e3f0</title>
<path fill="none" stroke="black" d="M330.965,-637.355C330.884,-627.753 330.803,-618.299 330.733,-610.016"/>
<polygon fill="black" stroke="black" points="334.232,-609.857 330.647,-599.888 327.232,-609.917 334.232,-609.857"/>
</g>
<!-- Node0x115817a0 -->
<g id="node12" class="node"><title>Node0x115817a0</title>
<polygon fill="none" stroke="black" points="503.5,-23.5 503.5,-59.5 557.5,-59.5 557.5,-23.5 503.5,-23.5"/>
<text text-anchor="start" x="511.5" y="-37.8" font-family="Times,serif" font-size="14.00">exit:</text>
</g>
<!-- Node0x11582f00&#45;&gt;Node0x115817a0 -->
<g id="edge12" class="edge"><title>Node0x11582f00&#45;&gt;Node0x115817a0</title>
<path fill="none" stroke="black" d="M876.85,-341.342C890.882,-283.703 909.684,-164.723 848.5,-97 811.561,-56.113 643.573,-45.882 567.786,-43.3363"/>
<polygon fill="black" stroke="black" points="567.831,-39.8361 557.727,-43.0257 567.615,-46.8328 567.831,-39.8361"/>
</g>
<!-- Node0x11581fc0 -->
<g id="node13" class="node"><title>Node0x11581fc0</title>
<polygon fill="none" stroke="black" points="653,-286.5 653,-322.5 790,-322.5 790,-286.5 653,-286.5"/>
<text text-anchor="start" x="661" y="-300.8" font-family="Times,serif" font-size="14.00">while (v4 != g7):</text>
</g>
<!-- Node0x11582670&#45;&gt;Node0x11581fc0 -->
<g id="edge13" class="edge"><title>Node0x11582670&#45;&gt;Node0x11581fc0</title>
<path fill="none" stroke="black" d="M715.498,-428.164C716.956,-398.37 718.892,-358.806 720.166,-332.772"/>
<polygon fill="black" stroke="black" points="723.675,-332.67 720.668,-322.511 716.683,-332.328 723.675,-332.67"/>
</g>
<!-- Node0x11583260 -->
<g id="node14" class="node"><title>Node0x11583260</title>
<polygon fill="none" stroke="black" points="176.5,-436 176.5,-504 328.5,-504 328.5,-436 176.5,-436"/>
<text text-anchor="start" x="184.5" y="-488.8" font-family="Times,serif" font-size="14.00">0x41aa15:</text>
<text text-anchor="start" x="184.5" y="-473.8" font-family="Times,serif" font-size="14.00"> function_41a96f()</text>
<text text-anchor="start" x="184.5" y="-458.8" font-family="Times,serif" font-size="14.00"> function_41a756()</text>
<text text-anchor="start" x="184.5" y="-443.8" font-family="Times,serif" font-size="14.00"> g9 = v4</text>
</g>
<!-- Node0x1157e3f0&#45;&gt;Node0x11583260 -->
<g id="edge14" class="edge"><title>Node0x1157e3f0&#45;&gt;Node0x11583260</title>
<path fill="none" stroke="black" d="M273.428,-563.423C265.552,-558.682 258.472,-552.653 253.5,-545 247.665,-536.019 245.524,-525.04 245.29,-514.317"/>
<polygon fill="black" stroke="black" points="248.792,-514.289 245.591,-504.189 241.795,-514.08 248.792,-514.289"/>
<text text-anchor="middle" x="285" y="-533.8" font-family="Times,serif" font-size="14.00">v4 != g7</text>
</g>
<!-- Node0x11583200 -->
<g id="node15" class="node"><title>Node0x11583200</title>
<polygon fill="none" stroke="black" points="225,-184.5 225,-267.5 502,-267.5 502,-184.5 225,-184.5"/>
<text text-anchor="start" x="233" y="-252.3" font-family="Times,serif" font-size="14.00">0x41aa19:</text>
<text text-anchor="start" x="233" y="-237.3" font-family="Times,serif" font-size="14.00"> v5</text>
<text text-anchor="start" x="233" y="-222.3" font-family="Times,serif" font-size="14.00"> g7 = PtrToIntCastExpr&lt;int32&gt;(v5)</text>
<text text-anchor="start" x="233" y="-207.3" font-family="Times,serif" font-size="14.00"> g9 = PtrToIntCastExpr&lt;int32&gt;(v3)</text>
<text text-anchor="start" x="233" y="-192.3" font-family="Times,serif" font-size="14.00"> return</text>
</g>
<!-- Node0x1157e3f0&#45;&gt;Node0x11583200 -->
<g id="edge15" class="edge"><title>Node0x1157e3f0&#45;&gt;Node0x11583200</title>
<path fill="none" stroke="black" d="M332.527,-563.174C333.183,-557.396 333.896,-550.923 334.5,-545 344.111,-450.701 353.82,-340.511 359.209,-277.722"/>
<polygon fill="black" stroke="black" points="362.702,-277.949 360.068,-267.687 355.728,-277.352 362.702,-277.949"/>
<text text-anchor="middle" x="381" y="-466.3" font-family="Times,serif" font-size="14.00">v4 == g7</text>
</g>
<!-- Node0x115830e0 -->
<g id="node16" class="node"><title>Node0x115830e0</title>
<polygon fill="none" stroke="black" points="687.5,-97.5 687.5,-165.5 839.5,-165.5 839.5,-97.5 687.5,-97.5"/>
<text text-anchor="start" x="695.5" y="-150.3" font-family="Times,serif" font-size="14.00">0x41aa15:</text>
<text text-anchor="start" x="695.5" y="-135.3" font-family="Times,serif" font-size="14.00"> function_41a96f()</text>
<text text-anchor="start" x="695.5" y="-120.3" font-family="Times,serif" font-size="14.00"> function_41a756()</text>
<text text-anchor="start" x="695.5" y="-105.3" font-family="Times,serif" font-size="14.00"> g9 = v4</text>
</g>
<!-- Node0x11581fc0&#45;&gt;Node0x115830e0 -->
<g id="edge16" class="edge"><title>Node0x11581fc0&#45;&gt;Node0x115830e0</title>
<path fill="none" stroke="black" d="M730.143,-286.483C732.802,-280.726 735.542,-274.187 737.5,-268 747.081,-237.726 753.711,-202.472 757.878,-175.513"/>
<polygon fill="black" stroke="black" points="761.34,-176.021 759.355,-165.614 754.417,-174.988 761.34,-176.021"/>
<text text-anchor="middle" x="788" y="-222.3" font-family="Times,serif" font-size="14.00">v4 != g7</text>
</g>
<!-- Node0x11582bf0 -->
<g id="node17" class="node"><title>Node0x11582bf0</title>
<polygon fill="none" stroke="black" points="392,-105 392,-158 669,-158 669,-105 392,-105"/>
<text text-anchor="start" x="400" y="-142.8" font-family="Times,serif" font-size="14.00">0x41aa19:</text>
<text text-anchor="start" x="400" y="-127.8" font-family="Times,serif" font-size="14.00"> g7 = PtrToIntCastExpr&lt;int32&gt;(v3)</text>
<text text-anchor="start" x="400" y="-112.8" font-family="Times,serif" font-size="14.00"> g9 = PtrToIntCastExpr&lt;int32&gt;(v6)</text>
</g>
<!-- Node0x11581fc0&#45;&gt;Node0x11582bf0 -->
<g id="edge17" class="edge"><title>Node0x11581fc0&#45;&gt;Node0x11582bf0</title>
<path fill="none" stroke="black" d="M681.451,-286.408C671.229,-281.199 660.573,-274.978 651.5,-268 613.273,-238.6 577.544,-195.981 554.967,-166.422"/>
<polygon fill="black" stroke="black" points="557.489,-163.954 548.675,-158.075 551.9,-168.168 557.489,-163.954"/>
<text text-anchor="middle" x="686" y="-222.3" font-family="Times,serif" font-size="14.00">v4 == g7</text>
</g>
<!-- Node0x11583260&#45;&gt;Node0x1157e3f0 -->
<g id="edge18" class="edge"><title>Node0x11583260&#45;&gt;Node0x1157e3f0</title>
<path fill="none" stroke="black" d="M295.372,-504.232C303.286,-511.984 310.829,-520.714 316.5,-530 320.786,-537.019 323.791,-545.377 325.885,-553.253"/>
<polygon fill="black" stroke="black" points="322.511,-554.204 328.144,-563.178 329.337,-552.65 322.511,-554.204"/>
</g>
<!-- Node0x11583200&#45;&gt;Node0x115817a0 -->
<g id="edge19" class="edge"><title>Node0x11583200&#45;&gt;Node0x115817a0</title>
<path fill="none" stroke="black" d="M359.434,-184.412C358.891,-156.883 362.8,-121.229 382.5,-97 409.582,-63.6919 459.002,-50.7402 493.242,-45.7041"/>
<polygon fill="black" stroke="black" points="493.879,-49.1507 503.34,-44.3815 492.97,-42.21 493.879,-49.1507"/>
</g>
<!-- Node0x115830e0&#45;&gt;Node0x11581fc0 -->
<g id="edge20" class="edge"><title>Node0x115830e0&#45;&gt;Node0x11581fc0</title>
<path fill="none" stroke="black" d="M745.544,-165.688C742.851,-171.657 740.359,-177.917 738.5,-184 729.11,-214.724 724.869,-251.508 722.979,-276.073"/>
<polygon fill="black" stroke="black" points="719.482,-275.9 722.285,-286.117 726.466,-276.382 719.482,-275.9"/>
</g>
<!-- Node0x11582bf0&#45;&gt;Node0x115817a0 -->
<g id="edge21" class="edge"><title>Node0x11582bf0&#45;&gt;Node0x115817a0</title>
<path fill="none" stroke="black" d="M530.5,-104.573C530.5,-93.5849 530.5,-80.7766 530.5,-69.6581"/>
<polygon fill="black" stroke="black" points="534,-69.6304 530.5,-59.6304 527,-69.6305 534,-69.6304"/>
</g>
</g>
</svg>
