<?xml version="1.0" encoding="UTF-8" standalone="no"?>
<!DOCTYPE svg PUBLIC "-//W3C//DTD SVG 1.1//EN"
 "http://www.w3.org/Graphics/SVG/1.1/DTD/svg11.dtd">
<!-- Generated by graphviz version 2.38.0 (20140413.2041)
 -->
<!-- Title: Control&#45;flow graph for function &#39;function_40fb6f(a1)&#39;. Pages: 1 -->
<svg width="878pt" height="1232pt"
 viewBox="0.00 0.00 877.50 1232.00" xmlns="http://www.w3.org/2000/svg" xmlns:xlink="http://www.w3.org/1999/xlink">
<g id="graph0" class="graph" transform="scale(1 1) rotate(0) translate(4 1228)">
<title>Control&#45;flow graph for function &#39;function_40fb6f(a1)&#39;.</title>
<polygon fill="white" stroke="none" points="-4,4 -4,-1228 873.5,-1228 873.5,4 -4,4"/>
<text text-anchor="middle" x="434.75" y="-7.8" font-family="Times,serif" font-size="14.00">Control&#45;flow graph for function &#39;function_40fb6f(a1)&#39;.</text>
<!-- Node0x28791460 -->
<g id="node1" class="node"><title>Node0x28791460</title>
<polygon fill="none" stroke="black" points="293.5,-1185.5 293.5,-1223.5 352.5,-1223.5 352.5,-1185.5 293.5,-1185.5"/>
<text text-anchor="start" x="301.5" y="-1208.3" font-family="Times,serif" font-size="14.00">entry:</text>
<text text-anchor="start" x="301.5" y="-1193.3" font-family="Times,serif" font-size="14.00"> a1</text>
</g>
<!-- Node0x28792e30 -->
<g id="node2" class="node"><title>Node0x28792e30</title>
<polygon fill="none" stroke="black" points="167.5,-1004.5 167.5,-1147.5 478.5,-1147.5 478.5,-1004.5 167.5,-1004.5"/>
<text text-anchor="start" x="175.5" y="-1132.3" font-family="Times,serif" font-size="14.00">v1 = g5</text>
<text text-anchor="start" x="175.5" y="-1117.3" font-family="Times,serif" font-size="14.00"> g9 = v1</text>
<text text-anchor="start" x="175.5" y="-1102.3" font-family="Times,serif" font-size="14.00"> v2 = (v1 + 32)</text>
<text text-anchor="start" x="175.5" y="-1087.3" font-family="Times,serif" font-size="14.00"> g2 = v2</text>
<text text-anchor="start" x="175.5" y="-1072.3" font-family="Times,serif" font-size="14.00"> lpAddend = IntToPtrCastExpr&lt;ptr&gt;(v2)</text>
<text text-anchor="start" x="175.5" y="-1057.3" font-family="Times,serif" font-size="14.00"> v3 = lpAddend</text>
<text text-anchor="start" x="175.5" y="-1042.3" font-family="Times,serif" font-size="14.00"> g10 = PtrToIntCastExpr&lt;int32&gt;(&amp;(v3))</text>
<text text-anchor="start" x="175.5" y="-1027.3" font-family="Times,serif" font-size="14.00"> v4 = InterlockedDecrement(lpAddend)</text>
<text text-anchor="start" x="175.5" y="-1012.3" font-family="Times,serif" font-size="14.00"> v5</text>
</g>
<!-- Node0x28791460&#45;&gt;Node0x28792e30 -->
<g id="edge1" class="edge"><title>Node0x28791460&#45;&gt;Node0x28792e30</title>
<path fill="none" stroke="black" d="M323,-1185.38C323,-1177.61 323,-1167.95 323,-1157.62"/>
<polygon fill="black" stroke="black" points="326.5,-1157.55 323,-1147.55 319.5,-1157.55 326.5,-1157.55"/>
</g>
<!-- Node0x28792f50 -->
<g id="node3" class="node"><title>Node0x28792f50</title>
<polygon fill="none" stroke="black" points="273.5,-930.5 273.5,-966.5 372.5,-966.5 372.5,-930.5 273.5,-930.5"/>
<text text-anchor="start" x="281.5" y="-944.8" font-family="Times,serif" font-size="14.00">if (v4 != 0):</text>
</g>
<!-- Node0x28792e30&#45;&gt;Node0x28792f50 -->
<g id="edge2" class="edge"><title>Node0x28792e30&#45;&gt;Node0x28792f50</title>
<path fill="none" stroke="black" d="M323,-1004.18C323,-994.439 323,-984.961 323,-976.707"/>
<polygon fill="black" stroke="black" points="326.5,-976.642 323,-966.642 319.5,-976.642 326.5,-976.642"/>
</g>
<!-- Node0xe671240 -->
<g id="node4" class="node"><title>Node0xe671240</title>
<polygon fill="none" stroke="black" points="0,-738.5 0,-791.5 472,-791.5 472,-738.5 0,-738.5"/>
<text text-anchor="start" x="8" y="-776.3" font-family="Times,serif" font-size="14.00">0x40fba2:</text>
<text text-anchor="start" x="8" y="-761.3" font-family="Times,serif" font-size="14.00"> g9 = PtrToIntCastExpr&lt;int32&gt;(v5)</text>
<text text-anchor="start" x="8" y="-746.3" font-family="Times,serif" font-size="14.00"> return PtrToIntCastExpr&lt;int32&gt;(IntToPtrCastExpr&lt;ptr&gt;(v4))</text>
</g>
<!-- Node0x28792f50&#45;&gt;Node0xe671240 -->
<g id="edge3" class="edge"><title>Node0x28792f50&#45;&gt;Node0xe671240</title>
<path fill="none" stroke="black" d="M314.815,-930.425C300.66,-900.894 271.34,-839.726 252.725,-800.891"/>
<polygon fill="black" stroke="black" points="255.717,-799.037 248.238,-791.532 249.405,-802.062 255.717,-799.037"/>
<text text-anchor="middle" x="333" y="-900.8" font-family="Times,serif" font-size="14.00">v4 != 0</text>
</g>
<!-- Node0x28793800 -->
<g id="node5" class="node"><title>Node0x28793800</title>
<polygon fill="none" stroke="black" points="327,-810.5 327,-878.5 651,-878.5 651,-810.5 327,-810.5"/>
<text text-anchor="start" x="335" y="-863.3" font-family="Times,serif" font-size="14.00">v6 = *(IntToPtrCastExpr&lt;ptr&gt;((g9 + 28)))</text>
<text text-anchor="start" x="335" y="-848.3" font-family="Times,serif" font-size="14.00"> g2 = v6</text>
<text text-anchor="start" x="335" y="-833.3" font-family="Times,serif" font-size="14.00"> g1 = False</text>
<text text-anchor="start" x="335" y="-818.3" font-family="Times,serif" font-size="14.00"> g180 = (v6 == 0)</text>
</g>
<!-- Node0x28792f50&#45;&gt;Node0x28793800 -->
<g id="edge4" class="edge"><title>Node0x28792f50&#45;&gt;Node0x28793800</title>
<path fill="none" stroke="black" d="M350.785,-930.427C371.433,-917.74 400.424,-899.926 426.526,-883.888"/>
<polygon fill="black" stroke="black" points="428.563,-886.744 435.251,-878.527 424.898,-880.78 428.563,-886.744"/>
<text text-anchor="middle" x="432" y="-900.8" font-family="Times,serif" font-size="14.00">v4 == 0</text>
</g>
<!-- Node0x28792db0 -->
<g id="node6" class="node"><title>Node0x28792db0</title>
<polygon fill="none" stroke="black" points="275,-23.5 275,-59.5 329,-59.5 329,-23.5 275,-23.5"/>
<text text-anchor="start" x="283" y="-37.8" font-family="Times,serif" font-size="14.00">exit:</text>
</g>
<!-- Node0xe671240&#45;&gt;Node0x28792db0 -->
<g id="edge5" class="edge"><title>Node0xe671240&#45;&gt;Node0x28792db0</title>
<path fill="none" stroke="black" d="M232.219,-738.482C229.388,-717.155 226,-685.913 226,-658.5 226,-658.5 226,-658.5 226,-123 226,-97.2691 246.784,-76.4353 266.614,-62.4135"/>
<polygon fill="black" stroke="black" points="268.614,-65.2871 274.991,-56.8268 264.73,-59.4634 268.614,-65.2871"/>
</g>
<!-- Node0x28793bc0 -->
<g id="node7" class="node"><title>Node0x28793bc0</title>
<polygon fill="none" stroke="black" points="450.5,-683.5 450.5,-719.5 549.5,-719.5 549.5,-683.5 450.5,-683.5"/>
<text text-anchor="start" x="458.5" y="-697.8" font-family="Times,serif" font-size="14.00">if (v6 != 0):</text>
</g>
<!-- Node0x28793800&#45;&gt;Node0x28793bc0 -->
<g id="edge6" class="edge"><title>Node0x28793800&#45;&gt;Node0x28793bc0</title>
<path fill="none" stroke="black" d="M491.579,-810.442C493.498,-785.848 496.084,-752.69 497.883,-729.64"/>
<polygon fill="black" stroke="black" points="501.383,-729.766 498.672,-719.524 494.405,-729.222 501.383,-729.766"/>
</g>
<!-- Node0x29315010 -->
<g id="node8" class="node"><title>Node0x29315010</title>
<polygon fill="none" stroke="black" points="254,-518.5 254,-631.5 746,-631.5 746,-518.5 254,-518.5"/>
<text text-anchor="start" x="262" y="-616.3" font-family="Times,serif" font-size="14.00">v7 = IntToPtrCastExpr&lt;ptr&gt;(v6)</text>
<text text-anchor="start" x="262" y="-601.3" font-family="Times,serif" font-size="14.00"> v8 = *(v7)</text>
<text text-anchor="start" x="262" y="-586.3" font-family="Times,serif" font-size="14.00"> g5 = v8</text>
<text text-anchor="start" x="262" y="-571.3" font-family="Times,serif" font-size="14.00"> v5 = v7</text>
<text text-anchor="start" x="262" y="-556.3" font-family="Times,serif" font-size="14.00"> g10 = PtrToIntCastExpr&lt;int32&gt;(&amp;(v5))</text>
<text text-anchor="start" x="262" y="-541.3" font-family="Times,serif" font-size="14.00"> IntToPtrCastExpr&lt;ptr&gt;(*(IntToPtrCastExpr&lt;ptr&gt;((v8 + 8))))(v6)</text>
<text text-anchor="start" x="262" y="-526.3" font-family="Times,serif" font-size="14.00"> *(IntToPtrCastExpr&lt;ptr&gt;((g9 + 28))) = 0</text>
</g>
<!-- Node0x28793bc0&#45;&gt;Node0x29315010 -->
<g id="edge7" class="edge"><title>Node0x28793bc0&#45;&gt;Node0x29315010</title>
<path fill="none" stroke="black" d="M500,-683.45C500,-672.415 500,-657.268 500,-641.826"/>
<polygon fill="black" stroke="black" points="503.5,-641.677 500,-631.677 496.5,-641.677 503.5,-641.677"/>
<text text-anchor="middle" x="527" y="-653.8" font-family="Times,serif" font-size="14.00">v6 != 0</text>
</g>
<!-- Node0x28793fc0 -->
<g id="node9" class="node"><title>Node0x28793fc0</title>
<polygon fill="none" stroke="black" points="554.5,-412.5 554.5,-480.5 869.5,-480.5 869.5,-412.5 554.5,-412.5"/>
<text text-anchor="start" x="562.5" y="-465.3" font-family="Times,serif" font-size="14.00">v9 = *(IntToPtrCastExpr&lt;ptr&gt;((g9 + 8)))</text>
<text text-anchor="start" x="562.5" y="-450.3" font-family="Times,serif" font-size="14.00"> v10 = IntToPtrCastExpr&lt;ptr&gt;(v9)</text>
<text text-anchor="start" x="562.5" y="-435.3" font-family="Times,serif" font-size="14.00"> g1 = False</text>
<text text-anchor="start" x="562.5" y="-420.3" font-family="Times,serif" font-size="14.00"> g180 = (v9 == 0)</text>
</g>
<!-- Node0x28793bc0&#45;&gt;Node0x28793fc0 -->
<g id="edge8" class="edge"><title>Node0x28793bc0&#45;&gt;Node0x28793fc0</title>
<path fill="none" stroke="black" d="M549.679,-694.314C616.59,-684.845 730.174,-664.375 755,-632 785.831,-591.794 768.702,-566.779 755,-518 752.238,-508.166 747.682,-498.345 742.545,-489.291"/>
<polygon fill="black" stroke="black" points="745.419,-487.279 737.26,-480.521 739.424,-490.893 745.419,-487.279"/>
<text text-anchor="middle" x="802" y="-571.3" font-family="Times,serif" font-size="14.00">v6 == 0</text>
</g>
<!-- Node0x29315010&#45;&gt;Node0x28793fc0 -->
<g id="edge9" class="edge"><title>Node0x29315010&#45;&gt;Node0x28793fc0</title>
<path fill="none" stroke="black" d="M593.295,-518.331C611.647,-507.381 630.514,-496.122 647.654,-485.895"/>
<polygon fill="black" stroke="black" points="649.654,-488.778 656.448,-480.648 646.067,-482.766 649.654,-488.778"/>
</g>
<!-- Node0xe670790 -->
<g id="node10" class="node"><title>Node0xe670790</title>
<polygon fill="none" stroke="black" points="662.5,-338.5 662.5,-374.5 761.5,-374.5 761.5,-338.5 662.5,-338.5"/>
<text text-anchor="start" x="670.5" y="-352.8" font-family="Times,serif" font-size="14.00">if (v9 != 0):</text>
</g>
<!-- Node0x28793fc0&#45;&gt;Node0xe670790 -->
<g id="edge10" class="edge"><title>Node0x28793fc0&#45;&gt;Node0xe670790</title>
<path fill="none" stroke="black" d="M712,-412.482C712,-403.328 712,-393.497 712,-384.715"/>
<polygon fill="black" stroke="black" points="715.5,-384.64 712,-374.64 708.5,-384.64 715.5,-384.64"/>
</g>
<!-- Node0x287944c0 -->
<g id="node11" class="node"><title>Node0x287944c0</title>
<polygon fill="none" stroke="black" points="254.5,-188.5 254.5,-286.5 755.5,-286.5 755.5,-188.5 254.5,-188.5"/>
<text text-anchor="start" x="262.5" y="-271.3" font-family="Times,serif" font-size="14.00">v11 = v10[&#39;0&#39;]</text>
<text text-anchor="start" x="262.5" y="-256.3" font-family="Times,serif" font-size="14.00"> g5 = v11</text>
<text text-anchor="start" x="262.5" y="-241.3" font-family="Times,serif" font-size="14.00"> v12 = v10</text>
<text text-anchor="start" x="262.5" y="-226.3" font-family="Times,serif" font-size="14.00"> g10 = PtrToIntCastExpr&lt;int32&gt;(&amp;(v12))</text>
<text text-anchor="start" x="262.5" y="-211.3" font-family="Times,serif" font-size="14.00"> IntToPtrCastExpr&lt;ptr&gt;(*(IntToPtrCastExpr&lt;ptr&gt;((v11 + 8))))(v9)</text>
<text text-anchor="start" x="262.5" y="-196.3" font-family="Times,serif" font-size="14.00"> *(IntToPtrCastExpr&lt;ptr&gt;((g9 + 8))) = 0</text>
</g>
<!-- Node0xe670790&#45;&gt;Node0x287944c0 -->
<g id="edge11" class="edge"><title>Node0xe670790&#45;&gt;Node0x287944c0</title>
<path fill="none" stroke="black" d="M681.9,-338.487C659.958,-326.085 628.948,-308.558 599.007,-291.634"/>
<polygon fill="black" stroke="black" points="600.609,-288.519 590.181,-286.646 597.164,-294.613 600.609,-288.519"/>
<text text-anchor="middle" x="672" y="-308.8" font-family="Times,serif" font-size="14.00">v9 != 0</text>
</g>
<!-- Node0x28794190 -->
<g id="node12" class="node"><title>Node0x28794190</title>
<polygon fill="none" stroke="black" points="356.5,-97.5 356.5,-150.5 653.5,-150.5 653.5,-97.5 356.5,-97.5"/>
<text text-anchor="start" x="364.5" y="-135.3" font-family="Times,serif" font-size="14.00">0x40fba2:</text>
<text text-anchor="start" x="364.5" y="-120.3" font-family="Times,serif" font-size="14.00"> g9 = PtrToIntCastExpr&lt;int32&gt;(v5)</text>
<text text-anchor="start" x="364.5" y="-105.3" font-family="Times,serif" font-size="14.00"> return PtrToIntCastExpr&lt;int32&gt;(v10)</text>
</g>
<!-- Node0xe670790&#45;&gt;Node0x28794190 -->
<g id="edge12" class="edge"><title>Node0xe670790&#45;&gt;Node0x28794190</title>
<path fill="none" stroke="black" d="M730.592,-338.322C742.981,-325.539 758.193,-306.92 765,-287 779.227,-245.364 792.204,-222.583 765,-188 750.892,-170.065 709.309,-156.617 663.422,-146.853"/>
<polygon fill="black" stroke="black" points="664.073,-143.414 653.573,-144.825 662.662,-150.27 664.073,-143.414"/>
<text text-anchor="middle" x="810" y="-233.8" font-family="Times,serif" font-size="14.00">v9 == 0</text>
</g>
<!-- Node0x287944c0&#45;&gt;Node0x28794190 -->
<g id="edge13" class="edge"><title>Node0x287944c0&#45;&gt;Node0x28794190</title>
<path fill="none" stroke="black" d="M505,-188.243C505,-179.038 505,-169.555 505,-160.823"/>
<polygon fill="black" stroke="black" points="508.5,-160.613 505,-150.613 501.5,-160.613 508.5,-160.613"/>
</g>
<!-- Node0x28794190&#45;&gt;Node0x28792db0 -->
<g id="edge14" class="edge"><title>Node0x28794190&#45;&gt;Node0x28792db0</title>
<path fill="none" stroke="black" d="M440.491,-97.4187C406.843,-84.0755 366.912,-68.2408 338.593,-57.0109"/>
<polygon fill="black" stroke="black" points="339.676,-53.6752 329.09,-53.2425 337.095,-60.1823 339.676,-53.6752"/>
</g>
</g>
</svg>
