<?xml version="1.0" encoding="UTF-8" standalone="no"?>
<!DOCTYPE svg PUBLIC "-//W3C//DTD SVG 1.1//EN"
 "http://www.w3.org/Graphics/SVG/1.1/DTD/svg11.dtd">
<!-- Generated by graphviz version 2.38.0 (20140413.2041)
 -->
<!-- Title: Control&#45;flow graph for function &#39;function_41d358(a1)&#39;. Pages: 1 -->
<svg width="827pt" height="1509pt"
 viewBox="0.00 0.00 827.00 1509.00" xmlns="http://www.w3.org/2000/svg" xmlns:xlink="http://www.w3.org/1999/xlink">
<g id="graph0" class="graph" transform="scale(1 1) rotate(0) translate(4 1505)">
<title>Control&#45;flow graph for function &#39;function_41d358(a1)&#39;.</title>
<polygon fill="white" stroke="none" points="-4,4 -4,-1505 823,-1505 823,4 -4,4"/>
<text text-anchor="middle" x="409.5" y="-7.8" font-family="Times,serif" font-size="14.00">Control&#45;flow graph for function &#39;function_41d358(a1)&#39;.</text>
<!-- Node0x4e596320 -->
<g id="node1" class="node"><title>Node0x4e596320</title>
<polygon fill="none" stroke="black" points="293.5,-1462.5 293.5,-1500.5 352.5,-1500.5 352.5,-1462.5 293.5,-1462.5"/>
<text text-anchor="start" x="301.5" y="-1485.3" font-family="Times,serif" font-size="14.00">entry:</text>
<text text-anchor="start" x="301.5" y="-1470.3" font-family="Times,serif" font-size="14.00"> a1</text>
</g>
<!-- Node0x144ad060 -->
<g id="node2" class="node"><title>Node0x144ad060</title>
<polygon fill="none" stroke="black" points="268,-1311.5 268,-1424.5 378,-1424.5 378,-1311.5 268,-1311.5"/>
<text text-anchor="start" x="276" y="-1409.3" font-family="Times,serif" font-size="14.00">v1</text>
<text text-anchor="start" x="276" y="-1394.3" font-family="Times,serif" font-size="14.00"> g10 = &amp;(v1)</text>
<text text-anchor="start" x="276" y="-1379.3" font-family="Times,serif" font-size="14.00"> v2 = g5</text>
<text text-anchor="start" x="276" y="-1364.3" font-family="Times,serif" font-size="14.00"> g9 = v2</text>
<text text-anchor="start" x="276" y="-1349.3" font-family="Times,serif" font-size="14.00"> v3</text>
<text text-anchor="start" x="276" y="-1334.3" font-family="Times,serif" font-size="14.00"> v4</text>
<text text-anchor="start" x="276" y="-1319.3" font-family="Times,serif" font-size="14.00"> result</text>
</g>
<!-- Node0x4e596320&#45;&gt;Node0x144ad060 -->
<g id="edge1" class="edge"><title>Node0x4e596320&#45;&gt;Node0x144ad060</title>
<path fill="none" stroke="black" d="M323,-1462.09C323,-1454.29 323,-1444.7 323,-1434.66"/>
<polygon fill="black" stroke="black" points="326.5,-1434.53 323,-1424.53 319.5,-1434.53 326.5,-1434.53"/>
</g>
<!-- Node0x144ad190 -->
<g id="node3" class="node"><title>Node0x144ad190</title>
<polygon fill="none" stroke="black" points="148,-1237.5 148,-1273.5 498,-1273.5 498,-1237.5 148,-1237.5"/>
<text text-anchor="start" x="156" y="-1251.8" font-family="Times,serif" font-size="14.00">if (*(IntToPtrCastExpr&lt;ptr&gt;((v2 + 12))) != 0):</text>
</g>
<!-- Node0x144ad060&#45;&gt;Node0x144ad190 -->
<g id="edge2" class="edge"><title>Node0x144ad060&#45;&gt;Node0x144ad190</title>
<path fill="none" stroke="black" d="M323,-1311.43C323,-1301.86 323,-1292.31 323,-1283.91"/>
<polygon fill="black" stroke="black" points="326.5,-1283.64 323,-1273.64 319.5,-1283.64 326.5,-1283.64"/>
</g>
<!-- Node0x144a73f0 -->
<g id="node4" class="node"><title>Node0x144a73f0</title>
<polygon fill="none" stroke="black" points="0,-805.5 0,-933.5 310,-933.5 310,-805.5 0,-805.5"/>
<text text-anchor="start" x="8" y="-918.3" font-family="Times,serif" font-size="14.00">0x41d38e:</text>
<text text-anchor="start" x="8" y="-903.3" font-family="Times,serif" font-size="14.00"> v3 = IntToPtrCastExpr&lt;ptr&gt;((v2 + 12))</text>
<text text-anchor="start" x="8" y="-888.3" font-family="Times,serif" font-size="14.00"> result = *(v3)</text>
<text text-anchor="start" x="8" y="-873.3" font-family="Times,serif" font-size="14.00"> v4 = *(IntToPtrCastExpr&lt;ptr&gt;(result))</text>
<text text-anchor="start" x="8" y="-858.3" font-family="Times,serif" font-size="14.00"> g5 = v4</text>
<text text-anchor="start" x="8" y="-843.3" font-family="Times,serif" font-size="14.00"> *(v3) = v4</text>
<text text-anchor="start" x="8" y="-828.3" font-family="Times,serif" font-size="14.00"> g9 = v1</text>
<text text-anchor="start" x="8" y="-813.3" font-family="Times,serif" font-size="14.00"> return result</text>
</g>
<!-- Node0x144ad190&#45;&gt;Node0x144a73f0 -->
<g id="edge3" class="edge"><title>Node0x144ad190&#45;&gt;Node0x144a73f0</title>
<path fill="none" stroke="black" d="M192.98,-1237.49C175.363,-1232.7 161.196,-1226.64 155,-1219 92.5145,-1141.93 110.082,-1020.6 130.783,-943.333"/>
<polygon fill="black" stroke="black" points="134.164,-944.239 133.45,-933.668 127.416,-942.376 134.164,-944.239"/>
<text text-anchor="middle" x="307.5" y="-1207.8" font-family="Times,serif" font-size="14.00">*(IntToPtrCastExpr&lt;ptr&gt;((v2 + 12))) != 0</text>
</g>
<!-- Node0x144a6c70 -->
<g id="node5" class="node"><title>Node0x144a6c70</title>
<polygon fill="none" stroke="black" points="183,-952.5 183,-1185.5 819,-1185.5 819,-952.5 183,-952.5"/>
<text text-anchor="start" x="191" y="-1170.3" font-family="Times,serif" font-size="14.00">v5 = *(IntToPtrCastExpr&lt;ptr&gt;(v2))</text>
<text text-anchor="start" x="191" y="-1155.3" font-family="Times,serif" font-size="14.00"> v6 = (v2 + 8)</text>
<text text-anchor="start" x="191" y="-1140.3" font-family="Times,serif" font-size="14.00"> g2 = v6</text>
<text text-anchor="start" x="191" y="-1125.3" font-family="Times,serif" font-size="14.00"> v7 = *(IntToPtrCastExpr&lt;ptr&gt;((v2 + 4)))</text>
<text text-anchor="start" x="191" y="-1110.3" font-family="Times,serif" font-size="14.00"> v8 = IntToPtrCastExpr&lt;ptr&gt;(v6)</text>
<text text-anchor="start" x="191" y="-1095.3" font-family="Times,serif" font-size="14.00"> v9 = v8</text>
<text text-anchor="start" x="191" y="-1080.3" font-family="Times,serif" font-size="14.00"> g10 = PtrToIntCastExpr&lt;int32&gt;(&amp;(v9))</text>
<text text-anchor="start" x="191" y="-1065.3" font-family="Times,serif" font-size="14.00"> v10 = function_4126a9(v8, IntToPtrCastExpr&lt;ptr&gt;(v7), IntToPtrCastExpr&lt;ptr&gt;(v5))</text>
<text text-anchor="start" x="191" y="-1050.3" font-family="Times,serif" font-size="14.00"> v11 = g9</text>
<text text-anchor="start" x="191" y="-1035.3" font-family="Times,serif" font-size="14.00"> v12 = (*(IntToPtrCastExpr&lt;ptr&gt;((v11 + 4))) &#45; 1)</text>
<text text-anchor="start" x="191" y="-1020.3" font-family="Times,serif" font-size="14.00"> v13 = (v12 * *(IntToPtrCastExpr&lt;ptr&gt;(v11)))</text>
<text text-anchor="start" x="191" y="-1005.3" font-family="Times,serif" font-size="14.00"> g8 = v13</text>
<text text-anchor="start" x="191" y="-990.3" font-family="Times,serif" font-size="14.00"> v14 = ((v10 + 4) + v13)</text>
<text text-anchor="start" x="191" y="-975.3" font-family="Times,serif" font-size="14.00"> g2 = v14</text>
<text text-anchor="start" x="191" y="-960.3" font-family="Times,serif" font-size="14.00"> v15</text>
</g>
<!-- Node0x144ad190&#45;&gt;Node0x144a6c70 -->
<g id="edge4" class="edge"><title>Node0x144ad190&#45;&gt;Node0x144a6c70</title>
<path fill="none" stroke="black" d="M437.829,-1237.47C447.481,-1232.65 456.426,-1226.6 464,-1219 471.056,-1211.92 476.839,-1203.72 481.57,-1194.87"/>
<polygon fill="black" stroke="black" points="484.74,-1196.36 485.959,-1185.83 478.443,-1193.3 484.74,-1196.36"/>
<text text-anchor="middle" x="630.5" y="-1207.8" font-family="Times,serif" font-size="14.00">*(IntToPtrCastExpr&lt;ptr&gt;((v2 + 12))) == 0</text>
</g>
<!-- Node0x4e59c770 -->
<g id="node6" class="node"><title>Node0x4e59c770</title>
<polygon fill="none" stroke="black" points="244,-23.5 244,-59.5 298,-59.5 298,-23.5 244,-23.5"/>
<text text-anchor="start" x="252" y="-37.8" font-family="Times,serif" font-size="14.00">exit:</text>
</g>
<!-- Node0x144a73f0&#45;&gt;Node0x4e59c770 -->
<g id="edge5" class="edge"><title>Node0x144a73f0&#45;&gt;Node0x4e59c770</title>
<path fill="none" stroke="black" d="M155,-805.335C155,-779.908 155,-750.31 155,-723.5 155,-723.5 155,-723.5 155,-160.5 155,-114.219 200.94,-79.4568 234.998,-60.044"/>
<polygon fill="black" stroke="black" points="236.722,-63.0907 243.803,-55.2101 233.353,-56.9546 236.722,-63.0907"/>
</g>
<!-- Node0x4e59aab0 -->
<g id="node7" class="node"><title>Node0x4e59aab0</title>
<polygon fill="none" stroke="black" points="444,-748.5 444,-786.5 558,-786.5 558,-748.5 444,-748.5"/>
<text text-anchor="start" x="452" y="-771.3" font-family="Times,serif" font-size="14.00">if (v12 &gt;= 0):</text>
<text text-anchor="start" x="452" y="-756.3" font-family="Times,serif" font-size="14.00"> else:</text>
</g>
<!-- Node0x144a6c70&#45;&gt;Node0x4e59aab0 -->
<g id="edge6" class="edge"><title>Node0x144a6c70&#45;&gt;Node0x4e59aab0</title>
<path fill="none" stroke="black" d="M501,-952.205C501,-895.668 501,-832.314 501,-796.732"/>
<polygon fill="black" stroke="black" points="504.5,-796.619 501,-786.619 497.5,-796.619 504.5,-796.619"/>
</g>
<!-- Node0x144a7500 -->
<g id="node8" class="node"><title>Node0x144a7500</title>
<polygon fill="none" stroke="black" points="273.5,-568.5 273.5,-696.5 614.5,-696.5 614.5,-568.5 273.5,-568.5"/>
<text text-anchor="start" x="281.5" y="-681.3" font-family="Times,serif" font-size="14.00">v16 = *(IntToPtrCastExpr&lt;ptr&gt;((v11 + 12)))</text>
<text text-anchor="start" x="281.5" y="-666.3" font-family="Times,serif" font-size="14.00"> g8 = v16</text>
<text text-anchor="start" x="281.5" y="-651.3" font-family="Times,serif" font-size="14.00"> *(IntToPtrCastExpr&lt;ptr&gt;(v14)) = v16</text>
<text text-anchor="start" x="281.5" y="-636.3" font-family="Times,serif" font-size="14.00"> *(IntToPtrCastExpr&lt;ptr&gt;((g9 + 12))) = g2</text>
<text text-anchor="start" x="281.5" y="-621.3" font-family="Times,serif" font-size="14.00"> v17 = (v12 &#45; 1)</text>
<text text-anchor="start" x="281.5" y="-606.3" font-family="Times,serif" font-size="14.00"> v18 = g9</text>
<text text-anchor="start" x="281.5" y="-591.3" font-family="Times,serif" font-size="14.00"> v19 = (g2 &#45; *(IntToPtrCastExpr&lt;ptr&gt;(v18)))</text>
<text text-anchor="start" x="281.5" y="-576.3" font-family="Times,serif" font-size="14.00"> g2 = v19</text>
</g>
<!-- Node0x4e59aab0&#45;&gt;Node0x144a7500 -->
<g id="edge7" class="edge"><title>Node0x4e59aab0&#45;&gt;Node0x144a7500</title>
<path fill="none" stroke="black" d="M493.194,-748.286C488.351,-736.986 481.779,-721.651 475.016,-705.872"/>
<polygon fill="black" stroke="black" points="478.181,-704.37 471.024,-696.557 471.747,-707.127 478.181,-704.37"/>
<text text-anchor="middle" x="519.5" y="-718.8" font-family="Times,serif" font-size="14.00">v12 &gt;= 0</text>
</g>
<!-- Node0x144a7b50 -->
<g id="node9" class="node"><title>Node0x144a7b50</title>
<polygon fill="none" stroke="black" points="618,-513.5 618,-549.5 708,-549.5 708,-513.5 618,-513.5"/>
<text text-anchor="start" x="626" y="-527.8" font-family="Times,serif" font-size="14.00">v15 = v11</text>
</g>
<!-- Node0x4e59aab0&#45;&gt;Node0x144a7b50 -->
<g id="edge8" class="edge"><title>Node0x4e59aab0&#45;&gt;Node0x144a7b50</title>
<path fill="none" stroke="black" d="M553.284,-748.416C578.182,-737.268 606.314,-720.526 624,-697 654.688,-656.179 661.677,-594.854 663.005,-559.756"/>
<polygon fill="black" stroke="black" points="666.504,-559.842 663.256,-549.757 659.506,-559.666 666.504,-559.842"/>
<text text-anchor="middle" x="633.5" y="-718.8" font-family="Times,serif" font-size="14.00">v12 &lt; 0</text>
</g>
<!-- Node0x144a71e0 -->
<g id="node10" class="node"><title>Node0x144a71e0</title>
<polygon fill="none" stroke="black" points="370.5,-458.5 370.5,-494.5 513.5,-494.5 513.5,-458.5 370.5,-458.5"/>
<text text-anchor="start" x="378.5" y="-472.8" font-family="Times,serif" font-size="14.00">while (v17 &gt;= 0):</text>
</g>
<!-- Node0x144a7500&#45;&gt;Node0x144a71e0 -->
<g id="edge9" class="edge"><title>Node0x144a7500&#45;&gt;Node0x144a71e0</title>
<path fill="none" stroke="black" d="M443.181,-568.418C442.893,-546.268 442.585,-522.529 442.355,-504.864"/>
<polygon fill="black" stroke="black" points="445.853,-504.672 442.224,-494.719 438.854,-504.763 445.853,-504.672"/>
</g>
<!-- Node0x144a6e50 -->
<g id="node11" class="node"><title>Node0x144a6e50</title>
<polygon fill="none" stroke="black" points="435.5,-97.5 435.5,-225.5 754.5,-225.5 754.5,-97.5 435.5,-97.5"/>
<text text-anchor="start" x="443.5" y="-210.3" font-family="Times,serif" font-size="14.00">0x41d38e:</text>
<text text-anchor="start" x="443.5" y="-195.3" font-family="Times,serif" font-size="14.00"> v3 = IntToPtrCastExpr&lt;ptr&gt;((v15 + 12))</text>
<text text-anchor="start" x="443.5" y="-180.3" font-family="Times,serif" font-size="14.00"> result = *(v3)</text>
<text text-anchor="start" x="443.5" y="-165.3" font-family="Times,serif" font-size="14.00"> v4 = *(IntToPtrCastExpr&lt;ptr&gt;(result))</text>
<text text-anchor="start" x="443.5" y="-150.3" font-family="Times,serif" font-size="14.00"> g5 = v4</text>
<text text-anchor="start" x="443.5" y="-135.3" font-family="Times,serif" font-size="14.00"> *(v3) = v4</text>
<text text-anchor="start" x="443.5" y="-120.3" font-family="Times,serif" font-size="14.00"> g9 = v1</text>
<text text-anchor="start" x="443.5" y="-105.3" font-family="Times,serif" font-size="14.00"> return result</text>
</g>
<!-- Node0x144a7b50&#45;&gt;Node0x144a6e50 -->
<g id="edge10" class="edge"><title>Node0x144a7b50&#45;&gt;Node0x144a6e50</title>
<path fill="none" stroke="black" d="M665.016,-513.474C669.534,-470.469 678.132,-354.389 652,-263 649.291,-253.526 645.523,-243.987 641.201,-234.757"/>
<polygon fill="black" stroke="black" points="644.272,-233.07 636.715,-225.644 637.992,-236.162 644.272,-233.07"/>
</g>
<!-- Node0x144a7bf0 -->
<g id="node12" class="node"><title>Node0x144a7bf0</title>
<polygon fill="none" stroke="black" points="183,-263.5 183,-406.5 529,-406.5 529,-263.5 183,-263.5"/>
<text text-anchor="start" x="191" y="-391.3" font-family="Times,serif" font-size="14.00">0x41d37f:</text>
<text text-anchor="start" x="191" y="-376.3" font-family="Times,serif" font-size="14.00"> v16 = *(IntToPtrCastExpr&lt;ptr&gt;((v18 + 12)))</text>
<text text-anchor="start" x="191" y="-361.3" font-family="Times,serif" font-size="14.00"> g8 = v16</text>
<text text-anchor="start" x="191" y="-346.3" font-family="Times,serif" font-size="14.00"> *(IntToPtrCastExpr&lt;ptr&gt;(v19)) = v16</text>
<text text-anchor="start" x="191" y="-331.3" font-family="Times,serif" font-size="14.00"> *(IntToPtrCastExpr&lt;ptr&gt;((g9 + 12))) = g2</text>
<text text-anchor="start" x="191" y="-316.3" font-family="Times,serif" font-size="14.00"> v17 = (v17 &#45; 1)</text>
<text text-anchor="start" x="191" y="-301.3" font-family="Times,serif" font-size="14.00"> v18 = g9</text>
<text text-anchor="start" x="191" y="-286.3" font-family="Times,serif" font-size="14.00"> v19 = (g2 &#45; *(IntToPtrCastExpr&lt;ptr&gt;(v18)))</text>
<text text-anchor="start" x="191" y="-271.3" font-family="Times,serif" font-size="14.00"> g2 = v19</text>
</g>
<!-- Node0x144a71e0&#45;&gt;Node0x144a7bf0 -->
<g id="edge11" class="edge"><title>Node0x144a71e0&#45;&gt;Node0x144a7bf0</title>
<path fill="none" stroke="black" d="M378.22,-458.288C370.275,-453.585 363.148,-447.604 358,-440 353.198,-432.906 350.106,-424.87 348.257,-416.485"/>
<polygon fill="black" stroke="black" points="351.695,-415.821 346.628,-406.516 344.787,-416.95 351.695,-415.821"/>
<text text-anchor="middle" x="392.5" y="-428.8" font-family="Times,serif" font-size="14.00">v17 &gt;= 0</text>
</g>
<!-- Node0x144a7af0 -->
<g id="node13" class="node"><title>Node0x144a7af0</title>
<polygon fill="none" stroke="black" points="547.5,-316 547.5,-354 642.5,-354 642.5,-316 547.5,-316"/>
<text text-anchor="start" x="555.5" y="-338.8" font-family="Times,serif" font-size="14.00">0x41d38a:</text>
<text text-anchor="start" x="555.5" y="-323.8" font-family="Times,serif" font-size="14.00"> v15 = v18</text>
</g>
<!-- Node0x144a71e0&#45;&gt;Node0x144a7af0 -->
<g id="edge12" class="edge"><title>Node0x144a71e0&#45;&gt;Node0x144a7af0</title>
<path fill="none" stroke="black" d="M470.009,-458.453C490.025,-445.593 517.016,-426.827 538,-407 552.272,-393.515 566.115,-376.4 576.584,-362.352"/>
<polygon fill="black" stroke="black" points="579.567,-364.202 582.64,-354.062 573.915,-360.072 579.567,-364.202"/>
<text text-anchor="middle" x="543.5" y="-428.8" font-family="Times,serif" font-size="14.00">v17 &lt; 0</text>
</g>
<!-- Node0x144a6e50&#45;&gt;Node0x4e59c770 -->
<g id="edge13" class="edge"><title>Node0x144a6e50&#45;&gt;Node0x4e59c770</title>
<path fill="none" stroke="black" d="M435.373,-102.364C387.665,-84.989 339.682,-67.5138 307.98,-55.968"/>
<polygon fill="black" stroke="black" points="308.874,-52.5688 298.28,-52.4353 306.479,-59.1462 308.874,-52.5688"/>
</g>
<!-- Node0x144a7bf0&#45;&gt;Node0x144a71e0 -->
<g id="edge14" class="edge"><title>Node0x144a7bf0&#45;&gt;Node0x144a71e0</title>
<path fill="none" stroke="black" d="M416.225,-406.752C420.146,-412.748 423.799,-418.867 427,-425 430.766,-432.216 433.727,-440.518 435.987,-448.28"/>
<polygon fill="black" stroke="black" points="432.625,-449.259 438.563,-458.034 439.393,-447.471 432.625,-449.259"/>
</g>
<!-- Node0x144a7af0&#45;&gt;Node0x144a6e50 -->
<g id="edge15" class="edge"><title>Node0x144a7af0&#45;&gt;Node0x144a6e50</title>
<path fill="none" stroke="black" d="M595,-315.971C595,-296.892 595,-265.534 595,-236.12"/>
<polygon fill="black" stroke="black" points="598.5,-235.82 595,-225.82 591.5,-235.82 598.5,-235.82"/>
</g>
</g>
</svg>
