<?xml version="1.0" encoding="UTF-8" standalone="no"?>
<!DOCTYPE svg PUBLIC "-//W3C//DTD SVG 1.1//EN"
 "http://www.w3.org/Graphics/SVG/1.1/DTD/svg11.dtd">
<!-- Generated by graphviz version 2.38.0 (20140413.2041)
 -->
<!-- Title: Control&#45;flow graph for function &#39;function_40ef75(*a1, a2, a3)&#39;. Pages: 1 -->
<svg width="991pt" height="1015pt"
 viewBox="0.00 0.00 991.00 1015.00" xmlns="http://www.w3.org/2000/svg" xmlns:xlink="http://www.w3.org/1999/xlink">
<g id="graph0" class="graph" transform="scale(1 1) rotate(0) translate(4 1011)">
<title>Control&#45;flow graph for function &#39;function_40ef75(*a1, a2, a3)&#39;.</title>
<polygon fill="white" stroke="none" points="-4,4 -4,-1011 987,-1011 987,4 -4,4"/>
<text text-anchor="middle" x="491.5" y="-7.8" font-family="Times,serif" font-size="14.00">Control&#45;flow graph for function &#39;function_40ef75(*a1, a2, a3)&#39;.</text>
<!-- Node0x9dc3f880 -->
<g id="node1" class="node"><title>Node0x9dc3f880</title>
<polygon fill="none" stroke="black" points="462.5,-938.5 462.5,-1006.5 521.5,-1006.5 521.5,-938.5 462.5,-938.5"/>
<text text-anchor="start" x="470.5" y="-991.3" font-family="Times,serif" font-size="14.00">entry:</text>
<text text-anchor="start" x="470.5" y="-976.3" font-family="Times,serif" font-size="14.00"> a1</text>
<text text-anchor="start" x="470.5" y="-961.3" font-family="Times,serif" font-size="14.00"> a2</text>
<text text-anchor="start" x="470.5" y="-946.3" font-family="Times,serif" font-size="14.00"> a3</text>
</g>
<!-- Node0x9dc40fe0 -->
<g id="node2" class="node"><title>Node0x9dc40fe0</title>
<polygon fill="none" stroke="black" points="332.5,-757.5 332.5,-900.5 651.5,-900.5 651.5,-757.5 332.5,-757.5"/>
<text text-anchor="start" x="340.5" y="-885.3" font-family="Times,serif" font-size="14.00">v1 = g5</text>
<text text-anchor="start" x="340.5" y="-870.3" font-family="Times,serif" font-size="14.00"> g9 = v1</text>
<text text-anchor="start" x="340.5" y="-855.3" font-family="Times,serif" font-size="14.00"> v2 = *(IntToPtrCastExpr&lt;ptr&gt;((v1 + 4)))</text>
<text text-anchor="start" x="340.5" y="-840.3" font-family="Times,serif" font-size="14.00"> g5 = v2</text>
<text text-anchor="start" x="340.5" y="-825.3" font-family="Times,serif" font-size="14.00"> g7 = 286398</text>
<text text-anchor="start" x="340.5" y="-810.3" font-family="Times,serif" font-size="14.00"> v3 = v1</text>
<text text-anchor="start" x="340.5" y="-795.3" font-family="Times,serif" font-size="14.00"> result = &#45;1</text>
<text text-anchor="start" x="340.5" y="-780.3" font-family="Times,serif" font-size="14.00"> v4</text>
<text text-anchor="start" x="340.5" y="-765.3" font-family="Times,serif" font-size="14.00"> v5</text>
</g>
<!-- Node0x9dc3f880&#45;&gt;Node0x9dc40fe0 -->
<g id="edge1" class="edge"><title>Node0x9dc3f880&#45;&gt;Node0x9dc40fe0</title>
<path fill="none" stroke="black" d="M492,-938.325C492,-929.897 492,-920.469 492,-910.784"/>
<polygon fill="black" stroke="black" points="495.5,-910.629 492,-900.629 488.5,-910.629 495.5,-910.629"/>
</g>
<!-- Node0x9dc40f00 -->
<g id="node3" class="node"><title>Node0x9dc40f00</title>
<polygon fill="none" stroke="black" points="317,-683.5 317,-719.5 667,-719.5 667,-683.5 317,-683.5"/>
<text text-anchor="start" x="325" y="-697.8" font-family="Times,serif" font-size="14.00">if (v2 != *(IntToPtrCastExpr&lt;ptr&gt;((v1 + 8)))):</text>
</g>
<!-- Node0x9dc40fe0&#45;&gt;Node0x9dc40f00 -->
<g id="edge2" class="edge"><title>Node0x9dc40fe0&#45;&gt;Node0x9dc40f00</title>
<path fill="none" stroke="black" d="M492,-757.181C492,-747.439 492,-737.961 492,-729.707"/>
<polygon fill="black" stroke="black" points="495.5,-729.642 492,-719.642 488.5,-729.642 495.5,-729.642"/>
</g>
<!-- Node0x1df3ee30 -->
<g id="node4" class="node"><title>Node0x1df3ee30</title>
<polygon fill="none" stroke="black" points="0,-518.5 0,-631.5 616,-631.5 616,-518.5 0,-518.5"/>
<text text-anchor="start" x="8" y="-616.3" font-family="Times,serif" font-size="14.00">color = IntToPtrCastExpr&lt;ptr&gt;(ExtCastExpr&lt;int32&gt;(*(a1)))</text>
<text text-anchor="start" x="8" y="-601.3" font-family="Times,serif" font-size="14.00"> v4 = color</text>
<text text-anchor="start" x="8" y="-586.3" font-family="Times,serif" font-size="14.00"> hdc = IntToPtrCastExpr&lt;ptr&gt;(v2)</text>
<text text-anchor="start" x="8" y="-571.3" font-family="Times,serif" font-size="14.00"> v5 = hdc</text>
<text text-anchor="start" x="8" y="-556.3" font-family="Times,serif" font-size="14.00"> v6 = PtrToIntCastExpr&lt;int32&gt;(SetTextColor(hdc, ExtCastExpr&lt;int32&gt;(*(color))))</text>
<text text-anchor="start" x="8" y="-541.3" font-family="Times,serif" font-size="14.00"> v3 = g9</text>
<text text-anchor="start" x="8" y="-526.3" font-family="Times,serif" font-size="14.00"> result = v6</text>
</g>
<!-- Node0x9dc40f00&#45;&gt;Node0x1df3ee30 -->
<g id="edge3" class="edge"><title>Node0x9dc40f00&#45;&gt;Node0x1df3ee30</title>
<path fill="none" stroke="black" d="M379.459,-683.471C359.104,-678.491 341.841,-672.36 334,-665 327.031,-658.459 321.897,-650.164 318.12,-641.281"/>
<polygon fill="black" stroke="black" points="321.392,-640.038 314.656,-631.86 314.822,-642.454 321.392,-640.038"/>
<text text-anchor="middle" x="486" y="-653.8" font-family="Times,serif" font-size="14.00">v2 != *(IntToPtrCastExpr&lt;ptr&gt;((v1 + 8)))</text>
</g>
<!-- Node0x9dc415c0 -->
<g id="node5" class="node"><title>Node0x9dc415c0</title>
<polygon fill="none" stroke="black" points="403,-412.5 403,-480.5 717,-480.5 717,-412.5 403,-412.5"/>
<text text-anchor="start" x="411" y="-465.3" font-family="Times,serif" font-size="14.00">v7 = *(IntToPtrCastExpr&lt;ptr&gt;((v3 + 8)))</text>
<text text-anchor="start" x="411" y="-450.3" font-family="Times,serif" font-size="14.00"> g9 = v7</text>
<text text-anchor="start" x="411" y="-435.3" font-family="Times,serif" font-size="14.00"> g1 = False</text>
<text text-anchor="start" x="411" y="-420.3" font-family="Times,serif" font-size="14.00"> g180 = (v7 == 0)</text>
</g>
<!-- Node0x9dc40f00&#45;&gt;Node0x9dc415c0 -->
<g id="edge4" class="edge"><title>Node0x9dc40f00&#45;&gt;Node0x9dc415c0</title>
<path fill="none" stroke="black" d="M600.135,-683.489C617.716,-678.589 632.116,-672.486 638,-665 655.939,-642.176 765.641,-831.671 625,-518 620.259,-507.426 613.29,-497.39 605.656,-488.381"/>
<polygon fill="black" stroke="black" points="608.093,-485.856 598.815,-480.74 602.878,-490.525 608.093,-485.856"/>
<text text-anchor="middle" x="828" y="-571.3" font-family="Times,serif" font-size="14.00">v2 == *(IntToPtrCastExpr&lt;ptr&gt;((v1 + 8)))</text>
</g>
<!-- Node0x1df3ee30&#45;&gt;Node0x9dc415c0 -->
<g id="edge5" class="edge"><title>Node0x1df3ee30&#45;&gt;Node0x9dc415c0</title>
<path fill="none" stroke="black" d="M418.898,-518.331C441.213,-507.129 464.169,-495.606 484.912,-485.193"/>
<polygon fill="black" stroke="black" points="486.599,-488.262 493.966,-480.648 483.459,-482.006 486.599,-488.262"/>
</g>
<!-- Node0x9dc416b0 -->
<g id="node6" class="node"><title>Node0x9dc416b0</title>
<polygon fill="none" stroke="black" points="510.5,-338.5 510.5,-374.5 609.5,-374.5 609.5,-338.5 510.5,-338.5"/>
<text text-anchor="start" x="518.5" y="-352.8" font-family="Times,serif" font-size="14.00">if (v7 != 0):</text>
</g>
<!-- Node0x9dc415c0&#45;&gt;Node0x9dc416b0 -->
<g id="edge6" class="edge"><title>Node0x9dc415c0&#45;&gt;Node0x9dc416b0</title>
<path fill="none" stroke="black" d="M560,-412.482C560,-403.328 560,-393.497 560,-384.715"/>
<polygon fill="black" stroke="black" points="563.5,-384.64 560,-374.64 556.5,-384.64 563.5,-384.64"/>
</g>
<!-- Node0x9dc41140 -->
<g id="node7" class="node"><title>Node0x9dc41140</title>
<polygon fill="none" stroke="black" points="131.5,-203.5 131.5,-286.5 590.5,-286.5 590.5,-203.5 131.5,-203.5"/>
<text text-anchor="start" x="139.5" y="-271.3" font-family="Times,serif" font-size="14.00">v8 = IntToPtrCastExpr&lt;ptr&gt;(ExtCastExpr&lt;int32&gt;(*(a1)))</text>
<text text-anchor="start" x="139.5" y="-256.3" font-family="Times,serif" font-size="14.00"> v4 = v8</text>
<text text-anchor="start" x="139.5" y="-241.3" font-family="Times,serif" font-size="14.00"> v5 = IntToPtrCastExpr&lt;ptr&gt;(v7)</text>
<text text-anchor="start" x="139.5" y="-226.3" font-family="Times,serif" font-size="14.00"> g10 = PtrToIntCastExpr&lt;int32&gt;(&amp;(v5))</text>
<text text-anchor="start" x="139.5" y="-211.3" font-family="Times,serif" font-size="14.00"> IntToPtrCastExpr&lt;ptr&gt;(g7)(v7, ExtCastExpr&lt;int32&gt;(*(v8)))</text>
</g>
<!-- Node0x9dc416b0&#45;&gt;Node0x9dc41140 -->
<g id="edge7" class="edge"><title>Node0x9dc416b0&#45;&gt;Node0x9dc41140</title>
<path fill="none" stroke="black" d="M528.906,-338.391C506.023,-325.799 473.784,-308.059 443.664,-291.486"/>
<polygon fill="black" stroke="black" points="445.266,-288.373 434.817,-286.618 441.891,-294.506 445.266,-288.373"/>
<text text-anchor="middle" x="517" y="-308.8" font-family="Times,serif" font-size="14.00">v7 != 0</text>
</g>
<!-- Node0x9dc417d0 -->
<g id="node8" class="node"><title>Node0x9dc417d0</title>
<polygon fill="none" stroke="black" points="415.5,-97.5 415.5,-165.5 692.5,-165.5 692.5,-97.5 415.5,-97.5"/>
<text text-anchor="start" x="423.5" y="-150.3" font-family="Times,serif" font-size="14.00">0x40ef9f:</text>
<text text-anchor="start" x="423.5" y="-135.3" font-family="Times,serif" font-size="14.00"> g7 = PtrToIntCastExpr&lt;int32&gt;(v5)</text>
<text text-anchor="start" x="423.5" y="-120.3" font-family="Times,serif" font-size="14.00"> g9 = ExtCastExpr&lt;int32&gt;(*(v4))</text>
<text text-anchor="start" x="423.5" y="-105.3" font-family="Times,serif" font-size="14.00"> return result</text>
</g>
<!-- Node0x9dc416b0&#45;&gt;Node0x9dc417d0 -->
<g id="edge8" class="edge"><title>Node0x9dc416b0&#45;&gt;Node0x9dc417d0</title>
<path fill="none" stroke="black" d="M573.161,-338.301C582.41,-325.075 593.992,-305.918 599,-287 608.554,-250.91 609.463,-238.837 599,-203 596.131,-193.173 591.43,-183.412 586.122,-174.426"/>
<polygon fill="black" stroke="black" points="588.94,-172.332 580.659,-165.724 583.012,-176.054 588.94,-172.332"/>
<text text-anchor="middle" x="637" y="-241.3" font-family="Times,serif" font-size="14.00">v7 == 0</text>
</g>
<!-- Node0x9dc41140&#45;&gt;Node0x9dc417d0 -->
<g id="edge9" class="edge"><title>Node0x9dc41140&#45;&gt;Node0x9dc417d0</title>
<path fill="none" stroke="black" d="M431.223,-203.431C449.748,-192.728 469.671,-181.218 487.966,-170.649"/>
<polygon fill="black" stroke="black" points="489.896,-173.577 496.804,-165.543 486.394,-167.515 489.896,-173.577"/>
</g>
<!-- Node0x9dc40f60 -->
<g id="node9" class="node"><title>Node0x9dc40f60</title>
<polygon fill="none" stroke="black" points="527,-23.5 527,-59.5 581,-59.5 581,-23.5 527,-23.5"/>
<text text-anchor="start" x="535" y="-37.8" font-family="Times,serif" font-size="14.00">exit:</text>
</g>
<!-- Node0x9dc417d0&#45;&gt;Node0x9dc40f60 -->
<g id="edge10" class="edge"><title>Node0x9dc417d0&#45;&gt;Node0x9dc40f60</title>
<path fill="none" stroke="black" d="M554,-97.4817C554,-88.3281 554,-78.4972 554,-69.7155"/>
<polygon fill="black" stroke="black" points="557.5,-69.6402 554,-59.6402 550.5,-69.6403 557.5,-69.6402"/>
</g>
</g>
</svg>
