<?xml version="1.0" encoding="UTF-8" standalone="no"?>
<!DOCTYPE svg PUBLIC "-//W3C//DTD SVG 1.1//EN"
 "http://www.w3.org/Graphics/SVG/1.1/DTD/svg11.dtd">
<!-- Generated by graphviz version 2.38.0 (20140413.2041)
 -->
<!-- Title: Control&#45;flow graph for function &#39;function_41b2fa(a1)&#39;. Pages: 1 -->
<svg width="408pt" height="218pt"
 viewBox="0.00 0.00 408.00 218.00" xmlns="http://www.w3.org/2000/svg" xmlns:xlink="http://www.w3.org/1999/xlink">
<g id="graph0" class="graph" transform="scale(1 1) rotate(0) translate(4 214)">
<title>Control&#45;flow graph for function &#39;function_41b2fa(a1)&#39;.</title>
<polygon fill="white" stroke="none" points="-4,4 -4,-214 404,-214 404,4 -4,4"/>
<text text-anchor="middle" x="200" y="-7.8" font-family="Times,serif" font-size="14.00">Control&#45;flow graph for function &#39;function_41b2fa(a1)&#39;.</text>
<!-- Node0x14cf13b0 -->
<g id="node1" class="node"><title>Node0x14cf13b0</title>
<polygon fill="none" stroke="black" points="170.5,-171.5 170.5,-209.5 229.5,-209.5 229.5,-171.5 170.5,-171.5"/>
<text text-anchor="start" x="178.5" y="-194.3" font-family="Times,serif" font-size="14.00">entry:</text>
<text text-anchor="start" x="178.5" y="-179.3" font-family="Times,serif" font-size="14.00"> a1</text>
</g>
<!-- Node0x5b999350 -->
<g id="node2" class="node"><title>Node0x5b999350</title>
<polygon fill="none" stroke="black" points="29.5,-96.5 29.5,-134.5 370.5,-134.5 370.5,-96.5 29.5,-96.5"/>
<text text-anchor="start" x="37.5" y="-119.3" font-family="Times,serif" font-size="14.00">0x41b2fa:</text>
<text text-anchor="start" x="37.5" y="-104.3" font-family="Times,serif" font-size="14.00"> return *(IntToPtrCastExpr&lt;ptr&gt;((g5 + 28)))</text>
</g>
<!-- Node0x14cf13b0&#45;&gt;Node0x5b999350 -->
<g id="edge1" class="edge"><title>Node0x14cf13b0&#45;&gt;Node0x5b999350</title>
<path fill="none" stroke="black" d="M200,-171.455C200,-163.383 200,-153.676 200,-144.682"/>
<polygon fill="black" stroke="black" points="203.5,-144.59 200,-134.59 196.5,-144.59 203.5,-144.59"/>
</g>
<!-- Node0x1fe459a0 -->
<g id="node3" class="node"><title>Node0x1fe459a0</title>
<polygon fill="none" stroke="black" points="173,-23.5 173,-59.5 227,-59.5 227,-23.5 173,-23.5"/>
<text text-anchor="start" x="181" y="-37.8" font-family="Times,serif" font-size="14.00">exit:</text>
</g>
<!-- Node0x5b999350&#45;&gt;Node0x1fe459a0 -->
<g id="edge2" class="edge"><title>Node0x5b999350&#45;&gt;Node0x1fe459a0</title>
<path fill="none" stroke="black" d="M200,-96.3314C200,-88.394 200,-78.9095 200,-70.1285"/>
<polygon fill="black" stroke="black" points="203.5,-69.9177 200,-59.9177 196.5,-69.9177 203.5,-69.9177"/>
</g>
</g>
</svg>
