<?xml version="1.0" encoding="UTF-8" standalone="no"?>
<!DOCTYPE svg PUBLIC "-//W3C//DTD SVG 1.1//EN"
 "http://www.w3.org/Graphics/SVG/1.1/DTD/svg11.dtd">
<!-- Generated by graphviz version 2.38.0 (20140413.2041)
 -->
<!-- Title: Control&#45;flow graph for function &#39;function_40d53c(a1, a2)&#39;. Pages: 1 -->
<svg width="2326pt" height="985pt"
 viewBox="0.00 0.00 2326.00 985.00" xmlns="http://www.w3.org/2000/svg" xmlns:xlink="http://www.w3.org/1999/xlink">
<g id="graph0" class="graph" transform="scale(1 1) rotate(0) translate(4 981)">
<title>Control&#45;flow graph for function &#39;function_40d53c(a1, a2)&#39;.</title>
<polygon fill="white" stroke="none" points="-4,4 -4,-981 2322,-981 2322,4 -4,4"/>
<text text-anchor="middle" x="1159" y="-7.8" font-family="Times,serif" font-size="14.00">Control&#45;flow graph for function &#39;function_40d53c(a1, a2)&#39;.</text>
<!-- Node0x273896a0 -->
<g id="node1" class="node"><title>Node0x273896a0</title>
<polygon fill="none" stroke="black" points="577.5,-923.5 577.5,-976.5 636.5,-976.5 636.5,-923.5 577.5,-923.5"/>
<text text-anchor="start" x="585.5" y="-961.3" font-family="Times,serif" font-size="14.00">entry:</text>
<text text-anchor="start" x="585.5" y="-946.3" font-family="Times,serif" font-size="14.00"> a1</text>
<text text-anchor="start" x="585.5" y="-931.3" font-family="Times,serif" font-size="14.00"> a2</text>
</g>
<!-- Node0x273879b0 -->
<g id="node2" class="node"><title>Node0x273879b0</title>
<polygon fill="none" stroke="black" points="390.5,-667.5 390.5,-885.5 823.5,-885.5 823.5,-667.5 390.5,-667.5"/>
<text text-anchor="start" x="398.5" y="-870.3" font-family="Times,serif" font-size="14.00">v1 = 0</text>
<text text-anchor="start" x="398.5" y="-855.3" font-family="Times,serif" font-size="14.00"> g2 = 4419036</text>
<text text-anchor="start" x="398.5" y="-840.3" font-family="Times,serif" font-size="14.00"> __EH_prolog3()</text>
<text text-anchor="start" x="398.5" y="-825.3" font-family="Times,serif" font-size="14.00"> g7 = g5</text>
<text text-anchor="start" x="398.5" y="-810.3" font-family="Times,serif" font-size="14.00"> g9 = *(IntToPtrCastExpr&lt;ptr&gt;((function_41022a() + 4)))</text>
<text text-anchor="start" x="398.5" y="-795.3" font-family="Times,serif" font-size="14.00"> function_41022a()</text>
<text text-anchor="start" x="398.5" y="-780.3" font-family="Times,serif" font-size="14.00"> function_404c38()</text>
<text text-anchor="start" x="398.5" y="-765.3" font-family="Times,serif" font-size="14.00"> g1 = False</text>
<text text-anchor="start" x="398.5" y="-750.3" font-family="Times,serif" font-size="14.00"> g180 = True</text>
<text text-anchor="start" x="398.5" y="-735.3" font-family="Times,serif" font-size="14.00"> *(IntToPtrCastExpr&lt;ptr&gt;((g3 &#45; 4))) = 0</text>
<text text-anchor="start" x="398.5" y="-720.3" font-family="Times,serif" font-size="14.00"> g5 = g7</text>
<text text-anchor="start" x="398.5" y="-705.3" font-family="Times,serif" font-size="14.00"> function_40cc21(v1)</text>
<text text-anchor="start" x="398.5" y="-690.3" font-family="Times,serif" font-size="14.00"> g5 = g7</text>
<text text-anchor="start" x="398.5" y="-675.3" font-family="Times,serif" font-size="14.00"> v2 = function_40c363(BitCastExpr&lt;ptr&gt;(&amp;(v1)), NULL)</text>
</g>
<!-- Node0x273896a0&#45;&gt;Node0x273879b0 -->
<g id="edge1" class="edge"><title>Node0x273896a0&#45;&gt;Node0x273879b0</title>
<path fill="none" stroke="black" d="M607,-923.325C607,-915.335 607,-905.948 607,-895.852"/>
<polygon fill="black" stroke="black" points="610.5,-895.545 607,-885.545 603.5,-895.545 610.5,-895.545"/>
</g>
<!-- Node0x27f6ca20 -->
<g id="node3" class="node"><title>Node0x27f6ca20</title>
<polygon fill="none" stroke="black" points="554.5,-593.5 554.5,-629.5 659.5,-629.5 659.5,-593.5 554.5,-593.5"/>
<text text-anchor="start" x="562.5" y="-607.8" font-family="Times,serif" font-size="14.00">if (v2 == 0):</text>
</g>
<!-- Node0x273879b0&#45;&gt;Node0x27f6ca20 -->
<g id="edge2" class="edge"><title>Node0x273879b0&#45;&gt;Node0x27f6ca20</title>
<path fill="none" stroke="black" d="M607,-667.23C607,-657.204 607,-647.787 607,-639.684"/>
<polygon fill="black" stroke="black" points="610.5,-639.516 607,-629.516 603.5,-639.516 610.5,-639.516"/>
</g>
<!-- Node0xc9dd69b0 -->
<g id="node4" class="node"><title>Node0xc9dd69b0</title>
<polygon fill="none" stroke="black" points="286,-503.5 286,-541.5 622,-541.5 622,-503.5 286,-503.5"/>
<text text-anchor="start" x="294" y="-526.3" font-family="Times,serif" font-size="14.00">0x40d575:</text>
<text text-anchor="start" x="294" y="-511.3" font-family="Times,serif" font-size="14.00"> function_40ede0(BitCastExpr&lt;ptr&gt;(&amp;(v1)))</text>
</g>
<!-- Node0x27f6ca20&#45;&gt;Node0xc9dd69b0 -->
<g id="edge3" class="edge"><title>Node0x27f6ca20&#45;&gt;Node0xc9dd69b0</title>
<path fill="none" stroke="black" d="M576.772,-593.312C553.246,-579.934 520.366,-561.238 494.554,-546.56"/>
<polygon fill="black" stroke="black" points="496.168,-543.452 485.745,-541.551 492.708,-549.537 496.168,-543.452"/>
<text text-anchor="middle" x="575" y="-563.8" font-family="Times,serif" font-size="14.00">v2 == 0</text>
</g>
<!-- Node0x27385800 -->
<g id="node5" class="node"><title>Node0x27385800</title>
<polygon fill="none" stroke="black" points="406.5,-382.5 406.5,-465.5 795.5,-465.5 795.5,-382.5 406.5,-382.5"/>
<text text-anchor="start" x="414.5" y="-450.3" font-family="Times,serif" font-size="14.00">v3 = g3</text>
<text text-anchor="start" x="414.5" y="-435.3" font-family="Times,serif" font-size="14.00"> dwData = *(IntToPtrCastExpr&lt;ptr&gt;((v3 + 8)))</text>
<text text-anchor="start" x="414.5" y="-420.3" font-family="Times,serif" font-size="14.00"> v4 = *(IntToPtrCastExpr&lt;ptr&gt;((v3 + 12)))</text>
<text text-anchor="start" x="414.5" y="-405.3" font-family="Times,serif" font-size="14.00"> lpszHelp = *(IntToPtrCastExpr&lt;ptr&gt;((g9 + 100)))</text>
<text text-anchor="start" x="414.5" y="-390.3" font-family="Times,serif" font-size="14.00"> hWndMain = *(IntToPtrCastExpr&lt;ptr&gt;((v2 + 32)))</text>
</g>
<!-- Node0x27f6ca20&#45;&gt;Node0x27385800 -->
<g id="edge4" class="edge"><title>Node0x27f6ca20&#45;&gt;Node0x27385800</title>
<path fill="none" stroke="black" d="M614.776,-593.473C620.542,-579.867 627.915,-560.137 631,-542 633.907,-524.912 634.164,-520.042 631,-503 629.308,-493.886 626.592,-484.463 623.468,-475.453"/>
<polygon fill="black" stroke="black" points="626.682,-474.051 619.948,-465.872 620.111,-476.465 626.682,-474.051"/>
<text text-anchor="middle" x="661" y="-518.8" font-family="Times,serif" font-size="14.00">v2 != 0</text>
</g>
<!-- Node0xc9dd69b0&#45;&gt;Node0x27385800 -->
<g id="edge5" class="edge"><title>Node0xc9dd69b0&#45;&gt;Node0x27385800</title>
<path fill="none" stroke="black" d="M481.65,-503.349C495.587,-494.2 513.186,-482.646 530.558,-471.243"/>
<polygon fill="black" stroke="black" points="532.611,-474.082 539.05,-465.668 528.769,-468.23 532.611,-474.082"/>
</g>
<!-- Node0x27385c70 -->
<g id="node6" class="node"><title>Node0x27385c70</title>
<polygon fill="none" stroke="black" points="0,-308.5 0,-344.5 1202,-344.5 1202,-308.5 0,-308.5"/>
<text text-anchor="start" x="8" y="-322.8" font-family="Times,serif" font-size="14.00">if not (WinHelpA(IntToPtrCastExpr&lt;ptr&gt;(hWndMain), IntToPtrCastExpr&lt;ptr&gt;(lpszHelp), ExtCastExpr&lt;int32&gt;(((v4 &amp; 1) != 0)), IntToPtrCastExpr&lt;ptr&gt;(dwData))):</text>
</g>
<!-- Node0x27385800&#45;&gt;Node0x27385c70 -->
<g id="edge6" class="edge"><title>Node0x27385800&#45;&gt;Node0x27385c70</title>
<path fill="none" stroke="black" d="M601,-382.499C601,-373.206 601,-363.537 601,-354.946"/>
<polygon fill="black" stroke="black" points="604.5,-354.749 601,-344.749 597.5,-354.749 604.5,-354.749"/>
</g>
<!-- Node0x273926c0 -->
<g id="node7" class="node"><title>Node0x273926c0</title>
<polygon fill="none" stroke="black" points="471,-218.5 471,-256.5 621,-256.5 621,-218.5 471,-218.5"/>
<text text-anchor="start" x="479" y="-241.3" font-family="Times,serif" font-size="14.00">0x40d590:</text>
<text text-anchor="start" x="479" y="-226.3" font-family="Times,serif" font-size="14.00"> function_406cea()</text>
</g>
<!-- Node0x27385c70&#45;&gt;Node0x273926c0 -->
<g id="edge7" class="edge"><title>Node0x27385c70&#45;&gt;Node0x273926c0</title>
<path fill="none" stroke="black" d="M152.625,-308.491C75.6793,-303.464 17.8809,-297.307 11,-290 6.42971,-285.146 6.44922,-279.872 11,-275 40.9831,-242.902 317.505,-238.293 460.78,-238.087"/>
<polygon fill="black" stroke="black" points="460.863,-241.587 470.86,-238.079 460.857,-234.587 460.863,-241.587"/>
<text text-anchor="middle" x="594.5" y="-278.8" font-family="Times,serif" font-size="14.00">not (WinHelpA(IntToPtrCastExpr&lt;ptr&gt;(hWndMain), IntToPtrCastExpr&lt;ptr&gt;(lpszHelp), ExtCastExpr&lt;int32&gt;(((v4 &amp; 1) != 0)), IntToPtrCastExpr&lt;ptr&gt;(dwData)))</text>
</g>
<!-- Node0x14d2a590 -->
<g id="node8" class="node"><title>Node0x14d2a590</title>
<polygon fill="none" stroke="black" points="870,-97.5 870,-180.5 1178,-180.5 1178,-97.5 870,-97.5"/>
<text text-anchor="start" x="878" y="-165.3" font-family="Times,serif" font-size="14.00">0x40d59d:</text>
<text text-anchor="start" x="878" y="-150.3" font-family="Times,serif" font-size="14.00"> *(IntToPtrCastExpr&lt;ptr&gt;((g3 &#45; 4))) = &#45;1</text>
<text text-anchor="start" x="878" y="-135.3" font-family="Times,serif" font-size="14.00"> function_40d44c()</text>
<text text-anchor="start" x="878" y="-120.3" font-family="Times,serif" font-size="14.00"> __EH_epilog3()</text>
<text text-anchor="start" x="878" y="-105.3" font-family="Times,serif" font-size="14.00"> return 0</text>
</g>
<!-- Node0x27385c70&#45;&gt;Node0x14d2a590 -->
<g id="edge8" class="edge"><title>Node0x27385c70&#45;&gt;Node0x14d2a590</title>
<path fill="none" stroke="black" d="M1036.24,-308.482C1113.12,-303.423 1171.18,-297.254 1178,-290 1211.95,-253.898 1169.25,-214.894 1120.29,-185.71"/>
<polygon fill="black" stroke="black" points="1121.82,-182.553 1111.41,-180.562 1118.31,-188.608 1121.82,-182.553"/>
<text text-anchor="middle" x="1753.5" y="-233.8" font-family="Times,serif" font-size="14.00">WinHelpA(IntToPtrCastExpr&lt;ptr&gt;(hWndMain), IntToPtrCastExpr&lt;ptr&gt;(lpszHelp), ExtCastExpr&lt;int32&gt;(((v4 &amp; 1) != 0)), IntToPtrCastExpr&lt;ptr&gt;(dwData))</text>
</g>
<!-- Node0x273926c0&#45;&gt;Node0x14d2a590 -->
<g id="edge9" class="edge"><title>Node0x273926c0&#45;&gt;Node0x14d2a590</title>
<path fill="none" stroke="black" d="M621.213,-221.316C685.006,-208.437 778.794,-189.503 859.821,-173.145"/>
<polygon fill="black" stroke="black" points="860.527,-176.573 869.637,-171.163 859.142,-169.712 860.527,-176.573"/>
</g>
<!-- Node0x63ab9e40 -->
<g id="node9" class="node"><title>Node0x63ab9e40</title>
<polygon fill="none" stroke="black" points="997,-23.5 997,-59.5 1051,-59.5 1051,-23.5 997,-23.5"/>
<text text-anchor="start" x="1005" y="-37.8" font-family="Times,serif" font-size="14.00">exit:</text>
</g>
<!-- Node0x14d2a590&#45;&gt;Node0x63ab9e40 -->
<g id="edge10" class="edge"><title>Node0x14d2a590&#45;&gt;Node0x63ab9e40</title>
<path fill="none" stroke="black" d="M1024,-97.4994C1024,-88.2058 1024,-78.537 1024,-69.9459"/>
<polygon fill="black" stroke="black" points="1027.5,-69.7494 1024,-59.7494 1020.5,-69.7494 1027.5,-69.7494"/>
</g>
</g>
</svg>
