<?xml version="1.0" encoding="UTF-8" standalone="no"?>
<!DOCTYPE svg PUBLIC "-//W3C//DTD SVG 1.1//EN"
 "http://www.w3.org/Graphics/SVG/1.1/DTD/svg11.dtd">
<!-- Generated by graphviz version 2.38.0 (20140413.2041)
 -->
<!-- Title: Control&#45;flow graph for function &#39;function_40e1ae()&#39;. Pages: 1 -->
<svg width="757pt" height="565pt"
 viewBox="0.00 0.00 756.50 565.00" xmlns="http://www.w3.org/2000/svg" xmlns:xlink="http://www.w3.org/1999/xlink">
<g id="graph0" class="graph" transform="scale(1 1) rotate(0) translate(4 561)">
<title>Control&#45;flow graph for function &#39;function_40e1ae()&#39;.</title>
<polygon fill="white" stroke="none" points="-4,4 -4,-561 752.5,-561 752.5,4 -4,4"/>
<text text-anchor="middle" x="374.25" y="-7.8" font-family="Times,serif" font-size="14.00">Control&#45;flow graph for function &#39;function_40e1ae()&#39;.</text>
<!-- Node0xcacf21a0 -->
<g id="node1" class="node"><title>Node0xcacf21a0</title>
<polygon fill="none" stroke="black" points="373,-520.5 373,-556.5 432,-556.5 432,-520.5 373,-520.5"/>
<text text-anchor="start" x="381" y="-534.8" font-family="Times,serif" font-size="14.00">entry:</text>
</g>
<!-- Node0xcacf2e30 -->
<g id="node2" class="node"><title>Node0xcacf2e30</title>
<polygon fill="none" stroke="black" points="243,-399.5 243,-482.5 562,-482.5 562,-399.5 243,-399.5"/>
<text text-anchor="start" x="251" y="-467.3" font-family="Times,serif" font-size="14.00">v1 = g5</text>
<text text-anchor="start" x="251" y="-452.3" font-family="Times,serif" font-size="14.00"> v2 = *(IntToPtrCastExpr&lt;ptr&gt;((v1 + 4)))</text>
<text text-anchor="start" x="251" y="-437.3" font-family="Times,serif" font-size="14.00"> g1 = False</text>
<text text-anchor="start" x="251" y="-422.3" font-family="Times,serif" font-size="14.00"> g180 = (v2 == 0)</text>
<text text-anchor="start" x="251" y="-407.3" font-family="Times,serif" font-size="14.00"> hWnd</text>
</g>
<!-- Node0xcacf21a0&#45;&gt;Node0xcacf2e30 -->
<g id="edge1" class="edge"><title>Node0xcacf21a0&#45;&gt;Node0xcacf2e30</title>
<path fill="none" stroke="black" d="M402.5,-520.427C402.5,-512.622 402.5,-502.921 402.5,-493.032"/>
<polygon fill="black" stroke="black" points="406,-492.73 402.5,-482.73 399,-492.73 406,-492.73"/>
</g>
<!-- Node0xcacf27e0 -->
<g id="node3" class="node"><title>Node0xcacf27e0</title>
<polygon fill="none" stroke="black" points="353,-323.5 353,-361.5 452,-361.5 452,-323.5 353,-323.5"/>
<text text-anchor="start" x="361" y="-346.3" font-family="Times,serif" font-size="14.00">if (v2 != 0):</text>
<text text-anchor="start" x="361" y="-331.3" font-family="Times,serif" font-size="14.00"> else:</text>
</g>
<!-- Node0xcacf2e30&#45;&gt;Node0xcacf27e0 -->
<g id="edge2" class="edge"><title>Node0xcacf2e30&#45;&gt;Node0xcacf27e0</title>
<path fill="none" stroke="black" d="M402.5,-399.355C402.5,-390.083 402.5,-380.427 402.5,-371.803"/>
<polygon fill="black" stroke="black" points="406,-371.538 402.5,-361.538 399,-371.538 406,-371.538"/>
</g>
<!-- Node0xcacf31c0 -->
<g id="node4" class="node"><title>Node0xcacf31c0</title>
<polygon fill="none" stroke="black" points="0,-173.5 0,-271.5 493,-271.5 493,-173.5 0,-173.5"/>
<text text-anchor="start" x="8" y="-256.3" font-family="Times,serif" font-size="14.00">0x40e1b4:</text>
<text text-anchor="start" x="8" y="-241.3" font-family="Times,serif" font-size="14.00"> g5 = v2</text>
<text text-anchor="start" x="8" y="-226.3" font-family="Times,serif" font-size="14.00"> v3 = *(IntToPtrCastExpr&lt;ptr&gt;(v2))</text>
<text text-anchor="start" x="8" y="-211.3" font-family="Times,serif" font-size="14.00"> g2 = v3</text>
<text text-anchor="start" x="8" y="-196.3" font-family="Times,serif" font-size="14.00"> IntToPtrCastExpr&lt;ptr&gt;(*(IntToPtrCastExpr&lt;ptr&gt;((v3 + 120))))()</text>
<text text-anchor="start" x="8" y="-181.3" font-family="Times,serif" font-size="14.00"> hWnd = g5</text>
</g>
<!-- Node0xcacf27e0&#45;&gt;Node0xcacf31c0 -->
<g id="edge3" class="edge"><title>Node0xcacf27e0&#45;&gt;Node0xcacf31c0</title>
<path fill="none" stroke="black" d="M378.467,-323.321C362.249,-311.054 339.925,-294.168 318.25,-277.772"/>
<polygon fill="black" stroke="black" points="320.075,-274.764 309.988,-271.523 315.852,-280.347 320.075,-274.764"/>
<text text-anchor="middle" x="379.5" y="-293.8" font-family="Times,serif" font-size="14.00">v2 != 0</text>
</g>
<!-- Node0xcacf2f90 -->
<g id="node5" class="node"><title>Node0xcacf2f90</title>
<polygon fill="none" stroke="black" points="511,-204.5 511,-240.5 608,-240.5 608,-204.5 511,-204.5"/>
<text text-anchor="start" x="519" y="-218.8" font-family="Times,serif" font-size="14.00">hWnd = v1</text>
</g>
<!-- Node0xcacf27e0&#45;&gt;Node0xcacf2f90 -->
<g id="edge4" class="edge"><title>Node0xcacf27e0&#45;&gt;Node0xcacf2f90</title>
<path fill="none" stroke="black" d="M429.834,-323.225C449.966,-309.546 477.838,-290.147 501.5,-272 511.753,-264.137 522.696,-255.15 532.284,-247.066"/>
<polygon fill="black" stroke="black" points="534.619,-249.674 539.973,-240.532 530.086,-244.34 534.619,-249.674"/>
<text text-anchor="middle" x="505.5" y="-293.8" font-family="Times,serif" font-size="14.00">v2 == 0</text>
</g>
<!-- Node0xcacf3160 -->
<g id="node6" class="node"><title>Node0xcacf3160</title>
<polygon fill="none" stroke="black" points="128.5,-97.5 128.5,-135.5 748.5,-135.5 748.5,-97.5 128.5,-97.5"/>
<text text-anchor="start" x="136.5" y="-120.3" font-family="Times,serif" font-size="14.00">0x40e1bc:</text>
<text text-anchor="start" x="136.5" y="-105.3" font-family="Times,serif" font-size="14.00"> GetWindowLongA(IntToPtrCastExpr&lt;ptr&gt;(*(IntToPtrCastExpr&lt;ptr&gt;(hWnd))), &#45;16)</text>
</g>
<!-- Node0xcacf31c0&#45;&gt;Node0xcacf3160 -->
<g id="edge5" class="edge"><title>Node0xcacf31c0&#45;&gt;Node0xcacf3160</title>
<path fill="none" stroke="black" d="M335.194,-173.458C356.446,-161.946 378.179,-150.174 396.194,-140.416"/>
<polygon fill="black" stroke="black" points="398.127,-143.349 405.253,-135.509 394.793,-137.194 398.127,-143.349"/>
</g>
<!-- Node0xcacf2f90&#45;&gt;Node0xcacf3160 -->
<g id="edge6" class="edge"><title>Node0xcacf2f90&#45;&gt;Node0xcacf3160</title>
<path fill="none" stroke="black" d="M539.519,-204.327C519.911,-187.473 489.792,-161.586 467.541,-142.46"/>
<polygon fill="black" stroke="black" points="469.598,-139.613 459.732,-135.749 465.035,-144.922 469.598,-139.613"/>
</g>
<!-- Node0xcacf1690 -->
<g id="node7" class="node"><title>Node0xcacf1690</title>
<polygon fill="none" stroke="black" points="411.5,-23.5 411.5,-59.5 465.5,-59.5 465.5,-23.5 411.5,-23.5"/>
<text text-anchor="start" x="419.5" y="-37.8" font-family="Times,serif" font-size="14.00">exit:</text>
</g>
<!-- Node0xcacf3160&#45;&gt;Node0xcacf1690 -->
<g id="edge7" class="edge"><title>Node0xcacf3160&#45;&gt;Node0xcacf1690</title>
<path fill="none" stroke="black" d="M438.5,-97.4551C438.5,-89.2008 438.5,-79.2377 438.5,-70.0742"/>
<polygon fill="black" stroke="black" points="442,-69.8347 438.5,-59.8347 435,-69.8347 442,-69.8347"/>
</g>
</g>
</svg>
