<?xml version="1.0" encoding="UTF-8" standalone="no"?>
<!DOCTYPE svg PUBLIC "-//W3C//DTD SVG 1.1//EN"
 "http://www.w3.org/Graphics/SVG/1.1/DTD/svg11.dtd">
<!-- Generated by graphviz version 2.38.0 (20140413.2041)
 -->
<!-- Title: Control&#45;flow graph for function &#39;function_41e14b(a1)&#39;. Pages: 1 -->
<svg width="412pt" height="444pt"
 viewBox="0.00 0.00 412.00 444.00" xmlns="http://www.w3.org/2000/svg" xmlns:xlink="http://www.w3.org/1999/xlink">
<g id="graph0" class="graph" transform="scale(1 1) rotate(0) translate(4 440)">
<title>Control&#45;flow graph for function &#39;function_41e14b(a1)&#39;.</title>
<polygon fill="white" stroke="none" points="-4,4 -4,-440 408,-440 408,4 -4,4"/>
<text text-anchor="middle" x="202" y="-7.8" font-family="Times,serif" font-size="14.00">Control&#45;flow graph for function &#39;function_41e14b(a1)&#39;.</text>
<!-- Node0x2c7fb970 -->
<g id="node1" class="node"><title>Node0x2c7fb970</title>
<polygon fill="none" stroke="black" points="172.5,-397.5 172.5,-435.5 231.5,-435.5 231.5,-397.5 172.5,-397.5"/>
<text text-anchor="start" x="180.5" y="-420.3" font-family="Times,serif" font-size="14.00">entry:</text>
<text text-anchor="start" x="180.5" y="-405.3" font-family="Times,serif" font-size="14.00"> a1</text>
</g>
<!-- Node0x2d5e3f20 -->
<g id="node2" class="node"><title>Node0x2d5e3f20</title>
<polygon fill="none" stroke="black" points="37.5,-291.5 37.5,-359.5 366.5,-359.5 366.5,-291.5 37.5,-291.5"/>
<text text-anchor="start" x="45.5" y="-344.3" font-family="Times,serif" font-size="14.00">v1 = IntToPtrCastExpr&lt;ptr&gt;((g5 + 44))</text>
<text text-anchor="start" x="45.5" y="-329.3" font-family="Times,serif" font-size="14.00"> v2 = *(v1)</text>
<text text-anchor="start" x="45.5" y="-314.3" font-family="Times,serif" font-size="14.00"> g2 = v2</text>
<text text-anchor="start" x="45.5" y="-299.3" font-family="Times,serif" font-size="14.00"> v3 = *(IntToPtrCastExpr&lt;ptr&gt;((g5 + 48)))</text>
</g>
<!-- Node0x2c7fb970&#45;&gt;Node0x2d5e3f20 -->
<g id="edge1" class="edge"><title>Node0x2c7fb970&#45;&gt;Node0x2d5e3f20</title>
<path fill="none" stroke="black" d="M202,-397.49C202,-389.422 202,-379.529 202,-369.718"/>
<polygon fill="black" stroke="black" points="205.5,-369.605 202,-359.605 198.5,-369.605 205.5,-369.605"/>
</g>
<!-- Node0x2c7fe0a0 -->
<g id="node3" class="node"><title>Node0x2c7fe0a0</title>
<polygon fill="none" stroke="black" points="145.5,-217.5 145.5,-253.5 258.5,-253.5 258.5,-217.5 145.5,-217.5"/>
<text text-anchor="start" x="153.5" y="-231.8" font-family="Times,serif" font-size="14.00">if (v2 &gt;= v3):</text>
</g>
<!-- Node0x2d5e3f20&#45;&gt;Node0x2c7fe0a0 -->
<g id="edge2" class="edge"><title>Node0x2d5e3f20&#45;&gt;Node0x2c7fe0a0</title>
<path fill="none" stroke="black" d="M202,-291.482C202,-282.328 202,-272.497 202,-263.715"/>
<polygon fill="black" stroke="black" points="205.5,-263.64 202,-253.64 198.5,-263.64 205.5,-263.64"/>
</g>
<!-- Node0x2d5de710 -->
<g id="node4" class="node"><title>Node0x2d5de710</title>
<polygon fill="none" stroke="black" points="90,-112.5 90,-150.5 182,-150.5 182,-112.5 90,-112.5"/>
<text text-anchor="start" x="98" y="-135.3" font-family="Times,serif" font-size="14.00">0x41e155:</text>
<text text-anchor="start" x="98" y="-120.3" font-family="Times,serif" font-size="14.00"> return 0</text>
</g>
<!-- Node0x2c7fe0a0&#45;&gt;Node0x2d5de710 -->
<g id="edge3" class="edge"><title>Node0x2c7fe0a0&#45;&gt;Node0x2d5de710</title>
<path fill="none" stroke="black" d="M183.524,-217.403C178.122,-211.852 172.473,-205.452 168,-199 159.649,-186.953 152.37,-172.391 146.874,-159.968"/>
<polygon fill="black" stroke="black" points="150.002,-158.381 142.862,-150.554 143.562,-161.125 150.002,-158.381"/>
<text text-anchor="middle" x="202" y="-187.8" font-family="Times,serif" font-size="14.00">v2 &gt;= v3</text>
</g>
<!-- Node0x2d5df250 -->
<g id="node5" class="node"><title>Node0x2d5df250</title>
<polygon fill="none" stroke="black" points="200.5,-97.5 200.5,-165.5 337.5,-165.5 337.5,-97.5 200.5,-97.5"/>
<text text-anchor="start" x="208.5" y="-150.3" font-family="Times,serif" font-size="14.00">v4 = (v2 + 1)</text>
<text text-anchor="start" x="208.5" y="-135.3" font-family="Times,serif" font-size="14.00"> *(v1) = v4</text>
<text text-anchor="start" x="208.5" y="-120.3" font-family="Times,serif" font-size="14.00"> g2 = (v4 &lt; v3)</text>
<text text-anchor="start" x="208.5" y="-105.3" font-family="Times,serif" font-size="14.00"> return (v4 &lt; v3)</text>
</g>
<!-- Node0x2c7fe0a0&#45;&gt;Node0x2d5df250 -->
<g id="edge4" class="edge"><title>Node0x2c7fe0a0&#45;&gt;Node0x2d5df250</title>
<path fill="none" stroke="black" d="M220.428,-217.37C225.828,-211.817 231.488,-205.425 236,-199 241.22,-191.566 246.067,-183.186 250.351,-174.943"/>
<polygon fill="black" stroke="black" points="253.603,-176.263 254.938,-165.753 247.34,-173.137 253.603,-176.263"/>
<text text-anchor="middle" x="273" y="-187.8" font-family="Times,serif" font-size="14.00">v2 &lt; v3</text>
</g>
<!-- Node0x2c7ef070 -->
<g id="node6" class="node"><title>Node0x2c7ef070</title>
<polygon fill="none" stroke="black" points="189,-23.5 189,-59.5 243,-59.5 243,-23.5 189,-23.5"/>
<text text-anchor="start" x="197" y="-37.8" font-family="Times,serif" font-size="14.00">exit:</text>
</g>
<!-- Node0x2d5de710&#45;&gt;Node0x2c7ef070 -->
<g id="edge5" class="edge"><title>Node0x2d5de710&#45;&gt;Node0x2c7ef070</title>
<path fill="none" stroke="black" d="M152.576,-112.266C164.47,-99.1834 180.629,-81.4078 193.66,-67.0738"/>
<polygon fill="black" stroke="black" points="196.394,-69.27 200.531,-59.5162 191.214,-64.5612 196.394,-69.27"/>
</g>
<!-- Node0x2d5df250&#45;&gt;Node0x2c7ef070 -->
<g id="edge6" class="edge"><title>Node0x2d5df250&#45;&gt;Node0x2c7ef070</title>
<path fill="none" stroke="black" d="M249.114,-97.4817C243.298,-87.8252 237.028,-77.4148 231.525,-68.2777"/>
<polygon fill="black" stroke="black" points="234.481,-66.4008 226.323,-59.6402 228.484,-70.0123 234.481,-66.4008"/>
</g>
</g>
</svg>
