<?xml version="1.0" encoding="UTF-8" standalone="no"?>
<!DOCTYPE svg PUBLIC "-//W3C//DTD SVG 1.1//EN"
 "http://www.w3.org/Graphics/SVG/1.1/DTD/svg11.dtd">
<!-- Generated by graphviz version 2.38.0 (20140413.2041)
 -->
<!-- Title: Control&#45;flow graph for function &#39;function_40eec3(*a1, a2)&#39;. Pages: 1 -->
<svg width="444pt" height="248pt"
 viewBox="0.00 0.00 444.00 248.00" xmlns="http://www.w3.org/2000/svg" xmlns:xlink="http://www.w3.org/1999/xlink">
<g id="graph0" class="graph" transform="scale(1 1) rotate(0) translate(4 244)">
<title>Control&#45;flow graph for function &#39;function_40eec3(*a1, a2)&#39;.</title>
<polygon fill="white" stroke="none" points="-4,4 -4,-244 440,-244 440,4 -4,4"/>
<text text-anchor="middle" x="218" y="-7.8" font-family="Times,serif" font-size="14.00">Control&#45;flow graph for function &#39;function_40eec3(*a1, a2)&#39;.</text>
<!-- Node0x9dc3b4c0 -->
<g id="node1" class="node"><title>Node0x9dc3b4c0</title>
<polygon fill="none" stroke="black" points="188.5,-186.5 188.5,-239.5 247.5,-239.5 247.5,-186.5 188.5,-186.5"/>
<text text-anchor="start" x="196.5" y="-224.3" font-family="Times,serif" font-size="14.00">entry:</text>
<text text-anchor="start" x="196.5" y="-209.3" font-family="Times,serif" font-size="14.00"> a1</text>
<text text-anchor="start" x="196.5" y="-194.3" font-family="Times,serif" font-size="14.00"> a2</text>
</g>
<!-- Node0x9dc3bdc0 -->
<g id="node2" class="node"><title>Node0x9dc3bdc0</title>
<polygon fill="none" stroke="black" points="46,-96.5 46,-149.5 390,-149.5 390,-96.5 46,-96.5"/>
<text text-anchor="start" x="54" y="-134.3" font-family="Times,serif" font-size="14.00">result = ExtCastExpr&lt;int32&gt;(*(a1))</text>
<text text-anchor="start" x="54" y="-119.3" font-family="Times,serif" font-size="14.00"> *(IntToPtrCastExpr&lt;ptr&gt;((g5 + 4))) = result</text>
<text text-anchor="start" x="54" y="-104.3" font-family="Times,serif" font-size="14.00"> return result</text>
</g>
<!-- Node0x9dc3b4c0&#45;&gt;Node0x9dc3bdc0 -->
<g id="edge1" class="edge"><title>Node0x9dc3b4c0&#45;&gt;Node0x9dc3bdc0</title>
<path fill="none" stroke="black" d="M218,-186.073C218,-177.838 218,-168.58 218,-159.777"/>
<polygon fill="black" stroke="black" points="221.5,-159.742 218,-149.742 214.5,-159.742 221.5,-159.742"/>
</g>
<!-- Node0x9dc3bd40 -->
<g id="node3" class="node"><title>Node0x9dc3bd40</title>
<polygon fill="none" stroke="black" points="191,-23.5 191,-59.5 245,-59.5 245,-23.5 191,-23.5"/>
<text text-anchor="start" x="199" y="-37.8" font-family="Times,serif" font-size="14.00">exit:</text>
</g>
<!-- Node0x9dc3bdc0&#45;&gt;Node0x9dc3bd40 -->
<g id="edge2" class="edge"><title>Node0x9dc3bdc0&#45;&gt;Node0x9dc3bd40</title>
<path fill="none" stroke="black" d="M218,-96.4081C218,-87.9823 218,-78.5803 218,-70.0174"/>
<polygon fill="black" stroke="black" points="221.5,-69.7564 218,-59.7564 214.5,-69.7565 221.5,-69.7564"/>
</g>
</g>
</svg>
