<?xml version="1.0" encoding="UTF-8" standalone="no"?>
<!DOCTYPE svg PUBLIC "-//W3C//DTD SVG 1.1//EN"
 "http://www.w3.org/Graphics/SVG/1.1/DTD/svg11.dtd">
<!-- Generated by graphviz version 2.38.0 (20140413.2041)
 -->
<!-- Title: Control&#45;flow graph for function &#39;function_40c0ff(a1, *a2)&#39;. Pages: 1 -->
<svg width="808pt" height="625pt"
 viewBox="0.00 0.00 808.00 625.00" xmlns="http://www.w3.org/2000/svg" xmlns:xlink="http://www.w3.org/1999/xlink">
<g id="graph0" class="graph" transform="scale(1 1) rotate(0) translate(4 621)">
<title>Control&#45;flow graph for function &#39;function_40c0ff(a1, *a2)&#39;.</title>
<polygon fill="white" stroke="none" points="-4,4 -4,-621 804,-621 804,4 -4,4"/>
<text text-anchor="middle" x="400" y="-7.8" font-family="Times,serif" font-size="14.00">Control&#45;flow graph for function &#39;function_40c0ff(a1, *a2)&#39;.</text>
<!-- Node0xa53b65d0 -->
<g id="node1" class="node"><title>Node0xa53b65d0</title>
<polygon fill="none" stroke="black" points="445.5,-563.5 445.5,-616.5 504.5,-616.5 504.5,-563.5 445.5,-563.5"/>
<text text-anchor="start" x="453.5" y="-601.3" font-family="Times,serif" font-size="14.00">entry:</text>
<text text-anchor="start" x="453.5" y="-586.3" font-family="Times,serif" font-size="14.00"> a1</text>
<text text-anchor="start" x="453.5" y="-571.3" font-family="Times,serif" font-size="14.00"> a2</text>
</g>
<!-- Node0xa53b6e30 -->
<g id="node2" class="node"><title>Node0xa53b6e30</title>
<polygon fill="none" stroke="black" points="339,-442.5 339,-525.5 611,-525.5 611,-442.5 339,-442.5"/>
<text text-anchor="start" x="347" y="-510.3" font-family="Times,serif" font-size="14.00">v1 = PtrToIntCastExpr&lt;int32&gt;(a2)</text>
<text text-anchor="start" x="347" y="-495.3" font-family="Times,serif" font-size="14.00"> g9 = v1</text>
<text text-anchor="start" x="347" y="-480.3" font-family="Times,serif" font-size="14.00"> g7 = g5</text>
<text text-anchor="start" x="347" y="-465.3" font-family="Times,serif" font-size="14.00"> v2 = v1</text>
<text text-anchor="start" x="347" y="-450.3" font-family="Times,serif" font-size="14.00"> v3</text>
</g>
<!-- Node0xa53b65d0&#45;&gt;Node0xa53b6e30 -->
<g id="edge1" class="edge"><title>Node0xa53b65d0&#45;&gt;Node0xa53b6e30</title>
<path fill="none" stroke="black" d="M475,-563.292C475,-554.988 475,-545.469 475,-535.995"/>
<polygon fill="black" stroke="black" points="478.5,-535.791 475,-525.791 471.5,-535.791 478.5,-535.791"/>
</g>
<!-- Node0xa53b6f90 -->
<g id="node3" class="node"><title>Node0xa53b6f90</title>
<polygon fill="none" stroke="black" points="409,-368.5 409,-404.5 541,-404.5 541,-368.5 409,-368.5"/>
<text text-anchor="start" x="417" y="-382.8" font-family="Times,serif" font-size="14.00">if (a2[&#39;0&#39;] == 1):</text>
</g>
<!-- Node0xa53b6e30&#45;&gt;Node0xa53b6f90 -->
<g id="edge2" class="edge"><title>Node0xa53b6e30&#45;&gt;Node0xa53b6f90</title>
<path fill="none" stroke="black" d="M475,-442.499C475,-433.206 475,-423.537 475,-414.946"/>
<polygon fill="black" stroke="black" points="478.5,-414.749 475,-404.749 471.5,-414.749 478.5,-414.749"/>
</g>
<!-- Node0xa53b2530 -->
<g id="node4" class="node"><title>Node0xa53b2530</title>
<polygon fill="none" stroke="black" points="0,-248.5 0,-316.5 512,-316.5 512,-248.5 0,-248.5"/>
<text text-anchor="start" x="8" y="-301.3" font-family="Times,serif" font-size="14.00">0x40c10c:</text>
<text text-anchor="start" x="8" y="-286.3" font-family="Times,serif" font-size="14.00"> v3 = IntToPtrCastExpr&lt;ptr&gt;(*(IntToPtrCastExpr&lt;ptr&gt;((v1 + 20))))</text>
<text text-anchor="start" x="8" y="-271.3" font-family="Times,serif" font-size="14.00"> function_41c06e()</text>
<text text-anchor="start" x="8" y="-256.3" font-family="Times,serif" font-size="14.00"> v2 = g9</text>
</g>
<!-- Node0xa53b6f90&#45;&gt;Node0xa53b2530 -->
<g id="edge3" class="edge"><title>Node0xa53b6f90&#45;&gt;Node0xa53b2530</title>
<path fill="none" stroke="black" d="M438.344,-368.427C410.512,-355.464 371.188,-337.149 336.181,-320.844"/>
<polygon fill="black" stroke="black" points="337.453,-317.576 326.91,-316.527 334.498,-323.922 337.453,-317.576"/>
<text text-anchor="middle" x="441.5" y="-338.8" font-family="Times,serif" font-size="14.00">a2[&#39;0&#39;] == 1</text>
</g>
<!-- Node0xa53b72f0 -->
<g id="node5" class="node"><title>Node0xa53b72f0</title>
<polygon fill="none" stroke="black" points="138,-97.5 138,-210.5 800,-210.5 800,-97.5 138,-97.5"/>
<text text-anchor="start" x="146" y="-195.3" font-family="Times,serif" font-size="14.00">0x40c122:</text>
<text text-anchor="start" x="146" y="-180.3" font-family="Times,serif" font-size="14.00"> function_40ba16()</text>
<text text-anchor="start" x="146" y="-165.3" font-family="Times,serif" font-size="14.00"> g5 = g7</text>
<text text-anchor="start" x="146" y="-150.3" font-family="Times,serif" font-size="14.00"> result = function_40afc3(IntToPtrCastExpr&lt;ptr&gt;(*(IntToPtrCastExpr&lt;ptr&gt;((v2 + 20)))))</text>
<text text-anchor="start" x="146" y="-135.3" font-family="Times,serif" font-size="14.00"> g7 = PtrToIntCastExpr&lt;int32&gt;(NULL)</text>
<text text-anchor="start" x="146" y="-120.3" font-family="Times,serif" font-size="14.00"> g9 = PtrToIntCastExpr&lt;int32&gt;(v3)</text>
<text text-anchor="start" x="146" y="-105.3" font-family="Times,serif" font-size="14.00"> return result</text>
</g>
<!-- Node0xa53b6f90&#45;&gt;Node0xa53b72f0 -->
<g id="edge4" class="edge"><title>Node0xa53b6f90&#45;&gt;Node0xa53b72f0</title>
<path fill="none" stroke="black" d="M490.715,-368.423C501.568,-355.406 515.073,-336.459 521,-317 529.936,-287.664 528.733,-277.676 521,-248 518.516,-238.468 514.816,-228.878 510.512,-219.665"/>
<polygon fill="black" stroke="black" points="513.598,-218.01 506.03,-210.596 507.323,-221.111 513.598,-218.01"/>
<text text-anchor="middle" x="567.5" y="-278.8" font-family="Times,serif" font-size="14.00">a2[&#39;0&#39;] != 1</text>
</g>
<!-- Node0xa53b2530&#45;&gt;Node0xa53b72f0 -->
<g id="edge5" class="edge"><title>Node0xa53b2530&#45;&gt;Node0xa53b72f0</title>
<path fill="none" stroke="black" d="M311.685,-248.429C328.574,-238.399 347.689,-227.046 366.631,-215.797"/>
<polygon fill="black" stroke="black" points="368.502,-218.756 375.312,-210.641 364.927,-212.738 368.502,-218.756"/>
</g>
<!-- Node0xa53b6dd0 -->
<g id="node6" class="node"><title>Node0xa53b6dd0</title>
<polygon fill="none" stroke="black" points="442,-23.5 442,-59.5 496,-59.5 496,-23.5 442,-23.5"/>
<text text-anchor="start" x="450" y="-37.8" font-family="Times,serif" font-size="14.00">exit:</text>
</g>
<!-- Node0xa53b72f0&#45;&gt;Node0xa53b6dd0 -->
<g id="edge6" class="edge"><title>Node0xa53b72f0&#45;&gt;Node0xa53b6dd0</title>
<path fill="none" stroke="black" d="M469,-97.4263C469,-87.8599 469,-78.3065 469,-69.9133"/>
<polygon fill="black" stroke="black" points="472.5,-69.6444 469,-59.6444 465.5,-69.6444 472.5,-69.6444"/>
</g>
</g>
</svg>
