<?xml version="1.0" encoding="UTF-8" standalone="no"?>
<!DOCTYPE svg PUBLIC "-//W3C//DTD SVG 1.1//EN"
 "http://www.w3.org/Graphics/SVG/1.1/DTD/svg11.dtd">
<!-- Generated by graphviz version 2.38.0 (20140413.2041)
 -->
<!-- Title: Control&#45;flow graph for function &#39;function_4100c3(a1, a2)&#39;. Pages: 1 -->
<svg width="465pt" height="567pt"
 viewBox="0.00 0.00 465.00 567.00" xmlns="http://www.w3.org/2000/svg" xmlns:xlink="http://www.w3.org/1999/xlink">
<g id="graph0" class="graph" transform="scale(1 1) rotate(0) translate(4 563)">
<title>Control&#45;flow graph for function &#39;function_4100c3(a1, a2)&#39;.</title>
<polygon fill="white" stroke="none" points="-4,4 -4,-563 461,-563 461,4 -4,4"/>
<text text-anchor="middle" x="228.5" y="-7.8" font-family="Times,serif" font-size="14.00">Control&#45;flow graph for function &#39;function_4100c3(a1, a2)&#39;.</text>
<!-- Node0x63aa8480 -->
<g id="node1" class="node"><title>Node0x63aa8480</title>
<polygon fill="none" stroke="black" points="263,-505.5 263,-558.5 322,-558.5 322,-505.5 263,-505.5"/>
<text text-anchor="start" x="271" y="-543.3" font-family="Times,serif" font-size="14.00">entry:</text>
<text text-anchor="start" x="271" y="-528.3" font-family="Times,serif" font-size="14.00"> a1</text>
<text text-anchor="start" x="271" y="-513.3" font-family="Times,serif" font-size="14.00"> a2</text>
</g>
<!-- Node0x63aa5840 -->
<g id="node2" class="node"><title>Node0x63aa5840</title>
<polygon fill="none" stroke="black" points="209.5,-369.5 209.5,-467.5 375.5,-467.5 375.5,-369.5 209.5,-369.5"/>
<text text-anchor="start" x="217.5" y="-452.3" font-family="Times,serif" font-size="14.00">v1 = g9</text>
<text text-anchor="start" x="217.5" y="-437.3" font-family="Times,serif" font-size="14.00"> v2 = v1</text>
<text text-anchor="start" x="217.5" y="-422.3" font-family="Times,serif" font-size="14.00"> g10 = &amp;(v2)</text>
<text text-anchor="start" x="217.5" y="-407.3" font-family="Times,serif" font-size="14.00"> g9 = g5</text>
<text text-anchor="start" x="217.5" y="-392.3" font-family="Times,serif" font-size="14.00"> function_40fddd(v1)</text>
<text text-anchor="start" x="217.5" y="-377.3" font-family="Times,serif" font-size="14.00"> v3</text>
</g>
<!-- Node0x63aa8480&#45;&gt;Node0x63aa5840 -->
<g id="edge1" class="edge"><title>Node0x63aa8480&#45;&gt;Node0x63aa5840</title>
<path fill="none" stroke="black" d="M292.5,-505.42C292.5,-497.117 292.5,-487.536 292.5,-477.851"/>
<polygon fill="black" stroke="black" points="296,-477.768 292.5,-467.768 289,-477.768 296,-477.768"/>
</g>
<!-- Node0x63aa8240 -->
<g id="node3" class="node"><title>Node0x63aa8240</title>
<polygon fill="none" stroke="black" points="243,-293.5 243,-331.5 342,-331.5 342,-293.5 243,-293.5"/>
<text text-anchor="start" x="251" y="-316.3" font-family="Times,serif" font-size="14.00">if (a1 != 1):</text>
<text text-anchor="start" x="251" y="-301.3" font-family="Times,serif" font-size="14.00"> else:</text>
</g>
<!-- Node0x63aa5840&#45;&gt;Node0x63aa8240 -->
<g id="edge2" class="edge"><title>Node0x63aa5840&#45;&gt;Node0x63aa8240</title>
<path fill="none" stroke="black" d="M292.5,-369.458C292.5,-359.952 292.5,-350.27 292.5,-341.69"/>
<polygon fill="black" stroke="black" points="296,-341.509 292.5,-331.509 289,-341.509 296,-341.509"/>
</g>
<!-- Node0x63aa7430 -->
<g id="node4" class="node"><title>Node0x63aa7430</title>
<polygon fill="none" stroke="black" points="0,-188.5 0,-241.5 353,-241.5 353,-188.5 0,-188.5"/>
<text text-anchor="start" x="8" y="-226.3" font-family="Times,serif" font-size="14.00">v4 = g9</text>
<text text-anchor="start" x="8" y="-211.3" font-family="Times,serif" font-size="14.00"> function_410da7(IntToPtrCastExpr&lt;ptr&gt;(v4))</text>
<text text-anchor="start" x="8" y="-196.3" font-family="Times,serif" font-size="14.00"> v3 = IntToPtrCastExpr&lt;ptr&gt;(v4)</text>
</g>
<!-- Node0x63aa8240&#45;&gt;Node0x63aa7430 -->
<g id="edge3" class="edge"><title>Node0x63aa8240&#45;&gt;Node0x63aa7430</title>
<path fill="none" stroke="black" d="M270.408,-293.312C255.017,-280.641 234.064,-263.391 215.855,-248.4"/>
<polygon fill="black" stroke="black" points="217.656,-245.349 207.711,-241.695 213.207,-250.753 217.656,-245.349"/>
<text text-anchor="middle" x="272.5" y="-263.8" font-family="Times,serif" font-size="14.00">a1 != 1</text>
</g>
<!-- Node0x63aab7a0 -->
<g id="node5" class="node"><title>Node0x63aab7a0</title>
<polygon fill="none" stroke="black" points="371,-196 371,-234 448,-234 448,-196 371,-196"/>
<text text-anchor="start" x="379" y="-218.8" font-family="Times,serif" font-size="14.00">v5</text>
<text text-anchor="start" x="379" y="-203.8" font-family="Times,serif" font-size="14.00"> v3 = v5</text>
</g>
<!-- Node0x63aa8240&#45;&gt;Node0x63aab7a0 -->
<g id="edge4" class="edge"><title>Node0x63aa8240&#45;&gt;Node0x63aab7a0</title>
<path fill="none" stroke="black" d="M314.782,-293.312C333.08,-278.377 359.171,-257.08 379.338,-240.619"/>
<polygon fill="black" stroke="black" points="381.767,-243.155 387.301,-234.12 377.341,-237.732 381.767,-243.155"/>
<text text-anchor="middle" x="384.5" y="-263.8" font-family="Times,serif" font-size="14.00">a1 == 1</text>
</g>
<!-- Node0x63aa6020 -->
<g id="node6" class="node"><title>Node0x63aa6020</title>
<polygon fill="none" stroke="black" points="180,-97.5 180,-150.5 457,-150.5 457,-97.5 180,-97.5"/>
<text text-anchor="start" x="188" y="-135.3" font-family="Times,serif" font-size="14.00">result = g9</text>
<text text-anchor="start" x="188" y="-120.3" font-family="Times,serif" font-size="14.00"> g9 = PtrToIntCastExpr&lt;int32&gt;(v3)</text>
<text text-anchor="start" x="188" y="-105.3" font-family="Times,serif" font-size="14.00"> return result</text>
</g>
<!-- Node0x63aa7430&#45;&gt;Node0x63aa6020 -->
<g id="edge5" class="edge"><title>Node0x63aa7430&#45;&gt;Node0x63aa6020</title>
<path fill="none" stroke="black" d="M217.192,-188.496C233.383,-178.348 252.163,-166.578 269.123,-155.948"/>
<polygon fill="black" stroke="black" points="271.188,-158.784 277.803,-150.508 267.471,-152.853 271.188,-158.784"/>
</g>
<!-- Node0x63aab7a0&#45;&gt;Node0x63aa6020 -->
<g id="edge6" class="edge"><title>Node0x63aab7a0&#45;&gt;Node0x63aa6020</title>
<path fill="none" stroke="black" d="M391.085,-195.99C379.867,-185.018 365.196,-170.669 351.981,-157.745"/>
<polygon fill="black" stroke="black" points="354.417,-155.232 344.821,-150.742 349.523,-160.237 354.417,-155.232"/>
</g>
<!-- Node0x63aa8570 -->
<g id="node7" class="node"><title>Node0x63aa8570</title>
<polygon fill="none" stroke="black" points="291.5,-23.5 291.5,-59.5 345.5,-59.5 345.5,-23.5 291.5,-23.5"/>
<text text-anchor="start" x="299.5" y="-37.8" font-family="Times,serif" font-size="14.00">exit:</text>
</g>
<!-- Node0x63aa6020&#45;&gt;Node0x63aa8570 -->
<g id="edge7" class="edge"><title>Node0x63aa6020&#45;&gt;Node0x63aa8570</title>
<path fill="none" stroke="black" d="M318.5,-97.0862C318.5,-88.4596 318.5,-78.8224 318.5,-70.0748"/>
<polygon fill="black" stroke="black" points="322,-69.9735 318.5,-59.9735 315,-69.9735 322,-69.9735"/>
</g>
</g>
</svg>
