<?xml version="1.0" encoding="UTF-8" standalone="no"?>
<!DOCTYPE svg PUBLIC "-//W3C//DTD SVG 1.1//EN"
 "http://www.w3.org/Graphics/SVG/1.1/DTD/svg11.dtd">
<!-- Generated by graphviz version 2.38.0 (20140413.2041)
 -->
<!-- Title: Control&#45;flow graph for function &#39;function_437e90(*a1, *a2)&#39;. Pages: 1 -->
<svg width="453pt" height="263pt"
 viewBox="0.00 0.00 453.00 263.00" xmlns="http://www.w3.org/2000/svg" xmlns:xlink="http://www.w3.org/1999/xlink">
<g id="graph0" class="graph" transform="scale(1 1) rotate(0) translate(4 259)">
<title>Control&#45;flow graph for function &#39;function_437e90(*a1, *a2)&#39;.</title>
<polygon fill="white" stroke="none" points="-4,4 -4,-259 449,-259 449,4 -4,4"/>
<text text-anchor="middle" x="222.5" y="-7.8" font-family="Times,serif" font-size="14.00">Control&#45;flow graph for function &#39;function_437e90(*a1, *a2)&#39;.</text>
<!-- Node0x9f37c390 -->
<g id="node1" class="node"><title>Node0x9f37c390</title>
<polygon fill="none" stroke="black" points="193,-201.5 193,-254.5 252,-254.5 252,-201.5 193,-201.5"/>
<text text-anchor="start" x="201" y="-239.3" font-family="Times,serif" font-size="14.00">entry:</text>
<text text-anchor="start" x="201" y="-224.3" font-family="Times,serif" font-size="14.00"> a1</text>
<text text-anchor="start" x="201" y="-209.3" font-family="Times,serif" font-size="14.00"> a2</text>
</g>
<!-- Node0x25df3900 -->
<g id="node2" class="node"><title>Node0x25df3900</title>
<polygon fill="none" stroke="black" points="100,-96.5 100,-164.5 345,-164.5 345,-96.5 100,-96.5"/>
<text text-anchor="start" x="108" y="-149.3" font-family="Times,serif" font-size="14.00">0x437e90:</text>
<text text-anchor="start" x="108" y="-134.3" font-family="Times,serif" font-size="14.00"> g5 = (g3 &#45; 88)</text>
<text text-anchor="start" x="108" y="-119.3" font-family="Times,serif" font-size="14.00"> v1</text>
<text text-anchor="start" x="108" y="-104.3" font-family="Times,serif" font-size="14.00"> return function_4013a0(v1, a1)</text>
</g>
<!-- Node0x9f37c390&#45;&gt;Node0x25df3900 -->
<g id="edge1" class="edge"><title>Node0x9f37c390&#45;&gt;Node0x25df3900</title>
<path fill="none" stroke="black" d="M222.5,-201.408C222.5,-193.219 222.5,-183.912 222.5,-174.822"/>
<polygon fill="black" stroke="black" points="226,-174.721 222.5,-164.721 219,-174.721 226,-174.721"/>
</g>
<!-- Node0x25e2d6a0 -->
<g id="node3" class="node"><title>Node0x25e2d6a0</title>
<polygon fill="none" stroke="black" points="195.5,-23.5 195.5,-59.5 249.5,-59.5 249.5,-23.5 195.5,-23.5"/>
<text text-anchor="start" x="203.5" y="-37.8" font-family="Times,serif" font-size="14.00">exit:</text>
</g>
<!-- Node0x25df3900&#45;&gt;Node0x25e2d6a0 -->
<g id="edge2" class="edge"><title>Node0x25df3900&#45;&gt;Node0x25e2d6a0</title>
<path fill="none" stroke="black" d="M222.5,-96.1123C222.5,-87.3522 222.5,-78.0128 222.5,-69.6246"/>
<polygon fill="black" stroke="black" points="226,-69.6235 222.5,-59.6235 219,-69.6235 226,-69.6235"/>
</g>
</g>
</svg>
