<?xml version="1.0" encoding="UTF-8" standalone="no"?>
<!DOCTYPE svg PUBLIC "-//W3C//DTD SVG 1.1//EN"
 "http://www.w3.org/Graphics/SVG/1.1/DTD/svg11.dtd">
<!-- Generated by graphviz version 2.38.0 (20140413.2041)
 -->
<!-- Title: Control&#45;flow graph for function &#39;function_41e414(a1, a2)&#39;. Pages: 1 -->
<svg width="790pt" height="687pt"
 viewBox="0.00 0.00 790.00 687.00" xmlns="http://www.w3.org/2000/svg" xmlns:xlink="http://www.w3.org/1999/xlink">
<g id="graph0" class="graph" transform="scale(1 1) rotate(0) translate(4 683)">
<title>Control&#45;flow graph for function &#39;function_41e414(a1, a2)&#39;.</title>
<polygon fill="white" stroke="none" points="-4,4 -4,-683 786,-683 786,4 -4,4"/>
<text text-anchor="middle" x="391" y="-7.8" font-family="Times,serif" font-size="14.00">Control&#45;flow graph for function &#39;function_41e414(a1, a2)&#39;.</text>
<!-- Node0x9f75ee60 -->
<g id="node1" class="node"><title>Node0x9f75ee60</title>
<polygon fill="none" stroke="black" points="411,-625.5 411,-678.5 470,-678.5 470,-625.5 411,-625.5"/>
<text text-anchor="start" x="419" y="-663.3" font-family="Times,serif" font-size="14.00">entry:</text>
<text text-anchor="start" x="419" y="-648.3" font-family="Times,serif" font-size="14.00"> a1</text>
<text text-anchor="start" x="419" y="-633.3" font-family="Times,serif" font-size="14.00"> a2</text>
</g>
<!-- Node0x9f760b50 -->
<g id="node2" class="node"><title>Node0x9f760b50</title>
<polygon fill="none" stroke="black" points="193,-414.5 193,-587.5 688,-587.5 688,-414.5 193,-414.5"/>
<text text-anchor="start" x="201" y="-572.3" font-family="Times,serif" font-size="14.00">v1 = IntToPtrCastExpr&lt;ptr&gt;(4)</text>
<text text-anchor="start" x="201" y="-557.3" font-family="Times,serif" font-size="14.00"> g2 = 4422333</text>
<text text-anchor="start" x="201" y="-542.3" font-family="Times,serif" font-size="14.00"> __EH_prolog3()</text>
<text text-anchor="start" x="201" y="-527.3" font-family="Times,serif" font-size="14.00"> g9 = g5</text>
<text text-anchor="start" x="201" y="-512.3" font-family="Times,serif" font-size="14.00"> v2</text>
<text text-anchor="start" x="201" y="-497.3" font-family="Times,serif" font-size="14.00"> v3 = function_4048b3(IntToPtrCastExpr&lt;ptr&gt;(60), &amp;(v1[&#39;0&#39;]), v2)</text>
<text text-anchor="start" x="201" y="-482.3" font-family="Times,serif" font-size="14.00"> g10 = PtrToIntCastExpr&lt;int32&gt;(&amp;(v1))</text>
<text text-anchor="start" x="201" y="-467.3" font-family="Times,serif" font-size="14.00"> g5 = v3</text>
<text text-anchor="start" x="201" y="-452.3" font-family="Times,serif" font-size="14.00"> *(IntToPtrCastExpr&lt;ptr&gt;((g3 &#45; 16))) = v3</text>
<text text-anchor="start" x="201" y="-437.3" font-family="Times,serif" font-size="14.00"> *(IntToPtrCastExpr&lt;ptr&gt;((g3 &#45; 4))) = 0</text>
<text text-anchor="start" x="201" y="-422.3" font-family="Times,serif" font-size="14.00"> result</text>
</g>
<!-- Node0x9f75ee60&#45;&gt;Node0x9f760b50 -->
<g id="edge1" class="edge"><title>Node0x9f75ee60&#45;&gt;Node0x9f760b50</title>
<path fill="none" stroke="black" d="M440.5,-625.386C440.5,-617.336 440.5,-607.922 440.5,-597.948"/>
<polygon fill="black" stroke="black" points="444,-597.816 440.5,-587.816 437,-597.817 444,-597.816"/>
</g>
<!-- Node0x9f75f820 -->
<g id="node3" class="node"><title>Node0x9f75f820</title>
<polygon fill="none" stroke="black" points="390.5,-338.5 390.5,-376.5 490.5,-376.5 490.5,-338.5 390.5,-338.5"/>
<text text-anchor="start" x="398.5" y="-361.3" font-family="Times,serif" font-size="14.00">if (g5 != 0):</text>
<text text-anchor="start" x="398.5" y="-346.3" font-family="Times,serif" font-size="14.00"> else:</text>
</g>
<!-- Node0x9f760b50&#45;&gt;Node0x9f75f820 -->
<g id="edge2" class="edge"><title>Node0x9f760b50&#45;&gt;Node0x9f75f820</title>
<path fill="none" stroke="black" d="M440.5,-414.425C440.5,-404.55 440.5,-395.079 440.5,-386.829"/>
<polygon fill="black" stroke="black" points="444,-386.754 440.5,-376.754 437,-386.754 444,-386.754"/>
</g>
<!-- Node0x9f760fd0 -->
<g id="node4" class="node"><title>Node0x9f760fd0</title>
<polygon fill="none" stroke="black" points="0,-203.5 0,-286.5 547,-286.5 547,-203.5 0,-203.5"/>
<text text-anchor="start" x="8" y="-271.3" font-family="Times,serif" font-size="14.00">v4 = g9</text>
<text text-anchor="start" x="8" y="-256.3" font-family="Times,serif" font-size="14.00"> v5 = *(IntToPtrCastExpr&lt;ptr&gt;((v4 + 48)))</text>
<text text-anchor="start" x="8" y="-241.3" font-family="Times,serif" font-size="14.00"> v6 = *(IntToPtrCastExpr&lt;ptr&gt;((v4 + 40)))</text>
<text text-anchor="start" x="8" y="-226.3" font-family="Times,serif" font-size="14.00"> v7 = *(IntToPtrCastExpr&lt;ptr&gt;((v4 + 32)))</text>
<text text-anchor="start" x="8" y="-211.3" font-family="Times,serif" font-size="14.00"> result = function_41e3d5(v7, v6, IntToPtrCastExpr&lt;ptr&gt;(v5), NULL, v1)</text>
</g>
<!-- Node0x9f75f820&#45;&gt;Node0x9f760fd0 -->
<g id="edge3" class="edge"><title>Node0x9f75f820&#45;&gt;Node0x9f760fd0</title>
<path fill="none" stroke="black" d="M412.923,-338.253C393.946,-325.696 367.836,-308.42 343.338,-292.21"/>
<polygon fill="black" stroke="black" points="345.026,-289.13 334.755,-286.531 341.163,-294.968 345.026,-289.13"/>
<text text-anchor="middle" x="410" y="-308.8" font-family="Times,serif" font-size="14.00">g5 != 0</text>
</g>
<!-- Node0x9f7610e0 -->
<g id="node5" class="node"><title>Node0x9f7610e0</title>
<polygon fill="none" stroke="black" points="565,-227 565,-263 654,-263 654,-227 565,-227"/>
<text text-anchor="start" x="573" y="-241.3" font-family="Times,serif" font-size="14.00">result = 0</text>
</g>
<!-- Node0x9f75f820&#45;&gt;Node0x9f7610e0 -->
<g id="edge4" class="edge"><title>Node0x9f75f820&#45;&gt;Node0x9f7610e0</title>
<path fill="none" stroke="black" d="M472.894,-338.469C496.519,-324.99 529.066,-305.733 556.5,-287 564.472,-281.556 572.845,-275.333 580.521,-269.409"/>
<polygon fill="black" stroke="black" points="582.805,-272.066 588.525,-263.148 578.492,-266.552 582.805,-272.066"/>
<text text-anchor="middle" x="559" y="-308.8" font-family="Times,serif" font-size="14.00">g5 == 0</text>
</g>
<!-- Node0x9f760f70 -->
<g id="node6" class="node"><title>Node0x9f760f70</title>
<polygon fill="none" stroke="black" points="177,-97.5 177,-165.5 782,-165.5 782,-97.5 177,-97.5"/>
<text text-anchor="start" x="185" y="-150.3" font-family="Times,serif" font-size="14.00">0x41e447:</text>
<text text-anchor="start" x="185" y="-135.3" font-family="Times,serif" font-size="14.00"> *(IntToPtrCastExpr&lt;ptr&gt;((result + 44))) = *(IntToPtrCastExpr&lt;ptr&gt;((g9 + 44)))</text>
<text text-anchor="start" x="185" y="-120.3" font-family="Times,serif" font-size="14.00"> __EH_epilog3()</text>
<text text-anchor="start" x="185" y="-105.3" font-family="Times,serif" font-size="14.00"> return result</text>
</g>
<!-- Node0x9f760fd0&#45;&gt;Node0x9f760f70 -->
<g id="edge5" class="edge"><title>Node0x9f760fd0&#45;&gt;Node0x9f760f70</title>
<path fill="none" stroke="black" d="M348.453,-203.431C368.406,-192.631 389.878,-181.009 409.551,-170.361"/>
<polygon fill="black" stroke="black" points="411.323,-173.382 418.451,-165.543 407.991,-167.226 411.323,-173.382"/>
</g>
<!-- Node0x9f7610e0&#45;&gt;Node0x9f760f70 -->
<g id="edge6" class="edge"><title>Node0x9f7610e0&#45;&gt;Node0x9f760f70</title>
<path fill="none" stroke="black" d="M589.472,-226.822C572.599,-212.351 547.796,-191.077 526.014,-172.394"/>
<polygon fill="black" stroke="black" points="528.015,-169.5 518.145,-165.646 523.457,-174.813 528.015,-169.5"/>
</g>
<!-- Node0x9f760af0 -->
<g id="node7" class="node"><title>Node0x9f760af0</title>
<polygon fill="none" stroke="black" points="452.5,-23.5 452.5,-59.5 506.5,-59.5 506.5,-23.5 452.5,-23.5"/>
<text text-anchor="start" x="460.5" y="-37.8" font-family="Times,serif" font-size="14.00">exit:</text>
</g>
<!-- Node0x9f760f70&#45;&gt;Node0x9f760af0 -->
<g id="edge7" class="edge"><title>Node0x9f760f70&#45;&gt;Node0x9f760af0</title>
<path fill="none" stroke="black" d="M479.5,-97.4817C479.5,-88.3281 479.5,-78.4972 479.5,-69.7155"/>
<polygon fill="black" stroke="black" points="483,-69.6402 479.5,-59.6402 476,-69.6403 483,-69.6402"/>
</g>
</g>
</svg>
