<?xml version="1.0" encoding="UTF-8" standalone="no"?>
<!DOCTYPE svg PUBLIC "-//W3C//DTD SVG 1.1//EN"
 "http://www.w3.org/Graphics/SVG/1.1/DTD/svg11.dtd">
<!-- Generated by graphviz version 2.38.0 (20140413.2041)
 -->
<!-- Title: Control&#45;flow graph for function &#39;function_4134df()&#39;. Pages: 1 -->
<svg width="1366pt" height="3569pt"
 viewBox="0.00 0.00 1365.63 3569.00" xmlns="http://www.w3.org/2000/svg" xmlns:xlink="http://www.w3.org/1999/xlink">
<g id="graph0" class="graph" transform="scale(1 1) rotate(0) translate(4 3565)">
<title>Control&#45;flow graph for function &#39;function_4134df()&#39;.</title>
<polygon fill="white" stroke="none" points="-4,4 -4,-3565 1361.63,-3565 1361.63,4 -4,4"/>
<text text-anchor="middle" x="678.817" y="-7.8" font-family="Times,serif" font-size="14.00">Control&#45;flow graph for function &#39;function_4134df()&#39;.</text>
<!-- Node0x9dd8cc40 -->
<g id="node1" class="node"><title>Node0x9dd8cc40</title>
<polygon fill="none" stroke="black" points="648.134,-3524.5 648.134,-3560.5 707.134,-3560.5 707.134,-3524.5 648.134,-3524.5"/>
<text text-anchor="start" x="656.134" y="-3538.8" font-family="Times,serif" font-size="14.00">entry:</text>
</g>
<!-- Node0x5f3772d0 -->
<g id="node2" class="node"><title>Node0x5f3772d0</title>
<polygon fill="none" stroke="black" points="413.634,-3148.5 413.634,-3486.5 941.634,-3486.5 941.634,-3148.5 413.634,-3148.5"/>
<text text-anchor="start" x="421.634" y="-3471.3" font-family="Times,serif" font-size="14.00">g2 = 4420196</text>
<text text-anchor="start" x="421.634" y="-3456.3" font-family="Times,serif" font-size="14.00"> __EH_prolog3_catch()</text>
<text text-anchor="start" x="421.634" y="-3441.3" font-family="Times,serif" font-size="14.00"> v1 = g5</text>
<text text-anchor="start" x="421.634" y="-3426.3" font-family="Times,serif" font-size="14.00"> g9 = v1</text>
<text text-anchor="start" x="421.634" y="-3411.3" font-family="Times,serif" font-size="14.00"> *(IntToPtrCastExpr&lt;ptr&gt;((g3 &#45; 24))) = v1</text>
<text text-anchor="start" x="421.634" y="-3396.3" font-family="Times,serif" font-size="14.00"> v2 = g3</text>
<text text-anchor="start" x="421.634" y="-3381.3" font-family="Times,serif" font-size="14.00"> v3 = *(IntToPtrCastExpr&lt;ptr&gt;((v2 + 12)))</text>
<text text-anchor="start" x="421.634" y="-3366.3" font-family="Times,serif" font-size="14.00"> g5 = *(IntToPtrCastExpr&lt;ptr&gt;((g9 + 32)))</text>
<text text-anchor="start" x="421.634" y="-3351.3" font-family="Times,serif" font-size="14.00"> v4 = *(IntToPtrCastExpr&lt;ptr&gt;((v2 + 36)))</text>
<text text-anchor="start" x="421.634" y="-3336.3" font-family="Times,serif" font-size="14.00"> v5 = (v2 &#45; 20)</text>
<text text-anchor="start" x="421.634" y="-3321.3" font-family="Times,serif" font-size="14.00"> g8 = v5</text>
<text text-anchor="start" x="421.634" y="-3306.3" font-family="Times,serif" font-size="14.00"> g1 = False</text>
<text text-anchor="start" x="421.634" y="-3291.3" font-family="Times,serif" font-size="14.00"> g180 = True</text>
<text text-anchor="start" x="421.634" y="-3276.3" font-family="Times,serif" font-size="14.00"> g4 = 0</text>
<text text-anchor="start" x="421.634" y="-3261.3" font-family="Times,serif" font-size="14.00"> *(IntToPtrCastExpr&lt;ptr&gt;(v5)) = 0</text>
<text text-anchor="start" x="421.634" y="-3246.3" font-family="Times,serif" font-size="14.00"> g2 = *(IntToPtrCastExpr&lt;ptr&gt;(g5))</text>
<text text-anchor="start" x="421.634" y="-3231.3" font-family="Times,serif" font-size="14.00"> v6 = IntToPtrCastExpr&lt;ptr&gt;(g9)</text>
<text text-anchor="start" x="421.634" y="-3216.3" font-family="Times,serif" font-size="14.00"> g10 = PtrToIntCastExpr&lt;int32&gt;(&amp;(v6))</text>
<text text-anchor="start" x="421.634" y="-3201.3" font-family="Times,serif" font-size="14.00"> *(IntToPtrCastExpr&lt;ptr&gt;((g3 &#45; 4))) = g4</text>
<text text-anchor="start" x="421.634" y="-3186.3" font-family="Times,serif" font-size="14.00"> v7 = *(IntToPtrCastExpr&lt;ptr&gt;((g2 + 296)))</text>
<text text-anchor="start" x="421.634" y="-3171.3" font-family="Times,serif" font-size="14.00"> IntToPtrCastExpr&lt;ptr&gt;(v7)(PtrToIntCastExpr&lt;int32&gt;(v6), v5, v4, v3)</text>
<text text-anchor="start" x="421.634" y="-3156.3" font-family="Times,serif" font-size="14.00"> v8 = g4</text>
</g>
<!-- Node0x9dd8cc40&#45;&gt;Node0x5f3772d0 -->
<g id="edge1" class="edge"><title>Node0x9dd8cc40&#45;&gt;Node0x5f3772d0</title>
<path fill="none" stroke="black" d="M677.634,-3524.37C677.634,-3517.03 677.634,-3507.69 677.634,-3497.05"/>
<polygon fill="black" stroke="black" points="681.134,-3496.93 677.634,-3486.93 674.134,-3496.93 681.134,-3496.93"/>
</g>
<!-- Node0x5f378d00 -->
<g id="node3" class="node"><title>Node0x5f378d00</title>
<polygon fill="none" stroke="black" points="623.634,-3074.5 623.634,-3110.5 731.634,-3110.5 731.634,-3074.5 623.634,-3074.5"/>
<text text-anchor="start" x="631.634" y="-3088.8" font-family="Times,serif" font-size="14.00">if (g2 != v8):</text>
</g>
<!-- Node0x5f3772d0&#45;&gt;Node0x5f378d00 -->
<g id="edge2" class="edge"><title>Node0x5f3772d0&#45;&gt;Node0x5f378d00</title>
<path fill="none" stroke="black" d="M677.634,-3148.34C677.634,-3138.29 677.634,-3129.08 677.634,-3121.19"/>
<polygon fill="black" stroke="black" points="681.134,-3120.97 677.634,-3110.97 674.134,-3120.97 681.134,-3120.97"/>
</g>
<!-- Node0x5f376a70 -->
<g id="node4" class="node"><title>Node0x5f376a70</title>
<polygon fill="none" stroke="black" points="243.634,-2984.5 243.634,-3022.5 605.634,-3022.5 605.634,-2984.5 243.634,-2984.5"/>
<text text-anchor="start" x="251.634" y="-3007.3" font-family="Times,serif" font-size="14.00">0x413512:</text>
<text text-anchor="start" x="251.634" y="-2992.3" font-family="Times,serif" font-size="14.00"> if (*(IntToPtrCastExpr&lt;ptr&gt;((g3 &#45; 20))) == v8):</text>
</g>
<!-- Node0x5f378d00&#45;&gt;Node0x5f376a70 -->
<g id="edge3" class="edge"><title>Node0x5f378d00&#45;&gt;Node0x5f376a70</title>
<path fill="none" stroke="black" d="M627.951,-3074.42C587.547,-3060.52 530.316,-3040.84 486.863,-3025.9"/>
<polygon fill="black" stroke="black" points="487.849,-3022.54 477.254,-3022.59 485.572,-3029.16 487.849,-3022.54"/>
<text text-anchor="middle" x="606.134" y="-3044.8" font-family="Times,serif" font-size="14.00">g2 != v8</text>
</g>
<!-- Node0x5f375d50 -->
<g id="node5" class="node"><title>Node0x5f375d50</title>
<polygon fill="none" stroke="black" points="224.634,-2368.5 224.634,-2466.5 562.634,-2466.5 562.634,-2368.5 224.634,-2368.5"/>
<text text-anchor="start" x="232.634" y="-2451.3" font-family="Times,serif" font-size="14.00">0x413543:</text>
<text text-anchor="start" x="232.634" y="-2436.3" font-family="Times,serif" font-size="14.00"> *(IntToPtrCastExpr&lt;ptr&gt;((g3 &#45; 4))) = &#45;1</text>
<text text-anchor="start" x="232.634" y="-2421.3" font-family="Times,serif" font-size="14.00"> v17 = g3</text>
<text text-anchor="start" x="232.634" y="-2406.3" font-family="Times,serif" font-size="14.00"> v18 = *(IntToPtrCastExpr&lt;ptr&gt;((v17 &#45; 20)))</text>
<text text-anchor="start" x="232.634" y="-2391.3" font-family="Times,serif" font-size="14.00"> g5 = v18</text>
<text text-anchor="start" x="232.634" y="-2376.3" font-family="Times,serif" font-size="14.00"> v19</text>
</g>
<!-- Node0x5f378d00&#45;&gt;Node0x5f375d50 -->
<g id="edge4" class="edge"><title>Node0x5f378d00&#45;&gt;Node0x5f375d50</title>
<path fill="none" stroke="black" d="M725.004,-3074.42C754.023,-3060.58 785.634,-3037.85 785.634,-3004.5 785.634,-3004.5 785.634,-3004.5 785.634,-2582.5 785.634,-2546.6 792.17,-2529.23 766.634,-2504 738.164,-2475.87 653.879,-2455.28 572.62,-2441.37"/>
<polygon fill="black" stroke="black" points="573.171,-2437.91 562.729,-2439.7 572.01,-2444.81 573.171,-2437.91"/>
<text text-anchor="middle" x="820.134" y="-2804.8" font-family="Times,serif" font-size="14.00">g2 == v8</text>
</g>
<!-- Node0x5f376a70&#45;&gt;Node0x5f375d50 -->
<g id="edge6" class="edge"><title>Node0x5f376a70&#45;&gt;Node0x5f375d50</title>
<path fill="none" stroke="black" d="M243.403,-2990.88C128.594,-2978.34 1.63403,-2952.5 1.63403,-2899.5 1.63403,-2899.5 1.63403,-2899.5 1.63403,-2582.5 1.63403,-2546.6 -4.9021,-2529.23 20.634,-2504 49.1041,-2475.87 133.389,-2455.28 214.648,-2441.37"/>
<polygon fill="black" stroke="black" points="215.258,-2444.81 224.539,-2439.7 214.097,-2437.91 215.258,-2444.81"/>
<text text-anchor="middle" x="155.134" y="-2760.8" font-family="Times,serif" font-size="14.00">*(IntToPtrCastExpr&lt;ptr&gt;((g3 &#45; 20))) != v8</text>
</g>
<!-- Node0x9dd8ce80 -->
<g id="node6" class="node"><title>Node0x9dd8ce80</title>
<polygon fill="none" stroke="black" points="206.134,-2864.5 206.134,-2932.5 643.134,-2932.5 643.134,-2864.5 206.134,-2864.5"/>
<text text-anchor="start" x="214.134" y="-2917.3" font-family="Times,serif" font-size="14.00">v9 = *(IntToPtrCastExpr&lt;ptr&gt;((function_41022a() + 60)))</text>
<text text-anchor="start" x="214.134" y="-2902.3" font-family="Times,serif" font-size="14.00"> v10 = g4</text>
<text text-anchor="start" x="214.134" y="-2887.3" font-family="Times,serif" font-size="14.00"> v11 = (v9 != v10)</text>
<text text-anchor="start" x="214.134" y="-2872.3" font-family="Times,serif" font-size="14.00"> g2 = v11</text>
</g>
<!-- Node0x5f376a70&#45;&gt;Node0x9dd8ce80 -->
<g id="edge5" class="edge"><title>Node0x5f376a70&#45;&gt;Node0x9dd8ce80</title>
<path fill="none" stroke="black" d="M424.634,-2984.09C424.634,-2972.63 424.634,-2957.39 424.634,-2943"/>
<polygon fill="black" stroke="black" points="428.134,-2942.74 424.634,-2932.74 421.134,-2942.74 428.134,-2942.74"/>
<text text-anchor="middle" x="581.134" y="-2954.8" font-family="Times,serif" font-size="14.00">*(IntToPtrCastExpr&lt;ptr&gt;((g3 &#45; 20))) == v8</text>
</g>
<!-- Node0x27b02de0 -->
<g id="node7" class="node"><title>Node0x27b02de0</title>
<polygon fill="none" stroke="black" points="332.134,-2292.5 332.134,-2330.5 455.134,-2330.5 455.134,-2292.5 332.134,-2292.5"/>
<text text-anchor="start" x="340.134" y="-2315.3" font-family="Times,serif" font-size="14.00">if (v18 == g4):</text>
<text text-anchor="start" x="340.134" y="-2300.3" font-family="Times,serif" font-size="14.00"> else:</text>
</g>
<!-- Node0x5f375d50&#45;&gt;Node0x27b02de0 -->
<g id="edge7" class="edge"><title>Node0x5f375d50&#45;&gt;Node0x27b02de0</title>
<path fill="none" stroke="black" d="M393.634,-2368.46C393.634,-2358.95 393.634,-2349.27 393.634,-2340.69"/>
<polygon fill="black" stroke="black" points="397.134,-2340.51 393.634,-2330.51 390.134,-2340.51 397.134,-2340.51"/>
</g>
<!-- Node0x5f37b800 -->
<g id="node8" class="node"><title>Node0x5f37b800</title>
<polygon fill="none" stroke="black" points="359.134,-2790.5 359.134,-2826.5 490.134,-2826.5 490.134,-2790.5 359.134,-2790.5"/>
<text text-anchor="start" x="367.134" y="-2804.8" font-family="Times,serif" font-size="14.00">if (v11 == v10):</text>
</g>
<!-- Node0x9dd8ce80&#45;&gt;Node0x5f37b800 -->
<g id="edge8" class="edge"><title>Node0x9dd8ce80&#45;&gt;Node0x5f37b800</title>
<path fill="none" stroke="black" d="M424.634,-2864.48C424.634,-2855.33 424.634,-2845.5 424.634,-2836.72"/>
<polygon fill="black" stroke="black" points="428.134,-2836.64 424.634,-2826.64 421.134,-2836.64 428.134,-2836.64"/>
</g>
<!-- Node0x5f375050 -->
<g id="node9" class="node"><title>Node0x5f375050</title>
<polygon fill="none" stroke="black" points="254.634,-2085.5 254.634,-2123.5 346.634,-2123.5 346.634,-2085.5 254.634,-2085.5"/>
<text text-anchor="start" x="262.634" y="-2108.3" font-family="Times,serif" font-size="14.00">0x413567:</text>
<text text-anchor="start" x="262.634" y="-2093.3" font-family="Times,serif" font-size="14.00"> v19 = 0</text>
</g>
<!-- Node0x27b02de0&#45;&gt;Node0x5f375050 -->
<g id="edge9" class="edge"><title>Node0x27b02de0&#45;&gt;Node0x5f375050</title>
<path fill="none" stroke="black" d="M375.87,-2292.14C371.138,-2286.61 366.322,-2280.32 362.634,-2274 335.72,-2227.89 317.066,-2168.05 307.668,-2133.5"/>
<polygon fill="black" stroke="black" points="310.997,-2132.4 305.049,-2123.63 304.231,-2134.19 310.997,-2132.4"/>
<text text-anchor="middle" x="401.634" y="-2262.8" font-family="Times,serif" font-size="14.00">v18 == g4</text>
</g>
<!-- Node0x5f377720 -->
<g id="node10" class="node"><title>Node0x5f377720</title>
<polygon fill="none" stroke="black" points="378.134,-2142.5 378.134,-2240.5 719.134,-2240.5 719.134,-2142.5 378.134,-2142.5"/>
<text text-anchor="start" x="386.134" y="-2225.3" font-family="Times,serif" font-size="14.00">v20 = *(IntToPtrCastExpr&lt;ptr&gt;((v17 + 16)))</text>
<text text-anchor="start" x="386.134" y="-2210.3" font-family="Times,serif" font-size="14.00"> g2 = v20</text>
<text text-anchor="start" x="386.134" y="-2195.3" font-family="Times,serif" font-size="14.00"> v21 = *(IntToPtrCastExpr&lt;ptr&gt;(v20))</text>
<text text-anchor="start" x="386.134" y="-2180.3" font-family="Times,serif" font-size="14.00"> g1 = (v21 &lt; 2)</text>
<text text-anchor="start" x="386.134" y="-2165.3" font-family="Times,serif" font-size="14.00"> g180 = (v21 == 2)</text>
<text text-anchor="start" x="386.134" y="-2150.3" font-family="Times,serif" font-size="14.00"> v22</text>
</g>
<!-- Node0x27b02de0&#45;&gt;Node0x5f377720 -->
<g id="edge10" class="edge"><title>Node0x27b02de0&#45;&gt;Node0x5f377720</title>
<path fill="none" stroke="black" d="M417.513,-2292.32C433.627,-2280.05 455.808,-2263.17 477.344,-2246.77"/>
<polygon fill="black" stroke="black" points="479.716,-2249.37 485.553,-2240.52 475.476,-2243.8 479.716,-2249.37"/>
<text text-anchor="middle" x="493.634" y="-2262.8" font-family="Times,serif" font-size="14.00">v18 != g4</text>
</g>
<!-- Node0x9dd8f020 -->
<g id="node11" class="node"><title>Node0x9dd8f020</title>
<polygon fill="none" stroke="black" points="270.634,-2700.5 270.634,-2738.5 438.634,-2738.5 438.634,-2700.5 270.634,-2700.5"/>
<text text-anchor="start" x="278.634" y="-2723.3" font-family="Times,serif" font-size="14.00">0x41352a:</text>
<text text-anchor="start" x="278.634" y="-2708.3" font-family="Times,serif" font-size="14.00"> function_40ede0(v6)</text>
</g>
<!-- Node0x5f37b800&#45;&gt;Node0x9dd8f020 -->
<g id="edge11" class="edge"><title>Node0x5f37b800&#45;&gt;Node0x9dd8f020</title>
<path fill="none" stroke="black" d="M394.434,-2790.32C387.23,-2785.15 380.065,-2778.97 374.634,-2772 369.269,-2765.11 365.192,-2756.62 362.164,-2748.52"/>
<polygon fill="black" stroke="black" points="365.465,-2747.36 358.975,-2738.99 358.827,-2749.58 365.465,-2747.36"/>
<text text-anchor="middle" x="417.634" y="-2760.8" font-family="Times,serif" font-size="14.00">v11 == v10</text>
</g>
<!-- Node0x9dd8d3f0 -->
<g id="node12" class="node"><title>Node0x9dd8d3f0</title>
<polygon fill="none" stroke="black" points="29.634,-2504.5 29.634,-2662.5 757.634,-2662.5 757.634,-2504.5 29.634,-2504.5"/>
<text text-anchor="start" x="37.634" y="-2647.3" font-family="Times,serif" font-size="14.00">v12 = *(IntToPtrCastExpr&lt;ptr&gt;((function_41022a() + 60)))</text>
<text text-anchor="start" x="37.634" y="-2632.3" font-family="Times,serif" font-size="14.00"> g5 = v12</text>
<text text-anchor="start" x="37.634" y="-2617.3" font-family="Times,serif" font-size="14.00"> v13 = *(IntToPtrCastExpr&lt;ptr&gt;(v12))</text>
<text text-anchor="start" x="37.634" y="-2602.3" font-family="Times,serif" font-size="14.00"> g2 = v13</text>
<text text-anchor="start" x="37.634" y="-2587.3" font-family="Times,serif" font-size="14.00"> v14 = IntToPtrCastExpr&lt;ptr&gt;(g9)</text>
<text text-anchor="start" x="37.634" y="-2572.3" font-family="Times,serif" font-size="14.00"> v15 = v14</text>
<text text-anchor="start" x="37.634" y="-2557.3" font-family="Times,serif" font-size="14.00"> g10 = PtrToIntCastExpr&lt;int32&gt;(&amp;(v15))</text>
<text text-anchor="start" x="37.634" y="-2542.3" font-family="Times,serif" font-size="14.00"> v16 = *(IntToPtrCastExpr&lt;ptr&gt;((v13 + 12)))</text>
<text text-anchor="start" x="37.634" y="-2527.3" font-family="Times,serif" font-size="14.00"> IntToPtrCastExpr&lt;ptr&gt;(v16)(ExtCastExpr&lt;int32&gt;(*(v14)), *(IntToPtrCastExpr&lt;ptr&gt;((g3 + 16))))</text>
<text text-anchor="start" x="37.634" y="-2512.3" font-family="Times,serif" font-size="14.00"> *(IntToPtrCastExpr&lt;ptr&gt;((g3 &#45; 20))) = g2</text>
</g>
<!-- Node0x5f37b800&#45;&gt;Node0x9dd8d3f0 -->
<g id="edge12" class="edge"><title>Node0x5f37b800&#45;&gt;Node0x9dd8d3f0</title>
<path fill="none" stroke="black" d="M447.696,-2790.17C452.935,-2784.96 457.789,-2778.8 460.634,-2772 463.207,-2765.85 461.38,-2763.62 460.634,-2757 457.403,-2728.3 448.178,-2698.48 437.568,-2671.87"/>
<polygon fill="black" stroke="black" points="440.799,-2670.53 433.765,-2662.6 434.322,-2673.18 440.799,-2670.53"/>
<text text-anchor="middle" x="498.634" y="-2715.8" font-family="Times,serif" font-size="14.00">v11 != v10</text>
</g>
<!-- Node0x5f37b980 -->
<g id="node13" class="node"><title>Node0x5f37b980</title>
<polygon fill="none" stroke="black" points="371.634,-97.5 371.634,-150.5 501.634,-150.5 501.634,-97.5 371.634,-97.5"/>
<text text-anchor="start" x="379.634" y="-135.3" font-family="Times,serif" font-size="14.00">0x413618:</text>
<text text-anchor="start" x="379.634" y="-120.3" font-family="Times,serif" font-size="14.00"> g2 = v19</text>
<text text-anchor="start" x="379.634" y="-105.3" font-family="Times,serif" font-size="14.00"> __EH_epilog3()</text>
</g>
<!-- Node0x5f375050&#45;&gt;Node0x5f37b980 -->
<g id="edge13" class="edge"><title>Node0x5f375050&#45;&gt;Node0x5f37b980</title>
<path fill="none" stroke="black" d="M299.188,-2085.45C297.711,-2065.43 295.634,-2032.18 295.634,-2003.5 295.634,-2003.5 295.634,-2003.5 295.634,-206.5 295.634,-171.739 328.153,-151.569 361.957,-139.993"/>
<polygon fill="black" stroke="black" points="363.035,-143.322 371.5,-136.95 360.909,-136.653 363.035,-143.322"/>
</g>
<!-- Node0x5f37a130 -->
<g id="node14" class="node"><title>Node0x5f37a130</title>
<polygon fill="none" stroke="black" points="524.634,-2028.5 524.634,-2066.5 638.634,-2066.5 638.634,-2028.5 524.634,-2028.5"/>
<text text-anchor="start" x="532.634" y="-2051.3" font-family="Times,serif" font-size="14.00">if (v21 == 2):</text>
<text text-anchor="start" x="532.634" y="-2036.3" font-family="Times,serif" font-size="14.00"> else:</text>
</g>
<!-- Node0x5f377720&#45;&gt;Node0x5f37a130 -->
<g id="edge14" class="edge"><title>Node0x5f377720&#45;&gt;Node0x5f37a130</title>
<path fill="none" stroke="black" d="M559.806,-2142.43C564.894,-2120.53 570.739,-2095.38 575.1,-2076.62"/>
<polygon fill="black" stroke="black" points="578.562,-2077.18 577.417,-2066.65 571.744,-2075.59 578.562,-2077.18"/>
</g>
<!-- Node0x9dd8f020&#45;&gt;Node0x9dd8d3f0 -->
<g id="edge15" class="edge"><title>Node0x9dd8f020&#45;&gt;Node0x9dd8d3f0</title>
<path fill="none" stroke="black" d="M359.894,-2700.43C362.154,-2692.66 364.976,-2682.97 368.019,-2672.51"/>
<polygon fill="black" stroke="black" points="371.432,-2673.31 370.866,-2662.73 364.71,-2671.35 371.432,-2673.31"/>
</g>
<!-- Node0x9dd8d3f0&#45;&gt;Node0x5f375d50 -->
<g id="edge16" class="edge"><title>Node0x9dd8d3f0&#45;&gt;Node0x5f375d50</title>
<path fill="none" stroke="black" d="M393.634,-2504.34C393.634,-2495.09 393.634,-2485.78 393.634,-2476.87"/>
<polygon fill="black" stroke="black" points="397.134,-2476.62 393.634,-2466.62 390.134,-2476.62 397.134,-2476.62"/>
</g>
<!-- Node0x5f378540 -->
<g id="node15" class="node"><title>Node0x5f378540</title>
<polygon fill="none" stroke="black" points="409.634,-23.5 409.634,-59.5 463.634,-59.5 463.634,-23.5 409.634,-23.5"/>
<text text-anchor="start" x="417.634" y="-37.8" font-family="Times,serif" font-size="14.00">exit:</text>
</g>
<!-- Node0x5f37b980&#45;&gt;Node0x5f378540 -->
<g id="edge17" class="edge"><title>Node0x5f37b980&#45;&gt;Node0x5f378540</title>
<path fill="none" stroke="black" d="M436.634,-97.0862C436.634,-88.4596 436.634,-78.8224 436.634,-70.0748"/>
<polygon fill="black" stroke="black" points="440.134,-69.9735 436.634,-59.9735 433.134,-69.9735 440.134,-69.9735"/>
</g>
<!-- Node0x9dd8d950 -->
<g id="node16" class="node"><title>Node0x9dd8d950</title>
<polygon fill="none" stroke="black" points="324.134,-1743.5 324.134,-1976.5 839.134,-1976.5 839.134,-1743.5 324.134,-1743.5"/>
<text text-anchor="start" x="332.134" y="-1961.3" font-family="Times,serif" font-size="14.00">v23 = *(IntToPtrCastExpr&lt;ptr&gt;(v18))</text>
<text text-anchor="start" x="332.134" y="-1946.3" font-family="Times,serif" font-size="14.00"> g2 = v23</text>
<text text-anchor="start" x="332.134" y="-1931.3" font-family="Times,serif" font-size="14.00"> v24 = *(IntToPtrCastExpr&lt;ptr&gt;((v17 + 40)))</text>
<text text-anchor="start" x="332.134" y="-1916.3" font-family="Times,serif" font-size="14.00"> v25 = *(IntToPtrCastExpr&lt;ptr&gt;((v17 + 36)))</text>
<text text-anchor="start" x="332.134" y="-1901.3" font-family="Times,serif" font-size="14.00"> v26 = *(IntToPtrCastExpr&lt;ptr&gt;((v17 + 32)))</text>
<text text-anchor="start" x="332.134" y="-1886.3" font-family="Times,serif" font-size="14.00"> v27 = *(IntToPtrCastExpr&lt;ptr&gt;((v17 + 28)))</text>
<text text-anchor="start" x="332.134" y="-1871.3" font-family="Times,serif" font-size="14.00"> v22 = v27</text>
<text text-anchor="start" x="332.134" y="-1856.3" font-family="Times,serif" font-size="14.00"> v28 = *(IntToPtrCastExpr&lt;ptr&gt;((v17 + 24)))</text>
<text text-anchor="start" x="332.134" y="-1841.3" font-family="Times,serif" font-size="14.00"> v29 = *(IntToPtrCastExpr&lt;ptr&gt;((v17 + 20)))</text>
<text text-anchor="start" x="332.134" y="-1826.3" font-family="Times,serif" font-size="14.00"> v30 = *(IntToPtrCastExpr&lt;ptr&gt;((v17 + 12)))</text>
<text text-anchor="start" x="332.134" y="-1811.3" font-family="Times,serif" font-size="14.00"> v31 = *(IntToPtrCastExpr&lt;ptr&gt;((v17 + 8)))</text>
<text text-anchor="start" x="332.134" y="-1796.3" font-family="Times,serif" font-size="14.00"> v32 = v31</text>
<text text-anchor="start" x="332.134" y="-1781.3" font-family="Times,serif" font-size="14.00"> g10 = &amp;(v32)</text>
<text text-anchor="start" x="332.134" y="-1766.3" font-family="Times,serif" font-size="14.00"> v33 = *(IntToPtrCastExpr&lt;ptr&gt;((v23 + 80)))</text>
<text text-anchor="start" x="332.134" y="-1751.3" font-family="Times,serif" font-size="14.00"> IntToPtrCastExpr&lt;ptr&gt;(v33)(v31, v30, v29, v28, v27, v26, v25, v24)</text>
</g>
<!-- Node0x5f37a130&#45;&gt;Node0x9dd8d950 -->
<g id="edge18" class="edge"><title>Node0x5f37a130&#45;&gt;Node0x9dd8d950</title>
<path fill="none" stroke="black" d="M581.634,-2028.38C581.634,-2017.66 581.634,-2003.03 581.634,-1986.86"/>
<polygon fill="black" stroke="black" points="585.134,-1986.61 581.634,-1976.61 578.134,-1986.61 585.134,-1986.61"/>
<text text-anchor="middle" x="616.134" y="-1998.8" font-family="Times,serif" font-size="14.00">v21 == 2</text>
</g>
<!-- Node0x9dd8dd90 -->
<g id="node17" class="node"><title>Node0x9dd8dd90</title>
<polygon fill="none" stroke="black" points="857.134,-1826 857.134,-1894 1194.13,-1894 1194.13,-1826 857.134,-1826"/>
<text text-anchor="start" x="865.134" y="-1878.8" font-family="Times,serif" font-size="14.00">0x413576:</text>
<text text-anchor="start" x="865.134" y="-1863.8" font-family="Times,serif" font-size="14.00"> v22 = *(IntToPtrCastExpr&lt;ptr&gt;((v17 + 8)))</text>
<text text-anchor="start" x="865.134" y="-1848.8" font-family="Times,serif" font-size="14.00"> g10 = &amp;(v22)</text>
<text text-anchor="start" x="865.134" y="-1833.8" font-family="Times,serif" font-size="14.00"> function_4146ec()</text>
</g>
<!-- Node0x5f37a130&#45;&gt;Node0x9dd8dd90 -->
<g id="edge19" class="edge"><title>Node0x5f37a130&#45;&gt;Node0x9dd8dd90</title>
<path fill="none" stroke="black" d="M638.645,-2037.23C693.96,-2026.96 779.451,-2007.68 848.634,-1977 894.303,-1956.75 941.394,-1925.28 975.512,-1900.23"/>
<polygon fill="black" stroke="black" points="977.951,-1902.78 983.898,-1894.01 973.781,-1897.16 977.951,-1902.78"/>
<text text-anchor="middle" x="830.134" y="-1998.8" font-family="Times,serif" font-size="14.00">v21 != 2</text>
</g>
<!-- Node0x5f37a2e0 -->
<g id="node18" class="node"><title>Node0x5f37a2e0</title>
<polygon fill="none" stroke="black" points="486.634,-1667.5 486.634,-1705.5 824.634,-1705.5 824.634,-1667.5 486.634,-1667.5"/>
<text text-anchor="start" x="494.634" y="-1690.3" font-family="Times,serif" font-size="14.00">v34 = (g2 &gt; &#45;1)</text>
<text text-anchor="start" x="494.634" y="-1675.3" font-family="Times,serif" font-size="14.00"> *(IntToPtrCastExpr&lt;ptr&gt;((g3 + 36))) = v34</text>
</g>
<!-- Node0x9dd8d950&#45;&gt;Node0x5f37a2e0 -->
<g id="edge20" class="edge"><title>Node0x9dd8d950&#45;&gt;Node0x5f37a2e0</title>
<path fill="none" stroke="black" d="M631.608,-1743.18C636.038,-1732.92 640.183,-1723.31 643.742,-1715.06"/>
<polygon fill="black" stroke="black" points="647.023,-1716.29 647.772,-1705.72 640.596,-1713.52 647.023,-1716.29"/>
</g>
<!-- Node0x9dd8dd90&#45;&gt;Node0x5f37a2e0 -->
<g id="edge21" class="edge"><title>Node0x9dd8dd90&#45;&gt;Node0x5f37a2e0</title>
<path fill="none" stroke="black" d="M983.039,-1825.8C948.452,-1800.19 897.557,-1765.44 848.634,-1743 817.187,-1728.57 781.119,-1716.99 748.739,-1708.22"/>
<polygon fill="black" stroke="black" points="749.381,-1704.77 738.817,-1705.59 747.585,-1711.53 749.381,-1704.77"/>
</g>
<!-- Node0x9dd8cca0 -->
<g id="node19" class="node"><title>Node0x9dd8cca0</title>
<polygon fill="none" stroke="black" points="594.134,-1591.5 594.134,-1629.5 717.134,-1629.5 717.134,-1591.5 594.134,-1591.5"/>
<text text-anchor="start" x="602.134" y="-1614.3" font-family="Times,serif" font-size="14.00">if (v34 == g4):</text>
<text text-anchor="start" x="602.134" y="-1599.3" font-family="Times,serif" font-size="14.00"> else:</text>
</g>
<!-- Node0x5f37a2e0&#45;&gt;Node0x9dd8cca0 -->
<g id="edge22" class="edge"><title>Node0x5f37a2e0&#45;&gt;Node0x9dd8cca0</title>
<path fill="none" stroke="black" d="M655.634,-1667.21C655.634,-1658.96 655.634,-1649.04 655.634,-1639.86"/>
<polygon fill="black" stroke="black" points="659.134,-1639.58 655.634,-1629.58 652.134,-1639.58 659.134,-1639.58"/>
</g>
<!-- Node0x5f3782d0 -->
<g id="node20" class="node"><title>Node0x5f3782d0</title>
<polygon fill="none" stroke="black" points="445.634,-1279.5 445.634,-1362.5 771.634,-1362.5 771.634,-1279.5 445.634,-1279.5"/>
<text text-anchor="start" x="453.634" y="-1347.3" font-family="Times,serif" font-size="14.00">v35 = *(IntToPtrCastExpr&lt;ptr&gt;((g3 &#45; 20)))</text>
<text text-anchor="start" x="453.634" y="-1332.3" font-family="Times,serif" font-size="14.00"> g5 = v35</text>
<text text-anchor="start" x="453.634" y="-1317.3" font-family="Times,serif" font-size="14.00"> v36 = g4</text>
<text text-anchor="start" x="453.634" y="-1302.3" font-family="Times,serif" font-size="14.00"> g1 = (v35 &lt; v36)</text>
<text text-anchor="start" x="453.634" y="-1287.3" font-family="Times,serif" font-size="14.00"> g180 = (v35 == v36)</text>
</g>
<!-- Node0x9dd8cca0&#45;&gt;Node0x5f3782d0 -->
<g id="edge23" class="edge"><title>Node0x9dd8cca0&#45;&gt;Node0x5f3782d0</title>
<path fill="none" stroke="black" d="M631.078,-1591.33C625.697,-1586.05 620.697,-1579.85 617.634,-1573 588.836,-1508.63 592.831,-1425.42 599.679,-1372.87"/>
<polygon fill="black" stroke="black" points="603.171,-1373.16 601.078,-1362.78 596.237,-1372.2 603.171,-1373.16"/>
<text text-anchor="middle" x="656.634" y="-1561.8" font-family="Times,serif" font-size="14.00">v34 == g4</text>
</g>
<!-- Node0x9dd8e0c0 -->
<g id="node21" class="node"><title>Node0x9dd8e0c0</title>
<polygon fill="none" stroke="black" points="636.634,-1381.5 636.634,-1539.5 1002.63,-1539.5 1002.63,-1381.5 636.634,-1381.5"/>
<text text-anchor="start" x="644.634" y="-1524.3" font-family="Times,serif" font-size="14.00">v39 = g10</text>
<text text-anchor="start" x="644.634" y="-1509.3" font-family="Times,serif" font-size="14.00"> *(IntToPtrCastExpr&lt;ptr&gt;((v39 &#45; 4))) = 12</text>
<text text-anchor="start" x="644.634" y="-1494.3" font-family="Times,serif" font-size="14.00"> *(IntToPtrCastExpr&lt;ptr&gt;((v39 &#45; 8))) = 4273605</text>
<text text-anchor="start" x="644.634" y="-1479.3" font-family="Times,serif" font-size="14.00"> v40</text>
<text text-anchor="start" x="644.634" y="-1464.3" font-family="Times,serif" font-size="14.00"> v41 = function_4048b3(&amp;(v40), NULL, NULL)</text>
<text text-anchor="start" x="644.634" y="-1449.3" font-family="Times,serif" font-size="14.00"> v42 = IntToPtrCastExpr&lt;ptr&gt;(v41)</text>
<text text-anchor="start" x="644.634" y="-1434.3" font-family="Times,serif" font-size="14.00"> v43 = g4</text>
<text text-anchor="start" x="644.634" y="-1419.3" font-family="Times,serif" font-size="14.00"> v44 = (g10 + 4)</text>
<text text-anchor="start" x="644.634" y="-1404.3" font-family="Times,serif" font-size="14.00"> v45</text>
<text text-anchor="start" x="644.634" y="-1389.3" font-family="Times,serif" font-size="14.00"> v46</text>
</g>
<!-- Node0x9dd8cca0&#45;&gt;Node0x9dd8e0c0 -->
<g id="edge24" class="edge"><title>Node0x9dd8cca0&#45;&gt;Node0x9dd8e0c0</title>
<path fill="none" stroke="black" d="M675.744,-1591.35C688.731,-1579.63 706.671,-1563.44 725.483,-1546.47"/>
<polygon fill="black" stroke="black" points="727.933,-1548.97 733.012,-1539.67 723.243,-1543.77 727.933,-1548.97"/>
<text text-anchor="middle" x="745.634" y="-1561.8" font-family="Times,serif" font-size="14.00">v34 != g4</text>
</g>
<!-- Node0x9dd8df60 -->
<g id="node22" class="node"><title>Node0x9dd8df60</title>
<polygon fill="none" stroke="black" points="546.134,-444.5 546.134,-480.5 671.134,-480.5 671.134,-444.5 546.134,-444.5"/>
<text text-anchor="start" x="554.134" y="-458.8" font-family="Times,serif" font-size="14.00">if (v35 != v36):</text>
</g>
<!-- Node0x5f3782d0&#45;&gt;Node0x9dd8df60 -->
<g id="edge25" class="edge"><title>Node0x5f3782d0&#45;&gt;Node0x9dd8df60</title>
<path fill="none" stroke="black" d="M608.634,-1279.45C608.634,-1255.59 608.634,-1224.83 608.634,-1197.5 608.634,-1197.5 608.634,-1197.5 608.634,-535.5 608.634,-520.705 608.634,-504.2 608.634,-490.729"/>
<polygon fill="black" stroke="black" points="612.134,-490.666 608.634,-480.666 605.134,-490.666 612.134,-490.666"/>
</g>
<!-- Node0x9dd8e1b0 -->
<g id="node23" class="node"><title>Node0x9dd8e1b0</title>
<polygon fill="none" stroke="black" points="754.134,-1222.5 754.134,-1260.5 885.134,-1260.5 885.134,-1222.5 754.134,-1222.5"/>
<text text-anchor="start" x="762.134" y="-1245.3" font-family="Times,serif" font-size="14.00">if (v41 == v43):</text>
<text text-anchor="start" x="762.134" y="-1230.3" font-family="Times,serif" font-size="14.00"> else:</text>
</g>
<!-- Node0x9dd8e0c0&#45;&gt;Node0x9dd8e1b0 -->
<g id="edge26" class="edge"><title>Node0x9dd8e0c0&#45;&gt;Node0x9dd8e1b0</title>
<path fill="none" stroke="black" d="M819.634,-1381.46C819.634,-1343.06 819.634,-1299.12 819.634,-1271.11"/>
<polygon fill="black" stroke="black" points="823.134,-1270.85 819.634,-1260.85 816.134,-1270.85 823.134,-1270.85"/>
</g>
<!-- Node0x9dd8f190 -->
<g id="node24" class="node"><title>Node0x9dd8f190</title>
<polygon fill="none" stroke="black" points="323.634,-264.5 323.634,-392.5 799.634,-392.5 799.634,-264.5 323.634,-264.5"/>
<text text-anchor="start" x="331.634" y="-377.3" font-family="Times,serif" font-size="14.00">0x41360e:</text>
<text text-anchor="start" x="331.634" y="-362.3" font-family="Times,serif" font-size="14.00"> g2 = *(IntToPtrCastExpr&lt;ptr&gt;(v35))</text>
<text text-anchor="start" x="331.634" y="-347.3" font-family="Times,serif" font-size="14.00"> v37 = g10</text>
<text text-anchor="start" x="331.634" y="-332.3" font-family="Times,serif" font-size="14.00"> v38 = (v37 &#45; 4)</text>
<text text-anchor="start" x="331.634" y="-317.3" font-family="Times,serif" font-size="14.00"> *(IntToPtrCastExpr&lt;ptr&gt;(v38)) = 1</text>
<text text-anchor="start" x="331.634" y="-302.3" font-family="Times,serif" font-size="14.00"> g10 = v38</text>
<text text-anchor="start" x="331.634" y="-287.3" font-family="Times,serif" font-size="14.00"> *(IntToPtrCastExpr&lt;ptr&gt;((v37 &#45; 8))) = 4273685</text>
<text text-anchor="start" x="331.634" y="-272.3" font-family="Times,serif" font-size="14.00"> IntToPtrCastExpr&lt;ptr&gt;(*(IntToPtrCastExpr&lt;ptr&gt;((g2 + 4))))()</text>
</g>
<!-- Node0x9dd8df60&#45;&gt;Node0x9dd8f190 -->
<g id="edge27" class="edge"><title>Node0x9dd8df60&#45;&gt;Node0x9dd8f190</title>
<path fill="none" stroke="black" d="M602.49,-444.243C598.554,-433.19 593.151,-418.015 587.562,-402.32"/>
<polygon fill="black" stroke="black" points="590.722,-400.76 584.07,-392.513 584.128,-403.108 590.722,-400.76"/>
<text text-anchor="middle" x="635.634" y="-414.8" font-family="Times,serif" font-size="14.00">v35 != v36</text>
</g>
<!-- Node0x9dd8cdc0 -->
<g id="node25" class="node"><title>Node0x9dd8cdc0</title>
<polygon fill="none" stroke="black" points="666.634,-188.5 666.634,-226.5 1004.63,-226.5 1004.63,-188.5 666.634,-188.5"/>
<text text-anchor="start" x="674.634" y="-211.3" font-family="Times,serif" font-size="14.00">0x413615:</text>
<text text-anchor="start" x="674.634" y="-196.3" font-family="Times,serif" font-size="14.00"> v19 = *(IntToPtrCastExpr&lt;ptr&gt;((g3 + 36)))</text>
</g>
<!-- Node0x9dd8df60&#45;&gt;Node0x9dd8cdc0 -->
<g id="edge28" class="edge"><title>Node0x9dd8df60&#45;&gt;Node0x9dd8cdc0</title>
<path fill="none" stroke="black" d="M671.536,-456.843C716.626,-450.018 775.102,-433.376 808.634,-393 827.925,-369.772 833.439,-282.428 835.01,-236.744"/>
<polygon fill="black" stroke="black" points="838.513,-236.716 835.317,-226.614 831.516,-236.503 838.513,-236.716"/>
<text text-anchor="middle" x="876.634" y="-324.8" font-family="Times,serif" font-size="14.00">v35 == v36</text>
</g>
<!-- Node0x9dd8f440 -->
<g id="node26" class="node"><title>Node0x9dd8f440</title>
<polygon fill="none" stroke="black" points="688.134,-1095 688.134,-1148 783.134,-1148 783.134,-1095 688.134,-1095"/>
<text text-anchor="start" x="696.134" y="-1132.8" font-family="Times,serif" font-size="14.00">0x4135d7:</text>
<text text-anchor="start" x="696.134" y="-1117.8" font-family="Times,serif" font-size="14.00"> v46 = v44</text>
<text text-anchor="start" x="696.134" y="-1102.8" font-family="Times,serif" font-size="14.00"> v45 = 0</text>
</g>
<!-- Node0x9dd8e1b0&#45;&gt;Node0x9dd8f440 -->
<g id="edge29" class="edge"><title>Node0x9dd8e1b0&#45;&gt;Node0x9dd8f440</title>
<path fill="none" stroke="black" d="M806.693,-1222.32C794.261,-1204.86 775.166,-1178.03 759.9,-1156.59"/>
<polygon fill="black" stroke="black" points="762.699,-1154.48 754.048,-1148.37 756.996,-1158.54 762.699,-1154.48"/>
<text text-anchor="middle" x="834.634" y="-1192.8" font-family="Times,serif" font-size="14.00">v41 == v43</text>
</g>
<!-- Node0x9dd8f580 -->
<g id="node27" class="node"><title>Node0x9dd8f580</title>
<polygon fill="none" stroke="black" points="801.134,-1072.5 801.134,-1170.5 1158.13,-1170.5 1158.13,-1072.5 801.134,-1072.5"/>
<text text-anchor="start" x="809.134" y="-1155.3" font-family="Times,serif" font-size="14.00">0x4135ca:</text>
<text text-anchor="start" x="809.134" y="-1140.3" font-family="Times,serif" font-size="14.00"> v42[&#39;0&#39;] = v43</text>
<text text-anchor="start" x="809.134" y="-1125.3" font-family="Times,serif" font-size="14.00"> v42[&#39;1&#39;] = *(IntToPtrCastExpr&lt;ptr&gt;((g3 &#45; 20)))</text>
<text text-anchor="start" x="809.134" y="-1110.3" font-family="Times,serif" font-size="14.00"> v42[&#39;2&#39;] = g4</text>
<text text-anchor="start" x="809.134" y="-1095.3" font-family="Times,serif" font-size="14.00"> v46 = v44</text>
<text text-anchor="start" x="809.134" y="-1080.3" font-family="Times,serif" font-size="14.00"> v45 = v41</text>
</g>
<!-- Node0x9dd8e1b0&#45;&gt;Node0x9dd8f580 -->
<g id="edge30" class="edge"><title>Node0x9dd8e1b0&#45;&gt;Node0x9dd8f580</title>
<path fill="none" stroke="black" d="M852.755,-1222.33C862.277,-1216.75 872.541,-1210.39 881.634,-1204 893.4,-1195.73 905.508,-1186.4 917.027,-1177.09"/>
<polygon fill="black" stroke="black" points="919.368,-1179.7 924.897,-1170.66 914.938,-1174.28 919.368,-1179.7"/>
<text text-anchor="middle" x="940.634" y="-1192.8" font-family="Times,serif" font-size="14.00">v41 != v43</text>
</g>
<!-- Node0x9dd8f190&#45;&gt;Node0x9dd8cdc0 -->
<g id="edge31" class="edge"><title>Node0x9dd8f190&#45;&gt;Node0x9dd8cdc0</title>
<path fill="none" stroke="black" d="M707.058,-264.341C734.965,-252.221 762.404,-240.304 784.719,-230.613"/>
<polygon fill="black" stroke="black" points="786.178,-233.795 793.956,-226.601 783.389,-227.374 786.178,-233.795"/>
</g>
<!-- Node0x9dd8cdc0&#45;&gt;Node0x5f37b980 -->
<g id="edge32" class="edge"><title>Node0x9dd8cdc0&#45;&gt;Node0x5f37b980</title>
<path fill="none" stroke="black" d="M747.083,-188.413C676.438,-173.983 578.577,-153.993 511.729,-140.339"/>
<polygon fill="black" stroke="black" points="512.186,-136.86 501.687,-138.288 510.785,-143.718 512.186,-136.86"/>
</g>
<!-- Node0x9dd8e5f0 -->
<g id="node28" class="node"><title>Node0x9dd8e5f0</title>
<polygon fill="none" stroke="black" points="743.634,-891.5 743.634,-1034.5 1109.63,-1034.5 1109.63,-891.5 743.634,-891.5"/>
<text text-anchor="start" x="751.634" y="-1019.3" font-family="Times,serif" font-size="14.00">0x4135d9:</text>
<text text-anchor="start" x="751.634" y="-1004.3" font-family="Times,serif" font-size="14.00"> *(IntToPtrCastExpr&lt;ptr&gt;((v46 &#45; 4))) = v45</text>
<text text-anchor="start" x="751.634" y="-989.3" font-family="Times,serif" font-size="14.00"> g5 = (g9 + 64)</text>
<text text-anchor="start" x="751.634" y="-974.3" font-family="Times,serif" font-size="14.00"> *(IntToPtrCastExpr&lt;ptr&gt;((v46 &#45; 8))) = 4273634</text>
<text text-anchor="start" x="751.634" y="-959.3" font-family="Times,serif" font-size="14.00"> function_41c91f(v40)</text>
<text text-anchor="start" x="751.634" y="-944.3" font-family="Times,serif" font-size="14.00"> v47 = *(IntToPtrCastExpr&lt;ptr&gt;((g3 &#45; 20)))</text>
<text text-anchor="start" x="751.634" y="-929.3" font-family="Times,serif" font-size="14.00"> g2 = v47</text>
<text text-anchor="start" x="751.634" y="-914.3" font-family="Times,serif" font-size="14.00"> v48 = *(IntToPtrCastExpr&lt;ptr&gt;((v47 + 36)))</text>
<text text-anchor="start" x="751.634" y="-899.3" font-family="Times,serif" font-size="14.00"> v49 = v48</text>
</g>
<!-- Node0x9dd8f440&#45;&gt;Node0x9dd8e5f0 -->
<g id="edge33" class="edge"><title>Node0x9dd8f440&#45;&gt;Node0x9dd8e5f0</title>
<path fill="none" stroke="black" d="M765.386,-1094.93C774.125,-1087.49 783.728,-1079.38 792.634,-1072 804.83,-1061.9 817.72,-1051.35 830.494,-1040.98"/>
<polygon fill="black" stroke="black" points="832.863,-1043.56 838.425,-1034.54 828.453,-1038.12 832.863,-1043.56"/>
</g>
<!-- Node0x9dd8f580&#45;&gt;Node0x9dd8e5f0 -->
<g id="edge34" class="edge"><title>Node0x9dd8f580&#45;&gt;Node0x9dd8e5f0</title>
<path fill="none" stroke="black" d="M963.3,-1072.27C960.266,-1063.31 957.022,-1053.73 953.766,-1044.12"/>
<polygon fill="black" stroke="black" points="957.036,-1042.86 950.513,-1034.51 950.406,-1045.11 957.036,-1042.86"/>
</g>
<!-- Node0x9dd8d0e0 -->
<g id="node29" class="node"><title>Node0x9dd8d0e0</title>
<polygon fill="none" stroke="black" points="868.134,-817.5 868.134,-853.5 985.134,-853.5 985.134,-817.5 868.134,-817.5"/>
<text text-anchor="start" x="876.134" y="-831.8" font-family="Times,serif" font-size="14.00">if (v48 != g4):</text>
</g>
<!-- Node0x9dd8e5f0&#45;&gt;Node0x9dd8d0e0 -->
<g id="edge35" class="edge"><title>Node0x9dd8e5f0&#45;&gt;Node0x9dd8d0e0</title>
<path fill="none" stroke="black" d="M926.634,-891.181C926.634,-881.439 926.634,-871.961 926.634,-863.707"/>
<polygon fill="black" stroke="black" points="930.134,-863.642 926.634,-853.642 923.134,-863.642 930.134,-863.642"/>
</g>
<!-- Node0x9dd8f7b0 -->
<g id="node30" class="node"><title>Node0x9dd8f7b0</title>
<polygon fill="none" stroke="black" points="642.634,-592.5 642.634,-765.5 1140.63,-765.5 1140.63,-592.5 642.634,-592.5"/>
<text text-anchor="start" x="650.634" y="-750.3" font-family="Times,serif" font-size="14.00">v50 = g10</text>
<text text-anchor="start" x="650.634" y="-735.3" font-family="Times,serif" font-size="14.00"> *(IntToPtrCastExpr&lt;ptr&gt;((v50 &#45; 4))) = v48</text>
<text text-anchor="start" x="650.634" y="-720.3" font-family="Times,serif" font-size="14.00"> g5 = (g9 + 36)</text>
<text text-anchor="start" x="650.634" y="-705.3" font-family="Times,serif" font-size="14.00"> g7 = g2</text>
<text text-anchor="start" x="650.634" y="-690.3" font-family="Times,serif" font-size="14.00"> *(IntToPtrCastExpr&lt;ptr&gt;((v50 &#45; 8))) = 4273655</text>
<text text-anchor="start" x="650.634" y="-675.3" font-family="Times,serif" font-size="14.00"> v51 = function_41bcb6(BitCastExpr&lt;ptr&gt;(&amp;(v40)), NULL, NULL)</text>
<text text-anchor="start" x="650.634" y="-660.3" font-family="Times,serif" font-size="14.00"> *(IntToPtrCastExpr&lt;ptr&gt;(v51)) = g7</text>
<text text-anchor="start" x="650.634" y="-645.3" font-family="Times,serif" font-size="14.00"> v52 = *(IntToPtrCastExpr&lt;ptr&gt;((g3 &#45; 20)))</text>
<text text-anchor="start" x="650.634" y="-630.3" font-family="Times,serif" font-size="14.00"> g2 = v52</text>
<text text-anchor="start" x="650.634" y="-615.3" font-family="Times,serif" font-size="14.00"> v47 = v52</text>
<text text-anchor="start" x="650.634" y="-600.3" font-family="Times,serif" font-size="14.00"> v49 = g4</text>
</g>
<!-- Node0x9dd8d0e0&#45;&gt;Node0x9dd8f7b0 -->
<g id="edge36" class="edge"><title>Node0x9dd8d0e0&#45;&gt;Node0x9dd8f7b0</title>
<path fill="none" stroke="black" d="M922.755,-817.375C920.308,-806.575 916.932,-791.671 913.301,-775.646"/>
<polygon fill="black" stroke="black" points="916.637,-774.529 911.014,-765.549 909.81,-776.076 916.637,-774.529"/>
<text text-anchor="middle" x="953.634" y="-787.8" font-family="Times,serif" font-size="14.00">v48 != g4</text>
</g>
<!-- Node0x9dd8d1f0 -->
<g id="node31" class="node"><title>Node0x9dd8d1f0</title>
<polygon fill="none" stroke="black" points="807.134,-518.5 807.134,-554.5 1140.13,-554.5 1140.13,-518.5 807.134,-518.5"/>
<text text-anchor="start" x="815.134" y="-532.8" font-family="Times,serif" font-size="14.00">v53 = *(IntToPtrCastExpr&lt;ptr&gt;((g3 + 52)))</text>
</g>
<!-- Node0x9dd8d0e0&#45;&gt;Node0x9dd8d1f0 -->
<g id="edge37" class="edge"><title>Node0x9dd8d0e0&#45;&gt;Node0x9dd8d1f0</title>
<path fill="none" stroke="black" d="M985.231,-824.563C1044.45,-813.184 1129.96,-792.628 1149.63,-766 1195.59,-703.805 1195.52,-654.247 1149.63,-592 1138.9,-577.445 1124.33,-566.66 1108.13,-558.691"/>
<polygon fill="black" stroke="black" points="1109.54,-555.484 1098.98,-554.547 1106.65,-561.861 1109.54,-555.484"/>
<text text-anchor="middle" x="1222.63" y="-675.3" font-family="Times,serif" font-size="14.00">v48 == g4</text>
</g>
<!-- Node0x9dd8f7b0&#45;&gt;Node0x9dd8d1f0 -->
<g id="edge38" class="edge"><title>Node0x9dd8f7b0&#45;&gt;Node0x9dd8d1f0</title>
<path fill="none" stroke="black" d="M941.696,-592.223C947.704,-581.929 953.439,-572.102 958.349,-563.69"/>
<polygon fill="black" stroke="black" points="961.495,-565.243 963.512,-554.843 955.449,-561.715 961.495,-565.243"/>
</g>
<!-- Node0x9dd8d330 -->
<g id="node32" class="node"><title>Node0x9dd8d330</title>
<polygon fill="none" stroke="black" points="911.134,-444.5 911.134,-480.5 1036.13,-480.5 1036.13,-444.5 911.134,-444.5"/>
<text text-anchor="start" x="919.134" y="-458.8" font-family="Times,serif" font-size="14.00">if (v53 != v49):</text>
</g>
<!-- Node0x9dd8d1f0&#45;&gt;Node0x9dd8d330 -->
<g id="edge39" class="edge"><title>Node0x9dd8d1f0&#45;&gt;Node0x9dd8d330</title>
<path fill="none" stroke="black" d="M973.634,-518.437C973.634,-510.307 973.634,-500.376 973.634,-491.205"/>
<polygon fill="black" stroke="black" points="977.134,-490.941 973.634,-480.941 970.134,-490.941 977.134,-490.941"/>
</g>
<!-- Node0x9dd8d330&#45;&gt;Node0x9dd8cdc0 -->
<g id="edge41" class="edge"><title>Node0x9dd8d330&#45;&gt;Node0x9dd8cdc0</title>
<path fill="none" stroke="black" d="M971.163,-444.281C964.797,-401.774 946.841,-293.19 925.634,-264 916.075,-250.843 902.353,-240.145 888.495,-231.781"/>
<polygon fill="black" stroke="black" points="889.834,-228.516 879.411,-226.619 886.376,-234.602 889.834,-228.516"/>
<text text-anchor="middle" x="1004.63" y="-324.8" font-family="Times,serif" font-size="14.00">v53 == v49</text>
</g>
<!-- Node0x9dd8fb80 -->
<g id="node33" class="node"><title>Node0x9dd8fb80</title>
<polygon fill="none" stroke="black" points="1061.63,-309.5 1061.63,-347.5 1357.63,-347.5 1357.63,-309.5 1061.63,-309.5"/>
<text text-anchor="start" x="1069.63" y="-332.3" font-family="Times,serif" font-size="14.00">0x413603:</text>
<text text-anchor="start" x="1069.63" y="-317.3" font-family="Times,serif" font-size="14.00"> *(IntToPtrCastExpr&lt;ptr&gt;(v53)) = v47</text>
</g>
<!-- Node0x9dd8d330&#45;&gt;Node0x9dd8fb80 -->
<g id="edge40" class="edge"><title>Node0x9dd8d330&#45;&gt;Node0x9dd8fb80</title>
<path fill="none" stroke="black" d="M1004.49,-444.243C1046.42,-420.789 1121.53,-378.778 1168.3,-352.618"/>
<polygon fill="black" stroke="black" points="1170.24,-355.544 1177.26,-347.607 1166.82,-349.434 1170.24,-355.544"/>
<text text-anchor="middle" x="1102.63" y="-414.8" font-family="Times,serif" font-size="14.00">v53 != v49</text>
</g>
<!-- Node0x9dd8fb80&#45;&gt;Node0x9dd8cdc0 -->
<g id="edge42" class="edge"><title>Node0x9dd8fb80&#45;&gt;Node0x9dd8cdc0</title>
<path fill="none" stroke="black" d="M1167.49,-309.406C1135.08,-295.877 1089,-277.469 1047.63,-264 1007.29,-250.861 961.854,-238.636 923.428,-229.023"/>
<polygon fill="black" stroke="black" points="923.851,-225.522 913.303,-226.509 922.165,-232.315 923.851,-225.522"/>
</g>
</g>
</svg>
