<?xml version="1.0" encoding="UTF-8" standalone="no"?>
<!DOCTYPE svg PUBLIC "-//W3C//DTD SVG 1.1//EN"
 "http://www.w3.org/Graphics/SVG/1.1/DTD/svg11.dtd">
<!-- Generated by graphviz version 2.38.0 (20140413.2041)
 -->
<!-- Title: Control&#45;flow graph for function &#39;function_407e11(a1, a2)&#39;. Pages: 1 -->
<svg width="438pt" height="473pt"
 viewBox="0.00 0.00 438.00 473.00" xmlns="http://www.w3.org/2000/svg" xmlns:xlink="http://www.w3.org/1999/xlink">
<g id="graph0" class="graph" transform="scale(1 1) rotate(0) translate(4 469)">
<title>Control&#45;flow graph for function &#39;function_407e11(a1, a2)&#39;.</title>
<polygon fill="white" stroke="none" points="-4,4 -4,-469 434,-469 434,4 -4,4"/>
<text text-anchor="middle" x="215" y="-7.8" font-family="Times,serif" font-size="14.00">Control&#45;flow graph for function &#39;function_407e11(a1, a2)&#39;.</text>
<!-- Node0x124afba0 -->
<g id="node1" class="node"><title>Node0x124afba0</title>
<polygon fill="none" stroke="black" points="185.5,-411.5 185.5,-464.5 244.5,-464.5 244.5,-411.5 185.5,-411.5"/>
<text text-anchor="start" x="193.5" y="-449.3" font-family="Times,serif" font-size="14.00">entry:</text>
<text text-anchor="start" x="193.5" y="-434.3" font-family="Times,serif" font-size="14.00"> a1</text>
<text text-anchor="start" x="193.5" y="-419.3" font-family="Times,serif" font-size="14.00"> a2</text>
</g>
<!-- Node0x124ae9d0 -->
<g id="node2" class="node"><title>Node0x124ae9d0</title>
<polygon fill="none" stroke="black" points="41,-96.5 41,-374.5 389,-374.5 389,-96.5 41,-96.5"/>
<text text-anchor="start" x="49" y="-359.3" font-family="Times,serif" font-size="14.00">0x407e11:</text>
<text text-anchor="start" x="49" y="-344.3" font-family="Times,serif" font-size="14.00"> g2 = 4418456</text>
<text text-anchor="start" x="49" y="-329.3" font-family="Times,serif" font-size="14.00"> __EH_prolog3_GS()</text>
<text text-anchor="start" x="49" y="-314.3" font-family="Times,serif" font-size="14.00"> g9 = g5</text>
<text text-anchor="start" x="49" y="-299.3" font-family="Times,serif" font-size="14.00"> g5 = (g3 &#45; 100)</text>
<text text-anchor="start" x="49" y="-284.3" font-family="Times,serif" font-size="14.00"> function_40f72f()</text>
<text text-anchor="start" x="49" y="-269.3" font-family="Times,serif" font-size="14.00"> *(IntToPtrCastExpr&lt;ptr&gt;((g3 &#45; 4))) = 0</text>
<text text-anchor="start" x="49" y="-254.3" font-family="Times,serif" font-size="14.00"> v1 = (g3 &#45; 100)</text>
<text text-anchor="start" x="49" y="-239.3" font-family="Times,serif" font-size="14.00"> g2 = v1</text>
<text text-anchor="start" x="49" y="-224.3" font-family="Times,serif" font-size="14.00"> g5 = g9</text>
<text text-anchor="start" x="49" y="-209.3" font-family="Times,serif" font-size="14.00"> function_40df27(v1)</text>
<text text-anchor="start" x="49" y="-194.3" font-family="Times,serif" font-size="14.00"> g5 = g9</text>
<text text-anchor="start" x="49" y="-179.3" font-family="Times,serif" font-size="14.00"> function_40afc3(IntToPtrCastExpr&lt;ptr&gt;(v1))</text>
<text text-anchor="start" x="49" y="-164.3" font-family="Times,serif" font-size="14.00"> *(IntToPtrCastExpr&lt;ptr&gt;((g3 &#45; 4))) = &#45;1</text>
<text text-anchor="start" x="49" y="-149.3" font-family="Times,serif" font-size="14.00"> g5 = (g3 &#45; 100)</text>
<text text-anchor="start" x="49" y="-134.3" font-family="Times,serif" font-size="14.00"> result = function_40f783(v1)</text>
<text text-anchor="start" x="49" y="-119.3" font-family="Times,serif" font-size="14.00"> function_4239ad()</text>
<text text-anchor="start" x="49" y="-104.3" font-family="Times,serif" font-size="14.00"> return result</text>
</g>
<!-- Node0x124afba0&#45;&gt;Node0x124ae9d0 -->
<g id="edge1" class="edge"><title>Node0x124afba0&#45;&gt;Node0x124ae9d0</title>
<path fill="none" stroke="black" d="M215,-411.199C215,-403.504 215,-394.469 215,-384.63"/>
<polygon fill="black" stroke="black" points="218.5,-384.543 215,-374.543 211.5,-384.543 218.5,-384.543"/>
</g>
<!-- Node0x130bfc50 -->
<g id="node3" class="node"><title>Node0x130bfc50</title>
<polygon fill="none" stroke="black" points="188,-23.5 188,-59.5 242,-59.5 242,-23.5 188,-23.5"/>
<text text-anchor="start" x="196" y="-37.8" font-family="Times,serif" font-size="14.00">exit:</text>
</g>
<!-- Node0x124ae9d0&#45;&gt;Node0x130bfc50 -->
<g id="edge2" class="edge"><title>Node0x124ae9d0&#45;&gt;Node0x130bfc50</title>
<path fill="none" stroke="black" d="M215,-96.4937C215,-86.7679 215,-77.7587 215,-69.9967"/>
<polygon fill="black" stroke="black" points="218.5,-69.9092 215,-59.9092 211.5,-69.9093 218.5,-69.9092"/>
</g>
</g>
</svg>
