<?xml version="1.0" encoding="UTF-8" standalone="no"?>
<!DOCTYPE svg PUBLIC "-//W3C//DTD SVG 1.1//EN"
 "http://www.w3.org/Graphics/SVG/1.1/DTD/svg11.dtd">
<!-- Generated by graphviz version 2.38.0 (20140413.2041)
 -->
<!-- Title: Control&#45;flow graph for function &#39;function_40d3ae(a1)&#39;. Pages: 1 -->
<svg width="614pt" height="702pt"
 viewBox="0.00 0.00 613.50 702.00" xmlns="http://www.w3.org/2000/svg" xmlns:xlink="http://www.w3.org/1999/xlink">
<g id="graph0" class="graph" transform="scale(1 1) rotate(0) translate(4 698)">
<title>Control&#45;flow graph for function &#39;function_40d3ae(a1)&#39;.</title>
<polygon fill="white" stroke="none" points="-4,4 -4,-698 609.5,-698 609.5,4 -4,4"/>
<text text-anchor="middle" x="302.75" y="-7.8" font-family="Times,serif" font-size="14.00">Control&#45;flow graph for function &#39;function_40d3ae(a1)&#39;.</text>
<!-- Node0x5791ffd0 -->
<g id="node1" class="node"><title>Node0x5791ffd0</title>
<polygon fill="none" stroke="black" points="384,-655.5 384,-693.5 443,-693.5 443,-655.5 384,-655.5"/>
<text text-anchor="start" x="392" y="-678.3" font-family="Times,serif" font-size="14.00">entry:</text>
<text text-anchor="start" x="392" y="-663.3" font-family="Times,serif" font-size="14.00"> a1</text>
</g>
<!-- Node0x307af360 -->
<g id="node2" class="node"><title>Node0x307af360</title>
<polygon fill="none" stroke="black" points="249.5,-489.5 249.5,-617.5 577.5,-617.5 577.5,-489.5 249.5,-489.5"/>
<text text-anchor="start" x="257.5" y="-602.3" font-family="Times,serif" font-size="14.00">g40 = 0</text>
<text text-anchor="start" x="257.5" y="-587.3" font-family="Times,serif" font-size="14.00"> v1 = g5</text>
<text text-anchor="start" x="257.5" y="-572.3" font-family="Times,serif" font-size="14.00"> g9 = v1</text>
<text text-anchor="start" x="257.5" y="-557.3" font-family="Times,serif" font-size="14.00"> v2 = *(IntToPtrCastExpr&lt;ptr&gt;((v1 + 76)))</text>
<text text-anchor="start" x="257.5" y="-542.3" font-family="Times,serif" font-size="14.00"> g1 = False</text>
<text text-anchor="start" x="257.5" y="-527.3" font-family="Times,serif" font-size="14.00"> g180 = (v2 == 0)</text>
<text text-anchor="start" x="257.5" y="-512.3" font-family="Times,serif" font-size="14.00"> v3</text>
<text text-anchor="start" x="257.5" y="-497.3" font-family="Times,serif" font-size="14.00"> v4</text>
</g>
<!-- Node0x5791ffd0&#45;&gt;Node0x307af360 -->
<g id="edge1" class="edge"><title>Node0x5791ffd0&#45;&gt;Node0x307af360</title>
<path fill="none" stroke="black" d="M413.5,-655.426C413.5,-647.592 413.5,-637.856 413.5,-627.546"/>
<polygon fill="black" stroke="black" points="417,-627.529 413.5,-617.529 410,-627.529 417,-627.529"/>
</g>
<!-- Node0x63abc440 -->
<g id="node3" class="node"><title>Node0x63abc440</title>
<polygon fill="none" stroke="black" points="364,-413.5 364,-451.5 463,-451.5 463,-413.5 364,-413.5"/>
<text text-anchor="start" x="372" y="-436.3" font-family="Times,serif" font-size="14.00">if (v2 != 0):</text>
<text text-anchor="start" x="372" y="-421.3" font-family="Times,serif" font-size="14.00"> else:</text>
</g>
<!-- Node0x307af360&#45;&gt;Node0x63abc440 -->
<g id="edge2" class="edge"><title>Node0x307af360&#45;&gt;Node0x63abc440</title>
<path fill="none" stroke="black" d="M413.5,-489.167C413.5,-479.596 413.5,-470.158 413.5,-461.848"/>
<polygon fill="black" stroke="black" points="417,-461.658 413.5,-451.659 410,-461.659 417,-461.658"/>
</g>
<!-- Node0xd0337e30 -->
<g id="node4" class="node"><title>Node0xd0337e30</title>
<polygon fill="none" stroke="black" points="0,-233.5 0,-361.5 515,-361.5 515,-233.5 0,-233.5"/>
<text text-anchor="start" x="8" y="-346.3" font-family="Times,serif" font-size="14.00">0x40d3be:</text>
<text text-anchor="start" x="8" y="-331.3" font-family="Times,serif" font-size="14.00"> g5 = v2</text>
<text text-anchor="start" x="8" y="-316.3" font-family="Times,serif" font-size="14.00"> v5 = *(IntToPtrCastExpr&lt;ptr&gt;(v2))</text>
<text text-anchor="start" x="8" y="-301.3" font-family="Times,serif" font-size="14.00"> g2 = v5</text>
<text text-anchor="start" x="8" y="-286.3" font-family="Times,serif" font-size="14.00"> v3 = &#45;705</text>
<text text-anchor="start" x="8" y="-271.3" font-family="Times,serif" font-size="14.00"> g10 = &amp;(v3)</text>
<text text-anchor="start" x="8" y="-256.3" font-family="Times,serif" font-size="14.00"> IntToPtrCastExpr&lt;ptr&gt;(*(IntToPtrCastExpr&lt;ptr&gt;((v5 + 80))))(&#45;705)</text>
<text text-anchor="start" x="8" y="-241.3" font-family="Times,serif" font-size="14.00"> v4 = g9</text>
</g>
<!-- Node0x63abc440&#45;&gt;Node0xd0337e30 -->
<g id="edge3" class="edge"><title>Node0x63abc440&#45;&gt;Node0xd0337e30</title>
<path fill="none" stroke="black" d="M392.136,-413.286C378.139,-401.353 358.863,-384.919 339.27,-368.214"/>
<polygon fill="black" stroke="black" points="341.342,-365.381 331.462,-361.557 336.801,-370.708 341.342,-365.381"/>
<text text-anchor="middle" x="394.5" y="-383.8" font-family="Times,serif" font-size="14.00">v2 != 0</text>
</g>
<!-- Node0x27f678d0 -->
<g id="node5" class="node"><title>Node0x27f678d0</title>
<polygon fill="none" stroke="black" points="533.5,-279.5 533.5,-315.5 605.5,-315.5 605.5,-279.5 533.5,-279.5"/>
<text text-anchor="start" x="541.5" y="-293.8" font-family="Times,serif" font-size="14.00">v4 = v1</text>
</g>
<!-- Node0x63abc440&#45;&gt;Node0x27f678d0 -->
<g id="edge4" class="edge"><title>Node0x63abc440&#45;&gt;Node0x27f678d0</title>
<path fill="none" stroke="black" d="M450.009,-413.445C472.976,-400.981 502.35,-382.92 524.5,-362 536.199,-350.951 546.752,-336.439 554.693,-324.078"/>
<polygon fill="black" stroke="black" points="557.694,-325.88 559.993,-315.538 551.746,-322.189 557.694,-325.88"/>
<text text-anchor="middle" x="533.5" y="-383.8" font-family="Times,serif" font-size="14.00">v2 == 0</text>
</g>
<!-- Node0x27f67df0 -->
<g id="node6" class="node"><title>Node0x27f67df0</title>
<polygon fill="none" stroke="black" points="320,-97.5 320,-195.5 577,-195.5 577,-97.5 320,-97.5"/>
<text text-anchor="start" x="328" y="-180.3" font-family="Times,serif" font-size="14.00">0x40d3cb:</text>
<text text-anchor="start" x="328" y="-165.3" font-family="Times,serif" font-size="14.00"> v3 = 0</text>
<text text-anchor="start" x="328" y="-150.3" font-family="Times,serif" font-size="14.00"> g5 = v4</text>
<text text-anchor="start" x="328" y="-135.3" font-family="Times,serif" font-size="14.00"> result = function_40c41c(NULL)</text>
<text text-anchor="start" x="328" y="-120.3" font-family="Times,serif" font-size="14.00"> g9 = 0</text>
<text text-anchor="start" x="328" y="-105.3" font-family="Times,serif" font-size="14.00"> return result</text>
</g>
<!-- Node0xd0337e30&#45;&gt;Node0x27f67df0 -->
<g id="edge5" class="edge"><title>Node0xd0337e30&#45;&gt;Node0x27f67df0</title>
<path fill="none" stroke="black" d="M338.501,-233.311C351.889,-222.867 365.666,-212.12 378.746,-201.915"/>
<polygon fill="black" stroke="black" points="381.059,-204.55 386.791,-195.64 376.753,-199.031 381.059,-204.55"/>
</g>
<!-- Node0x27f678d0&#45;&gt;Node0x27f67df0 -->
<g id="edge6" class="edge"><title>Node0x27f678d0&#45;&gt;Node0x27f67df0</title>
<path fill="none" stroke="black" d="M558.149,-279.418C549.332,-266.42 536.607,-248.232 524.5,-233 516.699,-223.186 508.125,-213.013 499.632,-203.255"/>
<polygon fill="black" stroke="black" points="502.082,-200.74 492.855,-195.533 496.821,-205.358 502.082,-200.74"/>
</g>
<!-- Node0x57912650 -->
<g id="node7" class="node"><title>Node0x57912650</title>
<polygon fill="none" stroke="black" points="421.5,-23.5 421.5,-59.5 475.5,-59.5 475.5,-23.5 421.5,-23.5"/>
<text text-anchor="start" x="429.5" y="-37.8" font-family="Times,serif" font-size="14.00">exit:</text>
</g>
<!-- Node0x27f67df0&#45;&gt;Node0x57912650 -->
<g id="edge7" class="edge"><title>Node0x27f67df0&#45;&gt;Node0x57912650</title>
<path fill="none" stroke="black" d="M448.5,-97.3173C448.5,-87.893 448.5,-78.32 448.5,-69.8676"/>
<polygon fill="black" stroke="black" points="452,-69.856 448.5,-59.8561 445,-69.8561 452,-69.856"/>
</g>
</g>
</svg>
