<?xml version="1.0" encoding="UTF-8" standalone="no"?>
<!DOCTYPE svg PUBLIC "-//W3C//DTD SVG 1.1//EN"
 "http://www.w3.org/Graphics/SVG/1.1/DTD/svg11.dtd">
<!-- Generated by graphviz version 2.38.0 (20140413.2041)
 -->
<!-- Title: Control&#45;flow graph for function &#39;function_414de6(a1, a2, a3, a4)&#39;. Pages: 1 -->
<svg width="658pt" height="293pt"
 viewBox="0.00 0.00 658.00 293.00" xmlns="http://www.w3.org/2000/svg" xmlns:xlink="http://www.w3.org/1999/xlink">
<g id="graph0" class="graph" transform="scale(1 1) rotate(0) translate(4 289)">
<title>Control&#45;flow graph for function &#39;function_414de6(a1, a2, a3, a4)&#39;.</title>
<polygon fill="white" stroke="none" points="-4,4 -4,-289 654,-289 654,4 -4,4"/>
<text text-anchor="middle" x="325" y="-7.8" font-family="Times,serif" font-size="14.00">Control&#45;flow graph for function &#39;function_414de6(a1, a2, a3, a4)&#39;.</text>
<!-- Node0xa80b2d10 -->
<g id="node1" class="node"><title>Node0xa80b2d10</title>
<polygon fill="none" stroke="black" points="295.5,-201.5 295.5,-284.5 354.5,-284.5 354.5,-201.5 295.5,-201.5"/>
<text text-anchor="start" x="303.5" y="-269.3" font-family="Times,serif" font-size="14.00">entry:</text>
<text text-anchor="start" x="303.5" y="-254.3" font-family="Times,serif" font-size="14.00"> a1</text>
<text text-anchor="start" x="303.5" y="-239.3" font-family="Times,serif" font-size="14.00"> a2</text>
<text text-anchor="start" x="303.5" y="-224.3" font-family="Times,serif" font-size="14.00"> a3</text>
<text text-anchor="start" x="303.5" y="-209.3" font-family="Times,serif" font-size="14.00"> a4</text>
</g>
<!-- Node0xa80b9730 -->
<g id="node2" class="node"><title>Node0xa80b9730</title>
<polygon fill="none" stroke="black" points="-5.68434e-14,-96.5 -5.68434e-14,-164.5 650,-164.5 650,-96.5 -5.68434e-14,-96.5"/>
<text text-anchor="start" x="8" y="-149.3" font-family="Times,serif" font-size="14.00">v1 = g5</text>
<text text-anchor="start" x="8" y="-134.3" font-family="Times,serif" font-size="14.00"> result = *(IntToPtrCastExpr&lt;ptr&gt;(v1))</text>
<text text-anchor="start" x="8" y="-119.3" font-family="Times,serif" font-size="14.00"> IntToPtrCastExpr&lt;ptr&gt;(*(IntToPtrCastExpr&lt;ptr&gt;((result + 104))))(v1, a1, 2, a2, a3, 0)</text>
<text text-anchor="start" x="8" y="-104.3" font-family="Times,serif" font-size="14.00"> return result</text>
</g>
<!-- Node0xa80b2d10&#45;&gt;Node0xa80b9730 -->
<g id="edge1" class="edge"><title>Node0xa80b2d10&#45;&gt;Node0xa80b9730</title>
<path fill="none" stroke="black" d="M325,-201.481C325,-192.804 325,-183.604 325,-174.826"/>
<polygon fill="black" stroke="black" points="328.5,-174.771 325,-164.771 321.5,-174.771 328.5,-174.771"/>
</g>
<!-- Node0xa80b33d0 -->
<g id="node3" class="node"><title>Node0xa80b33d0</title>
<polygon fill="none" stroke="black" points="298,-23.5 298,-59.5 352,-59.5 352,-23.5 298,-23.5"/>
<text text-anchor="start" x="306" y="-37.8" font-family="Times,serif" font-size="14.00">exit:</text>
</g>
<!-- Node0xa80b9730&#45;&gt;Node0xa80b33d0 -->
<g id="edge2" class="edge"><title>Node0xa80b9730&#45;&gt;Node0xa80b33d0</title>
<path fill="none" stroke="black" d="M325,-96.1123C325,-87.3522 325,-78.0128 325,-69.6246"/>
<polygon fill="black" stroke="black" points="328.5,-69.6235 325,-59.6235 321.5,-69.6235 328.5,-69.6235"/>
</g>
</g>
</svg>
