<?xml version="1.0" encoding="UTF-8" standalone="no"?>
<!DOCTYPE svg PUBLIC "-//W3C//DTD SVG 1.1//EN"
 "http://www.w3.org/Graphics/SVG/1.1/DTD/svg11.dtd">
<!-- Generated by graphviz version 2.38.0 (20140413.2041)
 -->
<!-- Title: Control&#45;flow graph for function &#39;function_41f50b(*a1, *a2)&#39;. Pages: 1 -->
<svg width="944pt" height="543pt"
 viewBox="0.00 0.00 944.00 543.00" xmlns="http://www.w3.org/2000/svg" xmlns:xlink="http://www.w3.org/1999/xlink">
<g id="graph0" class="graph" transform="scale(1 1) rotate(0) translate(4 539)">
<title>Control&#45;flow graph for function &#39;function_41f50b(*a1, *a2)&#39;.</title>
<polygon fill="white" stroke="none" points="-4,4 -4,-539 940,-539 940,4 -4,4"/>
<text text-anchor="middle" x="468" y="-7.8" font-family="Times,serif" font-size="14.00">Control&#45;flow graph for function &#39;function_41f50b(*a1, *a2)&#39;.</text>
<!-- Node0x8d79cc60 -->
<g id="node1" class="node"><title>Node0x8d79cc60</title>
<polygon fill="none" stroke="black" points="146.5,-481.5 146.5,-534.5 205.5,-534.5 205.5,-481.5 146.5,-481.5"/>
<text text-anchor="start" x="154.5" y="-519.3" font-family="Times,serif" font-size="14.00">entry:</text>
<text text-anchor="start" x="154.5" y="-504.3" font-family="Times,serif" font-size="14.00"> a1</text>
<text text-anchor="start" x="154.5" y="-489.3" font-family="Times,serif" font-size="14.00"> a2</text>
</g>
<!-- Node0x9c3e3920 -->
<g id="node2" class="node"><title>Node0x9c3e3920</title>
<polygon fill="none" stroke="black" points="40,-405.5 40,-443.5 312,-443.5 312,-405.5 40,-405.5"/>
<text text-anchor="start" x="48" y="-428.3" font-family="Times,serif" font-size="14.00">v1 = PtrToIntCastExpr&lt;int32&gt;(a1)</text>
<text text-anchor="start" x="48" y="-413.3" font-family="Times,serif" font-size="14.00"> g2 = v1</text>
</g>
<!-- Node0x8d79cc60&#45;&gt;Node0x9c3e3920 -->
<g id="edge1" class="edge"><title>Node0x8d79cc60&#45;&gt;Node0x9c3e3920</title>
<path fill="none" stroke="black" d="M176,-481.213C176,-472.526 176,-462.787 176,-453.91"/>
<polygon fill="black" stroke="black" points="179.5,-453.638 176,-443.638 172.5,-453.638 179.5,-453.638"/>
</g>
<!-- Node0x8d79b080 -->
<g id="node3" class="node"><title>Node0x8d79b080</title>
<polygon fill="none" stroke="black" points="112,-331.5 112,-367.5 240,-367.5 240,-331.5 112,-331.5"/>
<text text-anchor="start" x="120" y="-345.8" font-family="Times,serif" font-size="14.00">if (a1 &lt; NULL):</text>
</g>
<!-- Node0x9c3e3920&#45;&gt;Node0x8d79b080 -->
<g id="edge2" class="edge"><title>Node0x9c3e3920&#45;&gt;Node0x8d79b080</title>
<path fill="none" stroke="black" d="M176,-405.455C176,-397.201 176,-387.238 176,-378.074"/>
<polygon fill="black" stroke="black" points="179.5,-377.835 176,-367.835 172.5,-377.835 179.5,-377.835"/>
</g>
<!-- Node0x8d799f20 -->
<g id="node4" class="node"><title>Node0x8d799f20</title>
<polygon fill="none" stroke="black" points="0,-169.5 0,-222.5 168,-222.5 168,-169.5 0,-169.5"/>
<text text-anchor="start" x="8" y="-207.3" font-family="Times,serif" font-size="14.00">0x41f521:</text>
<text text-anchor="start" x="8" y="-192.3" font-family="Times,serif" font-size="14.00"> function_40ede0(a1)</text>
<text text-anchor="start" x="8" y="-177.3" font-family="Times,serif" font-size="14.00"> return g2</text>
</g>
<!-- Node0x8d79b080&#45;&gt;Node0x8d799f20 -->
<g id="edge3" class="edge"><title>Node0x8d79b080&#45;&gt;Node0x8d799f20</title>
<path fill="none" stroke="black" d="M159.121,-331.18C153.813,-325.515 148.028,-319.106 143,-313 131.472,-299 127.915,-295.793 119,-280 110.486,-264.919 102.789,-247.354 96.7945,-232.276"/>
<polygon fill="black" stroke="black" points="99.9898,-230.835 93.11,-222.777 93.4636,-233.366 99.9898,-230.835"/>
<text text-anchor="middle" x="184" y="-301.8" font-family="Times,serif" font-size="14.00">a1 &lt; NULL</text>
</g>
<!-- Node0x8d792420 -->
<g id="node5" class="node"><title>Node0x8d792420</title>
<polygon fill="none" stroke="black" points="128.5,-241.5 128.5,-279.5 477.5,-279.5 477.5,-241.5 128.5,-241.5"/>
<text text-anchor="start" x="136.5" y="-264.3" font-family="Times,serif" font-size="14.00">0x41f513:</text>
<text text-anchor="start" x="136.5" y="-249.3" font-family="Times,serif" font-size="14.00"> if (v1 &lt; *(IntToPtrCastExpr&lt;ptr&gt;((g5 + 8)))):</text>
</g>
<!-- Node0x8d79b080&#45;&gt;Node0x8d792420 -->
<g id="edge4" class="edge"><title>Node0x8d79b080&#45;&gt;Node0x8d792420</title>
<path fill="none" stroke="black" d="M201.091,-331.312C220.279,-318.167 246.961,-299.889 268.21,-285.333"/>
<polygon fill="black" stroke="black" points="270.378,-288.09 276.649,-279.551 266.421,-282.315 270.378,-288.09"/>
<text text-anchor="middle" x="295" y="-301.8" font-family="Times,serif" font-size="14.00">a1 &gt;= NULL</text>
</g>
<!-- Node0x8d796710 -->
<g id="node6" class="node"><title>Node0x8d796710</title>
<polygon fill="none" stroke="black" points="288,-23.5 288,-59.5 342,-59.5 342,-23.5 288,-23.5"/>
<text text-anchor="start" x="296" y="-37.8" font-family="Times,serif" font-size="14.00">exit:</text>
</g>
<!-- Node0x8d799f20&#45;&gt;Node0x8d796710 -->
<g id="edge5" class="edge"><title>Node0x8d799f20&#45;&gt;Node0x8d796710</title>
<path fill="none" stroke="black" d="M80.3969,-169.229C78.8575,-147.318 80.5145,-116.409 98,-97 121.754,-70.6337 222.151,-54.1405 277.679,-46.8588"/>
<polygon fill="black" stroke="black" points="278.347,-50.3021 287.824,-45.5656 277.462,-43.3583 278.347,-50.3021"/>
</g>
<!-- Node0x17d0d890 -->
<g id="node7" class="node"><title>Node0x17d0d890</title>
<polygon fill="none" stroke="black" points="107,-105 107,-143 523,-143 523,-105 107,-105"/>
<text text-anchor="start" x="115" y="-127.8" font-family="Times,serif" font-size="14.00">0x41f518:</text>
<text text-anchor="start" x="115" y="-112.8" font-family="Times,serif" font-size="14.00"> return (*(IntToPtrCastExpr&lt;ptr&gt;((g5 + 4))) + (4 * v1))</text>
</g>
<!-- Node0x8d792420&#45;&gt;Node0x17d0d890 -->
<g id="edge6" class="edge"><title>Node0x8d792420&#45;&gt;Node0x17d0d890</title>
<path fill="none" stroke="black" d="M301.962,-241.385C301.202,-223.053 300.79,-193.935 304,-169 304.674,-163.765 305.749,-158.255 306.969,-152.973"/>
<polygon fill="black" stroke="black" points="310.375,-153.78 309.426,-143.228 303.587,-152.068 310.375,-153.78"/>
<text text-anchor="middle" x="453.5" y="-192.3" font-family="Times,serif" font-size="14.00">v1 &lt; *(IntToPtrCastExpr&lt;ptr&gt;((g5 + 8)))</text>
</g>
<!-- Node0x8d799ec0 -->
<g id="node8" class="node"><title>Node0x8d799ec0</title>
<polygon fill="none" stroke="black" points="541,-97.5 541,-150.5 709,-150.5 709,-97.5 541,-97.5"/>
<text text-anchor="start" x="549" y="-135.3" font-family="Times,serif" font-size="14.00">0x41f521:</text>
<text text-anchor="start" x="549" y="-120.3" font-family="Times,serif" font-size="14.00"> function_40ede0(a1)</text>
<text text-anchor="start" x="549" y="-105.3" font-family="Times,serif" font-size="14.00"> return g2</text>
</g>
<!-- Node0x8d792420&#45;&gt;Node0x8d799ec0 -->
<g id="edge7" class="edge"><title>Node0x8d792420&#45;&gt;Node0x8d799ec0</title>
<path fill="none" stroke="black" d="M477.747,-255.15C532.261,-250.256 583.305,-240.822 603,-223 620.034,-207.586 625.362,-182.083 626.521,-160.958"/>
<polygon fill="black" stroke="black" points="630.027,-160.782 626.788,-150.694 623.029,-160.6 630.027,-160.782"/>
<text text-anchor="middle" x="780.5" y="-192.3" font-family="Times,serif" font-size="14.00">v1 &gt;= *(IntToPtrCastExpr&lt;ptr&gt;((g5 + 8)))</text>
</g>
<!-- Node0x17d0d890&#45;&gt;Node0x8d796710 -->
<g id="edge8" class="edge"><title>Node0x17d0d890&#45;&gt;Node0x8d796710</title>
<path fill="none" stroke="black" d="M315,-104.733C315,-94.3626 315,-81.1832 315,-69.6251"/>
<polygon fill="black" stroke="black" points="318.5,-69.5935 315,-59.5935 311.5,-69.5936 318.5,-69.5935"/>
</g>
<!-- Node0x8d799ec0&#45;&gt;Node0x8d796710 -->
<g id="edge9" class="edge"><title>Node0x8d799ec0&#45;&gt;Node0x8d796710</title>
<path fill="none" stroke="black" d="M540.878,-99.3741C537.883,-98.5674 534.917,-97.7739 532,-97 468.914,-80.2626 395.156,-62.0175 351.914,-51.4546"/>
<polygon fill="black" stroke="black" points="352.668,-48.036 342.124,-49.067 351.01,-54.8367 352.668,-48.036"/>
</g>
</g>
</svg>
