<?xml version="1.0" encoding="UTF-8" standalone="no"?>
<!DOCTYPE svg PUBLIC "-//W3C//DTD SVG 1.1//EN"
 "http://www.w3.org/Graphics/SVG/1.1/DTD/svg11.dtd">
<!-- Generated by graphviz version 2.38.0 (20140413.2041)
 -->
<!-- Title: Control&#45;flow graph for function &#39;function_4372ff(a1, *a2)&#39;. Pages: 1 -->
<svg width="439pt" height="263pt"
 viewBox="0.00 0.00 439.00 263.00" xmlns="http://www.w3.org/2000/svg" xmlns:xlink="http://www.w3.org/1999/xlink">
<g id="graph0" class="graph" transform="scale(1 1) rotate(0) translate(4 259)">
<title>Control&#45;flow graph for function &#39;function_4372ff(a1, *a2)&#39;.</title>
<polygon fill="white" stroke="none" points="-4,4 -4,-259 435,-259 435,4 -4,4"/>
<text text-anchor="middle" x="215.5" y="-7.8" font-family="Times,serif" font-size="14.00">Control&#45;flow graph for function &#39;function_4372ff(a1, *a2)&#39;.</text>
<!-- Node0x2c2a71f0 -->
<g id="node1" class="node"><title>Node0x2c2a71f0</title>
<polygon fill="none" stroke="black" points="186,-201.5 186,-254.5 245,-254.5 245,-201.5 186,-201.5"/>
<text text-anchor="start" x="194" y="-239.3" font-family="Times,serif" font-size="14.00">entry:</text>
<text text-anchor="start" x="194" y="-224.3" font-family="Times,serif" font-size="14.00"> a1</text>
<text text-anchor="start" x="194" y="-209.3" font-family="Times,serif" font-size="14.00"> a2</text>
</g>
<!-- Node0x3aabbc70 -->
<g id="node2" class="node"><title>Node0x3aabbc70</title>
<polygon fill="none" stroke="black" points="54.5,-96.5 54.5,-164.5 376.5,-164.5 376.5,-96.5 54.5,-96.5"/>
<text text-anchor="start" x="62.5" y="-149.3" font-family="Times,serif" font-size="14.00">0x4372ff:</text>
<text text-anchor="start" x="62.5" y="-134.3" font-family="Times,serif" font-size="14.00"> g5 = *(IntToPtrCastExpr&lt;ptr&gt;((g3 &#45; 16)))</text>
<text text-anchor="start" x="62.5" y="-119.3" font-family="Times,serif" font-size="14.00"> v1</text>
<text text-anchor="start" x="62.5" y="-104.3" font-family="Times,serif" font-size="14.00"> return function_404c23(v1)</text>
</g>
<!-- Node0x2c2a71f0&#45;&gt;Node0x3aabbc70 -->
<g id="edge1" class="edge"><title>Node0x2c2a71f0&#45;&gt;Node0x3aabbc70</title>
<path fill="none" stroke="black" d="M215.5,-201.408C215.5,-193.219 215.5,-183.912 215.5,-174.822"/>
<polygon fill="black" stroke="black" points="219,-174.721 215.5,-164.721 212,-174.721 219,-174.721"/>
</g>
<!-- Node0x2e273230 -->
<g id="node3" class="node"><title>Node0x2e273230</title>
<polygon fill="none" stroke="black" points="188.5,-23.5 188.5,-59.5 242.5,-59.5 242.5,-23.5 188.5,-23.5"/>
<text text-anchor="start" x="196.5" y="-37.8" font-family="Times,serif" font-size="14.00">exit:</text>
</g>
<!-- Node0x3aabbc70&#45;&gt;Node0x2e273230 -->
<g id="edge2" class="edge"><title>Node0x3aabbc70&#45;&gt;Node0x2e273230</title>
<path fill="none" stroke="black" d="M215.5,-96.1123C215.5,-87.3522 215.5,-78.0128 215.5,-69.6246"/>
<polygon fill="black" stroke="black" points="219,-69.6235 215.5,-59.6235 212,-69.6235 219,-69.6235"/>
</g>
</g>
</svg>
