<?xml version="1.0" encoding="UTF-8" standalone="no"?>
<!DOCTYPE svg PUBLIC "-//W3C//DTD SVG 1.1//EN"
 "http://www.w3.org/Graphics/SVG/1.1/DTD/svg11.dtd">
<!-- Generated by graphviz version 2.38.0 (20140413.2041)
 -->
<!-- Title: Control&#45;flow graph for function &#39;function_406f8e(*a1)&#39;. Pages: 1 -->
<svg width="479pt" height="758pt"
 viewBox="0.00 0.00 479.00 758.00" xmlns="http://www.w3.org/2000/svg" xmlns:xlink="http://www.w3.org/1999/xlink">
<g id="graph0" class="graph" transform="scale(1 1) rotate(0) translate(4 754)">
<title>Control&#45;flow graph for function &#39;function_406f8e(*a1)&#39;.</title>
<polygon fill="white" stroke="none" points="-4,4 -4,-754 475,-754 475,4 -4,4"/>
<text text-anchor="middle" x="235.5" y="-7.8" font-family="Times,serif" font-size="14.00">Control&#45;flow graph for function &#39;function_406f8e(*a1)&#39;.</text>
<!-- Node0x1ed5fd20 -->
<g id="node1" class="node"><title>Node0x1ed5fd20</title>
<polygon fill="none" stroke="black" points="294.5,-711.5 294.5,-749.5 353.5,-749.5 353.5,-711.5 294.5,-711.5"/>
<text text-anchor="start" x="302.5" y="-734.3" font-family="Times,serif" font-size="14.00">entry:</text>
<text text-anchor="start" x="302.5" y="-719.3" font-family="Times,serif" font-size="14.00"> a1</text>
</g>
<!-- Node0x1ed66570 -->
<g id="node2" class="node"><title>Node0x1ed66570</title>
<polygon fill="none" stroke="black" points="185.5,-605.5 185.5,-673.5 462.5,-673.5 462.5,-605.5 185.5,-605.5"/>
<text text-anchor="start" x="193.5" y="-658.3" font-family="Times,serif" font-size="14.00">v1 = g9</text>
<text text-anchor="start" x="193.5" y="-643.3" font-family="Times,serif" font-size="14.00"> g9 = PtrToIntCastExpr&lt;int32&gt;(a1)</text>
<text text-anchor="start" x="193.5" y="-628.3" font-family="Times,serif" font-size="14.00"> hMem = *(BitCastExpr&lt;ptr&gt;(a1))</text>
<text text-anchor="start" x="193.5" y="-613.3" font-family="Times,serif" font-size="14.00"> g2 = hMem</text>
</g>
<!-- Node0x1ed5fd20&#45;&gt;Node0x1ed66570 -->
<g id="edge1" class="edge"><title>Node0x1ed5fd20&#45;&gt;Node0x1ed66570</title>
<path fill="none" stroke="black" d="M324,-711.49C324,-703.422 324,-693.529 324,-683.718"/>
<polygon fill="black" stroke="black" points="327.5,-683.605 324,-673.605 320.5,-683.605 327.5,-683.605"/>
</g>
<!-- Node0x1ed64500 -->
<g id="node3" class="node"><title>Node0x1ed64500</title>
<polygon fill="none" stroke="black" points="260,-531.5 260,-567.5 388,-567.5 388,-531.5 260,-531.5"/>
<text text-anchor="start" x="268" y="-545.8" font-family="Times,serif" font-size="14.00">if (hMem != 0):</text>
</g>
<!-- Node0x1ed66570&#45;&gt;Node0x1ed64500 -->
<g id="edge2" class="edge"><title>Node0x1ed66570&#45;&gt;Node0x1ed64500</title>
<path fill="none" stroke="black" d="M324,-605.482C324,-596.328 324,-586.497 324,-577.715"/>
<polygon fill="black" stroke="black" points="327.5,-577.64 324,-567.64 320.5,-577.64 327.5,-577.64"/>
</g>
<!-- Node0x1ed66b90 -->
<g id="node4" class="node"><title>Node0x1ed66b90</title>
<polygon fill="none" stroke="black" points="0,-441.5 0,-479.5 340,-479.5 340,-441.5 0,-441.5"/>
<text text-anchor="start" x="8" y="-464.3" font-family="Times,serif" font-size="14.00">0x406f99:</text>
<text text-anchor="start" x="8" y="-449.3" font-family="Times,serif" font-size="14.00"> GlobalFree(IntToPtrCastExpr&lt;ptr&gt;(hMem))</text>
</g>
<!-- Node0x1ed64500&#45;&gt;Node0x1ed66b90 -->
<g id="edge3" class="edge"><title>Node0x1ed64500&#45;&gt;Node0x1ed66b90</title>
<path fill="none" stroke="black" d="M293.575,-531.312C269.894,-517.934 236.8,-499.238 210.819,-484.56"/>
<polygon fill="black" stroke="black" points="212.381,-481.423 201.953,-479.551 208.938,-487.517 212.381,-481.423"/>
<text text-anchor="middle" x="302" y="-501.8" font-family="Times,serif" font-size="14.00">hMem != 0</text>
</g>
<!-- Node0x1ed651d0 -->
<g id="node5" class="node"><title>Node0x1ed651d0</title>
<polygon fill="none" stroke="black" points="268.5,-367.5 268.5,-403.5 367.5,-403.5 367.5,-367.5 268.5,-367.5"/>
<text text-anchor="start" x="276.5" y="-381.8" font-family="Times,serif" font-size="14.00">v2 = a1[&#39;1&#39;]</text>
</g>
<!-- Node0x1ed64500&#45;&gt;Node0x1ed651d0 -->
<g id="edge4" class="edge"><title>Node0x1ed64500&#45;&gt;Node0x1ed651d0</title>
<path fill="none" stroke="black" d="M337.625,-531.361C341.325,-525.808 344.889,-519.418 347,-513 357,-482.59 357.186,-471.948 349,-441 346.356,-431.003 341.405,-420.92 336.224,-412.192"/>
<polygon fill="black" stroke="black" points="339.127,-410.234 330.828,-403.647 333.208,-413.972 339.127,-410.234"/>
<text text-anchor="middle" x="398" y="-456.8" font-family="Times,serif" font-size="14.00">hMem == 0</text>
</g>
<!-- Node0x1ed66b90&#45;&gt;Node0x1ed651d0 -->
<g id="edge5" class="edge"><title>Node0x1ed66b90&#45;&gt;Node0x1ed651d0</title>
<path fill="none" stroke="black" d="M206.584,-441.455C227.015,-431.378 252.61,-418.753 274.114,-408.146"/>
<polygon fill="black" stroke="black" points="275.942,-411.148 283.362,-403.585 272.845,-404.87 275.942,-411.148"/>
</g>
<!-- Node0xd51e3e0 -->
<g id="node6" class="node"><title>Node0xd51e3e0</title>
<polygon fill="none" stroke="black" points="251,-293.5 251,-329.5 385,-329.5 385,-293.5 251,-293.5"/>
<text text-anchor="start" x="259" y="-307.8" font-family="Times,serif" font-size="14.00">if (v2 != NULL):</text>
</g>
<!-- Node0x1ed651d0&#45;&gt;Node0xd51e3e0 -->
<g id="edge6" class="edge"><title>Node0x1ed651d0&#45;&gt;Node0xd51e3e0</title>
<path fill="none" stroke="black" d="M318,-367.437C318,-359.307 318,-349.376 318,-340.205"/>
<polygon fill="black" stroke="black" points="321.5,-339.941 318,-329.941 314.5,-339.941 321.5,-339.941"/>
</g>
<!-- Node0x1ed65430 -->
<g id="node7" class="node"><title>Node0x1ed65430</title>
<polygon fill="none" stroke="black" points="112,-203.5 112,-241.5 334,-241.5 334,-203.5 112,-203.5"/>
<text text-anchor="start" x="120" y="-226.3" font-family="Times,serif" font-size="14.00">0x406fa7:</text>
<text text-anchor="start" x="120" y="-211.3" font-family="Times,serif" font-size="14.00"> free(BitCastExpr&lt;ptr&gt;(v2))</text>
</g>
<!-- Node0xd51e3e0&#45;&gt;Node0x1ed65430 -->
<g id="edge7" class="edge"><title>Node0xd51e3e0&#45;&gt;Node0x1ed65430</title>
<path fill="none" stroke="black" d="M291.418,-293.365C283.582,-287.86 275.187,-281.497 268,-275 259.456,-267.276 250.927,-258.012 243.627,-249.483"/>
<polygon fill="black" stroke="black" points="246.142,-247.036 237.045,-241.606 240.771,-251.524 246.142,-247.036"/>
<text text-anchor="middle" x="312" y="-263.8" font-family="Times,serif" font-size="14.00">v2 != NULL</text>
</g>
<!-- Node0x1ed653d0 -->
<g id="node8" class="node"><title>Node0x1ed653d0</title>
<polygon fill="none" stroke="black" points="183,-97.5 183,-165.5 471,-165.5 471,-97.5 183,-97.5"/>
<text text-anchor="start" x="191" y="-150.3" font-family="Times,serif" font-size="14.00">0x406fae:</text>
<text text-anchor="start" x="191" y="-135.3" font-family="Times,serif" font-size="14.00"> function_4048de()</text>
<text text-anchor="start" x="191" y="-120.3" font-family="Times,serif" font-size="14.00"> g9 = v1</text>
<text text-anchor="start" x="191" y="-105.3" font-family="Times,serif" font-size="14.00"> return PtrToIntCastExpr&lt;int32&gt;(v2)</text>
</g>
<!-- Node0xd51e3e0&#45;&gt;Node0x1ed653d0 -->
<g id="edge8" class="edge"><title>Node0xd51e3e0&#45;&gt;Node0x1ed653d0</title>
<path fill="none" stroke="black" d="M342.32,-293.378C347.849,-288.169 352.979,-281.956 356,-275 369.869,-243.064 360.379,-204.181 348.673,-175.105"/>
<polygon fill="black" stroke="black" points="351.784,-173.477 344.649,-165.645 345.342,-176.217 351.784,-173.477"/>
<text text-anchor="middle" x="409" y="-218.8" font-family="Times,serif" font-size="14.00">v2 == NULL</text>
</g>
<!-- Node0x1ed65430&#45;&gt;Node0x1ed653d0 -->
<g id="edge9" class="edge"><title>Node0x1ed65430&#45;&gt;Node0x1ed653d0</title>
<path fill="none" stroke="black" d="M244.046,-203.49C254.565,-194.488 267.74,-183.213 280.473,-172.317"/>
<polygon fill="black" stroke="black" points="282.994,-174.766 288.316,-165.605 278.442,-169.447 282.994,-174.766"/>
</g>
<!-- Node0x1ed664f0 -->
<g id="node9" class="node"><title>Node0x1ed664f0</title>
<polygon fill="none" stroke="black" points="300,-23.5 300,-59.5 354,-59.5 354,-23.5 300,-23.5"/>
<text text-anchor="start" x="308" y="-37.8" font-family="Times,serif" font-size="14.00">exit:</text>
</g>
<!-- Node0x1ed653d0&#45;&gt;Node0x1ed664f0 -->
<g id="edge10" class="edge"><title>Node0x1ed653d0&#45;&gt;Node0x1ed664f0</title>
<path fill="none" stroke="black" d="M327,-97.4817C327,-88.3281 327,-78.4972 327,-69.7155"/>
<polygon fill="black" stroke="black" points="330.5,-69.6402 327,-59.6402 323.5,-69.6403 330.5,-69.6402"/>
</g>
</g>
</svg>
