<?xml version="1.0" encoding="UTF-8" standalone="no"?>
<!DOCTYPE svg PUBLIC "-//W3C//DTD SVG 1.1//EN"
 "http://www.w3.org/Graphics/SVG/1.1/DTD/svg11.dtd">
<!-- Generated by graphviz version 2.38.0 (20140413.2041)
 -->
<!-- Title: Control&#45;flow graph for function &#39;function_408732(*hResData, *a2, *a3, a4)&#39;. Pages: 1 -->
<svg width="623pt" height="353pt"
 viewBox="0.00 0.00 623.00 353.00" xmlns="http://www.w3.org/2000/svg" xmlns:xlink="http://www.w3.org/1999/xlink">
<g id="graph0" class="graph" transform="scale(1 1) rotate(0) translate(4 349)">
<title>Control&#45;flow graph for function &#39;function_408732(*hResData, *a2, *a3, a4)&#39;.</title>
<polygon fill="white" stroke="none" points="-4,4 -4,-349 619,-349 619,4 -4,4"/>
<text text-anchor="middle" x="307.5" y="-7.8" font-family="Times,serif" font-size="14.00">Control&#45;flow graph for function &#39;function_408732(*hResData, *a2, *a3, a4)&#39;.</text>
<!-- Node0xd915140 -->
<g id="node1" class="node"><title>Node0xd915140</title>
<polygon fill="none" stroke="black" points="262.5,-261.5 262.5,-344.5 352.5,-344.5 352.5,-261.5 262.5,-261.5"/>
<text text-anchor="start" x="270.5" y="-329.3" font-family="Times,serif" font-size="14.00">entry:</text>
<text text-anchor="start" x="270.5" y="-314.3" font-family="Times,serif" font-size="14.00"> hResData</text>
<text text-anchor="start" x="270.5" y="-299.3" font-family="Times,serif" font-size="14.00"> a2</text>
<text text-anchor="start" x="270.5" y="-284.3" font-family="Times,serif" font-size="14.00"> a3</text>
<text text-anchor="start" x="270.5" y="-269.3" font-family="Times,serif" font-size="14.00"> a4</text>
</g>
<!-- Node0x1bb20080 -->
<g id="node2" class="node"><title>Node0x1bb20080</title>
<polygon fill="none" stroke="black" points="0,-96.5 0,-224.5 615,-224.5 615,-96.5 0,-96.5"/>
<text text-anchor="start" x="8" y="-209.3" font-family="Times,serif" font-size="14.00">0x408732:</text>
<text text-anchor="start" x="8" y="-194.3" font-family="Times,serif" font-size="14.00"> g9 = g5</text>
<text text-anchor="start" x="8" y="-179.3" font-family="Times,serif" font-size="14.00"> result = LockResource(BitCastExpr&lt;ptr&gt;(hResData))</text>
<text text-anchor="start" x="8" y="-164.3" font-family="Times,serif" font-size="14.00"> g5 = g9</text>
<text text-anchor="start" x="8" y="-149.3" font-family="Times,serif" font-size="14.00"> v1</text>
<text text-anchor="start" x="8" y="-134.3" font-family="Times,serif" font-size="14.00"> function_408707(BitCastExpr&lt;ptr&gt;(result), a2, NULL, BitCastExpr&lt;ptr&gt;(a3), v1)</text>
<text text-anchor="start" x="8" y="-119.3" font-family="Times,serif" font-size="14.00"> g9 = PtrToIntCastExpr&lt;int32&gt;(result)</text>
<text text-anchor="start" x="8" y="-104.3" font-family="Times,serif" font-size="14.00"> return result</text>
</g>
<!-- Node0xd915140&#45;&gt;Node0x1bb20080 -->
<g id="edge1" class="edge"><title>Node0xd915140&#45;&gt;Node0x1bb20080</title>
<path fill="none" stroke="black" d="M307.5,-261.362C307.5,-253 307.5,-243.953 307.5,-234.837"/>
<polygon fill="black" stroke="black" points="311,-234.548 307.5,-224.548 304,-234.548 311,-234.548"/>
</g>
<!-- Node0xd914e80 -->
<g id="node3" class="node"><title>Node0xd914e80</title>
<polygon fill="none" stroke="black" points="280.5,-23.5 280.5,-59.5 334.5,-59.5 334.5,-23.5 280.5,-23.5"/>
<text text-anchor="start" x="288.5" y="-37.8" font-family="Times,serif" font-size="14.00">exit:</text>
</g>
<!-- Node0x1bb20080&#45;&gt;Node0xd914e80 -->
<g id="edge2" class="edge"><title>Node0x1bb20080&#45;&gt;Node0xd914e80</title>
<path fill="none" stroke="black" d="M307.5,-96.206C307.5,-87.0257 307.5,-78.004 307.5,-70.0532"/>
<polygon fill="black" stroke="black" points="311,-69.9607 307.5,-59.9608 304,-69.9608 311,-69.9607"/>
</g>
</g>
</svg>
