<?xml version="1.0" encoding="UTF-8" standalone="no"?>
<!DOCTYPE svg PUBLIC "-//W3C//DTD SVG 1.1//EN"
 "http://www.w3.org/Graphics/SVG/1.1/DTD/svg11.dtd">
<!-- Generated by graphviz version 2.38.0 (20140413.2041)
 -->
<!-- Title: Control&#45;flow graph for function &#39;function_436426(*a1)&#39;. Pages: 1 -->
<svg width="420pt" height="323pt"
 viewBox="0.00 0.00 420.00 323.00" xmlns="http://www.w3.org/2000/svg" xmlns:xlink="http://www.w3.org/1999/xlink">
<g id="graph0" class="graph" transform="scale(1 1) rotate(0) translate(4 319)">
<title>Control&#45;flow graph for function &#39;function_436426(*a1)&#39;.</title>
<polygon fill="white" stroke="none" points="-4,4 -4,-319 416,-319 416,4 -4,4"/>
<text text-anchor="middle" x="206" y="-7.8" font-family="Times,serif" font-size="14.00">Control&#45;flow graph for function &#39;function_436426(*a1)&#39;.</text>
<!-- Node0x3aaaa100 -->
<g id="node1" class="node"><title>Node0x3aaaa100</title>
<polygon fill="none" stroke="black" points="176.5,-276.5 176.5,-314.5 235.5,-314.5 235.5,-276.5 176.5,-276.5"/>
<text text-anchor="start" x="184.5" y="-299.3" font-family="Times,serif" font-size="14.00">entry:</text>
<text text-anchor="start" x="184.5" y="-284.3" font-family="Times,serif" font-size="14.00"> a1</text>
</g>
<!-- Node0x3aaaa410 -->
<g id="node2" class="node"><title>Node0x3aaaa410</title>
<polygon fill="none" stroke="black" points="4,-96.5 4,-239.5 408,-239.5 408,-96.5 4,-96.5"/>
<text text-anchor="start" x="12" y="-224.3" font-family="Times,serif" font-size="14.00">v1 = 4472864</text>
<text text-anchor="start" x="12" y="-209.3" font-family="Times,serif" font-size="14.00"> __SEH_prolog4()</text>
<text text-anchor="start" x="12" y="-194.3" font-family="Times,serif" font-size="14.00"> *(IntToPtrCastExpr&lt;ptr&gt;((g3 &#45; 4))) = 0</text>
<text text-anchor="start" x="12" y="-179.3" font-family="Times,serif" font-size="14.00"> InitializeCriticalSection(IntToPtrCastExpr&lt;ptr&gt;(g5))</text>
<text text-anchor="start" x="12" y="-164.3" font-family="Times,serif" font-size="14.00"> g10 = &amp;(v1)</text>
<text text-anchor="start" x="12" y="-149.3" font-family="Times,serif" font-size="14.00"> *(IntToPtrCastExpr&lt;ptr&gt;((g3 &#45; 28))) = 0</text>
<text text-anchor="start" x="12" y="-134.3" font-family="Times,serif" font-size="14.00"> *(IntToPtrCastExpr&lt;ptr&gt;((g3 &#45; 4))) = &#45;2</text>
<text text-anchor="start" x="12" y="-119.3" font-family="Times,serif" font-size="14.00"> g2 = *(IntToPtrCastExpr&lt;ptr&gt;((g3 &#45; 28)))</text>
<text text-anchor="start" x="12" y="-104.3" font-family="Times,serif" font-size="14.00"> return unknown_424241()</text>
</g>
<!-- Node0x3aaaa100&#45;&gt;Node0x3aaaa410 -->
<g id="edge1" class="edge"><title>Node0x3aaaa100&#45;&gt;Node0x3aaaa410</title>
<path fill="none" stroke="black" d="M206,-276.251C206,-268.756 206,-259.516 206,-249.63"/>
<polygon fill="black" stroke="black" points="209.5,-249.569 206,-239.569 202.5,-249.569 209.5,-249.569"/>
</g>
<!-- Node0x3aaaa390 -->
<g id="node3" class="node"><title>Node0x3aaaa390</title>
<polygon fill="none" stroke="black" points="179,-23.5 179,-59.5 233,-59.5 233,-23.5 179,-23.5"/>
<text text-anchor="start" x="187" y="-37.8" font-family="Times,serif" font-size="14.00">exit:</text>
</g>
<!-- Node0x3aaaa410&#45;&gt;Node0x3aaaa390 -->
<g id="edge2" class="edge"><title>Node0x3aaaa410&#45;&gt;Node0x3aaaa390</title>
<path fill="none" stroke="black" d="M206,-96.3834C206,-87.0259 206,-77.9253 206,-69.9482"/>
<polygon fill="black" stroke="black" points="209.5,-69.848 206,-59.848 202.5,-69.8481 209.5,-69.848"/>
</g>
</g>
</svg>
