<?xml version="1.0" encoding="UTF-8" standalone="no"?>
<!DOCTYPE svg PUBLIC "-//W3C//DTD SVG 1.1//EN"
 "http://www.w3.org/Graphics/SVG/1.1/DTD/svg11.dtd">
<!-- Generated by graphviz version 2.38.0 (20140413.2041)
 -->
<!-- Title: Control&#45;flow graph for function &#39;function_410371(*lpFileTime)&#39;. Pages: 1 -->
<svg width="947pt" height="612pt"
 viewBox="0.00 0.00 947.00 612.00" xmlns="http://www.w3.org/2000/svg" xmlns:xlink="http://www.w3.org/1999/xlink">
<g id="graph0" class="graph" transform="scale(1 1) rotate(0) translate(4 608)">
<title>Control&#45;flow graph for function &#39;function_410371(*lpFileTime)&#39;.</title>
<polygon fill="white" stroke="none" points="-4,4 -4,-608 943,-608 943,4 -4,4"/>
<text text-anchor="middle" x="469.5" y="-7.8" font-family="Times,serif" font-size="14.00">Control&#45;flow graph for function &#39;function_410371(*lpFileTime)&#39;.</text>
<!-- Node0xc976e830 -->
<g id="node1" class="node"><title>Node0xc976e830</title>
<polygon fill="none" stroke="black" points="582,-565.5 582,-603.5 679,-603.5 679,-565.5 582,-565.5"/>
<text text-anchor="start" x="590" y="-588.3" font-family="Times,serif" font-size="14.00">entry:</text>
<text text-anchor="start" x="590" y="-573.3" font-family="Times,serif" font-size="14.00"> lpFileTime</text>
</g>
<!-- Node0xc976ed40 -->
<g id="node2" class="node"><title>Node0xc976ed40</title>
<polygon fill="none" stroke="black" points="322,-414.5 322,-527.5 939,-527.5 939,-414.5 322,-414.5"/>
<text text-anchor="start" x="330" y="-512.3" font-family="Times,serif" font-size="14.00">v1</text>
<text text-anchor="start" x="330" y="-497.3" font-family="Times,serif" font-size="14.00"> g3 = &amp;(v1)</text>
<text text-anchor="start" x="330" y="-482.3" font-family="Times,serif" font-size="14.00"> lpLocalFileTime</text>
<text text-anchor="start" x="330" y="-467.3" font-family="Times,serif" font-size="14.00"> v2 = &amp;(lpLocalFileTime)</text>
<text text-anchor="start" x="330" y="-452.3" font-family="Times,serif" font-size="14.00"> g2 = v2</text>
<text text-anchor="start" x="330" y="-437.3" font-family="Times,serif" font-size="14.00"> v3 = FileTimeToLocalFileTime(lpFileTime, BitCastExpr&lt;ptr&gt;(&amp;(lpLocalFileTime)))</text>
<text text-anchor="start" x="330" y="-422.3" font-family="Times,serif" font-size="14.00"> result</text>
</g>
<!-- Node0xc976e830&#45;&gt;Node0xc976ed40 -->
<g id="edge1" class="edge"><title>Node0xc976e830&#45;&gt;Node0xc976ed40</title>
<path fill="none" stroke="black" d="M630.5,-565.088C630.5,-557.294 630.5,-547.699 630.5,-537.661"/>
<polygon fill="black" stroke="black" points="634,-537.525 630.5,-527.525 627,-537.525 634,-537.525"/>
</g>
<!-- Node0xc976ee80 -->
<g id="node3" class="node"><title>Node0xc976ee80</title>
<polygon fill="none" stroke="black" points="603.5,-338.5 603.5,-376.5 657.5,-376.5 657.5,-338.5 603.5,-338.5"/>
<text text-anchor="start" x="611.5" y="-361.3" font-family="Times,serif" font-size="14.00">if v3:</text>
<text text-anchor="start" x="611.5" y="-346.3" font-family="Times,serif" font-size="14.00"> else:</text>
</g>
<!-- Node0xc976ed40&#45;&gt;Node0xc976ee80 -->
<g id="edge2" class="edge"><title>Node0xc976ed40&#45;&gt;Node0xc976ee80</title>
<path fill="none" stroke="black" d="M630.5,-414.25C630.5,-404.862 630.5,-395.474 630.5,-387.151"/>
<polygon fill="black" stroke="black" points="634,-386.912 630.5,-376.912 627,-386.912 634,-386.912"/>
</g>
<!-- Node0xc9770d70 -->
<g id="node4" class="node"><title>Node0xc9770d70</title>
<polygon fill="none" stroke="black" points="0,-188.5 0,-286.5 797,-286.5 797,-188.5 0,-188.5"/>
<text text-anchor="start" x="8" y="-271.3" font-family="Times,serif" font-size="14.00">0x410388:</text>
<text text-anchor="start" x="8" y="-256.3" font-family="Times,serif" font-size="14.00"> g2 = v2</text>
<text text-anchor="start" x="8" y="-241.3" font-family="Times,serif" font-size="14.00"> lpSystemTime</text>
<text text-anchor="start" x="8" y="-226.3" font-family="Times,serif" font-size="14.00"> v4 = FileTimeToSystemTime(BitCastExpr&lt;ptr&gt;(&amp;(lpLocalFileTime)), BitCastExpr&lt;ptr&gt;(&amp;(lpSystemTime)))</text>
<text text-anchor="start" x="8" y="-211.3" font-family="Times,serif" font-size="14.00"> g2 = v4</text>
<text text-anchor="start" x="8" y="-196.3" font-family="Times,serif" font-size="14.00"> result = v4</text>
</g>
<!-- Node0xc976ee80&#45;&gt;Node0xc9770d70 -->
<g id="edge3" class="edge"><title>Node0xc976ee80&#45;&gt;Node0xc9770d70</title>
<path fill="none" stroke="black" d="M603.433,-342.733C578.313,-329.957 539.289,-310.108 502.007,-291.146"/>
<polygon fill="black" stroke="black" points="503.582,-288.02 493.082,-286.606 500.408,-294.259 503.582,-288.02"/>
<text text-anchor="middle" x="564.5" y="-308.8" font-family="Times,serif" font-size="14.00">v3</text>
</g>
<!-- Node0xc9770810 -->
<g id="node5" class="node"><title>Node0xc9770810</title>
<polygon fill="none" stroke="black" points="815,-219.5 815,-255.5 912,-255.5 912,-219.5 815,-219.5"/>
<text text-anchor="start" x="823" y="-233.8" font-family="Times,serif" font-size="14.00">result = v3</text>
</g>
<!-- Node0xc976ee80&#45;&gt;Node0xc9770810 -->
<g id="edge4" class="edge"><title>Node0xc976ee80&#45;&gt;Node0xc9770810</title>
<path fill="none" stroke="black" d="M657.711,-348.823C693.428,-338.075 757.347,-316.5 806.5,-287 817.815,-280.209 829.123,-271.173 838.65,-262.742"/>
<polygon fill="black" stroke="black" points="841.161,-265.188 846.193,-255.865 836.445,-260.015 841.161,-265.188"/>
<text text-anchor="middle" x="797.5" y="-308.8" font-family="Times,serif" font-size="14.00">not (v3)</text>
</g>
<!-- Node0xc976ef00 -->
<g id="node6" class="node"><title>Node0xc976ef00</title>
<polygon fill="none" stroke="black" points="629,-97.5 629,-150.5 742,-150.5 742,-97.5 629,-97.5"/>
<text text-anchor="start" x="637" y="-135.3" font-family="Times,serif" font-size="14.00">0x41039c:</text>
<text text-anchor="start" x="637" y="-120.3" font-family="Times,serif" font-size="14.00"> g3 = v1</text>
<text text-anchor="start" x="637" y="-105.3" font-family="Times,serif" font-size="14.00"> return result</text>
</g>
<!-- Node0xc9770d70&#45;&gt;Node0xc976ef00 -->
<g id="edge5" class="edge"><title>Node0xc9770d70&#45;&gt;Node0xc976ef00</title>
<path fill="none" stroke="black" d="M522.296,-188.405C555.691,-175.431 590.536,-161.894 619.413,-150.675"/>
<polygon fill="black" stroke="black" points="620.912,-153.847 628.966,-146.964 618.377,-147.323 620.912,-153.847"/>
</g>
<!-- Node0xc9770810&#45;&gt;Node0xc976ef00 -->
<g id="edge6" class="edge"><title>Node0xc9770810&#45;&gt;Node0xc976ef00</title>
<path fill="none" stroke="black" d="M845.347,-219.216C834.546,-209.413 820.296,-197.288 806.5,-188 788.857,-176.122 768.701,-164.825 749.968,-155.163"/>
<polygon fill="black" stroke="black" points="751.404,-151.966 740.903,-150.556 748.232,-158.207 751.404,-151.966"/>
</g>
<!-- Node0xc9770720 -->
<g id="node7" class="node"><title>Node0xc9770720</title>
<polygon fill="none" stroke="black" points="658.5,-23.5 658.5,-59.5 712.5,-59.5 712.5,-23.5 658.5,-23.5"/>
<text text-anchor="start" x="666.5" y="-37.8" font-family="Times,serif" font-size="14.00">exit:</text>
</g>
<!-- Node0xc976ef00&#45;&gt;Node0xc9770720 -->
<g id="edge7" class="edge"><title>Node0xc976ef00&#45;&gt;Node0xc9770720</title>
<path fill="none" stroke="black" d="M685.5,-97.0862C685.5,-88.4596 685.5,-78.8224 685.5,-70.0748"/>
<polygon fill="black" stroke="black" points="689,-69.9735 685.5,-59.9735 682,-69.9735 689,-69.9735"/>
</g>
</g>
</svg>
