<?xml version="1.0" encoding="UTF-8" standalone="no"?>
<!DOCTYPE svg PUBLIC "-//W3C//DTD SVG 1.1//EN"
 "http://www.w3.org/Graphics/SVG/1.1/DTD/svg11.dtd">
<!-- Generated by graphviz version 2.38.0 (20140413.2041)
 -->
<!-- Title: Control&#45;flow graph for function &#39;function_40eed2(a1)&#39;. Pages: 1 -->
<svg width="411pt" height="218pt"
 viewBox="0.00 0.00 411.00 218.00" xmlns="http://www.w3.org/2000/svg" xmlns:xlink="http://www.w3.org/1999/xlink">
<g id="graph0" class="graph" transform="scale(1 1) rotate(0) translate(4 214)">
<title>Control&#45;flow graph for function &#39;function_40eed2(a1)&#39;.</title>
<polygon fill="white" stroke="none" points="-4,4 -4,-214 407,-214 407,4 -4,4"/>
<text text-anchor="middle" x="201.5" y="-7.8" font-family="Times,serif" font-size="14.00">Control&#45;flow graph for function &#39;function_40eed2(a1)&#39;.</text>
<!-- Node0x1bcaef30 -->
<g id="node1" class="node"><title>Node0x1bcaef30</title>
<polygon fill="none" stroke="black" points="172,-171.5 172,-209.5 231,-209.5 231,-171.5 172,-171.5"/>
<text text-anchor="start" x="180" y="-194.3" font-family="Times,serif" font-size="14.00">entry:</text>
<text text-anchor="start" x="180" y="-179.3" font-family="Times,serif" font-size="14.00"> a1</text>
</g>
<!-- Node0x9dc3c640 -->
<g id="node2" class="node"><title>Node0x9dc3c640</title>
<polygon fill="none" stroke="black" points="46,-96.5 46,-134.5 357,-134.5 357,-96.5 46,-96.5"/>
<text text-anchor="start" x="54" y="-119.3" font-family="Times,serif" font-size="14.00">0x40eed2:</text>
<text text-anchor="start" x="54" y="-104.3" font-family="Times,serif" font-size="14.00"> *(IntToPtrCastExpr&lt;ptr&gt;((g5 + 4))) = 0</text>
</g>
<!-- Node0x1bcaef30&#45;&gt;Node0x9dc3c640 -->
<g id="edge1" class="edge"><title>Node0x1bcaef30&#45;&gt;Node0x9dc3c640</title>
<path fill="none" stroke="black" d="M201.5,-171.455C201.5,-163.383 201.5,-153.676 201.5,-144.682"/>
<polygon fill="black" stroke="black" points="205,-144.59 201.5,-134.59 198,-144.59 205,-144.59"/>
</g>
<!-- Node0x9dc3c3d0 -->
<g id="node3" class="node"><title>Node0x9dc3c3d0</title>
<polygon fill="none" stroke="black" points="174.5,-23.5 174.5,-59.5 228.5,-59.5 228.5,-23.5 174.5,-23.5"/>
<text text-anchor="start" x="182.5" y="-37.8" font-family="Times,serif" font-size="14.00">exit:</text>
</g>
<!-- Node0x9dc3c640&#45;&gt;Node0x9dc3c3d0 -->
<g id="edge2" class="edge"><title>Node0x9dc3c640&#45;&gt;Node0x9dc3c3d0</title>
<path fill="none" stroke="black" d="M201.5,-96.3314C201.5,-88.394 201.5,-78.9095 201.5,-70.1285"/>
<polygon fill="black" stroke="black" points="205,-69.9177 201.5,-59.9177 198,-69.9177 205,-69.9177"/>
</g>
</g>
</svg>
