<?xml version="1.0" encoding="UTF-8" standalone="no"?>
<!DOCTYPE svg PUBLIC "-//W3C//DTD SVG 1.1//EN"
 "http://www.w3.org/Graphics/SVG/1.1/DTD/svg11.dtd">
<!-- Generated by graphviz version 2.38.0 (20140413.2041)
 -->
<!-- Title: Control&#45;flow graph for function &#39;function_409a8b()&#39;. Pages: 1 -->
<svg width="1132pt" height="775pt"
 viewBox="0.00 0.00 1132.00 775.00" xmlns="http://www.w3.org/2000/svg" xmlns:xlink="http://www.w3.org/1999/xlink">
<g id="graph0" class="graph" transform="scale(1 1) rotate(0) translate(4 771)">
<title>Control&#45;flow graph for function &#39;function_409a8b()&#39;.</title>
<polygon fill="white" stroke="none" points="-4,4 -4,-771 1128,-771 1128,4 -4,4"/>
<text text-anchor="middle" x="562" y="-7.8" font-family="Times,serif" font-size="14.00">Control&#45;flow graph for function &#39;function_409a8b()&#39;.</text>
<!-- Node0x90c12ae0 -->
<g id="node1" class="node"><title>Node0x90c12ae0</title>
<polygon fill="none" stroke="black" points="311,-730.5 311,-766.5 370,-766.5 370,-730.5 311,-730.5"/>
<text text-anchor="start" x="319" y="-744.8" font-family="Times,serif" font-size="14.00">entry:</text>
</g>
<!-- Node0x90c13fd0 -->
<g id="node2" class="node"><title>Node0x90c13fd0</title>
<polygon fill="none" stroke="black" points="115.5,-504.5 115.5,-692.5 565.5,-692.5 565.5,-504.5 115.5,-504.5"/>
<text text-anchor="start" x="123.5" y="-677.3" font-family="Times,serif" font-size="14.00">__SEH_prolog4()</text>
<text text-anchor="start" x="123.5" y="-662.3" font-family="Times,serif" font-size="14.00"> g4 = 0</text>
<text text-anchor="start" x="123.5" y="-647.3" font-family="Times,serif" font-size="14.00"> *(IntToPtrCastExpr&lt;ptr&gt;((g3 &#45; 32))) = 0</text>
<text text-anchor="start" x="123.5" y="-632.3" font-family="Times,serif" font-size="14.00"> v1 = (g3 &#45; 32)</text>
<text text-anchor="start" x="123.5" y="-617.3" font-family="Times,serif" font-size="14.00"> g2 = v1</text>
<text text-anchor="start" x="123.5" y="-602.3" font-family="Times,serif" font-size="14.00"> v2 = *(IntToPtrCastExpr&lt;ptr&gt;((function_41022a() + 128)))</text>
<text text-anchor="start" x="123.5" y="-587.3" font-family="Times,serif" font-size="14.00"> v3 = IntToPtrCastExpr&lt;ptr&gt;(v2)</text>
<text text-anchor="start" x="123.5" y="-572.3" font-family="Times,serif" font-size="14.00"> v4 = function_40fa52(v2, IntToPtrCastExpr&lt;ptr&gt;(v1))</text>
<text text-anchor="start" x="123.5" y="-557.3" font-family="Times,serif" font-size="14.00"> *(IntToPtrCastExpr&lt;ptr&gt;((g3 &#45; 36))) = v4</text>
<text text-anchor="start" x="123.5" y="-542.3" font-family="Times,serif" font-size="14.00"> *(IntToPtrCastExpr&lt;ptr&gt;((g3 &#45; 28))) = g4</text>
<text text-anchor="start" x="123.5" y="-527.3" font-family="Times,serif" font-size="14.00"> v5 = g4</text>
<text text-anchor="start" x="123.5" y="-512.3" font-family="Times,serif" font-size="14.00"> v6</text>
</g>
<!-- Node0x90c12ae0&#45;&gt;Node0x90c13fd0 -->
<g id="edge1" class="edge"><title>Node0x90c12ae0&#45;&gt;Node0x90c13fd0</title>
<path fill="none" stroke="black" d="M340.5,-730.233C340.5,-722.721 340.5,-713.26 340.5,-702.877"/>
<polygon fill="black" stroke="black" points="344,-702.674 340.5,-692.674 337,-702.675 344,-702.674"/>
</g>
<!-- Node0x90c14400 -->
<g id="node3" class="node"><title>Node0x90c14400</title>
<polygon fill="none" stroke="black" points="284,-428.5 284,-466.5 397,-466.5 397,-428.5 284,-428.5"/>
<text text-anchor="start" x="292" y="-451.3" font-family="Times,serif" font-size="14.00">if (v4 == v5):</text>
<text text-anchor="start" x="292" y="-436.3" font-family="Times,serif" font-size="14.00"> else:</text>
</g>
<!-- Node0x90c13fd0&#45;&gt;Node0x90c14400 -->
<g id="edge2" class="edge"><title>Node0x90c13fd0&#45;&gt;Node0x90c14400</title>
<path fill="none" stroke="black" d="M340.5,-504.406C340.5,-494.426 340.5,-484.921 340.5,-476.673"/>
<polygon fill="black" stroke="black" points="344,-476.619 340.5,-466.619 337,-476.619 344,-476.619"/>
</g>
<!-- Node0x90c14680 -->
<g id="node4" class="node"><title>Node0x90c14680</title>
<polygon fill="none" stroke="black" points="0,-248.5 0,-316.5 111,-316.5 111,-248.5 0,-248.5"/>
<text text-anchor="start" x="8" y="-301.3" font-family="Times,serif" font-size="14.00">0x409aba:</text>
<text text-anchor="start" x="8" y="-286.3" font-family="Times,serif" font-size="14.00"> g1 = False</text>
<text text-anchor="start" x="8" y="-271.3" font-family="Times,serif" font-size="14.00"> g180 = True</text>
<text text-anchor="start" x="8" y="-256.3" font-family="Times,serif" font-size="14.00"> v6 = 0</text>
</g>
<!-- Node0x90c14400&#45;&gt;Node0x90c14680 -->
<g id="edge3" class="edge"><title>Node0x90c14400&#45;&gt;Node0x90c14680</title>
<path fill="none" stroke="black" d="M283.939,-439.028C236.547,-430.479 169.045,-412.741 120.5,-377 102.304,-363.603 87.3988,-343.531 76.4734,-325.414"/>
<polygon fill="black" stroke="black" points="79.4749,-323.613 71.4327,-316.716 73.4183,-327.123 79.4749,-323.613"/>
<text text-anchor="middle" x="209.5" y="-398.8" font-family="Times,serif" font-size="14.00">v4 == v5</text>
</g>
<!-- Node0x90c14700 -->
<g id="node5" class="node"><title>Node0x90c14700</title>
<polygon fill="none" stroke="black" points="129,-188.5 129,-376.5 1124,-376.5 1124,-188.5 129,-188.5"/>
<text text-anchor="start" x="137" y="-361.3" font-family="Times,serif" font-size="14.00">0x409abe:</text>
<text text-anchor="start" x="137" y="-346.3" font-family="Times,serif" font-size="14.00"> *(IntToPtrCastExpr&lt;ptr&gt;((g3 &#45; 4))) = v5</text>
<text text-anchor="start" x="137" y="-331.3" font-family="Times,serif" font-size="14.00"> v7 = g3</text>
<text text-anchor="start" x="137" y="-316.3" font-family="Times,serif" font-size="14.00"> lpWndClass = *(IntToPtrCastExpr&lt;ptr&gt;((v7 + 16)))</text>
<text text-anchor="start" x="137" y="-301.3" font-family="Times,serif" font-size="14.00"> lpClassName = *(IntToPtrCastExpr&lt;ptr&gt;((v7 + 12)))</text>
<text text-anchor="start" x="137" y="-286.3" font-family="Times,serif" font-size="14.00"> hInstance = *(IntToPtrCastExpr&lt;ptr&gt;((v7 + 8)))</text>
<text text-anchor="start" x="137" y="-271.3" font-family="Times,serif" font-size="14.00"> v8 = GetClassInfoA(IntToPtrCastExpr&lt;ptr&gt;(hInstance), IntToPtrCastExpr&lt;ptr&gt;(lpClassName), IntToPtrCastExpr&lt;ptr&gt;(lpWndClass))</text>
<text text-anchor="start" x="137" y="-256.3" font-family="Times,serif" font-size="14.00"> g10 = PtrToIntCastExpr&lt;int32&gt;(&amp;(v3))</text>
<text text-anchor="start" x="137" y="-241.3" font-family="Times,serif" font-size="14.00"> *(IntToPtrCastExpr&lt;ptr&gt;((g3 &#45; 28))) = v8</text>
<text text-anchor="start" x="137" y="-226.3" font-family="Times,serif" font-size="14.00"> *(IntToPtrCastExpr&lt;ptr&gt;((g3 &#45; 4))) = &#45;2</text>
<text text-anchor="start" x="137" y="-211.3" font-family="Times,serif" font-size="14.00"> function_409aea(PtrToIntCastExpr&lt;int32&gt;(v3))</text>
<text text-anchor="start" x="137" y="-196.3" font-family="Times,serif" font-size="14.00"> v6 = *(IntToPtrCastExpr&lt;ptr&gt;((g3 &#45; 28)))</text>
</g>
<!-- Node0x90c14400&#45;&gt;Node0x90c14700 -->
<g id="edge4" class="edge"><title>Node0x90c14400&#45;&gt;Node0x90c14700</title>
<path fill="none" stroke="black" d="M372.2,-428.433C393.27,-416.425 422.778,-399.607 454.262,-381.664"/>
<polygon fill="black" stroke="black" points="456.233,-384.569 463.188,-376.576 452.767,-378.487 456.233,-384.569"/>
<text text-anchor="middle" x="456.5" y="-398.8" font-family="Times,serif" font-size="14.00">v4 != v5</text>
</g>
<!-- Node0x90c14570 -->
<g id="node6" class="node"><title>Node0x90c14570</title>
<polygon fill="none" stroke="black" points="304,-97.5 304,-150.5 513,-150.5 513,-97.5 304,-97.5"/>
<text text-anchor="start" x="312" y="-135.3" font-family="Times,serif" font-size="14.00">0x409ae2:</text>
<text text-anchor="start" x="312" y="-120.3" font-family="Times,serif" font-size="14.00"> g2 = v6</text>
<text text-anchor="start" x="312" y="-105.3" font-family="Times,serif" font-size="14.00"> return unknown_424241()</text>
</g>
<!-- Node0x90c14680&#45;&gt;Node0x90c14570 -->
<g id="edge5" class="edge"><title>Node0x90c14680&#45;&gt;Node0x90c14570</title>
<path fill="none" stroke="black" d="M70.7117,-248.067C81.7005,-227.652 98.4773,-202.724 120.5,-188 171.476,-153.918 237.816,-137.938 293.976,-130.582"/>
<polygon fill="black" stroke="black" points="294.48,-134.046 303.976,-129.348 293.622,-127.099 294.48,-134.046"/>
</g>
<!-- Node0x90c14700&#45;&gt;Node0x90c14570 -->
<g id="edge6" class="edge"><title>Node0x90c14700&#45;&gt;Node0x90c14570</title>
<path fill="none" stroke="black" d="M496.855,-188.429C481.104,-177.121 465.95,-166.243 452.774,-156.784"/>
<polygon fill="black" stroke="black" points="454.58,-153.772 444.415,-150.783 450.498,-159.458 454.58,-153.772"/>
</g>
<!-- Node0x90c13f50 -->
<g id="node7" class="node"><title>Node0x90c13f50</title>
<polygon fill="none" stroke="black" points="381.5,-23.5 381.5,-59.5 435.5,-59.5 435.5,-23.5 381.5,-23.5"/>
<text text-anchor="start" x="389.5" y="-37.8" font-family="Times,serif" font-size="14.00">exit:</text>
</g>
<!-- Node0x90c14570&#45;&gt;Node0x90c13f50 -->
<g id="edge7" class="edge"><title>Node0x90c14570&#45;&gt;Node0x90c13f50</title>
<path fill="none" stroke="black" d="M408.5,-97.0862C408.5,-88.4596 408.5,-78.8224 408.5,-70.0748"/>
<polygon fill="black" stroke="black" points="412,-69.9735 408.5,-59.9735 405,-69.9735 412,-69.9735"/>
</g>
</g>
</svg>
