<?xml version="1.0" encoding="UTF-8" standalone="no"?>
<!DOCTYPE svg PUBLIC "-//W3C//DTD SVG 1.1//EN"
 "http://www.w3.org/Graphics/SVG/1.1/DTD/svg11.dtd">
<!-- Generated by graphviz version 2.38.0 (20140413.2041)
 -->
<!-- Title: Control&#45;flow graph for function &#39;function_41a628()&#39;. Pages: 1 -->
<svg width="1482pt" height="1424pt"
 viewBox="0.00 0.00 1481.50 1424.00" xmlns="http://www.w3.org/2000/svg" xmlns:xlink="http://www.w3.org/1999/xlink">
<g id="graph0" class="graph" transform="scale(1 1) rotate(0) translate(4 1420)">
<title>Control&#45;flow graph for function &#39;function_41a628()&#39;.</title>
<polygon fill="white" stroke="none" points="-4,4 -4,-1420 1477.5,-1420 1477.5,4 -4,4"/>
<text text-anchor="middle" x="736.75" y="-7.8" font-family="Times,serif" font-size="14.00">Control&#45;flow graph for function &#39;function_41a628()&#39;.</text>
<!-- Node0x11687ba0 -->
<g id="node1" class="node"><title>Node0x11687ba0</title>
<polygon fill="none" stroke="black" points="147,-1379.5 147,-1415.5 206,-1415.5 206,-1379.5 147,-1379.5"/>
<text text-anchor="start" x="155" y="-1393.8" font-family="Times,serif" font-size="14.00">entry:</text>
</g>
<!-- Node0x11686f60 -->
<g id="node2" class="node"><title>Node0x11686f60</title>
<polygon fill="none" stroke="black" points="38.5,-1258.5 38.5,-1341.5 314.5,-1341.5 314.5,-1258.5 38.5,-1258.5"/>
<text text-anchor="start" x="46.5" y="-1326.3" font-family="Times,serif" font-size="14.00">v1</text>
<text text-anchor="start" x="46.5" y="-1311.3" font-family="Times,serif" font-size="14.00"> g10 = &amp;(v1)</text>
<text text-anchor="start" x="46.5" y="-1296.3" font-family="Times,serif" font-size="14.00"> v2</text>
<text text-anchor="start" x="46.5" y="-1281.3" font-family="Times,serif" font-size="14.00"> v3 = PtrToIntCastExpr&lt;int32&gt;(v2)</text>
<text text-anchor="start" x="46.5" y="-1266.3" font-family="Times,serif" font-size="14.00"> g9 = v3</text>
</g>
<!-- Node0x11687ba0&#45;&gt;Node0x11686f60 -->
<g id="edge1" class="edge"><title>Node0x11687ba0&#45;&gt;Node0x11686f60</title>
<path fill="none" stroke="black" d="M176.5,-1379.43C176.5,-1371.62 176.5,-1361.92 176.5,-1352.03"/>
<polygon fill="black" stroke="black" points="180,-1351.73 176.5,-1341.73 173,-1351.73 180,-1351.73"/>
</g>
<!-- Node0x1168b590 -->
<g id="node3" class="node"><title>Node0x1168b590</title>
<polygon fill="none" stroke="black" points="106.5,-1184.5 106.5,-1220.5 246.5,-1220.5 246.5,-1184.5 106.5,-1184.5"/>
<text text-anchor="start" x="114.5" y="-1198.8" font-family="Times,serif" font-size="14.00">if (v2 == NULL):</text>
</g>
<!-- Node0x11686f60&#45;&gt;Node0x1168b590 -->
<g id="edge2" class="edge"><title>Node0x11686f60&#45;&gt;Node0x1168b590</title>
<path fill="none" stroke="black" d="M176.5,-1258.5C176.5,-1249.21 176.5,-1239.54 176.5,-1230.95"/>
<polygon fill="black" stroke="black" points="180,-1230.75 176.5,-1220.75 173,-1230.75 180,-1230.75"/>
</g>
<!-- Node0x903f7560 -->
<g id="node4" class="node"><title>Node0x903f7560</title>
<polygon fill="none" stroke="black" points="0,-947.5 0,-1015.5 91,-1015.5 91,-947.5 0,-947.5"/>
<text text-anchor="start" x="8" y="-1000.3" font-family="Times,serif" font-size="14.00">0x41a64e:</text>
<text text-anchor="start" x="8" y="-985.3" font-family="Times,serif" font-size="14.00"> g2 = 0</text>
<text text-anchor="start" x="8" y="-970.3" font-family="Times,serif" font-size="14.00"> g9 = v1</text>
<text text-anchor="start" x="8" y="-955.3" font-family="Times,serif" font-size="14.00"> return</text>
</g>
<!-- Node0x1168b590&#45;&gt;Node0x903f7560 -->
<g id="edge3" class="edge"><title>Node0x1168b590&#45;&gt;Node0x903f7560</title>
<path fill="none" stroke="black" d="M145.482,-1184.31C126.447,-1172.26 103.016,-1154.5 88.5,-1133 66.6851,-1100.69 55.8161,-1057.32 50.4758,-1025.44"/>
<polygon fill="black" stroke="black" points="53.9282,-1024.87 48.9294,-1015.52 47.0118,-1025.94 53.9282,-1024.87"/>
<text text-anchor="middle" x="167.5" y="-1154.8" font-family="Times,serif" font-size="14.00">v2 == NULL</text>
</g>
<!-- Node0x903ef150 -->
<g id="node5" class="node"><title>Node0x903ef150</title>
<polygon fill="none" stroke="black" points="97.5,-1034.5 97.5,-1132.5 795.5,-1132.5 795.5,-1034.5 97.5,-1034.5"/>
<text text-anchor="start" x="105.5" y="-1117.3" font-family="Times,serif" font-size="14.00">v4 = v2[&#39;1&#39;]</text>
<text text-anchor="start" x="105.5" y="-1102.3" font-family="Times,serif" font-size="14.00"> v5 = ((PtrToIntCastExpr&lt;int32&gt;(v4) &amp; 1) != 0)</text>
<text text-anchor="start" x="105.5" y="-1087.3" font-family="Times,serif" font-size="14.00"> hWnd = *(IntToPtrCastExpr&lt;ptr&gt;((v3 if ((PtrToIntCastExpr&lt;int32&gt;(v4) &amp; 1) == 0) else v5)))</text>
<text text-anchor="start" x="105.5" y="-1072.3" font-family="Times,serif" font-size="14.00"> g5 = hWnd</text>
<text text-anchor="start" x="105.5" y="-1057.3" font-family="Times,serif" font-size="14.00"> v6</text>
<text text-anchor="start" x="105.5" y="-1042.3" font-family="Times,serif" font-size="14.00"> v7</text>
</g>
<!-- Node0x1168b590&#45;&gt;Node0x903ef150 -->
<g id="edge4" class="edge"><title>Node0x1168b590&#45;&gt;Node0x903ef150</title>
<path fill="none" stroke="black" d="M215.76,-1184.49C245.001,-1171.82 286.588,-1153.8 326.421,-1136.53"/>
<polygon fill="black" stroke="black" points="327.907,-1139.7 335.691,-1132.52 325.124,-1133.28 327.907,-1139.7"/>
<text text-anchor="middle" x="331.5" y="-1154.8" font-family="Times,serif" font-size="14.00">v2 != NULL</text>
</g>
<!-- Node0x903ed8b0 -->
<g id="node6" class="node"><title>Node0x903ed8b0</title>
<polygon fill="none" stroke="black" points="628.5,-23.5 628.5,-59.5 682.5,-59.5 682.5,-23.5 628.5,-23.5"/>
<text text-anchor="start" x="636.5" y="-37.8" font-family="Times,serif" font-size="14.00">exit:</text>
</g>
<!-- Node0x903f7560&#45;&gt;Node0x903ed8b0 -->
<g id="edge5" class="edge"><title>Node0x903f7560&#45;&gt;Node0x903ed8b0</title>
<path fill="none" stroke="black" d="M44.6053,-947.374C44.0728,-924.853 43.5,-894.381 43.5,-867.5 43.5,-867.5 43.5,-867.5 43.5,-130.5 43.5,-72.1037 485.698,-49.4002 618.334,-43.9038"/>
<polygon fill="black" stroke="black" points="618.564,-47.3975 628.413,-43.4948 618.28,-40.4032 618.564,-47.3975"/>
</g>
<!-- Node0x11687b40 -->
<g id="node7" class="node"><title>Node0x11687b40</title>
<polygon fill="none" stroke="black" points="401.5,-892.5 401.5,-928.5 525.5,-928.5 525.5,-892.5 401.5,-892.5"/>
<text text-anchor="start" x="409.5" y="-906.8" font-family="Times,serif" font-size="14.00">if (hWnd != 0):</text>
</g>
<!-- Node0x903ef150&#45;&gt;Node0x11687b40 -->
<g id="edge6" class="edge"><title>Node0x903ef150&#45;&gt;Node0x11687b40</title>
<path fill="none" stroke="black" d="M451.281,-1034.41C454.357,-1003.47 458.243,-964.38 460.796,-938.696"/>
<polygon fill="black" stroke="black" points="464.296,-938.869 461.803,-928.572 457.331,-938.176 464.296,-938.869"/>
</g>
<!-- Node0x903f72e0 -->
<g id="node8" class="node"><title>Node0x903f72e0</title>
<polygon fill="none" stroke="black" points="613.5,-533.5 613.5,-571.5 1057.5,-571.5 1057.5,-533.5 613.5,-533.5"/>
<text text-anchor="start" x="621.5" y="-556.3" font-family="Times,serif" font-size="14.00">0x41a643:</text>
<text text-anchor="start" x="621.5" y="-541.3" font-family="Times,serif" font-size="14.00"> if not (IsWindowEnabled(IntToPtrCastExpr&lt;ptr&gt;(hWnd))):</text>
</g>
<!-- Node0x11687b40&#45;&gt;Node0x903f72e0 -->
<g id="edge7" class="edge"><title>Node0x11687b40&#45;&gt;Node0x903f72e0</title>
<path fill="none" stroke="black" d="M525.764,-906.464C631.664,-899.582 835.5,-878.136 835.5,-815 835.5,-815 835.5,-815 835.5,-641.5 835.5,-621.699 835.5,-599.391 835.5,-582.19"/>
<polygon fill="black" stroke="black" points="839,-581.702 835.5,-571.702 832,-581.702 839,-581.702"/>
<text text-anchor="middle" x="875" y="-727.8" font-family="Times,serif" font-size="14.00">hWnd != 0</text>
</g>
<!-- Node0x11686fc0 -->
<g id="node9" class="node"><title>Node0x11686fc0</title>
<polygon fill="none" stroke="black" points="269,-787.5 269,-840.5 658,-840.5 658,-787.5 269,-787.5"/>
<text text-anchor="start" x="277" y="-825.3" font-family="Times,serif" font-size="14.00">0x41a652:</text>
<text text-anchor="start" x="277" y="-810.3" font-family="Times,serif" font-size="14.00"> g1 = False</text>
<text text-anchor="start" x="277" y="-795.3" font-family="Times,serif" font-size="14.00"> g180 = ((PtrToIntCastExpr&lt;int32&gt;(v4) &amp; 1) == 0)</text>
</g>
<!-- Node0x11687b40&#45;&gt;Node0x11686fc0 -->
<g id="edge8" class="edge"><title>Node0x11687b40&#45;&gt;Node0x11686fc0</title>
<path fill="none" stroke="black" d="M463.5,-892.167C463.5,-880.703 463.5,-865.247 463.5,-851.178"/>
<polygon fill="black" stroke="black" points="467,-850.78 463.5,-840.78 460,-850.78 467,-850.78"/>
<text text-anchor="middle" x="506" y="-862.8" font-family="Times,serif" font-size="14.00">hWnd == 0</text>
</g>
<!-- Node0x903eddf0 -->
<g id="node10" class="node"><title>Node0x903eddf0</title>
<polygon fill="none" stroke="black" points="654,-326.5 654,-394.5 745,-394.5 745,-326.5 654,-326.5"/>
<text text-anchor="start" x="662" y="-379.3" font-family="Times,serif" font-size="14.00">0x41a64e:</text>
<text text-anchor="start" x="662" y="-364.3" font-family="Times,serif" font-size="14.00"> g2 = 0</text>
<text text-anchor="start" x="662" y="-349.3" font-family="Times,serif" font-size="14.00"> g9 = v1</text>
<text text-anchor="start" x="662" y="-334.3" font-family="Times,serif" font-size="14.00"> return</text>
</g>
<!-- Node0x903f72e0&#45;&gt;Node0x903eddf0 -->
<g id="edge9" class="edge"><title>Node0x903f72e0&#45;&gt;Node0x903eddf0</title>
<path fill="none" stroke="black" d="M725.52,-533.49C708.315,-528.521 694.291,-522.405 688.5,-515 664.232,-483.969 671.567,-437.763 682.152,-404.156"/>
<polygon fill="black" stroke="black" points="685.496,-405.193 685.355,-394.599 678.859,-402.969 685.496,-405.193"/>
<text text-anchor="middle" x="891" y="-503.8" font-family="Times,serif" font-size="14.00">not (IsWindowEnabled(IntToPtrCastExpr&lt;ptr&gt;(hWnd)))</text>
</g>
<!-- Node0x903f0010 -->
<g id="node11" class="node"><title>Node0x903f0010</title>
<polygon fill="none" stroke="black" points="973,-413.5 973,-481.5 1250,-481.5 1250,-413.5 973,-413.5"/>
<text text-anchor="start" x="981" y="-466.3" font-family="Times,serif" font-size="14.00">0x41a664:</text>
<text text-anchor="start" x="981" y="-451.3" font-family="Times,serif" font-size="14.00"> v6 = v2</text>
<text text-anchor="start" x="981" y="-436.3" font-family="Times,serif" font-size="14.00"> v7 = v6[&#39;1&#39;]</text>
<text text-anchor="start" x="981" y="-421.3" font-family="Times,serif" font-size="14.00"> g9 = PtrToIntCastExpr&lt;int32&gt;(v7)</text>
</g>
<!-- Node0x903f72e0&#45;&gt;Node0x903f0010 -->
<g id="edge10" class="edge"><title>Node0x903f72e0&#45;&gt;Node0x903f0010</title>
<path fill="none" stroke="black" d="M1056.52,-533.484C1074.75,-528.69 1089.32,-522.638 1097.5,-515 1104.08,-508.859 1107.98,-500.473 1110.22,-491.724"/>
<polygon fill="black" stroke="black" points="1113.68,-492.269 1112.09,-481.794 1106.8,-490.974 1113.68,-492.269"/>
<text text-anchor="middle" x="1290" y="-503.8" font-family="Times,serif" font-size="14.00">IsWindowEnabled(IntToPtrCastExpr&lt;ptr&gt;(hWnd))</text>
</g>
<!-- Node0x903ef1b0 -->
<g id="node12" class="node"><title>Node0x903ef1b0</title>
<polygon fill="none" stroke="black" points="293.5,-713.5 293.5,-749.5 633.5,-749.5 633.5,-713.5 293.5,-713.5"/>
<text text-anchor="start" x="301.5" y="-727.8" font-family="Times,serif" font-size="14.00">if ((PtrToIntCastExpr&lt;int32&gt;(v4) &amp; 1) != 0):</text>
</g>
<!-- Node0x11686fc0&#45;&gt;Node0x903ef1b0 -->
<g id="edge11" class="edge"><title>Node0x11686fc0&#45;&gt;Node0x903ef1b0</title>
<path fill="none" stroke="black" d="M463.5,-787.086C463.5,-778.46 463.5,-768.822 463.5,-760.075"/>
<polygon fill="black" stroke="black" points="467,-759.973 463.5,-749.974 460,-759.974 467,-759.973"/>
</g>
<!-- Node0x903eddf0&#45;&gt;Node0x903ed8b0 -->
<g id="edge12" class="edge"><title>Node0x903eddf0&#45;&gt;Node0x903ed8b0</title>
<path fill="none" stroke="black" d="M700.672,-326.404C701.357,-305.383 702.154,-277.598 702.5,-253 702.932,-222.336 707.11,-214.318 702.5,-184 695.082,-135.219 685.895,-124.538 669.5,-78 668.476,-75.0944 667.363,-72.073 666.225,-69.0739"/>
<polygon fill="black" stroke="black" points="669.481,-67.7886 662.594,-59.7378 662.957,-70.3264 669.481,-67.7886"/>
</g>
<!-- Node0x903f0070 -->
<g id="node13" class="node"><title>Node0x903f0070</title>
<polygon fill="none" stroke="black" points="916.5,-271.5 916.5,-307.5 1214.5,-307.5 1214.5,-271.5 916.5,-271.5"/>
<text text-anchor="start" x="924.5" y="-285.8" font-family="Times,serif" font-size="14.00">if ((v7 == NULL) or (v6[&#39;3&#39;] == 8192)):</text>
</g>
<!-- Node0x903f0010&#45;&gt;Node0x903f0070 -->
<g id="edge13" class="edge"><title>Node0x903f0010&#45;&gt;Node0x903f0070</title>
<path fill="none" stroke="black" d="M1101.74,-413.416C1093.32,-384.834 1081.29,-344.045 1073.44,-317.423"/>
<polygon fill="black" stroke="black" points="1076.74,-316.233 1070.55,-307.632 1070.02,-318.213 1076.74,-316.233"/>
</g>
<!-- Node0x903f0880 -->
<g id="node14" class="node"><title>Node0x903f0880</title>
<polygon fill="none" stroke="black" points="121.5,-623.5 121.5,-661.5 807.5,-661.5 807.5,-623.5 121.5,-623.5"/>
<text text-anchor="start" x="129.5" y="-646.3" font-family="Times,serif" font-size="14.00">v8 = *(IntToPtrCastExpr&lt;ptr&gt;(v5))</text>
<text text-anchor="start" x="129.5" y="-631.3" font-family="Times,serif" font-size="14.00"> IntToPtrCastExpr&lt;ptr&gt;(*(IntToPtrCastExpr&lt;ptr&gt;(ExtCastExpr&lt;int32&gt;(((v8 &amp; 1) != 0)))))()</text>
</g>
<!-- Node0x903ef1b0&#45;&gt;Node0x903f0880 -->
<g id="edge14" class="edge"><title>Node0x903ef1b0&#45;&gt;Node0x903f0880</title>
<path fill="none" stroke="black" d="M463.698,-713.312C463.833,-701.511 464.016,-685.572 464.174,-671.904"/>
<polygon fill="black" stroke="black" points="467.677,-671.591 464.293,-661.551 460.678,-671.51 467.677,-671.591"/>
<text text-anchor="middle" x="612" y="-683.8" font-family="Times,serif" font-size="14.00">(PtrToIntCastExpr&lt;int32&gt;(v4) &amp; 1) != 0</text>
</g>
<!-- Node0x903f6a20 -->
<g id="node15" class="node"><title>Node0x903f6a20</title>
<polygon fill="none" stroke="black" points="148,-413.5 148,-481.5 425,-481.5 425,-413.5 148,-413.5"/>
<text text-anchor="start" x="156" y="-466.3" font-family="Times,serif" font-size="14.00">0x41a664:</text>
<text text-anchor="start" x="156" y="-451.3" font-family="Times,serif" font-size="14.00"> v6 = v2</text>
<text text-anchor="start" x="156" y="-436.3" font-family="Times,serif" font-size="14.00"> v7 = v6[&#39;1&#39;]</text>
<text text-anchor="start" x="156" y="-421.3" font-family="Times,serif" font-size="14.00"> g9 = PtrToIntCastExpr&lt;int32&gt;(v7)</text>
</g>
<!-- Node0x903ef1b0&#45;&gt;Node0x903f6a20 -->
<g id="edge15" class="edge"><title>Node0x903ef1b0&#45;&gt;Node0x903f6a20</title>
<path fill="none" stroke="black" d="M293.062,-717.571C215.774,-707.812 136.333,-690.933 112.5,-662 62.2087,-600.945 149.569,-529.647 217.682,-486.838"/>
<polygon fill="black" stroke="black" points="219.641,-489.742 226.304,-481.504 215.958,-483.789 219.641,-489.742"/>
<text text-anchor="middle" x="256" y="-593.8" font-family="Times,serif" font-size="14.00">(PtrToIntCastExpr&lt;int32&gt;(v4) &amp; 1) == 0</text>
</g>
<!-- Node0x903ede90 -->
<g id="node16" class="node"><title>Node0x903ede90</title>
<polygon fill="none" stroke="black" points="937,-97.5 937,-165.5 1028,-165.5 1028,-97.5 937,-97.5"/>
<text text-anchor="start" x="945" y="-150.3" font-family="Times,serif" font-size="14.00">0x41a64e:</text>
<text text-anchor="start" x="945" y="-135.3" font-family="Times,serif" font-size="14.00"> g2 = 0</text>
<text text-anchor="start" x="945" y="-120.3" font-family="Times,serif" font-size="14.00"> g9 = v1</text>
<text text-anchor="start" x="945" y="-105.3" font-family="Times,serif" font-size="14.00"> return</text>
</g>
<!-- Node0x903f0070&#45;&gt;Node0x903ede90 -->
<g id="edge16" class="edge"><title>Node0x903f0070&#45;&gt;Node0x903ede90</title>
<path fill="none" stroke="black" d="M1065.25,-271.351C1064.21,-249.577 1059.95,-211.534 1043.5,-184 1041.05,-179.903 1038.16,-175.976 1034.98,-172.248"/>
<polygon fill="black" stroke="black" points="1037.5,-169.816 1028.13,-164.883 1032.38,-174.586 1037.5,-169.816"/>
<text text-anchor="middle" x="1190" y="-214.8" font-family="Times,serif" font-size="14.00">(v7 == NULL) or (v6[&#39;3&#39;] == 8192)</text>
</g>
<!-- Node0x903f0820 -->
<g id="node17" class="node"><title>Node0x903f0820</title>
<polygon fill="none" stroke="black" points="744.5,-97.5 744.5,-165.5 836.5,-165.5 836.5,-97.5 744.5,-97.5"/>
<text text-anchor="start" x="752.5" y="-150.3" font-family="Times,serif" font-size="14.00">0x41a673:</text>
<text text-anchor="start" x="752.5" y="-135.3" font-family="Times,serif" font-size="14.00"> g2 = 1</text>
<text text-anchor="start" x="752.5" y="-120.3" font-family="Times,serif" font-size="14.00"> g9 = v1</text>
<text text-anchor="start" x="752.5" y="-105.3" font-family="Times,serif" font-size="14.00"> return</text>
</g>
<!-- Node0x903f0070&#45;&gt;Node0x903f0820 -->
<g id="edge17" class="edge"><title>Node0x903f0070&#45;&gt;Node0x903f0820</title>
<path fill="none" stroke="black" d="M916.16,-277.839C855.278,-271.944 796.864,-263.636 787.5,-253 769.249,-232.27 770.614,-200.887 776.22,-175.345"/>
<polygon fill="black" stroke="black" points="779.646,-176.068 778.641,-165.521 772.85,-174.393 779.646,-176.068"/>
<text text-anchor="middle" x="913.5" y="-214.8" font-family="Times,serif" font-size="14.00">(v7 != NULL) and (v6[&#39;3&#39;] != 8192)</text>
</g>
<!-- Node0x903f6a80 -->
<g id="node18" class="node"><title>Node0x903f6a80</title>
<polygon fill="none" stroke="black" points="394.5,-534.5 394.5,-570.5 534.5,-570.5 534.5,-534.5 394.5,-534.5"/>
<text text-anchor="start" x="402.5" y="-548.8" font-family="Times,serif" font-size="14.00">if ((v8 &amp; 1) != 0):</text>
</g>
<!-- Node0x903f0880&#45;&gt;Node0x903f6a80 -->
<g id="edge18" class="edge"><title>Node0x903f0880&#45;&gt;Node0x903f6a80</title>
<path fill="none" stroke="black" d="M464.5,-623.266C464.5,-611.031 464.5,-594.692 464.5,-580.902"/>
<polygon fill="black" stroke="black" points="468,-580.516 464.5,-570.516 461,-580.516 468,-580.516"/>
</g>
<!-- Node0x903eeaa0 -->
<g id="node19" class="node"><title>Node0x903eeaa0</title>
<polygon fill="none" stroke="black" points="137.5,-271.5 137.5,-307.5 435.5,-307.5 435.5,-271.5 137.5,-271.5"/>
<text text-anchor="start" x="145.5" y="-285.8" font-family="Times,serif" font-size="14.00">if ((v7 == NULL) or (v6[&#39;3&#39;] == 8192)):</text>
</g>
<!-- Node0x903f6a20&#45;&gt;Node0x903eeaa0 -->
<g id="edge19" class="edge"><title>Node0x903f6a20&#45;&gt;Node0x903eeaa0</title>
<path fill="none" stroke="black" d="M286.5,-413.416C286.5,-384.96 286.5,-344.405 286.5,-317.777"/>
<polygon fill="black" stroke="black" points="290,-317.632 286.5,-307.632 283,-317.632 290,-317.632"/>
</g>
<!-- Node0x903ede90&#45;&gt;Node0x903ed8b0 -->
<g id="edge20" class="edge"><title>Node0x903ede90&#45;&gt;Node0x903ed8b0</title>
<path fill="none" stroke="black" d="M936.688,-118.171C871.387,-100.598 752.806,-68.6864 692.646,-52.4966"/>
<polygon fill="black" stroke="black" points="693.38,-49.0694 682.814,-49.8504 691.56,-55.8289 693.38,-49.0694"/>
</g>
<!-- Node0x903f0820&#45;&gt;Node0x903ed8b0 -->
<g id="edge21" class="edge"><title>Node0x903f0820&#45;&gt;Node0x903ed8b0</title>
<path fill="none" stroke="black" d="M755.95,-97.4157C747.925,-90.5564 739.181,-83.693 730.5,-78 718.597,-70.1936 704.709,-63.1245 692.141,-57.3866"/>
<polygon fill="black" stroke="black" points="693.404,-54.1179 682.843,-53.2682 690.569,-60.5182 693.404,-54.1179"/>
</g>
<!-- Node0x903f6a80&#45;&gt;Node0x903f6a20 -->
<g id="edge23" class="edge"><title>Node0x903f6a80&#45;&gt;Node0x903f6a20</title>
<path fill="none" stroke="black" d="M435.107,-534.492C412.646,-521.494 380.81,-503.073 352.364,-486.612"/>
<polygon fill="black" stroke="black" points="354.067,-483.554 343.658,-481.575 350.561,-489.613 354.067,-483.554"/>
<text text-anchor="middle" x="448" y="-503.8" font-family="Times,serif" font-size="14.00">(v8 &amp; 1) == 0</text>
</g>
<!-- Node0x903edf60 -->
<g id="node20" class="node"><title>Node0x903edf60</title>
<polygon fill="none" stroke="black" points="610,-184.5 610,-252.5 701,-252.5 701,-184.5 610,-184.5"/>
<text text-anchor="start" x="618" y="-237.3" font-family="Times,serif" font-size="14.00">0x41a64e:</text>
<text text-anchor="start" x="618" y="-222.3" font-family="Times,serif" font-size="14.00"> g2 = 0</text>
<text text-anchor="start" x="618" y="-207.3" font-family="Times,serif" font-size="14.00"> g9 = v1</text>
<text text-anchor="start" x="618" y="-192.3" font-family="Times,serif" font-size="14.00"> return</text>
</g>
<!-- Node0x903f6a80&#45;&gt;Node0x903edf60 -->
<g id="edge22" class="edge"><title>Node0x903f6a80&#45;&gt;Node0x903edf60</title>
<path fill="none" stroke="black" d="M484.71,-534.425C490.863,-528.64 497.354,-521.889 502.5,-515 564.076,-432.58 614.022,-321.83 638.721,-262.051"/>
<polygon fill="black" stroke="black" points="642.059,-263.136 642.609,-252.555 635.581,-260.483 642.059,-263.136"/>
<text text-anchor="middle" x="615" y="-443.8" font-family="Times,serif" font-size="14.00">(v8 &amp; 1) != 0</text>
</g>
<!-- Node0x903f0f80 -->
<g id="node21" class="node"><title>Node0x903f0f80</title>
<polygon fill="none" stroke="black" points="161,-97.5 161,-165.5 252,-165.5 252,-97.5 161,-97.5"/>
<text text-anchor="start" x="169" y="-150.3" font-family="Times,serif" font-size="14.00">0x41a64e:</text>
<text text-anchor="start" x="169" y="-135.3" font-family="Times,serif" font-size="14.00"> g2 = 0</text>
<text text-anchor="start" x="169" y="-120.3" font-family="Times,serif" font-size="14.00"> g9 = v1</text>
<text text-anchor="start" x="169" y="-105.3" font-family="Times,serif" font-size="14.00"> return</text>
</g>
<!-- Node0x903eeaa0&#45;&gt;Node0x903f0f80 -->
<g id="edge24" class="edge"><title>Node0x903eeaa0&#45;&gt;Node0x903f0f80</title>
<path fill="none" stroke="black" d="M137.316,-276.784C109.781,-271.546 86.7609,-263.967 77.5,-253 57.7142,-229.57 60.2989,-209.388 77.5,-184 94.0039,-159.641 124.08,-146.803 151.042,-140.037"/>
<polygon fill="black" stroke="black" points="151.833,-143.446 160.804,-137.809 150.276,-136.622 151.833,-143.446"/>
<text text-anchor="middle" x="204" y="-214.8" font-family="Times,serif" font-size="14.00">(v7 == NULL) or (v6[&#39;3&#39;] == 8192)</text>
</g>
<!-- Node0x903f7100 -->
<g id="node22" class="node"><title>Node0x903f7100</title>
<polygon fill="none" stroke="black" points="447.5,-105 447.5,-158 539.5,-158 539.5,-105 447.5,-105"/>
<text text-anchor="start" x="455.5" y="-142.8" font-family="Times,serif" font-size="14.00">0x41a673:</text>
<text text-anchor="start" x="455.5" y="-127.8" font-family="Times,serif" font-size="14.00"> g2 = 1</text>
<text text-anchor="start" x="455.5" y="-112.8" font-family="Times,serif" font-size="14.00"> g9 = v1</text>
</g>
<!-- Node0x903eeaa0&#45;&gt;Node0x903f7100 -->
<g id="edge25" class="edge"><title>Node0x903eeaa0&#45;&gt;Node0x903f7100</title>
<path fill="none" stroke="black" d="M313.338,-271.337C319.751,-266.128 326.026,-259.925 330.5,-253 347.697,-226.378 327.075,-207.354 348.5,-184 371.378,-159.063 407.12,-146.195 437.392,-139.558"/>
<polygon fill="black" stroke="black" points="438.311,-142.943 447.423,-137.537 436.928,-136.081 438.311,-142.943"/>
<text text-anchor="middle" x="474.5" y="-214.8" font-family="Times,serif" font-size="14.00">(v7 != NULL) and (v6[&#39;3&#39;] != 8192)</text>
</g>
<!-- Node0x903edf60&#45;&gt;Node0x903ed8b0 -->
<g id="edge26" class="edge"><title>Node0x903edf60&#45;&gt;Node0x903ed8b0</title>
<path fill="none" stroke="black" d="M655.5,-184.172C655.5,-150.994 655.5,-100.686 655.5,-69.7997"/>
<polygon fill="black" stroke="black" points="659,-69.7448 655.5,-59.7448 652,-69.7448 659,-69.7448"/>
</g>
<!-- Node0x903f0f80&#45;&gt;Node0x903ed8b0 -->
<g id="edge27" class="edge"><title>Node0x903f0f80&#45;&gt;Node0x903ed8b0</title>
<path fill="none" stroke="black" d="M252.023,-121.578C341.072,-104.125 536.73,-65.7778 618.471,-49.7574"/>
<polygon fill="black" stroke="black" points="619.176,-53.1858 628.316,-47.8278 617.83,-46.3165 619.176,-53.1858"/>
</g>
<!-- Node0x903f7100&#45;&gt;Node0x903ed8b0 -->
<g id="edge28" class="edge"><title>Node0x903f7100&#45;&gt;Node0x903ed8b0</title>
<path fill="none" stroke="black" d="M539.923,-105.283C565.18,-91.5626 595.96,-74.843 619.403,-62.1084"/>
<polygon fill="black" stroke="black" points="621.204,-65.113 628.321,-57.2641 617.863,-58.9619 621.204,-65.113"/>
</g>
</g>
</svg>
