<?xml version="1.0" encoding="UTF-8" standalone="no"?>
<!DOCTYPE svg PUBLIC "-//W3C//DTD SVG 1.1//EN"
 "http://www.w3.org/Graphics/SVG/1.1/DTD/svg11.dtd">
<!-- Generated by graphviz version 2.38.0 (20140413.2041)
 -->
<!-- Title: Control&#45;flow graph for function &#39;function_41e4a8(*a1, a2)&#39;. Pages: 1 -->
<svg width="847pt" height="766pt"
 viewBox="0.00 0.00 846.50 766.00" xmlns="http://www.w3.org/2000/svg" xmlns:xlink="http://www.w3.org/1999/xlink">
<g id="graph0" class="graph" transform="scale(1 1) rotate(0) translate(4 762)">
<title>Control&#45;flow graph for function &#39;function_41e4a8(*a1, a2)&#39;.</title>
<polygon fill="white" stroke="none" points="-4,4 -4,-762 842.5,-762 842.5,4 -4,4"/>
<text text-anchor="middle" x="419.25" y="-7.8" font-family="Times,serif" font-size="14.00">Control&#45;flow graph for function &#39;function_41e4a8(*a1, a2)&#39;.</text>
<!-- Node0x45c12e60 -->
<g id="node1" class="node"><title>Node0x45c12e60</title>
<polygon fill="none" stroke="black" points="265,-704.5 265,-757.5 324,-757.5 324,-704.5 265,-704.5"/>
<text text-anchor="start" x="273" y="-742.3" font-family="Times,serif" font-size="14.00">entry:</text>
<text text-anchor="start" x="273" y="-727.3" font-family="Times,serif" font-size="14.00"> a1</text>
<text text-anchor="start" x="273" y="-712.3" font-family="Times,serif" font-size="14.00"> a2</text>
</g>
<!-- Node0x9f763e70 -->
<g id="node2" class="node"><title>Node0x9f763e70</title>
<polygon fill="none" stroke="black" points="140,-568.5 140,-666.5 449,-666.5 449,-568.5 140,-568.5"/>
<text text-anchor="start" x="148" y="-651.3" font-family="Times,serif" font-size="14.00">v1 = g7</text>
<text text-anchor="start" x="148" y="-636.3" font-family="Times,serif" font-size="14.00"> v2 = IntToPtrCastExpr&lt;ptr&gt;(v1)</text>
<text text-anchor="start" x="148" y="-621.3" font-family="Times,serif" font-size="14.00"> g10 = PtrToIntCastExpr&lt;int32&gt;(&amp;(v2))</text>
<text text-anchor="start" x="148" y="-606.3" font-family="Times,serif" font-size="14.00"> v3 = g5</text>
<text text-anchor="start" x="148" y="-591.3" font-family="Times,serif" font-size="14.00"> g9 = v3</text>
<text text-anchor="start" x="148" y="-576.3" font-family="Times,serif" font-size="14.00"> g7 = 0</text>
</g>
<!-- Node0x45c12e60&#45;&gt;Node0x9f763e70 -->
<g id="edge1" class="edge"><title>Node0x45c12e60&#45;&gt;Node0x9f763e70</title>
<path fill="none" stroke="black" d="M294.5,-704.42C294.5,-696.117 294.5,-686.536 294.5,-676.851"/>
<polygon fill="black" stroke="black" points="298,-676.768 294.5,-666.768 291,-676.768 298,-676.768"/>
</g>
<!-- Node0x9f763ff0 -->
<g id="node3" class="node"><title>Node0x9f763ff0</title>
<polygon fill="none" stroke="black" points="127,-494.5 127,-530.5 462,-530.5 462,-494.5 127,-494.5"/>
<text text-anchor="start" x="135" y="-508.8" font-family="Times,serif" font-size="14.00">if (*(IntToPtrCastExpr&lt;ptr&gt;((v3 + 8))) &lt; 1):</text>
</g>
<!-- Node0x9f763e70&#45;&gt;Node0x9f763ff0 -->
<g id="edge2" class="edge"><title>Node0x9f763e70&#45;&gt;Node0x9f763ff0</title>
<path fill="none" stroke="black" d="M294.5,-568.317C294.5,-558.893 294.5,-549.32 294.5,-540.868"/>
<polygon fill="black" stroke="black" points="298,-540.856 294.5,-530.856 291,-540.856 298,-540.856"/>
</g>
<!-- Node0x9f764b00 -->
<g id="node4" class="node"><title>Node0x9f764b00</title>
<polygon fill="none" stroke="black" points="0,-257.5 0,-340.5 277,-340.5 277,-257.5 0,-257.5"/>
<text text-anchor="start" x="8" y="-325.3" font-family="Times,serif" font-size="14.00">0x41e4f7:</text>
<text text-anchor="start" x="8" y="-310.3" font-family="Times,serif" font-size="14.00"> g7 = v1</text>
<text text-anchor="start" x="8" y="-295.3" font-family="Times,serif" font-size="14.00"> v4</text>
<text text-anchor="start" x="8" y="-280.3" font-family="Times,serif" font-size="14.00"> g9 = PtrToIntCastExpr&lt;int32&gt;(v4)</text>
<text text-anchor="start" x="8" y="-265.3" font-family="Times,serif" font-size="14.00"> return 0</text>
</g>
<!-- Node0x9f763ff0&#45;&gt;Node0x9f764b00 -->
<g id="edge3" class="edge"><title>Node0x9f763ff0&#45;&gt;Node0x9f764b00</title>
<path fill="none" stroke="black" d="M173.309,-494.431C155.758,-489.615 141.558,-483.559 135.5,-476 107.695,-441.302 112.465,-389.193 121.764,-350.673"/>
<polygon fill="black" stroke="black" points="125.229,-351.252 124.345,-340.694 118.452,-349.499 125.229,-351.252"/>
<text text-anchor="middle" x="280.5" y="-464.8" font-family="Times,serif" font-size="14.00">*(IntToPtrCastExpr&lt;ptr&gt;((v3 + 8))) &lt; 1</text>
</g>
<!-- Node0x9f7644b0 -->
<g id="node5" class="node"><title>Node0x9f7644b0</title>
<polygon fill="none" stroke="black" points="297,-359.5 297,-442.5 606,-442.5 606,-359.5 297,-359.5"/>
<text text-anchor="start" x="305" y="-427.3" font-family="Times,serif" font-size="14.00">v5 = IntToPtrCastExpr&lt;ptr&gt;(g4)</text>
<text text-anchor="start" x="305" y="-412.3" font-family="Times,serif" font-size="14.00"> v6 = v5</text>
<text text-anchor="start" x="305" y="-397.3" font-family="Times,serif" font-size="14.00"> g10 = PtrToIntCastExpr&lt;int32&gt;(&amp;(v6))</text>
<text text-anchor="start" x="305" y="-382.3" font-family="Times,serif" font-size="14.00"> g5 = v3</text>
<text text-anchor="start" x="305" y="-367.3" font-family="Times,serif" font-size="14.00"> result = function_41d3fb(NULL, v5)</text>
</g>
<!-- Node0x9f763ff0&#45;&gt;Node0x9f7644b0 -->
<g id="edge4" class="edge"><title>Node0x9f763ff0&#45;&gt;Node0x9f7644b0</title>
<path fill="none" stroke="black" d="M402.489,-494.369C412.416,-489.605 421.667,-483.588 429.5,-476 436.146,-469.563 440.807,-461.216 444.071,-452.458"/>
<polygon fill="black" stroke="black" points="447.427,-453.454 447.092,-442.865 440.75,-451.352 447.427,-453.454"/>
<text text-anchor="middle" x="591.5" y="-464.8" font-family="Times,serif" font-size="14.00">*(IntToPtrCastExpr&lt;ptr&gt;((v3 + 8))) &gt;= 1</text>
</g>
<!-- Node0x9f763df0 -->
<g id="node6" class="node"><title>Node0x9f763df0</title>
<polygon fill="none" stroke="black" points="223.5,-23.5 223.5,-59.5 277.5,-59.5 277.5,-23.5 223.5,-23.5"/>
<text text-anchor="start" x="231.5" y="-37.8" font-family="Times,serif" font-size="14.00">exit:</text>
</g>
<!-- Node0x9f764b00&#45;&gt;Node0x9f763df0 -->
<g id="edge5" class="edge"><title>Node0x9f764b00&#45;&gt;Node0x9f763df0</title>
<path fill="none" stroke="black" d="M132.084,-257.166C127.489,-213.911 126.696,-145.326 157.5,-97 170.38,-76.7933 193.643,-63.1657 213.679,-54.5911"/>
<polygon fill="black" stroke="black" points="215.213,-57.747 223.196,-50.781 212.611,-51.2484 215.213,-57.747"/>
</g>
<!-- Node0x9f763690 -->
<g id="node7" class="node"><title>Node0x9f763690</title>
<polygon fill="none" stroke="black" points="285.5,-202.5 285.5,-238.5 617.5,-238.5 617.5,-202.5 285.5,-202.5"/>
<text text-anchor="start" x="293.5" y="-216.8" font-family="Times,serif" font-size="14.00">if (*(IntToPtrCastExpr&lt;ptr&gt;(result)) == 0):</text>
</g>
<!-- Node0x9f7644b0&#45;&gt;Node0x9f763690 -->
<g id="edge6" class="edge"><title>Node0x9f7644b0&#45;&gt;Node0x9f763690</title>
<path fill="none" stroke="black" d="M451.5,-359.496C451.5,-325.748 451.5,-278.588 451.5,-249.062"/>
<polygon fill="black" stroke="black" points="455,-248.674 451.5,-238.674 448,-248.674 455,-248.674"/>
</g>
<!-- Node0x9f764b80 -->
<g id="node8" class="node"><title>Node0x9f764b80</title>
<polygon fill="none" stroke="black" points="166.5,-97.5 166.5,-150.5 334.5,-150.5 334.5,-97.5 166.5,-97.5"/>
<text text-anchor="start" x="174.5" y="-135.3" font-family="Times,serif" font-size="14.00">0x41e4fa:</text>
<text text-anchor="start" x="174.5" y="-120.3" font-family="Times,serif" font-size="14.00"> function_40ede0(a1)</text>
<text text-anchor="start" x="174.5" y="-105.3" font-family="Times,serif" font-size="14.00"> return result</text>
</g>
<!-- Node0x9f763690&#45;&gt;Node0x9f764b80 -->
<g id="edge7" class="edge"><title>Node0x9f763690&#45;&gt;Node0x9f764b80</title>
<path fill="none" stroke="black" d="M295.029,-202.432C276.956,-197.702 262.481,-191.675 255.5,-184 249.796,-177.729 247.248,-169.375 246.414,-160.931"/>
<polygon fill="black" stroke="black" points="249.908,-160.628 246.152,-150.722 242.91,-160.808 249.908,-160.628"/>
<text text-anchor="middle" x="398.5" y="-172.8" font-family="Times,serif" font-size="14.00">*(IntToPtrCastExpr&lt;ptr&gt;(result)) == 0</text>
</g>
<!-- Node0x9f764aa0 -->
<g id="node9" class="node"><title>Node0x9f764aa0</title>
<polygon fill="none" stroke="black" points="352,-97.5 352,-150.5 805,-150.5 805,-97.5 352,-97.5"/>
<text text-anchor="start" x="360" y="-135.3" font-family="Times,serif" font-size="14.00">0x41e4c1:</text>
<text text-anchor="start" x="360" y="-120.3" font-family="Times,serif" font-size="14.00"> g5 = g9</text>
<text text-anchor="start" x="360" y="-105.3" font-family="Times,serif" font-size="14.00"> return function_41d3fb(IntToPtrCastExpr&lt;ptr&gt;(g7), NULL)</text>
</g>
<!-- Node0x9f763690&#45;&gt;Node0x9f764aa0 -->
<g id="edge8" class="edge"><title>Node0x9f763690&#45;&gt;Node0x9f764aa0</title>
<path fill="none" stroke="black" d="M515.073,-202.494C525.985,-197.693 536.644,-191.627 545.5,-184 553.156,-177.406 559.395,-168.575 564.304,-159.756"/>
<polygon fill="black" stroke="black" points="567.515,-161.164 568.942,-150.665 561.28,-157.982 567.515,-161.164"/>
<text text-anchor="middle" x="698.5" y="-172.8" font-family="Times,serif" font-size="14.00">*(IntToPtrCastExpr&lt;ptr&gt;(result)) != 0</text>
</g>
<!-- Node0x9f764b80&#45;&gt;Node0x9f763df0 -->
<g id="edge9" class="edge"><title>Node0x9f764b80&#45;&gt;Node0x9f763df0</title>
<path fill="none" stroke="black" d="M250.5,-97.0862C250.5,-88.4596 250.5,-78.8224 250.5,-70.0748"/>
<polygon fill="black" stroke="black" points="254,-69.9735 250.5,-59.9735 247,-69.9735 254,-69.9735"/>
</g>
<!-- Node0x9f764aa0&#45;&gt;Node0x9f763df0 -->
<g id="edge10" class="edge"><title>Node0x9f764aa0&#45;&gt;Node0x9f763df0</title>
<path fill="none" stroke="black" d="M474.268,-97.4187C410.4,-81.7437 332.521,-62.6301 287.509,-51.5831"/>
<polygon fill="black" stroke="black" points="288.157,-48.1383 277.611,-49.1539 286.489,-54.9366 288.157,-48.1383"/>
</g>
</g>
</svg>
