<?xml version="1.0" encoding="UTF-8" standalone="no"?>
<!DOCTYPE svg PUBLIC "-//W3C//DTD SVG 1.1//EN"
 "http://www.w3.org/Graphics/SVG/1.1/DTD/svg11.dtd">
<!-- Generated by graphviz version 2.38.0 (20140413.2041)
 -->
<!-- Title: Control&#45;flow graph for function &#39;function_414be8()&#39;. Pages: 1 -->
<svg width="941pt" height="1229pt"
 viewBox="0.00 0.00 940.50 1229.00" xmlns="http://www.w3.org/2000/svg" xmlns:xlink="http://www.w3.org/1999/xlink">
<g id="graph0" class="graph" transform="scale(1 1) rotate(0) translate(4 1225)">
<title>Control&#45;flow graph for function &#39;function_414be8()&#39;.</title>
<polygon fill="white" stroke="none" points="-4,4 -4,-1225 936.5,-1225 936.5,4 -4,4"/>
<text text-anchor="middle" x="466.25" y="-7.8" font-family="Times,serif" font-size="14.00">Control&#45;flow graph for function &#39;function_414be8()&#39;.</text>
<!-- Node0xa80ab990 -->
<g id="node1" class="node"><title>Node0xa80ab990</title>
<polygon fill="none" stroke="black" points="261.5,-1184.5 261.5,-1220.5 320.5,-1220.5 320.5,-1184.5 261.5,-1184.5"/>
<text text-anchor="start" x="269.5" y="-1198.8" font-family="Times,serif" font-size="14.00">entry:</text>
</g>
<!-- Node0xa80abca0 -->
<g id="node2" class="node"><title>Node0xa80abca0</title>
<polygon fill="none" stroke="black" points="141,-1048.5 141,-1146.5 441,-1146.5 441,-1048.5 141,-1048.5"/>
<text text-anchor="start" x="149" y="-1131.3" font-family="Times,serif" font-size="14.00">v1</text>
<text text-anchor="start" x="149" y="-1116.3" font-family="Times,serif" font-size="14.00"> g3 = PtrToIntCastExpr&lt;int32&gt;(&amp;(v1))</text>
<text text-anchor="start" x="149" y="-1101.3" font-family="Times,serif" font-size="14.00"> v2 = g5</text>
<text text-anchor="start" x="149" y="-1086.3" font-family="Times,serif" font-size="14.00"> v3 = IntToPtrCastExpr&lt;ptr&gt;(v2)</text>
<text text-anchor="start" x="149" y="-1071.3" font-family="Times,serif" font-size="14.00"> v4 = PtrToIntCastExpr&lt;int32&gt;(&amp;(v3))</text>
<text text-anchor="start" x="149" y="-1056.3" font-family="Times,serif" font-size="14.00"> v5 = v2</text>
</g>
<!-- Node0xa80ab990&#45;&gt;Node0xa80abca0 -->
<g id="edge1" class="edge"><title>Node0xa80ab990&#45;&gt;Node0xa80abca0</title>
<path fill="none" stroke="black" d="M291,-1184.49C291,-1176.69 291,-1166.94 291,-1156.83"/>
<polygon fill="black" stroke="black" points="294.5,-1156.66 291,-1146.66 287.5,-1156.66 294.5,-1156.66"/>
</g>
<!-- Node0x39d18cf0 -->
<g id="node3" class="node"><title>Node0x39d18cf0</title>
<polygon fill="none" stroke="black" points="113,-974.5 113,-1010.5 469,-1010.5 469,-974.5 113,-974.5"/>
<text text-anchor="start" x="121" y="-988.8" font-family="Times,serif" font-size="14.00">if (*(IntToPtrCastExpr&lt;ptr&gt;((v2 + 80))) == 0):</text>
</g>
<!-- Node0xa80abca0&#45;&gt;Node0x39d18cf0 -->
<g id="edge2" class="edge"><title>Node0xa80abca0&#45;&gt;Node0x39d18cf0</title>
<path fill="none" stroke="black" d="M291,-1048.32C291,-1038.89 291,-1029.32 291,-1020.87"/>
<polygon fill="black" stroke="black" points="294.5,-1020.86 291,-1010.86 287.5,-1020.86 294.5,-1020.86"/>
</g>
<!-- Node0x39d172a0 -->
<g id="node4" class="node"><title>Node0x39d172a0</title>
<polygon fill="none" stroke="black" points="44,-869.5 44,-922.5 212,-922.5 212,-869.5 44,-869.5"/>
<text text-anchor="start" x="52" y="-907.3" font-family="Times,serif" font-size="14.00">0x414bf2:</text>
<text text-anchor="start" x="52" y="-892.3" font-family="Times,serif" font-size="14.00"> function_40ede0(v1)</text>
<text text-anchor="start" x="52" y="-877.3" font-family="Times,serif" font-size="14.00"> v5 = g5</text>
</g>
<!-- Node0x39d18cf0&#45;&gt;Node0x39d172a0 -->
<g id="edge3" class="edge"><title>Node0x39d18cf0&#45;&gt;Node0x39d172a0</title>
<path fill="none" stroke="black" d="M167.251,-974.439C149.538,-969.63 135.201,-963.575 129,-956 123.694,-949.519 121.676,-941.16 121.385,-932.783"/>
<polygon fill="black" stroke="black" points="124.887,-932.813 121.784,-922.682 117.892,-932.537 124.887,-932.813"/>
<text text-anchor="middle" x="284.5" y="-944.8" font-family="Times,serif" font-size="14.00">*(IntToPtrCastExpr&lt;ptr&gt;((v2 + 80))) == 0</text>
</g>
<!-- Node0x39d194e0 -->
<g id="node5" class="node"><title>Node0x39d194e0</title>
<polygon fill="none" stroke="black" points="175.5,-628.5 175.5,-831.5 732.5,-831.5 732.5,-628.5 175.5,-628.5"/>
<text text-anchor="start" x="183.5" y="-816.3" font-family="Times,serif" font-size="14.00">v6 = *(IntToPtrCastExpr&lt;ptr&gt;((v5 + 80)))</text>
<text text-anchor="start" x="183.5" y="-801.3" font-family="Times,serif" font-size="14.00"> g2 = v6</text>
<text text-anchor="start" x="183.5" y="-786.3" font-family="Times,serif" font-size="14.00"> g1 = False</text>
<text text-anchor="start" x="183.5" y="-771.3" font-family="Times,serif" font-size="14.00"> g180 = True</text>
<text text-anchor="start" x="183.5" y="-756.3" font-family="Times,serif" font-size="14.00"> v3 = NULL</text>
<text text-anchor="start" x="183.5" y="-741.3" font-family="Times,serif" font-size="14.00"> v7 = *(IntToPtrCastExpr&lt;ptr&gt;(v6))</text>
<text text-anchor="start" x="183.5" y="-726.3" font-family="Times,serif" font-size="14.00"> g5 = v7</text>
<text text-anchor="start" x="183.5" y="-711.3" font-family="Times,serif" font-size="14.00"> g8 = v4</text>
<text text-anchor="start" x="183.5" y="-696.3" font-family="Times,serif" font-size="14.00"> v8 = v6</text>
<text text-anchor="start" x="183.5" y="-681.3" font-family="Times,serif" font-size="14.00"> g10 = &amp;(v8)</text>
<text text-anchor="start" x="183.5" y="-666.3" font-family="Times,serif" font-size="14.00"> v9 = *(IntToPtrCastExpr&lt;ptr&gt;(v7))</text>
<text text-anchor="start" x="183.5" y="-651.3" font-family="Times,serif" font-size="14.00"> v10</text>
<text text-anchor="start" x="183.5" y="-636.3" font-family="Times,serif" font-size="14.00"> IntToPtrCastExpr&lt;ptr&gt;(v9)(v6, 4448500, PtrToIntCastExpr&lt;int32&gt;(v10))</text>
</g>
<!-- Node0x39d18cf0&#45;&gt;Node0x39d194e0 -->
<g id="edge4" class="edge"><title>Node0x39d18cf0&#45;&gt;Node0x39d194e0</title>
<path fill="none" stroke="black" d="M400.613,-974.499C418.746,-969.588 433.708,-963.478 440,-956 466.25,-924.804 473.455,-881.74 472.768,-841.633"/>
<polygon fill="black" stroke="black" points="476.262,-841.386 472.43,-831.508 469.266,-841.62 476.262,-841.386"/>
<text text-anchor="middle" x="624.5" y="-892.3" font-family="Times,serif" font-size="14.00">*(IntToPtrCastExpr&lt;ptr&gt;((v2 + 80))) != 0</text>
</g>
<!-- Node0x39d172a0&#45;&gt;Node0x39d194e0 -->
<g id="edge5" class="edge"><title>Node0x39d172a0&#45;&gt;Node0x39d194e0</title>
<path fill="none" stroke="black" d="M178.938,-869.375C197.837,-859.867 220.633,-848.4 244.915,-836.184"/>
<polygon fill="black" stroke="black" points="246.563,-839.273 253.924,-831.652 243.417,-833.019 246.563,-839.273"/>
</g>
<!-- Node0xa80ac320 -->
<g id="node6" class="node"><title>Node0xa80ac320</title>
<polygon fill="none" stroke="black" points="444,-554.5 444,-590.5 538,-590.5 538,-554.5 444,-554.5"/>
<text text-anchor="start" x="452" y="-568.8" font-family="Times,serif" font-size="14.00">if (g2 &lt; 0):</text>
</g>
<!-- Node0x39d194e0&#45;&gt;Node0xa80ac320 -->
<g id="edge6" class="edge"><title>Node0x39d194e0&#45;&gt;Node0xa80ac320</title>
<path fill="none" stroke="black" d="M477.955,-628.323C480.351,-618.255 482.613,-608.75 484.559,-600.571"/>
<polygon fill="black" stroke="black" points="488.01,-601.185 486.92,-590.647 481.2,-599.565 488.01,-601.185"/>
</g>
<!-- Node0x39d12360 -->
<g id="node7" class="node"><title>Node0x39d12360</title>
<polygon fill="none" stroke="black" points="655.5,-362.5 655.5,-415.5 932.5,-415.5 932.5,-362.5 655.5,-362.5"/>
<text text-anchor="start" x="663.5" y="-400.3" font-family="Times,serif" font-size="14.00">0x414c29:</text>
<text text-anchor="start" x="663.5" y="-385.3" font-family="Times,serif" font-size="14.00"> g3 = PtrToIntCastExpr&lt;int32&gt;(v1)</text>
<text text-anchor="start" x="663.5" y="-370.3" font-family="Times,serif" font-size="14.00"> return</text>
</g>
<!-- Node0xa80ac320&#45;&gt;Node0x39d12360 -->
<g id="edge7" class="edge"><title>Node0xa80ac320&#45;&gt;Node0x39d12360</title>
<path fill="none" stroke="black" d="M534.221,-554.37C564.603,-541.676 605.772,-523.146 640,-503 681.144,-478.784 724.715,-446.068 754.971,-422.07"/>
<polygon fill="black" stroke="black" points="757.509,-424.523 763.139,-415.547 753.141,-419.053 757.509,-424.523"/>
<text text-anchor="middle" x="631.5" y="-524.8" font-family="Times,serif" font-size="14.00">g2 &lt; 0</text>
</g>
<!-- Node0x39d10120 -->
<g id="node8" class="node"><title>Node0x39d10120</title>
<polygon fill="none" stroke="black" points="350.5,-434.5 350.5,-502.5 631.5,-502.5 631.5,-434.5 350.5,-434.5"/>
<text text-anchor="start" x="358.5" y="-487.3" font-family="Times,serif" font-size="14.00">v11 = PtrToIntCastExpr&lt;int32&gt;(v3)</text>
<text text-anchor="start" x="358.5" y="-472.3" font-family="Times,serif" font-size="14.00"> g2 = v11</text>
<text text-anchor="start" x="358.5" y="-457.3" font-family="Times,serif" font-size="14.00"> g1 = False</text>
<text text-anchor="start" x="358.5" y="-442.3" font-family="Times,serif" font-size="14.00"> g180 = (v3 == NULL)</text>
</g>
<!-- Node0xa80ac320&#45;&gt;Node0x39d10120 -->
<g id="edge8" class="edge"><title>Node0xa80ac320&#45;&gt;Node0x39d10120</title>
<path fill="none" stroke="black" d="M491,-554.197C491,-542.854 491,-527.486 491,-512.954"/>
<polygon fill="black" stroke="black" points="494.5,-512.59 491,-502.59 487.5,-512.59 494.5,-512.59"/>
<text text-anchor="middle" x="521.5" y="-524.8" font-family="Times,serif" font-size="14.00">g2 &gt;= 0</text>
</g>
<!-- Node0x39d10310 -->
<g id="node9" class="node"><title>Node0x39d10310</title>
<polygon fill="none" stroke="black" points="785,-23.5 785,-59.5 839,-59.5 839,-23.5 785,-23.5"/>
<text text-anchor="start" x="793" y="-37.8" font-family="Times,serif" font-size="14.00">exit:</text>
</g>
<!-- Node0x39d12360&#45;&gt;Node0x39d10310 -->
<g id="edge9" class="edge"><title>Node0x39d12360&#45;&gt;Node0x39d10310</title>
<path fill="none" stroke="black" d="M823.943,-362.463C849.954,-338.144 885.775,-298.96 901,-256 924.606,-189.393 935.539,-158.651 901,-97 889.788,-76.9873 867.897,-63.4393 848.633,-54.8566"/>
<polygon fill="black" stroke="black" points="849.735,-51.5248 839.157,-50.9244 847.052,-57.9902 849.735,-51.5248"/>
</g>
<!-- Node0x39d17130 -->
<g id="node10" class="node"><title>Node0x39d17130</title>
<polygon fill="none" stroke="black" points="421,-307.5 421,-343.5 561,-343.5 561,-307.5 421,-307.5"/>
<text text-anchor="start" x="429" y="-321.8" font-family="Times,serif" font-size="14.00">if (v3 == NULL):</text>
</g>
<!-- Node0x39d10120&#45;&gt;Node0x39d17130 -->
<g id="edge10" class="edge"><title>Node0x39d10120&#45;&gt;Node0x39d17130</title>
<path fill="none" stroke="black" d="M491,-434.442C491,-409.848 491,-376.69 491,-353.64"/>
<polygon fill="black" stroke="black" points="494.5,-353.524 491,-343.524 487.5,-353.524 494.5,-353.524"/>
</g>
<!-- Node0x39d16ae0 -->
<g id="node11" class="node"><title>Node0x39d16ae0</title>
<polygon fill="none" stroke="black" points="0,-158.5 0,-194.5 120,-194.5 120,-158.5 0,-158.5"/>
<text text-anchor="start" x="8" y="-172.8" font-family="Times,serif" font-size="14.00">goto 0x414bf2</text>
</g>
<!-- Node0x39d17130&#45;&gt;Node0x39d16ae0 -->
<g id="edge11" class="edge"><title>Node0x39d17130&#45;&gt;Node0x39d16ae0</title>
<path fill="none" stroke="black" d="M420.698,-324.496C344.181,-321.591 220.535,-308.211 129,-256 106.854,-243.368 88.2324,-220.955 75.9374,-203.302"/>
<polygon fill="black" stroke="black" points="78.5711,-200.945 70.0995,-194.582 72.7543,-204.839 78.5711,-200.945"/>
<text text-anchor="middle" x="250" y="-277.8" font-family="Times,serif" font-size="14.00">v3 == NULL</text>
</g>
<!-- Node0x39d16cc0 -->
<g id="node12" class="node"><title>Node0x39d16cc0</title>
<polygon fill="none" stroke="black" points="138,-97.5 138,-255.5 892,-255.5 892,-97.5 138,-97.5"/>
<text text-anchor="start" x="146" y="-240.3" font-family="Times,serif" font-size="14.00">v12 = v3[&#39;0&#39;]</text>
<text text-anchor="start" x="146" y="-225.3" font-family="Times,serif" font-size="14.00"> g5 = v12</text>
<text text-anchor="start" x="146" y="-210.3" font-family="Times,serif" font-size="14.00"> v13</text>
<text text-anchor="start" x="146" y="-195.3" font-family="Times,serif" font-size="14.00"> IntToPtrCastExpr&lt;ptr&gt;(*(IntToPtrCastExpr&lt;ptr&gt;((v12 + 24))))(v11, PtrToIntCastExpr&lt;int32&gt;(v13))</text>
<text text-anchor="start" x="146" y="-180.3" font-family="Times,serif" font-size="14.00"> v14 = PtrToIntCastExpr&lt;int32&gt;(v3)</text>
<text text-anchor="start" x="146" y="-165.3" font-family="Times,serif" font-size="14.00"> g2 = v14</text>
<text text-anchor="start" x="146" y="-150.3" font-family="Times,serif" font-size="14.00"> v15 = v3[&#39;0&#39;]</text>
<text text-anchor="start" x="146" y="-135.3" font-family="Times,serif" font-size="14.00"> g5 = v15</text>
<text text-anchor="start" x="146" y="-120.3" font-family="Times,serif" font-size="14.00"> IntToPtrCastExpr&lt;ptr&gt;(*(IntToPtrCastExpr&lt;ptr&gt;((v15 + 8))))(v14)</text>
<text text-anchor="start" x="146" y="-105.3" font-family="Times,serif" font-size="14.00"> g3 = PtrToIntCastExpr&lt;int32&gt;(v1)</text>
</g>
<!-- Node0x39d17130&#45;&gt;Node0x39d16cc0 -->
<g id="edge12" class="edge"><title>Node0x39d17130&#45;&gt;Node0x39d16cc0</title>
<path fill="none" stroke="black" d="M493.8,-307.35C495.572,-296.499 498.012,-281.554 500.607,-265.656"/>
<polygon fill="black" stroke="black" points="504.082,-266.095 502.239,-255.661 497.173,-264.967 504.082,-266.095"/>
<text text-anchor="middle" x="543" y="-277.8" font-family="Times,serif" font-size="14.00">v3 != NULL</text>
</g>
<!-- Node0x39d16ae0&#45;&gt;Node0x39d172a0 -->
<g id="edge13" class="edge"><title>Node0x39d16ae0&#45;&gt;Node0x39d172a0</title>
<path fill="none" stroke="black" d="M60.7712,-194.696C61.9336,-222.136 64,-277.524 64,-324.5 64,-731 64,-731 64,-731 64,-778.151 87.2419,-828.031 105.713,-860.227"/>
<polygon fill="black" stroke="black" points="102.924,-862.388 111.017,-869.225 108.955,-858.833 102.924,-862.388"/>
</g>
<!-- Node0x39d16cc0&#45;&gt;Node0x39d10310 -->
<g id="edge14" class="edge"><title>Node0x39d16cc0&#45;&gt;Node0x39d10310</title>
<path fill="none" stroke="black" d="M689.484,-97.3641C722.187,-82.7192 753.155,-68.8515 775.775,-58.7221"/>
<polygon fill="black" stroke="black" points="777.242,-61.8999 784.938,-54.6185 774.381,-55.5113 777.242,-61.8999"/>
</g>
</g>
</svg>
