<?xml version="1.0" encoding="UTF-8" standalone="no"?>
<!DOCTYPE svg PUBLIC "-//W3C//DTD SVG 1.1//EN"
 "http://www.w3.org/Graphics/SVG/1.1/DTD/svg11.dtd">
<!-- Generated by graphviz version 2.38.0 (20140413.2041)
 -->
<!-- Title: Control&#45;flow graph for function &#39;function_405966(a1, a2, a3)&#39;. Pages: 1 -->
<svg width="922pt" height="1089pt"
 viewBox="0.00 0.00 922.00 1089.00" xmlns="http://www.w3.org/2000/svg" xmlns:xlink="http://www.w3.org/1999/xlink">
<g id="graph0" class="graph" transform="scale(1 1) rotate(0) translate(4 1085)">
<title>Control&#45;flow graph for function &#39;function_405966(a1, a2, a3)&#39;.</title>
<polygon fill="white" stroke="none" points="-4,4 -4,-1085 918,-1085 918,4 -4,4"/>
<text text-anchor="middle" x="457" y="-7.8" font-family="Times,serif" font-size="14.00">Control&#45;flow graph for function &#39;function_405966(a1, a2, a3)&#39;.</text>
<!-- Node0x1ebc2c20 -->
<g id="node1" class="node"><title>Node0x1ebc2c20</title>
<polygon fill="none" stroke="black" points="402.5,-1012.5 402.5,-1080.5 461.5,-1080.5 461.5,-1012.5 402.5,-1012.5"/>
<text text-anchor="start" x="410.5" y="-1065.3" font-family="Times,serif" font-size="14.00">entry:</text>
<text text-anchor="start" x="410.5" y="-1050.3" font-family="Times,serif" font-size="14.00"> a1</text>
<text text-anchor="start" x="410.5" y="-1035.3" font-family="Times,serif" font-size="14.00"> a2</text>
<text text-anchor="start" x="410.5" y="-1020.3" font-family="Times,serif" font-size="14.00"> a3</text>
</g>
<!-- Node0x13bc0af0 -->
<g id="node2" class="node"><title>Node0x13bc0af0</title>
<polygon fill="none" stroke="black" points="94.5,-726.5 94.5,-974.5 769.5,-974.5 769.5,-726.5 94.5,-726.5"/>
<text text-anchor="start" x="102.5" y="-959.3" font-family="Times,serif" font-size="14.00">v1 = g3</text>
<text text-anchor="start" x="102.5" y="-944.3" font-family="Times,serif" font-size="14.00"> g3 = &amp;(v1)</text>
<text text-anchor="start" x="102.5" y="-929.3" font-family="Times,serif" font-size="14.00"> v2</text>
<text text-anchor="start" x="102.5" y="-914.3" font-family="Times,serif" font-size="14.00"> v3 = &amp;(v2)</text>
<text text-anchor="start" x="102.5" y="-899.3" font-family="Times,serif" font-size="14.00"> v4 = IntToPtrCastExpr&lt;ptr&gt;(g9)</text>
<text text-anchor="start" x="102.5" y="-884.3" font-family="Times,serif" font-size="14.00"> v5 = v4</text>
<text text-anchor="start" x="102.5" y="-869.3" font-family="Times,serif" font-size="14.00"> v6 = g5</text>
<text text-anchor="start" x="102.5" y="-854.3" font-family="Times,serif" font-size="14.00"> g2 = v6</text>
<text text-anchor="start" x="102.5" y="-839.3" font-family="Times,serif" font-size="14.00"> g9 = 260</text>
<text text-anchor="start" x="102.5" y="-824.3" font-family="Times,serif" font-size="14.00"> v7 = 260</text>
<text text-anchor="start" x="102.5" y="-809.3" font-family="Times,serif" font-size="14.00"> lpFilename</text>
<text text-anchor="start" x="102.5" y="-794.3" font-family="Times,serif" font-size="14.00"> v8 = &amp;(lpFilename)</text>
<text text-anchor="start" x="102.5" y="-779.3" font-family="Times,serif" font-size="14.00"> g5 = v8</text>
<text text-anchor="start" x="102.5" y="-764.3" font-family="Times,serif" font-size="14.00"> hModule = *(IntToPtrCastExpr&lt;ptr&gt;((v6 + 68)))</text>
<text text-anchor="start" x="102.5" y="-749.3" font-family="Times,serif" font-size="14.00"> nameSize = GetModuleFileNameA(IntToPtrCastExpr&lt;ptr&gt;(hModule), &amp;(lpFilename), 260)</text>
<text text-anchor="start" x="102.5" y="-734.3" font-family="Times,serif" font-size="14.00"> g10 = PtrToIntCastExpr&lt;int32&gt;(&amp;(v5))</text>
</g>
<!-- Node0x1ebc2c20&#45;&gt;Node0x13bc0af0 -->
<g id="edge1" class="edge"><title>Node0x1ebc2c20&#45;&gt;Node0x13bc0af0</title>
<path fill="none" stroke="black" d="M432,-1012.15C432,-1003.94 432,-994.649 432,-984.768"/>
<polygon fill="black" stroke="black" points="435.5,-984.71 432,-974.71 428.5,-984.71 435.5,-984.71"/>
</g>
<!-- Node0x1edd2270 -->
<g id="node3" class="node"><title>Node0x1edd2270</title>
<polygon fill="none" stroke="black" points="272,-652.5 272,-688.5 592,-688.5 592,-652.5 272,-652.5"/>
<text text-anchor="start" x="280" y="-666.8" font-family="Times,serif" font-size="14.00">if ((nameSize == 0) or (nameSize == g9)):</text>
</g>
<!-- Node0x13bc0af0&#45;&gt;Node0x1edd2270 -->
<g id="edge2" class="edge"><title>Node0x13bc0af0&#45;&gt;Node0x1edd2270</title>
<path fill="none" stroke="black" d="M432,-726.358C432,-716.332 432,-706.986 432,-698.952"/>
<polygon fill="black" stroke="black" points="435.5,-698.869 432,-688.869 428.5,-698.869 435.5,-698.869"/>
</g>
<!-- Node0x13bbd1b0 -->
<g id="node4" class="node"><title>Node0x13bbd1b0</title>
<polygon fill="none" stroke="black" points="0,-300 0,-398 398,-398 398,-300 0,-300"/>
<text text-anchor="start" x="8" y="-382.8" font-family="Times,serif" font-size="14.00">0x4059cd:</text>
<text text-anchor="start" x="8" y="-367.8" font-family="Times,serif" font-size="14.00"> g5 = (g3 ^ v3)</text>
<text text-anchor="start" x="8" y="-352.8" font-family="Times,serif" font-size="14.00"> g9 = PtrToIntCastExpr&lt;int32&gt;(v4)</text>
<text text-anchor="start" x="8" y="-337.8" font-family="Times,serif" font-size="14.00"> function_4201ce(BitCastExpr&lt;ptr&gt;(&amp;(lpFilename)))</text>
<text text-anchor="start" x="8" y="-322.8" font-family="Times,serif" font-size="14.00"> g3 = v1</text>
<text text-anchor="start" x="8" y="-307.8" font-family="Times,serif" font-size="14.00"> return 0</text>
</g>
<!-- Node0x1edd2270&#45;&gt;Node0x13bbd1b0 -->
<g id="edge3" class="edge"><title>Node0x1edd2270&#45;&gt;Node0x13bbd1b0</title>
<path fill="none" stroke="black" d="M355.362,-652.455C344.683,-647.726 334.481,-641.693 326,-634 259.547,-573.721 225.862,-472.093 210.399,-408.157"/>
<polygon fill="black" stroke="black" points="213.762,-407.168 208.071,-398.231 206.947,-408.766 213.762,-407.168"/>
<text text-anchor="middle" x="463.5" y="-622.8" font-family="Times,serif" font-size="14.00">(nameSize == 0) or (nameSize == g9)</text>
</g>
<!-- Node0x13bb7600 -->
<g id="node5" class="node"><title>Node0x13bb7600</title>
<polygon fill="none" stroke="black" points="416,-97.5 416,-600.5 914,-600.5 914,-97.5 416,-97.5"/>
<text text-anchor="start" x="424" y="-585.3" font-family="Times,serif" font-size="14.00">0x40599a:</text>
<text text-anchor="start" x="424" y="-570.3" font-family="Times,serif" font-size="14.00"> v7 = g7</text>
<text text-anchor="start" x="424" y="-555.3" font-family="Times,serif" font-size="14.00"> g2 = v8</text>
<text text-anchor="start" x="424" y="-540.3" font-family="Times,serif" font-size="14.00"> PathFindExtensionA()</text>
<text text-anchor="start" x="424" y="-525.3" font-family="Times,serif" font-size="14.00"> lpFilename = 0</text>
<text text-anchor="start" x="424" y="-510.3" font-family="Times,serif" font-size="14.00"> v9</text>
<text text-anchor="start" x="424" y="-495.3" font-family="Times,serif" font-size="14.00"> v10 = &amp;(v9)</text>
<text text-anchor="start" x="424" y="-480.3" font-family="Times,serif" font-size="14.00"> v9 = 1931834149</text>
<text text-anchor="start" x="424" y="-465.3" font-family="Times,serif" font-size="14.00"> v11 = (&#45;4 if g6 else 4)</text>
<text text-anchor="start" x="424" y="-450.3" font-family="Times,serif" font-size="14.00"> v12 = (v11 + 4430412)</text>
<text text-anchor="start" x="424" y="-435.3" font-family="Times,serif" font-size="14.00"> v13 = (v11 + v10)</text>
<text text-anchor="start" x="424" y="-420.3" font-family="Times,serif" font-size="14.00"> g9 = v12</text>
<text text-anchor="start" x="424" y="-405.3" font-family="Times,serif" font-size="14.00"> g7 = v13</text>
<text text-anchor="start" x="424" y="-390.3" font-family="Times,serif" font-size="14.00"> g2 = v8</text>
<text text-anchor="start" x="424" y="-375.3" font-family="Times,serif" font-size="14.00"> *(IntToPtrCastExpr&lt;ptr&gt;(v13)) = *(IntToPtrCastExpr&lt;ptr&gt;(v12))</text>
<text text-anchor="start" x="424" y="-360.3" font-family="Times,serif" font-size="14.00"> v14 = (v12 + v11)</text>
<text text-anchor="start" x="424" y="-345.3" font-family="Times,serif" font-size="14.00"> v15 = (v13 + v11)</text>
<text text-anchor="start" x="424" y="-330.3" font-family="Times,serif" font-size="14.00"> g9 = v14</text>
<text text-anchor="start" x="424" y="-315.3" font-family="Times,serif" font-size="14.00"> g7 = v15</text>
<text text-anchor="start" x="424" y="-300.3" font-family="Times,serif" font-size="14.00"> v16 = g2</text>
<text text-anchor="start" x="424" y="-285.3" font-family="Times,serif" font-size="14.00"> g2 = v10</text>
<text text-anchor="start" x="424" y="-270.3" font-family="Times,serif" font-size="14.00"> *(IntToPtrCastExpr&lt;ptr&gt;(v15)) = *(IntToPtrCastExpr&lt;ptr&gt;(v14))</text>
<text text-anchor="start" x="424" y="-255.3" font-family="Times,serif" font-size="14.00"> v17 = (&#45;1 if g6 else 1)</text>
<text text-anchor="start" x="424" y="-240.3" font-family="Times,serif" font-size="14.00"> g9 = (v17 + v14)</text>
<text text-anchor="start" x="424" y="-225.3" font-family="Times,serif" font-size="14.00"> g7 = (v17 + v15)</text>
<text text-anchor="start" x="424" y="-210.3" font-family="Times,serif" font-size="14.00"> function_405675(&amp;(v9), IntToPtrCastExpr&lt;ptr&gt;(v16))</text>
<text text-anchor="start" x="424" y="-195.3" font-family="Times,serif" font-size="14.00"> g7 = v8</text>
<text text-anchor="start" x="424" y="-180.3" font-family="Times,serif" font-size="14.00"> g10 = &amp;(v7)</text>
<text text-anchor="start" x="424" y="-165.3" font-family="Times,serif" font-size="14.00"> g5 = (g3 ^ v3)</text>
<text text-anchor="start" x="424" y="-150.3" font-family="Times,serif" font-size="14.00"> g9 = PtrToIntCastExpr&lt;int32&gt;(v5)</text>
<text text-anchor="start" x="424" y="-135.3" font-family="Times,serif" font-size="14.00"> function_4201ce(BitCastExpr&lt;ptr&gt;(&amp;(lpFilename)))</text>
<text text-anchor="start" x="424" y="-120.3" font-family="Times,serif" font-size="14.00"> g3 = v1</text>
<text text-anchor="start" x="424" y="-105.3" font-family="Times,serif" font-size="14.00"> return 0</text>
</g>
<!-- Node0x1edd2270&#45;&gt;Node0x13bb7600 -->
<g id="edge4" class="edge"><title>Node0x1edd2270&#45;&gt;Node0x13bb7600</title>
<path fill="none" stroke="black" d="M556.919,-652.484C576.813,-647.613 593.366,-641.523 601,-634 608.707,-626.405 615.572,-618.094 621.683,-609.241"/>
<polygon fill="black" stroke="black" points="624.791,-610.881 627.313,-600.591 618.924,-607.063 624.791,-610.881"/>
<text text-anchor="middle" x="748" y="-622.8" font-family="Times,serif" font-size="14.00">(nameSize != 0) and (nameSize != g9)</text>
</g>
<!-- Node0x13bbb7c0 -->
<g id="node6" class="node"><title>Node0x13bbb7c0</title>
<polygon fill="none" stroke="black" points="459,-23.5 459,-59.5 513,-59.5 513,-23.5 459,-23.5"/>
<text text-anchor="start" x="467" y="-37.8" font-family="Times,serif" font-size="14.00">exit:</text>
</g>
<!-- Node0x13bbd1b0&#45;&gt;Node0x13bbb7c0 -->
<g id="edge5" class="edge"><title>Node0x13bbd1b0&#45;&gt;Node0x13bbb7c0</title>
<path fill="none" stroke="black" d="M232.704,-299.787C271.225,-246.623 337.918,-160.25 407,-97 420.129,-84.9798 436.057,-73.5012 450.162,-64.2052"/>
<polygon fill="black" stroke="black" points="452.165,-67.0783 458.668,-58.7139 448.368,-61.1974 452.165,-67.0783"/>
</g>
<!-- Node0x13bb7600&#45;&gt;Node0x13bbb7c0 -->
<g id="edge6" class="edge"><title>Node0x13bb7600&#45;&gt;Node0x13bbb7c0</title>
<path fill="none" stroke="black" d="M518.208,-97.4701C511.77,-86.4816 506.014,-76.6577 501.211,-68.461"/>
<polygon fill="black" stroke="black" points="504.103,-66.4727 496.028,-59.614 498.063,-70.0115 504.103,-66.4727"/>
</g>
</g>
</svg>
