<?xml version="1.0" encoding="UTF-8" standalone="no"?>
<!DOCTYPE svg PUBLIC "-//W3C//DTD SVG 1.1//EN"
 "http://www.w3.org/Graphics/SVG/1.1/DTD/svg11.dtd">
<!-- Generated by graphviz version 2.38.0 (20140413.2041)
 -->
<!-- Title: Control&#45;flow graph for function &#39;function_4068c1(*a1, a2)&#39;. Pages: 1 -->
<svg width="596pt" height="729pt"
 viewBox="0.00 0.00 595.50 729.00" xmlns="http://www.w3.org/2000/svg" xmlns:xlink="http://www.w3.org/1999/xlink">
<g id="graph0" class="graph" transform="scale(1 1) rotate(0) translate(4 725)">
<title>Control&#45;flow graph for function &#39;function_4068c1(*a1, a2)&#39;.</title>
<polygon fill="white" stroke="none" points="-4,4 -4,-725 591.5,-725 591.5,4 -4,4"/>
<text text-anchor="middle" x="293.75" y="-7.8" font-family="Times,serif" font-size="14.00">Control&#45;flow graph for function &#39;function_4068c1(*a1, a2)&#39;.</text>
<!-- Node0x336ace10 -->
<g id="node1" class="node"><title>Node0x336ace10</title>
<polygon fill="none" stroke="black" points="412.5,-667.5 412.5,-720.5 471.5,-720.5 471.5,-667.5 412.5,-667.5"/>
<text text-anchor="start" x="420.5" y="-705.3" font-family="Times,serif" font-size="14.00">entry:</text>
<text text-anchor="start" x="420.5" y="-690.3" font-family="Times,serif" font-size="14.00"> a1</text>
<text text-anchor="start" x="420.5" y="-675.3" font-family="Times,serif" font-size="14.00"> a2</text>
</g>
<!-- Node0x64a5db40 -->
<g id="node2" class="node"><title>Node0x64a5db40</title>
<polygon fill="none" stroke="black" points="380.5,-593.5 380.5,-629.5 503.5,-629.5 503.5,-593.5 380.5,-593.5"/>
<text text-anchor="start" x="388.5" y="-607.8" font-family="Times,serif" font-size="14.00">if (*(a1) == 0):</text>
</g>
<!-- Node0x336ace10&#45;&gt;Node0x64a5db40 -->
<g id="edge1" class="edge"><title>Node0x336ace10&#45;&gt;Node0x64a5db40</title>
<path fill="none" stroke="black" d="M442,-667.086C442,-658.46 442,-648.822 442,-640.075"/>
<polygon fill="black" stroke="black" points="445.5,-639.973 442,-629.974 438.5,-639.974 445.5,-639.973"/>
</g>
<!-- Node0x19a20950 -->
<g id="node3" class="node"><title>Node0x19a20950</title>
<polygon fill="none" stroke="black" points="121,-488.5 121,-541.5 457,-541.5 457,-488.5 121,-488.5"/>
<text text-anchor="start" x="129" y="-526.3" font-family="Times,serif" font-size="14.00">0x4068c8:</text>
<text text-anchor="start" x="129" y="-511.3" font-family="Times,serif" font-size="14.00"> v1</text>
<text text-anchor="start" x="129" y="-496.3" font-family="Times,serif" font-size="14.00"> function_40ede0(BitCastExpr&lt;ptr&gt;(&amp;(v1)))</text>
</g>
<!-- Node0x64a5db40&#45;&gt;Node0x19a20950 -->
<g id="edge2" class="edge"><title>Node0x64a5db40&#45;&gt;Node0x19a20950</title>
<path fill="none" stroke="black" d="M414.293,-593.387C393.34,-580.445 364.006,-562.328 338.989,-546.876"/>
<polygon fill="black" stroke="black" points="340.688,-543.811 330.341,-541.534 337.01,-549.767 340.688,-543.811"/>
<text text-anchor="middle" x="423" y="-563.8" font-family="Times,serif" font-size="14.00">*(a1) == 0</text>
</g>
<!-- Node0x336ae230 -->
<g id="node4" class="node"><title>Node0x336ae230</title>
<polygon fill="none" stroke="black" points="284.5,-382.5 284.5,-450.5 587.5,-450.5 587.5,-382.5 284.5,-382.5"/>
<text text-anchor="start" x="292.5" y="-435.3" font-family="Times,serif" font-size="14.00">result = (g5 + 136)</text>
<text text-anchor="start" x="292.5" y="-420.3" font-family="Times,serif" font-size="14.00"> v2 = *(IntToPtrCastExpr&lt;ptr&gt;(result))</text>
<text text-anchor="start" x="292.5" y="-405.3" font-family="Times,serif" font-size="14.00"> g1 = False</text>
<text text-anchor="start" x="292.5" y="-390.3" font-family="Times,serif" font-size="14.00"> g180 = (v2 == 0)</text>
</g>
<!-- Node0x64a5db40&#45;&gt;Node0x336ae230 -->
<g id="edge3" class="edge"><title>Node0x64a5db40&#45;&gt;Node0x336ae230</title>
<path fill="none" stroke="black" d="M456.713,-593.153C460.491,-587.69 464.039,-581.402 466,-575 477.325,-538.029 473.726,-525.887 466,-488 464.107,-478.716 460.944,-469.14 457.366,-460.153"/>
<polygon fill="black" stroke="black" points="460.476,-458.523 453.359,-450.675 454.029,-461.248 460.476,-458.523"/>
<text text-anchor="middle" x="510" y="-511.3" font-family="Times,serif" font-size="14.00">*(a1) != 0</text>
</g>
<!-- Node0x19a20950&#45;&gt;Node0x336ae230 -->
<g id="edge4" class="edge"><title>Node0x19a20950&#45;&gt;Node0x336ae230</title>
<path fill="none" stroke="black" d="M328.007,-488.393C343.073,-478.503 360.64,-466.971 377.173,-456.118"/>
<polygon fill="black" stroke="black" points="379.268,-458.93 385.707,-450.516 375.426,-453.078 379.268,-458.93"/>
</g>
<!-- Node0x64a5ff70 -->
<g id="node5" class="node"><title>Node0x64a5ff70</title>
<polygon fill="none" stroke="black" points="386.5,-308.5 386.5,-344.5 485.5,-344.5 485.5,-308.5 386.5,-308.5"/>
<text text-anchor="start" x="394.5" y="-322.8" font-family="Times,serif" font-size="14.00">if (v2 != 0):</text>
</g>
<!-- Node0x336ae230&#45;&gt;Node0x64a5ff70 -->
<g id="edge5" class="edge"><title>Node0x336ae230&#45;&gt;Node0x64a5ff70</title>
<path fill="none" stroke="black" d="M436,-382.482C436,-373.328 436,-363.497 436,-354.715"/>
<polygon fill="black" stroke="black" points="439.5,-354.64 436,-344.64 432.5,-354.64 439.5,-354.64"/>
</g>
<!-- Node0x11218250 -->
<g id="node6" class="node"><title>Node0x11218250</title>
<polygon fill="none" stroke="black" points="0,-173.5 0,-256.5 468,-256.5 468,-173.5 0,-173.5"/>
<text text-anchor="start" x="8" y="-241.3" font-family="Times,serif" font-size="14.00">0x4068d8:</text>
<text text-anchor="start" x="8" y="-226.3" font-family="Times,serif" font-size="14.00"> g2 = v2</text>
<text text-anchor="start" x="8" y="-211.3" font-family="Times,serif" font-size="14.00"> g8 = *(IntToPtrCastExpr&lt;ptr&gt;(v2))</text>
<text text-anchor="start" x="8" y="-196.3" font-family="Times,serif" font-size="14.00"> g5 = v2</text>
<text text-anchor="start" x="8" y="-181.3" font-family="Times,serif" font-size="14.00"> IntToPtrCastExpr&lt;ptr&gt;(IntToPtrCastExpr&lt;ptr&gt;(result)[&#39;1&#39;])()</text>
</g>
<!-- Node0x64a5ff70&#45;&gt;Node0x11218250 -->
<g id="edge6" class="edge"><title>Node0x64a5ff70&#45;&gt;Node0x11218250</title>
<path fill="none" stroke="black" d="M404.438,-308.391C381.209,-295.799 348.484,-278.059 317.91,-261.486"/>
<polygon fill="black" stroke="black" points="319.39,-258.307 308.93,-256.618 316.054,-264.461 319.39,-258.307"/>
<text text-anchor="middle" x="392" y="-278.8" font-family="Times,serif" font-size="14.00">v2 != 0</text>
</g>
<!-- Node0x64a5fde0 -->
<g id="node7" class="node"><title>Node0x64a5fde0</title>
<polygon fill="none" stroke="black" points="373.5,-97.5 373.5,-135.5 486.5,-135.5 486.5,-97.5 373.5,-97.5"/>
<text text-anchor="start" x="381.5" y="-120.3" font-family="Times,serif" font-size="14.00">0x4068e1:</text>
<text text-anchor="start" x="381.5" y="-105.3" font-family="Times,serif" font-size="14.00"> return result</text>
</g>
<!-- Node0x64a5ff70&#45;&gt;Node0x64a5fde0 -->
<g id="edge7" class="edge"><title>Node0x64a5ff70&#45;&gt;Node0x64a5fde0</title>
<path fill="none" stroke="black" d="M449.827,-308.409C459.545,-295.238 471.72,-276.103 477,-257 486.946,-221.016 489.848,-208.053 477,-173 473.008,-162.108 465.827,-151.886 458.262,-143.255"/>
<polygon fill="black" stroke="black" points="460.675,-140.712 451.285,-135.803 455.564,-145.496 460.675,-140.712"/>
<text text-anchor="middle" x="516" y="-211.3" font-family="Times,serif" font-size="14.00">v2 == 0</text>
</g>
<!-- Node0x11218250&#45;&gt;Node0x64a5fde0 -->
<g id="edge8" class="edge"><title>Node0x11218250&#45;&gt;Node0x64a5fde0</title>
<path fill="none" stroke="black" d="M316.27,-173.495C339.527,-162.044 363.997,-149.996 384.256,-140.022"/>
<polygon fill="black" stroke="black" points="385.823,-143.152 393.249,-135.594 382.731,-136.871 385.823,-143.152"/>
</g>
<!-- Node0x64a5d010 -->
<g id="node8" class="node"><title>Node0x64a5d010</title>
<polygon fill="none" stroke="black" points="403,-23.5 403,-59.5 457,-59.5 457,-23.5 403,-23.5"/>
<text text-anchor="start" x="411" y="-37.8" font-family="Times,serif" font-size="14.00">exit:</text>
</g>
<!-- Node0x64a5fde0&#45;&gt;Node0x64a5d010 -->
<g id="edge9" class="edge"><title>Node0x64a5fde0&#45;&gt;Node0x64a5d010</title>
<path fill="none" stroke="black" d="M430,-97.4551C430,-89.2008 430,-79.2377 430,-70.0742"/>
<polygon fill="black" stroke="black" points="433.5,-69.8347 430,-59.8347 426.5,-69.8347 433.5,-69.8347"/>
</g>
</g>
</svg>
