<?xml version="1.0" encoding="UTF-8" standalone="no"?>
<!DOCTYPE svg PUBLIC "-//W3C//DTD SVG 1.1//EN"
 "http://www.w3.org/Graphics/SVG/1.1/DTD/svg11.dtd">
<!-- Generated by graphviz version 2.38.0 (20140413.2041)
 -->
<!-- Title: Control&#45;flow graph for function &#39;function_41b5ca(*a1, *a2, *a3)&#39;. Pages: 1 -->
<svg width="486pt" height="308pt"
 viewBox="0.00 0.00 486.00 308.00" xmlns="http://www.w3.org/2000/svg" xmlns:xlink="http://www.w3.org/1999/xlink">
<g id="graph0" class="graph" transform="scale(1 1) rotate(0) translate(4 304)">
<title>Control&#45;flow graph for function &#39;function_41b5ca(*a1, *a2, *a3)&#39;.</title>
<polygon fill="white" stroke="none" points="-4,4 -4,-304 482,-304 482,4 -4,4"/>
<text text-anchor="middle" x="239" y="-7.8" font-family="Times,serif" font-size="14.00">Control&#45;flow graph for function &#39;function_41b5ca(*a1, *a2, *a3)&#39;.</text>
<!-- Node0xe0074b0 -->
<g id="node1" class="node"><title>Node0xe0074b0</title>
<polygon fill="none" stroke="black" points="209.5,-231.5 209.5,-299.5 268.5,-299.5 268.5,-231.5 209.5,-231.5"/>
<text text-anchor="start" x="217.5" y="-284.3" font-family="Times,serif" font-size="14.00">entry:</text>
<text text-anchor="start" x="217.5" y="-269.3" font-family="Times,serif" font-size="14.00"> a1</text>
<text text-anchor="start" x="217.5" y="-254.3" font-family="Times,serif" font-size="14.00"> a2</text>
<text text-anchor="start" x="217.5" y="-239.3" font-family="Times,serif" font-size="14.00"> a3</text>
</g>
<!-- Node0xa3ec4fb0 -->
<g id="node2" class="node"><title>Node0xa3ec4fb0</title>
<polygon fill="none" stroke="black" points="89,-96.5 89,-194.5 389,-194.5 389,-96.5 89,-96.5"/>
<text text-anchor="start" x="97" y="-179.3" font-family="Times,serif" font-size="14.00">v1 = IntToPtrCastExpr&lt;ptr&gt;(g3)</text>
<text text-anchor="start" x="97" y="-164.3" font-family="Times,serif" font-size="14.00"> v2 = v1</text>
<text text-anchor="start" x="97" y="-149.3" font-family="Times,serif" font-size="14.00"> g3 = PtrToIntCastExpr&lt;int32&gt;(&amp;(v2))</text>
<text text-anchor="start" x="97" y="-134.3" font-family="Times,serif" font-size="14.00"> function_406d3f(a1, a3, a2, a3, v1)</text>
<text text-anchor="start" x="97" y="-119.3" font-family="Times,serif" font-size="14.00"> g3 = PtrToIntCastExpr&lt;int32&gt;(v2)</text>
<text text-anchor="start" x="97" y="-104.3" font-family="Times,serif" font-size="14.00"> return PtrToIntCastExpr&lt;int32&gt;(a1)</text>
</g>
<!-- Node0xe0074b0&#45;&gt;Node0xa3ec4fb0 -->
<g id="edge1" class="edge"><title>Node0xe0074b0&#45;&gt;Node0xa3ec4fb0</title>
<path fill="none" stroke="black" d="M239,-231.316C239,-223.095 239,-214.04 239,-205.001"/>
<polygon fill="black" stroke="black" points="242.5,-204.848 239,-194.848 235.5,-204.848 242.5,-204.848"/>
</g>
<!-- Node0x3bfd4150 -->
<g id="node3" class="node"><title>Node0x3bfd4150</title>
<polygon fill="none" stroke="black" points="212,-23.5 212,-59.5 266,-59.5 266,-23.5 212,-23.5"/>
<text text-anchor="start" x="220" y="-37.8" font-family="Times,serif" font-size="14.00">exit:</text>
</g>
<!-- Node0xa3ec4fb0&#45;&gt;Node0x3bfd4150 -->
<g id="edge2" class="edge"><title>Node0xa3ec4fb0&#45;&gt;Node0x3bfd4150</title>
<path fill="none" stroke="black" d="M239,-96.4868C239,-87.2893 239,-77.9618 239,-69.7064"/>
<polygon fill="black" stroke="black" points="242.5,-69.5725 239,-59.5725 235.5,-69.5725 242.5,-69.5725"/>
</g>
</g>
</svg>
