<?xml version="1.0" encoding="UTF-8" standalone="no"?>
<!DOCTYPE svg PUBLIC "-//W3C//DTD SVG 1.1//EN"
 "http://www.w3.org/Graphics/SVG/1.1/DTD/svg11.dtd">
<!-- Generated by graphviz version 2.38.0 (20140413.2041)
 -->
<!-- Title: Control&#45;flow graph for function &#39;function_409692(a1)&#39;. Pages: 1 -->
<svg width="481pt" height="679pt"
 viewBox="0.00 0.00 481.00 679.00" xmlns="http://www.w3.org/2000/svg" xmlns:xlink="http://www.w3.org/1999/xlink">
<g id="graph0" class="graph" transform="scale(1 1) rotate(0) translate(4 675)">
<title>Control&#45;flow graph for function &#39;function_409692(a1)&#39;.</title>
<polygon fill="white" stroke="none" points="-4,4 -4,-675 477,-675 477,4 -4,4"/>
<text text-anchor="middle" x="236.5" y="-7.8" font-family="Times,serif" font-size="14.00">Control&#45;flow graph for function &#39;function_409692(a1)&#39;.</text>
<!-- Node0x1c2fbf50 -->
<g id="node1" class="node"><title>Node0x1c2fbf50</title>
<polygon fill="none" stroke="black" points="193.5,-632.5 193.5,-670.5 252.5,-670.5 252.5,-632.5 193.5,-632.5"/>
<text text-anchor="start" x="201.5" y="-655.3" font-family="Times,serif" font-size="14.00">entry:</text>
<text text-anchor="start" x="201.5" y="-640.3" font-family="Times,serif" font-size="14.00"> a1</text>
</g>
<!-- Node0x1c2f8b40 -->
<g id="node2" class="node"><title>Node0x1c2f8b40</title>
<polygon fill="none" stroke="black" points="93,-556.5 93,-594.5 353,-594.5 353,-556.5 93,-556.5"/>
<text text-anchor="start" x="101" y="-579.3" font-family="Times,serif" font-size="14.00">v1 = (g5 + 40)</text>
<text text-anchor="start" x="101" y="-564.3" font-family="Times,serif" font-size="14.00"> v2 = IntToPtrCastExpr&lt;ptr&gt;(v1)</text>
</g>
<!-- Node0x1c2fbf50&#45;&gt;Node0x1c2f8b40 -->
<g id="edge1" class="edge"><title>Node0x1c2fbf50&#45;&gt;Node0x1c2f8b40</title>
<path fill="none" stroke="black" d="M223,-632.208C223,-623.964 223,-614.038 223,-604.862"/>
<polygon fill="black" stroke="black" points="226.5,-604.582 223,-594.582 219.5,-604.582 226.5,-604.582"/>
</g>
<!-- Node0x15300e40 -->
<g id="node3" class="node"><title>Node0x15300e40</title>
<polygon fill="none" stroke="black" points="164.5,-482.5 164.5,-518.5 281.5,-518.5 281.5,-482.5 164.5,-482.5"/>
<text text-anchor="start" x="172.5" y="-496.8" font-family="Times,serif" font-size="14.00">if (*(v2) != 0):</text>
</g>
<!-- Node0x1c2f8b40&#45;&gt;Node0x15300e40 -->
<g id="edge2" class="edge"><title>Node0x1c2f8b40&#45;&gt;Node0x15300e40</title>
<path fill="none" stroke="black" d="M223,-556.455C223,-548.201 223,-538.238 223,-529.074"/>
<polygon fill="black" stroke="black" points="226.5,-528.835 223,-518.835 219.5,-528.835 226.5,-528.835"/>
</g>
<!-- Node0x152ffef0 -->
<g id="node4" class="node"><title>Node0x152ffef0</title>
<polygon fill="none" stroke="black" points="0,-320.5 0,-358.5 314,-358.5 314,-320.5 0,-320.5"/>
<text text-anchor="start" x="8" y="-343.3" font-family="Times,serif" font-size="14.00">0x4096b0:</text>
<text text-anchor="start" x="8" y="-328.3" font-family="Times,serif" font-size="14.00"> return PtrToIntCastExpr&lt;int32&gt;(NULL)</text>
</g>
<!-- Node0x15300e40&#45;&gt;Node0x152ffef0 -->
<g id="edge3" class="edge"><title>Node0x15300e40&#45;&gt;Node0x152ffef0</title>
<path fill="none" stroke="black" d="M200.098,-482.235C194.423,-476.949 188.866,-470.733 185,-464 167.971,-434.339 161.299,-395.121 158.684,-368.915"/>
<polygon fill="black" stroke="black" points="162.166,-368.545 157.818,-358.883 155.191,-369.147 162.166,-368.545"/>
<text text-anchor="middle" x="221" y="-452.8" font-family="Times,serif" font-size="14.00">*(v2) != 0</text>
</g>
<!-- Node0x1c2fb2c0 -->
<g id="node5" class="node"><title>Node0x1c2fb2c0</title>
<polygon fill="none" stroke="black" points="207,-377.5 207,-430.5 435,-430.5 435,-377.5 207,-377.5"/>
<text text-anchor="start" x="215" y="-415.3" font-family="Times,serif" font-size="14.00">0x40969a:</text>
<text text-anchor="start" x="215" y="-400.3" font-family="Times,serif" font-size="14.00"> CreateStdAccessibleObject()</text>
<text text-anchor="start" x="215" y="-385.3" font-family="Times,serif" font-size="14.00"> v3</text>
</g>
<!-- Node0x15300e40&#45;&gt;Node0x1c2fb2c0 -->
<g id="edge4" class="edge"><title>Node0x15300e40&#45;&gt;Node0x1c2fb2c0</title>
<path fill="none" stroke="black" d="M240.975,-482.167C253.796,-469.804 271.432,-452.798 286.885,-437.896"/>
<polygon fill="black" stroke="black" points="289.497,-440.24 294.266,-430.78 284.638,-435.202 289.497,-440.24"/>
<text text-anchor="middle" x="314" y="-452.8" font-family="Times,serif" font-size="14.00">*(v2) == 0</text>
</g>
<!-- Node0x1c2f8ac0 -->
<g id="node6" class="node"><title>Node0x1c2f8ac0</title>
<polygon fill="none" stroke="black" points="179,-23.5 179,-59.5 233,-59.5 233,-23.5 179,-23.5"/>
<text text-anchor="start" x="187" y="-37.8" font-family="Times,serif" font-size="14.00">exit:</text>
</g>
<!-- Node0x152ffef0&#45;&gt;Node0x1c2f8ac0 -->
<g id="edge5" class="edge"><title>Node0x152ffef0&#45;&gt;Node0x1c2f8ac0</title>
<path fill="none" stroke="black" d="M157,-320.435C157,-300.407 157,-267.146 157,-238.5 157,-238.5 157,-238.5 157,-115.5 157,-97.2977 167.632,-80.2133 178.992,-67.1549"/>
<polygon fill="black" stroke="black" points="181.806,-69.2694 186.07,-59.5705 176.688,-64.4934 181.806,-69.2694"/>
</g>
<!-- Node0x1c2f9020 -->
<g id="node7" class="node"><title>Node0x1c2f9020</title>
<polygon fill="none" stroke="black" points="276.5,-263.5 276.5,-301.5 381.5,-301.5 381.5,-263.5 276.5,-263.5"/>
<text text-anchor="start" x="284.5" y="-286.3" font-family="Times,serif" font-size="14.00">if (v1 &gt;= 0):</text>
<text text-anchor="start" x="284.5" y="-271.3" font-family="Times,serif" font-size="14.00"> else:</text>
</g>
<!-- Node0x1c2fb2c0&#45;&gt;Node0x1c2f9020 -->
<g id="edge6" class="edge"><title>Node0x1c2fb2c0&#45;&gt;Node0x1c2f9020</title>
<path fill="none" stroke="black" d="M322.716,-377.364C324.008,-358.064 325.778,-331.623 327.111,-311.721"/>
<polygon fill="black" stroke="black" points="330.605,-311.916 327.781,-301.704 323.621,-311.448 330.605,-311.916"/>
</g>
<!-- Node0x15300020 -->
<g id="node8" class="node"><title>Node0x15300020</title>
<polygon fill="none" stroke="black" points="221.5,-173.5 221.5,-211.5 324.5,-211.5 324.5,-173.5 221.5,-173.5"/>
<text text-anchor="start" x="229.5" y="-196.3" font-family="Times,serif" font-size="14.00">0x4096ae:</text>
<text text-anchor="start" x="229.5" y="-181.3" font-family="Times,serif" font-size="14.00"> v3 = NULL</text>
</g>
<!-- Node0x1c2f9020&#45;&gt;Node0x15300020 -->
<g id="edge7" class="edge"><title>Node0x1c2f9020&#45;&gt;Node0x15300020</title>
<path fill="none" stroke="black" d="M303.002,-263.135C297.033,-257.866 291.21,-251.71 287,-245 282.617,-238.015 279.589,-229.662 277.505,-221.737"/>
<polygon fill="black" stroke="black" points="280.863,-220.715 275.272,-211.716 274.03,-222.237 280.863,-220.715"/>
<text text-anchor="middle" x="317" y="-233.8" font-family="Times,serif" font-size="14.00">v1 &gt;= 0</text>
</g>
<!-- Node0x174281c0 -->
<g id="node9" class="node"><title>Node0x174281c0</title>
<polygon fill="none" stroke="black" points="343,-174.5 343,-210.5 415,-210.5 415,-174.5 343,-174.5"/>
<text text-anchor="start" x="351" y="-188.8" font-family="Times,serif" font-size="14.00">v3 = v2</text>
</g>
<!-- Node0x1c2f9020&#45;&gt;Node0x174281c0 -->
<g id="edge8" class="edge"><title>Node0x1c2f9020&#45;&gt;Node0x174281c0</title>
<path fill="none" stroke="black" d="M339.36,-263.266C346.587,-250.547 356.334,-233.392 364.354,-219.276"/>
<polygon fill="black" stroke="black" points="367.435,-220.94 369.332,-210.516 361.348,-217.482 367.435,-220.94"/>
<text text-anchor="middle" x="380" y="-233.8" font-family="Times,serif" font-size="14.00">v1 &lt; 0</text>
</g>
<!-- Node0x1c2fc950 -->
<g id="node10" class="node"><title>Node0x1c2fc950</title>
<polygon fill="none" stroke="black" points="185,-97.5 185,-135.5 473,-135.5 473,-97.5 185,-97.5"/>
<text text-anchor="start" x="193" y="-120.3" font-family="Times,serif" font-size="14.00">0x4096b0:</text>
<text text-anchor="start" x="193" y="-105.3" font-family="Times,serif" font-size="14.00"> return PtrToIntCastExpr&lt;int32&gt;(v3)</text>
</g>
<!-- Node0x15300020&#45;&gt;Node0x1c2fc950 -->
<g id="edge9" class="edge"><title>Node0x15300020&#45;&gt;Node0x1c2fc950</title>
<path fill="none" stroke="black" d="M286.843,-173.208C293.556,-164.336 301.744,-153.517 309.111,-143.782"/>
<polygon fill="black" stroke="black" points="312.073,-145.668 315.317,-135.582 306.491,-141.444 312.073,-145.668"/>
</g>
<!-- Node0x174281c0&#45;&gt;Node0x1c2fc950 -->
<g id="edge10" class="edge"><title>Node0x174281c0&#45;&gt;Node0x1c2fc950</title>
<path fill="none" stroke="black" d="M367.403,-174.337C361.334,-165.355 353.769,-154.158 346.962,-144.083"/>
<polygon fill="black" stroke="black" points="349.73,-141.929 341.231,-135.602 343.93,-145.848 349.73,-141.929"/>
</g>
<!-- Node0x1c2fc950&#45;&gt;Node0x1c2f8ac0 -->
<g id="edge11" class="edge"><title>Node0x1c2fc950&#45;&gt;Node0x1c2f8ac0</title>
<path fill="none" stroke="black" d="M298.595,-97.4551C281.512,-87.316 260.084,-74.5986 242.145,-63.952"/>
<polygon fill="black" stroke="black" points="243.51,-60.6918 233.124,-58.5978 239.937,-66.7115 243.51,-60.6918"/>
</g>
</g>
</svg>
