<?xml version="1.0" encoding="UTF-8" standalone="no"?>
<!DOCTYPE svg PUBLIC "-//W3C//DTD SVG 1.1//EN"
 "http://www.w3.org/Graphics/SVG/1.1/DTD/svg11.dtd">
<!-- Generated by graphviz version 2.38.0 (20140413.2041)
 -->
<!-- Title: Control&#45;flow graph for function &#39;function_40e1c7()&#39;. Pages: 1 -->
<svg width="820pt" height="1178pt"
 viewBox="0.00 0.00 819.50 1178.00" xmlns="http://www.w3.org/2000/svg" xmlns:xlink="http://www.w3.org/1999/xlink">
<g id="graph0" class="graph" transform="scale(1 1) rotate(0) translate(4 1174)">
<title>Control&#45;flow graph for function &#39;function_40e1c7()&#39;.</title>
<polygon fill="white" stroke="none" points="-4,4 -4,-1174 815.5,-1174 815.5,4 -4,4"/>
<text text-anchor="middle" x="405.75" y="-7.8" font-family="Times,serif" font-size="14.00">Control&#45;flow graph for function &#39;function_40e1c7()&#39;.</text>
<!-- Node0xcacf3810 -->
<g id="node1" class="node"><title>Node0xcacf3810</title>
<polygon fill="none" stroke="black" points="639.5,-1133.5 639.5,-1169.5 698.5,-1169.5 698.5,-1133.5 639.5,-1133.5"/>
<text text-anchor="start" x="647.5" y="-1147.8" font-family="Times,serif" font-size="14.00">entry:</text>
</g>
<!-- Node0xcacf3c40 -->
<g id="node2" class="node"><title>Node0xcacf3c40</title>
<polygon fill="none" stroke="black" points="526.5,-952.5 526.5,-1095.5 811.5,-1095.5 811.5,-952.5 526.5,-952.5"/>
<text text-anchor="start" x="534.5" y="-1080.3" font-family="Times,serif" font-size="14.00">v1</text>
<text text-anchor="start" x="534.5" y="-1065.3" font-family="Times,serif" font-size="14.00"> v2 = &amp;(v1)</text>
<text text-anchor="start" x="534.5" y="-1050.3" font-family="Times,serif" font-size="14.00"> g10 = v2</text>
<text text-anchor="start" x="534.5" y="-1035.3" font-family="Times,serif" font-size="14.00"> v3</text>
<text text-anchor="start" x="534.5" y="-1020.3" font-family="Times,serif" font-size="14.00"> v4 = PtrToIntCastExpr&lt;int32&gt;(v3)</text>
<text text-anchor="start" x="534.5" y="-1005.3" font-family="Times,serif" font-size="14.00"> g9 = v4</text>
<text text-anchor="start" x="534.5" y="-990.3" font-family="Times,serif" font-size="14.00"> v5 = *(BitCastExpr&lt;ptr&gt;(v3))</text>
<text text-anchor="start" x="534.5" y="-975.3" font-family="Times,serif" font-size="14.00"> hWnd = IntToPtrCastExpr&lt;ptr&gt;(v5)</text>
<text text-anchor="start" x="534.5" y="-960.3" font-family="Times,serif" font-size="14.00"> v6 = hWnd</text>
</g>
<!-- Node0xcacf3810&#45;&gt;Node0xcacf3c40 -->
<g id="edge1" class="edge"><title>Node0xcacf3810&#45;&gt;Node0xcacf3c40</title>
<path fill="none" stroke="black" d="M669,-1133.31C669,-1125.68 669,-1116.1 669,-1105.81"/>
<polygon fill="black" stroke="black" points="672.5,-1105.77 669,-1095.77 665.5,-1105.77 672.5,-1105.77"/>
</g>
<!-- Node0xcacf3d80 -->
<g id="node3" class="node"><title>Node0xcacf3d80</title>
<polygon fill="none" stroke="black" points="619.5,-878.5 619.5,-914.5 718.5,-914.5 718.5,-878.5 619.5,-878.5"/>
<text text-anchor="start" x="627.5" y="-892.8" font-family="Times,serif" font-size="14.00">if (v5 != 0):</text>
</g>
<!-- Node0xcacf3c40&#45;&gt;Node0xcacf3d80 -->
<g id="edge2" class="edge"><title>Node0xcacf3c40&#45;&gt;Node0xcacf3d80</title>
<path fill="none" stroke="black" d="M669,-952.181C669,-942.439 669,-932.961 669,-924.707"/>
<polygon fill="black" stroke="black" points="672.5,-924.642 669,-914.642 665.5,-924.642 672.5,-924.642"/>
</g>
<!-- Node0x314d97c0 -->
<g id="node4" class="node"><title>Node0x314d97c0</title>
<polygon fill="none" stroke="black" points="339,-788.5 339,-826.5 697,-826.5 697,-788.5 339,-788.5"/>
<text text-anchor="start" x="347" y="-811.3" font-family="Times,serif" font-size="14.00">v7 = SendMessageA(hWnd, 135, NULL, NULL)</text>
<text text-anchor="start" x="347" y="-796.3" font-family="Times,serif" font-size="14.00"> g10 = v2</text>
</g>
<!-- Node0xcacf3d80&#45;&gt;Node0x314d97c0 -->
<g id="edge3" class="edge"><title>Node0xcacf3d80&#45;&gt;Node0x314d97c0</title>
<path fill="none" stroke="black" d="M639.167,-878.312C615.948,-864.934 583.499,-846.238 558.024,-831.56"/>
<polygon fill="black" stroke="black" points="559.742,-828.511 549.33,-826.551 556.248,-834.576 559.742,-828.511"/>
<text text-anchor="middle" x="635" y="-848.8" font-family="Times,serif" font-size="14.00">v5 != 0</text>
</g>
<!-- Node0xcacf3f20 -->
<g id="node5" class="node"><title>Node0xcacf3f20</title>
<polygon fill="none" stroke="black" points="327,-435.5 327,-503.5 603,-503.5 603,-435.5 327,-435.5"/>
<text text-anchor="start" x="335" y="-488.3" font-family="Times,serif" font-size="14.00">0x40e1ec:</text>
<text text-anchor="start" x="335" y="-473.3" font-family="Times,serif" font-size="14.00"> g5 = v4</text>
<text text-anchor="start" x="335" y="-458.3" font-family="Times,serif" font-size="14.00"> function_40e1ae()</text>
<text text-anchor="start" x="335" y="-443.3" font-family="Times,serif" font-size="14.00"> v8 = PtrToIntCastExpr&lt;int32&gt;(v6)</text>
</g>
<!-- Node0xcacf3d80&#45;&gt;Node0xcacf3f20 -->
<g id="edge4" class="edge"><title>Node0xcacf3d80&#45;&gt;Node0xcacf3f20</title>
<path fill="none" stroke="black" d="M696.183,-878.316C716.937,-862.861 742,-838.075 742,-808.5 742,-808.5 742,-808.5 742,-635 742,-566.631 678.844,-526.047 612.845,-502.303"/>
<polygon fill="black" stroke="black" points="613.689,-498.891 603.094,-498.92 611.395,-505.504 613.689,-498.891"/>
<text text-anchor="middle" x="772" y="-728.8" font-family="Times,serif" font-size="14.00">v5 == 0</text>
</g>
<!-- Node0xcacf4b60 -->
<g id="node6" class="node"><title>Node0xcacf4b60</title>
<polygon fill="none" stroke="black" points="314.5,-714.5 314.5,-750.5 615.5,-750.5 615.5,-714.5 314.5,-714.5"/>
<text text-anchor="start" x="322.5" y="-728.8" font-family="Times,serif" font-size="14.00">if (v7 != IntToPtrCastExpr&lt;ptr&gt;(256)):</text>
</g>
<!-- Node0x314d97c0&#45;&gt;Node0xcacf4b60 -->
<g id="edge5" class="edge"><title>Node0x314d97c0&#45;&gt;Node0xcacf4b60</title>
<path fill="none" stroke="black" d="M504.899,-788.455C498.45,-779.573 490.565,-768.712 483.512,-758.998"/>
<polygon fill="black" stroke="black" points="486.293,-756.871 477.585,-750.835 480.628,-760.983 486.293,-756.871"/>
</g>
<!-- Node0xcacf39f0 -->
<g id="node7" class="node"><title>Node0xcacf39f0</title>
<polygon fill="none" stroke="black" points="348,-361.5 348,-397.5 566,-397.5 566,-361.5 348,-361.5"/>
<text text-anchor="start" x="356" y="-375.8" font-family="Times,serif" font-size="14.00">if ((v8 &amp; 268435456) == 0):</text>
</g>
<!-- Node0xcacf3f20&#45;&gt;Node0xcacf39f0 -->
<g id="edge6" class="edge"><title>Node0xcacf3f20&#45;&gt;Node0xcacf39f0</title>
<path fill="none" stroke="black" d="M461.998,-435.482C461.166,-426.328 460.272,-416.497 459.474,-407.715"/>
<polygon fill="black" stroke="black" points="462.949,-407.282 458.558,-397.64 455.978,-407.916 462.949,-407.282"/>
</g>
<!-- Node0xcacf3f80 -->
<g id="node8" class="node"><title>Node0xcacf3f80</title>
<polygon fill="none" stroke="black" points="0,-522.5 0,-590.5 374,-590.5 374,-522.5 0,-522.5"/>
<text text-anchor="start" x="8" y="-575.3" font-family="Times,serif" font-size="14.00">0x40e1e8:</text>
<text text-anchor="start" x="8" y="-560.3" font-family="Times,serif" font-size="14.00"> g2 = ((PtrToIntCastExpr&lt;int32&gt;(v7) &amp; &#45;256) | 1)</text>
<text text-anchor="start" x="8" y="-545.3" font-family="Times,serif" font-size="14.00"> g9 = v1</text>
<text text-anchor="start" x="8" y="-530.3" font-family="Times,serif" font-size="14.00"> return</text>
</g>
<!-- Node0xcacf4b60&#45;&gt;Node0xcacf3f80 -->
<g id="edge7" class="edge"><title>Node0xcacf4b60&#45;&gt;Node0xcacf3f80</title>
<path fill="none" stroke="black" d="M314.416,-726.381C266.416,-721.554 221.456,-712.563 205,-696 180.663,-671.506 177.832,-631.407 180.111,-600.642"/>
<polygon fill="black" stroke="black" points="183.604,-600.887 181.057,-590.603 176.635,-600.231 183.604,-600.887"/>
<text text-anchor="middle" x="333" y="-684.8" font-family="Times,serif" font-size="14.00">v7 != IntToPtrCastExpr&lt;ptr&gt;(256)</text>
</g>
<!-- Node0xcacf4c00 -->
<g id="node9" class="node"><title>Node0xcacf4c00</title>
<polygon fill="none" stroke="black" points="330,-609.5 330,-662.5 600,-662.5 600,-609.5 330,-609.5"/>
<text text-anchor="start" x="338" y="-647.3" font-family="Times,serif" font-size="14.00">0x40e1d2:</text>
<text text-anchor="start" x="338" y="-632.3" font-family="Times,serif" font-size="14.00"> v4 = g9</text>
<text text-anchor="start" x="338" y="-617.3" font-family="Times,serif" font-size="14.00"> v6 = IntToPtrCastExpr&lt;ptr&gt;(256)</text>
</g>
<!-- Node0xcacf4b60&#45;&gt;Node0xcacf4c00 -->
<g id="edge8" class="edge"><title>Node0xcacf4b60&#45;&gt;Node0xcacf4c00</title>
<path fill="none" stroke="black" d="M465,-714.167C465,-702.703 465,-687.247 465,-673.178"/>
<polygon fill="black" stroke="black" points="468.5,-672.78 465,-662.78 461.5,-672.78 468.5,-672.78"/>
<text text-anchor="middle" x="596" y="-684.8" font-family="Times,serif" font-size="14.00">v7 == IntToPtrCastExpr&lt;ptr&gt;(256)</text>
</g>
<!-- Node0x2db189c0 -->
<g id="node10" class="node"><title>Node0x2db189c0</title>
<polygon fill="none" stroke="black" points="213,-184.5 213,-252.5 305,-252.5 305,-184.5 213,-184.5"/>
<text text-anchor="start" x="221" y="-237.3" font-family="Times,serif" font-size="14.00">0x40e205:</text>
<text text-anchor="start" x="221" y="-222.3" font-family="Times,serif" font-size="14.00"> g2 = 1</text>
<text text-anchor="start" x="221" y="-207.3" font-family="Times,serif" font-size="14.00"> g9 = v1</text>
<text text-anchor="start" x="221" y="-192.3" font-family="Times,serif" font-size="14.00"> return</text>
</g>
<!-- Node0xcacf39f0&#45;&gt;Node0x2db189c0 -->
<g id="edge9" class="edge"><title>Node0xcacf39f0&#45;&gt;Node0x2db189c0</title>
<path fill="none" stroke="black" d="M347.811,-366.796C317.704,-361.404 290.425,-353.737 280,-343 259.737,-322.13 254.915,-289.358 254.93,-262.816"/>
<polygon fill="black" stroke="black" points="258.434,-262.697 255.167,-252.618 251.436,-262.534 258.434,-262.697"/>
<text text-anchor="middle" x="366.5" y="-331.8" font-family="Times,serif" font-size="14.00">(v8 &amp; 268435456) == 0</text>
</g>
<!-- Node0xcacf45b0 -->
<g id="node11" class="node"><title>Node0xcacf45b0</title>
<polygon fill="none" stroke="black" points="345.5,-271.5 345.5,-309.5 568.5,-309.5 568.5,-271.5 345.5,-271.5"/>
<text text-anchor="start" x="353.5" y="-294.3" font-family="Times,serif" font-size="14.00">0x40e1fa:</text>
<text text-anchor="start" x="353.5" y="-279.3" font-family="Times,serif" font-size="14.00"> if ((v8 &amp; 134217728) == 0):</text>
</g>
<!-- Node0xcacf39f0&#45;&gt;Node0xcacf45b0 -->
<g id="edge10" class="edge"><title>Node0xcacf39f0&#45;&gt;Node0xcacf45b0</title>
<path fill="none" stroke="black" d="M457,-361.312C457,-349.511 457,-333.572 457,-319.904"/>
<polygon fill="black" stroke="black" points="460.5,-319.551 457,-309.551 453.5,-319.551 460.5,-319.551"/>
<text text-anchor="middle" x="540.5" y="-331.8" font-family="Times,serif" font-size="14.00">(v8 &amp; 268435456) != 0</text>
</g>
<!-- Node0x2fc612f0 -->
<g id="node12" class="node"><title>Node0x2fc612f0</title>
<polygon fill="none" stroke="black" points="254,-23.5 254,-59.5 308,-59.5 308,-23.5 254,-23.5"/>
<text text-anchor="start" x="262" y="-37.8" font-family="Times,serif" font-size="14.00">exit:</text>
</g>
<!-- Node0xcacf3f80&#45;&gt;Node0x2fc612f0 -->
<g id="edge11" class="edge"><title>Node0xcacf3f80&#45;&gt;Node0x2fc612f0</title>
<path fill="none" stroke="black" d="M191.127,-522.257C194.249,-494.237 198,-453.061 198,-417 198,-417 198,-417 198,-130.5 198,-101.077 222.859,-77.5022 245.368,-62.1868"/>
<polygon fill="black" stroke="black" points="247.321,-65.0919 253.823,-56.7265 243.523,-59.2116 247.321,-65.0919"/>
</g>
<!-- Node0xcacf4c00&#45;&gt;Node0xcacf3f20 -->
<g id="edge12" class="edge"><title>Node0xcacf4c00&#45;&gt;Node0xcacf3f20</title>
<path fill="none" stroke="black" d="M465,-609.297C465,-583.835 465,-544.36 465,-514.008"/>
<polygon fill="black" stroke="black" points="468.5,-513.69 465,-503.69 461.5,-513.69 468.5,-513.69"/>
</g>
<!-- Node0x2db189c0&#45;&gt;Node0x2fc612f0 -->
<g id="edge13" class="edge"><title>Node0x2db189c0&#45;&gt;Node0x2fc612f0</title>
<path fill="none" stroke="black" d="M263.19,-184.172C267.361,-150.994 273.685,-100.686 277.568,-69.7997"/>
<polygon fill="black" stroke="black" points="281.057,-70.1033 278.832,-59.7448 274.112,-69.2301 281.057,-70.1033"/>
</g>
<!-- Node0xcacf4e70 -->
<g id="node13" class="node"><title>Node0xcacf4e70</title>
<polygon fill="none" stroke="black" points="285,-97.5 285,-165.5 377,-165.5 377,-97.5 285,-97.5"/>
<text text-anchor="start" x="293" y="-150.3" font-family="Times,serif" font-size="14.00">0x40e201:</text>
<text text-anchor="start" x="293" y="-135.3" font-family="Times,serif" font-size="14.00"> g2 = 0</text>
<text text-anchor="start" x="293" y="-120.3" font-family="Times,serif" font-size="14.00"> g9 = v1</text>
<text text-anchor="start" x="293" y="-105.3" font-family="Times,serif" font-size="14.00"> return</text>
</g>
<!-- Node0xcacf45b0&#45;&gt;Node0xcacf4e70 -->
<g id="edge14" class="edge"><title>Node0xcacf45b0&#45;&gt;Node0xcacf4e70</title>
<path fill="none" stroke="black" d="M363.204,-271.47C346.385,-266.361 332.451,-260.193 327,-253 310.554,-231.301 311.854,-200.542 317.111,-175.532"/>
<polygon fill="black" stroke="black" points="320.574,-176.099 319.474,-165.561 313.763,-174.485 320.574,-176.099"/>
<text text-anchor="middle" x="413.5" y="-214.8" font-family="Times,serif" font-size="14.00">(v8 &amp; 134217728) == 0</text>
</g>
<!-- Node0xcacf49f0 -->
<g id="node14" class="node"><title>Node0xcacf49f0</title>
<polygon fill="none" stroke="black" points="438,-105 438,-158 530,-158 530,-105 438,-105"/>
<text text-anchor="start" x="446" y="-142.8" font-family="Times,serif" font-size="14.00">0x40e205:</text>
<text text-anchor="start" x="446" y="-127.8" font-family="Times,serif" font-size="14.00"> g2 = 1</text>
<text text-anchor="start" x="446" y="-112.8" font-family="Times,serif" font-size="14.00"> g9 = v1</text>
</g>
<!-- Node0xcacf45b0&#45;&gt;Node0xcacf49f0 -->
<g id="edge15" class="edge"><title>Node0xcacf45b0&#45;&gt;Node0xcacf49f0</title>
<path fill="none" stroke="black" d="M488.912,-271.2C495.003,-266.134 500.548,-260.052 504,-253 517.088,-226.265 509.811,-192.621 500.566,-167.681"/>
<polygon fill="black" stroke="black" points="503.764,-166.252 496.824,-158.247 497.257,-168.833 503.764,-166.252"/>
<text text-anchor="middle" x="595.5" y="-214.8" font-family="Times,serif" font-size="14.00">(v8 &amp; 134217728) != 0</text>
</g>
<!-- Node0xcacf4e70&#45;&gt;Node0x2fc612f0 -->
<g id="edge16" class="edge"><title>Node0xcacf4e70&#45;&gt;Node0x2fc612f0</title>
<path fill="none" stroke="black" d="M312.24,-97.4817C306.81,-87.9258 300.961,-77.6316 295.809,-68.5637"/>
<polygon fill="black" stroke="black" points="298.722,-66.6058 290.739,-59.6402 292.636,-70.0639 298.722,-66.6058"/>
</g>
<!-- Node0xcacf49f0&#45;&gt;Node0x2fc612f0 -->
<g id="edge17" class="edge"><title>Node0xcacf49f0&#45;&gt;Node0x2fc612f0</title>
<path fill="none" stroke="black" d="M437.936,-110.531C401.524,-94.7467 351.38,-73.0097 317.66,-58.392"/>
<polygon fill="black" stroke="black" points="318.75,-55.05 308.183,-54.2839 315.966,-61.4725 318.75,-55.05"/>
</g>
</g>
</svg>
