<?xml version="1.0" encoding="UTF-8" standalone="no"?>
<!DOCTYPE svg PUBLIC "-//W3C//DTD SVG 1.1//EN"
 "http://www.w3.org/Graphics/SVG/1.1/DTD/svg11.dtd">
<!-- Generated by graphviz version 2.38.0 (20140413.2041)
 -->
<!-- Title: Control&#45;flow graph for function &#39;function_40ea72(*lpWideCharStr)&#39;. Pages: 1 -->
<svg width="623pt" height="233pt"
 viewBox="0.00 0.00 623.00 233.00" xmlns="http://www.w3.org/2000/svg" xmlns:xlink="http://www.w3.org/1999/xlink">
<g id="graph0" class="graph" transform="scale(1 1) rotate(0) translate(4 229)">
<title>Control&#45;flow graph for function &#39;function_40ea72(*lpWideCharStr)&#39;.</title>
<polygon fill="white" stroke="none" points="-4,4 -4,-229 619,-229 619,4 -4,4"/>
<text text-anchor="middle" x="307.5" y="-7.8" font-family="Times,serif" font-size="14.00">Control&#45;flow graph for function &#39;function_40ea72(*lpWideCharStr)&#39;.</text>
<!-- Node0xbe81d090 -->
<g id="node1" class="node"><title>Node0xbe81d090</title>
<polygon fill="none" stroke="black" points="243.5,-186.5 243.5,-224.5 371.5,-224.5 371.5,-186.5 243.5,-186.5"/>
<text text-anchor="start" x="251.5" y="-209.3" font-family="Times,serif" font-size="14.00">entry:</text>
<text text-anchor="start" x="251.5" y="-194.3" font-family="Times,serif" font-size="14.00"> lpWideCharStr</text>
</g>
<!-- Node0xbe81fdb0 -->
<g id="node2" class="node"><title>Node0xbe81fdb0</title>
<polygon fill="none" stroke="black" points="0,-96.5 0,-149.5 615,-149.5 615,-96.5 0,-96.5"/>
<text text-anchor="start" x="8" y="-134.3" font-family="Times,serif" font-size="14.00">0x40ea72:</text>
<text text-anchor="start" x="8" y="-119.3" font-family="Times,serif" font-size="14.00"> function_4363ae()</text>
<text text-anchor="start" x="8" y="-104.3" font-family="Times,serif" font-size="14.00"> return (WideCharToMultiByte(0, 0, lpWideCharStr, &#45;1, NULL, 0, NULL, NULL) &#45; 1)</text>
</g>
<!-- Node0xbe81d090&#45;&gt;Node0xbe81fdb0 -->
<g id="edge1" class="edge"><title>Node0xbe81d090&#45;&gt;Node0xbe81fdb0</title>
<path fill="none" stroke="black" d="M307.5,-186.233C307.5,-178.347 307.5,-168.835 307.5,-159.648"/>
<polygon fill="black" stroke="black" points="311,-159.517 307.5,-149.517 304,-159.517 311,-159.517"/>
</g>
<!-- Node0x3953b370 -->
<g id="node3" class="node"><title>Node0x3953b370</title>
<polygon fill="none" stroke="black" points="280.5,-23.5 280.5,-59.5 334.5,-59.5 334.5,-23.5 280.5,-23.5"/>
<text text-anchor="start" x="288.5" y="-37.8" font-family="Times,serif" font-size="14.00">exit:</text>
</g>
<!-- Node0xbe81fdb0&#45;&gt;Node0x3953b370 -->
<g id="edge2" class="edge"><title>Node0xbe81fdb0&#45;&gt;Node0x3953b370</title>
<path fill="none" stroke="black" d="M307.5,-96.4081C307.5,-87.9823 307.5,-78.5803 307.5,-70.0174"/>
<polygon fill="black" stroke="black" points="311,-69.7564 307.5,-59.7564 304,-69.7565 311,-69.7564"/>
</g>
</g>
</svg>
