<?xml version="1.0" encoding="UTF-8" standalone="no"?>
<!DOCTYPE svg PUBLIC "-//W3C//DTD SVG 1.1//EN"
 "http://www.w3.org/Graphics/SVG/1.1/DTD/svg11.dtd">
<!-- Generated by graphviz version 2.38.0 (20140413.2041)
 -->
<!-- Title: Control&#45;flow graph for function &#39;function_42ad6c(a1, a2, a3, a4, a5)&#39;. Pages: 1 -->
<svg width="516pt" height="503pt"
 viewBox="0.00 0.00 516.00 503.00" xmlns="http://www.w3.org/2000/svg" xmlns:xlink="http://www.w3.org/1999/xlink">
<g id="graph0" class="graph" transform="scale(1 1) rotate(0) translate(4 499)">
<title>Control&#45;flow graph for function &#39;function_42ad6c(a1, a2, a3, a4, a5)&#39;.</title>
<polygon fill="white" stroke="none" points="-4,4 -4,-499 512,-499 512,4 -4,4"/>
<text text-anchor="middle" x="254" y="-7.8" font-family="Times,serif" font-size="14.00">Control&#45;flow graph for function &#39;function_42ad6c(a1, a2, a3, a4, a5)&#39;.</text>
<!-- Node0xc6486f80 -->
<g id="node1" class="node"><title>Node0xc6486f80</title>
<polygon fill="none" stroke="black" points="224.5,-396.5 224.5,-494.5 283.5,-494.5 283.5,-396.5 224.5,-396.5"/>
<text text-anchor="start" x="232.5" y="-479.3" font-family="Times,serif" font-size="14.00">entry:</text>
<text text-anchor="start" x="232.5" y="-464.3" font-family="Times,serif" font-size="14.00"> a1</text>
<text text-anchor="start" x="232.5" y="-449.3" font-family="Times,serif" font-size="14.00"> a2</text>
<text text-anchor="start" x="232.5" y="-434.3" font-family="Times,serif" font-size="14.00"> a3</text>
<text text-anchor="start" x="232.5" y="-419.3" font-family="Times,serif" font-size="14.00"> a4</text>
<text text-anchor="start" x="232.5" y="-404.3" font-family="Times,serif" font-size="14.00"> a5</text>
</g>
<!-- Node0xc647b780 -->
<g id="node2" class="node"><title>Node0xc647b780</title>
<polygon fill="none" stroke="black" points="80.5,-96.5 80.5,-359.5 427.5,-359.5 427.5,-96.5 80.5,-96.5"/>
<text text-anchor="start" x="88.5" y="-344.3" font-family="Times,serif" font-size="14.00">v1 = *(IntToPtrCastExpr&lt;ptr&gt;((g9 + 3)))</text>
<text text-anchor="start" x="88.5" y="-329.3" font-family="Times,serif" font-size="14.00"> g2 = ((g2 &amp; &#45;256) | ExtCastExpr&lt;int32&gt;(v1))</text>
<text text-anchor="start" x="88.5" y="-314.3" font-family="Times,serif" font-size="14.00"> *(IntToPtrCastExpr&lt;ptr&gt;((g7 + 3))) = v1</text>
<text text-anchor="start" x="88.5" y="-299.3" font-family="Times,serif" font-size="14.00"> v2 = *(IntToPtrCastExpr&lt;ptr&gt;((g9 + 2)))</text>
<text text-anchor="start" x="88.5" y="-284.3" font-family="Times,serif" font-size="14.00"> g2 = ((g2 &amp; &#45;256) | ExtCastExpr&lt;int32&gt;(v2))</text>
<text text-anchor="start" x="88.5" y="-269.3" font-family="Times,serif" font-size="14.00"> *(IntToPtrCastExpr&lt;ptr&gt;((g7 + 2))) = v2</text>
<text text-anchor="start" x="88.5" y="-254.3" font-family="Times,serif" font-size="14.00"> v3 = *(IntToPtrCastExpr&lt;ptr&gt;((g9 + 1)))</text>
<text text-anchor="start" x="88.5" y="-239.3" font-family="Times,serif" font-size="14.00"> g2 = ((g2 &amp; &#45;256) | ExtCastExpr&lt;int32&gt;(v3))</text>
<text text-anchor="start" x="88.5" y="-224.3" font-family="Times,serif" font-size="14.00"> *(IntToPtrCastExpr&lt;ptr&gt;((g7 + 1))) = v3</text>
<text text-anchor="start" x="88.5" y="-209.3" font-family="Times,serif" font-size="14.00"> v4 = g3</text>
<text text-anchor="start" x="88.5" y="-194.3" font-family="Times,serif" font-size="14.00"> v5 = (v4 + 8)</text>
<text text-anchor="start" x="88.5" y="-179.3" font-family="Times,serif" font-size="14.00"> v6</text>
<text text-anchor="start" x="88.5" y="-164.3" font-family="Times,serif" font-size="14.00"> g9 = v6</text>
<text text-anchor="start" x="88.5" y="-149.3" font-family="Times,serif" font-size="14.00"> g7 = a1</text>
<text text-anchor="start" x="88.5" y="-134.3" font-family="Times,serif" font-size="14.00"> g3 = *(IntToPtrCastExpr&lt;ptr&gt;(v4))</text>
<text text-anchor="start" x="88.5" y="-119.3" font-family="Times,serif" font-size="14.00"> g10 = v5</text>
<text text-anchor="start" x="88.5" y="-104.3" font-family="Times,serif" font-size="14.00"> return *(IntToPtrCastExpr&lt;ptr&gt;(v5))</text>
</g>
<!-- Node0xc6486f80&#45;&gt;Node0xc647b780 -->
<g id="edge1" class="edge"><title>Node0xc6486f80&#45;&gt;Node0xc647b780</title>
<path fill="none" stroke="black" d="M254,-396.406C254,-388.116 254,-379.138 254,-369.793"/>
<polygon fill="black" stroke="black" points="257.5,-369.524 254,-359.524 250.5,-369.524 257.5,-369.524"/>
</g>
<!-- Node0xc647e2f0 -->
<g id="node3" class="node"><title>Node0xc647e2f0</title>
<polygon fill="none" stroke="black" points="227,-23.5 227,-59.5 281,-59.5 281,-23.5 227,-23.5"/>
<text text-anchor="start" x="235" y="-37.8" font-family="Times,serif" font-size="14.00">exit:</text>
</g>
<!-- Node0xc647b780&#45;&gt;Node0xc647e2f0 -->
<g id="edge2" class="edge"><title>Node0xc647b780&#45;&gt;Node0xc647e2f0</title>
<path fill="none" stroke="black" d="M254,-96.361C254,-86.7102 254,-77.7416 254,-70.0001"/>
<polygon fill="black" stroke="black" points="257.5,-69.93 254,-59.93 250.5,-69.93 257.5,-69.93"/>
</g>
</g>
</svg>
