<?xml version="1.0" encoding="UTF-8" standalone="no"?>
<!DOCTYPE svg PUBLIC "-//W3C//DTD SVG 1.1//EN"
 "http://www.w3.org/Graphics/SVG/1.1/DTD/svg11.dtd">
<!-- Generated by graphviz version 2.38.0 (20140413.2041)
 -->
<!-- Title: Control&#45;flow graph for function &#39;function_416824(a1, *lprcSrc)&#39;. Pages: 1 -->
<svg width="1023pt" height="1576pt"
 viewBox="0.00 0.00 1022.50 1576.00" xmlns="http://www.w3.org/2000/svg" xmlns:xlink="http://www.w3.org/1999/xlink">
<g id="graph0" class="graph" transform="scale(1 1) rotate(0) translate(4 1572)">
<title>Control&#45;flow graph for function &#39;function_416824(a1, *lprcSrc)&#39;.</title>
<polygon fill="white" stroke="none" points="-4,4 -4,-1572 1018.5,-1572 1018.5,4 -4,4"/>
<text text-anchor="middle" x="507.25" y="-7.8" font-family="Times,serif" font-size="14.00">Control&#45;flow graph for function &#39;function_416824(a1, *lprcSrc)&#39;.</text>
<!-- Node0x2955b110 -->
<g id="node1" class="node"><title>Node0x2955b110</title>
<polygon fill="none" stroke="black" points="813,-1514.5 813,-1567.5 887,-1567.5 887,-1514.5 813,-1514.5"/>
<text text-anchor="start" x="821" y="-1552.3" font-family="Times,serif" font-size="14.00">entry:</text>
<text text-anchor="start" x="821" y="-1537.3" font-family="Times,serif" font-size="14.00"> a1</text>
<text text-anchor="start" x="821" y="-1522.3" font-family="Times,serif" font-size="14.00"> lprcSrc</text>
</g>
<!-- Node0x2955dde0 -->
<g id="node2" class="node"><title>Node0x2955dde0</title>
<polygon fill="none" stroke="black" points="685.5,-1378.5 685.5,-1476.5 1014.5,-1476.5 1014.5,-1378.5 685.5,-1378.5"/>
<text text-anchor="start" x="693.5" y="-1461.3" font-family="Times,serif" font-size="14.00">v1 = g3</text>
<text text-anchor="start" x="693.5" y="-1446.3" font-family="Times,serif" font-size="14.00"> g3 = &amp;(v1)</text>
<text text-anchor="start" x="693.5" y="-1431.3" font-family="Times,serif" font-size="14.00"> g4 = a1</text>
<text text-anchor="start" x="693.5" y="-1416.3" font-family="Times,serif" font-size="14.00"> v2 = *(IntToPtrCastExpr&lt;ptr&gt;((a1 &#45; 172)))</text>
<text text-anchor="start" x="693.5" y="-1401.3" font-family="Times,serif" font-size="14.00"> g2 = v2</text>
<text text-anchor="start" x="693.5" y="-1386.3" font-family="Times,serif" font-size="14.00"> v3 = IntToPtrCastExpr&lt;ptr&gt;(g7)</text>
</g>
<!-- Node0x2955b110&#45;&gt;Node0x2955dde0 -->
<g id="edge1" class="edge"><title>Node0x2955b110&#45;&gt;Node0x2955dde0</title>
<path fill="none" stroke="black" d="M850,-1514.42C850,-1506.12 850,-1496.54 850,-1486.85"/>
<polygon fill="black" stroke="black" points="853.5,-1486.77 850,-1476.77 846.5,-1486.77 853.5,-1486.77"/>
</g>
<!-- Node0x2955ee20 -->
<g id="node3" class="node"><title>Node0x2955ee20</title>
<polygon fill="none" stroke="black" points="800.5,-1304.5 800.5,-1340.5 899.5,-1340.5 899.5,-1304.5 800.5,-1304.5"/>
<text text-anchor="start" x="808.5" y="-1318.8" font-family="Times,serif" font-size="14.00">if (v2 != 0):</text>
</g>
<!-- Node0x2955dde0&#45;&gt;Node0x2955ee20 -->
<g id="edge2" class="edge"><title>Node0x2955dde0&#45;&gt;Node0x2955ee20</title>
<path fill="none" stroke="black" d="M850,-1378.32C850,-1368.89 850,-1359.32 850,-1350.87"/>
<polygon fill="black" stroke="black" points="853.5,-1350.86 850,-1340.86 846.5,-1350.86 853.5,-1350.86"/>
</g>
<!-- Node0x2955b0b0 -->
<g id="node4" class="node"><title>Node0x2955b0b0</title>
<polygon fill="none" stroke="black" points="565.5,-1214.5 565.5,-1252.5 888.5,-1252.5 888.5,-1214.5 565.5,-1214.5"/>
<text text-anchor="start" x="573.5" y="-1237.3" font-family="Times,serif" font-size="14.00">v4 = *(IntToPtrCastExpr&lt;ptr&gt;((v2 + 32)))</text>
<text text-anchor="start" x="573.5" y="-1222.3" font-family="Times,serif" font-size="14.00"> g2 = v4</text>
</g>
<!-- Node0x2955ee20&#45;&gt;Node0x2955b0b0 -->
<g id="edge3" class="edge"><title>Node0x2955ee20&#45;&gt;Node0x2955b0b0</title>
<path fill="none" stroke="black" d="M825.699,-1304.31C807.116,-1291.17 781.274,-1272.89 760.695,-1258.33"/>
<polygon fill="black" stroke="black" points="762.706,-1255.47 752.521,-1252.55 758.664,-1261.18 762.706,-1255.47"/>
<text text-anchor="middle" x="827" y="-1274.8" font-family="Times,serif" font-size="14.00">v2 != 0</text>
</g>
<!-- Node0x15e2b890 -->
<g id="node5" class="node"><title>Node0x15e2b890</title>
<polygon fill="none" stroke="black" points="833,-1127.5 833,-1195.5 1001,-1195.5 1001,-1127.5 833,-1127.5"/>
<text text-anchor="start" x="841" y="-1180.3" font-family="Times,serif" font-size="14.00">0x416841:</text>
<text text-anchor="start" x="841" y="-1165.3" font-family="Times,serif" font-size="14.00"> function_40ede0(v3)</text>
<text text-anchor="start" x="841" y="-1150.3" font-family="Times,serif" font-size="14.00"> a1 = g4</text>
<text text-anchor="start" x="841" y="-1135.3" font-family="Times,serif" font-size="14.00"> goto 0x416846_3</text>
</g>
<!-- Node0x2955ee20&#45;&gt;Node0x15e2b890 -->
<g id="edge4" class="edge"><title>Node0x2955ee20&#45;&gt;Node0x15e2b890</title>
<path fill="none" stroke="black" d="M864.973,-1304.38C875.731,-1291.19 889.74,-1272.05 898,-1253 904.382,-1238.28 908.677,-1221.26 911.541,-1205.98"/>
<polygon fill="black" stroke="black" points="915.058,-1206.18 913.304,-1195.73 908.16,-1204.99 915.058,-1206.18"/>
<text text-anchor="middle" x="918" y="-1274.8" font-family="Times,serif" font-size="14.00">v2 == 0</text>
</g>
<!-- Node0x15e2dc40 -->
<g id="node6" class="node"><title>Node0x15e2dc40</title>
<polygon fill="none" stroke="black" points="677.5,-1072.5 677.5,-1108.5 776.5,-1108.5 776.5,-1072.5 677.5,-1072.5"/>
<text text-anchor="start" x="685.5" y="-1086.8" font-family="Times,serif" font-size="14.00">if (v4 != 0):</text>
</g>
<!-- Node0x2955b0b0&#45;&gt;Node0x15e2dc40 -->
<g id="edge5" class="edge"><title>Node0x2955b0b0&#45;&gt;Node0x15e2dc40</title>
<path fill="none" stroke="black" d="M727,-1214.36C727,-1190.19 727,-1147.23 727,-1119.05"/>
<polygon fill="black" stroke="black" points="730.5,-1118.69 727,-1108.69 723.5,-1118.69 730.5,-1118.69"/>
</g>
<!-- Node0xebda3f0 -->
<g id="node7" class="node"><title>Node0xebda3f0</title>
<polygon fill="none" stroke="black" points="670.5,-846.5 670.5,-914.5 999.5,-914.5 999.5,-846.5 670.5,-846.5"/>
<text text-anchor="start" x="678.5" y="-899.3" font-family="Times,serif" font-size="14.00">0x416846_3:</text>
<text text-anchor="start" x="678.5" y="-884.3" font-family="Times,serif" font-size="14.00"> v5 = *(IntToPtrCastExpr&lt;ptr&gt;((a1 &#45; 120)))</text>
<text text-anchor="start" x="678.5" y="-869.3" font-family="Times,serif" font-size="14.00"> g1 = False</text>
<text text-anchor="start" x="678.5" y="-854.3" font-family="Times,serif" font-size="14.00"> g180 = (v5 == 0)</text>
</g>
<!-- Node0x15e2b890&#45;&gt;Node0xebda3f0 -->
<g id="edge6" class="edge"><title>Node0x15e2b890&#45;&gt;Node0xebda3f0</title>
<path fill="none" stroke="black" d="M916.586,-1127.48C915.027,-1085.3 908.77,-1010.73 885,-952 880.99,-942.092 875.34,-932.239 869.273,-923.178"/>
<polygon fill="black" stroke="black" points="871.976,-920.936 863.369,-914.757 866.244,-924.955 871.976,-920.936"/>
</g>
<!-- Node0x15e2dc40&#45;&gt;Node0xebda3f0 -->
<g id="edge7" class="edge"><title>Node0x15e2dc40&#45;&gt;Node0xebda3f0</title>
<path fill="none" stroke="black" d="M762.28,-1072.35C770.938,-1067.18 779.782,-1060.99 787,-1054 799.491,-1041.91 801.569,-1037.15 808,-1021 820.354,-989.975 827.193,-952.753 830.894,-924.564"/>
<polygon fill="black" stroke="black" points="834.371,-924.968 832.12,-914.615 827.423,-924.112 834.371,-924.968"/>
<text text-anchor="middle" x="854" y="-982.8" font-family="Times,serif" font-size="14.00">v4 != 0</text>
</g>
<!-- Node0xc032bc10 -->
<g id="node8" class="node"><title>Node0xc032bc10</title>
<polygon fill="none" stroke="black" points="631,-952.5 631,-1020.5 799,-1020.5 799,-952.5 631,-952.5"/>
<text text-anchor="start" x="639" y="-1005.3" font-family="Times,serif" font-size="14.00">0x416841:</text>
<text text-anchor="start" x="639" y="-990.3" font-family="Times,serif" font-size="14.00"> function_40ede0(v3)</text>
<text text-anchor="start" x="639" y="-975.3" font-family="Times,serif" font-size="14.00"> a1 = g4</text>
<text text-anchor="start" x="639" y="-960.3" font-family="Times,serif" font-size="14.00"> goto 0x416846_3</text>
</g>
<!-- Node0x15e2dc40&#45;&gt;Node0xc032bc10 -->
<g id="edge8" class="edge"><title>Node0x15e2dc40&#45;&gt;Node0xc032bc10</title>
<path fill="none" stroke="black" d="M724.964,-1072.2C723.617,-1060.74 721.787,-1045.19 720.063,-1030.53"/>
<polygon fill="black" stroke="black" points="723.537,-1030.11 718.893,-1020.59 716.585,-1030.93 723.537,-1030.11"/>
<text text-anchor="middle" x="753" y="-1042.8" font-family="Times,serif" font-size="14.00">v4 == 0</text>
</g>
<!-- Node0x1104f180 -->
<g id="node9" class="node"><title>Node0x1104f180</title>
<polygon fill="none" stroke="black" points="722.5,-772.5 722.5,-808.5 827.5,-808.5 827.5,-772.5 722.5,-772.5"/>
<text text-anchor="start" x="730.5" y="-786.8" font-family="Times,serif" font-size="14.00">if (v5 == 0):</text>
</g>
<!-- Node0xebda3f0&#45;&gt;Node0x1104f180 -->
<g id="edge9" class="edge"><title>Node0xebda3f0&#45;&gt;Node0x1104f180</title>
<path fill="none" stroke="black" d="M812.488,-846.482C805.835,-836.725 798.658,-826.198 792.381,-816.993"/>
<polygon fill="black" stroke="black" points="795.212,-814.931 786.687,-808.64 789.428,-818.874 795.212,-814.931"/>
</g>
<!-- Node0xc032bc10&#45;&gt;Node0xebda3f0 -->
<g id="edge10" class="edge"><title>Node0xc032bc10&#45;&gt;Node0xebda3f0</title>
<path fill="none" stroke="black" d="M753.299,-952.308C764.665,-942.457 777.231,-931.566 789.031,-921.34"/>
<polygon fill="black" stroke="black" points="791.389,-923.928 796.654,-914.734 786.804,-918.638 791.389,-923.928"/>
</g>
<!-- Node0x1fe3a630 -->
<g id="node10" class="node"><title>Node0x1fe3a630</title>
<polygon fill="none" stroke="black" points="772,-375 772,-443 940,-443 940,-375 772,-375"/>
<text text-anchor="start" x="780" y="-427.8" font-family="Times,serif" font-size="14.00">0x416841:</text>
<text text-anchor="start" x="780" y="-412.8" font-family="Times,serif" font-size="14.00"> function_40ede0(v3)</text>
<text text-anchor="start" x="780" y="-397.8" font-family="Times,serif" font-size="14.00"> a1 = g4</text>
<text text-anchor="start" x="780" y="-382.8" font-family="Times,serif" font-size="14.00"> goto 0x416846_3</text>
</g>
<!-- Node0x1104f180&#45;&gt;Node0x1fe3a630 -->
<g id="edge11" class="edge"><title>Node0x1104f180&#45;&gt;Node0x1fe3a630</title>
<path fill="none" stroke="black" d="M777.042,-772.147C778.282,-762.378 780.009,-749.973 782,-739 800.712,-635.869 829.444,-516.077 845.03,-453.368"/>
<polygon fill="black" stroke="black" points="848.482,-453.988 847.506,-443.438 841.69,-452.294 848.482,-453.988"/>
<text text-anchor="middle" x="812" y="-742.8" font-family="Times,serif" font-size="14.00">v5 == 0</text>
</g>
<!-- Node0xc032ff00 -->
<g id="node11" class="node"><title>Node0xc032ff00</title>
<polygon fill="none" stroke="black" points="0,-97.5 0,-720.5 754,-720.5 754,-97.5 0,-97.5"/>
<text text-anchor="start" x="8" y="-705.3" font-family="Times,serif" font-size="14.00">0x41684c:</text>
<text text-anchor="start" x="8" y="-690.3" font-family="Times,serif" font-size="14.00"> lpRect</text>
<text text-anchor="start" x="8" y="-675.3" font-family="Times,serif" font-size="14.00"> v6 = &amp;(lpRect)</text>
<text text-anchor="start" x="8" y="-660.3" font-family="Times,serif" font-size="14.00"> GetClientRect(*(IntToPtrCastExpr&lt;ptr&gt;((g2 + 32))), BitCastExpr&lt;ptr&gt;(&amp;(lpRect)))</text>
<text text-anchor="start" x="8" y="-645.3" font-family="Times,serif" font-size="14.00"> lprcDst</text>
<text text-anchor="start" x="8" y="-630.3" font-family="Times,serif" font-size="14.00"> v7 = &amp;(lprcDst)</text>
<text text-anchor="start" x="8" y="-615.3" font-family="Times,serif" font-size="14.00"> g2 = v7</text>
<text text-anchor="start" x="8" y="-600.3" font-family="Times,serif" font-size="14.00"> CopyRect(BitCastExpr&lt;ptr&gt;(&amp;(lprcDst)), lprcSrc)</text>
<text text-anchor="start" x="8" y="-585.3" font-family="Times,serif" font-size="14.00"> v8 = g4</text>
<text text-anchor="start" x="8" y="-570.3" font-family="Times,serif" font-size="14.00"> result = (v8 &#45; 156)</text>
<text text-anchor="start" x="8" y="-555.3" font-family="Times,serif" font-size="14.00"> g4 = *(IntToPtrCastExpr&lt;ptr&gt;((v8 &#45; 120)))</text>
<text text-anchor="start" x="8" y="-540.3" font-family="Times,serif" font-size="14.00"> *(IntToPtrCastExpr&lt;ptr&gt;(result)) = lprcDst</text>
<text text-anchor="start" x="8" y="-525.3" font-family="Times,serif" font-size="14.00"> v9 = (&#45;4 if g6 else 4)</text>
<text text-anchor="start" x="8" y="-510.3" font-family="Times,serif" font-size="14.00"> v10 = (v9 + v7)</text>
<text text-anchor="start" x="8" y="-495.3" font-family="Times,serif" font-size="14.00"> v11 = (v9 + result)</text>
<text text-anchor="start" x="8" y="-480.3" font-family="Times,serif" font-size="14.00"> g9 = v10</text>
<text text-anchor="start" x="8" y="-465.3" font-family="Times,serif" font-size="14.00"> g7 = v11</text>
<text text-anchor="start" x="8" y="-450.3" font-family="Times,serif" font-size="14.00"> *(IntToPtrCastExpr&lt;ptr&gt;(v11)) = *(IntToPtrCastExpr&lt;ptr&gt;(v10))</text>
<text text-anchor="start" x="8" y="-435.3" font-family="Times,serif" font-size="14.00"> v12 = (v10 + v9)</text>
<text text-anchor="start" x="8" y="-420.3" font-family="Times,serif" font-size="14.00"> v13 = (v11 + v9)</text>
<text text-anchor="start" x="8" y="-405.3" font-family="Times,serif" font-size="14.00"> g9 = v12</text>
<text text-anchor="start" x="8" y="-390.3" font-family="Times,serif" font-size="14.00"> g7 = v13</text>
<text text-anchor="start" x="8" y="-375.3" font-family="Times,serif" font-size="14.00"> *(IntToPtrCastExpr&lt;ptr&gt;(v13)) = *(IntToPtrCastExpr&lt;ptr&gt;(v12))</text>
<text text-anchor="start" x="8" y="-360.3" font-family="Times,serif" font-size="14.00"> v14 = (v12 + v9)</text>
<text text-anchor="start" x="8" y="-345.3" font-family="Times,serif" font-size="14.00"> v15 = (v13 + v9)</text>
<text text-anchor="start" x="8" y="-330.3" font-family="Times,serif" font-size="14.00"> g9 = v14</text>
<text text-anchor="start" x="8" y="-315.3" font-family="Times,serif" font-size="14.00"> g7 = v15</text>
<text text-anchor="start" x="8" y="-300.3" font-family="Times,serif" font-size="14.00"> g8 = v6</text>
<text text-anchor="start" x="8" y="-285.3" font-family="Times,serif" font-size="14.00"> v16 = IntToPtrCastExpr&lt;ptr&gt;(result)</text>
<text text-anchor="start" x="8" y="-270.3" font-family="Times,serif" font-size="14.00"> *(IntToPtrCastExpr&lt;ptr&gt;(v15)) = *(IntToPtrCastExpr&lt;ptr&gt;(v14))</text>
<text text-anchor="start" x="8" y="-255.3" font-family="Times,serif" font-size="14.00"> g9 = (v14 + v9)</text>
<text text-anchor="start" x="8" y="-240.3" font-family="Times,serif" font-size="14.00"> g7 = (v15 + v9)</text>
<text text-anchor="start" x="8" y="-225.3" font-family="Times,serif" font-size="14.00"> v17 = g4</text>
<text text-anchor="start" x="8" y="-210.3" font-family="Times,serif" font-size="14.00"> v18 = *(IntToPtrCastExpr&lt;ptr&gt;(v17))</text>
<text text-anchor="start" x="8" y="-195.3" font-family="Times,serif" font-size="14.00"> g5 = v18</text>
<text text-anchor="start" x="8" y="-180.3" font-family="Times,serif" font-size="14.00"> IntToPtrCastExpr&lt;ptr&gt;(*(IntToPtrCastExpr&lt;ptr&gt;((v18 + 28))))(v17, PtrToIntCastExpr&lt;int32&gt;(v16))</text>
<text text-anchor="start" x="8" y="-165.3" font-family="Times,serif" font-size="14.00"> g7 = v17</text>
<text text-anchor="start" x="8" y="-150.3" font-family="Times,serif" font-size="14.00"> g9 = PtrToIntCastExpr&lt;int32&gt;(v16)</text>
<text text-anchor="start" x="8" y="-135.3" font-family="Times,serif" font-size="14.00"> g4 = v6</text>
<text text-anchor="start" x="8" y="-120.3" font-family="Times,serif" font-size="14.00"> g3 = v1</text>
<text text-anchor="start" x="8" y="-105.3" font-family="Times,serif" font-size="14.00"> return result</text>
</g>
<!-- Node0x1104f180&#45;&gt;Node0xc032ff00 -->
<g id="edge12" class="edge"><title>Node0x1104f180&#45;&gt;Node0xc032ff00</title>
<path fill="none" stroke="black" d="M747.313,-772.416C738.937,-766.865 729.877,-760.462 722,-754 711.476,-745.366 700.912,-736.458 690.354,-727.345"/>
<polygon fill="black" stroke="black" points="692.514,-724.585 682.668,-720.673 687.925,-729.872 692.514,-724.585"/>
<text text-anchor="middle" x="749" y="-742.8" font-family="Times,serif" font-size="14.00">v5 != 0</text>
</g>
<!-- Node0x1fe3a630&#45;&gt;Node0xebda3f0 -->
<g id="edge13" class="edge"><title>Node0x1fe3a630&#45;&gt;Node0xebda3f0</title>
<path fill="none" stroke="black" d="M854.814,-443.215C852.586,-504.604 847.5,-639.969 842,-754 840.681,-781.341 838.974,-812.02 837.576,-836.201"/>
<polygon fill="black" stroke="black" points="834.065,-836.291 836.978,-846.478 841.053,-836.698 834.065,-836.291"/>
</g>
<!-- Node0x29559ac0 -->
<g id="node12" class="node"><title>Node0x29559ac0</title>
<polygon fill="none" stroke="black" points="350,-23.5 350,-59.5 404,-59.5 404,-23.5 350,-23.5"/>
<text text-anchor="start" x="358" y="-37.8" font-family="Times,serif" font-size="14.00">exit:</text>
</g>
<!-- Node0xc032ff00&#45;&gt;Node0x29559ac0 -->
<g id="edge14" class="edge"><title>Node0xc032ff00&#45;&gt;Node0x29559ac0</title>
<path fill="none" stroke="black" d="M377,-97.219C377,-86.9012 377,-77.6775 377,-69.8752"/>
<polygon fill="black" stroke="black" points="380.5,-69.8255 377,-59.8255 373.5,-69.8256 380.5,-69.8255"/>
</g>
</g>
</svg>
