<?xml version="1.0" encoding="UTF-8" standalone="no"?>
<!DOCTYPE svg PUBLIC "-//W3C//DTD SVG 1.1//EN"
 "http://www.w3.org/Graphics/SVG/1.1/DTD/svg11.dtd">
<!-- Generated by graphviz version 2.38.0 (20140413.2041)
 -->
<!-- Title: Control&#45;flow graph for function &#39;function_40bec5(a1, *a2, *a3, *a4, *a5, a6)&#39;. Pages: 1 -->
<svg width="2096pt" height="1513pt"
 viewBox="0.00 0.00 2096.00 1513.00" xmlns="http://www.w3.org/2000/svg" xmlns:xlink="http://www.w3.org/1999/xlink">
<g id="graph0" class="graph" transform="scale(1 1) rotate(0) translate(4 1509)">
<title>Control&#45;flow graph for function &#39;function_40bec5(a1, *a2, *a3, *a4, *a5, a6)&#39;.</title>
<polygon fill="white" stroke="none" points="-4,4 -4,-1509 2092,-1509 2092,4 -4,4"/>
<text text-anchor="middle" x="1044" y="-7.8" font-family="Times,serif" font-size="14.00">Control&#45;flow graph for function &#39;function_40bec5(a1, *a2, *a3, *a4, *a5, a6)&#39;.</text>
<!-- Node0xa53e10b0 -->
<g id="node1" class="node"><title>Node0xa53e10b0</title>
<polygon fill="none" stroke="black" points="373,-1391.5 373,-1504.5 432,-1504.5 432,-1391.5 373,-1391.5"/>
<text text-anchor="start" x="381" y="-1489.3" font-family="Times,serif" font-size="14.00">entry:</text>
<text text-anchor="start" x="381" y="-1474.3" font-family="Times,serif" font-size="14.00"> a1</text>
<text text-anchor="start" x="381" y="-1459.3" font-family="Times,serif" font-size="14.00"> a2</text>
<text text-anchor="start" x="381" y="-1444.3" font-family="Times,serif" font-size="14.00"> a3</text>
<text text-anchor="start" x="381" y="-1429.3" font-family="Times,serif" font-size="14.00"> a4</text>
<text text-anchor="start" x="381" y="-1414.3" font-family="Times,serif" font-size="14.00"> a5</text>
<text text-anchor="start" x="381" y="-1399.3" font-family="Times,serif" font-size="14.00"> a6</text>
</g>
<!-- Node0xa53e20a0 -->
<g id="node2" class="node"><title>Node0xa53e20a0</title>
<polygon fill="none" stroke="black" points="252,-1210.5 252,-1353.5 553,-1353.5 553,-1210.5 252,-1210.5"/>
<text text-anchor="start" x="260" y="-1338.3" font-family="Times,serif" font-size="14.00">v1 = a6</text>
<text text-anchor="start" x="260" y="-1323.3" font-family="Times,serif" font-size="14.00"> v2 = g3</text>
<text text-anchor="start" x="260" y="-1308.3" font-family="Times,serif" font-size="14.00"> g3 = &amp;(v2)</text>
<text text-anchor="start" x="260" y="-1293.3" font-family="Times,serif" font-size="14.00"> g2 = a1</text>
<text text-anchor="start" x="260" y="-1278.3" font-family="Times,serif" font-size="14.00"> v3 = IntToPtrCastExpr&lt;ptr&gt;((a1 + 8))</text>
<text text-anchor="start" x="260" y="-1263.3" font-family="Times,serif" font-size="14.00"> v4 = g7</text>
<text text-anchor="start" x="260" y="-1248.3" font-family="Times,serif" font-size="14.00"> v5</text>
<text text-anchor="start" x="260" y="-1233.3" font-family="Times,serif" font-size="14.00"> v6</text>
<text text-anchor="start" x="260" y="-1218.3" font-family="Times,serif" font-size="14.00"> v7</text>
</g>
<!-- Node0xa53e10b0&#45;&gt;Node0xa53e20a0 -->
<g id="edge1" class="edge"><title>Node0xa53e10b0&#45;&gt;Node0xa53e20a0</title>
<path fill="none" stroke="black" d="M402.5,-1391.48C402.5,-1382.54 402.5,-1373.13 402.5,-1363.74"/>
<polygon fill="black" stroke="black" points="406,-1363.58 402.5,-1353.58 399,-1363.58 406,-1363.58"/>
</g>
<!-- Node0xa53e1940 -->
<g id="node3" class="node"><title>Node0xa53e1940</title>
<polygon fill="none" stroke="black" points="341,-1136.5 341,-1172.5 464,-1172.5 464,-1136.5 341,-1136.5"/>
<text text-anchor="start" x="349" y="-1150.8" font-family="Times,serif" font-size="14.00">if (*(v3) == 0):</text>
</g>
<!-- Node0xa53e20a0&#45;&gt;Node0xa53e1940 -->
<g id="edge2" class="edge"><title>Node0xa53e20a0&#45;&gt;Node0xa53e1940</title>
<path fill="none" stroke="black" d="M402.5,-1210.18C402.5,-1200.44 402.5,-1190.96 402.5,-1182.71"/>
<polygon fill="black" stroke="black" points="406,-1182.64 402.5,-1172.64 399,-1182.64 406,-1182.64"/>
</g>
<!-- Node0x3ba600b0 -->
<g id="node4" class="node"><title>Node0x3ba600b0</title>
<polygon fill="none" stroke="black" points="0,-944.5 0,-1027.5 549,-1027.5 549,-944.5 0,-944.5"/>
<text text-anchor="start" x="8" y="-1012.3" font-family="Times,serif" font-size="14.00">0x40bf17:</text>
<text text-anchor="start" x="8" y="-997.3" font-family="Times,serif" font-size="14.00"> g7 = PtrToIntCastExpr&lt;int32&gt;(v7)</text>
<text text-anchor="start" x="8" y="-982.3" font-family="Times,serif" font-size="14.00"> g9 = PtrToIntCastExpr&lt;int32&gt;(v6)</text>
<text text-anchor="start" x="8" y="-967.3" font-family="Times,serif" font-size="14.00"> g3 = PtrToIntCastExpr&lt;int32&gt;(v5)</text>
<text text-anchor="start" x="8" y="-952.3" font-family="Times,serif" font-size="14.00"> return PtrToIntCastExpr&lt;int32&gt;(IntToPtrCastExpr&lt;ptr&gt;(&#45;2147417848))</text>
</g>
<!-- Node0xa53e1940&#45;&gt;Node0x3ba600b0 -->
<g id="edge3" class="edge"><title>Node0xa53e1940&#45;&gt;Node0x3ba600b0</title>
<path fill="none" stroke="black" d="M389.284,-1136.31C371.189,-1112.77 337.978,-1069.57 311.918,-1035.67"/>
<polygon fill="black" stroke="black" points="314.669,-1033.51 305.8,-1027.71 309.12,-1037.78 314.669,-1033.51"/>
<text text-anchor="middle" x="414.5" y="-1106.8" font-family="Times,serif" font-size="14.00">*(v3) == 0</text>
</g>
<!-- Node0xa53e25f0 -->
<g id="node5" class="node"><title>Node0xa53e25f0</title>
<polygon fill="none" stroke="black" points="361.5,-1046.5 361.5,-1084.5 783.5,-1084.5 783.5,-1046.5 361.5,-1046.5"/>
<text text-anchor="start" x="369.5" y="-1069.3" font-family="Times,serif" font-size="14.00">0x40bedb:</text>
<text text-anchor="start" x="369.5" y="-1054.3" font-family="Times,serif" font-size="14.00"> if ((a2 == NULL) or ((a3 == NULL) or (a4 == NULL))):</text>
</g>
<!-- Node0xa53e1940&#45;&gt;Node0xa53e25f0 -->
<g id="edge4" class="edge"><title>Node0xa53e1940&#45;&gt;Node0xa53e25f0</title>
<path fill="none" stroke="black" d="M436.087,-1136.31C462.455,-1122.82 499.399,-1103.91 528.19,-1089.18"/>
<polygon fill="black" stroke="black" points="529.92,-1092.22 537.228,-1084.55 526.731,-1085.99 529.92,-1092.22"/>
<text text-anchor="middle" x="534.5" y="-1106.8" font-family="Times,serif" font-size="14.00">*(v3) != 0</text>
</g>
<!-- Node0xa53e1e30 -->
<g id="node6" class="node"><title>Node0xa53e1e30</title>
<polygon fill="none" stroke="black" points="285.5,-23.5 285.5,-59.5 339.5,-59.5 339.5,-23.5 285.5,-23.5"/>
<text text-anchor="start" x="293.5" y="-37.8" font-family="Times,serif" font-size="14.00">exit:</text>
</g>
<!-- Node0x3ba600b0&#45;&gt;Node0xa53e1e30 -->
<g id="edge5" class="edge"><title>Node0x3ba600b0&#45;&gt;Node0xa53e1e30</title>
<path fill="none" stroke="black" d="M274.5,-944.338C274.5,-912.642 274.5,-867.523 274.5,-828 274.5,-828 274.5,-828 274.5,-138 274.5,-113.118 285.774,-87.008 296.041,-68.3902"/>
<polygon fill="black" stroke="black" points="299.126,-70.0469 301.099,-59.6374 293.065,-66.5445 299.126,-70.0469"/>
</g>
<!-- Node0xa53e2560 -->
<g id="node7" class="node"><title>Node0xa53e2560</title>
<polygon fill="none" stroke="black" points="294,-785.5 294,-868.5 843,-868.5 843,-785.5 294,-785.5"/>
<text text-anchor="start" x="302" y="-853.3" font-family="Times,serif" font-size="14.00">0x40bf17:</text>
<text text-anchor="start" x="302" y="-838.3" font-family="Times,serif" font-size="14.00"> g7 = PtrToIntCastExpr&lt;int32&gt;(v7)</text>
<text text-anchor="start" x="302" y="-823.3" font-family="Times,serif" font-size="14.00"> g9 = PtrToIntCastExpr&lt;int32&gt;(v6)</text>
<text text-anchor="start" x="302" y="-808.3" font-family="Times,serif" font-size="14.00"> g3 = PtrToIntCastExpr&lt;int32&gt;(v5)</text>
<text text-anchor="start" x="302" y="-793.3" font-family="Times,serif" font-size="14.00"> return PtrToIntCastExpr&lt;int32&gt;(IntToPtrCastExpr&lt;ptr&gt;(&#45;2147467261))</text>
</g>
<!-- Node0xa53e25f0&#45;&gt;Node0xa53e2560 -->
<g id="edge6" class="edge"><title>Node0xa53e25f0&#45;&gt;Node0xa53e2560</title>
<path fill="none" stroke="black" d="M572.193,-1046.33C571.594,-1010.95 570.253,-931.625 569.362,-878.973"/>
<polygon fill="black" stroke="black" points="572.859,-878.758 569.19,-868.819 565.86,-878.877 572.859,-878.758"/>
<text text-anchor="middle" x="758.5" y="-982.3" font-family="Times,serif" font-size="14.00">(a2 == NULL) or ((a3 == NULL) or (a4 == NULL))</text>
</g>
<!-- Node0xa53e2c90 -->
<g id="node8" class="node"><title>Node0xa53e2c90</title>
<polygon fill="none" stroke="black" points="950.5,-887.5 950.5,-925.5 1038.5,-925.5 1038.5,-887.5 950.5,-887.5"/>
<text text-anchor="start" x="958.5" y="-910.3" font-family="Times,serif" font-size="14.00">0x40bef1:</text>
<text text-anchor="start" x="958.5" y="-895.3" font-family="Times,serif" font-size="14.00"> v8</text>
</g>
<!-- Node0xa53e25f0&#45;&gt;Node0xa53e2c90 -->
<g id="edge7" class="edge"><title>Node0xa53e25f0&#45;&gt;Node0xa53e2c90</title>
<path fill="none" stroke="black" d="M783.542,-1053.28C861.252,-1047.38 934.011,-1039.05 948.5,-1028 977.237,-1006.09 988.023,-963.915 992.07,-935.735"/>
<polygon fill="black" stroke="black" points="995.559,-936.045 993.315,-925.691 988.612,-935.184 995.559,-936.045"/>
<text text-anchor="middle" x="1177.5" y="-982.3" font-family="Times,serif" font-size="14.00">(a2 != NULL) and ((a3 != NULL) and (a4 != NULL))</text>
</g>
<!-- Node0xa53e2560&#45;&gt;Node0xa53e1e30 -->
<g id="edge8" class="edge"><title>Node0xa53e2560&#45;&gt;Node0xa53e1e30</title>
<path fill="none" stroke="black" d="M367.418,-785.372C335.36,-767.296 312.5,-741.192 312.5,-703.5 312.5,-703.5 312.5,-703.5 312.5,-138 312.5,-115.025 312.5,-88.94 312.5,-69.8443"/>
<polygon fill="black" stroke="black" points="316,-69.7523 312.5,-59.7523 309,-69.7523 316,-69.7523"/>
</g>
<!-- Node0xa53e2cf0 -->
<g id="node9" class="node"><title>Node0xa53e2cf0</title>
<polygon fill="none" stroke="black" points="971.5,-728.5 971.5,-766.5 1105.5,-766.5 1105.5,-728.5 971.5,-728.5"/>
<text text-anchor="start" x="979.5" y="-751.3" font-family="Times,serif" font-size="14.00">if (a5 != NULL):</text>
<text text-anchor="start" x="979.5" y="-736.3" font-family="Times,serif" font-size="14.00"> else:</text>
</g>
<!-- Node0xa53e2c90&#45;&gt;Node0xa53e2cf0 -->
<g id="edge9" class="edge"><title>Node0xa53e2c90&#45;&gt;Node0xa53e2cf0</title>
<path fill="none" stroke="black" d="M999.547,-887.49C1007.17,-860.308 1021.66,-808.574 1030.66,-776.463"/>
<polygon fill="black" stroke="black" points="1034.05,-777.357 1033.38,-766.783 1027.31,-775.468 1034.05,-777.357"/>
</g>
<!-- Node0xa53e21b0 -->
<g id="node10" class="node"><title>Node0xa53e21b0</title>
<polygon fill="none" stroke="black" points="340,-218.5 340,-676.5 1737,-676.5 1737,-218.5 340,-218.5"/>
<text text-anchor="start" x="348" y="-661.3" font-family="Times,serif" font-size="14.00">v9 = *(v3)</text>
<text text-anchor="start" x="348" y="-646.3" font-family="Times,serif" font-size="14.00"> v8 = IntToPtrCastExpr&lt;ptr&gt;(v9)</text>
<text text-anchor="start" x="348" y="-631.3" font-family="Times,serif" font-size="14.00"> g5 = *(IntToPtrCastExpr&lt;ptr&gt;(v9))</text>
<text text-anchor="start" x="348" y="-616.3" font-family="Times,serif" font-size="14.00"> g1 = (&amp;(v4) &lt; IntToPtrCastExpr&lt;ptr&gt;(16))</text>
<text text-anchor="start" x="348" y="-601.3" font-family="Times,serif" font-size="14.00"> g180 = (&amp;(v4) == IntToPtrCastExpr&lt;ptr&gt;(16))</text>
<text text-anchor="start" x="348" y="-586.3" font-family="Times,serif" font-size="14.00"> v10 = a6</text>
<text text-anchor="start" x="348" y="-571.3" font-family="Times,serif" font-size="14.00"> v11 = (&#45;4 if g6 else 4)</text>
<text text-anchor="start" x="348" y="-556.3" font-family="Times,serif" font-size="14.00"> v12 = (v11 + PtrToIntCastExpr&lt;int32&gt;(&amp;(v1)))</text>
<text text-anchor="start" x="348" y="-541.3" font-family="Times,serif" font-size="14.00"> v13 = (v11 + PtrToIntCastExpr&lt;int32&gt;(&amp;(v10)))</text>
<text text-anchor="start" x="348" y="-526.3" font-family="Times,serif" font-size="14.00"> g9 = v12</text>
<text text-anchor="start" x="348" y="-511.3" font-family="Times,serif" font-size="14.00"> g7 = v13</text>
<text text-anchor="start" x="348" y="-496.3" font-family="Times,serif" font-size="14.00"> v5 = a3</text>
<text text-anchor="start" x="348" y="-481.3" font-family="Times,serif" font-size="14.00"> *(IntToPtrCastExpr&lt;ptr&gt;(v13)) = *(IntToPtrCastExpr&lt;ptr&gt;(v12))</text>
<text text-anchor="start" x="348" y="-466.3" font-family="Times,serif" font-size="14.00"> v14 = (v12 + v11)</text>
<text text-anchor="start" x="348" y="-451.3" font-family="Times,serif" font-size="14.00"> v15 = (v13 + v11)</text>
<text text-anchor="start" x="348" y="-436.3" font-family="Times,serif" font-size="14.00"> g9 = v14</text>
<text text-anchor="start" x="348" y="-421.3" font-family="Times,serif" font-size="14.00"> g7 = v15</text>
<text text-anchor="start" x="348" y="-406.3" font-family="Times,serif" font-size="14.00"> v6 = a2</text>
<text text-anchor="start" x="348" y="-391.3" font-family="Times,serif" font-size="14.00"> *(IntToPtrCastExpr&lt;ptr&gt;(v15)) = *(IntToPtrCastExpr&lt;ptr&gt;(v14))</text>
<text text-anchor="start" x="348" y="-376.3" font-family="Times,serif" font-size="14.00"> v16 = (v14 + v11)</text>
<text text-anchor="start" x="348" y="-361.3" font-family="Times,serif" font-size="14.00"> v17 = (v15 + v11)</text>
<text text-anchor="start" x="348" y="-346.3" font-family="Times,serif" font-size="14.00"> g9 = v16</text>
<text text-anchor="start" x="348" y="-331.3" font-family="Times,serif" font-size="14.00"> g7 = v17</text>
<text text-anchor="start" x="348" y="-316.3" font-family="Times,serif" font-size="14.00"> v7 = v8</text>
<text text-anchor="start" x="348" y="-301.3" font-family="Times,serif" font-size="14.00"> g10 = PtrToIntCastExpr&lt;int32&gt;(&amp;(v7))</text>
<text text-anchor="start" x="348" y="-286.3" font-family="Times,serif" font-size="14.00"> *(IntToPtrCastExpr&lt;ptr&gt;(v17)) = *(IntToPtrCastExpr&lt;ptr&gt;(v16))</text>
<text text-anchor="start" x="348" y="-271.3" font-family="Times,serif" font-size="14.00"> g9 = (v16 + v11)</text>
<text text-anchor="start" x="348" y="-256.3" font-family="Times,serif" font-size="14.00"> g7 = (v17 + v11)</text>
<text text-anchor="start" x="348" y="-241.3" font-family="Times,serif" font-size="14.00"> v18 = *(IntToPtrCastExpr&lt;ptr&gt;((g5 + 88)))</text>
<text text-anchor="start" x="348" y="-226.3" font-family="Times,serif" font-size="14.00"> IntToPtrCastExpr&lt;ptr&gt;(v18)(PtrToIntCastExpr&lt;int32&gt;(v7), PtrToIntCastExpr&lt;int32&gt;(v6), PtrToIntCastExpr&lt;int32&gt;(v5), PtrToIntCastExpr&lt;int32&gt;(a4), PtrToIntCastExpr&lt;int32&gt;(a5), v10)</text>
</g>
<!-- Node0xa53e2cf0&#45;&gt;Node0xa53e21b0 -->
<g id="edge10" class="edge"><title>Node0xa53e2cf0&#45;&gt;Node0xa53e21b0</title>
<path fill="none" stroke="black" d="M1038.5,-728.307C1038.5,-717.849 1038.5,-703.462 1038.5,-686.688"/>
<polygon fill="black" stroke="black" points="1042,-686.548 1038.5,-676.548 1035,-686.548 1042,-686.548"/>
<text text-anchor="middle" x="1082.5" y="-698.8" font-family="Times,serif" font-size="14.00">a5 != NULL</text>
</g>
<!-- Node0xa53ddd20 -->
<g id="node11" class="node"><title>Node0xa53ddd20</title>
<polygon fill="none" stroke="black" points="1755,-429.5 1755,-465.5 2088,-465.5 2088,-429.5 1755,-429.5"/>
<text text-anchor="start" x="1763" y="-443.8" font-family="Times,serif" font-size="14.00">v8 = IntToPtrCastExpr&lt;ptr&gt;(&#45;2147467261)</text>
</g>
<!-- Node0xa53e2cf0&#45;&gt;Node0xa53ddd20 -->
<g id="edge11" class="edge"><title>Node0xa53e2cf0&#45;&gt;Node0xa53ddd20</title>
<path fill="none" stroke="black" d="M1105.74,-746.617C1260.63,-745.829 1637.62,-737.553 1746.5,-677 1830.66,-630.196 1887.28,-524.362 1910.14,-474.902"/>
<polygon fill="black" stroke="black" points="1913.45,-476.074 1914.38,-465.52 1907.07,-473.191 1913.45,-476.074"/>
<text text-anchor="middle" x="1739.5" y="-698.8" font-family="Times,serif" font-size="14.00">a5 == NULL</text>
</g>
<!-- Node0xa53e3270 -->
<g id="node12" class="node"><title>Node0xa53e3270</title>
<polygon fill="none" stroke="black" points="894.5,-97.5 894.5,-180.5 1182.5,-180.5 1182.5,-97.5 894.5,-97.5"/>
<text text-anchor="start" x="902.5" y="-165.3" font-family="Times,serif" font-size="14.00">0x40bf17:</text>
<text text-anchor="start" x="902.5" y="-150.3" font-family="Times,serif" font-size="14.00"> g7 = PtrToIntCastExpr&lt;int32&gt;(v7)</text>
<text text-anchor="start" x="902.5" y="-135.3" font-family="Times,serif" font-size="14.00"> g9 = PtrToIntCastExpr&lt;int32&gt;(v6)</text>
<text text-anchor="start" x="902.5" y="-120.3" font-family="Times,serif" font-size="14.00"> g3 = PtrToIntCastExpr&lt;int32&gt;(v5)</text>
<text text-anchor="start" x="902.5" y="-105.3" font-family="Times,serif" font-size="14.00"> return PtrToIntCastExpr&lt;int32&gt;(v8)</text>
</g>
<!-- Node0xa53e21b0&#45;&gt;Node0xa53e3270 -->
<g id="edge12" class="edge"><title>Node0xa53e21b0&#45;&gt;Node0xa53e3270</title>
<path fill="none" stroke="black" d="M1038.5,-218.136C1038.5,-208.428 1038.5,-199.254 1038.5,-190.839"/>
<polygon fill="black" stroke="black" points="1042,-190.604 1038.5,-180.604 1035,-190.604 1042,-190.604"/>
</g>
<!-- Node0xa53ddd20&#45;&gt;Node0xa53e3270 -->
<g id="edge13" class="edge"><title>Node0xa53ddd20&#45;&gt;Node0xa53e3270</title>
<path fill="none" stroke="black" d="M1914.2,-429.221C1894.55,-385.141 1835.94,-268.439 1746.5,-218 1654.79,-166.283 1371.84,-148.856 1192.63,-142.984"/>
<polygon fill="black" stroke="black" points="1192.69,-139.484 1182.58,-142.663 1192.47,-146.481 1192.69,-139.484"/>
</g>
<!-- Node0xa53e3270&#45;&gt;Node0xa53e1e30 -->
<g id="edge14" class="edge"><title>Node0xa53e3270&#45;&gt;Node0xa53e1e30</title>
<path fill="none" stroke="black" d="M894.198,-119.018C723.233,-96.5289 449.082,-60.4663 349.865,-47.4151"/>
<polygon fill="black" stroke="black" points="350.1,-43.916 339.729,-46.0818 349.188,-50.8562 350.1,-43.916"/>
</g>
</g>
</svg>
