<?xml version="1.0" encoding="UTF-8" standalone="no"?>
<!DOCTYPE svg PUBLIC "-//W3C//DTD SVG 1.1//EN"
 "http://www.w3.org/Graphics/SVG/1.1/DTD/svg11.dtd">
<!-- Generated by graphviz version 2.38.0 (20140413.2041)
 -->
<!-- Title: Control&#45;flow graph for function &#39;function_41deff(*a1, *a2)&#39;. Pages: 1 -->
<svg width="941pt" height="940pt"
 viewBox="0.00 0.00 941.00 940.00" xmlns="http://www.w3.org/2000/svg" xmlns:xlink="http://www.w3.org/1999/xlink">
<g id="graph0" class="graph" transform="scale(1 1) rotate(0) translate(4 936)">
<title>Control&#45;flow graph for function &#39;function_41deff(*a1, *a2)&#39;.</title>
<polygon fill="white" stroke="none" points="-4,4 -4,-936 937,-936 937,4 -4,4"/>
<text text-anchor="middle" x="466.5" y="-7.8" font-family="Times,serif" font-size="14.00">Control&#45;flow graph for function &#39;function_41deff(*a1, *a2)&#39;.</text>
<!-- Node0x9f757dd0 -->
<g id="node1" class="node"><title>Node0x9f757dd0</title>
<polygon fill="none" stroke="black" points="446.5,-878.5 446.5,-931.5 505.5,-931.5 505.5,-878.5 446.5,-878.5"/>
<text text-anchor="start" x="454.5" y="-916.3" font-family="Times,serif" font-size="14.00">entry:</text>
<text text-anchor="start" x="454.5" y="-901.3" font-family="Times,serif" font-size="14.00"> a1</text>
<text text-anchor="start" x="454.5" y="-886.3" font-family="Times,serif" font-size="14.00"> a2</text>
</g>
<!-- Node0x2d5e65e0 -->
<g id="node2" class="node"><title>Node0x2d5e65e0</title>
<polygon fill="none" stroke="black" points="167.5,-412.5 167.5,-840.5 784.5,-840.5 784.5,-412.5 167.5,-412.5"/>
<text text-anchor="start" x="175.5" y="-825.3" font-family="Times,serif" font-size="14.00">g2 = 4422121</text>
<text text-anchor="start" x="175.5" y="-810.3" font-family="Times,serif" font-size="14.00"> __EH_prolog3()</text>
<text text-anchor="start" x="175.5" y="-795.3" font-family="Times,serif" font-size="14.00"> v1 = g5</text>
<text text-anchor="start" x="175.5" y="-780.3" font-family="Times,serif" font-size="14.00"> g9 = v1</text>
<text text-anchor="start" x="175.5" y="-765.3" font-family="Times,serif" font-size="14.00"> *(IntToPtrCastExpr&lt;ptr&gt;((g3 &#45; 16))) = v1</text>
<text text-anchor="start" x="175.5" y="-750.3" font-family="Times,serif" font-size="14.00"> function_40edfa()</text>
<text text-anchor="start" x="175.5" y="-735.3" font-family="Times,serif" font-size="14.00"> v2 = g9</text>
<text text-anchor="start" x="175.5" y="-720.3" font-family="Times,serif" font-size="14.00"> v3 = (v2 + 12)</text>
<text text-anchor="start" x="175.5" y="-705.3" font-family="Times,serif" font-size="14.00"> g4 = v3</text>
<text text-anchor="start" x="175.5" y="-690.3" font-family="Times,serif" font-size="14.00"> g5 = v3</text>
<text text-anchor="start" x="175.5" y="-675.3" font-family="Times,serif" font-size="14.00"> *(IntToPtrCastExpr&lt;ptr&gt;(v2)) = PtrToIntCastExpr&lt;int32&gt;(&amp;(vtable_43bcc0))</text>
<text text-anchor="start" x="175.5" y="-660.3" font-family="Times,serif" font-size="14.00"> v4</text>
<text text-anchor="start" x="175.5" y="-645.3" font-family="Times,serif" font-size="14.00"> function_403810(v4)</text>
<text text-anchor="start" x="175.5" y="-630.3" font-family="Times,serif" font-size="14.00"> *(IntToPtrCastExpr&lt;ptr&gt;((g3 &#45; 4))) = 0</text>
<text text-anchor="start" x="175.5" y="-615.3" font-family="Times,serif" font-size="14.00"> g5 = (g9 + 20)</text>
<text text-anchor="start" x="175.5" y="-600.3" font-family="Times,serif" font-size="14.00"> function_403810(v4)</text>
<text text-anchor="start" x="175.5" y="-585.3" font-family="Times,serif" font-size="14.00"> g5 = (g9 + 24)</text>
<text text-anchor="start" x="175.5" y="-570.3" font-family="Times,serif" font-size="14.00"> function_403810(v4)</text>
<text text-anchor="start" x="175.5" y="-555.3" font-family="Times,serif" font-size="14.00"> v5 = g3</text>
<text text-anchor="start" x="175.5" y="-540.3" font-family="Times,serif" font-size="14.00"> v6 = *(IntToPtrCastExpr&lt;ptr&gt;((v5 + 12)))</text>
<text text-anchor="start" x="175.5" y="-525.3" font-family="Times,serif" font-size="14.00"> g2 = v6</text>
<text text-anchor="start" x="175.5" y="-510.3" font-family="Times,serif" font-size="14.00"> g7 = ((g7 &amp; &#45;65536) | ExtCastExpr&lt;int32&gt;(*(IntToPtrCastExpr&lt;ptr&gt;((v5 + 16)))))</text>
<text text-anchor="start" x="175.5" y="-495.3" font-family="Times,serif" font-size="14.00"> v7 = (v6 + 393216)</text>
<text text-anchor="start" x="175.5" y="-480.3" font-family="Times,serif" font-size="14.00"> g2 = v7</text>
<text text-anchor="start" x="175.5" y="-465.3" font-family="Times,serif" font-size="14.00"> g5 = (v7 if (v6 != 0) else 0)</text>
<text text-anchor="start" x="175.5" y="-450.3" font-family="Times,serif" font-size="14.00"> *(IntToPtrCastExpr&lt;ptr&gt;((v5 &#45; 4))) = 2</text>
<text text-anchor="start" x="175.5" y="-435.3" font-family="Times,serif" font-size="14.00"> *(IntToPtrCastExpr&lt;ptr&gt;((g9 + 16))) = g5</text>
<text text-anchor="start" x="175.5" y="-420.3" font-family="Times,serif" font-size="14.00"> *(IntToPtrCastExpr&lt;ptr&gt;((g9 + 8))) = TruncCastExpr&lt;int16&gt;(g7)</text>
</g>
<!-- Node0x9f757dd0&#45;&gt;Node0x2d5e65e0 -->
<g id="edge1" class="edge"><title>Node0x9f757dd0&#45;&gt;Node0x2d5e65e0</title>
<path fill="none" stroke="black" d="M476,-878.483C476,-870.631 476,-861.279 476,-850.872"/>
<polygon fill="black" stroke="black" points="479.5,-850.587 476,-840.587 472.5,-850.587 479.5,-850.587"/>
</g>
<!-- Node0x2d5e5f10 -->
<g id="node3" class="node"><title>Node0x2d5e5f10</title>
<polygon fill="none" stroke="black" points="305.5,-338.5 305.5,-374.5 646.5,-374.5 646.5,-338.5 305.5,-338.5"/>
<text text-anchor="start" x="313.5" y="-352.8" font-family="Times,serif" font-size="14.00">if (*(IntToPtrCastExpr&lt;ptr&gt;((v5 + 8))) != 0):</text>
</g>
<!-- Node0x2d5e65e0&#45;&gt;Node0x2d5e5f10 -->
<g id="edge2" class="edge"><title>Node0x2d5e65e0&#45;&gt;Node0x2d5e5f10</title>
<path fill="none" stroke="black" d="M476,-412.381C476,-402.127 476,-392.836 476,-384.935"/>
<polygon fill="black" stroke="black" points="479.5,-384.736 476,-374.736 472.5,-384.736 479.5,-384.736"/>
</g>
<!-- Node0x2c7fd9b0 -->
<g id="node4" class="node"><title>Node0x2c7fd9b0</title>
<polygon fill="none" stroke="black" points="0,-233.5 0,-286.5 596,-286.5 596,-233.5 0,-233.5"/>
<text text-anchor="start" x="8" y="-271.3" font-family="Times,serif" font-size="14.00">0x41df5e:</text>
<text text-anchor="start" x="8" y="-256.3" font-family="Times,serif" font-size="14.00"> g5 = g4</text>
<text text-anchor="start" x="8" y="-241.3" font-family="Times,serif" font-size="14.00"> function_4037c0(IntToPtrCastExpr&lt;ptr&gt;(*(IntToPtrCastExpr&lt;ptr&gt;((g3 + 8)))))</text>
</g>
<!-- Node0x2d5e5f10&#45;&gt;Node0x2c7fd9b0 -->
<g id="edge3" class="edge"><title>Node0x2d5e5f10&#45;&gt;Node0x2c7fd9b0</title>
<path fill="none" stroke="black" d="M351.847,-338.387C341.051,-333.59 330.877,-327.561 322,-320 314.705,-313.786 309.599,-305.019 306.035,-296.139"/>
<polygon fill="black" stroke="black" points="309.307,-294.891 302.744,-286.574 302.688,-297.169 309.307,-294.891"/>
<text text-anchor="middle" x="470" y="-308.8" font-family="Times,serif" font-size="14.00">*(IntToPtrCastExpr&lt;ptr&gt;((v5 + 8))) != 0</text>
</g>
<!-- Node0x2c7fdaf0 -->
<g id="node5" class="node"><title>Node0x2c7fdaf0</title>
<polygon fill="none" stroke="black" points="356.5,-97.5 356.5,-195.5 727.5,-195.5 727.5,-97.5 356.5,-97.5"/>
<text text-anchor="start" x="364.5" y="-180.3" font-family="Times,serif" font-size="14.00">result = g9</text>
<text text-anchor="start" x="364.5" y="-165.3" font-family="Times,serif" font-size="14.00"> v8 = (0 if ((g7 &amp; 65535) != 0) else &#45;2147418113)</text>
<text text-anchor="start" x="364.5" y="-150.3" font-family="Times,serif" font-size="14.00"> g7 = v8</text>
<text text-anchor="start" x="364.5" y="-135.3" font-family="Times,serif" font-size="14.00"> *(IntToPtrCastExpr&lt;ptr&gt;((result + 28))) = v8</text>
<text text-anchor="start" x="364.5" y="-120.3" font-family="Times,serif" font-size="14.00"> __EH_epilog3()</text>
<text text-anchor="start" x="364.5" y="-105.3" font-family="Times,serif" font-size="14.00"> return result</text>
</g>
<!-- Node0x2d5e5f10&#45;&gt;Node0x2c7fdaf0 -->
<g id="edge4" class="edge"><title>Node0x2d5e5f10&#45;&gt;Node0x2c7fdaf0</title>
<path fill="none" stroke="black" d="M580.49,-338.421C597.908,-333.504 612.214,-327.411 618,-320 645.149,-285.228 622.632,-239.244 595.227,-203.499"/>
<polygon fill="black" stroke="black" points="597.9,-201.236 588.945,-195.573 592.414,-205.584 597.9,-201.236"/>
<text text-anchor="middle" x="782" y="-256.3" font-family="Times,serif" font-size="14.00">*(IntToPtrCastExpr&lt;ptr&gt;((v5 + 8))) == 0</text>
</g>
<!-- Node0x2c7fd9b0&#45;&gt;Node0x2c7fdaf0 -->
<g id="edge5" class="edge"><title>Node0x2c7fd9b0&#45;&gt;Node0x2c7fdaf0</title>
<path fill="none" stroke="black" d="M353.979,-233.42C375.908,-223.399 401.909,-211.517 427.471,-199.836"/>
<polygon fill="black" stroke="black" points="429.22,-202.885 436.861,-195.545 426.311,-196.518 429.22,-202.885"/>
</g>
<!-- Node0x2c7fe1a0 -->
<g id="node6" class="node"><title>Node0x2c7fe1a0</title>
<polygon fill="none" stroke="black" points="515,-23.5 515,-59.5 569,-59.5 569,-23.5 515,-23.5"/>
<text text-anchor="start" x="523" y="-37.8" font-family="Times,serif" font-size="14.00">exit:</text>
</g>
<!-- Node0x2c7fdaf0&#45;&gt;Node0x2c7fe1a0 -->
<g id="edge6" class="edge"><title>Node0x2c7fdaf0&#45;&gt;Node0x2c7fe1a0</title>
<path fill="none" stroke="black" d="M542,-97.3173C542,-87.893 542,-78.32 542,-69.8676"/>
<polygon fill="black" stroke="black" points="545.5,-69.856 542,-59.8561 538.5,-69.8561 545.5,-69.856"/>
</g>
</g>
</svg>
