<?xml version="1.0" encoding="UTF-8" standalone="no"?>
<!DOCTYPE svg PUBLIC "-//W3C//DTD SVG 1.1//EN"
 "http://www.w3.org/Graphics/SVG/1.1/DTD/svg11.dtd">
<!-- Generated by graphviz version 2.38.0 (20140413.2041)
 -->
<!-- Title: Control&#45;flow graph for function &#39;function_416525(a1, a2)&#39;. Pages: 1 -->
<svg width="1334pt" height="1449pt"
 viewBox="0.00 0.00 1333.50 1449.00" xmlns="http://www.w3.org/2000/svg" xmlns:xlink="http://www.w3.org/1999/xlink">
<g id="graph0" class="graph" transform="scale(1 1) rotate(0) translate(4 1445)">
<title>Control&#45;flow graph for function &#39;function_416525(a1, a2)&#39;.</title>
<polygon fill="white" stroke="none" points="-4,4 -4,-1445 1329.5,-1445 1329.5,4 -4,4"/>
<text text-anchor="middle" x="662.75" y="-7.8" font-family="Times,serif" font-size="14.00">Control&#45;flow graph for function &#39;function_416525(a1, a2)&#39;.</text>
<!-- Node0xc032dff0 -->
<g id="node1" class="node"><title>Node0xc032dff0</title>
<polygon fill="none" stroke="black" points="753,-1387.5 753,-1440.5 812,-1440.5 812,-1387.5 753,-1387.5"/>
<text text-anchor="start" x="761" y="-1425.3" font-family="Times,serif" font-size="14.00">entry:</text>
<text text-anchor="start" x="761" y="-1410.3" font-family="Times,serif" font-size="14.00"> a1</text>
<text text-anchor="start" x="761" y="-1395.3" font-family="Times,serif" font-size="14.00"> a2</text>
</g>
<!-- Node0xc0330480 -->
<g id="node2" class="node"><title>Node0xc0330480</title>
<polygon fill="none" stroke="black" points="744,-1296.5 744,-1349.5 821,-1349.5 821,-1296.5 744,-1296.5"/>
<text text-anchor="start" x="752" y="-1334.3" font-family="Times,serif" font-size="14.00">v1 = g5</text>
<text text-anchor="start" x="752" y="-1319.3" font-family="Times,serif" font-size="14.00"> g9 = v1</text>
<text text-anchor="start" x="752" y="-1304.3" font-family="Times,serif" font-size="14.00"> v2</text>
</g>
<!-- Node0xc032dff0&#45;&gt;Node0xc0330480 -->
<g id="edge1" class="edge"><title>Node0xc032dff0&#45;&gt;Node0xc0330480</title>
<path fill="none" stroke="black" d="M782.5,-1387.26C782.5,-1378.68 782.5,-1368.96 782.5,-1359.76"/>
<polygon fill="black" stroke="black" points="786,-1359.68 782.5,-1349.68 779,-1359.68 786,-1359.68"/>
</g>
<!-- Node0x1fe3b850 -->
<g id="node3" class="node"><title>Node0x1fe3b850</title>
<polygon fill="none" stroke="black" points="585,-1222.5 585,-1258.5 980,-1258.5 980,-1222.5 585,-1222.5"/>
<text text-anchor="start" x="593" y="-1236.8" font-family="Times,serif" font-size="14.00">if (*(IntToPtrCastExpr&lt;ptr&gt;((v1 + 112))) != 16384):</text>
</g>
<!-- Node0xc0330480&#45;&gt;Node0x1fe3b850 -->
<g id="edge2" class="edge"><title>Node0xc0330480&#45;&gt;Node0x1fe3b850</title>
<path fill="none" stroke="black" d="M782.5,-1296.09C782.5,-1287.46 782.5,-1277.82 782.5,-1269.07"/>
<polygon fill="black" stroke="black" points="786,-1268.97 782.5,-1258.97 779,-1268.97 786,-1268.97"/>
</g>
<!-- Node0xe63f2c0 -->
<g id="node4" class="node"><title>Node0xe63f2c0</title>
<polygon fill="none" stroke="black" points="415.5,-1132.5 415.5,-1170.5 785.5,-1170.5 785.5,-1132.5 415.5,-1132.5"/>
<text text-anchor="start" x="423.5" y="-1155.3" font-family="Times,serif" font-size="14.00">0x416530:</text>
<text text-anchor="start" x="423.5" y="-1140.3" font-family="Times,serif" font-size="14.00"> if (*(IntToPtrCastExpr&lt;ptr&gt;((v1 + 116))) == 0):</text>
</g>
<!-- Node0x1fe3b850&#45;&gt;Node0xe63f2c0 -->
<g id="edge3" class="edge"><title>Node0x1fe3b850&#45;&gt;Node0xe63f2c0</title>
<path fill="none" stroke="black" d="M639.624,-1222.45C622.014,-1217.7 607.933,-1211.66 601.5,-1204 596.164,-1197.64 594.566,-1189.13 594.696,-1180.85"/>
<polygon fill="black" stroke="black" points="598.201,-1180.96 595.635,-1170.68 591.231,-1180.32 598.201,-1180.96"/>
<text text-anchor="middle" x="776.5" y="-1192.8" font-family="Times,serif" font-size="14.00">*(IntToPtrCastExpr&lt;ptr&gt;((v1 + 112))) != 16384</text>
</g>
<!-- Node0x9ed40530 -->
<g id="node5" class="node"><title>Node0x9ed40530</title>
<polygon fill="none" stroke="black" points="726,-877.5 726,-1080.5 1063,-1080.5 1063,-877.5 726,-877.5"/>
<text text-anchor="start" x="734" y="-1065.3" font-family="Times,serif" font-size="14.00">0x416547:</text>
<text text-anchor="start" x="734" y="-1050.3" font-family="Times,serif" font-size="14.00"> v2 = IntToPtrCastExpr&lt;ptr&gt;(g7)</text>
<text text-anchor="start" x="734" y="-1035.3" font-family="Times,serif" font-size="14.00"> GetFocus()</text>
<text text-anchor="start" x="734" y="-1020.3" font-family="Times,serif" font-size="14.00"> GetFocus()</text>
<text text-anchor="start" x="734" y="-1005.3" font-family="Times,serif" font-size="14.00"> v3 = function_40b067()</text>
<text text-anchor="start" x="734" y="-990.3" font-family="Times,serif" font-size="14.00"> v4 = g9</text>
<text text-anchor="start" x="734" y="-975.3" font-family="Times,serif" font-size="14.00"> v5 = *(IntToPtrCastExpr&lt;ptr&gt;((v4 + 112)))</text>
<text text-anchor="start" x="734" y="-960.3" font-family="Times,serif" font-size="14.00"> g1 = False</text>
<text text-anchor="start" x="734" y="-945.3" font-family="Times,serif" font-size="14.00"> g180 = ((v5 &amp; 1024) == 0)</text>
<text text-anchor="start" x="734" y="-930.3" font-family="Times,serif" font-size="14.00"> g7 = v3</text>
<text text-anchor="start" x="734" y="-915.3" font-family="Times,serif" font-size="14.00"> v6</text>
<text text-anchor="start" x="734" y="-900.3" font-family="Times,serif" font-size="14.00"> v7</text>
<text text-anchor="start" x="734" y="-885.3" font-family="Times,serif" font-size="14.00"> result2</text>
</g>
<!-- Node0x1fe3b850&#45;&gt;Node0x9ed40530 -->
<g id="edge4" class="edge"><title>Node0x1fe3b850&#45;&gt;Node0x9ed40530</title>
<path fill="none" stroke="black" d="M913.691,-1222.45C931.227,-1217.67 945.312,-1211.62 951.5,-1204 977.548,-1171.91 973.411,-1129.39 959.16,-1090.02"/>
<polygon fill="black" stroke="black" points="962.402,-1088.69 955.548,-1080.62 955.868,-1091.21 962.402,-1088.69"/>
<text text-anchor="middle" x="1147.5" y="-1147.8" font-family="Times,serif" font-size="14.00">*(IntToPtrCastExpr&lt;ptr&gt;((v1 + 112))) == 16384</text>
</g>
<!-- Node0xe63f2c0&#45;&gt;Node0x9ed40530 -->
<g id="edge6" class="edge"><title>Node0xe63f2c0&#45;&gt;Node0x9ed40530</title>
<path fill="none" stroke="black" d="M610.249,-1132.47C616.812,-1121.66 626.299,-1108.26 637.5,-1099 661.268,-1079.36 688.813,-1062.19 716.86,-1047.48"/>
<polygon fill="black" stroke="black" points="718.688,-1050.47 725.979,-1042.79 715.486,-1044.25 718.688,-1050.47"/>
<text text-anchor="middle" x="794.5" y="-1102.8" font-family="Times,serif" font-size="14.00">*(IntToPtrCastExpr&lt;ptr&gt;((v1 + 116))) != 0</text>
</g>
<!-- Node0x295536c0 -->
<g id="node6" class="node"><title>Node0x295536c0</title>
<polygon fill="none" stroke="black" points="0,-775.5 0,-858.5 587,-858.5 587,-775.5 0,-775.5"/>
<text text-anchor="start" x="8" y="-843.3" font-family="Times,serif" font-size="14.00">0x416536:</text>
<text text-anchor="start" x="8" y="-828.3" font-family="Times,serif" font-size="14.00"> v2 = SetFocus(IntToPtrCastExpr&lt;ptr&gt;(*(IntToPtrCastExpr&lt;ptr&gt;((v1 + 36)))))</text>
<text text-anchor="start" x="8" y="-813.3" font-family="Times,serif" font-size="14.00"> result = function_40b067()</text>
<text text-anchor="start" x="8" y="-798.3" font-family="Times,serif" font-size="14.00"> g9 = PtrToIntCastExpr&lt;int32&gt;(v2)</text>
<text text-anchor="start" x="8" y="-783.3" font-family="Times,serif" font-size="14.00"> return result</text>
</g>
<!-- Node0xe63f2c0&#45;&gt;Node0x295536c0 -->
<g id="edge5" class="edge"><title>Node0xe63f2c0&#45;&gt;Node0x295536c0</title>
<path fill="none" stroke="black" d="M415.38,-1137.66C358.604,-1131.85 308.547,-1124 299.5,-1114 239.245,-1047.37 258.469,-933.75 276.732,-868.36"/>
<polygon fill="black" stroke="black" points="280.115,-869.262 279.527,-858.684 273.389,-867.32 280.115,-869.262"/>
<text text-anchor="middle" x="459.5" y="-1102.8" font-family="Times,serif" font-size="14.00">*(IntToPtrCastExpr&lt;ptr&gt;((v1 + 116))) == 0</text>
</g>
<!-- Node0x2478c5a0 -->
<g id="node7" class="node"><title>Node0x2478c5a0</title>
<polygon fill="none" stroke="black" points="831.5,-720.5 831.5,-756.5 957.5,-756.5 957.5,-720.5 831.5,-720.5"/>
<text text-anchor="start" x="839.5" y="-734.8" font-family="Times,serif" font-size="14.00">if (v5 != 1024):</text>
</g>
<!-- Node0x9ed40530&#45;&gt;Node0x2478c5a0 -->
<g id="edge7" class="edge"><title>Node0x9ed40530&#45;&gt;Node0x2478c5a0</title>
<path fill="none" stroke="black" d="M894.5,-877.2C894.5,-836.975 894.5,-793.879 894.5,-766.822"/>
<polygon fill="black" stroke="black" points="898,-766.601 894.5,-756.601 891,-766.601 898,-766.601"/>
</g>
<!-- Node0xc032f6b0 -->
<g id="node8" class="node"><title>Node0xc032f6b0</title>
<polygon fill="none" stroke="black" points="502.5,-23.5 502.5,-59.5 556.5,-59.5 556.5,-23.5 502.5,-23.5"/>
<text text-anchor="start" x="510.5" y="-37.8" font-family="Times,serif" font-size="14.00">exit:</text>
</g>
<!-- Node0x295536c0&#45;&gt;Node0xc032f6b0 -->
<g id="edge8" class="edge"><title>Node0x295536c0&#45;&gt;Node0xc032f6b0</title>
<path fill="none" stroke="black" d="M293.5,-775.283C293.5,-751.932 293.5,-722.069 293.5,-695.5 293.5,-695.5 293.5,-695.5 293.5,-145.5 293.5,-59.7827 425.894,-44.6867 492.357,-42.5089"/>
<polygon fill="black" stroke="black" points="492.517,-46.0061 502.428,-42.2614 492.345,-39.0082 492.517,-46.0061"/>
</g>
<!-- Node0x125758a0 -->
<g id="node9" class="node"><title>Node0x125758a0</title>
<polygon fill="none" stroke="black" points="876,-408.5 876,-506.5 1185,-506.5 1185,-408.5 876,-408.5"/>
<text text-anchor="start" x="884" y="-491.3" font-family="Times,serif" font-size="14.00">0x416575:</text>
<text text-anchor="start" x="884" y="-476.3" font-family="Times,serif" font-size="14.00"> result2 = g7</text>
<text text-anchor="start" x="884" y="-461.3" font-family="Times,serif" font-size="14.00"> g7 = v7</text>
<text text-anchor="start" x="884" y="-446.3" font-family="Times,serif" font-size="14.00"> g10 = PtrToIntCastExpr&lt;int32&gt;(&amp;(v6))</text>
<text text-anchor="start" x="884" y="-431.3" font-family="Times,serif" font-size="14.00"> g9 = PtrToIntCastExpr&lt;int32&gt;(v2)</text>
<text text-anchor="start" x="884" y="-416.3" font-family="Times,serif" font-size="14.00"> return result2</text>
</g>
<!-- Node0x2478c5a0&#45;&gt;Node0x125758a0 -->
<g id="edge9" class="edge"><title>Node0x2478c5a0&#45;&gt;Node0x125758a0</title>
<path fill="none" stroke="black" d="M957.715,-727.675C992.576,-718.677 1033.04,-701.537 1054.5,-669 1084.22,-623.948 1071.98,-561.386 1056.13,-516.187"/>
<polygon fill="black" stroke="black" points="1059.32,-514.719 1052.59,-506.532 1052.74,-517.125 1059.32,-514.719"/>
<text text-anchor="middle" x="1077" y="-690.8" font-family="Times,serif" font-size="14.00">v5 != 1024</text>
</g>
<!-- Node0x841e4470 -->
<g id="node10" class="node"><title>Node0x841e4470</title>
<polygon fill="none" stroke="black" points="322,-525.5 322,-668.5 1045,-668.5 1045,-525.5 322,-525.5"/>
<text text-anchor="start" x="330" y="-653.3" font-family="Times,serif" font-size="14.00">0x41655e:</text>
<text text-anchor="start" x="330" y="-638.3" font-family="Times,serif" font-size="14.00"> v8</text>
<text text-anchor="start" x="330" y="-623.3" font-family="Times,serif" font-size="14.00"> v6 = v8</text>
<text text-anchor="start" x="330" y="-608.3" font-family="Times,serif" font-size="14.00"> v9 = *(IntToPtrCastExpr&lt;ptr&gt;(v4))</text>
<text text-anchor="start" x="330" y="-593.3" font-family="Times,serif" font-size="14.00"> g2 = v9</text>
<text text-anchor="start" x="330" y="-578.3" font-family="Times,serif" font-size="14.00"> v7 = &#45;4</text>
<text text-anchor="start" x="330" y="-563.3" font-family="Times,serif" font-size="14.00"> g10 = &amp;(v7)</text>
<text text-anchor="start" x="330" y="-548.3" font-family="Times,serif" font-size="14.00"> g5 = v4</text>
<text text-anchor="start" x="330" y="-533.3" font-family="Times,serif" font-size="14.00"> IntToPtrCastExpr&lt;ptr&gt;(*(IntToPtrCastExpr&lt;ptr&gt;((v9 + 92))))(&#45;4, PtrToIntCastExpr&lt;int32&gt;(v8))</text>
</g>
<!-- Node0x2478c5a0&#45;&gt;Node0x841e4470 -->
<g id="edge10" class="edge"><title>Node0x2478c5a0&#45;&gt;Node0x841e4470</title>
<path fill="none" stroke="black" d="M868.627,-720.395C850.654,-708.512 825.31,-691.756 799.126,-674.445"/>
<polygon fill="black" stroke="black" points="800.875,-671.405 790.603,-668.81 797.015,-677.245 800.875,-671.405"/>
<text text-anchor="middle" x="882" y="-690.8" font-family="Times,serif" font-size="14.00">v5 == 1024</text>
</g>
<!-- Node0x125758a0&#45;&gt;Node0xc032f6b0 -->
<g id="edge11" class="edge"><title>Node0x125758a0&#45;&gt;Node0xc032f6b0</title>
<path fill="none" stroke="black" d="M976.931,-408.441C958.082,-386.345 941.5,-358.408 941.5,-328.5 941.5,-328.5 941.5,-328.5 941.5,-145.5 941.5,-68.5942 667.899,-48.6309 566.618,-43.8756"/>
<polygon fill="black" stroke="black" points="566.678,-40.3749 556.532,-43.426 566.367,-47.368 566.678,-40.3749"/>
</g>
<!-- Node0x841e8e90 -->
<g id="node11" class="node"><title>Node0x841e8e90</title>
<polygon fill="none" stroke="black" points="630.5,-353.5 630.5,-389.5 736.5,-389.5 736.5,-353.5 630.5,-353.5"/>
<text text-anchor="start" x="638.5" y="-367.8" font-family="Times,serif" font-size="14.00">if (g2 &gt;= 0):</text>
</g>
<!-- Node0x841e4470&#45;&gt;Node0x841e8e90 -->
<g id="edge12" class="edge"><title>Node0x841e4470&#45;&gt;Node0x841e8e90</title>
<path fill="none" stroke="black" d="M683.5,-525.283C683.5,-482.727 683.5,-430.95 683.5,-399.915"/>
<polygon fill="black" stroke="black" points="687,-399.852 683.5,-389.852 680,-399.852 687,-399.852"/>
</g>
<!-- Node0x1225e1c0 -->
<g id="node12" class="node"><title>Node0x1225e1c0</title>
<polygon fill="none" stroke="black" points="515,-233.5 515,-301.5 870,-301.5 870,-233.5 515,-233.5"/>
<text text-anchor="start" x="523" y="-286.3" font-family="Times,serif" font-size="14.00">v10 = g9</text>
<text text-anchor="start" x="523" y="-271.3" font-family="Times,serif" font-size="14.00"> v11 = *(IntToPtrCastExpr&lt;ptr&gt;((v10 + 32)))</text>
<text text-anchor="start" x="523" y="-256.3" font-family="Times,serif" font-size="14.00"> g2 = v11</text>
<text text-anchor="start" x="523" y="-241.3" font-family="Times,serif" font-size="14.00"> *(IntToPtrCastExpr&lt;ptr&gt;((v11 + 112))) = v10</text>
</g>
<!-- Node0x841e8e90&#45;&gt;Node0x1225e1c0 -->
<g id="edge13" class="edge"><title>Node0x841e8e90&#45;&gt;Node0x1225e1c0</title>
<path fill="none" stroke="black" d="M685.027,-353.197C686.028,-341.854 687.384,-326.486 688.666,-311.954"/>
<polygon fill="black" stroke="black" points="692.188,-311.859 689.58,-301.59 685.215,-311.244 692.188,-311.859"/>
<text text-anchor="middle" x="719" y="-323.8" font-family="Times,serif" font-size="14.00">g2 &gt;= 0</text>
</g>
<!-- Node0x841ed7c0 -->
<g id="node13" class="node"><title>Node0x841ed7c0</title>
<polygon fill="none" stroke="black" points="375,-97.5 375,-195.5 684,-195.5 684,-97.5 375,-97.5"/>
<text text-anchor="start" x="383" y="-180.3" font-family="Times,serif" font-size="14.00">0x416575:</text>
<text text-anchor="start" x="383" y="-165.3" font-family="Times,serif" font-size="14.00"> result2 = g7</text>
<text text-anchor="start" x="383" y="-150.3" font-family="Times,serif" font-size="14.00"> g7 = v7</text>
<text text-anchor="start" x="383" y="-135.3" font-family="Times,serif" font-size="14.00"> g10 = PtrToIntCastExpr&lt;int32&gt;(&amp;(v6))</text>
<text text-anchor="start" x="383" y="-120.3" font-family="Times,serif" font-size="14.00"> g9 = PtrToIntCastExpr&lt;int32&gt;(v2)</text>
<text text-anchor="start" x="383" y="-105.3" font-family="Times,serif" font-size="14.00"> return result2</text>
</g>
<!-- Node0x841e8e90&#45;&gt;Node0x841ed7c0 -->
<g id="edge14" class="edge"><title>Node0x841e8e90&#45;&gt;Node0x841ed7c0</title>
<path fill="none" stroke="black" d="M630.389,-361.916C570.072,-350.956 477.303,-330.007 456.5,-302 434.335,-272.159 451.356,-234.516 474.514,-203.857"/>
<polygon fill="black" stroke="black" points="477.409,-205.838 480.846,-195.816 471.91,-201.508 477.409,-205.838"/>
<text text-anchor="middle" x="481" y="-263.8" font-family="Times,serif" font-size="14.00">g2 &lt; 0</text>
</g>
<!-- Node0x1225e1c0&#45;&gt;Node0x841ed7c0 -->
<g id="edge15" class="edge"><title>Node0x1225e1c0&#45;&gt;Node0x841ed7c0</title>
<path fill="none" stroke="black" d="M647.095,-233.352C633.584,-223.487 618.413,-212.412 603.574,-201.578"/>
<polygon fill="black" stroke="black" points="605.517,-198.663 595.376,-195.594 601.389,-204.317 605.517,-198.663"/>
</g>
<!-- Node0x841ed7c0&#45;&gt;Node0xc032f6b0 -->
<g id="edge16" class="edge"><title>Node0x841ed7c0&#45;&gt;Node0xc032f6b0</title>
<path fill="none" stroke="black" d="M529.5,-97.3173C529.5,-87.893 529.5,-78.32 529.5,-69.8676"/>
<polygon fill="black" stroke="black" points="533,-69.856 529.5,-59.8561 526,-69.8561 533,-69.856"/>
</g>
</g>
</svg>
