<?xml version="1.0" encoding="UTF-8" standalone="no"?>
<!DOCTYPE svg PUBLIC "-//W3C//DTD SVG 1.1//EN"
 "http://www.w3.org/Graphics/SVG/1.1/DTD/svg11.dtd">
<!-- Generated by graphviz version 2.38.0 (20140413.2041)
 -->
<!-- Title: Control&#45;flow graph for function &#39;function_41e302(a1)&#39;. Pages: 1 -->
<svg width="866pt" height="685pt"
 viewBox="0.00 0.00 865.50 685.00" xmlns="http://www.w3.org/2000/svg" xmlns:xlink="http://www.w3.org/1999/xlink">
<g id="graph0" class="graph" transform="scale(1 1) rotate(0) translate(4 681)">
<title>Control&#45;flow graph for function &#39;function_41e302(a1)&#39;.</title>
<polygon fill="white" stroke="none" points="-4,4 -4,-681 861.5,-681 861.5,4 -4,4"/>
<text text-anchor="middle" x="428.75" y="-7.8" font-family="Times,serif" font-size="14.00">Control&#45;flow graph for function &#39;function_41e302(a1)&#39;.</text>
<!-- Node0x9f75b3f0 -->
<g id="node1" class="node"><title>Node0x9f75b3f0</title>
<polygon fill="none" stroke="black" points="370,-638.5 370,-676.5 429,-676.5 429,-638.5 370,-638.5"/>
<text text-anchor="start" x="378" y="-661.3" font-family="Times,serif" font-size="14.00">entry:</text>
<text text-anchor="start" x="378" y="-646.3" font-family="Times,serif" font-size="14.00"> a1</text>
</g>
<!-- Node0x9f75c840 -->
<g id="node2" class="node"><title>Node0x9f75c840</title>
<polygon fill="none" stroke="black" points="0,-367.5 0,-600.5 799,-600.5 799,-367.5 0,-367.5"/>
<text text-anchor="start" x="8" y="-585.3" font-family="Times,serif" font-size="14.00">g2 = 4418654</text>
<text text-anchor="start" x="8" y="-570.3" font-family="Times,serif" font-size="14.00"> __EH_prolog3()</text>
<text text-anchor="start" x="8" y="-555.3" font-family="Times,serif" font-size="14.00"> v1 = g3</text>
<text text-anchor="start" x="8" y="-540.3" font-family="Times,serif" font-size="14.00"> v2 = *(IntToPtrCastExpr&lt;ptr&gt;((v1 + 8)))</text>
<text text-anchor="start" x="8" y="-525.3" font-family="Times,serif" font-size="14.00"> g9 = v2</text>
<text text-anchor="start" x="8" y="-510.3" font-family="Times,serif" font-size="14.00"> g9 = (v2 &#45; 56)</text>
<text text-anchor="start" x="8" y="-495.3" font-family="Times,serif" font-size="14.00"> g5 = (v1 &#45; 20)</text>
<text text-anchor="start" x="8" y="-480.3" font-family="Times,serif" font-size="14.00"> function_410276(IntToPtrCastExpr&lt;ptr&gt;(*(IntToPtrCastExpr&lt;ptr&gt;((v2 &#45; 28)))), IntToPtrCastExpr&lt;ptr&gt;(8))</text>
<text text-anchor="start" x="8" y="-465.3" font-family="Times,serif" font-size="14.00"> g2 = *(IntToPtrCastExpr&lt;ptr&gt;(g9))</text>
<text text-anchor="start" x="8" y="-450.3" font-family="Times,serif" font-size="14.00"> g1 = False</text>
<text text-anchor="start" x="8" y="-435.3" font-family="Times,serif" font-size="14.00"> g180 = True</text>
<text text-anchor="start" x="8" y="-420.3" font-family="Times,serif" font-size="14.00"> *(IntToPtrCastExpr&lt;ptr&gt;((g3 &#45; 4))) = 0</text>
<text text-anchor="start" x="8" y="-405.3" font-family="Times,serif" font-size="14.00"> g5 = g9</text>
<text text-anchor="start" x="8" y="-390.3" font-family="Times,serif" font-size="14.00"> IntToPtrCastExpr&lt;ptr&gt;(*(IntToPtrCastExpr&lt;ptr&gt;((g2 + 88))))()</text>
<text text-anchor="start" x="8" y="-375.3" font-family="Times,serif" font-size="14.00"> *(IntToPtrCastExpr&lt;ptr&gt;((g3 &#45; 4))) = &#45;1</text>
</g>
<!-- Node0x9f75b3f0&#45;&gt;Node0x9f75c840 -->
<g id="edge1" class="edge"><title>Node0x9f75b3f0&#45;&gt;Node0x9f75c840</title>
<path fill="none" stroke="black" d="M399.5,-638.471C399.5,-630.833 399.5,-621.227 399.5,-610.566"/>
<polygon fill="black" stroke="black" points="403,-610.504 399.5,-600.504 396,-610.504 403,-610.504"/>
</g>
<!-- Node0x9f75d9a0 -->
<g id="node3" class="node"><title>Node0x9f75d9a0</title>
<polygon fill="none" stroke="black" points="227.5,-293.5 227.5,-329.5 571.5,-329.5 571.5,-293.5 227.5,-293.5"/>
<text text-anchor="start" x="235.5" y="-307.8" font-family="Times,serif" font-size="14.00">if (*(IntToPtrCastExpr&lt;ptr&gt;((g3 &#45; 16))) != 0):</text>
</g>
<!-- Node0x9f75c840&#45;&gt;Node0x9f75d9a0 -->
<g id="edge2" class="edge"><title>Node0x9f75c840&#45;&gt;Node0x9f75d9a0</title>
<path fill="none" stroke="black" d="M399.5,-367.386C399.5,-357.423 399.5,-348.097 399.5,-340.06"/>
<polygon fill="black" stroke="black" points="403,-339.96 399.5,-329.96 396,-339.96 403,-339.96"/>
</g>
<!-- Node0x9f75e480 -->
<g id="node4" class="node"><title>Node0x9f75e480</title>
<polygon fill="none" stroke="black" points="271.5,-188.5 271.5,-241.5 419.5,-241.5 419.5,-188.5 271.5,-188.5"/>
<text text-anchor="start" x="279.5" y="-226.3" font-family="Times,serif" font-size="14.00">v3 = 0</text>
<text text-anchor="start" x="279.5" y="-211.3" font-family="Times,serif" font-size="14.00"> g10 = &amp;(v3)</text>
<text text-anchor="start" x="279.5" y="-196.3" font-family="Times,serif" font-size="14.00"> function_40fa42()</text>
</g>
<!-- Node0x9f75d9a0&#45;&gt;Node0x9f75e480 -->
<g id="edge3" class="edge"><title>Node0x9f75d9a0&#45;&gt;Node0x9f75e480</title>
<path fill="none" stroke="black" d="M282.466,-293.478C264.839,-288.635 250.521,-282.557 244.5,-275 232.373,-259.782 243.476,-247.69 262.117,-238.516"/>
<polygon fill="black" stroke="black" points="263.748,-241.621 271.479,-234.376 260.917,-235.219 263.748,-241.621"/>
<text text-anchor="middle" x="393.5" y="-263.8" font-family="Times,serif" font-size="14.00">*(IntToPtrCastExpr&lt;ptr&gt;((g3 &#45; 16))) != 0</text>
</g>
<!-- Node0x9f75e420 -->
<g id="node5" class="node"><title>Node0x9f75e420</title>
<polygon fill="none" stroke="black" points="432.5,-97.5 432.5,-150.5 562.5,-150.5 562.5,-97.5 432.5,-97.5"/>
<text text-anchor="start" x="440.5" y="-135.3" font-family="Times,serif" font-size="14.00">0x41e33e:</text>
<text text-anchor="start" x="440.5" y="-120.3" font-family="Times,serif" font-size="14.00"> __EH_epilog3()</text>
<text text-anchor="start" x="440.5" y="-105.3" font-family="Times,serif" font-size="14.00"> return 0</text>
</g>
<!-- Node0x9f75d9a0&#45;&gt;Node0x9f75e420 -->
<g id="edge4" class="edge"><title>Node0x9f75d9a0&#45;&gt;Node0x9f75e420</title>
<path fill="none" stroke="black" d="M504.721,-293.488C522.261,-288.567 536.669,-282.455 542.5,-275 569.023,-241.088 545.517,-191.737 523.725,-159.022"/>
<polygon fill="black" stroke="black" points="526.523,-156.914 517.961,-150.674 520.762,-160.891 526.523,-156.914"/>
<text text-anchor="middle" x="705.5" y="-211.3" font-family="Times,serif" font-size="14.00">*(IntToPtrCastExpr&lt;ptr&gt;((g3 &#45; 16))) == 0</text>
</g>
<!-- Node0x9f75e480&#45;&gt;Node0x9f75e420 -->
<g id="edge5" class="edge"><title>Node0x9f75e480&#45;&gt;Node0x9f75e420</title>
<path fill="none" stroke="black" d="M389.057,-188.496C406.547,-178.255 426.86,-166.362 445.145,-155.655"/>
<polygon fill="black" stroke="black" points="447.075,-158.581 453.937,-150.508 443.538,-152.54 447.075,-158.581"/>
</g>
<!-- Node0x9f75c7c0 -->
<g id="node6" class="node"><title>Node0x9f75c7c0</title>
<polygon fill="none" stroke="black" points="470.5,-23.5 470.5,-59.5 524.5,-59.5 524.5,-23.5 470.5,-23.5"/>
<text text-anchor="start" x="478.5" y="-37.8" font-family="Times,serif" font-size="14.00">exit:</text>
</g>
<!-- Node0x9f75e420&#45;&gt;Node0x9f75c7c0 -->
<g id="edge6" class="edge"><title>Node0x9f75e420&#45;&gt;Node0x9f75c7c0</title>
<path fill="none" stroke="black" d="M497.5,-97.0862C497.5,-88.4596 497.5,-78.8224 497.5,-70.0748"/>
<polygon fill="black" stroke="black" points="501,-69.9735 497.5,-59.9735 494,-69.9735 501,-69.9735"/>
</g>
</g>
</svg>
