<?xml version="1.0" encoding="UTF-8" standalone="no"?>
<!DOCTYPE svg PUBLIC "-//W3C//DTD SVG 1.1//EN"
 "http://www.w3.org/Graphics/SVG/1.1/DTD/svg11.dtd">
<!-- Generated by graphviz version 2.38.0 (20140413.2041)
 -->
<!-- Title: Control&#45;flow graph for function &#39;function_41f113()&#39;. Pages: 1 -->
<svg width="837pt" height="1094pt"
 viewBox="0.00 0.00 836.50 1094.00" xmlns="http://www.w3.org/2000/svg" xmlns:xlink="http://www.w3.org/1999/xlink">
<g id="graph0" class="graph" transform="scale(1 1) rotate(0) translate(4 1090)">
<title>Control&#45;flow graph for function &#39;function_41f113()&#39;.</title>
<polygon fill="white" stroke="none" points="-4,4 -4,-1090 832.5,-1090 832.5,4 -4,4"/>
<text text-anchor="middle" x="414.25" y="-7.8" font-family="Times,serif" font-size="14.00">Control&#45;flow graph for function &#39;function_41f113()&#39;.</text>
<!-- Node0x1eeb6250 -->
<g id="node1" class="node"><title>Node0x1eeb6250</title>
<polygon fill="none" stroke="black" points="228.5,-1049.5 228.5,-1085.5 287.5,-1085.5 287.5,-1049.5 228.5,-1049.5"/>
<text text-anchor="start" x="236.5" y="-1063.8" font-family="Times,serif" font-size="14.00">entry:</text>
</g>
<!-- Node0x1eeb5670 -->
<g id="node2" class="node"><title>Node0x1eeb5670</title>
<polygon fill="none" stroke="black" points="0,-778.5 0,-1011.5 516,-1011.5 516,-778.5 0,-778.5"/>
<text text-anchor="start" x="8" y="-996.3" font-family="Times,serif" font-size="14.00">v1 = g3</text>
<text text-anchor="start" x="8" y="-981.3" font-family="Times,serif" font-size="14.00"> g3 = &amp;(v1)</text>
<text text-anchor="start" x="8" y="-966.3" font-family="Times,serif" font-size="14.00"> v2 = g4</text>
<text text-anchor="start" x="8" y="-951.3" font-family="Times,serif" font-size="14.00"> v3 = g9</text>
<text text-anchor="start" x="8" y="-936.3" font-family="Times,serif" font-size="14.00"> v4 = v3</text>
<text text-anchor="start" x="8" y="-921.3" font-family="Times,serif" font-size="14.00"> g9 = 284762</text>
<text text-anchor="start" x="8" y="-906.3" font-family="Times,serif" font-size="14.00"> g4 = 0</text>
<text text-anchor="start" x="8" y="-891.3" font-family="Times,serif" font-size="14.00"> lpMsg</text>
<text text-anchor="start" x="8" y="-876.3" font-family="Times,serif" font-size="14.00"> v5 = &amp;(lpMsg)</text>
<text text-anchor="start" x="8" y="-861.3" font-family="Times,serif" font-size="14.00"> g2 = v5</text>
<text text-anchor="start" x="8" y="-846.3" font-family="Times,serif" font-size="14.00"> v6 = PeekMessageA(BitCastExpr&lt;ptr&gt;(&amp;(lpMsg)), NULL, 15, 15, 3)</text>
<text text-anchor="start" x="8" y="-831.3" font-family="Times,serif" font-size="14.00"> g10 = &amp;(v4)</text>
<text text-anchor="start" x="8" y="-816.3" font-family="Times,serif" font-size="14.00"> g1 = False</text>
<text text-anchor="start" x="8" y="-801.3" font-family="Times,serif" font-size="14.00"> g180 = not (v6)</text>
<text text-anchor="start" x="8" y="-786.3" font-family="Times,serif" font-size="14.00"> result</text>
</g>
<!-- Node0x1eeb6250&#45;&gt;Node0x1eeb5670 -->
<g id="edge1" class="edge"><title>Node0x1eeb6250&#45;&gt;Node0x1eeb5670</title>
<path fill="none" stroke="black" d="M258,-1049.21C258,-1041.69 258,-1032.17 258,-1021.57"/>
<polygon fill="black" stroke="black" points="261.5,-1021.56 258,-1011.56 254.5,-1021.56 261.5,-1021.56"/>
</g>
<!-- Node0x1eeb6430 -->
<g id="node3" class="node"><title>Node0x1eeb6430</title>
<polygon fill="none" stroke="black" points="212.5,-704.5 212.5,-740.5 303.5,-740.5 303.5,-704.5 212.5,-704.5"/>
<text text-anchor="start" x="220.5" y="-718.8" font-family="Times,serif" font-size="14.00">if not (v6):</text>
</g>
<!-- Node0x1eeb5670&#45;&gt;Node0x1eeb6430 -->
<g id="edge2" class="edge"><title>Node0x1eeb5670&#45;&gt;Node0x1eeb6430</title>
<path fill="none" stroke="black" d="M258,-778.386C258,-768.423 258,-759.097 258,-751.06"/>
<polygon fill="black" stroke="black" points="261.5,-750.96 258,-740.96 254.5,-750.96 261.5,-750.96"/>
</g>
<!-- Node0x290ad770 -->
<g id="node4" class="node"><title>Node0x290ad770</title>
<polygon fill="none" stroke="black" points="92.5,-347.5 92.5,-445.5 205.5,-445.5 205.5,-347.5 92.5,-347.5"/>
<text text-anchor="start" x="100.5" y="-430.3" font-family="Times,serif" font-size="14.00">0x41f151:</text>
<text text-anchor="start" x="100.5" y="-415.3" font-family="Times,serif" font-size="14.00"> g9 = v3</text>
<text text-anchor="start" x="100.5" y="-400.3" font-family="Times,serif" font-size="14.00"> result = g4</text>
<text text-anchor="start" x="100.5" y="-385.3" font-family="Times,serif" font-size="14.00"> g4 = v2</text>
<text text-anchor="start" x="100.5" y="-370.3" font-family="Times,serif" font-size="14.00"> g3 = v1</text>
<text text-anchor="start" x="100.5" y="-355.3" font-family="Times,serif" font-size="14.00"> return result</text>
</g>
<!-- Node0x1eeb6430&#45;&gt;Node0x290ad770 -->
<g id="edge3" class="edge"><title>Node0x1eeb6430&#45;&gt;Node0x290ad770</title>
<path fill="none" stroke="black" d="M246.643,-704.374C238.094,-690.875 226.59,-671.334 219,-653 191.896,-587.528 172.062,-508.319 160.564,-455.622"/>
<polygon fill="black" stroke="black" points="163.971,-454.814 158.446,-445.774 157.128,-456.287 163.971,-454.814"/>
<text text-anchor="middle" x="263" y="-674.8" font-family="Times,serif" font-size="14.00">not (v6)</text>
</g>
<!-- Node0x1eeb67b0 -->
<g id="node5" class="node"><title>Node0x1eeb67b0</title>
<polygon fill="none" stroke="black" points="228,-464.5 228,-652.5 750,-652.5 750,-464.5 228,-464.5"/>
<text text-anchor="start" x="236" y="-637.3" font-family="Times,serif" font-size="14.00">v7 = (g4 + 1)</text>
<text text-anchor="start" x="236" y="-622.3" font-family="Times,serif" font-size="14.00"> g180 = (v7 == 0)</text>
<text text-anchor="start" x="236" y="-607.3" font-family="Times,serif" font-size="14.00"> g4 = v7</text>
<text text-anchor="start" x="236" y="-592.3" font-family="Times,serif" font-size="14.00"> g2 = v5</text>
<text text-anchor="start" x="236" y="-577.3" font-family="Times,serif" font-size="14.00"> DispatchMessageA(BitCastExpr&lt;ptr&gt;(&amp;(lpMsg)))</text>
<text text-anchor="start" x="236" y="-562.3" font-family="Times,serif" font-size="14.00"> g2 = v5</text>
<text text-anchor="start" x="236" y="-547.3" font-family="Times,serif" font-size="14.00"> v8</text>
<text text-anchor="start" x="236" y="-532.3" font-family="Times,serif" font-size="14.00"> g10 = PtrToIntCastExpr&lt;int32&gt;(&amp;(v8))</text>
<text text-anchor="start" x="236" y="-517.3" font-family="Times,serif" font-size="14.00"> IntToPtrCastExpr&lt;ptr&gt;(g9)(PtrToIntCastExpr&lt;int32&gt;(v8), 0, 15, 15)</text>
<text text-anchor="start" x="236" y="-502.3" font-family="Times,serif" font-size="14.00"> v9 = g2</text>
<text text-anchor="start" x="236" y="-487.3" font-family="Times,serif" font-size="14.00"> g1 = False</text>
<text text-anchor="start" x="236" y="-472.3" font-family="Times,serif" font-size="14.00"> g180 = (v9 == 0)</text>
</g>
<!-- Node0x1eeb6430&#45;&gt;Node0x1eeb67b0 -->
<g id="edge4" class="edge"><title>Node0x1eeb6430&#45;&gt;Node0x1eeb67b0</title>
<path fill="none" stroke="black" d="M282.284,-704.469C298.956,-692.778 322.589,-676.204 347.952,-658.416"/>
<polygon fill="black" stroke="black" points="350.064,-661.211 356.242,-652.603 346.045,-655.48 350.064,-661.211"/>
<text text-anchor="middle" x="336" y="-674.8" font-family="Times,serif" font-size="14.00">v6</text>
</g>
<!-- Node0x2ef10330 -->
<g id="node6" class="node"><title>Node0x2ef10330</title>
<polygon fill="none" stroke="black" points="282,-23.5 282,-59.5 336,-59.5 336,-23.5 282,-23.5"/>
<text text-anchor="start" x="290" y="-37.8" font-family="Times,serif" font-size="14.00">exit:</text>
</g>
<!-- Node0x290ad770&#45;&gt;Node0x2ef10330 -->
<g id="edge5" class="edge"><title>Node0x290ad770&#45;&gt;Node0x2ef10330</title>
<path fill="none" stroke="black" d="M137.026,-347.322C124.175,-283.52 112.2,-170.513 166,-97 190.529,-63.4832 238.425,-50.5778 272.003,-45.6093"/>
<polygon fill="black" stroke="black" points="272.463,-49.0791 281.923,-44.3081 271.552,-42.1385 272.463,-49.0791"/>
</g>
<!-- Node0x1eeb6810 -->
<g id="node7" class="node"><title>Node0x1eeb6810</title>
<polygon fill="none" stroke="black" points="438,-292.5 438,-328.5 566,-328.5 566,-292.5 438,-292.5"/>
<text text-anchor="start" x="446" y="-306.8" font-family="Times,serif" font-size="14.00">while (v9 != 0):</text>
</g>
<!-- Node0x1eeb67b0&#45;&gt;Node0x1eeb6810 -->
<g id="edge6" class="edge"><title>Node0x1eeb67b0&#45;&gt;Node0x1eeb6810</title>
<path fill="none" stroke="black" d="M493.915,-464.498C496.284,-419.662 498.953,-369.162 500.554,-338.862"/>
<polygon fill="black" stroke="black" points="504.06,-338.832 501.093,-328.661 497.07,-338.462 504.06,-338.832"/>
</g>
<!-- Node0x1eeb7100 -->
<g id="node8" class="node"><title>Node0x1eeb7100</title>
<polygon fill="none" stroke="black" points="175,-97.5 175,-240.5 697,-240.5 697,-97.5 175,-97.5"/>
<text text-anchor="start" x="183" y="-225.3" font-family="Times,serif" font-size="14.00">0x41f135:</text>
<text text-anchor="start" x="183" y="-210.3" font-family="Times,serif" font-size="14.00"> g2 = v5</text>
<text text-anchor="start" x="183" y="-195.3" font-family="Times,serif" font-size="14.00"> DispatchMessageA(BitCastExpr&lt;ptr&gt;(&amp;(lpMsg)))</text>
<text text-anchor="start" x="183" y="-180.3" font-family="Times,serif" font-size="14.00"> g2 = v5</text>
<text text-anchor="start" x="183" y="-165.3" font-family="Times,serif" font-size="14.00"> g10 = PtrToIntCastExpr&lt;int32&gt;(&amp;(v8))</text>
<text text-anchor="start" x="183" y="-150.3" font-family="Times,serif" font-size="14.00"> IntToPtrCastExpr&lt;ptr&gt;(g9)(PtrToIntCastExpr&lt;int32&gt;(v8), 0, 15, 15)</text>
<text text-anchor="start" x="183" y="-135.3" font-family="Times,serif" font-size="14.00"> v9 = g2</text>
<text text-anchor="start" x="183" y="-120.3" font-family="Times,serif" font-size="14.00"> g1 = False</text>
<text text-anchor="start" x="183" y="-105.3" font-family="Times,serif" font-size="14.00"> g180 = (v9 == 0)</text>
</g>
<!-- Node0x1eeb6810&#45;&gt;Node0x1eeb7100 -->
<g id="edge7" class="edge"><title>Node0x1eeb6810&#45;&gt;Node0x1eeb7100</title>
<path fill="none" stroke="black" d="M453.802,-292.379C446.305,-287.59 439.548,-281.557 435,-274 430.73,-266.906 428.022,-259.016 426.454,-250.844"/>
<polygon fill="black" stroke="black" points="429.899,-250.204 425.077,-240.77 422.963,-251.152 429.899,-250.204"/>
<text text-anchor="middle" x="462" y="-262.8" font-family="Times,serif" font-size="14.00">v9 != 0</text>
</g>
<!-- Node0x290ad5c0 -->
<g id="node9" class="node"><title>Node0x290ad5c0</title>
<polygon fill="none" stroke="black" points="715.5,-120 715.5,-218 828.5,-218 828.5,-120 715.5,-120"/>
<text text-anchor="start" x="723.5" y="-202.8" font-family="Times,serif" font-size="14.00">0x41f151:</text>
<text text-anchor="start" x="723.5" y="-187.8" font-family="Times,serif" font-size="14.00"> g9 = v4</text>
<text text-anchor="start" x="723.5" y="-172.8" font-family="Times,serif" font-size="14.00"> result = g4</text>
<text text-anchor="start" x="723.5" y="-157.8" font-family="Times,serif" font-size="14.00"> g4 = v2</text>
<text text-anchor="start" x="723.5" y="-142.8" font-family="Times,serif" font-size="14.00"> g3 = v1</text>
<text text-anchor="start" x="723.5" y="-127.8" font-family="Times,serif" font-size="14.00"> return result</text>
</g>
<!-- Node0x1eeb6810&#45;&gt;Node0x290ad5c0 -->
<g id="edge8" class="edge"><title>Node0x1eeb6810&#45;&gt;Node0x290ad5c0</title>
<path fill="none" stroke="black" d="M566.305,-296.613C608.398,-286.154 663.304,-268.543 706,-241 713.014,-236.476 719.787,-231.039 726.149,-225.215"/>
<polygon fill="black" stroke="black" points="728.633,-227.682 733.42,-218.23 723.784,-222.634 728.633,-227.682"/>
<text text-anchor="middle" x="700" y="-262.8" font-family="Times,serif" font-size="14.00">v9 == 0</text>
</g>
<!-- Node0x1eeb7100&#45;&gt;Node0x1eeb6810 -->
<g id="edge9" class="edge"><title>Node0x1eeb7100&#45;&gt;Node0x1eeb6810</title>
<path fill="none" stroke="black" d="M480.637,-240.973C483.675,-246.967 486.512,-253.023 489,-259 492.062,-266.355 494.555,-274.62 496.509,-282.302"/>
<polygon fill="black" stroke="black" points="493.155,-283.333 498.841,-292.273 499.972,-281.739 493.155,-283.333"/>
</g>
<!-- Node0x290ad5c0&#45;&gt;Node0x2ef10330 -->
<g id="edge10" class="edge"><title>Node0x290ad5c0&#45;&gt;Node0x2ef10330</title>
<path fill="none" stroke="black" d="M735.752,-119.71C726.953,-110.871 716.902,-102.664 706,-97 643.625,-64.5941 432.365,-49.39 346.126,-44.4224"/>
<polygon fill="black" stroke="black" points="346.188,-40.9205 336.007,-43.8537 345.795,-47.9094 346.188,-40.9205"/>
</g>
</g>
</svg>
