<?xml version="1.0" encoding="UTF-8" standalone="no"?>
<!DOCTYPE svg PUBLIC "-//W3C//DTD SVG 1.1//EN"
 "http://www.w3.org/Graphics/SVG/1.1/DTD/svg11.dtd">
<!-- Generated by graphviz version 2.38.0 (20140413.2041)
 -->
<!-- Title: Control&#45;flow graph for function &#39;function_40766d(*a1, *a2, *a3)&#39;. Pages: 1 -->
<svg width="487pt" height="655pt"
 viewBox="0.00 0.00 487.00 655.00" xmlns="http://www.w3.org/2000/svg" xmlns:xlink="http://www.w3.org/1999/xlink">
<g id="graph0" class="graph" transform="scale(1 1) rotate(0) translate(4 651)">
<title>Control&#45;flow graph for function &#39;function_40766d(*a1, *a2, *a3)&#39;.</title>
<polygon fill="white" stroke="none" points="-4,4 -4,-651 483,-651 483,4 -4,4"/>
<text text-anchor="middle" x="239.5" y="-7.8" font-family="Times,serif" font-size="14.00">Control&#45;flow graph for function &#39;function_40766d(*a1, *a2, *a3)&#39;.</text>
<!-- Node0x124a5230 -->
<g id="node1" class="node"><title>Node0x124a5230</title>
<polygon fill="none" stroke="black" points="300.25,-578.5 300.25,-646.5 359.25,-646.5 359.25,-578.5 300.25,-578.5"/>
<text text-anchor="start" x="308.25" y="-631.3" font-family="Times,serif" font-size="14.00">entry:</text>
<text text-anchor="start" x="308.25" y="-616.3" font-family="Times,serif" font-size="14.00"> a1</text>
<text text-anchor="start" x="308.25" y="-601.3" font-family="Times,serif" font-size="14.00"> a2</text>
<text text-anchor="start" x="308.25" y="-586.3" font-family="Times,serif" font-size="14.00"> a3</text>
</g>
<!-- Node0x7def9870 -->
<g id="node2" class="node"><title>Node0x7def9870</title>
<polygon fill="none" stroke="black" points="193.75,-502.5 193.75,-540.5 465.75,-540.5 465.75,-502.5 193.75,-502.5"/>
<text text-anchor="start" x="201.75" y="-525.3" font-family="Times,serif" font-size="14.00">v1 = PtrToIntCastExpr&lt;int32&gt;(a1)</text>
<text text-anchor="start" x="201.75" y="-510.3" font-family="Times,serif" font-size="14.00"> g7 = v1</text>
</g>
<!-- Node0x124a5230&#45;&gt;Node0x7def9870 -->
<g id="edge1" class="edge"><title>Node0x124a5230&#45;&gt;Node0x7def9870</title>
<path fill="none" stroke="black" d="M329.75,-578.36C329.75,-569.365 329.75,-559.707 329.75,-550.993"/>
<polygon fill="black" stroke="black" points="333.25,-550.941 329.75,-540.941 326.25,-550.941 333.25,-550.941"/>
</g>
<!-- Node0x124a5700 -->
<g id="node3" class="node"><title>Node0x124a5700</title>
<polygon fill="none" stroke="black" points="259.75,-428.5 259.75,-464.5 399.75,-464.5 399.75,-428.5 259.75,-428.5"/>
<text text-anchor="start" x="267.75" y="-442.8" font-family="Times,serif" font-size="14.00">if (a1 == NULL):</text>
</g>
<!-- Node0x7def9870&#45;&gt;Node0x124a5700 -->
<g id="edge2" class="edge"><title>Node0x7def9870&#45;&gt;Node0x124a5700</title>
<path fill="none" stroke="black" d="M329.75,-502.455C329.75,-494.201 329.75,-484.238 329.75,-475.074"/>
<polygon fill="black" stroke="black" points="333.25,-474.835 329.75,-464.835 326.25,-474.835 333.25,-474.835"/>
</g>
<!-- Node0x124a71d0 -->
<g id="node4" class="node"><title>Node0x124a71d0</title>
<polygon fill="none" stroke="black" points="12.75,-308.5 12.75,-376.5 348.75,-376.5 348.75,-308.5 12.75,-308.5"/>
<text text-anchor="start" x="20.75" y="-361.3" font-family="Times,serif" font-size="14.00">0x407676:</text>
<text text-anchor="start" x="20.75" y="-346.3" font-family="Times,serif" font-size="14.00"> v2</text>
<text text-anchor="start" x="20.75" y="-331.3" font-family="Times,serif" font-size="14.00"> function_40ede0(BitCastExpr&lt;ptr&gt;(&amp;(v2)))</text>
<text text-anchor="start" x="20.75" y="-316.3" font-family="Times,serif" font-size="14.00"> v1 = g7</text>
</g>
<!-- Node0x124a5700&#45;&gt;Node0x124a71d0 -->
<g id="edge3" class="edge"><title>Node0x124a5700&#45;&gt;Node0x124a71d0</title>
<path fill="none" stroke="black" d="M304.086,-428.427C295.388,-422.609 285.628,-416.048 276.75,-410 263.829,-401.198 249.982,-391.666 236.94,-382.641"/>
<polygon fill="black" stroke="black" points="238.716,-379.614 228.503,-376.796 234.73,-385.368 238.716,-379.614"/>
<text text-anchor="middle" x="323.75" y="-398.8" font-family="Times,serif" font-size="14.00">a1 == NULL</text>
</g>
<!-- Node0x124a7460 -->
<g id="node5" class="node"><title>Node0x124a7460</title>
<polygon fill="none" stroke="black" points="189.25,-97.5 189.25,-270.5 466.25,-270.5 466.25,-97.5 189.25,-97.5"/>
<text text-anchor="start" x="197.25" y="-255.3" font-family="Times,serif" font-size="14.00">v3 = (g5 + 4)</text>
<text text-anchor="start" x="197.25" y="-240.3" font-family="Times,serif" font-size="14.00"> g9 = v3</text>
<text text-anchor="start" x="197.25" y="-225.3" font-family="Times,serif" font-size="14.00"> v4 = IntToPtrCastExpr&lt;ptr&gt;(v1)</text>
<text text-anchor="start" x="197.25" y="-210.3" font-family="Times,serif" font-size="14.00"> g5 = v3</text>
<text text-anchor="start" x="197.25" y="-195.3" font-family="Times,serif" font-size="14.00"> function_40735d(v4, NULL)</text>
<text text-anchor="start" x="197.25" y="-180.3" font-family="Times,serif" font-size="14.00"> v5 = IntToPtrCastExpr&lt;ptr&gt;(g7)</text>
<text text-anchor="start" x="197.25" y="-165.3" font-family="Times,serif" font-size="14.00"> g5 = g9</text>
<text text-anchor="start" x="197.25" y="-150.3" font-family="Times,serif" font-size="14.00"> function_4075b8(v5)</text>
<text text-anchor="start" x="197.25" y="-135.3" font-family="Times,serif" font-size="14.00"> g9 = PtrToIntCastExpr&lt;int32&gt;(v5)</text>
<text text-anchor="start" x="197.25" y="-120.3" font-family="Times,serif" font-size="14.00"> g7 = PtrToIntCastExpr&lt;int32&gt;(v4)</text>
<text text-anchor="start" x="197.25" y="-105.3" font-family="Times,serif" font-size="14.00"> return 0</text>
</g>
<!-- Node0x124a5700&#45;&gt;Node0x124a7460 -->
<g id="edge4" class="edge"><title>Node0x124a5700&#45;&gt;Node0x124a7460</title>
<path fill="none" stroke="black" d="M356.378,-428.326C362.182,-423.188 367.541,-417.022 370.75,-410 373.521,-403.936 371.244,-401.648 370.75,-395 367.94,-357.176 360.552,-316.184 352.676,-280.542"/>
<polygon fill="black" stroke="black" points="356.057,-279.624 350.445,-270.638 349.228,-281.163 356.057,-279.624"/>
<text text-anchor="middle" x="413.75" y="-338.8" font-family="Times,serif" font-size="14.00">a1 != NULL</text>
</g>
<!-- Node0x124a71d0&#45;&gt;Node0x124a7460 -->
<g id="edge5" class="edge"><title>Node0x124a71d0&#45;&gt;Node0x124a7460</title>
<path fill="none" stroke="black" d="M211.925,-308.31C220.484,-299.198 230.206,-288.848 240.291,-278.111"/>
<polygon fill="black" stroke="black" points="243.026,-280.311 247.321,-270.626 237.924,-275.519 243.026,-280.311"/>
</g>
<!-- Node0x918b5f0 -->
<g id="node6" class="node"><title>Node0x918b5f0</title>
<polygon fill="none" stroke="black" points="300.75,-23.5 300.75,-59.5 354.75,-59.5 354.75,-23.5 300.75,-23.5"/>
<text text-anchor="start" x="308.75" y="-37.8" font-family="Times,serif" font-size="14.00">exit:</text>
</g>
<!-- Node0x124a7460&#45;&gt;Node0x918b5f0 -->
<g id="edge6" class="edge"><title>Node0x124a7460&#45;&gt;Node0x918b5f0</title>
<path fill="none" stroke="black" d="M327.75,-97.2233C327.75,-87.4821 327.75,-78.1602 327.75,-70.0586"/>
<polygon fill="black" stroke="black" points="331.25,-69.8425 327.75,-59.8425 324.25,-69.8426 331.25,-69.8425"/>
</g>
</g>
</svg>
