<?xml version="1.0" encoding="UTF-8" standalone="no"?>
<!DOCTYPE svg PUBLIC "-//W3C//DTD SVG 1.1//EN"
 "http://www.w3.org/Graphics/SVG/1.1/DTD/svg11.dtd">
<!-- Generated by graphviz version 2.38.0 (20140413.2041)
 -->
<!-- Title: Control&#45;flow graph for function &#39;function_40f000()&#39;. Pages: 1 -->
<svg width="391pt" height="216pt"
 viewBox="0.00 0.00 391.00 216.00" xmlns="http://www.w3.org/2000/svg" xmlns:xlink="http://www.w3.org/1999/xlink">
<g id="graph0" class="graph" transform="scale(1 1) rotate(0) translate(4 212)">
<title>Control&#45;flow graph for function &#39;function_40f000()&#39;.</title>
<polygon fill="white" stroke="none" points="-4,4 -4,-212 387,-212 387,4 -4,4"/>
<text text-anchor="middle" x="191.5" y="-7.8" font-family="Times,serif" font-size="14.00">Control&#45;flow graph for function &#39;function_40f000()&#39;.</text>
<!-- Node0xcb444f00 -->
<g id="node1" class="node"><title>Node0xcb444f00</title>
<polygon fill="none" stroke="black" points="162,-171.5 162,-207.5 221,-207.5 221,-171.5 162,-171.5"/>
<text text-anchor="start" x="170" y="-185.8" font-family="Times,serif" font-size="14.00">entry:</text>
</g>
<!-- Node0xcb445290 -->
<g id="node2" class="node"><title>Node0xcb445290</title>
<polygon fill="none" stroke="black" points="124.5,-96.5 124.5,-134.5 258.5,-134.5 258.5,-96.5 124.5,-96.5"/>
<text text-anchor="start" x="132.5" y="-119.3" font-family="Times,serif" font-size="14.00">0x40f000:</text>
<text text-anchor="start" x="132.5" y="-104.3" font-family="Times,serif" font-size="14.00"> return 4435544</text>
</g>
<!-- Node0xcb444f00&#45;&gt;Node0xcb445290 -->
<g id="edge1" class="edge"><title>Node0xcb444f00&#45;&gt;Node0xcb445290</title>
<path fill="none" stroke="black" d="M191.5,-171.437C191.5,-163.487 191.5,-153.813 191.5,-144.813"/>
<polygon fill="black" stroke="black" points="195,-144.699 191.5,-134.699 188,-144.699 195,-144.699"/>
</g>
<!-- Node0xcb444e60 -->
<g id="node3" class="node"><title>Node0xcb444e60</title>
<polygon fill="none" stroke="black" points="164.5,-23.5 164.5,-59.5 218.5,-59.5 218.5,-23.5 164.5,-23.5"/>
<text text-anchor="start" x="172.5" y="-37.8" font-family="Times,serif" font-size="14.00">exit:</text>
</g>
<!-- Node0xcb445290&#45;&gt;Node0xcb444e60 -->
<g id="edge2" class="edge"><title>Node0xcb445290&#45;&gt;Node0xcb444e60</title>
<path fill="none" stroke="black" d="M191.5,-96.3314C191.5,-88.394 191.5,-78.9095 191.5,-70.1285"/>
<polygon fill="black" stroke="black" points="195,-69.9177 191.5,-59.9177 188,-69.9177 195,-69.9177"/>
</g>
</g>
</svg>
