<?xml version="1.0" encoding="UTF-8" standalone="no"?>
<!DOCTYPE svg PUBLIC "-//W3C//DTD SVG 1.1//EN"
 "http://www.w3.org/Graphics/SVG/1.1/DTD/svg11.dtd">
<!-- Generated by graphviz version 2.38.0 (20140413.2041)
 -->
<!-- Title: Control&#45;flow graph for function &#39;function_41c43a(*a1, *a2, a3)&#39;. Pages: 1 -->
<svg width="1771pt" height="977pt"
 viewBox="0.00 0.00 1770.50 977.00" xmlns="http://www.w3.org/2000/svg" xmlns:xlink="http://www.w3.org/1999/xlink">
<g id="graph0" class="graph" transform="scale(1 1) rotate(0) translate(4 973)">
<title>Control&#45;flow graph for function &#39;function_41c43a(*a1, *a2, a3)&#39;.</title>
<polygon fill="white" stroke="none" points="-4,4 -4,-973 1766.5,-973 1766.5,4 -4,4"/>
<text text-anchor="middle" x="881.25" y="-7.8" font-family="Times,serif" font-size="14.00">Control&#45;flow graph for function &#39;function_41c43a(*a1, *a2, a3)&#39;.</text>
<!-- Node0x1447e220 -->
<g id="node1" class="node"><title>Node0x1447e220</title>
<polygon fill="none" stroke="black" points="492,-900.5 492,-968.5 551,-968.5 551,-900.5 492,-900.5"/>
<text text-anchor="start" x="500" y="-953.3" font-family="Times,serif" font-size="14.00">entry:</text>
<text text-anchor="start" x="500" y="-938.3" font-family="Times,serif" font-size="14.00"> a1</text>
<text text-anchor="start" x="500" y="-923.3" font-family="Times,serif" font-size="14.00"> a2</text>
<text text-anchor="start" x="500" y="-908.3" font-family="Times,serif" font-size="14.00"> a3</text>
</g>
<!-- Node0x1447f610 -->
<g id="node2" class="node"><title>Node0x1447f610</title>
<polygon fill="none" stroke="black" points="385.5,-826.5 385.5,-862.5 657.5,-862.5 657.5,-826.5 385.5,-826.5"/>
<text text-anchor="start" x="393.5" y="-840.8" font-family="Times,serif" font-size="14.00">v1 = PtrToIntCastExpr&lt;int32&gt;(a2)</text>
</g>
<!-- Node0x1447e220&#45;&gt;Node0x1447f610 -->
<g id="edge1" class="edge"><title>Node0x1447e220&#45;&gt;Node0x1447f610</title>
<path fill="none" stroke="black" d="M521.5,-900.482C521.5,-891.328 521.5,-881.497 521.5,-872.715"/>
<polygon fill="black" stroke="black" points="525,-872.64 521.5,-862.64 518,-872.64 525,-872.64"/>
</g>
<!-- Node0x1447f140 -->
<g id="node3" class="node"><title>Node0x1447f140</title>
<polygon fill="none" stroke="black" points="451.5,-752.5 451.5,-788.5 591.5,-788.5 591.5,-752.5 451.5,-752.5"/>
<text text-anchor="start" x="459.5" y="-766.8" font-family="Times,serif" font-size="14.00">if (a2 == NULL):</text>
</g>
<!-- Node0x1447f610&#45;&gt;Node0x1447f140 -->
<g id="edge2" class="edge"><title>Node0x1447f610&#45;&gt;Node0x1447f140</title>
<path fill="none" stroke="black" d="M521.5,-826.437C521.5,-818.307 521.5,-808.376 521.5,-799.205"/>
<polygon fill="black" stroke="black" points="525,-798.941 521.5,-788.941 518,-798.941 525,-798.941"/>
</g>
<!-- Node0x3c27c9e0 -->
<g id="node4" class="node"><title>Node0x3c27c9e0</title>
<polygon fill="none" stroke="black" points="435.5,-662.5 435.5,-700.5 527.5,-700.5 527.5,-662.5 435.5,-662.5"/>
<text text-anchor="start" x="443.5" y="-685.3" font-family="Times,serif" font-size="14.00">0x41c442:</text>
<text text-anchor="start" x="443.5" y="-670.3" font-family="Times,serif" font-size="14.00"> v1 = g5</text>
</g>
<!-- Node0x1447f140&#45;&gt;Node0x3c27c9e0 -->
<g id="edge3" class="edge"><title>Node0x1447f140&#45;&gt;Node0x3c27c9e0</title>
<path fill="none" stroke="black" d="M485.347,-752.345C478.58,-747.409 472.411,-741.328 468.5,-734 464.653,-726.793 465.026,-718.406 467.158,-710.52"/>
<polygon fill="black" stroke="black" points="470.518,-711.518 470.615,-700.924 463.933,-709.146 470.518,-711.518"/>
<text text-anchor="middle" x="515.5" y="-722.8" font-family="Times,serif" font-size="14.00">a2 == NULL</text>
</g>
<!-- Node0x1447eb90 -->
<g id="node5" class="node"><title>Node0x1447eb90</title>
<polygon fill="none" stroke="black" points="416.5,-541.5 416.5,-624.5 676.5,-624.5 676.5,-541.5 416.5,-541.5"/>
<text text-anchor="start" x="424.5" y="-609.3" font-family="Times,serif" font-size="14.00">v2 = ExtCastExpr&lt;int32&gt;(*(a1))</text>
<text text-anchor="start" x="424.5" y="-594.3" font-family="Times,serif" font-size="14.00"> v3 = IntToPtrCastExpr&lt;ptr&gt;(v2)</text>
<text text-anchor="start" x="424.5" y="-579.3" font-family="Times,serif" font-size="14.00"> v4</text>
<text text-anchor="start" x="424.5" y="-564.3" font-family="Times,serif" font-size="14.00"> v5</text>
<text text-anchor="start" x="424.5" y="-549.3" font-family="Times,serif" font-size="14.00"> v6</text>
</g>
<!-- Node0x1447f140&#45;&gt;Node0x1447eb90 -->
<g id="edge4" class="edge"><title>Node0x1447f140&#45;&gt;Node0x1447eb90</title>
<path fill="none" stroke="black" d="M548.128,-752.326C553.932,-747.188 559.291,-741.022 562.5,-734 576.679,-702.968 572.284,-664.675 564.547,-634.547"/>
<polygon fill="black" stroke="black" points="567.853,-633.372 561.817,-624.666 561.106,-635.236 567.853,-633.372"/>
<text text-anchor="middle" x="616.5" y="-677.8" font-family="Times,serif" font-size="14.00">a2 != NULL</text>
</g>
<!-- Node0x3c27c9e0&#45;&gt;Node0x1447eb90 -->
<g id="edge5" class="edge"><title>Node0x3c27c9e0&#45;&gt;Node0x1447eb90</title>
<path fill="none" stroke="black" d="M493.726,-662.349C499.355,-653.991 506.336,-643.628 513.357,-633.205"/>
<polygon fill="black" stroke="black" points="516.287,-635.119 518.971,-624.87 510.481,-631.209 516.287,-635.119"/>
</g>
<!-- Node0x1447f920 -->
<g id="node6" class="node"><title>Node0x1447f920</title>
<polygon fill="none" stroke="black" points="492.5,-467.5 492.5,-503.5 600.5,-503.5 600.5,-467.5 492.5,-467.5"/>
<text text-anchor="start" x="500.5" y="-481.8" font-family="Times,serif" font-size="14.00">if (v1 != g5):</text>
</g>
<!-- Node0x1447eb90&#45;&gt;Node0x1447f920 -->
<g id="edge6" class="edge"><title>Node0x1447eb90&#45;&gt;Node0x1447f920</title>
<path fill="none" stroke="black" d="M546.5,-541.499C546.5,-532.206 546.5,-522.537 546.5,-513.946"/>
<polygon fill="black" stroke="black" points="550,-513.749 546.5,-503.749 543,-513.749 550,-513.749"/>
</g>
<!-- Node0x1447ecd0 -->
<g id="node7" class="node"><title>Node0x1447ecd0</title>
<polygon fill="none" stroke="black" points="0,-260.5 0,-343.5 831,-343.5 831,-260.5 0,-260.5"/>
<text text-anchor="start" x="8" y="-328.3" font-family="Times,serif" font-size="14.00">0x41c451:</text>
<text text-anchor="start" x="8" y="-313.3" font-family="Times,serif" font-size="14.00"> v4 = *(v3)</text>
<text text-anchor="start" x="8" y="-298.3" font-family="Times,serif" font-size="14.00"> v5 = VariantChangeType(IntToPtrCastExpr&lt;ptr&gt;(g5), IntToPtrCastExpr&lt;ptr&gt;(v1), 0, ExtCastExpr&lt;int32&gt;(v4))</text>
<text text-anchor="start" x="8" y="-283.3" font-family="Times,serif" font-size="14.00"> v6 = IntToPtrCastExpr&lt;ptr&gt;(function_41c391(IntToPtrCastExpr&lt;ptr&gt;(v5)))</text>
<text text-anchor="start" x="8" y="-268.3" font-family="Times,serif" font-size="14.00"> return PtrToIntCastExpr&lt;int32&gt;(v6)</text>
</g>
<!-- Node0x1447f920&#45;&gt;Node0x1447ecd0 -->
<g id="edge7" class="edge"><title>Node0x1447f920&#45;&gt;Node0x1447ecd0</title>
<path fill="none" stroke="black" d="M534.176,-467.425C515.346,-441.336 478.693,-390.553 451.078,-352.293"/>
<polygon fill="black" stroke="black" points="453.67,-349.904 444.979,-343.843 447.994,-354 453.67,-349.904"/>
<text text-anchor="middle" x="553" y="-437.8" font-family="Times,serif" font-size="14.00">v1 != g5</text>
</g>
<!-- Node0x1447fba0 -->
<g id="node8" class="node"><title>Node0x1447fba0</title>
<polygon fill="none" stroke="black" points="618,-362.5 618,-415.5 1097,-415.5 1097,-362.5 618,-362.5"/>
<text text-anchor="start" x="626" y="-400.3" font-family="Times,serif" font-size="14.00">0x41c44c:</text>
<text text-anchor="start" x="626" y="-385.3" font-family="Times,serif" font-size="14.00"> if (v2 != ExtCastExpr&lt;int32&gt;(*(IntToPtrCastExpr&lt;ptr&gt;(g5)))):</text>
<text text-anchor="start" x="626" y="-370.3" font-family="Times,serif" font-size="14.00"> else:</text>
</g>
<!-- Node0x1447f920&#45;&gt;Node0x1447fba0 -->
<g id="edge8" class="edge"><title>Node0x1447f920&#45;&gt;Node0x1447fba0</title>
<path fill="none" stroke="black" d="M600.672,-468.039C645.562,-454.399 710.408,-434.695 763.708,-418.5"/>
<polygon fill="black" stroke="black" points="764.968,-421.775 773.518,-415.519 762.933,-415.077 764.968,-421.775"/>
<text text-anchor="middle" x="746" y="-437.8" font-family="Times,serif" font-size="14.00">v1 == g5</text>
</g>
<!-- Node0x1447d480 -->
<g id="node9" class="node"><title>Node0x1447d480</title>
<polygon fill="none" stroke="black" points="503.5,-23.5 503.5,-59.5 557.5,-59.5 557.5,-23.5 503.5,-23.5"/>
<text text-anchor="start" x="511.5" y="-37.8" font-family="Times,serif" font-size="14.00">exit:</text>
</g>
<!-- Node0x1447ecd0&#45;&gt;Node0x1447d480 -->
<g id="edge9" class="edge"><title>Node0x1447ecd0&#45;&gt;Node0x1447d480</title>
<path fill="none" stroke="black" d="M415.658,-260.442C417.008,-234.572 421.133,-200.805 432.5,-173 449.43,-131.586 482.762,-91.6096 505.819,-67.0549"/>
<polygon fill="black" stroke="black" points="508.527,-69.2877 512.911,-59.6423 503.469,-64.4488 508.527,-69.2877"/>
</g>
<!-- Node0x144800e0 -->
<g id="node10" class="node"><title>Node0x144800e0</title>
<polygon fill="none" stroke="black" points="442,-173.5 442,-241.5 1273,-241.5 1273,-173.5 442,-173.5"/>
<text text-anchor="start" x="450" y="-226.3" font-family="Times,serif" font-size="14.00">0x41c451:</text>
<text text-anchor="start" x="450" y="-211.3" font-family="Times,serif" font-size="14.00"> v4 = *(v3)</text>
<text text-anchor="start" x="450" y="-196.3" font-family="Times,serif" font-size="14.00"> v5 = VariantChangeType(IntToPtrCastExpr&lt;ptr&gt;(g5), IntToPtrCastExpr&lt;ptr&gt;(v1), 0, ExtCastExpr&lt;int32&gt;(v4))</text>
<text text-anchor="start" x="450" y="-181.3" font-family="Times,serif" font-size="14.00"> v6 = IntToPtrCastExpr&lt;ptr&gt;(function_41c391(IntToPtrCastExpr&lt;ptr&gt;(v5)))</text>
</g>
<!-- Node0x1447fba0&#45;&gt;Node0x144800e0 -->
<g id="edge10" class="edge"><title>Node0x1447fba0&#45;&gt;Node0x144800e0</title>
<path fill="none" stroke="black" d="M857.5,-362.282C857.5,-333.554 857.5,-286.564 857.5,-252.075"/>
<polygon fill="black" stroke="black" points="861,-251.807 857.5,-241.807 854,-251.808 861,-251.807"/>
<text text-anchor="middle" x="1072" y="-298.3" font-family="Times,serif" font-size="14.00">v2 != ExtCastExpr&lt;int32&gt;(*(IntToPtrCastExpr&lt;ptr&gt;(g5)))</text>
</g>
<!-- Node0x14480160 -->
<g id="node11" class="node"><title>Node0x14480160</title>
<polygon fill="none" stroke="black" points="1291.5,-189.5 1291.5,-225.5 1363.5,-225.5 1363.5,-189.5 1291.5,-189.5"/>
<text text-anchor="start" x="1299.5" y="-203.8" font-family="Times,serif" font-size="14.00">v6 = v3</text>
</g>
<!-- Node0x1447fba0&#45;&gt;Node0x14480160 -->
<g id="edge11" class="edge"><title>Node0x1447fba0&#45;&gt;Node0x14480160</title>
<path fill="none" stroke="black" d="M1097.24,-375.018C1188.32,-367.941 1274.25,-357.766 1290.5,-344 1321.79,-317.495 1327.94,-267.339 1328.47,-236.044"/>
<polygon fill="black" stroke="black" points="1331.97,-235.826 1328.46,-225.83 1324.97,-235.835 1331.97,-235.826"/>
<text text-anchor="middle" x="1545" y="-298.3" font-family="Times,serif" font-size="14.00">v2 == ExtCastExpr&lt;int32&gt;(*(IntToPtrCastExpr&lt;ptr&gt;(g5)))</text>
</g>
<!-- Node0x1447fd50 -->
<g id="node12" class="node"><title>Node0x1447fd50</title>
<polygon fill="none" stroke="black" points="713.5,-97.5 713.5,-135.5 1001.5,-135.5 1001.5,-97.5 713.5,-97.5"/>
<text text-anchor="start" x="721.5" y="-120.3" font-family="Times,serif" font-size="14.00">0x41c462:</text>
<text text-anchor="start" x="721.5" y="-105.3" font-family="Times,serif" font-size="14.00"> return PtrToIntCastExpr&lt;int32&gt;(v6)</text>
</g>
<!-- Node0x144800e0&#45;&gt;Node0x1447fd50 -->
<g id="edge12" class="edge"><title>Node0x144800e0&#45;&gt;Node0x1447fd50</title>
<path fill="none" stroke="black" d="M857.5,-173.36C857.5,-164.365 857.5,-154.707 857.5,-145.993"/>
<polygon fill="black" stroke="black" points="861,-145.941 857.5,-135.941 854,-145.941 861,-145.941"/>
</g>
<!-- Node0x14480160&#45;&gt;Node0x1447fd50 -->
<g id="edge13" class="edge"><title>Node0x14480160&#45;&gt;Node0x1447fd50</title>
<path fill="none" stroke="black" d="M1308.65,-189.473C1300.78,-183.293 1291.23,-176.882 1281.5,-173 1233.5,-153.839 1112.28,-139.103 1011.69,-129.647"/>
<polygon fill="black" stroke="black" points="1012,-126.16 1001.72,-128.719 1011.35,-133.13 1012,-126.16"/>
</g>
<!-- Node0x1447fd50&#45;&gt;Node0x1447d480 -->
<g id="edge14" class="edge"><title>Node0x1447fd50&#45;&gt;Node0x1447d480</title>
<path fill="none" stroke="black" d="M776.669,-97.4551C709.786,-82.524 617.857,-62.0016 567.387,-50.7348"/>
<polygon fill="black" stroke="black" points="568.091,-47.3058 557.568,-48.5428 566.566,-54.1376 568.091,-47.3058"/>
</g>
</g>
</svg>
