<?xml version="1.0" encoding="UTF-8" standalone="no"?>
<!DOCTYPE svg PUBLIC "-//W3C//DTD SVG 1.1//EN"
 "http://www.w3.org/Graphics/SVG/1.1/DTD/svg11.dtd">
<!-- Generated by graphviz version 2.38.0 (20140413.2041)
 -->
<!-- Title: Control&#45;flow graph for function &#39;function_4071fb(*a1, *lpName, *a3, a4)&#39;. Pages: 1 -->
<svg width="2174pt" height="2104pt"
 viewBox="0.00 0.00 2174.00 2104.00" xmlns="http://www.w3.org/2000/svg" xmlns:xlink="http://www.w3.org/1999/xlink">
<g id="graph0" class="graph" transform="scale(1 1) rotate(0) translate(4 2100)">
<title>Control&#45;flow graph for function &#39;function_4071fb(*a1, *lpName, *a3, a4)&#39;.</title>
<polygon fill="white" stroke="none" points="-4,4 -4,-2100 2170,-2100 2170,4 -4,4"/>
<text text-anchor="middle" x="1083" y="-7.8" font-family="Times,serif" font-size="14.00">Control&#45;flow graph for function &#39;function_4071fb(*a1, *lpName, *a3, a4)&#39;.</text>
<!-- Node0x1ed6d290 -->
<g id="node1" class="node"><title>Node0x1ed6d290</title>
<polygon fill="none" stroke="black" points="940.5,-2012.5 940.5,-2095.5 1017.5,-2095.5 1017.5,-2012.5 940.5,-2012.5"/>
<text text-anchor="start" x="948.5" y="-2080.3" font-family="Times,serif" font-size="14.00">entry:</text>
<text text-anchor="start" x="948.5" y="-2065.3" font-family="Times,serif" font-size="14.00"> a1</text>
<text text-anchor="start" x="948.5" y="-2050.3" font-family="Times,serif" font-size="14.00"> lpName</text>
<text text-anchor="start" x="948.5" y="-2035.3" font-family="Times,serif" font-size="14.00"> a3</text>
<text text-anchor="start" x="948.5" y="-2020.3" font-family="Times,serif" font-size="14.00"> a4</text>
</g>
<!-- Node0x1d8b2340 -->
<g id="node2" class="node"><title>Node0x1d8b2340</title>
<polygon fill="none" stroke="black" points="928.5,-1831.5 928.5,-1974.5 1029.5,-1974.5 1029.5,-1831.5 928.5,-1831.5"/>
<text text-anchor="start" x="936.5" y="-1959.3" font-family="Times,serif" font-size="14.00">v1 = g3</text>
<text text-anchor="start" x="936.5" y="-1944.3" font-family="Times,serif" font-size="14.00"> g3 = &amp;(v1)</text>
<text text-anchor="start" x="936.5" y="-1929.3" font-family="Times,serif" font-size="14.00"> v2 = g4</text>
<text text-anchor="start" x="936.5" y="-1914.3" font-family="Times,serif" font-size="14.00"> v3 = g9</text>
<text text-anchor="start" x="936.5" y="-1899.3" font-family="Times,serif" font-size="14.00"> v4 = g7</text>
<text text-anchor="start" x="936.5" y="-1884.3" font-family="Times,serif" font-size="14.00"> g7 = g5</text>
<text text-anchor="start" x="936.5" y="-1869.3" font-family="Times,serif" font-size="14.00"> v5</text>
<text text-anchor="start" x="936.5" y="-1854.3" font-family="Times,serif" font-size="14.00"> v6</text>
<text text-anchor="start" x="936.5" y="-1839.3" font-family="Times,serif" font-size="14.00"> v7</text>
</g>
<!-- Node0x1ed6d290&#45;&gt;Node0x1d8b2340 -->
<g id="edge1" class="edge"><title>Node0x1ed6d290&#45;&gt;Node0x1d8b2340</title>
<path fill="none" stroke="black" d="M979,-2012.29C979,-2003.74 979,-1994.45 979,-1985.01"/>
<polygon fill="black" stroke="black" points="982.5,-1984.75 979,-1974.75 975.5,-1984.75 982.5,-1984.75"/>
</g>
<!-- Node0x1d8b1f70 -->
<g id="node3" class="node"><title>Node0x1d8b1f70</title>
<polygon fill="none" stroke="black" points="889.5,-1757.5 889.5,-1793.5 1068.5,-1793.5 1068.5,-1757.5 889.5,-1757.5"/>
<text text-anchor="start" x="897.5" y="-1771.8" font-family="Times,serif" font-size="14.00">if (lpName == NULL):</text>
</g>
<!-- Node0x1d8b2340&#45;&gt;Node0x1d8b1f70 -->
<g id="edge2" class="edge"><title>Node0x1d8b2340&#45;&gt;Node0x1d8b1f70</title>
<path fill="none" stroke="black" d="M979,-1831.18C979,-1821.44 979,-1811.96 979,-1803.71"/>
<polygon fill="black" stroke="black" points="982.5,-1803.64 979,-1793.64 975.5,-1803.64 982.5,-1803.64"/>
</g>
<!-- Node0x1d8b34a0 -->
<g id="node4" class="node"><title>Node0x1d8b34a0</title>
<polygon fill="none" stroke="black" points="540.5,-1615 540.5,-1698 869.5,-1698 869.5,-1615 540.5,-1615"/>
<text text-anchor="start" x="548.5" y="-1682.8" font-family="Times,serif" font-size="14.00">0x407241:</text>
<text text-anchor="start" x="548.5" y="-1667.8" font-family="Times,serif" font-size="14.00"> g9 = PtrToIntCastExpr&lt;int32&gt;(a1)</text>
<text text-anchor="start" x="548.5" y="-1652.8" font-family="Times,serif" font-size="14.00"> v7 = *(IntToPtrCastExpr&lt;ptr&gt;((g9 + 76)))</text>
<text text-anchor="start" x="548.5" y="-1637.8" font-family="Times,serif" font-size="14.00"> g1 = False</text>
<text text-anchor="start" x="548.5" y="-1622.8" font-family="Times,serif" font-size="14.00"> g180 = (v7 == 0)</text>
</g>
<!-- Node0x1d8b1f70&#45;&gt;Node0x1d8b34a0 -->
<g id="edge3" class="edge"><title>Node0x1d8b1f70&#45;&gt;Node0x1d8b34a0</title>
<path fill="none" stroke="black" d="M939.158,-1757.49C905.138,-1742.96 854.65,-1721.4 809.256,-1702.02"/>
<polygon fill="black" stroke="black" points="810.525,-1698.75 799.953,-1698.05 807.776,-1705.19 810.525,-1698.75"/>
<text text-anchor="middle" x="957.5" y="-1727.8" font-family="Times,serif" font-size="14.00">lpName == NULL</text>
</g>
<!-- Node0x1d8b1280 -->
<g id="node5" class="node"><title>Node0x1d8b1280</title>
<polygon fill="none" stroke="black" points="888,-1607.5 888,-1705.5 1462,-1705.5 1462,-1607.5 888,-1607.5"/>
<text text-anchor="start" x="896" y="-1690.3" font-family="Times,serif" font-size="14.00">v8 = *(IntToPtrCastExpr&lt;ptr&gt;((function_41022a() + 12)))</text>
<text text-anchor="start" x="896" y="-1675.3" font-family="Times,serif" font-size="14.00"> g9 = v8</text>
<text text-anchor="start" x="896" y="-1660.3" font-family="Times,serif" font-size="14.00"> v5 = IntToPtrCastExpr&lt;ptr&gt;(240)</text>
<text text-anchor="start" x="896" y="-1645.3" font-family="Times,serif" font-size="14.00"> hModule = IntToPtrCastExpr&lt;ptr&gt;(v8)</text>
<text text-anchor="start" x="896" y="-1630.3" font-family="Times,serif" font-size="14.00"> v9 = hModule</text>
<text text-anchor="start" x="896" y="-1615.3" font-family="Times,serif" font-size="14.00"> hResInfo = FindResourceA(hModule, lpName, IntToPtrCastExpr&lt;ptr&gt;(240))</text>
</g>
<!-- Node0x1d8b1f70&#45;&gt;Node0x1d8b1280 -->
<g id="edge4" class="edge"><title>Node0x1d8b1f70&#45;&gt;Node0x1d8b1280</title>
<path fill="none" stroke="black" d="M1007.5,-1757.49C1028.19,-1745.14 1057.39,-1727.71 1085.62,-1710.85"/>
<polygon fill="black" stroke="black" points="1087.55,-1713.78 1094.35,-1705.65 1083.97,-1707.77 1087.55,-1713.78"/>
<text text-anchor="middle" x="1123.5" y="-1727.8" font-family="Times,serif" font-size="14.00">lpName != NULL</text>
</g>
<!-- Node0x1d8b3680 -->
<g id="node6" class="node"><title>Node0x1d8b3680</title>
<polygon fill="none" stroke="black" points="655.5,-1533.5 655.5,-1569.5 754.5,-1569.5 754.5,-1533.5 655.5,-1533.5"/>
<text text-anchor="start" x="663.5" y="-1547.8" font-family="Times,serif" font-size="14.00">if (v7 != 0):</text>
</g>
<!-- Node0x1d8b34a0&#45;&gt;Node0x1d8b3680 -->
<g id="edge5" class="edge"><title>Node0x1d8b34a0&#45;&gt;Node0x1d8b3680</title>
<path fill="none" stroke="black" d="M705,-1614.79C705,-1602.98 705,-1590.38 705,-1579.63"/>
<polygon fill="black" stroke="black" points="708.5,-1579.58 705,-1569.58 701.5,-1579.58 708.5,-1579.58"/>
</g>
<!-- Node0x1d8b2770 -->
<g id="node7" class="node"><title>Node0x1d8b2770</title>
<polygon fill="none" stroke="black" points="1082,-1533.5 1082,-1569.5 1268,-1569.5 1268,-1533.5 1082,-1533.5"/>
<text text-anchor="start" x="1090" y="-1547.8" font-family="Times,serif" font-size="14.00">if (hResInfo == NULL):</text>
</g>
<!-- Node0x1d8b1280&#45;&gt;Node0x1d8b2770 -->
<g id="edge6" class="edge"><title>Node0x1d8b1280&#45;&gt;Node0x1d8b2770</title>
<path fill="none" stroke="black" d="M1175,-1607.32C1175,-1597.89 1175,-1588.32 1175,-1579.87"/>
<polygon fill="black" stroke="black" points="1178.5,-1579.86 1175,-1569.86 1171.5,-1579.86 1178.5,-1579.86"/>
</g>
<!-- Node0x1d8b4b80 -->
<g id="node8" class="node"><title>Node0x1d8b4b80</title>
<polygon fill="none" stroke="black" points="0,-1368.5 0,-1481.5 710,-1481.5 710,-1368.5 0,-1368.5"/>
<text text-anchor="start" x="8" y="-1466.3" font-family="Times,serif" font-size="14.00">0x407273:</text>
<text text-anchor="start" x="8" y="-1451.3" font-family="Times,serif" font-size="14.00"> g5 = v7</text>
<text text-anchor="start" x="8" y="-1436.3" font-family="Times,serif" font-size="14.00"> v5 = a3</text>
<text text-anchor="start" x="8" y="-1421.3" font-family="Times,serif" font-size="14.00"> g10 = PtrToIntCastExpr&lt;int32&gt;(&amp;(v5))</text>
<text text-anchor="start" x="8" y="-1406.3" font-family="Times,serif" font-size="14.00"> v6 = *(IntToPtrCastExpr&lt;ptr&gt;(v7))</text>
<text text-anchor="start" x="8" y="-1391.3" font-family="Times,serif" font-size="14.00"> g2 = v6</text>
<text text-anchor="start" x="8" y="-1376.3" font-family="Times,serif" font-size="14.00"> IntToPtrCastExpr&lt;ptr&gt;(*(IntToPtrCastExpr&lt;ptr&gt;((v6 + 160))))(PtrToIntCastExpr&lt;int32&gt;(a3))</text>
</g>
<!-- Node0x1d8b3680&#45;&gt;Node0x1d8b4b80 -->
<g id="edge7" class="edge"><title>Node0x1d8b3680&#45;&gt;Node0x1d8b4b80</title>
<path fill="none" stroke="black" d="M657.068,-1533.45C621.451,-1520.78 570.6,-1502.69 520.751,-1484.96"/>
<polygon fill="black" stroke="black" points="521.725,-1481.59 511.13,-1481.54 519.379,-1488.19 521.725,-1481.59"/>
<text text-anchor="middle" x="629" y="-1503.8" font-family="Times,serif" font-size="14.00">v7 != 0</text>
</g>
<!-- Node0x1d8b3a10 -->
<g id="node9" class="node"><title>Node0x1d8b3a10</title>
<polygon fill="none" stroke="black" points="183,-1232.5 183,-1330.5 647,-1330.5 647,-1232.5 183,-1232.5"/>
<text text-anchor="start" x="191" y="-1315.3" font-family="Times,serif" font-size="14.00">0x407284:</text>
<text text-anchor="start" x="191" y="-1300.3" font-family="Times,serif" font-size="14.00"> g7 = v4</text>
<text text-anchor="start" x="191" y="-1285.3" font-family="Times,serif" font-size="14.00"> g9 = v3</text>
<text text-anchor="start" x="191" y="-1270.3" font-family="Times,serif" font-size="14.00"> g4 = v2</text>
<text text-anchor="start" x="191" y="-1255.3" font-family="Times,serif" font-size="14.00"> g3 = v1</text>
<text text-anchor="start" x="191" y="-1240.3" font-family="Times,serif" font-size="14.00"> return PtrToIntCastExpr&lt;int32&gt;(IntToPtrCastExpr&lt;ptr&gt;(1))</text>
</g>
<!-- Node0x1d8b3680&#45;&gt;Node0x1d8b3a10 -->
<g id="edge8" class="edge"><title>Node0x1d8b3680&#45;&gt;Node0x1d8b3a10</title>
<path fill="none" stroke="black" d="M713.144,-1533.31C728.423,-1498.25 756.609,-1417.65 719,-1368 708.768,-1354.49 685.755,-1342.53 656.73,-1332.14"/>
<polygon fill="black" stroke="black" points="657.698,-1328.77 647.103,-1328.82 655.418,-1335.39 657.698,-1328.77"/>
<text text-anchor="middle" x="768" y="-1421.3" font-family="Times,serif" font-size="14.00">v7 == 0</text>
</g>
<!-- Node0x1d8b2ad0 -->
<g id="node10" class="node"><title>Node0x1d8b2ad0</title>
<polygon fill="none" stroke="black" points="863.5,-1383.5 863.5,-1466.5 1192.5,-1466.5 1192.5,-1383.5 863.5,-1383.5"/>
<text text-anchor="start" x="871.5" y="-1451.3" font-family="Times,serif" font-size="14.00">0x407241:</text>
<text text-anchor="start" x="871.5" y="-1436.3" font-family="Times,serif" font-size="14.00"> g9 = PtrToIntCastExpr&lt;int32&gt;(a1)</text>
<text text-anchor="start" x="871.5" y="-1421.3" font-family="Times,serif" font-size="14.00"> v7 = *(IntToPtrCastExpr&lt;ptr&gt;((g9 + 76)))</text>
<text text-anchor="start" x="871.5" y="-1406.3" font-family="Times,serif" font-size="14.00"> g1 = False</text>
<text text-anchor="start" x="871.5" y="-1391.3" font-family="Times,serif" font-size="14.00"> g180 = (v7 == 0)</text>
</g>
<!-- Node0x1d8b2770&#45;&gt;Node0x1d8b2ad0 -->
<g id="edge9" class="edge"><title>Node0x1d8b2770&#45;&gt;Node0x1d8b2ad0</title>
<path fill="none" stroke="black" d="M1154.87,-1533.45C1136.55,-1517.94 1108.65,-1494.31 1083.67,-1473.15"/>
<polygon fill="black" stroke="black" points="1085.92,-1470.47 1076.02,-1466.67 1081.39,-1475.81 1085.92,-1470.47"/>
<text text-anchor="middle" x="1202.5" y="-1503.8" font-family="Times,serif" font-size="14.00">hResInfo == NULL</text>
</g>
<!-- Node0x1d8b2a70 -->
<g id="node11" class="node"><title>Node0x1d8b2a70</title>
<polygon fill="none" stroke="black" points="1210,-1398.5 1210,-1451.5 1708,-1451.5 1708,-1398.5 1210,-1398.5"/>
<text text-anchor="start" x="1218" y="-1436.3" font-family="Times,serif" font-size="14.00">0x407229:</text>
<text text-anchor="start" x="1218" y="-1421.3" font-family="Times,serif" font-size="14.00"> v5 = BitCastExpr&lt;ptr&gt;(hResInfo)</text>
<text text-anchor="start" x="1218" y="-1406.3" font-family="Times,serif" font-size="14.00"> hResData = LoadResource(IntToPtrCastExpr&lt;ptr&gt;(g9), hResInfo)</text>
</g>
<!-- Node0x1d8b2770&#45;&gt;Node0x1d8b2a70 -->
<g id="edge10" class="edge"><title>Node0x1d8b2770&#45;&gt;Node0x1d8b2a70</title>
<path fill="none" stroke="black" d="M1227.87,-1533.45C1243.81,-1527.95 1261.25,-1521.56 1277,-1515 1319.47,-1497.3 1366.06,-1474.45 1401.47,-1456.34"/>
<polygon fill="black" stroke="black" points="1403.38,-1459.29 1410.68,-1451.6 1400.18,-1453.06 1403.38,-1459.29"/>
<text text-anchor="middle" x="1374.5" y="-1503.8" font-family="Times,serif" font-size="14.00">hResInfo != NULL</text>
</g>
<!-- Node0x1d8b4b80&#45;&gt;Node0x1d8b3a10 -->
<g id="edge11" class="edge"><title>Node0x1d8b4b80&#45;&gt;Node0x1d8b3a10</title>
<path fill="none" stroke="black" d="M378.541,-1368.48C382.53,-1359.07 386.679,-1349.29 390.687,-1339.84"/>
<polygon fill="black" stroke="black" points="393.956,-1341.09 394.638,-1330.52 387.512,-1338.36 393.956,-1341.09"/>
</g>
<!-- Node0x1d8b22c0 -->
<g id="node12" class="node"><title>Node0x1d8b22c0</title>
<polygon fill="none" stroke="black" points="1147,-23.5 1147,-59.5 1201,-59.5 1201,-23.5 1147,-23.5"/>
<text text-anchor="start" x="1155" y="-37.8" font-family="Times,serif" font-size="14.00">exit:</text>
</g>
<!-- Node0x1d8b3a10&#45;&gt;Node0x1d8b22c0 -->
<g id="edge12" class="edge"><title>Node0x1d8b3a10&#45;&gt;Node0x1d8b22c0</title>
<path fill="none" stroke="black" d="M415,-1232.36C415,-1199.9 415,-1156.13 415,-1117.5 415,-1117.5 415,-1117.5 415,-145.5 415,-71.8033 984.133,-48.5058 1136.73,-43.5836"/>
<polygon fill="black" stroke="black" points="1137.1,-47.0739 1146.99,-43.2606 1136.88,-40.0773 1137.1,-47.0739"/>
</g>
<!-- Node0x1d8b2ea0 -->
<g id="node13" class="node"><title>Node0x1d8b2ea0</title>
<polygon fill="none" stroke="black" points="978.5,-1263.5 978.5,-1299.5 1077.5,-1299.5 1077.5,-1263.5 978.5,-1263.5"/>
<text text-anchor="start" x="986.5" y="-1277.8" font-family="Times,serif" font-size="14.00">if (v7 != 0):</text>
</g>
<!-- Node0x1d8b2ad0&#45;&gt;Node0x1d8b2ea0 -->
<g id="edge13" class="edge"><title>Node0x1d8b2ad0&#45;&gt;Node0x1d8b2ea0</title>
<path fill="none" stroke="black" d="M1028,-1383.45C1028,-1359.81 1028,-1330.62 1028,-1309.72"/>
<polygon fill="black" stroke="black" points="1031.5,-1309.62 1028,-1299.62 1024.5,-1309.62 1031.5,-1309.62"/>
</g>
<!-- Node0x1d8b2c50 -->
<g id="node14" class="node"><title>Node0x1d8b2c50</title>
<polygon fill="none" stroke="black" points="1363.5,-1263.5 1363.5,-1299.5 1554.5,-1299.5 1554.5,-1263.5 1363.5,-1263.5"/>
<text text-anchor="start" x="1371.5" y="-1277.8" font-family="Times,serif" font-size="14.00">if (hResData == NULL):</text>
</g>
<!-- Node0x1d8b2a70&#45;&gt;Node0x1d8b2c50 -->
<g id="edge14" class="edge"><title>Node0x1d8b2a70&#45;&gt;Node0x1d8b2c50</title>
<path fill="none" stroke="black" d="M1459,-1398.38C1459,-1373.43 1459,-1335.63 1459,-1310.05"/>
<polygon fill="black" stroke="black" points="1462.5,-1309.9 1459,-1299.9 1455.5,-1309.9 1462.5,-1309.9"/>
</g>
<!-- Node0x1d8b4de0 -->
<g id="node15" class="node"><title>Node0x1d8b4de0</title>
<polygon fill="none" stroke="black" points="443,-1060 443,-1173 1153,-1173 1153,-1060 443,-1060"/>
<text text-anchor="start" x="451" y="-1157.8" font-family="Times,serif" font-size="14.00">0x407273:</text>
<text text-anchor="start" x="451" y="-1142.8" font-family="Times,serif" font-size="14.00"> g5 = v7</text>
<text text-anchor="start" x="451" y="-1127.8" font-family="Times,serif" font-size="14.00"> v5 = a3</text>
<text text-anchor="start" x="451" y="-1112.8" font-family="Times,serif" font-size="14.00"> g10 = PtrToIntCastExpr&lt;int32&gt;(&amp;(v5))</text>
<text text-anchor="start" x="451" y="-1097.8" font-family="Times,serif" font-size="14.00"> v6 = *(IntToPtrCastExpr&lt;ptr&gt;(v7))</text>
<text text-anchor="start" x="451" y="-1082.8" font-family="Times,serif" font-size="14.00"> g2 = v6</text>
<text text-anchor="start" x="451" y="-1067.8" font-family="Times,serif" font-size="14.00"> IntToPtrCastExpr&lt;ptr&gt;(*(IntToPtrCastExpr&lt;ptr&gt;((v6 + 160))))(PtrToIntCastExpr&lt;int32&gt;(a3))</text>
</g>
<!-- Node0x1d8b2ea0&#45;&gt;Node0x1d8b4de0 -->
<g id="edge15" class="edge"><title>Node0x1d8b2ea0&#45;&gt;Node0x1d8b4de0</title>
<path fill="none" stroke="black" d="M1003.82,-1263.36C975.595,-1243.36 927.329,-1209.15 884.629,-1178.89"/>
<polygon fill="black" stroke="black" points="886.631,-1176.02 876.449,-1173.1 882.584,-1181.73 886.631,-1176.02"/>
<text text-anchor="middle" x="961" y="-1202.8" font-family="Times,serif" font-size="14.00">v7 != 0</text>
</g>
<!-- Node0x1d8b2f50 -->
<g id="node16" class="node"><title>Node0x1d8b2f50</title>
<polygon fill="none" stroke="black" points="757,-818.5 757,-916.5 1221,-916.5 1221,-818.5 757,-818.5"/>
<text text-anchor="start" x="765" y="-901.3" font-family="Times,serif" font-size="14.00">0x407284:</text>
<text text-anchor="start" x="765" y="-886.3" font-family="Times,serif" font-size="14.00"> g7 = v4</text>
<text text-anchor="start" x="765" y="-871.3" font-family="Times,serif" font-size="14.00"> g9 = v3</text>
<text text-anchor="start" x="765" y="-856.3" font-family="Times,serif" font-size="14.00"> g4 = v2</text>
<text text-anchor="start" x="765" y="-841.3" font-family="Times,serif" font-size="14.00"> g3 = v1</text>
<text text-anchor="start" x="765" y="-826.3" font-family="Times,serif" font-size="14.00"> return PtrToIntCastExpr&lt;int32&gt;(IntToPtrCastExpr&lt;ptr&gt;(1))</text>
</g>
<!-- Node0x1d8b2ea0&#45;&gt;Node0x1d8b2f50 -->
<g id="edge16" class="edge"><title>Node0x1d8b2ea0&#45;&gt;Node0x1d8b2f50</title>
<path fill="none" stroke="black" d="M1067.85,-1263.42C1099.82,-1247.32 1142.47,-1219.83 1162,-1181 1187.76,-1129.78 1183.16,-1105.29 1162,-1052 1141.79,-1001.09 1100.02,-956.119 1062.58,-923.437"/>
<polygon fill="black" stroke="black" points="1064.54,-920.504 1054.67,-916.651 1059.98,-925.818 1064.54,-920.504"/>
<text text-anchor="middle" x="1210" y="-1112.8" font-family="Times,serif" font-size="14.00">v7 == 0</text>
</g>
<!-- Node0x1d8b41a0 -->
<g id="node17" class="node"><title>Node0x1d8b41a0</title>
<polygon fill="none" stroke="black" points="1204.5,-935.5 1204.5,-1033.5 1689.5,-1033.5 1689.5,-935.5 1204.5,-935.5"/>
<text text-anchor="start" x="1212.5" y="-1018.3" font-family="Times,serif" font-size="14.00">0x407284:</text>
<text text-anchor="start" x="1212.5" y="-1003.3" font-family="Times,serif" font-size="14.00"> g7 = v4</text>
<text text-anchor="start" x="1212.5" y="-988.3" font-family="Times,serif" font-size="14.00"> g9 = v3</text>
<text text-anchor="start" x="1212.5" y="-973.3" font-family="Times,serif" font-size="14.00"> g4 = v2</text>
<text text-anchor="start" x="1212.5" y="-958.3" font-family="Times,serif" font-size="14.00"> g3 = v1</text>
<text text-anchor="start" x="1212.5" y="-943.3" font-family="Times,serif" font-size="14.00"> return PtrToIntCastExpr&lt;int32&gt;(BitCastExpr&lt;ptr&gt;(hResData))</text>
</g>
<!-- Node0x1d8b2c50&#45;&gt;Node0x1d8b41a0 -->
<g id="edge17" class="edge"><title>Node0x1d8b2c50&#45;&gt;Node0x1d8b41a0</title>
<path fill="none" stroke="black" d="M1456.44,-1263.32C1454.57,-1249.92 1452.16,-1230.82 1451,-1214 1447.03,-1156.22 1446.29,-1090.05 1446.38,-1043.84"/>
<polygon fill="black" stroke="black" points="1449.88,-1043.72 1446.42,-1033.71 1442.88,-1043.69 1449.88,-1043.72"/>
<text text-anchor="middle" x="1524" y="-1202.8" font-family="Times,serif" font-size="14.00">hResData == NULL</text>
</g>
<!-- Node0x1d8b2e40 -->
<g id="node18" class="node"><title>Node0x1d8b2e40</title>
<polygon fill="none" stroke="black" points="1540.5,-1052.5 1540.5,-1180.5 1825.5,-1180.5 1825.5,-1052.5 1540.5,-1052.5"/>
<text text-anchor="start" x="1548.5" y="-1165.3" font-family="Times,serif" font-size="14.00">0x407241:</text>
<text text-anchor="start" x="1548.5" y="-1150.3" font-family="Times,serif" font-size="14.00"> v5 = BitCastExpr&lt;ptr&gt;(hResData)</text>
<text text-anchor="start" x="1548.5" y="-1135.3" font-family="Times,serif" font-size="14.00"> v10 = LockResource(hResData)</text>
<text text-anchor="start" x="1548.5" y="-1120.3" font-family="Times,serif" font-size="14.00"> g1 = False</text>
<text text-anchor="start" x="1548.5" y="-1105.3" font-family="Times,serif" font-size="14.00"> g180 = (v10 == NULL)</text>
<text text-anchor="start" x="1548.5" y="-1090.3" font-family="Times,serif" font-size="14.00"> v11 = PtrToIntCastExpr&lt;int32&gt;(a1)</text>
<text text-anchor="start" x="1548.5" y="-1075.3" font-family="Times,serif" font-size="14.00"> g9 = v11</text>
<text text-anchor="start" x="1548.5" y="-1060.3" font-family="Times,serif" font-size="14.00"> v12 = IntToPtrCastExpr&lt;ptr&gt;(1)</text>
</g>
<!-- Node0x1d8b2c50&#45;&gt;Node0x1d8b2e40 -->
<g id="edge18" class="edge"><title>Node0x1d8b2c50&#45;&gt;Node0x1d8b2e40</title>
<path fill="none" stroke="black" d="M1508.56,-1263.38C1537.25,-1252.03 1573.09,-1235.31 1601,-1214 1610.93,-1206.42 1620.49,-1197.45 1629.35,-1188.08"/>
<polygon fill="black" stroke="black" points="1632.12,-1190.24 1636.31,-1180.5 1626.97,-1185.51 1632.12,-1190.24"/>
<text text-anchor="middle" x="1686" y="-1202.8" font-family="Times,serif" font-size="14.00">hResData != NULL</text>
</g>
<!-- Node0x1d8b4de0&#45;&gt;Node0x1d8b2f50 -->
<g id="edge19" class="edge"><title>Node0x1d8b4de0&#45;&gt;Node0x1d8b2f50</title>
<path fill="none" stroke="black" d="M841.102,-1059.76C872.292,-1019.43 914.28,-965.127 945.549,-924.69"/>
<polygon fill="black" stroke="black" points="948.504,-926.591 951.852,-916.539 942.966,-922.309 948.504,-926.591"/>
</g>
<!-- Node0x1d8b2f50&#45;&gt;Node0x1d8b22c0 -->
<g id="edge20" class="edge"><title>Node0x1d8b2f50&#45;&gt;Node0x1d8b22c0</title>
<path fill="none" stroke="black" d="M1035.43,-818.422C1065.85,-781.766 1100,-728.388 1100,-673.5 1100,-673.5 1100,-673.5 1100,-145.5 1100,-113.871 1123.3,-85.3066 1143.75,-66.3267"/>
<polygon fill="black" stroke="black" points="1146.24,-68.7936 1151.4,-59.5353 1141.6,-63.5605 1146.24,-68.7936"/>
</g>
<!-- Node0x1d8b41a0&#45;&gt;Node0x1d8b22c0 -->
<g id="edge21" class="edge"><title>Node0x1d8b41a0&#45;&gt;Node0x1d8b22c0</title>
<path fill="none" stroke="black" d="M1349.74,-935.364C1299.67,-903.093 1249,-855.196 1249,-793.5 1249,-793.5 1249,-793.5 1249,-145.5 1249,-113.921 1225.68,-85.5309 1205.04,-66.594"/>
<polygon fill="black" stroke="black" points="1207.14,-63.781 1197.32,-59.8121 1202.52,-69.0407 1207.14,-63.781"/>
</g>
<!-- Node0x1d8b2fb0 -->
<g id="node19" class="node"><title>Node0x1d8b2fb0</title>
<polygon fill="none" stroke="black" points="1633.5,-849.5 1633.5,-885.5 1776.5,-885.5 1776.5,-849.5 1633.5,-849.5"/>
<text text-anchor="start" x="1641.5" y="-863.8" font-family="Times,serif" font-size="14.00">if (v10 != NULL):</text>
</g>
<!-- Node0x1d8b2e40&#45;&gt;Node0x1d8b2fb0 -->
<g id="edge22" class="edge"><title>Node0x1d8b2e40&#45;&gt;Node0x1d8b2fb0</title>
<path fill="none" stroke="black" d="M1689.29,-1052.33C1689.88,-1046.14 1690.46,-1039.95 1691,-1034 1695.43,-985.497 1700.11,-928.952 1702.78,-896.091"/>
<polygon fill="black" stroke="black" points="1706.29,-896.151 1703.61,-885.901 1699.31,-895.586 1706.29,-896.151"/>
</g>
<!-- Node0x1d8b4550 -->
<g id="node20" class="node"><title>Node0x1d8b4550</title>
<polygon fill="none" stroke="black" points="1293,-578.5 1293,-766.5 2021,-766.5 2021,-578.5 1293,-578.5"/>
<text text-anchor="start" x="1301" y="-751.3" font-family="Times,serif" font-size="14.00">0x407264:</text>
<text text-anchor="start" x="1301" y="-736.3" font-family="Times,serif" font-size="14.00"> v5 = a3</text>
<text text-anchor="start" x="1301" y="-721.3" font-family="Times,serif" font-size="14.00"> v13 = g7</text>
<text text-anchor="start" x="1301" y="-706.3" font-family="Times,serif" font-size="14.00"> v14 = *(IntToPtrCastExpr&lt;ptr&gt;(v13))</text>
<text text-anchor="start" x="1301" y="-691.3" font-family="Times,serif" font-size="14.00"> g2 = v14</text>
<text text-anchor="start" x="1301" y="-676.3" font-family="Times,serif" font-size="14.00"> v9 = a1</text>
<text text-anchor="start" x="1301" y="-661.3" font-family="Times,serif" font-size="14.00"> g10 = PtrToIntCastExpr&lt;int32&gt;(&amp;(v9))</text>
<text text-anchor="start" x="1301" y="-646.3" font-family="Times,serif" font-size="14.00"> g5 = v13</text>
<text text-anchor="start" x="1301" y="-631.3" font-family="Times,serif" font-size="14.00"> v15 = *(IntToPtrCastExpr&lt;ptr&gt;((v14 + 32)))</text>
<text text-anchor="start" x="1301" y="-616.3" font-family="Times,serif" font-size="14.00"> IntToPtrCastExpr&lt;ptr&gt;(v15)(v11, PtrToIntCastExpr&lt;int32&gt;(v10), PtrToIntCastExpr&lt;int32&gt;(a3))</text>
<text text-anchor="start" x="1301" y="-601.3" font-family="Times,serif" font-size="14.00"> FreeResource(PtrToIntCastExpr&lt;int32&gt;(hResData))</text>
<text text-anchor="start" x="1301" y="-586.3" font-family="Times,serif" font-size="14.00"> v12 = IntToPtrCastExpr&lt;ptr&gt;(g2)</text>
</g>
<!-- Node0x1d8b2fb0&#45;&gt;Node0x1d8b4550 -->
<g id="edge23" class="edge"><title>Node0x1d8b2fb0&#45;&gt;Node0x1d8b4550</title>
<path fill="none" stroke="black" d="M1700.74,-849.373C1696.51,-832.372 1689.66,-804.828 1682.62,-776.531"/>
<polygon fill="black" stroke="black" points="1685.94,-775.366 1680.13,-766.506 1679.15,-777.056 1685.94,-775.366"/>
<text text-anchor="middle" x="1736.5" y="-788.8" font-family="Times,serif" font-size="14.00">v10 != NULL</text>
</g>
<!-- Node0x1d8b3290 -->
<g id="node21" class="node"><title>Node0x1d8b3290</title>
<polygon fill="none" stroke="black" points="1766.5,-472.5 1766.5,-540.5 2095.5,-540.5 2095.5,-472.5 1766.5,-472.5"/>
<text text-anchor="start" x="1774.5" y="-525.3" font-family="Times,serif" font-size="14.00">0x40726d:</text>
<text text-anchor="start" x="1774.5" y="-510.3" font-family="Times,serif" font-size="14.00"> v7 = *(IntToPtrCastExpr&lt;ptr&gt;((g9 + 76)))</text>
<text text-anchor="start" x="1774.5" y="-495.3" font-family="Times,serif" font-size="14.00"> g1 = False</text>
<text text-anchor="start" x="1774.5" y="-480.3" font-family="Times,serif" font-size="14.00"> g180 = (v7 == 0)</text>
</g>
<!-- Node0x1d8b2fb0&#45;&gt;Node0x1d8b3290 -->
<g id="edge24" class="edge"><title>Node0x1d8b2fb0&#45;&gt;Node0x1d8b3290</title>
<path fill="none" stroke="black" d="M1776.51,-854.708C1862.69,-838.87 1999.73,-807.918 2030,-767 2079.95,-699.466 2068.49,-652.662 2030,-578 2023.87,-566.119 2014.72,-555.8 2004.41,-546.999"/>
<polygon fill="black" stroke="black" points="2006.33,-544.056 1996.33,-540.564 2001.97,-549.532 2006.33,-544.056"/>
<text text-anchor="middle" x="2114.5" y="-668.8" font-family="Times,serif" font-size="14.00">v10 == NULL</text>
</g>
<!-- Node0x1d8b4550&#45;&gt;Node0x1d8b3290 -->
<g id="edge25" class="edge"><title>Node0x1d8b4550&#45;&gt;Node0x1d8b3290</title>
<path fill="none" stroke="black" d="M1812.41,-578.479C1831.47,-567.072 1850.04,-555.955 1866.62,-546.032"/>
<polygon fill="black" stroke="black" points="1868.83,-548.787 1875.62,-540.649 1865.24,-542.781 1868.83,-548.787"/>
</g>
<!-- Node0x14f183d0 -->
<g id="node22" class="node"><title>Node0x14f183d0</title>
<polygon fill="none" stroke="black" points="1881.5,-398.5 1881.5,-434.5 1980.5,-434.5 1980.5,-398.5 1881.5,-398.5"/>
<text text-anchor="start" x="1889.5" y="-412.8" font-family="Times,serif" font-size="14.00">if (v7 != 0):</text>
</g>
<!-- Node0x1d8b3290&#45;&gt;Node0x14f183d0 -->
<g id="edge26" class="edge"><title>Node0x1d8b3290&#45;&gt;Node0x14f183d0</title>
<path fill="none" stroke="black" d="M1931,-472.482C1931,-463.328 1931,-453.497 1931,-444.715"/>
<polygon fill="black" stroke="black" points="1934.5,-444.64 1931,-434.64 1927.5,-444.64 1934.5,-444.64"/>
</g>
<!-- Node0x1d8b4920 -->
<g id="node23" class="node"><title>Node0x1d8b4920</title>
<polygon fill="none" stroke="black" points="1277,-233.5 1277,-346.5 1987,-346.5 1987,-233.5 1277,-233.5"/>
<text text-anchor="start" x="1285" y="-331.3" font-family="Times,serif" font-size="14.00">0x407273:</text>
<text text-anchor="start" x="1285" y="-316.3" font-family="Times,serif" font-size="14.00"> g5 = v7</text>
<text text-anchor="start" x="1285" y="-301.3" font-family="Times,serif" font-size="14.00"> v5 = a3</text>
<text text-anchor="start" x="1285" y="-286.3" font-family="Times,serif" font-size="14.00"> g10 = PtrToIntCastExpr&lt;int32&gt;(&amp;(v5))</text>
<text text-anchor="start" x="1285" y="-271.3" font-family="Times,serif" font-size="14.00"> v6 = *(IntToPtrCastExpr&lt;ptr&gt;(v7))</text>
<text text-anchor="start" x="1285" y="-256.3" font-family="Times,serif" font-size="14.00"> g2 = v6</text>
<text text-anchor="start" x="1285" y="-241.3" font-family="Times,serif" font-size="14.00"> IntToPtrCastExpr&lt;ptr&gt;(*(IntToPtrCastExpr&lt;ptr&gt;((v6 + 160))))(PtrToIntCastExpr&lt;int32&gt;(a3))</text>
</g>
<!-- Node0x14f183d0&#45;&gt;Node0x1d8b4920 -->
<g id="edge27" class="edge"><title>Node0x14f183d0&#45;&gt;Node0x1d8b4920</title>
<path fill="none" stroke="black" d="M1890.05,-398.45C1859.88,-385.886 1816.91,-367.992 1774.66,-350.403"/>
<polygon fill="black" stroke="black" points="1775.96,-347.151 1765.38,-346.538 1773.27,-353.613 1775.96,-347.151"/>
<text text-anchor="middle" x="1869" y="-368.8" font-family="Times,serif" font-size="14.00">v7 != 0</text>
</g>
<!-- Node0x1d8b3440 -->
<g id="node24" class="node"><title>Node0x1d8b3440</title>
<polygon fill="none" stroke="black" points="1483.5,-97.5 1483.5,-195.5 1780.5,-195.5 1780.5,-97.5 1483.5,-97.5"/>
<text text-anchor="start" x="1491.5" y="-180.3" font-family="Times,serif" font-size="14.00">0x407284:</text>
<text text-anchor="start" x="1491.5" y="-165.3" font-family="Times,serif" font-size="14.00"> g7 = v4</text>
<text text-anchor="start" x="1491.5" y="-150.3" font-family="Times,serif" font-size="14.00"> g9 = v3</text>
<text text-anchor="start" x="1491.5" y="-135.3" font-family="Times,serif" font-size="14.00"> g4 = v2</text>
<text text-anchor="start" x="1491.5" y="-120.3" font-family="Times,serif" font-size="14.00"> g3 = v1</text>
<text text-anchor="start" x="1491.5" y="-105.3" font-family="Times,serif" font-size="14.00"> return PtrToIntCastExpr&lt;int32&gt;(v12)</text>
</g>
<!-- Node0x14f183d0&#45;&gt;Node0x1d8b3440 -->
<g id="edge28" class="edge"><title>Node0x14f183d0&#45;&gt;Node0x1d8b3440</title>
<path fill="none" stroke="black" d="M1954.68,-398.38C1969.65,-386.012 1987.68,-367.861 1996,-347 2014.77,-299.94 2027.47,-272.712 1996,-233 1969.82,-199.964 1876.54,-178.444 1790.97,-165.257"/>
<polygon fill="black" stroke="black" points="1791.26,-161.76 1780.85,-163.729 1790.21,-168.682 1791.26,-161.76"/>
<text text-anchor="middle" x="2045" y="-286.3" font-family="Times,serif" font-size="14.00">v7 == 0</text>
</g>
<!-- Node0x1d8b4920&#45;&gt;Node0x1d8b3440 -->
<g id="edge29" class="edge"><title>Node0x1d8b4920&#45;&gt;Node0x1d8b3440</title>
<path fill="none" stroke="black" d="M1632,-233.482C1632,-224.368 1632,-214.901 1632,-205.724"/>
<polygon fill="black" stroke="black" points="1635.5,-205.521 1632,-195.521 1628.5,-205.521 1635.5,-205.521"/>
</g>
<!-- Node0x1d8b3440&#45;&gt;Node0x1d8b22c0 -->
<g id="edge30" class="edge"><title>Node0x1d8b3440&#45;&gt;Node0x1d8b22c0</title>
<path fill="none" stroke="black" d="M1483.3,-112.059C1387.45,-90.5029 1270.11,-64.1139 1211.32,-50.8933"/>
<polygon fill="black" stroke="black" points="1211.91,-47.4377 1201.38,-48.6582 1210.37,-54.2671 1211.91,-47.4377"/>
</g>
</g>
</svg>
