<?xml version="1.0" encoding="UTF-8" standalone="no"?>
<!DOCTYPE svg PUBLIC "-//W3C//DTD SVG 1.1//EN"
 "http://www.w3.org/Graphics/SVG/1.1/DTD/svg11.dtd">
<!-- Generated by graphviz version 2.38.0 (20140413.2041)
 -->
<!-- Title: Control&#45;flow graph for function &#39;function_40fa82(*a1, a2)&#39;. Pages: 1 -->
<svg width="1559pt" height="1277pt"
 viewBox="0.00 0.00 1559.44 1277.00" xmlns="http://www.w3.org/2000/svg" xmlns:xlink="http://www.w3.org/1999/xlink">
<g id="graph0" class="graph" transform="scale(1 1) rotate(0) translate(4 1273)">
<title>Control&#45;flow graph for function &#39;function_40fa82(*a1, a2)&#39;.</title>
<polygon fill="white" stroke="none" points="-4,4 -4,-1273 1555.44,-1273 1555.44,4 -4,4"/>
<text text-anchor="middle" x="775.719" y="-7.8" font-family="Times,serif" font-size="14.00">Control&#45;flow graph for function &#39;function_40fa82(*a1, a2)&#39;.</text>
<!-- Node0x28790610 -->
<g id="node1" class="node"><title>Node0x28790610</title>
<polygon fill="none" stroke="black" points="392.938,-1215.5 392.938,-1268.5 451.938,-1268.5 451.938,-1215.5 392.938,-1215.5"/>
<text text-anchor="start" x="400.938" y="-1253.3" font-family="Times,serif" font-size="14.00">entry:</text>
<text text-anchor="start" x="400.938" y="-1238.3" font-family="Times,serif" font-size="14.00"> a1</text>
<text text-anchor="start" x="400.938" y="-1223.3" font-family="Times,serif" font-size="14.00"> a2</text>
</g>
<!-- Node0x287909f0 -->
<g id="node2" class="node"><title>Node0x287909f0</title>
<polygon fill="none" stroke="black" points="239.938,-944.5 239.938,-1177.5 604.938,-1177.5 604.938,-944.5 239.938,-944.5"/>
<text text-anchor="start" x="247.938" y="-1162.3" font-family="Times,serif" font-size="14.00">v1</text>
<text text-anchor="start" x="247.938" y="-1147.3" font-family="Times,serif" font-size="14.00"> g3 = &amp;(v1)</text>
<text text-anchor="start" x="247.938" y="-1132.3" font-family="Times,serif" font-size="14.00"> v2</text>
<text text-anchor="start" x="247.938" y="-1117.3" font-family="Times,serif" font-size="14.00"> v3 = &amp;(v2)</text>
<text text-anchor="start" x="247.938" y="-1102.3" font-family="Times,serif" font-size="14.00"> g2 = v3</text>
<text text-anchor="start" x="247.938" y="-1087.3" font-family="Times,serif" font-size="14.00"> v4 = g9</text>
<text text-anchor="start" x="247.938" y="-1072.3" font-family="Times,serif" font-size="14.00"> v5 = IntToPtrCastExpr&lt;ptr&gt;(g7)</text>
<text text-anchor="start" x="247.938" y="-1057.3" font-family="Times,serif" font-size="14.00"> g9 = g5</text>
<text text-anchor="start" x="247.938" y="-1042.3" font-family="Times,serif" font-size="14.00"> function_40f9a5(v5)</text>
<text text-anchor="start" x="247.938" y="-1027.3" font-family="Times,serif" font-size="14.00"> hModule = *(IntToPtrCastExpr&lt;ptr&gt;((g9 + 8)))</text>
<text text-anchor="start" x="247.938" y="-1012.3" font-family="Times,serif" font-size="14.00"> g7 = hModule</text>
<text text-anchor="start" x="247.938" y="-997.3" font-family="Times,serif" font-size="14.00"> v6 = IntToPtrCastExpr&lt;ptr&gt;(261)</text>
<text text-anchor="start" x="247.938" y="-982.3" font-family="Times,serif" font-size="14.00"> lpFilename</text>
<text text-anchor="start" x="247.938" y="-967.3" font-family="Times,serif" font-size="14.00"> g2 = &amp;(lpFilename)</text>
<text text-anchor="start" x="247.938" y="-952.3" font-family="Times,serif" font-size="14.00"> v7</text>
</g>
<!-- Node0x28790610&#45;&gt;Node0x287909f0 -->
<g id="edge1" class="edge"><title>Node0x28790610&#45;&gt;Node0x287909f0</title>
<path fill="none" stroke="black" d="M422.438,-1215.35C422.438,-1207.45 422.438,-1198.16 422.438,-1188.13"/>
<polygon fill="black" stroke="black" points="425.938,-1187.88 422.438,-1177.88 418.938,-1187.88 425.938,-1187.88"/>
</g>
<!-- Node0x28791500 -->
<g id="node3" class="node"><title>Node0x28791500</title>
<polygon fill="none" stroke="black" points="21.4383,-870.5 21.4383,-906.5 823.438,-906.5 823.438,-870.5 21.4383,-870.5"/>
<text text-anchor="start" x="29.4383" y="-884.8" font-family="Times,serif" font-size="14.00">if (GetModuleFileNameW(IntToPtrCastExpr&lt;ptr&gt;(hModule), BitCastExpr&lt;ptr&gt;(&amp;(lpFilename)), 261) == 0):</text>
</g>
<!-- Node0x287909f0&#45;&gt;Node0x28791500 -->
<g id="edge2" class="edge"><title>Node0x287909f0&#45;&gt;Node0x28791500</title>
<path fill="none" stroke="black" d="M422.438,-944.386C422.438,-934.423 422.438,-925.097 422.438,-917.06"/>
<polygon fill="black" stroke="black" points="425.938,-916.96 422.438,-906.96 418.938,-916.96 425.938,-916.96"/>
</g>
<!-- Node0x28792a70 -->
<g id="node4" class="node"><title>Node0x28792a70</title>
<polygon fill="none" stroke="black" points="15.9383,-453.5 15.9383,-566.5 292.938,-566.5 292.938,-453.5 15.9383,-453.5"/>
<text text-anchor="start" x="23.9383" y="-551.3" font-family="Times,serif" font-size="14.00">0x40fb58:</text>
<text text-anchor="start" x="23.9383" y="-536.3" font-family="Times,serif" font-size="14.00"> g7 = PtrToIntCastExpr&lt;int32&gt;(v6)</text>
<text text-anchor="start" x="23.9383" y="-521.3" font-family="Times,serif" font-size="14.00"> g5 = (g3 ^ v3)</text>
<text text-anchor="start" x="23.9383" y="-506.3" font-family="Times,serif" font-size="14.00"> g9 = PtrToIntCastExpr&lt;int32&gt;(v5)</text>
<text text-anchor="start" x="23.9383" y="-491.3" font-family="Times,serif" font-size="14.00"> function_4201ce(&amp;(v4))</text>
<text text-anchor="start" x="23.9383" y="-476.3" font-family="Times,serif" font-size="14.00"> g3 = v7</text>
<text text-anchor="start" x="23.9383" y="-461.3" font-family="Times,serif" font-size="14.00"> return 0</text>
</g>
<!-- Node0x28791500&#45;&gt;Node0x28792a70 -->
<g id="edge3" class="edge"><title>Node0x28791500&#45;&gt;Node0x28792a70</title>
<path fill="none" stroke="black" d="M97.576,-870.453C62.2752,-865.716 36.4566,-859.681 29.4383,-852 -42.5826,-773.18 35.3611,-649.439 96.3924,-574.688"/>
<polygon fill="black" stroke="black" points="99.31,-576.652 102.988,-566.716 93.9168,-572.189 99.31,-576.652"/>
<text text-anchor="middle" x="407.938" y="-840.8" font-family="Times,serif" font-size="14.00">GetModuleFileNameW(IntToPtrCastExpr&lt;ptr&gt;(hModule), BitCastExpr&lt;ptr&gt;(&amp;(lpFilename)), 261) == 0</text>
</g>
<!-- Node0x28791da0 -->
<g id="node5" class="node"><title>Node0x28791da0</title>
<polygon fill="none" stroke="black" points="637.438,-585.5 637.438,-818.5 971.438,-818.5 971.438,-585.5 637.438,-585.5"/>
<text text-anchor="start" x="645.438" y="-803.3" font-family="Times,serif" font-size="14.00">0x40fad1:</text>
<text text-anchor="start" x="645.438" y="-788.3" font-family="Times,serif" font-size="14.00"> v8</text>
<text text-anchor="start" x="645.438" y="-773.3" font-family="Times,serif" font-size="14.00"> v9 = &amp;(v8)</text>
<text text-anchor="start" x="645.438" y="-758.3" font-family="Times,serif" font-size="14.00"> g2 = v9</text>
<text text-anchor="start" x="645.438" y="-743.3" font-family="Times,serif" font-size="14.00"> v6 = &amp;(v8)</text>
<text text-anchor="start" x="645.438" y="-728.3" font-family="Times,serif" font-size="14.00"> g10 = PtrToIntCastExpr&lt;int32&gt;(&amp;(v6))</text>
<text text-anchor="start" x="645.438" y="-713.3" font-family="Times,serif" font-size="14.00"> v8 = 32</text>
<text text-anchor="start" x="645.438" y="-698.3" font-family="Times,serif" font-size="14.00"> function_40fa13()</text>
<text text-anchor="start" x="645.438" y="-683.3" font-family="Times,serif" font-size="14.00"> *(IntToPtrCastExpr&lt;ptr&gt;((g9 + 128))) = &#45;1</text>
<text text-anchor="start" x="645.438" y="-668.3" font-family="Times,serif" font-size="14.00"> g2 = v9</text>
<text text-anchor="start" x="645.438" y="-653.3" font-family="Times,serif" font-size="14.00"> v10</text>
<text text-anchor="start" x="645.438" y="-638.3" font-family="Times,serif" font-size="14.00"> v11 = PtrToIntCastExpr&lt;int32&gt;(&amp;(v10))</text>
<text text-anchor="start" x="645.438" y="-623.3" font-family="Times,serif" font-size="14.00"> g10 = v11</text>
<text text-anchor="start" x="645.438" y="-608.3" font-family="Times,serif" font-size="14.00"> function_40fa13()</text>
<text text-anchor="start" x="645.438" y="-593.3" font-family="Times,serif" font-size="14.00"> *(IntToPtrCastExpr&lt;ptr&gt;((g9 + 128))) = &#45;1</text>
</g>
<!-- Node0x28791500&#45;&gt;Node0x28791da0 -->
<g id="edge4" class="edge"><title>Node0x28791500&#45;&gt;Node0x28791da0</title>
<path fill="none" stroke="black" d="M715.597,-870.468C754.02,-865.671 782.846,-859.612 790.438,-852 797.384,-845.037 802.581,-836.876 806.396,-828.023"/>
<polygon fill="black" stroke="black" points="809.707,-829.161 809.886,-818.568 803.14,-826.737 809.707,-829.161"/>
<text text-anchor="middle" x="1175.94" y="-840.8" font-family="Times,serif" font-size="14.00">GetModuleFileNameW(IntToPtrCastExpr&lt;ptr&gt;(hModule), BitCastExpr&lt;ptr&gt;(&amp;(lpFilename)), 261) != 0</text>
</g>
<!-- Node0x28790990 -->
<g id="node6" class="node"><title>Node0x28790990</title>
<polygon fill="none" stroke="black" points="199.438,-23.5 199.438,-59.5 253.438,-59.5 253.438,-23.5 199.438,-23.5"/>
<text text-anchor="start" x="207.438" y="-37.8" font-family="Times,serif" font-size="14.00">exit:</text>
</g>
<!-- Node0x28792a70&#45;&gt;Node0x28790990 -->
<g id="edge5" class="edge"><title>Node0x28792a70&#45;&gt;Node0x28790990</title>
<path fill="none" stroke="black" d="M163.38,-453.446C166.593,-428.996 169.438,-399.89 169.438,-373.5 169.438,-373.5 169.438,-373.5 169.438,-153 169.438,-120.985 188.57,-88.9774 204.665,-67.7138"/>
<polygon fill="black" stroke="black" points="207.429,-69.862 210.863,-59.8391 201.928,-65.5329 207.429,-69.862"/>
</g>
<!-- Node0x28792380 -->
<g id="node7" class="node"><title>Node0x28792380</title>
<polygon fill="none" stroke="black" points="526.938,-398.5 526.938,-434.5 897.938,-434.5 897.938,-398.5 526.938,-398.5"/>
<text text-anchor="start" x="534.938" y="-412.8" font-family="Times,serif" font-size="14.00">if (*(IntToPtrCastExpr&lt;ptr&gt;((g9 + 128))) == &#45;1):</text>
</g>
<!-- Node0x28791da0&#45;&gt;Node0x28792380 -->
<g id="edge6" class="edge"><title>Node0x28791da0&#45;&gt;Node0x28792380</title>
<path fill="none" stroke="black" d="M766.886,-585.281C750.028,-533.334 731.604,-476.558 721.091,-444.164"/>
<polygon fill="black" stroke="black" points="724.384,-442.971 717.968,-434.54 717.726,-445.132 724.384,-442.971"/>
</g>
<!-- Node0x28792d50 -->
<g id="node8" class="node"><title>Node0x28792d50</title>
<polygon fill="none" stroke="black" points="205.438,-248.5 205.438,-346.5 539.438,-346.5 539.438,-248.5 205.438,-248.5"/>
<text text-anchor="start" x="213.438" y="-331.3" font-family="Times,serif" font-size="14.00">0x40fb36:</text>
<text text-anchor="start" x="213.438" y="-316.3" font-family="Times,serif" font-size="14.00"> g2 = v9</text>
<text text-anchor="start" x="213.438" y="-301.3" font-family="Times,serif" font-size="14.00"> g10 = v11</text>
<text text-anchor="start" x="213.438" y="-286.3" font-family="Times,serif" font-size="14.00"> function_40fa13()</text>
<text text-anchor="start" x="213.438" y="-271.3" font-family="Times,serif" font-size="14.00"> *(IntToPtrCastExpr&lt;ptr&gt;((g9 + 128))) = &#45;1</text>
<text text-anchor="start" x="213.438" y="-256.3" font-family="Times,serif" font-size="14.00"> *(IntToPtrCastExpr&lt;ptr&gt;((g9 + 128))) = 0</text>
</g>
<!-- Node0x28792380&#45;&gt;Node0x28792d50 -->
<g id="edge7" class="edge"><title>Node0x28792380&#45;&gt;Node0x28792d50</title>
<path fill="none" stroke="black" d="M526.684,-406.424C453.872,-400.938 384.852,-392.516 373.438,-380 367.545,-373.537 364.439,-365.444 363.118,-356.884"/>
<polygon fill="black" stroke="black" points="366.59,-356.391 362.328,-346.691 359.611,-356.932 366.59,-356.391"/>
<text text-anchor="middle" x="535.938" y="-368.8" font-family="Times,serif" font-size="14.00">*(IntToPtrCastExpr&lt;ptr&gt;((g9 + 128))) == &#45;1</text>
</g>
<!-- Node0x28792860 -->
<g id="node9" class="node"><title>Node0x28792860</title>
<polygon fill="none" stroke="black" points="233.938,-97.5 233.938,-210.5 510.938,-210.5 510.938,-97.5 233.938,-97.5"/>
<text text-anchor="start" x="241.938" y="-195.3" font-family="Times,serif" font-size="14.00">0x40fb58:</text>
<text text-anchor="start" x="241.938" y="-180.3" font-family="Times,serif" font-size="14.00"> g7 = PtrToIntCastExpr&lt;int32&gt;(v6)</text>
<text text-anchor="start" x="241.938" y="-165.3" font-family="Times,serif" font-size="14.00"> g5 = (g3 ^ v3)</text>
<text text-anchor="start" x="241.938" y="-150.3" font-family="Times,serif" font-size="14.00"> g9 = PtrToIntCastExpr&lt;int32&gt;(v5)</text>
<text text-anchor="start" x="241.938" y="-135.3" font-family="Times,serif" font-size="14.00"> function_4201ce(&amp;(v4))</text>
<text text-anchor="start" x="241.938" y="-120.3" font-family="Times,serif" font-size="14.00"> g3 = v7</text>
<text text-anchor="start" x="241.938" y="-105.3" font-family="Times,serif" font-size="14.00"> return &#45;1</text>
</g>
<!-- Node0x28792380&#45;&gt;Node0x28792860 -->
<g id="edge8" class="edge"><title>Node0x28792380&#45;&gt;Node0x28792860</title>
<path fill="none" stroke="black" d="M710.465,-398.46C708.627,-388.098 705.114,-374.983 698.438,-365 654.565,-299.39 582.507,-249.831 517.279,-215.382"/>
<polygon fill="black" stroke="black" points="518.611,-212.13 508.124,-210.621 515.382,-218.34 518.611,-212.13"/>
<text text-anchor="middle" x="844.938" y="-293.8" font-family="Times,serif" font-size="14.00">*(IntToPtrCastExpr&lt;ptr&gt;((g9 + 128))) != &#45;1</text>
</g>
<!-- Node0x28792d50&#45;&gt;Node0x28792860 -->
<g id="edge9" class="edge"><title>Node0x28792d50&#45;&gt;Node0x28792860</title>
<path fill="none" stroke="black" d="M372.438,-248.199C372.438,-239.474 372.438,-230.24 372.438,-221.11"/>
<polygon fill="black" stroke="black" points="375.938,-220.878 372.438,-210.879 368.938,-220.879 375.938,-220.878"/>
</g>
<!-- Node0x28792860&#45;&gt;Node0x28790990 -->
<g id="edge10" class="edge"><title>Node0x28792860&#45;&gt;Node0x28790990</title>
<path fill="none" stroke="black" d="M299.011,-97.4263C284.241,-86.2476 269.494,-75.0866 257.189,-65.7739"/>
<polygon fill="black" stroke="black" points="259.177,-62.8885 249.091,-59.6444 254.952,-68.4701 259.177,-62.8885"/>
</g>
</g>
</svg>
