<?xml version="1.0" encoding="UTF-8" standalone="no"?>
<!DOCTYPE svg PUBLIC "-//W3C//DTD SVG 1.1//EN"
 "http://www.w3.org/Graphics/SVG/1.1/DTD/svg11.dtd">
<!-- Generated by graphviz version 2.38.0 (20140413.2041)
 -->
<!-- Title: Control&#45;flow graph for function &#39;function_40fa32()&#39;. Pages: 1 -->
<svg width="391pt" height="518pt"
 viewBox="0.00 0.00 391.00 518.00" xmlns="http://www.w3.org/2000/svg" xmlns:xlink="http://www.w3.org/1999/xlink">
<g id="graph0" class="graph" transform="scale(1 1) rotate(0) translate(4 514)">
<title>Control&#45;flow graph for function &#39;function_40fa32()&#39;.</title>
<polygon fill="white" stroke="none" points="-4,4 -4,-514 387,-514 387,4 -4,4"/>
<text text-anchor="middle" x="191.5" y="-7.8" font-family="Times,serif" font-size="14.00">Control&#45;flow graph for function &#39;function_40fa32()&#39;.</text>
<!-- Node0x2878e470 -->
<g id="node1" class="node"><title>Node0x2878e470</title>
<polygon fill="none" stroke="black" points="239.75,-473.5 239.75,-509.5 298.75,-509.5 298.75,-473.5 239.75,-473.5"/>
<text text-anchor="start" x="247.75" y="-487.8" font-family="Times,serif" font-size="14.00">entry:</text>
</g>
<!-- Node0x2878e930 -->
<g id="node2" class="node"><title>Node0x2878e930</title>
<polygon fill="none" stroke="black" points="195.25,-367.5 195.25,-435.5 343.25,-435.5 343.25,-367.5 195.25,-367.5"/>
<text text-anchor="start" x="203.25" y="-420.3" font-family="Times,serif" font-size="14.00">v1 = g115</text>
<text text-anchor="start" x="203.25" y="-405.3" font-family="Times,serif" font-size="14.00"> g2 = v1</text>
<text text-anchor="start" x="203.25" y="-390.3" font-family="Times,serif" font-size="14.00"> g1 = False</text>
<text text-anchor="start" x="203.25" y="-375.3" font-family="Times,serif" font-size="14.00"> g180 = (v1 == 0)</text>
</g>
<!-- Node0x2878e470&#45;&gt;Node0x2878e930 -->
<g id="edge1" class="edge"><title>Node0x2878e470&#45;&gt;Node0x2878e930</title>
<path fill="none" stroke="black" d="M269.25,-473.114C269.25,-465.158 269.25,-455.343 269.25,-445.588"/>
<polygon fill="black" stroke="black" points="272.75,-445.524 269.25,-435.524 265.75,-445.524 272.75,-445.524"/>
</g>
<!-- Node0x2878ecc0 -->
<g id="node3" class="node"><title>Node0x2878ecc0</title>
<polygon fill="none" stroke="black" points="219.75,-293.5 219.75,-329.5 318.75,-329.5 318.75,-293.5 219.75,-293.5"/>
<text text-anchor="start" x="227.75" y="-307.8" font-family="Times,serif" font-size="14.00">if (v1 != 0):</text>
</g>
<!-- Node0x2878e930&#45;&gt;Node0x2878ecc0 -->
<g id="edge2" class="edge"><title>Node0x2878e930&#45;&gt;Node0x2878ecc0</title>
<path fill="none" stroke="black" d="M269.25,-367.482C269.25,-358.328 269.25,-348.497 269.25,-339.715"/>
<polygon fill="black" stroke="black" points="272.75,-339.64 269.25,-329.64 265.75,-339.64 272.75,-339.64"/>
</g>
<!-- Node0x2878ef30 -->
<g id="node4" class="node"><title>Node0x2878ef30</title>
<polygon fill="none" stroke="black" points="38.75,-203.5 38.75,-241.5 271.75,-241.5 271.75,-203.5 38.75,-203.5"/>
<text text-anchor="start" x="46.75" y="-226.3" font-family="Times,serif" font-size="14.00">0x40fa3b:</text>
<text text-anchor="start" x="46.75" y="-211.3" font-family="Times,serif" font-size="14.00"> IntToPtrCastExpr&lt;ptr&gt;(v1)()</text>
</g>
<!-- Node0x2878ecc0&#45;&gt;Node0x2878ef30 -->
<g id="edge3" class="edge"><title>Node0x2878ecc0&#45;&gt;Node0x2878ef30</title>
<path fill="none" stroke="black" d="M246.727,-293.312C229.657,-280.284 205.978,-262.214 186.989,-247.722"/>
<polygon fill="black" stroke="black" points="188.976,-244.836 178.903,-241.551 184.729,-250.4 188.976,-244.836"/>
<text text-anchor="middle" x="250.25" y="-263.8" font-family="Times,serif" font-size="14.00">v1 != 0</text>
</g>
<!-- Node0x2878eed0 -->
<g id="node5" class="node"><title>Node0x2878eed0</title>
<polygon fill="none" stroke="black" points="207.75,-97.5 207.75,-165.5 318.75,-165.5 318.75,-97.5 207.75,-97.5"/>
<text text-anchor="start" x="215.75" y="-150.3" font-family="Times,serif" font-size="14.00">0x40fa3d:</text>
<text text-anchor="start" x="215.75" y="-135.3" font-family="Times,serif" font-size="14.00"> g1 = False</text>
<text text-anchor="start" x="215.75" y="-120.3" font-family="Times,serif" font-size="14.00"> g180 = True</text>
<text text-anchor="start" x="215.75" y="-105.3" font-family="Times,serif" font-size="14.00"> return 0</text>
</g>
<!-- Node0x2878ecc0&#45;&gt;Node0x2878eed0 -->
<g id="edge4" class="edge"><title>Node0x2878ecc0&#45;&gt;Node0x2878eed0</title>
<path fill="none" stroke="black" d="M276.266,-293.454C278.296,-287.696 280.237,-281.163 281.25,-275 283.161,-263.381 286.061,-248.484 280.25,-203 279.102,-194.017 277.257,-184.516 275.198,-175.498"/>
<polygon fill="black" stroke="black" points="278.552,-174.476 272.807,-165.574 271.746,-176.115 278.552,-174.476"/>
<text text-anchor="middle" x="314.25" y="-218.8" font-family="Times,serif" font-size="14.00">v1 == 0</text>
</g>
<!-- Node0x2878ef30&#45;&gt;Node0x2878eed0 -->
<g id="edge5" class="edge"><title>Node0x2878ef30&#45;&gt;Node0x2878eed0</title>
<path fill="none" stroke="black" d="M177.105,-203.49C188.132,-194.403 201.969,-183 215.307,-172.008"/>
<polygon fill="black" stroke="black" points="217.587,-174.665 223.078,-165.605 213.135,-169.263 217.587,-174.665"/>
</g>
<!-- Node0x1a7e80a0 -->
<g id="node6" class="node"><title>Node0x1a7e80a0</title>
<polygon fill="none" stroke="black" points="236.25,-23.5 236.25,-59.5 290.25,-59.5 290.25,-23.5 236.25,-23.5"/>
<text text-anchor="start" x="244.25" y="-37.8" font-family="Times,serif" font-size="14.00">exit:</text>
</g>
<!-- Node0x2878eed0&#45;&gt;Node0x1a7e80a0 -->
<g id="edge6" class="edge"><title>Node0x2878eed0&#45;&gt;Node0x1a7e80a0</title>
<path fill="none" stroke="black" d="M263.25,-97.4817C263.25,-88.3281 263.25,-78.4972 263.25,-69.7155"/>
<polygon fill="black" stroke="black" points="266.75,-69.6402 263.25,-59.6402 259.75,-69.6403 266.75,-69.6402"/>
</g>
</g>
</svg>
