<?xml version="1.0" encoding="UTF-8" standalone="no"?>
<!DOCTYPE svg PUBLIC "-//W3C//DTD SVG 1.1//EN"
 "http://www.w3.org/Graphics/SVG/1.1/DTD/svg11.dtd">
<!-- Generated by graphviz version 2.38.0 (20140413.2041)
 -->
<!-- Title: Control&#45;flow graph for function &#39;function_40de5e(*a1, a2)&#39;. Pages: 1 -->
<svg width="647pt" height="700pt"
 viewBox="0.00 0.00 647.00 700.00" xmlns="http://www.w3.org/2000/svg" xmlns:xlink="http://www.w3.org/1999/xlink">
<g id="graph0" class="graph" transform="scale(1 1) rotate(0) translate(4 696)">
<title>Control&#45;flow graph for function &#39;function_40de5e(*a1, a2)&#39;.</title>
<polygon fill="white" stroke="none" points="-4,4 -4,-696 643,-696 643,4 -4,4"/>
<text text-anchor="middle" x="319.5" y="-7.8" font-family="Times,serif" font-size="14.00">Control&#45;flow graph for function &#39;function_40de5e(*a1, a2)&#39;.</text>
<!-- Node0x57916b20 -->
<g id="node1" class="node"><title>Node0x57916b20</title>
<polygon fill="none" stroke="black" points="373.5,-638.5 373.5,-691.5 432.5,-691.5 432.5,-638.5 373.5,-638.5"/>
<text text-anchor="start" x="381.5" y="-676.3" font-family="Times,serif" font-size="14.00">entry:</text>
<text text-anchor="start" x="381.5" y="-661.3" font-family="Times,serif" font-size="14.00"> a1</text>
<text text-anchor="start" x="381.5" y="-646.3" font-family="Times,serif" font-size="14.00"> a2</text>
</g>
<!-- Node0x21ab5b60 -->
<g id="node2" class="node"><title>Node0x21ab5b60</title>
<polygon fill="none" stroke="black" points="265,-472.5 265,-600.5 541,-600.5 541,-472.5 265,-472.5"/>
<text text-anchor="start" x="273" y="-585.3" font-family="Times,serif" font-size="14.00">v1</text>
<text text-anchor="start" x="273" y="-570.3" font-family="Times,serif" font-size="14.00"> g10 = &amp;(v1)</text>
<text text-anchor="start" x="273" y="-555.3" font-family="Times,serif" font-size="14.00"> g9 = g5</text>
<text text-anchor="start" x="273" y="-540.3" font-family="Times,serif" font-size="14.00"> v2 = PtrToIntCastExpr&lt;int32&gt;(a1)</text>
<text text-anchor="start" x="273" y="-525.3" font-family="Times,serif" font-size="14.00"> g5 = v2</text>
<text text-anchor="start" x="273" y="-510.3" font-family="Times,serif" font-size="14.00"> g1 = False</text>
<text text-anchor="start" x="273" y="-495.3" font-family="Times,serif" font-size="14.00"> g180 = (a1 == NULL)</text>
<text text-anchor="start" x="273" y="-480.3" font-family="Times,serif" font-size="14.00"> v3</text>
</g>
<!-- Node0x57916b20&#45;&gt;Node0x21ab5b60 -->
<g id="edge1" class="edge"><title>Node0x57916b20&#45;&gt;Node0x21ab5b60</title>
<path fill="none" stroke="black" d="M403,-638.401C403,-630.256 403,-620.802 403,-611.011"/>
<polygon fill="black" stroke="black" points="406.5,-610.727 403,-600.727 399.5,-610.727 406.5,-610.727"/>
</g>
<!-- Node0x21abb910 -->
<g id="node3" class="node"><title>Node0x21abb910</title>
<polygon fill="none" stroke="black" points="333,-398.5 333,-434.5 473,-434.5 473,-398.5 333,-398.5"/>
<text text-anchor="start" x="341" y="-412.8" font-family="Times,serif" font-size="14.00">if (a1 == NULL):</text>
</g>
<!-- Node0x21ab5b60&#45;&gt;Node0x21abb910 -->
<g id="edge2" class="edge"><title>Node0x21ab5b60&#45;&gt;Node0x21abb910</title>
<path fill="none" stroke="black" d="M403,-472.355C403,-462.753 403,-453.299 403,-445.016"/>
<polygon fill="black" stroke="black" points="406.5,-444.887 403,-434.888 399.5,-444.888 406.5,-444.887"/>
</g>
<!-- Node0x21abd140 -->
<g id="node4" class="node"><title>Node0x21abd140</title>
<polygon fill="none" stroke="black" points="0,-278.5 0,-346.5 430,-346.5 430,-278.5 0,-278.5"/>
<text text-anchor="start" x="8" y="-331.3" font-family="Times,serif" font-size="14.00">0x40de69:</text>
<text text-anchor="start" x="8" y="-316.3" font-family="Times,serif" font-size="14.00"> v3 = IntToPtrCastExpr&lt;ptr&gt;(&#45;2147467259)</text>
<text text-anchor="start" x="8" y="-301.3" font-family="Times,serif" font-size="14.00"> function_4032a0(IntToPtrCastExpr&lt;ptr&gt;(&#45;2147467259))</text>
<text text-anchor="start" x="8" y="-286.3" font-family="Times,serif" font-size="14.00"> v2 = g5</text>
</g>
<!-- Node0x21abb910&#45;&gt;Node0x21abd140 -->
<g id="edge3" class="edge"><title>Node0x21abb910&#45;&gt;Node0x21abd140</title>
<path fill="none" stroke="black" d="M371.533,-398.427C347.945,-385.63 314.743,-367.616 284.984,-351.47"/>
<polygon fill="black" stroke="black" points="286.332,-348.219 275.873,-346.527 282.993,-354.372 286.332,-348.219"/>
<text text-anchor="middle" x="384" y="-368.8" font-family="Times,serif" font-size="14.00">a1 == NULL</text>
</g>
<!-- Node0x21abbb20 -->
<g id="node5" class="node"><title>Node0x21abbb20</title>
<polygon fill="none" stroke="black" points="155,-97.5 155,-240.5 639,-240.5 639,-97.5 155,-97.5"/>
<text text-anchor="start" x="163" y="-225.3" font-family="Times,serif" font-size="14.00">v4 = *(IntToPtrCastExpr&lt;ptr&gt;(v2))</text>
<text text-anchor="start" x="163" y="-210.3" font-family="Times,serif" font-size="14.00"> g2 = v4</text>
<text text-anchor="start" x="163" y="-195.3" font-family="Times,serif" font-size="14.00"> IntToPtrCastExpr&lt;ptr&gt;(*(IntToPtrCastExpr&lt;ptr&gt;((v4 + 12))))()</text>
<text text-anchor="start" x="163" y="-180.3" font-family="Times,serif" font-size="14.00"> v5 = (g2 + 16)</text>
<text text-anchor="start" x="163" y="-165.3" font-family="Times,serif" font-size="14.00"> g2 = v5</text>
<text text-anchor="start" x="163" y="-150.3" font-family="Times,serif" font-size="14.00"> *(IntToPtrCastExpr&lt;ptr&gt;(g9)) = v5</text>
<text text-anchor="start" x="163" y="-135.3" font-family="Times,serif" font-size="14.00"> result = g9</text>
<text text-anchor="start" x="163" y="-120.3" font-family="Times,serif" font-size="14.00"> g9 = ExtCastExpr&lt;int32&gt;(*(v3))</text>
<text text-anchor="start" x="163" y="-105.3" font-family="Times,serif" font-size="14.00"> return result</text>
</g>
<!-- Node0x21abb910&#45;&gt;Node0x21abbb20 -->
<g id="edge4" class="edge"><title>Node0x21abb910&#45;&gt;Node0x21abbb20</title>
<path fill="none" stroke="black" d="M422.348,-398.287C427.249,-392.918 431.975,-386.646 435,-380 444.446,-359.246 439.876,-282.671 439,-278 437.279,-268.828 434.803,-259.434 431.902,-250.199"/>
<polygon fill="black" stroke="black" points="435.206,-249.042 428.739,-240.65 428.561,-251.243 435.206,-249.042"/>
<text text-anchor="middle" x="484" y="-308.8" font-family="Times,serif" font-size="14.00">a1 != NULL</text>
</g>
<!-- Node0x21abd140&#45;&gt;Node0x21abbb20 -->
<g id="edge5" class="edge"><title>Node0x21abd140&#45;&gt;Node0x21abbb20</title>
<path fill="none" stroke="black" d="M257.671,-278.325C269.993,-268.744 283.981,-257.869 298.225,-246.795"/>
<polygon fill="black" stroke="black" points="300.409,-249.53 306.155,-240.629 296.112,-244.004 300.409,-249.53"/>
</g>
<!-- Node0x21ab5ae0 -->
<g id="node6" class="node"><title>Node0x21ab5ae0</title>
<polygon fill="none" stroke="black" points="370,-23.5 370,-59.5 424,-59.5 424,-23.5 370,-23.5"/>
<text text-anchor="start" x="378" y="-37.8" font-family="Times,serif" font-size="14.00">exit:</text>
</g>
<!-- Node0x21abbb20&#45;&gt;Node0x21ab5ae0 -->
<g id="edge6" class="edge"><title>Node0x21abbb20&#45;&gt;Node0x21ab5ae0</title>
<path fill="none" stroke="black" d="M397,-97.181C397,-87.439 397,-77.9608 397,-69.7068"/>
<polygon fill="black" stroke="black" points="400.5,-69.642 397,-59.642 393.5,-69.6421 400.5,-69.642"/>
</g>
</g>
</svg>
