<?xml version="1.0" encoding="UTF-8" standalone="no"?>
<!DOCTYPE svg PUBLIC "-//W3C//DTD SVG 1.1//EN"
 "http://www.w3.org/Graphics/SVG/1.1/DTD/svg11.dtd">
<!-- Generated by graphviz version 2.38.0 (20140413.2041)
 -->
<!-- Title: Control&#45;flow graph for function &#39;function_41340b()&#39;. Pages: 1 -->
<svg width="1489pt" height="3388pt"
 viewBox="0.00 0.00 1489.00 3388.00" xmlns="http://www.w3.org/2000/svg" xmlns:xlink="http://www.w3.org/1999/xlink">
<g id="graph0" class="graph" transform="scale(1 1) rotate(0) translate(4 3384)">
<title>Control&#45;flow graph for function &#39;function_41340b()&#39;.</title>
<polygon fill="white" stroke="none" points="-4,4 -4,-3384 1485,-3384 1485,4 -4,4"/>
<text text-anchor="middle" x="740.5" y="-7.8" font-family="Times,serif" font-size="14.00">Control&#45;flow graph for function &#39;function_41340b()&#39;.</text>
<!-- Node0x5f3735d0 -->
<g id="node1" class="node"><title>Node0x5f3735d0</title>
<polygon fill="none" stroke="black" points="159.5,-3343.5 159.5,-3379.5 218.5,-3379.5 218.5,-3343.5 159.5,-3343.5"/>
<text text-anchor="start" x="167.5" y="-3357.8" font-family="Times,serif" font-size="14.00">entry:</text>
</g>
<!-- Node0x5f374c80 -->
<g id="node2" class="node"><title>Node0x5f374c80</title>
<polygon fill="none" stroke="black" points="28.5,-3072.5 28.5,-3305.5 349.5,-3305.5 349.5,-3072.5 28.5,-3072.5"/>
<text text-anchor="start" x="36.5" y="-3290.3" font-family="Times,serif" font-size="14.00">v1</text>
<text text-anchor="start" x="36.5" y="-3275.3" font-family="Times,serif" font-size="14.00"> g10 = PtrToIntCastExpr&lt;int32&gt;(&amp;(v1))</text>
<text text-anchor="start" x="36.5" y="-3260.3" font-family="Times,serif" font-size="14.00"> __EH_prolog3_catch()</text>
<text text-anchor="start" x="36.5" y="-3245.3" font-family="Times,serif" font-size="14.00"> v2 = g5</text>
<text text-anchor="start" x="36.5" y="-3230.3" font-family="Times,serif" font-size="14.00"> g7 = v2</text>
<text text-anchor="start" x="36.5" y="-3215.3" font-family="Times,serif" font-size="14.00"> *(IntToPtrCastExpr&lt;ptr&gt;((g3 &#45; 20))) = v2</text>
<text text-anchor="start" x="36.5" y="-3200.3" font-family="Times,serif" font-size="14.00"> v3 = g7</text>
<text text-anchor="start" x="36.5" y="-3185.3" font-family="Times,serif" font-size="14.00"> v4 = (v3 + 76)</text>
<text text-anchor="start" x="36.5" y="-3170.3" font-family="Times,serif" font-size="14.00"> g9 = v4</text>
<text text-anchor="start" x="36.5" y="-3155.3" font-family="Times,serif" font-size="14.00"> g4 = 0</text>
<text text-anchor="start" x="36.5" y="-3140.3" font-family="Times,serif" font-size="14.00"> v5 = *(IntToPtrCastExpr&lt;ptr&gt;(v4))</text>
<text text-anchor="start" x="36.5" y="-3125.3" font-family="Times,serif" font-size="14.00"> g1 = False</text>
<text text-anchor="start" x="36.5" y="-3110.3" font-family="Times,serif" font-size="14.00"> g180 = (v5 == 0)</text>
<text text-anchor="start" x="36.5" y="-3095.3" font-family="Times,serif" font-size="14.00"> v6 = 0</text>
<text text-anchor="start" x="36.5" y="-3080.3" font-family="Times,serif" font-size="14.00"> hWnd</text>
</g>
<!-- Node0x5f3735d0&#45;&gt;Node0x5f374c80 -->
<g id="edge1" class="edge"><title>Node0x5f3735d0&#45;&gt;Node0x5f374c80</title>
<path fill="none" stroke="black" d="M189,-3343.21C189,-3335.69 189,-3326.17 189,-3315.57"/>
<polygon fill="black" stroke="black" points="192.5,-3315.56 189,-3305.56 185.5,-3315.56 192.5,-3315.56"/>
</g>
<!-- Node0x5f374170 -->
<g id="node3" class="node"><title>Node0x5f374170</title>
<polygon fill="none" stroke="black" points="136.5,-2998.5 136.5,-3034.5 241.5,-3034.5 241.5,-2998.5 136.5,-2998.5"/>
<text text-anchor="start" x="144.5" y="-3012.8" font-family="Times,serif" font-size="14.00">if (v5 == 0):</text>
</g>
<!-- Node0x5f374c80&#45;&gt;Node0x5f374170 -->
<g id="edge2" class="edge"><title>Node0x5f374c80&#45;&gt;Node0x5f374170</title>
<path fill="none" stroke="black" d="M189,-3072.39C189,-3062.42 189,-3053.1 189,-3045.06"/>
<polygon fill="black" stroke="black" points="192.5,-3044.96 189,-3034.96 185.5,-3044.96 192.5,-3044.96"/>
</g>
<!-- Node0x5f371d10 -->
<g id="node4" class="node"><title>Node0x5f371d10</title>
<polygon fill="none" stroke="black" points="116,-2848.5 116,-2946.5 808,-2946.5 808,-2848.5 116,-2848.5"/>
<text text-anchor="start" x="124" y="-2931.3" font-family="Times,serif" font-size="14.00">v7 = *(IntToPtrCastExpr&lt;ptr&gt;(v3))</text>
<text text-anchor="start" x="124" y="-2916.3" font-family="Times,serif" font-size="14.00"> v8 = IntToPtrCastExpr&lt;ptr&gt;(v4)</text>
<text text-anchor="start" x="124" y="-2901.3" font-family="Times,serif" font-size="14.00"> v9 = v8</text>
<text text-anchor="start" x="124" y="-2886.3" font-family="Times,serif" font-size="14.00"> g10 = PtrToIntCastExpr&lt;int32&gt;(&amp;(v9))</text>
<text text-anchor="start" x="124" y="-2871.3" font-family="Times,serif" font-size="14.00"> IntToPtrCastExpr&lt;ptr&gt;(*(IntToPtrCastExpr&lt;ptr&gt;((v7 + 292))))(ExtCastExpr&lt;int32&gt;(*(v8)))</text>
<text text-anchor="start" x="124" y="-2856.3" font-family="Times,serif" font-size="14.00"> v10 = g4</text>
</g>
<!-- Node0x5f374170&#45;&gt;Node0x5f371d10 -->
<g id="edge3" class="edge"><title>Node0x5f374170&#45;&gt;Node0x5f371d10</title>
<path fill="none" stroke="black" d="M228.697,-2998.49C258.262,-2985.82 300.311,-2967.8 340.587,-2950.53"/>
<polygon fill="black" stroke="black" points="342.147,-2953.67 349.96,-2946.52 339.389,-2947.24 342.147,-2953.67"/>
<text text-anchor="middle" x="332" y="-2968.8" font-family="Times,serif" font-size="14.00">v5 == 0</text>
</g>
<!-- Node0x5f375310 -->
<g id="node5" class="node"><title>Node0x5f375310</title>
<polygon fill="none" stroke="black" points="326,-1918.5 326,-1954.5 408,-1954.5 408,-1918.5 326,-1918.5"/>
<text text-anchor="start" x="334" y="-1932.8" font-family="Times,serif" font-size="14.00">v20 = g7</text>
</g>
<!-- Node0x5f374170&#45;&gt;Node0x5f375310 -->
<g id="edge4" class="edge"><title>Node0x5f374170&#45;&gt;Node0x5f375310</title>
<path fill="none" stroke="black" d="M159.787,-2998.44C129.957,-2978.58 88,-2942.78 88,-2898.5 88,-2898.5 88,-2898.5 88,-2123 88,-2064.17 66.7219,-2034.88 107,-1992 134.931,-1962.26 248.433,-1947.6 315.892,-1941.38"/>
<polygon fill="black" stroke="black" points="316.249,-1944.86 325.899,-1940.48 315.627,-1937.89 316.249,-1944.86"/>
<text text-anchor="middle" x="115" y="-2542.3" font-family="Times,serif" font-size="14.00">v5 != 0</text>
</g>
<!-- Node0x5f3760e0 -->
<g id="node6" class="node"><title>Node0x5f3760e0</title>
<polygon fill="none" stroke="black" points="404,-2774.5 404,-2810.5 520,-2810.5 520,-2774.5 404,-2774.5"/>
<text text-anchor="start" x="412" y="-2788.8" font-family="Times,serif" font-size="14.00">if (v7 != v10):</text>
</g>
<!-- Node0x5f371d10&#45;&gt;Node0x5f3760e0 -->
<g id="edge5" class="edge"><title>Node0x5f371d10&#45;&gt;Node0x5f3760e0</title>
<path fill="none" stroke="black" d="M462,-2848.32C462,-2838.89 462,-2829.32 462,-2820.87"/>
<polygon fill="black" stroke="black" points="465.5,-2820.86 462,-2810.86 458.5,-2820.86 465.5,-2820.86"/>
</g>
<!-- Node0x5f375430 -->
<g id="node7" class="node"><title>Node0x5f375430</title>
<polygon fill="none" stroke="black" points="180,-1844.5 180,-1880.5 554,-1880.5 554,-1844.5 180,-1844.5"/>
<text text-anchor="start" x="188" y="-1858.8" font-family="Times,serif" font-size="14.00">if (*(IntToPtrCastExpr&lt;ptr&gt;((v20 + 76))) == v6):</text>
</g>
<!-- Node0x5f375310&#45;&gt;Node0x5f375430 -->
<g id="edge6" class="edge"><title>Node0x5f375310&#45;&gt;Node0x5f375430</title>
<path fill="none" stroke="black" d="M367,-1918.44C367,-1910.31 367,-1900.38 367,-1891.2"/>
<polygon fill="black" stroke="black" points="370.5,-1890.94 367,-1880.94 363.5,-1890.94 370.5,-1890.94"/>
</g>
<!-- Node0x5f3785a0 -->
<g id="node8" class="node"><title>Node0x5f3785a0</title>
<polygon fill="none" stroke="black" points="432.5,-2684.5 432.5,-2722.5 761.5,-2722.5 761.5,-2684.5 432.5,-2684.5"/>
<text text-anchor="start" x="440.5" y="-2707.3" font-family="Times,serif" font-size="14.00">0x413432:</text>
<text text-anchor="start" x="440.5" y="-2692.3" font-family="Times,serif" font-size="14.00"> if (*(IntToPtrCastExpr&lt;ptr&gt;(g9)) == v10):</text>
</g>
<!-- Node0x5f3760e0&#45;&gt;Node0x5f3785a0 -->
<g id="edge7" class="edge"><title>Node0x5f3760e0&#45;&gt;Node0x5f3785a0</title>
<path fill="none" stroke="black" d="M488.672,-2774.31C509.158,-2761.11 537.683,-2742.73 560.319,-2728.14"/>
<polygon fill="black" stroke="black" points="562.48,-2730.91 568.99,-2722.55 558.688,-2725.03 562.48,-2730.91"/>
<text text-anchor="middle" x="573.5" y="-2744.8" font-family="Times,serif" font-size="14.00">v7 != v10</text>
</g>
<!-- Node0x5f376240 -->
<g id="node9" class="node"><title>Node0x5f376240</title>
<polygon fill="none" stroke="black" points="451,-2383.5 451,-2421.5 543,-2421.5 543,-2383.5 451,-2383.5"/>
<text text-anchor="start" x="459" y="-2406.3" font-family="Times,serif" font-size="14.00">0x413464:</text>
<text text-anchor="start" x="459" y="-2391.3" font-family="Times,serif" font-size="14.00"> g4 = 0</text>
</g>
<!-- Node0x5f3760e0&#45;&gt;Node0x5f376240 -->
<g id="edge8" class="edge"><title>Node0x5f3760e0&#45;&gt;Node0x5f376240</title>
<path fill="none" stroke="black" d="M448.839,-2774.3C439.59,-2761.07 428.008,-2741.92 423,-2723 418.564,-2706.24 420.891,-2701.2 423,-2684 434.613,-2589.26 469.588,-2481.06 486.97,-2431.26"/>
<polygon fill="black" stroke="black" points="490.371,-2432.14 490.397,-2421.54 483.77,-2429.81 490.371,-2432.14"/>
<text text-anchor="middle" x="466.5" y="-2654.8" font-family="Times,serif" font-size="14.00">v7 == v10</text>
</g>
<!-- Node0x5f3764a0 -->
<g id="node10" class="node"><title>Node0x5f3764a0</title>
<polygon fill="none" stroke="black" points="0,-1607.5 0,-1690.5 384,-1690.5 384,-1607.5 0,-1607.5"/>
<text text-anchor="start" x="8" y="-1675.3" font-family="Times,serif" font-size="14.00">0x4134ca:</text>
<text text-anchor="start" x="8" y="-1660.3" font-family="Times,serif" font-size="14.00"> g2 = 0</text>
<text text-anchor="start" x="8" y="-1645.3" font-family="Times,serif" font-size="14.00"> g2 = (*(IntToPtrCastExpr&lt;ptr&gt;((v20 + 76))) != 0)</text>
<text text-anchor="start" x="8" y="-1630.3" font-family="Times,serif" font-size="14.00"> __EH_epilog3()</text>
<text text-anchor="start" x="8" y="-1615.3" font-family="Times,serif" font-size="14.00"> return</text>
</g>
<!-- Node0x5f375430&#45;&gt;Node0x5f3764a0 -->
<g id="edge9" class="edge"><title>Node0x5f375430&#45;&gt;Node0x5f3764a0</title>
<path fill="none" stroke="black" d="M226.768,-1844.48C209.272,-1839.72 195.295,-1833.67 189,-1826 160.801,-1791.62 165.625,-1739.47 175.043,-1700.85"/>
<polygon fill="black" stroke="black" points="178.516,-1701.41 177.658,-1690.85 171.744,-1699.64 178.516,-1701.41"/>
<text text-anchor="middle" x="353" y="-1814.8" font-family="Times,serif" font-size="14.00">*(IntToPtrCastExpr&lt;ptr&gt;((v20 + 76))) == v6</text>
</g>
<!-- Node0x5f3758a0 -->
<g id="node11" class="node"><title>Node0x5f3758a0</title>
<polygon fill="none" stroke="black" points="376.5,-1709.5 376.5,-1792.5 709.5,-1792.5 709.5,-1709.5 376.5,-1709.5"/>
<text text-anchor="start" x="384.5" y="-1777.3" font-family="Times,serif" font-size="14.00">0x41348b:</text>
<text text-anchor="start" x="384.5" y="-1762.3" font-family="Times,serif" font-size="14.00"> g9 = v20</text>
<text text-anchor="start" x="384.5" y="-1747.3" font-family="Times,serif" font-size="14.00"> g4 = 256</text>
<text text-anchor="start" x="384.5" y="-1732.3" font-family="Times,serif" font-size="14.00"> v21 = PtrToIntCastExpr&lt;int32&gt;(&amp;(hWnd))</text>
<text text-anchor="start" x="384.5" y="-1717.3" font-family="Times,serif" font-size="14.00"> v22 = IntToPtrCastExpr&lt;ptr&gt;((v20 + 60))</text>
</g>
<!-- Node0x5f375430&#45;&gt;Node0x5f3758a0 -->
<g id="edge10" class="edge"><title>Node0x5f375430&#45;&gt;Node0x5f3758a0</title>
<path fill="none" stroke="black" d="M475.902,-1844.41C496.08,-1839.41 513.251,-1833.28 521,-1826 527.815,-1819.6 532.549,-1811.19 535.831,-1802.34"/>
<polygon fill="black" stroke="black" points="539.219,-1803.24 538.852,-1792.65 532.536,-1801.15 539.219,-1803.24"/>
<text text-anchor="middle" x="693" y="-1814.8" font-family="Times,serif" font-size="14.00">*(IntToPtrCastExpr&lt;ptr&gt;((v20 + 76))) != v6</text>
</g>
<!-- Node0x5f3785a0&#45;&gt;Node0x5f376240 -->
<g id="edge12" class="edge"><title>Node0x5f3785a0&#45;&gt;Node0x5f376240</title>
<path fill="none" stroke="black" d="M559.829,-2684.41C540.12,-2672.69 517.633,-2655.41 506,-2633 472.065,-2567.64 482.411,-2477.13 490.807,-2431.79"/>
<polygon fill="black" stroke="black" points="494.278,-2432.27 492.765,-2421.79 487.409,-2430.93 494.278,-2432.27"/>
<text text-anchor="middle" x="643" y="-2542.3" font-family="Times,serif" font-size="14.00">*(IntToPtrCastExpr&lt;ptr&gt;(g9)) != v10</text>
</g>
<!-- Node0x5f379870 -->
<g id="node12" class="node"><title>Node0x5f379870</title>
<polygon fill="none" stroke="black" points="789,-2459.5 789,-2632.5 1481,-2632.5 1481,-2459.5 789,-2459.5"/>
<text text-anchor="start" x="797" y="-2617.3" font-family="Times,serif" font-size="14.00">0x413436:</text>
<text text-anchor="start" x="797" y="-2602.3" font-family="Times,serif" font-size="14.00"> *(IntToPtrCastExpr&lt;ptr&gt;((g3 &#45; 4))) = v10</text>
<text text-anchor="start" x="797" y="-2587.3" font-family="Times,serif" font-size="14.00"> v11 = *(IntToPtrCastExpr&lt;ptr&gt;((function_41022a() + 60)))</text>
<text text-anchor="start" x="797" y="-2572.3" font-family="Times,serif" font-size="14.00"> g5 = v11</text>
<text text-anchor="start" x="797" y="-2557.3" font-family="Times,serif" font-size="14.00"> v12 = *(IntToPtrCastExpr&lt;ptr&gt;(v11))</text>
<text text-anchor="start" x="797" y="-2542.3" font-family="Times,serif" font-size="14.00"> v13 = IntToPtrCastExpr&lt;ptr&gt;(g7)</text>
<text text-anchor="start" x="797" y="-2527.3" font-family="Times,serif" font-size="14.00"> v14 = v13</text>
<text text-anchor="start" x="797" y="-2512.3" font-family="Times,serif" font-size="14.00"> g10 = PtrToIntCastExpr&lt;int32&gt;(&amp;(v14))</text>
<text text-anchor="start" x="797" y="-2497.3" font-family="Times,serif" font-size="14.00"> IntToPtrCastExpr&lt;ptr&gt;(*(IntToPtrCastExpr&lt;ptr&gt;((v12 + 8))))(ExtCastExpr&lt;int32&gt;(*(v13)))</text>
<text text-anchor="start" x="797" y="-2482.3" font-family="Times,serif" font-size="14.00"> *(IntToPtrCastExpr&lt;ptr&gt;((g3 &#45; 4))) = &#45;1</text>
<text text-anchor="start" x="797" y="-2467.3" font-family="Times,serif" font-size="14.00"> *(IntToPtrCastExpr&lt;ptr&gt;(g9)) = v12</text>
</g>
<!-- Node0x5f3785a0&#45;&gt;Node0x5f379870 -->
<g id="edge11" class="edge"><title>Node0x5f3785a0&#45;&gt;Node0x5f379870</title>
<path fill="none" stroke="black" d="M659.504,-2684.43C703.027,-2671.85 764.64,-2654.05 829.135,-2635.41"/>
<polygon fill="black" stroke="black" points="830.453,-2638.67 839.088,-2632.53 828.51,-2631.94 830.453,-2638.67"/>
<text text-anchor="middle" x="912" y="-2654.8" font-family="Times,serif" font-size="14.00">*(IntToPtrCastExpr&lt;ptr&gt;(g9)) == v10</text>
</g>
<!-- Node0x6720dd0 -->
<g id="node13" class="node"><title>Node0x6720dd0</title>
<polygon fill="none" stroke="black" points="323,-2307.5 323,-2345.5 671,-2345.5 671,-2307.5 323,-2307.5"/>
<text text-anchor="start" x="331" y="-2330.3" font-family="Times,serif" font-size="14.00">if (*(IntToPtrCastExpr&lt;ptr&gt;((g3 + 8))) == 0):</text>
<text text-anchor="start" x="331" y="-2315.3" font-family="Times,serif" font-size="14.00"> else:</text>
</g>
<!-- Node0x5f376240&#45;&gt;Node0x6720dd0 -->
<g id="edge13" class="edge"><title>Node0x5f376240&#45;&gt;Node0x6720dd0</title>
<path fill="none" stroke="black" d="M497,-2383.21C497,-2374.96 497,-2365.04 497,-2355.86"/>
<polygon fill="black" stroke="black" points="500.5,-2355.58 497,-2345.58 493.5,-2355.58 500.5,-2355.58"/>
</g>
<!-- Node0x27ee2fd0 -->
<g id="node14" class="node"><title>Node0x27ee2fd0</title>
<polygon fill="none" stroke="black" points="397,-23.5 397,-59.5 451,-59.5 451,-23.5 397,-23.5"/>
<text text-anchor="start" x="405" y="-37.8" font-family="Times,serif" font-size="14.00">exit:</text>
</g>
<!-- Node0x5f3764a0&#45;&gt;Node0x27ee2fd0 -->
<g id="edge14" class="edge"><title>Node0x5f3764a0&#45;&gt;Node0x27ee2fd0</title>
<path fill="none" stroke="black" d="M192,-1607.28C192,-1583.93 192,-1554.07 192,-1527.5 192,-1527.5 192,-1527.5 192,-130.5 192,-112.185 202.006,-108.816 216,-97 264.82,-55.7761 341.343,-45.3141 386.698,-42.9072"/>
<polygon fill="black" stroke="black" points="386.86,-46.4035 396.702,-42.4806 386.562,-39.4099 386.86,-46.4035"/>
</g>
<!-- Node0x5f375900 -->
<g id="node15" class="node"><title>Node0x5f375900</title>
<polygon fill="none" stroke="black" points="480,-1552.5 480,-1588.5 606,-1588.5 606,-1552.5 480,-1552.5"/>
<text text-anchor="start" x="488" y="-1566.8" font-family="Times,serif" font-size="14.00">if (*(v22) != 0):</text>
</g>
<!-- Node0x5f3758a0&#45;&gt;Node0x5f375900 -->
<g id="edge15" class="edge"><title>Node0x5f3758a0&#45;&gt;Node0x5f375900</title>
<path fill="none" stroke="black" d="M543,-1709.5C543,-1675.75 543,-1628.59 543,-1599.06"/>
<polygon fill="black" stroke="black" points="546.5,-1598.67 543,-1588.67 539.5,-1598.67 546.5,-1598.67"/>
</g>
<!-- Node0x5f379870&#45;&gt;Node0x5f376240 -->
<g id="edge16" class="edge"><title>Node0x5f379870&#45;&gt;Node0x5f376240</title>
<path fill="none" stroke="black" d="M788.74,-2462.03C784.132,-2461.01 779.551,-2460 775,-2459 698.514,-2442.24 609.724,-2424.87 553.464,-2414.13"/>
<polygon fill="black" stroke="black" points="553.827,-2410.64 543.348,-2412.2 552.517,-2417.51 553.827,-2410.64"/>
</g>
<!-- Node0x5f378990 -->
<g id="node16" class="node"><title>Node0x5f378990</title>
<polygon fill="none" stroke="black" points="116,-1992.5 116,-2255.5 618,-2255.5 618,-1992.5 116,-1992.5"/>
<text text-anchor="start" x="124" y="-2240.3" font-family="Times,serif" font-size="14.00">v15 = g7</text>
<text text-anchor="start" x="124" y="-2225.3" font-family="Times,serif" font-size="14.00"> v16 = *(IntToPtrCastExpr&lt;ptr&gt;((v15 + 76)))</text>
<text text-anchor="start" x="124" y="-2210.3" font-family="Times,serif" font-size="14.00"> g2 = v16</text>
<text text-anchor="start" x="124" y="-2195.3" font-family="Times,serif" font-size="14.00"> v17 = *(IntToPtrCastExpr&lt;ptr&gt;(v16))</text>
<text text-anchor="start" x="124" y="-2180.3" font-family="Times,serif" font-size="14.00"> g9 = v17</text>
<text text-anchor="start" x="124" y="-2165.3" font-family="Times,serif" font-size="14.00"> v18 = *(IntToPtrCastExpr&lt;ptr&gt;(v15))</text>
<text text-anchor="start" x="124" y="-2150.3" font-family="Times,serif" font-size="14.00"> g5 = v15</text>
<text text-anchor="start" x="124" y="-2135.3" font-family="Times,serif" font-size="14.00"> g1 = (v17 &gt; 4294967135)</text>
<text text-anchor="start" x="124" y="-2120.3" font-family="Times,serif" font-size="14.00"> v19 = (v17 + 160)</text>
<text text-anchor="start" x="124" y="-2105.3" font-family="Times,serif" font-size="14.00"> g180 = (v19 == 0)</text>
<text text-anchor="start" x="124" y="-2090.3" font-family="Times,serif" font-size="14.00"> g9 = v19</text>
<text text-anchor="start" x="124" y="-2075.3" font-family="Times,serif" font-size="14.00"> IntToPtrCastExpr&lt;ptr&gt;(*(IntToPtrCastExpr&lt;ptr&gt;((v18 + 304))))()</text>
<text text-anchor="start" x="124" y="-2060.3" font-family="Times,serif" font-size="14.00"> g5 = *(IntToPtrCastExpr&lt;ptr&gt;((g7 + 76)))</text>
<text text-anchor="start" x="124" y="-2045.3" font-family="Times,serif" font-size="14.00"> hWnd = IntToPtrCastExpr&lt;ptr&gt;(v18)</text>
<text text-anchor="start" x="124" y="-2030.3" font-family="Times,serif" font-size="14.00"> g10 = PtrToIntCastExpr&lt;int32&gt;(&amp;(hWnd))</text>
<text text-anchor="start" x="124" y="-2015.3" font-family="Times,serif" font-size="14.00"> IntToPtrCastExpr&lt;ptr&gt;(*(IntToPtrCastExpr&lt;ptr&gt;(g9)))(v18)</text>
<text text-anchor="start" x="124" y="-2000.3" font-family="Times,serif" font-size="14.00"> v6 = g4</text>
</g>
<!-- Node0x6720dd0&#45;&gt;Node0x5f378990 -->
<g id="edge17" class="edge"><title>Node0x6720dd0&#45;&gt;Node0x5f378990</title>
<path fill="none" stroke="black" d="M397.547,-2307.47C380.563,-2302.42 366.579,-2296.27 361,-2289 355.457,-2281.77 351.391,-2273.79 348.521,-2265.36"/>
<polygon fill="black" stroke="black" points="351.868,-2264.33 345.774,-2255.67 345.133,-2266.24 351.868,-2264.33"/>
<text text-anchor="middle" x="512.5" y="-2277.8" font-family="Times,serif" font-size="14.00">*(IntToPtrCastExpr&lt;ptr&gt;((g3 + 8))) == 0</text>
</g>
<!-- Node0x5f378d60 -->
<g id="node17" class="node"><title>Node0x5f378d60</title>
<polygon fill="none" stroke="black" points="642,-2106 642,-2142 706,-2142 706,-2106 642,-2106"/>
<text text-anchor="start" x="650" y="-2120.3" font-family="Times,serif" font-size="14.00">v6 = 0</text>
</g>
<!-- Node0x6720dd0&#45;&gt;Node0x5f378d60 -->
<g id="edge18" class="edge"><title>Node0x6720dd0&#45;&gt;Node0x5f378d60</title>
<path fill="none" stroke="black" d="M625.496,-2307.43C643.228,-2302.56 657.581,-2296.49 664,-2289 696.68,-2250.85 689.128,-2187.57 681.233,-2151.8"/>
<polygon fill="black" stroke="black" points="684.636,-2150.98 678.923,-2142.06 677.825,-2152.59 684.636,-2150.98"/>
<text text-anchor="middle" x="822.5" y="-2277.8" font-family="Times,serif" font-size="14.00">*(IntToPtrCastExpr&lt;ptr&gt;((g3 + 8))) != 0</text>
</g>
<!-- Node0x5f376b30 -->
<g id="node18" class="node"><title>Node0x5f376b30</title>
<polygon fill="none" stroke="black" points="244,-1362.5 244,-1445.5 620,-1445.5 620,-1362.5 244,-1362.5"/>
<text text-anchor="start" x="252" y="-1430.3" font-family="Times,serif" font-size="14.00">0x4134ca:</text>
<text text-anchor="start" x="252" y="-1415.3" font-family="Times,serif" font-size="14.00"> g2 = 0</text>
<text text-anchor="start" x="252" y="-1400.3" font-family="Times,serif" font-size="14.00"> g2 = (*(IntToPtrCastExpr&lt;ptr&gt;((g7 + 76))) != 0)</text>
<text text-anchor="start" x="252" y="-1385.3" font-family="Times,serif" font-size="14.00"> __EH_epilog3()</text>
<text text-anchor="start" x="252" y="-1370.3" font-family="Times,serif" font-size="14.00"> return</text>
</g>
<!-- Node0x5f375900&#45;&gt;Node0x5f376b30 -->
<g id="edge19" class="edge"><title>Node0x5f375900&#45;&gt;Node0x5f376b30</title>
<path fill="none" stroke="black" d="M531.331,-1552.21C515.798,-1529.19 487.689,-1487.53 465.327,-1454.39"/>
<polygon fill="black" stroke="black" points="467.978,-1452.06 459.483,-1445.73 462.175,-1455.98 467.978,-1452.06"/>
<text text-anchor="middle" x="560.5" y="-1522.8" font-family="Times,serif" font-size="14.00">*(v22) != 0</text>
</g>
<!-- Node0x5f375cf0 -->
<g id="node19" class="node"><title>Node0x5f375cf0</title>
<polygon fill="none" stroke="black" points="884.5,-1464.5 884.5,-1500.5 975.5,-1500.5 975.5,-1464.5 884.5,-1464.5"/>
<text text-anchor="start" x="892.5" y="-1478.8" font-family="Times,serif" font-size="14.00">v23 = 256</text>
</g>
<!-- Node0x5f375900&#45;&gt;Node0x5f375cf0 -->
<g id="edge20" class="edge"><title>Node0x5f375900&#45;&gt;Node0x5f375cf0</title>
<path fill="none" stroke="black" d="M606.04,-1555.49C680.449,-1538.96 803.037,-1511.71 874.161,-1495.91"/>
<polygon fill="black" stroke="black" points="875.267,-1499.25 884.269,-1493.66 873.748,-1492.42 875.267,-1499.25"/>
<text text-anchor="middle" x="803.5" y="-1522.8" font-family="Times,serif" font-size="14.00">*(v22) == 0</text>
</g>
<!-- Node0x5f378990&#45;&gt;Node0x5f375310 -->
<g id="edge21" class="edge"><title>Node0x5f378990&#45;&gt;Node0x5f375310</title>
<path fill="none" stroke="black" d="M367,-1992.4C367,-1982.31 367,-1972.93 367,-1964.89"/>
<polygon fill="black" stroke="black" points="370.5,-1964.81 367,-1954.81 363.5,-1964.81 370.5,-1964.81"/>
</g>
<!-- Node0x5f378d60&#45;&gt;Node0x5f375310 -->
<g id="edge22" class="edge"><title>Node0x5f378d60&#45;&gt;Node0x5f375310</title>
<path fill="none" stroke="black" d="M672.982,-2105.59C670.346,-2077.29 660.892,-2021.51 627,-1992 596.421,-1965.37 485.179,-1949.61 418.515,-1942.35"/>
<polygon fill="black" stroke="black" points="418.531,-1938.83 408.217,-1941.26 417.792,-1945.79 418.531,-1938.83"/>
</g>
<!-- Node0x5f376b30&#45;&gt;Node0x27ee2fd0 -->
<g id="edge23" class="edge"><title>Node0x5f376b30&#45;&gt;Node0x27ee2fd0</title>
<path fill="none" stroke="black" d="M286.268,-1362.46C254.415,-1344.48 230,-1318.84 230,-1282.5 230,-1282.5 230,-1282.5 230,-130.5 230,-62.5747 329.854,-46.8186 386.285,-43.3378"/>
<polygon fill="black" stroke="black" points="386.809,-46.8155 396.616,-42.807 386.45,-39.8248 386.809,-46.8155"/>
</g>
<!-- Node0x5f375370 -->
<g id="node20" class="node"><title>Node0x5f375370</title>
<polygon fill="none" stroke="black" points="978.5,-1307.5 978.5,-1343.5 1075.5,-1343.5 1075.5,-1307.5 978.5,-1307.5"/>
<text text-anchor="start" x="986.5" y="-1321.8" font-family="Times,serif" font-size="14.00">while True:</text>
</g>
<!-- Node0x5f375cf0&#45;&gt;Node0x5f375370 -->
<g id="edge24" class="edge"><title>Node0x5f375cf0&#45;&gt;Node0x5f375370</title>
<path fill="none" stroke="black" d="M940.751,-1464.32C957.722,-1437.2 990.828,-1384.3 1010.72,-1352.51"/>
<polygon fill="black" stroke="black" points="1013.86,-1354.09 1016.2,-1343.76 1007.93,-1350.38 1013.86,-1354.09"/>
</g>
<!-- Node0x5f375db0 -->
<g id="node21" class="node"><title>Node0x5f375db0</title>
<polygon fill="none" stroke="black" points="754.5,-1127.5 754.5,-1255.5 1299.5,-1255.5 1299.5,-1127.5 754.5,-1127.5"/>
<text text-anchor="start" x="762.5" y="-1240.3" font-family="Times,serif" font-size="14.00">0x413499:</text>
<text text-anchor="start" x="762.5" y="-1225.3" font-family="Times,serif" font-size="14.00"> hWnd = IntToPtrCastExpr&lt;ptr&gt;(*(IntToPtrCastExpr&lt;ptr&gt;((v20 + 32))))</text>
<text text-anchor="start" x="762.5" y="-1210.3" font-family="Times,serif" font-size="14.00"> g2 = v23</text>
<text text-anchor="start" x="762.5" y="-1195.3" font-family="Times,serif" font-size="14.00"> *(v22) = v23</text>
<text text-anchor="start" x="762.5" y="-1180.3" font-family="Times,serif" font-size="14.00"> hWnd = GetParent(hWnd)</text>
<text text-anchor="start" x="762.5" y="-1165.3" font-family="Times,serif" font-size="14.00"> v24 = function_40b067()</text>
<text text-anchor="start" x="762.5" y="-1150.3" font-family="Times,serif" font-size="14.00"> g9 = v24</text>
<text text-anchor="start" x="762.5" y="-1135.3" font-family="Times,serif" font-size="14.00"> hWnd2 = 0</text>
</g>
<!-- Node0x5f375370&#45;&gt;Node0x5f375db0 -->
<g id="edge25" class="edge"><title>Node0x5f375370&#45;&gt;Node0x5f375db0</title>
<path fill="none" stroke="black" d="M1027,-1307.24C1027,-1296.29 1027,-1281.3 1027,-1265.76"/>
<polygon fill="black" stroke="black" points="1030.5,-1265.51 1027,-1255.51 1023.5,-1265.51 1030.5,-1265.51"/>
<text text-anchor="middle" x="1044" y="-1277.8" font-family="Times,serif" font-size="14.00">True</text>
</g>
<!-- Node0x5f377330 -->
<g id="node22" class="node"><title>Node0x5f377330</title>
<polygon fill="none" stroke="black" points="973,-1053.5 973,-1089.5 1081,-1089.5 1081,-1053.5 973,-1053.5"/>
<text text-anchor="start" x="981" y="-1067.8" font-family="Times,serif" font-size="14.00">if (v24 != 0):</text>
</g>
<!-- Node0x5f375db0&#45;&gt;Node0x5f377330 -->
<g id="edge26" class="edge"><title>Node0x5f375db0&#45;&gt;Node0x5f377330</title>
<path fill="none" stroke="black" d="M1027,-1127.35C1027,-1117.75 1027,-1108.3 1027,-1100.02"/>
<polygon fill="black" stroke="black" points="1030.5,-1099.89 1027,-1089.89 1023.5,-1099.89 1030.5,-1099.89"/>
</g>
<!-- Node0x5f379140 -->
<g id="node23" class="node"><title>Node0x5f379140</title>
<polygon fill="none" stroke="black" points="879.5,-963.5 879.5,-1001.5 1250.5,-1001.5 1250.5,-963.5 879.5,-963.5"/>
<text text-anchor="start" x="887.5" y="-986.3" font-family="Times,serif" font-size="14.00">0x4134b3:</text>
<text text-anchor="start" x="887.5" y="-971.3" font-family="Times,serif" font-size="14.00"> hWnd2 = *(IntToPtrCastExpr&lt;ptr&gt;((v24 + 32)))</text>
</g>
<!-- Node0x5f377330&#45;&gt;Node0x5f379140 -->
<g id="edge27" class="edge"><title>Node0x5f377330&#45;&gt;Node0x5f379140</title>
<path fill="none" stroke="black" d="M1034.51,-1053.31C1039.76,-1041.28 1046.9,-1024.94 1052.95,-1011.09"/>
<polygon fill="black" stroke="black" points="1056.32,-1012.12 1057.12,-1001.55 1049.91,-1009.31 1056.32,-1012.12"/>
<text text-anchor="middle" x="1080.5" y="-1023.8" font-family="Times,serif" font-size="14.00">v24 != 0</text>
</g>
<!-- Node0x5f377550 -->
<g id="node24" class="node"><title>Node0x5f377550</title>
<polygon fill="none" stroke="black" points="756.5,-887.5 756.5,-925.5 851.5,-925.5 851.5,-887.5 756.5,-887.5"/>
<text text-anchor="start" x="764.5" y="-910.3" font-family="Times,serif" font-size="14.00">0x4134b6:</text>
<text text-anchor="start" x="764.5" y="-895.3" font-family="Times,serif" font-size="14.00"> g10 = v21</text>
</g>
<!-- Node0x5f377330&#45;&gt;Node0x5f377550 -->
<g id="edge28" class="edge"><title>Node0x5f377330&#45;&gt;Node0x5f377550</title>
<path fill="none" stroke="black" d="M972.786,-1061.64C912.707,-1050.58 821.549,-1029.7 801,-1002 787.029,-983.166 789.585,-955.923 794.574,-935.522"/>
<polygon fill="black" stroke="black" points="797.959,-936.411 797.242,-925.841 791.211,-934.551 797.959,-936.411"/>
<text text-anchor="middle" x="835.5" y="-978.8" font-family="Times,serif" font-size="14.00">v24 == 0</text>
</g>
<!-- Node0x5f379140&#45;&gt;Node0x5f377550 -->
<g id="edge29" class="edge"><title>Node0x5f379140&#45;&gt;Node0x5f377550</title>
<path fill="none" stroke="black" d="M1001.49,-963.492C958.74,-951.373 902.838,-935.523 861.425,-923.781"/>
<polygon fill="black" stroke="black" points="862.334,-920.401 851.759,-921.041 860.425,-927.136 862.334,-920.401"/>
</g>
<!-- Node0x27ca7160 -->
<g id="node25" class="node"><title>Node0x27ca7160</title>
<polygon fill="none" stroke="black" points="516.5,-813.5 516.5,-849.5 1091.5,-849.5 1091.5,-813.5 516.5,-813.5"/>
<text text-anchor="start" x="524.5" y="-827.8" font-family="Times,serif" font-size="14.00">if (GetWindowLongA(IntToPtrCastExpr&lt;ptr&gt;(hWnd2), &#45;16) == 1073741824):</text>
</g>
<!-- Node0x5f377550&#45;&gt;Node0x27ca7160 -->
<g id="edge30" class="edge"><title>Node0x5f377550&#45;&gt;Node0x27ca7160</title>
<path fill="none" stroke="black" d="M804,-887.455C804,-879.201 804,-869.238 804,-860.074"/>
<polygon fill="black" stroke="black" points="807.5,-859.835 804,-849.835 800.5,-859.835 807.5,-859.835"/>
</g>
<!-- Node0x5f379210 -->
<g id="node26" class="node"><title>Node0x5f379210</title>
<polygon fill="none" stroke="black" points="245,-623.5 245,-706.5 621,-706.5 621,-623.5 245,-623.5"/>
<text text-anchor="start" x="253" y="-691.3" font-family="Times,serif" font-size="14.00">0x4134ca:</text>
<text text-anchor="start" x="253" y="-676.3" font-family="Times,serif" font-size="14.00"> g2 = 0</text>
<text text-anchor="start" x="253" y="-661.3" font-family="Times,serif" font-size="14.00"> g2 = (*(IntToPtrCastExpr&lt;ptr&gt;((g7 + 76))) != 0)</text>
<text text-anchor="start" x="253" y="-646.3" font-family="Times,serif" font-size="14.00"> __EH_epilog3()</text>
<text text-anchor="start" x="253" y="-631.3" font-family="Times,serif" font-size="14.00"> return</text>
</g>
<!-- Node0x27ca7160&#45;&gt;Node0x5f379210 -->
<g id="edge31" class="edge"><title>Node0x27ca7160&#45;&gt;Node0x5f379210</title>
<path fill="none" stroke="black" d="M516.315,-827.508C403.237,-823.28 295.911,-814.16 278,-795 249.653,-764.676 280.813,-734.769 322.439,-711.398"/>
<polygon fill="black" stroke="black" points="324.335,-714.352 331.462,-706.513 321.002,-708.196 324.335,-714.352"/>
<text text-anchor="middle" x="543" y="-783.8" font-family="Times,serif" font-size="14.00">GetWindowLongA(IntToPtrCastExpr&lt;ptr&gt;(hWnd2), &#45;16) == 1073741824</text>
</g>
<!-- Node0x5f3777b0 -->
<g id="node27" class="node"><title>Node0x5f3777b0</title>
<polygon fill="none" stroke="black" points="780,-725.5 780,-761.5 862,-761.5 862,-725.5 780,-725.5"/>
<text text-anchor="start" x="788" y="-739.8" font-family="Times,serif" font-size="14.00">v25 = g9</text>
</g>
<!-- Node0x27ca7160&#45;&gt;Node0x5f3777b0 -->
<g id="edge32" class="edge"><title>Node0x27ca7160&#45;&gt;Node0x5f3777b0</title>
<path fill="none" stroke="black" d="M807.44,-813.097C809.783,-801.246 812.932,-785.317 815.605,-771.792"/>
<polygon fill="black" stroke="black" points="819.117,-772.073 817.623,-761.584 812.25,-770.715 819.117,-772.073"/>
<text text-anchor="middle" x="1076" y="-783.8" font-family="Times,serif" font-size="14.00">GetWindowLongA(IntToPtrCastExpr&lt;ptr&gt;(hWnd2), &#45;16) != 1073741824</text>
</g>
<!-- Node0x5f379210&#45;&gt;Node0x27ee2fd0 -->
<g id="edge33" class="edge"><title>Node0x5f379210&#45;&gt;Node0x27ee2fd0</title>
<path fill="none" stroke="black" d="M428.447,-623.339C426.215,-600.007 424,-570.143 424,-543.5 424,-543.5 424,-543.5 424,-130.5 424,-110.13 424,-87.1087 424,-69.7225"/>
<polygon fill="black" stroke="black" points="427.5,-69.6994 424,-59.6995 420.5,-69.6995 427.5,-69.6994"/>
</g>
<!-- Node0xbc00c190 -->
<g id="node28" class="node"><title>Node0xbc00c190</title>
<polygon fill="none" stroke="black" points="767,-568.5 767,-604.5 875,-604.5 875,-568.5 767,-568.5"/>
<text text-anchor="start" x="775" y="-582.8" font-family="Times,serif" font-size="14.00">if (v25 != 0):</text>
</g>
<!-- Node0x5f3777b0&#45;&gt;Node0xbc00c190 -->
<g id="edge34" class="edge"><title>Node0x5f3777b0&#45;&gt;Node0xbc00c190</title>
<path fill="none" stroke="black" d="M821,-725.32C821,-698.668 821,-647.109 821,-615.165"/>
<polygon fill="black" stroke="black" points="824.5,-614.757 821,-604.757 817.5,-614.757 824.5,-614.757"/>
</g>
<!-- Node0x5f3793d0 -->
<g id="node29" class="node"><title>Node0x5f3793d0</title>
<polygon fill="none" stroke="black" points="664.5,-480.5 664.5,-516.5 987.5,-516.5 987.5,-480.5 664.5,-480.5"/>
<text text-anchor="start" x="672.5" y="-494.8" font-family="Times,serif" font-size="14.00">v26 = IntToPtrCastExpr&lt;ptr&gt;((v25 + 60))</text>
</g>
<!-- Node0xbc00c190&#45;&gt;Node0x5f3793d0 -->
<g id="edge35" class="edge"><title>Node0xbc00c190&#45;&gt;Node0x5f3793d0</title>
<path fill="none" stroke="black" d="M822.012,-568.097C822.701,-556.246 823.627,-540.317 824.413,-526.792"/>
<polygon fill="black" stroke="black" points="827.92,-526.77 825.007,-516.584 820.932,-526.364 827.92,-526.77"/>
<text text-anchor="middle" x="855.5" y="-538.8" font-family="Times,serif" font-size="14.00">v25 != 0</text>
</g>
<!-- Node0x5f3784e0 -->
<g id="node30" class="node"><title>Node0x5f3784e0</title>
<polygon fill="none" stroke="black" points="439,-378.5 439,-461.5 815,-461.5 815,-378.5 439,-378.5"/>
<text text-anchor="start" x="447" y="-446.3" font-family="Times,serif" font-size="14.00">0x4134ca:</text>
<text text-anchor="start" x="447" y="-431.3" font-family="Times,serif" font-size="14.00"> g2 = 0</text>
<text text-anchor="start" x="447" y="-416.3" font-family="Times,serif" font-size="14.00"> g2 = (*(IntToPtrCastExpr&lt;ptr&gt;((g7 + 76))) != 0)</text>
<text text-anchor="start" x="447" y="-401.3" font-family="Times,serif" font-size="14.00"> __EH_epilog3()</text>
<text text-anchor="start" x="447" y="-386.3" font-family="Times,serif" font-size="14.00"> return</text>
</g>
<!-- Node0xbc00c190&#45;&gt;Node0x5f3784e0 -->
<g id="edge36" class="edge"><title>Node0xbc00c190&#45;&gt;Node0x5f3784e0</title>
<path fill="none" stroke="black" d="M766.815,-575.861C730.403,-566.67 683.951,-549.246 655,-517 643.762,-504.483 637.02,-487.69 632.98,-471.649"/>
<polygon fill="black" stroke="black" points="636.379,-470.81 630.798,-461.804 629.545,-472.325 636.379,-470.81"/>
<text text-anchor="middle" x="730.5" y="-538.8" font-family="Times,serif" font-size="14.00">v25 == 0</text>
</g>
<!-- Node0x5f379480 -->
<g id="node31" class="node"><title>Node0x5f379480</title>
<polygon fill="none" stroke="black" points="767,-323.5 767,-359.5 893,-359.5 893,-323.5 767,-323.5"/>
<text text-anchor="start" x="775" y="-337.8" font-family="Times,serif" font-size="14.00">if (*(v26) != 0):</text>
</g>
<!-- Node0x5f3793d0&#45;&gt;Node0x5f379480 -->
<g id="edge37" class="edge"><title>Node0x5f3793d0&#45;&gt;Node0x5f379480</title>
<path fill="none" stroke="black" d="M826.443,-480.32C827.131,-453.668 828.462,-402.109 829.286,-370.165"/>
<polygon fill="black" stroke="black" points="832.795,-369.844 829.555,-359.757 825.798,-369.663 832.795,-369.844"/>
</g>
<!-- Node0x5f3784e0&#45;&gt;Node0x27ee2fd0 -->
<g id="edge38" class="edge"><title>Node0x5f3784e0&#45;&gt;Node0x27ee2fd0</title>
<path fill="none" stroke="black" d="M532.431,-378.448C503.426,-359.308 479,-332.959 479,-298.5 479,-298.5 479,-298.5 479,-130.5 479,-106.502 464.109,-83.6523 449.824,-67.2535"/>
<polygon fill="black" stroke="black" points="452.27,-64.7422 442.928,-59.7445 447.114,-69.4772 452.27,-64.7422"/>
</g>
<!-- Node0x5f376d80 -->
<g id="node32" class="node"><title>Node0x5f376d80</title>
<polygon fill="none" stroke="black" points="669,-218.5 669,-256.5 827,-256.5 827,-218.5 669,-218.5"/>
<text text-anchor="start" x="677" y="-241.3" font-family="Times,serif" font-size="14.00">break &#45;&gt; 0x4134ca:</text>
<text text-anchor="start" x="677" y="-226.3" font-family="Times,serif" font-size="14.00"> break</text>
</g>
<!-- Node0x5f379480&#45;&gt;Node0x5f376d80 -->
<g id="edge39" class="edge"><title>Node0x5f379480&#45;&gt;Node0x5f376d80</title>
<path fill="none" stroke="black" d="M816.09,-323.197C803.172,-307.129 783.761,-282.983 768.965,-264.578"/>
<polygon fill="black" stroke="black" points="771.525,-262.177 762.532,-256.576 766.069,-266.563 771.525,-262.177"/>
<text text-anchor="middle" x="842.5" y="-293.8" font-family="Times,serif" font-size="14.00">*(v26) != 0</text>
</g>
<!-- Node0x5f3797e0 -->
<g id="node33" class="node"><title>Node0x5f3797e0</title>
<polygon fill="none" stroke="black" points="1037.5,-203.5 1037.5,-271.5 1132.5,-271.5 1132.5,-203.5 1037.5,-203.5"/>
<text text-anchor="start" x="1045.5" y="-256.3" font-family="Times,serif" font-size="14.00">v22 = v26</text>
<text text-anchor="start" x="1045.5" y="-241.3" font-family="Times,serif" font-size="14.00"> v20 = v25</text>
<text text-anchor="start" x="1045.5" y="-226.3" font-family="Times,serif" font-size="14.00"> v23 = g4</text>
<text text-anchor="start" x="1045.5" y="-211.3" font-family="Times,serif" font-size="14.00"> continue</text>
</g>
<!-- Node0x5f379480&#45;&gt;Node0x5f3797e0 -->
<g id="edge40" class="edge"><title>Node0x5f379480&#45;&gt;Node0x5f3797e0</title>
<path fill="none" stroke="black" d="M872.681,-323.427C915.26,-306.396 980.935,-280.126 1027.96,-261.315"/>
<polygon fill="black" stroke="black" points="1029.42,-264.502 1037.4,-257.538 1026.82,-258.003 1029.42,-264.502"/>
<text text-anchor="middle" x="993.5" y="-293.8" font-family="Times,serif" font-size="14.00">*(v26) == 0</text>
</g>
<!-- Node0x5f375e60 -->
<g id="node34" class="node"><title>Node0x5f375e60</title>
<polygon fill="none" stroke="black" points="516,-97.5 516,-165.5 892,-165.5 892,-97.5 516,-97.5"/>
<text text-anchor="start" x="524" y="-150.3" font-family="Times,serif" font-size="14.00">0x4134ca:</text>
<text text-anchor="start" x="524" y="-135.3" font-family="Times,serif" font-size="14.00"> g2 = 0</text>
<text text-anchor="start" x="524" y="-120.3" font-family="Times,serif" font-size="14.00"> g2 = (*(IntToPtrCastExpr&lt;ptr&gt;((g7 + 76))) != 0)</text>
<text text-anchor="start" x="524" y="-105.3" font-family="Times,serif" font-size="14.00"> __EH_epilog3()</text>
</g>
<!-- Node0x5f376d80&#45;&gt;Node0x5f375e60 -->
<g id="edge41" class="edge"><title>Node0x5f376d80&#45;&gt;Node0x5f375e60</title>
<path fill="none" stroke="black" d="M740.336,-218.385C735.238,-206.336 728.322,-189.989 721.892,-174.789"/>
<polygon fill="black" stroke="black" points="725.091,-173.368 717.971,-165.522 718.644,-176.096 725.091,-173.368"/>
</g>
<!-- Node0x5f3797e0&#45;&gt;Node0x5f375370 -->
<g id="edge42" class="edge"><title>Node0x5f3797e0&#45;&gt;Node0x5f375370</title>
<path fill="none" stroke="black" d="M1132.59,-246.08C1211.3,-259.975 1360,-292.57 1360,-340.5 1360,-1192.5 1360,-1192.5 1360,-1192.5 1360,-1228.98 1338.87,-1236.57 1308,-1256 1239.41,-1299.18 1145.6,-1315.14 1085.65,-1321.04"/>
<polygon fill="black" stroke="black" points="1085.23,-1317.56 1075.59,-1321.97 1085.87,-1324.54 1085.23,-1317.56"/>
</g>
<!-- Node0x5f375e60&#45;&gt;Node0x27ee2fd0 -->
<g id="edge43" class="edge"><title>Node0x5f375e60&#45;&gt;Node0x27ee2fd0</title>
<path fill="none" stroke="black" d="M598.942,-97.4817C550.498,-82.2564 496.091,-65.157 461.002,-54.1294"/>
<polygon fill="black" stroke="black" points="461.79,-50.7081 451.201,-51.0488 459.691,-57.3861 461.79,-50.7081"/>
</g>
</g>
</svg>
