<?xml version="1.0" encoding="UTF-8" standalone="no"?>
<!DOCTYPE svg PUBLIC "-//W3C//DTD SVG 1.1//EN"
 "http://www.w3.org/Graphics/SVG/1.1/DTD/svg11.dtd">
<!-- Generated by graphviz version 2.38.0 (20140413.2041)
 -->
<!-- Title: Control&#45;flow graph for function &#39;function_40e2d1(a1, X, Y, cx, cy, uFlags, a7)&#39;. Pages: 1 -->
<svg width="969pt" height="994pt"
 viewBox="0.00 0.00 968.50 994.00" xmlns="http://www.w3.org/2000/svg" xmlns:xlink="http://www.w3.org/1999/xlink">
<g id="graph0" class="graph" transform="scale(1 1) rotate(0) translate(4 990)">
<title>Control&#45;flow graph for function &#39;function_40e2d1(a1, X, Y, cx, cy, uFlags, a7)&#39;.</title>
<polygon fill="white" stroke="none" points="-4,4 -4,-990 964.5,-990 964.5,4 -4,4"/>
<text text-anchor="middle" x="480.25" y="-7.8" font-family="Times,serif" font-size="14.00">Control&#45;flow graph for function &#39;function_40e2d1(a1, X, Y, cx, cy, uFlags, a7)&#39;.</text>
<!-- Node0x2dd7d430 -->
<g id="node1" class="node"><title>Node0x2dd7d430</title>
<polygon fill="none" stroke="black" points="296,-857.5 296,-985.5 365,-985.5 365,-857.5 296,-857.5"/>
<text text-anchor="start" x="304" y="-970.3" font-family="Times,serif" font-size="14.00">entry:</text>
<text text-anchor="start" x="304" y="-955.3" font-family="Times,serif" font-size="14.00"> a1</text>
<text text-anchor="start" x="304" y="-940.3" font-family="Times,serif" font-size="14.00"> X</text>
<text text-anchor="start" x="304" y="-925.3" font-family="Times,serif" font-size="14.00"> Y</text>
<text text-anchor="start" x="304" y="-910.3" font-family="Times,serif" font-size="14.00"> cx</text>
<text text-anchor="start" x="304" y="-895.3" font-family="Times,serif" font-size="14.00"> cy</text>
<text text-anchor="start" x="304" y="-880.3" font-family="Times,serif" font-size="14.00"> uFlags</text>
<text text-anchor="start" x="304" y="-865.3" font-family="Times,serif" font-size="14.00"> a7</text>
</g>
<!-- Node0x2dd7e810 -->
<g id="node2" class="node"><title>Node0x2dd7e810</title>
<polygon fill="none" stroke="black" points="166.5,-691.5 166.5,-819.5 494.5,-819.5 494.5,-691.5 166.5,-691.5"/>
<text text-anchor="start" x="174.5" y="-804.3" font-family="Times,serif" font-size="14.00">0x40e2d1:</text>
<text text-anchor="start" x="174.5" y="-789.3" font-family="Times,serif" font-size="14.00"> v1</text>
<text text-anchor="start" x="174.5" y="-774.3" font-family="Times,serif" font-size="14.00"> v2 = v1</text>
<text text-anchor="start" x="174.5" y="-759.3" font-family="Times,serif" font-size="14.00"> g3 = &amp;(v2)</text>
<text text-anchor="start" x="174.5" y="-744.3" font-family="Times,serif" font-size="14.00"> v3 = g5</text>
<text text-anchor="start" x="174.5" y="-729.3" font-family="Times,serif" font-size="14.00"> v4 = *(IntToPtrCastExpr&lt;ptr&gt;((v3 + 80)))</text>
<text text-anchor="start" x="174.5" y="-714.3" font-family="Times,serif" font-size="14.00"> g1 = False</text>
<text text-anchor="start" x="174.5" y="-699.3" font-family="Times,serif" font-size="14.00"> g180 = (v4 == 0)</text>
</g>
<!-- Node0x2dd7d430&#45;&gt;Node0x2dd7e810 -->
<g id="edge1" class="edge"><title>Node0x2dd7d430&#45;&gt;Node0x2dd7e810</title>
<path fill="none" stroke="black" d="M330.5,-857.093C330.5,-848.187 330.5,-838.971 330.5,-829.898"/>
<polygon fill="black" stroke="black" points="334,-829.738 330.5,-819.738 327,-829.738 334,-829.738"/>
</g>
<!-- Node0x2dd7dcc0 -->
<g id="node3" class="node"><title>Node0x2dd7dcc0</title>
<polygon fill="none" stroke="black" points="281,-617.5 281,-653.5 380,-653.5 380,-617.5 281,-617.5"/>
<text text-anchor="start" x="289" y="-631.8" font-family="Times,serif" font-size="14.00">if (v4 != 0):</text>
</g>
<!-- Node0x2dd7e810&#45;&gt;Node0x2dd7dcc0 -->
<g id="edge2" class="edge"><title>Node0x2dd7e810&#45;&gt;Node0x2dd7dcc0</title>
<path fill="none" stroke="black" d="M330.5,-691.355C330.5,-681.753 330.5,-672.299 330.5,-664.016"/>
<polygon fill="black" stroke="black" points="334,-663.887 330.5,-653.888 327,-663.888 334,-663.887"/>
</g>
<!-- Node0x2a2af2b0 -->
<g id="node4" class="node"><title>Node0x2a2af2b0</title>
<polygon fill="none" stroke="black" points="0,-350.5 0,-463.5 493,-463.5 493,-350.5 0,-350.5"/>
<text text-anchor="start" x="8" y="-448.3" font-family="Times,serif" font-size="14.00">0x40e301:</text>
<text text-anchor="start" x="8" y="-433.3" font-family="Times,serif" font-size="14.00"> g5 = v4</text>
<text text-anchor="start" x="8" y="-418.3" font-family="Times,serif" font-size="14.00"> v5 = *(IntToPtrCastExpr&lt;ptr&gt;(v4))</text>
<text text-anchor="start" x="8" y="-403.3" font-family="Times,serif" font-size="14.00"> g2 = v5</text>
<text text-anchor="start" x="8" y="-388.3" font-family="Times,serif" font-size="14.00"> g3 = v1</text>
<text text-anchor="start" x="8" y="-373.3" font-family="Times,serif" font-size="14.00"> IntToPtrCastExpr&lt;ptr&gt;(*(IntToPtrCastExpr&lt;ptr&gt;((v5 + 156))))()</text>
<text text-anchor="start" x="8" y="-358.3" font-family="Times,serif" font-size="14.00"> return ((g2 &amp; 1) != 0)</text>
</g>
<!-- Node0x2dd7dcc0&#45;&gt;Node0x2a2af2b0 -->
<g id="edge3" class="edge"><title>Node0x2dd7dcc0&#45;&gt;Node0x2a2af2b0</title>
<path fill="none" stroke="black" d="M324.186,-617.476C312.99,-587.286 289.11,-522.896 270.763,-473.422"/>
<polygon fill="black" stroke="black" points="273.931,-471.9 267.172,-463.741 267.368,-474.334 273.931,-471.9"/>
<text text-anchor="middle" x="344.5" y="-587.8" font-family="Times,serif" font-size="14.00">v4 != 0</text>
</g>
<!-- Node0x2dd7eb50 -->
<g id="node5" class="node"><title>Node0x2dd7eb50</title>
<polygon fill="none" stroke="black" points="394.5,-482.5 394.5,-565.5 542.5,-565.5 542.5,-482.5 394.5,-482.5"/>
<text text-anchor="start" x="402.5" y="-550.3" font-family="Times,serif" font-size="14.00">0x40e2da:</text>
<text text-anchor="start" x="402.5" y="-535.3" font-family="Times,serif" font-size="14.00"> g2 = a1</text>
<text text-anchor="start" x="402.5" y="-520.3" font-family="Times,serif" font-size="14.00"> g1 = False</text>
<text text-anchor="start" x="402.5" y="-505.3" font-family="Times,serif" font-size="14.00"> g180 = (a1 == 0)</text>
<text text-anchor="start" x="402.5" y="-490.3" font-family="Times,serif" font-size="14.00"> hWndInsertAfter</text>
</g>
<!-- Node0x2dd7dcc0&#45;&gt;Node0x2dd7eb50 -->
<g id="edge4" class="edge"><title>Node0x2dd7dcc0&#45;&gt;Node0x2dd7eb50</title>
<path fill="none" stroke="black" d="M352.062,-617.391C367.455,-605.177 388.951,-588.121 409.289,-571.983"/>
<polygon fill="black" stroke="black" points="411.652,-574.576 417.31,-565.618 407.301,-569.092 411.652,-574.576"/>
<text text-anchor="middle" x="421.5" y="-587.8" font-family="Times,serif" font-size="14.00">v4 == 0</text>
</g>
<!-- Node0x2dd7e790 -->
<g id="node6" class="node"><title>Node0x2dd7e790</title>
<polygon fill="none" stroke="black" points="318.5,-23.5 318.5,-59.5 372.5,-59.5 372.5,-23.5 318.5,-23.5"/>
<text text-anchor="start" x="326.5" y="-37.8" font-family="Times,serif" font-size="14.00">exit:</text>
</g>
<!-- Node0x2a2af2b0&#45;&gt;Node0x2dd7e790 -->
<g id="edge5" class="edge"><title>Node0x2a2af2b0&#45;&gt;Node0x2dd7e790</title>
<path fill="none" stroke="black" d="M246.5,-350.471C246.5,-325.426 246.5,-295.475 246.5,-268.5 246.5,-268.5 246.5,-268.5 246.5,-123 246.5,-89.5637 280.915,-67.5714 309.163,-55.1518"/>
<polygon fill="black" stroke="black" points="310.55,-58.3659 318.448,-51.3042 307.87,-51.8992 310.55,-58.3659"/>
</g>
<!-- Node0x3a7a2130 -->
<g id="node7" class="node"><title>Node0x3a7a2130</title>
<polygon fill="none" stroke="black" points="459,-293.5 459,-331.5 558,-331.5 558,-293.5 459,-293.5"/>
<text text-anchor="start" x="467" y="-316.3" font-family="Times,serif" font-size="14.00">if (a1 != 0):</text>
<text text-anchor="start" x="467" y="-301.3" font-family="Times,serif" font-size="14.00"> else:</text>
</g>
<!-- Node0x2dd7eb50&#45;&gt;Node0x3a7a2130 -->
<g id="edge6" class="edge"><title>Node0x2dd7eb50&#45;&gt;Node0x3a7a2130</title>
<path fill="none" stroke="black" d="M488.429,-482.344C490.796,-476.304 492.925,-470.067 494.5,-464 505.243,-422.602 507.982,-372.914 508.553,-342.272"/>
<polygon fill="black" stroke="black" points="512.057,-341.936 508.677,-331.895 505.058,-341.853 512.057,-341.936"/>
</g>
<!-- Node0x2dd7f0a0 -->
<g id="node8" class="node"><title>Node0x2dd7f0a0</title>
<polygon fill="none" stroke="black" points="287,-188.5 287,-241.5 652,-241.5 652,-188.5 287,-188.5"/>
<text text-anchor="start" x="295" y="-226.3" font-family="Times,serif" font-size="14.00">v6 = *(IntToPtrCastExpr&lt;ptr&gt;((a1 + 32)))</text>
<text text-anchor="start" x="295" y="-211.3" font-family="Times,serif" font-size="14.00"> g2 = v6</text>
<text text-anchor="start" x="295" y="-196.3" font-family="Times,serif" font-size="14.00"> hWndInsertAfter = IntToPtrCastExpr&lt;ptr&gt;(v6)</text>
</g>
<!-- Node0x3a7a2130&#45;&gt;Node0x2dd7f0a0 -->
<g id="edge7" class="edge"><title>Node0x3a7a2130&#45;&gt;Node0x2dd7f0a0</title>
<path fill="none" stroke="black" d="M500.98,-293.087C496.125,-281.196 489.651,-265.343 483.837,-251.106"/>
<polygon fill="black" stroke="black" points="486.966,-249.511 479.945,-241.577 480.485,-252.158 486.966,-249.511"/>
<text text-anchor="middle" x="518.5" y="-263.8" font-family="Times,serif" font-size="14.00">a1 != 0</text>
</g>
<!-- Node0x2a4ab380 -->
<g id="node9" class="node"><title>Node0x2a4ab380</title>
<polygon fill="none" stroke="black" points="670,-197 670,-233 873,-233 873,-197 670,-197"/>
<text text-anchor="start" x="678" y="-211.3" font-family="Times,serif" font-size="14.00">hWndInsertAfter = NULL</text>
</g>
<!-- Node0x3a7a2130&#45;&gt;Node0x2a4ab380 -->
<g id="edge8" class="edge"><title>Node0x3a7a2130&#45;&gt;Node0x2a4ab380</title>
<path fill="none" stroke="black" d="M558.277,-293.425C602.906,-277.219 668.34,-253.459 714.935,-236.54"/>
<polygon fill="black" stroke="black" points="716.373,-239.741 724.577,-233.038 713.983,-233.162 716.373,-239.741"/>
<text text-anchor="middle" x="677.5" y="-263.8" font-family="Times,serif" font-size="14.00">a1 == 0</text>
</g>
<!-- Node0x2dd7ebb0 -->
<g id="node10" class="node"><title>Node0x2dd7ebb0</title>
<polygon fill="none" stroke="black" points="274.5,-97.5 274.5,-150.5 960.5,-150.5 960.5,-97.5 274.5,-97.5"/>
<text text-anchor="start" x="282.5" y="-135.3" font-family="Times,serif" font-size="14.00">hWnd = *(IntToPtrCastExpr&lt;ptr&gt;((v3 + 32)))</text>
<text text-anchor="start" x="282.5" y="-120.3" font-family="Times,serif" font-size="14.00"> g3 = v2</text>
<text text-anchor="start" x="282.5" y="-105.3" font-family="Times,serif" font-size="14.00"> return SetWindowPos(IntToPtrCastExpr&lt;ptr&gt;(hWnd), hWndInsertAfter, X, Y, cx, cy, uFlags)</text>
</g>
<!-- Node0x2dd7f0a0&#45;&gt;Node0x2dd7ebb0 -->
<g id="edge9" class="edge"><title>Node0x2dd7f0a0&#45;&gt;Node0x2dd7ebb0</title>
<path fill="none" stroke="black" d="M511.911,-188.496C528.786,-178.348 548.36,-166.578 566.036,-155.948"/>
<polygon fill="black" stroke="black" points="568.317,-158.661 575.083,-150.508 564.709,-152.662 568.317,-158.661"/>
</g>
<!-- Node0x2a4ab380&#45;&gt;Node0x2dd7ebb0 -->
<g id="edge10" class="edge"><title>Node0x2a4ab380&#45;&gt;Node0x2dd7ebb0</title>
<path fill="none" stroke="black" d="M741.807,-196.84C721.657,-185.194 694.449,-169.47 670.625,-155.702"/>
<polygon fill="black" stroke="black" points="672.091,-152.507 661.682,-150.534 668.589,-158.568 672.091,-152.507"/>
</g>
<!-- Node0x2dd7ebb0&#45;&gt;Node0x2dd7e790 -->
<g id="edge11" class="edge"><title>Node0x2dd7ebb0&#45;&gt;Node0x2dd7e790</title>
<path fill="none" stroke="black" d="M531.064,-97.4187C480.942,-82.5849 420.415,-64.6716 382.43,-53.4295"/>
<polygon fill="black" stroke="black" points="383.392,-50.0643 372.81,-50.5824 381.405,-56.7765 383.392,-50.0643"/>
</g>
</g>
</svg>
