<?xml version="1.0" encoding="UTF-8" standalone="no"?>
<!DOCTYPE svg PUBLIC "-//W3C//DTD SVG 1.1//EN"
 "http://www.w3.org/Graphics/SVG/1.1/DTD/svg11.dtd">
<!-- Generated by graphviz version 2.38.0 (20140413.2041)
 -->
<!-- Title: Control&#45;flow graph for function &#39;function_41022a()&#39;. Pages: 1 -->
<svg width="717pt" height="1025pt"
 viewBox="0.00 0.00 716.50 1025.00" xmlns="http://www.w3.org/2000/svg" xmlns:xlink="http://www.w3.org/1999/xlink">
<g id="graph0" class="graph" transform="scale(1 1) rotate(0) translate(4 1021)">
<title>Control&#45;flow graph for function &#39;function_41022a()&#39;.</title>
<polygon fill="white" stroke="none" points="-4,4 -4,-1021 712.5,-1021 712.5,4 -4,4"/>
<text text-anchor="middle" x="354.25" y="-7.8" font-family="Times,serif" font-size="14.00">Control&#45;flow graph for function &#39;function_41022a()&#39;.</text>
<!-- Node0x63aad8c0 -->
<g id="node1" class="node"><title>Node0x63aad8c0</title>
<polygon fill="none" stroke="black" points="245,-980.5 245,-1016.5 304,-1016.5 304,-980.5 245,-980.5"/>
<text text-anchor="start" x="253" y="-994.8" font-family="Times,serif" font-size="14.00">entry:</text>
</g>
<!-- Node0x63aadcf0 -->
<g id="node2" class="node"><title>Node0x63aadcf0</title>
<polygon fill="none" stroke="black" points="71,-844.5 71,-942.5 478,-942.5 478,-844.5 71,-844.5"/>
<text text-anchor="start" x="79" y="-927.3" font-family="Times,serif" font-size="14.00">0x41022a:</text>
<text text-anchor="start" x="79" y="-912.3" font-family="Times,serif" font-size="14.00"> g5 = 4502888</text>
<text text-anchor="start" x="79" y="-897.3" font-family="Times,serif" font-size="14.00"> v1</text>
<text text-anchor="start" x="79" y="-882.3" font-family="Times,serif" font-size="14.00"> v2 = function_411315(PtrToIntCastExpr&lt;int32&gt;(v1))</text>
<text text-anchor="start" x="79" y="-867.3" font-family="Times,serif" font-size="14.00"> g1 = False</text>
<text text-anchor="start" x="79" y="-852.3" font-family="Times,serif" font-size="14.00"> g180 = (v2 == 0)</text>
</g>
<!-- Node0x63aad8c0&#45;&gt;Node0x63aadcf0 -->
<g id="edge1" class="edge"><title>Node0x63aad8c0&#45;&gt;Node0x63aadcf0</title>
<path fill="none" stroke="black" d="M274.5,-980.492C274.5,-972.692 274.5,-962.94 274.5,-952.829"/>
<polygon fill="black" stroke="black" points="278,-952.659 274.5,-942.659 271,-952.659 278,-952.659"/>
</g>
<!-- Node0x63aadec0 -->
<g id="node3" class="node"><title>Node0x63aadec0</title>
<polygon fill="none" stroke="black" points="222,-770.5 222,-806.5 327,-806.5 327,-770.5 222,-770.5"/>
<text text-anchor="start" x="230" y="-784.8" font-family="Times,serif" font-size="14.00">if (v2 == 0):</text>
</g>
<!-- Node0x63aadcf0&#45;&gt;Node0x63aadec0 -->
<g id="edge2" class="edge"><title>Node0x63aadcf0&#45;&gt;Node0x63aadec0</title>
<path fill="none" stroke="black" d="M274.5,-844.317C274.5,-834.893 274.5,-825.32 274.5,-816.868"/>
<polygon fill="black" stroke="black" points="278,-816.856 274.5,-806.856 271,-816.856 278,-816.856"/>
</g>
<!-- Node0x63aa6260 -->
<g id="node4" class="node"><title>Node0x63aa6260</title>
<polygon fill="none" stroke="black" points="0,-578.5 0,-631.5 313,-631.5 313,-578.5 0,-578.5"/>
<text text-anchor="start" x="8" y="-616.3" font-family="Times,serif" font-size="14.00">0x41023d:</text>
<text text-anchor="start" x="8" y="-601.3" font-family="Times,serif" font-size="14.00"> function_40ede0(BitCastExpr&lt;ptr&gt;(v1))</text>
<text text-anchor="start" x="8" y="-586.3" font-family="Times,serif" font-size="14.00"> return 0</text>
</g>
<!-- Node0x63aadec0&#45;&gt;Node0x63aa6260 -->
<g id="edge3" class="edge"><title>Node0x63aadec0&#45;&gt;Node0x63aa6260</title>
<path fill="none" stroke="black" d="M257.442,-770.451C244.679,-757.15 227.294,-737.83 214.5,-719 197.693,-694.262 182.415,-664.02 171.763,-641.049"/>
<polygon fill="black" stroke="black" points="174.827,-639.331 167.491,-631.686 168.458,-642.237 174.827,-639.331"/>
<text text-anchor="middle" x="270.5" y="-740.8" font-family="Times,serif" font-size="14.00">v2 == 0</text>
</g>
<!-- Node0x63aae0b0 -->
<g id="node5" class="node"><title>Node0x63aae0b0</title>
<polygon fill="none" stroke="black" points="223.5,-650.5 223.5,-718.5 537.5,-718.5 537.5,-650.5 223.5,-650.5"/>
<text text-anchor="start" x="231.5" y="-703.3" font-family="Times,serif" font-size="14.00">v3 = *(IntToPtrCastExpr&lt;ptr&gt;((v2 + 4)))</text>
<text text-anchor="start" x="231.5" y="-688.3" font-family="Times,serif" font-size="14.00"> g1 = False</text>
<text text-anchor="start" x="231.5" y="-673.3" font-family="Times,serif" font-size="14.00"> g180 = (v3 == 0)</text>
<text text-anchor="start" x="231.5" y="-658.3" font-family="Times,serif" font-size="14.00"> result = v3</text>
</g>
<!-- Node0x63aadec0&#45;&gt;Node0x63aae0b0 -->
<g id="edge4" class="edge"><title>Node0x63aadec0&#45;&gt;Node0x63aae0b0</title>
<path fill="none" stroke="black" d="M292.481,-770.197C305.185,-757.973 322.746,-741.075 338.842,-725.586"/>
<polygon fill="black" stroke="black" points="341.333,-728.046 346.112,-718.59 336.48,-723.002 341.333,-728.046"/>
<text text-anchor="middle" x="351.5" y="-740.8" font-family="Times,serif" font-size="14.00">v2 != 0</text>
</g>
<!-- Node0xec044d0 -->
<g id="node6" class="node"><title>Node0xec044d0</title>
<polygon fill="none" stroke="black" points="322.5,-23.5 322.5,-59.5 376.5,-59.5 376.5,-23.5 322.5,-23.5"/>
<text text-anchor="start" x="330.5" y="-37.8" font-family="Times,serif" font-size="14.00">exit:</text>
</g>
<!-- Node0x63aa6260&#45;&gt;Node0xec044d0 -->
<g id="edge5" class="edge"><title>Node0x63aa6260&#45;&gt;Node0xec044d0</title>
<path fill="none" stroke="black" d="M153.476,-578.459C151.21,-557.118 148.5,-525.869 148.5,-498.5 148.5,-498.5 148.5,-498.5 148.5,-115.5 148.5,-81.0022 254.426,-58.1207 312.485,-48.1701"/>
<polygon fill="black" stroke="black" points="313.104,-51.6153 322.392,-46.5179 311.953,-44.7107 313.104,-51.6153"/>
</g>
<!-- Node0x63aae110 -->
<g id="node7" class="node"><title>Node0x63aae110</title>
<polygon fill="none" stroke="black" points="349,-523.5 349,-559.5 454,-559.5 454,-523.5 349,-523.5"/>
<text text-anchor="start" x="357" y="-537.8" font-family="Times,serif" font-size="14.00">if (v3 == 0):</text>
</g>
<!-- Node0x63aae0b0&#45;&gt;Node0x63aae110 -->
<g id="edge6" class="edge"><title>Node0x63aae0b0&#45;&gt;Node0x63aae110</title>
<path fill="none" stroke="black" d="M385.424,-650.442C389.087,-625.848 394.025,-592.69 397.458,-569.64"/>
<polygon fill="black" stroke="black" points="400.953,-569.931 398.964,-559.524 394.029,-568.9 400.953,-569.931"/>
</g>
<!-- Node0x63aa6300 -->
<g id="node8" class="node"><title>Node0x63aa6300</title>
<polygon fill="none" stroke="black" points="176,-388.5 176,-471.5 627,-471.5 627,-388.5 176,-388.5"/>
<text text-anchor="start" x="184" y="-456.3" font-family="Times,serif" font-size="14.00">0x410249:</text>
<text text-anchor="start" x="184" y="-441.3" font-family="Times,serif" font-size="14.00"> g5 = 4502884</text>
<text text-anchor="start" x="184" y="-426.3" font-family="Times,serif" font-size="14.00"> v4 = function_410e1e(BitCastExpr&lt;ptr&gt;(function_4101fb))</text>
<text text-anchor="start" x="184" y="-411.3" font-family="Times,serif" font-size="14.00"> g1 = False</text>
<text text-anchor="start" x="184" y="-396.3" font-family="Times,serif" font-size="14.00"> g180 = (v4 == 0)</text>
</g>
<!-- Node0x63aae110&#45;&gt;Node0x63aa6300 -->
<g id="edge7" class="edge"><title>Node0x63aae110&#45;&gt;Node0x63aa6300</title>
<path fill="none" stroke="black" d="M401.5,-523.391C401.5,-512.15 401.5,-496.807 401.5,-481.853"/>
<polygon fill="black" stroke="black" points="405,-481.618 401.5,-471.618 398,-481.618 405,-481.618"/>
<text text-anchor="middle" x="431.5" y="-493.8" font-family="Times,serif" font-size="14.00">v3 == 0</text>
</g>
<!-- Node0x63aadaa0 -->
<g id="node9" class="node"><title>Node0x63aadaa0</title>
<polygon fill="none" stroke="black" points="465,-97.5 465,-135.5 578,-135.5 578,-97.5 465,-97.5"/>
<text text-anchor="start" x="473" y="-120.3" font-family="Times,serif" font-size="14.00">0x41025c:</text>
<text text-anchor="start" x="473" y="-105.3" font-family="Times,serif" font-size="14.00"> return result</text>
</g>
<!-- Node0x63aae110&#45;&gt;Node0x63aadaa0 -->
<g id="edge8" class="edge"><title>Node0x63aae110&#45;&gt;Node0x63aadaa0</title>
<path fill="none" stroke="black" d="M454.229,-540.103C528.376,-536.445 654.5,-517.509 654.5,-431 654.5,-431 654.5,-431 654.5,-243.5 654.5,-196.092 609.414,-161.175 571.743,-140.276"/>
<polygon fill="black" stroke="black" points="573.322,-137.151 562.853,-135.52 570.02,-143.323 573.322,-137.151"/>
<text text-anchor="middle" x="681.5" y="-328.8" font-family="Times,serif" font-size="14.00">v3 != 0</text>
</g>
<!-- Node0x63aad460 -->
<g id="node10" class="node"><title>Node0x63aad460</title>
<polygon fill="none" stroke="black" points="349,-314.5 349,-350.5 454,-350.5 454,-314.5 349,-314.5"/>
<text text-anchor="start" x="357" y="-328.8" font-family="Times,serif" font-size="14.00">if (v4 == 0):</text>
</g>
<!-- Node0x63aa6300&#45;&gt;Node0x63aad460 -->
<g id="edge9" class="edge"><title>Node0x63aa6300&#45;&gt;Node0x63aad460</title>
<path fill="none" stroke="black" d="M401.5,-388.499C401.5,-379.206 401.5,-369.537 401.5,-360.946"/>
<polygon fill="black" stroke="black" points="405,-360.749 401.5,-350.749 398,-360.749 405,-360.749"/>
</g>
<!-- Node0x63aadaa0&#45;&gt;Node0xec044d0 -->
<g id="edge10" class="edge"><title>Node0x63aadaa0&#45;&gt;Node0xec044d0</title>
<path fill="none" stroke="black" d="M478.983,-97.4551C450.454,-85.3467 413.261,-69.5614 386.06,-58.0169"/>
<polygon fill="black" stroke="black" points="387.098,-54.6553 376.526,-53.9702 384.364,-61.099 387.098,-54.6553"/>
</g>
<!-- Node0x63aae740 -->
<g id="node11" class="node"><title>Node0x63aae740</title>
<polygon fill="none" stroke="black" points="193,-154.5 193,-207.5 506,-207.5 506,-154.5 193,-154.5"/>
<text text-anchor="start" x="201" y="-192.3" font-family="Times,serif" font-size="14.00">0x41023d:</text>
<text text-anchor="start" x="201" y="-177.3" font-family="Times,serif" font-size="14.00"> function_40ede0(BitCastExpr&lt;ptr&gt;(v1))</text>
<text text-anchor="start" x="201" y="-162.3" font-family="Times,serif" font-size="14.00"> return 0</text>
</g>
<!-- Node0x63aad460&#45;&gt;Node0x63aae740 -->
<g id="edge11" class="edge"><title>Node0x63aad460&#45;&gt;Node0x63aae740</title>
<path fill="none" stroke="black" d="M393.275,-314.338C390.643,-308.571 387.814,-302.063 385.5,-296 375.615,-270.105 366.246,-240.203 359.546,-217.523"/>
<polygon fill="black" stroke="black" points="362.825,-216.268 356.662,-207.65 356.106,-218.23 362.825,-216.268"/>
<text text-anchor="middle" x="415.5" y="-284.8" font-family="Times,serif" font-size="14.00">v4 == 0</text>
</g>
<!-- Node0x63aae6e0 -->
<g id="node12" class="node"><title>Node0x63aae6e0</title>
<polygon fill="none" stroke="black" points="462,-226.5 462,-262.5 559,-262.5 559,-226.5 462,-226.5"/>
<text text-anchor="start" x="470" y="-240.8" font-family="Times,serif" font-size="14.00">result = v4</text>
</g>
<!-- Node0x63aad460&#45;&gt;Node0x63aae6e0 -->
<g id="edge12" class="edge"><title>Node0x63aad460&#45;&gt;Node0x63aae6e0</title>
<path fill="none" stroke="black" d="M423.296,-314.303C439.782,-301.296 462.603,-283.29 480.765,-268.961"/>
<polygon fill="black" stroke="black" points="483.059,-271.609 488.742,-262.667 478.723,-266.113 483.059,-271.609"/>
<text text-anchor="middle" x="490.5" y="-284.8" font-family="Times,serif" font-size="14.00">v4 != 0</text>
</g>
<!-- Node0x63aae740&#45;&gt;Node0xec044d0 -->
<g id="edge13" class="edge"><title>Node0x63aae740&#45;&gt;Node0xec044d0</title>
<path fill="none" stroke="black" d="M349.5,-154.46C349.5,-130.375 349.5,-94.3933 349.5,-69.7615"/>
<polygon fill="black" stroke="black" points="353,-69.6472 349.5,-59.6473 346,-69.6473 353,-69.6472"/>
</g>
<!-- Node0x63aae6e0&#45;&gt;Node0x63aadaa0 -->
<g id="edge14" class="edge"><title>Node0x63aae6e0&#45;&gt;Node0x63aadaa0</title>
<path fill="none" stroke="black" d="M512.006,-226.244C513.811,-205.578 516.859,-170.663 519.014,-145.978"/>
<polygon fill="black" stroke="black" points="522.522,-146.038 519.905,-135.771 515.548,-145.429 522.522,-146.038"/>
</g>
</g>
</svg>
