<?xml version="1.0" encoding="UTF-8" standalone="no"?>
<!DOCTYPE svg PUBLIC "-//W3C//DTD SVG 1.1//EN"
 "http://www.w3.org/Graphics/SVG/1.1/DTD/svg11.dtd">
<!-- Generated by graphviz version 2.38.0 (20140413.2041)
 -->
<!-- Title: Control&#45;flow graph for function &#39;function_40d625(*a1, **wParam, *lParam, *a4)&#39;. Pages: 1 -->
<svg width="1092pt" height="534pt"
 viewBox="0.00 0.00 1092.00 534.00" xmlns="http://www.w3.org/2000/svg" xmlns:xlink="http://www.w3.org/1999/xlink">
<g id="graph0" class="graph" transform="scale(1 1) rotate(0) translate(4 530)">
<title>Control&#45;flow graph for function &#39;function_40d625(*a1, **wParam, *lParam, *a4)&#39;.</title>
<polygon fill="white" stroke="none" points="-4,4 -4,-530 1088,-530 1088,4 -4,4"/>
<text text-anchor="middle" x="542" y="-7.8" font-family="Times,serif" font-size="14.00">Control&#45;flow graph for function &#39;function_40d625(*a1, **wParam, *lParam, *a4)&#39;.</text>
<!-- Node0x2738e7e0 -->
<g id="node1" class="node"><title>Node0x2738e7e0</title>
<polygon fill="none" stroke="black" points="404.5,-442.5 404.5,-525.5 483.5,-525.5 483.5,-442.5 404.5,-442.5"/>
<text text-anchor="start" x="412.5" y="-510.3" font-family="Times,serif" font-size="14.00">entry:</text>
<text text-anchor="start" x="412.5" y="-495.3" font-family="Times,serif" font-size="14.00"> a1</text>
<text text-anchor="start" x="412.5" y="-480.3" font-family="Times,serif" font-size="14.00"> wParam</text>
<text text-anchor="start" x="412.5" y="-465.3" font-family="Times,serif" font-size="14.00"> lParam</text>
<text text-anchor="start" x="412.5" y="-450.3" font-family="Times,serif" font-size="14.00"> a4</text>
</g>
<!-- Node0x63ab9940 -->
<g id="node2" class="node"><title>Node0x63ab9940</title>
<polygon fill="none" stroke="black" points="294,-321.5 294,-404.5 594,-404.5 594,-321.5 294,-321.5"/>
<text text-anchor="start" x="302" y="-389.3" font-family="Times,serif" font-size="14.00">v1 = g3</text>
<text text-anchor="start" x="302" y="-374.3" font-family="Times,serif" font-size="14.00"> v2 = IntToPtrCastExpr&lt;ptr&gt;(v1)</text>
<text text-anchor="start" x="302" y="-359.3" font-family="Times,serif" font-size="14.00"> v3 = v2</text>
<text text-anchor="start" x="302" y="-344.3" font-family="Times,serif" font-size="14.00"> g3 = PtrToIntCastExpr&lt;int32&gt;(&amp;(v3))</text>
<text text-anchor="start" x="302" y="-329.3" font-family="Times,serif" font-size="14.00"> v4 = g5</text>
</g>
<!-- Node0x2738e7e0&#45;&gt;Node0x63ab9940 -->
<g id="edge1" class="edge"><title>Node0x2738e7e0&#45;&gt;Node0x63ab9940</title>
<path fill="none" stroke="black" d="M444,-442.38C444,-433.574 444,-424.153 444,-415.006"/>
<polygon fill="black" stroke="black" points="447.5,-414.841 444,-404.841 440.5,-414.841 447.5,-414.841"/>
</g>
<!-- Node0x13684b30 -->
<g id="node3" class="node"><title>Node0x13684b30</title>
<polygon fill="none" stroke="black" points="266,-247.5 266,-283.5 622,-283.5 622,-247.5 266,-247.5"/>
<text text-anchor="start" x="274" y="-261.8" font-family="Times,serif" font-size="14.00">if (*(IntToPtrCastExpr&lt;ptr&gt;((v4 + 80))) == 0):</text>
</g>
<!-- Node0x63ab9940&#45;&gt;Node0x13684b30 -->
<g id="edge2" class="edge"><title>Node0x63ab9940&#45;&gt;Node0x13684b30</title>
<path fill="none" stroke="black" d="M444,-321.499C444,-312.206 444,-302.537 444,-293.946"/>
<polygon fill="black" stroke="black" points="447.5,-293.749 444,-283.749 440.5,-293.749 447.5,-293.749"/>
</g>
<!-- Node0x18aa9c50 -->
<g id="node4" class="node"><title>Node0x18aa9c50</title>
<polygon fill="none" stroke="black" points="0,-112.5 0,-180.5 338,-180.5 338,-112.5 0,-112.5"/>
<text text-anchor="start" x="8" y="-165.3" font-family="Times,serif" font-size="14.00">0x40d66a:</text>
<text text-anchor="start" x="8" y="-150.3" font-family="Times,serif" font-size="14.00"> g3 = v1</text>
<text text-anchor="start" x="8" y="-135.3" font-family="Times,serif" font-size="14.00"> v5</text>
<text text-anchor="start" x="8" y="-120.3" font-family="Times,serif" font-size="14.00"> return function_40d2c9(v2, v5, a1, wParam)</text>
</g>
<!-- Node0x13684b30&#45;&gt;Node0x18aa9c50 -->
<g id="edge3" class="edge"><title>Node0x13684b30&#45;&gt;Node0x18aa9c50</title>
<path fill="none" stroke="black" d="M384.096,-247.417C367.067,-242.049 348.634,-235.746 332,-229 300.65,-216.285 267.051,-199.973 238.552,-185.288"/>
<polygon fill="black" stroke="black" points="239.976,-182.083 229.488,-180.583 236.751,-188.296 239.976,-182.083"/>
<text text-anchor="middle" x="487.5" y="-217.8" font-family="Times,serif" font-size="14.00">*(IntToPtrCastExpr&lt;ptr&gt;((v4 + 80))) == 0</text>
</g>
<!-- Node0x307b8980 -->
<g id="node5" class="node"><title>Node0x307b8980</title>
<polygon fill="none" stroke="black" points="356,-97.5 356,-195.5 1084,-195.5 1084,-97.5 356,-97.5"/>
<text text-anchor="start" x="364" y="-180.3" font-family="Times,serif" font-size="14.00">v6 = PtrToIntCastExpr&lt;int32&gt;(a1)</text>
<text text-anchor="start" x="364" y="-165.3" font-family="Times,serif" font-size="14.00"> g9 = v6</text>
<text text-anchor="start" x="364" y="-150.3" font-family="Times,serif" font-size="14.00"> Msg = (v6 + 8192)</text>
<text text-anchor="start" x="364" y="-135.3" font-family="Times,serif" font-size="14.00"> g2 = Msg</text>
<text text-anchor="start" x="364" y="-120.3" font-family="Times,serif" font-size="14.00"> hWnd = *(IntToPtrCastExpr&lt;ptr&gt;((v4 + 32)))</text>
<text text-anchor="start" x="364" y="-105.3" font-family="Times,serif" font-size="14.00"> return SendMessageA(IntToPtrCastExpr&lt;ptr&gt;(hWnd), Msg, BitCastExpr&lt;ptr&gt;(wParam), lParam)</text>
</g>
<!-- Node0x13684b30&#45;&gt;Node0x307b8980 -->
<g id="edge4" class="edge"><title>Node0x13684b30&#45;&gt;Node0x307b8980</title>
<path fill="none" stroke="black" d="M597.618,-247.434C613.439,-242.665 628.873,-236.629 643,-229 655.266,-222.376 666.696,-213.079 676.797,-203.125"/>
<polygon fill="black" stroke="black" points="679.461,-205.404 683.91,-195.788 674.436,-200.531 679.461,-205.404"/>
<text text-anchor="middle" x="815.5" y="-217.8" font-family="Times,serif" font-size="14.00">*(IntToPtrCastExpr&lt;ptr&gt;((v4 + 80))) != 0</text>
</g>
<!-- Node0x14d2af00 -->
<g id="node6" class="node"><title>Node0x14d2af00</title>
<polygon fill="none" stroke="black" points="483,-23.5 483,-59.5 537,-59.5 537,-23.5 483,-23.5"/>
<text text-anchor="start" x="491" y="-37.8" font-family="Times,serif" font-size="14.00">exit:</text>
</g>
<!-- Node0x18aa9c50&#45;&gt;Node0x14d2af00 -->
<g id="edge5" class="edge"><title>Node0x18aa9c50&#45;&gt;Node0x14d2af00</title>
<path fill="none" stroke="black" d="M278.302,-112.485C345.271,-92.2567 426.765,-67.6413 473.087,-53.6496"/>
<polygon fill="black" stroke="black" points="474.135,-56.9893 482.696,-50.7472 472.111,-50.2883 474.135,-56.9893"/>
</g>
<!-- Node0x307b8980&#45;&gt;Node0x14d2af00 -->
<g id="edge6" class="edge"><title>Node0x307b8980&#45;&gt;Node0x14d2af00</title>
<path fill="none" stroke="black" d="M622.07,-97.4679C595.179,-84.2785 567.667,-70.7844 546.632,-60.467"/>
<polygon fill="black" stroke="black" points="547.967,-57.2238 537.448,-55.9626 544.885,-63.5086 547.967,-57.2238"/>
</g>
</g>
</svg>
