<?xml version="1.0" encoding="UTF-8" standalone="no"?>
<!DOCTYPE svg PUBLIC "-//W3C//DTD SVG 1.1//EN"
 "http://www.w3.org/Graphics/SVG/1.1/DTD/svg11.dtd">
<!-- Generated by graphviz version 2.38.0 (20140413.2041)
 -->
<!-- Title: Control&#45;flow graph for function &#39;function_414398(*a1, *a2, a3)&#39;. Pages: 1 -->
<svg width="495pt" height="398pt"
 viewBox="0.00 0.00 495.00 398.00" xmlns="http://www.w3.org/2000/svg" xmlns:xlink="http://www.w3.org/1999/xlink">
<g id="graph0" class="graph" transform="scale(1 1) rotate(0) translate(4 394)">
<title>Control&#45;flow graph for function &#39;function_414398(*a1, *a2, a3)&#39;.</title>
<polygon fill="white" stroke="none" points="-4,4 -4,-394 491,-394 491,4 -4,4"/>
<text text-anchor="middle" x="243.5" y="-7.8" font-family="Times,serif" font-size="14.00">Control&#45;flow graph for function &#39;function_414398(*a1, *a2, a3)&#39;.</text>
<!-- Node0x11193d30 -->
<g id="node1" class="node"><title>Node0x11193d30</title>
<polygon fill="none" stroke="black" points="214,-321.5 214,-389.5 273,-389.5 273,-321.5 214,-321.5"/>
<text text-anchor="start" x="222" y="-374.3" font-family="Times,serif" font-size="14.00">entry:</text>
<text text-anchor="start" x="222" y="-359.3" font-family="Times,serif" font-size="14.00"> a1</text>
<text text-anchor="start" x="222" y="-344.3" font-family="Times,serif" font-size="14.00"> a2</text>
<text text-anchor="start" x="222" y="-329.3" font-family="Times,serif" font-size="14.00"> a3</text>
</g>
<!-- Node0x3953d590 -->
<g id="node2" class="node"><title>Node0x3953d590</title>
<polygon fill="none" stroke="black" points="-2.84217e-14,-96.5 -2.84217e-14,-284.5 487,-284.5 487,-96.5 -2.84217e-14,-96.5"/>
<text text-anchor="start" x="8" y="-269.3" font-family="Times,serif" font-size="14.00">v1 = IntToPtrCastExpr&lt;ptr&gt;(g5)</text>
<text text-anchor="start" x="8" y="-254.3" font-family="Times,serif" font-size="14.00"> v2 = 0</text>
<text text-anchor="start" x="8" y="-239.3" font-family="Times,serif" font-size="14.00"> v1[&#39;8&#39;] = IntToPtrCastExpr&lt;ptr&gt;(ExtCastExpr&lt;int32&gt;(*(a1)))</text>
<text text-anchor="start" x="8" y="-224.3" font-family="Times,serif" font-size="14.00"> v1[&#39;0&#39;] = v2</text>
<text text-anchor="start" x="8" y="-209.3" font-family="Times,serif" font-size="14.00"> v1[&#39;1&#39;] = v2</text>
<text text-anchor="start" x="8" y="-194.3" font-family="Times,serif" font-size="14.00"> v1[&#39;2&#39;] = v2</text>
<text text-anchor="start" x="8" y="-179.3" font-family="Times,serif" font-size="14.00"> v1[&#39;3&#39;] = v2</text>
<text text-anchor="start" x="8" y="-164.3" font-family="Times,serif" font-size="14.00"> v1[&#39;5&#39;] = v2</text>
<text text-anchor="start" x="8" y="-149.3" font-family="Times,serif" font-size="14.00"> v1[&#39;6&#39;] = v2</text>
<text text-anchor="start" x="8" y="-134.3" font-family="Times,serif" font-size="14.00"> v1[&#39;9&#39;] = IntToPtrCastExpr&lt;ptr&gt;(PtrToIntCastExpr&lt;int32&gt;(a2))</text>
<text text-anchor="start" x="8" y="-119.3" font-family="Times,serif" font-size="14.00"> v1[&#39;4&#39;] = v2</text>
<text text-anchor="start" x="8" y="-104.3" font-family="Times,serif" font-size="14.00"> return g5</text>
</g>
<!-- Node0x11193d30&#45;&gt;Node0x3953d590 -->
<g id="edge1" class="edge"><title>Node0x11193d30&#45;&gt;Node0x3953d590</title>
<path fill="none" stroke="black" d="M243.5,-321.121C243.5,-313.187 243.5,-304.304 243.5,-295.009"/>
<polygon fill="black" stroke="black" points="247,-294.786 243.5,-284.786 240,-294.786 247,-294.786"/>
</g>
<!-- Node0x3953d510 -->
<g id="node3" class="node"><title>Node0x3953d510</title>
<polygon fill="none" stroke="black" points="216.5,-23.5 216.5,-59.5 270.5,-59.5 270.5,-23.5 216.5,-23.5"/>
<text text-anchor="start" x="224.5" y="-37.8" font-family="Times,serif" font-size="14.00">exit:</text>
</g>
<!-- Node0x3953d590&#45;&gt;Node0x3953d510 -->
<g id="edge2" class="edge"><title>Node0x3953d590&#45;&gt;Node0x3953d510</title>
<path fill="none" stroke="black" d="M243.5,-96.4027C243.5,-86.9531 243.5,-77.9697 243.5,-70.142"/>
<polygon fill="black" stroke="black" points="247,-69.9174 243.5,-59.9174 240,-69.9174 247,-69.9174"/>
</g>
</g>
</svg>
