<?xml version="1.0" encoding="UTF-8" standalone="no"?>
<!DOCTYPE svg PUBLIC "-//W3C//DTD SVG 1.1//EN"
 "http://www.w3.org/Graphics/SVG/1.1/DTD/svg11.dtd">
<!-- Generated by graphviz version 2.38.0 (20140413.2041)
 -->
<!-- Title: Control&#45;flow graph for function &#39;function_42d831(a1)&#39;. Pages: 1 -->
<svg width="435pt" height="520pt"
 viewBox="0.00 0.00 434.50 520.00" xmlns="http://www.w3.org/2000/svg" xmlns:xlink="http://www.w3.org/1999/xlink">
<g id="graph0" class="graph" transform="scale(1 1) rotate(0) translate(4 516)">
<title>Control&#45;flow graph for function &#39;function_42d831(a1)&#39;.</title>
<polygon fill="white" stroke="none" points="-4,4 -4,-516 430.5,-516 430.5,4 -4,4"/>
<text text-anchor="middle" x="213.25" y="-7.8" font-family="Times,serif" font-size="14.00">Control&#45;flow graph for function &#39;function_42d831(a1)&#39;.</text>
<!-- Node0xc6484750 -->
<g id="node1" class="node"><title>Node0xc6484750</title>
<polygon fill="none" stroke="black" points="216,-473.5 216,-511.5 275,-511.5 275,-473.5 216,-473.5"/>
<text text-anchor="start" x="224" y="-496.3" font-family="Times,serif" font-size="14.00">entry:</text>
<text text-anchor="start" x="224" y="-481.3" font-family="Times,serif" font-size="14.00"> a1</text>
</g>
<!-- Node0x9f443e40 -->
<g id="node2" class="node"><title>Node0x9f443e40</title>
<polygon fill="none" stroke="black" points="64.5,-352.5 64.5,-435.5 426.5,-435.5 426.5,-352.5 64.5,-352.5"/>
<text text-anchor="start" x="72.5" y="-420.3" font-family="Times,serif" font-size="14.00">0x42d831:</text>
<text text-anchor="start" x="72.5" y="-405.3" font-family="Times,serif" font-size="14.00"> __getptd()</text>
<text text-anchor="start" x="72.5" y="-390.3" font-family="Times,serif" font-size="14.00"> result = *(IntToPtrCastExpr&lt;ptr&gt;((g2 + 124)))</text>
<text text-anchor="start" x="72.5" y="-375.3" font-family="Times,serif" font-size="14.00"> g1 = False</text>
<text text-anchor="start" x="72.5" y="-360.3" font-family="Times,serif" font-size="14.00"> g180 = (result == 0)</text>
</g>
<!-- Node0xc6484750&#45;&gt;Node0x9f443e40 -->
<g id="edge1" class="edge"><title>Node0xc6484750&#45;&gt;Node0x9f443e40</title>
<path fill="none" stroke="black" d="M245.5,-473.349C245.5,-465.488 245.5,-455.852 245.5,-446.061"/>
<polygon fill="black" stroke="black" points="249,-445.87 245.5,-435.87 242,-445.87 249,-445.87"/>
</g>
<!-- Node0x25cdae20 -->
<g id="node3" class="node"><title>Node0x25cdae20</title>
<polygon fill="none" stroke="black" points="183.5,-278.5 183.5,-314.5 307.5,-314.5 307.5,-278.5 183.5,-278.5"/>
<text text-anchor="start" x="191.5" y="-292.8" font-family="Times,serif" font-size="14.00">if (result != 0):</text>
</g>
<!-- Node0x9f443e40&#45;&gt;Node0x25cdae20 -->
<g id="edge2" class="edge"><title>Node0x9f443e40&#45;&gt;Node0x25cdae20</title>
<path fill="none" stroke="black" d="M245.5,-352.499C245.5,-343.206 245.5,-333.537 245.5,-324.946"/>
<polygon fill="black" stroke="black" points="249,-324.749 245.5,-314.749 242,-324.749 249,-324.749"/>
</g>
<!-- Node0x9f454f00 -->
<g id="node4" class="node"><title>Node0x9f454f00</title>
<polygon fill="none" stroke="black" points="0,-188.5 0,-226.5 257,-226.5 257,-188.5 0,-188.5"/>
<text text-anchor="start" x="8" y="-211.3" font-family="Times,serif" font-size="14.00">0x42d83d:</text>
<text text-anchor="start" x="8" y="-196.3" font-family="Times,serif" font-size="14.00"> IntToPtrCastExpr&lt;ptr&gt;(result)()</text>
</g>
<!-- Node0x25cdae20&#45;&gt;Node0x9f454f00 -->
<g id="edge3" class="edge"><title>Node0x25cdae20&#45;&gt;Node0x9f454f00</title>
<path fill="none" stroke="black" d="M222.385,-278.312C204.786,-265.226 180.345,-247.052 160.812,-232.527"/>
<polygon fill="black" stroke="black" points="162.889,-229.71 152.776,-226.551 158.712,-235.327 162.889,-229.71"/>
<text text-anchor="middle" x="237" y="-248.8" font-family="Times,serif" font-size="14.00">result != 0</text>
</g>
<!-- Node0x3af85420 -->
<g id="node5" class="node"><title>Node0x3af85420</title>
<polygon fill="none" stroke="black" points="143,-97.5 143,-150.5 348,-150.5 348,-97.5 143,-97.5"/>
<text text-anchor="start" x="151" y="-135.3" font-family="Times,serif" font-size="14.00">0x42d83f:</text>
<text text-anchor="start" x="151" y="-120.3" font-family="Times,serif" font-size="14.00"> _qm_terminate__YAXXZ()</text>
<text text-anchor="start" x="151" y="-105.3" font-family="Times,serif" font-size="14.00"> return result</text>
</g>
<!-- Node0x25cdae20&#45;&gt;Node0x3af85420 -->
<g id="edge4" class="edge"><title>Node0x25cdae20&#45;&gt;Node0x3af85420</title>
<path fill="none" stroke="black" d="M266.948,-278.337C272.03,-273.051 276.765,-266.81 279.5,-260 292.772,-226.954 279.503,-187.226 265.849,-159.456"/>
<polygon fill="black" stroke="black" points="268.936,-157.806 261.241,-150.523 262.715,-161.015 268.936,-157.806"/>
<text text-anchor="middle" x="328" y="-203.8" font-family="Times,serif" font-size="14.00">result == 0</text>
</g>
<!-- Node0x9f454f00&#45;&gt;Node0x3af85420 -->
<g id="edge5" class="edge"><title>Node0x9f454f00&#45;&gt;Node0x3af85420</title>
<path fill="none" stroke="black" d="M154.466,-188.413C167.872,-179.074 184.619,-167.408 200.082,-156.637"/>
<polygon fill="black" stroke="black" points="202.306,-159.354 208.511,-150.766 198.305,-153.61 202.306,-159.354"/>
</g>
<!-- Node0x10ce4350 -->
<g id="node6" class="node"><title>Node0x10ce4350</title>
<polygon fill="none" stroke="black" points="218.5,-23.5 218.5,-59.5 272.5,-59.5 272.5,-23.5 218.5,-23.5"/>
<text text-anchor="start" x="226.5" y="-37.8" font-family="Times,serif" font-size="14.00">exit:</text>
</g>
<!-- Node0x3af85420&#45;&gt;Node0x10ce4350 -->
<g id="edge6" class="edge"><title>Node0x3af85420&#45;&gt;Node0x10ce4350</title>
<path fill="none" stroke="black" d="M245.5,-97.0862C245.5,-88.4596 245.5,-78.8224 245.5,-70.0748"/>
<polygon fill="black" stroke="black" points="249,-69.9735 245.5,-59.9735 242,-69.9735 249,-69.9735"/>
</g>
</g>
</svg>
