<?xml version="1.0" encoding="UTF-8" standalone="no"?>
<!DOCTYPE svg PUBLIC "-//W3C//DTD SVG 1.1//EN"
 "http://www.w3.org/Graphics/SVG/1.1/DTD/svg11.dtd">
<!-- Generated by graphviz version 2.38.0 (20140413.2041)
 -->
<!-- Title: Control&#45;flow graph for function &#39;function_416361(a1, a2, a3, a4, a5)&#39;. Pages: 1 -->
<svg width="1390pt" height="1703pt"
 viewBox="0.00 0.00 1390.00 1703.00" xmlns="http://www.w3.org/2000/svg" xmlns:xlink="http://www.w3.org/1999/xlink">
<g id="graph0" class="graph" transform="scale(1 1) rotate(0) translate(4 1699)">
<title>Control&#45;flow graph for function &#39;function_416361(a1, a2, a3, a4, a5)&#39;.</title>
<polygon fill="white" stroke="none" points="-4,4 -4,-1699 1386,-1699 1386,4 -4,4"/>
<text text-anchor="middle" x="691" y="-7.8" font-family="Times,serif" font-size="14.00">Control&#45;flow graph for function &#39;function_416361(a1, a2, a3, a4, a5)&#39;.</text>
<!-- Node0x27377d70 -->
<g id="node1" class="node"><title>Node0x27377d70</title>
<polygon fill="none" stroke="black" points="380,-1596.5 380,-1694.5 439,-1694.5 439,-1596.5 380,-1596.5"/>
<text text-anchor="start" x="388" y="-1679.3" font-family="Times,serif" font-size="14.00">entry:</text>
<text text-anchor="start" x="388" y="-1664.3" font-family="Times,serif" font-size="14.00"> a1</text>
<text text-anchor="start" x="388" y="-1649.3" font-family="Times,serif" font-size="14.00"> a2</text>
<text text-anchor="start" x="388" y="-1634.3" font-family="Times,serif" font-size="14.00"> a3</text>
<text text-anchor="start" x="388" y="-1619.3" font-family="Times,serif" font-size="14.00"> a4</text>
<text text-anchor="start" x="388" y="-1604.3" font-family="Times,serif" font-size="14.00"> a5</text>
</g>
<!-- Node0x19a153a0 -->
<g id="node2" class="node"><title>Node0x19a153a0</title>
<polygon fill="none" stroke="black" points="373,-1430.5 373,-1558.5 446,-1558.5 446,-1430.5 373,-1430.5"/>
<text text-anchor="start" x="381" y="-1543.3" font-family="Times,serif" font-size="14.00">v1 = g5</text>
<text text-anchor="start" x="381" y="-1528.3" font-family="Times,serif" font-size="14.00"> v2</text>
<text text-anchor="start" x="381" y="-1513.3" font-family="Times,serif" font-size="14.00"> v3</text>
<text text-anchor="start" x="381" y="-1498.3" font-family="Times,serif" font-size="14.00"> v4</text>
<text text-anchor="start" x="381" y="-1483.3" font-family="Times,serif" font-size="14.00"> v5</text>
<text text-anchor="start" x="381" y="-1468.3" font-family="Times,serif" font-size="14.00"> result</text>
<text text-anchor="start" x="381" y="-1453.3" font-family="Times,serif" font-size="14.00"> v6</text>
<text text-anchor="start" x="381" y="-1438.3" font-family="Times,serif" font-size="14.00"> v7</text>
</g>
<!-- Node0x27377d70&#45;&gt;Node0x19a153a0 -->
<g id="edge1" class="edge"><title>Node0x27377d70&#45;&gt;Node0x19a153a0</title>
<path fill="none" stroke="black" d="M409.5,-1596.12C409.5,-1587.33 409.5,-1577.97 409.5,-1568.64"/>
<polygon fill="black" stroke="black" points="413,-1568.56 409.5,-1558.56 406,-1568.56 413,-1568.56"/>
</g>
<!-- Node0xbf851d00 -->
<g id="node3" class="node"><title>Node0xbf851d00</title>
<polygon fill="none" stroke="black" points="231.5,-1356.5 231.5,-1392.5 587.5,-1392.5 587.5,-1356.5 231.5,-1356.5"/>
<text text-anchor="start" x="239.5" y="-1370.8" font-family="Times,serif" font-size="14.00">if (*(IntToPtrCastExpr&lt;ptr&gt;((v1 + 80))) == 0):</text>
</g>
<!-- Node0x19a153a0&#45;&gt;Node0xbf851d00 -->
<g id="edge2" class="edge"><title>Node0x19a153a0&#45;&gt;Node0xbf851d00</title>
<path fill="none" stroke="black" d="M409.5,-1430.35C409.5,-1420.75 409.5,-1411.3 409.5,-1403.02"/>
<polygon fill="black" stroke="black" points="413,-1402.89 409.5,-1392.89 406,-1402.89 413,-1402.89"/>
</g>
<!-- Node0xd25a53e0 -->
<g id="node4" class="node"><title>Node0xd25a53e0</title>
<polygon fill="none" stroke="black" points="0,-954.5 0,-1247.5 485,-1247.5 485,-954.5 0,-954.5"/>
<text text-anchor="start" x="8" y="-1232.3" font-family="Times,serif" font-size="14.00">0x416375:</text>
<text text-anchor="start" x="8" y="-1217.3" font-family="Times,serif" font-size="14.00"> function_40ede0(NULL)</text>
<text text-anchor="start" x="8" y="-1202.3" font-family="Times,serif" font-size="14.00"> v1 = g5</text>
<text text-anchor="start" x="8" y="-1187.3" font-family="Times,serif" font-size="14.00"> result = *(IntToPtrCastExpr&lt;ptr&gt;((v1 + 80)))</text>
<text text-anchor="start" x="8" y="-1172.3" font-family="Times,serif" font-size="14.00"> v4 = *(IntToPtrCastExpr&lt;ptr&gt;(result))</text>
<text text-anchor="start" x="8" y="-1157.3" font-family="Times,serif" font-size="14.00"> g9 = v4</text>
<text text-anchor="start" x="8" y="-1142.3" font-family="Times,serif" font-size="14.00"> v3 = g7</text>
<text text-anchor="start" x="8" y="-1127.3" font-family="Times,serif" font-size="14.00"> v5 = (v1 + 48)</text>
<text text-anchor="start" x="8" y="-1112.3" font-family="Times,serif" font-size="14.00"> g7 = v5</text>
<text text-anchor="start" x="8" y="-1097.3" font-family="Times,serif" font-size="14.00"> v6 = *(IntToPtrCastExpr&lt;ptr&gt;((g8 + 32)))</text>
<text text-anchor="start" x="8" y="-1082.3" font-family="Times,serif" font-size="14.00"> g1 = (v1 &gt; 4294967095)</text>
<text text-anchor="start" x="8" y="-1067.3" font-family="Times,serif" font-size="14.00"> v2 = (v1 + 200)</text>
<text text-anchor="start" x="8" y="-1052.3" font-family="Times,serif" font-size="14.00"> g180 = (v2 == 0)</text>
<text text-anchor="start" x="8" y="-1037.3" font-family="Times,serif" font-size="14.00"> g5 = v2</text>
<text text-anchor="start" x="8" y="-1022.3" font-family="Times,serif" font-size="14.00"> v7 = *(IntToPtrCastExpr&lt;ptr&gt;((v4 + 44)))</text>
<text text-anchor="start" x="8" y="-1007.3" font-family="Times,serif" font-size="14.00"> IntToPtrCastExpr&lt;ptr&gt;(v7)(result, a1, a2, v2, 0, v6, v5, v3)</text>
<text text-anchor="start" x="8" y="-992.3" font-family="Times,serif" font-size="14.00"> g7 = PtrToIntCastExpr&lt;int32&gt;(IntToPtrCastExpr&lt;ptr&gt;(result))</text>
<text text-anchor="start" x="8" y="-977.3" font-family="Times,serif" font-size="14.00"> g9 = a1</text>
<text text-anchor="start" x="8" y="-962.3" font-family="Times,serif" font-size="14.00"> return result</text>
</g>
<!-- Node0xbf851d00&#45;&gt;Node0xd25a53e0 -->
<g id="edge3" class="edge"><title>Node0xbf851d00&#45;&gt;Node0xd25a53e0</title>
<path fill="none" stroke="black" d="M277.134,-1356.4C259.682,-1351.64 245.68,-1345.6 239.5,-1338 221.063,-1315.32 213.135,-1286.95 211.29,-1257.82"/>
<polygon fill="black" stroke="black" points="214.775,-1257.36 210.884,-1247.5 207.78,-1257.63 214.775,-1257.36"/>
<text text-anchor="middle" x="395" y="-1326.8" font-family="Times,serif" font-size="14.00">*(IntToPtrCastExpr&lt;ptr&gt;((v1 + 80))) == 0</text>
</g>
<!-- Node0x2822c140 -->
<g id="node5" class="node"><title>Node0x2822c140</title>
<polygon fill="none" stroke="black" points="415,-1266.5 415,-1304.5 738,-1304.5 738,-1266.5 415,-1266.5"/>
<text text-anchor="start" x="423" y="-1289.3" font-family="Times,serif" font-size="14.00">v8 = *(IntToPtrCastExpr&lt;ptr&gt;((v1 + 32)))</text>
<text text-anchor="start" x="423" y="-1274.3" font-family="Times,serif" font-size="14.00"> g2 = v8</text>
</g>
<!-- Node0xbf851d00&#45;&gt;Node0x2822c140 -->
<g id="edge4" class="edge"><title>Node0xbf851d00&#45;&gt;Node0x2822c140</title>
<path fill="none" stroke="black" d="M524.148,-1356.44C535.132,-1351.67 545.508,-1345.63 554.5,-1338 561.718,-1331.88 566.628,-1322.96 569.941,-1314.26"/>
<polygon fill="black" stroke="black" points="573.288,-1315.29 573.042,-1304.7 566.629,-1313.13 573.288,-1315.29"/>
<text text-anchor="middle" x="719" y="-1326.8" font-family="Times,serif" font-size="14.00">*(IntToPtrCastExpr&lt;ptr&gt;((v1 + 80))) != 0</text>
</g>
<!-- Node0x27376280 -->
<g id="node6" class="node"><title>Node0x27376280</title>
<polygon fill="none" stroke="black" points="412.5,-23.5 412.5,-59.5 466.5,-59.5 466.5,-23.5 412.5,-23.5"/>
<text text-anchor="start" x="420.5" y="-37.8" font-family="Times,serif" font-size="14.00">exit:</text>
</g>
<!-- Node0xd25a53e0&#45;&gt;Node0x27376280 -->
<g id="edge5" class="edge"><title>Node0xd25a53e0&#45;&gt;Node0x27376280</title>
<path fill="none" stroke="black" d="M242.5,-954.436C242.5,-927.842 242.5,-900.339 242.5,-874.5 242.5,-874.5 242.5,-874.5 242.5,-243 242.5,-152.397 346.12,-87.7529 403.059,-59.0706"/>
<polygon fill="black" stroke="black" points="404.682,-62.1729 412.108,-54.6165 401.59,-55.8924 404.682,-62.1729"/>
</g>
<!-- Node0xd259dae0 -->
<g id="node7" class="node"><title>Node0xd259dae0</title>
<polygon fill="none" stroke="black" points="524,-899.5 524,-935.5 629,-935.5 629,-899.5 524,-899.5"/>
<text text-anchor="start" x="532" y="-913.8" font-family="Times,serif" font-size="14.00">if (v8 == 0):</text>
</g>
<!-- Node0x2822c140&#45;&gt;Node0xd259dae0 -->
<g id="edge6" class="edge"><title>Node0x2822c140&#45;&gt;Node0xd259dae0</title>
<path fill="none" stroke="black" d="M576.5,-1266.35C576.5,-1206.81 576.5,-1017.15 576.5,-945.904"/>
<polygon fill="black" stroke="black" points="580,-945.901 576.5,-935.901 573,-945.901 580,-945.901"/>
</g>
<!-- Node0xd25a6a70 -->
<g id="node8" class="node"><title>Node0xd25a6a70</title>
<polygon fill="none" stroke="black" points="258,-497.5 258,-790.5 743,-790.5 743,-497.5 258,-497.5"/>
<text text-anchor="start" x="266" y="-775.3" font-family="Times,serif" font-size="14.00">0x416375:</text>
<text text-anchor="start" x="266" y="-760.3" font-family="Times,serif" font-size="14.00"> function_40ede0(NULL)</text>
<text text-anchor="start" x="266" y="-745.3" font-family="Times,serif" font-size="14.00"> v1 = g5</text>
<text text-anchor="start" x="266" y="-730.3" font-family="Times,serif" font-size="14.00"> result = *(IntToPtrCastExpr&lt;ptr&gt;((v1 + 80)))</text>
<text text-anchor="start" x="266" y="-715.3" font-family="Times,serif" font-size="14.00"> v4 = *(IntToPtrCastExpr&lt;ptr&gt;(result))</text>
<text text-anchor="start" x="266" y="-700.3" font-family="Times,serif" font-size="14.00"> g9 = v4</text>
<text text-anchor="start" x="266" y="-685.3" font-family="Times,serif" font-size="14.00"> v3 = g7</text>
<text text-anchor="start" x="266" y="-670.3" font-family="Times,serif" font-size="14.00"> v5 = (v1 + 48)</text>
<text text-anchor="start" x="266" y="-655.3" font-family="Times,serif" font-size="14.00"> g7 = v5</text>
<text text-anchor="start" x="266" y="-640.3" font-family="Times,serif" font-size="14.00"> v6 = *(IntToPtrCastExpr&lt;ptr&gt;((g8 + 32)))</text>
<text text-anchor="start" x="266" y="-625.3" font-family="Times,serif" font-size="14.00"> g1 = (v1 &gt; 4294967095)</text>
<text text-anchor="start" x="266" y="-610.3" font-family="Times,serif" font-size="14.00"> v2 = (v1 + 200)</text>
<text text-anchor="start" x="266" y="-595.3" font-family="Times,serif" font-size="14.00"> g180 = (v2 == 0)</text>
<text text-anchor="start" x="266" y="-580.3" font-family="Times,serif" font-size="14.00"> g5 = v2</text>
<text text-anchor="start" x="266" y="-565.3" font-family="Times,serif" font-size="14.00"> v7 = *(IntToPtrCastExpr&lt;ptr&gt;((v4 + 44)))</text>
<text text-anchor="start" x="266" y="-550.3" font-family="Times,serif" font-size="14.00"> IntToPtrCastExpr&lt;ptr&gt;(v7)(result, a1, a2, v2, 0, v6, v5, v3)</text>
<text text-anchor="start" x="266" y="-535.3" font-family="Times,serif" font-size="14.00"> g7 = PtrToIntCastExpr&lt;int32&gt;(IntToPtrCastExpr&lt;ptr&gt;(result))</text>
<text text-anchor="start" x="266" y="-520.3" font-family="Times,serif" font-size="14.00"> g9 = a1</text>
<text text-anchor="start" x="266" y="-505.3" font-family="Times,serif" font-size="14.00"> return result</text>
</g>
<!-- Node0xd259dae0&#45;&gt;Node0xd25a6a70 -->
<g id="edge7" class="edge"><title>Node0xd259dae0&#45;&gt;Node0xd25a6a70</title>
<path fill="none" stroke="black" d="M571.63,-899.103C565.731,-878.029 555.183,-840.349 543.987,-800.351"/>
<polygon fill="black" stroke="black" points="547.35,-799.38 541.283,-790.693 540.609,-801.267 547.35,-799.38"/>
<text text-anchor="middle" x="596.5" y="-869.8" font-family="Times,serif" font-size="14.00">v8 == 0</text>
</g>
<!-- Node0xd259e630 -->
<g id="node9" class="node"><title>Node0xd259e630</title>
<polygon fill="none" stroke="black" points="580,-809.5 580,-847.5 903,-847.5 903,-809.5 580,-809.5"/>
<text text-anchor="start" x="588" y="-832.3" font-family="Times,serif" font-size="14.00">v9 = *(IntToPtrCastExpr&lt;ptr&gt;((v8 + 32)))</text>
<text text-anchor="start" x="588" y="-817.3" font-family="Times,serif" font-size="14.00"> g8 = v9</text>
</g>
<!-- Node0xd259dae0&#45;&gt;Node0xd259e630 -->
<g id="edge8" class="edge"><title>Node0xd259dae0&#45;&gt;Node0xd259e630</title>
<path fill="none" stroke="black" d="M609.099,-899.312C634.581,-885.875 670.238,-867.074 698.13,-852.368"/>
<polygon fill="black" stroke="black" points="700.052,-855.311 707.265,-847.551 696.787,-849.119 700.052,-855.311"/>
<text text-anchor="middle" x="695.5" y="-869.8" font-family="Times,serif" font-size="14.00">v8 != 0</text>
</g>
<!-- Node0xd25a6a70&#45;&gt;Node0x27376280 -->
<g id="edge9" class="edge"><title>Node0xd25a6a70&#45;&gt;Node0x27376280</title>
<path fill="none" stroke="black" d="M420.72,-497.473C405.741,-463.491 392.334,-426.755 384.5,-391 356.533,-263.361 334.221,-217.606 384.5,-97 389.349,-85.368 398.023,-74.9465 407.07,-66.4089"/>
<polygon fill="black" stroke="black" points="409.497,-68.9351 414.681,-59.6951 404.866,-63.6855 409.497,-68.9351"/>
</g>
<!-- Node0xd25a3a20 -->
<g id="node10" class="node"><title>Node0xd25a3a20</title>
<polygon fill="none" stroke="black" points="709,-442.5 709,-478.5 808,-478.5 808,-442.5 709,-442.5"/>
<text text-anchor="start" x="717" y="-456.8" font-family="Times,serif" font-size="14.00">if (v9 != 0):</text>
</g>
<!-- Node0xd259e630&#45;&gt;Node0xd25a3a20 -->
<g id="edge10" class="edge"><title>Node0xd259e630&#45;&gt;Node0xd25a3a20</title>
<path fill="none" stroke="black" d="M743.137,-809.316C743.625,-803.471 744.128,-796.965 744.5,-791 751.477,-679.03 755.975,-545.436 757.702,-488.912"/>
<polygon fill="black" stroke="black" points="761.208,-488.764 758.01,-478.664 754.211,-488.554 761.208,-488.764"/>
</g>
<!-- Node0xd25a8cc0 -->
<g id="node11" class="node"><title>Node0xd25a8cc0</title>
<polygon fill="none" stroke="black" points="394,-112.5 394,-375.5 879,-375.5 879,-112.5 394,-112.5"/>
<text text-anchor="start" x="402" y="-360.3" font-family="Times,serif" font-size="14.00">0x41637a:</text>
<text text-anchor="start" x="402" y="-345.3" font-family="Times,serif" font-size="14.00"> result = *(IntToPtrCastExpr&lt;ptr&gt;((v1 + 80)))</text>
<text text-anchor="start" x="402" y="-330.3" font-family="Times,serif" font-size="14.00"> v4 = *(IntToPtrCastExpr&lt;ptr&gt;(result))</text>
<text text-anchor="start" x="402" y="-315.3" font-family="Times,serif" font-size="14.00"> g9 = v4</text>
<text text-anchor="start" x="402" y="-300.3" font-family="Times,serif" font-size="14.00"> v3 = g7</text>
<text text-anchor="start" x="402" y="-285.3" font-family="Times,serif" font-size="14.00"> v5 = (v1 + 48)</text>
<text text-anchor="start" x="402" y="-270.3" font-family="Times,serif" font-size="14.00"> g7 = v5</text>
<text text-anchor="start" x="402" y="-255.3" font-family="Times,serif" font-size="14.00"> v6 = *(IntToPtrCastExpr&lt;ptr&gt;((v9 + 32)))</text>
<text text-anchor="start" x="402" y="-240.3" font-family="Times,serif" font-size="14.00"> g1 = (v1 &gt; 4294967095)</text>
<text text-anchor="start" x="402" y="-225.3" font-family="Times,serif" font-size="14.00"> v2 = (v1 + 200)</text>
<text text-anchor="start" x="402" y="-210.3" font-family="Times,serif" font-size="14.00"> g180 = (v2 == 0)</text>
<text text-anchor="start" x="402" y="-195.3" font-family="Times,serif" font-size="14.00"> g5 = v2</text>
<text text-anchor="start" x="402" y="-180.3" font-family="Times,serif" font-size="14.00"> v7 = *(IntToPtrCastExpr&lt;ptr&gt;((v4 + 44)))</text>
<text text-anchor="start" x="402" y="-165.3" font-family="Times,serif" font-size="14.00"> IntToPtrCastExpr&lt;ptr&gt;(v7)(result, a1, a2, v2, 0, v6, v5, v3)</text>
<text text-anchor="start" x="402" y="-150.3" font-family="Times,serif" font-size="14.00"> g7 = PtrToIntCastExpr&lt;int32&gt;(IntToPtrCastExpr&lt;ptr&gt;(result))</text>
<text text-anchor="start" x="402" y="-135.3" font-family="Times,serif" font-size="14.00"> g9 = a1</text>
<text text-anchor="start" x="402" y="-120.3" font-family="Times,serif" font-size="14.00"> return result</text>
</g>
<!-- Node0xd25a3a20&#45;&gt;Node0xd25a8cc0 -->
<g id="edge11" class="edge"><title>Node0xd25a3a20&#45;&gt;Node0xd25a8cc0</title>
<path fill="none" stroke="black" d="M748.722,-442.309C740.851,-428.469 728.963,-407.568 715.825,-384.469"/>
<polygon fill="black" stroke="black" points="718.721,-382.481 710.734,-375.519 712.636,-385.941 718.721,-382.481"/>
<text text-anchor="middle" x="764.5" y="-412.8" font-family="Times,serif" font-size="14.00">v9 != 0</text>
</g>
<!-- Node0xd25a3b60 -->
<g id="node12" class="node"><title>Node0xd25a3b60</title>
<polygon fill="none" stroke="black" points="897,-97.5 897,-390.5 1382,-390.5 1382,-97.5 897,-97.5"/>
<text text-anchor="start" x="905" y="-375.3" font-family="Times,serif" font-size="14.00">0x416375:</text>
<text text-anchor="start" x="905" y="-360.3" font-family="Times,serif" font-size="14.00"> function_40ede0(NULL)</text>
<text text-anchor="start" x="905" y="-345.3" font-family="Times,serif" font-size="14.00"> v1 = g5</text>
<text text-anchor="start" x="905" y="-330.3" font-family="Times,serif" font-size="14.00"> result = *(IntToPtrCastExpr&lt;ptr&gt;((v1 + 80)))</text>
<text text-anchor="start" x="905" y="-315.3" font-family="Times,serif" font-size="14.00"> v4 = *(IntToPtrCastExpr&lt;ptr&gt;(result))</text>
<text text-anchor="start" x="905" y="-300.3" font-family="Times,serif" font-size="14.00"> g9 = v4</text>
<text text-anchor="start" x="905" y="-285.3" font-family="Times,serif" font-size="14.00"> v3 = g7</text>
<text text-anchor="start" x="905" y="-270.3" font-family="Times,serif" font-size="14.00"> v5 = (v1 + 48)</text>
<text text-anchor="start" x="905" y="-255.3" font-family="Times,serif" font-size="14.00"> g7 = v5</text>
<text text-anchor="start" x="905" y="-240.3" font-family="Times,serif" font-size="14.00"> v6 = *(IntToPtrCastExpr&lt;ptr&gt;((g8 + 32)))</text>
<text text-anchor="start" x="905" y="-225.3" font-family="Times,serif" font-size="14.00"> g1 = (v1 &gt; 4294967095)</text>
<text text-anchor="start" x="905" y="-210.3" font-family="Times,serif" font-size="14.00"> v2 = (v1 + 200)</text>
<text text-anchor="start" x="905" y="-195.3" font-family="Times,serif" font-size="14.00"> g180 = (v2 == 0)</text>
<text text-anchor="start" x="905" y="-180.3" font-family="Times,serif" font-size="14.00"> g5 = v2</text>
<text text-anchor="start" x="905" y="-165.3" font-family="Times,serif" font-size="14.00"> v7 = *(IntToPtrCastExpr&lt;ptr&gt;((v4 + 44)))</text>
<text text-anchor="start" x="905" y="-150.3" font-family="Times,serif" font-size="14.00"> IntToPtrCastExpr&lt;ptr&gt;(v7)(result, a1, a2, v2, 0, v6, v5, v3)</text>
<text text-anchor="start" x="905" y="-135.3" font-family="Times,serif" font-size="14.00"> g7 = PtrToIntCastExpr&lt;int32&gt;(IntToPtrCastExpr&lt;ptr&gt;(result))</text>
<text text-anchor="start" x="905" y="-120.3" font-family="Times,serif" font-size="14.00"> g9 = a1</text>
<text text-anchor="start" x="905" y="-105.3" font-family="Times,serif" font-size="14.00"> return result</text>
</g>
<!-- Node0xd25a3a20&#45;&gt;Node0xd25a3b60 -->
<g id="edge12" class="edge"><title>Node0xd25a3a20&#45;&gt;Node0xd25a3b60</title>
<path fill="none" stroke="black" d="M791.833,-442.424C816.259,-429.803 850.385,-411.946 887.762,-391.381"/>
<polygon fill="black" stroke="black" points="889.749,-394.282 896.811,-386.384 886.365,-388.154 889.749,-394.282"/>
<text text-anchor="middle" x="882.5" y="-412.8" font-family="Times,serif" font-size="14.00">v9 == 0</text>
</g>
<!-- Node0xd25a8cc0&#45;&gt;Node0x27376280 -->
<g id="edge13" class="edge"><title>Node0xd25a8cc0&#45;&gt;Node0x27376280</title>
<path fill="none" stroke="black" d="M508.124,-112.344C491.14,-95.0574 475.464,-79.1033 463.396,-66.8203"/>
<polygon fill="black" stroke="black" points="465.873,-64.3477 456.368,-59.6676 460.88,-69.2537 465.873,-64.3477"/>
</g>
<!-- Node0xd25a3b60&#45;&gt;Node0x27376280 -->
<g id="edge14" class="edge"><title>Node0xd25a3b60&#45;&gt;Node0x27376280</title>
<path fill="none" stroke="black" d="M896.752,-99.8617C893.999,-98.8769 891.248,-97.9223 888.5,-97 742.037,-47.8432 555.496,-42.0537 476.989,-42.0071"/>
<polygon fill="black" stroke="black" points="476.634,-38.508 466.644,-42.0348 476.653,-45.508 476.634,-38.508"/>
</g>
</g>
</svg>
