<?xml version="1.0" encoding="UTF-8" standalone="no"?>
<!DOCTYPE svg PUBLIC "-//W3C//DTD SVG 1.1//EN"
 "http://www.w3.org/Graphics/SVG/1.1/DTD/svg11.dtd">
<!-- Generated by graphviz version 2.38.0 (20140413.2041)
 -->
<!-- Title: Control&#45;flow graph for function &#39;function_411211(*a1, a2)&#39;. Pages: 1 -->
<svg width="478pt" height="522pt"
 viewBox="0.00 0.00 477.50 522.00" xmlns="http://www.w3.org/2000/svg" xmlns:xlink="http://www.w3.org/1999/xlink">
<g id="graph0" class="graph" transform="scale(1 1) rotate(0) translate(4 518)">
<title>Control&#45;flow graph for function &#39;function_411211(*a1, a2)&#39;.</title>
<polygon fill="white" stroke="none" points="-4,4 -4,-518 473.5,-518 473.5,4 -4,4"/>
<text text-anchor="middle" x="234.75" y="-7.8" font-family="Times,serif" font-size="14.00">Control&#45;flow graph for function &#39;function_411211(*a1, a2)&#39;.</text>
<!-- Node0x33f80310 -->
<g id="node1" class="node"><title>Node0x33f80310</title>
<polygon fill="none" stroke="black" points="268,-460.5 268,-513.5 327,-513.5 327,-460.5 268,-460.5"/>
<text text-anchor="start" x="276" y="-498.3" font-family="Times,serif" font-size="14.00">entry:</text>
<text text-anchor="start" x="276" y="-483.3" font-family="Times,serif" font-size="14.00"> a1</text>
<text text-anchor="start" x="276" y="-468.3" font-family="Times,serif" font-size="14.00"> a2</text>
</g>
<!-- Node0x33f85ab0 -->
<g id="node2" class="node"><title>Node0x33f85ab0</title>
<polygon fill="none" stroke="black" points="258.5,-369.5 258.5,-422.5 336.5,-422.5 336.5,-369.5 258.5,-369.5"/>
<text text-anchor="start" x="266.5" y="-407.3" font-family="Times,serif" font-size="14.00">v1 = g9</text>
<text text-anchor="start" x="266.5" y="-392.3" font-family="Times,serif" font-size="14.00"> g9 = g5</text>
<text text-anchor="start" x="266.5" y="-377.3" font-family="Times,serif" font-size="14.00"> result</text>
</g>
<!-- Node0x33f80310&#45;&gt;Node0x33f85ab0 -->
<g id="edge1" class="edge"><title>Node0x33f80310&#45;&gt;Node0x33f85ab0</title>
<path fill="none" stroke="black" d="M297.5,-460.258C297.5,-451.678 297.5,-441.961 297.5,-432.762"/>
<polygon fill="black" stroke="black" points="301,-432.685 297.5,-422.685 294,-432.685 301,-432.685"/>
</g>
<!-- Node0x33f85bb0 -->
<g id="node3" class="node"><title>Node0x33f85bb0</title>
<polygon fill="none" stroke="black" points="239,-293.5 239,-331.5 356,-331.5 356,-293.5 239,-293.5"/>
<text text-anchor="start" x="247" y="-316.3" font-family="Times,serif" font-size="14.00">if (*(a1) != 1):</text>
<text text-anchor="start" x="247" y="-301.3" font-family="Times,serif" font-size="14.00"> else:</text>
</g>
<!-- Node0x33f85ab0&#45;&gt;Node0x33f85bb0 -->
<g id="edge2" class="edge"><title>Node0x33f85ab0&#45;&gt;Node0x33f85bb0</title>
<path fill="none" stroke="black" d="M297.5,-369.213C297.5,-360.526 297.5,-350.787 297.5,-341.91"/>
<polygon fill="black" stroke="black" points="301,-341.638 297.5,-331.638 294,-341.638 301,-341.638"/>
</g>
<!-- Node0x33f89170 -->
<g id="node4" class="node"><title>Node0x33f89170</title>
<polygon fill="none" stroke="black" points="0,-188.5 0,-241.5 353,-241.5 353,-188.5 0,-188.5"/>
<text text-anchor="start" x="8" y="-226.3" font-family="Times,serif" font-size="14.00">0x41121b:</text>
<text text-anchor="start" x="8" y="-211.3" font-family="Times,serif" font-size="14.00"> function_410da7(IntToPtrCastExpr&lt;ptr&gt;(g5))</text>
<text text-anchor="start" x="8" y="-196.3" font-family="Times,serif" font-size="14.00"> result = g9</text>
</g>
<!-- Node0x33f85bb0&#45;&gt;Node0x33f89170 -->
<g id="edge3" class="edge"><title>Node0x33f85bb0&#45;&gt;Node0x33f89170</title>
<path fill="none" stroke="black" d="M274.456,-293.312C258.257,-280.527 236.151,-263.08 217.038,-247.995"/>
<polygon fill="black" stroke="black" points="219.074,-245.143 209.056,-241.695 214.738,-250.638 219.074,-245.143"/>
<text text-anchor="middle" x="284.5" y="-263.8" font-family="Times,serif" font-size="14.00">*(a1) != 1</text>
</g>
<!-- Node0x33f891f0 -->
<g id="node5" class="node"><title>Node0x33f891f0</title>
<polygon fill="none" stroke="black" points="371.5,-197 371.5,-233 469.5,-233 469.5,-197 371.5,-197"/>
<text text-anchor="start" x="379.5" y="-211.3" font-family="Times,serif" font-size="14.00">result = g5</text>
</g>
<!-- Node0x33f85bb0&#45;&gt;Node0x33f891f0 -->
<g id="edge4" class="edge"><title>Node0x33f85bb0&#45;&gt;Node0x33f891f0</title>
<path fill="none" stroke="black" d="M320.925,-293.312C340.616,-278.024 368.892,-256.07 390.284,-239.46"/>
<polygon fill="black" stroke="black" points="392.651,-242.054 398.404,-233.156 388.358,-236.524 392.651,-242.054"/>
<text text-anchor="middle" x="402.5" y="-263.8" font-family="Times,serif" font-size="14.00">*(a1) == 1</text>
</g>
<!-- Node0x33f89110 -->
<g id="node6" class="node"><title>Node0x33f89110</title>
<polygon fill="none" stroke="black" points="269,-97.5 269,-150.5 382,-150.5 382,-97.5 269,-97.5"/>
<text text-anchor="start" x="277" y="-135.3" font-family="Times,serif" font-size="14.00">0x411221:</text>
<text text-anchor="start" x="277" y="-120.3" font-family="Times,serif" font-size="14.00"> g9 = v1</text>
<text text-anchor="start" x="277" y="-105.3" font-family="Times,serif" font-size="14.00"> return result</text>
</g>
<!-- Node0x33f89170&#45;&gt;Node0x33f89110 -->
<g id="edge5" class="edge"><title>Node0x33f89170&#45;&gt;Node0x33f89110</title>
<path fill="none" stroke="black" d="M219.197,-188.496C236.343,-178.255 256.254,-166.362 274.178,-155.655"/>
<polygon fill="black" stroke="black" points="276.006,-158.64 282.796,-150.508 272.416,-152.631 276.006,-158.64"/>
</g>
<!-- Node0x33f891f0&#45;&gt;Node0x33f89110 -->
<g id="edge6" class="edge"><title>Node0x33f891f0&#45;&gt;Node0x33f89110</title>
<path fill="none" stroke="black" d="M402.183,-196.84C390.355,-185.759 374.585,-170.985 360.422,-157.717"/>
<polygon fill="black" stroke="black" points="362.446,-154.816 352.755,-150.534 357.66,-159.925 362.446,-154.816"/>
</g>
<!-- Node0x33f85a50 -->
<g id="node7" class="node"><title>Node0x33f85a50</title>
<polygon fill="none" stroke="black" points="298.5,-23.5 298.5,-59.5 352.5,-59.5 352.5,-23.5 298.5,-23.5"/>
<text text-anchor="start" x="306.5" y="-37.8" font-family="Times,serif" font-size="14.00">exit:</text>
</g>
<!-- Node0x33f89110&#45;&gt;Node0x33f85a50 -->
<g id="edge7" class="edge"><title>Node0x33f89110&#45;&gt;Node0x33f85a50</title>
<path fill="none" stroke="black" d="M325.5,-97.0862C325.5,-88.4596 325.5,-78.8224 325.5,-70.0748"/>
<polygon fill="black" stroke="black" points="329,-69.9735 325.5,-59.9735 322,-69.9735 329,-69.9735"/>
</g>
</g>
</svg>
