<?xml version="1.0" encoding="UTF-8" standalone="no"?>
<!DOCTYPE svg PUBLIC "-//W3C//DTD SVG 1.1//EN"
 "http://www.w3.org/Graphics/SVG/1.1/DTD/svg11.dtd">
<!-- Generated by graphviz version 2.38.0 (20140413.2041)
 -->
<!-- Title: Control&#45;flow graph for function &#39;function_401080(a1, a2, a3, a4)&#39;. Pages: 1 -->
<svg width="491pt" height="293pt"
 viewBox="0.00 0.00 491.00 293.00" xmlns="http://www.w3.org/2000/svg" xmlns:xlink="http://www.w3.org/1999/xlink">
<g id="graph0" class="graph" transform="scale(1 1) rotate(0) translate(4 289)">
<title>Control&#45;flow graph for function &#39;function_401080(a1, a2, a3, a4)&#39;.</title>
<polygon fill="white" stroke="none" points="-4,4 -4,-289 487,-289 487,4 -4,4"/>
<text text-anchor="middle" x="241.5" y="-7.8" font-family="Times,serif" font-size="14.00">Control&#45;flow graph for function &#39;function_401080(a1, a2, a3, a4)&#39;.</text>
<!-- Node0xbf91b80 -->
<g id="node1" class="node"><title>Node0xbf91b80</title>
<polygon fill="none" stroke="black" points="212,-201.5 212,-284.5 271,-284.5 271,-201.5 212,-201.5"/>
<text text-anchor="start" x="220" y="-269.3" font-family="Times,serif" font-size="14.00">entry:</text>
<text text-anchor="start" x="220" y="-254.3" font-family="Times,serif" font-size="14.00"> a1</text>
<text text-anchor="start" x="220" y="-239.3" font-family="Times,serif" font-size="14.00"> a2</text>
<text text-anchor="start" x="220" y="-224.3" font-family="Times,serif" font-size="14.00"> a3</text>
<text text-anchor="start" x="220" y="-209.3" font-family="Times,serif" font-size="14.00"> a4</text>
</g>
<!-- Node0x1e5e8f60 -->
<g id="node2" class="node"><title>Node0x1e5e8f60</title>
<polygon fill="none" stroke="black" points="162.5,-96.5 162.5,-164.5 320.5,-164.5 320.5,-96.5 162.5,-96.5"/>
<text text-anchor="start" x="170.5" y="-149.3" font-family="Times,serif" font-size="14.00">v1 = g3</text>
<text text-anchor="start" x="170.5" y="-134.3" font-family="Times,serif" font-size="14.00"> g3 = &amp;(v1)</text>
<text text-anchor="start" x="170.5" y="-119.3" font-family="Times,serif" font-size="14.00"> abort()</text>
<text text-anchor="start" x="170.5" y="-104.3" font-family="Times,serif" font-size="14.00"> # UNREACHABLE</text>
</g>
<!-- Node0xbf91b80&#45;&gt;Node0x1e5e8f60 -->
<g id="edge1" class="edge"><title>Node0xbf91b80&#45;&gt;Node0x1e5e8f60</title>
<path fill="none" stroke="black" d="M241.5,-201.481C241.5,-192.804 241.5,-183.604 241.5,-174.826"/>
<polygon fill="black" stroke="black" points="245,-174.771 241.5,-164.771 238,-174.771 245,-174.771"/>
</g>
<!-- Node0x1e5e8ed0 -->
<g id="node3" class="node"><title>Node0x1e5e8ed0</title>
<polygon fill="none" stroke="black" points="214.5,-23.5 214.5,-59.5 268.5,-59.5 268.5,-23.5 214.5,-23.5"/>
<text text-anchor="start" x="222.5" y="-37.8" font-family="Times,serif" font-size="14.00">exit:</text>
</g>
<!-- Node0x1e5e8f60&#45;&gt;Node0x1e5e8ed0 -->
<g id="edge2" class="edge"><title>Node0x1e5e8f60&#45;&gt;Node0x1e5e8ed0</title>
<path fill="none" stroke="black" d="M241.5,-96.1123C241.5,-87.3522 241.5,-78.0128 241.5,-69.6246"/>
<polygon fill="black" stroke="black" points="245,-69.6235 241.5,-59.6235 238,-69.6235 245,-69.6235"/>
</g>
</g>
</svg>
