<?xml version="1.0" encoding="UTF-8" standalone="no"?>
<!DOCTYPE svg PUBLIC "-//W3C//DTD SVG 1.1//EN"
 "http://www.w3.org/Graphics/SVG/1.1/DTD/svg11.dtd">
<!-- Generated by graphviz version 2.38.0 (20140413.2041)
 -->
<!-- Title: Control&#45;flow graph for function &#39;function_4029a0(a1, a2, a3, a4)&#39;. Pages: 1 -->
<svg width="1062pt" height="2001pt"
 viewBox="0.00 0.00 1061.50 2001.00" xmlns="http://www.w3.org/2000/svg" xmlns:xlink="http://www.w3.org/1999/xlink">
<g id="graph0" class="graph" transform="scale(1 1) rotate(0) translate(4 1997)">
<title>Control&#45;flow graph for function &#39;function_4029a0(a1, a2, a3, a4)&#39;.</title>
<polygon fill="white" stroke="none" points="-4,4 -4,-1997 1057.5,-1997 1057.5,4 -4,4"/>
<text text-anchor="middle" x="526.75" y="-7.8" font-family="Times,serif" font-size="14.00">Control&#45;flow graph for function &#39;function_4029a0(a1, a2, a3, a4)&#39;.</text>
<!-- Node0x8dbead60 -->
<g id="node1" class="node"><title>Node0x8dbead60</title>
<polygon fill="none" stroke="black" points="147,-1909.5 147,-1992.5 206,-1992.5 206,-1909.5 147,-1909.5"/>
<text text-anchor="start" x="155" y="-1977.3" font-family="Times,serif" font-size="14.00">entry:</text>
<text text-anchor="start" x="155" y="-1962.3" font-family="Times,serif" font-size="14.00"> a1</text>
<text text-anchor="start" x="155" y="-1947.3" font-family="Times,serif" font-size="14.00"> a2</text>
<text text-anchor="start" x="155" y="-1932.3" font-family="Times,serif" font-size="14.00"> a3</text>
<text text-anchor="start" x="155" y="-1917.3" font-family="Times,serif" font-size="14.00"> a4</text>
</g>
<!-- Node0x8dbee410 -->
<g id="node2" class="node"><title>Node0x8dbee410</title>
<polygon fill="none" stroke="black" points="126,-1713.5 126,-1871.5 227,-1871.5 227,-1713.5 126,-1713.5"/>
<text text-anchor="start" x="134" y="-1856.3" font-family="Times,serif" font-size="14.00">g4 = a1</text>
<text text-anchor="start" x="134" y="-1841.3" font-family="Times,serif" font-size="14.00"> v1 = g9</text>
<text text-anchor="start" x="134" y="-1826.3" font-family="Times,serif" font-size="14.00"> v2 = g5</text>
<text text-anchor="start" x="134" y="-1811.3" font-family="Times,serif" font-size="14.00"> g9 = v2</text>
<text text-anchor="start" x="134" y="-1796.3" font-family="Times,serif" font-size="14.00"> v3 = g7</text>
<text text-anchor="start" x="134" y="-1781.3" font-family="Times,serif" font-size="14.00"> v4 = v3</text>
<text text-anchor="start" x="134" y="-1766.3" font-family="Times,serif" font-size="14.00"> v5 = &amp;(v4)</text>
<text text-anchor="start" x="134" y="-1751.3" font-family="Times,serif" font-size="14.00"> g10 = v5</text>
<text text-anchor="start" x="134" y="-1736.3" font-family="Times,serif" font-size="14.00"> v6 = a1</text>
<text text-anchor="start" x="134" y="-1721.3" font-family="Times,serif" font-size="14.00"> result = v2</text>
</g>
<!-- Node0x8dbead60&#45;&gt;Node0x8dbee410 -->
<g id="edge1" class="edge"><title>Node0x8dbead60&#45;&gt;Node0x8dbee410</title>
<path fill="none" stroke="black" d="M176.5,-1909.29C176.5,-1900.69 176.5,-1891.29 176.5,-1881.69"/>
<polygon fill="black" stroke="black" points="180,-1881.64 176.5,-1871.64 173,-1881.64 180,-1881.64"/>
</g>
<!-- Node0x2226f410 -->
<g id="node3" class="node"><title>Node0x2226f410</title>
<polygon fill="none" stroke="black" points="0,-1639.5 0,-1675.5 353,-1675.5 353,-1639.5 0,-1639.5"/>
<text text-anchor="start" x="8" y="-1653.8" font-family="Times,serif" font-size="14.00">if (*(IntToPtrCastExpr&lt;ptr&gt;((v2 + 20))) &lt; a1):</text>
</g>
<!-- Node0x8dbee410&#45;&gt;Node0x2226f410 -->
<g id="edge2" class="edge"><title>Node0x8dbee410&#45;&gt;Node0x2226f410</title>
<path fill="none" stroke="black" d="M176.5,-1713.36C176.5,-1703.46 176.5,-1693.9 176.5,-1685.63"/>
<polygon fill="black" stroke="black" points="180,-1685.55 176.5,-1675.55 173,-1685.55 180,-1685.55"/>
</g>
<!-- Node0x22270310 -->
<g id="node4" class="node"><title>Node0x22270310</title>
<polygon fill="none" stroke="black" points="13.5,-1519.5 13.5,-1587.5 207.5,-1587.5 207.5,-1519.5 13.5,-1519.5"/>
<text text-anchor="start" x="21.5" y="-1572.3" font-family="Times,serif" font-size="14.00">0x4029ae:</text>
<text text-anchor="start" x="21.5" y="-1557.3" font-family="Times,serif" font-size="14.00"> function_4362ee(v3, v1)</text>
<text text-anchor="start" x="21.5" y="-1542.3" font-family="Times,serif" font-size="14.00"> v6 = g4</text>
<text text-anchor="start" x="21.5" y="-1527.3" font-family="Times,serif" font-size="14.00"> result = g9</text>
</g>
<!-- Node0x2226f410&#45;&gt;Node0x22270310 -->
<g id="edge3" class="edge"><title>Node0x2226f410&#45;&gt;Node0x22270310</title>
<path fill="none" stroke="black" d="M54.552,-1639.5C36.89,-1634.68 22.5991,-1628.6 16.5,-1621 8.74117,-1611.33 10.2578,-1602.44 17.0113,-1594.53"/>
<polygon fill="black" stroke="black" points="19.6056,-1596.9 24.5698,-1587.54 14.8522,-1591.76 19.6056,-1596.9"/>
<text text-anchor="middle" x="170" y="-1609.8" font-family="Times,serif" font-size="14.00">*(IntToPtrCastExpr&lt;ptr&gt;((v2 + 20))) &lt; a1</text>
</g>
<!-- Node0x8dbeea20 -->
<g id="node5" class="node"><title>Node0x8dbeea20</title>
<polygon fill="none" stroke="black" points="77.5,-1398.5 77.5,-1481.5 471.5,-1481.5 471.5,-1398.5 77.5,-1398.5"/>
<text text-anchor="start" x="85.5" y="-1466.3" font-family="Times,serif" font-size="14.00">0x4029b3:</text>
<text text-anchor="start" x="85.5" y="-1451.3" font-family="Times,serif" font-size="14.00"> g7 = a2</text>
<text text-anchor="start" x="85.5" y="-1436.3" font-family="Times,serif" font-size="14.00"> v7 = (*(IntToPtrCastExpr&lt;ptr&gt;((result + 20))) &#45; v6)</text>
<text text-anchor="start" x="85.5" y="-1421.3" font-family="Times,serif" font-size="14.00"> g2 = v7</text>
<text text-anchor="start" x="85.5" y="-1406.3" font-family="Times,serif" font-size="14.00"> v8 = a2</text>
</g>
<!-- Node0x2226f410&#45;&gt;Node0x8dbeea20 -->
<g id="edge4" class="edge"><title>Node0x2226f410&#45;&gt;Node0x8dbeea20</title>
<path fill="none" stroke="black" d="M285.734,-1639.46C303.27,-1634.57 317.613,-1628.48 323.5,-1621 353.114,-1583.38 332.191,-1529.19 309.219,-1490.11"/>
<polygon fill="black" stroke="black" points="312.18,-1488.24 303.993,-1481.52 306.199,-1491.88 312.18,-1488.24"/>
<text text-anchor="middle" x="498" y="-1549.8" font-family="Times,serif" font-size="14.00">*(IntToPtrCastExpr&lt;ptr&gt;((v2 + 20))) &gt;= a1</text>
</g>
<!-- Node0x22270310&#45;&gt;Node0x8dbeea20 -->
<g id="edge5" class="edge"><title>Node0x22270310&#45;&gt;Node0x8dbeea20</title>
<path fill="none" stroke="black" d="M159.261,-1519.35C174,-1509.33 190.462,-1498.14 206.228,-1487.42"/>
<polygon fill="black" stroke="black" points="208.598,-1490.04 214.9,-1481.52 204.662,-1484.25 208.598,-1490.04"/>
</g>
<!-- Node0x8dbeeb10 -->
<g id="node6" class="node"><title>Node0x8dbeeb10</title>
<polygon fill="none" stroke="black" points="224,-1324.5 224,-1360.5 325,-1360.5 325,-1324.5 224,-1324.5"/>
<text text-anchor="start" x="232" y="-1338.8" font-family="Times,serif" font-size="14.00">if (v7 &lt; a2):</text>
</g>
<!-- Node0x8dbeea20&#45;&gt;Node0x8dbeeb10 -->
<g id="edge6" class="edge"><title>Node0x8dbeea20&#45;&gt;Node0x8dbeeb10</title>
<path fill="none" stroke="black" d="M274.5,-1398.5C274.5,-1389.21 274.5,-1379.54 274.5,-1370.95"/>
<polygon fill="black" stroke="black" points="278,-1370.75 274.5,-1360.75 271,-1370.75 278,-1370.75"/>
</g>
<!-- Node0x22270370 -->
<g id="node7" class="node"><title>Node0x22270370</title>
<polygon fill="none" stroke="black" points="182.5,-1219.5 182.5,-1272.5 274.5,-1272.5 274.5,-1219.5 182.5,-1219.5"/>
<text text-anchor="start" x="190.5" y="-1257.3" font-family="Times,serif" font-size="14.00">0x4029c0:</text>
<text text-anchor="start" x="190.5" y="-1242.3" font-family="Times,serif" font-size="14.00"> g7 = v7</text>
<text text-anchor="start" x="190.5" y="-1227.3" font-family="Times,serif" font-size="14.00"> v8 = v7</text>
</g>
<!-- Node0x8dbeeb10&#45;&gt;Node0x22270370 -->
<g id="edge7" class="edge"><title>Node0x8dbeeb10&#45;&gt;Node0x22270370</title>
<path fill="none" stroke="black" d="M254.29,-1324.3C249.089,-1318.93 243.983,-1312.65 240.5,-1306 236.751,-1298.84 234.172,-1290.62 232.398,-1282.63"/>
<polygon fill="black" stroke="black" points="235.827,-1281.93 230.554,-1272.74 228.946,-1283.21 235.827,-1281.93"/>
<text text-anchor="middle" x="268.5" y="-1294.8" font-family="Times,serif" font-size="14.00">v7 &lt; a2</text>
</g>
<!-- Node0x8dbeebf0 -->
<g id="node8" class="node"><title>Node0x8dbeebf0</title>
<polygon fill="none" stroke="black" points="237.5,-1143.5 237.5,-1181.5 329.5,-1181.5 329.5,-1143.5 237.5,-1143.5"/>
<text text-anchor="start" x="245.5" y="-1166.3" font-family="Times,serif" font-size="14.00">0x4029c2:</text>
<text text-anchor="start" x="245.5" y="-1151.3" font-family="Times,serif" font-size="14.00"> v9</text>
</g>
<!-- Node0x8dbeeb10&#45;&gt;Node0x8dbeebf0 -->
<g id="edge8" class="edge"><title>Node0x8dbeeb10&#45;&gt;Node0x8dbeebf0</title>
<path fill="none" stroke="black" d="M287.769,-1324.36C291.318,-1318.8 294.673,-1312.42 296.5,-1306 307.467,-1267.48 299.467,-1220.97 292.039,-1191.8"/>
<polygon fill="black" stroke="black" points="295.348,-1190.63 289.364,-1181.89 288.59,-1192.46 295.348,-1190.63"/>
<text text-anchor="middle" x="336.5" y="-1242.3" font-family="Times,serif" font-size="14.00">v7 &gt;= a2</text>
</g>
<!-- Node0x22270370&#45;&gt;Node0x8dbeebf0 -->
<g id="edge9" class="edge"><title>Node0x22270370&#45;&gt;Node0x8dbeebf0</title>
<path fill="none" stroke="black" d="M245.902,-1219.21C252.151,-1209.95 259.207,-1199.5 265.505,-1190.17"/>
<polygon fill="black" stroke="black" points="268.567,-1191.89 271.26,-1181.64 262.764,-1187.97 268.567,-1191.89"/>
</g>
<!-- Node0x2226f470 -->
<g id="node9" class="node"><title>Node0x2226f470</title>
<polygon fill="none" stroke="black" points="231,-1069.5 231,-1105.5 336,-1105.5 336,-1069.5 231,-1069.5"/>
<text text-anchor="start" x="239" y="-1083.8" font-family="Times,serif" font-size="14.00">if (v8 == 0):</text>
</g>
<!-- Node0x8dbeebf0&#45;&gt;Node0x2226f470 -->
<g id="edge10" class="edge"><title>Node0x8dbeebf0&#45;&gt;Node0x2226f470</title>
<path fill="none" stroke="black" d="M283.5,-1143.46C283.5,-1135.2 283.5,-1125.24 283.5,-1116.07"/>
<polygon fill="black" stroke="black" points="287,-1115.83 283.5,-1105.83 280,-1115.83 287,-1115.83"/>
</g>
<!-- Node0x222703d0 -->
<g id="node10" class="node"><title>Node0x222703d0</title>
<polygon fill="none" stroke="black" points="158,-832.5 158,-915.5 271,-915.5 271,-832.5 158,-832.5"/>
<text text-anchor="start" x="166" y="-900.3" font-family="Times,serif" font-size="14.00">0x402a1b:</text>
<text text-anchor="start" x="166" y="-885.3" font-family="Times,serif" font-size="14.00"> g7 = v4</text>
<text text-anchor="start" x="166" y="-870.3" font-family="Times,serif" font-size="14.00"> g9 = v1</text>
<text text-anchor="start" x="166" y="-855.3" font-family="Times,serif" font-size="14.00"> g4 = v9</text>
<text text-anchor="start" x="166" y="-840.3" font-family="Times,serif" font-size="14.00"> return result</text>
</g>
<!-- Node0x2226f470&#45;&gt;Node0x222703d0 -->
<g id="edge11" class="edge"><title>Node0x2226f470&#45;&gt;Node0x222703d0</title>
<path fill="none" stroke="black" d="M271.468,-1069.36C267.888,-1063.7 264.204,-1057.26 261.5,-1051 243.974,-1010.44 231.579,-961.732 223.935,-925.85"/>
<polygon fill="black" stroke="black" points="227.27,-924.698 221.809,-915.619 220.416,-926.121 227.27,-924.698"/>
<text text-anchor="middle" x="291.5" y="-1039.8" font-family="Times,serif" font-size="14.00">v8 == 0</text>
</g>
<!-- Node0x2226f5c0 -->
<g id="node11" class="node"><title>Node0x2226f5c0</title>
<polygon fill="none" stroke="black" points="327,-934.5 327,-1017.5 478,-1017.5 478,-934.5 327,-934.5"/>
<text text-anchor="start" x="335" y="-1002.3" font-family="Times,serif" font-size="14.00">v10 = g3</text>
<text text-anchor="start" x="335" y="-987.3" font-family="Times,serif" font-size="14.00"> v11 = (result + 4)</text>
<text text-anchor="start" x="335" y="-972.3" font-family="Times,serif" font-size="14.00"> g3 = v11</text>
<text text-anchor="start" x="335" y="-957.3" font-family="Times,serif" font-size="14.00"> v12</text>
<text text-anchor="start" x="335" y="-942.3" font-family="Times,serif" font-size="14.00"> v13</text>
</g>
<!-- Node0x2226f470&#45;&gt;Node0x2226f5c0 -->
<g id="edge12" class="edge"><title>Node0x2226f470&#45;&gt;Node0x2226f5c0</title>
<path fill="none" stroke="black" d="M302.094,-1069.39C315.249,-1057.29 333.576,-1040.42 350.975,-1024.41"/>
<polygon fill="black" stroke="black" points="353.369,-1026.96 358.358,-1017.62 348.629,-1021.81 353.369,-1026.96"/>
<text text-anchor="middle" x="363.5" y="-1039.8" font-family="Times,serif" font-size="14.00">v8 != 0</text>
</g>
<!-- Node0x8dbee3b0 -->
<g id="node12" class="node"><title>Node0x8dbee3b0</title>
<polygon fill="none" stroke="black" points="234.5,-23.5 234.5,-59.5 288.5,-59.5 288.5,-23.5 234.5,-23.5"/>
<text text-anchor="start" x="242.5" y="-37.8" font-family="Times,serif" font-size="14.00">exit:</text>
</g>
<!-- Node0x222703d0&#45;&gt;Node0x8dbee3b0 -->
<g id="edge13" class="edge"><title>Node0x222703d0&#45;&gt;Node0x8dbee3b0</title>
<path fill="none" stroke="black" d="M211.021,-832.479C209.264,-808.631 207.5,-777.873 207.5,-750.5 207.5,-750.5 207.5,-750.5 207.5,-168 207.5,-135.446 212.344,-126.777 225.5,-97 229.899,-87.0425 236.062,-76.889 242.046,-68.0869"/>
<polygon fill="black" stroke="black" points="244.993,-69.9809 247.899,-59.7925 239.274,-65.9449 244.993,-69.9809"/>
</g>
<!-- Node0x2226f620 -->
<g id="node13" class="node"><title>Node0x2226f620</title>
<polygon fill="none" stroke="black" points="235.5,-775.5 235.5,-813.5 613.5,-813.5 613.5,-775.5 235.5,-775.5"/>
<text text-anchor="start" x="243.5" y="-798.3" font-family="Times,serif" font-size="14.00">if (*(IntToPtrCastExpr&lt;ptr&gt;((result + 24))) &lt; 16):</text>
<text text-anchor="start" x="243.5" y="-783.3" font-family="Times,serif" font-size="14.00"> else:</text>
</g>
<!-- Node0x2226f5c0&#45;&gt;Node0x2226f620 -->
<g id="edge14" class="edge"><title>Node0x2226f5c0&#45;&gt;Node0x2226f620</title>
<path fill="none" stroke="black" d="M407.492,-934.269C411.625,-900.551 417.389,-853.519 421.032,-823.793"/>
<polygon fill="black" stroke="black" points="424.529,-824.033 422.272,-813.681 417.581,-823.181 424.529,-824.033"/>
</g>
<!-- Node0x22270430 -->
<g id="node14" class="node"><title>Node0x22270430</title>
<polygon fill="none" stroke="black" points="361,-670.5 361,-723.5 456,-723.5 456,-670.5 361,-670.5"/>
<text text-anchor="start" x="369" y="-708.3" font-family="Times,serif" font-size="14.00">0x4029df:</text>
<text text-anchor="start" x="369" y="-693.3" font-family="Times,serif" font-size="14.00"> v13 = v11</text>
<text text-anchor="start" x="369" y="-678.3" font-family="Times,serif" font-size="14.00"> v12 = v11</text>
</g>
<!-- Node0x2226f620&#45;&gt;Node0x22270430 -->
<g id="edge15" class="edge"><title>Node0x2226f620&#45;&gt;Node0x22270430</title>
<path fill="none" stroke="black" d="M387.108,-775.395C380.43,-770.398 374.375,-764.295 370.5,-757 366.093,-748.703 367.789,-740.051 372.311,-732.011"/>
<polygon fill="black" stroke="black" points="375.341,-733.783 378.171,-723.573 369.592,-729.79 375.341,-733.783"/>
<text text-anchor="middle" x="537" y="-745.8" font-family="Times,serif" font-size="14.00">*(IntToPtrCastExpr&lt;ptr&gt;((result + 24))) &lt; 16</text>
</g>
<!-- Node0x2226f700 -->
<g id="node15" class="node"><title>Node0x2226f700</title>
<polygon fill="none" stroke="black" points="550.5,-670.5 550.5,-723.5 824.5,-723.5 824.5,-670.5 550.5,-670.5"/>
<text text-anchor="start" x="558.5" y="-708.3" font-family="Times,serif" font-size="14.00">v14 = IntToPtrCastExpr&lt;ptr&gt;(v11)</text>
<text text-anchor="start" x="558.5" y="-693.3" font-family="Times,serif" font-size="14.00"> v13 = *(v14)</text>
<text text-anchor="start" x="558.5" y="-678.3" font-family="Times,serif" font-size="14.00"> v12 = *(v14)</text>
</g>
<!-- Node0x2226f620&#45;&gt;Node0x2226f700 -->
<g id="edge16" class="edge"><title>Node0x2226f620&#45;&gt;Node0x2226f700</title>
<path fill="none" stroke="black" d="M613.665,-777.967C658.796,-772.379 696.169,-765.353 703.5,-757 709.35,-750.335 709.676,-741.736 707.462,-733.175"/>
<polygon fill="black" stroke="black" points="710.71,-731.864 704.042,-723.631 704.121,-734.225 710.71,-731.864"/>
<text text-anchor="middle" x="881" y="-745.8" font-family="Times,serif" font-size="14.00">*(IntToPtrCastExpr&lt;ptr&gt;((result + 24))) &gt;= 16</text>
</g>
<!-- Node0x2226fc50 -->
<g id="node16" class="node"><title>Node0x2226fc50</title>
<polygon fill="none" stroke="black" points="313.5,-459.5 313.5,-632.5 641.5,-632.5 641.5,-459.5 313.5,-459.5"/>
<text text-anchor="start" x="321.5" y="-617.3" font-family="Times,serif" font-size="14.00">0x4029eb:</text>
<text text-anchor="start" x="321.5" y="-602.3" font-family="Times,serif" font-size="14.00"> g2 = ((v8 + v6) + v13)</text>
<text text-anchor="start" x="321.5" y="-587.3" font-family="Times,serif" font-size="14.00"> g8 = (v12 + v6)</text>
<text text-anchor="start" x="321.5" y="-572.3" font-family="Times,serif" font-size="14.00"> _memmove_s()</text>
<text text-anchor="start" x="321.5" y="-557.3" font-family="Times,serif" font-size="14.00"> v15 = g9</text>
<text text-anchor="start" x="321.5" y="-542.3" font-family="Times,serif" font-size="14.00"> v16 = IntToPtrCastExpr&lt;ptr&gt;((v15 + 20))</text>
<text text-anchor="start" x="321.5" y="-527.3" font-family="Times,serif" font-size="14.00"> v17 = (*(v16) &#45; g7)</text>
<text text-anchor="start" x="321.5" y="-512.3" font-family="Times,serif" font-size="14.00"> g2 = v17</text>
<text text-anchor="start" x="321.5" y="-497.3" font-family="Times,serif" font-size="14.00"> *(v16) = v17</text>
<text text-anchor="start" x="321.5" y="-482.3" font-family="Times,serif" font-size="14.00"> v18 = g3</text>
<text text-anchor="start" x="321.5" y="-467.3" font-family="Times,serif" font-size="14.00"> v19</text>
</g>
<!-- Node0x22270430&#45;&gt;Node0x2226fc50 -->
<g id="edge17" class="edge"><title>Node0x22270430&#45;&gt;Node0x2226fc50</title>
<path fill="none" stroke="black" d="M420.362,-670.386C424.206,-662.084 428.722,-652.333 433.502,-642.011"/>
<polygon fill="black" stroke="black" points="436.733,-643.362 437.759,-632.816 430.381,-640.42 436.733,-643.362"/>
</g>
<!-- Node0x2226f700&#45;&gt;Node0x2226fc50 -->
<g id="edge18" class="edge"><title>Node0x2226f700&#45;&gt;Node0x2226fc50</title>
<path fill="none" stroke="black" d="M651.4,-670.386C638.517,-661.246 623.158,-650.348 606.977,-638.867"/>
<polygon fill="black" stroke="black" points="608.63,-635.749 598.449,-632.816 604.58,-641.458 608.63,-635.749"/>
</g>
<!-- Node0x2226fe50 -->
<g id="node17" class="node"><title>Node0x2226fe50</title>
<polygon fill="none" stroke="black" points="290.5,-383.5 290.5,-421.5 664.5,-421.5 664.5,-383.5 290.5,-383.5"/>
<text text-anchor="start" x="298.5" y="-406.3" font-family="Times,serif" font-size="14.00">if (*(IntToPtrCastExpr&lt;ptr&gt;((v15 + 24))) &gt;= 16):</text>
<text text-anchor="start" x="298.5" y="-391.3" font-family="Times,serif" font-size="14.00"> else:</text>
</g>
<!-- Node0x2226fc50&#45;&gt;Node0x2226fe50 -->
<g id="edge19" class="edge"><title>Node0x2226fc50&#45;&gt;Node0x2226fe50</title>
<path fill="none" stroke="black" d="M477.5,-459.425C477.5,-449.55 477.5,-440.079 477.5,-431.829"/>
<polygon fill="black" stroke="black" points="481,-431.754 477.5,-421.754 474,-431.754 481,-431.754"/>
</g>
<!-- Node0x2226f7b0 -->
<g id="node18" class="node"><title>Node0x2226f7b0</title>
<polygon fill="none" stroke="black" points="243.5,-278.5 243.5,-331.5 539.5,-331.5 539.5,-278.5 243.5,-278.5"/>
<text text-anchor="start" x="251.5" y="-316.3" font-family="Times,serif" font-size="14.00">0x402a13:</text>
<text text-anchor="start" x="251.5" y="-301.3" font-family="Times,serif" font-size="14.00"> v19 = *(IntToPtrCastExpr&lt;ptr&gt;(v18))</text>
<text text-anchor="start" x="251.5" y="-286.3" font-family="Times,serif" font-size="14.00"> g3 = v19</text>
</g>
<!-- Node0x2226fe50&#45;&gt;Node0x2226f7b0 -->
<g id="edge20" class="edge"><title>Node0x2226fe50&#45;&gt;Node0x2226f7b0</title>
<path fill="none" stroke="black" d="M377.28,-383.473C369.276,-378.633 362.126,-372.574 356.5,-365 350.755,-357.266 352.135,-348.528 356.713,-340.193"/>
<polygon fill="black" stroke="black" points="359.75,-341.95 362.475,-331.712 353.96,-338.017 359.75,-341.95"/>
<text text-anchor="middle" x="521" y="-353.8" font-family="Times,serif" font-size="14.00">*(IntToPtrCastExpr&lt;ptr&gt;((v15 + 24))) &gt;= 16</text>
</g>
<!-- Node0x2226f980 -->
<g id="node19" class="node"><title>Node0x2226f980</title>
<polygon fill="none" stroke="black" points="592.5,-287 592.5,-323 682.5,-323 682.5,-287 592.5,-287"/>
<text text-anchor="start" x="600.5" y="-301.3" font-family="Times,serif" font-size="14.00">v19 = v18</text>
</g>
<!-- Node0x2226fe50&#45;&gt;Node0x2226f980 -->
<g id="edge21" class="edge"><title>Node0x2226fe50&#45;&gt;Node0x2226f980</title>
<path fill="none" stroke="black" d="M649.291,-383.478C665.959,-378.698 679.075,-372.651 685.5,-365 695.205,-353.444 686.679,-340.448 674.266,-329.6"/>
<polygon fill="black" stroke="black" points="676.168,-326.641 666.163,-323.156 671.811,-332.119 676.168,-326.641"/>
<text text-anchor="middle" x="848" y="-353.8" font-family="Times,serif" font-size="14.00">*(IntToPtrCastExpr&lt;ptr&gt;((v15 + 24))) &lt; 16</text>
</g>
<!-- Node0x22270220 -->
<g id="node20" class="node"><title>Node0x22270220</title>
<polygon fill="none" stroke="black" points="235,-97.5 235,-240.5 564,-240.5 564,-97.5 235,-97.5"/>
<text text-anchor="start" x="243" y="-225.3" font-family="Times,serif" font-size="14.00">0x402a16:</text>
<text text-anchor="start" x="243" y="-210.3" font-family="Times,serif" font-size="14.00"> *(IntToPtrCastExpr&lt;ptr&gt;((g2 + v19))) = 0</text>
<text text-anchor="start" x="243" y="-195.3" font-family="Times,serif" font-size="14.00"> g3 = v10</text>
<text text-anchor="start" x="243" y="-180.3" font-family="Times,serif" font-size="14.00"> g10 = v5</text>
<text text-anchor="start" x="243" y="-165.3" font-family="Times,serif" font-size="14.00"> result2 = g9</text>
<text text-anchor="start" x="243" y="-150.3" font-family="Times,serif" font-size="14.00"> g7 = v4</text>
<text text-anchor="start" x="243" y="-135.3" font-family="Times,serif" font-size="14.00"> g9 = v1</text>
<text text-anchor="start" x="243" y="-120.3" font-family="Times,serif" font-size="14.00"> g4 = v9</text>
<text text-anchor="start" x="243" y="-105.3" font-family="Times,serif" font-size="14.00"> return result2</text>
</g>
<!-- Node0x2226f7b0&#45;&gt;Node0x22270220 -->
<g id="edge22" class="edge"><title>Node0x2226f7b0&#45;&gt;Node0x22270220</title>
<path fill="none" stroke="black" d="M393.024,-278.48C393.513,-270.279 394.084,-260.711 394.681,-250.718"/>
<polygon fill="black" stroke="black" points="398.182,-250.808 395.284,-240.618 391.194,-250.391 398.182,-250.808"/>
</g>
<!-- Node0x2226f980&#45;&gt;Node0x22270220 -->
<g id="edge23" class="edge"><title>Node0x2226f980&#45;&gt;Node0x22270220</title>
<path fill="none" stroke="black" d="M606.873,-286.756C587.614,-275.913 561.281,-261.087 533.841,-245.637"/>
<polygon fill="black" stroke="black" points="535.332,-242.46 524.901,-240.604 531.897,-248.56 535.332,-242.46"/>
</g>
<!-- Node0x22270220&#45;&gt;Node0x8dbee3b0 -->
<g id="edge24" class="edge"><title>Node0x22270220&#45;&gt;Node0x8dbee3b0</title>
<path fill="none" stroke="black" d="M321.627,-97.181C309.471,-86.1254 297.687,-75.4096 287.821,-66.4372"/>
<polygon fill="black" stroke="black" points="290.102,-63.7807 280.349,-59.642 285.393,-68.9595 290.102,-63.7807"/>
</g>
</g>
</svg>
