<?xml version="1.0" encoding="UTF-8" standalone="no"?>
<!DOCTYPE svg PUBLIC "-//W3C//DTD SVG 1.1//EN"
 "http://www.w3.org/Graphics/SVG/1.1/DTD/svg11.dtd">
<!-- Generated by graphviz version 2.38.0 (20140413.2041)
 -->
<!-- Title: Control&#45;flow graph for function &#39;function_407e9e(*nResult, a2)&#39;. Pages: 1 -->
<svg width="982pt" height="687pt"
 viewBox="0.00 0.00 981.50 687.00" xmlns="http://www.w3.org/2000/svg" xmlns:xlink="http://www.w3.org/1999/xlink">
<g id="graph0" class="graph" transform="scale(1 1) rotate(0) translate(4 683)">
<title>Control&#45;flow graph for function &#39;function_407e9e(*nResult, a2)&#39;.</title>
<polygon fill="white" stroke="none" points="-4,4 -4,-683 977.5,-683 977.5,4 -4,4"/>
<text text-anchor="middle" x="486.75" y="-7.8" font-family="Times,serif" font-size="14.00">Control&#45;flow graph for function &#39;function_407e9e(*nResult, a2)&#39;.</text>
<!-- Node0x1b7d86d0 -->
<g id="node1" class="node"><title>Node0x1b7d86d0</title>
<polygon fill="none" stroke="black" points="548.5,-625.5 548.5,-678.5 624.5,-678.5 624.5,-625.5 548.5,-625.5"/>
<text text-anchor="start" x="556.5" y="-663.3" font-family="Times,serif" font-size="14.00">entry:</text>
<text text-anchor="start" x="556.5" y="-648.3" font-family="Times,serif" font-size="14.00"> nResult</text>
<text text-anchor="start" x="556.5" y="-633.3" font-family="Times,serif" font-size="14.00"> a2</text>
</g>
<!-- Node0x1b7d8a40 -->
<g id="node2" class="node"><title>Node0x1b7d8a40</title>
<polygon fill="none" stroke="black" points="422.5,-444.5 422.5,-587.5 750.5,-587.5 750.5,-444.5 422.5,-444.5"/>
<text text-anchor="start" x="430.5" y="-572.3" font-family="Times,serif" font-size="14.00">v1</text>
<text text-anchor="start" x="430.5" y="-557.3" font-family="Times,serif" font-size="14.00"> g10 = &amp;(v1)</text>
<text text-anchor="start" x="430.5" y="-542.3" font-family="Times,serif" font-size="14.00"> v2 = g5</text>
<text text-anchor="start" x="430.5" y="-527.3" font-family="Times,serif" font-size="14.00"> g9 = v2</text>
<text text-anchor="start" x="430.5" y="-512.3" font-family="Times,serif" font-size="14.00"> v3 = *(IntToPtrCastExpr&lt;ptr&gt;((v2 + 60)))</text>
<text text-anchor="start" x="430.5" y="-497.3" font-family="Times,serif" font-size="14.00"> g1 = False</text>
<text text-anchor="start" x="430.5" y="-482.3" font-family="Times,serif" font-size="14.00"> g180 = ((v3 &amp; 24) == 0)</text>
<text text-anchor="start" x="430.5" y="-467.3" font-family="Times,serif" font-size="14.00"> v4</text>
<text text-anchor="start" x="430.5" y="-452.3" font-family="Times,serif" font-size="14.00"> v5</text>
</g>
<!-- Node0x1b7d86d0&#45;&gt;Node0x1b7d8a40 -->
<g id="edge1" class="edge"><title>Node0x1b7d86d0&#45;&gt;Node0x1b7d8a40</title>
<path fill="none" stroke="black" d="M586.5,-625.48C586.5,-617.279 586.5,-607.711 586.5,-597.718"/>
<polygon fill="black" stroke="black" points="590,-597.617 586.5,-587.618 583,-597.618 590,-597.617"/>
</g>
<!-- Node0x1b7d8650 -->
<g id="node3" class="node"><title>Node0x1b7d8650</title>
<polygon fill="none" stroke="black" points="532.5,-368.5 532.5,-406.5 640.5,-406.5 640.5,-368.5 532.5,-368.5"/>
<text text-anchor="start" x="540.5" y="-391.3" font-family="Times,serif" font-size="14.00">if (v3 != 24):</text>
<text text-anchor="start" x="540.5" y="-376.3" font-family="Times,serif" font-size="14.00"> else:</text>
</g>
<!-- Node0x1b7d8a40&#45;&gt;Node0x1b7d8650 -->
<g id="edge2" class="edge"><title>Node0x1b7d8a40&#45;&gt;Node0x1b7d8650</title>
<path fill="none" stroke="black" d="M586.5,-444.353C586.5,-434.594 586.5,-425.073 586.5,-416.737"/>
<polygon fill="black" stroke="black" points="590,-416.54 586.5,-406.54 583,-416.54 590,-416.54"/>
</g>
<!-- Node0x1b7d8e50 -->
<g id="node4" class="node"><title>Node0x1b7d8e50</title>
<polygon fill="none" stroke="black" points="0,-203.5 0,-316.5 747,-316.5 747,-203.5 0,-203.5"/>
<text text-anchor="start" x="8" y="-301.3" font-family="Times,serif" font-size="14.00">0x407ea7:</text>
<text text-anchor="start" x="8" y="-286.3" font-family="Times,serif" font-size="14.00"> v4 = nResult</text>
<text text-anchor="start" x="8" y="-271.3" font-family="Times,serif" font-size="14.00"> g10 = PtrToIntCastExpr&lt;int32&gt;(&amp;(v4))</text>
<text text-anchor="start" x="8" y="-256.3" font-family="Times,serif" font-size="14.00"> v6 = *(IntToPtrCastExpr&lt;ptr&gt;(v2))</text>
<text text-anchor="start" x="8" y="-241.3" font-family="Times,serif" font-size="14.00"> g2 = v6</text>
<text text-anchor="start" x="8" y="-226.3" font-family="Times,serif" font-size="14.00"> IntToPtrCastExpr&lt;ptr&gt;(*(IntToPtrCastExpr&lt;ptr&gt;((v6 + 132))))(PtrToIntCastExpr&lt;int32&gt;(nResult))</text>
<text text-anchor="start" x="8" y="-211.3" font-family="Times,serif" font-size="14.00"> v5 = g9</text>
</g>
<!-- Node0x1b7d8650&#45;&gt;Node0x1b7d8e50 -->
<g id="edge3" class="edge"><title>Node0x1b7d8650&#45;&gt;Node0x1b7d8e50</title>
<path fill="none" stroke="black" d="M555.528,-368.251C534.511,-355.868 505.408,-338.72 476.633,-321.766"/>
<polygon fill="black" stroke="black" points="478.115,-318.577 467.723,-316.516 474.562,-324.608 478.115,-318.577"/>
<text text-anchor="middle" x="556" y="-338.8" font-family="Times,serif" font-size="14.00">v3 != 24</text>
</g>
<!-- Node0x1b7d8f60 -->
<g id="node5" class="node"><title>Node0x1b7d8f60</title>
<polygon fill="none" stroke="black" points="765.5,-242 765.5,-278 837.5,-278 837.5,-242 765.5,-242"/>
<text text-anchor="start" x="773.5" y="-256.3" font-family="Times,serif" font-size="14.00">v5 = v2</text>
</g>
<!-- Node0x1b7d8650&#45;&gt;Node0x1b7d8f60 -->
<g id="edge4" class="edge"><title>Node0x1b7d8650&#45;&gt;Node0x1b7d8f60</title>
<path fill="none" stroke="black" d="M640.631,-372.097C675.937,-360.925 721.744,-342.931 756.5,-317 767.59,-308.726 777.519,-297.107 785.21,-286.595"/>
<polygon fill="black" stroke="black" points="788.269,-288.328 791.122,-278.124 782.529,-284.322 788.269,-288.328"/>
<text text-anchor="middle" x="761" y="-338.8" font-family="Times,serif" font-size="14.00">v3 == 24</text>
</g>
<!-- Node0x1b7d8df0 -->
<g id="node6" class="node"><title>Node0x1b7d8df0</title>
<polygon fill="none" stroke="black" points="301.5,-97.5 301.5,-165.5 973.5,-165.5 973.5,-97.5 301.5,-97.5"/>
<text text-anchor="start" x="309.5" y="-150.3" font-family="Times,serif" font-size="14.00">0x407eb3:</text>
<text text-anchor="start" x="309.5" y="-135.3" font-family="Times,serif" font-size="14.00"> v4 = nResult</text>
<text text-anchor="start" x="309.5" y="-120.3" font-family="Times,serif" font-size="14.00"> g9 = v1</text>
<text text-anchor="start" x="309.5" y="-105.3" font-family="Times,serif" font-size="14.00"> return EndDialog(IntToPtrCastExpr&lt;ptr&gt;(*(IntToPtrCastExpr&lt;ptr&gt;((v5 + 32)))), nResult)</text>
</g>
<!-- Node0x1b7d8e50&#45;&gt;Node0x1b7d8df0 -->
<g id="edge5" class="edge"><title>Node0x1b7d8e50&#45;&gt;Node0x1b7d8df0</title>
<path fill="none" stroke="black" d="M489.678,-203.331C513.161,-192.079 537.321,-180.502 559.129,-170.053"/>
<polygon fill="black" stroke="black" points="560.816,-173.126 568.322,-165.648 557.791,-166.813 560.816,-173.126"/>
</g>
<!-- Node0x1b7d8f60&#45;&gt;Node0x1b7d8df0 -->
<g id="edge6" class="edge"><title>Node0x1b7d8f60&#45;&gt;Node0x1b7d8df0</title>
<path fill="none" stroke="black" d="M790.281,-241.972C781.914,-230.115 769.692,-214.439 756.5,-203 742.953,-191.253 727.184,-180.36 711.642,-170.823"/>
<polygon fill="black" stroke="black" points="713.423,-167.81 703.047,-165.668 709.822,-173.813 713.423,-167.81"/>
</g>
<!-- Node0x124abef0 -->
<g id="node7" class="node"><title>Node0x124abef0</title>
<polygon fill="none" stroke="black" points="610.5,-23.5 610.5,-59.5 664.5,-59.5 664.5,-23.5 610.5,-23.5"/>
<text text-anchor="start" x="618.5" y="-37.8" font-family="Times,serif" font-size="14.00">exit:</text>
</g>
<!-- Node0x1b7d8df0&#45;&gt;Node0x124abef0 -->
<g id="edge7" class="edge"><title>Node0x1b7d8df0&#45;&gt;Node0x124abef0</title>
<path fill="none" stroke="black" d="M637.5,-97.4817C637.5,-88.3281 637.5,-78.4972 637.5,-69.7155"/>
<polygon fill="black" stroke="black" points="641,-69.6402 637.5,-59.6402 634,-69.6403 641,-69.6402"/>
</g>
</g>
</svg>
