<?xml version="1.0" encoding="UTF-8" standalone="no"?>
<!DOCTYPE svg PUBLIC "-//W3C//DTD SVG 1.1//EN"
 "http://www.w3.org/Graphics/SVG/1.1/DTD/svg11.dtd">
<!-- Generated by graphviz version 2.38.0 (20140413.2041)
 -->
<!-- Title: Control&#45;flow graph for function &#39;function_41bc5d(*a1)&#39;. Pages: 1 -->
<svg width="598pt" height="233pt"
 viewBox="0.00 0.00 598.00 233.00" xmlns="http://www.w3.org/2000/svg" xmlns:xlink="http://www.w3.org/1999/xlink">
<g id="graph0" class="graph" transform="scale(1 1) rotate(0) translate(4 229)">
<title>Control&#45;flow graph for function &#39;function_41bc5d(*a1)&#39;.</title>
<polygon fill="white" stroke="none" points="-4,4 -4,-229 594,-229 594,4 -4,4"/>
<text text-anchor="middle" x="295" y="-7.8" font-family="Times,serif" font-size="14.00">Control&#45;flow graph for function &#39;function_41bc5d(*a1)&#39;.</text>
<!-- Node0x5b9a3150 -->
<g id="node1" class="node"><title>Node0x5b9a3150</title>
<polygon fill="none" stroke="black" points="265.5,-186.5 265.5,-224.5 324.5,-224.5 324.5,-186.5 265.5,-186.5"/>
<text text-anchor="start" x="273.5" y="-209.3" font-family="Times,serif" font-size="14.00">entry:</text>
<text text-anchor="start" x="273.5" y="-194.3" font-family="Times,serif" font-size="14.00"> a1</text>
</g>
<!-- Node0x14ceb1a0 -->
<g id="node2" class="node"><title>Node0x14ceb1a0</title>
<polygon fill="none" stroke="black" points="0,-96.5 0,-149.5 590,-149.5 590,-96.5 0,-96.5"/>
<text text-anchor="start" x="8" y="-134.3" font-family="Times,serif" font-size="14.00">0x41bc5d:</text>
<text text-anchor="start" x="8" y="-119.3" font-family="Times,serif" font-size="14.00"> *(IntToPtrCastExpr&lt;ptr&gt;(g5)) = PtrToIntCastExpr&lt;int32&gt;(&amp;(vtable_43b9dc))</text>
<text text-anchor="start" x="8" y="-104.3" font-family="Times,serif" font-size="14.00"> return IntToPtrCastExpr&lt;ptr&gt;(function_41ba88(0))</text>
</g>
<!-- Node0x5b9a3150&#45;&gt;Node0x14ceb1a0 -->
<g id="edge1" class="edge"><title>Node0x5b9a3150&#45;&gt;Node0x14ceb1a0</title>
<path fill="none" stroke="black" d="M295,-186.233C295,-178.347 295,-168.835 295,-159.648"/>
<polygon fill="black" stroke="black" points="298.5,-159.517 295,-149.517 291.5,-159.517 298.5,-159.517"/>
</g>
<!-- Node0x14cf88e0 -->
<g id="node3" class="node"><title>Node0x14cf88e0</title>
<polygon fill="none" stroke="black" points="268,-23.5 268,-59.5 322,-59.5 322,-23.5 268,-23.5"/>
<text text-anchor="start" x="276" y="-37.8" font-family="Times,serif" font-size="14.00">exit:</text>
</g>
<!-- Node0x14ceb1a0&#45;&gt;Node0x14cf88e0 -->
<g id="edge2" class="edge"><title>Node0x14ceb1a0&#45;&gt;Node0x14cf88e0</title>
<path fill="none" stroke="black" d="M295,-96.4081C295,-87.9823 295,-78.5803 295,-70.0174"/>
<polygon fill="black" stroke="black" points="298.5,-69.7564 295,-59.7564 291.5,-69.7565 298.5,-69.7564"/>
</g>
</g>
</svg>
