<?xml version="1.0" encoding="UTF-8" standalone="no"?>
<!DOCTYPE svg PUBLIC "-//W3C//DTD SVG 1.1//EN"
 "http://www.w3.org/Graphics/SVG/1.1/DTD/svg11.dtd">
<!-- Generated by graphviz version 2.38.0 (20140413.2041)
 -->
<!-- Title: Control&#45;flow graph for function &#39;function_41ee59()&#39;. Pages: 1 -->
<svg width="503pt" height="472pt"
 viewBox="0.00 0.00 503.00 472.00" xmlns="http://www.w3.org/2000/svg" xmlns:xlink="http://www.w3.org/1999/xlink">
<g id="graph0" class="graph" transform="scale(1 1) rotate(0) translate(4 468)">
<title>Control&#45;flow graph for function &#39;function_41ee59()&#39;.</title>
<polygon fill="white" stroke="none" points="-4,4 -4,-468 499,-468 499,4 -4,4"/>
<text text-anchor="middle" x="247.5" y="-7.8" font-family="Times,serif" font-size="14.00">Control&#45;flow graph for function &#39;function_41ee59()&#39;.</text>
<!-- Node0x109edf60 -->
<g id="node1" class="node"><title>Node0x109edf60</title>
<polygon fill="none" stroke="black" points="218,-427.5 218,-463.5 277,-463.5 277,-427.5 218,-427.5"/>
<text text-anchor="start" x="226" y="-441.8" font-family="Times,serif" font-size="14.00">entry:</text>
</g>
<!-- Node0x7ecdc120 -->
<g id="node2" class="node"><title>Node0x7ecdc120</title>
<polygon fill="none" stroke="black" points="0,-291.5 0,-389.5 495,-389.5 495,-291.5 0,-291.5"/>
<text text-anchor="start" x="8" y="-374.3" font-family="Times,serif" font-size="14.00">0x41ee59:</text>
<text text-anchor="start" x="8" y="-359.3" font-family="Times,serif" font-size="14.00"> v1</text>
<text text-anchor="start" x="8" y="-344.3" font-family="Times,serif" font-size="14.00"> v2</text>
<text text-anchor="start" x="8" y="-329.3" font-family="Times,serif" font-size="14.00"> v3 = function_4048b3(IntToPtrCastExpr&lt;ptr&gt;(20), &amp;(v1[&#39;0&#39;]), v2)</text>
<text text-anchor="start" x="8" y="-314.3" font-family="Times,serif" font-size="14.00"> v4 = IntToPtrCastExpr&lt;ptr&gt;(20)</text>
<text text-anchor="start" x="8" y="-299.3" font-family="Times,serif" font-size="14.00"> g5 = PtrToIntCastExpr&lt;int32&gt;(v4)</text>
</g>
<!-- Node0x109edf60&#45;&gt;Node0x7ecdc120 -->
<g id="edge1" class="edge"><title>Node0x109edf60&#45;&gt;Node0x7ecdc120</title>
<path fill="none" stroke="black" d="M247.5,-427.492C247.5,-419.692 247.5,-409.94 247.5,-399.829"/>
<polygon fill="black" stroke="black" points="251,-399.659 247.5,-389.659 244,-399.659 251,-399.659"/>
</g>
<!-- Node0x7ecdab80 -->
<g id="node3" class="node"><title>Node0x7ecdab80</title>
<polygon fill="none" stroke="black" points="198,-217.5 198,-253.5 297,-253.5 297,-217.5 198,-217.5"/>
<text text-anchor="start" x="206" y="-231.8" font-family="Times,serif" font-size="14.00">if (v3 != 0):</text>
</g>
<!-- Node0x7ecdc120&#45;&gt;Node0x7ecdab80 -->
<g id="edge2" class="edge"><title>Node0x7ecdc120&#45;&gt;Node0x7ecdab80</title>
<path fill="none" stroke="black" d="M247.5,-291.317C247.5,-281.893 247.5,-272.32 247.5,-263.868"/>
<polygon fill="black" stroke="black" points="251,-263.856 247.5,-253.856 244,-263.856 251,-263.856"/>
</g>
<!-- Node0x7ecce220 -->
<g id="node4" class="node"><title>Node0x7ecce220</title>
<polygon fill="none" stroke="black" points="47.5,-105 47.5,-158 265.5,-158 265.5,-105 47.5,-105"/>
<text text-anchor="start" x="55.5" y="-142.8" font-family="Times,serif" font-size="14.00">0x41ee65:</text>
<text text-anchor="start" x="55.5" y="-127.8" font-family="Times,serif" font-size="14.00"> g5 = v3</text>
<text text-anchor="start" x="55.5" y="-112.8" font-family="Times,serif" font-size="14.00"> return function_41eca5(v4)</text>
</g>
<!-- Node0x7ecdab80&#45;&gt;Node0x7ecce220 -->
<g id="edge3" class="edge"><title>Node0x7ecdab80&#45;&gt;Node0x7ecce220</title>
<path fill="none" stroke="black" d="M232.063,-217.197C219.575,-203.199 201.617,-183.07 186.341,-165.948"/>
<polygon fill="black" stroke="black" points="188.809,-163.457 179.54,-158.325 183.586,-168.117 188.809,-163.457"/>
<text text-anchor="middle" x="242.5" y="-187.8" font-family="Times,serif" font-size="14.00">v3 != 0</text>
</g>
<!-- Node0x109e35c0 -->
<g id="node5" class="node"><title>Node0x109e35c0</title>
<polygon fill="none" stroke="black" points="284,-97.5 284,-165.5 395,-165.5 395,-97.5 284,-97.5"/>
<text text-anchor="start" x="292" y="-150.3" font-family="Times,serif" font-size="14.00">0x41ee6c:</text>
<text text-anchor="start" x="292" y="-135.3" font-family="Times,serif" font-size="14.00"> g1 = False</text>
<text text-anchor="start" x="292" y="-120.3" font-family="Times,serif" font-size="14.00"> g180 = True</text>
<text text-anchor="start" x="292" y="-105.3" font-family="Times,serif" font-size="14.00"> return 0</text>
</g>
<!-- Node0x7ecdab80&#45;&gt;Node0x109e35c0 -->
<g id="edge4" class="edge"><title>Node0x7ecdab80&#45;&gt;Node0x109e35c0</title>
<path fill="none" stroke="black" d="M263.107,-217.197C273.933,-205.194 288.826,-188.682 302.588,-173.424"/>
<polygon fill="black" stroke="black" points="305.555,-175.36 309.654,-165.59 300.357,-170.672 305.555,-175.36"/>
<text text-anchor="middle" x="321.5" y="-187.8" font-family="Times,serif" font-size="14.00">v3 == 0</text>
</g>
<!-- Node0x7ecdc0c0 -->
<g id="node6" class="node"><title>Node0x7ecdc0c0</title>
<polygon fill="none" stroke="black" points="240.5,-23.5 240.5,-59.5 294.5,-59.5 294.5,-23.5 240.5,-23.5"/>
<text text-anchor="start" x="248.5" y="-37.8" font-family="Times,serif" font-size="14.00">exit:</text>
</g>
<!-- Node0x7ecce220&#45;&gt;Node0x7ecdc0c0 -->
<g id="edge5" class="edge"><title>Node0x7ecce220&#45;&gt;Node0x7ecdc0c0</title>
<path fill="none" stroke="black" d="M188.904,-104.81C204.346,-92.5681 222.691,-78.0244 237.772,-66.068"/>
<polygon fill="black" stroke="black" points="240.114,-68.678 245.776,-59.7228 235.765,-63.1926 240.114,-68.678"/>
</g>
<!-- Node0x109e35c0&#45;&gt;Node0x7ecdc0c0 -->
<g id="edge6" class="edge"><title>Node0x109e35c0&#45;&gt;Node0x7ecdc0c0</title>
<path fill="none" stroke="black" d="M312.485,-97.4817C304.337,-87.5234 295.534,-76.7634 287.893,-67.4249"/>
<polygon fill="black" stroke="black" points="290.565,-65.1635 281.524,-59.6402 285.147,-69.5962 290.565,-65.1635"/>
</g>
</g>
</svg>
