<?xml version="1.0" encoding="UTF-8" standalone="no"?>
<!DOCTYPE svg PUBLIC "-//W3C//DTD SVG 1.1//EN"
 "http://www.w3.org/Graphics/SVG/1.1/DTD/svg11.dtd">
<!-- Generated by graphviz version 2.38.0 (20140413.2041)
 -->
<!-- Title: Control&#45;flow graph for function &#39;function_410a7e(*a1, a2)&#39;. Pages: 1 -->
<svg width="973pt" height="1073pt"
 viewBox="0.00 0.00 972.50 1073.00" xmlns="http://www.w3.org/2000/svg" xmlns:xlink="http://www.w3.org/1999/xlink">
<g id="graph0" class="graph" transform="scale(1 1) rotate(0) translate(4 1069)">
<title>Control&#45;flow graph for function &#39;function_410a7e(*a1, a2)&#39;.</title>
<polygon fill="white" stroke="none" points="-4,4 -4,-1069 968.5,-1069 968.5,4 -4,4"/>
<text text-anchor="middle" x="482.25" y="-7.8" font-family="Times,serif" font-size="14.00">Control&#45;flow graph for function &#39;function_410a7e(*a1, a2)&#39;.</text>
<!-- Node0x1d65aab0 -->
<g id="node1" class="node"><title>Node0x1d65aab0</title>
<polygon fill="none" stroke="black" points="130,-1011.5 130,-1064.5 189,-1064.5 189,-1011.5 130,-1011.5"/>
<text text-anchor="start" x="138" y="-1049.3" font-family="Times,serif" font-size="14.00">entry:</text>
<text text-anchor="start" x="138" y="-1034.3" font-family="Times,serif" font-size="14.00"> a1</text>
<text text-anchor="start" x="138" y="-1019.3" font-family="Times,serif" font-size="14.00"> a2</text>
</g>
<!-- Node0x1d65b630 -->
<g id="node2" class="node"><title>Node0x1d65b630</title>
<polygon fill="none" stroke="black" points="7,-860.5 7,-973.5 312,-973.5 312,-860.5 7,-860.5"/>
<text text-anchor="start" x="15" y="-958.3" font-family="Times,serif" font-size="14.00">0x410a7e:</text>
<text text-anchor="start" x="15" y="-943.3" font-family="Times,serif" font-size="14.00"> v1</text>
<text text-anchor="start" x="15" y="-928.3" font-family="Times,serif" font-size="14.00"> v2 = v1</text>
<text text-anchor="start" x="15" y="-913.3" font-family="Times,serif" font-size="14.00"> v3 = &amp;(v2)</text>
<text text-anchor="start" x="15" y="-898.3" font-family="Times,serif" font-size="14.00"> g10 = v3</text>
<text text-anchor="start" x="15" y="-883.3" font-family="Times,serif" font-size="14.00"> hMem = PtrToIntCastExpr&lt;int32&gt;(a1)</text>
<text text-anchor="start" x="15" y="-868.3" font-family="Times,serif" font-size="14.00"> g7 = hMem</text>
</g>
<!-- Node0x1d65aab0&#45;&gt;Node0x1d65b630 -->
<g id="edge1" class="edge"><title>Node0x1d65aab0&#45;&gt;Node0x1d65b630</title>
<path fill="none" stroke="black" d="M159.5,-1011.47C159.5,-1003.26 159.5,-993.751 159.5,-984.006"/>
<polygon fill="black" stroke="black" points="163,-983.81 159.5,-973.81 156,-983.81 163,-983.81"/>
</g>
<!-- Node0x1d65b700 -->
<g id="node3" class="node"><title>Node0x1d65b700</title>
<polygon fill="none" stroke="black" points="89.5,-786.5 89.5,-822.5 229.5,-822.5 229.5,-786.5 89.5,-786.5"/>
<text text-anchor="start" x="97.5" y="-800.8" font-family="Times,serif" font-size="14.00">if (a1 == NULL):</text>
</g>
<!-- Node0x1d65b630&#45;&gt;Node0x1d65b700 -->
<g id="edge2" class="edge"><title>Node0x1d65b630&#45;&gt;Node0x1d65b700</title>
<path fill="none" stroke="black" d="M159.5,-860.426C159.5,-850.86 159.5,-841.307 159.5,-832.913"/>
<polygon fill="black" stroke="black" points="163,-832.644 159.5,-822.644 156,-832.644 163,-832.644"/>
</g>
<!-- Node0x1d65c290 -->
<g id="node4" class="node"><title>Node0x1d65c290</title>
<polygon fill="none" stroke="black" points="0,-564.5 0,-632.5 113,-632.5 113,-564.5 0,-564.5"/>
<text text-anchor="start" x="8" y="-617.3" font-family="Times,serif" font-size="14.00">0x410aad:</text>
<text text-anchor="start" x="8" y="-602.3" font-family="Times,serif" font-size="14.00"> g7 = v1</text>
<text text-anchor="start" x="8" y="-587.3" font-family="Times,serif" font-size="14.00"> result</text>
<text text-anchor="start" x="8" y="-572.3" font-family="Times,serif" font-size="14.00"> return result</text>
</g>
<!-- Node0x1d65b700&#45;&gt;Node0x1d65c290 -->
<g id="edge3" class="edge"><title>Node0x1d65b700&#45;&gt;Node0x1d65c290</title>
<path fill="none" stroke="black" d="M113.223,-786.495C104.971,-781.633 97.2014,-775.543 91.5,-768 64.2807,-731.988 56.9991,-679.793 55.6023,-643.059"/>
<polygon fill="black" stroke="black" points="59.0915,-642.575 55.3471,-632.664 52.0936,-642.747 59.0915,-642.575"/>
<text text-anchor="middle" x="138.5" y="-756.8" font-family="Times,serif" font-size="14.00">a1 == NULL</text>
</g>
<!-- Node0x1d65b8d0 -->
<g id="node5" class="node"><title>Node0x1d65b8d0</title>
<polygon fill="none" stroke="black" points="143.5,-651.5 143.5,-734.5 343.5,-734.5 343.5,-651.5 143.5,-651.5"/>
<text text-anchor="start" x="151.5" y="-719.3" font-family="Times,serif" font-size="14.00">v4 = g9</text>
<text text-anchor="start" x="151.5" y="-704.3" font-family="Times,serif" font-size="14.00"> v5 = GlobalFlags(hMem)</text>
<text text-anchor="start" x="151.5" y="-689.3" font-family="Times,serif" font-size="14.00"> v6 = (v5 &amp; 255)</text>
<text text-anchor="start" x="151.5" y="-674.3" font-family="Times,serif" font-size="14.00"> g9 = v6</text>
<text text-anchor="start" x="151.5" y="-659.3" font-family="Times,serif" font-size="14.00"> result2</text>
</g>
<!-- Node0x1d65b700&#45;&gt;Node0x1d65b8d0 -->
<g id="edge4" class="edge"><title>Node0x1d65b700&#45;&gt;Node0x1d65b8d0</title>
<path fill="none" stroke="black" d="M172.625,-786.391C181.662,-774.61 194.157,-758.322 206.141,-742.7"/>
<polygon fill="black" stroke="black" points="209.031,-744.683 212.341,-734.618 203.477,-740.422 209.031,-744.683"/>
<text text-anchor="middle" x="240.5" y="-756.8" font-family="Times,serif" font-size="14.00">a1 != NULL</text>
</g>
<!-- Node0x1d65abd0 -->
<g id="node6" class="node"><title>Node0x1d65abd0</title>
<polygon fill="none" stroke="black" points="178.5,-23.5 178.5,-59.5 232.5,-59.5 232.5,-23.5 178.5,-23.5"/>
<text text-anchor="start" x="186.5" y="-37.8" font-family="Times,serif" font-size="14.00">exit:</text>
</g>
<!-- Node0x1d65c290&#45;&gt;Node0x1d65abd0 -->
<g id="edge5" class="edge"><title>Node0x1d65c290&#45;&gt;Node0x1d65abd0</title>
<path fill="none" stroke="black" d="M55.1579,-564.378C54.3592,-541.858 53.5,-511.386 53.5,-484.5 53.5,-484.5 53.5,-484.5 53.5,-145.5 53.5,-90.0815 123.6,-62.431 168.59,-50.3918"/>
<polygon fill="black" stroke="black" points="169.493,-53.7738 178.325,-47.9229 167.772,-46.9885 169.493,-53.7738"/>
</g>
<!-- Node0x1d65b3e0 -->
<g id="node7" class="node"><title>Node0x1d65b3e0</title>
<polygon fill="none" stroke="black" points="199,-509.5 199,-545.5 322,-545.5 322,-509.5 199,-509.5"/>
<text text-anchor="start" x="207" y="-523.8" font-family="Times,serif" font-size="14.00">if (v5 == 255):</text>
</g>
<!-- Node0x1d65b8d0&#45;&gt;Node0x1d65b3e0 -->
<g id="edge6" class="edge"><title>Node0x1d65b8d0&#45;&gt;Node0x1d65b3e0</title>
<path fill="none" stroke="black" d="M247.746,-651.164C250.844,-621.37 254.957,-581.806 257.664,-555.772"/>
<polygon fill="black" stroke="black" points="261.178,-555.819 258.731,-545.511 254.216,-555.095 261.178,-555.819"/>
</g>
<!-- Node0x1d65b930 -->
<g id="node8" class="node"><title>Node0x1d65b930</title>
<polygon fill="none" stroke="black" points="68.5,-302.5 68.5,-400.5 452.5,-400.5 452.5,-302.5 68.5,-302.5"/>
<text text-anchor="start" x="76.5" y="-385.3" font-family="Times,serif" font-size="14.00">0x410aa5:</text>
<text text-anchor="start" x="76.5" y="-370.3" font-family="Times,serif" font-size="14.00"> result2 = GlobalFree(IntToPtrCastExpr&lt;ptr&gt;(g7))</text>
<text text-anchor="start" x="76.5" y="-355.3" font-family="Times,serif" font-size="14.00"> g9 = v4</text>
<text text-anchor="start" x="76.5" y="-340.3" font-family="Times,serif" font-size="14.00"> g10 = v3</text>
<text text-anchor="start" x="76.5" y="-325.3" font-family="Times,serif" font-size="14.00"> g7 = v2</text>
<text text-anchor="start" x="76.5" y="-310.3" font-family="Times,serif" font-size="14.00"> return result2</text>
</g>
<!-- Node0x1d65b3e0&#45;&gt;Node0x1d65b930 -->
<g id="edge7" class="edge"><title>Node0x1d65b3e0&#45;&gt;Node0x1d65b930</title>
<path fill="none" stroke="black" d="M260.5,-509.499C260.5,-486.773 260.5,-445.338 260.5,-410.741"/>
<polygon fill="black" stroke="black" points="264,-410.72 260.5,-400.72 257,-410.72 264,-410.72"/>
<text text-anchor="middle" x="299.5" y="-479.8" font-family="Times,serif" font-size="14.00">v5 == 255</text>
</g>
<!-- Node0x1d65bd90 -->
<g id="node9" class="node"><title>Node0x1d65bd90</title>
<polygon fill="none" stroke="black" points="295,-419.5 295,-457.5 624,-457.5 624,-419.5 295,-419.5"/>
<text text-anchor="start" x="303" y="-442.3" font-family="Times,serif" font-size="14.00">g9 = (v6 &#45; 1)</text>
<text text-anchor="start" x="303" y="-427.3" font-family="Times,serif" font-size="14.00"> GlobalUnlock(IntToPtrCastExpr&lt;ptr&gt;(g7))</text>
</g>
<!-- Node0x1d65b3e0&#45;&gt;Node0x1d65bd90 -->
<g id="edge8" class="edge"><title>Node0x1d65b3e0&#45;&gt;Node0x1d65bd90</title>
<path fill="none" stroke="black" d="M300.144,-509.395C313.597,-503.575 328.709,-497.02 342.5,-491 364.46,-481.414 388.707,-470.753 409.406,-461.63"/>
<polygon fill="black" stroke="black" points="410.908,-464.793 418.646,-457.555 408.084,-458.388 410.908,-464.793"/>
<text text-anchor="middle" x="410.5" y="-479.8" font-family="Times,serif" font-size="14.00">v5 != 255</text>
</g>
<!-- Node0x1d65b930&#45;&gt;Node0x1d65abd0 -->
<g id="edge9" class="edge"><title>Node0x1d65b930&#45;&gt;Node0x1d65abd0</title>
<path fill="none" stroke="black" d="M247.911,-302.407C240.31,-272.054 230.891,-231.928 224.5,-196 216.675,-152.012 210.996,-100.362 207.978,-69.591"/>
<polygon fill="black" stroke="black" points="211.461,-69.2446 207.023,-59.6243 204.493,-69.9127 211.461,-69.2446"/>
</g>
<!-- Node0x1d65bdf0 -->
<g id="node10" class="node"><title>Node0x1d65bdf0</title>
<polygon fill="none" stroke="black" points="403.5,-247.5 403.5,-283.5 531.5,-283.5 531.5,-247.5 403.5,-247.5"/>
<text text-anchor="start" x="411.5" y="-261.8" font-family="Times,serif" font-size="14.00">while (g9 != 0):</text>
</g>
<!-- Node0x1d65bd90&#45;&gt;Node0x1d65bdf0 -->
<g id="edge10" class="edge"><title>Node0x1d65bd90&#45;&gt;Node0x1d65bdf0</title>
<path fill="none" stroke="black" d="M460.356,-419.2C461.766,-389.061 464.584,-328.825 466.228,-293.687"/>
<polygon fill="black" stroke="black" points="469.726,-293.802 466.698,-283.649 462.734,-293.475 469.726,-293.802"/>
</g>
<!-- Node0x1d657cd0 -->
<g id="node11" class="node"><title>Node0x1d657cd0</title>
<polygon fill="none" stroke="black" points="233,-120 233,-173 562,-173 562,-120 233,-120"/>
<text text-anchor="start" x="241" y="-157.8" font-family="Times,serif" font-size="14.00">0x410a99:</text>
<text text-anchor="start" x="241" y="-142.8" font-family="Times,serif" font-size="14.00"> g9 = (g9 &#45; 1)</text>
<text text-anchor="start" x="241" y="-127.8" font-family="Times,serif" font-size="14.00"> GlobalUnlock(IntToPtrCastExpr&lt;ptr&gt;(g7))</text>
</g>
<!-- Node0x1d65bdf0&#45;&gt;Node0x1d657cd0 -->
<g id="edge11" class="edge"><title>Node0x1d65bdf0&#45;&gt;Node0x1d657cd0</title>
<path fill="none" stroke="black" d="M417.623,-247.358C410.029,-242.584 403.177,-236.562 398.5,-229 390.214,-215.604 388.945,-198.449 390.157,-183.337"/>
<polygon fill="black" stroke="black" points="393.649,-183.611 391.337,-173.272 386.696,-182.796 393.649,-183.611"/>
<text text-anchor="middle" x="426" y="-217.8" font-family="Times,serif" font-size="14.00">g9 != 0</text>
</g>
<!-- Node0x1d65c090 -->
<g id="node12" class="node"><title>Node0x1d65c090</title>
<polygon fill="none" stroke="black" points="580.5,-97.5 580.5,-195.5 964.5,-195.5 964.5,-97.5 580.5,-97.5"/>
<text text-anchor="start" x="588.5" y="-180.3" font-family="Times,serif" font-size="14.00">0x410aa5:</text>
<text text-anchor="start" x="588.5" y="-165.3" font-family="Times,serif" font-size="14.00"> result2 = GlobalFree(IntToPtrCastExpr&lt;ptr&gt;(g7))</text>
<text text-anchor="start" x="588.5" y="-150.3" font-family="Times,serif" font-size="14.00"> g9 = v4</text>
<text text-anchor="start" x="588.5" y="-135.3" font-family="Times,serif" font-size="14.00"> g10 = v3</text>
<text text-anchor="start" x="588.5" y="-120.3" font-family="Times,serif" font-size="14.00"> g7 = v2</text>
<text text-anchor="start" x="588.5" y="-105.3" font-family="Times,serif" font-size="14.00"> return result2</text>
</g>
<!-- Node0x1d65bdf0&#45;&gt;Node0x1d65c090 -->
<g id="edge12" class="edge"><title>Node0x1d65bdf0&#45;&gt;Node0x1d65c090</title>
<path fill="none" stroke="black" d="M511.85,-247.487C545.09,-234.736 592.453,-216.567 637.708,-199.207"/>
<polygon fill="black" stroke="black" points="639.244,-202.367 647.327,-195.517 636.736,-195.831 639.244,-202.367"/>
<text text-anchor="middle" x="623" y="-217.8" font-family="Times,serif" font-size="14.00">g9 == 0</text>
</g>
<!-- Node0x1d657cd0&#45;&gt;Node0x1d65bdf0 -->
<g id="edge13" class="edge"><title>Node0x1d657cd0&#45;&gt;Node0x1d65bdf0</title>
<path fill="none" stroke="black" d="M423.526,-173.071C434.121,-184.709 445.687,-199.18 453.5,-214 457.335,-221.275 460.207,-229.708 462.319,-237.575"/>
<polygon fill="black" stroke="black" points="458.948,-238.53 464.673,-247.445 465.757,-236.906 458.948,-238.53"/>
</g>
<!-- Node0x1d65c090&#45;&gt;Node0x1d65abd0 -->
<g id="edge14" class="edge"><title>Node0x1d65c090&#45;&gt;Node0x1d65abd0</title>
<path fill="none" stroke="black" d="M580.4,-98.959C577.077,-98.2901 573.775,-97.6364 570.5,-97 451.398,-73.8559 308.777,-55.1304 242.603,-46.9506"/>
<polygon fill="black" stroke="black" points="243.006,-43.4739 232.654,-45.7293 242.153,-50.4218 243.006,-43.4739"/>
</g>
</g>
</svg>
