<?xml version="1.0" encoding="UTF-8" standalone="no"?>
<!DOCTYPE svg PUBLIC "-//W3C//DTD SVG 1.1//EN"
 "http://www.w3.org/Graphics/SVG/1.1/DTD/svg11.dtd">
<!-- Generated by graphviz version 2.38.0 (20140413.2041)
 -->
<!-- Title: Control&#45;flow graph for function &#39;function_4364f2(*a1)&#39;. Pages: 1 -->
<svg width="1151pt" height="1699pt"
 viewBox="0.00 0.00 1151.23 1699.00" xmlns="http://www.w3.org/2000/svg" xmlns:xlink="http://www.w3.org/1999/xlink">
<g id="graph0" class="graph" transform="scale(1 1) rotate(0) translate(4 1695)">
<title>Control&#45;flow graph for function &#39;function_4364f2(*a1)&#39;.</title>
<polygon fill="white" stroke="none" points="-4,4 -4,-1695 1147.23,-1695 1147.23,4 -4,4"/>
<text text-anchor="middle" x="571.615" y="-7.8" font-family="Times,serif" font-size="14.00">Control&#45;flow graph for function &#39;function_4364f2(*a1)&#39;.</text>
<!-- Node0x3aaad770 -->
<g id="node1" class="node"><title>Node0x3aaad770</title>
<polygon fill="none" stroke="black" points="111.5,-1652.5 111.5,-1690.5 170.5,-1690.5 170.5,-1652.5 111.5,-1652.5"/>
<text text-anchor="start" x="119.5" y="-1675.3" font-family="Times,serif" font-size="14.00">entry:</text>
<text text-anchor="start" x="119.5" y="-1660.3" font-family="Times,serif" font-size="14.00"> a1</text>
</g>
<!-- Node0x3aaadc20 -->
<g id="node2" class="node"><title>Node0x3aaadc20</title>
<polygon fill="none" stroke="black" points="5,-1561.5 5,-1614.5 277,-1614.5 277,-1561.5 5,-1561.5"/>
<text text-anchor="start" x="13" y="-1599.3" font-family="Times,serif" font-size="14.00">v1 = PtrToIntCastExpr&lt;int32&gt;(a1)</text>
<text text-anchor="start" x="13" y="-1584.3" font-family="Times,serif" font-size="14.00"> g9 = v1</text>
<text text-anchor="start" x="13" y="-1569.3" font-family="Times,serif" font-size="14.00"> v2</text>
</g>
<!-- Node0x3aaad770&#45;&gt;Node0x3aaadc20 -->
<g id="edge1" class="edge"><title>Node0x3aaad770&#45;&gt;Node0x3aaadc20</title>
<path fill="none" stroke="black" d="M141,-1652.41C141,-1644.28 141,-1634.39 141,-1624.86"/>
<polygon fill="black" stroke="black" points="144.5,-1624.77 141,-1614.77 137.5,-1624.77 144.5,-1624.77"/>
</g>
<!-- Node0x3aaadcf0 -->
<g id="node3" class="node"><title>Node0x3aaadcf0</title>
<polygon fill="none" stroke="black" points="71,-1487.5 71,-1523.5 211,-1523.5 211,-1487.5 71,-1487.5"/>
<text text-anchor="start" x="79" y="-1501.8" font-family="Times,serif" font-size="14.00">if (a1 == NULL):</text>
</g>
<!-- Node0x3aaadc20&#45;&gt;Node0x3aaadcf0 -->
<g id="edge2" class="edge"><title>Node0x3aaadc20&#45;&gt;Node0x3aaadcf0</title>
<path fill="none" stroke="black" d="M141,-1561.09C141,-1552.46 141,-1542.82 141,-1534.07"/>
<polygon fill="black" stroke="black" points="144.5,-1533.97 141,-1523.97 137.5,-1533.97 144.5,-1533.97"/>
</g>
<!-- Node0x3aaad8d0 -->
<g id="node4" class="node"><title>Node0x3aaad8d0</title>
<polygon fill="none" stroke="black" points="0,-1310.5 0,-1363.5 166,-1363.5 166,-1310.5 0,-1310.5"/>
<text text-anchor="start" x="8" y="-1348.3" font-family="Times,serif" font-size="14.00">0x43654e:</text>
<text text-anchor="start" x="8" y="-1333.3" font-family="Times,serif" font-size="14.00"> g9 = v2</text>
<text text-anchor="start" x="8" y="-1318.3" font-family="Times,serif" font-size="14.00"> return &#45;2147024809</text>
</g>
<!-- Node0x3aaadcf0&#45;&gt;Node0x3aaad8d0 -->
<g id="edge3" class="edge"><title>Node0x3aaadcf0&#45;&gt;Node0x3aaad8d0</title>
<path fill="none" stroke="black" d="M98.2681,-1487.49C90.9602,-1482.63 84.3368,-1476.54 80,-1469 63.4079,-1440.15 66.7611,-1401.48 72.6809,-1373.65"/>
<polygon fill="black" stroke="black" points="76.1724,-1374.09 75.0391,-1363.56 69.3559,-1372.5 76.1724,-1374.09"/>
<text text-anchor="middle" x="127" y="-1457.8" font-family="Times,serif" font-size="14.00">a1 == NULL</text>
</g>
<!-- Node0x3aaadec0 -->
<g id="node5" class="node"><title>Node0x3aaadec0</title>
<polygon fill="none" stroke="black" points="150.5,-1382.5 150.5,-1435.5 249.5,-1435.5 249.5,-1382.5 150.5,-1382.5"/>
<text text-anchor="start" x="158.5" y="-1420.3" font-family="Times,serif" font-size="14.00">v3 = a1[&#39;0&#39;]</text>
<text text-anchor="start" x="158.5" y="-1405.3" font-family="Times,serif" font-size="14.00"> g2 = v3</text>
<text text-anchor="start" x="158.5" y="-1390.3" font-family="Times,serif" font-size="14.00"> result</text>
</g>
<!-- Node0x3aaadcf0&#45;&gt;Node0x3aaadec0 -->
<g id="edge4" class="edge"><title>Node0x3aaadcf0&#45;&gt;Node0x3aaadec0</title>
<path fill="none" stroke="black" d="M162.33,-1487.16C167.98,-1481.79 173.697,-1475.55 178,-1469 182.791,-1461.71 186.732,-1453.24 189.888,-1445.02"/>
<polygon fill="black" stroke="black" points="193.191,-1446.18 193.236,-1435.58 186.594,-1443.84 193.191,-1446.18"/>
<text text-anchor="middle" x="230" y="-1457.8" font-family="Times,serif" font-size="14.00">a1 != NULL</text>
</g>
<!-- Node0x3aaad830 -->
<g id="node6" class="node"><title>Node0x3aaad830</title>
<polygon fill="none" stroke="black" points="114,-23.5 114,-59.5 168,-59.5 168,-23.5 114,-23.5"/>
<text text-anchor="start" x="122" y="-37.8" font-family="Times,serif" font-size="14.00">exit:</text>
</g>
<!-- Node0x3aaad8d0&#45;&gt;Node0x3aaad830 -->
<g id="edge5" class="edge"><title>Node0x3aaad8d0&#45;&gt;Node0x3aaad830</title>
<path fill="none" stroke="black" d="M83,-1310.37C83,-1288.59 83,-1256.49 83,-1228.5 83,-1228.5 83,-1228.5 83,-183 83,-140.324 106.146,-95.4978 123.194,-68.2684"/>
<polygon fill="black" stroke="black" points="126.218,-70.0373 128.7,-59.7372 120.336,-66.2415 126.218,-70.0373"/>
</g>
<!-- Node0x2a94b7b0 -->
<g id="node7" class="node"><title>Node0x2a94b7b0</title>
<polygon fill="none" stroke="black" points="147.5,-1253.5 147.5,-1291.5 252.5,-1291.5 252.5,-1253.5 147.5,-1253.5"/>
<text text-anchor="start" x="155.5" y="-1276.3" font-family="Times,serif" font-size="14.00">if (v3 == 0):</text>
<text text-anchor="start" x="155.5" y="-1261.3" font-family="Times,serif" font-size="14.00"> else:</text>
</g>
<!-- Node0x3aaadec0&#45;&gt;Node0x2a94b7b0 -->
<g id="edge6" class="edge"><title>Node0x3aaadec0&#45;&gt;Node0x2a94b7b0</title>
<path fill="none" stroke="black" d="M200,-1382.38C200,-1359.38 200,-1325.67 200,-1301.86"/>
<polygon fill="black" stroke="black" points="203.5,-1301.69 200,-1291.69 196.5,-1301.69 203.5,-1301.69"/>
</g>
<!-- Node0x3aaae710 -->
<g id="node8" class="node"><title>Node0x3aaae710</title>
<polygon fill="none" stroke="black" points="97.5,-1091.5 97.5,-1129.5 190.5,-1129.5 190.5,-1091.5 97.5,-1091.5"/>
<text text-anchor="start" x="105.5" y="-1114.3" font-family="Times,serif" font-size="14.00">0x43654c:</text>
<text text-anchor="start" x="105.5" y="-1099.3" font-family="Times,serif" font-size="14.00"> result = 0</text>
</g>
<!-- Node0x2a94b7b0&#45;&gt;Node0x3aaae710 -->
<g id="edge7" class="edge"><title>Node0x2a94b7b0&#45;&gt;Node0x3aaae710</title>
<path fill="none" stroke="black" d="M166.352,-1253.4C159.857,-1248.33 153.876,-1242.19 150,-1235 134.065,-1205.44 135.366,-1165.89 138.787,-1139.59"/>
<polygon fill="black" stroke="black" points="142.273,-1139.95 140.282,-1129.54 135.349,-1138.92 142.273,-1139.95"/>
<text text-anchor="middle" x="180" y="-1223.8" font-family="Times,serif" font-size="14.00">v3 == 0</text>
</g>
<!-- Node0x2a94b6f0 -->
<g id="node9" class="node"><title>Node0x2a94b6f0</title>
<polygon fill="none" stroke="black" points="172.5,-1148.5 172.5,-1201.5 291.5,-1201.5 291.5,-1148.5 172.5,-1148.5"/>
<text text-anchor="start" x="180.5" y="-1186.3" font-family="Times,serif" font-size="14.00">0x436508:</text>
<text text-anchor="start" x="180.5" y="-1171.3" font-family="Times,serif" font-size="14.00"> if (v3 == 44):</text>
<text text-anchor="start" x="180.5" y="-1156.3" font-family="Times,serif" font-size="14.00"> else:</text>
</g>
<!-- Node0x2a94b7b0&#45;&gt;Node0x2a94b6f0 -->
<g id="edge8" class="edge"><title>Node0x2a94b7b0&#45;&gt;Node0x2a94b6f0</title>
<path fill="none" stroke="black" d="M206.17,-1253.09C210.154,-1241.2 215.466,-1225.34 220.237,-1211.11"/>
<polygon fill="black" stroke="black" points="223.571,-1212.17 223.43,-1201.58 216.934,-1209.95 223.571,-1212.17"/>
<text text-anchor="middle" x="244" y="-1223.8" font-family="Times,serif" font-size="14.00">v3 != 0</text>
</g>
<!-- Node0x3aaae040 -->
<g id="node10" class="node"><title>Node0x3aaae040</title>
<polygon fill="none" stroke="black" points="111.5,-606.5 111.5,-659.5 224.5,-659.5 224.5,-606.5 111.5,-606.5"/>
<text text-anchor="start" x="119.5" y="-644.3" font-family="Times,serif" font-size="14.00">0x43654e:</text>
<text text-anchor="start" x="119.5" y="-629.3" font-family="Times,serif" font-size="14.00"> g9 = v2</text>
<text text-anchor="start" x="119.5" y="-614.3" font-family="Times,serif" font-size="14.00"> return result</text>
</g>
<!-- Node0x3aaae710&#45;&gt;Node0x3aaae040 -->
<g id="edge9" class="edge"><title>Node0x3aaae710&#45;&gt;Node0x3aaae040</title>
<path fill="none" stroke="black" d="M140.682,-1091.21C136.542,-1066.75 130,-1022.02 130,-983.5 130,-983.5 130,-983.5 130,-775.5 130,-738.184 142.479,-697.168 153.135,-668.948"/>
<polygon fill="black" stroke="black" points="156.436,-670.115 156.804,-659.527 149.913,-667.574 156.436,-670.115"/>
</g>
<!-- Node0x8f478bc0 -->
<g id="node11" class="node"><title>Node0x8f478bc0</title>
<polygon fill="none" stroke="black" points="261,-1019.5 261,-1072.5 403,-1072.5 403,-1019.5 261,-1019.5"/>
<text text-anchor="start" x="269" y="-1057.3" font-family="Times,serif" font-size="14.00">v4 = g7</text>
<text text-anchor="start" x="269" y="-1042.3" font-family="Times,serif" font-size="14.00"> g7 = 0</text>
<text text-anchor="start" x="269" y="-1027.3" font-family="Times,serif" font-size="14.00"> lpCriticalSection</text>
</g>
<!-- Node0x2a94b6f0&#45;&gt;Node0x8f478bc0 -->
<g id="edge10" class="edge"><title>Node0x2a94b6f0&#45;&gt;Node0x8f478bc0</title>
<path fill="none" stroke="black" d="M279.377,-1148.27C286.588,-1142.91 293.46,-1136.79 299,-1130 310.174,-1116.3 317.941,-1098.33 323.119,-1082.63"/>
<polygon fill="black" stroke="black" points="326.578,-1083.28 326.157,-1072.7 319.884,-1081.23 326.578,-1083.28"/>
<text text-anchor="middle" x="354.5" y="-1106.8" font-family="Times,serif" font-size="14.00">v3 == 44</text>
</g>
<!-- Node0x3aaaf570 -->
<g id="node12" class="node"><title>Node0x3aaaf570</title>
<polygon fill="none" stroke="black" points="145,-964.5 145,-1000.5 319,-1000.5 319,-964.5 145,-964.5"/>
<text text-anchor="start" x="153" y="-978.8" font-family="Times,serif" font-size="14.00">result = &#45;2147024809</text>
</g>
<!-- Node0x2a94b6f0&#45;&gt;Node0x3aaaf570 -->
<g id="edge11" class="edge"><title>Node0x2a94b6f0&#45;&gt;Node0x3aaaf570</title>
<path fill="none" stroke="black" d="M232,-1148.31C232,-1112.51 232,-1047.87 232,-1011.08"/>
<polygon fill="black" stroke="black" points="235.5,-1010.62 232,-1000.62 228.5,-1010.62 235.5,-1010.62"/>
<text text-anchor="middle" x="263.5" y="-1106.8" font-family="Times,serif" font-size="14.00">v3 != 44</text>
</g>
<!-- Node0x3aaae040&#45;&gt;Node0x3aaad830 -->
<g id="edge12" class="edge"><title>Node0x3aaae040&#45;&gt;Node0x3aaad830</title>
<path fill="none" stroke="black" d="M160.764,-606.373C152.767,-575.742 141,-522.807 141,-476.5 141,-476.5 141,-476.5 141,-183 141,-143.808 141,-98.4673 141,-70.1339"/>
<polygon fill="black" stroke="black" points="144.5,-69.8039 141,-59.8039 137.5,-69.804 144.5,-69.8039"/>
</g>
<!-- Node0x8f478c90 -->
<g id="node13" class="node"><title>Node0x8f478c90</title>
<polygon fill="none" stroke="black" points="269,-907.5 269,-945.5 613,-945.5 613,-907.5 269,-907.5"/>
<text text-anchor="start" x="277" y="-930.3" font-family="Times,serif" font-size="14.00">if (*(IntToPtrCastExpr&lt;ptr&gt;((v1 + 36))) &lt; 1):</text>
<text text-anchor="start" x="277" y="-915.3" font-family="Times,serif" font-size="14.00"> else:</text>
</g>
<!-- Node0x8f478bc0&#45;&gt;Node0x8f478c90 -->
<g id="edge13" class="edge"><title>Node0x8f478bc0&#45;&gt;Node0x8f478c90</title>
<path fill="none" stroke="black" d="M355.921,-1019.21C374.177,-999.534 399.203,-972.556 417.384,-952.957"/>
<polygon fill="black" stroke="black" points="419.996,-955.288 424.231,-945.577 414.864,-950.528 419.996,-955.288"/>
</g>
<!-- Node0x3aaaf570&#45;&gt;Node0x3aaae040 -->
<g id="edge14" class="edge"><title>Node0x3aaaf570&#45;&gt;Node0x3aaae040</title>
<path fill="none" stroke="black" d="M224.284,-964.458C213.902,-940.699 195.734,-896.028 187,-856 172.906,-791.408 169.162,-714.114 168.231,-669.868"/>
<polygon fill="black" stroke="black" points="171.726,-669.56 168.053,-659.622 164.727,-669.681 171.726,-669.56"/>
</g>
<!-- Node0x3aaac890 -->
<g id="node14" class="node"><title>Node0x3aaac890</title>
<polygon fill="none" stroke="black" points="704.5,-742.5 704.5,-810.5 961.5,-810.5 961.5,-742.5 704.5,-742.5"/>
<text text-anchor="start" x="712.5" y="-795.3" font-family="Times,serif" font-size="14.00">v5 = IntToPtrCastExpr&lt;ptr&gt;(g4)</text>
<text text-anchor="start" x="712.5" y="-780.3" font-family="Times,serif" font-size="14.00"> v6 = (v1 + 32)</text>
<text text-anchor="start" x="712.5" y="-765.3" font-family="Times,serif" font-size="14.00"> g4 = v6</text>
<text text-anchor="start" x="712.5" y="-750.3" font-family="Times,serif" font-size="14.00"> v7 = 0</text>
</g>
<!-- Node0x8f478c90&#45;&gt;Node0x3aaac890 -->
<g id="edge15" class="edge"><title>Node0x8f478c90&#45;&gt;Node0x3aaac890</title>
<path fill="none" stroke="black" d="M613.211,-915.969C668.019,-910.54 720.513,-902.092 744,-889 772.517,-873.104 795.262,-844.018 810.62,-819.538"/>
<polygon fill="black" stroke="black" points="813.75,-821.126 815.941,-810.76 807.764,-817.498 813.75,-821.126"/>
<text text-anchor="middle" x="917.5" y="-877.8" font-family="Times,serif" font-size="14.00">*(IntToPtrCastExpr&lt;ptr&gt;((v1 + 36))) &gt;= 1</text>
</g>
<!-- Node0x3aaaf390 -->
<g id="node15" class="node"><title>Node0x3aaaf390</title>
<polygon fill="none" stroke="black" points="196,-697.5 196,-855.5 686,-855.5 686,-697.5 196,-697.5"/>
<text text-anchor="start" x="204" y="-840.3" font-family="Times,serif" font-size="14.00">0x436536:</text>
<text text-anchor="start" x="204" y="-825.3" font-family="Times,serif" font-size="14.00"> g5 = (v1 + 32)</text>
<text text-anchor="start" x="204" y="-810.3" font-family="Times,serif" font-size="14.00"> v13</text>
<text text-anchor="start" x="204" y="-795.3" font-family="Times,serif" font-size="14.00"> function_436494(v13)</text>
<text text-anchor="start" x="204" y="-780.3" font-family="Times,serif" font-size="14.00"> lpCriticalSection = (g9 + 4)</text>
<text text-anchor="start" x="204" y="-765.3" font-family="Times,serif" font-size="14.00"> g2 = lpCriticalSection</text>
<text text-anchor="start" x="204" y="-750.3" font-family="Times,serif" font-size="14.00"> DeleteCriticalSection(IntToPtrCastExpr&lt;ptr&gt;(lpCriticalSection))</text>
<text text-anchor="start" x="204" y="-735.3" font-family="Times,serif" font-size="14.00"> *(IntToPtrCastExpr&lt;ptr&gt;(g9)) = 0</text>
<text text-anchor="start" x="204" y="-720.3" font-family="Times,serif" font-size="14.00"> g7 = v4</text>
<text text-anchor="start" x="204" y="-705.3" font-family="Times,serif" font-size="14.00"> result = 0</text>
</g>
<!-- Node0x8f478c90&#45;&gt;Node0x3aaaf390 -->
<g id="edge16" class="edge"><title>Node0x8f478c90&#45;&gt;Node0x3aaaf390</title>
<path fill="none" stroke="black" d="M441,-907.352C441,-896.462 441,-881.712 441,-866.058"/>
<polygon fill="black" stroke="black" points="444.5,-865.671 441,-855.671 437.5,-865.671 444.5,-865.671"/>
<text text-anchor="middle" x="590.5" y="-877.8" font-family="Times,serif" font-size="14.00">*(IntToPtrCastExpr&lt;ptr&gt;((v1 + 36))) &lt; 1</text>
</g>
<!-- Node0x3aaaca20 -->
<g id="node16" class="node"><title>Node0x3aaaca20</title>
<polygon fill="none" stroke="black" points="784.5,-615 784.5,-651 881.5,-651 881.5,-615 784.5,-615"/>
<text text-anchor="start" x="792.5" y="-629.3" font-family="Times,serif" font-size="14.00">while True:</text>
</g>
<!-- Node0x3aaac890&#45;&gt;Node0x3aaaca20 -->
<g id="edge17" class="edge"><title>Node0x3aaac890&#45;&gt;Node0x3aaaca20</title>
<path fill="none" stroke="black" d="M833,-742.325C833,-717.643 833,-684.368 833,-661.237"/>
<polygon fill="black" stroke="black" points="836.5,-661.085 833,-651.085 829.5,-661.085 836.5,-661.085"/>
</g>
<!-- Node0x3aaaf390&#45;&gt;Node0x3aaae040 -->
<g id="edge18" class="edge"><title>Node0x3aaaf390&#45;&gt;Node0x3aaae040</title>
<path fill="none" stroke="black" d="M290.127,-697.3C267.555,-685.601 245.512,-674.176 226.506,-664.325"/>
<polygon fill="black" stroke="black" points="227.92,-661.115 217.431,-659.621 224.698,-667.33 227.92,-661.115"/>
</g>
<!-- Node0x3aaae7f0 -->
<g id="node17" class="node"><title>Node0x3aaae7f0</title>
<polygon fill="none" stroke="black" points="491,-396.5 491,-554.5 1081,-554.5 1081,-396.5 491,-396.5"/>
<text text-anchor="start" x="499" y="-539.3" font-family="Times,serif" font-size="14.00">v8 = IntToPtrCastExpr&lt;ptr&gt;(v7)</text>
<text text-anchor="start" x="499" y="-524.3" font-family="Times,serif" font-size="14.00"> v9 = v8</text>
<text text-anchor="start" x="499" y="-509.3" font-family="Times,serif" font-size="14.00"> g5 = v6</text>
<text text-anchor="start" x="499" y="-494.3" font-family="Times,serif" font-size="14.00"> v10 = *(IntToPtrCastExpr&lt;ptr&gt;(function_4364b1(v8, BitCastExpr&lt;ptr&gt;(v5))))</text>
<text text-anchor="start" x="499" y="-479.3" font-family="Times,serif" font-size="14.00"> lpClassName = v10</text>
<text text-anchor="start" x="499" y="-464.3" font-family="Times,serif" font-size="14.00"> g2 = lpClassName</text>
<text text-anchor="start" x="499" y="-449.3" font-family="Times,serif" font-size="14.00"> UnregisterClassA(IntToPtrCastExpr&lt;ptr&gt;(lpClassName), &amp;(a1[&#39;0&#39;]))</text>
<text text-anchor="start" x="499" y="-434.3" font-family="Times,serif" font-size="14.00"> v11 = (g7 + 1)</text>
<text text-anchor="start" x="499" y="-419.3" font-family="Times,serif" font-size="14.00"> g7 = v11</text>
<text text-anchor="start" x="499" y="-404.3" font-family="Times,serif" font-size="14.00"> v12 = g9</text>
</g>
<!-- Node0x3aaaca20&#45;&gt;Node0x3aaae7f0 -->
<g id="edge19" class="edge"><title>Node0x3aaaca20&#45;&gt;Node0x3aaae7f0</title>
<path fill="none" stroke="black" d="M827.791,-614.765C823.947,-602.047 818.394,-583.677 812.586,-564.46"/>
<polygon fill="black" stroke="black" points="815.871,-563.23 809.627,-554.67 809.17,-565.255 815.871,-563.23"/>
<text text-anchor="middle" x="836" y="-576.8" font-family="Times,serif" font-size="14.00">True</text>
</g>
<!-- Node0x3aaaf9a0 -->
<g id="node18" class="node"><title>Node0x3aaaf9a0</title>
<polygon fill="none" stroke="black" points="582.5,-322.5 582.5,-358.5 965.5,-358.5 965.5,-322.5 582.5,-322.5"/>
<text text-anchor="start" x="590.5" y="-336.8" font-family="Times,serif" font-size="14.00">if (v11 &gt;= *(IntToPtrCastExpr&lt;ptr&gt;((v12 + 36)))):</text>
</g>
<!-- Node0x3aaae7f0&#45;&gt;Node0x3aaaf9a0 -->
<g id="edge20" class="edge"><title>Node0x3aaae7f0&#45;&gt;Node0x3aaaf9a0</title>
<path fill="none" stroke="black" d="M778.95,-396.364C778.056,-386.457 777.194,-376.905 776.447,-368.625"/>
<polygon fill="black" stroke="black" points="779.923,-368.197 775.538,-358.552 772.951,-368.826 779.923,-368.197"/>
</g>
<!-- Node0x3aaaf3f0 -->
<g id="node19" class="node"><title>Node0x3aaaf3f0</title>
<polygon fill="none" stroke="black" points="169,-97.5 169,-270.5 659,-270.5 659,-97.5 169,-97.5"/>
<text text-anchor="start" x="177" y="-255.3" font-family="Times,serif" font-size="14.00">0x436535:</text>
<text text-anchor="start" x="177" y="-240.3" font-family="Times,serif" font-size="14.00"> g4 = ExtCastExpr&lt;int32&gt;(*(v9))</text>
<text text-anchor="start" x="177" y="-225.3" font-family="Times,serif" font-size="14.00"> g5 = (v12 + 32)</text>
<text text-anchor="start" x="177" y="-210.3" font-family="Times,serif" font-size="14.00"> function_436494(v9)</text>
<text text-anchor="start" x="177" y="-195.3" font-family="Times,serif" font-size="14.00"> lpCriticalSection = (g9 + 4)</text>
<text text-anchor="start" x="177" y="-180.3" font-family="Times,serif" font-size="14.00"> g2 = lpCriticalSection</text>
<text text-anchor="start" x="177" y="-165.3" font-family="Times,serif" font-size="14.00"> DeleteCriticalSection(IntToPtrCastExpr&lt;ptr&gt;(lpCriticalSection))</text>
<text text-anchor="start" x="177" y="-150.3" font-family="Times,serif" font-size="14.00"> *(IntToPtrCastExpr&lt;ptr&gt;(g9)) = 0</text>
<text text-anchor="start" x="177" y="-135.3" font-family="Times,serif" font-size="14.00"> g7 = v4</text>
<text text-anchor="start" x="177" y="-120.3" font-family="Times,serif" font-size="14.00"> g9 = v2</text>
<text text-anchor="start" x="177" y="-105.3" font-family="Times,serif" font-size="14.00"> return 0</text>
</g>
<!-- Node0x3aaaf9a0&#45;&gt;Node0x3aaaf3f0 -->
<g id="edge21" class="edge"><title>Node0x3aaaf9a0&#45;&gt;Node0x3aaaf3f0</title>
<path fill="none" stroke="black" d="M582.22,-329.737C509.506,-324.163 441.138,-315.863 429,-304 422.165,-297.319 417.299,-289.209 413.915,-280.397"/>
<polygon fill="black" stroke="black" points="417.164,-279.065 410.802,-270.593 410.493,-281.183 417.164,-279.065"/>
<text text-anchor="middle" x="597.5" y="-292.8" font-family="Times,serif" font-size="14.00">v11 &gt;= *(IntToPtrCastExpr&lt;ptr&gt;((v12 + 36)))</text>
</g>
<!-- Node0x3aaaff60 -->
<g id="node20" class="node"><title>Node0x3aaaff60</title>
<polygon fill="none" stroke="black" points="898,-157.5 898,-210.5 990,-210.5 990,-157.5 898,-157.5"/>
<text text-anchor="start" x="906" y="-195.3" font-family="Times,serif" font-size="14.00">0x436519:</text>
<text text-anchor="start" x="906" y="-180.3" font-family="Times,serif" font-size="14.00"> v6 = g4</text>
<text text-anchor="start" x="906" y="-165.3" font-family="Times,serif" font-size="14.00"> v7 = v11</text>
</g>
<!-- Node0x3aaaf9a0&#45;&gt;Node0x3aaaff60 -->
<g id="edge22" class="edge"><title>Node0x3aaaf9a0&#45;&gt;Node0x3aaaff60</title>
<path fill="none" stroke="black" d="M770.376,-322.034C769.171,-311.764 769.341,-298.896 775,-289 799.358,-246.405 848.925,-219.014 888.11,-203.095"/>
<polygon fill="black" stroke="black" points="889.79,-206.196 897.827,-199.292 887.239,-199.677 889.79,-206.196"/>
<text text-anchor="middle" x="937.5" y="-292.8" font-family="Times,serif" font-size="14.00">v11 &lt; *(IntToPtrCastExpr&lt;ptr&gt;((v12 + 36)))</text>
</g>
<!-- Node0x3aaaf3f0&#45;&gt;Node0x3aaad830 -->
<g id="edge23" class="edge"><title>Node0x3aaaf3f0&#45;&gt;Node0x3aaad830</title>
<path fill="none" stroke="black" d="M247.722,-97.4246C221.245,-83.798 196.339,-70.9802 177.257,-61.1597"/>
<polygon fill="black" stroke="black" points="178.598,-57.9135 168.105,-56.4495 175.395,-64.1376 178.598,-57.9135"/>
</g>
<!-- Node0x3aaaff60&#45;&gt;Node0x3aaaca20 -->
<g id="edge24" class="edge"><title>Node0x3aaaff60&#45;&gt;Node0x3aaaca20</title>
<path fill="none" stroke="black" d="M990.239,-201.584C1027.36,-217.645 1076.96,-245.952 1100,-289 1155.82,-393.307 1162.51,-461.522 1090,-555 1065.66,-586.374 959.747,-610.112 891.711,-622.469"/>
<polygon fill="black" stroke="black" points="890.779,-619.08 881.549,-624.281 892.009,-625.971 890.779,-619.08"/>
</g>
</g>
</svg>
