<?xml version="1.0" encoding="UTF-8" standalone="no"?>
<!DOCTYPE svg PUBLIC "-//W3C//DTD SVG 1.1//EN"
 "http://www.w3.org/Graphics/SVG/1.1/DTD/svg11.dtd">
<!-- Generated by graphviz version 2.38.0 (20140413.2041)
 -->
<!-- Title: Control&#45;flow graph for function &#39;function_415e17(**a1, a2, a3, a4)&#39;. Pages: 1 -->
<svg width="1652pt" height="2409pt"
 viewBox="0.00 0.00 1652.00 2409.00" xmlns="http://www.w3.org/2000/svg" xmlns:xlink="http://www.w3.org/1999/xlink">
<g id="graph0" class="graph" transform="scale(1 1) rotate(0) translate(4 2405)">
<title>Control&#45;flow graph for function &#39;function_415e17(**a1, a2, a3, a4)&#39;.</title>
<polygon fill="white" stroke="none" points="-4,4 -4,-2405 1648,-2405 1648,4 -4,4"/>
<text text-anchor="middle" x="822" y="-7.8" font-family="Times,serif" font-size="14.00">Control&#45;flow graph for function &#39;function_415e17(**a1, a2, a3, a4)&#39;.</text>
<!-- Node0x2736db30 -->
<g id="node1" class="node"><title>Node0x2736db30</title>
<polygon fill="none" stroke="black" points="329.5,-2317.5 329.5,-2400.5 388.5,-2400.5 388.5,-2317.5 329.5,-2317.5"/>
<text text-anchor="start" x="337.5" y="-2385.3" font-family="Times,serif" font-size="14.00">entry:</text>
<text text-anchor="start" x="337.5" y="-2370.3" font-family="Times,serif" font-size="14.00"> a1</text>
<text text-anchor="start" x="337.5" y="-2355.3" font-family="Times,serif" font-size="14.00"> a2</text>
<text text-anchor="start" x="337.5" y="-2340.3" font-family="Times,serif" font-size="14.00"> a3</text>
<text text-anchor="start" x="337.5" y="-2325.3" font-family="Times,serif" font-size="14.00"> a4</text>
</g>
<!-- Node0x9d5b4e40 -->
<g id="node2" class="node"><title>Node0x9d5b4e40</title>
<polygon fill="none" stroke="black" points="195,-2106.5 195,-2279.5 523,-2279.5 523,-2106.5 195,-2106.5"/>
<text text-anchor="start" x="203" y="-2264.3" font-family="Times,serif" font-size="14.00">v1 = IntToPtrCastExpr&lt;ptr&gt;(g3)</text>
<text text-anchor="start" x="203" y="-2249.3" font-family="Times,serif" font-size="14.00"> g3 = PtrToIntCastExpr&lt;int32&gt;(&amp;(v1))</text>
<text text-anchor="start" x="203" y="-2234.3" font-family="Times,serif" font-size="14.00"> v2 = g5</text>
<text text-anchor="start" x="203" y="-2219.3" font-family="Times,serif" font-size="14.00"> v3 = IntToPtrCastExpr&lt;ptr&gt;(v2)</text>
<text text-anchor="start" x="203" y="-2204.3" font-family="Times,serif" font-size="14.00"> g9 = v2</text>
<text text-anchor="start" x="203" y="-2189.3" font-family="Times,serif" font-size="14.00"> v4 = *(IntToPtrCastExpr&lt;ptr&gt;((v2 + 36)))</text>
<text text-anchor="start" x="203" y="-2174.3" font-family="Times,serif" font-size="14.00"> g2 = v4</text>
<text text-anchor="start" x="203" y="-2159.3" font-family="Times,serif" font-size="14.00"> g1 = False</text>
<text text-anchor="start" x="203" y="-2144.3" font-family="Times,serif" font-size="14.00"> g180 = (v4 == 0)</text>
<text text-anchor="start" x="203" y="-2129.3" font-family="Times,serif" font-size="14.00"> v5 = g7</text>
<text text-anchor="start" x="203" y="-2114.3" font-family="Times,serif" font-size="14.00"> v6 = v2</text>
</g>
<!-- Node0x2736db30&#45;&gt;Node0x9d5b4e40 -->
<g id="edge1" class="edge"><title>Node0x2736db30&#45;&gt;Node0x9d5b4e40</title>
<path fill="none" stroke="black" d="M359,-2317.46C359,-2308.87 359,-2299.46 359,-2289.78"/>
<polygon fill="black" stroke="black" points="362.5,-2289.63 359,-2279.63 355.5,-2289.63 362.5,-2289.63"/>
</g>
<!-- Node0x27380070 -->
<g id="node3" class="node"><title>Node0x27380070</title>
<polygon fill="none" stroke="black" points="309.5,-2032.5 309.5,-2068.5 408.5,-2068.5 408.5,-2032.5 309.5,-2032.5"/>
<text text-anchor="start" x="317.5" y="-2046.8" font-family="Times,serif" font-size="14.00">if (v4 != 0):</text>
</g>
<!-- Node0x9d5b4e40&#45;&gt;Node0x27380070 -->
<g id="edge2" class="edge"><title>Node0x9d5b4e40&#45;&gt;Node0x27380070</title>
<path fill="none" stroke="black" d="M359,-2106.22C359,-2096.48 359,-2087.16 359,-2079.06"/>
<polygon fill="black" stroke="black" points="362.5,-2078.84 359,-2068.84 355.5,-2078.84 362.5,-2078.84"/>
</g>
<!-- Node0x3ad6a4f0 -->
<g id="node4" class="node"><title>Node0x3ad6a4f0</title>
<polygon fill="none" stroke="black" points="0,-1912.5 0,-1980.5 380,-1980.5 380,-1912.5 0,-1912.5"/>
<text text-anchor="start" x="8" y="-1965.3" font-family="Times,serif" font-size="14.00">0x415e27:</text>
<text text-anchor="start" x="8" y="-1950.3" font-family="Times,serif" font-size="14.00"> g5 = (*(IntToPtrCastExpr&lt;ptr&gt;((v2 + 32))) + 36)</text>
<text text-anchor="start" x="8" y="-1935.3" font-family="Times,serif" font-size="14.00"> function_41bb6b(IntToPtrCastExpr&lt;ptr&gt;(v4), v5)</text>
<text text-anchor="start" x="8" y="-1920.3" font-family="Times,serif" font-size="14.00"> v6 = g9</text>
</g>
<!-- Node0x27380070&#45;&gt;Node0x3ad6a4f0 -->
<g id="edge3" class="edge"><title>Node0x27380070&#45;&gt;Node0x3ad6a4f0</title>
<path fill="none" stroke="black" d="M330.713,-2032.43C309.692,-2019.74 280.177,-2001.93 253.603,-1985.89"/>
<polygon fill="black" stroke="black" points="255.091,-1982.7 244.721,-1980.53 251.474,-1988.69 255.091,-1982.7"/>
<text text-anchor="middle" x="327" y="-2002.8" font-family="Times,serif" font-size="14.00">v4 != 0</text>
</g>
<!-- Node0x2737e240 -->
<g id="node5" class="node"><title>Node0x2737e240</title>
<polygon fill="none" stroke="black" points="102,-1611.5 102,-1874.5 604,-1874.5 604,-1611.5 102,-1611.5"/>
<text text-anchor="start" x="110" y="-1859.3" font-family="Times,serif" font-size="14.00">v7 = *(IntToPtrCastExpr&lt;ptr&gt;(v6))</text>
<text text-anchor="start" x="110" y="-1844.3" font-family="Times,serif" font-size="14.00"> g2 = v7</text>
<text text-anchor="start" x="110" y="-1829.3" font-family="Times,serif" font-size="14.00"> v8 = NULL</text>
<text text-anchor="start" x="110" y="-1814.3" font-family="Times,serif" font-size="14.00"> g10 = PtrToIntCastExpr&lt;int32&gt;(&amp;(v8))</text>
<text text-anchor="start" x="110" y="-1799.3" font-family="Times,serif" font-size="14.00"> g5 = v6</text>
<text text-anchor="start" x="110" y="-1784.3" font-family="Times,serif" font-size="14.00"> IntToPtrCastExpr&lt;ptr&gt;(*(IntToPtrCastExpr&lt;ptr&gt;((v7 + 160))))(0)</text>
<text text-anchor="start" x="110" y="-1769.3" font-family="Times,serif" font-size="14.00"> v9 = g9</text>
<text text-anchor="start" x="110" y="-1754.3" font-family="Times,serif" font-size="14.00"> v10 = *(IntToPtrCastExpr&lt;ptr&gt;((v9 + 32)))</text>
<text text-anchor="start" x="110" y="-1739.3" font-family="Times,serif" font-size="14.00"> g2 = v10</text>
<text text-anchor="start" x="110" y="-1724.3" font-family="Times,serif" font-size="14.00"> v11 = *(IntToPtrCastExpr&lt;ptr&gt;((v10 + 68)))</text>
<text text-anchor="start" x="110" y="-1709.3" font-family="Times,serif" font-size="14.00"> g4 = v11</text>
<text text-anchor="start" x="110" y="-1694.3" font-family="Times,serif" font-size="14.00"> v3 = IntToPtrCastExpr&lt;ptr&gt;(v11)</text>
<text text-anchor="start" x="110" y="-1679.3" font-family="Times,serif" font-size="14.00"> g1 = False</text>
<text text-anchor="start" x="110" y="-1664.3" font-family="Times,serif" font-size="14.00"> g180 = (v11 == 0)</text>
<text text-anchor="start" x="110" y="-1649.3" font-family="Times,serif" font-size="14.00"> v12</text>
<text text-anchor="start" x="110" y="-1634.3" font-family="Times,serif" font-size="14.00"> v13</text>
<text text-anchor="start" x="110" y="-1619.3" font-family="Times,serif" font-size="14.00"> v14</text>
</g>
<!-- Node0x27380070&#45;&gt;Node0x2737e240 -->
<g id="edge4" class="edge"><title>Node0x27380070&#45;&gt;Node0x2737e240</title>
<path fill="none" stroke="black" d="M368.853,-2032.43C376.03,-2018.95 385.142,-1999.43 389,-1981 395.484,-1950.03 394.942,-1916.56 390.976,-1884.79"/>
<polygon fill="black" stroke="black" points="394.397,-1883.98 389.572,-1874.55 387.462,-1884.93 394.397,-1883.98"/>
<text text-anchor="middle" x="424" y="-1942.8" font-family="Times,serif" font-size="14.00">v4 == 0</text>
</g>
<!-- Node0x3ad6a4f0&#45;&gt;Node0x2737e240 -->
<g id="edge5" class="edge"><title>Node0x3ad6a4f0&#45;&gt;Node0x2737e240</title>
<path fill="none" stroke="black" d="M216.916,-1912.23C224.047,-1903.41 232.209,-1893.32 240.916,-1882.56"/>
<polygon fill="black" stroke="black" points="243.778,-1884.59 247.346,-1874.61 238.336,-1880.18 243.778,-1884.59"/>
</g>
<!-- Node0x2737e420 -->
<g id="node6" class="node"><title>Node0x2737e420</title>
<polygon fill="none" stroke="black" points="296,-1537.5 296,-1573.5 410,-1573.5 410,-1537.5 296,-1537.5"/>
<text text-anchor="start" x="304" y="-1551.8" font-family="Times,serif" font-size="14.00">if (v11 == 0):</text>
</g>
<!-- Node0x2737e240&#45;&gt;Node0x2737e420 -->
<g id="edge6" class="edge"><title>Node0x2737e240&#45;&gt;Node0x2737e420</title>
<path fill="none" stroke="black" d="M353,-1611.4C353,-1601.31 353,-1591.93 353,-1583.89"/>
<polygon fill="black" stroke="black" points="356.5,-1583.81 353,-1573.81 349.5,-1583.81 356.5,-1583.81"/>
</g>
<!-- Node0x2737e2a0 -->
<g id="node7" class="node"><title>Node0x2737e2a0</title>
<polygon fill="none" stroke="black" points="24,-1180.5 24,-1428.5 500,-1428.5 500,-1180.5 24,-1180.5"/>
<text text-anchor="start" x="32" y="-1413.3" font-family="Times,serif" font-size="14.00">0x415e67:</text>
<text text-anchor="start" x="32" y="-1398.3" font-family="Times,serif" font-size="14.00"> g2 = *(IntToPtrCastExpr&lt;ptr&gt;(v9))</text>
<text text-anchor="start" x="32" y="-1383.3" font-family="Times,serif" font-size="14.00"> v14 = g10</text>
<text text-anchor="start" x="32" y="-1368.3" font-family="Times,serif" font-size="14.00"> v12 = (v14 &#45; 4)</text>
<text text-anchor="start" x="32" y="-1353.3" font-family="Times,serif" font-size="14.00"> *(IntToPtrCastExpr&lt;ptr&gt;(v12)) = 1</text>
<text text-anchor="start" x="32" y="-1338.3" font-family="Times,serif" font-size="14.00"> g10 = v12</text>
<text text-anchor="start" x="32" y="-1323.3" font-family="Times,serif" font-size="14.00"> g5 = g9</text>
<text text-anchor="start" x="32" y="-1308.3" font-family="Times,serif" font-size="14.00"> *(IntToPtrCastExpr&lt;ptr&gt;((v14 &#45; 8))) = 4284016</text>
<text text-anchor="start" x="32" y="-1293.3" font-family="Times,serif" font-size="14.00"> IntToPtrCastExpr&lt;ptr&gt;(*(IntToPtrCastExpr&lt;ptr&gt;((g2 + 4))))()</text>
<text text-anchor="start" x="32" y="-1278.3" font-family="Times,serif" font-size="14.00"> v13 = g10</text>
<text text-anchor="start" x="32" y="-1263.3" font-family="Times,serif" font-size="14.00"> g7 = *(IntToPtrCastExpr&lt;ptr&gt;(v13))</text>
<text text-anchor="start" x="32" y="-1248.3" font-family="Times,serif" font-size="14.00"> g2 = 0</text>
<text text-anchor="start" x="32" y="-1233.3" font-family="Times,serif" font-size="14.00"> g9 = *(IntToPtrCastExpr&lt;ptr&gt;((v13 + 4)))</text>
<text text-anchor="start" x="32" y="-1218.3" font-family="Times,serif" font-size="14.00"> g4 = *(IntToPtrCastExpr&lt;ptr&gt;((v13 + 8)))</text>
<text text-anchor="start" x="32" y="-1203.3" font-family="Times,serif" font-size="14.00"> g3 = PtrToIntCastExpr&lt;int32&gt;(v1)</text>
<text text-anchor="start" x="32" y="-1188.3" font-family="Times,serif" font-size="14.00"> return 1</text>
</g>
<!-- Node0x2737e420&#45;&gt;Node0x2737e2a0 -->
<g id="edge7" class="edge"><title>Node0x2737e420&#45;&gt;Node0x2737e2a0</title>
<path fill="none" stroke="black" d="M346.745,-1537.39C338.957,-1516.07 324.909,-1477.63 310.46,-1438.1"/>
<polygon fill="black" stroke="black" points="313.701,-1436.77 306.981,-1428.58 307.126,-1439.17 313.701,-1436.77"/>
<text text-anchor="middle" x="374.5" y="-1507.8" font-family="Times,serif" font-size="14.00">v11 == 0</text>
</g>
<!-- Node0x2737e610 -->
<g id="node8" class="node"><title>Node0x2737e610</title>
<polygon fill="none" stroke="black" points="425,-1447.5 425,-1485.5 729,-1485.5 729,-1447.5 425,-1447.5"/>
<text text-anchor="start" x="433" y="-1470.3" font-family="Times,serif" font-size="14.00">v15 = PtrToIntCastExpr&lt;int32&gt;(&amp;(v3))</text>
<text text-anchor="start" x="433" y="-1455.3" font-family="Times,serif" font-size="14.00"> v16</text>
</g>
<!-- Node0x2737e420&#45;&gt;Node0x2737e610 -->
<g id="edge8" class="edge"><title>Node0x2737e420&#45;&gt;Node0x2737e610</title>
<path fill="none" stroke="black" d="M396.988,-1537.42C432.46,-1523.64 482.581,-1504.17 520.931,-1489.28"/>
<polygon fill="black" stroke="black" points="522.357,-1492.48 530.412,-1485.59 519.823,-1485.95 522.357,-1492.48"/>
<text text-anchor="middle" x="510.5" y="-1507.8" font-family="Times,serif" font-size="14.00">v11 != 0</text>
</g>
<!-- Node0x8815c9b0 -->
<g id="node9" class="node"><title>Node0x8815c9b0</title>
<polygon fill="none" stroke="black" points="659,-23.5 659,-59.5 713,-59.5 713,-23.5 659,-23.5"/>
<text text-anchor="start" x="667" y="-37.8" font-family="Times,serif" font-size="14.00">exit:</text>
</g>
<!-- Node0x2737e2a0&#45;&gt;Node0x8815c9b0 -->
<g id="edge9" class="edge"><title>Node0x2737e2a0&#45;&gt;Node0x8815c9b0</title>
<path fill="none" stroke="black" d="M244.346,-1180.28C241.789,-1154 240,-1126.38 240,-1100.5 240,-1100.5 240,-1100.5 240,-258 240,-185.948 208.294,-148.189 259,-97 286.275,-69.4651 549.722,-50.7687 648.683,-44.6667"/>
<polygon fill="black" stroke="black" points="649.057,-48.1505 658.826,-44.05 648.632,-41.1634 649.057,-48.1505"/>
</g>
<!-- Node0x2737e6e0 -->
<g id="node10" class="node"><title>Node0x2737e6e0</title>
<polygon fill="none" stroke="black" points="740.5,-1125.5 740.5,-1161.5 837.5,-1161.5 837.5,-1125.5 740.5,-1125.5"/>
<text text-anchor="start" x="748.5" y="-1139.8" font-family="Times,serif" font-size="14.00">while True:</text>
</g>
<!-- Node0x2737e610&#45;&gt;Node0x2737e6e0 -->
<g id="edge10" class="edge"><title>Node0x2737e610&#45;&gt;Node0x2737e6e0</title>
<path fill="none" stroke="black" d="M589.005,-1447.32C624.738,-1393.22 730.49,-1233.09 772.002,-1170.24"/>
<polygon fill="black" stroke="black" points="775.054,-1171.97 777.644,-1161.69 769.213,-1168.11 775.054,-1171.97"/>
</g>
<!-- Node0x88160e30 -->
<g id="node11" class="node"><title>Node0x88160e30</title>
<polygon fill="none" stroke="black" points="606,-885.5 606,-1073.5 972,-1073.5 972,-885.5 606,-885.5"/>
<text text-anchor="start" x="614" y="-1058.3" font-family="Times,serif" font-size="14.00">0x415e4a:</text>
<text text-anchor="start" x="614" y="-1043.3" font-family="Times,serif" font-size="14.00"> g2 = v15</text>
<text text-anchor="start" x="614" y="-1028.3" font-family="Times,serif" font-size="14.00"> v17 = g10</text>
<text text-anchor="start" x="614" y="-1013.3" font-family="Times,serif" font-size="14.00"> v18 = (v17 &#45; 4)</text>
<text text-anchor="start" x="614" y="-998.3" font-family="Times,serif" font-size="14.00"> *(IntToPtrCastExpr&lt;ptr&gt;(v18)) = v15</text>
<text text-anchor="start" x="614" y="-983.3" font-family="Times,serif" font-size="14.00"> g10 = v18</text>
<text text-anchor="start" x="614" y="-968.3" font-family="Times,serif" font-size="14.00"> *(IntToPtrCastExpr&lt;ptr&gt;((v17 &#45; 8))) = 4283993</text>
<text text-anchor="start" x="614" y="-953.3" font-family="Times,serif" font-size="14.00"> function_407144(a1)</text>
<text text-anchor="start" x="614" y="-938.3" font-family="Times,serif" font-size="14.00"> v19 = PtrToIntCastExpr&lt;int32&gt;(v3)</text>
<text text-anchor="start" x="614" y="-923.3" font-family="Times,serif" font-size="14.00"> g7 = v19</text>
<text text-anchor="start" x="614" y="-908.3" font-family="Times,serif" font-size="14.00"> v20 = *(IntToPtrCastExpr&lt;ptr&gt;((v19 + 4)))</text>
<text text-anchor="start" x="614" y="-893.3" font-family="Times,serif" font-size="14.00"> v16 = g9</text>
</g>
<!-- Node0x2737e6e0&#45;&gt;Node0x88160e30 -->
<g id="edge11" class="edge"><title>Node0x2737e6e0&#45;&gt;Node0x88160e30</title>
<path fill="none" stroke="black" d="M789,-1125.47C789,-1114.77 789,-1099.99 789,-1083.93"/>
<polygon fill="black" stroke="black" points="792.5,-1083.79 789,-1073.79 785.5,-1083.79 792.5,-1083.79"/>
<text text-anchor="middle" x="806" y="-1095.8" font-family="Times,serif" font-size="14.00">True</text>
</g>
<!-- Node0x88160e90 -->
<g id="node12" class="node"><title>Node0x88160e90</title>
<polygon fill="none" stroke="black" points="723.5,-809.5 723.5,-847.5 854.5,-847.5 854.5,-809.5 723.5,-809.5"/>
<text text-anchor="start" x="731.5" y="-832.3" font-family="Times,serif" font-size="14.00">if (v20 == v16):</text>
<text text-anchor="start" x="731.5" y="-817.3" font-family="Times,serif" font-size="14.00"> else:</text>
</g>
<!-- Node0x88160e30&#45;&gt;Node0x88160e90 -->
<g id="edge12" class="edge"><title>Node0x88160e30&#45;&gt;Node0x88160e90</title>
<path fill="none" stroke="black" d="M789,-885.406C789,-875.426 789,-865.921 789,-857.673"/>
<polygon fill="black" stroke="black" points="792.5,-857.619 789,-847.619 785.5,-857.619 792.5,-857.619"/>
</g>
<!-- Node0x27371390 -->
<g id="node13" class="node"><title>Node0x27371390</title>
<polygon fill="none" stroke="black" points="599.5,-617.5 599.5,-670.5 756.5,-670.5 756.5,-617.5 599.5,-617.5"/>
<text text-anchor="start" x="607.5" y="-655.3" font-family="Times,serif" font-size="14.00">v21 = g4</text>
<text text-anchor="start" x="607.5" y="-640.3" font-family="Times,serif" font-size="14.00"> g1 = False</text>
<text text-anchor="start" x="607.5" y="-625.3" font-family="Times,serif" font-size="14.00"> g180 = (v21 == 0)</text>
</g>
<!-- Node0x88160e90&#45;&gt;Node0x27371390 -->
<g id="edge13" class="edge"><title>Node0x88160e90&#45;&gt;Node0x27371390</title>
<path fill="none" stroke="black" d="M724.371,-809.398C715.837,-804.613 707.988,-798.585 702,-791 677.405,-759.843 673.758,-713.102 674.73,-680.944"/>
<polygon fill="black" stroke="black" points="678.241,-680.794 675.214,-670.641 671.249,-680.466 678.241,-680.794"/>
<text text-anchor="middle" x="745" y="-779.8" font-family="Times,serif" font-size="14.00">v20 == v16</text>
</g>
<!-- Node0x27371cc0 -->
<g id="node14" class="node"><title>Node0x27371cc0</title>
<polygon fill="none" stroke="black" points="706,-689.5 706,-757.5 888,-757.5 888,-689.5 706,-689.5"/>
<text text-anchor="start" x="714" y="-742.3" font-family="Times,serif" font-size="14.00">0x415e60:</text>
<text text-anchor="start" x="714" y="-727.3" font-family="Times,serif" font-size="14.00"> g4 = v19</text>
<text text-anchor="start" x="714" y="-712.3" font-family="Times,serif" font-size="14.00"> g1 = False</text>
<text text-anchor="start" x="714" y="-697.3" font-family="Times,serif" font-size="14.00"> g180 = (v3 == NULL)</text>
</g>
<!-- Node0x88160e90&#45;&gt;Node0x27371cc0 -->
<g id="edge14" class="edge"><title>Node0x88160e90&#45;&gt;Node0x27371cc0</title>
<path fill="none" stroke="black" d="M790.43,-809.086C791.32,-797.631 792.504,-782.39 793.621,-768.003"/>
<polygon fill="black" stroke="black" points="797.133,-767.984 794.418,-757.743 790.154,-767.442 797.133,-767.984"/>
<text text-anchor="middle" x="833" y="-779.8" font-family="Times,serif" font-size="14.00">v20 != v16</text>
</g>
<!-- Node0x8815ce30 -->
<g id="node15" class="node"><title>Node0x8815ce30</title>
<polygon fill="none" stroke="black" points="624,-473.5 624,-509.5 732,-509.5 732,-473.5 624,-473.5"/>
<text text-anchor="start" x="632" y="-487.8" font-family="Times,serif" font-size="14.00">if (v21 != 0):</text>
</g>
<!-- Node0x27371390&#45;&gt;Node0x8815ce30 -->
<g id="edge15" class="edge"><title>Node0x27371390&#45;&gt;Node0x8815ce30</title>
<path fill="none" stroke="black" d="M678,-617.47C678,-590.373 678,-547.706 678,-519.913"/>
<polygon fill="black" stroke="black" points="681.5,-519.702 678,-509.702 674.5,-519.702 681.5,-519.702"/>
</g>
<!-- Node0x273728a0 -->
<g id="node16" class="node"><title>Node0x273728a0</title>
<polygon fill="none" stroke="black" points="727,-562.5 727,-598.5 867,-598.5 867,-562.5 727,-562.5"/>
<text text-anchor="start" x="735" y="-576.8" font-family="Times,serif" font-size="14.00">if (v3 == NULL):</text>
</g>
<!-- Node0x27371cc0&#45;&gt;Node0x273728a0 -->
<g id="edge16" class="edge"><title>Node0x27371cc0&#45;&gt;Node0x273728a0</title>
<path fill="none" stroke="black" d="M797,-689.442C797,-664.848 797,-631.69 797,-608.64"/>
<polygon fill="black" stroke="black" points="800.5,-608.524 797,-598.524 793.5,-608.524 800.5,-608.524"/>
</g>
<!-- Node0x8815ac80 -->
<g id="node17" class="node"><title>Node0x8815ac80</title>
<polygon fill="none" stroke="black" points="268.5,-97.5 268.5,-420.5 655.5,-420.5 655.5,-97.5 268.5,-97.5"/>
<text text-anchor="start" x="276.5" y="-405.3" font-family="Times,serif" font-size="14.00">v22 = g10</text>
<text text-anchor="start" x="276.5" y="-390.3" font-family="Times,serif" font-size="14.00"> v23 = (v22 &#45; 4)</text>
<text text-anchor="start" x="276.5" y="-375.3" font-family="Times,serif" font-size="14.00"> *(IntToPtrCastExpr&lt;ptr&gt;(v23)) = v21</text>
<text text-anchor="start" x="276.5" y="-360.3" font-family="Times,serif" font-size="14.00"> g10 = v23</text>
<text text-anchor="start" x="276.5" y="-345.3" font-family="Times,serif" font-size="14.00"> g5 = (*(IntToPtrCastExpr&lt;ptr&gt;((v20 + 32))) + 64)</text>
<text text-anchor="start" x="276.5" y="-330.3" font-family="Times,serif" font-size="14.00"> *(IntToPtrCastExpr&lt;ptr&gt;((v22 &#45; 8))) = 4284040</text>
<text text-anchor="start" x="276.5" y="-315.3" font-family="Times,serif" font-size="14.00"> function_41c809(BitCastExpr&lt;ptr&gt;(a1), a2, a3)</text>
<text text-anchor="start" x="276.5" y="-300.3" font-family="Times,serif" font-size="14.00"> g5 = g7</text>
<text text-anchor="start" x="276.5" y="-285.3" font-family="Times,serif" font-size="14.00"> *(IntToPtrCastExpr&lt;ptr&gt;((g10 &#45; 4))) = 4284047</text>
<text text-anchor="start" x="276.5" y="-270.3" font-family="Times,serif" font-size="14.00"> function_412feb(BitCastExpr&lt;ptr&gt;(a1))</text>
<text text-anchor="start" x="276.5" y="-255.3" font-family="Times,serif" font-size="14.00"> v24 = (g10 &#45; 4)</text>
<text text-anchor="start" x="276.5" y="-240.3" font-family="Times,serif" font-size="14.00"> *(IntToPtrCastExpr&lt;ptr&gt;(v24)) = g7</text>
<text text-anchor="start" x="276.5" y="-225.3" font-family="Times,serif" font-size="14.00"> *(IntToPtrCastExpr&lt;ptr&gt;((g10 &#45; 8))) = 4284053</text>
<text text-anchor="start" x="276.5" y="-210.3" font-family="Times,serif" font-size="14.00"> function_4048de()</text>
<text text-anchor="start" x="276.5" y="-195.3" font-family="Times,serif" font-size="14.00"> v13 = (v24 + 4)</text>
<text text-anchor="start" x="276.5" y="-180.3" font-family="Times,serif" font-size="14.00"> g7 = *(IntToPtrCastExpr&lt;ptr&gt;(v13))</text>
<text text-anchor="start" x="276.5" y="-165.3" font-family="Times,serif" font-size="14.00"> g2 = 0</text>
<text text-anchor="start" x="276.5" y="-150.3" font-family="Times,serif" font-size="14.00"> g9 = *(IntToPtrCastExpr&lt;ptr&gt;((v13 + 4)))</text>
<text text-anchor="start" x="276.5" y="-135.3" font-family="Times,serif" font-size="14.00"> g4 = *(IntToPtrCastExpr&lt;ptr&gt;((v13 + 8)))</text>
<text text-anchor="start" x="276.5" y="-120.3" font-family="Times,serif" font-size="14.00"> g3 = PtrToIntCastExpr&lt;int32&gt;(v1)</text>
<text text-anchor="start" x="276.5" y="-105.3" font-family="Times,serif" font-size="14.00"> return 1</text>
</g>
<!-- Node0x8815ce30&#45;&gt;Node0x8815ac80 -->
<g id="edge17" class="edge"><title>Node0x8815ce30&#45;&gt;Node0x8815ac80</title>
<path fill="none" stroke="black" d="M661.765,-473.175C651.241,-461.945 636.36,-446.064 619.408,-427.974"/>
<polygon fill="black" stroke="black" points="621.945,-425.563 612.553,-420.659 616.837,-430.35 621.945,-425.563"/>
<text text-anchor="middle" x="672.5" y="-442.8" font-family="Times,serif" font-size="14.00">v21 != 0</text>
</g>
<!-- Node0x2737e370 -->
<g id="node18" class="node"><title>Node0x2737e370</title>
<polygon fill="none" stroke="black" points="674,-135 674,-383 1150,-383 1150,-135 674,-135"/>
<text text-anchor="start" x="682" y="-367.8" font-family="Times,serif" font-size="14.00">0x415e67:</text>
<text text-anchor="start" x="682" y="-352.8" font-family="Times,serif" font-size="14.00"> g2 = *(IntToPtrCastExpr&lt;ptr&gt;(v20))</text>
<text text-anchor="start" x="682" y="-337.8" font-family="Times,serif" font-size="14.00"> v14 = g10</text>
<text text-anchor="start" x="682" y="-322.8" font-family="Times,serif" font-size="14.00"> v12 = (v14 &#45; 4)</text>
<text text-anchor="start" x="682" y="-307.8" font-family="Times,serif" font-size="14.00"> *(IntToPtrCastExpr&lt;ptr&gt;(v12)) = 1</text>
<text text-anchor="start" x="682" y="-292.8" font-family="Times,serif" font-size="14.00"> g10 = v12</text>
<text text-anchor="start" x="682" y="-277.8" font-family="Times,serif" font-size="14.00"> g5 = g9</text>
<text text-anchor="start" x="682" y="-262.8" font-family="Times,serif" font-size="14.00"> *(IntToPtrCastExpr&lt;ptr&gt;((v14 &#45; 8))) = 4284016</text>
<text text-anchor="start" x="682" y="-247.8" font-family="Times,serif" font-size="14.00"> IntToPtrCastExpr&lt;ptr&gt;(*(IntToPtrCastExpr&lt;ptr&gt;((g2 + 4))))()</text>
<text text-anchor="start" x="682" y="-232.8" font-family="Times,serif" font-size="14.00"> v13 = g10</text>
<text text-anchor="start" x="682" y="-217.8" font-family="Times,serif" font-size="14.00"> g7 = *(IntToPtrCastExpr&lt;ptr&gt;(v13))</text>
<text text-anchor="start" x="682" y="-202.8" font-family="Times,serif" font-size="14.00"> g2 = 0</text>
<text text-anchor="start" x="682" y="-187.8" font-family="Times,serif" font-size="14.00"> g9 = *(IntToPtrCastExpr&lt;ptr&gt;((v13 + 4)))</text>
<text text-anchor="start" x="682" y="-172.8" font-family="Times,serif" font-size="14.00"> g4 = *(IntToPtrCastExpr&lt;ptr&gt;((v13 + 8)))</text>
<text text-anchor="start" x="682" y="-157.8" font-family="Times,serif" font-size="14.00"> g3 = PtrToIntCastExpr&lt;int32&gt;(v1)</text>
<text text-anchor="start" x="682" y="-142.8" font-family="Times,serif" font-size="14.00"> return 1</text>
</g>
<!-- Node0x8815ce30&#45;&gt;Node0x2737e370 -->
<g id="edge18" class="edge"><title>Node0x8815ce30&#45;&gt;Node0x2737e370</title>
<path fill="none" stroke="black" d="M695.588,-473.175C714.491,-454.555 746.374,-423.148 779.939,-390.086"/>
<polygon fill="black" stroke="black" points="782.455,-392.52 787.123,-383.009 777.543,-387.533 782.455,-392.52"/>
<text text-anchor="middle" x="762.5" y="-442.8" font-family="Times,serif" font-size="14.00">v21 == 0</text>
</g>
<!-- Node0x88160870 -->
<g id="node19" class="node"><title>Node0x88160870</title>
<polygon fill="none" stroke="black" points="750,-472.5 750,-510.5 908,-510.5 908,-472.5 750,-472.5"/>
<text text-anchor="start" x="758" y="-495.3" font-family="Times,serif" font-size="14.00">break &#45;&gt; 0x415e67:</text>
<text text-anchor="start" x="758" y="-480.3" font-family="Times,serif" font-size="14.00"> break</text>
</g>
<!-- Node0x273728a0&#45;&gt;Node0x88160870 -->
<g id="edge19" class="edge"><title>Node0x273728a0&#45;&gt;Node0x88160870</title>
<path fill="none" stroke="black" d="M794.036,-562.127C793.048,-552.128 793.048,-539.503 797,-529 798.324,-525.48 800.159,-522.079 802.287,-518.861"/>
<polygon fill="black" stroke="black" points="805.146,-520.883 808.451,-510.817 799.59,-516.625 805.146,-520.883"/>
<text text-anchor="middle" x="844" y="-532.8" font-family="Times,serif" font-size="14.00">v3 == NULL</text>
</g>
<!-- Node0x8815cf20 -->
<g id="node20" class="node"><title>Node0x8815cf20</title>
<polygon fill="none" stroke="black" points="926.5,-472.5 926.5,-510.5 1105.5,-510.5 1105.5,-472.5 926.5,-472.5"/>
<text text-anchor="start" x="934.5" y="-495.3" font-family="Times,serif" font-size="14.00">continue &#45;&gt; 0x415e4a:</text>
<text text-anchor="start" x="934.5" y="-480.3" font-family="Times,serif" font-size="14.00"> continue</text>
</g>
<!-- Node0x273728a0&#45;&gt;Node0x8815cf20 -->
<g id="edge20" class="edge"><title>Node0x273728a0&#45;&gt;Node0x8815cf20</title>
<path fill="none" stroke="black" d="M848.114,-562.491C862.274,-557.166 877.466,-550.867 891,-544 901.883,-538.478 903.069,-534.426 914,-529 924.858,-523.61 936.714,-518.62 948.378,-514.171"/>
<polygon fill="black" stroke="black" points="949.945,-517.323 958.104,-510.564 947.51,-510.76 949.945,-517.323"/>
<text text-anchor="middle" x="958" y="-532.8" font-family="Times,serif" font-size="14.00">v3 != NULL</text>
</g>
<!-- Node0x8815ac80&#45;&gt;Node0x8815c9b0 -->
<g id="edge21" class="edge"><title>Node0x8815ac80&#45;&gt;Node0x8815c9b0</title>
<path fill="none" stroke="black" d="M628.896,-97.4373C640.948,-85.8421 651.874,-75.3309 660.866,-66.6799"/>
<polygon fill="black" stroke="black" points="663.471,-69.0313 668.251,-59.576 658.617,-63.9867 663.471,-69.0313"/>
</g>
<!-- Node0x2737e370&#45;&gt;Node0x8815c9b0 -->
<g id="edge22" class="edge"><title>Node0x2737e370&#45;&gt;Node0x8815c9b0</title>
<path fill="none" stroke="black" d="M782.828,-134.829C755.488,-108.76 729.439,-83.9205 711.259,-66.5854"/>
<polygon fill="black" stroke="black" points="713.621,-64.0018 703.969,-59.6338 708.79,-69.0678 713.621,-64.0018"/>
</g>
<!-- Node0x27373250 -->
<g id="node21" class="node"><title>Node0x27373250</title>
<polygon fill="none" stroke="black" points="1168,-135 1168,-383 1644,-383 1644,-135 1168,-135"/>
<text text-anchor="start" x="1176" y="-367.8" font-family="Times,serif" font-size="14.00">0x415e67:</text>
<text text-anchor="start" x="1176" y="-352.8" font-family="Times,serif" font-size="14.00"> g2 = *(IntToPtrCastExpr&lt;ptr&gt;(v16))</text>
<text text-anchor="start" x="1176" y="-337.8" font-family="Times,serif" font-size="14.00"> v14 = g10</text>
<text text-anchor="start" x="1176" y="-322.8" font-family="Times,serif" font-size="14.00"> v12 = (v14 &#45; 4)</text>
<text text-anchor="start" x="1176" y="-307.8" font-family="Times,serif" font-size="14.00"> *(IntToPtrCastExpr&lt;ptr&gt;(v12)) = 1</text>
<text text-anchor="start" x="1176" y="-292.8" font-family="Times,serif" font-size="14.00"> g10 = v12</text>
<text text-anchor="start" x="1176" y="-277.8" font-family="Times,serif" font-size="14.00"> g5 = g9</text>
<text text-anchor="start" x="1176" y="-262.8" font-family="Times,serif" font-size="14.00"> *(IntToPtrCastExpr&lt;ptr&gt;((v14 &#45; 8))) = 4284016</text>
<text text-anchor="start" x="1176" y="-247.8" font-family="Times,serif" font-size="14.00"> IntToPtrCastExpr&lt;ptr&gt;(*(IntToPtrCastExpr&lt;ptr&gt;((g2 + 4))))()</text>
<text text-anchor="start" x="1176" y="-232.8" font-family="Times,serif" font-size="14.00"> v13 = g10</text>
<text text-anchor="start" x="1176" y="-217.8" font-family="Times,serif" font-size="14.00"> g7 = *(IntToPtrCastExpr&lt;ptr&gt;(v13))</text>
<text text-anchor="start" x="1176" y="-202.8" font-family="Times,serif" font-size="14.00"> g2 = 0</text>
<text text-anchor="start" x="1176" y="-187.8" font-family="Times,serif" font-size="14.00"> g9 = *(IntToPtrCastExpr&lt;ptr&gt;((v13 + 4)))</text>
<text text-anchor="start" x="1176" y="-172.8" font-family="Times,serif" font-size="14.00"> g4 = *(IntToPtrCastExpr&lt;ptr&gt;((v13 + 8)))</text>
<text text-anchor="start" x="1176" y="-157.8" font-family="Times,serif" font-size="14.00"> g3 = PtrToIntCastExpr&lt;int32&gt;(v1)</text>
<text text-anchor="start" x="1176" y="-142.8" font-family="Times,serif" font-size="14.00"> return 1</text>
</g>
<!-- Node0x88160870&#45;&gt;Node0x27373250 -->
<g id="edge23" class="edge"><title>Node0x88160870&#45;&gt;Node0x27373250</title>
<path fill="none" stroke="black" d="M908.396,-473.964C1005.1,-453.797 1156.06,-422.216 1159,-421 1181.24,-411.791 1203.64,-400.533 1225.39,-388.29"/>
<polygon fill="black" stroke="black" points="1227.4,-391.175 1234.35,-383.176 1223.93,-385.097 1227.4,-391.175"/>
</g>
<!-- Node0x8815cf20&#45;&gt;Node0x2737e6e0 -->
<g id="edge24" class="edge"><title>Node0x8815cf20&#45;&gt;Node0x2737e6e0</title>
<path fill="none" stroke="black" d="M1016,-510.831C1016,-528.437 1016,-555.786 1016,-579.5 1016,-980.5 1016,-980.5 1016,-980.5 1016,-1024.87 1012.62,-1042.87 981,-1074 945.046,-1109.4 889.589,-1126.62 847.503,-1134.92"/>
<polygon fill="black" stroke="black" points="846.848,-1131.48 837.656,-1136.75 848.127,-1138.37 846.848,-1131.48"/>
</g>
<!-- Node0x27373250&#45;&gt;Node0x8815c9b0 -->
<g id="edge25" class="edge"><title>Node0x27373250&#45;&gt;Node0x8815c9b0</title>
<path fill="none" stroke="black" d="M1239.35,-134.944C1213.43,-120.137 1186.21,-106.813 1159,-97 1078.81,-68.073 820.768,-50.3792 723.538,-44.5962"/>
<polygon fill="black" stroke="black" points="723.486,-41.0873 713.299,-43.9961 723.077,-48.0753 723.486,-41.0873"/>
</g>
</g>
</svg>
