<?xml version="1.0" encoding="UTF-8" standalone="no"?>
<!DOCTYPE svg PUBLIC "-//W3C//DTD SVG 1.1//EN"
 "http://www.w3.org/Graphics/SVG/1.1/DTD/svg11.dtd">
<!-- Generated by graphviz version 2.38.0 (20140413.2041)
 -->
<!-- Title: Control&#45;flow graph for function &#39;function_4092fc(a1, *a2, a3, a4, a5)&#39;. Pages: 1 -->
<svg width="2029pt" height="1944pt"
 viewBox="0.00 0.00 2029.00 1944.00" xmlns="http://www.w3.org/2000/svg" xmlns:xlink="http://www.w3.org/1999/xlink">
<g id="graph0" class="graph" transform="scale(1 1) rotate(0) translate(4 1940)">
<title>Control&#45;flow graph for function &#39;function_4092fc(a1, *a2, a3, a4, a5)&#39;.</title>
<polygon fill="white" stroke="none" points="-4,4 -4,-1940 2025,-1940 2025,4 -4,4"/>
<text text-anchor="middle" x="1010.5" y="-7.8" font-family="Times,serif" font-size="14.00">Control&#45;flow graph for function &#39;function_4092fc(a1, *a2, a3, a4, a5)&#39;.</text>
<!-- Node0x31f2c160 -->
<g id="node1" class="node"><title>Node0x31f2c160</title>
<polygon fill="none" stroke="black" points="1528.5,-1837.5 1528.5,-1935.5 1587.5,-1935.5 1587.5,-1837.5 1528.5,-1837.5"/>
<text text-anchor="start" x="1536.5" y="-1920.3" font-family="Times,serif" font-size="14.00">entry:</text>
<text text-anchor="start" x="1536.5" y="-1905.3" font-family="Times,serif" font-size="14.00"> a1</text>
<text text-anchor="start" x="1536.5" y="-1890.3" font-family="Times,serif" font-size="14.00"> a2</text>
<text text-anchor="start" x="1536.5" y="-1875.3" font-family="Times,serif" font-size="14.00"> a3</text>
<text text-anchor="start" x="1536.5" y="-1860.3" font-family="Times,serif" font-size="14.00"> a4</text>
<text text-anchor="start" x="1536.5" y="-1845.3" font-family="Times,serif" font-size="14.00"> a5</text>
</g>
<!-- Node0x63eabcf0 -->
<g id="node2" class="node"><title>Node0x63eabcf0</title>
<polygon fill="none" stroke="black" points="1308.5,-1686.5 1308.5,-1799.5 1807.5,-1799.5 1807.5,-1686.5 1308.5,-1686.5"/>
<text text-anchor="start" x="1316.5" y="-1784.3" font-family="Times,serif" font-size="14.00">v1 = IntToPtrCastExpr&lt;ptr&gt;((g3 &#45; 117))</text>
<text text-anchor="start" x="1316.5" y="-1769.3" font-family="Times,serif" font-size="14.00"> *(v1) = TruncCastExpr&lt;int8&gt;((g8 + ExtCastExpr&lt;int32&gt;(*(v1))))</text>
<text text-anchor="start" x="1316.5" y="-1754.3" font-family="Times,serif" font-size="14.00"> v2 = g4</text>
<text text-anchor="start" x="1316.5" y="-1739.3" font-family="Times,serif" font-size="14.00"> g4 = 0</text>
<text text-anchor="start" x="1316.5" y="-1724.3" font-family="Times,serif" font-size="14.00"> v3 = g3</text>
<text text-anchor="start" x="1316.5" y="-1709.3" font-family="Times,serif" font-size="14.00"> v4 = g9</text>
<text text-anchor="start" x="1316.5" y="-1694.3" font-family="Times,serif" font-size="14.00"> v5 = g7</text>
</g>
<!-- Node0x31f2c160&#45;&gt;Node0x63eabcf0 -->
<g id="edge1" class="edge"><title>Node0x31f2c160&#45;&gt;Node0x63eabcf0</title>
<path fill="none" stroke="black" d="M1558,-1837.2C1558,-1828.47 1558,-1819.24 1558,-1810.11"/>
<polygon fill="black" stroke="black" points="1561.5,-1809.88 1558,-1799.88 1554.5,-1809.88 1561.5,-1809.88"/>
</g>
<!-- Node0x26476440 -->
<g id="node3" class="node"><title>Node0x26476440</title>
<polygon fill="none" stroke="black" points="1380,-1610.5 1380,-1648.5 1736,-1648.5 1736,-1610.5 1380,-1610.5"/>
<text text-anchor="start" x="1388" y="-1633.3" font-family="Times,serif" font-size="14.00">if (*(IntToPtrCastExpr&lt;ptr&gt;((v3 + 16))) == 0):</text>
<text text-anchor="start" x="1388" y="-1618.3" font-family="Times,serif" font-size="14.00"> else:</text>
</g>
<!-- Node0x63eabcf0&#45;&gt;Node0x26476440 -->
<g id="edge2" class="edge"><title>Node0x63eabcf0&#45;&gt;Node0x26476440</title>
<path fill="none" stroke="black" d="M1558,-1686.25C1558,-1676.86 1558,-1667.47 1558,-1659.15"/>
<polygon fill="black" stroke="black" points="1561.5,-1658.91 1558,-1648.91 1554.5,-1658.91 1561.5,-1658.91"/>
</g>
<!-- Node0x31f26ab0 -->
<g id="node4" class="node"><title>Node0x31f26ab0</title>
<polygon fill="none" stroke="black" points="1360,-1522.5 1360,-1558.5 1432,-1558.5 1432,-1522.5 1360,-1522.5"/>
<text text-anchor="start" x="1368" y="-1536.8" font-family="Times,serif" font-size="14.00">v6 = v3</text>
</g>
<!-- Node0x26476440&#45;&gt;Node0x31f26ab0 -->
<g id="edge3" class="edge"><title>Node0x26476440&#45;&gt;Node0x31f26ab0</title>
<path fill="none" stroke="black" d="M1432.19,-1610.48C1414.92,-1605.61 1401.03,-1599.53 1395,-1592 1389.84,-1585.55 1388.61,-1577.01 1389.12,-1568.79"/>
<polygon fill="black" stroke="black" points="1392.61,-1569.12 1390.53,-1558.73 1385.67,-1568.14 1392.61,-1569.12"/>
<text text-anchor="middle" x="1547.5" y="-1580.8" font-family="Times,serif" font-size="14.00">*(IntToPtrCastExpr&lt;ptr&gt;((v3 + 16))) != 0</text>
</g>
<!-- Node0x63ea87f0 -->
<g id="node5" class="node"><title>Node0x63ea87f0</title>
<polygon fill="none" stroke="black" points="1579.5,-1405.5 1579.5,-1503.5 1858.5,-1503.5 1858.5,-1405.5 1579.5,-1405.5"/>
<text text-anchor="start" x="1587.5" y="-1488.3" font-family="Times,serif" font-size="14.00">0x40939d:</text>
<text text-anchor="start" x="1587.5" y="-1473.3" font-family="Times,serif" font-size="14.00"> g7 = v5</text>
<text text-anchor="start" x="1587.5" y="-1458.3" font-family="Times,serif" font-size="14.00"> g9 = v4</text>
<text text-anchor="start" x="1587.5" y="-1443.3" font-family="Times,serif" font-size="14.00"> g4 = v2</text>
<text text-anchor="start" x="1587.5" y="-1428.3" font-family="Times,serif" font-size="14.00"> g3 = *(IntToPtrCastExpr&lt;ptr&gt;(v3))</text>
<text text-anchor="start" x="1587.5" y="-1413.3" font-family="Times,serif" font-size="14.00"> return 0</text>
</g>
<!-- Node0x26476440&#45;&gt;Node0x63ea87f0 -->
<g id="edge4" class="edge"><title>Node0x26476440&#45;&gt;Node0x63ea87f0</title>
<path fill="none" stroke="black" d="M1660.33,-1610.44C1678.43,-1605.36 1693.56,-1599.22 1700,-1592 1718.72,-1571.03 1724.26,-1540.56 1724.77,-1513.72"/>
<polygon fill="black" stroke="black" points="1728.27,-1513.63 1724.74,-1503.64 1721.27,-1513.65 1728.27,-1513.63"/>
<text text-anchor="middle" x="1865.5" y="-1580.8" font-family="Times,serif" font-size="14.00">*(IntToPtrCastExpr&lt;ptr&gt;((v3 + 16))) == 0</text>
</g>
<!-- Node0x31f279c0 -->
<g id="node6" class="node"><title>Node0x31f279c0</title>
<polygon fill="none" stroke="black" points="1363.5,-1348.5 1363.5,-1386.5 1464.5,-1386.5 1464.5,-1348.5 1363.5,-1348.5"/>
<text text-anchor="start" x="1371.5" y="-1371.3" font-family="Times,serif" font-size="14.00">0x409359:</text>
<text text-anchor="start" x="1371.5" y="-1356.3" font-family="Times,serif" font-size="14.00"> while True:</text>
</g>
<!-- Node0x31f26ab0&#45;&gt;Node0x31f279c0 -->
<g id="edge5" class="edge"><title>Node0x31f26ab0&#45;&gt;Node0x31f279c0</title>
<path fill="none" stroke="black" d="M1397.79,-1522.48C1400.88,-1493.16 1407.23,-1432.83 1411,-1397.01"/>
<polygon fill="black" stroke="black" points="1414.51,-1397.05 1412.08,-1386.74 1407.55,-1396.32 1414.51,-1397.05"/>
</g>
<!-- Node0x63ea8fc0 -->
<g id="node7" class="node"><title>Node0x63ea8fc0</title>
<polygon fill="none" stroke="black" points="985,-23.5 985,-59.5 1039,-59.5 1039,-23.5 985,-23.5"/>
<text text-anchor="start" x="993" y="-37.8" font-family="Times,serif" font-size="14.00">exit:</text>
</g>
<!-- Node0x63ea87f0&#45;&gt;Node0x63ea8fc0 -->
<g id="edge6" class="edge"><title>Node0x63ea87f0&#45;&gt;Node0x63ea8fc0</title>
<path fill="none" stroke="black" d="M1705.81,-1405.43C1700.23,-1381.07 1695,-1350.93 1695,-1323.5 1695,-1323.5 1695,-1323.5 1695,-145.5 1695,-79.6203 1191.73,-50.9472 1049.2,-44.148"/>
<polygon fill="black" stroke="black" points="1049.35,-40.651 1039.2,-43.6784 1049.02,-47.6433 1049.35,-40.651"/>
</g>
<!-- Node0x31f2b940 -->
<g id="node8" class="node"><title>Node0x31f2b940</title>
<polygon fill="none" stroke="black" points="1249.5,-1183.5 1249.5,-1296.5 1578.5,-1296.5 1578.5,-1183.5 1249.5,-1183.5"/>
<text text-anchor="start" x="1257.5" y="-1281.3" font-family="Times,serif" font-size="14.00">0x409359:</text>
<text text-anchor="start" x="1257.5" y="-1266.3" font-family="Times,serif" font-size="14.00"> g2 = *(IntToPtrCastExpr&lt;ptr&gt;((v6 + 12)))</text>
<text text-anchor="start" x="1257.5" y="-1251.3" font-family="Times,serif" font-size="14.00"> *(IntToPtrCastExpr&lt;ptr&gt;((v6 &#45; 1))) = 0</text>
<text text-anchor="start" x="1257.5" y="-1236.3" font-family="Times,serif" font-size="14.00"> lpString1 = ((4 * g4) + g2)</text>
<text text-anchor="start" x="1257.5" y="-1221.3" font-family="Times,serif" font-size="14.00"> g7 = lpString1</text>
<text text-anchor="start" x="1257.5" y="-1206.3" font-family="Times,serif" font-size="14.00"> g9 = 0</text>
<text text-anchor="start" x="1257.5" y="-1191.3" font-family="Times,serif" font-size="14.00"> v7</text>
</g>
<!-- Node0x31f279c0&#45;&gt;Node0x31f2b940 -->
<g id="edge7" class="edge"><title>Node0x31f279c0&#45;&gt;Node0x31f2b940</title>
<path fill="none" stroke="black" d="M1414,-1348.25C1414,-1337.04 1414,-1321.93 1414,-1306.59"/>
<polygon fill="black" stroke="black" points="1417.5,-1306.52 1414,-1296.52 1410.5,-1306.52 1417.5,-1306.52"/>
<text text-anchor="middle" x="1431" y="-1318.8" font-family="Times,serif" font-size="14.00">True</text>
</g>
<!-- Node0x31f2e590 -->
<g id="node9" class="node"><title>Node0x31f2e590</title>
<polygon fill="none" stroke="black" points="1365.5,-1109.5 1365.5,-1145.5 1462.5,-1145.5 1462.5,-1109.5 1365.5,-1109.5"/>
<text text-anchor="start" x="1373.5" y="-1123.8" font-family="Times,serif" font-size="14.00">while True:</text>
</g>
<!-- Node0x31f2b940&#45;&gt;Node0x31f2e590 -->
<g id="edge8" class="edge"><title>Node0x31f2b940&#45;&gt;Node0x31f2e590</title>
<path fill="none" stroke="black" d="M1414,-1183.43C1414,-1173.86 1414,-1164.31 1414,-1155.91"/>
<polygon fill="black" stroke="black" points="1417.5,-1155.64 1414,-1145.64 1410.5,-1155.64 1417.5,-1155.64"/>
</g>
<!-- Node0x31f30360 -->
<g id="node10" class="node"><title>Node0x31f30360</title>
<polygon fill="none" stroke="black" points="491,-1019.5 491,-1057.5 1211,-1057.5 1211,-1019.5 491,-1019.5"/>
<text text-anchor="start" x="499" y="-1042.3" font-family="Times,serif" font-size="14.00">0x409365:</text>
<text text-anchor="start" x="499" y="-1027.3" font-family="Times,serif" font-size="14.00"> if (lstrcmpW(IntToPtrCastExpr&lt;ptr&gt;(*(IntToPtrCastExpr&lt;ptr&gt;(lpString1))), &quot;accParent&quot;) == 0):</text>
</g>
<!-- Node0x31f2e590&#45;&gt;Node0x31f30360 -->
<g id="edge9" class="edge"><title>Node0x31f2e590&#45;&gt;Node0x31f30360</title>
<path fill="none" stroke="black" d="M1365.02,-1118.93C1279.48,-1105.71 1100.29,-1078.02 977.798,-1059.09"/>
<polygon fill="black" stroke="black" points="978.022,-1055.59 967.605,-1057.52 976.953,-1062.51 978.022,-1055.59"/>
<text text-anchor="middle" x="1200" y="-1079.8" font-family="Times,serif" font-size="14.00">True</text>
</g>
<!-- Node0x174432c0 -->
<g id="node11" class="node"><title>Node0x174432c0</title>
<polygon fill="none" stroke="black" points="0,-914.5 0,-967.5 654,-967.5 654,-914.5 0,-914.5"/>
<text text-anchor="start" x="8" y="-952.3" font-family="Times,serif" font-size="14.00">0x409377:</text>
<text text-anchor="start" x="8" y="-937.3" font-family="Times,serif" font-size="14.00"> *(IntToPtrCastExpr&lt;ptr&gt;((g3 &#45; 1))) = 1</text>
<text text-anchor="start" x="8" y="-922.3" font-family="Times,serif" font-size="14.00"> *(IntToPtrCastExpr&lt;ptr&gt;(((4 * g4) + *(IntToPtrCastExpr&lt;ptr&gt;((g3 + 24)))))) = g18[g9]</text>
</g>
<!-- Node0x31f30360&#45;&gt;Node0x174432c0 -->
<g id="edge10" class="edge"><title>Node0x31f30360&#45;&gt;Node0x174432c0</title>
<path fill="none" stroke="black" d="M490.806,-1028.63C332.543,-1022.9 179.362,-1014.04 167,-1001 156.629,-990.061 156.712,-981.139 163.501,-973.866"/>
<polygon fill="black" stroke="black" points="165.766,-976.538 171.514,-967.638 161.47,-971.011 165.766,-976.538"/>
<text text-anchor="middle" x="502" y="-989.8" font-family="Times,serif" font-size="14.00">lstrcmpW(IntToPtrCastExpr&lt;ptr&gt;(*(IntToPtrCastExpr&lt;ptr&gt;(lpString1))), &quot;accParent&quot;) == 0</text>
</g>
<!-- Node0x26475890 -->
<g id="node12" class="node"><title>Node0x26475890</title>
<polygon fill="none" stroke="black" points="794.5,-838.5 794.5,-876.5 907.5,-876.5 907.5,-838.5 794.5,-838.5"/>
<text text-anchor="start" x="802.5" y="-861.3" font-family="Times,serif" font-size="14.00">v8 = (g9 + 4)</text>
<text text-anchor="start" x="802.5" y="-846.3" font-family="Times,serif" font-size="14.00"> g9 = v8</text>
</g>
<!-- Node0x31f30360&#45;&gt;Node0x26475890 -->
<g id="edge11" class="edge"><title>Node0x31f30360&#45;&gt;Node0x26475890</title>
<path fill="none" stroke="black" d="M851,-1019.35C851,-988.126 851,-924.018 851,-886.856"/>
<polygon fill="black" stroke="black" points="854.5,-886.697 851,-876.697 847.5,-886.697 854.5,-886.697"/>
<text text-anchor="middle" x="1183" y="-937.3" font-family="Times,serif" font-size="14.00">lstrcmpW(IntToPtrCastExpr&lt;ptr&gt;(*(IntToPtrCastExpr&lt;ptr&gt;(lpString1))), &quot;accParent&quot;) != 0</text>
</g>
<!-- Node0x174432c0&#45;&gt;Node0x26475890 -->
<g id="edge12" class="edge"><title>Node0x174432c0&#45;&gt;Node0x26475890</title>
<path fill="none" stroke="black" d="M491,-914.492C590.065,-899.084 710.97,-880.28 784.415,-868.856"/>
<polygon fill="black" stroke="black" points="785.113,-872.29 794.456,-867.295 784.037,-865.373 785.113,-872.29"/>
</g>
<!-- Node0x264758f0 -->
<g id="node13" class="node"><title>Node0x264758f0</title>
<polygon fill="none" stroke="black" points="904,-764.5 904,-800.5 1018,-800.5 1018,-764.5 904,-764.5"/>
<text text-anchor="start" x="912" y="-778.8" font-family="Times,serif" font-size="14.00">if (v8 &gt;= 76):</text>
</g>
<!-- Node0x26475890&#45;&gt;Node0x264758f0 -->
<g id="edge13" class="edge"><title>Node0x26475890&#45;&gt;Node0x264758f0</title>
<path fill="none" stroke="black" d="M878.191,-838.455C892.899,-828.694 911.209,-816.543 926.868,-806.151"/>
<polygon fill="black" stroke="black" points="928.859,-809.031 935.255,-800.585 924.988,-803.198 928.859,-809.031"/>
</g>
<!-- Node0x1c2f95c0 -->
<g id="node14" class="node"><title>Node0x1c2f95c0</title>
<polygon fill="none" stroke="black" points="916.5,-674.5 916.5,-712.5 1005.5,-712.5 1005.5,-674.5 916.5,-674.5"/>
<text text-anchor="start" x="924.5" y="-697.3" font-family="Times,serif" font-size="14.00">0x40938f:</text>
<text text-anchor="start" x="924.5" y="-682.3" font-family="Times,serif" font-size="14.00"> v7 = g3</text>
</g>
<!-- Node0x264758f0&#45;&gt;Node0x1c2f95c0 -->
<g id="edge14" class="edge"><title>Node0x264758f0&#45;&gt;Node0x1c2f95c0</title>
<path fill="none" stroke="black" d="M961,-764.312C961,-752.511 961,-736.572 961,-722.904"/>
<polygon fill="black" stroke="black" points="964.5,-722.551 961,-712.551 957.5,-722.551 964.5,-722.551"/>
<text text-anchor="middle" x="995.5" y="-734.8" font-family="Times,serif" font-size="14.00">v8 &gt;= 76</text>
</g>
<!-- Node0x26475a50 -->
<g id="node15" class="node"><title>Node0x26475a50</title>
<polygon fill="none" stroke="black" points="1313.5,-674.5 1313.5,-712.5 1440.5,-712.5 1440.5,-674.5 1313.5,-674.5"/>
<text text-anchor="start" x="1321.5" y="-697.3" font-family="Times,serif" font-size="14.00">0x409387:</text>
<text text-anchor="start" x="1321.5" y="-682.3" font-family="Times,serif" font-size="14.00"> lpString1 = g7</text>
</g>
<!-- Node0x264758f0&#45;&gt;Node0x26475a50 -->
<g id="edge15" class="edge"><title>Node0x264758f0&#45;&gt;Node0x26475a50</title>
<path fill="none" stroke="black" d="M1018.41,-769.494C1092.58,-753.983 1221.81,-726.955 1303.2,-709.934"/>
<polygon fill="black" stroke="black" points="1304.3,-713.279 1313.38,-707.806 1302.87,-706.427 1304.3,-713.279"/>
<text text-anchor="middle" x="1222.5" y="-734.8" font-family="Times,serif" font-size="14.00">v8 &lt; 76</text>
</g>
<!-- Node0x26475580 -->
<g id="node16" class="node"><title>Node0x26475580</title>
<polygon fill="none" stroke="black" points="791,-600.5 791,-636.5 1131,-636.5 1131,-600.5 791,-600.5"/>
<text text-anchor="start" x="799" y="-614.8" font-family="Times,serif" font-size="14.00">if (*(IntToPtrCastExpr&lt;ptr&gt;((v7 &#45; 1))) == 0):</text>
</g>
<!-- Node0x1c2f95c0&#45;&gt;Node0x26475580 -->
<g id="edge16" class="edge"><title>Node0x1c2f95c0&#45;&gt;Node0x26475580</title>
<path fill="none" stroke="black" d="M961,-674.455C961,-666.201 961,-656.238 961,-647.074"/>
<polygon fill="black" stroke="black" points="964.5,-646.835 961,-636.835 957.5,-646.835 964.5,-646.835"/>
</g>
<!-- Node0x26475a50&#45;&gt;Node0x31f2e590 -->
<g id="edge17" class="edge"><title>Node0x26475a50&#45;&gt;Node0x31f2e590</title>
<path fill="none" stroke="black" d="M1440.71,-702.176C1487.52,-711.791 1543,-733.344 1543,-781.5 1543,-1039.5 1543,-1039.5 1543,-1039.5 1543,-1076.29 1506.49,-1098.56 1472.31,-1111.34"/>
<polygon fill="black" stroke="black" points="1471.04,-1108.08 1462.77,-1114.7 1473.36,-1114.69 1471.04,-1108.08"/>
</g>
<!-- Node0x1c2fa430 -->
<g id="node17" class="node"><title>Node0x1c2fa430</title>
<polygon fill="none" stroke="black" points="704.5,-378.5 704.5,-491.5 983.5,-491.5 983.5,-378.5 704.5,-378.5"/>
<text text-anchor="start" x="712.5" y="-476.3" font-family="Times,serif" font-size="14.00">0x4093a4:</text>
<text text-anchor="start" x="712.5" y="-461.3" font-family="Times,serif" font-size="14.00"> g2 = &#45;2147352570</text>
<text text-anchor="start" x="712.5" y="-446.3" font-family="Times,serif" font-size="14.00"> g7 = v5</text>
<text text-anchor="start" x="712.5" y="-431.3" font-family="Times,serif" font-size="14.00"> g9 = v4</text>
<text text-anchor="start" x="712.5" y="-416.3" font-family="Times,serif" font-size="14.00"> g4 = v2</text>
<text text-anchor="start" x="712.5" y="-401.3" font-family="Times,serif" font-size="14.00"> g3 = *(IntToPtrCastExpr&lt;ptr&gt;(v7))</text>
<text text-anchor="start" x="712.5" y="-386.3" font-family="Times,serif" font-size="14.00"> return 0</text>
</g>
<!-- Node0x26475580&#45;&gt;Node0x1c2fa430 -->
<g id="edge18" class="edge"><title>Node0x26475580&#45;&gt;Node0x1c2fa430</title>
<path fill="none" stroke="black" d="M861.908,-600.378C853.855,-595.595 846.656,-589.571 841,-582 824.109,-559.388 822.476,-528.832 826.025,-501.517"/>
<polygon fill="black" stroke="black" points="829.486,-502.037 827.548,-491.621 822.568,-500.972 829.486,-502.037"/>
<text text-anchor="middle" x="988.5" y="-570.8" font-family="Times,serif" font-size="14.00">*(IntToPtrCastExpr&lt;ptr&gt;((v7 &#45; 1))) == 0</text>
</g>
<!-- Node0x1c2f9bf0 -->
<g id="node18" class="node"><title>Node0x1c2f9bf0</title>
<polygon fill="none" stroke="black" points="1105.5,-510.5 1105.5,-548.5 1218.5,-548.5 1218.5,-510.5 1105.5,-510.5"/>
<text text-anchor="start" x="1113.5" y="-533.3" font-family="Times,serif" font-size="14.00">v9 = (g4 + 1)</text>
<text text-anchor="start" x="1113.5" y="-518.3" font-family="Times,serif" font-size="14.00"> g4 = v9</text>
</g>
<!-- Node0x26475580&#45;&gt;Node0x1c2f9bf0 -->
<g id="edge19" class="edge"><title>Node0x26475580&#45;&gt;Node0x1c2f9bf0</title>
<path fill="none" stroke="black" d="M1089.52,-600.48C1111.84,-595.547 1130.83,-589.434 1140,-582 1147.41,-575.993 1152.37,-567.029 1155.67,-558.255"/>
<polygon fill="black" stroke="black" points="1159.04,-559.189 1158.73,-548.599 1152.37,-557.071 1159.04,-559.189"/>
<text text-anchor="middle" x="1296.5" y="-570.8" font-family="Times,serif" font-size="14.00">*(IntToPtrCastExpr&lt;ptr&gt;((v7 &#45; 1))) != 0</text>
</g>
<!-- Node0x1c2fa430&#45;&gt;Node0x63ea8fc0 -->
<g id="edge20" class="edge"><title>Node0x1c2fa430&#45;&gt;Node0x63ea8fc0</title>
<path fill="none" stroke="black" d="M844,-378.293C844,-353.815 844,-324.73 844,-298.5 844,-298.5 844,-298.5 844,-145.5 844,-122.349 846.445,-113.183 863,-97 893.392,-67.2907 941.278,-53.5958 974.528,-47.4035"/>
<polygon fill="black" stroke="black" points="975.505,-50.7871 984.768,-45.6458 974.32,-43.888 975.505,-50.7871"/>
</g>
<!-- Node0x1c2f9c50 -->
<g id="node19" class="node"><title>Node0x1c2f9c50</title>
<polygon fill="none" stroke="black" points="979.5,-323.5 979.5,-359.5 1344.5,-359.5 1344.5,-323.5 979.5,-323.5"/>
<text text-anchor="start" x="987.5" y="-337.8" font-family="Times,serif" font-size="14.00">if (v9 &gt;= *(IntToPtrCastExpr&lt;ptr&gt;((v7 + 16)))):</text>
</g>
<!-- Node0x1c2f9bf0&#45;&gt;Node0x1c2f9c50 -->
<g id="edge21" class="edge"><title>Node0x1c2f9bf0&#45;&gt;Node0x1c2f9c50</title>
<path fill="none" stroke="black" d="M1162,-510.327C1162,-477.63 1162,-408.708 1162,-370.134"/>
<polygon fill="black" stroke="black" points="1165.5,-369.662 1162,-359.662 1158.5,-369.662 1165.5,-369.662"/>
</g>
<!-- Node0x1c2fa520 -->
<g id="node20" class="node"><title>Node0x1c2fa520</title>
<polygon fill="none" stroke="black" points="878.5,-233.5 878.5,-271.5 1109.5,-271.5 1109.5,-233.5 878.5,-233.5"/>
<text text-anchor="start" x="886.5" y="-256.3" font-family="Times,serif" font-size="14.00">break (via goto) &#45;&gt; 0x40939b:</text>
<text text-anchor="start" x="886.5" y="-241.3" font-family="Times,serif" font-size="14.00"> goto 0x40939b</text>
</g>
<!-- Node0x1c2f9c50&#45;&gt;Node0x1c2fa520 -->
<g id="edge22" class="edge"><title>Node0x1c2f9c50&#45;&gt;Node0x1c2fa520</title>
<path fill="none" stroke="black" d="M981.409,-323.477C964.69,-318.748 951.55,-312.709 945,-305 937.231,-295.857 942.429,-286.231 951.867,-277.807"/>
<polygon fill="black" stroke="black" points="954.046,-280.547 959.765,-271.628 949.732,-275.033 954.046,-280.547"/>
<text text-anchor="middle" x="1104.5" y="-293.8" font-family="Times,serif" font-size="14.00">v9 &gt;= *(IntToPtrCastExpr&lt;ptr&gt;((v7 + 16)))</text>
</g>
<!-- Node0x1c2fa120 -->
<g id="node21" class="node"><title>Node0x1c2fa120</title>
<polygon fill="none" stroke="black" points="1380,-233.5 1380,-271.5 1508,-271.5 1508,-233.5 1380,-233.5"/>
<text text-anchor="start" x="1388" y="-256.3" font-family="Times,serif" font-size="14.00">v6 = v7</text>
<text text-anchor="start" x="1388" y="-241.3" font-family="Times,serif" font-size="14.00"> goto 0x409359</text>
</g>
<!-- Node0x1c2f9c50&#45;&gt;Node0x1c2fa120 -->
<g id="edge23" class="edge"><title>Node0x1c2f9c50&#45;&gt;Node0x1c2fa120</title>
<path fill="none" stroke="black" d="M1218.85,-323.452C1233.83,-318.224 1249.78,-311.983 1264,-305 1274.95,-299.621 1275.77,-294.788 1287,-290 1313.02,-278.902 1342.97,-270.877 1369.69,-265.229"/>
<polygon fill="black" stroke="black" points="1370.66,-268.604 1379.76,-263.18 1369.26,-261.745 1370.66,-268.604"/>
<text text-anchor="middle" x="1440.5" y="-293.8" font-family="Times,serif" font-size="14.00">v9 &lt; *(IntToPtrCastExpr&lt;ptr&gt;((v7 + 16)))</text>
</g>
<!-- Node0x63ead910 -->
<g id="node22" class="node"><title>Node0x63ead910</title>
<polygon fill="none" stroke="black" points="872.5,-97.5 872.5,-195.5 1151.5,-195.5 1151.5,-97.5 872.5,-97.5"/>
<text text-anchor="start" x="880.5" y="-180.3" font-family="Times,serif" font-size="14.00">0x40939d:</text>
<text text-anchor="start" x="880.5" y="-165.3" font-family="Times,serif" font-size="14.00"> g7 = v5</text>
<text text-anchor="start" x="880.5" y="-150.3" font-family="Times,serif" font-size="14.00"> g9 = v4</text>
<text text-anchor="start" x="880.5" y="-135.3" font-family="Times,serif" font-size="14.00"> g4 = v2</text>
<text text-anchor="start" x="880.5" y="-120.3" font-family="Times,serif" font-size="14.00"> g3 = *(IntToPtrCastExpr&lt;ptr&gt;(v7))</text>
<text text-anchor="start" x="880.5" y="-105.3" font-family="Times,serif" font-size="14.00"> return 0</text>
</g>
<!-- Node0x1c2fa520&#45;&gt;Node0x63ead910 -->
<g id="edge24" class="edge"><title>Node0x1c2fa520&#45;&gt;Node0x63ead910</title>
<path fill="none" stroke="black" d="M997.135,-233.385C998.495,-225.528 1000.17,-215.844 1001.9,-205.842"/>
<polygon fill="black" stroke="black" points="1005.39,-206.24 1003.64,-195.789 998.488,-205.046 1005.39,-206.24"/>
</g>
<!-- Node0x1c2fa120&#45;&gt;Node0x31f279c0 -->
<g id="edge25" class="edge"><title>Node0x1c2fa120&#45;&gt;Node0x31f279c0</title>
<path fill="none" stroke="black" d="M1508.15,-262.513C1543,-268.656 1581.49,-277.879 1594,-290 1610.73,-306.206 1608,-317.209 1608,-340.5 1608,-1241 1608,-1241 1608,-1241 1608,-1267.43 1606.34,-1277.97 1588,-1297 1557.75,-1328.39 1511.48,-1345.96 1474.26,-1355.58"/>
<polygon fill="black" stroke="black" points="1473.39,-1352.19 1464.52,-1357.97 1475.06,-1358.99 1473.39,-1352.19"/>
</g>
<!-- Node0x63ead910&#45;&gt;Node0x63ea8fc0 -->
<g id="edge26" class="edge"><title>Node0x63ead910&#45;&gt;Node0x63ea8fc0</title>
<path fill="none" stroke="black" d="M1012,-97.3173C1012,-87.893 1012,-78.32 1012,-69.8676"/>
<polygon fill="black" stroke="black" points="1015.5,-69.856 1012,-59.8561 1008.5,-69.8561 1015.5,-69.856"/>
</g>
</g>
</svg>
