<?xml version="1.0" encoding="UTF-8" standalone="no"?>
<!DOCTYPE svg PUBLIC "-//W3C//DTD SVG 1.1//EN"
 "http://www.w3.org/Graphics/SVG/1.1/DTD/svg11.dtd">
<!-- Generated by graphviz version 2.38.0 (20140413.2041)
 -->
<!-- Title: Control&#45;flow graph for function &#39;function_415108(*a1, a2)&#39;. Pages: 1 -->
<svg width="446pt" height="248pt"
 viewBox="0.00 0.00 446.00 248.00" xmlns="http://www.w3.org/2000/svg" xmlns:xlink="http://www.w3.org/1999/xlink">
<g id="graph0" class="graph" transform="scale(1 1) rotate(0) translate(4 244)">
<title>Control&#45;flow graph for function &#39;function_415108(*a1, a2)&#39;.</title>
<polygon fill="white" stroke="none" points="-4,4 -4,-244 442,-244 442,4 -4,4"/>
<text text-anchor="middle" x="219" y="-7.8" font-family="Times,serif" font-size="14.00">Control&#45;flow graph for function &#39;function_415108(*a1, a2)&#39;.</text>
<!-- Node0xa80ba8d0 -->
<g id="node1" class="node"><title>Node0xa80ba8d0</title>
<polygon fill="none" stroke="black" points="189.5,-186.5 189.5,-239.5 248.5,-239.5 248.5,-186.5 189.5,-186.5"/>
<text text-anchor="start" x="197.5" y="-224.3" font-family="Times,serif" font-size="14.00">entry:</text>
<text text-anchor="start" x="197.5" y="-209.3" font-family="Times,serif" font-size="14.00"> a1</text>
<text text-anchor="start" x="197.5" y="-194.3" font-family="Times,serif" font-size="14.00"> a2</text>
</g>
<!-- Node0xa80bee70 -->
<g id="node2" class="node"><title>Node0xa80bee70</title>
<polygon fill="none" stroke="black" points="66,-96.5 66,-149.5 372,-149.5 372,-96.5 66,-96.5"/>
<text text-anchor="start" x="74" y="-134.3" font-family="Times,serif" font-size="14.00">v1 = IntToPtrCastExpr&lt;ptr&gt;((g5 + 44))</text>
<text text-anchor="start" x="74" y="-119.3" font-family="Times,serif" font-size="14.00"> *(v1) = ExtCastExpr&lt;int32&gt;(*(a1))</text>
<text text-anchor="start" x="74" y="-104.3" font-family="Times,serif" font-size="14.00"> return *(v1)</text>
</g>
<!-- Node0xa80ba8d0&#45;&gt;Node0xa80bee70 -->
<g id="edge1" class="edge"><title>Node0xa80ba8d0&#45;&gt;Node0xa80bee70</title>
<path fill="none" stroke="black" d="M219,-186.073C219,-177.838 219,-168.58 219,-159.777"/>
<polygon fill="black" stroke="black" points="222.5,-159.742 219,-149.742 215.5,-159.742 222.5,-159.742"/>
</g>
<!-- Node0xa80bec20 -->
<g id="node3" class="node"><title>Node0xa80bec20</title>
<polygon fill="none" stroke="black" points="192,-23.5 192,-59.5 246,-59.5 246,-23.5 192,-23.5"/>
<text text-anchor="start" x="200" y="-37.8" font-family="Times,serif" font-size="14.00">exit:</text>
</g>
<!-- Node0xa80bee70&#45;&gt;Node0xa80bec20 -->
<g id="edge2" class="edge"><title>Node0xa80bee70&#45;&gt;Node0xa80bec20</title>
<path fill="none" stroke="black" d="M219,-96.4081C219,-87.9823 219,-78.5803 219,-70.0174"/>
<polygon fill="black" stroke="black" points="222.5,-69.7564 219,-59.7564 215.5,-69.7565 222.5,-69.7564"/>
</g>
</g>
</svg>
