<?xml version="1.0" encoding="UTF-8" standalone="no"?>
<!DOCTYPE svg PUBLIC "-//W3C//DTD SVG 1.1//EN"
 "http://www.w3.org/Graphics/SVG/1.1/DTD/svg11.dtd">
<!-- Generated by graphviz version 2.38.0 (20140413.2041)
 -->
<!-- Title: Control&#45;flow graph for function &#39;function_4363ae()&#39;. Pages: 1 -->
<svg width="555pt" height="977pt"
 viewBox="0.00 0.00 555.00 977.00" xmlns="http://www.w3.org/2000/svg" xmlns:xlink="http://www.w3.org/1999/xlink">
<g id="graph0" class="graph" transform="scale(1 1) rotate(0) translate(4 973)">
<title>Control&#45;flow graph for function &#39;function_4363ae()&#39;.</title>
<polygon fill="white" stroke="none" points="-4,4 -4,-973 551,-973 551,4 -4,4"/>
<text text-anchor="middle" x="273.5" y="-7.8" font-family="Times,serif" font-size="14.00">Control&#45;flow graph for function &#39;function_4363ae()&#39;.</text>
<!-- Node0x3aaa9420 -->
<g id="node1" class="node"><title>Node0x3aaa9420</title>
<polygon fill="none" stroke="black" points="170.5,-932.5 170.5,-968.5 229.5,-968.5 229.5,-932.5 170.5,-932.5"/>
<text text-anchor="start" x="178.5" y="-946.8" font-family="Times,serif" font-size="14.00">entry:</text>
</g>
<!-- Node0x3aaa7c80 -->
<g id="node2" class="node"><title>Node0x3aaa7c80</title>
<polygon fill="none" stroke="black" points="43,-736.5 43,-894.5 357,-894.5 357,-736.5 43,-736.5"/>
<text text-anchor="start" x="51" y="-879.3" font-family="Times,serif" font-size="14.00">v1</text>
<text text-anchor="start" x="51" y="-864.3" font-family="Times,serif" font-size="14.00"> g3 = &amp;(v1)</text>
<text text-anchor="start" x="51" y="-849.3" font-family="Times,serif" font-size="14.00"> v2</text>
<text text-anchor="start" x="51" y="-834.3" font-family="Times,serif" font-size="14.00"> v3 = &amp;(v2)</text>
<text text-anchor="start" x="51" y="-819.3" font-family="Times,serif" font-size="14.00"> lpVersionInformation</text>
<text text-anchor="start" x="51" y="-804.3" font-family="Times,serif" font-size="14.00"> g2 = &amp;(lpVersionInformation)</text>
<text text-anchor="start" x="51" y="-789.3" font-family="Times,serif" font-size="14.00"> lpVersionInformation = 148</text>
<text text-anchor="start" x="51" y="-774.3" font-family="Times,serif" font-size="14.00"> GetVersionExA(&amp;(lpVersionInformation))</text>
<text text-anchor="start" x="51" y="-759.3" font-family="Times,serif" font-size="14.00"> v4</text>
<text text-anchor="start" x="51" y="-744.3" font-family="Times,serif" font-size="14.00"> Value</text>
</g>
<!-- Node0x3aaa9420&#45;&gt;Node0x3aaa7c80 -->
<g id="edge1" class="edge"><title>Node0x3aaa9420&#45;&gt;Node0x3aaa7c80</title>
<path fill="none" stroke="black" d="M200,-932.385C200,-924.782 200,-915.206 200,-904.833"/>
<polygon fill="black" stroke="black" points="203.5,-904.682 200,-894.682 196.5,-904.682 203.5,-904.682"/>
</g>
<!-- Node0x3aaa86e0 -->
<g id="node3" class="node"><title>Node0x3aaa86e0</title>
<polygon fill="none" stroke="black" points="150.5,-662.5 150.5,-698.5 249.5,-698.5 249.5,-662.5 150.5,-662.5"/>
<text text-anchor="start" x="158.5" y="-676.8" font-family="Times,serif" font-size="14.00">if (v4 != 2):</text>
</g>
<!-- Node0x3aaa7c80&#45;&gt;Node0x3aaa86e0 -->
<g id="edge2" class="edge"><title>Node0x3aaa7c80&#45;&gt;Node0x3aaa86e0</title>
<path fill="none" stroke="black" d="M200,-736.364C200,-726.457 200,-716.905 200,-708.625"/>
<polygon fill="black" stroke="black" points="203.5,-708.552 200,-698.552 196.5,-708.552 203.5,-708.552"/>
</g>
<!-- Node0x3aaa9800 -->
<g id="node4" class="node"><title>Node0x3aaa9800</title>
<polygon fill="none" stroke="black" points="0,-410.5 0,-553.5 284,-553.5 284,-410.5 0,-410.5"/>
<text text-anchor="start" x="8" y="-538.3" font-family="Times,serif" font-size="14.00">0x4363ef:</text>
<text text-anchor="start" x="8" y="-523.3" font-family="Times,serif" font-size="14.00"> Value = 4416325</text>
<text text-anchor="start" x="8" y="-508.3" font-family="Times,serif" font-size="14.00"> g2 = Value</text>
<text text-anchor="start" x="8" y="-493.3" font-family="Times,serif" font-size="14.00"> InterlockedExchange(&amp;(g31), Value)</text>
<text text-anchor="start" x="8" y="-478.3" font-family="Times,serif" font-size="14.00"> function_4363ae()</text>
<text text-anchor="start" x="8" y="-463.3" font-family="Times,serif" font-size="14.00"> g5 = (g3 ^ v3)</text>
<text text-anchor="start" x="8" y="-448.3" font-family="Times,serif" font-size="14.00"> function_4201ce(&amp;(g31))</text>
<text text-anchor="start" x="8" y="-433.3" font-family="Times,serif" font-size="14.00"> g3 = v1</text>
<text text-anchor="start" x="8" y="-418.3" font-family="Times,serif" font-size="14.00"> return 0</text>
</g>
<!-- Node0x3aaa86e0&#45;&gt;Node0x3aaa9800 -->
<g id="edge3" class="edge"><title>Node0x3aaa86e0&#45;&gt;Node0x3aaa9800</title>
<path fill="none" stroke="black" d="M188.415,-662.354C184.992,-656.698 181.497,-650.251 179,-644 168.859,-618.612 161.14,-589.809 155.445,-563.653"/>
<polygon fill="black" stroke="black" points="158.849,-562.834 153.361,-553.771 152,-564.278 158.849,-562.834"/>
<text text-anchor="middle" x="206" y="-632.8" font-family="Times,serif" font-size="14.00">v4 != 2</text>
</g>
<!-- Node0x3aaa4dd0 -->
<g id="node5" class="node"><title>Node0x3aaa4dd0</title>
<polygon fill="none" stroke="black" points="243,-572.5 243,-610.5 335,-610.5 335,-572.5 243,-572.5"/>
<text text-anchor="start" x="251" y="-595.3" font-family="Times,serif" font-size="14.00">0x4363e1:</text>
<text text-anchor="start" x="251" y="-580.3" font-family="Times,serif" font-size="14.00"> v5</text>
</g>
<!-- Node0x3aaa86e0&#45;&gt;Node0x3aaa4dd0 -->
<g id="edge4" class="edge"><title>Node0x3aaa86e0&#45;&gt;Node0x3aaa4dd0</title>
<path fill="none" stroke="black" d="M217.584,-662.312C230.612,-649.576 248.57,-632.022 263.219,-617.702"/>
<polygon fill="black" stroke="black" points="265.829,-620.044 270.534,-610.551 260.936,-615.039 265.829,-620.044"/>
<text text-anchor="middle" x="280" y="-632.8" font-family="Times,serif" font-size="14.00">v4 == 2</text>
</g>
<!-- Node0x3aaa6ec0 -->
<g id="node6" class="node"><title>Node0x3aaa6ec0</title>
<polygon fill="none" stroke="black" points="163,-23.5 163,-59.5 217,-59.5 217,-23.5 163,-23.5"/>
<text text-anchor="start" x="171" y="-37.8" font-family="Times,serif" font-size="14.00">exit:</text>
</g>
<!-- Node0x3aaa9800&#45;&gt;Node0x3aaa6ec0 -->
<g id="edge5" class="edge"><title>Node0x3aaa9800&#45;&gt;Node0x3aaa6ec0</title>
<path fill="none" stroke="black" d="M142,-410.39C142,-384.618 142,-355.24 142,-328.5 142,-328.5 142,-328.5 142,-160.5 142,-126.723 159.084,-91.2494 172.868,-68.1257"/>
<polygon fill="black" stroke="black" points="175.855,-69.9495 178.135,-59.6028 169.9,-66.2696 175.855,-69.9495"/>
</g>
<!-- Node0x3aaa7fa0 -->
<g id="node7" class="node"><title>Node0x3aaa7fa0</title>
<polygon fill="none" stroke="black" points="246.5,-353.5 246.5,-391.5 351.5,-391.5 351.5,-353.5 246.5,-353.5"/>
<text text-anchor="start" x="254.5" y="-376.3" font-family="Times,serif" font-size="14.00">if (v5 &lt;= 4):</text>
<text text-anchor="start" x="254.5" y="-361.3" font-family="Times,serif" font-size="14.00"> else:</text>
</g>
<!-- Node0x3aaa4dd0&#45;&gt;Node0x3aaa7fa0 -->
<g id="edge6" class="edge"><title>Node0x3aaa4dd0&#45;&gt;Node0x3aaa7fa0</title>
<path fill="none" stroke="black" d="M289.835,-572.372C291.578,-534.557 295.612,-447.026 297.698,-401.755"/>
<polygon fill="black" stroke="black" points="301.196,-401.88 298.16,-391.729 294.203,-401.557 301.196,-401.88"/>
</g>
<!-- Node0x3aaa9af0 -->
<g id="node8" class="node"><title>Node0x3aaa9af0</title>
<polygon fill="none" stroke="black" points="189,-263.5 189,-301.5 333,-301.5 333,-263.5 189,-263.5"/>
<text text-anchor="start" x="197" y="-286.3" font-family="Times,serif" font-size="14.00">0x4363ef:</text>
<text text-anchor="start" x="197" y="-271.3" font-family="Times,serif" font-size="14.00"> Value = 4416325</text>
</g>
<!-- Node0x3aaa7fa0&#45;&gt;Node0x3aaa9af0 -->
<g id="edge7" class="edge"><title>Node0x3aaa7fa0&#45;&gt;Node0x3aaa9af0</title>
<path fill="none" stroke="black" d="M291.126,-353.266C285.878,-341.113 278.882,-324.911 272.952,-311.179"/>
<polygon fill="black" stroke="black" points="276.041,-309.503 268.864,-301.71 269.615,-312.278 276.041,-309.503"/>
<text text-anchor="middle" x="313" y="-323.8" font-family="Times,serif" font-size="14.00">v5 &lt;= 4</text>
</g>
<!-- Node0x3a8ed710 -->
<g id="node9" class="node"><title>Node0x3a8ed710</title>
<polygon fill="none" stroke="black" points="351,-264.5 351,-300.5 547,-300.5 547,-264.5 351,-264.5"/>
<text text-anchor="start" x="359" y="-278.8" font-family="Times,serif" font-size="14.00">Value = function_4363aa</text>
</g>
<!-- Node0x3aaa7fa0&#45;&gt;Node0x3a8ed710 -->
<g id="edge8" class="edge"><title>Node0x3aaa7fa0&#45;&gt;Node0x3a8ed710</title>
<path fill="none" stroke="black" d="M329.717,-353.48C353.229,-339.686 385.786,-320.585 410.948,-305.824"/>
<polygon fill="black" stroke="black" points="412.999,-308.678 419.853,-300.599 409.457,-302.641 412.999,-308.678"/>
<text text-anchor="middle" x="406" y="-323.8" font-family="Times,serif" font-size="14.00">v5 &gt; 4</text>
</g>
<!-- Node0x3aaa97a0 -->
<g id="node10" class="node"><title>Node0x3aaa97a0</title>
<polygon fill="none" stroke="black" points="170,-97.5 170,-225.5 454,-225.5 454,-97.5 170,-97.5"/>
<text text-anchor="start" x="178" y="-210.3" font-family="Times,serif" font-size="14.00">0x4363f4:</text>
<text text-anchor="start" x="178" y="-195.3" font-family="Times,serif" font-size="14.00"> g2 = Value</text>
<text text-anchor="start" x="178" y="-180.3" font-family="Times,serif" font-size="14.00"> InterlockedExchange(&amp;(g31), Value)</text>
<text text-anchor="start" x="178" y="-165.3" font-family="Times,serif" font-size="14.00"> function_4363ae()</text>
<text text-anchor="start" x="178" y="-150.3" font-family="Times,serif" font-size="14.00"> g5 = (g3 ^ v3)</text>
<text text-anchor="start" x="178" y="-135.3" font-family="Times,serif" font-size="14.00"> function_4201ce(&amp;(g31))</text>
<text text-anchor="start" x="178" y="-120.3" font-family="Times,serif" font-size="14.00"> g3 = v1</text>
<text text-anchor="start" x="178" y="-105.3" font-family="Times,serif" font-size="14.00"> return 0</text>
</g>
<!-- Node0x3aaa9af0&#45;&gt;Node0x3aaa97a0 -->
<g id="edge9" class="edge"><title>Node0x3aaa9af0&#45;&gt;Node0x3aaa97a0</title>
<path fill="none" stroke="black" d="M268.746,-263.426C272.173,-255.431 276.449,-245.453 280.968,-234.908"/>
<polygon fill="black" stroke="black" points="284.265,-236.1 284.987,-225.529 277.831,-233.342 284.265,-236.1"/>
</g>
<!-- Node0x3a8ed710&#45;&gt;Node0x3aaa97a0 -->
<g id="edge10" class="edge"><title>Node0x3a8ed710&#45;&gt;Node0x3aaa97a0</title>
<path fill="none" stroke="black" d="M429.371,-264.45C419.258,-255.666 406.179,-244.305 392.439,-232.371"/>
<polygon fill="black" stroke="black" points="394.598,-229.609 384.753,-225.694 390.007,-234.894 394.598,-229.609"/>
</g>
<!-- Node0x3aaa97a0&#45;&gt;Node0x3aaa6ec0 -->
<g id="edge11" class="edge"><title>Node0x3aaa97a0&#45;&gt;Node0x3aaa6ec0</title>
<path fill="none" stroke="black" d="M246.714,-97.3546C235.472,-86.4811 224.425,-75.7963 215.11,-66.7872"/>
<polygon fill="black" stroke="black" points="217.349,-64.0829 207.728,-59.6464 212.482,-69.1144 217.349,-64.0829"/>
</g>
</g>
</svg>
