<?xml version="1.0" encoding="UTF-8" standalone="no"?>
<!DOCTYPE svg PUBLIC "-//W3C//DTD SVG 1.1//EN"
 "http://www.w3.org/Graphics/SVG/1.1/DTD/svg11.dtd">
<!-- Generated by graphviz version 2.38.0 (20140413.2041)
 -->
<!-- Title: Control&#45;flow graph for function &#39;function_40add0(a1)&#39;. Pages: 1 -->
<svg width="574pt" height="567pt"
 viewBox="0.00 0.00 573.50 567.00" xmlns="http://www.w3.org/2000/svg" xmlns:xlink="http://www.w3.org/1999/xlink">
<g id="graph0" class="graph" transform="scale(1 1) rotate(0) translate(4 563)">
<title>Control&#45;flow graph for function &#39;function_40add0(a1)&#39;.</title>
<polygon fill="white" stroke="none" points="-4,4 -4,-563 569.5,-563 569.5,4 -4,4"/>
<text text-anchor="middle" x="282.75" y="-7.8" font-family="Times,serif" font-size="14.00">Control&#45;flow graph for function &#39;function_40add0(a1)&#39;.</text>
<!-- Node0x13e27b50 -->
<g id="node1" class="node"><title>Node0x13e27b50</title>
<polygon fill="none" stroke="black" points="317.5,-520.5 317.5,-558.5 376.5,-558.5 376.5,-520.5 317.5,-520.5"/>
<text text-anchor="start" x="325.5" y="-543.3" font-family="Times,serif" font-size="14.00">entry:</text>
<text text-anchor="start" x="325.5" y="-528.3" font-family="Times,serif" font-size="14.00"> a1</text>
</g>
<!-- Node0x75f3cc00 -->
<g id="node2" class="node"><title>Node0x75f3cc00</title>
<polygon fill="none" stroke="black" points="187,-354.5 187,-482.5 507,-482.5 507,-354.5 187,-354.5"/>
<text text-anchor="start" x="195" y="-467.3" font-family="Times,serif" font-size="14.00">0x40add0:</text>
<text text-anchor="start" x="195" y="-452.3" font-family="Times,serif" font-size="14.00"> __EH_prolog3()</text>
<text text-anchor="start" x="195" y="-437.3" font-family="Times,serif" font-size="14.00"> v1 = g3</text>
<text text-anchor="start" x="195" y="-422.3" font-family="Times,serif" font-size="14.00"> v2 = *(IntToPtrCastExpr&lt;ptr&gt;((v1 + 8)))</text>
<text text-anchor="start" x="195" y="-407.3" font-family="Times,serif" font-size="14.00"> g5 = v2</text>
<text text-anchor="start" x="195" y="-392.3" font-family="Times,serif" font-size="14.00"> *(IntToPtrCastExpr&lt;ptr&gt;((v1 &#45; 16))) = v2</text>
<text text-anchor="start" x="195" y="-377.3" font-family="Times,serif" font-size="14.00"> *(IntToPtrCastExpr&lt;ptr&gt;((g3 &#45; 4))) = 0</text>
<text text-anchor="start" x="195" y="-362.3" font-family="Times,serif" font-size="14.00"> result</text>
</g>
<!-- Node0x13e27b50&#45;&gt;Node0x75f3cc00 -->
<g id="edge1" class="edge"><title>Node0x13e27b50&#45;&gt;Node0x75f3cc00</title>
<path fill="none" stroke="black" d="M347,-520.426C347,-512.592 347,-502.856 347,-492.546"/>
<polygon fill="black" stroke="black" points="350.5,-492.529 347,-482.529 343.5,-492.529 350.5,-492.529"/>
</g>
<!-- Node0x13e22d20 -->
<g id="node3" class="node"><title>Node0x13e22d20</title>
<polygon fill="none" stroke="black" points="297,-278.5 297,-316.5 397,-316.5 397,-278.5 297,-278.5"/>
<text text-anchor="start" x="305" y="-301.3" font-family="Times,serif" font-size="14.00">if (g5 != 0):</text>
<text text-anchor="start" x="305" y="-286.3" font-family="Times,serif" font-size="14.00"> else:</text>
</g>
<!-- Node0x75f3cc00&#45;&gt;Node0x13e22d20 -->
<g id="edge2" class="edge"><title>Node0x75f3cc00&#45;&gt;Node0x13e22d20</title>
<path fill="none" stroke="black" d="M347,-354.167C347,-344.596 347,-335.158 347,-326.848"/>
<polygon fill="black" stroke="black" points="350.5,-326.658 347,-316.659 343.5,-326.659 350.5,-326.658"/>
</g>
<!-- Node0x13e2b530 -->
<g id="node4" class="node"><title>Node0x13e2b530</title>
<polygon fill="none" stroke="black" points="0,-188.5 0,-226.5 404,-226.5 404,-188.5 0,-188.5"/>
<text text-anchor="start" x="8" y="-211.3" font-family="Times,serif" font-size="14.00">0x40adea:</text>
<text text-anchor="start" x="8" y="-196.3" font-family="Times,serif" font-size="14.00"> result = function_409d5f(IntToPtrCastExpr&lt;ptr&gt;(4))</text>
</g>
<!-- Node0x13e22d20&#45;&gt;Node0x13e2b530 -->
<g id="edge3" class="edge"><title>Node0x13e22d20&#45;&gt;Node0x13e2b530</title>
<path fill="none" stroke="black" d="M317.307,-278.48C295.267,-265.103 265.002,-246.736 241.01,-232.175"/>
<polygon fill="black" stroke="black" points="242.516,-228.995 232.151,-226.799 238.884,-234.979 242.516,-228.995"/>
<text text-anchor="middle" x="311.5" y="-248.8" font-family="Times,serif" font-size="14.00">g5 != 0</text>
</g>
<!-- Node0x75f3b1d0 -->
<g id="node5" class="node"><title>Node0x75f3b1d0</title>
<polygon fill="none" stroke="black" points="422.5,-189.5 422.5,-225.5 565.5,-225.5 565.5,-189.5 422.5,-189.5"/>
<text text-anchor="start" x="430.5" y="-203.8" font-family="Times,serif" font-size="14.00">result = 4418720</text>
</g>
<!-- Node0x13e22d20&#45;&gt;Node0x75f3b1d0 -->
<g id="edge4" class="edge"><title>Node0x13e22d20&#45;&gt;Node0x75f3b1d0</title>
<path fill="none" stroke="black" d="M377.102,-278.48C400.144,-264.686 432.051,-245.585 456.709,-230.824"/>
<polygon fill="black" stroke="black" points="458.654,-233.739 465.436,-225.599 455.058,-227.733 458.654,-233.739"/>
<text text-anchor="middle" x="460.5" y="-248.8" font-family="Times,serif" font-size="14.00">g5 == 0</text>
</g>
<!-- Node0xeae41f0 -->
<g id="node6" class="node"><title>Node0xeae41f0</title>
<polygon fill="none" stroke="black" points="316,-97.5 316,-150.5 446,-150.5 446,-97.5 316,-97.5"/>
<text text-anchor="start" x="324" y="-135.3" font-family="Times,serif" font-size="14.00">0x40adef:</text>
<text text-anchor="start" x="324" y="-120.3" font-family="Times,serif" font-size="14.00"> __EH_epilog3()</text>
<text text-anchor="start" x="324" y="-105.3" font-family="Times,serif" font-size="14.00"> return result</text>
</g>
<!-- Node0x13e2b530&#45;&gt;Node0xeae41f0 -->
<g id="edge5" class="edge"><title>Node0x13e2b530&#45;&gt;Node0xeae41f0</title>
<path fill="none" stroke="black" d="M241.726,-188.413C263.371,-178.557 290.711,-166.109 315.425,-154.857"/>
<polygon fill="black" stroke="black" points="317.1,-157.94 324.751,-150.611 314.199,-151.569 317.1,-157.94"/>
</g>
<!-- Node0x75f3b1d0&#45;&gt;Node0xeae41f0 -->
<g id="edge6" class="edge"><title>Node0x75f3b1d0&#45;&gt;Node0xeae41f0</title>
<path fill="none" stroke="black" d="M470.311,-189.415C457.206,-179.963 440.497,-167.911 425.084,-156.795"/>
<polygon fill="black" stroke="black" points="426.844,-153.749 416.686,-150.738 422.749,-159.427 426.844,-153.749"/>
</g>
<!-- Node0x75f407e0 -->
<g id="node7" class="node"><title>Node0x75f407e0</title>
<polygon fill="none" stroke="black" points="354,-23.5 354,-59.5 408,-59.5 408,-23.5 354,-23.5"/>
<text text-anchor="start" x="362" y="-37.8" font-family="Times,serif" font-size="14.00">exit:</text>
</g>
<!-- Node0xeae41f0&#45;&gt;Node0x75f407e0 -->
<g id="edge7" class="edge"><title>Node0xeae41f0&#45;&gt;Node0x75f407e0</title>
<path fill="none" stroke="black" d="M381,-97.0862C381,-88.4596 381,-78.8224 381,-70.0748"/>
<polygon fill="black" stroke="black" points="384.5,-69.9735 381,-59.9735 377.5,-69.9735 384.5,-69.9735"/>
</g>
</g>
</svg>
