<?xml version="1.0" encoding="UTF-8" standalone="no"?>
<!DOCTYPE svg PUBLIC "-//W3C//DTD SVG 1.1//EN"
 "http://www.w3.org/Graphics/SVG/1.1/DTD/svg11.dtd">
<!-- Generated by graphviz version 2.38.0 (20140413.2041)
 -->
<!-- Title: Control&#45;flow graph for function &#39;function_406ca1(*a1, *a2, **a3)&#39;. Pages: 1 -->
<svg width="1007pt" height="640pt"
 viewBox="0.00 0.00 1007.00 640.00" xmlns="http://www.w3.org/2000/svg" xmlns:xlink="http://www.w3.org/1999/xlink">
<g id="graph0" class="graph" transform="scale(1 1) rotate(0) translate(4 636)">
<title>Control&#45;flow graph for function &#39;function_406ca1(*a1, *a2, **a3)&#39;.</title>
<polygon fill="white" stroke="none" points="-4,4 -4,-636 1003,-636 1003,4 -4,4"/>
<text text-anchor="middle" x="499.5" y="-7.8" font-family="Times,serif" font-size="14.00">Control&#45;flow graph for function &#39;function_406ca1(*a1, *a2, **a3)&#39;.</text>
<!-- Node0xd25bb850 -->
<g id="node1" class="node"><title>Node0xd25bb850</title>
<polygon fill="none" stroke="black" points="476,-563.5 476,-631.5 535,-631.5 535,-563.5 476,-563.5"/>
<text text-anchor="start" x="484" y="-616.3" font-family="Times,serif" font-size="14.00">entry:</text>
<text text-anchor="start" x="484" y="-601.3" font-family="Times,serif" font-size="14.00"> a1</text>
<text text-anchor="start" x="484" y="-586.3" font-family="Times,serif" font-size="14.00"> a2</text>
<text text-anchor="start" x="484" y="-571.3" font-family="Times,serif" font-size="14.00"> a3</text>
</g>
<!-- Node0xd25b92d0 -->
<g id="node2" class="node"><title>Node0xd25b92d0</title>
<polygon fill="none" stroke="black" points="289.5,-427.5 289.5,-525.5 721.5,-525.5 721.5,-427.5 289.5,-427.5"/>
<text text-anchor="start" x="297.5" y="-510.3" font-family="Times,serif" font-size="14.00">v1</text>
<text text-anchor="start" x="297.5" y="-495.3" font-family="Times,serif" font-size="14.00"> g3 = &amp;(v1)</text>
<text text-anchor="start" x="297.5" y="-480.3" font-family="Times,serif" font-size="14.00"> v2 = *(IntToPtrCastExpr&lt;ptr&gt;((function_41022a() + 4)))</text>
<text text-anchor="start" x="297.5" y="-465.3" font-family="Times,serif" font-size="14.00"> g2 = v2</text>
<text text-anchor="start" x="297.5" y="-450.3" font-family="Times,serif" font-size="14.00"> g1 = False</text>
<text text-anchor="start" x="297.5" y="-435.3" font-family="Times,serif" font-size="14.00"> g180 = (v2 == 0)</text>
</g>
<!-- Node0xd25bb850&#45;&gt;Node0xd25b92d0 -->
<g id="edge1" class="edge"><title>Node0xd25bb850&#45;&gt;Node0xd25b92d0</title>
<path fill="none" stroke="black" d="M505.5,-563.352C505.5,-554.766 505.5,-545.263 505.5,-535.8"/>
<polygon fill="black" stroke="black" points="509,-535.594 505.5,-525.594 502,-535.594 509,-535.594"/>
</g>
<!-- Node0xd25b27b0 -->
<g id="node3" class="node"><title>Node0xd25b27b0</title>
<polygon fill="none" stroke="black" points="456,-353.5 456,-389.5 555,-389.5 555,-353.5 456,-353.5"/>
<text text-anchor="start" x="464" y="-367.8" font-family="Times,serif" font-size="14.00">if (v2 != 0):</text>
</g>
<!-- Node0xd25b92d0&#45;&gt;Node0xd25b27b0 -->
<g id="edge2" class="edge"><title>Node0xd25b92d0&#45;&gt;Node0xd25b27b0</title>
<path fill="none" stroke="black" d="M505.5,-427.317C505.5,-417.893 505.5,-408.32 505.5,-399.868"/>
<polygon fill="black" stroke="black" points="509,-399.856 505.5,-389.856 502,-399.856 509,-399.856"/>
</g>
<!-- Node0xf425a10 -->
<g id="node4" class="node"><title>Node0xf425a10</title>
<polygon fill="none" stroke="black" points="47,-218.5 47,-301.5 540,-301.5 540,-218.5 47,-218.5"/>
<text text-anchor="start" x="55" y="-286.3" font-family="Times,serif" font-size="14.00">v3 = *(IntToPtrCastExpr&lt;ptr&gt;(v2))</text>
<text text-anchor="start" x="55" y="-271.3" font-family="Times,serif" font-size="14.00"> g8 = v3</text>
<text text-anchor="start" x="55" y="-256.3" font-family="Times,serif" font-size="14.00"> g5 = v2</text>
<text text-anchor="start" x="55" y="-241.3" font-family="Times,serif" font-size="14.00"> g3 = v1</text>
<text text-anchor="start" x="55" y="-226.3" font-family="Times,serif" font-size="14.00"> IntToPtrCastExpr&lt;ptr&gt;(*(IntToPtrCastExpr&lt;ptr&gt;((v3 + 152))))()</text>
</g>
<!-- Node0xd25b27b0&#45;&gt;Node0xf425a10 -->
<g id="edge3" class="edge"><title>Node0xd25b27b0&#45;&gt;Node0xf425a10</title>
<path fill="none" stroke="black" d="M472.375,-353.391C447.892,-340.745 413.356,-322.907 381.151,-306.273"/>
<polygon fill="black" stroke="black" points="382.631,-303.098 372.14,-301.618 379.418,-309.317 382.631,-303.098"/>
<text text-anchor="middle" x="458.5" y="-323.8" font-family="Times,serif" font-size="14.00">v2 != 0</text>
</g>
<!-- Node0xd25b0470 -->
<g id="node5" class="node"><title>Node0xd25b0470</title>
<polygon fill="none" stroke="black" points="0,-97.5 0,-180.5 999,-180.5 999,-97.5 0,-97.5"/>
<text text-anchor="start" x="8" y="-165.3" font-family="Times,serif" font-size="14.00">v4 = *(a2)</text>
<text text-anchor="start" x="8" y="-150.3" font-family="Times,serif" font-size="14.00"> v5 = *(a1)</text>
<text text-anchor="start" x="8" y="-135.3" font-family="Times,serif" font-size="14.00"> result = function_406b46(0, IntToPtrCastExpr&lt;ptr&gt;(ExtCastExpr&lt;int32&gt;(v5)), IntToPtrCastExpr&lt;ptr&gt;(ExtCastExpr&lt;int32&gt;(v4)), a3)</text>
<text text-anchor="start" x="8" y="-120.3" font-family="Times,serif" font-size="14.00"> g3 = v1</text>
<text text-anchor="start" x="8" y="-105.3" font-family="Times,serif" font-size="14.00"> return result</text>
</g>
<!-- Node0xd25b27b0&#45;&gt;Node0xd25b0470 -->
<g id="edge4" class="edge"><title>Node0xd25b27b0&#45;&gt;Node0xd25b0470</title>
<path fill="none" stroke="black" d="M520.205,-353.246C530.358,-340.141 542.984,-321.161 548.5,-302 558.827,-266.124 558.833,-253.875 548.5,-218 545.711,-208.319 541.328,-198.678 536.303,-189.646"/>
<polygon fill="black" stroke="black" points="539.199,-187.666 531.1,-180.836 533.172,-191.226 539.199,-187.666"/>
<text text-anchor="middle" x="586.5" y="-256.3" font-family="Times,serif" font-size="14.00">v2 == 0</text>
</g>
<!-- Node0xf425a10&#45;&gt;Node0xd25b0470 -->
<g id="edge5" class="edge"><title>Node0xf425a10&#45;&gt;Node0xd25b0470</title>
<path fill="none" stroke="black" d="M363.817,-218.38C382.03,-207.859 401.763,-196.46 420.392,-185.698"/>
<polygon fill="black" stroke="black" points="422.242,-188.672 429.15,-180.639 418.74,-182.611 422.242,-188.672"/>
</g>
<!-- Node0x18b9c110 -->
<g id="node6" class="node"><title>Node0x18b9c110</title>
<polygon fill="none" stroke="black" points="472.5,-23.5 472.5,-59.5 526.5,-59.5 526.5,-23.5 472.5,-23.5"/>
<text text-anchor="start" x="480.5" y="-37.8" font-family="Times,serif" font-size="14.00">exit:</text>
</g>
<!-- Node0xd25b0470&#45;&gt;Node0x18b9c110 -->
<g id="edge6" class="edge"><title>Node0xd25b0470&#45;&gt;Node0x18b9c110</title>
<path fill="none" stroke="black" d="M499.5,-97.4994C499.5,-88.2058 499.5,-78.537 499.5,-69.9459"/>
<polygon fill="black" stroke="black" points="503,-69.7494 499.5,-59.7494 496,-69.7494 503,-69.7494"/>
</g>
</g>
</svg>
