<?xml version="1.0" encoding="UTF-8" standalone="no"?>
<!DOCTYPE svg PUBLIC "-//W3C//DTD SVG 1.1//EN"
 "http://www.w3.org/Graphics/SVG/1.1/DTD/svg11.dtd">
<!-- Generated by graphviz version 2.38.0 (20140413.2041)
 -->
<!-- Title: Control&#45;flow graph for function &#39;function_404ecb(*a1, a2)&#39;. Pages: 1 -->
<svg width="1444pt" height="1601pt"
 viewBox="0.00 0.00 1443.50 1601.00" xmlns="http://www.w3.org/2000/svg" xmlns:xlink="http://www.w3.org/1999/xlink">
<g id="graph0" class="graph" transform="scale(1 1) rotate(0) translate(4 1597)">
<title>Control&#45;flow graph for function &#39;function_404ecb(*a1, a2)&#39;.</title>
<polygon fill="white" stroke="none" points="-4,4 -4,-1597 1439.5,-1597 1439.5,4 -4,4"/>
<text text-anchor="middle" x="717.75" y="-7.8" font-family="Times,serif" font-size="14.00">Control&#45;flow graph for function &#39;function_404ecb(*a1, a2)&#39;.</text>
<!-- Node0x11441f80 -->
<g id="node1" class="node"><title>Node0x11441f80</title>
<polygon fill="none" stroke="black" points="377,-1539.5 377,-1592.5 436,-1592.5 436,-1539.5 377,-1539.5"/>
<text text-anchor="start" x="385" y="-1577.3" font-family="Times,serif" font-size="14.00">entry:</text>
<text text-anchor="start" x="385" y="-1562.3" font-family="Times,serif" font-size="14.00"> a1</text>
<text text-anchor="start" x="385" y="-1547.3" font-family="Times,serif" font-size="14.00"> a2</text>
</g>
<!-- Node0x11441c40 -->
<g id="node2" class="node"><title>Node0x11441c40</title>
<polygon fill="none" stroke="black" points="122,-1238.5 122,-1501.5 691,-1501.5 691,-1238.5 122,-1238.5"/>
<text text-anchor="start" x="130" y="-1486.3" font-family="Times,serif" font-size="14.00">v1 = g9</text>
<text text-anchor="start" x="130" y="-1471.3" font-family="Times,serif" font-size="14.00"> v2 = g5</text>
<text text-anchor="start" x="130" y="-1456.3" font-family="Times,serif" font-size="14.00"> g9 = v2</text>
<text text-anchor="start" x="130" y="-1441.3" font-family="Times,serif" font-size="14.00"> result = *(IntToPtrCastExpr&lt;ptr&gt;(v2))</text>
<text text-anchor="start" x="130" y="-1426.3" font-family="Times,serif" font-size="14.00"> v3 = g7</text>
<text text-anchor="start" x="130" y="-1411.3" font-family="Times,serif" font-size="14.00"> g7 = 0</text>
<text text-anchor="start" x="130" y="-1396.3" font-family="Times,serif" font-size="14.00"> g1 = False</text>
<text text-anchor="start" x="130" y="-1381.3" font-family="Times,serif" font-size="14.00"> g180 = (a1 == NULL)</text>
<text text-anchor="start" x="130" y="-1366.3" font-family="Times,serif" font-size="14.00"> v4 = (a1 != NULL)</text>
<text text-anchor="start" x="130" y="-1351.3" font-family="Times,serif" font-size="14.00"> v5 = v4</text>
<text text-anchor="start" x="130" y="-1336.3" font-family="Times,serif" font-size="14.00"> g10 = &amp;(v5)</text>
<text text-anchor="start" x="130" y="-1321.3" font-family="Times,serif" font-size="14.00"> g5 = v2</text>
<text text-anchor="start" x="130" y="-1306.3" font-family="Times,serif" font-size="14.00"> IntToPtrCastExpr&lt;ptr&gt;(*(IntToPtrCastExpr&lt;ptr&gt;((result + 4))))(v4, v3, v1)</text>
<text text-anchor="start" x="130" y="-1291.3" font-family="Times,serif" font-size="14.00"> v6 = g9</text>
<text text-anchor="start" x="130" y="-1276.3" font-family="Times,serif" font-size="14.00"> v7 = g7</text>
<text text-anchor="start" x="130" y="-1261.3" font-family="Times,serif" font-size="14.00"> v8</text>
<text text-anchor="start" x="130" y="-1246.3" font-family="Times,serif" font-size="14.00"> v9</text>
</g>
<!-- Node0x11441f80&#45;&gt;Node0x11441c40 -->
<g id="edge1" class="edge"><title>Node0x11441f80&#45;&gt;Node0x11441c40</title>
<path fill="none" stroke="black" d="M406.5,-1539.24C406.5,-1531.27 406.5,-1521.88 406.5,-1511.66"/>
<polygon fill="black" stroke="black" points="410,-1511.64 406.5,-1501.64 403,-1511.64 410,-1511.64"/>
</g>
<!-- Node0x11444c50 -->
<g id="node3" class="node"><title>Node0x11444c50</title>
<polygon fill="none" stroke="black" points="45.5,-1164.5 45.5,-1200.5 767.5,-1200.5 767.5,-1164.5 45.5,-1164.5"/>
<text text-anchor="start" x="53.5" y="-1178.8" font-family="Times,serif" font-size="14.00">if ((*(IntToPtrCastExpr&lt;ptr&gt;((v6 + 12))) == v7) or (*(IntToPtrCastExpr&lt;ptr&gt;((v6 + 16))) != v7)):</text>
</g>
<!-- Node0x11441c40&#45;&gt;Node0x11444c50 -->
<g id="edge2" class="edge"><title>Node0x11441c40&#45;&gt;Node0x11444c50</title>
<path fill="none" stroke="black" d="M406.5,-1238.4C406.5,-1228.31 406.5,-1218.93 406.5,-1210.89"/>
<polygon fill="black" stroke="black" points="410,-1210.81 406.5,-1200.81 403,-1210.81 410,-1210.81"/>
</g>
<!-- Node0x11445b40 -->
<g id="node4" class="node"><title>Node0x11445b40</title>
<polygon fill="none" stroke="black" points="0,-987.5 0,-1055.5 113,-1055.5 113,-987.5 0,-987.5"/>
<text text-anchor="start" x="8" y="-1040.3" font-family="Times,serif" font-size="14.00">0x404f29:</text>
<text text-anchor="start" x="8" y="-1025.3" font-family="Times,serif" font-size="14.00"> g7 = v9</text>
<text text-anchor="start" x="8" y="-1010.3" font-family="Times,serif" font-size="14.00"> g9 = v8</text>
<text text-anchor="start" x="8" y="-995.3" font-family="Times,serif" font-size="14.00"> return result</text>
</g>
<!-- Node0x11444c50&#45;&gt;Node0x11445b40 -->
<g id="edge3" class="edge"><title>Node0x11444c50&#45;&gt;Node0x11445b40</title>
<path fill="none" stroke="black" d="M124.286,-1164.48C87.6933,-1159.68 60.3948,-1153.62 53.5,-1146 34.2369,-1124.7 35.9446,-1091.9 41.9562,-1065.45"/>
<polygon fill="black" stroke="black" points="45.3728,-1066.22 44.4362,-1055.66 38.5872,-1064.5 45.3728,-1066.22"/>
<text text-anchor="middle" x="392" y="-1134.8" font-family="Times,serif" font-size="14.00">(*(IntToPtrCastExpr&lt;ptr&gt;((v6 + 12))) == v7) or (*(IntToPtrCastExpr&lt;ptr&gt;((v6 + 16))) != v7)</text>
</g>
<!-- Node0x114450e0 -->
<g id="node5" class="node"><title>Node0x114450e0</title>
<polygon fill="none" stroke="black" points="595,-1074.5 595,-1112.5 918,-1112.5 918,-1074.5 595,-1074.5"/>
<text text-anchor="start" x="603" y="-1097.3" font-family="Times,serif" font-size="14.00">v10 = *(IntToPtrCastExpr&lt;ptr&gt;((v6 + 8)))</text>
<text text-anchor="start" x="603" y="-1082.3" font-family="Times,serif" font-size="14.00"> g2 = v10</text>
</g>
<!-- Node0x11444c50&#45;&gt;Node0x114450e0 -->
<g id="edge4" class="edge"><title>Node0x11444c50&#45;&gt;Node0x114450e0</title>
<path fill="none" stroke="black" d="M686.897,-1164.46C707.48,-1159.67 724.201,-1153.63 734.5,-1146 742.22,-1140.28 747.259,-1131.31 750.535,-1122.44"/>
<polygon fill="black" stroke="black" points="753.95,-1123.24 753.534,-1112.65 747.258,-1121.19 753.95,-1123.24"/>
<text text-anchor="middle" x="1091.5" y="-1134.8" font-family="Times,serif" font-size="14.00">(*(IntToPtrCastExpr&lt;ptr&gt;((v6 + 12))) != v7) and (*(IntToPtrCastExpr&lt;ptr&gt;((v6 + 16))) == v7)</text>
</g>
<!-- Node0x11444650 -->
<g id="node6" class="node"><title>Node0x11444650</title>
<polygon fill="none" stroke="black" points="111.5,-23.5 111.5,-59.5 165.5,-59.5 165.5,-23.5 111.5,-23.5"/>
<text text-anchor="start" x="119.5" y="-37.8" font-family="Times,serif" font-size="14.00">exit:</text>
</g>
<!-- Node0x11445b40&#45;&gt;Node0x11444650 -->
<g id="edge5" class="edge"><title>Node0x11445b40&#45;&gt;Node0x11444650</title>
<path fill="none" stroke="black" d="M56.5,-987.372C56.5,-964.849 56.5,-934.377 56.5,-907.5 56.5,-907.5 56.5,-907.5 56.5,-130.5 56.5,-101.557 80.5364,-78.1586 102.582,-62.7854"/>
<polygon fill="black" stroke="black" points="104.782,-65.5268 111.195,-57.0934 100.923,-59.6869 104.782,-65.5268"/>
</g>
<!-- Node0x114451d0 -->
<g id="node7" class="node"><title>Node0x114451d0</title>
<polygon fill="none" stroke="black" points="569.5,-932.5 569.5,-968.5 943.5,-968.5 943.5,-932.5 569.5,-932.5"/>
<text text-anchor="start" x="577.5" y="-946.8" font-family="Times,serif" font-size="14.00">if (v10 &gt;= *(IntToPtrCastExpr&lt;ptr&gt;((v6 + 32)))):</text>
</g>
<!-- Node0x114450e0&#45;&gt;Node0x114451d0 -->
<g id="edge6" class="edge"><title>Node0x114450e0&#45;&gt;Node0x114451d0</title>
<path fill="none" stroke="black" d="M756.5,-1074.36C756.5,-1050.19 756.5,-1007.23 756.5,-979.053"/>
<polygon fill="black" stroke="black" points="760,-978.692 756.5,-968.692 753,-978.692 760,-978.692"/>
</g>
<!-- Node0x11445140 -->
<g id="node8" class="node"><title>Node0x11445140</title>
<polygon fill="none" stroke="black" points="351.5,-842.5 351.5,-880.5 687.5,-880.5 687.5,-842.5 351.5,-842.5"/>
<text text-anchor="start" x="359.5" y="-865.3" font-family="Times,serif" font-size="14.00">0x404ef4:</text>
<text text-anchor="start" x="359.5" y="-850.3" font-family="Times,serif" font-size="14.00"> function_40ede0(BitCastExpr&lt;ptr&gt;(&amp;(v5)))</text>
</g>
<!-- Node0x114451d0&#45;&gt;Node0x11445140 -->
<g id="edge7" class="edge"><title>Node0x114451d0&#45;&gt;Node0x11445140</title>
<path fill="none" stroke="black" d="M569.235,-942.908C530.946,-937.574 498.371,-928.667 485.5,-914 478.575,-906.108 481.934,-896.712 488.719,-888.119"/>
<polygon fill="black" stroke="black" points="491.517,-890.247 495.716,-880.519 486.368,-885.505 491.517,-890.247"/>
<text text-anchor="middle" x="649.5" y="-902.8" font-family="Times,serif" font-size="14.00">v10 &gt;= *(IntToPtrCastExpr&lt;ptr&gt;((v6 + 32)))</text>
</g>
<!-- Node0x11445940 -->
<g id="node9" class="node"><title>Node0x11445940</title>
<polygon fill="none" stroke="black" points="502.5,-721.5 502.5,-804.5 590.5,-804.5 590.5,-721.5 502.5,-721.5"/>
<text text-anchor="start" x="510.5" y="-789.3" font-family="Times,serif" font-size="14.00">0x404ef9:</text>
<text text-anchor="start" x="510.5" y="-774.3" font-family="Times,serif" font-size="14.00"> result2</text>
<text text-anchor="start" x="510.5" y="-759.3" font-family="Times,serif" font-size="14.00"> v11</text>
<text text-anchor="start" x="510.5" y="-744.3" font-family="Times,serif" font-size="14.00"> v12</text>
<text text-anchor="start" x="510.5" y="-729.3" font-family="Times,serif" font-size="14.00"> v13</text>
</g>
<!-- Node0x114451d0&#45;&gt;Node0x11445940 -->
<g id="edge8" class="edge"><title>Node0x114451d0&#45;&gt;Node0x11445940</title>
<path fill="none" stroke="black" d="M796.204,-932.431C810.583,-923.657 821.534,-912.064 813.5,-899 767.141,-823.611 664.217,-788.773 600.559,-773.903"/>
<polygon fill="black" stroke="black" points="601.219,-770.464 590.694,-771.684 599.683,-777.293 601.219,-770.464"/>
<text text-anchor="middle" x="959.5" y="-857.8" font-family="Times,serif" font-size="14.00">v10 &lt; *(IntToPtrCastExpr&lt;ptr&gt;((v6 + 32)))</text>
</g>
<!-- Node0x11445140&#45;&gt;Node0x11445940 -->
<g id="edge9" class="edge"><title>Node0x11445140&#45;&gt;Node0x11445940</title>
<path fill="none" stroke="black" d="M524.578,-842.349C526.801,-834.405 529.531,-824.649 532.3,-814.752"/>
<polygon fill="black" stroke="black" points="535.741,-815.443 535.065,-804.87 529,-813.557 535.741,-815.443"/>
</g>
<!-- Node0x114459a0 -->
<g id="node10" class="node"><title>Node0x114459a0</title>
<polygon fill="none" stroke="black" points="480,-645.5 480,-683.5 613,-683.5 613,-645.5 480,-645.5"/>
<text text-anchor="start" x="488" y="-668.3" font-family="Times,serif" font-size="14.00">if (g127 == g7):</text>
<text text-anchor="start" x="488" y="-653.3" font-family="Times,serif" font-size="14.00"> else:</text>
</g>
<!-- Node0x11445940&#45;&gt;Node0x114459a0 -->
<g id="edge10" class="edge"><title>Node0x11445940&#45;&gt;Node0x114459a0</title>
<path fill="none" stroke="black" d="M546.5,-721.355C546.5,-712.083 546.5,-702.427 546.5,-693.803"/>
<polygon fill="black" stroke="black" points="550,-693.538 546.5,-683.538 543,-693.538 550,-693.538"/>
</g>
<!-- Node0x11440ec0 -->
<g id="node11" class="node"><title>Node0x11440ec0</title>
<polygon fill="none" stroke="black" points="299.5,-557.5 299.5,-593.5 537.5,-593.5 537.5,-557.5 299.5,-557.5"/>
<text text-anchor="start" x="307.5" y="-571.8" font-family="Times,serif" font-size="14.00">v14 = function_404dcd(v5, v3)</text>
</g>
<!-- Node0x114459a0&#45;&gt;Node0x11440ec0 -->
<g id="edge11" class="edge"><title>Node0x114459a0&#45;&gt;Node0x11440ec0</title>
<path fill="none" stroke="black" d="M507.17,-645.493C496.579,-640.057 485.338,-633.73 475.5,-627 464.134,-619.225 452.581,-609.418 442.875,-600.518"/>
<polygon fill="black" stroke="black" points="445.216,-597.915 435.526,-593.632 440.43,-603.023 445.216,-597.915"/>
<text text-anchor="middle" x="519.5" y="-615.8" font-family="Times,serif" font-size="14.00">g127 == g7</text>
</g>
<!-- Node0x11440ff0 -->
<g id="node12" class="node"><title>Node0x11440ff0</title>
<polygon fill="none" stroke="black" points="423.5,-425.5 423.5,-538.5 769.5,-538.5 769.5,-425.5 423.5,-425.5"/>
<text text-anchor="start" x="431.5" y="-523.3" font-family="Times,serif" font-size="14.00">0x404f0e:</text>
<text text-anchor="start" x="431.5" y="-508.3" font-family="Times,serif" font-size="14.00"> v12 = g9</text>
<text text-anchor="start" x="431.5" y="-493.3" font-family="Times,serif" font-size="14.00"> v13 = *(IntToPtrCastExpr&lt;ptr&gt;((v12 + 12)))</text>
<text text-anchor="start" x="431.5" y="-478.3" font-family="Times,serif" font-size="14.00"> v9 = *(IntToPtrCastExpr&lt;ptr&gt;((v13 + 4)))</text>
<text text-anchor="start" x="431.5" y="-463.3" font-family="Times,serif" font-size="14.00"> SetMenuItemBitmaps()</text>
<text text-anchor="start" x="431.5" y="-448.3" font-family="Times,serif" font-size="14.00"> v11 = *(IntToPtrCastExpr&lt;ptr&gt;((v12 + 8)))</text>
<text text-anchor="start" x="431.5" y="-433.3" font-family="Times,serif" font-size="14.00"> result2 = v13</text>
</g>
<!-- Node0x114459a0&#45;&gt;Node0x11440ff0 -->
<g id="edge12" class="edge"><title>Node0x114459a0&#45;&gt;Node0x11440ff0</title>
<path fill="none" stroke="black" d="M555.921,-645.243C558.63,-639.508 561.413,-633.083 563.5,-627 572.097,-601.947 579.129,-573.673 584.458,-548.854"/>
<polygon fill="black" stroke="black" points="587.938,-549.315 586.564,-538.81 581.086,-547.879 587.938,-549.315"/>
<text text-anchor="middle" x="609.5" y="-615.8" font-family="Times,serif" font-size="14.00">g127 != g7</text>
</g>
<!-- Node0x11440f20 -->
<g id="node13" class="node"><title>Node0x11440f20</title>
<polygon fill="none" stroke="black" points="345,-368.5 345,-406.5 472,-406.5 472,-368.5 345,-368.5"/>
<text text-anchor="start" x="353" y="-391.3" font-family="Times,serif" font-size="14.00">if (g127 != g7):</text>
<text text-anchor="start" x="353" y="-376.3" font-family="Times,serif" font-size="14.00"> else:</text>
</g>
<!-- Node0x11440ec0&#45;&gt;Node0x11440f20 -->
<g id="edge13" class="edge"><title>Node0x11440ec0&#45;&gt;Node0x11440f20</title>
<path fill="none" stroke="black" d="M417.577,-557.335C415.854,-525.275 412.13,-456.012 410.027,-416.894"/>
<polygon fill="black" stroke="black" points="413.511,-416.513 409.479,-406.716 406.521,-416.889 413.511,-416.513"/>
</g>
<!-- Node0x11445a70 -->
<g id="node14" class="node"><title>Node0x11445a70</title>
<polygon fill="none" stroke="black" points="299.5,-97.5 299.5,-165.5 421.5,-165.5 421.5,-97.5 299.5,-97.5"/>
<text text-anchor="start" x="307.5" y="-150.3" font-family="Times,serif" font-size="14.00">0x404f29:</text>
<text text-anchor="start" x="307.5" y="-135.3" font-family="Times,serif" font-size="14.00"> g7 = v9</text>
<text text-anchor="start" x="307.5" y="-120.3" font-family="Times,serif" font-size="14.00"> g9 = v11</text>
<text text-anchor="start" x="307.5" y="-105.3" font-family="Times,serif" font-size="14.00"> return result2</text>
</g>
<!-- Node0x11440ff0&#45;&gt;Node0x11445a70 -->
<g id="edge14" class="edge"><title>Node0x11440ff0&#45;&gt;Node0x11445a70</title>
<path fill="none" stroke="black" d="M609.214,-425.267C619.715,-364.09 625.9,-266.185 576.5,-203 542.362,-159.336 480.63,-142.365 431.878,-135.939"/>
<polygon fill="black" stroke="black" points="432.031,-132.432 421.686,-134.722 431.201,-139.383 432.031,-132.432"/>
</g>
<!-- Node0x11441050 -->
<g id="node15" class="node"><title>Node0x11441050</title>
<polygon fill="none" stroke="black" points="84.5,-203.5 84.5,-316.5 430.5,-316.5 430.5,-203.5 84.5,-203.5"/>
<text text-anchor="start" x="92.5" y="-301.3" font-family="Times,serif" font-size="14.00">0x404f0e:</text>
<text text-anchor="start" x="92.5" y="-286.3" font-family="Times,serif" font-size="14.00"> v12 = g9</text>
<text text-anchor="start" x="92.5" y="-271.3" font-family="Times,serif" font-size="14.00"> v13 = *(IntToPtrCastExpr&lt;ptr&gt;((v12 + 12)))</text>
<text text-anchor="start" x="92.5" y="-256.3" font-family="Times,serif" font-size="14.00"> v9 = *(IntToPtrCastExpr&lt;ptr&gt;((v13 + 4)))</text>
<text text-anchor="start" x="92.5" y="-241.3" font-family="Times,serif" font-size="14.00"> SetMenuItemBitmaps()</text>
<text text-anchor="start" x="92.5" y="-226.3" font-family="Times,serif" font-size="14.00"> v11 = *(IntToPtrCastExpr&lt;ptr&gt;((v12 + 8)))</text>
<text text-anchor="start" x="92.5" y="-211.3" font-family="Times,serif" font-size="14.00"> result2 = v13</text>
</g>
<!-- Node0x11440f20&#45;&gt;Node0x11441050 -->
<g id="edge15" class="edge"><title>Node0x11440f20&#45;&gt;Node0x11441050</title>
<path fill="none" stroke="black" d="M378.763,-368.494C370.079,-362.872 360.718,-356.447 352.5,-350 341.983,-341.75 331.255,-332.561 320.975,-323.308"/>
<polygon fill="black" stroke="black" points="323.328,-320.717 313.578,-316.572 318.615,-325.892 323.328,-320.717"/>
<text text-anchor="middle" x="393.5" y="-338.8" font-family="Times,serif" font-size="14.00">g127 != g7</text>
</g>
<!-- Node0x11445e60 -->
<g id="node16" class="node"><title>Node0x11445e60</title>
<polygon fill="none" stroke="black" points="449,-241 449,-279 568,-279 568,-241 449,-241"/>
<text text-anchor="start" x="457" y="-263.8" font-family="Times,serif" font-size="14.00">v11 = v8</text>
<text text-anchor="start" x="457" y="-248.8" font-family="Times,serif" font-size="14.00"> result2 = v14</text>
</g>
<!-- Node0x11440f20&#45;&gt;Node0x11445e60 -->
<g id="edge16" class="edge"><title>Node0x11440f20&#45;&gt;Node0x11445e60</title>
<path fill="none" stroke="black" d="M423.041,-368.251C440.001,-346.967 468.174,-311.609 487.506,-287.348"/>
<polygon fill="black" stroke="black" points="490.447,-289.273 493.942,-279.271 484.973,-284.911 490.447,-289.273"/>
<text text-anchor="middle" x="491.5" y="-338.8" font-family="Times,serif" font-size="14.00">g127 == g7</text>
</g>
<!-- Node0x11445a70&#45;&gt;Node0x11444650 -->
<g id="edge17" class="edge"><title>Node0x11445a70&#45;&gt;Node0x11444650</title>
<path fill="none" stroke="black" d="M299.25,-106.221C259.417,-90.4312 208.808,-70.3699 175.124,-57.0177"/>
<polygon fill="black" stroke="black" points="176.256,-53.7016 165.67,-53.2702 173.677,-60.209 176.256,-53.7016"/>
</g>
<!-- Node0x11441050&#45;&gt;Node0x11445a70 -->
<g id="edge18" class="edge"><title>Node0x11441050&#45;&gt;Node0x11445a70</title>
<path fill="none" stroke="black" d="M302.977,-203.147C311.145,-193.116 319.518,-182.833 327.258,-173.326"/>
<polygon fill="black" stroke="black" points="329.994,-175.51 333.594,-165.545 324.565,-171.09 329.994,-175.51"/>
</g>
<!-- Node0x11445e60&#45;&gt;Node0x11445a70 -->
<g id="edge19" class="edge"><title>Node0x11445e60&#45;&gt;Node0x11445a70</title>
<path fill="none" stroke="black" d="M487.295,-240.876C466.417,-223.03 433.839,-195.185 406.933,-172.188"/>
<polygon fill="black" stroke="black" points="409.024,-169.371 399.148,-165.534 404.476,-174.692 409.024,-169.371"/>
</g>
</g>
</svg>
