<?xml version="1.0" encoding="UTF-8" standalone="no"?>
<!DOCTYPE svg PUBLIC "-//W3C//DTD SVG 1.1//EN"
 "http://www.w3.org/Graphics/SVG/1.1/DTD/svg11.dtd">
<!-- Generated by graphviz version 2.38.0 (20140413.2041)
 -->
<!-- Title: Control&#45;flow graph for function &#39;function_415647(*a1, **a2, **a3, *a4)&#39;. Pages: 1 -->
<svg width="1173pt" height="1221pt"
 viewBox="0.00 0.00 1172.50 1221.00" xmlns="http://www.w3.org/2000/svg" xmlns:xlink="http://www.w3.org/1999/xlink">
<g id="graph0" class="graph" transform="scale(1 1) rotate(0) translate(4 1217)">
<title>Control&#45;flow graph for function &#39;function_415647(*a1, **a2, **a3, *a4)&#39;.</title>
<polygon fill="white" stroke="none" points="-4,4 -4,-1217 1168.5,-1217 1168.5,4 -4,4"/>
<text text-anchor="middle" x="582.25" y="-7.8" font-family="Times,serif" font-size="14.00">Control&#45;flow graph for function &#39;function_415647(*a1, **a2, **a3, *a4)&#39;.</text>
<!-- Node0x1ee28380 -->
<g id="node1" class="node"><title>Node0x1ee28380</title>
<polygon fill="none" stroke="black" points="186,-1129.5 186,-1212.5 245,-1212.5 245,-1129.5 186,-1129.5"/>
<text text-anchor="start" x="194" y="-1197.3" font-family="Times,serif" font-size="14.00">entry:</text>
<text text-anchor="start" x="194" y="-1182.3" font-family="Times,serif" font-size="14.00"> a1</text>
<text text-anchor="start" x="194" y="-1167.3" font-family="Times,serif" font-size="14.00"> a2</text>
<text text-anchor="start" x="194" y="-1152.3" font-family="Times,serif" font-size="14.00"> a3</text>
<text text-anchor="start" x="194" y="-1137.3" font-family="Times,serif" font-size="14.00"> a4</text>
</g>
<!-- Node0x1ee288d0 -->
<g id="node2" class="node"><title>Node0x1ee288d0</title>
<polygon fill="none" stroke="black" points="146.5,-1053.5 146.5,-1091.5 284.5,-1091.5 284.5,-1053.5 146.5,-1053.5"/>
<text text-anchor="start" x="154.5" y="-1076.3" font-family="Times,serif" font-size="14.00">0x415647:</text>
<text text-anchor="start" x="154.5" y="-1061.3" font-family="Times,serif" font-size="14.00"> if (a3 != NULL):</text>
</g>
<!-- Node0x1ee28380&#45;&gt;Node0x1ee288d0 -->
<g id="edge1" class="edge"><title>Node0x1ee28380&#45;&gt;Node0x1ee288d0</title>
<path fill="none" stroke="black" d="M215.5,-1129.35C215.5,-1120.08 215.5,-1110.43 215.5,-1101.8"/>
<polygon fill="black" stroke="black" points="219,-1101.54 215.5,-1091.54 212,-1101.54 219,-1101.54"/>
</g>
<!-- Node0x1ee29050 -->
<g id="node3" class="node"><title>Node0x1ee29050</title>
<polygon fill="none" stroke="black" points="0,-963.5 0,-1001.5 231,-1001.5 231,-963.5 0,-963.5"/>
<text text-anchor="start" x="8" y="-986.3" font-family="Times,serif" font-size="14.00">0x41564f:</text>
<text text-anchor="start" x="8" y="-971.3" font-family="Times,serif" font-size="14.00"> *(BitCastExpr&lt;ptr&gt;(a3)) = 0</text>
</g>
<!-- Node0x1ee288d0&#45;&gt;Node0x1ee29050 -->
<g id="edge2" class="edge"><title>Node0x1ee288d0&#45;&gt;Node0x1ee29050</title>
<path fill="none" stroke="black" d="M188.904,-1053.36C181.149,-1047.74 172.801,-1041.34 165.5,-1035 156.426,-1027.12 147.09,-1017.86 138.979,-1009.39"/>
<polygon fill="black" stroke="black" points="141.32,-1006.77 131.917,-1001.89 136.224,-1011.57 141.32,-1006.77"/>
<text text-anchor="middle" x="209.5" y="-1023.8" font-family="Times,serif" font-size="14.00">a3 != NULL</text>
</g>
<!-- Node0x1ee28af0 -->
<g id="node4" class="node"><title>Node0x1ee28af0</title>
<polygon fill="none" stroke="black" points="57,-889.5 57,-925.5 390,-925.5 390,-889.5 57,-889.5"/>
<text text-anchor="start" x="65" y="-903.8" font-family="Times,serif" font-size="14.00">v1 = *(IntToPtrCastExpr&lt;ptr&gt;((g5 + 148)))</text>
</g>
<!-- Node0x1ee288d0&#45;&gt;Node0x1ee28af0 -->
<g id="edge3" class="edge"><title>Node0x1ee288d0&#45;&gt;Node0x1ee28af0</title>
<path fill="none" stroke="black" d="M240.226,-1053.4C245.604,-1048.13 250.56,-1041.9 253.5,-1035 267.604,-1001.9 252.508,-960.965 239.11,-934.793"/>
<polygon fill="black" stroke="black" points="242.125,-933.011 234.308,-925.861 235.96,-936.326 242.125,-933.011"/>
<text text-anchor="middle" x="306.5" y="-978.8" font-family="Times,serif" font-size="14.00">a3 == NULL</text>
</g>
<!-- Node0x1ee29050&#45;&gt;Node0x1ee28af0 -->
<g id="edge4" class="edge"><title>Node0x1ee29050&#45;&gt;Node0x1ee28af0</title>
<path fill="none" stroke="black" d="M142.197,-963.455C156.504,-953.784 174.281,-941.768 189.561,-931.44"/>
<polygon fill="black" stroke="black" points="191.899,-934.085 198.224,-925.585 187.979,-928.285 191.899,-934.085"/>
</g>
<!-- Node0x23a8e940 -->
<g id="node5" class="node"><title>Node0x23a8e940</title>
<polygon fill="none" stroke="black" points="171,-815.5 171,-851.5 276,-851.5 276,-815.5 171,-815.5"/>
<text text-anchor="start" x="179" y="-829.8" font-family="Times,serif" font-size="14.00">if (v1 == 0):</text>
</g>
<!-- Node0x1ee28af0&#45;&gt;Node0x23a8e940 -->
<g id="edge5" class="edge"><title>Node0x1ee28af0&#45;&gt;Node0x23a8e940</title>
<path fill="none" stroke="black" d="M223.5,-889.437C223.5,-881.307 223.5,-871.376 223.5,-862.205"/>
<polygon fill="black" stroke="black" points="227,-861.941 223.5,-851.941 220,-861.941 227,-861.941"/>
</g>
<!-- Node0x1ee28500 -->
<g id="node6" class="node"><title>Node0x1ee28500</title>
<polygon fill="none" stroke="black" points="77.5,-670.5 77.5,-708.5 169.5,-708.5 169.5,-670.5 77.5,-670.5"/>
<text text-anchor="start" x="85.5" y="-693.3" font-family="Times,serif" font-size="14.00">0x415677:</text>
<text text-anchor="start" x="85.5" y="-678.3" font-family="Times,serif" font-size="14.00"> return 0</text>
</g>
<!-- Node0x23a8e940&#45;&gt;Node0x1ee28500 -->
<g id="edge6" class="edge"><title>Node0x23a8e940&#45;&gt;Node0x1ee28500</title>
<path fill="none" stroke="black" d="M211.438,-815.371C194.207,-790.905 162.396,-745.732 142.127,-716.95"/>
<polygon fill="black" stroke="black" points="144.855,-714.745 136.236,-708.585 139.132,-718.776 144.855,-714.745"/>
<text text-anchor="middle" x="228.5" y="-785.8" font-family="Times,serif" font-size="14.00">v1 == 0</text>
</g>
<!-- Node0x1ee28c90 -->
<g id="node7" class="node"><title>Node0x1ee28c90</title>
<polygon fill="none" stroke="black" points="582,-727.5 582,-763.5 655,-763.5 655,-727.5 582,-727.5"/>
<text text-anchor="start" x="590" y="-741.8" font-family="Times,serif" font-size="14.00">g5 = v1</text>
</g>
<!-- Node0x23a8e940&#45;&gt;Node0x1ee28c90 -->
<g id="edge7" class="edge"><title>Node0x23a8e940&#45;&gt;Node0x1ee28c90</title>
<path fill="none" stroke="black" d="M276.362,-820.991C354.063,-804.074 497.883,-772.761 571.865,-756.654"/>
<polygon fill="black" stroke="black" points="572.8,-760.032 581.826,-754.485 571.31,-753.192 572.8,-760.032"/>
<text text-anchor="middle" x="472.5" y="-785.8" font-family="Times,serif" font-size="14.00">v1 != 0</text>
</g>
<!-- Node0x1ee28850 -->
<g id="node8" class="node"><title>Node0x1ee28850</title>
<polygon fill="none" stroke="black" points="235.5,-23.5 235.5,-59.5 289.5,-59.5 289.5,-23.5 235.5,-23.5"/>
<text text-anchor="start" x="243.5" y="-37.8" font-family="Times,serif" font-size="14.00">exit:</text>
</g>
<!-- Node0x1ee28500&#45;&gt;Node0x1ee28850 -->
<g id="edge8" class="edge"><title>Node0x1ee28500&#45;&gt;Node0x1ee28850</title>
<path fill="none" stroke="black" d="M119,-670.205C114.581,-650.614 108.5,-618.556 108.5,-590.5 108.5,-590.5 108.5,-590.5 108.5,-115.5 108.5,-64.0319 179.603,-48.8033 225.182,-44.3287"/>
<polygon fill="black" stroke="black" points="225.655,-47.8012 235.322,-43.4667 225.062,-40.8263 225.655,-47.8012"/>
</g>
<!-- Node0x1ee28f10 -->
<g id="node9" class="node"><title>Node0x1ee28f10</title>
<polygon fill="none" stroke="black" points="607,-615.5 607,-651.5 704,-651.5 704,-615.5 607,-615.5"/>
<text text-anchor="start" x="615" y="-629.8" font-family="Times,serif" font-size="14.00">while True:</text>
</g>
<!-- Node0x1ee28c90&#45;&gt;Node0x1ee28f10 -->
<g id="edge9" class="edge"><title>Node0x1ee28c90&#45;&gt;Node0x1ee28f10</title>
<path fill="none" stroke="black" d="M624.281,-727.312C630.228,-709.634 639.572,-681.854 646.489,-661.289"/>
<polygon fill="black" stroke="black" points="649.889,-662.161 649.759,-651.567 643.254,-659.929 649.889,-662.161"/>
</g>
<!-- Node0x1ee29300 -->
<g id="node10" class="node"><title>Node0x1ee29300</title>
<polygon fill="none" stroke="black" points="384.5,-525.5 384.5,-563.5 926.5,-563.5 926.5,-525.5 384.5,-525.5"/>
<text text-anchor="start" x="392.5" y="-548.3" font-family="Times,serif" font-size="14.00">0x41565a:</text>
<text text-anchor="start" x="392.5" y="-533.3" font-family="Times,serif" font-size="14.00"> if (*(IntToPtrCastExpr&lt;ptr&gt;((v1 + 8))) == ExtCastExpr&lt;int32&gt;(*(a1))):</text>
</g>
<!-- Node0x1ee28f10&#45;&gt;Node0x1ee29300 -->
<g id="edge10" class="edge"><title>Node0x1ee28f10&#45;&gt;Node0x1ee29300</title>
<path fill="none" stroke="black" d="M655.5,-615.312C655.5,-603.511 655.5,-587.572 655.5,-573.904"/>
<polygon fill="black" stroke="black" points="659,-573.551 655.5,-563.551 652,-573.551 659,-573.551"/>
<text text-anchor="middle" x="672.5" y="-585.8" font-family="Times,serif" font-size="14.00">True</text>
</g>
<!-- Node0x1ee29d50 -->
<g id="node11" class="node"><title>Node0x1ee29d50</title>
<polygon fill="none" stroke="black" points="124,-318.5 124,-416.5 401,-416.5 401,-318.5 124,-318.5"/>
<text text-anchor="start" x="132" y="-401.3" font-family="Times,serif" font-size="14.00">0x41566c:</text>
<text text-anchor="start" x="132" y="-386.3" font-family="Times,serif" font-size="14.00"> v2</text>
<text text-anchor="start" x="132" y="-371.3" font-family="Times,serif" font-size="14.00"> v3 = function_415610(v2)</text>
<text text-anchor="start" x="132" y="-356.3" font-family="Times,serif" font-size="14.00"> g5 = PtrToIntCastExpr&lt;int32&gt;(a2)</text>
<text text-anchor="start" x="132" y="-341.3" font-family="Times,serif" font-size="14.00"> *(BitCastExpr&lt;ptr&gt;(a2)) = v3</text>
<text text-anchor="start" x="132" y="-326.3" font-family="Times,serif" font-size="14.00"> return 0</text>
</g>
<!-- Node0x1ee29300&#45;&gt;Node0x1ee29d50 -->
<g id="edge11" class="edge"><title>Node0x1ee29300&#45;&gt;Node0x1ee29d50</title>
<path fill="none" stroke="black" d="M384.43,-538.827C278.948,-534.142 179.163,-524.943 162.5,-507 138.693,-481.366 158.057,-449.949 185.863,-423.521"/>
<polygon fill="black" stroke="black" points="188.462,-425.887 193.494,-416.564 183.746,-420.715 188.462,-425.887"/>
<text text-anchor="middle" x="409" y="-495.8" font-family="Times,serif" font-size="14.00">*(IntToPtrCastExpr&lt;ptr&gt;((v1 + 8))) == ExtCastExpr&lt;int32&gt;(*(a1))</text>
</g>
<!-- Node0x1ee29a60 -->
<g id="node12" class="node"><title>Node0x1ee29a60</title>
<polygon fill="none" stroke="black" points="501,-435.5 501,-473.5 824,-473.5 824,-435.5 501,-435.5"/>
<text text-anchor="start" x="509" y="-458.3" font-family="Times,serif" font-size="14.00">v4 = *(IntToPtrCastExpr&lt;ptr&gt;((v1 + 24)))</text>
<text text-anchor="start" x="509" y="-443.3" font-family="Times,serif" font-size="14.00"> g5 = v4</text>
</g>
<!-- Node0x1ee29300&#45;&gt;Node0x1ee29a60 -->
<g id="edge12" class="edge"><title>Node0x1ee29300&#45;&gt;Node0x1ee29a60</title>
<path fill="none" stroke="black" d="M656.95,-525.266C657.898,-513.349 659.156,-497.538 660.234,-483.982"/>
<polygon fill="black" stroke="black" points="663.747,-483.956 661.051,-473.71 656.769,-483.401 663.747,-483.956"/>
<text text-anchor="middle" x="903" y="-495.8" font-family="Times,serif" font-size="14.00">*(IntToPtrCastExpr&lt;ptr&gt;((v1 + 8))) != ExtCastExpr&lt;int32&gt;(*(a1))</text>
</g>
<!-- Node0x1ee29d50&#45;&gt;Node0x1ee28850 -->
<g id="edge13" class="edge"><title>Node0x1ee29d50&#45;&gt;Node0x1ee28850</title>
<path fill="none" stroke="black" d="M262.5,-318.482C262.5,-294.462 262.5,-264.944 262.5,-238.5 262.5,-238.5 262.5,-238.5 262.5,-115.5 262.5,-100.4 262.5,-83.5422 262.5,-69.8343"/>
<polygon fill="black" stroke="black" points="266,-69.6097 262.5,-59.6098 259,-69.6098 266,-69.6097"/>
</g>
<!-- Node0x1ee29ac0 -->
<g id="node13" class="node"><title>Node0x1ee29ac0</title>
<polygon fill="none" stroke="black" points="610,-263.5 610,-299.5 715,-299.5 715,-263.5 610,-263.5"/>
<text text-anchor="start" x="618" y="-277.8" font-family="Times,serif" font-size="14.00">if (v4 == 0):</text>
</g>
<!-- Node0x1ee29a60&#45;&gt;Node0x1ee29ac0 -->
<g id="edge14" class="edge"><title>Node0x1ee29a60&#45;&gt;Node0x1ee29ac0</title>
<path fill="none" stroke="black" d="M662.5,-435.2C662.5,-405.061 662.5,-344.825 662.5,-309.687"/>
<polygon fill="black" stroke="black" points="666,-309.649 662.5,-299.649 659,-309.649 666,-309.649"/>
</g>
<!-- Node0x1ee26ac0 -->
<g id="node14" class="node"><title>Node0x1ee26ac0</title>
<polygon fill="none" stroke="black" points="409,-173.5 409,-211.5 568,-211.5 568,-173.5 409,-173.5"/>
<text text-anchor="start" x="417" y="-196.3" font-family="Times,serif" font-size="14.00">break &#45;&gt; 0x415677:</text>
<text text-anchor="start" x="417" y="-181.3" font-family="Times,serif" font-size="14.00"> break</text>
</g>
<!-- Node0x1ee29ac0&#45;&gt;Node0x1ee26ac0 -->
<g id="edge15" class="edge"><title>Node0x1ee29ac0&#45;&gt;Node0x1ee26ac0</title>
<path fill="none" stroke="black" d="M628.123,-263.312C601.134,-249.817 563.322,-230.911 533.853,-216.176"/>
<polygon fill="black" stroke="black" points="535.112,-212.893 524.602,-211.551 531.981,-219.154 535.112,-212.893"/>
<text text-anchor="middle" x="621.5" y="-233.8" font-family="Times,serif" font-size="14.00">v4 == 0</text>
</g>
<!-- Node0x1ee29cf0 -->
<g id="node15" class="node"><title>Node0x1ee29cf0</title>
<polygon fill="none" stroke="black" points="705.5,-174.5 705.5,-210.5 777.5,-210.5 777.5,-174.5 705.5,-174.5"/>
<text text-anchor="start" x="713.5" y="-188.8" font-family="Times,serif" font-size="14.00">v1 = v4</text>
</g>
<!-- Node0x1ee29ac0&#45;&gt;Node0x1ee29cf0 -->
<g id="edge16" class="edge"><title>Node0x1ee29ac0&#45;&gt;Node0x1ee29cf0</title>
<path fill="none" stroke="black" d="M678.108,-263.312C689.794,-250.442 705.948,-232.652 719.025,-218.251"/>
<polygon fill="black" stroke="black" points="721.793,-220.409 725.925,-210.653 716.611,-215.703 721.793,-220.409"/>
<text text-anchor="middle" x="734.5" y="-233.8" font-family="Times,serif" font-size="14.00">v4 != 0</text>
</g>
<!-- Node0x1ee28fb0 -->
<g id="node16" class="node"><title>Node0x1ee28fb0</title>
<polygon fill="none" stroke="black" points="328.5,-97.5 328.5,-135.5 420.5,-135.5 420.5,-97.5 328.5,-97.5"/>
<text text-anchor="start" x="336.5" y="-120.3" font-family="Times,serif" font-size="14.00">0x415677:</text>
<text text-anchor="start" x="336.5" y="-105.3" font-family="Times,serif" font-size="14.00"> return 0</text>
</g>
<!-- Node0x1ee26ac0&#45;&gt;Node0x1ee28fb0 -->
<g id="edge17" class="edge"><title>Node0x1ee26ac0&#45;&gt;Node0x1ee28fb0</title>
<path fill="none" stroke="black" d="M460.612,-173.398C445.707,-163.722 427.171,-151.69 411.118,-141.27"/>
<polygon fill="black" stroke="black" points="412.788,-138.181 402.495,-135.672 408.977,-144.053 412.788,-138.181"/>
</g>
<!-- Node0x1ee29cf0&#45;&gt;Node0x1ee28f10 -->
<g id="edge18" class="edge"><title>Node0x1ee29cf0&#45;&gt;Node0x1ee28f10</title>
<path fill="none" stroke="black" d="M777.565,-193.292C879.858,-193.665 1164.5,-201.777 1164.5,-280.5 1164.5,-545.5 1164.5,-545.5 1164.5,-545.5 1164.5,-590.716 848.389,-618.697 714.398,-628.526"/>
<polygon fill="black" stroke="black" points="714.026,-625.044 704.305,-629.257 714.532,-632.025 714.026,-625.044"/>
</g>
<!-- Node0x1ee28fb0&#45;&gt;Node0x1ee28850 -->
<g id="edge19" class="edge"><title>Node0x1ee28fb0&#45;&gt;Node0x1ee28850</title>
<path fill="none" stroke="black" d="M346.815,-97.4551C331.839,-87.694 313.197,-75.5433 297.252,-65.1512"/>
<polygon fill="black" stroke="black" points="299.001,-62.1133 288.713,-59.585 295.179,-67.9776 299.001,-62.1133"/>
</g>
</g>
</svg>
