<?xml version="1.0" encoding="UTF-8" standalone="no"?>
<!DOCTYPE svg PUBLIC "-//W3C//DTD SVG 1.1//EN"
 "http://www.w3.org/Graphics/SVG/1.1/DTD/svg11.dtd">
<!-- Generated by graphviz version 2.38.0 (20140413.2041)
 -->
<!-- Title: Control&#45;flow graph for function &#39;function_402820(a1, a2, **a3, a4, a5, a6)&#39;. Pages: 1 -->
<svg width="856pt" height="2425pt"
 viewBox="0.00 0.00 855.50 2425.00" xmlns="http://www.w3.org/2000/svg" xmlns:xlink="http://www.w3.org/1999/xlink">
<g id="graph0" class="graph" transform="scale(1 1) rotate(0) translate(4 2421)">
<title>Control&#45;flow graph for function &#39;function_402820(a1, a2, **a3, a4, a5, a6)&#39;.</title>
<polygon fill="white" stroke="none" points="-4,4 -4,-2421 851.5,-2421 851.5,4 -4,4"/>
<text text-anchor="middle" x="423.75" y="-7.8" font-family="Times,serif" font-size="14.00">Control&#45;flow graph for function &#39;function_402820(a1, a2, **a3, a4, a5, a6)&#39;.</text>
<!-- Node0x8dbe3fb0 -->
<g id="node1" class="node"><title>Node0x8dbe3fb0</title>
<polygon fill="none" stroke="black" points="512.5,-2303.5 512.5,-2416.5 571.5,-2416.5 571.5,-2303.5 512.5,-2303.5"/>
<text text-anchor="start" x="520.5" y="-2401.3" font-family="Times,serif" font-size="14.00">entry:</text>
<text text-anchor="start" x="520.5" y="-2386.3" font-family="Times,serif" font-size="14.00"> a1</text>
<text text-anchor="start" x="520.5" y="-2371.3" font-family="Times,serif" font-size="14.00"> a2</text>
<text text-anchor="start" x="520.5" y="-2356.3" font-family="Times,serif" font-size="14.00"> a3</text>
<text text-anchor="start" x="520.5" y="-2341.3" font-family="Times,serif" font-size="14.00"> a4</text>
<text text-anchor="start" x="520.5" y="-2326.3" font-family="Times,serif" font-size="14.00"> a5</text>
<text text-anchor="start" x="520.5" y="-2311.3" font-family="Times,serif" font-size="14.00"> a6</text>
</g>
<!-- Node0x23ede890 -->
<g id="node2" class="node"><title>Node0x23ede890</title>
<polygon fill="none" stroke="black" points="403.5,-2227.5 403.5,-2265.5 680.5,-2265.5 680.5,-2227.5 403.5,-2227.5"/>
<text text-anchor="start" x="411.5" y="-2250.3" font-family="Times,serif" font-size="14.00">g7 = g5</text>
<text text-anchor="start" x="411.5" y="-2235.3" font-family="Times,serif" font-size="14.00"> g5 = PtrToIntCastExpr&lt;int32&gt;(a3)</text>
</g>
<!-- Node0x8dbe3fb0&#45;&gt;Node0x23ede890 -->
<g id="edge1" class="edge"><title>Node0x8dbe3fb0&#45;&gt;Node0x23ede890</title>
<path fill="none" stroke="black" d="M542,-2303.25C542,-2293.86 542,-2284.47 542,-2276.15"/>
<polygon fill="black" stroke="black" points="545.5,-2275.91 542,-2265.91 538.5,-2275.91 545.5,-2275.91"/>
</g>
<!-- Node0x8dbe5a00 -->
<g id="node3" class="node"><title>Node0x8dbe5a00</title>
<polygon fill="none" stroke="black" points="472,-2153.5 472,-2189.5 612,-2189.5 612,-2153.5 472,-2153.5"/>
<text text-anchor="start" x="480" y="-2167.8" font-family="Times,serif" font-size="14.00">if (a3 == NULL):</text>
</g>
<!-- Node0x23ede890&#45;&gt;Node0x8dbe5a00 -->
<g id="edge2" class="edge"><title>Node0x23ede890&#45;&gt;Node0x8dbe5a00</title>
<path fill="none" stroke="black" d="M542,-2227.46C542,-2219.2 542,-2209.24 542,-2200.07"/>
<polygon fill="black" stroke="black" points="545.5,-2199.83 542,-2189.83 538.5,-2199.83 545.5,-2199.83"/>
</g>
<!-- Node0x8dbe3a30 -->
<g id="node4" class="node"><title>Node0x8dbe3a30</title>
<polygon fill="none" stroke="black" points="223.5,-2063.5 223.5,-2101.5 560.5,-2101.5 560.5,-2063.5 223.5,-2063.5"/>
<text text-anchor="start" x="231.5" y="-2086.3" font-family="Times,serif" font-size="14.00">v1 = &#45;2147467259</text>
<text text-anchor="start" x="231.5" y="-2071.3" font-family="Times,serif" font-size="14.00"> function_4032a0(BitCastExpr&lt;ptr&gt;(&amp;(v1)))</text>
</g>
<!-- Node0x8dbe5a00&#45;&gt;Node0x8dbe3a30 -->
<g id="edge3" class="edge"><title>Node0x8dbe5a00&#45;&gt;Node0x8dbe3a30</title>
<path fill="none" stroke="black" d="M512.365,-2153.31C489.4,-2139.99 457.346,-2121.4 432.091,-2106.75"/>
<polygon fill="black" stroke="black" points="433.529,-2103.54 423.123,-2101.55 430.017,-2109.6 433.529,-2103.54"/>
<text text-anchor="middle" x="528" y="-2123.8" font-family="Times,serif" font-size="14.00">a3 == NULL</text>
</g>
<!-- Node0x23ee2560 -->
<g id="node5" class="node"><title>Node0x23ee2560</title>
<polygon fill="none" stroke="black" points="465,-1807.5 465,-2025.5 613,-2025.5 613,-1807.5 465,-1807.5"/>
<text text-anchor="start" x="473" y="-2010.3" font-family="Times,serif" font-size="14.00">0x402835:</text>
<text text-anchor="start" x="473" y="-1995.3" font-family="Times,serif" font-size="14.00"> v2</text>
<text text-anchor="start" x="473" y="-1980.3" font-family="Times,serif" font-size="14.00"> g4 = v2</text>
<text text-anchor="start" x="473" y="-1965.3" font-family="Times,serif" font-size="14.00"> g1 = False</text>
<text text-anchor="start" x="473" y="-1950.3" font-family="Times,serif" font-size="14.00"> g180 = (v2 == 0)</text>
<text text-anchor="start" x="473" y="-1935.3" font-family="Times,serif" font-size="14.00"> v3 = g9</text>
<text text-anchor="start" x="473" y="-1920.3" font-family="Times,serif" font-size="14.00"> v4 = &amp;(v3)</text>
<text text-anchor="start" x="473" y="-1905.3" font-family="Times,serif" font-size="14.00"> g10 = v4</text>
<text text-anchor="start" x="473" y="-1890.3" font-family="Times,serif" font-size="14.00"> g9 = a1</text>
<text text-anchor="start" x="473" y="-1875.3" font-family="Times,serif" font-size="14.00"> v5 = v4</text>
<text text-anchor="start" x="473" y="-1860.3" font-family="Times,serif" font-size="14.00"> v6</text>
<text text-anchor="start" x="473" y="-1845.3" font-family="Times,serif" font-size="14.00"> v7</text>
<text text-anchor="start" x="473" y="-1830.3" font-family="Times,serif" font-size="14.00"> v8</text>
<text text-anchor="start" x="473" y="-1815.3" font-family="Times,serif" font-size="14.00"> v9</text>
</g>
<!-- Node0x8dbe5a00&#45;&gt;Node0x23ee2560 -->
<g id="edge4" class="edge"><title>Node0x8dbe5a00&#45;&gt;Node0x23ee2560</title>
<path fill="none" stroke="black" d="M565.691,-2153.27C571.075,-2148.07 576.067,-2141.88 579,-2135 581.615,-2128.87 579.578,-2126.64 579,-2120 576.606,-2092.5 572.03,-2063.21 566.803,-2035.7"/>
<polygon fill="black" stroke="black" points="570.194,-2034.8 564.85,-2025.65 563.322,-2036.14 570.194,-2034.8"/>
<text text-anchor="middle" x="622" y="-2078.8" font-family="Times,serif" font-size="14.00">a3 != NULL</text>
</g>
<!-- Node0x8dbe3a30&#45;&gt;Node0x23ee2560 -->
<g id="edge5" class="edge"><title>Node0x8dbe3a30&#45;&gt;Node0x23ee2560</title>
<path fill="none" stroke="black" d="M408.293,-2063.32C420.798,-2049.37 439.083,-2028.97 458.038,-2007.83"/>
<polygon fill="black" stroke="black" points="460.693,-2010.11 464.761,-2000.32 455.481,-2005.43 460.693,-2010.11"/>
</g>
<!-- Node0x8dbe6bb0 -->
<g id="node6" class="node"><title>Node0x8dbe6bb0</title>
<polygon fill="none" stroke="black" points="486.5,-1733.5 486.5,-1769.5 591.5,-1769.5 591.5,-1733.5 486.5,-1733.5"/>
<text text-anchor="start" x="494.5" y="-1747.8" font-family="Times,serif" font-size="14.00">if (v2 == 0):</text>
</g>
<!-- Node0x23ee2560&#45;&gt;Node0x8dbe6bb0 -->
<g id="edge6" class="edge"><title>Node0x23ee2560&#45;&gt;Node0x8dbe6bb0</title>
<path fill="none" stroke="black" d="M539,-1807.23C539,-1797.2 539,-1787.79 539,-1779.68"/>
<polygon fill="black" stroke="black" points="542.5,-1779.52 539,-1769.52 535.5,-1779.52 542.5,-1779.52"/>
</g>
<!-- Node0x8dbe6150 -->
<g id="node7" class="node"><title>Node0x8dbe6150</title>
<polygon fill="none" stroke="black" points="405,-1628.5 405,-1681.5 553,-1681.5 553,-1628.5 405,-1628.5"/>
<text text-anchor="start" x="413" y="-1666.3" font-family="Times,serif" font-size="14.00">0x402843:</text>
<text text-anchor="start" x="413" y="-1651.3" font-family="Times,serif" font-size="14.00"> g1 = False</text>
<text text-anchor="start" x="413" y="-1636.3" font-family="Times,serif" font-size="14.00"> g180 = (a1 == 0)</text>
</g>
<!-- Node0x8dbe6bb0&#45;&gt;Node0x8dbe6150 -->
<g id="edge7" class="edge"><title>Node0x8dbe6bb0&#45;&gt;Node0x8dbe6150</title>
<path fill="none" stroke="black" d="M527.995,-1733.17C520.431,-1721.25 510.129,-1705.03 500.924,-1690.53"/>
<polygon fill="black" stroke="black" points="503.683,-1688.35 495.368,-1681.78 497.773,-1692.1 503.683,-1688.35"/>
<text text-anchor="middle" x="547" y="-1703.8" font-family="Times,serif" font-size="14.00">v2 == 0</text>
</g>
<!-- Node0x23ee34c0 -->
<g id="node8" class="node"><title>Node0x23ee34c0</title>
<polygon fill="none" stroke="black" points="477,-1436.5 477,-1609.5 843,-1609.5 843,-1436.5 477,-1436.5"/>
<text text-anchor="start" x="485" y="-1594.3" font-family="Times,serif" font-size="14.00">0x402851:</text>
<text text-anchor="start" x="485" y="-1579.3" font-family="Times,serif" font-size="14.00"> v8 = *(IntToPtrCastExpr&lt;ptr&gt;(g5))</text>
<text text-anchor="start" x="485" y="-1564.3" font-family="Times,serif" font-size="14.00"> g2 = v8</text>
<text text-anchor="start" x="485" y="-1549.3" font-family="Times,serif" font-size="14.00"> g8 = *(IntToPtrCastExpr&lt;ptr&gt;(v8))</text>
<text text-anchor="start" x="485" y="-1534.3" font-family="Times,serif" font-size="14.00"> *(IntToPtrCastExpr&lt;ptr&gt;((v5 &#45; 4))) = 1</text>
<text text-anchor="start" x="485" y="-1519.3" font-family="Times,serif" font-size="14.00"> v6 = (v5 &#45; 8)</text>
<text text-anchor="start" x="485" y="-1504.3" font-family="Times,serif" font-size="14.00"> *(IntToPtrCastExpr&lt;ptr&gt;(v6)) = g9</text>
<text text-anchor="start" x="485" y="-1489.3" font-family="Times,serif" font-size="14.00"> g10 = v6</text>
<text text-anchor="start" x="485" y="-1474.3" font-family="Times,serif" font-size="14.00"> *(IntToPtrCastExpr&lt;ptr&gt;((v5 &#45; 12))) = 4204634</text>
<text text-anchor="start" x="485" y="-1459.3" font-family="Times,serif" font-size="14.00"> IntToPtrCastExpr&lt;ptr&gt;(g8)()</text>
<text text-anchor="start" x="485" y="-1444.3" font-family="Times,serif" font-size="14.00"> v7 = g2</text>
</g>
<!-- Node0x8dbe6bb0&#45;&gt;Node0x23ee34c0 -->
<g id="edge8" class="edge"><title>Node0x8dbe6bb0&#45;&gt;Node0x23ee34c0</title>
<path fill="none" stroke="black" d="M563.123,-1733.47C569.535,-1728.1 576.046,-1721.79 581,-1715 601.895,-1686.38 618.425,-1651.42 630.848,-1619.27"/>
<polygon fill="black" stroke="black" points="634.151,-1620.43 634.408,-1609.84 627.602,-1617.96 634.151,-1620.43"/>
<text text-anchor="middle" x="617" y="-1703.8" font-family="Times,serif" font-size="14.00">v2 != 0</text>
</g>
<!-- Node0x8dbe2480 -->
<g id="node9" class="node"><title>Node0x8dbe2480</title>
<polygon fill="none" stroke="black" points="402.5,-1379.5 402.5,-1417.5 501.5,-1417.5 501.5,-1379.5 402.5,-1379.5"/>
<text text-anchor="start" x="410.5" y="-1402.3" font-family="Times,serif" font-size="14.00">if (a1 != 0):</text>
<text text-anchor="start" x="410.5" y="-1387.3" font-family="Times,serif" font-size="14.00"> else:</text>
</g>
<!-- Node0x8dbe6150&#45;&gt;Node0x8dbe2480 -->
<g id="edge9" class="edge"><title>Node0x8dbe6150&#45;&gt;Node0x8dbe2480</title>
<path fill="none" stroke="black" d="M472.458,-1628.06C471.149,-1622.15 469.902,-1615.88 469,-1610 459.082,-1545.26 454.728,-1468.39 453.002,-1427.82"/>
<polygon fill="black" stroke="black" points="456.491,-1427.47 452.591,-1417.62 449.496,-1427.75 456.491,-1427.47"/>
</g>
<!-- Node0x23ee1ee0 -->
<g id="node10" class="node"><title>Node0x23ee1ee0</title>
<polygon fill="none" stroke="black" points="611.5,-1079.5 611.5,-1115.5 716.5,-1115.5 716.5,-1079.5 611.5,-1079.5"/>
<text text-anchor="start" x="619.5" y="-1093.8" font-family="Times,serif" font-size="14.00">if (v7 == 0):</text>
</g>
<!-- Node0x23ee34c0&#45;&gt;Node0x23ee1ee0 -->
<g id="edge10" class="edge"><title>Node0x23ee34c0&#45;&gt;Node0x23ee1ee0</title>
<path fill="none" stroke="black" d="M660.809,-1436.3C661.725,-1339.4 663.163,-1187.12 663.744,-1125.61"/>
<polygon fill="black" stroke="black" points="667.244,-1125.58 663.839,-1115.55 660.245,-1125.51 667.244,-1125.58"/>
</g>
<!-- Node0x8dbe8e60 -->
<g id="node11" class="node"><title>Node0x8dbe8e60</title>
<polygon fill="none" stroke="black" points="0,-1229.5 0,-1327.5 398,-1327.5 398,-1229.5 0,-1229.5"/>
<text text-anchor="start" x="8" y="-1312.3" font-family="Times,serif" font-size="14.00">0x402847_2:</text>
<text text-anchor="start" x="8" y="-1297.3" font-family="Times,serif" font-size="14.00"> v10 = g10</text>
<text text-anchor="start" x="8" y="-1282.3" font-family="Times,serif" font-size="14.00"> *(IntToPtrCastExpr&lt;ptr&gt;((v10 &#45; 4))) = &#45;2147024809</text>
<text text-anchor="start" x="8" y="-1267.3" font-family="Times,serif" font-size="14.00"> *(IntToPtrCastExpr&lt;ptr&gt;((v10 &#45; 8))) = 4204625</text>
<text text-anchor="start" x="8" y="-1252.3" font-family="Times,serif" font-size="14.00"> function_4032a0(BitCastExpr&lt;ptr&gt;(&amp;(a1)))</text>
<text text-anchor="start" x="8" y="-1237.3" font-family="Times,serif" font-size="14.00"> v5 = g10</text>
</g>
<!-- Node0x8dbe2480&#45;&gt;Node0x8dbe8e60 -->
<g id="edge11" class="edge"><title>Node0x8dbe2480&#45;&gt;Node0x8dbe8e60</title>
<path fill="none" stroke="black" d="M413.299,-1379.45C385.991,-1366.71 347.911,-1348.95 311.414,-1331.93"/>
<polygon fill="black" stroke="black" points="312.719,-1328.68 302.177,-1327.62 309.76,-1335.02 312.719,-1328.68"/>
<text text-anchor="middle" x="398" y="-1349.8" font-family="Times,serif" font-size="14.00">a1 != 0</text>
</g>
<!-- Node0x8dbe5080 -->
<g id="node12" class="node"><title>Node0x8dbe5080</title>
<polygon fill="none" stroke="black" points="416,-1260.5 416,-1296.5 488,-1296.5 488,-1260.5 416,-1260.5"/>
<text text-anchor="start" x="424" y="-1274.8" font-family="Times,serif" font-size="14.00">v5 = v4</text>
</g>
<!-- Node0x8dbe2480&#45;&gt;Node0x8dbe5080 -->
<g id="edge12" class="edge"><title>Node0x8dbe2480&#45;&gt;Node0x8dbe5080</title>
<path fill="none" stroke="black" d="M452,-1379.32C452,-1359.99 452,-1329.18 452,-1306.9"/>
<polygon fill="black" stroke="black" points="455.5,-1306.74 452,-1296.74 448.5,-1306.74 455.5,-1306.74"/>
<text text-anchor="middle" x="482" y="-1349.8" font-family="Times,serif" font-size="14.00">a1 == 0</text>
</g>
<!-- Node0x8dbe8cb0 -->
<g id="node13" class="node"><title>Node0x8dbe8cb0</title>
<polygon fill="none" stroke="black" points="602.5,-915.5 602.5,-951.5 725.5,-951.5 725.5,-915.5 602.5,-915.5"/>
<text text-anchor="start" x="610.5" y="-929.8" font-family="Times,serif" font-size="14.00">goto 0x40285e</text>
</g>
<!-- Node0x23ee1ee0&#45;&gt;Node0x8dbe8cb0 -->
<g id="edge13" class="edge"><title>Node0x23ee1ee0&#45;&gt;Node0x8dbe8cb0</title>
<path fill="none" stroke="black" d="M664,-1079.47C664,-1051.47 664,-995.463 664,-961.852"/>
<polygon fill="black" stroke="black" points="667.5,-961.79 664,-951.79 660.5,-961.79 667.5,-961.79"/>
<text text-anchor="middle" x="694" y="-973.8" font-family="Times,serif" font-size="14.00">v7 == 0</text>
</g>
<!-- Node0x8dbe5480 -->
<g id="node14" class="node"><title>Node0x8dbe5480</title>
<polygon fill="none" stroke="black" points="488,-858.5 488,-896.5 616,-896.5 616,-858.5 488,-858.5"/>
<text text-anchor="start" x="496" y="-881.3" font-family="Times,serif" font-size="14.00">v9 = v7</text>
<text text-anchor="start" x="496" y="-866.3" font-family="Times,serif" font-size="14.00"> goto 0x402863</text>
</g>
<!-- Node0x23ee1ee0&#45;&gt;Node0x8dbe5480 -->
<g id="edge14" class="edge"><title>Node0x23ee1ee0&#45;&gt;Node0x8dbe5480</title>
<path fill="none" stroke="black" d="M654.902,-1079.15C643.434,-1057.24 623.146,-1018.38 606,-985 592.202,-958.134 576.62,-927.355 565.753,-905.817"/>
<polygon fill="black" stroke="black" points="568.743,-903.973 561.115,-896.619 562.492,-907.124 568.743,-903.973"/>
<text text-anchor="middle" x="633" y="-973.8" font-family="Times,serif" font-size="14.00">v7 != 0</text>
</g>
<!-- Node0x8dbe6860 -->
<g id="node15" class="node"><title>Node0x8dbe6860</title>
<polygon fill="none" stroke="black" points="227,-1003.5 227,-1191.5 593,-1191.5 593,-1003.5 227,-1003.5"/>
<text text-anchor="start" x="235" y="-1176.3" font-family="Times,serif" font-size="14.00">0x402851:</text>
<text text-anchor="start" x="235" y="-1161.3" font-family="Times,serif" font-size="14.00"> v8 = *(IntToPtrCastExpr&lt;ptr&gt;(g5))</text>
<text text-anchor="start" x="235" y="-1146.3" font-family="Times,serif" font-size="14.00"> g2 = v8</text>
<text text-anchor="start" x="235" y="-1131.3" font-family="Times,serif" font-size="14.00"> g8 = *(IntToPtrCastExpr&lt;ptr&gt;(v8))</text>
<text text-anchor="start" x="235" y="-1116.3" font-family="Times,serif" font-size="14.00"> *(IntToPtrCastExpr&lt;ptr&gt;((v5 &#45; 4))) = 1</text>
<text text-anchor="start" x="235" y="-1101.3" font-family="Times,serif" font-size="14.00"> v6 = (v5 &#45; 8)</text>
<text text-anchor="start" x="235" y="-1086.3" font-family="Times,serif" font-size="14.00"> *(IntToPtrCastExpr&lt;ptr&gt;(v6)) = g9</text>
<text text-anchor="start" x="235" y="-1071.3" font-family="Times,serif" font-size="14.00"> g10 = v6</text>
<text text-anchor="start" x="235" y="-1056.3" font-family="Times,serif" font-size="14.00"> *(IntToPtrCastExpr&lt;ptr&gt;((v5 &#45; 12))) = 4204634</text>
<text text-anchor="start" x="235" y="-1041.3" font-family="Times,serif" font-size="14.00"> IntToPtrCastExpr&lt;ptr&gt;(g8)()</text>
<text text-anchor="start" x="235" y="-1026.3" font-family="Times,serif" font-size="14.00"> v7 = g2</text>
<text text-anchor="start" x="235" y="-1011.3" font-family="Times,serif" font-size="14.00"> v9 = v7</text>
</g>
<!-- Node0x8dbe8e60&#45;&gt;Node0x8dbe6860 -->
<g id="edge15" class="edge"><title>Node0x8dbe8e60&#45;&gt;Node0x8dbe6860</title>
<path fill="none" stroke="black" d="M255.822,-1229.3C267.244,-1219.61 279.641,-1209.09 292.275,-1198.37"/>
<polygon fill="black" stroke="black" points="294.805,-1200.81 300.166,-1191.68 290.276,-1195.48 294.805,-1200.81"/>
</g>
<!-- Node0x8dbe5080&#45;&gt;Node0x8dbe6860 -->
<g id="edge16" class="edge"><title>Node0x8dbe5080&#45;&gt;Node0x8dbe6860</title>
<path fill="none" stroke="black" d="M447.973,-1260.34C444.613,-1246.02 439.523,-1224.32 434.151,-1201.43"/>
<polygon fill="black" stroke="black" points="437.528,-1200.5 431.836,-1191.56 430.713,-1202.1 437.528,-1200.5"/>
</g>
<!-- Node0x8dbe5110 -->
<g id="node16" class="node"><title>Node0x8dbe5110</title>
<polygon fill="none" stroke="black" points="480.5,-771.5 480.5,-839.5 847.5,-839.5 847.5,-771.5 480.5,-771.5"/>
<text text-anchor="start" x="488.5" y="-824.3" font-family="Times,serif" font-size="14.00">0x40285e:</text>
<text text-anchor="start" x="488.5" y="-809.3" font-family="Times,serif" font-size="14.00"> *(IntToPtrCastExpr&lt;ptr&gt;((g10 &#45; 4))) = 4204643</text>
<text text-anchor="start" x="488.5" y="-794.3" font-family="Times,serif" font-size="14.00"> function_403210()</text>
<text text-anchor="start" x="488.5" y="-779.3" font-family="Times,serif" font-size="14.00"> v9 = g2</text>
</g>
<!-- Node0x8dbe8cb0&#45;&gt;Node0x8dbe5110 -->
<g id="edge17" class="edge"><title>Node0x8dbe8cb0&#45;&gt;Node0x8dbe5110</title>
<path fill="none" stroke="black" d="M664,-915.244C664,-898.412 664,-872.126 664,-849.614"/>
<polygon fill="black" stroke="black" points="667.5,-849.584 664,-839.584 660.5,-849.584 667.5,-849.584"/>
</g>
<!-- Node0xaeca38b0 -->
<g id="node17" class="node"><title>Node0xaeca38b0</title>
<polygon fill="none" stroke="black" points="304,-665.5 304,-733.5 592,-733.5 592,-665.5 304,-665.5"/>
<text text-anchor="start" x="312" y="-718.3" font-family="Times,serif" font-size="14.00">0x402863:</text>
<text text-anchor="start" x="312" y="-703.3" font-family="Times,serif" font-size="14.00"> v11 = (v9 + 16)</text>
<text text-anchor="start" x="312" y="-688.3" font-family="Times,serif" font-size="14.00"> g2 = v11</text>
<text text-anchor="start" x="312" y="-673.3" font-family="Times,serif" font-size="14.00"> *(IntToPtrCastExpr&lt;ptr&gt;(g7)) = v11</text>
</g>
<!-- Node0x8dbe5480&#45;&gt;Node0xaeca38b0 -->
<g id="edge18" class="edge"><title>Node0x8dbe5480&#45;&gt;Node0xaeca38b0</title>
<path fill="none" stroke="black" d="M492.994,-858.447C484.585,-853.632 476.829,-847.582 471,-840 450.056,-812.758 445.141,-773.593 444.986,-743.693"/>
<polygon fill="black" stroke="black" points="448.488,-743.58 445.112,-733.538 441.489,-743.494 448.488,-743.58"/>
</g>
<!-- Node0x8dbe53a0 -->
<g id="node18" class="node"><title>Node0x8dbe53a0</title>
<polygon fill="none" stroke="black" points="357.5,-915.5 357.5,-951.5 462.5,-951.5 462.5,-915.5 357.5,-915.5"/>
<text text-anchor="start" x="365.5" y="-929.8" font-family="Times,serif" font-size="14.00">if (v7 == 0):</text>
</g>
<!-- Node0x8dbe6860&#45;&gt;Node0x8dbe53a0 -->
<g id="edge19" class="edge"><title>Node0x8dbe6860&#45;&gt;Node0x8dbe53a0</title>
<path fill="none" stroke="black" d="M410,-1003.2C410,-988.172 410,-973.719 410,-961.981"/>
<polygon fill="black" stroke="black" points="413.5,-961.628 410,-951.628 406.5,-961.629 413.5,-961.628"/>
</g>
<!-- Node0x8dbe5110&#45;&gt;Node0xaeca38b0 -->
<g id="edge20" class="edge"><title>Node0x8dbe5110&#45;&gt;Node0xaeca38b0</title>
<path fill="none" stroke="black" d="M595.359,-771.451C573.319,-760.839 548.746,-749.007 526.08,-738.094"/>
<polygon fill="black" stroke="black" points="527.361,-734.826 516.833,-733.642 524.324,-741.133 527.361,-734.826"/>
</g>
<!-- Node0x8dbe4a80 -->
<g id="node19" class="node"><title>Node0x8dbe4a80</title>
<polygon fill="none" stroke="black" points="355,-591.5 355,-627.5 449,-627.5 449,-591.5 355,-591.5"/>
<text text-anchor="start" x="363" y="-605.8" font-family="Times,serif" font-size="14.00">if (g9 &lt; 0):</text>
</g>
<!-- Node0xaeca38b0&#45;&gt;Node0x8dbe4a80 -->
<g id="edge21" class="edge"><title>Node0xaeca38b0&#45;&gt;Node0x8dbe4a80</title>
<path fill="none" stroke="black" d="M430.74,-665.482C425.745,-655.926 420.364,-645.632 415.624,-636.564"/>
<polygon fill="black" stroke="black" points="418.694,-634.881 410.96,-627.64 412.49,-638.124 418.694,-634.881"/>
</g>
<!-- Node0x8dbe53a0&#45;&gt;Node0x8dbe5110 -->
<g id="edge22" class="edge"><title>Node0x8dbe53a0&#45;&gt;Node0x8dbe5110</title>
<path fill="none" stroke="black" d="M406.906,-915.41C404.921,-898.626 404.915,-873.366 419,-858 428.034,-848.144 446.877,-840.05 470.291,-833.442"/>
<polygon fill="black" stroke="black" points="471.456,-836.754 480.216,-830.794 469.651,-829.99 471.456,-836.754"/>
<text text-anchor="middle" x="449" y="-873.8" font-family="Times,serif" font-size="14.00">v7 == 0</text>
</g>
<!-- Node0x8dbe53a0&#45;&gt;Node0xaeca38b0 -->
<g id="edge23" class="edge"><title>Node0x8dbe53a0&#45;&gt;Node0xaeca38b0</title>
<path fill="none" stroke="black" d="M402.689,-915.425C390.897,-885.318 370.756,-821.227 389,-771 392.796,-760.548 398.896,-750.564 405.765,-741.566"/>
<polygon fill="black" stroke="black" points="408.652,-743.563 412.245,-733.596 403.221,-739.147 408.652,-743.563"/>
<text text-anchor="middle" x="416" y="-801.8" font-family="Times,serif" font-size="14.00">v7 != 0</text>
</g>
<!-- Node0x8dbe9260 -->
<g id="node20" class="node"><title>Node0x8dbe9260</title>
<polygon fill="none" stroke="black" points="197,-502.5 197,-538.5 337,-538.5 337,-502.5 197,-502.5"/>
<text text-anchor="start" x="205" y="-516.8" font-family="Times,serif" font-size="14.00">goto 0x402847_2</text>
</g>
<!-- Node0x8dbe4a80&#45;&gt;Node0x8dbe9260 -->
<g id="edge24" class="edge"><title>Node0x8dbe4a80&#45;&gt;Node0x8dbe9260</title>
<path fill="none" stroke="black" d="M375.328,-591.312C354.342,-577.787 324.922,-558.827 302.036,-544.079"/>
<polygon fill="black" stroke="black" points="303.918,-541.128 293.616,-538.653 300.126,-547.012 303.918,-541.128"/>
<text text-anchor="middle" x="371.5" y="-561.8" font-family="Times,serif" font-size="14.00">g9 &lt; 0</text>
</g>
<!-- Node0x8dbe4c10 -->
<g id="node21" class="node"><title>Node0x8dbe4c10</title>
<polygon fill="none" stroke="black" points="359,-501.5 359,-539.5 445,-539.5 445,-501.5 359,-501.5"/>
<text text-anchor="start" x="367" y="-524.3" font-family="Times,serif" font-size="14.00">v12 = g2</text>
<text text-anchor="start" x="367" y="-509.3" font-family="Times,serif" font-size="14.00"> v13 = g9</text>
</g>
<!-- Node0x8dbe4a80&#45;&gt;Node0x8dbe4c10 -->
<g id="edge25" class="edge"><title>Node0x8dbe4a80&#45;&gt;Node0x8dbe4c10</title>
<path fill="none" stroke="black" d="M402,-591.312C402,-579.511 402,-563.572 402,-549.904"/>
<polygon fill="black" stroke="black" points="405.5,-549.551 402,-539.551 398.5,-549.551 405.5,-549.551"/>
<text text-anchor="middle" x="432.5" y="-561.8" font-family="Times,serif" font-size="14.00">g9 &gt;= 0</text>
</g>
<!-- Node0x8dbe9260&#45;&gt;Node0x8dbe8e60 -->
<g id="edge26" class="edge"><title>Node0x8dbe9260&#45;&gt;Node0x8dbe8e60</title>
<path fill="none" stroke="black" d="M242.065,-538.792C222.658,-554.485 199,-579.553 199,-608.5 199,-1098.5 199,-1098.5 199,-1098.5 199,-1138.81 199,-1184.22 199,-1219.21"/>
<polygon fill="black" stroke="black" points="195.5,-1219.26 199,-1229.26 202.5,-1219.26 195.5,-1219.26"/>
</g>
<!-- Node0x8dbe3880 -->
<g id="node22" class="node"><title>Node0x8dbe3880</title>
<polygon fill="none" stroke="black" points="225,-427.5 225,-463.5 579,-463.5 579,-427.5 225,-427.5"/>
<text text-anchor="start" x="233" y="-441.8" font-family="Times,serif" font-size="14.00">if (v13 &gt; *(IntToPtrCastExpr&lt;ptr&gt;((v12 &#45; 8)))):</text>
</g>
<!-- Node0x8dbe4c10&#45;&gt;Node0x8dbe3880 -->
<g id="edge27" class="edge"><title>Node0x8dbe4c10&#45;&gt;Node0x8dbe3880</title>
<path fill="none" stroke="black" d="M402,-501.455C402,-493.201 402,-483.238 402,-474.074"/>
<polygon fill="black" stroke="black" points="405.5,-473.835 402,-463.835 398.5,-473.835 405.5,-473.835"/>
</g>
<!-- Node0x8dbe92f0 -->
<g id="node23" class="node"><title>Node0x8dbe92f0</title>
<polygon fill="none" stroke="black" points="107,-218.5 107,-254.5 247,-254.5 247,-218.5 107,-218.5"/>
<text text-anchor="start" x="115" y="-232.8" font-family="Times,serif" font-size="14.00">goto 0x402847_2</text>
</g>
<!-- Node0x8dbe3880&#45;&gt;Node0x8dbe92f0 -->
<g id="edge28" class="edge"><title>Node0x8dbe3880&#45;&gt;Node0x8dbe92f0</title>
<path fill="none" stroke="black" d="M229.754,-427.381C212.088,-422.67 198.035,-416.661 191,-409 155.049,-369.846 162.311,-302.268 170.082,-264.694"/>
<polygon fill="black" stroke="black" points="173.595,-265.022 172.358,-254.5 166.763,-263.497 173.595,-265.022"/>
<text text-anchor="middle" x="345.5" y="-397.8" font-family="Times,serif" font-size="14.00">v13 &gt; *(IntToPtrCastExpr&lt;ptr&gt;((v12 &#45; 8)))</text>
</g>
<!-- Node0x8dbe8c50 -->
<g id="node24" class="node"><title>Node0x8dbe8c50</title>
<polygon fill="none" stroke="black" points="281,-97.5 281,-375.5 771,-375.5 771,-97.5 281,-97.5"/>
<text text-anchor="start" x="289" y="-360.3" font-family="Times,serif" font-size="14.00">0x402871:</text>
<text text-anchor="start" x="289" y="-345.3" font-family="Times,serif" font-size="14.00"> *(IntToPtrCastExpr&lt;ptr&gt;((v12 &#45; 12))) = v13</text>
<text text-anchor="start" x="289" y="-330.3" font-family="Times,serif" font-size="14.00"> g2 = *(IntToPtrCastExpr&lt;ptr&gt;(g7))</text>
<text text-anchor="start" x="289" y="-315.3" font-family="Times,serif" font-size="14.00"> *(IntToPtrCastExpr&lt;ptr&gt;((g10 &#45; 4))) = g9</text>
<text text-anchor="start" x="289" y="-300.3" font-family="Times,serif" font-size="14.00"> v14 = (g10 &#45; 8)</text>
<text text-anchor="start" x="289" y="-285.3" font-family="Times,serif" font-size="14.00"> *(IntToPtrCastExpr&lt;ptr&gt;(v14)) = g4</text>
<text text-anchor="start" x="289" y="-270.3" font-family="Times,serif" font-size="14.00"> *(IntToPtrCastExpr&lt;ptr&gt;((g2 + g9))) = 0</text>
<text text-anchor="start" x="289" y="-255.3" font-family="Times,serif" font-size="14.00"> *(IntToPtrCastExpr&lt;ptr&gt;((v14 &#45; 4))) = g9</text>
<text text-anchor="start" x="289" y="-240.3" font-family="Times,serif" font-size="14.00"> v15 = (v14 &#45; 8)</text>
<text text-anchor="start" x="289" y="-225.3" font-family="Times,serif" font-size="14.00"> *(IntToPtrCastExpr&lt;ptr&gt;(v15)) = *(IntToPtrCastExpr&lt;ptr&gt;(g7))</text>
<text text-anchor="start" x="289" y="-210.3" font-family="Times,serif" font-size="14.00"> *(IntToPtrCastExpr&lt;ptr&gt;((v14 &#45; 12))) = 4204677</text>
<text text-anchor="start" x="289" y="-195.3" font-family="Times,serif" font-size="14.00"> _memcpy_s()</text>
<text text-anchor="start" x="289" y="-180.3" font-family="Times,serif" font-size="14.00"> g9 = *(IntToPtrCastExpr&lt;ptr&gt;((v15 + 16)))</text>
<text text-anchor="start" x="289" y="-165.3" font-family="Times,serif" font-size="14.00"> g4 = *(IntToPtrCastExpr&lt;ptr&gt;((v15 + 20)))</text>
<text text-anchor="start" x="289" y="-150.3" font-family="Times,serif" font-size="14.00"> result = g7</text>
<text text-anchor="start" x="289" y="-135.3" font-family="Times,serif" font-size="14.00"> g7 = *(IntToPtrCastExpr&lt;ptr&gt;((v15 + 24)))</text>
<text text-anchor="start" x="289" y="-120.3" font-family="Times,serif" font-size="14.00"> g10 = (v15 + 44)</text>
<text text-anchor="start" x="289" y="-105.3" font-family="Times,serif" font-size="14.00"> return result</text>
</g>
<!-- Node0x8dbe3880&#45;&gt;Node0x8dbe8c50 -->
<g id="edge29" class="edge"><title>Node0x8dbe3880&#45;&gt;Node0x8dbe8c50</title>
<path fill="none" stroke="black" d="M480.882,-427.491C489.697,-422.759 497.738,-416.716 504,-409 509.904,-401.725 514.695,-393.675 518.557,-385.147"/>
<polygon fill="black" stroke="black" points="521.866,-386.301 522.392,-375.719 515.382,-383.663 521.866,-386.301"/>
<text text-anchor="middle" x="675.5" y="-397.8" font-family="Times,serif" font-size="14.00">v13 &lt;= *(IntToPtrCastExpr&lt;ptr&gt;((v12 &#45; 8)))</text>
</g>
<!-- Node0x8dbe92f0&#45;&gt;Node0x8dbe8e60 -->
<g id="edge30" class="edge"><title>Node0x8dbe92f0&#45;&gt;Node0x8dbe8e60</title>
<path fill="none" stroke="black" d="M174.775,-254.64C170.379,-290.044 161,-373.852 161,-444.5 161,-1098.5 161,-1098.5 161,-1098.5 161,-1139.56 170.685,-1184.78 180.277,-1219.5"/>
<polygon fill="black" stroke="black" points="177.006,-1220.8 183.105,-1229.46 183.74,-1218.89 177.006,-1220.8"/>
</g>
<!-- Node0x23ee2700 -->
<g id="node25" class="node"><title>Node0x23ee2700</title>
<polygon fill="none" stroke="black" points="499,-23.5 499,-59.5 553,-59.5 553,-23.5 499,-23.5"/>
<text text-anchor="start" x="507" y="-37.8" font-family="Times,serif" font-size="14.00">exit:</text>
</g>
<!-- Node0x8dbe8c50&#45;&gt;Node0x23ee2700 -->
<g id="edge31" class="edge"><title>Node0x8dbe8c50&#45;&gt;Node0x23ee2700</title>
<path fill="none" stroke="black" d="M526,-97.2898C526,-87.1541 526,-77.7786 526,-69.7532"/>
<polygon fill="black" stroke="black" points="529.5,-69.7017 526,-59.7017 522.5,-69.7017 529.5,-69.7017"/>
</g>
</g>
</svg>
