<?xml version="1.0" encoding="UTF-8" standalone="no"?>
<!DOCTYPE svg PUBLIC "-//W3C//DTD SVG 1.1//EN"
 "http://www.w3.org/Graphics/SVG/1.1/DTD/svg11.dtd">
<!-- Generated by graphviz version 2.38.0 (20140413.2041)
 -->
<!-- Title: Control&#45;flow graph for function &#39;function_408ae2()&#39;. Pages: 1 -->
<svg width="394pt" height="426pt"
 viewBox="0.00 0.00 394.00 426.00" xmlns="http://www.w3.org/2000/svg" xmlns:xlink="http://www.w3.org/1999/xlink">
<g id="graph0" class="graph" transform="scale(1 1) rotate(0) translate(4 422)">
<title>Control&#45;flow graph for function &#39;function_408ae2()&#39;.</title>
<polygon fill="white" stroke="none" points="-4,4 -4,-422 390,-422 390,4 -4,4"/>
<text text-anchor="middle" x="193" y="-7.8" font-family="Times,serif" font-size="14.00">Control&#45;flow graph for function &#39;function_408ae2()&#39;.</text>
<!-- Node0xc1d5c020 -->
<g id="node1" class="node"><title>Node0xc1d5c020</title>
<polygon fill="none" stroke="black" points="163.5,-381.5 163.5,-417.5 222.5,-417.5 222.5,-381.5 163.5,-381.5"/>
<text text-anchor="start" x="171.5" y="-395.8" font-family="Times,serif" font-size="14.00">entry:</text>
</g>
<!-- Node0xc1d5c270 -->
<g id="node2" class="node"><title>Node0xc1d5c270</title>
<polygon fill="none" stroke="black" points="30,-96.5 30,-344.5 356,-344.5 356,-96.5 30,-96.5"/>
<text text-anchor="start" x="38" y="-329.3" font-family="Times,serif" font-size="14.00">v1</text>
<text text-anchor="start" x="38" y="-314.3" font-family="Times,serif" font-size="14.00"> g3 = &amp;(v1)</text>
<text text-anchor="start" x="38" y="-299.3" font-family="Times,serif" font-size="14.00"> v2</text>
<text text-anchor="start" x="38" y="-284.3" font-family="Times,serif" font-size="14.00"> g2 = &amp;(v2)</text>
<text text-anchor="start" x="38" y="-269.3" font-family="Times,serif" font-size="14.00"> _memset(BitCastExpr&lt;ptr&gt;(&amp;(v2)))</text>
<text text-anchor="start" x="38" y="-254.3" font-family="Times,serif" font-size="14.00"> lpVersionInformation</text>
<text text-anchor="start" x="38" y="-239.3" font-family="Times,serif" font-size="14.00"> g2 = &amp;(lpVersionInformation)</text>
<text text-anchor="start" x="38" y="-224.3" font-family="Times,serif" font-size="14.00"> lpVersionInformation = 148</text>
<text text-anchor="start" x="38" y="-209.3" font-family="Times,serif" font-size="14.00"> GetVersionExA(&amp;(lpVersionInformation))</text>
<text text-anchor="start" x="38" y="-194.3" font-family="Times,serif" font-size="14.00"> g2 = 0</text>
<text text-anchor="start" x="38" y="-179.3" font-family="Times,serif" font-size="14.00"> v3</text>
<text text-anchor="start" x="38" y="-164.3" font-family="Times,serif" font-size="14.00"> g5 = &amp;(v3)</text>
<text text-anchor="start" x="38" y="-149.3" font-family="Times,serif" font-size="14.00"> function_4201ce(&amp;(lpVersionInformation))</text>
<text text-anchor="start" x="38" y="-134.3" font-family="Times,serif" font-size="14.00"> g3 = v1</text>
<text text-anchor="start" x="38" y="-119.3" font-family="Times,serif" font-size="14.00"> v4</text>
<text text-anchor="start" x="38" y="-104.3" font-family="Times,serif" font-size="14.00"> return (v4 == 2)</text>
</g>
<!-- Node0xc1d5c020&#45;&gt;Node0xc1d5c270 -->
<g id="edge1" class="edge"><title>Node0xc1d5c020&#45;&gt;Node0xc1d5c270</title>
<path fill="none" stroke="black" d="M193,-381.206C193,-373.955 193,-364.831 193,-354.638"/>
<polygon fill="black" stroke="black" points="196.5,-354.562 193,-344.562 189.5,-354.562 196.5,-354.562"/>
</g>
<!-- Node0xc1d5ab70 -->
<g id="node3" class="node"><title>Node0xc1d5ab70</title>
<polygon fill="none" stroke="black" points="166,-23.5 166,-59.5 220,-59.5 220,-23.5 166,-23.5"/>
<text text-anchor="start" x="174" y="-37.8" font-family="Times,serif" font-size="14.00">exit:</text>
</g>
<!-- Node0xc1d5c270&#45;&gt;Node0xc1d5ab70 -->
<g id="edge2" class="edge"><title>Node0xc1d5c270&#45;&gt;Node0xc1d5ab70</title>
<path fill="none" stroke="black" d="M193,-96.0862C193,-86.536 193,-77.6318 193,-69.9315"/>
<polygon fill="black" stroke="black" points="196.5,-69.9051 193,-59.9051 189.5,-69.9052 196.5,-69.9051"/>
</g>
</g>
</svg>
