<?xml version="1.0" encoding="UTF-8" standalone="no"?>
<!DOCTYPE svg PUBLIC "-//W3C//DTD SVG 1.1//EN"
 "http://www.w3.org/Graphics/SVG/1.1/DTD/svg11.dtd">
<!-- Generated by graphviz version 2.38.0 (20140413.2041)
 -->
<!-- Title: Control&#45;flow graph for function &#39;function_41bfd7(*a1)&#39;. Pages: 1 -->
<svg width="416pt" height="490pt"
 viewBox="0.00 0.00 416.00 490.00" xmlns="http://www.w3.org/2000/svg" xmlns:xlink="http://www.w3.org/1999/xlink">
<g id="graph0" class="graph" transform="scale(1 1) rotate(0) translate(4 486)">
<title>Control&#45;flow graph for function &#39;function_41bfd7(*a1)&#39;.</title>
<polygon fill="white" stroke="none" points="-4,4 -4,-486 412,-486 412,4 -4,4"/>
<text text-anchor="middle" x="204" y="-7.8" font-family="Times,serif" font-size="14.00">Control&#45;flow graph for function &#39;function_41bfd7(*a1)&#39;.</text>
<!-- Node0x2fef4a30 -->
<g id="node1" class="node"><title>Node0x2fef4a30</title>
<polygon fill="none" stroke="black" points="178,-443.5 178,-481.5 237,-481.5 237,-443.5 178,-443.5"/>
<text text-anchor="start" x="186" y="-466.3" font-family="Times,serif" font-size="14.00">entry:</text>
<text text-anchor="start" x="186" y="-451.3" font-family="Times,serif" font-size="14.00"> a1</text>
</g>
<!-- Node0x5b99b640 -->
<g id="node2" class="node"><title>Node0x5b99b640</title>
<polygon fill="none" stroke="black" points="65,-352.5 65,-405.5 350,-405.5 350,-352.5 65,-352.5"/>
<text text-anchor="start" x="73" y="-390.3" font-family="Times,serif" font-size="14.00">v1 = *(a1)</text>
<text text-anchor="start" x="73" y="-375.3" font-family="Times,serif" font-size="14.00"> result = v1</text>
<text text-anchor="start" x="73" y="-360.3" font-family="Times,serif" font-size="14.00"> v2 = IntToPtrCastExpr&lt;ptr&gt;(result)</text>
</g>
<!-- Node0x2fef4a30&#45;&gt;Node0x5b99b640 -->
<g id="edge1" class="edge"><title>Node0x2fef4a30&#45;&gt;Node0x5b99b640</title>
<path fill="none" stroke="black" d="M207.5,-443.413C207.5,-435.285 207.5,-425.394 207.5,-415.864"/>
<polygon fill="black" stroke="black" points="211,-415.766 207.5,-405.766 204,-415.766 211,-415.766"/>
</g>
<!-- Node0x5b99ade0 -->
<g id="node3" class="node"><title>Node0x5b99ade0</title>
<polygon fill="none" stroke="black" points="158,-278.5 158,-314.5 257,-314.5 257,-278.5 158,-278.5"/>
<text text-anchor="start" x="166" y="-292.8" font-family="Times,serif" font-size="14.00">if (v1 != 0):</text>
</g>
<!-- Node0x5b99b640&#45;&gt;Node0x5b99ade0 -->
<g id="edge2" class="edge"><title>Node0x5b99b640&#45;&gt;Node0x5b99ade0</title>
<path fill="none" stroke="black" d="M207.5,-352.086C207.5,-343.46 207.5,-333.822 207.5,-325.075"/>
<polygon fill="black" stroke="black" points="211,-324.973 207.5,-314.974 204,-324.974 211,-324.973"/>
</g>
<!-- Node0x9e026800 -->
<g id="node4" class="node"><title>Node0x9e026800</title>
<polygon fill="none" stroke="black" points="58,-173.5 58,-226.5 207,-226.5 207,-173.5 58,-173.5"/>
<text text-anchor="start" x="66" y="-211.3" font-family="Times,serif" font-size="14.00">0x41bfdf:</text>
<text text-anchor="start" x="66" y="-196.3" font-family="Times,serif" font-size="14.00"> v2[&#39;1&#39;] = 0</text>
<text text-anchor="start" x="66" y="-181.3" font-family="Times,serif" font-size="14.00"> v2[&#39;0&#39;] = 4438604</text>
</g>
<!-- Node0x5b99ade0&#45;&gt;Node0x9e026800 -->
<g id="edge3" class="edge"><title>Node0x5b99ade0&#45;&gt;Node0x9e026800</title>
<path fill="none" stroke="black" d="M190.583,-278.21C185.273,-272.547 179.497,-266.132 174.5,-260 168.007,-252.032 161.377,-243.136 155.361,-234.718"/>
<polygon fill="black" stroke="black" points="158.199,-232.669 149.577,-226.511 152.477,-236.701 158.199,-232.669"/>
<text text-anchor="middle" x="201.5" y="-248.8" font-family="Times,serif" font-size="14.00">v1 != 0</text>
</g>
<!-- Node0x9e026670 -->
<g id="node5" class="node"><title>Node0x9e026670</title>
<polygon fill="none" stroke="black" points="152,-97.5 152,-135.5 265,-135.5 265,-97.5 152,-97.5"/>
<text text-anchor="start" x="160" y="-120.3" font-family="Times,serif" font-size="14.00">0x41bfe9:</text>
<text text-anchor="start" x="160" y="-105.3" font-family="Times,serif" font-size="14.00"> return result</text>
</g>
<!-- Node0x5b99ade0&#45;&gt;Node0x9e026670 -->
<g id="edge4" class="edge"><title>Node0x5b99ade0&#45;&gt;Node0x9e026670</title>
<path fill="none" stroke="black" d="M220.172,-278.283C223.56,-272.726 226.761,-266.354 228.5,-260 239.175,-220.986 228.347,-174.32 218.945,-145.288"/>
<polygon fill="black" stroke="black" points="222.251,-144.136 215.717,-135.796 215.623,-146.39 222.251,-144.136"/>
<text text-anchor="middle" x="262.5" y="-196.3" font-family="Times,serif" font-size="14.00">v1 == 0</text>
</g>
<!-- Node0x9e026800&#45;&gt;Node0x9e026670 -->
<g id="edge5" class="edge"><title>Node0x9e026800&#45;&gt;Node0x9e026670</title>
<path fill="none" stroke="black" d="M156.547,-173.213C165.537,-163.572 175.738,-152.633 184.705,-143.017"/>
<polygon fill="black" stroke="black" points="187.326,-145.339 191.586,-135.638 182.206,-140.565 187.326,-145.339"/>
</g>
<!-- Node0x2fefcf60 -->
<g id="node6" class="node"><title>Node0x2fefcf60</title>
<polygon fill="none" stroke="black" points="181.5,-23.5 181.5,-59.5 235.5,-59.5 235.5,-23.5 181.5,-23.5"/>
<text text-anchor="start" x="189.5" y="-37.8" font-family="Times,serif" font-size="14.00">exit:</text>
</g>
<!-- Node0x9e026670&#45;&gt;Node0x2fefcf60 -->
<g id="edge6" class="edge"><title>Node0x9e026670&#45;&gt;Node0x2fefcf60</title>
<path fill="none" stroke="black" d="M208.5,-97.4551C208.5,-89.2008 208.5,-79.2377 208.5,-70.0742"/>
<polygon fill="black" stroke="black" points="212,-69.8347 208.5,-59.8347 205,-69.8347 212,-69.8347"/>
</g>
</g>
</svg>
