<?xml version="1.0" encoding="UTF-8" standalone="no"?>
<!DOCTYPE svg PUBLIC "-//W3C//DTD SVG 1.1//EN"
 "http://www.w3.org/Graphics/SVG/1.1/DTD/svg11.dtd">
<!-- Generated by graphviz version 2.38.0 (20140413.2041)
 -->
<!-- Title: Control&#45;flow graph for function &#39;function_40af85()&#39;. Pages: 1 -->
<svg width="778pt" height="622pt"
 viewBox="0.00 0.00 777.50 622.00" xmlns="http://www.w3.org/2000/svg" xmlns:xlink="http://www.w3.org/1999/xlink">
<g id="graph0" class="graph" transform="scale(1 1) rotate(0) translate(4 618)">
<title>Control&#45;flow graph for function &#39;function_40af85()&#39;.</title>
<polygon fill="white" stroke="none" points="-4,4 -4,-618 773.5,-618 773.5,4 -4,4"/>
<text text-anchor="middle" x="384.75" y="-7.8" font-family="Times,serif" font-size="14.00">Control&#45;flow graph for function &#39;function_40af85()&#39;.</text>
<!-- Node0x77be6810 -->
<g id="node1" class="node"><title>Node0x77be6810</title>
<polygon fill="none" stroke="black" points="374,-577.5 374,-613.5 433,-613.5 433,-577.5 374,-577.5"/>
<text text-anchor="start" x="382" y="-591.8" font-family="Times,serif" font-size="14.00">entry:</text>
</g>
<!-- Node0x77be7550 -->
<g id="node2" class="node"><title>Node0x77be7550</title>
<polygon fill="none" stroke="black" points="150,-441.5 150,-539.5 657,-539.5 657,-441.5 150,-441.5"/>
<text text-anchor="start" x="158" y="-524.3" font-family="Times,serif" font-size="14.00">0x40af85:</text>
<text text-anchor="start" x="158" y="-509.3" font-family="Times,serif" font-size="14.00"> g5 = 4502888</text>
<text text-anchor="start" x="158" y="-494.3" font-family="Times,serif" font-size="14.00"> v1 = function_411315(PtrToIntCastExpr&lt;int32&gt;(function_405f92))</text>
<text text-anchor="start" x="158" y="-479.3" font-family="Times,serif" font-size="14.00"> g9 = v1</text>
<text text-anchor="start" x="158" y="-464.3" font-family="Times,serif" font-size="14.00"> g1 = False</text>
<text text-anchor="start" x="158" y="-449.3" font-family="Times,serif" font-size="14.00"> g180 = (v1 == 0)</text>
</g>
<!-- Node0x77be6810&#45;&gt;Node0x77be7550 -->
<g id="edge1" class="edge"><title>Node0x77be6810&#45;&gt;Node0x77be7550</title>
<path fill="none" stroke="black" d="M403.5,-577.492C403.5,-569.692 403.5,-559.94 403.5,-549.829"/>
<polygon fill="black" stroke="black" points="407,-549.659 403.5,-539.659 400,-549.659 407,-549.659"/>
</g>
<!-- Node0x77be76d0 -->
<g id="node3" class="node"><title>Node0x77be76d0</title>
<polygon fill="none" stroke="black" points="351,-367.5 351,-403.5 456,-403.5 456,-367.5 351,-367.5"/>
<text text-anchor="start" x="359" y="-381.8" font-family="Times,serif" font-size="14.00">if (v1 == 0):</text>
</g>
<!-- Node0x77be7550&#45;&gt;Node0x77be76d0 -->
<g id="edge2" class="edge"><title>Node0x77be7550&#45;&gt;Node0x77be76d0</title>
<path fill="none" stroke="black" d="M403.5,-441.317C403.5,-431.893 403.5,-422.32 403.5,-413.868"/>
<polygon fill="black" stroke="black" points="407,-413.856 403.5,-403.856 400,-413.856 407,-413.856"/>
</g>
<!-- Node0x77be4ac0 -->
<g id="node4" class="node"><title>Node0x77be4ac0</title>
<polygon fill="none" stroke="black" points="0,-180 0,-233 413,-233 413,-180 0,-180"/>
<text text-anchor="start" x="8" y="-217.8" font-family="Times,serif" font-size="14.00">0x40af9b:</text>
<text text-anchor="start" x="8" y="-202.8" font-family="Times,serif" font-size="14.00"> function_40ede0(BitCastExpr&lt;ptr&gt;(function_405f92))</text>
<text text-anchor="start" x="8" y="-187.8" font-family="Times,serif" font-size="14.00"> return 0</text>
</g>
<!-- Node0x77be76d0&#45;&gt;Node0x77be4ac0 -->
<g id="edge3" class="edge"><title>Node0x77be76d0&#45;&gt;Node0x77be4ac0</title>
<path fill="none" stroke="black" d="M384.252,-367.206C351.44,-337.725 284.185,-277.298 242.461,-239.81"/>
<polygon fill="black" stroke="black" points="244.759,-237.17 234.981,-233.09 240.08,-242.377 244.759,-237.17"/>
<text text-anchor="middle" x="391.5" y="-337.8" font-family="Times,serif" font-size="14.00">v1 == 0</text>
</g>
<!-- Node0x77be78c0 -->
<g id="node5" class="node"><title>Node0x77be78c0</title>
<polygon fill="none" stroke="black" points="431.5,-97.5 431.5,-315.5 769.5,-315.5 769.5,-97.5 431.5,-97.5"/>
<text text-anchor="start" x="439.5" y="-300.3" font-family="Times,serif" font-size="14.00">0x40afa0:</text>
<text text-anchor="start" x="439.5" y="-285.3" font-family="Times,serif" font-size="14.00"> GetMessageTime()</text>
<text text-anchor="start" x="439.5" y="-270.3" font-family="Times,serif" font-size="14.00"> *(IntToPtrCastExpr&lt;ptr&gt;((g9 + 104))) = v1</text>
<text text-anchor="start" x="439.5" y="-255.3" font-family="Times,serif" font-size="14.00"> v2 = GetMessagePos()</text>
<text text-anchor="start" x="439.5" y="-240.3" font-family="Times,serif" font-size="14.00"> g5 = ((65536 * v2) / 65536)</text>
<text text-anchor="start" x="439.5" y="-225.3" font-family="Times,serif" font-size="14.00"> g1 = ((v2 &amp; 32768) != 0)</text>
<text text-anchor="start" x="439.5" y="-210.3" font-family="Times,serif" font-size="14.00"> g180 = (v2 &lt; 65536)</text>
<text text-anchor="start" x="439.5" y="-195.3" font-family="Times,serif" font-size="14.00"> v3 = (v2 / 65536)</text>
<text text-anchor="start" x="439.5" y="-180.3" font-family="Times,serif" font-size="14.00"> g2 = v3</text>
<text text-anchor="start" x="439.5" y="-165.3" font-family="Times,serif" font-size="14.00"> *(IntToPtrCastExpr&lt;ptr&gt;((g9 + 112))) = v3</text>
<text text-anchor="start" x="439.5" y="-150.3" font-family="Times,serif" font-size="14.00"> *(IntToPtrCastExpr&lt;ptr&gt;((g9 + 108))) = g5</text>
<text text-anchor="start" x="439.5" y="-135.3" font-family="Times,serif" font-size="14.00"> v4 = g9</text>
<text text-anchor="start" x="439.5" y="-120.3" font-family="Times,serif" font-size="14.00"> g9 = function_405f92</text>
<text text-anchor="start" x="439.5" y="-105.3" font-family="Times,serif" font-size="14.00"> return (v4 + 88)</text>
</g>
<!-- Node0x77be76d0&#45;&gt;Node0x77be78c0 -->
<g id="edge4" class="edge"><title>Node0x77be76d0&#45;&gt;Node0x77be78c0</title>
<path fill="none" stroke="black" d="M422.748,-367.206C435.368,-355.868 453.083,-339.951 472.481,-322.523"/>
<polygon fill="black" stroke="black" points="474.891,-325.062 479.99,-315.775 470.212,-319.855 474.891,-325.062"/>
<text text-anchor="middle" x="483.5" y="-337.8" font-family="Times,serif" font-size="14.00">v1 != 0</text>
</g>
<!-- Node0x77be7210 -->
<g id="node6" class="node"><title>Node0x77be7210</title>
<polygon fill="none" stroke="black" points="421.5,-23.5 421.5,-59.5 475.5,-59.5 475.5,-23.5 421.5,-23.5"/>
<text text-anchor="start" x="429.5" y="-37.8" font-family="Times,serif" font-size="14.00">exit:</text>
</g>
<!-- Node0x77be4ac0&#45;&gt;Node0x77be7210 -->
<g id="edge5" class="edge"><title>Node0x77be4ac0&#45;&gt;Node0x77be7210</title>
<path fill="none" stroke="black" d="M244.579,-179.852C291.374,-148.333 370.051,-95.3396 414.764,-65.2232"/>
<polygon fill="black" stroke="black" points="416.895,-68.0076 423.234,-59.5181 412.984,-62.2017 416.895,-68.0076"/>
</g>
<!-- Node0x77be78c0&#45;&gt;Node0x77be7210 -->
<g id="edge6" class="edge"><title>Node0x77be78c0&#45;&gt;Node0x77be7210</title>
<path fill="none" stroke="black" d="M499.537,-97.2301C489.125,-86.0652 479.417,-75.6542 471.322,-66.9736"/>
<polygon fill="black" stroke="black" points="473.747,-64.4426 464.368,-59.516 468.628,-69.2166 473.747,-64.4426"/>
</g>
</g>
</svg>
