<?xml version="1.0" encoding="UTF-8" standalone="no"?>
<!DOCTYPE svg PUBLIC "-//W3C//DTD SVG 1.1//EN"
 "http://www.w3.org/Graphics/SVG/1.1/DTD/svg11.dtd">
<!-- Generated by graphviz version 2.38.0 (20140413.2041)
 -->
<!-- Title: Control&#45;flow graph for function &#39;function_4069c4()&#39;. Pages: 1 -->
<svg width="462pt" height="216pt"
 viewBox="0.00 0.00 462.00 216.00" xmlns="http://www.w3.org/2000/svg" xmlns:xlink="http://www.w3.org/1999/xlink">
<g id="graph0" class="graph" transform="scale(1 1) rotate(0) translate(4 212)">
<title>Control&#45;flow graph for function &#39;function_4069c4()&#39;.</title>
<polygon fill="white" stroke="none" points="-4,4 -4,-212 458,-212 458,4 -4,4"/>
<text text-anchor="middle" x="227" y="-7.8" font-family="Times,serif" font-size="14.00">Control&#45;flow graph for function &#39;function_4069c4()&#39;.</text>
<!-- Node0x64a65b90 -->
<g id="node1" class="node"><title>Node0x64a65b90</title>
<polygon fill="none" stroke="black" points="197.5,-171.5 197.5,-207.5 256.5,-207.5 256.5,-171.5 197.5,-171.5"/>
<text text-anchor="start" x="205.5" y="-185.8" font-family="Times,serif" font-size="14.00">entry:</text>
</g>
<!-- Node0x64a65870 -->
<g id="node2" class="node"><title>Node0x64a65870</title>
<polygon fill="none" stroke="black" points="0,-96.5 0,-134.5 454,-134.5 454,-96.5 0,-96.5"/>
<text text-anchor="start" x="8" y="-119.3" font-family="Times,serif" font-size="14.00">0x4069c4:</text>
<text text-anchor="start" x="8" y="-104.3" font-family="Times,serif" font-size="14.00"> return *(IntToPtrCastExpr&lt;ptr&gt;((function_40fcfe() + 236)))</text>
</g>
<!-- Node0x64a65b90&#45;&gt;Node0x64a65870 -->
<g id="edge1" class="edge"><title>Node0x64a65b90&#45;&gt;Node0x64a65870</title>
<path fill="none" stroke="black" d="M227,-171.437C227,-163.487 227,-153.813 227,-144.813"/>
<polygon fill="black" stroke="black" points="230.5,-144.699 227,-134.699 223.5,-144.699 230.5,-144.699"/>
</g>
<!-- Node0x64a647b0 -->
<g id="node3" class="node"><title>Node0x64a647b0</title>
<polygon fill="none" stroke="black" points="200,-23.5 200,-59.5 254,-59.5 254,-23.5 200,-23.5"/>
<text text-anchor="start" x="208" y="-37.8" font-family="Times,serif" font-size="14.00">exit:</text>
</g>
<!-- Node0x64a65870&#45;&gt;Node0x64a647b0 -->
<g id="edge2" class="edge"><title>Node0x64a65870&#45;&gt;Node0x64a647b0</title>
<path fill="none" stroke="black" d="M227,-96.3314C227,-88.394 227,-78.9095 227,-70.1285"/>
<polygon fill="black" stroke="black" points="230.5,-69.9177 227,-59.9177 223.5,-69.9177 230.5,-69.9177"/>
</g>
</g>
</svg>
