<?xml version="1.0" encoding="UTF-8" standalone="no"?>
<!DOCTYPE svg PUBLIC "-//W3C//DTD SVG 1.1//EN"
 "http://www.w3.org/Graphics/SVG/1.1/DTD/svg11.dtd">
<!-- Generated by graphviz version 2.38.0 (20140413.2041)
 -->
<!-- Title: Control&#45;flow graph for function &#39;function_40a995(a1, *a2, a3, a4)&#39;. Pages: 1 -->
<svg width="567pt" height="1022pt"
 viewBox="0.00 0.00 566.50 1022.00" xmlns="http://www.w3.org/2000/svg" xmlns:xlink="http://www.w3.org/1999/xlink">
<g id="graph0" class="graph" transform="scale(1 1) rotate(0) translate(4 1018)">
<title>Control&#45;flow graph for function &#39;function_40a995(a1, *a2, a3, a4)&#39;.</title>
<polygon fill="white" stroke="none" points="-4,4 -4,-1018 562.5,-1018 562.5,4 -4,4"/>
<text text-anchor="middle" x="279.25" y="-7.8" font-family="Times,serif" font-size="14.00">Control&#45;flow graph for function &#39;function_40a995(a1, *a2, a3, a4)&#39;.</text>
<!-- Node0x13e1ef80 -->
<g id="node1" class="node"><title>Node0x13e1ef80</title>
<polygon fill="none" stroke="black" points="185,-930.5 185,-1013.5 244,-1013.5 244,-930.5 185,-930.5"/>
<text text-anchor="start" x="193" y="-998.3" font-family="Times,serif" font-size="14.00">entry:</text>
<text text-anchor="start" x="193" y="-983.3" font-family="Times,serif" font-size="14.00"> a1</text>
<text text-anchor="start" x="193" y="-968.3" font-family="Times,serif" font-size="14.00"> a2</text>
<text text-anchor="start" x="193" y="-953.3" font-family="Times,serif" font-size="14.00"> a3</text>
<text text-anchor="start" x="193" y="-938.3" font-family="Times,serif" font-size="14.00"> a4</text>
</g>
<!-- Node0x13e1f540 -->
<g id="node2" class="node"><title>Node0x13e1f540</title>
<polygon fill="none" stroke="black" points="76,-749.5 76,-892.5 353,-892.5 353,-749.5 76,-749.5"/>
<text text-anchor="start" x="84" y="-877.3" font-family="Times,serif" font-size="14.00">0x40a995:</text>
<text text-anchor="start" x="84" y="-862.3" font-family="Times,serif" font-size="14.00"> v1</text>
<text text-anchor="start" x="84" y="-847.3" font-family="Times,serif" font-size="14.00"> v2 = v1</text>
<text text-anchor="start" x="84" y="-832.3" font-family="Times,serif" font-size="14.00"> v3 = g3</text>
<text text-anchor="start" x="84" y="-817.3" font-family="Times,serif" font-size="14.00"> v4 = v3</text>
<text text-anchor="start" x="84" y="-802.3" font-family="Times,serif" font-size="14.00"> g3 = &amp;(v4)</text>
<text text-anchor="start" x="84" y="-787.3" font-family="Times,serif" font-size="14.00"> v5 = g5</text>
<text text-anchor="start" x="84" y="-772.3" font-family="Times,serif" font-size="14.00"> v6 = v5</text>
<text text-anchor="start" x="84" y="-757.3" font-family="Times,serif" font-size="14.00"> g7 = PtrToIntCastExpr&lt;int32&gt;(a2)</text>
</g>
<!-- Node0x13e1ef80&#45;&gt;Node0x13e1f540 -->
<g id="edge1" class="edge"><title>Node0x13e1ef80&#45;&gt;Node0x13e1f540</title>
<path fill="none" stroke="black" d="M214.5,-930.285C214.5,-921.743 214.5,-912.448 214.5,-903.014"/>
<polygon fill="black" stroke="black" points="218,-902.75 214.5,-892.75 211,-902.75 218,-902.75"/>
</g>
<!-- Node0x13e1f190 -->
<g id="node3" class="node"><title>Node0x13e1f190</title>
<polygon fill="none" stroke="black" points="144.5,-675.5 144.5,-711.5 284.5,-711.5 284.5,-675.5 144.5,-675.5"/>
<text text-anchor="start" x="152.5" y="-689.8" font-family="Times,serif" font-size="14.00">if (a2 == NULL):</text>
</g>
<!-- Node0x13e1f540&#45;&gt;Node0x13e1f190 -->
<g id="edge2" class="edge"><title>Node0x13e1f540&#45;&gt;Node0x13e1f190</title>
<path fill="none" stroke="black" d="M214.5,-749.181C214.5,-739.439 214.5,-729.961 214.5,-721.707"/>
<polygon fill="black" stroke="black" points="218,-721.642 214.5,-711.642 211,-721.642 218,-721.642"/>
</g>
<!-- Node0x1a9c7420 -->
<g id="node4" class="node"><title>Node0x1a9c7420</title>
<polygon fill="none" stroke="black" points="0,-393.5 0,-461.5 277,-461.5 277,-393.5 0,-393.5"/>
<text text-anchor="start" x="8" y="-446.3" font-family="Times,serif" font-size="14.00">0x40a9d0:</text>
<text text-anchor="start" x="8" y="-431.3" font-family="Times,serif" font-size="14.00"> g7 = PtrToIntCastExpr&lt;int32&gt;(v1)</text>
<text text-anchor="start" x="8" y="-416.3" font-family="Times,serif" font-size="14.00"> g3 = v3</text>
<text text-anchor="start" x="8" y="-401.3" font-family="Times,serif" font-size="14.00"> return &#45;2147467261</text>
</g>
<!-- Node0x13e1f190&#45;&gt;Node0x1a9c7420 -->
<g id="edge3" class="edge"><title>Node0x13e1f190&#45;&gt;Node0x1a9c7420</title>
<path fill="none" stroke="black" d="M166.881,-675.443C159.227,-670.634 152.266,-664.577 147.5,-657 112.176,-600.84 119.135,-520.63 128.226,-471.701"/>
<polygon fill="black" stroke="black" points="131.686,-472.242 130.184,-461.755 124.818,-470.89 131.686,-472.242"/>
<text text-anchor="middle" x="194.5" y="-645.8" font-family="Times,serif" font-size="14.00">a2 == NULL</text>
</g>
<!-- Node0x13e1f8b0 -->
<g id="node5" class="node"><title>Node0x13e1f8b0</title>
<polygon fill="none" stroke="black" points="167,-480.5 167,-623.5 488,-623.5 488,-480.5 167,-480.5"/>
<text text-anchor="start" x="175" y="-608.3" font-family="Times,serif" font-size="14.00">v7 = g9</text>
<text text-anchor="start" x="175" y="-593.3" font-family="Times,serif" font-size="14.00"> g9 = a1</text>
<text text-anchor="start" x="175" y="-578.3" font-family="Times,serif" font-size="14.00"> v8 = *(IntToPtrCastExpr&lt;ptr&gt;((a1 &#45; 24)))</text>
<text text-anchor="start" x="175" y="-563.3" font-family="Times,serif" font-size="14.00"> g5 = &amp;(v6)</text>
<text text-anchor="start" x="175" y="-548.3" font-family="Times,serif" font-size="14.00"> function_410276(&amp;(v8), &amp;(v7))</text>
<text text-anchor="start" x="175" y="-533.3" font-family="Times,serif" font-size="14.00"> v9 = *(IntToPtrCastExpr&lt;ptr&gt;((g9 &#45; 20)))</text>
<text text-anchor="start" x="175" y="-518.3" font-family="Times,serif" font-size="14.00"> g2 = v9</text>
<text text-anchor="start" x="175" y="-503.3" font-family="Times,serif" font-size="14.00"> *(IntToPtrCastExpr&lt;ptr&gt;(g7)) = v9</text>
<text text-anchor="start" x="175" y="-488.3" font-family="Times,serif" font-size="14.00"> g9 = v8</text>
</g>
<!-- Node0x13e1f190&#45;&gt;Node0x13e1f8b0 -->
<g id="edge4" class="edge"><title>Node0x13e1f190&#45;&gt;Node0x13e1f8b0</title>
<path fill="none" stroke="black" d="M228.356,-675.395C237.523,-664.078 250.271,-648.341 263.577,-631.913"/>
<polygon fill="black" stroke="black" points="266.567,-633.784 270.141,-623.81 261.127,-629.377 266.567,-633.784"/>
<text text-anchor="middle" x="298.5" y="-645.8" font-family="Times,serif" font-size="14.00">a2 != NULL</text>
</g>
<!-- Node0x13e1f4c0 -->
<g id="node6" class="node"><title>Node0x13e1f4c0</title>
<polygon fill="none" stroke="black" points="162.5,-23.5 162.5,-59.5 216.5,-59.5 216.5,-23.5 162.5,-23.5"/>
<text text-anchor="start" x="170.5" y="-37.8" font-family="Times,serif" font-size="14.00">exit:</text>
</g>
<!-- Node0x1a9c7420&#45;&gt;Node0x13e1f4c0 -->
<g id="edge5" class="edge"><title>Node0x1a9c7420&#45;&gt;Node0x13e1f4c0</title>
<path fill="none" stroke="black" d="M138.5,-393.372C138.5,-370.849 138.5,-340.377 138.5,-313.5 138.5,-313.5 138.5,-313.5 138.5,-130.5 138.5,-107.042 152.233,-84.2335 165.447,-67.7167"/>
<polygon fill="black" stroke="black" points="168.454,-69.5806 172.234,-59.683 163.107,-65.0632 168.454,-69.5806"/>
</g>
<!-- Node0x13e1fab0 -->
<g id="node7" class="node"><title>Node0x13e1fab0</title>
<polygon fill="none" stroke="black" points="278,-338.5 278,-374.5 377,-374.5 377,-338.5 278,-338.5"/>
<text text-anchor="start" x="286" y="-352.8" font-family="Times,serif" font-size="14.00">if (v5 != 0):</text>
</g>
<!-- Node0x13e1f8b0&#45;&gt;Node0x13e1fab0 -->
<g id="edge6" class="edge"><title>Node0x13e1f8b0&#45;&gt;Node0x13e1fab0</title>
<path fill="none" stroke="black" d="M327.5,-480.321C327.5,-447.217 327.5,-409.713 327.5,-384.953"/>
<polygon fill="black" stroke="black" points="331,-384.853 327.5,-374.853 324,-384.853 331,-384.853"/>
</g>
<!-- Node0x13e1fd50 -->
<g id="node8" class="node"><title>Node0x13e1fd50</title>
<polygon fill="none" stroke="black" points="166,-203.5 166,-286.5 475,-286.5 475,-203.5 166,-203.5"/>
<text text-anchor="start" x="174" y="-271.3" font-family="Times,serif" font-size="14.00">0x40a9c4:</text>
<text text-anchor="start" x="174" y="-256.3" font-family="Times,serif" font-size="14.00"> v8 = v6</text>
<text text-anchor="start" x="174" y="-241.3" font-family="Times,serif" font-size="14.00"> v2 = NULL</text>
<text text-anchor="start" x="174" y="-226.3" font-family="Times,serif" font-size="14.00"> g10 = PtrToIntCastExpr&lt;int32&gt;(&amp;(v2))</text>
<text text-anchor="start" x="174" y="-211.3" font-family="Times,serif" font-size="14.00"> function_40fa42()</text>
</g>
<!-- Node0x13e1fab0&#45;&gt;Node0x13e1fd50 -->
<g id="edge7" class="edge"><title>Node0x13e1fab0&#45;&gt;Node0x13e1fd50</title>
<path fill="none" stroke="black" d="M326.406,-338.391C325.688,-327.15 324.707,-311.807 323.751,-296.853"/>
<polygon fill="black" stroke="black" points="327.228,-296.374 323.097,-286.618 320.242,-296.821 327.228,-296.374"/>
<text text-anchor="middle" x="352.5" y="-308.8" font-family="Times,serif" font-size="14.00">v5 != 0</text>
</g>
<!-- Node0x13e1fcf0 -->
<g id="node9" class="node"><title>Node0x13e1fcf0</title>
<polygon fill="none" stroke="black" points="182,-97.5 182,-165.5 459,-165.5 459,-97.5 182,-97.5"/>
<text text-anchor="start" x="190" y="-150.3" font-family="Times,serif" font-size="14.00">0x40a9d0:</text>
<text text-anchor="start" x="190" y="-135.3" font-family="Times,serif" font-size="14.00"> g7 = PtrToIntCastExpr&lt;int32&gt;(v2)</text>
<text text-anchor="start" x="190" y="-120.3" font-family="Times,serif" font-size="14.00"> g3 = v4</text>
<text text-anchor="start" x="190" y="-105.3" font-family="Times,serif" font-size="14.00"> return 0</text>
</g>
<!-- Node0x13e1fab0&#45;&gt;Node0x13e1fcf0 -->
<g id="edge8" class="edge"><title>Node0x13e1fab0&#45;&gt;Node0x13e1fcf0</title>
<path fill="none" stroke="black" d="M377.201,-348.202C413.439,-339.998 460.129,-322.787 483.5,-287 503.913,-255.742 504,-234.202 483.5,-203 475.028,-190.106 463.641,-179.559 450.801,-170.934"/>
<polygon fill="black" stroke="black" points="452.505,-167.872 442.17,-165.539 448.794,-173.807 452.505,-167.872"/>
<text text-anchor="middle" x="528.5" y="-241.3" font-family="Times,serif" font-size="14.00">v5 == 0</text>
</g>
<!-- Node0x13e1fd50&#45;&gt;Node0x13e1fcf0 -->
<g id="edge9" class="edge"><title>Node0x13e1fd50&#45;&gt;Node0x13e1fcf0</title>
<path fill="none" stroke="black" d="M320.5,-203.431C320.5,-194.382 320.5,-184.757 320.5,-175.61"/>
<polygon fill="black" stroke="black" points="324,-175.543 320.5,-165.543 317,-175.544 324,-175.543"/>
</g>
<!-- Node0x13e1fcf0&#45;&gt;Node0x13e1f4c0 -->
<g id="edge10" class="edge"><title>Node0x13e1fcf0&#45;&gt;Node0x13e1f4c0</title>
<path fill="none" stroke="black" d="M271.348,-97.4817C255.475,-86.8193 238.235,-75.2378 223.688,-65.4662"/>
<polygon fill="black" stroke="black" points="225.268,-62.3111 215.016,-59.6402 221.365,-68.1218 225.268,-62.3111"/>
</g>
</g>
</svg>
