<?xml version="1.0" encoding="UTF-8" standalone="no"?>
<!DOCTYPE svg PUBLIC "-//W3C//DTD SVG 1.1//EN"
 "http://www.w3.org/Graphics/SVG/1.1/DTD/svg11.dtd">
<!-- Generated by graphviz version 2.38.0 (20140413.2041)
 -->
<!-- Title: Control&#45;flow graph for function &#39;function_4126a9(**a1, *a2, **a3)&#39;. Pages: 1 -->
<svg width="1004pt" height="489pt"
 viewBox="0.00 0.00 1003.50 489.00" xmlns="http://www.w3.org/2000/svg" xmlns:xlink="http://www.w3.org/1999/xlink">
<g id="graph0" class="graph" transform="scale(1 1) rotate(0) translate(4 485)">
<title>Control&#45;flow graph for function &#39;function_4126a9(**a1, *a2, **a3)&#39;.</title>
<polygon fill="white" stroke="none" points="-4,4 -4,-485 999.5,-485 999.5,4 -4,4"/>
<text text-anchor="middle" x="497.75" y="-7.8" font-family="Times,serif" font-size="14.00">Control&#45;flow graph for function &#39;function_4126a9(**a1, *a2, **a3)&#39;.</text>
<!-- Node0x3a462d50 -->
<g id="node1" class="node"><title>Node0x3a462d50</title>
<polygon fill="none" stroke="black" points="380,-412.5 380,-480.5 439,-480.5 439,-412.5 380,-412.5"/>
<text text-anchor="start" x="388" y="-465.3" font-family="Times,serif" font-size="14.00">entry:</text>
<text text-anchor="start" x="388" y="-450.3" font-family="Times,serif" font-size="14.00"> a1</text>
<text text-anchor="start" x="388" y="-435.3" font-family="Times,serif" font-size="14.00"> a2</text>
<text text-anchor="start" x="388" y="-420.3" font-family="Times,serif" font-size="14.00"> a3</text>
</g>
<!-- Node0x3a460800 -->
<g id="node2" class="node"><title>Node0x3a460800</title>
<polygon fill="none" stroke="black" points="273.5,-336.5 273.5,-374.5 545.5,-374.5 545.5,-336.5 273.5,-336.5"/>
<text text-anchor="start" x="281.5" y="-359.3" font-family="Times,serif" font-size="14.00">v1 = PtrToIntCastExpr&lt;int32&gt;(a2)</text>
<text text-anchor="start" x="281.5" y="-344.3" font-family="Times,serif" font-size="14.00"> g2 = v1</text>
</g>
<!-- Node0x3a462d50&#45;&gt;Node0x3a460800 -->
<g id="edge1" class="edge"><title>Node0x3a462d50&#45;&gt;Node0x3a460800</title>
<path fill="none" stroke="black" d="M409.5,-412.36C409.5,-403.365 409.5,-393.707 409.5,-384.993"/>
<polygon fill="black" stroke="black" points="413,-384.941 409.5,-374.941 406,-384.941 413,-384.941"/>
</g>
<!-- Node0x3a4608d0 -->
<g id="node3" class="node"><title>Node0x3a4608d0</title>
<polygon fill="none" stroke="black" points="270.5,-262.5 270.5,-298.5 548.5,-298.5 548.5,-262.5 270.5,-262.5"/>
<text text-anchor="start" x="278.5" y="-276.8" font-family="Times,serif" font-size="14.00">if ((a2 == NULL) or (a3 == NULL)):</text>
</g>
<!-- Node0x3a460800&#45;&gt;Node0x3a4608d0 -->
<g id="edge2" class="edge"><title>Node0x3a460800&#45;&gt;Node0x3a4608d0</title>
<path fill="none" stroke="black" d="M409.5,-336.455C409.5,-328.201 409.5,-318.238 409.5,-309.074"/>
<polygon fill="black" stroke="black" points="413,-308.835 409.5,-298.835 406,-308.835 413,-308.835"/>
</g>
<!-- Node0x3a4653f0 -->
<g id="node4" class="node"><title>Node0x3a4653f0</title>
<polygon fill="none" stroke="black" points="0,-127.5 0,-180.5 313,-180.5 313,-127.5 0,-127.5"/>
<text text-anchor="start" x="8" y="-165.3" font-family="Times,serif" font-size="14.00">0x4126d4:</text>
<text text-anchor="start" x="8" y="-150.3" font-family="Times,serif" font-size="14.00"> function_40ede0(BitCastExpr&lt;ptr&gt;(a1))</text>
<text text-anchor="start" x="8" y="-135.3" font-family="Times,serif" font-size="14.00"> return g2</text>
</g>
<!-- Node0x3a4608d0&#45;&gt;Node0x3a4653f0 -->
<g id="edge3" class="edge"><title>Node0x3a4608d0&#45;&gt;Node0x3a4653f0</title>
<path fill="none" stroke="black" d="M374.852,-262.45C334.465,-242.576 266.978,-209.366 217.702,-185.117"/>
<polygon fill="black" stroke="black" points="219.242,-181.974 208.724,-180.699 216.151,-188.255 219.242,-181.974"/>
<text text-anchor="middle" x="452" y="-232.8" font-family="Times,serif" font-size="14.00">(a2 == NULL) or (a3 == NULL)</text>
</g>
<!-- Node0x3a460ca0 -->
<g id="node5" class="node"><title>Node0x3a460ca0</title>
<polygon fill="none" stroke="black" points="331.5,-97.5 331.5,-210.5 995.5,-210.5 995.5,-97.5 331.5,-97.5"/>
<text text-anchor="start" x="339.5" y="-195.3" font-family="Times,serif" font-size="14.00">v2 = ((PtrToIntCastExpr&lt;int32&gt;(a3) * v1) + 4)</text>
<text text-anchor="start" x="339.5" y="-180.3" font-family="Times,serif" font-size="14.00"> g2 = v2</text>
<text text-anchor="start" x="339.5" y="-165.3" font-family="Times,serif" font-size="14.00"> v3</text>
<text text-anchor="start" x="339.5" y="-150.3" font-family="Times,serif" font-size="14.00"> result = function_4048b3(IntToPtrCastExpr&lt;ptr&gt;(v2), &amp;(v3[&#39;0&#39;]), BitCastExpr&lt;ptr&gt;(a1))</text>
<text text-anchor="start" x="339.5" y="-135.3" font-family="Times,serif" font-size="14.00"> *(IntToPtrCastExpr&lt;ptr&gt;(result)) = *(BitCastExpr&lt;ptr&gt;(a1))</text>
<text text-anchor="start" x="339.5" y="-120.3" font-family="Times,serif" font-size="14.00"> *(IntToPtrCastExpr&lt;ptr&gt;(PtrToIntCastExpr&lt;int32&gt;(a1))) = result</text>
<text text-anchor="start" x="339.5" y="-105.3" font-family="Times,serif" font-size="14.00"> return result</text>
</g>
<!-- Node0x3a4608d0&#45;&gt;Node0x3a460ca0 -->
<g id="edge4" class="edge"><title>Node0x3a4608d0&#45;&gt;Node0x3a460ca0</title>
<path fill="none" stroke="black" d="M526.371,-262.444C542.393,-257.723 558.223,-251.695 572.5,-244 585.46,-237.014 597.838,-227.637 609.059,-217.585"/>
<polygon fill="black" stroke="black" points="611.696,-219.913 616.636,-210.54 606.929,-214.786 611.696,-219.913"/>
<text text-anchor="middle" x="709.5" y="-232.8" font-family="Times,serif" font-size="14.00">(a2 != NULL) and (a3 != NULL)</text>
</g>
<!-- Node0x3a4607a0 -->
<g id="node6" class="node"><title>Node0x3a4607a0</title>
<polygon fill="none" stroke="black" points="442.5,-23.5 442.5,-59.5 496.5,-59.5 496.5,-23.5 442.5,-23.5"/>
<text text-anchor="start" x="450.5" y="-37.8" font-family="Times,serif" font-size="14.00">exit:</text>
</g>
<!-- Node0x3a4653f0&#45;&gt;Node0x3a4607a0 -->
<g id="edge5" class="edge"><title>Node0x3a4653f0&#45;&gt;Node0x3a4607a0</title>
<path fill="none" stroke="black" d="M229.095,-127.371C292.79,-104.885 382.812,-73.1038 432.663,-55.5046"/>
<polygon fill="black" stroke="black" points="434.109,-58.7062 442.373,-52.0768 431.778,-52.1055 434.109,-58.7062"/>
</g>
<!-- Node0x3a460ca0&#45;&gt;Node0x3a4607a0 -->
<g id="edge6" class="edge"><title>Node0x3a460ca0&#45;&gt;Node0x3a4607a0</title>
<path fill="none" stroke="black" d="M565.932,-97.4263C544.436,-85.1828 522.978,-72.9606 505.78,-63.1646"/>
<polygon fill="black" stroke="black" points="507.112,-59.8954 496.69,-57.9873 503.647,-65.9779 507.112,-59.8954"/>
</g>
</g>
</svg>
