<?xml version="1.0" encoding="UTF-8" standalone="no"?>
<!DOCTYPE svg PUBLIC "-//W3C//DTD SVG 1.1//EN"
 "http://www.w3.org/Graphics/SVG/1.1/DTD/svg11.dtd">
<!-- Generated by graphviz version 2.38.0 (20140413.2041)
 -->
<!-- Title: Control&#45;flow graph for function &#39;function_407144(**a1)&#39;. Pages: 1 -->
<svg width="465pt" height="625pt"
 viewBox="0.00 0.00 465.00 625.00" xmlns="http://www.w3.org/2000/svg" xmlns:xlink="http://www.w3.org/1999/xlink">
<g id="graph0" class="graph" transform="scale(1 1) rotate(0) translate(4 621)">
<title>Control&#45;flow graph for function &#39;function_407144(**a1)&#39;.</title>
<polygon fill="white" stroke="none" points="-4,4 -4,-621 461,-621 461,4 -4,4"/>
<text text-anchor="middle" x="228.5" y="-7.8" font-family="Times,serif" font-size="14.00">Control&#45;flow graph for function &#39;function_407144(**a1)&#39;.</text>
<!-- Node0x18b94b90 -->
<g id="node1" class="node"><title>Node0x18b94b90</title>
<polygon fill="none" stroke="black" points="291.5,-578.5 291.5,-616.5 350.5,-616.5 350.5,-578.5 291.5,-578.5"/>
<text text-anchor="start" x="299.5" y="-601.3" font-family="Times,serif" font-size="14.00">entry:</text>
<text text-anchor="start" x="299.5" y="-586.3" font-family="Times,serif" font-size="14.00"> a1</text>
</g>
<!-- Node0x1ed6d6a0 -->
<g id="node2" class="node"><title>Node0x1ed6d6a0</title>
<polygon fill="none" stroke="black" points="185,-457.5 185,-540.5 457,-540.5 457,-457.5 185,-457.5"/>
<text text-anchor="start" x="193" y="-525.3" font-family="Times,serif" font-size="14.00">v1 = PtrToIntCastExpr&lt;int32&gt;(a1)</text>
<text text-anchor="start" x="193" y="-510.3" font-family="Times,serif" font-size="14.00"> g5 = v1</text>
<text text-anchor="start" x="193" y="-495.3" font-family="Times,serif" font-size="14.00"> v2 = *(BitCastExpr&lt;ptr&gt;(a1))</text>
<text text-anchor="start" x="193" y="-480.3" font-family="Times,serif" font-size="14.00"> g2 = v2</text>
<text text-anchor="start" x="193" y="-465.3" font-family="Times,serif" font-size="14.00"> v3 = v2</text>
</g>
<!-- Node0x18b94b90&#45;&gt;Node0x1ed6d6a0 -->
<g id="edge1" class="edge"><title>Node0x18b94b90&#45;&gt;Node0x1ed6d6a0</title>
<path fill="none" stroke="black" d="M321,-578.349C321,-570.488 321,-560.852 321,-551.061"/>
<polygon fill="black" stroke="black" points="324.5,-550.87 321,-540.87 317.5,-550.87 324.5,-550.87"/>
</g>
<!-- Node0x1ed6d850 -->
<g id="node3" class="node"><title>Node0x1ed6d850</title>
<polygon fill="none" stroke="black" points="268.5,-383.5 268.5,-419.5 373.5,-419.5 373.5,-383.5 268.5,-383.5"/>
<text text-anchor="start" x="276.5" y="-397.8" font-family="Times,serif" font-size="14.00">if (v2 == 0):</text>
</g>
<!-- Node0x1ed6d6a0&#45;&gt;Node0x1ed6d850 -->
<g id="edge2" class="edge"><title>Node0x1ed6d6a0&#45;&gt;Node0x1ed6d850</title>
<path fill="none" stroke="black" d="M321,-457.499C321,-448.206 321,-438.537 321,-429.946"/>
<polygon fill="black" stroke="black" points="324.5,-429.749 321,-419.749 317.5,-429.749 324.5,-429.749"/>
</g>
<!-- Node0x1ed69740 -->
<g id="node4" class="node"><title>Node0x1ed69740</title>
<polygon fill="none" stroke="black" points="0,-248.5 0,-331.5 336,-331.5 336,-248.5 0,-248.5"/>
<text text-anchor="start" x="8" y="-316.3" font-family="Times,serif" font-size="14.00">0x40714e:</text>
<text text-anchor="start" x="8" y="-301.3" font-family="Times,serif" font-size="14.00"> v4</text>
<text text-anchor="start" x="8" y="-286.3" font-family="Times,serif" font-size="14.00"> function_40ede0(BitCastExpr&lt;ptr&gt;(&amp;(v4)))</text>
<text text-anchor="start" x="8" y="-271.3" font-family="Times,serif" font-size="14.00"> v1 = g5</text>
<text text-anchor="start" x="8" y="-256.3" font-family="Times,serif" font-size="14.00"> v3 = g2</text>
</g>
<!-- Node0x1ed6d850&#45;&gt;Node0x1ed69740 -->
<g id="edge3" class="edge"><title>Node0x1ed6d850&#45;&gt;Node0x1ed69740</title>
<path fill="none" stroke="black" d="M297.094,-383.391C279.878,-371.069 255.773,-353.818 233.049,-337.554"/>
<polygon fill="black" stroke="black" points="234.923,-334.592 224.754,-331.618 230.849,-340.284 234.923,-334.592"/>
<text text-anchor="middle" x="298" y="-353.8" font-family="Times,serif" font-size="14.00">v2 == 0</text>
</g>
<!-- Node0x1ed6da40 -->
<g id="node5" class="node"><title>Node0x1ed6da40</title>
<polygon fill="none" stroke="black" points="176,-97.5 176,-210.5 454,-210.5 454,-97.5 176,-97.5"/>
<text text-anchor="start" x="184" y="-195.3" font-family="Times,serif" font-size="14.00">v5 = *(IntToPtrCastExpr&lt;ptr&gt;(v3))</text>
<text text-anchor="start" x="184" y="-180.3" font-family="Times,serif" font-size="14.00"> g8 = v5</text>
<text text-anchor="start" x="184" y="-165.3" font-family="Times,serif" font-size="14.00"> *(IntToPtrCastExpr&lt;ptr&gt;(v1)) = v5</text>
<text text-anchor="start" x="184" y="-150.3" font-family="Times,serif" font-size="14.00"> g1 = (g2 &gt; 4294967287)</text>
<text text-anchor="start" x="184" y="-135.3" font-family="Times,serif" font-size="14.00"> result = (g2 + 8)</text>
<text text-anchor="start" x="184" y="-120.3" font-family="Times,serif" font-size="14.00"> g180 = (result == 0)</text>
<text text-anchor="start" x="184" y="-105.3" font-family="Times,serif" font-size="14.00"> return result</text>
</g>
<!-- Node0x1ed6d850&#45;&gt;Node0x1ed6da40 -->
<g id="edge4" class="edge"><title>Node0x1ed6d850&#45;&gt;Node0x1ed6da40</title>
<path fill="none" stroke="black" d="M328.776,-383.473C334.542,-369.867 341.915,-350.137 345,-332 351.261,-295.195 350.801,-284.88 345,-248 343.587,-239.016 341.45,-229.716 338.954,-220.626"/>
<polygon fill="black" stroke="black" points="342.272,-219.499 336.123,-210.871 335.549,-221.451 342.272,-219.499"/>
<text text-anchor="middle" x="377" y="-286.3" font-family="Times,serif" font-size="14.00">v2 != 0</text>
</g>
<!-- Node0x1ed69740&#45;&gt;Node0x1ed6da40 -->
<g id="edge5" class="edge"><title>Node0x1ed69740&#45;&gt;Node0x1ed6da40</title>
<path fill="none" stroke="black" d="M212.504,-248.432C223.248,-238.638 234.977,-227.946 246.539,-217.406"/>
<polygon fill="black" stroke="black" points="249.069,-219.837 254.101,-210.513 244.353,-214.663 249.069,-219.837"/>
</g>
<!-- Node0x1ed6d0a0 -->
<g id="node6" class="node"><title>Node0x1ed6d0a0</title>
<polygon fill="none" stroke="black" points="288,-23.5 288,-59.5 342,-59.5 342,-23.5 288,-23.5"/>
<text text-anchor="start" x="296" y="-37.8" font-family="Times,serif" font-size="14.00">exit:</text>
</g>
<!-- Node0x1ed6da40&#45;&gt;Node0x1ed6d0a0 -->
<g id="edge6" class="edge"><title>Node0x1ed6da40&#45;&gt;Node0x1ed6d0a0</title>
<path fill="none" stroke="black" d="M315,-97.4263C315,-87.8599 315,-78.3065 315,-69.9133"/>
<polygon fill="black" stroke="black" points="318.5,-69.6444 315,-59.6444 311.5,-69.6444 318.5,-69.6444"/>
</g>
</g>
</svg>
