<?xml version="1.0" encoding="UTF-8" standalone="no"?>
<!DOCTYPE svg PUBLIC "-//W3C//DTD SVG 1.1//EN"
 "http://www.w3.org/Graphics/SVG/1.1/DTD/svg11.dtd">
<!-- Generated by graphviz version 2.38.0 (20140413.2041)
 -->
<!-- Title: Control&#45;flow graph for function &#39;function_41ca06(*a1, *a2, *a3, *a4, *a5)&#39;. Pages: 1 -->
<svg width="2048pt" height="972pt"
 viewBox="0.00 0.00 2048.00 972.00" xmlns="http://www.w3.org/2000/svg" xmlns:xlink="http://www.w3.org/1999/xlink">
<g id="graph0" class="graph" transform="scale(1 1) rotate(0) translate(4 968)">
<title>Control&#45;flow graph for function &#39;function_41ca06(*a1, *a2, *a3, *a4, *a5)&#39;.</title>
<polygon fill="white" stroke="none" points="-4,4 -4,-968 2044,-968 2044,4 -4,4"/>
<text text-anchor="middle" x="1020" y="-7.8" font-family="Times,serif" font-size="14.00">Control&#45;flow graph for function &#39;function_41ca06(*a1, *a2, *a3, *a4, *a5)&#39;.</text>
<!-- Node0x2ccabda0 -->
<g id="node1" class="node"><title>Node0x2ccabda0</title>
<polygon fill="none" stroke="black" points="1459.5,-865.5 1459.5,-963.5 1518.5,-963.5 1518.5,-865.5 1459.5,-865.5"/>
<text text-anchor="start" x="1467.5" y="-948.3" font-family="Times,serif" font-size="14.00">entry:</text>
<text text-anchor="start" x="1467.5" y="-933.3" font-family="Times,serif" font-size="14.00"> a1</text>
<text text-anchor="start" x="1467.5" y="-918.3" font-family="Times,serif" font-size="14.00"> a2</text>
<text text-anchor="start" x="1467.5" y="-903.3" font-family="Times,serif" font-size="14.00"> a3</text>
<text text-anchor="start" x="1467.5" y="-888.3" font-family="Times,serif" font-size="14.00"> a4</text>
<text text-anchor="start" x="1467.5" y="-873.3" font-family="Times,serif" font-size="14.00"> a5</text>
</g>
<!-- Node0x2ccad690 -->
<g id="node2" class="node"><title>Node0x2ccad690</title>
<polygon fill="none" stroke="black" points="1428,-714.5 1428,-827.5 1550,-827.5 1550,-714.5 1428,-714.5"/>
<text text-anchor="start" x="1436" y="-812.3" font-family="Times,serif" font-size="14.00">v1</text>
<text text-anchor="start" x="1436" y="-797.3" font-family="Times,serif" font-size="14.00"> v2 = v1</text>
<text text-anchor="start" x="1436" y="-782.3" font-family="Times,serif" font-size="14.00"> g3 = &amp;(v2)</text>
<text text-anchor="start" x="1436" y="-767.3" font-family="Times,serif" font-size="14.00"> g9 = 0</text>
<text text-anchor="start" x="1436" y="-752.3" font-family="Times,serif" font-size="14.00"> lpDefaultChar</text>
<text text-anchor="start" x="1436" y="-737.3" font-family="Times,serif" font-size="14.00"> result</text>
<text text-anchor="start" x="1436" y="-722.3" font-family="Times,serif" font-size="14.00"> v3</text>
</g>
<!-- Node0x2ccabda0&#45;&gt;Node0x2ccad690 -->
<g id="edge1" class="edge"><title>Node0x2ccabda0&#45;&gt;Node0x2ccad690</title>
<path fill="none" stroke="black" d="M1489,-865.199C1489,-856.474 1489,-847.24 1489,-838.11"/>
<polygon fill="black" stroke="black" points="1492.5,-837.878 1489,-827.879 1485.5,-837.879 1492.5,-837.878"/>
</g>
<!-- Node0x2ccad230 -->
<g id="node3" class="node"><title>Node0x2ccad230</title>
<polygon fill="none" stroke="black" points="1430.5,-638.5 1430.5,-676.5 1547.5,-676.5 1547.5,-638.5 1430.5,-638.5"/>
<text text-anchor="start" x="1438.5" y="-661.3" font-family="Times,serif" font-size="14.00">if (*(a1) != 0):</text>
<text text-anchor="start" x="1438.5" y="-646.3" font-family="Times,serif" font-size="14.00"> else:</text>
</g>
<!-- Node0x2ccad690&#45;&gt;Node0x2ccad230 -->
<g id="edge2" class="edge"><title>Node0x2ccad690&#45;&gt;Node0x2ccad230</title>
<path fill="none" stroke="black" d="M1489,-714.25C1489,-704.862 1489,-695.474 1489,-687.151"/>
<polygon fill="black" stroke="black" points="1492.5,-686.912 1489,-676.912 1485.5,-686.912 1492.5,-686.912"/>
</g>
<!-- Node0x2ccadd50 -->
<g id="node4" class="node"><title>Node0x2ccadd50</title>
<polygon fill="none" stroke="black" points="0,-203.5 0,-586.5 1950,-586.5 1950,-203.5 0,-203.5"/>
<text text-anchor="start" x="8" y="-571.3" font-family="Times,serif" font-size="14.00">v4 = g7</text>
<text text-anchor="start" x="8" y="-556.3" font-family="Times,serif" font-size="14.00"> g7 = 281860</text>
<text text-anchor="start" x="8" y="-541.3" font-family="Times,serif" font-size="14.00"> lpUsedDefaultChar = g9</text>
<text text-anchor="start" x="8" y="-526.3" font-family="Times,serif" font-size="14.00"> lpMultiByteStr = IntToPtrCastExpr&lt;ptr&gt;(lpUsedDefaultChar)</text>
<text text-anchor="start" x="8" y="-511.3" font-family="Times,serif" font-size="14.00"> v5 = IntToPtrCastExpr&lt;ptr&gt;(SysStringLen(IntToPtrCastExpr&lt;ptr&gt;(ExtCastExpr&lt;int32&gt;(*(a2)))))</text>
<text text-anchor="start" x="8" y="-496.3" font-family="Times,serif" font-size="14.00"> lpWideCharStr = *(a2)</text>
<text text-anchor="start" x="8" y="-481.3" font-family="Times,serif" font-size="14.00"> CodePage = ExtCastExpr&lt;int32&gt;(*(lpMultiByteStr))</text>
<text text-anchor="start" x="8" y="-466.3" font-family="Times,serif" font-size="14.00"> cchWideChar = *(v5)</text>
<text text-anchor="start" x="8" y="-451.3" font-family="Times,serif" font-size="14.00"> v6 = WideCharToMultiByte(CodePage, CodePage, IntToPtrCastExpr&lt;ptr&gt;(ExtCastExpr&lt;int32&gt;(lpWideCharStr)), ExtCastExpr&lt;int32&gt;(cchWideChar), lpMultiByteStr, CodePage, lpMultiByteStr, IntToPtrCastExpr&lt;ptr&gt;(lpUsedDefaultChar))</text>
<text text-anchor="start" x="8" y="-436.3" font-family="Times,serif" font-size="14.00"> g5 = ExtCastExpr&lt;int32&gt;(*(a1))</text>
<text text-anchor="start" x="8" y="-421.3" font-family="Times,serif" font-size="14.00"> g4 = v6</text>
<text text-anchor="start" x="8" y="-406.3" font-family="Times,serif" font-size="14.00"> lpMultiByteStr2 = IntToPtrCastExpr&lt;ptr&gt;(function_4088b4(IntToPtrCastExpr&lt;ptr&gt;(v6), IntToPtrCastExpr&lt;ptr&gt;(v4)))</text>
<text text-anchor="start" x="8" y="-391.3" font-family="Times,serif" font-size="14.00"> lpUsedDefaultChar2 = g9</text>
<text text-anchor="start" x="8" y="-376.3" font-family="Times,serif" font-size="14.00"> lpDefaultChar = IntToPtrCastExpr&lt;ptr&gt;(lpUsedDefaultChar2)</text>
<text text-anchor="start" x="8" y="-361.3" font-family="Times,serif" font-size="14.00"> lpWideCharStr2 = *(a2)</text>
<text text-anchor="start" x="8" y="-346.3" font-family="Times,serif" font-size="14.00"> CodePage2 = ExtCastExpr&lt;int32&gt;(*(lpDefaultChar))</text>
<text text-anchor="start" x="8" y="-331.3" font-family="Times,serif" font-size="14.00"> cchWideChar2 = *(IntToPtrCastExpr&lt;ptr&gt;(ExtCastExpr&lt;int32&gt;(*(v5))))</text>
<text text-anchor="start" x="8" y="-316.3" font-family="Times,serif" font-size="14.00"> cbMultiByte = *(IntToPtrCastExpr&lt;ptr&gt;(g4))</text>
<text text-anchor="start" x="8" y="-301.3" font-family="Times,serif" font-size="14.00"> WideCharToMultiByte(CodePage2, CodePage2, IntToPtrCastExpr&lt;ptr&gt;(ExtCastExpr&lt;int32&gt;(lpWideCharStr2)), ExtCastExpr&lt;int32&gt;(cchWideChar2), lpMultiByteStr2, ExtCastExpr&lt;int32&gt;(cbMultiByte), lpDefaultChar, IntToPtrCastExpr&lt;ptr&gt;(lpUsedDefaultChar2))</text>
<text text-anchor="start" x="8" y="-286.3" font-family="Times,serif" font-size="14.00"> g5 = ExtCastExpr&lt;int32&gt;(*(a1))</text>
<text text-anchor="start" x="8" y="-271.3" font-family="Times,serif" font-size="14.00"> v7 = IntToPtrCastExpr&lt;ptr&gt;(g4)</text>
<text text-anchor="start" x="8" y="-256.3" font-family="Times,serif" font-size="14.00"> result = function_4064f6(v7, lpDefaultChar)</text>
<text text-anchor="start" x="8" y="-241.3" font-family="Times,serif" font-size="14.00"> g7 = ExtCastExpr&lt;int32&gt;(*(v7))</text>
<text text-anchor="start" x="8" y="-226.3" font-family="Times,serif" font-size="14.00"> g4 = ExtCastExpr&lt;int32&gt;(*(lpDefaultChar))</text>
<text text-anchor="start" x="8" y="-211.3" font-family="Times,serif" font-size="14.00"> v3 = v2</text>
</g>
<!-- Node0x2ccad230&#45;&gt;Node0x2ccadd50 -->
<g id="edge3" class="edge"><title>Node0x2ccad230&#45;&gt;Node0x2ccadd50</title>
<path fill="none" stroke="black" d="M1453.26,-638.389C1430.24,-626.719 1397.65,-610.201 1360.17,-591.206"/>
<polygon fill="black" stroke="black" points="1361.56,-587.989 1351.06,-586.591 1358.4,-594.233 1361.56,-587.989"/>
<text text-anchor="middle" x="1451" y="-608.8" font-family="Times,serif" font-size="14.00">*(a1) != 0</text>
</g>
<!-- Node0x2ccad810 -->
<g id="node5" class="node"><title>Node0x2ccad810</title>
<polygon fill="none" stroke="black" points="1968,-377 1968,-413 2040,-413 2040,-377 1968,-377"/>
<text text-anchor="start" x="1976" y="-391.3" font-family="Times,serif" font-size="14.00">v3 = v1</text>
</g>
<!-- Node0x2ccad230&#45;&gt;Node0x2ccad810 -->
<g id="edge4" class="edge"><title>Node0x2ccad230&#45;&gt;Node0x2ccad810</title>
<path fill="none" stroke="black" d="M1547.55,-655.781C1659.93,-653.164 1900.01,-641.203 1959,-587 2005.04,-544.698 2008.2,-464.887 2006.29,-423.087"/>
<polygon fill="black" stroke="black" points="2009.79,-422.862 2005.71,-413.084 2002.8,-423.272 2009.79,-422.862"/>
<text text-anchor="middle" x="1965" y="-608.8" font-family="Times,serif" font-size="14.00">*(a1) == 0</text>
</g>
<!-- Node0x2ccadcf0 -->
<g id="node6" class="node"><title>Node0x2ccadcf0</title>
<polygon fill="none" stroke="black" points="1443,-97.5 1443,-165.5 1787,-165.5 1787,-97.5 1443,-97.5"/>
<text text-anchor="start" x="1451" y="-150.3" font-family="Times,serif" font-size="14.00">0x41ca56:</text>
<text text-anchor="start" x="1451" y="-135.3" font-family="Times,serif" font-size="14.00"> g9 = ExtCastExpr&lt;int32&gt;(*(lpDefaultChar))</text>
<text text-anchor="start" x="1451" y="-120.3" font-family="Times,serif" font-size="14.00"> g3 = v3</text>
<text text-anchor="start" x="1451" y="-105.3" font-family="Times,serif" font-size="14.00"> return result</text>
</g>
<!-- Node0x2ccadd50&#45;&gt;Node0x2ccadcf0 -->
<g id="edge5" class="edge"><title>Node0x2ccadd50&#45;&gt;Node0x2ccadcf0</title>
<path fill="none" stroke="black" d="M1441.38,-203.438C1471.83,-191 1500.02,-179.482 1524.44,-169.501"/>
<polygon fill="black" stroke="black" points="1526.04,-172.631 1533.97,-165.609 1523.39,-166.152 1526.04,-172.631"/>
</g>
<!-- Node0x2ccad810&#45;&gt;Node0x2ccadcf0 -->
<g id="edge6" class="edge"><title>Node0x2ccad810&#45;&gt;Node0x2ccadcf0</title>
<path fill="none" stroke="black" d="M2005.53,-376.834C2007.85,-339.447 2007.63,-250.232 1959,-203 1934.72,-179.419 1866.78,-163.031 1797.63,-152.032"/>
<polygon fill="black" stroke="black" points="1797.84,-148.523 1787.42,-150.448 1796.77,-155.441 1797.84,-148.523"/>
</g>
<!-- Node0x2ccac870 -->
<g id="node7" class="node"><title>Node0x2ccac870</title>
<polygon fill="none" stroke="black" points="1588,-23.5 1588,-59.5 1642,-59.5 1642,-23.5 1588,-23.5"/>
<text text-anchor="start" x="1596" y="-37.8" font-family="Times,serif" font-size="14.00">exit:</text>
</g>
<!-- Node0x2ccadcf0&#45;&gt;Node0x2ccac870 -->
<g id="edge7" class="edge"><title>Node0x2ccadcf0&#45;&gt;Node0x2ccac870</title>
<path fill="none" stroke="black" d="M1615,-97.4817C1615,-88.3281 1615,-78.4972 1615,-69.7155"/>
<polygon fill="black" stroke="black" points="1618.5,-69.6402 1615,-59.6402 1611.5,-69.6403 1618.5,-69.6402"/>
</g>
</g>
</svg>
