<?xml version="1.0" encoding="UTF-8" standalone="no"?>
<!DOCTYPE svg PUBLIC "-//W3C//DTD SVG 1.1//EN"
 "http://www.w3.org/Graphics/SVG/1.1/DTD/svg11.dtd">
<!-- Generated by graphviz version 2.38.0 (20140413.2041)
 -->
<!-- Title: Control&#45;flow graph for function &#39;function_40e24a()&#39;. Pages: 1 -->
<svg width="984pt" height="518pt"
 viewBox="0.00 0.00 984.00 518.00" xmlns="http://www.w3.org/2000/svg" xmlns:xlink="http://www.w3.org/1999/xlink">
<g id="graph0" class="graph" transform="scale(1 1) rotate(0) translate(4 514)">
<title>Control&#45;flow graph for function &#39;function_40e24a()&#39;.</title>
<polygon fill="white" stroke="none" points="-4,4 -4,-514 980,-514 980,4 -4,4"/>
<text text-anchor="middle" x="488" y="-7.8" font-family="Times,serif" font-size="14.00">Control&#45;flow graph for function &#39;function_40e24a()&#39;.</text>
<!-- Node0xcacf5650 -->
<g id="node1" class="node"><title>Node0xcacf5650</title>
<polygon fill="none" stroke="black" points="239.5,-473.5 239.5,-509.5 298.5,-509.5 298.5,-473.5 239.5,-473.5"/>
<text text-anchor="start" x="247.5" y="-487.8" font-family="Times,serif" font-size="14.00">entry:</text>
</g>
<!-- Node0xcacf66a0 -->
<g id="node2" class="node"><title>Node0xcacf66a0</title>
<polygon fill="none" stroke="black" points="129.5,-352.5 129.5,-435.5 408.5,-435.5 408.5,-352.5 129.5,-352.5"/>
<text text-anchor="start" x="137.5" y="-420.3" font-family="Times,serif" font-size="14.00">g2 = g5</text>
<text text-anchor="start" x="137.5" y="-405.3" font-family="Times,serif" font-size="14.00"> v1</text>
<text text-anchor="start" x="137.5" y="-390.3" font-family="Times,serif" font-size="14.00"> v2 = v1[&#39;0&#39;]</text>
<text text-anchor="start" x="137.5" y="-375.3" font-family="Times,serif" font-size="14.00"> g8 = v2</text>
<text text-anchor="start" x="137.5" y="-360.3" font-family="Times,serif" font-size="14.00"> *(IntToPtrCastExpr&lt;ptr&gt;(g5)) = v2</text>
</g>
<!-- Node0xcacf5650&#45;&gt;Node0xcacf66a0 -->
<g id="edge1" class="edge"><title>Node0xcacf5650&#45;&gt;Node0xcacf66a0</title>
<path fill="none" stroke="black" d="M269,-473.427C269,-465.622 269,-455.921 269,-446.032"/>
<polygon fill="black" stroke="black" points="272.5,-445.73 269,-435.73 265.5,-445.73 272.5,-445.73"/>
</g>
<!-- Node0xcacf6850 -->
<g id="node3" class="node"><title>Node0xcacf6850</title>
<polygon fill="none" stroke="black" points="14.5,-278.5 14.5,-314.5 523.5,-314.5 523.5,-278.5 14.5,-278.5"/>
<text text-anchor="start" x="22.5" y="-292.8" font-family="Times,serif" font-size="14.00">if (g8 != *(IntToPtrCastExpr&lt;ptr&gt;(PtrToIntCastExpr&lt;int32&gt;(v1)))):</text>
</g>
<!-- Node0xcacf66a0&#45;&gt;Node0xcacf6850 -->
<g id="edge2" class="edge"><title>Node0xcacf66a0&#45;&gt;Node0xcacf6850</title>
<path fill="none" stroke="black" d="M269,-352.499C269,-343.206 269,-333.537 269,-324.946"/>
<polygon fill="black" stroke="black" points="272.5,-324.749 269,-314.749 265.5,-324.749 272.5,-324.749"/>
</g>
<!-- Node0x2dd7ad50 -->
<g id="node4" class="node"><title>Node0x2dd7ad50</title>
<polygon fill="none" stroke="black" points="0,-173.5 0,-226.5 336,-226.5 336,-173.5 0,-173.5"/>
<text text-anchor="start" x="8" y="-211.3" font-family="Times,serif" font-size="14.00">0x40e258:</text>
<text text-anchor="start" x="8" y="-196.3" font-family="Times,serif" font-size="14.00"> v3</text>
<text text-anchor="start" x="8" y="-181.3" font-family="Times,serif" font-size="14.00"> function_40ede0(BitCastExpr&lt;ptr&gt;(&amp;(v3)))</text>
</g>
<!-- Node0xcacf6850&#45;&gt;Node0x2dd7ad50 -->
<g id="edge3" class="edge"><title>Node0xcacf6850&#45;&gt;Node0x2dd7ad50</title>
<path fill="none" stroke="black" d="M66.4265,-278.465C50.2645,-273.714 37.6141,-267.674 31,-260 21.6153,-249.112 22.7412,-240.171 30.261,-232.846"/>
<polygon fill="black" stroke="black" points="32.8434,-235.293 38.8464,-226.563 28.7095,-229.644 32.8434,-235.293"/>
<text text-anchor="middle" x="263" y="-248.8" font-family="Times,serif" font-size="14.00">g8 != *(IntToPtrCastExpr&lt;ptr&gt;(PtrToIntCastExpr&lt;int32&gt;(v1)))</text>
</g>
<!-- Node0x2dd7ac60 -->
<g id="node5" class="node"><title>Node0x2dd7ac60</title>
<polygon fill="none" stroke="black" points="243.5,-97.5 243.5,-135.5 590.5,-135.5 590.5,-97.5 243.5,-97.5"/>
<text text-anchor="start" x="251.5" y="-120.3" font-family="Times,serif" font-size="14.00">0x40e25d:</text>
<text text-anchor="start" x="251.5" y="-105.3" font-family="Times,serif" font-size="14.00"> *(IntToPtrCastExpr&lt;ptr&gt;((g2 + 4))) = v1[&#39;1&#39;]</text>
</g>
<!-- Node0xcacf6850&#45;&gt;Node0x2dd7ac60 -->
<g id="edge4" class="edge"><title>Node0xcacf6850&#45;&gt;Node0x2dd7ac60</title>
<path fill="none" stroke="black" d="M459.002,-278.473C475.488,-273.736 488.418,-267.697 495,-260 526.224,-223.488 481.359,-172.473 447.841,-142.421"/>
<polygon fill="black" stroke="black" points="449.879,-139.555 440.043,-135.616 445.276,-144.829 449.879,-139.555"/>
<text text-anchor="middle" x="741" y="-196.3" font-family="Times,serif" font-size="14.00">g8 == *(IntToPtrCastExpr&lt;ptr&gt;(PtrToIntCastExpr&lt;int32&gt;(v1)))</text>
</g>
<!-- Node0x2dd7ad50&#45;&gt;Node0x2dd7ac60 -->
<g id="edge5" class="edge"><title>Node0x2dd7ad50&#45;&gt;Node0x2dd7ac60</title>
<path fill="none" stroke="black" d="M246.102,-173.437C280.096,-162.31 319.474,-149.421 351.858,-138.822"/>
<polygon fill="black" stroke="black" points="353.255,-142.047 361.67,-135.61 351.077,-135.394 353.255,-142.047"/>
</g>
<!-- Node0xcacf6640 -->
<g id="node6" class="node"><title>Node0xcacf6640</title>
<polygon fill="none" stroke="black" points="390,-23.5 390,-59.5 444,-59.5 444,-23.5 390,-23.5"/>
<text text-anchor="start" x="398" y="-37.8" font-family="Times,serif" font-size="14.00">exit:</text>
</g>
<!-- Node0x2dd7ac60&#45;&gt;Node0xcacf6640 -->
<g id="edge6" class="edge"><title>Node0x2dd7ac60&#45;&gt;Node0xcacf6640</title>
<path fill="none" stroke="black" d="M417,-97.4551C417,-89.2008 417,-79.2377 417,-70.0742"/>
<polygon fill="black" stroke="black" points="420.5,-69.8347 417,-59.8347 413.5,-69.8347 420.5,-69.8347"/>
</g>
</g>
</svg>
