<?xml version="1.0" encoding="UTF-8" standalone="no"?>
<!DOCTYPE svg PUBLIC "-//W3C//DTD SVG 1.1//EN"
 "http://www.w3.org/Graphics/SVG/1.1/DTD/svg11.dtd">
<!-- Generated by graphviz version 2.38.0 (20140413.2041)
 -->
<!-- Title: Control&#45;flow graph for function &#39;function_410d8f(*a1)&#39;. Pages: 1 -->
<svg width="535pt" height="490pt"
 viewBox="0.00 0.00 534.50 490.00" xmlns="http://www.w3.org/2000/svg" xmlns:xlink="http://www.w3.org/1999/xlink">
<g id="graph0" class="graph" transform="scale(1 1) rotate(0) translate(4 486)">
<title>Control&#45;flow graph for function &#39;function_410d8f(*a1)&#39;.</title>
<polygon fill="white" stroke="none" points="-4,4 -4,-486 530.5,-486 530.5,4 -4,4"/>
<text text-anchor="middle" x="263.25" y="-7.8" font-family="Times,serif" font-size="14.00">Control&#45;flow graph for function &#39;function_410d8f(*a1)&#39;.</text>
<!-- Node0x208a6fa0 -->
<g id="node1" class="node"><title>Node0x208a6fa0</title>
<polygon fill="none" stroke="black" points="219,-443.5 219,-481.5 278,-481.5 278,-443.5 219,-443.5"/>
<text text-anchor="start" x="227" y="-466.3" font-family="Times,serif" font-size="14.00">entry:</text>
<text text-anchor="start" x="227" y="-451.3" font-family="Times,serif" font-size="14.00"> a1</text>
</g>
<!-- Node0x208a1c90 -->
<g id="node2" class="node"><title>Node0x208a1c90</title>
<polygon fill="none" stroke="black" points="0,-352.5 0,-405.5 497,-405.5 497,-352.5 0,-352.5"/>
<text text-anchor="start" x="8" y="-390.3" font-family="Times,serif" font-size="14.00">0x410d8f:</text>
<text text-anchor="start" x="8" y="-375.3" font-family="Times,serif" font-size="14.00"> uBytes</text>
<text text-anchor="start" x="8" y="-360.3" font-family="Times,serif" font-size="14.00"> memoryHandle = LocalAlloc(64, ExtCastExpr&lt;int32&gt;(*(uBytes)))</text>
</g>
<!-- Node0x208a6fa0&#45;&gt;Node0x208a1c90 -->
<g id="edge1" class="edge"><title>Node0x208a6fa0&#45;&gt;Node0x208a1c90</title>
<path fill="none" stroke="black" d="M248.5,-443.413C248.5,-435.285 248.5,-425.394 248.5,-415.864"/>
<polygon fill="black" stroke="black" points="252,-415.766 248.5,-405.766 245,-415.766 252,-415.766"/>
</g>
<!-- Node0x34f7e150 -->
<g id="node3" class="node"><title>Node0x34f7e150</title>
<polygon fill="none" stroke="black" points="132,-278.5 132,-314.5 365,-314.5 365,-278.5 132,-278.5"/>
<text text-anchor="start" x="140" y="-292.8" font-family="Times,serif" font-size="14.00">if (memoryHandle == NULL):</text>
</g>
<!-- Node0x208a1c90&#45;&gt;Node0x34f7e150 -->
<g id="edge2" class="edge"><title>Node0x208a1c90&#45;&gt;Node0x34f7e150</title>
<path fill="none" stroke="black" d="M248.5,-352.086C248.5,-343.46 248.5,-333.822 248.5,-325.075"/>
<polygon fill="black" stroke="black" points="252,-324.973 248.5,-314.974 245,-324.974 252,-324.973"/>
</g>
<!-- Node0x208a75e0 -->
<g id="node4" class="node"><title>Node0x208a75e0</title>
<polygon fill="none" stroke="black" points="106,-173.5 106,-226.5 273,-226.5 273,-173.5 106,-173.5"/>
<text text-anchor="start" x="114" y="-211.3" font-family="Times,serif" font-size="14.00">0x410d9f:</text>
<text text-anchor="start" x="114" y="-196.3" font-family="Times,serif" font-size="14.00"> v1</text>
<text text-anchor="start" x="114" y="-181.3" font-family="Times,serif" font-size="14.00"> function_40edac(v1)</text>
</g>
<!-- Node0x34f7e150&#45;&gt;Node0x208a75e0 -->
<g id="edge3" class="edge"><title>Node0x34f7e150&#45;&gt;Node0x208a75e0</title>
<path fill="none" stroke="black" d="M169.251,-278.43C161.149,-273.701 153.92,-267.675 148.5,-260 142.726,-251.823 144.601,-242.975 149.897,-234.68"/>
<polygon fill="black" stroke="black" points="152.795,-236.655 156.176,-226.615 147.271,-232.355 152.795,-236.655"/>
<text text-anchor="middle" x="242" y="-248.8" font-family="Times,serif" font-size="14.00">memoryHandle == NULL</text>
</g>
<!-- Node0x208a74a0 -->
<g id="node5" class="node"><title>Node0x208a74a0</title>
<polygon fill="none" stroke="black" points="212.5,-97.5 212.5,-135.5 394.5,-135.5 394.5,-97.5 212.5,-97.5"/>
<text text-anchor="start" x="220.5" y="-120.3" font-family="Times,serif" font-size="14.00">0x410da4:</text>
<text text-anchor="start" x="220.5" y="-105.3" font-family="Times,serif" font-size="14.00"> return memoryHandle</text>
</g>
<!-- Node0x34f7e150&#45;&gt;Node0x208a74a0 -->
<g id="edge4" class="edge"><title>Node0x34f7e150&#45;&gt;Node0x208a74a0</title>
<path fill="none" stroke="black" d="M315.08,-278.487C323.124,-273.759 330.314,-267.718 335.5,-260 359.083,-224.907 338.366,-175.071 321.055,-144.588"/>
<polygon fill="black" stroke="black" points="323.951,-142.608 315.845,-135.786 317.927,-146.174 323.951,-142.608"/>
<text text-anchor="middle" x="436" y="-196.3" font-family="Times,serif" font-size="14.00">memoryHandle != NULL</text>
</g>
<!-- Node0x208a75e0&#45;&gt;Node0x208a74a0 -->
<g id="edge5" class="edge"><title>Node0x208a75e0&#45;&gt;Node0x208a74a0</title>
<path fill="none" stroke="black" d="M225.258,-173.437C239.425,-163.308 255.636,-151.719 269.614,-141.726"/>
<polygon fill="black" stroke="black" points="271.891,-144.4 277.99,-135.737 267.82,-138.706 271.891,-144.4"/>
</g>
<!-- Node0x208a6910 -->
<g id="node6" class="node"><title>Node0x208a6910</title>
<polygon fill="none" stroke="black" points="276.5,-23.5 276.5,-59.5 330.5,-59.5 330.5,-23.5 276.5,-23.5"/>
<text text-anchor="start" x="284.5" y="-37.8" font-family="Times,serif" font-size="14.00">exit:</text>
</g>
<!-- Node0x208a74a0&#45;&gt;Node0x208a6910 -->
<g id="edge6" class="edge"><title>Node0x208a74a0&#45;&gt;Node0x208a6910</title>
<path fill="none" stroke="black" d="M303.5,-97.4551C303.5,-89.2008 303.5,-79.2377 303.5,-70.0742"/>
<polygon fill="black" stroke="black" points="307,-69.8347 303.5,-59.8347 300,-69.8347 307,-69.8347"/>
</g>
</g>
</svg>
