<?xml version="1.0" encoding="UTF-8" standalone="no"?>
<!DOCTYPE svg PUBLIC "-//W3C//DTD SVG 1.1//EN"
 "http://www.w3.org/Graphics/SVG/1.1/DTD/svg11.dtd">
<!-- Generated by graphviz version 2.38.0 (20140413.2041)
 -->
<!-- Title: Control&#45;flow graph for function &#39;function_40f6f4(*a1)&#39;. Pages: 1 -->
<svg width="795pt" height="428pt"
 viewBox="0.00 0.00 795.00 428.00" xmlns="http://www.w3.org/2000/svg" xmlns:xlink="http://www.w3.org/1999/xlink">
<g id="graph0" class="graph" transform="scale(1 1) rotate(0) translate(4 424)">
<title>Control&#45;flow graph for function &#39;function_40f6f4(*a1)&#39;.</title>
<polygon fill="white" stroke="none" points="-4,4 -4,-424 791,-424 791,4 -4,4"/>
<text text-anchor="middle" x="393.5" y="-7.8" font-family="Times,serif" font-size="14.00">Control&#45;flow graph for function &#39;function_40f6f4(*a1)&#39;.</text>
<!-- Node0x28a18880 -->
<g id="node1" class="node"><title>Node0x28a18880</title>
<polygon fill="none" stroke="black" points="364,-381.5 364,-419.5 423,-419.5 423,-381.5 364,-381.5"/>
<text text-anchor="start" x="372" y="-404.3" font-family="Times,serif" font-size="14.00">entry:</text>
<text text-anchor="start" x="372" y="-389.3" font-family="Times,serif" font-size="14.00"> a1</text>
</g>
<!-- Node0x28a194b0 -->
<g id="node2" class="node"><title>Node0x28a194b0</title>
<polygon fill="none" stroke="black" points="0,-96.5 0,-344.5 787,-344.5 787,-96.5 0,-96.5"/>
<text text-anchor="start" x="8" y="-329.3" font-family="Times,serif" font-size="14.00">0x40f6f4:</text>
<text text-anchor="start" x="8" y="-314.3" font-family="Times,serif" font-size="14.00"> g2 = 4419203</text>
<text text-anchor="start" x="8" y="-299.3" font-family="Times,serif" font-size="14.00"> __EH_prolog3()</text>
<text text-anchor="start" x="8" y="-284.3" font-family="Times,serif" font-size="14.00"> v1 = g5</text>
<text text-anchor="start" x="8" y="-269.3" font-family="Times,serif" font-size="14.00"> g9 = v1</text>
<text text-anchor="start" x="8" y="-254.3" font-family="Times,serif" font-size="14.00"> *(IntToPtrCastExpr&lt;ptr&gt;((g3 &#45; 16))) = v1</text>
<text text-anchor="start" x="8" y="-239.3" font-family="Times,serif" font-size="14.00"> *(IntToPtrCastExpr&lt;ptr&gt;(g9)) = PtrToIntCastExpr&lt;int32&gt;(&amp;(vtable_43b004))</text>
<text text-anchor="start" x="8" y="-224.3" font-family="Times,serif" font-size="14.00"> *(IntToPtrCastExpr&lt;ptr&gt;((g3 &#45; 4))) = 0</text>
<text text-anchor="start" x="8" y="-209.3" font-family="Times,serif" font-size="14.00"> v2</text>
<text text-anchor="start" x="8" y="-194.3" font-family="Times,serif" font-size="14.00"> hDC = function_40f5c7(v2)</text>
<text text-anchor="start" x="8" y="-179.3" font-family="Times,serif" font-size="14.00"> ReleaseDC(IntToPtrCastExpr&lt;ptr&gt;(*(IntToPtrCastExpr&lt;ptr&gt;((g9 + 16)))), IntToPtrCastExpr&lt;ptr&gt;(hDC))</text>
<text text-anchor="start" x="8" y="-164.3" font-family="Times,serif" font-size="14.00"> *(IntToPtrCastExpr&lt;ptr&gt;((g3 &#45; 4))) = &#45;1</text>
<text text-anchor="start" x="8" y="-149.3" font-family="Times,serif" font-size="14.00"> g5 = g9</text>
<text text-anchor="start" x="8" y="-134.3" font-family="Times,serif" font-size="14.00"> result = function_40f5f8(v2)</text>
<text text-anchor="start" x="8" y="-119.3" font-family="Times,serif" font-size="14.00"> __EH_epilog3()</text>
<text text-anchor="start" x="8" y="-104.3" font-family="Times,serif" font-size="14.00"> return result</text>
</g>
<!-- Node0x28a18880&#45;&gt;Node0x28a194b0 -->
<g id="edge1" class="edge"><title>Node0x28a18880&#45;&gt;Node0x28a194b0</title>
<path fill="none" stroke="black" d="M393.5,-381.453C393.5,-374.152 393.5,-365.044 393.5,-354.901"/>
<polygon fill="black" stroke="black" points="397,-354.885 393.5,-344.885 390,-354.885 397,-354.885"/>
</g>
<!-- Node0x199f1180 -->
<g id="node3" class="node"><title>Node0x199f1180</title>
<polygon fill="none" stroke="black" points="366.5,-23.5 366.5,-59.5 420.5,-59.5 420.5,-23.5 366.5,-23.5"/>
<text text-anchor="start" x="374.5" y="-37.8" font-family="Times,serif" font-size="14.00">exit:</text>
</g>
<!-- Node0x28a194b0&#45;&gt;Node0x199f1180 -->
<g id="edge2" class="edge"><title>Node0x28a194b0&#45;&gt;Node0x199f1180</title>
<path fill="none" stroke="black" d="M393.5,-96.0862C393.5,-86.536 393.5,-77.6318 393.5,-69.9315"/>
<polygon fill="black" stroke="black" points="397,-69.9051 393.5,-59.9051 390,-69.9052 397,-69.9051"/>
</g>
</g>
</svg>
