<?xml version="1.0" encoding="UTF-8" standalone="no"?>
<!DOCTYPE svg PUBLIC "-//W3C//DTD SVG 1.1//EN"
 "http://www.w3.org/Graphics/SVG/1.1/DTD/svg11.dtd">
<!-- Generated by graphviz version 2.38.0 (20140413.2041)
 -->
<!-- Title: Control&#45;flow graph for function &#39;function_40b4ce(a1, a2, a3)&#39;. Pages: 1 -->
<svg width="872pt" height="964pt"
 viewBox="0.00 0.00 872.00 964.00" xmlns="http://www.w3.org/2000/svg" xmlns:xlink="http://www.w3.org/1999/xlink">
<g id="graph0" class="graph" transform="scale(1 1) rotate(0) translate(4 960)">
<title>Control&#45;flow graph for function &#39;function_40b4ce(a1, a2, a3)&#39;.</title>
<polygon fill="white" stroke="none" points="-4,4 -4,-960 868,-960 868,4 -4,4"/>
<text text-anchor="middle" x="432" y="-7.8" font-family="Times,serif" font-size="14.00">Control&#45;flow graph for function &#39;function_40b4ce(a1, a2, a3)&#39;.</text>
<!-- Node0x8edfbd70 -->
<g id="node1" class="node"><title>Node0x8edfbd70</title>
<polygon fill="none" stroke="black" points="373.5,-887.5 373.5,-955.5 432.5,-955.5 432.5,-887.5 373.5,-887.5"/>
<text text-anchor="start" x="381.5" y="-940.3" font-family="Times,serif" font-size="14.00">entry:</text>
<text text-anchor="start" x="381.5" y="-925.3" font-family="Times,serif" font-size="14.00"> a1</text>
<text text-anchor="start" x="381.5" y="-910.3" font-family="Times,serif" font-size="14.00"> a2</text>
<text text-anchor="start" x="381.5" y="-895.3" font-family="Times,serif" font-size="14.00"> a3</text>
</g>
<!-- Node0x8edfcd50 -->
<g id="node2" class="node"><title>Node0x8edfcd50</title>
<polygon fill="none" stroke="black" points="352.5,-766.5 352.5,-849.5 453.5,-849.5 453.5,-766.5 352.5,-766.5"/>
<text text-anchor="start" x="360.5" y="-834.3" font-family="Times,serif" font-size="14.00">v1 = g3</text>
<text text-anchor="start" x="360.5" y="-819.3" font-family="Times,serif" font-size="14.00"> g3 = &amp;(v1)</text>
<text text-anchor="start" x="360.5" y="-804.3" font-family="Times,serif" font-size="14.00"> v2 = g5</text>
<text text-anchor="start" x="360.5" y="-789.3" font-family="Times,serif" font-size="14.00"> v3 = g9</text>
<text text-anchor="start" x="360.5" y="-774.3" font-family="Times,serif" font-size="14.00"> g9 = v2</text>
</g>
<!-- Node0x8edfbd70&#45;&gt;Node0x8edfcd50 -->
<g id="edge1" class="edge"><title>Node0x8edfbd70&#45;&gt;Node0x8edfcd50</title>
<path fill="none" stroke="black" d="M403,-887.348C403,-878.674 403,-869.121 403,-859.758"/>
<polygon fill="black" stroke="black" points="406.5,-859.722 403,-849.722 399.5,-859.722 406.5,-859.722"/>
</g>
<!-- Node0x8edfce90 -->
<g id="node3" class="node"><title>Node0x8edfce90</title>
<polygon fill="none" stroke="black" points="225,-692.5 225,-728.5 581,-728.5 581,-692.5 225,-692.5"/>
<text text-anchor="start" x="233" y="-706.8" font-family="Times,serif" font-size="14.00">if (*(IntToPtrCastExpr&lt;ptr&gt;((v2 + 36))) == 0):</text>
</g>
<!-- Node0x8edfcd50&#45;&gt;Node0x8edfce90 -->
<g id="edge2" class="edge"><title>Node0x8edfcd50&#45;&gt;Node0x8edfce90</title>
<path fill="none" stroke="black" d="M403,-766.499C403,-757.206 403,-747.537 403,-738.946"/>
<polygon fill="black" stroke="black" points="406.5,-738.749 403,-728.749 399.5,-738.749 406.5,-738.749"/>
</g>
<!-- Node0x8edfd650 -->
<g id="node4" class="node"><title>Node0x8edfd650</title>
<polygon fill="none" stroke="black" points="0,-365.5 0,-433.5 472,-433.5 472,-365.5 0,-365.5"/>
<text text-anchor="start" x="8" y="-418.3" font-family="Times,serif" font-size="14.00">v4 = function_40afc3(IntToPtrCastExpr&lt;ptr&gt;(v2))</text>
<text text-anchor="start" x="8" y="-403.3" font-family="Times,serif" font-size="14.00"> g9 = v3</text>
<text text-anchor="start" x="8" y="-388.3" font-family="Times,serif" font-size="14.00"> g3 = v1</text>
<text text-anchor="start" x="8" y="-373.3" font-family="Times,serif" font-size="14.00"> return PtrToIntCastExpr&lt;int32&gt;(IntToPtrCastExpr&lt;ptr&gt;(v4))</text>
</g>
<!-- Node0x8edfce90&#45;&gt;Node0x8edfd650 -->
<g id="edge3" class="edge"><title>Node0x8edfce90&#45;&gt;Node0x8edfd650</title>
<path fill="none" stroke="black" d="M270.634,-692.402C253.182,-687.635 239.18,-681.604 233,-674 179.916,-608.685 201.777,-502.706 220.252,-443.681"/>
<polygon fill="black" stroke="black" points="223.66,-444.518 223.409,-433.926 217,-442.362 223.66,-444.518"/>
<text text-anchor="middle" x="388.5" y="-662.8" font-family="Times,serif" font-size="14.00">*(IntToPtrCastExpr&lt;ptr&gt;((v2 + 36))) == 0</text>
</g>
<!-- Node0x8edfd530 -->
<g id="node5" class="node"><title>Node0x8edfd530</title>
<polygon fill="none" stroke="black" points="319,-452.5 319,-640.5 821,-640.5 821,-452.5 319,-452.5"/>
<text text-anchor="start" x="327" y="-625.3" font-family="Times,serif" font-size="14.00">v5 = *(IntToPtrCastExpr&lt;ptr&gt;(v2))</text>
<text text-anchor="start" x="327" y="-610.3" font-family="Times,serif" font-size="14.00"> g2 = v5</text>
<text text-anchor="start" x="327" y="-595.3" font-family="Times,serif" font-size="14.00"> g1 = False</text>
<text text-anchor="start" x="327" y="-580.3" font-family="Times,serif" font-size="14.00"> g180 = True</text>
<text text-anchor="start" x="327" y="-565.3" font-family="Times,serif" font-size="14.00"> v6 = NULL</text>
<text text-anchor="start" x="327" y="-550.3" font-family="Times,serif" font-size="14.00"> g5 = v2</text>
<text text-anchor="start" x="327" y="-535.3" font-family="Times,serif" font-size="14.00"> v7 = a1</text>
<text text-anchor="start" x="327" y="-520.3" font-family="Times,serif" font-size="14.00"> g10 = &amp;(v7)</text>
<text text-anchor="start" x="327" y="-505.3" font-family="Times,serif" font-size="14.00"> v8 = *(IntToPtrCastExpr&lt;ptr&gt;((v5 + 228)))</text>
<text text-anchor="start" x="327" y="-490.3" font-family="Times,serif" font-size="14.00"> v9</text>
<text text-anchor="start" x="327" y="-475.3" font-family="Times,serif" font-size="14.00"> IntToPtrCastExpr&lt;ptr&gt;(v8)(a1, a2, PtrToIntCastExpr&lt;int32&gt;(v9))</text>
<text text-anchor="start" x="327" y="-460.3" font-family="Times,serif" font-size="14.00"> v10</text>
</g>
<!-- Node0x8edfce90&#45;&gt;Node0x8edfd530 -->
<g id="edge4" class="edge"><title>Node0x8edfce90&#45;&gt;Node0x8edfd530</title>
<path fill="none" stroke="black" d="M506.179,-692.494C525.15,-687.487 541.144,-681.338 548,-674 554.551,-666.988 559.521,-658.758 563.256,-649.917"/>
<polygon fill="black" stroke="black" points="566.55,-651.102 566.716,-640.508 559.98,-648.685 566.55,-651.102"/>
<text text-anchor="middle" x="711.5" y="-662.8" font-family="Times,serif" font-size="14.00">*(IntToPtrCastExpr&lt;ptr&gt;((v2 + 36))) != 0</text>
</g>
<!-- Node0x8edfccd0 -->
<g id="node6" class="node"><title>Node0x8edfccd0</title>
<polygon fill="none" stroke="black" points="259,-23.5 259,-59.5 313,-59.5 313,-23.5 259,-23.5"/>
<text text-anchor="start" x="267" y="-37.8" font-family="Times,serif" font-size="14.00">exit:</text>
</g>
<!-- Node0x8edfd650&#45;&gt;Node0x8edfccd0 -->
<g id="edge5" class="edge"><title>Node0x8edfd650&#45;&gt;Node0x8edfccd0</title>
<path fill="none" stroke="black" d="M236,-365.286C236,-342.317 236,-311.052 236,-283.5 236,-283.5 236,-283.5 236,-130.5 236,-107.157 249.464,-84.344 262.418,-67.7964"/>
<polygon fill="black" stroke="black" points="265.4,-69.6828 269.072,-59.7447 260.004,-65.2236 265.4,-69.6828"/>
</g>
<!-- Node0x8edfc9c0 -->
<g id="node7" class="node"><title>Node0x8edfc9c0</title>
<polygon fill="none" stroke="black" points="521,-308.5 521,-346.5 619,-346.5 619,-308.5 521,-308.5"/>
<text text-anchor="start" x="529" y="-331.3" font-family="Times,serif" font-size="14.00">if (g2 &gt; &#45;1):</text>
<text text-anchor="start" x="529" y="-316.3" font-family="Times,serif" font-size="14.00"> else:</text>
</g>
<!-- Node0x8edfd530&#45;&gt;Node0x8edfc9c0 -->
<g id="edge6" class="edge"><title>Node0x8edfd530&#45;&gt;Node0x8edfc9c0</title>
<path fill="none" stroke="black" d="M570,-452.213C570,-417.746 570,-381.19 570,-356.83"/>
<polygon fill="black" stroke="black" points="573.5,-356.547 570,-346.547 566.5,-356.547 573.5,-356.547"/>
</g>
<!-- Node0x8edfa400 -->
<g id="node8" class="node"><title>Node0x8edfa400</title>
<polygon fill="none" stroke="black" points="323,-211 323,-249 415,-249 415,-211 323,-211"/>
<text text-anchor="start" x="331" y="-233.8" font-family="Times,serif" font-size="14.00">0x40b502:</text>
<text text-anchor="start" x="331" y="-218.8" font-family="Times,serif" font-size="14.00"> v10 = v6</text>
</g>
<!-- Node0x8edfc9c0&#45;&gt;Node0x8edfa400 -->
<g id="edge7" class="edge"><title>Node0x8edfc9c0&#45;&gt;Node0x8edfa400</title>
<path fill="none" stroke="black" d="M531.72,-308.312C498.889,-292.713 451.451,-270.175 416.259,-253.454"/>
<polygon fill="black" stroke="black" points="417.672,-250.25 407.137,-249.12 414.667,-256.573 417.672,-250.25"/>
<text text-anchor="middle" x="514.5" y="-278.8" font-family="Times,serif" font-size="14.00">g2 &gt; &#45;1</text>
</g>
<!-- Node0x8edfd5c0 -->
<g id="node9" class="node"><title>Node0x8edfd5c0</title>
<polygon fill="none" stroke="black" points="433.5,-203.5 433.5,-256.5 828.5,-256.5 828.5,-203.5 433.5,-203.5"/>
<text text-anchor="start" x="441.5" y="-241.3" font-family="Times,serif" font-size="14.00">0x40b4fe:</text>
<text text-anchor="start" x="441.5" y="-226.3" font-family="Times,serif" font-size="14.00"> g5 = g9</text>
<text text-anchor="start" x="441.5" y="-211.3" font-family="Times,serif" font-size="14.00"> v10 = IntToPtrCastExpr&lt;ptr&gt;(function_40afc3(v6))</text>
</g>
<!-- Node0x8edfc9c0&#45;&gt;Node0x8edfd5c0 -->
<g id="edge8" class="edge"><title>Node0x8edfc9c0&#45;&gt;Node0x8edfd5c0</title>
<path fill="none" stroke="black" d="M581.761,-308.087C589.502,-295.968 599.873,-279.732 609.1,-265.287"/>
<polygon fill="black" stroke="black" points="612.23,-266.888 614.663,-256.577 606.33,-263.12 612.23,-266.888"/>
<text text-anchor="middle" x="634.5" y="-278.8" font-family="Times,serif" font-size="14.00">g2 &lt;= &#45;1</text>
</g>
<!-- Node0x8edfda80 -->
<g id="node10" class="node"><title>Node0x8edfda80</title>
<polygon fill="none" stroke="black" points="264.5,-97.5 264.5,-165.5 561.5,-165.5 561.5,-97.5 264.5,-97.5"/>
<text text-anchor="start" x="272.5" y="-150.3" font-family="Times,serif" font-size="14.00">0x40b505:</text>
<text text-anchor="start" x="272.5" y="-135.3" font-family="Times,serif" font-size="14.00"> g9 = v3</text>
<text text-anchor="start" x="272.5" y="-120.3" font-family="Times,serif" font-size="14.00"> g3 = v1</text>
<text text-anchor="start" x="272.5" y="-105.3" font-family="Times,serif" font-size="14.00"> return PtrToIntCastExpr&lt;int32&gt;(v10)</text>
</g>
<!-- Node0x8edfa400&#45;&gt;Node0x8edfda80 -->
<g id="edge9" class="edge"><title>Node0x8edfa400&#45;&gt;Node0x8edfda80</title>
<path fill="none" stroke="black" d="M377.276,-210.849C381.878,-200.755 387.815,-187.736 393.522,-175.219"/>
<polygon fill="black" stroke="black" points="396.851,-176.354 397.815,-165.803 390.482,-173.449 396.851,-176.354"/>
</g>
<!-- Node0x8edfd5c0&#45;&gt;Node0x8edfda80 -->
<g id="edge10" class="edge"><title>Node0x8edfd5c0&#45;&gt;Node0x8edfda80</title>
<path fill="none" stroke="black" d="M573.152,-203.393C549.785,-193.049 522.361,-180.91 496.876,-169.628"/>
<polygon fill="black" stroke="black" points="498.146,-166.363 487.585,-165.516 495.312,-172.764 498.146,-166.363"/>
</g>
<!-- Node0x8edfda80&#45;&gt;Node0x8edfccd0 -->
<g id="edge11" class="edge"><title>Node0x8edfda80&#45;&gt;Node0x8edfccd0</title>
<path fill="none" stroke="black" d="M365.349,-97.4817C349.961,-86.8193 333.247,-75.2378 319.144,-65.4662"/>
<polygon fill="black" stroke="black" points="320.949,-62.4589 310.736,-59.6402 316.963,-68.2126 320.949,-62.4589"/>
</g>
</g>
</svg>
