<?xml version="1.0" encoding="UTF-8" standalone="no"?>
<!DOCTYPE svg PUBLIC "-//W3C//DTD SVG 1.1//EN"
 "http://www.w3.org/Graphics/SVG/1.1/DTD/svg11.dtd">
<!-- Generated by graphviz version 2.38.0 (20140413.2041)
 -->
<!-- Title: Control&#45;flow graph for function &#39;function_40f10d(*a1, a2, a3, a4, a5, a6, a7, a8, a9, a10)&#39;. Pages: 1 -->
<svg width="661pt" height="488pt"
 viewBox="0.00 0.00 661.00 488.00" xmlns="http://www.w3.org/2000/svg" xmlns:xlink="http://www.w3.org/1999/xlink">
<g id="graph0" class="graph" transform="scale(1 1) rotate(0) translate(4 484)">
<title>Control&#45;flow graph for function &#39;function_40f10d(*a1, a2, a3, a4, a5, a6, a7, a8, a9, a10)&#39;.</title>
<polygon fill="white" stroke="none" points="-4,4 -4,-484 657,-484 657,4 -4,4"/>
<text text-anchor="middle" x="326.5" y="-7.8" font-family="Times,serif" font-size="14.00">Control&#45;flow graph for function &#39;function_40f10d(*a1, a2, a3, a4, a5, a6, a7, a8, a9, a10)&#39;.</text>
<!-- Node0x1e10f400 -->
<g id="node1" class="node"><title>Node0x1e10f400</title>
<polygon fill="none" stroke="black" points="297,-306.5 297,-479.5 356,-479.5 356,-306.5 297,-306.5"/>
<text text-anchor="start" x="305" y="-464.3" font-family="Times,serif" font-size="14.00">entry:</text>
<text text-anchor="start" x="305" y="-449.3" font-family="Times,serif" font-size="14.00"> a1</text>
<text text-anchor="start" x="305" y="-434.3" font-family="Times,serif" font-size="14.00"> a2</text>
<text text-anchor="start" x="305" y="-419.3" font-family="Times,serif" font-size="14.00"> a3</text>
<text text-anchor="start" x="305" y="-404.3" font-family="Times,serif" font-size="14.00"> a4</text>
<text text-anchor="start" x="305" y="-389.3" font-family="Times,serif" font-size="14.00"> a5</text>
<text text-anchor="start" x="305" y="-374.3" font-family="Times,serif" font-size="14.00"> a6</text>
<text text-anchor="start" x="305" y="-359.3" font-family="Times,serif" font-size="14.00"> a7</text>
<text text-anchor="start" x="305" y="-344.3" font-family="Times,serif" font-size="14.00"> a8</text>
<text text-anchor="start" x="305" y="-329.3" font-family="Times,serif" font-size="14.00"> a9</text>
<text text-anchor="start" x="305" y="-314.3" font-family="Times,serif" font-size="14.00"> a10</text>
</g>
<!-- Node0xcb44a6e0 -->
<g id="node2" class="node"><title>Node0xcb44a6e0</title>
<polygon fill="none" stroke="black" points="104.5,-96.5 104.5,-269.5 548.5,-269.5 548.5,-96.5 104.5,-96.5"/>
<text text-anchor="start" x="112.5" y="-254.3" font-family="Times,serif" font-size="14.00">v1 = g3</text>
<text text-anchor="start" x="112.5" y="-239.3" font-family="Times,serif" font-size="14.00"> g3 = &amp;(v1)</text>
<text text-anchor="start" x="112.5" y="-224.3" font-family="Times,serif" font-size="14.00"> TabbedTextOutA()</text>
<text text-anchor="start" x="112.5" y="-209.3" font-family="Times,serif" font-size="14.00"> result = PtrToIntCastExpr&lt;int32&gt;(a1)</text>
<text text-anchor="start" x="112.5" y="-194.3" font-family="Times,serif" font-size="14.00"> v2 = g2</text>
<text text-anchor="start" x="112.5" y="-179.3" font-family="Times,serif" font-size="14.00"> v3 = (v2 / 65536)</text>
<text text-anchor="start" x="112.5" y="-164.3" font-family="Times,serif" font-size="14.00"> g2 = v3</text>
<text text-anchor="start" x="112.5" y="-149.3" font-family="Times,serif" font-size="14.00"> a1[&#39;1&#39;] = v3</text>
<text text-anchor="start" x="112.5" y="-134.3" font-family="Times,serif" font-size="14.00"> *(IntToPtrCastExpr&lt;ptr&gt;(result)) = ((65536 * v2) / 65536)</text>
<text text-anchor="start" x="112.5" y="-119.3" font-family="Times,serif" font-size="14.00"> g3 = *(IntToPtrCastExpr&lt;ptr&gt;((g5 + 4)))</text>
<text text-anchor="start" x="112.5" y="-104.3" font-family="Times,serif" font-size="14.00"> return result</text>
</g>
<!-- Node0x1e10f400&#45;&gt;Node0xcb44a6e0 -->
<g id="edge1" class="edge"><title>Node0x1e10f400&#45;&gt;Node0xcb44a6e0</title>
<path fill="none" stroke="black" d="M326.5,-306.498C326.5,-297.624 326.5,-288.565 326.5,-279.589"/>
<polygon fill="black" stroke="black" points="330,-279.506 326.5,-269.506 323,-279.506 330,-279.506"/>
</g>
<!-- Node0xcb44a660 -->
<g id="node3" class="node"><title>Node0xcb44a660</title>
<polygon fill="none" stroke="black" points="299.5,-23.5 299.5,-59.5 353.5,-59.5 353.5,-23.5 299.5,-23.5"/>
<text text-anchor="start" x="307.5" y="-37.8" font-family="Times,serif" font-size="14.00">exit:</text>
</g>
<!-- Node0xcb44a6e0&#45;&gt;Node0xcb44a660 -->
<g id="edge2" class="edge"><title>Node0xcb44a6e0&#45;&gt;Node0xcb44a660</title>
<path fill="none" stroke="black" d="M326.5,-96.4343C326.5,-86.8184 326.5,-77.6259 326.5,-69.641"/>
<polygon fill="black" stroke="black" points="330,-69.5749 326.5,-59.5749 323,-69.5749 330,-69.5749"/>
</g>
</g>
</svg>
