<?xml version="1.0" encoding="UTF-8" standalone="no"?>
<!DOCTYPE svg PUBLIC "-//W3C//DTD SVG 1.1//EN"
 "http://www.w3.org/Graphics/SVG/1.1/DTD/svg11.dtd">
<!-- Generated by graphviz version 2.38.0 (20140413.2041)
 -->
<!-- Title: Control&#45;flow graph for function &#39;function_4037c0(*a1)&#39;. Pages: 1 -->
<svg width="1158pt" height="886pt"
 viewBox="0.00 0.00 1158.00 886.00" xmlns="http://www.w3.org/2000/svg" xmlns:xlink="http://www.w3.org/1999/xlink">
<g id="graph0" class="graph" transform="scale(1 1) rotate(0) translate(4 882)">
<title>Control&#45;flow graph for function &#39;function_4037c0(*a1)&#39;.</title>
<polygon fill="white" stroke="none" points="-4,4 -4,-882 1154,-882 1154,4 -4,4"/>
<text text-anchor="middle" x="575" y="-7.8" font-family="Times,serif" font-size="14.00">Control&#45;flow graph for function &#39;function_4037c0(*a1)&#39;.</text>
<!-- Node0x153fabe0 -->
<g id="node1" class="node"><title>Node0x153fabe0</title>
<polygon fill="none" stroke="black" points="226.5,-839.5 226.5,-877.5 285.5,-877.5 285.5,-839.5 226.5,-839.5"/>
<text text-anchor="start" x="234.5" y="-862.3" font-family="Times,serif" font-size="14.00">entry:</text>
<text text-anchor="start" x="234.5" y="-847.3" font-family="Times,serif" font-size="14.00"> a1</text>
</g>
<!-- Node0x19fabde0 -->
<g id="node2" class="node"><title>Node0x19fabde0</title>
<polygon fill="none" stroke="black" points="211,-718.5 211,-801.5 301,-801.5 301,-718.5 211,-718.5"/>
<text text-anchor="start" x="219" y="-786.3" font-family="Times,serif" font-size="14.00">v1 = *(a1)</text>
<text text-anchor="start" x="219" y="-771.3" font-family="Times,serif" font-size="14.00"> v2 = v1</text>
<text text-anchor="start" x="219" y="-756.3" font-family="Times,serif" font-size="14.00"> g9 = v2</text>
<text text-anchor="start" x="219" y="-741.3" font-family="Times,serif" font-size="14.00"> v3</text>
<text text-anchor="start" x="219" y="-726.3" font-family="Times,serif" font-size="14.00"> v4</text>
</g>
<!-- Node0x153fabe0&#45;&gt;Node0x19fabde0 -->
<g id="edge1" class="edge"><title>Node0x153fabe0&#45;&gt;Node0x19fabde0</title>
<path fill="none" stroke="black" d="M256,-839.349C256,-831.488 256,-821.852 256,-812.061"/>
<polygon fill="black" stroke="black" points="259.5,-811.87 256,-801.87 252.5,-811.87 259.5,-811.87"/>
</g>
<!-- Node0x156cefb0 -->
<g id="node3" class="node"><title>Node0x156cefb0</title>
<polygon fill="none" stroke="black" points="203.5,-644.5 203.5,-680.5 308.5,-680.5 308.5,-644.5 203.5,-644.5"/>
<text text-anchor="start" x="211.5" y="-658.8" font-family="Times,serif" font-size="14.00">if (v1 == 0):</text>
</g>
<!-- Node0x19fabde0&#45;&gt;Node0x156cefb0 -->
<g id="edge2" class="edge"><title>Node0x19fabde0&#45;&gt;Node0x156cefb0</title>
<path fill="none" stroke="black" d="M256,-718.499C256,-709.206 256,-699.537 256,-690.946"/>
<polygon fill="black" stroke="black" points="259.5,-690.749 256,-680.749 252.5,-690.749 259.5,-690.749"/>
</g>
<!-- Node0x19face10 -->
<g id="node4" class="node"><title>Node0x19face10</title>
<polygon fill="none" stroke="black" points="0,-317.5 0,-415.5 364,-415.5 364,-317.5 0,-317.5"/>
<text text-anchor="start" x="8" y="-400.3" font-family="Times,serif" font-size="14.00">0x4037c9:</text>
<text text-anchor="start" x="8" y="-385.3" font-family="Times,serif" font-size="14.00"> g2 = 0</text>
<text text-anchor="start" x="8" y="-370.3" font-family="Times,serif" font-size="14.00"> v5 = IntToPtrCastExpr&lt;ptr&gt;(v2)</text>
<text text-anchor="start" x="8" y="-355.3" font-family="Times,serif" font-size="14.00"> result = function_403690(v5, NULL, v4, v3, a1)</text>
<text text-anchor="start" x="8" y="-340.3" font-family="Times,serif" font-size="14.00"> g9 = ExtCastExpr&lt;int32&gt;(*(v5))</text>
<text text-anchor="start" x="8" y="-325.3" font-family="Times,serif" font-size="14.00"> return result</text>
</g>
<!-- Node0x156cefb0&#45;&gt;Node0x19face10 -->
<g id="edge3" class="edge"><title>Node0x156cefb0&#45;&gt;Node0x19face10</title>
<path fill="none" stroke="black" d="M244.325,-644.389C240.898,-638.734 237.423,-632.28 235,-626 209.439,-559.747 195.401,-478.951 188.303,-425.515"/>
<polygon fill="black" stroke="black" points="191.767,-425.005 187.016,-415.535 184.824,-425.901 191.767,-425.005"/>
<text text-anchor="middle" x="265" y="-614.8" font-family="Times,serif" font-size="14.00">v1 == 0</text>
</g>
<!-- Node0x19facd20 -->
<g id="node5" class="node"><title>Node0x19facd20</title>
<polygon fill="none" stroke="black" points="244,-434.5 244,-592.5 618,-592.5 618,-434.5 244,-434.5"/>
<text text-anchor="start" x="252" y="-577.3" font-family="Times,serif" font-size="14.00">0x4037d6:</text>
<text text-anchor="start" x="252" y="-562.3" font-family="Times,serif" font-size="14.00"> g2 = v2</text>
<text text-anchor="start" x="252" y="-547.3" font-family="Times,serif" font-size="14.00"> v6 = g7</text>
<text text-anchor="start" x="252" y="-532.3" font-family="Times,serif" font-size="14.00"> v7 = (v2 + 1)</text>
<text text-anchor="start" x="252" y="-517.3" font-family="Times,serif" font-size="14.00"> g7 = v7</text>
<text text-anchor="start" x="252" y="-502.3" font-family="Times,serif" font-size="14.00"> v8 = v2</text>
<text text-anchor="start" x="252" y="-487.3" font-family="Times,serif" font-size="14.00"> v9 = (ExtCastExpr&lt;int32&gt;(a1[v8]) | (g8 &amp; &#45;256))</text>
<text text-anchor="start" x="252" y="-472.3" font-family="Times,serif" font-size="14.00"> g8 = v9</text>
<text text-anchor="start" x="252" y="-457.3" font-family="Times,serif" font-size="14.00"> v10 = (v8 + 1)</text>
<text text-anchor="start" x="252" y="-442.3" font-family="Times,serif" font-size="14.00"> g2 = v10</text>
</g>
<!-- Node0x156cefb0&#45;&gt;Node0x19facd20 -->
<g id="edge4" class="edge"><title>Node0x156cefb0&#45;&gt;Node0x19facd20</title>
<path fill="none" stroke="black" d="M276.417,-644.35C290.248,-632.731 309.668,-616.419 330.086,-599.268"/>
<polygon fill="black" stroke="black" points="332.545,-601.773 337.951,-592.661 328.043,-596.413 332.545,-601.773"/>
<text text-anchor="middle" x="340" y="-614.8" font-family="Times,serif" font-size="14.00">v1 != 0</text>
</g>
<!-- Node0x19fac290 -->
<g id="node6" class="node"><title>Node0x19fac290</title>
<polygon fill="none" stroke="black" points="334,-23.5 334,-59.5 388,-59.5 388,-23.5 334,-23.5"/>
<text text-anchor="start" x="342" y="-37.8" font-family="Times,serif" font-size="14.00">exit:</text>
</g>
<!-- Node0x19face10&#45;&gt;Node0x19fac290 -->
<g id="edge5" class="edge"><title>Node0x19face10&#45;&gt;Node0x19fac290</title>
<path fill="none" stroke="black" d="M170.761,-317.289C160.131,-258.832 152.222,-160.296 201,-97 229.98,-59.3939 286.236,-47.5533 323.716,-43.9313"/>
<polygon fill="black" stroke="black" points="324.069,-47.4143 333.751,-43.1131 323.5,-40.4374 324.069,-47.4143"/>
</g>
<!-- Node0x153fb5d0 -->
<g id="node7" class="node"><title>Node0x153fb5d0</title>
<polygon fill="none" stroke="black" points="367,-262.5 367,-298.5 495,-298.5 495,-262.5 367,-262.5"/>
<text text-anchor="start" x="375" y="-276.8" font-family="Times,serif" font-size="14.00">while (v9 != 0):</text>
</g>
<!-- Node0x19facd20&#45;&gt;Node0x153fb5d0 -->
<g id="edge6" class="edge"><title>Node0x19facd20&#45;&gt;Node0x153fb5d0</title>
<path fill="none" stroke="black" d="M431,-434.294C431,-390.929 431,-339.707 431,-308.954"/>
<polygon fill="black" stroke="black" points="434.5,-308.603 431,-298.603 427.5,-308.603 434.5,-308.603"/>
</g>
<!-- Node0x19face70 -->
<g id="node8" class="node"><title>Node0x19face70</title>
<polygon fill="none" stroke="black" points="210,-105 210,-203 584,-203 584,-105 210,-105"/>
<text text-anchor="start" x="218" y="-187.8" font-family="Times,serif" font-size="14.00">0x4037e0:</text>
<text text-anchor="start" x="218" y="-172.8" font-family="Times,serif" font-size="14.00"> v8 = v10</text>
<text text-anchor="start" x="218" y="-157.8" font-family="Times,serif" font-size="14.00"> v9 = (ExtCastExpr&lt;int32&gt;(a1[v8]) | (v9 &amp; &#45;256))</text>
<text text-anchor="start" x="218" y="-142.8" font-family="Times,serif" font-size="14.00"> g8 = v9</text>
<text text-anchor="start" x="218" y="-127.8" font-family="Times,serif" font-size="14.00"> v10 = (v8 + 1)</text>
<text text-anchor="start" x="218" y="-112.8" font-family="Times,serif" font-size="14.00"> g2 = v10</text>
</g>
<!-- Node0x153fb5d0&#45;&gt;Node0x19face70 -->
<g id="edge7" class="edge"><title>Node0x153fb5d0&#45;&gt;Node0x19face70</title>
<path fill="none" stroke="black" d="M382.097,-262.5C374.486,-257.699 367.624,-251.631 363,-244 357.159,-234.361 356.836,-223.548 359.508,-212.868"/>
<polygon fill="black" stroke="black" points="362.909,-213.729 362.731,-203.136 356.264,-211.528 362.909,-213.729"/>
<text text-anchor="middle" x="390" y="-232.8" font-family="Times,serif" font-size="14.00">v9 != 0</text>
</g>
<!-- Node0x19fad1d0 -->
<g id="node9" class="node"><title>Node0x19fad1d0</title>
<polygon fill="none" stroke="black" points="602,-97.5 602,-210.5 1150,-210.5 1150,-97.5 602,-97.5"/>
<text text-anchor="start" x="610" y="-195.3" font-family="Times,serif" font-size="14.00">v11 = (v10 &#45; v7)</text>
<text text-anchor="start" x="610" y="-180.3" font-family="Times,serif" font-size="14.00"> g2 = v11</text>
<text text-anchor="start" x="610" y="-165.3" font-family="Times,serif" font-size="14.00"> g7 = ExtCastExpr&lt;int32&gt;(*(IntToPtrCastExpr&lt;ptr&gt;(v6)))</text>
<text text-anchor="start" x="610" y="-150.3" font-family="Times,serif" font-size="14.00"> v12 = IntToPtrCastExpr&lt;ptr&gt;(v2)</text>
<text text-anchor="start" x="610" y="-135.3" font-family="Times,serif" font-size="14.00"> result2 = function_403690(v12, IntToPtrCastExpr&lt;ptr&gt;(v11), v4, v3, a1)</text>
<text text-anchor="start" x="610" y="-120.3" font-family="Times,serif" font-size="14.00"> g9 = ExtCastExpr&lt;int32&gt;(*(v12))</text>
<text text-anchor="start" x="610" y="-105.3" font-family="Times,serif" font-size="14.00"> return result2</text>
</g>
<!-- Node0x153fb5d0&#45;&gt;Node0x19fad1d0 -->
<g id="edge8" class="edge"><title>Node0x153fb5d0&#45;&gt;Node0x19fad1d0</title>
<path fill="none" stroke="black" d="M491.942,-262.45C537.791,-249.623 603.497,-231.24 667.63,-213.297"/>
<polygon fill="black" stroke="black" points="668.805,-216.603 677.492,-210.538 666.919,-209.861 668.805,-216.603"/>
<text text-anchor="middle" x="630" y="-232.8" font-family="Times,serif" font-size="14.00">v9 == 0</text>
</g>
<!-- Node0x19face70&#45;&gt;Node0x153fb5d0 -->
<g id="edge9" class="edge"><title>Node0x19face70&#45;&gt;Node0x153fb5d0</title>
<path fill="none" stroke="black" d="M410.167,-203.215C414.756,-220.018 419.737,-238.259 423.678,-252.69"/>
<polygon fill="black" stroke="black" points="420.333,-253.725 426.344,-262.45 427.086,-251.881 420.333,-253.725"/>
</g>
<!-- Node0x19fad1d0&#45;&gt;Node0x19fac290 -->
<g id="edge10" class="edge"><title>Node0x19fad1d0&#45;&gt;Node0x19fac290</title>
<path fill="none" stroke="black" d="M616.991,-97.4263C531.063,-78.9893 445.359,-60.6004 398.156,-50.4722"/>
<polygon fill="black" stroke="black" points="398.635,-46.9954 388.123,-48.3196 397.166,-53.8396 398.635,-46.9954"/>
</g>
</g>
</svg>
