<?xml version="1.0" encoding="UTF-8" standalone="no"?>
<!DOCTYPE svg PUBLIC "-//W3C//DTD SVG 1.1//EN"
 "http://www.w3.org/Graphics/SVG/1.1/DTD/svg11.dtd">
<!-- Generated by graphviz version 2.38.0 (20140413.2041)
 -->
<!-- Title: Control&#45;flow graph for function &#39;function_40edc6()&#39;. Pages: 1 -->
<svg width="394pt" height="276pt"
 viewBox="0.00 0.00 394.00 276.00" xmlns="http://www.w3.org/2000/svg" xmlns:xlink="http://www.w3.org/1999/xlink">
<g id="graph0" class="graph" transform="scale(1 1) rotate(0) translate(4 272)">
<title>Control&#45;flow graph for function &#39;function_40edc6()&#39;.</title>
<polygon fill="white" stroke="none" points="-4,4 -4,-272 390,-272 390,4 -4,4"/>
<text text-anchor="middle" x="193" y="-7.8" font-family="Times,serif" font-size="14.00">Control&#45;flow graph for function &#39;function_40edc6()&#39;.</text>
<!-- Node0x9dc34b40 -->
<g id="node1" class="node"><title>Node0x9dc34b40</title>
<polygon fill="none" stroke="black" points="163.5,-231.5 163.5,-267.5 222.5,-267.5 222.5,-231.5 163.5,-231.5"/>
<text text-anchor="start" x="171.5" y="-245.8" font-family="Times,serif" font-size="14.00">entry:</text>
</g>
<!-- Node0x9dc32810 -->
<g id="node2" class="node"><title>Node0x9dc32810</title>
<polygon fill="none" stroke="black" points="89,-96.5 89,-194.5 297,-194.5 297,-96.5 89,-96.5"/>
<text text-anchor="start" x="97" y="-179.3" font-family="Times,serif" font-size="14.00">v1</text>
<text text-anchor="start" x="97" y="-164.3" font-family="Times,serif" font-size="14.00"> g3 = &amp;(v1)</text>
<text text-anchor="start" x="97" y="-149.3" font-family="Times,serif" font-size="14.00"> v2</text>
<text text-anchor="start" x="97" y="-134.3" font-family="Times,serif" font-size="14.00"> g2 = &amp;(v2)</text>
<text text-anchor="start" x="97" y="-119.3" font-family="Times,serif" font-size="14.00"> v2 = 4486960</text>
<text text-anchor="start" x="97" y="-104.3" font-family="Times,serif" font-size="14.00"> __CxxThrowException_8()</text>
</g>
<!-- Node0x9dc34b40&#45;&gt;Node0x9dc32810 -->
<g id="edge1" class="edge"><title>Node0x9dc34b40&#45;&gt;Node0x9dc32810</title>
<path fill="none" stroke="black" d="M193,-231.197C193,-223.688 193,-214.415 193,-204.789"/>
<polygon fill="black" stroke="black" points="196.5,-204.688 193,-194.688 189.5,-204.688 196.5,-204.688"/>
</g>
<!-- Node0x9dc35200 -->
<g id="node3" class="node"><title>Node0x9dc35200</title>
<polygon fill="none" stroke="black" points="166,-23.5 166,-59.5 220,-59.5 220,-23.5 166,-23.5"/>
<text text-anchor="start" x="174" y="-37.8" font-family="Times,serif" font-size="14.00">exit:</text>
</g>
<!-- Node0x9dc32810&#45;&gt;Node0x9dc35200 -->
<g id="edge2" class="edge"><title>Node0x9dc32810&#45;&gt;Node0x9dc35200</title>
<path fill="none" stroke="black" d="M193,-96.4868C193,-87.2893 193,-77.9618 193,-69.7064"/>
<polygon fill="black" stroke="black" points="196.5,-69.5725 193,-59.5725 189.5,-69.5725 196.5,-69.5725"/>
</g>
</g>
</svg>
