<?xml version="1.0" encoding="UTF-8" standalone="no"?>
<!DOCTYPE svg PUBLIC "-//W3C//DTD SVG 1.1//EN"
 "http://www.w3.org/Graphics/SVG/1.1/DTD/svg11.dtd">
<!-- Generated by graphviz version 2.38.0 (20140413.2041)
 -->
<!-- Title: Control&#45;flow graph for function &#39;function_40a443(a1)&#39;. Pages: 1 -->
<svg width="780pt" height="1182pt"
 viewBox="0.00 0.00 779.50 1182.00" xmlns="http://www.w3.org/2000/svg" xmlns:xlink="http://www.w3.org/1999/xlink">
<g id="graph0" class="graph" transform="scale(1 1) rotate(0) translate(4 1178)">
<title>Control&#45;flow graph for function &#39;function_40a443(a1)&#39;.</title>
<polygon fill="white" stroke="none" points="-4,4 -4,-1178 775.5,-1178 775.5,4 -4,4"/>
<text text-anchor="middle" x="385.75" y="-7.8" font-family="Times,serif" font-size="14.00">Control&#45;flow graph for function &#39;function_40a443(a1)&#39;.</text>
<!-- Node0x399bc120 -->
<g id="node1" class="node"><title>Node0x399bc120</title>
<polygon fill="none" stroke="black" points="294,-1135.5 294,-1173.5 353,-1173.5 353,-1135.5 294,-1135.5"/>
<text text-anchor="start" x="302" y="-1158.3" font-family="Times,serif" font-size="14.00">entry:</text>
<text text-anchor="start" x="302" y="-1143.3" font-family="Times,serif" font-size="14.00"> a1</text>
</g>
<!-- Node0xbee94650 -->
<g id="node2" class="node"><title>Node0xbee94650</title>
<polygon fill="none" stroke="black" points="0,-384.5 0,-1097.5 647,-1097.5 647,-384.5 0,-384.5"/>
<text text-anchor="start" x="8" y="-1082.3" font-family="Times,serif" font-size="14.00">v1 = 8</text>
<text text-anchor="start" x="8" y="-1067.3" font-family="Times,serif" font-size="14.00"> g2 = 4418654</text>
<text text-anchor="start" x="8" y="-1052.3" font-family="Times,serif" font-size="14.00"> __EH_prolog3()</text>
<text text-anchor="start" x="8" y="-1037.3" font-family="Times,serif" font-size="14.00"> v2 = g3</text>
<text text-anchor="start" x="8" y="-1022.3" font-family="Times,serif" font-size="14.00"> v3 = *(IntToPtrCastExpr&lt;ptr&gt;((v2 + 8)))</text>
<text text-anchor="start" x="8" y="-1007.3" font-family="Times,serif" font-size="14.00"> g4 = v3</text>
<text text-anchor="start" x="8" y="-992.3" font-family="Times,serif" font-size="14.00"> g4 = (v3 &#45; 48)</text>
<text text-anchor="start" x="8" y="-977.3" font-family="Times,serif" font-size="14.00"> g5 = (v2 &#45; 20)</text>
<text text-anchor="start" x="8" y="-962.3" font-family="Times,serif" font-size="14.00"> function_410276(IntToPtrCastExpr&lt;ptr&gt;(*(IntToPtrCastExpr&lt;ptr&gt;((v3 &#45; 20)))), &amp;(v1))</text>
<text text-anchor="start" x="8" y="-947.3" font-family="Times,serif" font-size="14.00"> g2 = *(IntToPtrCastExpr&lt;ptr&gt;(g4))</text>
<text text-anchor="start" x="8" y="-932.3" font-family="Times,serif" font-size="14.00"> *(IntToPtrCastExpr&lt;ptr&gt;((g3 &#45; 4))) = 0</text>
<text text-anchor="start" x="8" y="-917.3" font-family="Times,serif" font-size="14.00"> v4 = g10</text>
<text text-anchor="start" x="8" y="-902.3" font-family="Times,serif" font-size="14.00"> g1 = (v4 &lt; 16)</text>
<text text-anchor="start" x="8" y="-887.3" font-family="Times,serif" font-size="14.00"> g180 = (v4 == 16)</text>
<text text-anchor="start" x="8" y="-872.3" font-family="Times,serif" font-size="14.00"> v5</text>
<text text-anchor="start" x="8" y="-857.3" font-family="Times,serif" font-size="14.00"> v6 = &amp;(v5)</text>
<text text-anchor="start" x="8" y="-842.3" font-family="Times,serif" font-size="14.00"> g7 = v6</text>
<text text-anchor="start" x="8" y="-827.3" font-family="Times,serif" font-size="14.00"> v7 = g3</text>
<text text-anchor="start" x="8" y="-812.3" font-family="Times,serif" font-size="14.00"> v8 = *(IntToPtrCastExpr&lt;ptr&gt;((v7 + 12)))</text>
<text text-anchor="start" x="8" y="-797.3" font-family="Times,serif" font-size="14.00"> g10 = &amp;(v8)</text>
<text text-anchor="start" x="8" y="-782.3" font-family="Times,serif" font-size="14.00"> v9 = (v7 + 16)</text>
<text text-anchor="start" x="8" y="-767.3" font-family="Times,serif" font-size="14.00"> g9 = v9</text>
<text text-anchor="start" x="8" y="-752.3" font-family="Times,serif" font-size="14.00"> v5 = *(IntToPtrCastExpr&lt;ptr&gt;(v9))</text>
<text text-anchor="start" x="8" y="-737.3" font-family="Times,serif" font-size="14.00"> v10 = (&#45;4 if g6 else 4)</text>
<text text-anchor="start" x="8" y="-722.3" font-family="Times,serif" font-size="14.00"> v11 = (v10 + v9)</text>
<text text-anchor="start" x="8" y="-707.3" font-family="Times,serif" font-size="14.00"> v12 = (v10 + v6)</text>
<text text-anchor="start" x="8" y="-692.3" font-family="Times,serif" font-size="14.00"> g9 = v11</text>
<text text-anchor="start" x="8" y="-677.3" font-family="Times,serif" font-size="14.00"> g7 = v12</text>
<text text-anchor="start" x="8" y="-662.3" font-family="Times,serif" font-size="14.00"> *(IntToPtrCastExpr&lt;ptr&gt;(v12)) = *(IntToPtrCastExpr&lt;ptr&gt;(v11))</text>
<text text-anchor="start" x="8" y="-647.3" font-family="Times,serif" font-size="14.00"> v13 = (v11 + v10)</text>
<text text-anchor="start" x="8" y="-632.3" font-family="Times,serif" font-size="14.00"> v14 = (v12 + v10)</text>
<text text-anchor="start" x="8" y="-617.3" font-family="Times,serif" font-size="14.00"> g9 = v13</text>
<text text-anchor="start" x="8" y="-602.3" font-family="Times,serif" font-size="14.00"> g7 = v14</text>
<text text-anchor="start" x="8" y="-587.3" font-family="Times,serif" font-size="14.00"> *(IntToPtrCastExpr&lt;ptr&gt;(v14)) = *(IntToPtrCastExpr&lt;ptr&gt;(v13))</text>
<text text-anchor="start" x="8" y="-572.3" font-family="Times,serif" font-size="14.00"> v15 = (v13 + v10)</text>
<text text-anchor="start" x="8" y="-557.3" font-family="Times,serif" font-size="14.00"> v16 = (v14 + v10)</text>
<text text-anchor="start" x="8" y="-542.3" font-family="Times,serif" font-size="14.00"> g9 = v15</text>
<text text-anchor="start" x="8" y="-527.3" font-family="Times,serif" font-size="14.00"> g7 = v16</text>
<text text-anchor="start" x="8" y="-512.3" font-family="Times,serif" font-size="14.00"> g5 = g4</text>
<text text-anchor="start" x="8" y="-497.3" font-family="Times,serif" font-size="14.00"> *(IntToPtrCastExpr&lt;ptr&gt;(v16)) = *(IntToPtrCastExpr&lt;ptr&gt;(v15))</text>
<text text-anchor="start" x="8" y="-482.3" font-family="Times,serif" font-size="14.00"> g9 = (v15 + v10)</text>
<text text-anchor="start" x="8" y="-467.3" font-family="Times,serif" font-size="14.00"> g7 = (v16 + v10)</text>
<text text-anchor="start" x="8" y="-452.3" font-family="Times,serif" font-size="14.00"> IntToPtrCastExpr&lt;ptr&gt;(*(IntToPtrCastExpr&lt;ptr&gt;((g2 + 176))))(v8, v5, 0)</text>
<text text-anchor="start" x="8" y="-437.3" font-family="Times,serif" font-size="14.00"> *(IntToPtrCastExpr&lt;ptr&gt;((g3 &#45; 4))) = &#45;1</text>
<text text-anchor="start" x="8" y="-422.3" font-family="Times,serif" font-size="14.00"> v17 = g2</text>
<text text-anchor="start" x="8" y="-407.3" font-family="Times,serif" font-size="14.00"> g9 = v17</text>
<text text-anchor="start" x="8" y="-392.3" font-family="Times,serif" font-size="14.00"> result</text>
</g>
<!-- Node0x399bc120&#45;&gt;Node0xbee94650 -->
<g id="edge1" class="edge"><title>Node0x399bc120&#45;&gt;Node0xbee94650</title>
<path fill="none" stroke="black" d="M323.5,-1135.29C323.5,-1128.02 323.5,-1118.81 323.5,-1108.07"/>
<polygon fill="black" stroke="black" points="327,-1107.78 323.5,-1097.78 320,-1107.78 327,-1107.78"/>
</g>
<!-- Node0xbee92aa0 -->
<g id="node3" class="node"><title>Node0xbee92aa0</title>
<polygon fill="none" stroke="black" points="151.5,-308.5 151.5,-346.5 495.5,-346.5 495.5,-308.5 151.5,-308.5"/>
<text text-anchor="start" x="159.5" y="-331.3" font-family="Times,serif" font-size="14.00">if (*(IntToPtrCastExpr&lt;ptr&gt;((g3 &#45; 16))) != 0):</text>
<text text-anchor="start" x="159.5" y="-316.3" font-family="Times,serif" font-size="14.00"> else:</text>
</g>
<!-- Node0xbee94650&#45;&gt;Node0xbee92aa0 -->
<g id="edge2" class="edge"><title>Node0xbee94650&#45;&gt;Node0xbee92aa0</title>
<path fill="none" stroke="black" d="M323.5,-384.425C323.5,-373.99 323.5,-364.678 323.5,-356.787"/>
<polygon fill="black" stroke="black" points="327,-356.608 323.5,-346.608 320,-356.608 327,-356.608"/>
</g>
<!-- Node0x399bce10 -->
<g id="node4" class="node"><title>Node0x399bce10</title>
<polygon fill="none" stroke="black" points="133.5,-188.5 133.5,-256.5 281.5,-256.5 281.5,-188.5 133.5,-188.5"/>
<text text-anchor="start" x="141.5" y="-241.3" font-family="Times,serif" font-size="14.00">v18 = 0</text>
<text text-anchor="start" x="141.5" y="-226.3" font-family="Times,serif" font-size="14.00"> g10 = &amp;(v18)</text>
<text text-anchor="start" x="141.5" y="-211.3" font-family="Times,serif" font-size="14.00"> function_40fa42()</text>
<text text-anchor="start" x="141.5" y="-196.3" font-family="Times,serif" font-size="14.00"> result = g9</text>
</g>
<!-- Node0xbee92aa0&#45;&gt;Node0x399bce10 -->
<g id="edge3" class="edge"><title>Node0xbee92aa0&#45;&gt;Node0x399bce10</title>
<path fill="none" stroke="black" d="M201.519,-308.436C184.324,-303.549 170.455,-297.477 164.5,-290 158.334,-282.258 159.036,-273.611 163.232,-265.181"/>
<polygon fill="black" stroke="black" points="166.324,-266.839 168.727,-256.521 160.414,-263.089 166.324,-266.839"/>
<text text-anchor="middle" x="313.5" y="-278.8" font-family="Times,serif" font-size="14.00">*(IntToPtrCastExpr&lt;ptr&gt;((g3 &#45; 16))) != 0</text>
</g>
<!-- Node0x399bd150 -->
<g id="node5" class="node"><title>Node0x399bd150</title>
<polygon fill="none" stroke="black" points="387.5,-204.5 387.5,-240.5 493.5,-240.5 493.5,-204.5 387.5,-204.5"/>
<text text-anchor="start" x="395.5" y="-218.8" font-family="Times,serif" font-size="14.00">result = v17</text>
</g>
<!-- Node0xbee92aa0&#45;&gt;Node0x399bd150 -->
<g id="edge4" class="edge"><title>Node0xbee92aa0&#45;&gt;Node0x399bd150</title>
<path fill="none" stroke="black" d="M425.822,-308.47C442.869,-303.443 456.862,-297.31 462.5,-290 471.612,-278.186 466.937,-262.422 459.597,-249.208"/>
<polygon fill="black" stroke="black" points="462.471,-247.201 454.227,-240.547 456.522,-250.89 462.471,-247.201"/>
<text text-anchor="middle" x="619.5" y="-278.8" font-family="Times,serif" font-size="14.00">*(IntToPtrCastExpr&lt;ptr&gt;((g3 &#45; 16))) == 0</text>
</g>
<!-- Node0x399bcc70 -->
<g id="node6" class="node"><title>Node0x399bcc70</title>
<polygon fill="none" stroke="black" points="284.5,-97.5 284.5,-150.5 414.5,-150.5 414.5,-97.5 284.5,-97.5"/>
<text text-anchor="start" x="292.5" y="-135.3" font-family="Times,serif" font-size="14.00">0x40a496:</text>
<text text-anchor="start" x="292.5" y="-120.3" font-family="Times,serif" font-size="14.00"> __EH_epilog3()</text>
<text text-anchor="start" x="292.5" y="-105.3" font-family="Times,serif" font-size="14.00"> return result</text>
</g>
<!-- Node0x399bce10&#45;&gt;Node0x399bcc70 -->
<g id="edge5" class="edge"><title>Node0x399bce10&#45;&gt;Node0x399bcc70</title>
<path fill="none" stroke="black" d="M256.368,-188.29C271.525,-177.99 288.176,-166.674 303.156,-156.495"/>
<polygon fill="black" stroke="black" points="305.455,-159.164 311.758,-150.648 301.52,-153.374 305.455,-159.164"/>
</g>
<!-- Node0x399bd150&#45;&gt;Node0x399bcc70 -->
<g id="edge6" class="edge"><title>Node0x399bd150&#45;&gt;Node0x399bcc70</title>
<path fill="none" stroke="black" d="M424.231,-204.248C412.193,-191.482 395.422,-173.697 380.816,-158.209"/>
<polygon fill="black" stroke="black" points="383.258,-155.697 373.851,-150.823 378.165,-160.499 383.258,-155.697"/>
</g>
<!-- Node0xbee945d0 -->
<g id="node7" class="node"><title>Node0xbee945d0</title>
<polygon fill="none" stroke="black" points="322.5,-23.5 322.5,-59.5 376.5,-59.5 376.5,-23.5 322.5,-23.5"/>
<text text-anchor="start" x="330.5" y="-37.8" font-family="Times,serif" font-size="14.00">exit:</text>
</g>
<!-- Node0x399bcc70&#45;&gt;Node0xbee945d0 -->
<g id="edge7" class="edge"><title>Node0x399bcc70&#45;&gt;Node0xbee945d0</title>
<path fill="none" stroke="black" d="M349.5,-97.0862C349.5,-88.4596 349.5,-78.8224 349.5,-70.0748"/>
<polygon fill="black" stroke="black" points="353,-69.9735 349.5,-59.9735 346,-69.9735 353,-69.9735"/>
</g>
</g>
</svg>
