<?xml version="1.0" encoding="UTF-8" standalone="no"?>
<!DOCTYPE svg PUBLIC "-//W3C//DTD SVG 1.1//EN"
 "http://www.w3.org/Graphics/SVG/1.1/DTD/svg11.dtd">
<!-- Generated by graphviz version 2.38.0 (20140413.2041)
 -->
<!-- Title: Control&#45;flow graph for function &#39;function_410ec4(*a1, *a2, *a3)&#39;. Pages: 1 -->
<svg width="1024pt" height="3298pt"
 viewBox="0.00 0.00 1023.50 3298.00" xmlns="http://www.w3.org/2000/svg" xmlns:xlink="http://www.w3.org/1999/xlink">
<g id="graph0" class="graph" transform="scale(1 1) rotate(0) translate(4 3294)">
<title>Control&#45;flow graph for function &#39;function_410ec4(*a1, *a2, *a3)&#39;.</title>
<polygon fill="white" stroke="none" points="-4,4 -4,-3294 1019.5,-3294 1019.5,4 -4,4"/>
<text text-anchor="middle" x="507.75" y="-7.8" font-family="Times,serif" font-size="14.00">Control&#45;flow graph for function &#39;function_410ec4(*a1, *a2, *a3)&#39;.</text>
<!-- Node0x208aecd0 -->
<g id="node1" class="node"><title>Node0x208aecd0</title>
<polygon fill="none" stroke="black" points="122,-3221.5 122,-3289.5 181,-3289.5 181,-3221.5 122,-3221.5"/>
<text text-anchor="start" x="130" y="-3274.3" font-family="Times,serif" font-size="14.00">entry:</text>
<text text-anchor="start" x="130" y="-3259.3" font-family="Times,serif" font-size="14.00"> a1</text>
<text text-anchor="start" x="130" y="-3244.3" font-family="Times,serif" font-size="14.00"> a2</text>
<text text-anchor="start" x="130" y="-3229.3" font-family="Times,serif" font-size="14.00"> a3</text>
</g>
<!-- Node0x208af160 -->
<g id="node2" class="node"><title>Node0x208af160</title>
<polygon fill="none" stroke="black" points="12.5,-3055.5 12.5,-3183.5 290.5,-3183.5 290.5,-3055.5 12.5,-3055.5"/>
<text text-anchor="start" x="20.5" y="-3168.3" font-family="Times,serif" font-size="14.00">v1 = g5</text>
<text text-anchor="start" x="20.5" y="-3153.3" font-family="Times,serif" font-size="14.00"> g9 = v1</text>
<text text-anchor="start" x="20.5" y="-3138.3" font-family="Times,serif" font-size="14.00"> v2 = g7</text>
<text text-anchor="start" x="20.5" y="-3123.3" font-family="Times,serif" font-size="14.00"> g10 = &amp;(v2)</text>
<text text-anchor="start" x="20.5" y="-3108.3" font-family="Times,serif" font-size="14.00"> v3 = *(IntToPtrCastExpr&lt;ptr&gt;(v1))</text>
<text text-anchor="start" x="20.5" y="-3093.3" font-family="Times,serif" font-size="14.00"> g7 = v3</text>
<text text-anchor="start" x="20.5" y="-3078.3" font-family="Times,serif" font-size="14.00"> result2</text>
<text text-anchor="start" x="20.5" y="-3063.3" font-family="Times,serif" font-size="14.00"> v4</text>
</g>
<!-- Node0x208aecd0&#45;&gt;Node0x208af160 -->
<g id="edge1" class="edge"><title>Node0x208aecd0&#45;&gt;Node0x208af160</title>
<path fill="none" stroke="black" d="M151.5,-3221.38C151.5,-3212.86 151.5,-3203.36 151.5,-3193.68"/>
<polygon fill="black" stroke="black" points="155,-3193.57 151.5,-3183.57 148,-3193.57 155,-3193.57"/>
</g>
<!-- Node0x208ae980 -->
<g id="node3" class="node"><title>Node0x208ae980</title>
<polygon fill="none" stroke="black" points="99,-2979.5 99,-3017.5 204,-3017.5 204,-2979.5 99,-2979.5"/>
<text text-anchor="start" x="107" y="-3002.3" font-family="Times,serif" font-size="14.00">if (v3 == 0):</text>
<text text-anchor="start" x="107" y="-2987.3" font-family="Times,serif" font-size="14.00"> else:</text>
</g>
<!-- Node0x208af160&#45;&gt;Node0x208ae980 -->
<g id="edge2" class="edge"><title>Node0x208af160&#45;&gt;Node0x208ae980</title>
<path fill="none" stroke="black" d="M151.5,-3055.17C151.5,-3045.6 151.5,-3036.16 151.5,-3027.85"/>
<polygon fill="black" stroke="black" points="155,-3027.66 151.5,-3017.66 148,-3027.66 155,-3027.66"/>
</g>
<!-- Node0x208af8e0 -->
<g id="node4" class="node"><title>Node0x208af8e0</title>
<polygon fill="none" stroke="black" points="0,-2727.5 0,-2795.5 111,-2795.5 111,-2727.5 0,-2727.5"/>
<text text-anchor="start" x="8" y="-2780.3" font-family="Times,serif" font-size="14.00">0x410ece:</text>
<text text-anchor="start" x="8" y="-2765.3" font-family="Times,serif" font-size="14.00"> g1 = False</text>
<text text-anchor="start" x="8" y="-2750.3" font-family="Times,serif" font-size="14.00"> g180 = True</text>
<text text-anchor="start" x="8" y="-2735.3" font-family="Times,serif" font-size="14.00"> result2 = 0</text>
</g>
<!-- Node0x208ae980&#45;&gt;Node0x208af8e0 -->
<g id="edge3" class="edge"><title>Node0x208ae980&#45;&gt;Node0x208af8e0</title>
<path fill="none" stroke="black" d="M130.756,-2979.2C125.53,-2973.76 120.325,-2967.51 116.5,-2961 87.5607,-2911.75 71.0773,-2847.43 62.7167,-2805.56"/>
<polygon fill="black" stroke="black" points="66.1419,-2804.84 60.8118,-2795.68 59.2685,-2806.16 66.1419,-2804.84"/>
<text text-anchor="middle" x="146.5" y="-2949.8" font-family="Times,serif" font-size="14.00">v3 == 0</text>
</g>
<!-- Node0x208af9f0 -->
<g id="node5" class="node"><title>Node0x208af9f0</title>
<polygon fill="none" stroke="black" points="120,-2814.5 120,-2927.5 379,-2927.5 379,-2814.5 120,-2814.5"/>
<text text-anchor="start" x="128" y="-2912.3" font-family="Times,serif" font-size="14.00">v5 = g4</text>
<text text-anchor="start" x="128" y="-2897.3" font-family="Times,serif" font-size="14.00"> v6 = ExtCastExpr&lt;int32&gt;(*(a1))</text>
<text text-anchor="start" x="128" y="-2882.3" font-family="Times,serif" font-size="14.00"> g4 = v6</text>
<text text-anchor="start" x="128" y="-2867.3" font-family="Times,serif" font-size="14.00"> v7 = g3</text>
<text text-anchor="start" x="128" y="-2852.3" font-family="Times,serif" font-size="14.00"> g3 = 0</text>
<text text-anchor="start" x="128" y="-2837.3" font-family="Times,serif" font-size="14.00"> v8</text>
<text text-anchor="start" x="128" y="-2822.3" font-family="Times,serif" font-size="14.00"> result</text>
</g>
<!-- Node0x208ae980&#45;&gt;Node0x208af9f0 -->
<g id="edge4" class="edge"><title>Node0x208ae980&#45;&gt;Node0x208af9f0</title>
<path fill="none" stroke="black" d="M165.75,-2979.25C174.836,-2967.62 187.207,-2951.77 199.652,-2935.84"/>
<polygon fill="black" stroke="black" points="202.753,-2937.55 206.149,-2927.52 197.235,-2933.24 202.753,-2937.55"/>
<text text-anchor="middle" x="216.5" y="-2949.8" font-family="Times,serif" font-size="14.00">v3 != 0</text>
</g>
<!-- Node0xf2e4390 -->
<g id="node6" class="node"><title>Node0xf2e4390</title>
<polygon fill="none" stroke="black" points="198.5,-97.5 198.5,-165.5 320.5,-165.5 320.5,-97.5 198.5,-97.5"/>
<text text-anchor="start" x="206.5" y="-150.3" font-family="Times,serif" font-size="14.00">0x410f25:</text>
<text text-anchor="start" x="206.5" y="-135.3" font-family="Times,serif" font-size="14.00"> g7 = v2</text>
<text text-anchor="start" x="206.5" y="-120.3" font-family="Times,serif" font-size="14.00"> g9 = v4</text>
<text text-anchor="start" x="206.5" y="-105.3" font-family="Times,serif" font-size="14.00"> return result2</text>
</g>
<!-- Node0x208af8e0&#45;&gt;Node0xf2e4390 -->
<g id="edge5" class="edge"><title>Node0x208af8e0&#45;&gt;Node0xf2e4390</title>
<path fill="none" stroke="black" d="M54.1754,-2727.29C53.3718,-2704.33 52.5,-2673.06 52.5,-2645.5 52.5,-2645.5 52.5,-2645.5 52.5,-627 52.5,-446.732 170.999,-256.168 228.682,-174.084"/>
<polygon fill="black" stroke="black" points="231.805,-175.731 234.737,-165.549 226.096,-171.681 231.805,-175.731"/>
</g>
<!-- Node0x208afd50 -->
<g id="node7" class="node"><title>Node0x208afd50</title>
<polygon fill="none" stroke="black" points="211,-2670.5 211,-2708.5 324,-2708.5 324,-2670.5 211,-2670.5"/>
<text text-anchor="start" x="219" y="-2693.3" font-family="Times,serif" font-size="14.00">if (v3 == v6):</text>
<text text-anchor="start" x="219" y="-2678.3" font-family="Times,serif" font-size="14.00"> else:</text>
</g>
<!-- Node0x208af9f0&#45;&gt;Node0x208afd50 -->
<g id="edge6" class="edge"><title>Node0x208af9f0&#45;&gt;Node0x208afd50</title>
<path fill="none" stroke="black" d="M255.097,-2814.19C258.275,-2782.49 262.118,-2744.17 264.676,-2718.66"/>
<polygon fill="black" stroke="black" points="268.172,-2718.87 265.688,-2708.57 261.207,-2718.18 268.172,-2718.87"/>
</g>
<!-- Node0x208af0e0 -->
<g id="node8" class="node"><title>Node0x208af0e0</title>
<polygon fill="none" stroke="black" points="483.5,-23.5 483.5,-59.5 537.5,-59.5 537.5,-23.5 483.5,-23.5"/>
<text text-anchor="start" x="491.5" y="-37.8" font-family="Times,serif" font-size="14.00">exit:</text>
</g>
<!-- Node0xf2e4390&#45;&gt;Node0x208af0e0 -->
<g id="edge7" class="edge"><title>Node0xf2e4390&#45;&gt;Node0x208af0e0</title>
<path fill="none" stroke="black" d="M320.581,-109.085C368.472,-92.2948 433.534,-69.4842 473.731,-55.391"/>
<polygon fill="black" stroke="black" points="475.111,-58.6162 483.39,-52.0048 472.795,-52.0105 475.111,-58.6162"/>
</g>
<!-- Node0x208b0250 -->
<g id="node9" class="node"><title>Node0x208b0250</title>
<polygon fill="none" stroke="black" points="67.5,-2268.5 67.5,-2411.5 485.5,-2411.5 485.5,-2268.5 67.5,-2268.5"/>
<text text-anchor="start" x="75.5" y="-2396.3" font-family="Times,serif" font-size="14.00">v9 = IntToPtrCastExpr&lt;ptr&gt;(v3)</text>
<text text-anchor="start" x="75.5" y="-2381.3" font-family="Times,serif" font-size="14.00"> v8 = v9</text>
<text text-anchor="start" x="75.5" y="-2366.3" font-family="Times,serif" font-size="14.00"> v10 = *(IntToPtrCastExpr&lt;ptr&gt;(function_410e95(v9)))</text>
<text text-anchor="start" x="75.5" y="-2351.3" font-family="Times,serif" font-size="14.00"> g2 = v10</text>
<text text-anchor="start" x="75.5" y="-2336.3" font-family="Times,serif" font-size="14.00"> *(IntToPtrCastExpr&lt;ptr&gt;(g9)) = v10</text>
<text text-anchor="start" x="75.5" y="-2321.3" font-family="Times,serif" font-size="14.00"> g1 = False</text>
<text text-anchor="start" x="75.5" y="-2306.3" font-family="Times,serif" font-size="14.00"> g180 = False</text>
<text text-anchor="start" x="75.5" y="-2291.3" font-family="Times,serif" font-size="14.00"> g3 = 1</text>
<text text-anchor="start" x="75.5" y="-2276.3" font-family="Times,serif" font-size="14.00"> result = 1</text>
</g>
<!-- Node0x208afd50&#45;&gt;Node0x208b0250 -->
<g id="edge8" class="edge"><title>Node0x208afd50&#45;&gt;Node0x208b0250</title>
<path fill="none" stroke="black" d="M267.366,-2670.39C267.326,-2660.51 267.332,-2648.09 267.5,-2637 268.608,-2564.11 271.25,-2481.15 273.386,-2421.64"/>
<polygon fill="black" stroke="black" points="276.887,-2421.68 273.752,-2411.56 269.892,-2421.43 276.887,-2421.68"/>
<text text-anchor="middle" x="301.5" y="-2640.8" font-family="Times,serif" font-size="14.00">v3 == v6</text>
</g>
<!-- Node0x208b0500 -->
<g id="node10" class="node"><title>Node0x208b0500</title>
<polygon fill="none" stroke="black" points="296,-2430.5 296,-2618.5 723,-2618.5 723,-2430.5 296,-2430.5"/>
<text text-anchor="start" x="304" y="-2603.3" font-family="Times,serif" font-size="14.00">v11 = PtrToIntCastExpr&lt;int32&gt;(&amp;(v8))</text>
<text text-anchor="start" x="304" y="-2588.3" font-family="Times,serif" font-size="14.00"> v12 = IntToPtrCastExpr&lt;ptr&gt;(v3)</text>
<text text-anchor="start" x="304" y="-2573.3" font-family="Times,serif" font-size="14.00"> v8 = v12</text>
<text text-anchor="start" x="304" y="-2558.3" font-family="Times,serif" font-size="14.00"> g5 = v1</text>
<text text-anchor="start" x="304" y="-2543.3" font-family="Times,serif" font-size="14.00"> v13 = *(IntToPtrCastExpr&lt;ptr&gt;(function_410e95(v12)))</text>
<text text-anchor="start" x="304" y="-2528.3" font-family="Times,serif" font-size="14.00"> v14 = g7</text>
<text text-anchor="start" x="304" y="-2513.3" font-family="Times,serif" font-size="14.00"> v15</text>
<text text-anchor="start" x="304" y="-2498.3" font-family="Times,serif" font-size="14.00"> v16</text>
<text text-anchor="start" x="304" y="-2483.3" font-family="Times,serif" font-size="14.00"> v17</text>
<text text-anchor="start" x="304" y="-2468.3" font-family="Times,serif" font-size="14.00"> v18</text>
<text text-anchor="start" x="304" y="-2453.3" font-family="Times,serif" font-size="14.00"> v19</text>
<text text-anchor="start" x="304" y="-2438.3" font-family="Times,serif" font-size="14.00"> v20</text>
</g>
<!-- Node0x208afd50&#45;&gt;Node0x208b0500 -->
<g id="edge9" class="edge"><title>Node0x208afd50&#45;&gt;Node0x208b0500</title>
<path fill="none" stroke="black" d="M306.279,-2670.36C317.23,-2664.83 329.015,-2658.49 339.5,-2652 353.228,-2643.5 367.245,-2634.19 381.05,-2624.61"/>
<polygon fill="black" stroke="black" points="383.43,-2627.22 389.613,-2618.61 379.414,-2621.48 383.43,-2627.22"/>
<text text-anchor="middle" x="390.5" y="-2640.8" font-family="Times,serif" font-size="14.00">v3 != v6</text>
</g>
<!-- Node0x208b0080 -->
<g id="node11" class="node"><title>Node0x208b0080</title>
<polygon fill="none" stroke="black" points="129.5,-586.5 129.5,-669.5 389.5,-669.5 389.5,-586.5 129.5,-586.5"/>
<text text-anchor="start" x="137.5" y="-654.3" font-family="Times,serif" font-size="14.00">0x410f21:</text>
<text text-anchor="start" x="137.5" y="-639.3" font-family="Times,serif" font-size="14.00"> g3 = ExtCastExpr&lt;int32&gt;(*(v8))</text>
<text text-anchor="start" x="137.5" y="-624.3" font-family="Times,serif" font-size="14.00"> g4 = v7</text>
<text text-anchor="start" x="137.5" y="-609.3" font-family="Times,serif" font-size="14.00"> g10 = &amp;(v5)</text>
<text text-anchor="start" x="137.5" y="-594.3" font-family="Times,serif" font-size="14.00"> result2 = result</text>
</g>
<!-- Node0x208b0250&#45;&gt;Node0x208b0080 -->
<g id="edge10" class="edge"><title>Node0x208b0250&#45;&gt;Node0x208b0080</title>
<path fill="none" stroke="black" d="M172.181,-2268.12C150.712,-2245.35 134.5,-2217.79 134.5,-2186.5 134.5,-2186.5 134.5,-2186.5 134.5,-1108.5 134.5,-921.508 49.527,-846.652 148.5,-688 150.971,-684.039 153.804,-680.328 156.921,-676.854"/>
<polygon fill="black" stroke="black" points="159.565,-679.16 164.169,-669.618 154.619,-674.206 159.565,-679.16"/>
</g>
<!-- Node0x208b0ad0 -->
<g id="node12" class="node"><title>Node0x208b0ad0</title>
<polygon fill="none" stroke="black" points="448,-2211.5 448,-2249.5 571,-2249.5 571,-2211.5 448,-2211.5"/>
<text text-anchor="start" x="456" y="-2234.3" font-family="Times,serif" font-size="14.00">if (v13 == g4):</text>
<text text-anchor="start" x="456" y="-2219.3" font-family="Times,serif" font-size="14.00"> else:</text>
</g>
<!-- Node0x208b0500&#45;&gt;Node0x208b0ad0 -->
<g id="edge11" class="edge"><title>Node0x208b0500&#45;&gt;Node0x208b0ad0</title>
<path fill="none" stroke="black" d="M509.5,-2430.31C509.5,-2371.26 509.5,-2298.91 509.5,-2259.82"/>
<polygon fill="black" stroke="black" points="513,-2259.71 509.5,-2249.71 506,-2259.71 513,-2259.71"/>
</g>
<!-- Node0x208b0080&#45;&gt;Node0xf2e4390 -->
<g id="edge12" class="edge"><title>Node0x208b0080&#45;&gt;Node0xf2e4390</title>
<path fill="none" stroke="black" d="M259.5,-586.112C259.5,-493.886 259.5,-270.372 259.5,-175.855"/>
<polygon fill="black" stroke="black" points="263,-175.782 259.5,-165.782 256,-175.782 263,-175.782"/>
</g>
<!-- Node0x208b0ca0 -->
<g id="node13" class="node"><title>Node0x208b0ca0</title>
<polygon fill="none" stroke="black" points="283,-2051.5 283,-2104.5 440,-2104.5 440,-2051.5 283,-2051.5"/>
<text text-anchor="start" x="291" y="-2089.3" font-family="Times,serif" font-size="14.00">0x410f04:</text>
<text text-anchor="start" x="291" y="-2074.3" font-family="Times,serif" font-size="14.00"> g1 = False</text>
<text text-anchor="start" x="291" y="-2059.3" font-family="Times,serif" font-size="14.00"> g180 = (v14 == 0)</text>
</g>
<!-- Node0x208b0ad0&#45;&gt;Node0x208b0ca0 -->
<g id="edge13" class="edge"><title>Node0x208b0ad0&#45;&gt;Node0x208b0ca0</title>
<path fill="none" stroke="black" d="M484.981,-2211.3C477.845,-2205.67 470.177,-2199.29 463.5,-2193 436.531,-2167.58 408.656,-2136 388.876,-2112.53"/>
<polygon fill="black" stroke="black" points="391.333,-2110.01 382.232,-2104.59 385.964,-2114.5 391.333,-2110.01"/>
<text text-anchor="middle" x="502.5" y="-2181.8" font-family="Times,serif" font-size="14.00">v13 == g4</text>
</g>
<!-- Node0x208b10f0 -->
<g id="node14" class="node"><title>Node0x208b10f0</title>
<polygon fill="none" stroke="black" points="566.5,-2123.5 566.5,-2159.5 620.5,-2159.5 620.5,-2123.5 566.5,-2123.5"/>
<text text-anchor="start" x="574.5" y="-2137.8" font-family="Times,serif" font-size="14.00">v21</text>
</g>
<!-- Node0x208b0ad0&#45;&gt;Node0x208b10f0 -->
<g id="edge14" class="edge"><title>Node0x208b0ad0&#45;&gt;Node0x208b10f0</title>
<path fill="none" stroke="black" d="M526.905,-2211.47C539.312,-2198.62 556.141,-2181.19 569.776,-2167.07"/>
<polygon fill="black" stroke="black" points="572.547,-2169.24 576.975,-2159.62 567.511,-2164.38 572.547,-2169.24"/>
<text text-anchor="middle" x="594.5" y="-2181.8" font-family="Times,serif" font-size="14.00">v13 != g4</text>
</g>
<!-- Node0x208b0dd0 -->
<g id="node15" class="node"><title>Node0x208b0dd0</title>
<polygon fill="none" stroke="black" points="293.5,-1180.5 293.5,-1216.5 401.5,-1216.5 401.5,-1180.5 293.5,-1180.5"/>
<text text-anchor="start" x="301.5" y="-1194.8" font-family="Times,serif" font-size="14.00">if (v14 != 0):</text>
</g>
<!-- Node0x208b0ca0&#45;&gt;Node0x208b0dd0 -->
<g id="edge15" class="edge"><title>Node0x208b0ca0&#45;&gt;Node0x208b0dd0</title>
<path fill="none" stroke="black" d="M356.127,-2051.11C352.179,-2029.83 347.5,-1998.85 347.5,-1971.5 347.5,-1971.5 347.5,-1971.5 347.5,-1280 347.5,-1262.29 347.5,-1242.38 347.5,-1226.79"/>
<polygon fill="black" stroke="black" points="351,-1226.77 347.5,-1216.77 344,-1226.77 351,-1226.77"/>
</g>
<!-- Node0x33ff01f0 -->
<g id="node16" class="node"><title>Node0x33ff01f0</title>
<polygon fill="none" stroke="black" points="633,-1996.5 633,-2032.5 730,-2032.5 730,-1996.5 633,-1996.5"/>
<text text-anchor="start" x="641" y="-2010.8" font-family="Times,serif" font-size="14.00">while True:</text>
</g>
<!-- Node0x208b10f0&#45;&gt;Node0x33ff01f0 -->
<g id="edge16" class="edge"><title>Node0x208b10f0&#45;&gt;Node0x33ff01f0</title>
<path fill="none" stroke="black" d="M605.552,-2123.38C620.476,-2102.18 646.042,-2065.87 663.345,-2041.29"/>
<polygon fill="black" stroke="black" points="666.417,-2043 669.312,-2032.81 660.693,-2038.98 666.417,-2043"/>
</g>
<!-- Node0x208b17e0 -->
<g id="node17" class="node"><title>Node0x208b17e0</title>
<polygon fill="none" stroke="black" points="149.5,-688.5 149.5,-1071.5 515.5,-1071.5 515.5,-688.5 149.5,-688.5"/>
<text text-anchor="start" x="157.5" y="-1056.3" font-family="Times,serif" font-size="14.00">0x410f08:</text>
<text text-anchor="start" x="157.5" y="-1041.3" font-family="Times,serif" font-size="14.00"> v18 = v11</text>
<text text-anchor="start" x="157.5" y="-1026.3" font-family="Times,serif" font-size="14.00"> v17 = (v18 &#45; 4)</text>
<text text-anchor="start" x="157.5" y="-1011.3" font-family="Times,serif" font-size="14.00"> *(IntToPtrCastExpr&lt;ptr&gt;(v17)) = v13</text>
<text text-anchor="start" x="157.5" y="-996.3" font-family="Times,serif" font-size="14.00"> g5 = g9</text>
<text text-anchor="start" x="157.5" y="-981.3" font-family="Times,serif" font-size="14.00"> *(IntToPtrCastExpr&lt;ptr&gt;((v18 &#45; 8))) = 4263696</text>
<text text-anchor="start" x="157.5" y="-966.3" font-family="Times,serif" font-size="14.00"> v15 = function_410e95(a1)</text>
<text text-anchor="start" x="157.5" y="-951.3" font-family="Times,serif" font-size="14.00"> v19 = v17</text>
<text text-anchor="start" x="157.5" y="-936.3" font-family="Times,serif" font-size="14.00"> *(IntToPtrCastExpr&lt;ptr&gt;((v19 &#45; 4))) = g7</text>
<text text-anchor="start" x="157.5" y="-921.3" font-family="Times,serif" font-size="14.00"> g5 = g9</text>
<text text-anchor="start" x="157.5" y="-906.3" font-family="Times,serif" font-size="14.00"> g4 = v15</text>
<text text-anchor="start" x="157.5" y="-891.3" font-family="Times,serif" font-size="14.00"> *(IntToPtrCastExpr&lt;ptr&gt;((v19 &#45; 8))) = 4263706</text>
<text text-anchor="start" x="157.5" y="-876.3" font-family="Times,serif" font-size="14.00"> v16 = function_410e95(a1)</text>
<text text-anchor="start" x="157.5" y="-861.3" font-family="Times,serif" font-size="14.00"> v20 = *(IntToPtrCastExpr&lt;ptr&gt;(g4))</text>
<text text-anchor="start" x="157.5" y="-846.3" font-family="Times,serif" font-size="14.00"> g5 = v20</text>
<text text-anchor="start" x="157.5" y="-831.3" font-family="Times,serif" font-size="14.00"> *(IntToPtrCastExpr&lt;ptr&gt;(v16)) = v20</text>
<text text-anchor="start" x="157.5" y="-816.3" font-family="Times,serif" font-size="14.00"> g1 = False</text>
<text text-anchor="start" x="157.5" y="-801.3" font-family="Times,serif" font-size="14.00"> g180 = False</text>
<text text-anchor="start" x="157.5" y="-786.3" font-family="Times,serif" font-size="14.00"> g3 = 1</text>
<text text-anchor="start" x="157.5" y="-771.3" font-family="Times,serif" font-size="14.00"> g3 = ExtCastExpr&lt;int32&gt;(*(v8))</text>
<text text-anchor="start" x="157.5" y="-756.3" font-family="Times,serif" font-size="14.00"> g4 = v7</text>
<text text-anchor="start" x="157.5" y="-741.3" font-family="Times,serif" font-size="14.00"> g10 = &amp;(v5)</text>
<text text-anchor="start" x="157.5" y="-726.3" font-family="Times,serif" font-size="14.00"> g7 = v2</text>
<text text-anchor="start" x="157.5" y="-711.3" font-family="Times,serif" font-size="14.00"> g9 = v4</text>
<text text-anchor="start" x="157.5" y="-696.3" font-family="Times,serif" font-size="14.00"> return 1</text>
</g>
<!-- Node0x208b0dd0&#45;&gt;Node0x208b17e0 -->
<g id="edge17" class="edge"><title>Node0x208b0dd0&#45;&gt;Node0x208b17e0</title>
<path fill="none" stroke="black" d="M341.713,-1180.36C340.025,-1174.59 338.395,-1168.08 337.5,-1162 333.703,-1136.21 331.273,-1108.95 329.805,-1081.95"/>
<polygon fill="black" stroke="black" points="333.283,-1081.43 329.288,-1071.62 326.292,-1081.78 333.283,-1081.43"/>
<text text-anchor="middle" x="369" y="-1150.8" font-family="Times,serif" font-size="14.00">v14 != 0</text>
</g>
<!-- Node0x208b0be0 -->
<g id="node18" class="node"><title>Node0x208b0be0</title>
<polygon fill="none" stroke="black" points="425.5,-1090.5 425.5,-1128.5 527.5,-1128.5 527.5,-1090.5 425.5,-1090.5"/>
<text text-anchor="start" x="433.5" y="-1113.3" font-family="Times,serif" font-size="14.00">0x410f04:</text>
<text text-anchor="start" x="433.5" y="-1098.3" font-family="Times,serif" font-size="14.00"> result = g3</text>
</g>
<!-- Node0x208b0dd0&#45;&gt;Node0x208b0be0 -->
<g id="edge18" class="edge"><title>Node0x208b0dd0&#45;&gt;Node0x208b0be0</title>
<path fill="none" stroke="black" d="M375.85,-1180.34C385.067,-1174.63 395.291,-1168.15 404.5,-1162 417.583,-1153.26 431.716,-1143.27 443.968,-1134.44"/>
<polygon fill="black" stroke="black" points="446.071,-1137.24 452.113,-1128.53 441.962,-1131.57 446.071,-1137.24"/>
<text text-anchor="middle" x="460" y="-1150.8" font-family="Times,serif" font-size="14.00">v14 == 0</text>
</g>
<!-- Node0x208b20b0 -->
<g id="node19" class="node"><title>Node0x208b20b0</title>
<polygon fill="none" stroke="black" points="376,-1876.5 376,-1944.5 987,-1944.5 987,-1876.5 376,-1876.5"/>
<text text-anchor="start" x="384" y="-1929.3" font-family="Times,serif" font-size="14.00">0x410ef6:</text>
<text text-anchor="start" x="384" y="-1914.3" font-family="Times,serif" font-size="14.00"> g5 = g9</text>
<text text-anchor="start" x="384" y="-1899.3" font-family="Times,serif" font-size="14.00"> v22 = *(IntToPtrCastExpr&lt;ptr&gt;(function_410e95(IntToPtrCastExpr&lt;ptr&gt;(v14))))</text>
<text text-anchor="start" x="384" y="-1884.3" font-family="Times,serif" font-size="14.00"> g7 = v22</text>
</g>
<!-- Node0x33ff01f0&#45;&gt;Node0x208b20b0 -->
<g id="edge19" class="edge"><title>Node0x33ff01f0&#45;&gt;Node0x208b20b0</title>
<path fill="none" stroke="black" d="M681.5,-1996.2C681.5,-1984.85 681.5,-1969.49 681.5,-1954.95"/>
<polygon fill="black" stroke="black" points="685,-1954.59 681.5,-1944.59 678,-1954.59 685,-1954.59"/>
<text text-anchor="middle" x="698.5" y="-1966.8" font-family="Times,serif" font-size="14.00">True</text>
</g>
<!-- Node0x208b17e0&#45;&gt;Node0x208af0e0 -->
<g id="edge20" class="edge"><title>Node0x208b17e0&#45;&gt;Node0x208af0e0</title>
<path fill="none" stroke="black" d="M393.849,-688.218C395.467,-682.088 397.023,-676.004 398.5,-670 454.972,-440.479 495.176,-157.137 506.947,-69.5597"/>
<polygon fill="black" stroke="black" points="510.417,-70.0163 508.27,-59.6411 503.478,-69.0903 510.417,-70.0163"/>
</g>
<!-- Node0x208b0be0&#45;&gt;Node0x208b0080 -->
<g id="edge21" class="edge"><title>Node0x208b0be0&#45;&gt;Node0x208b0080</title>
<path fill="none" stroke="black" d="M502.917,-1090.22C508.419,-1085.03 513.464,-1078.88 516.5,-1072 533.725,-1032.96 543.081,-721.375 516.5,-688 500.826,-668.32 451.234,-654.663 399.739,-645.485"/>
<polygon fill="black" stroke="black" points="400.217,-642.016 389.767,-643.766 399.027,-648.914 400.217,-642.016"/>
</g>
<!-- Node0x208b21d0 -->
<g id="node20" class="node"><title>Node0x208b21d0</title>
<polygon fill="none" stroke="black" points="624.5,-1802.5 624.5,-1838.5 738.5,-1838.5 738.5,-1802.5 624.5,-1802.5"/>
<text text-anchor="start" x="632.5" y="-1816.8" font-family="Times,serif" font-size="14.00">if (v22 == 0):</text>
</g>
<!-- Node0x208b20b0&#45;&gt;Node0x208b21d0 -->
<g id="edge22" class="edge"><title>Node0x208b20b0&#45;&gt;Node0x208b21d0</title>
<path fill="none" stroke="black" d="M681.5,-1876.48C681.5,-1867.33 681.5,-1857.5 681.5,-1848.72"/>
<polygon fill="black" stroke="black" points="685,-1848.64 681.5,-1838.64 678,-1848.64 685,-1848.64"/>
</g>
<!-- Node0x208b3490 -->
<g id="node21" class="node"><title>Node0x208b3490</title>
<polygon fill="none" stroke="black" points="406.5,-1490.5 406.5,-1648.5 666.5,-1648.5 666.5,-1490.5 406.5,-1490.5"/>
<text text-anchor="start" x="414.5" y="-1633.3" font-family="Times,serif" font-size="14.00">0x410f04:</text>
<text text-anchor="start" x="414.5" y="-1618.3" font-family="Times,serif" font-size="14.00"> g1 = False</text>
<text text-anchor="start" x="414.5" y="-1603.3" font-family="Times,serif" font-size="14.00"> g180 = True</text>
<text text-anchor="start" x="414.5" y="-1588.3" font-family="Times,serif" font-size="14.00"> result = g3</text>
<text text-anchor="start" x="414.5" y="-1573.3" font-family="Times,serif" font-size="14.00"> g3 = ExtCastExpr&lt;int32&gt;(*(v8))</text>
<text text-anchor="start" x="414.5" y="-1558.3" font-family="Times,serif" font-size="14.00"> g4 = v7</text>
<text text-anchor="start" x="414.5" y="-1543.3" font-family="Times,serif" font-size="14.00"> g10 = &amp;(v5)</text>
<text text-anchor="start" x="414.5" y="-1528.3" font-family="Times,serif" font-size="14.00"> g7 = v2</text>
<text text-anchor="start" x="414.5" y="-1513.3" font-family="Times,serif" font-size="14.00"> g9 = v4</text>
<text text-anchor="start" x="414.5" y="-1498.3" font-family="Times,serif" font-size="14.00"> return result</text>
</g>
<!-- Node0x208b21d0&#45;&gt;Node0x208b3490 -->
<g id="edge23" class="edge"><title>Node0x208b21d0&#45;&gt;Node0x208b3490</title>
<path fill="none" stroke="black" d="M624.38,-1803.53C597.762,-1793.04 568.318,-1776.43 551.5,-1751 533.812,-1724.26 527.834,-1690.18 527.045,-1658.86"/>
<polygon fill="black" stroke="black" points="530.544,-1658.77 526.963,-1648.8 523.545,-1658.83 530.544,-1658.77"/>
<text text-anchor="middle" x="620" y="-1772.8" font-family="Times,serif" font-size="14.00">v22 == 0</text>
</g>
<!-- Node0x208b23c0 -->
<g id="node22" class="node"><title>Node0x208b23c0</title>
<polygon fill="none" stroke="black" points="560,-1667.5 560,-1750.5 987,-1750.5 987,-1667.5 560,-1667.5"/>
<text text-anchor="start" x="568" y="-1735.3" font-family="Times,serif" font-size="14.00">v23 = IntToPtrCastExpr&lt;ptr&gt;(v22)</text>
<text text-anchor="start" x="568" y="-1720.3" font-family="Times,serif" font-size="14.00"> v8 = v23</text>
<text text-anchor="start" x="568" y="-1705.3" font-family="Times,serif" font-size="14.00"> g5 = g9</text>
<text text-anchor="start" x="568" y="-1690.3" font-family="Times,serif" font-size="14.00"> v21 = *(IntToPtrCastExpr&lt;ptr&gt;(function_410e95(v23)))</text>
<text text-anchor="start" x="568" y="-1675.3" font-family="Times,serif" font-size="14.00"> v24 = g7</text>
</g>
<!-- Node0x208b21d0&#45;&gt;Node0x208b23c0 -->
<g id="edge24" class="edge"><title>Node0x208b21d0&#45;&gt;Node0x208b23c0</title>
<path fill="none" stroke="black" d="M695.875,-1802.39C705.773,-1790.61 719.458,-1774.32 732.583,-1758.7"/>
<polygon fill="black" stroke="black" points="735.62,-1760.53 739.373,-1750.62 730.261,-1756.02 735.62,-1760.53"/>
<text text-anchor="middle" x="753" y="-1772.8" font-family="Times,serif" font-size="14.00">v22 != 0</text>
</g>
<!-- Node0x208b3490&#45;&gt;Node0x208af0e0 -->
<g id="edge25" class="edge"><title>Node0x208b3490&#45;&gt;Node0x208af0e0</title>
<path fill="none" stroke="black" d="M549.644,-1490.37C552.911,-1464.97 555.5,-1436.61 555.5,-1410.5 555.5,-1410.5 555.5,-1410.5 555.5,-130.5 555.5,-107.559 543.227,-84.5781 531.499,-67.8564"/>
<polygon fill="black" stroke="black" points="534.242,-65.6786 525.484,-59.7159 528.612,-69.8385 534.242,-65.6786"/>
</g>
<!-- Node0x208b25a0 -->
<g id="node23" class="node"><title>Node0x208b25a0</title>
<polygon fill="none" stroke="black" points="712,-1435.5 712,-1471.5 835,-1471.5 835,-1435.5 712,-1435.5"/>
<text text-anchor="start" x="720" y="-1449.8" font-family="Times,serif" font-size="14.00">if (v21 == g4):</text>
</g>
<!-- Node0x208b23c0&#45;&gt;Node0x208b25a0 -->
<g id="edge26" class="edge"><title>Node0x208b23c0&#45;&gt;Node0x208b25a0</title>
<path fill="none" stroke="black" d="M773.5,-1667.27C773.5,-1615.16 773.5,-1526.33 773.5,-1481.74"/>
<polygon fill="black" stroke="black" points="777,-1481.65 773.5,-1471.65 770,-1481.65 777,-1481.65"/>
</g>
<!-- Node0x208b3640 -->
<g id="node24" class="node"><title>Node0x208b3640</title>
<polygon fill="none" stroke="black" points="717.5,-1345.5 717.5,-1383.5 807.5,-1383.5 807.5,-1345.5 717.5,-1345.5"/>
<text text-anchor="start" x="725.5" y="-1368.3" font-family="Times,serif" font-size="14.00">v14 = v24</text>
<text text-anchor="start" x="725.5" y="-1353.3" font-family="Times,serif" font-size="14.00"> break</text>
</g>
<!-- Node0x208b25a0&#45;&gt;Node0x208b3640 -->
<g id="edge27" class="edge"><title>Node0x208b25a0&#45;&gt;Node0x208b3640</title>
<path fill="none" stroke="black" d="M771.327,-1435.31C769.82,-1423.39 767.78,-1407.26 766.04,-1393.5"/>
<polygon fill="black" stroke="black" points="769.509,-1393.03 764.782,-1383.55 762.564,-1393.91 769.509,-1393.03"/>
<text text-anchor="middle" x="807.5" y="-1405.8" font-family="Times,serif" font-size="14.00">v21 == g4</text>
</g>
<!-- Node0x208b2800 -->
<g id="node25" class="node"><title>Node0x208b2800</title>
<polygon fill="none" stroke="black" points="851.5,-1346.5 851.5,-1382.5 941.5,-1382.5 941.5,-1346.5 851.5,-1346.5"/>
<text text-anchor="start" x="859.5" y="-1360.8" font-family="Times,serif" font-size="14.00">v14 = v24</text>
</g>
<!-- Node0x208b25a0&#45;&gt;Node0x208b2800 -->
<g id="edge28" class="edge"><title>Node0x208b25a0&#45;&gt;Node0x208b2800</title>
<path fill="none" stroke="black" d="M818.813,-1435.35C829.685,-1430.25 840.914,-1424.09 850.5,-1417 860.388,-1409.69 869.739,-1399.96 877.394,-1390.94"/>
<polygon fill="black" stroke="black" points="880.313,-1392.9 883.915,-1382.93 874.886,-1388.47 880.313,-1392.9"/>
<text text-anchor="middle" x="901.5" y="-1405.8" font-family="Times,serif" font-size="14.00">v21 != g4</text>
</g>
<!-- Node0x208b0130 -->
<g id="node26" class="node"><title>Node0x208b0130</title>
<polygon fill="none" stroke="black" points="681,-1254.5 681,-1307.5 838,-1307.5 838,-1254.5 681,-1254.5"/>
<text text-anchor="start" x="689" y="-1292.3" font-family="Times,serif" font-size="14.00">0x410f04:</text>
<text text-anchor="start" x="689" y="-1277.3" font-family="Times,serif" font-size="14.00"> g1 = False</text>
<text text-anchor="start" x="689" y="-1262.3" font-family="Times,serif" font-size="14.00"> g180 = (v14 == 0)</text>
</g>
<!-- Node0x208b3640&#45;&gt;Node0x208b0130 -->
<g id="edge29" class="edge"><title>Node0x208b3640&#45;&gt;Node0x208b0130</title>
<path fill="none" stroke="black" d="M761.834,-1345.41C761.535,-1337.28 761.171,-1327.39 760.82,-1317.86"/>
<polygon fill="black" stroke="black" points="764.314,-1317.63 760.448,-1307.77 757.319,-1317.89 764.314,-1317.63"/>
</g>
<!-- Node0x208b2800&#45;&gt;Node0x33ff01f0 -->
<g id="edge30" class="edge"><title>Node0x208b2800&#45;&gt;Node0x33ff01f0</title>
<path fill="none" stroke="black" d="M941.828,-1378.53C975.458,-1391.31 1015.5,-1414.5 1015.5,-1452.5 1015.5,-1911.5 1015.5,-1911.5 1015.5,-1911.5 1015.5,-1928.62 1010.29,-1934.85 996.5,-1945 956.437,-1974.49 820.12,-1996.05 740.547,-2006.48"/>
<polygon fill="black" stroke="black" points="739.656,-2003.07 730.186,-2007.82 740.552,-2010.01 739.656,-2003.07"/>
</g>
<!-- Node0x208b11f0 -->
<g id="node27" class="node"><title>Node0x208b11f0</title>
<polygon fill="none" stroke="black" points="699.5,-1180.5 699.5,-1216.5 807.5,-1216.5 807.5,-1180.5 699.5,-1180.5"/>
<text text-anchor="start" x="707.5" y="-1194.8" font-family="Times,serif" font-size="14.00">if (v14 != 0):</text>
</g>
<!-- Node0x208b0130&#45;&gt;Node0x208b11f0 -->
<g id="edge31" class="edge"><title>Node0x208b0130&#45;&gt;Node0x208b11f0</title>
<path fill="none" stroke="black" d="M757.569,-1254.09C756.926,-1245.46 756.207,-1235.82 755.555,-1227.07"/>
<polygon fill="black" stroke="black" points="759.036,-1226.69 754.802,-1216.97 752.055,-1227.21 759.036,-1226.69"/>
</g>
<!-- Node0x208b11f0&#45;&gt;Node0x208b0be0 -->
<g id="edge33" class="edge"><title>Node0x208b11f0&#45;&gt;Node0x208b0be0</title>
<path fill="none" stroke="black" d="M699.434,-1180.52C652.888,-1165.9 585.768,-1144.82 537.351,-1129.61"/>
<polygon fill="black" stroke="black" points="538.213,-1126.21 527.624,-1126.56 536.116,-1132.89 538.213,-1126.21"/>
<text text-anchor="middle" x="674" y="-1150.8" font-family="Times,serif" font-size="14.00">v14 == 0</text>
</g>
<!-- Node0x208b28c0 -->
<g id="node28" class="node"><title>Node0x208b28c0</title>
<polygon fill="none" stroke="black" points="570.5,-184.5 570.5,-567.5 936.5,-567.5 936.5,-184.5 570.5,-184.5"/>
<text text-anchor="start" x="578.5" y="-552.3" font-family="Times,serif" font-size="14.00">0x410f08:</text>
<text text-anchor="start" x="578.5" y="-537.3" font-family="Times,serif" font-size="14.00"> v18 = v11</text>
<text text-anchor="start" x="578.5" y="-522.3" font-family="Times,serif" font-size="14.00"> v17 = (v18 &#45; 4)</text>
<text text-anchor="start" x="578.5" y="-507.3" font-family="Times,serif" font-size="14.00"> *(IntToPtrCastExpr&lt;ptr&gt;(v17)) = v21</text>
<text text-anchor="start" x="578.5" y="-492.3" font-family="Times,serif" font-size="14.00"> g5 = g9</text>
<text text-anchor="start" x="578.5" y="-477.3" font-family="Times,serif" font-size="14.00"> *(IntToPtrCastExpr&lt;ptr&gt;((v18 &#45; 8))) = 4263696</text>
<text text-anchor="start" x="578.5" y="-462.3" font-family="Times,serif" font-size="14.00"> v15 = function_410e95(a1)</text>
<text text-anchor="start" x="578.5" y="-447.3" font-family="Times,serif" font-size="14.00"> v19 = v17</text>
<text text-anchor="start" x="578.5" y="-432.3" font-family="Times,serif" font-size="14.00"> *(IntToPtrCastExpr&lt;ptr&gt;((v19 &#45; 4))) = g7</text>
<text text-anchor="start" x="578.5" y="-417.3" font-family="Times,serif" font-size="14.00"> g5 = g9</text>
<text text-anchor="start" x="578.5" y="-402.3" font-family="Times,serif" font-size="14.00"> g4 = v15</text>
<text text-anchor="start" x="578.5" y="-387.3" font-family="Times,serif" font-size="14.00"> *(IntToPtrCastExpr&lt;ptr&gt;((v19 &#45; 8))) = 4263706</text>
<text text-anchor="start" x="578.5" y="-372.3" font-family="Times,serif" font-size="14.00"> v16 = function_410e95(a1)</text>
<text text-anchor="start" x="578.5" y="-357.3" font-family="Times,serif" font-size="14.00"> v20 = *(IntToPtrCastExpr&lt;ptr&gt;(g4))</text>
<text text-anchor="start" x="578.5" y="-342.3" font-family="Times,serif" font-size="14.00"> g5 = v20</text>
<text text-anchor="start" x="578.5" y="-327.3" font-family="Times,serif" font-size="14.00"> *(IntToPtrCastExpr&lt;ptr&gt;(v16)) = v20</text>
<text text-anchor="start" x="578.5" y="-312.3" font-family="Times,serif" font-size="14.00"> g1 = False</text>
<text text-anchor="start" x="578.5" y="-297.3" font-family="Times,serif" font-size="14.00"> g180 = False</text>
<text text-anchor="start" x="578.5" y="-282.3" font-family="Times,serif" font-size="14.00"> g3 = 1</text>
<text text-anchor="start" x="578.5" y="-267.3" font-family="Times,serif" font-size="14.00"> g3 = ExtCastExpr&lt;int32&gt;(*(v8))</text>
<text text-anchor="start" x="578.5" y="-252.3" font-family="Times,serif" font-size="14.00"> g4 = v7</text>
<text text-anchor="start" x="578.5" y="-237.3" font-family="Times,serif" font-size="14.00"> g10 = &amp;(v5)</text>
<text text-anchor="start" x="578.5" y="-222.3" font-family="Times,serif" font-size="14.00"> g7 = v2</text>
<text text-anchor="start" x="578.5" y="-207.3" font-family="Times,serif" font-size="14.00"> g9 = v4</text>
<text text-anchor="start" x="578.5" y="-192.3" font-family="Times,serif" font-size="14.00"> return 1</text>
</g>
<!-- Node0x208b11f0&#45;&gt;Node0x208b28c0 -->
<g id="edge32" class="edge"><title>Node0x208b11f0&#45;&gt;Node0x208b28c0</title>
<path fill="none" stroke="black" d="M753.5,-1180.36C753.5,-1104.08 753.5,-789.822 753.5,-577.715"/>
<polygon fill="black" stroke="black" points="757,-577.693 753.5,-567.693 750,-577.693 757,-577.693"/>
<text text-anchor="middle" x="785" y="-1105.8" font-family="Times,serif" font-size="14.00">v14 != 0</text>
</g>
<!-- Node0x208b28c0&#45;&gt;Node0x208af0e0 -->
<g id="edge34" class="edge"><title>Node0x208b28c0&#45;&gt;Node0x208af0e0</title>
<path fill="none" stroke="black" d="M654.161,-184.363C629.515,-146.622 601.013,-109.106 569.5,-78 562.752,-71.3394 554.523,-65.3985 546.377,-60.3706"/>
<polygon fill="black" stroke="black" points="548.047,-57.293 537.645,-55.2822 544.523,-63.3411 548.047,-57.293"/>
</g>
</g>
</svg>
