<?xml version="1.0" encoding="UTF-8" standalone="no"?>
<!DOCTYPE svg PUBLIC "-//W3C//DTD SVG 1.1//EN"
 "http://www.w3.org/Graphics/SVG/1.1/DTD/svg11.dtd">
<!-- Generated by graphviz version 2.38.0 (20140413.2041)
 -->
<!-- Title: Control&#45;flow graph for function &#39;function_41b2b3(a1, a2)&#39;. Pages: 1 -->
<svg width="1290pt" height="1874pt"
 viewBox="0.00 0.00 1290.00 1874.00" xmlns="http://www.w3.org/2000/svg" xmlns:xlink="http://www.w3.org/1999/xlink">
<g id="graph0" class="graph" transform="scale(1 1) rotate(0) translate(4 1870)">
<title>Control&#45;flow graph for function &#39;function_41b2b3(a1, a2)&#39;.</title>
<polygon fill="white" stroke="none" points="-4,4 -4,-1870 1286,-1870 1286,4 -4,4"/>
<text text-anchor="middle" x="641" y="-7.8" font-family="Times,serif" font-size="14.00">Control&#45;flow graph for function &#39;function_41b2b3(a1, a2)&#39;.</text>
<!-- Node0x33fcc490 -->
<g id="node1" class="node"><title>Node0x33fcc490</title>
<polygon fill="none" stroke="black" points="1030,-1812.5 1030,-1865.5 1089,-1865.5 1089,-1812.5 1030,-1812.5"/>
<text text-anchor="start" x="1038" y="-1850.3" font-family="Times,serif" font-size="14.00">entry:</text>
<text text-anchor="start" x="1038" y="-1835.3" font-family="Times,serif" font-size="14.00"> a1</text>
<text text-anchor="start" x="1038" y="-1820.3" font-family="Times,serif" font-size="14.00"> a2</text>
</g>
<!-- Node0x4a8a9e20 -->
<g id="node2" class="node"><title>Node0x4a8a9e20</title>
<polygon fill="none" stroke="black" points="895.5,-1631.5 895.5,-1774.5 1223.5,-1774.5 1223.5,-1631.5 895.5,-1631.5"/>
<text text-anchor="start" x="903.5" y="-1759.3" font-family="Times,serif" font-size="14.00">v1 = IntToPtrCastExpr&lt;ptr&gt;(g9)</text>
<text text-anchor="start" x="903.5" y="-1744.3" font-family="Times,serif" font-size="14.00"> v2 = g5</text>
<text text-anchor="start" x="903.5" y="-1729.3" font-family="Times,serif" font-size="14.00"> g9 = v2</text>
<text text-anchor="start" x="903.5" y="-1714.3" font-family="Times,serif" font-size="14.00"> g5 = a1</text>
<text text-anchor="start" x="903.5" y="-1699.3" font-family="Times,serif" font-size="14.00"> v3 = g7</text>
<text text-anchor="start" x="903.5" y="-1684.3" font-family="Times,serif" font-size="14.00"> v4 = v3</text>
<text text-anchor="start" x="903.5" y="-1669.3" font-family="Times,serif" font-size="14.00"> g10 = &amp;(v4)</text>
<text text-anchor="start" x="903.5" y="-1654.3" font-family="Times,serif" font-size="14.00"> v5 = *(IntToPtrCastExpr&lt;ptr&gt;((v2 + 24)))</text>
<text text-anchor="start" x="903.5" y="-1639.3" font-family="Times,serif" font-size="14.00"> g7 = v5</text>
</g>
<!-- Node0x33fcc490&#45;&gt;Node0x4a8a9e20 -->
<g id="edge1" class="edge"><title>Node0x33fcc490&#45;&gt;Node0x4a8a9e20</title>
<path fill="none" stroke="black" d="M1059.5,-1812.48C1059.5,-1804.28 1059.5,-1794.71 1059.5,-1784.72"/>
<polygon fill="black" stroke="black" points="1063,-1784.62 1059.5,-1774.62 1056,-1784.62 1063,-1784.62"/>
</g>
<!-- Node0xa2a12620 -->
<g id="node3" class="node"><title>Node0xa2a12620</title>
<polygon fill="none" stroke="black" points="1009,-1557.5 1009,-1593.5 1110,-1593.5 1110,-1557.5 1009,-1557.5"/>
<text text-anchor="start" x="1017" y="-1571.8" font-family="Times,serif" font-size="14.00">if (v5 &lt; a1):</text>
</g>
<!-- Node0x4a8a9e20&#45;&gt;Node0xa2a12620 -->
<g id="edge2" class="edge"><title>Node0x4a8a9e20&#45;&gt;Node0xa2a12620</title>
<path fill="none" stroke="black" d="M1059.5,-1631.18C1059.5,-1621.44 1059.5,-1611.96 1059.5,-1603.71"/>
<polygon fill="black" stroke="black" points="1063,-1603.64 1059.5,-1593.64 1056,-1603.64 1063,-1603.64"/>
</g>
<!-- Node0x5b99b9f0 -->
<g id="node4" class="node"><title>Node0x5b99b9f0</title>
<polygon fill="none" stroke="black" points="775,-1377.5 775,-1505.5 1098,-1505.5 1098,-1377.5 775,-1377.5"/>
<text text-anchor="start" x="783" y="-1490.3" font-family="Times,serif" font-size="14.00">v6 = *(IntToPtrCastExpr&lt;ptr&gt;((v2 + 16)))</text>
<text text-anchor="start" x="783" y="-1475.3" font-family="Times,serif" font-size="14.00"> v7 = IntToPtrCastExpr&lt;ptr&gt;(v6)</text>
<text text-anchor="start" x="783" y="-1460.3" font-family="Times,serif" font-size="14.00"> v8</text>
<text text-anchor="start" x="783" y="-1445.3" font-family="Times,serif" font-size="14.00"> v9</text>
<text text-anchor="start" x="783" y="-1430.3" font-family="Times,serif" font-size="14.00"> v10</text>
<text text-anchor="start" x="783" y="-1415.3" font-family="Times,serif" font-size="14.00"> v11</text>
<text text-anchor="start" x="783" y="-1400.3" font-family="Times,serif" font-size="14.00"> v12</text>
<text text-anchor="start" x="783" y="-1385.3" font-family="Times,serif" font-size="14.00"> v13</text>
</g>
<!-- Node0xa2a12620&#45;&gt;Node0x5b99b9f0 -->
<g id="edge3" class="edge"><title>Node0xa2a12620&#45;&gt;Node0x5b99b9f0</title>
<path fill="none" stroke="black" d="M1043.42,-1557.24C1032.63,-1545.67 1017.64,-1529.57 1002.28,-1513.1"/>
<polygon fill="black" stroke="black" points="1004.59,-1510.44 995.217,-1505.51 999.473,-1515.22 1004.59,-1510.44"/>
<text text-anchor="middle" x="1051.5" y="-1527.8" font-family="Times,serif" font-size="14.00">v5 &lt; a1</text>
</g>
<!-- Node0x4a8ae6a0 -->
<g id="node5" class="node"><title>Node0x4a8ae6a0</title>
<polygon fill="none" stroke="black" points="985,-1275.5 985,-1358.5 1282,-1358.5 1282,-1275.5 985,-1275.5"/>
<text text-anchor="start" x="993" y="-1343.3" font-family="Times,serif" font-size="14.00">0x41b2f5:</text>
<text text-anchor="start" x="993" y="-1328.3" font-family="Times,serif" font-size="14.00"> g7 = v3</text>
<text text-anchor="start" x="993" y="-1313.3" font-family="Times,serif" font-size="14.00"> g9 = ExtCastExpr&lt;int32&gt;(*(v1))</text>
<text text-anchor="start" x="993" y="-1298.3" font-family="Times,serif" font-size="14.00"> v22</text>
<text text-anchor="start" x="993" y="-1283.3" font-family="Times,serif" font-size="14.00"> return PtrToIntCastExpr&lt;int32&gt;(v22)</text>
</g>
<!-- Node0xa2a12620&#45;&gt;Node0x4a8ae6a0 -->
<g id="edge4" class="edge"><title>Node0xa2a12620&#45;&gt;Node0x4a8ae6a0</title>
<path fill="none" stroke="black" d="M1075.09,-1557.26C1086.02,-1544.17 1099.96,-1525.19 1107.5,-1506 1124.92,-1461.66 1130.96,-1407.44 1132.91,-1368.64"/>
<polygon fill="black" stroke="black" points="1136.41,-1368.77 1133.34,-1358.63 1129.41,-1368.47 1136.41,-1368.77"/>
<text text-anchor="middle" x="1131.5" y="-1527.8" font-family="Times,serif" font-size="14.00">v5 &gt;= a1</text>
</g>
<!-- Node0x4a8a0f30 -->
<g id="node6" class="node"><title>Node0x4a8a0f30</title>
<polygon fill="none" stroke="black" points="870,-1218.5 870,-1256.5 975,-1256.5 975,-1218.5 870,-1218.5"/>
<text text-anchor="start" x="878" y="-1241.3" font-family="Times,serif" font-size="14.00">if (v6 == 0):</text>
<text text-anchor="start" x="878" y="-1226.3" font-family="Times,serif" font-size="14.00"> else:</text>
</g>
<!-- Node0x5b99b9f0&#45;&gt;Node0x4a8a0f30 -->
<g id="edge5" class="edge"><title>Node0x5b99b9f0&#45;&gt;Node0x4a8a0f30</title>
<path fill="none" stroke="black" d="M932.128,-1377.42C929.567,-1340.46 926.457,-1295.59 924.478,-1267.04"/>
<polygon fill="black" stroke="black" points="927.961,-1266.68 923.778,-1256.94 920.978,-1267.16 927.961,-1266.68"/>
</g>
<!-- Node0xa2a0e090 -->
<g id="node7" class="node"><title>Node0xa2a0e090</title>
<polygon fill="none" stroke="black" points="1011.5,-23.5 1011.5,-59.5 1065.5,-59.5 1065.5,-23.5 1011.5,-23.5"/>
<text text-anchor="start" x="1019.5" y="-37.8" font-family="Times,serif" font-size="14.00">exit:</text>
</g>
<!-- Node0x4a8ae6a0&#45;&gt;Node0xa2a0e090 -->
<g id="edge6" class="edge"><title>Node0x4a8ae6a0&#45;&gt;Node0xa2a0e090</title>
<path fill="none" stroke="black" d="M1144.5,-1275.49C1150,-1251.78 1155.5,-1221.16 1155.5,-1193.5 1155.5,-1193.5 1155.5,-1193.5 1155.5,-145.5 1155.5,-122.349 1151.74,-114.43 1136.5,-97 1120.02,-78.1461 1095.36,-64.4795 1074.9,-55.5473"/>
<polygon fill="black" stroke="black" points="1076.12,-52.2651 1065.54,-51.658 1073.43,-58.7287 1076.12,-52.2651"/>
</g>
<!-- Node0xc074b20 -->
<g id="node8" class="node"><title>Node0xc074b20</title>
<polygon fill="none" stroke="black" points="882,-1130.5 882,-1166.5 963,-1166.5 963,-1130.5 882,-1130.5"/>
<text text-anchor="start" x="890" y="-1144.8" font-family="Times,serif" font-size="14.00">v10 = v7</text>
</g>
<!-- Node0x4a8a0f30&#45;&gt;Node0xc074b20 -->
<g id="edge7" class="edge"><title>Node0x4a8a0f30&#45;&gt;Node0xc074b20</title>
<path fill="none" stroke="black" d="M922.5,-1218.47C922.5,-1206.46 922.5,-1190.43 922.5,-1176.86"/>
<polygon fill="black" stroke="black" points="926,-1176.62 922.5,-1166.62 919,-1176.62 926,-1176.62"/>
<text text-anchor="middle" x="952.5" y="-1188.8" font-family="Times,serif" font-size="14.00">v6 == 0</text>
</g>
<!-- Node0x14cfe910 -->
<g id="node9" class="node"><title>Node0x14cfe910</title>
<polygon fill="none" stroke="black" points="686,-1073.5 686,-1111.5 767,-1111.5 767,-1073.5 686,-1073.5"/>
<text text-anchor="start" x="694" y="-1096.3" font-family="Times,serif" font-size="14.00">v12 = a1</text>
<text text-anchor="start" x="694" y="-1081.3" font-family="Times,serif" font-size="14.00"> v9 = v7</text>
</g>
<!-- Node0x4a8a0f30&#45;&gt;Node0x14cfe910 -->
<g id="edge8" class="edge"><title>Node0x4a8a0f30&#45;&gt;Node0x14cfe910</title>
<path fill="none" stroke="black" d="M892.638,-1218.47C883.49,-1212.74 873.475,-1206.27 864.5,-1200 826.271,-1173.31 784.075,-1140.17 756.533,-1118.02"/>
<polygon fill="black" stroke="black" points="758.455,-1115.07 748.476,-1111.51 754.058,-1120.52 758.455,-1115.07"/>
<text text-anchor="middle" x="891.5" y="-1188.8" font-family="Times,serif" font-size="14.00">v6 != 0</text>
</g>
<!-- Node0x14d00320 -->
<g id="node10" class="node"><title>Node0x14d00320</title>
<polygon fill="none" stroke="black" points="839,-971.5 839,-1054.5 1006,-1054.5 1006,-971.5 839,-971.5"/>
<text text-anchor="start" x="847" y="-1039.3" font-family="Times,serif" font-size="14.00">0x41b2c9:</text>
<text text-anchor="start" x="847" y="-1024.3" font-family="Times,serif" font-size="14.00"> function_40edac(v1)</text>
<text text-anchor="start" x="847" y="-1009.3" font-family="Times,serif" font-size="14.00"> v13 = g5</text>
<text text-anchor="start" x="847" y="-994.3" font-family="Times,serif" font-size="14.00"> v11 = g7</text>
<text text-anchor="start" x="847" y="-979.3" font-family="Times,serif" font-size="14.00"> v8 = v10</text>
</g>
<!-- Node0xc074b20&#45;&gt;Node0x14d00320 -->
<g id="edge9" class="edge"><title>Node0xc074b20&#45;&gt;Node0x14d00320</title>
<path fill="none" stroke="black" d="M922.5,-1130.32C922.5,-1113.76 922.5,-1087.87 922.5,-1064.71"/>
<polygon fill="black" stroke="black" points="926,-1064.65 922.5,-1054.65 919,-1064.65 926,-1064.65"/>
</g>
<!-- Node0x24e42330 -->
<g id="node11" class="node"><title>Node0x24e42330</title>
<polygon fill="none" stroke="black" points="685,-759.5 685,-797.5 812,-797.5 812,-759.5 685,-759.5"/>
<text text-anchor="start" x="693" y="-782.3" font-family="Times,serif" font-size="14.00">0x41b2d0:</text>
<text text-anchor="start" x="693" y="-767.3" font-family="Times,serif" font-size="14.00"> if (v5 &gt;= v12):</text>
</g>
<!-- Node0x14cfe910&#45;&gt;Node0x24e42330 -->
<g id="edge10" class="edge"><title>Node0x14cfe910&#45;&gt;Node0x24e42330</title>
<path fill="none" stroke="black" d="M721.98,-1073.35C712.181,-1030.79 691.698,-921.602 715.5,-835 718.234,-825.052 723.267,-815.084 728.593,-806.396"/>
<polygon fill="black" stroke="black" points="731.63,-808.147 734.165,-797.86 725.768,-804.32 731.63,-808.147"/>
</g>
<!-- Node0x23ea42e0 -->
<g id="node12" class="node"><title>Node0x23ea42e0</title>
<polygon fill="none" stroke="black" points="724.5,-835.5 724.5,-933.5 1062.5,-933.5 1062.5,-835.5 724.5,-835.5"/>
<text text-anchor="start" x="732.5" y="-918.3" font-family="Times,serif" font-size="14.00">v21 = (PtrToIntCastExpr&lt;int32&gt;(v8) + v11)</text>
<text text-anchor="start" x="732.5" y="-903.3" font-family="Times,serif" font-size="14.00"> g7 = v21</text>
<text text-anchor="start" x="732.5" y="-888.3" font-family="Times,serif" font-size="14.00"> v12 = v13</text>
<text text-anchor="start" x="732.5" y="-873.3" font-family="Times,serif" font-size="14.00"> v5 = v21</text>
<text text-anchor="start" x="732.5" y="-858.3" font-family="Times,serif" font-size="14.00"> v9 = v8</text>
<text text-anchor="start" x="732.5" y="-843.3" font-family="Times,serif" font-size="14.00"> goto 0x41b2d0</text>
</g>
<!-- Node0x14d00320&#45;&gt;Node0x23ea42e0 -->
<g id="edge11" class="edge"><title>Node0x14d00320&#45;&gt;Node0x23ea42e0</title>
<path fill="none" stroke="black" d="M913.165,-971.278C911.146,-962.473 908.974,-952.999 906.836,-943.672"/>
<polygon fill="black" stroke="black" points="910.184,-942.613 904.538,-933.648 903.361,-944.178 910.184,-942.613"/>
</g>
<!-- Node0x4a8ad910 -->
<g id="node13" class="node"><title>Node0x4a8ad910</title>
<polygon fill="none" stroke="black" points="484.5,-549.5 484.5,-707.5 830.5,-707.5 830.5,-549.5 484.5,-549.5"/>
<text text-anchor="start" x="492.5" y="-692.3" font-family="Times,serif" font-size="14.00">v14 = g9</text>
<text text-anchor="start" x="492.5" y="-677.3" font-family="Times,serif" font-size="14.00"> v15 = *(IntToPtrCastExpr&lt;ptr&gt;((v14 + 32)))</text>
<text text-anchor="start" x="492.5" y="-662.3" font-family="Times,serif" font-size="14.00"> v16 = IntToPtrCastExpr&lt;ptr&gt;(v15)</text>
<text text-anchor="start" x="492.5" y="-647.3" font-family="Times,serif" font-size="14.00"> g1 = False</text>
<text text-anchor="start" x="492.5" y="-632.3" font-family="Times,serif" font-size="14.00"> g180 = (v15 == 0)</text>
<text text-anchor="start" x="492.5" y="-617.3" font-family="Times,serif" font-size="14.00"> v17 = IntToPtrCastExpr&lt;ptr&gt;(v5)</text>
<text text-anchor="start" x="492.5" y="-602.3" font-family="Times,serif" font-size="14.00"> g10 = PtrToIntCastExpr&lt;int32&gt;(&amp;(v17))</text>
<text text-anchor="start" x="492.5" y="-587.3" font-family="Times,serif" font-size="14.00"> g5 = v14</text>
<text text-anchor="start" x="492.5" y="-572.3" font-family="Times,serif" font-size="14.00"> v18 = *(IntToPtrCastExpr&lt;ptr&gt;(v14))</text>
<text text-anchor="start" x="492.5" y="-557.3" font-family="Times,serif" font-size="14.00"> v19</text>
</g>
<!-- Node0x24e42330&#45;&gt;Node0x4a8ad910 -->
<g id="edge12" class="edge"><title>Node0x24e42330&#45;&gt;Node0x4a8ad910</title>
<path fill="none" stroke="black" d="M707.171,-759.368C699.395,-754.373 691.993,-748.278 686.5,-741 681.058,-733.79 676.633,-725.653 673.036,-717.142"/>
<polygon fill="black" stroke="black" points="676.297,-715.87 669.449,-707.785 669.761,-718.375 676.297,-715.87"/>
<text text-anchor="middle" x="725" y="-729.8" font-family="Times,serif" font-size="14.00">v5 &gt;= v12</text>
</g>
<!-- Node0x14cf9c20 -->
<g id="node14" class="node"><title>Node0x14cf9c20</title>
<polygon fill="none" stroke="black" points="848.5,-602 848.5,-655 938.5,-655 938.5,-602 848.5,-602"/>
<text text-anchor="start" x="856.5" y="-639.8" font-family="Times,serif" font-size="14.00">v13 = v12</text>
<text text-anchor="start" x="856.5" y="-624.8" font-family="Times,serif" font-size="14.00"> v11 = v5</text>
<text text-anchor="start" x="856.5" y="-609.8" font-family="Times,serif" font-size="14.00"> v8 = v9</text>
</g>
<!-- Node0x24e42330&#45;&gt;Node0x14cf9c20 -->
<g id="edge13" class="edge"><title>Node0x24e42330&#45;&gt;Node0x14cf9c20</title>
<path fill="none" stroke="black" d="M771.241,-759.406C783.888,-749.432 799.964,-736.898 814.5,-726 825.455,-717.787 829.923,-717.785 839.5,-708 852.34,-694.882 864.195,-678.386 873.506,-663.906"/>
<polygon fill="black" stroke="black" points="876.618,-665.532 878.961,-655.199 870.686,-661.815 876.618,-665.532"/>
<text text-anchor="middle" x="847" y="-729.8" font-family="Times,serif" font-size="14.00">v5 &lt; v12</text>
</g>
<!-- Node0x23ea42e0&#45;&gt;Node0x24e42330 -->
<g id="edge14" class="edge"><title>Node0x23ea42e0&#45;&gt;Node0x24e42330</title>
<path fill="none" stroke="black" d="M826.518,-835.458C811.057,-824.368 795.259,-813.037 781.959,-803.498"/>
<polygon fill="black" stroke="black" points="783.774,-800.493 773.608,-797.509 779.694,-806.181 783.774,-800.493"/>
</g>
<!-- Node0x2fee8780 -->
<g id="node15" class="node"><title>Node0x2fee8780</title>
<polygon fill="none" stroke="black" points="600.5,-473.5 600.5,-511.5 714.5,-511.5 714.5,-473.5 600.5,-473.5"/>
<text text-anchor="start" x="608.5" y="-496.3" font-family="Times,serif" font-size="14.00">if (v15 == 0):</text>
<text text-anchor="start" x="608.5" y="-481.3" font-family="Times,serif" font-size="14.00"> else:</text>
</g>
<!-- Node0x4a8ad910&#45;&gt;Node0x2fee8780 -->
<g id="edge15" class="edge"><title>Node0x4a8ad910&#45;&gt;Node0x2fee8780</title>
<path fill="none" stroke="black" d="M657.5,-549.164C657.5,-539.447 657.5,-530.058 657.5,-521.846"/>
<polygon fill="black" stroke="black" points="661,-521.801 657.5,-511.801 654,-521.801 661,-521.801"/>
</g>
<!-- Node0x14cf9c20&#45;&gt;Node0x23ea42e0 -->
<g id="edge16" class="edge"><title>Node0x14cf9c20&#45;&gt;Node0x23ea42e0</title>
<path fill="none" stroke="black" d="M893.5,-655.269C893.5,-694.906 893.5,-771.851 893.5,-825.384"/>
<polygon fill="black" stroke="black" points="890,-825.426 893.5,-835.426 897,-825.426 890,-825.426"/>
</g>
<!-- Node0x5b99ef90 -->
<g id="node16" class="node"><title>Node0x5b99ef90</title>
<polygon fill="none" stroke="black" points="0,-346 0,-399 493,-399 493,-346 0,-346"/>
<text text-anchor="start" x="8" y="-383.8" font-family="Times,serif" font-size="14.00">0x41b2de:</text>
<text text-anchor="start" x="8" y="-368.8" font-family="Times,serif" font-size="14.00"> IntToPtrCastExpr&lt;ptr&gt;(*(IntToPtrCastExpr&lt;ptr&gt;((v18 + 84))))()</text>
<text text-anchor="start" x="8" y="-353.8" font-family="Times,serif" font-size="14.00"> v19 = IntToPtrCastExpr&lt;ptr&gt;(v18)</text>
</g>
<!-- Node0x2fee8780&#45;&gt;Node0x5b99ef90 -->
<g id="edge17" class="edge"><title>Node0x2fee8780&#45;&gt;Node0x5b99ef90</title>
<path fill="none" stroke="black" d="M600.352,-475.093C534.569,-456.206 425.356,-424.851 345.632,-401.961"/>
<polygon fill="black" stroke="black" points="346.148,-398.468 335.57,-399.072 344.216,-405.196 346.148,-398.468"/>
<text text-anchor="middle" x="560" y="-443.8" font-family="Times,serif" font-size="14.00">v15 == 0</text>
</g>
<!-- Node0x6200fd90 -->
<g id="node17" class="node"><title>Node0x6200fd90</title>
<polygon fill="none" stroke="black" points="511,-323.5 511,-421.5 1030,-421.5 1030,-323.5 511,-323.5"/>
<text text-anchor="start" x="519" y="-406.3" font-family="Times,serif" font-size="14.00">0x41b2e5:</text>
<text text-anchor="start" x="519" y="-391.3" font-family="Times,serif" font-size="14.00"> g8 = v18</text>
<text text-anchor="start" x="519" y="-376.3" font-family="Times,serif" font-size="14.00"> v20 = v16</text>
<text text-anchor="start" x="519" y="-361.3" font-family="Times,serif" font-size="14.00"> g10 = PtrToIntCastExpr&lt;int32&gt;(&amp;(v20))</text>
<text text-anchor="start" x="519" y="-346.3" font-family="Times,serif" font-size="14.00"> IntToPtrCastExpr&lt;ptr&gt;(*(IntToPtrCastExpr&lt;ptr&gt;((v18 + 88))))(v15)</text>
<text text-anchor="start" x="519" y="-331.3" font-family="Times,serif" font-size="14.00"> v19 = v16</text>
</g>
<!-- Node0x2fee8780&#45;&gt;Node0x6200fd90 -->
<g id="edge18" class="edge"><title>Node0x2fee8780&#45;&gt;Node0x6200fd90</title>
<path fill="none" stroke="black" d="M674.909,-473.321C686.398,-461.324 702.116,-444.909 717.489,-428.856"/>
<polygon fill="black" stroke="black" points="720.123,-431.166 724.512,-421.523 715.068,-426.325 720.123,-431.166"/>
<text text-anchor="middle" x="736" y="-443.8" font-family="Times,serif" font-size="14.00">v15 != 0</text>
</g>
<!-- Node0xa2a13c20 -->
<g id="node18" class="node"><title>Node0xa2a13c20</title>
<polygon fill="none" stroke="black" points="667,-247.5 667,-285.5 820,-285.5 820,-247.5 667,-247.5"/>
<text text-anchor="start" x="675" y="-270.3" font-family="Times,serif" font-size="14.00">0x41b2eb:</text>
<text text-anchor="start" x="675" y="-255.3" font-family="Times,serif" font-size="14.00"> if (v19 == NULL):</text>
</g>
<!-- Node0x5b99ef90&#45;&gt;Node0xa2a13c20 -->
<g id="edge19" class="edge"><title>Node0x5b99ef90&#45;&gt;Node0xa2a13c20</title>
<path fill="none" stroke="black" d="M368.398,-345.992C457.833,-327.277 577.12,-302.316 656.932,-285.615"/>
<polygon fill="black" stroke="black" points="657.88,-288.992 666.951,-283.518 656.446,-282.141 657.88,-288.992"/>
</g>
<!-- Node0x6200fd90&#45;&gt;Node0xa2a13c20 -->
<g id="edge20" class="edge"><title>Node0x6200fd90&#45;&gt;Node0xa2a13c20</title>
<path fill="none" stroke="black" d="M758.027,-323.458C755.532,-313.847 752.99,-304.055 750.744,-295.405"/>
<polygon fill="black" stroke="black" points="754.076,-294.308 748.175,-285.509 747.301,-296.067 754.076,-294.308"/>
</g>
<!-- Node0xa2a10c80 -->
<g id="node19" class="node"><title>Node0xa2a10c80</title>
<polygon fill="none" stroke="black" points="999.5,-120 999.5,-173 1127.5,-173 1127.5,-120 999.5,-120"/>
<text text-anchor="start" x="1007.5" y="-157.8" font-family="Times,serif" font-size="14.00">0x41b2eb:</text>
<text text-anchor="start" x="1007.5" y="-142.8" font-family="Times,serif" font-size="14.00"> v10 = NULL</text>
<text text-anchor="start" x="1007.5" y="-127.8" font-family="Times,serif" font-size="14.00"> goto 0x41b2c9</text>
</g>
<!-- Node0xa2a13c20&#45;&gt;Node0xa2a10c80 -->
<g id="edge21" class="edge"><title>Node0xa2a13c20&#45;&gt;Node0xa2a10c80</title>
<path fill="none" stroke="black" d="M820.16,-250.191C869.798,-238.755 935.086,-220.808 989.5,-196 999.986,-191.219 1010.68,-185.076 1020.56,-178.778"/>
<polygon fill="black" stroke="black" points="1022.57,-181.647 1029.01,-173.234 1018.73,-175.794 1022.57,-181.647"/>
<text text-anchor="middle" x="996" y="-217.8" font-family="Times,serif" font-size="14.00">v19 == NULL</text>
</g>
<!-- Node0x5b9ac260 -->
<g id="node20" class="node"><title>Node0x5b9ac260</title>
<polygon fill="none" stroke="black" points="444,-97.5 444,-195.5 981,-195.5 981,-97.5 444,-97.5"/>
<text text-anchor="start" x="452" y="-180.3" font-family="Times,serif" font-size="14.00">0x41b2ef:</text>
<text text-anchor="start" x="452" y="-165.3" font-family="Times,serif" font-size="14.00"> *(IntToPtrCastExpr&lt;ptr&gt;((g9 + 32))) = PtrToIntCastExpr&lt;int32&gt;(v19)</text>
<text text-anchor="start" x="452" y="-150.3" font-family="Times,serif" font-size="14.00"> *(IntToPtrCastExpr&lt;ptr&gt;((g9 + 24))) = g7</text>
<text text-anchor="start" x="452" y="-135.3" font-family="Times,serif" font-size="14.00"> g7 = v4</text>
<text text-anchor="start" x="452" y="-120.3" font-family="Times,serif" font-size="14.00"> g9 = ExtCastExpr&lt;int32&gt;(*(v1))</text>
<text text-anchor="start" x="452" y="-105.3" font-family="Times,serif" font-size="14.00"> return PtrToIntCastExpr&lt;int32&gt;(v19)</text>
</g>
<!-- Node0xa2a13c20&#45;&gt;Node0x5b9ac260 -->
<g id="edge22" class="edge"><title>Node0xa2a13c20&#45;&gt;Node0x5b9ac260</title>
<path fill="none" stroke="black" d="M738.724,-247.321C735.743,-235.972 731.723,-220.671 727.727,-205.462"/>
<polygon fill="black" stroke="black" points="731.042,-204.306 725.116,-195.523 724.272,-206.084 731.042,-204.306"/>
<text text-anchor="middle" x="782" y="-217.8" font-family="Times,serif" font-size="14.00">v19 != NULL</text>
</g>
<!-- Node0xa2a10c80&#45;&gt;Node0x14d00320 -->
<g id="edge23" class="edge"><title>Node0xa2a10c80&#45;&gt;Node0x14d00320</title>
<path fill="none" stroke="black" d="M1072.94,-173.357C1080.73,-197.008 1090.5,-233.136 1090.5,-265.5 1090.5,-885.5 1090.5,-885.5 1090.5,-885.5 1090.5,-928.934 1054.22,-959.318 1015.38,-979.4"/>
<polygon fill="black" stroke="black" points="1013.42,-976.465 1006.01,-984.033 1016.52,-982.74 1013.42,-976.465"/>
</g>
<!-- Node0x5b9ac260&#45;&gt;Node0xa2a0e090 -->
<g id="edge24" class="edge"><title>Node0x5b9ac260&#45;&gt;Node0xa2a0e090</title>
<path fill="none" stroke="black" d="M864.524,-97.4679C915.37,-81.403 967.647,-64.886 1001.44,-54.2079"/>
<polygon fill="black" stroke="black" points="1002.84,-57.4385 1011.32,-51.0884 1000.73,-50.7638 1002.84,-57.4385"/>
</g>
</g>
</svg>
