<?xml version="1.0" encoding="UTF-8" standalone="no"?>
<!DOCTYPE svg PUBLIC "-//W3C//DTD SVG 1.1//EN"
 "http://www.w3.org/Graphics/SVG/1.1/DTD/svg11.dtd">
<!-- Generated by graphviz version 2.38.0 (20140413.2041)
 -->
<!-- Title: Control&#45;flow graph for function &#39;function_407c42()&#39;. Pages: 1 -->
<svg width="2865pt" height="1582pt"
 viewBox="0.00 0.00 2864.55 1582.00" xmlns="http://www.w3.org/2000/svg" xmlns:xlink="http://www.w3.org/1999/xlink">
<g id="graph0" class="graph" transform="scale(1 1) rotate(0) translate(4 1578)">
<title>Control&#45;flow graph for function &#39;function_407c42()&#39;.</title>
<polygon fill="white" stroke="none" points="-4,4 -4,-1578 2860.55,-1578 2860.55,4 -4,4"/>
<text text-anchor="middle" x="1428.28" y="-7.8" font-family="Times,serif" font-size="14.00">Control&#45;flow graph for function &#39;function_407c42()&#39;.</text>
<!-- Node0x124b3eb0 -->
<g id="node1" class="node"><title>Node0x124b3eb0</title>
<polygon fill="none" stroke="black" points="1473.05,-1537.5 1473.05,-1573.5 1532.05,-1573.5 1532.05,-1537.5 1473.05,-1537.5"/>
<text text-anchor="start" x="1481.05" y="-1551.8" font-family="Times,serif" font-size="14.00">entry:</text>
</g>
<!-- Node0x231a45c0 -->
<g id="node2" class="node"><title>Node0x231a45c0</title>
<polygon fill="none" stroke="black" points="1324.55,-1281.5 1324.55,-1499.5 1680.55,-1499.5 1680.55,-1281.5 1324.55,-1281.5"/>
<text text-anchor="start" x="1332.55" y="-1484.3" font-family="Times,serif" font-size="14.00">v1</text>
<text text-anchor="start" x="1332.55" y="-1469.3" font-family="Times,serif" font-size="14.00"> g3 = &amp;(v1)</text>
<text text-anchor="start" x="1332.55" y="-1454.3" font-family="Times,serif" font-size="14.00"> v2 = g9</text>
<text text-anchor="start" x="1332.55" y="-1439.3" font-family="Times,serif" font-size="14.00"> v3 = g7</text>
<text text-anchor="start" x="1332.55" y="-1424.3" font-family="Times,serif" font-size="14.00"> phkResult</text>
<text text-anchor="start" x="1332.55" y="-1409.3" font-family="Times,serif" font-size="14.00"> g2 = PtrToIntCastExpr&lt;int32&gt;(&amp;(phkResult))</text>
<text text-anchor="start" x="1332.55" y="-1394.3" font-family="Times,serif" font-size="14.00"> v4 = BitCastExpr&lt;ptr&gt;(&amp;(phkResult))</text>
<text text-anchor="start" x="1332.55" y="-1379.3" font-family="Times,serif" font-size="14.00"> g7 = 0</text>
<text text-anchor="start" x="1332.55" y="-1364.3" font-family="Times,serif" font-size="14.00"> g9 = 131103</text>
<text text-anchor="start" x="1332.55" y="-1349.3" font-family="Times,serif" font-size="14.00"> v5 = g5</text>
<text text-anchor="start" x="1332.55" y="-1334.3" font-family="Times,serif" font-size="14.00"> g4 = v5</text>
<text text-anchor="start" x="1332.55" y="-1319.3" font-family="Times,serif" font-size="14.00"> phkResult3 = NULL</text>
<text text-anchor="start" x="1332.55" y="-1304.3" font-family="Times,serif" font-size="14.00"> phkResult = NULL</text>
<text text-anchor="start" x="1332.55" y="-1289.3" font-family="Times,serif" font-size="14.00"> phkResult2 = NULL</text>
</g>
<!-- Node0x124b3eb0&#45;&gt;Node0x231a45c0 -->
<g id="edge1" class="edge"><title>Node0x124b3eb0&#45;&gt;Node0x231a45c0</title>
<path fill="none" stroke="black" d="M1502.55,-1537.36C1502.55,-1529.93 1502.55,-1520.54 1502.55,-1510.11"/>
<polygon fill="black" stroke="black" points="1506.05,-1509.83 1502.55,-1499.83 1499.05,-1509.83 1506.05,-1509.83"/>
</g>
<!-- Node0x231a74e0 -->
<g id="node3" class="node"><title>Node0x231a74e0</title>
<polygon fill="none" stroke="black" points="1032.05,-1207.5 1032.05,-1243.5 1973.05,-1243.5 1973.05,-1207.5 1032.05,-1207.5"/>
<text text-anchor="start" x="1040.05" y="-1221.8" font-family="Times,serif" font-size="14.00">if (RegOpenKeyExA((HKEY_CURRENT_USER &#45;&gt; &#45;2147483647), &quot;software&quot;, 0, 131103, BitCastExpr&lt;ptr&gt;(&amp;(phkResult))) == 0):</text>
</g>
<!-- Node0x231a45c0&#45;&gt;Node0x231a74e0 -->
<g id="edge2" class="edge"><title>Node0x231a45c0&#45;&gt;Node0x231a74e0</title>
<path fill="none" stroke="black" d="M1502.55,-1281.23C1502.55,-1271.2 1502.55,-1261.79 1502.55,-1253.68"/>
<polygon fill="black" stroke="black" points="1506.05,-1253.52 1502.55,-1243.52 1499.05,-1253.52 1506.05,-1253.52"/>
</g>
<!-- Node0x1b7d06d0 -->
<g id="node4" class="node"><title>Node0x1b7d06d0</title>
<polygon fill="none" stroke="black" points="101.054,-1027.5 101.054,-1155.5 1938.05,-1155.5 1938.05,-1027.5 101.054,-1027.5"/>
<text text-anchor="start" x="109.054" y="-1140.3" font-family="Times,serif" font-size="14.00">0x407c7a:</text>
<text text-anchor="start" x="109.054" y="-1125.3" font-family="Times,serif" font-size="14.00"> lpdwDisposition</text>
<text text-anchor="start" x="109.054" y="-1110.3" font-family="Times,serif" font-size="14.00"> v4 = &amp;(lpdwDisposition)</text>
<text text-anchor="start" x="109.054" y="-1095.3" font-family="Times,serif" font-size="14.00"> g2 = PtrToIntCastExpr&lt;int32&gt;(&amp;(phkResult2))</text>
<text text-anchor="start" x="109.054" y="-1080.3" font-family="Times,serif" font-size="14.00"> Reserved = g7</text>
<text text-anchor="start" x="109.054" y="-1065.3" font-family="Times,serif" font-size="14.00"> lpSubKey = *(IntToPtrCastExpr&lt;ptr&gt;((g4 + 84)))</text>
<text text-anchor="start" x="109.054" y="-1050.3" font-family="Times,serif" font-size="14.00"> g4 = 287074</text>
<text text-anchor="start" x="109.054" y="-1035.3" font-family="Times,serif" font-size="14.00"> v6 = RegCreateKeyExA(PtrToIntCastExpr&lt;int32&gt;(phkResult), IntToPtrCastExpr&lt;ptr&gt;(lpSubKey), Reserved, IntToPtrCastExpr&lt;ptr&gt;(Reserved), Reserved, g9, IntToPtrCastExpr&lt;ptr&gt;(Reserved), BitCastExpr&lt;ptr&gt;(&amp;(phkResult2)), &amp;(lpdwDisposition))</text>
</g>
<!-- Node0x231a74e0&#45;&gt;Node0x1b7d06d0 -->
<g id="edge3" class="edge"><title>Node0x231a74e0&#45;&gt;Node0x1b7d06d0</title>
<path fill="none" stroke="black" d="M1150.16,-1207.47C1103.99,-1202.68 1068.94,-1196.62 1058.55,-1189 1050.05,-1182.76 1043.4,-1174.35 1038.2,-1165.09"/>
<polygon fill="black" stroke="black" points="1041.25,-1163.36 1033.64,-1155.98 1034.99,-1166.49 1041.25,-1163.36"/>
<text text-anchor="middle" x="1506.05" y="-1177.8" font-family="Times,serif" font-size="14.00">RegOpenKeyExA((HKEY_CURRENT_USER &#45;&gt; &#45;2147483647), &quot;software&quot;, 0, 131103, BitCastExpr&lt;ptr&gt;(&amp;(phkResult))) == 0</text>
</g>
<!-- Node0x1a97a900 -->
<g id="node5" class="node"><title>Node0x1a97a900</title>
<polygon fill="none" stroke="black" points="849.054,-712.5 849.054,-765.5 1176.05,-765.5 1176.05,-712.5 849.054,-712.5"/>
<text text-anchor="start" x="857.054" y="-750.3" font-family="Times,serif" font-size="14.00">v7 = PtrToIntCastExpr&lt;int32&gt;(phkResult)</text>
<text text-anchor="start" x="857.054" y="-735.3" font-family="Times,serif" font-size="14.00"> g9 = 286998</text>
<text text-anchor="start" x="857.054" y="-720.3" font-family="Times,serif" font-size="14.00"> v8 = v7</text>
</g>
<!-- Node0x231a74e0&#45;&gt;Node0x1a97a900 -->
<g id="edge4" class="edge"><title>Node0x231a74e0&#45;&gt;Node0x1a97a900</title>
<path fill="none" stroke="black" d="M1880.65,-1207.49C1918.02,-1202.76 1945.31,-1196.72 1953.55,-1189 1985.19,-1159.38 1967.55,-1135.84 1967.55,-1092.5 1967.55,-1092.5 1967.55,-1092.5 1967.55,-851.5 1967.55,-828.349 1967.23,-816.682 1948.55,-803 1888.71,-759.157 1439.97,-745.81 1186.18,-741.758"/>
<polygon fill="black" stroke="black" points="1186.17,-738.257 1176.12,-741.6 1186.06,-745.256 1186.17,-738.257"/>
<text text-anchor="middle" x="2412.05" y="-967.8" font-family="Times,serif" font-size="14.00">RegOpenKeyExA((HKEY_CURRENT_USER &#45;&gt; &#45;2147483647), &quot;software&quot;, 0, 131103, BitCastExpr&lt;ptr&gt;(&amp;(phkResult))) != 0</text>
</g>
<!-- Node0x124ad320 -->
<g id="node6" class="node"><title>Node0x124ad320</title>
<polygon fill="none" stroke="black" points="960.054,-953.5 960.054,-989.5 1065.05,-989.5 1065.05,-953.5 960.054,-953.5"/>
<text text-anchor="start" x="968.054" y="-967.8" font-family="Times,serif" font-size="14.00">if (v6 == 0):</text>
</g>
<!-- Node0x1b7d06d0&#45;&gt;Node0x124ad320 -->
<g id="edge5" class="edge"><title>Node0x1b7d06d0&#45;&gt;Node0x124ad320</title>
<path fill="none" stroke="black" d="M1015.81,-1027.35C1015.24,-1017.75 1014.68,-1008.3 1014.19,-1000.02"/>
<polygon fill="black" stroke="black" points="1017.67,-999.663 1013.59,-989.888 1010.68,-1000.08 1017.67,-999.663"/>
</g>
<!-- Node0x231a55b0 -->
<g id="node7" class="node"><title>Node0x231a55b0</title>
<polygon fill="none" stroke="black" points="958.554,-638.5 958.554,-674.5 1066.55,-674.5 1066.55,-638.5 958.554,-638.5"/>
<text text-anchor="start" x="966.554" y="-652.8" font-family="Times,serif" font-size="14.00">if (v7 != g7):</text>
</g>
<!-- Node0x1a97a900&#45;&gt;Node0x231a55b0 -->
<g id="edge6" class="edge"><title>Node0x1a97a900&#45;&gt;Node0x231a55b0</title>
<path fill="none" stroke="black" d="M1012.55,-712.086C1012.55,-703.46 1012.55,-693.822 1012.55,-685.075"/>
<polygon fill="black" stroke="black" points="1016.05,-684.973 1012.55,-674.974 1009.05,-684.974 1016.05,-684.973"/>
</g>
<!-- Node0x124ad320&#45;&gt;Node0x1a97a900 -->
<g id="edge8" class="edge"><title>Node0x124ad320&#45;&gt;Node0x1a97a900</title>
<path fill="none" stroke="black" d="M959.854,-970.946C764.116,-972.062 86.836,-970.884 22.5536,-902 -7.46605,-869.831 -7.5549,-835.085 22.5536,-803 50.0102,-773.741 562.262,-753.692 838.832,-744.952"/>
<polygon fill="black" stroke="black" points="839.091,-748.445 848.976,-744.633 838.871,-741.449 839.091,-748.445"/>
<text text-anchor="middle" x="49.5536" y="-848.8" font-family="Times,serif" font-size="14.00">v6 != 0</text>
</g>
<!-- Node0x231a5aa0 -->
<g id="node8" class="node"><title>Node0x231a5aa0</title>
<polygon fill="none" stroke="black" points="86.0536,-803.5 86.0536,-901.5 1939.05,-901.5 1939.05,-803.5 86.0536,-803.5"/>
<text text-anchor="start" x="94.0536" y="-886.3" font-family="Times,serif" font-size="14.00">0x407c99:</text>
<text text-anchor="start" x="94.0536" y="-871.3" font-family="Times,serif" font-size="14.00"> v4 = &amp;(lpdwDisposition)</text>
<text text-anchor="start" x="94.0536" y="-856.3" font-family="Times,serif" font-size="14.00"> g2 = v5</text>
<text text-anchor="start" x="94.0536" y="-841.3" font-family="Times,serif" font-size="14.00"> Reserved2 = g7</text>
<text text-anchor="start" x="94.0536" y="-826.3" font-family="Times,serif" font-size="14.00"> lpSubKey2 = *(IntToPtrCastExpr&lt;ptr&gt;((v5 + 104)))</text>
<text text-anchor="start" x="94.0536" y="-811.3" font-family="Times,serif" font-size="14.00"> RegCreateKeyExA(PtrToIntCastExpr&lt;int32&gt;(phkResult2), IntToPtrCastExpr&lt;ptr&gt;(lpSubKey2), Reserved2, IntToPtrCastExpr&lt;ptr&gt;(Reserved2), Reserved2, g9, IntToPtrCastExpr&lt;ptr&gt;(Reserved2), BitCastExpr&lt;ptr&gt;(&amp;(phkResult3)), &amp;(lpdwDisposition))</text>
</g>
<!-- Node0x124ad320&#45;&gt;Node0x231a5aa0 -->
<g id="edge7" class="edge"><title>Node0x124ad320&#45;&gt;Node0x231a5aa0</title>
<path fill="none" stroke="black" d="M1012.55,-953.487C1012.55,-942.309 1012.55,-926.968 1012.55,-911.658"/>
<polygon fill="black" stroke="black" points="1016.05,-911.646 1012.55,-901.646 1009.05,-911.646 1016.05,-911.646"/>
<text text-anchor="middle" x="1042.55" y="-923.8" font-family="Times,serif" font-size="14.00">v6 == 0</text>
</g>
<!-- Node0x124acd60 -->
<g id="node9" class="node"><title>Node0x124acd60</title>
<polygon fill="none" stroke="black" points="818.554,-518.5 818.554,-586.5 1016.55,-586.5 1016.55,-518.5 818.554,-518.5"/>
<text text-anchor="start" x="826.554" y="-571.3" font-family="Times,serif" font-size="14.00">0x407cbc:</text>
<text text-anchor="start" x="826.554" y="-556.3" font-family="Times,serif" font-size="14.00"> v4 = phkResult</text>
<text text-anchor="start" x="826.554" y="-541.3" font-family="Times,serif" font-size="14.00"> RegCloseKey(phkResult)</text>
<text text-anchor="start" x="826.554" y="-526.3" font-family="Times,serif" font-size="14.00"> v8 = g7</text>
</g>
<!-- Node0x231a55b0&#45;&gt;Node0x124acd60 -->
<g id="edge9" class="edge"><title>Node0x231a55b0&#45;&gt;Node0x124acd60</title>
<path fill="none" stroke="black" d="M994.172,-638.48C988.129,-632.723 981.451,-626.185 975.554,-620 967.864,-611.936 959.862,-603.087 952.346,-594.548"/>
<polygon fill="black" stroke="black" points="954.816,-592.057 945.603,-586.826 949.544,-596.661 954.816,-592.057"/>
<text text-anchor="middle" x="1007.05" y="-608.8" font-family="Times,serif" font-size="14.00">v7 != g7</text>
</g>
<!-- Node0x124aefc0 -->
<g id="node10" class="node"><title>Node0x124aefc0</title>
<polygon fill="none" stroke="black" points="844.554,-427.5 844.554,-480.5 1180.55,-480.5 1180.55,-427.5 844.554,-427.5"/>
<text text-anchor="start" x="852.554" y="-465.3" font-family="Times,serif" font-size="14.00">v9 = PtrToIntCastExpr&lt;int32&gt;(phkResult2)</text>
<text text-anchor="start" x="852.554" y="-450.3" font-family="Times,serif" font-size="14.00"> g1 = (v9 &lt; v8)</text>
<text text-anchor="start" x="852.554" y="-435.3" font-family="Times,serif" font-size="14.00"> g180 = (v9 == v8)</text>
</g>
<!-- Node0x231a55b0&#45;&gt;Node0x124aefc0 -->
<g id="edge10" class="edge"><title>Node0x231a55b0&#45;&gt;Node0x124aefc0</title>
<path fill="none" stroke="black" d="M1028.48,-638.321C1032.57,-632.863 1036.42,-626.535 1038.55,-620 1052.75,-576.6 1039.64,-524.167 1027.45,-490.232"/>
<polygon fill="black" stroke="black" points="1030.69,-488.884 1023.9,-480.749 1024.13,-491.342 1030.69,-488.884"/>
<text text-anchor="middle" x="1080.05" y="-548.8" font-family="Times,serif" font-size="14.00">v7 == g7</text>
</g>
<!-- Node0x231a5aa0&#45;&gt;Node0x1a97a900 -->
<g id="edge11" class="edge"><title>Node0x231a5aa0&#45;&gt;Node0x1a97a900</title>
<path fill="none" stroke="black" d="M1012.55,-803.243C1012.55,-794.038 1012.55,-784.555 1012.55,-775.823"/>
<polygon fill="black" stroke="black" points="1016.05,-775.613 1012.55,-765.613 1009.05,-775.613 1016.05,-775.613"/>
</g>
<!-- Node0x124acd60&#45;&gt;Node0x124aefc0 -->
<g id="edge12" class="edge"><title>Node0x124acd60&#45;&gt;Node0x124aefc0</title>
<path fill="none" stroke="black" d="M950.247,-518.29C959.913,-508.472 970.488,-497.73 980.137,-487.929"/>
<polygon fill="black" stroke="black" points="982.783,-490.23 987.304,-480.648 977.794,-485.319 982.783,-490.23"/>
</g>
<!-- Node0x231acea0 -->
<g id="node11" class="node"><title>Node0x231acea0</title>
<polygon fill="none" stroke="black" points="959.054,-353.5 959.054,-389.5 1066.05,-389.5 1066.05,-353.5 959.054,-353.5"/>
<text text-anchor="start" x="967.054" y="-367.8" font-family="Times,serif" font-size="14.00">if (v9 != v8):</text>
</g>
<!-- Node0x124aefc0&#45;&gt;Node0x231acea0 -->
<g id="edge13" class="edge"><title>Node0x124aefc0&#45;&gt;Node0x231acea0</title>
<path fill="none" stroke="black" d="M1012.55,-427.086C1012.55,-418.46 1012.55,-408.822 1012.55,-400.075"/>
<polygon fill="black" stroke="black" points="1016.05,-399.973 1012.55,-389.974 1009.05,-399.974 1016.05,-399.973"/>
</g>
<!-- Node0x124b25b0 -->
<g id="node12" class="node"><title>Node0x124b25b0</title>
<polygon fill="none" stroke="black" points="716.054,-233.5 716.054,-301.5 1025.05,-301.5 1025.05,-233.5 716.054,-233.5"/>
<text text-anchor="start" x="724.054" y="-286.3" font-family="Times,serif" font-size="14.00">0x407cc6:</text>
<text text-anchor="start" x="724.054" y="-271.3" font-family="Times,serif" font-size="14.00"> v4 = phkResult2</text>
<text text-anchor="start" x="724.054" y="-256.3" font-family="Times,serif" font-size="14.00"> g10 = PtrToIntCastExpr&lt;int32&gt;(&amp;(v4))</text>
<text text-anchor="start" x="724.054" y="-241.3" font-family="Times,serif" font-size="14.00"> IntToPtrCastExpr&lt;ptr&gt;(g9)(v9)</text>
</g>
<!-- Node0x231acea0&#45;&gt;Node0x124b25b0 -->
<g id="edge14" class="edge"><title>Node0x231acea0&#45;&gt;Node0x124b25b0</title>
<path fill="none" stroke="black" d="M988.786,-353.427C971.354,-340.906 946.969,-323.39 924.87,-307.516"/>
<polygon fill="black" stroke="black" points="926.696,-304.518 916.532,-301.527 922.612,-310.203 926.696,-304.518"/>
<text text-anchor="middle" x="994.554" y="-323.8" font-family="Times,serif" font-size="14.00">v9 != v8</text>
</g>
<!-- Node0x231ae220 -->
<g id="node13" class="node"><title>Node0x231ae220</title>
<polygon fill="none" stroke="black" points="836.054,-97.5 836.054,-195.5 1177.05,-195.5 1177.05,-97.5 836.054,-97.5"/>
<text text-anchor="start" x="844.054" y="-180.3" font-family="Times,serif" font-size="14.00">0x407ccb:</text>
<text text-anchor="start" x="844.054" y="-165.3" font-family="Times,serif" font-size="14.00"> g2 = PtrToIntCastExpr&lt;int32&gt;(phkResult3)</text>
<text text-anchor="start" x="844.054" y="-150.3" font-family="Times,serif" font-size="14.00"> g7 = PtrToIntCastExpr&lt;int32&gt;(v4)</text>
<text text-anchor="start" x="844.054" y="-135.3" font-family="Times,serif" font-size="14.00"> g9 = v3</text>
<text text-anchor="start" x="844.054" y="-120.3" font-family="Times,serif" font-size="14.00"> g4 = v2</text>
<text text-anchor="start" x="844.054" y="-105.3" font-family="Times,serif" font-size="14.00"> g3 = v1</text>
</g>
<!-- Node0x231acea0&#45;&gt;Node0x231ae220 -->
<g id="edge15" class="edge"><title>Node0x231acea0&#45;&gt;Node0x231ae220</title>
<path fill="none" stroke="black" d="M1022.2,-353.253C1024.99,-347.591 1027.76,-341.167 1029.55,-335 1033.69,-320.816 1032.66,-316.747 1033.55,-302 1035.4,-271.389 1038.23,-263.309 1033.55,-233 1032.16,-223.962 1029.98,-214.569 1027.46,-205.46"/>
<polygon fill="black" stroke="black" points="1030.77,-204.328 1024.6,-195.718 1024.06,-206.299 1030.77,-204.328"/>
<text text-anchor="middle" x="1070.55" y="-263.8" font-family="Times,serif" font-size="14.00">v9 == v8</text>
</g>
<!-- Node0x124b25b0&#45;&gt;Node0x231ae220 -->
<g id="edge16" class="edge"><title>Node0x124b25b0&#45;&gt;Node0x231ae220</title>
<path fill="none" stroke="black" d="M908.437,-233.352C919.502,-223.67 931.9,-212.822 944.062,-202.18"/>
<polygon fill="black" stroke="black" points="946.368,-204.813 951.589,-195.594 941.759,-199.545 946.368,-204.813"/>
</g>
<!-- Node0x231a48c0 -->
<g id="node14" class="node"><title>Node0x231a48c0</title>
<polygon fill="none" stroke="black" points="979.554,-23.5 979.554,-59.5 1033.55,-59.5 1033.55,-23.5 979.554,-23.5"/>
<text text-anchor="start" x="987.554" y="-37.8" font-family="Times,serif" font-size="14.00">exit:</text>
</g>
<!-- Node0x231ae220&#45;&gt;Node0x231a48c0 -->
<g id="edge17" class="edge"><title>Node0x231ae220&#45;&gt;Node0x231a48c0</title>
<path fill="none" stroke="black" d="M1006.55,-97.3173C1006.55,-87.893 1006.55,-78.32 1006.55,-69.8676"/>
<polygon fill="black" stroke="black" points="1010.05,-69.856 1006.55,-59.8561 1003.05,-69.8561 1010.05,-69.856"/>
</g>
</g>
</svg>
