<?xml version="1.0" encoding="UTF-8" standalone="no"?>
<!DOCTYPE svg PUBLIC "-//W3C//DTD SVG 1.1//EN"
 "http://www.w3.org/Graphics/SVG/1.1/DTD/svg11.dtd">
<!-- Generated by graphviz version 2.38.0 (20140413.2041)
 -->
<!-- Title: Control&#45;flow graph for function &#39;function_40f283(result, a2, a3, a4, a5, a6)&#39;. Pages: 1 -->
<svg width="765pt" height="1075pt"
 viewBox="0.00 0.00 764.50 1075.00" xmlns="http://www.w3.org/2000/svg" xmlns:xlink="http://www.w3.org/1999/xlink">
<g id="graph0" class="graph" transform="scale(1 1) rotate(0) translate(4 1071)">
<title>Control&#45;flow graph for function &#39;function_40f283(result, a2, a3, a4, a5, a6)&#39;.</title>
<polygon fill="white" stroke="none" points="-4,4 -4,-1071 760.5,-1071 760.5,4 -4,4"/>
<text text-anchor="middle" x="378.25" y="-7.8" font-family="Times,serif" font-size="14.00">Control&#45;flow graph for function &#39;function_40f283(result, a2, a3, a4, a5, a6)&#39;.</text>
<!-- Node0xcb450430 -->
<g id="node1" class="node"><title>Node0xcb450430</title>
<polygon fill="none" stroke="black" points="254,-953.5 254,-1066.5 317,-1066.5 317,-953.5 254,-953.5"/>
<text text-anchor="start" x="262" y="-1051.3" font-family="Times,serif" font-size="14.00">entry:</text>
<text text-anchor="start" x="262" y="-1036.3" font-family="Times,serif" font-size="14.00"> result</text>
<text text-anchor="start" x="262" y="-1021.3" font-family="Times,serif" font-size="14.00"> a2</text>
<text text-anchor="start" x="262" y="-1006.3" font-family="Times,serif" font-size="14.00"> a3</text>
<text text-anchor="start" x="262" y="-991.3" font-family="Times,serif" font-size="14.00"> a4</text>
<text text-anchor="start" x="262" y="-976.3" font-family="Times,serif" font-size="14.00"> a5</text>
<text text-anchor="start" x="262" y="-961.3" font-family="Times,serif" font-size="14.00"> a6</text>
</g>
<!-- Node0xcb452250 -->
<g id="node2" class="node"><title>Node0xcb452250</title>
<polygon fill="none" stroke="black" points="126,-727.5 126,-915.5 445,-915.5 445,-727.5 126,-727.5"/>
<text text-anchor="start" x="134" y="-900.3" font-family="Times,serif" font-size="14.00">v1 = g3</text>
<text text-anchor="start" x="134" y="-885.3" font-family="Times,serif" font-size="14.00"> g3 = &amp;(v1)</text>
<text text-anchor="start" x="134" y="-870.3" font-family="Times,serif" font-size="14.00"> v2 = g9</text>
<text text-anchor="start" x="134" y="-855.3" font-family="Times,serif" font-size="14.00"> v3 = g5</text>
<text text-anchor="start" x="134" y="-840.3" font-family="Times,serif" font-size="14.00"> g9 = v3</text>
<text text-anchor="start" x="134" y="-825.3" font-family="Times,serif" font-size="14.00"> v4 = *(IntToPtrCastExpr&lt;ptr&gt;((v3 + 4)))</text>
<text text-anchor="start" x="134" y="-810.3" font-family="Times,serif" font-size="14.00"> g2 = v4</text>
<text text-anchor="start" x="134" y="-795.3" font-family="Times,serif" font-size="14.00"> v5 = g7</text>
<text text-anchor="start" x="134" y="-780.3" font-family="Times,serif" font-size="14.00"> g10 = &amp;(v5)</text>
<text text-anchor="start" x="134" y="-765.3" font-family="Times,serif" font-size="14.00"> g7 = 286688</text>
<text text-anchor="start" x="134" y="-750.3" font-family="Times,serif" font-size="14.00"> v6 = v3</text>
<text text-anchor="start" x="134" y="-735.3" font-family="Times,serif" font-size="14.00"> v7</text>
</g>
<!-- Node0xcb450430&#45;&gt;Node0xcb452250 -->
<g id="edge1" class="edge"><title>Node0xcb450430&#45;&gt;Node0xcb452250</title>
<path fill="none" stroke="black" d="M285.5,-953.296C285.5,-944.547 285.5,-935.268 285.5,-925.85"/>
<polygon fill="black" stroke="black" points="289,-925.595 285.5,-915.595 282,-925.595 289,-925.595"/>
</g>
<!-- Node0xcb451ae0 -->
<g id="node3" class="node"><title>Node0xcb451ae0</title>
<polygon fill="none" stroke="black" points="110.5,-653.5 110.5,-689.5 460.5,-689.5 460.5,-653.5 110.5,-653.5"/>
<text text-anchor="start" x="118.5" y="-667.8" font-family="Times,serif" font-size="14.00">if (v4 != *(IntToPtrCastExpr&lt;ptr&gt;((v3 + 8)))):</text>
</g>
<!-- Node0xcb452250&#45;&gt;Node0xcb451ae0 -->
<g id="edge2" class="edge"><title>Node0xcb452250&#45;&gt;Node0xcb451ae0</title>
<path fill="none" stroke="black" d="M285.5,-727.189C285.5,-717.348 285.5,-707.996 285.5,-699.899"/>
<polygon fill="black" stroke="black" points="289,-699.708 285.5,-689.708 282,-699.708 289,-699.708"/>
</g>
<!-- Node0x1e877500 -->
<g id="node4" class="node"><title>Node0x1e877500</title>
<polygon fill="none" stroke="black" points="134,-518.5 134,-601.5 313,-601.5 313,-518.5 134,-518.5"/>
<text text-anchor="start" x="142" y="-586.3" font-family="Times,serif" font-size="14.00">0x40f298:</text>
<text text-anchor="start" x="142" y="-571.3" font-family="Times,serif" font-size="14.00"> v7 = v4</text>
<text text-anchor="start" x="142" y="-556.3" font-family="Times,serif" font-size="14.00"> g10 = &amp;(v7)</text>
<text text-anchor="start" x="142" y="-541.3" font-family="Times,serif" font-size="14.00"> ScaleViewportExtEx()</text>
<text text-anchor="start" x="142" y="-526.3" font-family="Times,serif" font-size="14.00"> v6 = g9</text>
</g>
<!-- Node0xcb451ae0&#45;&gt;Node0x1e877500 -->
<g id="edge3" class="edge"><title>Node0xcb451ae0&#45;&gt;Node0x1e877500</title>
<path fill="none" stroke="black" d="M165.448,-653.469C147.832,-648.643 133.56,-642.573 127.5,-635 119.648,-625.188 120.684,-615.927 126.887,-607.494"/>
<polygon fill="black" stroke="black" points="129.639,-609.676 133.931,-599.99 124.535,-604.886 129.639,-609.676"/>
<text text-anchor="middle" x="279.5" y="-623.8" font-family="Times,serif" font-size="14.00">v4 != *(IntToPtrCastExpr&lt;ptr&gt;((v3 + 8)))</text>
</g>
<!-- Node0xcb452640 -->
<g id="node5" class="node"><title>Node0xcb452640</title>
<polygon fill="none" stroke="black" points="226.5,-412.5 226.5,-480.5 540.5,-480.5 540.5,-412.5 226.5,-412.5"/>
<text text-anchor="start" x="234.5" y="-465.3" font-family="Times,serif" font-size="14.00">v8 = *(IntToPtrCastExpr&lt;ptr&gt;((v6 + 8)))</text>
<text text-anchor="start" x="234.5" y="-450.3" font-family="Times,serif" font-size="14.00"> g9 = v8</text>
<text text-anchor="start" x="234.5" y="-435.3" font-family="Times,serif" font-size="14.00"> g1 = False</text>
<text text-anchor="start" x="234.5" y="-420.3" font-family="Times,serif" font-size="14.00"> g180 = (v8 == 0)</text>
</g>
<!-- Node0xcb451ae0&#45;&gt;Node0xcb452640 -->
<g id="edge4" class="edge"><title>Node0xcb451ae0&#45;&gt;Node0xcb452640</title>
<path fill="none" stroke="black" d="M393.635,-653.489C411.216,-648.589 425.616,-642.486 431.5,-635 464.58,-592.913 437.899,-530.596 413.026,-489.526"/>
<polygon fill="black" stroke="black" points="415.87,-487.473 407.605,-480.845 409.933,-491.181 415.87,-487.473"/>
<text text-anchor="middle" x="601.5" y="-556.3" font-family="Times,serif" font-size="14.00">v4 == *(IntToPtrCastExpr&lt;ptr&gt;((v3 + 8)))</text>
</g>
<!-- Node0x1e877500&#45;&gt;Node0xcb452640 -->
<g id="edge5" class="edge"><title>Node0x1e877500&#45;&gt;Node0xcb452640</title>
<path fill="none" stroke="black" d="M281.716,-518.431C296.655,-508.02 312.69,-496.846 327.513,-486.516"/>
<polygon fill="black" stroke="black" points="329.88,-489.132 336.083,-480.543 325.878,-483.389 329.88,-489.132"/>
</g>
<!-- Node0xcb452320 -->
<g id="node6" class="node"><title>Node0xcb452320</title>
<polygon fill="none" stroke="black" points="334,-338.5 334,-374.5 433,-374.5 433,-338.5 334,-338.5"/>
<text text-anchor="start" x="342" y="-352.8" font-family="Times,serif" font-size="14.00">if (v8 != 0):</text>
</g>
<!-- Node0xcb452640&#45;&gt;Node0xcb452320 -->
<g id="edge6" class="edge"><title>Node0xcb452640&#45;&gt;Node0xcb452320</title>
<path fill="none" stroke="black" d="M383.5,-412.482C383.5,-403.328 383.5,-393.497 383.5,-384.715"/>
<polygon fill="black" stroke="black" points="387,-384.64 383.5,-374.64 380,-384.64 387,-384.64"/>
</g>
<!-- Node0xcb452b40 -->
<g id="node7" class="node"><title>Node0xcb452b40</title>
<polygon fill="none" stroke="black" points="0,-218.5 0,-286.5 407,-286.5 407,-218.5 0,-218.5"/>
<text text-anchor="start" x="8" y="-271.3" font-family="Times,serif" font-size="14.00">0x40f2b1:</text>
<text text-anchor="start" x="8" y="-256.3" font-family="Times,serif" font-size="14.00"> v7 = v8</text>
<text text-anchor="start" x="8" y="-241.3" font-family="Times,serif" font-size="14.00"> g10 = &amp;(v7)</text>
<text text-anchor="start" x="8" y="-226.3" font-family="Times,serif" font-size="14.00"> IntToPtrCastExpr&lt;ptr&gt;(g7)(v8, a2, a3, a4, a5, result)</text>
</g>
<!-- Node0xcb452320&#45;&gt;Node0xcb452b40 -->
<g id="edge7" class="edge"><title>Node0xcb452320&#45;&gt;Node0xcb452b40</title>
<path fill="none" stroke="black" d="M353.372,-338.427C330.788,-325.63 298.999,-307.616 270.506,-291.47"/>
<polygon fill="black" stroke="black" points="272.208,-288.412 261.783,-286.527 268.757,-294.502 272.208,-288.412"/>
<text text-anchor="middle" x="347.5" y="-308.8" font-family="Times,serif" font-size="14.00">v8 != 0</text>
</g>
<!-- Node0xcb452ae0 -->
<g id="node8" class="node"><title>Node0xcb452ae0</title>
<polygon fill="none" stroke="black" points="321,-97.5 321,-180.5 434,-180.5 434,-97.5 321,-97.5"/>
<text text-anchor="start" x="329" y="-165.3" font-family="Times,serif" font-size="14.00">0x40f2c3:</text>
<text text-anchor="start" x="329" y="-150.3" font-family="Times,serif" font-size="14.00"> g7 = v5</text>
<text text-anchor="start" x="329" y="-135.3" font-family="Times,serif" font-size="14.00"> g9 = v2</text>
<text text-anchor="start" x="329" y="-120.3" font-family="Times,serif" font-size="14.00"> g3 = v1</text>
<text text-anchor="start" x="329" y="-105.3" font-family="Times,serif" font-size="14.00"> return result</text>
</g>
<!-- Node0xcb452320&#45;&gt;Node0xcb452ae0 -->
<g id="edge8" class="edge"><title>Node0xcb452320&#45;&gt;Node0xcb452ae0</title>
<path fill="none" stroke="black" d="M394.163,-338.234C401.79,-324.819 411.403,-305.452 415.5,-287 422.148,-257.063 422.392,-247.882 415.5,-218 413.339,-208.631 409.894,-199.086 405.938,-190.033"/>
<polygon fill="black" stroke="black" points="409.044,-188.41 401.665,-180.807 402.692,-191.352 409.044,-188.41"/>
<text text-anchor="middle" x="451.5" y="-248.8" font-family="Times,serif" font-size="14.00">v8 == 0</text>
</g>
<!-- Node0xcb452b40&#45;&gt;Node0xcb452ae0 -->
<g id="edge9" class="edge"><title>Node0xcb452b40&#45;&gt;Node0xcb452ae0</title>
<path fill="none" stroke="black" d="M255.235,-218.348C273.13,-206.881 293.422,-193.877 312.26,-181.806"/>
<polygon fill="black" stroke="black" points="314.267,-184.677 320.799,-176.335 310.491,-178.783 314.267,-184.677"/>
</g>
<!-- Node0xcb4521d0 -->
<g id="node9" class="node"><title>Node0xcb4521d0</title>
<polygon fill="none" stroke="black" points="350.5,-23.5 350.5,-59.5 404.5,-59.5 404.5,-23.5 350.5,-23.5"/>
<text text-anchor="start" x="358.5" y="-37.8" font-family="Times,serif" font-size="14.00">exit:</text>
</g>
<!-- Node0xcb452ae0&#45;&gt;Node0xcb4521d0 -->
<g id="edge10" class="edge"><title>Node0xcb452ae0&#45;&gt;Node0xcb4521d0</title>
<path fill="none" stroke="black" d="M377.5,-97.4994C377.5,-88.2058 377.5,-78.537 377.5,-69.9459"/>
<polygon fill="black" stroke="black" points="381,-69.7494 377.5,-59.7494 374,-69.7494 381,-69.7494"/>
</g>
</g>
</svg>
