<?xml version="1.0" encoding="UTF-8" standalone="no"?>
<!DOCTYPE svg PUBLIC "-//W3C//DTD SVG 1.1//EN"
 "http://www.w3.org/Graphics/SVG/1.1/DTD/svg11.dtd">
<!-- Generated by graphviz version 2.38.0 (20140413.2041)
 -->
<!-- Title: Control&#45;flow graph for function &#39;function_40f48d()&#39;. Pages: 1 -->
<svg width="610pt" height="502pt"
 viewBox="0.00 0.00 610.00 502.00" xmlns="http://www.w3.org/2000/svg" xmlns:xlink="http://www.w3.org/1999/xlink">
<g id="graph0" class="graph" transform="scale(1 1) rotate(0) translate(4 498)">
<title>Control&#45;flow graph for function &#39;function_40f48d()&#39;.</title>
<polygon fill="white" stroke="none" points="-4,4 -4,-498 606,-498 606,4 -4,4"/>
<text text-anchor="middle" x="301" y="-7.8" font-family="Times,serif" font-size="14.00">Control&#45;flow graph for function &#39;function_40f48d()&#39;.</text>
<!-- Node0x28a0efd0 -->
<g id="node1" class="node"><title>Node0x28a0efd0</title>
<polygon fill="none" stroke="black" points="226,-457.5 226,-493.5 285,-493.5 285,-457.5 226,-457.5"/>
<text text-anchor="start" x="234" y="-471.8" font-family="Times,serif" font-size="14.00">entry:</text>
</g>
<!-- Node0x28a0eb90 -->
<g id="node2" class="node"><title>Node0x28a0eb90</title>
<polygon fill="none" stroke="black" points="-2.84217e-14,-321.5 -2.84217e-14,-419.5 511,-419.5 511,-321.5 -2.84217e-14,-321.5"/>
<text text-anchor="start" x="8" y="-404.3" font-family="Times,serif" font-size="14.00">0x40f48d:</text>
<text text-anchor="start" x="8" y="-389.3" font-family="Times,serif" font-size="14.00"> v1</text>
<text text-anchor="start" x="8" y="-374.3" font-family="Times,serif" font-size="14.00"> v2</text>
<text text-anchor="start" x="8" y="-359.3" font-family="Times,serif" font-size="14.00"> result = function_4048b3(IntToPtrCastExpr&lt;ptr&gt;(8), &amp;(v1[&#39;0&#39;]), v2)</text>
<text text-anchor="start" x="8" y="-344.3" font-family="Times,serif" font-size="14.00"> v3 = IntToPtrCastExpr&lt;ptr&gt;(result)</text>
<text text-anchor="start" x="8" y="-329.3" font-family="Times,serif" font-size="14.00"> g5 = PtrToIntCastExpr&lt;int32&gt;(IntToPtrCastExpr&lt;ptr&gt;(8))</text>
</g>
<!-- Node0x28a0efd0&#45;&gt;Node0x28a0eb90 -->
<g id="edge1" class="edge"><title>Node0x28a0efd0&#45;&gt;Node0x28a0eb90</title>
<path fill="none" stroke="black" d="M255.5,-457.492C255.5,-449.692 255.5,-439.94 255.5,-429.829"/>
<polygon fill="black" stroke="black" points="259,-429.659 255.5,-419.659 252,-429.659 259,-429.659"/>
</g>
<!-- Node0x28a0ec80 -->
<g id="node3" class="node"><title>Node0x28a0ec80</title>
<polygon fill="none" stroke="black" points="190.5,-247.5 190.5,-283.5 320.5,-283.5 320.5,-247.5 190.5,-247.5"/>
<text text-anchor="start" x="198.5" y="-261.8" font-family="Times,serif" font-size="14.00">if (result == 0):</text>
</g>
<!-- Node0x28a0eb90&#45;&gt;Node0x28a0ec80 -->
<g id="edge2" class="edge"><title>Node0x28a0eb90&#45;&gt;Node0x28a0ec80</title>
<path fill="none" stroke="black" d="M255.5,-321.317C255.5,-311.893 255.5,-302.32 255.5,-293.868"/>
<polygon fill="black" stroke="black" points="259,-293.856 255.5,-283.856 252,-293.856 259,-293.856"/>
</g>
<!-- Node0x28a0f140 -->
<g id="node4" class="node"><title>Node0x28a0f140</title>
<polygon fill="none" stroke="black" points="60,-112.5 60,-180.5 171,-180.5 171,-112.5 60,-112.5"/>
<text text-anchor="start" x="68" y="-165.3" font-family="Times,serif" font-size="14.00">0x40f4a4:</text>
<text text-anchor="start" x="68" y="-150.3" font-family="Times,serif" font-size="14.00"> g1 = False</text>
<text text-anchor="start" x="68" y="-135.3" font-family="Times,serif" font-size="14.00"> g180 = True</text>
<text text-anchor="start" x="68" y="-120.3" font-family="Times,serif" font-size="14.00"> return 0</text>
</g>
<!-- Node0x28a0ec80&#45;&gt;Node0x28a0f140 -->
<g id="edge3" class="edge"><title>Node0x28a0ec80&#45;&gt;Node0x28a0f140</title>
<path fill="none" stroke="black" d="M235.143,-247.487C216.324,-231.76 187.644,-207.791 163.081,-187.264"/>
<polygon fill="black" stroke="black" points="165.186,-184.462 155.268,-180.735 160.697,-189.833 165.186,-184.462"/>
<text text-anchor="middle" x="253" y="-217.8" font-family="Times,serif" font-size="14.00">result == 0</text>
</g>
<!-- Node0x28a0f3e0 -->
<g id="node5" class="node"><title>Node0x28a0f3e0</title>
<polygon fill="none" stroke="black" points="189,-97.5 189,-195.5 602,-195.5 602,-97.5 189,-97.5"/>
<text text-anchor="start" x="197" y="-180.3" font-family="Times,serif" font-size="14.00">0x40f499:</text>
<text text-anchor="start" x="197" y="-165.3" font-family="Times,serif" font-size="14.00"> v3[&#39;0&#39;] = PtrToIntCastExpr&lt;int32&gt;(&amp;(vtable_43a09c))</text>
<text text-anchor="start" x="197" y="-150.3" font-family="Times,serif" font-size="14.00"> g1 = False</text>
<text text-anchor="start" x="197" y="-135.3" font-family="Times,serif" font-size="14.00"> g180 = True</text>
<text text-anchor="start" x="197" y="-120.3" font-family="Times,serif" font-size="14.00"> v3[&#39;1&#39;] = 0</text>
<text text-anchor="start" x="197" y="-105.3" font-family="Times,serif" font-size="14.00"> return result</text>
</g>
<!-- Node0x28a0ec80&#45;&gt;Node0x28a0f3e0 -->
<g id="edge4" class="edge"><title>Node0x28a0ec80&#45;&gt;Node0x28a0f3e0</title>
<path fill="none" stroke="black" d="M277.072,-247.273C284.239,-241.502 292.241,-235.008 299.5,-229 309.936,-220.363 320.943,-211.132 331.635,-202.101"/>
<polygon fill="black" stroke="black" points="333.978,-204.704 339.352,-195.572 329.457,-199.36 333.978,-204.704"/>
<text text-anchor="middle" x="354" y="-217.8" font-family="Times,serif" font-size="14.00">result != 0</text>
</g>
<!-- Node0x28a0e170 -->
<g id="node6" class="node"><title>Node0x28a0e170</title>
<polygon fill="none" stroke="black" points="259.5,-23.5 259.5,-59.5 313.5,-59.5 313.5,-23.5 259.5,-23.5"/>
<text text-anchor="start" x="267.5" y="-37.8" font-family="Times,serif" font-size="14.00">exit:</text>
</g>
<!-- Node0x28a0f140&#45;&gt;Node0x28a0e170 -->
<g id="edge5" class="edge"><title>Node0x28a0f140&#45;&gt;Node0x28a0e170</title>
<path fill="none" stroke="black" d="M157.09,-112.318C164.402,-106.969 172.058,-101.664 179.5,-97 202.172,-82.7923 229.005,-69.1322 250.129,-59.0416"/>
<polygon fill="black" stroke="black" points="251.847,-62.1008 259.397,-54.6674 248.859,-55.7704 251.847,-62.1008"/>
</g>
<!-- Node0x28a0f3e0&#45;&gt;Node0x28a0e170 -->
<g id="edge6" class="edge"><title>Node0x28a0f3e0&#45;&gt;Node0x28a0e170</title>
<path fill="none" stroke="black" d="M344.511,-97.3173C333.231,-86.6585 321.75,-75.8095 312.011,-66.6066"/>
<polygon fill="black" stroke="black" points="314.283,-63.9383 304.611,-59.614 309.475,-69.0262 314.283,-63.9383"/>
</g>
</g>
</svg>
