<?xml version="1.0" encoding="UTF-8" standalone="no"?>
<!DOCTYPE svg PUBLIC "-//W3C//DTD SVG 1.1//EN"
 "http://www.w3.org/Graphics/SVG/1.1/DTD/svg11.dtd">
<!-- Generated by graphviz version 2.38.0 (20140413.2041)
 -->
<!-- Title: Control&#45;flow graph for function &#39;function_4375d1(*a1, *a2)&#39;. Pages: 1 -->
<svg width="454pt" height="353pt"
 viewBox="0.00 0.00 454.00 353.00" xmlns="http://www.w3.org/2000/svg" xmlns:xlink="http://www.w3.org/1999/xlink">
<g id="graph0" class="graph" transform="scale(1 1) rotate(0) translate(4 349)">
<title>Control&#45;flow graph for function &#39;function_4375d1(*a1, *a2)&#39;.</title>
<polygon fill="white" stroke="none" points="-4,4 -4,-349 450,-349 450,4 -4,4"/>
<text text-anchor="middle" x="223" y="-7.8" font-family="Times,serif" font-size="14.00">Control&#45;flow graph for function &#39;function_4375d1(*a1, *a2)&#39;.</text>
<!-- Node0x2ee051c0 -->
<g id="node1" class="node"><title>Node0x2ee051c0</title>
<polygon fill="none" stroke="black" points="193.5,-291.5 193.5,-344.5 252.5,-344.5 252.5,-291.5 193.5,-291.5"/>
<text text-anchor="start" x="201.5" y="-329.3" font-family="Times,serif" font-size="14.00">entry:</text>
<text text-anchor="start" x="201.5" y="-314.3" font-family="Times,serif" font-size="14.00"> a1</text>
<text text-anchor="start" x="201.5" y="-299.3" font-family="Times,serif" font-size="14.00"> a2</text>
</g>
<!-- Node0x2ee0ff80 -->
<g id="node2" class="node"><title>Node0x2ee0ff80</title>
<polygon fill="none" stroke="black" points="12,-96.5 12,-254.5 434,-254.5 434,-96.5 12,-96.5"/>
<text text-anchor="start" x="20" y="-239.3" font-family="Times,serif" font-size="14.00">v1 = PtrToIntCastExpr&lt;int32&gt;(a2)</text>
<text text-anchor="start" x="20" y="-224.3" font-family="Times,serif" font-size="14.00"> v2 = (v1 + 12)</text>
<text text-anchor="start" x="20" y="-209.3" font-family="Times,serif" font-size="14.00"> g2 = v2</text>
<text text-anchor="start" x="20" y="-194.3" font-family="Times,serif" font-size="14.00"> g5 = (*(IntToPtrCastExpr&lt;ptr&gt;((v1 &#45; 44))) ^ v2)</text>
<text text-anchor="start" x="20" y="-179.3" font-family="Times,serif" font-size="14.00"> v3</text>
<text text-anchor="start" x="20" y="-164.3" font-family="Times,serif" font-size="14.00"> function_4201ce(v3)</text>
<text text-anchor="start" x="20" y="-149.3" font-family="Times,serif" font-size="14.00"> g5 = (g2 ^ *(IntToPtrCastExpr&lt;ptr&gt;((v1 + 128))))</text>
<text text-anchor="start" x="20" y="-134.3" font-family="Times,serif" font-size="14.00"> function_4201ce(v3)</text>
<text text-anchor="start" x="20" y="-119.3" font-family="Times,serif" font-size="14.00"> function_423583(v3, ExtCastExpr&lt;int32&gt;(*(a1)), a2, 0)</text>
<text text-anchor="start" x="20" y="-104.3" font-family="Times,serif" font-size="14.00"> return IntToPtrCastExpr&lt;ptr&gt;(4468632)</text>
</g>
<!-- Node0x2ee051c0&#45;&gt;Node0x2ee0ff80 -->
<g id="edge1" class="edge"><title>Node0x2ee051c0&#45;&gt;Node0x2ee0ff80</title>
<path fill="none" stroke="black" d="M223,-291.23C223,-283.41 223,-274.341 223,-264.795"/>
<polygon fill="black" stroke="black" points="226.5,-264.707 223,-254.707 219.5,-264.707 226.5,-264.707"/>
</g>
<!-- Node0x9f376260 -->
<g id="node3" class="node"><title>Node0x9f376260</title>
<polygon fill="none" stroke="black" points="196,-23.5 196,-59.5 250,-59.5 250,-23.5 196,-23.5"/>
<text text-anchor="start" x="204" y="-37.8" font-family="Times,serif" font-size="14.00">exit:</text>
</g>
<!-- Node0x2ee0ff80&#45;&gt;Node0x9f376260 -->
<g id="edge2" class="edge"><title>Node0x2ee0ff80&#45;&gt;Node0x9f376260</title>
<path fill="none" stroke="black" d="M223,-96.1895C223,-86.7241 223,-77.609 223,-69.6605"/>
<polygon fill="black" stroke="black" points="226.5,-69.6213 223,-59.6214 219.5,-69.6214 226.5,-69.6213"/>
</g>
</g>
</svg>
