<?xml version="1.0" encoding="UTF-8" standalone="no"?>
<!DOCTYPE svg PUBLIC "-//W3C//DTD SVG 1.1//EN"
 "http://www.w3.org/Graphics/SVG/1.1/DTD/svg11.dtd">
<!-- Generated by graphviz version 2.38.0 (20140413.2041)
 -->
<!-- Title: Control&#45;flow graph for function &#39;function_41ca5b()&#39;. Pages: 1 -->
<svg width="1877pt" height="1559pt"
 viewBox="0.00 0.00 1877.00 1559.00" xmlns="http://www.w3.org/2000/svg" xmlns:xlink="http://www.w3.org/1999/xlink">
<g id="graph0" class="graph" transform="scale(1 1) rotate(0) translate(4 1555)">
<title>Control&#45;flow graph for function &#39;function_41ca5b()&#39;.</title>
<polygon fill="white" stroke="none" points="-4,4 -4,-1555 1873,-1555 1873,4 -4,4"/>
<text text-anchor="middle" x="934.5" y="-7.8" font-family="Times,serif" font-size="14.00">Control&#45;flow graph for function &#39;function_41ca5b()&#39;.</text>
<!-- Node0x2ccadeb0 -->
<g id="node1" class="node"><title>Node0x2ccadeb0</title>
<polygon fill="none" stroke="black" points="551,-1514.5 551,-1550.5 610,-1550.5 610,-1514.5 551,-1514.5"/>
<text text-anchor="start" x="559" y="-1528.8" font-family="Times,serif" font-size="14.00">entry:</text>
</g>
<!-- Node0x2ccaae40 -->
<g id="node2" class="node"><title>Node0x2ccaae40</title>
<polygon fill="none" stroke="black" points="61.5,-1108.5 61.5,-1476.5 1099.5,-1476.5 1099.5,-1108.5 61.5,-1108.5"/>
<text text-anchor="start" x="69.5" y="-1461.3" font-family="Times,serif" font-size="14.00">g2 = 4421930</text>
<text text-anchor="start" x="69.5" y="-1446.3" font-family="Times,serif" font-size="14.00"> __EH_prolog3()</text>
<text text-anchor="start" x="69.5" y="-1431.3" font-family="Times,serif" font-size="14.00"> g9 = function_41022a()</text>
<text text-anchor="start" x="69.5" y="-1416.3" font-family="Times,serif" font-size="14.00"> v1</text>
<text text-anchor="start" x="69.5" y="-1401.3" font-family="Times,serif" font-size="14.00"> function_410939(IntToPtrCastExpr&lt;ptr&gt;(1), v1)</text>
<text text-anchor="start" x="69.5" y="-1386.3" font-family="Times,serif" font-size="14.00"> v2 = g3</text>
<text text-anchor="start" x="69.5" y="-1371.3" font-family="Times,serif" font-size="14.00"> v3 = (v2 &#45; 20)</text>
<text text-anchor="start" x="69.5" y="-1356.3" font-family="Times,serif" font-size="14.00"> v4 = IntToPtrCastExpr&lt;ptr&gt;(v3)</text>
<text text-anchor="start" x="69.5" y="-1341.3" font-family="Times,serif" font-size="14.00"> v5 = (g9 + 52)</text>
<text text-anchor="start" x="69.5" y="-1326.3" font-family="Times,serif" font-size="14.00"> g7 = v5</text>
<text text-anchor="start" x="69.5" y="-1311.3" font-family="Times,serif" font-size="14.00"> g9 = 4438780</text>
<text text-anchor="start" x="69.5" y="-1296.3" font-family="Times,serif" font-size="14.00"> v6 = (v2 &#45; 16)</text>
<text text-anchor="start" x="69.5" y="-1281.3" font-family="Times,serif" font-size="14.00"> g2 = v6</text>
<text text-anchor="start" x="69.5" y="-1266.3" font-family="Times,serif" font-size="14.00"> g4 = 0</text>
<text text-anchor="start" x="69.5" y="-1251.3" font-family="Times,serif" font-size="14.00"> v7 = IntToPtrCastExpr&lt;ptr&gt;(v6)</text>
<text text-anchor="start" x="69.5" y="-1236.3" font-family="Times,serif" font-size="14.00"> g5 = v5</text>
<text text-anchor="start" x="69.5" y="-1221.3" font-family="Times,serif" font-size="14.00"> *(v4) = 0</text>
<text text-anchor="start" x="69.5" y="-1206.3" font-family="Times,serif" font-size="14.00"> function_4119dd(BitCastExpr&lt;ptr&gt;(v7), &quot;\n&quot;, IntToPtrCastExpr&lt;ptr&gt;(v3), IntToPtrCastExpr&lt;ptr&gt;(1), BitCastExpr&lt;ptr&gt;(v1), NULL, NULL)</text>
<text text-anchor="start" x="69.5" y="-1191.3" font-family="Times,serif" font-size="14.00"> *(IntToPtrCastExpr&lt;ptr&gt;((g3 &#45; 4))) = g4</text>
<text text-anchor="start" x="69.5" y="-1176.3" font-family="Times,serif" font-size="14.00"> v8</text>
<text text-anchor="start" x="69.5" y="-1161.3" font-family="Times,serif" font-size="14.00"> v9 = PtrToIntCastExpr&lt;int32&gt;(&amp;(v8))</text>
<text text-anchor="start" x="69.5" y="-1146.3" font-family="Times,serif" font-size="14.00"> v10 = *(IntToPtrCastExpr&lt;ptr&gt;((g3 &#45; 16)))</text>
<text text-anchor="start" x="69.5" y="-1131.3" font-family="Times,serif" font-size="14.00"> g2 = v10</text>
<text text-anchor="start" x="69.5" y="-1116.3" font-family="Times,serif" font-size="14.00"> v11</text>
</g>
<!-- Node0x2ccadeb0&#45;&gt;Node0x2ccaae40 -->
<g id="edge1" class="edge"><title>Node0x2ccadeb0&#45;&gt;Node0x2ccaae40</title>
<path fill="none" stroke="black" d="M580.5,-1514.38C580.5,-1507 580.5,-1497.57 580.5,-1486.78"/>
<polygon fill="black" stroke="black" points="584,-1486.51 580.5,-1476.51 577,-1486.51 584,-1486.51"/>
</g>
<!-- Node0x2ccaade0 -->
<g id="node3" class="node"><title>Node0x2ccaade0</title>
<polygon fill="none" stroke="black" points="397,-1034.5 397,-1070.5 764,-1070.5 764,-1034.5 397,-1034.5"/>
<text text-anchor="start" x="405" y="-1048.8" font-family="Times,serif" font-size="14.00">if (*(IntToPtrCastExpr&lt;ptr&gt;((v10 &#45; 12))) == g4):</text>
</g>
<!-- Node0x2ccaae40&#45;&gt;Node0x2ccaade0 -->
<g id="edge2" class="edge"><title>Node0x2ccaae40&#45;&gt;Node0x2ccaade0</title>
<path fill="none" stroke="black" d="M580.5,-1108.4C580.5,-1098.27 580.5,-1089.02 580.5,-1081.12"/>
<polygon fill="black" stroke="black" points="584,-1080.9 580.5,-1070.9 577,-1080.9 584,-1080.9"/>
</g>
<!-- Node0x2ccae9a0 -->
<g id="node4" class="node"><title>Node0x2ccae9a0</title>
<polygon fill="none" stroke="black" points="0,-527.5 0,-655.5 563,-655.5 563,-527.5 0,-527.5"/>
<text text-anchor="start" x="8" y="-640.3" font-family="Times,serif" font-size="14.00">0x41cadb:</text>
<text text-anchor="start" x="8" y="-625.3" font-family="Times,serif" font-size="14.00"> g5 = g7</text>
<text text-anchor="start" x="8" y="-610.3" font-family="Times,serif" font-size="14.00"> function_403720(v8)</text>
<text text-anchor="start" x="8" y="-595.3" font-family="Times,serif" font-size="14.00"> function_4109a6(IntToPtrCastExpr&lt;ptr&gt;(1))</text>
<text text-anchor="start" x="8" y="-580.3" font-family="Times,serif" font-size="14.00"> g5 = (*(IntToPtrCastExpr&lt;ptr&gt;((g3 &#45; 16))) &#45; 16)</text>
<text text-anchor="start" x="8" y="-565.3" font-family="Times,serif" font-size="14.00"> v11 = function_401380(IntToPtrCastExpr&lt;ptr&gt;(1), BitCastExpr&lt;ptr&gt;(v7))</text>
<text text-anchor="start" x="8" y="-550.3" font-family="Times,serif" font-size="14.00"> __EH_epilog3()</text>
<text text-anchor="start" x="8" y="-535.3" font-family="Times,serif" font-size="14.00"> return ((PtrToIntCastExpr&lt;int32&gt;(v11) &amp; 1) != 0)</text>
</g>
<!-- Node0x2ccaade0&#45;&gt;Node0x2ccae9a0 -->
<g id="edge3" class="edge"><title>Node0x2ccaade0&#45;&gt;Node0x2ccae9a0</title>
<path fill="none" stroke="black" d="M406.936,-1034.41C387.825,-1029.69 372.411,-1023.67 364.5,-1016 270.444,-924.782 266.159,-760.563 272.887,-665.647"/>
<polygon fill="black" stroke="black" points="276.386,-665.793 273.663,-655.554 269.407,-665.257 276.386,-665.793"/>
<text text-anchor="middle" x="525.5" y="-1004.8" font-family="Times,serif" font-size="14.00">*(IntToPtrCastExpr&lt;ptr&gt;((v10 &#45; 12))) == g4</text>
</g>
<!-- Node0x2ccaeb60 -->
<g id="node5" class="node"><title>Node0x2ccaeb60</title>
<polygon fill="none" stroke="black" points="557.5,-674.5 557.5,-982.5 1545.5,-982.5 1545.5,-674.5 557.5,-674.5"/>
<text text-anchor="start" x="565.5" y="-967.3" font-family="Times,serif" font-size="14.00">hInstance = *(IntToPtrCastExpr&lt;ptr&gt;((function_41022a() + 8)))</text>
<text text-anchor="start" x="565.5" y="-952.3" font-family="Times,serif" font-size="14.00"> UnregisterClassA(IntToPtrCastExpr&lt;ptr&gt;(*(IntToPtrCastExpr&lt;ptr&gt;((g3 &#45; 16)))), IntToPtrCastExpr&lt;ptr&gt;(hInstance))</text>
<text text-anchor="start" x="565.5" y="-937.3" font-family="Times,serif" font-size="14.00"> v12 = g3</text>
<text text-anchor="start" x="565.5" y="-922.3" font-family="Times,serif" font-size="14.00"> v13 = (v12 &#45; 24)</text>
<text text-anchor="start" x="565.5" y="-907.3" font-family="Times,serif" font-size="14.00"> g2 = v13</text>
<text text-anchor="start" x="565.5" y="-892.3" font-family="Times,serif" font-size="14.00"> v14 = IntToPtrCastExpr&lt;ptr&gt;(v13)</text>
<text text-anchor="start" x="565.5" y="-877.3" font-family="Times,serif" font-size="14.00"> v15 = v14</text>
<text text-anchor="start" x="565.5" y="-862.3" font-family="Times,serif" font-size="14.00"> g5 = g7</text>
<text text-anchor="start" x="565.5" y="-847.3" font-family="Times,serif" font-size="14.00"> v8 = IntToPtrCastExpr&lt;ptr&gt;(function_4119dd(v14, &quot;\n&quot;, IntToPtrCastExpr&lt;ptr&gt;((v12 &#45; 20)), v7, &quot;\n&quot;, v4, IntToPtrCastExpr&lt;ptr&gt;(1)))</text>
<text text-anchor="start" x="565.5" y="-832.3" font-family="Times,serif" font-size="14.00"> g10 = v9</text>
<text text-anchor="start" x="565.5" y="-817.3" font-family="Times,serif" font-size="14.00"> v16 = g3</text>
<text text-anchor="start" x="565.5" y="-802.3" font-family="Times,serif" font-size="14.00"> g5 = (v16 &#45; 16)</text>
<text text-anchor="start" x="565.5" y="-787.3" font-family="Times,serif" font-size="14.00"> *(IntToPtrCastExpr&lt;ptr&gt;((v16 &#45; 4))) = 1</text>
<text text-anchor="start" x="565.5" y="-772.3" font-family="Times,serif" font-size="14.00"> function_403610(v8, BitCastExpr&lt;ptr&gt;(v15), BitCastExpr&lt;ptr&gt;(&quot;\n&quot;))</text>
<text text-anchor="start" x="565.5" y="-757.3" font-family="Times,serif" font-size="14.00"> v17 = g3</text>
<text text-anchor="start" x="565.5" y="-742.3" font-family="Times,serif" font-size="14.00"> g5 = (*(IntToPtrCastExpr&lt;ptr&gt;((v17 &#45; 24))) &#45; 16)</text>
<text text-anchor="start" x="565.5" y="-727.3" font-family="Times,serif" font-size="14.00"> *(IntToPtrCastExpr&lt;ptr&gt;((v17 &#45; 4))) = TruncCastExpr&lt;int8&gt;(g4)</text>
<text text-anchor="start" x="565.5" y="-712.3" font-family="Times,serif" font-size="14.00"> function_401380(BitCastExpr&lt;ptr&gt;(v8), BitCastExpr&lt;ptr&gt;(v15))</text>
<text text-anchor="start" x="565.5" y="-697.3" font-family="Times,serif" font-size="14.00"> v18 = *(IntToPtrCastExpr&lt;ptr&gt;((g3 &#45; 16)))</text>
<text text-anchor="start" x="565.5" y="-682.3" font-family="Times,serif" font-size="14.00"> g2 = v18</text>
</g>
<!-- Node0x2ccaade0&#45;&gt;Node0x2ccaeb60 -->
<g id="edge4" class="edge"><title>Node0x2ccaade0&#45;&gt;Node0x2ccaeb60</title>
<path fill="none" stroke="black" d="M639.379,-1034.47C656.105,-1029.1 674.197,-1022.79 690.5,-1016 712.107,-1007 734.178,-997.207 756.228,-986.968"/>
<polygon fill="black" stroke="black" points="757.761,-990.115 765.34,-982.712 754.798,-983.773 757.761,-990.115"/>
<text text-anchor="middle" x="879.5" y="-1004.8" font-family="Times,serif" font-size="14.00">*(IntToPtrCastExpr&lt;ptr&gt;((v10 &#45; 12))) != g4</text>
</g>
<!-- Node0x8d725c90 -->
<g id="node6" class="node"><title>Node0x8d725c90</title>
<polygon fill="none" stroke="black" points="579.5,-23.5 579.5,-59.5 633.5,-59.5 633.5,-23.5 579.5,-23.5"/>
<text text-anchor="start" x="587.5" y="-37.8" font-family="Times,serif" font-size="14.00">exit:</text>
</g>
<!-- Node0x2ccae9a0&#45;&gt;Node0x8d725c90 -->
<g id="edge5" class="edge"><title>Node0x2ccae9a0&#45;&gt;Node0x8d725c90</title>
<path fill="none" stroke="black" d="M259.871,-527.117C228.991,-423.667 186.713,-217.963 290.5,-97 326.161,-55.4367 493.655,-45.5689 569.28,-43.2276"/>
<polygon fill="black" stroke="black" points="569.421,-46.7251 579.319,-42.9447 569.224,-39.7279 569.421,-46.7251"/>
</g>
<!-- Node0x2ccaeeb0 -->
<g id="node7" class="node"><title>Node0x2ccaeeb0</title>
<polygon fill="none" stroke="black" points="883,-472.5 883,-508.5 1272,-508.5 1272,-472.5 883,-472.5"/>
<text text-anchor="start" x="891" y="-486.8" font-family="Times,serif" font-size="14.00">while (*(IntToPtrCastExpr&lt;ptr&gt;((v18 &#45; 12))) != g4):</text>
</g>
<!-- Node0x2ccaeb60&#45;&gt;Node0x2ccaeeb0 -->
<g id="edge6" class="edge"><title>Node0x2ccaeb60&#45;&gt;Node0x2ccaeeb0</title>
<path fill="none" stroke="black" d="M1063.36,-674.249C1067.95,-614.901 1072.73,-553.08 1075.39,-518.717"/>
<polygon fill="black" stroke="black" points="1078.9,-518.803 1076.18,-508.563 1071.92,-518.263 1078.9,-518.803"/>
</g>
<!-- Node0x2ccaf410 -->
<g id="node8" class="node"><title>Node0x2ccaf410</title>
<polygon fill="none" stroke="black" points="299.5,-97.5 299.5,-420.5 1287.5,-420.5 1287.5,-97.5 299.5,-97.5"/>
<text text-anchor="start" x="307.5" y="-405.3" font-family="Times,serif" font-size="14.00">0x41ca97:</text>
<text text-anchor="start" x="307.5" y="-390.3" font-family="Times,serif" font-size="14.00"> hInstance = *(IntToPtrCastExpr&lt;ptr&gt;((function_41022a() + 8)))</text>
<text text-anchor="start" x="307.5" y="-375.3" font-family="Times,serif" font-size="14.00"> UnregisterClassA(IntToPtrCastExpr&lt;ptr&gt;(*(IntToPtrCastExpr&lt;ptr&gt;((g3 &#45; 16)))), IntToPtrCastExpr&lt;ptr&gt;(hInstance))</text>
<text text-anchor="start" x="307.5" y="-360.3" font-family="Times,serif" font-size="14.00"> v12 = g3</text>
<text text-anchor="start" x="307.5" y="-345.3" font-family="Times,serif" font-size="14.00"> v13 = (v12 &#45; 24)</text>
<text text-anchor="start" x="307.5" y="-330.3" font-family="Times,serif" font-size="14.00"> g2 = v13</text>
<text text-anchor="start" x="307.5" y="-315.3" font-family="Times,serif" font-size="14.00"> v14 = IntToPtrCastExpr&lt;ptr&gt;(v13)</text>
<text text-anchor="start" x="307.5" y="-300.3" font-family="Times,serif" font-size="14.00"> v15 = v14</text>
<text text-anchor="start" x="307.5" y="-285.3" font-family="Times,serif" font-size="14.00"> g5 = g7</text>
<text text-anchor="start" x="307.5" y="-270.3" font-family="Times,serif" font-size="14.00"> v8 = IntToPtrCastExpr&lt;ptr&gt;(function_4119dd(v14, &quot;\n&quot;, IntToPtrCastExpr&lt;ptr&gt;((v12 &#45; 20)), v7, &quot;\n&quot;, v4, IntToPtrCastExpr&lt;ptr&gt;(1)))</text>
<text text-anchor="start" x="307.5" y="-255.3" font-family="Times,serif" font-size="14.00"> g10 = v9</text>
<text text-anchor="start" x="307.5" y="-240.3" font-family="Times,serif" font-size="14.00"> v16 = g3</text>
<text text-anchor="start" x="307.5" y="-225.3" font-family="Times,serif" font-size="14.00"> g5 = (v16 &#45; 16)</text>
<text text-anchor="start" x="307.5" y="-210.3" font-family="Times,serif" font-size="14.00"> *(IntToPtrCastExpr&lt;ptr&gt;((v16 &#45; 4))) = 1</text>
<text text-anchor="start" x="307.5" y="-195.3" font-family="Times,serif" font-size="14.00"> function_403610(v8, BitCastExpr&lt;ptr&gt;(v15), BitCastExpr&lt;ptr&gt;(&quot;\n&quot;))</text>
<text text-anchor="start" x="307.5" y="-180.3" font-family="Times,serif" font-size="14.00"> v17 = g3</text>
<text text-anchor="start" x="307.5" y="-165.3" font-family="Times,serif" font-size="14.00"> g5 = (*(IntToPtrCastExpr&lt;ptr&gt;((v17 &#45; 24))) &#45; 16)</text>
<text text-anchor="start" x="307.5" y="-150.3" font-family="Times,serif" font-size="14.00"> *(IntToPtrCastExpr&lt;ptr&gt;((v17 &#45; 4))) = TruncCastExpr&lt;int8&gt;(g4)</text>
<text text-anchor="start" x="307.5" y="-135.3" font-family="Times,serif" font-size="14.00"> function_401380(BitCastExpr&lt;ptr&gt;(v8), BitCastExpr&lt;ptr&gt;(v15))</text>
<text text-anchor="start" x="307.5" y="-120.3" font-family="Times,serif" font-size="14.00"> v18 = *(IntToPtrCastExpr&lt;ptr&gt;((g3 &#45; 16)))</text>
<text text-anchor="start" x="307.5" y="-105.3" font-family="Times,serif" font-size="14.00"> g2 = v18</text>
</g>
<!-- Node0x2ccaeeb0&#45;&gt;Node0x2ccaf410 -->
<g id="edge7" class="edge"><title>Node0x2ccaeeb0&#45;&gt;Node0x2ccaf410</title>
<path fill="none" stroke="black" d="M882.745,-475.136C835.481,-469.704 796.183,-462.684 788.5,-454 782.106,-446.773 777.206,-438.734 773.544,-430.157"/>
<polygon fill="black" stroke="black" points="776.784,-428.826 770.046,-420.651 770.215,-431.244 776.784,-428.826"/>
<text text-anchor="middle" x="946.5" y="-442.8" font-family="Times,serif" font-size="14.00">*(IntToPtrCastExpr&lt;ptr&gt;((v18 &#45; 12))) != g4</text>
</g>
<!-- Node0x2ccaf320 -->
<g id="node9" class="node"><title>Node0x2ccaf320</title>
<polygon fill="none" stroke="black" points="1306,-195 1306,-323 1869,-323 1869,-195 1306,-195"/>
<text text-anchor="start" x="1314" y="-307.8" font-family="Times,serif" font-size="14.00">0x41cadb:</text>
<text text-anchor="start" x="1314" y="-292.8" font-family="Times,serif" font-size="14.00"> g5 = g7</text>
<text text-anchor="start" x="1314" y="-277.8" font-family="Times,serif" font-size="14.00"> function_403720(v8)</text>
<text text-anchor="start" x="1314" y="-262.8" font-family="Times,serif" font-size="14.00"> function_4109a6(IntToPtrCastExpr&lt;ptr&gt;(1))</text>
<text text-anchor="start" x="1314" y="-247.8" font-family="Times,serif" font-size="14.00"> g5 = (*(IntToPtrCastExpr&lt;ptr&gt;((g3 &#45; 16))) &#45; 16)</text>
<text text-anchor="start" x="1314" y="-232.8" font-family="Times,serif" font-size="14.00"> v11 = function_401380(IntToPtrCastExpr&lt;ptr&gt;(1), BitCastExpr&lt;ptr&gt;(v7))</text>
<text text-anchor="start" x="1314" y="-217.8" font-family="Times,serif" font-size="14.00"> __EH_epilog3()</text>
<text text-anchor="start" x="1314" y="-202.8" font-family="Times,serif" font-size="14.00"> return ((PtrToIntCastExpr&lt;int32&gt;(v11) &amp; 1) != 0)</text>
</g>
<!-- Node0x2ccaeeb0&#45;&gt;Node0x2ccaf320 -->
<g id="edge8" class="edge"><title>Node0x2ccaeeb0&#45;&gt;Node0x2ccaf320</title>
<path fill="none" stroke="black" d="M1144.4,-472.369C1188.43,-460.178 1246.87,-442.232 1296.5,-421 1357.97,-394.701 1423.38,-359.251 1476.58,-328.309"/>
<polygon fill="black" stroke="black" points="1478.48,-331.253 1485.34,-323.186 1474.94,-325.209 1478.48,-331.253"/>
<text text-anchor="middle" x="1410.5" y="-442.8" font-family="Times,serif" font-size="14.00">*(IntToPtrCastExpr&lt;ptr&gt;((v18 &#45; 12))) == g4</text>
</g>
<!-- Node0x2ccaf410&#45;&gt;Node0x2ccaeeb0 -->
<g id="edge9" class="edge"><title>Node0x2ccaf410&#45;&gt;Node0x2ccaeeb0</title>
<path fill="none" stroke="black" d="M1092.59,-420.598C1096.85,-426.531 1100.84,-432.663 1104.5,-439 1109.1,-446.964 1106.85,-455.768 1102.1,-463.765"/>
<polygon fill="black" stroke="black" points="1099.15,-461.88 1096.17,-472.048 1104.84,-465.956 1099.15,-461.88"/>
</g>
<!-- Node0x2ccaf320&#45;&gt;Node0x8d725c90 -->
<g id="edge10" class="edge"><title>Node0x2ccaf320&#45;&gt;Node0x8d725c90</title>
<path fill="none" stroke="black" d="M1497.33,-194.89C1442.01,-159.635 1368.24,-118.572 1296.5,-97 1172.66,-59.7643 769.342,-46.6169 644.01,-43.3734"/>
<polygon fill="black" stroke="black" points="643.859,-39.8686 633.773,-43.1147 643.682,-46.8664 643.859,-39.8686"/>
</g>
</g>
</svg>
