<?xml version="1.0" encoding="UTF-8" standalone="no"?>
<!DOCTYPE svg PUBLIC "-//W3C//DTD SVG 1.1//EN"
 "http://www.w3.org/Graphics/SVG/1.1/DTD/svg11.dtd">
<!-- Generated by graphviz version 2.38.0 (20140413.2041)
 -->
<!-- Title: Control&#45;flow graph for function &#39;function_4142d8(*a1)&#39;. Pages: 1 -->
<svg width="694pt" height="702pt"
 viewBox="0.00 0.00 693.50 702.00" xmlns="http://www.w3.org/2000/svg" xmlns:xlink="http://www.w3.org/1999/xlink">
<g id="graph0" class="graph" transform="scale(1 1) rotate(0) translate(4 698)">
<title>Control&#45;flow graph for function &#39;function_4142d8(*a1)&#39;.</title>
<polygon fill="white" stroke="none" points="-4,4 -4,-698 689.5,-698 689.5,4 -4,4"/>
<text text-anchor="middle" x="342.75" y="-7.8" font-family="Times,serif" font-size="14.00">Control&#45;flow graph for function &#39;function_4142d8(*a1)&#39;.</text>
<!-- Node0x11192620 -->
<g id="node1" class="node"><title>Node0x11192620</title>
<polygon fill="none" stroke="black" points="266,-655.5 266,-693.5 325,-693.5 325,-655.5 266,-655.5"/>
<text text-anchor="start" x="274" y="-678.3" font-family="Times,serif" font-size="14.00">entry:</text>
<text text-anchor="start" x="274" y="-663.3" font-family="Times,serif" font-size="14.00"> a1</text>
</g>
<!-- Node0x2ca46960 -->
<g id="node2" class="node"><title>Node0x2ca46960</title>
<polygon fill="none" stroke="black" points="50,-384.5 50,-617.5 541,-617.5 541,-384.5 50,-384.5"/>
<text text-anchor="start" x="58" y="-602.3" font-family="Times,serif" font-size="14.00">0x4142d8:</text>
<text text-anchor="start" x="58" y="-587.3" font-family="Times,serif" font-size="14.00"> g2 = 4420507</text>
<text text-anchor="start" x="58" y="-572.3" font-family="Times,serif" font-size="14.00"> __EH_prolog3_catch()</text>
<text text-anchor="start" x="58" y="-557.3" font-family="Times,serif" font-size="14.00"> v1 = g5</text>
<text text-anchor="start" x="58" y="-542.3" font-family="Times,serif" font-size="14.00"> g9 = v1</text>
<text text-anchor="start" x="58" y="-527.3" font-family="Times,serif" font-size="14.00"> *(IntToPtrCastExpr&lt;ptr&gt;((g3 &#45; 20))) = v1</text>
<text text-anchor="start" x="58" y="-512.3" font-family="Times,serif" font-size="14.00"> *(IntToPtrCastExpr&lt;ptr&gt;(g9)) = 0</text>
<text text-anchor="start" x="58" y="-497.3" font-family="Times,serif" font-size="14.00"> *(IntToPtrCastExpr&lt;ptr&gt;((g3 &#45; 4))) = 0</text>
<text text-anchor="start" x="58" y="-482.3" font-family="Times,serif" font-size="14.00"> g8 = (*(IntToPtrCastExpr&lt;ptr&gt;((g3 + 8))) / 536870913)</text>
<text text-anchor="start" x="58" y="-467.3" font-family="Times,serif" font-size="14.00"> v2</text>
<text text-anchor="start" x="58" y="-452.3" font-family="Times,serif" font-size="14.00"> v3</text>
<text text-anchor="start" x="58" y="-437.3" font-family="Times,serif" font-size="14.00"> v4 = function_4048b3(IntToPtrCastExpr&lt;ptr&gt;(&#45;1), &amp;(v3[&#39;0&#39;]), v2)</text>
<text text-anchor="start" x="58" y="-422.3" font-family="Times,serif" font-size="14.00"> *(IntToPtrCastExpr&lt;ptr&gt;(g9)) = v4</text>
<text text-anchor="start" x="58" y="-407.3" font-family="Times,serif" font-size="14.00"> v5 = g9</text>
<text text-anchor="start" x="58" y="-392.3" font-family="Times,serif" font-size="14.00"> result</text>
</g>
<!-- Node0x11192620&#45;&gt;Node0x2ca46960 -->
<g id="edge1" class="edge"><title>Node0x11192620&#45;&gt;Node0x2ca46960</title>
<path fill="none" stroke="black" d="M295.5,-655.471C295.5,-647.833 295.5,-638.227 295.5,-627.566"/>
<polygon fill="black" stroke="black" points="299,-627.504 295.5,-617.504 292,-627.504 299,-627.504"/>
</g>
<!-- Node0x111937b0 -->
<g id="node3" class="node"><title>Node0x111937b0</title>
<polygon fill="none" stroke="black" points="145,-308.5 145,-346.5 446,-346.5 446,-308.5 145,-308.5"/>
<text text-anchor="start" x="153" y="-331.3" font-family="Times,serif" font-size="14.00">if (*(IntToPtrCastExpr&lt;ptr&gt;(v5)) != 0):</text>
<text text-anchor="start" x="153" y="-316.3" font-family="Times,serif" font-size="14.00"> else:</text>
</g>
<!-- Node0x2ca46960&#45;&gt;Node0x111937b0 -->
<g id="edge2" class="edge"><title>Node0x2ca46960&#45;&gt;Node0x111937b0</title>
<path fill="none" stroke="black" d="M295.5,-384.181C295.5,-374.254 295.5,-364.942 295.5,-356.881"/>
<polygon fill="black" stroke="black" points="299,-356.722 295.5,-346.722 292,-356.722 299,-356.722"/>
</g>
<!-- Node0x1119a750 -->
<g id="node4" class="node"><title>Node0x1119a750</title>
<polygon fill="none" stroke="black" points="0,-188.5 0,-256.5 319,-256.5 319,-188.5 0,-188.5"/>
<text text-anchor="start" x="8" y="-241.3" font-family="Times,serif" font-size="14.00">v6 = *(IntToPtrCastExpr&lt;ptr&gt;((g3 + 8)))</text>
<text text-anchor="start" x="8" y="-226.3" font-family="Times,serif" font-size="14.00"> g2 = v6</text>
<text text-anchor="start" x="8" y="-211.3" font-family="Times,serif" font-size="14.00"> *(IntToPtrCastExpr&lt;ptr&gt;((v5 + 4))) = v6</text>
<text text-anchor="start" x="8" y="-196.3" font-family="Times,serif" font-size="14.00"> result = 0</text>
</g>
<!-- Node0x111937b0&#45;&gt;Node0x1119a750 -->
<g id="edge3" class="edge"><title>Node0x111937b0&#45;&gt;Node0x1119a750</title>
<path fill="none" stroke="black" d="M193.908,-308.403C176.984,-303.381 163.094,-297.266 157.5,-290 152.39,-283.363 150.336,-275.151 150.016,-266.787"/>
<polygon fill="black" stroke="black" points="153.52,-266.731 150.397,-256.607 146.525,-266.469 153.52,-266.731"/>
<text text-anchor="middle" x="285.5" y="-278.8" font-family="Times,serif" font-size="14.00">*(IntToPtrCastExpr&lt;ptr&gt;(v5)) != 0</text>
</g>
<!-- Node0x1119c960 -->
<g id="node5" class="node"><title>Node0x1119c960</title>
<polygon fill="none" stroke="black" points="344.5,-204.5 344.5,-240.5 518.5,-240.5 518.5,-204.5 344.5,-204.5"/>
<text text-anchor="start" x="352.5" y="-218.8" font-family="Times,serif" font-size="14.00">result = &#45;2147024882</text>
</g>
<!-- Node0x111937b0&#45;&gt;Node0x1119c960 -->
<g id="edge4" class="edge"><title>Node0x111937b0&#45;&gt;Node0x1119c960</title>
<path fill="none" stroke="black" d="M387.583,-308.476C397.197,-303.687 406.129,-297.638 413.5,-290 423.527,-279.609 428.1,-264.23 430.133,-250.877"/>
<polygon fill="black" stroke="black" points="433.633,-251.066 431.274,-240.738 426.677,-250.283 433.633,-251.066"/>
<text text-anchor="middle" x="554.5" y="-278.8" font-family="Times,serif" font-size="14.00">*(IntToPtrCastExpr&lt;ptr&gt;(v5)) == 0</text>
</g>
<!-- Node0x1119a6f0 -->
<g id="node6" class="node"><title>Node0x1119a6f0</title>
<polygon fill="none" stroke="black" points="260.5,-97.5 260.5,-150.5 390.5,-150.5 390.5,-97.5 260.5,-97.5"/>
<text text-anchor="start" x="268.5" y="-135.3" font-family="Times,serif" font-size="14.00">0x414331:</text>
<text text-anchor="start" x="268.5" y="-120.3" font-family="Times,serif" font-size="14.00"> __EH_epilog3()</text>
<text text-anchor="start" x="268.5" y="-105.3" font-family="Times,serif" font-size="14.00"> return result</text>
</g>
<!-- Node0x1119a750&#45;&gt;Node0x1119a6f0 -->
<g id="edge5" class="edge"><title>Node0x1119a750&#45;&gt;Node0x1119a6f0</title>
<path fill="none" stroke="black" d="M216.628,-188.29C234.677,-177.798 254.54,-166.251 272.303,-155.925"/>
<polygon fill="black" stroke="black" points="274.493,-158.7 281.379,-150.648 270.975,-152.648 274.493,-158.7"/>
</g>
<!-- Node0x1119c960&#45;&gt;Node0x1119a6f0 -->
<g id="edge6" class="edge"><title>Node0x1119c960&#45;&gt;Node0x1119a6f0</title>
<path fill="none" stroke="black" d="M412.549,-204.248C398.4,-191.366 378.635,-173.373 361.515,-157.787"/>
<polygon fill="black" stroke="black" points="363.616,-154.966 353.865,-150.823 358.903,-160.143 363.616,-154.966"/>
</g>
<!-- Node0x11198860 -->
<g id="node7" class="node"><title>Node0x11198860</title>
<polygon fill="none" stroke="black" points="298.5,-23.5 298.5,-59.5 352.5,-59.5 352.5,-23.5 298.5,-23.5"/>
<text text-anchor="start" x="306.5" y="-37.8" font-family="Times,serif" font-size="14.00">exit:</text>
</g>
<!-- Node0x1119a6f0&#45;&gt;Node0x11198860 -->
<g id="edge7" class="edge"><title>Node0x1119a6f0&#45;&gt;Node0x11198860</title>
<path fill="none" stroke="black" d="M325.5,-97.0862C325.5,-88.4596 325.5,-78.8224 325.5,-70.0748"/>
<polygon fill="black" stroke="black" points="329,-69.9735 325.5,-59.9735 322,-69.9735 329,-69.9735"/>
</g>
</g>
</svg>
