<?xml version="1.0" encoding="UTF-8" standalone="no"?>
<!DOCTYPE svg PUBLIC "-//W3C//DTD SVG 1.1//EN"
 "http://www.w3.org/Graphics/SVG/1.1/DTD/svg11.dtd">
<!-- Generated by graphviz version 2.38.0 (20140413.2041)
 -->
<!-- Title: Control&#45;flow graph for function &#39;function_4030e0(a1, a2, a3, a4)&#39;. Pages: 1 -->
<svg width="958pt" height="1178pt"
 viewBox="0.00 0.00 958.00 1178.00" xmlns="http://www.w3.org/2000/svg" xmlns:xlink="http://www.w3.org/1999/xlink">
<g id="graph0" class="graph" transform="scale(1 1) rotate(0) translate(4 1174)">
<title>Control&#45;flow graph for function &#39;function_4030e0(a1, a2, a3, a4)&#39;.</title>
<polygon fill="white" stroke="none" points="-4,4 -4,-1174 954,-1174 954,4 -4,4"/>
<text text-anchor="middle" x="475" y="-7.8" font-family="Times,serif" font-size="14.00">Control&#45;flow graph for function &#39;function_4030e0(a1, a2, a3, a4)&#39;.</text>
<!-- Node0x22275c00 -->
<g id="node1" class="node"><title>Node0x22275c00</title>
<polygon fill="none" stroke="black" points="227,-1086.5 227,-1169.5 286,-1169.5 286,-1086.5 227,-1086.5"/>
<text text-anchor="start" x="235" y="-1154.3" font-family="Times,serif" font-size="14.00">entry:</text>
<text text-anchor="start" x="235" y="-1139.3" font-family="Times,serif" font-size="14.00"> a1</text>
<text text-anchor="start" x="235" y="-1124.3" font-family="Times,serif" font-size="14.00"> a2</text>
<text text-anchor="start" x="235" y="-1109.3" font-family="Times,serif" font-size="14.00"> a3</text>
<text text-anchor="start" x="235" y="-1094.3" font-family="Times,serif" font-size="14.00"> a4</text>
</g>
<!-- Node0x22276900 -->
<g id="node2" class="node"><title>Node0x22276900</title>
<polygon fill="none" stroke="black" points="0,-860.5 0,-1048.5 513,-1048.5 513,-860.5 0,-860.5"/>
<text text-anchor="start" x="8" y="-1033.3" font-family="Times,serif" font-size="14.00">v1 = g9</text>
<text text-anchor="start" x="8" y="-1018.3" font-family="Times,serif" font-size="14.00"> v2 = v1</text>
<text text-anchor="start" x="8" y="-1003.3" font-family="Times,serif" font-size="14.00"> v3 = &amp;(v2)</text>
<text text-anchor="start" x="8" y="-988.3" font-family="Times,serif" font-size="14.00"> g10 = v3</text>
<text text-anchor="start" x="8" y="-973.3" font-family="Times,serif" font-size="14.00"> v4 = g2</text>
<text text-anchor="start" x="8" y="-958.3" font-family="Times,serif" font-size="14.00"> g9 = v4</text>
<text text-anchor="start" x="8" y="-943.3" font-family="Times,serif" font-size="14.00"> g3 = a1</text>
<text text-anchor="start" x="8" y="-928.3" font-family="Times,serif" font-size="14.00"> v5 = g4</text>
<text text-anchor="start" x="8" y="-913.3" font-family="Times,serif" font-size="14.00"> v6 = ((2021161081 * ExtCastExpr&lt;int64&gt;((v4 &#45; v5))) / 4294967296)</text>
<text text-anchor="start" x="8" y="-898.3" font-family="Times,serif" font-size="14.00"> result = (136 * (ExtCastExpr&lt;int32&gt;((v6 &lt; &#45;63)) + (v6 / 64)))</text>
<text text-anchor="start" x="8" y="-883.3" font-family="Times,serif" font-size="14.00"> g2 = (a1 &#45; result)</text>
<text text-anchor="start" x="8" y="-868.3" font-family="Times,serif" font-size="14.00"> v7</text>
</g>
<!-- Node0x22275c00&#45;&gt;Node0x22276900 -->
<g id="edge1" class="edge"><title>Node0x22275c00&#45;&gt;Node0x22276900</title>
<path fill="none" stroke="black" d="M256.5,-1086.36C256.5,-1077.83 256.5,-1068.47 256.5,-1058.8"/>
<polygon fill="black" stroke="black" points="260,-1058.63 256.5,-1048.63 253,-1058.63 260,-1058.63"/>
</g>
<!-- Node0x222771c0 -->
<g id="node3" class="node"><title>Node0x222771c0</title>
<polygon fill="none" stroke="black" points="200,-786.5 200,-822.5 313,-822.5 313,-786.5 200,-786.5"/>
<text text-anchor="start" x="208" y="-800.8" font-family="Times,serif" font-size="14.00">if (v4 == v5):</text>
</g>
<!-- Node0x22276900&#45;&gt;Node0x222771c0 -->
<g id="edge2" class="edge"><title>Node0x22276900&#45;&gt;Node0x222771c0</title>
<path fill="none" stroke="black" d="M256.5,-860.189C256.5,-850.348 256.5,-840.996 256.5,-832.899"/>
<polygon fill="black" stroke="black" points="260,-832.708 256.5,-822.708 253,-832.708 260,-832.708"/>
</g>
<!-- Node0x8e262c0 -->
<g id="node4" class="node"><title>Node0x8e262c0</title>
<polygon fill="none" stroke="black" points="98,-564.5 98,-632.5 211,-632.5 211,-564.5 98,-564.5"/>
<text text-anchor="start" x="106" y="-617.3" font-family="Times,serif" font-size="14.00">0x403129:</text>
<text text-anchor="start" x="106" y="-602.3" font-family="Times,serif" font-size="14.00"> g9 = v1</text>
<text text-anchor="start" x="106" y="-587.3" font-family="Times,serif" font-size="14.00"> g3 = v7</text>
<text text-anchor="start" x="106" y="-572.3" font-family="Times,serif" font-size="14.00"> return result</text>
</g>
<!-- Node0x222771c0&#45;&gt;Node0x8e262c0 -->
<g id="edge3" class="edge"><title>Node0x222771c0&#45;&gt;Node0x8e262c0</title>
<path fill="none" stroke="black" d="M225.832,-786.274C207.561,-774.328 185.632,-756.686 173.5,-735 157.817,-706.967 153.401,-670.742 152.725,-642.802"/>
<polygon fill="black" stroke="black" points="156.222,-642.501 152.633,-632.533 149.222,-642.564 156.222,-642.501"/>
<text text-anchor="middle" x="234.5" y="-756.8" font-family="Times,serif" font-size="14.00">v4 == v5</text>
</g>
<!-- Node0x22277420 -->
<g id="node5" class="node"><title>Node0x22277420</title>
<polygon fill="none" stroke="black" points="183,-651.5 183,-734.5 764,-734.5 764,-651.5 183,-651.5"/>
<text text-anchor="start" x="191" y="-719.3" font-family="Times,serif" font-size="14.00">0x40310f:</text>
<text text-anchor="start" x="191" y="-704.3" font-family="Times,serif" font-size="14.00"> g3 = (a1 &#45; v4)</text>
<text text-anchor="start" x="191" y="-689.3" font-family="Times,serif" font-size="14.00"> v8 = g7</text>
<text text-anchor="start" x="191" y="-674.3" font-family="Times,serif" font-size="14.00"> v9 = (v4 &#45; 136)</text>
<text text-anchor="start" x="191" y="-659.3" font-family="Times,serif" font-size="14.00"> memcpy(IntToPtrCastExpr&lt;ptr&gt;((a1 &#45; 136)), IntToPtrCastExpr&lt;ptr&gt;(v9), 34)</text>
</g>
<!-- Node0x222771c0&#45;&gt;Node0x22277420 -->
<g id="edge4" class="edge"><title>Node0x222771c0&#45;&gt;Node0x22277420</title>
<path fill="none" stroke="black" d="M290.406,-786.391C315.467,-773.745 350.817,-755.907 383.782,-739.273"/>
<polygon fill="black" stroke="black" points="385.655,-742.248 393.006,-734.618 382.501,-735.999 385.655,-742.248"/>
<text text-anchor="middle" x="383.5" y="-756.8" font-family="Times,serif" font-size="14.00">v4 != v5</text>
</g>
<!-- Node0x222768a0 -->
<g id="node6" class="node"><title>Node0x222768a0</title>
<polygon fill="none" stroke="black" points="165.5,-23.5 165.5,-59.5 219.5,-59.5 219.5,-23.5 165.5,-23.5"/>
<text text-anchor="start" x="173.5" y="-37.8" font-family="Times,serif" font-size="14.00">exit:</text>
</g>
<!-- Node0x8e262c0&#45;&gt;Node0x222768a0 -->
<g id="edge5" class="edge"><title>Node0x8e262c0&#45;&gt;Node0x222768a0</title>
<path fill="none" stroke="black" d="M154.5,-564.372C154.5,-541.849 154.5,-511.377 154.5,-484.5 154.5,-484.5 154.5,-484.5 154.5,-145.5 154.5,-118.021 166.552,-88.8264 177.081,-68.5629"/>
<polygon fill="black" stroke="black" points="180.224,-70.1088 181.915,-59.6497 174.071,-66.7714 180.224,-70.1088"/>
</g>
<!-- Node0x22277510 -->
<g id="node7" class="node"><title>Node0x22277510</title>
<polygon fill="none" stroke="black" points="417,-509.5 417,-545.5 530,-545.5 530,-509.5 417,-509.5"/>
<text text-anchor="start" x="425" y="-523.8" font-family="Times,serif" font-size="14.00">if (v9 == v5):</text>
</g>
<!-- Node0x22277420&#45;&gt;Node0x22277510 -->
<g id="edge6" class="edge"><title>Node0x22277420&#45;&gt;Node0x22277510</title>
<path fill="none" stroke="black" d="M473.5,-651.164C473.5,-621.37 473.5,-581.806 473.5,-555.772"/>
<polygon fill="black" stroke="black" points="477,-555.511 473.5,-545.511 470,-555.511 477,-555.511"/>
</g>
<!-- Node0x22277e80 -->
<g id="node8" class="node"><title>Node0x22277e80</title>
<polygon fill="none" stroke="black" points="177,-302.5 177,-400.5 290,-400.5 290,-302.5 177,-302.5"/>
<text text-anchor="start" x="185" y="-385.3" font-family="Times,serif" font-size="14.00">0x403128:</text>
<text text-anchor="start" x="185" y="-370.3" font-family="Times,serif" font-size="14.00"> g7 = v8</text>
<text text-anchor="start" x="185" y="-355.3" font-family="Times,serif" font-size="14.00"> g10 = v3</text>
<text text-anchor="start" x="185" y="-340.3" font-family="Times,serif" font-size="14.00"> g9 = v2</text>
<text text-anchor="start" x="185" y="-325.3" font-family="Times,serif" font-size="14.00"> g3 = v7</text>
<text text-anchor="start" x="185" y="-310.3" font-family="Times,serif" font-size="14.00"> return result</text>
</g>
<!-- Node0x22277510&#45;&gt;Node0x22277e80 -->
<g id="edge7" class="edge"><title>Node0x22277510&#45;&gt;Node0x22277e80</title>
<path fill="none" stroke="black" d="M416.843,-516.016C377.937,-506.413 327.092,-488.844 291.5,-458 276.435,-444.945 264.545,-426.974 255.555,-409.562"/>
<polygon fill="black" stroke="black" points="258.67,-407.966 251.117,-400.537 252.389,-411.055 258.67,-407.966"/>
<text text-anchor="middle" x="376.5" y="-479.8" font-family="Times,serif" font-size="14.00">v9 == v5</text>
</g>
<!-- Node0x222778f0 -->
<g id="node9" class="node"><title>Node0x222778f0</title>
<polygon fill="none" stroke="black" points="300.5,-419.5 300.5,-457.5 898.5,-457.5 898.5,-419.5 300.5,-419.5"/>
<text text-anchor="start" x="308.5" y="-442.3" font-family="Times,serif" font-size="14.00">v10 = (v9 &#45; 136)</text>
<text text-anchor="start" x="308.5" y="-427.3" font-family="Times,serif" font-size="14.00"> memcpy(IntToPtrCastExpr&lt;ptr&gt;((v10 + g3)), IntToPtrCastExpr&lt;ptr&gt;(v10), 34)</text>
</g>
<!-- Node0x22277510&#45;&gt;Node0x222778f0 -->
<g id="edge8" class="edge"><title>Node0x22277510&#45;&gt;Node0x222778f0</title>
<path fill="none" stroke="black" d="M498.394,-509.312C517.43,-496.167 543.902,-477.889 564.984,-463.333"/>
<polygon fill="black" stroke="black" points="567.117,-466.113 573.357,-457.551 563.139,-460.353 567.117,-466.113"/>
<text text-anchor="middle" x="574.5" y="-479.8" font-family="Times,serif" font-size="14.00">v9 != v5</text>
</g>
<!-- Node0x22277e80&#45;&gt;Node0x222768a0 -->
<g id="edge9" class="edge"><title>Node0x22277e80&#45;&gt;Node0x222768a0</title>
<path fill="none" stroke="black" d="M226.386,-302.167C221.963,-271.723 216.236,-231.585 211.5,-196 205.606,-151.712 199.348,-100.152 195.688,-69.4807"/>
<polygon fill="black" stroke="black" points="199.164,-69.0657 194.507,-59.5491 192.213,-69.8925 199.164,-69.0657"/>
</g>
<!-- Node0x22277ad0 -->
<g id="node10" class="node"><title>Node0x22277ad0</title>
<polygon fill="none" stroke="black" points="529.5,-247.5 529.5,-283.5 675.5,-283.5 675.5,-247.5 529.5,-247.5"/>
<text text-anchor="start" x="537.5" y="-261.8" font-family="Times,serif" font-size="14.00">while (v10 != g4):</text>
</g>
<!-- Node0x222778f0&#45;&gt;Node0x22277ad0 -->
<g id="edge10" class="edge"><title>Node0x222778f0&#45;&gt;Node0x22277ad0</title>
<path fill="none" stroke="black" d="M599.821,-419.2C600.35,-389.061 601.407,-328.825 602.023,-293.687"/>
<polygon fill="black" stroke="black" points="605.523,-293.709 602.199,-283.649 598.524,-293.586 605.523,-293.709"/>
</g>
<!-- Node0x22274eb0 -->
<g id="node11" class="node"><title>Node0x22274eb0</title>
<polygon fill="none" stroke="black" points="220.5,-120 220.5,-173 818.5,-173 818.5,-120 220.5,-120"/>
<text text-anchor="start" x="228.5" y="-157.8" font-family="Times,serif" font-size="14.00">0x403112:</text>
<text text-anchor="start" x="228.5" y="-142.8" font-family="Times,serif" font-size="14.00"> v10 = (v10 &#45; 136)</text>
<text text-anchor="start" x="228.5" y="-127.8" font-family="Times,serif" font-size="14.00"> memcpy(IntToPtrCastExpr&lt;ptr&gt;((v10 + g3)), IntToPtrCastExpr&lt;ptr&gt;(v10), 34)</text>
</g>
<!-- Node0x22277ad0&#45;&gt;Node0x22274eb0 -->
<g id="edge11" class="edge"><title>Node0x22277ad0&#45;&gt;Node0x22274eb0</title>
<path fill="none" stroke="black" d="M539.742,-247.498C531.747,-242.764 524.593,-236.718 519.5,-229 510.762,-215.758 509.678,-198.482 511.22,-183.245"/>
<polygon fill="black" stroke="black" points="514.72,-183.486 512.645,-173.097 507.788,-182.513 514.72,-183.486"/>
<text text-anchor="middle" x="555.5" y="-217.8" font-family="Times,serif" font-size="14.00">v10 != g4</text>
</g>
<!-- Node0x22277290 -->
<g id="node12" class="node"><title>Node0x22277290</title>
<polygon fill="none" stroke="black" points="837,-97.5 837,-195.5 950,-195.5 950,-97.5 837,-97.5"/>
<text text-anchor="start" x="845" y="-180.3" font-family="Times,serif" font-size="14.00">0x403128:</text>
<text text-anchor="start" x="845" y="-165.3" font-family="Times,serif" font-size="14.00"> g7 = v8</text>
<text text-anchor="start" x="845" y="-150.3" font-family="Times,serif" font-size="14.00"> g10 = v3</text>
<text text-anchor="start" x="845" y="-135.3" font-family="Times,serif" font-size="14.00"> g9 = v2</text>
<text text-anchor="start" x="845" y="-120.3" font-family="Times,serif" font-size="14.00"> g3 = v7</text>
<text text-anchor="start" x="845" y="-105.3" font-family="Times,serif" font-size="14.00"> return result</text>
</g>
<!-- Node0x22277ad0&#45;&gt;Node0x22277290 -->
<g id="edge12" class="edge"><title>Node0x22277ad0&#45;&gt;Node0x22277290</title>
<path fill="none" stroke="black" d="M675.556,-248.918C720.779,-237.675 779.224,-220.198 827.5,-196 827.595,-195.952 827.691,-195.904 827.786,-195.856"/>
<polygon fill="black" stroke="black" points="829.538,-198.888 836.648,-191.033 826.192,-192.739 829.538,-198.888"/>
<text text-anchor="middle" x="824.5" y="-217.8" font-family="Times,serif" font-size="14.00">v10 == g4</text>
</g>
<!-- Node0x22274eb0&#45;&gt;Node0x22277ad0 -->
<g id="edge13" class="edge"><title>Node0x22274eb0&#45;&gt;Node0x22277ad0</title>
<path fill="none" stroke="black" d="M555.463,-173.114C568.657,-184.253 582.541,-198.345 591.5,-214 595.528,-221.04 598.084,-229.404 599.703,-237.28"/>
<polygon fill="black" stroke="black" points="596.259,-237.902 601.34,-247.199 603.165,-236.763 596.259,-237.902"/>
</g>
<!-- Node0x22277290&#45;&gt;Node0x222768a0 -->
<g id="edge14" class="edge"><title>Node0x22277290&#45;&gt;Node0x222768a0</title>
<path fill="none" stroke="black" d="M836.61,-100.965C833.605,-99.4869 830.561,-98.1511 827.5,-97 716.787,-55.3684 348.104,-45.2617 229.556,-43.0608"/>
<polygon fill="black" stroke="black" points="229.58,-39.5608 219.519,-42.8825 229.455,-46.5597 229.58,-39.5608"/>
</g>
</g>
</svg>
