<?xml version="1.0" encoding="UTF-8" standalone="no"?>
<!DOCTYPE svg PUBLIC "-//W3C//DTD SVG 1.1//EN"
 "http://www.w3.org/Graphics/SVG/1.1/DTD/svg11.dtd">
<!-- Generated by graphviz version 2.38.0 (20140413.2041)
 -->
<!-- Title: Control&#45;flow graph for function &#39;function_41c891(*a1)&#39;. Pages: 1 -->
<svg width="594pt" height="233pt"
 viewBox="0.00 0.00 594.00 233.00" xmlns="http://www.w3.org/2000/svg" xmlns:xlink="http://www.w3.org/1999/xlink">
<g id="graph0" class="graph" transform="scale(1 1) rotate(0) translate(4 229)">
<title>Control&#45;flow graph for function &#39;function_41c891(*a1)&#39;.</title>
<polygon fill="white" stroke="none" points="-4,4 -4,-229 590,-229 590,4 -4,4"/>
<text text-anchor="middle" x="293" y="-7.8" font-family="Times,serif" font-size="14.00">Control&#45;flow graph for function &#39;function_41c891(*a1)&#39;.</text>
<!-- Node0x33fc24e0 -->
<g id="node1" class="node"><title>Node0x33fc24e0</title>
<polygon fill="none" stroke="black" points="263.5,-186.5 263.5,-224.5 322.5,-224.5 322.5,-186.5 263.5,-186.5"/>
<text text-anchor="start" x="271.5" y="-209.3" font-family="Times,serif" font-size="14.00">entry:</text>
<text text-anchor="start" x="271.5" y="-194.3" font-family="Times,serif" font-size="14.00"> a1</text>
</g>
<!-- Node0x33fc3580 -->
<g id="node2" class="node"><title>Node0x33fc3580</title>
<polygon fill="none" stroke="black" points="0,-96.5 0,-149.5 586,-149.5 586,-96.5 0,-96.5"/>
<text text-anchor="start" x="8" y="-134.3" font-family="Times,serif" font-size="14.00">0x41c891:</text>
<text text-anchor="start" x="8" y="-119.3" font-family="Times,serif" font-size="14.00"> *(IntToPtrCastExpr&lt;ptr&gt;(g5)) = PtrToIntCastExpr&lt;int32&gt;(&amp;(vtable_43baf0))</text>
<text text-anchor="start" x="8" y="-104.3" font-family="Times,serif" font-size="14.00"> return function_41c796()</text>
</g>
<!-- Node0x33fc24e0&#45;&gt;Node0x33fc3580 -->
<g id="edge1" class="edge"><title>Node0x33fc24e0&#45;&gt;Node0x33fc3580</title>
<path fill="none" stroke="black" d="M293,-186.233C293,-178.347 293,-168.835 293,-159.648"/>
<polygon fill="black" stroke="black" points="296.5,-159.517 293,-149.517 289.5,-159.517 296.5,-159.517"/>
</g>
<!-- Node0x33fc3500 -->
<g id="node3" class="node"><title>Node0x33fc3500</title>
<polygon fill="none" stroke="black" points="266,-23.5 266,-59.5 320,-59.5 320,-23.5 266,-23.5"/>
<text text-anchor="start" x="274" y="-37.8" font-family="Times,serif" font-size="14.00">exit:</text>
</g>
<!-- Node0x33fc3580&#45;&gt;Node0x33fc3500 -->
<g id="edge2" class="edge"><title>Node0x33fc3580&#45;&gt;Node0x33fc3500</title>
<path fill="none" stroke="black" d="M293,-96.4081C293,-87.9823 293,-78.5803 293,-70.0174"/>
<polygon fill="black" stroke="black" points="296.5,-69.7564 293,-59.7564 289.5,-69.7565 296.5,-69.7564"/>
</g>
</g>
</svg>
