<?xml version="1.0" encoding="UTF-8" standalone="no"?>
<!DOCTYPE svg PUBLIC "-//W3C//DTD SVG 1.1//EN"
 "http://www.w3.org/Graphics/SVG/1.1/DTD/svg11.dtd">
<!-- Generated by graphviz version 2.38.0 (20140413.2041)
 -->
<!-- Title: Control&#45;flow graph for function &#39;function_4127f1(a1, a2)&#39;. Pages: 1 -->
<svg width="598pt" height="580pt"
 viewBox="0.00 0.00 598.00 580.00" xmlns="http://www.w3.org/2000/svg" xmlns:xlink="http://www.w3.org/1999/xlink">
<g id="graph0" class="graph" transform="scale(1 1) rotate(0) translate(4 576)">
<title>Control&#45;flow graph for function &#39;function_4127f1(a1, a2)&#39;.</title>
<polygon fill="white" stroke="none" points="-4,4 -4,-576 594,-576 594,4 -4,4"/>
<text text-anchor="middle" x="295" y="-7.8" font-family="Times,serif" font-size="14.00">Control&#45;flow graph for function &#39;function_4127f1(a1, a2)&#39;.</text>
<!-- Node0x3a465d70 -->
<g id="node1" class="node"><title>Node0x3a465d70</title>
<polygon fill="none" stroke="black" points="265.5,-518.5 265.5,-571.5 324.5,-571.5 324.5,-518.5 265.5,-518.5"/>
<text text-anchor="start" x="273.5" y="-556.3" font-family="Times,serif" font-size="14.00">entry:</text>
<text text-anchor="start" x="273.5" y="-541.3" font-family="Times,serif" font-size="14.00"> a1</text>
<text text-anchor="start" x="273.5" y="-526.3" font-family="Times,serif" font-size="14.00"> a2</text>
</g>
<!-- Node0x3a4656c0 -->
<g id="node2" class="node"><title>Node0x3a4656c0</title>
<polygon fill="none" stroke="black" points="0,-352.5 0,-480.5 590,-480.5 590,-352.5 0,-352.5"/>
<text text-anchor="start" x="8" y="-465.3" font-family="Times,serif" font-size="14.00">v1 = IntToPtrCastExpr&lt;ptr&gt;(g9)</text>
<text text-anchor="start" x="8" y="-450.3" font-family="Times,serif" font-size="14.00"> g10 = PtrToIntCastExpr&lt;int32&gt;(&amp;(v1))</text>
<text text-anchor="start" x="8" y="-435.3" font-family="Times,serif" font-size="14.00"> v2 = g5</text>
<text text-anchor="start" x="8" y="-420.3" font-family="Times,serif" font-size="14.00"> g9 = v2</text>
<text text-anchor="start" x="8" y="-405.3" font-family="Times,serif" font-size="14.00"> g5 = (*(IntToPtrCastExpr&lt;ptr&gt;((v2 + 12))) &#45; 16)</text>
<text text-anchor="start" x="8" y="-390.3" font-family="Times,serif" font-size="14.00"> *(IntToPtrCastExpr&lt;ptr&gt;(v2)) = PtrToIntCastExpr&lt;int32&gt;(&amp;(vtable_43b330))</text>
<text text-anchor="start" x="8" y="-375.3" font-family="Times,serif" font-size="14.00"> v3</text>
<text text-anchor="start" x="8" y="-360.3" font-family="Times,serif" font-size="14.00"> function_401380(BitCastExpr&lt;ptr&gt;(v1), BitCastExpr&lt;ptr&gt;(v3))</text>
</g>
<!-- Node0x3a465d70&#45;&gt;Node0x3a4656c0 -->
<g id="edge1" class="edge"><title>Node0x3a465d70&#45;&gt;Node0x3a4656c0</title>
<path fill="none" stroke="black" d="M295,-518.401C295,-510.256 295,-500.802 295,-491.011"/>
<polygon fill="black" stroke="black" points="298.5,-490.727 295,-480.727 291.5,-490.727 298.5,-490.727"/>
</g>
<!-- Node0x3a466160 -->
<g id="node3" class="node"><title>Node0x3a466160</title>
<polygon fill="none" stroke="black" points="245.5,-278.5 245.5,-314.5 344.5,-314.5 344.5,-278.5 245.5,-278.5"/>
<text text-anchor="start" x="253.5" y="-292.8" font-family="Times,serif" font-size="14.00">if (a1 != 1):</text>
</g>
<!-- Node0x3a4656c0&#45;&gt;Node0x3a466160 -->
<g id="edge2" class="edge"><title>Node0x3a4656c0&#45;&gt;Node0x3a466160</title>
<path fill="none" stroke="black" d="M295,-352.355C295,-342.753 295,-333.299 295,-325.016"/>
<polygon fill="black" stroke="black" points="298.5,-324.887 295,-314.888 291.5,-324.888 298.5,-324.887"/>
</g>
<!-- Node0x3a466620 -->
<g id="node4" class="node"><title>Node0x3a466620</title>
<polygon fill="none" stroke="black" points="142,-188.5 142,-226.5 294,-226.5 294,-188.5 142,-188.5"/>
<text text-anchor="start" x="150" y="-211.3" font-family="Times,serif" font-size="14.00">0x41280c:</text>
<text text-anchor="start" x="150" y="-196.3" font-family="Times,serif" font-size="14.00"> function_4048de()</text>
</g>
<!-- Node0x3a466160&#45;&gt;Node0x3a466620 -->
<g id="edge3" class="edge"><title>Node0x3a466160&#45;&gt;Node0x3a466620</title>
<path fill="none" stroke="black" d="M278.74,-278.299C273.359,-272.53 267.375,-266.031 262,-260 254.723,-251.836 246.927,-242.806 239.948,-234.618"/>
<polygon fill="black" stroke="black" points="242.431,-232.134 233.292,-226.774 237.093,-236.663 242.431,-232.134"/>
<text text-anchor="middle" x="289" y="-248.8" font-family="Times,serif" font-size="14.00">a1 != 1</text>
</g>
<!-- Node0x3a465e10 -->
<g id="node5" class="node"><title>Node0x3a465e10</title>
<polygon fill="none" stroke="black" points="166,-97.5 166,-150.5 426,-150.5 426,-97.5 166,-97.5"/>
<text text-anchor="start" x="174" y="-135.3" font-family="Times,serif" font-size="14.00">result = g9</text>
<text text-anchor="start" x="174" y="-120.3" font-family="Times,serif" font-size="14.00"> g9 = ExtCastExpr&lt;int32&gt;(*(v1))</text>
<text text-anchor="start" x="174" y="-105.3" font-family="Times,serif" font-size="14.00"> return result</text>
</g>
<!-- Node0x3a466160&#45;&gt;Node0x3a465e10 -->
<g id="edge4" class="edge"><title>Node0x3a466160&#45;&gt;Node0x3a465e10</title>
<path fill="none" stroke="black" d="M307.672,-278.283C311.06,-272.726 314.261,-266.354 316,-260 325.106,-226.722 317.382,-187.622 309.027,-160.091"/>
<polygon fill="black" stroke="black" points="312.339,-158.956 305.951,-150.504 305.674,-161.095 312.339,-158.956"/>
<text text-anchor="middle" x="350" y="-203.8" font-family="Times,serif" font-size="14.00">a1 == 1</text>
</g>
<!-- Node0x3a466620&#45;&gt;Node0x3a465e10 -->
<g id="edge5" class="edge"><title>Node0x3a466620&#45;&gt;Node0x3a465e10</title>
<path fill="none" stroke="black" d="M235.311,-188.413C243.834,-179.507 254.384,-168.483 264.284,-158.139"/>
<polygon fill="black" stroke="black" points="266.955,-160.411 271.34,-150.766 261.898,-155.571 266.955,-160.411"/>
</g>
<!-- Node0x3a465640 -->
<g id="node6" class="node"><title>Node0x3a465640</title>
<polygon fill="none" stroke="black" points="269,-23.5 269,-59.5 323,-59.5 323,-23.5 269,-23.5"/>
<text text-anchor="start" x="277" y="-37.8" font-family="Times,serif" font-size="14.00">exit:</text>
</g>
<!-- Node0x3a465e10&#45;&gt;Node0x3a465640 -->
<g id="edge6" class="edge"><title>Node0x3a465e10&#45;&gt;Node0x3a465640</title>
<path fill="none" stroke="black" d="M296,-97.0862C296,-88.4596 296,-78.8224 296,-70.0748"/>
<polygon fill="black" stroke="black" points="299.5,-69.9735 296,-59.9735 292.5,-69.9735 299.5,-69.9735"/>
</g>
</g>
</svg>
