<?xml version="1.0" encoding="UTF-8" standalone="no"?>
<!DOCTYPE svg PUBLIC "-//W3C//DTD SVG 1.1//EN"
 "http://www.w3.org/Graphics/SVG/1.1/DTD/svg11.dtd">
<!-- Generated by graphviz version 2.38.0 (20140413.2041)
 -->
<!-- Title: Control&#45;flow graph for function &#39;function_4321b1(a1, a2, a3)&#39;. Pages: 1 -->
<svg width="950pt" height="564pt"
 viewBox="0.00 0.00 950.00 564.00" xmlns="http://www.w3.org/2000/svg" xmlns:xlink="http://www.w3.org/1999/xlink">
<g id="graph0" class="graph" transform="scale(1 1) rotate(0) translate(4 560)">
<title>Control&#45;flow graph for function &#39;function_4321b1(a1, a2, a3)&#39;.</title>
<polygon fill="white" stroke="none" points="-4,4 -4,-560 946,-560 946,4 -4,4"/>
<text text-anchor="middle" x="471" y="-7.8" font-family="Times,serif" font-size="14.00">Control&#45;flow graph for function &#39;function_4321b1(a1, a2, a3)&#39;.</text>
<!-- Node0x10cf3b30 -->
<g id="node1" class="node"><title>Node0x10cf3b30</title>
<polygon fill="none" stroke="black" points="441.5,-487.5 441.5,-555.5 500.5,-555.5 500.5,-487.5 441.5,-487.5"/>
<text text-anchor="start" x="449.5" y="-540.3" font-family="Times,serif" font-size="14.00">entry:</text>
<text text-anchor="start" x="449.5" y="-525.3" font-family="Times,serif" font-size="14.00"> a1</text>
<text text-anchor="start" x="449.5" y="-510.3" font-family="Times,serif" font-size="14.00"> a2</text>
<text text-anchor="start" x="449.5" y="-495.3" font-family="Times,serif" font-size="14.00"> a3</text>
</g>
<!-- Node0x10cf1920 -->
<g id="node2" class="node"><title>Node0x10cf1920</title>
<polygon fill="none" stroke="black" points="-5.68434e-14,-291.5 -5.68434e-14,-449.5 942,-449.5 942,-291.5 -5.68434e-14,-291.5"/>
<text text-anchor="start" x="8" y="-434.3" font-family="Times,serif" font-size="14.00">0x4321b1:</text>
<text text-anchor="start" x="8" y="-419.3" font-family="Times,serif" font-size="14.00"> *(IntToPtrCastExpr&lt;ptr&gt;((g9 + 4))) = 1</text>
<text text-anchor="start" x="8" y="-404.3" font-family="Times,serif" font-size="14.00"> *(IntToPtrCastExpr&lt;ptr&gt;(g9)) = &#45;1</text>
<text text-anchor="start" x="8" y="-389.3" font-family="Times,serif" font-size="14.00"> v1 = g9</text>
<text text-anchor="start" x="8" y="-374.3" font-family="Times,serif" font-size="14.00"> g2 = v1</text>
<text text-anchor="start" x="8" y="-359.3" font-family="Times,serif" font-size="14.00"> v2 = g7</text>
<text text-anchor="start" x="8" y="-344.3" font-family="Times,serif" font-size="14.00"> v3 = (v1 &#45; *(IntToPtrCastExpr&lt;ptr&gt;(((4 * v2) + 4506848))))</text>
<text text-anchor="start" x="8" y="-329.3" font-family="Times,serif" font-size="14.00"> v4 = (TruncCastExpr&lt;int32&gt;((((4294967296 * ExtCastExpr&lt;int64&gt;((v3 &gt;&gt; 31))) | ExtCastExpr&lt;int64&gt;(v3)) / 56)) + (32 * v2))</text>
<text text-anchor="start" x="8" y="-314.3" font-family="Times,serif" font-size="14.00"> g2 = v4</text>
<text text-anchor="start" x="8" y="-299.3" font-family="Times,serif" font-size="14.00"> *(IntToPtrCastExpr&lt;ptr&gt;((g3 &#45; 28))) = v4</text>
</g>
<!-- Node0x10cf3b30&#45;&gt;Node0x10cf1920 -->
<g id="edge1" class="edge"><title>Node0x10cf3b30&#45;&gt;Node0x10cf1920</title>
<path fill="none" stroke="black" d="M471,-487.432C471,-479.033 471,-469.603 471,-459.845"/>
<polygon fill="black" stroke="black" points="474.5,-459.586 471,-449.586 467.5,-459.586 474.5,-459.586"/>
</g>
<!-- Node0x10cf0880 -->
<g id="node3" class="node"><title>Node0x10cf0880</title>
<polygon fill="none" stroke="black" points="294,-217.5 294,-253.5 648,-253.5 648,-217.5 294,-217.5"/>
<text text-anchor="start" x="302" y="-231.8" font-family="Times,serif" font-size="14.00">if (*(IntToPtrCastExpr&lt;ptr&gt;((g3 &#45; 28))) == &#45;1):</text>
</g>
<!-- Node0x10cf1920&#45;&gt;Node0x10cf0880 -->
<g id="edge2" class="edge"><title>Node0x10cf1920&#45;&gt;Node0x10cf0880</title>
<path fill="none" stroke="black" d="M471,-291.364C471,-281.457 471,-271.905 471,-263.625"/>
<polygon fill="black" stroke="black" points="474.5,-263.552 471,-253.552 467.5,-263.552 474.5,-263.552"/>
</g>
<!-- Node0x10cf4160 -->
<g id="node4" class="node"><title>Node0x10cf4160</title>
<polygon fill="none" stroke="black" points="116,-97.5 116,-165.5 470,-165.5 470,-97.5 116,-97.5"/>
<text text-anchor="start" x="124" y="-150.3" font-family="Times,serif" font-size="14.00">0x4321dd:</text>
<text text-anchor="start" x="124" y="-135.3" font-family="Times,serif" font-size="14.00"> g7 = (g7 + 1)</text>
<text text-anchor="start" x="124" y="-120.3" font-family="Times,serif" font-size="14.00"> function_432109(IntToPtrCastExpr&lt;ptr&gt;(56))</text>
<text text-anchor="start" x="124" y="-105.3" font-family="Times,serif" font-size="14.00"> return</text>
</g>
<!-- Node0x10cf0880&#45;&gt;Node0x10cf4160 -->
<g id="edge3" class="edge"><title>Node0x10cf0880&#45;&gt;Node0x10cf4160</title>
<path fill="none" stroke="black" d="M357.317,-217.465C337.009,-212.498 319.819,-206.374 312,-199 305.336,-192.715 300.956,-184.271 298.091,-175.512"/>
<polygon fill="black" stroke="black" points="301.406,-174.356 295.459,-165.587 294.64,-176.15 301.406,-174.356"/>
<text text-anchor="middle" x="466.5" y="-187.8" font-family="Times,serif" font-size="14.00">*(IntToPtrCastExpr&lt;ptr&gt;((g3 &#45; 28))) == &#45;1</text>
</g>
<!-- Node0x10cf4070 -->
<g id="node5" class="node"><title>Node0x10cf4070</title>
<polygon fill="none" stroke="black" points="488,-97.5 488,-165.5 810,-165.5 810,-97.5 488,-97.5"/>
<text text-anchor="start" x="496" y="-150.3" font-family="Times,serif" font-size="14.00">0x432256:</text>
<text text-anchor="start" x="496" y="-135.3" font-family="Times,serif" font-size="14.00"> *(IntToPtrCastExpr&lt;ptr&gt;((g3 &#45; 4))) = &#45;2</text>
<text text-anchor="start" x="496" y="-120.3" font-family="Times,serif" font-size="14.00"> function_43226b()</text>
<text text-anchor="start" x="496" y="-105.3" font-family="Times,serif" font-size="14.00"> g2 = *(IntToPtrCastExpr&lt;ptr&gt;((g3 &#45; 28)))</text>
</g>
<!-- Node0x10cf0880&#45;&gt;Node0x10cf4070 -->
<g id="edge4" class="edge"><title>Node0x10cf0880&#45;&gt;Node0x10cf4070</title>
<path fill="none" stroke="black" d="M590.738,-217.435C601.682,-212.647 612.012,-206.607 621,-199 628.452,-192.694 633.961,-184.064 638.021,-175.111"/>
<polygon fill="black" stroke="black" points="641.302,-176.332 641.747,-165.747 634.798,-173.744 641.302,-176.332"/>
<text text-anchor="middle" x="784.5" y="-187.8" font-family="Times,serif" font-size="14.00">*(IntToPtrCastExpr&lt;ptr&gt;((g3 &#45; 28))) != &#45;1</text>
</g>
<!-- Node0x10cf1c60 -->
<g id="node6" class="node"><title>Node0x10cf1c60</title>
<polygon fill="none" stroke="black" points="485,-23.5 485,-59.5 539,-59.5 539,-23.5 485,-23.5"/>
<text text-anchor="start" x="493" y="-37.8" font-family="Times,serif" font-size="14.00">exit:</text>
</g>
<!-- Node0x10cf4160&#45;&gt;Node0x10cf1c60 -->
<g id="edge5" class="edge"><title>Node0x10cf4160&#45;&gt;Node0x10cf1c60</title>
<path fill="none" stroke="black" d="M375.171,-97.4817C409.653,-83.6256 447.999,-68.2173 475.303,-57.246"/>
<polygon fill="black" stroke="black" points="476.861,-60.392 484.835,-53.4158 474.251,-53.8967 476.861,-60.392"/>
</g>
<!-- Node0x10cf4070&#45;&gt;Node0x10cf1c60 -->
<g id="edge6" class="edge"><title>Node0x10cf4070&#45;&gt;Node0x10cf1c60</title>
<path fill="none" stroke="black" d="M597.596,-97.4817C580.84,-86.7187 562.626,-75.0192 547.324,-65.1901"/>
<polygon fill="black" stroke="black" points="548.99,-62.0999 538.684,-59.6402 545.206,-67.9896 548.99,-62.0999"/>
</g>
</g>
</svg>
