<?xml version="1.0" encoding="UTF-8" standalone="no"?>
<!DOCTYPE svg PUBLIC "-//W3C//DTD SVG 1.1//EN"
 "http://www.w3.org/Graphics/SVG/1.1/DTD/svg11.dtd">
<!-- Generated by graphviz version 2.38.0 (20140413.2041)
 -->
<!-- Title: Control&#45;flow graph for function &#39;function_42a91c(a1, a2, a3)&#39;. Pages: 1 -->
<svg width="463pt" height="323pt"
 viewBox="0.00 0.00 463.00 323.00" xmlns="http://www.w3.org/2000/svg" xmlns:xlink="http://www.w3.org/1999/xlink">
<g id="graph0" class="graph" transform="scale(1 1) rotate(0) translate(4 319)">
<title>Control&#45;flow graph for function &#39;function_42a91c(a1, a2, a3)&#39;.</title>
<polygon fill="white" stroke="none" points="-4,4 -4,-319 459,-319 459,4 -4,4"/>
<text text-anchor="middle" x="227.5" y="-7.8" font-family="Times,serif" font-size="14.00">Control&#45;flow graph for function &#39;function_42a91c(a1, a2, a3)&#39;.</text>
<!-- Node0x2fa5bac0 -->
<g id="node1" class="node"><title>Node0x2fa5bac0</title>
<polygon fill="none" stroke="black" points="198,-246.5 198,-314.5 257,-314.5 257,-246.5 198,-246.5"/>
<text text-anchor="start" x="206" y="-299.3" font-family="Times,serif" font-size="14.00">entry:</text>
<text text-anchor="start" x="206" y="-284.3" font-family="Times,serif" font-size="14.00"> a1</text>
<text text-anchor="start" x="206" y="-269.3" font-family="Times,serif" font-size="14.00"> a2</text>
<text text-anchor="start" x="206" y="-254.3" font-family="Times,serif" font-size="14.00"> a3</text>
</g>
<!-- Node0x9f4463b0 -->
<g id="node2" class="node"><title>Node0x9f4463b0</title>
<polygon fill="none" stroke="black" points="27,-96.5 27,-209.5 428,-209.5 428,-96.5 27,-96.5"/>
<text text-anchor="start" x="35" y="-194.3" font-family="Times,serif" font-size="14.00">v1 = IntToPtrCastExpr&lt;ptr&gt;((g5 &#45; 3932161))</text>
<text text-anchor="start" x="35" y="-179.3" font-family="Times,serif" font-size="14.00"> *(v1) = (g4 &amp; *(v1))</text>
<text text-anchor="start" x="35" y="-164.3" font-family="Times,serif" font-size="14.00"> unknown_42a92c()</text>
<text text-anchor="start" x="35" y="-149.3" font-family="Times,serif" font-size="14.00"> v2</text>
<text text-anchor="start" x="35" y="-134.3" font-family="Times,serif" font-size="14.00"> result = function_4320b3(BitCastExpr&lt;ptr&gt;(&amp;(v2)))</text>
<text text-anchor="start" x="35" y="-119.3" font-family="Times,serif" font-size="14.00"> g5 = v2</text>
<text text-anchor="start" x="35" y="-104.3" font-family="Times,serif" font-size="14.00"> return result</text>
</g>
<!-- Node0x2fa5bac0&#45;&gt;Node0x9f4463b0 -->
<g id="edge1" class="edge"><title>Node0x2fa5bac0&#45;&gt;Node0x9f4463b0</title>
<path fill="none" stroke="black" d="M227.5,-246.198C227.5,-238.073 227.5,-229.096 227.5,-220.027"/>
<polygon fill="black" stroke="black" points="231,-219.79 227.5,-209.79 224,-219.79 231,-219.79"/>
</g>
<!-- Node0x2fa52850 -->
<g id="node3" class="node"><title>Node0x2fa52850</title>
<polygon fill="none" stroke="black" points="200.5,-23.5 200.5,-59.5 254.5,-59.5 254.5,-23.5 200.5,-23.5"/>
<text text-anchor="start" x="208.5" y="-37.8" font-family="Times,serif" font-size="14.00">exit:</text>
</g>
<!-- Node0x9f4463b0&#45;&gt;Node0x2fa52850 -->
<g id="edge2" class="edge"><title>Node0x9f4463b0&#45;&gt;Node0x2fa52850</title>
<path fill="none" stroke="black" d="M227.5,-96.2876C227.5,-87.1343 227.5,-78.0169 227.5,-69.9591"/>
<polygon fill="black" stroke="black" points="231,-69.7241 227.5,-59.7242 224,-69.7242 231,-69.7241"/>
</g>
</g>
</svg>
