<?xml version="1.0" encoding="UTF-8" standalone="no"?>
<!DOCTYPE svg PUBLIC "-//W3C//DTD SVG 1.1//EN"
 "http://www.w3.org/Graphics/SVG/1.1/DTD/svg11.dtd">
<!-- Generated by graphviz version 2.38.0 (20140413.2041)
 -->
<!-- Title: Control&#45;flow graph for function &#39;function_41670d(a1)&#39;. Pages: 1 -->
<svg width="1460pt" height="1449pt"
 viewBox="0.00 0.00 1459.50 1449.00" xmlns="http://www.w3.org/2000/svg" xmlns:xlink="http://www.w3.org/1999/xlink">
<g id="graph0" class="graph" transform="scale(1 1) rotate(0) translate(4 1445)">
<title>Control&#45;flow graph for function &#39;function_41670d(a1)&#39;.</title>
<polygon fill="white" stroke="none" points="-4,4 -4,-1445 1455.5,-1445 1455.5,4 -4,4"/>
<text text-anchor="middle" x="725.75" y="-7.8" font-family="Times,serif" font-size="14.00">Control&#45;flow graph for function &#39;function_41670d(a1)&#39;.</text>
<!-- Node0x2595f250 -->
<g id="node1" class="node"><title>Node0x2595f250</title>
<polygon fill="none" stroke="black" points="602,-1402.5 602,-1440.5 661,-1440.5 661,-1402.5 602,-1402.5"/>
<text text-anchor="start" x="610" y="-1425.3" font-family="Times,serif" font-size="14.00">entry:</text>
<text text-anchor="start" x="610" y="-1410.3" font-family="Times,serif" font-size="14.00"> a1</text>
</g>
<!-- Node0x8815f390 -->
<g id="node2" class="node"><title>Node0x8815f390</title>
<polygon fill="none" stroke="black" points="303.5,-1131.5 303.5,-1364.5 959.5,-1364.5 959.5,-1131.5 303.5,-1131.5"/>
<text text-anchor="start" x="311.5" y="-1349.3" font-family="Times,serif" font-size="14.00">v1 = 8</text>
<text text-anchor="start" x="311.5" y="-1334.3" font-family="Times,serif" font-size="14.00"> g2 = 4418654</text>
<text text-anchor="start" x="311.5" y="-1319.3" font-family="Times,serif" font-size="14.00"> __EH_prolog3()</text>
<text text-anchor="start" x="311.5" y="-1304.3" font-family="Times,serif" font-size="14.00"> v2 = g3</text>
<text text-anchor="start" x="311.5" y="-1289.3" font-family="Times,serif" font-size="14.00"> v3 = *(IntToPtrCastExpr&lt;ptr&gt;((v2 + 8)))</text>
<text text-anchor="start" x="311.5" y="-1274.3" font-family="Times,serif" font-size="14.00"> g7 = v3</text>
<text text-anchor="start" x="311.5" y="-1259.3" font-family="Times,serif" font-size="14.00"> g5 = (v2 &#45; 20)</text>
<text text-anchor="start" x="311.5" y="-1244.3" font-family="Times,serif" font-size="14.00"> function_410276(IntToPtrCastExpr&lt;ptr&gt;(*(IntToPtrCastExpr&lt;ptr&gt;((v3 &#45; 176)))), &amp;(v1))</text>
<text text-anchor="start" x="311.5" y="-1229.3" font-family="Times,serif" font-size="14.00"> v4 = g3</text>
<text text-anchor="start" x="311.5" y="-1214.3" font-family="Times,serif" font-size="14.00"> v5 = *(IntToPtrCastExpr&lt;ptr&gt;((v4 + 16)))</text>
<text text-anchor="start" x="311.5" y="-1199.3" font-family="Times,serif" font-size="14.00"> g2 = v5</text>
<text text-anchor="start" x="311.5" y="-1184.3" font-family="Times,serif" font-size="14.00"> g4 = 0</text>
<text text-anchor="start" x="311.5" y="-1169.3" font-family="Times,serif" font-size="14.00"> g1 = False</text>
<text text-anchor="start" x="311.5" y="-1154.3" font-family="Times,serif" font-size="14.00"> g180 = (v5 == 0)</text>
<text text-anchor="start" x="311.5" y="-1139.3" font-family="Times,serif" font-size="14.00"> *(IntToPtrCastExpr&lt;ptr&gt;((v4 &#45; 4))) = 0</text>
</g>
<!-- Node0x2595f250&#45;&gt;Node0x8815f390 -->
<g id="edge1" class="edge"><title>Node0x2595f250&#45;&gt;Node0x8815f390</title>
<path fill="none" stroke="black" d="M631.5,-1402.47C631.5,-1394.83 631.5,-1385.23 631.5,-1374.57"/>
<polygon fill="black" stroke="black" points="635,-1374.5 631.5,-1364.5 628,-1374.5 635,-1374.5"/>
</g>
<!-- Node0x29552c10 -->
<g id="node3" class="node"><title>Node0x29552c10</title>
<polygon fill="none" stroke="black" points="582,-1057.5 582,-1093.5 681,-1093.5 681,-1057.5 582,-1057.5"/>
<text text-anchor="start" x="590" y="-1071.8" font-family="Times,serif" font-size="14.00">if (v5 != 0):</text>
</g>
<!-- Node0x8815f390&#45;&gt;Node0x29552c10 -->
<g id="edge2" class="edge"><title>Node0x8815f390&#45;&gt;Node0x29552c10</title>
<path fill="none" stroke="black" d="M631.5,-1131.39C631.5,-1121.42 631.5,-1112.1 631.5,-1104.06"/>
<polygon fill="black" stroke="black" points="635,-1103.96 631.5,-1093.96 628,-1103.96 635,-1103.96"/>
</g>
<!-- Node0x1aea4720 -->
<g id="node4" class="node"><title>Node0x1aea4720</title>
<polygon fill="none" stroke="black" points="359.5,-967.5 359.5,-1005.5 639.5,-1005.5 639.5,-967.5 359.5,-967.5"/>
<text text-anchor="start" x="367.5" y="-990.3" font-family="Times,serif" font-size="14.00">0x416736:</text>
<text text-anchor="start" x="367.5" y="-975.3" font-family="Times,serif" font-size="14.00"> *(IntToPtrCastExpr&lt;ptr&gt;(g2)) = g4</text>
</g>
<!-- Node0x29552c10&#45;&gt;Node0x1aea4720 -->
<g id="edge3" class="edge"><title>Node0x29552c10&#45;&gt;Node0x1aea4720</title>
<path fill="none" stroke="black" d="M605.421,-1057.31C585.389,-1044.11 557.499,-1025.73 535.366,-1011.14"/>
<polygon fill="black" stroke="black" points="537.164,-1008.13 526.888,-1005.55 533.312,-1013.98 537.164,-1008.13"/>
<text text-anchor="middle" x="604.5" y="-1027.8" font-family="Times,serif" font-size="14.00">v5 != 0</text>
</g>
<!-- Node0x29555760 -->
<g id="node5" class="node"><title>Node0x29555760</title>
<polygon fill="none" stroke="black" points="460,-861.5 460,-929.5 791,-929.5 791,-861.5 460,-861.5"/>
<text text-anchor="start" x="468" y="-914.3" font-family="Times,serif" font-size="14.00">0x416738:</text>
<text text-anchor="start" x="468" y="-899.3" font-family="Times,serif" font-size="14.00"> g5 = *(IntToPtrCastExpr&lt;ptr&gt;((g7 &#45; 172)))</text>
<text text-anchor="start" x="468" y="-884.3" font-family="Times,serif" font-size="14.00"> v6 = 4448052</text>
<text text-anchor="start" x="468" y="-869.3" font-family="Times,serif" font-size="14.00"> v7</text>
</g>
<!-- Node0x29552c10&#45;&gt;Node0x29555760 -->
<g id="edge4" class="edge"><title>Node0x29552c10&#45;&gt;Node0x29555760</title>
<path fill="none" stroke="black" d="M637.556,-1057.37C644.284,-1036.15 653.574,-998.91 648.5,-967 647.045,-957.849 644.59,-948.272 641.813,-939.231"/>
<polygon fill="black" stroke="black" points="645.127,-938.103 638.705,-929.676 638.47,-940.269 645.127,-938.103"/>
<text text-anchor="middle" x="680.5" y="-982.8" font-family="Times,serif" font-size="14.00">v5 == 0</text>
</g>
<!-- Node0x1aea4720&#45;&gt;Node0x29555760 -->
<g id="edge5" class="edge"><title>Node0x1aea4720&#45;&gt;Node0x29555760</title>
<path fill="none" stroke="black" d="M524.998,-967.49C538.102,-958.233 554.61,-946.573 570.439,-935.392"/>
<polygon fill="black" stroke="black" points="572.484,-938.233 578.633,-929.605 568.445,-932.515 572.484,-938.233"/>
</g>
<!-- Node0x29557cd0 -->
<g id="node6" class="node"><title>Node0x29557cd0</title>
<polygon fill="none" stroke="black" points="356.5,-787.5 356.5,-823.5 894.5,-823.5 894.5,-787.5 356.5,-787.5"/>
<text text-anchor="start" x="364.5" y="-801.8" font-family="Times,serif" font-size="14.00">if (function_41c2f0(&amp;(v6), *(IntToPtrCastExpr&lt;ptr&gt;((g3 + 12)))) &lt;= &#45;1):</text>
</g>
<!-- Node0x29555760&#45;&gt;Node0x29557cd0 -->
<g id="edge6" class="edge"><title>Node0x29555760&#45;&gt;Node0x29557cd0</title>
<path fill="none" stroke="black" d="M625.5,-861.482C625.5,-852.328 625.5,-842.497 625.5,-833.715"/>
<polygon fill="black" stroke="black" points="629,-833.64 625.5,-823.64 622,-833.64 629,-833.64"/>
</g>
<!-- Node0x9ed42a70 -->
<g id="node7" class="node"><title>Node0x9ed42a70</title>
<polygon fill="none" stroke="black" points="213.5,-532.5 213.5,-585.5 521.5,-585.5 521.5,-532.5 213.5,-532.5"/>
<text text-anchor="start" x="221.5" y="-570.3" font-family="Times,serif" font-size="14.00">0x41674f:</text>
<text text-anchor="start" x="221.5" y="-555.3" font-family="Times,serif" font-size="14.00"> *(IntToPtrCastExpr&lt;ptr&gt;((g3 &#45; 4))) = &#45;1</text>
<text text-anchor="start" x="221.5" y="-540.3" font-family="Times,serif" font-size="14.00"> v8 = g4</text>
</g>
<!-- Node0x29557cd0&#45;&gt;Node0x9ed42a70 -->
<g id="edge7" class="edge"><title>Node0x29557cd0&#45;&gt;Node0x9ed42a70</title>
<path fill="none" stroke="black" d="M403.137,-787.444C387.446,-782.666 375.176,-776.625 368.5,-769 326.722,-721.286 341.525,-641.302 355.123,-595.354"/>
<polygon fill="black" stroke="black" points="358.547,-596.129 358.162,-585.541 351.86,-594.058 358.547,-596.129"/>
<text text-anchor="middle" x="615" y="-757.8" font-family="Times,serif" font-size="14.00">function_41c2f0(&amp;(v6), *(IntToPtrCastExpr&lt;ptr&gt;((g3 + 12)))) &lt;= &#45;1</text>
</g>
<!-- Node0x1257bd60 -->
<g id="node8" class="node"><title>Node0x1257bd60</title>
<polygon fill="none" stroke="black" points="564.5,-382.5 564.5,-735.5 1202.5,-735.5 1202.5,-382.5 564.5,-382.5"/>
<text text-anchor="start" x="572.5" y="-720.3" font-family="Times,serif" font-size="14.00">v9 = g7</text>
<text text-anchor="start" x="572.5" y="-705.3" font-family="Times,serif" font-size="14.00"> v10 = *(IntToPtrCastExpr&lt;ptr&gt;((v9 &#45; 172)))</text>
<text text-anchor="start" x="572.5" y="-690.3" font-family="Times,serif" font-size="14.00"> g2 = v10</text>
<text text-anchor="start" x="572.5" y="-675.3" font-family="Times,serif" font-size="14.00"> g9 = *(IntToPtrCastExpr&lt;ptr&gt;((v10 + 32)))</text>
<text text-anchor="start" x="572.5" y="-660.3" font-family="Times,serif" font-size="14.00"> lprcSrc = (v9 &#45; 156)</text>
<text text-anchor="start" x="572.5" y="-645.3" font-family="Times,serif" font-size="14.00"> g7 = lprcSrc</text>
<text text-anchor="start" x="572.5" y="-630.3" font-family="Times,serif" font-size="14.00"> lprcDst = IntToPtrCastExpr&lt;ptr&gt;(*(IntToPtrCastExpr&lt;ptr&gt;((g3 + 20))))</text>
<text text-anchor="start" x="572.5" y="-615.3" font-family="Times,serif" font-size="14.00"> v7 = lprcDst</text>
<text text-anchor="start" x="572.5" y="-600.3" font-family="Times,serif" font-size="14.00"> CopyRect(lprcDst, IntToPtrCastExpr&lt;ptr&gt;(lprcSrc))</text>
<text text-anchor="start" x="572.5" y="-585.3" font-family="Times,serif" font-size="14.00"> hWnd = *(IntToPtrCastExpr&lt;ptr&gt;((g9 + 32)))</text>
<text text-anchor="start" x="572.5" y="-570.3" font-family="Times,serif" font-size="14.00"> v7 = IntToPtrCastExpr&lt;ptr&gt;(hWnd)</text>
<text text-anchor="start" x="572.5" y="-555.3" font-family="Times,serif" font-size="14.00"> GetClientRect(hWnd, IntToPtrCastExpr&lt;ptr&gt;(*(IntToPtrCastExpr&lt;ptr&gt;((g3 + 24)))))</text>
<text text-anchor="start" x="572.5" y="-540.3" font-family="Times,serif" font-size="14.00"> g10 = &amp;(v6)</text>
<text text-anchor="start" x="572.5" y="-525.3" font-family="Times,serif" font-size="14.00"> v11 = g3</text>
<text text-anchor="start" x="572.5" y="-510.3" font-family="Times,serif" font-size="14.00"> g2 = *(IntToPtrCastExpr&lt;ptr&gt;((v11 + 28)))</text>
<text text-anchor="start" x="572.5" y="-495.3" font-family="Times,serif" font-size="14.00"> *(IntToPtrCastExpr&lt;ptr&gt;((v11 &#45; 4))) = &#45;1</text>
<text text-anchor="start" x="572.5" y="-480.3" font-family="Times,serif" font-size="14.00"> v12 = g4</text>
<text text-anchor="start" x="572.5" y="-465.3" font-family="Times,serif" font-size="14.00"> *(IntToPtrCastExpr&lt;ptr&gt;((g2 + 4))) = v12</text>
<text text-anchor="start" x="572.5" y="-450.3" font-family="Times,serif" font-size="14.00"> v13 = *(IntToPtrCastExpr&lt;ptr&gt;((g9 + 32)))</text>
<text text-anchor="start" x="572.5" y="-435.3" font-family="Times,serif" font-size="14.00"> g9 = v13</text>
<text text-anchor="start" x="572.5" y="-420.3" font-family="Times,serif" font-size="14.00"> *(IntToPtrCastExpr&lt;ptr&gt;((g2 + 8))) = v13</text>
<text text-anchor="start" x="572.5" y="-405.3" font-family="Times,serif" font-size="14.00"> *(IntToPtrCastExpr&lt;ptr&gt;((g2 + 12))) = g4</text>
<text text-anchor="start" x="572.5" y="-390.3" font-family="Times,serif" font-size="14.00"> *(IntToPtrCastExpr&lt;ptr&gt;((g2 + 16))) = g4</text>
</g>
<!-- Node0x29557cd0&#45;&gt;Node0x1257bd60 -->
<g id="edge8" class="edge"><title>Node0x29557cd0&#45;&gt;Node0x1257bd60</title>
<path fill="none" stroke="black" d="M822.572,-787.492C840.167,-782.754 854.125,-776.71 861.5,-769 868.426,-761.76 874.118,-753.668 878.763,-744.991"/>
<polygon fill="black" stroke="black" points="882.031,-746.273 883.232,-735.747 875.729,-743.226 882.031,-746.273"/>
<text text-anchor="middle" x="1113" y="-757.8" font-family="Times,serif" font-size="14.00">function_41c2f0(&amp;(v6), *(IntToPtrCastExpr&lt;ptr&gt;((g3 + 12)))) &gt; &#45;1</text>
</g>
<!-- Node0x2954c5d0 -->
<g id="node9" class="node"><title>Node0x2954c5d0</title>
<polygon fill="none" stroke="black" points="191.5,-308.5 191.5,-344.5 543.5,-344.5 543.5,-308.5 191.5,-308.5"/>
<text text-anchor="start" x="199.5" y="-322.8" font-family="Times,serif" font-size="14.00">if (*(IntToPtrCastExpr&lt;ptr&gt;((g3 &#45; 16))) != v8):</text>
</g>
<!-- Node0x9ed42a70&#45;&gt;Node0x2954c5d0 -->
<g id="edge9" class="edge"><title>Node0x9ed42a70&#45;&gt;Node0x2954c5d0</title>
<path fill="none" stroke="black" d="M367.5,-532.452C367.5,-488.704 367.5,-399.83 367.5,-354.866"/>
<polygon fill="black" stroke="black" points="371,-354.689 367.5,-344.69 364,-354.69 371,-354.689"/>
</g>
<!-- Node0x23d53060 -->
<g id="node10" class="node"><title>Node0x23d53060</title>
<polygon fill="none" stroke="black" points="703,-308.5 703,-344.5 1064,-344.5 1064,-308.5 703,-308.5"/>
<text text-anchor="start" x="711" y="-322.8" font-family="Times,serif" font-size="14.00">if (*(IntToPtrCastExpr&lt;ptr&gt;((g3 &#45; 16))) != v12):</text>
</g>
<!-- Node0x1257bd60&#45;&gt;Node0x23d53060 -->
<g id="edge10" class="edge"><title>Node0x1257bd60&#45;&gt;Node0x23d53060</title>
<path fill="none" stroke="black" d="M883.5,-382.418C883.5,-372.318 883.5,-363.08 883.5,-355.179"/>
<polygon fill="black" stroke="black" points="887,-354.949 883.5,-344.949 880,-354.949 887,-354.949"/>
</g>
<!-- Node0xd25af5e0 -->
<g id="node11" class="node"><title>Node0xd25af5e0</title>
<polygon fill="none" stroke="black" points="0,-188.5 0,-256.5 309,-256.5 309,-188.5 0,-188.5"/>
<text text-anchor="start" x="8" y="-241.3" font-family="Times,serif" font-size="14.00">0x416758:</text>
<text text-anchor="start" x="8" y="-226.3" font-family="Times,serif" font-size="14.00"> v7 = IntToPtrCastExpr&lt;ptr&gt;(v8)</text>
<text text-anchor="start" x="8" y="-211.3" font-family="Times,serif" font-size="14.00"> g10 = PtrToIntCastExpr&lt;int32&gt;(&amp;(v7))</text>
<text text-anchor="start" x="8" y="-196.3" font-family="Times,serif" font-size="14.00"> function_40fa42()</text>
</g>
<!-- Node0x2954c5d0&#45;&gt;Node0xd25af5e0 -->
<g id="edge11" class="edge"><title>Node0x2954c5d0&#45;&gt;Node0xd25af5e0</title>
<path fill="none" stroke="black" d="M191.429,-312.062C141.055,-306.432 97.4777,-299.061 89.5,-290 81.9856,-281.465 83.5272,-272.592 89.7102,-264.214"/>
<polygon fill="black" stroke="black" points="92.4229,-266.433 96.5667,-256.682 87.2466,-261.721 92.4229,-266.433"/>
<text text-anchor="middle" x="243" y="-278.8" font-family="Times,serif" font-size="14.00">*(IntToPtrCastExpr&lt;ptr&gt;((g3 &#45; 16))) != v8</text>
</g>
<!-- Node0x563f4660 -->
<g id="node12" class="node"><title>Node0x563f4660</title>
<polygon fill="none" stroke="black" points="327.5,-97.5 327.5,-150.5 493.5,-150.5 493.5,-97.5 327.5,-97.5"/>
<text text-anchor="start" x="335.5" y="-135.3" font-family="Times,serif" font-size="14.00">0x4167b3:</text>
<text text-anchor="start" x="335.5" y="-120.3" font-family="Times,serif" font-size="14.00"> __EH_epilog3()</text>
<text text-anchor="start" x="335.5" y="-105.3" font-family="Times,serif" font-size="14.00"> return &#45;2147467259</text>
</g>
<!-- Node0x2954c5d0&#45;&gt;Node0x563f4660 -->
<g id="edge12" class="edge"><title>Node0x2954c5d0&#45;&gt;Node0x563f4660</title>
<path fill="none" stroke="black" d="M384.876,-308.452C389.429,-302.997 393.811,-296.639 396.5,-290 413.517,-247.982 414.882,-195.124 413.421,-160.722"/>
<polygon fill="black" stroke="black" points="416.913,-160.473 412.891,-150.671 409.922,-160.841 416.913,-160.473"/>
<text text-anchor="middle" x="571" y="-218.8" font-family="Times,serif" font-size="14.00">*(IntToPtrCastExpr&lt;ptr&gt;((g3 &#45; 16))) == v8</text>
</g>
<!-- Node0x88161240 -->
<g id="node13" class="node"><title>Node0x88161240</title>
<polygon fill="none" stroke="black" points="742,-188.5 742,-256.5 1051,-256.5 1051,-188.5 742,-188.5"/>
<text text-anchor="start" x="750" y="-241.3" font-family="Times,serif" font-size="14.00">0x4167a8:</text>
<text text-anchor="start" x="750" y="-226.3" font-family="Times,serif" font-size="14.00"> v7 = IntToPtrCastExpr&lt;ptr&gt;(g4)</text>
<text text-anchor="start" x="750" y="-211.3" font-family="Times,serif" font-size="14.00"> g10 = PtrToIntCastExpr&lt;int32&gt;(&amp;(v7))</text>
<text text-anchor="start" x="750" y="-196.3" font-family="Times,serif" font-size="14.00"> function_40fa42()</text>
</g>
<!-- Node0x23d53060&#45;&gt;Node0x88161240 -->
<g id="edge13" class="edge"><title>Node0x23d53060&#45;&gt;Node0x88161240</title>
<path fill="none" stroke="black" d="M818.419,-308.46C801.741,-300.587 790.688,-289.656 799.5,-275 802.008,-270.828 804.981,-266.976 808.301,-263.422"/>
<polygon fill="black" stroke="black" points="810.715,-265.956 815.565,-256.537 805.899,-260.876 810.715,-265.956"/>
<text text-anchor="middle" x="957.5" y="-278.8" font-family="Times,serif" font-size="14.00">*(IntToPtrCastExpr&lt;ptr&gt;((g3 &#45; 16))) != v12</text>
</g>
<!-- Node0x2954e710 -->
<g id="node14" class="node"><title>Node0x2954e710</title>
<polygon fill="none" stroke="black" points="831.5,-97.5 831.5,-150.5 961.5,-150.5 961.5,-97.5 831.5,-97.5"/>
<text text-anchor="start" x="839.5" y="-135.3" font-family="Times,serif" font-size="14.00">0x4167b3:</text>
<text text-anchor="start" x="839.5" y="-120.3" font-family="Times,serif" font-size="14.00"> __EH_epilog3()</text>
<text text-anchor="start" x="839.5" y="-105.3" font-family="Times,serif" font-size="14.00"> return 0</text>
</g>
<!-- Node0x23d53060&#45;&gt;Node0x2954e710 -->
<g id="edge14" class="edge"><title>Node0x23d53060&#45;&gt;Node0x2954e710</title>
<path fill="none" stroke="black" d="M1064.09,-312.422C1087.82,-307.225 1106.91,-300.009 1115.5,-290 1168.37,-228.42 1053.68,-175.677 971.163,-147.314"/>
<polygon fill="black" stroke="black" points="972.12,-143.943 961.525,-144.061 969.881,-150.576 972.12,-143.943"/>
<text text-anchor="middle" x="1290.5" y="-218.8" font-family="Times,serif" font-size="14.00">*(IntToPtrCastExpr&lt;ptr&gt;((g3 &#45; 16))) == v12</text>
</g>
<!-- Node0xd25af5e0&#45;&gt;Node0x563f4660 -->
<g id="edge15" class="edge"><title>Node0xd25af5e0&#45;&gt;Node0x563f4660</title>
<path fill="none" stroke="black" d="M242.243,-188.425C271.762,-177.298 304.461,-164.972 333.123,-154.167"/>
<polygon fill="black" stroke="black" points="334.556,-157.368 342.678,-150.566 332.086,-150.818 334.556,-157.368"/>
</g>
<!-- Node0xd25aaa70 -->
<g id="node15" class="node"><title>Node0xd25aaa70</title>
<polygon fill="none" stroke="black" points="683.5,-23.5 683.5,-59.5 737.5,-59.5 737.5,-23.5 683.5,-23.5"/>
<text text-anchor="start" x="691.5" y="-37.8" font-family="Times,serif" font-size="14.00">exit:</text>
</g>
<!-- Node0x563f4660&#45;&gt;Node0xd25aaa70 -->
<g id="edge16" class="edge"><title>Node0x563f4660&#45;&gt;Node0xd25aaa70</title>
<path fill="none" stroke="black" d="M493.668,-100.683C552.709,-84.8406 629.114,-64.3387 673.679,-52.3803"/>
<polygon fill="black" stroke="black" points="674.739,-55.7197 683.49,-49.7476 672.925,-48.9589 674.739,-55.7197"/>
</g>
<!-- Node0x88161240&#45;&gt;Node0x2954e710 -->
<g id="edge17" class="edge"><title>Node0x88161240&#45;&gt;Node0x2954e710</title>
<path fill="none" stroke="black" d="M896.5,-188.29C896.5,-179.434 896.5,-169.827 896.5,-160.837"/>
<polygon fill="black" stroke="black" points="900,-160.648 896.5,-150.648 893,-160.648 900,-160.648"/>
</g>
<!-- Node0x2954e710&#45;&gt;Node0xd25aaa70 -->
<g id="edge18" class="edge"><title>Node0x2954e710&#45;&gt;Node0xd25aaa70</title>
<path fill="none" stroke="black" d="M837.393,-97.4187C807.775,-84.6003 772.845,-69.4824 747.138,-58.3568"/>
<polygon fill="black" stroke="black" points="748.335,-55.0613 737.768,-54.3014 745.555,-61.4854 748.335,-55.0613"/>
</g>
</g>
</svg>
