<?xml version="1.0" encoding="UTF-8" standalone="no"?>
<!DOCTYPE svg PUBLIC "-//W3C//DTD SVG 1.1//EN"
 "http://www.w3.org/Graphics/SVG/1.1/DTD/svg11.dtd">
<!-- Generated by graphviz version 2.38.0 (20140413.2041)
 -->
<!-- Title: Control&#45;flow graph for function &#39;function_401e11(a1, a2)&#39;. Pages: 1 -->
<svg width="892pt" height="597pt"
 viewBox="0.00 0.00 891.50 597.00" xmlns="http://www.w3.org/2000/svg" xmlns:xlink="http://www.w3.org/1999/xlink">
<g id="graph0" class="graph" transform="scale(1 1) rotate(0) translate(4 593)">
<title>Control&#45;flow graph for function &#39;function_401e11(a1, a2)&#39;.</title>
<polygon fill="white" stroke="none" points="-4,4 -4,-593 887.5,-593 887.5,4 -4,4"/>
<text text-anchor="middle" x="441.75" y="-7.8" font-family="Times,serif" font-size="14.00">Control&#45;flow graph for function &#39;function_401e11(a1, a2)&#39;.</text>
<!-- Node0x214fb170 -->
<g id="node1" class="node"><title>Node0x214fb170</title>
<polygon fill="none" stroke="black" points="579.5,-535.5 579.5,-588.5 638.5,-588.5 638.5,-535.5 579.5,-535.5"/>
<text text-anchor="start" x="587.5" y="-573.3" font-family="Times,serif" font-size="14.00">entry:</text>
<text text-anchor="start" x="587.5" y="-558.3" font-family="Times,serif" font-size="14.00"> a1</text>
<text text-anchor="start" x="587.5" y="-543.3" font-family="Times,serif" font-size="14.00"> a2</text>
</g>
<!-- Node0x214fbc00 -->
<g id="node2" class="node"><title>Node0x214fbc00</title>
<polygon fill="none" stroke="black" points="362.5,-399.5 362.5,-497.5 855.5,-497.5 855.5,-399.5 362.5,-399.5"/>
<text text-anchor="start" x="370.5" y="-482.3" font-family="Times,serif" font-size="14.00">v1 = g2</text>
<text text-anchor="start" x="370.5" y="-467.3" font-family="Times,serif" font-size="14.00"> lpThreadId = g5</text>
<text text-anchor="start" x="370.5" y="-452.3" font-family="Times,serif" font-size="14.00"> g2 = (((256 * (lpThreadId + (v1 / 256))) &amp; 65280) | (v1 &amp; &#45;65281))</text>
<text text-anchor="start" x="370.5" y="-437.3" font-family="Times,serif" font-size="14.00"> v2 = &amp;(lpThreadId)</text>
<text text-anchor="start" x="370.5" y="-422.3" font-family="Times,serif" font-size="14.00"> v3 = function_40afc3(BitCastExpr&lt;ptr&gt;(&amp;(lpThreadId)))</text>
<text text-anchor="start" x="370.5" y="-407.3" font-family="Times,serif" font-size="14.00"> result</text>
</g>
<!-- Node0x214fb170&#45;&gt;Node0x214fbc00 -->
<g id="edge1" class="edge"><title>Node0x214fb170&#45;&gt;Node0x214fbc00</title>
<path fill="none" stroke="black" d="M609,-535.42C609,-527.117 609,-517.536 609,-507.851"/>
<polygon fill="black" stroke="black" points="612.5,-507.768 609,-497.768 605.5,-507.768 612.5,-507.768"/>
</g>
<!-- Node0x214fbce0 -->
<g id="node3" class="node"><title>Node0x214fbce0</title>
<polygon fill="none" stroke="black" points="554.5,-323.5 554.5,-361.5 663.5,-361.5 663.5,-323.5 554.5,-323.5"/>
<text text-anchor="start" x="562.5" y="-346.3" font-family="Times,serif" font-size="14.00">if (g32 != 0):</text>
<text text-anchor="start" x="562.5" y="-331.3" font-family="Times,serif" font-size="14.00"> else:</text>
</g>
<!-- Node0x214fbc00&#45;&gt;Node0x214fbce0 -->
<g id="edge2" class="edge"><title>Node0x214fbc00&#45;&gt;Node0x214fbce0</title>
<path fill="none" stroke="black" d="M609,-399.458C609,-389.952 609,-380.27 609,-371.69"/>
<polygon fill="black" stroke="black" points="612.5,-371.509 609,-361.509 605.5,-371.509 612.5,-371.509"/>
</g>
<!-- Node0x1bf0c030 -->
<g id="node4" class="node"><title>Node0x1bf0c030</title>
<polygon fill="none" stroke="black" points="0,-173.5 0,-271.5 768,-271.5 768,-173.5 0,-173.5"/>
<text text-anchor="start" x="8" y="-256.3" font-family="Times,serif" font-size="14.00">0x401e3f:</text>
<text text-anchor="start" x="8" y="-241.3" font-family="Times,serif" font-size="14.00"> g2 = v2</text>
<text text-anchor="start" x="8" y="-226.3" font-family="Times,serif" font-size="14.00"> g32 = 0</text>
<text text-anchor="start" x="8" y="-211.3" font-family="Times,serif" font-size="14.00"> threadHandle = CreateThread(NULL, 0, BitCastExpr&lt;ptr&gt;(function_4015d0), NULL, 0, &amp;(lpThreadId))</text>
<text text-anchor="start" x="8" y="-196.3" font-family="Times,serif" font-size="14.00"> g10 = v2</text>
<text text-anchor="start" x="8" y="-181.3" font-family="Times,serif" font-size="14.00"> result = PtrToIntCastExpr&lt;int32&gt;(threadHandle)</text>
</g>
<!-- Node0x214fbce0&#45;&gt;Node0x1bf0c030 -->
<g id="edge3" class="edge"><title>Node0x214fbce0&#45;&gt;Node0x1bf0c030</title>
<path fill="none" stroke="black" d="M574.337,-323.321C550.224,-310.675 516.754,-293.122 484.596,-276.257"/>
<polygon fill="black" stroke="black" points="486.051,-273.068 475.569,-271.523 482.8,-279.267 486.051,-273.068"/>
<text text-anchor="middle" x="569" y="-293.8" font-family="Times,serif" font-size="14.00">g32 != 0</text>
</g>
<!-- Node0x214fa840 -->
<g id="node5" class="node"><title>Node0x214fa840</title>
<polygon fill="none" stroke="black" points="786.5,-204.5 786.5,-240.5 883.5,-240.5 883.5,-204.5 786.5,-204.5"/>
<text text-anchor="start" x="794.5" y="-218.8" font-family="Times,serif" font-size="14.00">result = v3</text>
</g>
<!-- Node0x214fbce0&#45;&gt;Node0x214fa840 -->
<g id="edge4" class="edge"><title>Node0x214fbce0&#45;&gt;Node0x214fa840</title>
<path fill="none" stroke="black" d="M663.592,-323.703C697.475,-311.515 741.222,-293.658 777,-272 788.492,-265.043 800.065,-255.897 809.818,-247.425"/>
<polygon fill="black" stroke="black" points="812.413,-249.8 817.541,-240.529 807.75,-244.579 812.413,-249.8"/>
<text text-anchor="middle" x="778" y="-293.8" font-family="Times,serif" font-size="14.00">g32 == 0</text>
</g>
<!-- Node0x214fc050 -->
<g id="node6" class="node"><title>Node0x214fc050</title>
<polygon fill="none" stroke="black" points="605.5,-97.5 605.5,-135.5 718.5,-135.5 718.5,-97.5 605.5,-97.5"/>
<text text-anchor="start" x="613.5" y="-120.3" font-family="Times,serif" font-size="14.00">0x401e5d:</text>
<text text-anchor="start" x="613.5" y="-105.3" font-family="Times,serif" font-size="14.00"> return result</text>
</g>
<!-- Node0x1bf0c030&#45;&gt;Node0x214fc050 -->
<g id="edge5" class="edge"><title>Node0x1bf0c030&#45;&gt;Node0x214fc050</title>
<path fill="none" stroke="black" d="M512.421,-173.458C544.605,-161.418 577.549,-149.093 604.299,-139.086"/>
<polygon fill="black" stroke="black" points="605.722,-142.291 613.861,-135.509 603.269,-135.735 605.722,-142.291"/>
</g>
<!-- Node0x214fa840&#45;&gt;Node0x214fc050 -->
<g id="edge6" class="edge"><title>Node0x214fa840&#45;&gt;Node0x214fc050</title>
<path fill="none" stroke="black" d="M816.845,-204.312C805.844,-194.424 791.228,-182.181 777,-173 757.623,-160.497 735.005,-148.991 714.979,-139.736"/>
<polygon fill="black" stroke="black" points="716.235,-136.462 705.683,-135.513 713.34,-142.836 716.235,-136.462"/>
</g>
<!-- Node0x214fbba0 -->
<g id="node7" class="node"><title>Node0x214fbba0</title>
<polygon fill="none" stroke="black" points="635,-23.5 635,-59.5 689,-59.5 689,-23.5 635,-23.5"/>
<text text-anchor="start" x="643" y="-37.8" font-family="Times,serif" font-size="14.00">exit:</text>
</g>
<!-- Node0x214fc050&#45;&gt;Node0x214fbba0 -->
<g id="edge7" class="edge"><title>Node0x214fc050&#45;&gt;Node0x214fbba0</title>
<path fill="none" stroke="black" d="M662,-97.4551C662,-89.2008 662,-79.2377 662,-70.0742"/>
<polygon fill="black" stroke="black" points="665.5,-69.8347 662,-59.8347 658.5,-69.8347 665.5,-69.8347"/>
</g>
</g>
</svg>
