<?xml version="1.0" encoding="UTF-8" standalone="no"?>
<!DOCTYPE svg PUBLIC "-//W3C//DTD SVG 1.1//EN"
 "http://www.w3.org/Graphics/SVG/1.1/DTD/svg11.dtd">
<!-- Generated by graphviz version 2.38.0 (20140413.2041)
 -->
<!-- Title: Control&#45;flow graph for function &#39;function_411c5c(a1, a2, a3, a4, a5)&#39;. Pages: 1 -->
<svg width="792pt" height="655pt"
 viewBox="0.00 0.00 792.00 655.00" xmlns="http://www.w3.org/2000/svg" xmlns:xlink="http://www.w3.org/1999/xlink">
<g id="graph0" class="graph" transform="scale(1 1) rotate(0) translate(4 651)">
<title>Control&#45;flow graph for function &#39;function_411c5c(a1, a2, a3, a4, a5)&#39;.</title>
<polygon fill="white" stroke="none" points="-4,4 -4,-651 788,-651 788,4 -4,4"/>
<text text-anchor="middle" x="392" y="-7.8" font-family="Times,serif" font-size="14.00">Control&#45;flow graph for function &#39;function_411c5c(a1, a2, a3, a4, a5)&#39;.</text>
<!-- Node0x1161a0d0 -->
<g id="node1" class="node"><title>Node0x1161a0d0</title>
<polygon fill="none" stroke="black" points="595,-548.5 595,-646.5 654,-646.5 654,-548.5 595,-548.5"/>
<text text-anchor="start" x="603" y="-631.3" font-family="Times,serif" font-size="14.00">entry:</text>
<text text-anchor="start" x="603" y="-616.3" font-family="Times,serif" font-size="14.00"> a1</text>
<text text-anchor="start" x="603" y="-601.3" font-family="Times,serif" font-size="14.00"> a2</text>
<text text-anchor="start" x="603" y="-586.3" font-family="Times,serif" font-size="14.00"> a3</text>
<text text-anchor="start" x="603" y="-571.3" font-family="Times,serif" font-size="14.00"> a4</text>
<text text-anchor="start" x="603" y="-556.3" font-family="Times,serif" font-size="14.00"> a5</text>
</g>
<!-- Node0x21ac73d0 -->
<g id="node2" class="node"><title>Node0x21ac73d0</title>
<polygon fill="none" stroke="black" points="465,-397.5 465,-510.5 784,-510.5 784,-397.5 465,-397.5"/>
<text text-anchor="start" x="473" y="-495.3" font-family="Times,serif" font-size="14.00">v1 = g5</text>
<text text-anchor="start" x="473" y="-480.3" font-family="Times,serif" font-size="14.00"> g9 = v1</text>
<text text-anchor="start" x="473" y="-465.3" font-family="Times,serif" font-size="14.00"> v2 = *(IntToPtrCastExpr&lt;ptr&gt;((v1 + 4)))</text>
<text text-anchor="start" x="473" y="-450.3" font-family="Times,serif" font-size="14.00"> g10 = &amp;(v2)</text>
<text text-anchor="start" x="473" y="-435.3" font-family="Times,serif" font-size="14.00"> LockFile()</text>
<text text-anchor="start" x="473" y="-420.3" font-family="Times,serif" font-size="14.00"> result</text>
<text text-anchor="start" x="473" y="-405.3" font-family="Times,serif" font-size="14.00"> v3</text>
</g>
<!-- Node0x1161a0d0&#45;&gt;Node0x21ac73d0 -->
<g id="edge1" class="edge"><title>Node0x1161a0d0&#45;&gt;Node0x21ac73d0</title>
<path fill="none" stroke="black" d="M624.5,-548.199C624.5,-539.474 624.5,-530.24 624.5,-521.11"/>
<polygon fill="black" stroke="black" points="628,-520.878 624.5,-510.879 621,-520.879 628,-520.878"/>
</g>
<!-- Node0x21ac70a0 -->
<g id="node3" class="node"><title>Node0x21ac70a0</title>
<polygon fill="none" stroke="black" points="571.5,-323.5 571.5,-359.5 677.5,-359.5 677.5,-323.5 571.5,-323.5"/>
<text text-anchor="start" x="579.5" y="-337.8" font-family="Times,serif" font-size="14.00">if (g2 == 0):</text>
</g>
<!-- Node0x21ac73d0&#45;&gt;Node0x21ac70a0 -->
<g id="edge2" class="edge"><title>Node0x21ac73d0&#45;&gt;Node0x21ac70a0</title>
<path fill="none" stroke="black" d="M624.5,-397.426C624.5,-387.86 624.5,-378.307 624.5,-369.913"/>
<polygon fill="black" stroke="black" points="628,-369.644 624.5,-359.644 621,-369.644 628,-369.644"/>
</g>
<!-- Node0x1161a420 -->
<g id="node4" class="node"><title>Node0x1161a420</title>
<polygon fill="none" stroke="black" points="0,-188.5 0,-271.5 683,-271.5 683,-188.5 0,-188.5"/>
<text text-anchor="start" x="8" y="-256.3" font-family="Times,serif" font-size="14.00">v4 = *(IntToPtrCastExpr&lt;ptr&gt;((g9 + 12)))</text>
<text text-anchor="start" x="8" y="-241.3" font-family="Times,serif" font-size="14.00"> errorCode = GetLastError()</text>
<text text-anchor="start" x="8" y="-226.3" font-family="Times,serif" font-size="14.00"> v3 = IntToPtrCastExpr&lt;ptr&gt;(errorCode)</text>
<text text-anchor="start" x="8" y="-211.3" font-family="Times,serif" font-size="14.00"> g10 = PtrToIntCastExpr&lt;int32&gt;(&amp;(v3))</text>
<text text-anchor="start" x="8" y="-196.3" font-family="Times,serif" font-size="14.00"> result = function_41d0b2(IntToPtrCastExpr&lt;ptr&gt;(errorCode), IntToPtrCastExpr&lt;ptr&gt;(v4))</text>
</g>
<!-- Node0x21ac70a0&#45;&gt;Node0x1161a420 -->
<g id="edge3" class="edge"><title>Node0x21ac70a0&#45;&gt;Node0x1161a420</title>
<path fill="none" stroke="black" d="M580.281,-323.391C546.898,-310.474 499.513,-292.139 455.744,-275.204"/>
<polygon fill="black" stroke="black" points="456.764,-271.846 446.175,-271.502 454.238,-278.374 456.764,-271.846"/>
<text text-anchor="middle" x="556" y="-293.8" font-family="Times,serif" font-size="14.00">g2 == 0</text>
</g>
<!-- Node0x21ac7780 -->
<g id="node5" class="node"><title>Node0x21ac7780</title>
<polygon fill="none" stroke="black" points="480,-97.5 480,-150.5 757,-150.5 757,-97.5 480,-97.5"/>
<text text-anchor="start" x="488" y="-135.3" font-family="Times,serif" font-size="14.00">0x411c8b:</text>
<text text-anchor="start" x="488" y="-120.3" font-family="Times,serif" font-size="14.00"> g9 = PtrToIntCastExpr&lt;int32&gt;(v3)</text>
<text text-anchor="start" x="488" y="-105.3" font-family="Times,serif" font-size="14.00"> return result</text>
</g>
<!-- Node0x21ac70a0&#45;&gt;Node0x21ac7780 -->
<g id="edge4" class="edge"><title>Node0x21ac70a0&#45;&gt;Node0x21ac7780</title>
<path fill="none" stroke="black" d="M649.233,-323.266C664.583,-310.973 682.958,-292.949 691.5,-272 705.596,-237.43 707.043,-221.944 691.5,-188 686.166,-176.35 677.496,-166.035 667.961,-157.298"/>
<polygon fill="black" stroke="black" points="670.05,-154.478 660.177,-150.633 665.497,-159.796 670.05,-154.478"/>
<text text-anchor="middle" x="731" y="-226.3" font-family="Times,serif" font-size="14.00">g2 != 0</text>
</g>
<!-- Node0x1161a420&#45;&gt;Node0x21ac7780 -->
<g id="edge5" class="edge"><title>Node0x1161a420&#45;&gt;Node0x21ac7780</title>
<path fill="none" stroke="black" d="M449.389,-188.493C479.96,-177.015 512.626,-164.75 541.017,-154.091"/>
<polygon fill="black" stroke="black" points="542.34,-157.333 550.472,-150.541 539.88,-150.779 542.34,-157.333"/>
</g>
<!-- Node0x21ac7350 -->
<g id="node6" class="node"><title>Node0x21ac7350</title>
<polygon fill="none" stroke="black" points="591.5,-23.5 591.5,-59.5 645.5,-59.5 645.5,-23.5 591.5,-23.5"/>
<text text-anchor="start" x="599.5" y="-37.8" font-family="Times,serif" font-size="14.00">exit:</text>
</g>
<!-- Node0x21ac7780&#45;&gt;Node0x21ac7350 -->
<g id="edge6" class="edge"><title>Node0x21ac7780&#45;&gt;Node0x21ac7350</title>
<path fill="none" stroke="black" d="M618.5,-97.0862C618.5,-88.4596 618.5,-78.8224 618.5,-70.0748"/>
<polygon fill="black" stroke="black" points="622,-69.9735 618.5,-59.9735 615,-69.9735 622,-69.9735"/>
</g>
</g>
</svg>
