<?xml version="1.0" encoding="UTF-8" standalone="no"?>
<!DOCTYPE svg PUBLIC "-//W3C//DTD SVG 1.1//EN"
 "http://www.w3.org/Graphics/SVG/1.1/DTD/svg11.dtd">
<!-- Generated by graphviz version 2.38.0 (20140413.2041)
 -->
<!-- Title: Control&#45;flow graph for function &#39;function_40eca8(*a1)&#39;. Pages: 1 -->
<svg width="831pt" height="715pt"
 viewBox="0.00 0.00 830.50 715.00" xmlns="http://www.w3.org/2000/svg" xmlns:xlink="http://www.w3.org/1999/xlink">
<g id="graph0" class="graph" transform="scale(1 1) rotate(0) translate(4 711)">
<title>Control&#45;flow graph for function &#39;function_40eca8(*a1)&#39;.</title>
<polygon fill="white" stroke="none" points="-4,4 -4,-711 826.5,-711 826.5,4 -4,4"/>
<text text-anchor="middle" x="411.25" y="-7.8" font-family="Times,serif" font-size="14.00">Control&#45;flow graph for function &#39;function_40eca8(*a1)&#39;.</text>
<!-- Node0xbe825d10 -->
<g id="node1" class="node"><title>Node0xbe825d10</title>
<polygon fill="none" stroke="black" points="541.5,-668.5 541.5,-706.5 600.5,-706.5 600.5,-668.5 541.5,-668.5"/>
<text text-anchor="start" x="549.5" y="-691.3" font-family="Times,serif" font-size="14.00">entry:</text>
<text text-anchor="start" x="549.5" y="-676.3" font-family="Times,serif" font-size="14.00"> a1</text>
</g>
<!-- Node0x3070b420 -->
<g id="node2" class="node"><title>Node0x3070b420</title>
<polygon fill="none" stroke="black" points="319.5,-367.5 319.5,-630.5 822.5,-630.5 822.5,-367.5 319.5,-367.5"/>
<text text-anchor="start" x="327.5" y="-615.3" font-family="Times,serif" font-size="14.00">g2 = 4419168</text>
<text text-anchor="start" x="327.5" y="-600.3" font-family="Times,serif" font-size="14.00"> __EH_prolog3()</text>
<text text-anchor="start" x="327.5" y="-585.3" font-family="Times,serif" font-size="14.00"> v1 = g5</text>
<text text-anchor="start" x="327.5" y="-570.3" font-family="Times,serif" font-size="14.00"> g9 = v1</text>
<text text-anchor="start" x="327.5" y="-555.3" font-family="Times,serif" font-size="14.00"> *(IntToPtrCastExpr&lt;ptr&gt;((g3 &#45; 16))) = v1</text>
<text text-anchor="start" x="327.5" y="-540.3" font-family="Times,serif" font-size="14.00"> function_40dc71()</text>
<text text-anchor="start" x="327.5" y="-525.3" font-family="Times,serif" font-size="14.00"> g5 = g9</text>
<text text-anchor="start" x="327.5" y="-510.3" font-family="Times,serif" font-size="14.00"> v2</text>
<text text-anchor="start" x="327.5" y="-495.3" font-family="Times,serif" font-size="14.00"> function_40de5e(IntToPtrCastExpr&lt;ptr&gt;(4502532), v2)</text>
<text text-anchor="start" x="327.5" y="-480.3" font-family="Times,serif" font-size="14.00"> v3 = g3</text>
<text text-anchor="start" x="327.5" y="-465.3" font-family="Times,serif" font-size="14.00"> v4 = IntToPtrCastExpr&lt;ptr&gt;(*(IntToPtrCastExpr&lt;ptr&gt;((v3 + 8))))</text>
<text text-anchor="start" x="327.5" y="-450.3" font-family="Times,serif" font-size="14.00"> g10 = PtrToIntCastExpr&lt;int32&gt;(&amp;(v4))</text>
<text text-anchor="start" x="327.5" y="-435.3" font-family="Times,serif" font-size="14.00"> *(IntToPtrCastExpr&lt;ptr&gt;((v3 &#45; 4))) = 0</text>
<text text-anchor="start" x="327.5" y="-420.3" font-family="Times,serif" font-size="14.00"> g5 = g9</text>
<text text-anchor="start" x="327.5" y="-405.3" font-family="Times,serif" font-size="14.00"> v5 = function_40ec88(v4)</text>
<text text-anchor="start" x="327.5" y="-390.3" font-family="Times,serif" font-size="14.00"> g1 = False</text>
<text text-anchor="start" x="327.5" y="-375.3" font-family="Times,serif" font-size="14.00"> g180 = ((16777216 * v5) == 0)</text>
</g>
<!-- Node0xbe825d10&#45;&gt;Node0x3070b420 -->
<g id="edge1" class="edge"><title>Node0xbe825d10&#45;&gt;Node0x3070b420</title>
<path fill="none" stroke="black" d="M571,-668.278C571,-660.846 571,-651.547 571,-641.16"/>
<polygon fill="black" stroke="black" points="574.5,-640.892 571,-630.892 567.5,-640.892 574.5,-640.892"/>
</g>
<!-- Node0x9dc31870 -->
<g id="node3" class="node"><title>Node0x9dc31870</title>
<polygon fill="none" stroke="black" points="518.5,-293.5 518.5,-329.5 623.5,-329.5 623.5,-293.5 518.5,-293.5"/>
<text text-anchor="start" x="526.5" y="-307.8" font-family="Times,serif" font-size="14.00">if (v5 == 0):</text>
</g>
<!-- Node0x3070b420&#45;&gt;Node0x9dc31870 -->
<g id="edge2" class="edge"><title>Node0x3070b420&#45;&gt;Node0x9dc31870</title>
<path fill="none" stroke="black" d="M571,-367.403C571,-357.307 571,-347.933 571,-339.892"/>
<polygon fill="black" stroke="black" points="574.5,-339.809 571,-329.809 567.5,-339.81 574.5,-339.809"/>
</g>
<!-- Node0x9dc32090 -->
<g id="node4" class="node"><title>Node0x9dc32090</title>
<polygon fill="none" stroke="black" points="0,-188.5 0,-241.5 622,-241.5 622,-188.5 0,-188.5"/>
<text text-anchor="start" x="8" y="-226.3" font-family="Times,serif" font-size="14.00">0x40ecd8:</text>
<text text-anchor="start" x="8" y="-211.3" font-family="Times,serif" font-size="14.00"> g5 = g9</text>
<text text-anchor="start" x="8" y="-196.3" font-family="Times,serif" font-size="14.00"> function_40ebd6(IntToPtrCastExpr&lt;ptr&gt;(*(IntToPtrCastExpr&lt;ptr&gt;((g3 + 8)))), v4)</text>
</g>
<!-- Node0x9dc31870&#45;&gt;Node0x9dc32090 -->
<g id="edge3" class="edge"><title>Node0x9dc31870&#45;&gt;Node0x9dc32090</title>
<path fill="none" stroke="black" d="M524.217,-293.496C487.168,-280.03 434.563,-260.911 390.876,-245.032"/>
<polygon fill="black" stroke="black" points="392.007,-241.719 381.413,-241.593 389.616,-248.298 392.007,-241.719"/>
<text text-anchor="middle" x="502" y="-263.8" font-family="Times,serif" font-size="14.00">v5 == 0</text>
</g>
<!-- Node0x9dc31f10 -->
<g id="node5" class="node"><title>Node0x9dc31f10</title>
<polygon fill="none" stroke="black" points="500,-97.5 500,-150.5 630,-150.5 630,-97.5 500,-97.5"/>
<text text-anchor="start" x="508" y="-135.3" font-family="Times,serif" font-size="14.00">0x40ece2:</text>
<text text-anchor="start" x="508" y="-120.3" font-family="Times,serif" font-size="14.00"> __EH_epilog3()</text>
<text text-anchor="start" x="508" y="-105.3" font-family="Times,serif" font-size="14.00"> return g9</text>
</g>
<!-- Node0x9dc31870&#45;&gt;Node0x9dc31f10 -->
<g id="edge4" class="edge"><title>Node0x9dc31870&#45;&gt;Node0x9dc31f10</title>
<path fill="none" stroke="black" d="M592.597,-293.272C606.486,-280.731 623.321,-262.421 631,-242 639.447,-219.536 640.442,-210.065 631,-188 626.18,-176.736 618.248,-166.528 609.525,-157.766"/>
<polygon fill="black" stroke="black" points="611.746,-155.05 602.062,-150.754 606.953,-160.152 611.746,-155.05"/>
<text text-anchor="middle" x="664" y="-211.3" font-family="Times,serif" font-size="14.00">v5 != 0</text>
</g>
<!-- Node0x9dc32090&#45;&gt;Node0x9dc31f10 -->
<g id="edge5" class="edge"><title>Node0x9dc32090&#45;&gt;Node0x9dc31f10</title>
<path fill="none" stroke="black" d="M383.786,-188.496C417.142,-176.808 456.641,-162.968 490.234,-151.197"/>
<polygon fill="black" stroke="black" points="491.718,-154.386 499.998,-147.776 489.403,-147.78 491.718,-154.386"/>
</g>
<!-- Node0xbe827690 -->
<g id="node6" class="node"><title>Node0xbe827690</title>
<polygon fill="none" stroke="black" points="538,-23.5 538,-59.5 592,-59.5 592,-23.5 538,-23.5"/>
<text text-anchor="start" x="546" y="-37.8" font-family="Times,serif" font-size="14.00">exit:</text>
</g>
<!-- Node0x9dc31f10&#45;&gt;Node0xbe827690 -->
<g id="edge6" class="edge"><title>Node0x9dc31f10&#45;&gt;Node0xbe827690</title>
<path fill="none" stroke="black" d="M565,-97.0862C565,-88.4596 565,-78.8224 565,-70.0748"/>
<polygon fill="black" stroke="black" points="568.5,-69.9735 565,-59.9735 561.5,-69.9735 568.5,-69.9735"/>
</g>
</g>
</svg>
