<?xml version="1.0" encoding="UTF-8" standalone="no"?>
<!DOCTYPE svg PUBLIC "-//W3C//DTD SVG 1.1//EN"
 "http://www.w3.org/Graphics/SVG/1.1/DTD/svg11.dtd">
<!-- Generated by graphviz version 2.38.0 (20140413.2041)
 -->
<!-- Title: Control&#45;flow graph for function &#39;function_408190(*a1, *a2)&#39;. Pages: 1 -->
<svg width="709pt" height="1115pt"
 viewBox="0.00 0.00 708.50 1115.00" xmlns="http://www.w3.org/2000/svg" xmlns:xlink="http://www.w3.org/1999/xlink">
<g id="graph0" class="graph" transform="scale(1 1) rotate(0) translate(4 1111)">
<title>Control&#45;flow graph for function &#39;function_408190(*a1, *a2)&#39;.</title>
<polygon fill="white" stroke="none" points="-4,4 -4,-1111 704.5,-1111 704.5,4 -4,4"/>
<text text-anchor="middle" x="350.25" y="-7.8" font-family="Times,serif" font-size="14.00">Control&#45;flow graph for function &#39;function_408190(*a1, *a2)&#39;.</text>
<!-- Node0x1f84ec80 -->
<g id="node1" class="node"><title>Node0x1f84ec80</title>
<polygon fill="none" stroke="black" points="179,-1053.5 179,-1106.5 238,-1106.5 238,-1053.5 179,-1053.5"/>
<text text-anchor="start" x="187" y="-1091.3" font-family="Times,serif" font-size="14.00">entry:</text>
<text text-anchor="start" x="187" y="-1076.3" font-family="Times,serif" font-size="14.00"> a1</text>
<text text-anchor="start" x="187" y="-1061.3" font-family="Times,serif" font-size="14.00"> a2</text>
</g>
<!-- Node0x27285070 -->
<g id="node2" class="node"><title>Node0x27285070</title>
<polygon fill="none" stroke="black" points="113.5,-917.5 113.5,-1015.5 303.5,-1015.5 303.5,-917.5 113.5,-917.5"/>
<text text-anchor="start" x="121.5" y="-1000.3" font-family="Times,serif" font-size="14.00">v1</text>
<text text-anchor="start" x="121.5" y="-985.3" font-family="Times,serif" font-size="14.00"> g3 = &amp;(v1)</text>
<text text-anchor="start" x="121.5" y="-970.3" font-family="Times,serif" font-size="14.00"> v2 = g7</text>
<text text-anchor="start" x="121.5" y="-955.3" font-family="Times,serif" font-size="14.00"> v3 = function_41022a()</text>
<text text-anchor="start" x="121.5" y="-940.3" font-family="Times,serif" font-size="14.00"> g7 = 0</text>
<text text-anchor="start" x="121.5" y="-925.3" font-family="Times,serif" font-size="14.00"> result</text>
</g>
<!-- Node0x1f84ec80&#45;&gt;Node0x27285070 -->
<g id="edge1" class="edge"><title>Node0x1f84ec80&#45;&gt;Node0x27285070</title>
<path fill="none" stroke="black" d="M208.5,-1053.42C208.5,-1045.12 208.5,-1035.54 208.5,-1025.85"/>
<polygon fill="black" stroke="black" points="212,-1025.77 208.5,-1015.77 205,-1025.77 212,-1025.77"/>
</g>
<!-- Node0x272851d0 -->
<g id="node3" class="node"><title>Node0x272851d0</title>
<polygon fill="none" stroke="black" points="35,-841.5 35,-879.5 382,-879.5 382,-841.5 35,-841.5"/>
<text text-anchor="start" x="43" y="-864.3" font-family="Times,serif" font-size="14.00">if (*(IntToPtrCastExpr&lt;ptr&gt;((v3 + 4))) == 0):</text>
<text text-anchor="start" x="43" y="-849.3" font-family="Times,serif" font-size="14.00"> else:</text>
</g>
<!-- Node0x27285070&#45;&gt;Node0x272851d0 -->
<g id="edge2" class="edge"><title>Node0x27285070&#45;&gt;Node0x272851d0</title>
<path fill="none" stroke="black" d="M208.5,-917.458C208.5,-907.952 208.5,-898.27 208.5,-889.69"/>
<polygon fill="black" stroke="black" points="212,-889.509 208.5,-879.509 205,-889.509 212,-889.509"/>
</g>
<!-- Node0x27288cc0 -->
<g id="node4" class="node"><title>Node0x27288cc0</title>
<polygon fill="none" stroke="black" points="0,-619.5 0,-657.5 93,-657.5 93,-619.5 0,-619.5"/>
<text text-anchor="start" x="8" y="-642.3" font-family="Times,serif" font-size="14.00">0x4081a2:</text>
<text text-anchor="start" x="8" y="-627.3" font-family="Times,serif" font-size="14.00"> result = 0</text>
</g>
<!-- Node0x272851d0&#45;&gt;Node0x27288cc0 -->
<g id="edge3" class="edge"><title>Node0x272851d0&#45;&gt;Node0x27288cc0</title>
<path fill="none" stroke="black" d="M80.371,-841.392C63.2548,-836.54 49.5158,-830.492 43.5,-823 7.79083,-778.528 23.4866,-706.53 36.1583,-667.244"/>
<polygon fill="black" stroke="black" points="39.5525,-668.133 39.4442,-657.539 32.9221,-665.889 39.5525,-668.133"/>
<text text-anchor="middle" x="194.5" y="-811.8" font-family="Times,serif" font-size="14.00">*(IntToPtrCastExpr&lt;ptr&gt;((v3 + 4))) == 0</text>
</g>
<!-- Node0x27285770 -->
<g id="node5" class="node"><title>Node0x27285770</title>
<polygon fill="none" stroke="black" points="297,-676.5 297,-789.5 446,-789.5 446,-676.5 297,-676.5"/>
<text text-anchor="start" x="305" y="-774.3" font-family="Times,serif" font-size="14.00">0x4081a6:</text>
<text text-anchor="start" x="305" y="-759.3" font-family="Times,serif" font-size="14.00"> function_4035f0()</text>
<text text-anchor="start" x="305" y="-744.3" font-family="Times,serif" font-size="14.00"> v4 = g7</text>
<text text-anchor="start" x="305" y="-729.3" font-family="Times,serif" font-size="14.00"> g1 = (v4 != 0)</text>
<text text-anchor="start" x="305" y="-714.3" font-family="Times,serif" font-size="14.00"> g180 = (v4 == 0)</text>
<text text-anchor="start" x="305" y="-699.3" font-family="Times,serif" font-size="14.00"> g9 = 57670</text>
<text text-anchor="start" x="305" y="-684.3" font-family="Times,serif" font-size="14.00"> v5</text>
</g>
<!-- Node0x272851d0&#45;&gt;Node0x27285770 -->
<g id="edge4" class="edge"><title>Node0x272851d0&#45;&gt;Node0x27285770</title>
<path fill="none" stroke="black" d="M323.703,-841.454C333.219,-836.606 342.032,-830.551 349.5,-823 356.076,-816.352 360.792,-808.068 364.156,-799.249"/>
<polygon fill="black" stroke="black" points="367.555,-800.113 367.299,-789.521 360.894,-797.96 367.555,-800.113"/>
<text text-anchor="middle" x="508.5" y="-811.8" font-family="Times,serif" font-size="14.00">*(IntToPtrCastExpr&lt;ptr&gt;((v3 + 4))) != 0</text>
</g>
<!-- Node0x272856f0 -->
<g id="node6" class="node"><title>Node0x272856f0</title>
<polygon fill="none" stroke="black" points="72,-97.5 72,-165.5 185,-165.5 185,-97.5 72,-97.5"/>
<text text-anchor="start" x="80" y="-150.3" font-family="Times,serif" font-size="14.00">0x4081e3:</text>
<text text-anchor="start" x="80" y="-135.3" font-family="Times,serif" font-size="14.00"> g7 = v2</text>
<text text-anchor="start" x="80" y="-120.3" font-family="Times,serif" font-size="14.00"> g3 = v1</text>
<text text-anchor="start" x="80" y="-105.3" font-family="Times,serif" font-size="14.00"> return result</text>
</g>
<!-- Node0x27288cc0&#45;&gt;Node0x272856f0 -->
<g id="edge5" class="edge"><title>Node0x27288cc0&#45;&gt;Node0x272856f0</title>
<path fill="none" stroke="black" d="M46.5,-619.438C46.5,-599.774 46.5,-567.403 46.5,-539.5 46.5,-539.5 46.5,-539.5 46.5,-289 46.5,-249.856 47.6552,-237.84 65.5,-203 70.8246,-192.604 78.0565,-182.541 85.7241,-173.428"/>
<polygon fill="black" stroke="black" points="88.562,-175.501 92.5374,-165.681 83.3053,-170.879 88.562,-175.501"/>
</g>
<!-- Node0x272858a0 -->
<g id="node7" class="node"><title>Node0x272858a0</title>
<polygon fill="none" stroke="black" points="322,-564.5 322,-600.5 421,-600.5 421,-564.5 322,-564.5"/>
<text text-anchor="start" x="330" y="-578.8" font-family="Times,serif" font-size="14.00">if (v4 != 0):</text>
</g>
<!-- Node0x27285770&#45;&gt;Node0x272858a0 -->
<g id="edge6" class="edge"><title>Node0x27285770&#45;&gt;Node0x272858a0</title>
<path fill="none" stroke="black" d="M371.5,-676.282C371.5,-653.958 371.5,-629.248 371.5,-610.944"/>
<polygon fill="black" stroke="black" points="375,-610.715 371.5,-600.715 368,-610.715 375,-610.715"/>
</g>
<!-- Node0x27285010 -->
<g id="node8" class="node"><title>Node0x27285010</title>
<polygon fill="none" stroke="black" points="101.5,-23.5 101.5,-59.5 155.5,-59.5 155.5,-23.5 101.5,-23.5"/>
<text text-anchor="start" x="109.5" y="-37.8" font-family="Times,serif" font-size="14.00">exit:</text>
</g>
<!-- Node0x272856f0&#45;&gt;Node0x27285010 -->
<g id="edge7" class="edge"><title>Node0x272856f0&#45;&gt;Node0x27285010</title>
<path fill="none" stroke="black" d="M128.5,-97.4817C128.5,-88.3281 128.5,-78.4972 128.5,-69.7155"/>
<polygon fill="black" stroke="black" points="132,-69.6402 128.5,-59.6402 125,-69.6403 132,-69.6402"/>
</g>
<!-- Node0x1dbad0c0 -->
<g id="node9" class="node"><title>Node0x1dbad0c0</title>
<polygon fill="none" stroke="black" points="80,-414.5 80,-512.5 613,-512.5 613,-414.5 80,-414.5"/>
<text text-anchor="start" x="88" y="-497.3" font-family="Times,serif" font-size="14.00">0x4081b5:</text>
<text text-anchor="start" x="88" y="-482.3" font-family="Times,serif" font-size="14.00"> g8 = 0</text>
<text text-anchor="start" x="88" y="-467.3" font-family="Times,serif" font-size="14.00"> v5 = 57670</text>
<text text-anchor="start" x="88" y="-452.3" font-family="Times,serif" font-size="14.00"> g10 = &amp;(v5)</text>
<text text-anchor="start" x="88" y="-437.3" font-family="Times,serif" font-size="14.00"> g5 = 0</text>
<text text-anchor="start" x="88" y="-422.3" font-family="Times,serif" font-size="14.00"> IntToPtrCastExpr&lt;ptr&gt;(*(IntToPtrCastExpr&lt;ptr&gt;(12)))(57670, v4, v4)</text>
</g>
<!-- Node0x272858a0&#45;&gt;Node0x1dbad0c0 -->
<g id="edge8" class="edge"><title>Node0x272858a0&#45;&gt;Node0x1dbad0c0</title>
<path fill="none" stroke="black" d="M367.865,-564.487C365.476,-553.309 362.198,-537.968 358.927,-522.658"/>
<polygon fill="black" stroke="black" points="362.3,-521.694 356.788,-512.646 355.454,-523.156 362.3,-521.694"/>
<text text-anchor="middle" x="390.5" y="-534.8" font-family="Times,serif" font-size="14.00">v4 != 0</text>
</g>
<!-- Node0x1f8503d0 -->
<g id="node10" class="node"><title>Node0x1f8503d0</title>
<polygon fill="none" stroke="black" points="74.5,-203.5 74.5,-376.5 628.5,-376.5 628.5,-203.5 74.5,-203.5"/>
<text text-anchor="start" x="82.5" y="-361.3" font-family="Times,serif" font-size="14.00">v6 = *(IntToPtrCastExpr&lt;ptr&gt;((function_41022a() + 4)))</text>
<text text-anchor="start" x="82.5" y="-346.3" font-family="Times,serif" font-size="14.00"> v7 = *(IntToPtrCastExpr&lt;ptr&gt;(v6))</text>
<text text-anchor="start" x="82.5" y="-331.3" font-family="Times,serif" font-size="14.00"> g8 = v7</text>
<text text-anchor="start" x="82.5" y="-316.3" font-family="Times,serif" font-size="14.00"> v8 = g7</text>
<text text-anchor="start" x="82.5" y="-301.3" font-family="Times,serif" font-size="14.00"> v9 = g9</text>
<text text-anchor="start" x="82.5" y="-286.3" font-family="Times,serif" font-size="14.00"> v10 = v9</text>
<text text-anchor="start" x="82.5" y="-271.3" font-family="Times,serif" font-size="14.00"> g10 = &amp;(v10)</text>
<text text-anchor="start" x="82.5" y="-256.3" font-family="Times,serif" font-size="14.00"> g5 = v6</text>
<text text-anchor="start" x="82.5" y="-241.3" font-family="Times,serif" font-size="14.00"> IntToPtrCastExpr&lt;ptr&gt;(*(IntToPtrCastExpr&lt;ptr&gt;((v7 + 12))))(v9, v8, v8)</text>
<text text-anchor="start" x="82.5" y="-226.3" font-family="Times,serif" font-size="14.00"> g9 = v5</text>
<text text-anchor="start" x="82.5" y="-211.3" font-family="Times,serif" font-size="14.00"> result = v6</text>
</g>
<!-- Node0x272858a0&#45;&gt;Node0x1f8503d0 -->
<g id="edge9" class="edge"><title>Node0x272858a0&#45;&gt;Node0x1f8503d0</title>
<path fill="none" stroke="black" d="M421.245,-575.074C487.224,-565.413 598.204,-544.816 622.5,-513 649.205,-478.031 646.331,-450.987 622.5,-414 615.308,-402.838 606.829,-392.677 597.394,-383.43"/>
<polygon fill="black" stroke="black" points="599.699,-380.794 589.998,-376.535 594.926,-385.914 599.699,-380.794"/>
<text text-anchor="middle" x="670.5" y="-459.8" font-family="Times,serif" font-size="14.00">v4 == 0</text>
</g>
<!-- Node0x1dbad0c0&#45;&gt;Node0x1f8503d0 -->
<g id="edge10" class="edge"><title>Node0x1dbad0c0&#45;&gt;Node0x1f8503d0</title>
<path fill="none" stroke="black" d="M347.906,-414.271C348.161,-405.521 348.435,-396.122 348.714,-386.557"/>
<polygon fill="black" stroke="black" points="352.213,-386.649 349.006,-376.551 345.216,-386.445 352.213,-386.649"/>
</g>
<!-- Node0x1f8503d0&#45;&gt;Node0x272856f0 -->
<g id="edge11" class="edge"><title>Node0x1f8503d0&#45;&gt;Node0x272856f0</title>
<path fill="none" stroke="black" d="M229.56,-203.424C213.73,-192.314 198.182,-181.403 184.209,-171.597"/>
<polygon fill="black" stroke="black" points="185.92,-168.521 175.724,-165.642 181.899,-174.251 185.92,-168.521"/>
</g>
</g>
</svg>
