<?xml version="1.0" encoding="UTF-8" standalone="no"?>
<!DOCTYPE svg PUBLIC "-//W3C//DTD SVG 1.1//EN"
 "http://www.w3.org/Graphics/SVG/1.1/DTD/svg11.dtd">
<!-- Generated by graphviz version 2.38.0 (20140413.2041)
 -->
<!-- Title: Control&#45;flow graph for function &#39;function_411426()&#39;. Pages: 1 -->
<svg width="586pt" height="810pt"
 viewBox="0.00 0.00 586.00 810.00" xmlns="http://www.w3.org/2000/svg" xmlns:xlink="http://www.w3.org/1999/xlink">
<g id="graph0" class="graph" transform="scale(1 1) rotate(0) translate(4 806)">
<title>Control&#45;flow graph for function &#39;function_411426()&#39;.</title>
<polygon fill="white" stroke="none" points="-4,4 -4,-806 582,-806 582,4 -4,4"/>
<text text-anchor="middle" x="289" y="-7.8" font-family="Times,serif" font-size="14.00">Control&#45;flow graph for function &#39;function_411426()&#39;.</text>
<!-- Node0x31932d40 -->
<g id="node1" class="node"><title>Node0x31932d40</title>
<polygon fill="none" stroke="black" points="220,-765.5 220,-801.5 279,-801.5 279,-765.5 220,-765.5"/>
<text text-anchor="start" x="228" y="-779.8" font-family="Times,serif" font-size="14.00">entry:</text>
</g>
<!-- Node0x5cc4a350 -->
<g id="node2" class="node"><title>Node0x5cc4a350</title>
<polygon fill="none" stroke="black" points="204,-674.5 204,-727.5 295,-727.5 295,-674.5 204,-674.5"/>
<text text-anchor="start" x="212" y="-712.3" font-family="Times,serif" font-size="14.00">v1 = g130</text>
<text text-anchor="start" x="212" y="-697.3" font-family="Times,serif" font-size="14.00"> v2</text>
<text text-anchor="start" x="212" y="-682.3" font-family="Times,serif" font-size="14.00"> v3</text>
</g>
<!-- Node0x31932d40&#45;&gt;Node0x5cc4a350 -->
<g id="edge1" class="edge"><title>Node0x31932d40&#45;&gt;Node0x5cc4a350</title>
<path fill="none" stroke="black" d="M249.5,-765.428C249.5,-757.361 249.5,-747.411 249.5,-737.802"/>
<polygon fill="black" stroke="black" points="253,-737.616 249.5,-727.616 246,-737.616 253,-737.616"/>
</g>
<!-- Node0x5cc4dbe0 -->
<g id="node3" class="node"><title>Node0x5cc4dbe0</title>
<polygon fill="none" stroke="black" points="197,-600.5 197,-636.5 302,-636.5 302,-600.5 197,-600.5"/>
<text text-anchor="start" x="205" y="-614.8" font-family="Times,serif" font-size="14.00">if (v1 == 0):</text>
</g>
<!-- Node0x5cc4a350&#45;&gt;Node0x5cc4dbe0 -->
<g id="edge2" class="edge"><title>Node0x5cc4a350&#45;&gt;Node0x5cc4dbe0</title>
<path fill="none" stroke="black" d="M249.5,-674.086C249.5,-665.46 249.5,-655.822 249.5,-647.075"/>
<polygon fill="black" stroke="black" points="253,-646.973 249.5,-636.974 246,-646.974 253,-646.973"/>
</g>
<!-- Node0x5cc4e740 -->
<g id="node4" class="node"><title>Node0x5cc4e740</title>
<polygon fill="none" stroke="black" points="139,-495.5 139,-548.5 234,-548.5 234,-495.5 139,-495.5"/>
<text text-anchor="start" x="147" y="-533.3" font-family="Times,serif" font-size="14.00">0x411437:</text>
<text text-anchor="start" x="147" y="-518.3" font-family="Times,serif" font-size="14.00"> v3 = g129</text>
<text text-anchor="start" x="147" y="-503.3" font-family="Times,serif" font-size="14.00"> g5 = v3</text>
</g>
<!-- Node0x5cc4dbe0&#45;&gt;Node0x5cc4e740 -->
<g id="edge3" class="edge"><title>Node0x5cc4dbe0&#45;&gt;Node0x5cc4e740</title>
<path fill="none" stroke="black" d="M224.051,-600.394C217.63,-595.109 211.227,-588.854 206.5,-582 201.611,-574.911 197.828,-566.523 194.937,-558.332"/>
<polygon fill="black" stroke="black" points="198.191,-557.015 191.837,-548.537 191.517,-559.127 198.191,-557.015"/>
<text text-anchor="middle" x="236.5" y="-570.8" font-family="Times,serif" font-size="14.00">v1 == 0</text>
</g>
<!-- Node0x5cc4bce0 -->
<g id="node5" class="node"><title>Node0x5cc4bce0</title>
<polygon fill="none" stroke="black" points="252,-503 252,-541 357,-541 357,-503 252,-503"/>
<text text-anchor="start" x="260" y="-525.8" font-family="Times,serif" font-size="14.00">v4 = (v1 &#45; 1)</text>
<text text-anchor="start" x="260" y="-510.8" font-family="Times,serif" font-size="14.00"> g130 = v4</text>
</g>
<!-- Node0x5cc4dbe0&#45;&gt;Node0x5cc4bce0 -->
<g id="edge4" class="edge"><title>Node0x5cc4dbe0&#45;&gt;Node0x5cc4bce0</title>
<path fill="none" stroke="black" d="M259.588,-600.167C267.728,-586.181 279.326,-566.254 288.697,-550.153"/>
<polygon fill="black" stroke="black" points="291.909,-551.592 293.914,-541.189 285.859,-548.071 291.909,-551.592"/>
<text text-anchor="middle" x="306.5" y="-570.8" font-family="Times,serif" font-size="14.00">v1 != 0</text>
</g>
<!-- Node0x5cc4e550 -->
<g id="node6" class="node"><title>Node0x5cc4e550</title>
<polygon fill="none" stroke="black" points="137,-421.5 137,-457.5 236,-457.5 236,-421.5 137,-421.5"/>
<text text-anchor="start" x="145" y="-435.8" font-family="Times,serif" font-size="14.00">if (v3 != 0):</text>
</g>
<!-- Node0x5cc4e740&#45;&gt;Node0x5cc4e550 -->
<g id="edge5" class="edge"><title>Node0x5cc4e740&#45;&gt;Node0x5cc4e550</title>
<path fill="none" stroke="black" d="M186.5,-495.086C186.5,-486.46 186.5,-476.822 186.5,-468.075"/>
<polygon fill="black" stroke="black" points="190,-467.973 186.5,-457.974 183,-467.974 190,-467.973"/>
</g>
<!-- Node0x5cc4bdd0 -->
<g id="node7" class="node"><title>Node0x5cc4bdd0</title>
<polygon fill="none" stroke="black" points="255,-421.5 255,-457.5 354,-457.5 354,-421.5 255,-421.5"/>
<text text-anchor="start" x="263" y="-435.8" font-family="Times,serif" font-size="14.00">if (v4 != 0):</text>
</g>
<!-- Node0x5cc4bce0&#45;&gt;Node0x5cc4bdd0 -->
<g id="edge6" class="edge"><title>Node0x5cc4bce0&#45;&gt;Node0x5cc4bdd0</title>
<path fill="none" stroke="black" d="M304.5,-502.733C304.5,-492.363 304.5,-479.183 304.5,-467.625"/>
<polygon fill="black" stroke="black" points="308,-467.593 304.5,-457.594 301,-467.594 308,-467.593"/>
</g>
<!-- Node0x5cc4edf0 -->
<g id="node8" class="node"><title>Node0x5cc4edf0</title>
<polygon fill="none" stroke="black" points="0,-316.5 0,-369.5 165,-369.5 165,-316.5 0,-316.5"/>
<text text-anchor="start" x="8" y="-354.3" font-family="Times,serif" font-size="14.00">0x411441:</text>
<text text-anchor="start" x="8" y="-339.3" font-family="Times,serif" font-size="14.00"> function_4113cf(v2)</text>
<text text-anchor="start" x="8" y="-324.3" font-family="Times,serif" font-size="14.00"> g129 = 0</text>
</g>
<!-- Node0x5cc4e550&#45;&gt;Node0x5cc4edf0 -->
<g id="edge7" class="edge"><title>Node0x5cc4e550&#45;&gt;Node0x5cc4edf0</title>
<path fill="none" stroke="black" d="M157.964,-421.407C149.734,-415.951 140.967,-409.603 133.5,-403 124.88,-395.378 116.363,-386.314 108.831,-377.606"/>
<polygon fill="black" stroke="black" points="111.337,-375.149 102.215,-369.76 105.986,-379.662 111.337,-375.149"/>
<text text-anchor="middle" x="160.5" y="-391.8" font-family="Times,serif" font-size="14.00">v3 != 0</text>
</g>
<!-- Node0x5cc4ecb0 -->
<g id="node9" class="node"><title>Node0x5cc4ecb0</title>
<polygon fill="none" stroke="black" points="155.5,-202.5 155.5,-240.5 247.5,-240.5 247.5,-202.5 155.5,-202.5"/>
<text text-anchor="start" x="163.5" y="-225.3" font-family="Times,serif" font-size="14.00">0x41144d:</text>
<text text-anchor="start" x="163.5" y="-210.3" font-family="Times,serif" font-size="14.00"> return</text>
</g>
<!-- Node0x5cc4e550&#45;&gt;Node0x5cc4ecb0 -->
<g id="edge8" class="edge"><title>Node0x5cc4e550&#45;&gt;Node0x5cc4ecb0</title>
<path fill="none" stroke="black" d="M187.702,-421.189C190.283,-384.025 196.375,-296.297 199.53,-250.868"/>
<polygon fill="black" stroke="black" points="203.027,-251.025 200.229,-240.806 196.044,-250.54 203.027,-251.025"/>
<text text-anchor="middle" x="225.5" y="-339.3" font-family="Times,serif" font-size="14.00">v3 == 0</text>
</g>
<!-- Node0x30881ac0 -->
<g id="node10" class="node"><title>Node0x30881ac0</title>
<polygon fill="none" stroke="black" points="243.5,-259.5 243.5,-297.5 335.5,-297.5 335.5,-259.5 243.5,-259.5"/>
<text text-anchor="start" x="251.5" y="-282.3" font-family="Times,serif" font-size="14.00">0x41144d:</text>
<text text-anchor="start" x="251.5" y="-267.3" font-family="Times,serif" font-size="14.00"> return</text>
</g>
<!-- Node0x5cc4bdd0&#45;&gt;Node0x30881ac0 -->
<g id="edge9" class="edge"><title>Node0x5cc4bdd0&#45;&gt;Node0x30881ac0</title>
<path fill="none" stroke="black" d="M293.813,-421.434C290.838,-415.782 288.01,-409.318 286.5,-403 278.865,-371.059 281.437,-333.143 284.737,-307.828"/>
<polygon fill="black" stroke="black" points="288.22,-308.198 286.168,-297.804 281.29,-307.209 288.22,-308.198"/>
<text text-anchor="middle" x="313.5" y="-391.8" font-family="Times,serif" font-size="14.00">v4 != 0</text>
</g>
<!-- Node0x5cc4c800 -->
<g id="node11" class="node"><title>Node0x5cc4c800</title>
<polygon fill="none" stroke="black" points="319,-316.5 319,-369.5 414,-369.5 414,-316.5 319,-316.5"/>
<text text-anchor="start" x="327" y="-354.3" font-family="Times,serif" font-size="14.00">0x411437:</text>
<text text-anchor="start" x="327" y="-339.3" font-family="Times,serif" font-size="14.00"> v3 = g129</text>
<text text-anchor="start" x="327" y="-324.3" font-family="Times,serif" font-size="14.00"> g5 = v3</text>
</g>
<!-- Node0x5cc4bdd0&#45;&gt;Node0x5cc4c800 -->
<g id="edge10" class="edge"><title>Node0x5cc4bdd0&#45;&gt;Node0x5cc4c800</title>
<path fill="none" stroke="black" d="M327.601,-421.408C333.71,-416.04 339.88,-409.739 344.5,-403 349.431,-395.806 353.426,-387.366 356.588,-379.155"/>
<polygon fill="black" stroke="black" points="359.894,-380.304 359.925,-369.71 353.294,-377.973 359.894,-380.304"/>
<text text-anchor="middle" x="382.5" y="-391.8" font-family="Times,serif" font-size="14.00">v4 == 0</text>
</g>
<!-- Node0x5cc4edf0&#45;&gt;Node0x5cc4ecb0 -->
<g id="edge11" class="edge"><title>Node0x5cc4edf0&#45;&gt;Node0x5cc4ecb0</title>
<path fill="none" stroke="black" d="M108.028,-316.364C128.133,-296.175 156.02,-268.171 176.094,-248.013"/>
<polygon fill="black" stroke="black" points="178.796,-250.26 183.372,-240.704 173.836,-245.321 178.796,-250.26"/>
</g>
<!-- Node0x5cc4e5b0 -->
<g id="node12" class="node"><title>Node0x5cc4e5b0</title>
<polygon fill="none" stroke="black" points="284.5,-23.5 284.5,-59.5 338.5,-59.5 338.5,-23.5 284.5,-23.5"/>
<text text-anchor="start" x="292.5" y="-37.8" font-family="Times,serif" font-size="14.00">exit:</text>
</g>
<!-- Node0x5cc4ecb0&#45;&gt;Node0x5cc4e5b0 -->
<g id="edge12" class="edge"><title>Node0x5cc4ecb0&#45;&gt;Node0x5cc4e5b0</title>
<path fill="none" stroke="black" d="M208.514,-202.302C219.877,-174.091 244.132,-118.809 274.5,-78 277.265,-74.2841 280.435,-70.6122 283.73,-67.1199"/>
<polygon fill="black" stroke="black" points="286.44,-69.3599 291.037,-59.8144 281.491,-64.4097 286.44,-69.3599"/>
</g>
<!-- Node0x30881ac0&#45;&gt;Node0x5cc4e5b0 -->
<g id="edge13" class="edge"><title>Node0x30881ac0&#45;&gt;Node0x5cc4e5b0</title>
<path fill="none" stroke="black" d="M291.19,-259.45C295.025,-218.483 304.407,-118.27 308.951,-69.7319"/>
<polygon fill="black" stroke="black" points="312.447,-69.9364 309.894,-59.6537 305.477,-69.2839 312.447,-69.9364"/>
</g>
<!-- Node0x5cc4c8d0 -->
<g id="node13" class="node"><title>Node0x5cc4c8d0</title>
<polygon fill="none" stroke="black" points="317,-203.5 317,-239.5 416,-239.5 416,-203.5 317,-203.5"/>
<text text-anchor="start" x="325" y="-217.8" font-family="Times,serif" font-size="14.00">if (v3 != 0):</text>
</g>
<!-- Node0x5cc4c800&#45;&gt;Node0x5cc4c8d0 -->
<g id="edge14" class="edge"><title>Node0x5cc4c800&#45;&gt;Node0x5cc4c8d0</title>
<path fill="none" stroke="black" d="M366.5,-316.364C366.5,-296.716 366.5,-269.665 366.5,-249.649"/>
<polygon fill="black" stroke="black" points="370,-249.622 366.5,-239.622 363,-249.622 370,-249.622"/>
</g>
<!-- Node0x5cc4c8d0&#45;&gt;Node0x5cc4e5b0 -->
<g id="edge16" class="edge"><title>Node0x5cc4c8d0&#45;&gt;Node0x5cc4e5b0</title>
<path fill="none" stroke="black" d="M361.021,-203.38C356.537,-189.323 350.052,-168.889 344.5,-151 335.885,-123.241 326.233,-91.418 319.604,-69.4481"/>
<polygon fill="black" stroke="black" points="322.935,-68.3712 316.698,-59.8067 316.233,-70.3913 322.935,-68.3712"/>
<text text-anchor="middle" x="374.5" y="-120.3" font-family="Times,serif" font-size="14.00">v3 == 0</text>
</g>
<!-- Node0x5cc4ed50 -->
<g id="node14" class="node"><title>Node0x5cc4ed50</title>
<polygon fill="none" stroke="black" points="413,-97.5 413,-150.5 578,-150.5 578,-97.5 413,-97.5"/>
<text text-anchor="start" x="421" y="-135.3" font-family="Times,serif" font-size="14.00">0x411441:</text>
<text text-anchor="start" x="421" y="-120.3" font-family="Times,serif" font-size="14.00"> function_4113cf(v2)</text>
<text text-anchor="start" x="421" y="-105.3" font-family="Times,serif" font-size="14.00"> g129 = 0</text>
</g>
<!-- Node0x5cc4c8d0&#45;&gt;Node0x5cc4ed50 -->
<g id="edge15" class="edge"><title>Node0x5cc4c8d0&#45;&gt;Node0x5cc4ed50</title>
<path fill="none" stroke="black" d="M389.563,-203.427C407.093,-190.449 431.704,-172.229 452.793,-156.616"/>
<polygon fill="black" stroke="black" points="455.026,-159.318 460.981,-150.555 450.861,-153.692 455.026,-159.318"/>
<text text-anchor="middle" x="461.5" y="-172.8" font-family="Times,serif" font-size="14.00">v3 != 0</text>
</g>
<!-- Node0x5cc4ed50&#45;&gt;Node0x5cc4e5b0 -->
<g id="edge17" class="edge"><title>Node0x5cc4ed50&#45;&gt;Node0x5cc4e5b0</title>
<path fill="none" stroke="black" d="M437.028,-97.4187C407.916,-84.6819 373.614,-69.6749 348.231,-58.5699"/>
<polygon fill="black" stroke="black" points="349.533,-55.3194 338.969,-54.5177 346.728,-61.7325 349.533,-55.3194"/>
</g>
</g>
</svg>
