<?xml version="1.0" encoding="UTF-8" standalone="no"?>
<!DOCTYPE svg PUBLIC "-//W3C//DTD SVG 1.1//EN"
 "http://www.w3.org/Graphics/SVG/1.1/DTD/svg11.dtd">
<!-- Generated by graphviz version 2.38.0 (20140413.2041)
 -->
<!-- Title: Control&#45;flow graph for function &#39;function_420013(*a1, a2)&#39;. Pages: 1 -->
<svg width="598pt" height="520pt"
 viewBox="0.00 0.00 598.00 520.00" xmlns="http://www.w3.org/2000/svg" xmlns:xlink="http://www.w3.org/1999/xlink">
<g id="graph0" class="graph" transform="scale(1 1) rotate(0) translate(4 516)">
<title>Control&#45;flow graph for function &#39;function_420013(*a1, a2)&#39;.</title>
<polygon fill="white" stroke="none" points="-4,4 -4,-516 594,-516 594,4 -4,4"/>
<text text-anchor="middle" x="295" y="-7.8" font-family="Times,serif" font-size="14.00">Control&#45;flow graph for function &#39;function_420013(*a1, a2)&#39;.</text>
<!-- Node0x33ff3170 -->
<g id="node1" class="node"><title>Node0x33ff3170</title>
<polygon fill="none" stroke="black" points="265.5,-458.5 265.5,-511.5 324.5,-511.5 324.5,-458.5 265.5,-458.5"/>
<text text-anchor="start" x="273.5" y="-496.3" font-family="Times,serif" font-size="14.00">entry:</text>
<text text-anchor="start" x="273.5" y="-481.3" font-family="Times,serif" font-size="14.00"> a1</text>
<text text-anchor="start" x="273.5" y="-466.3" font-family="Times,serif" font-size="14.00"> a2</text>
</g>
<!-- Node0xc5a58b10 -->
<g id="node2" class="node"><title>Node0xc5a58b10</title>
<polygon fill="none" stroke="black" points="0,-367.5 0,-420.5 590,-420.5 590,-367.5 0,-367.5"/>
<text text-anchor="start" x="8" y="-405.3" font-family="Times,serif" font-size="14.00">g9 = g5</text>
<text text-anchor="start" x="8" y="-390.3" font-family="Times,serif" font-size="14.00"> *(IntToPtrCastExpr&lt;ptr&gt;(g5)) = PtrToIntCastExpr&lt;int32&gt;(&amp;(vtable_43c354))</text>
<text text-anchor="start" x="8" y="-375.3" font-family="Times,serif" font-size="14.00"> v1</text>
</g>
<!-- Node0x33ff3170&#45;&gt;Node0xc5a58b10 -->
<g id="edge1" class="edge"><title>Node0x33ff3170&#45;&gt;Node0xc5a58b10</title>
<path fill="none" stroke="black" d="M295,-458.258C295,-449.678 295,-439.961 295,-430.762"/>
<polygon fill="black" stroke="black" points="298.5,-430.685 295,-420.685 291.5,-430.685 298.5,-430.685"/>
</g>
<!-- Node0xc5a551a0 -->
<g id="node3" class="node"><title>Node0xc5a551a0</title>
<polygon fill="none" stroke="black" points="236.5,-293.5 236.5,-329.5 353.5,-329.5 353.5,-293.5 236.5,-293.5"/>
<text text-anchor="start" x="244.5" y="-307.8" font-family="Times,serif" font-size="14.00">if (*(a1) != 1):</text>
</g>
<!-- Node0xc5a58b10&#45;&gt;Node0xc5a551a0 -->
<g id="edge2" class="edge"><title>Node0xc5a58b10&#45;&gt;Node0xc5a551a0</title>
<path fill="none" stroke="black" d="M295,-367.086C295,-358.46 295,-348.822 295,-340.075"/>
<polygon fill="black" stroke="black" points="298.5,-339.973 295,-329.974 291.5,-339.974 298.5,-339.973"/>
</g>
<!-- Node0xc5a58be0 -->
<g id="node4" class="node"><title>Node0xc5a58be0</title>
<polygon fill="none" stroke="black" points="41.5,-188.5 41.5,-241.5 302.5,-241.5 302.5,-188.5 41.5,-188.5"/>
<text text-anchor="start" x="49.5" y="-226.3" font-family="Times,serif" font-size="14.00">0x420023:</text>
<text text-anchor="start" x="49.5" y="-211.3" font-family="Times,serif" font-size="14.00"> v1 = IntToPtrCastExpr&lt;ptr&gt;(g9)</text>
<text text-anchor="start" x="49.5" y="-196.3" font-family="Times,serif" font-size="14.00"> function_410da7(v1)</text>
</g>
<!-- Node0xc5a551a0&#45;&gt;Node0xc5a58be0 -->
<g id="edge3" class="edge"><title>Node0xc5a551a0&#45;&gt;Node0xc5a58be0</title>
<path fill="none" stroke="black" d="M272.726,-293.387C256.176,-280.671 233.121,-262.959 213.244,-247.688"/>
<polygon fill="black" stroke="black" points="215.297,-244.851 205.235,-241.534 211.032,-250.402 215.297,-244.851"/>
<text text-anchor="middle" x="285" y="-263.8" font-family="Times,serif" font-size="14.00">*(a1) != 1</text>
</g>
<!-- Node0xc5a580d0 -->
<g id="node5" class="node"><title>Node0xc5a580d0</title>
<polygon fill="none" stroke="black" points="161,-97.5 161,-150.5 421,-150.5 421,-97.5 161,-97.5"/>
<text text-anchor="start" x="169" y="-135.3" font-family="Times,serif" font-size="14.00">result = g9</text>
<text text-anchor="start" x="169" y="-120.3" font-family="Times,serif" font-size="14.00"> g9 = ExtCastExpr&lt;int32&gt;(*(v1))</text>
<text text-anchor="start" x="169" y="-105.3" font-family="Times,serif" font-size="14.00"> return result</text>
</g>
<!-- Node0xc5a551a0&#45;&gt;Node0xc5a580d0 -->
<g id="edge4" class="edge"><title>Node0xc5a551a0&#45;&gt;Node0xc5a580d0</title>
<path fill="none" stroke="black" d="M313.65,-293.316C318.252,-287.947 322.56,-281.668 325,-275 339.054,-236.595 324.123,-190.454 309.858,-159.58"/>
<polygon fill="black" stroke="black" points="312.982,-158 305.485,-150.514 306.677,-161.042 312.982,-158"/>
<text text-anchor="middle" x="370" y="-211.3" font-family="Times,serif" font-size="14.00">*(a1) == 1</text>
</g>
<!-- Node0xc5a58be0&#45;&gt;Node0xc5a580d0 -->
<g id="edge5" class="edge"><title>Node0xc5a58be0&#45;&gt;Node0xc5a580d0</title>
<path fill="none" stroke="black" d="M206.101,-188.496C219.42,-178.534 234.831,-167.009 248.837,-156.534"/>
<polygon fill="black" stroke="black" points="250.983,-159.3 256.894,-150.508 246.79,-153.694 250.983,-159.3"/>
</g>
<!-- Node0xc5a55320 -->
<g id="node6" class="node"><title>Node0xc5a55320</title>
<polygon fill="none" stroke="black" points="264,-23.5 264,-59.5 318,-59.5 318,-23.5 264,-23.5"/>
<text text-anchor="start" x="272" y="-37.8" font-family="Times,serif" font-size="14.00">exit:</text>
</g>
<!-- Node0xc5a580d0&#45;&gt;Node0xc5a55320 -->
<g id="edge6" class="edge"><title>Node0xc5a580d0&#45;&gt;Node0xc5a55320</title>
<path fill="none" stroke="black" d="M291,-97.0862C291,-88.4596 291,-78.8224 291,-70.0748"/>
<polygon fill="black" stroke="black" points="294.5,-69.9735 291,-59.9735 287.5,-69.9735 294.5,-69.9735"/>
</g>
</g>
</svg>
