<?xml version="1.0" encoding="UTF-8" standalone="no"?>
<!DOCTYPE svg PUBLIC "-//W3C//DTD SVG 1.1//EN"
 "http://www.w3.org/Graphics/SVG/1.1/DTD/svg11.dtd">
<!-- Generated by graphviz version 2.38.0 (20140413.2041)
 -->
<!-- Title: Control&#45;flow graph for function &#39;function_4104e9(*a1)&#39;. Pages: 1 -->
<svg width="2206pt" height="3875pt"
 viewBox="0.00 0.00 2206.00 3875.00" xmlns="http://www.w3.org/2000/svg" xmlns:xlink="http://www.w3.org/1999/xlink">
<g id="graph0" class="graph" transform="scale(1 1) rotate(0) translate(4 3871)">
<title>Control&#45;flow graph for function &#39;function_4104e9(*a1)&#39;.</title>
<polygon fill="white" stroke="none" points="-4,4 -4,-3871 2202,-3871 2202,4 -4,4"/>
<text text-anchor="middle" x="1099" y="-7.8" font-family="Times,serif" font-size="14.00">Control&#45;flow graph for function &#39;function_4104e9(*a1)&#39;.</text>
<!-- Node0xc9775ce0 -->
<g id="node1" class="node"><title>Node0xc9775ce0</title>
<polygon fill="none" stroke="black" points="480.5,-3828.5 480.5,-3866.5 539.5,-3866.5 539.5,-3828.5 480.5,-3828.5"/>
<text text-anchor="start" x="488.5" y="-3851.3" font-family="Times,serif" font-size="14.00">entry:</text>
<text text-anchor="start" x="488.5" y="-3836.3" font-family="Times,serif" font-size="14.00"> a1</text>
</g>
<!-- Node0xc9775490 -->
<g id="node2" class="node"><title>Node0xc9775490</title>
<polygon fill="none" stroke="black" points="0,-3482.5 0,-3790.5 1020,-3790.5 1020,-3482.5 0,-3482.5"/>
<text text-anchor="start" x="8" y="-3775.3" font-family="Times,serif" font-size="14.00">v1</text>
<text text-anchor="start" x="8" y="-3760.3" font-family="Times,serif" font-size="14.00"> g3 = &amp;(v1)</text>
<text text-anchor="start" x="8" y="-3745.3" font-family="Times,serif" font-size="14.00"> v2 = g4</text>
<text text-anchor="start" x="8" y="-3730.3" font-family="Times,serif" font-size="14.00"> v3 = g9</text>
<text text-anchor="start" x="8" y="-3715.3" font-family="Times,serif" font-size="14.00"> g9 = PtrToIntCastExpr&lt;int32&gt;(a1)</text>
<text text-anchor="start" x="8" y="-3700.3" font-family="Times,serif" font-size="14.00"> v4 = g7</text>
<text text-anchor="start" x="8" y="-3685.3" font-family="Times,serif" font-size="14.00"> v5 = IntToPtrCastExpr&lt;ptr&gt;(296)</text>
<text text-anchor="start" x="8" y="-3670.3" font-family="Times,serif" font-size="14.00"> g4 = 0</text>
<text text-anchor="start" x="8" y="-3655.3" font-family="Times,serif" font-size="14.00"> v6 = NULL</text>
<text text-anchor="start" x="8" y="-3640.3" font-family="Times,serif" font-size="14.00"> v7 = BitCastExpr&lt;ptr&gt;(a1)</text>
<text text-anchor="start" x="8" y="-3625.3" font-family="Times,serif" font-size="14.00"> g7 = g5</text>
<text text-anchor="start" x="8" y="-3610.3" font-family="Times,serif" font-size="14.00"> _memset(BitCastExpr&lt;ptr&gt;(a1))</text>
<text text-anchor="start" x="8" y="-3595.3" font-family="Times,serif" font-size="14.00"> v8 = IntToPtrCastExpr&lt;ptr&gt;(&#45;1)</text>
<text text-anchor="start" x="8" y="-3580.3" font-family="Times,serif" font-size="14.00"> v9 = *(IntToPtrCastExpr&lt;ptr&gt;((g7 + 12)))</text>
<text text-anchor="start" x="8" y="-3565.3" font-family="Times,serif" font-size="14.00"> v10 = (g9 + 34)</text>
<text text-anchor="start" x="8" y="-3550.3" font-family="Times,serif" font-size="14.00"> g2 = v10</text>
<text text-anchor="start" x="8" y="-3535.3" font-family="Times,serif" font-size="14.00"> function_40def4(IntToPtrCastExpr&lt;ptr&gt;(v10), IntToPtrCastExpr&lt;ptr&gt;(260), IntToPtrCastExpr&lt;ptr&gt;(v9), IntToPtrCastExpr&lt;ptr&gt;(&#45;1), v7)</text>
<text text-anchor="start" x="8" y="-3520.3" font-family="Times,serif" font-size="14.00"> v11 = *(IntToPtrCastExpr&lt;ptr&gt;((g7 + 4)))</text>
<text text-anchor="start" x="8" y="-3505.3" font-family="Times,serif" font-size="14.00"> g2 = v11</text>
<text text-anchor="start" x="8" y="-3490.3" font-family="Times,serif" font-size="14.00"> result</text>
</g>
<!-- Node0xc9775ce0&#45;&gt;Node0xc9775490 -->
<g id="edge1" class="edge"><title>Node0xc9775ce0&#45;&gt;Node0xc9775490</title>
<path fill="none" stroke="black" d="M510,-3828.32C510,-3820.87 510,-3811.5 510,-3800.94"/>
<polygon fill="black" stroke="black" points="513.5,-3800.93 510,-3790.93 506.5,-3800.93 513.5,-3800.93"/>
</g>
<!-- Node0xc9776ff0 -->
<g id="node3" class="node"><title>Node0xc9776ff0</title>
<polygon fill="none" stroke="black" points="450.5,-3406.5 450.5,-3444.5 569.5,-3444.5 569.5,-3406.5 450.5,-3406.5"/>
<text text-anchor="start" x="458.5" y="-3429.3" font-family="Times,serif" font-size="14.00">if (v11 == &#45;1):</text>
<text text-anchor="start" x="458.5" y="-3414.3" font-family="Times,serif" font-size="14.00"> else:</text>
</g>
<!-- Node0xc9775490&#45;&gt;Node0xc9776ff0 -->
<g id="edge2" class="edge"><title>Node0xc9775490&#45;&gt;Node0xc9776ff0</title>
<path fill="none" stroke="black" d="M510,-3482.23C510,-3472.18 510,-3462.9 510,-3454.91"/>
<polygon fill="black" stroke="black" points="513.5,-3454.87 510,-3444.87 506.5,-3454.87 513.5,-3454.87"/>
</g>
<!-- Node0xc9777560 -->
<g id="node4" class="node"><title>Node0xc9777560</title>
<polygon fill="none" stroke="black" points="329.5,-3169.5 329.5,-3222.5 422.5,-3222.5 422.5,-3169.5 329.5,-3169.5"/>
<text text-anchor="start" x="337.5" y="-3207.3" font-family="Times,serif" font-size="14.00">0x410638:</text>
<text text-anchor="start" x="337.5" y="-3192.3" font-family="Times,serif" font-size="14.00"> g2 = 0</text>
<text text-anchor="start" x="337.5" y="-3177.3" font-family="Times,serif" font-size="14.00"> result = 1</text>
</g>
<!-- Node0xc9776ff0&#45;&gt;Node0xc9777560 -->
<g id="edge3" class="edge"><title>Node0xc9776ff0&#45;&gt;Node0xc9777560</title>
<path fill="none" stroke="black" d="M499.261,-3406.27C476.927,-3368.35 425.158,-3280.46 396.321,-3231.5"/>
<polygon fill="black" stroke="black" points="399.307,-3229.67 391.216,-3222.83 393.275,-3233.23 399.307,-3229.67"/>
<text text-anchor="middle" x="524.5" y="-3376.8" font-family="Times,serif" font-size="14.00">v11 == &#45;1</text>
</g>
<!-- Node0xc97775c0 -->
<g id="node5" class="node"><title>Node0xc97775c0</title>
<polygon fill="none" stroke="black" points="556,-3241.5 556,-3354.5 978,-3354.5 978,-3241.5 556,-3241.5"/>
<text text-anchor="start" x="564" y="-3339.3" font-family="Times,serif" font-size="14.00">0x41052a:</text>
<text text-anchor="start" x="564" y="-3324.3" font-family="Times,serif" font-size="14.00"> lpLastWriteTime</text>
<text text-anchor="start" x="564" y="-3309.3" font-family="Times,serif" font-size="14.00"> v12 = PtrToIntCastExpr&lt;int32&gt;(&amp;(lpLastWriteTime))</text>
<text text-anchor="start" x="564" y="-3294.3" font-family="Times,serif" font-size="14.00"> lpLastAccessTime</text>
<text text-anchor="start" x="564" y="-3279.3" font-family="Times,serif" font-size="14.00"> v13 = PtrToIntCastExpr&lt;int32&gt;(&amp;(lpLastAccessTime))</text>
<text text-anchor="start" x="564" y="-3264.3" font-family="Times,serif" font-size="14.00"> hFile = IntToPtrCastExpr&lt;ptr&gt;(v11)</text>
<text text-anchor="start" x="564" y="-3249.3" font-family="Times,serif" font-size="14.00"> v8 = hFile</text>
</g>
<!-- Node0xc9776ff0&#45;&gt;Node0xc97775c0 -->
<g id="edge4" class="edge"><title>Node0xc9776ff0&#45;&gt;Node0xc97775c0</title>
<path fill="none" stroke="black" d="M547.096,-3406.39C572.744,-3393.86 608.465,-3376.42 643.668,-3359.23"/>
<polygon fill="black" stroke="black" points="645.636,-3362.16 653.086,-3354.63 642.564,-3355.87 645.636,-3362.16"/>
<text text-anchor="middle" x="641.5" y="-3376.8" font-family="Times,serif" font-size="14.00">v11 != &#45;1</text>
</g>
<!-- Node0xc9777280 -->
<g id="node6" class="node"><title>Node0xc9777280</title>
<polygon fill="none" stroke="black" points="306.5,-2798.5 306.5,-2896.5 419.5,-2896.5 419.5,-2798.5 306.5,-2798.5"/>
<text text-anchor="start" x="314.5" y="-2881.3" font-family="Times,serif" font-size="14.00">0x41063b:</text>
<text text-anchor="start" x="314.5" y="-2866.3" font-family="Times,serif" font-size="14.00"> g7 = v4</text>
<text text-anchor="start" x="314.5" y="-2851.3" font-family="Times,serif" font-size="14.00"> g9 = v3</text>
<text text-anchor="start" x="314.5" y="-2836.3" font-family="Times,serif" font-size="14.00"> g4 = v2</text>
<text text-anchor="start" x="314.5" y="-2821.3" font-family="Times,serif" font-size="14.00"> g3 = v1</text>
<text text-anchor="start" x="314.5" y="-2806.3" font-family="Times,serif" font-size="14.00"> return result</text>
</g>
<!-- Node0xc9777560&#45;&gt;Node0xc9777280 -->
<g id="edge5" class="edge"><title>Node0xc9777560&#45;&gt;Node0xc9777280</title>
<path fill="none" stroke="black" d="M375.034,-3169.24C372.965,-3114.11 368.066,-2983.53 365.197,-2907.06"/>
<polygon fill="black" stroke="black" points="368.679,-2906.51 364.806,-2896.65 361.684,-2906.77 368.679,-2906.51"/>
</g>
<!-- Node0xc97776d0 -->
<g id="node7" class="node"><title>Node0xc97776d0</title>
<polygon fill="none" stroke="black" points="391.5,-3114.5 391.5,-3150.5 1218.5,-3150.5 1218.5,-3114.5 391.5,-3114.5"/>
<text text-anchor="start" x="399.5" y="-3128.8" font-family="Times,serif" font-size="14.00">if GetFileTime(hFile, NULL, BitCastExpr&lt;ptr&gt;(&amp;(lpLastAccessTime)), BitCastExpr&lt;ptr&gt;(&amp;(lpLastWriteTime))):</text>
</g>
<!-- Node0xc97775c0&#45;&gt;Node0xc97776d0 -->
<g id="edge6" class="edge"><title>Node0xc97775c0&#45;&gt;Node0xc97776d0</title>
<path fill="none" stroke="black" d="M779.971,-3241.19C786.29,-3214 793.602,-3182.54 798.685,-3160.67"/>
<polygon fill="black" stroke="black" points="802.132,-3161.3 800.986,-3150.77 795.313,-3159.72 802.132,-3161.3"/>
</g>
<!-- Node0xc97759f0 -->
<g id="node8" class="node"><title>Node0xc97759f0</title>
<polygon fill="none" stroke="black" points="806,-23.5 806,-59.5 860,-59.5 860,-23.5 806,-23.5"/>
<text text-anchor="start" x="814" y="-37.8" font-family="Times,serif" font-size="14.00">exit:</text>
</g>
<!-- Node0xc9777280&#45;&gt;Node0xc97759f0 -->
<g id="edge7" class="edge"><title>Node0xc9777280&#45;&gt;Node0xc97759f0</title>
<path fill="none" stroke="black" d="M362.407,-2798.28C362.191,-2776.9 362,-2751.45 362,-2728.5 362,-2728.5 362,-2728.5 362,-153 362,-64.0056 684.746,-46.6299 795.906,-43.2847"/>
<polygon fill="black" stroke="black" points="796.087,-46.7811 805.985,-43.0028 795.891,-39.7838 796.087,-46.7811"/>
</g>
<!-- Node0xc97772e0 -->
<g id="node9" class="node"><title>Node0xc97772e0</title>
<polygon fill="none" stroke="black" points="1186.5,-2934.5 1186.5,-3062.5 1661.5,-3062.5 1661.5,-2934.5 1186.5,-2934.5"/>
<text text-anchor="start" x="1194.5" y="-3047.3" font-family="Times,serif" font-size="14.00">v14 = IntToPtrCastExpr&lt;ptr&gt;(g4)</text>
<text text-anchor="start" x="1194.5" y="-3032.3" font-family="Times,serif" font-size="14.00"> v5 = v14</text>
<text text-anchor="start" x="1194.5" y="-3017.3" font-family="Times,serif" font-size="14.00"> hFile2 = *(IntToPtrCastExpr&lt;ptr&gt;((g7 + 4)))</text>
<text text-anchor="start" x="1194.5" y="-3002.3" font-family="Times,serif" font-size="14.00"> v6 = IntToPtrCastExpr&lt;ptr&gt;(hFile2)</text>
<text text-anchor="start" x="1194.5" y="-2987.3" font-family="Times,serif" font-size="14.00"> v15 = GetFileSize(IntToPtrCastExpr&lt;ptr&gt;(hFile2), &amp;(v14[&#39;0&#39;]))</text>
<text text-anchor="start" x="1194.5" y="-2972.3" font-family="Times,serif" font-size="14.00"> *(IntToPtrCastExpr&lt;ptr&gt;((g9 + 24))) = ((v15 &amp; 1) != 0)</text>
<text text-anchor="start" x="1194.5" y="-2957.3" font-family="Times,serif" font-size="14.00"> *(IntToPtrCastExpr&lt;ptr&gt;((g9 + 28))) = g4</text>
<text text-anchor="start" x="1194.5" y="-2942.3" font-family="Times,serif" font-size="14.00"> v16 = g4</text>
</g>
<!-- Node0xc97776d0&#45;&gt;Node0xc97772e0 -->
<g id="edge8" class="edge"><title>Node0xc97776d0&#45;&gt;Node0xc97772e0</title>
<path fill="none" stroke="black" d="M1218.6,-3122.98C1305.24,-3117.72 1375.83,-3109.33 1393,-3096 1401.03,-3089.77 1407.01,-3081.44 1411.46,-3072.27"/>
<polygon fill="black" stroke="black" points="1414.77,-3073.45 1415.42,-3062.87 1408.31,-3070.73 1414.77,-3073.45"/>
<text text-anchor="middle" x="1802" y="-3084.8" font-family="Times,serif" font-size="14.00">GetFileTime(hFile, NULL, BitCastExpr&lt;ptr&gt;(&amp;(lpLastAccessTime)), BitCastExpr&lt;ptr&gt;(&amp;(lpLastWriteTime)))</text>
</g>
<!-- Node0x2e0b8280 -->
<g id="node10" class="node"><title>Node0x2e0b8280</title>
<polygon fill="none" stroke="black" points="409.5,-2979.5 409.5,-3017.5 502.5,-3017.5 502.5,-2979.5 409.5,-2979.5"/>
<text text-anchor="start" x="417.5" y="-3002.3" font-family="Times,serif" font-size="14.00">0x410541:</text>
<text text-anchor="start" x="417.5" y="-2987.3" font-family="Times,serif" font-size="14.00"> result = 0</text>
</g>
<!-- Node0xc97776d0&#45;&gt;Node0x2e0b8280 -->
<g id="edge9" class="edge"><title>Node0xc97776d0&#45;&gt;Node0x2e0b8280</title>
<path fill="none" stroke="black" d="M640.921,-3114.49C607.766,-3109.41 578.369,-3103.23 563,-3096 528.124,-3079.59 496.469,-3047.98 476.792,-3025.41"/>
<polygon fill="black" stroke="black" points="479.247,-3022.89 470.101,-3017.54 473.917,-3027.43 479.247,-3022.89"/>
<text text-anchor="middle" x="978" y="-3084.8" font-family="Times,serif" font-size="14.00">not (GetFileTime(hFile, NULL, BitCastExpr&lt;ptr&gt;(&amp;(lpLastAccessTime)), BitCastExpr&lt;ptr&gt;(&amp;(lpLastWriteTime))))</text>
</g>
<!-- Node0xc9778260 -->
<g id="node11" class="node"><title>Node0xc9778260</title>
<polygon fill="none" stroke="black" points="1355.5,-2829.5 1355.5,-2865.5 1504.5,-2865.5 1504.5,-2829.5 1355.5,-2829.5"/>
<text text-anchor="start" x="1363.5" y="-2843.8" font-family="Times,serif" font-size="14.00">if ((v15 &amp; 1) != 0):</text>
</g>
<!-- Node0xc97772e0&#45;&gt;Node0xc9778260 -->
<g id="edge10" class="edge"><title>Node0xc97772e0&#45;&gt;Node0xc9778260</title>
<path fill="none" stroke="black" d="M1426.54,-2934.31C1427.36,-2913.95 1428.23,-2892.43 1428.89,-2876.03"/>
<polygon fill="black" stroke="black" points="1432.41,-2875.71 1429.31,-2865.58 1425.41,-2875.43 1432.41,-2875.71"/>
</g>
<!-- Node0x2e0b8280&#45;&gt;Node0xc9777280 -->
<g id="edge11" class="edge"><title>Node0x2e0b8280&#45;&gt;Node0xc9777280</title>
<path fill="none" stroke="black" d="M444.596,-2979.23C433.136,-2960.87 414.874,-2931.61 398.531,-2905.43"/>
<polygon fill="black" stroke="black" points="401.338,-2903.31 393.074,-2896.68 395.4,-2907.02 401.338,-2903.31"/>
</g>
<!-- Node0xc977b7d0 -->
<g id="node12" class="node"><title>Node0xc977b7d0</title>
<polygon fill="none" stroke="black" points="1558.5,-2708.5 1558.5,-2746.5 1677.5,-2746.5 1677.5,-2708.5 1558.5,-2708.5"/>
<text text-anchor="start" x="1566.5" y="-2731.3" font-family="Times,serif" font-size="14.00">0x41055d:</text>
<text text-anchor="start" x="1566.5" y="-2716.3" font-family="Times,serif" font-size="14.00"> if (v16 == 0):</text>
</g>
<!-- Node0xc9778260&#45;&gt;Node0xc977b7d0 -->
<g id="edge12" class="edge"><title>Node0xc9778260&#45;&gt;Node0xc977b7d0</title>
<path fill="none" stroke="black" d="M1457.34,-2829.34C1489.73,-2809.01 1543.87,-2775.03 1580.25,-2752.2"/>
<polygon fill="black" stroke="black" points="1582.48,-2754.93 1589.09,-2746.65 1578.76,-2749 1582.48,-2754.93"/>
<text text-anchor="middle" x="1610" y="-2768.8" font-family="Times,serif" font-size="14.00">(v15 &amp; 1) != 0</text>
</g>
<!-- Node0xc97787c0 -->
<g id="node13" class="node"><title>Node0xc97787c0</title>
<polygon fill="none" stroke="black" points="1236,-2618.5 1236,-2656.5 1626,-2656.5 1626,-2618.5 1236,-2618.5"/>
<text text-anchor="start" x="1244" y="-2641.3" font-family="Times,serif" font-size="14.00">lpFileName = *(IntToPtrCastExpr&lt;ptr&gt;((g7 + 12)))</text>
<text text-anchor="start" x="1244" y="-2626.3" font-family="Times,serif" font-size="14.00"> g7 = lpFileName</text>
</g>
<!-- Node0xc9778260&#45;&gt;Node0xc97787c0 -->
<g id="edge13" class="edge"><title>Node0xc9778260&#45;&gt;Node0xc97787c0</title>
<path fill="none" stroke="black" d="M1430.08,-2829.48C1430.25,-2793.79 1430.65,-2710.81 1430.86,-2666.91"/>
<polygon fill="black" stroke="black" points="1434.36,-2666.66 1430.91,-2656.64 1427.36,-2666.63 1434.36,-2666.66"/>
<text text-anchor="middle" x="1486" y="-2723.8" font-family="Times,serif" font-size="14.00">(v15 &amp; 1) == 0</text>
</g>
<!-- Node0xc977b7d0&#45;&gt;Node0xc97787c0 -->
<g id="edge15" class="edge"><title>Node0xc977b7d0&#45;&gt;Node0xc97787c0</title>
<path fill="none" stroke="black" d="M1579.71,-2708.48C1550.56,-2694.76 1510.26,-2675.8 1478.96,-2661.07"/>
<polygon fill="black" stroke="black" points="1480.1,-2657.74 1469.56,-2656.65 1477.12,-2664.07 1480.1,-2657.74"/>
<text text-anchor="middle" x="1567.5" y="-2678.8" font-family="Times,serif" font-size="14.00">v16 != 0</text>
</g>
<!-- Node0xc97785b0 -->
<g id="node14" class="node"><title>Node0xc97785b0</title>
<polygon fill="none" stroke="black" points="1848,-2501.5 1848,-2599.5 1940,-2599.5 1940,-2501.5 1848,-2501.5"/>
<text text-anchor="start" x="1856" y="-2584.3" font-family="Times,serif" font-size="14.00">0x41063b:</text>
<text text-anchor="start" x="1856" y="-2569.3" font-family="Times,serif" font-size="14.00"> g7 = v4</text>
<text text-anchor="start" x="1856" y="-2554.3" font-family="Times,serif" font-size="14.00"> g9 = v3</text>
<text text-anchor="start" x="1856" y="-2539.3" font-family="Times,serif" font-size="14.00"> g4 = v2</text>
<text text-anchor="start" x="1856" y="-2524.3" font-family="Times,serif" font-size="14.00"> g3 = v1</text>
<text text-anchor="start" x="1856" y="-2509.3" font-family="Times,serif" font-size="14.00"> return 0</text>
</g>
<!-- Node0xc977b7d0&#45;&gt;Node0xc97785b0 -->
<g id="edge14" class="edge"><title>Node0xc977b7d0&#45;&gt;Node0xc97785b0</title>
<path fill="none" stroke="black" d="M1646.5,-2708.43C1691.82,-2679.69 1781.14,-2623.06 1839.17,-2586.27"/>
<polygon fill="black" stroke="black" points="1841.28,-2589.07 1847.85,-2580.76 1837.53,-2583.16 1841.28,-2589.07"/>
<text text-anchor="middle" x="1732.5" y="-2678.8" font-family="Times,serif" font-size="14.00">v16 == 0</text>
</g>
<!-- Node0xc97773d0 -->
<g id="node15" class="node"><title>Node0xc97773d0</title>
<polygon fill="none" stroke="black" points="1215,-2444.5 1215,-2482.5 1647,-2482.5 1647,-2444.5 1215,-2444.5"/>
<text text-anchor="start" x="1223" y="-2467.3" font-family="Times,serif" font-size="14.00">if (*(IntToPtrCastExpr&lt;ptr&gt;((lpFileName &#45; 12))) == v16):</text>
<text text-anchor="start" x="1223" y="-2452.3" font-family="Times,serif" font-size="14.00"> else:</text>
</g>
<!-- Node0xc97787c0&#45;&gt;Node0xc97773d0 -->
<g id="edge16" class="edge"><title>Node0xc97787c0&#45;&gt;Node0xc97773d0</title>
<path fill="none" stroke="black" d="M1431,-2618.42C1431,-2588.48 1431,-2528.4 1431,-2492.8"/>
<polygon fill="black" stroke="black" points="1434.5,-2492.6 1431,-2482.6 1427.5,-2492.6 1434.5,-2492.6"/>
</g>
<!-- Node0xc97785b0&#45;&gt;Node0xc97759f0 -->
<g id="edge17" class="edge"><title>Node0xc97785b0&#45;&gt;Node0xc97759f0</title>
<path fill="none" stroke="black" d="M1940.07,-2502.37C1957.86,-2479.3 1974,-2449.98 1974,-2419.5 1974,-2419.5 1974,-2419.5 1974,-153 1974,-39.4112 1066.56,-40.5378 870.186,-42.1115"/>
<polygon fill="black" stroke="black" points="870.049,-38.6125 860.079,-42.1981 870.109,-45.6122 870.049,-38.6125"/>
</g>
<!-- Node0xb0073f20 -->
<g id="node16" class="node"><title>Node0xb0073f20</title>
<polygon fill="none" stroke="black" points="390,-2332 390,-2370 900,-2370 900,-2332 390,-2332"/>
<text text-anchor="start" x="398" y="-2354.8" font-family="Times,serif" font-size="14.00">0x410569:</text>
<text text-anchor="start" x="398" y="-2339.8" font-family="Times,serif" font-size="14.00"> *(IntToPtrCastExpr&lt;ptr&gt;((g9 + 32))) = TruncCastExpr&lt;int8&gt;(v16)</text>
</g>
<!-- Node0xc97773d0&#45;&gt;Node0xb0073f20 -->
<g id="edge18" class="edge"><title>Node0xc97773d0&#45;&gt;Node0xb0073f20</title>
<path fill="none" stroke="black" d="M1214.75,-2445.81C1158.09,-2440.47 1097.15,-2433.86 1041,-2426 937.212,-2411.48 819.254,-2388.6 739.271,-2372.13"/>
<polygon fill="black" stroke="black" points="739.722,-2368.65 729.221,-2370.05 738.305,-2375.5 739.722,-2368.65"/>
<text text-anchor="middle" x="1234.5" y="-2414.8" font-family="Times,serif" font-size="14.00">*(IntToPtrCastExpr&lt;ptr&gt;((lpFileName &#45; 12))) == v16</text>
</g>
<!-- Node0xc9775180 -->
<g id="node17" class="node"><title>Node0xc9775180</title>
<polygon fill="none" stroke="black" points="918,-2309.5 918,-2392.5 1946,-2392.5 1946,-2309.5 918,-2309.5"/>
<text text-anchor="start" x="926" y="-2377.3" font-family="Times,serif" font-size="14.00">0x41056e:</text>
<text text-anchor="start" x="926" y="-2362.3" font-family="Times,serif" font-size="14.00"> v5 = IntToPtrCastExpr&lt;ptr&gt;(lpFileName)</text>
<text text-anchor="start" x="926" y="-2347.3" font-family="Times,serif" font-size="14.00"> v17 = GetFileAttributesA(IntToPtrCastExpr&lt;ptr&gt;(lpFileName))</text>
<text text-anchor="start" x="926" y="-2332.3" font-family="Times,serif" font-size="14.00"> v18 = (&#45;256 if (v17 == &#45;1) else 0)</text>
<text text-anchor="start" x="926" y="-2317.3" font-family="Times,serif" font-size="14.00"> *(IntToPtrCastExpr&lt;ptr&gt;((g9 + 32))) = ExtCastExpr&lt;int8&gt;(((((((ExtCastExpr&lt;int32&gt;((v17 == &#45;1)) + 255) &amp; 255) | v18) &amp; v17) &amp; 1) != 0))</text>
</g>
<!-- Node0xc97773d0&#45;&gt;Node0xc9775180 -->
<g id="edge19" class="edge"><title>Node0xc97773d0&#45;&gt;Node0xc9775180</title>
<path fill="none" stroke="black" d="M1431.17,-2444.25C1431.27,-2432.9 1431.41,-2417.68 1431.54,-2402.89"/>
<polygon fill="black" stroke="black" points="1435.04,-2402.79 1431.63,-2392.76 1428.04,-2402.73 1435.04,-2402.79"/>
<text text-anchor="middle" x="1622.5" y="-2414.8" font-family="Times,serif" font-size="14.00">*(IntToPtrCastExpr&lt;ptr&gt;((lpFileName &#45; 12))) != v16</text>
</g>
<!-- Node0xc9778f60 -->
<g id="node18" class="node"><title>Node0xc9778f60</title>
<polygon fill="none" stroke="black" points="975.5,-2173.5 975.5,-2271.5 1292.5,-2271.5 1292.5,-2173.5 975.5,-2173.5"/>
<text text-anchor="start" x="983.5" y="-2256.3" font-family="Times,serif" font-size="14.00">0x410582:</text>
<text text-anchor="start" x="983.5" y="-2241.3" font-family="Times,serif" font-size="14.00"> v19</text>
<text text-anchor="start" x="983.5" y="-2226.3" font-family="Times,serif" font-size="14.00"> v20 = PtrToIntCastExpr&lt;int32&gt;(&amp;(v19))</text>
<text text-anchor="start" x="983.5" y="-2211.3" font-family="Times,serif" font-size="14.00"> g2 = v20</text>
<text text-anchor="start" x="983.5" y="-2196.3" font-family="Times,serif" font-size="14.00"> g10 = PtrToIntCastExpr&lt;int32&gt;(&amp;(v5))</text>
<text text-anchor="start" x="983.5" y="-2181.3" font-family="Times,serif" font-size="14.00"> v21</text>
</g>
<!-- Node0xb0073f20&#45;&gt;Node0xc9778f60 -->
<g id="edge20" class="edge"><title>Node0xb0073f20&#45;&gt;Node0xc9778f60</title>
<path fill="none" stroke="black" d="M714.802,-2331.94C779.913,-2315.1 879.624,-2289.3 965.464,-2267.1"/>
<polygon fill="black" stroke="black" points="966.52,-2270.44 975.324,-2264.55 964.766,-2263.66 966.52,-2270.44"/>
</g>
<!-- Node0xc9775180&#45;&gt;Node0xc9778f60 -->
<g id="edge21" class="edge"><title>Node0xc9775180&#45;&gt;Node0xc9778f60</title>
<path fill="none" stroke="black" d="M1336.48,-2309.45C1311.05,-2298.66 1283.22,-2286.84 1256.56,-2275.53"/>
<polygon fill="black" stroke="black" points="1257.76,-2272.23 1247.18,-2271.55 1255.02,-2278.68 1257.76,-2272.23"/>
</g>
<!-- Node0xc9779110 -->
<g id="node19" class="node"><title>Node0xc9779110</title>
<polygon fill="none" stroke="black" points="906.5,-2097.5 906.5,-2135.5 1361.5,-2135.5 1361.5,-2097.5 906.5,-2097.5"/>
<text text-anchor="start" x="914.5" y="-2120.3" font-family="Times,serif" font-size="14.00">if ((function_410371(BitCastExpr&lt;ptr&gt;(&amp;(v19))) &amp; 1) == 0):</text>
<text text-anchor="start" x="914.5" y="-2105.3" font-family="Times,serif" font-size="14.00"> else:</text>
</g>
<!-- Node0xc9778f60&#45;&gt;Node0xc9779110 -->
<g id="edge22" class="edge"><title>Node0xc9778f60&#45;&gt;Node0xc9779110</title>
<path fill="none" stroke="black" d="M1134,-2173.46C1134,-2163.95 1134,-2154.27 1134,-2145.69"/>
<polygon fill="black" stroke="black" points="1137.5,-2145.51 1134,-2135.51 1130.5,-2145.51 1137.5,-2145.51"/>
</g>
<!-- Node0xc9775310 -->
<g id="node20" class="node"><title>Node0xc9775310</title>
<polygon fill="none" stroke="black" points="863,-1940 863,-1993 1143,-1993 1143,-1940 863,-1940"/>
<text text-anchor="start" x="871" y="-1977.8" font-family="Times,serif" font-size="14.00">0x4105a9:</text>
<text text-anchor="start" x="871" y="-1962.8" font-family="Times,serif" font-size="14.00"> *(IntToPtrCastExpr&lt;ptr&gt;(g9)) = g4</text>
<text text-anchor="start" x="871" y="-1947.8" font-family="Times,serif" font-size="14.00"> a1[&#39;1&#39;] = g4</text>
</g>
<!-- Node0xc9779110&#45;&gt;Node0xc9775310 -->
<g id="edge23" class="edge"><title>Node0xc9779110&#45;&gt;Node0xc9775310</title>
<path fill="none" stroke="black" d="M1102.15,-2097.37C1094.12,-2092.02 1085.85,-2085.76 1079,-2079 1055.9,-2056.18 1035.53,-2025.39 1021.72,-2001.94"/>
<polygon fill="black" stroke="black" points="1024.6,-1999.94 1016.57,-1993.03 1018.54,-2003.44 1024.6,-1999.94"/>
<text text-anchor="middle" x="1283.5" y="-2067.8" font-family="Times,serif" font-size="14.00">(function_410371(BitCastExpr&lt;ptr&gt;(&amp;(v19))) &amp; 1) == 0</text>
</g>
<!-- Node0x12122d20 -->
<g id="node21" class="node"><title>Node0x12122d20</title>
<polygon fill="none" stroke="black" points="1161,-1887.5 1161,-2045.5 1917,-2045.5 1917,-1887.5 1161,-1887.5"/>
<text text-anchor="start" x="1169" y="-2030.3" font-family="Times,serif" font-size="14.00">0x41058f:</text>
<text text-anchor="start" x="1169" y="-2015.3" font-family="Times,serif" font-size="14.00"> v6 = IntToPtrCastExpr&lt;ptr&gt;(&#45;1)</text>
<text text-anchor="start" x="1169" y="-2000.3" font-family="Times,serif" font-size="14.00"> g2 = v20</text>
<text text-anchor="start" x="1169" y="-1985.3" font-family="Times,serif" font-size="14.00"> g10 = PtrToIntCastExpr&lt;int32&gt;(&amp;(v7))</text>
<text text-anchor="start" x="1169" y="-1970.3" font-family="Times,serif" font-size="14.00"> g5 = &amp;(v21)</text>
<text text-anchor="start" x="1169" y="-1955.3" font-family="Times,serif" font-size="14.00"> function_41048b(BitCastExpr&lt;ptr&gt;(&amp;(v19)), IntToPtrCastExpr&lt;ptr&gt;(&#45;1), BitCastExpr&lt;ptr&gt;(&amp;(v19)))</text>
<text text-anchor="start" x="1169" y="-1940.3" font-family="Times,serif" font-size="14.00"> *(IntToPtrCastExpr&lt;ptr&gt;(g9)) = ((PtrToIntCastExpr&lt;int32&gt;(v19) &amp; 1) != 0)</text>
<text text-anchor="start" x="1169" y="-1925.3" font-family="Times,serif" font-size="14.00"> v22 = PtrToIntCastExpr&lt;int32&gt;(v19[&#39;1&#39;])</text>
<text text-anchor="start" x="1169" y="-1910.3" font-family="Times,serif" font-size="14.00"> g2 = v22</text>
<text text-anchor="start" x="1169" y="-1895.3" font-family="Times,serif" font-size="14.00"> a1[&#39;1&#39;] = v22</text>
</g>
<!-- Node0xc9779110&#45;&gt;Node0x12122d20 -->
<g id="edge24" class="edge"><title>Node0xc9779110&#45;&gt;Node0x12122d20</title>
<path fill="none" stroke="black" d="M1361.8,-2109.54C1416.62,-2104.22 1465.79,-2094.94 1488,-2079 1497.16,-2072.43 1504.72,-2063.8 1510.94,-2054.25"/>
<polygon fill="black" stroke="black" points="1513.95,-2056.03 1516.07,-2045.64 1507.94,-2052.44 1513.95,-2056.03"/>
<text text-anchor="middle" x="1704.5" y="-2067.8" font-family="Times,serif" font-size="14.00">(function_410371(BitCastExpr&lt;ptr&gt;(&amp;(v19))) &amp; 1) != 0</text>
</g>
<!-- Node0xc9779770 -->
<g id="node22" class="node"><title>Node0xc9779770</title>
<polygon fill="none" stroke="black" points="1027.5,-1781.5 1027.5,-1849.5 1336.5,-1849.5 1336.5,-1781.5 1027.5,-1781.5"/>
<text text-anchor="start" x="1035.5" y="-1834.3" font-family="Times,serif" font-size="14.00">0x4105ae:</text>
<text text-anchor="start" x="1035.5" y="-1819.3" font-family="Times,serif" font-size="14.00"> g2 = v13</text>
<text text-anchor="start" x="1035.5" y="-1804.3" font-family="Times,serif" font-size="14.00"> g10 = PtrToIntCastExpr&lt;int32&gt;(&amp;(v6))</text>
<text text-anchor="start" x="1035.5" y="-1789.3" font-family="Times,serif" font-size="14.00"> v23</text>
</g>
<!-- Node0xc9775310&#45;&gt;Node0xc9779770 -->
<g id="edge25" class="edge"><title>Node0xc9775310&#45;&gt;Node0xc9779770</title>
<path fill="none" stroke="black" d="M1033.77,-1939.89C1061.42,-1916.87 1102.44,-1882.72 1134.33,-1856.18"/>
<polygon fill="black" stroke="black" points="1136.78,-1858.69 1142.23,-1849.61 1132.3,-1853.31 1136.78,-1858.69"/>
</g>
<!-- Node0x12122d20&#45;&gt;Node0xc9779770 -->
<g id="edge26" class="edge"><title>Node0x12122d20&#45;&gt;Node0xc9779770</title>
<path fill="none" stroke="black" d="M1351.87,-1887.4C1323.63,-1875.61 1295.68,-1863.95 1270.85,-1853.58"/>
<polygon fill="black" stroke="black" points="1272.07,-1850.3 1261.49,-1849.68 1269.37,-1856.76 1272.07,-1850.3"/>
</g>
<!-- Node0xc9779890 -->
<g id="node23" class="node"><title>Node0xc9779890</title>
<polygon fill="none" stroke="black" points="902.5,-1705.5 902.5,-1743.5 1461.5,-1743.5 1461.5,-1705.5 902.5,-1705.5"/>
<text text-anchor="start" x="910.5" y="-1728.3" font-family="Times,serif" font-size="14.00">if ((function_410371(BitCastExpr&lt;ptr&gt;(&amp;(lpLastAccessTime))) &amp; 1) == 0):</text>
<text text-anchor="start" x="910.5" y="-1713.3" font-family="Times,serif" font-size="14.00"> else:</text>
</g>
<!-- Node0xc9779770&#45;&gt;Node0xc9779890 -->
<g id="edge27" class="edge"><title>Node0xc9779770&#45;&gt;Node0xc9779890</title>
<path fill="none" stroke="black" d="M1182,-1781.36C1182,-1772.36 1182,-1762.71 1182,-1753.99"/>
<polygon fill="black" stroke="black" points="1185.5,-1753.94 1182,-1743.94 1178.5,-1753.94 1185.5,-1753.94"/>
</g>
<!-- Node0x12122e40 -->
<g id="node24" class="node"><title>Node0x12122e40</title>
<polygon fill="none" stroke="black" points="578.5,-1540.5 578.5,-1608.5 927.5,-1608.5 927.5,-1540.5 578.5,-1540.5"/>
<text text-anchor="start" x="586.5" y="-1593.3" font-family="Times,serif" font-size="14.00">v24 = &amp;(v23)</text>
<text text-anchor="start" x="586.5" y="-1578.3" font-family="Times,serif" font-size="14.00"> g2 = v24</text>
<text text-anchor="start" x="586.5" y="-1563.3" font-family="Times,serif" font-size="14.00"> *(IntToPtrCastExpr&lt;ptr&gt;((g9 + 16))) = v24</text>
<text text-anchor="start" x="586.5" y="-1548.3" font-family="Times,serif" font-size="14.00"> *(IntToPtrCastExpr&lt;ptr&gt;((g9 + 20))) = False</text>
</g>
<!-- Node0xc9779890&#45;&gt;Node0x12122e40 -->
<g id="edge28" class="edge"><title>Node0xc9779890&#45;&gt;Node0x12122e40</title>
<path fill="none" stroke="black" d="M902.402,-1708.95C843.903,-1703.55 796.329,-1696.38 785,-1687 765.136,-1670.56 757.137,-1642.66 754.104,-1618.89"/>
<polygon fill="black" stroke="black" points="757.557,-1618.25 753.061,-1608.66 750.593,-1618.96 757.557,-1618.25"/>
<text text-anchor="middle" x="1042" y="-1675.8" font-family="Times,serif" font-size="14.00">(function_410371(BitCastExpr&lt;ptr&gt;(&amp;(lpLastAccessTime))) &amp; 1) == 0</text>
</g>
<!-- Node0xc9778cb0 -->
<g id="node25" class="node"><title>Node0xc9778cb0</title>
<polygon fill="none" stroke="black" points="945.5,-1495.5 945.5,-1653.5 1910.5,-1653.5 1910.5,-1495.5 945.5,-1495.5"/>
<text text-anchor="start" x="953.5" y="-1638.3" font-family="Times,serif" font-size="14.00">0x4105bb:</text>
<text text-anchor="start" x="953.5" y="-1623.3" font-family="Times,serif" font-size="14.00"> v7 = IntToPtrCastExpr&lt;ptr&gt;(&#45;1)</text>
<text text-anchor="start" x="953.5" y="-1608.3" font-family="Times,serif" font-size="14.00"> g2 = v13</text>
<text text-anchor="start" x="953.5" y="-1593.3" font-family="Times,serif" font-size="14.00"> g10 = PtrToIntCastExpr&lt;int32&gt;(&amp;(v8))</text>
<text text-anchor="start" x="953.5" y="-1578.3" font-family="Times,serif" font-size="14.00"> g5 = &amp;(v21)</text>
<text text-anchor="start" x="953.5" y="-1563.3" font-family="Times,serif" font-size="14.00"> function_41048b(BitCastExpr&lt;ptr&gt;(&amp;(lpLastAccessTime)), IntToPtrCastExpr&lt;ptr&gt;(&#45;1), BitCastExpr&lt;ptr&gt;(&amp;(lpLastAccessTime)))</text>
<text text-anchor="start" x="953.5" y="-1548.3" font-family="Times,serif" font-size="14.00"> *(IntToPtrCastExpr&lt;ptr&gt;((g9 + 16))) = ((PtrToIntCastExpr&lt;int32&gt;(lpLastAccessTime) &amp; 1) != 0)</text>
<text text-anchor="start" x="953.5" y="-1533.3" font-family="Times,serif" font-size="14.00"> v25 = PtrToIntCastExpr&lt;int32&gt;(lpLastAccessTime[&#39;1&#39;])</text>
<text text-anchor="start" x="953.5" y="-1518.3" font-family="Times,serif" font-size="14.00"> g2 = v25</text>
<text text-anchor="start" x="953.5" y="-1503.3" font-family="Times,serif" font-size="14.00"> *(IntToPtrCastExpr&lt;ptr&gt;((g9 + 20))) = v25</text>
</g>
<!-- Node0xc9779890&#45;&gt;Node0xc9778cb0 -->
<g id="edge29" class="edge"><title>Node0xc9779890&#45;&gt;Node0xc9778cb0</title>
<path fill="none" stroke="black" d="M1259.91,-1705.48C1274.7,-1700.55 1289.7,-1694.45 1303,-1687 1316.66,-1679.35 1330.1,-1669.99 1342.81,-1659.97"/>
<polygon fill="black" stroke="black" points="1345.04,-1662.66 1350.62,-1653.66 1340.64,-1657.22 1345.04,-1662.66"/>
<text text-anchor="middle" x="1581" y="-1675.8" font-family="Times,serif" font-size="14.00">(function_410371(BitCastExpr&lt;ptr&gt;(&amp;(lpLastAccessTime))) &amp; 1) != 0</text>
</g>
<!-- Node0xc977a110 -->
<g id="node26" class="node"><title>Node0xc977a110</title>
<polygon fill="none" stroke="black" points="1037,-1344.5 1037,-1457.5 1403,-1457.5 1403,-1344.5 1037,-1344.5"/>
<text text-anchor="start" x="1045" y="-1442.3" font-family="Times,serif" font-size="14.00">0x4105e0:</text>
<text text-anchor="start" x="1045" y="-1427.3" font-family="Times,serif" font-size="14.00"> g2 = v12</text>
<text text-anchor="start" x="1045" y="-1412.3" font-family="Times,serif" font-size="14.00"> v26 = g10</text>
<text text-anchor="start" x="1045" y="-1397.3" font-family="Times,serif" font-size="14.00"> v27 = (v26 &#45; 4)</text>
<text text-anchor="start" x="1045" y="-1382.3" font-family="Times,serif" font-size="14.00"> *(IntToPtrCastExpr&lt;ptr&gt;(v27)) = v12</text>
<text text-anchor="start" x="1045" y="-1367.3" font-family="Times,serif" font-size="14.00"> g10 = v27</text>
<text text-anchor="start" x="1045" y="-1352.3" font-family="Times,serif" font-size="14.00"> *(IntToPtrCastExpr&lt;ptr&gt;((v26 &#45; 8))) = 4261353</text>
</g>
<!-- Node0x12122e40&#45;&gt;Node0xc977a110 -->
<g id="edge30" class="edge"><title>Node0x12122e40&#45;&gt;Node0xc977a110</title>
<path fill="none" stroke="black" d="M825.857,-1540.49C859.159,-1525.85 899.289,-1508.85 936,-1495 967.036,-1483.29 1000.29,-1471.63 1032.71,-1460.72"/>
<polygon fill="black" stroke="black" points="1033.91,-1464.01 1042.28,-1457.51 1031.69,-1457.37 1033.91,-1464.01"/>
</g>
<!-- Node0xc9778cb0&#45;&gt;Node0xc977a110 -->
<g id="edge31" class="edge"><title>Node0xc9778cb0&#45;&gt;Node0xc977a110</title>
<path fill="none" stroke="black" d="M1333.13,-1495.28C1320.47,-1484.84 1307.64,-1474.26 1295.37,-1464.15"/>
<polygon fill="black" stroke="black" points="1297.35,-1461.24 1287.41,-1457.58 1292.89,-1466.64 1297.35,-1461.24"/>
</g>
<!-- Node0xc977a320 -->
<g id="node27" class="node"><title>Node0xc977a320</title>
<polygon fill="none" stroke="black" points="1081,-1268.5 1081,-1306.5 1359,-1306.5 1359,-1268.5 1081,-1268.5"/>
<text text-anchor="start" x="1089" y="-1291.3" font-family="Times,serif" font-size="14.00">if ((function_410371(a1) &amp; 1) == 0):</text>
<text text-anchor="start" x="1089" y="-1276.3" font-family="Times,serif" font-size="14.00"> else:</text>
</g>
<!-- Node0xc977a110&#45;&gt;Node0xc977a320 -->
<g id="edge32" class="edge"><title>Node0xc977a110&#45;&gt;Node0xc977a320</title>
<path fill="none" stroke="black" d="M1220,-1344.25C1220,-1334.86 1220,-1325.47 1220,-1317.15"/>
<polygon fill="black" stroke="black" points="1223.5,-1316.91 1220,-1306.91 1216.5,-1316.91 1223.5,-1316.91"/>
</g>
<!-- Node0xc977c4f0 -->
<g id="node28" class="node"><title>Node0xc977c4f0</title>
<polygon fill="none" stroke="black" points="723.5,-1073.5 723.5,-1141.5 1052.5,-1141.5 1052.5,-1073.5 723.5,-1073.5"/>
<text text-anchor="start" x="731.5" y="-1126.3" font-family="Times,serif" font-size="14.00">v28 = &amp;(v23)</text>
<text text-anchor="start" x="731.5" y="-1111.3" font-family="Times,serif" font-size="14.00"> g2 = v28</text>
<text text-anchor="start" x="731.5" y="-1096.3" font-family="Times,serif" font-size="14.00"> *(IntToPtrCastExpr&lt;ptr&gt;((g9 + 8))) = v28</text>
<text text-anchor="start" x="731.5" y="-1081.3" font-family="Times,serif" font-size="14.00"> *(IntToPtrCastExpr&lt;ptr&gt;((g9 + 12))) = 0</text>
</g>
<!-- Node0xc977a320&#45;&gt;Node0xc977c4f0 -->
<g id="edge33" class="edge"><title>Node0xc977a320&#45;&gt;Node0xc977c4f0</title>
<path fill="none" stroke="black" d="M1080.99,-1270.15C1062.91,-1265.11 1045.1,-1258.55 1029,-1250 983.535,-1225.87 943.394,-1182.15 917.685,-1149.68"/>
<polygon fill="black" stroke="black" points="920.368,-1147.43 911.466,-1141.68 914.843,-1151.72 920.368,-1147.43"/>
<text text-anchor="middle" x="1145" y="-1238.8" font-family="Times,serif" font-size="14.00">(function_410371(a1) &amp; 1) == 0</text>
</g>
<!-- Node0xc977c810 -->
<g id="node29" class="node"><title>Node0xc977c810</title>
<polygon fill="none" stroke="black" points="1071,-998.5 1071,-1216.5 1781,-1216.5 1781,-998.5 1071,-998.5"/>
<text text-anchor="start" x="1079" y="-1201.3" font-family="Times,serif" font-size="14.00">v29 = g10</text>
<text text-anchor="start" x="1079" y="-1186.3" font-family="Times,serif" font-size="14.00"> *(IntToPtrCastExpr&lt;ptr&gt;((v29 &#45; 4))) = &#45;1</text>
<text text-anchor="start" x="1079" y="-1171.3" font-family="Times,serif" font-size="14.00"> g2 = v12</text>
<text text-anchor="start" x="1079" y="-1156.3" font-family="Times,serif" font-size="14.00"> v30 = (v29 &#45; 8)</text>
<text text-anchor="start" x="1079" y="-1141.3" font-family="Times,serif" font-size="14.00"> *(IntToPtrCastExpr&lt;ptr&gt;(v30)) = v12</text>
<text text-anchor="start" x="1079" y="-1126.3" font-family="Times,serif" font-size="14.00"> g10 = v30</text>
<text text-anchor="start" x="1079" y="-1111.3" font-family="Times,serif" font-size="14.00"> g5 = &amp;(v21)</text>
<text text-anchor="start" x="1079" y="-1096.3" font-family="Times,serif" font-size="14.00"> *(IntToPtrCastExpr&lt;ptr&gt;((v29 &#45; 12))) = 4261371</text>
<text text-anchor="start" x="1079" y="-1081.3" font-family="Times,serif" font-size="14.00"> v31</text>
<text text-anchor="start" x="1079" y="-1066.3" font-family="Times,serif" font-size="14.00"> function_41048b(a1, BitCastExpr&lt;ptr&gt;(&amp;(v31)), NULL)</text>
<text text-anchor="start" x="1079" y="-1051.3" font-family="Times,serif" font-size="14.00"> *(IntToPtrCastExpr&lt;ptr&gt;((g9 + 8))) = ((PtrToIntCastExpr&lt;int32&gt;(lpLastWriteTime) &amp; 1) != 0)</text>
<text text-anchor="start" x="1079" y="-1036.3" font-family="Times,serif" font-size="14.00"> v32 = PtrToIntCastExpr&lt;int32&gt;(lpLastWriteTime[&#39;1&#39;])</text>
<text text-anchor="start" x="1079" y="-1021.3" font-family="Times,serif" font-size="14.00"> g2 = v32</text>
<text text-anchor="start" x="1079" y="-1006.3" font-family="Times,serif" font-size="14.00"> *(IntToPtrCastExpr&lt;ptr&gt;((g9 + 12))) = v32</text>
</g>
<!-- Node0xc977a320&#45;&gt;Node0xc977c810 -->
<g id="edge34" class="edge"><title>Node0xc977a320&#45;&gt;Node0xc977c810</title>
<path fill="none" stroke="black" d="M1240.89,-1268.45C1254.22,-1256.93 1272.76,-1240.91 1293,-1223.43"/>
<polygon fill="black" stroke="black" points="1295.55,-1225.85 1300.83,-1216.66 1290.97,-1220.55 1295.55,-1225.85"/>
<text text-anchor="middle" x="1389" y="-1238.8" font-family="Times,serif" font-size="14.00">(function_410371(a1) &amp; 1) != 0</text>
</g>
<!-- Node0xc977a960 -->
<g id="node30" class="node"><title>Node0xc977a960</title>
<polygon fill="none" stroke="black" points="866,-847.5 866,-960.5 1144,-960.5 1144,-847.5 866,-847.5"/>
<text text-anchor="start" x="874" y="-945.3" font-family="Times,serif" font-size="14.00">v33 = g9</text>
<text text-anchor="start" x="874" y="-930.3" font-family="Times,serif" font-size="14.00"> v34 = IntToPtrCastExpr&lt;ptr&gt;(v33)</text>
<text text-anchor="start" x="874" y="-915.3" font-family="Times,serif" font-size="14.00"> v35 = *(v34)</text>
<text text-anchor="start" x="874" y="-900.3" font-family="Times,serif" font-size="14.00"> g2 = v35</text>
<text text-anchor="start" x="874" y="-885.3" font-family="Times,serif" font-size="14.00"> v36 = a1[&#39;1&#39;]</text>
<text text-anchor="start" x="874" y="-870.3" font-family="Times,serif" font-size="14.00"> g2 = (v36 | v35)</text>
<text text-anchor="start" x="874" y="-855.3" font-family="Times,serif" font-size="14.00"> v37 = v33</text>
</g>
<!-- Node0xc977c4f0&#45;&gt;Node0xc977a960 -->
<g id="edge35" class="edge"><title>Node0xc977c4f0&#45;&gt;Node0xc977a960</title>
<path fill="none" stroke="black" d="M907.32,-1073.23C923.586,-1045.21 947.33,-1004.32 967.335,-969.867"/>
<polygon fill="black" stroke="black" points="970.606,-971.204 972.601,-960.799 964.553,-967.689 970.606,-971.204"/>
</g>
<!-- Node0xc977c810&#45;&gt;Node0xc977a960 -->
<g id="edge36" class="edge"><title>Node0xc977c810&#45;&gt;Node0xc977a960</title>
<path fill="none" stroke="black" d="M1200.09,-998.377C1176.09,-986.889 1152.36,-975.53 1130.15,-964.901"/>
<polygon fill="black" stroke="black" points="1131.59,-961.711 1121.06,-960.55 1128.57,-968.025 1131.59,-961.711"/>
</g>
<!-- Node0xc977ada0 -->
<g id="node31" class="node"><title>Node0xc977ada0</title>
<polygon fill="none" stroke="black" points="939.5,-773.5 939.5,-809.5 1070.5,-809.5 1070.5,-773.5 939.5,-773.5"/>
<text text-anchor="start" x="947.5" y="-787.8" font-family="Times,serif" font-size="14.00">if (v36 == v35):</text>
</g>
<!-- Node0xc977a960&#45;&gt;Node0xc977ada0 -->
<g id="edge37" class="edge"><title>Node0xc977a960&#45;&gt;Node0xc977ada0</title>
<path fill="none" stroke="black" d="M1005,-847.426C1005,-837.86 1005,-828.307 1005,-819.913"/>
<polygon fill="black" stroke="black" points="1008.5,-819.644 1005,-809.644 1001.5,-819.644 1008.5,-819.644"/>
</g>
<!-- Node0xc977ceb0 -->
<g id="node32" class="node"><title>Node0xc977ceb0</title>
<polygon fill="none" stroke="black" points="677,-608.5 677,-721.5 1015,-721.5 1015,-608.5 677,-608.5"/>
<text text-anchor="start" x="685" y="-706.3" font-family="Times,serif" font-size="14.00">v38 = *(IntToPtrCastExpr&lt;ptr&gt;((v33 + 8)))</text>
<text text-anchor="start" x="685" y="-691.3" font-family="Times,serif" font-size="14.00"> g2 = v38</text>
<text text-anchor="start" x="685" y="-676.3" font-family="Times,serif" font-size="14.00"> *(v34) = v38</text>
<text text-anchor="start" x="685" y="-661.3" font-family="Times,serif" font-size="14.00"> v39 = *(IntToPtrCastExpr&lt;ptr&gt;((g9 + 12)))</text>
<text text-anchor="start" x="685" y="-646.3" font-family="Times,serif" font-size="14.00"> g2 = v39</text>
<text text-anchor="start" x="685" y="-631.3" font-family="Times,serif" font-size="14.00"> a1[&#39;1&#39;] = v39</text>
<text text-anchor="start" x="685" y="-616.3" font-family="Times,serif" font-size="14.00"> v37 = g9</text>
</g>
<!-- Node0xc977ada0&#45;&gt;Node0xc977ceb0 -->
<g id="edge38" class="edge"><title>Node0xc977ada0&#45;&gt;Node0xc977ceb0</title>
<path fill="none" stroke="black" d="M977.64,-773.434C968.968,-767.782 959.444,-761.318 951,-755 939.729,-746.567 928.085,-737.303 916.838,-728.036"/>
<polygon fill="black" stroke="black" points="919.053,-725.326 909.123,-721.631 914.581,-730.712 919.053,-725.326"/>
<text text-anchor="middle" x="994" y="-743.8" font-family="Times,serif" font-size="14.00">v36 == v35</text>
</g>
<!-- Node0xc977aed0 -->
<g id="node33" class="node"><title>Node0xc977aed0</title>
<polygon fill="none" stroke="black" points="707,-487.5 707,-570.5 1053,-570.5 1053,-487.5 707,-487.5"/>
<text text-anchor="start" x="715" y="-555.3" font-family="Times,serif" font-size="14.00">v40 = IntToPtrCastExpr&lt;ptr&gt;((v37 + 16))</text>
<text text-anchor="start" x="715" y="-540.3" font-family="Times,serif" font-size="14.00"> v41 = *(v40)</text>
<text text-anchor="start" x="715" y="-525.3" font-family="Times,serif" font-size="14.00"> g2 = v41</text>
<text text-anchor="start" x="715" y="-510.3" font-family="Times,serif" font-size="14.00"> v42 = *(IntToPtrCastExpr&lt;ptr&gt;((v37 + 20)))</text>
<text text-anchor="start" x="715" y="-495.3" font-family="Times,serif" font-size="14.00"> g2 = (v42 | v41)</text>
</g>
<!-- Node0xc977ada0&#45;&gt;Node0xc977aed0 -->
<g id="edge39" class="edge"><title>Node0xc977ada0&#45;&gt;Node0xc977aed0</title>
<path fill="none" stroke="black" d="M1025.21,-773.14C1029.99,-767.853 1034.44,-761.661 1037,-755 1051.93,-716.127 1138.07,-779.751 1024,-608 1015.95,-595.877 1005.36,-585.483 993.569,-576.612"/>
<polygon fill="black" stroke="black" points="995.416,-573.631 985.232,-570.711 991.372,-579.345 995.416,-573.631"/>
<text text-anchor="middle" x="1123" y="-661.3" font-family="Times,serif" font-size="14.00">v36 != v35</text>
</g>
<!-- Node0xc977ceb0&#45;&gt;Node0xc977aed0 -->
<g id="edge40" class="edge"><title>Node0xc977ceb0&#45;&gt;Node0xc977aed0</title>
<path fill="none" stroke="black" d="M860.124,-608.336C862.482,-599.042 864.916,-589.448 867.238,-580.299"/>
<polygon fill="black" stroke="black" points="870.637,-581.133 869.704,-570.579 863.852,-579.411 870.637,-581.133"/>
</g>
<!-- Node0xc977b0b0 -->
<g id="node34" class="node"><title>Node0xc977b0b0</title>
<polygon fill="none" stroke="black" points="814.5,-413.5 814.5,-449.5 945.5,-449.5 945.5,-413.5 814.5,-413.5"/>
<text text-anchor="start" x="822.5" y="-427.8" font-family="Times,serif" font-size="14.00">if (v42 == v41):</text>
</g>
<!-- Node0xc977aed0&#45;&gt;Node0xc977b0b0 -->
<g id="edge41" class="edge"><title>Node0xc977aed0&#45;&gt;Node0xc977b0b0</title>
<path fill="none" stroke="black" d="M880,-487.499C880,-478.206 880,-468.537 880,-459.946"/>
<polygon fill="black" stroke="black" points="883.5,-459.749 880,-449.749 876.5,-459.749 883.5,-459.749"/>
</g>
<!-- Node0xc977d120 -->
<g id="node35" class="node"><title>Node0xc977d120</title>
<polygon fill="none" stroke="black" points="504,-248.5 504,-361.5 850,-361.5 850,-248.5 504,-248.5"/>
<text text-anchor="start" x="512" y="-346.3" font-family="Times,serif" font-size="14.00">v43 = *(IntToPtrCastExpr&lt;ptr&gt;((v37 + 8)))</text>
<text text-anchor="start" x="512" y="-331.3" font-family="Times,serif" font-size="14.00"> g2 = v43</text>
<text text-anchor="start" x="512" y="-316.3" font-family="Times,serif" font-size="14.00"> *(v40) = v43</text>
<text text-anchor="start" x="512" y="-301.3" font-family="Times,serif" font-size="14.00"> v44 = g9</text>
<text text-anchor="start" x="512" y="-286.3" font-family="Times,serif" font-size="14.00"> v45 = *(IntToPtrCastExpr&lt;ptr&gt;((v44 + 12)))</text>
<text text-anchor="start" x="512" y="-271.3" font-family="Times,serif" font-size="14.00"> g2 = v45</text>
<text text-anchor="start" x="512" y="-256.3" font-family="Times,serif" font-size="14.00"> *(IntToPtrCastExpr&lt;ptr&gt;((v44 + 20))) = v45</text>
</g>
<!-- Node0xc977b0b0&#45;&gt;Node0xc977d120 -->
<g id="edge42" class="edge"><title>Node0xc977b0b0&#45;&gt;Node0xc977d120</title>
<path fill="none" stroke="black" d="M825.93,-413.494C812.491,-408.353 798.393,-402.144 786,-395 772.544,-387.243 759.049,-377.851 746.364,-368.113"/>
<polygon fill="black" stroke="black" points="748.184,-365.092 738.154,-361.677 743.866,-370.601 748.184,-365.092"/>
<text text-anchor="middle" x="829" y="-383.8" font-family="Times,serif" font-size="14.00">v42 == v41</text>
</g>
<!-- Node0xc977b4b0 -->
<g id="node36" class="node"><title>Node0xc977b4b0</title>
<polygon fill="none" stroke="black" points="787,-97.5 787,-210.5 879,-210.5 879,-97.5 787,-97.5"/>
<text text-anchor="start" x="795" y="-195.3" font-family="Times,serif" font-size="14.00">0x410638:</text>
<text text-anchor="start" x="795" y="-180.3" font-family="Times,serif" font-size="14.00"> g2 = 0</text>
<text text-anchor="start" x="795" y="-165.3" font-family="Times,serif" font-size="14.00"> g7 = v4</text>
<text text-anchor="start" x="795" y="-150.3" font-family="Times,serif" font-size="14.00"> g9 = v3</text>
<text text-anchor="start" x="795" y="-135.3" font-family="Times,serif" font-size="14.00"> g4 = v2</text>
<text text-anchor="start" x="795" y="-120.3" font-family="Times,serif" font-size="14.00"> g3 = v1</text>
<text text-anchor="start" x="795" y="-105.3" font-family="Times,serif" font-size="14.00"> return 1</text>
</g>
<!-- Node0xc977b0b0&#45;&gt;Node0xc977b4b0 -->
<g id="edge43" class="edge"><title>Node0xc977b0b0&#45;&gt;Node0xc977b4b0</title>
<path fill="none" stroke="black" d="M878.928,-413.251C876.703,-380.702 870.78,-308.091 859,-248 857.247,-239.059 855.067,-229.724 852.72,-220.564"/>
<polygon fill="black" stroke="black" points="856.058,-219.495 850.12,-210.72 849.29,-221.282 856.058,-219.495"/>
<text text-anchor="middle" x="915" y="-301.3" font-family="Times,serif" font-size="14.00">v42 != v41</text>
</g>
<!-- Node0xc977d120&#45;&gt;Node0xc977b4b0 -->
<g id="edge44" class="edge"><title>Node0xc977d120&#45;&gt;Node0xc977b4b0</title>
<path fill="none" stroke="black" d="M735.532,-248.094C749.963,-234.311 765.342,-219.622 779.519,-206.081"/>
<polygon fill="black" stroke="black" points="781.998,-208.554 786.812,-199.116 777.163,-203.492 781.998,-208.554"/>
</g>
<!-- Node0xc977b4b0&#45;&gt;Node0xc97759f0 -->
<g id="edge45" class="edge"><title>Node0xc977b4b0&#45;&gt;Node0xc97759f0</title>
<path fill="none" stroke="black" d="M833,-97.4263C833,-87.8599 833,-78.3065 833,-69.9133"/>
<polygon fill="black" stroke="black" points="836.5,-69.6444 833,-59.6444 829.5,-69.6444 836.5,-69.6444"/>
</g>
</g>
</svg>
