<?xml version="1.0" encoding="UTF-8" standalone="no"?>
<!DOCTYPE svg PUBLIC "-//W3C//DTD SVG 1.1//EN"
 "http://www.w3.org/Graphics/SVG/1.1/DTD/svg11.dtd">
<!-- Generated by graphviz version 2.38.0 (20140413.2041)
 -->
<!-- Title: Control&#45;flow graph for function &#39;function_412c2f(*a1, *a2)&#39;. Pages: 1 -->
<svg width="754pt" height="1015pt"
 viewBox="0.00 0.00 754.00 1015.00" xmlns="http://www.w3.org/2000/svg" xmlns:xlink="http://www.w3.org/1999/xlink">
<g id="graph0" class="graph" transform="scale(1 1) rotate(0) translate(4 1011)">
<title>Control&#45;flow graph for function &#39;function_412c2f(*a1, *a2)&#39;.</title>
<polygon fill="white" stroke="none" points="-4,4 -4,-1011 750,-1011 750,4 -4,4"/>
<text text-anchor="middle" x="373" y="-7.8" font-family="Times,serif" font-size="14.00">Control&#45;flow graph for function &#39;function_412c2f(*a1, *a2)&#39;.</text>
<!-- Node0x7e109190 -->
<g id="node1" class="node"><title>Node0x7e109190</title>
<polygon fill="none" stroke="black" points="248.5,-953.5 248.5,-1006.5 307.5,-1006.5 307.5,-953.5 248.5,-953.5"/>
<text text-anchor="start" x="256.5" y="-991.3" font-family="Times,serif" font-size="14.00">entry:</text>
<text text-anchor="start" x="256.5" y="-976.3" font-family="Times,serif" font-size="14.00"> a1</text>
<text text-anchor="start" x="256.5" y="-961.3" font-family="Times,serif" font-size="14.00"> a2</text>
</g>
<!-- Node0x7e1091f0 -->
<g id="node2" class="node"><title>Node0x7e1091f0</title>
<polygon fill="none" stroke="black" points="223,-832.5 223,-915.5 333,-915.5 333,-832.5 223,-832.5"/>
<text text-anchor="start" x="231" y="-900.3" font-family="Times,serif" font-size="14.00">v1</text>
<text text-anchor="start" x="231" y="-885.3" font-family="Times,serif" font-size="14.00"> g10 = &amp;(v1)</text>
<text text-anchor="start" x="231" y="-870.3" font-family="Times,serif" font-size="14.00"> v2 = g5</text>
<text text-anchor="start" x="231" y="-855.3" font-family="Times,serif" font-size="14.00"> g9 = v2</text>
<text text-anchor="start" x="231" y="-840.3" font-family="Times,serif" font-size="14.00"> v3 = v2</text>
</g>
<!-- Node0x7e109190&#45;&gt;Node0x7e1091f0 -->
<g id="edge1" class="edge"><title>Node0x7e109190&#45;&gt;Node0x7e1091f0</title>
<path fill="none" stroke="black" d="M278,-953.292C278,-944.988 278,-935.469 278,-925.995"/>
<polygon fill="black" stroke="black" points="281.5,-925.791 278,-915.791 274.5,-925.791 281.5,-925.791"/>
</g>
<!-- Node0x7e10a770 -->
<g id="node3" class="node"><title>Node0x7e10a770</title>
<polygon fill="none" stroke="black" points="100,-758.5 100,-794.5 456,-794.5 456,-758.5 100,-758.5"/>
<text text-anchor="start" x="108" y="-772.8" font-family="Times,serif" font-size="14.00">if (*(IntToPtrCastExpr&lt;ptr&gt;((v2 + 24))) == 1):</text>
</g>
<!-- Node0x7e1091f0&#45;&gt;Node0x7e10a770 -->
<g id="edge2" class="edge"><title>Node0x7e1091f0&#45;&gt;Node0x7e10a770</title>
<path fill="none" stroke="black" d="M278,-832.499C278,-823.206 278,-813.537 278,-804.946"/>
<polygon fill="black" stroke="black" points="281.5,-804.749 278,-794.749 274.5,-804.749 281.5,-804.749"/>
</g>
<!-- Node0x7e10b0b0 -->
<g id="node4" class="node"><title>Node0x7e10b0b0</title>
<polygon fill="none" stroke="black" points="146,-653.5 146,-706.5 298,-706.5 298,-653.5 146,-653.5"/>
<text text-anchor="start" x="154" y="-691.3" font-family="Times,serif" font-size="14.00">0x412c38:</text>
<text text-anchor="start" x="154" y="-676.3" font-family="Times,serif" font-size="14.00"> function_412819()</text>
<text text-anchor="start" x="154" y="-661.3" font-family="Times,serif" font-size="14.00"> v3 = g9</text>
</g>
<!-- Node0x7e10a770&#45;&gt;Node0x7e10b0b0 -->
<g id="edge3" class="edge"><title>Node0x7e10a770&#45;&gt;Node0x7e10b0b0</title>
<path fill="none" stroke="black" d="M153.757,-758.417C136.234,-753.618 122.092,-747.571 116,-740 102.946,-723.775 115.788,-711.282 136.47,-702.059"/>
<polygon fill="black" stroke="black" points="137.8,-705.296 145.761,-698.304 135.178,-698.806 137.8,-705.296"/>
<text text-anchor="middle" x="271.5" y="-728.8" font-family="Times,serif" font-size="14.00">*(IntToPtrCastExpr&lt;ptr&gt;((v2 + 24))) == 1</text>
</g>
<!-- Node0x7e10ac40 -->
<g id="node5" class="node"><title>Node0x7e10ac40</title>
<polygon fill="none" stroke="black" points="216,-517.5 216,-615.5 544,-615.5 544,-517.5 216,-517.5"/>
<text text-anchor="start" x="224" y="-600.3" font-family="Times,serif" font-size="14.00">v4 = *(IntToPtrCastExpr&lt;ptr&gt;((v3 + 40)))</text>
<text text-anchor="start" x="224" y="-585.3" font-family="Times,serif" font-size="14.00"> g2 = v4</text>
<text text-anchor="start" x="224" y="-570.3" font-family="Times,serif" font-size="14.00"> v5 = *(IntToPtrCastExpr&lt;ptr&gt;((v3 + 44)))</text>
<text text-anchor="start" x="224" y="-555.3" font-family="Times,serif" font-size="14.00"> v6 = (v4 + 4)</text>
<text text-anchor="start" x="224" y="-540.3" font-family="Times,serif" font-size="14.00"> g8 = v6</text>
<text text-anchor="start" x="224" y="-525.3" font-family="Times,serif" font-size="14.00"> v7 = v3</text>
</g>
<!-- Node0x7e10a770&#45;&gt;Node0x7e10ac40 -->
<g id="edge4" class="edge"><title>Node0x7e10a770&#45;&gt;Node0x7e10ac40</title>
<path fill="none" stroke="black" d="M389.076,-758.488C406.685,-753.608 421.067,-747.513 427,-740 452.981,-707.102 438.468,-660.905 418.956,-624.598"/>
<polygon fill="black" stroke="black" points="421.852,-622.606 413.909,-615.594 415.746,-626.029 421.852,-622.606"/>
<text text-anchor="middle" x="593.5" y="-676.3" font-family="Times,serif" font-size="14.00">*(IntToPtrCastExpr&lt;ptr&gt;((v2 + 24))) != 1</text>
</g>
<!-- Node0x7e10b0b0&#45;&gt;Node0x7e10ac40 -->
<g id="edge5" class="edge"><title>Node0x7e10b0b0&#45;&gt;Node0x7e10ac40</title>
<path fill="none" stroke="black" d="M258.248,-653.42C271.826,-643.838 287.814,-632.556 303.659,-621.374"/>
<polygon fill="black" stroke="black" points="305.766,-624.171 311.918,-615.545 301.73,-618.451 305.766,-624.171"/>
</g>
<!-- Node0x7e10a680 -->
<g id="node6" class="node"><title>Node0x7e10a680</title>
<polygon fill="none" stroke="black" points="329.5,-443.5 329.5,-479.5 430.5,-479.5 430.5,-443.5 329.5,-443.5"/>
<text text-anchor="start" x="337.5" y="-457.8" font-family="Times,serif" font-size="14.00">if (v6 &gt; v5):</text>
</g>
<!-- Node0x7e10ac40&#45;&gt;Node0x7e10a680 -->
<g id="edge6" class="edge"><title>Node0x7e10ac40&#45;&gt;Node0x7e10a680</title>
<path fill="none" stroke="black" d="M380,-517.317C380,-507.893 380,-498.32 380,-489.868"/>
<polygon fill="black" stroke="black" points="383.5,-489.856 380,-479.856 376.5,-489.856 383.5,-489.856"/>
</g>
<!-- Node0x7e10ad30 -->
<g id="node7" class="node"><title>Node0x7e10ad30</title>
<polygon fill="none" stroke="black" points="0,-293.5 0,-391.5 404,-391.5 404,-293.5 0,-293.5"/>
<text text-anchor="start" x="8" y="-376.3" font-family="Times,serif" font-size="14.00">v8 = ((v4 &#45; v5) + 4)</text>
<text text-anchor="start" x="8" y="-361.3" font-family="Times,serif" font-size="14.00"> g2 = v8</text>
<text text-anchor="start" x="8" y="-346.3" font-family="Times,serif" font-size="14.00"> g5 = v3</text>
<text text-anchor="start" x="8" y="-331.3" font-family="Times,serif" font-size="14.00"> v9</text>
<text text-anchor="start" x="8" y="-316.3" font-family="Times,serif" font-size="14.00"> function_412a8c(IntToPtrCastExpr&lt;ptr&gt;(v8), v1, v9)</text>
<text text-anchor="start" x="8" y="-301.3" font-family="Times,serif" font-size="14.00"> v7 = g9</text>
</g>
<!-- Node0x7e10a680&#45;&gt;Node0x7e10ad30 -->
<g id="edge7" class="edge"><title>Node0x7e10a680&#45;&gt;Node0x7e10ad30</title>
<path fill="none" stroke="black" d="M354.117,-443.487C335.492,-431.245 309.269,-414.008 283.832,-397.288"/>
<polygon fill="black" stroke="black" points="285.526,-394.214 275.247,-391.646 281.681,-400.063 285.526,-394.214"/>
<text text-anchor="middle" x="351" y="-413.8" font-family="Times,serif" font-size="14.00">v6 &gt; v5</text>
</g>
<!-- Node0x7e10b050 -->
<g id="node8" class="node"><title>Node0x7e10b050</title>
<polygon fill="none" stroke="black" points="208,-97.5 208,-255.5 540,-255.5 540,-97.5 208,-97.5"/>
<text text-anchor="start" x="216" y="-240.3" font-family="Times,serif" font-size="14.00">v10 = *(IntToPtrCastExpr&lt;ptr&gt;((v7 + 40)))</text>
<text text-anchor="start" x="216" y="-225.3" font-family="Times,serif" font-size="14.00"> g2 = v10</text>
<text text-anchor="start" x="216" y="-210.3" font-family="Times,serif" font-size="14.00"> v11 = *(IntToPtrCastExpr&lt;ptr&gt;(v10))</text>
<text text-anchor="start" x="216" y="-195.3" font-family="Times,serif" font-size="14.00"> g2 = v11</text>
<text text-anchor="start" x="216" y="-180.3" font-family="Times,serif" font-size="14.00"> *(a1) = v11</text>
<text text-anchor="start" x="216" y="-165.3" font-family="Times,serif" font-size="14.00"> v12 = IntToPtrCastExpr&lt;ptr&gt;((g9 + 40))</text>
<text text-anchor="start" x="216" y="-150.3" font-family="Times,serif" font-size="14.00"> *(v12) = (*(v12) + 4)</text>
<text text-anchor="start" x="216" y="-135.3" font-family="Times,serif" font-size="14.00"> result = g9</text>
<text text-anchor="start" x="216" y="-120.3" font-family="Times,serif" font-size="14.00"> g9 = v1</text>
<text text-anchor="start" x="216" y="-105.3" font-family="Times,serif" font-size="14.00"> return result</text>
</g>
<!-- Node0x7e10a680&#45;&gt;Node0x7e10b050 -->
<g id="edge8" class="edge"><title>Node0x7e10a680&#45;&gt;Node0x7e10b050</title>
<path fill="none" stroke="black" d="M390.993,-443.28C398.856,-429.889 408.769,-410.532 413,-392 422.794,-349.104 420.133,-336.418 413,-293 411.498,-283.855 409.368,-274.459 406.87,-265.166"/>
<polygon fill="black" stroke="black" points="410.235,-264.202 404.144,-255.533 403.499,-266.108 410.235,-264.202"/>
<text text-anchor="middle" x="453" y="-338.8" font-family="Times,serif" font-size="14.00">v6 &lt;= v5</text>
</g>
<!-- Node0x7e10ad30&#45;&gt;Node0x7e10b050 -->
<g id="edge9" class="edge"><title>Node0x7e10ad30&#45;&gt;Node0x7e10b050</title>
<path fill="none" stroke="black" d="M252.675,-293.182C262.836,-283.493 273.794,-273.046 284.821,-262.532"/>
<polygon fill="black" stroke="black" points="287.247,-265.054 292.069,-255.62 282.417,-259.988 287.247,-265.054"/>
</g>
<!-- Node0x7e109d50 -->
<g id="node9" class="node"><title>Node0x7e109d50</title>
<polygon fill="none" stroke="black" points="347,-23.5 347,-59.5 401,-59.5 401,-23.5 347,-23.5"/>
<text text-anchor="start" x="355" y="-37.8" font-family="Times,serif" font-size="14.00">exit:</text>
</g>
<!-- Node0x7e10b050&#45;&gt;Node0x7e109d50 -->
<g id="edge10" class="edge"><title>Node0x7e10b050&#45;&gt;Node0x7e109d50</title>
<path fill="none" stroke="black" d="M374,-97.3641C374,-87.4565 374,-77.9047 374,-69.6254"/>
<polygon fill="black" stroke="black" points="377.5,-69.5515 374,-59.5516 370.5,-69.5516 377.5,-69.5515"/>
</g>
</g>
</svg>
