<?xml version="1.0" encoding="UTF-8" standalone="no"?>
<!DOCTYPE svg PUBLIC "-//W3C//DTD SVG 1.1//EN"
 "http://www.w3.org/Graphics/SVG/1.1/DTD/svg11.dtd">
<!-- Generated by graphviz version 2.38.0 (20140413.2041)
 -->
<!-- Title: Control&#45;flow graph for function &#39;function_412e07(*a1, *a2)&#39;. Pages: 1 -->
<svg width="706pt" height="627pt"
 viewBox="0.00 0.00 706.00 627.00" xmlns="http://www.w3.org/2000/svg" xmlns:xlink="http://www.w3.org/1999/xlink">
<g id="graph0" class="graph" transform="scale(1 1) rotate(0) translate(4 623)">
<title>Control&#45;flow graph for function &#39;function_412e07(*a1, *a2)&#39;.</title>
<polygon fill="white" stroke="none" points="-4,4 -4,-623 702,-623 702,4 -4,4"/>
<text text-anchor="middle" x="349" y="-7.8" font-family="Times,serif" font-size="14.00">Control&#45;flow graph for function &#39;function_412e07(*a1, *a2)&#39;.</text>
<!-- Node0x7e113960 -->
<g id="node1" class="node"><title>Node0x7e113960</title>
<polygon fill="none" stroke="black" points="254.5,-565.5 254.5,-618.5 313.5,-618.5 313.5,-565.5 254.5,-565.5"/>
<text text-anchor="start" x="262.5" y="-603.3" font-family="Times,serif" font-size="14.00">entry:</text>
<text text-anchor="start" x="262.5" y="-588.3" font-family="Times,serif" font-size="14.00"> a1</text>
<text text-anchor="start" x="262.5" y="-573.3" font-family="Times,serif" font-size="14.00"> a2</text>
</g>
<!-- Node0x34db2920 -->
<g id="node2" class="node"><title>Node0x34db2920</title>
<polygon fill="none" stroke="black" points="148,-429.5 148,-527.5 420,-527.5 420,-429.5 148,-429.5"/>
<text text-anchor="start" x="156" y="-512.3" font-family="Times,serif" font-size="14.00">g7 = PtrToIntCastExpr&lt;int32&gt;(a1)</text>
<text text-anchor="start" x="156" y="-497.3" font-family="Times,serif" font-size="14.00"> g2 = 65535</text>
<text text-anchor="start" x="156" y="-482.3" font-family="Times,serif" font-size="14.00"> g9 = g5</text>
<text text-anchor="start" x="156" y="-467.3" font-family="Times,serif" font-size="14.00"> v1</text>
<text text-anchor="start" x="156" y="-452.3" font-family="Times,serif" font-size="14.00"> v2</text>
<text text-anchor="start" x="156" y="-437.3" font-family="Times,serif" font-size="14.00"> result</text>
</g>
<!-- Node0x7e113960&#45;&gt;Node0x34db2920 -->
<g id="edge1" class="edge"><title>Node0x7e113960&#45;&gt;Node0x34db2920</title>
<path fill="none" stroke="black" d="M284,-565.42C284,-557.117 284,-547.536 284,-537.851"/>
<polygon fill="black" stroke="black" points="287.5,-537.768 284,-527.768 280.5,-537.768 287.5,-537.768"/>
</g>
<!-- Node0x7e112680 -->
<g id="node3" class="node"><title>Node0x7e112680</title>
<polygon fill="none" stroke="black" points="127.5,-353.5 127.5,-391.5 440.5,-391.5 440.5,-353.5 127.5,-353.5"/>
<text text-anchor="start" x="135.5" y="-376.3" font-family="Times,serif" font-size="14.00">if (a1 &gt; IntToPtrCastExpr&lt;ptr&gt;(65534)):</text>
<text text-anchor="start" x="135.5" y="-361.3" font-family="Times,serif" font-size="14.00"> else:</text>
</g>
<!-- Node0x34db2920&#45;&gt;Node0x7e112680 -->
<g id="edge2" class="edge"><title>Node0x34db2920&#45;&gt;Node0x7e112680</title>
<path fill="none" stroke="black" d="M284,-429.458C284,-419.952 284,-410.27 284,-401.69"/>
<polygon fill="black" stroke="black" points="287.5,-401.509 284,-391.509 280.5,-401.509 287.5,-401.509"/>
</g>
<!-- Node0x7e114a30 -->
<g id="node4" class="node"><title>Node0x7e114a30</title>
<polygon fill="none" stroke="black" points="0,-203.5 0,-301.5 288,-301.5 288,-203.5 0,-203.5"/>
<text text-anchor="start" x="8" y="-286.3" font-family="Times,serif" font-size="14.00">0x412e20:</text>
<text text-anchor="start" x="8" y="-271.3" font-family="Times,serif" font-size="14.00"> v2 = IntToPtrCastExpr&lt;ptr&gt;(65535)</text>
<text text-anchor="start" x="8" y="-256.3" font-family="Times,serif" font-size="14.00"> function_412b79()</text>
<text text-anchor="start" x="8" y="-241.3" font-family="Times,serif" font-size="14.00"> v1 = IntToPtrCastExpr&lt;ptr&gt;(g7)</text>
<text text-anchor="start" x="8" y="-226.3" font-family="Times,serif" font-size="14.00"> g5 = g9</text>
<text text-anchor="start" x="8" y="-211.3" font-family="Times,serif" font-size="14.00"> result = function_412bb3(v1)</text>
</g>
<!-- Node0x7e112680&#45;&gt;Node0x7e114a30 -->
<g id="edge3" class="edge"><title>Node0x7e112680&#45;&gt;Node0x7e114a30</title>
<path fill="none" stroke="black" d="M176.956,-353.497C159.78,-348.505 145.742,-342.378 140,-335 134.747,-328.25 132.195,-320.151 131.361,-311.714"/>
<polygon fill="black" stroke="black" points="134.86,-311.626 131.113,-301.716 127.862,-311.8 134.86,-311.626"/>
<text text-anchor="middle" x="274" y="-323.8" font-family="Times,serif" font-size="14.00">a1 &gt; IntToPtrCastExpr&lt;ptr&gt;(65534)</text>
</g>
<!-- Node0x7e112f80 -->
<g id="node5" class="node"><title>Node0x7e112f80</title>
<polygon fill="none" stroke="black" points="316.5,-226 316.5,-279 531.5,-279 531.5,-226 316.5,-226"/>
<text text-anchor="start" x="324.5" y="-263.8" font-family="Times,serif" font-size="14.00">0x412e18:</text>
<text text-anchor="start" x="324.5" y="-248.8" font-family="Times,serif" font-size="14.00"> v2 = a1</text>
<text text-anchor="start" x="324.5" y="-233.8" font-family="Times,serif" font-size="14.00"> result = function_412b79()</text>
</g>
<!-- Node0x7e112680&#45;&gt;Node0x7e112f80 -->
<g id="edge4" class="edge"><title>Node0x7e112680&#45;&gt;Node0x7e112f80</title>
<path fill="none" stroke="black" d="M383.688,-353.355C392.77,-348.562 401.121,-342.546 408,-335 419.156,-322.762 423.523,-305.102 424.946,-289.348"/>
<polygon fill="black" stroke="black" points="428.442,-289.525 425.499,-279.347 421.453,-289.139 428.442,-289.525"/>
<text text-anchor="middle" x="558" y="-323.8" font-family="Times,serif" font-size="14.00">a1 &lt;= IntToPtrCastExpr&lt;ptr&gt;(65534)</text>
</g>
<!-- Node0x7e112e90 -->
<g id="node6" class="node"><title>Node0x7e112e90</title>
<polygon fill="none" stroke="black" points="176.5,-97.5 176.5,-165.5 453.5,-165.5 453.5,-97.5 176.5,-97.5"/>
<text text-anchor="start" x="184.5" y="-150.3" font-family="Times,serif" font-size="14.00">0x412e2e:</text>
<text text-anchor="start" x="184.5" y="-135.3" font-family="Times,serif" font-size="14.00"> g7 = PtrToIntCastExpr&lt;int32&gt;(v1)</text>
<text text-anchor="start" x="184.5" y="-120.3" font-family="Times,serif" font-size="14.00"> g9 = PtrToIntCastExpr&lt;int32&gt;(v2)</text>
<text text-anchor="start" x="184.5" y="-105.3" font-family="Times,serif" font-size="14.00"> return result</text>
</g>
<!-- Node0x7e114a30&#45;&gt;Node0x7e112e90 -->
<g id="edge5" class="edge"><title>Node0x7e114a30&#45;&gt;Node0x7e112e90</title>
<path fill="none" stroke="black" d="M213.059,-203.441C228.324,-192.818 244.315,-181.69 258.986,-171.48"/>
<polygon fill="black" stroke="black" points="261.248,-174.171 267.457,-165.586 257.249,-168.425 261.248,-174.171"/>
</g>
<!-- Node0x7e112f80&#45;&gt;Node0x7e112e90 -->
<g id="edge6" class="edge"><title>Node0x7e112f80&#45;&gt;Node0x7e112e90</title>
<path fill="none" stroke="black" d="M400.617,-225.972C386.621,-210.692 368.509,-190.918 352.549,-173.494"/>
<polygon fill="black" stroke="black" points="354.726,-170.689 345.391,-165.679 349.564,-175.417 354.726,-170.689"/>
</g>
<!-- Node0x7e1143a0 -->
<g id="node7" class="node"><title>Node0x7e1143a0</title>
<polygon fill="none" stroke="black" points="288,-23.5 288,-59.5 342,-59.5 342,-23.5 288,-23.5"/>
<text text-anchor="start" x="296" y="-37.8" font-family="Times,serif" font-size="14.00">exit:</text>
</g>
<!-- Node0x7e112e90&#45;&gt;Node0x7e1143a0 -->
<g id="edge7" class="edge"><title>Node0x7e112e90&#45;&gt;Node0x7e1143a0</title>
<path fill="none" stroke="black" d="M315,-97.4817C315,-88.3281 315,-78.4972 315,-69.7155"/>
<polygon fill="black" stroke="black" points="318.5,-69.6402 315,-59.6402 311.5,-69.6403 318.5,-69.6402"/>
</g>
</g>
</svg>
