<?xml version="1.0" encoding="UTF-8" standalone="no"?>
<!DOCTYPE svg PUBLIC "-//W3C//DTD SVG 1.1//EN"
 "http://www.w3.org/Graphics/SVG/1.1/DTD/svg11.dtd">
<!-- Generated by graphviz version 2.38.0 (20140413.2041)
 -->
<!-- Title: Control&#45;flow graph for function &#39;function_41c3ae(*a1, *a2, a3)&#39;. Pages: 1 -->
<svg width="919pt" height="537pt"
 viewBox="0.00 0.00 918.50 537.00" xmlns="http://www.w3.org/2000/svg" xmlns:xlink="http://www.w3.org/1999/xlink">
<g id="graph0" class="graph" transform="scale(1 1) rotate(0) translate(4 533)">
<title>Control&#45;flow graph for function &#39;function_41c3ae(*a1, *a2, a3)&#39;.</title>
<polygon fill="white" stroke="none" points="-4,4 -4,-533 914.5,-533 914.5,4 -4,4"/>
<text text-anchor="middle" x="455.25" y="-7.8" font-family="Times,serif" font-size="14.00">Control&#45;flow graph for function &#39;function_41c3ae(*a1, *a2, a3)&#39;.</text>
<!-- Node0x1447ba60 -->
<g id="node1" class="node"><title>Node0x1447ba60</title>
<polygon fill="none" stroke="black" points="218,-460.5 218,-528.5 277,-528.5 277,-460.5 218,-460.5"/>
<text text-anchor="start" x="226" y="-513.3" font-family="Times,serif" font-size="14.00">entry:</text>
<text text-anchor="start" x="226" y="-498.3" font-family="Times,serif" font-size="14.00"> a1</text>
<text text-anchor="start" x="226" y="-483.3" font-family="Times,serif" font-size="14.00"> a2</text>
<text text-anchor="start" x="226" y="-468.3" font-family="Times,serif" font-size="14.00"> a3</text>
</g>
<!-- Node0x1447c270 -->
<g id="node2" class="node"><title>Node0x1447c270</title>
<polygon fill="none" stroke="black" points="119,-369.5 119,-422.5 376,-422.5 376,-369.5 119,-369.5"/>
<text text-anchor="start" x="127" y="-407.3" font-family="Times,serif" font-size="14.00">v1 = IntToPtrCastExpr&lt;ptr&gt;(g5)</text>
<text text-anchor="start" x="127" y="-392.3" font-family="Times,serif" font-size="14.00"> v2 = *(a1)</text>
<text text-anchor="start" x="127" y="-377.3" font-family="Times,serif" font-size="14.00"> v3</text>
</g>
<!-- Node0x1447ba60&#45;&gt;Node0x1447c270 -->
<g id="edge1" class="edge"><title>Node0x1447ba60&#45;&gt;Node0x1447c270</title>
<path fill="none" stroke="black" d="M247.5,-460.29C247.5,-451.434 247.5,-441.827 247.5,-432.837"/>
<polygon fill="black" stroke="black" points="251,-432.648 247.5,-422.648 244,-432.648 251,-432.648"/>
</g>
<!-- Node0x1447c3b0 -->
<g id="node3" class="node"><title>Node0x1447c3b0</title>
<polygon fill="none" stroke="black" points="0,-293.5 0,-331.5 495,-331.5 495,-293.5 0,-293.5"/>
<text text-anchor="start" x="8" y="-316.3" font-family="Times,serif" font-size="14.00">if (TruncCastExpr&lt;int16&gt;(PtrToIntCastExpr&lt;int32&gt;(a2)) == 11):</text>
<text text-anchor="start" x="8" y="-301.3" font-family="Times,serif" font-size="14.00"> else:</text>
</g>
<!-- Node0x1447c270&#45;&gt;Node0x1447c3b0 -->
<g id="edge2" class="edge"><title>Node0x1447c270&#45;&gt;Node0x1447c3b0</title>
<path fill="none" stroke="black" d="M247.5,-369.213C247.5,-360.526 247.5,-350.787 247.5,-341.91"/>
<polygon fill="black" stroke="black" points="251,-341.638 247.5,-331.638 244,-341.638 251,-341.638"/>
</g>
<!-- Node0x1447c8d0 -->
<g id="node4" class="node"><title>Node0x1447c8d0</title>
<polygon fill="none" stroke="black" points="3,-188.5 3,-241.5 126,-241.5 126,-188.5 3,-188.5"/>
<text text-anchor="start" x="11" y="-226.3" font-family="Times,serif" font-size="14.00">0x41c3bd:</text>
<text text-anchor="start" x="11" y="-211.3" font-family="Times,serif" font-size="14.00"> v1[&#39;0&#39;] = 11</text>
<text text-anchor="start" x="11" y="-196.3" font-family="Times,serif" font-size="14.00"> v3 = (v2 != 0)</text>
</g>
<!-- Node0x1447c3b0&#45;&gt;Node0x1447c8d0 -->
<g id="edge3" class="edge"><title>Node0x1447c3b0&#45;&gt;Node0x1447c8d0</title>
<path fill="none" stroke="black" d="M47.4467,-293.42C31.4943,-288.636 19.0138,-282.604 12.5,-275 5.21747,-266.499 7.93259,-257.392 14.9887,-248.939"/>
<polygon fill="black" stroke="black" points="17.6035,-251.273 22.1649,-241.71 12.6357,-246.341 17.6035,-251.273"/>
<text text-anchor="middle" x="237.5" y="-263.8" font-family="Times,serif" font-size="14.00">TruncCastExpr&lt;int16&gt;(PtrToIntCastExpr&lt;int32&gt;(a2)) == 11</text>
</g>
<!-- Node0x14478a70 -->
<g id="node5" class="node"><title>Node0x14478a70</title>
<polygon fill="none" stroke="black" points="249,-188.5 249,-241.5 614,-241.5 614,-188.5 249,-188.5"/>
<text text-anchor="start" x="257" y="-226.3" font-family="Times,serif" font-size="14.00">0x41c3c9:</text>
<text text-anchor="start" x="257" y="-211.3" font-family="Times,serif" font-size="14.00"> v1[&#39;0&#39;] = 2</text>
<text text-anchor="start" x="257" y="-196.3" font-family="Times,serif" font-size="14.00"> v3 = (ExtCastExpr&lt;int32&gt;(v2) | (g5 &amp; &#45;65536))</text>
</g>
<!-- Node0x1447c3b0&#45;&gt;Node0x14478a70 -->
<g id="edge4" class="edge"><title>Node0x1447c3b0&#45;&gt;Node0x14478a70</title>
<path fill="none" stroke="black" d="M426.926,-293.369C443.263,-288.607 456.088,-282.593 462.5,-275 468.706,-267.652 467.613,-258.855 463.307,-250.325"/>
<polygon fill="black" stroke="black" points="466.112,-248.21 457.828,-241.604 460.185,-251.934 466.112,-248.21"/>
<text text-anchor="middle" x="688.5" y="-263.8" font-family="Times,serif" font-size="14.00">TruncCastExpr&lt;int16&gt;(PtrToIntCastExpr&lt;int32&gt;(a2)) != 11</text>
</g>
<!-- Node0x1447c770 -->
<g id="node6" class="node"><title>Node0x1447c770</title>
<polygon fill="none" stroke="black" points="130.5,-97.5 130.5,-150.5 450.5,-150.5 450.5,-97.5 130.5,-97.5"/>
<text text-anchor="start" x="138.5" y="-135.3" font-family="Times,serif" font-size="14.00">0x41c3ce:</text>
<text text-anchor="start" x="138.5" y="-120.3" font-family="Times,serif" font-size="14.00"> *(IntToPtrCastExpr&lt;ptr&gt;((g5 + 8))) = v3</text>
<text text-anchor="start" x="138.5" y="-105.3" font-family="Times,serif" font-size="14.00"> return g5</text>
</g>
<!-- Node0x1447c8d0&#45;&gt;Node0x1447c770 -->
<g id="edge5" class="edge"><title>Node0x1447c8d0&#45;&gt;Node0x1447c770</title>
<path fill="none" stroke="black" d="M126.255,-189.68C154.087,-178.72 187.18,-165.688 216.343,-154.203"/>
<polygon fill="black" stroke="black" points="217.64,-157.454 225.662,-150.534 215.075,-150.941 217.64,-157.454"/>
</g>
<!-- Node0x14478a70&#45;&gt;Node0x1447c770 -->
<g id="edge6" class="edge"><title>Node0x14478a70&#45;&gt;Node0x1447c770</title>
<path fill="none" stroke="black" d="M391.095,-188.496C375.018,-178.348 356.37,-166.578 339.53,-155.948"/>
<polygon fill="black" stroke="black" points="341.235,-152.886 330.911,-150.508 337.499,-158.805 341.235,-152.886"/>
</g>
<!-- Node0x14478af0 -->
<g id="node7" class="node"><title>Node0x14478af0</title>
<polygon fill="none" stroke="black" points="263.5,-23.5 263.5,-59.5 317.5,-59.5 317.5,-23.5 263.5,-23.5"/>
<text text-anchor="start" x="271.5" y="-37.8" font-family="Times,serif" font-size="14.00">exit:</text>
</g>
<!-- Node0x1447c770&#45;&gt;Node0x14478af0 -->
<g id="edge7" class="edge"><title>Node0x1447c770&#45;&gt;Node0x14478af0</title>
<path fill="none" stroke="black" d="M290.5,-97.0862C290.5,-88.4596 290.5,-78.8224 290.5,-70.0748"/>
<polygon fill="black" stroke="black" points="294,-69.9735 290.5,-59.9735 287,-69.9735 294,-69.9735"/>
</g>
</g>
</svg>
