<?xml version="1.0" encoding="UTF-8" standalone="no"?>
<!DOCTYPE svg PUBLIC "-//W3C//DTD SVG 1.1//EN"
 "http://www.w3.org/Graphics/SVG/1.1/DTD/svg11.dtd">
<!-- Generated by graphviz version 2.38.0 (20140413.2041)
 -->
<!-- Title: Control&#45;flow graph for function &#39;function_437e20(a1, *a2)&#39;. Pages: 1 -->
<svg width="502pt" height="233pt"
 viewBox="0.00 0.00 502.00 233.00" xmlns="http://www.w3.org/2000/svg" xmlns:xlink="http://www.w3.org/1999/xlink">
<g id="graph0" class="graph" transform="scale(1 1) rotate(0) translate(4 229)">
<title>Control&#45;flow graph for function &#39;function_437e20(a1, *a2)&#39;.</title>
<polygon fill="white" stroke="none" points="-4,4 -4,-229 498,-229 498,4 -4,4"/>
<text text-anchor="middle" x="247" y="-7.8" font-family="Times,serif" font-size="14.00">Control&#45;flow graph for function &#39;function_437e20(a1, *a2)&#39;.</text>
<!-- Node0x9f37bc30 -->
<g id="node1" class="node"><title>Node0x9f37bc30</title>
<polygon fill="none" stroke="black" points="217.5,-171.5 217.5,-224.5 276.5,-224.5 276.5,-171.5 217.5,-171.5"/>
<text text-anchor="start" x="225.5" y="-209.3" font-family="Times,serif" font-size="14.00">entry:</text>
<text text-anchor="start" x="225.5" y="-194.3" font-family="Times,serif" font-size="14.00"> a1</text>
<text text-anchor="start" x="225.5" y="-179.3" font-family="Times,serif" font-size="14.00"> a2</text>
</g>
<!-- Node0x2ee10c20 -->
<g id="node2" class="node"><title>Node0x2ee10c20</title>
<polygon fill="none" stroke="black" points="0,-96.5 0,-134.5 494,-134.5 494,-96.5 0,-96.5"/>
<text text-anchor="start" x="8" y="-119.3" font-family="Times,serif" font-size="14.00">g5 = (g3 &#45; 540)</text>
<text text-anchor="start" x="8" y="-104.3" font-family="Times,serif" font-size="14.00"> return PtrToIntCastExpr&lt;int32&gt;(function_4013a0(NULL, &amp;(a1)))</text>
</g>
<!-- Node0x9f37bc30&#45;&gt;Node0x2ee10c20 -->
<g id="edge1" class="edge"><title>Node0x9f37bc30&#45;&gt;Node0x2ee10c20</title>
<path fill="none" stroke="black" d="M247,-171.086C247,-162.813 247,-153.61 247,-145.154"/>
<polygon fill="black" stroke="black" points="250.5,-144.968 247,-134.968 243.5,-144.968 250.5,-144.968"/>
</g>
<!-- Node0x25d1fab0 -->
<g id="node3" class="node"><title>Node0x25d1fab0</title>
<polygon fill="none" stroke="black" points="220,-23.5 220,-59.5 274,-59.5 274,-23.5 220,-23.5"/>
<text text-anchor="start" x="228" y="-37.8" font-family="Times,serif" font-size="14.00">exit:</text>
</g>
<!-- Node0x2ee10c20&#45;&gt;Node0x25d1fab0 -->
<g id="edge2" class="edge"><title>Node0x2ee10c20&#45;&gt;Node0x25d1fab0</title>
<path fill="none" stroke="black" d="M247,-96.3314C247,-88.394 247,-78.9095 247,-70.1285"/>
<polygon fill="black" stroke="black" points="250.5,-69.9177 247,-59.9177 243.5,-69.9177 250.5,-69.9177"/>
</g>
</g>
</svg>
