<?xml version="1.0" encoding="UTF-8" standalone="no"?>
<!DOCTYPE svg PUBLIC "-//W3C//DTD SVG 1.1//EN"
 "http://www.w3.org/Graphics/SVG/1.1/DTD/svg11.dtd">
<!-- Generated by graphviz version 2.38.0 (20140413.2041)
 -->
<!-- Title: Control&#45;flow graph for function &#39;entry_point()&#39;. Pages: 1 -->
<svg width="357pt" height="231pt"
 viewBox="0.00 0.00 357.00 231.00" xmlns="http://www.w3.org/2000/svg" xmlns:xlink="http://www.w3.org/1999/xlink">
<g id="graph0" class="graph" transform="scale(1 1) rotate(0) translate(4 227)">
<title>Control&#45;flow graph for function &#39;entry_point()&#39;.</title>
<polygon fill="white" stroke="none" points="-4,4 -4,-227 353,-227 353,4 -4,4"/>
<text text-anchor="middle" x="174.5" y="-7.8" font-family="Times,serif" font-size="14.00">Control&#45;flow graph for function &#39;entry_point()&#39;.</text>
<!-- Node0xc5a61110 -->
<g id="node1" class="node"><title>Node0xc5a61110</title>
<polygon fill="none" stroke="black" points="145,-186.5 145,-222.5 204,-222.5 204,-186.5 145,-186.5"/>
<text text-anchor="start" x="153" y="-200.8" font-family="Times,serif" font-size="14.00">entry:</text>
</g>
<!-- Node0xc5a614a0 -->
<g id="node2" class="node"><title>Node0xc5a614a0</title>
<polygon fill="none" stroke="black" points="75.5,-96.5 75.5,-149.5 273.5,-149.5 273.5,-96.5 75.5,-96.5"/>
<text text-anchor="start" x="83.5" y="-134.3" font-family="Times,serif" font-size="14.00">0x421df2:</text>
<text text-anchor="start" x="83.5" y="-119.3" font-family="Times,serif" font-size="14.00"> ___security_init_cookie()</text>
<text text-anchor="start" x="83.5" y="-104.3" font-family="Times,serif" font-size="14.00"> _qm__qm__qm_()</text>
</g>
<!-- Node0xc5a61110&#45;&gt;Node0xc5a614a0 -->
<g id="edge1" class="edge"><title>Node0xc5a61110&#45;&gt;Node0xc5a614a0</title>
<path fill="none" stroke="black" d="M174.5,-186.25C174.5,-178.486 174.5,-169.014 174.5,-159.825"/>
<polygon fill="black" stroke="black" points="178,-159.676 174.5,-149.676 171,-159.676 178,-159.676"/>
</g>
<!-- Node0xc5a5f770 -->
<g id="node3" class="node"><title>Node0xc5a5f770</title>
<polygon fill="none" stroke="black" points="147.5,-23.5 147.5,-59.5 201.5,-59.5 201.5,-23.5 147.5,-23.5"/>
<text text-anchor="start" x="155.5" y="-37.8" font-family="Times,serif" font-size="14.00">exit:</text>
</g>
<!-- Node0xc5a614a0&#45;&gt;Node0xc5a5f770 -->
<g id="edge2" class="edge"><title>Node0xc5a614a0&#45;&gt;Node0xc5a5f770</title>
<path fill="none" stroke="black" d="M174.5,-96.4081C174.5,-87.9823 174.5,-78.5803 174.5,-70.0174"/>
<polygon fill="black" stroke="black" points="178,-69.7564 174.5,-59.7564 171,-69.7565 178,-69.7564"/>
</g>
</g>
</svg>
