<?xml version="1.0" encoding="UTF-8" standalone="no"?>
<!DOCTYPE svg PUBLIC "-//W3C//DTD SVG 1.1//EN"
 "http://www.w3.org/Graphics/SVG/1.1/DTD/svg11.dtd">
<!-- Generated by graphviz version 2.38.0 (20140413.2041)
 -->
<!-- Title: Control&#45;flow graph for function &#39;function_406156(a1)&#39;. Pages: 1 -->
<svg width="465pt" height="654pt"
 viewBox="0.00 0.00 464.50 654.00" xmlns="http://www.w3.org/2000/svg" xmlns:xlink="http://www.w3.org/1999/xlink">
<g id="graph0" class="graph" transform="scale(1 1) rotate(0) translate(4 650)">
<title>Control&#45;flow graph for function &#39;function_406156(a1)&#39;.</title>
<polygon fill="white" stroke="none" points="-4,4 -4,-650 460.5,-650 460.5,4 -4,4"/>
<text text-anchor="middle" x="228.25" y="-7.8" font-family="Times,serif" font-size="14.00">Control&#45;flow graph for function &#39;function_406156(a1)&#39;.</text>
<!-- Node0xe78ba80 -->
<g id="node1" class="node"><title>Node0xe78ba80</title>
<polygon fill="none" stroke="black" points="263,-607.5 263,-645.5 322,-645.5 322,-607.5 263,-607.5"/>
<text text-anchor="start" x="271" y="-630.3" font-family="Times,serif" font-size="14.00">entry:</text>
<text text-anchor="start" x="271" y="-615.3" font-family="Times,serif" font-size="14.00"> a1</text>
</g>
<!-- Node0xe78f7c0 -->
<g id="node2" class="node"><title>Node0xe78f7c0</title>
<polygon fill="none" stroke="black" points="128.5,-516.5 128.5,-569.5 456.5,-569.5 456.5,-516.5 128.5,-516.5"/>
<text text-anchor="start" x="136.5" y="-554.3" font-family="Times,serif" font-size="14.00">v1 = g5</text>
<text text-anchor="start" x="136.5" y="-539.3" font-family="Times,serif" font-size="14.00"> v2 = *(IntToPtrCastExpr&lt;ptr&gt;((v1 + 36)))</text>
<text text-anchor="start" x="136.5" y="-524.3" font-family="Times,serif" font-size="14.00"> result = v2</text>
</g>
<!-- Node0xe78ba80&#45;&gt;Node0xe78f7c0 -->
<g id="edge1" class="edge"><title>Node0xe78ba80&#45;&gt;Node0xe78f7c0</title>
<path fill="none" stroke="black" d="M292.5,-607.413C292.5,-599.285 292.5,-589.394 292.5,-579.864"/>
<polygon fill="black" stroke="black" points="296,-579.766 292.5,-569.766 289,-579.766 296,-579.766"/>
</g>
<!-- Node0xe78f8b0 -->
<g id="node3" class="node"><title>Node0xe78f8b0</title>
<polygon fill="none" stroke="black" points="240,-442.5 240,-478.5 345,-478.5 345,-442.5 240,-442.5"/>
<text text-anchor="start" x="248" y="-456.8" font-family="Times,serif" font-size="14.00">if (v2 == 0):</text>
</g>
<!-- Node0xe78f7c0&#45;&gt;Node0xe78f8b0 -->
<g id="edge2" class="edge"><title>Node0xe78f7c0&#45;&gt;Node0xe78f8b0</title>
<path fill="none" stroke="black" d="M292.5,-516.086C292.5,-507.46 292.5,-497.822 292.5,-489.075"/>
<polygon fill="black" stroke="black" points="296,-488.973 292.5,-478.974 289,-488.974 296,-488.973"/>
</g>
<!-- Node0xe78fbe0 -->
<g id="node4" class="node"><title>Node0xe78fbe0</title>
<polygon fill="none" stroke="black" points="7,-354.5 7,-390.5 330,-390.5 330,-354.5 7,-354.5"/>
<text text-anchor="start" x="15" y="-368.8" font-family="Times,serif" font-size="14.00">v3 = *(IntToPtrCastExpr&lt;ptr&gt;((v1 + 32)))</text>
</g>
<!-- Node0xe78f8b0&#45;&gt;Node0xe78fbe0 -->
<g id="edge3" class="edge"><title>Node0xe78f8b0&#45;&gt;Node0xe78fbe0</title>
<path fill="none" stroke="black" d="M267.705,-442.303C248.697,-429.12 222.285,-410.802 201.492,-396.382"/>
<polygon fill="black" stroke="black" points="203.464,-393.49 193.252,-390.667 199.475,-399.242 203.464,-393.49"/>
<text text-anchor="middle" x="268.5" y="-412.8" font-family="Times,serif" font-size="14.00">v2 == 0</text>
</g>
<!-- Node0xe78faa0 -->
<g id="node5" class="node"><title>Node0xe78faa0</title>
<polygon fill="none" stroke="black" points="225,-97.5 225,-135.5 338,-135.5 338,-97.5 225,-97.5"/>
<text text-anchor="start" x="233" y="-120.3" font-family="Times,serif" font-size="14.00">0x406170:</text>
<text text-anchor="start" x="233" y="-105.3" font-family="Times,serif" font-size="14.00"> return result</text>
</g>
<!-- Node0xe78f8b0&#45;&gt;Node0xe78faa0 -->
<g id="edge4" class="edge"><title>Node0xe78f8b0&#45;&gt;Node0xe78faa0</title>
<path fill="none" stroke="black" d="M316.701,-442.308C335.538,-426.733 358.5,-401.919 358.5,-373.5 358.5,-373.5 358.5,-373.5 358.5,-199 358.5,-175.368 341.182,-155.82 322.972,-141.799"/>
<polygon fill="black" stroke="black" points="324.757,-138.77 314.602,-135.75 320.657,-144.444 324.757,-138.77"/>
<text text-anchor="middle" x="385.5" y="-293.8" font-family="Times,serif" font-size="14.00">v2 != 0</text>
</g>
<!-- Node0xe78fc80 -->
<g id="node6" class="node"><title>Node0xe78fc80</title>
<polygon fill="none" stroke="black" points="116,-278.5 116,-316.5 221,-316.5 221,-278.5 116,-278.5"/>
<text text-anchor="start" x="124" y="-301.3" font-family="Times,serif" font-size="14.00">if (v3 == 0):</text>
<text text-anchor="start" x="124" y="-286.3" font-family="Times,serif" font-size="14.00"> else:</text>
</g>
<!-- Node0xe78fbe0&#45;&gt;Node0xe78fc80 -->
<g id="edge5" class="edge"><title>Node0xe78fbe0&#45;&gt;Node0xe78fc80</title>
<path fill="none" stroke="black" d="M168.5,-354.2C168.5,-345.99 168.5,-335.969 168.5,-326.701"/>
<polygon fill="black" stroke="black" points="172,-326.694 168.5,-316.694 165,-326.695 172,-326.694"/>
</g>
<!-- Node0xe78f740 -->
<g id="node7" class="node"><title>Node0xe78f740</title>
<polygon fill="none" stroke="black" points="254.5,-23.5 254.5,-59.5 308.5,-59.5 308.5,-23.5 254.5,-23.5"/>
<text text-anchor="start" x="262.5" y="-37.8" font-family="Times,serif" font-size="14.00">exit:</text>
</g>
<!-- Node0xe78faa0&#45;&gt;Node0xe78f740 -->
<g id="edge6" class="edge"><title>Node0xe78faa0&#45;&gt;Node0xe78f740</title>
<path fill="none" stroke="black" d="M281.5,-97.4551C281.5,-89.2008 281.5,-79.2377 281.5,-70.0742"/>
<polygon fill="black" stroke="black" points="285,-69.8347 281.5,-59.8347 278,-69.8347 285,-69.8347"/>
</g>
<!-- Node0xe78ff20 -->
<g id="node8" class="node"><title>Node0xe78ff20</title>
<polygon fill="none" stroke="black" points="0,-173.5 0,-226.5 215,-226.5 215,-173.5 0,-173.5"/>
<text text-anchor="start" x="8" y="-211.3" font-family="Times,serif" font-size="14.00">0x406164:</text>
<text text-anchor="start" x="8" y="-196.3" font-family="Times,serif" font-size="14.00"> GetActiveWindow()</text>
<text text-anchor="start" x="8" y="-181.3" font-family="Times,serif" font-size="14.00"> result = function_40b067()</text>
</g>
<!-- Node0xe78fc80&#45;&gt;Node0xe78ff20 -->
<g id="edge7" class="edge"><title>Node0xe78fc80&#45;&gt;Node0xe78ff20</title>
<path fill="none" stroke="black" d="M156.739,-278.087C148.998,-265.968 138.627,-249.732 129.4,-235.287"/>
<polygon fill="black" stroke="black" points="132.17,-233.12 123.837,-226.577 126.27,-236.888 132.17,-233.12"/>
<text text-anchor="middle" x="173.5" y="-248.8" font-family="Times,serif" font-size="14.00">v3 == 0</text>
</g>
<!-- Node0xe78ff80 -->
<g id="node9" class="node"><title>Node0xe78ff80</title>
<polygon fill="none" stroke="black" points="233,-182 233,-218 330,-218 330,-182 233,-182"/>
<text text-anchor="start" x="241" y="-196.3" font-family="Times,serif" font-size="14.00">result = v3</text>
</g>
<!-- Node0xe78fc80&#45;&gt;Node0xe78ff80 -->
<g id="edge8" class="edge"><title>Node0xe78fc80&#45;&gt;Node0xe78ff80</title>
<path fill="none" stroke="black" d="M190.02,-278.312C208.03,-263.092 233.858,-241.264 253.48,-224.681"/>
<polygon fill="black" stroke="black" points="255.822,-227.284 261.2,-218.156 251.303,-221.938 255.822,-227.284"/>
<text text-anchor="middle" x="255.5" y="-248.8" font-family="Times,serif" font-size="14.00">v3 != 0</text>
</g>
<!-- Node0xe78ff20&#45;&gt;Node0xe78faa0 -->
<g id="edge9" class="edge"><title>Node0xe78ff20&#45;&gt;Node0xe78faa0</title>
<path fill="none" stroke="black" d="M162.077,-173.437C185.013,-162.694 211.456,-150.308 233.621,-139.926"/>
<polygon fill="black" stroke="black" points="235.264,-143.021 242.836,-135.61 232.295,-136.682 235.264,-143.021"/>
</g>
<!-- Node0xe78ff80&#45;&gt;Node0xe78faa0 -->
<g id="edge10" class="edge"><title>Node0xe78ff80&#45;&gt;Node0xe78faa0</title>
<path fill="none" stroke="black" d="M281.5,-181.716C281.5,-171.236 281.5,-157.614 281.5,-145.614"/>
<polygon fill="black" stroke="black" points="285,-145.606 281.5,-135.606 278,-145.606 285,-145.606"/>
</g>
</g>
</svg>
