<?xml version="1.0" encoding="UTF-8" standalone="no"?>
<!DOCTYPE svg PUBLIC "-//W3C//DTD SVG 1.1//EN"
 "http://www.w3.org/Graphics/SVG/1.1/DTD/svg11.dtd">
<!-- Generated by graphviz version 2.38.0 (20140413.2041)
 -->
<!-- Title: Control&#45;flow graph for function &#39;function_411ed5(a1, a2)&#39;. Pages: 1 -->
<svg width="596pt" height="580pt"
 viewBox="0.00 0.00 596.00 580.00" xmlns="http://www.w3.org/2000/svg" xmlns:xlink="http://www.w3.org/1999/xlink">
<g id="graph0" class="graph" transform="scale(1 1) rotate(0) translate(4 576)">
<title>Control&#45;flow graph for function &#39;function_411ed5(a1, a2)&#39;.</title>
<polygon fill="white" stroke="none" points="-4,4 -4,-576 592,-576 592,4 -4,4"/>
<text text-anchor="middle" x="294" y="-7.8" font-family="Times,serif" font-size="14.00">Control&#45;flow graph for function &#39;function_411ed5(a1, a2)&#39;.</text>
<!-- Node0x21ad0710 -->
<g id="node1" class="node"><title>Node0x21ad0710</title>
<polygon fill="none" stroke="black" points="264.5,-518.5 264.5,-571.5 323.5,-571.5 323.5,-518.5 264.5,-518.5"/>
<text text-anchor="start" x="272.5" y="-556.3" font-family="Times,serif" font-size="14.00">entry:</text>
<text text-anchor="start" x="272.5" y="-541.3" font-family="Times,serif" font-size="14.00"> a1</text>
<text text-anchor="start" x="272.5" y="-526.3" font-family="Times,serif" font-size="14.00"> a2</text>
</g>
<!-- Node0x21ad2420 -->
<g id="node2" class="node"><title>Node0x21ad2420</title>
<polygon fill="none" stroke="black" points="0,-352.5 0,-480.5 588,-480.5 588,-352.5 0,-352.5"/>
<text text-anchor="start" x="8" y="-465.3" font-family="Times,serif" font-size="14.00">v1 = IntToPtrCastExpr&lt;ptr&gt;(g9)</text>
<text text-anchor="start" x="8" y="-450.3" font-family="Times,serif" font-size="14.00"> g10 = PtrToIntCastExpr&lt;int32&gt;(&amp;(v1))</text>
<text text-anchor="start" x="8" y="-435.3" font-family="Times,serif" font-size="14.00"> v2 = g5</text>
<text text-anchor="start" x="8" y="-420.3" font-family="Times,serif" font-size="14.00"> g9 = v2</text>
<text text-anchor="start" x="8" y="-405.3" font-family="Times,serif" font-size="14.00"> g5 = (*(IntToPtrCastExpr&lt;ptr&gt;((v2 + 16))) &#45; 16)</text>
<text text-anchor="start" x="8" y="-390.3" font-family="Times,serif" font-size="14.00"> *(IntToPtrCastExpr&lt;ptr&gt;(v2)) = PtrToIntCastExpr&lt;int32&gt;(&amp;(vtable_43b2ac))</text>
<text text-anchor="start" x="8" y="-375.3" font-family="Times,serif" font-size="14.00"> v3</text>
<text text-anchor="start" x="8" y="-360.3" font-family="Times,serif" font-size="14.00"> function_401380(BitCastExpr&lt;ptr&gt;(v1), BitCastExpr&lt;ptr&gt;(v3))</text>
</g>
<!-- Node0x21ad0710&#45;&gt;Node0x21ad2420 -->
<g id="edge1" class="edge"><title>Node0x21ad0710&#45;&gt;Node0x21ad2420</title>
<path fill="none" stroke="black" d="M294,-518.401C294,-510.256 294,-500.802 294,-491.011"/>
<polygon fill="black" stroke="black" points="297.5,-490.727 294,-480.727 290.5,-490.727 297.5,-490.727"/>
</g>
<!-- Node0x21ad24e0 -->
<g id="node3" class="node"><title>Node0x21ad24e0</title>
<polygon fill="none" stroke="black" points="244.5,-278.5 244.5,-314.5 343.5,-314.5 343.5,-278.5 244.5,-278.5"/>
<text text-anchor="start" x="252.5" y="-292.8" font-family="Times,serif" font-size="14.00">if (a1 != 1):</text>
</g>
<!-- Node0x21ad2420&#45;&gt;Node0x21ad24e0 -->
<g id="edge2" class="edge"><title>Node0x21ad2420&#45;&gt;Node0x21ad24e0</title>
<path fill="none" stroke="black" d="M294,-352.355C294,-342.753 294,-333.299 294,-325.016"/>
<polygon fill="black" stroke="black" points="297.5,-324.887 294,-314.888 290.5,-324.888 297.5,-324.887"/>
</g>
<!-- Node0x21ad27b0 -->
<g id="node4" class="node"><title>Node0x21ad27b0</title>
<polygon fill="none" stroke="black" points="141,-188.5 141,-226.5 293,-226.5 293,-188.5 141,-188.5"/>
<text text-anchor="start" x="149" y="-211.3" font-family="Times,serif" font-size="14.00">0x411ef0:</text>
<text text-anchor="start" x="149" y="-196.3" font-family="Times,serif" font-size="14.00"> function_4048de()</text>
</g>
<!-- Node0x21ad24e0&#45;&gt;Node0x21ad27b0 -->
<g id="edge3" class="edge"><title>Node0x21ad24e0&#45;&gt;Node0x21ad27b0</title>
<path fill="none" stroke="black" d="M277.74,-278.299C272.359,-272.53 266.375,-266.031 261,-260 253.723,-251.836 245.927,-242.806 238.948,-234.618"/>
<polygon fill="black" stroke="black" points="241.431,-232.134 232.292,-226.774 236.093,-236.663 241.431,-232.134"/>
<text text-anchor="middle" x="288" y="-248.8" font-family="Times,serif" font-size="14.00">a1 != 1</text>
</g>
<!-- Node0x21ad1840 -->
<g id="node5" class="node"><title>Node0x21ad1840</title>
<polygon fill="none" stroke="black" points="165,-97.5 165,-150.5 425,-150.5 425,-97.5 165,-97.5"/>
<text text-anchor="start" x="173" y="-135.3" font-family="Times,serif" font-size="14.00">result = g9</text>
<text text-anchor="start" x="173" y="-120.3" font-family="Times,serif" font-size="14.00"> g9 = ExtCastExpr&lt;int32&gt;(*(v1))</text>
<text text-anchor="start" x="173" y="-105.3" font-family="Times,serif" font-size="14.00"> return result</text>
</g>
<!-- Node0x21ad24e0&#45;&gt;Node0x21ad1840 -->
<g id="edge4" class="edge"><title>Node0x21ad24e0&#45;&gt;Node0x21ad1840</title>
<path fill="none" stroke="black" d="M306.672,-278.283C310.06,-272.726 313.261,-266.354 315,-260 324.106,-226.722 316.382,-187.622 308.027,-160.091"/>
<polygon fill="black" stroke="black" points="311.339,-158.956 304.951,-150.504 304.674,-161.095 311.339,-158.956"/>
<text text-anchor="middle" x="349" y="-203.8" font-family="Times,serif" font-size="14.00">a1 == 1</text>
</g>
<!-- Node0x21ad27b0&#45;&gt;Node0x21ad1840 -->
<g id="edge5" class="edge"><title>Node0x21ad27b0&#45;&gt;Node0x21ad1840</title>
<path fill="none" stroke="black" d="M234.311,-188.413C242.834,-179.507 253.384,-168.483 263.284,-158.139"/>
<polygon fill="black" stroke="black" points="265.955,-160.411 270.34,-150.766 260.898,-155.571 265.955,-160.411"/>
</g>
<!-- Node0x21ad23a0 -->
<g id="node6" class="node"><title>Node0x21ad23a0</title>
<polygon fill="none" stroke="black" points="268,-23.5 268,-59.5 322,-59.5 322,-23.5 268,-23.5"/>
<text text-anchor="start" x="276" y="-37.8" font-family="Times,serif" font-size="14.00">exit:</text>
</g>
<!-- Node0x21ad1840&#45;&gt;Node0x21ad23a0 -->
<g id="edge6" class="edge"><title>Node0x21ad1840&#45;&gt;Node0x21ad23a0</title>
<path fill="none" stroke="black" d="M295,-97.0862C295,-88.4596 295,-78.8224 295,-70.0748"/>
<polygon fill="black" stroke="black" points="298.5,-69.9735 295,-59.9735 291.5,-69.9735 298.5,-69.9735"/>
</g>
</g>
</svg>
