<?xml version="1.0" encoding="UTF-8" standalone="no"?>
<!DOCTYPE svg PUBLIC "-//W3C//DTD SVG 1.1//EN"
 "http://www.w3.org/Graphics/SVG/1.1/DTD/svg11.dtd">
<!-- Generated by graphviz version 2.38.0 (20140413.2041)
 -->
<!-- Title: Control&#45;flow graph for function &#39;function_41be89(*a1, a2)&#39;. Pages: 1 -->
<svg width="662pt" height="263pt"
 viewBox="0.00 0.00 662.00 263.00" xmlns="http://www.w3.org/2000/svg" xmlns:xlink="http://www.w3.org/1999/xlink">
<g id="graph0" class="graph" transform="scale(1 1) rotate(0) translate(4 259)">
<title>Control&#45;flow graph for function &#39;function_41be89(*a1, a2)&#39;.</title>
<polygon fill="white" stroke="none" points="-4,4 -4,-259 658,-259 658,4 -4,4"/>
<text text-anchor="middle" x="327" y="-7.8" font-family="Times,serif" font-size="14.00">Control&#45;flow graph for function &#39;function_41be89(*a1, a2)&#39;.</text>
<!-- Node0x6201be70 -->
<g id="node1" class="node"><title>Node0x6201be70</title>
<polygon fill="none" stroke="black" points="297.5,-201.5 297.5,-254.5 356.5,-254.5 356.5,-201.5 297.5,-201.5"/>
<text text-anchor="start" x="305.5" y="-239.3" font-family="Times,serif" font-size="14.00">entry:</text>
<text text-anchor="start" x="305.5" y="-224.3" font-family="Times,serif" font-size="14.00"> a1</text>
<text text-anchor="start" x="305.5" y="-209.3" font-family="Times,serif" font-size="14.00"> a2</text>
</g>
<!-- Node0x3bfdc5a0 -->
<g id="node2" class="node"><title>Node0x3bfdc5a0</title>
<polygon fill="none" stroke="black" points="-5.68434e-14,-96.5 -5.68434e-14,-164.5 654,-164.5 654,-96.5 -5.68434e-14,-96.5"/>
<text text-anchor="start" x="8" y="-149.3" font-family="Times,serif" font-size="14.00">0x41be89:</text>
<text text-anchor="start" x="8" y="-134.3" font-family="Times,serif" font-size="14.00"> *(IntToPtrCastExpr&lt;ptr&gt;(g5)) = 4438508</text>
<text text-anchor="start" x="8" y="-119.3" font-family="Times,serif" font-size="14.00"> IntToPtrCastExpr&lt;ptr&gt;(g5)[&#39;1&#39;] = IntToPtrCastExpr&lt;ptr&gt;(ExtCastExpr&lt;int32&gt;(*(a1)))</text>
<text text-anchor="start" x="8" y="-104.3" font-family="Times,serif" font-size="14.00"> return g5</text>
</g>
<!-- Node0x6201be70&#45;&gt;Node0x3bfdc5a0 -->
<g id="edge1" class="edge"><title>Node0x6201be70&#45;&gt;Node0x3bfdc5a0</title>
<path fill="none" stroke="black" d="M327,-201.408C327,-193.219 327,-183.912 327,-174.822"/>
<polygon fill="black" stroke="black" points="330.5,-174.721 327,-164.721 323.5,-174.721 330.5,-174.721"/>
</g>
<!-- Node0x3bfdc520 -->
<g id="node3" class="node"><title>Node0x3bfdc520</title>
<polygon fill="none" stroke="black" points="300,-23.5 300,-59.5 354,-59.5 354,-23.5 300,-23.5"/>
<text text-anchor="start" x="308" y="-37.8" font-family="Times,serif" font-size="14.00">exit:</text>
</g>
<!-- Node0x3bfdc5a0&#45;&gt;Node0x3bfdc520 -->
<g id="edge2" class="edge"><title>Node0x3bfdc5a0&#45;&gt;Node0x3bfdc520</title>
<path fill="none" stroke="black" d="M327,-96.1123C327,-87.3522 327,-78.0128 327,-69.6246"/>
<polygon fill="black" stroke="black" points="330.5,-69.6235 327,-59.6235 323.5,-69.6235 330.5,-69.6235"/>
</g>
</g>
</svg>
