<?xml version="1.0" encoding="UTF-8" standalone="no"?>
<!DOCTYPE svg PUBLIC "-//W3C//DTD SVG 1.1//EN"
 "http://www.w3.org/Graphics/SVG/1.1/DTD/svg11.dtd">
<!-- Generated by graphviz version 2.38.0 (20140413.2041)
 -->
<!-- Title: Control&#45;flow graph for function &#39;function_40e9fa(a1, *a2, *a3, *a4)&#39;. Pages: 1 -->
<svg width="508pt" height="293pt"
 viewBox="0.00 0.00 508.00 293.00" xmlns="http://www.w3.org/2000/svg" xmlns:xlink="http://www.w3.org/1999/xlink">
<g id="graph0" class="graph" transform="scale(1 1) rotate(0) translate(4 289)">
<title>Control&#45;flow graph for function &#39;function_40e9fa(a1, *a2, *a3, *a4)&#39;.</title>
<polygon fill="white" stroke="none" points="-4,4 -4,-289 504,-289 504,4 -4,4"/>
<text text-anchor="middle" x="250" y="-7.8" font-family="Times,serif" font-size="14.00">Control&#45;flow graph for function &#39;function_40e9fa(a1, *a2, *a3, *a4)&#39;.</text>
<!-- Node0xbe81da20 -->
<g id="node1" class="node"><title>Node0xbe81da20</title>
<polygon fill="none" stroke="black" points="220.5,-201.5 220.5,-284.5 279.5,-284.5 279.5,-201.5 220.5,-201.5"/>
<text text-anchor="start" x="228.5" y="-269.3" font-family="Times,serif" font-size="14.00">entry:</text>
<text text-anchor="start" x="228.5" y="-254.3" font-family="Times,serif" font-size="14.00"> a1</text>
<text text-anchor="start" x="228.5" y="-239.3" font-family="Times,serif" font-size="14.00"> a2</text>
<text text-anchor="start" x="228.5" y="-224.3" font-family="Times,serif" font-size="14.00"> a3</text>
<text text-anchor="start" x="228.5" y="-209.3" font-family="Times,serif" font-size="14.00"> a4</text>
</g>
<!-- Node0xbe81e900 -->
<g id="node2" class="node"><title>Node0xbe81e900</title>
<polygon fill="none" stroke="black" points="15,-96.5 15,-164.5 485,-164.5 485,-96.5 15,-96.5"/>
<text text-anchor="start" x="23" y="-149.3" font-family="Times,serif" font-size="14.00">0x40e9fa:</text>
<text text-anchor="start" x="23" y="-134.3" font-family="Times,serif" font-size="14.00"> v1</text>
<text text-anchor="start" x="23" y="-119.3" font-family="Times,serif" font-size="14.00"> v2 = IntToPtrCastExpr&lt;ptr&gt;(function_40e9db(a1, a2, a3, v1))</text>
<text text-anchor="start" x="23" y="-104.3" font-family="Times,serif" font-size="14.00"> function_4038b0(v2)</text>
</g>
<!-- Node0xbe81da20&#45;&gt;Node0xbe81e900 -->
<g id="edge1" class="edge"><title>Node0xbe81da20&#45;&gt;Node0xbe81e900</title>
<path fill="none" stroke="black" d="M250,-201.481C250,-192.804 250,-183.604 250,-174.826"/>
<polygon fill="black" stroke="black" points="253.5,-174.771 250,-164.771 246.5,-174.771 253.5,-174.771"/>
</g>
<!-- Node0xbe81e880 -->
<g id="node3" class="node"><title>Node0xbe81e880</title>
<polygon fill="none" stroke="black" points="223,-23.5 223,-59.5 277,-59.5 277,-23.5 223,-23.5"/>
<text text-anchor="start" x="231" y="-37.8" font-family="Times,serif" font-size="14.00">exit:</text>
</g>
<!-- Node0xbe81e900&#45;&gt;Node0xbe81e880 -->
<g id="edge2" class="edge"><title>Node0xbe81e900&#45;&gt;Node0xbe81e880</title>
<path fill="none" stroke="black" d="M250,-96.1123C250,-87.3522 250,-78.0128 250,-69.6246"/>
<polygon fill="black" stroke="black" points="253.5,-69.6235 250,-59.6235 246.5,-69.6235 253.5,-69.6235"/>
</g>
</g>
</svg>
