<?xml version="1.0" encoding="UTF-8" standalone="no"?>
<!DOCTYPE svg PUBLIC "-//W3C//DTD SVG 1.1//EN"
 "http://www.w3.org/Graphics/SVG/1.1/DTD/svg11.dtd">
<!-- Generated by graphviz version 2.38.0 (20140413.2041)
 -->
<!-- Title: Control&#45;flow graph for function &#39;function_41585a(*a1, a2, *a3, *a4, *a5, *a6, *a7, a8, *a9, *a10, *a11)&#39;. Pages: 1 -->
<svg width="902pt" height="1555pt"
 viewBox="0.00 0.00 901.50 1555.00" xmlns="http://www.w3.org/2000/svg" xmlns:xlink="http://www.w3.org/1999/xlink">
<g id="graph0" class="graph" transform="scale(1 1) rotate(0) translate(4 1551)">
<title>Control&#45;flow graph for function &#39;function_41585a(*a1, a2, *a3, *a4, *a5, *a6, *a7, a8, *a9, *a10, *a11)&#39;.</title>
<polygon fill="white" stroke="none" points="-4,4 -4,-1551 897.5,-1551 897.5,4 -4,4"/>
<text text-anchor="middle" x="446.75" y="-7.8" font-family="Times,serif" font-size="14.00">Control&#45;flow graph for function &#39;function_41585a(*a1, a2, *a3, *a4, *a5, *a6, *a7, a8, *a9, *a10, *a11)&#39;.</text>
<!-- Node0xf3d5c50 -->
<g id="node1" class="node"><title>Node0xf3d5c50</title>
<polygon fill="none" stroke="black" points="567.5,-1358.5 567.5,-1546.5 626.5,-1546.5 626.5,-1358.5 567.5,-1358.5"/>
<text text-anchor="start" x="575.5" y="-1531.3" font-family="Times,serif" font-size="14.00">entry:</text>
<text text-anchor="start" x="575.5" y="-1516.3" font-family="Times,serif" font-size="14.00"> a1</text>
<text text-anchor="start" x="575.5" y="-1501.3" font-family="Times,serif" font-size="14.00"> a2</text>
<text text-anchor="start" x="575.5" y="-1486.3" font-family="Times,serif" font-size="14.00"> a3</text>
<text text-anchor="start" x="575.5" y="-1471.3" font-family="Times,serif" font-size="14.00"> a4</text>
<text text-anchor="start" x="575.5" y="-1456.3" font-family="Times,serif" font-size="14.00"> a5</text>
<text text-anchor="start" x="575.5" y="-1441.3" font-family="Times,serif" font-size="14.00"> a6</text>
<text text-anchor="start" x="575.5" y="-1426.3" font-family="Times,serif" font-size="14.00"> a7</text>
<text text-anchor="start" x="575.5" y="-1411.3" font-family="Times,serif" font-size="14.00"> a8</text>
<text text-anchor="start" x="575.5" y="-1396.3" font-family="Times,serif" font-size="14.00"> a9</text>
<text text-anchor="start" x="575.5" y="-1381.3" font-family="Times,serif" font-size="14.00"> a10</text>
<text text-anchor="start" x="575.5" y="-1366.3" font-family="Times,serif" font-size="14.00"> a11</text>
</g>
<!-- Node0x19ee99d0 -->
<g id="node2" class="node"><title>Node0x19ee99d0</title>
<polygon fill="none" stroke="black" points="547,-1222.5 547,-1320.5 647,-1320.5 647,-1222.5 547,-1222.5"/>
<text text-anchor="start" x="555" y="-1305.3" font-family="Times,serif" font-size="14.00">v1</text>
<text text-anchor="start" x="555" y="-1290.3" font-family="Times,serif" font-size="14.00"> v2 = &amp;(v1)</text>
<text text-anchor="start" x="555" y="-1275.3" font-family="Times,serif" font-size="14.00"> g10 = v2</text>
<text text-anchor="start" x="555" y="-1260.3" font-family="Times,serif" font-size="14.00"> g3 = v2</text>
<text text-anchor="start" x="555" y="-1245.3" font-family="Times,serif" font-size="14.00"> g5 = 0</text>
<text text-anchor="start" x="555" y="-1230.3" font-family="Times,serif" font-size="14.00"> v3 = a1</text>
</g>
<!-- Node0xf3d5c50&#45;&gt;Node0x19ee99d0 -->
<g id="edge1" class="edge"><title>Node0xf3d5c50&#45;&gt;Node0x19ee99d0</title>
<path fill="none" stroke="black" d="M597,-1358.33C597,-1348.93 597,-1339.58 597,-1330.7"/>
<polygon fill="black" stroke="black" points="600.5,-1330.52 597,-1320.52 593.5,-1330.52 600.5,-1330.52"/>
</g>
<!-- Node0x8814e850 -->
<g id="node3" class="node"><title>Node0x8814e850</title>
<polygon fill="none" stroke="black" points="527,-1148.5 527,-1184.5 667,-1184.5 667,-1148.5 527,-1148.5"/>
<text text-anchor="start" x="535" y="-1162.8" font-family="Times,serif" font-size="14.00">if (a1 == NULL):</text>
</g>
<!-- Node0x19ee99d0&#45;&gt;Node0x8814e850 -->
<g id="edge2" class="edge"><title>Node0x19ee99d0&#45;&gt;Node0x8814e850</title>
<path fill="none" stroke="black" d="M597,-1222.32C597,-1212.89 597,-1203.32 597,-1194.87"/>
<polygon fill="black" stroke="black" points="600.5,-1194.86 597,-1184.86 593.5,-1194.86 600.5,-1194.86"/>
</g>
<!-- Node0x1d9111a0 -->
<g id="node4" class="node"><title>Node0x1d9111a0</title>
<polygon fill="none" stroke="black" points="0,-1058.5 0,-1096.5 652,-1096.5 652,-1058.5 0,-1058.5"/>
<text text-anchor="start" x="8" y="-1081.3" font-family="Times,serif" font-size="14.00">0x415866:</text>
<text text-anchor="start" x="8" y="-1066.3" font-family="Times,serif" font-size="14.00"> v3 = IntToPtrCastExpr&lt;ptr&gt;(function_4032a0(IntToPtrCastExpr&lt;ptr&gt;(&#45;2147467259)))</text>
</g>
<!-- Node0x8814e850&#45;&gt;Node0x1d9111a0 -->
<g id="edge3" class="edge"><title>Node0x8814e850&#45;&gt;Node0x1d9111a0</title>
<path fill="none" stroke="black" d="M543.782,-1148.42C500.322,-1134.46 438.686,-1114.68 392.071,-1099.71"/>
<polygon fill="black" stroke="black" points="392.955,-1096.32 382.364,-1096.59 390.815,-1102.98 392.955,-1096.32"/>
<text text-anchor="middle" x="533" y="-1118.8" font-family="Times,serif" font-size="14.00">a1 == NULL</text>
</g>
<!-- Node0x8814ea50 -->
<g id="node5" class="node"><title>Node0x8814ea50</title>
<polygon fill="none" stroke="black" points="288.5,-622.5 288.5,-1020.5 893.5,-1020.5 893.5,-622.5 288.5,-622.5"/>
<text text-anchor="start" x="296.5" y="-1005.3" font-family="Times,serif" font-size="14.00">v4 = PtrToIntCastExpr&lt;int32&gt;(a3)</text>
<text text-anchor="start" x="296.5" y="-990.3" font-family="Times,serif" font-size="14.00"> v5 = g7</text>
<text text-anchor="start" x="296.5" y="-975.3" font-family="Times,serif" font-size="14.00"> g7 = (v4 &amp; 65535)</text>
<text text-anchor="start" x="296.5" y="-960.3" font-family="Times,serif" font-size="14.00"> v3[&#39;12&#39;] = v4</text>
<text text-anchor="start" x="296.5" y="-945.3" font-family="Times,serif" font-size="14.00"> v6 = PtrToIntCastExpr&lt;int32&gt;(a5)</text>
<text text-anchor="start" x="296.5" y="-930.3" font-family="Times,serif" font-size="14.00"> g7 = ((g7 / 16384) &amp; 1)</text>
<text text-anchor="start" x="296.5" y="-915.3" font-family="Times,serif" font-size="14.00"> v3[&#39;12&#39;] = v6</text>
<text text-anchor="start" x="296.5" y="-900.3" font-family="Times,serif" font-size="14.00"> v3[&#39;8&#39;] = g7</text>
<text text-anchor="start" x="296.5" y="-885.3" font-family="Times,serif" font-size="14.00"> g7 = PtrToIntCastExpr&lt;int32&gt;(a11)</text>
<text text-anchor="start" x="296.5" y="-870.3" font-family="Times,serif" font-size="14.00"> v7 = ((((v4 &amp; &#45;256) | (v6 &amp; 255)) &amp; &#45;256) | (PtrToIntCastExpr&lt;int32&gt;(a6) &amp; 255))</text>
<text text-anchor="start" x="296.5" y="-855.3" font-family="Times,serif" font-size="14.00"> v3[&#39;12&#39;] = v7</text>
<text text-anchor="start" x="296.5" y="-840.3" font-family="Times,serif" font-size="14.00"> v3[&#39;5&#39;] = IntToPtrCastExpr&lt;ptr&gt;(g7)</text>
<text text-anchor="start" x="296.5" y="-825.3" font-family="Times,serif" font-size="14.00"> g7 = PtrToIntCastExpr&lt;int32&gt;(a7)</text>
<text text-anchor="start" x="296.5" y="-810.3" font-family="Times,serif" font-size="14.00"> v3[&#39;1&#39;] = a8</text>
<text text-anchor="start" x="296.5" y="-795.3" font-family="Times,serif" font-size="14.00"> v3[&#39;9&#39;] = IntToPtrCastExpr&lt;ptr&gt;(g7)</text>
<text text-anchor="start" x="296.5" y="-780.3" font-family="Times,serif" font-size="14.00"> g7 = a2</text>
<text text-anchor="start" x="296.5" y="-765.3" font-family="Times,serif" font-size="14.00"> v3[&#39;10&#39;] = IntToPtrCastExpr&lt;ptr&gt;(PtrToIntCastExpr&lt;int32&gt;(a4))</text>
<text text-anchor="start" x="296.5" y="-750.3" font-family="Times,serif" font-size="14.00"> v8 = PtrToIntCastExpr&lt;int32&gt;(a9)</text>
<text text-anchor="start" x="296.5" y="-735.3" font-family="Times,serif" font-size="14.00"> v3[&#39;0&#39;] = g7</text>
<text text-anchor="start" x="296.5" y="-720.3" font-family="Times,serif" font-size="14.00"> v3[&#39;11&#39;] = IntToPtrCastExpr&lt;ptr&gt;(g5)</text>
<text text-anchor="start" x="296.5" y="-705.3" font-family="Times,serif" font-size="14.00"> v3[&#39;2&#39;] = IntToPtrCastExpr&lt;ptr&gt;(g5)</text>
<text text-anchor="start" x="296.5" y="-690.3" font-family="Times,serif" font-size="14.00"> v3[&#39;3&#39;] = IntToPtrCastExpr&lt;ptr&gt;(g5)</text>
<text text-anchor="start" x="296.5" y="-675.3" font-family="Times,serif" font-size="14.00"> v3[&#39;4&#39;] = IntToPtrCastExpr&lt;ptr&gt;(g5)</text>
<text text-anchor="start" x="296.5" y="-660.3" font-family="Times,serif" font-size="14.00"> v3[&#39;6&#39;] = IntToPtrCastExpr&lt;ptr&gt;(g5)</text>
<text text-anchor="start" x="296.5" y="-645.3" font-family="Times,serif" font-size="14.00"> v3[&#39;7&#39;] = 1</text>
<text text-anchor="start" x="296.5" y="-630.3" font-family="Times,serif" font-size="14.00"> g7 = ExtCastExpr&lt;int32&gt;(*(IntToPtrCastExpr&lt;ptr&gt;(v5)))</text>
</g>
<!-- Node0x8814e850&#45;&gt;Node0x8814ea50 -->
<g id="edge4" class="edge"><title>Node0x8814e850&#45;&gt;Node0x8814ea50</title>
<path fill="none" stroke="black" d="M620.327,-1148.3C635.064,-1135.9 652.818,-1117.74 661,-1097 669.332,-1075.88 672.382,-1053.45 671.784,-1030.86"/>
<polygon fill="black" stroke="black" points="675.278,-1030.65 671.284,-1020.83 668.286,-1031 675.278,-1030.65"/>
<text text-anchor="middle" x="715" y="-1073.8" font-family="Times,serif" font-size="14.00">a1 != NULL</text>
</g>
<!-- Node0x1d9111a0&#45;&gt;Node0x8814ea50 -->
<g id="edge5" class="edge"><title>Node0x1d9111a0&#45;&gt;Node0x8814ea50</title>
<path fill="none" stroke="black" d="M345.058,-1058.23C353.491,-1050.15 364.319,-1039.77 376.717,-1027.89"/>
<polygon fill="black" stroke="black" points="379.394,-1030.17 384.191,-1020.72 374.55,-1025.12 379.394,-1030.17"/>
</g>
<!-- Node0x8814ed10 -->
<g id="node6" class="node"><title>Node0x8814ed10</title>
<polygon fill="none" stroke="black" points="537,-548.5 537,-584.5 645,-584.5 645,-548.5 537,-548.5"/>
<text text-anchor="start" x="545" y="-562.8" font-family="Times,serif" font-size="14.00">if (v8 != g5):</text>
</g>
<!-- Node0x8814ea50&#45;&gt;Node0x8814ed10 -->
<g id="edge6" class="edge"><title>Node0x8814ea50&#45;&gt;Node0x8814ed10</title>
<path fill="none" stroke="black" d="M591,-622.397C591,-612.199 591,-602.927 591,-595.026"/>
<polygon fill="black" stroke="black" points="594.5,-594.815 591,-584.815 587.5,-594.815 594.5,-594.815"/>
</g>
<!-- Node0x8814f730 -->
<g id="node7" class="node"><title>Node0x8814f730</title>
<polygon fill="none" stroke="black" points="312.5,-443.5 312.5,-496.5 599.5,-496.5 599.5,-443.5 312.5,-443.5"/>
<text text-anchor="start" x="320.5" y="-481.3" font-family="Times,serif" font-size="14.00">0x4158cb:</text>
<text text-anchor="start" x="320.5" y="-466.3" font-family="Times,serif" font-size="14.00"> v3[&#39;7&#39;] = 3</text>
<text text-anchor="start" x="320.5" y="-451.3" font-family="Times,serif" font-size="14.00"> v3[&#39;2&#39;] = IntToPtrCastExpr&lt;ptr&gt;(v8)</text>
</g>
<!-- Node0x8814ed10&#45;&gt;Node0x8814f730 -->
<g id="edge7" class="edge"><title>Node0x8814ed10&#45;&gt;Node0x8814f730</title>
<path fill="none" stroke="black" d="M566.553,-548.387C548.226,-535.558 522.634,-517.644 500.687,-502.281"/>
<polygon fill="black" stroke="black" points="502.677,-499.401 492.477,-496.534 498.663,-505.136 502.677,-499.401"/>
<text text-anchor="middle" x="571.5" y="-518.8" font-family="Times,serif" font-size="14.00">v8 != g5</text>
</g>
<!-- Node0x8814f030 -->
<g id="node8" class="node"><title>Node0x8814f030</title>
<polygon fill="none" stroke="black" points="444.5,-367.5 444.5,-405.5 725.5,-405.5 725.5,-367.5 444.5,-367.5"/>
<text text-anchor="start" x="452.5" y="-390.3" font-family="Times,serif" font-size="14.00">v9 = PtrToIntCastExpr&lt;int32&gt;(a10)</text>
<text text-anchor="start" x="452.5" y="-375.3" font-family="Times,serif" font-size="14.00"> g8 = v9</text>
</g>
<!-- Node0x8814ed10&#45;&gt;Node0x8814f030 -->
<g id="edge8" class="edge"><title>Node0x8814ed10&#45;&gt;Node0x8814f030</title>
<path fill="none" stroke="black" d="M600.395,-548.283C603.034,-542.623 605.571,-536.192 607,-530 609.709,-518.264 609.061,-448.334 608,-443 606.122,-433.561 602.609,-423.716 598.885,-414.984"/>
<polygon fill="black" stroke="black" points="601.983,-413.341 594.665,-405.679 595.608,-416.232 601.983,-413.341"/>
<text text-anchor="middle" x="643.5" y="-466.3" font-family="Times,serif" font-size="14.00">v8 == g5</text>
</g>
<!-- Node0x8814f730&#45;&gt;Node0x8814f030 -->
<g id="edge9" class="edge"><title>Node0x8814f730&#45;&gt;Node0x8814f030</title>
<path fill="none" stroke="black" d="M496.462,-443.437C512.797,-433.117 531.531,-421.281 547.548,-411.162"/>
<polygon fill="black" stroke="black" points="549.549,-414.037 556.134,-405.737 545.81,-408.119 549.549,-414.037"/>
</g>
<!-- Node0x8814eae0 -->
<g id="node9" class="node"><title>Node0x8814eae0</title>
<polygon fill="none" stroke="black" points="531,-293.5 531,-329.5 639,-329.5 639,-293.5 531,-293.5"/>
<text text-anchor="start" x="539" y="-307.8" font-family="Times,serif" font-size="14.00">if (v9 != g5):</text>
</g>
<!-- Node0x8814f030&#45;&gt;Node0x8814eae0 -->
<g id="edge10" class="edge"><title>Node0x8814f030&#45;&gt;Node0x8814eae0</title>
<path fill="none" stroke="black" d="M585,-367.455C585,-359.201 585,-349.238 585,-340.074"/>
<polygon fill="black" stroke="black" points="588.5,-339.835 585,-329.835 581.5,-339.835 588.5,-339.835"/>
</g>
<!-- Node0x8814f890 -->
<g id="node10" class="node"><title>Node0x8814f890</title>
<polygon fill="none" stroke="black" points="306,-188.5 306,-241.5 594,-241.5 594,-188.5 306,-188.5"/>
<text text-anchor="start" x="314" y="-226.3" font-family="Times,serif" font-size="14.00">0x4158dc:</text>
<text text-anchor="start" x="314" y="-211.3" font-family="Times,serif" font-size="14.00"> v3[&#39;7&#39;] = (v3[&#39;7&#39;] | 4)</text>
<text text-anchor="start" x="314" y="-196.3" font-family="Times,serif" font-size="14.00"> v3[&#39;3&#39;] = IntToPtrCastExpr&lt;ptr&gt;(g8)</text>
</g>
<!-- Node0x8814eae0&#45;&gt;Node0x8814f890 -->
<g id="edge11" class="edge"><title>Node0x8814eae0&#45;&gt;Node0x8814f890</title>
<path fill="none" stroke="black" d="M560.553,-293.387C542.226,-280.558 516.634,-262.644 494.687,-247.281"/>
<polygon fill="black" stroke="black" points="496.677,-244.401 486.477,-241.534 492.663,-250.136 496.677,-244.401"/>
<text text-anchor="middle" x="565.5" y="-263.8" font-family="Times,serif" font-size="14.00">v9 != g5</text>
</g>
<!-- Node0x8814f0c0 -->
<g id="node11" class="node"><title>Node0x8814f0c0</title>
<polygon fill="none" stroke="black" points="435,-97.5 435,-150.5 723,-150.5 723,-97.5 435,-97.5"/>
<text text-anchor="start" x="443" y="-135.3" font-family="Times,serif" font-size="14.00">0x4158e3:</text>
<text text-anchor="start" x="443" y="-120.3" font-family="Times,serif" font-size="14.00"> g3 = v1</text>
<text text-anchor="start" x="443" y="-105.3" font-family="Times,serif" font-size="14.00"> return PtrToIntCastExpr&lt;int32&gt;(v3)</text>
</g>
<!-- Node0x8814eae0&#45;&gt;Node0x8814f0c0 -->
<g id="edge12" class="edge"><title>Node0x8814eae0&#45;&gt;Node0x8814f0c0</title>
<path fill="none" stroke="black" d="M594.283,-293.256C596.916,-287.595 599.477,-281.169 601,-275 610.268,-237.45 610,-226.038 603,-188 601.289,-178.701 598.268,-168.998 594.934,-160.071"/>
<polygon fill="black" stroke="black" points="598.177,-158.754 591.241,-150.745 591.669,-161.332 598.177,-158.754"/>
<text text-anchor="middle" x="643.5" y="-211.3" font-family="Times,serif" font-size="14.00">v9 == g5</text>
</g>
<!-- Node0x8814f890&#45;&gt;Node0x8814f0c0 -->
<g id="edge13" class="edge"><title>Node0x8814f890&#45;&gt;Node0x8814f0c0</title>
<path fill="none" stroke="black" d="M486.966,-188.496C501.54,-178.441 518.423,-166.794 533.719,-156.241"/>
<polygon fill="black" stroke="black" points="535.785,-159.067 542.028,-150.508 531.81,-153.306 535.785,-159.067"/>
</g>
<!-- Node0x1ee32860 -->
<g id="node12" class="node"><title>Node0x1ee32860</title>
<polygon fill="none" stroke="black" points="552,-23.5 552,-59.5 606,-59.5 606,-23.5 552,-23.5"/>
<text text-anchor="start" x="560" y="-37.8" font-family="Times,serif" font-size="14.00">exit:</text>
</g>
<!-- Node0x8814f0c0&#45;&gt;Node0x1ee32860 -->
<g id="edge14" class="edge"><title>Node0x8814f0c0&#45;&gt;Node0x1ee32860</title>
<path fill="none" stroke="black" d="M579,-97.0862C579,-88.4596 579,-78.8224 579,-70.0748"/>
<polygon fill="black" stroke="black" points="582.5,-69.9735 579,-59.9735 575.5,-69.9735 582.5,-69.9735"/>
</g>
</g>
</svg>
