<?xml version="1.0" encoding="UTF-8" standalone="no"?>
<!DOCTYPE svg PUBLIC "-//W3C//DTD SVG 1.1//EN"
 "http://www.w3.org/Graphics/SVG/1.1/DTD/svg11.dtd">
<!-- Generated by graphviz version 2.38.0 (20140413.2041)
 -->
<!-- Title: Control&#45;flow graph for function &#39;function_40f611(*a1)&#39;. Pages: 1 -->
<svg width="594pt" height="1032pt"
 viewBox="0.00 0.00 594.00 1032.00" xmlns="http://www.w3.org/2000/svg" xmlns:xlink="http://www.w3.org/1999/xlink">
<g id="graph0" class="graph" transform="scale(1 1) rotate(0) translate(4 1028)">
<title>Control&#45;flow graph for function &#39;function_40f611(*a1)&#39;.</title>
<polygon fill="white" stroke="none" points="-4,4 -4,-1028 590,-1028 590,4 -4,4"/>
<text text-anchor="middle" x="293" y="-7.8" font-family="Times,serif" font-size="14.00">Control&#45;flow graph for function &#39;function_40f611(*a1)&#39;.</text>
<!-- Node0x28a15bf0 -->
<g id="node1" class="node"><title>Node0x28a15bf0</title>
<polygon fill="none" stroke="black" points="263.5,-985.5 263.5,-1023.5 322.5,-1023.5 322.5,-985.5 263.5,-985.5"/>
<text text-anchor="start" x="271.5" y="-1008.3" font-family="Times,serif" font-size="14.00">entry:</text>
<text text-anchor="start" x="271.5" y="-993.3" font-family="Times,serif" font-size="14.00"> a1</text>
</g>
<!-- Node0x28a16160 -->
<g id="node2" class="node"><title>Node0x28a16160</title>
<polygon fill="none" stroke="black" points="0,-699.5 0,-947.5 586,-947.5 586,-699.5 0,-699.5"/>
<text text-anchor="start" x="8" y="-932.3" font-family="Times,serif" font-size="14.00">0x40f611:</text>
<text text-anchor="start" x="8" y="-917.3" font-family="Times,serif" font-size="14.00"> g2 = 4419203</text>
<text text-anchor="start" x="8" y="-902.3" font-family="Times,serif" font-size="14.00"> __EH_prolog3()</text>
<text text-anchor="start" x="8" y="-887.3" font-family="Times,serif" font-size="14.00"> v1 = g5</text>
<text text-anchor="start" x="8" y="-872.3" font-family="Times,serif" font-size="14.00"> g9 = v1</text>
<text text-anchor="start" x="8" y="-857.3" font-family="Times,serif" font-size="14.00"> *(IntToPtrCastExpr&lt;ptr&gt;((g3 &#45; 16))) = v1</text>
<text text-anchor="start" x="8" y="-842.3" font-family="Times,serif" font-size="14.00"> g2 = 0</text>
<text text-anchor="start" x="8" y="-827.3" font-family="Times,serif" font-size="14.00"> *(IntToPtrCastExpr&lt;ptr&gt;((g9 + 4))) = 0</text>
<text text-anchor="start" x="8" y="-812.3" font-family="Times,serif" font-size="14.00"> *(IntToPtrCastExpr&lt;ptr&gt;((g9 + 8))) = g2</text>
<text text-anchor="start" x="8" y="-797.3" font-family="Times,serif" font-size="14.00"> *(IntToPtrCastExpr&lt;ptr&gt;((g9 + 12))) = g2</text>
<text text-anchor="start" x="8" y="-782.3" font-family="Times,serif" font-size="14.00"> v2 = g3</text>
<text text-anchor="start" x="8" y="-767.3" font-family="Times,serif" font-size="14.00"> v3 = *(IntToPtrCastExpr&lt;ptr&gt;((v2 + 8)))</text>
<text text-anchor="start" x="8" y="-752.3" font-family="Times,serif" font-size="14.00"> v4 = g2</text>
<text text-anchor="start" x="8" y="-737.3" font-family="Times,serif" font-size="14.00"> *(IntToPtrCastExpr&lt;ptr&gt;((v2 &#45; 4))) = v4</text>
<text text-anchor="start" x="8" y="-722.3" font-family="Times,serif" font-size="14.00"> *(IntToPtrCastExpr&lt;ptr&gt;(g9)) = PtrToIntCastExpr&lt;int32&gt;(&amp;(vtable_43af84))</text>
<text text-anchor="start" x="8" y="-707.3" font-family="Times,serif" font-size="14.00"> hWnd</text>
</g>
<!-- Node0x28a15bf0&#45;&gt;Node0x28a16160 -->
<g id="edge1" class="edge"><title>Node0x28a15bf0&#45;&gt;Node0x28a16160</title>
<path fill="none" stroke="black" d="M293,-985.351C293,-977.875 293,-968.514 293,-958.088"/>
<polygon fill="black" stroke="black" points="296.5,-957.794 293,-947.794 289.5,-957.794 296.5,-957.794"/>
</g>
<!-- Node0x28a14800 -->
<g id="node3" class="node"><title>Node0x28a14800</title>
<polygon fill="none" stroke="black" points="236.5,-623.5 236.5,-661.5 349.5,-661.5 349.5,-623.5 236.5,-623.5"/>
<text text-anchor="start" x="244.5" y="-646.3" font-family="Times,serif" font-size="14.00">if (v3 == v4):</text>
<text text-anchor="start" x="244.5" y="-631.3" font-family="Times,serif" font-size="14.00"> else:</text>
</g>
<!-- Node0x28a16160&#45;&gt;Node0x28a14800 -->
<g id="edge2" class="edge"><title>Node0x28a16160&#45;&gt;Node0x28a14800</title>
<path fill="none" stroke="black" d="M293,-699.156C293,-689.164 293,-679.832 293,-671.772"/>
<polygon fill="black" stroke="black" points="296.5,-671.628 293,-661.628 289.5,-671.628 296.5,-671.628"/>
</g>
<!-- Node0x28a17bb0 -->
<g id="node4" class="node"><title>Node0x28a17bb0</title>
<polygon fill="none" stroke="black" points="127,-526 127,-564 229,-564 229,-526 127,-526"/>
<text text-anchor="start" x="135" y="-548.8" font-family="Times,serif" font-size="14.00">0x40f611:</text>
<text text-anchor="start" x="135" y="-533.8" font-family="Times,serif" font-size="14.00"> hWnd = g2</text>
</g>
<!-- Node0x28a14800&#45;&gt;Node0x28a17bb0 -->
<g id="edge3" class="edge"><title>Node0x28a14800&#45;&gt;Node0x28a17bb0</title>
<path fill="none" stroke="black" d="M271.099,-623.312C253.114,-608.377 227.468,-587.08 207.646,-570.619"/>
<polygon fill="black" stroke="black" points="209.749,-567.816 199.82,-564.12 205.277,-573.201 209.749,-567.816"/>
<text text-anchor="middle" x="280" y="-593.8" font-family="Times,serif" font-size="14.00">v3 == v4</text>
</g>
<!-- Node0x28a17c90 -->
<g id="node5" class="node"><title>Node0x28a17c90</title>
<polygon fill="none" stroke="black" points="247.5,-518.5 247.5,-571.5 570.5,-571.5 570.5,-518.5 247.5,-518.5"/>
<text text-anchor="start" x="255.5" y="-556.3" font-family="Times,serif" font-size="14.00">v5 = *(IntToPtrCastExpr&lt;ptr&gt;((v3 + 32)))</text>
<text text-anchor="start" x="255.5" y="-541.3" font-family="Times,serif" font-size="14.00"> g2 = v5</text>
<text text-anchor="start" x="255.5" y="-526.3" font-family="Times,serif" font-size="14.00"> hWnd = v5</text>
</g>
<!-- Node0x28a14800&#45;&gt;Node0x28a17c90 -->
<g id="edge4" class="edge"><title>Node0x28a14800&#45;&gt;Node0x28a17c90</title>
<path fill="none" stroke="black" d="M315.092,-623.312C330.483,-610.641 351.436,-593.391 369.645,-578.4"/>
<polygon fill="black" stroke="black" points="372.293,-580.753 377.789,-571.695 367.844,-575.349 372.293,-580.753"/>
<text text-anchor="middle" x="386" y="-593.8" font-family="Times,serif" font-size="14.00">v3 != v4</text>
</g>
<!-- Node0x28a17640 -->
<g id="node6" class="node"><title>Node0x28a17640</title>
<polygon fill="none" stroke="black" points="75,-352.5 75,-480.5 563,-480.5 563,-352.5 75,-352.5"/>
<text text-anchor="start" x="83" y="-465.3" font-family="Times,serif" font-size="14.00">0x40f640:</text>
<text text-anchor="start" x="83" y="-450.3" font-family="Times,serif" font-size="14.00"> *(IntToPtrCastExpr&lt;ptr&gt;((g9 + 16))) = hWnd</text>
<text text-anchor="start" x="83" y="-435.3" font-family="Times,serif" font-size="14.00"> v6 = GetDC(BitCastExpr&lt;ptr&gt;(IntToPtrCastExpr&lt;ptr&gt;(hWnd)))</text>
<text text-anchor="start" x="83" y="-420.3" font-family="Times,serif" font-size="14.00"> g5 = g9</text>
<text text-anchor="start" x="83" y="-405.3" font-family="Times,serif" font-size="14.00"> v7</text>
<text text-anchor="start" x="83" y="-390.3" font-family="Times,serif" font-size="14.00"> v8 = function_40f594(BitCastExpr&lt;ptr&gt;(v6), v7)</text>
<text text-anchor="start" x="83" y="-375.3" font-family="Times,serif" font-size="14.00"> g1 = False</text>
<text text-anchor="start" x="83" y="-360.3" font-family="Times,serif" font-size="14.00"> g180 = (v8 == 0)</text>
</g>
<!-- Node0x28a17bb0&#45;&gt;Node0x28a17640 -->
<g id="edge5" class="edge"><title>Node0x28a17bb0&#45;&gt;Node0x28a17640</title>
<path fill="none" stroke="black" d="M198.202,-525.876C209.719,-515.543 224.974,-501.857 240.752,-487.701"/>
<polygon fill="black" stroke="black" points="243.42,-490.01 248.526,-480.727 238.745,-484.8 243.42,-490.01"/>
</g>
<!-- Node0x28a17c90&#45;&gt;Node0x28a17640 -->
<g id="edge6" class="edge"><title>Node0x28a17c90&#45;&gt;Node0x28a17640</title>
<path fill="none" stroke="black" d="M390.787,-518.401C384.627,-509.742 377.413,-499.603 369.978,-489.152"/>
<polygon fill="black" stroke="black" points="372.633,-486.846 363.984,-480.727 366.929,-490.904 372.633,-486.846"/>
</g>
<!-- Node0x28a17850 -->
<g id="node7" class="node"><title>Node0x28a17850</title>
<polygon fill="none" stroke="black" points="266.5,-278.5 266.5,-314.5 371.5,-314.5 371.5,-278.5 266.5,-278.5"/>
<text text-anchor="start" x="274.5" y="-292.8" font-family="Times,serif" font-size="14.00">if (v8 == 0):</text>
</g>
<!-- Node0x28a17640&#45;&gt;Node0x28a17850 -->
<g id="edge7" class="edge"><title>Node0x28a17640&#45;&gt;Node0x28a17850</title>
<path fill="none" stroke="black" d="M319,-352.355C319,-342.753 319,-333.299 319,-325.016"/>
<polygon fill="black" stroke="black" points="322.5,-324.887 319,-314.888 315.5,-324.888 322.5,-324.887"/>
</g>
<!-- Node0x28a176a0 -->
<g id="node8" class="node"><title>Node0x28a176a0</title>
<polygon fill="none" stroke="black" points="19.5,-188.5 19.5,-226.5 330.5,-226.5 330.5,-188.5 19.5,-188.5"/>
<text text-anchor="start" x="27.5" y="-211.3" font-family="Times,serif" font-size="14.00">0x40f656:</text>
<text text-anchor="start" x="27.5" y="-196.3" font-family="Times,serif" font-size="14.00"> function_40f018(BitCastExpr&lt;ptr&gt;(v6))</text>
</g>
<!-- Node0x28a17850&#45;&gt;Node0x28a176a0 -->
<g id="edge8" class="edge"><title>Node0x28a17850&#45;&gt;Node0x28a176a0</title>
<path fill="none" stroke="black" d="M290.55,-278.312C268.504,-264.992 237.733,-246.401 213.487,-231.753"/>
<polygon fill="black" stroke="black" points="215.247,-228.727 204.878,-226.551 211.627,-234.718 215.247,-228.727"/>
<text text-anchor="middle" x="290" y="-248.8" font-family="Times,serif" font-size="14.00">v8 == 0</text>
</g>
<!-- Node0x28a17b50 -->
<g id="node9" class="node"><title>Node0x28a17b50</title>
<polygon fill="none" stroke="black" points="248,-97.5 248,-150.5 378,-150.5 378,-97.5 248,-97.5"/>
<text text-anchor="start" x="256" y="-135.3" font-family="Times,serif" font-size="14.00">0x40f65b:</text>
<text text-anchor="start" x="256" y="-120.3" font-family="Times,serif" font-size="14.00"> __EH_epilog3()</text>
<text text-anchor="start" x="256" y="-105.3" font-family="Times,serif" font-size="14.00"> return g9</text>
</g>
<!-- Node0x28a17850&#45;&gt;Node0x28a17b50 -->
<g id="edge9" class="edge"><title>Node0x28a17850&#45;&gt;Node0x28a17b50</title>
<path fill="none" stroke="black" d="M326.238,-278.347C334.268,-257.11 345.312,-219.842 339,-188 337.141,-178.624 333.867,-168.892 330.255,-159.963"/>
<polygon fill="black" stroke="black" points="333.415,-158.452 326.254,-150.643 326.983,-161.213 333.415,-158.452"/>
<text text-anchor="middle" x="368" y="-203.8" font-family="Times,serif" font-size="14.00">v8 != 0</text>
</g>
<!-- Node0x28a176a0&#45;&gt;Node0x28a17b50 -->
<g id="edge10" class="edge"><title>Node0x28a176a0&#45;&gt;Node0x28a17b50</title>
<path fill="none" stroke="black" d="M205.627,-188.413C221.873,-178.818 242.281,-166.765 260.93,-155.751"/>
<polygon fill="black" stroke="black" points="262.804,-158.71 269.635,-150.611 259.244,-152.682 262.804,-158.71"/>
</g>
<!-- Node0x28a171f0 -->
<g id="node10" class="node"><title>Node0x28a171f0</title>
<polygon fill="none" stroke="black" points="286,-23.5 286,-59.5 340,-59.5 340,-23.5 286,-23.5"/>
<text text-anchor="start" x="294" y="-37.8" font-family="Times,serif" font-size="14.00">exit:</text>
</g>
<!-- Node0x28a17b50&#45;&gt;Node0x28a171f0 -->
<g id="edge11" class="edge"><title>Node0x28a17b50&#45;&gt;Node0x28a171f0</title>
<path fill="none" stroke="black" d="M313,-97.0862C313,-88.4596 313,-78.8224 313,-70.0748"/>
<polygon fill="black" stroke="black" points="316.5,-69.9735 313,-59.9735 309.5,-69.9735 316.5,-69.9735"/>
</g>
</g>
</svg>
