<?xml version="1.0" encoding="UTF-8" standalone="no"?>
<!DOCTYPE svg PUBLIC "-//W3C//DTD SVG 1.1//EN"
 "http://www.w3.org/Graphics/SVG/1.1/DTD/svg11.dtd">
<!-- Generated by graphviz version 2.38.0 (20140413.2041)
 -->
<!-- Title: Control&#45;flow graph for function &#39;function_414450(*a1)&#39;. Pages: 1 -->
<svg width="454pt" height="233pt"
 viewBox="0.00 0.00 454.00 233.00" xmlns="http://www.w3.org/2000/svg" xmlns:xlink="http://www.w3.org/1999/xlink">
<g id="graph0" class="graph" transform="scale(1 1) rotate(0) translate(4 229)">
<title>Control&#45;flow graph for function &#39;function_414450(*a1)&#39;.</title>
<polygon fill="white" stroke="none" points="-4,4 -4,-229 450,-229 450,4 -4,4"/>
<text text-anchor="middle" x="223" y="-7.8" font-family="Times,serif" font-size="14.00">Control&#45;flow graph for function &#39;function_414450(*a1)&#39;.</text>
<!-- Node0x3953ed10 -->
<g id="node1" class="node"><title>Node0x3953ed10</title>
<polygon fill="none" stroke="black" points="193.5,-186.5 193.5,-224.5 252.5,-224.5 252.5,-186.5 193.5,-186.5"/>
<text text-anchor="start" x="201.5" y="-209.3" font-family="Times,serif" font-size="14.00">entry:</text>
<text text-anchor="start" x="201.5" y="-194.3" font-family="Times,serif" font-size="14.00"> a1</text>
</g>
<!-- Node0x39541f00 -->
<g id="node2" class="node"><title>Node0x39541f00</title>
<polygon fill="none" stroke="black" points="-2.84217e-14,-96.5 -2.84217e-14,-149.5 446,-149.5 446,-96.5 -2.84217e-14,-96.5"/>
<text text-anchor="start" x="8" y="-134.3" font-family="Times,serif" font-size="14.00">0x414450:</text>
<text text-anchor="start" x="8" y="-119.3" font-family="Times,serif" font-size="14.00"> g10 = (g10 + 4)</text>
<text text-anchor="start" x="8" y="-104.3" font-family="Times,serif" font-size="14.00"> return ExtCastExpr&lt;int32&gt;(*(IntToPtrCastExpr&lt;ptr&gt;(4)))</text>
</g>
<!-- Node0x3953ed10&#45;&gt;Node0x39541f00 -->
<g id="edge1" class="edge"><title>Node0x3953ed10&#45;&gt;Node0x39541f00</title>
<path fill="none" stroke="black" d="M223,-186.233C223,-178.347 223,-168.835 223,-159.648"/>
<polygon fill="black" stroke="black" points="226.5,-159.517 223,-149.517 219.5,-159.517 226.5,-159.517"/>
</g>
<!-- Node0x39541e80 -->
<g id="node3" class="node"><title>Node0x39541e80</title>
<polygon fill="none" stroke="black" points="196,-23.5 196,-59.5 250,-59.5 250,-23.5 196,-23.5"/>
<text text-anchor="start" x="204" y="-37.8" font-family="Times,serif" font-size="14.00">exit:</text>
</g>
<!-- Node0x39541f00&#45;&gt;Node0x39541e80 -->
<g id="edge2" class="edge"><title>Node0x39541f00&#45;&gt;Node0x39541e80</title>
<path fill="none" stroke="black" d="M223,-96.4081C223,-87.9823 223,-78.5803 223,-70.0174"/>
<polygon fill="black" stroke="black" points="226.5,-69.7564 223,-59.7564 219.5,-69.7565 226.5,-69.7564"/>
</g>
</g>
</svg>
