<?xml version="1.0" encoding="UTF-8" standalone="no"?>
<!DOCTYPE svg PUBLIC "-//W3C//DTD SVG 1.1//EN"
 "http://www.w3.org/Graphics/SVG/1.1/DTD/svg11.dtd">
<!-- Generated by graphviz version 2.38.0 (20140413.2041)
 -->
<!-- Title: Control&#45;flow graph for function &#39;function_40f783(a1)&#39;. Pages: 1 -->
<svg width="800pt" height="473pt"
 viewBox="0.00 0.00 800.00 473.00" xmlns="http://www.w3.org/2000/svg" xmlns:xlink="http://www.w3.org/1999/xlink">
<g id="graph0" class="graph" transform="scale(1 1) rotate(0) translate(4 469)">
<title>Control&#45;flow graph for function &#39;function_40f783(a1)&#39;.</title>
<polygon fill="white" stroke="none" points="-4,4 -4,-469 796,-469 796,4 -4,4"/>
<text text-anchor="middle" x="396" y="-7.8" font-family="Times,serif" font-size="14.00">Control&#45;flow graph for function &#39;function_40f783(a1)&#39;.</text>
<!-- Node0x28a1a750 -->
<g id="node1" class="node"><title>Node0x28a1a750</title>
<polygon fill="none" stroke="black" points="366.5,-426.5 366.5,-464.5 425.5,-464.5 425.5,-426.5 366.5,-426.5"/>
<text text-anchor="start" x="374.5" y="-449.3" font-family="Times,serif" font-size="14.00">entry:</text>
<text text-anchor="start" x="374.5" y="-434.3" font-family="Times,serif" font-size="14.00"> a1</text>
</g>
<!-- Node0x28a1a180 -->
<g id="node2" class="node"><title>Node0x28a1a180</title>
<polygon fill="none" stroke="black" points="0,-96.5 0,-389.5 792,-389.5 792,-96.5 0,-96.5"/>
<text text-anchor="start" x="8" y="-374.3" font-family="Times,serif" font-size="14.00">g2 = 4419203</text>
<text text-anchor="start" x="8" y="-359.3" font-family="Times,serif" font-size="14.00"> __EH_prolog3()</text>
<text text-anchor="start" x="8" y="-344.3" font-family="Times,serif" font-size="14.00"> v1 = g5</text>
<text text-anchor="start" x="8" y="-329.3" font-family="Times,serif" font-size="14.00"> g9 = v1</text>
<text text-anchor="start" x="8" y="-314.3" font-family="Times,serif" font-size="14.00"> *(IntToPtrCastExpr&lt;ptr&gt;((g3 &#45; 16))) = v1</text>
<text text-anchor="start" x="8" y="-299.3" font-family="Times,serif" font-size="14.00"> *(IntToPtrCastExpr&lt;ptr&gt;(g9)) = PtrToIntCastExpr&lt;int32&gt;(&amp;(vtable_43b084))</text>
<text text-anchor="start" x="8" y="-284.3" font-family="Times,serif" font-size="14.00"> *(IntToPtrCastExpr&lt;ptr&gt;((g3 &#45; 4))) = 0</text>
<text text-anchor="start" x="8" y="-269.3" font-family="Times,serif" font-size="14.00"> v2 = g9</text>
<text text-anchor="start" x="8" y="-254.3" font-family="Times,serif" font-size="14.00"> lpPaint = (v2 + 20)</text>
<text text-anchor="start" x="8" y="-239.3" font-family="Times,serif" font-size="14.00"> g2 = lpPaint</text>
<text text-anchor="start" x="8" y="-224.3" font-family="Times,serif" font-size="14.00"> EndPaint(IntToPtrCastExpr&lt;ptr&gt;(*(IntToPtrCastExpr&lt;ptr&gt;((v2 + 16)))), IntToPtrCastExpr&lt;ptr&gt;(lpPaint))</text>
<text text-anchor="start" x="8" y="-209.3" font-family="Times,serif" font-size="14.00"> g5 = g9</text>
<text text-anchor="start" x="8" y="-194.3" font-family="Times,serif" font-size="14.00"> v3</text>
<text text-anchor="start" x="8" y="-179.3" font-family="Times,serif" font-size="14.00"> function_40f5c7(&amp;(v3))</text>
<text text-anchor="start" x="8" y="-164.3" font-family="Times,serif" font-size="14.00"> *(IntToPtrCastExpr&lt;ptr&gt;((g3 &#45; 4))) = &#45;1</text>
<text text-anchor="start" x="8" y="-149.3" font-family="Times,serif" font-size="14.00"> g5 = g9</text>
<text text-anchor="start" x="8" y="-134.3" font-family="Times,serif" font-size="14.00"> v4 = function_40f5f8(&amp;(v3))</text>
<text text-anchor="start" x="8" y="-119.3" font-family="Times,serif" font-size="14.00"> __EH_epilog3()</text>
<text text-anchor="start" x="8" y="-104.3" font-family="Times,serif" font-size="14.00"> return ((PtrToIntCastExpr&lt;int32&gt;(v4) &amp; 1) != 0)</text>
</g>
<!-- Node0x28a1a750&#45;&gt;Node0x28a1a180 -->
<g id="edge1" class="edge"><title>Node0x28a1a750&#45;&gt;Node0x28a1a180</title>
<path fill="none" stroke="black" d="M396,-426.353C396,-419.121 396,-410.093 396,-399.951"/>
<polygon fill="black" stroke="black" points="399.5,-399.908 396,-389.908 392.5,-399.908 399.5,-399.908"/>
</g>
<!-- Node0x28a1ab90 -->
<g id="node3" class="node"><title>Node0x28a1ab90</title>
<polygon fill="none" stroke="black" points="369,-23.5 369,-59.5 423,-59.5 423,-23.5 369,-23.5"/>
<text text-anchor="start" x="377" y="-37.8" font-family="Times,serif" font-size="14.00">exit:</text>
</g>
<!-- Node0x28a1a180&#45;&gt;Node0x28a1ab90 -->
<g id="edge2" class="edge"><title>Node0x28a1a180&#45;&gt;Node0x28a1ab90</title>
<path fill="none" stroke="black" d="M396,-96.4876C396,-86.7125 396,-77.686 396,-69.9233"/>
<polygon fill="black" stroke="black" points="399.5,-69.8444 396,-59.8445 392.5,-69.8445 399.5,-69.8444"/>
</g>
</g>
</svg>
