<?xml version="1.0" encoding="UTF-8" standalone="no"?>
<!DOCTYPE svg PUBLIC "-//W3C//DTD SVG 1.1//EN"
 "http://www.w3.org/Graphics/SVG/1.1/DTD/svg11.dtd">
<!-- Generated by graphviz version 2.38.0 (20140413.2041)
 -->
<!-- Title: Control&#45;flow graph for function &#39;function_414b8f()&#39;. Pages: 1 -->
<svg width="868pt" height="1559pt"
 viewBox="0.00 0.00 867.50 1559.00" xmlns="http://www.w3.org/2000/svg" xmlns:xlink="http://www.w3.org/1999/xlink">
<g id="graph0" class="graph" transform="scale(1 1) rotate(0) translate(4 1555)">
<title>Control&#45;flow graph for function &#39;function_414b8f()&#39;.</title>
<polygon fill="white" stroke="none" points="-4,4 -4,-1555 863.5,-1555 863.5,4 -4,4"/>
<text text-anchor="middle" x="429.75" y="-7.8" font-family="Times,serif" font-size="14.00">Control&#45;flow graph for function &#39;function_414b8f()&#39;.</text>
<!-- Node0x39d0fb70 -->
<g id="node1" class="node"><title>Node0x39d0fb70</title>
<polygon fill="none" stroke="black" points="429,-1514.5 429,-1550.5 488,-1550.5 488,-1514.5 429,-1514.5"/>
<text text-anchor="start" x="437" y="-1528.8" font-family="Times,serif" font-size="14.00">entry:</text>
</g>
<!-- Node0x39d1a140 -->
<g id="node2" class="node"><title>Node0x39d1a140</title>
<polygon fill="none" stroke="black" points="290,-1303.5 290,-1476.5 627,-1476.5 627,-1303.5 290,-1303.5"/>
<text text-anchor="start" x="298" y="-1461.3" font-family="Times,serif" font-size="14.00">v1</text>
<text text-anchor="start" x="298" y="-1446.3" font-family="Times,serif" font-size="14.00"> g3 = &amp;(v1)</text>
<text text-anchor="start" x="298" y="-1431.3" font-family="Times,serif" font-size="14.00"> v2 = g5</text>
<text text-anchor="start" x="298" y="-1416.3" font-family="Times,serif" font-size="14.00"> v3 = IntToPtrCastExpr&lt;ptr&gt;(v2)</text>
<text text-anchor="start" x="298" y="-1401.3" font-family="Times,serif" font-size="14.00"> v4 = IntToPtrCastExpr&lt;ptr&gt;(g9)</text>
<text text-anchor="start" x="298" y="-1386.3" font-family="Times,serif" font-size="14.00"> g10 = PtrToIntCastExpr&lt;int32&gt;(&amp;(v4))</text>
<text text-anchor="start" x="298" y="-1371.3" font-family="Times,serif" font-size="14.00"> g9 = v2</text>
<text text-anchor="start" x="298" y="-1356.3" font-family="Times,serif" font-size="14.00"> v5 = *(IntToPtrCastExpr&lt;ptr&gt;((v2 + 112)))</text>
<text text-anchor="start" x="298" y="-1341.3" font-family="Times,serif" font-size="14.00"> g1 = False</text>
<text text-anchor="start" x="298" y="-1326.3" font-family="Times,serif" font-size="14.00"> g180 = ((v5 &amp; 16384) == 0)</text>
<text text-anchor="start" x="298" y="-1311.3" font-family="Times,serif" font-size="14.00"> v6 = v2</text>
</g>
<!-- Node0x39d0fb70&#45;&gt;Node0x39d1a140 -->
<g id="edge1" class="edge"><title>Node0x39d0fb70&#45;&gt;Node0x39d1a140</title>
<path fill="none" stroke="black" d="M458.5,-1514.27C458.5,-1506.72 458.5,-1497.21 458.5,-1486.85"/>
<polygon fill="black" stroke="black" points="462,-1486.68 458.5,-1476.68 455,-1486.68 462,-1486.68"/>
</g>
<!-- Node0x39d1a080 -->
<g id="node3" class="node"><title>Node0x39d1a080</title>
<polygon fill="none" stroke="black" points="388,-1229.5 388,-1265.5 529,-1265.5 529,-1229.5 388,-1229.5"/>
<text text-anchor="start" x="396" y="-1243.8" font-family="Times,serif" font-size="14.00">if (v5 == 16384):</text>
</g>
<!-- Node0x39d1a140&#45;&gt;Node0x39d1a080 -->
<g id="edge2" class="edge"><title>Node0x39d1a140&#45;&gt;Node0x39d1a080</title>
<path fill="none" stroke="black" d="M458.5,-1303.22C458.5,-1293.48 458.5,-1284.16 458.5,-1276.06"/>
<polygon fill="black" stroke="black" points="462,-1275.84 458.5,-1265.84 455,-1275.84 462,-1275.84"/>
</g>
<!-- Node0x39d19130 -->
<g id="node4" class="node"><title>Node0x39d19130</title>
<polygon fill="none" stroke="black" points="0,-1109.5 0,-1177.5 493,-1177.5 493,-1109.5 0,-1109.5"/>
<text text-anchor="start" x="8" y="-1162.3" font-family="Times,serif" font-size="14.00">v7 = *(IntToPtrCastExpr&lt;ptr&gt;(v2))</text>
<text text-anchor="start" x="8" y="-1147.3" font-family="Times,serif" font-size="14.00"> g2 = v7</text>
<text text-anchor="start" x="8" y="-1132.3" font-family="Times,serif" font-size="14.00"> IntToPtrCastExpr&lt;ptr&gt;(*(IntToPtrCastExpr&lt;ptr&gt;((v7 + 176))))()</text>
<text text-anchor="start" x="8" y="-1117.3" font-family="Times,serif" font-size="14.00"> v6 = g9</text>
</g>
<!-- Node0x39d1a080&#45;&gt;Node0x39d19130 -->
<g id="edge3" class="edge"><title>Node0x39d1a080&#45;&gt;Node0x39d19130</title>
<path fill="none" stroke="black" d="M423.016,-1229.43C396.188,-1216.52 358.33,-1198.31 324.551,-1182.05"/>
<polygon fill="black" stroke="black" points="325.673,-1178.71 315.144,-1177.53 322.638,-1185.02 325.673,-1178.71"/>
<text text-anchor="middle" x="432.5" y="-1199.8" font-family="Times,serif" font-size="14.00">v5 == 16384</text>
</g>
<!-- Node0x39d116b0 -->
<g id="node5" class="node"><title>Node0x39d116b0</title>
<polygon fill="none" stroke="black" points="288.5,-988.5 288.5,-1071.5 616.5,-1071.5 616.5,-988.5 288.5,-988.5"/>
<text text-anchor="start" x="296.5" y="-1056.3" font-family="Times,serif" font-size="14.00">0x414ba6:</text>
<text text-anchor="start" x="296.5" y="-1041.3" font-family="Times,serif" font-size="14.00"> v3 = NULL</text>
<text text-anchor="start" x="296.5" y="-1026.3" font-family="Times,serif" font-size="14.00"> v8 = *(IntToPtrCastExpr&lt;ptr&gt;((v6 + 80)))</text>
<text text-anchor="start" x="296.5" y="-1011.3" font-family="Times,serif" font-size="14.00"> g1 = False</text>
<text text-anchor="start" x="296.5" y="-996.3" font-family="Times,serif" font-size="14.00"> g180 = (v8 == 0)</text>
</g>
<!-- Node0x39d1a080&#45;&gt;Node0x39d116b0 -->
<g id="edge4" class="edge"><title>Node0x39d1a080&#45;&gt;Node0x39d116b0</title>
<path fill="none" stroke="black" d="M472.02,-1229.18C476.214,-1223.52 480.723,-1217.11 484.5,-1211 508.675,-1171.91 514.221,-1153.16 501.5,-1109 498.711,-1099.32 494.328,-1089.68 489.303,-1080.65"/>
<polygon fill="black" stroke="black" points="492.199,-1078.67 484.1,-1071.84 486.172,-1082.23 492.199,-1078.67"/>
<text text-anchor="middle" x="553.5" y="-1139.8" font-family="Times,serif" font-size="14.00">v5 != 16384</text>
</g>
<!-- Node0x39d19130&#45;&gt;Node0x39d116b0 -->
<g id="edge5" class="edge"><title>Node0x39d19130&#45;&gt;Node0x39d116b0</title>
<path fill="none" stroke="black" d="M307.471,-1109.5C326.59,-1099.15 348.041,-1087.54 368.463,-1076.49"/>
<polygon fill="black" stroke="black" points="370.322,-1079.46 377.45,-1071.62 366.99,-1073.3 370.322,-1079.46"/>
</g>
<!-- Node0x39d13d40 -->
<g id="node6" class="node"><title>Node0x39d13d40</title>
<polygon fill="none" stroke="black" points="400,-914.5 400,-950.5 505,-950.5 505,-914.5 400,-914.5"/>
<text text-anchor="start" x="408" y="-928.8" font-family="Times,serif" font-size="14.00">if (v8 == 0):</text>
</g>
<!-- Node0x39d116b0&#45;&gt;Node0x39d13d40 -->
<g id="edge6" class="edge"><title>Node0x39d116b0&#45;&gt;Node0x39d13d40</title>
<path fill="none" stroke="black" d="M452.5,-988.499C452.5,-979.206 452.5,-969.537 452.5,-960.946"/>
<polygon fill="black" stroke="black" points="456,-960.749 452.5,-950.749 449,-960.749 456,-960.749"/>
</g>
<!-- Node0x39d18fb0 -->
<g id="node7" class="node"><title>Node0x39d18fb0</title>
<polygon fill="none" stroke="black" points="286.5,-809.5 286.5,-862.5 454.5,-862.5 454.5,-809.5 286.5,-809.5"/>
<text text-anchor="start" x="294.5" y="-847.3" font-family="Times,serif" font-size="14.00">0x414bb0:</text>
<text text-anchor="start" x="294.5" y="-832.3" font-family="Times,serif" font-size="14.00"> function_40ede0(v4)</text>
<text text-anchor="start" x="294.5" y="-817.3" font-family="Times,serif" font-size="14.00"> v6 = g9</text>
</g>
<!-- Node0x39d13d40&#45;&gt;Node0x39d18fb0 -->
<g id="edge7" class="edge"><title>Node0x39d13d40&#45;&gt;Node0x39d18fb0</title>
<path fill="none" stroke="black" d="M434.087,-914.248C428.297,-908.587 421.986,-902.163 416.5,-896 409.367,-887.986 402.048,-879.001 395.406,-870.506"/>
<polygon fill="black" stroke="black" points="398.153,-868.338 389.273,-862.559 392.612,-872.614 398.153,-868.338"/>
<text text-anchor="middle" x="446.5" y="-884.8" font-family="Times,serif" font-size="14.00">v8 == 0</text>
</g>
<!-- Node0x39d18040 -->
<g id="node8" class="node"><title>Node0x39d18040</title>
<polygon fill="none" stroke="black" points="224,-628.5 224,-771.5 757,-771.5 757,-628.5 224,-628.5"/>
<text text-anchor="start" x="232" y="-756.3" font-family="Times,serif" font-size="14.00">v9 = *(IntToPtrCastExpr&lt;ptr&gt;((v6 + 80)))</text>
<text text-anchor="start" x="232" y="-741.3" font-family="Times,serif" font-size="14.00"> g9 = v9</text>
<text text-anchor="start" x="232" y="-726.3" font-family="Times,serif" font-size="14.00"> v10 = *(IntToPtrCastExpr&lt;ptr&gt;(v9))</text>
<text text-anchor="start" x="232" y="-711.3" font-family="Times,serif" font-size="14.00"> g2 = v10</text>
<text text-anchor="start" x="232" y="-696.3" font-family="Times,serif" font-size="14.00"> g5 = PtrToIntCastExpr&lt;int32&gt;(&amp;(v3))</text>
<text text-anchor="start" x="232" y="-681.3" font-family="Times,serif" font-size="14.00"> v11 = 4448500</text>
<text text-anchor="start" x="232" y="-666.3" font-family="Times,serif" font-size="14.00"> IntToPtrCastExpr&lt;ptr&gt;(*(IntToPtrCastExpr&lt;ptr&gt;(v10)))(v9, 4448500)</text>
<text text-anchor="start" x="232" y="-651.3" font-family="Times,serif" font-size="14.00"> g9 = v9</text>
<text text-anchor="start" x="232" y="-636.3" font-family="Times,serif" font-size="14.00"> g10 = &amp;(v11)</text>
</g>
<!-- Node0x39d13d40&#45;&gt;Node0x39d18040 -->
<g id="edge8" class="edge"><title>Node0x39d13d40&#45;&gt;Node0x39d18040</title>
<path fill="none" stroke="black" d="M466.674,-914.423C470.533,-908.872 474.262,-902.468 476.5,-896 488.974,-859.945 493.192,-817.958 494.001,-782.199"/>
<polygon fill="black" stroke="black" points="497.506,-781.851 494.145,-771.803 490.507,-781.754 497.506,-781.851"/>
<text text-anchor="middle" x="520.5" y="-832.3" font-family="Times,serif" font-size="14.00">v8 != 0</text>
</g>
<!-- Node0x39d18fb0&#45;&gt;Node0x39d18040 -->
<g id="edge9" class="edge"><title>Node0x39d18fb0&#45;&gt;Node0x39d18040</title>
<path fill="none" stroke="black" d="M393.354,-809.48C401.31,-800.596 410.703,-790.107 420.46,-779.211"/>
<polygon fill="black" stroke="black" points="423.197,-781.402 427.26,-771.618 417.982,-776.732 423.197,-781.402"/>
</g>
<!-- Node0x39d180a0 -->
<g id="node9" class="node"><title>Node0x39d180a0</title>
<polygon fill="none" stroke="black" points="489.5,-554.5 489.5,-590.5 583.5,-590.5 583.5,-554.5 489.5,-554.5"/>
<text text-anchor="start" x="497.5" y="-568.8" font-family="Times,serif" font-size="14.00">if (g2 &lt; 0):</text>
</g>
<!-- Node0x39d18040&#45;&gt;Node0x39d180a0 -->
<g id="edge10" class="edge"><title>Node0x39d18040&#45;&gt;Node0x39d180a0</title>
<path fill="none" stroke="black" d="M516.458,-628.181C520.109,-618.22 523.659,-608.535 526.731,-600.152"/>
<polygon fill="black" stroke="black" points="530.062,-601.236 530.217,-590.642 523.489,-598.827 530.062,-601.236"/>
</g>
<!-- Node0x39d195d0 -->
<g id="node10" class="node"><title>Node0x39d195d0</title>
<polygon fill="none" stroke="black" points="767.5,-362.5 767.5,-415.5 859.5,-415.5 859.5,-362.5 767.5,-362.5"/>
<text text-anchor="start" x="775.5" y="-400.3" font-family="Times,serif" font-size="14.00">0x414be4:</text>
<text text-anchor="start" x="775.5" y="-385.3" font-family="Times,serif" font-size="14.00"> g3 = v1</text>
<text text-anchor="start" x="775.5" y="-370.3" font-family="Times,serif" font-size="14.00"> return</text>
</g>
<!-- Node0x39d180a0&#45;&gt;Node0x39d195d0 -->
<g id="edge11" class="edge"><title>Node0x39d180a0&#45;&gt;Node0x39d195d0</title>
<path fill="none" stroke="black" d="M582.634,-554.382C613.026,-542.137 653.05,-524.125 685.5,-503 721.071,-479.843 756.895,-447.239 781.56,-423.001"/>
<polygon fill="black" stroke="black" points="784.215,-425.297 788.844,-415.767 779.282,-420.33 784.215,-425.297"/>
<text text-anchor="middle" x="677" y="-524.8" font-family="Times,serif" font-size="14.00">g2 &lt; 0</text>
</g>
<!-- Node0x39d18c00 -->
<g id="node11" class="node"><title>Node0x39d18c00</title>
<polygon fill="none" stroke="black" points="396,-434.5 396,-502.5 677,-502.5 677,-434.5 396,-434.5"/>
<text text-anchor="start" x="404" y="-487.3" font-family="Times,serif" font-size="14.00">v12 = PtrToIntCastExpr&lt;int32&gt;(v3)</text>
<text text-anchor="start" x="404" y="-472.3" font-family="Times,serif" font-size="14.00"> g2 = v12</text>
<text text-anchor="start" x="404" y="-457.3" font-family="Times,serif" font-size="14.00"> g1 = False</text>
<text text-anchor="start" x="404" y="-442.3" font-family="Times,serif" font-size="14.00"> g180 = (v3 == NULL)</text>
</g>
<!-- Node0x39d180a0&#45;&gt;Node0x39d18c00 -->
<g id="edge12" class="edge"><title>Node0x39d180a0&#45;&gt;Node0x39d18c00</title>
<path fill="none" stroke="black" d="M536.5,-554.197C536.5,-542.854 536.5,-527.486 536.5,-512.954"/>
<polygon fill="black" stroke="black" points="540,-512.59 536.5,-502.59 533,-512.59 540,-512.59"/>
<text text-anchor="middle" x="567" y="-524.8" font-family="Times,serif" font-size="14.00">g2 &gt;= 0</text>
</g>
<!-- Node0x39d1a0e0 -->
<g id="node12" class="node"><title>Node0x39d1a0e0</title>
<polygon fill="none" stroke="black" points="743.5,-23.5 743.5,-59.5 797.5,-59.5 797.5,-23.5 743.5,-23.5"/>
<text text-anchor="start" x="751.5" y="-37.8" font-family="Times,serif" font-size="14.00">exit:</text>
</g>
<!-- Node0x39d195d0&#45;&gt;Node0x39d1a0e0 -->
<g id="edge13" class="edge"><title>Node0x39d195d0&#45;&gt;Node0x39d1a0e0</title>
<path fill="none" stroke="black" d="M823.28,-362.39C841.704,-309.827 876.13,-187.129 834.5,-97 828.345,-83.6735 817.146,-72.4055 805.817,-63.6358"/>
<polygon fill="black" stroke="black" points="807.768,-60.7272 797.616,-57.6979 803.663,-66.3973 807.768,-60.7272"/>
</g>
<!-- Node0x39d13fa0 -->
<g id="node13" class="node"><title>Node0x39d13fa0</title>
<polygon fill="none" stroke="black" points="466.5,-307.5 466.5,-343.5 606.5,-343.5 606.5,-307.5 466.5,-307.5"/>
<text text-anchor="start" x="474.5" y="-321.8" font-family="Times,serif" font-size="14.00">if (v3 == NULL):</text>
</g>
<!-- Node0x39d18c00&#45;&gt;Node0x39d13fa0 -->
<g id="edge14" class="edge"><title>Node0x39d18c00&#45;&gt;Node0x39d13fa0</title>
<path fill="none" stroke="black" d="M536.5,-434.442C536.5,-409.848 536.5,-376.69 536.5,-353.64"/>
<polygon fill="black" stroke="black" points="540,-353.524 536.5,-343.524 533,-353.524 540,-353.524"/>
</g>
<!-- Node0x39d18130 -->
<g id="node14" class="node"><title>Node0x39d18130</title>
<polygon fill="none" stroke="black" points="129.5,-158.5 129.5,-194.5 253.5,-194.5 253.5,-158.5 129.5,-158.5"/>
<text text-anchor="start" x="137.5" y="-172.8" font-family="Times,serif" font-size="14.00">goto 0x414bb0</text>
</g>
<!-- Node0x39d13fa0&#45;&gt;Node0x39d18130 -->
<g id="edge15" class="edge"><title>Node0x39d13fa0&#45;&gt;Node0x39d18130</title>
<path fill="none" stroke="black" d="M466.333,-318.375C408.25,-310.732 325.365,-293.705 262.5,-256 240.492,-242.8 221.366,-220.64 208.527,-203.224"/>
<polygon fill="black" stroke="black" points="211.055,-200.74 202.405,-194.622 205.352,-204.799 211.055,-200.74"/>
<text text-anchor="middle" x="379.5" y="-277.8" font-family="Times,serif" font-size="14.00">v3 == NULL</text>
</g>
<!-- Node0x39d18f30 -->
<g id="node15" class="node"><title>Node0x39d18f30</title>
<polygon fill="none" stroke="black" points="271.5,-97.5 271.5,-255.5 825.5,-255.5 825.5,-97.5 271.5,-97.5"/>
<text text-anchor="start" x="279.5" y="-240.3" font-family="Times,serif" font-size="14.00">v13 = v3[&#39;0&#39;]</text>
<text text-anchor="start" x="279.5" y="-225.3" font-family="Times,serif" font-size="14.00"> g5 = v13</text>
<text text-anchor="start" x="279.5" y="-210.3" font-family="Times,serif" font-size="14.00"> v14</text>
<text text-anchor="start" x="279.5" y="-195.3" font-family="Times,serif" font-size="14.00"> IntToPtrCastExpr&lt;ptr&gt;(*(IntToPtrCastExpr&lt;ptr&gt;((v13 + 16))))(v12, v14)</text>
<text text-anchor="start" x="279.5" y="-180.3" font-family="Times,serif" font-size="14.00"> v15 = PtrToIntCastExpr&lt;int32&gt;(v3)</text>
<text text-anchor="start" x="279.5" y="-165.3" font-family="Times,serif" font-size="14.00"> g2 = v15</text>
<text text-anchor="start" x="279.5" y="-150.3" font-family="Times,serif" font-size="14.00"> v16 = v3[&#39;0&#39;]</text>
<text text-anchor="start" x="279.5" y="-135.3" font-family="Times,serif" font-size="14.00"> g5 = v16</text>
<text text-anchor="start" x="279.5" y="-120.3" font-family="Times,serif" font-size="14.00"> IntToPtrCastExpr&lt;ptr&gt;(*(IntToPtrCastExpr&lt;ptr&gt;((v16 + 8))))(v15)</text>
<text text-anchor="start" x="279.5" y="-105.3" font-family="Times,serif" font-size="14.00"> g3 = v1</text>
</g>
<!-- Node0x39d13fa0&#45;&gt;Node0x39d18f30 -->
<g id="edge16" class="edge"><title>Node0x39d13fa0&#45;&gt;Node0x39d18f30</title>
<path fill="none" stroke="black" d="M537.9,-307.35C538.786,-296.499 540.006,-281.554 541.304,-265.656"/>
<polygon fill="black" stroke="black" points="544.794,-265.913 542.119,-255.661 537.817,-265.343 544.794,-265.913"/>
<text text-anchor="middle" x="584.5" y="-277.8" font-family="Times,serif" font-size="14.00">v3 != NULL</text>
</g>
<!-- Node0x39d18130&#45;&gt;Node0x39d18fb0 -->
<g id="edge17" class="edge"><title>Node0x39d18130&#45;&gt;Node0x39d18fb0</title>
<path fill="none" stroke="black" d="M191.886,-194.699C192.467,-222.143 193.5,-277.537 193.5,-324.5 193.5,-701 193.5,-701 193.5,-701 193.5,-733.907 192.378,-747.639 214.5,-772 231.154,-790.34 253.896,-803.442 276.864,-812.765"/>
<polygon fill="black" stroke="black" points="275.765,-816.092 286.355,-816.407 278.273,-809.557 275.765,-816.092"/>
</g>
<!-- Node0x39d18f30&#45;&gt;Node0x39d1a0e0 -->
<g id="edge18" class="edge"><title>Node0x39d18f30&#45;&gt;Node0x39d1a0e0</title>
<path fill="none" stroke="black" d="M678.922,-97.3641C699.278,-85.1692 718.734,-73.5131 734.436,-64.1058"/>
<polygon fill="black" stroke="black" points="736.447,-66.9814 743.226,-58.8396 732.849,-60.9765 736.447,-66.9814"/>
</g>
</g>
</svg>
