<?xml version="1.0" encoding="UTF-8" standalone="no"?>
<!DOCTYPE svg PUBLIC "-//W3C//DTD SVG 1.1//EN"
 "http://www.w3.org/Graphics/SVG/1.1/DTD/svg11.dtd">
<!-- Generated by graphviz version 2.38.0 (20140413.2041)
 -->
<!-- Title: Control&#45;flow graph for function &#39;function_4015d0()&#39;. Pages: 1 -->
<svg width="395pt" height="291pt"
 viewBox="0.00 0.00 395.00 291.00" xmlns="http://www.w3.org/2000/svg" xmlns:xlink="http://www.w3.org/1999/xlink">
<g id="graph0" class="graph" transform="scale(1 1) rotate(0) translate(4 287)">
<title>Control&#45;flow graph for function &#39;function_4015d0()&#39;.</title>
<polygon fill="white" stroke="none" points="-4,4 -4,-287 391,-287 391,4 -4,4"/>
<text text-anchor="middle" x="193.5" y="-7.8" font-family="Times,serif" font-size="14.00">Control&#45;flow graph for function &#39;function_4015d0()&#39;.</text>
<!-- Node0x1bf098f0 -->
<g id="node1" class="node"><title>Node0x1bf098f0</title>
<polygon fill="none" stroke="black" points="164,-246.5 164,-282.5 223,-282.5 223,-246.5 164,-246.5"/>
<text text-anchor="start" x="172" y="-260.8" font-family="Times,serif" font-size="14.00">entry:</text>
</g>
<!-- Node0x1bf0b7b0 -->
<g id="node2" class="node"><title>Node0x1bf0b7b0</title>
<polygon fill="none" stroke="black" points="109,-96.5 109,-209.5 278,-209.5 278,-96.5 109,-96.5"/>
<text text-anchor="start" x="117" y="-194.3" font-family="Times,serif" font-size="14.00">0x4015d0:</text>
<text text-anchor="start" x="117" y="-179.3" font-family="Times,serif" font-size="14.00"> g5 = g161</text>
<text text-anchor="start" x="117" y="-164.3" font-family="Times,serif" font-size="14.00"> v1</text>
<text text-anchor="start" x="117" y="-149.3" font-family="Times,serif" font-size="14.00"> function_401eb0(v1)</text>
<text text-anchor="start" x="117" y="-134.3" font-family="Times,serif" font-size="14.00"> g1 = False</text>
<text text-anchor="start" x="117" y="-119.3" font-family="Times,serif" font-size="14.00"> g180 = True</text>
<text text-anchor="start" x="117" y="-104.3" font-family="Times,serif" font-size="14.00"> return 0</text>
</g>
<!-- Node0x1bf098f0&#45;&gt;Node0x1bf0b7b0 -->
<g id="edge1" class="edge"><title>Node0x1bf098f0&#45;&gt;Node0x1bf0b7b0</title>
<path fill="none" stroke="black" d="M193.5,-246.391C193.5,-238.98 193.5,-229.786 193.5,-220.096"/>
<polygon fill="black" stroke="black" points="197,-219.873 193.5,-209.873 190,-219.873 197,-219.873"/>
</g>
<!-- Node0x1bf0bab0 -->
<g id="node3" class="node"><title>Node0x1bf0bab0</title>
<polygon fill="none" stroke="black" points="166.5,-23.5 166.5,-59.5 220.5,-59.5 220.5,-23.5 166.5,-23.5"/>
<text text-anchor="start" x="174.5" y="-37.8" font-family="Times,serif" font-size="14.00">exit:</text>
</g>
<!-- Node0x1bf0b7b0&#45;&gt;Node0x1bf0bab0 -->
<g id="edge2" class="edge"><title>Node0x1bf0b7b0&#45;&gt;Node0x1bf0bab0</title>
<path fill="none" stroke="black" d="M193.5,-96.2876C193.5,-87.1343 193.5,-78.0169 193.5,-69.9591"/>
<polygon fill="black" stroke="black" points="197,-69.7241 193.5,-59.7242 190,-69.7242 197,-69.7241"/>
</g>
</g>
</svg>
