<?xml version="1.0" encoding="UTF-8" standalone="no"?>
<!DOCTYPE svg PUBLIC "-//W3C//DTD SVG 1.1//EN"
 "http://www.w3.org/Graphics/SVG/1.1/DTD/svg11.dtd">
<!-- Generated by graphviz version 2.38.0 (20140413.2041)
 -->
<!-- Title: Control&#45;flow graph for function &#39;function_4170d7(a1)&#39;. Pages: 1 -->
<svg width="712pt" height="702pt"
 viewBox="0.00 0.00 711.50 702.00" xmlns="http://www.w3.org/2000/svg" xmlns:xlink="http://www.w3.org/1999/xlink">
<g id="graph0" class="graph" transform="scale(1 1) rotate(0) translate(4 698)">
<title>Control&#45;flow graph for function &#39;function_4170d7(a1)&#39;.</title>
<polygon fill="white" stroke="none" points="-4,4 -4,-698 707.5,-698 707.5,4 -4,4"/>
<text text-anchor="middle" x="351.75" y="-7.8" font-family="Times,serif" font-size="14.00">Control&#45;flow graph for function &#39;function_4170d7(a1)&#39;.</text>
<!-- Node0x841e83d0 -->
<g id="node1" class="node"><title>Node0x841e83d0</title>
<polygon fill="none" stroke="black" points="227,-655.5 227,-693.5 286,-693.5 286,-655.5 227,-655.5"/>
<text text-anchor="start" x="235" y="-678.3" font-family="Times,serif" font-size="14.00">entry:</text>
<text text-anchor="start" x="235" y="-663.3" font-family="Times,serif" font-size="14.00"> a1</text>
</g>
<!-- Node0x1fe4c340 -->
<g id="node2" class="node"><title>Node0x1fe4c340</title>
<polygon fill="none" stroke="black" points="0,-384.5 0,-617.5 513,-617.5 513,-384.5 0,-384.5"/>
<text text-anchor="start" x="8" y="-602.3" font-family="Times,serif" font-size="14.00">g2 = 4418654</text>
<text text-anchor="start" x="8" y="-587.3" font-family="Times,serif" font-size="14.00"> __EH_prolog3()</text>
<text text-anchor="start" x="8" y="-572.3" font-family="Times,serif" font-size="14.00"> v1 = g3</text>
<text text-anchor="start" x="8" y="-557.3" font-family="Times,serif" font-size="14.00"> v2 = *(IntToPtrCastExpr&lt;ptr&gt;((v1 + 8)))</text>
<text text-anchor="start" x="8" y="-542.3" font-family="Times,serif" font-size="14.00"> g9 = v2</text>
<text text-anchor="start" x="8" y="-527.3" font-family="Times,serif" font-size="14.00"> v3 = IntToPtrCastExpr&lt;ptr&gt;(*(IntToPtrCastExpr&lt;ptr&gt;((v2 &#45; 196))))</text>
<text text-anchor="start" x="8" y="-512.3" font-family="Times,serif" font-size="14.00"> g9 = (v2 &#45; 224)</text>
<text text-anchor="start" x="8" y="-497.3" font-family="Times,serif" font-size="14.00"> g5 = (v1 &#45; 20)</text>
<text text-anchor="start" x="8" y="-482.3" font-family="Times,serif" font-size="14.00"> function_410276(v3, IntToPtrCastExpr&lt;ptr&gt;(8))</text>
<text text-anchor="start" x="8" y="-467.3" font-family="Times,serif" font-size="14.00"> *(IntToPtrCastExpr&lt;ptr&gt;((g3 &#45; 4))) = 0</text>
<text text-anchor="start" x="8" y="-452.3" font-family="Times,serif" font-size="14.00"> g5 = g9</text>
<text text-anchor="start" x="8" y="-437.3" font-family="Times,serif" font-size="14.00"> v4 = function_41c2db(PtrToIntCastExpr&lt;int32&gt;(v3))</text>
<text text-anchor="start" x="8" y="-422.3" font-family="Times,serif" font-size="14.00"> *(IntToPtrCastExpr&lt;ptr&gt;((g3 &#45; 4))) = &#45;1</text>
<text text-anchor="start" x="8" y="-407.3" font-family="Times,serif" font-size="14.00"> g9 = v4</text>
<text text-anchor="start" x="8" y="-392.3" font-family="Times,serif" font-size="14.00"> result</text>
</g>
<!-- Node0x841e83d0&#45;&gt;Node0x1fe4c340 -->
<g id="edge1" class="edge"><title>Node0x841e83d0&#45;&gt;Node0x1fe4c340</title>
<path fill="none" stroke="black" d="M256.5,-655.471C256.5,-647.833 256.5,-638.227 256.5,-627.566"/>
<polygon fill="black" stroke="black" points="260,-627.504 256.5,-617.504 253,-627.504 260,-627.504"/>
</g>
<!-- Node0x563fffc0 -->
<g id="node3" class="node"><title>Node0x563fffc0</title>
<polygon fill="none" stroke="black" points="84.5,-308.5 84.5,-346.5 428.5,-346.5 428.5,-308.5 84.5,-308.5"/>
<text text-anchor="start" x="92.5" y="-331.3" font-family="Times,serif" font-size="14.00">if (*(IntToPtrCastExpr&lt;ptr&gt;((g3 &#45; 16))) != 0):</text>
<text text-anchor="start" x="92.5" y="-316.3" font-family="Times,serif" font-size="14.00"> else:</text>
</g>
<!-- Node0x1fe4c340&#45;&gt;Node0x563fffc0 -->
<g id="edge2" class="edge"><title>Node0x1fe4c340&#45;&gt;Node0x563fffc0</title>
<path fill="none" stroke="black" d="M256.5,-384.181C256.5,-374.254 256.5,-364.942 256.5,-356.881"/>
<polygon fill="black" stroke="black" points="260,-356.722 256.5,-346.722 253,-356.722 260,-356.722"/>
</g>
<!-- Node0x9ed45be0 -->
<g id="node4" class="node"><title>Node0x9ed45be0</title>
<polygon fill="none" stroke="black" points="67.5,-188.5 67.5,-256.5 215.5,-256.5 215.5,-188.5 67.5,-188.5"/>
<text text-anchor="start" x="75.5" y="-241.3" font-family="Times,serif" font-size="14.00">v5 = 0</text>
<text text-anchor="start" x="75.5" y="-226.3" font-family="Times,serif" font-size="14.00"> g10 = &amp;(v5)</text>
<text text-anchor="start" x="75.5" y="-211.3" font-family="Times,serif" font-size="14.00"> function_40fa42()</text>
<text text-anchor="start" x="75.5" y="-196.3" font-family="Times,serif" font-size="14.00"> result = g9</text>
</g>
<!-- Node0x563fffc0&#45;&gt;Node0x9ed45be0 -->
<g id="edge3" class="edge"><title>Node0x563fffc0&#45;&gt;Node0x9ed45be0</title>
<path fill="none" stroke="black" d="M134.519,-308.436C117.324,-303.549 103.455,-297.477 97.5,-290 91.355,-282.285 92.0389,-273.713 96.2265,-265.359"/>
<polygon fill="black" stroke="black" points="99.2763,-267.086 101.719,-256.777 93.3805,-263.312 99.2763,-267.086"/>
<text text-anchor="middle" x="246.5" y="-278.8" font-family="Times,serif" font-size="14.00">*(IntToPtrCastExpr&lt;ptr&gt;((g3 &#45; 16))) != 0</text>
</g>
<!-- Node0x1fe4d600 -->
<g id="node5" class="node"><title>Node0x1fe4d600</title>
<polygon fill="none" stroke="black" points="324,-204.5 324,-240.5 421,-240.5 421,-204.5 324,-204.5"/>
<text text-anchor="start" x="332" y="-218.8" font-family="Times,serif" font-size="14.00">result = v4</text>
</g>
<!-- Node0x563fffc0&#45;&gt;Node0x1fe4d600 -->
<g id="edge4" class="edge"><title>Node0x563fffc0&#45;&gt;Node0x1fe4d600</title>
<path fill="none" stroke="black" d="M358.822,-308.47C375.869,-303.443 389.862,-297.31 395.5,-290 404.654,-278.132 399.751,-262.366 392.162,-249.164"/>
<polygon fill="black" stroke="black" points="394.961,-247.045 386.62,-240.513 389.068,-250.821 394.961,-247.045"/>
<text text-anchor="middle" x="551.5" y="-278.8" font-family="Times,serif" font-size="14.00">*(IntToPtrCastExpr&lt;ptr&gt;((g3 &#45; 16))) == 0</text>
</g>
<!-- Node0x1fe4d420 -->
<g id="node6" class="node"><title>Node0x1fe4d420</title>
<polygon fill="none" stroke="black" points="217.5,-97.5 217.5,-150.5 347.5,-150.5 347.5,-97.5 217.5,-97.5"/>
<text text-anchor="start" x="225.5" y="-135.3" font-family="Times,serif" font-size="14.00">0x41711b:</text>
<text text-anchor="start" x="225.5" y="-120.3" font-family="Times,serif" font-size="14.00"> __EH_epilog3()</text>
<text text-anchor="start" x="225.5" y="-105.3" font-family="Times,serif" font-size="14.00"> return result</text>
</g>
<!-- Node0x9ed45be0&#45;&gt;Node0x1fe4d420 -->
<g id="edge5" class="edge"><title>Node0x9ed45be0&#45;&gt;Node0x1fe4d420</title>
<path fill="none" stroke="black" d="M190.024,-188.29C205.074,-177.99 221.608,-166.674 236.482,-156.495"/>
<polygon fill="black" stroke="black" points="238.749,-159.185 245.024,-150.648 234.795,-153.408 238.749,-159.185"/>
</g>
<!-- Node0x1fe4d600&#45;&gt;Node0x1fe4d420 -->
<g id="edge6" class="edge"><title>Node0x1fe4d600&#45;&gt;Node0x1fe4d420</title>
<path fill="none" stroke="black" d="M356.41,-204.248C344.504,-191.482 327.917,-173.697 313.472,-158.209"/>
<polygon fill="black" stroke="black" points="315.963,-155.748 306.583,-150.823 310.844,-160.523 315.963,-155.748"/>
</g>
<!-- Node0x2f9fc5d0 -->
<g id="node7" class="node"><title>Node0x2f9fc5d0</title>
<polygon fill="none" stroke="black" points="255.5,-23.5 255.5,-59.5 309.5,-59.5 309.5,-23.5 255.5,-23.5"/>
<text text-anchor="start" x="263.5" y="-37.8" font-family="Times,serif" font-size="14.00">exit:</text>
</g>
<!-- Node0x1fe4d420&#45;&gt;Node0x2f9fc5d0 -->
<g id="edge7" class="edge"><title>Node0x1fe4d420&#45;&gt;Node0x2f9fc5d0</title>
<path fill="none" stroke="black" d="M282.5,-97.0862C282.5,-88.4596 282.5,-78.8224 282.5,-70.0748"/>
<polygon fill="black" stroke="black" points="286,-69.9735 282.5,-59.9735 279,-69.9735 286,-69.9735"/>
</g>
</g>
</svg>
