<?xml version="1.0" encoding="UTF-8" standalone="no"?>
<!DOCTYPE svg PUBLIC "-//W3C//DTD SVG 1.1//EN"
 "http://www.w3.org/Graphics/SVG/1.1/DTD/svg11.dtd">
<!-- Generated by graphviz version 2.38.0 (20140413.2041)
 -->
<!-- Title: Control&#45;flow graph for function &#39;function_4071c6(a1)&#39;. Pages: 1 -->
<svg width="645pt" height="597pt"
 viewBox="0.00 0.00 645.00 597.00" xmlns="http://www.w3.org/2000/svg" xmlns:xlink="http://www.w3.org/1999/xlink">
<g id="graph0" class="graph" transform="scale(1 1) rotate(0) translate(4 593)">
<title>Control&#45;flow graph for function &#39;function_4071c6(a1)&#39;.</title>
<polygon fill="white" stroke="none" points="-4,4 -4,-593 641,-593 641,4 -4,4"/>
<text text-anchor="middle" x="318.5" y="-7.8" font-family="Times,serif" font-size="14.00">Control&#45;flow graph for function &#39;function_4071c6(a1)&#39;.</text>
<!-- Node0x1ed6a3d0 -->
<g id="node1" class="node"><title>Node0x1ed6a3d0</title>
<polygon fill="none" stroke="black" points="355.5,-550.5 355.5,-588.5 414.5,-588.5 414.5,-550.5 355.5,-550.5"/>
<text text-anchor="start" x="363.5" y="-573.3" font-family="Times,serif" font-size="14.00">entry:</text>
<text text-anchor="start" x="363.5" y="-558.3" font-family="Times,serif" font-size="14.00"> a1</text>
</g>
<!-- Node0x1d8b1520 -->
<g id="node2" class="node"><title>Node0x1d8b1520</title>
<polygon fill="none" stroke="black" points="133,-354.5 133,-512.5 637,-512.5 637,-354.5 133,-354.5"/>
<text text-anchor="start" x="141" y="-497.3" font-family="Times,serif" font-size="14.00">v1 = IntToPtrCastExpr&lt;ptr&gt;(4)</text>
<text text-anchor="start" x="141" y="-482.3" font-family="Times,serif" font-size="14.00"> g2 = 4422333</text>
<text text-anchor="start" x="141" y="-467.3" font-family="Times,serif" font-size="14.00"> __EH_prolog3()</text>
<text text-anchor="start" x="141" y="-452.3" font-family="Times,serif" font-size="14.00"> v2</text>
<text text-anchor="start" x="141" y="-437.3" font-family="Times,serif" font-size="14.00"> v3 = function_4048b3(IntToPtrCastExpr&lt;ptr&gt;(128), &amp;(v1[&#39;0&#39;]), v2)</text>
<text text-anchor="start" x="141" y="-422.3" font-family="Times,serif" font-size="14.00"> g10 = PtrToIntCastExpr&lt;int32&gt;(&amp;(v1))</text>
<text text-anchor="start" x="141" y="-407.3" font-family="Times,serif" font-size="14.00"> g5 = v3</text>
<text text-anchor="start" x="141" y="-392.3" font-family="Times,serif" font-size="14.00"> *(IntToPtrCastExpr&lt;ptr&gt;((g3 &#45; 16))) = v3</text>
<text text-anchor="start" x="141" y="-377.3" font-family="Times,serif" font-size="14.00"> *(IntToPtrCastExpr&lt;ptr&gt;((g3 &#45; 4))) = 0</text>
<text text-anchor="start" x="141" y="-362.3" font-family="Times,serif" font-size="14.00"> result</text>
</g>
<!-- Node0x1ed6a3d0&#45;&gt;Node0x1d8b1520 -->
<g id="edge1" class="edge"><title>Node0x1ed6a3d0&#45;&gt;Node0x1d8b1520</title>
<path fill="none" stroke="black" d="M385,-550.428C385,-542.741 385,-533.164 385,-522.831"/>
<polygon fill="black" stroke="black" points="388.5,-522.73 385,-512.73 381.5,-522.73 388.5,-522.73"/>
</g>
<!-- Node0x1d8b1320 -->
<g id="node3" class="node"><title>Node0x1d8b1320</title>
<polygon fill="none" stroke="black" points="335,-278.5 335,-316.5 435,-316.5 435,-278.5 335,-278.5"/>
<text text-anchor="start" x="343" y="-301.3" font-family="Times,serif" font-size="14.00">if (g5 != 0):</text>
<text text-anchor="start" x="343" y="-286.3" font-family="Times,serif" font-size="14.00"> else:</text>
</g>
<!-- Node0x1d8b1520&#45;&gt;Node0x1d8b1320 -->
<g id="edge2" class="edge"><title>Node0x1d8b1520&#45;&gt;Node0x1d8b1320</title>
<path fill="none" stroke="black" d="M385,-354.164C385,-344.447 385,-335.058 385,-326.846"/>
<polygon fill="black" stroke="black" points="388.5,-326.801 385,-316.801 381.5,-326.801 388.5,-326.801"/>
</g>
<!-- Node0x1ee35310 -->
<g id="node4" class="node"><title>Node0x1ee35310</title>
<polygon fill="none" stroke="black" points="0,-188.5 0,-226.5 472,-226.5 472,-188.5 0,-188.5"/>
<text text-anchor="start" x="8" y="-211.3" font-family="Times,serif" font-size="14.00">0x4071eb:</text>
<text text-anchor="start" x="8" y="-196.3" font-family="Times,serif" font-size="14.00"> result = function_413f05(*(IntToPtrCastExpr&lt;ptr&gt;((g3 + 8))))</text>
</g>
<!-- Node0x1d8b1320&#45;&gt;Node0x1ee35310 -->
<g id="edge3" class="edge"><title>Node0x1d8b1320&#45;&gt;Node0x1ee35310</title>
<path fill="none" stroke="black" d="M354.488,-278.48C331.664,-264.999 300.258,-246.451 275.513,-231.837"/>
<polygon fill="black" stroke="black" points="277.117,-228.719 266.727,-226.647 273.557,-234.746 277.117,-228.719"/>
<text text-anchor="middle" x="347.5" y="-248.8" font-family="Times,serif" font-size="14.00">g5 != 0</text>
</g>
<!-- Node0x1ed6c870 -->
<g id="node5" class="node"><title>Node0x1ed6c870</title>
<polygon fill="none" stroke="black" points="490.5,-189.5 490.5,-225.5 579.5,-225.5 579.5,-189.5 490.5,-189.5"/>
<text text-anchor="start" x="498.5" y="-203.8" font-family="Times,serif" font-size="14.00">result = 0</text>
</g>
<!-- Node0x1d8b1320&#45;&gt;Node0x1ed6c870 -->
<g id="edge4" class="edge"><title>Node0x1d8b1320&#45;&gt;Node0x1ed6c870</title>
<path fill="none" stroke="black" d="M415.717,-278.48C439.229,-264.686 471.786,-245.585 496.948,-230.824"/>
<polygon fill="black" stroke="black" points="498.999,-233.678 505.853,-225.599 495.457,-227.641 498.999,-233.678"/>
<text text-anchor="middle" x="499.5" y="-248.8" font-family="Times,serif" font-size="14.00">g5 == 0</text>
</g>
<!-- Node0x1d8b19c0 -->
<g id="node6" class="node"><title>Node0x1d8b19c0</title>
<polygon fill="none" stroke="black" points="354,-97.5 354,-150.5 484,-150.5 484,-97.5 354,-97.5"/>
<text text-anchor="start" x="362" y="-135.3" font-family="Times,serif" font-size="14.00">0x4071f3:</text>
<text text-anchor="start" x="362" y="-120.3" font-family="Times,serif" font-size="14.00"> __EH_epilog3()</text>
<text text-anchor="start" x="362" y="-105.3" font-family="Times,serif" font-size="14.00"> return result</text>
</g>
<!-- Node0x1ee35310&#45;&gt;Node0x1d8b19c0 -->
<g id="edge5" class="edge"><title>Node0x1ee35310&#45;&gt;Node0x1d8b19c0</title>
<path fill="none" stroke="black" d="M276.614,-188.413C298.84,-178.514 326.94,-165.999 352.293,-154.708"/>
<polygon fill="black" stroke="black" points="353.783,-157.876 361.494,-150.611 350.935,-151.482 353.783,-157.876"/>
</g>
<!-- Node0x1ed6c870&#45;&gt;Node0x1d8b19c0 -->
<g id="edge6" class="edge"><title>Node0x1ed6c870&#45;&gt;Node0x1d8b19c0</title>
<path fill="none" stroke="black" d="M510.683,-189.415C497.229,-179.963 480.076,-167.911 464.254,-156.795"/>
<polygon fill="black" stroke="black" points="465.828,-153.623 455.633,-150.738 461.804,-159.351 465.828,-153.623"/>
</g>
<!-- Node0x1d8b14a0 -->
<g id="node7" class="node"><title>Node0x1d8b14a0</title>
<polygon fill="none" stroke="black" points="392,-23.5 392,-59.5 446,-59.5 446,-23.5 392,-23.5"/>
<text text-anchor="start" x="400" y="-37.8" font-family="Times,serif" font-size="14.00">exit:</text>
</g>
<!-- Node0x1d8b19c0&#45;&gt;Node0x1d8b14a0 -->
<g id="edge7" class="edge"><title>Node0x1d8b19c0&#45;&gt;Node0x1d8b14a0</title>
<path fill="none" stroke="black" d="M419,-97.0862C419,-88.4596 419,-78.8224 419,-70.0748"/>
<polygon fill="black" stroke="black" points="422.5,-69.9735 419,-59.9735 415.5,-69.9735 422.5,-69.9735"/>
</g>
</g>
</svg>
