<?xml version="1.0" encoding="UTF-8" standalone="no"?>
<!DOCTYPE svg PUBLIC "-//W3C//DTD SVG 1.1//EN"
 "http://www.w3.org/Graphics/SVG/1.1/DTD/svg11.dtd">
<!-- Generated by graphviz version 2.38.0 (20140413.2041)
 -->
<!-- Title: Control&#45;flow graph for function &#39;function_41305f(*a1, a2)&#39;. Pages: 1 -->
<svg width="744pt" height="368pt"
 viewBox="0.00 0.00 744.00 368.00" xmlns="http://www.w3.org/2000/svg" xmlns:xlink="http://www.w3.org/1999/xlink">
<g id="graph0" class="graph" transform="scale(1 1) rotate(0) translate(4 364)">
<title>Control&#45;flow graph for function &#39;function_41305f(*a1, a2)&#39;.</title>
<polygon fill="white" stroke="none" points="-4,4 -4,-364 740,-364 740,4 -4,4"/>
<text text-anchor="middle" x="368" y="-7.8" font-family="Times,serif" font-size="14.00">Control&#45;flow graph for function &#39;function_41305f(*a1, a2)&#39;.</text>
<!-- Node0x134e6940 -->
<g id="node1" class="node"><title>Node0x134e6940</title>
<polygon fill="none" stroke="black" points="338.5,-306.5 338.5,-359.5 397.5,-359.5 397.5,-306.5 338.5,-306.5"/>
<text text-anchor="start" x="346.5" y="-344.3" font-family="Times,serif" font-size="14.00">entry:</text>
<text text-anchor="start" x="346.5" y="-329.3" font-family="Times,serif" font-size="14.00"> a1</text>
<text text-anchor="start" x="346.5" y="-314.3" font-family="Times,serif" font-size="14.00"> a2</text>
</g>
<!-- Node0x134e75b0 -->
<g id="node2" class="node"><title>Node0x134e75b0</title>
<polygon fill="none" stroke="black" points="0,-96.5 0,-269.5 736,-269.5 736,-96.5 0,-96.5"/>
<text text-anchor="start" x="8" y="-254.3" font-family="Times,serif" font-size="14.00">v1 = a1</text>
<text text-anchor="start" x="8" y="-239.3" font-family="Times,serif" font-size="14.00"> v2 = g3</text>
<text text-anchor="start" x="8" y="-224.3" font-family="Times,serif" font-size="14.00"> g3 = &amp;(v2)</text>
<text text-anchor="start" x="8" y="-209.3" font-family="Times,serif" font-size="14.00"> v3 = *(IntToPtrCastExpr&lt;ptr&gt;(g5))</text>
<text text-anchor="start" x="8" y="-194.3" font-family="Times,serif" font-size="14.00"> g2 = v3</text>
<text text-anchor="start" x="8" y="-179.3" font-family="Times,serif" font-size="14.00"> g8 = PtrToIntCastExpr&lt;int32&gt;(&amp;(v1))</text>
<text text-anchor="start" x="8" y="-164.3" font-family="Times,serif" font-size="14.00"> v4</text>
<text text-anchor="start" x="8" y="-149.3" font-family="Times,serif" font-size="14.00"> IntToPtrCastExpr&lt;ptr&gt;(*(IntToPtrCastExpr&lt;ptr&gt;((v3 + 112))))(PtrToIntCastExpr&lt;int32&gt;(a1), v4)</text>
<text text-anchor="start" x="8" y="-134.3" font-family="Times,serif" font-size="14.00"> result = function_40b067()</text>
<text text-anchor="start" x="8" y="-119.3" font-family="Times,serif" font-size="14.00"> g3 = PtrToIntCastExpr&lt;int32&gt;(v1)</text>
<text text-anchor="start" x="8" y="-104.3" font-family="Times,serif" font-size="14.00"> return result</text>
</g>
<!-- Node0x134e6940&#45;&gt;Node0x134e75b0 -->
<g id="edge1" class="edge"><title>Node0x134e6940&#45;&gt;Node0x134e75b0</title>
<path fill="none" stroke="black" d="M368,-306.22C368,-298.414 368,-289.34 368,-279.729"/>
<polygon fill="black" stroke="black" points="371.5,-279.55 368,-269.55 364.5,-279.55 371.5,-279.55"/>
</g>
<!-- Node0x134e7550 -->
<g id="node3" class="node"><title>Node0x134e7550</title>
<polygon fill="none" stroke="black" points="341,-23.5 341,-59.5 395,-59.5 395,-23.5 341,-23.5"/>
<text text-anchor="start" x="349" y="-37.8" font-family="Times,serif" font-size="14.00">exit:</text>
</g>
<!-- Node0x134e75b0&#45;&gt;Node0x134e7550 -->
<g id="edge2" class="edge"><title>Node0x134e75b0&#45;&gt;Node0x134e7550</title>
<path fill="none" stroke="black" d="M368,-96.4343C368,-86.8184 368,-77.6259 368,-69.641"/>
<polygon fill="black" stroke="black" points="371.5,-69.5749 368,-59.5749 364.5,-69.5749 371.5,-69.5749"/>
</g>
</g>
</svg>
