<?xml version="1.0" encoding="UTF-8" standalone="no"?>
<!DOCTYPE svg PUBLIC "-//W3C//DTD SVG 1.1//EN"
 "http://www.w3.org/Graphics/SVG/1.1/DTD/svg11.dtd">
<!-- Generated by graphviz version 2.38.0 (20140413.2041)
 -->
<!-- Title: Control&#45;flow graph for function &#39;function_410642(a1)&#39;. Pages: 1 -->
<svg width="628pt" height="563pt"
 viewBox="0.00 0.00 628.00 563.00" xmlns="http://www.w3.org/2000/svg" xmlns:xlink="http://www.w3.org/1999/xlink">
<g id="graph0" class="graph" transform="scale(1 1) rotate(0) translate(4 559)">
<title>Control&#45;flow graph for function &#39;function_410642(a1)&#39;.</title>
<polygon fill="white" stroke="none" points="-4,4 -4,-559 624,-559 624,4 -4,4"/>
<text text-anchor="middle" x="310" y="-7.8" font-family="Times,serif" font-size="14.00">Control&#45;flow graph for function &#39;function_410642(a1)&#39;.</text>
<!-- Node0xc9776f50 -->
<g id="node1" class="node"><title>Node0xc9776f50</title>
<polygon fill="none" stroke="black" points="280.5,-516.5 280.5,-554.5 339.5,-554.5 339.5,-516.5 280.5,-516.5"/>
<text text-anchor="start" x="288.5" y="-539.3" font-family="Times,serif" font-size="14.00">entry:</text>
<text text-anchor="start" x="288.5" y="-524.3" font-family="Times,serif" font-size="14.00"> a1</text>
</g>
<!-- Node0xc977ca40 -->
<g id="node2" class="node"><title>Node0xc977ca40</title>
<polygon fill="none" stroke="black" points="0,-96.5 0,-479.5 620,-479.5 620,-96.5 0,-96.5"/>
<text text-anchor="start" x="8" y="-464.3" font-family="Times,serif" font-size="14.00">v1</text>
<text text-anchor="start" x="8" y="-449.3" font-family="Times,serif" font-size="14.00"> v2 = PtrToIntCastExpr&lt;int32&gt;(&amp;(v1))</text>
<text text-anchor="start" x="8" y="-434.3" font-family="Times,serif" font-size="14.00"> g3 = v2</text>
<text text-anchor="start" x="8" y="-419.3" font-family="Times,serif" font-size="14.00"> v1 = IntToPtrCastExpr&lt;ptr&gt;(8)</text>
<text text-anchor="start" x="8" y="-404.3" font-family="Times,serif" font-size="14.00"> g2 = PtrToIntCastExpr&lt;int32&gt;(function_436f74)</text>
<text text-anchor="start" x="8" y="-389.3" font-family="Times,serif" font-size="14.00"> __EH_prolog3()</text>
<text text-anchor="start" x="8" y="-374.3" font-family="Times,serif" font-size="14.00"> g7 = a1</text>
<text text-anchor="start" x="8" y="-359.3" font-family="Times,serif" font-size="14.00"> g9 = 0</text>
<text text-anchor="start" x="8" y="-344.3" font-family="Times,serif" font-size="14.00"> g2 = v2</text>
<text text-anchor="start" x="8" y="-329.3" font-family="Times,serif" font-size="14.00"> v1 = NULL</text>
<text text-anchor="start" x="8" y="-314.3" font-family="Times,serif" font-size="14.00"> function_4104e9(NULL)</text>
<text text-anchor="start" x="8" y="-299.3" font-family="Times,serif" font-size="14.00"> g5 = g7</text>
<text text-anchor="start" x="8" y="-284.3" font-family="Times,serif" font-size="14.00"> function_403810(&amp;(NULL[&#39;0&#39;]))</text>
<text text-anchor="start" x="8" y="-269.3" font-family="Times,serif" font-size="14.00"> g2 = 256</text>
<text text-anchor="start" x="8" y="-254.3" font-family="Times,serif" font-size="14.00"> v3 = IntToPtrCastExpr&lt;ptr&gt;(256)</text>
<text text-anchor="start" x="8" y="-239.3" font-family="Times,serif" font-size="14.00"> g5 = g7</text>
<text text-anchor="start" x="8" y="-224.3" font-family="Times,serif" font-size="14.00"> v4 = function_4032c0(IntToPtrCastExpr&lt;ptr&gt;(256), IntToPtrCastExpr&lt;ptr&gt;(256))</text>
<text text-anchor="start" x="8" y="-209.3" font-family="Times,serif" font-size="14.00"> v5</text>
<text text-anchor="start" x="8" y="-194.3" font-family="Times,serif" font-size="14.00"> g2 = &amp;(v5)</text>
<text text-anchor="start" x="8" y="-179.3" font-family="Times,serif" font-size="14.00"> function_41d0d3(&amp;(v5), IntToPtrCastExpr&lt;ptr&gt;(v4), BitCastExpr&lt;ptr&gt;(v3))</text>
<text text-anchor="start" x="8" y="-164.3" font-family="Times,serif" font-size="14.00"> g5 = g7</text>
<text text-anchor="start" x="8" y="-149.3" font-family="Times,serif" font-size="14.00"> function_4064f6(IntToPtrCastExpr&lt;ptr&gt;(&#45;1), BitCastExpr&lt;ptr&gt;(&amp;(v5)))</text>
<text text-anchor="start" x="8" y="-134.3" font-family="Times,serif" font-size="14.00"> g5 = ExtCastExpr&lt;int32&gt;(*(v3))</text>
<text text-anchor="start" x="8" y="-119.3" font-family="Times,serif" font-size="14.00"> abort()</text>
<text text-anchor="start" x="8" y="-104.3" font-family="Times,serif" font-size="14.00"> # UNREACHABLE</text>
</g>
<!-- Node0xc9776f50&#45;&gt;Node0xc977ca40 -->
<g id="edge1" class="edge"><title>Node0xc9776f50&#45;&gt;Node0xc977ca40</title>
<path fill="none" stroke="black" d="M310,-516.448C310,-509.231 310,-500.166 310,-489.841"/>
<polygon fill="black" stroke="black" points="313.5,-489.575 310,-479.575 306.5,-489.575 313.5,-489.575"/>
</g>
<!-- Node0x377f11e0 -->
<g id="node3" class="node"><title>Node0x377f11e0</title>
<polygon fill="none" stroke="black" points="283,-23.5 283,-59.5 337,-59.5 337,-23.5 283,-23.5"/>
<text text-anchor="start" x="291" y="-37.8" font-family="Times,serif" font-size="14.00">exit:</text>
</g>
<!-- Node0xc977ca40&#45;&gt;Node0x377f11e0 -->
<g id="edge2" class="edge"><title>Node0xc977ca40&#45;&gt;Node0x377f11e0</title>
<path fill="none" stroke="black" d="M310,-96.4592C310,-86.453 310,-77.3455 310,-69.5798"/>
<polygon fill="black" stroke="black" points="313.5,-69.541 310,-59.541 306.5,-69.5411 313.5,-69.541"/>
</g>
</g>
</svg>
