<?xml version="1.0" encoding="UTF-8" standalone="no"?>
<!DOCTYPE svg PUBLIC "-//W3C//DTD SVG 1.1//EN"
 "http://www.w3.org/Graphics/SVG/1.1/DTD/svg11.dtd">
<!-- Generated by graphviz version 2.38.0 (20140413.2041)
 -->
<!-- Title: Control&#45;flow graph for function &#39;function_41c2db(a1)&#39;. Pages: 1 -->
<svg width="786pt" height="429pt"
 viewBox="0.00 0.00 785.50 429.00" xmlns="http://www.w3.org/2000/svg" xmlns:xlink="http://www.w3.org/1999/xlink">
<g id="graph0" class="graph" transform="scale(1 1) rotate(0) translate(4 425)">
<title>Control&#45;flow graph for function &#39;function_41c2db(a1)&#39;.</title>
<polygon fill="white" stroke="none" points="-4,4 -4,-425 781.5,-425 781.5,4 -4,4"/>
<text text-anchor="middle" x="388.75" y="-7.8" font-family="Times,serif" font-size="14.00">Control&#45;flow graph for function &#39;function_41c2db(a1)&#39;.</text>
<!-- Node0x85a29780 -->
<g id="node1" class="node"><title>Node0x85a29780</title>
<polygon fill="none" stroke="black" points="289.5,-382.5 289.5,-420.5 348.5,-420.5 348.5,-382.5 289.5,-382.5"/>
<text text-anchor="start" x="297.5" y="-405.3" font-family="Times,serif" font-size="14.00">entry:</text>
<text text-anchor="start" x="297.5" y="-390.3" font-family="Times,serif" font-size="14.00"> a1</text>
</g>
<!-- Node0x14478450 -->
<g id="node2" class="node"><title>Node0x14478450</title>
<polygon fill="none" stroke="black" points="149,-291.5 149,-344.5 489,-344.5 489,-291.5 149,-291.5"/>
<text text-anchor="start" x="157" y="-329.3" font-family="Times,serif" font-size="14.00">result = *(IntToPtrCastExpr&lt;ptr&gt;((g5 + 8)))</text>
<text text-anchor="start" x="157" y="-314.3" font-family="Times,serif" font-size="14.00"> g1 = False</text>
<text text-anchor="start" x="157" y="-299.3" font-family="Times,serif" font-size="14.00"> g180 = (result == 0)</text>
</g>
<!-- Node0x85a29780&#45;&gt;Node0x14478450 -->
<g id="edge1" class="edge"><title>Node0x85a29780&#45;&gt;Node0x14478450</title>
<path fill="none" stroke="black" d="M319,-382.413C319,-374.285 319,-364.394 319,-354.864"/>
<polygon fill="black" stroke="black" points="322.5,-354.766 319,-344.766 315.5,-354.766 322.5,-354.766"/>
</g>
<!-- Node0x14478730 -->
<g id="node3" class="node"><title>Node0x14478730</title>
<polygon fill="none" stroke="black" points="254,-217.5 254,-253.5 384,-253.5 384,-217.5 254,-217.5"/>
<text text-anchor="start" x="262" y="-231.8" font-family="Times,serif" font-size="14.00">if (result == 0):</text>
</g>
<!-- Node0x14478450&#45;&gt;Node0x14478730 -->
<g id="edge2" class="edge"><title>Node0x14478450&#45;&gt;Node0x14478730</title>
<path fill="none" stroke="black" d="M319,-291.086C319,-282.46 319,-272.822 319,-264.075"/>
<polygon fill="black" stroke="black" points="322.5,-263.973 319,-253.974 315.5,-263.974 322.5,-263.973"/>
</g>
<!-- Node0x144796a0 -->
<g id="node4" class="node"><title>Node0x144796a0</title>
<polygon fill="none" stroke="black" points="0,-105 0,-158 242,-158 242,-105 0,-105"/>
<text text-anchor="start" x="8" y="-142.8" font-family="Times,serif" font-size="14.00">0x41c2eb:</text>
<text text-anchor="start" x="8" y="-127.8" font-family="Times,serif" font-size="14.00"> v1</text>
<text text-anchor="start" x="8" y="-112.8" font-family="Times,serif" font-size="14.00"> return function_41c285(&amp;(v1))</text>
</g>
<!-- Node0x14478730&#45;&gt;Node0x144796a0 -->
<g id="edge3" class="edge"><title>Node0x14478730&#45;&gt;Node0x144796a0</title>
<path fill="none" stroke="black" d="M285.859,-217.427C256.956,-202.538 214.348,-180.588 179.688,-162.733"/>
<polygon fill="black" stroke="black" points="181.095,-159.521 170.602,-158.053 177.889,-165.744 181.095,-159.521"/>
<text text-anchor="middle" x="292.5" y="-187.8" font-family="Times,serif" font-size="14.00">result == 0</text>
</g>
<!-- Node0x14479560 -->
<g id="node5" class="node"><title>Node0x14479560</title>
<polygon fill="none" stroke="black" points="260.5,-97.5 260.5,-165.5 777.5,-165.5 777.5,-97.5 260.5,-97.5"/>
<text text-anchor="start" x="268.5" y="-150.3" font-family="Times,serif" font-size="14.00">v2 = *(IntToPtrCastExpr&lt;ptr&gt;(result))</text>
<text text-anchor="start" x="268.5" y="-135.3" font-family="Times,serif" font-size="14.00"> g5 = v2</text>
<text text-anchor="start" x="268.5" y="-120.3" font-family="Times,serif" font-size="14.00"> IntToPtrCastExpr&lt;ptr&gt;(*(IntToPtrCastExpr&lt;ptr&gt;((v2 + 8))))(result)</text>
<text text-anchor="start" x="268.5" y="-105.3" font-family="Times,serif" font-size="14.00"> return result</text>
</g>
<!-- Node0x14478730&#45;&gt;Node0x14479560 -->
<g id="edge4" class="edge"><title>Node0x14478730&#45;&gt;Node0x14479560</title>
<path fill="none" stroke="black" d="M352.476,-217.427C377.677,-204.575 413.195,-186.461 444.958,-170.261"/>
<polygon fill="black" stroke="black" points="446.923,-173.188 454.242,-165.527 443.743,-166.952 446.923,-173.188"/>
<text text-anchor="middle" x="453.5" y="-187.8" font-family="Times,serif" font-size="14.00">result != 0</text>
</g>
<!-- Node0x144783d0 -->
<g id="node6" class="node"><title>Node0x144783d0</title>
<polygon fill="none" stroke="black" points="339,-23.5 339,-59.5 393,-59.5 393,-23.5 339,-23.5"/>
<text text-anchor="start" x="347" y="-37.8" font-family="Times,serif" font-size="14.00">exit:</text>
</g>
<!-- Node0x144796a0&#45;&gt;Node0x144783d0 -->
<g id="edge5" class="edge"><title>Node0x144796a0&#45;&gt;Node0x144783d0</title>
<path fill="none" stroke="black" d="M192.193,-104.929C237.005,-88.8328 292.998,-68.7212 329.121,-55.7464"/>
<polygon fill="black" stroke="black" points="330.528,-58.9598 338.757,-52.2854 328.162,-52.3719 330.528,-58.9598"/>
</g>
<!-- Node0x14479560&#45;&gt;Node0x144783d0 -->
<g id="edge6" class="edge"><title>Node0x14479560&#45;&gt;Node0x144783d0</title>
<path fill="none" stroke="black" d="M461.593,-97.4817C441.664,-86.0192 419.888,-73.4944 402.16,-63.298"/>
<polygon fill="black" stroke="black" points="403.703,-60.148 393.29,-58.1962 400.213,-66.216 403.703,-60.148"/>
</g>
</g>
</svg>
