<?xml version="1.0" encoding="UTF-8" standalone="no"?>
<!DOCTYPE svg PUBLIC "-//W3C//DTD SVG 1.1//EN"
 "http://www.w3.org/Graphics/SVG/1.1/DTD/svg11.dtd">
<!-- Generated by graphviz version 2.38.0 (20140413.2041)
 -->
<!-- Title: Control&#45;flow graph for function &#39;function_40831c(*a1, a2)&#39;. Pages: 1 -->
<svg width="551pt" height="416pt"
 viewBox="0.00 0.00 550.50 416.00" xmlns="http://www.w3.org/2000/svg" xmlns:xlink="http://www.w3.org/1999/xlink">
<g id="graph0" class="graph" transform="scale(1 1) rotate(0) translate(4 412)">
<title>Control&#45;flow graph for function &#39;function_40831c(*a1, a2)&#39;.</title>
<polygon fill="white" stroke="none" points="-4,4 -4,-412 546.5,-412 546.5,4 -4,4"/>
<text text-anchor="middle" x="271.25" y="-7.8" font-family="Times,serif" font-size="14.00">Control&#45;flow graph for function &#39;function_40831c(*a1, a2)&#39;.</text>
<!-- Node0x272906d0 -->
<g id="node1" class="node"><title>Node0x272906d0</title>
<polygon fill="none" stroke="black" points="373.5,-354.5 373.5,-407.5 432.5,-407.5 432.5,-354.5 373.5,-354.5"/>
<text text-anchor="start" x="381.5" y="-392.3" font-family="Times,serif" font-size="14.00">entry:</text>
<text text-anchor="start" x="381.5" y="-377.3" font-family="Times,serif" font-size="14.00"> a1</text>
<text text-anchor="start" x="381.5" y="-362.3" font-family="Times,serif" font-size="14.00"> a2</text>
</g>
<!-- Node0x27291610 -->
<g id="node2" class="node"><title>Node0x27291610</title>
<polygon fill="none" stroke="black" points="339,-278.5 339,-316.5 467,-316.5 467,-278.5 339,-278.5"/>
<text text-anchor="start" x="347" y="-301.3" font-family="Times,serif" font-size="14.00">0x40831c:</text>
<text text-anchor="start" x="347" y="-286.3" font-family="Times,serif" font-size="14.00"> if (*(a1) == 0):</text>
</g>
<!-- Node0x272906d0&#45;&gt;Node0x27291610 -->
<g id="edge1" class="edge"><title>Node0x272906d0&#45;&gt;Node0x27291610</title>
<path fill="none" stroke="black" d="M403,-354.213C403,-345.526 403,-335.787 403,-326.91"/>
<polygon fill="black" stroke="black" points="406.5,-326.638 403,-316.638 399.5,-326.638 406.5,-326.638"/>
</g>
<!-- Node0x27291e30 -->
<g id="node3" class="node"><title>Node0x27291e30</title>
<polygon fill="none" stroke="black" points="0,-188.5 0,-226.5 430,-226.5 430,-188.5 0,-188.5"/>
<text text-anchor="start" x="8" y="-211.3" font-family="Times,serif" font-size="14.00">0x408323:</text>
<text text-anchor="start" x="8" y="-196.3" font-family="Times,serif" font-size="14.00"> function_4032a0(IntToPtrCastExpr&lt;ptr&gt;(&#45;2147467259))</text>
</g>
<!-- Node0x27291610&#45;&gt;Node0x27291e30 -->
<g id="edge2" class="edge"><title>Node0x27291610&#45;&gt;Node0x27291e30</title>
<path fill="none" stroke="black" d="M364.502,-278.48C335.198,-264.763 294.683,-245.798 263.22,-231.071"/>
<polygon fill="black" stroke="black" points="264.31,-227.717 253.769,-226.647 261.342,-234.057 264.31,-227.717"/>
<text text-anchor="middle" x="360" y="-248.8" font-family="Times,serif" font-size="14.00">*(a1) == 0</text>
</g>
<!-- Node0x27291d10 -->
<g id="node4" class="node"><title>Node0x27291d10</title>
<polygon fill="none" stroke="black" points="251.5,-97.5 251.5,-150.5 542.5,-150.5 542.5,-97.5 251.5,-97.5"/>
<text text-anchor="start" x="259.5" y="-135.3" font-family="Times,serif" font-size="14.00">0x40832d:</text>
<text text-anchor="start" x="259.5" y="-120.3" font-family="Times,serif" font-size="14.00"> __mbscmp()</text>
<text text-anchor="start" x="259.5" y="-105.3" font-family="Times,serif" font-size="14.00"> return *(IntToPtrCastExpr&lt;ptr&gt;(g5))</text>
</g>
<!-- Node0x27291610&#45;&gt;Node0x27291d10 -->
<g id="edge3" class="edge"><title>Node0x27291610&#45;&gt;Node0x27291d10</title>
<path fill="none" stroke="black" d="M416.262,-278.164C430.139,-256.666 448.662,-219.912 439,-188 435.911,-177.798 430.565,-167.739 424.702,-158.755"/>
<polygon fill="black" stroke="black" points="427.554,-156.725 418.979,-150.501 421.801,-160.713 427.554,-156.725"/>
<text text-anchor="middle" x="477" y="-203.8" font-family="Times,serif" font-size="14.00">*(a1) != 0</text>
</g>
<!-- Node0x27291e30&#45;&gt;Node0x27291d10 -->
<g id="edge4" class="edge"><title>Node0x27291e30&#45;&gt;Node0x27291d10</title>
<path fill="none" stroke="black" d="M255.392,-188.413C277.497,-178.514 305.443,-165.999 330.658,-154.708"/>
<polygon fill="black" stroke="black" points="332.112,-157.892 339.808,-150.611 329.251,-151.503 332.112,-157.892"/>
</g>
<!-- Node0x272915b0 -->
<g id="node5" class="node"><title>Node0x272915b0</title>
<polygon fill="none" stroke="black" points="370,-23.5 370,-59.5 424,-59.5 424,-23.5 370,-23.5"/>
<text text-anchor="start" x="378" y="-37.8" font-family="Times,serif" font-size="14.00">exit:</text>
</g>
<!-- Node0x27291d10&#45;&gt;Node0x272915b0 -->
<g id="edge5" class="edge"><title>Node0x27291d10&#45;&gt;Node0x272915b0</title>
<path fill="none" stroke="black" d="M397,-97.0862C397,-88.4596 397,-78.8224 397,-70.0748"/>
<polygon fill="black" stroke="black" points="400.5,-69.9735 397,-59.9735 393.5,-69.9735 400.5,-69.9735"/>
</g>
</g>
</svg>
