<?xml version="1.0" encoding="UTF-8" standalone="no"?>
<!DOCTYPE svg PUBLIC "-//W3C//DTD SVG 1.1//EN"
 "http://www.w3.org/Graphics/SVG/1.1/DTD/svg11.dtd">
<!-- Generated by graphviz version 2.38.0 (20140413.2041)
 -->
<!-- Title: Control&#45;flow graph for function &#39;function_407588(a1, a2)&#39;. Pages: 1 -->
<svg width="439pt" height="505pt"
 viewBox="0.00 0.00 439.00 505.00" xmlns="http://www.w3.org/2000/svg" xmlns:xlink="http://www.w3.org/1999/xlink">
<g id="graph0" class="graph" transform="scale(1 1) rotate(0) translate(4 501)">
<title>Control&#45;flow graph for function &#39;function_407588(a1, a2)&#39;.</title>
<polygon fill="white" stroke="none" points="-4,4 -4,-501 435,-501 435,4 -4,4"/>
<text text-anchor="middle" x="215.5" y="-7.8" font-family="Times,serif" font-size="14.00">Control&#45;flow graph for function &#39;function_407588(a1, a2)&#39;.</text>
<!-- Node0x7def3430 -->
<g id="node1" class="node"><title>Node0x7def3430</title>
<polygon fill="none" stroke="black" points="309.25,-443.5 309.25,-496.5 368.25,-496.5 368.25,-443.5 309.25,-443.5"/>
<text text-anchor="start" x="317.25" y="-481.3" font-family="Times,serif" font-size="14.00">entry:</text>
<text text-anchor="start" x="317.25" y="-466.3" font-family="Times,serif" font-size="14.00"> a1</text>
<text text-anchor="start" x="317.25" y="-451.3" font-family="Times,serif" font-size="14.00"> a2</text>
</g>
<!-- Node0x7def7550 -->
<g id="node2" class="node"><title>Node0x7def7550</title>
<polygon fill="none" stroke="black" points="262.75,-352.5 262.75,-405.5 414.75,-405.5 414.75,-352.5 262.75,-352.5"/>
<text text-anchor="start" x="270.75" y="-390.3" font-family="Times,serif" font-size="14.00">v1 = g9</text>
<text text-anchor="start" x="270.75" y="-375.3" font-family="Times,serif" font-size="14.00"> g9 = g5</text>
<text text-anchor="start" x="270.75" y="-360.3" font-family="Times,serif" font-size="14.00"> function_4072c0()</text>
</g>
<!-- Node0x7def3430&#45;&gt;Node0x7def7550 -->
<g id="edge1" class="edge"><title>Node0x7def3430&#45;&gt;Node0x7def7550</title>
<path fill="none" stroke="black" d="M338.75,-443.258C338.75,-434.678 338.75,-424.961 338.75,-415.762"/>
<polygon fill="black" stroke="black" points="342.25,-415.685 338.75,-405.685 335.25,-415.685 342.25,-415.685"/>
</g>
<!-- Node0x7def8df0 -->
<g id="node3" class="node"><title>Node0x7def8df0</title>
<polygon fill="none" stroke="black" points="289.25,-278.5 289.25,-314.5 388.25,-314.5 388.25,-278.5 289.25,-278.5"/>
<text text-anchor="start" x="297.25" y="-292.8" font-family="Times,serif" font-size="14.00">if (a1 != 1):</text>
</g>
<!-- Node0x7def7550&#45;&gt;Node0x7def8df0 -->
<g id="edge2" class="edge"><title>Node0x7def7550&#45;&gt;Node0x7def8df0</title>
<path fill="none" stroke="black" d="M338.75,-352.086C338.75,-343.46 338.75,-333.822 338.75,-325.075"/>
<polygon fill="black" stroke="black" points="342.25,-324.973 338.75,-314.974 335.25,-324.974 342.25,-324.973"/>
</g>
<!-- Node0x7def8f10 -->
<g id="node4" class="node"><title>Node0x7def8f10</title>
<polygon fill="none" stroke="black" points="3.25,-188.5 3.25,-226.5 356.25,-226.5 356.25,-188.5 3.25,-188.5"/>
<text text-anchor="start" x="11.25" y="-211.3" font-family="Times,serif" font-size="14.00">0x407597:</text>
<text text-anchor="start" x="11.25" y="-196.3" font-family="Times,serif" font-size="14.00"> function_410da7(IntToPtrCastExpr&lt;ptr&gt;(g9))</text>
</g>
<!-- Node0x7def8df0&#45;&gt;Node0x7def8f10 -->
<g id="edge3" class="edge"><title>Node0x7def8df0&#45;&gt;Node0x7def8f10</title>
<path fill="none" stroke="black" d="M307.337,-278.312C282.781,-264.875 248.42,-246.074 221.543,-231.368"/>
<polygon fill="black" stroke="black" points="223.193,-228.281 212.74,-226.551 219.833,-234.422 223.193,-228.281"/>
<text text-anchor="middle" x="300.75" y="-248.8" font-family="Times,serif" font-size="14.00">a1 != 1</text>
</g>
<!-- Node0x7def8f90 -->
<g id="node5" class="node"><title>Node0x7def8f90</title>
<polygon fill="none" stroke="black" points="276.25,-97.5 276.25,-150.5 389.25,-150.5 389.25,-97.5 276.25,-97.5"/>
<text text-anchor="start" x="284.25" y="-135.3" font-family="Times,serif" font-size="14.00">result = g9</text>
<text text-anchor="start" x="284.25" y="-120.3" font-family="Times,serif" font-size="14.00"> g9 = v1</text>
<text text-anchor="start" x="284.25" y="-105.3" font-family="Times,serif" font-size="14.00"> return result</text>
</g>
<!-- Node0x7def8df0&#45;&gt;Node0x7def8f90 -->
<g id="edge4" class="edge"><title>Node0x7def8df0&#45;&gt;Node0x7def8f90</title>
<path fill="none" stroke="black" d="M347.974,-278.377C358.226,-257.169 372.395,-219.932 364.75,-188 362.439,-178.348 358.393,-168.506 353.94,-159.556"/>
<polygon fill="black" stroke="black" points="356.973,-157.805 349.207,-150.599 350.784,-161.075 356.973,-157.805"/>
<text text-anchor="middle" x="397.75" y="-203.8" font-family="Times,serif" font-size="14.00">a1 == 1</text>
</g>
<!-- Node0x7def8f10&#45;&gt;Node0x7def8f90 -->
<g id="edge5" class="edge"><title>Node0x7def8f10&#45;&gt;Node0x7def8f90</title>
<path fill="none" stroke="black" d="M213.706,-188.413C231.881,-178.731 254.754,-166.547 275.581,-155.453"/>
<polygon fill="black" stroke="black" points="277.491,-158.401 284.671,-150.611 274.2,-152.223 277.491,-158.401"/>
</g>
<!-- Node0x7def8eb0 -->
<g id="node6" class="node"><title>Node0x7def8eb0</title>
<polygon fill="none" stroke="black" points="305.75,-23.5 305.75,-59.5 359.75,-59.5 359.75,-23.5 305.75,-23.5"/>
<text text-anchor="start" x="313.75" y="-37.8" font-family="Times,serif" font-size="14.00">exit:</text>
</g>
<!-- Node0x7def8f90&#45;&gt;Node0x7def8eb0 -->
<g id="edge6" class="edge"><title>Node0x7def8f90&#45;&gt;Node0x7def8eb0</title>
<path fill="none" stroke="black" d="M332.75,-97.0862C332.75,-88.4596 332.75,-78.8224 332.75,-70.0748"/>
<polygon fill="black" stroke="black" points="336.25,-69.9735 332.75,-59.9735 329.25,-69.9735 336.25,-69.9735"/>
</g>
</g>
</svg>
