<?xml version="1.0" encoding="UTF-8" standalone="no"?>
<!DOCTYPE svg PUBLIC "-//W3C//DTD SVG 1.1//EN"
 "http://www.w3.org/Graphics/SVG/1.1/DTD/svg11.dtd">
<!-- Generated by graphviz version 2.38.0 (20140413.2041)
 -->
<!-- Title: Control&#45;flow graph for function &#39;function_40ed83()&#39;. Pages: 1 -->
<svg width="829pt" height="396pt"
 viewBox="0.00 0.00 829.00 396.00" xmlns="http://www.w3.org/2000/svg" xmlns:xlink="http://www.w3.org/1999/xlink">
<g id="graph0" class="graph" transform="scale(1 1) rotate(0) translate(4 392)">
<title>Control&#45;flow graph for function &#39;function_40ed83()&#39;.</title>
<polygon fill="white" stroke="none" points="-4,4 -4,-392 825,-392 825,4 -4,4"/>
<text text-anchor="middle" x="410.5" y="-7.8" font-family="Times,serif" font-size="14.00">Control&#45;flow graph for function &#39;function_40ed83()&#39;.</text>
<!-- Node0x9dc34860 -->
<g id="node1" class="node"><title>Node0x9dc34860</title>
<polygon fill="none" stroke="black" points="381,-351.5 381,-387.5 440,-387.5 440,-351.5 381,-351.5"/>
<text text-anchor="start" x="389" y="-365.8" font-family="Times,serif" font-size="14.00">entry:</text>
</g>
<!-- Node0x9dc34bc0 -->
<g id="node2" class="node"><title>Node0x9dc34bc0</title>
<polygon fill="none" stroke="black" points="-5.68434e-14,-96.5 -5.68434e-14,-314.5 821,-314.5 821,-96.5 -5.68434e-14,-96.5"/>
<text text-anchor="start" x="8" y="-299.3" font-family="Times,serif" font-size="14.00">v1 = g5</text>
<text text-anchor="start" x="8" y="-284.3" font-family="Times,serif" font-size="14.00"> g9 = v1</text>
<text text-anchor="start" x="8" y="-269.3" font-family="Times,serif" font-size="14.00"> v2 = (v1 + 20)</text>
<text text-anchor="start" x="8" y="-254.3" font-family="Times,serif" font-size="14.00"> g2 = v2</text>
<text text-anchor="start" x="8" y="-239.3" font-family="Times,serif" font-size="14.00"> v3 = *(IntToPtrCastExpr&lt;ptr&gt;((v1 + 148)))</text>
<text text-anchor="start" x="8" y="-224.3" font-family="Times,serif" font-size="14.00"> *(IntToPtrCastExpr&lt;ptr&gt;((v1 + 12))) = 1</text>
<text text-anchor="start" x="8" y="-209.3" font-family="Times,serif" font-size="14.00"> v4 = function_408a80(IntToPtrCastExpr&lt;ptr&gt;(v3), IntToPtrCastExpr&lt;ptr&gt;(v2), IntToPtrCastExpr&lt;ptr&gt;(128))</text>
<text text-anchor="start" x="8" y="-194.3" font-family="Times,serif" font-size="14.00"> result = (v4 != 0)</text>
<text text-anchor="start" x="8" y="-179.3" font-family="Times,serif" font-size="14.00"> g2 = (v4 != 0)</text>
<text text-anchor="start" x="8" y="-164.3" font-family="Times,serif" font-size="14.00"> g1 = (v4 != 0)</text>
<text text-anchor="start" x="8" y="-149.3" font-family="Times,serif" font-size="14.00"> g180 = (v4 == 0)</text>
<text text-anchor="start" x="8" y="-134.3" font-family="Times,serif" font-size="14.00"> *(IntToPtrCastExpr&lt;ptr&gt;((g9 + 16))) = result</text>
<text text-anchor="start" x="8" y="-119.3" font-family="Times,serif" font-size="14.00"> g9 = v3</text>
<text text-anchor="start" x="8" y="-104.3" font-family="Times,serif" font-size="14.00"> return result</text>
</g>
<!-- Node0x9dc34860&#45;&gt;Node0x9dc34bc0 -->
<g id="edge1" class="edge"><title>Node0x9dc34860&#45;&gt;Node0x9dc34bc0</title>
<path fill="none" stroke="black" d="M410.5,-351.469C410.5,-344.144 410.5,-334.901 410.5,-324.644"/>
<polygon fill="black" stroke="black" points="414,-324.529 410.5,-314.529 407,-324.529 414,-324.529"/>
</g>
<!-- Node0x9dc347c0 -->
<g id="node3" class="node"><title>Node0x9dc347c0</title>
<polygon fill="none" stroke="black" points="383.5,-23.5 383.5,-59.5 437.5,-59.5 437.5,-23.5 383.5,-23.5"/>
<text text-anchor="start" x="391.5" y="-37.8" font-family="Times,serif" font-size="14.00">exit:</text>
</g>
<!-- Node0x9dc34bc0&#45;&gt;Node0x9dc347c0 -->
<g id="edge2" class="edge"><title>Node0x9dc34bc0&#45;&gt;Node0x9dc347c0</title>
<path fill="none" stroke="black" d="M410.5,-96.4437C410.5,-86.8181 410.5,-77.7685 410.5,-69.9316"/>
<polygon fill="black" stroke="black" points="414,-69.7265 410.5,-59.7265 407,-69.7266 414,-69.7265"/>
</g>
</g>
</svg>
