<?xml version="1.0" encoding="UTF-8" standalone="no"?>
<!DOCTYPE svg PUBLIC "-//W3C//DTD SVG 1.1//EN"
 "http://www.w3.org/Graphics/SVG/1.1/DTD/svg11.dtd">
<!-- Generated by graphviz version 2.38.0 (20140413.2041)
 -->
<!-- Title: Control&#45;flow graph for function &#39;function_402de0(a1)&#39;. Pages: 1 -->
<svg width="961pt" height="781pt"
 viewBox="0.00 0.00 960.50 781.00" xmlns="http://www.w3.org/2000/svg" xmlns:xlink="http://www.w3.org/1999/xlink">
<g id="graph0" class="graph" transform="scale(1 1) rotate(0) translate(4 777)">
<title>Control&#45;flow graph for function &#39;function_402de0(a1)&#39;.</title>
<polygon fill="white" stroke="none" points="-4,4 -4,-777 956.5,-777 956.5,4 -4,4"/>
<text text-anchor="middle" x="476.25" y="-7.8" font-family="Times,serif" font-size="14.00">Control&#45;flow graph for function &#39;function_402de0(a1)&#39;.</text>
<!-- Node0x8dbedc90 -->
<g id="node1" class="node"><title>Node0x8dbedc90</title>
<polygon fill="none" stroke="black" points="211.5,-734.5 211.5,-772.5 270.5,-772.5 270.5,-734.5 211.5,-734.5"/>
<text text-anchor="start" x="219.5" y="-757.3" font-family="Times,serif" font-size="14.00">entry:</text>
<text text-anchor="start" x="219.5" y="-742.3" font-family="Times,serif" font-size="14.00"> a1</text>
</g>
<!-- Node0x8dbede30 -->
<g id="node2" class="node"><title>Node0x8dbede30</title>
<polygon fill="none" stroke="black" points="204.5,-628.5 204.5,-696.5 277.5,-696.5 277.5,-628.5 204.5,-628.5"/>
<text text-anchor="start" x="212.5" y="-681.3" font-family="Times,serif" font-size="14.00">v1 = g5</text>
<text text-anchor="start" x="212.5" y="-666.3" font-family="Times,serif" font-size="14.00"> v2</text>
<text text-anchor="start" x="212.5" y="-651.3" font-family="Times,serif" font-size="14.00"> v3</text>
<text text-anchor="start" x="212.5" y="-636.3" font-family="Times,serif" font-size="14.00"> v4</text>
</g>
<!-- Node0x8dbedc90&#45;&gt;Node0x8dbede30 -->
<g id="edge1" class="edge"><title>Node0x8dbedc90&#45;&gt;Node0x8dbede30</title>
<path fill="none" stroke="black" d="M241,-734.49C241,-726.422 241,-716.529 241,-706.718"/>
<polygon fill="black" stroke="black" points="244.5,-706.605 241,-696.605 237.5,-706.605 244.5,-706.605"/>
</g>
<!-- Node0x22271270 -->
<g id="node3" class="node"><title>Node0x22271270</title>
<polygon fill="none" stroke="black" points="188.5,-554.5 188.5,-590.5 293.5,-590.5 293.5,-554.5 188.5,-554.5"/>
<text text-anchor="start" x="196.5" y="-568.8" font-family="Times,serif" font-size="14.00">if (v1 == 0):</text>
</g>
<!-- Node0x8dbede30&#45;&gt;Node0x22271270 -->
<g id="edge2" class="edge"><title>Node0x8dbede30&#45;&gt;Node0x22271270</title>
<path fill="none" stroke="black" d="M241,-628.482C241,-619.328 241,-609.497 241,-600.715"/>
<polygon fill="black" stroke="black" points="244.5,-600.64 241,-590.64 237.5,-600.64 244.5,-600.64"/>
</g>
<!-- Node0x8dbedb00 -->
<g id="node4" class="node"><title>Node0x8dbedb00</title>
<polygon fill="none" stroke="black" points="0,-392.5 0,-445.5 342,-445.5 342,-392.5 0,-392.5"/>
<text text-anchor="start" x="8" y="-430.3" font-family="Times,serif" font-size="14.00">0x402de9:</text>
<text text-anchor="start" x="8" y="-415.3" font-family="Times,serif" font-size="14.00"> v4 = 0</text>
<text text-anchor="start" x="8" y="-400.3" font-family="Times,serif" font-size="14.00"> return function_4048b3(&amp;(v4), &amp;(v3), &amp;(v2))</text>
</g>
<!-- Node0x22271270&#45;&gt;Node0x8dbedb00 -->
<g id="edge3" class="edge"><title>Node0x22271270&#45;&gt;Node0x8dbedb00</title>
<path fill="none" stroke="black" d="M231.452,-554.304C228.342,-548.535 224.936,-542.034 222,-536 208.946,-509.17 195.41,-478.211 185.566,-455.027"/>
<polygon fill="black" stroke="black" points="188.7,-453.453 181.585,-445.602 182.252,-456.176 188.7,-453.453"/>
<text text-anchor="middle" x="252" y="-524.8" font-family="Times,serif" font-size="14.00">v1 == 0</text>
</g>
<!-- Node0x222713c0 -->
<g id="node5" class="node"><title>Node0x222713c0</title>
<polygon fill="none" stroke="black" points="257,-464.5 257,-502.5 443,-502.5 443,-464.5 257,-464.5"/>
<text text-anchor="start" x="265" y="-487.3" font-family="Times,serif" font-size="14.00">v5 = (4294967295 / v1)</text>
<text text-anchor="start" x="265" y="-472.3" font-family="Times,serif" font-size="14.00"> g2 = v5</text>
</g>
<!-- Node0x22271270&#45;&gt;Node0x222713c0 -->
<g id="edge4" class="edge"><title>Node0x22271270&#45;&gt;Node0x222713c0</title>
<path fill="none" stroke="black" d="M262.535,-554.312C278.783,-541.343 301.294,-523.376 319.409,-508.917"/>
<polygon fill="black" stroke="black" points="321.752,-511.525 327.384,-502.551 317.385,-506.054 321.752,-511.525"/>
<text text-anchor="middle" x="330" y="-524.8" font-family="Times,serif" font-size="14.00">v1 != 0</text>
</g>
<!-- Node0x8dbee6f0 -->
<g id="node6" class="node"><title>Node0x8dbee6f0</title>
<polygon fill="none" stroke="black" points="337,-23.5 337,-59.5 391,-59.5 391,-23.5 337,-23.5"/>
<text text-anchor="start" x="345" y="-37.8" font-family="Times,serif" font-size="14.00">exit:</text>
</g>
<!-- Node0x8dbedb00&#45;&gt;Node0x8dbee6f0 -->
<g id="edge5" class="edge"><title>Node0x8dbedb00&#45;&gt;Node0x8dbee6f0</title>
<path fill="none" stroke="black" d="M163.041,-392.193C146.503,-332.982 115.386,-185.658 184,-97 217.529,-53.6766 284.426,-43.731 326.551,-42.0212"/>
<polygon fill="black" stroke="black" points="326.789,-45.5161 336.691,-41.7486 326.601,-38.5187 326.789,-45.5161"/>
</g>
<!-- Node0x22271500 -->
<g id="node7" class="node"><title>Node0x22271500</title>
<polygon fill="none" stroke="black" points="308.5,-337.5 308.5,-373.5 419.5,-373.5 419.5,-337.5 308.5,-337.5"/>
<text text-anchor="start" x="316.5" y="-351.8" font-family="Times,serif" font-size="14.00">if (v5 &gt; 135):</text>
</g>
<!-- Node0x222713c0&#45;&gt;Node0x22271500 -->
<g id="edge6" class="edge"><title>Node0x222713c0&#45;&gt;Node0x22271500</title>
<path fill="none" stroke="black" d="M352.006,-464.447C354.351,-443.345 358.255,-408.205 360.97,-383.773"/>
<polygon fill="black" stroke="black" points="364.462,-384.036 362.088,-373.71 357.505,-383.263 364.462,-384.036"/>
</g>
<!-- Node0x394017e0 -->
<g id="node8" class="node"><title>Node0x394017e0</title>
<polygon fill="none" stroke="black" points="193,-165 193,-218 535,-218 535,-165 193,-165"/>
<text text-anchor="start" x="201" y="-202.8" font-family="Times,serif" font-size="14.00">0x402de9:</text>
<text text-anchor="start" x="201" y="-187.8" font-family="Times,serif" font-size="14.00"> v4 = (136 * v1)</text>
<text text-anchor="start" x="201" y="-172.8" font-family="Times,serif" font-size="14.00"> return function_4048b3(&amp;(v4), &amp;(v3), &amp;(v2))</text>
</g>
<!-- Node0x22271500&#45;&gt;Node0x394017e0 -->
<g id="edge7" class="edge"><title>Node0x22271500&#45;&gt;Node0x394017e0</title>
<path fill="none" stroke="black" d="M364,-337.469C364,-311.74 364,-262.368 364,-228.45"/>
<polygon fill="black" stroke="black" points="367.5,-228.03 364,-218.03 360.5,-228.03 367.5,-228.03"/>
<text text-anchor="middle" x="397" y="-307.8" font-family="Times,serif" font-size="14.00">v5 &gt; 135</text>
</g>
<!-- Node0x22271930 -->
<g id="node9" class="node"><title>Node0x22271930</title>
<polygon fill="none" stroke="black" points="553.5,-97.5 553.5,-285.5 952.5,-285.5 952.5,-97.5 553.5,-97.5"/>
<text text-anchor="start" x="561.5" y="-270.3" font-family="Times,serif" font-size="14.00">result = &amp;(v3)</text>
<text text-anchor="start" x="561.5" y="-255.3" font-family="Times,serif" font-size="14.00"> g2 = result</text>
<text text-anchor="start" x="561.5" y="-240.3" font-family="Times,serif" font-size="14.00"> v3 = 0</text>
<text text-anchor="start" x="561.5" y="-225.3" font-family="Times,serif" font-size="14.00"> _qm__qm_0exception_std__QAE_ABQBD_Z()</text>
<text text-anchor="start" x="561.5" y="-210.3" font-family="Times,serif" font-size="14.00"> g5 = result</text>
<text text-anchor="start" x="561.5" y="-195.3" font-family="Times,serif" font-size="14.00"> v3 = PtrToIntCastExpr&lt;int32&gt;(&amp;(vtable_43e72c))</text>
<text text-anchor="start" x="561.5" y="-180.3" font-family="Times,serif" font-size="14.00"> __CxxThrowException_8()</text>
<text text-anchor="start" x="561.5" y="-165.3" font-family="Times,serif" font-size="14.00"> g2 = 4473048</text>
<text text-anchor="start" x="561.5" y="-150.3" font-family="Times,serif" font-size="14.00"> g9 = result</text>
<text text-anchor="start" x="561.5" y="-135.3" font-family="Times,serif" font-size="14.00"> function_401520(IntToPtrCastExpr&lt;ptr&gt;(4473048))</text>
<text text-anchor="start" x="561.5" y="-120.3" font-family="Times,serif" font-size="14.00"> g9 = 4473048</text>
<text text-anchor="start" x="561.5" y="-105.3" font-family="Times,serif" font-size="14.00"> return result</text>
</g>
<!-- Node0x22271500&#45;&gt;Node0x22271930 -->
<g id="edge8" class="edge"><title>Node0x22271500&#45;&gt;Node0x22271930</title>
<path fill="none" stroke="black" d="M410.907,-337.484C447.401,-324.044 499.198,-304.529 544,-286 544.098,-285.96 544.195,-285.919 544.293,-285.879"/>
<polygon fill="black" stroke="black" points="545.543,-289.15 553.431,-282.077 542.854,-282.687 545.543,-289.15"/>
<text text-anchor="middle" x="533" y="-307.8" font-family="Times,serif" font-size="14.00">v5 &lt;= 135</text>
</g>
<!-- Node0x394017e0&#45;&gt;Node0x8dbee6f0 -->
<g id="edge9" class="edge"><title>Node0x394017e0&#45;&gt;Node0x8dbee6f0</title>
<path fill="none" stroke="black" d="M364,-164.72C364,-138.225 364,-97.1217 364,-70.0107"/>
<polygon fill="black" stroke="black" points="367.5,-69.6764 364,-59.6764 360.5,-69.6764 367.5,-69.6764"/>
</g>
<!-- Node0x22271930&#45;&gt;Node0x8dbee6f0 -->
<g id="edge10" class="edge"><title>Node0x22271930&#45;&gt;Node0x8dbee6f0</title>
<path fill="none" stroke="black" d="M553.269,-100.508C550.164,-99.3173 547.072,-98.1471 544,-97 495.35,-78.8359 437.673,-62.2055 400.964,-52.2142"/>
<polygon fill="black" stroke="black" points="401.757,-48.8032 391.191,-49.5764 399.933,-55.5613 401.757,-48.8032"/>
</g>
</g>
</svg>
