<?xml version="1.0" encoding="UTF-8" standalone="no"?>
<!DOCTYPE svg PUBLIC "-//W3C//DTD SVG 1.1//EN"
 "http://www.w3.org/Graphics/SVG/1.1/DTD/svg11.dtd">
<!-- Generated by graphviz version 2.38.0 (20140413.2041)
 -->
<!-- Title: Control&#45;flow graph for function &#39;function_4195b3(*a1)&#39;. Pages: 1 -->
<svg width="701pt" height="942pt"
 viewBox="0.00 0.00 701.00 942.00" xmlns="http://www.w3.org/2000/svg" xmlns:xlink="http://www.w3.org/1999/xlink">
<g id="graph0" class="graph" transform="scale(1 1) rotate(0) translate(4 938)">
<title>Control&#45;flow graph for function &#39;function_4195b3(*a1)&#39;.</title>
<polygon fill="white" stroke="none" points="-4,4 -4,-938 697,-938 697,4 -4,4"/>
<text text-anchor="middle" x="346.5" y="-7.8" font-family="Times,serif" font-size="14.00">Control&#45;flow graph for function &#39;function_4195b3(*a1)&#39;.</text>
<!-- Node0x1edc2a60 -->
<g id="node1" class="node"><title>Node0x1edc2a60</title>
<polygon fill="none" stroke="black" points="427.5,-895.5 427.5,-933.5 486.5,-933.5 486.5,-895.5 427.5,-895.5"/>
<text text-anchor="start" x="435.5" y="-918.3" font-family="Times,serif" font-size="14.00">entry:</text>
<text text-anchor="start" x="435.5" y="-903.3" font-family="Times,serif" font-size="14.00"> a1</text>
</g>
<!-- Node0x79096610 -->
<g id="node2" class="node"><title>Node0x79096610</title>
<polygon fill="none" stroke="black" points="297,-744.5 297,-857.5 617,-857.5 617,-744.5 297,-744.5"/>
<text text-anchor="start" x="305" y="-842.3" font-family="Times,serif" font-size="14.00">g9 = g5</text>
<text text-anchor="start" x="305" y="-827.3" font-family="Times,serif" font-size="14.00"> function_41939f()</text>
<text text-anchor="start" x="305" y="-812.3" font-family="Times,serif" font-size="14.00"> v1 = *(IntToPtrCastExpr&lt;ptr&gt;((g9 + 4)))</text>
<text text-anchor="start" x="305" y="-797.3" font-family="Times,serif" font-size="14.00"> v2 = IntToPtrCastExpr&lt;ptr&gt;(v1)</text>
<text text-anchor="start" x="305" y="-782.3" font-family="Times,serif" font-size="14.00"> g1 = False</text>
<text text-anchor="start" x="305" y="-767.3" font-family="Times,serif" font-size="14.00"> g180 = (v1 == 0)</text>
<text text-anchor="start" x="305" y="-752.3" font-family="Times,serif" font-size="14.00"> v3</text>
</g>
<!-- Node0x1edc2a60&#45;&gt;Node0x79096610 -->
<g id="edge1" class="edge"><title>Node0x1edc2a60&#45;&gt;Node0x79096610</title>
<path fill="none" stroke="black" d="M457,-895.088C457,-887.294 457,-877.699 457,-867.661"/>
<polygon fill="black" stroke="black" points="460.5,-867.525 457,-857.525 453.5,-867.525 460.5,-867.525"/>
</g>
<!-- Node0x790967c0 -->
<g id="node3" class="node"><title>Node0x790967c0</title>
<polygon fill="none" stroke="black" points="407.5,-670.5 407.5,-706.5 506.5,-706.5 506.5,-670.5 407.5,-670.5"/>
<text text-anchor="start" x="415.5" y="-684.8" font-family="Times,serif" font-size="14.00">if (v1 != 0):</text>
</g>
<!-- Node0x79096610&#45;&gt;Node0x790967c0 -->
<g id="edge2" class="edge"><title>Node0x79096610&#45;&gt;Node0x790967c0</title>
<path fill="none" stroke="black" d="M457,-744.426C457,-734.86 457,-725.307 457,-716.913"/>
<polygon fill="black" stroke="black" points="460.5,-716.644 457,-706.644 453.5,-716.644 460.5,-716.644"/>
</g>
<!-- Node0x27b87f00 -->
<g id="node4" class="node"><title>Node0x27b87f00</title>
<polygon fill="none" stroke="black" points="0,-535.5 0,-618.5 492,-618.5 492,-535.5 0,-535.5"/>
<text text-anchor="start" x="8" y="-603.3" font-family="Times,serif" font-size="14.00">v4 = v2[&#39;0&#39;]</text>
<text text-anchor="start" x="8" y="-588.3" font-family="Times,serif" font-size="14.00"> g5 = v4</text>
<text text-anchor="start" x="8" y="-573.3" font-family="Times,serif" font-size="14.00"> v3 = v2</text>
<text text-anchor="start" x="8" y="-558.3" font-family="Times,serif" font-size="14.00"> g10 = PtrToIntCastExpr&lt;int32&gt;(&amp;(v3))</text>
<text text-anchor="start" x="8" y="-543.3" font-family="Times,serif" font-size="14.00"> IntToPtrCastExpr&lt;ptr&gt;(*(IntToPtrCastExpr&lt;ptr&gt;((v4 + 8))))(v1)</text>
</g>
<!-- Node0x790967c0&#45;&gt;Node0x27b87f00 -->
<g id="edge3" class="edge"><title>Node0x790967c0&#45;&gt;Node0x27b87f00</title>
<path fill="none" stroke="black" d="M424.031,-670.391C399.664,-657.745 365.291,-639.907 333.238,-623.273"/>
<polygon fill="black" stroke="black" points="334.757,-620.118 324.269,-618.618 331.533,-626.331 334.757,-620.118"/>
<text text-anchor="middle" x="410" y="-640.8" font-family="Times,serif" font-size="14.00">v1 != 0</text>
</g>
<!-- Node0x79096840 -->
<g id="node5" class="node"><title>Node0x79096840</title>
<polygon fill="none" stroke="black" points="313.5,-414.5 313.5,-497.5 588.5,-497.5 588.5,-414.5 313.5,-414.5"/>
<text text-anchor="start" x="321.5" y="-482.3" font-family="Times,serif" font-size="14.00">v5 = *(IntToPtrCastExpr&lt;ptr&gt;(g9))</text>
<text text-anchor="start" x="321.5" y="-467.3" font-family="Times,serif" font-size="14.00"> g9 = v5</text>
<text text-anchor="start" x="321.5" y="-452.3" font-family="Times,serif" font-size="14.00"> g1 = False</text>
<text text-anchor="start" x="321.5" y="-437.3" font-family="Times,serif" font-size="14.00"> g180 = (v5 == 0)</text>
<text text-anchor="start" x="321.5" y="-422.3" font-family="Times,serif" font-size="14.00"> v6</text>
</g>
<!-- Node0x790967c0&#45;&gt;Node0x79096840 -->
<g id="edge4" class="edge"><title>Node0x790967c0&#45;&gt;Node0x79096840</title>
<path fill="none" stroke="black" d="M472.042,-670.304C482.428,-657.228 495.348,-638.258 501,-619 511.514,-583.178 511.497,-570.827 501,-535 498.151,-525.275 493.676,-515.613 488.548,-506.572"/>
<polygon fill="black" stroke="black" points="491.396,-504.517 483.238,-497.758 485.4,-508.13 491.396,-504.517"/>
<text text-anchor="middle" x="538" y="-573.3" font-family="Times,serif" font-size="14.00">v1 == 0</text>
</g>
<!-- Node0x27b87f00&#45;&gt;Node0x79096840 -->
<g id="edge5" class="edge"><title>Node0x27b87f00&#45;&gt;Node0x79096840</title>
<path fill="none" stroke="black" d="M315.976,-535.38C334.1,-524.859 353.737,-513.46 372.276,-502.698"/>
<polygon fill="black" stroke="black" points="374.1,-505.686 380.992,-497.639 370.586,-499.632 374.1,-505.686"/>
</g>
<!-- Node0x1edc4660 -->
<g id="node6" class="node"><title>Node0x1edc4660</title>
<polygon fill="none" stroke="black" points="401.5,-338.5 401.5,-376.5 500.5,-376.5 500.5,-338.5 401.5,-338.5"/>
<text text-anchor="start" x="409.5" y="-361.3" font-family="Times,serif" font-size="14.00">if (v5 != 0):</text>
<text text-anchor="start" x="409.5" y="-346.3" font-family="Times,serif" font-size="14.00"> else:</text>
</g>
<!-- Node0x79096840&#45;&gt;Node0x1edc4660 -->
<g id="edge6" class="edge"><title>Node0x79096840&#45;&gt;Node0x1edc4660</title>
<path fill="none" stroke="black" d="M451,-414.355C451,-405.083 451,-395.427 451,-386.803"/>
<polygon fill="black" stroke="black" points="454.5,-386.538 451,-376.538 447.5,-386.538 454.5,-386.538"/>
</g>
<!-- Node0x1edc3bb0 -->
<g id="node7" class="node"><title>Node0x1edc3bb0</title>
<polygon fill="none" stroke="black" points="111,-188.5 111,-286.5 603,-286.5 603,-188.5 111,-188.5"/>
<text text-anchor="start" x="119" y="-271.3" font-family="Times,serif" font-size="14.00">v7 = IntToPtrCastExpr&lt;ptr&gt;(v5)</text>
<text text-anchor="start" x="119" y="-256.3" font-family="Times,serif" font-size="14.00"> v8 = *(v7)</text>
<text text-anchor="start" x="119" y="-241.3" font-family="Times,serif" font-size="14.00"> v9 = v7</text>
<text text-anchor="start" x="119" y="-226.3" font-family="Times,serif" font-size="14.00"> g10 = PtrToIntCastExpr&lt;int32&gt;(&amp;(v9))</text>
<text text-anchor="start" x="119" y="-211.3" font-family="Times,serif" font-size="14.00"> IntToPtrCastExpr&lt;ptr&gt;(*(IntToPtrCastExpr&lt;ptr&gt;((v8 + 8))))(v5)</text>
<text text-anchor="start" x="119" y="-196.3" font-family="Times,serif" font-size="14.00"> v6 = IntToPtrCastExpr&lt;ptr&gt;(v8)</text>
</g>
<!-- Node0x1edc4660&#45;&gt;Node0x1edc3bb0 -->
<g id="edge7" class="edge"><title>Node0x1edc4660&#45;&gt;Node0x1edc3bb0</title>
<path fill="none" stroke="black" d="M436.519,-338.321C427.134,-326.54 414.356,-310.5 401.789,-294.724"/>
<polygon fill="black" stroke="black" points="404.224,-292.164 395.256,-286.523 398.749,-296.525 404.224,-292.164"/>
<text text-anchor="middle" x="448" y="-308.8" font-family="Times,serif" font-size="14.00">v5 != 0</text>
</g>
<!-- Node0x79096a60 -->
<g id="node8" class="node"><title>Node0x79096a60</title>
<polygon fill="none" stroke="black" points="621,-219.5 621,-255.5 693,-255.5 693,-219.5 621,-219.5"/>
<text text-anchor="start" x="629" y="-233.8" font-family="Times,serif" font-size="14.00">v6 = v2</text>
</g>
<!-- Node0x1edc4660&#45;&gt;Node0x79096a60 -->
<g id="edge8" class="edge"><title>Node0x1edc4660&#45;&gt;Node0x79096a60</title>
<path fill="none" stroke="black" d="M500.579,-341.14C533.904,-329.415 577.813,-311.158 612,-287 621.241,-280.47 630.034,-271.783 637.355,-263.567"/>
<polygon fill="black" stroke="black" points="640.054,-265.795 643.89,-255.919 634.733,-261.248 640.054,-265.795"/>
<text text-anchor="middle" x="609" y="-308.8" font-family="Times,serif" font-size="14.00">v5 == 0</text>
</g>
<!-- Node0x1edc3ac0 -->
<g id="node9" class="node"><title>Node0x1edc3ac0</title>
<polygon fill="none" stroke="black" points="397,-97.5 397,-150.5 685,-150.5 685,-97.5 397,-97.5"/>
<text text-anchor="start" x="405" y="-135.3" font-family="Times,serif" font-size="14.00">0x4195d4:</text>
<text text-anchor="start" x="405" y="-120.3" font-family="Times,serif" font-size="14.00"> g9 = PtrToIntCastExpr&lt;int32&gt;(v3)</text>
<text text-anchor="start" x="405" y="-105.3" font-family="Times,serif" font-size="14.00"> return PtrToIntCastExpr&lt;int32&gt;(v6)</text>
</g>
<!-- Node0x1edc3bb0&#45;&gt;Node0x1edc3ac0 -->
<g id="edge9" class="edge"><title>Node0x1edc3bb0&#45;&gt;Node0x1edc3ac0</title>
<path fill="none" stroke="black" d="M436.368,-188.405C454.504,-177.414 473.309,-166.019 489.889,-155.972"/>
<polygon fill="black" stroke="black" points="492.115,-158.716 498.853,-150.54 488.487,-152.729 492.115,-158.716"/>
</g>
<!-- Node0x79096a60&#45;&gt;Node0x1edc3ac0 -->
<g id="edge10" class="edge"><title>Node0x79096a60&#45;&gt;Node0x1edc3ac0</title>
<path fill="none" stroke="black" d="M641.567,-219.057C633.059,-209.649 622.183,-197.959 612,-188 601.572,-177.801 589.867,-167.123 579.014,-157.516"/>
<polygon fill="black" stroke="black" points="581.116,-154.704 571.293,-150.733 576.496,-159.963 581.116,-154.704"/>
</g>
<!-- Node0x79096590 -->
<g id="node10" class="node"><title>Node0x79096590</title>
<polygon fill="none" stroke="black" points="514,-23.5 514,-59.5 568,-59.5 568,-23.5 514,-23.5"/>
<text text-anchor="start" x="522" y="-37.8" font-family="Times,serif" font-size="14.00">exit:</text>
</g>
<!-- Node0x1edc3ac0&#45;&gt;Node0x79096590 -->
<g id="edge11" class="edge"><title>Node0x1edc3ac0&#45;&gt;Node0x79096590</title>
<path fill="none" stroke="black" d="M541,-97.0862C541,-88.4596 541,-78.8224 541,-70.0748"/>
<polygon fill="black" stroke="black" points="544.5,-69.9735 541,-59.9735 537.5,-69.9735 544.5,-69.9735"/>
</g>
</g>
</svg>
