<?xml version="1.0" encoding="UTF-8" standalone="no"?>
<!DOCTYPE svg PUBLIC "-//W3C//DTD SVG 1.1//EN"
 "http://www.w3.org/Graphics/SVG/1.1/DTD/svg11.dtd">
<!-- Generated by graphviz version 2.38.0 (20140413.2041)
 -->
<!-- Title: Control&#45;flow graph for function &#39;function_423ce7(a1, *a2, *a3, *a4)&#39;. Pages: 1 -->
<svg width="1686pt" height="642pt"
 viewBox="0.00 0.00 1685.50 642.00" xmlns="http://www.w3.org/2000/svg" xmlns:xlink="http://www.w3.org/1999/xlink">
<g id="graph0" class="graph" transform="scale(1 1) rotate(0) translate(4 638)">
<title>Control&#45;flow graph for function &#39;function_423ce7(a1, *a2, *a3, *a4)&#39;.</title>
<polygon fill="white" stroke="none" points="-4,4 -4,-638 1681.5,-638 1681.5,4 -4,4"/>
<text text-anchor="middle" x="838.75" y="-7.8" font-family="Times,serif" font-size="14.00">Control&#45;flow graph for function &#39;function_423ce7(a1, *a2, *a3, *a4)&#39;.</text>
<!-- Node0xc5a62ff0 -->
<g id="node1" class="node"><title>Node0xc5a62ff0</title>
<polygon fill="none" stroke="black" points="589,-550.5 589,-633.5 648,-633.5 648,-550.5 589,-550.5"/>
<text text-anchor="start" x="597" y="-618.3" font-family="Times,serif" font-size="14.00">entry:</text>
<text text-anchor="start" x="597" y="-603.3" font-family="Times,serif" font-size="14.00"> a1</text>
<text text-anchor="start" x="597" y="-588.3" font-family="Times,serif" font-size="14.00"> a2</text>
<text text-anchor="start" x="597" y="-573.3" font-family="Times,serif" font-size="14.00"> a3</text>
<text text-anchor="start" x="597" y="-558.3" font-family="Times,serif" font-size="14.00"> a4</text>
</g>
<!-- Node0x3049f020 -->
<g id="node2" class="node"><title>Node0x3049f020</title>
<polygon fill="none" stroke="black" points="527.5,-399.5 527.5,-512.5 709.5,-512.5 709.5,-399.5 527.5,-399.5"/>
<text text-anchor="start" x="535.5" y="-497.3" font-family="Times,serif" font-size="14.00">v1 = g3</text>
<text text-anchor="start" x="535.5" y="-482.3" font-family="Times,serif" font-size="14.00"> g3 = &amp;(v1)</text>
<text text-anchor="start" x="535.5" y="-467.3" font-family="Times,serif" font-size="14.00"> v2 = g9</text>
<text text-anchor="start" x="535.5" y="-452.3" font-family="Times,serif" font-size="14.00"> g9 = 0</text>
<text text-anchor="start" x="535.5" y="-437.3" font-family="Times,serif" font-size="14.00"> g1 = False</text>
<text text-anchor="start" x="535.5" y="-422.3" font-family="Times,serif" font-size="14.00"> g180 = (a2 == NULL)</text>
<text text-anchor="start" x="535.5" y="-407.3" font-family="Times,serif" font-size="14.00"> v3</text>
</g>
<!-- Node0xc5a62ff0&#45;&gt;Node0x3049f020 -->
<g id="edge1" class="edge"><title>Node0xc5a62ff0&#45;&gt;Node0x3049f020</title>
<path fill="none" stroke="black" d="M618.5,-550.432C618.5,-541.72 618.5,-532.299 618.5,-522.906"/>
<polygon fill="black" stroke="black" points="622,-522.759 618.5,-512.759 615,-522.759 622,-522.759"/>
</g>
<!-- Node0xc5a5f340 -->
<g id="node3" class="node"><title>Node0xc5a5f340</title>
<polygon fill="none" stroke="black" points="548.5,-323.5 548.5,-361.5 688.5,-361.5 688.5,-323.5 548.5,-323.5"/>
<text text-anchor="start" x="556.5" y="-346.3" font-family="Times,serif" font-size="14.00">if (a2 == NULL):</text>
<text text-anchor="start" x="556.5" y="-331.3" font-family="Times,serif" font-size="14.00"> else:</text>
</g>
<!-- Node0x3049f020&#45;&gt;Node0xc5a5f340 -->
<g id="edge2" class="edge"><title>Node0x3049f020&#45;&gt;Node0xc5a5f340</title>
<path fill="none" stroke="black" d="M618.5,-399.25C618.5,-389.862 618.5,-380.474 618.5,-372.151"/>
<polygon fill="black" stroke="black" points="622,-371.912 618.5,-361.912 615,-371.912 622,-371.912"/>
</g>
<!-- Node0x2fa41c90 -->
<g id="node4" class="node"><title>Node0x2fa41c90</title>
<polygon fill="none" stroke="black" points="0,-203.5 0,-271.5 389,-271.5 389,-203.5 0,-203.5"/>
<text text-anchor="start" x="8" y="-256.3" font-family="Times,serif" font-size="14.00">0x423cf5:</text>
<text text-anchor="start" x="8" y="-241.3" font-family="Times,serif" font-size="14.00"> *(IntToPtrCastExpr&lt;ptr&gt;(function_4240f6())) = 22</text>
<text text-anchor="start" x="8" y="-226.3" font-family="Times,serif" font-size="14.00"> __invalid_parameter()</text>
<text text-anchor="start" x="8" y="-211.3" font-family="Times,serif" font-size="14.00"> v3 = IntToPtrCastExpr&lt;ptr&gt;(&#45;1)</text>
</g>
<!-- Node0xc5a5f340&#45;&gt;Node0x2fa41c90 -->
<g id="edge3" class="edge"><title>Node0xc5a5f340&#45;&gt;Node0x2fa41c90</title>
<path fill="none" stroke="black" d="M548.485,-324.492C492.099,-310.794 410.913,-291.072 340.511,-273.97"/>
<polygon fill="black" stroke="black" points="341.196,-270.534 330.652,-271.575 339.543,-277.336 341.196,-270.534"/>
<text text-anchor="middle" x="504.5" y="-293.8" font-family="Times,serif" font-size="14.00">a2 == NULL</text>
</g>
<!-- Node0xc5a61190 -->
<g id="node5" class="node"><title>Node0xc5a61190</title>
<polygon fill="none" stroke="black" points="407.5,-203.5 407.5,-271.5 1677.5,-271.5 1677.5,-203.5 407.5,-203.5"/>
<text text-anchor="start" x="415.5" y="-256.3" font-family="Times,serif" font-size="14.00">v4 = NULL</text>
<text text-anchor="start" x="415.5" y="-241.3" font-family="Times,serif" font-size="14.00"> v5</text>
<text text-anchor="start" x="415.5" y="-226.3" font-family="Times,serif" font-size="14.00"> IntToPtrCastExpr&lt;ptr&gt;(a1)(PtrToIntCastExpr&lt;int32&gt;(v5), PtrToIntCastExpr&lt;int32&gt;(a2), PtrToIntCastExpr&lt;int32&gt;(a3), PtrToIntCastExpr&lt;int32&gt;(a4), v2, 0, 2147483647)</text>
<text text-anchor="start" x="415.5" y="-211.3" font-family="Times,serif" font-size="14.00"> v3 = BitCastExpr&lt;ptr&gt;(&amp;(v4))</text>
</g>
<!-- Node0xc5a5f340&#45;&gt;Node0xc5a61190 -->
<g id="edge4" class="edge"><title>Node0xc5a5f340&#45;&gt;Node0xc5a61190</title>
<path fill="none" stroke="black" d="M688.515,-324.492C744.901,-310.794 826.087,-291.072 896.489,-273.97"/>
<polygon fill="black" stroke="black" points="897.457,-277.336 906.348,-271.575 895.804,-270.534 897.457,-277.336"/>
<text text-anchor="middle" x="874.5" y="-293.8" font-family="Times,serif" font-size="14.00">a2 != NULL</text>
</g>
<!-- Node0x2fa41ae0 -->
<g id="node6" class="node"><title>Node0x2fa41ae0</title>
<polygon fill="none" stroke="black" points="576.5,-97.5 576.5,-165.5 864.5,-165.5 864.5,-97.5 576.5,-97.5"/>
<text text-anchor="start" x="584.5" y="-150.3" font-family="Times,serif" font-size="14.00">0x423d39:</text>
<text text-anchor="start" x="584.5" y="-135.3" font-family="Times,serif" font-size="14.00"> g9 = v2</text>
<text text-anchor="start" x="584.5" y="-120.3" font-family="Times,serif" font-size="14.00"> g3 = v1</text>
<text text-anchor="start" x="584.5" y="-105.3" font-family="Times,serif" font-size="14.00"> return PtrToIntCastExpr&lt;int32&gt;(v3)</text>
</g>
<!-- Node0x2fa41c90&#45;&gt;Node0x2fa41ae0 -->
<g id="edge5" class="edge"><title>Node0x2fa41c90&#45;&gt;Node0x2fa41ae0</title>
<path fill="none" stroke="black" d="M361.652,-203.451C427.32,-190.467 502.223,-175.657 566.549,-162.939"/>
<polygon fill="black" stroke="black" points="567.238,-166.371 576.369,-160.997 565.88,-159.503 567.238,-166.371"/>
</g>
<!-- Node0xc5a61190&#45;&gt;Node0x2fa41ae0 -->
<g id="edge6" class="edge"><title>Node0xc5a61190&#45;&gt;Node0x2fa41ae0</title>
<path fill="none" stroke="black" d="M940.175,-203.451C905.92,-192.387 867.56,-179.998 832.6,-168.706"/>
<polygon fill="black" stroke="black" points="833.427,-165.295 822.835,-165.552 831.275,-171.956 833.427,-165.295"/>
</g>
<!-- Node0x2939fce0 -->
<g id="node7" class="node"><title>Node0x2939fce0</title>
<polygon fill="none" stroke="black" points="693.5,-23.5 693.5,-59.5 747.5,-59.5 747.5,-23.5 693.5,-23.5"/>
<text text-anchor="start" x="701.5" y="-37.8" font-family="Times,serif" font-size="14.00">exit:</text>
</g>
<!-- Node0x2fa41ae0&#45;&gt;Node0x2939fce0 -->
<g id="edge7" class="edge"><title>Node0x2fa41ae0&#45;&gt;Node0x2939fce0</title>
<path fill="none" stroke="black" d="M720.5,-97.4817C720.5,-88.3281 720.5,-78.4972 720.5,-69.7155"/>
<polygon fill="black" stroke="black" points="724,-69.6402 720.5,-59.6402 717,-69.6403 724,-69.6402"/>
</g>
</g>
</svg>
