<?xml version="1.0" encoding="UTF-8" standalone="no"?>
<!DOCTYPE svg PUBLIC "-//W3C//DTD SVG 1.1//EN"
 "http://www.w3.org/Graphics/SVG/1.1/DTD/svg11.dtd">
<!-- Generated by graphviz version 2.38.0 (20140413.2041)
 -->
<!-- Title: Control&#45;flow graph for function &#39;function_4159f6(a1, *a2, *a3, *a4, *a5, *a6, *a7)&#39;. Pages: 1 -->
<svg width="1177pt" height="1109pt"
 viewBox="0.00 0.00 1177.00 1109.00" xmlns="http://www.w3.org/2000/svg" xmlns:xlink="http://www.w3.org/1999/xlink">
<g id="graph0" class="graph" transform="scale(1 1) rotate(0) translate(4 1105)">
<title>Control&#45;flow graph for function &#39;function_4159f6(a1, *a2, *a3, *a4, *a5, *a6, *a7)&#39;.</title>
<polygon fill="white" stroke="none" points="-4,4 -4,-1105 1173,-1105 1173,4 -4,4"/>
<text text-anchor="middle" x="584.5" y="-7.8" font-family="Times,serif" font-size="14.00">Control&#45;flow graph for function &#39;function_4159f6(a1, *a2, *a3, *a4, *a5, *a6, *a7)&#39;.</text>
<!-- Node0x88152790 -->
<g id="node1" class="node"><title>Node0x88152790</title>
<polygon fill="none" stroke="black" points="435,-972.5 435,-1100.5 494,-1100.5 494,-972.5 435,-972.5"/>
<text text-anchor="start" x="443" y="-1085.3" font-family="Times,serif" font-size="14.00">entry:</text>
<text text-anchor="start" x="443" y="-1070.3" font-family="Times,serif" font-size="14.00"> a1</text>
<text text-anchor="start" x="443" y="-1055.3" font-family="Times,serif" font-size="14.00"> a2</text>
<text text-anchor="start" x="443" y="-1040.3" font-family="Times,serif" font-size="14.00"> a3</text>
<text text-anchor="start" x="443" y="-1025.3" font-family="Times,serif" font-size="14.00"> a4</text>
<text text-anchor="start" x="443" y="-1010.3" font-family="Times,serif" font-size="14.00"> a5</text>
<text text-anchor="start" x="443" y="-995.3" font-family="Times,serif" font-size="14.00"> a6</text>
<text text-anchor="start" x="443" y="-980.3" font-family="Times,serif" font-size="14.00"> a7</text>
</g>
<!-- Node0x881566b0 -->
<g id="node2" class="node"><title>Node0x881566b0</title>
<polygon fill="none" stroke="black" points="326.5,-806.5 326.5,-934.5 602.5,-934.5 602.5,-806.5 326.5,-806.5"/>
<text text-anchor="start" x="334.5" y="-919.3" font-family="Times,serif" font-size="14.00">v1</text>
<text text-anchor="start" x="334.5" y="-904.3" font-family="Times,serif" font-size="14.00"> g3 = &amp;(v1)</text>
<text text-anchor="start" x="334.5" y="-889.3" font-family="Times,serif" font-size="14.00"> v2 = PtrToIntCastExpr&lt;int32&gt;(a6)</text>
<text text-anchor="start" x="334.5" y="-874.3" font-family="Times,serif" font-size="14.00"> g2 = v2</text>
<text text-anchor="start" x="334.5" y="-859.3" font-family="Times,serif" font-size="14.00"> v3 = g9</text>
<text text-anchor="start" x="334.5" y="-844.3" font-family="Times,serif" font-size="14.00"> v4 = g5</text>
<text text-anchor="start" x="334.5" y="-829.3" font-family="Times,serif" font-size="14.00"> g9 = v4</text>
<text text-anchor="start" x="334.5" y="-814.3" font-family="Times,serif" font-size="14.00"> v5</text>
</g>
<!-- Node0x88152790&#45;&gt;Node0x881566b0 -->
<g id="edge1" class="edge"><title>Node0x88152790&#45;&gt;Node0x881566b0</title>
<path fill="none" stroke="black" d="M464.5,-972.093C464.5,-963.187 464.5,-953.971 464.5,-944.898"/>
<polygon fill="black" stroke="black" points="468,-944.738 464.5,-934.738 461,-944.738 468,-944.738"/>
</g>
<!-- Node0x881561a0 -->
<g id="node3" class="node"><title>Node0x881561a0</title>
<polygon fill="none" stroke="black" points="394.5,-730.5 394.5,-768.5 534.5,-768.5 534.5,-730.5 394.5,-730.5"/>
<text text-anchor="start" x="402.5" y="-753.3" font-family="Times,serif" font-size="14.00">if (a6 == NULL):</text>
<text text-anchor="start" x="402.5" y="-738.3" font-family="Times,serif" font-size="14.00"> else:</text>
</g>
<!-- Node0x881566b0&#45;&gt;Node0x881561a0 -->
<g id="edge2" class="edge"><title>Node0x881566b0&#45;&gt;Node0x881561a0</title>
<path fill="none" stroke="black" d="M464.5,-806.167C464.5,-796.596 464.5,-787.158 464.5,-778.848"/>
<polygon fill="black" stroke="black" points="468,-778.658 464.5,-768.659 461,-778.659 468,-778.658"/>
</g>
<!-- Node0x88156df0 -->
<g id="node4" class="node"><title>Node0x88156df0</title>
<polygon fill="none" stroke="black" points="297,-640.5 297,-678.5 388,-678.5 388,-640.5 297,-640.5"/>
<text text-anchor="start" x="305" y="-663.3" font-family="Times,serif" font-size="14.00">0x415a0a:</text>
<text text-anchor="start" x="305" y="-648.3" font-family="Times,serif" font-size="14.00"> v5 = 0</text>
</g>
<!-- Node0x881561a0&#45;&gt;Node0x88156df0 -->
<g id="edge3" class="edge"><title>Node0x881561a0&#45;&gt;Node0x88156df0</title>
<path fill="none" stroke="black" d="M439.517,-730.48C421.218,-717.28 396.181,-699.22 376.125,-684.754"/>
<polygon fill="black" stroke="black" points="378.027,-681.81 367.869,-678.799 373.932,-687.487 378.027,-681.81"/>
<text text-anchor="middle" x="458.5" y="-700.8" font-family="Times,serif" font-size="14.00">a6 == NULL</text>
</g>
<!-- Node0x88156780 -->
<g id="node5" class="node"><title>Node0x88156780</title>
<polygon fill="none" stroke="black" points="406.5,-640.5 406.5,-678.5 766.5,-678.5 766.5,-640.5 406.5,-640.5"/>
<text text-anchor="start" x="414.5" y="-663.3" font-family="Times,serif" font-size="14.00">0x415a05:</text>
<text text-anchor="start" x="414.5" y="-648.3" font-family="Times,serif" font-size="14.00"> v5 = (v2 &#45; *(IntToPtrCastExpr&lt;ptr&gt;((v4 + 8))))</text>
</g>
<!-- Node0x881561a0&#45;&gt;Node0x88156780 -->
<g id="edge4" class="edge"><title>Node0x881561a0&#45;&gt;Node0x88156780</title>
<path fill="none" stroke="black" d="M489.483,-730.48C507.782,-717.28 532.819,-699.22 552.875,-684.754"/>
<polygon fill="black" stroke="black" points="555.068,-687.487 561.131,-678.799 550.973,-681.81 555.068,-687.487"/>
<text text-anchor="middle" x="577.5" y="-700.8" font-family="Times,serif" font-size="14.00">a6 != NULL</text>
</g>
<!-- Node0x881569b0 -->
<g id="node6" class="node"><title>Node0x881569b0</title>
<polygon fill="none" stroke="black" points="446,-534.5 446,-602.5 537,-602.5 537,-534.5 446,-534.5"/>
<text text-anchor="start" x="454" y="-587.3" font-family="Times,serif" font-size="14.00">0x415a0c:</text>
<text text-anchor="start" x="454" y="-572.3" font-family="Times,serif" font-size="14.00"> g2 = v5</text>
<text text-anchor="start" x="454" y="-557.3" font-family="Times,serif" font-size="14.00"> v6</text>
<text text-anchor="start" x="454" y="-542.3" font-family="Times,serif" font-size="14.00"> v7</text>
</g>
<!-- Node0x88156df0&#45;&gt;Node0x881569b0 -->
<g id="edge5" class="edge"><title>Node0x88156df0&#45;&gt;Node0x881569b0</title>
<path fill="none" stroke="black" d="M372.652,-640.49C391.113,-629.463 415.285,-615.024 437.006,-602.05"/>
<polygon fill="black" stroke="black" points="439.033,-604.916 445.824,-596.783 435.444,-598.906 439.033,-604.916"/>
</g>
<!-- Node0x88156780&#45;&gt;Node0x881569b0 -->
<g id="edge6" class="edge"><title>Node0x88156780&#45;&gt;Node0x881569b0</title>
<path fill="none" stroke="black" d="M567.275,-640.49C557.758,-631.573 545.859,-620.425 534.33,-609.625"/>
<polygon fill="black" stroke="black" points="536.527,-606.887 526.837,-602.605 531.741,-611.996 536.527,-606.887"/>
</g>
<!-- Node0x88156a10 -->
<g id="node7" class="node"><title>Node0x88156a10</title>
<polygon fill="none" stroke="black" points="421.5,-458.5 421.5,-496.5 561.5,-496.5 561.5,-458.5 421.5,-458.5"/>
<text text-anchor="start" x="429.5" y="-481.3" font-family="Times,serif" font-size="14.00">if (a5 == NULL):</text>
<text text-anchor="start" x="429.5" y="-466.3" font-family="Times,serif" font-size="14.00"> else:</text>
</g>
<!-- Node0x881569b0&#45;&gt;Node0x88156a10 -->
<g id="edge7" class="edge"><title>Node0x881569b0&#45;&gt;Node0x88156a10</title>
<path fill="none" stroke="black" d="M491.5,-534.36C491.5,-525.365 491.5,-515.707 491.5,-506.993"/>
<polygon fill="black" stroke="black" points="495,-506.941 491.5,-496.941 488,-506.941 495,-506.941"/>
</g>
<!-- Node0x15cb8010 -->
<g id="node8" class="node"><title>Node0x15cb8010</title>
<polygon fill="none" stroke="black" points="228,-353.5 228,-406.5 529,-406.5 529,-353.5 228,-353.5"/>
<text text-anchor="start" x="236" y="-391.3" font-family="Times,serif" font-size="14.00">0x415a18:</text>
<text text-anchor="start" x="236" y="-376.3" font-family="Times,serif" font-size="14.00"> v6 = IntToPtrCastExpr&lt;ptr&gt;((v4 + 8))</text>
<text text-anchor="start" x="236" y="-361.3" font-family="Times,serif" font-size="14.00"> v7 = 0</text>
</g>
<!-- Node0x88156a10&#45;&gt;Node0x15cb8010 -->
<g id="edge8" class="edge"><title>Node0x88156a10&#45;&gt;Node0x15cb8010</title>
<path fill="none" stroke="black" d="M469.98,-458.312C454.986,-445.641 434.575,-428.391 416.837,-413.4"/>
<polygon fill="black" stroke="black" points="418.801,-410.477 408.904,-406.695 414.282,-415.823 418.801,-410.477"/>
<text text-anchor="middle" x="492.5" y="-428.8" font-family="Times,serif" font-size="14.00">a5 == NULL</text>
</g>
<!-- Node0x88157110 -->
<g id="node9" class="node"><title>Node0x88157110</title>
<polygon fill="none" stroke="black" points="547,-353.5 547,-406.5 882,-406.5 882,-353.5 547,-353.5"/>
<text text-anchor="start" x="555" y="-391.3" font-family="Times,serif" font-size="14.00">v8 = IntToPtrCastExpr&lt;ptr&gt;((v4 + 8))</text>
<text text-anchor="start" x="555" y="-376.3" font-family="Times,serif" font-size="14.00"> v6 = v8</text>
<text text-anchor="start" x="555" y="-361.3" font-family="Times,serif" font-size="14.00"> v7 = (PtrToIntCastExpr&lt;int32&gt;(a5) &#45; *(v8))</text>
</g>
<!-- Node0x88156a10&#45;&gt;Node0x88157110 -->
<g id="edge9" class="edge"><title>Node0x88156a10&#45;&gt;Node0x88157110</title>
<path fill="none" stroke="black" d="M533.707,-458.425C565.119,-444.973 608.687,-426.314 645.183,-410.685"/>
<polygon fill="black" stroke="black" points="646.97,-413.728 654.784,-406.573 644.214,-407.293 646.97,-413.728"/>
<text text-anchor="middle" x="653.5" y="-428.8" font-family="Times,serif" font-size="14.00">a5 != NULL</text>
</g>
<!-- Node0x88156bc0 -->
<g id="node10" class="node"><title>Node0x88156bc0</title>
<polygon fill="none" stroke="black" points="0,-97.5 0,-315.5 1169,-315.5 1169,-97.5 0,-97.5"/>
<text text-anchor="start" x="8" y="-300.3" font-family="Times,serif" font-size="14.00">v9 = PtrToIntCastExpr&lt;int32&gt;(a4)</text>
<text text-anchor="start" x="8" y="-285.3" font-family="Times,serif" font-size="14.00"> g2 = v9</text>
<text text-anchor="start" x="8" y="-270.3" font-family="Times,serif" font-size="14.00"> v10 = (v9 &#45; *(v6))</text>
<text text-anchor="start" x="8" y="-255.3" font-family="Times,serif" font-size="14.00"> g2 = v10</text>
<text text-anchor="start" x="8" y="-240.3" font-family="Times,serif" font-size="14.00"> v11 = (52 * *(IntToPtrCastExpr&lt;ptr&gt;((v4 + 20))))</text>
<text text-anchor="start" x="8" y="-225.3" font-family="Times,serif" font-size="14.00"> g2 = v11</text>
<text text-anchor="start" x="8" y="-210.3" font-family="Times,serif" font-size="14.00"> v12 = (*(IntToPtrCastExpr&lt;ptr&gt;((v4 + 12))) + v11)</text>
<text text-anchor="start" x="8" y="-195.3" font-family="Times,serif" font-size="14.00"> g2 = v12</text>
<text text-anchor="start" x="8" y="-180.3" font-family="Times,serif" font-size="14.00"> result = function_41585a(IntToPtrCastExpr&lt;ptr&gt;(v12), a1, a2, a3, NULL, NULL, NULL, v10, IntToPtrCastExpr&lt;ptr&gt;(v7), IntToPtrCastExpr&lt;ptr&gt;(v5), NULL)</text>
<text text-anchor="start" x="8" y="-165.3" font-family="Times,serif" font-size="14.00"> v13 = IntToPtrCastExpr&lt;ptr&gt;((g9 + 20))</text>
<text text-anchor="start" x="8" y="-150.3" font-family="Times,serif" font-size="14.00"> *(v13) = (*(v13) + 1)</text>
<text text-anchor="start" x="8" y="-135.3" font-family="Times,serif" font-size="14.00"> g9 = v3</text>
<text text-anchor="start" x="8" y="-120.3" font-family="Times,serif" font-size="14.00"> g3 = v1</text>
<text text-anchor="start" x="8" y="-105.3" font-family="Times,serif" font-size="14.00"> return result</text>
</g>
<!-- Node0x15cb8010&#45;&gt;Node0x88156bc0 -->
<g id="edge10" class="edge"><title>Node0x15cb8010&#45;&gt;Node0x88156bc0</title>
<path fill="none" stroke="black" d="M409.34,-353.325C420.136,-344.337 433.058,-333.579 446.926,-322.034"/>
<polygon fill="black" stroke="black" points="449.274,-324.633 454.72,-315.545 444.795,-319.254 449.274,-324.633"/>
</g>
<!-- Node0x88157110&#45;&gt;Node0x88156bc0 -->
<g id="edge11" class="edge"><title>Node0x88157110&#45;&gt;Node0x88156bc0</title>
<path fill="none" stroke="black" d="M695.038,-353.325C688.54,-344.753 680.822,-334.571 672.53,-323.632"/>
<polygon fill="black" stroke="black" points="675.23,-321.4 666.4,-315.545 669.652,-325.629 675.23,-321.4"/>
</g>
<!-- Node0x88156630 -->
<g id="node11" class="node"><title>Node0x88156630</title>
<polygon fill="none" stroke="black" points="557.5,-23.5 557.5,-59.5 611.5,-59.5 611.5,-23.5 557.5,-23.5"/>
<text text-anchor="start" x="565.5" y="-37.8" font-family="Times,serif" font-size="14.00">exit:</text>
</g>
<!-- Node0x88156bc0&#45;&gt;Node0x88156630 -->
<g id="edge12" class="edge"><title>Node0x88156bc0&#45;&gt;Node0x88156630</title>
<path fill="none" stroke="black" d="M584.5,-97.2301C584.5,-87.2044 584.5,-77.7868 584.5,-69.684"/>
<polygon fill="black" stroke="black" points="588,-69.516 584.5,-59.516 581,-69.5161 588,-69.516"/>
</g>
</g>
</svg>
