<?xml version="1.0" encoding="UTF-8" standalone="no"?>
<!DOCTYPE svg PUBLIC "-//W3C//DTD SVG 1.1//EN"
 "http://www.w3.org/Graphics/SVG/1.1/DTD/svg11.dtd">
<!-- Generated by graphviz version 2.38.0 (20140413.2041)
 -->
<!-- Title: Control&#45;flow graph for function &#39;function_40a8f9(a1)&#39;. Pages: 1 -->
<svg width="677pt" height="792pt"
 viewBox="0.00 0.00 676.50 792.00" xmlns="http://www.w3.org/2000/svg" xmlns:xlink="http://www.w3.org/1999/xlink">
<g id="graph0" class="graph" transform="scale(1 1) rotate(0) translate(4 788)">
<title>Control&#45;flow graph for function &#39;function_40a8f9(a1)&#39;.</title>
<polygon fill="white" stroke="none" points="-4,4 -4,-788 672.5,-788 672.5,4 -4,4"/>
<text text-anchor="middle" x="334.25" y="-7.8" font-family="Times,serif" font-size="14.00">Control&#45;flow graph for function &#39;function_40a8f9(a1)&#39;.</text>
<!-- Node0x399cb860 -->
<g id="node1" class="node"><title>Node0x399cb860</title>
<polygon fill="none" stroke="black" points="192,-745.5 192,-783.5 251,-783.5 251,-745.5 192,-745.5"/>
<text text-anchor="start" x="200" y="-768.3" font-family="Times,serif" font-size="14.00">entry:</text>
<text text-anchor="start" x="200" y="-753.3" font-family="Times,serif" font-size="14.00"> a1</text>
</g>
<!-- Node0x399cb400 -->
<g id="node2" class="node"><title>Node0x399cb400</title>
<polygon fill="none" stroke="black" points="0,-384.5 0,-707.5 443,-707.5 443,-384.5 0,-384.5"/>
<text text-anchor="start" x="8" y="-692.3" font-family="Times,serif" font-size="14.00">v1 = 8</text>
<text text-anchor="start" x="8" y="-677.3" font-family="Times,serif" font-size="14.00"> g2 = 4418654</text>
<text text-anchor="start" x="8" y="-662.3" font-family="Times,serif" font-size="14.00"> __EH_prolog3()</text>
<text text-anchor="start" x="8" y="-647.3" font-family="Times,serif" font-size="14.00"> v2 = g3</text>
<text text-anchor="start" x="8" y="-632.3" font-family="Times,serif" font-size="14.00"> v3 = *(IntToPtrCastExpr&lt;ptr&gt;((v2 + 8)))</text>
<text text-anchor="start" x="8" y="-617.3" font-family="Times,serif" font-size="14.00"> g9 = v3</text>
<text text-anchor="start" x="8" y="-602.3" font-family="Times,serif" font-size="14.00"> v4 = *(IntToPtrCastExpr&lt;ptr&gt;((v3 &#45; 24)))</text>
<text text-anchor="start" x="8" y="-587.3" font-family="Times,serif" font-size="14.00"> g9 = (v3 &#45; 52)</text>
<text text-anchor="start" x="8" y="-572.3" font-family="Times,serif" font-size="14.00"> g5 = (v2 &#45; 20)</text>
<text text-anchor="start" x="8" y="-557.3" font-family="Times,serif" font-size="14.00"> function_410276(IntToPtrCastExpr&lt;ptr&gt;(v4), &amp;(v1))</text>
<text text-anchor="start" x="8" y="-542.3" font-family="Times,serif" font-size="14.00"> v5 = g3</text>
<text text-anchor="start" x="8" y="-527.3" font-family="Times,serif" font-size="14.00"> v6 = *(IntToPtrCastExpr&lt;ptr&gt;((v5 + 16)))</text>
<text text-anchor="start" x="8" y="-512.3" font-family="Times,serif" font-size="14.00"> *(IntToPtrCastExpr&lt;ptr&gt;((v5 &#45; 4))) = 0</text>
<text text-anchor="start" x="8" y="-497.3" font-family="Times,serif" font-size="14.00"> v7 = *(IntToPtrCastExpr&lt;ptr&gt;((g3 + 12)))</text>
<text text-anchor="start" x="8" y="-482.3" font-family="Times,serif" font-size="14.00"> v8 = v7</text>
<text text-anchor="start" x="8" y="-467.3" font-family="Times,serif" font-size="14.00"> g10 = &amp;(v8)</text>
<text text-anchor="start" x="8" y="-452.3" font-family="Times,serif" font-size="14.00"> g5 = g9</text>
<text text-anchor="start" x="8" y="-437.3" font-family="Times,serif" font-size="14.00"> v9 = function_41c330(v7, IntToPtrCastExpr&lt;ptr&gt;(v6), v4)</text>
<text text-anchor="start" x="8" y="-422.3" font-family="Times,serif" font-size="14.00"> *(IntToPtrCastExpr&lt;ptr&gt;((g3 &#45; 4))) = &#45;1</text>
<text text-anchor="start" x="8" y="-407.3" font-family="Times,serif" font-size="14.00"> g9 = v9</text>
<text text-anchor="start" x="8" y="-392.3" font-family="Times,serif" font-size="14.00"> result</text>
</g>
<!-- Node0x399cb860&#45;&gt;Node0x399cb400 -->
<g id="edge1" class="edge"><title>Node0x399cb860&#45;&gt;Node0x399cb400</title>
<path fill="none" stroke="black" d="M221.5,-745.414C221.5,-737.944 221.5,-728.53 221.5,-717.884"/>
<polygon fill="black" stroke="black" points="225,-717.781 221.5,-707.781 218,-717.781 225,-717.781"/>
</g>
<!-- Node0x399cba40 -->
<g id="node3" class="node"><title>Node0x399cba40</title>
<polygon fill="none" stroke="black" points="49.5,-308.5 49.5,-346.5 393.5,-346.5 393.5,-308.5 49.5,-308.5"/>
<text text-anchor="start" x="57.5" y="-331.3" font-family="Times,serif" font-size="14.00">if (*(IntToPtrCastExpr&lt;ptr&gt;((g3 &#45; 16))) != 0):</text>
<text text-anchor="start" x="57.5" y="-316.3" font-family="Times,serif" font-size="14.00"> else:</text>
</g>
<!-- Node0x399cb400&#45;&gt;Node0x399cba40 -->
<g id="edge2" class="edge"><title>Node0x399cb400&#45;&gt;Node0x399cba40</title>
<path fill="none" stroke="black" d="M221.5,-384.254C221.5,-374.15 221.5,-364.85 221.5,-356.86"/>
<polygon fill="black" stroke="black" points="225,-356.824 221.5,-346.824 218,-356.825 225,-356.824"/>
</g>
<!-- Node0x13e1d8f0 -->
<g id="node4" class="node"><title>Node0x13e1d8f0</title>
<polygon fill="none" stroke="black" points="32.5,-188.5 32.5,-256.5 180.5,-256.5 180.5,-188.5 32.5,-188.5"/>
<text text-anchor="start" x="40.5" y="-241.3" font-family="Times,serif" font-size="14.00">v10 = 0</text>
<text text-anchor="start" x="40.5" y="-226.3" font-family="Times,serif" font-size="14.00"> g10 = &amp;(v10)</text>
<text text-anchor="start" x="40.5" y="-211.3" font-family="Times,serif" font-size="14.00"> function_40fa42()</text>
<text text-anchor="start" x="40.5" y="-196.3" font-family="Times,serif" font-size="14.00"> result = g9</text>
</g>
<!-- Node0x399cba40&#45;&gt;Node0x13e1d8f0 -->
<g id="edge3" class="edge"><title>Node0x399cba40&#45;&gt;Node0x13e1d8f0</title>
<path fill="none" stroke="black" d="M99.5193,-308.436C82.3239,-303.549 68.4551,-297.477 62.5,-290 56.355,-282.285 57.0389,-273.713 61.2265,-265.359"/>
<polygon fill="black" stroke="black" points="64.2763,-267.086 66.7193,-256.777 58.3805,-263.312 64.2763,-267.086"/>
<text text-anchor="middle" x="211.5" y="-278.8" font-family="Times,serif" font-size="14.00">*(IntToPtrCastExpr&lt;ptr&gt;((g3 &#45; 16))) != 0</text>
</g>
<!-- Node0x13e1d9d0 -->
<g id="node5" class="node"><title>Node0x13e1d9d0</title>
<polygon fill="none" stroke="black" points="289,-204.5 289,-240.5 386,-240.5 386,-204.5 289,-204.5"/>
<text text-anchor="start" x="297" y="-218.8" font-family="Times,serif" font-size="14.00">result = v9</text>
</g>
<!-- Node0x399cba40&#45;&gt;Node0x13e1d9d0 -->
<g id="edge4" class="edge"><title>Node0x399cba40&#45;&gt;Node0x13e1d9d0</title>
<path fill="none" stroke="black" d="M323.822,-308.47C340.869,-303.443 354.862,-297.31 360.5,-290 369.654,-278.132 364.751,-262.366 357.162,-249.164"/>
<polygon fill="black" stroke="black" points="359.961,-247.045 351.62,-240.513 354.068,-250.821 359.961,-247.045"/>
<text text-anchor="middle" x="516.5" y="-278.8" font-family="Times,serif" font-size="14.00">*(IntToPtrCastExpr&lt;ptr&gt;((g3 &#45; 16))) == 0</text>
</g>
<!-- Node0x13e1d890 -->
<g id="node6" class="node"><title>Node0x13e1d890</title>
<polygon fill="none" stroke="black" points="182.5,-97.5 182.5,-150.5 312.5,-150.5 312.5,-97.5 182.5,-97.5"/>
<text text-anchor="start" x="190.5" y="-135.3" font-family="Times,serif" font-size="14.00">0x40a93d:</text>
<text text-anchor="start" x="190.5" y="-120.3" font-family="Times,serif" font-size="14.00"> __EH_epilog3()</text>
<text text-anchor="start" x="190.5" y="-105.3" font-family="Times,serif" font-size="14.00"> return result</text>
</g>
<!-- Node0x13e1d8f0&#45;&gt;Node0x13e1d890 -->
<g id="edge5" class="edge"><title>Node0x13e1d8f0&#45;&gt;Node0x13e1d890</title>
<path fill="none" stroke="black" d="M155.024,-188.29C170.074,-177.99 186.608,-166.674 201.482,-156.495"/>
<polygon fill="black" stroke="black" points="203.749,-159.185 210.024,-150.648 199.795,-153.408 203.749,-159.185"/>
</g>
<!-- Node0x13e1d9d0&#45;&gt;Node0x13e1d890 -->
<g id="edge6" class="edge"><title>Node0x13e1d9d0&#45;&gt;Node0x13e1d890</title>
<path fill="none" stroke="black" d="M321.41,-204.248C309.504,-191.482 292.917,-173.697 278.472,-158.209"/>
<polygon fill="black" stroke="black" points="280.963,-155.748 271.583,-150.823 275.844,-160.523 280.963,-155.748"/>
</g>
<!-- Node0x10321600 -->
<g id="node7" class="node"><title>Node0x10321600</title>
<polygon fill="none" stroke="black" points="220.5,-23.5 220.5,-59.5 274.5,-59.5 274.5,-23.5 220.5,-23.5"/>
<text text-anchor="start" x="228.5" y="-37.8" font-family="Times,serif" font-size="14.00">exit:</text>
</g>
<!-- Node0x13e1d890&#45;&gt;Node0x10321600 -->
<g id="edge7" class="edge"><title>Node0x13e1d890&#45;&gt;Node0x10321600</title>
<path fill="none" stroke="black" d="M247.5,-97.0862C247.5,-88.4596 247.5,-78.8224 247.5,-70.0748"/>
<polygon fill="black" stroke="black" points="251,-69.9735 247.5,-59.9735 244,-69.9735 251,-69.9735"/>
</g>
</g>
</svg>
