<?xml version="1.0" encoding="UTF-8" standalone="no"?>
<!DOCTYPE svg PUBLIC "-//W3C//DTD SVG 1.1//EN"
 "http://www.w3.org/Graphics/SVG/1.1/DTD/svg11.dtd">
<!-- Generated by graphviz version 2.38.0 (20140413.2041)
 -->
<!-- Title: Control&#45;flow graph for function &#39;function_4200b6(a1, a2, a3, a4)&#39;. Pages: 1 -->
<svg width="516pt" height="760pt"
 viewBox="0.00 0.00 515.50 760.00" xmlns="http://www.w3.org/2000/svg" xmlns:xlink="http://www.w3.org/1999/xlink">
<g id="graph0" class="graph" transform="scale(1 1) rotate(0) translate(4 756)">
<title>Control&#45;flow graph for function &#39;function_4200b6(a1, a2, a3, a4)&#39;.</title>
<polygon fill="white" stroke="none" points="-4,4 -4,-756 511.5,-756 511.5,4 -4,4"/>
<text text-anchor="middle" x="253.75" y="-7.8" font-family="Times,serif" font-size="14.00">Control&#45;flow graph for function &#39;function_4200b6(a1, a2, a3, a4)&#39;.</text>
<!-- Node0xc5a5b7f0 -->
<g id="node1" class="node"><title>Node0xc5a5b7f0</title>
<polygon fill="none" stroke="black" points="292.5,-668.5 292.5,-751.5 351.5,-751.5 351.5,-668.5 292.5,-668.5"/>
<text text-anchor="start" x="300.5" y="-736.3" font-family="Times,serif" font-size="14.00">entry:</text>
<text text-anchor="start" x="300.5" y="-721.3" font-family="Times,serif" font-size="14.00"> a1</text>
<text text-anchor="start" x="300.5" y="-706.3" font-family="Times,serif" font-size="14.00"> a2</text>
<text text-anchor="start" x="300.5" y="-691.3" font-family="Times,serif" font-size="14.00"> a3</text>
<text text-anchor="start" x="300.5" y="-676.3" font-family="Times,serif" font-size="14.00"> a4</text>
</g>
<!-- Node0xc5a5c240 -->
<g id="node2" class="node"><title>Node0xc5a5c240</title>
<polygon fill="none" stroke="black" points="153,-457.5 153,-630.5 491,-630.5 491,-457.5 153,-457.5"/>
<text text-anchor="start" x="161" y="-615.3" font-family="Times,serif" font-size="14.00">v1 = g7</text>
<text text-anchor="start" x="161" y="-600.3" font-family="Times,serif" font-size="14.00"> g9 = g5</text>
<text text-anchor="start" x="161" y="-585.3" font-family="Times,serif" font-size="14.00"> function_42009e(a4)</text>
<text text-anchor="start" x="161" y="-570.3" font-family="Times,serif" font-size="14.00"> v2 = g9</text>
<text text-anchor="start" x="161" y="-555.3" font-family="Times,serif" font-size="14.00"> v3 = (v2 + 120)</text>
<text text-anchor="start" x="161" y="-540.3" font-family="Times,serif" font-size="14.00"> g7 = v3</text>
<text text-anchor="start" x="161" y="-525.3" font-family="Times,serif" font-size="14.00"> *(IntToPtrCastExpr&lt;ptr&gt;(v2)) = 4441012</text>
<text text-anchor="start" x="161" y="-510.3" font-family="Times,serif" font-size="14.00"> _memset(IntToPtrCastExpr&lt;ptr&gt;(v3))</text>
<text text-anchor="start" x="161" y="-495.3" font-family="Times,serif" font-size="14.00"> g2 = a2</text>
<text text-anchor="start" x="161" y="-480.3" font-family="Times,serif" font-size="14.00"> *(IntToPtrCastExpr&lt;ptr&gt;(g7)) = 44</text>
<text text-anchor="start" x="161" y="-465.3" font-family="Times,serif" font-size="14.00"> *(IntToPtrCastExpr&lt;ptr&gt;((g9 + 124))) = g2</text>
</g>
<!-- Node0xc5a5b7f0&#45;&gt;Node0xc5a5c240 -->
<g id="edge1" class="edge"><title>Node0xc5a5b7f0&#45;&gt;Node0xc5a5c240</title>
<path fill="none" stroke="black" d="M322,-668.461C322,-659.872 322,-650.46 322,-640.784"/>
<polygon fill="black" stroke="black" points="325.5,-640.629 322,-630.629 318.5,-640.629 325.5,-640.629"/>
</g>
<!-- Node0xc5a5bcb0 -->
<g id="node3" class="node"><title>Node0xc5a5bcb0</title>
<polygon fill="none" stroke="black" points="272.5,-383.5 272.5,-419.5 371.5,-419.5 371.5,-383.5 272.5,-383.5"/>
<text text-anchor="start" x="280.5" y="-397.8" font-family="Times,serif" font-size="14.00">if (a1 != 0):</text>
</g>
<!-- Node0xc5a5c240&#45;&gt;Node0xc5a5bcb0 -->
<g id="edge2" class="edge"><title>Node0xc5a5c240&#45;&gt;Node0xc5a5bcb0</title>
<path fill="none" stroke="black" d="M322,-457.223C322,-447.482 322,-438.16 322,-430.059"/>
<polygon fill="black" stroke="black" points="325.5,-429.842 322,-419.843 318.5,-429.843 325.5,-429.842"/>
</g>
<!-- Node0xc5a5c380 -->
<g id="node4" class="node"><title>Node0xc5a5c380</title>
<polygon fill="none" stroke="black" points="0,-278.5 0,-331.5 338,-331.5 338,-278.5 0,-278.5"/>
<text text-anchor="start" x="8" y="-316.3" font-family="Times,serif" font-size="14.00">v4 = (g2 | 8)</text>
<text text-anchor="start" x="8" y="-301.3" font-family="Times,serif" font-size="14.00"> g2 = v4</text>
<text text-anchor="start" x="8" y="-286.3" font-family="Times,serif" font-size="14.00"> *(IntToPtrCastExpr&lt;ptr&gt;((g9 + 124))) = v4</text>
</g>
<!-- Node0xc5a5bcb0&#45;&gt;Node0xc5a5c380 -->
<g id="edge3" class="edge"><title>Node0xc5a5bcb0&#45;&gt;Node0xc5a5c380</title>
<path fill="none" stroke="black" d="M294.293,-383.387C273.34,-370.445 244.006,-352.328 218.989,-336.876"/>
<polygon fill="black" stroke="black" points="220.688,-333.811 210.341,-331.534 217.01,-339.767 220.688,-333.811"/>
<text text-anchor="middle" x="291" y="-353.8" font-family="Times,serif" font-size="14.00">a1 != 0</text>
</g>
<!-- Node0xc5a5c550 -->
<g id="node5" class="node"><title>Node0xc5a5c550</title>
<polygon fill="none" stroke="black" points="124.5,-97.5 124.5,-240.5 507.5,-240.5 507.5,-97.5 124.5,-97.5"/>
<text text-anchor="start" x="132.5" y="-225.3" font-family="Times,serif" font-size="14.00">0x4200f3:</text>
<text text-anchor="start" x="132.5" y="-210.3" font-family="Times,serif" font-size="14.00"> v5</text>
<text text-anchor="start" x="132.5" y="-195.3" font-family="Times,serif" font-size="14.00"> g2 = v5</text>
<text text-anchor="start" x="132.5" y="-180.3" font-family="Times,serif" font-size="14.00"> *(IntToPtrCastExpr&lt;ptr&gt;((g9 + 156))) = v5</text>
<text text-anchor="start" x="132.5" y="-165.3" font-family="Times,serif" font-size="14.00"> g7 = a4</text>
<text text-anchor="start" x="132.5" y="-150.3" font-family="Times,serif" font-size="14.00"> *(IntToPtrCastExpr&lt;ptr&gt;((g9 + 136))) = 4325423</text>
<text text-anchor="start" x="132.5" y="-135.3" font-family="Times,serif" font-size="14.00"> result = g9</text>
<text text-anchor="start" x="132.5" y="-120.3" font-family="Times,serif" font-size="14.00"> g9 = v1</text>
<text text-anchor="start" x="132.5" y="-105.3" font-family="Times,serif" font-size="14.00"> return result</text>
</g>
<!-- Node0xc5a5bcb0&#45;&gt;Node0xc5a5c550 -->
<g id="edge4" class="edge"><title>Node0xc5a5bcb0&#45;&gt;Node0xc5a5c550</title>
<path fill="none" stroke="black" d="M330.222,-383.228C336.209,-369.651 343.805,-350.076 347,-332 351.685,-305.496 348.751,-276.616 343.161,-250.678"/>
<polygon fill="black" stroke="black" points="346.561,-249.846 340.899,-240.891 339.741,-251.423 346.561,-249.846"/>
<text text-anchor="middle" x="380" y="-301.3" font-family="Times,serif" font-size="14.00">a1 == 0</text>
</g>
<!-- Node0xc5a5c380&#45;&gt;Node0xc5a5c550 -->
<g id="edge5" class="edge"><title>Node0xc5a5c380&#45;&gt;Node0xc5a5c550</title>
<path fill="none" stroke="black" d="M196.996,-278.48C206.929,-269.425 218.691,-258.703 230.891,-247.582"/>
<polygon fill="black" stroke="black" points="233.499,-249.941 238.532,-240.618 228.783,-244.768 233.499,-249.941"/>
</g>
<!-- Node0xc5a5c1c0 -->
<g id="node6" class="node"><title>Node0xc5a5c1c0</title>
<polygon fill="none" stroke="black" points="289,-23.5 289,-59.5 343,-59.5 343,-23.5 289,-23.5"/>
<text text-anchor="start" x="297" y="-37.8" font-family="Times,serif" font-size="14.00">exit:</text>
</g>
<!-- Node0xc5a5c550&#45;&gt;Node0xc5a5c1c0 -->
<g id="edge6" class="edge"><title>Node0xc5a5c550&#45;&gt;Node0xc5a5c1c0</title>
<path fill="none" stroke="black" d="M316,-97.181C316,-87.439 316,-77.9608 316,-69.7068"/>
<polygon fill="black" stroke="black" points="319.5,-69.642 316,-59.642 312.5,-69.6421 319.5,-69.642"/>
</g>
</g>
</svg>
