<?xml version="1.0" encoding="UTF-8" standalone="no"?>
<!DOCTYPE svg PUBLIC "-//W3C//DTD SVG 1.1//EN"
 "http://www.w3.org/Graphics/SVG/1.1/DTD/svg11.dtd">
<!-- Generated by graphviz version 2.38.0 (20140413.2041)
 -->
<!-- Title: Control&#45;flow graph for function &#39;function_402890(*a1, *a2, a3)&#39;. Pages: 1 -->
<svg width="1088pt" height="841pt"
 viewBox="0.00 0.00 1088.00 841.00" xmlns="http://www.w3.org/2000/svg" xmlns:xlink="http://www.w3.org/1999/xlink">
<g id="graph0" class="graph" transform="scale(1 1) rotate(0) translate(4 837)">
<title>Control&#45;flow graph for function &#39;function_402890(*a1, *a2, a3)&#39;.</title>
<polygon fill="white" stroke="none" points="-4,4 -4,-837 1084,-837 1084,4 -4,4"/>
<text text-anchor="middle" x="540" y="-7.8" font-family="Times,serif" font-size="14.00">Control&#45;flow graph for function &#39;function_402890(*a1, *a2, a3)&#39;.</text>
<!-- Node0x8dbe9440 -->
<g id="node1" class="node"><title>Node0x8dbe9440</title>
<polygon fill="none" stroke="black" points="271,-764.5 271,-832.5 330,-832.5 330,-764.5 271,-764.5"/>
<text text-anchor="start" x="279" y="-817.3" font-family="Times,serif" font-size="14.00">entry:</text>
<text text-anchor="start" x="279" y="-802.3" font-family="Times,serif" font-size="14.00"> a1</text>
<text text-anchor="start" x="279" y="-787.3" font-family="Times,serif" font-size="14.00"> a2</text>
<text text-anchor="start" x="279" y="-772.3" font-family="Times,serif" font-size="14.00"> a3</text>
</g>
<!-- Node0x8dbe9380 -->
<g id="node2" class="node"><title>Node0x8dbe9380</title>
<polygon fill="none" stroke="black" points="255.5,-673.5 255.5,-726.5 345.5,-726.5 345.5,-673.5 255.5,-673.5"/>
<text text-anchor="start" x="263.5" y="-711.3" font-family="Times,serif" font-size="14.00">v1 = *(a1)</text>
<text text-anchor="start" x="263.5" y="-696.3" font-family="Times,serif" font-size="14.00"> v2 = v1</text>
<text text-anchor="start" x="263.5" y="-681.3" font-family="Times,serif" font-size="14.00"> g9 = v2</text>
</g>
<!-- Node0x8dbe9440&#45;&gt;Node0x8dbe9380 -->
<g id="edge1" class="edge"><title>Node0x8dbe9440&#45;&gt;Node0x8dbe9380</title>
<path fill="none" stroke="black" d="M300.5,-764.29C300.5,-755.434 300.5,-745.827 300.5,-736.837"/>
<polygon fill="black" stroke="black" points="304,-736.648 300.5,-726.648 297,-736.648 304,-736.648"/>
</g>
<!-- Node0x8dbe8e00 -->
<g id="node3" class="node"><title>Node0x8dbe8e00</title>
<polygon fill="none" stroke="black" points="248,-599.5 248,-635.5 353,-635.5 353,-599.5 248,-599.5"/>
<text text-anchor="start" x="256" y="-613.8" font-family="Times,serif" font-size="14.00">if (v1 == 0):</text>
</g>
<!-- Node0x8dbe9380&#45;&gt;Node0x8dbe8e00 -->
<g id="edge2" class="edge"><title>Node0x8dbe9380&#45;&gt;Node0x8dbe8e00</title>
<path fill="none" stroke="black" d="M300.5,-673.086C300.5,-664.46 300.5,-654.822 300.5,-646.075"/>
<polygon fill="black" stroke="black" points="304,-645.973 300.5,-635.974 297,-645.974 304,-645.973"/>
</g>
<!-- Node0x2d0633a0 -->
<g id="node4" class="node"><title>Node0x2d0633a0</title>
<polygon fill="none" stroke="black" points="0,-302.5 0,-385.5 443,-385.5 443,-302.5 0,-302.5"/>
<text text-anchor="start" x="8" y="-370.3" font-family="Times,serif" font-size="14.00">0x402899:</text>
<text text-anchor="start" x="8" y="-355.3" font-family="Times,serif" font-size="14.00"> g2 = 0</text>
<text text-anchor="start" x="8" y="-340.3" font-family="Times,serif" font-size="14.00"> result = function_402e60(IntToPtrCastExpr&lt;ptr&gt;(v2), 0)</text>
<text text-anchor="start" x="8" y="-325.3" font-family="Times,serif" font-size="14.00"> g9 = ExtCastExpr&lt;int32&gt;(*(IntToPtrCastExpr&lt;ptr&gt;(v2)))</text>
<text text-anchor="start" x="8" y="-310.3" font-family="Times,serif" font-size="14.00"> return result</text>
</g>
<!-- Node0x8dbe8e00&#45;&gt;Node0x2d0633a0 -->
<g id="edge3" class="edge"><title>Node0x8dbe8e00&#45;&gt;Node0x2d0633a0</title>
<path fill="none" stroke="black" d="M286.608,-599.263C276.661,-586.018 263.785,-566.854 256.5,-548 237.268,-498.229 228.565,-437.52 224.65,-395.528"/>
<polygon fill="black" stroke="black" points="228.135,-395.196 223.777,-385.539 221.162,-395.806 228.135,-395.196"/>
<text text-anchor="middle" x="303.5" y="-569.8" font-family="Times,serif" font-size="14.00">v1 == 0</text>
</g>
<!-- Node0x8dbe5d70 -->
<g id="node5" class="node"><title>Node0x8dbe5d70</title>
<polygon fill="none" stroke="black" points="265.5,-404.5 265.5,-547.5 639.5,-547.5 639.5,-404.5 265.5,-404.5"/>
<text text-anchor="start" x="273.5" y="-532.3" font-family="Times,serif" font-size="14.00">0x4028a6:</text>
<text text-anchor="start" x="273.5" y="-517.3" font-family="Times,serif" font-size="14.00"> g2 = v2</text>
<text text-anchor="start" x="273.5" y="-502.3" font-family="Times,serif" font-size="14.00"> v3 = g7</text>
<text text-anchor="start" x="273.5" y="-487.3" font-family="Times,serif" font-size="14.00"> v4 = (v2 + 1)</text>
<text text-anchor="start" x="273.5" y="-472.3" font-family="Times,serif" font-size="14.00"> g7 = v4</text>
<text text-anchor="start" x="273.5" y="-457.3" font-family="Times,serif" font-size="14.00"> v5 = v2</text>
<text text-anchor="start" x="273.5" y="-442.3" font-family="Times,serif" font-size="14.00"> v6 = (ExtCastExpr&lt;int32&gt;(a1[v5]) | (g8 &amp; &#45;256))</text>
<text text-anchor="start" x="273.5" y="-427.3" font-family="Times,serif" font-size="14.00"> v7 = (v5 + 1)</text>
<text text-anchor="start" x="273.5" y="-412.3" font-family="Times,serif" font-size="14.00"> g2 = v7</text>
</g>
<!-- Node0x8dbe8e00&#45;&gt;Node0x8dbe5d70 -->
<g id="edge4" class="edge"><title>Node0x8dbe8e00&#45;&gt;Node0x8dbe5d70</title>
<path fill="none" stroke="black" d="M319.138,-599.395C331.693,-587.872 349.241,-571.767 367.493,-555.017"/>
<polygon fill="black" stroke="black" points="370.344,-557.15 375.345,-547.81 365.611,-551.993 370.344,-557.15"/>
<text text-anchor="middle" x="381.5" y="-569.8" font-family="Times,serif" font-size="14.00">v1 != 0</text>
</g>
<!-- Node0x8dbe93e0 -->
<g id="node6" class="node"><title>Node0x8dbe93e0</title>
<polygon fill="none" stroke="black" points="349.5,-23.5 349.5,-59.5 403.5,-59.5 403.5,-23.5 349.5,-23.5"/>
<text text-anchor="start" x="357.5" y="-37.8" font-family="Times,serif" font-size="14.00">exit:</text>
</g>
<!-- Node0x2d0633a0&#45;&gt;Node0x8dbe93e0 -->
<g id="edge5" class="edge"><title>Node0x2d0633a0&#45;&gt;Node0x8dbe93e0</title>
<path fill="none" stroke="black" d="M209.946,-302.485C197.541,-249.847 184.986,-157.541 228.5,-97 253.7,-61.94 304.008,-49.3934 338.932,-44.9276"/>
<polygon fill="black" stroke="black" points="339.679,-48.3663 349.232,-43.7851 338.907,-41.409 339.679,-48.3663"/>
</g>
<!-- Node0x8dbea3c0 -->
<g id="node7" class="node"><title>Node0x8dbea3c0</title>
<polygon fill="none" stroke="black" points="420.5,-247.5 420.5,-283.5 548.5,-283.5 548.5,-247.5 420.5,-247.5"/>
<text text-anchor="start" x="428.5" y="-261.8" font-family="Times,serif" font-size="14.00">while (v6 != 0):</text>
</g>
<!-- Node0x8dbe5d70&#45;&gt;Node0x8dbea3c0 -->
<g id="edge6" class="edge"><title>Node0x8dbe5d70&#45;&gt;Node0x8dbea3c0</title>
<path fill="none" stroke="black" d="M463.334,-404.411C469.16,-366.448 476.011,-321.813 480.305,-293.835"/>
<polygon fill="black" stroke="black" points="483.814,-294.044 481.871,-283.629 476.895,-292.982 483.814,-294.044"/>
</g>
<!-- Node0x8dbe5e60 -->
<g id="node8" class="node"><title>Node0x8dbe5e60</title>
<polygon fill="none" stroke="black" points="237.5,-105 237.5,-188 611.5,-188 611.5,-105 237.5,-105"/>
<text text-anchor="start" x="245.5" y="-172.8" font-family="Times,serif" font-size="14.00">0x4028b0:</text>
<text text-anchor="start" x="245.5" y="-157.8" font-family="Times,serif" font-size="14.00"> v5 = v7</text>
<text text-anchor="start" x="245.5" y="-142.8" font-family="Times,serif" font-size="14.00"> v6 = (ExtCastExpr&lt;int32&gt;(a1[v5]) | (v6 &amp; &#45;256))</text>
<text text-anchor="start" x="245.5" y="-127.8" font-family="Times,serif" font-size="14.00"> v7 = (v5 + 1)</text>
<text text-anchor="start" x="245.5" y="-112.8" font-family="Times,serif" font-size="14.00"> g2 = v7</text>
</g>
<!-- Node0x8dbea3c0&#45;&gt;Node0x8dbe5e60 -->
<g id="edge7" class="edge"><title>Node0x8dbea3c0&#45;&gt;Node0x8dbe5e60</title>
<path fill="none" stroke="black" d="M440.768,-247.407C433.464,-242.569 426.855,-236.511 422.5,-229 417.174,-219.814 415.142,-209.012 414.93,-198.331"/>
<polygon fill="black" stroke="black" points="418.433,-198.285 415.236,-188.184 411.436,-198.073 418.433,-198.285"/>
<text text-anchor="middle" x="449.5" y="-217.8" font-family="Times,serif" font-size="14.00">v6 != 0</text>
</g>
<!-- Node0x8dbe8d10 -->
<g id="node9" class="node"><title>Node0x8dbe8d10</title>
<polygon fill="none" stroke="black" points="629,-97.5 629,-195.5 1080,-195.5 1080,-97.5 629,-97.5"/>
<text text-anchor="start" x="637" y="-180.3" font-family="Times,serif" font-size="14.00">v8 = (v7 &#45; v4)</text>
<text text-anchor="start" x="637" y="-165.3" font-family="Times,serif" font-size="14.00"> g2 = v8</text>
<text text-anchor="start" x="637" y="-150.3" font-family="Times,serif" font-size="14.00"> g7 = v3</text>
<text text-anchor="start" x="637" y="-135.3" font-family="Times,serif" font-size="14.00"> result2 = function_402e60(IntToPtrCastExpr&lt;ptr&gt;(v2), v8)</text>
<text text-anchor="start" x="637" y="-120.3" font-family="Times,serif" font-size="14.00"> g9 = ExtCastExpr&lt;int32&gt;(*(IntToPtrCastExpr&lt;ptr&gt;(v2)))</text>
<text text-anchor="start" x="637" y="-105.3" font-family="Times,serif" font-size="14.00"> return result2</text>
</g>
<!-- Node0x8dbea3c0&#45;&gt;Node0x8dbe8d10 -->
<g id="edge8" class="edge"><title>Node0x8dbea3c0&#45;&gt;Node0x8dbe8d10</title>
<path fill="none" stroke="black" d="M538.301,-247.487C579.131,-234.576 637.527,-216.11 693.047,-198.554"/>
<polygon fill="black" stroke="black" points="694.171,-201.87 702.65,-195.517 692.06,-195.195 694.171,-201.87"/>
<text text-anchor="middle" x="665.5" y="-217.8" font-family="Times,serif" font-size="14.00">v6 == 0</text>
</g>
<!-- Node0x8dbe5e60&#45;&gt;Node0x8dbea3c0 -->
<g id="edge9" class="edge"><title>Node0x8dbe5e60&#45;&gt;Node0x8dbea3c0</title>
<path fill="none" stroke="black" d="M461.536,-188.362C467.316,-196.414 472.641,-205.13 476.5,-214 479.616,-221.163 481.536,-229.369 482.712,-237.054"/>
<polygon fill="black" stroke="black" points="479.246,-237.546 483.9,-247.064 486.197,-236.721 479.246,-237.546"/>
</g>
<!-- Node0x8dbe8d10&#45;&gt;Node0x8dbe93e0 -->
<g id="edge10" class="edge"><title>Node0x8dbe8d10&#45;&gt;Node0x8dbe93e0</title>
<path fill="none" stroke="black" d="M631.594,-97.4679C547.695,-79.3893 461.14,-60.7383 413.534,-50.4801"/>
<polygon fill="black" stroke="black" points="414.213,-47.0462 403.7,-48.3611 412.739,-53.8892 414.213,-47.0462"/>
</g>
</g>
</svg>
