<?xml version="1.0" encoding="UTF-8" standalone="no"?>
<!DOCTYPE svg PUBLIC "-//W3C//DTD SVG 1.1//EN"
 "http://www.w3.org/Graphics/SVG/1.1/DTD/svg11.dtd">
<!-- Generated by graphviz version 2.38.0 (20140413.2041)
 -->
<!-- Title: Control&#45;flow graph for function &#39;function_40f352(*a1, *a2, *a3)&#39;. Pages: 1 -->
<svg width="1037pt" height="1624pt"
 viewBox="0.00 0.00 1037.00 1624.00" xmlns="http://www.w3.org/2000/svg" xmlns:xlink="http://www.w3.org/1999/xlink">
<g id="graph0" class="graph" transform="scale(1 1) rotate(0) translate(4 1620)">
<title>Control&#45;flow graph for function &#39;function_40f352(*a1, *a2, *a3)&#39;.</title>
<polygon fill="white" stroke="none" points="-4,4 -4,-1620 1033,-1620 1033,4 -4,4"/>
<text text-anchor="middle" x="514.5" y="-7.8" font-family="Times,serif" font-size="14.00">Control&#45;flow graph for function &#39;function_40f352(*a1, *a2, *a3)&#39;.</text>
<!-- Node0xcb454b70 -->
<g id="node1" class="node"><title>Node0xcb454b70</title>
<polygon fill="none" stroke="black" points="401,-1547.5 401,-1615.5 460,-1615.5 460,-1547.5 401,-1547.5"/>
<text text-anchor="start" x="409" y="-1600.3" font-family="Times,serif" font-size="14.00">entry:</text>
<text text-anchor="start" x="409" y="-1585.3" font-family="Times,serif" font-size="14.00"> a1</text>
<text text-anchor="start" x="409" y="-1570.3" font-family="Times,serif" font-size="14.00"> a2</text>
<text text-anchor="start" x="409" y="-1555.3" font-family="Times,serif" font-size="14.00"> a3</text>
</g>
<!-- Node0xcb4567b0 -->
<g id="node2" class="node"><title>Node0xcb4567b0</title>
<polygon fill="none" stroke="black" points="271,-1306.5 271,-1509.5 590,-1509.5 590,-1306.5 271,-1306.5"/>
<text text-anchor="start" x="279" y="-1494.3" font-family="Times,serif" font-size="14.00">v1 = PtrToIntCastExpr&lt;int32&gt;(a1)</text>
<text text-anchor="start" x="279" y="-1479.3" font-family="Times,serif" font-size="14.00"> g4 = v1</text>
<text text-anchor="start" x="279" y="-1464.3" font-family="Times,serif" font-size="14.00"> v2 = g5</text>
<text text-anchor="start" x="279" y="-1449.3" font-family="Times,serif" font-size="14.00"> g9 = v2</text>
<text text-anchor="start" x="279" y="-1434.3" font-family="Times,serif" font-size="14.00"> v3 = *(IntToPtrCastExpr&lt;ptr&gt;((v2 + 4)))</text>
<text text-anchor="start" x="279" y="-1419.3" font-family="Times,serif" font-size="14.00"> g5 = v3</text>
<text text-anchor="start" x="279" y="-1404.3" font-family="Times,serif" font-size="14.00"> v4 = g7</text>
<text text-anchor="start" x="279" y="-1389.3" font-family="Times,serif" font-size="14.00"> g10 = &amp;(v4)</text>
<text text-anchor="start" x="279" y="-1374.3" font-family="Times,serif" font-size="14.00"> g7 = 286748</text>
<text text-anchor="start" x="279" y="-1359.3" font-family="Times,serif" font-size="14.00"> v5 = v2</text>
<text text-anchor="start" x="279" y="-1344.3" font-family="Times,serif" font-size="14.00"> result = 0</text>
<text text-anchor="start" x="279" y="-1329.3" font-family="Times,serif" font-size="14.00"> v6</text>
<text text-anchor="start" x="279" y="-1314.3" font-family="Times,serif" font-size="14.00"> v7</text>
</g>
<!-- Node0xcb454b70&#45;&gt;Node0xcb4567b0 -->
<g id="edge1" class="edge"><title>Node0xcb454b70&#45;&gt;Node0xcb4567b0</title>
<path fill="none" stroke="black" d="M430.5,-1547.43C430.5,-1539.11 430.5,-1529.71 430.5,-1519.82"/>
<polygon fill="black" stroke="black" points="434,-1519.79 430.5,-1509.79 427,-1519.79 434,-1519.79"/>
</g>
<!-- Node0xcb456640 -->
<g id="node3" class="node"><title>Node0xcb456640</title>
<polygon fill="none" stroke="black" points="255.5,-1232.5 255.5,-1268.5 605.5,-1268.5 605.5,-1232.5 255.5,-1232.5"/>
<text text-anchor="start" x="263.5" y="-1246.8" font-family="Times,serif" font-size="14.00">if (v3 != *(IntToPtrCastExpr&lt;ptr&gt;((v2 + 8)))):</text>
</g>
<!-- Node0xcb4567b0&#45;&gt;Node0xcb456640 -->
<g id="edge2" class="edge"><title>Node0xcb4567b0&#45;&gt;Node0xcb456640</title>
<path fill="none" stroke="black" d="M430.5,-1306.32C430.5,-1296.37 430.5,-1286.96 430.5,-1278.85"/>
<polygon fill="black" stroke="black" points="434,-1278.65 430.5,-1268.65 427,-1278.65 434,-1278.65"/>
</g>
<!-- Node0xcb457920 -->
<g id="node4" class="node"><title>Node0xcb457920</title>
<polygon fill="none" stroke="black" points="180.5,-1112.5 180.5,-1180.5 362.5,-1180.5 362.5,-1112.5 180.5,-1112.5"/>
<text text-anchor="start" x="188.5" y="-1165.3" font-family="Times,serif" font-size="14.00">0x40f36b:</text>
<text text-anchor="start" x="188.5" y="-1150.3" font-family="Times,serif" font-size="14.00"> g1 = False</text>
<text text-anchor="start" x="188.5" y="-1135.3" font-family="Times,serif" font-size="14.00"> g180 = (a1 == NULL)</text>
<text text-anchor="start" x="188.5" y="-1120.3" font-family="Times,serif" font-size="14.00"> v7 = 0</text>
</g>
<!-- Node0xcb456640&#45;&gt;Node0xcb457920 -->
<g id="edge3" class="edge"><title>Node0xcb456640&#45;&gt;Node0xcb457920</title>
<path fill="none" stroke="black" d="M310.539,-1232.4C292.915,-1227.58 278.617,-1221.53 272.5,-1214 267.219,-1207.5 264.85,-1199.35 264.167,-1191"/>
<polygon fill="black" stroke="black" points="267.665,-1190.79 264.087,-1180.82 260.666,-1190.85 267.665,-1190.79"/>
<text text-anchor="middle" x="424.5" y="-1202.8" font-family="Times,serif" font-size="14.00">v3 != *(IntToPtrCastExpr&lt;ptr&gt;((v2 + 8)))</text>
</g>
<!-- Node0xcb456e00 -->
<g id="node5" class="node"><title>Node0xcb456e00</title>
<polygon fill="none" stroke="black" points="352.5,-736.5 352.5,-774.5 666.5,-774.5 666.5,-736.5 352.5,-736.5"/>
<text text-anchor="start" x="360.5" y="-759.3" font-family="Times,serif" font-size="14.00">v8 = *(IntToPtrCastExpr&lt;ptr&gt;((v5 + 8)))</text>
<text text-anchor="start" x="360.5" y="-744.3" font-family="Times,serif" font-size="14.00"> g9 = v8</text>
</g>
<!-- Node0xcb456640&#45;&gt;Node0xcb456e00 -->
<g id="edge4" class="edge"><title>Node0xcb456640&#45;&gt;Node0xcb456e00</title>
<path fill="none" stroke="black" d="M533.827,-1232.47C553.099,-1227.45 569.419,-1221.3 576.5,-1214 597.523,-1192.31 590.5,-1177.7 590.5,-1147.5 590.5,-1147.5 590.5,-1147.5 590.5,-860.5 590.5,-828.295 566.026,-800.072 543.983,-781.183"/>
<polygon fill="black" stroke="black" points="545.975,-778.29 536.022,-774.656 541.537,-783.703 545.975,-778.29"/>
<text text-anchor="middle" x="745.5" y="-1008.8" font-family="Times,serif" font-size="14.00">v3 == *(IntToPtrCastExpr&lt;ptr&gt;((v2 + 8)))</text>
</g>
<!-- Node0x28a0cdd0 -->
<g id="node6" class="node"><title>Node0x28a0cdd0</title>
<polygon fill="none" stroke="black" points="204.5,-1038.5 204.5,-1074.5 338.5,-1074.5 338.5,-1038.5 204.5,-1038.5"/>
<text text-anchor="start" x="212.5" y="-1052.8" font-family="Times,serif" font-size="14.00">if (a1 != NULL):</text>
</g>
<!-- Node0xcb457920&#45;&gt;Node0x28a0cdd0 -->
<g id="edge5" class="edge"><title>Node0xcb457920&#45;&gt;Node0x28a0cdd0</title>
<path fill="none" stroke="black" d="M271.5,-1112.48C271.5,-1103.33 271.5,-1093.5 271.5,-1084.72"/>
<polygon fill="black" stroke="black" points="275,-1084.64 271.5,-1074.64 268,-1084.64 275,-1084.64"/>
</g>
<!-- Node0xcb456ef0 -->
<g id="node7" class="node"><title>Node0xcb456ef0</title>
<polygon fill="none" stroke="black" points="457,-662.5 457,-698.5 562,-698.5 562,-662.5 457,-662.5"/>
<text text-anchor="start" x="465" y="-676.8" font-family="Times,serif" font-size="14.00">if (v8 == 0):</text>
</g>
<!-- Node0xcb456e00&#45;&gt;Node0xcb456ef0 -->
<g id="edge6" class="edge"><title>Node0xcb456e00&#45;&gt;Node0xcb456ef0</title>
<path fill="none" stroke="black" d="M509.5,-736.455C509.5,-728.201 509.5,-718.238 509.5,-709.074"/>
<polygon fill="black" stroke="black" points="513,-708.835 509.5,-698.835 506,-708.835 513,-708.835"/>
</g>
<!-- Node0xcb4572c0 -->
<g id="node8" class="node"><title>Node0xcb4572c0</title>
<polygon fill="none" stroke="black" points="0,-948.5 0,-986.5 319,-986.5 319,-948.5 0,-948.5"/>
<text text-anchor="start" x="8" y="-971.3" font-family="Times,serif" font-size="14.00">0x40f36f:</text>
<text text-anchor="start" x="8" y="-956.3" font-family="Times,serif" font-size="14.00"> v7 = *(IntToPtrCastExpr&lt;ptr&gt;((v1 + 4)))</text>
</g>
<!-- Node0x28a0cdd0&#45;&gt;Node0xcb4572c0 -->
<g id="edge7" class="edge"><title>Node0x28a0cdd0&#45;&gt;Node0xcb4572c0</title>
<path fill="none" stroke="black" d="M249.372,-1038.31C232.602,-1025.28 209.338,-1007.21 190.682,-992.722"/>
<polygon fill="black" stroke="black" points="192.783,-989.922 182.738,-986.551 188.489,-995.45 192.783,-989.922"/>
<text text-anchor="middle" x="270.5" y="-1008.8" font-family="Times,serif" font-size="14.00">a1 != NULL</text>
</g>
<!-- Node0x28a0cfd0 -->
<g id="node9" class="node"><title>Node0x28a0cfd0</title>
<polygon fill="none" stroke="black" points="23,-812.5 23,-910.5 562,-910.5 562,-812.5 23,-812.5"/>
<text text-anchor="start" x="31" y="-895.3" font-family="Times,serif" font-size="14.00">0x40f372:</text>
<text text-anchor="start" x="31" y="-880.3" font-family="Times,serif" font-size="14.00"> v6 = v3</text>
<text text-anchor="start" x="31" y="-865.3" font-family="Times,serif" font-size="14.00"> g10 = &amp;(v6)</text>
<text text-anchor="start" x="31" y="-850.3" font-family="Times,serif" font-size="14.00"> IntToPtrCastExpr&lt;ptr&gt;(286748)(v3, v7, PtrToIntCastExpr&lt;int32&gt;(a2))</text>
<text text-anchor="start" x="31" y="-835.3" font-family="Times,serif" font-size="14.00"> v5 = g9</text>
<text text-anchor="start" x="31" y="-820.3" font-family="Times,serif" font-size="14.00"> result = v7</text>
</g>
<!-- Node0x28a0cdd0&#45;&gt;Node0x28a0cfd0 -->
<g id="edge8" class="edge"><title>Node0x28a0cdd0&#45;&gt;Node0x28a0cfd0</title>
<path fill="none" stroke="black" d="M300.608,-1038.22C307.288,-1033.08 313.8,-1026.94 318.5,-1020 327.022,-1007.41 325.482,-1002.07 327.5,-987 329.801,-969.82 330.846,-965.007 327.5,-948 325.684,-938.773 322.865,-929.287 319.596,-920.145"/>
<polygon fill="black" stroke="black" points="322.861,-918.884 316.05,-910.769 316.313,-921.36 322.861,-918.884"/>
<text text-anchor="middle" x="377.5" y="-963.8" font-family="Times,serif" font-size="14.00">a1 == NULL</text>
</g>
<!-- Node0x28a0d030 -->
<g id="node10" class="node"><title>Node0x28a0d030</title>
<polygon fill="none" stroke="black" points="317,-440.5 317,-523.5 594,-523.5 594,-440.5 317,-440.5"/>
<text text-anchor="start" x="325" y="-508.3" font-family="Times,serif" font-size="14.00">0x40f394:</text>
<text text-anchor="start" x="325" y="-493.3" font-family="Times,serif" font-size="14.00"> g7 = v6</text>
<text text-anchor="start" x="325" y="-478.3" font-family="Times,serif" font-size="14.00"> g9 = v7</text>
<text text-anchor="start" x="325" y="-463.3" font-family="Times,serif" font-size="14.00"> g4 = PtrToIntCastExpr&lt;int32&gt;(a2)</text>
<text text-anchor="start" x="325" y="-448.3" font-family="Times,serif" font-size="14.00"> return result</text>
</g>
<!-- Node0xcb456ef0&#45;&gt;Node0x28a0d030 -->
<g id="edge9" class="edge"><title>Node0xcb456ef0&#45;&gt;Node0x28a0d030</title>
<path fill="none" stroke="black" d="M488.956,-662.464C483.749,-657.097 478.724,-650.783 475.5,-644 459.189,-609.683 454.514,-566.826 453.742,-533.959"/>
<polygon fill="black" stroke="black" points="457.238,-533.62 453.619,-523.663 450.239,-533.704 457.238,-533.62"/>
<text text-anchor="middle" x="505.5" y="-632.8" font-family="Times,serif" font-size="14.00">v8 == 0</text>
</g>
<!-- Node0xcb457010 -->
<g id="node11" class="node"><title>Node0xcb457010</title>
<polygon fill="none" stroke="black" points="522.5,-542.5 522.5,-610.5 670.5,-610.5 670.5,-542.5 522.5,-542.5"/>
<text text-anchor="start" x="530.5" y="-595.3" font-family="Times,serif" font-size="14.00">v9 = g4</text>
<text text-anchor="start" x="530.5" y="-580.3" font-family="Times,serif" font-size="14.00"> g1 = False</text>
<text text-anchor="start" x="530.5" y="-565.3" font-family="Times,serif" font-size="14.00"> g180 = (v9 == 0)</text>
<text text-anchor="start" x="530.5" y="-550.3" font-family="Times,serif" font-size="14.00"> result2</text>
</g>
<!-- Node0xcb456ef0&#45;&gt;Node0xcb457010 -->
<g id="edge10" class="edge"><title>Node0xcb456ef0&#45;&gt;Node0xcb457010</title>
<path fill="none" stroke="black" d="M524.258,-662.197C534.497,-650.194 548.58,-633.682 561.594,-618.424"/>
<polygon fill="black" stroke="black" points="564.45,-620.47 568.276,-610.59 559.124,-615.927 564.45,-620.47"/>
<text text-anchor="middle" x="576.5" y="-632.8" font-family="Times,serif" font-size="14.00">v8 != 0</text>
</g>
<!-- Node0xcb4572c0&#45;&gt;Node0x28a0cfd0 -->
<g id="edge11" class="edge"><title>Node0xcb4572c0&#45;&gt;Node0x28a0cfd0</title>
<path fill="none" stroke="black" d="M182.667,-948.385C194.033,-939.497 208.39,-928.27 222.943,-916.89"/>
<polygon fill="black" stroke="black" points="225.309,-919.483 231.031,-910.566 220.997,-913.969 225.309,-919.483"/>
</g>
<!-- Node0x28a0cfd0&#45;&gt;Node0xcb456e00 -->
<g id="edge12" class="edge"><title>Node0x28a0cfd0&#45;&gt;Node0xcb456e00</title>
<path fill="none" stroke="black" d="M392.742,-812.458C417.203,-800.734 442.227,-788.742 462.802,-778.881"/>
<polygon fill="black" stroke="black" points="464.419,-781.987 471.924,-774.509 461.394,-775.674 464.419,-781.987"/>
</g>
<!-- Node0xcb455bc0 -->
<g id="node12" class="node"><title>Node0xcb455bc0</title>
<polygon fill="none" stroke="black" points="509.5,-23.5 509.5,-59.5 563.5,-59.5 563.5,-23.5 509.5,-23.5"/>
<text text-anchor="start" x="517.5" y="-37.8" font-family="Times,serif" font-size="14.00">exit:</text>
</g>
<!-- Node0x28a0d030&#45;&gt;Node0xcb455bc0 -->
<g id="edge13" class="edge"><title>Node0x28a0d030&#45;&gt;Node0xcb455bc0</title>
<path fill="none" stroke="black" d="M455.5,-440.445C455.5,-416.587 455.5,-385.829 455.5,-358.5 455.5,-358.5 455.5,-358.5 455.5,-160.5 455.5,-130.911 459.449,-121.857 475.5,-97 482.916,-85.5152 493.38,-74.9614 503.552,-66.2622"/>
<polygon fill="black" stroke="black" points="506.053,-68.7385 511.582,-59.701 501.624,-63.3177 506.053,-68.7385"/>
</g>
<!-- Node0xcb457380 -->
<g id="node13" class="node"><title>Node0xcb457380</title>
<polygon fill="none" stroke="black" points="557,-383.5 557,-421.5 662,-421.5 662,-383.5 557,-383.5"/>
<text text-anchor="start" x="565" y="-406.3" font-family="Times,serif" font-size="14.00">if (v9 == 0):</text>
<text text-anchor="start" x="565" y="-391.3" font-family="Times,serif" font-size="14.00"> else:</text>
</g>
<!-- Node0xcb457010&#45;&gt;Node0xcb457380 -->
<g id="edge14" class="edge"><title>Node0xcb457010&#45;&gt;Node0xcb457380</title>
<path fill="none" stroke="black" d="M599.007,-542.337C601.425,-510.342 605.047,-462.417 607.341,-432.068"/>
<polygon fill="black" stroke="black" points="610.857,-431.98 608.121,-421.744 603.877,-431.452 610.857,-431.98"/>
</g>
<!-- Node0x28a0d170 -->
<g id="node14" class="node"><title>Node0x28a0d170</title>
<polygon fill="none" stroke="black" points="502,-263.5 502,-331.5 613,-331.5 613,-263.5 502,-263.5"/>
<text text-anchor="start" x="510" y="-316.3" font-family="Times,serif" font-size="14.00">0x40f385:</text>
<text text-anchor="start" x="510" y="-301.3" font-family="Times,serif" font-size="14.00"> g1 = False</text>
<text text-anchor="start" x="510" y="-286.3" font-family="Times,serif" font-size="14.00"> g180 = True</text>
<text text-anchor="start" x="510" y="-271.3" font-family="Times,serif" font-size="14.00"> result2 = 0</text>
</g>
<!-- Node0xcb457380&#45;&gt;Node0x28a0d170 -->
<g id="edge15" class="edge"><title>Node0xcb457380&#45;&gt;Node0x28a0d170</title>
<path fill="none" stroke="black" d="M600.203,-383.086C594.252,-371.298 586.276,-355.499 578.829,-340.748"/>
<polygon fill="black" stroke="black" points="581.914,-339.093 574.283,-331.743 575.665,-342.248 581.914,-339.093"/>
<text text-anchor="middle" x="619.5" y="-353.8" font-family="Times,serif" font-size="14.00">v9 == 0</text>
</g>
<!-- Node0xcb457200 -->
<g id="node15" class="node"><title>Node0xcb457200</title>
<polygon fill="none" stroke="black" points="631,-278.5 631,-316.5 984,-316.5 984,-278.5 631,-278.5"/>
<text text-anchor="start" x="639" y="-301.3" font-family="Times,serif" font-size="14.00">0x40f389:</text>
<text text-anchor="start" x="639" y="-286.3" font-family="Times,serif" font-size="14.00"> result2 = *(IntToPtrCastExpr&lt;ptr&gt;((v9 + 4)))</text>
</g>
<!-- Node0xcb457380&#45;&gt;Node0xcb457200 -->
<g id="edge16" class="edge"><title>Node0xcb457380&#45;&gt;Node0xcb457200</title>
<path fill="none" stroke="black" d="M644.443,-383.323C677.564,-366.093 727.45,-340.142 763.317,-321.484"/>
<polygon fill="black" stroke="black" points="765.318,-324.388 772.574,-316.668 762.088,-318.178 765.318,-324.388"/>
<text text-anchor="middle" x="735.5" y="-353.8" font-family="Times,serif" font-size="14.00">v9 != 0</text>
</g>
<!-- Node0xcb457530 -->
<g id="node16" class="node"><title>Node0xcb457530</title>
<polygon fill="none" stroke="black" points="484,-97.5 484,-225.5 1029,-225.5 1029,-97.5 484,-97.5"/>
<text text-anchor="start" x="492" y="-210.3" font-family="Times,serif" font-size="14.00">v10 = v8</text>
<text text-anchor="start" x="492" y="-195.3" font-family="Times,serif" font-size="14.00"> g10 = &amp;(v10)</text>
<text text-anchor="start" x="492" y="-180.3" font-family="Times,serif" font-size="14.00"> v11</text>
<text text-anchor="start" x="492" y="-165.3" font-family="Times,serif" font-size="14.00"> IntToPtrCastExpr&lt;ptr&gt;(g7)(v8, result2, PtrToIntCastExpr&lt;int32&gt;(v11))</text>
<text text-anchor="start" x="492" y="-150.3" font-family="Times,serif" font-size="14.00"> g7 = v6</text>
<text text-anchor="start" x="492" y="-135.3" font-family="Times,serif" font-size="14.00"> g9 = v7</text>
<text text-anchor="start" x="492" y="-120.3" font-family="Times,serif" font-size="14.00"> g4 = PtrToIntCastExpr&lt;int32&gt;(a2)</text>
<text text-anchor="start" x="492" y="-105.3" font-family="Times,serif" font-size="14.00"> return result2</text>
</g>
<!-- Node0x28a0d170&#45;&gt;Node0xcb457530 -->
<g id="edge17" class="edge"><title>Node0x28a0d170&#45;&gt;Node0xcb457530</title>
<path fill="none" stroke="black" d="M606.691,-263.376C621.197,-253.609 637.639,-242.537 654.184,-231.396"/>
<polygon fill="black" stroke="black" points="656.496,-234.059 662.836,-225.57 652.587,-228.252 656.496,-234.059"/>
</g>
<!-- Node0xcb457200&#45;&gt;Node0xcb457530 -->
<g id="edge18" class="edge"><title>Node0xcb457200&#45;&gt;Node0xcb457530</title>
<path fill="none" stroke="black" d="M800.622,-278.428C796.258,-266.962 790.294,-251.293 784.163,-235.182"/>
<polygon fill="black" stroke="black" points="787.372,-233.775 780.544,-225.674 780.83,-236.265 787.372,-233.775"/>
</g>
<!-- Node0xcb457530&#45;&gt;Node0xcb455bc0 -->
<g id="edge19" class="edge"><title>Node0xcb457530&#45;&gt;Node0xcb455bc0</title>
<path fill="none" stroke="black" d="M638.771,-97.3546C614.65,-84.4168 591.027,-71.7462 572.572,-61.8477"/>
<polygon fill="black" stroke="black" points="574.15,-58.7224 563.683,-57.0801 570.841,-64.8911 574.15,-58.7224"/>
</g>
</g>
</svg>
