<?xml version="1.0" encoding="UTF-8" standalone="no"?>
<!DOCTYPE svg PUBLIC "-//W3C//DTD SVG 1.1//EN"
 "http://www.w3.org/Graphics/SVG/1.1/DTD/svg11.dtd">
<!-- Generated by graphviz version 2.38.0 (20140413.2041)
 -->
<!-- Title: Control&#45;flow graph for function &#39;function_404d66(*a1, a2)&#39;. Pages: 1 -->
<svg width="1575pt" height="1483pt"
 viewBox="0.00 0.00 1575.15 1483.00" xmlns="http://www.w3.org/2000/svg" xmlns:xlink="http://www.w3.org/1999/xlink">
<g id="graph0" class="graph" transform="scale(1 1) rotate(0) translate(4 1479)">
<title>Control&#45;flow graph for function &#39;function_404d66(*a1, a2)&#39;.</title>
<polygon fill="white" stroke="none" points="-4,4 -4,-1479 1571.15,-1479 1571.15,4 -4,4"/>
<text text-anchor="middle" x="783.576" y="-7.8" font-family="Times,serif" font-size="14.00">Control&#45;flow graph for function &#39;function_404d66(*a1, a2)&#39;.</text>
<!-- Node0x1143da00 -->
<g id="node1" class="node"><title>Node0x1143da00</title>
<polygon fill="none" stroke="black" points="335,-1421.5 335,-1474.5 394,-1474.5 394,-1421.5 335,-1421.5"/>
<text text-anchor="start" x="343" y="-1459.3" font-family="Times,serif" font-size="14.00">entry:</text>
<text text-anchor="start" x="343" y="-1444.3" font-family="Times,serif" font-size="14.00"> a1</text>
<text text-anchor="start" x="343" y="-1429.3" font-family="Times,serif" font-size="14.00"> a2</text>
</g>
<!-- Node0x1143f680 -->
<g id="node2" class="node"><title>Node0x1143f680</title>
<polygon fill="none" stroke="black" points="226,-1285.5 226,-1383.5 503,-1383.5 503,-1285.5 226,-1285.5"/>
<text text-anchor="start" x="234" y="-1368.3" font-family="Times,serif" font-size="14.00">v1 = g4</text>
<text text-anchor="start" x="234" y="-1353.3" font-family="Times,serif" font-size="14.00"> g4 = PtrToIntCastExpr&lt;int32&gt;(a1)</text>
<text text-anchor="start" x="234" y="-1338.3" font-family="Times,serif" font-size="14.00"> v2 = g9</text>
<text text-anchor="start" x="234" y="-1323.3" font-family="Times,serif" font-size="14.00"> v3 = g7</text>
<text text-anchor="start" x="234" y="-1308.3" font-family="Times,serif" font-size="14.00"> v4 = g5</text>
<text text-anchor="start" x="234" y="-1293.3" font-family="Times,serif" font-size="14.00"> g9 = v4</text>
</g>
<!-- Node0x1143da00&#45;&gt;Node0x1143f680 -->
<g id="edge1" class="edge"><title>Node0x1143da00&#45;&gt;Node0x1143f680</title>
<path fill="none" stroke="black" d="M364.5,-1421.42C364.5,-1413.12 364.5,-1403.54 364.5,-1393.85"/>
<polygon fill="black" stroke="black" points="368,-1393.77 364.5,-1383.77 361,-1393.77 368,-1393.77"/>
</g>
<!-- Node0x1143fa70 -->
<g id="node3" class="node"><title>Node0x1143fa70</title>
<polygon fill="none" stroke="black" points="294.5,-1211.5 294.5,-1247.5 434.5,-1247.5 434.5,-1211.5 294.5,-1211.5"/>
<text text-anchor="start" x="302.5" y="-1225.8" font-family="Times,serif" font-size="14.00">if (a1 == NULL):</text>
</g>
<!-- Node0x1143f680&#45;&gt;Node0x1143fa70 -->
<g id="edge2" class="edge"><title>Node0x1143f680&#45;&gt;Node0x1143fa70</title>
<path fill="none" stroke="black" d="M364.5,-1285.32C364.5,-1275.89 364.5,-1266.32 364.5,-1257.87"/>
<polygon fill="black" stroke="black" points="368,-1257.86 364.5,-1247.86 361,-1257.86 368,-1257.86"/>
</g>
<!-- Node0x2fee3670 -->
<g id="node4" class="node"><title>Node0x2fee3670</title>
<polygon fill="none" stroke="black" points="394.5,-1106.5 394.5,-1159.5 730.5,-1159.5 730.5,-1106.5 394.5,-1106.5"/>
<text text-anchor="start" x="402.5" y="-1144.3" font-family="Times,serif" font-size="14.00">0x404d73_2:</text>
<text text-anchor="start" x="402.5" y="-1129.3" font-family="Times,serif" font-size="14.00"> function_40ede0(BitCastExpr&lt;ptr&gt;(&amp;(v3)))</text>
<text text-anchor="start" x="402.5" y="-1114.3" font-family="Times,serif" font-size="14.00"> v4 = g9</text>
</g>
<!-- Node0x1143fa70&#45;&gt;Node0x2fee3670 -->
<g id="edge3" class="edge"><title>Node0x1143fa70&#45;&gt;Node0x2fee3670</title>
<path fill="none" stroke="black" d="M400.356,-1211.39C428.064,-1198.16 467.096,-1179.53 499.921,-1163.87"/>
<polygon fill="black" stroke="black" points="501.483,-1167 509,-1159.53 498.468,-1160.68 501.483,-1167"/>
<text text-anchor="middle" x="516.5" y="-1181.8" font-family="Times,serif" font-size="14.00">a1 == NULL</text>
</g>
<!-- Node0x1143fba0 -->
<g id="node5" class="node"><title>Node0x1143fba0</title>
<polygon fill="none" stroke="black" points="380,-970.5 380,-1068.5 703,-1068.5 703,-970.5 380,-970.5"/>
<text text-anchor="start" x="388" y="-1053.3" font-family="Times,serif" font-size="14.00">v5 = *(IntToPtrCastExpr&lt;ptr&gt;((v4 + 12)))</text>
<text text-anchor="start" x="388" y="-1038.3" font-family="Times,serif" font-size="14.00"> v6</text>
<text text-anchor="start" x="388" y="-1023.3" font-family="Times,serif" font-size="14.00"> result</text>
<text text-anchor="start" x="388" y="-1008.3" font-family="Times,serif" font-size="14.00"> v7</text>
<text text-anchor="start" x="388" y="-993.3" font-family="Times,serif" font-size="14.00"> v8</text>
<text text-anchor="start" x="388" y="-978.3" font-family="Times,serif" font-size="14.00"> v9</text>
</g>
<!-- Node0x1143fa70&#45;&gt;Node0x1143fba0 -->
<g id="edge4" class="edge"><title>Node0x1143fa70&#45;&gt;Node0x1143fba0</title>
<path fill="none" stroke="black" d="M339.767,-1211.27C324.417,-1198.97 306.042,-1180.95 297.5,-1160 288.438,-1137.78 283.616,-1125.58 297.5,-1106 315.542,-1080.56 341.764,-1062.63 370.396,-1050.01"/>
<polygon fill="black" stroke="black" points="371.891,-1053.18 379.77,-1046.1 369.194,-1046.72 371.891,-1053.18"/>
<text text-anchor="middle" x="341.5" y="-1129.3" font-family="Times,serif" font-size="14.00">a1 != NULL</text>
</g>
<!-- Node0x2fee3670&#45;&gt;Node0x1143fba0 -->
<g id="edge5" class="edge"><title>Node0x2fee3670&#45;&gt;Node0x1143fba0</title>
<path fill="none" stroke="black" d="M557.682,-1106.42C556.118,-1098.12 554.314,-1088.54 552.49,-1078.85"/>
<polygon fill="black" stroke="black" points="555.881,-1077.95 550.591,-1068.77 549.002,-1079.24 555.881,-1077.95"/>
</g>
<!-- Node0x1143fa10 -->
<g id="node6" class="node"><title>Node0x1143fa10</title>
<polygon fill="none" stroke="black" points="489,-894.5 489,-932.5 594,-932.5 594,-894.5 489,-894.5"/>
<text text-anchor="start" x="497" y="-917.3" font-family="Times,serif" font-size="14.00">if (v5 == 0):</text>
<text text-anchor="start" x="497" y="-902.3" font-family="Times,serif" font-size="14.00"> else:</text>
</g>
<!-- Node0x1143fba0&#45;&gt;Node0x1143fa10 -->
<g id="edge6" class="edge"><title>Node0x1143fba0&#45;&gt;Node0x1143fa10</title>
<path fill="none" stroke="black" d="M541.5,-970.458C541.5,-960.952 541.5,-951.27 541.5,-942.69"/>
<polygon fill="black" stroke="black" points="545,-942.509 541.5,-932.509 538,-942.509 545,-942.509"/>
</g>
<!-- Node0x2fee36d0 -->
<g id="node7" class="node"><title>Node0x2fee36d0</title>
<polygon fill="none" stroke="black" points="368.5,-797 368.5,-835 700.5,-835 700.5,-797 368.5,-797"/>
<text text-anchor="start" x="376.5" y="-819.8" font-family="Times,serif" font-size="14.00">v10 = *(IntToPtrCastExpr&lt;ptr&gt;((v4 + 20)))</text>
<text text-anchor="start" x="376.5" y="-804.8" font-family="Times,serif" font-size="14.00"> g9 = v10</text>
</g>
<!-- Node0x1143fa10&#45;&gt;Node0x2fee36d0 -->
<g id="edge7" class="edge"><title>Node0x1143fa10&#45;&gt;Node0x2fee36d0</title>
<path fill="none" stroke="black" d="M540.15,-894.087C539.137,-880.258 537.73,-861.071 536.574,-845.299"/>
<polygon fill="black" stroke="black" points="540.044,-844.75 535.822,-835.033 533.062,-845.262 540.044,-844.75"/>
<text text-anchor="middle" x="569.5" y="-864.8" font-family="Times,serif" font-size="14.00">v5 == 0</text>
</g>
<!-- Node0x114402a0 -->
<g id="node8" class="node"><title>Node0x114402a0</title>
<polygon fill="none" stroke="black" points="719,-789.5 719,-842.5 1080,-842.5 1080,-789.5 719,-789.5"/>
<text text-anchor="start" x="727" y="-827.3" font-family="Times,serif" font-size="14.00">0x404d7f:</text>
<text text-anchor="start" x="727" y="-812.3" font-family="Times,serif" font-size="14.00"> if (*(IntToPtrCastExpr&lt;ptr&gt;((v4 + 16))) == 0):</text>
<text text-anchor="start" x="727" y="-797.3" font-family="Times,serif" font-size="14.00"> else:</text>
</g>
<!-- Node0x1143fa10&#45;&gt;Node0x114402a0 -->
<g id="edge8" class="edge"><title>Node0x1143fa10&#45;&gt;Node0x114402a0</title>
<path fill="none" stroke="black" d="M594.324,-898.409C646.587,-884.467 728.049,-862.736 793.666,-845.232"/>
<polygon fill="black" stroke="black" points="794.88,-848.531 803.64,-842.572 793.076,-841.767 794.88,-848.531"/>
<text text-anchor="middle" x="758.5" y="-864.8" font-family="Times,serif" font-size="14.00">v5 != 0</text>
</g>
<!-- Node0x114401a0 -->
<g id="node9" class="node"><title>Node0x114401a0</title>
<polygon fill="none" stroke="black" points="408.5,-648 408.5,-684 522.5,-684 522.5,-648 408.5,-648"/>
<text text-anchor="start" x="416.5" y="-662.3" font-family="Times,serif" font-size="14.00">if (v10 == 0):</text>
</g>
<!-- Node0x2fee36d0&#45;&gt;Node0x114401a0 -->
<g id="edge9" class="edge"><title>Node0x2fee36d0&#45;&gt;Node0x114401a0</title>
<path fill="none" stroke="black" d="M526.039,-796.852C514.012,-771.055 491.89,-723.606 477.978,-693.765"/>
<polygon fill="black" stroke="black" points="480.999,-691.961 473.601,-684.376 474.654,-694.919 480.999,-691.961"/>
</g>
<!-- Node0x114406c0 -->
<g id="node10" class="node"><title>Node0x114406c0</title>
<polygon fill="none" stroke="black" points="764.5,-594.5 764.5,-737.5 1300.5,-737.5 1300.5,-594.5 764.5,-594.5"/>
<text text-anchor="start" x="772.5" y="-722.3" font-family="Times,serif" font-size="14.00">uId = *(IntToPtrCastExpr&lt;ptr&gt;((v4 + 8)))</text>
<text text-anchor="start" x="772.5" y="-707.3" font-family="Times,serif" font-size="14.00"> g7 = 1024</text>
<text text-anchor="start" x="772.5" y="-692.3" font-family="Times,serif" font-size="14.00"> v7 = uId</text>
<text text-anchor="start" x="772.5" y="-677.3" font-family="Times,serif" font-size="14.00"> hMenu = IntToPtrCastExpr&lt;ptr&gt;(*(IntToPtrCastExpr&lt;ptr&gt;((v5 + 4))))</text>
<text text-anchor="start" x="772.5" y="-662.3" font-family="Times,serif" font-size="14.00"> v11 = GetMenuState(hMenu, uId, 1024)</text>
<text text-anchor="start" x="772.5" y="-647.3" font-family="Times,serif" font-size="14.00"> v12 = g9</text>
<text text-anchor="start" x="772.5" y="-632.3" font-family="Times,serif" font-size="14.00"> v13 = *(IntToPtrCastExpr&lt;ptr&gt;((v12 + 8)))</text>
<text text-anchor="start" x="772.5" y="-617.3" font-family="Times,serif" font-size="14.00"> v14 = (v11 &amp; &#45;2309)</text>
<text text-anchor="start" x="772.5" y="-602.3" font-family="Times,serif" font-size="14.00"> g2 = v14</text>
</g>
<!-- Node0x114402a0&#45;&gt;Node0x114406c0 -->
<g id="edge10" class="edge"><title>Node0x114402a0&#45;&gt;Node0x114406c0</title>
<path fill="none" stroke="black" d="M988.621,-789.463C996.827,-784.377 1004.35,-778.288 1010.5,-771 1016.4,-764.009 1020.84,-755.825 1024.16,-747.174"/>
<polygon fill="black" stroke="black" points="1027.5,-748.23 1027.35,-737.637 1020.86,-746.013 1027.5,-748.23"/>
<text text-anchor="middle" x="1176" y="-759.8" font-family="Times,serif" font-size="14.00">*(IntToPtrCastExpr&lt;ptr&gt;((v4 + 16))) == 0</text>
</g>
<!-- Node0x11440dd0 -->
<g id="node11" class="node"><title>Node0x11440dd0</title>
<polygon fill="none" stroke="black" points="654,-537.5 654,-575.5 755,-575.5 755,-537.5 654,-537.5"/>
<text text-anchor="start" x="662" y="-560.3" font-family="Times,serif" font-size="14.00">v9 = v8</text>
<text text-anchor="start" x="662" y="-545.3" font-family="Times,serif" font-size="14.00"> result = v5</text>
</g>
<!-- Node0x114402a0&#45;&gt;Node0x11440dd0 -->
<g id="edge11" class="edge"><title>Node0x114402a0&#45;&gt;Node0x11440dd0</title>
<path fill="none" stroke="black" d="M734.031,-789.461C719.023,-784.314 707.284,-778.21 701.5,-771 658.569,-717.482 679.283,-629.752 694.053,-585.254"/>
<polygon fill="black" stroke="black" points="697.404,-586.273 697.364,-575.678 690.788,-583.986 697.404,-586.273"/>
<text text-anchor="middle" x="854" y="-759.8" font-family="Times,serif" font-size="14.00">*(IntToPtrCastExpr&lt;ptr&gt;((v4 + 16))) != 0</text>
</g>
<!-- Node0x11440660 -->
<g id="node12" class="node"><title>Node0x11440660</title>
<polygon fill="none" stroke="black" points="284.5,-482.5 284.5,-518.5 424.5,-518.5 424.5,-482.5 284.5,-482.5"/>
<text text-anchor="start" x="292.5" y="-496.8" font-family="Times,serif" font-size="14.00">goto 0x404d73_2</text>
</g>
<!-- Node0x114401a0&#45;&gt;Node0x11440660 -->
<g id="edge12" class="edge"><title>Node0x114401a0&#45;&gt;Node0x11440660</title>
<path fill="none" stroke="black" d="M441.858,-647.861C421.126,-631.614 391.686,-605.373 374.5,-576 366.065,-561.583 361.101,-543.53 358.229,-528.806"/>
<polygon fill="black" stroke="black" points="361.646,-528.027 356.488,-518.772 354.75,-529.224 361.646,-528.027"/>
<text text-anchor="middle" x="409" y="-552.8" font-family="Times,serif" font-size="14.00">v10 == 0</text>
</g>
<!-- Node0x1143fcf0 -->
<g id="node13" class="node"><title>Node0x1143fcf0</title>
<polygon fill="none" stroke="black" points="0,-395.5 0,-463.5 689,-463.5 689,-395.5 0,-395.5"/>
<text text-anchor="start" x="8" y="-448.3" font-family="Times,serif" font-size="14.00">0x404dbe:</text>
<text text-anchor="start" x="8" y="-433.3" font-family="Times,serif" font-size="14.00"> v7 = *(IntToPtrCastExpr&lt;ptr&gt;((v10 + 32)))</text>
<text text-anchor="start" x="8" y="-418.3" font-family="Times,serif" font-size="14.00"> result = function_4109c6(BitCastExpr&lt;ptr&gt;(&amp;(v7)), IntToPtrCastExpr&lt;ptr&gt;(g4), v3, v2, v1)</text>
<text text-anchor="start" x="8" y="-403.3" font-family="Times,serif" font-size="14.00"> v9 = v8</text>
</g>
<!-- Node0x114401a0&#45;&gt;Node0x1143fcf0 -->
<g id="edge13" class="edge"><title>Node0x114401a0&#45;&gt;Node0x1143fcf0</title>
<path fill="none" stroke="black" d="M467.062,-647.81C469.31,-613.101 469.779,-533.572 433.5,-482 430.634,-477.925 427.335,-474.127 423.732,-470.593"/>
<polygon fill="black" stroke="black" points="425.758,-467.713 415.949,-463.708 421.119,-472.956 425.758,-467.713"/>
<text text-anchor="middle" x="497" y="-552.8" font-family="Times,serif" font-size="14.00">v10 != 0</text>
</g>
<!-- Node0x11440720 -->
<g id="node14" class="node"><title>Node0x11440720</title>
<polygon fill="none" stroke="black" points="841,-482.5 841,-518.5 1224,-518.5 1224,-482.5 841,-482.5"/>
<text text-anchor="start" x="849" y="-496.8" font-family="Times,serif" font-size="14.00">if (v13 &gt;= *(IntToPtrCastExpr&lt;ptr&gt;((v12 + 32)))):</text>
</g>
<!-- Node0x114406c0&#45;&gt;Node0x11440720 -->
<g id="edge14" class="edge"><title>Node0x114406c0&#45;&gt;Node0x11440720</title>
<path fill="none" stroke="black" d="M1032.5,-594.237C1032.5,-570.972 1032.5,-546.497 1032.5,-528.536"/>
<polygon fill="black" stroke="black" points="1036,-528.518 1032.5,-518.518 1029,-528.518 1036,-528.518"/>
</g>
<!-- Node0x1143ffc0 -->
<g id="node15" class="node"><title>Node0x1143ffc0</title>
<polygon fill="none" stroke="black" points="566,-97.5 566,-180.5 843,-180.5 843,-97.5 566,-97.5"/>
<text text-anchor="start" x="574" y="-165.3" font-family="Times,serif" font-size="14.00">0x404dc7:</text>
<text text-anchor="start" x="574" y="-150.3" font-family="Times,serif" font-size="14.00"> g7 = PtrToIntCastExpr&lt;int32&gt;(v6)</text>
<text text-anchor="start" x="574" y="-135.3" font-family="Times,serif" font-size="14.00"> g9 = PtrToIntCastExpr&lt;int32&gt;(v9)</text>
<text text-anchor="start" x="574" y="-120.3" font-family="Times,serif" font-size="14.00"> g4 = v7</text>
<text text-anchor="start" x="574" y="-105.3" font-family="Times,serif" font-size="14.00"> return result</text>
</g>
<!-- Node0x11440dd0&#45;&gt;Node0x1143ffc0 -->
<g id="edge15" class="edge"><title>Node0x11440dd0&#45;&gt;Node0x1143ffc0</title>
<path fill="none" stroke="black" d="M704.5,-537.379C704.5,-477.385 704.5,-283.762 704.5,-190.771"/>
<polygon fill="black" stroke="black" points="708,-190.75 704.5,-180.75 701,-190.75 708,-190.75"/>
</g>
<!-- Node0x11440660&#45;&gt;Node0x2fee3670 -->
<g id="edge16" class="edge"><title>Node0x11440660&#45;&gt;Node0x2fee3670</title>
<path fill="none" stroke="black" d="M352.061,-518.643C348.05,-548.37 340.5,-611.44 340.5,-665 340.5,-1020.5 340.5,-1020.5 340.5,-1020.5 340.5,-1060.36 369.432,-1085.97 406.408,-1102.43"/>
<polygon fill="black" stroke="black" points="405.392,-1105.8 415.969,-1106.42 408.088,-1099.34 405.392,-1105.8"/>
</g>
<!-- Node0x1143fcf0&#45;&gt;Node0x1143ffc0 -->
<g id="edge17" class="edge"><title>Node0x1143fcf0&#45;&gt;Node0x1143ffc0</title>
<path fill="none" stroke="black" d="M385.797,-395.405C449.639,-344.243 572.549,-245.744 645.667,-187.148"/>
<polygon fill="black" stroke="black" points="648.278,-189.541 653.892,-180.556 643.9,-184.079 648.278,-189.541"/>
</g>
<!-- Node0x2fee3730 -->
<g id="node16" class="node"><title>Node0x2fee3730</title>
<polygon fill="none" stroke="black" points="1384,-278.5 1384,-316.5 1529,-316.5 1529,-278.5 1384,-278.5"/>
<text text-anchor="start" x="1392" y="-301.3" font-family="Times,serif" font-size="14.00">v8 = hMenu</text>
<text text-anchor="start" x="1392" y="-286.3" font-family="Times,serif" font-size="14.00"> goto 0x404d73_2</text>
</g>
<!-- Node0x11440720&#45;&gt;Node0x2fee3730 -->
<g id="edge18" class="edge"><title>Node0x11440720&#45;&gt;Node0x2fee3730</title>
<path fill="none" stroke="black" d="M1145.14,-482.406C1165.81,-477.416 1183.42,-471.297 1191.5,-464 1215.49,-442.338 1191.84,-418.057 1214.5,-395 1231.35,-377.855 1243.04,-385.571 1265.5,-377 1313.05,-358.85 1366.6,-336.689 1404.88,-320.547"/>
<polygon fill="black" stroke="black" points="1406.41,-323.696 1414.26,-316.579 1403.69,-317.248 1406.41,-323.696"/>
<text text-anchor="middle" x="1383" y="-425.8" font-family="Times,serif" font-size="14.00">v13 &gt;= *(IntToPtrCastExpr&lt;ptr&gt;((v12 + 32)))</text>
</g>
<!-- Node0x11440bd0 -->
<g id="node17" class="node"><title>Node0x11440bd0</title>
<polygon fill="none" stroke="black" points="732.5,-218.5 732.5,-376.5 1256.5,-376.5 1256.5,-218.5 732.5,-218.5"/>
<text text-anchor="start" x="740.5" y="-361.3" font-family="Times,serif" font-size="14.00">v15 = *(IntToPtrCastExpr&lt;ptr&gt;((v12 + 4)))</text>
<text text-anchor="start" x="740.5" y="-346.3" font-family="Times,serif" font-size="14.00"> v7 = v15</text>
<text text-anchor="start" x="740.5" y="-331.3" font-family="Times,serif" font-size="14.00"> v16 = (g7 | v14)</text>
<text text-anchor="start" x="740.5" y="-316.3" font-family="Times,serif" font-size="14.00"> g2 = v16</text>
<text text-anchor="start" x="740.5" y="-301.3" font-family="Times,serif" font-size="14.00"> v17 = IntToPtrCastExpr&lt;ptr&gt;(v16)</text>
<text text-anchor="start" x="740.5" y="-286.3" font-family="Times,serif" font-size="14.00"> v6 = IntToPtrCastExpr&lt;ptr&gt;(v13)</text>
<text text-anchor="start" x="740.5" y="-271.3" font-family="Times,serif" font-size="14.00"> g5 = *(IntToPtrCastExpr&lt;ptr&gt;((v12 + 12)))</text>
<text text-anchor="start" x="740.5" y="-256.3" font-family="Times,serif" font-size="14.00"> v18 = function_404be1(v6, v17, v15, IntToPtrCastExpr&lt;ptr&gt;(g4), v3)</text>
<text text-anchor="start" x="740.5" y="-241.3" font-family="Times,serif" font-size="14.00"> v9 = v17</text>
<text text-anchor="start" x="740.5" y="-226.3" font-family="Times,serif" font-size="14.00"> result = v18</text>
</g>
<!-- Node0x11440720&#45;&gt;Node0x11440bd0 -->
<g id="edge19" class="edge"><title>Node0x11440720&#45;&gt;Node0x11440bd0</title>
<path fill="none" stroke="black" d="M904.414,-482.467C886.824,-477.675 872.662,-471.619 866.5,-464 847.216,-440.156 852.82,-422.446 866.5,-395 868.215,-391.56 870.117,-388.21 872.182,-384.95"/>
<polygon fill="black" stroke="black" points="875.194,-386.748 878.009,-376.534 869.439,-382.763 875.194,-386.748"/>
<text text-anchor="middle" x="1029" y="-425.8" font-family="Times,serif" font-size="14.00">v13 &lt; *(IntToPtrCastExpr&lt;ptr&gt;((v12 + 32)))</text>
</g>
<!-- Node0x1143f620 -->
<g id="node18" class="node"><title>Node0x1143f620</title>
<polygon fill="none" stroke="black" points="677.5,-23.5 677.5,-59.5 731.5,-59.5 731.5,-23.5 677.5,-23.5"/>
<text text-anchor="start" x="685.5" y="-37.8" font-family="Times,serif" font-size="14.00">exit:</text>
</g>
<!-- Node0x1143ffc0&#45;&gt;Node0x1143f620 -->
<g id="edge20" class="edge"><title>Node0x1143ffc0&#45;&gt;Node0x1143f620</title>
<path fill="none" stroke="black" d="M704.5,-97.4994C704.5,-88.2058 704.5,-78.537 704.5,-69.9459"/>
<polygon fill="black" stroke="black" points="708,-69.7494 704.5,-59.7494 701,-69.7494 708,-69.7494"/>
</g>
<!-- Node0x2fee3730&#45;&gt;Node0x2fee3670 -->
<g id="edge21" class="edge"><title>Node0x2fee3730&#45;&gt;Node0x2fee3670</title>
<path fill="none" stroke="black" d="M1482.14,-316.765C1504.43,-334.168 1535.58,-362.485 1551.5,-395 1572.11,-437.084 1565.5,-452.641 1565.5,-499.5 1565.5,-1020.5 1565.5,-1020.5 1565.5,-1020.5 1565.5,-1102.5 1029.07,-1124.2 740.811,-1129.94"/>
<polygon fill="black" stroke="black" points="740.592,-1126.44 730.662,-1130.13 740.728,-1133.44 740.592,-1126.44"/>
</g>
<!-- Node0x11440bd0&#45;&gt;Node0x1143ffc0 -->
<g id="edge22" class="edge"><title>Node0x11440bd0&#45;&gt;Node0x1143ffc0</title>
<path fill="none" stroke="black" d="M849.925,-218.479C828.981,-207.177 808.025,-195.868 788.805,-185.496"/>
<polygon fill="black" stroke="black" points="790.273,-182.311 779.811,-180.642 786.949,-188.471 790.273,-182.311"/>
</g>
</g>
</svg>
