<?xml version="1.0" encoding="UTF-8" standalone="no"?>
<!DOCTYPE svg PUBLIC "-//W3C//DTD SVG 1.1//EN"
 "http://www.w3.org/Graphics/SVG/1.1/DTD/svg11.dtd">
<!-- Generated by graphviz version 2.38.0 (20140413.2041)
 -->
<!-- Title: Control&#45;flow graph for function &#39;function_4088d5(*a1)&#39;. Pages: 1 -->
<svg width="597pt" height="368pt"
 viewBox="0.00 0.00 597.00 368.00" xmlns="http://www.w3.org/2000/svg" xmlns:xlink="http://www.w3.org/1999/xlink">
<g id="graph0" class="graph" transform="scale(1 1) rotate(0) translate(4 364)">
<title>Control&#45;flow graph for function &#39;function_4088d5(*a1)&#39;.</title>
<polygon fill="white" stroke="none" points="-4,4 -4,-364 593,-364 593,4 -4,4"/>
<text text-anchor="middle" x="294.5" y="-7.8" font-family="Times,serif" font-size="14.00">Control&#45;flow graph for function &#39;function_4088d5(*a1)&#39;.</text>
<!-- Node0xc1d56e90 -->
<g id="node1" class="node"><title>Node0xc1d56e90</title>
<polygon fill="none" stroke="black" points="265,-321.5 265,-359.5 324,-359.5 324,-321.5 265,-321.5"/>
<text text-anchor="start" x="273" y="-344.3" font-family="Times,serif" font-size="14.00">entry:</text>
<text text-anchor="start" x="273" y="-329.3" font-family="Times,serif" font-size="14.00"> a1</text>
</g>
<!-- Node0xc1d57420 -->
<g id="node2" class="node"><title>Node0xc1d57420</title>
<polygon fill="none" stroke="black" points="0,-96.5 0,-284.5 589,-284.5 589,-96.5 0,-96.5"/>
<text text-anchor="start" x="8" y="-269.3" font-family="Times,serif" font-size="14.00">0x4088d5:</text>
<text text-anchor="start" x="8" y="-254.3" font-family="Times,serif" font-size="14.00"> v1</text>
<text text-anchor="start" x="8" y="-239.3" font-family="Times,serif" font-size="14.00"> g3 = &amp;(v1)</text>
<text text-anchor="start" x="8" y="-224.3" font-family="Times,serif" font-size="14.00"> v1 = 12</text>
<text text-anchor="start" x="8" y="-209.3" font-family="Times,serif" font-size="14.00"> g2 = 4418606</text>
<text text-anchor="start" x="8" y="-194.3" font-family="Times,serif" font-size="14.00"> __EH_prolog3_catch()</text>
<text text-anchor="start" x="8" y="-179.3" font-family="Times,serif" font-size="14.00"> *(IntToPtrCastExpr&lt;ptr&gt;(g5)) = PtrToIntCastExpr&lt;int32&gt;(&amp;(vtable_43a09c))</text>
<text text-anchor="start" x="8" y="-164.3" font-family="Times,serif" font-size="14.00"> function_40f898()</text>
<text text-anchor="start" x="8" y="-149.3" font-family="Times,serif" font-size="14.00"> v2</text>
<text text-anchor="start" x="8" y="-134.3" font-family="Times,serif" font-size="14.00"> g5 = v2</text>
<text text-anchor="start" x="8" y="-119.3" font-family="Times,serif" font-size="14.00"> abort()</text>
<text text-anchor="start" x="8" y="-104.3" font-family="Times,serif" font-size="14.00"> # UNREACHABLE</text>
</g>
<!-- Node0xc1d56e90&#45;&gt;Node0xc1d57420 -->
<g id="edge1" class="edge"><title>Node0xc1d56e90&#45;&gt;Node0xc1d57420</title>
<path fill="none" stroke="black" d="M294.5,-321.352C294.5,-314 294.5,-304.889 294.5,-294.929"/>
<polygon fill="black" stroke="black" points="298,-294.719 294.5,-284.719 291,-294.719 298,-294.719"/>
</g>
<!-- Node0x2b5a3230 -->
<g id="node3" class="node"><title>Node0x2b5a3230</title>
<polygon fill="none" stroke="black" points="267.5,-23.5 267.5,-59.5 321.5,-59.5 321.5,-23.5 267.5,-23.5"/>
<text text-anchor="start" x="275.5" y="-37.8" font-family="Times,serif" font-size="14.00">exit:</text>
</g>
<!-- Node0xc1d57420&#45;&gt;Node0x2b5a3230 -->
<g id="edge2" class="edge"><title>Node0xc1d57420&#45;&gt;Node0x2b5a3230</title>
<path fill="none" stroke="black" d="M294.5,-96.4027C294.5,-86.9531 294.5,-77.9697 294.5,-70.142"/>
<polygon fill="black" stroke="black" points="298,-69.9174 294.5,-59.9174 291,-69.9174 298,-69.9174"/>
</g>
</g>
</svg>
