<?xml version="1.0" encoding="UTF-8" standalone="no"?>
<!DOCTYPE svg PUBLIC "-//W3C//DTD SVG 1.1//EN"
 "http://www.w3.org/Graphics/SVG/1.1/DTD/svg11.dtd">
<!-- Generated by graphviz version 2.38.0 (20140413.2041)
 -->
<!-- Title: Control&#45;flow graph for function &#39;function_403180(a1, a2, a3, a4)&#39;. Pages: 1 -->
<svg width="808pt" height="1169pt"
 viewBox="0.00 0.00 807.50 1169.00" xmlns="http://www.w3.org/2000/svg" xmlns:xlink="http://www.w3.org/1999/xlink">
<g id="graph0" class="graph" transform="scale(1 1) rotate(0) translate(4 1165)">
<title>Control&#45;flow graph for function &#39;function_403180(a1, a2, a3, a4)&#39;.</title>
<polygon fill="white" stroke="none" points="-4,4 -4,-1165 803.5,-1165 803.5,4 -4,4"/>
<text text-anchor="middle" x="399.75" y="-7.8" font-family="Times,serif" font-size="14.00">Control&#45;flow graph for function &#39;function_403180(a1, a2, a3, a4)&#39;.</text>
<!-- Node0x222786a0 -->
<g id="node1" class="node"><title>Node0x222786a0</title>
<polygon fill="none" stroke="black" points="100,-1077.5 100,-1160.5 159,-1160.5 159,-1077.5 100,-1077.5"/>
<text text-anchor="start" x="108" y="-1145.3" font-family="Times,serif" font-size="14.00">entry:</text>
<text text-anchor="start" x="108" y="-1130.3" font-family="Times,serif" font-size="14.00"> a1</text>
<text text-anchor="start" x="108" y="-1115.3" font-family="Times,serif" font-size="14.00"> a2</text>
<text text-anchor="start" x="108" y="-1100.3" font-family="Times,serif" font-size="14.00"> a3</text>
<text text-anchor="start" x="108" y="-1085.3" font-family="Times,serif" font-size="14.00"> a4</text>
</g>
<!-- Node0x22279df0 -->
<g id="node2" class="node"><title>Node0x22279df0</title>
<polygon fill="none" stroke="black" points="91,-1001.5 91,-1039.5 168,-1039.5 168,-1001.5 91,-1001.5"/>
<text text-anchor="start" x="99" y="-1024.3" font-family="Times,serif" font-size="14.00">v1 = g8</text>
<text text-anchor="start" x="99" y="-1009.3" font-family="Times,serif" font-size="14.00"> v2 = g4</text>
</g>
<!-- Node0x222786a0&#45;&gt;Node0x22279df0 -->
<g id="edge1" class="edge"><title>Node0x222786a0&#45;&gt;Node0x22279df0</title>
<path fill="none" stroke="black" d="M129.5,-1077.35C129.5,-1068.08 129.5,-1058.43 129.5,-1049.8"/>
<polygon fill="black" stroke="black" points="133,-1049.54 129.5,-1039.54 126,-1049.54 133,-1049.54"/>
</g>
<!-- Node0x22279ea0 -->
<g id="node3" class="node"><title>Node0x22279ea0</title>
<polygon fill="none" stroke="black" points="73,-927.5 73,-963.5 186,-963.5 186,-927.5 73,-927.5"/>
<text text-anchor="start" x="81" y="-941.8" font-family="Times,serif" font-size="14.00">if (v1 == v2):</text>
</g>
<!-- Node0x22279df0&#45;&gt;Node0x22279ea0 -->
<g id="edge2" class="edge"><title>Node0x22279df0&#45;&gt;Node0x22279ea0</title>
<path fill="none" stroke="black" d="M129.5,-1001.46C129.5,-993.201 129.5,-983.238 129.5,-974.074"/>
<polygon fill="black" stroke="black" points="133,-973.835 129.5,-963.835 126,-973.835 133,-973.835"/>
</g>
<!-- Node0x2227a540 -->
<g id="node4" class="node"><title>Node0x2227a540</title>
<polygon fill="none" stroke="black" points="0,-767.5 0,-820.5 113,-820.5 113,-767.5 0,-767.5"/>
<text text-anchor="start" x="8" y="-805.3" font-family="Times,serif" font-size="14.00">0x4031a6:</text>
<text text-anchor="start" x="8" y="-790.3" font-family="Times,serif" font-size="14.00"> result</text>
<text text-anchor="start" x="8" y="-775.3" font-family="Times,serif" font-size="14.00"> return result</text>
</g>
<!-- Node0x22279ea0&#45;&gt;Node0x2227a540 -->
<g id="edge3" class="edge"><title>Node0x22279ea0&#45;&gt;Node0x2227a540</title>
<path fill="none" stroke="black" d="M121.126,-927.35C109.553,-903.649 88.4065,-860.343 73.4597,-829.732"/>
<polygon fill="black" stroke="black" points="76.5704,-828.126 69.0375,-820.676 70.2802,-831.198 76.5704,-828.126"/>
<text text-anchor="middle" x="145.5" y="-897.8" font-family="Times,serif" font-size="14.00">v1 == v2</text>
</g>
<!-- Node0x22279f70 -->
<g id="node5" class="node"><title>Node0x22279f70</title>
<polygon fill="none" stroke="black" points="263.5,-839.5 263.5,-875.5 331.5,-875.5 331.5,-839.5 263.5,-839.5"/>
<text text-anchor="start" x="271.5" y="-853.8" font-family="Times,serif" font-size="14.00">result2</text>
</g>
<!-- Node0x22279ea0&#45;&gt;Node0x22279f70 -->
<g id="edge4" class="edge"><title>Node0x22279ea0&#45;&gt;Node0x22279f70</title>
<path fill="none" stroke="black" d="M163.094,-927.303C189.62,-913.724 226.788,-894.698 255.317,-880.094"/>
<polygon fill="black" stroke="black" points="256.945,-883.192 264.251,-875.52 253.755,-876.961 256.945,-883.192"/>
<text text-anchor="middle" x="255.5" y="-897.8" font-family="Times,serif" font-size="14.00">v1 != v2</text>
</g>
<!-- Node0x22279d90 -->
<g id="node6" class="node"><title>Node0x22279d90</title>
<polygon fill="none" stroke="black" points="63.5,-23.5 63.5,-59.5 117.5,-59.5 117.5,-23.5 63.5,-23.5"/>
<text text-anchor="start" x="71.5" y="-37.8" font-family="Times,serif" font-size="14.00">exit:</text>
</g>
<!-- Node0x2227a540&#45;&gt;Node0x22279d90 -->
<g id="edge5" class="edge"><title>Node0x2227a540&#45;&gt;Node0x22279d90</title>
<path fill="none" stroke="black" d="M53.8536,-767.449C51.8713,-746.103 49.5,-714.851 49.5,-687.5 49.5,-687.5 49.5,-687.5 49.5,-115.5 49.5,-98.0912 58.4736,-80.9938 68.0245,-67.7267"/>
<polygon fill="black" stroke="black" points="70.9593,-69.6525 74.2957,-59.5967 65.4167,-65.3771 70.9593,-69.6525"/>
</g>
<!-- Node0x2227a0b0 -->
<g id="node7" class="node"><title>Node0x2227a0b0</title>
<polygon fill="none" stroke="black" points="549,-712.5 549,-748.5 646,-748.5 646,-712.5 549,-712.5"/>
<text text-anchor="start" x="557" y="-726.8" font-family="Times,serif" font-size="14.00">while True:</text>
</g>
<!-- Node0x22279f70&#45;&gt;Node0x2227a0b0 -->
<g id="edge6" class="edge"><title>Node0x22279f70&#45;&gt;Node0x2227a0b0</title>
<path fill="none" stroke="black" d="M331.622,-842.283C384.247,-820.356 485.525,-778.156 546.759,-752.642"/>
<polygon fill="black" stroke="black" points="548.345,-755.773 556.23,-748.696 545.653,-749.311 548.345,-755.773"/>
</g>
<!-- Node0x2227a660 -->
<g id="node8" class="node"><title>Node0x2227a660</title>
<polygon fill="none" stroke="black" points="559,-622.5 559,-660.5 636,-660.5 636,-622.5 559,-622.5"/>
<text text-anchor="start" x="567" y="-645.3" font-family="Times,serif" font-size="14.00">v3 = v2</text>
<text text-anchor="start" x="567" y="-630.3" font-family="Times,serif" font-size="14.00"> v4 = v1</text>
</g>
<!-- Node0x2227a0b0&#45;&gt;Node0x2227a660 -->
<g id="edge7" class="edge"><title>Node0x2227a0b0&#45;&gt;Node0x2227a660</title>
<path fill="none" stroke="black" d="M597.5,-712.312C597.5,-700.511 597.5,-684.572 597.5,-670.904"/>
<polygon fill="black" stroke="black" points="601,-670.551 597.5,-660.551 594,-670.551 601,-670.551"/>
<text text-anchor="middle" x="614.5" y="-682.8" font-family="Times,serif" font-size="14.00">True</text>
</g>
<!-- Node0x2227a020 -->
<g id="node9" class="node"><title>Node0x2227a020</title>
<polygon fill="none" stroke="black" points="531,-548.5 531,-584.5 664,-584.5 664,-548.5 531,-548.5"/>
<text text-anchor="start" x="539" y="-562.8" font-family="Times,serif" font-size="14.00">if (result2 != 0):</text>
</g>
<!-- Node0x2227a660&#45;&gt;Node0x2227a020 -->
<g id="edge8" class="edge"><title>Node0x2227a660&#45;&gt;Node0x2227a020</title>
<path fill="none" stroke="black" d="M597.5,-622.455C597.5,-614.201 597.5,-604.238 597.5,-595.074"/>
<polygon fill="black" stroke="black" points="601,-594.835 597.5,-584.835 594,-594.835 601,-594.835"/>
</g>
<!-- Node0x2227a910 -->
<g id="node10" class="node"><title>Node0x2227a910</title>
<polygon fill="none" stroke="black" points="77.5,-428.5 77.5,-496.5 641.5,-496.5 641.5,-428.5 77.5,-428.5"/>
<text text-anchor="start" x="85.5" y="-481.3" font-family="Times,serif" font-size="14.00">0x40318a:</text>
<text text-anchor="start" x="85.5" y="-466.3" font-family="Times,serif" font-size="14.00"> memcpy(IntToPtrCastExpr&lt;ptr&gt;(result2), IntToPtrCastExpr&lt;ptr&gt;(v1), 34)</text>
<text text-anchor="start" x="85.5" y="-451.3" font-family="Times,serif" font-size="14.00"> v3 = g4</text>
<text text-anchor="start" x="85.5" y="-436.3" font-family="Times,serif" font-size="14.00"> v4 = g8</text>
</g>
<!-- Node0x2227a020&#45;&gt;Node0x2227a910 -->
<g id="edge9" class="edge"><title>Node0x2227a020&#45;&gt;Node0x2227a910</title>
<path fill="none" stroke="black" d="M557.664,-548.427C527.288,-535.409 484.318,-516.993 446.152,-500.636"/>
<polygon fill="black" stroke="black" points="447.133,-497.249 436.562,-496.527 444.375,-503.683 447.133,-497.249"/>
<text text-anchor="middle" x="557.5" y="-518.8" font-family="Times,serif" font-size="14.00">result2 != 0</text>
</g>
<!-- Node0x2227a190 -->
<g id="node11" class="node"><title>Node0x2227a190</title>
<polygon fill="none" stroke="black" points="486,-337.5 486,-390.5 689,-390.5 689,-337.5 486,-337.5"/>
<text text-anchor="start" x="494" y="-375.3" font-family="Times,serif" font-size="14.00">v5 = (v4 + 136)</text>
<text text-anchor="start" x="494" y="-360.3" font-family="Times,serif" font-size="14.00"> g8 = v5</text>
<text text-anchor="start" x="494" y="-345.3" font-family="Times,serif" font-size="14.00"> result2 = (result2 + 136)</text>
</g>
<!-- Node0x2227a020&#45;&gt;Node0x2227a190 -->
<g id="edge10" class="edge"><title>Node0x2227a020&#45;&gt;Node0x2227a190</title>
<path fill="none" stroke="black" d="M616.092,-548.322C628.481,-535.539 643.693,-516.92 650.5,-497 660.416,-467.981 662.236,-456.332 650.5,-428 645.876,-416.836 638.206,-406.618 629.781,-397.809"/>
<polygon fill="black" stroke="black" points="632.17,-395.249 622.577,-390.751 627.271,-400.249 632.17,-395.249"/>
<text text-anchor="middle" x="705.5" y="-458.8" font-family="Times,serif" font-size="14.00">result2 == 0</text>
</g>
<!-- Node0x2227a910&#45;&gt;Node0x2227a190 -->
<g id="edge11" class="edge"><title>Node0x2227a910&#45;&gt;Node0x2227a190</title>
<path fill="none" stroke="black" d="M437.646,-428.425C463.593,-417.443 492.3,-405.293 517.586,-394.591"/>
<polygon fill="black" stroke="black" points="519.251,-397.687 527.096,-390.566 516.523,-391.24 519.251,-397.687"/>
</g>
<!-- Node0x15c64a60 -->
<g id="node12" class="node"><title>Node0x15c64a60</title>
<polygon fill="none" stroke="black" points="531,-263.5 531,-299.5 644,-299.5 644,-263.5 531,-263.5"/>
<text text-anchor="start" x="539" y="-277.8" font-family="Times,serif" font-size="14.00">if (v5 == v3):</text>
</g>
<!-- Node0x2227a190&#45;&gt;Node0x15c64a60 -->
<g id="edge12" class="edge"><title>Node0x2227a190&#45;&gt;Node0x15c64a60</title>
<path fill="none" stroke="black" d="M587.5,-337.086C587.5,-328.46 587.5,-318.822 587.5,-310.075"/>
<polygon fill="black" stroke="black" points="591,-309.973 587.5,-299.974 584,-309.974 591,-309.973"/>
</g>
<!-- Node0x22277880 -->
<g id="node13" class="node"><title>Node0x22277880</title>
<polygon fill="none" stroke="black" points="264.5,-173.5 264.5,-211.5 422.5,-211.5 422.5,-173.5 264.5,-173.5"/>
<text text-anchor="start" x="272.5" y="-196.3" font-family="Times,serif" font-size="14.00">break &#45;&gt; 0x4031a4:</text>
<text text-anchor="start" x="272.5" y="-181.3" font-family="Times,serif" font-size="14.00"> break</text>
</g>
<!-- Node0x15c64a60&#45;&gt;Node0x22277880 -->
<g id="edge13" class="edge"><title>Node0x15c64a60&#45;&gt;Node0x22277880</title>
<path fill="none" stroke="black" d="M539.585,-263.415C500.7,-249.551 445.655,-229.924 403.78,-214.993"/>
<polygon fill="black" stroke="black" points="404.843,-211.656 394.248,-211.595 402.492,-218.25 404.843,-211.656"/>
<text text-anchor="middle" x="520.5" y="-233.8" font-family="Times,serif" font-size="14.00">v5 == v3</text>
</g>
<!-- Node0x2227a840 -->
<g id="node14" class="node"><title>Node0x2227a840</title>
<polygon fill="none" stroke="black" points="628,-173.5 628,-211.5 705,-211.5 705,-173.5 628,-173.5"/>
<text text-anchor="start" x="636" y="-196.3" font-family="Times,serif" font-size="14.00">v2 = v3</text>
<text text-anchor="start" x="636" y="-181.3" font-family="Times,serif" font-size="14.00"> v1 = v5</text>
</g>
<!-- Node0x15c64a60&#45;&gt;Node0x2227a840 -->
<g id="edge14" class="edge"><title>Node0x15c64a60&#45;&gt;Node0x2227a840</title>
<path fill="none" stroke="black" d="M603.108,-263.312C614.566,-250.693 630.32,-233.343 643.257,-219.097"/>
<polygon fill="black" stroke="black" points="645.977,-221.307 650.109,-211.551 640.795,-216.602 645.977,-221.307"/>
<text text-anchor="middle" x="662.5" y="-233.8" font-family="Times,serif" font-size="14.00">v5 != v3</text>
</g>
<!-- Node0x2227a4e0 -->
<g id="node15" class="node"><title>Node0x2227a4e0</title>
<polygon fill="none" stroke="black" points="128.5,-97.5 128.5,-135.5 250.5,-135.5 250.5,-97.5 128.5,-97.5"/>
<text text-anchor="start" x="136.5" y="-120.3" font-family="Times,serif" font-size="14.00">0x4031a6:</text>
<text text-anchor="start" x="136.5" y="-105.3" font-family="Times,serif" font-size="14.00"> return result2</text>
</g>
<!-- Node0x22277880&#45;&gt;Node0x2227a4e0 -->
<g id="edge15" class="edge"><title>Node0x22277880&#45;&gt;Node0x2227a4e0</title>
<path fill="none" stroke="black" d="M305.827,-173.398C284.868,-163.326 258.595,-150.702 236.323,-139.999"/>
<polygon fill="black" stroke="black" points="237.58,-136.72 227.05,-135.544 234.548,-143.03 237.58,-136.72"/>
</g>
<!-- Node0x2227a840&#45;&gt;Node0x2227a0b0 -->
<g id="edge16" class="edge"><title>Node0x2227a840&#45;&gt;Node0x2227a0b0</title>
<path fill="none" stroke="black" d="M705.327,-201.503C744.583,-212.132 799.5,-235.112 799.5,-280.5 799.5,-642.5 799.5,-642.5 799.5,-642.5 799.5,-705.397 715.869,-723.372 656.23,-728.194"/>
<polygon fill="black" stroke="black" points="655.87,-724.711 646.141,-728.906 656.362,-731.694 655.87,-724.711"/>
</g>
<!-- Node0x2227a4e0&#45;&gt;Node0x22279d90 -->
<g id="edge17" class="edge"><title>Node0x2227a4e0&#45;&gt;Node0x22279d90</title>
<path fill="none" stroke="black" d="M165.028,-97.4551C152.036,-87.8747 135.921,-75.9925 122.004,-65.7303"/>
<polygon fill="black" stroke="black" points="123.796,-62.7028 113.67,-59.585 119.641,-68.3368 123.796,-62.7028"/>
</g>
</g>
</svg>
