<?xml version="1.0" encoding="UTF-8" standalone="no"?>
<!DOCTYPE svg PUBLIC "-//W3C//DTD SVG 1.1//EN"
 "http://www.w3.org/Graphics/SVG/1.1/DTD/svg11.dtd">
<!-- Generated by graphviz version 2.38.0 (20140413.2041)
 -->
<!-- Title: Control&#45;flow graph for function &#39;function_404b76(a1)&#39;. Pages: 1 -->
<svg width="517pt" height="685pt"
 viewBox="0.00 0.00 517.00 685.00" xmlns="http://www.w3.org/2000/svg" xmlns:xlink="http://www.w3.org/1999/xlink">
<g id="graph0" class="graph" transform="scale(1 1) rotate(0) translate(4 681)">
<title>Control&#45;flow graph for function &#39;function_404b76(a1)&#39;.</title>
<polygon fill="white" stroke="none" points="-4,4 -4,-681 513,-681 513,4 -4,4"/>
<text text-anchor="middle" x="254.5" y="-7.8" font-family="Times,serif" font-size="14.00">Control&#45;flow graph for function &#39;function_404b76(a1)&#39;.</text>
<!-- Node0x9e5d5310 -->
<g id="node1" class="node"><title>Node0x9e5d5310</title>
<polygon fill="none" stroke="black" points="226,-638.5 226,-676.5 285,-676.5 285,-638.5 226,-638.5"/>
<text text-anchor="start" x="234" y="-661.3" font-family="Times,serif" font-size="14.00">entry:</text>
<text text-anchor="start" x="234" y="-646.3" font-family="Times,serif" font-size="14.00"> a1</text>
</g>
<!-- Node0x2fedbc80 -->
<g id="node2" class="node"><title>Node0x2fedbc80</title>
<polygon fill="none" stroke="black" points="13.5,-442.5 13.5,-600.5 497.5,-600.5 497.5,-442.5 13.5,-442.5"/>
<text text-anchor="start" x="21.5" y="-585.3" font-family="Times,serif" font-size="14.00">v1 = g9</text>
<text text-anchor="start" x="21.5" y="-570.3" font-family="Times,serif" font-size="14.00"> v2 = 13</text>
<text text-anchor="start" x="21.5" y="-555.3" font-family="Times,serif" font-size="14.00"> g9 = g5</text>
<text text-anchor="start" x="21.5" y="-540.3" font-family="Times,serif" font-size="14.00"> function_410939(&amp;(v2), &amp;(v1))</text>
<text text-anchor="start" x="21.5" y="-525.3" font-family="Times,serif" font-size="14.00"> v3 = g9</text>
<text text-anchor="start" x="21.5" y="-510.3" font-family="Times,serif" font-size="14.00"> v4 = *(IntToPtrCastExpr&lt;ptr&gt;(v3))</text>
<text text-anchor="start" x="21.5" y="-495.3" font-family="Times,serif" font-size="14.00"> g2 = v4</text>
<text text-anchor="start" x="21.5" y="-480.3" font-family="Times,serif" font-size="14.00"> g5 = v3</text>
<text text-anchor="start" x="21.5" y="-465.3" font-family="Times,serif" font-size="14.00"> IntToPtrCastExpr&lt;ptr&gt;(*(IntToPtrCastExpr&lt;ptr&gt;((v4 + 32))))()</text>
<text text-anchor="start" x="21.5" y="-450.3" font-family="Times,serif" font-size="14.00"> v5 = g2</text>
</g>
<!-- Node0x9e5d5310&#45;&gt;Node0x2fedbc80 -->
<g id="edge1" class="edge"><title>Node0x9e5d5310&#45;&gt;Node0x2fedbc80</title>
<path fill="none" stroke="black" d="M255.5,-638.428C255.5,-630.741 255.5,-621.164 255.5,-610.831"/>
<polygon fill="black" stroke="black" points="259,-610.73 255.5,-600.73 252,-610.73 259,-610.73"/>
</g>
<!-- Node0x2fedbf90 -->
<g id="node3" class="node"><title>Node0x2fedbf90</title>
<polygon fill="none" stroke="black" points="206,-368.5 206,-404.5 305,-404.5 305,-368.5 206,-368.5"/>
<text text-anchor="start" x="214" y="-382.8" font-family="Times,serif" font-size="14.00">if (v5 != 0):</text>
</g>
<!-- Node0x2fedbc80&#45;&gt;Node0x2fedbf90 -->
<g id="edge2" class="edge"><title>Node0x2fedbc80&#45;&gt;Node0x2fedbf90</title>
<path fill="none" stroke="black" d="M255.5,-442.364C255.5,-432.457 255.5,-422.905 255.5,-414.625"/>
<polygon fill="black" stroke="black" points="259,-414.552 255.5,-404.552 252,-414.552 259,-414.552"/>
</g>
<!-- Node0x2fedc2b0 -->
<g id="node4" class="node"><title>Node0x2fedc2b0</title>
<polygon fill="none" stroke="black" points="92.5,-263.5 92.5,-316.5 254.5,-316.5 254.5,-263.5 92.5,-263.5"/>
<text text-anchor="start" x="100.5" y="-301.3" font-family="Times,serif" font-size="14.00">0x404b8b:</text>
<text text-anchor="start" x="100.5" y="-286.3" font-family="Times,serif" font-size="14.00"> g5 = v5</text>
<text text-anchor="start" x="100.5" y="-271.3" font-family="Times,serif" font-size="14.00"> function_40fb6f(v2)</text>
</g>
<!-- Node0x2fedbf90&#45;&gt;Node0x2fedc2b0 -->
<g id="edge3" class="edge"><title>Node0x2fedbf90&#45;&gt;Node0x2fedc2b0</title>
<path fill="none" stroke="black" d="M239.191,-368.343C233.806,-362.577 227.833,-356.068 222.5,-350 215.306,-341.814 207.704,-332.832 200.69,-324.4"/>
<polygon fill="black" stroke="black" points="203.248,-322.002 194.177,-316.527 197.854,-326.463 203.248,-322.002"/>
<text text-anchor="middle" x="249.5" y="-338.8" font-family="Times,serif" font-size="14.00">v5 != 0</text>
</g>
<!-- Node0x2fedbff0 -->
<g id="node5" class="node"><title>Node0x2fedbff0</title>
<polygon fill="none" stroke="black" points="-2.84217e-14,-97.5 -2.84217e-14,-225.5 509,-225.5 509,-97.5 -2.84217e-14,-97.5"/>
<text text-anchor="start" x="8" y="-210.3" font-family="Times,serif" font-size="14.00">0x404b92:</text>
<text text-anchor="start" x="8" y="-195.3" font-family="Times,serif" font-size="14.00"> function_4109a6(IntToPtrCastExpr&lt;ptr&gt;(13))</text>
<text text-anchor="start" x="8" y="-180.3" font-family="Times,serif" font-size="14.00"> v6 = g9</text>
<text text-anchor="start" x="8" y="-165.3" font-family="Times,serif" font-size="14.00"> result = *(IntToPtrCastExpr&lt;ptr&gt;(v6))</text>
<text text-anchor="start" x="8" y="-150.3" font-family="Times,serif" font-size="14.00"> g5 = v6</text>
<text text-anchor="start" x="8" y="-135.3" font-family="Times,serif" font-size="14.00"> IntToPtrCastExpr&lt;ptr&gt;(*(IntToPtrCastExpr&lt;ptr&gt;((result + 4))))(1)</text>
<text text-anchor="start" x="8" y="-120.3" font-family="Times,serif" font-size="14.00"> g9 = 1</text>
<text text-anchor="start" x="8" y="-105.3" font-family="Times,serif" font-size="14.00"> return result</text>
</g>
<!-- Node0x2fedbf90&#45;&gt;Node0x2fedbff0 -->
<g id="edge4" class="edge"><title>Node0x2fedbf90&#45;&gt;Node0x2fedbff0</title>
<path fill="none" stroke="black" d="M268.172,-368.283C271.56,-362.726 274.761,-356.354 276.5,-350 278.26,-343.57 276.923,-341.653 276.5,-335 274.428,-302.381 270.174,-266.501 265.954,-235.951"/>
<polygon fill="black" stroke="black" points="269.386,-235.223 264.528,-225.808 262.455,-236.198 269.386,-235.223"/>
<text text-anchor="middle" x="304.5" y="-286.3" font-family="Times,serif" font-size="14.00">v5 == 0</text>
</g>
<!-- Node0x2fedc2b0&#45;&gt;Node0x2fedbff0 -->
<g id="edge5" class="edge"><title>Node0x2fedc2b0&#45;&gt;Node0x2fedbff0</title>
<path fill="none" stroke="black" d="M189.892,-263.401C195.436,-254.742 201.928,-244.603 208.62,-234.152"/>
<polygon fill="black" stroke="black" points="211.57,-236.036 214.015,-225.727 205.675,-232.261 211.57,-236.036"/>
</g>
<!-- Node0x2fedbc20 -->
<g id="node6" class="node"><title>Node0x2fedbc20</title>
<polygon fill="none" stroke="black" points="227.5,-23.5 227.5,-59.5 281.5,-59.5 281.5,-23.5 227.5,-23.5"/>
<text text-anchor="start" x="235.5" y="-37.8" font-family="Times,serif" font-size="14.00">exit:</text>
</g>
<!-- Node0x2fedbff0&#45;&gt;Node0x2fedbc20 -->
<g id="edge6" class="edge"><title>Node0x2fedbff0&#45;&gt;Node0x2fedbc20</title>
<path fill="none" stroke="black" d="M254.5,-97.3546C254.5,-87.7534 254.5,-78.2993 254.5,-70.016"/>
<polygon fill="black" stroke="black" points="258,-69.8875 254.5,-59.8875 251,-69.8876 258,-69.8875"/>
</g>
</g>
</svg>
