<?xml version="1.0" encoding="UTF-8" standalone="no"?>
<!DOCTYPE svg PUBLIC "-//W3C//DTD SVG 1.1//EN"
 "http://www.w3.org/Graphics/SVG/1.1/DTD/svg11.dtd">
<!-- Generated by graphviz version 2.38.0 (20140413.2041)
 -->
<!-- Title: Control&#45;flow graph for function &#39;function_41c86e(*a1, a2)&#39;. Pages: 1 -->
<svg width="478pt" height="353pt"
 viewBox="0.00 0.00 478.00 353.00" xmlns="http://www.w3.org/2000/svg" xmlns:xlink="http://www.w3.org/1999/xlink">
<g id="graph0" class="graph" transform="scale(1 1) rotate(0) translate(4 349)">
<title>Control&#45;flow graph for function &#39;function_41c86e(*a1, a2)&#39;.</title>
<polygon fill="white" stroke="none" points="-4,4 -4,-349 474,-349 474,4 -4,4"/>
<text text-anchor="middle" x="235" y="-7.8" font-family="Times,serif" font-size="14.00">Control&#45;flow graph for function &#39;function_41c86e(*a1, a2)&#39;.</text>
<!-- Node0x33fc17c0 -->
<g id="node1" class="node"><title>Node0x33fc17c0</title>
<polygon fill="none" stroke="black" points="205.5,-291.5 205.5,-344.5 264.5,-344.5 264.5,-291.5 205.5,-291.5"/>
<text text-anchor="start" x="213.5" y="-329.3" font-family="Times,serif" font-size="14.00">entry:</text>
<text text-anchor="start" x="213.5" y="-314.3" font-family="Times,serif" font-size="14.00"> a1</text>
<text text-anchor="start" x="213.5" y="-299.3" font-family="Times,serif" font-size="14.00"> a2</text>
</g>
<!-- Node0x33fc31d0 -->
<g id="node2" class="node"><title>Node0x33fc31d0</title>
<polygon fill="none" stroke="black" points="0,-96.5 0,-254.5 470,-254.5 470,-96.5 0,-96.5"/>
<text text-anchor="start" x="8" y="-239.3" font-family="Times,serif" font-size="14.00">v1 = IntToPtrCastExpr&lt;ptr&gt;(g5)</text>
<text text-anchor="start" x="8" y="-224.3" font-family="Times,serif" font-size="14.00"> v2 = 0</text>
<text text-anchor="start" x="8" y="-209.3" font-family="Times,serif" font-size="14.00"> v1[&#39;3&#39;] = 0</text>
<text text-anchor="start" x="8" y="-194.3" font-family="Times,serif" font-size="14.00"> v1[&#39;4&#39;] = v2</text>
<text text-anchor="start" x="8" y="-179.3" font-family="Times,serif" font-size="14.00"> v1[&#39;2&#39;] = v2</text>
<text text-anchor="start" x="8" y="-164.3" font-family="Times,serif" font-size="14.00"> v1[&#39;1&#39;] = v2</text>
<text text-anchor="start" x="8" y="-149.3" font-family="Times,serif" font-size="14.00"> v1[&#39;5&#39;] = v2</text>
<text text-anchor="start" x="8" y="-134.3" font-family="Times,serif" font-size="14.00"> v1[&#39;0&#39;] = PtrToIntCastExpr&lt;int32&gt;(&amp;(vtable_43baf0))</text>
<text text-anchor="start" x="8" y="-119.3" font-family="Times,serif" font-size="14.00"> v1[&#39;6&#39;] = IntToPtrCastExpr&lt;ptr&gt;(ExtCastExpr&lt;int32&gt;(*(a1)))</text>
<text text-anchor="start" x="8" y="-104.3" font-family="Times,serif" font-size="14.00"> return g5</text>
</g>
<!-- Node0x33fc17c0&#45;&gt;Node0x33fc31d0 -->
<g id="edge1" class="edge"><title>Node0x33fc17c0&#45;&gt;Node0x33fc31d0</title>
<path fill="none" stroke="black" d="M235,-291.23C235,-283.41 235,-274.341 235,-264.795"/>
<polygon fill="black" stroke="black" points="238.5,-264.707 235,-254.707 231.5,-264.707 238.5,-264.707"/>
</g>
<!-- Node0x33fc3170 -->
<g id="node3" class="node"><title>Node0x33fc3170</title>
<polygon fill="none" stroke="black" points="208,-23.5 208,-59.5 262,-59.5 262,-23.5 208,-23.5"/>
<text text-anchor="start" x="216" y="-37.8" font-family="Times,serif" font-size="14.00">exit:</text>
</g>
<!-- Node0x33fc31d0&#45;&gt;Node0x33fc3170 -->
<g id="edge2" class="edge"><title>Node0x33fc31d0&#45;&gt;Node0x33fc3170</title>
<path fill="none" stroke="black" d="M235,-96.1895C235,-86.7241 235,-77.609 235,-69.6605"/>
<polygon fill="black" stroke="black" points="238.5,-69.6213 235,-59.6214 231.5,-69.6214 238.5,-69.6213"/>
</g>
</g>
</svg>
