<?xml version="1.0" encoding="UTF-8" standalone="no"?>
<!DOCTYPE svg PUBLIC "-//W3C//DTD SVG 1.1//EN"
 "http://www.w3.org/Graphics/SVG/1.1/DTD/svg11.dtd">
<!-- Generated by graphviz version 2.38.0 (20140413.2041)
 -->
<!-- Title: Control&#45;flow graph for function &#39;function_43816e()&#39;. Pages: 1 -->
<svg width="430pt" height="531pt"
 viewBox="0.00 0.00 430.00 531.00" xmlns="http://www.w3.org/2000/svg" xmlns:xlink="http://www.w3.org/1999/xlink">
<g id="graph0" class="graph" transform="scale(1 1) rotate(0) translate(4 527)">
<title>Control&#45;flow graph for function &#39;function_43816e()&#39;.</title>
<polygon fill="white" stroke="none" points="-4,4 -4,-527 426,-527 426,4 -4,4"/>
<text text-anchor="middle" x="211" y="-7.8" font-family="Times,serif" font-size="14.00">Control&#45;flow graph for function &#39;function_43816e()&#39;.</text>
<!-- Node0x9f37e880 -->
<g id="node1" class="node"><title>Node0x9f37e880</title>
<polygon fill="none" stroke="black" points="181.5,-486.5 181.5,-522.5 240.5,-522.5 240.5,-486.5 181.5,-486.5"/>
<text text-anchor="start" x="189.5" y="-500.8" font-family="Times,serif" font-size="14.00">entry:</text>
</g>
<!-- Node0x9f381020 -->
<g id="node2" class="node"><title>Node0x9f381020</title>
<polygon fill="none" stroke="black" points="0,-96.5 0,-449.5 422,-449.5 422,-96.5 0,-96.5"/>
<text text-anchor="start" x="8" y="-434.3" font-family="Times,serif" font-size="14.00">0x43816e:</text>
<text text-anchor="start" x="8" y="-419.3" font-family="Times,serif" font-size="14.00"> g5 = 4502264</text>
<text text-anchor="start" x="8" y="-404.3" font-family="Times,serif" font-size="14.00"> v1</text>
<text text-anchor="start" x="8" y="-389.3" font-family="Times,serif" font-size="14.00"> function_404bfd(v1)</text>
<text text-anchor="start" x="8" y="-374.3" font-family="Times,serif" font-size="14.00"> g1 = False</text>
<text text-anchor="start" x="8" y="-359.3" font-family="Times,serif" font-size="14.00"> g180 = True</text>
<text text-anchor="start" x="8" y="-344.3" font-family="Times,serif" font-size="14.00"> g2 = 0</text>
<text text-anchor="start" x="8" y="-329.3" font-family="Times,serif" font-size="14.00"> g65 = 4433412</text>
<text text-anchor="start" x="8" y="-314.3" font-family="Times,serif" font-size="14.00"> g69 = PtrToIntCastExpr&lt;int32&gt;(&amp;(vtable_43a574))</text>
<text text-anchor="start" x="8" y="-299.3" font-family="Times,serif" font-size="14.00"> g70 = 4433384</text>
<text text-anchor="start" x="8" y="-284.3" font-family="Times,serif" font-size="14.00"> g66 = 1</text>
<text text-anchor="start" x="8" y="-269.3" font-family="Times,serif" font-size="14.00"> g67 = 0</text>
<text text-anchor="start" x="8" y="-254.3" font-family="Times,serif" font-size="14.00"> g68 = 0</text>
<text text-anchor="start" x="8" y="-239.3" font-family="Times,serif" font-size="14.00"> g71 = 0</text>
<text text-anchor="start" x="8" y="-224.3" font-family="Times,serif" font-size="14.00"> g72 = 0</text>
<text text-anchor="start" x="8" y="-209.3" font-family="Times,serif" font-size="14.00"> g73 = 0</text>
<text text-anchor="start" x="8" y="-194.3" font-family="Times,serif" font-size="14.00"> g74 = 0</text>
<text text-anchor="start" x="8" y="-179.3" font-family="Times,serif" font-size="14.00"> g75 = 0</text>
<text text-anchor="start" x="8" y="-164.3" font-family="Times,serif" font-size="14.00"> g76 = 0</text>
<text text-anchor="start" x="8" y="-149.3" font-family="Times,serif" font-size="14.00"> g77 = 0</text>
<text text-anchor="start" x="8" y="-134.3" font-family="Times,serif" font-size="14.00"> atexit_rc = atexit(BitCastExpr&lt;ptr&gt;(function_4384c5))</text>
<text text-anchor="start" x="8" y="-119.3" font-family="Times,serif" font-size="14.00"> g5 = function_4384c5</text>
<text text-anchor="start" x="8" y="-104.3" font-family="Times,serif" font-size="14.00"> return atexit_rc</text>
</g>
<!-- Node0x9f37e880&#45;&gt;Node0x9f381020 -->
<g id="edge1" class="edge"><title>Node0x9f37e880&#45;&gt;Node0x9f381020</title>
<path fill="none" stroke="black" d="M211,-486.25C211,-479.14 211,-470.159 211,-459.929"/>
<polygon fill="black" stroke="black" points="214.5,-459.76 211,-449.76 207.5,-459.76 214.5,-459.76"/>
</g>
<!-- Node0x9f380fc0 -->
<g id="node3" class="node"><title>Node0x9f380fc0</title>
<polygon fill="none" stroke="black" points="184,-23.5 184,-59.5 238,-59.5 238,-23.5 184,-23.5"/>
<text text-anchor="start" x="192" y="-37.8" font-family="Times,serif" font-size="14.00">exit:</text>
</g>
<!-- Node0x9f381020&#45;&gt;Node0x9f380fc0 -->
<g id="edge2" class="edge"><title>Node0x9f381020&#45;&gt;Node0x9f380fc0</title>
<path fill="none" stroke="black" d="M211,-96.3076C211,-86.3944 211,-77.3361 211,-69.5941"/>
<polygon fill="black" stroke="black" points="214.5,-69.574 211,-59.574 207.5,-69.574 214.5,-69.574"/>
</g>
</g>
</svg>
