<?xml version="1.0" encoding="UTF-8" standalone="no"?>
<!DOCTYPE svg PUBLIC "-//W3C//DTD SVG 1.1//EN"
 "http://www.w3.org/Graphics/SVG/1.1/DTD/svg11.dtd">
<!-- Generated by graphviz version 2.38.0 (20140413.2041)
 -->
<!-- Title: Control&#45;flow graph for function &#39;function_40e167(*a1, *a2, *a3, *a4)&#39;. Pages: 1 -->
<svg width="704pt" height="427pt"
 viewBox="0.00 0.00 704.00 427.00" xmlns="http://www.w3.org/2000/svg" xmlns:xlink="http://www.w3.org/1999/xlink">
<g id="graph0" class="graph" transform="scale(1 1) rotate(0) translate(4 423)">
<title>Control&#45;flow graph for function &#39;function_40e167(*a1, *a2, *a3, *a4)&#39;.</title>
<polygon fill="white" stroke="none" points="-4,4 -4,-423 700,-423 700,4 -4,4"/>
<text text-anchor="middle" x="348" y="-7.8" font-family="Times,serif" font-size="14.00">Control&#45;flow graph for function &#39;function_40e167(*a1, *a2, *a3, *a4)&#39;.</text>
<!-- Node0xcacf0830 -->
<g id="node1" class="node"><title>Node0xcacf0830</title>
<polygon fill="none" stroke="black" points="201.5,-335.5 201.5,-418.5 260.5,-418.5 260.5,-335.5 201.5,-335.5"/>
<text text-anchor="start" x="209.5" y="-403.3" font-family="Times,serif" font-size="14.00">entry:</text>
<text text-anchor="start" x="209.5" y="-388.3" font-family="Times,serif" font-size="14.00"> a1</text>
<text text-anchor="start" x="209.5" y="-373.3" font-family="Times,serif" font-size="14.00"> a2</text>
<text text-anchor="start" x="209.5" y="-358.3" font-family="Times,serif" font-size="14.00"> a3</text>
<text text-anchor="start" x="209.5" y="-343.3" font-family="Times,serif" font-size="14.00"> a4</text>
</g>
<!-- Node0xcacf1100 -->
<g id="node2" class="node"><title>Node0xcacf1100</title>
<polygon fill="none" stroke="black" points="194.5,-261.5 194.5,-297.5 267.5,-297.5 267.5,-261.5 194.5,-261.5"/>
<text text-anchor="start" x="202.5" y="-275.8" font-family="Times,serif" font-size="14.00">v1 = g5</text>
</g>
<!-- Node0xcacf0830&#45;&gt;Node0xcacf1100 -->
<g id="edge1" class="edge"><title>Node0xcacf0830&#45;&gt;Node0xcacf1100</title>
<path fill="none" stroke="black" d="M231,-335.499C231,-326.206 231,-316.537 231,-307.946"/>
<polygon fill="black" stroke="black" points="234.5,-307.749 231,-297.749 227.5,-307.749 234.5,-307.749"/>
</g>
<!-- Node0xcacf11d0 -->
<g id="node3" class="node"><title>Node0xcacf11d0</title>
<polygon fill="none" stroke="black" points="56,-187.5 56,-223.5 406,-223.5 406,-187.5 56,-187.5"/>
<text text-anchor="start" x="64" y="-201.8" font-family="Times,serif" font-size="14.00">if (*(IntToPtrCastExpr&lt;ptr&gt;((v1 + 80))) != 0):</text>
</g>
<!-- Node0xcacf1100&#45;&gt;Node0xcacf11d0 -->
<g id="edge2" class="edge"><title>Node0xcacf1100&#45;&gt;Node0xcacf11d0</title>
<path fill="none" stroke="black" d="M231,-261.437C231,-253.307 231,-243.376 231,-234.205"/>
<polygon fill="black" stroke="black" points="234.5,-233.941 231,-223.941 227.5,-233.941 234.5,-233.941"/>
</g>
<!-- Node0x3c0aacf0 -->
<g id="node4" class="node"><title>Node0x3c0aacf0</title>
<polygon fill="none" stroke="black" points="0,-97.5 0,-135.5 284,-135.5 284,-97.5 0,-97.5"/>
<text text-anchor="start" x="8" y="-120.3" font-family="Times,serif" font-size="14.00">0x40e16d:</text>
<text text-anchor="start" x="8" y="-105.3" font-family="Times,serif" font-size="14.00"> function_40e140(v1, a1, 2, a2, a3, 0)</text>
</g>
<!-- Node0xcacf11d0&#45;&gt;Node0x3c0aacf0 -->
<g id="edge3" class="edge"><title>Node0xcacf11d0&#45;&gt;Node0x3c0aacf0</title>
<path fill="none" stroke="black" d="M109.809,-187.431C92.2578,-182.615 78.0578,-176.559 72,-169 63.4144,-158.286 69.7777,-148.682 81.547,-140.752"/>
<polygon fill="black" stroke="black" points="83.5854,-143.614 90.4414,-135.536 80.0446,-137.575 83.5854,-143.614"/>
<text text-anchor="middle" x="224.5" y="-157.8" font-family="Times,serif" font-size="14.00">*(IntToPtrCastExpr&lt;ptr&gt;((v1 + 80))) != 0</text>
</g>
<!-- Node0xcacf1080 -->
<g id="node5" class="node"><title>Node0xcacf1080</title>
<polygon fill="none" stroke="black" points="295,-23.5 295,-59.5 349,-59.5 349,-23.5 295,-23.5"/>
<text text-anchor="start" x="303" y="-37.8" font-family="Times,serif" font-size="14.00">exit:</text>
</g>
<!-- Node0xcacf11d0&#45;&gt;Node0xcacf1080 -->
<g id="edge4" class="edge"><title>Node0xcacf11d0&#45;&gt;Node0xcacf1080</title>
<path fill="none" stroke="black" d="M339.135,-187.489C356.716,-182.589 371.116,-176.486 377,-169 401.514,-137.812 371.275,-94.0204 346.878,-66.9944"/>
<polygon fill="black" stroke="black" points="349.267,-64.4251 339.882,-59.5094 344.153,-69.205 349.267,-64.4251"/>
<text text-anchor="middle" x="540.5" y="-112.8" font-family="Times,serif" font-size="14.00">*(IntToPtrCastExpr&lt;ptr&gt;((v1 + 80))) == 0</text>
</g>
<!-- Node0x3c0aacf0&#45;&gt;Node0xcacf1080 -->
<g id="edge5" class="edge"><title>Node0x3c0aacf0&#45;&gt;Node0xcacf1080</title>
<path fill="none" stroke="black" d="M186.494,-97.4551C216.854,-85.1425 256.589,-69.0279 285.17,-57.4365"/>
<polygon fill="black" stroke="black" points="286.83,-60.5405 294.781,-53.5388 284.199,-54.0537 286.83,-60.5405"/>
</g>
</g>
</svg>
