<?xml version="1.0" encoding="UTF-8" standalone="no"?>
<!DOCTYPE svg PUBLIC "-//W3C//DTD SVG 1.1//EN"
 "http://www.w3.org/Graphics/SVG/1.1/DTD/svg11.dtd">
<!-- Generated by graphviz version 2.38.0 (20140413.2041)
 -->
<!-- Title: Control&#45;flow graph for function &#39;function_41c8f5()&#39;. Pages: 1 -->
<svg width="714pt" height="610pt"
 viewBox="0.00 0.00 714.00 610.00" xmlns="http://www.w3.org/2000/svg" xmlns:xlink="http://www.w3.org/1999/xlink">
<g id="graph0" class="graph" transform="scale(1 1) rotate(0) translate(4 606)">
<title>Control&#45;flow graph for function &#39;function_41c8f5()&#39;.</title>
<polygon fill="white" stroke="none" points="-4,4 -4,-606 710,-606 710,4 -4,4"/>
<text text-anchor="middle" x="353" y="-7.8" font-family="Times,serif" font-size="14.00">Control&#45;flow graph for function &#39;function_41c8f5()&#39;.</text>
<!-- Node0x33fc36d0 -->
<g id="node1" class="node"><title>Node0x33fc36d0</title>
<polygon fill="none" stroke="black" points="323.5,-565.5 323.5,-601.5 382.5,-601.5 382.5,-565.5 323.5,-565.5"/>
<text text-anchor="start" x="331.5" y="-579.8" font-family="Times,serif" font-size="14.00">entry:</text>
</g>
<!-- Node0x33fc5640 -->
<g id="node2" class="node"><title>Node0x33fc5640</title>
<polygon fill="none" stroke="black" points="181,-369.5 181,-527.5 525,-527.5 525,-369.5 181,-369.5"/>
<text text-anchor="start" x="189" y="-512.3" font-family="Times,serif" font-size="14.00">0x41c8f5:</text>
<text text-anchor="start" x="189" y="-497.3" font-family="Times,serif" font-size="14.00"> g9 = g5</text>
<text text-anchor="start" x="189" y="-482.3" font-family="Times,serif" font-size="14.00"> result = function_41c89c()</text>
<text text-anchor="start" x="189" y="-467.3" font-family="Times,serif" font-size="14.00"> v1</text>
<text text-anchor="start" x="189" y="-452.3" font-family="Times,serif" font-size="14.00"> *(IntToPtrCastExpr&lt;ptr&gt;((result + 8))) = v1</text>
<text text-anchor="start" x="189" y="-437.3" font-family="Times,serif" font-size="14.00"> v2 = g9</text>
<text text-anchor="start" x="189" y="-422.3" font-family="Times,serif" font-size="14.00"> v3 = *(IntToPtrCastExpr&lt;ptr&gt;((v2 + 4)))</text>
<text text-anchor="start" x="189" y="-407.3" font-family="Times,serif" font-size="14.00"> g5 = v3</text>
<text text-anchor="start" x="189" y="-392.3" font-family="Times,serif" font-size="14.00"> g1 = False</text>
<text text-anchor="start" x="189" y="-377.3" font-family="Times,serif" font-size="14.00"> g180 = (v3 == 0)</text>
</g>
<!-- Node0x33fc36d0&#45;&gt;Node0x33fc5640 -->
<g id="edge1" class="edge"><title>Node0x33fc36d0&#45;&gt;Node0x33fc5640</title>
<path fill="none" stroke="black" d="M353,-565.385C353,-557.782 353,-548.206 353,-537.833"/>
<polygon fill="black" stroke="black" points="356.5,-537.682 353,-527.682 349.5,-537.682 356.5,-537.682"/>
</g>
<!-- Node0x33fc4a10 -->
<g id="node3" class="node"><title>Node0x33fc4a10</title>
<polygon fill="none" stroke="black" points="300.5,-293.5 300.5,-331.5 405.5,-331.5 405.5,-293.5 300.5,-293.5"/>
<text text-anchor="start" x="308.5" y="-316.3" font-family="Times,serif" font-size="14.00">if (v3 == 0):</text>
<text text-anchor="start" x="308.5" y="-301.3" font-family="Times,serif" font-size="14.00"> else:</text>
</g>
<!-- Node0x33fc5640&#45;&gt;Node0x33fc4a10 -->
<g id="edge2" class="edge"><title>Node0x33fc5640&#45;&gt;Node0x33fc4a10</title>
<path fill="none" stroke="black" d="M353,-369.164C353,-359.447 353,-350.058 353,-341.846"/>
<polygon fill="black" stroke="black" points="356.5,-341.801 353,-331.801 349.5,-341.801 356.5,-341.801"/>
</g>
<!-- Node0x33fc5a20 -->
<g id="node4" class="node"><title>Node0x33fc5a20</title>
<polygon fill="none" stroke="black" points="0,-203.5 0,-241.5 344,-241.5 344,-203.5 0,-203.5"/>
<text text-anchor="start" x="8" y="-226.3" font-family="Times,serif" font-size="14.00">0x41c915:</text>
<text text-anchor="start" x="8" y="-211.3" font-family="Times,serif" font-size="14.00"> *(IntToPtrCastExpr&lt;ptr&gt;((v2 + 8))) = result</text>
</g>
<!-- Node0x33fc4a10&#45;&gt;Node0x33fc5a20 -->
<g id="edge3" class="edge"><title>Node0x33fc4a10&#45;&gt;Node0x33fc5a20</title>
<path fill="none" stroke="black" d="M315.935,-293.48C287.723,-279.763 248.716,-260.798 218.425,-246.071"/>
<polygon fill="black" stroke="black" points="219.85,-242.872 209.326,-241.647 216.789,-249.168 219.85,-242.872"/>
<text text-anchor="middle" x="304" y="-263.8" font-family="Times,serif" font-size="14.00">v3 == 0</text>
</g>
<!-- Node0x33fc5c90 -->
<g id="node5" class="node"><title>Node0x33fc5c90</title>
<polygon fill="none" stroke="black" points="362,-203.5 362,-241.5 706,-241.5 706,-203.5 362,-203.5"/>
<text text-anchor="start" x="370" y="-226.3" font-family="Times,serif" font-size="14.00">0x41c910:</text>
<text text-anchor="start" x="370" y="-211.3" font-family="Times,serif" font-size="14.00"> *(IntToPtrCastExpr&lt;ptr&gt;((v3 + 4))) = result</text>
</g>
<!-- Node0x33fc4a10&#45;&gt;Node0x33fc5c90 -->
<g id="edge4" class="edge"><title>Node0x33fc4a10&#45;&gt;Node0x33fc5c90</title>
<path fill="none" stroke="black" d="M390.065,-293.48C418.277,-279.763 457.284,-260.798 487.575,-246.071"/>
<polygon fill="black" stroke="black" points="489.211,-249.168 496.674,-241.647 486.15,-242.872 489.211,-249.168"/>
<text text-anchor="middle" x="481" y="-263.8" font-family="Times,serif" font-size="14.00">v3 != 0</text>
</g>
<!-- Node0x33fc5aa0 -->
<g id="node6" class="node"><title>Node0x33fc5aa0</title>
<polygon fill="none" stroke="black" points="222,-97.5 222,-165.5 566,-165.5 566,-97.5 222,-97.5"/>
<text text-anchor="start" x="230" y="-150.3" font-family="Times,serif" font-size="14.00">0x41c918:</text>
<text text-anchor="start" x="230" y="-135.3" font-family="Times,serif" font-size="14.00"> *(IntToPtrCastExpr&lt;ptr&gt;((g9 + 4))) = result</text>
<text text-anchor="start" x="230" y="-120.3" font-family="Times,serif" font-size="14.00"> g9 = 0</text>
<text text-anchor="start" x="230" y="-105.3" font-family="Times,serif" font-size="14.00"> return result</text>
</g>
<!-- Node0x33fc5a20&#45;&gt;Node0x33fc5aa0 -->
<g id="edge5" class="edge"><title>Node0x33fc5a20&#45;&gt;Node0x33fc5aa0</title>
<path fill="none" stroke="black" d="M216.925,-203.49C241.39,-193.681 272.589,-181.174 301.962,-169.398"/>
<polygon fill="black" stroke="black" points="303.445,-172.575 311.424,-165.605 300.84,-166.077 303.445,-172.575"/>
</g>
<!-- Node0x33fc5c90&#45;&gt;Node0x33fc5aa0 -->
<g id="edge6" class="edge"><title>Node0x33fc5c90&#45;&gt;Node0x33fc5aa0</title>
<path fill="none" stroke="black" d="M505.669,-203.49C490.975,-194.148 472.429,-182.359 454.695,-171.085"/>
<polygon fill="black" stroke="black" points="456.392,-168.016 446.075,-165.605 452.636,-173.923 456.392,-168.016"/>
</g>
<!-- Node0x33fc55c0 -->
<g id="node7" class="node"><title>Node0x33fc55c0</title>
<polygon fill="none" stroke="black" points="367,-23.5 367,-59.5 421,-59.5 421,-23.5 367,-23.5"/>
<text text-anchor="start" x="375" y="-37.8" font-family="Times,serif" font-size="14.00">exit:</text>
</g>
<!-- Node0x33fc5aa0&#45;&gt;Node0x33fc55c0 -->
<g id="edge7" class="edge"><title>Node0x33fc5aa0&#45;&gt;Node0x33fc55c0</title>
<path fill="none" stroke="black" d="M394,-97.4817C394,-88.3281 394,-78.4972 394,-69.7155"/>
<polygon fill="black" stroke="black" points="397.5,-69.6402 394,-59.6402 390.5,-69.6403 397.5,-69.6402"/>
</g>
</g>
</svg>
