<?xml version="1.0" encoding="UTF-8" standalone="no"?>
<!DOCTYPE svg PUBLIC "-//W3C//DTD SVG 1.1//EN"
 "http://www.w3.org/Graphics/SVG/1.1/DTD/svg11.dtd">
<!-- Generated by graphviz version 2.38.0 (20140413.2041)
 -->
<!-- Title: Control&#45;flow graph for function &#39;function_41083d(a1)&#39;. Pages: 1 -->
<svg width="412pt" height="263pt"
 viewBox="0.00 0.00 412.00 263.00" xmlns="http://www.w3.org/2000/svg" xmlns:xlink="http://www.w3.org/1999/xlink">
<g id="graph0" class="graph" transform="scale(1 1) rotate(0) translate(4 259)">
<title>Control&#45;flow graph for function &#39;function_41083d(a1)&#39;.</title>
<polygon fill="white" stroke="none" points="-4,4 -4,-259 408,-259 408,4 -4,4"/>
<text text-anchor="middle" x="202" y="-7.8" font-family="Times,serif" font-size="14.00">Control&#45;flow graph for function &#39;function_41083d(a1)&#39;.</text>
<!-- Node0xc97786c0 -->
<g id="node1" class="node"><title>Node0xc97786c0</title>
<polygon fill="none" stroke="black" points="172.5,-216.5 172.5,-254.5 231.5,-254.5 231.5,-216.5 172.5,-216.5"/>
<text text-anchor="start" x="180.5" y="-239.3" font-family="Times,serif" font-size="14.00">entry:</text>
<text text-anchor="start" x="180.5" y="-224.3" font-family="Times,serif" font-size="14.00"> a1</text>
</g>
<!-- Node0x1d64d680 -->
<g id="node2" class="node"><title>Node0x1d64d680</title>
<polygon fill="none" stroke="black" points="41,-96.5 41,-179.5 363,-179.5 363,-96.5 41,-96.5"/>
<text text-anchor="start" x="49" y="-164.3" font-family="Times,serif" font-size="14.00">0x41083d:</text>
<text text-anchor="start" x="49" y="-149.3" font-family="Times,serif" font-size="14.00"> g5 = *(IntToPtrCastExpr&lt;ptr&gt;((g3 &#45; 24)))</text>
<text text-anchor="start" x="49" y="-134.3" font-family="Times,serif" font-size="14.00"> v1</text>
<text text-anchor="start" x="49" y="-119.3" font-family="Times,serif" font-size="14.00"> function_40ecec(v1)</text>
<text text-anchor="start" x="49" y="-104.3" font-family="Times,serif" font-size="14.00"> return 4261940</text>
</g>
<!-- Node0xc97786c0&#45;&gt;Node0x1d64d680 -->
<g id="edge1" class="edge"><title>Node0xc97786c0&#45;&gt;Node0x1d64d680</title>
<path fill="none" stroke="black" d="M202,-216.087C202,-208.444 202,-199.165 202,-189.73"/>
<polygon fill="black" stroke="black" points="205.5,-189.501 202,-179.501 198.5,-189.501 205.5,-189.501"/>
</g>
<!-- Node0xc977c010 -->
<g id="node3" class="node"><title>Node0xc977c010</title>
<polygon fill="none" stroke="black" points="175,-23.5 175,-59.5 229,-59.5 229,-23.5 175,-23.5"/>
<text text-anchor="start" x="183" y="-37.8" font-family="Times,serif" font-size="14.00">exit:</text>
</g>
<!-- Node0x1d64d680&#45;&gt;Node0xc977c010 -->
<g id="edge2" class="edge"><title>Node0x1d64d680&#45;&gt;Node0xc977c010</title>
<path fill="none" stroke="black" d="M202,-96.3751C202,-87.4706 202,-78.246 202,-70"/>
<polygon fill="black" stroke="black" points="205.5,-69.8327 202,-59.8328 198.5,-69.8328 205.5,-69.8327"/>
</g>
</g>
</svg>
