<?xml version="1.0" encoding="UTF-8" standalone="no"?>
<!DOCTYPE svg PUBLIC "-//W3C//DTD SVG 1.1//EN"
 "http://www.w3.org/Graphics/SVG/1.1/DTD/svg11.dtd">
<!-- Generated by graphviz version 2.38.0 (20140413.2041)
 -->
<!-- Title: Control&#45;flow graph for function &#39;function_411b9a(*a1, lpDistanceToMoveHigh, dwMoveMethod, a4, a5)&#39;. Pages: 1 -->
<svg width="1330pt" height="927pt"
 viewBox="0.00 0.00 1330.00 927.00" xmlns="http://www.w3.org/2000/svg" xmlns:xlink="http://www.w3.org/1999/xlink">
<g id="graph0" class="graph" transform="scale(1 1) rotate(0) translate(4 923)">
<title>Control&#45;flow graph for function &#39;function_411b9a(*a1, lpDistanceToMoveHigh, dwMoveMethod, a4, a5)&#39;.</title>
<polygon fill="white" stroke="none" points="-4,4 -4,-923 1326,-923 1326,4 -4,4"/>
<text text-anchor="middle" x="661" y="-7.8" font-family="Times,serif" font-size="14.00">Control&#45;flow graph for function &#39;function_411b9a(*a1, lpDistanceToMoveHigh, dwMoveMethod, a4, a5)&#39;.</text>
<!-- Node0x11616900 -->
<g id="node1" class="node"><title>Node0x11616900</title>
<polygon fill="none" stroke="black" points="770.5,-820.5 770.5,-918.5 959.5,-918.5 959.5,-820.5 770.5,-820.5"/>
<text text-anchor="start" x="778.5" y="-903.3" font-family="Times,serif" font-size="14.00">entry:</text>
<text text-anchor="start" x="778.5" y="-888.3" font-family="Times,serif" font-size="14.00"> a1</text>
<text text-anchor="start" x="778.5" y="-873.3" font-family="Times,serif" font-size="14.00"> lpDistanceToMoveHigh</text>
<text text-anchor="start" x="778.5" y="-858.3" font-family="Times,serif" font-size="14.00"> dwMoveMethod</text>
<text text-anchor="start" x="778.5" y="-843.3" font-family="Times,serif" font-size="14.00"> a4</text>
<text text-anchor="start" x="778.5" y="-828.3" font-family="Times,serif" font-size="14.00"> a5</text>
</g>
<!-- Node0x11617c30 -->
<g id="node2" class="node"><title>Node0x11617c30</title>
<polygon fill="none" stroke="black" points="408,-654.5 408,-782.5 1322,-782.5 1322,-654.5 408,-654.5"/>
<text text-anchor="start" x="416" y="-767.3" font-family="Times,serif" font-size="14.00">v1 = g3</text>
<text text-anchor="start" x="416" y="-752.3" font-family="Times,serif" font-size="14.00"> g3 = &amp;(v1)</text>
<text text-anchor="start" x="416" y="-737.3" font-family="Times,serif" font-size="14.00"> v2 = g5</text>
<text text-anchor="start" x="416" y="-722.3" font-family="Times,serif" font-size="14.00"> lDistanceToMove = PtrToIntCastExpr&lt;int32&gt;(a1)</text>
<text text-anchor="start" x="416" y="-707.3" font-family="Times,serif" font-size="14.00"> g2 = lDistanceToMove</text>
<text text-anchor="start" x="416" y="-692.3" font-family="Times,serif" font-size="14.00"> v3 = g9</text>
<text text-anchor="start" x="416" y="-677.3" font-family="Times,serif" font-size="14.00"> g9 = v2</text>
<text text-anchor="start" x="416" y="-662.3" font-family="Times,serif" font-size="14.00"> result = SetFilePointer(*(IntToPtrCastExpr&lt;ptr&gt;((v2 + 4))), lDistanceToMove, &amp;(lpDistanceToMoveHigh), dwMoveMethod)</text>
</g>
<!-- Node0x11616900&#45;&gt;Node0x11617c30 -->
<g id="edge1" class="edge"><title>Node0x11616900&#45;&gt;Node0x11617c30</title>
<path fill="none" stroke="black" d="M865,-820.124C865,-811.325 865,-801.97 865,-792.642"/>
<polygon fill="black" stroke="black" points="868.5,-792.56 865,-782.56 861.5,-792.56 868.5,-792.56"/>
</g>
<!-- Node0x116179e0 -->
<g id="node3" class="node"><title>Node0x116179e0</title>
<polygon fill="none" stroke="black" points="798,-580.5 798,-616.5 932,-616.5 932,-580.5 798,-580.5"/>
<text text-anchor="start" x="806" y="-594.8" font-family="Times,serif" font-size="14.00">if (result == &#45;1):</text>
</g>
<!-- Node0x11617c30&#45;&gt;Node0x116179e0 -->
<g id="edge2" class="edge"><title>Node0x11617c30&#45;&gt;Node0x116179e0</title>
<path fill="none" stroke="black" d="M865,-654.355C865,-644.753 865,-635.299 865,-627.016"/>
<polygon fill="black" stroke="black" points="868.5,-626.887 865,-616.888 861.5,-626.888 868.5,-626.887"/>
</g>
<!-- Node0x11618080 -->
<g id="node4" class="node"><title>Node0x11618080</title>
<polygon fill="none" stroke="black" points="735,-475.5 735,-528.5 849,-528.5 849,-475.5 735,-475.5"/>
<text text-anchor="start" x="743" y="-513.3" font-family="Times,serif" font-size="14.00">0x411bc7:</text>
<text text-anchor="start" x="743" y="-498.3" font-family="Times,serif" font-size="14.00"> g7 = 281748</text>
<text text-anchor="start" x="743" y="-483.3" font-family="Times,serif" font-size="14.00"> v4</text>
</g>
<!-- Node0x116179e0&#45;&gt;Node0x11618080 -->
<g id="edge3" class="edge"><title>Node0x116179e0&#45;&gt;Node0x11618080</title>
<path fill="none" stroke="black" d="M837.569,-580.45C830.552,-575.165 823.458,-568.896 818,-562 812.347,-554.857 807.661,-546.294 803.898,-537.935"/>
<polygon fill="black" stroke="black" points="807.116,-536.557 800.04,-528.671 800.654,-539.248 807.116,-536.557"/>
<text text-anchor="middle" x="862.5" y="-550.8" font-family="Times,serif" font-size="14.00">result == &#45;1</text>
</g>
<!-- Node0x11617f90 -->
<g id="node5" class="node"><title>Node0x11617f90</title>
<polygon fill="none" stroke="black" points="816.5,-97.5 816.5,-165.5 929.5,-165.5 929.5,-97.5 816.5,-97.5"/>
<text text-anchor="start" x="824.5" y="-150.3" font-family="Times,serif" font-size="14.00">0x411be0:</text>
<text text-anchor="start" x="824.5" y="-135.3" font-family="Times,serif" font-size="14.00"> g9 = v3</text>
<text text-anchor="start" x="824.5" y="-120.3" font-family="Times,serif" font-size="14.00"> g3 = v1</text>
<text text-anchor="start" x="824.5" y="-105.3" font-family="Times,serif" font-size="14.00"> return result</text>
</g>
<!-- Node0x116179e0&#45;&gt;Node0x11617f90 -->
<g id="edge4" class="edge"><title>Node0x116179e0&#45;&gt;Node0x11617f90</title>
<path fill="none" stroke="black" d="M890.715,-580.211C896.836,-575.004 902.801,-568.833 907,-562 921.11,-539.039 921,-529.95 921,-503 921,-503 921,-503 921,-221.5 921,-204.927 914.472,-188.473 906.231,-174.306"/>
<polygon fill="black" stroke="black" points="909.186,-172.429 900.922,-165.799 903.248,-176.135 909.186,-172.429"/>
<text text-anchor="middle" x="962.5" y="-369.8" font-family="Times,serif" font-size="14.00">result != &#45;1</text>
</g>
<!-- Node0x116180e0 -->
<g id="node6" class="node"><title>Node0x116180e0</title>
<polygon fill="none" stroke="black" points="655,-399.5 655,-437.5 843,-437.5 843,-399.5 655,-399.5"/>
<text text-anchor="start" x="663" y="-422.3" font-family="Times,serif" font-size="14.00">if (GetLastError() != 0):</text>
<text text-anchor="start" x="663" y="-407.3" font-family="Times,serif" font-size="14.00"> else:</text>
</g>
<!-- Node0x11618080&#45;&gt;Node0x116180e0 -->
<g id="edge5" class="edge"><title>Node0x11618080&#45;&gt;Node0x116180e0</title>
<path fill="none" stroke="black" d="M778.395,-475.213C773.61,-466.145 768.22,-455.928 763.374,-446.744"/>
<polygon fill="black" stroke="black" points="766.332,-444.849 758.57,-437.638 760.141,-448.116 766.332,-444.849"/>
</g>
<!-- Node0x11617bb0 -->
<g id="node7" class="node"><title>Node0x11617bb0</title>
<polygon fill="none" stroke="black" points="846,-23.5 846,-59.5 900,-59.5 900,-23.5 846,-23.5"/>
<text text-anchor="start" x="854" y="-37.8" font-family="Times,serif" font-size="14.00">exit:</text>
</g>
<!-- Node0x11617f90&#45;&gt;Node0x11617bb0 -->
<g id="edge6" class="edge"><title>Node0x11617f90&#45;&gt;Node0x11617bb0</title>
<path fill="none" stroke="black" d="M873,-97.4817C873,-88.3281 873,-78.4972 873,-69.7155"/>
<polygon fill="black" stroke="black" points="876.5,-69.6402 873,-59.6402 869.5,-69.6403 876.5,-69.6402"/>
</g>
<!-- Node0x88aaf390 -->
<g id="node8" class="node"><title>Node0x88aaf390</title>
<polygon fill="none" stroke="black" points="0,-279.5 0,-347.5 764,-347.5 764,-279.5 0,-279.5"/>
<text text-anchor="start" x="8" y="-332.3" font-family="Times,serif" font-size="14.00">v5 = *(IntToPtrCastExpr&lt;ptr&gt;((g9 + 12)))</text>
<text text-anchor="start" x="8" y="-317.3" font-family="Times,serif" font-size="14.00"> errorCode = GetLastError()</text>
<text text-anchor="start" x="8" y="-302.3" font-family="Times,serif" font-size="14.00"> function_41d0b2(IntToPtrCastExpr&lt;ptr&gt;(errorCode), BitCastExpr&lt;ptr&gt;(IntToPtrCastExpr&lt;ptr&gt;(v5)))</text>
<text text-anchor="start" x="8" y="-287.3" font-family="Times,serif" font-size="14.00"> v4 = IntToPtrCastExpr&lt;ptr&gt;(errorCode)</text>
</g>
<!-- Node0x116180e0&#45;&gt;Node0x88aaf390 -->
<g id="edge7" class="edge"><title>Node0x116180e0&#45;&gt;Node0x88aaf390</title>
<path fill="none" stroke="black" d="M670.923,-399.42C647.705,-393.796 622.26,-387.388 599,-381 565.109,-371.692 528.492,-360.798 495.162,-350.552"/>
<polygon fill="black" stroke="black" points="495.981,-347.142 485.394,-347.539 493.918,-353.831 495.981,-347.142"/>
<text text-anchor="middle" x="670.5" y="-369.8" font-family="Times,serif" font-size="14.00">GetLastError() != 0</text>
</g>
<!-- Node0x11618010 -->
<g id="node9" class="node"><title>Node0x11618010</title>
<polygon fill="none" stroke="black" points="782,-295.5 782,-331.5 854,-331.5 854,-295.5 782,-295.5"/>
<text text-anchor="start" x="790" y="-309.8" font-family="Times,serif" font-size="14.00">v4 = a1</text>
</g>
<!-- Node0x116180e0&#45;&gt;Node0x11618010 -->
<g id="edge8" class="edge"><title>Node0x116180e0&#45;&gt;Node0x11618010</title>
<path fill="none" stroke="black" d="M745.604,-399.4C744.556,-389.075 744.806,-376.2 750,-366 750.559,-364.901 768.947,-351.003 786.458,-337.922"/>
<polygon fill="black" stroke="black" points="788.978,-340.41 794.902,-331.626 784.793,-334.798 788.978,-340.41"/>
<text text-anchor="middle" x="824.5" y="-369.8" font-family="Times,serif" font-size="14.00">GetLastError() == 0</text>
</g>
<!-- Node0x116183e0 -->
<g id="node10" class="node"><title>Node0x116183e0</title>
<polygon fill="none" stroke="black" points="615.5,-203.5 615.5,-241.5 892.5,-241.5 892.5,-203.5 615.5,-203.5"/>
<text text-anchor="start" x="623.5" y="-226.3" font-family="Times,serif" font-size="14.00">0x411bdf:</text>
<text text-anchor="start" x="623.5" y="-211.3" font-family="Times,serif" font-size="14.00"> g7 = PtrToIntCastExpr&lt;int32&gt;(v4)</text>
</g>
<!-- Node0x88aaf390&#45;&gt;Node0x116183e0 -->
<g id="edge9" class="edge"><title>Node0x88aaf390&#45;&gt;Node0x116183e0</title>
<path fill="none" stroke="black" d="M519.99,-279.486C569.875,-267.551 624.705,-254.433 668.745,-243.897"/>
<polygon fill="black" stroke="black" points="669.634,-247.283 678.545,-241.552 668.005,-240.475 669.634,-247.283"/>
</g>
<!-- Node0x11618010&#45;&gt;Node0x116183e0 -->
<g id="edge10" class="edge"><title>Node0x11618010&#45;&gt;Node0x116183e0</title>
<path fill="none" stroke="black" d="M805.66,-295.34C796.369,-282.419 783.467,-264.477 772.881,-249.757"/>
<polygon fill="black" stroke="black" points="775.641,-247.599 766.961,-241.524 769.958,-251.686 775.641,-247.599"/>
</g>
<!-- Node0x116183e0&#45;&gt;Node0x11617f90 -->
<g id="edge11" class="edge"><title>Node0x116183e0&#45;&gt;Node0x11617f90</title>
<path fill="none" stroke="black" d="M778.081,-203.49C790.344,-194.318 805.763,-182.787 820.586,-171.7"/>
<polygon fill="black" stroke="black" points="822.825,-174.397 828.736,-165.605 818.632,-168.791 822.825,-174.397"/>
</g>
</g>
</svg>
