<?xml version="1.0" encoding="UTF-8" standalone="no"?>
<!DOCTYPE svg PUBLIC "-//W3C//DTD SVG 1.1//EN"
 "http://www.w3.org/Graphics/SVG/1.1/DTD/svg11.dtd">
<!-- Generated by graphviz version 2.38.0 (20140413.2041)
 -->
<!-- Title: Control&#45;flow graph for function &#39;function_41b61b(a1)&#39;. Pages: 1 -->
<svg width="412pt" height="477pt"
 viewBox="0.00 0.00 412.00 477.00" xmlns="http://www.w3.org/2000/svg" xmlns:xlink="http://www.w3.org/1999/xlink">
<g id="graph0" class="graph" transform="scale(1 1) rotate(0) translate(4 473)">
<title>Control&#45;flow graph for function &#39;function_41b61b(a1)&#39;.</title>
<polygon fill="white" stroke="none" points="-4,4 -4,-473 408,-473 408,4 -4,4"/>
<text text-anchor="middle" x="202" y="-7.8" font-family="Times,serif" font-size="14.00">Control&#45;flow graph for function &#39;function_41b61b(a1)&#39;.</text>
<!-- Node0x85a1a360 -->
<g id="node1" class="node"><title>Node0x85a1a360</title>
<polygon fill="none" stroke="black" points="181,-430.5 181,-468.5 240,-468.5 240,-430.5 181,-430.5"/>
<text text-anchor="start" x="189" y="-453.3" font-family="Times,serif" font-size="14.00">entry:</text>
<text text-anchor="start" x="189" y="-438.3" font-family="Times,serif" font-size="14.00"> a1</text>
</g>
<!-- Node0x4a8a4ce0 -->
<g id="node2" class="node"><title>Node0x4a8a4ce0</title>
<polygon fill="none" stroke="black" points="66,-339.5 66,-392.5 355,-392.5 355,-339.5 66,-339.5"/>
<text text-anchor="start" x="74" y="-377.3" font-family="Times,serif" font-size="14.00">v1 = *(IntToPtrCastExpr&lt;ptr&gt;(g5))</text>
<text text-anchor="start" x="74" y="-362.3" font-family="Times,serif" font-size="14.00"> hMem = IntToPtrCastExpr&lt;ptr&gt;(v1)</text>
<text text-anchor="start" x="74" y="-347.3" font-family="Times,serif" font-size="14.00"> v2</text>
</g>
<!-- Node0x85a1a360&#45;&gt;Node0x4a8a4ce0 -->
<g id="edge1" class="edge"><title>Node0x85a1a360&#45;&gt;Node0x4a8a4ce0</title>
<path fill="none" stroke="black" d="M210.5,-430.413C210.5,-422.285 210.5,-412.394 210.5,-402.864"/>
<polygon fill="black" stroke="black" points="214,-402.766 210.5,-392.766 207,-402.766 214,-402.766"/>
</g>
<!-- Node0x3bfd55f0 -->
<g id="node3" class="node"><title>Node0x3bfd55f0</title>
<polygon fill="none" stroke="black" points="161,-263.5 161,-301.5 260,-301.5 260,-263.5 161,-263.5"/>
<text text-anchor="start" x="169" y="-286.3" font-family="Times,serif" font-size="14.00">if (v1 != 0):</text>
<text text-anchor="start" x="169" y="-271.3" font-family="Times,serif" font-size="14.00"> else:</text>
</g>
<!-- Node0x4a8a4ce0&#45;&gt;Node0x3bfd55f0 -->
<g id="edge2" class="edge"><title>Node0x4a8a4ce0&#45;&gt;Node0x3bfd55f0</title>
<path fill="none" stroke="black" d="M210.5,-339.213C210.5,-330.526 210.5,-320.787 210.5,-311.91"/>
<polygon fill="black" stroke="black" points="214,-311.638 210.5,-301.638 207,-311.638 214,-311.638"/>
</g>
<!-- Node0xa2a227e0 -->
<g id="node4" class="node"><title>Node0xa2a227e0</title>
<polygon fill="none" stroke="black" points="31.5,-173.5 31.5,-211.5 225.5,-211.5 225.5,-173.5 31.5,-173.5"/>
<text text-anchor="start" x="39.5" y="-196.3" font-family="Times,serif" font-size="14.00">0x41b621:</text>
<text text-anchor="start" x="39.5" y="-181.3" font-family="Times,serif" font-size="14.00"> v2 = GlobalFree(hMem)</text>
</g>
<!-- Node0x3bfd55f0&#45;&gt;Node0xa2a227e0 -->
<g id="edge3" class="edge"><title>Node0x3bfd55f0&#45;&gt;Node0xa2a227e0</title>
<path fill="none" stroke="black" d="M193.51,-263.266C181.635,-250.523 165.613,-233.328 152.445,-219.198"/>
<polygon fill="black" stroke="black" points="154.847,-216.64 145.469,-211.71 149.725,-221.412 154.847,-216.64"/>
<text text-anchor="middle" x="201.5" y="-233.8" font-family="Times,serif" font-size="14.00">v1 != 0</text>
</g>
<!-- Node0xa2a12f90 -->
<g id="node5" class="node"><title>Node0xa2a12f90</title>
<polygon fill="none" stroke="black" points="244,-174.5 244,-210.5 345,-210.5 345,-174.5 244,-174.5"/>
<text text-anchor="start" x="252" y="-188.8" font-family="Times,serif" font-size="14.00">v2 = hMem</text>
</g>
<!-- Node0x3bfd55f0&#45;&gt;Node0xa2a12f90 -->
<g id="edge4" class="edge"><title>Node0x3bfd55f0&#45;&gt;Node0xa2a12f90</title>
<path fill="none" stroke="black" d="M227.905,-263.266C240.393,-250.183 257.361,-232.408 271.043,-218.074"/>
<polygon fill="black" stroke="black" points="273.884,-220.166 278.257,-210.516 268.821,-215.333 273.884,-220.166"/>
<text text-anchor="middle" x="288.5" y="-233.8" font-family="Times,serif" font-size="14.00">v1 == 0</text>
</g>
<!-- Node0x3bfd3100 -->
<g id="node6" class="node"><title>Node0x3bfd3100</title>
<polygon fill="none" stroke="black" points="84.5,-97.5 84.5,-135.5 372.5,-135.5 372.5,-97.5 84.5,-97.5"/>
<text text-anchor="start" x="92.5" y="-120.3" font-family="Times,serif" font-size="14.00">0x41b628:</text>
<text text-anchor="start" x="92.5" y="-105.3" font-family="Times,serif" font-size="14.00"> return PtrToIntCastExpr&lt;int32&gt;(v2)</text>
</g>
<!-- Node0xa2a227e0&#45;&gt;Node0x3bfd3100 -->
<g id="edge5" class="edge"><title>Node0xa2a227e0&#45;&gt;Node0x3bfd3100</title>
<path fill="none" stroke="black" d="M152.963,-173.398C165.796,-163.901 181.696,-152.135 195.594,-141.85"/>
<polygon fill="black" stroke="black" points="197.987,-144.434 203.943,-135.672 193.823,-138.807 197.987,-144.434"/>
</g>
<!-- Node0xa2a12f90&#45;&gt;Node0x3bfd3100 -->
<g id="edge6" class="edge"><title>Node0xa2a12f90&#45;&gt;Node0x3bfd3100</title>
<path fill="none" stroke="black" d="M279.192,-174.337C270.938,-165.083 260.588,-153.478 251.395,-143.171"/>
<polygon fill="black" stroke="black" points="253.914,-140.736 244.645,-135.602 248.69,-145.395 253.914,-140.736"/>
</g>
<!-- Node0xa2a19ce0 -->
<g id="node7" class="node"><title>Node0xa2a19ce0</title>
<polygon fill="none" stroke="black" points="201.5,-23.5 201.5,-59.5 255.5,-59.5 255.5,-23.5 201.5,-23.5"/>
<text text-anchor="start" x="209.5" y="-37.8" font-family="Times,serif" font-size="14.00">exit:</text>
</g>
<!-- Node0x3bfd3100&#45;&gt;Node0xa2a19ce0 -->
<g id="edge7" class="edge"><title>Node0x3bfd3100&#45;&gt;Node0xa2a19ce0</title>
<path fill="none" stroke="black" d="M228.5,-97.4551C228.5,-89.2008 228.5,-79.2377 228.5,-70.0742"/>
<polygon fill="black" stroke="black" points="232,-69.8347 228.5,-59.8347 225,-69.8347 232,-69.8347"/>
</g>
</g>
</svg>
