<?xml version="1.0" encoding="UTF-8" standalone="no"?>
<!DOCTYPE svg PUBLIC "-//W3C//DTD SVG 1.1//EN"
 "http://www.w3.org/Graphics/SVG/1.1/DTD/svg11.dtd">
<!-- Generated by graphviz version 2.38.0 (20140413.2041)
 -->
<!-- Title: Control&#45;flow graph for function &#39;function_4152f6(*a1)&#39;. Pages: 1 -->
<svg width="509pt" height="580pt"
 viewBox="0.00 0.00 509.00 580.00" xmlns="http://www.w3.org/2000/svg" xmlns:xlink="http://www.w3.org/1999/xlink">
<g id="graph0" class="graph" transform="scale(1 1) rotate(0) translate(4 576)">
<title>Control&#45;flow graph for function &#39;function_4152f6(*a1)&#39;.</title>
<polygon fill="white" stroke="none" points="-4,4 -4,-576 505,-576 505,4 -4,4"/>
<text text-anchor="middle" x="250.5" y="-7.8" font-family="Times,serif" font-size="14.00">Control&#45;flow graph for function &#39;function_4152f6(*a1)&#39;.</text>
<!-- Node0x182eadd0 -->
<g id="node1" class="node"><title>Node0x182eadd0</title>
<polygon fill="none" stroke="black" points="223,-533.5 223,-571.5 282,-571.5 282,-533.5 223,-533.5"/>
<text text-anchor="start" x="231" y="-556.3" font-family="Times,serif" font-size="14.00">entry:</text>
<text text-anchor="start" x="231" y="-541.3" font-family="Times,serif" font-size="14.00"> a1</text>
</g>
<!-- Node0x182eb2c0 -->
<g id="node2" class="node"><title>Node0x182eb2c0</title>
<polygon fill="none" stroke="black" points="88,-412.5 88,-495.5 417,-495.5 417,-412.5 88,-412.5"/>
<text text-anchor="start" x="96" y="-480.3" font-family="Times,serif" font-size="14.00">v1 = ExtCastExpr&lt;int32&gt;(*(a1))</text>
<text text-anchor="start" x="96" y="-465.3" font-family="Times,serif" font-size="14.00"> g2 = v1</text>
<text text-anchor="start" x="96" y="-450.3" font-family="Times,serif" font-size="14.00"> v2 = *(IntToPtrCastExpr&lt;ptr&gt;((v1 &#45; 120)))</text>
<text text-anchor="start" x="96" y="-435.3" font-family="Times,serif" font-size="14.00"> g1 = False</text>
<text text-anchor="start" x="96" y="-420.3" font-family="Times,serif" font-size="14.00"> g180 = (v2 == 0)</text>
</g>
<!-- Node0x182eadd0&#45;&gt;Node0x182eb2c0 -->
<g id="edge1" class="edge"><title>Node0x182eadd0&#45;&gt;Node0x182eb2c0</title>
<path fill="none" stroke="black" d="M252.5,-533.349C252.5,-525.488 252.5,-515.852 252.5,-506.061"/>
<polygon fill="black" stroke="black" points="256,-505.87 252.5,-495.87 249,-505.87 256,-505.87"/>
</g>
<!-- Node0x182eb420 -->
<g id="node3" class="node"><title>Node0x182eb420</title>
<polygon fill="none" stroke="black" points="200,-338.5 200,-374.5 305,-374.5 305,-338.5 200,-338.5"/>
<text text-anchor="start" x="208" y="-352.8" font-family="Times,serif" font-size="14.00">if (v2 == 0):</text>
</g>
<!-- Node0x182eb2c0&#45;&gt;Node0x182eb420 -->
<g id="edge2" class="edge"><title>Node0x182eb2c0&#45;&gt;Node0x182eb420</title>
<path fill="none" stroke="black" d="M252.5,-412.499C252.5,-403.206 252.5,-393.537 252.5,-384.946"/>
<polygon fill="black" stroke="black" points="256,-384.749 252.5,-374.749 249,-384.749 256,-384.749"/>
</g>
<!-- Node0x182e7950 -->
<g id="node4" class="node"><title>Node0x182e7950</title>
<polygon fill="none" stroke="black" points="60.5,-233.5 60.5,-286.5 254.5,-286.5 254.5,-233.5 60.5,-233.5"/>
<text text-anchor="start" x="68.5" y="-271.3" font-family="Times,serif" font-size="14.00">0x415300:</text>
<text text-anchor="start" x="68.5" y="-256.3" font-family="Times,serif" font-size="14.00"> function_40ede0(NULL)</text>
<text text-anchor="start" x="68.5" y="-241.3" font-family="Times,serif" font-size="14.00"> v1 = g2</text>
</g>
<!-- Node0x182eb420&#45;&gt;Node0x182e7950 -->
<g id="edge3" class="edge"><title>Node0x182eb420&#45;&gt;Node0x182e7950</title>
<path fill="none" stroke="black" d="M234.898,-338.191C229.037,-332.414 222.479,-325.938 216.5,-320 207.993,-311.553 198.821,-302.401 190.302,-293.884"/>
<polygon fill="black" stroke="black" points="192.562,-291.194 183.017,-286.595 187.611,-296.142 192.562,-291.194"/>
<text text-anchor="middle" x="246.5" y="-308.8" font-family="Times,serif" font-size="14.00">v2 == 0</text>
</g>
<!-- Node0x182eb610 -->
<g id="node5" class="node"><title>Node0x182eb610</title>
<polygon fill="none" stroke="black" points="0,-97.5 0,-195.5 501,-195.5 501,-97.5 0,-97.5"/>
<text text-anchor="start" x="8" y="-180.3" font-family="Times,serif" font-size="14.00">v3 = *(IntToPtrCastExpr&lt;ptr&gt;((v1 &#45; 120)))</text>
<text text-anchor="start" x="8" y="-165.3" font-family="Times,serif" font-size="14.00"> g2 = v3</text>
<text text-anchor="start" x="8" y="-150.3" font-family="Times,serif" font-size="14.00"> v4 = *(IntToPtrCastExpr&lt;ptr&gt;(v3))</text>
<text text-anchor="start" x="8" y="-135.3" font-family="Times,serif" font-size="14.00"> g5 = v4</text>
<text text-anchor="start" x="8" y="-120.3" font-family="Times,serif" font-size="14.00"> IntToPtrCastExpr&lt;ptr&gt;(*(IntToPtrCastExpr&lt;ptr&gt;((v4 + 24))))(v3)</text>
<text text-anchor="start" x="8" y="-105.3" font-family="Times,serif" font-size="14.00"> return 0</text>
</g>
<!-- Node0x182eb420&#45;&gt;Node0x182eb610 -->
<g id="edge4" class="edge"><title>Node0x182eb420&#45;&gt;Node0x182eb610</title>
<path fill="none" stroke="black" d="M267.213,-338.153C270.991,-332.69 274.539,-326.402 276.5,-320 287.924,-282.706 281.273,-239.278 271.843,-205.327"/>
<polygon fill="black" stroke="black" points="275.153,-204.177 268.984,-195.564 268.436,-206.145 275.153,-204.177"/>
<text text-anchor="middle" x="309.5" y="-256.3" font-family="Times,serif" font-size="14.00">v2 != 0</text>
</g>
<!-- Node0x182e7950&#45;&gt;Node0x182eb610 -->
<g id="edge5" class="edge"><title>Node0x182e7950&#45;&gt;Node0x182eb610</title>
<path fill="none" stroke="black" d="M178.836,-233.42C186.272,-224.505 194.936,-214.117 203.618,-203.708"/>
<polygon fill="black" stroke="black" points="206.523,-205.69 210.24,-195.768 201.147,-201.206 206.523,-205.69"/>
</g>
<!-- Node0x182e78b0 -->
<g id="node6" class="node"><title>Node0x182e78b0</title>
<polygon fill="none" stroke="black" points="223.5,-23.5 223.5,-59.5 277.5,-59.5 277.5,-23.5 223.5,-23.5"/>
<text text-anchor="start" x="231.5" y="-37.8" font-family="Times,serif" font-size="14.00">exit:</text>
</g>
<!-- Node0x182eb610&#45;&gt;Node0x182e78b0 -->
<g id="edge6" class="edge"><title>Node0x182eb610&#45;&gt;Node0x182e78b0</title>
<path fill="none" stroke="black" d="M250.5,-97.3173C250.5,-87.893 250.5,-78.32 250.5,-69.8676"/>
<polygon fill="black" stroke="black" points="254,-69.856 250.5,-59.8561 247,-69.8561 254,-69.856"/>
</g>
</g>
</svg>
