<?xml version="1.0" encoding="UTF-8" standalone="no"?>
<!DOCTYPE svg PUBLIC "-//W3C//DTD SVG 1.1//EN"
 "http://www.w3.org/Graphics/SVG/1.1/DTD/svg11.dtd">
<!-- Generated by graphviz version 2.38.0 (20140413.2041)
 -->
<!-- Title: Control&#45;flow graph for function &#39;function_41ecbc(a1)&#39;. Pages: 1 -->
<svg width="598pt" height="248pt"
 viewBox="0.00 0.00 598.00 248.00" xmlns="http://www.w3.org/2000/svg" xmlns:xlink="http://www.w3.org/1999/xlink">
<g id="graph0" class="graph" transform="scale(1 1) rotate(0) translate(4 244)">
<title>Control&#45;flow graph for function &#39;function_41ecbc(a1)&#39;.</title>
<polygon fill="white" stroke="none" points="-4,4 -4,-244 594,-244 594,4 -4,4"/>
<text text-anchor="middle" x="295" y="-7.8" font-family="Times,serif" font-size="14.00">Control&#45;flow graph for function &#39;function_41ecbc(a1)&#39;.</text>
<!-- Node0x109e6db0 -->
<g id="node1" class="node"><title>Node0x109e6db0</title>
<polygon fill="none" stroke="black" points="265.5,-201.5 265.5,-239.5 324.5,-239.5 324.5,-201.5 265.5,-201.5"/>
<text text-anchor="start" x="273.5" y="-224.3" font-family="Times,serif" font-size="14.00">entry:</text>
<text text-anchor="start" x="273.5" y="-209.3" font-family="Times,serif" font-size="14.00"> a1</text>
</g>
<!-- Node0x109e70d0 -->
<g id="node2" class="node"><title>Node0x109e70d0</title>
<polygon fill="none" stroke="black" points="0,-96.5 0,-164.5 590,-164.5 590,-96.5 0,-96.5"/>
<text text-anchor="start" x="8" y="-149.3" font-family="Times,serif" font-size="14.00">0x41ecbc:</text>
<text text-anchor="start" x="8" y="-134.3" font-family="Times,serif" font-size="14.00"> *(IntToPtrCastExpr&lt;ptr&gt;(g5)) = PtrToIntCastExpr&lt;int32&gt;(&amp;(vtable_43be20))</text>
<text text-anchor="start" x="8" y="-119.3" font-family="Times,serif" font-size="14.00"> function_4048de()</text>
<text text-anchor="start" x="8" y="-104.3" font-family="Times,serif" font-size="14.00"> return *(IntToPtrCastExpr&lt;ptr&gt;((g5 + 4)))</text>
</g>
<!-- Node0x109e6db0&#45;&gt;Node0x109e70d0 -->
<g id="edge1" class="edge"><title>Node0x109e6db0&#45;&gt;Node0x109e70d0</title>
<path fill="none" stroke="black" d="M295,-201.266C295,-193.502 295,-184.086 295,-174.717"/>
<polygon fill="black" stroke="black" points="298.5,-174.649 295,-164.65 291.5,-174.65 298.5,-174.649"/>
</g>
<!-- Node0x109e68f0 -->
<g id="node3" class="node"><title>Node0x109e68f0</title>
<polygon fill="none" stroke="black" points="268,-23.5 268,-59.5 322,-59.5 322,-23.5 268,-23.5"/>
<text text-anchor="start" x="276" y="-37.8" font-family="Times,serif" font-size="14.00">exit:</text>
</g>
<!-- Node0x109e70d0&#45;&gt;Node0x109e68f0 -->
<g id="edge2" class="edge"><title>Node0x109e70d0&#45;&gt;Node0x109e68f0</title>
<path fill="none" stroke="black" d="M295,-96.1123C295,-87.3522 295,-78.0128 295,-69.6246"/>
<polygon fill="black" stroke="black" points="298.5,-69.6235 295,-59.6235 291.5,-69.6235 298.5,-69.6235"/>
</g>
</g>
</svg>
