<?xml version="1.0" encoding="UTF-8" standalone="no"?>
<!DOCTYPE svg PUBLIC "-//W3C//DTD SVG 1.1//EN"
 "http://www.w3.org/Graphics/SVG/1.1/DTD/svg11.dtd">
<!-- Generated by graphviz version 2.38.0 (20140413.2041)
 -->
<!-- Title: Control&#45;flow graph for function &#39;function_405435(*lpString1, *lpString2)&#39;. Pages: 1 -->
<svg width="553pt" height="278pt"
 viewBox="0.00 0.00 553.00 278.00" xmlns="http://www.w3.org/2000/svg" xmlns:xlink="http://www.w3.org/1999/xlink">
<g id="graph0" class="graph" transform="scale(1 1) rotate(0) translate(4 274)">
<title>Control&#45;flow graph for function &#39;function_405435(*lpString1, *lpString2)&#39;.</title>
<polygon fill="white" stroke="none" points="-4,4 -4,-274 549,-274 549,4 -4,4"/>
<text text-anchor="middle" x="272.5" y="-7.8" font-family="Times,serif" font-size="14.00">Control&#45;flow graph for function &#39;function_405435(*lpString1, *lpString2)&#39;.</text>
<!-- Node0x1e830620 -->
<g id="node1" class="node"><title>Node0x1e830620</title>
<polygon fill="none" stroke="black" points="228.5,-216.5 228.5,-269.5 316.5,-269.5 316.5,-216.5 228.5,-216.5"/>
<text text-anchor="start" x="236.5" y="-254.3" font-family="Times,serif" font-size="14.00">entry:</text>
<text text-anchor="start" x="236.5" y="-239.3" font-family="Times,serif" font-size="14.00"> lpString1</text>
<text text-anchor="start" x="236.5" y="-224.3" font-family="Times,serif" font-size="14.00"> lpString2</text>
</g>
<!-- Node0x14b9c920 -->
<g id="node2" class="node"><title>Node0x14b9c920</title>
<polygon fill="none" stroke="black" points="20,-96.5 20,-179.5 525,-179.5 525,-96.5 20,-96.5"/>
<text text-anchor="start" x="28" y="-164.3" font-family="Times,serif" font-size="14.00">0x405435:</text>
<text text-anchor="start" x="28" y="-149.3" font-family="Times,serif" font-size="14.00"> cchCount2</text>
<text text-anchor="start" x="28" y="-134.3" font-family="Times,serif" font-size="14.00"> v1 = CompareStringA(1033, 1, lpString1, &#45;1, lpString2, cchCount2)</text>
<text text-anchor="start" x="28" y="-119.3" font-family="Times,serif" font-size="14.00"> g2 = (v1 &#45; 1)</text>
<text text-anchor="start" x="28" y="-104.3" font-family="Times,serif" font-size="14.00"> return (v1 &#45; 2)</text>
</g>
<!-- Node0x1e830620&#45;&gt;Node0x14b9c920 -->
<g id="edge1" class="edge"><title>Node0x1e830620&#45;&gt;Node0x14b9c920</title>
<path fill="none" stroke="black" d="M272.5,-216.274C272.5,-208.222 272.5,-199.037 272.5,-189.878"/>
<polygon fill="black" stroke="black" points="276,-189.61 272.5,-179.61 269,-189.61 276,-189.61"/>
</g>
<!-- Node0x1cf32360 -->
<g id="node3" class="node"><title>Node0x1cf32360</title>
<polygon fill="none" stroke="black" points="245.5,-23.5 245.5,-59.5 299.5,-59.5 299.5,-23.5 245.5,-23.5"/>
<text text-anchor="start" x="253.5" y="-37.8" font-family="Times,serif" font-size="14.00">exit:</text>
</g>
<!-- Node0x14b9c920&#45;&gt;Node0x1cf32360 -->
<g id="edge2" class="edge"><title>Node0x14b9c920&#45;&gt;Node0x1cf32360</title>
<path fill="none" stroke="black" d="M272.5,-96.3751C272.5,-87.4706 272.5,-78.246 272.5,-70"/>
<polygon fill="black" stroke="black" points="276,-69.8327 272.5,-59.8328 269,-69.8328 276,-69.8327"/>
</g>
</g>
</svg>
