<?xml version="1.0" encoding="UTF-8" standalone="no"?>
<!DOCTYPE svg PUBLIC "-//W3C//DTD SVG 1.1//EN"
 "http://www.w3.org/Graphics/SVG/1.1/DTD/svg11.dtd">
<!-- Generated by graphviz version 2.38.0 (20140413.2041)
 -->
<!-- Title: Control&#45;flow graph for function &#39;function_41371f(*a1, *wParam, *lParam, a4)&#39;. Pages: 1 -->
<svg width="1104pt" height="582pt"
 viewBox="0.00 0.00 1104.00 582.00" xmlns="http://www.w3.org/2000/svg" xmlns:xlink="http://www.w3.org/1999/xlink">
<g id="graph0" class="graph" transform="scale(1 1) rotate(0) translate(4 578)">
<title>Control&#45;flow graph for function &#39;function_41371f(*a1, *wParam, *lParam, a4)&#39;.</title>
<polygon fill="white" stroke="none" points="-4,4 -4,-578 1100,-578 1100,4 -4,4"/>
<text text-anchor="middle" x="548" y="-7.8" font-family="Times,serif" font-size="14.00">Control&#45;flow graph for function &#39;function_41371f(*a1, *wParam, *lParam, a4)&#39;.</text>
<!-- Node0x9dd91d60 -->
<g id="node1" class="node"><title>Node0x9dd91d60</title>
<polygon fill="none" stroke="black" points="710.5,-490.5 710.5,-573.5 789.5,-573.5 789.5,-490.5 710.5,-490.5"/>
<text text-anchor="start" x="718.5" y="-558.3" font-family="Times,serif" font-size="14.00">entry:</text>
<text text-anchor="start" x="718.5" y="-543.3" font-family="Times,serif" font-size="14.00"> a1</text>
<text text-anchor="start" x="718.5" y="-528.3" font-family="Times,serif" font-size="14.00"> wParam</text>
<text text-anchor="start" x="718.5" y="-513.3" font-family="Times,serif" font-size="14.00"> lParam</text>
<text text-anchor="start" x="718.5" y="-498.3" font-family="Times,serif" font-size="14.00"> a4</text>
</g>
<!-- Node0x9dd93bb0 -->
<g id="node2" class="node"><title>Node0x9dd93bb0</title>
<polygon fill="none" stroke="black" points="404,-354.5 404,-452.5 1096,-452.5 1096,-354.5 404,-354.5"/>
<text text-anchor="start" x="412" y="-437.3" font-family="Times,serif" font-size="14.00">v1 = IntToPtrCastExpr&lt;ptr&gt;(ExtCastExpr&lt;int32&gt;(*(a1)))</text>
<text text-anchor="start" x="412" y="-422.3" font-family="Times,serif" font-size="14.00"> v2 = v1</text>
<text text-anchor="start" x="412" y="-407.3" font-family="Times,serif" font-size="14.00"> g10 = PtrToIntCastExpr&lt;int32&gt;(&amp;(v2))</text>
<text text-anchor="start" x="412" y="-392.3" font-family="Times,serif" font-size="14.00"> v3 = *(IntToPtrCastExpr&lt;ptr&gt;(g5))</text>
<text text-anchor="start" x="412" y="-377.3" font-family="Times,serif" font-size="14.00"> IntToPtrCastExpr&lt;ptr&gt;(*(IntToPtrCastExpr&lt;ptr&gt;((v3 + 116))))(ExtCastExpr&lt;int32&gt;(*(v1)))</text>
<text text-anchor="start" x="412" y="-362.3" font-family="Times,serif" font-size="14.00"> result</text>
</g>
<!-- Node0x9dd91d60&#45;&gt;Node0x9dd93bb0 -->
<g id="edge1" class="edge"><title>Node0x9dd91d60&#45;&gt;Node0x9dd93bb0</title>
<path fill="none" stroke="black" d="M750,-490.278C750,-481.473 750,-471.999 750,-462.672"/>
<polygon fill="black" stroke="black" points="753.5,-462.648 750,-452.648 746.5,-462.648 753.5,-462.648"/>
</g>
<!-- Node0x9dd93cd0 -->
<g id="node3" class="node"><title>Node0x9dd93cd0</title>
<polygon fill="none" stroke="black" points="700.5,-278.5 700.5,-316.5 799.5,-316.5 799.5,-278.5 700.5,-278.5"/>
<text text-anchor="start" x="708.5" y="-301.3" font-family="Times,serif" font-size="14.00">if (v3 != 0):</text>
<text text-anchor="start" x="708.5" y="-286.3" font-family="Times,serif" font-size="14.00"> else:</text>
</g>
<!-- Node0x9dd93bb0&#45;&gt;Node0x9dd93cd0 -->
<g id="edge2" class="edge"><title>Node0x9dd93bb0&#45;&gt;Node0x9dd93cd0</title>
<path fill="none" stroke="black" d="M750,-354.458C750,-344.952 750,-335.27 750,-326.69"/>
<polygon fill="black" stroke="black" points="753.5,-326.509 750,-316.509 746.5,-326.509 753.5,-326.509"/>
</g>
<!-- Node0x9dd94170 -->
<g id="node4" class="node"><title>Node0x9dd94170</title>
<polygon fill="none" stroke="black" points="0,-173.5 0,-226.5 960,-226.5 960,-173.5 0,-173.5"/>
<text text-anchor="start" x="8" y="-211.3" font-family="Times,serif" font-size="14.00">hWnd = *(IntToPtrCastExpr&lt;ptr&gt;((v3 + 32)))</text>
<text text-anchor="start" x="8" y="-196.3" font-family="Times,serif" font-size="14.00"> Msg = *(IntToPtrCastExpr&lt;ptr&gt;(ExtCastExpr&lt;int32&gt;(*(a1))))</text>
<text text-anchor="start" x="8" y="-181.3" font-family="Times,serif" font-size="14.00"> result = PtrToIntCastExpr&lt;int32&gt;(SendMessageA(IntToPtrCastExpr&lt;ptr&gt;(hWnd), ExtCastExpr&lt;int32&gt;(Msg), wParam, lParam))</text>
</g>
<!-- Node0x9dd93cd0&#45;&gt;Node0x9dd94170 -->
<g id="edge3" class="edge"><title>Node0x9dd93cd0&#45;&gt;Node0x9dd94170</title>
<path fill="none" stroke="black" d="M700.478,-278.984C661.676,-265.26 606.871,-245.875 561.61,-229.866"/>
<polygon fill="black" stroke="black" points="562.7,-226.539 552.106,-226.504 560.366,-233.138 562.7,-226.539"/>
<text text-anchor="middle" x="667" y="-248.8" font-family="Times,serif" font-size="14.00">v3 != 0</text>
</g>
<!-- Node0x9dd941f0 -->
<g id="node5" class="node"><title>Node0x9dd941f0</title>
<polygon fill="none" stroke="black" points="977.5,-182 977.5,-218 1066.5,-218 1066.5,-182 977.5,-182"/>
<text text-anchor="start" x="985.5" y="-196.3" font-family="Times,serif" font-size="14.00">result = 0</text>
</g>
<!-- Node0x9dd93cd0&#45;&gt;Node0x9dd941f0 -->
<g id="edge4" class="edge"><title>Node0x9dd93cd0&#45;&gt;Node0x9dd941f0</title>
<path fill="none" stroke="black" d="M799.882,-282.966C844.759,-270.251 912.176,-249.807 969,-227 972.487,-225.601 976.061,-224.069 979.627,-222.471"/>
<polygon fill="black" stroke="black" points="981.381,-225.517 988.981,-218.135 978.436,-219.166 981.381,-225.517"/>
<text text-anchor="middle" x="945" y="-248.8" font-family="Times,serif" font-size="14.00">v3 == 0</text>
</g>
<!-- Node0x9dd93820 -->
<g id="node6" class="node"><title>Node0x9dd93820</title>
<polygon fill="none" stroke="black" points="758.5,-97.5 758.5,-135.5 871.5,-135.5 871.5,-97.5 758.5,-97.5"/>
<text text-anchor="start" x="766.5" y="-120.3" font-family="Times,serif" font-size="14.00">0x413741:</text>
<text text-anchor="start" x="766.5" y="-105.3" font-family="Times,serif" font-size="14.00"> return result</text>
</g>
<!-- Node0x9dd94170&#45;&gt;Node0x9dd93820 -->
<g id="edge5" class="edge"><title>Node0x9dd94170&#45;&gt;Node0x9dd93820</title>
<path fill="none" stroke="black" d="M585.077,-173.437C638.349,-160.476 701.453,-145.124 748.061,-133.785"/>
<polygon fill="black" stroke="black" points="749.155,-137.121 758.044,-131.356 747.5,-130.32 749.155,-137.121"/>
</g>
<!-- Node0x9dd941f0&#45;&gt;Node0x9dd93820 -->
<g id="edge6" class="edge"><title>Node0x9dd941f0&#45;&gt;Node0x9dd93820</title>
<path fill="none" stroke="black" d="M988.613,-181.93C982.164,-178.83 975.416,-175.72 969,-173 939.977,-160.696 907.193,-148.634 879.356,-138.916"/>
<polygon fill="black" stroke="black" points="880.325,-135.547 869.73,-135.579 878.032,-142.161 880.325,-135.547"/>
</g>
<!-- Node0x9dd93b30 -->
<g id="node7" class="node"><title>Node0x9dd93b30</title>
<polygon fill="none" stroke="black" points="788,-23.5 788,-59.5 842,-59.5 842,-23.5 788,-23.5"/>
<text text-anchor="start" x="796" y="-37.8" font-family="Times,serif" font-size="14.00">exit:</text>
</g>
<!-- Node0x9dd93820&#45;&gt;Node0x9dd93b30 -->
<g id="edge7" class="edge"><title>Node0x9dd93820&#45;&gt;Node0x9dd93b30</title>
<path fill="none" stroke="black" d="M815,-97.4551C815,-89.2008 815,-79.2377 815,-70.0742"/>
<polygon fill="black" stroke="black" points="818.5,-69.8347 815,-59.8347 811.5,-69.8347 818.5,-69.8347"/>
</g>
</g>
</svg>
