<?xml version="1.0" encoding="UTF-8" standalone="no"?>
<!DOCTYPE svg PUBLIC "-//W3C//DTD SVG 1.1//EN"
 "http://www.w3.org/Graphics/SVG/1.1/DTD/svg11.dtd">
<!-- Generated by graphviz version 2.38.0 (20140413.2041)
 -->
<!-- Title: Control&#45;flow graph for function &#39;function_4113bd()&#39;. Pages: 1 -->
<svg width="490pt" height="397pt"
 viewBox="0.00 0.00 490.00 397.00" xmlns="http://www.w3.org/2000/svg" xmlns:xlink="http://www.w3.org/1999/xlink">
<g id="graph0" class="graph" transform="scale(1 1) rotate(0) translate(4 393)">
<title>Control&#45;flow graph for function &#39;function_4113bd()&#39;.</title>
<polygon fill="white" stroke="none" points="-4,4 -4,-393 486,-393 486,4 -4,4"/>
<text text-anchor="middle" x="241" y="-7.8" font-family="Times,serif" font-size="14.00">Control&#45;flow graph for function &#39;function_4113bd()&#39;.</text>
<!-- Node0x5cc47260 -->
<g id="node1" class="node"><title>Node0x5cc47260</title>
<polygon fill="none" stroke="black" points="141,-352.5 141,-388.5 200,-388.5 200,-352.5 141,-352.5"/>
<text text-anchor="start" x="149" y="-366.8" font-family="Times,serif" font-size="14.00">entry:</text>
</g>
<!-- Node0x5cc48f30 -->
<g id="node2" class="node"><title>Node0x5cc48f30</title>
<polygon fill="none" stroke="black" points="125,-276.5 125,-314.5 216,-314.5 216,-276.5 125,-276.5"/>
<text text-anchor="start" x="133" y="-299.3" font-family="Times,serif" font-size="14.00">v1 = g129</text>
<text text-anchor="start" x="133" y="-284.3" font-family="Times,serif" font-size="14.00"> g5 = v1</text>
</g>
<!-- Node0x5cc47260&#45;&gt;Node0x5cc48f30 -->
<g id="edge1" class="edge"><title>Node0x5cc47260&#45;&gt;Node0x5cc48f30</title>
<path fill="none" stroke="black" d="M170.5,-352.2C170.5,-343.99 170.5,-333.969 170.5,-324.701"/>
<polygon fill="black" stroke="black" points="174,-324.694 170.5,-314.694 167,-324.695 174,-324.694"/>
</g>
<!-- Node0x5cc49f00 -->
<g id="node3" class="node"><title>Node0x5cc49f00</title>
<polygon fill="none" stroke="black" points="118,-202.5 118,-238.5 223,-238.5 223,-202.5 118,-202.5"/>
<text text-anchor="start" x="126" y="-216.8" font-family="Times,serif" font-size="14.00">if (v1 == 0):</text>
</g>
<!-- Node0x5cc48f30&#45;&gt;Node0x5cc49f00 -->
<g id="edge2" class="edge"><title>Node0x5cc48f30&#45;&gt;Node0x5cc49f00</title>
<path fill="none" stroke="black" d="M170.5,-276.455C170.5,-268.201 170.5,-258.238 170.5,-249.074"/>
<polygon fill="black" stroke="black" points="174,-248.835 170.5,-238.835 167,-248.835 174,-248.835"/>
</g>
<!-- Node0x5cc49a10 -->
<g id="node4" class="node"><title>Node0x5cc49a10</title>
<polygon fill="none" stroke="black" points="0,-105 0,-143 91,-143 91,-105 0,-105"/>
<text text-anchor="start" x="8" y="-127.8" font-family="Times,serif" font-size="14.00">0x4113cc:</text>
<text text-anchor="start" x="8" y="-112.8" font-family="Times,serif" font-size="14.00"> return</text>
</g>
<!-- Node0x5cc49f00&#45;&gt;Node0x5cc49a10 -->
<g id="edge3" class="edge"><title>Node0x5cc49f00&#45;&gt;Node0x5cc49a10</title>
<path fill="none" stroke="black" d="M147.863,-202.387C128.275,-187.578 99.7193,-165.99 77.7425,-149.375"/>
<polygon fill="black" stroke="black" points="79.7619,-146.514 69.6742,-143.276 75.5404,-152.098 79.7619,-146.514"/>
<text text-anchor="middle" x="153.5" y="-172.8" font-family="Times,serif" font-size="14.00">v1 == 0</text>
</g>
<!-- Node0x5cc4a2a0 -->
<g id="node5" class="node"><title>Node0x5cc4a2a0</title>
<polygon fill="none" stroke="black" points="109,-97.5 109,-150.5 482,-150.5 482,-97.5 109,-97.5"/>
<text text-anchor="start" x="117" y="-135.3" font-family="Times,serif" font-size="14.00">0x4113c7:</text>
<text text-anchor="start" x="117" y="-120.3" font-family="Times,serif" font-size="14.00"> v2</text>
<text text-anchor="start" x="117" y="-105.3" font-family="Times,serif" font-size="14.00"> function_4112bc(BitCastExpr&lt;ptr&gt;(&amp;(v2)), 0, 0)</text>
</g>
<!-- Node0x5cc49f00&#45;&gt;Node0x5cc4a2a0 -->
<g id="edge4" class="edge"><title>Node0x5cc49f00&#45;&gt;Node0x5cc4a2a0</title>
<path fill="none" stroke="black" d="M193.137,-202.387C209.956,-189.671 233.385,-171.959 253.585,-156.688"/>
<polygon fill="black" stroke="black" points="255.858,-159.357 261.725,-150.534 251.637,-153.773 255.858,-159.357"/>
<text text-anchor="middle" x="263.5" y="-172.8" font-family="Times,serif" font-size="14.00">v1 != 0</text>
</g>
<!-- Node0x5cc47620 -->
<g id="node6" class="node"><title>Node0x5cc47620</title>
<polygon fill="none" stroke="black" points="170.5,-23.5 170.5,-59.5 224.5,-59.5 224.5,-23.5 170.5,-23.5"/>
<text text-anchor="start" x="178.5" y="-37.8" font-family="Times,serif" font-size="14.00">exit:</text>
</g>
<!-- Node0x5cc49a10&#45;&gt;Node0x5cc47620 -->
<g id="edge5" class="edge"><title>Node0x5cc49a10&#45;&gt;Node0x5cc47620</title>
<path fill="none" stroke="black" d="M79.6118,-104.934C103.827,-92.1097 136.293,-74.9154 161.023,-61.8182"/>
<polygon fill="black" stroke="black" points="162.89,-64.79 170.089,-57.0168 159.614,-58.604 162.89,-64.79"/>
</g>
<!-- Node0x5cc4a2a0&#45;&gt;Node0x5cc47620 -->
<g id="edge6" class="edge"><title>Node0x5cc4a2a0&#45;&gt;Node0x5cc47620</title>
<path fill="none" stroke="black" d="M264.223,-97.308C252.025,-87.2885 238.134,-75.8782 226.197,-66.0722"/>
<polygon fill="black" stroke="black" points="228.238,-63.2195 218.289,-59.5766 223.795,-68.6286 228.238,-63.2195"/>
</g>
</g>
</svg>
