<?xml version="1.0" encoding="UTF-8" standalone="no"?>
<!DOCTYPE svg PUBLIC "-//W3C//DTD SVG 1.1//EN"
 "http://www.w3.org/Graphics/SVG/1.1/DTD/svg11.dtd">
<!-- Generated by graphviz version 2.38.0 (20140413.2041)
 -->
<!-- Title: Control&#45;flow graph for function &#39;function_4203bc(*a1)&#39;. Pages: 1 -->
<svg width="510pt" height="837pt"
 viewBox="0.00 0.00 510.00 837.00" xmlns="http://www.w3.org/2000/svg" xmlns:xlink="http://www.w3.org/1999/xlink">
<g id="graph0" class="graph" transform="scale(1 1) rotate(0) translate(4 833)">
<title>Control&#45;flow graph for function &#39;function_4203bc(*a1)&#39;.</title>
<polygon fill="white" stroke="none" points="-4,4 -4,-833 506,-833 506,4 -4,4"/>
<text text-anchor="middle" x="251" y="-7.8" font-family="Times,serif" font-size="14.00">Control&#45;flow graph for function &#39;function_4203bc(*a1)&#39;.</text>
<!-- Node0xf882ca0 -->
<g id="node1" class="node"><title>Node0xf882ca0</title>
<polygon fill="none" stroke="black" points="288.5,-790.5 288.5,-828.5 347.5,-828.5 347.5,-790.5 288.5,-790.5"/>
<text text-anchor="start" x="296.5" y="-813.3" font-family="Times,serif" font-size="14.00">entry:</text>
<text text-anchor="start" x="296.5" y="-798.3" font-family="Times,serif" font-size="14.00"> a1</text>
</g>
<!-- Node0xf8f2780 -->
<g id="node2" class="node"><title>Node0xf8f2780</title>
<polygon fill="none" stroke="black" points="170,-399.5 170,-752.5 466,-752.5 466,-399.5 170,-399.5"/>
<text text-anchor="start" x="178" y="-737.3" font-family="Times,serif" font-size="14.00">v1</text>
<text text-anchor="start" x="178" y="-722.3" font-family="Times,serif" font-size="14.00"> v2</text>
<text text-anchor="start" x="178" y="-707.3" font-family="Times,serif" font-size="14.00"> result</text>
<text text-anchor="start" x="178" y="-692.3" font-family="Times,serif" font-size="14.00"> v3</text>
<text text-anchor="start" x="178" y="-677.3" font-family="Times,serif" font-size="14.00"> v4</text>
<text text-anchor="start" x="178" y="-662.3" font-family="Times,serif" font-size="14.00"> v5</text>
<text text-anchor="start" x="178" y="-647.3" font-family="Times,serif" font-size="14.00"> v6</text>
<text text-anchor="start" x="178" y="-632.3" font-family="Times,serif" font-size="14.00"> v7</text>
<text text-anchor="start" x="178" y="-617.3" font-family="Times,serif" font-size="14.00"> v8</text>
<text text-anchor="start" x="178" y="-602.3" font-family="Times,serif" font-size="14.00"> v9</text>
<text text-anchor="start" x="178" y="-587.3" font-family="Times,serif" font-size="14.00"> v10</text>
<text text-anchor="start" x="178" y="-572.3" font-family="Times,serif" font-size="14.00"> v11</text>
<text text-anchor="start" x="178" y="-557.3" font-family="Times,serif" font-size="14.00"> v12</text>
<text text-anchor="start" x="178" y="-542.3" font-family="Times,serif" font-size="14.00"> v13</text>
<text text-anchor="start" x="178" y="-527.3" font-family="Times,serif" font-size="14.00"> v6 = v7</text>
<text text-anchor="start" x="178" y="-512.3" font-family="Times,serif" font-size="14.00"> v4 = v5</text>
<text text-anchor="start" x="178" y="-497.3" font-family="Times,serif" font-size="14.00"> v9 = v10</text>
<text text-anchor="start" x="178" y="-482.3" font-family="Times,serif" font-size="14.00"> v9 = a1</text>
<text text-anchor="start" x="178" y="-467.3" font-family="Times,serif" font-size="14.00"> v11 = g5</text>
<text text-anchor="start" x="178" y="-452.3" font-family="Times,serif" font-size="14.00"> v12 = *(IntToPtrCastExpr&lt;ptr&gt;(v11))</text>
<text text-anchor="start" x="178" y="-437.3" font-family="Times,serif" font-size="14.00"> v13 = PtrToIntCastExpr&lt;int32&gt;(a1)</text>
<text text-anchor="start" x="178" y="-422.3" font-family="Times,serif" font-size="14.00"> g1 = (v12 &lt; v13)</text>
<text text-anchor="start" x="178" y="-407.3" font-family="Times,serif" font-size="14.00"> g207 = (v12 == v13)</text>
</g>
<!-- Node0xf882ca0&#45;&gt;Node0xf8f2780 -->
<g id="edge1" class="edge"><title>Node0xf882ca0&#45;&gt;Node0xf8f2780</title>
<path fill="none" stroke="black" d="M318,-790.335C318,-782.908 318,-773.553 318,-762.93"/>
<polygon fill="black" stroke="black" points="321.5,-762.838 318,-752.838 314.5,-762.838 321.5,-762.838"/>
</g>
<!-- Node0xf882ea0 -->
<g id="node3" class="node"><title>Node0xf882ea0</title>
<polygon fill="none" stroke="black" points="255.5,-323.5 255.5,-361.5 380.5,-361.5 380.5,-323.5 255.5,-323.5"/>
<text text-anchor="start" x="263.5" y="-346.3" font-family="Times,serif" font-size="14.00">if (v12 != v13):</text>
<text text-anchor="start" x="263.5" y="-331.3" font-family="Times,serif" font-size="14.00"> else:</text>
</g>
<!-- Node0xf8f2780&#45;&gt;Node0xf882ea0 -->
<g id="edge2" class="edge"><title>Node0xf8f2780&#45;&gt;Node0xf882ea0</title>
<path fill="none" stroke="black" d="M318,-399.245C318,-389.06 318,-379.733 318,-371.742"/>
<polygon fill="black" stroke="black" points="321.5,-371.718 318,-361.718 314.5,-371.718 321.5,-371.718"/>
</g>
<!-- Node0xf8d67b0 -->
<g id="node4" class="node"><title>Node0xf8d67b0</title>
<polygon fill="none" stroke="black" points="0,-173.5 0,-271.5 378,-271.5 378,-173.5 0,-173.5"/>
<text text-anchor="start" x="8" y="-256.3" font-family="Times,serif" font-size="14.00">0x4203c4:</text>
<text text-anchor="start" x="8" y="-241.3" font-family="Times,serif" font-size="14.00"> v4 = BitCastExpr&lt;ptr&gt;(a1)</text>
<text text-anchor="start" x="8" y="-226.3" font-family="Times,serif" font-size="14.00"> v1 = IntToPtrCastExpr&lt;ptr&gt;(v11)</text>
<text text-anchor="start" x="8" y="-211.3" font-family="Times,serif" font-size="14.00"> v6 = v1</text>
<text text-anchor="start" x="8" y="-196.3" font-family="Times,serif" font-size="14.00"> v2 = function_41cb87(v1, BitCastExpr&lt;ptr&gt;(a1))</text>
<text text-anchor="start" x="8" y="-181.3" font-family="Times,serif" font-size="14.00"> result = v2</text>
</g>
<!-- Node0xf882ea0&#45;&gt;Node0xf8d67b0 -->
<g id="edge3" class="edge"><title>Node0xf882ea0&#45;&gt;Node0xf8d67b0</title>
<path fill="none" stroke="black" d="M298.126,-323.321C284.893,-311.216 266.743,-294.613 249.042,-278.422"/>
<polygon fill="black" stroke="black" points="251.241,-275.69 241.5,-271.523 246.516,-280.855 251.241,-275.69"/>
<text text-anchor="middle" x="317" y="-293.8" font-family="Times,serif" font-size="14.00">v12 != v13</text>
</g>
<!-- Node0xf901e40 -->
<g id="node5" class="node"><title>Node0xf901e40</title>
<polygon fill="none" stroke="black" points="396,-204.5 396,-240.5 502,-240.5 502,-204.5 396,-204.5"/>
<text text-anchor="start" x="404" y="-218.8" font-family="Times,serif" font-size="14.00">result = v12</text>
</g>
<!-- Node0xf882ea0&#45;&gt;Node0xf901e40 -->
<g id="edge4" class="edge"><title>Node0xf882ea0&#45;&gt;Node0xf901e40</title>
<path fill="none" stroke="black" d="M339.591,-323.486C346.486,-317.65 354.113,-311.107 361,-305 382.347,-286.07 406.052,-264.057 423.475,-247.684"/>
<polygon fill="black" stroke="black" points="426.128,-249.994 431.008,-240.589 421.329,-244.898 426.128,-249.994"/>
<text text-anchor="middle" x="418" y="-293.8" font-family="Times,serif" font-size="14.00">v12 == v13</text>
</g>
<!-- Node0xf8e9de0 -->
<g id="node6" class="node"><title>Node0xf8e9de0</title>
<polygon fill="none" stroke="black" points="291.5,-97.5 291.5,-135.5 404.5,-135.5 404.5,-97.5 291.5,-97.5"/>
<text text-anchor="start" x="299.5" y="-120.3" font-family="Times,serif" font-size="14.00">0x4203ce:</text>
<text text-anchor="start" x="299.5" y="-105.3" font-family="Times,serif" font-size="14.00"> return result</text>
</g>
<!-- Node0xf8d67b0&#45;&gt;Node0xf8e9de0 -->
<g id="edge5" class="edge"><title>Node0xf8d67b0&#45;&gt;Node0xf8e9de0</title>
<path fill="none" stroke="black" d="M262.45,-173.458C279.565,-162.263 297.057,-150.821 311.727,-141.226"/>
<polygon fill="black" stroke="black" points="314.015,-143.912 320.467,-135.509 310.183,-138.054 314.015,-143.912"/>
</g>
<!-- Node0xf901e40&#45;&gt;Node0xf8e9de0 -->
<g id="edge6" class="edge"><title>Node0xf901e40&#45;&gt;Node0xf8e9de0</title>
<path fill="none" stroke="black" d="M432.322,-204.327C416.098,-187.621 391.255,-162.04 372.731,-142.965"/>
<polygon fill="black" stroke="black" points="375.201,-140.485 365.723,-135.749 370.179,-145.362 375.201,-140.485"/>
</g>
<!-- Node0xf881f60 -->
<g id="node7" class="node"><title>Node0xf881f60</title>
<polygon fill="none" stroke="black" points="321,-23.5 321,-59.5 375,-59.5 375,-23.5 321,-23.5"/>
<text text-anchor="start" x="329" y="-37.8" font-family="Times,serif" font-size="14.00">exit:</text>
</g>
<!-- Node0xf8e9de0&#45;&gt;Node0xf881f60 -->
<g id="edge7" class="edge"><title>Node0xf8e9de0&#45;&gt;Node0xf881f60</title>
<path fill="none" stroke="black" d="M348,-97.4551C348,-89.2008 348,-79.2377 348,-70.0742"/>
<polygon fill="black" stroke="black" points="351.5,-69.8347 348,-59.8347 344.5,-69.8347 351.5,-69.8347"/>
</g>
</g>
</svg>
