<?xml version="1.0" encoding="UTF-8" standalone="no"?>
<!DOCTYPE svg PUBLIC "-//W3C//DTD SVG 1.1//EN"
 "http://www.w3.org/Graphics/SVG/1.1/DTD/svg11.dtd">
<!-- Generated by graphviz version 2.38.0 (20140413.2041)
 -->
<!-- Title: Control&#45;flow graph for function &#39;function_422bee(a1)&#39;. Pages: 1 -->
<svg width="562pt" height="1234pt"
 viewBox="0.00 0.00 562.00 1234.00" xmlns="http://www.w3.org/2000/svg" xmlns:xlink="http://www.w3.org/1999/xlink">
<g id="graph0" class="graph" transform="scale(1 1) rotate(0) translate(4 1230)">
<title>Control&#45;flow graph for function &#39;function_422bee(a1)&#39;.</title>
<polygon fill="white" stroke="none" points="-4,4 -4,-1230 558,-1230 558,4 -4,4"/>
<text text-anchor="middle" x="277" y="-7.8" font-family="Times,serif" font-size="14.00">Control&#45;flow graph for function &#39;function_422bee(a1)&#39;.</text>
<!-- Node0xfa8b5f0 -->
<g id="node1" class="node"><title>Node0xfa8b5f0</title>
<polygon fill="none" stroke="black" points="126.5,-1187.5 126.5,-1225.5 185.5,-1225.5 185.5,-1187.5 126.5,-1187.5"/>
<text text-anchor="start" x="134.5" y="-1210.3" font-family="Times,serif" font-size="14.00">entry:</text>
<text text-anchor="start" x="134.5" y="-1195.3" font-family="Times,serif" font-size="14.00"> a1</text>
</g>
<!-- Node0xfa56b60 -->
<g id="node2" class="node"><title>Node0xfa56b60</title>
<polygon fill="none" stroke="black" points="0,-751.5 0,-1149.5 312,-1149.5 312,-751.5 0,-751.5"/>
<text text-anchor="start" x="8" y="-1134.3" font-family="Times,serif" font-size="14.00">v1</text>
<text text-anchor="start" x="8" y="-1119.3" font-family="Times,serif" font-size="14.00"> v2</text>
<text text-anchor="start" x="8" y="-1104.3" font-family="Times,serif" font-size="14.00"> v3</text>
<text text-anchor="start" x="8" y="-1089.3" font-family="Times,serif" font-size="14.00"> v4</text>
<text text-anchor="start" x="8" y="-1074.3" font-family="Times,serif" font-size="14.00"> v5</text>
<text text-anchor="start" x="8" y="-1059.3" font-family="Times,serif" font-size="14.00"> v6</text>
<text text-anchor="start" x="8" y="-1044.3" font-family="Times,serif" font-size="14.00"> v7</text>
<text text-anchor="start" x="8" y="-1029.3" font-family="Times,serif" font-size="14.00"> v8</text>
<text text-anchor="start" x="8" y="-1014.3" font-family="Times,serif" font-size="14.00"> v9</text>
<text text-anchor="start" x="8" y="-999.3" font-family="Times,serif" font-size="14.00"> v10</text>
<text text-anchor="start" x="8" y="-984.3" font-family="Times,serif" font-size="14.00"> v11</text>
<text text-anchor="start" x="8" y="-969.3" font-family="Times,serif" font-size="14.00"> v12</text>
<text text-anchor="start" x="8" y="-954.3" font-family="Times,serif" font-size="14.00"> v13</text>
<text text-anchor="start" x="8" y="-939.3" font-family="Times,serif" font-size="14.00"> result</text>
<text text-anchor="start" x="8" y="-924.3" font-family="Times,serif" font-size="14.00"> v14</text>
<text text-anchor="start" x="8" y="-909.3" font-family="Times,serif" font-size="14.00"> v15</text>
<text text-anchor="start" x="8" y="-894.3" font-family="Times,serif" font-size="14.00"> v16</text>
<text text-anchor="start" x="8" y="-879.3" font-family="Times,serif" font-size="14.00"> v17</text>
<text text-anchor="start" x="8" y="-864.3" font-family="Times,serif" font-size="14.00"> v18</text>
<text text-anchor="start" x="8" y="-849.3" font-family="Times,serif" font-size="14.00"> v6 = v7</text>
<text text-anchor="start" x="8" y="-834.3" font-family="Times,serif" font-size="14.00"> v4 = v5</text>
<text text-anchor="start" x="8" y="-819.3" font-family="Times,serif" font-size="14.00"> g10 = PtrToIntCastExpr&lt;int32&gt;(&amp;(v4))</text>
<text text-anchor="start" x="8" y="-804.3" font-family="Times,serif" font-size="14.00"> v11 = g5</text>
<text text-anchor="start" x="8" y="-789.3" font-family="Times,serif" font-size="14.00"> g9 = v11</text>
<text text-anchor="start" x="8" y="-774.3" font-family="Times,serif" font-size="14.00"> result = *(IntToPtrCastExpr&lt;ptr&gt;(v11))</text>
<text text-anchor="start" x="8" y="-759.3" font-family="Times,serif" font-size="14.00"> v1 = IntToPtrCastExpr&lt;ptr&gt;(result)</text>
</g>
<!-- Node0xfa8b5f0&#45;&gt;Node0xfa56b60 -->
<g id="edge1" class="edge"><title>Node0xfa8b5f0&#45;&gt;Node0xfa56b60</title>
<path fill="none" stroke="black" d="M156,-1187.23C156,-1179.83 156,-1170.5 156,-1159.85"/>
<polygon fill="black" stroke="black" points="159.5,-1159.72 156,-1149.72 152.5,-1159.72 159.5,-1159.72"/>
</g>
<!-- Node0xfa54980 -->
<g id="node3" class="node"><title>Node0xfa54980</title>
<polygon fill="none" stroke="black" points="91,-677.5 91,-713.5 221,-713.5 221,-677.5 91,-677.5"/>
<text text-anchor="start" x="99" y="-691.8" font-family="Times,serif" font-size="14.00">if (result == 0):</text>
</g>
<!-- Node0xfa56b60&#45;&gt;Node0xfa54980 -->
<g id="edge2" class="edge"><title>Node0xfa56b60&#45;&gt;Node0xfa54980</title>
<path fill="none" stroke="black" d="M156,-751.397C156,-741.199 156,-731.927 156,-724.026"/>
<polygon fill="black" stroke="black" points="159.5,-723.815 156,-713.815 152.5,-723.815 159.5,-723.815"/>
</g>
<!-- Node0xfa8b550 -->
<g id="node4" class="node"><title>Node0xfa8b550</title>
<polygon fill="none" stroke="black" points="23.5,-485.5 23.5,-538.5 136.5,-538.5 136.5,-485.5 23.5,-485.5"/>
<text text-anchor="start" x="31.5" y="-523.3" font-family="Times,serif" font-size="14.00">v15 = v5</text>
<text text-anchor="start" x="31.5" y="-508.3" font-family="Times,serif" font-size="14.00"> g9 = v15</text>
<text text-anchor="start" x="31.5" y="-493.3" font-family="Times,serif" font-size="14.00"> return result</text>
</g>
<!-- Node0xfa54980&#45;&gt;Node0xfa8b550 -->
<g id="edge3" class="edge"><title>Node0xfa54980&#45;&gt;Node0xfa8b550</title>
<path fill="none" stroke="black" d="M128.253,-677.314C121.547,-672.105 114.907,-665.908 110,-659 86.9773,-626.59 80.7831,-580.498 79.5106,-548.818"/>
<polygon fill="black" stroke="black" points="83.0056,-548.575 79.2506,-538.668 76.0079,-548.754 83.0056,-548.575"/>
<text text-anchor="middle" x="152.5" y="-647.8" font-family="Times,serif" font-size="14.00">result == 0</text>
</g>
<!-- Node0xfa835d0 -->
<g id="node5" class="node"><title>Node0xfa835d0</title>
<polygon fill="none" stroke="black" points="108.5,-557.5 108.5,-625.5 445.5,-625.5 445.5,-557.5 108.5,-557.5"/>
<text text-anchor="start" x="116.5" y="-610.3" font-family="Times,serif" font-size="14.00">0x422bf7:</text>
<text text-anchor="start" x="116.5" y="-595.3" font-family="Times,serif" font-size="14.00"> v17 = *(IntToPtrCastExpr&lt;ptr&gt;((v11 + 4)))</text>
<text text-anchor="start" x="116.5" y="-580.3" font-family="Times,serif" font-size="14.00"> g1 = False</text>
<text text-anchor="start" x="116.5" y="-565.3" font-family="Times,serif" font-size="14.00"> g207 = (v17 == 0)</text>
</g>
<!-- Node0xfa54980&#45;&gt;Node0xfa835d0 -->
<g id="edge4" class="edge"><title>Node0xfa54980&#45;&gt;Node0xfa835d0</title>
<path fill="none" stroke="black" d="M176.253,-677.427C190.852,-665.121 211.173,-647.99 229.744,-632.336"/>
<polygon fill="black" stroke="black" points="232.184,-634.857 237.574,-625.735 227.672,-629.505 232.184,-634.857"/>
<text text-anchor="middle" x="252.5" y="-647.8" font-family="Times,serif" font-size="14.00">result != 0</text>
</g>
<!-- Node0xfa56760 -->
<g id="node6" class="node"><title>Node0xfa56760</title>
<polygon fill="none" stroke="black" points="108,-23.5 108,-59.5 162,-59.5 162,-23.5 108,-23.5"/>
<text text-anchor="start" x="116" y="-37.8" font-family="Times,serif" font-size="14.00">exit:</text>
</g>
<!-- Node0xfa8b550&#45;&gt;Node0xfa56760 -->
<g id="edge5" class="edge"><title>Node0xfa8b550&#45;&gt;Node0xfa56760</title>
<path fill="none" stroke="black" d="M80,-485.37C80,-463.59 80,-431.495 80,-403.5 80,-403.5 80,-403.5 80,-145.5 80,-116.233 97.4931,-87.2171 112.748,-67.4779"/>
<polygon fill="black" stroke="black" points="115.538,-69.5937 119.092,-59.6125 110.09,-65.1993 115.538,-69.5937"/>
</g>
<!-- Node0xfa571b0 -->
<g id="node7" class="node"><title>Node0xfa571b0</title>
<polygon fill="none" stroke="black" points="223,-428.5 223,-466.5 331,-466.5 331,-428.5 223,-428.5"/>
<text text-anchor="start" x="231" y="-451.3" font-family="Times,serif" font-size="14.00">if (v17 != 0):</text>
<text text-anchor="start" x="231" y="-436.3" font-family="Times,serif" font-size="14.00"> else:</text>
</g>
<!-- Node0xfa835d0&#45;&gt;Node0xfa571b0 -->
<g id="edge6" class="edge"><title>Node0xfa835d0&#45;&gt;Node0xfa571b0</title>
<path fill="none" stroke="black" d="M277,-557.207C277,-532.863 277,-500.188 277,-477.036"/>
<polygon fill="black" stroke="black" points="280.5,-476.823 277,-466.823 273.5,-476.823 280.5,-476.823"/>
</g>
<!-- Node0xfa80ba0 -->
<g id="node8" class="node"><title>Node0xfa80ba0</title>
<polygon fill="none" stroke="black" points="108.5,-233.5 108.5,-376.5 445.5,-376.5 445.5,-233.5 108.5,-233.5"/>
<text text-anchor="start" x="116.5" y="-361.3" font-family="Times,serif" font-size="14.00">0x422bfd:</text>
<text text-anchor="start" x="116.5" y="-346.3" font-family="Times,serif" font-size="14.00"> v14 = *(&amp;(v1[&#39;0&#39;]))</text>
<text text-anchor="start" x="116.5" y="-331.3" font-family="Times,serif" font-size="14.00"> g5 = v14</text>
<text text-anchor="start" x="116.5" y="-316.3" font-family="Times,serif" font-size="14.00"> v6 = v1</text>
<text text-anchor="start" x="116.5" y="-301.3" font-family="Times,serif" font-size="14.00"> g10 = PtrToIntCastExpr&lt;int32&gt;(&amp;(v6))</text>
<text text-anchor="start" x="116.5" y="-286.3" font-family="Times,serif" font-size="14.00"> v18 = *(IntToPtrCastExpr&lt;ptr&gt;((v14 + 8)))</text>
<text text-anchor="start" x="116.5" y="-271.3" font-family="Times,serif" font-size="14.00"> IntToPtrCastExpr&lt;ptr&gt;(v18)(result)</text>
<text text-anchor="start" x="116.5" y="-256.3" font-family="Times,serif" font-size="14.00"> v13 = g9</text>
<text text-anchor="start" x="116.5" y="-241.3" font-family="Times,serif" font-size="14.00"> v12 = v13</text>
</g>
<!-- Node0xfa571b0&#45;&gt;Node0xfa80ba0 -->
<g id="edge7" class="edge"><title>Node0xfa571b0&#45;&gt;Node0xfa80ba0</title>
<path fill="none" stroke="black" d="M277,-428.42C277,-417.415 277,-402.498 277,-386.863"/>
<polygon fill="black" stroke="black" points="280.5,-386.519 277,-376.519 273.5,-386.519 280.5,-386.519"/>
<text text-anchor="middle" x="308.5" y="-398.8" font-family="Times,serif" font-size="14.00">v17 != 0</text>
</g>
<!-- Node0xfa80c00 -->
<g id="node9" class="node"><title>Node0xfa80c00</title>
<polygon fill="none" stroke="black" points="464,-287 464,-323 554,-323 554,-287 464,-287"/>
<text text-anchor="start" x="472" y="-301.3" font-family="Times,serif" font-size="14.00">v12 = v11</text>
</g>
<!-- Node0xfa571b0&#45;&gt;Node0xfa80c00 -->
<g id="edge8" class="edge"><title>Node0xfa571b0&#45;&gt;Node0xfa80c00</title>
<path fill="none" stroke="black" d="M331.086,-433.739C368.521,-423.008 418.058,-404.875 455,-377 471.073,-364.872 484.748,-346.75 494.316,-331.85"/>
<polygon fill="black" stroke="black" points="497.459,-333.421 499.726,-323.072 491.5,-329.748 497.459,-333.421"/>
<text text-anchor="middle" x="458.5" y="-398.8" font-family="Times,serif" font-size="14.00">v17 == 0</text>
</g>
<!-- Node0xfa57750 -->
<g id="node10" class="node"><title>Node0xfa57750</title>
<polygon fill="none" stroke="black" points="137.5,-97.5 137.5,-195.5 416.5,-195.5 416.5,-97.5 137.5,-97.5"/>
<text text-anchor="start" x="145.5" y="-180.3" font-family="Times,serif" font-size="14.00">0x422c03:</text>
<text text-anchor="start" x="145.5" y="-165.3" font-family="Times,serif" font-size="14.00"> *(IntToPtrCastExpr&lt;ptr&gt;(v12)) = 0</text>
<text text-anchor="start" x="145.5" y="-150.3" font-family="Times,serif" font-size="14.00"> v16 = v4</text>
<text text-anchor="start" x="145.5" y="-135.3" font-family="Times,serif" font-size="14.00"> v15 = v16</text>
<text text-anchor="start" x="145.5" y="-120.3" font-family="Times,serif" font-size="14.00"> g9 = v15</text>
<text text-anchor="start" x="145.5" y="-105.3" font-family="Times,serif" font-size="14.00"> return result</text>
</g>
<!-- Node0xfa80ba0&#45;&gt;Node0xfa57750 -->
<g id="edge9" class="edge"><title>Node0xfa80ba0&#45;&gt;Node0xfa57750</title>
<path fill="none" stroke="black" d="M277,-233.076C277,-224.008 277,-214.808 277,-205.968"/>
<polygon fill="black" stroke="black" points="280.5,-205.786 277,-195.786 273.5,-205.786 280.5,-205.786"/>
</g>
<!-- Node0xfa80c00&#45;&gt;Node0xfa57750 -->
<g id="edge10" class="edge"><title>Node0xfa80c00&#45;&gt;Node0xfa57750</title>
<path fill="none" stroke="black" d="M499.288,-286.952C489.678,-271.294 473.722,-248.269 455,-233 440.295,-221.006 423.627,-210.202 406.533,-200.633"/>
<polygon fill="black" stroke="black" points="408.018,-197.457 397.563,-195.743 404.667,-203.603 408.018,-197.457"/>
</g>
<!-- Node0xfa57750&#45;&gt;Node0xfa56760 -->
<g id="edge11" class="edge"><title>Node0xfa57750&#45;&gt;Node0xfa56760</title>
<path fill="none" stroke="black" d="M210.573,-97.3173C195.297,-86.2364 179.737,-74.9498 166.738,-65.521"/>
<polygon fill="black" stroke="black" points="168.744,-62.6524 158.594,-59.614 164.634,-68.3188 168.744,-62.6524"/>
</g>
</g>
</svg>
