<?xml version="1.0" encoding="UTF-8" standalone="no"?>
<!DOCTYPE svg PUBLIC "-//W3C//DTD SVG 1.1//EN"
 "http://www.w3.org/Graphics/SVG/1.1/DTD/svg11.dtd">
<!-- Generated by graphviz version 2.38.0 (20140413.2041)
 -->
<!-- Title: Control&#45;flow graph for function &#39;function_412eb2(*lpchText, cchText, *lprc, *format, a5)&#39;. Pages: 1 -->
<svg width="822pt" height="623pt"
 viewBox="0.00 0.00 822.00 623.00" xmlns="http://www.w3.org/2000/svg" xmlns:xlink="http://www.w3.org/1999/xlink">
<g id="graph0" class="graph" transform="scale(1 1) rotate(0) translate(4 619)">
<title>Control&#45;flow graph for function &#39;function_412eb2(*lpchText, cchText, *lprc, *format, a5)&#39;.</title>
<polygon fill="white" stroke="none" points="-4,4 -4,-619 818,-619 818,4 -4,4"/>
<text text-anchor="middle" x="407" y="-7.8" font-family="Times,serif" font-size="14.00">Control&#45;flow graph for function &#39;function_412eb2(*lpchText, cchText, *lprc, *format, a5)&#39;.</text>
<!-- Node0xf306d80 -->
<g id="node1" class="node"><title>Node0xf306d80</title>
<polygon fill="none" stroke="black" points="365.5,-516.5 365.5,-614.5 448.5,-614.5 448.5,-516.5 365.5,-516.5"/>
<text text-anchor="start" x="373.5" y="-599.3" font-family="Times,serif" font-size="14.00">entry:</text>
<text text-anchor="start" x="373.5" y="-584.3" font-family="Times,serif" font-size="14.00"> lpchText</text>
<text text-anchor="start" x="373.5" y="-569.3" font-family="Times,serif" font-size="14.00"> cchText</text>
<text text-anchor="start" x="373.5" y="-554.3" font-family="Times,serif" font-size="14.00"> lprc</text>
<text text-anchor="start" x="373.5" y="-539.3" font-family="Times,serif" font-size="14.00"> format</text>
<text text-anchor="start" x="373.5" y="-524.3" font-family="Times,serif" font-size="14.00"> a5</text>
</g>
<!-- Node0xf308bd0 -->
<g id="node2" class="node"><title>Node0xf308bd0</title>
<polygon fill="none" stroke="black" points="0,-96.5 0,-479.5 814,-479.5 814,-96.5 0,-96.5"/>
<text text-anchor="start" x="8" y="-464.3" font-family="Times,serif" font-size="14.00">result</text>
<text text-anchor="start" x="8" y="-449.3" font-family="Times,serif" font-size="14.00"> v1</text>
<text text-anchor="start" x="8" y="-434.3" font-family="Times,serif" font-size="14.00"> v2</text>
<text text-anchor="start" x="8" y="-419.3" font-family="Times,serif" font-size="14.00"> v3</text>
<text text-anchor="start" x="8" y="-404.3" font-family="Times,serif" font-size="14.00"> v4</text>
<text text-anchor="start" x="8" y="-389.3" font-family="Times,serif" font-size="14.00"> v5</text>
<text text-anchor="start" x="8" y="-374.3" font-family="Times,serif" font-size="14.00"> v6</text>
<text text-anchor="start" x="8" y="-359.3" font-family="Times,serif" font-size="14.00"> v7</text>
<text text-anchor="start" x="8" y="-344.3" font-family="Times,serif" font-size="14.00"> v8</text>
<text text-anchor="start" x="8" y="-329.3" font-family="Times,serif" font-size="14.00"> v9</text>
<text text-anchor="start" x="8" y="-314.3" font-family="Times,serif" font-size="14.00"> v10</text>
<text text-anchor="start" x="8" y="-299.3" font-family="Times,serif" font-size="14.00"> v11</text>
<text text-anchor="start" x="8" y="-284.3" font-family="Times,serif" font-size="14.00"> v12</text>
<text text-anchor="start" x="8" y="-269.3" font-family="Times,serif" font-size="14.00"> v13</text>
<text text-anchor="start" x="8" y="-254.3" font-family="Times,serif" font-size="14.00"> v14</text>
<text text-anchor="start" x="8" y="-239.3" font-family="Times,serif" font-size="14.00"> v15</text>
<text text-anchor="start" x="8" y="-224.3" font-family="Times,serif" font-size="14.00"> hdc</text>
<text text-anchor="start" x="8" y="-209.3" font-family="Times,serif" font-size="14.00"> v6 = v7</text>
<text text-anchor="start" x="8" y="-194.3" font-family="Times,serif" font-size="14.00"> v9 = v10</text>
<text text-anchor="start" x="8" y="-179.3" font-family="Times,serif" font-size="14.00"> v9 = lprc</text>
<text text-anchor="start" x="8" y="-164.3" font-family="Times,serif" font-size="14.00"> v6 = lprc</text>
<text text-anchor="start" x="8" y="-149.3" font-family="Times,serif" font-size="14.00"> v15 = g5</text>
<text text-anchor="start" x="8" y="-134.3" font-family="Times,serif" font-size="14.00"> hdc = *(IntToPtrCastExpr&lt;ptr&gt;((v15 + 4)))</text>
<text text-anchor="start" x="8" y="-119.3" font-family="Times,serif" font-size="14.00"> result = DrawTextA(IntToPtrCastExpr&lt;ptr&gt;(hdc), lpchText, cchText, lprc, PtrToIntCastExpr&lt;int32&gt;(format))</text>
<text text-anchor="start" x="8" y="-104.3" font-family="Times,serif" font-size="14.00"> return result</text>
</g>
<!-- Node0xf306d80&#45;&gt;Node0xf308bd0 -->
<g id="edge1" class="edge"><title>Node0xf306d80&#45;&gt;Node0xf308bd0</title>
<path fill="none" stroke="black" d="M407,-516.196C407,-508.007 407,-499.075 407,-489.641"/>
<polygon fill="black" stroke="black" points="410.5,-489.64 407,-479.64 403.5,-489.64 410.5,-489.64"/>
</g>
<!-- Node0xf308b50 -->
<g id="node3" class="node"><title>Node0xf308b50</title>
<polygon fill="none" stroke="black" points="380,-23.5 380,-59.5 434,-59.5 434,-23.5 380,-23.5"/>
<text text-anchor="start" x="388" y="-37.8" font-family="Times,serif" font-size="14.00">exit:</text>
</g>
<!-- Node0xf308bd0&#45;&gt;Node0xf308b50 -->
<g id="edge2" class="edge"><title>Node0xf308bd0&#45;&gt;Node0xf308b50</title>
<path fill="none" stroke="black" d="M407,-96.4592C407,-86.453 407,-77.3455 407,-69.5798"/>
<polygon fill="black" stroke="black" points="410.5,-69.541 407,-59.541 403.5,-69.5411 410.5,-69.541"/>
</g>
</g>
</svg>
