<?xml version="1.0" encoding="UTF-8" standalone="no"?>
<!DOCTYPE svg PUBLIC "-//W3C//DTD SVG 1.1//EN"
 "http://www.w3.org/Graphics/SVG/1.1/DTD/svg11.dtd">
<!-- Generated by graphviz version 2.38.0 (20140413.2041)
 -->
<!-- Title: Control&#45;flow graph for function &#39;function_417897()&#39;. Pages: 1 -->
<svg width="395pt" height="381pt"
 viewBox="0.00 0.00 395.00 381.00" xmlns="http://www.w3.org/2000/svg" xmlns:xlink="http://www.w3.org/1999/xlink">
<g id="graph0" class="graph" transform="scale(1 1) rotate(0) translate(4 377)">
<title>Control&#45;flow graph for function &#39;function_417897()&#39;.</title>
<polygon fill="white" stroke="none" points="-4,4 -4,-377 391,-377 391,4 -4,4"/>
<text text-anchor="middle" x="193.5" y="-7.8" font-family="Times,serif" font-size="14.00">Control&#45;flow graph for function &#39;function_417897()&#39;.</text>
<!-- Node0xf4cbaa0 -->
<g id="node1" class="node"><title>Node0xf4cbaa0</title>
<polygon fill="none" stroke="black" points="164,-336.5 164,-372.5 223,-372.5 223,-336.5 164,-336.5"/>
<text text-anchor="start" x="172" y="-350.8" font-family="Times,serif" font-size="14.00">entry:</text>
</g>
<!-- Node0xf4cc4d0 -->
<g id="node2" class="node"><title>Node0xf4cc4d0</title>
<polygon fill="none" stroke="black" points="43.5,-96.5 43.5,-299.5 343.5,-299.5 343.5,-96.5 43.5,-96.5"/>
<text text-anchor="start" x="51.5" y="-284.3" font-family="Times,serif" font-size="14.00">v1</text>
<text text-anchor="start" x="51.5" y="-269.3" font-family="Times,serif" font-size="14.00"> v2</text>
<text text-anchor="start" x="51.5" y="-254.3" font-family="Times,serif" font-size="14.00"> v3</text>
<text text-anchor="start" x="51.5" y="-239.3" font-family="Times,serif" font-size="14.00"> v4</text>
<text text-anchor="start" x="51.5" y="-224.3" font-family="Times,serif" font-size="14.00"> v5</text>
<text text-anchor="start" x="51.5" y="-209.3" font-family="Times,serif" font-size="14.00"> v6</text>
<text text-anchor="start" x="51.5" y="-194.3" font-family="Times,serif" font-size="14.00"> v7</text>
<text text-anchor="start" x="51.5" y="-179.3" font-family="Times,serif" font-size="14.00"> v4 = v5</text>
<text text-anchor="start" x="51.5" y="-164.3" font-family="Times,serif" font-size="14.00"> g3 = PtrToIntCastExpr&lt;int32&gt;(&amp;(v4))</text>
<text text-anchor="start" x="51.5" y="-149.3" font-family="Times,serif" font-size="14.00"> g2 = PtrToIntCastExpr&lt;int32&gt;(&amp;(v6))</text>
<text text-anchor="start" x="51.5" y="-134.3" font-family="Times,serif" font-size="14.00"> v6 = 4618560</text>
<text text-anchor="start" x="51.5" y="-119.3" font-family="Times,serif" font-size="14.00"> __CxxThrowException_8()</text>
<text text-anchor="start" x="51.5" y="-104.3" font-family="Times,serif" font-size="14.00"> return</text>
</g>
<!-- Node0xf4cbaa0&#45;&gt;Node0xf4cc4d0 -->
<g id="edge1" class="edge"><title>Node0xf4cbaa0&#45;&gt;Node0xf4cc4d0</title>
<path fill="none" stroke="black" d="M193.5,-336.375C193.5,-329.052 193.5,-319.842 193.5,-309.676"/>
<polygon fill="black" stroke="black" points="197,-309.665 193.5,-299.665 190,-309.665 197,-309.665"/>
</g>
<!-- Node0xf4cc200 -->
<g id="node3" class="node"><title>Node0xf4cc200</title>
<polygon fill="none" stroke="black" points="166.5,-23.5 166.5,-59.5 220.5,-59.5 220.5,-23.5 166.5,-23.5"/>
<text text-anchor="start" x="174.5" y="-37.8" font-family="Times,serif" font-size="14.00">exit:</text>
</g>
<!-- Node0xf4cc4d0&#45;&gt;Node0xf4cc200 -->
<g id="edge2" class="edge"><title>Node0xf4cc4d0&#45;&gt;Node0xf4cc200</title>
<path fill="none" stroke="black" d="M193.5,-96.103C193.5,-86.6073 193.5,-77.6391 193.5,-69.853"/>
<polygon fill="black" stroke="black" points="197,-69.7012 193.5,-59.7012 190,-69.7013 197,-69.7012"/>
</g>
</g>
</svg>
