<?xml version="1.0" encoding="UTF-8" standalone="no"?>
<!DOCTYPE svg PUBLIC "-//W3C//DTD SVG 1.1//EN"
 "http://www.w3.org/Graphics/SVG/1.1/DTD/svg11.dtd">
<!-- Generated by graphviz version 2.38.0 (20140413.2041)
 -->
<!-- Title: Control&#45;flow graph for function &#39;function_41f93d(*a1, *a2, *a3)&#39;. Pages: 1 -->
<svg width="934pt" height="1396pt"
 viewBox="0.00 0.00 933.50 1396.00" xmlns="http://www.w3.org/2000/svg" xmlns:xlink="http://www.w3.org/1999/xlink">
<g id="graph0" class="graph" transform="scale(1 1) rotate(0) translate(4 1392)">
<title>Control&#45;flow graph for function &#39;function_41f93d(*a1, *a2, *a3)&#39;.</title>
<polygon fill="white" stroke="none" points="-4,4 -4,-1392 929.5,-1392 929.5,4 -4,4"/>
<text text-anchor="middle" x="462.75" y="-7.8" font-family="Times,serif" font-size="14.00">Control&#45;flow graph for function &#39;function_41f93d(*a1, *a2, *a3)&#39;.</text>
<!-- Node0xa25fcf0 -->
<g id="node1" class="node"><title>Node0xa25fcf0</title>
<polygon fill="none" stroke="black" points="659,-1319.5 659,-1387.5 718,-1387.5 718,-1319.5 659,-1319.5"/>
<text text-anchor="start" x="667" y="-1372.3" font-family="Times,serif" font-size="14.00">entry:</text>
<text text-anchor="start" x="667" y="-1357.3" font-family="Times,serif" font-size="14.00"> a1</text>
<text text-anchor="start" x="667" y="-1342.3" font-family="Times,serif" font-size="14.00"> a2</text>
<text text-anchor="start" x="667" y="-1327.3" font-family="Times,serif" font-size="14.00"> a3</text>
</g>
<!-- Node0xf80f420 -->
<g id="node2" class="node"><title>Node0xf80f420</title>
<polygon fill="none" stroke="black" points="534,-718.5 534,-1281.5 843,-1281.5 843,-718.5 534,-718.5"/>
<text text-anchor="start" x="542" y="-1266.3" font-family="Times,serif" font-size="14.00">v1</text>
<text text-anchor="start" x="542" y="-1251.3" font-family="Times,serif" font-size="14.00"> v2</text>
<text text-anchor="start" x="542" y="-1236.3" font-family="Times,serif" font-size="14.00"> v3</text>
<text text-anchor="start" x="542" y="-1221.3" font-family="Times,serif" font-size="14.00"> v4</text>
<text text-anchor="start" x="542" y="-1206.3" font-family="Times,serif" font-size="14.00"> v5</text>
<text text-anchor="start" x="542" y="-1191.3" font-family="Times,serif" font-size="14.00"> v6</text>
<text text-anchor="start" x="542" y="-1176.3" font-family="Times,serif" font-size="14.00"> v7</text>
<text text-anchor="start" x="542" y="-1161.3" font-family="Times,serif" font-size="14.00"> v8</text>
<text text-anchor="start" x="542" y="-1146.3" font-family="Times,serif" font-size="14.00"> v9</text>
<text text-anchor="start" x="542" y="-1131.3" font-family="Times,serif" font-size="14.00"> v10</text>
<text text-anchor="start" x="542" y="-1116.3" font-family="Times,serif" font-size="14.00"> v11</text>
<text text-anchor="start" x="542" y="-1101.3" font-family="Times,serif" font-size="14.00"> v12</text>
<text text-anchor="start" x="542" y="-1086.3" font-family="Times,serif" font-size="14.00"> v13</text>
<text text-anchor="start" x="542" y="-1071.3" font-family="Times,serif" font-size="14.00"> v14</text>
<text text-anchor="start" x="542" y="-1056.3" font-family="Times,serif" font-size="14.00"> v15</text>
<text text-anchor="start" x="542" y="-1041.3" font-family="Times,serif" font-size="14.00"> v16</text>
<text text-anchor="start" x="542" y="-1026.3" font-family="Times,serif" font-size="14.00"> v17</text>
<text text-anchor="start" x="542" y="-1011.3" font-family="Times,serif" font-size="14.00"> v18</text>
<text text-anchor="start" x="542" y="-996.3" font-family="Times,serif" font-size="14.00"> v19</text>
<text text-anchor="start" x="542" y="-981.3" font-family="Times,serif" font-size="14.00"> v20</text>
<text text-anchor="start" x="542" y="-966.3" font-family="Times,serif" font-size="14.00"> result</text>
<text text-anchor="start" x="542" y="-951.3" font-family="Times,serif" font-size="14.00"> v21</text>
<text text-anchor="start" x="542" y="-936.3" font-family="Times,serif" font-size="14.00"> v22</text>
<text text-anchor="start" x="542" y="-921.3" font-family="Times,serif" font-size="14.00"> v23</text>
<text text-anchor="start" x="542" y="-906.3" font-family="Times,serif" font-size="14.00"> v24</text>
<text text-anchor="start" x="542" y="-891.3" font-family="Times,serif" font-size="14.00"> v25</text>
<text text-anchor="start" x="542" y="-876.3" font-family="Times,serif" font-size="14.00"> v26</text>
<text text-anchor="start" x="542" y="-861.3" font-family="Times,serif" font-size="14.00"> v6 = v7</text>
<text text-anchor="start" x="542" y="-846.3" font-family="Times,serif" font-size="14.00"> v11 = v12</text>
<text text-anchor="start" x="542" y="-831.3" font-family="Times,serif" font-size="14.00"> v13 = v14</text>
<text text-anchor="start" x="542" y="-816.3" font-family="Times,serif" font-size="14.00"> v15 = v17</text>
<text text-anchor="start" x="542" y="-801.3" font-family="Times,serif" font-size="14.00"> v18 = a1</text>
<text text-anchor="start" x="542" y="-786.3" font-family="Times,serif" font-size="14.00"> v21 = g9</text>
<text text-anchor="start" x="542" y="-771.3" font-family="Times,serif" font-size="14.00"> v9 = v21</text>
<text text-anchor="start" x="542" y="-756.3" font-family="Times,serif" font-size="14.00"> g10 = PtrToIntCastExpr&lt;int32&gt;(&amp;(v9))</text>
<text text-anchor="start" x="542" y="-741.3" font-family="Times,serif" font-size="14.00"> v22 = g5</text>
<text text-anchor="start" x="542" y="-726.3" font-family="Times,serif" font-size="14.00"> g9 = v22</text>
</g>
<!-- Node0xa25fcf0&#45;&gt;Node0xf80f420 -->
<g id="edge1" class="edge"><title>Node0xa25fcf0&#45;&gt;Node0xf80f420</title>
<path fill="none" stroke="black" d="M688.5,-1319.43C688.5,-1311.34 688.5,-1302.02 688.5,-1291.76"/>
<polygon fill="black" stroke="black" points="692,-1291.66 688.5,-1281.66 685,-1291.66 692,-1291.66"/>
</g>
<!-- Node0xf80f3a0 -->
<g id="node3" class="node"><title>Node0xf80f3a0</title>
<polygon fill="none" stroke="black" points="621.5,-644.5 621.5,-680.5 755.5,-680.5 755.5,-644.5 621.5,-644.5"/>
<text text-anchor="start" x="629.5" y="-658.8" font-family="Times,serif" font-size="14.00">if (a2 != NULL):</text>
</g>
<!-- Node0xf80f420&#45;&gt;Node0xf80f3a0 -->
<g id="edge2" class="edge"><title>Node0xf80f420&#45;&gt;Node0xf80f3a0</title>
<path fill="none" stroke="black" d="M688.5,-718.151C688.5,-707.91 688.5,-698.722 688.5,-690.932"/>
<polygon fill="black" stroke="black" points="692,-690.886 688.5,-680.886 685,-690.886 692,-690.886"/>
</g>
<!-- Node0xf7e6800 -->
<g id="node4" class="node"><title>Node0xf7e6800</title>
<polygon fill="none" stroke="black" points="361,-524.5 361,-592.5 744,-592.5 744,-524.5 361,-524.5"/>
<text text-anchor="start" x="369" y="-577.3" font-family="Times,serif" font-size="14.00">0x41f947:</text>
<text text-anchor="start" x="369" y="-562.3" font-family="Times,serif" font-size="14.00"> g2 = PtrToIntCastExpr&lt;int32&gt;(&amp;(v18))</text>
<text text-anchor="start" x="369" y="-547.3" font-family="Times,serif" font-size="14.00"> g10 = PtrToIntCastExpr&lt;int32&gt;(&amp;(v11))</text>
<text text-anchor="start" x="369" y="-532.3" font-family="Times,serif" font-size="14.00"> v3 = function_41c9e9(BitCastExpr&lt;ptr&gt;(&amp;(v18)))</text>
</g>
<!-- Node0xf80f3a0&#45;&gt;Node0xf7e6800 -->
<g id="edge3" class="edge"><title>Node0xf80f3a0&#45;&gt;Node0xf7e6800</title>
<path fill="none" stroke="black" d="M665.737,-644.427C649.115,-631.961 625.892,-614.544 604.802,-598.726"/>
<polygon fill="black" stroke="black" points="606.636,-595.727 596.536,-592.527 602.436,-601.327 606.636,-595.727"/>
<text text-anchor="middle" x="685.5" y="-614.8" font-family="Times,serif" font-size="14.00">a2 != NULL</text>
</g>
<!-- Node0xf8072f0 -->
<g id="node5" class="node"><title>Node0xf8072f0</title>
<polygon fill="none" stroke="black" points="617.5,-407.5 617.5,-505.5 925.5,-505.5 925.5,-407.5 617.5,-407.5"/>
<text text-anchor="start" x="625.5" y="-490.3" font-family="Times,serif" font-size="14.00">0x41f968:</text>
<text text-anchor="start" x="625.5" y="-475.3" font-family="Times,serif" font-size="14.00"> v2 = PtrToIntCastExpr&lt;int32&gt;(&amp;(v13))</text>
<text text-anchor="start" x="625.5" y="-460.3" font-family="Times,serif" font-size="14.00"> result = v2</text>
<text text-anchor="start" x="625.5" y="-445.3" font-family="Times,serif" font-size="14.00"> v24 = v6</text>
<text text-anchor="start" x="625.5" y="-430.3" font-family="Times,serif" font-size="14.00"> g9 = PtrToIntCastExpr&lt;int32&gt;(v24)</text>
<text text-anchor="start" x="625.5" y="-415.3" font-family="Times,serif" font-size="14.00"> return result</text>
</g>
<!-- Node0xf80f3a0&#45;&gt;Node0xf8072f0 -->
<g id="edge4" class="edge"><title>Node0xf80f3a0&#45;&gt;Node0xf8072f0</title>
<path fill="none" stroke="black" d="M713.806,-644.261C720.668,-638.891 727.775,-632.626 733.5,-626 744.565,-613.195 747.002,-609.006 752.5,-593 760.94,-568.428 765.637,-540.118 768.247,-515.75"/>
<polygon fill="black" stroke="black" points="771.753,-515.864 769.244,-505.571 764.786,-515.182 771.753,-515.864"/>
<text text-anchor="middle" x="791.5" y="-614.8" font-family="Times,serif" font-size="14.00">a2 == NULL</text>
</g>
<!-- Node0xf7bdf90 -->
<g id="node6" class="node"><title>Node0xf7bdf90</title>
<polygon fill="none" stroke="black" points="503,-352.5 503,-388.5 602,-388.5 602,-352.5 503,-352.5"/>
<text text-anchor="start" x="511" y="-366.8" font-family="Times,serif" font-size="14.00">if (v3 != 0):</text>
</g>
<!-- Node0xf7e6800&#45;&gt;Node0xf7bdf90 -->
<g id="edge5" class="edge"><title>Node0xf7e6800&#45;&gt;Node0xf7bdf90</title>
<path fill="none" stroke="black" d="M552.5,-524.247C552.5,-488.573 552.5,-432.558 552.5,-399.191"/>
<polygon fill="black" stroke="black" points="556,-398.805 552.5,-388.805 549,-398.805 556,-398.805"/>
</g>
<!-- Node0xf7d4390 -->
<g id="node7" class="node"><title>Node0xf7d4390</title>
<polygon fill="none" stroke="black" points="562.5,-23.5 562.5,-59.5 616.5,-59.5 616.5,-23.5 562.5,-23.5"/>
<text text-anchor="start" x="570.5" y="-37.8" font-family="Times,serif" font-size="14.00">exit:</text>
</g>
<!-- Node0xf8072f0&#45;&gt;Node0xf7d4390 -->
<g id="edge6" class="edge"><title>Node0xf8072f0&#45;&gt;Node0xf7d4390</title>
<path fill="none" stroke="black" d="M784.457,-407.425C801.494,-332.746 821.764,-188.011 752.5,-97 723.099,-58.3674 665.228,-46.8269 626.953,-43.5463"/>
<polygon fill="black" stroke="black" points="626.938,-40.0367 616.717,-42.8244 626.446,-47.0194 626.938,-40.0367"/>
</g>
<!-- Node0xf7d9c00 -->
<g id="node8" class="node"><title>Node0xf7d9c00</title>
<polygon fill="none" stroke="black" points="0,-97.5 0,-300.5 417,-300.5 417,-97.5 0,-97.5"/>
<text text-anchor="start" x="8" y="-285.3" font-family="Times,serif" font-size="14.00">0x41f955:</text>
<text text-anchor="start" x="8" y="-270.3" font-family="Times,serif" font-size="14.00"> v25 = v18</text>
<text text-anchor="start" x="8" y="-255.3" font-family="Times,serif" font-size="14.00"> v23 = g9</text>
<text text-anchor="start" x="8" y="-240.3" font-family="Times,serif" font-size="14.00"> g5 = v23</text>
<text text-anchor="start" x="8" y="-225.3" font-family="Times,serif" font-size="14.00"> v26 = v13</text>
<text text-anchor="start" x="8" y="-210.3" font-family="Times,serif" font-size="14.00"> v6 = v26</text>
<text text-anchor="start" x="8" y="-195.3" font-family="Times,serif" font-size="14.00"> g10 = PtrToIntCastExpr&lt;int32&gt;(&amp;(v6))</text>
<text text-anchor="start" x="8" y="-180.3" font-family="Times,serif" font-size="14.00"> function_41dd51(v26, v25, BitCastExpr&lt;ptr&gt;(&amp;(v18)))</text>
<text text-anchor="start" x="8" y="-165.3" font-family="Times,serif" font-size="14.00"> v1 = PtrToIntCastExpr&lt;int32&gt;(&amp;(v15))</text>
<text text-anchor="start" x="8" y="-150.3" font-family="Times,serif" font-size="14.00"> result = v1</text>
<text text-anchor="start" x="8" y="-135.3" font-family="Times,serif" font-size="14.00"> v24 = v6</text>
<text text-anchor="start" x="8" y="-120.3" font-family="Times,serif" font-size="14.00"> g9 = PtrToIntCastExpr&lt;int32&gt;(v24)</text>
<text text-anchor="start" x="8" y="-105.3" font-family="Times,serif" font-size="14.00"> return result</text>
</g>
<!-- Node0xf7bdf90&#45;&gt;Node0xf7d9c00 -->
<g id="edge7" class="edge"><title>Node0xf7bdf90&#45;&gt;Node0xf7d9c00</title>
<path fill="none" stroke="black" d="M517.941,-352.472C493.729,-340.542 459.119,-323.488 421.749,-305.074"/>
<polygon fill="black" stroke="black" points="423.229,-301.902 412.711,-300.622 420.135,-308.181 423.229,-301.902"/>
<text text-anchor="middle" x="505.5" y="-322.8" font-family="Times,serif" font-size="14.00">v3 != 0</text>
</g>
<!-- Node0xf7cda00 -->
<g id="node9" class="node"><title>Node0xf7cda00</title>
<polygon fill="none" stroke="black" points="435.5,-150 435.5,-248 743.5,-248 743.5,-150 435.5,-150"/>
<text text-anchor="start" x="443.5" y="-232.8" font-family="Times,serif" font-size="14.00">0x41f968:</text>
<text text-anchor="start" x="443.5" y="-217.8" font-family="Times,serif" font-size="14.00"> v2 = PtrToIntCastExpr&lt;int32&gt;(&amp;(v13))</text>
<text text-anchor="start" x="443.5" y="-202.8" font-family="Times,serif" font-size="14.00"> result = v2</text>
<text text-anchor="start" x="443.5" y="-187.8" font-family="Times,serif" font-size="14.00"> v24 = v6</text>
<text text-anchor="start" x="443.5" y="-172.8" font-family="Times,serif" font-size="14.00"> g9 = PtrToIntCastExpr&lt;int32&gt;(v24)</text>
<text text-anchor="start" x="443.5" y="-157.8" font-family="Times,serif" font-size="14.00"> return result</text>
</g>
<!-- Node0xf7bdf90&#45;&gt;Node0xf7cda00 -->
<g id="edge8" class="edge"><title>Node0xf7bdf90&#45;&gt;Node0xf7cda00</title>
<path fill="none" stroke="black" d="M556.251,-352.315C561.046,-330.348 569.593,-291.196 576.82,-258.089"/>
<polygon fill="black" stroke="black" points="580.302,-258.55 579.015,-248.034 573.463,-257.057 580.302,-258.55"/>
<text text-anchor="middle" x="593.5" y="-322.8" font-family="Times,serif" font-size="14.00">v3 == 0</text>
</g>
<!-- Node0xf7d9c00&#45;&gt;Node0xf7d4390 -->
<g id="edge9" class="edge"><title>Node0xf7d9c00&#45;&gt;Node0xf7d4390</title>
<path fill="none" stroke="black" d="M417.144,-100.759C420.279,-99.4863 423.399,-98.2324 426.5,-97 469.095,-80.0728 519.26,-63.8371 552.574,-53.5576"/>
<polygon fill="black" stroke="black" points="553.809,-56.8399 562.345,-50.5644 551.759,-50.1469 553.809,-56.8399"/>
</g>
<!-- Node0xf7cda00&#45;&gt;Node0xf7d4390 -->
<g id="edge10" class="edge"><title>Node0xf7cda00&#45;&gt;Node0xf7d4390</title>
<path fill="none" stroke="black" d="M589.5,-149.651C589.5,-123.415 589.5,-91.9396 589.5,-69.9154"/>
<polygon fill="black" stroke="black" points="593,-69.6326 589.5,-59.6326 586,-69.6327 593,-69.6326"/>
</g>
</g>
</svg>
