<?xml version="1.0" encoding="UTF-8" standalone="no"?>
<!DOCTYPE svg PUBLIC "-//W3C//DTD SVG 1.1//EN"
 "http://www.w3.org/Graphics/SVG/1.1/DTD/svg11.dtd">
<!-- Generated by graphviz version 2.38.0 (20140413.2041)
 -->
<!-- Title: Control&#45;flow graph for function &#39;function_411aa0(*lpName)&#39;. Pages: 1 -->
<svg width="1276pt" height="2533pt"
 viewBox="0.00 0.00 1276.00 2533.00" xmlns="http://www.w3.org/2000/svg" xmlns:xlink="http://www.w3.org/1999/xlink">
<g id="graph0" class="graph" transform="scale(1 1) rotate(0) translate(4 2529)">
<title>Control&#45;flow graph for function &#39;function_411aa0(*lpName)&#39;.</title>
<polygon fill="white" stroke="none" points="-4,4 -4,-2529 1272,-2529 1272,4 -4,4"/>
<text text-anchor="middle" x="634" y="-7.8" font-family="Times,serif" font-size="14.00">Control&#45;flow graph for function &#39;function_411aa0(*lpName)&#39;.</text>
<!-- Node0xf1aa2e0 -->
<g id="node1" class="node"><title>Node0xf1aa2e0</title>
<polygon fill="none" stroke="black" points="773.5,-2486.5 773.5,-2524.5 850.5,-2524.5 850.5,-2486.5 773.5,-2486.5"/>
<text text-anchor="start" x="781.5" y="-2509.3" font-family="Times,serif" font-size="14.00">entry:</text>
<text text-anchor="start" x="781.5" y="-2494.3" font-family="Times,serif" font-size="14.00"> lpName</text>
</g>
<!-- Node0xf20ef10 -->
<g id="node2" class="node"><title>Node0xf20ef10</title>
<polygon fill="none" stroke="black" points="747.5,-1810.5 747.5,-2448.5 876.5,-2448.5 876.5,-1810.5 747.5,-1810.5"/>
<text text-anchor="start" x="755.5" y="-2433.3" font-family="Times,serif" font-size="14.00">v1</text>
<text text-anchor="start" x="755.5" y="-2418.3" font-family="Times,serif" font-size="14.00"> v2</text>
<text text-anchor="start" x="755.5" y="-2403.3" font-family="Times,serif" font-size="14.00"> hResInfo</text>
<text text-anchor="start" x="755.5" y="-2388.3" font-family="Times,serif" font-size="14.00"> v3</text>
<text text-anchor="start" x="755.5" y="-2373.3" font-family="Times,serif" font-size="14.00"> v4</text>
<text text-anchor="start" x="755.5" y="-2358.3" font-family="Times,serif" font-size="14.00"> v5</text>
<text text-anchor="start" x="755.5" y="-2343.3" font-family="Times,serif" font-size="14.00"> hResData</text>
<text text-anchor="start" x="755.5" y="-2328.3" font-family="Times,serif" font-size="14.00"> v6</text>
<text text-anchor="start" x="755.5" y="-2313.3" font-family="Times,serif" font-size="14.00"> v7</text>
<text text-anchor="start" x="755.5" y="-2298.3" font-family="Times,serif" font-size="14.00"> hResData2</text>
<text text-anchor="start" x="755.5" y="-2283.3" font-family="Times,serif" font-size="14.00"> v8</text>
<text text-anchor="start" x="755.5" y="-2268.3" font-family="Times,serif" font-size="14.00"> v9</text>
<text text-anchor="start" x="755.5" y="-2253.3" font-family="Times,serif" font-size="14.00"> v10</text>
<text text-anchor="start" x="755.5" y="-2238.3" font-family="Times,serif" font-size="14.00"> v11</text>
<text text-anchor="start" x="755.5" y="-2223.3" font-family="Times,serif" font-size="14.00"> v12</text>
<text text-anchor="start" x="755.5" y="-2208.3" font-family="Times,serif" font-size="14.00"> v13</text>
<text text-anchor="start" x="755.5" y="-2193.3" font-family="Times,serif" font-size="14.00"> v14</text>
<text text-anchor="start" x="755.5" y="-2178.3" font-family="Times,serif" font-size="14.00"> v15</text>
<text text-anchor="start" x="755.5" y="-2163.3" font-family="Times,serif" font-size="14.00"> v16</text>
<text text-anchor="start" x="755.5" y="-2148.3" font-family="Times,serif" font-size="14.00"> v17</text>
<text text-anchor="start" x="755.5" y="-2133.3" font-family="Times,serif" font-size="14.00"> v18</text>
<text text-anchor="start" x="755.5" y="-2118.3" font-family="Times,serif" font-size="14.00"> v19</text>
<text text-anchor="start" x="755.5" y="-2103.3" font-family="Times,serif" font-size="14.00"> v20</text>
<text text-anchor="start" x="755.5" y="-2088.3" font-family="Times,serif" font-size="14.00"> v21</text>
<text text-anchor="start" x="755.5" y="-2073.3" font-family="Times,serif" font-size="14.00"> v22</text>
<text text-anchor="start" x="755.5" y="-2058.3" font-family="Times,serif" font-size="14.00"> hModule2</text>
<text text-anchor="start" x="755.5" y="-2043.3" font-family="Times,serif" font-size="14.00"> v23</text>
<text text-anchor="start" x="755.5" y="-2028.3" font-family="Times,serif" font-size="14.00"> v24</text>
<text text-anchor="start" x="755.5" y="-2013.3" font-family="Times,serif" font-size="14.00"> v25</text>
<text text-anchor="start" x="755.5" y="-1998.3" font-family="Times,serif" font-size="14.00"> v26</text>
<text text-anchor="start" x="755.5" y="-1983.3" font-family="Times,serif" font-size="14.00"> v27</text>
<text text-anchor="start" x="755.5" y="-1968.3" font-family="Times,serif" font-size="14.00"> v28</text>
<text text-anchor="start" x="755.5" y="-1953.3" font-family="Times,serif" font-size="14.00"> hModule</text>
<text text-anchor="start" x="755.5" y="-1938.3" font-family="Times,serif" font-size="14.00"> v11 = v12</text>
<text text-anchor="start" x="755.5" y="-1923.3" font-family="Times,serif" font-size="14.00"> v19 = g3</text>
<text text-anchor="start" x="755.5" y="-1908.3" font-family="Times,serif" font-size="14.00"> v20 = g9</text>
<text text-anchor="start" x="755.5" y="-1893.3" font-family="Times,serif" font-size="14.00"> v21 = g7</text>
<text text-anchor="start" x="755.5" y="-1878.3" font-family="Times,serif" font-size="14.00"> v9 = v21</text>
<text text-anchor="start" x="755.5" y="-1863.3" font-family="Times,serif" font-size="14.00"> v22 = g5</text>
<text text-anchor="start" x="755.5" y="-1848.3" font-family="Times,serif" font-size="14.00"> g3 = v22</text>
<text text-anchor="start" x="755.5" y="-1833.3" font-family="Times,serif" font-size="14.00"> hResData2 = 0</text>
<text text-anchor="start" x="755.5" y="-1818.3" font-family="Times,serif" font-size="14.00"> v24 = NULL</text>
</g>
<!-- Node0xf1aa2e0&#45;&gt;Node0xf20ef10 -->
<g id="edge1" class="edge"><title>Node0xf1aa2e0&#45;&gt;Node0xf20ef10</title>
<path fill="none" stroke="black" d="M812,-2486.46C812,-2479.07 812,-2469.66 812,-2458.69"/>
<polygon fill="black" stroke="black" points="815.5,-2458.67 812,-2448.67 808.5,-2458.67 815.5,-2458.67"/>
</g>
<!-- Node0xf2408b0 -->
<g id="node3" class="node"><title>Node0xf2408b0</title>
<polygon fill="none" stroke="black" points="725.5,-1736.5 725.5,-1772.5 898.5,-1772.5 898.5,-1736.5 725.5,-1736.5"/>
<text text-anchor="start" x="733.5" y="-1750.8" font-family="Times,serif" font-size="14.00">if (lpName != NULL):</text>
</g>
<!-- Node0xf20ef10&#45;&gt;Node0xf2408b0 -->
<g id="edge2" class="edge"><title>Node0xf20ef10&#45;&gt;Node0xf2408b0</title>
<path fill="none" stroke="black" d="M812,-1810.14C812,-1799.82 812,-1790.6 812,-1782.81"/>
<polygon fill="black" stroke="black" points="815.5,-1782.78 812,-1772.78 808.5,-1782.78 815.5,-1782.78"/>
</g>
<!-- Node0xf1fd3e0 -->
<g id="node4" class="node"><title>Node0xf1fd3e0</title>
<polygon fill="none" stroke="black" points="165,-1586.5 165,-1684.5 923,-1684.5 923,-1586.5 165,-1586.5"/>
<text text-anchor="start" x="173" y="-1669.3" font-family="Times,serif" font-size="14.00">0x411ab0:</text>
<text text-anchor="start" x="173" y="-1654.3" font-family="Times,serif" font-size="14.00"> v2 = function_419f61()</text>
<text text-anchor="start" x="173" y="-1639.3" font-family="Times,serif" font-size="14.00"> hModule = *(IntToPtrCastExpr&lt;ptr&gt;((v2 + 12)))</text>
<text text-anchor="start" x="173" y="-1624.3" font-family="Times,serif" font-size="14.00"> g9 = hModule</text>
<text text-anchor="start" x="173" y="-1609.3" font-family="Times,serif" font-size="14.00"> v11 = IntToPtrCastExpr&lt;ptr&gt;(240)</text>
<text text-anchor="start" x="173" y="-1594.3" font-family="Times,serif" font-size="14.00"> hResInfo = FindResourceA(IntToPtrCastExpr&lt;ptr&gt;(hModule), lpName, IntToPtrCastExpr&lt;ptr&gt;(240))</text>
</g>
<!-- Node0xf2408b0&#45;&gt;Node0xf1fd3e0 -->
<g id="edge3" class="edge"><title>Node0xf2408b0&#45;&gt;Node0xf1fd3e0</title>
<path fill="none" stroke="black" d="M773.03,-1736.49C744.067,-1723.84 702.901,-1705.87 663.439,-1688.64"/>
<polygon fill="black" stroke="black" points="664.554,-1685.31 653.988,-1684.52 661.753,-1691.73 664.554,-1685.31"/>
<text text-anchor="middle" x="789.5" y="-1706.8" font-family="Times,serif" font-size="14.00">lpName != NULL</text>
</g>
<!-- Node0xf20c9c0 -->
<g id="node5" class="node"><title>Node0xf20c9c0</title>
<polygon fill="none" stroke="black" points="842.5,-1454.5 842.5,-1567.5 1059.5,-1567.5 1059.5,-1454.5 842.5,-1454.5"/>
<text text-anchor="start" x="850.5" y="-1552.3" font-family="Times,serif" font-size="14.00">0x411ae3:</text>
<text text-anchor="start" x="850.5" y="-1537.3" font-family="Times,serif" font-size="14.00"> v11 = v24</text>
<text text-anchor="start" x="850.5" y="-1522.3" font-family="Times,serif" font-size="14.00"> v23 = g3</text>
<text text-anchor="start" x="850.5" y="-1507.3" font-family="Times,serif" font-size="14.00"> g5 = v23</text>
<text text-anchor="start" x="850.5" y="-1492.3" font-family="Times,serif" font-size="14.00"> v4 = function_411657(v24)</text>
<text text-anchor="start" x="850.5" y="-1477.3" font-family="Times,serif" font-size="14.00"> g9 = v4</text>
<text text-anchor="start" x="850.5" y="-1462.3" font-family="Times,serif" font-size="14.00"> v25 = v4</text>
</g>
<!-- Node0xf2408b0&#45;&gt;Node0xf20c9c0 -->
<g id="edge4" class="edge"><title>Node0xf2408b0&#45;&gt;Node0xf20c9c0</title>
<path fill="none" stroke="black" d="M864.246,-1736.42C888.852,-1725.62 916.206,-1709.07 932,-1685 952.432,-1653.86 957.594,-1612.61 957.454,-1578.2"/>
<polygon fill="black" stroke="black" points="960.945,-1577.68 957.251,-1567.75 953.946,-1577.82 960.945,-1577.68"/>
<text text-anchor="middle" x="983.5" y="-1706.8" font-family="Times,serif" font-size="14.00">lpName == NULL</text>
</g>
<!-- Node0x790fed0 -->
<g id="node6" class="node"><title>Node0x790fed0</title>
<polygon fill="none" stroke="black" points="454,-1397.5 454,-1435.5 634,-1435.5 634,-1397.5 454,-1397.5"/>
<text text-anchor="start" x="462" y="-1420.3" font-family="Times,serif" font-size="14.00">if (hResInfo != NULL):</text>
<text text-anchor="start" x="462" y="-1405.3" font-family="Times,serif" font-size="14.00"> else:</text>
</g>
<!-- Node0xf1fd3e0&#45;&gt;Node0x790fed0 -->
<g id="edge5" class="edge"><title>Node0xf1fd3e0&#45;&gt;Node0x790fed0</title>
<path fill="none" stroke="black" d="M544,-1586.34C544,-1543.23 544,-1481.48 544,-1445.83"/>
<polygon fill="black" stroke="black" points="547.5,-1445.66 544,-1435.66 540.5,-1445.66 547.5,-1445.66"/>
</g>
<!-- Node0xf2237b0 -->
<g id="node7" class="node"><title>Node0xf2237b0</title>
<polygon fill="none" stroke="black" points="879.5,-662.5 879.5,-698.5 1022.5,-698.5 1022.5,-662.5 879.5,-662.5"/>
<text text-anchor="start" x="887.5" y="-676.8" font-family="Times,serif" font-size="14.00">if (v24 != NULL):</text>
</g>
<!-- Node0xf20c9c0&#45;&gt;Node0xf2237b0 -->
<g id="edge6" class="edge"><title>Node0xf20c9c0&#45;&gt;Node0xf2237b0</title>
<path fill="none" stroke="black" d="M951,-1454.47C951,-1429.43 951,-1399.47 951,-1372.5 951,-1372.5 951,-1372.5 951,-792 951,-763.644 951,-731.194 951,-708.832"/>
<polygon fill="black" stroke="black" points="954.5,-708.726 951,-698.726 947.5,-708.726 954.5,-708.726"/>
</g>
<!-- Node0xf05d9c0 -->
<g id="node8" class="node"><title>Node0xf05d9c0</title>
<polygon fill="none" stroke="black" points="0,-1277.5 0,-1345.5 552,-1345.5 552,-1277.5 0,-1277.5"/>
<text text-anchor="start" x="8" y="-1330.3" font-family="Times,serif" font-size="14.00">0x411acc:</text>
<text text-anchor="start" x="8" y="-1315.3" font-family="Times,serif" font-size="14.00"> v11 = BitCastExpr&lt;ptr&gt;(hResInfo)</text>
<text text-anchor="start" x="8" y="-1300.3" font-family="Times,serif" font-size="14.00"> hModule2 = g9</text>
<text text-anchor="start" x="8" y="-1285.3" font-family="Times,serif" font-size="14.00"> hResData = LoadResource(IntToPtrCastExpr&lt;ptr&gt;(hModule2), hResInfo)</text>
</g>
<!-- Node0x790fed0&#45;&gt;Node0xf05d9c0 -->
<g id="edge7" class="edge"><title>Node0x790fed0&#45;&gt;Node0xf05d9c0</title>
<path fill="none" stroke="black" d="M478.479,-1397.45C460.346,-1392 440.77,-1385.67 423,-1379 400.052,-1370.39 375.618,-1359.9 353.395,-1349.82"/>
<polygon fill="black" stroke="black" points="354.566,-1346.5 344.016,-1345.53 351.654,-1352.87 354.566,-1346.5"/>
<text text-anchor="middle" x="490.5" y="-1367.8" font-family="Times,serif" font-size="14.00">hResInfo != NULL</text>
</g>
<!-- Node0xf1d3210 -->
<g id="node9" class="node"><title>Node0xf1d3210</title>
<polygon fill="none" stroke="black" points="517.5,-1220.5 517.5,-1258.5 642.5,-1258.5 642.5,-1220.5 517.5,-1220.5"/>
<text text-anchor="start" x="525.5" y="-1243.3" font-family="Times,serif" font-size="14.00">hResData2 = 0</text>
<text text-anchor="start" x="525.5" y="-1228.3" font-family="Times,serif" font-size="14.00"> v24 = NULL</text>
</g>
<!-- Node0x790fed0&#45;&gt;Node0xf1d3210 -->
<g id="edge8" class="edge"><title>Node0x790fed0&#45;&gt;Node0xf1d3210</title>
<path fill="none" stroke="black" d="M551.885,-1397.18C554.121,-1391.44 556.383,-1385.03 558,-1379 568.061,-1341.47 574.128,-1296.9 577.271,-1268.66"/>
<polygon fill="black" stroke="black" points="580.755,-1268.99 578.334,-1258.68 573.794,-1268.25 580.755,-1268.99"/>
<text text-anchor="middle" x="632.5" y="-1367.8" font-family="Times,serif" font-size="14.00">hResInfo == NULL</text>
</g>
<!-- Node0xf206b40 -->
<g id="node10" class="node"><title>Node0xf206b40</title>
<polygon fill="none" stroke="black" points="772,-557.5 772,-610.5 936,-610.5 936,-557.5 772,-557.5"/>
<text text-anchor="start" x="780" y="-595.3" font-family="Times,serif" font-size="14.00">0x411af1:</text>
<text text-anchor="start" x="780" y="-580.3" font-family="Times,serif" font-size="14.00"> if (hResData2 != 0):</text>
<text text-anchor="start" x="780" y="-565.3" font-family="Times,serif" font-size="14.00"> else:</text>
</g>
<!-- Node0xf2237b0&#45;&gt;Node0xf206b40 -->
<g id="edge9" class="edge"><title>Node0xf2237b0&#45;&gt;Node0xf206b40</title>
<path fill="none" stroke="black" d="M933.209,-662.167C920.518,-649.804 903.062,-632.798 887.767,-617.896"/>
<polygon fill="black" stroke="black" points="890.067,-615.251 880.462,-610.78 885.182,-620.265 890.067,-615.251"/>
<text text-anchor="middle" x="963.5" y="-632.8" font-family="Times,serif" font-size="14.00">v24 != NULL</text>
</g>
<!-- Node0xf24ce20 -->
<g id="node11" class="node"><title>Node0xf24ce20</title>
<polygon fill="none" stroke="black" points="980,-380.5 980,-538.5 1268,-538.5 1268,-380.5 980,-380.5"/>
<text text-anchor="start" x="988" y="-523.3" font-family="Times,serif" font-size="14.00">0x411afc:</text>
<text text-anchor="start" x="988" y="-508.3" font-family="Times,serif" font-size="14.00"> v1 = IntToPtrCastExpr&lt;ptr&gt;(v25)</text>
<text text-anchor="start" x="988" y="-493.3" font-family="Times,serif" font-size="14.00"> v7 = v1</text>
<text text-anchor="start" x="988" y="-478.3" font-family="Times,serif" font-size="14.00"> v27 = v11</text>
<text text-anchor="start" x="988" y="-463.3" font-family="Times,serif" font-size="14.00"> g7 = PtrToIntCastExpr&lt;int32&gt;(v27)</text>
<text text-anchor="start" x="988" y="-448.3" font-family="Times,serif" font-size="14.00"> v28 = v9</text>
<text text-anchor="start" x="988" y="-433.3" font-family="Times,serif" font-size="14.00"> g9 = v28</text>
<text text-anchor="start" x="988" y="-418.3" font-family="Times,serif" font-size="14.00"> g3 = v20</text>
<text text-anchor="start" x="988" y="-403.3" font-family="Times,serif" font-size="14.00"> g4 = v19</text>
<text text-anchor="start" x="988" y="-388.3" font-family="Times,serif" font-size="14.00"> return PtrToIntCastExpr&lt;int32&gt;(v7)</text>
</g>
<!-- Node0xf2237b0&#45;&gt;Node0xf24ce20 -->
<g id="edge10" class="edge"><title>Node0xf2237b0&#45;&gt;Node0xf24ce20</title>
<path fill="none" stroke="black" d="M990.446,-662.381C999.492,-657.306 1008.61,-651.156 1016,-644 1044.03,-616.85 1067.31,-580.885 1084.99,-547.993"/>
<polygon fill="black" stroke="black" points="1088.27,-549.286 1089.83,-538.807 1082.07,-546.025 1088.27,-549.286"/>
<text text-anchor="middle" x="1081.5" y="-632.8" font-family="Times,serif" font-size="14.00">v24 == NULL</text>
</g>
<!-- Node0xf24a830 -->
<g id="node12" class="node"><title>Node0xf24a830</title>
<polygon fill="none" stroke="black" points="180.5,-1165.5 180.5,-1201.5 371.5,-1201.5 371.5,-1165.5 180.5,-1165.5"/>
<text text-anchor="start" x="188.5" y="-1179.8" font-family="Times,serif" font-size="14.00">if (hResData == NULL):</text>
</g>
<!-- Node0xf05d9c0&#45;&gt;Node0xf24a830 -->
<g id="edge11" class="edge"><title>Node0xf05d9c0&#45;&gt;Node0xf24a830</title>
<path fill="none" stroke="black" d="M276,-1277.39C276,-1256.94 276,-1231.02 276,-1211.75"/>
<polygon fill="black" stroke="black" points="279.5,-1211.55 276,-1201.55 272.5,-1211.55 279.5,-1211.55"/>
</g>
<!-- Node0xf24e7c0 -->
<g id="node13" class="node"><title>Node0xf24e7c0</title>
<polygon fill="none" stroke="black" points="418.5,-736.5 418.5,-849.5 635.5,-849.5 635.5,-736.5 418.5,-736.5"/>
<text text-anchor="start" x="426.5" y="-834.3" font-family="Times,serif" font-size="14.00">0x411ae3:</text>
<text text-anchor="start" x="426.5" y="-819.3" font-family="Times,serif" font-size="14.00"> v11 = v24</text>
<text text-anchor="start" x="426.5" y="-804.3" font-family="Times,serif" font-size="14.00"> v23 = g3</text>
<text text-anchor="start" x="426.5" y="-789.3" font-family="Times,serif" font-size="14.00"> g5 = v23</text>
<text text-anchor="start" x="426.5" y="-774.3" font-family="Times,serif" font-size="14.00"> v4 = function_411657(v24)</text>
<text text-anchor="start" x="426.5" y="-759.3" font-family="Times,serif" font-size="14.00"> g9 = v4</text>
<text text-anchor="start" x="426.5" y="-744.3" font-family="Times,serif" font-size="14.00"> v25 = v4</text>
</g>
<!-- Node0xf1d3210&#45;&gt;Node0xf24e7c0 -->
<g id="edge12" class="edge"><title>Node0xf1d3210&#45;&gt;Node0xf24e7c0</title>
<path fill="none" stroke="black" d="M578.886,-1220.5C576.44,-1182.46 570.087,-1091.18 561,-1015 554.751,-962.611 545.553,-903.557 538.3,-859.682"/>
<polygon fill="black" stroke="black" points="541.736,-859.006 536.643,-849.716 534.831,-860.155 541.736,-859.006"/>
</g>
<!-- Node0xf1ac9e0 -->
<g id="node14" class="node"><title>Node0xf1ac9e0</title>
<polygon fill="none" stroke="black" points="611.5,-293.5 611.5,-361.5 820.5,-361.5 820.5,-293.5 611.5,-293.5"/>
<text text-anchor="start" x="619.5" y="-346.3" font-family="Times,serif" font-size="14.00">0x411af5:</text>
<text text-anchor="start" x="619.5" y="-331.3" font-family="Times,serif" font-size="14.00"> FreeResource(hResData2)</text>
<text text-anchor="start" x="619.5" y="-316.3" font-family="Times,serif" font-size="14.00"> v26 = g9</text>
<text text-anchor="start" x="619.5" y="-301.3" font-family="Times,serif" font-size="14.00"> v25 = v26</text>
</g>
<!-- Node0xf206b40&#45;&gt;Node0xf1ac9e0 -->
<g id="edge13" class="edge"><title>Node0xf206b40&#45;&gt;Node0xf1ac9e0</title>
<path fill="none" stroke="black" d="M771.693,-572.164C752.468,-565.628 734.098,-555.29 722,-539 686.233,-490.837 693.852,-417.933 703.934,-371.792"/>
<polygon fill="black" stroke="black" points="707.4,-372.336 706.246,-361.805 700.581,-370.758 707.4,-372.336"/>
<text text-anchor="middle" x="779.5" y="-455.8" font-family="Times,serif" font-size="14.00">hResData2 != 0</text>
</g>
<!-- Node0xf20d7c0 -->
<g id="node15" class="node"><title>Node0xf20d7c0</title>
<polygon fill="none" stroke="black" points="838.5,-309.5 838.5,-345.5 919.5,-345.5 919.5,-309.5 838.5,-309.5"/>
<text text-anchor="start" x="846.5" y="-323.8" font-family="Times,serif" font-size="14.00">v25 = v4</text>
</g>
<!-- Node0xf206b40&#45;&gt;Node0xf20d7c0 -->
<g id="edge14" class="edge"><title>Node0xf206b40&#45;&gt;Node0xf20d7c0</title>
<path fill="none" stroke="black" d="M849.112,-557.476C842.615,-518.48 833.729,-442.057 850,-380 852.319,-371.154 856.539,-362.225 861.054,-354.344"/>
<polygon fill="black" stroke="black" points="864.148,-355.994 866.394,-345.64 858.181,-352.333 864.148,-355.994"/>
<text text-anchor="middle" x="910.5" y="-455.8" font-family="Times,serif" font-size="14.00">hResData2 == 0</text>
</g>
<!-- Node0xf209010 -->
<g id="node16" class="node"><title>Node0xf209010</title>
<polygon fill="none" stroke="black" points="583,-23.5 583,-59.5 637,-59.5 637,-23.5 583,-23.5"/>
<text text-anchor="start" x="591" y="-37.8" font-family="Times,serif" font-size="14.00">exit:</text>
</g>
<!-- Node0xf24ce20&#45;&gt;Node0xf209010 -->
<g id="edge15" class="edge"><title>Node0xf24ce20&#45;&gt;Node0xf209010</title>
<path fill="none" stroke="black" d="M1108.92,-380.361C1088.4,-296.407 1043.12,-165.798 951,-97 903.517,-61.5384 726,-48.3448 647.612,-44.1747"/>
<polygon fill="black" stroke="black" points="647.398,-40.6593 637.232,-43.6448 647.041,-47.6502 647.398,-40.6593"/>
</g>
<!-- Node0xf1ed1f0 -->
<g id="node17" class="node"><title>Node0xf1ed1f0</title>
<polygon fill="none" stroke="black" points="52,-868.5 52,-996.5 340,-996.5 340,-868.5 52,-868.5"/>
<text text-anchor="start" x="60" y="-981.3" font-family="Times,serif" font-size="14.00">v7 = BitCastExpr&lt;ptr&gt;(hResData)</text>
<text text-anchor="start" x="60" y="-966.3" font-family="Times,serif" font-size="14.00"> v27 = v11</text>
<text text-anchor="start" x="60" y="-951.3" font-family="Times,serif" font-size="14.00"> g7 = PtrToIntCastExpr&lt;int32&gt;(v27)</text>
<text text-anchor="start" x="60" y="-936.3" font-family="Times,serif" font-size="14.00"> v28 = v9</text>
<text text-anchor="start" x="60" y="-921.3" font-family="Times,serif" font-size="14.00"> g9 = v28</text>
<text text-anchor="start" x="60" y="-906.3" font-family="Times,serif" font-size="14.00"> g3 = v20</text>
<text text-anchor="start" x="60" y="-891.3" font-family="Times,serif" font-size="14.00"> g4 = v19</text>
<text text-anchor="start" x="60" y="-876.3" font-family="Times,serif" font-size="14.00"> return PtrToIntCastExpr&lt;int32&gt;(v7)</text>
</g>
<!-- Node0xf24a830&#45;&gt;Node0xf1ed1f0 -->
<g id="edge16" class="edge"><title>Node0xf24a830&#45;&gt;Node0xf1ed1f0</title>
<path fill="none" stroke="black" d="M215.864,-1165.38C208.005,-1160.65 200.97,-1154.64 196,-1147 169.38,-1106.06 170.157,-1050.72 177.184,-1006.64"/>
<polygon fill="black" stroke="black" points="180.673,-1007.01 178.93,-996.556 173.775,-1005.81 180.673,-1007.01"/>
<text text-anchor="middle" x="269" y="-1135.8" font-family="Times,serif" font-size="14.00">hResData == NULL</text>
</g>
<!-- Node0xf1a1380 -->
<g id="node18" class="node"><title>Node0xf1a1380</title>
<polygon fill="none" stroke="black" points="224,-1015.5 224,-1113.5 552,-1113.5 552,-1015.5 224,-1015.5"/>
<text text-anchor="start" x="232" y="-1098.3" font-family="Times,serif" font-size="14.00">0x411ada:</text>
<text text-anchor="start" x="232" y="-1083.3" font-family="Times,serif" font-size="14.00"> v11 = BitCastExpr&lt;ptr&gt;(hResData)</text>
<text text-anchor="start" x="232" y="-1068.3" font-family="Times,serif" font-size="14.00"> v3 = LockResource(hResData)</text>
<text text-anchor="start" x="232" y="-1053.3" font-family="Times,serif" font-size="14.00"> v6 = PtrToIntCastExpr&lt;int32&gt;(hResData)</text>
<text text-anchor="start" x="232" y="-1038.3" font-family="Times,serif" font-size="14.00"> hResData2 = v6</text>
<text text-anchor="start" x="232" y="-1023.3" font-family="Times,serif" font-size="14.00"> v24 = v3</text>
</g>
<!-- Node0xf24a830&#45;&gt;Node0xf1a1380 -->
<g id="edge17" class="edge"><title>Node0xf24a830&#45;&gt;Node0xf1a1380</title>
<path fill="none" stroke="black" d="M320.259,-1165.35C329.5,-1160.39 338.653,-1154.3 346,-1147 353.114,-1139.93 359.27,-1131.41 364.509,-1122.57"/>
<polygon fill="black" stroke="black" points="367.655,-1124.11 369.444,-1113.67 361.533,-1120.72 367.655,-1124.11"/>
<text text-anchor="middle" x="428" y="-1135.8" font-family="Times,serif" font-size="14.00">hResData != NULL</text>
</g>
<!-- Node0xf24cd90 -->
<g id="node19" class="node"><title>Node0xf24cd90</title>
<polygon fill="none" stroke="black" points="455.5,-662.5 455.5,-698.5 598.5,-698.5 598.5,-662.5 455.5,-662.5"/>
<text text-anchor="start" x="463.5" y="-676.8" font-family="Times,serif" font-size="14.00">if (v24 != NULL):</text>
</g>
<!-- Node0xf24e7c0&#45;&gt;Node0xf24cd90 -->
<g id="edge18" class="edge"><title>Node0xf24e7c0&#45;&gt;Node0xf24cd90</title>
<path fill="none" stroke="black" d="M527,-736.426C527,-726.86 527,-717.307 527,-708.913"/>
<polygon fill="black" stroke="black" points="530.5,-708.644 527,-698.644 523.5,-708.644 530.5,-708.644"/>
</g>
<!-- Node0xf192830 -->
<g id="node20" class="node"><title>Node0xf192830</title>
<polygon fill="none" stroke="black" points="654,-97.5 654,-255.5 942,-255.5 942,-97.5 654,-97.5"/>
<text text-anchor="start" x="662" y="-240.3" font-family="Times,serif" font-size="14.00">0x411afc:</text>
<text text-anchor="start" x="662" y="-225.3" font-family="Times,serif" font-size="14.00"> v1 = IntToPtrCastExpr&lt;ptr&gt;(v25)</text>
<text text-anchor="start" x="662" y="-210.3" font-family="Times,serif" font-size="14.00"> v7 = v1</text>
<text text-anchor="start" x="662" y="-195.3" font-family="Times,serif" font-size="14.00"> v27 = v11</text>
<text text-anchor="start" x="662" y="-180.3" font-family="Times,serif" font-size="14.00"> g7 = PtrToIntCastExpr&lt;int32&gt;(v27)</text>
<text text-anchor="start" x="662" y="-165.3" font-family="Times,serif" font-size="14.00"> v28 = v9</text>
<text text-anchor="start" x="662" y="-150.3" font-family="Times,serif" font-size="14.00"> g9 = v28</text>
<text text-anchor="start" x="662" y="-135.3" font-family="Times,serif" font-size="14.00"> g3 = v20</text>
<text text-anchor="start" x="662" y="-120.3" font-family="Times,serif" font-size="14.00"> g4 = v19</text>
<text text-anchor="start" x="662" y="-105.3" font-family="Times,serif" font-size="14.00"> return PtrToIntCastExpr&lt;int32&gt;(v7)</text>
</g>
<!-- Node0xf1ac9e0&#45;&gt;Node0xf192830 -->
<g id="edge19" class="edge"><title>Node0xf1ac9e0&#45;&gt;Node0xf192830</title>
<path fill="none" stroke="black" d="M734.198,-293.432C739.016,-284.679 744.448,-274.807 750.06,-264.611"/>
<polygon fill="black" stroke="black" points="753.271,-266.035 755.026,-255.586 747.138,-262.66 753.271,-266.035"/>
</g>
<!-- Node0xf20d7c0&#45;&gt;Node0xf192830 -->
<g id="edge20" class="edge"><title>Node0xf20d7c0&#45;&gt;Node0xf192830</title>
<path fill="none" stroke="black" d="M869.708,-309.408C863.445,-297.886 854.655,-281.717 845.368,-264.634"/>
<polygon fill="black" stroke="black" points="848.329,-262.752 840.477,-255.638 842.179,-266.095 848.329,-262.752"/>
</g>
<!-- Node0xf1ed1f0&#45;&gt;Node0xf209010 -->
<g id="edge21" class="edge"><title>Node0xf1ed1f0&#45;&gt;Node0xf209010</title>
<path fill="none" stroke="black" d="M196,-868.442C196,-825.934 196,-768.595 196,-718 196,-718 196,-718 196,-175.5 196,-96.7544 470.929,-58.0275 572.702,-46.3893"/>
<polygon fill="black" stroke="black" points="573.288,-49.8457 582.836,-45.2549 572.509,-42.8891 573.288,-49.8457"/>
</g>
<!-- Node0xf1a1380&#45;&gt;Node0xf24e7c0 -->
<g id="edge22" class="edge"><title>Node0xf1a1380&#45;&gt;Node0xf24e7c0</title>
<path fill="none" stroke="black" d="M412.85,-1015.32C435.372,-971.653 468.742,-906.954 493.591,-858.774"/>
<polygon fill="black" stroke="black" points="496.811,-860.166 498.285,-849.675 490.59,-856.958 496.811,-860.166"/>
</g>
<!-- Node0xf1ce500 -->
<g id="node21" class="node"><title>Node0xf1ce500</title>
<polygon fill="none" stroke="black" points="357,-557.5 357,-610.5 521,-610.5 521,-557.5 357,-557.5"/>
<text text-anchor="start" x="365" y="-595.3" font-family="Times,serif" font-size="14.00">0x411af1:</text>
<text text-anchor="start" x="365" y="-580.3" font-family="Times,serif" font-size="14.00"> if (hResData2 != 0):</text>
<text text-anchor="start" x="365" y="-565.3" font-family="Times,serif" font-size="14.00"> else:</text>
</g>
<!-- Node0xf24cd90&#45;&gt;Node0xf1ce500 -->
<g id="edge23" class="edge"><title>Node0xf24cd90&#45;&gt;Node0xf1ce500</title>
<path fill="none" stroke="black" d="M494.727,-662.384C486.701,-657.175 478.534,-650.96 472,-644 465.334,-636.899 459.522,-628.202 454.711,-619.69"/>
<polygon fill="black" stroke="black" points="457.671,-617.801 449.891,-610.61 451.489,-621.084 457.671,-617.801"/>
<text text-anchor="middle" x="520.5" y="-632.8" font-family="Times,serif" font-size="14.00">v24 != NULL</text>
</g>
<!-- Node0xf203170 -->
<g id="node22" class="node"><title>Node0xf203170</title>
<polygon fill="none" stroke="black" points="348,-97.5 348,-255.5 636,-255.5 636,-97.5 348,-97.5"/>
<text text-anchor="start" x="356" y="-240.3" font-family="Times,serif" font-size="14.00">0x411afc:</text>
<text text-anchor="start" x="356" y="-225.3" font-family="Times,serif" font-size="14.00"> v1 = IntToPtrCastExpr&lt;ptr&gt;(v25)</text>
<text text-anchor="start" x="356" y="-210.3" font-family="Times,serif" font-size="14.00"> v7 = v1</text>
<text text-anchor="start" x="356" y="-195.3" font-family="Times,serif" font-size="14.00"> v27 = v11</text>
<text text-anchor="start" x="356" y="-180.3" font-family="Times,serif" font-size="14.00"> g7 = PtrToIntCastExpr&lt;int32&gt;(v27)</text>
<text text-anchor="start" x="356" y="-165.3" font-family="Times,serif" font-size="14.00"> v28 = v9</text>
<text text-anchor="start" x="356" y="-150.3" font-family="Times,serif" font-size="14.00"> g9 = v28</text>
<text text-anchor="start" x="356" y="-135.3" font-family="Times,serif" font-size="14.00"> g3 = v20</text>
<text text-anchor="start" x="356" y="-120.3" font-family="Times,serif" font-size="14.00"> g4 = v19</text>
<text text-anchor="start" x="356" y="-105.3" font-family="Times,serif" font-size="14.00"> return PtrToIntCastExpr&lt;int32&gt;(v7)</text>
</g>
<!-- Node0xf24cd90&#45;&gt;Node0xf203170 -->
<g id="edge24" class="edge"><title>Node0xf24cd90&#45;&gt;Node0xf203170</title>
<path fill="none" stroke="black" d="M554.265,-662.435C560.21,-657.296 565.704,-651.101 569,-644 571.807,-637.953 569.107,-635.666 569,-629 566.594,-479.168 587.226,-435.543 541,-293 538.027,-283.832 534.617,-274.382 531.011,-265.022"/>
<polygon fill="black" stroke="black" points="534.265,-263.732 527.349,-255.706 527.75,-266.293 534.265,-263.732"/>
<text text-anchor="middle" x="623.5" y="-455.8" font-family="Times,serif" font-size="14.00">v24 == NULL</text>
</g>
<!-- Node0xf192830&#45;&gt;Node0xf209010 -->
<g id="edge25" class="edge"><title>Node0xf192830&#45;&gt;Node0xf209010</title>
<path fill="none" stroke="black" d="M687.552,-97.3641C671.187,-85.7867 655.509,-74.695 642.585,-65.552"/>
<polygon fill="black" stroke="black" points="644.288,-62.4697 634.103,-59.5516 640.245,-68.1843 644.288,-62.4697"/>
</g>
<!-- Node0xf226cb0 -->
<g id="node23" class="node"><title>Node0xf226cb0</title>
<polygon fill="none" stroke="black" points="224.5,-293.5 224.5,-361.5 433.5,-361.5 433.5,-293.5 224.5,-293.5"/>
<text text-anchor="start" x="232.5" y="-346.3" font-family="Times,serif" font-size="14.00">0x411af5:</text>
<text text-anchor="start" x="232.5" y="-331.3" font-family="Times,serif" font-size="14.00"> FreeResource(hResData2)</text>
<text text-anchor="start" x="232.5" y="-316.3" font-family="Times,serif" font-size="14.00"> v26 = g9</text>
<text text-anchor="start" x="232.5" y="-301.3" font-family="Times,serif" font-size="14.00"> v25 = v26</text>
</g>
<!-- Node0xf1ce500&#45;&gt;Node0xf226cb0 -->
<g id="edge26" class="edge"><title>Node0xf1ce500&#45;&gt;Node0xf226cb0</title>
<path fill="none" stroke="black" d="M356.802,-572.876C337.057,-566.36 318.178,-555.856 306,-539 270.524,-489.897 290.247,-416.794 308.807,-370.931"/>
<polygon fill="black" stroke="black" points="312.09,-372.152 312.73,-361.576 305.635,-369.445 312.09,-372.152"/>
<text text-anchor="middle" x="363.5" y="-455.8" font-family="Times,serif" font-size="14.00">hResData2 != 0</text>
</g>
<!-- Node0xf1abf10 -->
<g id="node24" class="node"><title>Node0xf1abf10</title>
<polygon fill="none" stroke="black" points="451.5,-309.5 451.5,-345.5 532.5,-345.5 532.5,-309.5 451.5,-309.5"/>
<text text-anchor="start" x="459.5" y="-323.8" font-family="Times,serif" font-size="14.00">v25 = v4</text>
</g>
<!-- Node0xf1ce500&#45;&gt;Node0xf1abf10 -->
<g id="edge27" class="edge"><title>Node0xf1ce500&#45;&gt;Node0xf1abf10</title>
<path fill="none" stroke="black" d="M433.106,-557.4C425.247,-517.647 415.028,-439.465 440,-380 444.369,-369.596 451.965,-360.212 460.024,-352.393"/>
<polygon fill="black" stroke="black" points="462.396,-354.966 467.475,-345.668 457.706,-349.77 462.396,-354.966"/>
<text text-anchor="middle" x="500.5" y="-455.8" font-family="Times,serif" font-size="14.00">hResData2 == 0</text>
</g>
<!-- Node0xf203170&#45;&gt;Node0xf209010 -->
<g id="edge28" class="edge"><title>Node0xf203170&#45;&gt;Node0xf209010</title>
<path fill="none" stroke="black" d="M561.324,-97.3641C571.003,-86.4546 580.299,-75.9765 588.127,-67.1537"/>
<polygon fill="black" stroke="black" points="590.853,-69.3547 594.872,-59.5516 585.617,-64.7091 590.853,-69.3547"/>
</g>
<!-- Node0xf226cb0&#45;&gt;Node0xf203170 -->
<g id="edge29" class="edge"><title>Node0xf226cb0&#45;&gt;Node0xf203170</title>
<path fill="none" stroke="black" d="M365.175,-293.432C375.428,-284.06 387.083,-273.405 399.076,-262.443"/>
<polygon fill="black" stroke="black" points="401.557,-264.917 406.577,-255.586 396.834,-259.75 401.557,-264.917"/>
</g>
<!-- Node0xf1abf10&#45;&gt;Node0xf203170 -->
<g id="edge30" class="edge"><title>Node0xf1abf10&#45;&gt;Node0xf203170</title>
<path fill="none" stroke="black" d="M492,-309.408C492,-298.203 492,-282.603 492,-266.042"/>
<polygon fill="black" stroke="black" points="495.5,-265.638 492,-255.638 488.5,-265.638 495.5,-265.638"/>
</g>
</g>
</svg>
