<?xml version="1.0" encoding="UTF-8" standalone="no"?>
<!DOCTYPE svg PUBLIC "-//W3C//DTD SVG 1.1//EN"
 "http://www.w3.org/Graphics/SVG/1.1/DTD/svg11.dtd">
<!-- Generated by graphviz version 2.38.0 (20140413.2041)
 -->
<!-- Title: Control&#45;flow graph for function &#39;function_40dad9(*lpString1, *lpString2)&#39;. Pages: 1 -->
<svg width="552pt" height="413pt"
 viewBox="0.00 0.00 552.00 413.00" xmlns="http://www.w3.org/2000/svg" xmlns:xlink="http://www.w3.org/1999/xlink">
<g id="graph0" class="graph" transform="scale(1 1) rotate(0) translate(4 409)">
<title>Control&#45;flow graph for function &#39;function_40dad9(*lpString1, *lpString2)&#39;.</title>
<polygon fill="white" stroke="none" points="-4,4 -4,-409 548,-409 548,4 -4,4"/>
<text text-anchor="middle" x="272" y="-7.8" font-family="Times,serif" font-size="14.00">Control&#45;flow graph for function &#39;function_40dad9(*lpString1, *lpString2)&#39;.</text>
<!-- Node0xf07b8d0 -->
<g id="node1" class="node"><title>Node0xf07b8d0</title>
<polygon fill="none" stroke="black" points="228,-351.5 228,-404.5 316,-404.5 316,-351.5 228,-351.5"/>
<text text-anchor="start" x="236" y="-389.3" font-family="Times,serif" font-size="14.00">entry:</text>
<text text-anchor="start" x="236" y="-374.3" font-family="Times,serif" font-size="14.00"> lpString1</text>
<text text-anchor="start" x="236" y="-359.3" font-family="Times,serif" font-size="14.00"> lpString2</text>
</g>
<!-- Node0xf07ec90 -->
<g id="node2" class="node"><title>Node0xf07ec90</title>
<polygon fill="none" stroke="black" points="19.5,-96.5 19.5,-314.5 524.5,-314.5 524.5,-96.5 19.5,-96.5"/>
<text text-anchor="start" x="27.5" y="-299.3" font-family="Times,serif" font-size="14.00">v1</text>
<text text-anchor="start" x="27.5" y="-284.3" font-family="Times,serif" font-size="14.00"> v2</text>
<text text-anchor="start" x="27.5" y="-269.3" font-family="Times,serif" font-size="14.00"> v3</text>
<text text-anchor="start" x="27.5" y="-254.3" font-family="Times,serif" font-size="14.00"> v4</text>
<text text-anchor="start" x="27.5" y="-239.3" font-family="Times,serif" font-size="14.00"> v5</text>
<text text-anchor="start" x="27.5" y="-224.3" font-family="Times,serif" font-size="14.00"> v6</text>
<text text-anchor="start" x="27.5" y="-209.3" font-family="Times,serif" font-size="14.00"> cchCount2</text>
<text text-anchor="start" x="27.5" y="-194.3" font-family="Times,serif" font-size="14.00"> v7</text>
<text text-anchor="start" x="27.5" y="-179.3" font-family="Times,serif" font-size="14.00"> v8</text>
<text text-anchor="start" x="27.5" y="-164.3" font-family="Times,serif" font-size="14.00"> v9</text>
<text text-anchor="start" x="27.5" y="-149.3" font-family="Times,serif" font-size="14.00"> v10</text>
<text text-anchor="start" x="27.5" y="-134.3" font-family="Times,serif" font-size="14.00"> v1 = CompareStringA(1033, 1, lpString1, &#45;1, lpString2, cchCount2)</text>
<text text-anchor="start" x="27.5" y="-119.3" font-family="Times,serif" font-size="14.00"> g2 = (v1 + &#45;1)</text>
<text text-anchor="start" x="27.5" y="-104.3" font-family="Times,serif" font-size="14.00"> return (v1 + &#45;2)</text>
</g>
<!-- Node0xf07b8d0&#45;&gt;Node0xf07ec90 -->
<g id="edge1" class="edge"><title>Node0xf07b8d0&#45;&gt;Node0xf07ec90</title>
<path fill="none" stroke="black" d="M272,-351.474C272,-343.671 272,-334.526 272,-324.689"/>
<polygon fill="black" stroke="black" points="275.5,-324.646 272,-314.646 268.5,-324.646 275.5,-324.646"/>
</g>
<!-- Node0xf07ec30 -->
<g id="node3" class="node"><title>Node0xf07ec30</title>
<polygon fill="none" stroke="black" points="245,-23.5 245,-59.5 299,-59.5 299,-23.5 245,-23.5"/>
<text text-anchor="start" x="253" y="-37.8" font-family="Times,serif" font-size="14.00">exit:</text>
</g>
<!-- Node0xf07ec90&#45;&gt;Node0xf07ec30 -->
<g id="edge2" class="edge"><title>Node0xf07ec90&#45;&gt;Node0xf07ec30</title>
<path fill="none" stroke="black" d="M272,-96.4437C272,-86.8181 272,-77.7685 272,-69.9316"/>
<polygon fill="black" stroke="black" points="275.5,-69.7265 272,-59.7265 268.5,-69.7266 275.5,-69.7265"/>
</g>
</g>
</svg>
