<?xml version="1.0" encoding="UTF-8" standalone="no"?>
<!DOCTYPE svg PUBLIC "-//W3C//DTD SVG 1.1//EN"
 "http://www.w3.org/Graphics/SVG/1.1/DTD/svg11.dtd">
<!-- Generated by graphviz version 2.38.0 (20140413.2041)
 -->
<!-- Title: Control&#45;flow graph for function &#39;function_414257(*a1, a2)&#39;. Pages: 1 -->
<svg width="493pt" height="653pt"
 viewBox="0.00 0.00 493.00 653.00" xmlns="http://www.w3.org/2000/svg" xmlns:xlink="http://www.w3.org/1999/xlink">
<g id="graph0" class="graph" transform="scale(1 1) rotate(0) translate(4 649)">
<title>Control&#45;flow graph for function &#39;function_414257(*a1, a2)&#39;.</title>
<polygon fill="white" stroke="none" points="-4,4 -4,-649 489,-649 489,4 -4,4"/>
<text text-anchor="middle" x="242.5" y="-7.8" font-family="Times,serif" font-size="14.00">Control&#45;flow graph for function &#39;function_414257(*a1, a2)&#39;.</text>
<!-- Node0xf3864d0 -->
<g id="node1" class="node"><title>Node0xf3864d0</title>
<polygon fill="none" stroke="black" points="213,-591.5 213,-644.5 272,-644.5 272,-591.5 213,-591.5"/>
<text text-anchor="start" x="221" y="-629.3" font-family="Times,serif" font-size="14.00">entry:</text>
<text text-anchor="start" x="221" y="-614.3" font-family="Times,serif" font-size="14.00"> a1</text>
<text text-anchor="start" x="221" y="-599.3" font-family="Times,serif" font-size="14.00"> a2</text>
</g>
<!-- Node0xf3877f0 -->
<g id="node2" class="node"><title>Node0xf3877f0</title>
<polygon fill="none" stroke="black" points="0,-96.5 0,-554.5 485,-554.5 485,-96.5 0,-96.5"/>
<text text-anchor="start" x="8" y="-539.3" font-family="Times,serif" font-size="14.00">result</text>
<text text-anchor="start" x="8" y="-524.3" font-family="Times,serif" font-size="14.00"> v1</text>
<text text-anchor="start" x="8" y="-509.3" font-family="Times,serif" font-size="14.00"> v2</text>
<text text-anchor="start" x="8" y="-494.3" font-family="Times,serif" font-size="14.00"> v3</text>
<text text-anchor="start" x="8" y="-479.3" font-family="Times,serif" font-size="14.00"> v4</text>
<text text-anchor="start" x="8" y="-464.3" font-family="Times,serif" font-size="14.00"> v5</text>
<text text-anchor="start" x="8" y="-449.3" font-family="Times,serif" font-size="14.00"> v6</text>
<text text-anchor="start" x="8" y="-434.3" font-family="Times,serif" font-size="14.00"> v7</text>
<text text-anchor="start" x="8" y="-419.3" font-family="Times,serif" font-size="14.00"> v8</text>
<text text-anchor="start" x="8" y="-404.3" font-family="Times,serif" font-size="14.00"> v9</text>
<text text-anchor="start" x="8" y="-389.3" font-family="Times,serif" font-size="14.00"> v10</text>
<text text-anchor="start" x="8" y="-374.3" font-family="Times,serif" font-size="14.00"> v11</text>
<text text-anchor="start" x="8" y="-359.3" font-family="Times,serif" font-size="14.00"> v12</text>
<text text-anchor="start" x="8" y="-344.3" font-family="Times,serif" font-size="14.00"> v13</text>
<text text-anchor="start" x="8" y="-329.3" font-family="Times,serif" font-size="14.00"> v14</text>
<text text-anchor="start" x="8" y="-314.3" font-family="Times,serif" font-size="14.00"> v15</text>
<text text-anchor="start" x="8" y="-299.3" font-family="Times,serif" font-size="14.00"> v7 = a1</text>
<text text-anchor="start" x="8" y="-284.3" font-family="Times,serif" font-size="14.00"> v11 = g3</text>
<text text-anchor="start" x="8" y="-269.3" font-family="Times,serif" font-size="14.00"> v4 = v11</text>
<text text-anchor="start" x="8" y="-254.3" font-family="Times,serif" font-size="14.00"> g3 = PtrToIntCastExpr&lt;int32&gt;(&amp;(v4))</text>
<text text-anchor="start" x="8" y="-239.3" font-family="Times,serif" font-size="14.00"> v12 = g5</text>
<text text-anchor="start" x="8" y="-224.3" font-family="Times,serif" font-size="14.00"> v13 = *(IntToPtrCastExpr&lt;ptr&gt;(v12))</text>
<text text-anchor="start" x="8" y="-209.3" font-family="Times,serif" font-size="14.00"> g2 = v13</text>
<text text-anchor="start" x="8" y="-194.3" font-family="Times,serif" font-size="14.00"> g8 = PtrToIntCastExpr&lt;int32&gt;(&amp;(v7))</text>
<text text-anchor="start" x="8" y="-179.3" font-family="Times,serif" font-size="14.00"> v15 = *(IntToPtrCastExpr&lt;ptr&gt;((v13 + 112)))</text>
<text text-anchor="start" x="8" y="-164.3" font-family="Times,serif" font-size="14.00"> IntToPtrCastExpr&lt;ptr&gt;(v15)(PtrToIntCastExpr&lt;int32&gt;(a1), v6)</text>
<text text-anchor="start" x="8" y="-149.3" font-family="Times,serif" font-size="14.00"> v14 = v7</text>
<text text-anchor="start" x="8" y="-134.3" font-family="Times,serif" font-size="14.00"> result = function_40ee6b()</text>
<text text-anchor="start" x="8" y="-119.3" font-family="Times,serif" font-size="14.00"> g3 = PtrToIntCastExpr&lt;int32&gt;(v14)</text>
<text text-anchor="start" x="8" y="-104.3" font-family="Times,serif" font-size="14.00"> return result</text>
</g>
<!-- Node0xf3864d0&#45;&gt;Node0xf3877f0 -->
<g id="edge1" class="edge"><title>Node0xf3864d0&#45;&gt;Node0xf3877f0</title>
<path fill="none" stroke="black" d="M242.5,-591.475C242.5,-583.815 242.5,-574.718 242.5,-564.582"/>
<polygon fill="black" stroke="black" points="246,-564.56 242.5,-554.56 239,-564.56 246,-564.56"/>
</g>
<!-- Node0xf387790 -->
<g id="node3" class="node"><title>Node0xf387790</title>
<polygon fill="none" stroke="black" points="215.5,-23.5 215.5,-59.5 269.5,-59.5 269.5,-23.5 215.5,-23.5"/>
<text text-anchor="start" x="223.5" y="-37.8" font-family="Times,serif" font-size="14.00">exit:</text>
</g>
<!-- Node0xf3877f0&#45;&gt;Node0xf387790 -->
<g id="edge2" class="edge"><title>Node0xf3877f0&#45;&gt;Node0xf387790</title>
<path fill="none" stroke="black" d="M242.5,-96.2058C242.5,-86.3861 242.5,-77.4977 242.5,-69.9055"/>
<polygon fill="black" stroke="black" points="246,-69.7521 242.5,-59.7522 239,-69.7522 246,-69.7521"/>
</g>
</g>
</svg>
