<?xml version="1.0" encoding="UTF-8" standalone="no"?>
<!DOCTYPE svg PUBLIC "-//W3C//DTD SVG 1.1//EN"
 "http://www.w3.org/Graphics/SVG/1.1/DTD/svg11.dtd">
<!-- Generated by graphviz version 2.38.0 (20140413.2041)
 -->
<!-- Title: Control&#45;flow graph for function &#39;function_424228()&#39;. Pages: 1 -->
<svg width="395pt" height="839pt"
 viewBox="0.00 0.00 395.00 839.00" xmlns="http://www.w3.org/2000/svg" xmlns:xlink="http://www.w3.org/1999/xlink">
<g id="graph0" class="graph" transform="scale(1 1) rotate(0) translate(4 835)">
<title>Control&#45;flow graph for function &#39;function_424228()&#39;.</title>
<polygon fill="white" stroke="none" points="-4,4 -4,-835 391,-835 391,4 -4,4"/>
<text text-anchor="middle" x="193.5" y="-7.8" font-family="Times,serif" font-size="14.00">Control&#45;flow graph for function &#39;function_424228()&#39;.</text>
<!-- Node0xfb393e0 -->
<g id="node1" class="node"><title>Node0xfb393e0</title>
<polygon fill="none" stroke="black" points="155.5,-794.5 155.5,-830.5 214.5,-830.5 214.5,-794.5 155.5,-794.5"/>
<text text-anchor="start" x="163.5" y="-808.8" font-family="Times,serif" font-size="14.00">entry:</text>
</g>
<!-- Node0xfb39730 -->
<g id="node2" class="node"><title>Node0xfb39730</title>
<polygon fill="none" stroke="black" points="21,-508.5 21,-756.5 349,-756.5 349,-508.5 21,-508.5"/>
<text text-anchor="start" x="29" y="-741.3" font-family="Times,serif" font-size="14.00">v1</text>
<text text-anchor="start" x="29" y="-726.3" font-family="Times,serif" font-size="14.00"> v2</text>
<text text-anchor="start" x="29" y="-711.3" font-family="Times,serif" font-size="14.00"> v3</text>
<text text-anchor="start" x="29" y="-696.3" font-family="Times,serif" font-size="14.00"> v4</text>
<text text-anchor="start" x="29" y="-681.3" font-family="Times,serif" font-size="14.00"> v5</text>
<text text-anchor="start" x="29" y="-666.3" font-family="Times,serif" font-size="14.00"> v6</text>
<text text-anchor="start" x="29" y="-651.3" font-family="Times,serif" font-size="14.00"> v7</text>
<text text-anchor="start" x="29" y="-636.3" font-family="Times,serif" font-size="14.00"> v8</text>
<text text-anchor="start" x="29" y="-621.3" font-family="Times,serif" font-size="14.00"> v9</text>
<text text-anchor="start" x="29" y="-606.3" font-family="Times,serif" font-size="14.00"> v10</text>
<text text-anchor="start" x="29" y="-591.3" font-family="Times,serif" font-size="14.00"> v4 = v5</text>
<text text-anchor="start" x="29" y="-576.3" font-family="Times,serif" font-size="14.00"> v9 = v4</text>
<text text-anchor="start" x="29" y="-561.3" font-family="Times,serif" font-size="14.00"> v8 = PtrToIntCastExpr&lt;int32&gt;(v9)</text>
<text text-anchor="start" x="29" y="-546.3" font-family="Times,serif" font-size="14.00"> g2 = v8</text>
<text text-anchor="start" x="29" y="-531.3" font-family="Times,serif" font-size="14.00"> v10 = *(IntToPtrCastExpr&lt;ptr&gt;((v8 + 4)))</text>
<text text-anchor="start" x="29" y="-516.3" font-family="Times,serif" font-size="14.00"> g5 = v10</text>
</g>
<!-- Node0xfb393e0&#45;&gt;Node0xfb39730 -->
<g id="edge1" class="edge"><title>Node0xfb393e0&#45;&gt;Node0xfb39730</title>
<path fill="none" stroke="black" d="M185,-794.433C185,-786.971 185,-777.495 185,-766.888"/>
<polygon fill="black" stroke="black" points="188.5,-766.854 185,-756.854 181.5,-766.854 188.5,-766.854"/>
</g>
<!-- Node0xfb39940 -->
<g id="node3" class="node"><title>Node0xfb39940</title>
<polygon fill="none" stroke="black" points="128,-434.5 128,-470.5 242,-470.5 242,-434.5 128,-434.5"/>
<text text-anchor="start" x="136" y="-448.8" font-family="Times,serif" font-size="14.00">if (v10 == 0):</text>
</g>
<!-- Node0xfb39730&#45;&gt;Node0xfb39940 -->
<g id="edge2" class="edge"><title>Node0xfb39730&#45;&gt;Node0xfb39940</title>
<path fill="none" stroke="black" d="M185,-508.358C185,-498.332 185,-488.986 185,-480.952"/>
<polygon fill="black" stroke="black" points="188.5,-480.869 185,-470.869 181.5,-480.869 188.5,-480.869"/>
</g>
<!-- Node0xfb39f50 -->
<g id="node4" class="node"><title>Node0xfb39f50</title>
<polygon fill="none" stroke="black" points="90,-257.5 90,-310.5 182,-310.5 182,-257.5 90,-257.5"/>
<text text-anchor="start" x="98" y="-295.3" font-family="Times,serif" font-size="14.00">0x424244:</text>
<text text-anchor="start" x="98" y="-280.3" font-family="Times,serif" font-size="14.00"> g2 = 0</text>
<text text-anchor="start" x="98" y="-265.3" font-family="Times,serif" font-size="14.00"> return</text>
</g>
<!-- Node0xfb39940&#45;&gt;Node0xfb39f50 -->
<g id="edge3" class="edge"><title>Node0xfb39940&#45;&gt;Node0xfb39f50</title>
<path fill="none" stroke="black" d="M152.277,-434.464C145.729,-429.445 139.725,-423.298 136,-416 120.965,-386.542 123.012,-348.279 127.585,-320.721"/>
<polygon fill="black" stroke="black" points="131.056,-321.193 129.431,-310.724 124.173,-319.922 131.056,-321.193"/>
<text text-anchor="middle" x="170.5" y="-404.8" font-family="Times,serif" font-size="14.00">v10 == 0</text>
</g>
<!-- Node0xfb39c10 -->
<g id="node5" class="node"><title>Node0xfb39c10</title>
<polygon fill="none" stroke="black" points="164,-329.5 164,-382.5 316,-382.5 316,-329.5 164,-329.5"/>
<text text-anchor="start" x="172" y="-367.3" font-family="Times,serif" font-size="14.00">0x424233:</text>
<text text-anchor="start" x="172" y="-352.3" font-family="Times,serif" font-size="14.00"> function_41d0c7()</text>
<text text-anchor="start" x="172" y="-337.3" font-family="Times,serif" font-size="14.00"> v7 = g2</text>
</g>
<!-- Node0xfb39940&#45;&gt;Node0xfb39c10 -->
<g id="edge4" class="edge"><title>Node0xfb39940&#45;&gt;Node0xfb39c10</title>
<path fill="none" stroke="black" d="M197.109,-434.415C201.042,-428.653 205.333,-422.129 209,-416 213.661,-408.208 218.378,-399.65 222.677,-391.527"/>
<polygon fill="black" stroke="black" points="225.809,-393.09 227.33,-382.605 219.603,-389.854 225.809,-393.09"/>
<text text-anchor="middle" x="249.5" y="-404.8" font-family="Times,serif" font-size="14.00">v10 != 0</text>
</g>
<!-- Node0xfb396b0 -->
<g id="node6" class="node"><title>Node0xfb396b0</title>
<polygon fill="none" stroke="black" points="183,-23.5 183,-59.5 237,-59.5 237,-23.5 183,-23.5"/>
<text text-anchor="start" x="191" y="-37.8" font-family="Times,serif" font-size="14.00">exit:</text>
</g>
<!-- Node0xfb39f50&#45;&gt;Node0xfb396b0 -->
<g id="edge5" class="edge"><title>Node0xfb39f50&#45;&gt;Node0xfb396b0</title>
<path fill="none" stroke="black" d="M133.367,-257.492C130.646,-220.255 129.803,-149.715 155,-97 160.525,-85.4402 169.56,-74.9335 178.726,-66.2981"/>
<polygon fill="black" stroke="black" points="181.226,-68.7587 186.381,-59.5025 176.579,-63.5237 181.226,-68.7587"/>
</g>
<!-- Node0xfb39d00 -->
<g id="node7" class="node"><title>Node0xfb39d00</title>
<polygon fill="none" stroke="black" points="187.5,-202.5 187.5,-238.5 292.5,-238.5 292.5,-202.5 187.5,-202.5"/>
<text text-anchor="start" x="195.5" y="-216.8" font-family="Times,serif" font-size="14.00">if (v7 == 0):</text>
</g>
<!-- Node0xfb39c10&#45;&gt;Node0xfb39d00 -->
<g id="edge6" class="edge"><title>Node0xfb39c10&#45;&gt;Node0xfb39d00</title>
<path fill="none" stroke="black" d="M240,-329.26C240,-306.131 240,-272.278 240,-248.709"/>
<polygon fill="black" stroke="black" points="243.5,-248.679 240,-238.679 236.5,-248.68 243.5,-248.679"/>
</g>
<!-- Node0xfb399c0 -->
<g id="node8" class="node"><title>Node0xfb399c0</title>
<polygon fill="none" stroke="black" points="164,-97.5 164,-150.5 256,-150.5 256,-97.5 164,-97.5"/>
<text text-anchor="start" x="172" y="-135.3" font-family="Times,serif" font-size="14.00">0x424244:</text>
<text text-anchor="start" x="172" y="-120.3" font-family="Times,serif" font-size="14.00"> g2 = 0</text>
<text text-anchor="start" x="172" y="-105.3" font-family="Times,serif" font-size="14.00"> return</text>
</g>
<!-- Node0xfb39d00&#45;&gt;Node0xfb399c0 -->
<g id="edge7" class="edge"><title>Node0xfb39d00&#45;&gt;Node0xfb399c0</title>
<path fill="none" stroke="black" d="M234.498,-202.167C230.787,-190.478 225.758,-174.639 221.223,-160.352"/>
<polygon fill="black" stroke="black" points="224.546,-159.252 218.184,-150.78 217.874,-161.37 224.546,-159.252"/>
<text text-anchor="middle" x="259" y="-172.8" font-family="Times,serif" font-size="14.00">v7 == 0</text>
</g>
<!-- Node0xfb39ef0 -->
<g id="node9" class="node"><title>Node0xfb39ef0</title>
<polygon fill="none" stroke="black" points="274,-97.5 274,-150.5 366,-150.5 366,-97.5 274,-97.5"/>
<text text-anchor="start" x="282" y="-135.3" font-family="Times,serif" font-size="14.00">0x424240:</text>
<text text-anchor="start" x="282" y="-120.3" font-family="Times,serif" font-size="14.00"> g2 = 1</text>
<text text-anchor="start" x="282" y="-105.3" font-family="Times,serif" font-size="14.00"> return</text>
</g>
<!-- Node0xfb39d00&#45;&gt;Node0xfb39ef0 -->
<g id="edge8" class="edge"><title>Node0xfb39d00&#45;&gt;Node0xfb39ef0</title>
<path fill="none" stroke="black" d="M269.868,-202.452C277.394,-197.206 285.024,-190.955 291,-184 297.107,-176.892 302.279,-168.275 306.488,-159.848"/>
<polygon fill="black" stroke="black" points="309.79,-161.048 310.83,-150.504 303.442,-158.098 309.79,-161.048"/>
<text text-anchor="middle" x="328" y="-172.8" font-family="Times,serif" font-size="14.00">v7 != 0</text>
</g>
<!-- Node0xfb399c0&#45;&gt;Node0xfb396b0 -->
<g id="edge9" class="edge"><title>Node0xfb399c0&#45;&gt;Node0xfb396b0</title>
<path fill="none" stroke="black" d="M210,-97.0862C210,-88.4596 210,-78.8224 210,-70.0748"/>
<polygon fill="black" stroke="black" points="213.5,-69.9735 210,-59.9735 206.5,-69.9735 213.5,-69.9735"/>
</g>
<!-- Node0xfb39ef0&#45;&gt;Node0xfb396b0 -->
<g id="edge10" class="edge"><title>Node0xfb39ef0&#45;&gt;Node0xfb396b0</title>
<path fill="none" stroke="black" d="M284.893,-97.308C270.938,-87.0959 255.01,-75.4388 241.44,-65.5083"/>
<polygon fill="black" stroke="black" points="243.471,-62.6579 233.334,-59.5766 239.337,-68.3068 243.471,-62.6579"/>
</g>
</g>
</svg>
