<?xml version="1.0" encoding="UTF-8" standalone="no"?>
<!DOCTYPE svg PUBLIC "-//W3C//DTD SVG 1.1//EN"
 "http://www.w3.org/Graphics/SVG/1.1/DTD/svg11.dtd">
<!-- Generated by graphviz version 2.38.0 (20140413.2041)
 -->
<!-- Title: Control&#45;flow graph for function &#39;function_424247()&#39;. Pages: 1 -->
<svg width="1296pt" height="2213pt"
 viewBox="0.00 0.00 1296.00 2213.00" xmlns="http://www.w3.org/2000/svg" xmlns:xlink="http://www.w3.org/1999/xlink">
<g id="graph0" class="graph" transform="scale(1 1) rotate(0) translate(4 2209)">
<title>Control&#45;flow graph for function &#39;function_424247()&#39;.</title>
<polygon fill="white" stroke="none" points="-4,4 -4,-2209 1292,-2209 1292,4 -4,4"/>
<text text-anchor="middle" x="644" y="-7.8" font-family="Times,serif" font-size="14.00">Control&#45;flow graph for function &#39;function_424247()&#39;.</text>
<!-- Node0xfb398a0 -->
<g id="node1" class="node"><title>Node0xfb398a0</title>
<polygon fill="none" stroke="black" points="127.5,-2168.5 127.5,-2204.5 186.5,-2204.5 186.5,-2168.5 127.5,-2168.5"/>
<text text-anchor="start" x="135.5" y="-2182.8" font-family="Times,serif" font-size="14.00">entry:</text>
</g>
<!-- Node0xfb3a7b0 -->
<g id="node2" class="node"><title>Node0xfb3a7b0</title>
<polygon fill="none" stroke="black" points="2.5,-1702.5 2.5,-2130.5 311.5,-2130.5 311.5,-1702.5 2.5,-1702.5"/>
<text text-anchor="start" x="10.5" y="-2115.3" font-family="Times,serif" font-size="14.00">v1</text>
<text text-anchor="start" x="10.5" y="-2100.3" font-family="Times,serif" font-size="14.00"> v2</text>
<text text-anchor="start" x="10.5" y="-2085.3" font-family="Times,serif" font-size="14.00"> v3</text>
<text text-anchor="start" x="10.5" y="-2070.3" font-family="Times,serif" font-size="14.00"> v4</text>
<text text-anchor="start" x="10.5" y="-2055.3" font-family="Times,serif" font-size="14.00"> v5</text>
<text text-anchor="start" x="10.5" y="-2040.3" font-family="Times,serif" font-size="14.00"> v6</text>
<text text-anchor="start" x="10.5" y="-2025.3" font-family="Times,serif" font-size="14.00"> v7</text>
<text text-anchor="start" x="10.5" y="-2010.3" font-family="Times,serif" font-size="14.00"> v8</text>
<text text-anchor="start" x="10.5" y="-1995.3" font-family="Times,serif" font-size="14.00"> v9</text>
<text text-anchor="start" x="10.5" y="-1980.3" font-family="Times,serif" font-size="14.00"> hWnd</text>
<text text-anchor="start" x="10.5" y="-1965.3" font-family="Times,serif" font-size="14.00"> v10</text>
<text text-anchor="start" x="10.5" y="-1950.3" font-family="Times,serif" font-size="14.00"> v11</text>
<text text-anchor="start" x="10.5" y="-1935.3" font-family="Times,serif" font-size="14.00"> v12</text>
<text text-anchor="start" x="10.5" y="-1920.3" font-family="Times,serif" font-size="14.00"> v13</text>
<text text-anchor="start" x="10.5" y="-1905.3" font-family="Times,serif" font-size="14.00"> v14</text>
<text text-anchor="start" x="10.5" y="-1890.3" font-family="Times,serif" font-size="14.00"> v15</text>
<text text-anchor="start" x="10.5" y="-1875.3" font-family="Times,serif" font-size="14.00"> v16</text>
<text text-anchor="start" x="10.5" y="-1860.3" font-family="Times,serif" font-size="14.00"> v17</text>
<text text-anchor="start" x="10.5" y="-1845.3" font-family="Times,serif" font-size="14.00"> v18</text>
<text text-anchor="start" x="10.5" y="-1830.3" font-family="Times,serif" font-size="14.00"> v19</text>
<text text-anchor="start" x="10.5" y="-1815.3" font-family="Times,serif" font-size="14.00"> v20</text>
<text text-anchor="start" x="10.5" y="-1800.3" font-family="Times,serif" font-size="14.00"> v21</text>
<text text-anchor="start" x="10.5" y="-1785.3" font-family="Times,serif" font-size="14.00"> v3 = v4</text>
<text text-anchor="start" x="10.5" y="-1770.3" font-family="Times,serif" font-size="14.00"> v7 = v9</text>
<text text-anchor="start" x="10.5" y="-1755.3" font-family="Times,serif" font-size="14.00"> g10 = PtrToIntCastExpr&lt;int32&gt;(&amp;(v3))</text>
<text text-anchor="start" x="10.5" y="-1740.3" font-family="Times,serif" font-size="14.00"> v17 = v7</text>
<text text-anchor="start" x="10.5" y="-1725.3" font-family="Times,serif" font-size="14.00"> v16 = PtrToIntCastExpr&lt;int32&gt;(v17)</text>
<text text-anchor="start" x="10.5" y="-1710.3" font-family="Times,serif" font-size="14.00"> g9 = v16</text>
</g>
<!-- Node0xfb398a0&#45;&gt;Node0xfb3a7b0 -->
<g id="edge1" class="edge"><title>Node0xfb398a0&#45;&gt;Node0xfb3a7b0</title>
<path fill="none" stroke="black" d="M157,-2168.33C157,-2161.03 157,-2151.72 157,-2140.99"/>
<polygon fill="black" stroke="black" points="160.5,-2140.77 157,-2130.77 153.5,-2140.77 160.5,-2140.77"/>
</g>
<!-- Node0xfb3a8e0 -->
<g id="node3" class="node"><title>Node0xfb3a8e0</title>
<polygon fill="none" stroke="black" points="82.5,-1628.5 82.5,-1664.5 231.5,-1664.5 231.5,-1628.5 82.5,-1628.5"/>
<text text-anchor="start" x="90.5" y="-1642.8" font-family="Times,serif" font-size="14.00">if (v17 == NULL):</text>
</g>
<!-- Node0xfb3a7b0&#45;&gt;Node0xfb3a8e0 -->
<g id="edge2" class="edge"><title>Node0xfb3a7b0&#45;&gt;Node0xfb3a8e0</title>
<path fill="none" stroke="black" d="M157,-1702.38C157,-1692.13 157,-1682.84 157,-1674.94"/>
<polygon fill="black" stroke="black" points="160.5,-1674.74 157,-1664.74 153.5,-1674.74 160.5,-1674.74"/>
</g>
<!-- Node0xfb3b100 -->
<g id="node4" class="node"><title>Node0xfb3b100</title>
<polygon fill="none" stroke="black" points="0,-1376.5 0,-1459.5 92,-1459.5 92,-1376.5 0,-1376.5"/>
<text text-anchor="start" x="8" y="-1444.3" font-family="Times,serif" font-size="14.00">0x42426d:</text>
<text text-anchor="start" x="8" y="-1429.3" font-family="Times,serif" font-size="14.00"> g2 = 0</text>
<text text-anchor="start" x="8" y="-1414.3" font-family="Times,serif" font-size="14.00"> v13 = v3</text>
<text text-anchor="start" x="8" y="-1399.3" font-family="Times,serif" font-size="14.00"> g9 = v13</text>
<text text-anchor="start" x="8" y="-1384.3" font-family="Times,serif" font-size="14.00"> return</text>
</g>
<!-- Node0xfb3a8e0&#45;&gt;Node0xfb3b100 -->
<g id="edge3" class="edge"><title>Node0xfb3a8e0&#45;&gt;Node0xfb3b100</title>
<path fill="none" stroke="black" d="M121.511,-1628.33C101.502,-1616.71 77.9802,-1599.4 65,-1577 46.3121,-1544.75 42.0436,-1502.62 42.1871,-1469.97"/>
<polygon fill="black" stroke="black" points="45.6909,-1469.79 42.376,-1459.73 38.692,-1469.66 45.6909,-1469.79"/>
<text text-anchor="middle" x="146.5" y="-1598.8" font-family="Times,serif" font-size="14.00">v17 == NULL</text>
</g>
<!-- Node0xfb3aef0 -->
<g id="node5" class="node"><title>Node0xfb3aef0</title>
<polygon fill="none" stroke="black" points="74,-1478.5 74,-1576.5 656,-1576.5 656,-1478.5 74,-1478.5"/>
<text text-anchor="start" x="82" y="-1561.3" font-family="Times,serif" font-size="14.00">0x424250:</text>
<text text-anchor="start" x="82" y="-1546.3" font-family="Times,serif" font-size="14.00"> v18 = *(&amp;(v17[&#39;1&#39;]))</text>
<text text-anchor="start" x="82" y="-1531.3" font-family="Times,serif" font-size="14.00"> v11 = ExtCastExpr&lt;int32&gt;(((PtrToIntCastExpr&lt;int32&gt;(v18) &amp; 1) != 0))</text>
<text text-anchor="start" x="82" y="-1516.3" font-family="Times,serif" font-size="14.00"> v10 = (v16 if (((PtrToIntCastExpr&lt;int32&gt;(v18) &amp; 1) != 0) == False) else v11)</text>
<text text-anchor="start" x="82" y="-1501.3" font-family="Times,serif" font-size="14.00"> hWnd = *(IntToPtrCastExpr&lt;ptr&gt;(v10))</text>
<text text-anchor="start" x="82" y="-1486.3" font-family="Times,serif" font-size="14.00"> g5 = hWnd</text>
</g>
<!-- Node0xfb3a8e0&#45;&gt;Node0xfb3aef0 -->
<g id="edge4" class="edge"><title>Node0xfb3a8e0&#45;&gt;Node0xfb3aef0</title>
<path fill="none" stroke="black" d="M187.245,-1628.49C209.293,-1616.09 240.453,-1598.56 270.539,-1581.63"/>
<polygon fill="black" stroke="black" points="272.408,-1584.6 279.408,-1576.65 268.976,-1578.5 272.408,-1584.6"/>
<text text-anchor="middle" x="291.5" y="-1598.8" font-family="Times,serif" font-size="14.00">v17 != NULL</text>
</g>
<!-- Node0xfb3a730 -->
<g id="node6" class="node"><title>Node0xfb3a730</title>
<polygon fill="none" stroke="black" points="376,-23.5 376,-59.5 430,-59.5 430,-23.5 376,-23.5"/>
<text text-anchor="start" x="384" y="-37.8" font-family="Times,serif" font-size="14.00">exit:</text>
</g>
<!-- Node0xfb3b100&#45;&gt;Node0xfb3a730 -->
<g id="edge5" class="edge"><title>Node0xfb3b100&#45;&gt;Node0xfb3a730</title>
<path fill="none" stroke="black" d="M46,-1376.45C46,-1352.59 46,-1321.83 46,-1294.5 46,-1294.5 46,-1294.5 46,-138 46,-72.3507 274.139,-50.6331 365.667,-44.5618"/>
<polygon fill="black" stroke="black" points="366.116,-48.0404 375.874,-43.9124 365.672,-41.0545 366.116,-48.0404"/>
</g>
<!-- Node0xfb3afe0 -->
<g id="node7" class="node"><title>Node0xfb3afe0</title>
<polygon fill="none" stroke="black" points="300,-1319.5 300,-1357.5 430,-1357.5 430,-1319.5 300,-1319.5"/>
<text text-anchor="start" x="308" y="-1342.3" font-family="Times,serif" font-size="14.00">if (hWnd == 0):</text>
<text text-anchor="start" x="308" y="-1327.3" font-family="Times,serif" font-size="14.00"> else:</text>
</g>
<!-- Node0xfb3aef0&#45;&gt;Node0xfb3afe0 -->
<g id="edge6" class="edge"><title>Node0xfb3aef0&#45;&gt;Node0xfb3afe0</title>
<path fill="none" stroke="black" d="M365,-1478.34C365,-1443.41 365,-1397.35 365,-1368.07"/>
<polygon fill="black" stroke="black" points="368.5,-1367.72 365,-1357.72 361.5,-1367.72 368.5,-1367.72"/>
</g>
<!-- Node0xb9979c0 -->
<g id="node8" class="node"><title>Node0xb9979c0</title>
<polygon fill="none" stroke="black" points="302.5,-1214.5 302.5,-1267.5 775.5,-1267.5 775.5,-1214.5 302.5,-1214.5"/>
<text text-anchor="start" x="310.5" y="-1252.3" font-family="Times,serif" font-size="14.00">0x424271:</text>
<text text-anchor="start" x="310.5" y="-1237.3" font-family="Times,serif" font-size="14.00"> g1 = False</text>
<text text-anchor="start" x="310.5" y="-1222.3" font-family="Times,serif" font-size="14.00"> g207 = (((PtrToIntCastExpr&lt;int32&gt;(v18) &amp; 1) != 0) == False)</text>
</g>
<!-- Node0xfb3afe0&#45;&gt;Node0xb9979c0 -->
<g id="edge7" class="edge"><title>Node0xfb3afe0&#45;&gt;Node0xb9979c0</title>
<path fill="none" stroke="black" d="M398.138,-1319.31C422.249,-1306.08 455.461,-1287.85 483.581,-1272.42"/>
<polygon fill="black" stroke="black" points="485.431,-1275.39 492.513,-1267.51 482.063,-1269.26 485.431,-1275.39"/>
<text text-anchor="middle" x="500.5" y="-1289.8" font-family="Times,serif" font-size="14.00">hWnd == 0</text>
</g>
<!-- Node0xfb3c050 -->
<g id="node9" class="node"><title>Node0xfb3c050</title>
<polygon fill="none" stroke="black" points="61.5,-1157.5 61.5,-1195.5 486.5,-1195.5 486.5,-1157.5 61.5,-1157.5"/>
<text text-anchor="start" x="69.5" y="-1180.3" font-family="Times,serif" font-size="14.00">0x424262:</text>
<text text-anchor="start" x="69.5" y="-1165.3" font-family="Times,serif" font-size="14.00"> v1 = IsWindowEnabled(IntToPtrCastExpr&lt;ptr&gt;(hWnd))</text>
</g>
<!-- Node0xfb3afe0&#45;&gt;Node0xfb3c050 -->
<g id="edge8" class="edge"><title>Node0xfb3afe0&#45;&gt;Node0xfb3c050</title>
<path fill="none" stroke="black" d="M339.555,-1319.35C323.749,-1306.73 304.347,-1288.53 293,-1268 282.367,-1248.77 277.673,-1224.22 275.606,-1205.55"/>
<polygon fill="black" stroke="black" points="279.091,-1205.22 274.688,-1195.59 272.121,-1205.86 279.091,-1205.22"/>
<text text-anchor="middle" x="358.5" y="-1289.8" font-family="Times,serif" font-size="14.00">hWnd != 0</text>
</g>
<!-- Node0xfb37d90 -->
<g id="node10" class="node"><title>Node0xfb37d90</title>
<polygon fill="none" stroke="black" points="327,-1102.5 327,-1138.5 751,-1138.5 751,-1102.5 327,-1102.5"/>
<text text-anchor="start" x="335" y="-1116.8" font-family="Times,serif" font-size="14.00">if (((PtrToIntCastExpr&lt;int32&gt;(v18) &amp; 1) != 0) != False):</text>
</g>
<!-- Node0xb9979c0&#45;&gt;Node0xfb37d90 -->
<g id="edge9" class="edge"><title>Node0xb9979c0&#45;&gt;Node0xfb37d90</title>
<path fill="none" stroke="black" d="M539,-1214.29C539,-1194.99 539,-1168.61 539,-1148.92"/>
<polygon fill="black" stroke="black" points="542.5,-1148.75 539,-1138.75 535.5,-1148.75 542.5,-1148.75"/>
</g>
<!-- Node0xfb3c0d0 -->
<g id="node11" class="node"><title>Node0xfb3c0d0</title>
<polygon fill="none" stroke="black" points="221.5,-894.5 221.5,-930.5 312.5,-930.5 312.5,-894.5 221.5,-894.5"/>
<text text-anchor="start" x="229.5" y="-908.8" font-family="Times,serif" font-size="14.00">if not (v1):</text>
</g>
<!-- Node0xfb3c050&#45;&gt;Node0xfb3c0d0 -->
<g id="edge10" class="edge"><title>Node0xfb3c050&#45;&gt;Node0xfb3c0d0</title>
<path fill="none" stroke="black" d="M273.519,-1157.49C272.314,-1112.39 269.16,-994.362 267.727,-940.727"/>
<polygon fill="black" stroke="black" points="271.223,-940.507 267.457,-930.604 264.225,-940.694 271.223,-940.507"/>
</g>
<!-- Node0xedf1000 -->
<g id="node12" class="node"><title>Node0xedf1000</title>
<polygon fill="none" stroke="black" points="295,-982.5 295,-1050.5 843,-1050.5 843,-982.5 295,-982.5"/>
<text text-anchor="start" x="303" y="-1035.3" font-family="Times,serif" font-size="14.00">0x424275:</text>
<text text-anchor="start" x="303" y="-1020.3" font-family="Times,serif" font-size="14.00"> v14 = *(IntToPtrCastExpr&lt;ptr&gt;(v11))</text>
<text text-anchor="start" x="303" y="-1005.3" font-family="Times,serif" font-size="14.00"> v21 = *(IntToPtrCastExpr&lt;ptr&gt;(ExtCastExpr&lt;int32&gt;(((v14 &amp; 1) != 0))))</text>
<text text-anchor="start" x="303" y="-990.3" font-family="Times,serif" font-size="14.00"> IntToPtrCastExpr&lt;ptr&gt;(v21)()</text>
</g>
<!-- Node0xfb37d90&#45;&gt;Node0xedf1000 -->
<g id="edge11" class="edge"><title>Node0xfb37d90&#45;&gt;Node0xedf1000</title>
<path fill="none" stroke="black" d="M528.415,-1102.47C523.636,-1092.59 519.886,-1079.96 524,-1069 525.248,-1065.68 526.818,-1062.43 528.619,-1059.28"/>
<polygon fill="black" stroke="black" points="531.685,-1060.98 534.226,-1050.7 525.825,-1057.15 531.685,-1060.98"/>
<text text-anchor="middle" x="713.5" y="-1072.8" font-family="Times,serif" font-size="14.00">((PtrToIntCastExpr&lt;int32&gt;(v18) &amp; 1) != 0) != False</text>
</g>
<!-- Node0xfb37f20 -->
<g id="node13" class="node"><title>Node0xfb37f20</title>
<polygon fill="none" stroke="black" points="613,-774.5 613,-842.5 899,-842.5 899,-774.5 613,-774.5"/>
<text text-anchor="start" x="621" y="-827.3" font-family="Times,serif" font-size="14.00">0x424283:</text>
<text text-anchor="start" x="621" y="-812.3" font-family="Times,serif" font-size="14.00"> v8 = v7</text>
<text text-anchor="start" x="621" y="-797.3" font-family="Times,serif" font-size="14.00"> v19 = *(&amp;(v8[&#39;1&#39;]))</text>
<text text-anchor="start" x="621" y="-782.3" font-family="Times,serif" font-size="14.00"> g9 = PtrToIntCastExpr&lt;int32&gt;(v19)</text>
</g>
<!-- Node0xfb37d90&#45;&gt;Node0xfb37f20 -->
<g id="edge12" class="edge"><title>Node0xfb37d90&#45;&gt;Node0xfb37f20</title>
<path fill="none" stroke="black" d="M751.251,-1110.39C824.589,-1105.04 891.454,-1096.73 903,-1084 968.097,-1012.25 870.009,-906.428 805.311,-849.406"/>
<polygon fill="black" stroke="black" points="807.442,-846.621 797.599,-842.699 802.848,-851.903 807.442,-846.621"/>
<text text-anchor="middle" x="1095.5" y="-952.8" font-family="Times,serif" font-size="14.00">((PtrToIntCastExpr&lt;int32&gt;(v18) &amp; 1) != 0) == False</text>
</g>
<!-- Node0xfb3d4d0 -->
<g id="node14" class="node"><title>Node0xfb3d4d0</title>
<polygon fill="none" stroke="black" points="357,-672.5 357,-755.5 449,-755.5 449,-672.5 357,-672.5"/>
<text text-anchor="start" x="365" y="-740.3" font-family="Times,serif" font-size="14.00">0x42426d:</text>
<text text-anchor="start" x="365" y="-725.3" font-family="Times,serif" font-size="14.00"> g2 = 0</text>
<text text-anchor="start" x="365" y="-710.3" font-family="Times,serif" font-size="14.00"> v13 = v3</text>
<text text-anchor="start" x="365" y="-695.3" font-family="Times,serif" font-size="14.00"> g9 = v13</text>
<text text-anchor="start" x="365" y="-680.3" font-family="Times,serif" font-size="14.00"> return</text>
</g>
<!-- Node0xfb3c0d0&#45;&gt;Node0xfb3d4d0 -->
<g id="edge13" class="edge"><title>Node0xfb3c0d0&#45;&gt;Node0xfb3d4d0</title>
<path fill="none" stroke="black" d="M312.556,-896.1C337.653,-885.222 367.066,-868.061 384,-843 399.145,-820.586 404.247,-790.94 405.402,-765.823"/>
<polygon fill="black" stroke="black" points="408.903,-765.82 405.671,-755.73 401.906,-765.633 408.903,-765.82"/>
<text text-anchor="middle" x="395" y="-864.8" font-family="Times,serif" font-size="14.00">not (v1)</text>
</g>
<!-- Node0xfb3c600 -->
<g id="node15" class="node"><title>Node0xfb3c600</title>
<polygon fill="none" stroke="black" points="89,-774.5 89,-842.5 375,-842.5 375,-774.5 89,-774.5"/>
<text text-anchor="start" x="97" y="-827.3" font-family="Times,serif" font-size="14.00">0x424283:</text>
<text text-anchor="start" x="97" y="-812.3" font-family="Times,serif" font-size="14.00"> v8 = v7</text>
<text text-anchor="start" x="97" y="-797.3" font-family="Times,serif" font-size="14.00"> v19 = *(&amp;(v8[&#39;1&#39;]))</text>
<text text-anchor="start" x="97" y="-782.3" font-family="Times,serif" font-size="14.00"> g9 = PtrToIntCastExpr&lt;int32&gt;(v19)</text>
</g>
<!-- Node0xfb3c0d0&#45;&gt;Node0xfb3c600 -->
<g id="edge14" class="edge"><title>Node0xfb3c0d0&#45;&gt;Node0xfb3c600</title>
<path fill="none" stroke="black" d="M261.063,-894.197C257.095,-882.634 251.692,-866.888 246.621,-852.109"/>
<polygon fill="black" stroke="black" points="249.911,-850.913 243.354,-842.59 243.29,-853.185 249.911,-850.913"/>
<text text-anchor="middle" x="264" y="-864.8" font-family="Times,serif" font-size="14.00">v1</text>
</g>
<!-- Node0xfb3cd40 -->
<g id="node16" class="node"><title>Node0xfb3cd40</title>
<polygon fill="none" stroke="black" points="494.5,-894.5 494.5,-930.5 643.5,-930.5 643.5,-894.5 494.5,-894.5"/>
<text text-anchor="start" x="502.5" y="-908.8" font-family="Times,serif" font-size="14.00">if ((v14 &amp; 1) != 0):</text>
</g>
<!-- Node0xedf1000&#45;&gt;Node0xfb3cd40 -->
<g id="edge15" class="edge"><title>Node0xedf1000&#45;&gt;Node0xfb3cd40</title>
<path fill="none" stroke="black" d="M569,-982.384C569,-968.932 569,-953.579 569,-940.787"/>
<polygon fill="black" stroke="black" points="572.5,-940.742 569,-930.742 565.5,-940.742 572.5,-940.742"/>
</g>
<!-- Node0xfb3ba60 -->
<g id="node17" class="node"><title>Node0xfb3ba60</title>
<polygon fill="none" stroke="black" points="681.5,-617.5 681.5,-653.5 830.5,-653.5 830.5,-617.5 681.5,-617.5"/>
<text text-anchor="start" x="689.5" y="-631.8" font-family="Times,serif" font-size="14.00">if (v19 == NULL):</text>
</g>
<!-- Node0xfb37f20&#45;&gt;Node0xfb3ba60 -->
<g id="edge16" class="edge"><title>Node0xfb37f20&#45;&gt;Node0xfb3ba60</title>
<path fill="none" stroke="black" d="M756,-774.124C756,-741.921 756,-693.768 756,-663.791"/>
<polygon fill="black" stroke="black" points="759.5,-663.632 756,-653.632 752.5,-663.632 759.5,-663.632"/>
</g>
<!-- Node0xfb3d4d0&#45;&gt;Node0xfb3a730 -->
<g id="edge17" class="edge"><title>Node0xfb3d4d0&#45;&gt;Node0xfb3a730</title>
<path fill="none" stroke="black" d="M403,-672.207C403,-640.949 403,-596.75 403,-558 403,-558 403,-558 403,-138 403,-115.025 403,-88.94 403,-69.8443"/>
<polygon fill="black" stroke="black" points="406.5,-69.7523 403,-59.7523 399.5,-69.7523 406.5,-69.7523"/>
</g>
<!-- Node0xfb3c660 -->
<g id="node18" class="node"><title>Node0xfb3c660</title>
<polygon fill="none" stroke="black" points="157.5,-617.5 157.5,-653.5 306.5,-653.5 306.5,-617.5 157.5,-617.5"/>
<text text-anchor="start" x="165.5" y="-631.8" font-family="Times,serif" font-size="14.00">if (v19 == NULL):</text>
</g>
<!-- Node0xfb3c600&#45;&gt;Node0xfb3c660 -->
<g id="edge18" class="edge"><title>Node0xfb3c600&#45;&gt;Node0xfb3c660</title>
<path fill="none" stroke="black" d="M232,-774.124C232,-741.921 232,-693.768 232,-663.791"/>
<polygon fill="black" stroke="black" points="235.5,-663.632 232,-653.632 228.5,-663.632 235.5,-663.632"/>
</g>
<!-- Node0xfb3cd40&#45;&gt;Node0xfb37f20 -->
<g id="edge20" class="edge"><title>Node0xfb3cd40&#45;&gt;Node0xfb37f20</title>
<path fill="none" stroke="black" d="M600.3,-894.427C623.762,-881.63 656.787,-863.616 686.389,-847.47"/>
<polygon fill="black" stroke="black" points="688.348,-850.388 695.451,-842.527 684.996,-844.243 688.348,-850.388"/>
<text text-anchor="middle" x="712" y="-864.8" font-family="Times,serif" font-size="14.00">(v14 &amp; 1) == 0</text>
</g>
<!-- Node0xfb3d870 -->
<g id="node19" class="node"><title>Node0xfb3d870</title>
<polygon fill="none" stroke="black" points="425,-515.5 425,-598.5 517,-598.5 517,-515.5 425,-515.5"/>
<text text-anchor="start" x="433" y="-583.3" font-family="Times,serif" font-size="14.00">0x42426d:</text>
<text text-anchor="start" x="433" y="-568.3" font-family="Times,serif" font-size="14.00"> g2 = 0</text>
<text text-anchor="start" x="433" y="-553.3" font-family="Times,serif" font-size="14.00"> v13 = v3</text>
<text text-anchor="start" x="433" y="-538.3" font-family="Times,serif" font-size="14.00"> g9 = v13</text>
<text text-anchor="start" x="433" y="-523.3" font-family="Times,serif" font-size="14.00"> return</text>
</g>
<!-- Node0xfb3cd40&#45;&gt;Node0xfb3d870 -->
<g id="edge19" class="edge"><title>Node0xfb3cd40&#45;&gt;Node0xfb3d870</title>
<path fill="none" stroke="black" d="M544.589,-894.386C529.02,-882.021 509.959,-863.871 500,-843 463.933,-767.416 462.767,-667.957 466.192,-608.734"/>
<polygon fill="black" stroke="black" points="469.7,-608.72 466.852,-598.515 462.715,-608.269 469.7,-608.72"/>
<text text-anchor="middle" x="552" y="-804.8" font-family="Times,serif" font-size="14.00">(v14 &amp; 1) != 0</text>
</g>
<!-- Node0xfb3d330 -->
<g id="node20" class="node"><title>Node0xfb3d330</title>
<polygon fill="none" stroke="black" points="720,-199.5 720,-282.5 812,-282.5 812,-199.5 720,-199.5"/>
<text text-anchor="start" x="728" y="-267.3" font-family="Times,serif" font-size="14.00">0x42426d:</text>
<text text-anchor="start" x="728" y="-252.3" font-family="Times,serif" font-size="14.00"> g2 = 0</text>
<text text-anchor="start" x="728" y="-237.3" font-family="Times,serif" font-size="14.00"> v13 = v3</text>
<text text-anchor="start" x="728" y="-222.3" font-family="Times,serif" font-size="14.00"> g9 = v13</text>
<text text-anchor="start" x="728" y="-207.3" font-family="Times,serif" font-size="14.00"> return</text>
</g>
<!-- Node0xfb3ba60&#45;&gt;Node0xfb3d330 -->
<g id="edge21" class="edge"><title>Node0xfb3ba60&#45;&gt;Node0xfb3d330</title>
<path fill="none" stroke="black" d="M756.436,-617.382C757.864,-561.32 762.44,-381.737 764.705,-292.837"/>
<polygon fill="black" stroke="black" points="768.207,-292.804 764.963,-282.718 761.209,-292.625 768.207,-292.804"/>
<text text-anchor="middle" x="811.5" y="-473.8" font-family="Times,serif" font-size="14.00">v19 == NULL</text>
</g>
<!-- Node0xfb3bbf0 -->
<g id="node21" class="node"><title>Node0xfb3bbf0</title>
<polygon fill="none" stroke="black" points="564,-458.5 564,-496.5 718,-496.5 718,-458.5 564,-458.5"/>
<text text-anchor="start" x="572" y="-481.3" font-family="Times,serif" font-size="14.00">0x42428a:</text>
<text text-anchor="start" x="572" y="-466.3" font-family="Times,serif" font-size="14.00"> v20 = *(&amp;(v8[&#39;3&#39;]))</text>
</g>
<!-- Node0xfb3ba60&#45;&gt;Node0xfb3bbf0 -->
<g id="edge22" class="edge"><title>Node0xfb3ba60&#45;&gt;Node0xfb3bbf0</title>
<path fill="none" stroke="black" d="M681.25,-620.863C669.983,-615.725 659.607,-608.673 652,-599 631.569,-573.022 632.095,-533.465 635.537,-506.829"/>
<polygon fill="black" stroke="black" points="639.045,-507.035 637.078,-496.625 632.124,-505.99 639.045,-507.035"/>
<text text-anchor="middle" x="700.5" y="-553.3" font-family="Times,serif" font-size="14.00">v19 != NULL</text>
</g>
<!-- Node0xfb3d720 -->
<g id="node22" class="node"><title>Node0xfb3d720</title>
<polygon fill="none" stroke="black" points="267,-356.5 267,-439.5 359,-439.5 359,-356.5 267,-356.5"/>
<text text-anchor="start" x="275" y="-424.3" font-family="Times,serif" font-size="14.00">0x42426d:</text>
<text text-anchor="start" x="275" y="-409.3" font-family="Times,serif" font-size="14.00"> g2 = 0</text>
<text text-anchor="start" x="275" y="-394.3" font-family="Times,serif" font-size="14.00"> v13 = v3</text>
<text text-anchor="start" x="275" y="-379.3" font-family="Times,serif" font-size="14.00"> g9 = v13</text>
<text text-anchor="start" x="275" y="-364.3" font-family="Times,serif" font-size="14.00"> return</text>
</g>
<!-- Node0xfb3c660&#45;&gt;Node0xfb3d720 -->
<g id="edge23" class="edge"><title>Node0xfb3c660&#45;&gt;Node0xfb3d720</title>
<path fill="none" stroke="black" d="M249.898,-617.311C254.746,-611.853 259.59,-605.527 263,-599 266.518,-592.267 287.367,-506.472 301.008,-449.462"/>
<polygon fill="black" stroke="black" points="304.462,-450.067 303.382,-439.528 297.654,-448.44 304.462,-450.067"/>
<text text-anchor="middle" x="336.5" y="-553.3" font-family="Times,serif" font-size="14.00">v19 == NULL</text>
</g>
<!-- Node0xfb3c990 -->
<g id="node23" class="node"><title>Node0xfb3c990</title>
<polygon fill="none" stroke="black" points="88,-458.5 88,-496.5 242,-496.5 242,-458.5 88,-458.5"/>
<text text-anchor="start" x="96" y="-481.3" font-family="Times,serif" font-size="14.00">0x42428a:</text>
<text text-anchor="start" x="96" y="-466.3" font-family="Times,serif" font-size="14.00"> v20 = *(&amp;(v8[&#39;3&#39;]))</text>
</g>
<!-- Node0xfb3c660&#45;&gt;Node0xfb3c990 -->
<g id="edge24" class="edge"><title>Node0xfb3c660&#45;&gt;Node0xfb3c990</title>
<path fill="none" stroke="black" d="M184.89,-617.44C177.369,-612.631 170.57,-606.576 166,-599 149.189,-571.132 152.44,-532.636 157.579,-506.72"/>
<polygon fill="black" stroke="black" points="161.034,-507.303 159.762,-496.785 154.197,-505.8 161.034,-507.303"/>
<text text-anchor="middle" x="214.5" y="-553.3" font-family="Times,serif" font-size="14.00">v19 != NULL</text>
</g>
<!-- Node0xfb3d870&#45;&gt;Node0xfb3a730 -->
<g id="edge25" class="edge"><title>Node0xfb3d870&#45;&gt;Node0xfb3a730</title>
<path fill="none" stroke="black" d="M458.884,-515.415C450.558,-483.951 441,-439.099 441,-399 441,-399 441,-399 441,-138 441,-113.118 429.726,-87.008 419.459,-68.3902"/>
<polygon fill="black" stroke="black" points="422.435,-66.5445 414.401,-59.6374 416.374,-70.0469 422.435,-66.5445"/>
</g>
<!-- Node0xfb3d330&#45;&gt;Node0xfb3a730 -->
<g id="edge26" class="edge"><title>Node0xfb3d330&#45;&gt;Node0xfb3a730</title>
<path fill="none" stroke="black" d="M752.14,-199.261C738.828,-166.465 715.454,-121.875 680,-97 641.725,-70.1457 506.642,-53.0476 440.31,-46.0796"/>
<polygon fill="black" stroke="black" points="440.585,-42.5896 430.28,-45.0483 439.869,-49.5529 440.585,-42.5896"/>
</g>
<!-- Node0xb993d70 -->
<g id="node24" class="node"><title>Node0xb993d70</title>
<polygon fill="none" stroke="black" points="554.5,-301.5 554.5,-337.5 695.5,-337.5 695.5,-301.5 554.5,-301.5"/>
<text text-anchor="start" x="562.5" y="-315.8" font-family="Times,serif" font-size="14.00">if (v20 == 8192):</text>
</g>
<!-- Node0xfb3bbf0&#45;&gt;Node0xb993d70 -->
<g id="edge27" class="edge"><title>Node0xfb3bbf0&#45;&gt;Node0xb993d70</title>
<path fill="none" stroke="black" d="M639.133,-458.3C636.346,-431.123 631.076,-379.741 627.818,-347.978"/>
<polygon fill="black" stroke="black" points="631.259,-347.223 626.757,-337.633 624.296,-347.938 631.259,-347.223"/>
</g>
<!-- Node0xfb3d720&#45;&gt;Node0xfb3a730 -->
<g id="edge28" class="edge"><title>Node0xfb3d720&#45;&gt;Node0xfb3a730</title>
<path fill="none" stroke="black" d="M328.108,-356.252C335.713,-334.691 344.641,-307.645 351,-283 374.151,-193.275 363.44,-167.068 389,-78 389.85,-75.0388 390.853,-71.9821 391.925,-68.9623"/>
<polygon fill="black" stroke="black" points="395.201,-70.1945 395.486,-59.6034 388.659,-67.7055 395.201,-70.1945"/>
</g>
<!-- Node0xfb3c9f0 -->
<g id="node25" class="node"><title>Node0xfb3c9f0</title>
<polygon fill="none" stroke="black" points="94.5,-301.5 94.5,-337.5 235.5,-337.5 235.5,-301.5 94.5,-301.5"/>
<text text-anchor="start" x="102.5" y="-315.8" font-family="Times,serif" font-size="14.00">if (v20 == 8192):</text>
</g>
<!-- Node0xfb3c990&#45;&gt;Node0xfb3c9f0 -->
<g id="edge29" class="edge"><title>Node0xfb3c990&#45;&gt;Node0xfb3c9f0</title>
<path fill="none" stroke="black" d="M165,-458.3C165,-431.123 165,-379.741 165,-347.978"/>
<polygon fill="black" stroke="black" points="168.5,-347.633 165,-337.633 161.5,-347.633 168.5,-347.633"/>
</g>
<!-- Node0xfb3d3e0 -->
<g id="node26" class="node"><title>Node0xfb3d3e0</title>
<polygon fill="none" stroke="black" points="469,-97.5 469,-180.5 561,-180.5 561,-97.5 469,-97.5"/>
<text text-anchor="start" x="477" y="-165.3" font-family="Times,serif" font-size="14.00">0x42426d:</text>
<text text-anchor="start" x="477" y="-150.3" font-family="Times,serif" font-size="14.00"> g2 = 0</text>
<text text-anchor="start" x="477" y="-135.3" font-family="Times,serif" font-size="14.00"> v13 = v3</text>
<text text-anchor="start" x="477" y="-120.3" font-family="Times,serif" font-size="14.00"> g9 = v13</text>
<text text-anchor="start" x="477" y="-105.3" font-family="Times,serif" font-size="14.00"> return</text>
</g>
<!-- Node0xb993d70&#45;&gt;Node0xfb3d3e0 -->
<g id="edge30" class="edge"><title>Node0xb993d70&#45;&gt;Node0xfb3d3e0</title>
<path fill="none" stroke="black" d="M554.41,-307.611C541.03,-302.313 528.56,-294.5 520,-283 500.695,-257.064 499.727,-220.537 503.441,-190.892"/>
<polygon fill="black" stroke="black" points="506.945,-191.123 504.928,-180.722 500.018,-190.111 506.945,-191.123"/>
<text text-anchor="middle" x="568" y="-237.3" font-family="Times,serif" font-size="14.00">v20 == 8192</text>
</g>
<!-- Node0xfb3bf60 -->
<g id="node27" class="node"><title>Node0xfb3bf60</title>
<polygon fill="none" stroke="black" points="579,-97.5 579,-180.5 671,-180.5 671,-97.5 579,-97.5"/>
<text text-anchor="start" x="587" y="-165.3" font-family="Times,serif" font-size="14.00">0x424292:</text>
<text text-anchor="start" x="587" y="-150.3" font-family="Times,serif" font-size="14.00"> g2 = 1</text>
<text text-anchor="start" x="587" y="-135.3" font-family="Times,serif" font-size="14.00"> v15 = v3</text>
<text text-anchor="start" x="587" y="-120.3" font-family="Times,serif" font-size="14.00"> g9 = v15</text>
<text text-anchor="start" x="587" y="-105.3" font-family="Times,serif" font-size="14.00"> return</text>
</g>
<!-- Node0xb993d70&#45;&gt;Node0xfb3bf60 -->
<g id="edge31" class="edge"><title>Node0xb993d70&#45;&gt;Node0xfb3bf60</title>
<path fill="none" stroke="black" d="M622.657,-301.199C621.98,-295.423 621.334,-288.945 621,-283 618.907,-245.725 619.737,-236.312 621,-199 621.091,-196.303 621.206,-193.539 621.338,-190.748"/>
<polygon fill="black" stroke="black" points="624.842,-190.78 621.885,-180.607 617.852,-190.404 624.842,-190.78"/>
<text text-anchor="middle" x="666" y="-237.3" font-family="Times,serif" font-size="14.00">v20 != 8192</text>
</g>
<!-- Node0xfb3d7a0 -->
<g id="node28" class="node"><title>Node0xfb3d7a0</title>
<polygon fill="none" stroke="black" points="235,-97.5 235,-180.5 327,-180.5 327,-97.5 235,-97.5"/>
<text text-anchor="start" x="243" y="-165.3" font-family="Times,serif" font-size="14.00">0x42426d:</text>
<text text-anchor="start" x="243" y="-150.3" font-family="Times,serif" font-size="14.00"> g2 = 0</text>
<text text-anchor="start" x="243" y="-135.3" font-family="Times,serif" font-size="14.00"> v13 = v3</text>
<text text-anchor="start" x="243" y="-120.3" font-family="Times,serif" font-size="14.00"> g9 = v13</text>
<text text-anchor="start" x="243" y="-105.3" font-family="Times,serif" font-size="14.00"> return</text>
</g>
<!-- Node0xfb3c9f0&#45;&gt;Node0xfb3d7a0 -->
<g id="edge32" class="edge"><title>Node0xfb3c9f0&#45;&gt;Node0xfb3d7a0</title>
<path fill="none" stroke="black" d="M209.898,-301.309C218.182,-296.441 226.074,-290.397 232,-283 256.201,-252.791 242.049,-235.477 255,-199 256.034,-196.088 257.147,-193.117 258.311,-190.135"/>
<polygon fill="black" stroke="black" points="261.652,-191.211 262.163,-180.628 255.164,-188.582 261.652,-191.211"/>
<text text-anchor="middle" x="303" y="-237.3" font-family="Times,serif" font-size="14.00">v20 == 8192</text>
</g>
<!-- Node0xfb3cce0 -->
<g id="node29" class="node"><title>Node0xfb3cce0</title>
<polygon fill="none" stroke="black" points="105,-97.5 105,-180.5 197,-180.5 197,-97.5 105,-97.5"/>
<text text-anchor="start" x="113" y="-165.3" font-family="Times,serif" font-size="14.00">0x424292:</text>
<text text-anchor="start" x="113" y="-150.3" font-family="Times,serif" font-size="14.00"> g2 = 1</text>
<text text-anchor="start" x="113" y="-135.3" font-family="Times,serif" font-size="14.00"> v15 = v3</text>
<text text-anchor="start" x="113" y="-120.3" font-family="Times,serif" font-size="14.00"> g9 = v15</text>
<text text-anchor="start" x="113" y="-105.3" font-family="Times,serif" font-size="14.00"> return</text>
</g>
<!-- Node0xfb3c9f0&#45;&gt;Node0xfb3cce0 -->
<g id="edge33" class="edge"><title>Node0xfb3c9f0&#45;&gt;Node0xfb3cce0</title>
<path fill="none" stroke="black" d="M151.135,-301.436C147.425,-295.886 143.915,-289.479 142,-283 133.175,-253.15 135.128,-218.315 139.43,-190.5"/>
<polygon fill="black" stroke="black" points="142.889,-191.036 141.106,-180.592 135.987,-189.869 142.889,-191.036"/>
<text text-anchor="middle" x="187" y="-237.3" font-family="Times,serif" font-size="14.00">v20 != 8192</text>
</g>
<!-- Node0xfb3d3e0&#45;&gt;Node0xfb3a730 -->
<g id="edge34" class="edge"><title>Node0xfb3d3e0&#45;&gt;Node0xfb3a730</title>
<path fill="none" stroke="black" d="M476.295,-97.2127C469.407,-90.565 462.145,-83.9233 455,-78 449.798,-73.6876 444.077,-69.3881 438.39,-65.3466"/>
<polygon fill="black" stroke="black" points="440.362,-62.4543 430.148,-59.6385 436.376,-68.2091 440.362,-62.4543"/>
</g>
<!-- Node0xfb3bf60&#45;&gt;Node0xfb3a730 -->
<g id="edge35" class="edge"><title>Node0xfb3bf60&#45;&gt;Node0xfb3a730</title>
<path fill="none" stroke="black" d="M578.876,-102.015C575.932,-100.223 572.961,-98.534 570,-97 527.608,-75.037 474.613,-59.5552 439.836,-50.8409"/>
<polygon fill="black" stroke="black" points="440.642,-47.4351 430.097,-48.4584 438.979,-54.2346 440.642,-47.4351"/>
</g>
<!-- Node0xfb3d7a0&#45;&gt;Node0xfb3a730 -->
<g id="edge36" class="edge"><title>Node0xfb3d7a0&#45;&gt;Node0xfb3a730</title>
<path fill="none" stroke="black" d="M327.1,-97.2521C334.955,-90.6674 343.123,-84.0359 351,-78 356.48,-73.8011 362.421,-69.5133 368.262,-65.4361"/>
<polygon fill="black" stroke="black" points="370.424,-68.1969 376.683,-59.648 366.459,-62.4281 370.424,-68.1969"/>
</g>
<!-- Node0xfb3cce0&#45;&gt;Node0xfb3a730 -->
<g id="edge37" class="edge"><title>Node0xfb3cce0&#45;&gt;Node0xfb3a730</title>
<path fill="none" stroke="black" d="M197.089,-110.918C206.486,-105.936 216.43,-101.04 226,-97 272.976,-77.1671 329.677,-60.9914 366.026,-51.5529"/>
<polygon fill="black" stroke="black" points="366.894,-54.9435 375.713,-49.072 365.157,-48.1624 366.894,-54.9435"/>
</g>
</g>
</svg>
