<?xml version="1.0" encoding="UTF-8" standalone="no"?>
<!DOCTYPE svg PUBLIC "-//W3C//DTD SVG 1.1//EN"
 "http://www.w3.org/Graphics/SVG/1.1/DTD/svg11.dtd">
<!-- Generated by graphviz version 2.38.0 (20140413.2041)
 -->
<!-- Title: Control&#45;flow graph for function &#39;function_41c25c(*a1, *a2, a3, a4)&#39;. Pages: 1 -->
<svg width="828pt" height="1966pt"
 viewBox="0.00 0.00 828.00 1966.00" xmlns="http://www.w3.org/2000/svg" xmlns:xlink="http://www.w3.org/1999/xlink">
<g id="graph0" class="graph" transform="scale(1 1) rotate(0) translate(4 1962)">
<title>Control&#45;flow graph for function &#39;function_41c25c(*a1, *a2, a3, a4)&#39;.</title>
<polygon fill="white" stroke="none" points="-4,4 -4,-1962 824,-1962 824,4 -4,4"/>
<text text-anchor="middle" x="410" y="-7.8" font-family="Times,serif" font-size="14.00">Control&#45;flow graph for function &#39;function_41c25c(*a1, *a2, a3, a4)&#39;.</text>
<!-- Node0xf6a7710 -->
<g id="node1" class="node"><title>Node0xf6a7710</title>
<polygon fill="none" stroke="black" points="418.5,-1874.5 418.5,-1957.5 477.5,-1957.5 477.5,-1874.5 418.5,-1874.5"/>
<text text-anchor="start" x="426.5" y="-1942.3" font-family="Times,serif" font-size="14.00">entry:</text>
<text text-anchor="start" x="426.5" y="-1927.3" font-family="Times,serif" font-size="14.00"> a1</text>
<text text-anchor="start" x="426.5" y="-1912.3" font-family="Times,serif" font-size="14.00"> a2</text>
<text text-anchor="start" x="426.5" y="-1897.3" font-family="Times,serif" font-size="14.00"> a3</text>
<text text-anchor="start" x="426.5" y="-1882.3" font-family="Times,serif" font-size="14.00"> a4</text>
</g>
<!-- Node0xf6a8310 -->
<g id="node2" class="node"><title>Node0xf6a8310</title>
<polygon fill="none" stroke="black" points="284,-973.5 284,-1836.5 612,-1836.5 612,-973.5 284,-973.5"/>
<text text-anchor="start" x="292" y="-1821.3" font-family="Times,serif" font-size="14.00">v1</text>
<text text-anchor="start" x="292" y="-1806.3" font-family="Times,serif" font-size="14.00"> v2</text>
<text text-anchor="start" x="292" y="-1791.3" font-family="Times,serif" font-size="14.00"> v3</text>
<text text-anchor="start" x="292" y="-1776.3" font-family="Times,serif" font-size="14.00"> v4</text>
<text text-anchor="start" x="292" y="-1761.3" font-family="Times,serif" font-size="14.00"> v5</text>
<text text-anchor="start" x="292" y="-1746.3" font-family="Times,serif" font-size="14.00"> v6</text>
<text text-anchor="start" x="292" y="-1731.3" font-family="Times,serif" font-size="14.00"> v7</text>
<text text-anchor="start" x="292" y="-1716.3" font-family="Times,serif" font-size="14.00"> hMem</text>
<text text-anchor="start" x="292" y="-1701.3" font-family="Times,serif" font-size="14.00"> v8</text>
<text text-anchor="start" x="292" y="-1686.3" font-family="Times,serif" font-size="14.00"> v9</text>
<text text-anchor="start" x="292" y="-1671.3" font-family="Times,serif" font-size="14.00"> v10</text>
<text text-anchor="start" x="292" y="-1656.3" font-family="Times,serif" font-size="14.00"> v11</text>
<text text-anchor="start" x="292" y="-1641.3" font-family="Times,serif" font-size="14.00"> result</text>
<text text-anchor="start" x="292" y="-1626.3" font-family="Times,serif" font-size="14.00"> v12</text>
<text text-anchor="start" x="292" y="-1611.3" font-family="Times,serif" font-size="14.00"> v13</text>
<text text-anchor="start" x="292" y="-1596.3" font-family="Times,serif" font-size="14.00"> v14</text>
<text text-anchor="start" x="292" y="-1581.3" font-family="Times,serif" font-size="14.00"> v15</text>
<text text-anchor="start" x="292" y="-1566.3" font-family="Times,serif" font-size="14.00"> v16</text>
<text text-anchor="start" x="292" y="-1551.3" font-family="Times,serif" font-size="14.00"> v17</text>
<text text-anchor="start" x="292" y="-1536.3" font-family="Times,serif" font-size="14.00"> v18</text>
<text text-anchor="start" x="292" y="-1521.3" font-family="Times,serif" font-size="14.00"> v19</text>
<text text-anchor="start" x="292" y="-1506.3" font-family="Times,serif" font-size="14.00"> v20</text>
<text text-anchor="start" x="292" y="-1491.3" font-family="Times,serif" font-size="14.00"> v21</text>
<text text-anchor="start" x="292" y="-1476.3" font-family="Times,serif" font-size="14.00"> v22</text>
<text text-anchor="start" x="292" y="-1461.3" font-family="Times,serif" font-size="14.00"> v23</text>
<text text-anchor="start" x="292" y="-1446.3" font-family="Times,serif" font-size="14.00"> v24</text>
<text text-anchor="start" x="292" y="-1431.3" font-family="Times,serif" font-size="14.00"> v25</text>
<text text-anchor="start" x="292" y="-1416.3" font-family="Times,serif" font-size="14.00"> v26</text>
<text text-anchor="start" x="292" y="-1401.3" font-family="Times,serif" font-size="14.00"> v27</text>
<text text-anchor="start" x="292" y="-1386.3" font-family="Times,serif" font-size="14.00"> v28</text>
<text text-anchor="start" x="292" y="-1371.3" font-family="Times,serif" font-size="14.00"> v29</text>
<text text-anchor="start" x="292" y="-1356.3" font-family="Times,serif" font-size="14.00"> v30</text>
<text text-anchor="start" x="292" y="-1341.3" font-family="Times,serif" font-size="14.00"> v31</text>
<text text-anchor="start" x="292" y="-1326.3" font-family="Times,serif" font-size="14.00"> dwBytes</text>
<text text-anchor="start" x="292" y="-1311.3" font-family="Times,serif" font-size="14.00"> v32</text>
<text text-anchor="start" x="292" y="-1296.3" font-family="Times,serif" font-size="14.00"> v33</text>
<text text-anchor="start" x="292" y="-1281.3" font-family="Times,serif" font-size="14.00"> v34</text>
<text text-anchor="start" x="292" y="-1266.3" font-family="Times,serif" font-size="14.00"> hMem2</text>
<text text-anchor="start" x="292" y="-1251.3" font-family="Times,serif" font-size="14.00"> v35</text>
<text text-anchor="start" x="292" y="-1236.3" font-family="Times,serif" font-size="14.00"> v36</text>
<text text-anchor="start" x="292" y="-1221.3" font-family="Times,serif" font-size="14.00"> v37</text>
<text text-anchor="start" x="292" y="-1206.3" font-family="Times,serif" font-size="14.00"> v38</text>
<text text-anchor="start" x="292" y="-1191.3" font-family="Times,serif" font-size="14.00"> v39</text>
<text text-anchor="start" x="292" y="-1176.3" font-family="Times,serif" font-size="14.00"> v40</text>
<text text-anchor="start" x="292" y="-1161.3" font-family="Times,serif" font-size="14.00"> v17 = v18</text>
<text text-anchor="start" x="292" y="-1146.3" font-family="Times,serif" font-size="14.00"> v13 = v14</text>
<text text-anchor="start" x="292" y="-1131.3" font-family="Times,serif" font-size="14.00"> v22 = v23</text>
<text text-anchor="start" x="292" y="-1116.3" font-family="Times,serif" font-size="14.00"> v27 = v28</text>
<text text-anchor="start" x="292" y="-1101.3" font-family="Times,serif" font-size="14.00"> v27 = a1</text>
<text text-anchor="start" x="292" y="-1086.3" font-family="Times,serif" font-size="14.00"> v30 = g9</text>
<text text-anchor="start" x="292" y="-1071.3" font-family="Times,serif" font-size="14.00"> v20 = v30</text>
<text text-anchor="start" x="292" y="-1056.3" font-family="Times,serif" font-size="14.00"> v2 = PtrToIntCastExpr&lt;int32&gt;(&amp;(v20))</text>
<text text-anchor="start" x="292" y="-1041.3" font-family="Times,serif" font-size="14.00"> g10 = v2</text>
<text text-anchor="start" x="292" y="-1026.3" font-family="Times,serif" font-size="14.00"> v31 = g5</text>
<text text-anchor="start" x="292" y="-1011.3" font-family="Times,serif" font-size="14.00"> g9 = v31</text>
<text text-anchor="start" x="292" y="-996.3" font-family="Times,serif" font-size="14.00"> v7 = (PtrToIntCastExpr&lt;int32&gt;(a2) + 64)</text>
<text text-anchor="start" x="292" y="-981.3" font-family="Times,serif" font-size="14.00"> *(IntToPtrCastExpr&lt;ptr&gt;((v31 + 4))) = a2</text>
</g>
<!-- Node0xf6a7710&#45;&gt;Node0xf6a8310 -->
<g id="edge1" class="edge"><title>Node0xf6a7710&#45;&gt;Node0xf6a8310</title>
<path fill="none" stroke="black" d="M448,-1874.21C448,-1866.07 448,-1856.9 448,-1846.88"/>
<polygon fill="black" stroke="black" points="451.5,-1846.58 448,-1836.58 444.5,-1846.58 451.5,-1846.58"/>
</g>
<!-- Node0xf6b3960 -->
<g id="node3" class="node"><title>Node0xf6b3960</title>
<polygon fill="none" stroke="black" points="297,-899.5 297,-935.5 599,-935.5 599,-899.5 297,-899.5"/>
<text text-anchor="start" x="305" y="-913.8" font-family="Times,serif" font-size="14.00">if (a2 &lt;= IntToPtrCastExpr&lt;ptr&gt;(&#45;65)):</text>
</g>
<!-- Node0xf6a8310&#45;&gt;Node0xf6b3960 -->
<g id="edge2" class="edge"><title>Node0xf6a8310&#45;&gt;Node0xf6b3960</title>
<path fill="none" stroke="black" d="M448,-973.249C448,-962.74 448,-953.442 448,-945.627"/>
<polygon fill="black" stroke="black" points="451.5,-945.597 448,-935.597 444.5,-945.597 451.5,-945.597"/>
</g>
<!-- Node0xf6b2ab0 -->
<g id="node4" class="node"><title>Node0xf6b2ab0</title>
<polygon fill="none" stroke="black" points="150,-734.5 150,-847.5 466,-847.5 466,-734.5 150,-734.5"/>
<text text-anchor="start" x="158" y="-832.3" font-family="Times,serif" font-size="14.00">0x41c271:</text>
<text text-anchor="start" x="158" y="-817.3" font-family="Times,serif" font-size="14.00"> dwBytes = v7</text>
<text text-anchor="start" x="158" y="-802.3" font-family="Times,serif" font-size="14.00"> v22 = IntToPtrCastExpr&lt;ptr&gt;(dwBytes)</text>
<text text-anchor="start" x="158" y="-787.3" font-family="Times,serif" font-size="14.00"> hMem = GlobalAlloc(64, dwBytes)</text>
<text text-anchor="start" x="158" y="-772.3" font-family="Times,serif" font-size="14.00"> g10 = v2</text>
<text text-anchor="start" x="158" y="-757.3" font-family="Times,serif" font-size="14.00"> v32 = g9</text>
<text text-anchor="start" x="158" y="-742.3" font-family="Times,serif" font-size="14.00"> *(IntToPtrCastExpr&lt;ptr&gt;(v32)) = hMem</text>
</g>
<!-- Node0xf6b3960&#45;&gt;Node0xf6b2ab0 -->
<g id="edge3" class="edge"><title>Node0xf6b3960&#45;&gt;Node0xf6b2ab0</title>
<path fill="none" stroke="black" d="M346.803,-899.468C329.282,-894.513 314.809,-888.393 309,-881 303.648,-874.188 300.592,-866.092 299.083,-857.6"/>
<polygon fill="black" stroke="black" points="302.545,-857.062 297.978,-847.502 295.587,-857.824 302.545,-857.062"/>
<text text-anchor="middle" x="437.5" y="-869.8" font-family="Times,serif" font-size="14.00">a2 &lt;= IntToPtrCastExpr&lt;ptr&gt;(&#45;65)</text>
</g>
<!-- Node0xf6ad7d0 -->
<g id="node5" class="node"><title>Node0xf6ad7d0</title>
<polygon fill="none" stroke="black" points="531.5,-632.5 531.5,-715.5 644.5,-715.5 644.5,-632.5 531.5,-632.5"/>
<text text-anchor="start" x="539.5" y="-700.3" font-family="Times,serif" font-size="14.00">0x41c26d:</text>
<text text-anchor="start" x="539.5" y="-685.3" font-family="Times,serif" font-size="14.00"> result = 0</text>
<text text-anchor="start" x="539.5" y="-670.3" font-family="Times,serif" font-size="14.00"> v36 = v20</text>
<text text-anchor="start" x="539.5" y="-655.3" font-family="Times,serif" font-size="14.00"> g9 = v36</text>
<text text-anchor="start" x="539.5" y="-640.3" font-family="Times,serif" font-size="14.00"> return result</text>
</g>
<!-- Node0xf6b3960&#45;&gt;Node0xf6ad7d0 -->
<g id="edge4" class="edge"><title>Node0xf6b3960&#45;&gt;Node0xf6ad7d0</title>
<path fill="none" stroke="black" d="M542.974,-899.471C551.712,-894.703 559.649,-888.656 566,-881 601.652,-838.02 602.152,-771.403 597.024,-725.629"/>
<polygon fill="black" stroke="black" points="600.487,-725.11 595.777,-715.62 593.54,-725.976 600.487,-725.11"/>
<text text-anchor="middle" x="697.5" y="-869.8" font-family="Times,serif" font-size="14.00">a2 &gt; IntToPtrCastExpr&lt;ptr&gt;(&#45;65)</text>
</g>
<!-- Node0xf6a9210 -->
<g id="node6" class="node"><title>Node0xf6a9210</title>
<polygon fill="none" stroke="black" points="227,-577.5 227,-613.5 389,-613.5 389,-577.5 227,-577.5"/>
<text text-anchor="start" x="235" y="-591.8" font-family="Times,serif" font-size="14.00">if (hMem != NULL):</text>
</g>
<!-- Node0xf6b2ab0&#45;&gt;Node0xf6a9210 -->
<g id="edge5" class="edge"><title>Node0xf6b2ab0&#45;&gt;Node0xf6a9210</title>
<path fill="none" stroke="black" d="M308,-734.291C308,-698.057 308,-652.396 308,-623.816"/>
<polygon fill="black" stroke="black" points="311.5,-623.755 308,-613.755 304.5,-623.755 311.5,-623.755"/>
</g>
<!-- Node0x9787bf0 -->
<g id="node7" class="node"><title>Node0x9787bf0</title>
<polygon fill="none" stroke="black" points="476,-23.5 476,-59.5 530,-59.5 530,-23.5 476,-23.5"/>
<text text-anchor="start" x="484" y="-37.8" font-family="Times,serif" font-size="14.00">exit:</text>
</g>
<!-- Node0xf6ad7d0&#45;&gt;Node0x9787bf0 -->
<g id="edge6" class="edge"><title>Node0xf6ad7d0&#45;&gt;Node0x9787bf0</title>
<path fill="none" stroke="black" d="M597.489,-632.234C618.139,-534.039 658.47,-279.064 569,-97 562.302,-83.3706 550.434,-71.9377 538.591,-63.1197"/>
<polygon fill="black" stroke="black" points="540.252,-60.0113 530.046,-57.1669 536.251,-65.755 540.252,-60.0113"/>
</g>
<!-- Node0xf6b5db0 -->
<g id="node8" class="node"><title>Node0xf6b5db0</title>
<polygon fill="none" stroke="black" points="0,-97.5 0,-525.5 428,-525.5 428,-97.5 0,-97.5"/>
<text text-anchor="start" x="8" y="-510.3" font-family="Times,serif" font-size="14.00">0x41c280:</text>
<text text-anchor="start" x="8" y="-495.3" font-family="Times,serif" font-size="14.00"> v33 = g7</text>
<text text-anchor="start" x="8" y="-480.3" font-family="Times,serif" font-size="14.00"> v22 = IntToPtrCastExpr&lt;ptr&gt;(v33)</text>
<text text-anchor="start" x="8" y="-465.3" font-family="Times,serif" font-size="14.00"> v8 = GlobalLock(hMem)</text>
<text text-anchor="start" x="8" y="-450.3" font-family="Times,serif" font-size="14.00"> v37 = g9</text>
<text text-anchor="start" x="8" y="-435.3" font-family="Times,serif" font-size="14.00"> v39 = *(IntToPtrCastExpr&lt;ptr&gt;((v37 + 4)))</text>
<text text-anchor="start" x="8" y="-420.3" font-family="Times,serif" font-size="14.00"> g2 = v39</text>
<text text-anchor="start" x="8" y="-405.3" font-family="Times,serif" font-size="14.00"> v5 = IntToPtrCastExpr&lt;ptr&gt;(v39)</text>
<text text-anchor="start" x="8" y="-390.3" font-family="Times,serif" font-size="14.00"> v40 = v27</text>
<text text-anchor="start" x="8" y="-375.3" font-family="Times,serif" font-size="14.00"> v13 = v40</text>
<text text-anchor="start" x="8" y="-360.3" font-family="Times,serif" font-size="14.00"> v1 = v22</text>
<text text-anchor="start" x="8" y="-345.3" font-family="Times,serif" font-size="14.00"> function_41661d(BitCastExpr&lt;ptr&gt;(v8), v5, v40, v5, v1)</text>
<text text-anchor="start" x="8" y="-330.3" font-family="Times,serif" font-size="14.00"> v17 = BitCastExpr&lt;ptr&gt;(v8)</text>
<text text-anchor="start" x="8" y="-315.3" font-family="Times,serif" font-size="14.00"> v10 = function_41c0fd(BitCastExpr&lt;ptr&gt;(v8))</text>
<text text-anchor="start" x="8" y="-300.3" font-family="Times,serif" font-size="14.00"> v34 = g9</text>
<text text-anchor="start" x="8" y="-285.3" font-family="Times,serif" font-size="14.00"> hMem2 = *(IntToPtrCastExpr&lt;ptr&gt;(v34))</text>
<text text-anchor="start" x="8" y="-270.3" font-family="Times,serif" font-size="14.00"> v38 = (ExtCastExpr&lt;int32&gt;((v10 != 0)) + 1)</text>
<text text-anchor="start" x="8" y="-255.3" font-family="Times,serif" font-size="14.00"> g2 = v38</text>
<text text-anchor="start" x="8" y="-240.3" font-family="Times,serif" font-size="14.00"> *(IntToPtrCastExpr&lt;ptr&gt;((v34 + 8))) = v38</text>
<text text-anchor="start" x="8" y="-225.3" font-family="Times,serif" font-size="14.00"> GlobalUnlock(IntToPtrCastExpr&lt;ptr&gt;(hMem2))</text>
<text text-anchor="start" x="8" y="-210.3" font-family="Times,serif" font-size="14.00"> g2 = 0</text>
<text text-anchor="start" x="8" y="-195.3" font-family="Times,serif" font-size="14.00"> v35 = v22</text>
<text text-anchor="start" x="8" y="-180.3" font-family="Times,serif" font-size="14.00"> g7 = PtrToIntCastExpr&lt;int32&gt;(v35)</text>
<text text-anchor="start" x="8" y="-165.3" font-family="Times,serif" font-size="14.00"> g10 = v2</text>
<text text-anchor="start" x="8" y="-150.3" font-family="Times,serif" font-size="14.00"> result = 1</text>
<text text-anchor="start" x="8" y="-135.3" font-family="Times,serif" font-size="14.00"> v36 = v20</text>
<text text-anchor="start" x="8" y="-120.3" font-family="Times,serif" font-size="14.00"> g9 = v36</text>
<text text-anchor="start" x="8" y="-105.3" font-family="Times,serif" font-size="14.00"> return result</text>
</g>
<!-- Node0xf6a9210&#45;&gt;Node0xf6b5db0 -->
<g id="edge7" class="edge"><title>Node0xf6a9210&#45;&gt;Node0xf6b5db0</title>
<path fill="none" stroke="black" d="M296.646,-577.257C293.235,-571.596 289.69,-565.17 287,-559 283.635,-551.281 280.37,-543.36 277.208,-535.31"/>
<polygon fill="black" stroke="black" points="280.406,-533.876 273.543,-525.805 273.875,-536.395 280.406,-533.876"/>
<text text-anchor="middle" x="345.5" y="-547.8" font-family="Times,serif" font-size="14.00">hMem != NULL</text>
</g>
<!-- Node0x9799b70 -->
<g id="node9" class="node"><title>Node0x9799b70</title>
<polygon fill="none" stroke="black" points="446.5,-270 446.5,-353 559.5,-353 559.5,-270 446.5,-270"/>
<text text-anchor="start" x="454.5" y="-337.8" font-family="Times,serif" font-size="14.00">0x41c26d:</text>
<text text-anchor="start" x="454.5" y="-322.8" font-family="Times,serif" font-size="14.00"> result = 0</text>
<text text-anchor="start" x="454.5" y="-307.8" font-family="Times,serif" font-size="14.00"> v36 = v20</text>
<text text-anchor="start" x="454.5" y="-292.8" font-family="Times,serif" font-size="14.00"> g9 = v36</text>
<text text-anchor="start" x="454.5" y="-277.8" font-family="Times,serif" font-size="14.00"> return result</text>
</g>
<!-- Node0xf6a9210&#45;&gt;Node0x9799b70 -->
<g id="edge8" class="edge"><title>Node0xf6a9210&#45;&gt;Node0x9799b70</title>
<path fill="none" stroke="black" d="M369.599,-577.365C395.098,-566.904 422.138,-550.647 437,-526 467.824,-474.88 485.437,-408.086 494.585,-362.925"/>
<polygon fill="black" stroke="black" points="498.029,-363.552 496.518,-353.065 491.16,-362.205 498.029,-363.552"/>
<text text-anchor="middle" x="484.5" y="-547.8" font-family="Times,serif" font-size="14.00">hMem == NULL</text>
</g>
<!-- Node0xf6b5db0&#45;&gt;Node0x9787bf0 -->
<g id="edge9" class="edge"><title>Node0xf6b5db0&#45;&gt;Node0x9787bf0</title>
<path fill="none" stroke="black" d="M428.249,-104.819C431.179,-102.19 434.096,-99.5825 437,-97 448.705,-86.5895 461.961,-75.5117 473.506,-66.0813"/>
<polygon fill="black" stroke="black" points="476.007,-68.5593 481.564,-59.5387 471.594,-63.125 476.007,-68.5593"/>
</g>
<!-- Node0x9799b70&#45;&gt;Node0x9787bf0 -->
<g id="edge10" class="edge"><title>Node0x9799b70&#45;&gt;Node0x9787bf0</title>
<path fill="none" stroke="black" d="M503,-269.797C503,-214.506 503,-117.147 503,-69.8385"/>
<polygon fill="black" stroke="black" points="506.5,-69.7379 503,-59.738 499.5,-69.738 506.5,-69.7379"/>
</g>
</g>
</svg>
