<?xml version="1.0" encoding="UTF-8" standalone="no"?>
<!DOCTYPE svg PUBLIC "-//W3C//DTD SVG 1.1//EN"
 "http://www.w3.org/Graphics/SVG/1.1/DTD/svg11.dtd">
<!-- Generated by graphviz version 2.38.0 (20140413.2041)
 -->
<!-- Title: Control&#45;flow graph for function &#39;function_40a880(*a1, *a2, *a3)&#39;. Pages: 1 -->
<svg width="822pt" height="2014pt"
 viewBox="0.00 0.00 822.00 2014.00" xmlns="http://www.w3.org/2000/svg" xmlns:xlink="http://www.w3.org/1999/xlink">
<g id="graph0" class="graph" transform="scale(1 1) rotate(0) translate(4 2010)">
<title>Control&#45;flow graph for function &#39;function_40a880(*a1, *a2, *a3)&#39;.</title>
<polygon fill="white" stroke="none" points="-4,4 -4,-2010 818,-2010 818,4 -4,4"/>
<text text-anchor="middle" x="407" y="-7.8" font-family="Times,serif" font-size="14.00">Control&#45;flow graph for function &#39;function_40a880(*a1, *a2, *a3)&#39;.</text>
<!-- Node0xef87d00 -->
<g id="node1" class="node"><title>Node0xef87d00</title>
<polygon fill="none" stroke="black" points="129.5,-1937.5 129.5,-2005.5 188.5,-2005.5 188.5,-1937.5 129.5,-1937.5"/>
<text text-anchor="start" x="137.5" y="-1990.3" font-family="Times,serif" font-size="14.00">entry:</text>
<text text-anchor="start" x="137.5" y="-1975.3" font-family="Times,serif" font-size="14.00"> a1</text>
<text text-anchor="start" x="137.5" y="-1960.3" font-family="Times,serif" font-size="14.00"> a2</text>
<text text-anchor="start" x="137.5" y="-1945.3" font-family="Times,serif" font-size="14.00"> a3</text>
</g>
<!-- Node0xef886c0 -->
<g id="node2" class="node"><title>Node0xef886c0</title>
<polygon fill="none" stroke="black" points="0,-1126.5 0,-1899.5 318,-1899.5 318,-1126.5 0,-1126.5"/>
<text text-anchor="start" x="8" y="-1884.3" font-family="Times,serif" font-size="14.00">v1</text>
<text text-anchor="start" x="8" y="-1869.3" font-family="Times,serif" font-size="14.00"> v2</text>
<text text-anchor="start" x="8" y="-1854.3" font-family="Times,serif" font-size="14.00"> v3</text>
<text text-anchor="start" x="8" y="-1839.3" font-family="Times,serif" font-size="14.00"> v4</text>
<text text-anchor="start" x="8" y="-1824.3" font-family="Times,serif" font-size="14.00"> v5</text>
<text text-anchor="start" x="8" y="-1809.3" font-family="Times,serif" font-size="14.00"> result</text>
<text text-anchor="start" x="8" y="-1794.3" font-family="Times,serif" font-size="14.00"> v6</text>
<text text-anchor="start" x="8" y="-1779.3" font-family="Times,serif" font-size="14.00"> v7</text>
<text text-anchor="start" x="8" y="-1764.3" font-family="Times,serif" font-size="14.00"> v8</text>
<text text-anchor="start" x="8" y="-1749.3" font-family="Times,serif" font-size="14.00"> v9</text>
<text text-anchor="start" x="8" y="-1734.3" font-family="Times,serif" font-size="14.00"> v10</text>
<text text-anchor="start" x="8" y="-1719.3" font-family="Times,serif" font-size="14.00"> v11</text>
<text text-anchor="start" x="8" y="-1704.3" font-family="Times,serif" font-size="14.00"> v12</text>
<text text-anchor="start" x="8" y="-1689.3" font-family="Times,serif" font-size="14.00"> v13</text>
<text text-anchor="start" x="8" y="-1674.3" font-family="Times,serif" font-size="14.00"> v14</text>
<text text-anchor="start" x="8" y="-1659.3" font-family="Times,serif" font-size="14.00"> v15</text>
<text text-anchor="start" x="8" y="-1644.3" font-family="Times,serif" font-size="14.00"> v16</text>
<text text-anchor="start" x="8" y="-1629.3" font-family="Times,serif" font-size="14.00"> v17</text>
<text text-anchor="start" x="8" y="-1614.3" font-family="Times,serif" font-size="14.00"> v18</text>
<text text-anchor="start" x="8" y="-1599.3" font-family="Times,serif" font-size="14.00"> v19</text>
<text text-anchor="start" x="8" y="-1584.3" font-family="Times,serif" font-size="14.00"> v20</text>
<text text-anchor="start" x="8" y="-1569.3" font-family="Times,serif" font-size="14.00"> v21</text>
<text text-anchor="start" x="8" y="-1554.3" font-family="Times,serif" font-size="14.00"> v22</text>
<text text-anchor="start" x="8" y="-1539.3" font-family="Times,serif" font-size="14.00"> v23</text>
<text text-anchor="start" x="8" y="-1524.3" font-family="Times,serif" font-size="14.00"> v24</text>
<text text-anchor="start" x="8" y="-1509.3" font-family="Times,serif" font-size="14.00"> v25</text>
<text text-anchor="start" x="8" y="-1494.3" font-family="Times,serif" font-size="14.00"> v26</text>
<text text-anchor="start" x="8" y="-1479.3" font-family="Times,serif" font-size="14.00"> v27</text>
<text text-anchor="start" x="8" y="-1464.3" font-family="Times,serif" font-size="14.00"> v28</text>
<text text-anchor="start" x="8" y="-1449.3" font-family="Times,serif" font-size="14.00"> v29</text>
<text text-anchor="start" x="8" y="-1434.3" font-family="Times,serif" font-size="14.00"> v30</text>
<text text-anchor="start" x="8" y="-1419.3" font-family="Times,serif" font-size="14.00"> v31</text>
<text text-anchor="start" x="8" y="-1404.3" font-family="Times,serif" font-size="14.00"> v32</text>
<text text-anchor="start" x="8" y="-1389.3" font-family="Times,serif" font-size="14.00"> v33</text>
<text text-anchor="start" x="8" y="-1374.3" font-family="Times,serif" font-size="14.00"> v34</text>
<text text-anchor="start" x="8" y="-1359.3" font-family="Times,serif" font-size="14.00"> v10 = v11</text>
<text text-anchor="start" x="8" y="-1344.3" font-family="Times,serif" font-size="14.00"> v8 = v9</text>
<text text-anchor="start" x="8" y="-1329.3" font-family="Times,serif" font-size="14.00"> v6 = v7</text>
<text text-anchor="start" x="8" y="-1314.3" font-family="Times,serif" font-size="14.00"> v15 = v16</text>
<text text-anchor="start" x="8" y="-1299.3" font-family="Times,serif" font-size="14.00"> v13 = v14</text>
<text text-anchor="start" x="8" y="-1284.3" font-family="Times,serif" font-size="14.00"> v20 = v21</text>
<text text-anchor="start" x="8" y="-1269.3" font-family="Times,serif" font-size="14.00"> v22 = v23</text>
<text text-anchor="start" x="8" y="-1254.3" font-family="Times,serif" font-size="14.00"> v18 = v19</text>
<text text-anchor="start" x="8" y="-1239.3" font-family="Times,serif" font-size="14.00"> v20 = a1</text>
<text text-anchor="start" x="8" y="-1224.3" font-family="Times,serif" font-size="14.00"> v22 = a2</text>
<text text-anchor="start" x="8" y="-1209.3" font-family="Times,serif" font-size="14.00"> v18 = a3</text>
<text text-anchor="start" x="8" y="-1194.3" font-family="Times,serif" font-size="14.00"> g10 = PtrToIntCastExpr&lt;int32&gt;(&amp;(v13))</text>
<text text-anchor="start" x="8" y="-1179.3" font-family="Times,serif" font-size="14.00"> v24 = g5</text>
<text text-anchor="start" x="8" y="-1164.3" font-family="Times,serif" font-size="14.00"> g7 = v24</text>
<text text-anchor="start" x="8" y="-1149.3" font-family="Times,serif" font-size="14.00"> v25 = g2</text>
<text text-anchor="start" x="8" y="-1134.3" font-family="Times,serif" font-size="14.00"> v34 = (v25 &amp; &#45;256)</text>
</g>
<!-- Node0xef87d00&#45;&gt;Node0xef886c0 -->
<g id="edge1" class="edge"><title>Node0xef87d00&#45;&gt;Node0xef886c0</title>
<path fill="none" stroke="black" d="M159,-1937.3C159,-1929.29 159,-1920.05 159,-1909.8"/>
<polygon fill="black" stroke="black" points="162.5,-1909.67 159,-1899.67 155.5,-1909.67 162.5,-1909.67"/>
</g>
<!-- Node0xef88a80 -->
<g id="node3" class="node"><title>Node0xef88a80</title>
<polygon fill="none" stroke="black" points="89,-1052.5 89,-1088.5 229,-1088.5 229,-1052.5 89,-1052.5"/>
<text text-anchor="start" x="97" y="-1066.8" font-family="Times,serif" font-size="14.00">if (a1 == NULL):</text>
</g>
<!-- Node0xef886c0&#45;&gt;Node0xef88a80 -->
<g id="edge2" class="edge"><title>Node0xef886c0&#45;&gt;Node0xef88a80</title>
<path fill="none" stroke="black" d="M159,-1126.4C159,-1115.92 159,-1106.62 159,-1098.79"/>
<polygon fill="black" stroke="black" points="162.5,-1098.72 159,-1088.72 155.5,-1098.72 162.5,-1098.72"/>
</g>
<!-- Node0xef89300 -->
<g id="node4" class="node"><title>Node0xef89300</title>
<polygon fill="none" stroke="black" points="25.5,-860.5 25.5,-928.5 138.5,-928.5 138.5,-860.5 25.5,-860.5"/>
<text text-anchor="start" x="33.5" y="-913.3" font-family="Times,serif" font-size="14.00">v30 = v14</text>
<text text-anchor="start" x="33.5" y="-898.3" font-family="Times,serif" font-size="14.00"> result = v34</text>
<text text-anchor="start" x="33.5" y="-883.3" font-family="Times,serif" font-size="14.00"> g7 = v30</text>
<text text-anchor="start" x="33.5" y="-868.3" font-family="Times,serif" font-size="14.00"> return result</text>
</g>
<!-- Node0xef88a80&#45;&gt;Node0xef89300 -->
<g id="edge3" class="edge"><title>Node0xef88a80&#45;&gt;Node0xef89300</title>
<path fill="none" stroke="black" d="M120.981,-1052.33C113.654,-1047.4 106.781,-1041.32 102,-1034 83.7191,-1006.01 79.3121,-968.097 79.146,-939.013"/>
<polygon fill="black" stroke="black" points="82.6488,-938.769 79.2589,-928.732 75.6492,-938.693 82.6488,-938.769"/>
<text text-anchor="middle" x="149" y="-1022.8" font-family="Times,serif" font-size="14.00">a1 == NULL</text>
</g>
<!-- Node0xef88bb0 -->
<g id="node5" class="node"><title>Node0xef88bb0</title>
<polygon fill="none" stroke="black" points="209,-947.5 209,-1000.5 319,-1000.5 319,-947.5 209,-947.5"/>
<text text-anchor="start" x="217" y="-985.3" font-family="Times,serif" font-size="14.00">0x40a88d:</text>
<text text-anchor="start" x="217" y="-970.3" font-family="Times,serif" font-size="14.00"> v30 = v14</text>
<text text-anchor="start" x="217" y="-955.3" font-family="Times,serif" font-size="14.00"> result = v34</text>
</g>
<!-- Node0xef88a80&#45;&gt;Node0xef88bb0 -->
<g id="edge4" class="edge"><title>Node0xef88a80&#45;&gt;Node0xef88bb0</title>
<path fill="none" stroke="black" d="M178.259,-1052.17C192.121,-1039.69 211.235,-1022.49 227.9,-1007.49"/>
<polygon fill="black" stroke="black" points="230.264,-1010.07 235.356,-1000.78 225.582,-1004.87 230.264,-1010.07"/>
<text text-anchor="middle" x="259" y="-1022.8" font-family="Times,serif" font-size="14.00">a1 != NULL</text>
</g>
<!-- Node0xef88660 -->
<g id="node6" class="node"><title>Node0xef88660</title>
<polygon fill="none" stroke="black" points="116,-23.5 116,-59.5 170,-59.5 170,-23.5 116,-23.5"/>
<text text-anchor="start" x="124" y="-37.8" font-family="Times,serif" font-size="14.00">exit:</text>
</g>
<!-- Node0xef89300&#45;&gt;Node0xef88660 -->
<g id="edge5" class="edge"><title>Node0xef89300&#45;&gt;Node0xef88660</title>
<path fill="none" stroke="black" d="M81.1053,-860.374C80.5728,-837.853 80,-807.381 80,-780.5 80,-780.5 80,-780.5 80,-123 80,-100.581 95.3412,-80.6853 110.883,-66.282"/>
<polygon fill="black" stroke="black" points="113.231,-68.8786 118.462,-59.6656 108.627,-63.6053 113.231,-68.8786"/>
</g>
<!-- Node0xef88c60 -->
<g id="node7" class="node"><title>Node0xef88c60</title>
<polygon fill="none" stroke="black" points="107.5,-805.5 107.5,-841.5 436.5,-841.5 436.5,-805.5 107.5,-805.5"/>
<text text-anchor="start" x="115.5" y="-819.8" font-family="Times,serif" font-size="14.00">if (a1 == IntToPtrCastExpr&lt;ptr&gt;(&#45;65536)):</text>
</g>
<!-- Node0xef88bb0&#45;&gt;Node0xef88c60 -->
<g id="edge6" class="edge"><title>Node0xef88bb0&#45;&gt;Node0xef88c60</title>
<path fill="none" stroke="black" d="M265.375,-947.472C266.811,-920.824 269.054,-879.186 270.525,-851.871"/>
<polygon fill="black" stroke="black" points="274.024,-851.992 271.067,-841.819 267.034,-851.616 274.024,-851.992"/>
</g>
<!-- Node0xef89360 -->
<g id="node8" class="node"><title>Node0xef89360</title>
<polygon fill="none" stroke="black" points="110,-640.5 110,-753.5 370,-753.5 370,-640.5 110,-640.5"/>
<text text-anchor="start" x="118" y="-738.3" font-family="Times,serif" font-size="14.00">0x40a895:</text>
<text text-anchor="start" x="118" y="-723.3" font-family="Times,serif" font-size="14.00"> v26 = g9</text>
<text text-anchor="start" x="118" y="-708.3" font-family="Times,serif" font-size="14.00"> v15 = v26</text>
<text text-anchor="start" x="118" y="-693.3" font-family="Times,serif" font-size="14.00"> g9 = 0</text>
<text text-anchor="start" x="118" y="-678.3" font-family="Times,serif" font-size="14.00"> v6 = NULL</text>
<text text-anchor="start" x="118" y="-663.3" font-family="Times,serif" font-size="14.00"> v4 = function_41a037()</text>
<text text-anchor="start" x="118" y="-648.3" font-family="Times,serif" font-size="14.00"> v2 = IntToPtrCastExpr&lt;ptr&gt;(v4)</text>
</g>
<!-- Node0xef88c60&#45;&gt;Node0xef89360 -->
<g id="edge7" class="edge"><title>Node0xef88c60&#45;&gt;Node0xef89360</title>
<path fill="none" stroke="black" d="M250.552,-805.337C245.47,-800.051 240.735,-793.81 238,-787 235.084,-779.739 233.399,-771.87 232.573,-763.916"/>
<polygon fill="black" stroke="black" points="236.061,-763.605 231.958,-753.836 229.074,-764.031 236.061,-763.605"/>
<text text-anchor="middle" x="380" y="-775.8" font-family="Times,serif" font-size="14.00">a1 == IntToPtrCastExpr&lt;ptr&gt;(&#45;65536)</text>
</g>
<!-- Node0xef89230 -->
<g id="node9" class="node"><title>Node0xef89230</title>
<polygon fill="none" stroke="black" points="252.5,-97.5 252.5,-150.5 365.5,-150.5 365.5,-97.5 252.5,-97.5"/>
<text text-anchor="start" x="260.5" y="-135.3" font-family="Times,serif" font-size="14.00">0x40a8af:</text>
<text text-anchor="start" x="260.5" y="-120.3" font-family="Times,serif" font-size="14.00"> g7 = v30</text>
<text text-anchor="start" x="260.5" y="-105.3" font-family="Times,serif" font-size="14.00"> return result</text>
</g>
<!-- Node0xef88c60&#45;&gt;Node0xef89230 -->
<g id="edge8" class="edge"><title>Node0xef88c60&#45;&gt;Node0xef89230</title>
<path fill="none" stroke="black" d="M436.589,-814.101C474.808,-808.866 508.337,-800.46 522,-787 550.525,-758.899 536,-738.042 536,-698 536,-698 536,-698 536,-251.5 536,-221.632 535.49,-208.743 514,-188 476.969,-152.256 420.158,-136.744 375.725,-130.037"/>
<polygon fill="black" stroke="black" points="375.969,-126.538 365.582,-128.625 375.004,-133.471 375.969,-126.538"/>
<text text-anchor="middle" x="675" y="-534.8" font-family="Times,serif" font-size="14.00">a1 != IntToPtrCastExpr&lt;ptr&gt;(&#45;65536)</text>
</g>
<!-- Node0xef88270 -->
<g id="node10" class="node"><title>Node0xef88270</title>
<polygon fill="none" stroke="black" points="193.5,-564.5 193.5,-602.5 292.5,-602.5 292.5,-564.5 193.5,-564.5"/>
<text text-anchor="start" x="201.5" y="-587.3" font-family="Times,serif" font-size="14.00">if (v4 != 0):</text>
<text text-anchor="start" x="201.5" y="-572.3" font-family="Times,serif" font-size="14.00"> else:</text>
</g>
<!-- Node0xef89360&#45;&gt;Node0xef88270 -->
<g id="edge9" class="edge"><title>Node0xef89360&#45;&gt;Node0xef88270</title>
<path fill="none" stroke="black" d="M241.5,-640.25C241.753,-630.862 242.005,-621.474 242.229,-613.151"/>
<polygon fill="black" stroke="black" points="245.734,-613.003 242.505,-602.912 238.737,-612.814 245.734,-613.003"/>
</g>
<!-- Node0xef89230&#45;&gt;Node0xef88660 -->
<g id="edge10" class="edge"><title>Node0xef89230&#45;&gt;Node0xef88660</title>
<path fill="none" stroke="black" d="M256.02,-97.308C231.113,-85.2294 202.037,-71.1295 179.614,-60.2558"/>
<polygon fill="black" stroke="black" points="180.969,-57.0227 170.444,-55.8085 177.914,-63.3211 180.969,-57.0227"/>
</g>
<!-- Node0xef89710 -->
<g id="node11" class="node"><title>Node0xef89710</title>
<polygon fill="none" stroke="black" points="108.5,-354.5 108.5,-512.5 377.5,-512.5 377.5,-354.5 108.5,-354.5"/>
<text text-anchor="start" x="116.5" y="-497.3" font-family="Times,serif" font-size="14.00">0x40a8a3:</text>
<text text-anchor="start" x="116.5" y="-482.3" font-family="Times,serif" font-size="14.00"> v27 = g9</text>
<text text-anchor="start" x="116.5" y="-467.3" font-family="Times,serif" font-size="14.00"> v3 = IntToPtrCastExpr&lt;ptr&gt;(v27)</text>
<text text-anchor="start" x="116.5" y="-452.3" font-family="Times,serif" font-size="14.00"> v8 = v3</text>
<text text-anchor="start" x="116.5" y="-437.3" font-family="Times,serif" font-size="14.00"> v10 = v2</text>
<text text-anchor="start" x="116.5" y="-422.3" font-family="Times,serif" font-size="14.00"> v28 = g7</text>
<text text-anchor="start" x="116.5" y="-407.3" font-family="Times,serif" font-size="14.00"> g5 = v28</text>
<text text-anchor="start" x="116.5" y="-392.3" font-family="Times,serif" font-size="14.00"> v1 = v6</text>
<text text-anchor="start" x="116.5" y="-377.3" font-family="Times,serif" font-size="14.00"> function_40a1f0(v2, v3, v1)</text>
<text text-anchor="start" x="116.5" y="-362.3" font-family="Times,serif" font-size="14.00"> v32 = NULL</text>
</g>
<!-- Node0xef88270&#45;&gt;Node0xef89710 -->
<g id="edge11" class="edge"><title>Node0xef88270&#45;&gt;Node0xef89710</title>
<path fill="none" stroke="black" d="M243,-564.352C243,-553.462 243,-538.712 243,-523.058"/>
<polygon fill="black" stroke="black" points="246.5,-522.671 243,-512.671 239.5,-522.671 246.5,-522.671"/>
<text text-anchor="middle" x="270" y="-534.8" font-family="Times,serif" font-size="14.00">v4 != 0</text>
</g>
<!-- Node0xef89770 -->
<g id="node12" class="node"><title>Node0xef89770</title>
<polygon fill="none" stroke="black" points="395.5,-415.5 395.5,-451.5 476.5,-451.5 476.5,-415.5 395.5,-415.5"/>
<text text-anchor="start" x="403.5" y="-429.8" font-family="Times,serif" font-size="14.00">v32 = v2</text>
</g>
<!-- Node0xef88270&#45;&gt;Node0xef89770 -->
<g id="edge12" class="edge"><title>Node0xef88270&#45;&gt;Node0xef89770</title>
<path fill="none" stroke="black" d="M292.68,-566.181C322.194,-554.696 359.007,-537.061 386,-513 402.234,-498.53 415.218,-477.578 423.882,-460.959"/>
<polygon fill="black" stroke="black" points="427.141,-462.267 428.477,-451.756 420.878,-459.14 427.141,-462.267"/>
<text text-anchor="middle" x="392" y="-534.8" font-family="Times,serif" font-size="14.00">v4 == 0</text>
</g>
<!-- Node0xef896b0 -->
<g id="node13" class="node"><title>Node0xef896b0</title>
<polygon fill="none" stroke="black" points="113.5,-188.5 113.5,-316.5 504.5,-316.5 504.5,-188.5 113.5,-188.5"/>
<text text-anchor="start" x="121.5" y="-301.3" font-family="Times,serif" font-size="14.00">0x40a8ac:</text>
<text text-anchor="start" x="121.5" y="-286.3" font-family="Times,serif" font-size="14.00"> v33 = ((PtrToIntCastExpr&lt;int32&gt;(v32) &amp; &#45;256) | 1)</text>
<text text-anchor="start" x="121.5" y="-271.3" font-family="Times,serif" font-size="14.00"> v29 = v6</text>
<text text-anchor="start" x="121.5" y="-256.3" font-family="Times,serif" font-size="14.00"> g9 = PtrToIntCastExpr&lt;int32&gt;(v29)</text>
<text text-anchor="start" x="121.5" y="-241.3" font-family="Times,serif" font-size="14.00"> g10 = PtrToIntCastExpr&lt;int32&gt;(&amp;(v15))</text>
<text text-anchor="start" x="121.5" y="-226.3" font-family="Times,serif" font-size="14.00"> v31 = v13</text>
<text text-anchor="start" x="121.5" y="-211.3" font-family="Times,serif" font-size="14.00"> v30 = v31</text>
<text text-anchor="start" x="121.5" y="-196.3" font-family="Times,serif" font-size="14.00"> result = v33</text>
</g>
<!-- Node0xef89710&#45;&gt;Node0xef896b0 -->
<g id="edge13" class="edge"><title>Node0xef89710&#45;&gt;Node0xef896b0</title>
<path fill="none" stroke="black" d="M271.853,-354.248C275.302,-344.892 278.813,-335.37 282.232,-326.098"/>
<polygon fill="black" stroke="black" points="285.579,-327.138 285.754,-316.545 279.011,-324.716 285.579,-327.138"/>
</g>
<!-- Node0xef89770&#45;&gt;Node0xef896b0 -->
<g id="edge14" class="edge"><title>Node0xef89770&#45;&gt;Node0xef896b0</title>
<path fill="none" stroke="black" d="M425.687,-415.378C415.856,-399.286 400.45,-374.654 386,-354 379.306,-344.432 372.075,-334.507 364.817,-324.785"/>
<polygon fill="black" stroke="black" points="367.531,-322.571 358.725,-316.679 361.935,-326.776 367.531,-322.571"/>
</g>
<!-- Node0xef896b0&#45;&gt;Node0xef89230 -->
<g id="edge15" class="edge"><title>Node0xef896b0&#45;&gt;Node0xef89230</title>
<path fill="none" stroke="black" d="M309,-188.25C309,-178.765 309,-169.28 309,-160.648"/>
<polygon fill="black" stroke="black" points="312.5,-160.599 309,-150.599 305.5,-160.599 312.5,-160.599"/>
</g>
</g>
</svg>
