<?xml version="1.0" encoding="UTF-8" standalone="no"?>
<!DOCTYPE svg PUBLIC "-//W3C//DTD SVG 1.1//EN"
 "http://www.w3.org/Graphics/SVG/1.1/DTD/svg11.dtd">
<!-- Generated by graphviz version 2.38.0 (20140413.2041)
 -->
<!-- Title: Control&#45;flow graph for function &#39;function_416a01(*a1, *a2)&#39;. Pages: 1 -->
<svg width="835pt" height="1201pt"
 viewBox="0.00 0.00 835.00 1201.00" xmlns="http://www.w3.org/2000/svg" xmlns:xlink="http://www.w3.org/1999/xlink">
<g id="graph0" class="graph" transform="scale(1 1) rotate(0) translate(4 1197)">
<title>Control&#45;flow graph for function &#39;function_416a01(*a1, *a2)&#39;.</title>
<polygon fill="white" stroke="none" points="-4,4 -4,-1197 831,-1197 831,4 -4,4"/>
<text text-anchor="middle" x="413.5" y="-7.8" font-family="Times,serif" font-size="14.00">Control&#45;flow graph for function &#39;function_416a01(*a1, *a2)&#39;.</text>
<!-- Node0xf471da0 -->
<g id="node1" class="node"><title>Node0xf471da0</title>
<polygon fill="none" stroke="black" points="568.5,-1139.5 568.5,-1192.5 627.5,-1192.5 627.5,-1139.5 568.5,-1139.5"/>
<text text-anchor="start" x="576.5" y="-1177.3" font-family="Times,serif" font-size="14.00">entry:</text>
<text text-anchor="start" x="576.5" y="-1162.3" font-family="Times,serif" font-size="14.00"> a1</text>
<text text-anchor="start" x="576.5" y="-1147.3" font-family="Times,serif" font-size="14.00"> a2</text>
</g>
<!-- Node0xf472470 -->
<g id="node2" class="node"><title>Node0xf472470</title>
<polygon fill="none" stroke="black" points="455.5,-778.5 455.5,-1101.5 740.5,-1101.5 740.5,-778.5 455.5,-778.5"/>
<text text-anchor="start" x="463.5" y="-1086.3" font-family="Times,serif" font-size="14.00">v1</text>
<text text-anchor="start" x="463.5" y="-1071.3" font-family="Times,serif" font-size="14.00"> v2</text>
<text text-anchor="start" x="463.5" y="-1056.3" font-family="Times,serif" font-size="14.00"> v3</text>
<text text-anchor="start" x="463.5" y="-1041.3" font-family="Times,serif" font-size="14.00"> v4</text>
<text text-anchor="start" x="463.5" y="-1026.3" font-family="Times,serif" font-size="14.00"> v5</text>
<text text-anchor="start" x="463.5" y="-1011.3" font-family="Times,serif" font-size="14.00"> v6</text>
<text text-anchor="start" x="463.5" y="-996.3" font-family="Times,serif" font-size="14.00"> v7</text>
<text text-anchor="start" x="463.5" y="-981.3" font-family="Times,serif" font-size="14.00"> v8</text>
<text text-anchor="start" x="463.5" y="-966.3" font-family="Times,serif" font-size="14.00"> v9</text>
<text text-anchor="start" x="463.5" y="-951.3" font-family="Times,serif" font-size="14.00"> v10</text>
<text text-anchor="start" x="463.5" y="-936.3" font-family="Times,serif" font-size="14.00"> v11</text>
<text text-anchor="start" x="463.5" y="-921.3" font-family="Times,serif" font-size="14.00"> v12</text>
<text text-anchor="start" x="463.5" y="-906.3" font-family="Times,serif" font-size="14.00"> v13</text>
<text text-anchor="start" x="463.5" y="-891.3" font-family="Times,serif" font-size="14.00"> v14</text>
<text text-anchor="start" x="463.5" y="-876.3" font-family="Times,serif" font-size="14.00"> v15</text>
<text text-anchor="start" x="463.5" y="-861.3" font-family="Times,serif" font-size="14.00"> v16</text>
<text text-anchor="start" x="463.5" y="-846.3" font-family="Times,serif" font-size="14.00"> v17</text>
<text text-anchor="start" x="463.5" y="-831.3" font-family="Times,serif" font-size="14.00"> v7 = v8</text>
<text text-anchor="start" x="463.5" y="-816.3" font-family="Times,serif" font-size="14.00"> v7 = a1</text>
<text text-anchor="start" x="463.5" y="-801.3" font-family="Times,serif" font-size="14.00"> v16 = PtrToIntCastExpr&lt;int32&gt;(a1)</text>
<text text-anchor="start" x="463.5" y="-786.3" font-family="Times,serif" font-size="14.00"> g2 = v16</text>
</g>
<!-- Node0xf471da0&#45;&gt;Node0xf472470 -->
<g id="edge1" class="edge"><title>Node0xf471da0&#45;&gt;Node0xf472470</title>
<path fill="none" stroke="black" d="M598,-1139.3C598,-1131.38 598,-1121.99 598,-1111.68"/>
<polygon fill="black" stroke="black" points="601.5,-1111.53 598,-1101.53 594.5,-1111.53 601.5,-1111.53"/>
</g>
<!-- Node0xf473500 -->
<g id="node3" class="node"><title>Node0xf473500</title>
<polygon fill="none" stroke="black" points="531,-704.5 531,-740.5 665,-740.5 665,-704.5 531,-704.5"/>
<text text-anchor="start" x="539" y="-718.8" font-family="Times,serif" font-size="14.00">if (a1 != NULL):</text>
</g>
<!-- Node0xf472470&#45;&gt;Node0xf473500 -->
<g id="edge2" class="edge"><title>Node0xf472470&#45;&gt;Node0xf473500</title>
<path fill="none" stroke="black" d="M598,-778.437C598,-768.13 598,-758.68 598,-750.631"/>
<polygon fill="black" stroke="black" points="601.5,-750.576 598,-740.576 594.5,-750.576 601.5,-750.576"/>
</g>
<!-- Node0xf473590 -->
<g id="node4" class="node"><title>Node0xf473590</title>
<polygon fill="none" stroke="black" points="354.5,-599.5 354.5,-652.5 639.5,-652.5 639.5,-599.5 354.5,-599.5"/>
<text text-anchor="start" x="362.5" y="-637.3" font-family="Times,serif" font-size="14.00">0x416a09:</text>
<text text-anchor="start" x="362.5" y="-622.3" font-family="Times,serif" font-size="14.00"> v17 = PtrToIntCastExpr&lt;int32&gt;(a2)</text>
<text text-anchor="start" x="362.5" y="-607.3" font-family="Times,serif" font-size="14.00"> g5 = v17</text>
</g>
<!-- Node0xf473500&#45;&gt;Node0xf473590 -->
<g id="edge3" class="edge"><title>Node0xf473500&#45;&gt;Node0xf473590</title>
<path fill="none" stroke="black" d="M578.88,-704.25C572.527,-698.478 565.434,-691.988 559,-686 549.908,-677.538 540.143,-668.311 531.113,-659.721"/>
<polygon fill="black" stroke="black" points="533.386,-657.052 523.733,-652.686 528.557,-662.119 533.386,-657.052"/>
<text text-anchor="middle" x="603" y="-674.8" font-family="Times,serif" font-size="14.00">a1 != NULL</text>
</g>
<!-- Node0xf476060 -->
<g id="node5" class="node"><title>Node0xf476060</title>
<polygon fill="none" stroke="black" points="513,-392.5 513,-580.5 827,-580.5 827,-392.5 513,-392.5"/>
<text text-anchor="start" x="521" y="-565.3" font-family="Times,serif" font-size="14.00">0x416a11:</text>
<text text-anchor="start" x="521" y="-550.3" font-family="Times,serif" font-size="14.00"> function_4178b1()</text>
<text text-anchor="start" x="521" y="-535.3" font-family="Times,serif" font-size="14.00"> v11 = g2</text>
<text text-anchor="start" x="521" y="-520.3" font-family="Times,serif" font-size="14.00"> v13 = g5</text>
<text text-anchor="start" x="521" y="-505.3" font-family="Times,serif" font-size="14.00"> v12 = v13</text>
<text text-anchor="start" x="521" y="-490.3" font-family="Times,serif" font-size="14.00"> v10 = v11</text>
<text text-anchor="start" x="521" y="-475.3" font-family="Times,serif" font-size="14.00"> v14 = *(IntToPtrCastExpr&lt;ptr&gt;(v10))</text>
<text text-anchor="start" x="521" y="-460.3" font-family="Times,serif" font-size="14.00"> g2 = v14</text>
<text text-anchor="start" x="521" y="-445.3" font-family="Times,serif" font-size="14.00"> v15 = *(IntToPtrCastExpr&lt;ptr&gt;(v12))</text>
<text text-anchor="start" x="521" y="-430.3" font-family="Times,serif" font-size="14.00"> v1 = ExtCastExpr&lt;int32&gt;((v15 != v14))</text>
<text text-anchor="start" x="521" y="-415.3" font-family="Times,serif" font-size="14.00"> g2 = v1</text>
<text text-anchor="start" x="521" y="-400.3" font-family="Times,serif" font-size="14.00"> return (v1 + 1)</text>
</g>
<!-- Node0xf473500&#45;&gt;Node0xf476060 -->
<g id="edge4" class="edge"><title>Node0xf473500&#45;&gt;Node0xf476060</title>
<path fill="none" stroke="black" d="M629.869,-704.327C636.536,-699.284 642.808,-693.162 647,-686 663.566,-657.701 671.034,-623.238 673.864,-591.022"/>
<polygon fill="black" stroke="black" points="677.384,-590.881 674.626,-580.652 670.403,-590.368 677.384,-590.881"/>
<text text-anchor="middle" x="701" y="-674.8" font-family="Times,serif" font-size="14.00">a1 == NULL</text>
</g>
<!-- Node0xf476800 -->
<g id="node6" class="node"><title>Node0xf476800</title>
<polygon fill="none" stroke="black" points="422,-337.5 422,-373.5 556,-373.5 556,-337.5 422,-337.5"/>
<text text-anchor="start" x="430" y="-351.8" font-family="Times,serif" font-size="14.00">if (a2 != NULL):</text>
</g>
<!-- Node0xf473590&#45;&gt;Node0xf476800 -->
<g id="edge5" class="edge"><title>Node0xf473590&#45;&gt;Node0xf476800</title>
<path fill="none" stroke="black" d="M496.233,-599.255C494.721,-548.523 491.37,-436.047 489.818,-383.959"/>
<polygon fill="black" stroke="black" points="493.312,-383.695 489.516,-373.804 486.315,-383.904 493.312,-383.695"/>
</g>
<!-- Node0xf4723f0 -->
<g id="node7" class="node"><title>Node0xf4723f0</title>
<polygon fill="none" stroke="black" points="462,-23.5 462,-59.5 516,-59.5 516,-23.5 462,-23.5"/>
<text text-anchor="start" x="470" y="-37.8" font-family="Times,serif" font-size="14.00">exit:</text>
</g>
<!-- Node0xf476060&#45;&gt;Node0xf4723f0 -->
<g id="edge6" class="edge"><title>Node0xf476060&#45;&gt;Node0xf4723f0</title>
<path fill="none" stroke="black" d="M693.942,-392.458C710.098,-306.948 718.395,-181.074 655,-97 625.12,-57.373 565.625,-46.1371 526.577,-43.1882"/>
<polygon fill="black" stroke="black" points="526.34,-39.6676 516.147,-42.5595 525.919,-46.6549 526.34,-39.6676"/>
</g>
<!-- Node0xf476cf0 -->
<g id="node8" class="node"><title>Node0xf476cf0</title>
<polygon fill="none" stroke="black" points="0,-127.5 0,-255.5 314,-255.5 314,-127.5 0,-127.5"/>
<text text-anchor="start" x="8" y="-240.3" font-family="Times,serif" font-size="14.00">v12 = v17</text>
<text text-anchor="start" x="8" y="-225.3" font-family="Times,serif" font-size="14.00"> v10 = v16</text>
<text text-anchor="start" x="8" y="-210.3" font-family="Times,serif" font-size="14.00"> v14 = *(IntToPtrCastExpr&lt;ptr&gt;(v10))</text>
<text text-anchor="start" x="8" y="-195.3" font-family="Times,serif" font-size="14.00"> g2 = v14</text>
<text text-anchor="start" x="8" y="-180.3" font-family="Times,serif" font-size="14.00"> v15 = *(IntToPtrCastExpr&lt;ptr&gt;(v12))</text>
<text text-anchor="start" x="8" y="-165.3" font-family="Times,serif" font-size="14.00"> v1 = ExtCastExpr&lt;int32&gt;((v15 != v14))</text>
<text text-anchor="start" x="8" y="-150.3" font-family="Times,serif" font-size="14.00"> g2 = v1</text>
<text text-anchor="start" x="8" y="-135.3" font-family="Times,serif" font-size="14.00"> return (v1 + 1)</text>
</g>
<!-- Node0xf476800&#45;&gt;Node0xf476cf0 -->
<g id="edge7" class="edge"><title>Node0xf476800&#45;&gt;Node0xf476cf0</title>
<path fill="none" stroke="black" d="M443.426,-337.444C428.56,-331.739 412.019,-325.242 397,-319 363.746,-305.18 355.168,-302.187 323,-286 307.17,-278.034 290.694,-269.307 274.537,-260.486"/>
<polygon fill="black" stroke="black" points="276.051,-257.324 265.6,-255.58 272.682,-263.46 276.051,-257.324"/>
<text text-anchor="middle" x="441" y="-307.8" font-family="Times,serif" font-size="14.00">a2 != NULL</text>
</g>
<!-- Node0xc24e500 -->
<g id="node9" class="node"><title>Node0xc24e500</title>
<polygon fill="none" stroke="black" points="332,-97.5 332,-285.5 646,-285.5 646,-97.5 332,-97.5"/>
<text text-anchor="start" x="340" y="-270.3" font-family="Times,serif" font-size="14.00">0x416a11:</text>
<text text-anchor="start" x="340" y="-255.3" font-family="Times,serif" font-size="14.00"> function_4178b1()</text>
<text text-anchor="start" x="340" y="-240.3" font-family="Times,serif" font-size="14.00"> v11 = g2</text>
<text text-anchor="start" x="340" y="-225.3" font-family="Times,serif" font-size="14.00"> v13 = g5</text>
<text text-anchor="start" x="340" y="-210.3" font-family="Times,serif" font-size="14.00"> v12 = v13</text>
<text text-anchor="start" x="340" y="-195.3" font-family="Times,serif" font-size="14.00"> v10 = v11</text>
<text text-anchor="start" x="340" y="-180.3" font-family="Times,serif" font-size="14.00"> v14 = *(IntToPtrCastExpr&lt;ptr&gt;(v10))</text>
<text text-anchor="start" x="340" y="-165.3" font-family="Times,serif" font-size="14.00"> g2 = v14</text>
<text text-anchor="start" x="340" y="-150.3" font-family="Times,serif" font-size="14.00"> v15 = *(IntToPtrCastExpr&lt;ptr&gt;(v12))</text>
<text text-anchor="start" x="340" y="-135.3" font-family="Times,serif" font-size="14.00"> v1 = ExtCastExpr&lt;int32&gt;((v15 != v14))</text>
<text text-anchor="start" x="340" y="-120.3" font-family="Times,serif" font-size="14.00"> g2 = v1</text>
<text text-anchor="start" x="340" y="-105.3" font-family="Times,serif" font-size="14.00"> return (v1 + 1)</text>
</g>
<!-- Node0xf476800&#45;&gt;Node0xc24e500 -->
<g id="edge8" class="edge"><title>Node0xf476800&#45;&gt;Node0xc24e500</title>
<path fill="none" stroke="black" d="M489,-337.469C489,-326.773 489,-311.99 489,-295.93"/>
<polygon fill="black" stroke="black" points="492.5,-295.791 489,-285.791 485.5,-295.791 492.5,-295.791"/>
<text text-anchor="middle" x="536" y="-307.8" font-family="Times,serif" font-size="14.00">a2 == NULL</text>
</g>
<!-- Node0xf476cf0&#45;&gt;Node0xf4723f0 -->
<g id="edge9" class="edge"><title>Node0xf476cf0&#45;&gt;Node0xf4723f0</title>
<path fill="none" stroke="black" d="M261.68,-127.475C281.686,-116.601 302.721,-105.937 323,-97 366.015,-78.0434 417.782,-62.0662 451.942,-52.4078"/>
<polygon fill="black" stroke="black" points="453.257,-55.6747 461.949,-49.6169 451.376,-48.932 453.257,-55.6747"/>
</g>
<!-- Node0xc24e500&#45;&gt;Node0xf4723f0 -->
<g id="edge10" class="edge"><title>Node0xc24e500&#45;&gt;Node0xf4723f0</title>
<path fill="none" stroke="black" d="M489,-97.1892C489,-87.3476 489,-77.9959 489,-69.8993"/>
<polygon fill="black" stroke="black" points="492.5,-69.7081 489,-59.7081 485.5,-69.7082 492.5,-69.7081"/>
</g>
</g>
</svg>
