<?xml version="1.0" encoding="UTF-8" standalone="no"?>
<!DOCTYPE svg PUBLIC "-//W3C//DTD SVG 1.1//EN"
 "http://www.w3.org/Graphics/SVG/1.1/DTD/svg11.dtd">
<!-- Generated by graphviz version 2.38.0 (20140413.2041)
 -->
<!-- Title: Control&#45;flow graph for function &#39;function_412391()&#39;. Pages: 1 -->
<svg width="973pt" height="3596pt"
 viewBox="0.00 0.00 972.50 3596.00" xmlns="http://www.w3.org/2000/svg" xmlns:xlink="http://www.w3.org/1999/xlink">
<g id="graph0" class="graph" transform="scale(1 1) rotate(0) translate(4 3592)">
<title>Control&#45;flow graph for function &#39;function_412391()&#39;.</title>
<polygon fill="white" stroke="none" points="-4,4 -4,-3592 968.5,-3592 968.5,4 -4,4"/>
<text text-anchor="middle" x="482.25" y="-7.8" font-family="Times,serif" font-size="14.00">Control&#45;flow graph for function &#39;function_412391()&#39;.</text>
<!-- Node0xf2baa60 -->
<g id="node1" class="node"><title>Node0xf2baa60</title>
<polygon fill="none" stroke="black" points="130,-3551.5 130,-3587.5 189,-3587.5 189,-3551.5 130,-3551.5"/>
<text text-anchor="start" x="138" y="-3565.8" font-family="Times,serif" font-size="14.00">entry:</text>
</g>
<!-- Node0xf2bb130 -->
<g id="node2" class="node"><title>Node0xf2bb130</title>
<polygon fill="none" stroke="black" points="0,-2725.5 0,-3513.5 319,-3513.5 319,-2725.5 0,-2725.5"/>
<text text-anchor="start" x="8" y="-3498.3" font-family="Times,serif" font-size="14.00">v1</text>
<text text-anchor="start" x="8" y="-3483.3" font-family="Times,serif" font-size="14.00"> v2</text>
<text text-anchor="start" x="8" y="-3468.3" font-family="Times,serif" font-size="14.00"> v3</text>
<text text-anchor="start" x="8" y="-3453.3" font-family="Times,serif" font-size="14.00"> v4</text>
<text text-anchor="start" x="8" y="-3438.3" font-family="Times,serif" font-size="14.00"> windowHandle</text>
<text text-anchor="start" x="8" y="-3423.3" font-family="Times,serif" font-size="14.00"> v5</text>
<text text-anchor="start" x="8" y="-3408.3" font-family="Times,serif" font-size="14.00"> v6</text>
<text text-anchor="start" x="8" y="-3393.3" font-family="Times,serif" font-size="14.00"> v7</text>
<text text-anchor="start" x="8" y="-3378.3" font-family="Times,serif" font-size="14.00"> v8</text>
<text text-anchor="start" x="8" y="-3363.3" font-family="Times,serif" font-size="14.00"> v9</text>
<text text-anchor="start" x="8" y="-3348.3" font-family="Times,serif" font-size="14.00"> v10</text>
<text text-anchor="start" x="8" y="-3333.3" font-family="Times,serif" font-size="14.00"> v11</text>
<text text-anchor="start" x="8" y="-3318.3" font-family="Times,serif" font-size="14.00"> v12</text>
<text text-anchor="start" x="8" y="-3303.3" font-family="Times,serif" font-size="14.00"> v13</text>
<text text-anchor="start" x="8" y="-3288.3" font-family="Times,serif" font-size="14.00"> v14</text>
<text text-anchor="start" x="8" y="-3273.3" font-family="Times,serif" font-size="14.00"> v15</text>
<text text-anchor="start" x="8" y="-3258.3" font-family="Times,serif" font-size="14.00"> v16</text>
<text text-anchor="start" x="8" y="-3243.3" font-family="Times,serif" font-size="14.00"> v17</text>
<text text-anchor="start" x="8" y="-3228.3" font-family="Times,serif" font-size="14.00"> v18</text>
<text text-anchor="start" x="8" y="-3213.3" font-family="Times,serif" font-size="14.00"> v19</text>
<text text-anchor="start" x="8" y="-3198.3" font-family="Times,serif" font-size="14.00"> v20</text>
<text text-anchor="start" x="8" y="-3183.3" font-family="Times,serif" font-size="14.00"> v21</text>
<text text-anchor="start" x="8" y="-3168.3" font-family="Times,serif" font-size="14.00"> v22</text>
<text text-anchor="start" x="8" y="-3153.3" font-family="Times,serif" font-size="14.00"> v23</text>
<text text-anchor="start" x="8" y="-3138.3" font-family="Times,serif" font-size="14.00"> v24</text>
<text text-anchor="start" x="8" y="-3123.3" font-family="Times,serif" font-size="14.00"> v25</text>
<text text-anchor="start" x="8" y="-3108.3" font-family="Times,serif" font-size="14.00"> v26</text>
<text text-anchor="start" x="8" y="-3093.3" font-family="Times,serif" font-size="14.00"> v27</text>
<text text-anchor="start" x="8" y="-3078.3" font-family="Times,serif" font-size="14.00"> v28</text>
<text text-anchor="start" x="8" y="-3063.3" font-family="Times,serif" font-size="14.00"> v29</text>
<text text-anchor="start" x="8" y="-3048.3" font-family="Times,serif" font-size="14.00"> v30</text>
<text text-anchor="start" x="8" y="-3033.3" font-family="Times,serif" font-size="14.00"> v31</text>
<text text-anchor="start" x="8" y="-3018.3" font-family="Times,serif" font-size="14.00"> v32</text>
<text text-anchor="start" x="8" y="-3003.3" font-family="Times,serif" font-size="14.00"> v33</text>
<text text-anchor="start" x="8" y="-2988.3" font-family="Times,serif" font-size="14.00"> v34</text>
<text text-anchor="start" x="8" y="-2973.3" font-family="Times,serif" font-size="14.00"> v35</text>
<text text-anchor="start" x="8" y="-2958.3" font-family="Times,serif" font-size="14.00"> v36</text>
<text text-anchor="start" x="8" y="-2943.3" font-family="Times,serif" font-size="14.00"> v37</text>
<text text-anchor="start" x="8" y="-2928.3" font-family="Times,serif" font-size="14.00"> v38</text>
<text text-anchor="start" x="8" y="-2913.3" font-family="Times,serif" font-size="14.00"> v39</text>
<text text-anchor="start" x="8" y="-2898.3" font-family="Times,serif" font-size="14.00"> v40</text>
<text text-anchor="start" x="8" y="-2883.3" font-family="Times,serif" font-size="14.00"> v41</text>
<text text-anchor="start" x="8" y="-2868.3" font-family="Times,serif" font-size="14.00"> v42</text>
<text text-anchor="start" x="8" y="-2853.3" font-family="Times,serif" font-size="14.00"> v13 = v14</text>
<text text-anchor="start" x="8" y="-2838.3" font-family="Times,serif" font-size="14.00"> v11 = v12</text>
<text text-anchor="start" x="8" y="-2823.3" font-family="Times,serif" font-size="14.00"> v6 = v7</text>
<text text-anchor="start" x="8" y="-2808.3" font-family="Times,serif" font-size="14.00"> v16 = v17</text>
<text text-anchor="start" x="8" y="-2793.3" font-family="Times,serif" font-size="14.00"> g3 = PtrToIntCastExpr&lt;int32&gt;(&amp;(v16))</text>
<text text-anchor="start" x="8" y="-2778.3" font-family="Times,serif" font-size="14.00"> v30 = g5</text>
<text text-anchor="start" x="8" y="-2763.3" font-family="Times,serif" font-size="14.00"> v1 = IntToPtrCastExpr&lt;ptr&gt;((v30 + 76))</text>
<text text-anchor="start" x="8" y="-2748.3" font-family="Times,serif" font-size="14.00"> v34 = *(v1)</text>
<text text-anchor="start" x="8" y="-2733.3" font-family="Times,serif" font-size="14.00"> g2 = v34</text>
</g>
<!-- Node0xf2baa60&#45;&gt;Node0xf2bb130 -->
<g id="edge1" class="edge"><title>Node0xf2baa60&#45;&gt;Node0xf2bb130</title>
<path fill="none" stroke="black" d="M159.5,-3551.48C159.5,-3544.25 159.5,-3534.93 159.5,-3523.95"/>
<polygon fill="black" stroke="black" points="163,-3523.88 159.5,-3513.88 156,-3523.89 163,-3523.88"/>
</g>
<!-- Node0xf2bb190 -->
<g id="node3" class="node"><title>Node0xf2bb190</title>
<polygon fill="none" stroke="black" points="102.5,-2651.5 102.5,-2687.5 216.5,-2687.5 216.5,-2651.5 102.5,-2651.5"/>
<text text-anchor="start" x="110.5" y="-2665.8" font-family="Times,serif" font-size="14.00">if (v34 == 0):</text>
</g>
<!-- Node0xf2bb130&#45;&gt;Node0xf2bb190 -->
<g id="edge2" class="edge"><title>Node0xf2bb130&#45;&gt;Node0xf2bb190</title>
<path fill="none" stroke="black" d="M159.5,-2725.43C159.5,-2714.94 159.5,-2705.63 159.5,-2697.79"/>
<polygon fill="black" stroke="black" points="163,-2697.72 159.5,-2687.72 156,-2697.72 163,-2697.72"/>
</g>
<!-- Node0xf2bd140 -->
<g id="node4" class="node"><title>Node0xf2bd140</title>
<polygon fill="none" stroke="black" points="40.5,-2354.5 40.5,-2407.5 132.5,-2407.5 132.5,-2354.5 40.5,-2354.5"/>
<text text-anchor="start" x="48.5" y="-2392.3" font-family="Times,serif" font-size="14.00">0x4123a1:</text>
<text text-anchor="start" x="48.5" y="-2377.3" font-family="Times,serif" font-size="14.00"> g3 = v17</text>
<text text-anchor="start" x="48.5" y="-2362.3" font-family="Times,serif" font-size="14.00"> return</text>
</g>
<!-- Node0xf2bb190&#45;&gt;Node0xf2bd140 -->
<g id="edge3" class="edge"><title>Node0xf2bb190&#45;&gt;Node0xf2bd140</title>
<path fill="none" stroke="black" d="M134.748,-2651.24C128.477,-2645.95 122.196,-2639.74 117.5,-2633 108.573,-2620.2 108.873,-2615.24 105.5,-2600 91.5045,-2536.78 87.7229,-2461.1 86.7584,-2417.59"/>
<polygon fill="black" stroke="black" points="90.2564,-2417.44 86.5732,-2407.5 83.2576,-2417.56 90.2564,-2417.44"/>
<text text-anchor="middle" x="152" y="-2621.8" font-family="Times,serif" font-size="14.00">v34 == 0</text>
</g>
<!-- Node0x7c18d90 -->
<g id="node5" class="node"><title>Node0x7c18d90</title>
<polygon fill="none" stroke="black" points="114.5,-2426.5 114.5,-2599.5 460.5,-2599.5 460.5,-2426.5 114.5,-2426.5"/>
<text text-anchor="start" x="122.5" y="-2584.3" font-family="Times,serif" font-size="14.00">0x4123a3:</text>
<text text-anchor="start" x="122.5" y="-2569.3" font-family="Times,serif" font-size="14.00"> v23 = g4</text>
<text text-anchor="start" x="122.5" y="-2554.3" font-family="Times,serif" font-size="14.00"> v24 = g9</text>
<text text-anchor="start" x="122.5" y="-2539.3" font-family="Times,serif" font-size="14.00"> g2 = (v34 + 64)</text>
<text text-anchor="start" x="122.5" y="-2524.3" font-family="Times,serif" font-size="14.00"> v25 = g7</text>
<text text-anchor="start" x="122.5" y="-2509.3" font-family="Times,serif" font-size="14.00"> v11 = v25</text>
<text text-anchor="start" x="122.5" y="-2494.3" font-family="Times,serif" font-size="14.00"> v2 = PtrToIntCastExpr&lt;int32&gt;(&amp;(v11))</text>
<text text-anchor="start" x="122.5" y="-2479.3" font-family="Times,serif" font-size="14.00"> g10 = v2</text>
<text text-anchor="start" x="122.5" y="-2464.3" font-family="Times,serif" font-size="14.00"> v35 = *(IntToPtrCastExpr&lt;ptr&gt;((v34 + 68)))</text>
<text text-anchor="start" x="122.5" y="-2449.3" font-family="Times,serif" font-size="14.00"> g7 = v35</text>
<text text-anchor="start" x="122.5" y="-2434.3" font-family="Times,serif" font-size="14.00"> v6 = v35</text>
</g>
<!-- Node0xf2bb190&#45;&gt;Node0x7c18d90 -->
<g id="edge4" class="edge"><title>Node0xf2bb190&#45;&gt;Node0x7c18d90</title>
<path fill="none" stroke="black" d="M173.687,-2651.38C183.057,-2640.07 196.155,-2624.26 210.144,-2607.37"/>
<polygon fill="black" stroke="black" points="212.94,-2609.48 216.624,-2599.55 207.549,-2605.02 212.94,-2609.48"/>
<text text-anchor="middle" x="233" y="-2621.8" font-family="Times,serif" font-size="14.00">v34 != 0</text>
</g>
<!-- Node0xf2ba300 -->
<g id="node6" class="node"><title>Node0xf2ba300</title>
<polygon fill="none" stroke="black" points="154.5,-23.5 154.5,-59.5 208.5,-59.5 208.5,-23.5 154.5,-23.5"/>
<text text-anchor="start" x="162.5" y="-37.8" font-family="Times,serif" font-size="14.00">exit:</text>
</g>
<!-- Node0xf2bd140&#45;&gt;Node0xf2ba300 -->
<g id="edge5" class="edge"><title>Node0xf2bd140&#45;&gt;Node0xf2ba300</title>
<path fill="none" stroke="black" d="M86.5,-2354.42C86.5,-2333.05 86.5,-2301.79 86.5,-2274.5 86.5,-2274.5 86.5,-2274.5 86.5,-175.5 86.5,-139.017 89.7074,-126.978 110.5,-97 119.638,-83.8245 132.945,-72.4159 145.575,-63.4903"/>
<polygon fill="black" stroke="black" points="147.811,-66.2046 154.152,-57.7166 143.902,-60.3978 147.811,-66.2046"/>
</g>
<!-- Node0xf2bc7c0 -->
<g id="node7" class="node"><title>Node0xf2bc7c0</title>
<polygon fill="none" stroke="black" points="233.5,-2299.5 233.5,-2335.5 341.5,-2335.5 341.5,-2299.5 233.5,-2299.5"/>
<text text-anchor="start" x="241.5" y="-2313.8" font-family="Times,serif" font-size="14.00">if (v35 != 0):</text>
</g>
<!-- Node0x7c18d90&#45;&gt;Node0xf2bc7c0 -->
<g id="edge6" class="edge"><title>Node0x7c18d90&#45;&gt;Node0xf2bc7c0</title>
<path fill="none" stroke="black" d="M287.5,-2426.28C287.5,-2397.19 287.5,-2366.74 287.5,-2345.66"/>
<polygon fill="black" stroke="black" points="291,-2345.55 287.5,-2335.55 284,-2345.55 291,-2345.55"/>
</g>
<!-- Node0xf2bcfa0 -->
<g id="node8" class="node"><title>Node0xf2bcfa0</title>
<polygon fill="none" stroke="black" points="474.5,-2179.5 474.5,-2247.5 782.5,-2247.5 782.5,-2179.5 474.5,-2179.5"/>
<text text-anchor="start" x="482.5" y="-2232.3" font-family="Times,serif" font-size="14.00">0x4123b4:</text>
<text text-anchor="start" x="482.5" y="-2217.3" font-family="Times,serif" font-size="14.00"> v3 = PtrToIntCastExpr&lt;int32&gt;(&amp;(v6))</text>
<text text-anchor="start" x="482.5" y="-2202.3" font-family="Times,serif" font-size="14.00"> v4 = PtrToIntCastExpr&lt;int32&gt;(&amp;(v13))</text>
<text text-anchor="start" x="482.5" y="-2187.3" font-family="Times,serif" font-size="14.00"> v31 = v35</text>
</g>
<!-- Node0xf2bc7c0&#45;&gt;Node0xf2bcfa0 -->
<g id="edge7" class="edge"><title>Node0xf2bc7c0&#45;&gt;Node0xf2bcfa0</title>
<path fill="none" stroke="black" d="M341.532,-2300.34C386.181,-2286.98 451.24,-2267.52 508.128,-2250.51"/>
<polygon fill="black" stroke="black" points="509.336,-2253.8 517.913,-2247.58 507.33,-2247.09 509.336,-2253.8"/>
<text text-anchor="middle" x="480" y="-2269.8" font-family="Times,serif" font-size="14.00">v35 != 0</text>
</g>
<!-- Node0xf2bcf40 -->
<g id="node9" class="node"><title>Node0xf2bcf40</title>
<polygon fill="none" stroke="black" points="136,-2002.5 136,-2160.5 231,-2160.5 231,-2002.5 136,-2002.5"/>
<text text-anchor="start" x="144" y="-2145.3" font-family="Times,serif" font-size="14.00">0x4123f8:</text>
<text text-anchor="start" x="144" y="-2130.3" font-family="Times,serif" font-size="14.00"> v21 = 0</text>
<text text-anchor="start" x="144" y="-2115.3" font-family="Times,serif" font-size="14.00"> g2 = v21</text>
<text text-anchor="start" x="144" y="-2100.3" font-family="Times,serif" font-size="14.00"> v28 = v11</text>
<text text-anchor="start" x="144" y="-2085.3" font-family="Times,serif" font-size="14.00"> g7 = v28</text>
<text text-anchor="start" x="144" y="-2070.3" font-family="Times,serif" font-size="14.00"> g9 = v24</text>
<text text-anchor="start" x="144" y="-2055.3" font-family="Times,serif" font-size="14.00"> g4 = v23</text>
<text text-anchor="start" x="144" y="-2040.3" font-family="Times,serif" font-size="14.00"> v29 = v16</text>
<text text-anchor="start" x="144" y="-2025.3" font-family="Times,serif" font-size="14.00"> g3 = v29</text>
<text text-anchor="start" x="144" y="-2010.3" font-family="Times,serif" font-size="14.00"> return</text>
</g>
<!-- Node0xf2bc7c0&#45;&gt;Node0xf2bcf40 -->
<g id="edge8" class="edge"><title>Node0xf2bc7c0&#45;&gt;Node0xf2bcf40</title>
<path fill="none" stroke="black" d="M279.853,-2299.29C267.803,-2272.18 243.591,-2217.7 222.454,-2170.15"/>
<polygon fill="black" stroke="black" points="225.531,-2168.45 218.272,-2160.74 219.135,-2171.3 225.531,-2168.45"/>
<text text-anchor="middle" x="305" y="-2269.8" font-family="Times,serif" font-size="14.00">v35 == 0</text>
</g>
<!-- Node0xf2bc710 -->
<g id="node10" class="node"><title>Node0xf2bc710</title>
<polygon fill="none" stroke="black" points="667,-1947.5 667,-1983.5 764,-1983.5 764,-1947.5 667,-1947.5"/>
<text text-anchor="start" x="675" y="-1961.8" font-family="Times,serif" font-size="14.00">while True:</text>
</g>
<!-- Node0xf2bcfa0&#45;&gt;Node0xf2bc710 -->
<g id="edge9" class="edge"><title>Node0xf2bcfa0&#45;&gt;Node0xf2bc710</title>
<path fill="none" stroke="black" d="M640.233,-2179.32C657.66,-2130.05 690.044,-2038.48 706.047,-1993.23"/>
<polygon fill="black" stroke="black" points="709.439,-1994.14 709.473,-1983.54 702.839,-1991.8 709.439,-1994.14"/>
</g>
<!-- Node0xf2bcf40&#45;&gt;Node0xf2ba300 -->
<g id="edge10" class="edge"><title>Node0xf2bcf40&#45;&gt;Node0xf2ba300</title>
<path fill="none" stroke="black" d="M141.883,-2002.22C132.12,-1977.42 124.5,-1949.44 124.5,-1922.5 124.5,-1922.5 124.5,-1922.5 124.5,-175.5 124.5,-135.5 146.551,-93.8062 163.222,-68"/>
<polygon fill="black" stroke="black" points="166.212,-69.8247 168.85,-59.5634 160.389,-65.9402 166.212,-69.8247"/>
</g>
<!-- Node0xf2bd240 -->
<g id="node11" class="node"><title>Node0xf2bd240</title>
<polygon fill="none" stroke="black" points="547,-1767.5 547,-1895.5 884,-1895.5 884,-1767.5 547,-1767.5"/>
<text text-anchor="start" x="555" y="-1880.3" font-family="Times,serif" font-size="14.00">0x4123b4:</text>
<text text-anchor="start" x="555" y="-1865.3" font-family="Times,serif" font-size="14.00"> v36 = *(IntToPtrCastExpr&lt;ptr&gt;((v31 + 8)))</text>
<text text-anchor="start" x="555" y="-1850.3" font-family="Times,serif" font-size="14.00"> g9 = v36</text>
<text text-anchor="start" x="555" y="-1835.3" font-family="Times,serif" font-size="14.00"> v38 = *(IntToPtrCastExpr&lt;ptr&gt;((v36 + 4)))</text>
<text text-anchor="start" x="555" y="-1820.3" font-family="Times,serif" font-size="14.00"> g2 = v38</text>
<text text-anchor="start" x="555" y="-1805.3" font-family="Times,serif" font-size="14.00"> v37 = (v36 if (v38 == 0) else (v38 + 36))</text>
<text text-anchor="start" x="555" y="-1790.3" font-family="Times,serif" font-size="14.00"> v22 = *(IntToPtrCastExpr&lt;ptr&gt;(v37))</text>
<text text-anchor="start" x="555" y="-1775.3" font-family="Times,serif" font-size="14.00"> g4 = v22</text>
</g>
<!-- Node0xf2bc710&#45;&gt;Node0xf2bd240 -->
<g id="edge11" class="edge"><title>Node0xf2bc710&#45;&gt;Node0xf2bd240</title>
<path fill="none" stroke="black" d="M715.5,-1947.24C715.5,-1936.29 715.5,-1921.3 715.5,-1905.76"/>
<polygon fill="black" stroke="black" points="719,-1905.51 715.5,-1895.51 712,-1905.51 719,-1905.51"/>
<text text-anchor="middle" x="732.5" y="-1917.8" font-family="Times,serif" font-size="14.00">True</text>
</g>
<!-- Node0xf2bd470 -->
<g id="node12" class="node"><title>Node0xf2bd470</title>
<polygon fill="none" stroke="black" points="658.5,-1691.5 658.5,-1729.5 772.5,-1729.5 772.5,-1691.5 658.5,-1691.5"/>
<text text-anchor="start" x="666.5" y="-1714.3" font-family="Times,serif" font-size="14.00">if (v22 == 0):</text>
<text text-anchor="start" x="666.5" y="-1699.3" font-family="Times,serif" font-size="14.00"> else:</text>
</g>
<!-- Node0xf2bd240&#45;&gt;Node0xf2bd470 -->
<g id="edge12" class="edge"><title>Node0xf2bd240&#45;&gt;Node0xf2bd470</title>
<path fill="none" stroke="black" d="M715.5,-1767.17C715.5,-1757.6 715.5,-1748.16 715.5,-1739.85"/>
<polygon fill="black" stroke="black" points="719,-1739.66 715.5,-1729.66 712,-1739.66 719,-1739.66"/>
</g>
<!-- Node0xf2bd880 -->
<g id="node13" class="node"><title>Node0xf2bd880</title>
<polygon fill="none" stroke="black" points="841.5,-1516.5 841.5,-1552.5 931.5,-1552.5 931.5,-1516.5 841.5,-1516.5"/>
<text text-anchor="start" x="849.5" y="-1530.8" font-family="Times,serif" font-size="14.00">v32 = v36</text>
</g>
<!-- Node0xf2bd470&#45;&gt;Node0xf2bd880 -->
<g id="edge13" class="edge"><title>Node0xf2bd470&#45;&gt;Node0xf2bd880</title>
<path fill="none" stroke="black" d="M733.477,-1691.21C764.408,-1659.73 827.71,-1595.32 862.418,-1560"/>
<polygon fill="black" stroke="black" points="865.262,-1562.1 869.775,-1552.52 860.27,-1557.2 865.262,-1562.1"/>
<text text-anchor="middle" x="799" y="-1661.8" font-family="Times,serif" font-size="14.00">v22 == 0</text>
</g>
<!-- Node0x7c260c0 -->
<g id="node14" class="node"><title>Node0x7c260c0</title>
<polygon fill="none" stroke="black" points="503,-1571.5 503,-1639.5 730,-1639.5 730,-1571.5 503,-1571.5"/>
<text text-anchor="start" x="511" y="-1624.3" font-family="Times,serif" font-size="14.00">0x4123c9:</text>
<text text-anchor="start" x="511" y="-1609.3" font-family="Times,serif" font-size="14.00"> windowHandle = GetFocus()</text>
<text text-anchor="start" x="511" y="-1594.3" font-family="Times,serif" font-size="14.00"> g10 = v2</text>
<text text-anchor="start" x="511" y="-1579.3" font-family="Times,serif" font-size="14.00"> v26 = g4</text>
</g>
<!-- Node0xf2bd470&#45;&gt;Node0x7c260c0 -->
<g id="edge14" class="edge"><title>Node0xf2bd470&#45;&gt;Node0x7c260c0</title>
<path fill="none" stroke="black" d="M697.801,-1691.09C686.043,-1678.85 670.134,-1662.3 655.506,-1647.08"/>
<polygon fill="black" stroke="black" points="657.905,-1644.53 648.452,-1639.74 652.859,-1649.38 657.905,-1644.53"/>
<text text-anchor="middle" x="709" y="-1661.8" font-family="Times,serif" font-size="14.00">v22 != 0</text>
</g>
<!-- Node0xf2bd6e0 -->
<g id="node15" class="node"><title>Node0xf2bd6e0</title>
<polygon fill="none" stroke="black" points="422,-1077.5 422,-1130.5 759,-1130.5 759,-1077.5 422,-1077.5"/>
<text text-anchor="start" x="430" y="-1115.3" font-family="Times,serif" font-size="14.00">0x4123d3:</text>
<text text-anchor="start" x="430" y="-1100.3" font-family="Times,serif" font-size="14.00"> v39 = *(IntToPtrCastExpr&lt;ptr&gt;((v32 + 4)))</text>
<text text-anchor="start" x="430" y="-1085.3" font-family="Times,serif" font-size="14.00"> g9 = v39</text>
</g>
<!-- Node0xf2bd880&#45;&gt;Node0xf2bd6e0 -->
<g id="edge15" class="edge"><title>Node0xf2bd880&#45;&gt;Node0xf2bd6e0</title>
<path fill="none" stroke="black" d="M897.271,-1516.19C909.081,-1494.87 924.821,-1457.81 912.5,-1428 857.168,-1294.12 716.47,-1186.63 640.678,-1136.19"/>
<polygon fill="black" stroke="black" points="642.489,-1133.19 632.213,-1130.61 638.639,-1139.04 642.489,-1133.19"/>
</g>
<!-- Node0xf2be430 -->
<g id="node16" class="node"><title>Node0xf2be430</title>
<polygon fill="none" stroke="black" points="349,-1461.5 349,-1497.5 754,-1497.5 754,-1461.5 349,-1461.5"/>
<text text-anchor="start" x="357" y="-1475.8" font-family="Times,serif" font-size="14.00">if (v26 != PtrToIntCastExpr&lt;int32&gt;(windowHandle)):</text>
</g>
<!-- Node0x7c260c0&#45;&gt;Node0xf2be430 -->
<g id="edge16" class="edge"><title>Node0x7c260c0&#45;&gt;Node0xf2be430</title>
<path fill="none" stroke="black" d="M599.081,-1571.27C588.465,-1551.02 575.091,-1525.5 565.227,-1506.69"/>
<polygon fill="black" stroke="black" points="568.301,-1505.01 560.558,-1497.78 562.101,-1508.26 568.301,-1505.01"/>
</g>
<!-- Node0xf2bcc30 -->
<g id="node17" class="node"><title>Node0xf2bcc30</title>
<polygon fill="none" stroke="black" points="536.5,-1003.5 536.5,-1039.5 644.5,-1039.5 644.5,-1003.5 536.5,-1003.5"/>
<text text-anchor="start" x="544.5" y="-1017.8" font-family="Times,serif" font-size="14.00">if (v39 != 0):</text>
</g>
<!-- Node0xf2bd6e0&#45;&gt;Node0xf2bcc30 -->
<g id="edge17" class="edge"><title>Node0xf2bd6e0&#45;&gt;Node0xf2bcc30</title>
<path fill="none" stroke="black" d="M590.5,-1077.09C590.5,-1068.46 590.5,-1058.82 590.5,-1050.07"/>
<polygon fill="black" stroke="black" points="594,-1049.97 590.5,-1039.97 587,-1049.97 594,-1049.97"/>
</g>
<!-- Node0xf2beac0 -->
<g id="node18" class="node"><title>Node0xf2beac0</title>
<polygon fill="none" stroke="black" points="490.5,-1341.5 490.5,-1409.5 618.5,-1409.5 618.5,-1341.5 490.5,-1341.5"/>
<text text-anchor="start" x="498.5" y="-1394.3" font-family="Times,serif" font-size="14.00">0x4123c9:</text>
<text text-anchor="start" x="498.5" y="-1379.3" font-family="Times,serif" font-size="14.00"> v33 = g9</text>
<text text-anchor="start" x="498.5" y="-1364.3" font-family="Times,serif" font-size="14.00"> v32 = v33</text>
<text text-anchor="start" x="498.5" y="-1349.3" font-family="Times,serif" font-size="14.00"> goto 0x4123d3</text>
</g>
<!-- Node0xf2be430&#45;&gt;Node0xf2beac0 -->
<g id="edge18" class="edge"><title>Node0xf2be430&#45;&gt;Node0xf2beac0</title>
<path fill="none" stroke="black" d="M551.761,-1461.2C551.929,-1451.45 552.176,-1439.04 552.5,-1428 552.578,-1425.33 552.666,-1422.57 552.759,-1419.8"/>
<polygon fill="black" stroke="black" points="556.259,-1419.86 553.116,-1409.74 549.263,-1419.61 556.259,-1419.86"/>
<text text-anchor="middle" x="732.5" y="-1431.8" font-family="Times,serif" font-size="14.00">v26 != PtrToIntCastExpr&lt;int32&gt;(windowHandle)</text>
</g>
<!-- Node0xf2bd680 -->
<g id="node19" class="node"><title>Node0xf2bd680</title>
<polygon fill="none" stroke="black" points="140,-1149.5 140,-1322.5 235,-1322.5 235,-1149.5 140,-1149.5"/>
<text text-anchor="start" x="148" y="-1307.3" font-family="Times,serif" font-size="14.00">0x4123ff:</text>
<text text-anchor="start" x="148" y="-1292.3" font-family="Times,serif" font-size="14.00"> v27 = g7</text>
<text text-anchor="start" x="148" y="-1277.3" font-family="Times,serif" font-size="14.00"> v21 = v27</text>
<text text-anchor="start" x="148" y="-1262.3" font-family="Times,serif" font-size="14.00"> g2 = v21</text>
<text text-anchor="start" x="148" y="-1247.3" font-family="Times,serif" font-size="14.00"> v28 = v11</text>
<text text-anchor="start" x="148" y="-1232.3" font-family="Times,serif" font-size="14.00"> g7 = v28</text>
<text text-anchor="start" x="148" y="-1217.3" font-family="Times,serif" font-size="14.00"> g9 = v24</text>
<text text-anchor="start" x="148" y="-1202.3" font-family="Times,serif" font-size="14.00"> g4 = v23</text>
<text text-anchor="start" x="148" y="-1187.3" font-family="Times,serif" font-size="14.00"> v29 = v16</text>
<text text-anchor="start" x="148" y="-1172.3" font-family="Times,serif" font-size="14.00"> g3 = v29</text>
<text text-anchor="start" x="148" y="-1157.3" font-family="Times,serif" font-size="14.00"> return</text>
</g>
<!-- Node0xf2be430&#45;&gt;Node0xf2bd680 -->
<g id="edge19" class="edge"><title>Node0xf2be430&#45;&gt;Node0xf2bd680</title>
<path fill="none" stroke="black" d="M348.754,-1470.42C269.683,-1465.14 194.86,-1456.61 182.5,-1443 156.002,-1413.83 153.234,-1371.62 158.68,-1333"/>
<polygon fill="black" stroke="black" points="162.198,-1333.17 160.326,-1322.74 155.286,-1332.06 162.198,-1333.17"/>
<text text-anchor="middle" x="365.5" y="-1431.8" font-family="Times,serif" font-size="14.00">v26 == PtrToIntCastExpr&lt;int32&gt;(windowHandle)</text>
</g>
<!-- Node0xf2be8b0 -->
<g id="node20" class="node"><title>Node0xf2be8b0</title>
<polygon fill="none" stroke="black" points="210,-868.5 210,-951.5 565,-951.5 565,-868.5 210,-868.5"/>
<text text-anchor="start" x="218" y="-936.3" font-family="Times,serif" font-size="14.00">0x4123da:</text>
<text text-anchor="start" x="218" y="-921.3" font-family="Times,serif" font-size="14.00"> g2 = v30</text>
<text text-anchor="start" x="218" y="-906.3" font-family="Times,serif" font-size="14.00"> v40 = *(v1)</text>
<text text-anchor="start" x="218" y="-891.3" font-family="Times,serif" font-size="14.00"> g2 = v40</text>
<text text-anchor="start" x="218" y="-876.3" font-family="Times,serif" font-size="14.00"> v42 = *(IntToPtrCastExpr&lt;ptr&gt;((v40 + 112)))</text>
</g>
<!-- Node0xf2bcc30&#45;&gt;Node0xf2be8b0 -->
<g id="edge20" class="edge"><title>Node0xf2bcc30&#45;&gt;Node0xf2be8b0</title>
<path fill="none" stroke="black" d="M553.347,-1003.33C541.482,-997.675 528.355,-991.233 516.5,-985 499.569,-976.098 481.634,-966.151 464.694,-956.509"/>
<polygon fill="black" stroke="black" points="466.355,-953.427 455.936,-951.502 462.88,-959.504 466.355,-953.427"/>
<text text-anchor="middle" x="548" y="-973.8" font-family="Times,serif" font-size="14.00">v39 != 0</text>
</g>
<!-- Node0xf2be010 -->
<g id="node21" class="node"><title>Node0xf2be010</title>
<polygon fill="none" stroke="black" points="349,-630.5 349,-728.5 686,-728.5 686,-630.5 349,-630.5"/>
<text text-anchor="start" x="357" y="-713.3" font-family="Times,serif" font-size="14.00">0x4123e5:</text>
<text text-anchor="start" x="357" y="-698.3" font-family="Times,serif" font-size="14.00"> g2 = v3</text>
<text text-anchor="start" x="357" y="-683.3" font-family="Times,serif" font-size="14.00"> g10 = v4</text>
<text text-anchor="start" x="357" y="-668.3" font-family="Times,serif" font-size="14.00"> function_411e91(BitCastExpr&lt;ptr&gt;(&amp;(v6)))</text>
<text text-anchor="start" x="357" y="-653.3" font-family="Times,serif" font-size="14.00"> v41 = v6</text>
<text text-anchor="start" x="357" y="-638.3" font-family="Times,serif" font-size="14.00"> g7 = v41</text>
</g>
<!-- Node0xf2bcc30&#45;&gt;Node0xf2be010 -->
<g id="edge21" class="edge"><title>Node0xf2bcc30&#45;&gt;Node0xf2be010</title>
<path fill="none" stroke="black" d="M589.597,-1003.42C587.874,-975.058 583.374,-916.556 573.5,-868 564.52,-823.84 549.811,-775.103 537.721,-738.388"/>
<polygon fill="black" stroke="black" points="541.024,-737.231 534.548,-728.846 534.382,-739.439 541.024,-737.231"/>
<text text-anchor="middle" x="604" y="-838.8" font-family="Times,serif" font-size="14.00">v39 == 0</text>
</g>
<!-- Node0xf2beac0&#45;&gt;Node0xf2bd6e0 -->
<g id="edge22" class="edge"><title>Node0xf2beac0&#45;&gt;Node0xf2bd6e0</title>
<path fill="none" stroke="black" d="M558.914,-1341.45C565.712,-1290.57 578.69,-1193.41 585.709,-1140.87"/>
<polygon fill="black" stroke="black" points="589.216,-1141.05 587.071,-1130.67 582.277,-1140.12 589.216,-1141.05"/>
</g>
<!-- Node0xf2bd680&#45;&gt;Node0xf2ba300 -->
<g id="edge23" class="edge"><title>Node0xf2bd680&#45;&gt;Node0xf2ba300</title>
<path fill="none" stroke="black" d="M183.398,-1149.08C182.344,-1120.44 181.5,-1088.35 181.5,-1059 181.5,-1059 181.5,-1059 181.5,-175.5 181.5,-138.97 181.5,-96.7973 181.5,-69.9064"/>
<polygon fill="black" stroke="black" points="185,-69.7165 181.5,-59.7166 178,-69.7166 185,-69.7165"/>
</g>
<!-- Node0xf2be910 -->
<g id="node22" class="node"><title>Node0xf2be910</title>
<polygon fill="none" stroke="black" points="322,-780.5 322,-816.5 453,-816.5 453,-780.5 322,-780.5"/>
<text text-anchor="start" x="330" y="-794.8" font-family="Times,serif" font-size="14.00">if (v39 == v42):</text>
</g>
<!-- Node0xf2be8b0&#45;&gt;Node0xf2be910 -->
<g id="edge24" class="edge"><title>Node0xf2be8b0&#45;&gt;Node0xf2be910</title>
<path fill="none" stroke="black" d="M387.5,-868.226C387.5,-854.4 387.5,-839.299 387.5,-826.782"/>
<polygon fill="black" stroke="black" points="391,-826.545 387.5,-816.546 384,-826.546 391,-826.545"/>
</g>
<!-- Node0xf2be100 -->
<g id="node23" class="node"><title>Node0xf2be100</title>
<polygon fill="none" stroke="black" points="460.5,-383.5 460.5,-419.5 574.5,-419.5 574.5,-383.5 460.5,-383.5"/>
<text text-anchor="start" x="468.5" y="-397.8" font-family="Times,serif" font-size="14.00">if (v41 == 0):</text>
</g>
<!-- Node0xf2be010&#45;&gt;Node0xf2be100 -->
<g id="edge25" class="edge"><title>Node0xf2be010&#45;&gt;Node0xf2be100</title>
<path fill="none" stroke="black" d="M517.5,-630.424C517.5,-572.374 517.5,-476.721 517.5,-429.959"/>
<polygon fill="black" stroke="black" points="521,-429.7 517.5,-419.7 514,-429.7 521,-429.7"/>
</g>
<!-- Node0xf2be910&#45;&gt;Node0xf2be010 -->
<g id="edge27" class="edge"><title>Node0xf2be910&#45;&gt;Node0xf2be010</title>
<path fill="none" stroke="black" d="M406.403,-780.487C419.651,-768.564 438.162,-751.904 456.28,-735.598"/>
<polygon fill="black" stroke="black" points="458.913,-737.937 464.005,-728.646 454.23,-732.734 458.913,-737.937"/>
<text text-anchor="middle" x="481.5" y="-750.8" font-family="Times,serif" font-size="14.00">v39 != v42</text>
</g>
<!-- Node0xf2beea0 -->
<g id="node24" class="node"><title>Node0xf2beea0</title>
<polygon fill="none" stroke="black" points="216,-438.5 216,-611.5 311,-611.5 311,-438.5 216,-438.5"/>
<text text-anchor="start" x="224" y="-596.3" font-family="Times,serif" font-size="14.00">0x4123ff:</text>
<text text-anchor="start" x="224" y="-581.3" font-family="Times,serif" font-size="14.00"> v27 = g7</text>
<text text-anchor="start" x="224" y="-566.3" font-family="Times,serif" font-size="14.00"> v21 = v27</text>
<text text-anchor="start" x="224" y="-551.3" font-family="Times,serif" font-size="14.00"> g2 = v21</text>
<text text-anchor="start" x="224" y="-536.3" font-family="Times,serif" font-size="14.00"> v28 = v11</text>
<text text-anchor="start" x="224" y="-521.3" font-family="Times,serif" font-size="14.00"> g7 = v28</text>
<text text-anchor="start" x="224" y="-506.3" font-family="Times,serif" font-size="14.00"> g9 = v24</text>
<text text-anchor="start" x="224" y="-491.3" font-family="Times,serif" font-size="14.00"> g4 = v23</text>
<text text-anchor="start" x="224" y="-476.3" font-family="Times,serif" font-size="14.00"> v29 = v16</text>
<text text-anchor="start" x="224" y="-461.3" font-family="Times,serif" font-size="14.00"> g3 = v29</text>
<text text-anchor="start" x="224" y="-446.3" font-family="Times,serif" font-size="14.00"> return</text>
</g>
<!-- Node0xf2be910&#45;&gt;Node0xf2beea0 -->
<g id="edge26" class="edge"><title>Node0xf2be910&#45;&gt;Node0xf2beea0</title>
<path fill="none" stroke="black" d="M359.116,-780.428C352.263,-775.219 345.488,-768.993 340.5,-762 310.945,-720.569 292.272,-667.146 280.731,-621.609"/>
<polygon fill="black" stroke="black" points="284.087,-620.598 278.304,-611.721 277.288,-622.267 284.087,-620.598"/>
<text text-anchor="middle" x="383.5" y="-750.8" font-family="Times,serif" font-size="14.00">v39 == v42</text>
</g>
<!-- Node0xf2bea60 -->
<g id="node25" class="node"><title>Node0xf2bea60</title>
<polygon fill="none" stroke="black" points="429,-293.5 429,-331.5 502,-331.5 502,-293.5 429,-293.5"/>
<text text-anchor="start" x="437" y="-316.3" font-family="Times,serif" font-size="14.00">v21 = 0</text>
<text text-anchor="start" x="437" y="-301.3" font-family="Times,serif" font-size="14.00"> break</text>
</g>
<!-- Node0xf2be100&#45;&gt;Node0xf2bea60 -->
<g id="edge28" class="edge"><title>Node0xf2be100&#45;&gt;Node0xf2bea60</title>
<path fill="none" stroke="black" d="M507.226,-383.312C499.894,-371.044 489.888,-354.304 481.513,-340.291"/>
<polygon fill="black" stroke="black" points="484.424,-338.339 476.289,-331.551 478.415,-341.931 484.424,-338.339"/>
<text text-anchor="middle" x="531" y="-353.8" font-family="Times,serif" font-size="14.00">v41 == 0</text>
</g>
<!-- Node0xf2be220 -->
<g id="node26" class="node"><title>Node0xf2be220</title>
<polygon fill="none" stroke="black" points="682.5,-293.5 682.5,-331.5 772.5,-331.5 772.5,-293.5 682.5,-293.5"/>
<text text-anchor="start" x="690.5" y="-316.3" font-family="Times,serif" font-size="14.00">v31 = v41</text>
<text text-anchor="start" x="690.5" y="-301.3" font-family="Times,serif" font-size="14.00"> continue</text>
</g>
<!-- Node0xf2be100&#45;&gt;Node0xf2be220 -->
<g id="edge29" class="edge"><title>Node0xf2be100&#45;&gt;Node0xf2be220</title>
<path fill="none" stroke="black" d="M558.739,-383.415C591.853,-369.697 638.584,-350.337 674.478,-335.466"/>
<polygon fill="black" stroke="black" points="675.925,-338.656 683.823,-331.595 673.245,-332.189 675.925,-338.656"/>
<text text-anchor="middle" x="667" y="-353.8" font-family="Times,serif" font-size="14.00">v41 != 0</text>
</g>
<!-- Node0xf2beea0&#45;&gt;Node0xf2ba300 -->
<g id="edge30" class="edge"><title>Node0xf2beea0&#45;&gt;Node0xf2ba300</title>
<path fill="none" stroke="black" d="M247.745,-438.389C244.219,-412.787 241.5,-384.587 241.5,-358.5 241.5,-358.5 241.5,-358.5 241.5,-175.5 241.5,-135.393 218.549,-94.0213 201.036,-68.2914"/>
<polygon fill="black" stroke="black" points="203.73,-66.0376 195.115,-59.8705 198.004,-70.0639 203.73,-66.0376"/>
</g>
<!-- Node0xf2b8980 -->
<g id="node27" class="node"><title>Node0xf2b8980</title>
<polygon fill="none" stroke="black" points="301,-97.5 301,-255.5 396,-255.5 396,-97.5 301,-97.5"/>
<text text-anchor="start" x="309" y="-240.3" font-family="Times,serif" font-size="14.00">0x4123f8:</text>
<text text-anchor="start" x="309" y="-225.3" font-family="Times,serif" font-size="14.00"> v21 = 0</text>
<text text-anchor="start" x="309" y="-210.3" font-family="Times,serif" font-size="14.00"> g2 = v21</text>
<text text-anchor="start" x="309" y="-195.3" font-family="Times,serif" font-size="14.00"> v28 = v11</text>
<text text-anchor="start" x="309" y="-180.3" font-family="Times,serif" font-size="14.00"> g7 = v28</text>
<text text-anchor="start" x="309" y="-165.3" font-family="Times,serif" font-size="14.00"> g9 = v24</text>
<text text-anchor="start" x="309" y="-150.3" font-family="Times,serif" font-size="14.00"> g4 = v23</text>
<text text-anchor="start" x="309" y="-135.3" font-family="Times,serif" font-size="14.00"> v29 = v16</text>
<text text-anchor="start" x="309" y="-120.3" font-family="Times,serif" font-size="14.00"> g3 = v29</text>
<text text-anchor="start" x="309" y="-105.3" font-family="Times,serif" font-size="14.00"> return</text>
</g>
<!-- Node0xf2bea60&#45;&gt;Node0xf2b8980 -->
<g id="edge31" class="edge"><title>Node0xf2bea60&#45;&gt;Node0xf2b8980</title>
<path fill="none" stroke="black" d="M449.721,-293.428C437.551,-279.49 419.959,-259.342 402.843,-239.739"/>
<polygon fill="black" stroke="black" points="405.28,-237.208 396.066,-231.977 400.007,-241.812 405.28,-237.208"/>
</g>
<!-- Node0xf2be220&#45;&gt;Node0xf2bc710 -->
<g id="edge32" class="edge"><title>Node0xf2be220&#45;&gt;Node0xf2bc710</title>
<path fill="none" stroke="black" d="M772.636,-320.607C841.399,-332.725 964.5,-360.066 964.5,-400.5 964.5,-1832.5 964.5,-1832.5 964.5,-1832.5 964.5,-1918.25 847.8,-1948.46 774.186,-1958.98"/>
<polygon fill="black" stroke="black" points="773.544,-1955.54 764.101,-1960.34 774.479,-1962.47 773.544,-1955.54"/>
</g>
<!-- Node0xf2b8980&#45;&gt;Node0xf2ba300 -->
<g id="edge33" class="edge"><title>Node0xf2b8980&#45;&gt;Node0xf2ba300</title>
<path fill="none" stroke="black" d="M300.985,-118.749C287.246,-104.359 271.588,-89.6848 255.5,-78 244.108,-69.7259 230.485,-62.5502 218.051,-56.8577"/>
<polygon fill="black" stroke="black" points="219.394,-53.6247 208.831,-52.8 216.574,-60.0317 219.394,-53.6247"/>
</g>
</g>
</svg>
