<?xml version="1.0" encoding="UTF-8" standalone="no"?>
<!DOCTYPE svg PUBLIC "-//W3C//DTD SVG 1.1//EN"
 "http://www.w3.org/Graphics/SVG/1.1/DTD/svg11.dtd">
<!-- Generated by graphviz version 2.38.0 (20140413.2041)
 -->
<!-- Title: Control&#45;flow graph for function &#39;function_428850(*a1, *a2, *a3)&#39;. Pages: 1 -->
<svg width="1678pt" height="2236pt"
 viewBox="0.00 0.00 1677.50 2236.00" xmlns="http://www.w3.org/2000/svg" xmlns:xlink="http://www.w3.org/1999/xlink">
<g id="graph0" class="graph" transform="scale(1 1) rotate(0) translate(4 2232)">
<title>Control&#45;flow graph for function &#39;function_428850(*a1, *a2, *a3)&#39;.</title>
<polygon fill="white" stroke="none" points="-4,4 -4,-2232 1673.5,-2232 1673.5,4 -4,4"/>
<text text-anchor="middle" x="834.75" y="-7.8" font-family="Times,serif" font-size="14.00">Control&#45;flow graph for function &#39;function_428850(*a1, *a2, *a3)&#39;.</text>
<!-- Node0xfea1d20 -->
<g id="node1" class="node"><title>Node0xfea1d20</title>
<polygon fill="none" stroke="black" points="1259,-2159.5 1259,-2227.5 1318,-2227.5 1318,-2159.5 1259,-2159.5"/>
<text text-anchor="start" x="1267" y="-2212.3" font-family="Times,serif" font-size="14.00">entry:</text>
<text text-anchor="start" x="1267" y="-2197.3" font-family="Times,serif" font-size="14.00"> a1</text>
<text text-anchor="start" x="1267" y="-2182.3" font-family="Times,serif" font-size="14.00"> a2</text>
<text text-anchor="start" x="1267" y="-2167.3" font-family="Times,serif" font-size="14.00"> a3</text>
</g>
<!-- Node0xfea2670 -->
<g id="node2" class="node"><title>Node0xfea2670</title>
<polygon fill="none" stroke="black" points="1061,-1273.5 1061,-2121.5 1516,-2121.5 1516,-1273.5 1061,-1273.5"/>
<text text-anchor="start" x="1069" y="-2106.3" font-family="Times,serif" font-size="14.00">v1</text>
<text text-anchor="start" x="1069" y="-2091.3" font-family="Times,serif" font-size="14.00"> v2</text>
<text text-anchor="start" x="1069" y="-2076.3" font-family="Times,serif" font-size="14.00"> v3</text>
<text text-anchor="start" x="1069" y="-2061.3" font-family="Times,serif" font-size="14.00"> v4</text>
<text text-anchor="start" x="1069" y="-2046.3" font-family="Times,serif" font-size="14.00"> v5</text>
<text text-anchor="start" x="1069" y="-2031.3" font-family="Times,serif" font-size="14.00"> v6</text>
<text text-anchor="start" x="1069" y="-2016.3" font-family="Times,serif" font-size="14.00"> v7</text>
<text text-anchor="start" x="1069" y="-2001.3" font-family="Times,serif" font-size="14.00"> v8</text>
<text text-anchor="start" x="1069" y="-1986.3" font-family="Times,serif" font-size="14.00"> v9</text>
<text text-anchor="start" x="1069" y="-1971.3" font-family="Times,serif" font-size="14.00"> v10</text>
<text text-anchor="start" x="1069" y="-1956.3" font-family="Times,serif" font-size="14.00"> v11</text>
<text text-anchor="start" x="1069" y="-1941.3" font-family="Times,serif" font-size="14.00"> v12</text>
<text text-anchor="start" x="1069" y="-1926.3" font-family="Times,serif" font-size="14.00"> v13</text>
<text text-anchor="start" x="1069" y="-1911.3" font-family="Times,serif" font-size="14.00"> result</text>
<text text-anchor="start" x="1069" y="-1896.3" font-family="Times,serif" font-size="14.00"> v14</text>
<text text-anchor="start" x="1069" y="-1881.3" font-family="Times,serif" font-size="14.00"> v15</text>
<text text-anchor="start" x="1069" y="-1866.3" font-family="Times,serif" font-size="14.00"> v16</text>
<text text-anchor="start" x="1069" y="-1851.3" font-family="Times,serif" font-size="14.00"> v17</text>
<text text-anchor="start" x="1069" y="-1836.3" font-family="Times,serif" font-size="14.00"> v18</text>
<text text-anchor="start" x="1069" y="-1821.3" font-family="Times,serif" font-size="14.00"> v19</text>
<text text-anchor="start" x="1069" y="-1806.3" font-family="Times,serif" font-size="14.00"> v20</text>
<text text-anchor="start" x="1069" y="-1791.3" font-family="Times,serif" font-size="14.00"> v21</text>
<text text-anchor="start" x="1069" y="-1776.3" font-family="Times,serif" font-size="14.00"> v22</text>
<text text-anchor="start" x="1069" y="-1761.3" font-family="Times,serif" font-size="14.00"> v23</text>
<text text-anchor="start" x="1069" y="-1746.3" font-family="Times,serif" font-size="14.00"> v24</text>
<text text-anchor="start" x="1069" y="-1731.3" font-family="Times,serif" font-size="14.00"> v25</text>
<text text-anchor="start" x="1069" y="-1716.3" font-family="Times,serif" font-size="14.00"> v26</text>
<text text-anchor="start" x="1069" y="-1701.3" font-family="Times,serif" font-size="14.00"> v27</text>
<text text-anchor="start" x="1069" y="-1686.3" font-family="Times,serif" font-size="14.00"> v28</text>
<text text-anchor="start" x="1069" y="-1671.3" font-family="Times,serif" font-size="14.00"> v29</text>
<text text-anchor="start" x="1069" y="-1656.3" font-family="Times,serif" font-size="14.00"> v30</text>
<text text-anchor="start" x="1069" y="-1641.3" font-family="Times,serif" font-size="14.00"> v31</text>
<text text-anchor="start" x="1069" y="-1626.3" font-family="Times,serif" font-size="14.00"> v32</text>
<text text-anchor="start" x="1069" y="-1611.3" font-family="Times,serif" font-size="14.00"> v33</text>
<text text-anchor="start" x="1069" y="-1596.3" font-family="Times,serif" font-size="14.00"> v34</text>
<text text-anchor="start" x="1069" y="-1581.3" font-family="Times,serif" font-size="14.00"> v35</text>
<text text-anchor="start" x="1069" y="-1566.3" font-family="Times,serif" font-size="14.00"> v36</text>
<text text-anchor="start" x="1069" y="-1551.3" font-family="Times,serif" font-size="14.00"> v37</text>
<text text-anchor="start" x="1069" y="-1536.3" font-family="Times,serif" font-size="14.00"> v38</text>
<text text-anchor="start" x="1069" y="-1521.3" font-family="Times,serif" font-size="14.00"> v17 = v18</text>
<text text-anchor="start" x="1069" y="-1506.3" font-family="Times,serif" font-size="14.00"> v14 = v15</text>
<text text-anchor="start" x="1069" y="-1491.3" font-family="Times,serif" font-size="14.00"> v22 = v26</text>
<text text-anchor="start" x="1069" y="-1476.3" font-family="Times,serif" font-size="14.00"> v27 = v28</text>
<text text-anchor="start" x="1069" y="-1461.3" font-family="Times,serif" font-size="14.00"> g3 = PtrToIntCastExpr&lt;int32&gt;(&amp;(v22))</text>
<text text-anchor="start" x="1069" y="-1446.3" font-family="Times,serif" font-size="14.00"> v2 = PtrToIntCastExpr&lt;int32&gt;(&amp;(v14))</text>
<text text-anchor="start" x="1069" y="-1431.3" font-family="Times,serif" font-size="14.00"> g2 = v2</text>
<text text-anchor="start" x="1069" y="-1416.3" font-family="Times,serif" font-size="14.00"> function_42a3f0(BitCastExpr&lt;ptr&gt;(&amp;(v14)))</text>
<text text-anchor="start" x="1069" y="-1401.3" font-family="Times,serif" font-size="14.00"> v33 = PtrToIntCastExpr&lt;int32&gt;(a1)</text>
<text text-anchor="start" x="1069" y="-1386.3" font-family="Times,serif" font-size="14.00"> v3 = IntToPtrCastExpr&lt;ptr&gt;((v33 + 4))</text>
<text text-anchor="start" x="1069" y="-1371.3" font-family="Times,serif" font-size="14.00"> v34 = *(v3)</text>
<text text-anchor="start" x="1069" y="-1356.3" font-family="Times,serif" font-size="14.00"> v35 = PtrToIntCastExpr&lt;int32&gt;(a2)</text>
<text text-anchor="start" x="1069" y="-1341.3" font-family="Times,serif" font-size="14.00"> g2 = v35</text>
<text text-anchor="start" x="1069" y="-1326.3" font-family="Times,serif" font-size="14.00"> v8 = function_42b0a0(BitCastExpr&lt;ptr&gt;(&amp;(v14)), v35, v34)</text>
<text text-anchor="start" x="1069" y="-1311.3" font-family="Times,serif" font-size="14.00"> v4 = PtrToIntCastExpr&lt;int32&gt;(&amp;(v17))</text>
<text text-anchor="start" x="1069" y="-1296.3" font-family="Times,serif" font-size="14.00"> g10 = v4</text>
<text text-anchor="start" x="1069" y="-1281.3" font-family="Times,serif" font-size="14.00"> v17 = v8</text>
</g>
<!-- Node0xfea1d20&#45;&gt;Node0xfea2670 -->
<g id="edge1" class="edge"><title>Node0xfea1d20&#45;&gt;Node0xfea2670</title>
<path fill="none" stroke="black" d="M1288.5,-2159.32C1288.5,-2151.37 1288.5,-2142.19 1288.5,-2131.99"/>
<polygon fill="black" stroke="black" points="1292,-2131.9 1288.5,-2121.9 1285,-2131.9 1292,-2131.9"/>
</g>
<!-- Node0xfe9dcf0 -->
<g id="node3" class="node"><title>Node0xfe9dcf0</title>
<polygon fill="none" stroke="black" points="1236,-1199.5 1236,-1235.5 1341,-1235.5 1341,-1199.5 1236,-1199.5"/>
<text text-anchor="start" x="1244" y="-1213.8" font-family="Times,serif" font-size="14.00">if (v8 == 0):</text>
</g>
<!-- Node0xfea2670&#45;&gt;Node0xfe9dcf0 -->
<g id="edge2" class="edge"><title>Node0xfea2670&#45;&gt;Node0xfe9dcf0</title>
<path fill="none" stroke="black" d="M1288.5,-1273.33C1288.5,-1262.82 1288.5,-1253.51 1288.5,-1245.68"/>
<polygon fill="black" stroke="black" points="1292,-1245.64 1288.5,-1235.64 1285,-1245.64 1292,-1245.64"/>
</g>
<!-- Node0xfea2a30 -->
<g id="node4" class="node"><title>Node0xfea2a30</title>
<polygon fill="none" stroke="black" points="846,-1079.5 846,-1147.5 1257,-1147.5 1257,-1079.5 846,-1079.5"/>
<text text-anchor="start" x="854" y="-1132.3" font-family="Times,serif" font-size="14.00">0x428884:</text>
<text text-anchor="start" x="854" y="-1117.3" font-family="Times,serif" font-size="14.00"> v5 = IntToPtrCastExpr&lt;ptr&gt;((v33 + 8))</text>
<text text-anchor="start" x="854" y="-1102.3" font-family="Times,serif" font-size="14.00"> g2 = v2</text>
<text text-anchor="start" x="854" y="-1087.3" font-family="Times,serif" font-size="14.00"> v9 = function_42b590(BitCastExpr&lt;ptr&gt;(&amp;(v14)), v5)</text>
</g>
<!-- Node0xfe9dcf0&#45;&gt;Node0xfea2a30 -->
<g id="edge3" class="edge"><title>Node0xfe9dcf0&#45;&gt;Node0xfea2a30</title>
<path fill="none" stroke="black" d="M1248.83,-1199.43C1218.58,-1186.41 1175.79,-1167.99 1137.79,-1151.64"/>
<polygon fill="black" stroke="black" points="1138.81,-1148.27 1128.24,-1147.53 1136.04,-1154.69 1138.81,-1148.27"/>
<text text-anchor="middle" x="1234.5" y="-1169.8" font-family="Times,serif" font-size="14.00">v8 == 0</text>
</g>
<!-- Node0xfe9fcb0 -->
<g id="node5" class="node"><title>Node0xfe9fcb0</title>
<polygon fill="none" stroke="black" points="1275.5,-1079.5 1275.5,-1147.5 1621.5,-1147.5 1621.5,-1079.5 1275.5,-1079.5"/>
<text text-anchor="start" x="1283.5" y="-1132.3" font-family="Times,serif" font-size="14.00">0x4288fe:</text>
<text text-anchor="start" x="1283.5" y="-1117.3" font-family="Times,serif" font-size="14.00"> g2 = v2</text>
<text text-anchor="start" x="1283.5" y="-1102.3" font-family="Times,serif" font-size="14.00"> function_42a420(BitCastExpr&lt;ptr&gt;(&amp;(v14)))</text>
<text text-anchor="start" x="1283.5" y="-1087.3" font-family="Times,serif" font-size="14.00"> v38 = v17</text>
</g>
<!-- Node0xfe9dcf0&#45;&gt;Node0xfe9fcb0 -->
<g id="edge4" class="edge"><title>Node0xfe9dcf0&#45;&gt;Node0xfe9fcb0</title>
<path fill="none" stroke="black" d="M1315.28,-1199.43C1335.1,-1186.8 1362.88,-1169.08 1387.96,-1153.1"/>
<polygon fill="black" stroke="black" points="1390.14,-1155.85 1396.69,-1147.53 1386.38,-1149.95 1390.14,-1155.85"/>
<text text-anchor="middle" x="1390.5" y="-1169.8" font-family="Times,serif" font-size="14.00">v8 != 0</text>
</g>
<!-- Node0xfea2b20 -->
<g id="node6" class="node"><title>Node0xfea2b20</title>
<polygon fill="none" stroke="black" points="1005,-1003.5 1005,-1041.5 1098,-1041.5 1098,-1003.5 1005,-1003.5"/>
<text text-anchor="start" x="1013" y="-1026.3" font-family="Times,serif" font-size="14.00">if (v9 &lt; 0):</text>
<text text-anchor="start" x="1013" y="-1011.3" font-family="Times,serif" font-size="14.00"> else:</text>
</g>
<!-- Node0xfea2a30&#45;&gt;Node0xfea2b20 -->
<g id="edge5" class="edge"><title>Node0xfea2a30&#45;&gt;Node0xfea2b20</title>
<path fill="none" stroke="black" d="M1051.5,-1079.36C1051.5,-1070.36 1051.5,-1060.71 1051.5,-1051.99"/>
<polygon fill="black" stroke="black" points="1055,-1051.94 1051.5,-1041.94 1048,-1051.94 1055,-1051.94"/>
</g>
<!-- Node0xfe9fd10 -->
<g id="node7" class="node"><title>Node0xfe9fd10</title>
<polygon fill="none" stroke="black" points="1391.5,-1003.5 1391.5,-1041.5 1505.5,-1041.5 1505.5,-1003.5 1391.5,-1003.5"/>
<text text-anchor="start" x="1399.5" y="-1026.3" font-family="Times,serif" font-size="14.00">if (v38 == 0):</text>
<text text-anchor="start" x="1399.5" y="-1011.3" font-family="Times,serif" font-size="14.00"> else:</text>
</g>
<!-- Node0xfe9fcb0&#45;&gt;Node0xfe9fd10 -->
<g id="edge6" class="edge"><title>Node0xfe9fcb0&#45;&gt;Node0xfe9fd10</title>
<path fill="none" stroke="black" d="M1448.5,-1079.36C1448.5,-1070.36 1448.5,-1060.71 1448.5,-1051.99"/>
<polygon fill="black" stroke="black" points="1452,-1051.94 1448.5,-1041.94 1445,-1051.94 1452,-1051.94"/>
</g>
<!-- Node0xfe9f2d0 -->
<g id="node8" class="node"><title>Node0xfe9f2d0</title>
<polygon fill="none" stroke="black" points="0,-838.5 0,-951.5 1109,-951.5 1109,-838.5 0,-838.5"/>
<text text-anchor="start" x="8" y="-936.3" font-family="Times,serif" font-size="14.00">0x4288ae:</text>
<text text-anchor="start" x="8" y="-921.3" font-family="Times,serif" font-size="14.00"> v36 = *(v3)</text>
<text text-anchor="start" x="8" y="-906.3" font-family="Times,serif" font-size="14.00"> v1 = (v33 + 20)</text>
<text text-anchor="start" x="8" y="-891.3" font-family="Times,serif" font-size="14.00"> g2 = v1</text>
<text text-anchor="start" x="8" y="-876.3" font-family="Times,serif" font-size="14.00"> v11 = function_42ca20(BitCastExpr&lt;ptr&gt;(&amp;(v14)), BitCastExpr&lt;ptr&gt;(&amp;(v14)), IntToPtrCastExpr&lt;ptr&gt;(v1), v5, IntToPtrCastExpr&lt;ptr&gt;((v33 + 104)))</text>
<text text-anchor="start" x="8" y="-861.3" font-family="Times,serif" font-size="14.00"> g10 = v4</text>
<text text-anchor="start" x="8" y="-846.3" font-family="Times,serif" font-size="14.00"> v17 = v11</text>
</g>
<!-- Node0xfea2b20&#45;&gt;Node0xfe9f2d0 -->
<g id="edge7" class="edge"><title>Node0xfea2b20&#45;&gt;Node0xfe9f2d0</title>
<path fill="none" stroke="black" d="M1004.74,-1009.69C953.49,-996.751 867.434,-975.021 784.206,-954.004"/>
<polygon fill="black" stroke="black" points="784.888,-950.567 774.335,-951.512 783.174,-957.354 784.888,-950.567"/>
<text text-anchor="middle" x="929.5" y="-973.8" font-family="Times,serif" font-size="14.00">v9 &lt; 0</text>
</g>
<!-- Node0xcafa900 -->
<g id="node9" class="node"><title>Node0xcafa900</title>
<polygon fill="none" stroke="black" points="963.5,-766.5 963.5,-819.5 1309.5,-819.5 1309.5,-766.5 963.5,-766.5"/>
<text text-anchor="start" x="971.5" y="-804.3" font-family="Times,serif" font-size="14.00">0x42889b:</text>
<text text-anchor="start" x="971.5" y="-789.3" font-family="Times,serif" font-size="14.00"> function_42a420(BitCastExpr&lt;ptr&gt;(&amp;(v14)))</text>
<text text-anchor="start" x="971.5" y="-774.3" font-family="Times,serif" font-size="14.00"> result = &#45;16512</text>
</g>
<!-- Node0xfea2b20&#45;&gt;Node0xcafa900 -->
<g id="edge8" class="edge"><title>Node0xfea2b20&#45;&gt;Node0xcafa900</title>
<path fill="none" stroke="black" d="M1075.79,-1003.32C1090.75,-990.676 1108.86,-972.468 1118.5,-952 1136.81,-913.125 1139.51,-863.112 1138.81,-829.878"/>
<polygon fill="black" stroke="black" points="1142.31,-829.593 1138.48,-819.712 1135.31,-829.821 1142.31,-829.593"/>
<text text-anchor="middle" x="1136.5" y="-973.8" font-family="Times,serif" font-size="14.00">v9 &gt;= 0</text>
</g>
<!-- Node0xfea2870 -->
<g id="node10" class="node"><title>Node0xfea2870</title>
<polygon fill="none" stroke="black" points="1167.5,-868.5 1167.5,-921.5 1475.5,-921.5 1475.5,-868.5 1167.5,-868.5"/>
<text text-anchor="start" x="1175.5" y="-906.3" font-family="Times,serif" font-size="14.00">0x42891a:</text>
<text text-anchor="start" x="1175.5" y="-891.3" font-family="Times,serif" font-size="14.00"> v6 = PtrToIntCastExpr&lt;int32&gt;(&amp;(v27))</text>
<text text-anchor="start" x="1175.5" y="-876.3" font-family="Times,serif" font-size="14.00"> result = v6</text>
</g>
<!-- Node0xfe9fd10&#45;&gt;Node0xfea2870 -->
<g id="edge9" class="edge"><title>Node0xfe9fd10&#45;&gt;Node0xfea2870</title>
<path fill="none" stroke="black" d="M1430.03,-1003.25C1410.33,-983.783 1378.72,-952.54 1354.68,-928.784"/>
<polygon fill="black" stroke="black" points="1357.05,-926.213 1347.48,-921.674 1352.13,-931.192 1357.05,-926.213"/>
<text text-anchor="middle" x="1445" y="-973.8" font-family="Times,serif" font-size="14.00">v38 == 0</text>
</g>
<!-- Node0xfe9f1e0 -->
<g id="node11" class="node"><title>Node0xfe9f1e0</title>
<polygon fill="none" stroke="black" points="1493.5,-861 1493.5,-929 1669.5,-929 1669.5,-861 1493.5,-861"/>
<text text-anchor="start" x="1501.5" y="-913.8" font-family="Times,serif" font-size="14.00">0x428910:</text>
<text text-anchor="start" x="1501.5" y="-898.8" font-family="Times,serif" font-size="14.00"> g2 = v38</text>
<text text-anchor="start" x="1501.5" y="-883.8" font-family="Times,serif" font-size="14.00"> v37 = (v38 + &#45;17024)</text>
<text text-anchor="start" x="1501.5" y="-868.8" font-family="Times,serif" font-size="14.00"> result = v37</text>
</g>
<!-- Node0xfe9fd10&#45;&gt;Node0xfe9f1e0 -->
<g id="edge10" class="edge"><title>Node0xfe9fd10&#45;&gt;Node0xfe9f1e0</title>
<path fill="none" stroke="black" d="M1467.84,-1003.25C1486.37,-985.768 1514.96,-958.79 1538.83,-936.266"/>
<polygon fill="black" stroke="black" points="1541.52,-938.536 1546.39,-929.127 1536.72,-933.444 1541.52,-938.536"/>
<text text-anchor="middle" x="1530" y="-973.8" font-family="Times,serif" font-size="14.00">v38 != 0</text>
</g>
<!-- Node0xfe9f4d0 -->
<g id="node12" class="node"><title>Node0xfe9f4d0</title>
<polygon fill="none" stroke="black" points="521.5,-695.5 521.5,-731.5 635.5,-731.5 635.5,-695.5 521.5,-695.5"/>
<text text-anchor="start" x="529.5" y="-709.8" font-family="Times,serif" font-size="14.00">if (v11 == 0):</text>
</g>
<!-- Node0xfe9f2d0&#45;&gt;Node0xfe9f4d0 -->
<g id="edge11" class="edge"><title>Node0xfe9f2d0&#45;&gt;Node0xfe9f4d0</title>
<path fill="none" stroke="black" d="M561.962,-838.189C566.249,-806.131 571.441,-767.298 574.85,-741.8"/>
<polygon fill="black" stroke="black" points="578.338,-742.123 576.194,-731.747 571.4,-741.195 578.338,-742.123"/>
</g>
<!-- Node0xfea2720 -->
<g id="node13" class="node"><title>Node0xfea2720</title>
<polygon fill="none" stroke="black" points="1080,-592.5 1080,-660.5 1193,-660.5 1193,-592.5 1080,-592.5"/>
<text text-anchor="start" x="1088" y="-645.3" font-family="Times,serif" font-size="14.00">0x42891c:</text>
<text text-anchor="start" x="1088" y="-630.3" font-family="Times,serif" font-size="14.00"> v32 = v22</text>
<text text-anchor="start" x="1088" y="-615.3" font-family="Times,serif" font-size="14.00"> g3 = v32</text>
<text text-anchor="start" x="1088" y="-600.3" font-family="Times,serif" font-size="14.00"> return result</text>
</g>
<!-- Node0xcafa900&#45;&gt;Node0xfea2720 -->
<g id="edge12" class="edge"><title>Node0xcafa900&#45;&gt;Node0xfea2720</title>
<path fill="none" stroke="black" d="M1136.5,-766.297C1136.5,-740.835 1136.5,-701.36 1136.5,-671.008"/>
<polygon fill="black" stroke="black" points="1140,-670.69 1136.5,-660.69 1133,-670.69 1140,-670.69"/>
</g>
<!-- Node0xfea4a60 -->
<g id="node14" class="node"><title>Node0xfea4a60</title>
<polygon fill="none" stroke="black" points="1268,-679.5 1268,-747.5 1381,-747.5 1381,-679.5 1268,-679.5"/>
<text text-anchor="start" x="1276" y="-732.3" font-family="Times,serif" font-size="14.00">0x42891c:</text>
<text text-anchor="start" x="1276" y="-717.3" font-family="Times,serif" font-size="14.00"> v32 = v22</text>
<text text-anchor="start" x="1276" y="-702.3" font-family="Times,serif" font-size="14.00"> g3 = v32</text>
<text text-anchor="start" x="1276" y="-687.3" font-family="Times,serif" font-size="14.00"> return result</text>
</g>
<!-- Node0xfea2870&#45;&gt;Node0xfea4a60 -->
<g id="edge13" class="edge"><title>Node0xfea2870&#45;&gt;Node0xfea4a60</title>
<path fill="none" stroke="black" d="M1321.93,-868.282C1322.41,-839.554 1323.2,-792.564 1323.77,-758.075"/>
<polygon fill="black" stroke="black" points="1327.28,-757.865 1323.94,-747.807 1320.28,-757.748 1327.28,-757.865"/>
</g>
<!-- Node0xfe9f1e0&#45;&gt;Node0xfea4a60 -->
<g id="edge14" class="edge"><title>Node0xfe9f1e0&#45;&gt;Node0xfea4a60</title>
<path fill="none" stroke="black" d="M1534.06,-860.868C1490.64,-830.542 1426.35,-785.64 1380.44,-753.574"/>
<polygon fill="black" stroke="black" points="1382.3,-750.599 1372.1,-747.743 1378.29,-756.338 1382.3,-750.599"/>
</g>
<!-- Node0xcafa9a0 -->
<g id="node15" class="node"><title>Node0xcafa9a0</title>
<polygon fill="none" stroke="black" points="439.5,-505.5 439.5,-573.5 717.5,-573.5 717.5,-505.5 439.5,-505.5"/>
<text text-anchor="start" x="447.5" y="-558.3" font-family="Times,serif" font-size="14.00">0x4288e7:</text>
<text text-anchor="start" x="447.5" y="-543.3" font-family="Times,serif" font-size="14.00"> g2 = v36</text>
<text text-anchor="start" x="447.5" y="-528.3" font-family="Times,serif" font-size="14.00"> v12 = function_42b190(v2, a3, v36)</text>
<text text-anchor="start" x="447.5" y="-513.3" font-family="Times,serif" font-size="14.00"> v17 = v12</text>
</g>
<!-- Node0xfe9f4d0&#45;&gt;Node0xcafa9a0 -->
<g id="edge15" class="edge"><title>Node0xfe9f4d0&#45;&gt;Node0xcafa9a0</title>
<path fill="none" stroke="black" d="M578.5,-695.379C578.5,-669.626 578.5,-620.091 578.5,-583.953"/>
<polygon fill="black" stroke="black" points="582,-583.679 578.5,-573.679 575,-583.679 582,-583.679"/>
<text text-anchor="middle" x="613" y="-622.8" font-family="Times,serif" font-size="14.00">v11 == 0</text>
</g>
<!-- Node0xfe9f8b0 -->
<g id="node16" class="node"><title>Node0xfe9f8b0</title>
<polygon fill="none" stroke="black" points="580.5,-399.5 580.5,-467.5 926.5,-467.5 926.5,-399.5 580.5,-399.5"/>
<text text-anchor="start" x="588.5" y="-452.3" font-family="Times,serif" font-size="14.00">0x4288fe:</text>
<text text-anchor="start" x="588.5" y="-437.3" font-family="Times,serif" font-size="14.00"> g2 = v2</text>
<text text-anchor="start" x="588.5" y="-422.3" font-family="Times,serif" font-size="14.00"> function_42a420(BitCastExpr&lt;ptr&gt;(&amp;(v14)))</text>
<text text-anchor="start" x="588.5" y="-407.3" font-family="Times,serif" font-size="14.00"> v38 = v17</text>
</g>
<!-- Node0xfe9f4d0&#45;&gt;Node0xfe9f8b0 -->
<g id="edge16" class="edge"><title>Node0xfe9f4d0&#45;&gt;Node0xfe9f8b0</title>
<path fill="none" stroke="black" d="M607.015,-695.342C642.03,-672.52 700.024,-628.625 726.5,-574 741.161,-543.751 747.864,-506.18 750.927,-477.652"/>
<polygon fill="black" stroke="black" points="754.422,-477.871 751.899,-467.581 747.455,-477.199 754.422,-477.871"/>
<text text-anchor="middle" x="779" y="-535.8" font-family="Times,serif" font-size="14.00">v11 != 0</text>
</g>
<!-- Node0xfea2610 -->
<g id="node17" class="node"><title>Node0xfea2610</title>
<polygon fill="none" stroke="black" points="1109.5,-23.5 1109.5,-59.5 1163.5,-59.5 1163.5,-23.5 1109.5,-23.5"/>
<text text-anchor="start" x="1117.5" y="-37.8" font-family="Times,serif" font-size="14.00">exit:</text>
</g>
<!-- Node0xfea2720&#45;&gt;Node0xfea2610 -->
<g id="edge17" class="edge"><title>Node0xfea2720&#45;&gt;Node0xfea2610</title>
<path fill="none" stroke="black" d="M1136.5,-592.479C1136.5,-564.419 1136.5,-523.068 1136.5,-487 1136.5,-487 1136.5,-487 1136.5,-130.5 1136.5,-110.13 1136.5,-87.1087 1136.5,-69.7225"/>
<polygon fill="black" stroke="black" points="1140,-69.6994 1136.5,-59.6995 1133,-69.6995 1140,-69.6994"/>
</g>
<!-- Node0xfea4a60&#45;&gt;Node0xfea2610 -->
<g id="edge18" class="edge"><title>Node0xfea4a60&#45;&gt;Node0xfea2610</title>
<path fill="none" stroke="black" d="M1306.15,-679.35C1289.16,-645.503 1266.5,-590.921 1266.5,-540.5 1266.5,-540.5 1266.5,-540.5 1266.5,-130.5 1266.5,-85.3416 1212.04,-61.775 1173.62,-50.7677"/>
<polygon fill="black" stroke="black" points="1174.32,-47.3316 1163.75,-48.1112 1172.5,-54.0909 1174.32,-47.3316"/>
</g>
<!-- Node0xcafa9a0&#45;&gt;Node0xfe9f8b0 -->
<g id="edge19" class="edge"><title>Node0xcafa9a0&#45;&gt;Node0xfe9f8b0</title>
<path fill="none" stroke="black" d="M634.352,-505.308C651.803,-494.937 671.194,-483.413 689.178,-472.726"/>
<polygon fill="black" stroke="black" points="691.07,-475.673 697.878,-467.555 687.493,-469.655 691.07,-475.673"/>
</g>
<!-- Node0xfe9f910 -->
<g id="node18" class="node"><title>Node0xfe9f910</title>
<polygon fill="none" stroke="black" points="701.5,-323.5 701.5,-361.5 815.5,-361.5 815.5,-323.5 701.5,-323.5"/>
<text text-anchor="start" x="709.5" y="-346.3" font-family="Times,serif" font-size="14.00">if (v38 == 0):</text>
<text text-anchor="start" x="709.5" y="-331.3" font-family="Times,serif" font-size="14.00"> else:</text>
</g>
<!-- Node0xfe9f8b0&#45;&gt;Node0xfe9f910 -->
<g id="edge20" class="edge"><title>Node0xfe9f8b0&#45;&gt;Node0xfe9f910</title>
<path fill="none" stroke="black" d="M755.362,-399.36C755.867,-390.365 756.41,-380.707 756.899,-371.993"/>
<polygon fill="black" stroke="black" points="760.397,-372.121 757.464,-361.941 753.408,-371.729 760.397,-372.121"/>
</g>
<!-- Node0xfea4b60 -->
<g id="node19" class="node"><title>Node0xfea4b60</title>
<polygon fill="none" stroke="black" points="604.5,-211 604.5,-264 912.5,-264 912.5,-211 604.5,-211"/>
<text text-anchor="start" x="612.5" y="-248.8" font-family="Times,serif" font-size="14.00">0x42891a:</text>
<text text-anchor="start" x="612.5" y="-233.8" font-family="Times,serif" font-size="14.00"> v6 = PtrToIntCastExpr&lt;int32&gt;(&amp;(v27))</text>
<text text-anchor="start" x="612.5" y="-218.8" font-family="Times,serif" font-size="14.00"> result = v6</text>
</g>
<!-- Node0xfe9f910&#45;&gt;Node0xfea4b60 -->
<g id="edge21" class="edge"><title>Node0xfe9f910&#45;&gt;Node0xfea4b60</title>
<path fill="none" stroke="black" d="M758.5,-323.086C758.5,-309.605 758.5,-290.88 758.5,-274.473"/>
<polygon fill="black" stroke="black" points="762,-274.105 758.5,-264.105 755,-274.105 762,-274.105"/>
<text text-anchor="middle" x="793" y="-293.8" font-family="Times,serif" font-size="14.00">v38 == 0</text>
</g>
<!-- Node0xfea17a0 -->
<g id="node20" class="node"><title>Node0xfea17a0</title>
<polygon fill="none" stroke="black" points="930.5,-203.5 930.5,-271.5 1106.5,-271.5 1106.5,-203.5 930.5,-203.5"/>
<text text-anchor="start" x="938.5" y="-256.3" font-family="Times,serif" font-size="14.00">0x428910:</text>
<text text-anchor="start" x="938.5" y="-241.3" font-family="Times,serif" font-size="14.00"> g2 = v38</text>
<text text-anchor="start" x="938.5" y="-226.3" font-family="Times,serif" font-size="14.00"> v37 = (v38 + &#45;17024)</text>
<text text-anchor="start" x="938.5" y="-211.3" font-family="Times,serif" font-size="14.00"> result = v37</text>
</g>
<!-- Node0xfe9f910&#45;&gt;Node0xfea17a0 -->
<g id="edge22" class="edge"><title>Node0xfe9f910&#45;&gt;Node0xfea17a0</title>
<path fill="none" stroke="black" d="M804.086,-323.441C837.594,-310.166 884.285,-291.67 925.544,-275.325"/>
<polygon fill="black" stroke="black" points="927.07,-278.485 935.078,-271.548 924.491,-271.977 927.07,-278.485"/>
<text text-anchor="middle" x="920" y="-293.8" font-family="Times,serif" font-size="14.00">v38 != 0</text>
</g>
<!-- Node0xfea5240 -->
<g id="node21" class="node"><title>Node0xfea5240</title>
<polygon fill="none" stroke="black" points="962,-97.5 962,-165.5 1075,-165.5 1075,-97.5 962,-97.5"/>
<text text-anchor="start" x="970" y="-150.3" font-family="Times,serif" font-size="14.00">0x42891c:</text>
<text text-anchor="start" x="970" y="-135.3" font-family="Times,serif" font-size="14.00"> v32 = v22</text>
<text text-anchor="start" x="970" y="-120.3" font-family="Times,serif" font-size="14.00"> g3 = v32</text>
<text text-anchor="start" x="970" y="-105.3" font-family="Times,serif" font-size="14.00"> return result</text>
</g>
<!-- Node0xfea4b60&#45;&gt;Node0xfea5240 -->
<g id="edge23" class="edge"><title>Node0xfea4b60&#45;&gt;Node0xfea5240</title>
<path fill="none" stroke="black" d="M822.436,-210.926C861.969,-195.113 912.602,-174.859 952.511,-158.896"/>
<polygon fill="black" stroke="black" points="953.906,-162.107 961.891,-155.144 951.306,-155.608 953.906,-162.107"/>
</g>
<!-- Node0xfea17a0&#45;&gt;Node0xfea5240 -->
<g id="edge24" class="edge"><title>Node0xfea17a0&#45;&gt;Node0xfea5240</title>
<path fill="none" stroke="black" d="M1018.5,-203.308C1018.5,-194.583 1018.5,-185.042 1018.5,-175.87"/>
<polygon fill="black" stroke="black" points="1022,-175.734 1018.5,-165.734 1015,-175.734 1022,-175.734"/>
</g>
<!-- Node0xfea5240&#45;&gt;Node0xfea2610 -->
<g id="edge25" class="edge"><title>Node0xfea5240&#45;&gt;Node0xfea2610</title>
<path fill="none" stroke="black" d="M1062.77,-97.4817C1076.94,-86.9199 1092.31,-75.4562 1105.33,-65.7432"/>
<polygon fill="black" stroke="black" points="1107.59,-68.4242 1113.52,-59.6402 1103.41,-62.8128 1107.59,-68.4242"/>
</g>
</g>
</svg>
