<?xml version="1.0" encoding="UTF-8" standalone="no"?>
<!DOCTYPE svg PUBLIC "-//W3C//DTD SVG 1.1//EN"
 "http://www.w3.org/Graphics/SVG/1.1/DTD/svg11.dtd">
<!-- Generated by graphviz version 2.38.0 (20140413.2041)
 -->
<!-- Title: Control&#45;flow graph for function &#39;function_419f94()&#39;. Pages: 1 -->
<svg width="391pt" height="502pt"
 viewBox="0.00 0.00 391.00 502.00" xmlns="http://www.w3.org/2000/svg" xmlns:xlink="http://www.w3.org/1999/xlink">
<g id="graph0" class="graph" transform="scale(1 1) rotate(0) translate(4 498)">
<title>Control&#45;flow graph for function &#39;function_419f94()&#39;.</title>
<polygon fill="white" stroke="none" points="-4,4 -4,-498 387,-498 387,4 -4,4"/>
<text text-anchor="middle" x="191.5" y="-7.8" font-family="Times,serif" font-size="14.00">Control&#45;flow graph for function &#39;function_419f94()&#39;.</text>
<!-- Node0xf5d3d50 -->
<g id="node1" class="node"><title>Node0xf5d3d50</title>
<polygon fill="none" stroke="black" points="171,-457.5 171,-493.5 230,-493.5 230,-457.5 171,-457.5"/>
<text text-anchor="start" x="179" y="-471.8" font-family="Times,serif" font-size="14.00">entry:</text>
</g>
<!-- Node0xf5d9480 -->
<g id="node2" class="node"><title>Node0xf5d9480</title>
<polygon fill="none" stroke="black" points="94.5,-276.5 94.5,-419.5 306.5,-419.5 306.5,-276.5 94.5,-276.5"/>
<text text-anchor="start" x="102.5" y="-404.3" font-family="Times,serif" font-size="14.00">v1</text>
<text text-anchor="start" x="102.5" y="-389.3" font-family="Times,serif" font-size="14.00"> result</text>
<text text-anchor="start" x="102.5" y="-374.3" font-family="Times,serif" font-size="14.00"> v2</text>
<text text-anchor="start" x="102.5" y="-359.3" font-family="Times,serif" font-size="14.00"> v3</text>
<text text-anchor="start" x="102.5" y="-344.3" font-family="Times,serif" font-size="14.00"> v4</text>
<text text-anchor="start" x="102.5" y="-329.3" font-family="Times,serif" font-size="14.00"> v1 = function_419f61()</text>
<text text-anchor="start" x="102.5" y="-314.3" font-family="Times,serif" font-size="14.00"> g5 = (v1 + 116)</text>
<text text-anchor="start" x="102.5" y="-299.3" font-family="Times,serif" font-size="14.00"> result = function_415fb1()</text>
<text text-anchor="start" x="102.5" y="-284.3" font-family="Times,serif" font-size="14.00"> g1 = False</text>
</g>
<!-- Node0xf5d3d50&#45;&gt;Node0xf5d9480 -->
<g id="edge1" class="edge"><title>Node0xf5d3d50&#45;&gt;Node0xf5d9480</title>
<path fill="none" stroke="black" d="M200.5,-457.313C200.5,-449.682 200.5,-440.101 200.5,-429.811"/>
<polygon fill="black" stroke="black" points="204,-429.769 200.5,-419.769 197,-429.769 204,-429.769"/>
</g>
<!-- Node0xf5d45b0 -->
<g id="node3" class="node"><title>Node0xf5d45b0</title>
<polygon fill="none" stroke="black" points="135.5,-202.5 135.5,-238.5 265.5,-238.5 265.5,-202.5 135.5,-202.5"/>
<text text-anchor="start" x="143.5" y="-216.8" font-family="Times,serif" font-size="14.00">if (result == 0):</text>
</g>
<!-- Node0xf5d9480&#45;&gt;Node0xf5d45b0 -->
<g id="edge2" class="edge"><title>Node0xf5d9480&#45;&gt;Node0xf5d45b0</title>
<path fill="none" stroke="black" d="M200.5,-276.181C200.5,-266.439 200.5,-256.961 200.5,-248.707"/>
<polygon fill="black" stroke="black" points="204,-248.642 200.5,-238.642 197,-248.642 204,-248.642"/>
</g>
<!-- Node0xf5d9730 -->
<g id="node4" class="node"><title>Node0xf5d9730</title>
<polygon fill="none" stroke="black" points="49.5,-97.5 49.5,-150.5 201.5,-150.5 201.5,-97.5 49.5,-97.5"/>
<text text-anchor="start" x="57.5" y="-135.3" font-family="Times,serif" font-size="14.00">0x419fa7:</text>
<text text-anchor="start" x="57.5" y="-120.3" font-family="Times,serif" font-size="14.00"> function_4178b1()</text>
<text text-anchor="start" x="57.5" y="-105.3" font-family="Times,serif" font-size="14.00"> return 0</text>
</g>
<!-- Node0xf5d45b0&#45;&gt;Node0xf5d9730 -->
<g id="edge3" class="edge"><title>Node0xf5d45b0&#45;&gt;Node0xf5d9730</title>
<path fill="none" stroke="black" d="M177.319,-202.441C170.78,-196.986 163.966,-190.63 158.5,-184 152.414,-176.619 146.858,-167.956 142.111,-159.576"/>
<polygon fill="black" stroke="black" points="145.128,-157.798 137.291,-150.669 138.972,-161.129 145.128,-157.798"/>
<text text-anchor="middle" x="201" y="-172.8" font-family="Times,serif" font-size="14.00">result == 0</text>
</g>
<!-- Node0xf5d46d0 -->
<g id="node5" class="node"><title>Node0xf5d46d0</title>
<polygon fill="none" stroke="black" points="220,-105 220,-143 333,-143 333,-105 220,-105"/>
<text text-anchor="start" x="228" y="-127.8" font-family="Times,serif" font-size="14.00">0x419fac:</text>
<text text-anchor="start" x="228" y="-112.8" font-family="Times,serif" font-size="14.00"> return result</text>
</g>
<!-- Node0xf5d45b0&#45;&gt;Node0xf5d46d0 -->
<g id="edge4" class="edge"><title>Node0xf5d45b0&#45;&gt;Node0xf5d46d0</title>
<path fill="none" stroke="black" d="M224.699,-202.152C231.256,-196.78 238.043,-190.541 243.5,-184 251.444,-174.478 258.452,-162.766 263.943,-152.294"/>
<polygon fill="black" stroke="black" points="267.188,-153.631 268.543,-143.123 260.931,-150.492 267.188,-153.631"/>
<text text-anchor="middle" x="294" y="-172.8" font-family="Times,serif" font-size="14.00">result != 0</text>
</g>
<!-- Node0xf5d9400 -->
<g id="node6" class="node"><title>Node0xf5d9400</title>
<polygon fill="none" stroke="black" points="189.5,-23.5 189.5,-59.5 243.5,-59.5 243.5,-23.5 189.5,-23.5"/>
<text text-anchor="start" x="197.5" y="-37.8" font-family="Times,serif" font-size="14.00">exit:</text>
</g>
<!-- Node0xf5d9730&#45;&gt;Node0xf5d9400 -->
<g id="edge5" class="edge"><title>Node0xf5d9730&#45;&gt;Node0xf5d9400</title>
<path fill="none" stroke="black" d="M154.543,-97.308C165.761,-87.3849 178.52,-76.0975 189.533,-66.3555"/>
<polygon fill="black" stroke="black" points="192.025,-68.8239 197.196,-59.5766 187.387,-63.5809 192.025,-68.8239"/>
</g>
<!-- Node0xf5d46d0&#45;&gt;Node0xf5d9400 -->
<g id="edge6" class="edge"><title>Node0xf5d46d0&#45;&gt;Node0xf5d9400</title>
<path fill="none" stroke="black" d="M262.885,-104.733C254.761,-93.8335 244.324,-79.831 235.409,-67.8693"/>
<polygon fill="black" stroke="black" points="238.023,-65.5198 229.241,-59.5935 232.41,-69.7031 238.023,-65.5198"/>
</g>
</g>
</svg>
