<?xml version="1.0" encoding="UTF-8" standalone="no"?>
<!DOCTYPE svg PUBLIC "-//W3C//DTD SVG 1.1//EN"
 "http://www.w3.org/Graphics/SVG/1.1/DTD/svg11.dtd">
<!-- Generated by graphviz version 2.38.0 (20140413.2041)
 -->
<!-- Title: Control&#45;flow graph for function &#39;function_454aaa(a1)&#39;. Pages: 1 -->
<svg width="410pt" height="473pt"
 viewBox="0.00 0.00 410.00 473.00" xmlns="http://www.w3.org/2000/svg" xmlns:xlink="http://www.w3.org/1999/xlink">
<g id="graph0" class="graph" transform="scale(1 1) rotate(0) translate(4 469)">
<title>Control&#45;flow graph for function &#39;function_454aaa(a1)&#39;.</title>
<polygon fill="white" stroke="none" points="-4,4 -4,-469 406,-469 406,4 -4,4"/>
<text text-anchor="middle" x="201" y="-7.8" font-family="Times,serif" font-size="14.00">Control&#45;flow graph for function &#39;function_454aaa(a1)&#39;.</text>
<!-- Node0x10205430 -->
<g id="node1" class="node"><title>Node0x10205430</title>
<polygon fill="none" stroke="black" points="171.5,-426.5 171.5,-464.5 230.5,-464.5 230.5,-426.5 171.5,-426.5"/>
<text text-anchor="start" x="179.5" y="-449.3" font-family="Times,serif" font-size="14.00">entry:</text>
<text text-anchor="start" x="179.5" y="-434.3" font-family="Times,serif" font-size="14.00"> a1</text>
</g>
<!-- Node0x10205b00 -->
<g id="node2" class="node"><title>Node0x10205b00</title>
<polygon fill="none" stroke="black" points="37,-96.5 37,-389.5 365,-389.5 365,-96.5 37,-96.5"/>
<text text-anchor="start" x="45" y="-374.3" font-family="Times,serif" font-size="14.00">v1</text>
<text text-anchor="start" x="45" y="-359.3" font-family="Times,serif" font-size="14.00"> v2</text>
<text text-anchor="start" x="45" y="-344.3" font-family="Times,serif" font-size="14.00"> v3</text>
<text text-anchor="start" x="45" y="-329.3" font-family="Times,serif" font-size="14.00"> v4</text>
<text text-anchor="start" x="45" y="-314.3" font-family="Times,serif" font-size="14.00"> v5</text>
<text text-anchor="start" x="45" y="-299.3" font-family="Times,serif" font-size="14.00"> v6</text>
<text text-anchor="start" x="45" y="-284.3" font-family="Times,serif" font-size="14.00"> v7</text>
<text text-anchor="start" x="45" y="-269.3" font-family="Times,serif" font-size="14.00"> v8</text>
<text text-anchor="start" x="45" y="-254.3" font-family="Times,serif" font-size="14.00"> v9</text>
<text text-anchor="start" x="45" y="-239.3" font-family="Times,serif" font-size="14.00"> v10</text>
<text text-anchor="start" x="45" y="-224.3" font-family="Times,serif" font-size="14.00"> v4 = v5</text>
<text text-anchor="start" x="45" y="-209.3" font-family="Times,serif" font-size="14.00"> v9 = g3</text>
<text text-anchor="start" x="45" y="-194.3" font-family="Times,serif" font-size="14.00"> v10 = *(IntToPtrCastExpr&lt;ptr&gt;((v9 + 4)))</text>
<text text-anchor="start" x="45" y="-179.3" font-family="Times,serif" font-size="14.00"> v1 = (v10 + 1528)</text>
<text text-anchor="start" x="45" y="-164.3" font-family="Times,serif" font-size="14.00"> g2 = v1</text>
<text text-anchor="start" x="45" y="-149.3" font-family="Times,serif" font-size="14.00"> v2 = IntToPtrCastExpr&lt;ptr&gt;(v1)</text>
<text text-anchor="start" x="45" y="-134.3" font-family="Times,serif" font-size="14.00"> v4 = v2</text>
<text text-anchor="start" x="45" y="-119.3" font-family="Times,serif" font-size="14.00"> function_40b0a0(v2)</text>
<text text-anchor="start" x="45" y="-104.3" font-family="Times,serif" font-size="14.00"> return 0</text>
</g>
<!-- Node0x10205430&#45;&gt;Node0x10205b00 -->
<g id="edge1" class="edge"><title>Node0x10205430&#45;&gt;Node0x10205b00</title>
<path fill="none" stroke="black" d="M201,-426.353C201,-419.121 201,-410.093 201,-399.951"/>
<polygon fill="black" stroke="black" points="204.5,-399.908 201,-389.908 197.5,-399.908 204.5,-399.908"/>
</g>
<!-- Node0x10205aa0 -->
<g id="node3" class="node"><title>Node0x10205aa0</title>
<polygon fill="none" stroke="black" points="174,-23.5 174,-59.5 228,-59.5 228,-23.5 174,-23.5"/>
<text text-anchor="start" x="182" y="-37.8" font-family="Times,serif" font-size="14.00">exit:</text>
</g>
<!-- Node0x10205b00&#45;&gt;Node0x10205aa0 -->
<g id="edge2" class="edge"><title>Node0x10205b00&#45;&gt;Node0x10205aa0</title>
<path fill="none" stroke="black" d="M201,-96.4876C201,-86.7125 201,-77.686 201,-69.9233"/>
<polygon fill="black" stroke="black" points="204.5,-69.8444 201,-59.8445 197.5,-69.8445 204.5,-69.8444"/>
</g>
</g>
</svg>
