<?xml version="1.0" encoding="UTF-8" standalone="no"?>
<!DOCTYPE svg PUBLIC "-//W3C//DTD SVG 1.1//EN"
 "http://www.w3.org/Graphics/SVG/1.1/DTD/svg11.dtd">
<!-- Generated by graphviz version 2.38.0 (20140413.2041)
 -->
<!-- Title: Control&#45;flow graph for function &#39;function_409380(a1)&#39;. Pages: 1 -->
<svg width="484pt" height="957pt"
 viewBox="0.00 0.00 484.00 957.00" xmlns="http://www.w3.org/2000/svg" xmlns:xlink="http://www.w3.org/1999/xlink">
<g id="graph0" class="graph" transform="scale(1 1) rotate(0) translate(4 953)">
<title>Control&#45;flow graph for function &#39;function_409380(a1)&#39;.</title>
<polygon fill="white" stroke="none" points="-4,4 -4,-953 480,-953 480,4 -4,4"/>
<text text-anchor="middle" x="238" y="-7.8" font-family="Times,serif" font-size="14.00">Control&#45;flow graph for function &#39;function_409380(a1)&#39;.</text>
<!-- Node0xef3bc90 -->
<g id="node1" class="node"><title>Node0xef3bc90</title>
<polygon fill="none" stroke="black" points="263.5,-910.5 263.5,-948.5 322.5,-948.5 322.5,-910.5 263.5,-910.5"/>
<text text-anchor="start" x="271.5" y="-933.3" font-family="Times,serif" font-size="14.00">entry:</text>
<text text-anchor="start" x="271.5" y="-918.3" font-family="Times,serif" font-size="14.00"> a1</text>
</g>
<!-- Node0xef403a0 -->
<g id="node2" class="node"><title>Node0xef403a0</title>
<polygon fill="none" stroke="black" points="122.5,-489.5 122.5,-872.5 463.5,-872.5 463.5,-489.5 122.5,-489.5"/>
<text text-anchor="start" x="130.5" y="-857.3" font-family="Times,serif" font-size="14.00">v1</text>
<text text-anchor="start" x="130.5" y="-842.3" font-family="Times,serif" font-size="14.00"> v2</text>
<text text-anchor="start" x="130.5" y="-827.3" font-family="Times,serif" font-size="14.00"> v3</text>
<text text-anchor="start" x="130.5" y="-812.3" font-family="Times,serif" font-size="14.00"> v4</text>
<text text-anchor="start" x="130.5" y="-797.3" font-family="Times,serif" font-size="14.00"> v5</text>
<text text-anchor="start" x="130.5" y="-782.3" font-family="Times,serif" font-size="14.00"> v6</text>
<text text-anchor="start" x="130.5" y="-767.3" font-family="Times,serif" font-size="14.00"> v7</text>
<text text-anchor="start" x="130.5" y="-752.3" font-family="Times,serif" font-size="14.00"> v8</text>
<text text-anchor="start" x="130.5" y="-737.3" font-family="Times,serif" font-size="14.00"> v9</text>
<text text-anchor="start" x="130.5" y="-722.3" font-family="Times,serif" font-size="14.00"> v10</text>
<text text-anchor="start" x="130.5" y="-707.3" font-family="Times,serif" font-size="14.00"> v11</text>
<text text-anchor="start" x="130.5" y="-692.3" font-family="Times,serif" font-size="14.00"> v12</text>
<text text-anchor="start" x="130.5" y="-677.3" font-family="Times,serif" font-size="14.00"> v13</text>
<text text-anchor="start" x="130.5" y="-662.3" font-family="Times,serif" font-size="14.00"> result</text>
<text text-anchor="start" x="130.5" y="-647.3" font-family="Times,serif" font-size="14.00"> v14</text>
<text text-anchor="start" x="130.5" y="-632.3" font-family="Times,serif" font-size="14.00"> v15</text>
<text text-anchor="start" x="130.5" y="-617.3" font-family="Times,serif" font-size="14.00"> v16</text>
<text text-anchor="start" x="130.5" y="-602.3" font-family="Times,serif" font-size="14.00"> v6 = v7</text>
<text text-anchor="start" x="130.5" y="-587.3" font-family="Times,serif" font-size="14.00"> v4 = v5</text>
<text text-anchor="start" x="130.5" y="-572.3" font-family="Times,serif" font-size="14.00"> g10 = PtrToIntCastExpr&lt;int32&gt;(&amp;(v4))</text>
<text text-anchor="start" x="130.5" y="-557.3" font-family="Times,serif" font-size="14.00"> v10 = g5</text>
<text text-anchor="start" x="130.5" y="-542.3" font-family="Times,serif" font-size="14.00"> g9 = v10</text>
<text text-anchor="start" x="130.5" y="-527.3" font-family="Times,serif" font-size="14.00"> v13 = *(IntToPtrCastExpr&lt;ptr&gt;(v10))</text>
<text text-anchor="start" x="130.5" y="-512.3" font-family="Times,serif" font-size="14.00"> g2 = (v13 + &#45;16)</text>
<text text-anchor="start" x="130.5" y="-497.3" font-family="Times,serif" font-size="14.00"> v16 = *(IntToPtrCastExpr&lt;ptr&gt;((v13 + &#45;4)))</text>
</g>
<!-- Node0xef3bc90&#45;&gt;Node0xef403a0 -->
<g id="edge1" class="edge"><title>Node0xef3bc90&#45;&gt;Node0xef403a0</title>
<path fill="none" stroke="black" d="M293,-910.374C293,-902.926 293,-893.517 293,-882.788"/>
<polygon fill="black" stroke="black" points="296.5,-882.582 293,-872.582 289.5,-882.582 296.5,-882.582"/>
</g>
<!-- Node0xef3bc30 -->
<g id="node3" class="node"><title>Node0xef3bc30</title>
<polygon fill="none" stroke="black" points="236,-413.5 236,-451.5 350,-451.5 350,-413.5 236,-413.5"/>
<text text-anchor="start" x="244" y="-436.3" font-family="Times,serif" font-size="14.00">if (v16 &gt;= 2):</text>
<text text-anchor="start" x="244" y="-421.3" font-family="Times,serif" font-size="14.00"> else:</text>
</g>
<!-- Node0xef403a0&#45;&gt;Node0xef3bc30 -->
<g id="edge2" class="edge"><title>Node0xef403a0&#45;&gt;Node0xef3bc30</title>
<path fill="none" stroke="black" d="M293,-489.435C293,-479.148 293,-469.764 293,-461.743"/>
<polygon fill="black" stroke="black" points="296.5,-461.694 293,-451.695 289.5,-461.695 296.5,-461.694"/>
</g>
<!-- Node0xef405b0 -->
<g id="node4" class="node"><title>Node0xef405b0</title>
<polygon fill="none" stroke="black" points="0,-218.5 0,-361.5 350,-361.5 350,-218.5 0,-218.5"/>
<text text-anchor="start" x="8" y="-346.3" font-family="Times,serif" font-size="14.00">0x40938e:</text>
<text text-anchor="start" x="8" y="-331.3" font-family="Times,serif" font-size="14.00"> v15 = *(IntToPtrCastExpr&lt;ptr&gt;((v13 + &#45;12)))</text>
<text text-anchor="start" x="8" y="-316.3" font-family="Times,serif" font-size="14.00"> g2 = v15</text>
<text text-anchor="start" x="8" y="-301.3" font-family="Times,serif" font-size="14.00"> v1 = IntToPtrCastExpr&lt;ptr&gt;(v15)</text>
<text text-anchor="start" x="8" y="-286.3" font-family="Times,serif" font-size="14.00"> v6 = v1</text>
<text text-anchor="start" x="8" y="-271.3" font-family="Times,serif" font-size="14.00"> g10 = PtrToIntCastExpr&lt;int32&gt;(&amp;(v6))</text>
<text text-anchor="start" x="8" y="-256.3" font-family="Times,serif" font-size="14.00"> function_4025c0(&amp;(v1[&#39;0&#39;]))</text>
<text text-anchor="start" x="8" y="-241.3" font-family="Times,serif" font-size="14.00"> v12 = g9</text>
<text text-anchor="start" x="8" y="-226.3" font-family="Times,serif" font-size="14.00"> v11 = v12</text>
</g>
<!-- Node0xef3bc30&#45;&gt;Node0xef405b0 -->
<g id="edge3" class="edge"><title>Node0xef3bc30&#45;&gt;Node0xef405b0</title>
<path fill="none" stroke="black" d="M277.815,-413.42C268.133,-401.891 254.844,-386.069 241.034,-369.625"/>
<polygon fill="black" stroke="black" points="243.338,-366.926 234.226,-361.519 237.977,-371.428 243.338,-366.926"/>
<text text-anchor="middle" x="296.5" y="-383.8" font-family="Times,serif" font-size="14.00">v16 &gt;= 2</text>
</g>
<!-- Node0xef40610 -->
<g id="node5" class="node"><title>Node0xef40610</title>
<polygon fill="none" stroke="black" points="368,-272 368,-308 458,-308 458,-272 368,-272"/>
<text text-anchor="start" x="376" y="-286.3" font-family="Times,serif" font-size="14.00">v11 = v10</text>
</g>
<!-- Node0xef3bc30&#45;&gt;Node0xef40610 -->
<g id="edge4" class="edge"><title>Node0xef3bc30&#45;&gt;Node0xef40610</title>
<path fill="none" stroke="black" d="M315.606,-413.391C322.128,-407.766 329.077,-401.365 335,-395 358.242,-370.022 381.234,-338.278 396.166,-316.469"/>
<polygon fill="black" stroke="black" points="399.149,-318.307 401.859,-308.064 393.353,-314.381 399.149,-318.307"/>
<text text-anchor="middle" x="374.5" y="-383.8" font-family="Times,serif" font-size="14.00">v16 &lt; 2</text>
</g>
<!-- Node0xef3f590 -->
<g id="node6" class="node"><title>Node0xef3f590</title>
<polygon fill="none" stroke="black" points="164,-97.5 164,-180.5 476,-180.5 476,-97.5 164,-97.5"/>
<text text-anchor="start" x="172" y="-165.3" font-family="Times,serif" font-size="14.00">0x409397:</text>
<text text-anchor="start" x="172" y="-150.3" font-family="Times,serif" font-size="14.00"> result = *(IntToPtrCastExpr&lt;ptr&gt;(v11))</text>
<text text-anchor="start" x="172" y="-135.3" font-family="Times,serif" font-size="14.00"> v14 = v6</text>
<text text-anchor="start" x="172" y="-120.3" font-family="Times,serif" font-size="14.00"> g9 = PtrToIntCastExpr&lt;int32&gt;(v14)</text>
<text text-anchor="start" x="172" y="-105.3" font-family="Times,serif" font-size="14.00"> return result</text>
</g>
<!-- Node0xef405b0&#45;&gt;Node0xef3f590 -->
<g id="edge5" class="edge"><title>Node0xef405b0&#45;&gt;Node0xef3f590</title>
<path fill="none" stroke="black" d="M243.678,-218.427C253.711,-208.117 263.842,-197.707 273.299,-187.989"/>
<polygon fill="black" stroke="black" points="275.921,-190.313 280.387,-180.706 270.905,-185.431 275.921,-190.313"/>
</g>
<!-- Node0xef40610&#45;&gt;Node0xef3f590 -->
<g id="edge6" class="edge"><title>Node0xef40610&#45;&gt;Node0xef3f590</title>
<path fill="none" stroke="black" d="M402.332,-271.908C389.836,-251.888 368.581,-217.833 350.797,-189.342"/>
<polygon fill="black" stroke="black" points="353.667,-187.329 345.403,-180.7 347.729,-191.036 353.667,-187.329"/>
</g>
<!-- Node0xef40340 -->
<g id="node7" class="node"><title>Node0xef40340</title>
<polygon fill="none" stroke="black" points="293,-23.5 293,-59.5 347,-59.5 347,-23.5 293,-23.5"/>
<text text-anchor="start" x="301" y="-37.8" font-family="Times,serif" font-size="14.00">exit:</text>
</g>
<!-- Node0xef3f590&#45;&gt;Node0xef40340 -->
<g id="edge7" class="edge"><title>Node0xef3f590&#45;&gt;Node0xef40340</title>
<path fill="none" stroke="black" d="M320,-97.4994C320,-88.2058 320,-78.537 320,-69.9459"/>
<polygon fill="black" stroke="black" points="323.5,-69.7494 320,-59.7494 316.5,-69.7494 323.5,-69.7494"/>
</g>
</g>
</svg>
