<?xml version="1.0" encoding="UTF-8" standalone="no"?>
<!DOCTYPE svg PUBLIC "-//W3C//DTD SVG 1.1//EN"
 "http://www.w3.org/Graphics/SVG/1.1/DTD/svg11.dtd">
<!-- Generated by graphviz version 2.38.0 (20140413.2041)
 -->
<!-- Title: Control&#45;flow graph for function &#39;function_40620d(*a1, *a2, *a3, *a4, *a5, a6, a7, a8, a9, a10, a11, a12)&#39;. Pages: 1 -->
<svg width="1559pt" height="2039pt"
 viewBox="0.00 0.00 1558.50 2039.00" xmlns="http://www.w3.org/2000/svg" xmlns:xlink="http://www.w3.org/1999/xlink">
<g id="graph0" class="graph" transform="scale(1 1) rotate(0) translate(4 2035)">
<title>Control&#45;flow graph for function &#39;function_40620d(*a1, *a2, *a3, *a4, *a5, a6, a7, a8, a9, a10, a11, a12)&#39;.</title>
<polygon fill="white" stroke="none" points="-4,4 -4,-2035 1554.5,-2035 1554.5,4 -4,4"/>
<text text-anchor="middle" x="775.25" y="-7.8" font-family="Times,serif" font-size="14.00">Control&#45;flow graph for function &#39;function_40620d(*a1, *a2, *a3, *a4, *a5, a6, a7, a8, a9, a10, a11, a12)&#39;.</text>
<!-- Node0xef222f0 -->
<g id="node1" class="node"><title>Node0xef222f0</title>
<polygon fill="none" stroke="black" points="249,-1827.5 249,-2030.5 308,-2030.5 308,-1827.5 249,-1827.5"/>
<text text-anchor="start" x="257" y="-2015.3" font-family="Times,serif" font-size="14.00">entry:</text>
<text text-anchor="start" x="257" y="-2000.3" font-family="Times,serif" font-size="14.00"> a1</text>
<text text-anchor="start" x="257" y="-1985.3" font-family="Times,serif" font-size="14.00"> a2</text>
<text text-anchor="start" x="257" y="-1970.3" font-family="Times,serif" font-size="14.00"> a3</text>
<text text-anchor="start" x="257" y="-1955.3" font-family="Times,serif" font-size="14.00"> a4</text>
<text text-anchor="start" x="257" y="-1940.3" font-family="Times,serif" font-size="14.00"> a5</text>
<text text-anchor="start" x="257" y="-1925.3" font-family="Times,serif" font-size="14.00"> a6</text>
<text text-anchor="start" x="257" y="-1910.3" font-family="Times,serif" font-size="14.00"> a7</text>
<text text-anchor="start" x="257" y="-1895.3" font-family="Times,serif" font-size="14.00"> a8</text>
<text text-anchor="start" x="257" y="-1880.3" font-family="Times,serif" font-size="14.00"> a9</text>
<text text-anchor="start" x="257" y="-1865.3" font-family="Times,serif" font-size="14.00"> a10</text>
<text text-anchor="start" x="257" y="-1850.3" font-family="Times,serif" font-size="14.00"> a11</text>
<text text-anchor="start" x="257" y="-1835.3" font-family="Times,serif" font-size="14.00"> a12</text>
</g>
<!-- Node0xef24a60 -->
<g id="node2" class="node"><title>Node0xef24a60</title>
<polygon fill="none" stroke="black" points="114.5,-1196.5 114.5,-1789.5 442.5,-1789.5 442.5,-1196.5 114.5,-1196.5"/>
<text text-anchor="start" x="122.5" y="-1774.3" font-family="Times,serif" font-size="14.00">windowHandle</text>
<text text-anchor="start" x="122.5" y="-1759.3" font-family="Times,serif" font-size="14.00"> v1</text>
<text text-anchor="start" x="122.5" y="-1744.3" font-family="Times,serif" font-size="14.00"> v2</text>
<text text-anchor="start" x="122.5" y="-1729.3" font-family="Times,serif" font-size="14.00"> v3</text>
<text text-anchor="start" x="122.5" y="-1714.3" font-family="Times,serif" font-size="14.00"> v4</text>
<text text-anchor="start" x="122.5" y="-1699.3" font-family="Times,serif" font-size="14.00"> v5</text>
<text text-anchor="start" x="122.5" y="-1684.3" font-family="Times,serif" font-size="14.00"> v6</text>
<text text-anchor="start" x="122.5" y="-1669.3" font-family="Times,serif" font-size="14.00"> result</text>
<text text-anchor="start" x="122.5" y="-1654.3" font-family="Times,serif" font-size="14.00"> v7</text>
<text text-anchor="start" x="122.5" y="-1639.3" font-family="Times,serif" font-size="14.00"> v8</text>
<text text-anchor="start" x="122.5" y="-1624.3" font-family="Times,serif" font-size="14.00"> v9</text>
<text text-anchor="start" x="122.5" y="-1609.3" font-family="Times,serif" font-size="14.00"> v10</text>
<text text-anchor="start" x="122.5" y="-1594.3" font-family="Times,serif" font-size="14.00"> v11</text>
<text text-anchor="start" x="122.5" y="-1579.3" font-family="Times,serif" font-size="14.00"> v12</text>
<text text-anchor="start" x="122.5" y="-1564.3" font-family="Times,serif" font-size="14.00"> v13</text>
<text text-anchor="start" x="122.5" y="-1549.3" font-family="Times,serif" font-size="14.00"> v14</text>
<text text-anchor="start" x="122.5" y="-1534.3" font-family="Times,serif" font-size="14.00"> v15</text>
<text text-anchor="start" x="122.5" y="-1519.3" font-family="Times,serif" font-size="14.00"> v16</text>
<text text-anchor="start" x="122.5" y="-1504.3" font-family="Times,serif" font-size="14.00"> v17</text>
<text text-anchor="start" x="122.5" y="-1489.3" font-family="Times,serif" font-size="14.00"> v18</text>
<text text-anchor="start" x="122.5" y="-1474.3" font-family="Times,serif" font-size="14.00"> v19</text>
<text text-anchor="start" x="122.5" y="-1459.3" font-family="Times,serif" font-size="14.00"> v20</text>
<text text-anchor="start" x="122.5" y="-1444.3" font-family="Times,serif" font-size="14.00"> v21</text>
<text text-anchor="start" x="122.5" y="-1429.3" font-family="Times,serif" font-size="14.00"> v22</text>
<text text-anchor="start" x="122.5" y="-1414.3" font-family="Times,serif" font-size="14.00"> v23</text>
<text text-anchor="start" x="122.5" y="-1399.3" font-family="Times,serif" font-size="14.00"> v24</text>
<text text-anchor="start" x="122.5" y="-1384.3" font-family="Times,serif" font-size="14.00"> v25</text>
<text text-anchor="start" x="122.5" y="-1369.3" font-family="Times,serif" font-size="14.00"> v26</text>
<text text-anchor="start" x="122.5" y="-1354.3" font-family="Times,serif" font-size="14.00"> v27</text>
<text text-anchor="start" x="122.5" y="-1339.3" font-family="Times,serif" font-size="14.00"> v28</text>
<text text-anchor="start" x="122.5" y="-1324.3" font-family="Times,serif" font-size="14.00"> v29</text>
<text text-anchor="start" x="122.5" y="-1309.3" font-family="Times,serif" font-size="14.00"> v30</text>
<text text-anchor="start" x="122.5" y="-1294.3" font-family="Times,serif" font-size="14.00"> v31</text>
<text text-anchor="start" x="122.5" y="-1279.3" font-family="Times,serif" font-size="14.00"> v10 = a6</text>
<text text-anchor="start" x="122.5" y="-1264.3" font-family="Times,serif" font-size="14.00"> v28 = g5</text>
<text text-anchor="start" x="122.5" y="-1249.3" font-family="Times,serif" font-size="14.00"> g2 = a9</text>
<text text-anchor="start" x="122.5" y="-1234.3" font-family="Times,serif" font-size="14.00"> v31 = *(IntToPtrCastExpr&lt;ptr&gt;((a9 + 8)))</text>
<text text-anchor="start" x="122.5" y="-1219.3" font-family="Times,serif" font-size="14.00"> v20 = g9</text>
<text text-anchor="start" x="122.5" y="-1204.3" font-family="Times,serif" font-size="14.00"> g9 = v28</text>
</g>
<!-- Node0xef222f0&#45;&gt;Node0xef24a60 -->
<g id="edge1" class="edge"><title>Node0xef222f0&#45;&gt;Node0xef24a60</title>
<path fill="none" stroke="black" d="M278.5,-1827.34C278.5,-1818.61 278.5,-1809.51 278.5,-1800.15"/>
<polygon fill="black" stroke="black" points="282,-1799.9 278.5,-1789.9 275,-1799.9 282,-1799.9"/>
</g>
<!-- Node0xef22a60 -->
<g id="node3" class="node"><title>Node0xef22a60</title>
<polygon fill="none" stroke="black" points="217,-1122.5 217,-1158.5 340,-1158.5 340,-1122.5 217,-1122.5"/>
<text text-anchor="start" x="225" y="-1136.8" font-family="Times,serif" font-size="14.00">if (v31 == 13):</text>
</g>
<!-- Node0xef24a60&#45;&gt;Node0xef22a60 -->
<g id="edge2" class="edge"><title>Node0xef24a60&#45;&gt;Node0xef22a60</title>
<path fill="none" stroke="black" d="M278.5,-1196.27C278.5,-1185.97 278.5,-1176.75 278.5,-1168.94"/>
<polygon fill="black" stroke="black" points="282,-1168.88 278.5,-1158.88 275,-1168.88 282,-1168.88"/>
</g>
<!-- Node0xef24e80 -->
<g id="node4" class="node"><title>Node0xef24e80</title>
<polygon fill="none" stroke="black" points="250.5,-1032.5 250.5,-1070.5 578.5,-1070.5 578.5,-1032.5 250.5,-1032.5"/>
<text text-anchor="start" x="258.5" y="-1055.3" font-family="Times,serif" font-size="14.00">0x40623d:</text>
<text text-anchor="start" x="258.5" y="-1040.3" font-family="Times,serif" font-size="14.00"> v29 = *(IntToPtrCastExpr&lt;ptr&gt;((a9 + 4)))</text>
</g>
<!-- Node0xef22a60&#45;&gt;Node0xef24e80 -->
<g id="edge3" class="edge"><title>Node0xef22a60&#45;&gt;Node0xef24e80</title>
<path fill="none" stroke="black" d="M305.369,-1122.31C326.099,-1109.05 354.998,-1090.56 377.85,-1075.95"/>
<polygon fill="black" stroke="black" points="379.744,-1078.89 386.282,-1070.55 375.972,-1072.99 379.744,-1078.89"/>
<text text-anchor="middle" x="394.5" y="-1092.8" font-family="Times,serif" font-size="14.00">v31 == 13</text>
</g>
<!-- Node0xef24d00 -->
<g id="node5" class="node"><title>Node0xef24d00</title>
<polygon fill="none" stroke="black" points="0,-727 0,-825 445,-825 445,-727 0,-727"/>
<text text-anchor="start" x="8" y="-809.8" font-family="Times,serif" font-size="14.00">0x4062b1:</text>
<text text-anchor="start" x="8" y="-794.8" font-family="Times,serif" font-size="14.00"> v10 = a9</text>
<text text-anchor="start" x="8" y="-779.8" font-family="Times,serif" font-size="14.00"> result = function_413928(BitCastExpr&lt;ptr&gt;(&amp;(v10)), v20)</text>
<text text-anchor="start" x="8" y="-764.8" font-family="Times,serif" font-size="14.00"> v27 = v10</text>
<text text-anchor="start" x="8" y="-749.8" font-family="Times,serif" font-size="14.00"> g9 = v27</text>
<text text-anchor="start" x="8" y="-734.8" font-family="Times,serif" font-size="14.00"> return result</text>
</g>
<!-- Node0xef22a60&#45;&gt;Node0xef24d00 -->
<g id="edge4" class="edge"><title>Node0xef22a60&#45;&gt;Node0xef24d00</title>
<path fill="none" stroke="black" d="M266.538,-1122.38C257.912,-1109.04 246.877,-1089.71 241.5,-1071 218.693,-991.653 217.093,-895.486 219.024,-835.253"/>
<polygon fill="black" stroke="black" points="222.525,-835.291 219.391,-825.17 215.529,-835.036 222.525,-835.291"/>
<text text-anchor="middle" x="265.5" y="-1002.8" font-family="Times,serif" font-size="14.00">v31 != 13</text>
</g>
<!-- Node0xef24ee0 -->
<g id="node6" class="node"><title>Node0xef24ee0</title>
<polygon fill="none" stroke="black" points="348.5,-944.5 348.5,-980.5 480.5,-980.5 480.5,-944.5 348.5,-944.5"/>
<text text-anchor="start" x="356.5" y="-958.8" font-family="Times,serif" font-size="14.00">if (v29 == 256):</text>
</g>
<!-- Node0xef24e80&#45;&gt;Node0xef24ee0 -->
<g id="edge5" class="edge"><title>Node0xef24e80&#45;&gt;Node0xef24ee0</title>
<path fill="none" stroke="black" d="M414.5,-1032.47C414.5,-1020.46 414.5,-1004.43 414.5,-990.857"/>
<polygon fill="black" stroke="black" points="418,-990.615 414.5,-980.615 411,-990.615 418,-990.615"/>
</g>
<!-- Node0xef24a00 -->
<g id="node7" class="node"><title>Node0xef24a00</title>
<polygon fill="none" stroke="black" points="356.5,-23.5 356.5,-59.5 410.5,-59.5 410.5,-23.5 356.5,-23.5"/>
<text text-anchor="start" x="364.5" y="-37.8" font-family="Times,serif" font-size="14.00">exit:</text>
</g>
<!-- Node0xef24d00&#45;&gt;Node0xef24a00 -->
<g id="edge6" class="edge"><title>Node0xef24d00&#45;&gt;Node0xef24a00</title>
<path fill="none" stroke="black" d="M222.5,-726.863C222.5,-692.711 222.5,-645.793 222.5,-604.5 222.5,-604.5 222.5,-604.5 222.5,-145.5 222.5,-87.0731 298.667,-60.2919 346.224,-49.2646"/>
<polygon fill="black" stroke="black" points="347.167,-52.6411 356.189,-47.0854 345.672,-45.8027 347.167,-52.6411"/>
</g>
<!-- Node0xef24ee0&#45;&gt;Node0xef24d00 -->
<g id="edge8" class="edge"><title>Node0xef24ee0&#45;&gt;Node0xef24d00</title>
<path fill="none" stroke="black" d="M387.788,-944.429C379.726,-938.879 371.023,-932.473 363.5,-926 330.293,-897.426 296.443,-861.911 270.236,-832.722"/>
<polygon fill="black" stroke="black" points="272.668,-830.19 263.399,-825.058 267.444,-834.85 272.668,-830.19"/>
<text text-anchor="middle" x="404" y="-914.8" font-family="Times,serif" font-size="14.00">v29 != 256</text>
</g>
<!-- Node0xef25880 -->
<g id="node8" class="node"><title>Node0xef25880</title>
<polygon fill="none" stroke="black" points="463,-659.5 463,-892.5 1084,-892.5 1084,-659.5 463,-659.5"/>
<text text-anchor="start" x="471" y="-877.3" font-family="Times,serif" font-size="14.00">0x406246:</text>
<text text-anchor="start" x="471" y="-862.3" font-family="Times,serif" font-size="14.00"> v21 = g4</text>
<text text-anchor="start" x="471" y="-847.3" font-family="Times,serif" font-size="14.00"> v10 = v21</text>
<text text-anchor="start" x="471" y="-832.3" font-family="Times,serif" font-size="14.00"> v22 = g7</text>
<text text-anchor="start" x="471" y="-817.3" font-family="Times,serif" font-size="14.00"> windowHandle = GetFocus()</text>
<text text-anchor="start" x="471" y="-802.3" font-family="Times,serif" font-size="14.00"> v1 = function_40ee6b()</text>
<text text-anchor="start" x="471" y="-787.3" font-family="Times,serif" font-size="14.00"> v23 = g9</text>
<text text-anchor="start" x="471" y="-772.3" font-family="Times,serif" font-size="14.00"> g5 = v23</text>
<text text-anchor="start" x="471" y="-757.3" font-family="Times,serif" font-size="14.00"> g7 = v1</text>
<text text-anchor="start" x="471" y="-742.3" font-family="Times,serif" font-size="14.00"> v2 = function_411b61(IntToPtrCastExpr&lt;ptr&gt;(111), windowHandle)</text>
<text text-anchor="start" x="471" y="-727.3" font-family="Times,serif" font-size="14.00"> v24 = g9</text>
<text text-anchor="start" x="471" y="-712.3" font-family="Times,serif" font-size="14.00"> g5 = v24</text>
<text text-anchor="start" x="471" y="-697.3" font-family="Times,serif" font-size="14.00"> v3 = function_411b61(IntToPtrCastExpr&lt;ptr&gt;(112), IntToPtrCastExpr&lt;ptr&gt;(111))</text>
<text text-anchor="start" x="471" y="-682.3" font-family="Times,serif" font-size="14.00"> v25 = g9</text>
<text text-anchor="start" x="471" y="-667.3" font-family="Times,serif" font-size="14.00"> v30 = *(IntToPtrCastExpr&lt;ptr&gt;((v25 + 332)))</text>
</g>
<!-- Node0xef24ee0&#45;&gt;Node0xef25880 -->
<g id="edge7" class="edge"><title>Node0xef24ee0&#45;&gt;Node0xef25880</title>
<path fill="none" stroke="black" d="M447.63,-944.473C470.513,-932.713 503.216,-915.907 539.164,-897.432"/>
<polygon fill="black" stroke="black" points="541.075,-900.385 548.37,-892.701 537.876,-894.159 541.075,-900.385"/>
<text text-anchor="middle" x="555" y="-914.8" font-family="Times,serif" font-size="14.00">v29 == 256</text>
</g>
<!-- Node0xef1f300 -->
<g id="node9" class="node"><title>Node0xef1f300</title>
<polygon fill="none" stroke="black" points="716.5,-585.5 716.5,-621.5 830.5,-621.5 830.5,-585.5 716.5,-585.5"/>
<text text-anchor="start" x="724.5" y="-599.8" font-family="Times,serif" font-size="14.00">if (v30 == 0):</text>
</g>
<!-- Node0xef25880&#45;&gt;Node0xef1f300 -->
<g id="edge9" class="edge"><title>Node0xef25880&#45;&gt;Node0xef1f300</title>
<path fill="none" stroke="black" d="M773.5,-659.386C773.5,-649.423 773.5,-640.097 773.5,-632.06"/>
<polygon fill="black" stroke="black" points="777,-631.96 773.5,-621.96 770,-631.96 777,-631.96"/>
</g>
<!-- Node0xef25bf0 -->
<g id="node10" class="node"><title>Node0xef25bf0</title>
<polygon fill="none" stroke="black" points="696.5,-495.5 696.5,-533.5 788.5,-533.5 788.5,-495.5 696.5,-495.5"/>
<text text-anchor="start" x="704.5" y="-518.3" font-family="Times,serif" font-size="14.00">0x406273:</text>
<text text-anchor="start" x="704.5" y="-503.3" font-family="Times,serif" font-size="14.00"> v26 = g7</text>
</g>
<!-- Node0xef1f300&#45;&gt;Node0xef25bf0 -->
<g id="edge10" class="edge"><title>Node0xef1f300&#45;&gt;Node0xef25bf0</title>
<path fill="none" stroke="black" d="M767.375,-585.312C763.087,-573.277 757.266,-556.94 752.333,-543.095"/>
<polygon fill="black" stroke="black" points="755.586,-541.796 748.932,-533.551 748.992,-544.146 755.586,-541.796"/>
<text text-anchor="middle" x="795" y="-555.8" font-family="Times,serif" font-size="14.00">v30 == 0</text>
</g>
<!-- Node0xef25a60 -->
<g id="node11" class="node"><title>Node0xef25a60</title>
<polygon fill="none" stroke="black" points="288.5,-97.5 288.5,-195.5 1166.5,-195.5 1166.5,-97.5 288.5,-97.5"/>
<text text-anchor="start" x="296.5" y="-180.3" font-family="Times,serif" font-size="14.00">0x40628d:</text>
<text text-anchor="start" x="296.5" y="-165.3" font-family="Times,serif" font-size="14.00"> function_404a30(IntToPtrCastExpr&lt;ptr&gt;(112), IntToPtrCastExpr&lt;ptr&gt;(111), BitCastExpr&lt;ptr&gt;(windowHandle), v22)</text>
<text text-anchor="start" x="296.5" y="-150.3" font-family="Times,serif" font-size="14.00"> g7 = 112</text>
<text text-anchor="start" x="296.5" y="-135.3" font-family="Times,serif" font-size="14.00"> g4 = 111</text>
<text text-anchor="start" x="296.5" y="-120.3" font-family="Times,serif" font-size="14.00"> g9 = PtrToIntCastExpr&lt;int32&gt;(windowHandle)</text>
<text text-anchor="start" x="296.5" y="-105.3" font-family="Times,serif" font-size="14.00"> return 1</text>
</g>
<!-- Node0xef1f300&#45;&gt;Node0xef25a60 -->
<g id="edge11" class="edge"><title>Node0xef1f300&#45;&gt;Node0xef25a60</title>
<path fill="none" stroke="black" d="M822.833,-585.475C852.478,-571.766 884.5,-549.166 884.5,-515.5 884.5,-515.5 884.5,-515.5 884.5,-349.5 884.5,-288.957 905.64,-263.301 870.5,-214 867.622,-209.962 864.436,-206.163 860.999,-202.589"/>
<polygon fill="black" stroke="black" points="863.27,-199.919 853.612,-195.564 858.447,-204.991 863.27,-199.919"/>
<text text-anchor="middle" x="916" y="-435.8" font-family="Times,serif" font-size="14.00">v30 != 0</text>
</g>
<!-- Node0xef25c50 -->
<g id="node12" class="node"><title>Node0xef25c50</title>
<polygon fill="none" stroke="black" points="643.5,-421.5 643.5,-457.5 765.5,-457.5 765.5,-421.5 643.5,-421.5"/>
<text text-anchor="start" x="651.5" y="-435.8" font-family="Times,serif" font-size="14.00">if (v2 == v26):</text>
</g>
<!-- Node0xef25bf0&#45;&gt;Node0xef25c50 -->
<g id="edge12" class="edge"><title>Node0xef25bf0&#45;&gt;Node0xef25c50</title>
<path fill="none" stroke="black" d="M733.107,-495.455C728.623,-486.842 723.171,-476.368 718.234,-466.884"/>
<polygon fill="black" stroke="black" points="721.246,-465.089 713.524,-457.835 715.036,-468.321 721.246,-465.089"/>
</g>
<!-- Node0xef25a60&#45;&gt;Node0xef24a00 -->
<g id="edge13" class="edge"><title>Node0xef25a60&#45;&gt;Node0xef24a00</title>
<path fill="none" stroke="black" d="M567.082,-97.4679C512.4,-81.095 456.15,-64.2527 420.573,-53.6003"/>
<polygon fill="black" stroke="black" points="421.247,-50.1486 410.663,-50.6331 419.239,-56.8545 421.247,-50.1486"/>
</g>
<!-- Node0xef25f10 -->
<g id="node13" class="node"><title>Node0xef25f10</title>
<polygon fill="none" stroke="black" points="285.5,-214.5 285.5,-312.5 651.5,-312.5 651.5,-214.5 285.5,-214.5"/>
<text text-anchor="start" x="293.5" y="-297.3" font-family="Times,serif" font-size="14.00">0x406277:</text>
<text text-anchor="start" x="293.5" y="-282.3" font-family="Times,serif" font-size="14.00"> function_411d30(IntToPtrCastExpr&lt;ptr&gt;(112))</text>
<text text-anchor="start" x="293.5" y="-267.3" font-family="Times,serif" font-size="14.00"> g7 = 112</text>
<text text-anchor="start" x="293.5" y="-252.3" font-family="Times,serif" font-size="14.00"> g4 = 111</text>
<text text-anchor="start" x="293.5" y="-237.3" font-family="Times,serif" font-size="14.00"> g9 = PtrToIntCastExpr&lt;int32&gt;(windowHandle)</text>
<text text-anchor="start" x="293.5" y="-222.3" font-family="Times,serif" font-size="14.00"> return 1</text>
</g>
<!-- Node0xef25c50&#45;&gt;Node0xef25f10 -->
<g id="edge14" class="edge"><title>Node0xef25c50&#45;&gt;Node0xef25f10</title>
<path fill="none" stroke="black" d="M658.634,-421.4C646.801,-416.191 634.35,-409.972 623.5,-403 586.852,-379.45 550.302,-347.315 521.906,-319.927"/>
<polygon fill="black" stroke="black" points="524.101,-317.178 514.495,-312.708 519.216,-322.192 524.101,-317.178"/>
<text text-anchor="middle" x="662" y="-391.8" font-family="Times,serif" font-size="14.00">v2 == v26</text>
</g>
<!-- Node0xef25e40 -->
<g id="node14" class="node"><title>Node0xef25e40</title>
<polygon fill="none" stroke="black" points="644,-331.5 644,-369.5 765,-369.5 765,-331.5 644,-331.5"/>
<text text-anchor="start" x="652" y="-354.3" font-family="Times,serif" font-size="14.00">0x406289:</text>
<text text-anchor="start" x="652" y="-339.3" font-family="Times,serif" font-size="14.00"> if (v3 != v26):</text>
</g>
<!-- Node0xef25c50&#45;&gt;Node0xef25e40 -->
<g id="edge15" class="edge"><title>Node0xef25c50&#45;&gt;Node0xef25e40</title>
<path fill="none" stroke="black" d="M704.5,-421.312C704.5,-409.511 704.5,-393.572 704.5,-379.904"/>
<polygon fill="black" stroke="black" points="708,-379.551 704.5,-369.551 701,-379.551 708,-379.551"/>
<text text-anchor="middle" x="740" y="-391.8" font-family="Times,serif" font-size="14.00">v2 != v26</text>
</g>
<!-- Node0xef25f10&#45;&gt;Node0xef24a00 -->
<g id="edge16" class="edge"><title>Node0xef25f10&#45;&gt;Node0xef24a00</title>
<path fill="none" stroke="black" d="M296.06,-214.429C289.906,-208.932 284.325,-202.813 279.5,-196 254.069,-160.093 256.725,-134.647 279.5,-97 293.995,-73.0399 322.881,-59.1009 346.54,-51.3274"/>
<polygon fill="black" stroke="black" points="347.751,-54.6176 356.302,-48.3622 345.716,-47.9198 347.751,-54.6176"/>
</g>
<!-- Node0xef25e40&#45;&gt;Node0xef25a60 -->
<g id="edge18" class="edge"><title>Node0xef25e40&#45;&gt;Node0xef25a60</title>
<path fill="none" stroke="black" d="M701.151,-331.309C696.927,-305.093 691.159,-255.303 699.5,-214 700.07,-211.18 700.762,-208.33 701.552,-205.479"/>
<polygon fill="black" stroke="black" points="704.927,-206.411 704.568,-195.822 698.246,-204.324 704.927,-206.411"/>
<text text-anchor="middle" x="738" y="-259.8" font-family="Times,serif" font-size="14.00">v3 == v26</text>
</g>
<!-- Node0xef26150 -->
<g id="node15" class="node"><title>Node0xef26150</title>
<polygon fill="none" stroke="black" points="1184.5,-97.5 1184.5,-195.5 1550.5,-195.5 1550.5,-97.5 1184.5,-97.5"/>
<text text-anchor="start" x="1192.5" y="-180.3" font-family="Times,serif" font-size="14.00">0x40629f:</text>
<text text-anchor="start" x="1192.5" y="-165.3" font-family="Times,serif" font-size="14.00"> function_411d30(IntToPtrCastExpr&lt;ptr&gt;(112))</text>
<text text-anchor="start" x="1192.5" y="-150.3" font-family="Times,serif" font-size="14.00"> g7 = 112</text>
<text text-anchor="start" x="1192.5" y="-135.3" font-family="Times,serif" font-size="14.00"> g4 = 111</text>
<text text-anchor="start" x="1192.5" y="-120.3" font-family="Times,serif" font-size="14.00"> g9 = PtrToIntCastExpr&lt;int32&gt;(windowHandle)</text>
<text text-anchor="start" x="1192.5" y="-105.3" font-family="Times,serif" font-size="14.00"> return 1</text>
</g>
<!-- Node0xef25e40&#45;&gt;Node0xef26150 -->
<g id="edge17" class="edge"><title>Node0xef25e40&#45;&gt;Node0xef26150</title>
<path fill="none" stroke="black" d="M763.628,-331.485C860.737,-301.899 1057.44,-241.968 1200.02,-198.527"/>
<polygon fill="black" stroke="black" points="1201.21,-201.822 1209.76,-195.56 1199.17,-195.126 1201.21,-201.822"/>
<text text-anchor="middle" x="1169" y="-259.8" font-family="Times,serif" font-size="14.00">v3 != v26</text>
</g>
<!-- Node0xef26150&#45;&gt;Node0xef24a00 -->
<g id="edge19" class="edge"><title>Node0xef26150&#45;&gt;Node0xef24a00</title>
<path fill="none" stroke="black" d="M1184.47,-98.4912C1181.46,-97.9714 1178.47,-97.4735 1175.5,-97 887.729,-51.1305 535.069,-43.8532 420.993,-42.7096"/>
<polygon fill="black" stroke="black" points="420.739,-39.2073 410.708,-42.617 420.676,-46.207 420.739,-39.2073"/>
</g>
</g>
</svg>
