<?xml version="1.0" encoding="UTF-8" standalone="no"?>
<!DOCTYPE svg PUBLIC "-//W3C//DTD SVG 1.1//EN"
 "http://www.w3.org/Graphics/SVG/1.1/DTD/svg11.dtd">
<!-- Generated by graphviz version 2.38.0 (20140413.2041)
 -->
<!-- Title: Control&#45;flow graph for function &#39;function_40b030(a1, a2)&#39;. Pages: 1 -->
<svg width="606pt" height="820pt"
 viewBox="0.00 0.00 606.00 820.00" xmlns="http://www.w3.org/2000/svg" xmlns:xlink="http://www.w3.org/1999/xlink">
<g id="graph0" class="graph" transform="scale(1 1) rotate(0) translate(4 816)">
<title>Control&#45;flow graph for function &#39;function_40b030(a1, a2)&#39;.</title>
<polygon fill="white" stroke="none" points="-4,4 -4,-816 602,-816 602,4 -4,4"/>
<text text-anchor="middle" x="299" y="-7.8" font-family="Times,serif" font-size="14.00">Control&#45;flow graph for function &#39;function_40b030(a1, a2)&#39;.</text>
<!-- Node0xef8ad00 -->
<g id="node1" class="node"><title>Node0xef8ad00</title>
<polygon fill="none" stroke="black" points="269.5,-758.5 269.5,-811.5 328.5,-811.5 328.5,-758.5 269.5,-758.5"/>
<text text-anchor="start" x="277.5" y="-796.3" font-family="Times,serif" font-size="14.00">entry:</text>
<text text-anchor="start" x="277.5" y="-781.3" font-family="Times,serif" font-size="14.00"> a1</text>
<text text-anchor="start" x="277.5" y="-766.3" font-family="Times,serif" font-size="14.00"> a2</text>
</g>
<!-- Node0xef943d0 -->
<g id="node2" class="node"><title>Node0xef943d0</title>
<polygon fill="none" stroke="black" points="0,-382.5 0,-720.5 598,-720.5 598,-382.5 0,-382.5"/>
<text text-anchor="start" x="8" y="-705.3" font-family="Times,serif" font-size="14.00">v1</text>
<text text-anchor="start" x="8" y="-690.3" font-family="Times,serif" font-size="14.00"> v2</text>
<text text-anchor="start" x="8" y="-675.3" font-family="Times,serif" font-size="14.00"> v3</text>
<text text-anchor="start" x="8" y="-660.3" font-family="Times,serif" font-size="14.00"> v4</text>
<text text-anchor="start" x="8" y="-645.3" font-family="Times,serif" font-size="14.00"> v5</text>
<text text-anchor="start" x="8" y="-630.3" font-family="Times,serif" font-size="14.00"> v6</text>
<text text-anchor="start" x="8" y="-615.3" font-family="Times,serif" font-size="14.00"> v7</text>
<text text-anchor="start" x="8" y="-600.3" font-family="Times,serif" font-size="14.00"> v8</text>
<text text-anchor="start" x="8" y="-585.3" font-family="Times,serif" font-size="14.00"> v9</text>
<text text-anchor="start" x="8" y="-570.3" font-family="Times,serif" font-size="14.00"> v10</text>
<text text-anchor="start" x="8" y="-555.3" font-family="Times,serif" font-size="14.00"> v11</text>
<text text-anchor="start" x="8" y="-540.3" font-family="Times,serif" font-size="14.00"> v12</text>
<text text-anchor="start" x="8" y="-525.3" font-family="Times,serif" font-size="14.00"> result</text>
<text text-anchor="start" x="8" y="-510.3" font-family="Times,serif" font-size="14.00"> v13</text>
<text text-anchor="start" x="8" y="-495.3" font-family="Times,serif" font-size="14.00"> v11 = g9</text>
<text text-anchor="start" x="8" y="-480.3" font-family="Times,serif" font-size="14.00"> v5 = IntToPtrCastExpr&lt;ptr&gt;(v11)</text>
<text text-anchor="start" x="8" y="-465.3" font-family="Times,serif" font-size="14.00"> g10 = PtrToIntCastExpr&lt;int32&gt;(&amp;(v5))</text>
<text text-anchor="start" x="8" y="-450.3" font-family="Times,serif" font-size="14.00"> v12 = g5</text>
<text text-anchor="start" x="8" y="-435.3" font-family="Times,serif" font-size="14.00"> g9 = v12</text>
<text text-anchor="start" x="8" y="-420.3" font-family="Times,serif" font-size="14.00"> *(IntToPtrCastExpr&lt;ptr&gt;(v12)) = PtrToIntCastExpr&lt;int32&gt;(&amp;(vtable_45e834))</text>
<text text-anchor="start" x="8" y="-405.3" font-family="Times,serif" font-size="14.00"> v1 = v5</text>
<text text-anchor="start" x="8" y="-390.3" font-family="Times,serif" font-size="14.00"> function_4026f0(v1)</text>
</g>
<!-- Node0xef8ad00&#45;&gt;Node0xef943d0 -->
<g id="edge1" class="edge"><title>Node0xef8ad00&#45;&gt;Node0xef943d0</title>
<path fill="none" stroke="black" d="M299,-758.341C299,-750.49 299,-741.193 299,-730.958"/>
<polygon fill="black" stroke="black" points="302.5,-730.875 299,-720.875 295.5,-730.875 302.5,-730.875"/>
</g>
<!-- Node0xef8ad90 -->
<g id="node3" class="node"><title>Node0xef8ad90</title>
<polygon fill="none" stroke="black" points="249.5,-308.5 249.5,-344.5 348.5,-344.5 348.5,-308.5 249.5,-308.5"/>
<text text-anchor="start" x="257.5" y="-322.8" font-family="Times,serif" font-size="14.00">if (a1 != 1):</text>
</g>
<!-- Node0xef943d0&#45;&gt;Node0xef8ad90 -->
<g id="edge2" class="edge"><title>Node0xef943d0&#45;&gt;Node0xef8ad90</title>
<path fill="none" stroke="black" d="M299,-382.338C299,-372.29 299,-363.078 299,-355.189"/>
<polygon fill="black" stroke="black" points="302.5,-354.969 299,-344.969 295.5,-354.969 302.5,-354.969"/>
</g>
<!-- Node0xef94a30 -->
<g id="node4" class="node"><title>Node0xef94a30</title>
<polygon fill="none" stroke="black" points="146,-218.5 146,-256.5 298,-256.5 298,-218.5 146,-218.5"/>
<text text-anchor="start" x="154" y="-241.3" font-family="Times,serif" font-size="14.00">0x40b045:</text>
<text text-anchor="start" x="154" y="-226.3" font-family="Times,serif" font-size="14.00"> function_40c783()</text>
</g>
<!-- Node0xef8ad90&#45;&gt;Node0xef94a30 -->
<g id="edge3" class="edge"><title>Node0xef8ad90&#45;&gt;Node0xef94a30</title>
<path fill="none" stroke="black" d="M282.74,-308.299C277.359,-302.53 271.375,-296.031 266,-290 258.723,-281.836 250.927,-272.806 243.948,-264.618"/>
<polygon fill="black" stroke="black" points="246.431,-262.134 237.292,-256.774 241.093,-266.663 246.431,-262.134"/>
<text text-anchor="middle" x="293" y="-278.8" font-family="Times,serif" font-size="14.00">a1 != 1</text>
</g>
<!-- Node0xef8dfa0 -->
<g id="node5" class="node"><title>Node0xef8dfa0</title>
<polygon fill="none" stroke="black" points="157,-97.5 157,-180.5 443,-180.5 443,-97.5 157,-97.5"/>
<text text-anchor="start" x="165" y="-165.3" font-family="Times,serif" font-size="14.00">0x40b04e:</text>
<text text-anchor="start" x="165" y="-150.3" font-family="Times,serif" font-size="14.00"> result = g9</text>
<text text-anchor="start" x="165" y="-135.3" font-family="Times,serif" font-size="14.00"> v13 = v5</text>
<text text-anchor="start" x="165" y="-120.3" font-family="Times,serif" font-size="14.00"> g9 = PtrToIntCastExpr&lt;int32&gt;(v13)</text>
<text text-anchor="start" x="165" y="-105.3" font-family="Times,serif" font-size="14.00"> return result</text>
</g>
<!-- Node0xef8ad90&#45;&gt;Node0xef8dfa0 -->
<g id="edge4" class="edge"><title>Node0xef8ad90&#45;&gt;Node0xef8dfa0</title>
<path fill="none" stroke="black" d="M311.672,-308.283C315.06,-302.726 318.261,-296.354 320,-290 328.87,-257.585 323.882,-220.112 316.67,-190.73"/>
<polygon fill="black" stroke="black" points="319.963,-189.484 314.046,-180.696 313.19,-191.256 319.963,-189.484"/>
<text text-anchor="middle" x="354" y="-233.8" font-family="Times,serif" font-size="14.00">a1 == 1</text>
</g>
<!-- Node0xef94a30&#45;&gt;Node0xef8dfa0 -->
<g id="edge5" class="edge"><title>Node0xef94a30&#45;&gt;Node0xef8dfa0</title>
<path fill="none" stroke="black" d="M236.671,-218.349C243.493,-209.909 251.969,-199.422 260.479,-188.895"/>
<polygon fill="black" stroke="black" points="263.401,-190.847 266.965,-180.87 257.957,-186.447 263.401,-190.847"/>
</g>
<!-- Node0xef8f960 -->
<g id="node6" class="node"><title>Node0xef8f960</title>
<polygon fill="none" stroke="black" points="273,-23.5 273,-59.5 327,-59.5 327,-23.5 273,-23.5"/>
<text text-anchor="start" x="281" y="-37.8" font-family="Times,serif" font-size="14.00">exit:</text>
</g>
<!-- Node0xef8dfa0&#45;&gt;Node0xef8f960 -->
<g id="edge6" class="edge"><title>Node0xef8dfa0&#45;&gt;Node0xef8f960</title>
<path fill="none" stroke="black" d="M300,-97.4994C300,-88.2058 300,-78.537 300,-69.9459"/>
<polygon fill="black" stroke="black" points="303.5,-69.7494 300,-59.7494 296.5,-69.7494 303.5,-69.7494"/>
</g>
</g>
</svg>
