<?xml version="1.0" encoding="UTF-8" standalone="no"?>
<!DOCTYPE svg PUBLIC "-//W3C//DTD SVG 1.1//EN"
 "http://www.w3.org/Graphics/SVG/1.1/DTD/svg11.dtd">
<!-- Generated by graphviz version 2.38.0 (20140413.2041)
 -->
<!-- Title: Control&#45;flow graph for function &#39;function_41ffe5(a1)&#39;. Pages: 1 -->
<svg width="1214pt" height="3404pt"
 viewBox="0.00 0.00 1214.00 3404.00" xmlns="http://www.w3.org/2000/svg" xmlns:xlink="http://www.w3.org/1999/xlink">
<g id="graph0" class="graph" transform="scale(1 1) rotate(0) translate(4 3400)">
<title>Control&#45;flow graph for function &#39;function_41ffe5(a1)&#39;.</title>
<polygon fill="white" stroke="none" points="-4,4 -4,-3400 1210,-3400 1210,4 -4,4"/>
<text text-anchor="middle" x="603" y="-7.8" font-family="Times,serif" font-size="14.00">Control&#45;flow graph for function &#39;function_41ffe5(a1)&#39;.</text>
<!-- Node0xf8792b0 -->
<g id="node1" class="node"><title>Node0xf8792b0</title>
<polygon fill="none" stroke="black" points="461.5,-3357.5 461.5,-3395.5 520.5,-3395.5 520.5,-3357.5 461.5,-3357.5"/>
<text text-anchor="start" x="469.5" y="-3380.3" font-family="Times,serif" font-size="14.00">entry:</text>
<text text-anchor="start" x="469.5" y="-3365.3" font-family="Times,serif" font-size="14.00"> a1</text>
</g>
<!-- Node0xf877d30 -->
<g id="node2" class="node"><title>Node0xf877d30</title>
<polygon fill="none" stroke="black" points="211,-1961.5 211,-3319.5 771,-3319.5 771,-1961.5 211,-1961.5"/>
<text text-anchor="start" x="219" y="-3304.3" font-family="Times,serif" font-size="14.00">v1</text>
<text text-anchor="start" x="219" y="-3289.3" font-family="Times,serif" font-size="14.00"> v2</text>
<text text-anchor="start" x="219" y="-3274.3" font-family="Times,serif" font-size="14.00"> v3</text>
<text text-anchor="start" x="219" y="-3259.3" font-family="Times,serif" font-size="14.00"> v4</text>
<text text-anchor="start" x="219" y="-3244.3" font-family="Times,serif" font-size="14.00"> v5</text>
<text text-anchor="start" x="219" y="-3229.3" font-family="Times,serif" font-size="14.00"> v6</text>
<text text-anchor="start" x="219" y="-3214.3" font-family="Times,serif" font-size="14.00"> v7</text>
<text text-anchor="start" x="219" y="-3199.3" font-family="Times,serif" font-size="14.00"> v8</text>
<text text-anchor="start" x="219" y="-3184.3" font-family="Times,serif" font-size="14.00"> v9</text>
<text text-anchor="start" x="219" y="-3169.3" font-family="Times,serif" font-size="14.00"> v10</text>
<text text-anchor="start" x="219" y="-3154.3" font-family="Times,serif" font-size="14.00"> v11</text>
<text text-anchor="start" x="219" y="-3139.3" font-family="Times,serif" font-size="14.00"> v12</text>
<text text-anchor="start" x="219" y="-3124.3" font-family="Times,serif" font-size="14.00"> v13</text>
<text text-anchor="start" x="219" y="-3109.3" font-family="Times,serif" font-size="14.00"> v14</text>
<text text-anchor="start" x="219" y="-3094.3" font-family="Times,serif" font-size="14.00"> v15</text>
<text text-anchor="start" x="219" y="-3079.3" font-family="Times,serif" font-size="14.00"> v16</text>
<text text-anchor="start" x="219" y="-3064.3" font-family="Times,serif" font-size="14.00"> v17</text>
<text text-anchor="start" x="219" y="-3049.3" font-family="Times,serif" font-size="14.00"> v18</text>
<text text-anchor="start" x="219" y="-3034.3" font-family="Times,serif" font-size="14.00"> v19</text>
<text text-anchor="start" x="219" y="-3019.3" font-family="Times,serif" font-size="14.00"> v20</text>
<text text-anchor="start" x="219" y="-3004.3" font-family="Times,serif" font-size="14.00"> v21</text>
<text text-anchor="start" x="219" y="-2989.3" font-family="Times,serif" font-size="14.00"> v22</text>
<text text-anchor="start" x="219" y="-2974.3" font-family="Times,serif" font-size="14.00"> v23</text>
<text text-anchor="start" x="219" y="-2959.3" font-family="Times,serif" font-size="14.00"> v24</text>
<text text-anchor="start" x="219" y="-2944.3" font-family="Times,serif" font-size="14.00"> v25</text>
<text text-anchor="start" x="219" y="-2929.3" font-family="Times,serif" font-size="14.00"> v26</text>
<text text-anchor="start" x="219" y="-2914.3" font-family="Times,serif" font-size="14.00"> v27</text>
<text text-anchor="start" x="219" y="-2899.3" font-family="Times,serif" font-size="14.00"> result</text>
<text text-anchor="start" x="219" y="-2884.3" font-family="Times,serif" font-size="14.00"> v28</text>
<text text-anchor="start" x="219" y="-2869.3" font-family="Times,serif" font-size="14.00"> v29</text>
<text text-anchor="start" x="219" y="-2854.3" font-family="Times,serif" font-size="14.00"> v30</text>
<text text-anchor="start" x="219" y="-2839.3" font-family="Times,serif" font-size="14.00"> v31</text>
<text text-anchor="start" x="219" y="-2824.3" font-family="Times,serif" font-size="14.00"> v32</text>
<text text-anchor="start" x="219" y="-2809.3" font-family="Times,serif" font-size="14.00"> v33</text>
<text text-anchor="start" x="219" y="-2794.3" font-family="Times,serif" font-size="14.00"> v34</text>
<text text-anchor="start" x="219" y="-2779.3" font-family="Times,serif" font-size="14.00"> v35</text>
<text text-anchor="start" x="219" y="-2764.3" font-family="Times,serif" font-size="14.00"> v36</text>
<text text-anchor="start" x="219" y="-2749.3" font-family="Times,serif" font-size="14.00"> v37</text>
<text text-anchor="start" x="219" y="-2734.3" font-family="Times,serif" font-size="14.00"> v38</text>
<text text-anchor="start" x="219" y="-2719.3" font-family="Times,serif" font-size="14.00"> v39</text>
<text text-anchor="start" x="219" y="-2704.3" font-family="Times,serif" font-size="14.00"> v40</text>
<text text-anchor="start" x="219" y="-2689.3" font-family="Times,serif" font-size="14.00"> v41</text>
<text text-anchor="start" x="219" y="-2674.3" font-family="Times,serif" font-size="14.00"> v42</text>
<text text-anchor="start" x="219" y="-2659.3" font-family="Times,serif" font-size="14.00"> v43</text>
<text text-anchor="start" x="219" y="-2644.3" font-family="Times,serif" font-size="14.00"> v44</text>
<text text-anchor="start" x="219" y="-2629.3" font-family="Times,serif" font-size="14.00"> v45</text>
<text text-anchor="start" x="219" y="-2614.3" font-family="Times,serif" font-size="14.00"> v46</text>
<text text-anchor="start" x="219" y="-2599.3" font-family="Times,serif" font-size="14.00"> v47</text>
<text text-anchor="start" x="219" y="-2584.3" font-family="Times,serif" font-size="14.00"> v48</text>
<text text-anchor="start" x="219" y="-2569.3" font-family="Times,serif" font-size="14.00"> v49</text>
<text text-anchor="start" x="219" y="-2554.3" font-family="Times,serif" font-size="14.00"> v50</text>
<text text-anchor="start" x="219" y="-2539.3" font-family="Times,serif" font-size="14.00"> v51</text>
<text text-anchor="start" x="219" y="-2524.3" font-family="Times,serif" font-size="14.00"> v52</text>
<text text-anchor="start" x="219" y="-2509.3" font-family="Times,serif" font-size="14.00"> v53</text>
<text text-anchor="start" x="219" y="-2494.3" font-family="Times,serif" font-size="14.00"> v54</text>
<text text-anchor="start" x="219" y="-2479.3" font-family="Times,serif" font-size="14.00"> v55</text>
<text text-anchor="start" x="219" y="-2464.3" font-family="Times,serif" font-size="14.00"> v56</text>
<text text-anchor="start" x="219" y="-2449.3" font-family="Times,serif" font-size="14.00"> v57</text>
<text text-anchor="start" x="219" y="-2434.3" font-family="Times,serif" font-size="14.00"> v58</text>
<text text-anchor="start" x="219" y="-2419.3" font-family="Times,serif" font-size="14.00"> v59</text>
<text text-anchor="start" x="219" y="-2404.3" font-family="Times,serif" font-size="14.00"> v60</text>
<text text-anchor="start" x="219" y="-2389.3" font-family="Times,serif" font-size="14.00"> v61</text>
<text text-anchor="start" x="219" y="-2374.3" font-family="Times,serif" font-size="14.00"> v22 = v23</text>
<text text-anchor="start" x="219" y="-2359.3" font-family="Times,serif" font-size="14.00"> v19 = v20</text>
<text text-anchor="start" x="219" y="-2344.3" font-family="Times,serif" font-size="14.00"> v16 = v17</text>
<text text-anchor="start" x="219" y="-2329.3" font-family="Times,serif" font-size="14.00"> g2 = 4533992</text>
<text text-anchor="start" x="219" y="-2314.3" font-family="Times,serif" font-size="14.00"> __EH_prolog3()</text>
<text text-anchor="start" x="219" y="-2299.3" font-family="Times,serif" font-size="14.00"> v36 = g3</text>
<text text-anchor="start" x="219" y="-2284.3" font-family="Times,serif" font-size="14.00"> v48 = *(IntToPtrCastExpr&lt;ptr&gt;((v36 + 8)))</text>
<text text-anchor="start" x="219" y="-2269.3" font-family="Times,serif" font-size="14.00"> g9 = v48</text>
<text text-anchor="start" x="219" y="-2254.3" font-family="Times,serif" font-size="14.00"> v47 = *(IntToPtrCastExpr&lt;ptr&gt;((v48 + &#45;200)))</text>
<text text-anchor="start" x="219" y="-2239.3" font-family="Times,serif" font-size="14.00"> g5 = (v36 + &#45;20)</text>
<text text-anchor="start" x="219" y="-2224.3" font-family="Times,serif" font-size="14.00"> function_419fad(IntToPtrCastExpr&lt;ptr&gt;(v47), IntToPtrCastExpr&lt;ptr&gt;(8))</text>
<text text-anchor="start" x="219" y="-2209.3" font-family="Times,serif" font-size="14.00"> v37 = g3</text>
<text text-anchor="start" x="219" y="-2194.3" font-family="Times,serif" font-size="14.00"> v49 = *(IntToPtrCastExpr&lt;ptr&gt;((v37 + 20)))</text>
<text text-anchor="start" x="219" y="-2179.3" font-family="Times,serif" font-size="14.00"> g7 = v49</text>
<text text-anchor="start" x="219" y="-2164.3" font-family="Times,serif" font-size="14.00"> v16 = v49</text>
<text text-anchor="start" x="219" y="-2149.3" font-family="Times,serif" font-size="14.00"> v50 = *(IntToPtrCastExpr&lt;ptr&gt;((v37 + 16)))</text>
<text text-anchor="start" x="219" y="-2134.3" font-family="Times,serif" font-size="14.00"> g4 = 0</text>
<text text-anchor="start" x="219" y="-2119.3" font-family="Times,serif" font-size="14.00"> v51 = *(IntToPtrCastExpr&lt;ptr&gt;((v37 + 12)))</text>
<text text-anchor="start" x="219" y="-2104.3" font-family="Times,serif" font-size="14.00"> v19 = v51</text>
<text text-anchor="start" x="219" y="-2089.3" font-family="Times,serif" font-size="14.00"> g10 = PtrToIntCastExpr&lt;int32&gt;(&amp;(v19))</text>
<text text-anchor="start" x="219" y="-2074.3" font-family="Times,serif" font-size="14.00"> v29 = g9</text>
<text text-anchor="start" x="219" y="-2059.3" font-family="Times,serif" font-size="14.00"> g5 = v29</text>
<text text-anchor="start" x="219" y="-2044.3" font-family="Times,serif" font-size="14.00"> *(IntToPtrCastExpr&lt;ptr&gt;((v37 + &#45;4))) = 0</text>
<text text-anchor="start" x="219" y="-2029.3" font-family="Times,serif" font-size="14.00"> v1 = v19</text>
<text text-anchor="start" x="219" y="-2014.3" font-family="Times,serif" font-size="14.00"> function_41f7c1(TruncCastExpr&lt;int8&gt;(v1), v50, &amp;(v16), 6, v47, 8, 0)</text>
<text text-anchor="start" x="219" y="-1999.3" font-family="Times,serif" font-size="14.00"> v32 = g4</text>
<text text-anchor="start" x="219" y="-1984.3" font-family="Times,serif" font-size="14.00"> v38 = g3</text>
<text text-anchor="start" x="219" y="-1969.3" font-family="Times,serif" font-size="14.00"> *(IntToPtrCastExpr&lt;ptr&gt;((v38 + 8))) = 0</text>
</g>
<!-- Node0xf8792b0&#45;&gt;Node0xf877d30 -->
<g id="edge1" class="edge"><title>Node0xf8792b0&#45;&gt;Node0xf877d30</title>
<path fill="none" stroke="black" d="M491,-3357.36C491,-3350.1 491,-3340.82 491,-3329.82"/>
<polygon fill="black" stroke="black" points="494.5,-3329.71 491,-3319.71 487.5,-3329.71 494.5,-3329.71"/>
</g>
<!-- Node0xf874c00 -->
<g id="node3" class="node"><title>Node0xf874c00</title>
<polygon fill="none" stroke="black" points="440,-1885.5 440,-1923.5 542,-1923.5 542,-1885.5 440,-1885.5"/>
<text text-anchor="start" x="448" y="-1908.3" font-family="Times,serif" font-size="14.00">if (v32 &gt; 0):</text>
<text text-anchor="start" x="448" y="-1893.3" font-family="Times,serif" font-size="14.00"> else:</text>
</g>
<!-- Node0xf877d30&#45;&gt;Node0xf874c00 -->
<g id="edge2" class="edge"><title>Node0xf877d30&#45;&gt;Node0xf874c00</title>
<path fill="none" stroke="black" d="M491,-1961.27C491,-1950.73 491,-1941.46 491,-1933.66"/>
<polygon fill="black" stroke="black" points="494.5,-1933.63 491,-1923.63 487.5,-1933.63 494.5,-1933.63"/>
</g>
<!-- Node0xf879cd0 -->
<g id="node4" class="node"><title>Node0xf879cd0</title>
<polygon fill="none" stroke="black" points="96,-1720.5 96,-1818.5 446,-1818.5 446,-1720.5 96,-1720.5"/>
<text text-anchor="start" x="104" y="-1803.3" font-family="Times,serif" font-size="14.00">0x420021:</text>
<text text-anchor="start" x="104" y="-1788.3" font-family="Times,serif" font-size="14.00"> v39 = g3</text>
<text text-anchor="start" x="104" y="-1773.3" font-family="Times,serif" font-size="14.00"> *(IntToPtrCastExpr&lt;ptr&gt;((v39 + &#45;4))) = &#45;1</text>
<text text-anchor="start" x="104" y="-1758.3" font-family="Times,serif" font-size="14.00"> v40 = g3</text>
<text text-anchor="start" x="104" y="-1743.3" font-family="Times,serif" font-size="14.00"> v52 = *(IntToPtrCastExpr&lt;ptr&gt;((v40 + &#45;16)))</text>
<text text-anchor="start" x="104" y="-1728.3" font-family="Times,serif" font-size="14.00"> v58 = g4</text>
</g>
<!-- Node0xf874c00&#45;&gt;Node0xf879cd0 -->
<g id="edge3" class="edge"><title>Node0xf874c00&#45;&gt;Node0xf879cd0</title>
<path fill="none" stroke="black" d="M460.871,-1885.29C434.615,-1869.41 395.187,-1845.58 359.052,-1823.73"/>
<polygon fill="black" stroke="black" points="360.802,-1820.7 350.434,-1818.52 357.181,-1826.69 360.802,-1820.7"/>
<text text-anchor="middle" x="454.5" y="-1855.8" font-family="Times,serif" font-size="14.00">v32 &gt; 0</text>
</g>
<!-- Node0xf8798d0 -->
<g id="node5" class="node"><title>Node0xf8798d0</title>
<polygon fill="none" stroke="black" points="464,-1705.5 464,-1833.5 814,-1833.5 814,-1705.5 464,-1705.5"/>
<text text-anchor="start" x="472" y="-1818.3" font-family="Times,serif" font-size="14.00">0x420038:</text>
<text text-anchor="start" x="472" y="-1803.3" font-family="Times,serif" font-size="14.00"> v43 = g9</text>
<text text-anchor="start" x="472" y="-1788.3" font-family="Times,serif" font-size="14.00"> v54 = *(IntToPtrCastExpr&lt;ptr&gt;((v43 + &#45;84)))</text>
<text text-anchor="start" x="472" y="-1773.3" font-family="Times,serif" font-size="14.00"> g9 = v54</text>
<text text-anchor="start" x="472" y="-1758.3" font-family="Times,serif" font-size="14.00"> v33 = g4</text>
<text text-anchor="start" x="472" y="-1743.3" font-family="Times,serif" font-size="14.00"> v30 = g7</text>
<text text-anchor="start" x="472" y="-1728.3" font-family="Times,serif" font-size="14.00"> v34 = *(IntToPtrCastExpr&lt;ptr&gt;(v30))</text>
<text text-anchor="start" x="472" y="-1713.3" font-family="Times,serif" font-size="14.00"> g7 = v34</text>
</g>
<!-- Node0xf874c00&#45;&gt;Node0xf8798d0 -->
<g id="edge4" class="edge"><title>Node0xf874c00&#45;&gt;Node0xf8798d0</title>
<path fill="none" stroke="black" d="M511.268,-1885.29C524.43,-1873.46 542.512,-1857.21 560.93,-1840.66"/>
<polygon fill="black" stroke="black" points="563.733,-1842.84 568.831,-1833.56 559.054,-1837.64 563.733,-1842.84"/>
<text text-anchor="middle" x="582.5" y="-1855.8" font-family="Times,serif" font-size="14.00">v32 &lt;= 0</text>
</g>
<!-- Node0xf8796b0 -->
<g id="node6" class="node"><title>Node0xf8796b0</title>
<polygon fill="none" stroke="black" points="208.5,-1629.5 208.5,-1667.5 333.5,-1667.5 333.5,-1629.5 208.5,-1629.5"/>
<text text-anchor="start" x="216.5" y="-1652.3" font-family="Times,serif" font-size="14.00">if (v52 != v58):</text>
<text text-anchor="start" x="216.5" y="-1637.3" font-family="Times,serif" font-size="14.00"> else:</text>
</g>
<!-- Node0xf879cd0&#45;&gt;Node0xf8796b0 -->
<g id="edge5" class="edge"><title>Node0xf879cd0&#45;&gt;Node0xf8796b0</title>
<path fill="none" stroke="black" d="M271,-1720.44C271,-1705.93 271,-1690.47 271,-1677.7"/>
<polygon fill="black" stroke="black" points="274.5,-1677.69 271,-1667.69 267.5,-1677.69 274.5,-1677.69"/>
</g>
<!-- Node0xf879c40 -->
<g id="node7" class="node"><title>Node0xf879c40</title>
<polygon fill="none" stroke="black" points="576.5,-1630.5 576.5,-1666.5 701.5,-1666.5 701.5,-1630.5 576.5,-1630.5"/>
<text text-anchor="start" x="584.5" y="-1644.8" font-family="Times,serif" font-size="14.00">if (v54 != v33):</text>
</g>
<!-- Node0xf8798d0&#45;&gt;Node0xf879c40 -->
<g id="edge6" class="edge"><title>Node0xf8798d0&#45;&gt;Node0xf879c40</title>
<path fill="none" stroke="black" d="M639,-1705.17C639,-1695.18 639,-1685.33 639,-1676.76"/>
<polygon fill="black" stroke="black" points="642.5,-1676.68 639,-1666.68 635.5,-1676.68 642.5,-1676.68"/>
</g>
<!-- Node0xa762be0 -->
<g id="node8" class="node"><title>Node0xa762be0</title>
<polygon fill="none" stroke="black" points="0,-1479.5 0,-1577.5 318,-1577.5 318,-1479.5 0,-1479.5"/>
<text text-anchor="start" x="8" y="-1562.3" font-family="Times,serif" font-size="14.00">0x42002a:</text>
<text text-anchor="start" x="8" y="-1547.3" font-family="Times,serif" font-size="14.00"> v22 = v58</text>
<text text-anchor="start" x="8" y="-1532.3" font-family="Times,serif" font-size="14.00"> g10 = PtrToIntCastExpr&lt;int32&gt;(&amp;(v22))</text>
<text text-anchor="start" x="8" y="-1517.3" font-family="Times,serif" font-size="14.00"> function_419779()</text>
<text text-anchor="start" x="8" y="-1502.3" font-family="Times,serif" font-size="14.00"> v42 = g3</text>
<text text-anchor="start" x="8" y="-1487.3" font-family="Times,serif" font-size="14.00"> v41 = v42</text>
</g>
<!-- Node0xf8796b0&#45;&gt;Node0xa762be0 -->
<g id="edge7" class="edge"><title>Node0xf8796b0&#45;&gt;Node0xa762be0</title>
<path fill="none" stroke="black" d="M244.598,-1629.32C237.288,-1623.8 229.565,-1617.46 223,-1611 215.148,-1603.27 207.389,-1594.57 200.129,-1585.81"/>
<polygon fill="black" stroke="black" points="202.631,-1583.34 193.614,-1577.78 197.194,-1587.75 202.631,-1583.34"/>
<text text-anchor="middle" x="263" y="-1599.8" font-family="Times,serif" font-size="14.00">v52 != v58</text>
</g>
<!-- Node0xf872cb0 -->
<g id="node9" class="node"><title>Node0xf872cb0</title>
<polygon fill="none" stroke="black" points="336,-1510.5 336,-1546.5 426,-1546.5 426,-1510.5 336,-1510.5"/>
<text text-anchor="start" x="344" y="-1524.8" font-family="Times,serif" font-size="14.00">v41 = v40</text>
</g>
<!-- Node0xf8796b0&#45;&gt;Node0xf872cb0 -->
<g id="edge8" class="edge"><title>Node0xf8796b0&#45;&gt;Node0xf872cb0</title>
<path fill="none" stroke="black" d="M287.946,-1629.32C306.707,-1609.2 337.053,-1576.64 357.962,-1554.21"/>
<polygon fill="black" stroke="black" points="360.671,-1556.44 364.93,-1546.74 355.551,-1551.67 360.671,-1556.44"/>
<text text-anchor="middle" x="360" y="-1599.8" font-family="Times,serif" font-size="14.00">v52 == v58</text>
</g>
<!-- Node0xf872d40 -->
<g id="node10" class="node"><title>Node0xf872d40</title>
<polygon fill="none" stroke="black" points="450.5,-1502 450.5,-1555 769.5,-1555 769.5,-1502 450.5,-1502"/>
<text text-anchor="start" x="458.5" y="-1539.8" font-family="Times,serif" font-size="14.00">0x420041:</text>
<text text-anchor="start" x="458.5" y="-1524.8" font-family="Times,serif" font-size="14.00"> v7 = IntToPtrCastExpr&lt;ptr&gt;((v54 + 68))</text>
<text text-anchor="start" x="458.5" y="-1509.8" font-family="Times,serif" font-size="14.00"> v55 = *(v7)</text>
</g>
<!-- Node0xf879c40&#45;&gt;Node0xf872d40 -->
<g id="edge9" class="edge"><title>Node0xf879c40&#45;&gt;Node0xf872d40</title>
<path fill="none" stroke="black" d="M634.783,-1630.34C630.606,-1613.35 624.084,-1586.81 618.779,-1565.22"/>
<polygon fill="black" stroke="black" points="622.149,-1564.27 616.364,-1555.39 615.351,-1565.94 622.149,-1564.27"/>
<text text-anchor="middle" x="669" y="-1599.8" font-family="Times,serif" font-size="14.00">v54 != v33</text>
</g>
<!-- Node0xf87aed0 -->
<g id="node11" class="node"><title>Node0xf87aed0</title>
<polygon fill="none" stroke="black" points="389,-458.5 389,-556.5 739,-556.5 739,-458.5 389,-458.5"/>
<text text-anchor="start" x="397" y="-541.3" font-family="Times,serif" font-size="14.00">0x420078:</text>
<text text-anchor="start" x="397" y="-526.3" font-family="Times,serif" font-size="14.00"> v45 = g3</text>
<text text-anchor="start" x="397" y="-511.3" font-family="Times,serif" font-size="14.00"> *(IntToPtrCastExpr&lt;ptr&gt;((v45 + &#45;4))) = &#45;1</text>
<text text-anchor="start" x="397" y="-496.3" font-family="Times,serif" font-size="14.00"> v46 = g3</text>
<text text-anchor="start" x="397" y="-481.3" font-family="Times,serif" font-size="14.00"> v57 = *(IntToPtrCastExpr&lt;ptr&gt;((v46 + &#45;16)))</text>
<text text-anchor="start" x="397" y="-466.3" font-family="Times,serif" font-size="14.00"> v60 = g4</text>
</g>
<!-- Node0xf879c40&#45;&gt;Node0xf87aed0 -->
<g id="edge10" class="edge"><title>Node0xf879c40&#45;&gt;Node0xf87aed0</title>
<path fill="none" stroke="black" d="M701.882,-1645.18C832.263,-1638.66 1120,-1614.62 1120,-1529.5 1120,-1529.5 1120,-1529.5 1120,-695 1120,-649.324 1133.75,-625.842 1101,-594 1051.64,-546.008 884.221,-524.948 749.285,-515.71"/>
<polygon fill="black" stroke="black" points="749.429,-512.212 739.219,-515.039 748.963,-519.197 749.429,-512.212"/>
<text text-anchor="middle" x="1163" y="-1126.3" font-family="Times,serif" font-size="14.00">v54 == v33</text>
</g>
<!-- Node0xf8797e0 -->
<g id="node12" class="node"><title>Node0xf8797e0</title>
<polygon fill="none" stroke="black" points="113.5,-1388.5 113.5,-1441.5 450.5,-1441.5 450.5,-1388.5 113.5,-1388.5"/>
<text text-anchor="start" x="121.5" y="-1426.3" font-family="Times,serif" font-size="14.00">0x420033:</text>
<text text-anchor="start" x="121.5" y="-1411.3" font-family="Times,serif" font-size="14.00"> v53 = *(IntToPtrCastExpr&lt;ptr&gt;((v41 + 8)))</text>
<text text-anchor="start" x="121.5" y="-1396.3" font-family="Times,serif" font-size="14.00"> result = v53</text>
</g>
<!-- Node0xa762be0&#45;&gt;Node0xf8797e0 -->
<g id="edge11" class="edge"><title>Node0xa762be0&#45;&gt;Node0xf8797e0</title>
<path fill="none" stroke="black" d="M212.234,-1479.24C223.728,-1468.82 235.614,-1458.05 246.248,-1448.41"/>
<polygon fill="black" stroke="black" points="248.687,-1450.92 253.745,-1441.61 243.985,-1445.74 248.687,-1450.92"/>
</g>
<!-- Node0xf872cb0&#45;&gt;Node0xf8797e0 -->
<g id="edge12" class="edge"><title>Node0xf872cb0&#45;&gt;Node0xf8797e0</title>
<path fill="none" stroke="black" d="M365.531,-1510.08C351.128,-1493.86 329.275,-1469.24 311.534,-1449.26"/>
<polygon fill="black" stroke="black" points="313.969,-1446.73 304.713,-1441.58 308.735,-1451.38 313.969,-1446.73"/>
</g>
<!-- Node0xf87b230 -->
<g id="node13" class="node"><title>Node0xf87b230</title>
<polygon fill="none" stroke="black" points="481.5,-1397 481.5,-1433 612.5,-1433 612.5,-1397 481.5,-1397"/>
<text text-anchor="start" x="489.5" y="-1411.3" font-family="Times,serif" font-size="14.00">if (v55 == v33):</text>
</g>
<!-- Node0xf872d40&#45;&gt;Node0xf87b230 -->
<g id="edge13" class="edge"><title>Node0xf872d40&#45;&gt;Node0xf87b230</title>
<path fill="none" stroke="black" d="M595.547,-1501.92C585.4,-1483.96 571.876,-1460.03 561.68,-1441.98"/>
<polygon fill="black" stroke="black" points="564.653,-1440.13 556.686,-1433.14 558.558,-1443.57 564.653,-1440.13"/>
</g>
<!-- Node0xf87afc0 -->
<g id="node14" class="node"><title>Node0xf87afc0</title>
<polygon fill="none" stroke="black" points="501.5,-384.5 501.5,-420.5 626.5,-420.5 626.5,-384.5 501.5,-384.5"/>
<text text-anchor="start" x="509.5" y="-398.8" font-family="Times,serif" font-size="14.00">if (v57 != v60):</text>
</g>
<!-- Node0xf87aed0&#45;&gt;Node0xf87afc0 -->
<g id="edge14" class="edge"><title>Node0xf87aed0&#45;&gt;Node0xf87afc0</title>
<path fill="none" stroke="black" d="M564,-458.317C564,-448.893 564,-439.32 564,-430.868"/>
<polygon fill="black" stroke="black" points="567.5,-430.856 564,-420.856 560.5,-430.856 567.5,-430.856"/>
</g>
<!-- Node0xf879af0 -->
<g id="node15" class="node"><title>Node0xf879af0</title>
<polygon fill="none" stroke="black" points="270,-97.5 270,-150.5 400,-150.5 400,-97.5 270,-97.5"/>
<text text-anchor="start" x="278" y="-135.3" font-family="Times,serif" font-size="14.00">0x42008c:</text>
<text text-anchor="start" x="278" y="-120.3" font-family="Times,serif" font-size="14.00"> __EH_epilog3()</text>
<text text-anchor="start" x="278" y="-105.3" font-family="Times,serif" font-size="14.00"> return result</text>
</g>
<!-- Node0xf8797e0&#45;&gt;Node0xf879af0 -->
<g id="edge15" class="edge"><title>Node0xf8797e0&#45;&gt;Node0xf879af0</title>
<path fill="none" stroke="black" d="M282,-1388.46C282,-1369.23 282,-1342.21 282,-1318.5 282,-1318.5 282,-1318.5 282,-206.5 282,-189.029 290.666,-172.361 300.989,-158.704"/>
<polygon fill="black" stroke="black" points="303.977,-160.576 307.569,-150.609 298.545,-156.161 303.977,-160.576"/>
</g>
<!-- Node0xf87b230&#45;&gt;Node0xf87aed0 -->
<g id="edge17" class="edge"><title>Node0xf87b230&#45;&gt;Node0xf87aed0</title>
<path fill="none" stroke="black" d="M497.08,-1396.84C446.607,-1377.93 376,-1346.47 376,-1318.5 376,-1318.5 376,-1318.5 376,-695 376,-639.06 418.471,-594.164 463.04,-562.451"/>
<polygon fill="black" stroke="black" points="465.145,-565.252 471.377,-556.684 461.162,-559.495 465.145,-565.252"/>
<text text-anchor="middle" x="416" y="-1043.8" font-family="Times,serif" font-size="14.00">v55 != v33</text>
</g>
<!-- Node0xf87b320 -->
<g id="node16" class="node"><title>Node0xf87b320</title>
<polygon fill="none" stroke="black" points="486,-1298.5 486,-1336.5 608,-1336.5 608,-1298.5 486,-1298.5"/>
<text text-anchor="start" x="494" y="-1321.3" font-family="Times,serif" font-size="14.00">0x420046:</text>
<text text-anchor="start" x="494" y="-1306.3" font-family="Times,serif" font-size="14.00"> if (v34 != 31):</text>
</g>
<!-- Node0xf87b230&#45;&gt;Node0xf87b320 -->
<g id="edge16" class="edge"><title>Node0xf87b230&#45;&gt;Node0xf87b320</title>
<path fill="none" stroke="black" d="M547,-1396.93C547,-1383.02 547,-1363.09 547,-1346.8"/>
<polygon fill="black" stroke="black" points="550.5,-1346.73 547,-1336.73 543.5,-1346.73 550.5,-1346.73"/>
<text text-anchor="middle" x="590" y="-1358.8" font-family="Times,serif" font-size="14.00">v55 == v33</text>
</g>
<!-- Node0xf87ac40 -->
<g id="node17" class="node"><title>Node0xf87ac40</title>
<polygon fill="none" stroke="black" points="310,-264.5 310,-332.5 628,-332.5 628,-264.5 310,-264.5"/>
<text text-anchor="start" x="318" y="-317.3" font-family="Times,serif" font-size="14.00">0x420081:</text>
<text text-anchor="start" x="318" y="-302.3" font-family="Times,serif" font-size="14.00"> v22 = v60</text>
<text text-anchor="start" x="318" y="-287.3" font-family="Times,serif" font-size="14.00"> g10 = PtrToIntCastExpr&lt;int32&gt;(&amp;(v22))</text>
<text text-anchor="start" x="318" y="-272.3" font-family="Times,serif" font-size="14.00"> function_419779()</text>
</g>
<!-- Node0xf87afc0&#45;&gt;Node0xf87ac40 -->
<g id="edge18" class="edge"><title>Node0xf87afc0&#45;&gt;Node0xf87ac40</title>
<path fill="none" stroke="black" d="M547.885,-384.197C536.602,-372.083 521.044,-355.379 506.725,-340.005"/>
<polygon fill="black" stroke="black" points="509.196,-337.522 499.819,-332.59 504.074,-342.293 509.196,-337.522"/>
<text text-anchor="middle" x="571" y="-354.8" font-family="Times,serif" font-size="14.00">v57 != v60</text>
</g>
<!-- Node0xf87b1d0 -->
<g id="node18" class="node"><title>Node0xf87b1d0</title>
<polygon fill="none" stroke="black" points="422.5,-188.5 422.5,-226.5 515.5,-226.5 515.5,-188.5 422.5,-188.5"/>
<text text-anchor="start" x="430.5" y="-211.3" font-family="Times,serif" font-size="14.00">0x42008a:</text>
<text text-anchor="start" x="430.5" y="-196.3" font-family="Times,serif" font-size="14.00"> result = 0</text>
</g>
<!-- Node0xf87afc0&#45;&gt;Node0xf87b1d0 -->
<g id="edge19" class="edge"><title>Node0xf87afc0&#45;&gt;Node0xf87b1d0</title>
<path fill="none" stroke="black" d="M592.479,-384.46C600.252,-379.094 608.355,-372.78 615,-366 647.462,-332.88 664.167,-301.586 637,-264 611.81,-229.15 563.933,-215.818 525.713,-210.892"/>
<polygon fill="black" stroke="black" points="526.051,-207.408 515.721,-209.763 525.265,-214.364 526.051,-207.408"/>
<text text-anchor="middle" x="693" y="-294.8" font-family="Times,serif" font-size="14.00">v57 == v60</text>
</g>
<!-- Node0xf877cb0 -->
<g id="node19" class="node"><title>Node0xf877cb0</title>
<polygon fill="none" stroke="black" points="308,-23.5 308,-59.5 362,-59.5 362,-23.5 308,-23.5"/>
<text text-anchor="start" x="316" y="-37.8" font-family="Times,serif" font-size="14.00">exit:</text>
</g>
<!-- Node0xf879af0&#45;&gt;Node0xf877cb0 -->
<g id="edge20" class="edge"><title>Node0xf879af0&#45;&gt;Node0xf877cb0</title>
<path fill="none" stroke="black" d="M335,-97.0862C335,-88.4596 335,-78.8224 335,-70.0748"/>
<polygon fill="black" stroke="black" points="338.5,-69.9735 335,-59.9735 331.5,-69.9735 338.5,-69.9735"/>
</g>
<!-- Node0xf87b320&#45;&gt;Node0xf87aed0 -->
<g id="edge22" class="edge"><title>Node0xf87b320&#45;&gt;Node0xf87aed0</title>
<path fill="none" stroke="black" d="M523.541,-1298.23C505.629,-1282.05 484,-1256.68 484,-1228.5 484,-1228.5 484,-1228.5 484,-695 484,-648.861 489.753,-636.378 508,-594 512.148,-584.367 517.366,-574.623 522.939,-565.335"/>
<polygon fill="black" stroke="black" points="526.068,-566.93 528.367,-556.587 520.12,-563.239 526.068,-566.93"/>
</g>
<!-- Node0xf87b8f0 -->
<g id="node20" class="node"><title>Node0xf87b8f0</title>
<polygon fill="none" stroke="black" points="512,-1208.5 512,-1246.5 634,-1246.5 634,-1208.5 512,-1208.5"/>
<text text-anchor="start" x="520" y="-1231.3" font-family="Times,serif" font-size="14.00">0x42004b:</text>
<text text-anchor="start" x="520" y="-1216.3" font-family="Times,serif" font-size="14.00"> if (v34 != 30):</text>
</g>
<!-- Node0xf87b320&#45;&gt;Node0xf87b8f0 -->
<g id="edge21" class="edge"><title>Node0xf87b320&#45;&gt;Node0xf87b8f0</title>
<path fill="none" stroke="black" d="M552.387,-1298.27C555.943,-1286.23 560.672,-1270.22 564.704,-1256.58"/>
<polygon fill="black" stroke="black" points="568.143,-1257.29 567.62,-1246.71 561.43,-1255.31 568.143,-1257.29"/>
<text text-anchor="middle" x="598" y="-1268.8" font-family="Times,serif" font-size="14.00">v34 != 31</text>
</g>
<!-- Node0xf87ac40&#45;&gt;Node0xf87b1d0 -->
<g id="edge23" class="edge"><title>Node0xf87ac40&#45;&gt;Node0xf87b1d0</title>
<path fill="none" stroke="black" d="M469,-264.36C469,-255.365 469,-245.707 469,-236.993"/>
<polygon fill="black" stroke="black" points="472.5,-236.941 469,-226.941 465.5,-236.941 472.5,-236.941"/>
</g>
<!-- Node0xf87b1d0&#45;&gt;Node0xf879af0 -->
<g id="edge24" class="edge"><title>Node0xf87b1d0&#45;&gt;Node0xf879af0</title>
<path fill="none" stroke="black" d="M439.261,-188.413C423.557,-178.861 403.849,-166.874 385.807,-155.901"/>
<polygon fill="black" stroke="black" points="387.471,-152.817 377.108,-150.611 383.833,-158.797 387.471,-152.817"/>
</g>
<!-- Node0xf87b8f0&#45;&gt;Node0xf87aed0 -->
<g id="edge26" class="edge"><title>Node0xf87b8f0&#45;&gt;Node0xf87aed0</title>
<path fill="none" stroke="black" d="M556.301,-1208.29C541.427,-1190.12 522,-1160.7 522,-1131 522,-1131 522,-1131 522,-695 522,-651.163 533.18,-602.915 544.004,-566.476"/>
<polygon fill="black" stroke="black" points="547.47,-567.112 547.038,-556.526 540.774,-565.07 547.47,-567.112"/>
</g>
<!-- Node0xf87ba50 -->
<g id="node21" class="node"><title>Node0xf87ba50</title>
<polygon fill="none" stroke="black" points="550,-1103.5 550,-1156.5 896,-1156.5 896,-1103.5 550,-1103.5"/>
<text text-anchor="start" x="558" y="-1141.3" font-family="Times,serif" font-size="14.00">0x420050:</text>
<text text-anchor="start" x="558" y="-1126.3" font-family="Times,serif" font-size="14.00"> v44 = g3</text>
<text text-anchor="start" x="558" y="-1111.3" font-family="Times,serif" font-size="14.00"> v59 = *(IntToPtrCastExpr&lt;ptr&gt;((v44 + 12)))</text>
</g>
<!-- Node0xf87b8f0&#45;&gt;Node0xf87ba50 -->
<g id="edge25" class="edge"><title>Node0xf87b8f0&#45;&gt;Node0xf87ba50</title>
<path fill="none" stroke="black" d="M601.567,-1208.31C622.083,-1195.25 650.242,-1177.32 674.278,-1162.02"/>
<polygon fill="black" stroke="black" points="676.369,-1164.84 682.925,-1156.51 672.61,-1158.93 676.369,-1164.84"/>
<text text-anchor="middle" x="688" y="-1178.8" font-family="Times,serif" font-size="14.00">v34 != 30</text>
</g>
<!-- Node0xf87bbd0 -->
<g id="node22" class="node"><title>Node0xf87bbd0</title>
<polygon fill="none" stroke="black" points="601,-1029.5 601,-1065.5 709,-1065.5 709,-1029.5 601,-1029.5"/>
<text text-anchor="start" x="609" y="-1043.8" font-family="Times,serif" font-size="14.00">if (v59 != 3):</text>
</g>
<!-- Node0xf87ba50&#45;&gt;Node0xf87bbd0 -->
<g id="edge27" class="edge"><title>Node0xf87ba50&#45;&gt;Node0xf87bbd0</title>
<path fill="none" stroke="black" d="M701.11,-1103.09C693.182,-1093.7 684.244,-1083.12 676.363,-1073.79"/>
<polygon fill="black" stroke="black" points="678.887,-1071.35 669.76,-1065.97 673.54,-1075.87 678.887,-1071.35"/>
</g>
<!-- Node0xf87bbd0&#45;&gt;Node0xf87aed0 -->
<g id="edge29" class="edge"><title>Node0xf87bbd0&#45;&gt;Node0xf87aed0</title>
<path fill="none" stroke="black" d="M616.086,-1029.46C589.85,-1015.04 560,-991.593 560,-959.5 560,-959.5 560,-959.5 560,-695 560,-652.076 561.072,-603.608 562.106,-566.842"/>
<polygon fill="black" stroke="black" points="565.606,-566.893 562.396,-556.796 558.609,-566.691 565.606,-566.893"/>
</g>
<!-- Node0xf87bd80 -->
<g id="node23" class="node"><title>Node0xf87bd80</title>
<polygon fill="none" stroke="black" points="598.5,-939.5 598.5,-977.5 711.5,-977.5 711.5,-939.5 598.5,-939.5"/>
<text text-anchor="start" x="606.5" y="-962.3" font-family="Times,serif" font-size="14.00">0x420056:</text>
<text text-anchor="start" x="606.5" y="-947.3" font-family="Times,serif" font-size="14.00"> if (v34 != 2):</text>
</g>
<!-- Node0xf87bbd0&#45;&gt;Node0xf87bd80 -->
<g id="edge28" class="edge"><title>Node0xf87bbd0&#45;&gt;Node0xf87bd80</title>
<path fill="none" stroke="black" d="M655,-1029.31C655,-1017.51 655,-1001.57 655,-987.904"/>
<polygon fill="black" stroke="black" points="658.5,-987.551 655,-977.551 651.5,-987.551 658.5,-987.551"/>
<text text-anchor="middle" x="686.5" y="-999.8" font-family="Times,serif" font-size="14.00">v59 != 3</text>
</g>
<!-- Node0xf87bd80&#45;&gt;Node0xf87aed0 -->
<g id="edge31" class="edge"><title>Node0xf87bd80&#45;&gt;Node0xf87aed0</title>
<path fill="none" stroke="black" d="M643.094,-939.41C634.731,-925.823 624.003,-906.459 618,-888 574.553,-754.409 594.223,-714.016 574,-575 573.612,-572.33 573.212,-569.6 572.806,-566.843"/>
<polygon fill="black" stroke="black" points="576.246,-566.178 571.319,-556.799 569.321,-567.204 576.246,-566.178"/>
</g>
<!-- Node0xf87bee0 -->
<g id="node24" class="node"><title>Node0xf87bee0</title>
<polygon fill="none" stroke="black" points="626.5,-849.5 626.5,-887.5 739.5,-887.5 739.5,-849.5 626.5,-849.5"/>
<text text-anchor="start" x="634.5" y="-872.3" font-family="Times,serif" font-size="14.00">0x42005b:</text>
<text text-anchor="start" x="634.5" y="-857.3" font-family="Times,serif" font-size="14.00"> if (v34 != 3):</text>
</g>
<!-- Node0xf87bd80&#45;&gt;Node0xf87bee0 -->
<g id="edge30" class="edge"><title>Node0xf87bd80&#45;&gt;Node0xf87bee0</title>
<path fill="none" stroke="black" d="M660.802,-939.266C664.631,-927.231 669.724,-911.225 674.066,-897.58"/>
<polygon fill="black" stroke="black" points="677.509,-898.301 677.206,-887.71 670.838,-896.178 677.509,-898.301"/>
<text text-anchor="middle" x="701.5" y="-909.8" font-family="Times,serif" font-size="14.00">v34 != 2</text>
</g>
<!-- Node0xf87bee0&#45;&gt;Node0xf87aed0 -->
<g id="edge33" class="edge"><title>Node0xf87bee0&#45;&gt;Node0xf87aed0</title>
<path fill="none" stroke="black" d="M674.88,-849.221C668.983,-835.379 661.163,-815.776 656,-798 627.822,-700.987 652.269,-667.649 612,-575 610.625,-571.835 609.079,-568.674 607.409,-565.544"/>
<polygon fill="black" stroke="black" points="610.419,-563.758 602.406,-556.826 604.348,-567.242 610.419,-563.758"/>
</g>
<!-- Node0xf87c350 -->
<g id="node25" class="node"><title>Node0xf87c350</title>
<polygon fill="none" stroke="black" points="664.5,-594.5 664.5,-797.5 1091.5,-797.5 1091.5,-594.5 664.5,-594.5"/>
<text text-anchor="start" x="672.5" y="-782.3" font-family="Times,serif" font-size="14.00">0x420060:</text>
<text text-anchor="start" x="672.5" y="-767.3" font-family="Times,serif" font-size="14.00"> g5 = v54</text>
<text text-anchor="start" x="672.5" y="-752.3" font-family="Times,serif" font-size="14.00"> *(v7) = 1</text>
<text text-anchor="start" x="672.5" y="-737.3" font-family="Times,serif" font-size="14.00"> v2 = v19</text>
<text text-anchor="start" x="672.5" y="-722.3" font-family="Times,serif" font-size="14.00"> v3 = v16</text>
<text text-anchor="start" x="672.5" y="-707.3" font-family="Times,serif" font-size="14.00"> function_41fcee(v2, v50, v3, IntToPtrCastExpr&lt;ptr&gt;(6))</text>
<text text-anchor="start" x="672.5" y="-692.3" font-family="Times,serif" font-size="14.00"> v31 = g9</text>
<text text-anchor="start" x="672.5" y="-677.3" font-family="Times,serif" font-size="14.00"> v35 = *(IntToPtrCastExpr&lt;ptr&gt;(v31))</text>
<text text-anchor="start" x="672.5" y="-662.3" font-family="Times,serif" font-size="14.00"> g5 = v31</text>
<text text-anchor="start" x="672.5" y="-647.3" font-family="Times,serif" font-size="14.00"> v56 = g4</text>
<text text-anchor="start" x="672.5" y="-632.3" font-family="Times,serif" font-size="14.00"> *(IntToPtrCastExpr&lt;ptr&gt;((v31 + 68))) = v56</text>
<text text-anchor="start" x="672.5" y="-617.3" font-family="Times,serif" font-size="14.00"> v61 = *(IntToPtrCastExpr&lt;ptr&gt;((v35 + 16)))</text>
<text text-anchor="start" x="672.5" y="-602.3" font-family="Times,serif" font-size="14.00"> IntToPtrCastExpr&lt;ptr&gt;(v61)()</text>
</g>
<!-- Node0xf87bee0&#45;&gt;Node0xf87c350 -->
<g id="edge32" class="edge"><title>Node0xf87bee0&#45;&gt;Node0xf87c350</title>
<path fill="none" stroke="black" d="M703.868,-849.254C717.111,-837.675 735.448,-821.641 755.28,-804.301"/>
<polygon fill="black" stroke="black" points="757.723,-806.815 762.947,-797.598 753.115,-801.545 757.723,-806.815"/>
<text text-anchor="middle" x="771.5" y="-819.8" font-family="Times,serif" font-size="14.00">v34 != 3</text>
</g>
<!-- Node0xf87c350&#45;&gt;Node0xf87aed0 -->
<g id="edge34" class="edge"><title>Node0xf87c350&#45;&gt;Node0xf87aed0</title>
<path fill="none" stroke="black" d="M708.593,-594.381C689.723,-583.173 671.093,-572.108 653.804,-561.839"/>
<polygon fill="black" stroke="black" points="655.276,-558.642 644.891,-556.545 651.701,-564.661 655.276,-558.642"/>
</g>
</g>
</svg>
