<?xml version="1.0" encoding="UTF-8" standalone="no"?>
<!DOCTYPE svg PUBLIC "-//W3C//DTD SVG 1.1//EN"
 "http://www.w3.org/Graphics/SVG/1.1/DTD/svg11.dtd">
<!-- Generated by graphviz version 2.38.0 (20140413.2041)
 -->
<!-- Title: Control&#45;flow graph for function &#39;function_41896a(*a1, a2, *a3)&#39;. Pages: 1 -->
<svg width="1000pt" height="1744pt"
 viewBox="0.00 0.00 1000.00 1744.00" xmlns="http://www.w3.org/2000/svg" xmlns:xlink="http://www.w3.org/1999/xlink">
<g id="graph0" class="graph" transform="scale(1 1) rotate(0) translate(4 1740)">
<title>Control&#45;flow graph for function &#39;function_41896a(*a1, a2, *a3)&#39;.</title>
<polygon fill="white" stroke="none" points="-4,4 -4,-1740 996,-1740 996,4 -4,4"/>
<text text-anchor="middle" x="496" y="-7.8" font-family="Times,serif" font-size="14.00">Control&#45;flow graph for function &#39;function_41896a(*a1, a2, *a3)&#39;.</text>
<!-- Node0xf54e550 -->
<g id="node1" class="node"><title>Node0xf54e550</title>
<polygon fill="none" stroke="black" points="507.5,-1667.5 507.5,-1735.5 566.5,-1735.5 566.5,-1667.5 507.5,-1667.5"/>
<text text-anchor="start" x="515.5" y="-1720.3" font-family="Times,serif" font-size="14.00">entry:</text>
<text text-anchor="start" x="515.5" y="-1705.3" font-family="Times,serif" font-size="14.00"> a1</text>
<text text-anchor="start" x="515.5" y="-1690.3" font-family="Times,serif" font-size="14.00"> a2</text>
<text text-anchor="start" x="515.5" y="-1675.3" font-family="Times,serif" font-size="14.00"> a3</text>
</g>
<!-- Node0xf550c70 -->
<g id="node2" class="node"><title>Node0xf550c70</title>
<polygon fill="none" stroke="black" points="387,-1126.5 387,-1629.5 687,-1629.5 687,-1126.5 387,-1126.5"/>
<text text-anchor="start" x="395" y="-1614.3" font-family="Times,serif" font-size="14.00">v1</text>
<text text-anchor="start" x="395" y="-1599.3" font-family="Times,serif" font-size="14.00"> v2</text>
<text text-anchor="start" x="395" y="-1584.3" font-family="Times,serif" font-size="14.00"> v3</text>
<text text-anchor="start" x="395" y="-1569.3" font-family="Times,serif" font-size="14.00"> v4</text>
<text text-anchor="start" x="395" y="-1554.3" font-family="Times,serif" font-size="14.00"> v5</text>
<text text-anchor="start" x="395" y="-1539.3" font-family="Times,serif" font-size="14.00"> v6</text>
<text text-anchor="start" x="395" y="-1524.3" font-family="Times,serif" font-size="14.00"> v7</text>
<text text-anchor="start" x="395" y="-1509.3" font-family="Times,serif" font-size="14.00"> v8</text>
<text text-anchor="start" x="395" y="-1494.3" font-family="Times,serif" font-size="14.00"> v9</text>
<text text-anchor="start" x="395" y="-1479.3" font-family="Times,serif" font-size="14.00"> v10</text>
<text text-anchor="start" x="395" y="-1464.3" font-family="Times,serif" font-size="14.00"> v11</text>
<text text-anchor="start" x="395" y="-1449.3" font-family="Times,serif" font-size="14.00"> v12</text>
<text text-anchor="start" x="395" y="-1434.3" font-family="Times,serif" font-size="14.00"> v13</text>
<text text-anchor="start" x="395" y="-1419.3" font-family="Times,serif" font-size="14.00"> v14</text>
<text text-anchor="start" x="395" y="-1404.3" font-family="Times,serif" font-size="14.00"> v15</text>
<text text-anchor="start" x="395" y="-1389.3" font-family="Times,serif" font-size="14.00"> v16</text>
<text text-anchor="start" x="395" y="-1374.3" font-family="Times,serif" font-size="14.00"> result</text>
<text text-anchor="start" x="395" y="-1359.3" font-family="Times,serif" font-size="14.00"> v17</text>
<text text-anchor="start" x="395" y="-1344.3" font-family="Times,serif" font-size="14.00"> v18</text>
<text text-anchor="start" x="395" y="-1329.3" font-family="Times,serif" font-size="14.00"> v19</text>
<text text-anchor="start" x="395" y="-1314.3" font-family="Times,serif" font-size="14.00"> v20</text>
<text text-anchor="start" x="395" y="-1299.3" font-family="Times,serif" font-size="14.00"> v21</text>
<text text-anchor="start" x="395" y="-1284.3" font-family="Times,serif" font-size="14.00"> v22</text>
<text text-anchor="start" x="395" y="-1269.3" font-family="Times,serif" font-size="14.00"> v23</text>
<text text-anchor="start" x="395" y="-1254.3" font-family="Times,serif" font-size="14.00"> v5 = v6</text>
<text text-anchor="start" x="395" y="-1239.3" font-family="Times,serif" font-size="14.00"> v8 = v9</text>
<text text-anchor="start" x="395" y="-1224.3" font-family="Times,serif" font-size="14.00"> v13 = v14</text>
<text text-anchor="start" x="395" y="-1209.3" font-family="Times,serif" font-size="14.00"> v13 = a1</text>
<text text-anchor="start" x="395" y="-1194.3" font-family="Times,serif" font-size="14.00"> g3 = PtrToIntCastExpr&lt;int32&gt;(&amp;(v8))</text>
<text text-anchor="start" x="395" y="-1179.3" font-family="Times,serif" font-size="14.00"> v17 = g9</text>
<text text-anchor="start" x="395" y="-1164.3" font-family="Times,serif" font-size="14.00"> v10 = v17</text>
<text text-anchor="start" x="395" y="-1149.3" font-family="Times,serif" font-size="14.00"> v23 = PtrToIntCastExpr&lt;int32&gt;(a3)</text>
<text text-anchor="start" x="395" y="-1134.3" font-family="Times,serif" font-size="14.00"> g9 = v23</text>
</g>
<!-- Node0xf54e550&#45;&gt;Node0xf550c70 -->
<g id="edge1" class="edge"><title>Node0xf54e550&#45;&gt;Node0xf550c70</title>
<path fill="none" stroke="black" d="M537,-1667.3C537,-1659.22 537,-1649.93 537,-1639.76"/>
<polygon fill="black" stroke="black" points="540.5,-1639.74 537,-1629.74 533.5,-1639.75 540.5,-1639.74"/>
</g>
<!-- Node0xf54f8e0 -->
<g id="node3" class="node"><title>Node0xf54f8e0</title>
<polygon fill="none" stroke="black" points="470,-1052.5 470,-1088.5 604,-1088.5 604,-1052.5 470,-1052.5"/>
<text text-anchor="start" x="478" y="-1066.8" font-family="Times,serif" font-size="14.00">if (a1 != NULL):</text>
</g>
<!-- Node0xf550c70&#45;&gt;Node0xf54f8e0 -->
<g id="edge2" class="edge"><title>Node0xf550c70&#45;&gt;Node0xf54f8e0</title>
<path fill="none" stroke="black" d="M537,-1126.47C537,-1116.08 537,-1106.73 537,-1098.81"/>
<polygon fill="black" stroke="black" points="540.5,-1098.61 537,-1088.61 533.5,-1098.61 540.5,-1098.61"/>
</g>
<!-- Node0xf551a60 -->
<g id="node4" class="node"><title>Node0xf551a60</title>
<polygon fill="none" stroke="black" points="391,-947.5 391,-985.5 501,-985.5 501,-947.5 391,-947.5"/>
<text text-anchor="start" x="399" y="-970.3" font-family="Times,serif" font-size="14.00">0x418977:</text>
<text text-anchor="start" x="399" y="-955.3" font-family="Times,serif" font-size="14.00"> if (a2 &gt;= 0):</text>
</g>
<!-- Node0xf54f8e0&#45;&gt;Node0xf551a60 -->
<g id="edge3" class="edge"><title>Node0xf54f8e0&#45;&gt;Node0xf551a60</title>
<path fill="none" stroke="black" d="M498.128,-1052.33C489.738,-1047.31 481.459,-1041.2 475,-1034 465.18,-1023.05 458.285,-1008.25 453.689,-995.394"/>
<polygon fill="black" stroke="black" points="456.923,-994.024 450.484,-985.61 450.271,-996.203 456.923,-994.024"/>
<text text-anchor="middle" x="519" y="-1022.8" font-family="Times,serif" font-size="14.00">a1 != NULL</text>
</g>
<!-- Node0xf550dc0 -->
<g id="node5" class="node"><title>Node0xf550dc0</title>
<polygon fill="none" stroke="black" points="533.5,-932.5 533.5,-1000.5 696.5,-1000.5 696.5,-932.5 533.5,-932.5"/>
<text text-anchor="start" x="541.5" y="-985.3" font-family="Times,serif" font-size="14.00">0x418993:</text>
<text text-anchor="start" x="541.5" y="-970.3" font-family="Times,serif" font-size="14.00"> v18 = v23</text>
<text text-anchor="start" x="541.5" y="-955.3" font-family="Times,serif" font-size="14.00"> v16 = &#45;2147024809</text>
<text text-anchor="start" x="541.5" y="-940.3" font-family="Times,serif" font-size="14.00"> v21 = v4</text>
</g>
<!-- Node0xf54f8e0&#45;&gt;Node0xf550dc0 -->
<g id="edge4" class="edge"><title>Node0xf54f8e0&#45;&gt;Node0xf550dc0</title>
<path fill="none" stroke="black" d="M551.918,-1052.38C556.818,-1046.62 562.23,-1040.1 567,-1034 573.247,-1026.01 579.735,-1017.31 585.846,-1008.92"/>
<polygon fill="black" stroke="black" points="588.786,-1010.83 591.808,-1000.68 583.113,-1006.73 588.786,-1010.83"/>
<text text-anchor="middle" x="624" y="-1022.8" font-family="Times,serif" font-size="14.00">a1 == NULL</text>
</g>
<!-- Node0xf552390 -->
<g id="node6" class="node"><title>Node0xf552390</title>
<polygon fill="none" stroke="black" points="86,-820 86,-873 346,-873 346,-820 86,-820"/>
<text text-anchor="start" x="94" y="-857.8" font-family="Times,serif" font-size="14.00">0x418993:</text>
<text text-anchor="start" x="94" y="-842.8" font-family="Times,serif" font-size="14.00"> v5 = a1</text>
<text text-anchor="start" x="94" y="-827.8" font-family="Times,serif" font-size="14.00"> v2 = function_418924(a1, a2, a3)</text>
</g>
<!-- Node0xf551a60&#45;&gt;Node0xf552390 -->
<g id="edge5" class="edge"><title>Node0xf551a60&#45;&gt;Node0xf552390</title>
<path fill="none" stroke="black" d="M410.818,-947.45C374.75,-928.946 318.014,-899.838 275.052,-877.796"/>
<polygon fill="black" stroke="black" points="276.6,-874.657 266.105,-873.206 273.405,-880.885 276.6,-874.657"/>
<text text-anchor="middle" x="375" y="-902.8" font-family="Times,serif" font-size="14.00">a2 &gt;= 0</text>
</g>
<!-- Node0xf551c80 -->
<g id="node7" class="node"><title>Node0xf551c80</title>
<polygon fill="none" stroke="black" points="364.5,-812.5 364.5,-880.5 527.5,-880.5 527.5,-812.5 364.5,-812.5"/>
<text text-anchor="start" x="372.5" y="-865.3" font-family="Times,serif" font-size="14.00">0x418993:</text>
<text text-anchor="start" x="372.5" y="-850.3" font-family="Times,serif" font-size="14.00"> v18 = v23</text>
<text text-anchor="start" x="372.5" y="-835.3" font-family="Times,serif" font-size="14.00"> v16 = &#45;2147024809</text>
<text text-anchor="start" x="372.5" y="-820.3" font-family="Times,serif" font-size="14.00"> v21 = v4</text>
</g>
<!-- Node0xf551a60&#45;&gt;Node0xf551c80 -->
<g id="edge6" class="edge"><title>Node0xf551a60&#45;&gt;Node0xf551c80</title>
<path fill="none" stroke="black" d="M446,-947.321C446,-932.306 446,-910.372 446,-890.887"/>
<polygon fill="black" stroke="black" points="449.5,-890.673 446,-880.673 442.5,-890.673 449.5,-890.673"/>
<text text-anchor="middle" x="470" y="-902.8" font-family="Times,serif" font-size="14.00">a2 &lt; 0</text>
</g>
<!-- Node0xf550f00 -->
<g id="node8" class="node"><title>Node0xf550f00</title>
<polygon fill="none" stroke="black" points="599.5,-820 599.5,-873 712.5,-873 712.5,-820 599.5,-820"/>
<text text-anchor="start" x="607.5" y="-857.8" font-family="Times,serif" font-size="14.00">0x418997:</text>
<text text-anchor="start" x="607.5" y="-842.8" font-family="Times,serif" font-size="14.00"> if (v18 != 0):</text>
<text text-anchor="start" x="607.5" y="-827.8" font-family="Times,serif" font-size="14.00"> else:</text>
</g>
<!-- Node0xf550dc0&#45;&gt;Node0xf550f00 -->
<g id="edge7" class="edge"><title>Node0xf550dc0&#45;&gt;Node0xf550f00</title>
<path fill="none" stroke="black" d="M626.53,-932.316C631.853,-916.995 638.182,-898.78 643.608,-883.165"/>
<polygon fill="black" stroke="black" points="647.047,-883.93 647.023,-873.335 640.435,-881.632 647.047,-883.93"/>
</g>
<!-- Node0xf552410 -->
<g id="node9" class="node"><title>Node0xf552410</title>
<polygon fill="none" stroke="black" points="167,-708.5 167,-744.5 265,-744.5 265,-708.5 167,-708.5"/>
<text text-anchor="start" x="175" y="-722.8" font-family="Times,serif" font-size="14.00">if (v2 &gt; &#45;1):</text>
</g>
<!-- Node0xf552390&#45;&gt;Node0xf552410 -->
<g id="edge8" class="edge"><title>Node0xf552390&#45;&gt;Node0xf552410</title>
<path fill="none" stroke="black" d="M216,-819.896C216,-800.679 216,-774.415 216,-754.8"/>
<polygon fill="black" stroke="black" points="219.5,-754.674 216,-744.674 212.5,-754.674 219.5,-754.674"/>
</g>
<!-- Node0xf550e70 -->
<g id="node10" class="node"><title>Node0xf550e70</title>
<polygon fill="none" stroke="black" points="385.5,-700 385.5,-753 498.5,-753 498.5,-700 385.5,-700"/>
<text text-anchor="start" x="393.5" y="-737.8" font-family="Times,serif" font-size="14.00">0x418997:</text>
<text text-anchor="start" x="393.5" y="-722.8" font-family="Times,serif" font-size="14.00"> if (v18 != 0):</text>
<text text-anchor="start" x="393.5" y="-707.8" font-family="Times,serif" font-size="14.00"> else:</text>
</g>
<!-- Node0xf551c80&#45;&gt;Node0xf550e70 -->
<g id="edge9" class="edge"><title>Node0xf551c80&#45;&gt;Node0xf550e70</title>
<path fill="none" stroke="black" d="M444.875,-812.316C444.361,-797.141 443.75,-779.127 443.224,-763.612"/>
<polygon fill="black" stroke="black" points="446.713,-763.211 442.876,-753.335 439.717,-763.448 446.713,-763.211"/>
</g>
<!-- Node0xf5512f0 -->
<g id="node11" class="node"><title>Node0xf5512f0</title>
<polygon fill="none" stroke="black" points="516.5,-692.5 516.5,-760.5 795.5,-760.5 795.5,-692.5 516.5,-692.5"/>
<text text-anchor="start" x="524.5" y="-745.3" font-family="Times,serif" font-size="14.00">0x41899b:</text>
<text text-anchor="start" x="524.5" y="-730.3" font-family="Times,serif" font-size="14.00"> *(IntToPtrCastExpr&lt;ptr&gt;(v18)) = 0</text>
<text text-anchor="start" x="524.5" y="-715.3" font-family="Times,serif" font-size="14.00"> result = v16</text>
<text text-anchor="start" x="524.5" y="-700.3" font-family="Times,serif" font-size="14.00"> v22 = v21</text>
</g>
<!-- Node0xf550f00&#45;&gt;Node0xf5512f0 -->
<g id="edge10" class="edge"><title>Node0xf550f00&#45;&gt;Node0xf5512f0</title>
<path fill="none" stroke="black" d="M656,-819.896C656,-805.526 656,-787.215 656,-770.69"/>
<polygon fill="black" stroke="black" points="659.5,-770.684 656,-760.684 652.5,-770.684 659.5,-770.684"/>
<text text-anchor="middle" x="687.5" y="-782.8" font-family="Times,serif" font-size="14.00">v18 != 0</text>
</g>
<!-- Node0xf5522f0 -->
<g id="node12" class="node"><title>Node0xf5522f0</title>
<polygon fill="none" stroke="black" points="814,-707.5 814,-745.5 920,-745.5 920,-707.5 814,-707.5"/>
<text text-anchor="start" x="822" y="-730.3" font-family="Times,serif" font-size="14.00">result = v16</text>
<text text-anchor="start" x="822" y="-715.3" font-family="Times,serif" font-size="14.00"> v22 = v21</text>
</g>
<!-- Node0xf550f00&#45;&gt;Node0xf5522f0 -->
<g id="edge11" class="edge"><title>Node0xf550f00&#45;&gt;Node0xf5522f0</title>
<path fill="none" stroke="black" d="M701.784,-819.896C738.612,-799.3 789.915,-770.609 825.543,-750.685"/>
<polygon fill="black" stroke="black" points="827.677,-753.501 834.697,-745.565 824.261,-747.391 827.677,-753.501"/>
<text text-anchor="middle" x="808.5" y="-782.8" font-family="Times,serif" font-size="14.00">v18 == 0</text>
</g>
<!-- Node0xf552ca0 -->
<g id="node13" class="node"><title>Node0xf552ca0</title>
<polygon fill="none" stroke="black" points="0,-440.5 0,-538.5 286,-538.5 286,-440.5 0,-440.5"/>
<text text-anchor="start" x="8" y="-523.3" font-family="Times,serif" font-size="14.00">result = v2</text>
<text text-anchor="start" x="8" y="-508.3" font-family="Times,serif" font-size="14.00"> v22 = a2</text>
<text text-anchor="start" x="8" y="-493.3" font-family="Times,serif" font-size="14.00"> v20 = v5</text>
<text text-anchor="start" x="8" y="-478.3" font-family="Times,serif" font-size="14.00"> g9 = PtrToIntCastExpr&lt;int32&gt;(v20)</text>
<text text-anchor="start" x="8" y="-463.3" font-family="Times,serif" font-size="14.00"> g3 = v22</text>
<text text-anchor="start" x="8" y="-448.3" font-family="Times,serif" font-size="14.00"> return result</text>
</g>
<!-- Node0xf552410&#45;&gt;Node0xf552ca0 -->
<g id="edge12" class="edge"><title>Node0xf552410&#45;&gt;Node0xf552ca0</title>
<path fill="none" stroke="black" d="M191.433,-708.474C180.53,-699.534 168.676,-687.608 162,-674 142.979,-635.233 138.724,-586.403 138.956,-548.862"/>
<polygon fill="black" stroke="black" points="142.46,-548.649 139.132,-538.591 135.461,-548.529 142.46,-548.649"/>
<text text-anchor="middle" x="188" y="-662.8" font-family="Times,serif" font-size="14.00">v2 &gt; &#45;1</text>
</g>
<!-- Node0x8e098d0 -->
<g id="node14" class="node"><title>Node0x8e098d0</title>
<polygon fill="none" stroke="black" points="171.5,-557.5 171.5,-640.5 266.5,-640.5 266.5,-557.5 171.5,-557.5"/>
<text text-anchor="start" x="179.5" y="-625.3" font-family="Times,serif" font-size="14.00">0x418993:</text>
<text text-anchor="start" x="179.5" y="-610.3" font-family="Times,serif" font-size="14.00"> v19 = g9</text>
<text text-anchor="start" x="179.5" y="-595.3" font-family="Times,serif" font-size="14.00"> v18 = v19</text>
<text text-anchor="start" x="179.5" y="-580.3" font-family="Times,serif" font-size="14.00"> v16 = v2</text>
<text text-anchor="start" x="179.5" y="-565.3" font-family="Times,serif" font-size="14.00"> v21 = a2</text>
</g>
<!-- Node0xf552410&#45;&gt;Node0x8e098d0 -->
<g id="edge13" class="edge"><title>Node0xf552410&#45;&gt;Node0x8e098d0</title>
<path fill="none" stroke="black" d="M216.411,-708.313C216.765,-693.496 217.295,-671.326 217.783,-650.896"/>
<polygon fill="black" stroke="black" points="221.286,-650.815 218.026,-640.734 214.288,-650.648 221.286,-650.815"/>
<text text-anchor="middle" x="250" y="-662.8" font-family="Times,serif" font-size="14.00">v2 &lt;= &#45;1</text>
</g>
<!-- Node0xf552780 -->
<g id="node15" class="node"><title>Node0xf552780</title>
<polygon fill="none" stroke="black" points="284.5,-565 284.5,-633 563.5,-633 563.5,-565 284.5,-565"/>
<text text-anchor="start" x="292.5" y="-617.8" font-family="Times,serif" font-size="14.00">0x41899b:</text>
<text text-anchor="start" x="292.5" y="-602.8" font-family="Times,serif" font-size="14.00"> *(IntToPtrCastExpr&lt;ptr&gt;(v18)) = 0</text>
<text text-anchor="start" x="292.5" y="-587.8" font-family="Times,serif" font-size="14.00"> result = v16</text>
<text text-anchor="start" x="292.5" y="-572.8" font-family="Times,serif" font-size="14.00"> v22 = v21</text>
</g>
<!-- Node0xf550e70&#45;&gt;Node0xf552780 -->
<g id="edge14" class="edge"><title>Node0xf550e70&#45;&gt;Node0xf552780</title>
<path fill="none" stroke="black" d="M438.314,-699.8C435.988,-683.584 432.925,-662.225 430.229,-643.429"/>
<polygon fill="black" stroke="black" points="433.66,-642.701 428.776,-633.3 426.731,-643.695 433.66,-642.701"/>
<text text-anchor="middle" x="466.5" y="-662.8" font-family="Times,serif" font-size="14.00">v18 != 0</text>
</g>
<!-- Node0xf552c00 -->
<g id="node16" class="node"><title>Node0xf552c00</title>
<polygon fill="none" stroke="black" points="582,-580 582,-618 688,-618 688,-580 582,-580"/>
<text text-anchor="start" x="590" y="-602.8" font-family="Times,serif" font-size="14.00">result = v16</text>
<text text-anchor="start" x="590" y="-587.8" font-family="Times,serif" font-size="14.00"> v22 = v21</text>
</g>
<!-- Node0xf550e70&#45;&gt;Node0xf552c00 -->
<g id="edge15" class="edge"><title>Node0xf550e70&#45;&gt;Node0xf552c00</title>
<path fill="none" stroke="black" d="M481.92,-699.917C507.91,-683.219 542.523,-660.905 573,-641 581.589,-635.39 590.823,-629.31 599.473,-623.594"/>
<polygon fill="black" stroke="black" points="601.474,-626.466 607.882,-618.029 597.611,-620.629 601.474,-626.466"/>
<text text-anchor="middle" x="578.5" y="-662.8" font-family="Times,serif" font-size="14.00">v18 == 0</text>
</g>
<!-- Node0xf551760 -->
<g id="node17" class="node"><title>Node0xf551760</title>
<polygon fill="none" stroke="black" points="706,-557.5 706,-640.5 992,-640.5 992,-557.5 706,-557.5"/>
<text text-anchor="start" x="714" y="-625.3" font-family="Times,serif" font-size="14.00">0x41899e:</text>
<text text-anchor="start" x="714" y="-610.3" font-family="Times,serif" font-size="14.00"> v20 = v5</text>
<text text-anchor="start" x="714" y="-595.3" font-family="Times,serif" font-size="14.00"> g9 = PtrToIntCastExpr&lt;int32&gt;(v20)</text>
<text text-anchor="start" x="714" y="-580.3" font-family="Times,serif" font-size="14.00"> g3 = v22</text>
<text text-anchor="start" x="714" y="-565.3" font-family="Times,serif" font-size="14.00"> return result</text>
</g>
<!-- Node0xf5512f0&#45;&gt;Node0xf551760 -->
<g id="edge16" class="edge"><title>Node0xf5512f0&#45;&gt;Node0xf551760</title>
<path fill="none" stroke="black" d="M706.961,-692.362C728.644,-678.262 754.308,-661.574 777.815,-646.289"/>
<polygon fill="black" stroke="black" points="779.891,-649.114 786.367,-640.728 776.075,-643.245 779.891,-649.114"/>
</g>
<!-- Node0xf5522f0&#45;&gt;Node0xf551760 -->
<g id="edge17" class="edge"><title>Node0xf5522f0&#45;&gt;Node0xf551760</title>
<path fill="none" stroke="black" d="M864.383,-707.251C862.247,-692.363 859.124,-670.589 856.249,-650.543"/>
<polygon fill="black" stroke="black" points="859.704,-649.975 854.819,-640.573 852.774,-650.969 859.704,-649.975"/>
</g>
<!-- Node0xf550bf0 -->
<g id="node18" class="node"><title>Node0xf550bf0</title>
<polygon fill="none" stroke="black" points="535,-23.5 535,-59.5 589,-59.5 589,-23.5 535,-23.5"/>
<text text-anchor="start" x="543" y="-37.8" font-family="Times,serif" font-size="14.00">exit:</text>
</g>
<!-- Node0xf552ca0&#45;&gt;Node0xf550bf0 -->
<g id="edge18" class="edge"><title>Node0xf552ca0&#45;&gt;Node0xf550bf0</title>
<path fill="none" stroke="black" d="M143,-440.218C143,-405.076 143,-356.339 143,-313.5 143,-313.5 143,-313.5 143,-138 143,-60.0867 421.894,-45.7387 524.608,-43.0964"/>
<polygon fill="black" stroke="black" points="524.916,-46.5903 534.831,-42.8576 524.752,-39.5922 524.916,-46.5903"/>
</g>
<!-- Node0xf5525e0 -->
<g id="node19" class="node"><title>Node0xf5525e0</title>
<polygon fill="none" stroke="black" points="254.5,-353.5 254.5,-406.5 367.5,-406.5 367.5,-353.5 254.5,-353.5"/>
<text text-anchor="start" x="262.5" y="-391.3" font-family="Times,serif" font-size="14.00">0x418997:</text>
<text text-anchor="start" x="262.5" y="-376.3" font-family="Times,serif" font-size="14.00"> if (v18 != 0):</text>
<text text-anchor="start" x="262.5" y="-361.3" font-family="Times,serif" font-size="14.00"> else:</text>
</g>
<!-- Node0x8e098d0&#45;&gt;Node0xf5525e0 -->
<g id="edge19" class="edge"><title>Node0x8e098d0&#45;&gt;Node0xf5525e0</title>
<path fill="none" stroke="black" d="M266.684,-561.678C279.368,-551.574 290.107,-542.422 292,-539 312.941,-501.153 315.375,-450.506 314.106,-416.869"/>
<polygon fill="black" stroke="black" points="317.586,-416.392 313.583,-406.583 310.595,-416.748 317.586,-416.392"/>
</g>
<!-- Node0xf551e90 -->
<g id="node20" class="node"><title>Node0xf551e90</title>
<polygon fill="none" stroke="black" points="468,-338.5 468,-421.5 754,-421.5 754,-338.5 468,-338.5"/>
<text text-anchor="start" x="476" y="-406.3" font-family="Times,serif" font-size="14.00">0x41899e:</text>
<text text-anchor="start" x="476" y="-391.3" font-family="Times,serif" font-size="14.00"> v20 = v5</text>
<text text-anchor="start" x="476" y="-376.3" font-family="Times,serif" font-size="14.00"> g9 = PtrToIntCastExpr&lt;int32&gt;(v20)</text>
<text text-anchor="start" x="476" y="-361.3" font-family="Times,serif" font-size="14.00"> g3 = v22</text>
<text text-anchor="start" x="476" y="-346.3" font-family="Times,serif" font-size="14.00"> return result</text>
</g>
<!-- Node0xf552780&#45;&gt;Node0xf551e90 -->
<g id="edge20" class="edge"><title>Node0xf552780&#45;&gt;Node0xf551e90</title>
<path fill="none" stroke="black" d="M452.809,-564.569C483.897,-528.494 533.7,-470.701 569.115,-429.604"/>
<polygon fill="black" stroke="black" points="571.898,-431.737 575.774,-421.877 566.595,-427.167 571.898,-431.737"/>
</g>
<!-- Node0xf552c00&#45;&gt;Node0xf551e90 -->
<g id="edge21" class="edge"><title>Node0xf552c00&#45;&gt;Node0xf551e90</title>
<path fill="none" stroke="black" d="M632.995,-579.872C629.426,-547.606 621.855,-479.146 616.599,-431.625"/>
<polygon fill="black" stroke="black" points="620.06,-431.08 615.482,-421.526 613.103,-431.85 620.06,-431.08"/>
</g>
<!-- Node0xf551760&#45;&gt;Node0xf550bf0 -->
<g id="edge22" class="edge"><title>Node0xf551760&#45;&gt;Node0xf550bf0</title>
<path fill="none" stroke="black" d="M839.999,-557.437C831.162,-514.015 819,-442.992 819,-381 819,-381 819,-381 819,-138 819,-91.6114 670.016,-60.5001 598.916,-48.2939"/>
<polygon fill="black" stroke="black" points="599.46,-44.8363 589.018,-46.6306 598.299,-51.7395 599.46,-44.8363"/>
</g>
<!-- Node0xf552e60 -->
<g id="node21" class="node"><title>Node0xf552e60</title>
<polygon fill="none" stroke="black" points="171.5,-218.5 171.5,-286.5 450.5,-286.5 450.5,-218.5 171.5,-218.5"/>
<text text-anchor="start" x="179.5" y="-271.3" font-family="Times,serif" font-size="14.00">0x41899b:</text>
<text text-anchor="start" x="179.5" y="-256.3" font-family="Times,serif" font-size="14.00"> *(IntToPtrCastExpr&lt;ptr&gt;(v18)) = 0</text>
<text text-anchor="start" x="179.5" y="-241.3" font-family="Times,serif" font-size="14.00"> result = v16</text>
<text text-anchor="start" x="179.5" y="-226.3" font-family="Times,serif" font-size="14.00"> v22 = v21</text>
</g>
<!-- Node0xf5525e0&#45;&gt;Node0xf552e60 -->
<g id="edge23" class="edge"><title>Node0xf5525e0&#45;&gt;Node0xf552e60</title>
<path fill="none" stroke="black" d="M311,-353.3C311,-337.084 311,-315.725 311,-296.929"/>
<polygon fill="black" stroke="black" points="314.5,-296.8 311,-286.8 307.5,-296.8 314.5,-296.8"/>
<text text-anchor="middle" x="342.5" y="-308.8" font-family="Times,serif" font-size="14.00">v18 != 0</text>
</g>
<!-- Node0xf552ee0 -->
<g id="node22" class="node"><title>Node0xf552ee0</title>
<polygon fill="none" stroke="black" points="469,-233.5 469,-271.5 575,-271.5 575,-233.5 469,-233.5"/>
<text text-anchor="start" x="477" y="-256.3" font-family="Times,serif" font-size="14.00">result = v16</text>
<text text-anchor="start" x="477" y="-241.3" font-family="Times,serif" font-size="14.00"> v22 = v21</text>
</g>
<!-- Node0xf5525e0&#45;&gt;Node0xf552ee0 -->
<g id="edge24" class="edge"><title>Node0xf5525e0&#45;&gt;Node0xf552ee0</title>
<path fill="none" stroke="black" d="M353.953,-353.452C391.721,-330.988 446.226,-298.57 482.821,-276.803"/>
<polygon fill="black" stroke="black" points="484.913,-279.631 491.718,-271.511 481.334,-273.615 484.913,-279.631"/>
<text text-anchor="middle" x="470.5" y="-308.8" font-family="Times,serif" font-size="14.00">v18 == 0</text>
</g>
<!-- Node0xf551e90&#45;&gt;Node0xf550bf0 -->
<g id="edge25" class="edge"><title>Node0xf551e90&#45;&gt;Node0xf550bf0</title>
<path fill="none" stroke="black" d="M613.692,-338.348C616.168,-282.665 616.37,-180.108 592,-97 589.113,-87.154 584.237,-77.1104 579.246,-68.3717"/>
<polygon fill="black" stroke="black" points="582.241,-66.5597 574.082,-59.8004 576.245,-70.1722 582.241,-66.5597"/>
</g>
<!-- Node0xf552640 -->
<g id="node23" class="node"><title>Node0xf552640</title>
<polygon fill="none" stroke="black" points="297,-97.5 297,-180.5 583,-180.5 583,-97.5 297,-97.5"/>
<text text-anchor="start" x="305" y="-165.3" font-family="Times,serif" font-size="14.00">0x41899e:</text>
<text text-anchor="start" x="305" y="-150.3" font-family="Times,serif" font-size="14.00"> v20 = v5</text>
<text text-anchor="start" x="305" y="-135.3" font-family="Times,serif" font-size="14.00"> g9 = PtrToIntCastExpr&lt;int32&gt;(v20)</text>
<text text-anchor="start" x="305" y="-120.3" font-family="Times,serif" font-size="14.00"> g3 = v22</text>
<text text-anchor="start" x="305" y="-105.3" font-family="Times,serif" font-size="14.00"> return result</text>
</g>
<!-- Node0xf552e60&#45;&gt;Node0xf552640 -->
<g id="edge26" class="edge"><title>Node0xf552e60&#45;&gt;Node0xf552640</title>
<path fill="none" stroke="black" d="M349.355,-218.348C360.565,-208.659 373.043,-197.874 385.068,-187.48"/>
<polygon fill="black" stroke="black" points="387.609,-189.91 392.886,-180.722 383.032,-184.614 387.609,-189.91"/>
</g>
<!-- Node0xf552ee0&#45;&gt;Node0xf552640 -->
<g id="edge27" class="edge"><title>Node0xf552ee0&#45;&gt;Node0xf552640</title>
<path fill="none" stroke="black" d="M508.459,-233.088C499.55,-220.973 487.439,-204.505 475.879,-188.787"/>
<polygon fill="black" stroke="black" points="478.649,-186.646 469.905,-180.663 473.01,-190.793 478.649,-186.646"/>
</g>
<!-- Node0xf552640&#45;&gt;Node0xf550bf0 -->
<g id="edge28" class="edge"><title>Node0xf552640&#45;&gt;Node0xf550bf0</title>
<path fill="none" stroke="black" d="M491.739,-97.4994C505.564,-86.6775 520.038,-75.3469 532.233,-65.8014"/>
<polygon fill="black" stroke="black" points="534.558,-68.4264 540.275,-59.5064 530.243,-62.9144 534.558,-68.4264"/>
</g>
</g>
</svg>
