<?xml version="1.0" encoding="UTF-8" standalone="no"?>
<!DOCTYPE svg PUBLIC "-//W3C//DTD SVG 1.1//EN"
 "http://www.w3.org/Graphics/SVG/1.1/DTD/svg11.dtd">
<!-- Generated by graphviz version 2.38.0 (20140413.2041)
 -->
<!-- Title: Control&#45;flow graph for function &#39;function_418a7f(a1, a2)&#39;. Pages: 1 -->
<svg width="855pt" height="1797pt"
 viewBox="0.00 0.00 855.00 1797.00" xmlns="http://www.w3.org/2000/svg" xmlns:xlink="http://www.w3.org/1999/xlink">
<g id="graph0" class="graph" transform="scale(1 1) rotate(0) translate(4 1793)">
<title>Control&#45;flow graph for function &#39;function_418a7f(a1, a2)&#39;.</title>
<polygon fill="white" stroke="none" points="-4,4 -4,-1793 851,-1793 851,4 -4,4"/>
<text text-anchor="middle" x="423.5" y="-7.8" font-family="Times,serif" font-size="14.00">Control&#45;flow graph for function &#39;function_418a7f(a1, a2)&#39;.</text>
<!-- Node0xf4ec210 -->
<g id="node1" class="node"><title>Node0xf4ec210</title>
<polygon fill="none" stroke="black" points="510.5,-1735.5 510.5,-1788.5 569.5,-1788.5 569.5,-1735.5 510.5,-1735.5"/>
<text text-anchor="start" x="518.5" y="-1773.3" font-family="Times,serif" font-size="14.00">entry:</text>
<text text-anchor="start" x="518.5" y="-1758.3" font-family="Times,serif" font-size="14.00"> a1</text>
<text text-anchor="start" x="518.5" y="-1743.3" font-family="Times,serif" font-size="14.00"> a2</text>
</g>
<!-- Node0xf557790 -->
<g id="node2" class="node"><title>Node0xf557790</title>
<polygon fill="none" stroke="black" points="233,-879.5 233,-1697.5 847,-1697.5 847,-879.5 233,-879.5"/>
<text text-anchor="start" x="241" y="-1682.3" font-family="Times,serif" font-size="14.00">v1</text>
<text text-anchor="start" x="241" y="-1667.3" font-family="Times,serif" font-size="14.00"> result</text>
<text text-anchor="start" x="241" y="-1652.3" font-family="Times,serif" font-size="14.00"> errorCode</text>
<text text-anchor="start" x="241" y="-1637.3" font-family="Times,serif" font-size="14.00"> errorCode2</text>
<text text-anchor="start" x="241" y="-1622.3" font-family="Times,serif" font-size="14.00"> v2</text>
<text text-anchor="start" x="241" y="-1607.3" font-family="Times,serif" font-size="14.00"> v3</text>
<text text-anchor="start" x="241" y="-1592.3" font-family="Times,serif" font-size="14.00"> v4</text>
<text text-anchor="start" x="241" y="-1577.3" font-family="Times,serif" font-size="14.00"> v5</text>
<text text-anchor="start" x="241" y="-1562.3" font-family="Times,serif" font-size="14.00"> v6</text>
<text text-anchor="start" x="241" y="-1547.3" font-family="Times,serif" font-size="14.00"> v7</text>
<text text-anchor="start" x="241" y="-1532.3" font-family="Times,serif" font-size="14.00"> v8</text>
<text text-anchor="start" x="241" y="-1517.3" font-family="Times,serif" font-size="14.00"> v9</text>
<text text-anchor="start" x="241" y="-1502.3" font-family="Times,serif" font-size="14.00"> v10</text>
<text text-anchor="start" x="241" y="-1487.3" font-family="Times,serif" font-size="14.00"> v11</text>
<text text-anchor="start" x="241" y="-1472.3" font-family="Times,serif" font-size="14.00"> v12</text>
<text text-anchor="start" x="241" y="-1457.3" font-family="Times,serif" font-size="14.00"> v13</text>
<text text-anchor="start" x="241" y="-1442.3" font-family="Times,serif" font-size="14.00"> v14</text>
<text text-anchor="start" x="241" y="-1427.3" font-family="Times,serif" font-size="14.00"> v15</text>
<text text-anchor="start" x="241" y="-1412.3" font-family="Times,serif" font-size="14.00"> v16</text>
<text text-anchor="start" x="241" y="-1397.3" font-family="Times,serif" font-size="14.00"> lpDistanceToMoveHigh</text>
<text text-anchor="start" x="241" y="-1382.3" font-family="Times,serif" font-size="14.00"> v17</text>
<text text-anchor="start" x="241" y="-1367.3" font-family="Times,serif" font-size="14.00"> v18</text>
<text text-anchor="start" x="241" y="-1352.3" font-family="Times,serif" font-size="14.00"> v19</text>
<text text-anchor="start" x="241" y="-1337.3" font-family="Times,serif" font-size="14.00"> v20</text>
<text text-anchor="start" x="241" y="-1322.3" font-family="Times,serif" font-size="14.00"> v21</text>
<text text-anchor="start" x="241" y="-1307.3" font-family="Times,serif" font-size="14.00"> v22</text>
<text text-anchor="start" x="241" y="-1292.3" font-family="Times,serif" font-size="14.00"> v23</text>
<text text-anchor="start" x="241" y="-1277.3" font-family="Times,serif" font-size="14.00"> v24</text>
<text text-anchor="start" x="241" y="-1262.3" font-family="Times,serif" font-size="14.00"> v25</text>
<text text-anchor="start" x="241" y="-1247.3" font-family="Times,serif" font-size="14.00"> v26</text>
<text text-anchor="start" x="241" y="-1232.3" font-family="Times,serif" font-size="14.00"> v27</text>
<text text-anchor="start" x="241" y="-1217.3" font-family="Times,serif" font-size="14.00"> v28</text>
<text text-anchor="start" x="241" y="-1202.3" font-family="Times,serif" font-size="14.00"> v29</text>
<text text-anchor="start" x="241" y="-1187.3" font-family="Times,serif" font-size="14.00"> v30</text>
<text text-anchor="start" x="241" y="-1172.3" font-family="Times,serif" font-size="14.00"> hFile</text>
<text text-anchor="start" x="241" y="-1157.3" font-family="Times,serif" font-size="14.00"> v31</text>
<text text-anchor="start" x="241" y="-1142.3" font-family="Times,serif" font-size="14.00"> v32</text>
<text text-anchor="start" x="241" y="-1127.3" font-family="Times,serif" font-size="14.00"> v9 = v10</text>
<text text-anchor="start" x="241" y="-1112.3" font-family="Times,serif" font-size="14.00"> v21 = g3</text>
<text text-anchor="start" x="241" y="-1097.3" font-family="Times,serif" font-size="14.00"> v15 = v21</text>
<text text-anchor="start" x="241" y="-1082.3" font-family="Times,serif" font-size="14.00"> g3 = PtrToIntCastExpr&lt;int32&gt;(&amp;(v15))</text>
<text text-anchor="start" x="241" y="-1067.3" font-family="Times,serif" font-size="14.00"> v22 = g5</text>
<text text-anchor="start" x="241" y="-1052.3" font-family="Times,serif" font-size="14.00"> lpDistanceToMoveHigh = IntToPtrCastExpr&lt;ptr&gt;(v22)</text>
<text text-anchor="start" x="241" y="-1037.3" font-family="Times,serif" font-size="14.00"> v23 = g9</text>
<text text-anchor="start" x="241" y="-1022.3" font-family="Times,serif" font-size="14.00"> v5 = v23</text>
<text text-anchor="start" x="241" y="-1007.3" font-family="Times,serif" font-size="14.00"> g9 = v22</text>
<text text-anchor="start" x="241" y="-992.3" font-family="Times,serif" font-size="14.00"> v7 = 1</text>
<text text-anchor="start" x="241" y="-977.3" font-family="Times,serif" font-size="14.00"> g2 = 0</text>
<text text-anchor="start" x="241" y="-962.3" font-family="Times,serif" font-size="14.00"> v11 = NULL</text>
<text text-anchor="start" x="241" y="-947.3" font-family="Times,serif" font-size="14.00"> hFile = *(IntToPtrCastExpr&lt;ptr&gt;((v22 + 4)))</text>
<text text-anchor="start" x="241" y="-932.3" font-family="Times,serif" font-size="14.00"> lpDistanceToMoveHigh = NULL</text>
<text text-anchor="start" x="241" y="-917.3" font-family="Times,serif" font-size="14.00"> result = SetFilePointer(hFile, 0, BitCastExpr&lt;ptr&gt;(&amp;(lpDistanceToMoveHigh)), 1)</text>
<text text-anchor="start" x="241" y="-902.3" font-family="Times,serif" font-size="14.00"> g10 = PtrToIntCastExpr&lt;int32&gt;(&amp;(v5))</text>
<text text-anchor="start" x="241" y="-887.3" font-family="Times,serif" font-size="14.00"> v27 = v23</text>
</g>
<!-- Node0xf4ec210&#45;&gt;Node0xf557790 -->
<g id="edge1" class="edge"><title>Node0xf4ec210&#45;&gt;Node0xf557790</title>
<path fill="none" stroke="black" d="M540,-1735.32C540,-1727.67 540,-1718.52 540,-1708.15"/>
<polygon fill="black" stroke="black" points="543.5,-1707.84 540,-1697.84 536.5,-1707.84 543.5,-1707.84"/>
</g>
<!-- Node0xf5591a0 -->
<g id="node3" class="node"><title>Node0xf5591a0</title>
<polygon fill="none" stroke="black" points="473,-805.5 473,-841.5 607,-841.5 607,-805.5 473,-805.5"/>
<text text-anchor="start" x="481" y="-819.8" font-family="Times,serif" font-size="14.00">if (result == &#45;1):</text>
</g>
<!-- Node0xf557790&#45;&gt;Node0xf5591a0 -->
<g id="edge2" class="edge"><title>Node0xf557790&#45;&gt;Node0xf5591a0</title>
<path fill="none" stroke="black" d="M540,-879.43C540,-868.916 540,-859.599 540,-851.76"/>
<polygon fill="black" stroke="black" points="543.5,-851.692 540,-841.692 536.5,-851.692 543.5,-851.692"/>
</g>
<!-- Node0xf559980 -->
<g id="node4" class="node"><title>Node0xf559980</title>
<polygon fill="none" stroke="black" points="351,-670.5 351,-753.5 573,-753.5 573,-670.5 351,-670.5"/>
<text text-anchor="start" x="359" y="-738.3" font-family="Times,serif" font-size="14.00">0x418aa7:</text>
<text text-anchor="start" x="359" y="-723.3" font-family="Times,serif" font-size="14.00"> v24 = g7</text>
<text text-anchor="start" x="359" y="-708.3" font-family="Times,serif" font-size="14.00"> v7 = v24</text>
<text text-anchor="start" x="359" y="-693.3" font-family="Times,serif" font-size="14.00"> g7 = 415530</text>
<text text-anchor="start" x="359" y="-678.3" font-family="Times,serif" font-size="14.00"> errorCode = GetLastError()</text>
</g>
<!-- Node0xf5591a0&#45;&gt;Node0xf559980 -->
<g id="edge3" class="edge"><title>Node0xf5591a0&#45;&gt;Node0xf559980</title>
<path fill="none" stroke="black" d="M516.14,-805.27C509.732,-799.9 503.157,-793.633 498,-787 492.268,-779.629 487.116,-771.198 482.622,-762.728"/>
<polygon fill="black" stroke="black" points="485.634,-760.927 478.007,-753.572 479.383,-764.077 485.634,-760.927"/>
<text text-anchor="middle" x="542.5" y="-775.8" font-family="Times,serif" font-size="14.00">result == &#45;1</text>
</g>
<!-- Node0xf5593b0 -->
<g id="node5" class="node"><title>Node0xf5593b0</title>
<polygon fill="none" stroke="black" points="406,-97.5 406,-210.5 692,-210.5 692,-97.5 406,-97.5"/>
<text text-anchor="start" x="414" y="-195.3" font-family="Times,serif" font-size="14.00">0x418ac0:</text>
<text text-anchor="start" x="414" y="-180.3" font-family="Times,serif" font-size="14.00"> v32 = lpDistanceToMoveHigh</text>
<text text-anchor="start" x="414" y="-165.3" font-family="Times,serif" font-size="14.00"> g8 = PtrToIntCastExpr&lt;int32&gt;(v32)</text>
<text text-anchor="start" x="414" y="-150.3" font-family="Times,serif" font-size="14.00"> g9 = v27</text>
<text text-anchor="start" x="414" y="-135.3" font-family="Times,serif" font-size="14.00"> v29 = v15</text>
<text text-anchor="start" x="414" y="-120.3" font-family="Times,serif" font-size="14.00"> g3 = v29</text>
<text text-anchor="start" x="414" y="-105.3" font-family="Times,serif" font-size="14.00"> return result</text>
</g>
<!-- Node0xf5591a0&#45;&gt;Node0xf5593b0 -->
<g id="edge4" class="edge"><title>Node0xf5591a0&#45;&gt;Node0xf5593b0</title>
<path fill="none" stroke="black" d="M569.495,-805.468C576.167,-800.327 582.578,-794.125 587,-787 604.651,-758.56 601,-746.472 601,-713 601,-713 601,-713 601,-289 601,-265.524 593.977,-241.205 585.094,-219.834"/>
<polygon fill="black" stroke="black" points="588.251,-218.319 581.044,-210.552 581.835,-221.118 588.251,-218.319"/>
<text text-anchor="middle" x="642.5" y="-564.8" font-family="Times,serif" font-size="14.00">result != &#45;1</text>
</g>
<!-- Node0xf559a00 -->
<g id="node6" class="node"><title>Node0xf559a00</title>
<polygon fill="none" stroke="black" points="384.5,-594.5 384.5,-632.5 539.5,-632.5 539.5,-594.5 384.5,-594.5"/>
<text text-anchor="start" x="392.5" y="-617.3" font-family="Times,serif" font-size="14.00">if (errorCode != 0):</text>
<text text-anchor="start" x="392.5" y="-602.3" font-family="Times,serif" font-size="14.00"> else:</text>
</g>
<!-- Node0xf559980&#45;&gt;Node0xf559a00 -->
<g id="edge5" class="edge"><title>Node0xf559980&#45;&gt;Node0xf559a00</title>
<path fill="none" stroke="black" d="M462,-670.355C462,-661.083 462,-651.427 462,-642.803"/>
<polygon fill="black" stroke="black" points="465.5,-642.538 462,-632.538 458.5,-642.538 465.5,-642.538"/>
</g>
<!-- Node0xf557730 -->
<g id="node7" class="node"><title>Node0xf557730</title>
<polygon fill="none" stroke="black" points="522,-23.5 522,-59.5 576,-59.5 576,-23.5 522,-23.5"/>
<text text-anchor="start" x="530" y="-37.8" font-family="Times,serif" font-size="14.00">exit:</text>
</g>
<!-- Node0xf5593b0&#45;&gt;Node0xf557730 -->
<g id="edge6" class="edge"><title>Node0xf5593b0&#45;&gt;Node0xf557730</title>
<path fill="none" stroke="black" d="M549,-97.4263C549,-87.8599 549,-78.3065 549,-69.9133"/>
<polygon fill="black" stroke="black" points="552.5,-69.6444 549,-59.6444 545.5,-69.6444 552.5,-69.6444"/>
</g>
<!-- Node0xf559c50 -->
<g id="node8" class="node"><title>Node0xf559c50</title>
<polygon fill="none" stroke="black" points="0,-369.5 0,-542.5 444,-542.5 444,-369.5 0,-369.5"/>
<text text-anchor="start" x="8" y="-527.3" font-family="Times,serif" font-size="14.00">0x418ab4:</text>
<text text-anchor="start" x="8" y="-512.3" font-family="Times,serif" font-size="14.00"> v30 = g9</text>
<text text-anchor="start" x="8" y="-497.3" font-family="Times,serif" font-size="14.00"> v31 = *(IntToPtrCastExpr&lt;ptr&gt;((v30 + 12)))</text>
<text text-anchor="start" x="8" y="-482.3" font-family="Times,serif" font-size="14.00"> v9 = IntToPtrCastExpr&lt;ptr&gt;(v31)</text>
<text text-anchor="start" x="8" y="-467.3" font-family="Times,serif" font-size="14.00"> errorCode2 = GetLastError()</text>
<text text-anchor="start" x="8" y="-452.3" font-family="Times,serif" font-size="14.00"> v11 = IntToPtrCastExpr&lt;ptr&gt;(errorCode2)</text>
<text text-anchor="start" x="8" y="-437.3" font-family="Times,serif" font-size="14.00"> v1 = v9</text>
<text text-anchor="start" x="8" y="-422.3" font-family="Times,serif" font-size="14.00"> function_4195e2(IntToPtrCastExpr&lt;ptr&gt;(errorCode2), v1)</text>
<text text-anchor="start" x="8" y="-407.3" font-family="Times,serif" font-size="14.00"> v26 = v11</text>
<text text-anchor="start" x="8" y="-392.3" font-family="Times,serif" font-size="14.00"> v3 = PtrToIntCastExpr&lt;int32&gt;(v26)</text>
<text text-anchor="start" x="8" y="-377.3" font-family="Times,serif" font-size="14.00"> v25 = v3</text>
</g>
<!-- Node0xf559a00&#45;&gt;Node0xf559c50 -->
<g id="edge7" class="edge"><title>Node0xf559a00&#45;&gt;Node0xf559c50</title>
<path fill="none" stroke="black" d="M388.747,-594.407C374.726,-589.476 360.527,-583.396 348,-576 335.035,-568.345 322.324,-559.136 310.264,-549.273"/>
<polygon fill="black" stroke="black" points="312.347,-546.452 302.436,-542.707 307.848,-551.815 312.347,-546.452"/>
<text text-anchor="middle" x="403" y="-564.8" font-family="Times,serif" font-size="14.00">errorCode != 0</text>
</g>
<!-- Node0xf559860 -->
<g id="node9" class="node"><title>Node0xf559860</title>
<polygon fill="none" stroke="black" points="462.5,-438 462.5,-474 535.5,-474 535.5,-438 462.5,-438"/>
<text text-anchor="start" x="470.5" y="-452.3" font-family="Times,serif" font-size="14.00">v25 = 0</text>
</g>
<!-- Node0xf559a00&#45;&gt;Node0xf559860 -->
<g id="edge8" class="edge"><title>Node0xf559a00&#45;&gt;Node0xf559860</title>
<path fill="none" stroke="black" d="M460.972,-594.251C460.759,-584.341 461.055,-571.917 463,-561 467.839,-533.842 478.67,-504.239 487.195,-483.586"/>
<polygon fill="black" stroke="black" points="490.486,-484.789 491.159,-474.216 484.039,-482.062 490.486,-484.789"/>
<text text-anchor="middle" x="521" y="-564.8" font-family="Times,serif" font-size="14.00">errorCode == 0</text>
</g>
<!-- Node0xf559bf0 -->
<g id="node10" class="node"><title>Node0xf559bf0</title>
<polygon fill="none" stroke="black" points="264.5,-248.5 264.5,-331.5 573.5,-331.5 573.5,-248.5 264.5,-248.5"/>
<text text-anchor="start" x="272.5" y="-316.3" font-family="Times,serif" font-size="14.00">0x418abf:</text>
<text text-anchor="start" x="272.5" y="-301.3" font-family="Times,serif" font-size="14.00"> g7 = v25</text>
<text text-anchor="start" x="272.5" y="-286.3" font-family="Times,serif" font-size="14.00"> g10 = PtrToIntCastExpr&lt;int32&gt;(&amp;(v9))</text>
<text text-anchor="start" x="272.5" y="-271.3" font-family="Times,serif" font-size="14.00"> v28 = v5</text>
<text text-anchor="start" x="272.5" y="-256.3" font-family="Times,serif" font-size="14.00"> v27 = v28</text>
</g>
<!-- Node0xf559c50&#45;&gt;Node0xf559bf0 -->
<g id="edge9" class="edge"><title>Node0xf559c50&#45;&gt;Node0xf559bf0</title>
<path fill="none" stroke="black" d="M324.827,-369.398C337.713,-358.67 350.501,-348.025 362.304,-338.198"/>
<polygon fill="black" stroke="black" points="364.862,-340.623 370.308,-331.535 360.384,-335.243 364.862,-340.623"/>
</g>
<!-- Node0xf559860&#45;&gt;Node0xf559bf0 -->
<g id="edge10" class="edge"><title>Node0xf559860&#45;&gt;Node0xf559bf0</title>
<path fill="none" stroke="black" d="M490.59,-437.759C479.442,-414.907 459.308,-373.632 443.225,-340.662"/>
<polygon fill="black" stroke="black" points="446.337,-339.058 438.807,-331.605 440.046,-342.127 446.337,-339.058"/>
</g>
<!-- Node0xf559bf0&#45;&gt;Node0xf5593b0 -->
<g id="edge11" class="edge"><title>Node0xf559bf0&#45;&gt;Node0xf5593b0</title>
<path fill="none" stroke="black" d="M458.357,-248.432C467.618,-238.886 477.706,-228.488 487.678,-218.209"/>
<polygon fill="black" stroke="black" points="490.454,-220.374 494.905,-210.759 485.43,-215.5 490.454,-220.374"/>
</g>
</g>
</svg>
