<?xml version="1.0" encoding="UTF-8" standalone="no"?>
<!DOCTYPE svg PUBLIC "-//W3C//DTD SVG 1.1//EN"
 "http://www.w3.org/Graphics/SVG/1.1/DTD/svg11.dtd">
<!-- Generated by graphviz version 2.38.0 (20140413.2041)
 -->
<!-- Title: Control&#45;flow graph for function &#39;function_42d2f0(*a1, a2, *a3, a4, a5)&#39;. Pages: 1 -->
<svg width="2668pt" height="3451pt"
 viewBox="0.00 0.00 2668.00 3451.00" xmlns="http://www.w3.org/2000/svg" xmlns:xlink="http://www.w3.org/1999/xlink">
<g id="graph0" class="graph" transform="scale(1 1) rotate(0) translate(4 3447)">
<title>Control&#45;flow graph for function &#39;function_42d2f0(*a1, a2, *a3, a4, a5)&#39;.</title>
<polygon fill="white" stroke="none" points="-4,4 -4,-3447 2664,-3447 2664,4 -4,4"/>
<text text-anchor="middle" x="1330" y="-7.8" font-family="Times,serif" font-size="14.00">Control&#45;flow graph for function &#39;function_42d2f0(*a1, a2, *a3, a4, a5)&#39;.</text>
<!-- Node0x1006cdd0 -->
<g id="node1" class="node"><title>Node0x1006cdd0</title>
<polygon fill="none" stroke="black" points="1065,-3344.5 1065,-3442.5 1124,-3442.5 1124,-3344.5 1065,-3344.5"/>
<text text-anchor="start" x="1073" y="-3427.3" font-family="Times,serif" font-size="14.00">entry:</text>
<text text-anchor="start" x="1073" y="-3412.3" font-family="Times,serif" font-size="14.00"> a1</text>
<text text-anchor="start" x="1073" y="-3397.3" font-family="Times,serif" font-size="14.00"> a2</text>
<text text-anchor="start" x="1073" y="-3382.3" font-family="Times,serif" font-size="14.00"> a3</text>
<text text-anchor="start" x="1073" y="-3367.3" font-family="Times,serif" font-size="14.00"> a4</text>
<text text-anchor="start" x="1073" y="-3352.3" font-family="Times,serif" font-size="14.00"> a5</text>
</g>
<!-- Node0x1005dc30 -->
<g id="node2" class="node"><title>Node0x1005dc30</title>
<polygon fill="none" stroke="black" points="926,-1903.5 926,-3306.5 1263,-3306.5 1263,-1903.5 926,-1903.5"/>
<text text-anchor="start" x="934" y="-3291.3" font-family="Times,serif" font-size="14.00">v1</text>
<text text-anchor="start" x="934" y="-3276.3" font-family="Times,serif" font-size="14.00"> v2</text>
<text text-anchor="start" x="934" y="-3261.3" font-family="Times,serif" font-size="14.00"> v3</text>
<text text-anchor="start" x="934" y="-3246.3" font-family="Times,serif" font-size="14.00"> v4</text>
<text text-anchor="start" x="934" y="-3231.3" font-family="Times,serif" font-size="14.00"> v5</text>
<text text-anchor="start" x="934" y="-3216.3" font-family="Times,serif" font-size="14.00"> v6</text>
<text text-anchor="start" x="934" y="-3201.3" font-family="Times,serif" font-size="14.00"> v7</text>
<text text-anchor="start" x="934" y="-3186.3" font-family="Times,serif" font-size="14.00"> v8</text>
<text text-anchor="start" x="934" y="-3171.3" font-family="Times,serif" font-size="14.00"> v9</text>
<text text-anchor="start" x="934" y="-3156.3" font-family="Times,serif" font-size="14.00"> v10</text>
<text text-anchor="start" x="934" y="-3141.3" font-family="Times,serif" font-size="14.00"> v11</text>
<text text-anchor="start" x="934" y="-3126.3" font-family="Times,serif" font-size="14.00"> v12</text>
<text text-anchor="start" x="934" y="-3111.3" font-family="Times,serif" font-size="14.00"> v13</text>
<text text-anchor="start" x="934" y="-3096.3" font-family="Times,serif" font-size="14.00"> v14</text>
<text text-anchor="start" x="934" y="-3081.3" font-family="Times,serif" font-size="14.00"> v15</text>
<text text-anchor="start" x="934" y="-3066.3" font-family="Times,serif" font-size="14.00"> v16</text>
<text text-anchor="start" x="934" y="-3051.3" font-family="Times,serif" font-size="14.00"> v17</text>
<text text-anchor="start" x="934" y="-3036.3" font-family="Times,serif" font-size="14.00"> v18</text>
<text text-anchor="start" x="934" y="-3021.3" font-family="Times,serif" font-size="14.00"> v19</text>
<text text-anchor="start" x="934" y="-3006.3" font-family="Times,serif" font-size="14.00"> v20</text>
<text text-anchor="start" x="934" y="-2991.3" font-family="Times,serif" font-size="14.00"> result</text>
<text text-anchor="start" x="934" y="-2976.3" font-family="Times,serif" font-size="14.00"> v21</text>
<text text-anchor="start" x="934" y="-2961.3" font-family="Times,serif" font-size="14.00"> v22</text>
<text text-anchor="start" x="934" y="-2946.3" font-family="Times,serif" font-size="14.00"> v23</text>
<text text-anchor="start" x="934" y="-2931.3" font-family="Times,serif" font-size="14.00"> v24</text>
<text text-anchor="start" x="934" y="-2916.3" font-family="Times,serif" font-size="14.00"> v25</text>
<text text-anchor="start" x="934" y="-2901.3" font-family="Times,serif" font-size="14.00"> v26</text>
<text text-anchor="start" x="934" y="-2886.3" font-family="Times,serif" font-size="14.00"> v27</text>
<text text-anchor="start" x="934" y="-2871.3" font-family="Times,serif" font-size="14.00"> v28</text>
<text text-anchor="start" x="934" y="-2856.3" font-family="Times,serif" font-size="14.00"> v29</text>
<text text-anchor="start" x="934" y="-2841.3" font-family="Times,serif" font-size="14.00"> v30</text>
<text text-anchor="start" x="934" y="-2826.3" font-family="Times,serif" font-size="14.00"> v31</text>
<text text-anchor="start" x="934" y="-2811.3" font-family="Times,serif" font-size="14.00"> v32</text>
<text text-anchor="start" x="934" y="-2796.3" font-family="Times,serif" font-size="14.00"> v33</text>
<text text-anchor="start" x="934" y="-2781.3" font-family="Times,serif" font-size="14.00"> v34</text>
<text text-anchor="start" x="934" y="-2766.3" font-family="Times,serif" font-size="14.00"> v35</text>
<text text-anchor="start" x="934" y="-2751.3" font-family="Times,serif" font-size="14.00"> v36</text>
<text text-anchor="start" x="934" y="-2736.3" font-family="Times,serif" font-size="14.00"> v37</text>
<text text-anchor="start" x="934" y="-2721.3" font-family="Times,serif" font-size="14.00"> v38</text>
<text text-anchor="start" x="934" y="-2706.3" font-family="Times,serif" font-size="14.00"> v39</text>
<text text-anchor="start" x="934" y="-2691.3" font-family="Times,serif" font-size="14.00"> v40</text>
<text text-anchor="start" x="934" y="-2676.3" font-family="Times,serif" font-size="14.00"> v41</text>
<text text-anchor="start" x="934" y="-2661.3" font-family="Times,serif" font-size="14.00"> v42</text>
<text text-anchor="start" x="934" y="-2646.3" font-family="Times,serif" font-size="14.00"> v43</text>
<text text-anchor="start" x="934" y="-2631.3" font-family="Times,serif" font-size="14.00"> v44</text>
<text text-anchor="start" x="934" y="-2616.3" font-family="Times,serif" font-size="14.00"> v45</text>
<text text-anchor="start" x="934" y="-2601.3" font-family="Times,serif" font-size="14.00"> v46</text>
<text text-anchor="start" x="934" y="-2586.3" font-family="Times,serif" font-size="14.00"> v47</text>
<text text-anchor="start" x="934" y="-2571.3" font-family="Times,serif" font-size="14.00"> v48</text>
<text text-anchor="start" x="934" y="-2556.3" font-family="Times,serif" font-size="14.00"> v49</text>
<text text-anchor="start" x="934" y="-2541.3" font-family="Times,serif" font-size="14.00"> v50</text>
<text text-anchor="start" x="934" y="-2526.3" font-family="Times,serif" font-size="14.00"> v51</text>
<text text-anchor="start" x="934" y="-2511.3" font-family="Times,serif" font-size="14.00"> v52</text>
<text text-anchor="start" x="934" y="-2496.3" font-family="Times,serif" font-size="14.00"> v53</text>
<text text-anchor="start" x="934" y="-2481.3" font-family="Times,serif" font-size="14.00"> v54</text>
<text text-anchor="start" x="934" y="-2466.3" font-family="Times,serif" font-size="14.00"> v55</text>
<text text-anchor="start" x="934" y="-2451.3" font-family="Times,serif" font-size="14.00"> v56</text>
<text text-anchor="start" x="934" y="-2436.3" font-family="Times,serif" font-size="14.00"> v57</text>
<text text-anchor="start" x="934" y="-2421.3" font-family="Times,serif" font-size="14.00"> v58</text>
<text text-anchor="start" x="934" y="-2406.3" font-family="Times,serif" font-size="14.00"> v59</text>
<text text-anchor="start" x="934" y="-2391.3" font-family="Times,serif" font-size="14.00"> v60</text>
<text text-anchor="start" x="934" y="-2376.3" font-family="Times,serif" font-size="14.00"> v61</text>
<text text-anchor="start" x="934" y="-2361.3" font-family="Times,serif" font-size="14.00"> v62</text>
<text text-anchor="start" x="934" y="-2346.3" font-family="Times,serif" font-size="14.00"> v63</text>
<text text-anchor="start" x="934" y="-2331.3" font-family="Times,serif" font-size="14.00"> v64</text>
<text text-anchor="start" x="934" y="-2316.3" font-family="Times,serif" font-size="14.00"> v65</text>
<text text-anchor="start" x="934" y="-2301.3" font-family="Times,serif" font-size="14.00"> v66</text>
<text text-anchor="start" x="934" y="-2286.3" font-family="Times,serif" font-size="14.00"> v67</text>
<text text-anchor="start" x="934" y="-2271.3" font-family="Times,serif" font-size="14.00"> v68</text>
<text text-anchor="start" x="934" y="-2256.3" font-family="Times,serif" font-size="14.00"> v69</text>
<text text-anchor="start" x="934" y="-2241.3" font-family="Times,serif" font-size="14.00"> v70</text>
<text text-anchor="start" x="934" y="-2226.3" font-family="Times,serif" font-size="14.00"> v71</text>
<text text-anchor="start" x="934" y="-2211.3" font-family="Times,serif" font-size="14.00"> v72</text>
<text text-anchor="start" x="934" y="-2196.3" font-family="Times,serif" font-size="14.00"> v27 = v28</text>
<text text-anchor="start" x="934" y="-2181.3" font-family="Times,serif" font-size="14.00"> v23 = v24</text>
<text text-anchor="start" x="934" y="-2166.3" font-family="Times,serif" font-size="14.00"> v30 = v34</text>
<text text-anchor="start" x="934" y="-2151.3" font-family="Times,serif" font-size="14.00"> g3 = PtrToIntCastExpr&lt;int32&gt;(&amp;(v30))</text>
<text text-anchor="start" x="934" y="-2136.3" font-family="Times,serif" font-size="14.00"> g2 = a5</text>
<text text-anchor="start" x="934" y="-2121.3" font-family="Times,serif" font-size="14.00"> v5 = IntToPtrCastExpr&lt;ptr&gt;((a5 + 8))</text>
<text text-anchor="start" x="934" y="-2106.3" font-family="Times,serif" font-size="14.00"> v47 = *(v5)</text>
<text text-anchor="start" x="934" y="-2091.3" font-family="Times,serif" font-size="14.00"> g2 = v47</text>
<text text-anchor="start" x="934" y="-2076.3" font-family="Times,serif" font-size="14.00"> _memset(IntToPtrCastExpr&lt;ptr&gt;(v47))</text>
<text text-anchor="start" x="934" y="-2061.3" font-family="Times,serif" font-size="14.00"> v6 = PtrToIntCastExpr&lt;int32&gt;(&amp;(v27))</text>
<text text-anchor="start" x="934" y="-2046.3" font-family="Times,serif" font-size="14.00"> g10 = v6</text>
<text text-anchor="start" x="934" y="-2031.3" font-family="Times,serif" font-size="14.00"> v48 = *(v5)</text>
<text text-anchor="start" x="934" y="-2016.3" font-family="Times,serif" font-size="14.00"> v7 = IntToPtrCastExpr&lt;ptr&gt;(v48)</text>
<text text-anchor="start" x="934" y="-2001.3" font-family="Times,serif" font-size="14.00"> v23 = v7</text>
<text text-anchor="start" x="934" y="-1986.3" font-family="Times,serif" font-size="14.00"> v49 = PtrToIntCastExpr&lt;int32&gt;(a3)</text>
<text text-anchor="start" x="934" y="-1971.3" font-family="Times,serif" font-size="14.00"> g2 = v49</text>
<text text-anchor="start" x="934" y="-1956.3" font-family="Times,serif" font-size="14.00"> v50 = *(IntToPtrCastExpr&lt;ptr&gt;((v49 + 4)))</text>
<text text-anchor="start" x="934" y="-1941.3" font-family="Times,serif" font-size="14.00"> v8 = IntToPtrCastExpr&lt;ptr&gt;((a2 + 4))</text>
<text text-anchor="start" x="934" y="-1926.3" font-family="Times,serif" font-size="14.00"> v51 = *(v8)</text>
<text text-anchor="start" x="934" y="-1911.3" font-family="Times,serif" font-size="14.00"> g2 = v51</text>
</g>
<!-- Node0x1006cdd0&#45;&gt;Node0x1005dc30 -->
<g id="edge1" class="edge"><title>Node0x1006cdd0&#45;&gt;Node0x1005dc30</title>
<path fill="none" stroke="black" d="M1094.5,-3344.48C1094.5,-3336.23 1094.5,-3327.05 1094.5,-3317.05"/>
<polygon fill="black" stroke="black" points="1098,-3316.78 1094.5,-3306.78 1091,-3316.78 1098,-3316.78"/>
</g>
<!-- Node0xe92e6a0 -->
<g id="node3" class="node"><title>Node0xe92e6a0</title>
<polygon fill="none" stroke="black" points="1035,-1827.5 1035,-1865.5 1154,-1865.5 1154,-1827.5 1035,-1827.5"/>
<text text-anchor="start" x="1043" y="-1850.3" font-family="Times,serif" font-size="14.00">if (v51 &lt; v50):</text>
<text text-anchor="start" x="1043" y="-1835.3" font-family="Times,serif" font-size="14.00"> else:</text>
</g>
<!-- Node0x1005dc30&#45;&gt;Node0xe92e6a0 -->
<g id="edge2" class="edge"><title>Node0x1005dc30&#45;&gt;Node0xe92e6a0</title>
<path fill="none" stroke="black" d="M1094.5,-1903.43C1094.5,-1892.85 1094.5,-1883.55 1094.5,-1875.73"/>
<polygon fill="black" stroke="black" points="1098,-1875.67 1094.5,-1865.67 1091,-1875.67 1098,-1875.67"/>
</g>
<!-- Node0x100576e0 -->
<g id="node4" class="node"><title>Node0x100576e0</title>
<polygon fill="none" stroke="black" points="984.5,-1722.5 984.5,-1775.5 1088.5,-1775.5 1088.5,-1722.5 984.5,-1722.5"/>
<text text-anchor="start" x="992.5" y="-1760.3" font-family="Times,serif" font-size="14.00">0x42d32e:</text>
<text text-anchor="start" x="992.5" y="-1745.3" font-family="Times,serif" font-size="14.00"> v52 = *(v8)</text>
<text text-anchor="start" x="992.5" y="-1730.3" font-family="Times,serif" font-size="14.00"> v43 = v52</text>
</g>
<!-- Node0xe92e6a0&#45;&gt;Node0x100576e0 -->
<g id="edge3" class="edge"><title>Node0xe92e6a0&#45;&gt;Node0x100576e0</title>
<path fill="none" stroke="black" d="M1068.5,-1827.14C1062.53,-1821.87 1056.71,-1815.71 1052.5,-1809 1048.05,-1801.9 1044.82,-1793.58 1042.49,-1785.45"/>
<polygon fill="black" stroke="black" points="1045.88,-1784.59 1040.06,-1775.74 1039.09,-1786.29 1045.88,-1784.59"/>
<text text-anchor="middle" x="1089.5" y="-1797.8" font-family="Times,serif" font-size="14.00">v51 &lt; v50</text>
</g>
<!-- Node0x100583f0 -->
<g id="node5" class="node"><title>Node0x100583f0</title>
<polygon fill="none" stroke="black" points="1107,-1722.5 1107,-1775.5 1202,-1775.5 1202,-1722.5 1107,-1722.5"/>
<text text-anchor="start" x="1115" y="-1760.3" font-family="Times,serif" font-size="14.00">0x42d339:</text>
<text text-anchor="start" x="1115" y="-1745.3" font-family="Times,serif" font-size="14.00"> g2 = v50</text>
<text text-anchor="start" x="1115" y="-1730.3" font-family="Times,serif" font-size="14.00"> v43 = v50</text>
</g>
<!-- Node0xe92e6a0&#45;&gt;Node0x100583f0 -->
<g id="edge4" class="edge"><title>Node0xe92e6a0&#45;&gt;Node0x100583f0</title>
<path fill="none" stroke="black" d="M1112.16,-1827.36C1117.14,-1821.73 1122.33,-1815.34 1126.5,-1809 1131.48,-1801.43 1136.08,-1792.83 1140.05,-1784.59"/>
<polygon fill="black" stroke="black" points="1143.23,-1786.06 1144.25,-1775.51 1136.87,-1783.12 1143.23,-1786.06"/>
<text text-anchor="middle" x="1178.5" y="-1797.8" font-family="Times,serif" font-size="14.00">v51 &gt;= v50</text>
</g>
<!-- Node0xd332190 -->
<g id="node6" class="node"><title>Node0xd332190</title>
<polygon fill="none" stroke="black" points="951.5,-1586.5 951.5,-1684.5 1261.5,-1684.5 1261.5,-1586.5 951.5,-1586.5"/>
<text text-anchor="start" x="959.5" y="-1669.3" font-family="Times,serif" font-size="14.00">0x42d33f:</text>
<text text-anchor="start" x="959.5" y="-1654.3" font-family="Times,serif" font-size="14.00"> v27 = IntToPtrCastExpr&lt;ptr&gt;(v43)</text>
<text text-anchor="start" x="959.5" y="-1639.3" font-family="Times,serif" font-size="14.00"> g2 = 0</text>
<text text-anchor="start" x="959.5" y="-1624.3" font-family="Times,serif" font-size="14.00"> v54 = PtrToIntCastExpr&lt;int32&gt;(a1)</text>
<text text-anchor="start" x="959.5" y="-1609.3" font-family="Times,serif" font-size="14.00"> v9 = IntToPtrCastExpr&lt;ptr&gt;((v54 + 8))</text>
<text text-anchor="start" x="959.5" y="-1594.3" font-family="Times,serif" font-size="14.00"> v66 = v7</text>
</g>
<!-- Node0x100576e0&#45;&gt;Node0xd332190 -->
<g id="edge5" class="edge"><title>Node0x100576e0&#45;&gt;Node0xd332190</title>
<path fill="none" stroke="black" d="M1052.56,-1722.42C1058.05,-1713.68 1064.42,-1703.52 1070.83,-1693.32"/>
<polygon fill="black" stroke="black" points="1073.84,-1695.1 1076.2,-1684.77 1067.92,-1691.38 1073.84,-1695.1"/>
</g>
<!-- Node0x100583f0&#45;&gt;Node0xd332190 -->
<g id="edge6" class="edge"><title>Node0x100583f0&#45;&gt;Node0xd332190</title>
<path fill="none" stroke="black" d="M1143.49,-1722.42C1139.84,-1713.94 1135.62,-1704.13 1131.36,-1694.24"/>
<polygon fill="black" stroke="black" points="1134.45,-1692.57 1127.28,-1684.77 1128.02,-1695.34 1134.45,-1692.57"/>
</g>
<!-- Node0x1006c6b0 -->
<g id="node7" class="node"><title>Node0x1006c6b0</title>
<polygon fill="none" stroke="black" points="1052.5,-1512.5 1052.5,-1548.5 1160.5,-1548.5 1160.5,-1512.5 1052.5,-1512.5"/>
<text text-anchor="start" x="1060.5" y="-1526.8" font-family="Times,serif" font-size="14.00">if (v50 != 0):</text>
</g>
<!-- Node0xd332190&#45;&gt;Node0x1006c6b0 -->
<g id="edge7" class="edge"><title>Node0xd332190&#45;&gt;Node0x1006c6b0</title>
<path fill="none" stroke="black" d="M1106.5,-1586.32C1106.5,-1576.89 1106.5,-1567.32 1106.5,-1558.87"/>
<polygon fill="black" stroke="black" points="1110,-1558.86 1106.5,-1548.86 1103,-1558.86 1110,-1558.86"/>
</g>
<!-- Node0xe931900 -->
<g id="node8" class="node"><title>Node0xe931900</title>
<polygon fill="none" stroke="black" points="813,-1347.5 813,-1460.5 1132,-1460.5 1132,-1347.5 813,-1347.5"/>
<text text-anchor="start" x="821" y="-1445.3" font-family="Times,serif" font-size="14.00">0x42d363:</text>
<text text-anchor="start" x="821" y="-1430.3" font-family="Times,serif" font-size="14.00"> v10 = IntToPtrCastExpr&lt;ptr&gt;((a2 + 8))</text>
<text text-anchor="start" x="821" y="-1415.3" font-family="Times,serif" font-size="14.00"> v2 = IntToPtrCastExpr&lt;ptr&gt;(v43)</text>
<text text-anchor="start" x="821" y="-1400.3" font-family="Times,serif" font-size="14.00"> v11 = IntToPtrCastExpr&lt;ptr&gt;((v49 + 8))</text>
<text text-anchor="start" x="821" y="-1385.3" font-family="Times,serif" font-size="14.00"> v3 = IntToPtrCastExpr&lt;ptr&gt;(v50)</text>
<text text-anchor="start" x="821" y="-1370.3" font-family="Times,serif" font-size="14.00"> v59 = v7</text>
<text text-anchor="start" x="821" y="-1355.3" font-family="Times,serif" font-size="14.00"> v53 = 0</text>
</g>
<!-- Node0x1006c6b0&#45;&gt;Node0xe931900 -->
<g id="edge8" class="edge"><title>Node0x1006c6b0&#45;&gt;Node0xe931900</title>
<path fill="none" stroke="black" d="M1088.15,-1512.45C1075.48,-1500.68 1057.78,-1484.23 1040.02,-1467.74"/>
<polygon fill="black" stroke="black" points="1042.13,-1464.92 1032.43,-1460.68 1037.37,-1470.05 1042.13,-1464.92"/>
<text text-anchor="middle" x="1099" y="-1482.8" font-family="Times,serif" font-size="14.00">v50 != 0</text>
</g>
<!-- Node0x100599f0 -->
<g id="node9" class="node"><title>Node0x100599f0</title>
<polygon fill="none" stroke="black" points="1174.5,-1347.5 1174.5,-1460.5 1500.5,-1460.5 1500.5,-1347.5 1174.5,-1347.5"/>
<text text-anchor="start" x="1182.5" y="-1445.3" font-family="Times,serif" font-size="14.00">0x42d3e6:</text>
<text text-anchor="start" x="1182.5" y="-1430.3" font-family="Times,serif" font-size="14.00"> v65 = PtrToIntCastExpr&lt;int32&gt;(v66)</text>
<text text-anchor="start" x="1182.5" y="-1415.3" font-family="Times,serif" font-size="14.00"> g2 = v65</text>
<text text-anchor="start" x="1182.5" y="-1400.3" font-family="Times,serif" font-size="14.00"> v67 = *(v9)</text>
<text text-anchor="start" x="1182.5" y="-1385.3" font-family="Times,serif" font-size="14.00"> function_441820(v67, v65, ((v50 * 4) + 4))</text>
<text text-anchor="start" x="1182.5" y="-1370.3" font-family="Times,serif" font-size="14.00"> g2 = v49</text>
<text text-anchor="start" x="1182.5" y="-1355.3" font-family="Times,serif" font-size="14.00"> v18 = function_42b4a0(a1, a3)</text>
</g>
<!-- Node0x1006c6b0&#45;&gt;Node0x100599f0 -->
<g id="edge9" class="edge"><title>Node0x1006c6b0&#45;&gt;Node0x100599f0</title>
<path fill="none" stroke="black" d="M1138.14,-1512.45C1161.01,-1500.12 1193.4,-1482.67 1225.44,-1465.4"/>
<polygon fill="black" stroke="black" points="1227.31,-1468.36 1234.45,-1460.54 1223.99,-1462.2 1227.31,-1468.36"/>
<text text-anchor="middle" x="1230" y="-1482.8" font-family="Times,serif" font-size="14.00">v50 == 0</text>
</g>
<!-- Node0x1006a990 -->
<g id="node10" class="node"><title>Node0x1006a990</title>
<polygon fill="none" stroke="black" points="872,-1272.5 872,-1308.5 969,-1308.5 969,-1272.5 872,-1272.5"/>
<text text-anchor="start" x="880" y="-1286.8" font-family="Times,serif" font-size="14.00">while True:</text>
</g>
<!-- Node0xe931900&#45;&gt;Node0x1006a990 -->
<g id="edge10" class="edge"><title>Node0xe931900&#45;&gt;Node0x1006a990</title>
<path fill="none" stroke="black" d="M946.5,-1347.25C941.777,-1337.12 937.055,-1327 932.955,-1318.21"/>
<polygon fill="black" stroke="black" points="936.024,-1316.51 928.625,-1308.92 929.68,-1319.46 936.024,-1316.51"/>
</g>
<!-- Node0x10067ae0 -->
<g id="node11" class="node"><title>Node0x10067ae0</title>
<polygon fill="none" stroke="black" points="1320.5,-1271.5 1320.5,-1309.5 1422.5,-1309.5 1422.5,-1271.5 1320.5,-1271.5"/>
<text text-anchor="start" x="1328.5" y="-1294.3" font-family="Times,serif" font-size="14.00">if (v18 &lt; 0):</text>
<text text-anchor="start" x="1328.5" y="-1279.3" font-family="Times,serif" font-size="14.00"> else:</text>
</g>
<!-- Node0x100599f0&#45;&gt;Node0x10067ae0 -->
<g id="edge11" class="edge"><title>Node0x100599f0&#45;&gt;Node0x10067ae0</title>
<path fill="none" stroke="black" d="M1354.5,-1347.25C1357.43,-1337.65 1360.35,-1328.05 1362.93,-1319.59"/>
<polygon fill="black" stroke="black" points="1366.32,-1320.5 1365.89,-1309.91 1359.62,-1318.46 1366.32,-1320.5"/>
</g>
<!-- Node0x1006d870 -->
<g id="node12" class="node"><title>Node0x1006d870</title>
<polygon fill="none" stroke="black" points="105,-806.5 105,-1219.5 892,-1219.5 892,-806.5 105,-806.5"/>
<text text-anchor="start" x="113" y="-1204.3" font-family="Times,serif" font-size="14.00">0x42d363:</text>
<text text-anchor="start" x="113" y="-1189.3" font-family="Times,serif" font-size="14.00"> v55 = *(v9)</text>
<text text-anchor="start" x="113" y="-1174.3" font-family="Times,serif" font-size="14.00"> g2 = v53</text>
<text text-anchor="start" x="113" y="-1159.3" font-family="Times,serif" font-size="14.00"> v56 = *(IntToPtrCastExpr&lt;ptr&gt;((v55 + (v53 * 4))))</text>
<text text-anchor="start" x="113" y="-1144.3" font-family="Times,serif" font-size="14.00"> v57 = *(v10)</text>
<text text-anchor="start" x="113" y="-1129.3" font-family="Times,serif" font-size="14.00"> g2 = v57</text>
<text text-anchor="start" x="113" y="-1114.3" font-family="Times,serif" font-size="14.00"> v46 = *(IntToPtrCastExpr&lt;ptr&gt;(v57))</text>
<text text-anchor="start" x="113" y="-1099.3" font-family="Times,serif" font-size="14.00"> v44 = *(BitCastExpr&lt;ptr&gt;(v59))</text>
<text text-anchor="start" x="113" y="-1084.3" font-family="Times,serif" font-size="14.00"> v72 = (((v46 * v56) + v44) * a4)</text>
<text text-anchor="start" x="113" y="-1069.3" font-family="Times,serif" font-size="14.00"> g2 = a2</text>
<text text-anchor="start" x="113" y="-1054.3" font-family="Times,serif" font-size="14.00"> v60 = *(v10)</text>
<text text-anchor="start" x="113" y="-1039.3" font-family="Times,serif" font-size="14.00"> function_42be30(v2, IntToPtrCastExpr&lt;ptr&gt;(v60), BitCastExpr&lt;ptr&gt;(v59), IntToPtrCastExpr&lt;ptr&gt;(v56))</text>
<text text-anchor="start" x="113" y="-1024.3" font-family="Times,serif" font-size="14.00"> g2 = v72</text>
<text text-anchor="start" x="113" y="-1009.3" font-family="Times,serif" font-size="14.00"> v61 = v23</text>
<text text-anchor="start" x="113" y="-994.3" font-family="Times,serif" font-size="14.00"> v62 = *(v11)</text>
<text text-anchor="start" x="113" y="-979.3" font-family="Times,serif" font-size="14.00"> g2 = v62</text>
<text text-anchor="start" x="113" y="-964.3" font-family="Times,serif" font-size="14.00"> function_42be30(v3, IntToPtrCastExpr&lt;ptr&gt;(v62), BitCastExpr&lt;ptr&gt;(v61), IntToPtrCastExpr&lt;ptr&gt;(v72))</text>
<text text-anchor="start" x="113" y="-949.3" font-family="Times,serif" font-size="14.00"> g10 = v6</text>
<text text-anchor="start" x="113" y="-934.3" font-family="Times,serif" font-size="14.00"> v63 = v23</text>
<text text-anchor="start" x="113" y="-919.3" font-family="Times,serif" font-size="14.00"> *(BitCastExpr&lt;ptr&gt;(v63)) = v56</text>
<text text-anchor="start" x="113" y="-904.3" font-family="Times,serif" font-size="14.00"> v64 = v23</text>
<text text-anchor="start" x="113" y="-889.3" font-family="Times,serif" font-size="14.00"> v13 = IntToPtrCastExpr&lt;ptr&gt;((PtrToIntCastExpr&lt;int32&gt;(v64) + 4))</text>
<text text-anchor="start" x="113" y="-874.3" font-family="Times,serif" font-size="14.00"> v23 = v13</text>
<text text-anchor="start" x="113" y="-859.3" font-family="Times,serif" font-size="14.00"> *(&amp;(v13[&#39;1&#39;][v50])) = 0</text>
<text text-anchor="start" x="113" y="-844.3" font-family="Times,serif" font-size="14.00"> v1 = (v53 + 1)</text>
<text text-anchor="start" x="113" y="-829.3" font-family="Times,serif" font-size="14.00"> g2 = v1</text>
<text text-anchor="start" x="113" y="-814.3" font-family="Times,serif" font-size="14.00"> v58 = v23</text>
</g>
<!-- Node0x1006a990&#45;&gt;Node0x1006d870 -->
<g id="edge12" class="edge"><title>Node0x1006a990&#45;&gt;Node0x1006d870</title>
<path fill="none" stroke="black" d="M894.42,-1272.47C876.845,-1261 851.537,-1244.48 822.092,-1225.26"/>
<polygon fill="black" stroke="black" points="823.967,-1222.3 813.68,-1219.76 820.141,-1228.16 823.967,-1222.3"/>
<text text-anchor="middle" x="876.5" y="-1241.8" font-family="Times,serif" font-size="14.00">True</text>
</g>
<!-- Node0x10061a40 -->
<g id="node13" class="node"><title>Node0x10061a40</title>
<polygon fill="none" stroke="black" points="948,-964 948,-1062 1795,-1062 1795,-964 948,-964"/>
<text text-anchor="start" x="956" y="-1046.8" font-family="Times,serif" font-size="14.00">0x42d434:</text>
<text text-anchor="start" x="956" y="-1031.8" font-family="Times,serif" font-size="14.00"> v70 = *(v5)</text>
<text text-anchor="start" x="956" y="-1016.8" font-family="Times,serif" font-size="14.00"> g2 = v54</text>
<text text-anchor="start" x="956" y="-1001.8" font-family="Times,serif" font-size="14.00"> v71 = *(v9)</text>
<text text-anchor="start" x="956" y="-986.8" font-family="Times,serif" font-size="14.00"> v20 = function_42b9a0(IntToPtrCastExpr&lt;ptr&gt;(v50), IntToPtrCastExpr&lt;ptr&gt;(v71), IntToPtrCastExpr&lt;ptr&gt;(v70))</text>
<text text-anchor="start" x="956" y="-971.8" font-family="Times,serif" font-size="14.00"> result = v20</text>
</g>
<!-- Node0x10067ae0&#45;&gt;Node0x10061a40 -->
<g id="edge13" class="edge"><title>Node0x10067ae0&#45;&gt;Node0x10061a40</title>
<path fill="none" stroke="black" d="M1371.5,-1271.42C1371.5,-1231.68 1371.5,-1135.23 1371.5,-1072.33"/>
<polygon fill="black" stroke="black" points="1375,-1072.16 1371.5,-1062.16 1368,-1072.16 1375,-1072.16"/>
<text text-anchor="middle" x="1400" y="-1241.8" font-family="Times,serif" font-size="14.00">v18 &lt; 0</text>
</g>
<!-- Node0x10061350 -->
<g id="node14" class="node"><title>Node0x10061350</title>
<polygon fill="none" stroke="black" points="1813,-956.5 1813,-1069.5 2660,-1069.5 2660,-956.5 1813,-956.5"/>
<text text-anchor="start" x="1821" y="-1054.3" font-family="Times,serif" font-size="14.00">0x42d418:</text>
<text text-anchor="start" x="1821" y="-1039.3" font-family="Times,serif" font-size="14.00"> v68 = *(v9)</text>
<text text-anchor="start" x="1821" y="-1024.3" font-family="Times,serif" font-size="14.00"> g2 = v68</text>
<text text-anchor="start" x="1821" y="-1009.3" font-family="Times,serif" font-size="14.00"> v69 = *(IntToPtrCastExpr&lt;ptr&gt;((v49 + 8)))</text>
<text text-anchor="start" x="1821" y="-994.3" font-family="Times,serif" font-size="14.00"> g2 = v50</text>
<text text-anchor="start" x="1821" y="-979.3" font-family="Times,serif" font-size="14.00"> v19 = function_42b9a0(IntToPtrCastExpr&lt;ptr&gt;(v50), IntToPtrCastExpr&lt;ptr&gt;(v69), IntToPtrCastExpr&lt;ptr&gt;(v68))</text>
<text text-anchor="start" x="1821" y="-964.3" font-family="Times,serif" font-size="14.00"> result = v19</text>
</g>
<!-- Node0x10067ae0&#45;&gt;Node0x10061350 -->
<g id="edge14" class="edge"><title>Node0x10067ae0&#45;&gt;Node0x10061350</title>
<path fill="none" stroke="black" d="M1422.58,-1286.04C1504.68,-1279.44 1670.39,-1261.79 1804.5,-1220 1921.15,-1183.65 2046.32,-1121.1 2131.74,-1074.43"/>
<polygon fill="black" stroke="black" points="2133.58,-1077.42 2140.66,-1069.54 2130.21,-1071.28 2133.58,-1077.42"/>
<text text-anchor="middle" x="1769" y="-1241.8" font-family="Times,serif" font-size="14.00">v18 &gt;= 0</text>
</g>
<!-- Node0x1006ab10 -->
<g id="node15" class="node"><title>Node0x1006ab10</title>
<polygon fill="none" stroke="black" points="618.5,-716.5 618.5,-752.5 740.5,-752.5 740.5,-716.5 618.5,-716.5"/>
<text text-anchor="start" x="626.5" y="-730.8" font-family="Times,serif" font-size="14.00">if (v1 &gt;= v50):</text>
</g>
<!-- Node0x1006d870&#45;&gt;Node0x1006ab10 -->
<g id="edge15" class="edge"><title>Node0x1006d870&#45;&gt;Node0x1006ab10</title>
<path fill="none" stroke="black" d="M633.123,-806.347C644.606,-788.805 654.835,-773.179 662.744,-761.096"/>
<polygon fill="black" stroke="black" points="665.775,-762.858 668.323,-752.574 659.918,-759.024 665.775,-762.858"/>
</g>
<!-- Node0x10056c30 -->
<g id="node16" class="node"><title>Node0x10056c30</title>
<polygon fill="none" stroke="black" points="1683,-700.5 1683,-768.5 1796,-768.5 1796,-700.5 1683,-700.5"/>
<text text-anchor="start" x="1691" y="-753.3" font-family="Times,serif" font-size="14.00">0x42d44e:</text>
<text text-anchor="start" x="1691" y="-738.3" font-family="Times,serif" font-size="14.00"> v45 = v30</text>
<text text-anchor="start" x="1691" y="-723.3" font-family="Times,serif" font-size="14.00"> g3 = v45</text>
<text text-anchor="start" x="1691" y="-708.3" font-family="Times,serif" font-size="14.00"> return result</text>
</g>
<!-- Node0x10061a40&#45;&gt;Node0x10056c30 -->
<g id="edge16" class="edge"><title>Node0x10061a40&#45;&gt;Node0x10056c30</title>
<path fill="none" stroke="black" d="M1435.6,-963.837C1506.99,-910.198 1621.03,-824.514 1687.23,-774.771"/>
<polygon fill="black" stroke="black" points="1689.57,-777.396 1695.46,-768.591 1685.36,-771.799 1689.57,-777.396"/>
</g>
<!-- Node0x10061350&#45;&gt;Node0x10056c30 -->
<g id="edge17" class="edge"><title>Node0x10061350&#45;&gt;Node0x10056c30</title>
<path fill="none" stroke="black" d="M2136.52,-956.379C2037.79,-901.45 1889.65,-819.035 1805.02,-771.951"/>
<polygon fill="black" stroke="black" points="1806.47,-768.752 1796.03,-766.948 1803.06,-774.869 1806.47,-768.752"/>
</g>
<!-- Node0xd3353f0 -->
<g id="node17" class="node"><title>Node0xd3353f0</title>
<polygon fill="none" stroke="black" points="634.5,-603 634.5,-641 724.5,-641 724.5,-603 634.5,-603"/>
<text text-anchor="start" x="642.5" y="-625.8" font-family="Times,serif" font-size="14.00">v66 = v58</text>
<text text-anchor="start" x="642.5" y="-610.8" font-family="Times,serif" font-size="14.00"> break</text>
</g>
<!-- Node0x1006ab10&#45;&gt;Node0xd3353f0 -->
<g id="edge18" class="edge"><title>Node0x1006ab10&#45;&gt;Node0xd3353f0</title>
<path fill="none" stroke="black" d="M679.5,-716.234C679.5,-698.867 679.5,-671.793 679.5,-651.286"/>
<polygon fill="black" stroke="black" points="683,-651.247 679.5,-641.247 676,-651.247 683,-651.247"/>
<text text-anchor="middle" x="718" y="-670.8" font-family="Times,serif" font-size="14.00">v1 &gt;= v50</text>
</g>
<!-- Node0x10067b70 -->
<g id="node18" class="node"><title>Node0x10067b70</title>
<polygon fill="none" stroke="black" points="820.5,-595.5 820.5,-648.5 910.5,-648.5 910.5,-595.5 820.5,-595.5"/>
<text text-anchor="start" x="828.5" y="-633.3" font-family="Times,serif" font-size="14.00">v59 = v58</text>
<text text-anchor="start" x="828.5" y="-618.3" font-family="Times,serif" font-size="14.00"> v53 = v1</text>
<text text-anchor="start" x="828.5" y="-603.3" font-family="Times,serif" font-size="14.00"> continue</text>
</g>
<!-- Node0x1006ab10&#45;&gt;Node0x10067b70 -->
<g id="edge19" class="edge"><title>Node0x1006ab10&#45;&gt;Node0x10067b70</title>
<path fill="none" stroke="black" d="M708.155,-716.477C736.125,-699.86 779.324,-674.196 813.387,-653.96"/>
<polygon fill="black" stroke="black" points="815.473,-656.791 822.283,-648.675 811.898,-650.773 815.473,-656.791"/>
<text text-anchor="middle" x="822" y="-670.8" font-family="Times,serif" font-size="14.00">v1 &lt; v50</text>
</g>
<!-- Node0xd337390 -->
<g id="node19" class="node"><title>Node0xd337390</title>
<polygon fill="none" stroke="black" points="1593.5,-23.5 1593.5,-59.5 1647.5,-59.5 1647.5,-23.5 1593.5,-23.5"/>
<text text-anchor="start" x="1601.5" y="-37.8" font-family="Times,serif" font-size="14.00">exit:</text>
</g>
<!-- Node0x10056c30&#45;&gt;Node0xd337390 -->
<g id="edge20" class="edge"><title>Node0x10056c30&#45;&gt;Node0xd337390</title>
<path fill="none" stroke="black" d="M1739.5,-700.135C1739.5,-678.211 1739.5,-648.898 1739.5,-623 1739.5,-623 1739.5,-623 1739.5,-130.5 1739.5,-89.1059 1692.38,-64.9611 1657.44,-52.7483"/>
<polygon fill="black" stroke="black" points="1658.1,-49.2806 1647.5,-49.4753 1655.91,-55.929 1658.1,-49.2806"/>
</g>
<!-- Node0x10060760 -->
<g id="node20" class="node"><title>Node0x10060760</title>
<polygon fill="none" stroke="black" points="516.5,-444.5 516.5,-557.5 842.5,-557.5 842.5,-444.5 516.5,-444.5"/>
<text text-anchor="start" x="524.5" y="-542.3" font-family="Times,serif" font-size="14.00">0x42d3e6:</text>
<text text-anchor="start" x="524.5" y="-527.3" font-family="Times,serif" font-size="14.00"> v65 = PtrToIntCastExpr&lt;int32&gt;(v66)</text>
<text text-anchor="start" x="524.5" y="-512.3" font-family="Times,serif" font-size="14.00"> g2 = v65</text>
<text text-anchor="start" x="524.5" y="-497.3" font-family="Times,serif" font-size="14.00"> v67 = *(v9)</text>
<text text-anchor="start" x="524.5" y="-482.3" font-family="Times,serif" font-size="14.00"> function_441820(v67, v65, ((v50 * 4) + 4))</text>
<text text-anchor="start" x="524.5" y="-467.3" font-family="Times,serif" font-size="14.00"> g2 = v49</text>
<text text-anchor="start" x="524.5" y="-452.3" font-family="Times,serif" font-size="14.00"> v18 = function_42b4a0(a1, a3)</text>
</g>
<!-- Node0xd3353f0&#45;&gt;Node0x10060760 -->
<g id="edge21" class="edge"><title>Node0xd3353f0&#45;&gt;Node0x10060760</title>
<path fill="none" stroke="black" d="M679.5,-602.926C679.5,-593.333 679.5,-580.886 679.5,-568.028"/>
<polygon fill="black" stroke="black" points="683,-567.674 679.5,-557.674 676,-567.674 683,-567.674"/>
</g>
<!-- Node0x10067b70&#45;&gt;Node0x1006a990 -->
<g id="edge22" class="edge"><title>Node0x10067b70&#45;&gt;Node0x1006a990</title>
<path fill="none" stroke="black" d="M871.632,-648.576C879.788,-683.787 893.94,-749.286 900.5,-806 920.471,-978.654 921.225,-1188.01 920.779,-1262"/>
<polygon fill="black" stroke="black" points="917.277,-1262.27 920.704,-1272.3 924.277,-1262.33 917.277,-1262.27"/>
</g>
<!-- Node0x1006aa20 -->
<g id="node21" class="node"><title>Node0x1006aa20</title>
<polygon fill="none" stroke="black" points="628.5,-368.5 628.5,-406.5 730.5,-406.5 730.5,-368.5 628.5,-368.5"/>
<text text-anchor="start" x="636.5" y="-391.3" font-family="Times,serif" font-size="14.00">if (v18 &lt; 0):</text>
<text text-anchor="start" x="636.5" y="-376.3" font-family="Times,serif" font-size="14.00"> else:</text>
</g>
<!-- Node0x10060760&#45;&gt;Node0x1006aa20 -->
<g id="edge23" class="edge"><title>Node0x10060760&#45;&gt;Node0x1006aa20</title>
<path fill="none" stroke="black" d="M679.5,-444.25C679.5,-434.862 679.5,-425.474 679.5,-417.151"/>
<polygon fill="black" stroke="black" points="683,-416.912 679.5,-406.912 676,-416.912 683,-416.912"/>
</g>
<!-- Node0x1005b1e0 -->
<g id="node22" class="node"><title>Node0x1005b1e0</title>
<polygon fill="none" stroke="black" points="0,-211 0,-309 847,-309 847,-211 0,-211"/>
<text text-anchor="start" x="8" y="-293.8" font-family="Times,serif" font-size="14.00">0x42d434:</text>
<text text-anchor="start" x="8" y="-278.8" font-family="Times,serif" font-size="14.00"> v70 = *(v5)</text>
<text text-anchor="start" x="8" y="-263.8" font-family="Times,serif" font-size="14.00"> g2 = v54</text>
<text text-anchor="start" x="8" y="-248.8" font-family="Times,serif" font-size="14.00"> v71 = *(v9)</text>
<text text-anchor="start" x="8" y="-233.8" font-family="Times,serif" font-size="14.00"> v20 = function_42b9a0(IntToPtrCastExpr&lt;ptr&gt;(v50), IntToPtrCastExpr&lt;ptr&gt;(v71), IntToPtrCastExpr&lt;ptr&gt;(v70))</text>
<text text-anchor="start" x="8" y="-218.8" font-family="Times,serif" font-size="14.00"> result = v20</text>
</g>
<!-- Node0x1006aa20&#45;&gt;Node0x1005b1e0 -->
<g id="edge24" class="edge"><title>Node0x1006aa20&#45;&gt;Node0x1005b1e0</title>
<path fill="none" stroke="black" d="M642.549,-368.385C613.134,-353.965 570.419,-333.025 530.504,-313.457"/>
<polygon fill="black" stroke="black" points="532.023,-310.304 521.503,-309.044 528.941,-316.589 532.023,-310.304"/>
<text text-anchor="middle" x="633" y="-338.8" font-family="Times,serif" font-size="14.00">v18 &lt; 0</text>
</g>
<!-- Node0x1006b8b0 -->
<g id="node23" class="node"><title>Node0x1006b8b0</title>
<polygon fill="none" stroke="black" points="865,-203.5 865,-316.5 1712,-316.5 1712,-203.5 865,-203.5"/>
<text text-anchor="start" x="873" y="-301.3" font-family="Times,serif" font-size="14.00">0x42d418:</text>
<text text-anchor="start" x="873" y="-286.3" font-family="Times,serif" font-size="14.00"> v68 = *(v9)</text>
<text text-anchor="start" x="873" y="-271.3" font-family="Times,serif" font-size="14.00"> g2 = v68</text>
<text text-anchor="start" x="873" y="-256.3" font-family="Times,serif" font-size="14.00"> v69 = *(IntToPtrCastExpr&lt;ptr&gt;((v49 + 8)))</text>
<text text-anchor="start" x="873" y="-241.3" font-family="Times,serif" font-size="14.00"> g2 = v50</text>
<text text-anchor="start" x="873" y="-226.3" font-family="Times,serif" font-size="14.00"> v19 = function_42b9a0(IntToPtrCastExpr&lt;ptr&gt;(v50), IntToPtrCastExpr&lt;ptr&gt;(v69), IntToPtrCastExpr&lt;ptr&gt;(v68))</text>
<text text-anchor="start" x="873" y="-211.3" font-family="Times,serif" font-size="14.00"> result = v19</text>
</g>
<!-- Node0x1006aa20&#45;&gt;Node0x1006b8b0 -->
<g id="edge25" class="edge"><title>Node0x1006aa20&#45;&gt;Node0x1006b8b0</title>
<path fill="none" stroke="black" d="M730.637,-375.962C792.969,-363.117 903.154,-340.41 1009.23,-318.551"/>
<polygon fill="black" stroke="black" points="1010.06,-321.953 1019.15,-316.507 1008.65,-315.097 1010.06,-321.953"/>
<text text-anchor="middle" x="947" y="-338.8" font-family="Times,serif" font-size="14.00">v18 &gt;= 0</text>
</g>
<!-- Node0xd331fc0 -->
<g id="node24" class="node"><title>Node0xd331fc0</title>
<polygon fill="none" stroke="black" points="1232,-97.5 1232,-165.5 1345,-165.5 1345,-97.5 1232,-97.5"/>
<text text-anchor="start" x="1240" y="-150.3" font-family="Times,serif" font-size="14.00">0x42d44e:</text>
<text text-anchor="start" x="1240" y="-135.3" font-family="Times,serif" font-size="14.00"> v45 = v30</text>
<text text-anchor="start" x="1240" y="-120.3" font-family="Times,serif" font-size="14.00"> g3 = v45</text>
<text text-anchor="start" x="1240" y="-105.3" font-family="Times,serif" font-size="14.00"> return result</text>
</g>
<!-- Node0x1005b1e0&#45;&gt;Node0xd331fc0 -->
<g id="edge26" class="edge"><title>Node0x1005b1e0&#45;&gt;Node0xd331fc0</title>
<path fill="none" stroke="black" d="M751.753,-210.995C924.796,-185.689 1121.51,-156.92 1221.89,-142.241"/>
<polygon fill="black" stroke="black" points="1222.5,-145.69 1231.89,-140.78 1221.48,-138.763 1222.5,-145.69"/>
</g>
<!-- Node0x1006b8b0&#45;&gt;Node0xd331fc0 -->
<g id="edge27" class="edge"><title>Node0x1006b8b0&#45;&gt;Node0xd331fc0</title>
<path fill="none" stroke="black" d="M1288.5,-203.147C1288.5,-193.918 1288.5,-184.476 1288.5,-175.622"/>
<polygon fill="black" stroke="black" points="1292,-175.545 1288.5,-165.545 1285,-175.545 1292,-175.545"/>
</g>
<!-- Node0xd331fc0&#45;&gt;Node0xd337390 -->
<g id="edge28" class="edge"><title>Node0xd331fc0&#45;&gt;Node0xd337390</title>
<path fill="none" stroke="black" d="M1345.2,-115.472C1413.33,-97.4117 1525.7,-67.6277 1583.55,-52.2941"/>
<polygon fill="black" stroke="black" points="1584.59,-55.6395 1593.36,-49.6941 1582.8,-48.8731 1584.59,-55.6395"/>
</g>
</g>
</svg>
