<?xml version="1.0" encoding="UTF-8" standalone="no"?>
<!DOCTYPE svg PUBLIC "-//W3C//DTD SVG 1.1//EN"
 "http://www.w3.org/Graphics/SVG/1.1/DTD/svg11.dtd">
<!-- Generated by graphviz version 2.38.0 (20140413.2041)
 -->
<!-- Title: Control&#45;flow graph for function &#39;function_4203d1(*a1, a2, a3)&#39;. Pages: 1 -->
<svg width="710pt" height="1437pt"
 viewBox="0.00 0.00 710.00 1437.00" xmlns="http://www.w3.org/2000/svg" xmlns:xlink="http://www.w3.org/1999/xlink">
<g id="graph0" class="graph" transform="scale(1 1) rotate(0) translate(4 1433)">
<title>Control&#45;flow graph for function &#39;function_4203d1(*a1, a2, a3)&#39;.</title>
<polygon fill="white" stroke="none" points="-4,4 -4,-1433 706,-1433 706,4 -4,4"/>
<text text-anchor="middle" x="351" y="-7.8" font-family="Times,serif" font-size="14.00">Control&#45;flow graph for function &#39;function_4203d1(*a1, a2, a3)&#39;.</text>
<!-- Node0xf92c270 -->
<g id="node1" class="node"><title>Node0xf92c270</title>
<polygon fill="none" stroke="black" points="322.5,-1360.5 322.5,-1428.5 381.5,-1428.5 381.5,-1360.5 322.5,-1360.5"/>
<text text-anchor="start" x="330.5" y="-1413.3" font-family="Times,serif" font-size="14.00">entry:</text>
<text text-anchor="start" x="330.5" y="-1398.3" font-family="Times,serif" font-size="14.00"> a1</text>
<text text-anchor="start" x="330.5" y="-1383.3" font-family="Times,serif" font-size="14.00"> a2</text>
<text text-anchor="start" x="330.5" y="-1368.3" font-family="Times,serif" font-size="14.00"> a3</text>
</g>
<!-- Node0xf933230 -->
<g id="node2" class="node"><title>Node0xf933230</title>
<polygon fill="none" stroke="black" points="183.5,-654.5 183.5,-1322.5 520.5,-1322.5 520.5,-654.5 183.5,-654.5"/>
<text text-anchor="start" x="191.5" y="-1307.3" font-family="Times,serif" font-size="14.00">v1</text>
<text text-anchor="start" x="191.5" y="-1292.3" font-family="Times,serif" font-size="14.00"> v2</text>
<text text-anchor="start" x="191.5" y="-1277.3" font-family="Times,serif" font-size="14.00"> v3</text>
<text text-anchor="start" x="191.5" y="-1262.3" font-family="Times,serif" font-size="14.00"> v4</text>
<text text-anchor="start" x="191.5" y="-1247.3" font-family="Times,serif" font-size="14.00"> v5</text>
<text text-anchor="start" x="191.5" y="-1232.3" font-family="Times,serif" font-size="14.00"> v6</text>
<text text-anchor="start" x="191.5" y="-1217.3" font-family="Times,serif" font-size="14.00"> v7</text>
<text text-anchor="start" x="191.5" y="-1202.3" font-family="Times,serif" font-size="14.00"> v8</text>
<text text-anchor="start" x="191.5" y="-1187.3" font-family="Times,serif" font-size="14.00"> v9</text>
<text text-anchor="start" x="191.5" y="-1172.3" font-family="Times,serif" font-size="14.00"> v10</text>
<text text-anchor="start" x="191.5" y="-1157.3" font-family="Times,serif" font-size="14.00"> v11</text>
<text text-anchor="start" x="191.5" y="-1142.3" font-family="Times,serif" font-size="14.00"> v12</text>
<text text-anchor="start" x="191.5" y="-1127.3" font-family="Times,serif" font-size="14.00"> v13</text>
<text text-anchor="start" x="191.5" y="-1112.3" font-family="Times,serif" font-size="14.00"> v14</text>
<text text-anchor="start" x="191.5" y="-1097.3" font-family="Times,serif" font-size="14.00"> v15</text>
<text text-anchor="start" x="191.5" y="-1082.3" font-family="Times,serif" font-size="14.00"> v16</text>
<text text-anchor="start" x="191.5" y="-1067.3" font-family="Times,serif" font-size="14.00"> v17</text>
<text text-anchor="start" x="191.5" y="-1052.3" font-family="Times,serif" font-size="14.00"> v18</text>
<text text-anchor="start" x="191.5" y="-1037.3" font-family="Times,serif" font-size="14.00"> v19</text>
<text text-anchor="start" x="191.5" y="-1022.3" font-family="Times,serif" font-size="14.00"> v20</text>
<text text-anchor="start" x="191.5" y="-1007.3" font-family="Times,serif" font-size="14.00"> v21</text>
<text text-anchor="start" x="191.5" y="-992.3" font-family="Times,serif" font-size="14.00"> v22</text>
<text text-anchor="start" x="191.5" y="-977.3" font-family="Times,serif" font-size="14.00"> v23</text>
<text text-anchor="start" x="191.5" y="-962.3" font-family="Times,serif" font-size="14.00"> v24</text>
<text text-anchor="start" x="191.5" y="-947.3" font-family="Times,serif" font-size="14.00"> v25</text>
<text text-anchor="start" x="191.5" y="-932.3" font-family="Times,serif" font-size="14.00"> v26</text>
<text text-anchor="start" x="191.5" y="-917.3" font-family="Times,serif" font-size="14.00"> v27</text>
<text text-anchor="start" x="191.5" y="-902.3" font-family="Times,serif" font-size="14.00"> v28</text>
<text text-anchor="start" x="191.5" y="-887.3" font-family="Times,serif" font-size="14.00"> v29</text>
<text text-anchor="start" x="191.5" y="-872.3" font-family="Times,serif" font-size="14.00"> v30</text>
<text text-anchor="start" x="191.5" y="-857.3" font-family="Times,serif" font-size="14.00"> v31</text>
<text text-anchor="start" x="191.5" y="-842.3" font-family="Times,serif" font-size="14.00"> v32</text>
<text text-anchor="start" x="191.5" y="-827.3" font-family="Times,serif" font-size="14.00"> v33</text>
<text text-anchor="start" x="191.5" y="-812.3" font-family="Times,serif" font-size="14.00"> v9 = v10</text>
<text text-anchor="start" x="191.5" y="-797.3" font-family="Times,serif" font-size="14.00"> v6 = v7</text>
<text text-anchor="start" x="191.5" y="-782.3" font-family="Times,serif" font-size="14.00"> v17 = v18</text>
<text text-anchor="start" x="191.5" y="-767.3" font-family="Times,serif" font-size="14.00"> v17 = a1</text>
<text text-anchor="start" x="191.5" y="-752.3" font-family="Times,serif" font-size="14.00"> v21 = g5</text>
<text text-anchor="start" x="191.5" y="-737.3" font-family="Times,serif" font-size="14.00"> g9 = v21</text>
<text text-anchor="start" x="191.5" y="-722.3" font-family="Times,serif" font-size="14.00"> v22 = g7</text>
<text text-anchor="start" x="191.5" y="-707.3" font-family="Times,serif" font-size="14.00"> v14 = v22</text>
<text text-anchor="start" x="191.5" y="-692.3" font-family="Times,serif" font-size="14.00"> g10 = PtrToIntCastExpr&lt;int32&gt;(&amp;(v14))</text>
<text text-anchor="start" x="191.5" y="-677.3" font-family="Times,serif" font-size="14.00"> v29 = *(IntToPtrCastExpr&lt;ptr&gt;((v21 + 4)))</text>
<text text-anchor="start" x="191.5" y="-662.3" font-family="Times,serif" font-size="14.00"> g7 = v29</text>
</g>
<!-- Node0xf92c270&#45;&gt;Node0xf933230 -->
<g id="edge1" class="edge"><title>Node0xf92c270&#45;&gt;Node0xf933230</title>
<path fill="none" stroke="black" d="M352,-1360.44C352,-1352.37 352,-1343.06 352,-1332.76"/>
<polygon fill="black" stroke="black" points="355.5,-1332.6 352,-1322.6 348.5,-1332.6 355.5,-1332.6"/>
</g>
<!-- Node0xf8df2d0 -->
<g id="node3" class="node"><title>Node0xf8df2d0</title>
<polygon fill="none" stroke="black" points="298,-578.5 298,-616.5 406,-616.5 406,-578.5 298,-578.5"/>
<text text-anchor="start" x="306" y="-601.3" font-family="Times,serif" font-size="14.00">if (v29 != 0):</text>
<text text-anchor="start" x="306" y="-586.3" font-family="Times,serif" font-size="14.00"> else:</text>
</g>
<!-- Node0xf933230&#45;&gt;Node0xf8df2d0 -->
<g id="edge2" class="edge"><title>Node0xf933230&#45;&gt;Node0xf8df2d0</title>
<path fill="none" stroke="black" d="M352,-654.234C352,-643.871 352,-634.605 352,-626.743"/>
<polygon fill="black" stroke="black" points="355.5,-626.595 352,-616.595 348.5,-626.595 355.5,-626.595"/>
</g>
<!-- Node0xf8c7d70 -->
<g id="node4" class="node"><title>Node0xf8c7d70</title>
<polygon fill="none" stroke="black" points="0,-203.5 0,-526.5 346,-526.5 346,-203.5 0,-203.5"/>
<text text-anchor="start" x="8" y="-511.3" font-family="Times,serif" font-size="14.00">0x4203dc:</text>
<text text-anchor="start" x="8" y="-496.3" font-family="Times,serif" font-size="14.00"> v30 = *(IntToPtrCastExpr&lt;ptr&gt;((v21 + 8)))</text>
<text text-anchor="start" x="8" y="-481.3" font-family="Times,serif" font-size="14.00"> g5 = v30</text>
<text text-anchor="start" x="8" y="-466.3" font-family="Times,serif" font-size="14.00"> v31 = *(IntToPtrCastExpr&lt;ptr&gt;((v30 + 8)))</text>
<text text-anchor="start" x="8" y="-451.3" font-family="Times,serif" font-size="14.00"> g2 = v31</text>
<text text-anchor="start" x="8" y="-436.3" font-family="Times,serif" font-size="14.00"> v24 = *(IntToPtrCastExpr&lt;ptr&gt;(v29))</text>
<text text-anchor="start" x="8" y="-421.3" font-family="Times,serif" font-size="14.00"> g4 = v24</text>
<text text-anchor="start" x="8" y="-406.3" font-family="Times,serif" font-size="14.00"> v6 = a1</text>
<text text-anchor="start" x="8" y="-391.3" font-family="Times,serif" font-size="14.00"> v2 = function_41c895(a1, v31)</text>
<text text-anchor="start" x="8" y="-376.3" font-family="Times,serif" font-size="14.00"> v1 = IntToPtrCastExpr&lt;ptr&gt;(v2)</text>
<text text-anchor="start" x="8" y="-361.3" font-family="Times,serif" font-size="14.00"> v27 = g9</text>
<text text-anchor="start" x="8" y="-346.3" font-family="Times,serif" font-size="14.00"> v32 = *(IntToPtrCastExpr&lt;ptr&gt;((v27 + 12)))</text>
<text text-anchor="start" x="8" y="-331.3" font-family="Times,serif" font-size="14.00"> v9 = v32</text>
<text text-anchor="start" x="8" y="-316.3" font-family="Times,serif" font-size="14.00"> v23 = g7</text>
<text text-anchor="start" x="8" y="-301.3" font-family="Times,serif" font-size="14.00"> v28 = g4</text>
<text text-anchor="start" x="8" y="-286.3" font-family="Times,serif" font-size="14.00"> v33 = *(IntToPtrCastExpr&lt;ptr&gt;((v28 + 16)))</text>
<text text-anchor="start" x="8" y="-271.3" font-family="Times,serif" font-size="14.00"> IntToPtrCastExpr&lt;ptr&gt;(v33)(v23, v32, v2)</text>
<text text-anchor="start" x="8" y="-256.3" font-family="Times,serif" font-size="14.00"> g4 = v23</text>
<text text-anchor="start" x="8" y="-241.3" font-family="Times,serif" font-size="14.00"> v25 = v32</text>
<text text-anchor="start" x="8" y="-226.3" font-family="Times,serif" font-size="14.00"> v3 = v1</text>
<text text-anchor="start" x="8" y="-211.3" font-family="Times,serif" font-size="14.00"> v26 = v1</text>
</g>
<!-- Node0xf8df2d0&#45;&gt;Node0xf8c7d70 -->
<g id="edge3" class="edge"><title>Node0xf8df2d0&#45;&gt;Node0xf8c7d70</title>
<path fill="none" stroke="black" d="M337.954,-578.413C329.413,-567.415 317.572,-552.167 304.117,-534.841"/>
<polygon fill="black" stroke="black" points="306.725,-532.493 297.827,-526.741 301.196,-536.786 306.725,-532.493"/>
<text text-anchor="middle" x="353.5" y="-548.8" font-family="Times,serif" font-size="14.00">v29 != 0</text>
</g>
<!-- Node0xf8dc3d0 -->
<g id="node5" class="node"><title>Node0xf8dc3d0</title>
<polygon fill="none" stroke="black" points="364,-338.5 364,-391.5 702,-391.5 702,-338.5 364,-338.5"/>
<text text-anchor="start" x="372" y="-376.3" font-family="Times,serif" font-size="14.00">v25 = v10</text>
<text text-anchor="start" x="372" y="-361.3" font-family="Times,serif" font-size="14.00"> v3 = IntToPtrCastExpr&lt;ptr&gt;(&#45;2147467262)</text>
<text text-anchor="start" x="372" y="-346.3" font-family="Times,serif" font-size="14.00"> v26 = v8</text>
</g>
<!-- Node0xf8df2d0&#45;&gt;Node0xf8dc3d0 -->
<g id="edge4" class="edge"><title>Node0xf8df2d0&#45;&gt;Node0xf8dc3d0</title>
<path fill="none" stroke="black" d="M371.395,-578.469C377.245,-572.743 383.555,-566.266 389,-560 435.167,-506.868 482.683,-440.034 509.943,-400.291"/>
<polygon fill="black" stroke="black" points="513.022,-401.988 515.771,-391.756 507.241,-398.041 513.022,-401.988"/>
<text text-anchor="middle" x="435.5" y="-548.8" font-family="Times,serif" font-size="14.00">v29 == 0</text>
</g>
<!-- Node0xf9048b0 -->
<g id="node6" class="node"><title>Node0xf9048b0</title>
<polygon fill="none" stroke="black" points="250,-97.5 250,-165.5 538,-165.5 538,-97.5 250,-97.5"/>
<text text-anchor="start" x="258" y="-150.3" font-family="Times,serif" font-size="14.00">0x4203ff:</text>
<text text-anchor="start" x="258" y="-135.3" font-family="Times,serif" font-size="14.00"> g7 = v25</text>
<text text-anchor="start" x="258" y="-120.3" font-family="Times,serif" font-size="14.00"> g9 = PtrToIntCastExpr&lt;int32&gt;(v26)</text>
<text text-anchor="start" x="258" y="-105.3" font-family="Times,serif" font-size="14.00"> return PtrToIntCastExpr&lt;int32&gt;(v3)</text>
</g>
<!-- Node0xf8c7d70&#45;&gt;Node0xf9048b0 -->
<g id="edge5" class="edge"><title>Node0xf8c7d70&#45;&gt;Node0xf9048b0</title>
<path fill="none" stroke="black" d="M326.492,-203.216C336.85,-192.366 346.61,-182.141 355.321,-173.017"/>
<polygon fill="black" stroke="black" points="358.007,-175.272 362.38,-165.622 352.943,-170.439 358.007,-175.272"/>
</g>
<!-- Node0xf8dc3d0&#45;&gt;Node0xf9048b0 -->
<g id="edge6" class="edge"><title>Node0xf8dc3d0&#45;&gt;Node0xf9048b0</title>
<path fill="none" stroke="black" d="M517.593,-338.341C493.821,-298.748 447.95,-222.352 419.27,-174.587"/>
<polygon fill="black" stroke="black" points="422.098,-172.498 413.95,-165.726 416.097,-176.101 422.098,-172.498"/>
</g>
<!-- Node0xf932840 -->
<g id="node7" class="node"><title>Node0xf932840</title>
<polygon fill="none" stroke="black" points="367,-23.5 367,-59.5 421,-59.5 421,-23.5 367,-23.5"/>
<text text-anchor="start" x="375" y="-37.8" font-family="Times,serif" font-size="14.00">exit:</text>
</g>
<!-- Node0xf9048b0&#45;&gt;Node0xf932840 -->
<g id="edge7" class="edge"><title>Node0xf9048b0&#45;&gt;Node0xf932840</title>
<path fill="none" stroke="black" d="M394,-97.4817C394,-88.3281 394,-78.4972 394,-69.7155"/>
<polygon fill="black" stroke="black" points="397.5,-69.6402 394,-59.6402 390.5,-69.6403 397.5,-69.6402"/>
</g>
</g>
</svg>
