<?xml version="1.0" encoding="UTF-8" standalone="no"?>
<!DOCTYPE svg PUBLIC "-//W3C//DTD SVG 1.1//EN"
 "http://www.w3.org/Graphics/SVG/1.1/DTD/svg11.dtd">
<!-- Generated by graphviz version 2.38.0 (20140413.2041)
 -->
<!-- Title: Control&#45;flow graph for function &#39;function_413250(*a1)&#39;. Pages: 1 -->
<svg width="585pt" height="775pt"
 viewBox="0.00 0.00 584.50 775.00" xmlns="http://www.w3.org/2000/svg" xmlns:xlink="http://www.w3.org/1999/xlink">
<g id="graph0" class="graph" transform="scale(1 1) rotate(0) translate(4 771)">
<title>Control&#45;flow graph for function &#39;function_413250(*a1)&#39;.</title>
<polygon fill="white" stroke="none" points="-4,4 -4,-771 580.5,-771 580.5,4 -4,4"/>
<text text-anchor="middle" x="288.25" y="-7.8" font-family="Times,serif" font-size="14.00">Control&#45;flow graph for function &#39;function_413250(*a1)&#39;.</text>
<!-- Node0xf31ca00 -->
<g id="node1" class="node"><title>Node0xf31ca00</title>
<polygon fill="none" stroke="black" points="396.5,-728.5 396.5,-766.5 455.5,-766.5 455.5,-728.5 396.5,-728.5"/>
<text text-anchor="start" x="404.5" y="-751.3" font-family="Times,serif" font-size="14.00">entry:</text>
<text text-anchor="start" x="404.5" y="-736.3" font-family="Times,serif" font-size="14.00"> a1</text>
</g>
<!-- Node0xf31ccc0 -->
<g id="node2" class="node"><title>Node0xf31ccc0</title>
<polygon fill="none" stroke="black" points="275.5,-427.5 275.5,-690.5 576.5,-690.5 576.5,-427.5 275.5,-427.5"/>
<text text-anchor="start" x="283.5" y="-675.3" font-family="Times,serif" font-size="14.00">v1</text>
<text text-anchor="start" x="283.5" y="-660.3" font-family="Times,serif" font-size="14.00"> v2</text>
<text text-anchor="start" x="283.5" y="-645.3" font-family="Times,serif" font-size="14.00"> v3</text>
<text text-anchor="start" x="283.5" y="-630.3" font-family="Times,serif" font-size="14.00"> v4</text>
<text text-anchor="start" x="283.5" y="-615.3" font-family="Times,serif" font-size="14.00"> v5</text>
<text text-anchor="start" x="283.5" y="-600.3" font-family="Times,serif" font-size="14.00"> v6</text>
<text text-anchor="start" x="283.5" y="-585.3" font-family="Times,serif" font-size="14.00"> v7</text>
<text text-anchor="start" x="283.5" y="-570.3" font-family="Times,serif" font-size="14.00"> v8</text>
<text text-anchor="start" x="283.5" y="-555.3" font-family="Times,serif" font-size="14.00"> v9</text>
<text text-anchor="start" x="283.5" y="-540.3" font-family="Times,serif" font-size="14.00"> result</text>
<text text-anchor="start" x="283.5" y="-525.3" font-family="Times,serif" font-size="14.00"> v10</text>
<text text-anchor="start" x="283.5" y="-510.3" font-family="Times,serif" font-size="14.00"> v11</text>
<text text-anchor="start" x="283.5" y="-495.3" font-family="Times,serif" font-size="14.00"> v12</text>
<text text-anchor="start" x="283.5" y="-480.3" font-family="Times,serif" font-size="14.00"> v4 = v5</text>
<text text-anchor="start" x="283.5" y="-465.3" font-family="Times,serif" font-size="14.00"> v4 = a1</text>
<text text-anchor="start" x="283.5" y="-450.3" font-family="Times,serif" font-size="14.00"> v2 = 0</text>
<text text-anchor="start" x="283.5" y="-435.3" font-family="Times,serif" font-size="14.00"> result = PtrToIntCastExpr&lt;int32&gt;(a1)</text>
</g>
<!-- Node0xf31ca00&#45;&gt;Node0xf31ccc0 -->
<g id="edge1" class="edge"><title>Node0xf31ca00&#45;&gt;Node0xf31ccc0</title>
<path fill="none" stroke="black" d="M426,-728.278C426,-720.846 426,-711.547 426,-701.16"/>
<polygon fill="black" stroke="black" points="429.5,-700.892 426,-690.892 422.5,-700.892 429.5,-700.892"/>
</g>
<!-- Node0xf2041e0 -->
<g id="node3" class="node"><title>Node0xf2041e0</title>
<polygon fill="none" stroke="black" points="359,-353.5 359,-389.5 493,-389.5 493,-353.5 359,-353.5"/>
<text text-anchor="start" x="367" y="-367.8" font-family="Times,serif" font-size="14.00">if (a1 != NULL):</text>
</g>
<!-- Node0xf31ccc0&#45;&gt;Node0xf2041e0 -->
<g id="edge2" class="edge"><title>Node0xf31ccc0&#45;&gt;Node0xf2041e0</title>
<path fill="none" stroke="black" d="M426,-427.403C426,-417.307 426,-407.933 426,-399.892"/>
<polygon fill="black" stroke="black" points="429.5,-399.809 426,-389.809 422.5,-399.81 429.5,-399.809"/>
</g>
<!-- Node0xf31d400 -->
<g id="node4" class="node"><title>Node0xf31d400</title>
<polygon fill="none" stroke="black" points="0,-173.5 0,-301.5 456,-301.5 456,-173.5 0,-173.5"/>
<text text-anchor="start" x="8" y="-286.3" font-family="Times,serif" font-size="14.00">0x41325a:</text>
<text text-anchor="start" x="8" y="-271.3" font-family="Times,serif" font-size="14.00"> *(&amp;(a1[&#39;0&#39;])) = PtrToIntCastExpr&lt;int32&gt;(&amp;(vtable_4573d4))</text>
<text text-anchor="start" x="8" y="-256.3" font-family="Times,serif" font-size="14.00"> v10 = v2</text>
<text text-anchor="start" x="8" y="-241.3" font-family="Times,serif" font-size="14.00"> *(&amp;(a1[&#39;1&#39;])) = v10</text>
<text text-anchor="start" x="8" y="-226.3" font-family="Times,serif" font-size="14.00"> v11 = v2</text>
<text text-anchor="start" x="8" y="-211.3" font-family="Times,serif" font-size="14.00"> *(BitCastExpr&lt;ptr&gt;(&amp;(a1[&#39;2&#39;]))) = v11</text>
<text text-anchor="start" x="8" y="-196.3" font-family="Times,serif" font-size="14.00"> v12 = v2</text>
<text text-anchor="start" x="8" y="-181.3" font-family="Times,serif" font-size="14.00"> *(BitCastExpr&lt;ptr&gt;(&amp;(a1[&#39;3&#39;]))) = v12</text>
</g>
<!-- Node0xf2041e0&#45;&gt;Node0xf31d400 -->
<g id="edge3" class="edge"><title>Node0xf2041e0&#45;&gt;Node0xf31d400</title>
<path fill="none" stroke="black" d="M400.115,-353.243C382.049,-341.199 356.643,-324.262 330.886,-307.09"/>
<polygon fill="black" stroke="black" points="332.781,-304.148 322.519,-301.513 328.898,-309.972 332.781,-304.148"/>
<text text-anchor="middle" x="412" y="-323.8" font-family="Times,serif" font-size="14.00">a1 != NULL</text>
</g>
<!-- Node0xf31d310 -->
<g id="node5" class="node"><title>Node0xf31d310</title>
<polygon fill="none" stroke="black" points="363.5,-97.5 363.5,-135.5 476.5,-135.5 476.5,-97.5 363.5,-97.5"/>
<text text-anchor="start" x="371.5" y="-120.3" font-family="Times,serif" font-size="14.00">0x413269:</text>
<text text-anchor="start" x="371.5" y="-105.3" font-family="Times,serif" font-size="14.00"> return result</text>
</g>
<!-- Node0xf2041e0&#45;&gt;Node0xf31d310 -->
<g id="edge4" class="edge"><title>Node0xf2041e0&#45;&gt;Node0xf31d310</title>
<path fill="none" stroke="black" d="M446.427,-353.407C451.632,-348.04 456.686,-341.739 460,-335 479.649,-295.049 481.982,-220.908 465,-173 461.192,-162.258 454.322,-152.078 447.077,-143.44"/>
<polygon fill="black" stroke="black" points="449.671,-141.09 440.396,-135.969 444.453,-145.756 449.671,-141.09"/>
<text text-anchor="middle" x="523" y="-233.8" font-family="Times,serif" font-size="14.00">a1 == NULL</text>
</g>
<!-- Node0xf31d400&#45;&gt;Node0xf31d310 -->
<g id="edge5" class="edge"><title>Node0xf31d400&#45;&gt;Node0xf31d310</title>
<path fill="none" stroke="black" d="M329.903,-173.341C348.51,-161.809 366.82,-150.46 382.023,-141.038"/>
<polygon fill="black" stroke="black" points="383.938,-143.968 390.594,-135.725 380.251,-138.019 383.938,-143.968"/>
</g>
<!-- Node0x7ebc6b0 -->
<g id="node6" class="node"><title>Node0x7ebc6b0</title>
<polygon fill="none" stroke="black" points="393,-23.5 393,-59.5 447,-59.5 447,-23.5 393,-23.5"/>
<text text-anchor="start" x="401" y="-37.8" font-family="Times,serif" font-size="14.00">exit:</text>
</g>
<!-- Node0xf31d310&#45;&gt;Node0x7ebc6b0 -->
<g id="edge6" class="edge"><title>Node0xf31d310&#45;&gt;Node0x7ebc6b0</title>
<path fill="none" stroke="black" d="M420,-97.4551C420,-89.2008 420,-79.2377 420,-70.0742"/>
<polygon fill="black" stroke="black" points="423.5,-69.8347 420,-59.8347 416.5,-69.8347 423.5,-69.8347"/>
</g>
</g>
</svg>
