<?xml version="1.0" encoding="UTF-8" standalone="no"?>
<!DOCTYPE svg PUBLIC "-//W3C//DTD SVG 1.1//EN"
 "http://www.w3.org/Graphics/SVG/1.1/DTD/svg11.dtd">
<!-- Generated by graphviz version 2.38.0 (20140413.2041)
 -->
<!-- Title: Control&#45;flow graph for function &#39;function_40dd0d(a1, a2)&#39;. Pages: 1 -->
<svg width="478pt" height="852pt"
 viewBox="0.00 0.00 478.00 852.00" xmlns="http://www.w3.org/2000/svg" xmlns:xlink="http://www.w3.org/1999/xlink">
<g id="graph0" class="graph" transform="scale(1 1) rotate(0) translate(4 848)">
<title>Control&#45;flow graph for function &#39;function_40dd0d(a1, a2)&#39;.</title>
<polygon fill="white" stroke="none" points="-4,4 -4,-848 474,-848 474,4 -4,4"/>
<text text-anchor="middle" x="235" y="-7.8" font-family="Times,serif" font-size="14.00">Control&#45;flow graph for function &#39;function_40dd0d(a1, a2)&#39;.</text>
<!-- Node0x6b75d10 -->
<g id="node1" class="node"><title>Node0x6b75d10</title>
<polygon fill="none" stroke="black" points="271.5,-790.5 271.5,-843.5 330.5,-843.5 330.5,-790.5 271.5,-790.5"/>
<text text-anchor="start" x="279.5" y="-828.3" font-family="Times,serif" font-size="14.00">entry:</text>
<text text-anchor="start" x="279.5" y="-813.3" font-family="Times,serif" font-size="14.00"> a1</text>
<text text-anchor="start" x="279.5" y="-798.3" font-family="Times,serif" font-size="14.00"> a2</text>
</g>
<!-- Node0xf08c1b0 -->
<g id="node2" class="node"><title>Node0xf08c1b0</title>
<polygon fill="none" stroke="black" points="227,-429.5 227,-752.5 375,-752.5 375,-429.5 227,-429.5"/>
<text text-anchor="start" x="235" y="-737.3" font-family="Times,serif" font-size="14.00">v1</text>
<text text-anchor="start" x="235" y="-722.3" font-family="Times,serif" font-size="14.00"> v2</text>
<text text-anchor="start" x="235" y="-707.3" font-family="Times,serif" font-size="14.00"> v3</text>
<text text-anchor="start" x="235" y="-692.3" font-family="Times,serif" font-size="14.00"> v4</text>
<text text-anchor="start" x="235" y="-677.3" font-family="Times,serif" font-size="14.00"> v5</text>
<text text-anchor="start" x="235" y="-662.3" font-family="Times,serif" font-size="14.00"> v6</text>
<text text-anchor="start" x="235" y="-647.3" font-family="Times,serif" font-size="14.00"> v7</text>
<text text-anchor="start" x="235" y="-632.3" font-family="Times,serif" font-size="14.00"> v8</text>
<text text-anchor="start" x="235" y="-617.3" font-family="Times,serif" font-size="14.00"> v9</text>
<text text-anchor="start" x="235" y="-602.3" font-family="Times,serif" font-size="14.00"> v10</text>
<text text-anchor="start" x="235" y="-587.3" font-family="Times,serif" font-size="14.00"> v11</text>
<text text-anchor="start" x="235" y="-572.3" font-family="Times,serif" font-size="14.00"> v12</text>
<text text-anchor="start" x="235" y="-557.3" font-family="Times,serif" font-size="14.00"> result</text>
<text text-anchor="start" x="235" y="-542.3" font-family="Times,serif" font-size="14.00"> v13</text>
<text text-anchor="start" x="235" y="-527.3" font-family="Times,serif" font-size="14.00"> v14</text>
<text text-anchor="start" x="235" y="-512.3" font-family="Times,serif" font-size="14.00"> v6 = v7</text>
<text text-anchor="start" x="235" y="-497.3" font-family="Times,serif" font-size="14.00"> v10 = g9</text>
<text text-anchor="start" x="235" y="-482.3" font-family="Times,serif" font-size="14.00"> v4 = v10</text>
<text text-anchor="start" x="235" y="-467.3" font-family="Times,serif" font-size="14.00"> v11 = g5</text>
<text text-anchor="start" x="235" y="-452.3" font-family="Times,serif" font-size="14.00"> g9 = v11</text>
<text text-anchor="start" x="235" y="-437.3" font-family="Times,serif" font-size="14.00"> function_40dcf8()</text>
</g>
<!-- Node0x6b75d10&#45;&gt;Node0xf08c1b0 -->
<g id="edge1" class="edge"><title>Node0x6b75d10&#45;&gt;Node0xf08c1b0</title>
<path fill="none" stroke="black" d="M301,-790.304C301,-782.38 301,-772.992 301,-762.68"/>
<polygon fill="black" stroke="black" points="304.5,-762.527 301,-752.527 297.5,-762.527 304.5,-762.527"/>
</g>
<!-- Node0xf08bf60 -->
<g id="node3" class="node"><title>Node0xf08bf60</title>
<polygon fill="none" stroke="black" points="251.5,-353.5 251.5,-391.5 350.5,-391.5 350.5,-353.5 251.5,-353.5"/>
<text text-anchor="start" x="259.5" y="-376.3" font-family="Times,serif" font-size="14.00">if (a1 != 1):</text>
<text text-anchor="start" x="259.5" y="-361.3" font-family="Times,serif" font-size="14.00"> else:</text>
</g>
<!-- Node0xf08c1b0&#45;&gt;Node0xf08bf60 -->
<g id="edge2" class="edge"><title>Node0xf08c1b0&#45;&gt;Node0xf08bf60</title>
<path fill="none" stroke="black" d="M301,-429.254C301,-419.15 301,-409.85 301,-401.86"/>
<polygon fill="black" stroke="black" points="304.5,-401.824 301,-391.824 297.5,-401.825 304.5,-401.824"/>
</g>
<!-- Node0xd8e2b90 -->
<g id="node4" class="node"><title>Node0xd8e2b90</title>
<polygon fill="none" stroke="black" points="0,-203.5 0,-301.5 362,-301.5 362,-203.5 0,-203.5"/>
<text text-anchor="start" x="8" y="-286.3" font-family="Times,serif" font-size="14.00">0x40dd1c:</text>
<text text-anchor="start" x="8" y="-271.3" font-family="Times,serif" font-size="14.00"> v12 = g9</text>
<text text-anchor="start" x="8" y="-256.3" font-family="Times,serif" font-size="14.00"> v6 = IntToPtrCastExpr&lt;ptr&gt;(v12)</text>
<text text-anchor="start" x="8" y="-241.3" font-family="Times,serif" font-size="14.00"> function_41a847(IntToPtrCastExpr&lt;ptr&gt;(v12))</text>
<text text-anchor="start" x="8" y="-226.3" font-family="Times,serif" font-size="14.00"> v14 = v6</text>
<text text-anchor="start" x="8" y="-211.3" font-family="Times,serif" font-size="14.00"> v13 = v14</text>
</g>
<!-- Node0xf08bf60&#45;&gt;Node0xd8e2b90 -->
<g id="edge3" class="edge"><title>Node0xf08bf60&#45;&gt;Node0xd8e2b90</title>
<path fill="none" stroke="black" d="M282.513,-353.321C270.312,-341.324 253.62,-324.909 237.295,-308.856"/>
<polygon fill="black" stroke="black" points="239.421,-306.039 229.837,-301.523 234.513,-311.03 239.421,-306.039"/>
<text text-anchor="middle" x="290" y="-323.8" font-family="Times,serif" font-size="14.00">a1 != 1</text>
</g>
<!-- Node0xf08c930 -->
<g id="node5" class="node"><title>Node0xf08c930</title>
<polygon fill="none" stroke="black" points="380.5,-234.5 380.5,-270.5 461.5,-270.5 461.5,-234.5 380.5,-234.5"/>
<text text-anchor="start" x="388.5" y="-248.8" font-family="Times,serif" font-size="14.00">v13 = v7</text>
</g>
<!-- Node0xf08bf60&#45;&gt;Node0xf08c930 -->
<g id="edge4" class="edge"><title>Node0xf08bf60&#45;&gt;Node0xf08c930</title>
<path fill="none" stroke="black" d="M319.487,-353.321C340.042,-333.108 373.348,-300.358 396.166,-277.92"/>
<polygon fill="black" stroke="black" points="398.792,-280.246 403.469,-270.739 393.884,-275.255 398.792,-280.246"/>
<text text-anchor="middle" x="381" y="-323.8" font-family="Times,serif" font-size="14.00">a1 == 1</text>
</g>
<!-- Node0xf08c3a0 -->
<g id="node6" class="node"><title>Node0xf08c3a0</title>
<polygon fill="none" stroke="black" points="184,-97.5 184,-165.5 470,-165.5 470,-97.5 184,-97.5"/>
<text text-anchor="start" x="192" y="-150.3" font-family="Times,serif" font-size="14.00">0x40dd22:</text>
<text text-anchor="start" x="192" y="-135.3" font-family="Times,serif" font-size="14.00"> result = g9</text>
<text text-anchor="start" x="192" y="-120.3" font-family="Times,serif" font-size="14.00"> g9 = PtrToIntCastExpr&lt;int32&gt;(v13)</text>
<text text-anchor="start" x="192" y="-105.3" font-family="Times,serif" font-size="14.00"> return result</text>
</g>
<!-- Node0xd8e2b90&#45;&gt;Node0xf08c3a0 -->
<g id="edge5" class="edge"><title>Node0xd8e2b90&#45;&gt;Node0xf08c3a0</title>
<path fill="none" stroke="black" d="M239.963,-203.441C252.687,-193.07 266.003,-182.217 278.284,-172.207"/>
<polygon fill="black" stroke="black" points="280.648,-174.795 286.188,-165.764 276.226,-169.369 280.648,-174.795"/>
</g>
<!-- Node0xf08c930&#45;&gt;Node0xf08c3a0 -->
<g id="edge6" class="edge"><title>Node0xf08c930&#45;&gt;Node0xf08c3a0</title>
<path fill="none" stroke="black" d="M407.532,-234.45C395.073,-218.678 376.055,-194.601 359.628,-173.806"/>
<polygon fill="black" stroke="black" points="362.19,-171.402 353.245,-165.725 356.697,-175.741 362.19,-171.402"/>
</g>
<!-- Node0xf08b850 -->
<g id="node7" class="node"><title>Node0xf08b850</title>
<polygon fill="none" stroke="black" points="300,-23.5 300,-59.5 354,-59.5 354,-23.5 300,-23.5"/>
<text text-anchor="start" x="308" y="-37.8" font-family="Times,serif" font-size="14.00">exit:</text>
</g>
<!-- Node0xf08c3a0&#45;&gt;Node0xf08b850 -->
<g id="edge7" class="edge"><title>Node0xf08c3a0&#45;&gt;Node0xf08b850</title>
<path fill="none" stroke="black" d="M327,-97.4817C327,-88.3281 327,-78.4972 327,-69.7155"/>
<polygon fill="black" stroke="black" points="330.5,-69.6402 327,-59.6402 323.5,-69.6403 330.5,-69.6402"/>
</g>
</g>
</svg>
