<?xml version="1.0" encoding="UTF-8" standalone="no"?>
<!DOCTYPE svg PUBLIC "-//W3C//DTD SVG 1.1//EN"
 "http://www.w3.org/Graphics/SVG/1.1/DTD/svg11.dtd">
<!-- Generated by graphviz version 2.38.0 (20140413.2041)
 -->
<!-- Title: Control&#45;flow graph for function &#39;function_40b140(*a1, a2, a3, a4)&#39;. Pages: 1 -->
<svg width="499pt" height="773pt"
 viewBox="0.00 0.00 499.00 773.00" xmlns="http://www.w3.org/2000/svg" xmlns:xlink="http://www.w3.org/1999/xlink">
<g id="graph0" class="graph" transform="scale(1 1) rotate(0) translate(4 769)">
<title>Control&#45;flow graph for function &#39;function_40b140(*a1, a2, a3, a4)&#39;.</title>
<polygon fill="white" stroke="none" points="-4,4 -4,-769 495,-769 495,4 -4,4"/>
<text text-anchor="middle" x="245.5" y="-7.8" font-family="Times,serif" font-size="14.00">Control&#45;flow graph for function &#39;function_40b140(*a1, a2, a3, a4)&#39;.</text>
<!-- Node0xef96130 -->
<g id="node1" class="node"><title>Node0xef96130</title>
<polygon fill="none" stroke="black" points="216,-681.5 216,-764.5 275,-764.5 275,-681.5 216,-681.5"/>
<text text-anchor="start" x="224" y="-749.3" font-family="Times,serif" font-size="14.00">entry:</text>
<text text-anchor="start" x="224" y="-734.3" font-family="Times,serif" font-size="14.00"> a1</text>
<text text-anchor="start" x="224" y="-719.3" font-family="Times,serif" font-size="14.00"> a2</text>
<text text-anchor="start" x="224" y="-704.3" font-family="Times,serif" font-size="14.00"> a3</text>
<text text-anchor="start" x="224" y="-689.3" font-family="Times,serif" font-size="14.00"> a4</text>
</g>
<!-- Node0xef96d70 -->
<g id="node2" class="node"><title>Node0xef96d70</title>
<polygon fill="none" stroke="black" points="91,-96.5 91,-644.5 400,-644.5 400,-96.5 91,-96.5"/>
<text text-anchor="start" x="99" y="-629.3" font-family="Times,serif" font-size="14.00">v1</text>
<text text-anchor="start" x="99" y="-614.3" font-family="Times,serif" font-size="14.00"> v2</text>
<text text-anchor="start" x="99" y="-599.3" font-family="Times,serif" font-size="14.00"> v3</text>
<text text-anchor="start" x="99" y="-584.3" font-family="Times,serif" font-size="14.00"> v4</text>
<text text-anchor="start" x="99" y="-569.3" font-family="Times,serif" font-size="14.00"> v5</text>
<text text-anchor="start" x="99" y="-554.3" font-family="Times,serif" font-size="14.00"> v6</text>
<text text-anchor="start" x="99" y="-539.3" font-family="Times,serif" font-size="14.00"> v7</text>
<text text-anchor="start" x="99" y="-524.3" font-family="Times,serif" font-size="14.00"> v8</text>
<text text-anchor="start" x="99" y="-509.3" font-family="Times,serif" font-size="14.00"> v9</text>
<text text-anchor="start" x="99" y="-494.3" font-family="Times,serif" font-size="14.00"> v10</text>
<text text-anchor="start" x="99" y="-479.3" font-family="Times,serif" font-size="14.00"> v11</text>
<text text-anchor="start" x="99" y="-464.3" font-family="Times,serif" font-size="14.00"> v12</text>
<text text-anchor="start" x="99" y="-449.3" font-family="Times,serif" font-size="14.00"> v13</text>
<text text-anchor="start" x="99" y="-434.3" font-family="Times,serif" font-size="14.00"> v14</text>
<text text-anchor="start" x="99" y="-419.3" font-family="Times,serif" font-size="14.00"> v15</text>
<text text-anchor="start" x="99" y="-404.3" font-family="Times,serif" font-size="14.00"> v16</text>
<text text-anchor="start" x="99" y="-389.3" font-family="Times,serif" font-size="14.00"> v17</text>
<text text-anchor="start" x="99" y="-374.3" font-family="Times,serif" font-size="14.00"> v18</text>
<text text-anchor="start" x="99" y="-359.3" font-family="Times,serif" font-size="14.00"> v19</text>
<text text-anchor="start" x="99" y="-344.3" font-family="Times,serif" font-size="14.00"> v20</text>
<text text-anchor="start" x="99" y="-329.3" font-family="Times,serif" font-size="14.00"> v21</text>
<text text-anchor="start" x="99" y="-314.3" font-family="Times,serif" font-size="14.00"> v22</text>
<text text-anchor="start" x="99" y="-299.3" font-family="Times,serif" font-size="14.00"> v23</text>
<text text-anchor="start" x="99" y="-284.3" font-family="Times,serif" font-size="14.00"> v24</text>
<text text-anchor="start" x="99" y="-269.3" font-family="Times,serif" font-size="14.00"> v25</text>
<text text-anchor="start" x="99" y="-254.3" font-family="Times,serif" font-size="14.00"> v26</text>
<text text-anchor="start" x="99" y="-239.3" font-family="Times,serif" font-size="14.00"> v27</text>
<text text-anchor="start" x="99" y="-224.3" font-family="Times,serif" font-size="14.00"> v28</text>
<text text-anchor="start" x="99" y="-209.3" font-family="Times,serif" font-size="14.00"> v29</text>
<text text-anchor="start" x="99" y="-194.3" font-family="Times,serif" font-size="14.00"> v30</text>
<text text-anchor="start" x="99" y="-179.3" font-family="Times,serif" font-size="14.00"> v31</text>
<text text-anchor="start" x="99" y="-164.3" font-family="Times,serif" font-size="14.00"> v31 = g3</text>
<text text-anchor="start" x="99" y="-149.3" font-family="Times,serif" font-size="14.00"> v21 = v31</text>
<text text-anchor="start" x="99" y="-134.3" font-family="Times,serif" font-size="14.00"> g3 = PtrToIntCastExpr&lt;int32&gt;(&amp;(v21))</text>
<text text-anchor="start" x="99" y="-119.3" font-family="Times,serif" font-size="14.00"> abort()</text>
<text text-anchor="start" x="99" y="-104.3" font-family="Times,serif" font-size="14.00"> # UNREACHABLE</text>
</g>
<!-- Node0xef96130&#45;&gt;Node0xef96d70 -->
<g id="edge1" class="edge"><title>Node0xef96130&#45;&gt;Node0xef96d70</title>
<path fill="none" stroke="black" d="M245.5,-681.451C245.5,-673.493 245.5,-664.602 245.5,-654.999"/>
<polygon fill="black" stroke="black" points="249,-654.742 245.5,-644.742 242,-654.742 249,-654.742"/>
</g>
<!-- Node0xef96d10 -->
<g id="node3" class="node"><title>Node0xef96d10</title>
<polygon fill="none" stroke="black" points="218.5,-23.5 218.5,-59.5 272.5,-59.5 272.5,-23.5 218.5,-23.5"/>
<text text-anchor="start" x="226.5" y="-37.8" font-family="Times,serif" font-size="14.00">exit:</text>
</g>
<!-- Node0xef96d70&#45;&gt;Node0xef96d10 -->
<g id="edge2" class="edge"><title>Node0xef96d70&#45;&gt;Node0xef96d10</title>
<path fill="none" stroke="black" d="M245.5,-96.4974C245.5,-86.5059 245.5,-77.5242 245.5,-69.885"/>
<polygon fill="black" stroke="black" points="249,-69.6921 245.5,-59.6921 242,-69.6922 249,-69.6921"/>
</g>
</g>
</svg>
