<?xml version="1.0" encoding="UTF-8" standalone="no"?>
<!DOCTYPE svg PUBLIC "-//W3C//DTD SVG 1.1//EN"
 "http://www.w3.org/Graphics/SVG/1.1/DTD/svg11.dtd">
<!-- Generated by graphviz version 2.38.0 (20140413.2041)
 -->
<!-- Title: Control&#45;flow graph for function &#39;function_413be9()&#39;. Pages: 1 -->
<svg width="1002pt" height="2319pt"
 viewBox="0.00 0.00 1001.50 2319.00" xmlns="http://www.w3.org/2000/svg" xmlns:xlink="http://www.w3.org/1999/xlink">
<g id="graph0" class="graph" transform="scale(1 1) rotate(0) translate(4 2315)">
<title>Control&#45;flow graph for function &#39;function_413be9()&#39;.</title>
<polygon fill="white" stroke="none" points="-4,4 -4,-2315 997.5,-2315 997.5,4 -4,4"/>
<text text-anchor="middle" x="496.75" y="-7.8" font-family="Times,serif" font-size="14.00">Control&#45;flow graph for function &#39;function_413be9()&#39;.</text>
<!-- Node0xf353390 -->
<g id="node1" class="node"><title>Node0xf353390</title>
<polygon fill="none" stroke="black" points="305.5,-2274.5 305.5,-2310.5 364.5,-2310.5 364.5,-2274.5 305.5,-2274.5"/>
<text text-anchor="start" x="313.5" y="-2288.8" font-family="Times,serif" font-size="14.00">entry:</text>
</g>
<!-- Node0xf353ea0 -->
<g id="node2" class="node"><title>Node0xf353ea0</title>
<polygon fill="none" stroke="black" points="157.5,-1523.5 157.5,-2236.5 512.5,-2236.5 512.5,-1523.5 157.5,-1523.5"/>
<text text-anchor="start" x="165.5" y="-2221.3" font-family="Times,serif" font-size="14.00">v1</text>
<text text-anchor="start" x="165.5" y="-2206.3" font-family="Times,serif" font-size="14.00"> v2</text>
<text text-anchor="start" x="165.5" y="-2191.3" font-family="Times,serif" font-size="14.00"> v3</text>
<text text-anchor="start" x="165.5" y="-2176.3" font-family="Times,serif" font-size="14.00"> v4</text>
<text text-anchor="start" x="165.5" y="-2161.3" font-family="Times,serif" font-size="14.00"> v5</text>
<text text-anchor="start" x="165.5" y="-2146.3" font-family="Times,serif" font-size="14.00"> v6</text>
<text text-anchor="start" x="165.5" y="-2131.3" font-family="Times,serif" font-size="14.00"> v7</text>
<text text-anchor="start" x="165.5" y="-2116.3" font-family="Times,serif" font-size="14.00"> v8</text>
<text text-anchor="start" x="165.5" y="-2101.3" font-family="Times,serif" font-size="14.00"> v9</text>
<text text-anchor="start" x="165.5" y="-2086.3" font-family="Times,serif" font-size="14.00"> v10</text>
<text text-anchor="start" x="165.5" y="-2071.3" font-family="Times,serif" font-size="14.00"> v11</text>
<text text-anchor="start" x="165.5" y="-2056.3" font-family="Times,serif" font-size="14.00"> v12</text>
<text text-anchor="start" x="165.5" y="-2041.3" font-family="Times,serif" font-size="14.00"> v13</text>
<text text-anchor="start" x="165.5" y="-2026.3" font-family="Times,serif" font-size="14.00"> v14</text>
<text text-anchor="start" x="165.5" y="-2011.3" font-family="Times,serif" font-size="14.00"> v15</text>
<text text-anchor="start" x="165.5" y="-1996.3" font-family="Times,serif" font-size="14.00"> v16</text>
<text text-anchor="start" x="165.5" y="-1981.3" font-family="Times,serif" font-size="14.00"> v17</text>
<text text-anchor="start" x="165.5" y="-1966.3" font-family="Times,serif" font-size="14.00"> v18</text>
<text text-anchor="start" x="165.5" y="-1951.3" font-family="Times,serif" font-size="14.00"> v19</text>
<text text-anchor="start" x="165.5" y="-1936.3" font-family="Times,serif" font-size="14.00"> v20</text>
<text text-anchor="start" x="165.5" y="-1921.3" font-family="Times,serif" font-size="14.00"> v21</text>
<text text-anchor="start" x="165.5" y="-1906.3" font-family="Times,serif" font-size="14.00"> v22</text>
<text text-anchor="start" x="165.5" y="-1891.3" font-family="Times,serif" font-size="14.00"> v23</text>
<text text-anchor="start" x="165.5" y="-1876.3" font-family="Times,serif" font-size="14.00"> v24</text>
<text text-anchor="start" x="165.5" y="-1861.3" font-family="Times,serif" font-size="14.00"> v25</text>
<text text-anchor="start" x="165.5" y="-1846.3" font-family="Times,serif" font-size="14.00"> v26</text>
<text text-anchor="start" x="165.5" y="-1831.3" font-family="Times,serif" font-size="14.00"> v27</text>
<text text-anchor="start" x="165.5" y="-1816.3" font-family="Times,serif" font-size="14.00"> v28</text>
<text text-anchor="start" x="165.5" y="-1801.3" font-family="Times,serif" font-size="14.00"> v29</text>
<text text-anchor="start" x="165.5" y="-1786.3" font-family="Times,serif" font-size="14.00"> v30</text>
<text text-anchor="start" x="165.5" y="-1771.3" font-family="Times,serif" font-size="14.00"> v31</text>
<text text-anchor="start" x="165.5" y="-1756.3" font-family="Times,serif" font-size="14.00"> v32</text>
<text text-anchor="start" x="165.5" y="-1741.3" font-family="Times,serif" font-size="14.00"> v33</text>
<text text-anchor="start" x="165.5" y="-1726.3" font-family="Times,serif" font-size="14.00"> v34</text>
<text text-anchor="start" x="165.5" y="-1711.3" font-family="Times,serif" font-size="14.00"> v35</text>
<text text-anchor="start" x="165.5" y="-1696.3" font-family="Times,serif" font-size="14.00"> v36</text>
<text text-anchor="start" x="165.5" y="-1681.3" font-family="Times,serif" font-size="14.00"> v37</text>
<text text-anchor="start" x="165.5" y="-1666.3" font-family="Times,serif" font-size="14.00"> v38</text>
<text text-anchor="start" x="165.5" y="-1651.3" font-family="Times,serif" font-size="14.00"> v39</text>
<text text-anchor="start" x="165.5" y="-1636.3" font-family="Times,serif" font-size="14.00"> v20 = v21</text>
<text text-anchor="start" x="165.5" y="-1621.3" font-family="Times,serif" font-size="14.00"> v18 = v19</text>
<text text-anchor="start" x="165.5" y="-1606.3" font-family="Times,serif" font-size="14.00"> v16 = v17</text>
<text text-anchor="start" x="165.5" y="-1591.3" font-family="Times,serif" font-size="14.00"> v27 = v28</text>
<text text-anchor="start" x="165.5" y="-1576.3" font-family="Times,serif" font-size="14.00"> v31 = g5</text>
<text text-anchor="start" x="165.5" y="-1561.3" font-family="Times,serif" font-size="14.00"> g9 = v31</text>
<text text-anchor="start" x="165.5" y="-1546.3" font-family="Times,serif" font-size="14.00"> v38 = *(IntToPtrCastExpr&lt;ptr&gt;((v31 + 100)))</text>
<text text-anchor="start" x="165.5" y="-1531.3" font-family="Times,serif" font-size="14.00"> g2 = v38</text>
</g>
<!-- Node0xf353390&#45;&gt;Node0xf353ea0 -->
<g id="edge1" class="edge"><title>Node0xf353390&#45;&gt;Node0xf353ea0</title>
<path fill="none" stroke="black" d="M335,-2274.38C335,-2267.11 335,-2257.74 335,-2246.75"/>
<polygon fill="black" stroke="black" points="338.5,-2246.67 335,-2236.67 331.5,-2246.67 338.5,-2246.67"/>
</g>
<!-- Node0xf350c70 -->
<g id="node3" class="node"><title>Node0xf350c70</title>
<polygon fill="none" stroke="black" points="278,-1447.5 278,-1485.5 392,-1485.5 392,-1447.5 278,-1447.5"/>
<text text-anchor="start" x="286" y="-1470.3" font-family="Times,serif" font-size="14.00">if (v38 == 0):</text>
<text text-anchor="start" x="286" y="-1455.3" font-family="Times,serif" font-size="14.00"> else:</text>
</g>
<!-- Node0xf353ea0&#45;&gt;Node0xf350c70 -->
<g id="edge2" class="edge"><title>Node0xf353ea0&#45;&gt;Node0xf350c70</title>
<path fill="none" stroke="black" d="M335,-1523.42C335,-1512.99 335,-1503.68 335,-1495.79"/>
<polygon fill="black" stroke="black" points="338.5,-1495.61 335,-1485.61 331.5,-1495.61 338.5,-1495.61"/>
</g>
<!-- Node0xf354e30 -->
<g id="node4" class="node"><title>Node0xf354e30</title>
<polygon fill="none" stroke="black" points="0,-1312.5 0,-1395.5 346,-1395.5 346,-1312.5 0,-1312.5"/>
<text text-anchor="start" x="8" y="-1380.3" font-family="Times,serif" font-size="14.00">0x413bfb:</text>
<text text-anchor="start" x="8" y="-1365.3" font-family="Times,serif" font-size="14.00"> v39 = *(IntToPtrCastExpr&lt;ptr&gt;((v31 + 88)))</text>
<text text-anchor="start" x="8" y="-1350.3" font-family="Times,serif" font-size="14.00"> v7 = IntToPtrCastExpr&lt;ptr&gt;(v39)</text>
<text text-anchor="start" x="8" y="-1335.3" font-family="Times,serif" font-size="14.00"> v27 = v7</text>
<text text-anchor="start" x="8" y="-1320.3" font-family="Times,serif" font-size="14.00"> function_411aa0(v7)</text>
</g>
<!-- Node0xf350c70&#45;&gt;Node0xf354e30 -->
<g id="edge3" class="edge"><title>Node0xf350c70&#45;&gt;Node0xf354e30</title>
<path fill="none" stroke="black" d="M308.249,-1447.25C289.84,-1434.7 264.511,-1417.42 240.747,-1401.21"/>
<polygon fill="black" stroke="black" points="242.654,-1398.27 232.421,-1395.53 238.71,-1404.06 242.654,-1398.27"/>
<text text-anchor="middle" x="312.5" y="-1417.8" font-family="Times,serif" font-size="14.00">v38 == 0</text>
</g>
<!-- Node0xf354eb0 -->
<g id="node5" class="node"><title>Node0xf354eb0</title>
<polygon fill="none" stroke="black" points="364.5,-1320 364.5,-1388 633.5,-1388 633.5,-1320 364.5,-1320"/>
<text text-anchor="start" x="372.5" y="-1372.8" font-family="Times,serif" font-size="14.00">0x413bf3:</text>
<text text-anchor="start" x="372.5" y="-1357.8" font-family="Times,serif" font-size="14.00"> v6 = IntToPtrCastExpr&lt;ptr&gt;(v38)</text>
<text text-anchor="start" x="372.5" y="-1342.8" font-family="Times,serif" font-size="14.00"> v27 = v6</text>
<text text-anchor="start" x="372.5" y="-1327.8" font-family="Times,serif" font-size="14.00"> function_411657(v6)</text>
</g>
<!-- Node0xf350c70&#45;&gt;Node0xf354eb0 -->
<g id="edge4" class="edge"><title>Node0xf350c70&#45;&gt;Node0xf354eb0</title>
<path fill="none" stroke="black" d="M362.081,-1447.25C383.59,-1432.76 414.428,-1411.98 441.394,-1393.81"/>
<polygon fill="black" stroke="black" points="443.658,-1396.51 449.996,-1388.02 439.747,-1390.7 443.658,-1396.51"/>
<text text-anchor="middle" x="439.5" y="-1417.8" font-family="Times,serif" font-size="14.00">v38 != 0</text>
</g>
<!-- Node0xf3512d0 -->
<g id="node6" class="node"><title>Node0xf3512d0</title>
<polygon fill="none" stroke="black" points="327,-1206.5 327,-1274.5 419,-1274.5 419,-1206.5 327,-1206.5"/>
<text text-anchor="start" x="335" y="-1259.3" font-family="Times,serif" font-size="14.00">0x413c03:</text>
<text text-anchor="start" x="335" y="-1244.3" font-family="Times,serif" font-size="14.00"> v32 = g2</text>
<text text-anchor="start" x="335" y="-1229.3" font-family="Times,serif" font-size="14.00"> v33 = g9</text>
<text text-anchor="start" x="335" y="-1214.3" font-family="Times,serif" font-size="14.00"> g5 = v33</text>
</g>
<!-- Node0xf354e30&#45;&gt;Node0xf3512d0 -->
<g id="edge5" class="edge"><title>Node0xf354e30&#45;&gt;Node0xf3512d0</title>
<path fill="none" stroke="black" d="M245.77,-1312.43C269.526,-1299.19 295.501,-1284.71 317.752,-1272.3"/>
<polygon fill="black" stroke="black" points="319.691,-1275.23 326.721,-1267.3 316.283,-1269.11 319.691,-1275.23"/>
</g>
<!-- Node0xf354eb0&#45;&gt;Node0xf3512d0 -->
<g id="edge6" class="edge"><title>Node0xf354eb0&#45;&gt;Node0xf3512d0</title>
<path fill="none" stroke="black" d="M461.537,-1319.85C447.949,-1307.82 432.453,-1294.11 418.264,-1281.56"/>
<polygon fill="black" stroke="black" points="420.345,-1278.72 410.536,-1274.72 415.706,-1283.96 420.345,-1278.72"/>
</g>
<!-- Node0xf34f5e0 -->
<g id="node7" class="node"><title>Node0xf34f5e0</title>
<polygon fill="none" stroke="black" points="316,-1132.5 316,-1168.5 430,-1168.5 430,-1132.5 316,-1132.5"/>
<text text-anchor="start" x="324" y="-1146.8" font-family="Times,serif" font-size="14.00">if (v32 == 0):</text>
</g>
<!-- Node0xf3512d0&#45;&gt;Node0xf34f5e0 -->
<g id="edge7" class="edge"><title>Node0xf3512d0&#45;&gt;Node0xf34f5e0</title>
<path fill="none" stroke="black" d="M373,-1206.48C373,-1197.33 373,-1187.5 373,-1178.72"/>
<polygon fill="black" stroke="black" points="376.5,-1178.64 373,-1168.64 369.5,-1178.64 376.5,-1178.64"/>
</g>
<!-- Node0xf354f30 -->
<g id="node8" class="node"><title>Node0xf354f30</title>
<polygon fill="none" stroke="black" points="120,-850.5 120,-978.5 496,-978.5 496,-850.5 120,-850.5"/>
<text text-anchor="start" x="128" y="-963.3" font-family="Times,serif" font-size="14.00">0x413c09:</text>
<text text-anchor="start" x="128" y="-948.3" font-family="Times,serif" font-size="14.00"> v16 = IntToPtrCastExpr&lt;ptr&gt;(&#45;1)</text>
<text text-anchor="start" x="128" y="-933.3" font-family="Times,serif" font-size="14.00"> v4 = v27</text>
<text text-anchor="start" x="128" y="-918.3" font-family="Times,serif" font-size="14.00"> function_413896(IntToPtrCastExpr&lt;ptr&gt;(&#45;1), v4)</text>
<text text-anchor="start" x="128" y="-903.3" font-family="Times,serif" font-size="14.00"> g1 = False</text>
<text text-anchor="start" x="128" y="-888.3" font-family="Times,serif" font-size="14.00"> v35 = v16</text>
<text text-anchor="start" x="128" y="-873.3" font-family="Times,serif" font-size="14.00"> g9 = PtrToIntCastExpr&lt;int32&gt;(v35)</text>
<text text-anchor="start" x="128" y="-858.3" font-family="Times,serif" font-size="14.00"> return 0</text>
</g>
<!-- Node0xf34f5e0&#45;&gt;Node0xf354f30 -->
<g id="edge8" class="edge"><title>Node0xf34f5e0&#45;&gt;Node0xf354f30</title>
<path fill="none" stroke="black" d="M354.788,-1132.47C349.932,-1127.01 345.162,-1120.65 342,-1114 323.536,-1075.16 314.966,-1027.81 311.045,-989.105"/>
<polygon fill="black" stroke="black" points="314.511,-988.58 310.101,-978.947 307.541,-989.227 314.511,-988.58"/>
<text text-anchor="middle" x="376.5" y="-1102.8" font-family="Times,serif" font-size="14.00">v32 == 0</text>
</g>
<!-- Node0xf34bba0 -->
<g id="node9" class="node"><title>Node0xf34bba0</title>
<polygon fill="none" stroke="black" points="392.5,-997.5 392.5,-1080.5 591.5,-1080.5 591.5,-997.5 392.5,-997.5"/>
<text text-anchor="start" x="400.5" y="-1065.3" font-family="Times,serif" font-size="14.00">0x413c14:</text>
<text text-anchor="start" x="400.5" y="-1050.3" font-family="Times,serif" font-size="14.00"> v16 = NULL</text>
<text text-anchor="start" x="400.5" y="-1035.3" font-family="Times,serif" font-size="14.00"> v12 = function_40e7b4()</text>
<text text-anchor="start" x="400.5" y="-1020.3" font-family="Times,serif" font-size="14.00"> v34 = g9</text>
<text text-anchor="start" x="400.5" y="-1005.3" font-family="Times,serif" font-size="14.00"> g5 = v34</text>
</g>
<!-- Node0xf34f5e0&#45;&gt;Node0xf34bba0 -->
<g id="edge9" class="edge"><title>Node0xf34f5e0&#45;&gt;Node0xf34bba0</title>
<path fill="none" stroke="black" d="M391.594,-1132.39C404.749,-1120.29 423.076,-1103.42 440.475,-1087.41"/>
<polygon fill="black" stroke="black" points="442.869,-1089.96 447.858,-1080.62 438.129,-1084.81 442.869,-1089.96"/>
<text text-anchor="middle" x="457.5" y="-1102.8" font-family="Times,serif" font-size="14.00">v32 != 0</text>
</g>
<!-- Node0xf353e40 -->
<g id="node10" class="node"><title>Node0xf353e40</title>
<polygon fill="none" stroke="black" points="396,-23.5 396,-59.5 450,-59.5 450,-23.5 396,-23.5"/>
<text text-anchor="start" x="404" y="-37.8" font-family="Times,serif" font-size="14.00">exit:</text>
</g>
<!-- Node0xf354f30&#45;&gt;Node0xf353e40 -->
<g id="edge10" class="edge"><title>Node0xf354f30&#45;&gt;Node0xf353e40</title>
<path fill="none" stroke="black" d="M308,-850.499C308,-825.582 308,-796.692 308,-770.5 308,-770.5 308,-770.5 308,-145.5 308,-102.626 352.9,-73.117 386.589,-57.0099"/>
<polygon fill="black" stroke="black" points="388.108,-60.1639 395.747,-52.8223 385.197,-53.7979 388.108,-60.1639"/>
</g>
<!-- Node0xf34f2f0 -->
<g id="node11" class="node"><title>Node0xf34f2f0</title>
<polygon fill="none" stroke="black" points="454,-795.5 454,-831.5 568,-831.5 568,-795.5 454,-795.5"/>
<text text-anchor="start" x="462" y="-809.8" font-family="Times,serif" font-size="14.00">if (v12 == 0):</text>
</g>
<!-- Node0xf34bba0&#45;&gt;Node0xf34f2f0 -->
<g id="edge11" class="edge"><title>Node0xf34bba0&#45;&gt;Node0xf34f2f0</title>
<path fill="none" stroke="black" d="M495.463,-997.267C499.308,-952.037 505.406,-880.306 508.703,-841.525"/>
<polygon fill="black" stroke="black" points="512.194,-841.771 509.554,-831.511 505.219,-841.178 512.194,-841.771"/>
</g>
<!-- Node0xf355200 -->
<g id="node12" class="node"><title>Node0xf355200</title>
<polygon fill="none" stroke="black" points="323,-513.5 323,-641.5 699,-641.5 699,-513.5 323,-513.5"/>
<text text-anchor="start" x="331" y="-626.3" font-family="Times,serif" font-size="14.00">0x413c09:</text>
<text text-anchor="start" x="331" y="-611.3" font-family="Times,serif" font-size="14.00"> v16 = IntToPtrCastExpr&lt;ptr&gt;(&#45;1)</text>
<text text-anchor="start" x="331" y="-596.3" font-family="Times,serif" font-size="14.00"> v4 = v27</text>
<text text-anchor="start" x="331" y="-581.3" font-family="Times,serif" font-size="14.00"> function_413896(IntToPtrCastExpr&lt;ptr&gt;(&#45;1), v4)</text>
<text text-anchor="start" x="331" y="-566.3" font-family="Times,serif" font-size="14.00"> g1 = False</text>
<text text-anchor="start" x="331" y="-551.3" font-family="Times,serif" font-size="14.00"> v35 = v16</text>
<text text-anchor="start" x="331" y="-536.3" font-family="Times,serif" font-size="14.00"> g9 = PtrToIntCastExpr&lt;int32&gt;(v35)</text>
<text text-anchor="start" x="331" y="-521.3" font-family="Times,serif" font-size="14.00"> return 0</text>
</g>
<!-- Node0xf34f2f0&#45;&gt;Node0xf355200 -->
<g id="edge12" class="edge"><title>Node0xf34f2f0&#45;&gt;Node0xf355200</title>
<path fill="none" stroke="black" d="M511,-795.293C511,-765.424 511,-702.339 511,-651.884"/>
<polygon fill="black" stroke="black" points="514.5,-651.651 511,-641.651 507.5,-651.651 514.5,-651.651"/>
<text text-anchor="middle" x="545.5" y="-765.8" font-family="Times,serif" font-size="14.00">v12 == 0</text>
</g>
<!-- Node0xf354620 -->
<g id="node13" class="node"><title>Node0xf354620</title>
<polygon fill="none" stroke="black" points="538.5,-660.5 538.5,-743.5 993.5,-743.5 993.5,-660.5 538.5,-660.5"/>
<text text-anchor="start" x="546.5" y="-728.3" font-family="Times,serif" font-size="14.00">0x413c21:</text>
<text text-anchor="start" x="546.5" y="-713.3" font-family="Times,serif" font-size="14.00"> v18 = IntToPtrCastExpr&lt;ptr&gt;(57670)</text>
<text text-anchor="start" x="546.5" y="-698.3" font-family="Times,serif" font-size="14.00"> g10 = PtrToIntCastExpr&lt;int32&gt;(&amp;(v18))</text>
<text text-anchor="start" x="546.5" y="-683.3" font-family="Times,serif" font-size="14.00"> v2 = v16</text>
<text text-anchor="start" x="546.5" y="-668.3" font-family="Times,serif" font-size="14.00"> v13 = function_411b61(IntToPtrCastExpr&lt;ptr&gt;(57670), v2)</text>
</g>
<!-- Node0xf34f2f0&#45;&gt;Node0xf354620 -->
<g id="edge13" class="edge"><title>Node0xf34f2f0&#45;&gt;Node0xf354620</title>
<path fill="none" stroke="black" d="M550.844,-795.391C580.735,-782.555 623.084,-764.37 662.314,-747.524"/>
<polygon fill="black" stroke="black" points="663.874,-750.663 671.681,-743.502 661.112,-744.231 663.874,-750.663"/>
<text text-anchor="middle" x="655.5" y="-765.8" font-family="Times,serif" font-size="14.00">v12 != 0</text>
</g>
<!-- Node0xf355200&#45;&gt;Node0xf353e40 -->
<g id="edge14" class="edge"><title>Node0xf355200&#45;&gt;Node0xf353e40</title>
<path fill="none" stroke="black" d="M452.058,-513.325C436.028,-490.001 423,-462.213 423,-433.5 423,-433.5 423,-433.5 423,-145.5 423,-119.765 423,-90.414 423,-69.6451"/>
<polygon fill="black" stroke="black" points="426.5,-69.6312 423,-59.6313 419.5,-69.6313 426.5,-69.6312"/>
</g>
<!-- Node0x8055dc0 -->
<g id="node14" class="node"><title>Node0x8055dc0</title>
<polygon fill="none" stroke="black" points="712,-458.5 712,-494.5 820,-494.5 820,-458.5 712,-458.5"/>
<text text-anchor="start" x="720" y="-472.8" font-family="Times,serif" font-size="14.00">if (v13 != 0):</text>
</g>
<!-- Node0xf354620&#45;&gt;Node0x8055dc0 -->
<g id="edge15" class="edge"><title>Node0xf354620&#45;&gt;Node0x8055dc0</title>
<path fill="none" stroke="black" d="M766,-660.267C766,-615.037 766,-543.306 766,-504.525"/>
<polygon fill="black" stroke="black" points="769.5,-504.511 766,-494.511 762.5,-504.511 769.5,-504.511"/>
</g>
<!-- Node0xf355460 -->
<g id="node15" class="node"><title>Node0xf355460</title>
<polygon fill="none" stroke="black" points="451,-233.5 451,-406.5 769,-406.5 769,-233.5 451,-233.5"/>
<text text-anchor="start" x="459" y="-391.3" font-family="Times,serif" font-size="14.00">0x413c31:</text>
<text text-anchor="start" x="459" y="-376.3" font-family="Times,serif" font-size="14.00"> v1 = v18</text>
<text text-anchor="start" x="459" y="-361.3" font-family="Times,serif" font-size="14.00"> v3 = v16</text>
<text text-anchor="start" x="459" y="-346.3" font-family="Times,serif" font-size="14.00"> v15 = function_413b93(v1, v3)</text>
<text text-anchor="start" x="459" y="-331.3" font-family="Times,serif" font-size="14.00"> v37 = (5 if (v15 != 0) else 0)</text>
<text text-anchor="start" x="459" y="-316.3" font-family="Times,serif" font-size="14.00"> g2 = v37</text>
<text text-anchor="start" x="459" y="-301.3" font-family="Times,serif" font-size="14.00"> v8 = IntToPtrCastExpr&lt;ptr&gt;(v37)</text>
<text text-anchor="start" x="459" y="-286.3" font-family="Times,serif" font-size="14.00"> v20 = v8</text>
<text text-anchor="start" x="459" y="-271.3" font-family="Times,serif" font-size="14.00"> g10 = PtrToIntCastExpr&lt;int32&gt;(&amp;(v20))</text>
<text text-anchor="start" x="459" y="-256.3" font-family="Times,serif" font-size="14.00"> v5 = v18</text>
<text text-anchor="start" x="459" y="-241.3" font-family="Times,serif" font-size="14.00"> function_411cd3(v8, v5)</text>
</g>
<!-- Node0x8055dc0&#45;&gt;Node0xf355460 -->
<g id="edge16" class="edge"><title>Node0x8055dc0&#45;&gt;Node0xf355460</title>
<path fill="none" stroke="black" d="M747.311,-458.307C741.118,-452.538 734.219,-446.037 728,-440 719.269,-431.525 710.242,-422.644 701.248,-413.714"/>
<polygon fill="black" stroke="black" points="703.605,-411.123 694.048,-406.55 698.668,-416.085 703.605,-411.123"/>
<text text-anchor="middle" x="759.5" y="-428.8" font-family="Times,serif" font-size="14.00">v13 != 0</text>
</g>
<!-- Node0xf354950 -->
<g id="node16" class="node"><title>Node0xf354950</title>
<polygon fill="none" stroke="black" points="467,-97.5 467,-195.5 753,-195.5 753,-97.5 467,-97.5"/>
<text text-anchor="start" x="475" y="-180.3" font-family="Times,serif" font-size="14.00">0x413c45:</text>
<text text-anchor="start" x="475" y="-165.3" font-family="Times,serif" font-size="14.00"> g1 = False</text>
<text text-anchor="start" x="475" y="-150.3" font-family="Times,serif" font-size="14.00"> g2 = 0</text>
<text text-anchor="start" x="475" y="-135.3" font-family="Times,serif" font-size="14.00"> v36 = v18</text>
<text text-anchor="start" x="475" y="-120.3" font-family="Times,serif" font-size="14.00"> g9 = PtrToIntCastExpr&lt;int32&gt;(v36)</text>
<text text-anchor="start" x="475" y="-105.3" font-family="Times,serif" font-size="14.00"> return 1</text>
</g>
<!-- Node0x8055dc0&#45;&gt;Node0xf354950 -->
<g id="edge17" class="edge"><title>Node0x8055dc0&#45;&gt;Node0xf354950</title>
<path fill="none" stroke="black" d="M781.319,-458.236C785.253,-452.775 788.951,-446.468 791,-440 793.013,-433.645 791.225,-431.663 791,-425 788.109,-339.52 825.145,-304.362 778,-233 770.085,-221.02 759.949,-210.634 748.584,-201.649"/>
<polygon fill="black" stroke="black" points="750.643,-198.818 740.533,-195.65 746.461,-204.432 750.643,-198.818"/>
<text text-anchor="middle" x="836.5" y="-316.3" font-family="Times,serif" font-size="14.00">v13 == 0</text>
</g>
<!-- Node0xf355460&#45;&gt;Node0xf354950 -->
<g id="edge18" class="edge"><title>Node0xf355460&#45;&gt;Node0xf354950</title>
<path fill="none" stroke="black" d="M610,-233.25C610,-223.981 610,-214.712 610,-205.876"/>
<polygon fill="black" stroke="black" points="613.5,-205.729 610,-195.729 606.5,-205.729 613.5,-205.729"/>
</g>
<!-- Node0xf354950&#45;&gt;Node0xf353e40 -->
<g id="edge19" class="edge"><title>Node0xf354950&#45;&gt;Node0xf353e40</title>
<path fill="none" stroke="black" d="M522.796,-97.4679C500.417,-85.1414 477.555,-72.5488 459.368,-62.5318"/>
<polygon fill="black" stroke="black" points="460.76,-59.3023 450.312,-57.5434 457.382,-65.4338 460.76,-59.3023"/>
</g>
</g>
</svg>
