<?xml version="1.0" encoding="UTF-8" standalone="no"?>
<!DOCTYPE svg PUBLIC "-//W3C//DTD SVG 1.1//EN"
 "http://www.w3.org/Graphics/SVG/1.1/DTD/svg11.dtd">
<!-- Generated by graphviz version 2.38.0 (20140413.2041)
 -->
<!-- Title: Control&#45;flow graph for function &#39;function_4114bf(*a1, **wParam, *lParam, *a4)&#39;. Pages: 1 -->
<svg width="1138pt" height="1044pt"
 viewBox="0.00 0.00 1137.50 1044.00" xmlns="http://www.w3.org/2000/svg" xmlns:xlink="http://www.w3.org/1999/xlink">
<g id="graph0" class="graph" transform="scale(1 1) rotate(0) translate(4 1040)">
<title>Control&#45;flow graph for function &#39;function_4114bf(*a1, **wParam, *lParam, *a4)&#39;.</title>
<polygon fill="white" stroke="none" points="-4,4 -4,-1040 1133.5,-1040 1133.5,4 -4,4"/>
<text text-anchor="middle" x="564.75" y="-7.8" font-family="Times,serif" font-size="14.00">Control&#45;flow graph for function &#39;function_4114bf(*a1, **wParam, *lParam, *a4)&#39;.</text>
<!-- Node0xf248510 -->
<g id="node1" class="node"><title>Node0xf248510</title>
<polygon fill="none" stroke="black" points="427,-952.5 427,-1035.5 506,-1035.5 506,-952.5 427,-952.5"/>
<text text-anchor="start" x="435" y="-1020.3" font-family="Times,serif" font-size="14.00">entry:</text>
<text text-anchor="start" x="435" y="-1005.3" font-family="Times,serif" font-size="14.00"> a1</text>
<text text-anchor="start" x="435" y="-990.3" font-family="Times,serif" font-size="14.00"> wParam</text>
<text text-anchor="start" x="435" y="-975.3" font-family="Times,serif" font-size="14.00"> lParam</text>
<text text-anchor="start" x="435" y="-960.3" font-family="Times,serif" font-size="14.00"> a4</text>
</g>
<!-- Node0xf168650 -->
<g id="node2" class="node"><title>Node0xf168650</title>
<polygon fill="none" stroke="black" points="293.5,-351.5 293.5,-914.5 639.5,-914.5 639.5,-351.5 293.5,-351.5"/>
<text text-anchor="start" x="301.5" y="-899.3" font-family="Times,serif" font-size="14.00">v1</text>
<text text-anchor="start" x="301.5" y="-884.3" font-family="Times,serif" font-size="14.00"> result2</text>
<text text-anchor="start" x="301.5" y="-869.3" font-family="Times,serif" font-size="14.00"> result</text>
<text text-anchor="start" x="301.5" y="-854.3" font-family="Times,serif" font-size="14.00"> v2</text>
<text text-anchor="start" x="301.5" y="-839.3" font-family="Times,serif" font-size="14.00"> v3</text>
<text text-anchor="start" x="301.5" y="-824.3" font-family="Times,serif" font-size="14.00"> v4</text>
<text text-anchor="start" x="301.5" y="-809.3" font-family="Times,serif" font-size="14.00"> v5</text>
<text text-anchor="start" x="301.5" y="-794.3" font-family="Times,serif" font-size="14.00"> v6</text>
<text text-anchor="start" x="301.5" y="-779.3" font-family="Times,serif" font-size="14.00"> v7</text>
<text text-anchor="start" x="301.5" y="-764.3" font-family="Times,serif" font-size="14.00"> v8</text>
<text text-anchor="start" x="301.5" y="-749.3" font-family="Times,serif" font-size="14.00"> v9</text>
<text text-anchor="start" x="301.5" y="-734.3" font-family="Times,serif" font-size="14.00"> v10</text>
<text text-anchor="start" x="301.5" y="-719.3" font-family="Times,serif" font-size="14.00"> v11</text>
<text text-anchor="start" x="301.5" y="-704.3" font-family="Times,serif" font-size="14.00"> v12</text>
<text text-anchor="start" x="301.5" y="-689.3" font-family="Times,serif" font-size="14.00"> v13</text>
<text text-anchor="start" x="301.5" y="-674.3" font-family="Times,serif" font-size="14.00"> v14</text>
<text text-anchor="start" x="301.5" y="-659.3" font-family="Times,serif" font-size="14.00"> v15</text>
<text text-anchor="start" x="301.5" y="-644.3" font-family="Times,serif" font-size="14.00"> v16</text>
<text text-anchor="start" x="301.5" y="-629.3" font-family="Times,serif" font-size="14.00"> v17</text>
<text text-anchor="start" x="301.5" y="-614.3" font-family="Times,serif" font-size="14.00"> v18</text>
<text text-anchor="start" x="301.5" y="-599.3" font-family="Times,serif" font-size="14.00"> v19</text>
<text text-anchor="start" x="301.5" y="-584.3" font-family="Times,serif" font-size="14.00"> v20</text>
<text text-anchor="start" x="301.5" y="-569.3" font-family="Times,serif" font-size="14.00"> v21</text>
<text text-anchor="start" x="301.5" y="-554.3" font-family="Times,serif" font-size="14.00"> v22</text>
<text text-anchor="start" x="301.5" y="-539.3" font-family="Times,serif" font-size="14.00"> v23</text>
<text text-anchor="start" x="301.5" y="-524.3" font-family="Times,serif" font-size="14.00"> v24</text>
<text text-anchor="start" x="301.5" y="-509.3" font-family="Times,serif" font-size="14.00"> Msg</text>
<text text-anchor="start" x="301.5" y="-494.3" font-family="Times,serif" font-size="14.00"> v25</text>
<text text-anchor="start" x="301.5" y="-479.3" font-family="Times,serif" font-size="14.00"> hWnd</text>
<text text-anchor="start" x="301.5" y="-464.3" font-family="Times,serif" font-size="14.00"> v26</text>
<text text-anchor="start" x="301.5" y="-449.3" font-family="Times,serif" font-size="14.00"> v9 = v13</text>
<text text-anchor="start" x="301.5" y="-434.3" font-family="Times,serif" font-size="14.00"> v23 = g3</text>
<text text-anchor="start" x="301.5" y="-419.3" font-family="Times,serif" font-size="14.00"> v1 = IntToPtrCastExpr&lt;ptr&gt;(v23)</text>
<text text-anchor="start" x="301.5" y="-404.3" font-family="Times,serif" font-size="14.00"> v9 = v1</text>
<text text-anchor="start" x="301.5" y="-389.3" font-family="Times,serif" font-size="14.00"> g3 = PtrToIntCastExpr&lt;int32&gt;(&amp;(v9))</text>
<text text-anchor="start" x="301.5" y="-374.3" font-family="Times,serif" font-size="14.00"> v24 = g5</text>
<text text-anchor="start" x="301.5" y="-359.3" font-family="Times,serif" font-size="14.00"> v26 = *(IntToPtrCastExpr&lt;ptr&gt;((v24 + 80)))</text>
</g>
<!-- Node0xf248510&#45;&gt;Node0xf168650 -->
<g id="edge1" class="edge"><title>Node0xf248510&#45;&gt;Node0xf168650</title>
<path fill="none" stroke="black" d="M466.5,-952.168C466.5,-943.967 466.5,-934.778 466.5,-924.837"/>
<polygon fill="black" stroke="black" points="470,-924.653 466.5,-914.653 463,-924.653 470,-924.653"/>
</g>
<!-- Node0x788d830 -->
<g id="node3" class="node"><title>Node0x788d830</title>
<polygon fill="none" stroke="black" points="409.5,-277.5 409.5,-313.5 523.5,-313.5 523.5,-277.5 409.5,-277.5"/>
<text text-anchor="start" x="417.5" y="-291.8" font-family="Times,serif" font-size="14.00">if (v26 == 0):</text>
</g>
<!-- Node0xf168650&#45;&gt;Node0x788d830 -->
<g id="edge2" class="edge"><title>Node0xf168650&#45;&gt;Node0x788d830</title>
<path fill="none" stroke="black" d="M466.5,-351.151C466.5,-340.91 466.5,-331.722 466.5,-323.932"/>
<polygon fill="black" stroke="black" points="470,-323.886 466.5,-313.886 463,-323.886 470,-323.886"/>
</g>
<!-- Node0xf1b9230 -->
<g id="node4" class="node"><title>Node0xf1b9230</title>
<polygon fill="none" stroke="black" points="0,-120 0,-203 361,-203 361,-120 0,-120"/>
<text text-anchor="start" x="8" y="-187.8" font-family="Times,serif" font-size="14.00">0x411504:</text>
<text text-anchor="start" x="8" y="-172.8" font-family="Times,serif" font-size="14.00"> v22 = *(&amp;(v1[&#39;0&#39;]))</text>
<text text-anchor="start" x="8" y="-157.8" font-family="Times,serif" font-size="14.00"> g3 = PtrToIntCastExpr&lt;int32&gt;(v22)</text>
<text text-anchor="start" x="8" y="-142.8" font-family="Times,serif" font-size="14.00"> result = function_41115d(v1, v16, a1, wParam)</text>
<text text-anchor="start" x="8" y="-127.8" font-family="Times,serif" font-size="14.00"> return result</text>
</g>
<!-- Node0x788d830&#45;&gt;Node0xf1b9230 -->
<g id="edge3" class="edge"><title>Node0x788d830&#45;&gt;Node0xf1b9230</title>
<path fill="none" stroke="black" d="M429.404,-277.379C391.121,-259.71 329.799,-231.407 277.604,-207.317"/>
<polygon fill="black" stroke="black" points="278.854,-204.039 268.308,-203.027 275.92,-210.395 278.854,-204.039"/>
<text text-anchor="middle" x="417" y="-247.8" font-family="Times,serif" font-size="14.00">v26 == 0</text>
</g>
<!-- Node0xf17beb0 -->
<g id="node5" class="node"><title>Node0xf17beb0</title>
<polygon fill="none" stroke="black" points="379.5,-97.5 379.5,-225.5 1129.5,-225.5 1129.5,-97.5 379.5,-97.5"/>
<text text-anchor="start" x="387.5" y="-210.3" font-family="Times,serif" font-size="14.00">0x4114c8:</text>
<text text-anchor="start" x="387.5" y="-195.3" font-family="Times,serif" font-size="14.00"> v25 = PtrToIntCastExpr&lt;int32&gt;(a1)</text>
<text text-anchor="start" x="387.5" y="-180.3" font-family="Times,serif" font-size="14.00"> g9 = v25</text>
<text text-anchor="start" x="387.5" y="-165.3" font-family="Times,serif" font-size="14.00"> Msg = (v25 + 8192)</text>
<text text-anchor="start" x="387.5" y="-150.3" font-family="Times,serif" font-size="14.00"> g2 = Msg</text>
<text text-anchor="start" x="387.5" y="-135.3" font-family="Times,serif" font-size="14.00"> hWnd = *(IntToPtrCastExpr&lt;ptr&gt;((v24 + 32)))</text>
<text text-anchor="start" x="387.5" y="-120.3" font-family="Times,serif" font-size="14.00"> result2 = SendMessageA(IntToPtrCastExpr&lt;ptr&gt;(hWnd), Msg, BitCastExpr&lt;ptr&gt;(wParam), lParam)</text>
<text text-anchor="start" x="387.5" y="-105.3" font-family="Times,serif" font-size="14.00"> return result2</text>
</g>
<!-- Node0x788d830&#45;&gt;Node0xf17beb0 -->
<g id="edge4" class="edge"><title>Node0x788d830&#45;&gt;Node0xf17beb0</title>
<path fill="none" stroke="black" d="M503.856,-277.379C530.768,-265.044 568.987,-247.527 607.492,-229.879"/>
<polygon fill="black" stroke="black" points="609.121,-232.982 616.753,-225.634 606.204,-226.619 609.121,-232.982"/>
<text text-anchor="middle" x="608" y="-247.8" font-family="Times,serif" font-size="14.00">v26 != 0</text>
</g>
<!-- Node0xf1da9a0 -->
<g id="node6" class="node"><title>Node0xf1da9a0</title>
<polygon fill="none" stroke="black" points="508.5,-23.5 508.5,-59.5 562.5,-59.5 562.5,-23.5 508.5,-23.5"/>
<text text-anchor="start" x="516.5" y="-37.8" font-family="Times,serif" font-size="14.00">exit:</text>
</g>
<!-- Node0xf1b9230&#45;&gt;Node0xf1da9a0 -->
<g id="edge5" class="edge"><title>Node0xf1b9230&#45;&gt;Node0xf1da9a0</title>
<path fill="none" stroke="black" d="M301.601,-119.956C324.482,-112.316 348.221,-104.402 370.5,-97 414.477,-82.3884 465.086,-65.6894 498.534,-54.6688"/>
<polygon fill="black" stroke="black" points="499.934,-57.8926 508.337,-51.4396 497.744,-51.2441 499.934,-57.8926"/>
</g>
<!-- Node0xf17beb0&#45;&gt;Node0xf1da9a0 -->
<g id="edge6" class="edge"><title>Node0xf17beb0&#45;&gt;Node0xf1da9a0</title>
<path fill="none" stroke="black" d="M637.306,-97.3546C613.295,-84.4168 589.779,-71.7462 571.408,-61.8477"/>
<polygon fill="black" stroke="black" points="573.023,-58.7423 562.56,-57.0801 569.703,-64.9047 573.023,-58.7423"/>
</g>
</g>
</svg>
