<?xml version="1.0" encoding="UTF-8" standalone="no"?>
<!DOCTYPE svg PUBLIC "-//W3C//DTD SVG 1.1//EN"
 "http://www.w3.org/Graphics/SVG/1.1/DTD/svg11.dtd">
<!-- Generated by graphviz version 2.38.0 (20140413.2041)
 -->
<!-- Title: Control&#45;flow graph for function &#39;function_4184e5(a1)&#39;. Pages: 1 -->
<svg width="570pt" height="443pt"
 viewBox="0.00 0.00 570.00 443.00" xmlns="http://www.w3.org/2000/svg" xmlns:xlink="http://www.w3.org/1999/xlink">
<g id="graph0" class="graph" transform="scale(1 1) rotate(0) translate(4 439)">
<title>Control&#45;flow graph for function &#39;function_4184e5(a1)&#39;.</title>
<polygon fill="white" stroke="none" points="-4,4 -4,-439 566,-439 566,4 -4,4"/>
<text text-anchor="middle" x="281" y="-7.8" font-family="Times,serif" font-size="14.00">Control&#45;flow graph for function &#39;function_4184e5(a1)&#39;.</text>
<!-- Node0xf51df20 -->
<g id="node1" class="node"><title>Node0xf51df20</title>
<polygon fill="none" stroke="black" points="251.5,-396.5 251.5,-434.5 310.5,-434.5 310.5,-396.5 251.5,-396.5"/>
<text text-anchor="start" x="259.5" y="-419.3" font-family="Times,serif" font-size="14.00">entry:</text>
<text text-anchor="start" x="259.5" y="-404.3" font-family="Times,serif" font-size="14.00"> a1</text>
</g>
<!-- Node0xf51f260 -->
<g id="node2" class="node"><title>Node0xf51f260</title>
<polygon fill="none" stroke="black" points="0,-96.5 0,-359.5 562,-359.5 562,-96.5 0,-96.5"/>
<text text-anchor="start" x="8" y="-344.3" font-family="Times,serif" font-size="14.00">result</text>
<text text-anchor="start" x="8" y="-329.3" font-family="Times,serif" font-size="14.00"> v1</text>
<text text-anchor="start" x="8" y="-314.3" font-family="Times,serif" font-size="14.00"> v2</text>
<text text-anchor="start" x="8" y="-299.3" font-family="Times,serif" font-size="14.00"> v3</text>
<text text-anchor="start" x="8" y="-284.3" font-family="Times,serif" font-size="14.00"> v4</text>
<text text-anchor="start" x="8" y="-269.3" font-family="Times,serif" font-size="14.00"> v5</text>
<text text-anchor="start" x="8" y="-254.3" font-family="Times,serif" font-size="14.00"> v6</text>
<text text-anchor="start" x="8" y="-239.3" font-family="Times,serif" font-size="14.00"> v7</text>
<text text-anchor="start" x="8" y="-224.3" font-family="Times,serif" font-size="14.00"> v8</text>
<text text-anchor="start" x="8" y="-209.3" font-family="Times,serif" font-size="14.00"> v9</text>
<text text-anchor="start" x="8" y="-194.3" font-family="Times,serif" font-size="14.00"> hWnd</text>
<text text-anchor="start" x="8" y="-179.3" font-family="Times,serif" font-size="14.00"> v8 = g5</text>
<text text-anchor="start" x="8" y="-164.3" font-family="Times,serif" font-size="14.00"> v9 = *(IntToPtrCastExpr&lt;ptr&gt;((v8 + 32)))</text>
<text text-anchor="start" x="8" y="-149.3" font-family="Times,serif" font-size="14.00"> g2 = v9</text>
<text text-anchor="start" x="8" y="-134.3" font-family="Times,serif" font-size="14.00"> hWnd = *(IntToPtrCastExpr&lt;ptr&gt;((v9 + 32)))</text>
<text text-anchor="start" x="8" y="-119.3" font-family="Times,serif" font-size="14.00"> result = SendMessageA(IntToPtrCastExpr&lt;ptr&gt;(hWnd), 16, NULL, NULL)</text>
<text text-anchor="start" x="8" y="-104.3" font-family="Times,serif" font-size="14.00"> return result</text>
</g>
<!-- Node0xf51df20&#45;&gt;Node0xf51f260 -->
<g id="edge1" class="edge"><title>Node0xf51df20&#45;&gt;Node0xf51f260</title>
<path fill="none" stroke="black" d="M281,-396.376C281,-389.053 281,-379.907 281,-369.692"/>
<polygon fill="black" stroke="black" points="284.5,-369.595 281,-359.595 277.5,-369.595 284.5,-369.595"/>
</g>
<!-- Node0xf51f070 -->
<g id="node3" class="node"><title>Node0xf51f070</title>
<polygon fill="none" stroke="black" points="254,-23.5 254,-59.5 308,-59.5 308,-23.5 254,-23.5"/>
<text text-anchor="start" x="262" y="-37.8" font-family="Times,serif" font-size="14.00">exit:</text>
</g>
<!-- Node0xf51f260&#45;&gt;Node0xf51f070 -->
<g id="edge2" class="edge"><title>Node0xf51f260&#45;&gt;Node0xf51f070</title>
<path fill="none" stroke="black" d="M281,-96.361C281,-86.7102 281,-77.7416 281,-70.0001"/>
<polygon fill="black" stroke="black" points="284.5,-69.93 281,-59.93 277.5,-69.93 284.5,-69.93"/>
</g>
</g>
</svg>
