<?xml version="1.0" encoding="UTF-8" standalone="no"?>
<!DOCTYPE svg PUBLIC "-//W3C//DTD SVG 1.1//EN"
 "http://www.w3.org/Graphics/SVG/1.1/DTD/svg11.dtd">
<!-- Generated by graphviz version 2.38.0 (20140413.2041)
 -->
<!-- Title: Control&#45;flow graph for function &#39;function_427fa1(*a1)&#39;. Pages: 1 -->
<svg width="415pt" height="353pt"
 viewBox="0.00 0.00 415.00 353.00" xmlns="http://www.w3.org/2000/svg" xmlns:xlink="http://www.w3.org/1999/xlink">
<g id="graph0" class="graph" transform="scale(1 1) rotate(0) translate(4 349)">
<title>Control&#45;flow graph for function &#39;function_427fa1(*a1)&#39;.</title>
<polygon fill="white" stroke="none" points="-4,4 -4,-349 411,-349 411,4 -4,4"/>
<text text-anchor="middle" x="203.5" y="-7.8" font-family="Times,serif" font-size="14.00">Control&#45;flow graph for function &#39;function_427fa1(*a1)&#39;.</text>
<!-- Node0xfe86790 -->
<g id="node1" class="node"><title>Node0xfe86790</title>
<polygon fill="none" stroke="black" points="174,-306.5 174,-344.5 233,-344.5 233,-306.5 174,-306.5"/>
<text text-anchor="start" x="182" y="-329.3" font-family="Times,serif" font-size="14.00">entry:</text>
<text text-anchor="start" x="182" y="-314.3" font-family="Times,serif" font-size="14.00"> a1</text>
</g>
<!-- Node0xfe85ab0 -->
<g id="node2" class="node"><title>Node0xfe85ab0</title>
<polygon fill="none" stroke="black" points="41.5,-96.5 41.5,-269.5 365.5,-269.5 365.5,-96.5 41.5,-96.5"/>
<text text-anchor="start" x="49.5" y="-254.3" font-family="Times,serif" font-size="14.00">v1</text>
<text text-anchor="start" x="49.5" y="-239.3" font-family="Times,serif" font-size="14.00"> result</text>
<text text-anchor="start" x="49.5" y="-224.3" font-family="Times,serif" font-size="14.00"> v2</text>
<text text-anchor="start" x="49.5" y="-209.3" font-family="Times,serif" font-size="14.00"> v3</text>
<text text-anchor="start" x="49.5" y="-194.3" font-family="Times,serif" font-size="14.00"> v4</text>
<text text-anchor="start" x="49.5" y="-179.3" font-family="Times,serif" font-size="14.00"> v2 = v3</text>
<text text-anchor="start" x="49.5" y="-164.3" font-family="Times,serif" font-size="14.00"> v2 = a1</text>
<text text-anchor="start" x="49.5" y="-149.3" font-family="Times,serif" font-size="14.00"> v4 = g5</text>
<text text-anchor="start" x="49.5" y="-134.3" font-family="Times,serif" font-size="14.00"> *(IntToPtrCastExpr&lt;ptr&gt;(v4)) = 4560284</text>
<text text-anchor="start" x="49.5" y="-119.3" font-family="Times,serif" font-size="14.00"> result = function_4137d2(NULL)</text>
<text text-anchor="start" x="49.5" y="-104.3" font-family="Times,serif" font-size="14.00"> return result</text>
</g>
<!-- Node0xfe86790&#45;&gt;Node0xfe85ab0 -->
<g id="edge1" class="edge"><title>Node0xfe86790&#45;&gt;Node0xfe85ab0</title>
<path fill="none" stroke="black" d="M203.5,-306.42C203.5,-299.027 203.5,-289.868 203.5,-279.912"/>
<polygon fill="black" stroke="black" points="207,-279.726 203.5,-269.726 200,-279.726 207,-279.726"/>
</g>
<!-- Node0xfe85a30 -->
<g id="node3" class="node"><title>Node0xfe85a30</title>
<polygon fill="none" stroke="black" points="176.5,-23.5 176.5,-59.5 230.5,-59.5 230.5,-23.5 176.5,-23.5"/>
<text text-anchor="start" x="184.5" y="-37.8" font-family="Times,serif" font-size="14.00">exit:</text>
</g>
<!-- Node0xfe85ab0&#45;&gt;Node0xfe85a30 -->
<g id="edge2" class="edge"><title>Node0xfe85ab0&#45;&gt;Node0xfe85a30</title>
<path fill="none" stroke="black" d="M203.5,-96.4343C203.5,-86.8184 203.5,-77.6259 203.5,-69.641"/>
<polygon fill="black" stroke="black" points="207,-69.5749 203.5,-59.5749 200,-69.5749 207,-69.5749"/>
</g>
</g>
</svg>
