<?xml version="1.0" encoding="UTF-8" standalone="no"?>
<!DOCTYPE svg PUBLIC "-//W3C//DTD SVG 1.1//EN"
 "http://www.w3.org/Graphics/SVG/1.1/DTD/svg11.dtd">
<!-- Generated by graphviz version 2.38.0 (20140413.2041)
 -->
<!-- Title: Control&#45;flow graph for function &#39;function_41f67a(a1)&#39;. Pages: 1 -->
<svg width="456pt" height="1242pt"
 viewBox="0.00 0.00 456.00 1242.00" xmlns="http://www.w3.org/2000/svg" xmlns:xlink="http://www.w3.org/1999/xlink">
<g id="graph0" class="graph" transform="scale(1 1) rotate(0) translate(4 1238)">
<title>Control&#45;flow graph for function &#39;function_41f67a(a1)&#39;.</title>
<polygon fill="white" stroke="none" points="-4,4 -4,-1238 452,-1238 452,4 -4,4"/>
<text text-anchor="middle" x="224" y="-7.8" font-family="Times,serif" font-size="14.00">Control&#45;flow graph for function &#39;function_41f67a(a1)&#39;.</text>
<!-- Node0xf85b0a0 -->
<g id="node1" class="node"><title>Node0xf85b0a0</title>
<polygon fill="none" stroke="black" points="235,-1195.5 235,-1233.5 294,-1233.5 294,-1195.5 235,-1195.5"/>
<text text-anchor="start" x="243" y="-1218.3" font-family="Times,serif" font-size="14.00">entry:</text>
<text text-anchor="start" x="243" y="-1203.3" font-family="Times,serif" font-size="14.00"> a1</text>
</g>
<!-- Node0xf85b120 -->
<g id="node2" class="node"><title>Node0xf85b120</title>
<polygon fill="none" stroke="black" points="81,-414.5 81,-1157.5 448,-1157.5 448,-414.5 81,-414.5"/>
<text text-anchor="start" x="89" y="-1142.3" font-family="Times,serif" font-size="14.00">v1</text>
<text text-anchor="start" x="89" y="-1127.3" font-family="Times,serif" font-size="14.00"> v2</text>
<text text-anchor="start" x="89" y="-1112.3" font-family="Times,serif" font-size="14.00"> v3</text>
<text text-anchor="start" x="89" y="-1097.3" font-family="Times,serif" font-size="14.00"> v4</text>
<text text-anchor="start" x="89" y="-1082.3" font-family="Times,serif" font-size="14.00"> v5</text>
<text text-anchor="start" x="89" y="-1067.3" font-family="Times,serif" font-size="14.00"> v6</text>
<text text-anchor="start" x="89" y="-1052.3" font-family="Times,serif" font-size="14.00"> v7</text>
<text text-anchor="start" x="89" y="-1037.3" font-family="Times,serif" font-size="14.00"> v8</text>
<text text-anchor="start" x="89" y="-1022.3" font-family="Times,serif" font-size="14.00"> v9</text>
<text text-anchor="start" x="89" y="-1007.3" font-family="Times,serif" font-size="14.00"> v10</text>
<text text-anchor="start" x="89" y="-992.3" font-family="Times,serif" font-size="14.00"> v11</text>
<text text-anchor="start" x="89" y="-977.3" font-family="Times,serif" font-size="14.00"> v12</text>
<text text-anchor="start" x="89" y="-962.3" font-family="Times,serif" font-size="14.00"> v13</text>
<text text-anchor="start" x="89" y="-947.3" font-family="Times,serif" font-size="14.00"> v14</text>
<text text-anchor="start" x="89" y="-932.3" font-family="Times,serif" font-size="14.00"> v15</text>
<text text-anchor="start" x="89" y="-917.3" font-family="Times,serif" font-size="14.00"> v16</text>
<text text-anchor="start" x="89" y="-902.3" font-family="Times,serif" font-size="14.00"> result</text>
<text text-anchor="start" x="89" y="-887.3" font-family="Times,serif" font-size="14.00"> v17</text>
<text text-anchor="start" x="89" y="-872.3" font-family="Times,serif" font-size="14.00"> v18</text>
<text text-anchor="start" x="89" y="-857.3" font-family="Times,serif" font-size="14.00"> v19</text>
<text text-anchor="start" x="89" y="-842.3" font-family="Times,serif" font-size="14.00"> v20</text>
<text text-anchor="start" x="89" y="-827.3" font-family="Times,serif" font-size="14.00"> v21</text>
<text text-anchor="start" x="89" y="-812.3" font-family="Times,serif" font-size="14.00"> v22</text>
<text text-anchor="start" x="89" y="-797.3" font-family="Times,serif" font-size="14.00"> v23</text>
<text text-anchor="start" x="89" y="-782.3" font-family="Times,serif" font-size="14.00"> v24</text>
<text text-anchor="start" x="89" y="-767.3" font-family="Times,serif" font-size="14.00"> v9 = v10</text>
<text text-anchor="start" x="89" y="-752.3" font-family="Times,serif" font-size="14.00"> v13 = v14</text>
<text text-anchor="start" x="89" y="-737.3" font-family="Times,serif" font-size="14.00"> g2 = 4533992</text>
<text text-anchor="start" x="89" y="-722.3" font-family="Times,serif" font-size="14.00"> __EH_prolog3()</text>
<text text-anchor="start" x="89" y="-707.3" font-family="Times,serif" font-size="14.00"> v18 = g3</text>
<text text-anchor="start" x="89" y="-692.3" font-family="Times,serif" font-size="14.00"> v23 = *(IntToPtrCastExpr&lt;ptr&gt;((v18 + 8)))</text>
<text text-anchor="start" x="89" y="-677.3" font-family="Times,serif" font-size="14.00"> g9 = v23</text>
<text text-anchor="start" x="89" y="-662.3" font-family="Times,serif" font-size="14.00"> v22 = *(IntToPtrCastExpr&lt;ptr&gt;((v23 + &#45;196)))</text>
<text text-anchor="start" x="89" y="-647.3" font-family="Times,serif" font-size="14.00"> v2 = IntToPtrCastExpr&lt;ptr&gt;(v22)</text>
<text text-anchor="start" x="89" y="-632.3" font-family="Times,serif" font-size="14.00"> v13 = v2</text>
<text text-anchor="start" x="89" y="-617.3" font-family="Times,serif" font-size="14.00"> g9 = (v23 + &#45;224)</text>
<text text-anchor="start" x="89" y="-602.3" font-family="Times,serif" font-size="14.00"> g5 = (v18 + &#45;20)</text>
<text text-anchor="start" x="89" y="-587.3" font-family="Times,serif" font-size="14.00"> function_419fad(v2, IntToPtrCastExpr&lt;ptr&gt;(8))</text>
<text text-anchor="start" x="89" y="-572.3" font-family="Times,serif" font-size="14.00"> v19 = g3</text>
<text text-anchor="start" x="89" y="-557.3" font-family="Times,serif" font-size="14.00"> *(IntToPtrCastExpr&lt;ptr&gt;((v19 + &#45;4))) = 0</text>
<text text-anchor="start" x="89" y="-542.3" font-family="Times,serif" font-size="14.00"> v16 = g9</text>
<text text-anchor="start" x="89" y="-527.3" font-family="Times,serif" font-size="14.00"> g5 = v16</text>
<text text-anchor="start" x="89" y="-512.3" font-family="Times,serif" font-size="14.00"> v1 = v13</text>
<text text-anchor="start" x="89" y="-497.3" font-family="Times,serif" font-size="14.00"> v6 = function_41b76e(BitCastExpr&lt;ptr&gt;(v1))</text>
<text text-anchor="start" x="89" y="-482.3" font-family="Times,serif" font-size="14.00"> v20 = g3</text>
<text text-anchor="start" x="89" y="-467.3" font-family="Times,serif" font-size="14.00"> *(IntToPtrCastExpr&lt;ptr&gt;((v20 + &#45;4))) = &#45;1</text>
<text text-anchor="start" x="89" y="-452.3" font-family="Times,serif" font-size="14.00"> v21 = g3</text>
<text text-anchor="start" x="89" y="-437.3" font-family="Times,serif" font-size="14.00"> v24 = *(IntToPtrCastExpr&lt;ptr&gt;((v21 + &#45;16)))</text>
<text text-anchor="start" x="89" y="-422.3" font-family="Times,serif" font-size="14.00"> g9 = v6</text>
</g>
<!-- Node0xf85b0a0&#45;&gt;Node0xf85b120 -->
<g id="edge1" class="edge"><title>Node0xf85b0a0&#45;&gt;Node0xf85b120</title>
<path fill="none" stroke="black" d="M264.5,-1195.45C264.5,-1188.09 264.5,-1178.71 264.5,-1167.73"/>
<polygon fill="black" stroke="black" points="268,-1167.69 264.5,-1157.69 261,-1167.69 268,-1167.69"/>
</g>
<!-- Node0xf7d7710 -->
<g id="node3" class="node"><title>Node0xf7d7710</title>
<polygon fill="none" stroke="black" points="210.5,-338.5 210.5,-376.5 318.5,-376.5 318.5,-338.5 210.5,-338.5"/>
<text text-anchor="start" x="218.5" y="-361.3" font-family="Times,serif" font-size="14.00">if (v24 != 0):</text>
<text text-anchor="start" x="218.5" y="-346.3" font-family="Times,serif" font-size="14.00"> else:</text>
</g>
<!-- Node0xf85b120&#45;&gt;Node0xf7d7710 -->
<g id="edge2" class="edge"><title>Node0xf85b120&#45;&gt;Node0xf7d7710</title>
<path fill="none" stroke="black" d="M264.5,-414.257C264.5,-403.828 264.5,-394.533 264.5,-386.665"/>
<polygon fill="black" stroke="black" points="268,-386.52 264.5,-376.52 261,-386.52 268,-386.52"/>
</g>
<!-- Node0xf7d8b30 -->
<g id="node4" class="node"><title>Node0xf7d8b30</title>
<polygon fill="none" stroke="black" points="0,-188.5 0,-286.5 309,-286.5 309,-188.5 0,-188.5"/>
<text text-anchor="start" x="8" y="-271.3" font-family="Times,serif" font-size="14.00">0x41f6b4:</text>
<text text-anchor="start" x="8" y="-256.3" font-family="Times,serif" font-size="14.00"> v9 = 0</text>
<text text-anchor="start" x="8" y="-241.3" font-family="Times,serif" font-size="14.00"> g10 = PtrToIntCastExpr&lt;int32&gt;(&amp;(v9))</text>
<text text-anchor="start" x="8" y="-226.3" font-family="Times,serif" font-size="14.00"> function_419779()</text>
<text text-anchor="start" x="8" y="-211.3" font-family="Times,serif" font-size="14.00"> v17 = g9</text>
<text text-anchor="start" x="8" y="-196.3" font-family="Times,serif" font-size="14.00"> result = v17</text>
</g>
<!-- Node0xf7d7710&#45;&gt;Node0xf7d8b30 -->
<g id="edge3" class="edge"><title>Node0xf7d7710&#45;&gt;Node0xf7d8b30</title>
<path fill="none" stroke="black" d="M247.554,-338.321C236.37,-326.324 221.068,-309.909 206.103,-293.856"/>
<polygon fill="black" stroke="black" points="208.646,-291.451 199.267,-286.523 203.526,-296.224 208.646,-291.451"/>
<text text-anchor="middle" x="261" y="-308.8" font-family="Times,serif" font-size="14.00">v24 != 0</text>
</g>
<!-- Node0xf77f6c0 -->
<g id="node5" class="node"><title>Node0xf77f6c0</title>
<polygon fill="none" stroke="black" points="327,-219.5 327,-255.5 424,-255.5 424,-219.5 327,-219.5"/>
<text text-anchor="start" x="335" y="-233.8" font-family="Times,serif" font-size="14.00">result = v6</text>
</g>
<!-- Node0xf7d7710&#45;&gt;Node0xf77f6c0 -->
<g id="edge4" class="edge"><title>Node0xf7d7710&#45;&gt;Node0xf77f6c0</title>
<path fill="none" stroke="black" d="M281.6,-338.321C300.531,-318.196 331.154,-285.643 352.253,-263.213"/>
<polygon fill="black" stroke="black" points="354.981,-265.421 359.284,-255.739 349.882,-260.625 354.981,-265.421"/>
<text text-anchor="middle" x="345" y="-308.8" font-family="Times,serif" font-size="14.00">v24 == 0</text>
</g>
<!-- Node0xf7d89a0 -->
<g id="node6" class="node"><title>Node0xf7d89a0</title>
<polygon fill="none" stroke="black" points="224.5,-97.5 224.5,-150.5 354.5,-150.5 354.5,-97.5 224.5,-97.5"/>
<text text-anchor="start" x="232.5" y="-135.3" font-family="Times,serif" font-size="14.00">0x41f6be:</text>
<text text-anchor="start" x="232.5" y="-120.3" font-family="Times,serif" font-size="14.00"> __EH_epilog3()</text>
<text text-anchor="start" x="232.5" y="-105.3" font-family="Times,serif" font-size="14.00"> return result</text>
</g>
<!-- Node0xf7d8b30&#45;&gt;Node0xf7d89a0 -->
<g id="edge5" class="edge"><title>Node0xf7d8b30&#45;&gt;Node0xf7d89a0</title>
<path fill="none" stroke="black" d="M212.928,-188.243C225.666,-177.722 238.842,-166.839 250.599,-157.129"/>
<polygon fill="black" stroke="black" points="253.007,-159.68 258.489,-150.613 248.549,-154.283 253.007,-159.68"/>
</g>
<!-- Node0xf77f6c0&#45;&gt;Node0xf7d89a0 -->
<g id="edge6" class="edge"><title>Node0xf77f6c0&#45;&gt;Node0xf7d89a0</title>
<path fill="none" stroke="black" d="M362.062,-219.078C349.606,-202.929 330.735,-178.462 315.36,-158.528"/>
<polygon fill="black" stroke="black" points="318.109,-156.361 309.23,-150.58 312.566,-160.636 318.109,-156.361"/>
</g>
<!-- Node0xf7e9fa0 -->
<g id="node7" class="node"><title>Node0xf7e9fa0</title>
<polygon fill="none" stroke="black" points="262.5,-23.5 262.5,-59.5 316.5,-59.5 316.5,-23.5 262.5,-23.5"/>
<text text-anchor="start" x="270.5" y="-37.8" font-family="Times,serif" font-size="14.00">exit:</text>
</g>
<!-- Node0xf7d89a0&#45;&gt;Node0xf7e9fa0 -->
<g id="edge7" class="edge"><title>Node0xf7d89a0&#45;&gt;Node0xf7e9fa0</title>
<path fill="none" stroke="black" d="M289.5,-97.0862C289.5,-88.4596 289.5,-78.8224 289.5,-70.0748"/>
<polygon fill="black" stroke="black" points="293,-69.9735 289.5,-59.9735 286,-69.9735 293,-69.9735"/>
</g>
</g>
</svg>
