<?xml version="1.0" encoding="UTF-8" standalone="no"?>
<!DOCTYPE svg PUBLIC "-//W3C//DTD SVG 1.1//EN"
 "http://www.w3.org/Graphics/SVG/1.1/DTD/svg11.dtd">
<!-- Generated by graphviz version 2.38.0 (20140413.2041)
 -->
<!-- Title: Control&#45;flow graph for function &#39;function_412c65(*color, a2, a3)&#39;. Pages: 1 -->
<svg width="650pt" height="1645pt"
 viewBox="0.00 0.00 650.00 1645.00" xmlns="http://www.w3.org/2000/svg" xmlns:xlink="http://www.w3.org/1999/xlink">
<g id="graph0" class="graph" transform="scale(1 1) rotate(0) translate(4 1641)">
<title>Control&#45;flow graph for function &#39;function_412c65(*color, a2, a3)&#39;.</title>
<polygon fill="white" stroke="none" points="-4,4 -4,-1641 646,-1641 646,4 -4,4"/>
<text text-anchor="middle" x="321" y="-7.8" font-family="Times,serif" font-size="14.00">Control&#45;flow graph for function &#39;function_412c65(*color, a2, a3)&#39;.</text>
<!-- Node0xf2f95e0 -->
<g id="node1" class="node"><title>Node0xf2f95e0</title>
<polygon fill="none" stroke="black" points="444,-1568.5 444,-1636.5 503,-1636.5 503,-1568.5 444,-1568.5"/>
<text text-anchor="start" x="452" y="-1621.3" font-family="Times,serif" font-size="14.00">entry:</text>
<text text-anchor="start" x="452" y="-1606.3" font-family="Times,serif" font-size="14.00"> color</text>
<text text-anchor="start" x="452" y="-1591.3" font-family="Times,serif" font-size="14.00"> a2</text>
<text text-anchor="start" x="452" y="-1576.3" font-family="Times,serif" font-size="14.00"> a3</text>
</g>
<!-- Node0xf2fadc0 -->
<g id="node2" class="node"><title>Node0xf2fadc0</title>
<polygon fill="none" stroke="black" points="305,-847.5 305,-1530.5 642,-1530.5 642,-847.5 305,-847.5"/>
<text text-anchor="start" x="313" y="-1515.3" font-family="Times,serif" font-size="14.00">hdc</text>
<text text-anchor="start" x="313" y="-1500.3" font-family="Times,serif" font-size="14.00"> v1</text>
<text text-anchor="start" x="313" y="-1485.3" font-family="Times,serif" font-size="14.00"> v2</text>
<text text-anchor="start" x="313" y="-1470.3" font-family="Times,serif" font-size="14.00"> result</text>
<text text-anchor="start" x="313" y="-1455.3" font-family="Times,serif" font-size="14.00"> v3</text>
<text text-anchor="start" x="313" y="-1440.3" font-family="Times,serif" font-size="14.00"> v4</text>
<text text-anchor="start" x="313" y="-1425.3" font-family="Times,serif" font-size="14.00"> v5</text>
<text text-anchor="start" x="313" y="-1410.3" font-family="Times,serif" font-size="14.00"> v6</text>
<text text-anchor="start" x="313" y="-1395.3" font-family="Times,serif" font-size="14.00"> v7</text>
<text text-anchor="start" x="313" y="-1380.3" font-family="Times,serif" font-size="14.00"> v8</text>
<text text-anchor="start" x="313" y="-1365.3" font-family="Times,serif" font-size="14.00"> v9</text>
<text text-anchor="start" x="313" y="-1350.3" font-family="Times,serif" font-size="14.00"> v10</text>
<text text-anchor="start" x="313" y="-1335.3" font-family="Times,serif" font-size="14.00"> v11</text>
<text text-anchor="start" x="313" y="-1320.3" font-family="Times,serif" font-size="14.00"> v12</text>
<text text-anchor="start" x="313" y="-1305.3" font-family="Times,serif" font-size="14.00"> v13</text>
<text text-anchor="start" x="313" y="-1290.3" font-family="Times,serif" font-size="14.00"> v14</text>
<text text-anchor="start" x="313" y="-1275.3" font-family="Times,serif" font-size="14.00"> v15</text>
<text text-anchor="start" x="313" y="-1260.3" font-family="Times,serif" font-size="14.00"> v16</text>
<text text-anchor="start" x="313" y="-1245.3" font-family="Times,serif" font-size="14.00"> v17</text>
<text text-anchor="start" x="313" y="-1230.3" font-family="Times,serif" font-size="14.00"> v18</text>
<text text-anchor="start" x="313" y="-1215.3" font-family="Times,serif" font-size="14.00"> v19</text>
<text text-anchor="start" x="313" y="-1200.3" font-family="Times,serif" font-size="14.00"> v20</text>
<text text-anchor="start" x="313" y="-1185.3" font-family="Times,serif" font-size="14.00"> v21</text>
<text text-anchor="start" x="313" y="-1170.3" font-family="Times,serif" font-size="14.00"> v22</text>
<text text-anchor="start" x="313" y="-1155.3" font-family="Times,serif" font-size="14.00"> v23</text>
<text text-anchor="start" x="313" y="-1140.3" font-family="Times,serif" font-size="14.00"> v24</text>
<text text-anchor="start" x="313" y="-1125.3" font-family="Times,serif" font-size="14.00"> v25</text>
<text text-anchor="start" x="313" y="-1110.3" font-family="Times,serif" font-size="14.00"> v26</text>
<text text-anchor="start" x="313" y="-1095.3" font-family="Times,serif" font-size="14.00"> v27</text>
<text text-anchor="start" x="313" y="-1080.3" font-family="Times,serif" font-size="14.00"> v5 = v6</text>
<text text-anchor="start" x="313" y="-1065.3" font-family="Times,serif" font-size="14.00"> v3 = v4</text>
<text text-anchor="start" x="313" y="-1050.3" font-family="Times,serif" font-size="14.00"> v9 = v10</text>
<text text-anchor="start" x="313" y="-1035.3" font-family="Times,serif" font-size="14.00"> v13 = v14</text>
<text text-anchor="start" x="313" y="-1020.3" font-family="Times,serif" font-size="14.00"> v13 = color</text>
<text text-anchor="start" x="313" y="-1005.3" font-family="Times,serif" font-size="14.00"> v17 = g9</text>
<text text-anchor="start" x="313" y="-990.3" font-family="Times,serif" font-size="14.00"> v18 = g5</text>
<text text-anchor="start" x="313" y="-975.3" font-family="Times,serif" font-size="14.00"> g9 = v18</text>
<text text-anchor="start" x="313" y="-960.3" font-family="Times,serif" font-size="14.00"> v24 = *(IntToPtrCastExpr&lt;ptr&gt;((v18 + 4)))</text>
<text text-anchor="start" x="313" y="-945.3" font-family="Times,serif" font-size="14.00"> g5 = v24</text>
<text text-anchor="start" x="313" y="-930.3" font-family="Times,serif" font-size="14.00"> v27 = *(IntToPtrCastExpr&lt;ptr&gt;((v18 + 8)))</text>
<text text-anchor="start" x="313" y="-915.3" font-family="Times,serif" font-size="14.00"> v19 = g7</text>
<text text-anchor="start" x="313" y="-900.3" font-family="Times,serif" font-size="14.00"> v9 = v19</text>
<text text-anchor="start" x="313" y="-885.3" font-family="Times,serif" font-size="14.00"> g7 = 420496</text>
<text text-anchor="start" x="313" y="-870.3" font-family="Times,serif" font-size="14.00"> v21 = v18</text>
<text text-anchor="start" x="313" y="-855.3" font-family="Times,serif" font-size="14.00"> result = &#45;1</text>
</g>
<!-- Node0xf2f95e0&#45;&gt;Node0xf2fadc0 -->
<g id="edge1" class="edge"><title>Node0xf2f95e0&#45;&gt;Node0xf2fadc0</title>
<path fill="none" stroke="black" d="M473.5,-1568.17C473.5,-1560.2 473.5,-1551.02 473.5,-1540.88"/>
<polygon fill="black" stroke="black" points="477,-1540.87 473.5,-1530.87 470,-1540.87 477,-1540.87"/>
</g>
<!-- Node0xf2fab70 -->
<g id="node3" class="node"><title>Node0xf2fab70</title>
<polygon fill="none" stroke="black" points="411,-773.5 411,-809.5 536,-809.5 536,-773.5 411,-773.5"/>
<text text-anchor="start" x="419" y="-787.8" font-family="Times,serif" font-size="14.00">if (v24 != v27):</text>
</g>
<!-- Node0xf2fadc0&#45;&gt;Node0xf2fab70 -->
<g id="edge2" class="edge"><title>Node0xf2fadc0&#45;&gt;Node0xf2fab70</title>
<path fill="none" stroke="black" d="M473.5,-847.493C473.5,-837.07 473.5,-827.781 473.5,-819.937"/>
<polygon fill="black" stroke="black" points="477,-819.844 473.5,-809.844 470,-819.844 477,-819.844"/>
</g>
<!-- Node0xf2f6f00 -->
<g id="node4" class="node"><title>Node0xf2f6f00</title>
<polygon fill="none" stroke="black" points="77.5,-578.5 77.5,-721.5 499.5,-721.5 499.5,-578.5 77.5,-578.5"/>
<text text-anchor="start" x="85.5" y="-706.3" font-family="Times,serif" font-size="14.00">0x412c7a:</text>
<text text-anchor="start" x="85.5" y="-691.3" font-family="Times,serif" font-size="14.00"> v3 = color</text>
<text text-anchor="start" x="85.5" y="-676.3" font-family="Times,serif" font-size="14.00"> hdc = IntToPtrCastExpr&lt;ptr&gt;(v24)</text>
<text text-anchor="start" x="85.5" y="-661.3" font-family="Times,serif" font-size="14.00"> v5 = hdc</text>
<text text-anchor="start" x="85.5" y="-646.3" font-family="Times,serif" font-size="14.00"> v2 = SetBkColor(hdc, PtrToIntCastExpr&lt;int32&gt;(color))</text>
<text text-anchor="start" x="85.5" y="-631.3" font-family="Times,serif" font-size="14.00"> v1 = PtrToIntCastExpr&lt;int32&gt;(v2)</text>
<text text-anchor="start" x="85.5" y="-616.3" font-family="Times,serif" font-size="14.00"> v22 = g9</text>
<text text-anchor="start" x="85.5" y="-601.3" font-family="Times,serif" font-size="14.00"> v21 = v22</text>
<text text-anchor="start" x="85.5" y="-586.3" font-family="Times,serif" font-size="14.00"> result = v1</text>
</g>
<!-- Node0xf2fab70&#45;&gt;Node0xf2f6f00 -->
<g id="edge3" class="edge"><title>Node0xf2fab70&#45;&gt;Node0xf2f6f00</title>
<path fill="none" stroke="black" d="M450.815,-773.395C435.193,-761.615 413.22,-745.046 390.474,-727.894"/>
<polygon fill="black" stroke="black" points="392.497,-725.036 382.406,-721.81 388.283,-730.625 392.497,-725.036"/>
<text text-anchor="middle" x="464.5" y="-743.8" font-family="Times,serif" font-size="14.00">v24 != v27</text>
</g>
<!-- Node0x7dba710 -->
<g id="node5" class="node"><title>Node0x7dba710</title>
<polygon fill="none" stroke="black" points="299,-457.5 299,-540.5 636,-540.5 636,-457.5 299,-457.5"/>
<text text-anchor="start" x="307" y="-525.3" font-family="Times,serif" font-size="14.00">0x412c81:</text>
<text text-anchor="start" x="307" y="-510.3" font-family="Times,serif" font-size="14.00"> v25 = *(IntToPtrCastExpr&lt;ptr&gt;((v21 + 8)))</text>
<text text-anchor="start" x="307" y="-495.3" font-family="Times,serif" font-size="14.00"> g9 = v25</text>
<text text-anchor="start" x="307" y="-480.3" font-family="Times,serif" font-size="14.00"> g1 = False</text>
<text text-anchor="start" x="307" y="-465.3" font-family="Times,serif" font-size="14.00"> g207 = (v25 == 0)</text>
</g>
<!-- Node0xf2fab70&#45;&gt;Node0x7dba710 -->
<g id="edge4" class="edge"><title>Node0xf2fab70&#45;&gt;Node0x7dba710</title>
<path fill="none" stroke="black" d="M495.568,-773.438C500.799,-768.153 505.676,-761.887 508.5,-755 538.347,-682.215 527.35,-654.375 508.5,-578 506.136,-568.42 502.36,-558.716 498.034,-549.558"/>
<polygon fill="black" stroke="black" points="501.161,-547.986 493.557,-540.608 494.901,-551.117 501.161,-547.986"/>
<text text-anchor="middle" x="570.5" y="-646.3" font-family="Times,serif" font-size="14.00">v24 == v27</text>
</g>
<!-- Node0xf2f6f00&#45;&gt;Node0x7dba710 -->
<g id="edge5" class="edge"><title>Node0xf2f6f00&#45;&gt;Node0x7dba710</title>
<path fill="none" stroke="black" d="M373.282,-578.427C386.032,-567.814 398.91,-557.095 410.877,-547.133"/>
<polygon fill="black" stroke="black" points="413.152,-549.793 418.599,-540.706 408.674,-544.413 413.152,-549.793"/>
</g>
<!-- Node0xf2fb230 -->
<g id="node6" class="node"><title>Node0xf2fb230</title>
<polygon fill="none" stroke="black" points="413.5,-383.5 413.5,-419.5 521.5,-419.5 521.5,-383.5 413.5,-383.5"/>
<text text-anchor="start" x="421.5" y="-397.8" font-family="Times,serif" font-size="14.00">if (v25 != 0):</text>
</g>
<!-- Node0x7dba710&#45;&gt;Node0xf2fb230 -->
<g id="edge6" class="edge"><title>Node0x7dba710&#45;&gt;Node0xf2fb230</title>
<path fill="none" stroke="black" d="M467.5,-457.499C467.5,-448.206 467.5,-438.537 467.5,-429.946"/>
<polygon fill="black" stroke="black" points="471,-429.749 467.5,-419.749 464,-429.749 471,-429.749"/>
</g>
<!-- Node0xf2f7030 -->
<g id="node7" class="node"><title>Node0xf2f7030</title>
<polygon fill="none" stroke="black" points="0,-218.5 0,-331.5 503,-331.5 503,-218.5 0,-218.5"/>
<text text-anchor="start" x="8" y="-316.3" font-family="Times,serif" font-size="14.00">0x412c88:</text>
<text text-anchor="start" x="8" y="-301.3" font-family="Times,serif" font-size="14.00"> v26 = v13</text>
<text text-anchor="start" x="8" y="-286.3" font-family="Times,serif" font-size="14.00"> v3 = v26</text>
<text text-anchor="start" x="8" y="-271.3" font-family="Times,serif" font-size="14.00"> v5 = IntToPtrCastExpr&lt;ptr&gt;(v25)</text>
<text text-anchor="start" x="8" y="-256.3" font-family="Times,serif" font-size="14.00"> g10 = PtrToIntCastExpr&lt;int32&gt;(&amp;(v5))</text>
<text text-anchor="start" x="8" y="-241.3" font-family="Times,serif" font-size="14.00"> v23 = g7</text>
<text text-anchor="start" x="8" y="-226.3" font-family="Times,serif" font-size="14.00"> IntToPtrCastExpr&lt;ptr&gt;(v23)(v25, PtrToIntCastExpr&lt;int32&gt;(v26))</text>
</g>
<!-- Node0xf2fb230&#45;&gt;Node0xf2f7030 -->
<g id="edge7" class="edge"><title>Node0xf2fb230&#45;&gt;Node0xf2f7030</title>
<path fill="none" stroke="black" d="M437.919,-383.45C416.677,-371.206 386.653,-353.9 356.893,-336.747"/>
<polygon fill="black" stroke="black" points="358.508,-333.638 348.096,-331.677 355.012,-339.703 358.508,-333.638"/>
<text text-anchor="middle" x="436" y="-353.8" font-family="Times,serif" font-size="14.00">v25 != 0</text>
</g>
<!-- Node0xf2fba40 -->
<g id="node8" class="node"><title>Node0xf2fba40</title>
<polygon fill="none" stroke="black" points="405,-97.5 405,-180.5 518,-180.5 518,-97.5 405,-97.5"/>
<text text-anchor="start" x="413" y="-165.3" font-family="Times,serif" font-size="14.00">0x412c8f:</text>
<text text-anchor="start" x="413" y="-150.3" font-family="Times,serif" font-size="14.00"> v20 = v9</text>
<text text-anchor="start" x="413" y="-135.3" font-family="Times,serif" font-size="14.00"> g7 = v20</text>
<text text-anchor="start" x="413" y="-120.3" font-family="Times,serif" font-size="14.00"> g9 = v17</text>
<text text-anchor="start" x="413" y="-105.3" font-family="Times,serif" font-size="14.00"> return result</text>
</g>
<!-- Node0xf2fb230&#45;&gt;Node0xf2fba40 -->
<g id="edge8" class="edge"><title>Node0xf2fb230&#45;&gt;Node0xf2fba40</title>
<path fill="none" stroke="black" d="M482.542,-383.304C492.928,-370.228 505.848,-351.258 511.5,-332 525.769,-283.384 525.746,-266.623 511.5,-218 508.651,-208.275 504.176,-198.613 499.048,-189.572"/>
<polygon fill="black" stroke="black" points="501.896,-187.517 493.738,-180.758 495.9,-191.13 501.896,-187.517"/>
<text text-anchor="middle" x="557" y="-271.3" font-family="Times,serif" font-size="14.00">v25 == 0</text>
</g>
<!-- Node0xf2f7030&#45;&gt;Node0xf2fba40 -->
<g id="edge9" class="edge"><title>Node0xf2f7030&#45;&gt;Node0xf2fba40</title>
<path fill="none" stroke="black" d="M338.735,-218.336C357.909,-206.101 377.898,-193.346 396.043,-181.768"/>
<polygon fill="black" stroke="black" points="398.243,-184.516 404.79,-176.186 394.477,-178.615 398.243,-184.516"/>
</g>
<!-- Node0xf2fa220 -->
<g id="node9" class="node"><title>Node0xf2fa220</title>
<polygon fill="none" stroke="black" points="434.5,-23.5 434.5,-59.5 488.5,-59.5 488.5,-23.5 434.5,-23.5"/>
<text text-anchor="start" x="442.5" y="-37.8" font-family="Times,serif" font-size="14.00">exit:</text>
</g>
<!-- Node0xf2fba40&#45;&gt;Node0xf2fa220 -->
<g id="edge10" class="edge"><title>Node0xf2fba40&#45;&gt;Node0xf2fa220</title>
<path fill="none" stroke="black" d="M461.5,-97.4994C461.5,-88.2058 461.5,-78.537 461.5,-69.9459"/>
<polygon fill="black" stroke="black" points="465,-69.7494 461.5,-59.7494 458,-69.7494 465,-69.7494"/>
</g>
</g>
</svg>
