<?xml version="1.0" encoding="UTF-8" standalone="no"?>
<!DOCTYPE svg PUBLIC "-//W3C//DTD SVG 1.1//EN"
 "http://www.w3.org/Graphics/SVG/1.1/DTD/svg11.dtd">
<!-- Generated by graphviz version 2.38.0 (20140413.2041)
 -->
<!-- Title: Control&#45;flow graph for function &#39;function_413722(*a1, *a2, a3)&#39;. Pages: 1 -->
<svg width="881pt" height="852pt"
 viewBox="0.00 0.00 881.00 852.00" xmlns="http://www.w3.org/2000/svg" xmlns:xlink="http://www.w3.org/1999/xlink">
<g id="graph0" class="graph" transform="scale(1 1) rotate(0) translate(4 848)">
<title>Control&#45;flow graph for function &#39;function_413722(*a1, *a2, a3)&#39;.</title>
<polygon fill="white" stroke="none" points="-4,4 -4,-848 877,-848 877,4 -4,4"/>
<text text-anchor="middle" x="436.5" y="-7.8" font-family="Times,serif" font-size="14.00">Control&#45;flow graph for function &#39;function_413722(*a1, *a2, a3)&#39;.</text>
<!-- Node0xf333340 -->
<g id="node1" class="node"><title>Node0xf333340</title>
<polygon fill="none" stroke="black" points="382,-775.5 382,-843.5 441,-843.5 441,-775.5 382,-775.5"/>
<text text-anchor="start" x="390" y="-828.3" font-family="Times,serif" font-size="14.00">entry:</text>
<text text-anchor="start" x="390" y="-813.3" font-family="Times,serif" font-size="14.00"> a1</text>
<text text-anchor="start" x="390" y="-798.3" font-family="Times,serif" font-size="14.00"> a2</text>
<text text-anchor="start" x="390" y="-783.3" font-family="Times,serif" font-size="14.00"> a3</text>
</g>
<!-- Node0xf3323c0 -->
<g id="node2" class="node"><title>Node0xf3323c0</title>
<polygon fill="none" stroke="black" points="269,-429.5 269,-737.5 554,-737.5 554,-429.5 269,-429.5"/>
<text text-anchor="start" x="277" y="-722.3" font-family="Times,serif" font-size="14.00">v1</text>
<text text-anchor="start" x="277" y="-707.3" font-family="Times,serif" font-size="14.00"> result</text>
<text text-anchor="start" x="277" y="-692.3" font-family="Times,serif" font-size="14.00"> v2</text>
<text text-anchor="start" x="277" y="-677.3" font-family="Times,serif" font-size="14.00"> v3</text>
<text text-anchor="start" x="277" y="-662.3" font-family="Times,serif" font-size="14.00"> v4</text>
<text text-anchor="start" x="277" y="-647.3" font-family="Times,serif" font-size="14.00"> v5</text>
<text text-anchor="start" x="277" y="-632.3" font-family="Times,serif" font-size="14.00"> v6</text>
<text text-anchor="start" x="277" y="-617.3" font-family="Times,serif" font-size="14.00"> v7</text>
<text text-anchor="start" x="277" y="-602.3" font-family="Times,serif" font-size="14.00"> v8</text>
<text text-anchor="start" x="277" y="-587.3" font-family="Times,serif" font-size="14.00"> v9</text>
<text text-anchor="start" x="277" y="-572.3" font-family="Times,serif" font-size="14.00"> v10</text>
<text text-anchor="start" x="277" y="-557.3" font-family="Times,serif" font-size="14.00"> hPal</text>
<text text-anchor="start" x="277" y="-542.3" font-family="Times,serif" font-size="14.00"> v11</text>
<text text-anchor="start" x="277" y="-527.3" font-family="Times,serif" font-size="14.00"> v12</text>
<text text-anchor="start" x="277" y="-512.3" font-family="Times,serif" font-size="14.00"> v13</text>
<text text-anchor="start" x="277" y="-497.3" font-family="Times,serif" font-size="14.00"> hdc</text>
<text text-anchor="start" x="277" y="-482.3" font-family="Times,serif" font-size="14.00"> v8 = v9</text>
<text text-anchor="start" x="277" y="-467.3" font-family="Times,serif" font-size="14.00"> v8 = a1</text>
<text text-anchor="start" x="277" y="-452.3" font-family="Times,serif" font-size="14.00"> v12 = PtrToIntCastExpr&lt;int32&gt;(a1)</text>
<text text-anchor="start" x="277" y="-437.3" font-family="Times,serif" font-size="14.00"> g2 = v12</text>
</g>
<!-- Node0xf333340&#45;&gt;Node0xf3323c0 -->
<g id="edge1" class="edge"><title>Node0xf333340&#45;&gt;Node0xf3323c0</title>
<path fill="none" stroke="black" d="M411.5,-775.448C411.5,-767.233 411.5,-757.866 411.5,-747.792"/>
<polygon fill="black" stroke="black" points="415,-747.5 411.5,-737.5 408,-747.5 415,-747.5"/>
</g>
<!-- Node0xf334b10 -->
<g id="node3" class="node"><title>Node0xf334b10</title>
<polygon fill="none" stroke="black" points="344.5,-353.5 344.5,-391.5 478.5,-391.5 478.5,-353.5 344.5,-353.5"/>
<text text-anchor="start" x="352.5" y="-376.3" font-family="Times,serif" font-size="14.00">if (a1 != NULL):</text>
<text text-anchor="start" x="352.5" y="-361.3" font-family="Times,serif" font-size="14.00"> else:</text>
</g>
<!-- Node0xf3323c0&#45;&gt;Node0xf334b10 -->
<g id="edge2" class="edge"><title>Node0xf3323c0&#45;&gt;Node0xf334b10</title>
<path fill="none" stroke="black" d="M411.5,-429.234C411.5,-419.177 411.5,-409.898 411.5,-401.912"/>
<polygon fill="black" stroke="black" points="415,-401.874 411.5,-391.874 408,-401.874 415,-401.874"/>
</g>
<!-- Node0xf3350d0 -->
<g id="node4" class="node"><title>Node0xf3350d0</title>
<polygon fill="none" stroke="black" points="126,-233.5 126,-301.5 463,-301.5 463,-233.5 126,-233.5"/>
<text text-anchor="start" x="134" y="-286.3" font-family="Times,serif" font-size="14.00">0x41372a:</text>
<text text-anchor="start" x="134" y="-271.3" font-family="Times,serif" font-size="14.00"> v13 = *(IntToPtrCastExpr&lt;ptr&gt;((v12 + 4)))</text>
<text text-anchor="start" x="134" y="-256.3" font-family="Times,serif" font-size="14.00"> g2 = v13</text>
<text text-anchor="start" x="134" y="-241.3" font-family="Times,serif" font-size="14.00"> hPal = v13</text>
</g>
<!-- Node0xf334b10&#45;&gt;Node0xf3350d0 -->
<g id="edge3" class="edge"><title>Node0xf334b10&#45;&gt;Node0xf3350d0</title>
<path fill="none" stroke="black" d="M390.852,-353.323C376.857,-341.003 357.798,-324.223 340.323,-308.84"/>
<polygon fill="black" stroke="black" points="342.248,-305.872 332.43,-301.891 337.623,-311.126 342.248,-305.872"/>
<text text-anchor="middle" x="411.5" y="-323.8" font-family="Times,serif" font-size="14.00">a1 != NULL</text>
</g>
<!-- Node0xf335150 -->
<g id="node5" class="node"><title>Node0xf335150</title>
<polygon fill="none" stroke="black" points="481,-249.5 481,-285.5 576,-285.5 576,-249.5 481,-249.5"/>
<text text-anchor="start" x="489" y="-263.8" font-family="Times,serif" font-size="14.00">hPal = v12</text>
</g>
<!-- Node0xf334b10&#45;&gt;Node0xf335150 -->
<g id="edge4" class="edge"><title>Node0xf334b10&#45;&gt;Node0xf335150</title>
<path fill="none" stroke="black" d="M436.354,-353.47C443.931,-347.744 452.187,-341.267 459.5,-335 475.023,-321.696 491.542,-305.842 504.524,-292.951"/>
<polygon fill="black" stroke="black" points="507.132,-295.293 511.725,-285.746 502.181,-290.345 507.132,-295.293"/>
<text text-anchor="middle" x="521.5" y="-323.8" font-family="Times,serif" font-size="14.00">a1 == NULL</text>
</g>
<!-- Node0xf334c40 -->
<g id="node6" class="node"><title>Node0xf334c40</title>
<polygon fill="none" stroke="black" points="0,-97.5 0,-195.5 873,-195.5 873,-97.5 0,-97.5"/>
<text text-anchor="start" x="8" y="-180.3" font-family="Times,serif" font-size="14.00">0x41372d:</text>
<text text-anchor="start" x="8" y="-165.3" font-family="Times,serif" font-size="14.00"> v11 = g5</text>
<text text-anchor="start" x="8" y="-150.3" font-family="Times,serif" font-size="14.00"> hdc = *(IntToPtrCastExpr&lt;ptr&gt;((v11 + 4)))</text>
<text text-anchor="start" x="8" y="-135.3" font-family="Times,serif" font-size="14.00"> SelectPalette(IntToPtrCastExpr&lt;ptr&gt;(hdc), IntToPtrCastExpr&lt;ptr&gt;(hPal), ((PtrToIntCastExpr&lt;int32&gt;(a2) &amp; 1) != 0))</text>
<text text-anchor="start" x="8" y="-120.3" font-family="Times,serif" font-size="14.00"> result = function_4135f6()</text>
<text text-anchor="start" x="8" y="-105.3" font-family="Times,serif" font-size="14.00"> return result</text>
</g>
<!-- Node0xf3350d0&#45;&gt;Node0xf334c40 -->
<g id="edge5" class="edge"><title>Node0xf3350d0&#45;&gt;Node0xf334c40</title>
<path fill="none" stroke="black" d="M334.055,-233.352C345.608,-223.67 358.553,-212.822 371.251,-202.18"/>
<polygon fill="black" stroke="black" points="373.694,-204.699 379.111,-195.594 369.198,-199.334 373.694,-204.699"/>
</g>
<!-- Node0xf335150&#45;&gt;Node0xf334c40 -->
<g id="edge6" class="edge"><title>Node0xf335150&#45;&gt;Node0xf334c40</title>
<path fill="none" stroke="black" d="M515.319,-249.45C505.968,-237.355 492.841,-220.376 479.979,-203.739"/>
<polygon fill="black" stroke="black" points="482.589,-201.392 473.703,-195.622 477.051,-205.674 482.589,-201.392"/>
</g>
<!-- Node0xf332340 -->
<g id="node7" class="node"><title>Node0xf332340</title>
<polygon fill="none" stroke="black" points="409.5,-23.5 409.5,-59.5 463.5,-59.5 463.5,-23.5 409.5,-23.5"/>
<text text-anchor="start" x="417.5" y="-37.8" font-family="Times,serif" font-size="14.00">exit:</text>
</g>
<!-- Node0xf334c40&#45;&gt;Node0xf332340 -->
<g id="edge7" class="edge"><title>Node0xf334c40&#45;&gt;Node0xf332340</title>
<path fill="none" stroke="black" d="M436.5,-97.3173C436.5,-87.893 436.5,-78.32 436.5,-69.8676"/>
<polygon fill="black" stroke="black" points="440,-69.856 436.5,-59.8561 433,-69.8561 440,-69.856"/>
</g>
</g>
</svg>
