<?xml version="1.0" encoding="UTF-8" standalone="no"?>
<!DOCTYPE svg PUBLIC "-//W3C//DTD SVG 1.1//EN"
 "http://www.w3.org/Graphics/SVG/1.1/DTD/svg11.dtd">
<!-- Generated by graphviz version 2.38.0 (20140413.2041)
 -->
<!-- Title: Control&#45;flow graph for function &#39;function_4059d0(*a1, *a2, *a3)&#39;. Pages: 1 -->
<svg width="764pt" height="1210pt"
 viewBox="0.00 0.00 763.50 1210.00" xmlns="http://www.w3.org/2000/svg" xmlns:xlink="http://www.w3.org/1999/xlink">
<g id="graph0" class="graph" transform="scale(1 1) rotate(0) translate(4 1206)">
<title>Control&#45;flow graph for function &#39;function_4059d0(*a1, *a2, *a3)&#39;.</title>
<polygon fill="white" stroke="none" points="-4,4 -4,-1206 759.5,-1206 759.5,4 -4,4"/>
<text text-anchor="middle" x="377.75" y="-7.8" font-family="Times,serif" font-size="14.00">Control&#45;flow graph for function &#39;function_4059d0(*a1, *a2, *a3)&#39;.</text>
<!-- Node0xef20450 -->
<g id="node1" class="node"><title>Node0xef20450</title>
<polygon fill="none" stroke="black" points="532,-1133.5 532,-1201.5 591,-1201.5 591,-1133.5 532,-1133.5"/>
<text text-anchor="start" x="540" y="-1186.3" font-family="Times,serif" font-size="14.00">entry:</text>
<text text-anchor="start" x="540" y="-1171.3" font-family="Times,serif" font-size="14.00"> a1</text>
<text text-anchor="start" x="540" y="-1156.3" font-family="Times,serif" font-size="14.00"> a2</text>
<text text-anchor="start" x="540" y="-1141.3" font-family="Times,serif" font-size="14.00"> a3</text>
</g>
<!-- Node0xef20a10 -->
<g id="node2" class="node"><title>Node0xef20a10</title>
<polygon fill="none" stroke="black" points="466.5,-577.5 466.5,-1095.5 656.5,-1095.5 656.5,-577.5 466.5,-577.5"/>
<text text-anchor="start" x="474.5" y="-1080.3" font-family="Times,serif" font-size="14.00">v1</text>
<text text-anchor="start" x="474.5" y="-1065.3" font-family="Times,serif" font-size="14.00"> v2</text>
<text text-anchor="start" x="474.5" y="-1050.3" font-family="Times,serif" font-size="14.00"> v3</text>
<text text-anchor="start" x="474.5" y="-1035.3" font-family="Times,serif" font-size="14.00"> v4</text>
<text text-anchor="start" x="474.5" y="-1020.3" font-family="Times,serif" font-size="14.00"> v5</text>
<text text-anchor="start" x="474.5" y="-1005.3" font-family="Times,serif" font-size="14.00"> v6</text>
<text text-anchor="start" x="474.5" y="-990.3" font-family="Times,serif" font-size="14.00"> v7</text>
<text text-anchor="start" x="474.5" y="-975.3" font-family="Times,serif" font-size="14.00"> v8</text>
<text text-anchor="start" x="474.5" y="-960.3" font-family="Times,serif" font-size="14.00"> v9</text>
<text text-anchor="start" x="474.5" y="-945.3" font-family="Times,serif" font-size="14.00"> v10</text>
<text text-anchor="start" x="474.5" y="-930.3" font-family="Times,serif" font-size="14.00"> v11</text>
<text text-anchor="start" x="474.5" y="-915.3" font-family="Times,serif" font-size="14.00"> v12</text>
<text text-anchor="start" x="474.5" y="-900.3" font-family="Times,serif" font-size="14.00"> v13</text>
<text text-anchor="start" x="474.5" y="-885.3" font-family="Times,serif" font-size="14.00"> v14</text>
<text text-anchor="start" x="474.5" y="-870.3" font-family="Times,serif" font-size="14.00"> v15</text>
<text text-anchor="start" x="474.5" y="-855.3" font-family="Times,serif" font-size="14.00"> v16</text>
<text text-anchor="start" x="474.5" y="-840.3" font-family="Times,serif" font-size="14.00"> v17</text>
<text text-anchor="start" x="474.5" y="-825.3" font-family="Times,serif" font-size="14.00"> v18</text>
<text text-anchor="start" x="474.5" y="-810.3" font-family="Times,serif" font-size="14.00"> v19</text>
<text text-anchor="start" x="474.5" y="-795.3" font-family="Times,serif" font-size="14.00"> v20</text>
<text text-anchor="start" x="474.5" y="-780.3" font-family="Times,serif" font-size="14.00"> v21</text>
<text text-anchor="start" x="474.5" y="-765.3" font-family="Times,serif" font-size="14.00"> result</text>
<text text-anchor="start" x="474.5" y="-750.3" font-family="Times,serif" font-size="14.00"> v22</text>
<text text-anchor="start" x="474.5" y="-735.3" font-family="Times,serif" font-size="14.00"> v23</text>
<text text-anchor="start" x="474.5" y="-720.3" font-family="Times,serif" font-size="14.00"> v24</text>
<text text-anchor="start" x="474.5" y="-705.3" font-family="Times,serif" font-size="14.00"> v25</text>
<text text-anchor="start" x="474.5" y="-690.3" font-family="Times,serif" font-size="14.00"> v7 = v8</text>
<text text-anchor="start" x="474.5" y="-675.3" font-family="Times,serif" font-size="14.00"> v16 = v17</text>
<text text-anchor="start" x="474.5" y="-660.3" font-family="Times,serif" font-size="14.00"> v14 = v15</text>
<text text-anchor="start" x="474.5" y="-645.3" font-family="Times,serif" font-size="14.00"> v16 = a1</text>
<text text-anchor="start" x="474.5" y="-630.3" font-family="Times,serif" font-size="14.00"> v14 = a3</text>
<text text-anchor="start" x="474.5" y="-615.3" font-family="Times,serif" font-size="14.00"> v19 = g9</text>
<text text-anchor="start" x="474.5" y="-600.3" font-family="Times,serif" font-size="14.00"> v12 = v19</text>
<text text-anchor="start" x="474.5" y="-585.3" font-family="Times,serif" font-size="14.00"> v3 = function_41a037()</text>
</g>
<!-- Node0xef20450&#45;&gt;Node0xef20a10 -->
<g id="edge1" class="edge"><title>Node0xef20450&#45;&gt;Node0xef20a10</title>
<path fill="none" stroke="black" d="M561.5,-1133.45C561.5,-1125.36 561.5,-1116.06 561.5,-1105.85"/>
<polygon fill="black" stroke="black" points="565,-1105.81 561.5,-1095.81 558,-1105.81 565,-1105.81"/>
</g>
<!-- Node0xef206c0 -->
<g id="node3" class="node"><title>Node0xef206c0</title>
<polygon fill="none" stroke="black" points="512,-503.5 512,-539.5 611,-539.5 611,-503.5 512,-503.5"/>
<text text-anchor="start" x="520" y="-517.8" font-family="Times,serif" font-size="14.00">if (v3 != 0):</text>
</g>
<!-- Node0xef20a10&#45;&gt;Node0xef206c0 -->
<g id="edge2" class="edge"><title>Node0xef20a10&#45;&gt;Node0xef206c0</title>
<path fill="none" stroke="black" d="M561.5,-577.379C561.5,-566.982 561.5,-557.64 561.5,-549.735"/>
<polygon fill="black" stroke="black" points="565,-549.557 561.5,-539.557 558,-549.558 565,-549.557"/>
</g>
<!-- Node0xef211c0 -->
<g id="node4" class="node"><title>Node0xef211c0</title>
<polygon fill="none" stroke="black" points="0,-353.5 0,-451.5 611,-451.5 611,-353.5 0,-353.5"/>
<text text-anchor="start" x="8" y="-436.3" font-family="Times,serif" font-size="14.00">0x4059e3:</text>
<text text-anchor="start" x="8" y="-421.3" font-family="Times,serif" font-size="14.00"> v20 = g9</text>
<text text-anchor="start" x="8" y="-406.3" font-family="Times,serif" font-size="14.00"> v7 = v3</text>
<text text-anchor="start" x="8" y="-391.3" font-family="Times,serif" font-size="14.00"> v22 = g7</text>
<text text-anchor="start" x="8" y="-376.3" font-family="Times,serif" font-size="14.00"> g5 = (v22 + 160)</text>
<text text-anchor="start" x="8" y="-361.3" font-family="Times,serif" font-size="14.00"> function_40a1f0(&amp;(v7), IntToPtrCastExpr&lt;ptr&gt;(v20), BitCastExpr&lt;ptr&gt;(&amp;(v12)))</text>
</g>
<!-- Node0xef206c0&#45;&gt;Node0xef211c0 -->
<g id="edge3" class="edge"><title>Node0xef206c0&#45;&gt;Node0xef211c0</title>
<path fill="none" stroke="black" d="M524.275,-503.487C496.726,-490.896 457.618,-473.023 420.068,-455.861"/>
<polygon fill="black" stroke="black" points="421.114,-452.491 410.564,-451.517 418.204,-458.857 421.114,-452.491"/>
<text text-anchor="middle" x="506.5" y="-473.8" font-family="Times,serif" font-size="14.00">v3 != 0</text>
</g>
<!-- Node0xef20b40 -->
<g id="node5" class="node"><title>Node0xef20b40</title>
<polygon fill="none" stroke="black" points="355.5,-97.5 355.5,-315.5 755.5,-315.5 755.5,-97.5 355.5,-97.5"/>
<text text-anchor="start" x="363.5" y="-300.3" font-family="Times,serif" font-size="14.00">0x4059f0:</text>
<text text-anchor="start" x="363.5" y="-285.3" font-family="Times,serif" font-size="14.00"> v23 = g7</text>
<text text-anchor="start" x="363.5" y="-270.3" font-family="Times,serif" font-size="14.00"> v24 = *(IntToPtrCastExpr&lt;ptr&gt;((v23 + 160)))</text>
<text text-anchor="start" x="363.5" y="-255.3" font-family="Times,serif" font-size="14.00"> g1 = (v24 &lt; 16)</text>
<text text-anchor="start" x="363.5" y="-240.3" font-family="Times,serif" font-size="14.00"> v25 = (v24 + &#45;16)</text>
<text text-anchor="start" x="363.5" y="-225.3" font-family="Times,serif" font-size="14.00"> g207 = (v25 == 0)</text>
<text text-anchor="start" x="363.5" y="-210.3" font-family="Times,serif" font-size="14.00"> g2 = v25</text>
<text text-anchor="start" x="363.5" y="-195.3" font-family="Times,serif" font-size="14.00"> v5 = function_40a640(IntToPtrCastExpr&lt;ptr&gt;(v25))</text>
<text text-anchor="start" x="363.5" y="-180.3" font-family="Times,serif" font-size="14.00"> v1 = (v5 + 16)</text>
<text text-anchor="start" x="363.5" y="-165.3" font-family="Times,serif" font-size="14.00"> g2 = v1</text>
<text text-anchor="start" x="363.5" y="-150.3" font-family="Times,serif" font-size="14.00"> v21 = g4</text>
<text text-anchor="start" x="363.5" y="-135.3" font-family="Times,serif" font-size="14.00"> *(IntToPtrCastExpr&lt;ptr&gt;(v21)) = v1</text>
<text text-anchor="start" x="363.5" y="-120.3" font-family="Times,serif" font-size="14.00"> result = g4</text>
<text text-anchor="start" x="363.5" y="-105.3" font-family="Times,serif" font-size="14.00"> return result</text>
</g>
<!-- Node0xef206c0&#45;&gt;Node0xef20b40 -->
<g id="edge4" class="edge"><title>Node0xef206c0&#45;&gt;Node0xef20b40</title>
<path fill="none" stroke="black" d="M582.1,-503.398C595.588,-490.784 612.047,-472.337 619.5,-452 634.641,-410.687 628.552,-396.059 619.5,-353 617.562,-343.78 615.002,-334.431 612.022,-325.153"/>
<polygon fill="black" stroke="black" points="615.284,-323.873 608.772,-315.517 608.651,-326.111 615.284,-323.873"/>
<text text-anchor="middle" x="659.5" y="-398.8" font-family="Times,serif" font-size="14.00">v3 == 0</text>
</g>
<!-- Node0xef211c0&#45;&gt;Node0xef20b40 -->
<g id="edge5" class="edge"><title>Node0xef211c0&#45;&gt;Node0xef20b40</title>
<path fill="none" stroke="black" d="M367.619,-353.296C380.07,-343.634 393.647,-333.098 407.619,-322.256"/>
<polygon fill="black" stroke="black" points="410.13,-324.737 415.885,-315.841 405.839,-319.207 410.13,-324.737"/>
</g>
<!-- Node0xef209b0 -->
<g id="node6" class="node"><title>Node0xef209b0</title>
<polygon fill="none" stroke="black" points="528.5,-23.5 528.5,-59.5 582.5,-59.5 582.5,-23.5 528.5,-23.5"/>
<text text-anchor="start" x="536.5" y="-37.8" font-family="Times,serif" font-size="14.00">exit:</text>
</g>
<!-- Node0xef20b40&#45;&gt;Node0xef209b0 -->
<g id="edge6" class="edge"><title>Node0xef20b40&#45;&gt;Node0xef209b0</title>
<path fill="none" stroke="black" d="M555.5,-97.2301C555.5,-87.2044 555.5,-77.7868 555.5,-69.684"/>
<polygon fill="black" stroke="black" points="559,-69.516 555.5,-59.516 552,-69.5161 559,-69.516"/>
</g>
</g>
</svg>
