<?xml version="1.0" encoding="UTF-8" standalone="no"?>
<!DOCTYPE svg PUBLIC "-//W3C//DTD SVG 1.1//EN"
 "http://www.w3.org/Graphics/SVG/1.1/DTD/svg11.dtd">
<!-- Generated by graphviz version 2.38.0 (20140413.2041)
 -->
<!-- Title: Control&#45;flow graph for function &#39;function_41d786(a1)&#39;. Pages: 1 -->
<svg width="412pt" height="413pt"
 viewBox="0.00 0.00 412.00 413.00" xmlns="http://www.w3.org/2000/svg" xmlns:xlink="http://www.w3.org/1999/xlink">
<g id="graph0" class="graph" transform="scale(1 1) rotate(0) translate(4 409)">
<title>Control&#45;flow graph for function &#39;function_41d786(a1)&#39;.</title>
<polygon fill="white" stroke="none" points="-4,4 -4,-409 408,-409 408,4 -4,4"/>
<text text-anchor="middle" x="202" y="-7.8" font-family="Times,serif" font-size="14.00">Control&#45;flow graph for function &#39;function_41d786(a1)&#39;.</text>
<!-- Node0xf7321b0 -->
<g id="node1" class="node"><title>Node0xf7321b0</title>
<polygon fill="none" stroke="black" points="172.5,-366.5 172.5,-404.5 231.5,-404.5 231.5,-366.5 172.5,-366.5"/>
<text text-anchor="start" x="180.5" y="-389.3" font-family="Times,serif" font-size="14.00">entry:</text>
<text text-anchor="start" x="180.5" y="-374.3" font-family="Times,serif" font-size="14.00"> a1</text>
</g>
<!-- Node0xf7353d0 -->
<g id="node2" class="node"><title>Node0xf7353d0</title>
<polygon fill="none" stroke="black" points="36,-96.5 36,-329.5 368,-329.5 368,-96.5 36,-96.5"/>
<text text-anchor="start" x="44" y="-314.3" font-family="Times,serif" font-size="14.00">v1</text>
<text text-anchor="start" x="44" y="-299.3" font-family="Times,serif" font-size="14.00"> v2</text>
<text text-anchor="start" x="44" y="-284.3" font-family="Times,serif" font-size="14.00"> v3</text>
<text text-anchor="start" x="44" y="-269.3" font-family="Times,serif" font-size="14.00"> v4</text>
<text text-anchor="start" x="44" y="-254.3" font-family="Times,serif" font-size="14.00"> v5</text>
<text text-anchor="start" x="44" y="-239.3" font-family="Times,serif" font-size="14.00"> v6</text>
<text text-anchor="start" x="44" y="-224.3" font-family="Times,serif" font-size="14.00"> v7</text>
<text text-anchor="start" x="44" y="-209.3" font-family="Times,serif" font-size="14.00"> v8</text>
<text text-anchor="start" x="44" y="-194.3" font-family="Times,serif" font-size="14.00"> v4 = v5</text>
<text text-anchor="start" x="44" y="-179.3" font-family="Times,serif" font-size="14.00"> v7 = g3</text>
<text text-anchor="start" x="44" y="-164.3" font-family="Times,serif" font-size="14.00"> v8 = *(IntToPtrCastExpr&lt;ptr&gt;((v7 + &#45;24)))</text>
<text text-anchor="start" x="44" y="-149.3" font-family="Times,serif" font-size="14.00"> g5 = v8</text>
<text text-anchor="start" x="44" y="-134.3" font-family="Times,serif" font-size="14.00"> v1 = v4</text>
<text text-anchor="start" x="44" y="-119.3" font-family="Times,serif" font-size="14.00"> function_4177bd(v1)</text>
<text text-anchor="start" x="44" y="-104.3" font-family="Times,serif" font-size="14.00"> return 4315005</text>
</g>
<!-- Node0xf7321b0&#45;&gt;Node0xf7353d0 -->
<g id="edge1" class="edge"><title>Node0xf7321b0&#45;&gt;Node0xf7353d0</title>
<path fill="none" stroke="black" d="M202,-366.254C202,-358.897 202,-349.742 202,-339.597"/>
<polygon fill="black" stroke="black" points="205.5,-339.592 202,-329.592 198.5,-339.592 205.5,-339.592"/>
</g>
<!-- Node0xf735350 -->
<g id="node3" class="node"><title>Node0xf735350</title>
<polygon fill="none" stroke="black" points="175,-23.5 175,-59.5 229,-59.5 229,-23.5 175,-23.5"/>
<text text-anchor="start" x="183" y="-37.8" font-family="Times,serif" font-size="14.00">exit:</text>
</g>
<!-- Node0xf7353d0&#45;&gt;Node0xf735350 -->
<g id="edge2" class="edge"><title>Node0xf7353d0&#45;&gt;Node0xf735350</title>
<path fill="none" stroke="black" d="M202,-96.1309C202,-86.4799 202,-77.4541 202,-69.6611"/>
<polygon fill="black" stroke="black" points="205.5,-69.5283 202,-59.5284 198.5,-69.5284 205.5,-69.5283"/>
</g>
</g>
</svg>
