<?xml version="1.0" encoding="UTF-8" standalone="no"?>
<!DOCTYPE svg PUBLIC "-//W3C//DTD SVG 1.1//EN"
 "http://www.w3.org/Graphics/SVG/1.1/DTD/svg11.dtd">
<!-- Generated by graphviz version 2.38.0 (20140413.2041)
 -->
<!-- Title: Control&#45;flow graph for function &#39;function_44a0eb(a1, a2)&#39;. Pages: 1 -->
<svg width="437pt" height="338pt"
 viewBox="0.00 0.00 437.00 338.00" xmlns="http://www.w3.org/2000/svg" xmlns:xlink="http://www.w3.org/1999/xlink">
<g id="graph0" class="graph" transform="scale(1 1) rotate(0) translate(4 334)">
<title>Control&#45;flow graph for function &#39;function_44a0eb(a1, a2)&#39;.</title>
<polygon fill="white" stroke="none" points="-4,4 -4,-334 433,-334 433,4 -4,4"/>
<text text-anchor="middle" x="214.5" y="-7.8" font-family="Times,serif" font-size="14.00">Control&#45;flow graph for function &#39;function_44a0eb(a1, a2)&#39;.</text>
<!-- Node0x101a7d60 -->
<g id="node1" class="node"><title>Node0x101a7d60</title>
<polygon fill="none" stroke="black" points="185,-276.5 185,-329.5 244,-329.5 244,-276.5 185,-276.5"/>
<text text-anchor="start" x="193" y="-314.3" font-family="Times,serif" font-size="14.00">entry:</text>
<text text-anchor="start" x="193" y="-299.3" font-family="Times,serif" font-size="14.00"> a1</text>
<text text-anchor="start" x="193" y="-284.3" font-family="Times,serif" font-size="14.00"> a2</text>
</g>
<!-- Node0x101ac760 -->
<g id="node2" class="node"><title>Node0x101ac760</title>
<polygon fill="none" stroke="black" points="52.5,-96.5 52.5,-239.5 376.5,-239.5 376.5,-96.5 52.5,-96.5"/>
<text text-anchor="start" x="60.5" y="-224.3" font-family="Times,serif" font-size="14.00">v1</text>
<text text-anchor="start" x="60.5" y="-209.3" font-family="Times,serif" font-size="14.00"> v2</text>
<text text-anchor="start" x="60.5" y="-194.3" font-family="Times,serif" font-size="14.00"> v3</text>
<text text-anchor="start" x="60.5" y="-179.3" font-family="Times,serif" font-size="14.00"> v4</text>
<text text-anchor="start" x="60.5" y="-164.3" font-family="Times,serif" font-size="14.00"> v5</text>
<text text-anchor="start" x="60.5" y="-149.3" font-family="Times,serif" font-size="14.00"> v5 = g5</text>
<text text-anchor="start" x="60.5" y="-134.3" font-family="Times,serif" font-size="14.00"> *(IntToPtrCastExpr&lt;ptr&gt;(v5)) = 4567920</text>
<text text-anchor="start" x="60.5" y="-119.3" font-family="Times,serif" font-size="14.00"> _qm__qm_1exception_std__UAE_XZ()</text>
<text text-anchor="start" x="60.5" y="-104.3" font-family="Times,serif" font-size="14.00"> return</text>
</g>
<!-- Node0x101a7d60&#45;&gt;Node0x101ac760 -->
<g id="edge1" class="edge"><title>Node0x101a7d60&#45;&gt;Node0x101ac760</title>
<path fill="none" stroke="black" d="M214.5,-276.356C214.5,-268.457 214.5,-259.302 214.5,-249.734"/>
<polygon fill="black" stroke="black" points="218,-249.65 214.5,-239.65 211,-249.65 218,-249.65"/>
</g>
<!-- Node0x101ac700 -->
<g id="node3" class="node"><title>Node0x101ac700</title>
<polygon fill="none" stroke="black" points="187.5,-23.5 187.5,-59.5 241.5,-59.5 241.5,-23.5 187.5,-23.5"/>
<text text-anchor="start" x="195.5" y="-37.8" font-family="Times,serif" font-size="14.00">exit:</text>
</g>
<!-- Node0x101ac760&#45;&gt;Node0x101ac700 -->
<g id="edge2" class="edge"><title>Node0x101ac760&#45;&gt;Node0x101ac700</title>
<path fill="none" stroke="black" d="M214.5,-96.3834C214.5,-87.0259 214.5,-77.9253 214.5,-69.9482"/>
<polygon fill="black" stroke="black" points="218,-69.848 214.5,-59.848 211,-69.8481 218,-69.848"/>
</g>
</g>
</svg>
