<?xml version="1.0" encoding="UTF-8" standalone="no"?>
<!DOCTYPE svg PUBLIC "-//W3C//DTD SVG 1.1//EN"
 "http://www.w3.org/Graphics/SVG/1.1/DTD/svg11.dtd">
<!-- Generated by graphviz version 2.38.0 (20140413.2041)
 -->
<!-- Title: Control&#45;flow graph for function &#39;function_4257dd(a1)&#39;. Pages: 1 -->
<svg width="412pt" height="293pt"
 viewBox="0.00 0.00 412.00 293.00" xmlns="http://www.w3.org/2000/svg" xmlns:xlink="http://www.w3.org/1999/xlink">
<g id="graph0" class="graph" transform="scale(1 1) rotate(0) translate(4 289)">
<title>Control&#45;flow graph for function &#39;function_4257dd(a1)&#39;.</title>
<polygon fill="white" stroke="none" points="-4,4 -4,-289 408,-289 408,4 -4,4"/>
<text text-anchor="middle" x="202" y="-7.8" font-family="Times,serif" font-size="14.00">Control&#45;flow graph for function &#39;function_4257dd(a1)&#39;.</text>
<!-- Node0xfbbfb60 -->
<g id="node1" class="node"><title>Node0xfbbfb60</title>
<polygon fill="none" stroke="black" points="172.5,-246.5 172.5,-284.5 231.5,-284.5 231.5,-246.5 172.5,-246.5"/>
<text text-anchor="start" x="180.5" y="-269.3" font-family="Times,serif" font-size="14.00">entry:</text>
<text text-anchor="start" x="180.5" y="-254.3" font-family="Times,serif" font-size="14.00"> a1</text>
</g>
<!-- Node0xfbf2850 -->
<g id="node2" class="node"><title>Node0xfbf2850</title>
<polygon fill="none" stroke="black" points="30,-96.5 30,-209.5 374,-209.5 374,-96.5 30,-96.5"/>
<text text-anchor="start" x="38" y="-194.3" font-family="Times,serif" font-size="14.00">v1</text>
<text text-anchor="start" x="38" y="-179.3" font-family="Times,serif" font-size="14.00"> v2</text>
<text text-anchor="start" x="38" y="-164.3" font-family="Times,serif" font-size="14.00"> v3</text>
<text text-anchor="start" x="38" y="-149.3" font-family="Times,serif" font-size="14.00"> result</text>
<text text-anchor="start" x="38" y="-134.3" font-family="Times,serif" font-size="14.00"> v3 = g5</text>
<text text-anchor="start" x="38" y="-119.3" font-family="Times,serif" font-size="14.00"> result = *(IntToPtrCastExpr&lt;ptr&gt;((v3 + 8)))</text>
<text text-anchor="start" x="38" y="-104.3" font-family="Times,serif" font-size="14.00"> return result</text>
</g>
<!-- Node0xfbbfb60&#45;&gt;Node0xfbf2850 -->
<g id="edge1" class="edge"><title>Node0xfbbfb60&#45;&gt;Node0xfbf2850</title>
<path fill="none" stroke="black" d="M202,-246.253C202,-238.701 202,-229.442 202,-219.734"/>
<polygon fill="black" stroke="black" points="205.5,-219.508 202,-209.508 198.5,-219.508 205.5,-219.508"/>
</g>
<!-- Node0xfc6dad0 -->
<g id="node3" class="node"><title>Node0xfc6dad0</title>
<polygon fill="none" stroke="black" points="175,-23.5 175,-59.5 229,-59.5 229,-23.5 175,-23.5"/>
<text text-anchor="start" x="183" y="-37.8" font-family="Times,serif" font-size="14.00">exit:</text>
</g>
<!-- Node0xfbf2850&#45;&gt;Node0xfc6dad0 -->
<g id="edge2" class="edge"><title>Node0xfbf2850&#45;&gt;Node0xfc6dad0</title>
<path fill="none" stroke="black" d="M202,-96.2876C202,-87.1343 202,-78.0169 202,-69.9591"/>
<polygon fill="black" stroke="black" points="205.5,-69.7241 202,-59.7242 198.5,-69.7242 205.5,-69.7241"/>
</g>
</g>
</svg>
