<?xml version="1.0" encoding="UTF-8" standalone="no"?>
<!DOCTYPE svg PUBLIC "-//W3C//DTD SVG 1.1//EN"
 "http://www.w3.org/Graphics/SVG/1.1/DTD/svg11.dtd">
<!-- Generated by graphviz version 2.38.0 (20140413.2041)
 -->
<!-- Title: Control&#45;flow graph for function &#39;function_402be0(*a1, *a2)&#39;. Pages: 1 -->
<svg width="1020pt" height="1282pt"
 viewBox="0.00 0.00 1019.50 1282.00" xmlns="http://www.w3.org/2000/svg" xmlns:xlink="http://www.w3.org/1999/xlink">
<g id="graph0" class="graph" transform="scale(1 1) rotate(0) translate(4 1278)">
<title>Control&#45;flow graph for function &#39;function_402be0(*a1, *a2)&#39;.</title>
<polygon fill="white" stroke="none" points="-4,4 -4,-1278 1015.5,-1278 1015.5,4 -4,4"/>
<text text-anchor="middle" x="505.75" y="-7.8" font-family="Times,serif" font-size="14.00">Control&#45;flow graph for function &#39;function_402be0(*a1, *a2)&#39;.</text>
<!-- Node0xef0c610 -->
<g id="node1" class="node"><title>Node0xef0c610</title>
<polygon fill="none" stroke="black" points="342,-1220.5 342,-1273.5 401,-1273.5 401,-1220.5 342,-1220.5"/>
<text text-anchor="start" x="350" y="-1258.3" font-family="Times,serif" font-size="14.00">entry:</text>
<text text-anchor="start" x="350" y="-1243.3" font-family="Times,serif" font-size="14.00"> a1</text>
<text text-anchor="start" x="350" y="-1228.3" font-family="Times,serif" font-size="14.00"> a2</text>
</g>
<!-- Node0xef0ca40 -->
<g id="node2" class="node"><title>Node0xef0ca40</title>
<polygon fill="none" stroke="black" points="198.5,-829.5 198.5,-1182.5 544.5,-1182.5 544.5,-829.5 198.5,-829.5"/>
<text text-anchor="start" x="206.5" y="-1167.3" font-family="Times,serif" font-size="14.00">v1</text>
<text text-anchor="start" x="206.5" y="-1152.3" font-family="Times,serif" font-size="14.00"> v2</text>
<text text-anchor="start" x="206.5" y="-1137.3" font-family="Times,serif" font-size="14.00"> v3</text>
<text text-anchor="start" x="206.5" y="-1122.3" font-family="Times,serif" font-size="14.00"> v4</text>
<text text-anchor="start" x="206.5" y="-1107.3" font-family="Times,serif" font-size="14.00"> v5</text>
<text text-anchor="start" x="206.5" y="-1092.3" font-family="Times,serif" font-size="14.00"> v6</text>
<text text-anchor="start" x="206.5" y="-1077.3" font-family="Times,serif" font-size="14.00"> v7</text>
<text text-anchor="start" x="206.5" y="-1062.3" font-family="Times,serif" font-size="14.00"> v8</text>
<text text-anchor="start" x="206.5" y="-1047.3" font-family="Times,serif" font-size="14.00"> v9</text>
<text text-anchor="start" x="206.5" y="-1032.3" font-family="Times,serif" font-size="14.00"> v10</text>
<text text-anchor="start" x="206.5" y="-1017.3" font-family="Times,serif" font-size="14.00"> v11</text>
<text text-anchor="start" x="206.5" y="-1002.3" font-family="Times,serif" font-size="14.00"> v12</text>
<text text-anchor="start" x="206.5" y="-987.3" font-family="Times,serif" font-size="14.00"> v13</text>
<text text-anchor="start" x="206.5" y="-972.3" font-family="Times,serif" font-size="14.00"> v14</text>
<text text-anchor="start" x="206.5" y="-957.3" font-family="Times,serif" font-size="14.00"> v15</text>
<text text-anchor="start" x="206.5" y="-942.3" font-family="Times,serif" font-size="14.00"> v16</text>
<text text-anchor="start" x="206.5" y="-927.3" font-family="Times,serif" font-size="14.00"> result</text>
<text text-anchor="start" x="206.5" y="-912.3" font-family="Times,serif" font-size="14.00"> v17</text>
<text text-anchor="start" x="206.5" y="-897.3" font-family="Times,serif" font-size="14.00"> v7 = g2</text>
<text text-anchor="start" x="206.5" y="-882.3" font-family="Times,serif" font-size="14.00"> g9 = v7</text>
<text text-anchor="start" x="206.5" y="-867.3" font-family="Times,serif" font-size="14.00"> v8 = g7</text>
<text text-anchor="start" x="206.5" y="-852.3" font-family="Times,serif" font-size="14.00"> v13 = *(IntToPtrCastExpr&lt;ptr&gt;((v8 + 388)))</text>
<text text-anchor="start" x="206.5" y="-837.3" font-family="Times,serif" font-size="14.00"> g2 = v13</text>
</g>
<!-- Node0xef0c610&#45;&gt;Node0xef0ca40 -->
<g id="edge1" class="edge"><title>Node0xef0c610&#45;&gt;Node0xef0ca40</title>
<path fill="none" stroke="black" d="M371.5,-1220.42C371.5,-1212.57 371.5,-1203.27 371.5,-1193"/>
<polygon fill="black" stroke="black" points="375,-1192.87 371.5,-1182.87 368,-1192.87 375,-1192.87"/>
</g>
<!-- Node0xef0c980 -->
<g id="node3" class="node"><title>Node0xef0c980</title>
<polygon fill="none" stroke="black" points="314.5,-753.5 314.5,-791.5 428.5,-791.5 428.5,-753.5 314.5,-753.5"/>
<text text-anchor="start" x="322.5" y="-776.3" font-family="Times,serif" font-size="14.00">if (v13 == 0):</text>
<text text-anchor="start" x="322.5" y="-761.3" font-family="Times,serif" font-size="14.00"> else:</text>
</g>
<!-- Node0xef0ca40&#45;&gt;Node0xef0c980 -->
<g id="edge2" class="edge"><title>Node0xef0ca40&#45;&gt;Node0xef0c980</title>
<path fill="none" stroke="black" d="M371.5,-829.245C371.5,-819.06 371.5,-809.733 371.5,-801.742"/>
<polygon fill="black" stroke="black" points="375,-801.718 371.5,-791.718 368,-801.718 375,-801.718"/>
</g>
<!-- Node0xef0d130 -->
<g id="node4" class="node"><title>Node0xef0d130</title>
<polygon fill="none" stroke="black" points="0,-603.5 0,-701.5 229,-701.5 229,-603.5 0,-603.5"/>
<text text-anchor="start" x="8" y="-686.3" font-family="Times,serif" font-size="14.00">0x402c0a:</text>
<text text-anchor="start" x="8" y="-671.3" font-family="Times,serif" font-size="14.00"> __invalid_parameter_noinfo()</text>
<text text-anchor="start" x="8" y="-656.3" font-family="Times,serif" font-size="14.00"> v10 = g7</text>
<text text-anchor="start" x="8" y="-641.3" font-family="Times,serif" font-size="14.00"> v12 = g9</text>
<text text-anchor="start" x="8" y="-626.3" font-family="Times,serif" font-size="14.00"> v11 = v12</text>
<text text-anchor="start" x="8" y="-611.3" font-family="Times,serif" font-size="14.00"> v9 = v10</text>
</g>
<!-- Node0xef0c980&#45;&gt;Node0xef0d130 -->
<g id="edge3" class="edge"><title>Node0xef0c980&#45;&gt;Node0xef0d130</title>
<path fill="none" stroke="black" d="M332.187,-753.45C304.447,-740.713 265.765,-722.952 228.691,-705.93"/>
<polygon fill="black" stroke="black" points="229.857,-702.614 219.308,-701.622 226.936,-708.976 229.857,-702.614"/>
<text text-anchor="middle" x="323" y="-723.8" font-family="Times,serif" font-size="14.00">v13 == 0</text>
</g>
<!-- Node0xef0d220 -->
<g id="node5" class="node"><title>Node0xef0d220</title>
<polygon fill="none" stroke="black" points="247.5,-611 247.5,-694 1011.5,-694 1011.5,-611 247.5,-611"/>
<text text-anchor="start" x="255.5" y="-678.8" font-family="Times,serif" font-size="14.00">0x402bed:</text>
<text text-anchor="start" x="255.5" y="-663.8" font-family="Times,serif" font-size="14.00"> v14 = *(IntToPtrCastExpr&lt;ptr&gt;((v8 + 392)))</text>
<text text-anchor="start" x="255.5" y="-648.8" font-family="Times,serif" font-size="14.00"> v17 = (TruncCastExpr&lt;int32&gt;(((ExtCastExpr&lt;int64&gt;((v14 &#45; v13)) * 2021161081) / 4294967296)) / 64)</text>
<text text-anchor="start" x="255.5" y="-633.8" font-family="Times,serif" font-size="14.00"> v1 = ((v17 &gt;&gt; 31) + v17)</text>
<text text-anchor="start" x="255.5" y="-618.8" font-family="Times,serif" font-size="14.00"> g2 = v1</text>
</g>
<!-- Node0xef0c980&#45;&gt;Node0xef0d220 -->
<g id="edge4" class="edge"><title>Node0xef0c980&#45;&gt;Node0xef0d220</title>
<path fill="none" stroke="black" d="M410.965,-753.45C443.054,-738.774 489.727,-717.427 531.708,-698.226"/>
<polygon fill="black" stroke="black" points="533.228,-701.38 540.866,-694.038 530.316,-695.014 533.228,-701.38"/>
<text text-anchor="middle" x="509" y="-723.8" font-family="Times,serif" font-size="14.00">v13 != 0</text>
</g>
<!-- Node0xef0cc30 -->
<g id="node6" class="node"><title>Node0xef0cc30</title>
<polygon fill="none" stroke="black" points="9.5,-380.5 9.5,-508.5 379.5,-508.5 379.5,-380.5 9.5,-380.5"/>
<text text-anchor="start" x="17.5" y="-493.3" font-family="Times,serif" font-size="14.00">0x402c0f:</text>
<text text-anchor="start" x="17.5" y="-478.3" font-family="Times,serif" font-size="14.00"> v15 = *(IntToPtrCastExpr&lt;ptr&gt;((v9 + 388)))</text>
<text text-anchor="start" x="17.5" y="-463.3" font-family="Times,serif" font-size="14.00"> g2 = v15</text>
<text text-anchor="start" x="17.5" y="-448.3" font-family="Times,serif" font-size="14.00"> v16 = (v11 * 136)</text>
<text text-anchor="start" x="17.5" y="-433.3" font-family="Times,serif" font-size="14.00"> g9 = v16</text>
<text text-anchor="start" x="17.5" y="-418.3" font-family="Times,serif" font-size="14.00"> result = *(IntToPtrCastExpr&lt;ptr&gt;((v15 + v16)))</text>
<text text-anchor="start" x="17.5" y="-403.3" font-family="Times,serif" font-size="14.00"> g9 = v2</text>
<text text-anchor="start" x="17.5" y="-388.3" font-family="Times,serif" font-size="14.00"> return result</text>
</g>
<!-- Node0xef0d130&#45;&gt;Node0xef0cc30 -->
<g id="edge5" class="edge"><title>Node0xef0d130&#45;&gt;Node0xef0cc30</title>
<path fill="none" stroke="black" d="M133.155,-603.462C142.987,-578.147 155.25,-546.568 166.223,-518.313"/>
<polygon fill="black" stroke="black" points="169.532,-519.461 169.89,-508.872 163.007,-516.927 169.532,-519.461"/>
</g>
<!-- Node0xef0d280 -->
<g id="node7" class="node"><title>Node0xef0d280</title>
<polygon fill="none" stroke="black" points="536,-527.5 536,-565.5 649,-565.5 649,-527.5 536,-527.5"/>
<text text-anchor="start" x="544" y="-550.3" font-family="Times,serif" font-size="14.00">if (v7 &gt;= v1):</text>
<text text-anchor="start" x="544" y="-535.3" font-family="Times,serif" font-size="14.00"> else:</text>
</g>
<!-- Node0xef0d220&#45;&gt;Node0xef0d280 -->
<g id="edge6" class="edge"><title>Node0xef0d220&#45;&gt;Node0xef0d280</title>
<path fill="none" stroke="black" d="M615.089,-610.993C610.801,-598.941 606.205,-586.022 602.285,-575.004"/>
<polygon fill="black" stroke="black" points="605.553,-573.749 598.904,-565.5 598.958,-576.095 605.553,-573.749"/>
</g>
<!-- Node0xef0c9e0 -->
<g id="node8" class="node"><title>Node0xef0c9e0</title>
<polygon fill="none" stroke="black" points="235.5,-23.5 235.5,-59.5 289.5,-59.5 289.5,-23.5 235.5,-23.5"/>
<text text-anchor="start" x="243.5" y="-37.8" font-family="Times,serif" font-size="14.00">exit:</text>
</g>
<!-- Node0xef0cc30&#45;&gt;Node0xef0c9e0 -->
<g id="edge7" class="edge"><title>Node0xef0cc30&#45;&gt;Node0xef0c9e0</title>
<path fill="none" stroke="black" d="M190.813,-380.466C188.76,-309.44 191.747,-191.566 225.5,-97 229.133,-86.8216 235.125,-76.7313 241.241,-68.051"/>
<polygon fill="black" stroke="black" points="244.152,-70.0017 247.314,-59.8897 238.536,-65.8228 244.152,-70.0017"/>
</g>
<!-- Node0x5764f50 -->
<g id="node9" class="node"><title>Node0x5764f50</title>
<polygon fill="none" stroke="black" points="305,-263.5 305,-361.5 534,-361.5 534,-263.5 305,-263.5"/>
<text text-anchor="start" x="313" y="-346.3" font-family="Times,serif" font-size="14.00">0x402c0a:</text>
<text text-anchor="start" x="313" y="-331.3" font-family="Times,serif" font-size="14.00"> __invalid_parameter_noinfo()</text>
<text text-anchor="start" x="313" y="-316.3" font-family="Times,serif" font-size="14.00"> v10 = g7</text>
<text text-anchor="start" x="313" y="-301.3" font-family="Times,serif" font-size="14.00"> v12 = g9</text>
<text text-anchor="start" x="313" y="-286.3" font-family="Times,serif" font-size="14.00"> v11 = v12</text>
<text text-anchor="start" x="313" y="-271.3" font-family="Times,serif" font-size="14.00"> v9 = v10</text>
</g>
<!-- Node0xef0d280&#45;&gt;Node0x5764f50 -->
<g id="edge8" class="edge"><title>Node0xef0d280&#45;&gt;Node0x5764f50</title>
<path fill="none" stroke="black" d="M546.232,-527.463C536.983,-522.437 527.861,-516.305 520.5,-509 481.632,-470.429 454.626,-413.763 438.384,-371.356"/>
<polygon fill="black" stroke="black" points="441.562,-369.863 434.784,-361.721 435.005,-372.313 441.562,-369.863"/>
<text text-anchor="middle" x="554.5" y="-440.8" font-family="Times,serif" font-size="14.00">v7 &gt;= v1</text>
</g>
<!-- Node0xef0d7d0 -->
<g id="node10" class="node"><title>Node0xef0d7d0</title>
<polygon fill="none" stroke="black" points="552,-293.5 552,-331.5 633,-331.5 633,-293.5 552,-293.5"/>
<text text-anchor="start" x="560" y="-316.3" font-family="Times,serif" font-size="14.00">v11 = v7</text>
<text text-anchor="start" x="560" y="-301.3" font-family="Times,serif" font-size="14.00"> v9 = v8</text>
</g>
<!-- Node0xef0d280&#45;&gt;Node0xef0d7d0 -->
<g id="edge9" class="edge"><title>Node0xef0d280&#45;&gt;Node0xef0d7d0</title>
<path fill="none" stroke="black" d="M592.5,-527.295C592.5,-486.976 592.5,-389.91 592.5,-341.68"/>
<polygon fill="black" stroke="black" points="596,-341.62 592.5,-331.62 589,-341.62 596,-341.62"/>
<text text-anchor="middle" x="620.5" y="-440.8" font-family="Times,serif" font-size="14.00">v7 &lt; v1</text>
</g>
<!-- Node0xef0d2e0 -->
<g id="node11" class="node"><title>Node0xef0d2e0</title>
<polygon fill="none" stroke="black" points="234.5,-97.5 234.5,-225.5 604.5,-225.5 604.5,-97.5 234.5,-97.5"/>
<text text-anchor="start" x="242.5" y="-210.3" font-family="Times,serif" font-size="14.00">0x402c0f:</text>
<text text-anchor="start" x="242.5" y="-195.3" font-family="Times,serif" font-size="14.00"> v15 = *(IntToPtrCastExpr&lt;ptr&gt;((v9 + 388)))</text>
<text text-anchor="start" x="242.5" y="-180.3" font-family="Times,serif" font-size="14.00"> g2 = v15</text>
<text text-anchor="start" x="242.5" y="-165.3" font-family="Times,serif" font-size="14.00"> v16 = (v11 * 136)</text>
<text text-anchor="start" x="242.5" y="-150.3" font-family="Times,serif" font-size="14.00"> g9 = v16</text>
<text text-anchor="start" x="242.5" y="-135.3" font-family="Times,serif" font-size="14.00"> result = *(IntToPtrCastExpr&lt;ptr&gt;((v15 + v16)))</text>
<text text-anchor="start" x="242.5" y="-120.3" font-family="Times,serif" font-size="14.00"> g9 = v2</text>
<text text-anchor="start" x="242.5" y="-105.3" font-family="Times,serif" font-size="14.00"> return result</text>
</g>
<!-- Node0x5764f50&#45;&gt;Node0xef0d2e0 -->
<g id="edge10" class="edge"><title>Node0x5764f50&#45;&gt;Node0xef0d2e0</title>
<path fill="none" stroke="black" d="M419.5,-263.124C419.5,-254.325 419.5,-244.97 419.5,-235.642"/>
<polygon fill="black" stroke="black" points="423,-235.56 419.5,-225.56 416,-235.56 423,-235.56"/>
</g>
<!-- Node0xef0d7d0&#45;&gt;Node0xef0d2e0 -->
<g id="edge11" class="edge"><title>Node0xef0d7d0&#45;&gt;Node0xef0d2e0</title>
<path fill="none" stroke="black" d="M574.335,-293.152C565.001,-283.912 553.337,-272.652 542.5,-263 531.098,-252.845 518.874,-242.381 506.717,-232.217"/>
<polygon fill="black" stroke="black" points="508.673,-229.291 498.747,-225.587 504.196,-234.673 508.673,-229.291"/>
</g>
<!-- Node0xef0d2e0&#45;&gt;Node0xef0c9e0 -->
<g id="edge12" class="edge"><title>Node0xef0d2e0&#45;&gt;Node0xef0c9e0</title>
<path fill="none" stroke="black" d="M335.485,-97.3546C320.439,-86.0461 305.664,-74.9418 293.387,-65.7143"/>
<polygon fill="black" stroke="black" points="295.41,-62.8567 285.313,-59.6464 291.204,-68.4524 295.41,-62.8567"/>
</g>
</g>
</svg>
