<?xml version="1.0" encoding="UTF-8" standalone="no"?>
<!DOCTYPE svg PUBLIC "-//W3C//DTD SVG 1.1//EN"
 "http://www.w3.org/Graphics/SVG/1.1/DTD/svg11.dtd">
<!-- Generated by graphviz version 2.38.0 (20140413.2041)
 -->
<!-- Title: Control&#45;flow graph for function &#39;function_414464(*lpMultiByteStr)&#39;. Pages: 1 -->
<svg width="535pt" height="398pt"
 viewBox="0.00 0.00 535.00 398.00" xmlns="http://www.w3.org/2000/svg" xmlns:xlink="http://www.w3.org/1999/xlink">
<g id="graph0" class="graph" transform="scale(1 1) rotate(0) translate(4 394)">
<title>Control&#45;flow graph for function &#39;function_414464(*lpMultiByteStr)&#39;.</title>
<polygon fill="white" stroke="none" points="-4,4 -4,-394 531,-394 531,4 -4,4"/>
<text text-anchor="middle" x="263.5" y="-7.8" font-family="Times,serif" font-size="14.00">Control&#45;flow graph for function &#39;function_414464(*lpMultiByteStr)&#39;.</text>
<!-- Node0xf399150 -->
<g id="node1" class="node"><title>Node0xf399150</title>
<polygon fill="none" stroke="black" points="199.5,-351.5 199.5,-389.5 327.5,-389.5 327.5,-351.5 199.5,-351.5"/>
<text text-anchor="start" x="207.5" y="-374.3" font-family="Times,serif" font-size="14.00">entry:</text>
<text text-anchor="start" x="207.5" y="-359.3" font-family="Times,serif" font-size="14.00"> lpMultiByteStr</text>
</g>
<!-- Node0xf39b7c0 -->
<g id="node2" class="node"><title>Node0xf39b7c0</title>
<polygon fill="none" stroke="black" points="0,-96.5 0,-314.5 527,-314.5 527,-96.5 0,-96.5"/>
<text text-anchor="start" x="8" y="-299.3" font-family="Times,serif" font-size="14.00">CodePage</text>
<text text-anchor="start" x="8" y="-284.3" font-family="Times,serif" font-size="14.00"> v1</text>
<text text-anchor="start" x="8" y="-269.3" font-family="Times,serif" font-size="14.00"> v2</text>
<text text-anchor="start" x="8" y="-254.3" font-family="Times,serif" font-size="14.00"> v3</text>
<text text-anchor="start" x="8" y="-239.3" font-family="Times,serif" font-size="14.00"> v4</text>
<text text-anchor="start" x="8" y="-224.3" font-family="Times,serif" font-size="14.00"> v5</text>
<text text-anchor="start" x="8" y="-209.3" font-family="Times,serif" font-size="14.00"> v6</text>
<text text-anchor="start" x="8" y="-194.3" font-family="Times,serif" font-size="14.00"> v7</text>
<text text-anchor="start" x="8" y="-179.3" font-family="Times,serif" font-size="14.00"> v8</text>
<text text-anchor="start" x="8" y="-164.3" font-family="Times,serif" font-size="14.00"> v9</text>
<text text-anchor="start" x="8" y="-149.3" font-family="Times,serif" font-size="14.00"> v10</text>
<text text-anchor="start" x="8" y="-134.3" font-family="Times,serif" font-size="14.00"> CodePage = function_452890()</text>
<text text-anchor="start" x="8" y="-119.3" font-family="Times,serif" font-size="14.00"> v1 = MultiByteToWideChar(CodePage, 0, lpMultiByteStr, &#45;1, NULL, 0)</text>
<text text-anchor="start" x="8" y="-104.3" font-family="Times,serif" font-size="14.00"> return (v1 + &#45;1)</text>
</g>
<!-- Node0xf399150&#45;&gt;Node0xf39b7c0 -->
<g id="edge1" class="edge"><title>Node0xf399150&#45;&gt;Node0xf39b7c0</title>
<path fill="none" stroke="black" d="M263.5,-351.433C263.5,-344.021 263.5,-334.777 263.5,-324.567"/>
<polygon fill="black" stroke="black" points="267,-324.511 263.5,-314.511 260,-324.511 267,-324.511"/>
</g>
<!-- Node0xf39b740 -->
<g id="node3" class="node"><title>Node0xf39b740</title>
<polygon fill="none" stroke="black" points="236.5,-23.5 236.5,-59.5 290.5,-59.5 290.5,-23.5 236.5,-23.5"/>
<text text-anchor="start" x="244.5" y="-37.8" font-family="Times,serif" font-size="14.00">exit:</text>
</g>
<!-- Node0xf39b7c0&#45;&gt;Node0xf39b740 -->
<g id="edge2" class="edge"><title>Node0xf39b7c0&#45;&gt;Node0xf39b740</title>
<path fill="none" stroke="black" d="M263.5,-96.4437C263.5,-86.8181 263.5,-77.7685 263.5,-69.9316"/>
<polygon fill="black" stroke="black" points="267,-69.7265 263.5,-59.7265 260,-69.7266 267,-69.7265"/>
</g>
</g>
</svg>
