<?xml version="1.0" encoding="UTF-8" standalone="no"?>
<!DOCTYPE svg PUBLIC "-//W3C//DTD SVG 1.1//EN"
 "http://www.w3.org/Graphics/SVG/1.1/DTD/svg11.dtd">
<!-- Generated by graphviz version 2.38.0 (20140413.2041)
 -->
<!-- Title: Control&#45;flow graph for function &#39;function_4279d7(*a1, *a2, *a3, *a4, a5)&#39;. Pages: 1 -->
<svg width="1028pt" height="4251pt"
 viewBox="0.00 0.00 1028.00 4251.00" xmlns="http://www.w3.org/2000/svg" xmlns:xlink="http://www.w3.org/1999/xlink">
<g id="graph0" class="graph" transform="scale(1 1) rotate(0) translate(4 4247)">
<title>Control&#45;flow graph for function &#39;function_4279d7(*a1, *a2, *a3, *a4, a5)&#39;.</title>
<polygon fill="white" stroke="none" points="-4,4 -4,-4247 1024,-4247 1024,4 -4,4"/>
<text text-anchor="middle" x="510" y="-7.8" font-family="Times,serif" font-size="14.00">Control&#45;flow graph for function &#39;function_4279d7(*a1, *a2, *a3, *a4, a5)&#39;.</text>
<!-- Node0xfe659a0 -->
<g id="node1" class="node"><title>Node0xfe659a0</title>
<polygon fill="none" stroke="black" points="247,-4144.5 247,-4242.5 306,-4242.5 306,-4144.5 247,-4144.5"/>
<text text-anchor="start" x="255" y="-4227.3" font-family="Times,serif" font-size="14.00">entry:</text>
<text text-anchor="start" x="255" y="-4212.3" font-family="Times,serif" font-size="14.00"> a1</text>
<text text-anchor="start" x="255" y="-4197.3" font-family="Times,serif" font-size="14.00"> a2</text>
<text text-anchor="start" x="255" y="-4182.3" font-family="Times,serif" font-size="14.00"> a3</text>
<text text-anchor="start" x="255" y="-4167.3" font-family="Times,serif" font-size="14.00"> a4</text>
<text text-anchor="start" x="255" y="-4152.3" font-family="Times,serif" font-size="14.00"> a5</text>
</g>
<!-- Node0xfe69760 -->
<g id="node2" class="node"><title>Node0xfe69760</title>
<polygon fill="none" stroke="black" points="138,-2478.5 138,-4106.5 415,-4106.5 415,-2478.5 138,-2478.5"/>
<text text-anchor="start" x="146" y="-4091.3" font-family="Times,serif" font-size="14.00">v1</text>
<text text-anchor="start" x="146" y="-4076.3" font-family="Times,serif" font-size="14.00"> v2</text>
<text text-anchor="start" x="146" y="-4061.3" font-family="Times,serif" font-size="14.00"> v3</text>
<text text-anchor="start" x="146" y="-4046.3" font-family="Times,serif" font-size="14.00"> v4</text>
<text text-anchor="start" x="146" y="-4031.3" font-family="Times,serif" font-size="14.00"> v5</text>
<text text-anchor="start" x="146" y="-4016.3" font-family="Times,serif" font-size="14.00"> v6</text>
<text text-anchor="start" x="146" y="-4001.3" font-family="Times,serif" font-size="14.00"> v7</text>
<text text-anchor="start" x="146" y="-3986.3" font-family="Times,serif" font-size="14.00"> v8</text>
<text text-anchor="start" x="146" y="-3971.3" font-family="Times,serif" font-size="14.00"> v9</text>
<text text-anchor="start" x="146" y="-3956.3" font-family="Times,serif" font-size="14.00"> v10</text>
<text text-anchor="start" x="146" y="-3941.3" font-family="Times,serif" font-size="14.00"> v11</text>
<text text-anchor="start" x="146" y="-3926.3" font-family="Times,serif" font-size="14.00"> v12</text>
<text text-anchor="start" x="146" y="-3911.3" font-family="Times,serif" font-size="14.00"> v13</text>
<text text-anchor="start" x="146" y="-3896.3" font-family="Times,serif" font-size="14.00"> v14</text>
<text text-anchor="start" x="146" y="-3881.3" font-family="Times,serif" font-size="14.00"> v15</text>
<text text-anchor="start" x="146" y="-3866.3" font-family="Times,serif" font-size="14.00"> v16</text>
<text text-anchor="start" x="146" y="-3851.3" font-family="Times,serif" font-size="14.00"> v17</text>
<text text-anchor="start" x="146" y="-3836.3" font-family="Times,serif" font-size="14.00"> v18</text>
<text text-anchor="start" x="146" y="-3821.3" font-family="Times,serif" font-size="14.00"> v19</text>
<text text-anchor="start" x="146" y="-3806.3" font-family="Times,serif" font-size="14.00"> v20</text>
<text text-anchor="start" x="146" y="-3791.3" font-family="Times,serif" font-size="14.00"> v21</text>
<text text-anchor="start" x="146" y="-3776.3" font-family="Times,serif" font-size="14.00"> v22</text>
<text text-anchor="start" x="146" y="-3761.3" font-family="Times,serif" font-size="14.00"> v23</text>
<text text-anchor="start" x="146" y="-3746.3" font-family="Times,serif" font-size="14.00"> v24</text>
<text text-anchor="start" x="146" y="-3731.3" font-family="Times,serif" font-size="14.00"> v25</text>
<text text-anchor="start" x="146" y="-3716.3" font-family="Times,serif" font-size="14.00"> v26</text>
<text text-anchor="start" x="146" y="-3701.3" font-family="Times,serif" font-size="14.00"> v27</text>
<text text-anchor="start" x="146" y="-3686.3" font-family="Times,serif" font-size="14.00"> v28</text>
<text text-anchor="start" x="146" y="-3671.3" font-family="Times,serif" font-size="14.00"> v29</text>
<text text-anchor="start" x="146" y="-3656.3" font-family="Times,serif" font-size="14.00"> v30</text>
<text text-anchor="start" x="146" y="-3641.3" font-family="Times,serif" font-size="14.00"> v31</text>
<text text-anchor="start" x="146" y="-3626.3" font-family="Times,serif" font-size="14.00"> v32</text>
<text text-anchor="start" x="146" y="-3611.3" font-family="Times,serif" font-size="14.00"> v33</text>
<text text-anchor="start" x="146" y="-3596.3" font-family="Times,serif" font-size="14.00"> v34</text>
<text text-anchor="start" x="146" y="-3581.3" font-family="Times,serif" font-size="14.00"> v35</text>
<text text-anchor="start" x="146" y="-3566.3" font-family="Times,serif" font-size="14.00"> v36</text>
<text text-anchor="start" x="146" y="-3551.3" font-family="Times,serif" font-size="14.00"> v37</text>
<text text-anchor="start" x="146" y="-3536.3" font-family="Times,serif" font-size="14.00"> v38</text>
<text text-anchor="start" x="146" y="-3521.3" font-family="Times,serif" font-size="14.00"> v39</text>
<text text-anchor="start" x="146" y="-3506.3" font-family="Times,serif" font-size="14.00"> v40</text>
<text text-anchor="start" x="146" y="-3491.3" font-family="Times,serif" font-size="14.00"> v41</text>
<text text-anchor="start" x="146" y="-3476.3" font-family="Times,serif" font-size="14.00"> v42</text>
<text text-anchor="start" x="146" y="-3461.3" font-family="Times,serif" font-size="14.00"> v43</text>
<text text-anchor="start" x="146" y="-3446.3" font-family="Times,serif" font-size="14.00"> v44</text>
<text text-anchor="start" x="146" y="-3431.3" font-family="Times,serif" font-size="14.00"> v45</text>
<text text-anchor="start" x="146" y="-3416.3" font-family="Times,serif" font-size="14.00"> v46</text>
<text text-anchor="start" x="146" y="-3401.3" font-family="Times,serif" font-size="14.00"> v47</text>
<text text-anchor="start" x="146" y="-3386.3" font-family="Times,serif" font-size="14.00"> v48</text>
<text text-anchor="start" x="146" y="-3371.3" font-family="Times,serif" font-size="14.00"> v49</text>
<text text-anchor="start" x="146" y="-3356.3" font-family="Times,serif" font-size="14.00"> v50</text>
<text text-anchor="start" x="146" y="-3341.3" font-family="Times,serif" font-size="14.00"> v51</text>
<text text-anchor="start" x="146" y="-3326.3" font-family="Times,serif" font-size="14.00"> v52</text>
<text text-anchor="start" x="146" y="-3311.3" font-family="Times,serif" font-size="14.00"> v53</text>
<text text-anchor="start" x="146" y="-3296.3" font-family="Times,serif" font-size="14.00"> v54</text>
<text text-anchor="start" x="146" y="-3281.3" font-family="Times,serif" font-size="14.00"> v55</text>
<text text-anchor="start" x="146" y="-3266.3" font-family="Times,serif" font-size="14.00"> v56</text>
<text text-anchor="start" x="146" y="-3251.3" font-family="Times,serif" font-size="14.00"> v57</text>
<text text-anchor="start" x="146" y="-3236.3" font-family="Times,serif" font-size="14.00"> v58</text>
<text text-anchor="start" x="146" y="-3221.3" font-family="Times,serif" font-size="14.00"> v59</text>
<text text-anchor="start" x="146" y="-3206.3" font-family="Times,serif" font-size="14.00"> v60</text>
<text text-anchor="start" x="146" y="-3191.3" font-family="Times,serif" font-size="14.00"> v61</text>
<text text-anchor="start" x="146" y="-3176.3" font-family="Times,serif" font-size="14.00"> v62</text>
<text text-anchor="start" x="146" y="-3161.3" font-family="Times,serif" font-size="14.00"> v63</text>
<text text-anchor="start" x="146" y="-3146.3" font-family="Times,serif" font-size="14.00"> v64</text>
<text text-anchor="start" x="146" y="-3131.3" font-family="Times,serif" font-size="14.00"> v65</text>
<text text-anchor="start" x="146" y="-3116.3" font-family="Times,serif" font-size="14.00"> v66</text>
<text text-anchor="start" x="146" y="-3101.3" font-family="Times,serif" font-size="14.00"> v67</text>
<text text-anchor="start" x="146" y="-3086.3" font-family="Times,serif" font-size="14.00"> v68</text>
<text text-anchor="start" x="146" y="-3071.3" font-family="Times,serif" font-size="14.00"> v69</text>
<text text-anchor="start" x="146" y="-3056.3" font-family="Times,serif" font-size="14.00"> v70</text>
<text text-anchor="start" x="146" y="-3041.3" font-family="Times,serif" font-size="14.00"> v71</text>
<text text-anchor="start" x="146" y="-3026.3" font-family="Times,serif" font-size="14.00"> v72</text>
<text text-anchor="start" x="146" y="-3011.3" font-family="Times,serif" font-size="14.00"> v73</text>
<text text-anchor="start" x="146" y="-2996.3" font-family="Times,serif" font-size="14.00"> v74</text>
<text text-anchor="start" x="146" y="-2981.3" font-family="Times,serif" font-size="14.00"> v75</text>
<text text-anchor="start" x="146" y="-2966.3" font-family="Times,serif" font-size="14.00"> v76</text>
<text text-anchor="start" x="146" y="-2951.3" font-family="Times,serif" font-size="14.00"> v77</text>
<text text-anchor="start" x="146" y="-2936.3" font-family="Times,serif" font-size="14.00"> v78</text>
<text text-anchor="start" x="146" y="-2921.3" font-family="Times,serif" font-size="14.00"> v79</text>
<text text-anchor="start" x="146" y="-2906.3" font-family="Times,serif" font-size="14.00"> v80</text>
<text text-anchor="start" x="146" y="-2891.3" font-family="Times,serif" font-size="14.00"> v81</text>
<text text-anchor="start" x="146" y="-2876.3" font-family="Times,serif" font-size="14.00"> v82</text>
<text text-anchor="start" x="146" y="-2861.3" font-family="Times,serif" font-size="14.00"> v83</text>
<text text-anchor="start" x="146" y="-2846.3" font-family="Times,serif" font-size="14.00"> v84</text>
<text text-anchor="start" x="146" y="-2831.3" font-family="Times,serif" font-size="14.00"> v85</text>
<text text-anchor="start" x="146" y="-2816.3" font-family="Times,serif" font-size="14.00"> v86</text>
<text text-anchor="start" x="146" y="-2801.3" font-family="Times,serif" font-size="14.00"> v87</text>
<text text-anchor="start" x="146" y="-2786.3" font-family="Times,serif" font-size="14.00"> v40 = v41</text>
<text text-anchor="start" x="146" y="-2771.3" font-family="Times,serif" font-size="14.00"> v38 = v39</text>
<text text-anchor="start" x="146" y="-2756.3" font-family="Times,serif" font-size="14.00"> v36 = v37</text>
<text text-anchor="start" x="146" y="-2741.3" font-family="Times,serif" font-size="14.00"> v34 = v35</text>
<text text-anchor="start" x="146" y="-2726.3" font-family="Times,serif" font-size="14.00"> v32 = v33</text>
<text text-anchor="start" x="146" y="-2711.3" font-family="Times,serif" font-size="14.00"> v30 = v31</text>
<text text-anchor="start" x="146" y="-2696.3" font-family="Times,serif" font-size="14.00"> v27 = v28</text>
<text text-anchor="start" x="146" y="-2681.3" font-family="Times,serif" font-size="14.00"> v51 = v52</text>
<text text-anchor="start" x="146" y="-2666.3" font-family="Times,serif" font-size="14.00"> v53 = v54</text>
<text text-anchor="start" x="146" y="-2651.3" font-family="Times,serif" font-size="14.00"> v46 = v47</text>
<text text-anchor="start" x="146" y="-2636.3" font-family="Times,serif" font-size="14.00"> v48 = v49</text>
<text text-anchor="start" x="146" y="-2621.3" font-family="Times,serif" font-size="14.00"> v51 = a1</text>
<text text-anchor="start" x="146" y="-2606.3" font-family="Times,serif" font-size="14.00"> v53 = a2</text>
<text text-anchor="start" x="146" y="-2591.3" font-family="Times,serif" font-size="14.00"> v46 = a3</text>
<text text-anchor="start" x="146" y="-2576.3" font-family="Times,serif" font-size="14.00"> v48 = a4</text>
<text text-anchor="start" x="146" y="-2561.3" font-family="Times,serif" font-size="14.00"> g4 = PtrToIntCastExpr&lt;int32&gt;(a1)</text>
<text text-anchor="start" x="146" y="-2546.3" font-family="Times,serif" font-size="14.00"> v55 = g9</text>
<text text-anchor="start" x="146" y="-2531.3" font-family="Times,serif" font-size="14.00"> v44 = v55</text>
<text text-anchor="start" x="146" y="-2516.3" font-family="Times,serif" font-size="14.00"> v56 = g5</text>
<text text-anchor="start" x="146" y="-2501.3" font-family="Times,serif" font-size="14.00"> g9 = v56</text>
<text text-anchor="start" x="146" y="-2486.3" font-family="Times,serif" font-size="14.00"> v73 = v56</text>
</g>
<!-- Node0xfe659a0&#45;&gt;Node0xfe69760 -->
<g id="edge1" class="edge"><title>Node0xfe659a0&#45;&gt;Node0xfe69760</title>
<path fill="none" stroke="black" d="M276.5,-4144.48C276.5,-4136.23 276.5,-4127.03 276.5,-4117"/>
<polygon fill="black" stroke="black" points="280,-4116.69 276.5,-4106.69 273,-4116.69 280,-4116.69"/>
</g>
<!-- Node0xfe625b0 -->
<g id="node3" class="node"><title>Node0xfe625b0</title>
<polygon fill="none" stroke="black" points="206.5,-2404.5 206.5,-2440.5 346.5,-2440.5 346.5,-2404.5 206.5,-2404.5"/>
<text text-anchor="start" x="214.5" y="-2418.8" font-family="Times,serif" font-size="14.00">if (a1 == NULL):</text>
</g>
<!-- Node0xfe69760&#45;&gt;Node0xfe625b0 -->
<g id="edge2" class="edge"><title>Node0xfe69760&#45;&gt;Node0xfe625b0</title>
<path fill="none" stroke="black" d="M276.5,-2478.46C276.5,-2467.94 276.5,-2458.73 276.5,-2451.01"/>
<polygon fill="black" stroke="black" points="280,-2450.78 276.5,-2440.78 273,-2450.78 280,-2450.78"/>
</g>
<!-- Node0xfe67b20 -->
<g id="node4" class="node"><title>Node0xfe67b20</title>
<polygon fill="none" stroke="black" points="176.5,-2314.5 176.5,-2352.5 268.5,-2352.5 268.5,-2314.5 176.5,-2314.5"/>
<text text-anchor="start" x="184.5" y="-2337.3" font-family="Times,serif" font-size="14.00">0x4279e3:</text>
<text text-anchor="start" x="184.5" y="-2322.3" font-family="Times,serif" font-size="14.00"> v27 = 6</text>
</g>
<!-- Node0xfe625b0&#45;&gt;Node0xfe67b20 -->
<g id="edge3" class="edge"><title>Node0xfe625b0&#45;&gt;Node0xfe67b20</title>
<path fill="none" stroke="black" d="M240.725,-2404.48C233.846,-2399.52 227.535,-2393.39 223.5,-2386 219.684,-2379.02 218.401,-2370.66 218.35,-2362.74"/>
<polygon fill="black" stroke="black" points="221.847,-2362.89 218.884,-2352.72 214.857,-2362.52 221.847,-2362.89"/>
<text text-anchor="middle" x="270.5" y="-2374.8" font-family="Times,serif" font-size="14.00">a1 == NULL</text>
</g>
<!-- Node0xfe66cb0 -->
<g id="node5" class="node"><title>Node0xfe66cb0</title>
<polygon fill="none" stroke="black" points="158.5,-2103.5 158.5,-2156.5 504.5,-2156.5 504.5,-2103.5 158.5,-2103.5"/>
<text text-anchor="start" x="166.5" y="-2141.3" font-family="Times,serif" font-size="14.00">0x4279ed:</text>
<text text-anchor="start" x="166.5" y="-2126.3" font-family="Times,serif" font-size="14.00"> v82 = *(IntToPtrCastExpr&lt;ptr&gt;((v73 + 24)))</text>
<text text-anchor="start" x="166.5" y="-2111.3" font-family="Times,serif" font-size="14.00"> g2 = (&#45;1 &#45; v82)</text>
</g>
<!-- Node0xfe625b0&#45;&gt;Node0xfe66cb0 -->
<g id="edge4" class="edge"><title>Node0xfe625b0&#45;&gt;Node0xfe66cb0</title>
<path fill="none" stroke="black" d="M302.863,-2404.2C308.672,-2399.07 314.1,-2392.93 317.5,-2386 352.571,-2314.5 345.319,-2217.79 337.87,-2166.45"/>
<polygon fill="black" stroke="black" points="341.321,-2165.87 336.341,-2156.51 334.402,-2166.93 341.321,-2165.87"/>
<text text-anchor="middle" x="387.5" y="-2284.8" font-family="Times,serif" font-size="14.00">a1 != NULL</text>
</g>
<!-- Node0xfe67940 -->
<g id="node6" class="node"><title>Node0xfe67940</title>
<polygon fill="none" stroke="black" points="146.5,-2194.5 146.5,-2262.5 298.5,-2262.5 298.5,-2194.5 146.5,-2194.5"/>
<text text-anchor="start" x="154.5" y="-2247.3" font-family="Times,serif" font-size="14.00">0x4279e8:</text>
<text text-anchor="start" x="154.5" y="-2232.3" font-family="Times,serif" font-size="14.00"> function_423a53()</text>
<text text-anchor="start" x="154.5" y="-2217.3" font-family="Times,serif" font-size="14.00"> v74 = g9</text>
<text text-anchor="start" x="154.5" y="-2202.3" font-family="Times,serif" font-size="14.00"> v73 = v74</text>
</g>
<!-- Node0xfe67b20&#45;&gt;Node0xfe67940 -->
<g id="edge5" class="edge"><title>Node0xfe67b20&#45;&gt;Node0xfe67940</title>
<path fill="none" stroke="black" d="M222.5,-2314.09C222.5,-2302.63 222.5,-2287.39 222.5,-2273"/>
<polygon fill="black" stroke="black" points="226,-2272.74 222.5,-2262.74 219,-2272.74 226,-2272.74"/>
</g>
<!-- Node0xfe66b60 -->
<g id="node7" class="node"><title>Node0xfe66b60</title>
<polygon fill="none" stroke="black" points="272,-2029.5 272,-2065.5 391,-2065.5 391,-2029.5 272,-2029.5"/>
<text text-anchor="start" x="280" y="-2043.8" font-family="Times,serif" font-size="14.00">if (v82 == &#45;2):</text>
</g>
<!-- Node0xfe66cb0&#45;&gt;Node0xfe66b60 -->
<g id="edge6" class="edge"><title>Node0xfe66cb0&#45;&gt;Node0xfe66b60</title>
<path fill="none" stroke="black" d="M331.5,-2103.09C331.5,-2094.46 331.5,-2084.82 331.5,-2076.07"/>
<polygon fill="black" stroke="black" points="335,-2075.97 331.5,-2065.97 328,-2075.97 335,-2075.97"/>
</g>
<!-- Node0xfe67940&#45;&gt;Node0xfe66cb0 -->
<g id="edge7" class="edge"><title>Node0xfe67940&#45;&gt;Node0xfe66cb0</title>
<path fill="none" stroke="black" d="M260.012,-2194.29C271.32,-2184.28 283.712,-2173.31 294.956,-2163.35"/>
<polygon fill="black" stroke="black" points="297.362,-2165.9 302.529,-2156.65 292.722,-2160.66 297.362,-2165.9"/>
</g>
<!-- Node0xfe679e0 -->
<g id="node8" class="node"><title>Node0xfe679e0</title>
<polygon fill="none" stroke="black" points="0,-1917 0,-1970 261,-1970 261,-1917 0,-1917"/>
<text text-anchor="start" x="8" y="-1954.8" font-family="Times,serif" font-size="14.00">0x4279f6:</text>
<text text-anchor="start" x="8" y="-1939.8" font-family="Times,serif" font-size="14.00"> v30 = IntToPtrCastExpr&lt;ptr&gt;(1)</text>
<text text-anchor="start" x="8" y="-1924.8" font-family="Times,serif" font-size="14.00"> goto 0x4279e8</text>
</g>
<!-- Node0xfe66b60&#45;&gt;Node0xfe679e0 -->
<g id="edge8" class="edge"><title>Node0xfe66b60&#45;&gt;Node0xfe679e0</title>
<path fill="none" stroke="black" d="M297.857,-2029.43C268.516,-2014.54 225.262,-1992.59 190.077,-1974.73"/>
<polygon fill="black" stroke="black" points="191.355,-1971.46 180.854,-1970.05 188.188,-1977.7 191.355,-1971.46"/>
<text text-anchor="middle" x="298" y="-1999.8" font-family="Times,serif" font-size="14.00">v82 == &#45;2</text>
</g>
<!-- Node0xfe68b40 -->
<g id="node9" class="node"><title>Node0xfe68b40</title>
<polygon fill="none" stroke="black" points="279,-1909.5 279,-1977.5 616,-1977.5 616,-1909.5 279,-1909.5"/>
<text text-anchor="start" x="287" y="-1962.3" font-family="Times,serif" font-size="14.00">0x4279fd:</text>
<text text-anchor="start" x="287" y="-1947.3" font-family="Times,serif" font-size="14.00"> g3 = 65535</text>
<text text-anchor="start" x="287" y="-1932.3" font-family="Times,serif" font-size="14.00"> v75 = g4</text>
<text text-anchor="start" x="287" y="-1917.3" font-family="Times,serif" font-size="14.00"> v83 = *(IntToPtrCastExpr&lt;ptr&gt;((v75 + 8)))</text>
</g>
<!-- Node0xfe66b60&#45;&gt;Node0xfe68b40 -->
<g id="edge9" class="edge"><title>Node0xfe66b60&#45;&gt;Node0xfe68b40</title>
<path fill="none" stroke="black" d="M350.916,-2029.43C364.787,-2017.23 384.046,-2000.3 401.719,-1984.76"/>
<polygon fill="black" stroke="black" points="404.504,-1986.97 409.703,-1977.74 399.882,-1981.71 404.504,-1986.97"/>
<text text-anchor="middle" x="419" y="-1999.8" font-family="Times,serif" font-size="14.00">v82 != &#45;2</text>
</g>
<!-- Node0xfe679e0&#45;&gt;Node0xfe67940 -->
<g id="edge10" class="edge"><title>Node0xfe679e0&#45;&gt;Node0xfe67940</title>
<path fill="none" stroke="black" d="M127.253,-1970.2C123.182,-2011.73 119.942,-2095.18 149.5,-2157 154.725,-2167.93 162.409,-2178.07 170.853,-2187.06"/>
<polygon fill="black" stroke="black" points="168.555,-2189.72 178.088,-2194.34 173.518,-2184.78 168.555,-2189.72"/>
</g>
<!-- Node0xfe69a20 -->
<g id="node10" class="node"><title>Node0xfe69a20</title>
<polygon fill="none" stroke="black" points="372.5,-1835.5 372.5,-1871.5 522.5,-1871.5 522.5,-1835.5 372.5,-1835.5"/>
<text text-anchor="start" x="380.5" y="-1849.8" font-family="Times,serif" font-size="14.00">if (v83 == 65535):</text>
</g>
<!-- Node0xfe68b40&#45;&gt;Node0xfe69a20 -->
<g id="edge11" class="edge"><title>Node0xfe68b40&#45;&gt;Node0xfe69a20</title>
<path fill="none" stroke="black" d="M447.5,-1909.48C447.5,-1900.33 447.5,-1890.5 447.5,-1881.72"/>
<polygon fill="black" stroke="black" points="451,-1881.64 447.5,-1871.64 444,-1881.64 451,-1881.64"/>
</g>
<!-- Node0xfe6a0d0 -->
<g id="node11" class="node"><title>Node0xfe6a0d0</title>
<polygon fill="none" stroke="black" points="315.5,-1745.5 315.5,-1783.5 467.5,-1783.5 467.5,-1745.5 315.5,-1745.5"/>
<text text-anchor="start" x="323.5" y="-1768.3" font-family="Times,serif" font-size="14.00">0x427a08:</text>
<text text-anchor="start" x="323.5" y="-1753.3" font-family="Times,serif" font-size="14.00"> function_417897()</text>
</g>
<!-- Node0xfe69a20&#45;&gt;Node0xfe6a0d0 -->
<g id="edge12" class="edge"><title>Node0xfe69a20&#45;&gt;Node0xfe6a0d0</title>
<path fill="none" stroke="black" d="M406.441,-1835.46C399.256,-1830.58 392.736,-1824.49 388.5,-1817 384.577,-1810.06 383.744,-1801.72 384.327,-1793.8"/>
<polygon fill="black" stroke="black" points="387.811,-1794.16 385.768,-1783.77 380.882,-1793.17 387.811,-1794.16"/>
<text text-anchor="middle" x="441" y="-1805.8" font-family="Times,serif" font-size="14.00">v83 == 65535</text>
</g>
<!-- Node0xfe69890 -->
<g id="node12" class="node"><title>Node0xfe69890</title>
<polygon fill="none" stroke="black" points="299.5,-1429.5 299.5,-1707.5 645.5,-1707.5 645.5,-1429.5 299.5,-1429.5"/>
<text text-anchor="start" x="307.5" y="-1692.3" font-family="Times,serif" font-size="14.00">0x427a0d:</text>
<text text-anchor="start" x="307.5" y="-1677.3" font-family="Times,serif" font-size="14.00"> v57 = g7</text>
<text text-anchor="start" x="307.5" y="-1662.3" font-family="Times,serif" font-size="14.00"> v30 = IntToPtrCastExpr&lt;ptr&gt;(v57)</text>
<text text-anchor="start" x="307.5" y="-1647.3" font-family="Times,serif" font-size="14.00"> v32 = NULL</text>
<text text-anchor="start" x="307.5" y="-1632.3" font-family="Times,serif" font-size="14.00"> function_427898()</text>
<text text-anchor="start" x="307.5" y="-1617.3" font-family="Times,serif" font-size="14.00"> v76 = g9</text>
<text text-anchor="start" x="307.5" y="-1602.3" font-family="Times,serif" font-size="14.00"> v84 = *(IntToPtrCastExpr&lt;ptr&gt;((v76 + 56)))</text>
<text text-anchor="start" x="307.5" y="-1587.3" font-family="Times,serif" font-size="14.00"> g5 = v84</text>
<text text-anchor="start" x="307.5" y="-1572.3" font-family="Times,serif" font-size="14.00"> v58 = g4</text>
<text text-anchor="start" x="307.5" y="-1557.3" font-family="Times,serif" font-size="14.00"> v7 = IntToPtrCastExpr&lt;ptr&gt;(v58)</text>
<text text-anchor="start" x="307.5" y="-1542.3" font-family="Times,serif" font-size="14.00"> v34 = v7</text>
<text text-anchor="start" x="307.5" y="-1527.3" font-family="Times,serif" font-size="14.00"> v3 = v32</text>
<text text-anchor="start" x="307.5" y="-1512.3" font-family="Times,serif" font-size="14.00"> v5 = v30</text>
<text text-anchor="start" x="307.5" y="-1497.3" font-family="Times,serif" font-size="14.00"> v17 = function_41b577(v7, v3, v5)</text>
<text text-anchor="start" x="307.5" y="-1482.3" font-family="Times,serif" font-size="14.00"> v67 = *(IntToPtrCastExpr&lt;ptr&gt;(v17))</text>
<text text-anchor="start" x="307.5" y="-1467.3" font-family="Times,serif" font-size="14.00"> g7 = v67</text>
<text text-anchor="start" x="307.5" y="-1452.3" font-family="Times,serif" font-size="14.00"> v59 = g9</text>
<text text-anchor="start" x="307.5" y="-1437.3" font-family="Times,serif" font-size="14.00"> g5 = v59</text>
</g>
<!-- Node0xfe69a20&#45;&gt;Node0xfe69890 -->
<g id="edge13" class="edge"><title>Node0xfe69a20&#45;&gt;Node0xfe69890</title>
<path fill="none" stroke="black" d="M478.258,-1835.12C484.404,-1830.12 490.03,-1824.06 493.5,-1817 508.43,-1786.62 512.229,-1751.6 510.32,-1717.64"/>
<polygon fill="black" stroke="black" points="513.808,-1717.34 509.593,-1707.62 506.826,-1717.84 513.808,-1717.34"/>
<text text-anchor="middle" x="559" y="-1760.8" font-family="Times,serif" font-size="14.00">v83 != 65535</text>
</g>
<!-- Node0xfe6a0d0&#45;&gt;Node0xfe69890 -->
<g id="edge14" class="edge"><title>Node0xfe6a0d0&#45;&gt;Node0xfe69890</title>
<path fill="none" stroke="black" d="M399.12,-1745.25C402.32,-1737.59 406.352,-1727.93 410.872,-1717.1"/>
<polygon fill="black" stroke="black" points="414.153,-1718.33 414.776,-1707.75 407.693,-1715.63 414.153,-1718.33"/>
</g>
<!-- Node0x4b54b80 -->
<g id="node13" class="node"><title>Node0x4b54b80</title>
<polygon fill="none" stroke="black" points="415.5,-1353.5 415.5,-1391.5 529.5,-1391.5 529.5,-1353.5 415.5,-1353.5"/>
<text text-anchor="start" x="423.5" y="-1376.3" font-family="Times,serif" font-size="14.00">if (v67 == 0):</text>
<text text-anchor="start" x="423.5" y="-1361.3" font-family="Times,serif" font-size="14.00"> else:</text>
</g>
<!-- Node0xfe69890&#45;&gt;Node0x4b54b80 -->
<g id="edge15" class="edge"><title>Node0xfe69890&#45;&gt;Node0x4b54b80</title>
<path fill="none" stroke="black" d="M472.5,-1429.35C472.5,-1419.21 472.5,-1409.8 472.5,-1401.71"/>
<polygon fill="black" stroke="black" points="476,-1401.55 472.5,-1391.55 469,-1401.55 476,-1401.55"/>
</g>
<!-- Node0xfe6a130 -->
<g id="node14" class="node"><title>Node0xfe6a130</title>
<polygon fill="none" stroke="black" points="215.5,-798.5 215.5,-1301.5 561.5,-1301.5 561.5,-798.5 215.5,-798.5"/>
<text text-anchor="start" x="223.5" y="-1286.3" font-family="Times,serif" font-size="14.00">0x427a53:</text>
<text text-anchor="start" x="223.5" y="-1271.3" font-family="Times,serif" font-size="14.00"> v61 = g3</text>
<text text-anchor="start" x="223.5" y="-1256.3" font-family="Times,serif" font-size="14.00"> v36 = IntToPtrCastExpr&lt;ptr&gt;(v61)</text>
<text text-anchor="start" x="223.5" y="-1241.3" font-family="Times,serif" font-size="14.00"> function_423d94()</text>
<text text-anchor="start" x="223.5" y="-1226.3" font-family="Times,serif" font-size="14.00"> v62 = g9</text>
<text text-anchor="start" x="223.5" y="-1211.3" font-family="Times,serif" font-size="14.00"> v11 = IntToPtrCastExpr&lt;ptr&gt;(v62)</text>
<text text-anchor="start" x="223.5" y="-1196.3" font-family="Times,serif" font-size="14.00"> v38 = v11</text>
<text text-anchor="start" x="223.5" y="-1181.3" font-family="Times,serif" font-size="14.00"> v63 = g4</text>
<text text-anchor="start" x="223.5" y="-1166.3" font-family="Times,serif" font-size="14.00"> g5 = v63</text>
<text text-anchor="start" x="223.5" y="-1151.3" font-family="Times,serif" font-size="14.00"> v2 = v36</text>
<text text-anchor="start" x="223.5" y="-1136.3" font-family="Times,serif" font-size="14.00"> function_42407d(v11, v2)</text>
<text text-anchor="start" x="223.5" y="-1121.3" font-family="Times,serif" font-size="14.00"> v64 = g9</text>
<text text-anchor="start" x="223.5" y="-1106.3" font-family="Times,serif" font-size="14.00"> g5 = v64</text>
<text text-anchor="start" x="223.5" y="-1091.3" font-family="Times,serif" font-size="14.00"> v1 = v38</text>
<text text-anchor="start" x="223.5" y="-1076.3" font-family="Times,serif" font-size="14.00"> function_427545(v1)</text>
<text text-anchor="start" x="223.5" y="-1061.3" font-family="Times,serif" font-size="14.00"> v79 = g9</text>
<text text-anchor="start" x="223.5" y="-1046.3" font-family="Times,serif" font-size="14.00"> v85 = *(IntToPtrCastExpr&lt;ptr&gt;((v79 + 56)))</text>
<text text-anchor="start" x="223.5" y="-1031.3" font-family="Times,serif" font-size="14.00"> g5 = v85</text>
<text text-anchor="start" x="223.5" y="-1016.3" font-family="Times,serif" font-size="14.00"> v65 = g4</text>
<text text-anchor="start" x="223.5" y="-1001.3" font-family="Times,serif" font-size="14.00"> v12 = IntToPtrCastExpr&lt;ptr&gt;(v65)</text>
<text text-anchor="start" x="223.5" y="-986.3" font-family="Times,serif" font-size="14.00"> v40 = v12</text>
<text text-anchor="start" x="223.5" y="-971.3" font-family="Times,serif" font-size="14.00"> v4 = v38</text>
<text text-anchor="start" x="223.5" y="-956.3" font-family="Times,serif" font-size="14.00"> v6 = v36</text>
<text text-anchor="start" x="223.5" y="-941.3" font-family="Times,serif" font-size="14.00"> v24 = function_41b577(v12, v4, v6)</text>
<text text-anchor="start" x="223.5" y="-926.3" font-family="Times,serif" font-size="14.00"> v13 = IntToPtrCastExpr&lt;ptr&gt;(v24)</text>
<text text-anchor="start" x="223.5" y="-911.3" font-family="Times,serif" font-size="14.00"> v80 = g9</text>
<text text-anchor="start" x="223.5" y="-896.3" font-family="Times,serif" font-size="14.00"> v86 = *(IntToPtrCastExpr&lt;ptr&gt;((v80 + 52)))</text>
<text text-anchor="start" x="223.5" y="-881.3" font-family="Times,serif" font-size="14.00"> *(v13) = v86</text>
<text text-anchor="start" x="223.5" y="-866.3" font-family="Times,serif" font-size="14.00"> v81 = g9</text>
<text text-anchor="start" x="223.5" y="-851.3" font-family="Times,serif" font-size="14.00"> v14 = IntToPtrCastExpr&lt;ptr&gt;((v81 + 52))</text>
<text text-anchor="start" x="223.5" y="-836.3" font-family="Times,serif" font-size="14.00"> v87 = *(v14)</text>
<text text-anchor="start" x="223.5" y="-821.3" font-family="Times,serif" font-size="14.00"> *(v14) = (v87 + 1)</text>
<text text-anchor="start" x="223.5" y="-806.3" font-family="Times,serif" font-size="14.00"> v25 = v13</text>
</g>
<!-- Node0x4b54b80&#45;&gt;Node0xfe6a130 -->
<g id="edge16" class="edge"><title>Node0x4b54b80&#45;&gt;Node0xfe6a130</title>
<path fill="none" stroke="black" d="M467.743,-1353.35C464.99,-1342.85 461.189,-1328.34 456.73,-1311.33"/>
<polygon fill="black" stroke="black" points="460.108,-1310.41 454.187,-1301.63 453.337,-1312.19 460.108,-1310.41"/>
<text text-anchor="middle" x="496" y="-1323.8" font-family="Times,serif" font-size="14.00">v67 == 0</text>
</g>
<!-- Node0xfe6a1e0 -->
<g id="node15" class="node"><title>Node0xfe6a1e0</title>
<polygon fill="none" stroke="black" points="580,-1031 580,-1069 685,-1069 685,-1031 580,-1031"/>
<text text-anchor="start" x="588" y="-1053.8" font-family="Times,serif" font-size="14.00">0x427a26:</text>
<text text-anchor="start" x="588" y="-1038.8" font-family="Times,serif" font-size="14.00"> g2 = 32767</text>
</g>
<!-- Node0x4b54b80&#45;&gt;Node0xfe6a1e0 -->
<g id="edge17" class="edge"><title>Node0x4b54b80&#45;&gt;Node0xfe6a1e0</title>
<path fill="none" stroke="black" d="M512.274,-1353.42C533.139,-1341.79 557.089,-1324.6 570.5,-1302 613.62,-1229.33 626.85,-1127.8 630.832,-1079.16"/>
<polygon fill="black" stroke="black" points="634.331,-1079.3 631.585,-1069.06 627.35,-1078.77 634.331,-1079.3"/>
<text text-anchor="middle" x="586" y="-1323.8" font-family="Times,serif" font-size="14.00">v67 != 0</text>
</g>
<!-- Node0xfe67460 -->
<g id="node16" class="node"><title>Node0xfe67460</title>
<polygon fill="none" stroke="black" points="215.5,-530.5 215.5,-703.5 561.5,-703.5 561.5,-530.5 215.5,-530.5"/>
<text text-anchor="start" x="223.5" y="-688.3" font-family="Times,serif" font-size="14.00">0x427a79:</text>
<text text-anchor="start" x="223.5" y="-673.3" font-family="Times,serif" font-size="14.00"> v66 = g10</text>
<text text-anchor="start" x="223.5" y="-658.3" font-family="Times,serif" font-size="14.00"> v69 = *(IntToPtrCastExpr&lt;ptr&gt;(v66))</text>
<text text-anchor="start" x="223.5" y="-643.3" font-family="Times,serif" font-size="14.00"> g7 = v69</text>
<text text-anchor="start" x="223.5" y="-628.3" font-family="Times,serif" font-size="14.00"> v70 = *(IntToPtrCastExpr&lt;ptr&gt;((v66 + 4)))</text>
<text text-anchor="start" x="223.5" y="-613.3" font-family="Times,serif" font-size="14.00"> g3 = v70</text>
<text text-anchor="start" x="223.5" y="-598.3" font-family="Times,serif" font-size="14.00"> v71 = *(IntToPtrCastExpr&lt;ptr&gt;((v66 + 8)))</text>
<text text-anchor="start" x="223.5" y="-583.3" font-family="Times,serif" font-size="14.00"> g9 = v71</text>
<text text-anchor="start" x="223.5" y="-568.3" font-family="Times,serif" font-size="14.00"> v72 = *(IntToPtrCastExpr&lt;ptr&gt;((v66 + 12)))</text>
<text text-anchor="start" x="223.5" y="-553.3" font-family="Times,serif" font-size="14.00"> g4 = v72</text>
<text text-anchor="start" x="223.5" y="-538.3" font-family="Times,serif" font-size="14.00"> return PtrToIntCastExpr&lt;int32&gt;(v25)</text>
</g>
<!-- Node0xfe6a130&#45;&gt;Node0xfe67460 -->
<g id="edge18" class="edge"><title>Node0xfe6a130&#45;&gt;Node0xfe67460</title>
<path fill="none" stroke="black" d="M388.5,-798.286C388.5,-768.367 388.5,-739.38 388.5,-713.715"/>
<polygon fill="black" stroke="black" points="392,-713.675 388.5,-703.675 385,-713.675 392,-713.675"/>
</g>
<!-- Node0xfe672b0 -->
<g id="node17" class="node"><title>Node0xfe672b0</title>
<polygon fill="none" stroke="black" points="563.5,-722.5 563.5,-760.5 701.5,-760.5 701.5,-722.5 563.5,-722.5"/>
<text text-anchor="start" x="571.5" y="-745.3" font-family="Times,serif" font-size="14.00">if (v67 &gt; 32766):</text>
<text text-anchor="start" x="571.5" y="-730.3" font-family="Times,serif" font-size="14.00"> else:</text>
</g>
<!-- Node0xfe6a1e0&#45;&gt;Node0xfe672b0 -->
<g id="edge19" class="edge"><title>Node0xfe6a1e0&#45;&gt;Node0xfe672b0</title>
<path fill="none" stroke="black" d="M632.5,-1030.74C632.5,-979.319 632.5,-832.965 632.5,-770.89"/>
<polygon fill="black" stroke="black" points="636,-770.659 632.5,-760.659 629,-770.659 636,-770.659"/>
</g>
<!-- Node0xfe665e0 -->
<g id="node18" class="node"><title>Node0xfe665e0</title>
<polygon fill="none" stroke="black" points="417.5,-23.5 417.5,-59.5 471.5,-59.5 471.5,-23.5 417.5,-23.5"/>
<text text-anchor="start" x="425.5" y="-37.8" font-family="Times,serif" font-size="14.00">exit:</text>
</g>
<!-- Node0xfe67460&#45;&gt;Node0xfe665e0 -->
<g id="edge20" class="edge"><title>Node0xfe67460&#45;&gt;Node0xfe665e0</title>
<path fill="none" stroke="black" d="M377.476,-530.344C367.133,-425.336 359.581,-243.309 407.5,-97 410.864,-86.7295 416.786,-76.6151 422.919,-67.9411"/>
<polygon fill="black" stroke="black" points="425.831,-69.8929 429.036,-59.7947 420.233,-65.6898 425.831,-69.8929"/>
</g>
<!-- Node0xfe6a8c0 -->
<g id="node19" class="node"><title>Node0xfe6a8c0</title>
<polygon fill="none" stroke="black" points="723,-308.5 723,-511.5 1020,-511.5 1020,-308.5 723,-308.5"/>
<text text-anchor="start" x="731" y="-496.3" font-family="Times,serif" font-size="14.00">0x427a3d:</text>
<text text-anchor="start" x="731" y="-481.3" font-family="Times,serif" font-size="14.00"> v36 = IntToPtrCastExpr&lt;ptr&gt;(32767)</text>
<text text-anchor="start" x="731" y="-466.3" font-family="Times,serif" font-size="14.00"> function_423d94()</text>
<text text-anchor="start" x="731" y="-451.3" font-family="Times,serif" font-size="14.00"> v68 = g7</text>
<text text-anchor="start" x="731" y="-436.3" font-family="Times,serif" font-size="14.00"> v78 = (v68 | &#45;2147483648)</text>
<text text-anchor="start" x="731" y="-421.3" font-family="Times,serif" font-size="14.00"> g7 = v78</text>
<text text-anchor="start" x="731" y="-406.3" font-family="Times,serif" font-size="14.00"> v9 = IntToPtrCastExpr&lt;ptr&gt;(v78)</text>
<text text-anchor="start" x="731" y="-391.3" font-family="Times,serif" font-size="14.00"> v38 = v9</text>
<text text-anchor="start" x="731" y="-376.3" font-family="Times,serif" font-size="14.00"> v60 = g9</text>
<text text-anchor="start" x="731" y="-361.3" font-family="Times,serif" font-size="14.00"> g5 = v60</text>
<text text-anchor="start" x="731" y="-346.3" font-family="Times,serif" font-size="14.00"> v23 = function_423dce(v9)</text>
<text text-anchor="start" x="731" y="-331.3" font-family="Times,serif" font-size="14.00"> v10 = IntToPtrCastExpr&lt;ptr&gt;(v23)</text>
<text text-anchor="start" x="731" y="-316.3" font-family="Times,serif" font-size="14.00"> v25 = v10</text>
</g>
<!-- Node0xfe672b0&#45;&gt;Node0xfe6a8c0 -->
<g id="edge21" class="edge"><title>Node0xfe672b0&#45;&gt;Node0xfe6a8c0</title>
<path fill="none" stroke="black" d="M701.604,-723.375C712.802,-718.426 723.62,-712.09 732.5,-704 785.733,-655.5 820.472,-582.321 841.907,-521.231"/>
<polygon fill="black" stroke="black" points="845.299,-522.131 845.234,-511.536 838.678,-519.859 845.299,-522.131"/>
<text text-anchor="middle" x="883" y="-613.3" font-family="Times,serif" font-size="14.00">v67 &gt; 32766</text>
</g>
<!-- Node0xfe65c30 -->
<g id="node20" class="node"><title>Node0xfe65c30</title>
<polygon fill="none" stroke="black" points="426.5,-353.5 426.5,-466.5 704.5,-466.5 704.5,-353.5 426.5,-353.5"/>
<text text-anchor="start" x="434.5" y="-451.3" font-family="Times,serif" font-size="14.00">0x427a2f:</text>
<text text-anchor="start" x="434.5" y="-436.3" font-family="Times,serif" font-size="14.00"> v77 = (v67 | 32768)</text>
<text text-anchor="start" x="434.5" y="-421.3" font-family="Times,serif" font-size="14.00"> g7 = v77</text>
<text text-anchor="start" x="434.5" y="-406.3" font-family="Times,serif" font-size="14.00"> v36 = IntToPtrCastExpr&lt;ptr&gt;(v77)</text>
<text text-anchor="start" x="434.5" y="-391.3" font-family="Times,serif" font-size="14.00"> v22 = function_423d94()</text>
<text text-anchor="start" x="434.5" y="-376.3" font-family="Times,serif" font-size="14.00"> v8 = IntToPtrCastExpr&lt;ptr&gt;(v22)</text>
<text text-anchor="start" x="434.5" y="-361.3" font-family="Times,serif" font-size="14.00"> v25 = v8</text>
</g>
<!-- Node0xfe672b0&#45;&gt;Node0xfe65c30 -->
<g id="edge22" class="edge"><title>Node0xfe672b0&#45;&gt;Node0xfe65c30</title>
<path fill="none" stroke="black" d="M628.802,-722.315C619.456,-676.35 594.518,-553.706 578.877,-476.788"/>
<polygon fill="black" stroke="black" points="582.251,-475.817 576.829,-466.715 575.392,-477.212 582.251,-475.817"/>
<text text-anchor="middle" x="676" y="-613.3" font-family="Times,serif" font-size="14.00">v67 &lt;= 32766</text>
</g>
<!-- Node0xfe6a7a0 -->
<g id="node21" class="node"><title>Node0xfe6a7a0</title>
<polygon fill="none" stroke="black" points="416.5,-97.5 416.5,-270.5 762.5,-270.5 762.5,-97.5 416.5,-97.5"/>
<text text-anchor="start" x="424.5" y="-255.3" font-family="Times,serif" font-size="14.00">0x427a79:</text>
<text text-anchor="start" x="424.5" y="-240.3" font-family="Times,serif" font-size="14.00"> v66 = g10</text>
<text text-anchor="start" x="424.5" y="-225.3" font-family="Times,serif" font-size="14.00"> v69 = *(IntToPtrCastExpr&lt;ptr&gt;(v66))</text>
<text text-anchor="start" x="424.5" y="-210.3" font-family="Times,serif" font-size="14.00"> g7 = v69</text>
<text text-anchor="start" x="424.5" y="-195.3" font-family="Times,serif" font-size="14.00"> v70 = *(IntToPtrCastExpr&lt;ptr&gt;((v66 + 4)))</text>
<text text-anchor="start" x="424.5" y="-180.3" font-family="Times,serif" font-size="14.00"> g3 = v70</text>
<text text-anchor="start" x="424.5" y="-165.3" font-family="Times,serif" font-size="14.00"> v71 = *(IntToPtrCastExpr&lt;ptr&gt;((v66 + 8)))</text>
<text text-anchor="start" x="424.5" y="-150.3" font-family="Times,serif" font-size="14.00"> g9 = v71</text>
<text text-anchor="start" x="424.5" y="-135.3" font-family="Times,serif" font-size="14.00"> v72 = *(IntToPtrCastExpr&lt;ptr&gt;((v66 + 12)))</text>
<text text-anchor="start" x="424.5" y="-120.3" font-family="Times,serif" font-size="14.00"> g4 = v72</text>
<text text-anchor="start" x="424.5" y="-105.3" font-family="Times,serif" font-size="14.00"> return PtrToIntCastExpr&lt;int32&gt;(v25)</text>
</g>
<!-- Node0xfe6a8c0&#45;&gt;Node0xfe6a7a0 -->
<g id="edge23" class="edge"><title>Node0xfe6a8c0&#45;&gt;Node0xfe6a7a0</title>
<path fill="none" stroke="black" d="M744.935,-308.466C731.84,-298.064 718.577,-287.529 705.604,-277.224"/>
<polygon fill="black" stroke="black" points="707.575,-274.32 697.568,-270.841 703.221,-279.802 707.575,-274.32"/>
</g>
<!-- Node0xfe65c30&#45;&gt;Node0xfe6a7a0 -->
<g id="edge24" class="edge"><title>Node0xfe65c30&#45;&gt;Node0xfe6a7a0</title>
<path fill="none" stroke="black" d="M571.463,-353.341C573.806,-331.476 576.564,-305.737 579.209,-281.053"/>
<polygon fill="black" stroke="black" points="582.709,-281.24 580.294,-270.924 575.748,-280.494 582.709,-281.24"/>
</g>
<!-- Node0xfe6a7a0&#45;&gt;Node0xfe665e0 -->
<g id="edge25" class="edge"><title>Node0xfe6a7a0&#45;&gt;Node0xfe665e0</title>
<path fill="none" stroke="black" d="M500.976,-97.2233C489.552,-86.1538 478.687,-75.6257 469.593,-66.8144"/>
<polygon fill="black" stroke="black" points="472.015,-64.2877 462.398,-59.8425 467.144,-69.3149 472.015,-64.2877"/>
</g>
</g>
</svg>
