<?xml version="1.0" encoding="UTF-8" standalone="no"?>
<!DOCTYPE svg PUBLIC "-//W3C//DTD SVG 1.1//EN"
 "http://www.w3.org/Graphics/SVG/1.1/DTD/svg11.dtd">
<!-- Generated by graphviz version 2.38.0 (20140413.2041)
 -->
<!-- Title: Control&#45;flow graph for function &#39;function_418ac9(a1)&#39;. Pages: 1 -->
<svg width="789pt" height="1309pt"
 viewBox="0.00 0.00 788.50 1309.00" xmlns="http://www.w3.org/2000/svg" xmlns:xlink="http://www.w3.org/1999/xlink">
<g id="graph0" class="graph" transform="scale(1 1) rotate(0) translate(4 1305)">
<title>Control&#45;flow graph for function &#39;function_418ac9(a1)&#39;.</title>
<polygon fill="white" stroke="none" points="-4,4 -4,-1305 784.5,-1305 784.5,4 -4,4"/>
<text text-anchor="middle" x="390.25" y="-7.8" font-family="Times,serif" font-size="14.00">Control&#45;flow graph for function &#39;function_418ac9(a1)&#39;.</text>
<!-- Node0xf55a490 -->
<g id="node1" class="node"><title>Node0xf55a490</title>
<polygon fill="none" stroke="black" points="209.5,-1262.5 209.5,-1300.5 268.5,-1300.5 268.5,-1262.5 209.5,-1262.5"/>
<text text-anchor="start" x="217.5" y="-1285.3" font-family="Times,serif" font-size="14.00">entry:</text>
<text text-anchor="start" x="217.5" y="-1270.3" font-family="Times,serif" font-size="14.00"> a1</text>
</g>
<!-- Node0xf558e70 -->
<g id="node2" class="node"><title>Node0xf558e70</title>
<polygon fill="none" stroke="black" points="65.5,-766.5 65.5,-1224.5 412.5,-1224.5 412.5,-766.5 65.5,-766.5"/>
<text text-anchor="start" x="73.5" y="-1209.3" font-family="Times,serif" font-size="14.00">v1</text>
<text text-anchor="start" x="73.5" y="-1194.3" font-family="Times,serif" font-size="14.00"> v2</text>
<text text-anchor="start" x="73.5" y="-1179.3" font-family="Times,serif" font-size="14.00"> errorCode</text>
<text text-anchor="start" x="73.5" y="-1164.3" font-family="Times,serif" font-size="14.00"> v3</text>
<text text-anchor="start" x="73.5" y="-1149.3" font-family="Times,serif" font-size="14.00"> v4</text>
<text text-anchor="start" x="73.5" y="-1134.3" font-family="Times,serif" font-size="14.00"> result</text>
<text text-anchor="start" x="73.5" y="-1119.3" font-family="Times,serif" font-size="14.00"> v5</text>
<text text-anchor="start" x="73.5" y="-1104.3" font-family="Times,serif" font-size="14.00"> v6</text>
<text text-anchor="start" x="73.5" y="-1089.3" font-family="Times,serif" font-size="14.00"> v7</text>
<text text-anchor="start" x="73.5" y="-1074.3" font-family="Times,serif" font-size="14.00"> v8</text>
<text text-anchor="start" x="73.5" y="-1059.3" font-family="Times,serif" font-size="14.00"> v9</text>
<text text-anchor="start" x="73.5" y="-1044.3" font-family="Times,serif" font-size="14.00"> v10</text>
<text text-anchor="start" x="73.5" y="-1029.3" font-family="Times,serif" font-size="14.00"> v11</text>
<text text-anchor="start" x="73.5" y="-1014.3" font-family="Times,serif" font-size="14.00"> v12</text>
<text text-anchor="start" x="73.5" y="-999.3" font-family="Times,serif" font-size="14.00"> v13</text>
<text text-anchor="start" x="73.5" y="-984.3" font-family="Times,serif" font-size="14.00"> v14</text>
<text text-anchor="start" x="73.5" y="-969.3" font-family="Times,serif" font-size="14.00"> v15</text>
<text text-anchor="start" x="73.5" y="-954.3" font-family="Times,serif" font-size="14.00"> v16</text>
<text text-anchor="start" x="73.5" y="-939.3" font-family="Times,serif" font-size="14.00"> v17</text>
<text text-anchor="start" x="73.5" y="-924.3" font-family="Times,serif" font-size="14.00"> hFile</text>
<text text-anchor="start" x="73.5" y="-909.3" font-family="Times,serif" font-size="14.00"> v18</text>
<text text-anchor="start" x="73.5" y="-894.3" font-family="Times,serif" font-size="14.00"> v5 = v6</text>
<text text-anchor="start" x="73.5" y="-879.3" font-family="Times,serif" font-size="14.00"> v10 = v11</text>
<text text-anchor="start" x="73.5" y="-864.3" font-family="Times,serif" font-size="14.00"> v13 = g9</text>
<text text-anchor="start" x="73.5" y="-849.3" font-family="Times,serif" font-size="14.00"> v8 = v13</text>
<text text-anchor="start" x="73.5" y="-834.3" font-family="Times,serif" font-size="14.00"> v1 = PtrToIntCastExpr&lt;int32&gt;(&amp;(v8))</text>
<text text-anchor="start" x="73.5" y="-819.3" font-family="Times,serif" font-size="14.00"> g10 = v1</text>
<text text-anchor="start" x="73.5" y="-804.3" font-family="Times,serif" font-size="14.00"> v14 = g5</text>
<text text-anchor="start" x="73.5" y="-789.3" font-family="Times,serif" font-size="14.00"> g9 = v14</text>
<text text-anchor="start" x="73.5" y="-774.3" font-family="Times,serif" font-size="14.00"> hFile = *(IntToPtrCastExpr&lt;ptr&gt;((v14 + 4)))</text>
</g>
<!-- Node0xf55a490&#45;&gt;Node0xf558e70 -->
<g id="edge1" class="edge"><title>Node0xf55a490&#45;&gt;Node0xf558e70</title>
<path fill="none" stroke="black" d="M239,-1262.3C239,-1254.9 239,-1245.53 239,-1234.77"/>
<polygon fill="black" stroke="black" points="242.5,-1234.52 239,-1224.52 235.5,-1234.52 242.5,-1234.52"/>
</g>
<!-- Node0xf55a690 -->
<g id="node3" class="node"><title>Node0xf55a690</title>
<polygon fill="none" stroke="black" points="175,-692.5 175,-728.5 303,-728.5 303,-692.5 175,-692.5"/>
<text text-anchor="start" x="183" y="-706.8" font-family="Times,serif" font-size="14.00">if (hFile == &#45;1):</text>
</g>
<!-- Node0xf558e70&#45;&gt;Node0xf55a690 -->
<g id="edge2" class="edge"><title>Node0xf558e70&#45;&gt;Node0xf55a690</title>
<path fill="none" stroke="black" d="M239,-766.401C239,-756.091 239,-746.778 239,-738.873"/>
<polygon fill="black" stroke="black" points="242.5,-738.678 239,-728.678 235.5,-738.678 242.5,-738.678"/>
</g>
<!-- Node0xf55abc0 -->
<g id="node4" class="node"><title>Node0xf55abc0</title>
<polygon fill="none" stroke="black" points="0,-470.5 0,-538.5 286,-538.5 286,-470.5 0,-470.5"/>
<text text-anchor="start" x="8" y="-523.3" font-family="Times,serif" font-size="14.00">v15 = v6</text>
<text text-anchor="start" x="8" y="-508.3" font-family="Times,serif" font-size="14.00"> result = &#45;1</text>
<text text-anchor="start" x="8" y="-493.3" font-family="Times,serif" font-size="14.00"> g9 = PtrToIntCastExpr&lt;int32&gt;(v15)</text>
<text text-anchor="start" x="8" y="-478.3" font-family="Times,serif" font-size="14.00"> return result</text>
</g>
<!-- Node0xf55a690&#45;&gt;Node0xf55abc0 -->
<g id="edge3" class="edge"><title>Node0xf55a690&#45;&gt;Node0xf55abc0</title>
<path fill="none" stroke="black" d="M220.389,-692.205C215.24,-686.744 209.98,-680.443 206,-674 181.575,-634.46 164.258,-583.953 154.039,-548.589"/>
<polygon fill="black" stroke="black" points="157.301,-547.26 151.221,-538.584 150.564,-549.158 157.301,-547.26"/>
<text text-anchor="middle" x="247.5" y="-662.8" font-family="Times,serif" font-size="14.00">hFile == &#45;1</text>
</g>
<!-- Node0xf55a9c0 -->
<g id="node5" class="node"><title>Node0xf55a9c0</title>
<polygon fill="none" stroke="black" points="270.5,-557.5 270.5,-640.5 511.5,-640.5 511.5,-557.5 270.5,-557.5"/>
<text text-anchor="start" x="278.5" y="-625.3" font-family="Times,serif" font-size="14.00">0x418ad4:</text>
<text text-anchor="start" x="278.5" y="-610.3" font-family="Times,serif" font-size="14.00"> v10 = hFile</text>
<text text-anchor="start" x="278.5" y="-595.3" font-family="Times,serif" font-size="14.00"> v3 = FlushFileBuffers(hFile)</text>
<text text-anchor="start" x="278.5" y="-580.3" font-family="Times,serif" font-size="14.00"> v2 = ExtCastExpr&lt;int32&gt;(v3)</text>
<text text-anchor="start" x="278.5" y="-565.3" font-family="Times,serif" font-size="14.00"> g10 = v1</text>
</g>
<!-- Node0xf55a690&#45;&gt;Node0xf55a9c0 -->
<g id="edge4" class="edge"><title>Node0xf55a690&#45;&gt;Node0xf55a9c0</title>
<path fill="none" stroke="black" d="M262.75,-692.391C279.854,-680.069 303.8,-662.818 326.376,-646.554"/>
<polygon fill="black" stroke="black" points="328.549,-649.303 334.617,-640.618 324.457,-643.624 328.549,-649.303"/>
<text text-anchor="middle" x="344.5" y="-662.8" font-family="Times,serif" font-size="14.00">hFile != &#45;1</text>
</g>
<!-- Node0xf558df0 -->
<g id="node6" class="node"><title>Node0xf558df0</title>
<polygon fill="none" stroke="black" points="176,-23.5 176,-59.5 230,-59.5 230,-23.5 176,-23.5"/>
<text text-anchor="start" x="184" y="-37.8" font-family="Times,serif" font-size="14.00">exit:</text>
</g>
<!-- Node0xf55abc0&#45;&gt;Node0xf558df0 -->
<g id="edge5" class="edge"><title>Node0xf55abc0&#45;&gt;Node0xf558df0</title>
<path fill="none" stroke="black" d="M135.936,-470.455C131.649,-447.562 127,-416.317 127,-388.5 127,-388.5 127,-388.5 127,-123 127,-97.2691 147.784,-76.4353 167.614,-62.4135"/>
<polygon fill="black" stroke="black" points="169.614,-65.2871 175.991,-56.8268 165.73,-59.4634 169.614,-65.2871"/>
</g>
<!-- Node0xf55aa20 -->
<g id="node7" class="node"><title>Node0xf55aa20</title>
<polygon fill="none" stroke="black" points="362.5,-413.5 362.5,-451.5 453.5,-451.5 453.5,-413.5 362.5,-413.5"/>
<text text-anchor="start" x="370.5" y="-436.3" font-family="Times,serif" font-size="14.00">if not (v3):</text>
<text text-anchor="start" x="370.5" y="-421.3" font-family="Times,serif" font-size="14.00"> else:</text>
</g>
<!-- Node0xf55a9c0&#45;&gt;Node0xf55aa20 -->
<g id="edge6" class="edge"><title>Node0xf55a9c0&#45;&gt;Node0xf55aa20</title>
<path fill="none" stroke="black" d="M395.202,-557.337C398.279,-527.568 402.374,-487.935 405.095,-461.612"/>
<polygon fill="black" stroke="black" points="408.588,-461.857 406.135,-451.55 401.625,-461.138 408.588,-461.857"/>
</g>
<!-- Node0xf55ae20 -->
<g id="node8" class="node"><title>Node0xf55ae20</title>
<polygon fill="none" stroke="black" points="155,-188.5 155,-361.5 661,-361.5 661,-188.5 155,-188.5"/>
<text text-anchor="start" x="163" y="-346.3" font-family="Times,serif" font-size="14.00">0x418adf:</text>
<text text-anchor="start" x="163" y="-331.3" font-family="Times,serif" font-size="14.00"> v17 = g9</text>
<text text-anchor="start" x="163" y="-316.3" font-family="Times,serif" font-size="14.00"> v18 = *(IntToPtrCastExpr&lt;ptr&gt;((v17 + 12)))</text>
<text text-anchor="start" x="163" y="-301.3" font-family="Times,serif" font-size="14.00"> v10 = v18</text>
<text text-anchor="start" x="163" y="-286.3" font-family="Times,serif" font-size="14.00"> errorCode = GetLastError()</text>
<text text-anchor="start" x="163" y="-271.3" font-family="Times,serif" font-size="14.00"> v5 = IntToPtrCastExpr&lt;ptr&gt;(errorCode)</text>
<text text-anchor="start" x="163" y="-256.3" font-family="Times,serif" font-size="14.00"> g10 = PtrToIntCastExpr&lt;int32&gt;(&amp;(v5))</text>
<text text-anchor="start" x="163" y="-241.3" font-family="Times,serif" font-size="14.00"> v4 = function_4195e2(IntToPtrCastExpr&lt;ptr&gt;(errorCode), &amp;(v10))</text>
<text text-anchor="start" x="163" y="-226.3" font-family="Times,serif" font-size="14.00"> v16 = v5</text>
<text text-anchor="start" x="163" y="-211.3" font-family="Times,serif" font-size="14.00"> v15 = v16</text>
<text text-anchor="start" x="163" y="-196.3" font-family="Times,serif" font-size="14.00"> result = v4</text>
</g>
<!-- Node0xf55aa20&#45;&gt;Node0xf55ae20 -->
<g id="edge7" class="edge"><title>Node0xf55aa20&#45;&gt;Node0xf55ae20</title>
<path fill="none" stroke="black" d="M408,-413.358C408,-402.411 408,-387.524 408,-371.579"/>
<polygon fill="black" stroke="black" points="411.5,-371.541 408,-361.541 404.5,-371.541 411.5,-371.541"/>
<text text-anchor="middle" x="436" y="-383.8" font-family="Times,serif" font-size="14.00">not (v3)</text>
</g>
<!-- Node0xf5590a0 -->
<g id="node9" class="node"><title>Node0xf5590a0</title>
<polygon fill="none" stroke="black" points="679.5,-256 679.5,-294 780.5,-294 780.5,-256 679.5,-256"/>
<text text-anchor="start" x="687.5" y="-278.8" font-family="Times,serif" font-size="14.00">v15 = v6</text>
<text text-anchor="start" x="687.5" y="-263.8" font-family="Times,serif" font-size="14.00"> result = v2</text>
</g>
<!-- Node0xf55aa20&#45;&gt;Node0xf5590a0 -->
<g id="edge8" class="edge"><title>Node0xf55aa20&#45;&gt;Node0xf5590a0</title>
<path fill="none" stroke="black" d="M453.664,-428.859C509.314,-423.643 604.063,-408.13 670,-362 691.056,-347.269 707.133,-322.637 717.321,-303.501"/>
<polygon fill="black" stroke="black" points="720.563,-304.848 721.976,-294.347 714.323,-301.675 720.563,-304.848"/>
<text text-anchor="middle" x="647" y="-383.8" font-family="Times,serif" font-size="14.00">v3</text>
</g>
<!-- Node0xf55ab60 -->
<g id="node10" class="node"><title>Node0xf55ab60</title>
<polygon fill="none" stroke="black" points="265,-97.5 265,-150.5 551,-150.5 551,-97.5 265,-97.5"/>
<text text-anchor="start" x="273" y="-135.3" font-family="Times,serif" font-size="14.00">0x418aee:</text>
<text text-anchor="start" x="273" y="-120.3" font-family="Times,serif" font-size="14.00"> g9 = PtrToIntCastExpr&lt;int32&gt;(v15)</text>
<text text-anchor="start" x="273" y="-105.3" font-family="Times,serif" font-size="14.00"> return result</text>
</g>
<!-- Node0xf55ae20&#45;&gt;Node0xf55ab60 -->
<g id="edge9" class="edge"><title>Node0xf55ae20&#45;&gt;Node0xf55ab60</title>
<path fill="none" stroke="black" d="M408,-188.189C408,-178.546 408,-169.162 408,-160.704"/>
<polygon fill="black" stroke="black" points="411.5,-160.535 408,-150.535 404.5,-160.535 411.5,-160.535"/>
</g>
<!-- Node0xf5590a0&#45;&gt;Node0xf55ab60 -->
<g id="edge10" class="edge"><title>Node0xf5590a0&#45;&gt;Node0xf55ab60</title>
<path fill="none" stroke="black" d="M722.223,-255.902C712.78,-236.138 694.962,-205.034 670,-188 637.897,-166.093 599.038,-151.77 561.19,-142.416"/>
<polygon fill="black" stroke="black" points="561.61,-138.919 551.073,-140.025 560,-145.731 561.61,-138.919"/>
</g>
<!-- Node0xf55ab60&#45;&gt;Node0xf558df0 -->
<g id="edge11" class="edge"><title>Node0xf55ab60&#45;&gt;Node0xf558df0</title>
<path fill="none" stroke="black" d="M342.855,-97.4187C308.771,-84.0343 268.302,-68.143 239.689,-56.9071"/>
<polygon fill="black" stroke="black" points="240.68,-53.536 230.092,-53.1387 238.121,-60.0517 240.68,-53.536"/>
</g>
</g>
</svg>
