<?xml version="1.0" encoding="UTF-8" standalone="no"?>
<!DOCTYPE svg PUBLIC "-//W3C//DTD SVG 1.1//EN"
 "http://www.w3.org/Graphics/SVG/1.1/DTD/svg11.dtd">
<!-- Generated by graphviz version 2.38.0 (20140413.2041)
 -->
<!-- Title: Control&#45;flow graph for function &#39;function_409e40(**a1, a2, a3)&#39;. Pages: 1 -->
<svg width="479pt" height="638pt"
 viewBox="0.00 0.00 479.00 638.00" xmlns="http://www.w3.org/2000/svg" xmlns:xlink="http://www.w3.org/1999/xlink">
<g id="graph0" class="graph" transform="scale(1 1) rotate(0) translate(4 634)">
<title>Control&#45;flow graph for function &#39;function_409e40(**a1, a2, a3)&#39;.</title>
<polygon fill="white" stroke="none" points="-4,4 -4,-634 475,-634 475,4 -4,4"/>
<text text-anchor="middle" x="235.5" y="-7.8" font-family="Times,serif" font-size="14.00">Control&#45;flow graph for function &#39;function_409e40(**a1, a2, a3)&#39;.</text>
<!-- Node0xef64ce0 -->
<g id="node1" class="node"><title>Node0xef64ce0</title>
<polygon fill="none" stroke="black" points="206,-561.5 206,-629.5 265,-629.5 265,-561.5 206,-561.5"/>
<text text-anchor="start" x="214" y="-614.3" font-family="Times,serif" font-size="14.00">entry:</text>
<text text-anchor="start" x="214" y="-599.3" font-family="Times,serif" font-size="14.00"> a1</text>
<text text-anchor="start" x="214" y="-584.3" font-family="Times,serif" font-size="14.00"> a2</text>
<text text-anchor="start" x="214" y="-569.3" font-family="Times,serif" font-size="14.00"> a3</text>
</g>
<!-- Node0xef64e20 -->
<g id="node2" class="node"><title>Node0xef64e20</title>
<polygon fill="none" stroke="black" points="85.5,-96.5 85.5,-524.5 385.5,-524.5 385.5,-96.5 85.5,-96.5"/>
<text text-anchor="start" x="93.5" y="-509.3" font-family="Times,serif" font-size="14.00">v1</text>
<text text-anchor="start" x="93.5" y="-494.3" font-family="Times,serif" font-size="14.00"> v2</text>
<text text-anchor="start" x="93.5" y="-479.3" font-family="Times,serif" font-size="14.00"> v3</text>
<text text-anchor="start" x="93.5" y="-464.3" font-family="Times,serif" font-size="14.00"> v4</text>
<text text-anchor="start" x="93.5" y="-449.3" font-family="Times,serif" font-size="14.00"> v5</text>
<text text-anchor="start" x="93.5" y="-434.3" font-family="Times,serif" font-size="14.00"> v6</text>
<text text-anchor="start" x="93.5" y="-419.3" font-family="Times,serif" font-size="14.00"> v7</text>
<text text-anchor="start" x="93.5" y="-404.3" font-family="Times,serif" font-size="14.00"> v8</text>
<text text-anchor="start" x="93.5" y="-389.3" font-family="Times,serif" font-size="14.00"> v9</text>
<text text-anchor="start" x="93.5" y="-374.3" font-family="Times,serif" font-size="14.00"> v10</text>
<text text-anchor="start" x="93.5" y="-359.3" font-family="Times,serif" font-size="14.00"> v11</text>
<text text-anchor="start" x="93.5" y="-344.3" font-family="Times,serif" font-size="14.00"> v12</text>
<text text-anchor="start" x="93.5" y="-329.3" font-family="Times,serif" font-size="14.00"> v13</text>
<text text-anchor="start" x="93.5" y="-314.3" font-family="Times,serif" font-size="14.00"> v14</text>
<text text-anchor="start" x="93.5" y="-299.3" font-family="Times,serif" font-size="14.00"> v15</text>
<text text-anchor="start" x="93.5" y="-284.3" font-family="Times,serif" font-size="14.00"> v16</text>
<text text-anchor="start" x="93.5" y="-269.3" font-family="Times,serif" font-size="14.00"> v17</text>
<text text-anchor="start" x="93.5" y="-254.3" font-family="Times,serif" font-size="14.00"> v18</text>
<text text-anchor="start" x="93.5" y="-239.3" font-family="Times,serif" font-size="14.00"> v19</text>
<text text-anchor="start" x="93.5" y="-224.3" font-family="Times,serif" font-size="14.00"> v20</text>
<text text-anchor="start" x="93.5" y="-209.3" font-family="Times,serif" font-size="14.00"> v21</text>
<text text-anchor="start" x="93.5" y="-194.3" font-family="Times,serif" font-size="14.00"> v22</text>
<text text-anchor="start" x="93.5" y="-179.3" font-family="Times,serif" font-size="14.00"> v23</text>
<text text-anchor="start" x="93.5" y="-164.3" font-family="Times,serif" font-size="14.00"> v24</text>
<text text-anchor="start" x="93.5" y="-149.3" font-family="Times,serif" font-size="14.00"> v7 = v10</text>
<text text-anchor="start" x="93.5" y="-134.3" font-family="Times,serif" font-size="14.00"> g3 = PtrToIntCastExpr&lt;int32&gt;(&amp;(v7))</text>
<text text-anchor="start" x="93.5" y="-119.3" font-family="Times,serif" font-size="14.00"> abort()</text>
<text text-anchor="start" x="93.5" y="-104.3" font-family="Times,serif" font-size="14.00"> # UNREACHABLE</text>
</g>
<!-- Node0xef64ce0&#45;&gt;Node0xef64e20 -->
<g id="edge1" class="edge"><title>Node0xef64ce0&#45;&gt;Node0xef64e20</title>
<path fill="none" stroke="black" d="M235.5,-561.482C235.5,-553.609 235.5,-544.616 235.5,-534.826"/>
<polygon fill="black" stroke="black" points="239,-534.783 235.5,-524.783 232,-534.783 239,-534.783"/>
</g>
<!-- Node0xef635d0 -->
<g id="node3" class="node"><title>Node0xef635d0</title>
<polygon fill="none" stroke="black" points="208.5,-23.5 208.5,-59.5 262.5,-59.5 262.5,-23.5 208.5,-23.5"/>
<text text-anchor="start" x="216.5" y="-37.8" font-family="Times,serif" font-size="14.00">exit:</text>
</g>
<!-- Node0xef64e20&#45;&gt;Node0xef635d0 -->
<g id="edge2" class="edge"><title>Node0xef64e20&#45;&gt;Node0xef635d0</title>
<path fill="none" stroke="black" d="M235.5,-96.2103C235.5,-86.4392 235.5,-77.5688 235.5,-69.9784"/>
<polygon fill="black" stroke="black" points="239,-69.8177 235.5,-59.8177 232,-69.8177 239,-69.8177"/>
</g>
</g>
</svg>
