<?xml version="1.0" encoding="UTF-8" standalone="no"?>
<!DOCTYPE svg PUBLIC "-//W3C//DTD SVG 1.1//EN"
 "http://www.w3.org/Graphics/SVG/1.1/DTD/svg11.dtd">
<!-- Generated by graphviz version 2.38.0 (20140413.2041)
 -->
<!-- Title: Control&#45;flow graph for function &#39;function_4141f2(*a1, a2)&#39;. Pages: 1 -->
<svg width="669pt" height="1609pt"
 viewBox="0.00 0.00 669.00 1609.00" xmlns="http://www.w3.org/2000/svg" xmlns:xlink="http://www.w3.org/1999/xlink">
<g id="graph0" class="graph" transform="scale(1 1) rotate(0) translate(4 1605)">
<title>Control&#45;flow graph for function &#39;function_4141f2(*a1, a2)&#39;.</title>
<polygon fill="white" stroke="none" points="-4,4 -4,-1605 665,-1605 665,4 -4,4"/>
<text text-anchor="middle" x="330.5" y="-7.8" font-family="Times,serif" font-size="14.00">Control&#45;flow graph for function &#39;function_4141f2(*a1, a2)&#39;.</text>
<!-- Node0xf383110 -->
<g id="node1" class="node"><title>Node0xf383110</title>
<polygon fill="none" stroke="black" points="220,-1547.5 220,-1600.5 279,-1600.5 279,-1547.5 220,-1547.5"/>
<text text-anchor="start" x="228" y="-1585.3" font-family="Times,serif" font-size="14.00">entry:</text>
<text text-anchor="start" x="228" y="-1570.3" font-family="Times,serif" font-size="14.00"> a1</text>
<text text-anchor="start" x="228" y="-1555.3" font-family="Times,serif" font-size="14.00"> a2</text>
</g>
<!-- Node0xf36cbc0 -->
<g id="node2" class="node"><title>Node0xf36cbc0</title>
<polygon fill="none" stroke="black" points="72,-916.5 72,-1509.5 427,-1509.5 427,-916.5 72,-916.5"/>
<text text-anchor="start" x="80" y="-1494.3" font-family="Times,serif" font-size="14.00">v1</text>
<text text-anchor="start" x="80" y="-1479.3" font-family="Times,serif" font-size="14.00"> v2</text>
<text text-anchor="start" x="80" y="-1464.3" font-family="Times,serif" font-size="14.00"> v3</text>
<text text-anchor="start" x="80" y="-1449.3" font-family="Times,serif" font-size="14.00"> v4</text>
<text text-anchor="start" x="80" y="-1434.3" font-family="Times,serif" font-size="14.00"> v5</text>
<text text-anchor="start" x="80" y="-1419.3" font-family="Times,serif" font-size="14.00"> v6</text>
<text text-anchor="start" x="80" y="-1404.3" font-family="Times,serif" font-size="14.00"> v7</text>
<text text-anchor="start" x="80" y="-1389.3" font-family="Times,serif" font-size="14.00"> v8</text>
<text text-anchor="start" x="80" y="-1374.3" font-family="Times,serif" font-size="14.00"> v9</text>
<text text-anchor="start" x="80" y="-1359.3" font-family="Times,serif" font-size="14.00"> v10</text>
<text text-anchor="start" x="80" y="-1344.3" font-family="Times,serif" font-size="14.00"> v11</text>
<text text-anchor="start" x="80" y="-1329.3" font-family="Times,serif" font-size="14.00"> v12</text>
<text text-anchor="start" x="80" y="-1314.3" font-family="Times,serif" font-size="14.00"> v13</text>
<text text-anchor="start" x="80" y="-1299.3" font-family="Times,serif" font-size="14.00"> v14</text>
<text text-anchor="start" x="80" y="-1284.3" font-family="Times,serif" font-size="14.00"> v15</text>
<text text-anchor="start" x="80" y="-1269.3" font-family="Times,serif" font-size="14.00"> v16</text>
<text text-anchor="start" x="80" y="-1254.3" font-family="Times,serif" font-size="14.00"> v17</text>
<text text-anchor="start" x="80" y="-1239.3" font-family="Times,serif" font-size="14.00"> v18</text>
<text text-anchor="start" x="80" y="-1224.3" font-family="Times,serif" font-size="14.00"> v19</text>
<text text-anchor="start" x="80" y="-1209.3" font-family="Times,serif" font-size="14.00"> v20</text>
<text text-anchor="start" x="80" y="-1194.3" font-family="Times,serif" font-size="14.00"> v21</text>
<text text-anchor="start" x="80" y="-1179.3" font-family="Times,serif" font-size="14.00"> v22</text>
<text text-anchor="start" x="80" y="-1164.3" font-family="Times,serif" font-size="14.00"> v23</text>
<text text-anchor="start" x="80" y="-1149.3" font-family="Times,serif" font-size="14.00"> v24</text>
<text text-anchor="start" x="80" y="-1134.3" font-family="Times,serif" font-size="14.00"> v25</text>
<text text-anchor="start" x="80" y="-1119.3" font-family="Times,serif" font-size="14.00"> v26</text>
<text text-anchor="start" x="80" y="-1104.3" font-family="Times,serif" font-size="14.00"> v27</text>
<text text-anchor="start" x="80" y="-1089.3" font-family="Times,serif" font-size="14.00"> v5 = v6</text>
<text text-anchor="start" x="80" y="-1074.3" font-family="Times,serif" font-size="14.00"> v9 = v10</text>
<text text-anchor="start" x="80" y="-1059.3" font-family="Times,serif" font-size="14.00"> v11 = v12</text>
<text text-anchor="start" x="80" y="-1044.3" font-family="Times,serif" font-size="14.00"> v11 = a1</text>
<text text-anchor="start" x="80" y="-1029.3" font-family="Times,serif" font-size="14.00"> v15 = g5</text>
<text text-anchor="start" x="80" y="-1014.3" font-family="Times,serif" font-size="14.00"> g9 = v15</text>
<text text-anchor="start" x="80" y="-999.3" font-family="Times,serif" font-size="14.00"> v22 = *(IntToPtrCastExpr&lt;ptr&gt;((v15 + 104)))</text>
<text text-anchor="start" x="80" y="-984.3" font-family="Times,serif" font-size="14.00"> v1 = IntToPtrCastExpr&lt;ptr&gt;(v22)</text>
<text text-anchor="start" x="80" y="-969.3" font-family="Times,serif" font-size="14.00"> v16 = g7</text>
<text text-anchor="start" x="80" y="-954.3" font-family="Times,serif" font-size="14.00"> v9 = v16</text>
<text text-anchor="start" x="80" y="-939.3" font-family="Times,serif" font-size="14.00"> v23 = PtrToIntCastExpr&lt;int32&gt;(a1)</text>
<text text-anchor="start" x="80" y="-924.3" font-family="Times,serif" font-size="14.00"> g7 = v23</text>
</g>
<!-- Node0xf383110&#45;&gt;Node0xf36cbc0 -->
<g id="edge1" class="edge"><title>Node0xf383110&#45;&gt;Node0xf36cbc0</title>
<path fill="none" stroke="black" d="M249.5,-1547.47C249.5,-1539.62 249.5,-1530.22 249.5,-1519.63"/>
<polygon fill="black" stroke="black" points="253,-1519.59 249.5,-1509.59 246,-1519.59 253,-1519.59"/>
</g>
<!-- Node0xf383a50 -->
<g id="node3" class="node"><title>Node0xf383a50</title>
<polygon fill="none" stroke="black" points="192.5,-842.5 192.5,-878.5 306.5,-878.5 306.5,-842.5 192.5,-842.5"/>
<text text-anchor="start" x="200.5" y="-856.8" font-family="Times,serif" font-size="14.00">if (v22 == 0):</text>
</g>
<!-- Node0xf36cbc0&#45;&gt;Node0xf383a50 -->
<g id="edge2" class="edge"><title>Node0xf36cbc0&#45;&gt;Node0xf383a50</title>
<path fill="none" stroke="black" d="M249.5,-916.266C249.5,-905.971 249.5,-896.751 249.5,-888.944"/>
<polygon fill="black" stroke="black" points="253,-888.881 249.5,-878.881 246,-888.881 253,-888.881"/>
</g>
<!-- Node0x81acf70 -->
<g id="node4" class="node"><title>Node0x81acf70</title>
<polygon fill="none" stroke="black" points="0,-575.5 0,-718.5 355,-718.5 355,-575.5 0,-575.5"/>
<text text-anchor="start" x="8" y="-703.3" font-family="Times,serif" font-size="14.00">v25 = v23</text>
<text text-anchor="start" x="8" y="-688.3" font-family="Times,serif" font-size="14.00"> v20 = v15</text>
<text text-anchor="start" x="8" y="-673.3" font-family="Times,serif" font-size="14.00"> v4 = v1</text>
<text text-anchor="start" x="8" y="-658.3" font-family="Times,serif" font-size="14.00"> *(IntToPtrCastExpr&lt;ptr&gt;((v20 + 104))) = v25</text>
<text text-anchor="start" x="8" y="-643.3" font-family="Times,serif" font-size="14.00"> v18 = v5</text>
<text text-anchor="start" x="8" y="-628.3" font-family="Times,serif" font-size="14.00"> g7 = PtrToIntCastExpr&lt;int32&gt;(v18)</text>
<text text-anchor="start" x="8" y="-613.3" font-family="Times,serif" font-size="14.00"> v19 = v9</text>
<text text-anchor="start" x="8" y="-598.3" font-family="Times,serif" font-size="14.00"> g9 = v19</text>
<text text-anchor="start" x="8" y="-583.3" font-family="Times,serif" font-size="14.00"> return PtrToIntCastExpr&lt;int32&gt;(v4)</text>
</g>
<!-- Node0xf383a50&#45;&gt;Node0x81acf70 -->
<g id="edge3" class="edge"><title>Node0xf383a50&#45;&gt;Node0x81acf70</title>
<path fill="none" stroke="black" d="M230.922,-842.44C225.915,-836.985 220.939,-830.629 217.5,-824 202.267,-794.635 192.795,-759.557 186.923,-728.473"/>
<polygon fill="black" stroke="black" points="190.351,-727.758 185.141,-718.533 183.461,-728.994 190.351,-727.758"/>
<text text-anchor="middle" x="252" y="-812.8" font-family="Times,serif" font-size="14.00">v22 == 0</text>
</g>
<!-- Node0xf383dd0 -->
<g id="node5" class="node"><title>Node0xf383dd0</title>
<polygon fill="none" stroke="black" points="269.5,-737.5 269.5,-790.5 443.5,-790.5 443.5,-737.5 269.5,-737.5"/>
<text text-anchor="start" x="277.5" y="-775.3" font-family="Times,serif" font-size="14.00">0x414201:</text>
<text text-anchor="start" x="277.5" y="-760.3" font-family="Times,serif" font-size="14.00"> g1 = (v22 &lt; v23)</text>
<text text-anchor="start" x="277.5" y="-745.3" font-family="Times,serif" font-size="14.00"> g207 = (v22 == v23)</text>
</g>
<!-- Node0xf383a50&#45;&gt;Node0xf383dd0 -->
<g id="edge4" class="edge"><title>Node0xf383a50&#45;&gt;Node0xf383dd0</title>
<path fill="none" stroke="black" d="M269.125,-842.167C283.252,-829.691 302.73,-812.488 319.712,-797.49"/>
<polygon fill="black" stroke="black" points="322.132,-800.023 327.31,-790.78 317.498,-794.776 322.132,-800.023"/>
<text text-anchor="middle" x="338" y="-812.8" font-family="Times,serif" font-size="14.00">v22 != 0</text>
</g>
<!-- Node0xf382f50 -->
<g id="node6" class="node"><title>Node0xf382f50</title>
<polygon fill="none" stroke="black" points="203.5,-23.5 203.5,-59.5 257.5,-59.5 257.5,-23.5 203.5,-23.5"/>
<text text-anchor="start" x="211.5" y="-37.8" font-family="Times,serif" font-size="14.00">exit:</text>
</g>
<!-- Node0x81acf70&#45;&gt;Node0xf382f50 -->
<g id="edge5" class="edge"><title>Node0x81acf70&#45;&gt;Node0xf382f50</title>
<path fill="none" stroke="black" d="M174.877,-575.401C174.123,-549.63 173.5,-520.25 173.5,-493.5 173.5,-493.5 173.5,-493.5 173.5,-153 173.5,-120.985 192.632,-88.9774 208.727,-67.7138"/>
<polygon fill="black" stroke="black" points="211.49,-69.862 214.924,-59.8391 205.99,-65.5329 211.49,-69.862"/>
</g>
<!-- Node0xf3840e0 -->
<g id="node7" class="node"><title>Node0xf3840e0</title>
<polygon fill="none" stroke="black" points="312,-518.5 312,-556.5 437,-556.5 437,-518.5 312,-518.5"/>
<text text-anchor="start" x="320" y="-541.3" font-family="Times,serif" font-size="14.00">if (v22 != v23):</text>
<text text-anchor="start" x="320" y="-526.3" font-family="Times,serif" font-size="14.00"> else:</text>
</g>
<!-- Node0xf383dd0&#45;&gt;Node0xf3840e0 -->
<g id="edge6" class="edge"><title>Node0xf383dd0&#45;&gt;Node0xf3840e0</title>
<path fill="none" stroke="black" d="M358.565,-737.247C361.969,-694.793 368.731,-610.455 372.251,-566.545"/>
<polygon fill="black" stroke="black" points="375.742,-566.802 373.052,-556.554 368.764,-566.243 375.742,-566.802"/>
</g>
<!-- Node0xf384140 -->
<g id="node8" class="node"><title>Node0xf384140</title>
<polygon fill="none" stroke="black" points="201.5,-248.5 201.5,-466.5 547.5,-466.5 547.5,-248.5 201.5,-248.5"/>
<text text-anchor="start" x="209.5" y="-451.3" font-family="Times,serif" font-size="14.00">0x414205:</text>
<text text-anchor="start" x="209.5" y="-436.3" font-family="Times,serif" font-size="14.00"> v24 = *(IntToPtrCastExpr&lt;ptr&gt;((v22 + 84)))</text>
<text text-anchor="start" x="209.5" y="-421.3" font-family="Times,serif" font-size="14.00"> v2 = IntToPtrCastExpr&lt;ptr&gt;(v24)</text>
<text text-anchor="start" x="209.5" y="-406.3" font-family="Times,serif" font-size="14.00"> v17 = *(IntToPtrCastExpr&lt;ptr&gt;(v24))</text>
<text text-anchor="start" x="209.5" y="-391.3" font-family="Times,serif" font-size="14.00"> g5 = v17</text>
<text text-anchor="start" x="209.5" y="-376.3" font-family="Times,serif" font-size="14.00"> v5 = v2</text>
<text text-anchor="start" x="209.5" y="-361.3" font-family="Times,serif" font-size="14.00"> g10 = PtrToIntCastExpr&lt;int32&gt;(&amp;(v5))</text>
<text text-anchor="start" x="209.5" y="-346.3" font-family="Times,serif" font-size="14.00"> v27 = *(IntToPtrCastExpr&lt;ptr&gt;((v17 + 24)))</text>
<text text-anchor="start" x="209.5" y="-331.3" font-family="Times,serif" font-size="14.00"> IntToPtrCastExpr&lt;ptr&gt;(v27)(v24)</text>
<text text-anchor="start" x="209.5" y="-316.3" font-family="Times,serif" font-size="14.00"> v21 = g9</text>
<text text-anchor="start" x="209.5" y="-301.3" font-family="Times,serif" font-size="14.00"> v26 = g7</text>
<text text-anchor="start" x="209.5" y="-286.3" font-family="Times,serif" font-size="14.00"> v25 = v26</text>
<text text-anchor="start" x="209.5" y="-271.3" font-family="Times,serif" font-size="14.00"> v20 = v21</text>
<text text-anchor="start" x="209.5" y="-256.3" font-family="Times,serif" font-size="14.00"> v4 = v2</text>
</g>
<!-- Node0xf3840e0&#45;&gt;Node0xf384140 -->
<g id="edge7" class="edge"><title>Node0xf3840e0&#45;&gt;Node0xf384140</title>
<path fill="none" stroke="black" d="M374.5,-518.453C374.5,-507.693 374.5,-493.008 374.5,-476.872"/>
<polygon fill="black" stroke="black" points="378,-476.66 374.5,-466.66 371,-476.66 378,-476.66"/>
<text text-anchor="middle" x="414.5" y="-488.8" font-family="Times,serif" font-size="14.00">v22 != v23</text>
</g>
<!-- Node0xf383e30 -->
<g id="node9" class="node"><title>Node0xf383e30</title>
<polygon fill="none" stroke="black" points="566,-331 566,-384 661,-384 661,-331 566,-331"/>
<text text-anchor="start" x="574" y="-368.8" font-family="Times,serif" font-size="14.00">v25 = v22</text>
<text text-anchor="start" x="574" y="-353.8" font-family="Times,serif" font-size="14.00"> v20 = v15</text>
<text text-anchor="start" x="574" y="-338.8" font-family="Times,serif" font-size="14.00"> v4 = v1</text>
</g>
<!-- Node0xf3840e0&#45;&gt;Node0xf383e30 -->
<g id="edge8" class="edge"><title>Node0xf3840e0&#45;&gt;Node0xf383e30</title>
<path fill="none" stroke="black" d="M437.302,-524.353C475.406,-514.322 522.984,-496.75 556.5,-467 578.5,-447.472 593.362,-417.393 602.379,-393.853"/>
<polygon fill="black" stroke="black" points="605.756,-394.809 605.89,-384.215 599.179,-392.414 605.756,-394.809"/>
<text text-anchor="middle" x="573.5" y="-488.8" font-family="Times,serif" font-size="14.00">v22 == v23</text>
</g>
<!-- Node0xf383fc0 -->
<g id="node10" class="node"><title>Node0xf383fc0</title>
<polygon fill="none" stroke="black" points="202,-97.5 202,-210.5 557,-210.5 557,-97.5 202,-97.5"/>
<text text-anchor="start" x="210" y="-195.3" font-family="Times,serif" font-size="14.00">0x41420e:</text>
<text text-anchor="start" x="210" y="-180.3" font-family="Times,serif" font-size="14.00"> *(IntToPtrCastExpr&lt;ptr&gt;((v20 + 104))) = v25</text>
<text text-anchor="start" x="210" y="-165.3" font-family="Times,serif" font-size="14.00"> v18 = v5</text>
<text text-anchor="start" x="210" y="-150.3" font-family="Times,serif" font-size="14.00"> g7 = PtrToIntCastExpr&lt;int32&gt;(v18)</text>
<text text-anchor="start" x="210" y="-135.3" font-family="Times,serif" font-size="14.00"> v19 = v9</text>
<text text-anchor="start" x="210" y="-120.3" font-family="Times,serif" font-size="14.00"> g9 = v19</text>
<text text-anchor="start" x="210" y="-105.3" font-family="Times,serif" font-size="14.00"> return PtrToIntCastExpr&lt;int32&gt;(v4)</text>
</g>
<!-- Node0xf384140&#45;&gt;Node0xf383fc0 -->
<g id="edge9" class="edge"><title>Node0xf384140&#45;&gt;Node0xf383fc0</title>
<path fill="none" stroke="black" d="M377.183,-248.377C377.416,-238.982 377.647,-229.674 377.868,-220.78"/>
<polygon fill="black" stroke="black" points="381.372,-220.634 378.122,-210.55 374.374,-220.46 381.372,-220.634"/>
</g>
<!-- Node0xf383e30&#45;&gt;Node0xf383fc0 -->
<g id="edge10" class="edge"><title>Node0xf383e30&#45;&gt;Node0xf383fc0</title>
<path fill="none" stroke="black" d="M605.118,-330.969C596.208,-307.079 580.121,-271.623 556.5,-248 544.702,-236.201 531.095,-225.555 516.773,-216.044"/>
<polygon fill="black" stroke="black" points="518.571,-213.039 508.267,-210.575 514.786,-218.927 518.571,-213.039"/>
</g>
<!-- Node0xf383fc0&#45;&gt;Node0xf382f50 -->
<g id="edge11" class="edge"><title>Node0xf383fc0&#45;&gt;Node0xf382f50</title>
<path fill="none" stroke="black" d="M304.563,-97.4263C289.49,-86.2476 274.44,-75.0866 261.883,-65.7739"/>
<polygon fill="black" stroke="black" points="263.735,-62.7899 253.618,-59.6444 259.565,-68.4125 263.735,-62.7899"/>
</g>
</g>
</svg>
