<?xml version="1.0" encoding="UTF-8" standalone="no"?>
<!DOCTYPE svg PUBLIC "-//W3C//DTD SVG 1.1//EN"
 "http://www.w3.org/Graphics/SVG/1.1/DTD/svg11.dtd">
<!-- Generated by graphviz version 2.38.0 (20140413.2041)
 -->
<!-- Title: Control&#45;flow graph for function &#39;function_417643(a1)&#39;. Pages: 1 -->
<svg width="596pt" height="503pt"
 viewBox="0.00 0.00 596.00 503.00" xmlns="http://www.w3.org/2000/svg" xmlns:xlink="http://www.w3.org/1999/xlink">
<g id="graph0" class="graph" transform="scale(1 1) rotate(0) translate(4 499)">
<title>Control&#45;flow graph for function &#39;function_417643(a1)&#39;.</title>
<polygon fill="white" stroke="none" points="-4,4 -4,-499 592,-499 592,4 -4,4"/>
<text text-anchor="middle" x="294" y="-7.8" font-family="Times,serif" font-size="14.00">Control&#45;flow graph for function &#39;function_417643(a1)&#39;.</text>
<!-- Node0xf4b1590 -->
<g id="node1" class="node"><title>Node0xf4b1590</title>
<polygon fill="none" stroke="black" points="264.5,-456.5 264.5,-494.5 323.5,-494.5 323.5,-456.5 264.5,-456.5"/>
<text text-anchor="start" x="272.5" y="-479.3" font-family="Times,serif" font-size="14.00">entry:</text>
<text text-anchor="start" x="272.5" y="-464.3" font-family="Times,serif" font-size="14.00"> a1</text>
</g>
<!-- Node0xf4a7b80 -->
<g id="node2" class="node"><title>Node0xf4a7b80</title>
<polygon fill="none" stroke="black" points="0,-96.5 0,-419.5 588,-419.5 588,-96.5 0,-96.5"/>
<text text-anchor="start" x="8" y="-404.3" font-family="Times,serif" font-size="14.00">v1</text>
<text text-anchor="start" x="8" y="-389.3" font-family="Times,serif" font-size="14.00"> v2</text>
<text text-anchor="start" x="8" y="-374.3" font-family="Times,serif" font-size="14.00"> v3</text>
<text text-anchor="start" x="8" y="-359.3" font-family="Times,serif" font-size="14.00"> v4</text>
<text text-anchor="start" x="8" y="-344.3" font-family="Times,serif" font-size="14.00"> v5</text>
<text text-anchor="start" x="8" y="-329.3" font-family="Times,serif" font-size="14.00"> v6</text>
<text text-anchor="start" x="8" y="-314.3" font-family="Times,serif" font-size="14.00"> v7</text>
<text text-anchor="start" x="8" y="-299.3" font-family="Times,serif" font-size="14.00"> v8</text>
<text text-anchor="start" x="8" y="-284.3" font-family="Times,serif" font-size="14.00"> v9</text>
<text text-anchor="start" x="8" y="-269.3" font-family="Times,serif" font-size="14.00"> result</text>
<text text-anchor="start" x="8" y="-254.3" font-family="Times,serif" font-size="14.00"> v10</text>
<text text-anchor="start" x="8" y="-239.3" font-family="Times,serif" font-size="14.00"> v8 = g5</text>
<text text-anchor="start" x="8" y="-224.3" font-family="Times,serif" font-size="14.00"> g9 = v8</text>
<text text-anchor="start" x="8" y="-209.3" font-family="Times,serif" font-size="14.00"> function_4178cb()</text>
<text text-anchor="start" x="8" y="-194.3" font-family="Times,serif" font-size="14.00"> v10 = g9</text>
<text text-anchor="start" x="8" y="-179.3" font-family="Times,serif" font-size="14.00"> *(IntToPtrCastExpr&lt;ptr&gt;((v10 + 8))) = 0</text>
<text text-anchor="start" x="8" y="-164.3" font-family="Times,serif" font-size="14.00"> v9 = g9</text>
<text text-anchor="start" x="8" y="-149.3" font-family="Times,serif" font-size="14.00"> *(IntToPtrCastExpr&lt;ptr&gt;(v9)) = PtrToIntCastExpr&lt;int32&gt;(&amp;(vtable_457ec0))</text>
<text text-anchor="start" x="8" y="-134.3" font-family="Times,serif" font-size="14.00"> result = g9</text>
<text text-anchor="start" x="8" y="-119.3" font-family="Times,serif" font-size="14.00"> g9 = v4</text>
<text text-anchor="start" x="8" y="-104.3" font-family="Times,serif" font-size="14.00"> return result</text>
</g>
<!-- Node0xf4b1590&#45;&gt;Node0xf4a7b80 -->
<g id="edge1" class="edge"><title>Node0xf4b1590&#45;&gt;Node0xf4a7b80</title>
<path fill="none" stroke="black" d="M294,-456.497C294,-449.291 294,-440.267 294,-430.071"/>
<polygon fill="black" stroke="black" points="297.5,-429.957 294,-419.957 290.5,-429.957 297.5,-429.957"/>
</g>
<!-- Node0xf4bd050 -->
<g id="node3" class="node"><title>Node0xf4bd050</title>
<polygon fill="none" stroke="black" points="267,-23.5 267,-59.5 321,-59.5 321,-23.5 267,-23.5"/>
<text text-anchor="start" x="275" y="-37.8" font-family="Times,serif" font-size="14.00">exit:</text>
</g>
<!-- Node0xf4a7b80&#45;&gt;Node0xf4bd050 -->
<g id="edge2" class="edge"><title>Node0xf4a7b80&#45;&gt;Node0xf4bd050</title>
<path fill="none" stroke="black" d="M294,-96.3505C294,-86.5078 294,-77.4706 294,-69.7249"/>
<polygon fill="black" stroke="black" points="297.5,-69.6852 294,-59.6852 290.5,-69.6852 297.5,-69.6852"/>
</g>
</g>
</svg>
