<?xml version="1.0" encoding="UTF-8" standalone="no"?>
<!DOCTYPE svg PUBLIC "-//W3C//DTD SVG 1.1//EN"
 "http://www.w3.org/Graphics/SVG/1.1/DTD/svg11.dtd">
<!-- Generated by graphviz version 2.38.0 (20140413.2041)
 -->
<!-- Title: Control&#45;flow graph for function &#39;function_426289(*a1, *a2, *a3, a4)&#39;. Pages: 1 -->
<svg width="945pt" height="745pt"
 viewBox="0.00 0.00 945.00 745.00" xmlns="http://www.w3.org/2000/svg" xmlns:xlink="http://www.w3.org/1999/xlink">
<g id="graph0" class="graph" transform="scale(1 1) rotate(0) translate(4 741)">
<title>Control&#45;flow graph for function &#39;function_426289(*a1, *a2, *a3, a4)&#39;.</title>
<polygon fill="white" stroke="none" points="-4,4 -4,-741 941,-741 941,4 -4,4"/>
<text text-anchor="middle" x="468.5" y="-7.8" font-family="Times,serif" font-size="14.00">Control&#45;flow graph for function &#39;function_426289(*a1, *a2, *a3, a4)&#39;.</text>
<!-- Node0xfd6bc50 -->
<g id="node1" class="node"><title>Node0xfd6bc50</title>
<polygon fill="none" stroke="black" points="416,-653.5 416,-736.5 475,-736.5 475,-653.5 416,-653.5"/>
<text text-anchor="start" x="424" y="-721.3" font-family="Times,serif" font-size="14.00">entry:</text>
<text text-anchor="start" x="424" y="-706.3" font-family="Times,serif" font-size="14.00"> a1</text>
<text text-anchor="start" x="424" y="-691.3" font-family="Times,serif" font-size="14.00"> a2</text>
<text text-anchor="start" x="424" y="-676.3" font-family="Times,serif" font-size="14.00"> a3</text>
<text text-anchor="start" x="424" y="-661.3" font-family="Times,serif" font-size="14.00"> a4</text>
</g>
<!-- Node0xfd6d390 -->
<g id="node2" class="node"><title>Node0xfd6d390</title>
<polygon fill="none" stroke="black" points="307,-397.5 307,-615.5 584,-615.5 584,-397.5 307,-397.5"/>
<text text-anchor="start" x="315" y="-600.3" font-family="Times,serif" font-size="14.00">v1</text>
<text text-anchor="start" x="315" y="-585.3" font-family="Times,serif" font-size="14.00"> v2</text>
<text text-anchor="start" x="315" y="-570.3" font-family="Times,serif" font-size="14.00"> v3</text>
<text text-anchor="start" x="315" y="-555.3" font-family="Times,serif" font-size="14.00"> v4</text>
<text text-anchor="start" x="315" y="-540.3" font-family="Times,serif" font-size="14.00"> v5</text>
<text text-anchor="start" x="315" y="-525.3" font-family="Times,serif" font-size="14.00"> v6</text>
<text text-anchor="start" x="315" y="-510.3" font-family="Times,serif" font-size="14.00"> v7</text>
<text text-anchor="start" x="315" y="-495.3" font-family="Times,serif" font-size="14.00"> v8</text>
<text text-anchor="start" x="315" y="-480.3" font-family="Times,serif" font-size="14.00"> v9</text>
<text text-anchor="start" x="315" y="-465.3" font-family="Times,serif" font-size="14.00"> v10</text>
<text text-anchor="start" x="315" y="-450.3" font-family="Times,serif" font-size="14.00"> v11</text>
<text text-anchor="start" x="315" y="-435.3" font-family="Times,serif" font-size="14.00"> v12</text>
<text text-anchor="start" x="315" y="-420.3" font-family="Times,serif" font-size="14.00"> v13</text>
<text text-anchor="start" x="315" y="-405.3" font-family="Times,serif" font-size="14.00"> g2 = PtrToIntCastExpr&lt;int32&gt;(a3)</text>
</g>
<!-- Node0xfd6bc50&#45;&gt;Node0xfd6d390 -->
<g id="edge1" class="edge"><title>Node0xfd6bc50&#45;&gt;Node0xfd6d390</title>
<path fill="none" stroke="black" d="M445.5,-653.072C445.5,-644.716 445.5,-635.531 445.5,-625.963"/>
<polygon fill="black" stroke="black" points="449,-625.873 445.5,-615.873 442,-625.873 449,-625.873"/>
</g>
<!-- Node0xfcddc00 -->
<g id="node3" class="node"><title>Node0xfcddc00</title>
<polygon fill="none" stroke="black" points="378.5,-323.5 378.5,-359.5 512.5,-359.5 512.5,-323.5 378.5,-323.5"/>
<text text-anchor="start" x="386.5" y="-337.8" font-family="Times,serif" font-size="14.00">if (a3 != NULL):</text>
</g>
<!-- Node0xfd6d390&#45;&gt;Node0xfcddc00 -->
<g id="edge2" class="edge"><title>Node0xfd6d390&#45;&gt;Node0xfcddc00</title>
<path fill="none" stroke="black" d="M445.5,-397.23C445.5,-387.204 445.5,-377.787 445.5,-369.684"/>
<polygon fill="black" stroke="black" points="449,-369.516 445.5,-359.516 442,-369.516 449,-369.516"/>
</g>
<!-- Node0xfd6d4b0 -->
<g id="node4" class="node"><title>Node0xfd6d4b0</title>
<polygon fill="none" stroke="black" points="359.5,-233.5 359.5,-271.5 451.5,-271.5 451.5,-233.5 359.5,-233.5"/>
<text text-anchor="start" x="367.5" y="-256.3" font-family="Times,serif" font-size="14.00">0x426291:</text>
<text text-anchor="start" x="367.5" y="-241.3" font-family="Times,serif" font-size="14.00"> *(a3) = 0</text>
</g>
<!-- Node0xfcddc00&#45;&gt;Node0xfd6d4b0 -->
<g id="edge3" class="edge"><title>Node0xfcddc00&#45;&gt;Node0xfd6d4b0</title>
<path fill="none" stroke="black" d="M411.866,-323.386C405.283,-318.397 399.261,-312.284 395.5,-305 391.798,-297.83 391.855,-289.455 393.514,-281.568"/>
<polygon fill="black" stroke="black" points="396.875,-282.545 396.309,-271.965 390.154,-280.589 396.875,-282.545"/>
<text text-anchor="middle" x="439.5" y="-293.8" font-family="Times,serif" font-size="14.00">a3 != NULL</text>
</g>
<!-- Node0xfd6d680 -->
<g id="node5" class="node"><title>Node0xfd6d680</title>
<polygon fill="none" stroke="black" points="-5.68434e-14,-97.5 -5.68434e-14,-195.5 937,-195.5 937,-97.5 -5.68434e-14,-97.5"/>
<text text-anchor="start" x="8" y="-180.3" font-family="Times,serif" font-size="14.00">0x426294:</text>
<text text-anchor="start" x="8" y="-165.3" font-family="Times,serif" font-size="14.00"> v12 = g5</text>
<text text-anchor="start" x="8" y="-150.3" font-family="Times,serif" font-size="14.00"> v13 = *(IntToPtrCastExpr&lt;ptr&gt;((v12 + 12)))</text>
<text text-anchor="start" x="8" y="-135.3" font-family="Times,serif" font-size="14.00"> function_411b05(BitCastExpr&lt;ptr&gt;(a1), BitCastExpr&lt;ptr&gt;(a2), IntToPtrCastExpr&lt;ptr&gt;(v13), IntToPtrCastExpr&lt;ptr&gt;(&#45;1), v7)</text>
<text text-anchor="start" x="8" y="-120.3" font-family="Times,serif" font-size="14.00"> g2 = 0</text>
<text text-anchor="start" x="8" y="-105.3" font-family="Times,serif" font-size="14.00"> return 1</text>
</g>
<!-- Node0xfcddc00&#45;&gt;Node0xfd6d680 -->
<g id="edge4" class="edge"><title>Node0xfcddc00&#45;&gt;Node0xfd6d680</title>
<path fill="none" stroke="black" d="M469.82,-323.378C475.349,-318.169 480.479,-311.956 483.5,-305 496.967,-273.989 494.017,-236.389 487.322,-205.705"/>
<polygon fill="black" stroke="black" points="490.636,-204.508 484.927,-195.583 483.824,-206.121 490.636,-204.508"/>
<text text-anchor="middle" x="539.5" y="-248.8" font-family="Times,serif" font-size="14.00">a3 == NULL</text>
</g>
<!-- Node0xfd6d4b0&#45;&gt;Node0xfd6d680 -->
<g id="edge5" class="edge"><title>Node0xfd6d4b0&#45;&gt;Node0xfd6d680</title>
<path fill="none" stroke="black" d="M416.474,-233.385C421.431,-225.201 427.59,-215.033 433.917,-204.59"/>
<polygon fill="black" stroke="black" points="437.06,-206.156 439.248,-195.789 431.073,-202.529 437.06,-206.156"/>
</g>
<!-- Node0xfd6d310 -->
<g id="node6" class="node"><title>Node0xfd6d310</title>
<polygon fill="none" stroke="black" points="441.5,-23.5 441.5,-59.5 495.5,-59.5 495.5,-23.5 441.5,-23.5"/>
<text text-anchor="start" x="449.5" y="-37.8" font-family="Times,serif" font-size="14.00">exit:</text>
</g>
<!-- Node0xfd6d680&#45;&gt;Node0xfd6d310 -->
<g id="edge6" class="edge"><title>Node0xfd6d680&#45;&gt;Node0xfd6d310</title>
<path fill="none" stroke="black" d="M468.5,-97.3173C468.5,-87.893 468.5,-78.32 468.5,-69.8676"/>
<polygon fill="black" stroke="black" points="472,-69.856 468.5,-59.8561 465,-69.8561 472,-69.856"/>
</g>
</g>
</svg>
