<?xml version="1.0" encoding="UTF-8" standalone="no"?>
<!DOCTYPE svg PUBLIC "-//W3C//DTD SVG 1.1//EN"
 "http://www.w3.org/Graphics/SVG/1.1/DTD/svg11.dtd">
<!-- Generated by graphviz version 2.38.0 (20140413.2041)
 -->
<!-- Title: Control&#45;flow graph for function &#39;function_41326c(*a1)&#39;. Pages: 1 -->
<svg width="572pt" height="565pt"
 viewBox="0.00 0.00 571.50 565.00" xmlns="http://www.w3.org/2000/svg" xmlns:xlink="http://www.w3.org/1999/xlink">
<g id="graph0" class="graph" transform="scale(1 1) rotate(0) translate(4 561)">
<title>Control&#45;flow graph for function &#39;function_41326c(*a1)&#39;.</title>
<polygon fill="white" stroke="none" points="-4,4 -4,-561 567.5,-561 567.5,4 -4,4"/>
<text text-anchor="middle" x="281.75" y="-7.8" font-family="Times,serif" font-size="14.00">Control&#45;flow graph for function &#39;function_41326c(*a1)&#39;.</text>
<!-- Node0xf31d370 -->
<g id="node1" class="node"><title>Node0xf31d370</title>
<polygon fill="none" stroke="black" points="396,-518.5 396,-556.5 455,-556.5 455,-518.5 396,-518.5"/>
<text text-anchor="start" x="404" y="-541.3" font-family="Times,serif" font-size="14.00">entry:</text>
<text text-anchor="start" x="404" y="-526.3" font-family="Times,serif" font-size="14.00"> a1</text>
</g>
<!-- Node0xf204140 -->
<g id="node2" class="node"><title>Node0xf204140</title>
<polygon fill="none" stroke="black" points="387,-352.5 387,-480.5 464,-480.5 464,-352.5 387,-352.5"/>
<text text-anchor="start" x="395" y="-465.3" font-family="Times,serif" font-size="14.00">v1</text>
<text text-anchor="start" x="395" y="-450.3" font-family="Times,serif" font-size="14.00"> v2</text>
<text text-anchor="start" x="395" y="-435.3" font-family="Times,serif" font-size="14.00"> v3</text>
<text text-anchor="start" x="395" y="-420.3" font-family="Times,serif" font-size="14.00"> v4</text>
<text text-anchor="start" x="395" y="-405.3" font-family="Times,serif" font-size="14.00"> v5</text>
<text text-anchor="start" x="395" y="-390.3" font-family="Times,serif" font-size="14.00"> v6</text>
<text text-anchor="start" x="395" y="-375.3" font-family="Times,serif" font-size="14.00"> v3 = v4</text>
<text text-anchor="start" x="395" y="-360.3" font-family="Times,serif" font-size="14.00"> v3 = a1</text>
</g>
<!-- Node0xf31d370&#45;&gt;Node0xf204140 -->
<g id="edge1" class="edge"><title>Node0xf31d370&#45;&gt;Node0xf204140</title>
<path fill="none" stroke="black" d="M425.5,-518.426C425.5,-510.592 425.5,-500.856 425.5,-490.546"/>
<polygon fill="black" stroke="black" points="429,-490.529 425.5,-480.529 422,-490.529 429,-490.529"/>
</g>
<!-- Node0xf31d8c0 -->
<g id="node3" class="node"><title>Node0xf31d8c0</title>
<polygon fill="none" stroke="black" points="358.5,-278.5 358.5,-314.5 492.5,-314.5 492.5,-278.5 358.5,-278.5"/>
<text text-anchor="start" x="366.5" y="-292.8" font-family="Times,serif" font-size="14.00">if (a1 != NULL):</text>
</g>
<!-- Node0xf204140&#45;&gt;Node0xf31d8c0 -->
<g id="edge2" class="edge"><title>Node0xf204140&#45;&gt;Node0xf31d8c0</title>
<path fill="none" stroke="black" d="M425.5,-352.355C425.5,-342.753 425.5,-333.299 425.5,-325.016"/>
<polygon fill="black" stroke="black" points="429,-324.887 425.5,-314.888 422,-324.888 429,-324.887"/>
</g>
<!-- Node0xf31d780 -->
<g id="node4" class="node"><title>Node0xf31d780</title>
<polygon fill="none" stroke="black" points="0,-173.5 0,-226.5 455,-226.5 455,-173.5 0,-173.5"/>
<text text-anchor="start" x="8" y="-211.3" font-family="Times,serif" font-size="14.00">0x413274:</text>
<text text-anchor="start" x="8" y="-196.3" font-family="Times,serif" font-size="14.00"> *(&amp;(a1[&#39;1&#39;])) = 0</text>
<text text-anchor="start" x="8" y="-181.3" font-family="Times,serif" font-size="14.00"> *(&amp;(a1[&#39;0&#39;])) = PtrToIntCastExpr&lt;int32&gt;(&amp;(vtable_4573c4))</text>
</g>
<!-- Node0xf31d8c0&#45;&gt;Node0xf31d780 -->
<g id="edge3" class="edge"><title>Node0xf31d8c0&#45;&gt;Node0xf31d780</title>
<path fill="none" stroke="black" d="M389.644,-278.387C361.936,-265.163 322.904,-246.534 290.079,-230.867"/>
<polygon fill="black" stroke="black" points="291.532,-227.683 281,-226.534 288.517,-234 291.532,-227.683"/>
<text text-anchor="middle" x="394.5" y="-248.8" font-family="Times,serif" font-size="14.00">a1 != NULL</text>
</g>
<!-- Node0xf31da90 -->
<g id="node5" class="node"><title>Node0xf31da90</title>
<polygon fill="none" stroke="black" points="275.5,-97.5 275.5,-135.5 563.5,-135.5 563.5,-97.5 275.5,-97.5"/>
<text text-anchor="start" x="283.5" y="-120.3" font-family="Times,serif" font-size="14.00">0x41327e:</text>
<text text-anchor="start" x="283.5" y="-105.3" font-family="Times,serif" font-size="14.00"> return PtrToIntCastExpr&lt;int32&gt;(a1)</text>
</g>
<!-- Node0xf31d8c0&#45;&gt;Node0xf31da90 -->
<g id="edge4" class="edge"><title>Node0xf31d8c0&#45;&gt;Node0xf31da90</title>
<path fill="none" stroke="black" d="M438.327,-278.248C447.342,-264.995 458.628,-245.827 463.5,-227 469.513,-203.765 471.394,-195.665 463.5,-173 459.722,-162.154 452.844,-151.834 445.63,-143.1"/>
<polygon fill="black" stroke="black" points="448.224,-140.75 438.99,-135.555 442.969,-145.375 448.224,-140.75"/>
<text text-anchor="middle" x="516.5" y="-196.3" font-family="Times,serif" font-size="14.00">a1 == NULL</text>
</g>
<!-- Node0xf31d780&#45;&gt;Node0xf31da90 -->
<g id="edge5" class="edge"><title>Node0xf31d780&#45;&gt;Node0xf31da90</title>
<path fill="none" stroke="black" d="M287.723,-173.437C313.257,-162.598 342.732,-150.087 367.322,-139.648"/>
<polygon fill="black" stroke="black" points="368.998,-142.739 376.836,-135.61 366.263,-136.296 368.998,-142.739"/>
</g>
<!-- Node0xf318d20 -->
<g id="node6" class="node"><title>Node0xf318d20</title>
<polygon fill="none" stroke="black" points="392.5,-23.5 392.5,-59.5 446.5,-59.5 446.5,-23.5 392.5,-23.5"/>
<text text-anchor="start" x="400.5" y="-37.8" font-family="Times,serif" font-size="14.00">exit:</text>
</g>
<!-- Node0xf31da90&#45;&gt;Node0xf318d20 -->
<g id="edge6" class="edge"><title>Node0xf31da90&#45;&gt;Node0xf318d20</title>
<path fill="none" stroke="black" d="M419.5,-97.4551C419.5,-89.2008 419.5,-79.2377 419.5,-70.0742"/>
<polygon fill="black" stroke="black" points="423,-69.8347 419.5,-59.8347 416,-69.8347 423,-69.8347"/>
</g>
</g>
</svg>
