<?xml version="1.0" encoding="UTF-8" standalone="no"?>
<!DOCTYPE svg PUBLIC "-//W3C//DTD SVG 1.1//EN"
 "http://www.w3.org/Graphics/SVG/1.1/DTD/svg11.dtd">
<!-- Generated by graphviz version 2.38.0 (20140413.2041)
 -->
<!-- Title: Control&#45;flow graph for function &#39;function_40c9c1(*a1, *a2, *a3, *a4, *a5)&#39;. Pages: 1 -->
<svg width="1425pt" height="4351pt"
 viewBox="0.00 0.00 1424.50 4351.00" xmlns="http://www.w3.org/2000/svg" xmlns:xlink="http://www.w3.org/1999/xlink">
<g id="graph0" class="graph" transform="scale(1 1) rotate(0) translate(4 4347)">
<title>Control&#45;flow graph for function &#39;function_40c9c1(*a1, *a2, *a3, *a4, *a5)&#39;.</title>
<polygon fill="white" stroke="none" points="-4,4 -4,-4347 1420.5,-4347 1420.5,4 -4,4"/>
<text text-anchor="middle" x="708.25" y="-7.8" font-family="Times,serif" font-size="14.00">Control&#45;flow graph for function &#39;function_40c9c1(*a1, *a2, *a3, *a4, *a5)&#39;.</text>
<!-- Node0xf019840 -->
<g id="node1" class="node"><title>Node0xf019840</title>
<polygon fill="none" stroke="black" points="514.5,-4244.5 514.5,-4342.5 573.5,-4342.5 573.5,-4244.5 514.5,-4244.5"/>
<text text-anchor="start" x="522.5" y="-4327.3" font-family="Times,serif" font-size="14.00">entry:</text>
<text text-anchor="start" x="522.5" y="-4312.3" font-family="Times,serif" font-size="14.00"> a1</text>
<text text-anchor="start" x="522.5" y="-4297.3" font-family="Times,serif" font-size="14.00"> a2</text>
<text text-anchor="start" x="522.5" y="-4282.3" font-family="Times,serif" font-size="14.00"> a3</text>
<text text-anchor="start" x="522.5" y="-4267.3" font-family="Times,serif" font-size="14.00"> a4</text>
<text text-anchor="start" x="522.5" y="-4252.3" font-family="Times,serif" font-size="14.00"> a5</text>
</g>
<!-- Node0xf01a0b0 -->
<g id="node2" class="node"><title>Node0xf01a0b0</title>
<polygon fill="none" stroke="black" points="389.5,-2533.5 389.5,-4206.5 698.5,-4206.5 698.5,-2533.5 389.5,-2533.5"/>
<text text-anchor="start" x="397.5" y="-4191.3" font-family="Times,serif" font-size="14.00">v1</text>
<text text-anchor="start" x="397.5" y="-4176.3" font-family="Times,serif" font-size="14.00"> v2</text>
<text text-anchor="start" x="397.5" y="-4161.3" font-family="Times,serif" font-size="14.00"> v3</text>
<text text-anchor="start" x="397.5" y="-4146.3" font-family="Times,serif" font-size="14.00"> v4</text>
<text text-anchor="start" x="397.5" y="-4131.3" font-family="Times,serif" font-size="14.00"> v5</text>
<text text-anchor="start" x="397.5" y="-4116.3" font-family="Times,serif" font-size="14.00"> v6</text>
<text text-anchor="start" x="397.5" y="-4101.3" font-family="Times,serif" font-size="14.00"> v7</text>
<text text-anchor="start" x="397.5" y="-4086.3" font-family="Times,serif" font-size="14.00"> v8</text>
<text text-anchor="start" x="397.5" y="-4071.3" font-family="Times,serif" font-size="14.00"> nIndex2</text>
<text text-anchor="start" x="397.5" y="-4056.3" font-family="Times,serif" font-size="14.00"> v9</text>
<text text-anchor="start" x="397.5" y="-4041.3" font-family="Times,serif" font-size="14.00"> v10</text>
<text text-anchor="start" x="397.5" y="-4026.3" font-family="Times,serif" font-size="14.00"> v11</text>
<text text-anchor="start" x="397.5" y="-4011.3" font-family="Times,serif" font-size="14.00"> v12</text>
<text text-anchor="start" x="397.5" y="-3996.3" font-family="Times,serif" font-size="14.00"> v13</text>
<text text-anchor="start" x="397.5" y="-3981.3" font-family="Times,serif" font-size="14.00"> v14</text>
<text text-anchor="start" x="397.5" y="-3966.3" font-family="Times,serif" font-size="14.00"> v15</text>
<text text-anchor="start" x="397.5" y="-3951.3" font-family="Times,serif" font-size="14.00"> v16</text>
<text text-anchor="start" x="397.5" y="-3936.3" font-family="Times,serif" font-size="14.00"> v17</text>
<text text-anchor="start" x="397.5" y="-3921.3" font-family="Times,serif" font-size="14.00"> v18</text>
<text text-anchor="start" x="397.5" y="-3906.3" font-family="Times,serif" font-size="14.00"> v19</text>
<text text-anchor="start" x="397.5" y="-3891.3" font-family="Times,serif" font-size="14.00"> v20</text>
<text text-anchor="start" x="397.5" y="-3876.3" font-family="Times,serif" font-size="14.00"> v21</text>
<text text-anchor="start" x="397.5" y="-3861.3" font-family="Times,serif" font-size="14.00"> v22</text>
<text text-anchor="start" x="397.5" y="-3846.3" font-family="Times,serif" font-size="14.00"> v23</text>
<text text-anchor="start" x="397.5" y="-3831.3" font-family="Times,serif" font-size="14.00"> v24</text>
<text text-anchor="start" x="397.5" y="-3816.3" font-family="Times,serif" font-size="14.00"> pvParam</text>
<text text-anchor="start" x="397.5" y="-3801.3" font-family="Times,serif" font-size="14.00"> v25</text>
<text text-anchor="start" x="397.5" y="-3786.3" font-family="Times,serif" font-size="14.00"> v26</text>
<text text-anchor="start" x="397.5" y="-3771.3" font-family="Times,serif" font-size="14.00"> v27</text>
<text text-anchor="start" x="397.5" y="-3756.3" font-family="Times,serif" font-size="14.00"> v28</text>
<text text-anchor="start" x="397.5" y="-3741.3" font-family="Times,serif" font-size="14.00"> v29</text>
<text text-anchor="start" x="397.5" y="-3726.3" font-family="Times,serif" font-size="14.00"> v30</text>
<text text-anchor="start" x="397.5" y="-3711.3" font-family="Times,serif" font-size="14.00"> v31</text>
<text text-anchor="start" x="397.5" y="-3696.3" font-family="Times,serif" font-size="14.00"> v32</text>
<text text-anchor="start" x="397.5" y="-3681.3" font-family="Times,serif" font-size="14.00"> v33</text>
<text text-anchor="start" x="397.5" y="-3666.3" font-family="Times,serif" font-size="14.00"> v34</text>
<text text-anchor="start" x="397.5" y="-3651.3" font-family="Times,serif" font-size="14.00"> v35</text>
<text text-anchor="start" x="397.5" y="-3636.3" font-family="Times,serif" font-size="14.00"> v36</text>
<text text-anchor="start" x="397.5" y="-3621.3" font-family="Times,serif" font-size="14.00"> v37</text>
<text text-anchor="start" x="397.5" y="-3606.3" font-family="Times,serif" font-size="14.00"> v38</text>
<text text-anchor="start" x="397.5" y="-3591.3" font-family="Times,serif" font-size="14.00"> v39</text>
<text text-anchor="start" x="397.5" y="-3576.3" font-family="Times,serif" font-size="14.00"> v40</text>
<text text-anchor="start" x="397.5" y="-3561.3" font-family="Times,serif" font-size="14.00"> v41</text>
<text text-anchor="start" x="397.5" y="-3546.3" font-family="Times,serif" font-size="14.00"> v42</text>
<text text-anchor="start" x="397.5" y="-3531.3" font-family="Times,serif" font-size="14.00"> v43</text>
<text text-anchor="start" x="397.5" y="-3516.3" font-family="Times,serif" font-size="14.00"> v44</text>
<text text-anchor="start" x="397.5" y="-3501.3" font-family="Times,serif" font-size="14.00"> v45</text>
<text text-anchor="start" x="397.5" y="-3486.3" font-family="Times,serif" font-size="14.00"> v46</text>
<text text-anchor="start" x="397.5" y="-3471.3" font-family="Times,serif" font-size="14.00"> v47</text>
<text text-anchor="start" x="397.5" y="-3456.3" font-family="Times,serif" font-size="14.00"> v48</text>
<text text-anchor="start" x="397.5" y="-3441.3" font-family="Times,serif" font-size="14.00"> v49</text>
<text text-anchor="start" x="397.5" y="-3426.3" font-family="Times,serif" font-size="14.00"> v50</text>
<text text-anchor="start" x="397.5" y="-3411.3" font-family="Times,serif" font-size="14.00"> v51</text>
<text text-anchor="start" x="397.5" y="-3396.3" font-family="Times,serif" font-size="14.00"> v52</text>
<text text-anchor="start" x="397.5" y="-3381.3" font-family="Times,serif" font-size="14.00"> v53</text>
<text text-anchor="start" x="397.5" y="-3366.3" font-family="Times,serif" font-size="14.00"> v54</text>
<text text-anchor="start" x="397.5" y="-3351.3" font-family="Times,serif" font-size="14.00"> v55</text>
<text text-anchor="start" x="397.5" y="-3336.3" font-family="Times,serif" font-size="14.00"> v56</text>
<text text-anchor="start" x="397.5" y="-3321.3" font-family="Times,serif" font-size="14.00"> v57</text>
<text text-anchor="start" x="397.5" y="-3306.3" font-family="Times,serif" font-size="14.00"> v58</text>
<text text-anchor="start" x="397.5" y="-3291.3" font-family="Times,serif" font-size="14.00"> result</text>
<text text-anchor="start" x="397.5" y="-3276.3" font-family="Times,serif" font-size="14.00"> v59</text>
<text text-anchor="start" x="397.5" y="-3261.3" font-family="Times,serif" font-size="14.00"> v60</text>
<text text-anchor="start" x="397.5" y="-3246.3" font-family="Times,serif" font-size="14.00"> v61</text>
<text text-anchor="start" x="397.5" y="-3231.3" font-family="Times,serif" font-size="14.00"> v62</text>
<text text-anchor="start" x="397.5" y="-3216.3" font-family="Times,serif" font-size="14.00"> nIndex</text>
<text text-anchor="start" x="397.5" y="-3201.3" font-family="Times,serif" font-size="14.00"> v63</text>
<text text-anchor="start" x="397.5" y="-3186.3" font-family="Times,serif" font-size="14.00"> v64</text>
<text text-anchor="start" x="397.5" y="-3171.3" font-family="Times,serif" font-size="14.00"> v65</text>
<text text-anchor="start" x="397.5" y="-3156.3" font-family="Times,serif" font-size="14.00"> v66</text>
<text text-anchor="start" x="397.5" y="-3141.3" font-family="Times,serif" font-size="14.00"> v67</text>
<text text-anchor="start" x="397.5" y="-3126.3" font-family="Times,serif" font-size="14.00"> v68</text>
<text text-anchor="start" x="397.5" y="-3111.3" font-family="Times,serif" font-size="14.00"> v69</text>
<text text-anchor="start" x="397.5" y="-3096.3" font-family="Times,serif" font-size="14.00"> v70</text>
<text text-anchor="start" x="397.5" y="-3081.3" font-family="Times,serif" font-size="14.00"> v71</text>
<text text-anchor="start" x="397.5" y="-3066.3" font-family="Times,serif" font-size="14.00"> v72</text>
<text text-anchor="start" x="397.5" y="-3051.3" font-family="Times,serif" font-size="14.00"> v73</text>
<text text-anchor="start" x="397.5" y="-3036.3" font-family="Times,serif" font-size="14.00"> v74</text>
<text text-anchor="start" x="397.5" y="-3021.3" font-family="Times,serif" font-size="14.00"> v75</text>
<text text-anchor="start" x="397.5" y="-3006.3" font-family="Times,serif" font-size="14.00"> v76</text>
<text text-anchor="start" x="397.5" y="-2991.3" font-family="Times,serif" font-size="14.00"> v77</text>
<text text-anchor="start" x="397.5" y="-2976.3" font-family="Times,serif" font-size="14.00"> v78</text>
<text text-anchor="start" x="397.5" y="-2961.3" font-family="Times,serif" font-size="14.00"> v79</text>
<text text-anchor="start" x="397.5" y="-2946.3" font-family="Times,serif" font-size="14.00"> v80</text>
<text text-anchor="start" x="397.5" y="-2931.3" font-family="Times,serif" font-size="14.00"> v81</text>
<text text-anchor="start" x="397.5" y="-2916.3" font-family="Times,serif" font-size="14.00"> v82</text>
<text text-anchor="start" x="397.5" y="-2901.3" font-family="Times,serif" font-size="14.00"> v83</text>
<text text-anchor="start" x="397.5" y="-2886.3" font-family="Times,serif" font-size="14.00"> v84</text>
<text text-anchor="start" x="397.5" y="-2871.3" font-family="Times,serif" font-size="14.00"> v85</text>
<text text-anchor="start" x="397.5" y="-2856.3" font-family="Times,serif" font-size="14.00"> v37 = v38</text>
<text text-anchor="start" x="397.5" y="-2841.3" font-family="Times,serif" font-size="14.00"> v35 = v36</text>
<text text-anchor="start" x="397.5" y="-2826.3" font-family="Times,serif" font-size="14.00"> v32 = v33</text>
<text text-anchor="start" x="397.5" y="-2811.3" font-family="Times,serif" font-size="14.00"> v30 = v31</text>
<text text-anchor="start" x="397.5" y="-2796.3" font-family="Times,serif" font-size="14.00"> v28 = v29</text>
<text text-anchor="start" x="397.5" y="-2781.3" font-family="Times,serif" font-size="14.00"> v26 = v27</text>
<text text-anchor="start" x="397.5" y="-2766.3" font-family="Times,serif" font-size="14.00"> pvParam = v25</text>
<text text-anchor="start" x="397.5" y="-2751.3" font-family="Times,serif" font-size="14.00"> v34 = v40</text>
<text text-anchor="start" x="397.5" y="-2736.3" font-family="Times,serif" font-size="14.00"> v48 = v49</text>
<text text-anchor="start" x="397.5" y="-2721.3" font-family="Times,serif" font-size="14.00"> v50 = v57</text>
<text text-anchor="start" x="397.5" y="-2706.3" font-family="Times,serif" font-size="14.00"> v42 = v43</text>
<text text-anchor="start" x="397.5" y="-2691.3" font-family="Times,serif" font-size="14.00"> v44 = v45</text>
<text text-anchor="start" x="397.5" y="-2676.3" font-family="Times,serif" font-size="14.00"> v46 = v47</text>
<text text-anchor="start" x="397.5" y="-2661.3" font-family="Times,serif" font-size="14.00"> v48 = a1</text>
<text text-anchor="start" x="397.5" y="-2646.3" font-family="Times,serif" font-size="14.00"> v50 = a2</text>
<text text-anchor="start" x="397.5" y="-2631.3" font-family="Times,serif" font-size="14.00"> v42 = a3</text>
<text text-anchor="start" x="397.5" y="-2616.3" font-family="Times,serif" font-size="14.00"> v44 = a4</text>
<text text-anchor="start" x="397.5" y="-2601.3" font-family="Times,serif" font-size="14.00"> v46 = a5</text>
<text text-anchor="start" x="397.5" y="-2586.3" font-family="Times,serif" font-size="14.00"> g3 = PtrToIntCastExpr&lt;int32&gt;(&amp;(v34))</text>
<text text-anchor="start" x="397.5" y="-2571.3" font-family="Times,serif" font-size="14.00"> v23 = function_40c815()</text>
<text text-anchor="start" x="397.5" y="-2556.3" font-family="Times,serif" font-size="14.00"> g1 = False</text>
<text text-anchor="start" x="397.5" y="-2541.3" font-family="Times,serif" font-size="14.00"> g207 = (((v23 &amp; 1) != 0) == False)</text>
</g>
<!-- Node0xf019840&#45;&gt;Node0xf01a0b0 -->
<g id="edge1" class="edge"><title>Node0xf019840&#45;&gt;Node0xf01a0b0</title>
<path fill="none" stroke="black" d="M544,-4244.25C544,-4236.06 544,-4226.94 544,-4217"/>
<polygon fill="black" stroke="black" points="547.5,-4216.78 544,-4206.78 540.5,-4216.79 547.5,-4216.78"/>
</g>
<!-- Node0xf0198a0 -->
<g id="node3" class="node"><title>Node0xf0198a0</title>
<polygon fill="none" stroke="black" points="429,-2457.5 429,-2495.5 659,-2495.5 659,-2457.5 429,-2457.5"/>
<text text-anchor="start" x="437" y="-2480.3" font-family="Times,serif" font-size="14.00">if (((v23 &amp; 1) != 0) == False):</text>
<text text-anchor="start" x="437" y="-2465.3" font-family="Times,serif" font-size="14.00"> else:</text>
</g>
<!-- Node0xf01a0b0&#45;&gt;Node0xf0198a0 -->
<g id="edge2" class="edge"><title>Node0xf01a0b0&#45;&gt;Node0xf0198a0</title>
<path fill="none" stroke="black" d="M544,-2533.27C544,-2522.65 544,-2513.35 544,-2505.55"/>
<polygon fill="black" stroke="black" points="547.5,-2505.52 544,-2495.52 540.5,-2505.52 547.5,-2505.52"/>
</g>
<!-- Node0xf01cad0 -->
<g id="node4" class="node"><title>Node0xf01cad0</title>
<polygon fill="none" stroke="black" points="537.5,-2292.5 537.5,-2405.5 854.5,-2405.5 854.5,-2292.5 537.5,-2292.5"/>
<text text-anchor="start" x="545.5" y="-2390.3" font-family="Times,serif" font-size="14.00">0x40c9de:</text>
<text text-anchor="start" x="545.5" y="-2375.3" font-family="Times,serif" font-size="14.00"> v85 = v48</text>
<text text-anchor="start" x="545.5" y="-2360.3" font-family="Times,serif" font-size="14.00"> v60 = g4</text>
<text text-anchor="start" x="545.5" y="-2345.3" font-family="Times,serif" font-size="14.00"> v26 = IntToPtrCastExpr&lt;ptr&gt;(v60)</text>
<text text-anchor="start" x="545.5" y="-2330.3" font-family="Times,serif" font-size="14.00"> v61 = g9</text>
<text text-anchor="start" x="545.5" y="-2315.3" font-family="Times,serif" font-size="14.00"> v28 = IntToPtrCastExpr&lt;ptr&gt;(v61)</text>
<text text-anchor="start" x="545.5" y="-2300.3" font-family="Times,serif" font-size="14.00"> v15 = PtrToIntCastExpr&lt;int32&gt;(&amp;(v28))</text>
</g>
<!-- Node0xf0198a0&#45;&gt;Node0xf01cad0 -->
<g id="edge3" class="edge"><title>Node0xf0198a0&#45;&gt;Node0xf01cad0</title>
<path fill="none" stroke="black" d="M586.306,-2457.33C596.473,-2452.09 606.99,-2445.91 616,-2439 625.889,-2431.42 635.535,-2422.51 644.509,-2413.3"/>
<polygon fill="black" stroke="black" points="647.21,-2415.54 651.554,-2405.88 642.132,-2410.73 647.21,-2415.54"/>
<text text-anchor="middle" x="725.5" y="-2427.8" font-family="Times,serif" font-size="14.00">((v23 &amp; 1) != 0) == False</text>
</g>
<!-- Node0xf01cf00 -->
<g id="node5" class="node"><title>Node0xf01cf00</title>
<polygon fill="none" stroke="black" points="0,-2145.5 0,-2273.5 702,-2273.5 702,-2145.5 0,-2145.5"/>
<text text-anchor="start" x="8" y="-2258.3" font-family="Times,serif" font-size="14.00">0x40c9d0:</text>
<text text-anchor="start" x="8" y="-2243.3" font-family="Times,serif" font-size="14.00"> v78 = v50</text>
<text text-anchor="start" x="8" y="-2228.3" font-family="Times,serif" font-size="14.00"> v26 = v78</text>
<text text-anchor="start" x="8" y="-2213.3" font-family="Times,serif" font-size="14.00"> v79 = v48</text>
<text text-anchor="start" x="8" y="-2198.3" font-family="Times,serif" font-size="14.00"> v28 = v79</text>
<text text-anchor="start" x="8" y="-2183.3" font-family="Times,serif" font-size="14.00"> v80 = g64</text>
<text text-anchor="start" x="8" y="-2168.3" font-family="Times,serif" font-size="14.00"> IntToPtrCastExpr&lt;ptr&gt;(v80)(PtrToIntCastExpr&lt;int32&gt;(v79), PtrToIntCastExpr&lt;int32&gt;(v78))</text>
<text text-anchor="start" x="8" y="-2153.3" font-family="Times,serif" font-size="14.00"> result = v23</text>
</g>
<!-- Node0xf0198a0&#45;&gt;Node0xf01cf00 -->
<g id="edge4" class="edge"><title>Node0xf0198a0&#45;&gt;Node0xf01cf00</title>
<path fill="none" stroke="black" d="M460.394,-2457.46C450.326,-2452.68 440.849,-2446.64 433,-2439 390.832,-2397.95 370.268,-2333.7 360.287,-2283.77"/>
<polygon fill="black" stroke="black" points="363.673,-2282.84 358.371,-2273.67 356.796,-2284.15 363.673,-2282.84"/>
<text text-anchor="middle" x="522.5" y="-2427.8" font-family="Times,serif" font-size="14.00">((v23 &amp; 1) != 0) != False</text>
</g>
<!-- Node0xf01cbc0 -->
<g id="node6" class="node"><title>Node0xf01cbc0</title>
<polygon fill="none" stroke="black" points="532,-2090.5 532,-2126.5 902,-2126.5 902,-2090.5 532,-2090.5"/>
<text text-anchor="start" x="540" y="-2104.8" font-family="Times,serif" font-size="14.00">if (v85 == IntToPtrCastExpr&lt;ptr&gt;(305397826)):</text>
</g>
<!-- Node0xf01cad0&#45;&gt;Node0xf01cbc0 -->
<g id="edge5" class="edge"><title>Node0xf01cad0&#45;&gt;Node0xf01cbc0</title>
<path fill="none" stroke="black" d="M701.331,-2292.24C701.902,-2286.09 702.469,-2279.91 703,-2274 707.332,-2225.78 712.042,-2169.58 714.746,-2136.92"/>
<polygon fill="black" stroke="black" points="718.247,-2137.05 715.582,-2126.79 711.271,-2136.47 718.247,-2137.05"/>
</g>
<!-- Node0xf01b9d0 -->
<g id="node7" class="node"><title>Node0xf01b9d0</title>
<polygon fill="none" stroke="black" points="665.5,-503.5 665.5,-571.5 778.5,-571.5 778.5,-503.5 665.5,-503.5"/>
<text text-anchor="start" x="673.5" y="-556.3" font-family="Times,serif" font-size="14.00">0x40ca56:</text>
<text text-anchor="start" x="673.5" y="-541.3" font-family="Times,serif" font-size="14.00"> v68 = v34</text>
<text text-anchor="start" x="673.5" y="-526.3" font-family="Times,serif" font-size="14.00"> g3 = v68</text>
<text text-anchor="start" x="673.5" y="-511.3" font-family="Times,serif" font-size="14.00"> return result</text>
</g>
<!-- Node0xf01cf00&#45;&gt;Node0xf01b9d0 -->
<g id="edge6" class="edge"><title>Node0xf01cf00&#45;&gt;Node0xf01b9d0</title>
<path fill="none" stroke="black" d="M351,-2145.5C351,-2120.58 351,-2091.69 351,-2065.5 351,-2065.5 351,-2065.5 351,-1017.5 351,-811.289 421.076,-750.583 571,-609 594.812,-586.513 627.091,-570.128 655.693,-558.845"/>
<polygon fill="black" stroke="black" points="657.134,-562.042 665.234,-555.213 654.643,-555.5 657.134,-562.042"/>
</g>
<!-- Node0xf01d140 -->
<g id="node8" class="node"><title>Node0xf01d140</title>
<polygon fill="none" stroke="black" points="578,-1970.5 578,-2038.5 864,-2038.5 864,-1970.5 578,-1970.5"/>
<text text-anchor="start" x="586" y="-2023.3" font-family="Times,serif" font-size="14.00">0x40c9e9:</text>
<text text-anchor="start" x="586" y="-2008.3" font-family="Times,serif" font-size="14.00"> v81 = v50</text>
<text text-anchor="start" x="586" y="-1993.3" font-family="Times,serif" font-size="14.00"> g4 = PtrToIntCastExpr&lt;int32&gt;(v81)</text>
<text text-anchor="start" x="586" y="-1978.3" font-family="Times,serif" font-size="14.00"> g9 = 0</text>
</g>
<!-- Node0xf01cbc0&#45;&gt;Node0xf01d140 -->
<g id="edge7" class="edge"><title>Node0xf01cbc0&#45;&gt;Node0xf01d140</title>
<path fill="none" stroke="black" d="M717.679,-2090.2C718.123,-2078.85 718.726,-2063.49 719.296,-2048.95"/>
<polygon fill="black" stroke="black" points="722.808,-2048.72 719.702,-2038.59 715.813,-2048.45 722.808,-2048.72"/>
<text text-anchor="middle" x="880.5" y="-2060.8" font-family="Times,serif" font-size="14.00">v85 == IntToPtrCastExpr&lt;ptr&gt;(305397826)</text>
</g>
<!-- Node0xf01ce10 -->
<g id="node9" class="node"><title>Node0xf01ce10</title>
<polygon fill="none" stroke="black" points="580,-962 580,-1075 866,-1075 866,-962 580,-962"/>
<text text-anchor="start" x="588" y="-1059.8" font-family="Times,serif" font-size="14.00">0x40ca52:</text>
<text text-anchor="start" x="588" y="-1044.8" font-family="Times,serif" font-size="14.00"> v58 = 0</text>
<text text-anchor="start" x="588" y="-1029.8" font-family="Times,serif" font-size="14.00"> v66 = v28</text>
<text text-anchor="start" x="588" y="-1014.8" font-family="Times,serif" font-size="14.00"> g9 = PtrToIntCastExpr&lt;int32&gt;(v66)</text>
<text text-anchor="start" x="588" y="-999.8" font-family="Times,serif" font-size="14.00"> v67 = v26</text>
<text text-anchor="start" x="588" y="-984.8" font-family="Times,serif" font-size="14.00"> g4 = PtrToIntCastExpr&lt;int32&gt;(v67)</text>
<text text-anchor="start" x="588" y="-969.8" font-family="Times,serif" font-size="14.00"> result = v58</text>
</g>
<!-- Node0xf01cbc0&#45;&gt;Node0xf01ce10 -->
<g id="edge8" class="edge"><title>Node0xf01cbc0&#45;&gt;Node0xf01ce10</title>
<path fill="none" stroke="black" d="M582.17,-2090.43C491.703,-2075.06 389,-2048.21 389,-2005.5 389,-2005.5 389,-2005.5 389,-1496.5 389,-1321.29 542.072,-1164.7 640.964,-1081.82"/>
<polygon fill="black" stroke="black" points="643.418,-1084.33 648.875,-1075.25 638.946,-1078.94 643.418,-1084.33"/>
<text text-anchor="middle" x="548.5" y="-1776.8" font-family="Times,serif" font-size="14.00">v85 != IntToPtrCastExpr&lt;ptr&gt;(305397826)</text>
</g>
<!-- Node0xf01a050 -->
<g id="node10" class="node"><title>Node0xf01a050</title>
<polygon fill="none" stroke="black" points="744,-23.5 744,-59.5 798,-59.5 798,-23.5 744,-23.5"/>
<text text-anchor="start" x="752" y="-37.8" font-family="Times,serif" font-size="14.00">exit:</text>
</g>
<!-- Node0xf01b9d0&#45;&gt;Node0xf01a050 -->
<g id="edge9" class="edge"><title>Node0xf01b9d0&#45;&gt;Node0xf01a050</title>
<path fill="none" stroke="black" d="M718.387,-503.444C711.344,-429.134 699.838,-243.898 741,-97 743.768,-87.12 748.613,-77.0676 753.613,-68.3313"/>
<polygon fill="black" stroke="black" points="756.613,-70.1332 758.798,-59.766 750.625,-66.5082 756.613,-70.1332"/>
</g>
<!-- Node0xf01d1a0 -->
<g id="node11" class="node"><title>Node0xf01d1a0</title>
<polygon fill="none" stroke="black" points="651.5,-1896.5 651.5,-1932.5 794.5,-1932.5 794.5,-1896.5 651.5,-1896.5"/>
<text text-anchor="start" x="659.5" y="-1910.8" font-family="Times,serif" font-size="14.00">if (v81 != NULL):</text>
</g>
<!-- Node0xf01d140&#45;&gt;Node0xf01d1a0 -->
<g id="edge10" class="edge"><title>Node0xf01d140&#45;&gt;Node0xf01d1a0</title>
<path fill="none" stroke="black" d="M721.75,-1970.48C721.958,-1961.33 722.182,-1951.5 722.381,-1942.72"/>
<polygon fill="black" stroke="black" points="725.882,-1942.72 722.61,-1932.64 718.884,-1942.56 725.882,-1942.72"/>
</g>
<!-- Node0xf01ce10&#45;&gt;Node0xf01b9d0 -->
<g id="edge11" class="edge"><title>Node0xf01ce10&#45;&gt;Node0xf01b9d0</title>
<path fill="none" stroke="black" d="M722.883,-961.615C722.682,-864.978 722.272,-668.665 722.09,-581.668"/>
<polygon fill="black" stroke="black" points="725.59,-581.607 722.069,-571.615 718.59,-581.622 725.59,-581.607"/>
</g>
<!-- Node0xf01d1a0&#45;&gt;Node0xf01ce10 -->
<g id="edge13" class="edge"><title>Node0xf01d1a0&#45;&gt;Node0xf01ce10</title>
<path fill="none" stroke="black" d="M723,-1896.5C723,-1878.96 723,-1850.82 723,-1826.5 723,-1826.5 723,-1826.5 723,-1496.5 723,-1349.63 723,-1177.32 723,-1085.31"/>
<polygon fill="black" stroke="black" points="726.5,-1085.31 723,-1075.31 719.5,-1085.31 726.5,-1085.31"/>
<text text-anchor="middle" x="774.5" y="-1688.8" font-family="Times,serif" font-size="14.00">v81 == NULL</text>
</g>
<!-- Node0x6728dc0 -->
<g id="node12" class="node"><title>Node0x6728dc0</title>
<polygon fill="none" stroke="black" points="755.5,-1806.5 755.5,-1844.5 918.5,-1844.5 918.5,-1806.5 755.5,-1806.5"/>
<text text-anchor="start" x="763.5" y="-1829.3" font-family="Times,serif" font-size="14.00">0x40c9f2:</text>
<text text-anchor="start" x="763.5" y="-1814.3" font-family="Times,serif" font-size="14.00"> v75 = *(&amp;(v81[&#39;0&#39;]))</text>
</g>
<!-- Node0xf01d1a0&#45;&gt;Node0x6728dc0 -->
<g id="edge12" class="edge"><title>Node0xf01d1a0&#45;&gt;Node0x6728dc0</title>
<path fill="none" stroke="black" d="M745.523,-1896.31C762.593,-1883.28 786.272,-1865.21 805.261,-1850.72"/>
<polygon fill="black" stroke="black" points="807.521,-1853.4 813.347,-1844.55 803.274,-1847.84 807.521,-1853.4"/>
<text text-anchor="middle" x="834.5" y="-1866.8" font-family="Times,serif" font-size="14.00">v81 != NULL</text>
</g>
<!-- Node0xf01d430 -->
<g id="node13" class="node"><title>Node0xf01d430</title>
<polygon fill="none" stroke="black" points="779.5,-1718.5 779.5,-1754.5 902.5,-1754.5 902.5,-1718.5 779.5,-1718.5"/>
<text text-anchor="start" x="787.5" y="-1732.8" font-family="Times,serif" font-size="14.00">if (v75 &gt;= 40):</text>
</g>
<!-- Node0x6728dc0&#45;&gt;Node0xf01d430 -->
<g id="edge14" class="edge"><title>Node0x6728dc0&#45;&gt;Node0xf01d430</title>
<path fill="none" stroke="black" d="M837.829,-1806.47C838.381,-1794.46 839.118,-1778.43 839.742,-1764.86"/>
<polygon fill="black" stroke="black" points="843.25,-1764.77 840.213,-1754.62 836.257,-1764.44 843.25,-1764.77"/>
</g>
<!-- Node0xf01d430&#45;&gt;Node0xf01ce10 -->
<g id="edge16" class="edge"><title>Node0xf01d430&#45;&gt;Node0xf01ce10</title>
<path fill="none" stroke="black" d="M838.142,-1718.16C823.832,-1631.33 759.643,-1241.84 733.815,-1085.12"/>
<polygon fill="black" stroke="black" points="737.25,-1084.44 732.17,-1075.14 730.343,-1085.58 737.25,-1084.44"/>
</g>
<!-- Node0xf01d590 -->
<g id="node14" class="node"><title>Node0xf01d590</title>
<polygon fill="none" stroke="black" points="869.5,-1553.5 869.5,-1666.5 1416.5,-1666.5 1416.5,-1553.5 869.5,-1553.5"/>
<text text-anchor="start" x="877.5" y="-1651.3" font-family="Times,serif" font-size="14.00">0x40c9f7:</text>
<text text-anchor="start" x="877.5" y="-1636.3" font-family="Times,serif" font-size="14.00"> v30 = NULL</text>
<text text-anchor="start" x="877.5" y="-1621.3" font-family="Times,serif" font-size="14.00"> v16 = PtrToIntCastExpr&lt;int32&gt;(&amp;(pvParam))</text>
<text text-anchor="start" x="877.5" y="-1606.3" font-family="Times,serif" font-size="14.00"> g2 = v16</text>
<text text-anchor="start" x="877.5" y="-1591.3" font-family="Times,serif" font-size="14.00"> v35 = NULL</text>
<text text-anchor="start" x="877.5" y="-1576.3" font-family="Times,serif" font-size="14.00"> v37 = IntToPtrCastExpr&lt;ptr&gt;(48)</text>
<text text-anchor="start" x="877.5" y="-1561.3" font-family="Times,serif" font-size="14.00"> v24 = SystemParametersInfoA(48, 0, BitCastExpr&lt;ptr&gt;(&amp;(pvParam)), 0)</text>
</g>
<!-- Node0xf01d430&#45;&gt;Node0xf01d590 -->
<g id="edge15" class="edge"><title>Node0xf01d430&#45;&gt;Node0xf01d590</title>
<path fill="none" stroke="black" d="M882.359,-1718.45C912.835,-1705.89 956.239,-1687.99 998.907,-1670.4"/>
<polygon fill="black" stroke="black" points="1000.37,-1673.58 1008.28,-1666.54 997.703,-1667.11 1000.37,-1673.58"/>
<text text-anchor="middle" x="995" y="-1688.8" font-family="Times,serif" font-size="14.00">v75 &gt;= 40</text>
</g>
<!-- Node0xf01d790 -->
<g id="node15" class="node"><title>Node0xf01d790</title>
<polygon fill="none" stroke="black" points="1053.5,-1479.5 1053.5,-1515.5 1190.5,-1515.5 1190.5,-1479.5 1053.5,-1479.5"/>
<text text-anchor="start" x="1061.5" y="-1493.8" font-family="Times,serif" font-size="14.00">if (v24 != False):</text>
</g>
<!-- Node0xf01d590&#45;&gt;Node0xf01d790 -->
<g id="edge17" class="edge"><title>Node0xf01d590&#45;&gt;Node0xf01d790</title>
<path fill="none" stroke="black" d="M1132.44,-1553.43C1130.6,-1543.75 1128.76,-1534.09 1127.16,-1525.63"/>
<polygon fill="black" stroke="black" points="1130.56,-1524.82 1125.26,-1515.64 1123.69,-1526.12 1130.56,-1524.82"/>
</g>
<!-- Node0xf01d790&#45;&gt;Node0xf01ce10 -->
<g id="edge19" class="edge"><title>Node0xf01d790&#45;&gt;Node0xf01ce10</title>
<path fill="none" stroke="black" d="M1053.47,-1493.62C999.592,-1487.87 925.885,-1471.8 878,-1428 778.57,-1337.04 742.496,-1175.6 729.728,-1085.31"/>
<polygon fill="black" stroke="black" points="733.169,-1084.63 728.354,-1075.19 726.232,-1085.57 733.169,-1084.63"/>
</g>
<!-- Node0xf01db80 -->
<g id="node16" class="node"><title>Node0xf01db80</title>
<polygon fill="none" stroke="black" points="886.5,-609.5 886.5,-1427.5 1357.5,-1427.5 1357.5,-609.5 886.5,-609.5"/>
<text text-anchor="start" x="894.5" y="-1412.3" font-family="Times,serif" font-size="14.00">0x40ca09:</text>
<text text-anchor="start" x="894.5" y="-1397.3" font-family="Times,serif" font-size="14.00"> v62 = g7</text>
<text text-anchor="start" x="894.5" y="-1382.3" font-family="Times,serif" font-size="14.00"> v30 = IntToPtrCastExpr&lt;ptr&gt;(v62)</text>
<text text-anchor="start" x="894.5" y="-1367.3" font-family="Times,serif" font-size="14.00"> v82 = g9</text>
<text text-anchor="start" x="894.5" y="-1352.3" font-family="Times,serif" font-size="14.00"> v51 = v50</text>
<text text-anchor="start" x="894.5" y="-1337.3" font-family="Times,serif" font-size="14.00"> *(&amp;(v51[&#39;1&#39;])) = IntToPtrCastExpr&lt;ptr&gt;(v82)</text>
<text text-anchor="start" x="894.5" y="-1322.3" font-family="Times,serif" font-size="14.00"> v83 = g9</text>
<text text-anchor="start" x="894.5" y="-1307.3" font-family="Times,serif" font-size="14.00"> v52 = v50</text>
<text text-anchor="start" x="894.5" y="-1292.3" font-family="Times,serif" font-size="14.00"> *(&amp;(v52[&#39;2&#39;])) = IntToPtrCastExpr&lt;ptr&gt;(v83)</text>
<text text-anchor="start" x="894.5" y="-1277.3" font-family="Times,serif" font-size="14.00"> nIndex = g9</text>
<text text-anchor="start" x="894.5" y="-1262.3" font-family="Times,serif" font-size="14.00"> v32 = IntToPtrCastExpr&lt;ptr&gt;(nIndex)</text>
<text text-anchor="start" x="894.5" y="-1247.3" font-family="Times,serif" font-size="14.00"> g9 = 418194</text>
<text text-anchor="start" x="894.5" y="-1232.3" font-family="Times,serif" font-size="14.00"> v21 = GetSystemMetrics(nIndex)</text>
<text text-anchor="start" x="894.5" y="-1217.3" font-family="Times,serif" font-size="14.00"> v32 = IntToPtrCastExpr&lt;ptr&gt;(1)</text>
<text text-anchor="start" x="894.5" y="-1202.3" font-family="Times,serif" font-size="14.00"> v53 = v50</text>
<text text-anchor="start" x="894.5" y="-1187.3" font-family="Times,serif" font-size="14.00"> *(&amp;(v53[&#39;3&#39;])) = v21</text>
<text text-anchor="start" x="894.5" y="-1172.3" font-family="Times,serif" font-size="14.00"> nIndex2 = v32</text>
<text text-anchor="start" x="894.5" y="-1157.3" font-family="Times,serif" font-size="14.00"> v22 = GetSystemMetrics(PtrToIntCastExpr&lt;int32&gt;(nIndex2))</text>
<text text-anchor="start" x="894.5" y="-1142.3" font-family="Times,serif" font-size="14.00"> v69 = g4</text>
<text text-anchor="start" x="894.5" y="-1127.3" font-family="Times,serif" font-size="14.00"> v70 = pvParam</text>
<text text-anchor="start" x="894.5" y="-1112.3" font-family="Times,serif" font-size="14.00"> v54 = v50</text>
<text text-anchor="start" x="894.5" y="-1097.3" font-family="Times,serif" font-size="14.00"> *(&amp;(v54[&#39;5&#39;])) = v70</text>
<text text-anchor="start" x="894.5" y="-1082.3" font-family="Times,serif" font-size="14.00"> v76 = g6</text>
<text text-anchor="start" x="894.5" y="-1067.3" font-family="Times,serif" font-size="14.00"> v5 = (&#45;4 if v76 else 4)</text>
<text text-anchor="start" x="894.5" y="-1052.3" font-family="Times,serif" font-size="14.00"> v6 = (v5 + v16)</text>
<text text-anchor="start" x="894.5" y="-1037.3" font-family="Times,serif" font-size="14.00"> v2 = ((v69 + 20) + v5)</text>
<text text-anchor="start" x="894.5" y="-1022.3" font-family="Times,serif" font-size="14.00"> g9 = v6</text>
<text text-anchor="start" x="894.5" y="-1007.3" font-family="Times,serif" font-size="14.00"> g7 = v2</text>
<text text-anchor="start" x="894.5" y="-992.3" font-family="Times,serif" font-size="14.00"> v71 = *(IntToPtrCastExpr&lt;ptr&gt;(v6))</text>
<text text-anchor="start" x="894.5" y="-977.3" font-family="Times,serif" font-size="14.00"> *(IntToPtrCastExpr&lt;ptr&gt;(v2)) = v71</text>
<text text-anchor="start" x="894.5" y="-962.3" font-family="Times,serif" font-size="14.00"> v7 = (v6 + v5)</text>
<text text-anchor="start" x="894.5" y="-947.3" font-family="Times,serif" font-size="14.00"> v3 = (v2 + v5)</text>
<text text-anchor="start" x="894.5" y="-932.3" font-family="Times,serif" font-size="14.00"> g9 = v7</text>
<text text-anchor="start" x="894.5" y="-917.3" font-family="Times,serif" font-size="14.00"> g7 = v3</text>
<text text-anchor="start" x="894.5" y="-902.3" font-family="Times,serif" font-size="14.00"> v72 = *(IntToPtrCastExpr&lt;ptr&gt;(v7))</text>
<text text-anchor="start" x="894.5" y="-887.3" font-family="Times,serif" font-size="14.00"> *(IntToPtrCastExpr&lt;ptr&gt;(v3)) = v72</text>
<text text-anchor="start" x="894.5" y="-872.3" font-family="Times,serif" font-size="14.00"> v8 = (v7 + v5)</text>
<text text-anchor="start" x="894.5" y="-857.3" font-family="Times,serif" font-size="14.00"> v4 = (v3 + v5)</text>
<text text-anchor="start" x="894.5" y="-842.3" font-family="Times,serif" font-size="14.00"> g9 = v8</text>
<text text-anchor="start" x="894.5" y="-827.3" font-family="Times,serif" font-size="14.00"> g7 = v4</text>
<text text-anchor="start" x="894.5" y="-812.3" font-family="Times,serif" font-size="14.00"> v73 = *(IntToPtrCastExpr&lt;ptr&gt;(v8))</text>
<text text-anchor="start" x="894.5" y="-797.3" font-family="Times,serif" font-size="14.00"> *(IntToPtrCastExpr&lt;ptr&gt;(v4)) = v73</text>
<text text-anchor="start" x="894.5" y="-782.3" font-family="Times,serif" font-size="14.00"> g7 = (v4 + v5)</text>
<text text-anchor="start" x="894.5" y="-767.3" font-family="Times,serif" font-size="14.00"> g9 = 1</text>
<text text-anchor="start" x="894.5" y="-752.3" font-family="Times,serif" font-size="14.00"> v63 = g4</text>
<text text-anchor="start" x="894.5" y="-737.3" font-family="Times,serif" font-size="14.00"> v77 = *(IntToPtrCastExpr&lt;ptr&gt;(v63))</text>
<text text-anchor="start" x="894.5" y="-722.3" font-family="Times,serif" font-size="14.00"> v55 = v50</text>
<text text-anchor="start" x="894.5" y="-707.3" font-family="Times,serif" font-size="14.00"> *(&amp;(v55[&#39;4&#39;])) = v22</text>
<text text-anchor="start" x="894.5" y="-692.3" font-family="Times,serif" font-size="14.00"> v84 = g9</text>
<text text-anchor="start" x="894.5" y="-677.3" font-family="Times,serif" font-size="14.00"> v56 = v50</text>
<text text-anchor="start" x="894.5" y="-662.3" font-family="Times,serif" font-size="14.00"> *(&amp;(v56[&#39;7&#39;])) = v84</text>
<text text-anchor="start" x="894.5" y="-647.3" font-family="Times,serif" font-size="14.00"> v65 = v30</text>
<text text-anchor="start" x="894.5" y="-632.3" font-family="Times,serif" font-size="14.00"> g7 = PtrToIntCastExpr&lt;int32&gt;(v65)</text>
<text text-anchor="start" x="894.5" y="-617.3" font-family="Times,serif" font-size="14.00"> v20 = v15</text>
</g>
<!-- Node0xf01d790&#45;&gt;Node0xf01db80 -->
<g id="edge18" class="edge"><title>Node0xf01d790&#45;&gt;Node0xf01db80</title>
<path fill="none" stroke="black" d="M1122,-1479.24C1122,-1469.19 1122,-1455.15 1122,-1438.19"/>
<polygon fill="black" stroke="black" points="1125.5,-1437.88 1122,-1427.88 1118.5,-1437.88 1125.5,-1437.88"/>
<text text-anchor="middle" x="1167.5" y="-1449.8" font-family="Times,serif" font-size="14.00">v24 != False</text>
</g>
<!-- Node0xf01d5f0 -->
<g id="node17" class="node"><title>Node0xf01d5f0</title>
<polygon fill="none" stroke="black" points="1060.5,-519.5 1060.5,-555.5 1183.5,-555.5 1183.5,-519.5 1060.5,-519.5"/>
<text text-anchor="start" x="1068.5" y="-533.8" font-family="Times,serif" font-size="14.00">if (v77 &gt;= 72):</text>
</g>
<!-- Node0xf01db80&#45;&gt;Node0xf01d5f0 -->
<g id="edge20" class="edge"><title>Node0xf01db80&#45;&gt;Node0xf01d5f0</title>
<path fill="none" stroke="black" d="M1122,-609.436C1122,-592.235 1122,-577.386 1122,-565.784"/>
<polygon fill="black" stroke="black" points="1125.5,-565.685 1122,-555.685 1118.5,-565.685 1125.5,-565.685"/>
</g>
<!-- Node0xf01cfe0 -->
<g id="node18" class="node"><title>Node0xf01cfe0</title>
<polygon fill="none" stroke="black" points="976,-308.5 976,-451.5 1268,-451.5 1268,-308.5 976,-308.5"/>
<text text-anchor="start" x="984" y="-436.3" font-family="Times,serif" font-size="14.00">0x40ca39:</text>
<text text-anchor="start" x="984" y="-421.3" font-family="Times,serif" font-size="14.00"> v30 = IntToPtrCastExpr&lt;ptr&gt;(31)</text>
<text text-anchor="start" x="984" y="-406.3" font-family="Times,serif" font-size="14.00"> v32 = BitCastExpr&lt;ptr&gt;(&quot;DISPLAY&quot;)</text>
<text text-anchor="start" x="984" y="-391.3" font-family="Times,serif" font-size="14.00"> v35 = IntToPtrCastExpr&lt;ptr&gt;(32)</text>
<text text-anchor="start" x="984" y="-376.3" font-family="Times,serif" font-size="14.00"> v74 = g4</text>
<text text-anchor="start" x="984" y="-361.3" font-family="Times,serif" font-size="14.00"> v1 = (v74 + 40)</text>
<text text-anchor="start" x="984" y="-346.3" font-family="Times,serif" font-size="14.00"> g4 = v1</text>
<text text-anchor="start" x="984" y="-331.3" font-family="Times,serif" font-size="14.00"> v37 = IntToPtrCastExpr&lt;ptr&gt;(v1)</text>
<text text-anchor="start" x="984" y="-316.3" font-family="Times,serif" font-size="14.00"> _strncpy_s()</text>
</g>
<!-- Node0xf01d5f0&#45;&gt;Node0xf01cfe0 -->
<g id="edge21" class="edge"><title>Node0xf01d5f0&#45;&gt;Node0xf01cfe0</title>
<path fill="none" stroke="black" d="M1122,-519.265C1122,-504.933 1122,-483.422 1122,-461.611"/>
<polygon fill="black" stroke="black" points="1125.5,-461.593 1122,-451.593 1118.5,-461.593 1125.5,-461.593"/>
<text text-anchor="middle" x="1161" y="-473.8" font-family="Times,serif" font-size="14.00">v77 &gt;= 72</text>
</g>
<!-- Node0xf01de70 -->
<g id="node19" class="node"><title>Node0xf01de70</title>
<polygon fill="none" stroke="black" points="750,-97.5 750,-270.5 1036,-270.5 1036,-97.5 750,-97.5"/>
<text text-anchor="start" x="758" y="-255.3" font-family="Times,serif" font-size="14.00">0x40ca4e:</text>
<text text-anchor="start" x="758" y="-240.3" font-family="Times,serif" font-size="14.00"> v64 = g9</text>
<text text-anchor="start" x="758" y="-225.3" font-family="Times,serif" font-size="14.00"> v58 = v64</text>
<text text-anchor="start" x="758" y="-210.3" font-family="Times,serif" font-size="14.00"> v66 = v28</text>
<text text-anchor="start" x="758" y="-195.3" font-family="Times,serif" font-size="14.00"> g9 = PtrToIntCastExpr&lt;int32&gt;(v66)</text>
<text text-anchor="start" x="758" y="-180.3" font-family="Times,serif" font-size="14.00"> v67 = v26</text>
<text text-anchor="start" x="758" y="-165.3" font-family="Times,serif" font-size="14.00"> g4 = PtrToIntCastExpr&lt;int32&gt;(v67)</text>
<text text-anchor="start" x="758" y="-150.3" font-family="Times,serif" font-size="14.00"> result = v58</text>
<text text-anchor="start" x="758" y="-135.3" font-family="Times,serif" font-size="14.00"> v68 = v34</text>
<text text-anchor="start" x="758" y="-120.3" font-family="Times,serif" font-size="14.00"> g3 = v68</text>
<text text-anchor="start" x="758" y="-105.3" font-family="Times,serif" font-size="14.00"> return result</text>
</g>
<!-- Node0xf01d5f0&#45;&gt;Node0xf01de70 -->
<g id="edge22" class="edge"><title>Node0xf01d5f0&#45;&gt;Node0xf01de70</title>
<path fill="none" stroke="black" d="M1060.38,-531.233C1008.53,-523.21 937.224,-502.981 901,-452 866.293,-403.155 864.583,-335.6 871.402,-280.665"/>
<polygon fill="black" stroke="black" points="874.897,-280.94 872.769,-270.561 867.96,-280.002 874.897,-280.94"/>
<text text-anchor="middle" x="934" y="-376.3" font-family="Times,serif" font-size="14.00">v77 &lt; 72</text>
</g>
<!-- Node0xf01cfe0&#45;&gt;Node0xf01de70 -->
<g id="edge23" class="edge"><title>Node0xf01cfe0&#45;&gt;Node0xf01de70</title>
<path fill="none" stroke="black" d="M1038.68,-308.413C1026.71,-298.275 1014.25,-287.72 1001.88,-277.239"/>
<polygon fill="black" stroke="black" points="1004.09,-274.521 994.194,-270.728 999.562,-279.862 1004.09,-274.521"/>
</g>
<!-- Node0xf01de70&#45;&gt;Node0xf01a050 -->
<g id="edge24" class="edge"><title>Node0xf01de70&#45;&gt;Node0xf01a050</title>
<path fill="none" stroke="black" d="M818.518,-97.2233C809.194,-86.4859 800.313,-76.2578 792.805,-67.612"/>
<polygon fill="black" stroke="black" points="795.258,-65.0984 786.059,-59.8425 789.973,-69.688 795.258,-65.0984"/>
</g>
</g>
</svg>
