<?xml version="1.0" encoding="UTF-8" standalone="no"?>
<!DOCTYPE svg PUBLIC "-//W3C//DTD SVG 1.1//EN"
 "http://www.w3.org/Graphics/SVG/1.1/DTD/svg11.dtd">
<!-- Generated by graphviz version 2.38.0 (20140413.2041)
 -->
<!-- Title: Control&#45;flow graph for function &#39;function_415fb1()&#39;. Pages: 1 -->
<svg width="436pt" height="457pt"
 viewBox="0.00 0.00 436.00 457.00" xmlns="http://www.w3.org/2000/svg" xmlns:xlink="http://www.w3.org/1999/xlink">
<g id="graph0" class="graph" transform="scale(1 1) rotate(0) translate(4 453)">
<title>Control&#45;flow graph for function &#39;function_415fb1()&#39;.</title>
<polygon fill="white" stroke="none" points="-4,4 -4,-453 432,-453 432,4 -4,4"/>
<text text-anchor="middle" x="214" y="-7.8" font-family="Times,serif" font-size="14.00">Control&#45;flow graph for function &#39;function_415fb1()&#39;.</text>
<!-- Node0xf43d510 -->
<g id="node1" class="node"><title>Node0xf43d510</title>
<polygon fill="none" stroke="black" points="184.5,-412.5 184.5,-448.5 243.5,-448.5 243.5,-412.5 184.5,-412.5"/>
<text text-anchor="start" x="192.5" y="-426.8" font-family="Times,serif" font-size="14.00">entry:</text>
</g>
<!-- Node0xf43d2d0 -->
<g id="node2" class="node"><title>Node0xf43d2d0</title>
<polygon fill="none" stroke="black" points="0,-276.5 0,-374.5 428,-374.5 428,-276.5 0,-276.5"/>
<text text-anchor="start" x="8" y="-359.3" font-family="Times,serif" font-size="14.00">result</text>
<text text-anchor="start" x="8" y="-344.3" font-family="Times,serif" font-size="14.00"> v1</text>
<text text-anchor="start" x="8" y="-329.3" font-family="Times,serif" font-size="14.00"> v2</text>
<text text-anchor="start" x="8" y="-314.3" font-family="Times,serif" font-size="14.00"> v3</text>
<text text-anchor="start" x="8" y="-299.3" font-family="Times,serif" font-size="14.00"> result = function_41ad9f(PtrToIntCastExpr&lt;int32&gt;(v1))</text>
<text text-anchor="start" x="8" y="-284.3" font-family="Times,serif" font-size="14.00"> g1 = False</text>
</g>
<!-- Node0xf43d510&#45;&gt;Node0xf43d2d0 -->
<g id="edge1" class="edge"><title>Node0xf43d510&#45;&gt;Node0xf43d2d0</title>
<path fill="none" stroke="black" d="M214,-412.492C214,-404.692 214,-394.94 214,-384.829"/>
<polygon fill="black" stroke="black" points="217.5,-384.659 214,-374.659 210.5,-384.659 217.5,-384.659"/>
</g>
<!-- Node0xf43d790 -->
<g id="node3" class="node"><title>Node0xf43d790</title>
<polygon fill="none" stroke="black" points="149,-202.5 149,-238.5 279,-238.5 279,-202.5 149,-202.5"/>
<text text-anchor="start" x="157" y="-216.8" font-family="Times,serif" font-size="14.00">if (result == 0):</text>
</g>
<!-- Node0xf43d2d0&#45;&gt;Node0xf43d790 -->
<g id="edge2" class="edge"><title>Node0xf43d2d0&#45;&gt;Node0xf43d790</title>
<path fill="none" stroke="black" d="M214,-276.317C214,-266.893 214,-257.32 214,-248.868"/>
<polygon fill="black" stroke="black" points="217.5,-248.856 214,-238.856 210.5,-248.856 217.5,-248.856"/>
</g>
<!-- Node0xf43e900 -->
<g id="node4" class="node"><title>Node0xf43e900</title>
<polygon fill="none" stroke="black" points="63,-97.5 63,-150.5 215,-150.5 215,-97.5 63,-97.5"/>
<text text-anchor="start" x="71" y="-135.3" font-family="Times,serif" font-size="14.00">0x415fbf:</text>
<text text-anchor="start" x="71" y="-120.3" font-family="Times,serif" font-size="14.00"> function_4178b1()</text>
<text text-anchor="start" x="71" y="-105.3" font-family="Times,serif" font-size="14.00"> return 0</text>
</g>
<!-- Node0xf43d790&#45;&gt;Node0xf43e900 -->
<g id="edge3" class="edge"><title>Node0xf43d790&#45;&gt;Node0xf43e900</title>
<path fill="none" stroke="black" d="M190.819,-202.441C184.28,-196.986 177.466,-190.63 172,-184 165.914,-176.619 160.358,-167.956 155.611,-159.576"/>
<polygon fill="black" stroke="black" points="158.628,-157.798 150.791,-150.669 152.472,-161.129 158.628,-157.798"/>
<text text-anchor="middle" x="214.5" y="-172.8" font-family="Times,serif" font-size="14.00">result == 0</text>
</g>
<!-- Node0xf43d8b0 -->
<g id="node5" class="node"><title>Node0xf43d8b0</title>
<polygon fill="none" stroke="black" points="233.5,-105 233.5,-143 346.5,-143 346.5,-105 233.5,-105"/>
<text text-anchor="start" x="241.5" y="-127.8" font-family="Times,serif" font-size="14.00">0x415fc4:</text>
<text text-anchor="start" x="241.5" y="-112.8" font-family="Times,serif" font-size="14.00"> return result</text>
</g>
<!-- Node0xf43d790&#45;&gt;Node0xf43d8b0 -->
<g id="edge4" class="edge"><title>Node0xf43d790&#45;&gt;Node0xf43d8b0</title>
<path fill="none" stroke="black" d="M238.199,-202.152C244.756,-196.78 251.543,-190.541 257,-184 264.944,-174.478 271.952,-162.766 277.443,-152.294"/>
<polygon fill="black" stroke="black" points="280.688,-153.631 282.043,-143.123 274.431,-150.492 280.688,-153.631"/>
<text text-anchor="middle" x="307.5" y="-172.8" font-family="Times,serif" font-size="14.00">result != 0</text>
</g>
<!-- Node0xf43d270 -->
<g id="node6" class="node"><title>Node0xf43d270</title>
<polygon fill="none" stroke="black" points="203,-23.5 203,-59.5 257,-59.5 257,-23.5 203,-23.5"/>
<text text-anchor="start" x="211" y="-37.8" font-family="Times,serif" font-size="14.00">exit:</text>
</g>
<!-- Node0xf43e900&#45;&gt;Node0xf43d270 -->
<g id="edge5" class="edge"><title>Node0xf43e900&#45;&gt;Node0xf43d270</title>
<path fill="none" stroke="black" d="M168.043,-97.308C179.261,-87.3849 192.02,-76.0975 203.033,-66.3555"/>
<polygon fill="black" stroke="black" points="205.525,-68.8239 210.696,-59.5766 200.887,-63.5809 205.525,-68.8239"/>
</g>
<!-- Node0xf43d8b0&#45;&gt;Node0xf43d270 -->
<g id="edge6" class="edge"><title>Node0xf43d8b0&#45;&gt;Node0xf43d270</title>
<path fill="none" stroke="black" d="M276.385,-104.733C268.261,-93.8335 257.824,-79.831 248.909,-67.8693"/>
<polygon fill="black" stroke="black" points="251.523,-65.5198 242.741,-59.5935 245.91,-69.7031 251.523,-65.5198"/>
</g>
</g>
</svg>
