<?xml version="1.0" encoding="UTF-8" standalone="no"?>
<!DOCTYPE svg PUBLIC "-//W3C//DTD SVG 1.1//EN"
 "http://www.w3.org/Graphics/SVG/1.1/DTD/svg11.dtd">
<!-- Generated by graphviz version 2.38.0 (20140413.2041)
 -->
<!-- Title: Control&#45;flow graph for function &#39;function_412d91()&#39;. Pages: 1 -->
<svg width="395pt" height="471pt"
 viewBox="0.00 0.00 395.00 471.00" xmlns="http://www.w3.org/2000/svg" xmlns:xlink="http://www.w3.org/1999/xlink">
<g id="graph0" class="graph" transform="scale(1 1) rotate(0) translate(4 467)">
<title>Control&#45;flow graph for function &#39;function_412d91()&#39;.</title>
<polygon fill="white" stroke="none" points="-4,4 -4,-467 391,-467 391,4 -4,4"/>
<text text-anchor="middle" x="193.5" y="-7.8" font-family="Times,serif" font-size="14.00">Control&#45;flow graph for function &#39;function_412d91()&#39;.</text>
<!-- Node0xf302980 -->
<g id="node1" class="node"><title>Node0xf302980</title>
<polygon fill="none" stroke="black" points="164,-426.5 164,-462.5 223,-462.5 223,-426.5 164,-426.5"/>
<text text-anchor="start" x="172" y="-440.8" font-family="Times,serif" font-size="14.00">entry:</text>
</g>
<!-- Node0xf302e50 -->
<g id="node2" class="node"><title>Node0xf302e50</title>
<polygon fill="none" stroke="black" points="43.5,-96.5 43.5,-389.5 343.5,-389.5 343.5,-96.5 43.5,-96.5"/>
<text text-anchor="start" x="51.5" y="-374.3" font-family="Times,serif" font-size="14.00">v1</text>
<text text-anchor="start" x="51.5" y="-359.3" font-family="Times,serif" font-size="14.00"> v2</text>
<text text-anchor="start" x="51.5" y="-344.3" font-family="Times,serif" font-size="14.00"> v3</text>
<text text-anchor="start" x="51.5" y="-329.3" font-family="Times,serif" font-size="14.00"> v4</text>
<text text-anchor="start" x="51.5" y="-314.3" font-family="Times,serif" font-size="14.00"> v5</text>
<text text-anchor="start" x="51.5" y="-299.3" font-family="Times,serif" font-size="14.00"> v6</text>
<text text-anchor="start" x="51.5" y="-284.3" font-family="Times,serif" font-size="14.00"> v7</text>
<text text-anchor="start" x="51.5" y="-269.3" font-family="Times,serif" font-size="14.00"> v8</text>
<text text-anchor="start" x="51.5" y="-254.3" font-family="Times,serif" font-size="14.00"> v9</text>
<text text-anchor="start" x="51.5" y="-239.3" font-family="Times,serif" font-size="14.00"> v10</text>
<text text-anchor="start" x="51.5" y="-224.3" font-family="Times,serif" font-size="14.00"> v5 = v6</text>
<text text-anchor="start" x="51.5" y="-209.3" font-family="Times,serif" font-size="14.00"> g3 = PtrToIntCastExpr&lt;int32&gt;(&amp;(v5))</text>
<text text-anchor="start" x="51.5" y="-194.3" font-family="Times,serif" font-size="14.00"> g2 = PtrToIntCastExpr&lt;int32&gt;(&amp;(v7))</text>
<text text-anchor="start" x="51.5" y="-179.3" font-family="Times,serif" font-size="14.00"> v7 = 4642688</text>
<text text-anchor="start" x="51.5" y="-164.3" font-family="Times,serif" font-size="14.00"> __CxxThrowException_8()</text>
<text text-anchor="start" x="51.5" y="-149.3" font-family="Times,serif" font-size="14.00"> g5 = 4594024</text>
<text text-anchor="start" x="51.5" y="-134.3" font-family="Times,serif" font-size="14.00"> v10 = *(IntToPtrCastExpr&lt;ptr&gt;(4))</text>
<text text-anchor="start" x="51.5" y="-119.3" font-family="Times,serif" font-size="14.00"> IntToPtrCastExpr&lt;ptr&gt;(v10)(0)</text>
<text text-anchor="start" x="51.5" y="-104.3" font-family="Times,serif" font-size="14.00"> return 0</text>
</g>
<!-- Node0xf302980&#45;&gt;Node0xf302e50 -->
<g id="edge1" class="edge"><title>Node0xf302980&#45;&gt;Node0xf302e50</title>
<path fill="none" stroke="black" d="M193.5,-426.491C193.5,-419.279 193.5,-410.145 193.5,-399.824"/>
<polygon fill="black" stroke="black" points="197,-399.59 193.5,-389.59 190,-399.591 197,-399.59"/>
</g>
<!-- Node0xf302dd0 -->
<g id="node3" class="node"><title>Node0xf302dd0</title>
<polygon fill="none" stroke="black" points="166.5,-23.5 166.5,-59.5 220.5,-59.5 220.5,-23.5 166.5,-23.5"/>
<text text-anchor="start" x="174.5" y="-37.8" font-family="Times,serif" font-size="14.00">exit:</text>
</g>
<!-- Node0xf302e50&#45;&gt;Node0xf302dd0 -->
<g id="edge2" class="edge"><title>Node0xf302e50&#45;&gt;Node0xf302dd0</title>
<path fill="none" stroke="black" d="M193.5,-96.4876C193.5,-86.7125 193.5,-77.686 193.5,-69.9233"/>
<polygon fill="black" stroke="black" points="197,-69.8444 193.5,-59.8445 190,-69.8445 197,-69.8444"/>
</g>
</g>
</svg>
