<?xml version="1.0" encoding="UTF-8" standalone="no"?>
<!DOCTYPE svg PUBLIC "-//W3C//DTD SVG 1.1//EN"
 "http://www.w3.org/Graphics/SVG/1.1/DTD/svg11.dtd">
<!-- Generated by graphviz version 2.38.0 (20140413.2041)
 -->
<!-- Title: Control&#45;flow graph for function &#39;function_40bb70(*a1, *a2, a3, a4, a5, a6)&#39;. Pages: 1 -->
<svg width="559pt" height="623pt"
 viewBox="0.00 0.00 559.00 623.00" xmlns="http://www.w3.org/2000/svg" xmlns:xlink="http://www.w3.org/1999/xlink">
<g id="graph0" class="graph" transform="scale(1 1) rotate(0) translate(4 619)">
<title>Control&#45;flow graph for function &#39;function_40bb70(*a1, *a2, a3, a4, a5, a6)&#39;.</title>
<polygon fill="white" stroke="none" points="-4,4 -4,-619 555,-619 555,4 -4,4"/>
<text text-anchor="middle" x="275.5" y="-7.8" font-family="Times,serif" font-size="14.00">Control&#45;flow graph for function &#39;function_40bb70(*a1, *a2, a3, a4, a5, a6)&#39;.</text>
<!-- Node0xefa4170 -->
<g id="node1" class="node"><title>Node0xefa4170</title>
<polygon fill="none" stroke="black" points="246,-501.5 246,-614.5 305,-614.5 305,-501.5 246,-501.5"/>
<text text-anchor="start" x="254" y="-599.3" font-family="Times,serif" font-size="14.00">entry:</text>
<text text-anchor="start" x="254" y="-584.3" font-family="Times,serif" font-size="14.00"> a1</text>
<text text-anchor="start" x="254" y="-569.3" font-family="Times,serif" font-size="14.00"> a2</text>
<text text-anchor="start" x="254" y="-554.3" font-family="Times,serif" font-size="14.00"> a3</text>
<text text-anchor="start" x="254" y="-539.3" font-family="Times,serif" font-size="14.00"> a4</text>
<text text-anchor="start" x="254" y="-524.3" font-family="Times,serif" font-size="14.00"> a5</text>
<text text-anchor="start" x="254" y="-509.3" font-family="Times,serif" font-size="14.00"> a6</text>
</g>
<!-- Node0xefa90b0 -->
<g id="node2" class="node"><title>Node0xefa90b0</title>
<polygon fill="none" stroke="black" points="196.5,-96.5 196.5,-464.5 354.5,-464.5 354.5,-96.5 196.5,-96.5"/>
<text text-anchor="start" x="204.5" y="-449.3" font-family="Times,serif" font-size="14.00">v1</text>
<text text-anchor="start" x="204.5" y="-434.3" font-family="Times,serif" font-size="14.00"> v2</text>
<text text-anchor="start" x="204.5" y="-419.3" font-family="Times,serif" font-size="14.00"> v3</text>
<text text-anchor="start" x="204.5" y="-404.3" font-family="Times,serif" font-size="14.00"> v4</text>
<text text-anchor="start" x="204.5" y="-389.3" font-family="Times,serif" font-size="14.00"> v5</text>
<text text-anchor="start" x="204.5" y="-374.3" font-family="Times,serif" font-size="14.00"> v6</text>
<text text-anchor="start" x="204.5" y="-359.3" font-family="Times,serif" font-size="14.00"> v7</text>
<text text-anchor="start" x="204.5" y="-344.3" font-family="Times,serif" font-size="14.00"> v8</text>
<text text-anchor="start" x="204.5" y="-329.3" font-family="Times,serif" font-size="14.00"> v9</text>
<text text-anchor="start" x="204.5" y="-314.3" font-family="Times,serif" font-size="14.00"> v10</text>
<text text-anchor="start" x="204.5" y="-299.3" font-family="Times,serif" font-size="14.00"> v11</text>
<text text-anchor="start" x="204.5" y="-284.3" font-family="Times,serif" font-size="14.00"> v12</text>
<text text-anchor="start" x="204.5" y="-269.3" font-family="Times,serif" font-size="14.00"> v13</text>
<text text-anchor="start" x="204.5" y="-254.3" font-family="Times,serif" font-size="14.00"> v14</text>
<text text-anchor="start" x="204.5" y="-239.3" font-family="Times,serif" font-size="14.00"> v15</text>
<text text-anchor="start" x="204.5" y="-224.3" font-family="Times,serif" font-size="14.00"> v16</text>
<text text-anchor="start" x="204.5" y="-209.3" font-family="Times,serif" font-size="14.00"> v17</text>
<text text-anchor="start" x="204.5" y="-194.3" font-family="Times,serif" font-size="14.00"> v18</text>
<text text-anchor="start" x="204.5" y="-179.3" font-family="Times,serif" font-size="14.00"> v19</text>
<text text-anchor="start" x="204.5" y="-164.3" font-family="Times,serif" font-size="14.00"> v20</text>
<text text-anchor="start" x="204.5" y="-149.3" font-family="Times,serif" font-size="14.00"> v21</text>
<text text-anchor="start" x="204.5" y="-134.3" font-family="Times,serif" font-size="14.00"> v22</text>
<text text-anchor="start" x="204.5" y="-119.3" font-family="Times,serif" font-size="14.00"> abort()</text>
<text text-anchor="start" x="204.5" y="-104.3" font-family="Times,serif" font-size="14.00"> # UNREACHABLE</text>
</g>
<!-- Node0xefa4170&#45;&gt;Node0xefa90b0 -->
<g id="edge1" class="edge"><title>Node0xefa4170&#45;&gt;Node0xefa90b0</title>
<path fill="none" stroke="black" d="M275.5,-501.248C275.5,-492.993 275.5,-484.119 275.5,-474.841"/>
<polygon fill="black" stroke="black" points="279,-474.625 275.5,-464.625 272,-474.625 279,-474.625"/>
</g>
<!-- Node0xefa9050 -->
<g id="node3" class="node"><title>Node0xefa9050</title>
<polygon fill="none" stroke="black" points="248.5,-23.5 248.5,-59.5 302.5,-59.5 302.5,-23.5 248.5,-23.5"/>
<text text-anchor="start" x="256.5" y="-37.8" font-family="Times,serif" font-size="14.00">exit:</text>
</g>
<!-- Node0xefa90b0&#45;&gt;Node0xefa9050 -->
<g id="edge2" class="edge"><title>Node0xefa90b0&#45;&gt;Node0xefa9050</title>
<path fill="none" stroke="black" d="M275.5,-96.279C275.5,-86.3355 275.5,-77.2691 275.5,-69.5302"/>
<polygon fill="black" stroke="black" points="279,-69.5206 275.5,-59.5207 272,-69.5207 279,-69.5206"/>
</g>
</g>
</svg>
