<?xml version="1.0" encoding="UTF-8" standalone="no"?>
<!DOCTYPE svg PUBLIC "-//W3C//DTD SVG 1.1//EN"
 "http://www.w3.org/Graphics/SVG/1.1/DTD/svg11.dtd">
<!-- Generated by graphviz version 2.38.0 (20140413.2041)
 -->
<!-- Title: Control&#45;flow graph for function &#39;function_427086(a1)&#39;. Pages: 1 -->
<svg width="512pt" height="1315pt"
 viewBox="0.00 0.00 511.50 1315.00" xmlns="http://www.w3.org/2000/svg" xmlns:xlink="http://www.w3.org/1999/xlink">
<g id="graph0" class="graph" transform="scale(1 1) rotate(0) translate(4 1311)">
<title>Control&#45;flow graph for function &#39;function_427086(a1)&#39;.</title>
<polygon fill="white" stroke="none" points="-4,4 -4,-1311 507.5,-1311 507.5,4 -4,4"/>
<text text-anchor="middle" x="251.75" y="-7.8" font-family="Times,serif" font-size="14.00">Control&#45;flow graph for function &#39;function_427086(a1)&#39;.</text>
<!-- Node0xfdd28f0 -->
<g id="node1" class="node"><title>Node0xfdd28f0</title>
<polygon fill="none" stroke="black" points="303.5,-1268.5 303.5,-1306.5 362.5,-1306.5 362.5,-1268.5 303.5,-1268.5"/>
<text text-anchor="start" x="311.5" y="-1291.3" font-family="Times,serif" font-size="14.00">entry:</text>
<text text-anchor="start" x="311.5" y="-1276.3" font-family="Times,serif" font-size="14.00"> a1</text>
</g>
<!-- Node0xfdd2cc0 -->
<g id="node2" class="node"><title>Node0xfdd2cc0</title>
<polygon fill="none" stroke="black" points="162.5,-502.5 162.5,-1230.5 503.5,-1230.5 503.5,-502.5 162.5,-502.5"/>
<text text-anchor="start" x="170.5" y="-1215.3" font-family="Times,serif" font-size="14.00">v1</text>
<text text-anchor="start" x="170.5" y="-1200.3" font-family="Times,serif" font-size="14.00"> v2</text>
<text text-anchor="start" x="170.5" y="-1185.3" font-family="Times,serif" font-size="14.00"> v3</text>
<text text-anchor="start" x="170.5" y="-1170.3" font-family="Times,serif" font-size="14.00"> v4</text>
<text text-anchor="start" x="170.5" y="-1155.3" font-family="Times,serif" font-size="14.00"> v5</text>
<text text-anchor="start" x="170.5" y="-1140.3" font-family="Times,serif" font-size="14.00"> v6</text>
<text text-anchor="start" x="170.5" y="-1125.3" font-family="Times,serif" font-size="14.00"> v7</text>
<text text-anchor="start" x="170.5" y="-1110.3" font-family="Times,serif" font-size="14.00"> v8</text>
<text text-anchor="start" x="170.5" y="-1095.3" font-family="Times,serif" font-size="14.00"> v9</text>
<text text-anchor="start" x="170.5" y="-1080.3" font-family="Times,serif" font-size="14.00"> v10</text>
<text text-anchor="start" x="170.5" y="-1065.3" font-family="Times,serif" font-size="14.00"> v11</text>
<text text-anchor="start" x="170.5" y="-1050.3" font-family="Times,serif" font-size="14.00"> v12</text>
<text text-anchor="start" x="170.5" y="-1035.3" font-family="Times,serif" font-size="14.00"> v13</text>
<text text-anchor="start" x="170.5" y="-1020.3" font-family="Times,serif" font-size="14.00"> v14</text>
<text text-anchor="start" x="170.5" y="-1005.3" font-family="Times,serif" font-size="14.00"> v15</text>
<text text-anchor="start" x="170.5" y="-990.3" font-family="Times,serif" font-size="14.00"> v16</text>
<text text-anchor="start" x="170.5" y="-975.3" font-family="Times,serif" font-size="14.00"> v17</text>
<text text-anchor="start" x="170.5" y="-960.3" font-family="Times,serif" font-size="14.00"> v18</text>
<text text-anchor="start" x="170.5" y="-945.3" font-family="Times,serif" font-size="14.00"> v19</text>
<text text-anchor="start" x="170.5" y="-930.3" font-family="Times,serif" font-size="14.00"> v20</text>
<text text-anchor="start" x="170.5" y="-915.3" font-family="Times,serif" font-size="14.00"> v21</text>
<text text-anchor="start" x="170.5" y="-900.3" font-family="Times,serif" font-size="14.00"> v22</text>
<text text-anchor="start" x="170.5" y="-885.3" font-family="Times,serif" font-size="14.00"> v23</text>
<text text-anchor="start" x="170.5" y="-870.3" font-family="Times,serif" font-size="14.00"> v24</text>
<text text-anchor="start" x="170.5" y="-855.3" font-family="Times,serif" font-size="14.00"> v25</text>
<text text-anchor="start" x="170.5" y="-840.3" font-family="Times,serif" font-size="14.00"> v26</text>
<text text-anchor="start" x="170.5" y="-825.3" font-family="Times,serif" font-size="14.00"> v27</text>
<text text-anchor="start" x="170.5" y="-810.3" font-family="Times,serif" font-size="14.00"> v28</text>
<text text-anchor="start" x="170.5" y="-795.3" font-family="Times,serif" font-size="14.00"> result</text>
<text text-anchor="start" x="170.5" y="-780.3" font-family="Times,serif" font-size="14.00"> v12 = v13</text>
<text text-anchor="start" x="170.5" y="-765.3" font-family="Times,serif" font-size="14.00"> g2 = 4538357</text>
<text text-anchor="start" x="170.5" y="-750.3" font-family="Times,serif" font-size="14.00"> __EH_prolog3_catch()</text>
<text text-anchor="start" x="170.5" y="-735.3" font-family="Times,serif" font-size="14.00"> g9 = 0</text>
<text text-anchor="start" x="170.5" y="-720.3" font-family="Times,serif" font-size="14.00"> v20 = g3</text>
<text text-anchor="start" x="170.5" y="-705.3" font-family="Times,serif" font-size="14.00"> v26 = *(IntToPtrCastExpr&lt;ptr&gt;((v20 + 8)))</text>
<text text-anchor="start" x="170.5" y="-690.3" font-family="Times,serif" font-size="14.00"> v12 = v26</text>
<text text-anchor="start" x="170.5" y="-675.3" font-family="Times,serif" font-size="14.00"> g5 = (v20 + &#45;192)</text>
<text text-anchor="start" x="170.5" y="-660.3" font-family="Times,serif" font-size="14.00"> function_427f49(v26, 1, 0, 0)</text>
<text text-anchor="start" x="170.5" y="-645.3" font-family="Times,serif" font-size="14.00"> v21 = g3</text>
<text text-anchor="start" x="170.5" y="-630.3" font-family="Times,serif" font-size="14.00"> *(IntToPtrCastExpr&lt;ptr&gt;((v21 + 8))) = &#45;1</text>
<text text-anchor="start" x="170.5" y="-615.3" font-family="Times,serif" font-size="14.00"> v22 = g3</text>
<text text-anchor="start" x="170.5" y="-600.3" font-family="Times,serif" font-size="14.00"> v27 = g9</text>
<text text-anchor="start" x="170.5" y="-585.3" font-family="Times,serif" font-size="14.00"> *(IntToPtrCastExpr&lt;ptr&gt;((v22 + &#45;4))) = v27</text>
<text text-anchor="start" x="170.5" y="-570.3" font-family="Times,serif" font-size="14.00"> v18 = g3</text>
<text text-anchor="start" x="170.5" y="-555.3" font-family="Times,serif" font-size="14.00"> g5 = (v18 + &#45;192)</text>
<text text-anchor="start" x="170.5" y="-540.3" font-family="Times,serif" font-size="14.00"> *(IntToPtrCastExpr&lt;ptr&gt;((v18 + &#45;4))) = 1</text>
<text text-anchor="start" x="170.5" y="-525.3" font-family="Times,serif" font-size="14.00"> v1 = v12</text>
<text text-anchor="start" x="170.5" y="-510.3" font-family="Times,serif" font-size="14.00"> v8 = function_427fac(v1)</text>
</g>
<!-- Node0xfdd28f0&#45;&gt;Node0xfdd2cc0 -->
<g id="edge1" class="edge"><title>Node0xfdd28f0&#45;&gt;Node0xfdd2cc0</title>
<path fill="none" stroke="black" d="M333,-1268.5C333,-1261.11 333,-1251.67 333,-1240.64"/>
<polygon fill="black" stroke="black" points="336.5,-1240.54 333,-1230.54 329.5,-1240.54 336.5,-1240.54"/>
</g>
<!-- Node0xfdd1a00 -->
<g id="node3" class="node"><title>Node0xfdd1a00</title>
<polygon fill="none" stroke="black" points="280.5,-428.5 280.5,-464.5 385.5,-464.5 385.5,-428.5 280.5,-428.5"/>
<text text-anchor="start" x="288.5" y="-442.8" font-family="Times,serif" font-size="14.00">if (v8 == 1):</text>
</g>
<!-- Node0xfdd2cc0&#45;&gt;Node0xfdd1a00 -->
<g id="edge2" class="edge"><title>Node0xfdd2cc0&#45;&gt;Node0xfdd1a00</title>
<path fill="none" stroke="black" d="M333,-502.146C333,-491.748 333,-482.501 333,-474.706"/>
<polygon fill="black" stroke="black" points="336.5,-474.682 333,-464.682 329.5,-474.682 336.5,-474.682"/>
</g>
<!-- Node0xfdd3210 -->
<g id="node4" class="node"><title>Node0xfdd3210</title>
<polygon fill="none" stroke="black" points="0,-293.5 0,-376.5 350,-376.5 350,-293.5 0,-293.5"/>
<text text-anchor="start" x="8" y="-361.3" font-family="Times,serif" font-size="14.00">0x4270c4:</text>
<text text-anchor="start" x="8" y="-346.3" font-family="Times,serif" font-size="14.00"> v23 = g3</text>
<text text-anchor="start" x="8" y="-331.3" font-family="Times,serif" font-size="14.00"> v28 = *(IntToPtrCastExpr&lt;ptr&gt;((v23 + &#45;28)))</text>
<text text-anchor="start" x="8" y="-316.3" font-family="Times,serif" font-size="14.00"> g2 = v28</text>
<text text-anchor="start" x="8" y="-301.3" font-family="Times,serif" font-size="14.00"> *(IntToPtrCastExpr&lt;ptr&gt;((v23 + 8))) = v28</text>
</g>
<!-- Node0xfdd1a00&#45;&gt;Node0xfdd3210 -->
<g id="edge3" class="edge"><title>Node0xfdd1a00&#45;&gt;Node0xfdd3210</title>
<path fill="none" stroke="black" d="M308.312,-428.391C290.456,-416.015 265.423,-398.667 241.866,-382.341"/>
<polygon fill="black" stroke="black" points="243.822,-379.438 233.609,-376.618 239.834,-385.191 243.822,-379.438"/>
<text text-anchor="middle" x="308" y="-398.8" font-family="Times,serif" font-size="14.00">v8 == 1</text>
</g>
<!-- Node0xfdd2f00 -->
<g id="node5" class="node"><title>Node0xfdd2f00</title>
<polygon fill="none" stroke="black" points="150.5,-97.5 150.5,-255.5 503.5,-255.5 503.5,-97.5 150.5,-97.5"/>
<text text-anchor="start" x="158.5" y="-240.3" font-family="Times,serif" font-size="14.00">0x4270ca:</text>
<text text-anchor="start" x="158.5" y="-225.3" font-family="Times,serif" font-size="14.00"> v24 = g3</text>
<text text-anchor="start" x="158.5" y="-210.3" font-family="Times,serif" font-size="14.00"> *(IntToPtrCastExpr&lt;ptr&gt;((v24 + &#45;4))) = &#45;1</text>
<text text-anchor="start" x="158.5" y="-195.3" font-family="Times,serif" font-size="14.00"> v19 = g3</text>
<text text-anchor="start" x="158.5" y="-180.3" font-family="Times,serif" font-size="14.00"> g5 = (v19 + &#45;192)</text>
<text text-anchor="start" x="158.5" y="-165.3" font-family="Times,serif" font-size="14.00"> function_427fa1(BitCastExpr&lt;ptr&gt;(&amp;(v12)))</text>
<text text-anchor="start" x="158.5" y="-150.3" font-family="Times,serif" font-size="14.00"> v25 = g3</text>
<text text-anchor="start" x="158.5" y="-135.3" font-family="Times,serif" font-size="14.00"> result = *(IntToPtrCastExpr&lt;ptr&gt;((v25 + 8)))</text>
<text text-anchor="start" x="158.5" y="-120.3" font-family="Times,serif" font-size="14.00"> __EH_epilog3()</text>
<text text-anchor="start" x="158.5" y="-105.3" font-family="Times,serif" font-size="14.00"> return result</text>
</g>
<!-- Node0xfdd1a00&#45;&gt;Node0xfdd2f00 -->
<g id="edge4" class="edge"><title>Node0xfdd1a00&#45;&gt;Node0xfdd2f00</title>
<path fill="none" stroke="black" d="M341.549,-428.265C347.774,-414.708 355.673,-395.142 359,-377 365.735,-340.279 364.03,-329.993 359,-293 357.785,-284.067 356.065,-274.849 354.045,-265.698"/>
<polygon fill="black" stroke="black" points="357.421,-264.76 351.746,-255.813 350.603,-266.346 357.421,-264.76"/>
<text text-anchor="middle" x="390" y="-331.3" font-family="Times,serif" font-size="14.00">v8 != 1</text>
</g>
<!-- Node0xfdd3210&#45;&gt;Node0xfdd2f00 -->
<g id="edge5" class="edge"><title>Node0xfdd3210&#45;&gt;Node0xfdd2f00</title>
<path fill="none" stroke="black" d="M214.539,-293.29C223.688,-283.871 233.759,-273.501 244.002,-262.955"/>
<polygon fill="black" stroke="black" points="246.655,-265.247 251.111,-255.635 241.633,-260.37 246.655,-265.247"/>
</g>
<!-- Node0xfdd19a0 -->
<g id="node6" class="node"><title>Node0xfdd19a0</title>
<polygon fill="none" stroke="black" points="300,-23.5 300,-59.5 354,-59.5 354,-23.5 300,-23.5"/>
<text text-anchor="start" x="308" y="-37.8" font-family="Times,serif" font-size="14.00">exit:</text>
</g>
<!-- Node0xfdd2f00&#45;&gt;Node0xfdd19a0 -->
<g id="edge6" class="edge"><title>Node0xfdd2f00&#45;&gt;Node0xfdd19a0</title>
<path fill="none" stroke="black" d="M327,-97.3641C327,-87.4565 327,-77.9047 327,-69.6254"/>
<polygon fill="black" stroke="black" points="330.5,-69.5515 327,-59.5516 323.5,-69.5516 330.5,-69.5515"/>
</g>
</g>
</svg>
