<?xml version="1.0" encoding="UTF-8" standalone="no"?>
<!DOCTYPE svg PUBLIC "-//W3C//DTD SVG 1.1//EN"
 "http://www.w3.org/Graphics/SVG/1.1/DTD/svg11.dtd">
<!-- Generated by graphviz version 2.38.0 (20140413.2041)
 -->
<!-- Title: Control&#45;flow graph for function &#39;function_41bfa0(*a1)&#39;. Pages: 1 -->
<svg width="692pt" height="897pt"
 viewBox="0.00 0.00 691.50 897.00" xmlns="http://www.w3.org/2000/svg" xmlns:xlink="http://www.w3.org/1999/xlink">
<g id="graph0" class="graph" transform="scale(1 1) rotate(0) translate(4 893)">
<title>Control&#45;flow graph for function &#39;function_41bfa0(*a1)&#39;.</title>
<polygon fill="white" stroke="none" points="-4,4 -4,-893 687.5,-893 687.5,4 -4,4"/>
<text text-anchor="middle" x="341.75" y="-7.8" font-family="Times,serif" font-size="14.00">Control&#45;flow graph for function &#39;function_41bfa0(*a1)&#39;.</text>
<!-- Node0xf699940 -->
<g id="node1" class="node"><title>Node0xf699940</title>
<polygon fill="none" stroke="black" points="322,-850.5 322,-888.5 381,-888.5 381,-850.5 322,-850.5"/>
<text text-anchor="start" x="330" y="-873.3" font-family="Times,serif" font-size="14.00">entry:</text>
<text text-anchor="start" x="330" y="-858.3" font-family="Times,serif" font-size="14.00"> a1</text>
</g>
<!-- Node0xf69b670 -->
<g id="node2" class="node"><title>Node0xf69b670</title>
<polygon fill="none" stroke="black" points="131.5,-384.5 131.5,-812.5 571.5,-812.5 571.5,-384.5 131.5,-384.5"/>
<text text-anchor="start" x="139.5" y="-797.3" font-family="Times,serif" font-size="14.00">v1</text>
<text text-anchor="start" x="139.5" y="-782.3" font-family="Times,serif" font-size="14.00"> v2</text>
<text text-anchor="start" x="139.5" y="-767.3" font-family="Times,serif" font-size="14.00"> v3</text>
<text text-anchor="start" x="139.5" y="-752.3" font-family="Times,serif" font-size="14.00"> v4</text>
<text text-anchor="start" x="139.5" y="-737.3" font-family="Times,serif" font-size="14.00"> result</text>
<text text-anchor="start" x="139.5" y="-722.3" font-family="Times,serif" font-size="14.00"> v5</text>
<text text-anchor="start" x="139.5" y="-707.3" font-family="Times,serif" font-size="14.00"> v6</text>
<text text-anchor="start" x="139.5" y="-692.3" font-family="Times,serif" font-size="14.00"> v7</text>
<text text-anchor="start" x="139.5" y="-677.3" font-family="Times,serif" font-size="14.00"> v8</text>
<text text-anchor="start" x="139.5" y="-662.3" font-family="Times,serif" font-size="14.00"> v9</text>
<text text-anchor="start" x="139.5" y="-647.3" font-family="Times,serif" font-size="14.00"> v10</text>
<text text-anchor="start" x="139.5" y="-632.3" font-family="Times,serif" font-size="14.00"> v11</text>
<text text-anchor="start" x="139.5" y="-617.3" font-family="Times,serif" font-size="14.00"> v12</text>
<text text-anchor="start" x="139.5" y="-602.3" font-family="Times,serif" font-size="14.00"> v13</text>
<text text-anchor="start" x="139.5" y="-587.3" font-family="Times,serif" font-size="14.00"> v14</text>
<text text-anchor="start" x="139.5" y="-572.3" font-family="Times,serif" font-size="14.00"> v15</text>
<text text-anchor="start" x="139.5" y="-557.3" font-family="Times,serif" font-size="14.00"> v16</text>
<text text-anchor="start" x="139.5" y="-542.3" font-family="Times,serif" font-size="14.00"> v10 = v11</text>
<text text-anchor="start" x="139.5" y="-527.3" font-family="Times,serif" font-size="14.00"> v10 = a1</text>
<text text-anchor="start" x="139.5" y="-512.3" font-family="Times,serif" font-size="14.00"> v12 = g5</text>
<text text-anchor="start" x="139.5" y="-497.3" font-family="Times,serif" font-size="14.00"> g9 = v12</text>
<text text-anchor="start" x="139.5" y="-482.3" font-family="Times,serif" font-size="14.00"> v15 = *(IntToPtrCastExpr&lt;ptr&gt;((v12 + 8)))</text>
<text text-anchor="start" x="139.5" y="-467.3" font-family="Times,serif" font-size="14.00"> result = function_41bf1d(IntToPtrCastExpr&lt;ptr&gt;(v15), 0)</text>
<text text-anchor="start" x="139.5" y="-452.3" font-family="Times,serif" font-size="14.00"> *(IntToPtrCastExpr&lt;ptr&gt;((result + 8))) = v7</text>
<text text-anchor="start" x="139.5" y="-437.3" font-family="Times,serif" font-size="14.00"> v13 = g9</text>
<text text-anchor="start" x="139.5" y="-422.3" font-family="Times,serif" font-size="14.00"> v16 = *(IntToPtrCastExpr&lt;ptr&gt;((v13 + 8)))</text>
<text text-anchor="start" x="139.5" y="-407.3" font-family="Times,serif" font-size="14.00"> g5 = v16</text>
<text text-anchor="start" x="139.5" y="-392.3" font-family="Times,serif" font-size="14.00"> g1 = False</text>
</g>
<!-- Node0xf699940&#45;&gt;Node0xf69b670 -->
<g id="edge1" class="edge"><title>Node0xf699940&#45;&gt;Node0xf69b670</title>
<path fill="none" stroke="black" d="M351.5,-850.432C351.5,-843.037 351.5,-833.682 351.5,-822.96"/>
<polygon fill="black" stroke="black" points="355,-822.745 351.5,-812.745 348,-822.745 355,-822.745"/>
</g>
<!-- Node0xf69b610 -->
<g id="node3" class="node"><title>Node0xf69b610</title>
<polygon fill="none" stroke="black" points="294.5,-308.5 294.5,-346.5 408.5,-346.5 408.5,-308.5 294.5,-308.5"/>
<text text-anchor="start" x="302.5" y="-331.3" font-family="Times,serif" font-size="14.00">if (v16 == 0):</text>
<text text-anchor="start" x="302.5" y="-316.3" font-family="Times,serif" font-size="14.00"> else:</text>
</g>
<!-- Node0xf69b670&#45;&gt;Node0xf69b610 -->
<g id="edge2" class="edge"><title>Node0xf69b670&#45;&gt;Node0xf69b610</title>
<path fill="none" stroke="black" d="M351.5,-384.237C351.5,-373.891 351.5,-364.505 351.5,-356.509"/>
<polygon fill="black" stroke="black" points="355,-356.509 351.5,-346.509 348,-356.509 355,-356.509"/>
</g>
<!-- Node0xf69d230 -->
<g id="node4" class="node"><title>Node0xf69d230</title>
<polygon fill="none" stroke="black" points="0,-218.5 0,-256.5 353,-256.5 353,-218.5 0,-218.5"/>
<text text-anchor="start" x="8" y="-241.3" font-family="Times,serif" font-size="14.00">0x41bfbf:</text>
<text text-anchor="start" x="8" y="-226.3" font-family="Times,serif" font-size="14.00"> *(IntToPtrCastExpr&lt;ptr&gt;((v13 + 4))) = result</text>
</g>
<!-- Node0xf69b610&#45;&gt;Node0xf69d230 -->
<g id="edge3" class="edge"><title>Node0xf69b610&#45;&gt;Node0xf69d230</title>
<path fill="none" stroke="black" d="M315.664,-308.48C288.504,-294.822 250.998,-275.962 221.765,-261.262"/>
<polygon fill="black" stroke="black" points="223.095,-258.013 212.589,-256.647 219.95,-264.267 223.095,-258.013"/>
<text text-anchor="middle" x="309" y="-278.8" font-family="Times,serif" font-size="14.00">v16 == 0</text>
</g>
<!-- Node0xf69d2b0 -->
<g id="node5" class="node"><title>Node0xf69d2b0</title>
<polygon fill="none" stroke="black" points="371.5,-218.5 371.5,-256.5 683.5,-256.5 683.5,-218.5 371.5,-218.5"/>
<text text-anchor="start" x="379.5" y="-241.3" font-family="Times,serif" font-size="14.00">0x41bfbb:</text>
<text text-anchor="start" x="379.5" y="-226.3" font-family="Times,serif" font-size="14.00"> *(IntToPtrCastExpr&lt;ptr&gt;(v16)) = result</text>
</g>
<!-- Node0xf69b610&#45;&gt;Node0xf69d2b0 -->
<g id="edge4" class="edge"><title>Node0xf69b610&#45;&gt;Node0xf69d2b0</title>
<path fill="none" stroke="black" d="M387.541,-308.48C414.856,-294.822 452.576,-275.962 481.976,-261.262"/>
<polygon fill="black" stroke="black" points="483.826,-264.25 491.205,-256.647 480.696,-257.989 483.826,-264.25"/>
<text text-anchor="middle" x="482" y="-278.8" font-family="Times,serif" font-size="14.00">v16 != 0</text>
</g>
<!-- Node0xf69b760 -->
<g id="node6" class="node"><title>Node0xf69b760</title>
<polygon fill="none" stroke="black" points="216,-97.5 216,-180.5 569,-180.5 569,-97.5 216,-97.5"/>
<text text-anchor="start" x="224" y="-165.3" font-family="Times,serif" font-size="14.00">0x41bfc2:</text>
<text text-anchor="start" x="224" y="-150.3" font-family="Times,serif" font-size="14.00"> v14 = g9</text>
<text text-anchor="start" x="224" y="-135.3" font-family="Times,serif" font-size="14.00"> *(IntToPtrCastExpr&lt;ptr&gt;((v14 + 8))) = result</text>
<text text-anchor="start" x="224" y="-120.3" font-family="Times,serif" font-size="14.00"> g9 = v15</text>
<text text-anchor="start" x="224" y="-105.3" font-family="Times,serif" font-size="14.00"> return result</text>
</g>
<!-- Node0xf69d230&#45;&gt;Node0xf69b760 -->
<g id="edge5" class="edge"><title>Node0xf69d230&#45;&gt;Node0xf69b760</title>
<path fill="none" stroke="black" d="M216.875,-218.462C238.283,-208.898 265.624,-196.683 292.324,-184.755"/>
<polygon fill="black" stroke="black" points="294.028,-187.827 301.73,-180.552 291.172,-181.436 294.028,-187.827"/>
</g>
<!-- Node0xf69d2b0&#45;&gt;Node0xf69b760 -->
<g id="edge6" class="edge"><title>Node0xf69d2b0&#45;&gt;Node0xf69b760</title>
<path fill="none" stroke="black" d="M502.108,-218.349C489.424,-209.283 473.439,-197.856 457.627,-186.554"/>
<polygon fill="black" stroke="black" points="459.564,-183.636 449.393,-180.668 455.493,-189.331 459.564,-183.636"/>
</g>
<!-- Node0xf69c8c0 -->
<g id="node7" class="node"><title>Node0xf69c8c0</title>
<polygon fill="none" stroke="black" points="365.5,-23.5 365.5,-59.5 419.5,-59.5 419.5,-23.5 365.5,-23.5"/>
<text text-anchor="start" x="373.5" y="-37.8" font-family="Times,serif" font-size="14.00">exit:</text>
</g>
<!-- Node0xf69b760&#45;&gt;Node0xf69c8c0 -->
<g id="edge7" class="edge"><title>Node0xf69b760&#45;&gt;Node0xf69c8c0</title>
<path fill="none" stroke="black" d="M392.5,-97.4994C392.5,-88.2058 392.5,-78.537 392.5,-69.9459"/>
<polygon fill="black" stroke="black" points="396,-69.7494 392.5,-59.7494 389,-69.7494 396,-69.7494"/>
</g>
</g>
</svg>
