<?xml version="1.0" encoding="UTF-8" standalone="no"?>
<!DOCTYPE svg PUBLIC "-//W3C//DTD SVG 1.1//EN"
 "http://www.w3.org/Graphics/SVG/1.1/DTD/svg11.dtd">
<!-- Generated by graphviz version 2.38.0 (20140413.2041)
 -->
<!-- Title: Control&#45;flow graph for function &#39;function_40c690()&#39;. Pages: 1 -->
<svg width="979pt" height="2768pt"
 viewBox="0.00 0.00 979.00 2768.00" xmlns="http://www.w3.org/2000/svg" xmlns:xlink="http://www.w3.org/1999/xlink">
<g id="graph0" class="graph" transform="scale(1 1) rotate(0) translate(4 2764)">
<title>Control&#45;flow graph for function &#39;function_40c690()&#39;.</title>
<polygon fill="white" stroke="none" points="-4,4 -4,-2764 975,-2764 975,4 -4,4"/>
<text text-anchor="middle" x="485.5" y="-7.8" font-family="Times,serif" font-size="14.00">Control&#45;flow graph for function &#39;function_40c690()&#39;.</text>
<!-- Node0xefb2ef0 -->
<g id="node1" class="node"><title>Node0xefb2ef0</title>
<polygon fill="none" stroke="black" points="506,-2723.5 506,-2759.5 565,-2759.5 565,-2723.5 506,-2723.5"/>
<text text-anchor="start" x="514" y="-2737.8" font-family="Times,serif" font-size="14.00">entry:</text>
</g>
<!-- Node0xf00e770 -->
<g id="node2" class="node"><title>Node0xf00e770</title>
<polygon fill="none" stroke="black" points="272,-1762.5 272,-2685.5 799,-2685.5 799,-1762.5 272,-1762.5"/>
<text text-anchor="start" x="280" y="-2670.3" font-family="Times,serif" font-size="14.00">v1</text>
<text text-anchor="start" x="280" y="-2655.3" font-family="Times,serif" font-size="14.00"> v2</text>
<text text-anchor="start" x="280" y="-2640.3" font-family="Times,serif" font-size="14.00"> v3</text>
<text text-anchor="start" x="280" y="-2625.3" font-family="Times,serif" font-size="14.00"> v4</text>
<text text-anchor="start" x="280" y="-2610.3" font-family="Times,serif" font-size="14.00"> v5</text>
<text text-anchor="start" x="280" y="-2595.3" font-family="Times,serif" font-size="14.00"> v6</text>
<text text-anchor="start" x="280" y="-2580.3" font-family="Times,serif" font-size="14.00"> v7</text>
<text text-anchor="start" x="280" y="-2565.3" font-family="Times,serif" font-size="14.00"> v8</text>
<text text-anchor="start" x="280" y="-2550.3" font-family="Times,serif" font-size="14.00"> v9</text>
<text text-anchor="start" x="280" y="-2535.3" font-family="Times,serif" font-size="14.00"> v10</text>
<text text-anchor="start" x="280" y="-2520.3" font-family="Times,serif" font-size="14.00"> v11</text>
<text text-anchor="start" x="280" y="-2505.3" font-family="Times,serif" font-size="14.00"> v12</text>
<text text-anchor="start" x="280" y="-2490.3" font-family="Times,serif" font-size="14.00"> v13</text>
<text text-anchor="start" x="280" y="-2475.3" font-family="Times,serif" font-size="14.00"> v14</text>
<text text-anchor="start" x="280" y="-2460.3" font-family="Times,serif" font-size="14.00"> lpFilename</text>
<text text-anchor="start" x="280" y="-2445.3" font-family="Times,serif" font-size="14.00"> v15</text>
<text text-anchor="start" x="280" y="-2430.3" font-family="Times,serif" font-size="14.00"> v16</text>
<text text-anchor="start" x="280" y="-2415.3" font-family="Times,serif" font-size="14.00"> v17</text>
<text text-anchor="start" x="280" y="-2400.3" font-family="Times,serif" font-size="14.00"> v18</text>
<text text-anchor="start" x="280" y="-2385.3" font-family="Times,serif" font-size="14.00"> v19</text>
<text text-anchor="start" x="280" y="-2370.3" font-family="Times,serif" font-size="14.00"> v20</text>
<text text-anchor="start" x="280" y="-2355.3" font-family="Times,serif" font-size="14.00"> v21</text>
<text text-anchor="start" x="280" y="-2340.3" font-family="Times,serif" font-size="14.00"> v22</text>
<text text-anchor="start" x="280" y="-2325.3" font-family="Times,serif" font-size="14.00"> v23</text>
<text text-anchor="start" x="280" y="-2310.3" font-family="Times,serif" font-size="14.00"> v24</text>
<text text-anchor="start" x="280" y="-2295.3" font-family="Times,serif" font-size="14.00"> v25</text>
<text text-anchor="start" x="280" y="-2280.3" font-family="Times,serif" font-size="14.00"> v26</text>
<text text-anchor="start" x="280" y="-2265.3" font-family="Times,serif" font-size="14.00"> v27</text>
<text text-anchor="start" x="280" y="-2250.3" font-family="Times,serif" font-size="14.00"> v28</text>
<text text-anchor="start" x="280" y="-2235.3" font-family="Times,serif" font-size="14.00"> v29</text>
<text text-anchor="start" x="280" y="-2220.3" font-family="Times,serif" font-size="14.00"> v30</text>
<text text-anchor="start" x="280" y="-2205.3" font-family="Times,serif" font-size="14.00"> v31</text>
<text text-anchor="start" x="280" y="-2190.3" font-family="Times,serif" font-size="14.00"> v32</text>
<text text-anchor="start" x="280" y="-2175.3" font-family="Times,serif" font-size="14.00"> v33</text>
<text text-anchor="start" x="280" y="-2160.3" font-family="Times,serif" font-size="14.00"> v34</text>
<text text-anchor="start" x="280" y="-2145.3" font-family="Times,serif" font-size="14.00"> v35</text>
<text text-anchor="start" x="280" y="-2130.3" font-family="Times,serif" font-size="14.00"> v36</text>
<text text-anchor="start" x="280" y="-2115.3" font-family="Times,serif" font-size="14.00"> v37</text>
<text text-anchor="start" x="280" y="-2100.3" font-family="Times,serif" font-size="14.00"> v38</text>
<text text-anchor="start" x="280" y="-2085.3" font-family="Times,serif" font-size="14.00"> v39</text>
<text text-anchor="start" x="280" y="-2070.3" font-family="Times,serif" font-size="14.00"> v40</text>
<text text-anchor="start" x="280" y="-2055.3" font-family="Times,serif" font-size="14.00"> v41</text>
<text text-anchor="start" x="280" y="-2040.3" font-family="Times,serif" font-size="14.00"> v42</text>
<text text-anchor="start" x="280" y="-2025.3" font-family="Times,serif" font-size="14.00"> v43</text>
<text text-anchor="start" x="280" y="-2010.3" font-family="Times,serif" font-size="14.00"> v44</text>
<text text-anchor="start" x="280" y="-1995.3" font-family="Times,serif" font-size="14.00"> v45</text>
<text text-anchor="start" x="280" y="-1980.3" font-family="Times,serif" font-size="14.00"> lpFilename = v17</text>
<text text-anchor="start" x="280" y="-1965.3" font-family="Times,serif" font-size="14.00"> v13 = v14</text>
<text text-anchor="start" x="280" y="-1950.3" font-family="Times,serif" font-size="14.00"> v27 = v28</text>
<text text-anchor="start" x="280" y="-1935.3" font-family="Times,serif" font-size="14.00"> v5 = PtrToIntCastExpr&lt;int32&gt;(&amp;(lpFilename))</text>
<text text-anchor="start" x="280" y="-1920.3" font-family="Times,serif" font-size="14.00"> g2 = v5</text>
<text text-anchor="start" x="280" y="-1905.3" font-family="Times,serif" font-size="14.00"> _memset(BitCastExpr&lt;ptr&gt;(&amp;(lpFilename)))</text>
<text text-anchor="start" x="280" y="-1890.3" font-family="Times,serif" font-size="14.00"> v30 = g9</text>
<text text-anchor="start" x="280" y="-1875.3" font-family="Times,serif" font-size="14.00"> _memset(IntToPtrCastExpr&lt;ptr&gt;(v30))</text>
<text text-anchor="start" x="280" y="-1860.3" font-family="Times,serif" font-size="14.00"> GetModuleFileNameA(NULL, BitCastExpr&lt;ptr&gt;(&amp;(lpFilename)), 256)</text>
<text text-anchor="start" x="280" y="-1845.3" font-family="Times,serif" font-size="14.00"> g2 = v5</text>
<text text-anchor="start" x="280" y="-1830.3" font-family="Times,serif" font-size="14.00"> v6 = PtrToIntCastExpr&lt;int32&gt;(&amp;(v13))</text>
<text text-anchor="start" x="280" y="-1815.3" font-family="Times,serif" font-size="14.00"> g8 = v6</text>
<text text-anchor="start" x="280" y="-1800.3" font-family="Times,serif" font-size="14.00"> v15 = lpFilename</text>
<text text-anchor="start" x="280" y="-1785.3" font-family="Times,serif" font-size="14.00"> v42 = v5</text>
<text text-anchor="start" x="280" y="-1770.3" font-family="Times,serif" font-size="14.00"> v39 = v5</text>
</g>
<!-- Node0xefb2ef0&#45;&gt;Node0xf00e770 -->
<g id="edge1" class="edge"><title>Node0xefb2ef0&#45;&gt;Node0xf00e770</title>
<path fill="none" stroke="black" d="M535.5,-2723.35C535.5,-2716.12 535.5,-2706.8 535.5,-2695.79"/>
<polygon fill="black" stroke="black" points="539,-2695.68 535.5,-2685.68 532,-2695.68 539,-2695.68"/>
</g>
<!-- Node0xefbd540 -->
<g id="node3" class="node"><title>Node0xefbd540</title>
<polygon fill="none" stroke="black" points="487,-1688.5 487,-1724.5 584,-1724.5 584,-1688.5 487,-1688.5"/>
<text text-anchor="start" x="495" y="-1702.8" font-family="Times,serif" font-size="14.00">while True:</text>
</g>
<!-- Node0xf00e770&#45;&gt;Node0xefbd540 -->
<g id="edge2" class="edge"><title>Node0xf00e770&#45;&gt;Node0xefbd540</title>
<path fill="none" stroke="black" d="M535.5,-1762.18C535.5,-1751.65 535.5,-1742.35 535.5,-1734.54"/>
<polygon fill="black" stroke="black" points="539,-1734.53 535.5,-1724.53 532,-1734.53 539,-1734.53"/>
</g>
<!-- Node0xefc3b70 -->
<g id="node4" class="node"><title>Node0xefc3b70</title>
<polygon fill="none" stroke="black" points="188,-1553.5 188,-1636.5 561,-1636.5 561,-1553.5 188,-1553.5"/>
<text text-anchor="start" x="196" y="-1621.3" font-family="Times,serif" font-size="14.00">0x40c6e0:</text>
<text text-anchor="start" x="196" y="-1606.3" font-family="Times,serif" font-size="14.00"> v33 = *(&amp;(v15[v39]))</text>
<text text-anchor="start" x="196" y="-1591.3" font-family="Times,serif" font-size="14.00"> v44 = (ExtCastExpr&lt;int32&gt;(v33) | (v42 &amp; &#45;256))</text>
<text text-anchor="start" x="196" y="-1576.3" font-family="Times,serif" font-size="14.00"> v1 = (v39 + 1)</text>
<text text-anchor="start" x="196" y="-1561.3" font-family="Times,serif" font-size="14.00"> g2 = v1</text>
</g>
<!-- Node0xefbd540&#45;&gt;Node0xefc3b70 -->
<g id="edge3" class="edge"><title>Node0xefbd540&#45;&gt;Node0xefc3b70</title>
<path fill="none" stroke="black" d="M510.344,-1688.39C492.148,-1676.02 466.64,-1658.67 442.635,-1642.34"/>
<polygon fill="black" stroke="black" points="444.459,-1639.35 434.222,-1636.62 440.522,-1645.14 444.459,-1639.35"/>
<text text-anchor="middle" x="496.5" y="-1658.8" font-family="Times,serif" font-size="14.00">True</text>
</g>
<!-- Node0xefc3bd0 -->
<g id="node5" class="node"><title>Node0xefc3bd0</title>
<polygon fill="none" stroke="black" points="350.5,-1479.5 350.5,-1515.5 464.5,-1515.5 464.5,-1479.5 350.5,-1479.5"/>
<text text-anchor="start" x="358.5" y="-1493.8" font-family="Times,serif" font-size="14.00">if (v44 == 0):</text>
</g>
<!-- Node0xefc3b70&#45;&gt;Node0xefc3bd0 -->
<g id="edge4" class="edge"><title>Node0xefc3b70&#45;&gt;Node0xefc3bd0</title>
<path fill="none" stroke="black" d="M388.495,-1553.5C391.778,-1544 395.196,-1534.11 398.213,-1525.37"/>
<polygon fill="black" stroke="black" points="401.581,-1526.34 401.539,-1515.75 394.965,-1524.06 401.581,-1526.34"/>
</g>
<!-- Node0xefb97c0 -->
<g id="node6" class="node"><title>Node0xefb97c0</title>
<polygon fill="none" stroke="black" points="328.5,-1382 328.5,-1420 486.5,-1420 486.5,-1382 328.5,-1382"/>
<text text-anchor="start" x="336.5" y="-1404.8" font-family="Times,serif" font-size="14.00">break &#45;&gt; 0x40c6e9:</text>
<text text-anchor="start" x="336.5" y="-1389.8" font-family="Times,serif" font-size="14.00"> break</text>
</g>
<!-- Node0xefc3bd0&#45;&gt;Node0xefb97c0 -->
<g id="edge5" class="edge"><title>Node0xefc3bd0&#45;&gt;Node0xefb97c0</title>
<path fill="none" stroke="black" d="M407.5,-1479.17C407.5,-1465.57 407.5,-1446.37 407.5,-1430.52"/>
<polygon fill="black" stroke="black" points="411,-1430.19 407.5,-1420.19 404,-1430.19 411,-1430.19"/>
<text text-anchor="middle" x="442" y="-1449.8" font-family="Times,serif" font-size="14.00">v44 == 0</text>
</g>
<!-- Node0xefb5890 -->
<g id="node7" class="node"><title>Node0xefb5890</title>
<polygon fill="none" stroke="black" points="524.5,-1374.5 524.5,-1427.5 614.5,-1427.5 614.5,-1374.5 524.5,-1374.5"/>
<text text-anchor="start" x="532.5" y="-1412.3" font-family="Times,serif" font-size="14.00">v42 = v44</text>
<text text-anchor="start" x="532.5" y="-1397.3" font-family="Times,serif" font-size="14.00"> v39 = v1</text>
<text text-anchor="start" x="532.5" y="-1382.3" font-family="Times,serif" font-size="14.00"> continue</text>
</g>
<!-- Node0xefc3bd0&#45;&gt;Node0xefb5890 -->
<g id="edge6" class="edge"><title>Node0xefc3bd0&#45;&gt;Node0xefb5890</title>
<path fill="none" stroke="black" d="M445.132,-1479.38C456.648,-1473.82 469.242,-1467.43 480.5,-1461 495.297,-1452.55 510.942,-1442.56 524.919,-1433.23"/>
<polygon fill="black" stroke="black" points="527.048,-1436.01 533.383,-1427.52 523.135,-1430.21 527.048,-1436.01"/>
<text text-anchor="middle" x="535" y="-1449.8" font-family="Times,serif" font-size="14.00">v44 != 0</text>
</g>
<!-- Node0x6667690 -->
<g id="node8" class="node"><title>Node0x6667690</title>
<polygon fill="none" stroke="black" points="253.5,-1268.5 253.5,-1336.5 561.5,-1336.5 561.5,-1268.5 253.5,-1268.5"/>
<text text-anchor="start" x="261.5" y="-1321.3" font-family="Times,serif" font-size="14.00">0x40c6e9:</text>
<text text-anchor="start" x="261.5" y="-1306.3" font-family="Times,serif" font-size="14.00"> v4 = PtrToIntCastExpr&lt;int32&gt;(&amp;(v27))</text>
<text text-anchor="start" x="261.5" y="-1291.3" font-family="Times,serif" font-size="14.00"> v2 = ((v1 &#45; v6) + &#45;1)</text>
<text text-anchor="start" x="261.5" y="-1276.3" font-family="Times,serif" font-size="14.00"> g2 = v2</text>
</g>
<!-- Node0xefb97c0&#45;&gt;Node0x6667690 -->
<g id="edge7" class="edge"><title>Node0xefb97c0&#45;&gt;Node0x6667690</title>
<path fill="none" stroke="black" d="M407.5,-1381.85C407.5,-1371.95 407.5,-1359.25 407.5,-1346.96"/>
<polygon fill="black" stroke="black" points="411,-1346.8 407.5,-1336.8 404,-1346.8 411,-1346.8"/>
</g>
<!-- Node0xefb5890&#45;&gt;Node0xefbd540 -->
<g id="edge8" class="edge"><title>Node0xefb5890&#45;&gt;Node0xefbd540</title>
<path fill="none" stroke="black" d="M573.343,-1427.84C579.004,-1471.59 587.131,-1562.77 569.5,-1637 565.979,-1651.82 558.783,-1667.12 551.915,-1679.49"/>
<polygon fill="black" stroke="black" points="548.782,-1677.91 546.792,-1688.32 554.837,-1681.43 548.782,-1677.91"/>
</g>
<!-- Node0xefbc500 -->
<g id="node9" class="node"><title>Node0xefbc500</title>
<polygon fill="none" stroke="black" points="361,-1192.5 361,-1230.5 454,-1230.5 454,-1192.5 361,-1192.5"/>
<text text-anchor="start" x="369" y="-1215.3" font-family="Times,serif" font-size="14.00">if (v2 &lt; 0):</text>
<text text-anchor="start" x="369" y="-1200.3" font-family="Times,serif" font-size="14.00"> else:</text>
</g>
<!-- Node0x6667690&#45;&gt;Node0xefbc500 -->
<g id="edge9" class="edge"><title>Node0x6667690&#45;&gt;Node0xefbc500</title>
<path fill="none" stroke="black" d="M407.5,-1268.36C407.5,-1259.36 407.5,-1249.71 407.5,-1240.99"/>
<polygon fill="black" stroke="black" points="411,-1240.94 407.5,-1230.94 404,-1240.94 411,-1240.94"/>
</g>
<!-- Node0xefbfff0 -->
<g id="node10" class="node"><title>Node0xefbfff0</title>
<polygon fill="none" stroke="black" points="267,-1072.5 267,-1140.5 362,-1140.5 362,-1072.5 267,-1072.5"/>
<text text-anchor="start" x="275" y="-1125.3" font-family="Times,serif" font-size="14.00">0x40c6e9:</text>
<text text-anchor="start" x="275" y="-1110.3" font-family="Times,serif" font-size="14.00"> v35 = g10</text>
<text text-anchor="start" x="275" y="-1095.3" font-family="Times,serif" font-size="14.00"> v34 = v35</text>
<text text-anchor="start" x="275" y="-1080.3" font-family="Times,serif" font-size="14.00"> v31 = v2</text>
</g>
<!-- Node0xefbc500&#45;&gt;Node0xefbfff0 -->
<g id="edge10" class="edge"><title>Node0xefbc500&#45;&gt;Node0xefbfff0</title>
<path fill="none" stroke="black" d="M390.873,-1192.09C379.929,-1179.96 365.155,-1163.6 351.517,-1148.5"/>
<polygon fill="black" stroke="black" points="353.815,-1145.82 344.516,-1140.74 348.62,-1150.51 353.815,-1145.82"/>
<text text-anchor="middle" x="396.5" y="-1162.8" font-family="Times,serif" font-size="14.00">v2 &lt; 0</text>
</g>
<!-- Node0xefc5810 -->
<g id="node11" class="node"><title>Node0xefc5810</title>
<polygon fill="none" stroke="black" points="571,-1080 571,-1133 666,-1133 666,-1080 571,-1080"/>
<text text-anchor="start" x="579" y="-1117.8" font-family="Times,serif" font-size="14.00">0x40c6f0:</text>
<text text-anchor="start" x="579" y="-1102.8" font-family="Times,serif" font-size="14.00"> v38 = g10</text>
<text text-anchor="start" x="579" y="-1087.8" font-family="Times,serif" font-size="14.00"> v40 = v2</text>
</g>
<!-- Node0xefbc500&#45;&gt;Node0xefc5810 -->
<g id="edge11" class="edge"><title>Node0xefbc500&#45;&gt;Node0xefc5810</title>
<path fill="none" stroke="black" d="M444.737,-1192.32C477.129,-1176.51 524.568,-1153.35 561.698,-1135.23"/>
<polygon fill="black" stroke="black" points="563.449,-1138.27 570.9,-1130.74 560.378,-1131.98 563.449,-1138.27"/>
<text text-anchor="middle" x="543.5" y="-1162.8" font-family="Times,serif" font-size="14.00">v2 &gt;= 0</text>
</g>
<!-- Node0xefbc560 -->
<g id="node12" class="node"><title>Node0xefbc560</title>
<polygon fill="none" stroke="black" points="0,-866.5 0,-979.5 563,-979.5 563,-866.5 0,-866.5"/>
<text text-anchor="start" x="8" y="-964.3" font-family="Times,serif" font-size="14.00">0x40c6fc:</text>
<text text-anchor="start" x="8" y="-949.3" font-family="Times,serif" font-size="14.00"> g2 = (v31 &amp; &#45;256)</text>
<text text-anchor="start" x="8" y="-934.3" font-family="Times,serif" font-size="14.00"> g5 = (v34 ^ v4)</text>
<text text-anchor="start" x="8" y="-919.3" font-family="Times,serif" font-size="14.00"> v11 = function_43c16e(BitCastExpr&lt;ptr&gt;(v15), NULL, NULL, NULL, 0, 0)</text>
<text text-anchor="start" x="8" y="-904.3" font-family="Times,serif" font-size="14.00"> v36 = g10</text>
<text text-anchor="start" x="8" y="-889.3" font-family="Times,serif" font-size="14.00"> g1 = (v36 &gt; 4294967035)</text>
<text text-anchor="start" x="8" y="-874.3" font-family="Times,serif" font-size="14.00"> return PtrToIntCastExpr&lt;int32&gt;(v11)</text>
</g>
<!-- Node0xefbfff0&#45;&gt;Node0xefbc560 -->
<g id="edge12" class="edge"><title>Node0xefbfff0&#45;&gt;Node0xefbc560</title>
<path fill="none" stroke="black" d="M308.447,-1072.21C304.255,-1049.15 298.533,-1017.68 293.44,-989.672"/>
<polygon fill="black" stroke="black" points="296.829,-988.744 291.597,-979.531 289.942,-989.996 296.829,-988.744"/>
</g>
<!-- Node0xefc5870 -->
<g id="node13" class="node"><title>Node0xefc5870</title>
<polygon fill="none" stroke="black" points="592,-998.5 592,-1034.5 689,-1034.5 689,-998.5 592,-998.5"/>
<text text-anchor="start" x="600" y="-1012.8" font-family="Times,serif" font-size="14.00">while True:</text>
</g>
<!-- Node0xefc5810&#45;&gt;Node0xefc5870 -->
<g id="edge13" class="edge"><title>Node0xefc5810&#45;&gt;Node0xefc5870</title>
<path fill="none" stroke="black" d="M624.982,-1079.57C627.729,-1068.58 630.931,-1055.78 633.71,-1044.66"/>
<polygon fill="black" stroke="black" points="637.187,-1045.18 636.217,-1034.63 630.396,-1043.48 637.187,-1045.18"/>
</g>
<!-- Node0xf00e710 -->
<g id="node14" class="node"><title>Node0xf00e710</title>
<polygon fill="none" stroke="black" points="352.5,-23.5 352.5,-59.5 406.5,-59.5 406.5,-23.5 352.5,-23.5"/>
<text text-anchor="start" x="360.5" y="-37.8" font-family="Times,serif" font-size="14.00">exit:</text>
</g>
<!-- Node0xefbc560&#45;&gt;Node0xf00e710 -->
<g id="edge14" class="edge"><title>Node0xefbc560&#45;&gt;Node0xf00e710</title>
<path fill="none" stroke="black" d="M232.295,-866.255C217.684,-844.321 205.5,-817.951 205.5,-791 205.5,-791 205.5,-791 205.5,-153 205.5,-88.7211 291.165,-60.2439 342.279,-48.9735"/>
<polygon fill="black" stroke="black" points="343.237,-52.3493 352.312,-46.883 341.809,-45.4964 343.237,-52.3493"/>
</g>
<!-- Node0xefb4a50 -->
<g id="node15" class="node"><title>Node0xefb4a50</title>
<polygon fill="none" stroke="black" points="463.5,-809.5 463.5,-847.5 817.5,-847.5 817.5,-809.5 463.5,-809.5"/>
<text text-anchor="start" x="471.5" y="-832.3" font-family="Times,serif" font-size="14.00">0x40c6f2:</text>
<text text-anchor="start" x="471.5" y="-817.3" font-family="Times,serif" font-size="14.00"> v43 = *(IntToPtrCastExpr&lt;ptr&gt;((v40 + v38)))</text>
</g>
<!-- Node0xefc5870&#45;&gt;Node0xefb4a50 -->
<g id="edge15" class="edge"><title>Node0xefc5870&#45;&gt;Node0xefb4a50</title>
<path fill="none" stroke="black" d="M640.5,-998.335C640.5,-966.275 640.5,-897.012 640.5,-857.894"/>
<polygon fill="black" stroke="black" points="644,-857.716 640.5,-847.716 637,-857.716 644,-857.716"/>
<text text-anchor="middle" x="657.5" y="-919.3" font-family="Times,serif" font-size="14.00">True</text>
</g>
<!-- Node0xefb4ab0 -->
<g id="node16" class="node"><title>Node0xefb4ab0</title>
<polygon fill="none" stroke="black" points="579,-735.5 579,-771.5 702,-771.5 702,-735.5 579,-735.5"/>
<text text-anchor="start" x="587" y="-749.8" font-family="Times,serif" font-size="14.00">if (v43 == 92):</text>
</g>
<!-- Node0xefb4a50&#45;&gt;Node0xefb4ab0 -->
<g id="edge16" class="edge"><title>Node0xefb4a50&#45;&gt;Node0xefb4ab0</title>
<path fill="none" stroke="black" d="M640.5,-809.455C640.5,-801.201 640.5,-791.238 640.5,-782.074"/>
<polygon fill="black" stroke="black" points="644,-781.835 640.5,-771.835 637,-781.835 644,-781.835"/>
</g>
<!-- Node0xefbc9c0 -->
<g id="node17" class="node"><title>Node0xefbc9c0</title>
<polygon fill="none" stroke="black" points="221,-408.5 221,-611.5 784,-611.5 784,-408.5 221,-408.5"/>
<text text-anchor="start" x="229" y="-596.3" font-family="Times,serif" font-size="14.00">0x40c713:</text>
<text text-anchor="start" x="229" y="-581.3" font-family="Times,serif" font-size="14.00"> v3 = (v40 + 1)</text>
<text text-anchor="start" x="229" y="-566.3" font-family="Times,serif" font-size="14.00"> g2 = v3</text>
<text text-anchor="start" x="229" y="-551.3" font-family="Times,serif" font-size="14.00"> v32 = g9</text>
<text text-anchor="start" x="229" y="-536.3" font-family="Times,serif" font-size="14.00"> v10 = function_441820(v32, v5, v3)</text>
<text text-anchor="start" x="229" y="-521.3" font-family="Times,serif" font-size="14.00"> v41 = g10</text>
<text text-anchor="start" x="229" y="-506.3" font-family="Times,serif" font-size="14.00"> g5 = (v41 ^ v4)</text>
<text text-anchor="start" x="229" y="-491.3" font-family="Times,serif" font-size="14.00"> g2 = ((v10 &amp; &#45;256) | 1)</text>
<text text-anchor="start" x="229" y="-476.3" font-family="Times,serif" font-size="14.00"> v16 = lpFilename</text>
<text text-anchor="start" x="229" y="-461.3" font-family="Times,serif" font-size="14.00"> v12 = function_43c16e(BitCastExpr&lt;ptr&gt;(v16), NULL, NULL, NULL, 0, 0)</text>
<text text-anchor="start" x="229" y="-446.3" font-family="Times,serif" font-size="14.00"> v37 = g10</text>
<text text-anchor="start" x="229" y="-431.3" font-family="Times,serif" font-size="14.00"> g1 = (v37 &gt; 4294967035)</text>
<text text-anchor="start" x="229" y="-416.3" font-family="Times,serif" font-size="14.00"> return PtrToIntCastExpr&lt;int32&gt;(v12)</text>
</g>
<!-- Node0xefb4ab0&#45;&gt;Node0xefbc9c0 -->
<g id="edge17" class="edge"><title>Node0xefb4ab0&#45;&gt;Node0xefbc9c0</title>
<path fill="none" stroke="black" d="M611.595,-735.467C604.364,-730.22 597.086,-723.966 591.5,-717 568.931,-688.851 551.044,-654.11 537.405,-621.23"/>
<polygon fill="black" stroke="black" points="540.485,-619.512 533.489,-611.555 533.997,-622.138 540.485,-619.512"/>
<text text-anchor="middle" x="630.5" y="-705.8" font-family="Times,serif" font-size="14.00">v43 == 92</text>
</g>
<!-- Node0xefb5150 -->
<g id="node18" class="node"><title>Node0xefb5150</title>
<polygon fill="none" stroke="black" points="656.5,-630.5 656.5,-683.5 796.5,-683.5 796.5,-630.5 656.5,-630.5"/>
<text text-anchor="start" x="664.5" y="-668.3" font-family="Times,serif" font-size="14.00">0x40c6f7:</text>
<text text-anchor="start" x="664.5" y="-653.3" font-family="Times,serif" font-size="14.00"> v45 = (v40 + &#45;1)</text>
<text text-anchor="start" x="664.5" y="-638.3" font-family="Times,serif" font-size="14.00"> g2 = v45</text>
</g>
<!-- Node0xefb4ab0&#45;&gt;Node0xefb5150 -->
<g id="edge18" class="edge"><title>Node0xefb4ab0&#45;&gt;Node0xefb5150</title>
<path fill="none" stroke="black" d="M656.274,-735.167C667.423,-722.916 682.721,-706.107 696.192,-691.303"/>
<polygon fill="black" stroke="black" points="698.897,-693.531 703.039,-683.78 693.72,-688.82 698.897,-693.531"/>
<text text-anchor="middle" x="722.5" y="-705.8" font-family="Times,serif" font-size="14.00">v43 != 92</text>
</g>
<!-- Node0xefbc9c0&#45;&gt;Node0xf00e710 -->
<g id="edge19" class="edge"><title>Node0xefbc9c0&#45;&gt;Node0xf00e710</title>
<path fill="none" stroke="black" d="M404.688,-408.064C389.917,-383.846 379.5,-356.751 379.5,-328.5 379.5,-328.5 379.5,-328.5 379.5,-153 379.5,-124.644 379.5,-92.194 379.5,-69.8315"/>
<polygon fill="black" stroke="black" points="383,-69.726 379.5,-59.726 376,-69.726 383,-69.726"/>
</g>
<!-- Node0xefbbde0 -->
<g id="node19" class="node"><title>Node0xefbbde0</title>
<polygon fill="none" stroke="black" points="718.5,-353.5 718.5,-389.5 820.5,-389.5 820.5,-353.5 718.5,-353.5"/>
<text text-anchor="start" x="726.5" y="-367.8" font-family="Times,serif" font-size="14.00">if (v40 &lt; 1):</text>
</g>
<!-- Node0xefb5150&#45;&gt;Node0xefbbde0 -->
<g id="edge20" class="edge"><title>Node0xefb5150&#45;&gt;Node0xefbbde0</title>
<path fill="none" stroke="black" d="M770.963,-630.431C776.825,-625.112 782.005,-618.967 785.5,-612 826.158,-530.96 804.553,-496.642 785.5,-408 784.853,-404.991 783.93,-401.929 782.85,-398.928"/>
<polygon fill="black" stroke="black" points="786.08,-397.581 779.008,-389.692 779.617,-400.27 786.08,-397.581"/>
</g>
<!-- Node0xefbefe0 -->
<g id="node20" class="node"><title>Node0xefbefe0</title>
<polygon fill="none" stroke="black" points="642,-248.5 642,-301.5 737,-301.5 737,-248.5 642,-248.5"/>
<text text-anchor="start" x="650" y="-286.3" font-family="Times,serif" font-size="14.00">v34 = v38</text>
<text text-anchor="start" x="650" y="-271.3" font-family="Times,serif" font-size="14.00"> v31 = v45</text>
<text text-anchor="start" x="650" y="-256.3" font-family="Times,serif" font-size="14.00"> break</text>
</g>
<!-- Node0xefbbde0&#45;&gt;Node0xefbefe0 -->
<g id="edge21" class="edge"><title>Node0xefbbde0&#45;&gt;Node0xefbefe0</title>
<path fill="none" stroke="black" d="M727.244,-353.407C719.093,-348.49 711.299,-342.401 705.5,-335 700.195,-328.229 696.646,-319.832 694.272,-311.517"/>
<polygon fill="black" stroke="black" points="697.619,-310.461 691.92,-301.53 690.805,-312.066 697.619,-310.461"/>
<text text-anchor="middle" x="734" y="-323.8" font-family="Times,serif" font-size="14.00">v40 &lt; 1</text>
</g>
<!-- Node0xefce4e0 -->
<g id="node21" class="node"><title>Node0xefce4e0</title>
<polygon fill="none" stroke="black" points="781.5,-256 781.5,-294 871.5,-294 871.5,-256 781.5,-256"/>
<text text-anchor="start" x="789.5" y="-278.8" font-family="Times,serif" font-size="14.00">v40 = v45</text>
<text text-anchor="start" x="789.5" y="-263.8" font-family="Times,serif" font-size="14.00"> continue</text>
</g>
<!-- Node0xefbbde0&#45;&gt;Node0xefce4e0 -->
<g id="edge22" class="edge"><title>Node0xefbbde0&#45;&gt;Node0xefce4e0</title>
<path fill="none" stroke="black" d="M766.293,-353.257C765.237,-343.066 765.415,-330.203 770.5,-320 774.145,-312.686 779.64,-306.216 785.788,-300.641"/>
<polygon fill="black" stroke="black" points="788.307,-303.102 793.834,-294.063 783.877,-297.683 788.307,-303.102"/>
<text text-anchor="middle" x="805" y="-323.8" font-family="Times,serif" font-size="14.00">v40 &gt;= 1</text>
</g>
<!-- Node0xefbd370 -->
<g id="node22" class="node"><title>Node0xefbd370</title>
<polygon fill="none" stroke="black" points="408,-97.5 408,-210.5 971,-210.5 971,-97.5 408,-97.5"/>
<text text-anchor="start" x="416" y="-195.3" font-family="Times,serif" font-size="14.00">0x40c6fc:</text>
<text text-anchor="start" x="416" y="-180.3" font-family="Times,serif" font-size="14.00"> g2 = (v31 &amp; &#45;256)</text>
<text text-anchor="start" x="416" y="-165.3" font-family="Times,serif" font-size="14.00"> g5 = (v34 ^ v4)</text>
<text text-anchor="start" x="416" y="-150.3" font-family="Times,serif" font-size="14.00"> v11 = function_43c16e(BitCastExpr&lt;ptr&gt;(v15), NULL, NULL, NULL, 0, 0)</text>
<text text-anchor="start" x="416" y="-135.3" font-family="Times,serif" font-size="14.00"> v36 = g10</text>
<text text-anchor="start" x="416" y="-120.3" font-family="Times,serif" font-size="14.00"> g1 = (v36 &gt; 4294967035)</text>
<text text-anchor="start" x="416" y="-105.3" font-family="Times,serif" font-size="14.00"> return PtrToIntCastExpr&lt;int32&gt;(v11)</text>
</g>
<!-- Node0xefbefe0&#45;&gt;Node0xefbd370 -->
<g id="edge23" class="edge"><title>Node0xefbefe0&#45;&gt;Node0xefbd370</title>
<path fill="none" stroke="black" d="M689.5,-248.472C689.5,-240.26 689.5,-230.751 689.5,-221.006"/>
<polygon fill="black" stroke="black" points="693,-220.81 689.5,-210.81 686,-220.81 693,-220.81"/>
</g>
<!-- Node0xefce4e0&#45;&gt;Node0xefc5870 -->
<g id="edge24" class="edge"><title>Node0xefce4e0&#45;&gt;Node0xefc5870</title>
<path fill="none" stroke="black" d="M834.895,-294.033C842.821,-312.734 853.5,-343.029 853.5,-370.5 853.5,-829.5 853.5,-829.5 853.5,-829.5 853.5,-912.503 760.595,-966.998 697.501,-994.437"/>
<polygon fill="black" stroke="black" points="695.877,-991.324 688.036,-998.449 698.609,-997.769 695.877,-991.324"/>
</g>
<!-- Node0xefbd370&#45;&gt;Node0xf00e710 -->
<g id="edge25" class="edge"><title>Node0xefbd370&#45;&gt;Node0xf00e710</title>
<path fill="none" stroke="black" d="M533.592,-97.4263C489.567,-81.7336 445.64,-66.0757 416.018,-55.5168"/>
<polygon fill="black" stroke="black" points="417.136,-52.1996 406.541,-52.1388 414.785,-58.7933 417.136,-52.1996"/>
</g>
</g>
</svg>
