<?xml version="1.0" encoding="UTF-8" standalone="no"?>
<!DOCTYPE svg PUBLIC "-//W3C//DTD SVG 1.1//EN"
 "http://www.w3.org/Graphics/SVG/1.1/DTD/svg11.dtd">
<!-- Generated by graphviz version 2.38.0 (20140413.2041)
 -->
<!-- Title: Control&#45;flow graph for function &#39;function_41f76a(a1)&#39;. Pages: 1 -->
<svg width="497pt" height="1497pt"
 viewBox="0.00 0.00 497.00 1497.00" xmlns="http://www.w3.org/2000/svg" xmlns:xlink="http://www.w3.org/1999/xlink">
<g id="graph0" class="graph" transform="scale(1 1) rotate(0) translate(4 1493)">
<title>Control&#45;flow graph for function &#39;function_41f76a(a1)&#39;.</title>
<polygon fill="white" stroke="none" points="-4,4 -4,-1493 493,-1493 493,4 -4,4"/>
<text text-anchor="middle" x="244.5" y="-7.8" font-family="Times,serif" font-size="14.00">Control&#45;flow graph for function &#39;function_41f76a(a1)&#39;.</text>
<!-- Node0xf808cd0 -->
<g id="node1" class="node"><title>Node0xf808cd0</title>
<polygon fill="none" stroke="black" points="239.5,-1450.5 239.5,-1488.5 298.5,-1488.5 298.5,-1450.5 239.5,-1450.5"/>
<text text-anchor="start" x="247.5" y="-1473.3" font-family="Times,serif" font-size="14.00">entry:</text>
<text text-anchor="start" x="247.5" y="-1458.3" font-family="Times,serif" font-size="14.00"> a1</text>
</g>
<!-- Node0xf78aa10 -->
<g id="node2" class="node"><title>Node0xf78aa10</title>
<polygon fill="none" stroke="black" points="49,-414.5 49,-1412.5 489,-1412.5 489,-414.5 49,-414.5"/>
<text text-anchor="start" x="57" y="-1397.3" font-family="Times,serif" font-size="14.00">v1</text>
<text text-anchor="start" x="57" y="-1382.3" font-family="Times,serif" font-size="14.00"> v2</text>
<text text-anchor="start" x="57" y="-1367.3" font-family="Times,serif" font-size="14.00"> v3</text>
<text text-anchor="start" x="57" y="-1352.3" font-family="Times,serif" font-size="14.00"> v4</text>
<text text-anchor="start" x="57" y="-1337.3" font-family="Times,serif" font-size="14.00"> v5</text>
<text text-anchor="start" x="57" y="-1322.3" font-family="Times,serif" font-size="14.00"> v6</text>
<text text-anchor="start" x="57" y="-1307.3" font-family="Times,serif" font-size="14.00"> v7</text>
<text text-anchor="start" x="57" y="-1292.3" font-family="Times,serif" font-size="14.00"> v8</text>
<text text-anchor="start" x="57" y="-1277.3" font-family="Times,serif" font-size="14.00"> v9</text>
<text text-anchor="start" x="57" y="-1262.3" font-family="Times,serif" font-size="14.00"> v10</text>
<text text-anchor="start" x="57" y="-1247.3" font-family="Times,serif" font-size="14.00"> v11</text>
<text text-anchor="start" x="57" y="-1232.3" font-family="Times,serif" font-size="14.00"> v12</text>
<text text-anchor="start" x="57" y="-1217.3" font-family="Times,serif" font-size="14.00"> v13</text>
<text text-anchor="start" x="57" y="-1202.3" font-family="Times,serif" font-size="14.00"> v14</text>
<text text-anchor="start" x="57" y="-1187.3" font-family="Times,serif" font-size="14.00"> v15</text>
<text text-anchor="start" x="57" y="-1172.3" font-family="Times,serif" font-size="14.00"> v16</text>
<text text-anchor="start" x="57" y="-1157.3" font-family="Times,serif" font-size="14.00"> v17</text>
<text text-anchor="start" x="57" y="-1142.3" font-family="Times,serif" font-size="14.00"> v18</text>
<text text-anchor="start" x="57" y="-1127.3" font-family="Times,serif" font-size="14.00"> v19</text>
<text text-anchor="start" x="57" y="-1112.3" font-family="Times,serif" font-size="14.00"> v20</text>
<text text-anchor="start" x="57" y="-1097.3" font-family="Times,serif" font-size="14.00"> v21</text>
<text text-anchor="start" x="57" y="-1082.3" font-family="Times,serif" font-size="14.00"> result</text>
<text text-anchor="start" x="57" y="-1067.3" font-family="Times,serif" font-size="14.00"> v22</text>
<text text-anchor="start" x="57" y="-1052.3" font-family="Times,serif" font-size="14.00"> v23</text>
<text text-anchor="start" x="57" y="-1037.3" font-family="Times,serif" font-size="14.00"> v24</text>
<text text-anchor="start" x="57" y="-1022.3" font-family="Times,serif" font-size="14.00"> v25</text>
<text text-anchor="start" x="57" y="-1007.3" font-family="Times,serif" font-size="14.00"> v26</text>
<text text-anchor="start" x="57" y="-992.3" font-family="Times,serif" font-size="14.00"> v27</text>
<text text-anchor="start" x="57" y="-977.3" font-family="Times,serif" font-size="14.00"> v28</text>
<text text-anchor="start" x="57" y="-962.3" font-family="Times,serif" font-size="14.00"> v29</text>
<text text-anchor="start" x="57" y="-947.3" font-family="Times,serif" font-size="14.00"> v30</text>
<text text-anchor="start" x="57" y="-932.3" font-family="Times,serif" font-size="14.00"> v31</text>
<text text-anchor="start" x="57" y="-917.3" font-family="Times,serif" font-size="14.00"> v32</text>
<text text-anchor="start" x="57" y="-902.3" font-family="Times,serif" font-size="14.00"> v33</text>
<text text-anchor="start" x="57" y="-887.3" font-family="Times,serif" font-size="14.00"> v15 = v16</text>
<text text-anchor="start" x="57" y="-872.3" font-family="Times,serif" font-size="14.00"> v12 = v13</text>
<text text-anchor="start" x="57" y="-857.3" font-family="Times,serif" font-size="14.00"> v9 = v10</text>
<text text-anchor="start" x="57" y="-842.3" font-family="Times,serif" font-size="14.00"> g2 = 4533992</text>
<text text-anchor="start" x="57" y="-827.3" font-family="Times,serif" font-size="14.00"> __EH_prolog3()</text>
<text text-anchor="start" x="57" y="-812.3" font-family="Times,serif" font-size="14.00"> v23 = g3</text>
<text text-anchor="start" x="57" y="-797.3" font-family="Times,serif" font-size="14.00"> v29 = *(IntToPtrCastExpr&lt;ptr&gt;((v23 + 8)))</text>
<text text-anchor="start" x="57" y="-782.3" font-family="Times,serif" font-size="14.00"> g9 = v29</text>
<text text-anchor="start" x="57" y="-767.3" font-family="Times,serif" font-size="14.00"> v28 = *(IntToPtrCastExpr&lt;ptr&gt;((v29 + &#45;196)))</text>
<text text-anchor="start" x="57" y="-752.3" font-family="Times,serif" font-size="14.00"> v2 = IntToPtrCastExpr&lt;ptr&gt;(v28)</text>
<text text-anchor="start" x="57" y="-737.3" font-family="Times,serif" font-size="14.00"> g9 = (v29 + &#45;224)</text>
<text text-anchor="start" x="57" y="-722.3" font-family="Times,serif" font-size="14.00"> g5 = (v23 + &#45;20)</text>
<text text-anchor="start" x="57" y="-707.3" font-family="Times,serif" font-size="14.00"> function_419fad(v2, IntToPtrCastExpr&lt;ptr&gt;(8))</text>
<text text-anchor="start" x="57" y="-692.3" font-family="Times,serif" font-size="14.00"> v24 = g3</text>
<text text-anchor="start" x="57" y="-677.3" font-family="Times,serif" font-size="14.00"> v30 = *(IntToPtrCastExpr&lt;ptr&gt;((v24 + 20)))</text>
<text text-anchor="start" x="57" y="-662.3" font-family="Times,serif" font-size="14.00"> v9 = IntToPtrCastExpr&lt;ptr&gt;(v30)</text>
<text text-anchor="start" x="57" y="-647.3" font-family="Times,serif" font-size="14.00"> *(IntToPtrCastExpr&lt;ptr&gt;((v24 + &#45;4))) = 0</text>
<text text-anchor="start" x="57" y="-632.3" font-family="Times,serif" font-size="14.00"> v25 = g3</text>
<text text-anchor="start" x="57" y="-617.3" font-family="Times,serif" font-size="14.00"> v31 = *(IntToPtrCastExpr&lt;ptr&gt;((v25 + 16)))</text>
<text text-anchor="start" x="57" y="-602.3" font-family="Times,serif" font-size="14.00"> v21 = g9</text>
<text text-anchor="start" x="57" y="-587.3" font-family="Times,serif" font-size="14.00"> g5 = v21</text>
<text text-anchor="start" x="57" y="-572.3" font-family="Times,serif" font-size="14.00"> v32 = *(IntToPtrCastExpr&lt;ptr&gt;((v25 + 12)))</text>
<text text-anchor="start" x="57" y="-557.3" font-family="Times,serif" font-size="14.00"> v4 = IntToPtrCastExpr&lt;ptr&gt;(v32)</text>
<text text-anchor="start" x="57" y="-542.3" font-family="Times,serif" font-size="14.00"> v12 = v4</text>
<text text-anchor="start" x="57" y="-527.3" font-family="Times,serif" font-size="14.00"> g10 = PtrToIntCastExpr&lt;int32&gt;(&amp;(v12))</text>
<text text-anchor="start" x="57" y="-512.3" font-family="Times,serif" font-size="14.00"> v1 = v9</text>
<text text-anchor="start" x="57" y="-497.3" font-family="Times,serif" font-size="14.00"> function_41dc38(v4, IntToPtrCastExpr&lt;ptr&gt;(v31), v1, v2)</text>
<text text-anchor="start" x="57" y="-482.3" font-family="Times,serif" font-size="14.00"> v26 = g3</text>
<text text-anchor="start" x="57" y="-467.3" font-family="Times,serif" font-size="14.00"> *(IntToPtrCastExpr&lt;ptr&gt;((v26 + &#45;4))) = &#45;1</text>
<text text-anchor="start" x="57" y="-452.3" font-family="Times,serif" font-size="14.00"> v27 = g3</text>
<text text-anchor="start" x="57" y="-437.3" font-family="Times,serif" font-size="14.00"> v33 = *(IntToPtrCastExpr&lt;ptr&gt;((v27 + &#45;16)))</text>
<text text-anchor="start" x="57" y="-422.3" font-family="Times,serif" font-size="14.00"> g9 = 0</text>
</g>
<!-- Node0xf808cd0&#45;&gt;Node0xf78aa10 -->
<g id="edge1" class="edge"><title>Node0xf808cd0&#45;&gt;Node0xf78aa10</title>
<path fill="none" stroke="black" d="M269,-1450.38C269,-1443.1 269,-1433.81 269,-1422.86"/>
<polygon fill="black" stroke="black" points="272.5,-1422.82 269,-1412.82 265.5,-1422.82 272.5,-1422.82"/>
</g>
<!-- Node0xf8399f0 -->
<g id="node3" class="node"><title>Node0xf8399f0</title>
<polygon fill="none" stroke="black" points="215,-338.5 215,-376.5 323,-376.5 323,-338.5 215,-338.5"/>
<text text-anchor="start" x="223" y="-361.3" font-family="Times,serif" font-size="14.00">if (v33 != 0):</text>
<text text-anchor="start" x="223" y="-346.3" font-family="Times,serif" font-size="14.00"> else:</text>
</g>
<!-- Node0xf78aa10&#45;&gt;Node0xf8399f0 -->
<g id="edge2" class="edge"><title>Node0xf78aa10&#45;&gt;Node0xf8399f0</title>
<path fill="none" stroke="black" d="M269,-414.412C269,-403.982 269,-394.743 269,-386.931"/>
<polygon fill="black" stroke="black" points="272.5,-386.86 269,-376.86 265.5,-386.86 272.5,-386.86"/>
</g>
<!-- Node0xf8355e0 -->
<g id="node4" class="node"><title>Node0xf8355e0</title>
<polygon fill="none" stroke="black" points="0,-188.5 0,-286.5 318,-286.5 318,-188.5 0,-188.5"/>
<text text-anchor="start" x="8" y="-271.3" font-family="Times,serif" font-size="14.00">0x41f7ad:</text>
<text text-anchor="start" x="8" y="-256.3" font-family="Times,serif" font-size="14.00"> v15 = 0</text>
<text text-anchor="start" x="8" y="-241.3" font-family="Times,serif" font-size="14.00"> g10 = PtrToIntCastExpr&lt;int32&gt;(&amp;(v15))</text>
<text text-anchor="start" x="8" y="-226.3" font-family="Times,serif" font-size="14.00"> function_419779()</text>
<text text-anchor="start" x="8" y="-211.3" font-family="Times,serif" font-size="14.00"> v22 = g9</text>
<text text-anchor="start" x="8" y="-196.3" font-family="Times,serif" font-size="14.00"> result = v22</text>
</g>
<!-- Node0xf8399f0&#45;&gt;Node0xf8355e0 -->
<g id="edge3" class="edge"><title>Node0xf8399f0&#45;&gt;Node0xf8355e0</title>
<path fill="none" stroke="black" d="M252.054,-338.321C240.87,-326.324 225.568,-309.909 210.603,-293.856"/>
<polygon fill="black" stroke="black" points="213.146,-291.451 203.767,-286.523 208.026,-296.224 213.146,-291.451"/>
<text text-anchor="middle" x="265.5" y="-308.8" font-family="Times,serif" font-size="14.00">v33 != 0</text>
</g>
<!-- Node0xf83bdf0 -->
<g id="node5" class="node"><title>Node0xf83bdf0</title>
<polygon fill="none" stroke="black" points="335.5,-219.5 335.5,-255.5 424.5,-255.5 424.5,-219.5 335.5,-219.5"/>
<text text-anchor="start" x="343.5" y="-233.8" font-family="Times,serif" font-size="14.00">result = 0</text>
</g>
<!-- Node0xf8399f0&#45;&gt;Node0xf83bdf0 -->
<g id="edge4" class="edge"><title>Node0xf8399f0&#45;&gt;Node0xf83bdf0</title>
<path fill="none" stroke="black" d="M286.1,-338.321C305.031,-318.196 335.654,-285.643 356.753,-263.213"/>
<polygon fill="black" stroke="black" points="359.481,-265.421 363.784,-255.739 354.382,-260.625 359.481,-265.421"/>
<text text-anchor="middle" x="348.5" y="-308.8" font-family="Times,serif" font-size="14.00">v33 == 0</text>
</g>
<!-- Node0xf79da30 -->
<g id="node6" class="node"><title>Node0xf79da30</title>
<polygon fill="none" stroke="black" points="229,-97.5 229,-150.5 359,-150.5 359,-97.5 229,-97.5"/>
<text text-anchor="start" x="237" y="-135.3" font-family="Times,serif" font-size="14.00">0x41f7b7:</text>
<text text-anchor="start" x="237" y="-120.3" font-family="Times,serif" font-size="14.00"> __EH_epilog3()</text>
<text text-anchor="start" x="237" y="-105.3" font-family="Times,serif" font-size="14.00"> return result</text>
</g>
<!-- Node0xf8355e0&#45;&gt;Node0xf79da30 -->
<g id="edge5" class="edge"><title>Node0xf8355e0&#45;&gt;Node0xf79da30</title>
<path fill="none" stroke="black" d="M217.428,-188.243C230.166,-177.722 243.342,-166.839 255.099,-157.129"/>
<polygon fill="black" stroke="black" points="257.507,-159.68 262.989,-150.613 253.049,-154.283 257.507,-159.68"/>
</g>
<!-- Node0xf83bdf0&#45;&gt;Node0xf79da30 -->
<g id="edge6" class="edge"><title>Node0xf83bdf0&#45;&gt;Node0xf79da30</title>
<path fill="none" stroke="black" d="M366.562,-219.078C354.106,-202.929 335.235,-178.462 319.86,-158.528"/>
<polygon fill="black" stroke="black" points="322.609,-156.361 313.73,-150.58 317.066,-160.636 322.609,-156.361"/>
</g>
<!-- Node0xf839ba0 -->
<g id="node7" class="node"><title>Node0xf839ba0</title>
<polygon fill="none" stroke="black" points="267,-23.5 267,-59.5 321,-59.5 321,-23.5 267,-23.5"/>
<text text-anchor="start" x="275" y="-37.8" font-family="Times,serif" font-size="14.00">exit:</text>
</g>
<!-- Node0xf79da30&#45;&gt;Node0xf839ba0 -->
<g id="edge7" class="edge"><title>Node0xf79da30&#45;&gt;Node0xf839ba0</title>
<path fill="none" stroke="black" d="M294,-97.0862C294,-88.4596 294,-78.8224 294,-70.0748"/>
<polygon fill="black" stroke="black" points="297.5,-69.9735 294,-59.9735 290.5,-69.9735 297.5,-69.9735"/>
</g>
</g>
</svg>
