<?xml version="1.0" encoding="UTF-8" standalone="no"?>
<!DOCTYPE svg PUBLIC "-//W3C//DTD SVG 1.1//EN"
 "http://www.w3.org/Graphics/SVG/1.1/DTD/svg11.dtd">
<!-- Generated by graphviz version 2.38.0 (20140413.2041)
 -->
<!-- Title: Control&#45;flow graph for function &#39;function_41df35(*a1)&#39;. Pages: 1 -->
<svg width="680pt" height="927pt"
 viewBox="0.00 0.00 679.50 927.00" xmlns="http://www.w3.org/2000/svg" xmlns:xlink="http://www.w3.org/1999/xlink">
<g id="graph0" class="graph" transform="scale(1 1) rotate(0) translate(4 923)">
<title>Control&#45;flow graph for function &#39;function_41df35(*a1)&#39;.</title>
<polygon fill="white" stroke="none" points="-4,4 -4,-923 675.5,-923 675.5,4 -4,4"/>
<text text-anchor="middle" x="335.75" y="-7.8" font-family="Times,serif" font-size="14.00">Control&#45;flow graph for function &#39;function_41df35(*a1)&#39;.</text>
<!-- Node0xf75ea00 -->
<g id="node1" class="node"><title>Node0xf75ea00</title>
<polygon fill="none" stroke="black" points="292,-880.5 292,-918.5 351,-918.5 351,-880.5 292,-880.5"/>
<text text-anchor="start" x="300" y="-903.3" font-family="Times,serif" font-size="14.00">entry:</text>
<text text-anchor="start" x="300" y="-888.3" font-family="Times,serif" font-size="14.00"> a1</text>
</g>
<!-- Node0xf75e3c0 -->
<g id="node2" class="node"><title>Node0xf75e3c0</title>
<polygon fill="none" stroke="black" points="130,-444.5 130,-842.5 513,-842.5 513,-444.5 130,-444.5"/>
<text text-anchor="start" x="138" y="-827.3" font-family="Times,serif" font-size="14.00">v1</text>
<text text-anchor="start" x="138" y="-812.3" font-family="Times,serif" font-size="14.00"> v2</text>
<text text-anchor="start" x="138" y="-797.3" font-family="Times,serif" font-size="14.00"> v3</text>
<text text-anchor="start" x="138" y="-782.3" font-family="Times,serif" font-size="14.00"> v4</text>
<text text-anchor="start" x="138" y="-767.3" font-family="Times,serif" font-size="14.00"> v5</text>
<text text-anchor="start" x="138" y="-752.3" font-family="Times,serif" font-size="14.00"> v6</text>
<text text-anchor="start" x="138" y="-737.3" font-family="Times,serif" font-size="14.00"> v7</text>
<text text-anchor="start" x="138" y="-722.3" font-family="Times,serif" font-size="14.00"> v8</text>
<text text-anchor="start" x="138" y="-707.3" font-family="Times,serif" font-size="14.00"> v9</text>
<text text-anchor="start" x="138" y="-692.3" font-family="Times,serif" font-size="14.00"> v10</text>
<text text-anchor="start" x="138" y="-677.3" font-family="Times,serif" font-size="14.00"> v11</text>
<text text-anchor="start" x="138" y="-662.3" font-family="Times,serif" font-size="14.00"> result</text>
<text text-anchor="start" x="138" y="-647.3" font-family="Times,serif" font-size="14.00"> v12</text>
<text text-anchor="start" x="138" y="-632.3" font-family="Times,serif" font-size="14.00"> v13</text>
<text text-anchor="start" x="138" y="-617.3" font-family="Times,serif" font-size="14.00"> v14</text>
<text text-anchor="start" x="138" y="-602.3" font-family="Times,serif" font-size="14.00"> v15</text>
<text text-anchor="start" x="138" y="-587.3" font-family="Times,serif" font-size="14.00"> v16</text>
<text text-anchor="start" x="138" y="-572.3" font-family="Times,serif" font-size="14.00"> v6 = v7</text>
<text text-anchor="start" x="138" y="-557.3" font-family="Times,serif" font-size="14.00"> v8 = v9</text>
<text text-anchor="start" x="138" y="-542.3" font-family="Times,serif" font-size="14.00"> v10 = v11</text>
<text text-anchor="start" x="138" y="-527.3" font-family="Times,serif" font-size="14.00"> v10 = a1</text>
<text text-anchor="start" x="138" y="-512.3" font-family="Times,serif" font-size="14.00"> v1 = PtrToIntCastExpr&lt;int32&gt;(&amp;(v10))</text>
<text text-anchor="start" x="138" y="-497.3" font-family="Times,serif" font-size="14.00"> g2 = v1</text>
<text text-anchor="start" x="138" y="-482.3" font-family="Times,serif" font-size="14.00"> v12 = g5</text>
<text text-anchor="start" x="138" y="-467.3" font-family="Times,serif" font-size="14.00"> g9 = v12</text>
<text text-anchor="start" x="138" y="-452.3" font-family="Times,serif" font-size="14.00"> v3 = function_41c9e9(BitCastExpr&lt;ptr&gt;(&amp;(v10)))</text>
</g>
<!-- Node0xf75ea00&#45;&gt;Node0xf75e3c0 -->
<g id="edge1" class="edge"><title>Node0xf75ea00&#45;&gt;Node0xf75e3c0</title>
<path fill="none" stroke="black" d="M321.5,-880.233C321.5,-872.83 321.5,-863.501 321.5,-852.855"/>
<polygon fill="black" stroke="black" points="325,-852.724 321.5,-842.724 318,-852.724 325,-852.724"/>
</g>
<!-- Node0xf75eb70 -->
<g id="node3" class="node"><title>Node0xf75eb70</title>
<polygon fill="none" stroke="black" points="269,-368.5 269,-406.5 374,-406.5 374,-368.5 269,-368.5"/>
<text text-anchor="start" x="277" y="-391.3" font-family="Times,serif" font-size="14.00">if (v3 == 0):</text>
<text text-anchor="start" x="277" y="-376.3" font-family="Times,serif" font-size="14.00"> else:</text>
</g>
<!-- Node0xf75e3c0&#45;&gt;Node0xf75eb70 -->
<g id="edge2" class="edge"><title>Node0xf75e3c0&#45;&gt;Node0xf75eb70</title>
<path fill="none" stroke="black" d="M321.5,-444.241C321.5,-433.954 321.5,-424.589 321.5,-416.595"/>
<polygon fill="black" stroke="black" points="325,-416.586 321.5,-406.586 318,-416.586 325,-416.586"/>
</g>
<!-- Node0xf75f520 -->
<g id="node4" class="node"><title>Node0xf75f520</title>
<polygon fill="none" stroke="black" points="0,-226 0,-279 299,-279 299,-226 0,-226"/>
<text text-anchor="start" x="8" y="-263.8" font-family="Times,serif" font-size="14.00">0x41df55:</text>
<text text-anchor="start" x="8" y="-248.8" font-family="Times,serif" font-size="14.00"> v2 = PtrToIntCastExpr&lt;int32&gt;(&amp;(v8))</text>
<text text-anchor="start" x="8" y="-233.8" font-family="Times,serif" font-size="14.00"> result = v2</text>
</g>
<!-- Node0xf75eb70&#45;&gt;Node0xf75f520 -->
<g id="edge3" class="edge"><title>Node0xf75eb70&#45;&gt;Node0xf75f520</title>
<path fill="none" stroke="black" d="M297.945,-368.286C270.464,-347.036 224.527,-311.515 191.02,-285.605"/>
<polygon fill="black" stroke="black" points="192.839,-282.588 182.788,-279.24 188.557,-288.126 192.839,-282.588"/>
<text text-anchor="middle" x="301.5" y="-338.8" font-family="Times,serif" font-size="14.00">v3 == 0</text>
</g>
<!-- Node0xf75f5a0 -->
<g id="node5" class="node"><title>Node0xf75f5a0</title>
<polygon fill="none" stroke="black" points="317.5,-188.5 317.5,-316.5 671.5,-316.5 671.5,-188.5 317.5,-188.5"/>
<text text-anchor="start" x="325.5" y="-301.3" font-family="Times,serif" font-size="14.00">0x41df46:</text>
<text text-anchor="start" x="325.5" y="-286.3" font-family="Times,serif" font-size="14.00"> g2 = v9</text>
<text text-anchor="start" x="325.5" y="-271.3" font-family="Times,serif" font-size="14.00"> v13 = g9</text>
<text text-anchor="start" x="325.5" y="-256.3" font-family="Times,serif" font-size="14.00"> v15 = *(IntToPtrCastExpr&lt;ptr&gt;((v13 + 20)))</text>
<text text-anchor="start" x="325.5" y="-241.3" font-family="Times,serif" font-size="14.00"> v14 = (v9 * 48)</text>
<text text-anchor="start" x="325.5" y="-226.3" font-family="Times,serif" font-size="14.00"> g2 = v14</text>
<text text-anchor="start" x="325.5" y="-211.3" font-family="Times,serif" font-size="14.00"> v16 = *(IntToPtrCastExpr&lt;ptr&gt;((v15 + v14)))</text>
<text text-anchor="start" x="325.5" y="-196.3" font-family="Times,serif" font-size="14.00"> result = v16</text>
</g>
<!-- Node0xf75eb70&#45;&gt;Node0xf75f5a0 -->
<g id="edge4" class="edge"><title>Node0xf75eb70&#45;&gt;Node0xf75f5a0</title>
<path fill="none" stroke="black" d="M345.192,-368.286C360.852,-356.247 382.469,-339.628 404.397,-322.77"/>
<polygon fill="black" stroke="black" points="406.684,-325.427 412.479,-316.557 402.417,-319.877 406.684,-325.427"/>
<text text-anchor="middle" x="414.5" y="-338.8" font-family="Times,serif" font-size="14.00">v3 != 0</text>
</g>
<!-- Node0xf75f160 -->
<g id="node6" class="node"><title>Node0xf75f160</title>
<polygon fill="none" stroke="black" points="305,-97.5 305,-150.5 418,-150.5 418,-97.5 305,-97.5"/>
<text text-anchor="start" x="313" y="-135.3" font-family="Times,serif" font-size="14.00">0x41df57:</text>
<text text-anchor="start" x="313" y="-120.3" font-family="Times,serif" font-size="14.00"> g9 = v1</text>
<text text-anchor="start" x="313" y="-105.3" font-family="Times,serif" font-size="14.00"> return result</text>
</g>
<!-- Node0xf75f520&#45;&gt;Node0xf75f160 -->
<g id="edge5" class="edge"><title>Node0xf75f520&#45;&gt;Node0xf75f160</title>
<path fill="none" stroke="black" d="M192.401,-225.901C226.309,-205.668 273.76,-177.354 309.769,-155.868"/>
<polygon fill="black" stroke="black" points="311.868,-158.691 318.662,-150.561 308.282,-152.68 311.868,-158.691"/>
</g>
<!-- Node0xf75f5a0&#45;&gt;Node0xf75f160 -->
<g id="edge6" class="edge"><title>Node0xf75f5a0&#45;&gt;Node0xf75f160</title>
<path fill="none" stroke="black" d="M428,-188.25C416.822,-177.618 405.644,-166.987 395.729,-157.556"/>
<polygon fill="black" stroke="black" points="398.073,-154.955 388.415,-150.599 393.248,-160.027 398.073,-154.955"/>
</g>
<!-- Node0xf75aa60 -->
<g id="node7" class="node"><title>Node0xf75aa60</title>
<polygon fill="none" stroke="black" points="334.5,-23.5 334.5,-59.5 388.5,-59.5 388.5,-23.5 334.5,-23.5"/>
<text text-anchor="start" x="342.5" y="-37.8" font-family="Times,serif" font-size="14.00">exit:</text>
</g>
<!-- Node0xf75f160&#45;&gt;Node0xf75aa60 -->
<g id="edge7" class="edge"><title>Node0xf75f160&#45;&gt;Node0xf75aa60</title>
<path fill="none" stroke="black" d="M361.5,-97.0862C361.5,-88.4596 361.5,-78.8224 361.5,-70.0748"/>
<polygon fill="black" stroke="black" points="365,-69.9735 361.5,-59.9735 358,-69.9735 365,-69.9735"/>
</g>
</g>
</svg>
