<?xml version="1.0" encoding="UTF-8" standalone="no"?>
<!DOCTYPE svg PUBLIC "-//W3C//DTD SVG 1.1//EN"
 "http://www.w3.org/Graphics/SVG/1.1/DTD/svg11.dtd">
<!-- Generated by graphviz version 2.38.0 (20140413.2041)
 -->
<!-- Title: Control&#45;flow graph for function &#39;function_40a6b0(*a1, a2, a3)&#39;. Pages: 1 -->
<svg width="532pt" height="1801pt"
 viewBox="0.00 0.00 531.50 1801.00" xmlns="http://www.w3.org/2000/svg" xmlns:xlink="http://www.w3.org/1999/xlink">
<g id="graph0" class="graph" transform="scale(1 1) rotate(0) translate(4 1797)">
<title>Control&#45;flow graph for function &#39;function_40a6b0(*a1, a2, a3)&#39;.</title>
<polygon fill="white" stroke="none" points="-4,4 -4,-1797 527.5,-1797 527.5,4 -4,4"/>
<text text-anchor="middle" x="261.75" y="-7.8" font-family="Times,serif" font-size="14.00">Control&#45;flow graph for function &#39;function_40a6b0(*a1, a2, a3)&#39;.</text>
<!-- Node0xef81b40 -->
<g id="node1" class="node"><title>Node0xef81b40</title>
<polygon fill="none" stroke="black" points="202.5,-1724.5 202.5,-1792.5 261.5,-1792.5 261.5,-1724.5 202.5,-1724.5"/>
<text text-anchor="start" x="210.5" y="-1777.3" font-family="Times,serif" font-size="14.00">entry:</text>
<text text-anchor="start" x="210.5" y="-1762.3" font-family="Times,serif" font-size="14.00"> a1</text>
<text text-anchor="start" x="210.5" y="-1747.3" font-family="Times,serif" font-size="14.00"> a2</text>
<text text-anchor="start" x="210.5" y="-1732.3" font-family="Times,serif" font-size="14.00"> a3</text>
</g>
<!-- Node0xef825d0 -->
<g id="node2" class="node"><title>Node0xef825d0</title>
<polygon fill="none" stroke="black" points="89.5,-1123.5 89.5,-1686.5 374.5,-1686.5 374.5,-1123.5 89.5,-1123.5"/>
<text text-anchor="start" x="97.5" y="-1671.3" font-family="Times,serif" font-size="14.00">v1</text>
<text text-anchor="start" x="97.5" y="-1656.3" font-family="Times,serif" font-size="14.00"> v2</text>
<text text-anchor="start" x="97.5" y="-1641.3" font-family="Times,serif" font-size="14.00"> v3</text>
<text text-anchor="start" x="97.5" y="-1626.3" font-family="Times,serif" font-size="14.00"> v4</text>
<text text-anchor="start" x="97.5" y="-1611.3" font-family="Times,serif" font-size="14.00"> v5</text>
<text text-anchor="start" x="97.5" y="-1596.3" font-family="Times,serif" font-size="14.00"> v6</text>
<text text-anchor="start" x="97.5" y="-1581.3" font-family="Times,serif" font-size="14.00"> v7</text>
<text text-anchor="start" x="97.5" y="-1566.3" font-family="Times,serif" font-size="14.00"> v8</text>
<text text-anchor="start" x="97.5" y="-1551.3" font-family="Times,serif" font-size="14.00"> v9</text>
<text text-anchor="start" x="97.5" y="-1536.3" font-family="Times,serif" font-size="14.00"> v10</text>
<text text-anchor="start" x="97.5" y="-1521.3" font-family="Times,serif" font-size="14.00"> v11</text>
<text text-anchor="start" x="97.5" y="-1506.3" font-family="Times,serif" font-size="14.00"> v12</text>
<text text-anchor="start" x="97.5" y="-1491.3" font-family="Times,serif" font-size="14.00"> v13</text>
<text text-anchor="start" x="97.5" y="-1476.3" font-family="Times,serif" font-size="14.00"> v14</text>
<text text-anchor="start" x="97.5" y="-1461.3" font-family="Times,serif" font-size="14.00"> v15</text>
<text text-anchor="start" x="97.5" y="-1446.3" font-family="Times,serif" font-size="14.00"> v16</text>
<text text-anchor="start" x="97.5" y="-1431.3" font-family="Times,serif" font-size="14.00"> v17</text>
<text text-anchor="start" x="97.5" y="-1416.3" font-family="Times,serif" font-size="14.00"> v18</text>
<text text-anchor="start" x="97.5" y="-1401.3" font-family="Times,serif" font-size="14.00"> result</text>
<text text-anchor="start" x="97.5" y="-1386.3" font-family="Times,serif" font-size="14.00"> v19</text>
<text text-anchor="start" x="97.5" y="-1371.3" font-family="Times,serif" font-size="14.00"> result2</text>
<text text-anchor="start" x="97.5" y="-1356.3" font-family="Times,serif" font-size="14.00"> v20</text>
<text text-anchor="start" x="97.5" y="-1341.3" font-family="Times,serif" font-size="14.00"> v21</text>
<text text-anchor="start" x="97.5" y="-1326.3" font-family="Times,serif" font-size="14.00"> v22</text>
<text text-anchor="start" x="97.5" y="-1311.3" font-family="Times,serif" font-size="14.00"> v23</text>
<text text-anchor="start" x="97.5" y="-1296.3" font-family="Times,serif" font-size="14.00"> v24</text>
<text text-anchor="start" x="97.5" y="-1281.3" font-family="Times,serif" font-size="14.00"> v25</text>
<text text-anchor="start" x="97.5" y="-1266.3" font-family="Times,serif" font-size="14.00"> v26</text>
<text text-anchor="start" x="97.5" y="-1251.3" font-family="Times,serif" font-size="14.00"> v27</text>
<text text-anchor="start" x="97.5" y="-1236.3" font-family="Times,serif" font-size="14.00"> v5 = v6</text>
<text text-anchor="start" x="97.5" y="-1221.3" font-family="Times,serif" font-size="14.00"> v9 = v10</text>
<text text-anchor="start" x="97.5" y="-1206.3" font-family="Times,serif" font-size="14.00"> v13 = v14</text>
<text text-anchor="start" x="97.5" y="-1191.3" font-family="Times,serif" font-size="14.00"> v13 = a1</text>
<text text-anchor="start" x="97.5" y="-1176.3" font-family="Times,serif" font-size="14.00"> v26 = PtrToIntCastExpr&lt;int32&gt;(a1)</text>
<text text-anchor="start" x="97.5" y="-1161.3" font-family="Times,serif" font-size="14.00"> v17 = g7</text>
<text text-anchor="start" x="97.5" y="-1146.3" font-family="Times,serif" font-size="14.00"> v18 = g5</text>
<text text-anchor="start" x="97.5" y="-1131.3" font-family="Times,serif" font-size="14.00"> g7 = v18</text>
</g>
<!-- Node0xef81b40&#45;&gt;Node0xef825d0 -->
<g id="edge1" class="edge"><title>Node0xef81b40&#45;&gt;Node0xef825d0</title>
<path fill="none" stroke="black" d="M232,-1724.43C232,-1716.34 232,-1707.02 232,-1696.76"/>
<polygon fill="black" stroke="black" points="235.5,-1696.66 232,-1686.66 228.5,-1696.66 235.5,-1696.66"/>
</g>
<!-- Node0xef7ee00 -->
<g id="node3" class="node"><title>Node0xef7ee00</title>
<polygon fill="none" stroke="black" points="162,-1049.5 162,-1085.5 302,-1085.5 302,-1049.5 162,-1049.5"/>
<text text-anchor="start" x="170" y="-1063.8" font-family="Times,serif" font-size="14.00">if (a1 == NULL):</text>
</g>
<!-- Node0xef825d0&#45;&gt;Node0xef7ee00 -->
<g id="edge2" class="edge"><title>Node0xef825d0&#45;&gt;Node0xef7ee00</title>
<path fill="none" stroke="black" d="M232,-1123.15C232,-1112.91 232,-1103.72 232,-1095.93"/>
<polygon fill="black" stroke="black" points="235.5,-1095.89 232,-1085.89 228.5,-1095.89 235.5,-1095.89"/>
</g>
<!-- Node0xef82930 -->
<g id="node4" class="node"><title>Node0xef82930</title>
<polygon fill="none" stroke="black" points="0,-707.5 0,-850.5 318,-850.5 318,-707.5 0,-707.5"/>
<text text-anchor="start" x="8" y="-835.3" font-family="Times,serif" font-size="14.00">0x40a6bb:</text>
<text text-anchor="start" x="8" y="-820.3" font-family="Times,serif" font-size="14.00"> g2 = 0</text>
<text text-anchor="start" x="8" y="-805.3" font-family="Times,serif" font-size="14.00"> v9 = NULL</text>
<text text-anchor="start" x="8" y="-790.3" font-family="Times,serif" font-size="14.00"> v5 = NULL</text>
<text text-anchor="start" x="8" y="-775.3" font-family="Times,serif" font-size="14.00"> function_40a550(NULL, NULL, v17, v11)</text>
<text text-anchor="start" x="8" y="-760.3" font-family="Times,serif" font-size="14.00"> result = g7</text>
<text text-anchor="start" x="8" y="-745.3" font-family="Times,serif" font-size="14.00"> v20 = v5</text>
<text text-anchor="start" x="8" y="-730.3" font-family="Times,serif" font-size="14.00"> g7 = PtrToIntCastExpr&lt;int32&gt;(v20)</text>
<text text-anchor="start" x="8" y="-715.3" font-family="Times,serif" font-size="14.00"> return result</text>
</g>
<!-- Node0xef7ee00&#45;&gt;Node0xef82930 -->
<g id="edge3" class="edge"><title>Node0xef7ee00&#45;&gt;Node0xef82930</title>
<path fill="none" stroke="black" d="M181.412,-1049.48C173.706,-1044.69 166.752,-1038.64 162,-1031 130.687,-980.686 131.794,-913.001 139.714,-860.597"/>
<polygon fill="black" stroke="black" points="143.179,-861.095 141.323,-850.664 136.269,-859.975 143.179,-861.095"/>
<text text-anchor="middle" x="209" y="-1019.8" font-family="Times,serif" font-size="14.00">a1 == NULL</text>
</g>
<!-- Node0xef82a10 -->
<g id="node5" class="node"><title>Node0xef82a10</title>
<polygon fill="none" stroke="black" points="195.5,-869.5 195.5,-997.5 464.5,-997.5 464.5,-869.5 195.5,-869.5"/>
<text text-anchor="start" x="203.5" y="-982.3" font-family="Times,serif" font-size="14.00">0x40a6ca:</text>
<text text-anchor="start" x="203.5" y="-967.3" font-family="Times,serif" font-size="14.00"> g2 = v26</text>
<text text-anchor="start" x="203.5" y="-952.3" font-family="Times,serif" font-size="14.00"> v19 = g9</text>
<text text-anchor="start" x="203.5" y="-937.3" font-family="Times,serif" font-size="14.00"> v9 = IntToPtrCastExpr&lt;ptr&gt;(v19)</text>
<text text-anchor="start" x="203.5" y="-922.3" font-family="Times,serif" font-size="14.00"> v24 = (v26 + 1)</text>
<text text-anchor="start" x="203.5" y="-907.3" font-family="Times,serif" font-size="14.00"> g9 = v24</text>
<text text-anchor="start" x="203.5" y="-892.3" font-family="Times,serif" font-size="14.00"> v23 = v26</text>
<text text-anchor="start" x="203.5" y="-877.3" font-family="Times,serif" font-size="14.00"> v25 = v18</text>
</g>
<!-- Node0xef7ee00&#45;&gt;Node0xef82a10 -->
<g id="edge4" class="edge"><title>Node0xef7ee00&#45;&gt;Node0xef82a10</title>
<path fill="none" stroke="black" d="M245.813,-1049.27C250.379,-1043.5 255.453,-1037.01 260,-1031 266.151,-1022.87 272.527,-1014.3 278.813,-1005.75"/>
<polygon fill="black" stroke="black" points="281.712,-1007.71 284.802,-997.579 276.067,-1003.58 281.712,-1007.71"/>
<text text-anchor="middle" x="314" y="-1019.8" font-family="Times,serif" font-size="14.00">a1 != NULL</text>
</g>
<!-- Node0xef82570 -->
<g id="node6" class="node"><title>Node0xef82570</title>
<polygon fill="none" stroke="black" points="173,-23.5 173,-59.5 227,-59.5 227,-23.5 173,-23.5"/>
<text text-anchor="start" x="181" y="-37.8" font-family="Times,serif" font-size="14.00">exit:</text>
</g>
<!-- Node0xef82930&#45;&gt;Node0xef82570 -->
<g id="edge5" class="edge"><title>Node0xef82930&#45;&gt;Node0xef82570</title>
<path fill="none" stroke="black" d="M153.686,-707.222C152.209,-682.067 151,-653.535 151,-627.5 151,-627.5 151,-627.5 151,-198 151,-152.324 154.571,-139.991 170,-97 173.52,-87.1917 178.648,-77.0351 183.672,-68.186"/>
<polygon fill="black" stroke="black" points="186.726,-69.8974 188.798,-59.5071 180.699,-66.3374 186.726,-69.8974"/>
</g>
<!-- Node0xef831e0 -->
<g id="node7" class="node"><title>Node0xef831e0</title>
<polygon fill="none" stroke="black" points="305.5,-652.5 305.5,-688.5 402.5,-688.5 402.5,-652.5 305.5,-652.5"/>
<text text-anchor="start" x="313.5" y="-666.8" font-family="Times,serif" font-size="14.00">while True:</text>
</g>
<!-- Node0xef82a10&#45;&gt;Node0xef831e0 -->
<g id="edge6" class="edge"><title>Node0xef82a10&#45;&gt;Node0xef831e0</title>
<path fill="none" stroke="black" d="M335.81,-869.319C340.817,-814.87 347.803,-738.89 351.491,-698.788"/>
<polygon fill="black" stroke="black" points="354.987,-698.985 352.418,-688.707 348.017,-698.344 354.987,-698.985"/>
</g>
<!-- Node0xef83150 -->
<g id="node8" class="node"><title>Node0xef83150</title>
<polygon fill="none" stroke="black" points="249.5,-517.5 249.5,-600.5 458.5,-600.5 458.5,-517.5 249.5,-517.5"/>
<text text-anchor="start" x="257.5" y="-585.3" font-family="Times,serif" font-size="14.00">0x40a6d0:</text>
<text text-anchor="start" x="257.5" y="-570.3" font-family="Times,serif" font-size="14.00"> v21 = *(&amp;(a1[&#39;0&#39;]))</text>
<text text-anchor="start" x="257.5" y="-555.3" font-family="Times,serif" font-size="14.00"> v27 = ((v25 &amp; &#45;256) | v21)</text>
<text text-anchor="start" x="257.5" y="-540.3" font-family="Times,serif" font-size="14.00"> v1 = (v23 + 1)</text>
<text text-anchor="start" x="257.5" y="-525.3" font-family="Times,serif" font-size="14.00"> g2 = v1</text>
</g>
<!-- Node0xef831e0&#45;&gt;Node0xef83150 -->
<g id="edge7" class="edge"><title>Node0xef831e0&#45;&gt;Node0xef83150</title>
<path fill="none" stroke="black" d="M354,-652.391C354,-641.15 354,-625.807 354,-610.853"/>
<polygon fill="black" stroke="black" points="357.5,-610.618 354,-600.618 350.5,-610.618 357.5,-610.618"/>
<text text-anchor="middle" x="371" y="-622.8" font-family="Times,serif" font-size="14.00">True</text>
</g>
<!-- Node0xef82790 -->
<g id="node9" class="node"><title>Node0xef82790</title>
<polygon fill="none" stroke="black" points="297,-443.5 297,-479.5 411,-479.5 411,-443.5 297,-443.5"/>
<text text-anchor="start" x="305" y="-457.8" font-family="Times,serif" font-size="14.00">if (v27 == 0):</text>
</g>
<!-- Node0xef83150&#45;&gt;Node0xef82790 -->
<g id="edge8" class="edge"><title>Node0xef83150&#45;&gt;Node0xef82790</title>
<path fill="none" stroke="black" d="M354,-517.499C354,-508.206 354,-498.537 354,-489.946"/>
<polygon fill="black" stroke="black" points="357.5,-489.749 354,-479.749 350.5,-489.749 357.5,-489.749"/>
</g>
<!-- Node0xef83db0 -->
<g id="node10" class="node"><title>Node0xef83db0</title>
<polygon fill="none" stroke="black" points="241,-346 241,-384 399,-384 399,-346 241,-346"/>
<text text-anchor="start" x="249" y="-368.8" font-family="Times,serif" font-size="14.00">break &#45;&gt; 0x40a6d9:</text>
<text text-anchor="start" x="249" y="-353.8" font-family="Times,serif" font-size="14.00"> break</text>
</g>
<!-- Node0xef82790&#45;&gt;Node0xef83db0 -->
<g id="edge9" class="edge"><title>Node0xef82790&#45;&gt;Node0xef83db0</title>
<path fill="none" stroke="black" d="M331.932,-443.438C326.701,-438.153 321.824,-431.887 319,-425 315.118,-415.533 314.417,-404.473 315.006,-394.503"/>
<polygon fill="black" stroke="black" points="318.52,-394.546 316.062,-384.241 311.557,-393.83 318.52,-394.546"/>
<text text-anchor="middle" x="353.5" y="-413.8" font-family="Times,serif" font-size="14.00">v27 == 0</text>
</g>
<!-- Node0xef83d50 -->
<g id="node11" class="node"><title>Node0xef83d50</title>
<polygon fill="none" stroke="black" points="428.5,-338.5 428.5,-391.5 523.5,-391.5 523.5,-338.5 428.5,-338.5"/>
<text text-anchor="start" x="436.5" y="-376.3" font-family="Times,serif" font-size="14.00">v23 = v1</text>
<text text-anchor="start" x="436.5" y="-361.3" font-family="Times,serif" font-size="14.00"> v25 = v27</text>
<text text-anchor="start" x="436.5" y="-346.3" font-family="Times,serif" font-size="14.00"> continue</text>
</g>
<!-- Node0xef82790&#45;&gt;Node0xef83d50 -->
<g id="edge10" class="edge"><title>Node0xef82790&#45;&gt;Node0xef83d50</title>
<path fill="none" stroke="black" d="M372.219,-443.267C383.159,-433.199 397.527,-420.457 411,-410 416.352,-405.846 422.077,-401.646 427.828,-397.574"/>
<polygon fill="black" stroke="black" points="430.027,-400.308 436.233,-391.721 426.026,-394.564 430.027,-400.308"/>
<text text-anchor="middle" x="442.5" y="-413.8" font-family="Times,serif" font-size="14.00">v27 != 0</text>
</g>
<!-- Node0xef83060 -->
<g id="node12" class="node"><title>Node0xef83060</title>
<polygon fill="none" stroke="black" points="179,-97.5 179,-300.5 465,-300.5 465,-97.5 179,-97.5"/>
<text text-anchor="start" x="187" y="-285.3" font-family="Times,serif" font-size="14.00">0x40a6d9:</text>
<text text-anchor="start" x="187" y="-270.3" font-family="Times,serif" font-size="14.00"> v16 = (v1 &#45; v24)</text>
<text text-anchor="start" x="187" y="-255.3" font-family="Times,serif" font-size="14.00"> g2 = v16</text>
<text text-anchor="start" x="187" y="-240.3" font-family="Times,serif" font-size="14.00"> g9 = v19</text>
<text text-anchor="start" x="187" y="-225.3" font-family="Times,serif" font-size="14.00"> v2 = IntToPtrCastExpr&lt;ptr&gt;(v16)</text>
<text text-anchor="start" x="187" y="-210.3" font-family="Times,serif" font-size="14.00"> v9 = v2</text>
<text text-anchor="start" x="187" y="-195.3" font-family="Times,serif" font-size="14.00"> v5 = a1</text>
<text text-anchor="start" x="187" y="-180.3" font-family="Times,serif" font-size="14.00"> g5 = v18</text>
<text text-anchor="start" x="187" y="-165.3" font-family="Times,serif" font-size="14.00"> function_40a550(a1, v2, v17, v11)</text>
<text text-anchor="start" x="187" y="-150.3" font-family="Times,serif" font-size="14.00"> result2 = g7</text>
<text text-anchor="start" x="187" y="-135.3" font-family="Times,serif" font-size="14.00"> v22 = v5</text>
<text text-anchor="start" x="187" y="-120.3" font-family="Times,serif" font-size="14.00"> g7 = PtrToIntCastExpr&lt;int32&gt;(v22)</text>
<text text-anchor="start" x="187" y="-105.3" font-family="Times,serif" font-size="14.00"> return result2</text>
</g>
<!-- Node0xef83db0&#45;&gt;Node0xef83060 -->
<g id="edge11" class="edge"><title>Node0xef83db0&#45;&gt;Node0xef83060</title>
<path fill="none" stroke="black" d="M320.222,-345.823C320.336,-336.427 320.487,-324.107 320.651,-310.603"/>
<polygon fill="black" stroke="black" points="324.151,-310.628 320.773,-300.586 317.152,-310.543 324.151,-310.628"/>
</g>
<!-- Node0xef83d50&#45;&gt;Node0xef831e0 -->
<g id="edge12" class="edge"><title>Node0xef83d50&#45;&gt;Node0xef831e0</title>
<path fill="none" stroke="black" d="M482.603,-391.837C492.767,-437.595 507.234,-534.329 468,-601 455.396,-622.417 433.241,-637.933 411.793,-648.725"/>
<polygon fill="black" stroke="black" points="410.201,-645.607 402.675,-653.064 413.208,-651.928 410.201,-645.607"/>
</g>
<!-- Node0xef83060&#45;&gt;Node0xef82570 -->
<g id="edge13" class="edge"><title>Node0xef83060&#45;&gt;Node0xef82570</title>
<path fill="none" stroke="black" d="M243.013,-97.3235C234.492,-86.4632 226.486,-76.2584 219.744,-67.6661"/>
<polygon fill="black" stroke="black" points="222.379,-65.3538 213.453,-59.6466 216.872,-69.6747 222.379,-65.3538"/>
</g>
</g>
</svg>
