<?xml version="1.0" encoding="UTF-8" standalone="no"?>
<!DOCTYPE svg PUBLIC "-//W3C//DTD SVG 1.1//EN"
 "http://www.w3.org/Graphics/SVG/1.1/DTD/svg11.dtd">
<!-- Generated by graphviz version 2.38.0 (20140413.2041)
 -->
<!-- Title: Control&#45;flow graph for function &#39;function_43c93e(a1)&#39;. Pages: 1 -->
<svg width="601pt" height="323pt"
 viewBox="0.00 0.00 601.00 323.00" xmlns="http://www.w3.org/2000/svg" xmlns:xlink="http://www.w3.org/1999/xlink">
<g id="graph0" class="graph" transform="scale(1 1) rotate(0) translate(4 319)">
<title>Control&#45;flow graph for function &#39;function_43c93e(a1)&#39;.</title>
<polygon fill="white" stroke="none" points="-4,4 -4,-319 597,-319 597,4 -4,4"/>
<text text-anchor="middle" x="296.5" y="-7.8" font-family="Times,serif" font-size="14.00">Control&#45;flow graph for function &#39;function_43c93e(a1)&#39;.</text>
<!-- Node0x1015b900 -->
<g id="node1" class="node"><title>Node0x1015b900</title>
<polygon fill="none" stroke="black" points="267,-276.5 267,-314.5 326,-314.5 326,-276.5 267,-276.5"/>
<text text-anchor="start" x="275" y="-299.3" font-family="Times,serif" font-size="14.00">entry:</text>
<text text-anchor="start" x="275" y="-284.3" font-family="Times,serif" font-size="14.00"> a1</text>
</g>
<!-- Node0xdf24260 -->
<g id="node2" class="node"><title>Node0xdf24260</title>
<polygon fill="none" stroke="black" points="0,-96.5 0,-239.5 593,-239.5 593,-96.5 0,-96.5"/>
<text text-anchor="start" x="8" y="-224.3" font-family="Times,serif" font-size="14.00">result</text>
<text text-anchor="start" x="8" y="-209.3" font-family="Times,serif" font-size="14.00"> v1</text>
<text text-anchor="start" x="8" y="-194.3" font-family="Times,serif" font-size="14.00"> v2</text>
<text text-anchor="start" x="8" y="-179.3" font-family="Times,serif" font-size="14.00"> v3</text>
<text text-anchor="start" x="8" y="-164.3" font-family="Times,serif" font-size="14.00"> v4</text>
<text text-anchor="start" x="8" y="-149.3" font-family="Times,serif" font-size="14.00"> v3 = g5</text>
<text text-anchor="start" x="8" y="-134.3" font-family="Times,serif" font-size="14.00"> v4 = *(IntToPtrCastExpr&lt;ptr&gt;((v3 + 4)))</text>
<text text-anchor="start" x="8" y="-119.3" font-family="Times,serif" font-size="14.00"> result = (PtrToIntCastExpr&lt;int32&gt;(&quot;Unknown exception&quot;) if (v4 == 0) else v4)</text>
<text text-anchor="start" x="8" y="-104.3" font-family="Times,serif" font-size="14.00"> return result</text>
</g>
<!-- Node0x1015b900&#45;&gt;Node0xdf24260 -->
<g id="edge1" class="edge"><title>Node0x1015b900&#45;&gt;Node0xdf24260</title>
<path fill="none" stroke="black" d="M296.5,-276.251C296.5,-268.756 296.5,-259.516 296.5,-249.63"/>
<polygon fill="black" stroke="black" points="300,-249.569 296.5,-239.569 293,-249.569 300,-249.569"/>
</g>
<!-- Node0x1016b0d0 -->
<g id="node3" class="node"><title>Node0x1016b0d0</title>
<polygon fill="none" stroke="black" points="269.5,-23.5 269.5,-59.5 323.5,-59.5 323.5,-23.5 269.5,-23.5"/>
<text text-anchor="start" x="277.5" y="-37.8" font-family="Times,serif" font-size="14.00">exit:</text>
</g>
<!-- Node0xdf24260&#45;&gt;Node0x1016b0d0 -->
<g id="edge2" class="edge"><title>Node0xdf24260&#45;&gt;Node0x1016b0d0</title>
<path fill="none" stroke="black" d="M296.5,-96.3834C296.5,-87.0259 296.5,-77.9253 296.5,-69.9482"/>
<polygon fill="black" stroke="black" points="300,-69.848 296.5,-59.848 293,-69.8481 300,-69.848"/>
</g>
</g>
</svg>
