<?xml version="1.0" encoding="UTF-8" standalone="no"?>
<!DOCTYPE svg PUBLIC "-//W3C//DTD SVG 1.1//EN"
 "http://www.w3.org/Graphics/SVG/1.1/DTD/svg11.dtd">
<!-- Generated by graphviz version 2.38.0 (20140413.2041)
 -->
<!-- Title: Control&#45;flow graph for function &#39;function_40c630(a1)&#39;. Pages: 1 -->
<svg width="644pt" height="2082pt"
 viewBox="0.00 0.00 643.50 2082.00" xmlns="http://www.w3.org/2000/svg" xmlns:xlink="http://www.w3.org/1999/xlink">
<g id="graph0" class="graph" transform="scale(1 1) rotate(0) translate(4 2078)">
<title>Control&#45;flow graph for function &#39;function_40c630(a1)&#39;.</title>
<polygon fill="white" stroke="none" points="-4,4 -4,-2078 639.5,-2078 639.5,4 -4,4"/>
<text text-anchor="middle" x="317.75" y="-7.8" font-family="Times,serif" font-size="14.00">Control&#45;flow graph for function &#39;function_40c630(a1)&#39;.</text>
<!-- Node0xf014e00 -->
<g id="node1" class="node"><title>Node0xf014e00</title>
<polygon fill="none" stroke="black" points="294.5,-2035.5 294.5,-2073.5 353.5,-2073.5 353.5,-2035.5 294.5,-2035.5"/>
<text text-anchor="start" x="302.5" y="-2058.3" font-family="Times,serif" font-size="14.00">entry:</text>
<text text-anchor="start" x="302.5" y="-2043.3" font-family="Times,serif" font-size="14.00"> a1</text>
</g>
<!-- Node0xf0101d0 -->
<g id="node2" class="node"><title>Node0xf0101d0</title>
<polygon fill="none" stroke="black" points="151,-1299.5 151,-1997.5 497,-1997.5 497,-1299.5 151,-1299.5"/>
<text text-anchor="start" x="159" y="-1982.3" font-family="Times,serif" font-size="14.00">v1</text>
<text text-anchor="start" x="159" y="-1967.3" font-family="Times,serif" font-size="14.00"> v2</text>
<text text-anchor="start" x="159" y="-1952.3" font-family="Times,serif" font-size="14.00"> v3</text>
<text text-anchor="start" x="159" y="-1937.3" font-family="Times,serif" font-size="14.00"> v4</text>
<text text-anchor="start" x="159" y="-1922.3" font-family="Times,serif" font-size="14.00"> v5</text>
<text text-anchor="start" x="159" y="-1907.3" font-family="Times,serif" font-size="14.00"> v6</text>
<text text-anchor="start" x="159" y="-1892.3" font-family="Times,serif" font-size="14.00"> v7</text>
<text text-anchor="start" x="159" y="-1877.3" font-family="Times,serif" font-size="14.00"> result</text>
<text text-anchor="start" x="159" y="-1862.3" font-family="Times,serif" font-size="14.00"> v8</text>
<text text-anchor="start" x="159" y="-1847.3" font-family="Times,serif" font-size="14.00"> v9</text>
<text text-anchor="start" x="159" y="-1832.3" font-family="Times,serif" font-size="14.00"> v10</text>
<text text-anchor="start" x="159" y="-1817.3" font-family="Times,serif" font-size="14.00"> v11</text>
<text text-anchor="start" x="159" y="-1802.3" font-family="Times,serif" font-size="14.00"> v12</text>
<text text-anchor="start" x="159" y="-1787.3" font-family="Times,serif" font-size="14.00"> v13</text>
<text text-anchor="start" x="159" y="-1772.3" font-family="Times,serif" font-size="14.00"> v14</text>
<text text-anchor="start" x="159" y="-1757.3" font-family="Times,serif" font-size="14.00"> v15</text>
<text text-anchor="start" x="159" y="-1742.3" font-family="Times,serif" font-size="14.00"> v16</text>
<text text-anchor="start" x="159" y="-1727.3" font-family="Times,serif" font-size="14.00"> v17</text>
<text text-anchor="start" x="159" y="-1712.3" font-family="Times,serif" font-size="14.00"> v18</text>
<text text-anchor="start" x="159" y="-1697.3" font-family="Times,serif" font-size="14.00"> v19</text>
<text text-anchor="start" x="159" y="-1682.3" font-family="Times,serif" font-size="14.00"> v20</text>
<text text-anchor="start" x="159" y="-1667.3" font-family="Times,serif" font-size="14.00"> v21</text>
<text text-anchor="start" x="159" y="-1652.3" font-family="Times,serif" font-size="14.00"> v22</text>
<text text-anchor="start" x="159" y="-1637.3" font-family="Times,serif" font-size="14.00"> v23</text>
<text text-anchor="start" x="159" y="-1622.3" font-family="Times,serif" font-size="14.00"> v24</text>
<text text-anchor="start" x="159" y="-1607.3" font-family="Times,serif" font-size="14.00"> v25</text>
<text text-anchor="start" x="159" y="-1592.3" font-family="Times,serif" font-size="14.00"> v26</text>
<text text-anchor="start" x="159" y="-1577.3" font-family="Times,serif" font-size="14.00"> v27</text>
<text text-anchor="start" x="159" y="-1562.3" font-family="Times,serif" font-size="14.00"> v28</text>
<text text-anchor="start" x="159" y="-1547.3" font-family="Times,serif" font-size="14.00"> v29</text>
<text text-anchor="start" x="159" y="-1532.3" font-family="Times,serif" font-size="14.00"> v30</text>
<text text-anchor="start" x="159" y="-1517.3" font-family="Times,serif" font-size="14.00"> v31</text>
<text text-anchor="start" x="159" y="-1502.3" font-family="Times,serif" font-size="14.00"> v32</text>
<text text-anchor="start" x="159" y="-1487.3" font-family="Times,serif" font-size="14.00"> v33</text>
<text text-anchor="start" x="159" y="-1472.3" font-family="Times,serif" font-size="14.00"> v34</text>
<text text-anchor="start" x="159" y="-1457.3" font-family="Times,serif" font-size="14.00"> v35</text>
<text text-anchor="start" x="159" y="-1442.3" font-family="Times,serif" font-size="14.00"> v36</text>
<text text-anchor="start" x="159" y="-1427.3" font-family="Times,serif" font-size="14.00"> v9 = v10</text>
<text text-anchor="start" x="159" y="-1412.3" font-family="Times,serif" font-size="14.00"> v16 = g9</text>
<text text-anchor="start" x="159" y="-1397.3" font-family="Times,serif" font-size="14.00"> v28 = *(IntToPtrCastExpr&lt;ptr&gt;((v16 + 56)))</text>
<text text-anchor="start" x="159" y="-1382.3" font-family="Times,serif" font-size="14.00"> v14 = g4</text>
<text text-anchor="start" x="159" y="-1367.3" font-family="Times,serif" font-size="14.00"> v9 = v14</text>
<text text-anchor="start" x="159" y="-1352.3" font-family="Times,serif" font-size="14.00"> v1 = PtrToIntCastExpr&lt;int32&gt;(&amp;(v9))</text>
<text text-anchor="start" x="159" y="-1337.3" font-family="Times,serif" font-size="14.00"> g10 = v1</text>
<text text-anchor="start" x="159" y="-1322.3" font-family="Times,serif" font-size="14.00"> g4 = 0</text>
<text text-anchor="start" x="159" y="-1307.3" font-family="Times,serif" font-size="14.00"> v18 = v16</text>
</g>
<!-- Node0xf014e00&#45;&gt;Node0xf0101d0 -->
<g id="edge1" class="edge"><title>Node0xf014e00&#45;&gt;Node0xf0101d0</title>
<path fill="none" stroke="black" d="M324,-2035.36C324,-2027.99 324,-2018.63 324,-2007.69"/>
<polygon fill="black" stroke="black" points="327.5,-2007.69 324,-1997.69 320.5,-2007.69 327.5,-2007.69"/>
</g>
<!-- Node0xf00ba20 -->
<g id="node3" class="node"><title>Node0xf00ba20</title>
<polygon fill="none" stroke="black" points="270,-1225.5 270,-1261.5 378,-1261.5 378,-1225.5 270,-1225.5"/>
<text text-anchor="start" x="278" y="-1239.8" font-family="Times,serif" font-size="14.00">if (v28 != 0):</text>
</g>
<!-- Node0xf0101d0&#45;&gt;Node0xf00ba20 -->
<g id="edge2" class="edge"><title>Node0xf0101d0&#45;&gt;Node0xf00ba20</title>
<path fill="none" stroke="black" d="M324,-1299.27C324,-1288.87 324,-1279.62 324,-1271.8"/>
<polygon fill="black" stroke="black" points="327.5,-1271.75 324,-1261.75 320.5,-1271.75 327.5,-1271.75"/>
</g>
<!-- Node0xefb5a60 -->
<g id="node4" class="node"><title>Node0xefb5a60</title>
<polygon fill="none" stroke="black" points="175,-1090.5 175,-1173.5 327,-1173.5 327,-1090.5 175,-1090.5"/>
<text text-anchor="start" x="183" y="-1158.3" font-family="Times,serif" font-size="14.00">0x40c63a:</text>
<text text-anchor="start" x="183" y="-1143.3" font-family="Times,serif" font-size="14.00"> function_40c783()</text>
<text text-anchor="start" x="183" y="-1128.3" font-family="Times,serif" font-size="14.00"> g10 = v1</text>
<text text-anchor="start" x="183" y="-1113.3" font-family="Times,serif" font-size="14.00"> v17 = g9</text>
<text text-anchor="start" x="183" y="-1098.3" font-family="Times,serif" font-size="14.00"> v18 = v17</text>
</g>
<!-- Node0xf00ba20&#45;&gt;Node0xefb5a60 -->
<g id="edge3" class="edge"><title>Node0xf00ba20&#45;&gt;Node0xefb5a60</title>
<path fill="none" stroke="black" d="M302.831,-1225.36C296.91,-1219.9 290.791,-1213.56 286,-1207 280.585,-1199.58 275.673,-1191.19 271.356,-1182.8"/>
<polygon fill="black" stroke="black" points="274.454,-1181.17 266.909,-1173.73 268.169,-1184.25 274.454,-1181.17"/>
<text text-anchor="middle" x="317.5" y="-1195.8" font-family="Times,serif" font-size="14.00">v28 != 0</text>
</g>
<!-- Node0xf00b540 -->
<g id="node5" class="node"><title>Node0xf00b540</title>
<polygon fill="none" stroke="black" points="156,-984.5 156,-1052.5 502,-1052.5 502,-984.5 156,-984.5"/>
<text text-anchor="start" x="164" y="-1037.3" font-family="Times,serif" font-size="14.00">0x40c643:</text>
<text text-anchor="start" x="164" y="-1022.3" font-family="Times,serif" font-size="14.00"> v35 = *(IntToPtrCastExpr&lt;ptr&gt;((v18 + 52)))</text>
<text text-anchor="start" x="164" y="-1007.3" font-family="Times,serif" font-size="14.00"> v19 = v18</text>
<text text-anchor="start" x="164" y="-992.3" font-family="Times,serif" font-size="14.00"> result = v28</text>
</g>
<!-- Node0xf00ba20&#45;&gt;Node0xf00b540 -->
<g id="edge4" class="edge"><title>Node0xf00ba20&#45;&gt;Node0xf00b540</title>
<path fill="none" stroke="black" d="M339.319,-1225.24C343.253,-1219.78 346.951,-1213.47 349,-1207 364.156,-1159.16 353.988,-1101.38 343.391,-1062.72"/>
<polygon fill="black" stroke="black" points="346.677,-1061.48 340.557,-1052.83 339.948,-1063.41 346.677,-1061.48"/>
<text text-anchor="middle" x="391.5" y="-1128.3" font-family="Times,serif" font-size="14.00">v28 == 0</text>
</g>
<!-- Node0xefb5a60&#45;&gt;Node0xf00b540 -->
<g id="edge5" class="edge"><title>Node0xefb5a60&#45;&gt;Node0xf00b540</title>
<path fill="none" stroke="black" d="M279.38,-1090.43C286.118,-1080.8 293.314,-1070.51 300.076,-1060.85"/>
<polygon fill="black" stroke="black" points="303.02,-1062.74 305.884,-1052.54 297.284,-1058.73 303.02,-1062.74"/>
</g>
<!-- Node0xf00df30 -->
<g id="node6" class="node"><title>Node0xf00df30</title>
<polygon fill="none" stroke="black" points="267.5,-910.5 267.5,-946.5 390.5,-946.5 390.5,-910.5 267.5,-910.5"/>
<text text-anchor="start" x="275.5" y="-924.8" font-family="Times,serif" font-size="14.00">if (v35 &gt;= 16):</text>
</g>
<!-- Node0xf00b540&#45;&gt;Node0xf00df30 -->
<g id="edge6" class="edge"><title>Node0xf00b540&#45;&gt;Node0xf00df30</title>
<path fill="none" stroke="black" d="M329,-984.482C329,-975.328 329,-965.497 329,-956.715"/>
<polygon fill="black" stroke="black" points="332.5,-956.64 329,-946.64 325.5,-956.64 332.5,-956.64"/>
</g>
<!-- Node0xf006700 -->
<g id="node7" class="node"><title>Node0xf006700</title>
<polygon fill="none" stroke="black" points="0,-745.5 0,-858.5 346,-858.5 346,-745.5 0,-745.5"/>
<text text-anchor="start" x="8" y="-843.3" font-family="Times,serif" font-size="14.00">0x40c649:</text>
<text text-anchor="start" x="8" y="-828.3" font-family="Times,serif" font-size="14.00"> v29 = *(IntToPtrCastExpr&lt;ptr&gt;((v18 + 32)))</text>
<text text-anchor="start" x="8" y="-813.3" font-family="Times,serif" font-size="14.00"> function_40c783()</text>
<text text-anchor="start" x="8" y="-798.3" font-family="Times,serif" font-size="14.00"> g10 = v1</text>
<text text-anchor="start" x="8" y="-783.3" font-family="Times,serif" font-size="14.00"> v20 = g9</text>
<text text-anchor="start" x="8" y="-768.3" font-family="Times,serif" font-size="14.00"> v19 = v20</text>
<text text-anchor="start" x="8" y="-753.3" font-family="Times,serif" font-size="14.00"> result = v29</text>
</g>
<!-- Node0xf00df30&#45;&gt;Node0xf006700 -->
<g id="edge7" class="edge"><title>Node0xf00df30&#45;&gt;Node0xf006700</title>
<path fill="none" stroke="black" d="M307.636,-910.45C292.689,-898.521 271.723,-881.788 250.778,-865.073"/>
<polygon fill="black" stroke="black" points="252.763,-862.179 242.764,-858.677 248.397,-867.65 252.763,-862.179"/>
<text text-anchor="middle" x="322" y="-880.8" font-family="Times,serif" font-size="14.00">v35 &gt;= 16</text>
</g>
<!-- Node0xf00a920 -->
<g id="node8" class="node"><title>Node0xf00a920</title>
<polygon fill="none" stroke="black" points="64,-549.5 64,-707.5 582,-707.5 582,-549.5 64,-549.5"/>
<text text-anchor="start" x="72" y="-692.3" font-family="Times,serif" font-size="14.00">0x40c655:</text>
<text text-anchor="start" x="72" y="-677.3" font-family="Times,serif" font-size="14.00"> *(IntToPtrCastExpr&lt;ptr&gt;((v19 + 52))) = 15</text>
<text text-anchor="start" x="72" y="-662.3" font-family="Times,serif" font-size="14.00"> v21 = g9</text>
<text text-anchor="start" x="72" y="-647.3" font-family="Times,serif" font-size="14.00"> v30 = g4</text>
<text text-anchor="start" x="72" y="-632.3" font-family="Times,serif" font-size="14.00"> *(IntToPtrCastExpr&lt;ptr&gt;((v21 + 48))) = v30</text>
<text text-anchor="start" x="72" y="-617.3" font-family="Times,serif" font-size="14.00"> v22 = g9</text>
<text text-anchor="start" x="72" y="-602.3" font-family="Times,serif" font-size="14.00"> v31 = g4</text>
<text text-anchor="start" x="72" y="-587.3" font-family="Times,serif" font-size="14.00"> *(IntToPtrCastExpr&lt;ptr&gt;((v22 + 32))) = TruncCastExpr&lt;int8&gt;(v31)</text>
<text text-anchor="start" x="72" y="-572.3" font-family="Times,serif" font-size="14.00"> v23 = g9</text>
<text text-anchor="start" x="72" y="-557.3" font-family="Times,serif" font-size="14.00"> v36 = *(IntToPtrCastExpr&lt;ptr&gt;((v23 + 24)))</text>
</g>
<!-- Node0xf00df30&#45;&gt;Node0xf00a920 -->
<g id="edge8" class="edge"><title>Node0xf00df30&#45;&gt;Node0xf00a920</title>
<path fill="none" stroke="black" d="M352.062,-910.17C357.3,-904.962 362.155,-898.802 365,-892 367.573,-885.85 365.252,-883.662 365,-877 362.776,-818.207 365.125,-802.957 355,-745 353.435,-736.044 351.473,-726.78 349.293,-717.575"/>
<polygon fill="black" stroke="black" points="352.634,-716.504 346.852,-707.626 345.836,-718.172 352.634,-716.504"/>
<text text-anchor="middle" x="398" y="-798.3" font-family="Times,serif" font-size="14.00">v35 &lt; 16</text>
</g>
<!-- Node0xf006700&#45;&gt;Node0xf00a920 -->
<g id="edge9" class="edge"><title>Node0xf006700&#45;&gt;Node0xf00a920</title>
<path fill="none" stroke="black" d="M221.701,-745.319C230.085,-735.732 238.972,-725.572 247.862,-715.408"/>
<polygon fill="black" stroke="black" points="250.703,-717.476 254.652,-707.645 245.434,-712.868 250.703,-717.476"/>
</g>
<!-- Node0xefc3cf0 -->
<g id="node9" class="node"><title>Node0xefc3cf0</title>
<polygon fill="none" stroke="black" points="261.5,-473.5 261.5,-511.5 384.5,-511.5 384.5,-473.5 261.5,-473.5"/>
<text text-anchor="start" x="269.5" y="-496.3" font-family="Times,serif" font-size="14.00">if (v36 &gt;= 16):</text>
<text text-anchor="start" x="269.5" y="-481.3" font-family="Times,serif" font-size="14.00"> else:</text>
</g>
<!-- Node0xf00a920&#45;&gt;Node0xefc3cf0 -->
<g id="edge10" class="edge"><title>Node0xf00a920&#45;&gt;Node0xefc3cf0</title>
<path fill="none" stroke="black" d="M323,-549.164C323,-539.447 323,-530.058 323,-521.846"/>
<polygon fill="black" stroke="black" points="326.5,-521.801 323,-511.801 319.5,-521.801 326.5,-521.801"/>
</g>
<!-- Node0xefcdff0 -->
<g id="node10" class="node"><title>Node0xefcdff0</title>
<polygon fill="none" stroke="black" points="71.5,-308.5 71.5,-421.5 408.5,-421.5 408.5,-308.5 71.5,-308.5"/>
<text text-anchor="start" x="79.5" y="-406.3" font-family="Times,serif" font-size="14.00">0x40c668:</text>
<text text-anchor="start" x="79.5" y="-391.3" font-family="Times,serif" font-size="14.00"> v32 = *(IntToPtrCastExpr&lt;ptr&gt;((v23 + 4)))</text>
<text text-anchor="start" x="79.5" y="-376.3" font-family="Times,serif" font-size="14.00"> g5 = v32</text>
<text text-anchor="start" x="79.5" y="-361.3" font-family="Times,serif" font-size="14.00"> function_40c783()</text>
<text text-anchor="start" x="79.5" y="-346.3" font-family="Times,serif" font-size="14.00"> g10 = v1</text>
<text text-anchor="start" x="79.5" y="-331.3" font-family="Times,serif" font-size="14.00"> v25 = g9</text>
<text text-anchor="start" x="79.5" y="-316.3" font-family="Times,serif" font-size="14.00"> v24 = v25</text>
</g>
<!-- Node0xefc3cf0&#45;&gt;Node0xefcdff0 -->
<g id="edge11" class="edge"><title>Node0xefc3cf0&#45;&gt;Node0xefcdff0</title>
<path fill="none" stroke="black" d="M310.931,-473.251C303.306,-461.722 292.95,-446.063 282.509,-430.275"/>
<polygon fill="black" stroke="black" points="285.152,-427.927 276.716,-421.516 279.313,-431.788 285.152,-427.927"/>
<text text-anchor="middle" x="338" y="-443.8" font-family="Times,serif" font-size="14.00">v36 &gt;= 16</text>
</g>
<!-- Node0xefce050 -->
<g id="node11" class="node"><title>Node0xefce050</title>
<polygon fill="none" stroke="black" points="427,-347 427,-383 517,-383 517,-347 427,-347"/>
<text text-anchor="start" x="435" y="-361.3" font-family="Times,serif" font-size="14.00">v24 = v23</text>
</g>
<!-- Node0xefc3cf0&#45;&gt;Node0xefce050 -->
<g id="edge12" class="edge"><title>Node0xefc3cf0&#45;&gt;Node0xefce050</title>
<path fill="none" stroke="black" d="M353.741,-473.482C362.735,-467.86 372.444,-461.437 381,-455 406.764,-435.616 432.718,-409.419 450.278,-390.471"/>
<polygon fill="black" stroke="black" points="452.865,-392.828 457.036,-383.088 447.702,-388.102 452.865,-392.828"/>
<text text-anchor="middle" x="430" y="-443.8" font-family="Times,serif" font-size="14.00">v36 &lt; 16</text>
</g>
<!-- Node0xf009940 -->
<g id="node12" class="node"><title>Node0xf009940</title>
<polygon fill="none" stroke="black" points="126.5,-97.5 126.5,-270.5 635.5,-270.5 635.5,-97.5 126.5,-97.5"/>
<text text-anchor="start" x="134.5" y="-255.3" font-family="Times,serif" font-size="14.00">0x40c674:</text>
<text text-anchor="start" x="134.5" y="-240.3" font-family="Times,serif" font-size="14.00"> v33 = g4</text>
<text text-anchor="start" x="134.5" y="-225.3" font-family="Times,serif" font-size="14.00"> *(IntToPtrCastExpr&lt;ptr&gt;((v24 + 20))) = v33</text>
<text text-anchor="start" x="134.5" y="-210.3" font-family="Times,serif" font-size="14.00"> v26 = g9</text>
<text text-anchor="start" x="134.5" y="-195.3" font-family="Times,serif" font-size="14.00"> *(IntToPtrCastExpr&lt;ptr&gt;((v26 + 24))) = 15</text>
<text text-anchor="start" x="134.5" y="-180.3" font-family="Times,serif" font-size="14.00"> v27 = g9</text>
<text text-anchor="start" x="134.5" y="-165.3" font-family="Times,serif" font-size="14.00"> v34 = g4</text>
<text text-anchor="start" x="134.5" y="-150.3" font-family="Times,serif" font-size="14.00"> *(IntToPtrCastExpr&lt;ptr&gt;((v27 + 4))) = TruncCastExpr&lt;int8&gt;(v34)</text>
<text text-anchor="start" x="134.5" y="-135.3" font-family="Times,serif" font-size="14.00"> v15 = v9</text>
<text text-anchor="start" x="134.5" y="-120.3" font-family="Times,serif" font-size="14.00"> g4 = v15</text>
<text text-anchor="start" x="134.5" y="-105.3" font-family="Times,serif" font-size="14.00"> return result</text>
</g>
<!-- Node0xefcdff0&#45;&gt;Node0xf009940 -->
<g id="edge13" class="edge"><title>Node0xefcdff0&#45;&gt;Node0xf009940</title>
<path fill="none" stroke="black" d="M283.84,-308.344C291.304,-298.87 299.234,-288.802 307.221,-278.662"/>
<polygon fill="black" stroke="black" points="310.193,-280.546 313.631,-270.525 304.694,-276.215 310.193,-280.546"/>
</g>
<!-- Node0xefce050&#45;&gt;Node0xf009940 -->
<g id="edge14" class="edge"><title>Node0xefce050&#45;&gt;Node0xf009940</title>
<path fill="none" stroke="black" d="M463.275,-346.837C455.157,-330.869 442.374,-305.725 429.283,-279.974"/>
<polygon fill="black" stroke="black" points="432.299,-278.183 424.647,-270.855 426.059,-281.355 432.299,-278.183"/>
</g>
<!-- Node0xf00cd30 -->
<g id="node13" class="node"><title>Node0xf00cd30</title>
<polygon fill="none" stroke="black" points="354,-23.5 354,-59.5 408,-59.5 408,-23.5 354,-23.5"/>
<text text-anchor="start" x="362" y="-37.8" font-family="Times,serif" font-size="14.00">exit:</text>
</g>
<!-- Node0xf009940&#45;&gt;Node0xf00cd30 -->
<g id="edge15" class="edge"><title>Node0xf009940&#45;&gt;Node0xf00cd30</title>
<path fill="none" stroke="black" d="M381,-97.2233C381,-87.4821 381,-78.1602 381,-70.0586"/>
<polygon fill="black" stroke="black" points="384.5,-69.8425 381,-59.8425 377.5,-69.8426 384.5,-69.8425"/>
</g>
</g>
</svg>
