<?xml version="1.0" encoding="UTF-8" standalone="no"?>
<!DOCTYPE svg PUBLIC "-//W3C//DTD SVG 1.1//EN"
 "http://www.w3.org/Graphics/SVG/1.1/DTD/svg11.dtd">
<!-- Generated by graphviz version 2.38.0 (20140413.2041)
 -->
<!-- Title: Control&#45;flow graph for function &#39;function_42f130(*a1, a2)&#39;. Pages: 1 -->
<svg width="556pt" height="1309pt"
 viewBox="0.00 0.00 555.50 1309.00" xmlns="http://www.w3.org/2000/svg" xmlns:xlink="http://www.w3.org/1999/xlink">
<g id="graph0" class="graph" transform="scale(1 1) rotate(0) translate(4 1305)">
<title>Control&#45;flow graph for function &#39;function_42f130(*a1, a2)&#39;.</title>
<polygon fill="white" stroke="none" points="-4,4 -4,-1305 551.5,-1305 551.5,4 -4,4"/>
<text text-anchor="middle" x="273.75" y="-7.8" font-family="Times,serif" font-size="14.00">Control&#45;flow graph for function &#39;function_42f130(*a1, a2)&#39;.</text>
<!-- Node0x100e6920 -->
<g id="node1" class="node"><title>Node0x100e6920</title>
<polygon fill="none" stroke="black" points="120,-1247.5 120,-1300.5 179,-1300.5 179,-1247.5 120,-1247.5"/>
<text text-anchor="start" x="128" y="-1285.3" font-family="Times,serif" font-size="14.00">entry:</text>
<text text-anchor="start" x="128" y="-1270.3" font-family="Times,serif" font-size="14.00"> a1</text>
<text text-anchor="start" x="128" y="-1255.3" font-family="Times,serif" font-size="14.00"> a2</text>
</g>
<!-- Node0x100e7980 -->
<g id="node2" class="node"><title>Node0x100e7980</title>
<polygon fill="none" stroke="black" points="0,-796.5 0,-1209.5 299,-1209.5 299,-796.5 0,-796.5"/>
<text text-anchor="start" x="8" y="-1194.3" font-family="Times,serif" font-size="14.00">v1</text>
<text text-anchor="start" x="8" y="-1179.3" font-family="Times,serif" font-size="14.00"> v2</text>
<text text-anchor="start" x="8" y="-1164.3" font-family="Times,serif" font-size="14.00"> v3</text>
<text text-anchor="start" x="8" y="-1149.3" font-family="Times,serif" font-size="14.00"> v4</text>
<text text-anchor="start" x="8" y="-1134.3" font-family="Times,serif" font-size="14.00"> v5</text>
<text text-anchor="start" x="8" y="-1119.3" font-family="Times,serif" font-size="14.00"> v6</text>
<text text-anchor="start" x="8" y="-1104.3" font-family="Times,serif" font-size="14.00"> v7</text>
<text text-anchor="start" x="8" y="-1089.3" font-family="Times,serif" font-size="14.00"> v8</text>
<text text-anchor="start" x="8" y="-1074.3" font-family="Times,serif" font-size="14.00"> v9</text>
<text text-anchor="start" x="8" y="-1059.3" font-family="Times,serif" font-size="14.00"> v10</text>
<text text-anchor="start" x="8" y="-1044.3" font-family="Times,serif" font-size="14.00"> result</text>
<text text-anchor="start" x="8" y="-1029.3" font-family="Times,serif" font-size="14.00"> v11</text>
<text text-anchor="start" x="8" y="-1014.3" font-family="Times,serif" font-size="14.00"> v12</text>
<text text-anchor="start" x="8" y="-999.3" font-family="Times,serif" font-size="14.00"> v13</text>
<text text-anchor="start" x="8" y="-984.3" font-family="Times,serif" font-size="14.00"> v14</text>
<text text-anchor="start" x="8" y="-969.3" font-family="Times,serif" font-size="14.00"> v15</text>
<text text-anchor="start" x="8" y="-954.3" font-family="Times,serif" font-size="14.00"> v16</text>
<text text-anchor="start" x="8" y="-939.3" font-family="Times,serif" font-size="14.00"> v17</text>
<text text-anchor="start" x="8" y="-924.3" font-family="Times,serif" font-size="14.00"> v18</text>
<text text-anchor="start" x="8" y="-909.3" font-family="Times,serif" font-size="14.00"> v19</text>
<text text-anchor="start" x="8" y="-894.3" font-family="Times,serif" font-size="14.00"> v8 = v9</text>
<text text-anchor="start" x="8" y="-879.3" font-family="Times,serif" font-size="14.00"> v8 = a1</text>
<text text-anchor="start" x="8" y="-864.3" font-family="Times,serif" font-size="14.00"> v12 = g3</text>
<text text-anchor="start" x="8" y="-849.3" font-family="Times,serif" font-size="14.00"> v4 = v12</text>
<text text-anchor="start" x="8" y="-834.3" font-family="Times,serif" font-size="14.00"> v1 = PtrToIntCastExpr&lt;int32&gt;(&amp;(v4))</text>
<text text-anchor="start" x="8" y="-819.3" font-family="Times,serif" font-size="14.00"> g10 = v1</text>
<text text-anchor="start" x="8" y="-804.3" font-family="Times,serif" font-size="14.00"> g3 = v1</text>
</g>
<!-- Node0x100e6920&#45;&gt;Node0x100e7980 -->
<g id="edge1" class="edge"><title>Node0x100e6920&#45;&gt;Node0x100e7980</title>
<path fill="none" stroke="black" d="M149.5,-1247.21C149.5,-1239.38 149.5,-1230.1 149.5,-1219.79"/>
<polygon fill="black" stroke="black" points="153,-1219.61 149.5,-1209.61 146,-1219.61 153,-1219.61"/>
</g>
<!-- Node0x100e8140 -->
<g id="node3" class="node"><title>Node0x100e8140</title>
<polygon fill="none" stroke="black" points="79.5,-722.5 79.5,-758.5 219.5,-758.5 219.5,-722.5 79.5,-722.5"/>
<text text-anchor="start" x="87.5" y="-736.8" font-family="Times,serif" font-size="14.00">if (a1 == NULL):</text>
</g>
<!-- Node0x100e7980&#45;&gt;Node0x100e8140 -->
<g id="edge2" class="edge"><title>Node0x100e7980&#45;&gt;Node0x100e8140</title>
<path fill="none" stroke="black" d="M149.5,-796.427C149.5,-786.194 149.5,-776.906 149.5,-768.999"/>
<polygon fill="black" stroke="black" points="153,-768.788 149.5,-758.788 146,-768.788 153,-768.788"/>
</g>
<!-- Node0xd57d4d0 -->
<g id="node4" class="node"><title>Node0xd57d4d0</title>
<polygon fill="none" stroke="black" points="7.5,-485.5 7.5,-553.5 141.5,-553.5 141.5,-485.5 7.5,-485.5"/>
<text text-anchor="start" x="15.5" y="-538.3" font-family="Times,serif" font-size="14.00">v14 = v12</text>
<text text-anchor="start" x="15.5" y="-523.3" font-family="Times,serif" font-size="14.00"> result = &#45;20736</text>
<text text-anchor="start" x="15.5" y="-508.3" font-family="Times,serif" font-size="14.00"> g3 = v14</text>
<text text-anchor="start" x="15.5" y="-493.3" font-family="Times,serif" font-size="14.00"> return result</text>
</g>
<!-- Node0x100e8140&#45;&gt;Node0xd57d4d0 -->
<g id="edge3" class="edge"><title>Node0x100e8140&#45;&gt;Node0xd57d4d0</title>
<path fill="none" stroke="black" d="M103.697,-722.359C96.1364,-717.542 89.2328,-711.504 84.5,-704 57.9617,-661.921 60.0419,-603.025 65.7235,-563.409"/>
<polygon fill="black" stroke="black" points="69.1819,-563.947 67.2727,-553.526 62.2663,-562.863 69.1819,-563.947"/>
<text text-anchor="middle" x="131.5" y="-692.8" font-family="Times,serif" font-size="14.00">a1 == NULL</text>
</g>
<!-- Node0x100e7ac0 -->
<g id="node5" class="node"><title>Node0x100e7ac0</title>
<polygon fill="none" stroke="black" points="106,-572.5 106,-670.5 391,-670.5 391,-572.5 106,-572.5"/>
<text text-anchor="start" x="114" y="-655.3" font-family="Times,serif" font-size="14.00">0x42f139:</text>
<text text-anchor="start" x="114" y="-640.3" font-family="Times,serif" font-size="14.00"> v17 = PtrToIntCastExpr&lt;int32&gt;(a1)</text>
<text text-anchor="start" x="114" y="-625.3" font-family="Times,serif" font-size="14.00"> g2 = v17</text>
<text text-anchor="start" x="114" y="-610.3" font-family="Times,serif" font-size="14.00"> v16 = *(&amp;(a1[&#39;0&#39;]))</text>
<text text-anchor="start" x="114" y="-595.3" font-family="Times,serif" font-size="14.00"> g1 = False</text>
<text text-anchor="start" x="114" y="-580.3" font-family="Times,serif" font-size="14.00"> g207 = (v16 == 0)</text>
</g>
<!-- Node0x100e8140&#45;&gt;Node0x100e7ac0 -->
<g id="edge4" class="edge"><title>Node0x100e8140&#45;&gt;Node0x100e7ac0</title>
<path fill="none" stroke="black" d="M163.895,-722.487C173.804,-710.777 187.579,-694.498 201.139,-678.472"/>
<polygon fill="black" stroke="black" points="203.974,-680.54 207.761,-670.646 198.63,-676.019 203.974,-680.54"/>
<text text-anchor="middle" x="234.5" y="-692.8" font-family="Times,serif" font-size="14.00">a1 != NULL</text>
</g>
<!-- Node0x100e7920 -->
<g id="node6" class="node"><title>Node0x100e7920</title>
<polygon fill="none" stroke="black" points="96.5,-23.5 96.5,-59.5 150.5,-59.5 150.5,-23.5 96.5,-23.5"/>
<text text-anchor="start" x="104.5" y="-37.8" font-family="Times,serif" font-size="14.00">exit:</text>
</g>
<!-- Node0xd57d4d0&#45;&gt;Node0x100e7920 -->
<g id="edge5" class="edge"><title>Node0xd57d4d0&#45;&gt;Node0x100e7920</title>
<path fill="none" stroke="black" d="M74.0585,-485.287C73.7906,-462.318 73.5,-431.053 73.5,-403.5 73.5,-403.5 73.5,-403.5 73.5,-123 73.5,-102.178 85.7208,-82.2684 98.0789,-67.4586"/>
<polygon fill="black" stroke="black" points="100.869,-69.5876 104.882,-59.7822 95.6299,-64.9449 100.869,-69.5876"/>
</g>
<!-- Node0x100e8760 -->
<g id="node7" class="node"><title>Node0x100e8760</title>
<polygon fill="none" stroke="black" points="194.5,-428.5 194.5,-466.5 302.5,-466.5 302.5,-428.5 194.5,-428.5"/>
<text text-anchor="start" x="202.5" y="-451.3" font-family="Times,serif" font-size="14.00">if (v16 != 0):</text>
<text text-anchor="start" x="202.5" y="-436.3" font-family="Times,serif" font-size="14.00"> else:</text>
</g>
<!-- Node0x100e7ac0&#45;&gt;Node0x100e8760 -->
<g id="edge6" class="edge"><title>Node0x100e7ac0&#45;&gt;Node0x100e8760</title>
<path fill="none" stroke="black" d="M248.5,-572.131C248.5,-541.353 248.5,-502.566 248.5,-476.726"/>
<polygon fill="black" stroke="black" points="252,-476.505 248.5,-466.505 245,-476.505 252,-476.505"/>
</g>
<!-- Node0x100e89b0 -->
<g id="node8" class="node"><title>Node0x100e89b0</title>
<polygon fill="none" stroke="black" points="101.5,-188.5 101.5,-376.5 395.5,-376.5 395.5,-188.5 101.5,-188.5"/>
<text text-anchor="start" x="109.5" y="-361.3" font-family="Times,serif" font-size="14.00">0x42f148:</text>
<text text-anchor="start" x="109.5" y="-346.3" font-family="Times,serif" font-size="14.00"> v18 = *(&amp;(a1[&#39;1&#39;]))</text>
<text text-anchor="start" x="109.5" y="-331.3" font-family="Times,serif" font-size="14.00"> g2 = v18</text>
<text text-anchor="start" x="109.5" y="-316.3" font-family="Times,serif" font-size="14.00"> g5 = v17</text>
<text text-anchor="start" x="109.5" y="-301.3" font-family="Times,serif" font-size="14.00"> v13 = *(&amp;(a1[&#39;0&#39;]))</text>
<text text-anchor="start" x="109.5" y="-286.3" font-family="Times,serif" font-size="14.00"> g8 = v13</text>
<text text-anchor="start" x="109.5" y="-271.3" font-family="Times,serif" font-size="14.00"> v19 = *(&amp;(a1[&#39;3&#39;]))</text>
<text text-anchor="start" x="109.5" y="-256.3" font-family="Times,serif" font-size="14.00"> g2 = v19</text>
<text text-anchor="start" x="109.5" y="-241.3" font-family="Times,serif" font-size="14.00"> IntToPtrCastExpr&lt;ptr&gt;(v19)(v18, a2)</text>
<text text-anchor="start" x="109.5" y="-226.3" font-family="Times,serif" font-size="14.00"> v15 = v4</text>
<text text-anchor="start" x="109.5" y="-211.3" font-family="Times,serif" font-size="14.00"> v14 = v15</text>
<text text-anchor="start" x="109.5" y="-196.3" font-family="Times,serif" font-size="14.00"> result = 0</text>
</g>
<!-- Node0x100e8760&#45;&gt;Node0x100e89b0 -->
<g id="edge7" class="edge"><title>Node0x100e8760&#45;&gt;Node0x100e89b0</title>
<path fill="none" stroke="black" d="M248.5,-428.433C248.5,-417.588 248.5,-402.82 248.5,-386.844"/>
<polygon fill="black" stroke="black" points="252,-386.764 248.5,-376.764 245,-386.764 252,-386.764"/>
<text text-anchor="middle" x="280" y="-398.8" font-family="Times,serif" font-size="14.00">v16 != 0</text>
</g>
<!-- Node0x100e8b60 -->
<g id="node9" class="node"><title>Node0x100e8b60</title>
<polygon fill="none" stroke="black" points="413.5,-263.5 413.5,-301.5 547.5,-301.5 547.5,-263.5 413.5,-263.5"/>
<text text-anchor="start" x="421.5" y="-286.3" font-family="Times,serif" font-size="14.00">v14 = v12</text>
<text text-anchor="start" x="421.5" y="-271.3" font-family="Times,serif" font-size="14.00"> result = &#45;20736</text>
</g>
<!-- Node0x100e8760&#45;&gt;Node0x100e8b60 -->
<g id="edge8" class="edge"><title>Node0x100e8760&#45;&gt;Node0x100e8b60</title>
<path fill="none" stroke="black" d="M302.801,-429.465C334.457,-417.861 374.02,-400.35 404.5,-377 428.657,-358.494 449.901,-330.828 463.742,-310.388"/>
<polygon fill="black" stroke="black" points="466.795,-312.115 469.385,-301.842 460.954,-308.258 466.795,-312.115"/>
<text text-anchor="middle" x="411" y="-398.8" font-family="Times,serif" font-size="14.00">v16 == 0</text>
</g>
<!-- Node0x100e8950 -->
<g id="node10" class="node"><title>Node0x100e8950</title>
<polygon fill="none" stroke="black" points="192,-97.5 192,-150.5 305,-150.5 305,-97.5 192,-97.5"/>
<text text-anchor="start" x="200" y="-135.3" font-family="Times,serif" font-size="14.00">0x42f162:</text>
<text text-anchor="start" x="200" y="-120.3" font-family="Times,serif" font-size="14.00"> g3 = v14</text>
<text text-anchor="start" x="200" y="-105.3" font-family="Times,serif" font-size="14.00"> return result</text>
</g>
<!-- Node0x100e89b0&#45;&gt;Node0x100e8950 -->
<g id="edge9" class="edge"><title>Node0x100e89b0&#45;&gt;Node0x100e8950</title>
<path fill="none" stroke="black" d="M248.5,-188.203C248.5,-178.538 248.5,-169.191 248.5,-160.782"/>
<polygon fill="black" stroke="black" points="252,-160.68 248.5,-150.68 245,-160.68 252,-160.68"/>
</g>
<!-- Node0x100e8b60&#45;&gt;Node0x100e8950 -->
<g id="edge10" class="edge"><title>Node0x100e8b60&#45;&gt;Node0x100e8950</title>
<path fill="none" stroke="black" d="M469.755,-263.351C456.667,-242.619 432.771,-208.876 404.5,-188 377.795,-168.281 344.055,-153.653 314.79,-143.483"/>
<polygon fill="black" stroke="black" points="315.647,-140.079 305.053,-140.204 313.413,-146.713 315.647,-140.079"/>
</g>
<!-- Node0x100e8950&#45;&gt;Node0x100e7920 -->
<g id="edge11" class="edge"><title>Node0x100e8950&#45;&gt;Node0x100e7920</title>
<path fill="none" stroke="black" d="M208.606,-97.308C192.599,-86.9995 174.305,-75.2187 158.791,-65.2277"/>
<polygon fill="black" stroke="black" points="160.319,-62.0484 150.016,-59.5766 156.529,-67.9336 160.319,-62.0484"/>
</g>
</g>
</svg>
