<?xml version="1.0" encoding="UTF-8" standalone="no"?>
<!DOCTYPE svg PUBLIC "-//W3C//DTD SVG 1.1//EN"
 "http://www.w3.org/Graphics/SVG/1.1/DTD/svg11.dtd">
<!-- Generated by graphviz version 2.38.0 (20140413.2041)
 -->
<!-- Title: Control&#45;flow graph for function &#39;function_42556a(*a1)&#39;. Pages: 1 -->
<svg width="959pt" height="799pt"
 viewBox="0.00 0.00 959.00 799.00" xmlns="http://www.w3.org/2000/svg" xmlns:xlink="http://www.w3.org/1999/xlink">
<g id="graph0" class="graph" transform="scale(1 1) rotate(0) translate(4 795)">
<title>Control&#45;flow graph for function &#39;function_42556a(*a1)&#39;.</title>
<polygon fill="white" stroke="none" points="-4,4 -4,-795 955,-795 955,4 -4,4"/>
<text text-anchor="middle" x="475.5" y="-7.8" font-family="Times,serif" font-size="14.00">Control&#45;flow graph for function &#39;function_42556a(*a1)&#39;.</text>
<!-- Node0xfcaae90 -->
<g id="node1" class="node"><title>Node0xfcaae90</title>
<polygon fill="none" stroke="black" points="243.5,-752.5 243.5,-790.5 302.5,-790.5 302.5,-752.5 243.5,-752.5"/>
<text text-anchor="start" x="251.5" y="-775.3" font-family="Times,serif" font-size="14.00">entry:</text>
<text text-anchor="start" x="251.5" y="-760.3" font-family="Times,serif" font-size="14.00"> a1</text>
</g>
<!-- Node0xfba8830 -->
<g id="node2" class="node"><title>Node0xfba8830</title>
<polygon fill="none" stroke="black" points="182,-511.5 182,-714.5 364,-714.5 364,-511.5 182,-511.5"/>
<text text-anchor="start" x="190" y="-699.3" font-family="Times,serif" font-size="14.00">v1</text>
<text text-anchor="start" x="190" y="-684.3" font-family="Times,serif" font-size="14.00"> v2</text>
<text text-anchor="start" x="190" y="-669.3" font-family="Times,serif" font-size="14.00"> v3</text>
<text text-anchor="start" x="190" y="-654.3" font-family="Times,serif" font-size="14.00"> v4</text>
<text text-anchor="start" x="190" y="-639.3" font-family="Times,serif" font-size="14.00"> v5</text>
<text text-anchor="start" x="190" y="-624.3" font-family="Times,serif" font-size="14.00"> v6</text>
<text text-anchor="start" x="190" y="-609.3" font-family="Times,serif" font-size="14.00"> v7</text>
<text text-anchor="start" x="190" y="-594.3" font-family="Times,serif" font-size="14.00"> v8</text>
<text text-anchor="start" x="190" y="-579.3" font-family="Times,serif" font-size="14.00"> v4 = v5</text>
<text text-anchor="start" x="190" y="-564.3" font-family="Times,serif" font-size="14.00"> v7 = v8</text>
<text text-anchor="start" x="190" y="-549.3" font-family="Times,serif" font-size="14.00"> v7 = a1</text>
<text text-anchor="start" x="190" y="-534.3" font-family="Times,serif" font-size="14.00"> g1 = False</text>
<text text-anchor="start" x="190" y="-519.3" font-family="Times,serif" font-size="14.00"> g207 = (a1 == NULL)</text>
</g>
<!-- Node0xfcaae90&#45;&gt;Node0xfba8830 -->
<g id="edge1" class="edge"><title>Node0xfcaae90&#45;&gt;Node0xfba8830</title>
<path fill="none" stroke="black" d="M273,-752.241C273,-744.664 273,-735.212 273,-724.828"/>
<polygon fill="black" stroke="black" points="276.5,-724.618 273,-714.618 269.5,-724.618 276.5,-724.618"/>
</g>
<!-- Node0xfc37530 -->
<g id="node3" class="node"><title>Node0xfc37530</title>
<polygon fill="none" stroke="black" points="132.5,-437.5 132.5,-473.5 413.5,-473.5 413.5,-437.5 132.5,-437.5"/>
<text text-anchor="start" x="140.5" y="-451.8" font-family="Times,serif" font-size="14.00">if (a1 &gt; IntToPtrCastExpr&lt;ptr&gt;(&#45;1)):</text>
</g>
<!-- Node0xfba8830&#45;&gt;Node0xfc37530 -->
<g id="edge2" class="edge"><title>Node0xfba8830&#45;&gt;Node0xfc37530</title>
<path fill="none" stroke="black" d="M273,-511.323C273,-501.368 273,-491.964 273,-483.847"/>
<polygon fill="black" stroke="black" points="276.5,-483.647 273,-473.647 269.5,-483.647 276.5,-483.647"/>
</g>
<!-- Node0xfbf3e60 -->
<g id="node4" class="node"><title>Node0xfbf3e60</title>
<polygon fill="none" stroke="black" points="0,-290.5 0,-328.5 288,-328.5 288,-290.5 0,-290.5"/>
<text text-anchor="start" x="8" y="-313.3" font-family="Times,serif" font-size="14.00">v3 = a1</text>
<text text-anchor="start" x="8" y="-298.3" font-family="Times,serif" font-size="14.00"> return PtrToIntCastExpr&lt;int32&gt;(v3)</text>
</g>
<!-- Node0xfc37530&#45;&gt;Node0xfbf3e60 -->
<g id="edge3" class="edge"><title>Node0xfc37530&#45;&gt;Node0xfbf3e60</title>
<path fill="none" stroke="black" d="M178.128,-437.435C160.899,-432.431 146.595,-426.298 141,-419 123.623,-396.332 127.875,-362.472 134.235,-338.619"/>
<polygon fill="black" stroke="black" points="137.672,-339.336 137.134,-328.755 130.956,-337.362 137.672,-339.336"/>
<text text-anchor="middle" x="259" y="-407.8" font-family="Times,serif" font-size="14.00">a1 &gt; IntToPtrCastExpr&lt;ptr&gt;(&#45;1)</text>
</g>
<!-- Node0xfc7e5d0 -->
<g id="node5" class="node"><title>Node0xfc7e5d0</title>
<polygon fill="none" stroke="black" points="213.5,-347.5 213.5,-385.5 592.5,-385.5 592.5,-347.5 213.5,-347.5"/>
<text text-anchor="start" x="221.5" y="-370.3" font-family="Times,serif" font-size="14.00">0x425572:</text>
<text text-anchor="start" x="221.5" y="-355.3" font-family="Times,serif" font-size="14.00"> if (a1 == IntToPtrCastExpr&lt;ptr&gt;(&#45;2147024882)):</text>
</g>
<!-- Node0xfc37530&#45;&gt;Node0xfc7e5d0 -->
<g id="edge4" class="edge"><title>Node0xfc37530&#45;&gt;Node0xfc7e5d0</title>
<path fill="none" stroke="black" d="M352.018,-437.406C362.582,-432.688 372.637,-426.672 381,-419 387.797,-412.764 392.578,-404.077 395.903,-395.612"/>
<polygon fill="black" stroke="black" points="399.287,-396.531 399.172,-385.937 392.655,-394.291 399.287,-396.531"/>
<text text-anchor="middle" x="516" y="-407.8" font-family="Times,serif" font-size="14.00">a1 &lt;= IntToPtrCastExpr&lt;ptr&gt;(&#45;1)</text>
</g>
<!-- Node0xbf25c20 -->
<g id="node6" class="node"><title>Node0xbf25c20</title>
<polygon fill="none" stroke="black" points="166,-23.5 166,-59.5 220,-59.5 220,-23.5 166,-23.5"/>
<text text-anchor="start" x="174" y="-37.8" font-family="Times,serif" font-size="14.00">exit:</text>
</g>
<!-- Node0xfbf3e60&#45;&gt;Node0xbf25c20 -->
<g id="edge5" class="edge"><title>Node0xfbf3e60&#45;&gt;Node0xbf25c20</title>
<path fill="none" stroke="black" d="M143.164,-290.48C141.97,-253.372 141.895,-166.108 163,-97 165.997,-87.1869 170.901,-77.1517 175.884,-68.4106"/>
<polygon fill="black" stroke="black" points="178.886,-70.2095 181.028,-59.8336 172.883,-66.6088 178.886,-70.2095"/>
</g>
<!-- Node0xfbf9d50 -->
<g id="node7" class="node"><title>Node0xfbf9d50</title>
<polygon fill="none" stroke="black" points="216,-233.5 216,-271.5 412,-271.5 412,-233.5 216,-233.5"/>
<text text-anchor="start" x="224" y="-256.3" font-family="Times,serif" font-size="14.00">0x425579:</text>
<text text-anchor="start" x="224" y="-241.3" font-family="Times,serif" font-size="14.00"> function_41787d(NULL)</text>
</g>
<!-- Node0xfc7e5d0&#45;&gt;Node0xfbf9d50 -->
<g id="edge6" class="edge"><title>Node0xfc7e5d0&#45;&gt;Node0xfbf9d50</title>
<path fill="none" stroke="black" d="M334.021,-347.438C326.142,-342.663 319.116,-336.628 314,-329 304.805,-315.291 304.657,-296.798 306.88,-281.546"/>
<polygon fill="black" stroke="black" points="310.341,-282.073 308.715,-271.604 303.458,-280.802 310.341,-282.073"/>
<text text-anchor="middle" x="478.5" y="-305.8" font-family="Times,serif" font-size="14.00">a1 == IntToPtrCastExpr&lt;ptr&gt;(&#45;2147024882)</text>
</g>
<!-- Node0xfbf3e00 -->
<g id="node8" class="node"><title>Node0xfbf3e00</title>
<polygon fill="none" stroke="black" points="172,-97.5 172,-195.5 460,-195.5 460,-97.5 172,-97.5"/>
<text text-anchor="start" x="180" y="-180.3" font-family="Times,serif" font-size="14.00">0x42557e:</text>
<text text-anchor="start" x="180" y="-165.3" font-family="Times,serif" font-size="14.00"> v4 = a1</text>
<text text-anchor="start" x="180" y="-150.3" font-family="Times,serif" font-size="14.00"> v2 = function_417675()</text>
<text text-anchor="start" x="180" y="-135.3" font-family="Times,serif" font-size="14.00"> v1 = IntToPtrCastExpr&lt;ptr&gt;(v2)</text>
<text text-anchor="start" x="180" y="-120.3" font-family="Times,serif" font-size="14.00"> v3 = v1</text>
<text text-anchor="start" x="180" y="-105.3" font-family="Times,serif" font-size="14.00"> return PtrToIntCastExpr&lt;int32&gt;(v3)</text>
</g>
<!-- Node0xfc7e5d0&#45;&gt;Node0xfbf3e00 -->
<g id="edge7" class="edge"><title>Node0xfc7e5d0&#45;&gt;Node0xfbf3e00</title>
<path fill="none" stroke="black" d="M592.636,-351.521C615.867,-346.217 634.45,-338.949 643,-329 654.298,-315.854 652.498,-304.499 643,-290 604.268,-230.872 535.07,-196.142 470.271,-175.808"/>
<polygon fill="black" stroke="black" points="470.917,-172.346 460.332,-172.789 468.883,-179.044 470.917,-172.346"/>
<text text-anchor="middle" x="789.5" y="-248.8" font-family="Times,serif" font-size="14.00">a1 != IntToPtrCastExpr&lt;ptr&gt;(&#45;2147024882)</text>
</g>
<!-- Node0xfbf9d50&#45;&gt;Node0xfbf3e00 -->
<g id="edge8" class="edge"><title>Node0xfbf9d50&#45;&gt;Node0xfbf3e00</title>
<path fill="none" stroke="black" d="M314.348,-233.385C314.499,-225.528 314.686,-215.844 314.878,-205.842"/>
<polygon fill="black" stroke="black" points="318.378,-205.855 315.071,-195.789 311.38,-205.72 318.378,-205.855"/>
</g>
<!-- Node0xfbf3e00&#45;&gt;Node0xbf25c20 -->
<g id="edge9" class="edge"><title>Node0xfbf3e00&#45;&gt;Node0xbf25c20</title>
<path fill="none" stroke="black" d="M258.461,-97.3173C245.481,-86.4475 232.264,-75.3797 221.137,-66.0618"/>
<polygon fill="black" stroke="black" points="223.351,-63.3509 213.437,-59.614 218.857,-68.7177 223.351,-63.3509"/>
</g>
</g>
</svg>
