<?xml version="1.0" encoding="UTF-8" standalone="no"?>
<!DOCTYPE svg PUBLIC "-//W3C//DTD SVG 1.1//EN"
 "http://www.w3.org/Graphics/SVG/1.1/DTD/svg11.dtd">
<!-- Generated by graphviz version 2.38.0 (20140413.2041)
 -->
<!-- Title: Control&#45;flow graph for function &#39;function_40d650(*a1)&#39;. Pages: 1 -->
<svg width="468pt" height="732pt"
 viewBox="0.00 0.00 467.50 732.00" xmlns="http://www.w3.org/2000/svg" xmlns:xlink="http://www.w3.org/1999/xlink">
<g id="graph0" class="graph" transform="scale(1 1) rotate(0) translate(4 728)">
<title>Control&#45;flow graph for function &#39;function_40d650(*a1)&#39;.</title>
<polygon fill="white" stroke="none" points="-4,4 -4,-728 463.5,-728 463.5,4 -4,4"/>
<text text-anchor="middle" x="229.75" y="-7.8" font-family="Times,serif" font-size="14.00">Control&#45;flow graph for function &#39;function_40d650(*a1)&#39;.</text>
<!-- Node0xf049490 -->
<g id="node1" class="node"><title>Node0xf049490</title>
<polygon fill="none" stroke="black" points="139,-685.5 139,-723.5 198,-723.5 198,-685.5 139,-685.5"/>
<text text-anchor="start" x="147" y="-708.3" font-family="Times,serif" font-size="14.00">entry:</text>
<text text-anchor="start" x="147" y="-693.3" font-family="Times,serif" font-size="14.00"> a1</text>
</g>
<!-- Node0xf049be0 -->
<g id="node2" class="node"><title>Node0xf049be0</title>
<polygon fill="none" stroke="black" points="0,-504.5 0,-647.5 337,-647.5 337,-504.5 0,-504.5"/>
<text text-anchor="start" x="8" y="-632.3" font-family="Times,serif" font-size="14.00">v1</text>
<text text-anchor="start" x="8" y="-617.3" font-family="Times,serif" font-size="14.00"> v2</text>
<text text-anchor="start" x="8" y="-602.3" font-family="Times,serif" font-size="14.00"> v3</text>
<text text-anchor="start" x="8" y="-587.3" font-family="Times,serif" font-size="14.00"> v4</text>
<text text-anchor="start" x="8" y="-572.3" font-family="Times,serif" font-size="14.00"> v5</text>
<text text-anchor="start" x="8" y="-557.3" font-family="Times,serif" font-size="14.00"> v6</text>
<text text-anchor="start" x="8" y="-542.3" font-family="Times,serif" font-size="14.00"> v5 = g5</text>
<text text-anchor="start" x="8" y="-527.3" font-family="Times,serif" font-size="14.00"> v6 = *(IntToPtrCastExpr&lt;ptr&gt;((v5 + 168)))</text>
<text text-anchor="start" x="8" y="-512.3" font-family="Times,serif" font-size="14.00"> g2 = v6</text>
</g>
<!-- Node0xf049490&#45;&gt;Node0xf049be0 -->
<g id="edge1" class="edge"><title>Node0xf049490&#45;&gt;Node0xf049be0</title>
<path fill="none" stroke="black" d="M168.5,-685.376C168.5,-677.61 168.5,-667.95 168.5,-657.621"/>
<polygon fill="black" stroke="black" points="172,-657.552 168.5,-647.552 165,-657.552 172,-657.552"/>
</g>
<!-- Node0xf049ce0 -->
<g id="node3" class="node"><title>Node0xf049ce0</title>
<polygon fill="none" stroke="black" points="116,-430.5 116,-466.5 221,-466.5 221,-430.5 116,-430.5"/>
<text text-anchor="start" x="124" y="-444.8" font-family="Times,serif" font-size="14.00">if (v6 == 0):</text>
</g>
<!-- Node0xf049be0&#45;&gt;Node0xf049ce0 -->
<g id="edge2" class="edge"><title>Node0xf049be0&#45;&gt;Node0xf049ce0</title>
<path fill="none" stroke="black" d="M168.5,-504.181C168.5,-494.439 168.5,-484.961 168.5,-476.707"/>
<polygon fill="black" stroke="black" points="172,-476.642 168.5,-466.642 165,-476.642 172,-476.642"/>
</g>
<!-- Node0xf04a690 -->
<g id="node4" class="node"><title>Node0xf04a690</title>
<polygon fill="none" stroke="black" points="76.5,-283.5 76.5,-321.5 168.5,-321.5 168.5,-283.5 76.5,-283.5"/>
<text text-anchor="start" x="84.5" y="-306.3" font-family="Times,serif" font-size="14.00">0x40d66c:</text>
<text text-anchor="start" x="84.5" y="-291.3" font-family="Times,serif" font-size="14.00"> return 0</text>
</g>
<!-- Node0xf049ce0&#45;&gt;Node0xf04a690 -->
<g id="edge3" class="edge"><title>Node0xf049ce0&#45;&gt;Node0xf04a690</title>
<path fill="none" stroke="black" d="M141.415,-430.35C135.467,-425.211 129.926,-419.039 126.5,-412 114.323,-386.98 114.859,-354.737 117.496,-331.921"/>
<polygon fill="black" stroke="black" points="120.985,-332.236 118.865,-321.856 114.049,-331.293 120.985,-332.236"/>
<text text-anchor="middle" x="156.5" y="-400.8" font-family="Times,serif" font-size="14.00">v6 == 0</text>
</g>
<!-- Node0xf04a2b0 -->
<g id="node5" class="node"><title>Node0xf04a2b0</title>
<polygon fill="none" stroke="black" points="150.5,-340.5 150.5,-378.5 296.5,-378.5 296.5,-340.5 150.5,-340.5"/>
<text text-anchor="start" x="158.5" y="-363.3" font-family="Times,serif" font-size="14.00">0x40d65a:</text>
<text text-anchor="start" x="158.5" y="-348.3" font-family="Times,serif" font-size="14.00"> if (v6 == 57346):</text>
</g>
<!-- Node0xf049ce0&#45;&gt;Node0xf04a2b0 -->
<g id="edge4" class="edge"><title>Node0xf049ce0&#45;&gt;Node0xf04a2b0</title>
<path fill="none" stroke="black" d="M179.366,-430.312C187.122,-418.044 197.705,-401.304 206.563,-387.291"/>
<polygon fill="black" stroke="black" points="209.703,-388.874 212.088,-378.551 203.786,-385.134 209.703,-388.874"/>
<text text-anchor="middle" x="225.5" y="-400.8" font-family="Times,serif" font-size="14.00">v6 != 0</text>
</g>
<!-- Node0xf049b80 -->
<g id="node6" class="node"><title>Node0xf049b80</title>
<polygon fill="none" stroke="black" points="182.5,-23.5 182.5,-59.5 236.5,-59.5 236.5,-23.5 182.5,-23.5"/>
<text text-anchor="start" x="190.5" y="-37.8" font-family="Times,serif" font-size="14.00">exit:</text>
</g>
<!-- Node0xf04a690&#45;&gt;Node0xf049b80 -->
<g id="edge5" class="edge"><title>Node0xf04a690&#45;&gt;Node0xf049b80</title>
<path fill="none" stroke="black" d="M122.476,-283.45C122.928,-257.496 125.618,-208.424 138.5,-169 150.691,-131.689 174.355,-92.92 191.003,-68.2986"/>
<polygon fill="black" stroke="black" points="194,-70.1186 196.785,-59.8966 188.233,-66.1504 194,-70.1186"/>
</g>
<!-- Node0xf04a220 -->
<g id="node7" class="node"><title>Node0xf04a220</title>
<polygon fill="none" stroke="black" points="141.5,-169.5 141.5,-207.5 233.5,-207.5 233.5,-169.5 141.5,-169.5"/>
<text text-anchor="start" x="149.5" y="-192.3" font-family="Times,serif" font-size="14.00">0x40d66c:</text>
<text text-anchor="start" x="149.5" y="-177.3" font-family="Times,serif" font-size="14.00"> return 0</text>
</g>
<!-- Node0xf04a2b0&#45;&gt;Node0xf04a220 -->
<g id="edge6" class="edge"><title>Node0xf04a2b0&#45;&gt;Node0xf04a220</title>
<path fill="none" stroke="black" d="M201.092,-340.463C195.999,-335.11 191.276,-328.832 188.5,-322 174.815,-288.323 177.644,-245.735 181.814,-218.07"/>
<polygon fill="black" stroke="black" points="185.317,-218.336 183.51,-207.897 178.413,-217.185 185.317,-218.336"/>
<text text-anchor="middle" x="236.5" y="-298.8" font-family="Times,serif" font-size="14.00">v6 == 57346</text>
</g>
<!-- Node0xf04a4e0 -->
<g id="node8" class="node"><title>Node0xf04a4e0</title>
<polygon fill="none" stroke="black" points="237.5,-226.5 237.5,-264.5 383.5,-264.5 383.5,-226.5 237.5,-226.5"/>
<text text-anchor="start" x="245.5" y="-249.3" font-family="Times,serif" font-size="14.00">0x40d661:</text>
<text text-anchor="start" x="245.5" y="-234.3" font-family="Times,serif" font-size="14.00"> if (v6 == 57345):</text>
</g>
<!-- Node0xf04a2b0&#45;&gt;Node0xf04a4e0 -->
<g id="edge7" class="edge"><title>Node0xf04a2b0&#45;&gt;Node0xf04a4e0</title>
<path fill="none" stroke="black" d="M266.984,-340.345C275.026,-335.375 282.704,-329.296 288.5,-322 299.195,-308.537 304.692,-290.049 307.516,-274.737"/>
<polygon fill="black" stroke="black" points="310.992,-275.166 309.076,-264.745 304.075,-274.086 310.992,-275.166"/>
<text text-anchor="middle" x="350.5" y="-298.8" font-family="Times,serif" font-size="14.00">v6 != 57346</text>
</g>
<!-- Node0xf04a220&#45;&gt;Node0xf049b80 -->
<g id="edge8" class="edge"><title>Node0xf04a220&#45;&gt;Node0xf049b80</title>
<path fill="none" stroke="black" d="M190.242,-169.429C194.038,-144.412 200.925,-99.0182 205.352,-69.8406"/>
<polygon fill="black" stroke="black" points="208.821,-70.3043 206.861,-59.8924 201.901,-69.2542 208.821,-70.3043"/>
</g>
<!-- Node0x8520700 -->
<g id="node9" class="node"><title>Node0x8520700</title>
<polygon fill="none" stroke="black" points="213.5,-105 213.5,-143 305.5,-143 305.5,-105 213.5,-105"/>
<text text-anchor="start" x="221.5" y="-127.8" font-family="Times,serif" font-size="14.00">0x40d66c:</text>
<text text-anchor="start" x="221.5" y="-112.8" font-family="Times,serif" font-size="14.00"> return 0</text>
</g>
<!-- Node0xf04a4e0&#45;&gt;Node0x8520700 -->
<g id="edge9" class="edge"><title>Node0xf04a4e0&#45;&gt;Node0x8520700</title>
<path fill="none" stroke="black" d="M275.666,-226.455C269.156,-221.403 263.233,-215.263 259.5,-208 250.962,-191.39 251.069,-170.323 253.256,-153.571"/>
<polygon fill="black" stroke="black" points="256.78,-153.706 254.924,-143.275 249.87,-152.587 256.78,-153.706"/>
<text text-anchor="middle" x="307.5" y="-184.8" font-family="Times,serif" font-size="14.00">v6 == 57345</text>
</g>
<!-- Node0xf04a630 -->
<g id="node10" class="node"><title>Node0xf04a630</title>
<polygon fill="none" stroke="black" points="327.5,-97.5 327.5,-150.5 419.5,-150.5 419.5,-97.5 327.5,-97.5"/>
<text text-anchor="start" x="335.5" y="-135.3" font-family="Times,serif" font-size="14.00">0x40d668:</text>
<text text-anchor="start" x="335.5" y="-120.3" font-family="Times,serif" font-size="14.00"> g2 = 0</text>
<text text-anchor="start" x="335.5" y="-105.3" font-family="Times,serif" font-size="14.00"> return 1</text>
</g>
<!-- Node0xf04a4e0&#45;&gt;Node0xf04a630 -->
<g id="edge10" class="edge"><title>Node0xf04a4e0&#45;&gt;Node0xf04a630</title>
<path fill="none" stroke="black" d="M339.085,-226.185C345.308,-220.99 351.284,-214.855 355.5,-208 364.162,-193.918 368.689,-176.249 371.042,-160.837"/>
<polygon fill="black" stroke="black" points="374.554,-160.962 372.347,-150.6 367.61,-160.076 374.554,-160.962"/>
<text text-anchor="middle" x="414.5" y="-184.8" font-family="Times,serif" font-size="14.00">v6 != 57345</text>
</g>
<!-- Node0x8520700&#45;&gt;Node0xf049b80 -->
<g id="edge11" class="edge"><title>Node0x8520700&#45;&gt;Node0xf049b80</title>
<path fill="none" stroke="black" d="M248.154,-104.733C241.45,-93.9393 232.856,-80.1026 225.474,-68.2183"/>
<polygon fill="black" stroke="black" points="228.367,-66.2416 220.117,-59.5935 222.42,-69.935 228.367,-66.2416"/>
</g>
<!-- Node0xf04a630&#45;&gt;Node0xf049b80 -->
<g id="edge12" class="edge"><title>Node0xf04a630&#45;&gt;Node0xf049b80</title>
<path fill="none" stroke="black" d="M327.38,-100.362C301.62,-87.7174 269.974,-72.1841 245.96,-60.3965"/>
<polygon fill="black" stroke="black" points="247.351,-57.1803 236.832,-55.9158 244.266,-63.4641 247.351,-57.1803"/>
</g>
</g>
</svg>
