<?xml version="1.0" encoding="UTF-8" standalone="no"?>
<!DOCTYPE svg PUBLIC "-//W3C//DTD SVG 1.1//EN"
 "http://www.w3.org/Graphics/SVG/1.1/DTD/svg11.dtd">
<!-- Generated by graphviz version 2.38.0 (20140413.2041)
 -->
<!-- Title: Control&#45;flow graph for function &#39;function_426f81(*a1)&#39;. Pages: 1 -->
<svg width="416pt" height="353pt"
 viewBox="0.00 0.00 416.00 353.00" xmlns="http://www.w3.org/2000/svg" xmlns:xlink="http://www.w3.org/1999/xlink">
<g id="graph0" class="graph" transform="scale(1 1) rotate(0) translate(4 349)">
<title>Control&#45;flow graph for function &#39;function_426f81(*a1)&#39;.</title>
<polygon fill="white" stroke="none" points="-4,4 -4,-349 412,-349 412,4 -4,4"/>
<text text-anchor="middle" x="204" y="-7.8" font-family="Times,serif" font-size="14.00">Control&#45;flow graph for function &#39;function_426f81(*a1)&#39;.</text>
<!-- Node0xfdcc670 -->
<g id="node1" class="node"><title>Node0xfdcc670</title>
<polygon fill="none" stroke="black" points="174.5,-306.5 174.5,-344.5 233.5,-344.5 233.5,-306.5 174.5,-306.5"/>
<text text-anchor="start" x="182.5" y="-329.3" font-family="Times,serif" font-size="14.00">entry:</text>
<text text-anchor="start" x="182.5" y="-314.3" font-family="Times,serif" font-size="14.00"> a1</text>
</g>
<!-- Node0xfdce730 -->
<g id="node2" class="node"><title>Node0xfdce730</title>
<polygon fill="none" stroke="black" points="38.5,-96.5 38.5,-269.5 369.5,-269.5 369.5,-96.5 38.5,-96.5"/>
<text text-anchor="start" x="46.5" y="-254.3" font-family="Times,serif" font-size="14.00">result</text>
<text text-anchor="start" x="46.5" y="-239.3" font-family="Times,serif" font-size="14.00"> v1</text>
<text text-anchor="start" x="46.5" y="-224.3" font-family="Times,serif" font-size="14.00"> v2</text>
<text text-anchor="start" x="46.5" y="-209.3" font-family="Times,serif" font-size="14.00"> v3</text>
<text text-anchor="start" x="46.5" y="-194.3" font-family="Times,serif" font-size="14.00"> v4</text>
<text text-anchor="start" x="46.5" y="-179.3" font-family="Times,serif" font-size="14.00"> v5</text>
<text text-anchor="start" x="46.5" y="-164.3" font-family="Times,serif" font-size="14.00"> v3 = v4</text>
<text text-anchor="start" x="46.5" y="-149.3" font-family="Times,serif" font-size="14.00"> v3 = a1</text>
<text text-anchor="start" x="46.5" y="-134.3" font-family="Times,serif" font-size="14.00"> g5 = (PtrToIntCastExpr&lt;int32&gt;(a1) + &#45;64)</text>
<text text-anchor="start" x="46.5" y="-119.3" font-family="Times,serif" font-size="14.00"> result = function_41b7df(v2)</text>
<text text-anchor="start" x="46.5" y="-104.3" font-family="Times,serif" font-size="14.00"> return result</text>
</g>
<!-- Node0xfdcc670&#45;&gt;Node0xfdce730 -->
<g id="edge1" class="edge"><title>Node0xfdcc670&#45;&gt;Node0xfdce730</title>
<path fill="none" stroke="black" d="M204,-306.42C204,-299.027 204,-289.868 204,-279.912"/>
<polygon fill="black" stroke="black" points="207.5,-279.726 204,-269.726 200.5,-279.726 207.5,-279.726"/>
</g>
<!-- Node0xfdce6b0 -->
<g id="node3" class="node"><title>Node0xfdce6b0</title>
<polygon fill="none" stroke="black" points="177,-23.5 177,-59.5 231,-59.5 231,-23.5 177,-23.5"/>
<text text-anchor="start" x="185" y="-37.8" font-family="Times,serif" font-size="14.00">exit:</text>
</g>
<!-- Node0xfdce730&#45;&gt;Node0xfdce6b0 -->
<g id="edge2" class="edge"><title>Node0xfdce730&#45;&gt;Node0xfdce6b0</title>
<path fill="none" stroke="black" d="M204,-96.4343C204,-86.8184 204,-77.6259 204,-69.641"/>
<polygon fill="black" stroke="black" points="207.5,-69.5749 204,-59.5749 200.5,-69.5749 207.5,-69.5749"/>
</g>
</g>
</svg>
