<?xml version="1.0" encoding="UTF-8" standalone="no"?>
<!DOCTYPE svg PUBLIC "-//W3C//DTD SVG 1.1//EN"
 "http://www.w3.org/Graphics/SVG/1.1/DTD/svg11.dtd">
<!-- Generated by graphviz version 2.38.0 (20140413.2041)
 -->
<!-- Title: Control&#45;flow graph for function &#39;function_402960(*a1, *a2)&#39;. Pages: 1 -->
<svg width="454pt" height="1047pt"
 viewBox="0.00 0.00 454.00 1047.00" xmlns="http://www.w3.org/2000/svg" xmlns:xlink="http://www.w3.org/1999/xlink">
<g id="graph0" class="graph" transform="scale(1 1) rotate(0) translate(4 1043)">
<title>Control&#45;flow graph for function &#39;function_402960(*a1, *a2)&#39;.</title>
<polygon fill="white" stroke="none" points="-4,4 -4,-1043 450,-1043 450,4 -4,4"/>
<text text-anchor="middle" x="223" y="-7.8" font-family="Times,serif" font-size="14.00">Control&#45;flow graph for function &#39;function_402960(*a1, *a2)&#39;.</text>
<!-- Node0xef06150 -->
<g id="node1" class="node"><title>Node0xef06150</title>
<polygon fill="none" stroke="black" points="243.5,-985.5 243.5,-1038.5 302.5,-1038.5 302.5,-985.5 243.5,-985.5"/>
<text text-anchor="start" x="251.5" y="-1023.3" font-family="Times,serif" font-size="14.00">entry:</text>
<text text-anchor="start" x="251.5" y="-1008.3" font-family="Times,serif" font-size="14.00"> a1</text>
<text text-anchor="start" x="251.5" y="-993.3" font-family="Times,serif" font-size="14.00"> a2</text>
</g>
<!-- Node0xef05520 -->
<g id="node2" class="node"><title>Node0xef05520</title>
<polygon fill="none" stroke="black" points="125,-444.5 125,-947.5 421,-947.5 421,-444.5 125,-444.5"/>
<text text-anchor="start" x="133" y="-932.3" font-family="Times,serif" font-size="14.00">v1</text>
<text text-anchor="start" x="133" y="-917.3" font-family="Times,serif" font-size="14.00"> v2</text>
<text text-anchor="start" x="133" y="-902.3" font-family="Times,serif" font-size="14.00"> v3</text>
<text text-anchor="start" x="133" y="-887.3" font-family="Times,serif" font-size="14.00"> v4</text>
<text text-anchor="start" x="133" y="-872.3" font-family="Times,serif" font-size="14.00"> v5</text>
<text text-anchor="start" x="133" y="-857.3" font-family="Times,serif" font-size="14.00"> v6</text>
<text text-anchor="start" x="133" y="-842.3" font-family="Times,serif" font-size="14.00"> v7</text>
<text text-anchor="start" x="133" y="-827.3" font-family="Times,serif" font-size="14.00"> v8</text>
<text text-anchor="start" x="133" y="-812.3" font-family="Times,serif" font-size="14.00"> v9</text>
<text text-anchor="start" x="133" y="-797.3" font-family="Times,serif" font-size="14.00"> v10</text>
<text text-anchor="start" x="133" y="-782.3" font-family="Times,serif" font-size="14.00"> v11</text>
<text text-anchor="start" x="133" y="-767.3" font-family="Times,serif" font-size="14.00"> v12</text>
<text text-anchor="start" x="133" y="-752.3" font-family="Times,serif" font-size="14.00"> v13</text>
<text text-anchor="start" x="133" y="-737.3" font-family="Times,serif" font-size="14.00"> v14</text>
<text text-anchor="start" x="133" y="-722.3" font-family="Times,serif" font-size="14.00"> v15</text>
<text text-anchor="start" x="133" y="-707.3" font-family="Times,serif" font-size="14.00"> v16</text>
<text text-anchor="start" x="133" y="-692.3" font-family="Times,serif" font-size="14.00"> v17</text>
<text text-anchor="start" x="133" y="-677.3" font-family="Times,serif" font-size="14.00"> v18</text>
<text text-anchor="start" x="133" y="-662.3" font-family="Times,serif" font-size="14.00"> v19</text>
<text text-anchor="start" x="133" y="-647.3" font-family="Times,serif" font-size="14.00"> v20</text>
<text text-anchor="start" x="133" y="-632.3" font-family="Times,serif" font-size="14.00"> v5 = v6</text>
<text text-anchor="start" x="133" y="-617.3" font-family="Times,serif" font-size="14.00"> v12 = g5</text>
<text text-anchor="start" x="133" y="-602.3" font-family="Times,serif" font-size="14.00"> v14 = *(IntToPtrCastExpr&lt;ptr&gt;(v12))</text>
<text text-anchor="start" x="133" y="-587.3" font-family="Times,serif" font-size="14.00"> g2 = v14</text>
<text text-anchor="start" x="133" y="-572.3" font-family="Times,serif" font-size="14.00"> v20 = (v14 + &#45;16)</text>
<text text-anchor="start" x="133" y="-557.3" font-family="Times,serif" font-size="14.00"> v2 = IntToPtrCastExpr&lt;ptr&gt;(v20)</text>
<text text-anchor="start" x="133" y="-542.3" font-family="Times,serif" font-size="14.00"> v15 = *(&amp;(v2[&#39;3&#39;]))</text>
<text text-anchor="start" x="133" y="-527.3" font-family="Times,serif" font-size="14.00"> v3 = v15</text>
<text text-anchor="start" x="133" y="-512.3" font-family="Times,serif" font-size="14.00"> *(&amp;(v2[&#39;3&#39;])) = (v15 + &#45;1)</text>
<text text-anchor="start" x="133" y="-497.3" font-family="Times,serif" font-size="14.00"> v13 = v3</text>
<text text-anchor="start" x="133" y="-482.3" font-family="Times,serif" font-size="14.00"> v18 = (v13 + &#45;1)</text>
<text text-anchor="start" x="133" y="-467.3" font-family="Times,serif" font-size="14.00"> g1 = False</text>
<text text-anchor="start" x="133" y="-452.3" font-family="Times,serif" font-size="14.00"> g207 = (v18 == 0)</text>
</g>
<!-- Node0xef06150&#45;&gt;Node0xef05520 -->
<g id="edge1" class="edge"><title>Node0xef06150&#45;&gt;Node0xef05520</title>
<path fill="none" stroke="black" d="M273,-985.304C273,-977.534 273,-968.28 273,-957.932"/>
<polygon fill="black" stroke="black" points="276.5,-957.688 273,-947.688 269.5,-957.688 276.5,-957.688"/>
</g>
<!-- Node0xef060f0 -->
<g id="node3" class="node"><title>Node0xef060f0</title>
<polygon fill="none" stroke="black" points="216,-368.5 216,-406.5 330,-406.5 330,-368.5 216,-368.5"/>
<text text-anchor="start" x="224" y="-391.3" font-family="Times,serif" font-size="14.00">if (v18 &lt;= 0):</text>
<text text-anchor="start" x="224" y="-376.3" font-family="Times,serif" font-size="14.00"> else:</text>
</g>
<!-- Node0xef05520&#45;&gt;Node0xef060f0 -->
<g id="edge2" class="edge"><title>Node0xef05520&#45;&gt;Node0xef060f0</title>
<path fill="none" stroke="black" d="M273,-444.36C273,-434.164 273,-424.95 273,-417.079"/>
<polygon fill="black" stroke="black" points="276.5,-416.886 273,-406.887 269.5,-416.887 276.5,-416.886"/>
</g>
<!-- Node0xef06420 -->
<g id="node4" class="node"><title>Node0xef06420</title>
<polygon fill="none" stroke="black" points="25,-173.5 25,-316.5 321,-316.5 321,-173.5 25,-173.5"/>
<text text-anchor="start" x="33" y="-301.3" font-family="Times,serif" font-size="14.00">0x402974:</text>
<text text-anchor="start" x="33" y="-286.3" font-family="Times,serif" font-size="14.00"> v16 = *(IntToPtrCastExpr&lt;ptr&gt;(v20))</text>
<text text-anchor="start" x="33" y="-271.3" font-family="Times,serif" font-size="14.00"> g5 = v16</text>
<text text-anchor="start" x="33" y="-256.3" font-family="Times,serif" font-size="14.00"> v17 = *(IntToPtrCastExpr&lt;ptr&gt;(v16))</text>
<text text-anchor="start" x="33" y="-241.3" font-family="Times,serif" font-size="14.00"> g8 = v17</text>
<text text-anchor="start" x="33" y="-226.3" font-family="Times,serif" font-size="14.00"> v5 = v2</text>
<text text-anchor="start" x="33" y="-211.3" font-family="Times,serif" font-size="14.00"> v19 = *(&amp;(v2[&#39;1&#39;]))</text>
<text text-anchor="start" x="33" y="-196.3" font-family="Times,serif" font-size="14.00"> BitCastExpr&lt;ptr&gt;(v19)(v20)</text>
<text text-anchor="start" x="33" y="-181.3" font-family="Times,serif" font-size="14.00"> v4 = BitCastExpr&lt;ptr&gt;(v19)</text>
</g>
<!-- Node0xef060f0&#45;&gt;Node0xef06420 -->
<g id="edge3" class="edge"><title>Node0xef060f0&#45;&gt;Node0xef06420</title>
<path fill="none" stroke="black" d="M260.131,-368.42C252.001,-356.996 240.869,-341.356 229.28,-325.074"/>
<polygon fill="black" stroke="black" points="231.842,-322.637 223.192,-316.519 226.139,-326.696 231.842,-322.637"/>
<text text-anchor="middle" x="281.5" y="-338.8" font-family="Times,serif" font-size="14.00">v18 &lt;= 0</text>
</g>
<!-- Node0xef06510 -->
<g id="node5" class="node"><title>Node0xef06510</title>
<polygon fill="none" stroke="black" points="339,-227 339,-263 411,-263 411,-227 339,-227"/>
<text text-anchor="start" x="347" y="-241.3" font-family="Times,serif" font-size="14.00">v4 = v2</text>
</g>
<!-- Node0xef060f0&#45;&gt;Node0xef06510 -->
<g id="edge4" class="edge"><title>Node0xef060f0&#45;&gt;Node0xef06510</title>
<path fill="none" stroke="black" d="M300.582,-368.211C307.441,-362.86 314.419,-356.646 320,-350 339.704,-326.533 355.203,-294.854 364.658,-272.647"/>
<polygon fill="black" stroke="black" points="367.988,-273.753 368.57,-263.174 361.518,-271.081 367.988,-273.753"/>
<text text-anchor="middle" x="357.5" y="-338.8" font-family="Times,serif" font-size="14.00">v18 &gt; 0</text>
</g>
<!-- Node0xef06370 -->
<g id="node6" class="node"><title>Node0xef06370</title>
<polygon fill="none" stroke="black" points="178.5,-97.5 178.5,-135.5 411.5,-135.5 411.5,-97.5 178.5,-97.5"/>
<text text-anchor="start" x="186.5" y="-120.3" font-family="Times,serif" font-size="14.00">0x40297e:</text>
<text text-anchor="start" x="186.5" y="-105.3" font-family="Times,serif" font-size="14.00"> return BitCastExpr&lt;ptr&gt;(v4)</text>
</g>
<!-- Node0xef06420&#45;&gt;Node0xef06370 -->
<g id="edge5" class="edge"><title>Node0xef06420&#45;&gt;Node0xef06370</title>
<path fill="none" stroke="black" d="M241.134,-173.353C251.603,-162.497 261.788,-151.937 270.433,-142.973"/>
<polygon fill="black" stroke="black" points="273.179,-145.168 277.601,-135.54 268.14,-140.309 273.179,-145.168"/>
</g>
<!-- Node0xef06510&#45;&gt;Node0xef06370 -->
<g id="edge6" class="edge"><title>Node0xef06510&#45;&gt;Node0xef06370</title>
<path fill="none" stroke="black" d="M364.211,-226.94C350.764,-205.677 327.634,-169.103 311.845,-144.136"/>
<polygon fill="black" stroke="black" points="314.695,-142.094 306.392,-135.513 308.779,-145.836 314.695,-142.094"/>
</g>
<!-- Node0xe6c6900 -->
<g id="node7" class="node"><title>Node0xe6c6900</title>
<polygon fill="none" stroke="black" points="268,-23.5 268,-59.5 322,-59.5 322,-23.5 268,-23.5"/>
<text text-anchor="start" x="276" y="-37.8" font-family="Times,serif" font-size="14.00">exit:</text>
</g>
<!-- Node0xef06370&#45;&gt;Node0xe6c6900 -->
<g id="edge7" class="edge"><title>Node0xef06370&#45;&gt;Node0xe6c6900</title>
<path fill="none" stroke="black" d="M295,-97.4551C295,-89.2008 295,-79.2377 295,-70.0742"/>
<polygon fill="black" stroke="black" points="298.5,-69.8347 295,-59.8347 291.5,-69.8347 298.5,-69.8347"/>
</g>
</g>
</svg>
