<?xml version="1.0" encoding="UTF-8" standalone="no"?>
<!DOCTYPE svg PUBLIC "-//W3C//DTD SVG 1.1//EN"
 "http://www.w3.org/Graphics/SVG/1.1/DTD/svg11.dtd">
<!-- Generated by graphviz version 2.38.0 (20140413.2041)
 -->
<!-- Title: Control&#45;flow graph for function &#39;function_4132bb()&#39;. Pages: 1 -->
<svg width="764pt" height="2110pt"
 viewBox="0.00 0.00 764.00 2110.00" xmlns="http://www.w3.org/2000/svg" xmlns:xlink="http://www.w3.org/1999/xlink">
<g id="graph0" class="graph" transform="scale(1 1) rotate(0) translate(4 2106)">
<title>Control&#45;flow graph for function &#39;function_4132bb()&#39;.</title>
<polygon fill="white" stroke="none" points="-4,4 -4,-2106 760,-2106 760,4 -4,4"/>
<text text-anchor="middle" x="378" y="-7.8" font-family="Times,serif" font-size="14.00">Control&#45;flow graph for function &#39;function_4132bb()&#39;.</text>
<!-- Node0xf31ef20 -->
<g id="node1" class="node"><title>Node0xf31ef20</title>
<polygon fill="none" stroke="black" points="473.5,-2065.5 473.5,-2101.5 532.5,-2101.5 532.5,-2065.5 473.5,-2065.5"/>
<text text-anchor="start" x="481.5" y="-2079.8" font-family="Times,serif" font-size="14.00">entry:</text>
</g>
<!-- Node0xf31f760 -->
<g id="node2" class="node"><title>Node0xf31f760</title>
<polygon fill="none" stroke="black" points="334.5,-1269.5 334.5,-2027.5 671.5,-2027.5 671.5,-1269.5 334.5,-1269.5"/>
<text text-anchor="start" x="342.5" y="-2012.3" font-family="Times,serif" font-size="14.00">v1</text>
<text text-anchor="start" x="342.5" y="-1997.3" font-family="Times,serif" font-size="14.00"> v2</text>
<text text-anchor="start" x="342.5" y="-1982.3" font-family="Times,serif" font-size="14.00"> v3</text>
<text text-anchor="start" x="342.5" y="-1967.3" font-family="Times,serif" font-size="14.00"> v4</text>
<text text-anchor="start" x="342.5" y="-1952.3" font-family="Times,serif" font-size="14.00"> v5</text>
<text text-anchor="start" x="342.5" y="-1937.3" font-family="Times,serif" font-size="14.00"> v6</text>
<text text-anchor="start" x="342.5" y="-1922.3" font-family="Times,serif" font-size="14.00"> v7</text>
<text text-anchor="start" x="342.5" y="-1907.3" font-family="Times,serif" font-size="14.00"> v8</text>
<text text-anchor="start" x="342.5" y="-1892.3" font-family="Times,serif" font-size="14.00"> v9</text>
<text text-anchor="start" x="342.5" y="-1877.3" font-family="Times,serif" font-size="14.00"> v10</text>
<text text-anchor="start" x="342.5" y="-1862.3" font-family="Times,serif" font-size="14.00"> v11</text>
<text text-anchor="start" x="342.5" y="-1847.3" font-family="Times,serif" font-size="14.00"> v12</text>
<text text-anchor="start" x="342.5" y="-1832.3" font-family="Times,serif" font-size="14.00"> v13</text>
<text text-anchor="start" x="342.5" y="-1817.3" font-family="Times,serif" font-size="14.00"> v14</text>
<text text-anchor="start" x="342.5" y="-1802.3" font-family="Times,serif" font-size="14.00"> v15</text>
<text text-anchor="start" x="342.5" y="-1787.3" font-family="Times,serif" font-size="14.00"> v16</text>
<text text-anchor="start" x="342.5" y="-1772.3" font-family="Times,serif" font-size="14.00"> v17</text>
<text text-anchor="start" x="342.5" y="-1757.3" font-family="Times,serif" font-size="14.00"> v18</text>
<text text-anchor="start" x="342.5" y="-1742.3" font-family="Times,serif" font-size="14.00"> v19</text>
<text text-anchor="start" x="342.5" y="-1727.3" font-family="Times,serif" font-size="14.00"> v20</text>
<text text-anchor="start" x="342.5" y="-1712.3" font-family="Times,serif" font-size="14.00"> v21</text>
<text text-anchor="start" x="342.5" y="-1697.3" font-family="Times,serif" font-size="14.00"> v22</text>
<text text-anchor="start" x="342.5" y="-1682.3" font-family="Times,serif" font-size="14.00"> v23</text>
<text text-anchor="start" x="342.5" y="-1667.3" font-family="Times,serif" font-size="14.00"> v24</text>
<text text-anchor="start" x="342.5" y="-1652.3" font-family="Times,serif" font-size="14.00"> v25</text>
<text text-anchor="start" x="342.5" y="-1637.3" font-family="Times,serif" font-size="14.00"> v26</text>
<text text-anchor="start" x="342.5" y="-1622.3" font-family="Times,serif" font-size="14.00"> v27</text>
<text text-anchor="start" x="342.5" y="-1607.3" font-family="Times,serif" font-size="14.00"> v28</text>
<text text-anchor="start" x="342.5" y="-1592.3" font-family="Times,serif" font-size="14.00"> v29</text>
<text text-anchor="start" x="342.5" y="-1577.3" font-family="Times,serif" font-size="14.00"> v30</text>
<text text-anchor="start" x="342.5" y="-1562.3" font-family="Times,serif" font-size="14.00"> v31</text>
<text text-anchor="start" x="342.5" y="-1547.3" font-family="Times,serif" font-size="14.00"> v32</text>
<text text-anchor="start" x="342.5" y="-1532.3" font-family="Times,serif" font-size="14.00"> v33</text>
<text text-anchor="start" x="342.5" y="-1517.3" font-family="Times,serif" font-size="14.00"> v34</text>
<text text-anchor="start" x="342.5" y="-1502.3" font-family="Times,serif" font-size="14.00"> v35</text>
<text text-anchor="start" x="342.5" y="-1487.3" font-family="Times,serif" font-size="14.00"> result</text>
<text text-anchor="start" x="342.5" y="-1472.3" font-family="Times,serif" font-size="14.00"> v36</text>
<text text-anchor="start" x="342.5" y="-1457.3" font-family="Times,serif" font-size="14.00"> v37</text>
<text text-anchor="start" x="342.5" y="-1442.3" font-family="Times,serif" font-size="14.00"> v18 = v19</text>
<text text-anchor="start" x="342.5" y="-1427.3" font-family="Times,serif" font-size="14.00"> v16 = v17</text>
<text text-anchor="start" x="342.5" y="-1412.3" font-family="Times,serif" font-size="14.00"> v11 = v12</text>
<text text-anchor="start" x="342.5" y="-1397.3" font-family="Times,serif" font-size="14.00"> v23 = v24</text>
<text text-anchor="start" x="342.5" y="-1382.3" font-family="Times,serif" font-size="14.00"> v21 = v22</text>
<text text-anchor="start" x="342.5" y="-1367.3" font-family="Times,serif" font-size="14.00"> g2 = 4534543</text>
<text text-anchor="start" x="342.5" y="-1352.3" font-family="Times,serif" font-size="14.00"> __EH_prolog3()</text>
<text text-anchor="start" x="342.5" y="-1337.3" font-family="Times,serif" font-size="14.00"> v6 = function_419f94()</text>
<text text-anchor="start" x="342.5" y="-1322.3" font-family="Times,serif" font-size="14.00"> g9 = v6</text>
<text text-anchor="start" x="342.5" y="-1307.3" font-family="Times,serif" font-size="14.00"> v36 = *(IntToPtrCastExpr&lt;ptr&gt;((v6 + 28)))</text>
<text text-anchor="start" x="342.5" y="-1292.3" font-family="Times,serif" font-size="14.00"> g1 = False</text>
<text text-anchor="start" x="342.5" y="-1277.3" font-family="Times,serif" font-size="14.00"> v33 = v6</text>
</g>
<!-- Node0xf31ef20&#45;&gt;Node0xf31f760 -->
<g id="edge1" class="edge"><title>Node0xf31ef20&#45;&gt;Node0xf31f760</title>
<path fill="none" stroke="black" d="M503,-2065.26C503,-2058.02 503,-2048.72 503,-2037.8"/>
<polygon fill="black" stroke="black" points="506.5,-2037.79 503,-2027.79 499.5,-2037.79 506.5,-2037.79"/>
</g>
<!-- Node0xf3201d0 -->
<g id="node3" class="node"><title>Node0xf3201d0</title>
<polygon fill="none" stroke="black" points="446,-1195.5 446,-1231.5 560,-1231.5 560,-1195.5 446,-1195.5"/>
<text text-anchor="start" x="454" y="-1209.8" font-family="Times,serif" font-size="14.00">if (v36 == 0):</text>
</g>
<!-- Node0xf31f760&#45;&gt;Node0xf3201d0 -->
<g id="edge2" class="edge"><title>Node0xf31f760&#45;&gt;Node0xf3201d0</title>
<path fill="none" stroke="black" d="M503,-1269.34C503,-1258.88 503,-1249.6 503,-1241.77"/>
<polygon fill="black" stroke="black" points="506.5,-1241.72 503,-1231.72 499.5,-1241.72 506.5,-1241.72"/>
</g>
<!-- Node0xf320860 -->
<g id="node4" class="node"><title>Node0xf320860</title>
<polygon fill="none" stroke="black" points="209.5,-1075.5 209.5,-1143.5 546.5,-1143.5 546.5,-1075.5 209.5,-1075.5"/>
<text text-anchor="start" x="217.5" y="-1128.3" font-family="Times,serif" font-size="14.00">0x4132d4:</text>
<text text-anchor="start" x="217.5" y="-1113.3" font-family="Times,serif" font-size="14.00"> v28 = g3</text>
<text text-anchor="start" x="217.5" y="-1098.3" font-family="Times,serif" font-size="14.00"> v37 = *(IntToPtrCastExpr&lt;ptr&gt;((v28 + 8)))</text>
<text text-anchor="start" x="217.5" y="-1083.3" font-family="Times,serif" font-size="14.00"> g1 = False</text>
</g>
<!-- Node0xf3201d0&#45;&gt;Node0xf320860 -->
<g id="edge3" class="edge"><title>Node0xf3201d0&#45;&gt;Node0xf320860</title>
<path fill="none" stroke="black" d="M482.078,-1195.43C466.868,-1183.02 445.645,-1165.7 426.329,-1149.94"/>
<polygon fill="black" stroke="black" points="428.435,-1147.14 418.474,-1143.53 424.009,-1152.56 428.435,-1147.14"/>
<text text-anchor="middle" x="493.5" y="-1165.8" font-family="Times,serif" font-size="14.00">v36 == 0</text>
</g>
<!-- Node0xf31f870 -->
<g id="node5" class="node"><title>Node0xf31f870</title>
<polygon fill="none" stroke="black" points="394,-988.5 394,-1056.5 756,-1056.5 756,-988.5 394,-988.5"/>
<text text-anchor="start" x="402" y="-1041.3" font-family="Times,serif" font-size="14.00">0x413324:</text>
<text text-anchor="start" x="402" y="-1026.3" font-family="Times,serif" font-size="14.00"> result = *(IntToPtrCastExpr&lt;ptr&gt;((v33 + 28)))</text>
<text text-anchor="start" x="402" y="-1011.3" font-family="Times,serif" font-size="14.00"> __EH_epilog3()</text>
<text text-anchor="start" x="402" y="-996.3" font-family="Times,serif" font-size="14.00"> return result</text>
</g>
<!-- Node0xf3201d0&#45;&gt;Node0xf31f870 -->
<g id="edge4" class="edge"><title>Node0xf3201d0&#45;&gt;Node0xf31f870</title>
<path fill="none" stroke="black" d="M520.566,-1195.31C532.634,-1182.38 547.889,-1163.59 556,-1144 566.128,-1119.54 570.896,-1090.24 573.123,-1066.65"/>
<polygon fill="black" stroke="black" points="576.618,-1066.85 573.953,-1056.59 569.642,-1066.27 576.618,-1066.85"/>
<text text-anchor="middle" x="576.5" y="-1165.8" font-family="Times,serif" font-size="14.00">v36 != 0</text>
</g>
<!-- Node0xf3209c0 -->
<g id="node6" class="node"><title>Node0xf3209c0</title>
<polygon fill="none" stroke="black" points="324,-931.5 324,-969.5 432,-969.5 432,-931.5 324,-931.5"/>
<text text-anchor="start" x="332" y="-954.3" font-family="Times,serif" font-size="14.00">if (v37 != 0):</text>
<text text-anchor="start" x="332" y="-939.3" font-family="Times,serif" font-size="14.00"> else:</text>
</g>
<!-- Node0xf320860&#45;&gt;Node0xf3209c0 -->
<g id="edge5" class="edge"><title>Node0xf320860&#45;&gt;Node0xf3209c0</title>
<path fill="none" stroke="black" d="M378,-1075.2C378,-1046.88 378,-1006.65 378,-979.845"/>
<polygon fill="black" stroke="black" points="381.5,-979.596 378,-969.596 374.5,-979.596 381.5,-979.596"/>
</g>
<!-- Node0xf31fc90 -->
<g id="node7" class="node"><title>Node0xf31fc90</title>
<polygon fill="none" stroke="black" points="489,-23.5 489,-59.5 543,-59.5 543,-23.5 489,-23.5"/>
<text text-anchor="start" x="497" y="-37.8" font-family="Times,serif" font-size="14.00">exit:</text>
</g>
<!-- Node0xf31f870&#45;&gt;Node0xf31fc90 -->
<g id="edge6" class="edge"><title>Node0xf31f870&#45;&gt;Node0xf31fc90</title>
<path fill="none" stroke="black" d="M575,-988.286C575,-965.317 575,-934.052 575,-906.5 575,-906.5 575,-906.5 575,-130.5 575,-106.157 559.232,-83.4646 543.999,-67.222"/>
<polygon fill="black" stroke="black" points="546.159,-64.4294 536.635,-59.7875 541.186,-69.3554 546.159,-64.4294"/>
</g>
<!-- Node0xf320e80 -->
<g id="node8" class="node"><title>Node0xf320e80</title>
<polygon fill="none" stroke="black" points="0,-691.5 0,-879.5 450,-879.5 450,-691.5 0,-691.5"/>
<text text-anchor="start" x="8" y="-864.3" font-family="Times,serif" font-size="14.00">0x4132da:</text>
<text text-anchor="start" x="8" y="-849.3" font-family="Times,serif" font-size="14.00"> v23 = function_41afc3</text>
<text text-anchor="start" x="8" y="-834.3" font-family="Times,serif" font-size="14.00"> v7 = function_40c741(BitCastExpr&lt;ptr&gt;(function_41afc3))</text>
<text text-anchor="start" x="8" y="-819.3" font-family="Times,serif" font-size="14.00"> v11 = IntToPtrCastExpr&lt;ptr&gt;(96)</text>
<text text-anchor="start" x="8" y="-804.3" font-family="Times,serif" font-size="14.00"> g4 = v7</text>
<text text-anchor="start" x="8" y="-789.3" font-family="Times,serif" font-size="14.00"> v8 = function_40c753(IntToPtrCastExpr&lt;ptr&gt;(96))</text>
<text text-anchor="start" x="8" y="-774.3" font-family="Times,serif" font-size="14.00"> g5 = v8</text>
<text text-anchor="start" x="8" y="-759.3" font-family="Times,serif" font-size="14.00"> v29 = g3</text>
<text text-anchor="start" x="8" y="-744.3" font-family="Times,serif" font-size="14.00"> *(IntToPtrCastExpr&lt;ptr&gt;((v29 + 8))) = v8</text>
<text text-anchor="start" x="8" y="-729.3" font-family="Times,serif" font-size="14.00"> v30 = g3</text>
<text text-anchor="start" x="8" y="-714.3" font-family="Times,serif" font-size="14.00"> *(IntToPtrCastExpr&lt;ptr&gt;((v30 + &#45;4))) = 0</text>
<text text-anchor="start" x="8" y="-699.3" font-family="Times,serif" font-size="14.00"> v26 = g5</text>
</g>
<!-- Node0xf3209c0&#45;&gt;Node0xf320e80 -->
<g id="edge7" class="edge"><title>Node0xf3209c0&#45;&gt;Node0xf320e80</title>
<path fill="none" stroke="black" d="M361.042,-931.433C350.285,-919.974 335.419,-904.136 319.446,-887.119"/>
<polygon fill="black" stroke="black" points="321.938,-884.66 312.542,-879.764 316.834,-889.45 321.938,-884.66"/>
<text text-anchor="middle" x="373.5" y="-901.8" font-family="Times,serif" font-size="14.00">v37 != 0</text>
</g>
<!-- Node0xf321390 -->
<g id="node9" class="node"><title>Node0xf321390</title>
<polygon fill="none" stroke="black" points="437.5,-636.5 437.5,-672.5 518.5,-672.5 518.5,-636.5 437.5,-636.5"/>
<text text-anchor="start" x="445.5" y="-650.8" font-family="Times,serif" font-size="14.00">v33 = v6</text>
</g>
<!-- Node0xf3209c0&#45;&gt;Node0xf321390 -->
<g id="edge8" class="edge"><title>Node0xf3209c0&#45;&gt;Node0xf321390</title>
<path fill="none" stroke="black" d="M409.166,-931.427C426.99,-919.301 447.941,-901.608 459,-880 492.009,-815.505 487.198,-726.81 482.015,-682.699"/>
<polygon fill="black" stroke="black" points="485.481,-682.214 480.746,-672.736 478.538,-683.098 485.481,-682.214"/>
<text text-anchor="middle" x="480.5" y="-901.8" font-family="Times,serif" font-size="14.00">v37 == 0</text>
</g>
<!-- Node0xf320740 -->
<g id="node10" class="node"><title>Node0xf320740</title>
<polygon fill="none" stroke="black" points="168,-579.5 168,-617.5 282,-617.5 282,-579.5 168,-579.5"/>
<text text-anchor="start" x="176" y="-602.3" font-family="Times,serif" font-size="14.00">if (v26 == 0):</text>
<text text-anchor="start" x="176" y="-587.3" font-family="Times,serif" font-size="14.00"> else:</text>
</g>
<!-- Node0xf320e80&#45;&gt;Node0xf320740 -->
<g id="edge9" class="edge"><title>Node0xf320e80&#45;&gt;Node0xf320740</title>
<path fill="none" stroke="black" d="M225,-691.458C225,-668.429 225,-645.445 225,-628.216"/>
<polygon fill="black" stroke="black" points="228.5,-627.782 225,-617.782 221.5,-627.782 228.5,-627.782"/>
</g>
<!-- Node0xf320dd0 -->
<g id="node11" class="node"><title>Node0xf320dd0</title>
<polygon fill="none" stroke="black" points="185,-97.5 185,-165.5 547,-165.5 547,-97.5 185,-97.5"/>
<text text-anchor="start" x="193" y="-150.3" font-family="Times,serif" font-size="14.00">0x413324:</text>
<text text-anchor="start" x="193" y="-135.3" font-family="Times,serif" font-size="14.00"> result = *(IntToPtrCastExpr&lt;ptr&gt;((v33 + 28)))</text>
<text text-anchor="start" x="193" y="-120.3" font-family="Times,serif" font-size="14.00"> __EH_epilog3()</text>
<text text-anchor="start" x="193" y="-105.3" font-family="Times,serif" font-size="14.00"> return result</text>
</g>
<!-- Node0xf321390&#45;&gt;Node0xf320dd0 -->
<g id="edge10" class="edge"><title>Node0xf321390&#45;&gt;Node0xf320dd0</title>
<path fill="none" stroke="black" d="M478,-636.331C478,-616.587 478,-583.203 478,-554.5 478,-554.5 478,-554.5 478,-311.5 478,-262.544 484.495,-244.794 459,-203 451.868,-191.309 442.019,-180.876 431.384,-171.853"/>
<polygon fill="black" stroke="black" points="433.515,-169.075 423.529,-165.534 429.127,-174.529 433.515,-169.075"/>
</g>
<!-- Node0xf3214e0 -->
<g id="node12" class="node"><title>Node0xf3214e0</title>
<polygon fill="none" stroke="black" points="70,-474.5 70,-512.5 162,-512.5 162,-474.5 70,-474.5"/>
<text text-anchor="start" x="78" y="-497.3" font-family="Times,serif" font-size="14.00">0x413315:</text>
<text text-anchor="start" x="78" y="-482.3" font-family="Times,serif" font-size="14.00"> g2 = 0</text>
</g>
<!-- Node0xf320740&#45;&gt;Node0xf3214e0 -->
<g id="edge11" class="edge"><title>Node0xf320740&#45;&gt;Node0xf3214e0</title>
<path fill="none" stroke="black" d="M204.963,-579.412C198.551,-573.572 191.446,-567.045 185,-561 170.595,-547.491 154.713,-532.212 141.822,-519.709"/>
<polygon fill="black" stroke="black" points="144.222,-517.161 134.611,-512.703 139.344,-522.181 144.222,-517.161"/>
<text text-anchor="middle" x="219.5" y="-549.8" font-family="Times,serif" font-size="14.00">v26 == 0</text>
</g>
<!-- Node0xf31cad0 -->
<g id="node13" class="node"><title>Node0xf31cad0</title>
<polygon fill="none" stroke="black" points="180.5,-459.5 180.5,-527.5 441.5,-527.5 441.5,-459.5 180.5,-459.5"/>
<text text-anchor="start" x="188.5" y="-512.3" font-family="Times,serif" font-size="14.00">0x4132fb:</text>
<text text-anchor="start" x="188.5" y="-497.3" font-family="Times,serif" font-size="14.00"> v11 = IntToPtrCastExpr&lt;ptr&gt;(2)</text>
<text text-anchor="start" x="188.5" y="-482.3" font-family="Times,serif" font-size="14.00"> v16 = 4551280</text>
<text text-anchor="start" x="188.5" y="-467.3" font-family="Times,serif" font-size="14.00"> function_41b85b(4551280)</text>
</g>
<!-- Node0xf320740&#45;&gt;Node0xf31cad0 -->
<g id="edge12" class="edge"><title>Node0xf320740&#45;&gt;Node0xf31cad0</title>
<path fill="none" stroke="black" d="M240.375,-579.086C250.496,-566.964 264.158,-550.602 276.769,-535.498"/>
<polygon fill="black" stroke="black" points="279.521,-537.663 283.243,-527.743 274.148,-533.176 279.521,-537.663"/>
<text text-anchor="middle" x="299.5" y="-549.8" font-family="Times,serif" font-size="14.00">v26 != 0</text>
</g>
<!-- Node0xf320dd0&#45;&gt;Node0xf31fc90 -->
<g id="edge13" class="edge"><title>Node0xf320dd0&#45;&gt;Node0xf31fc90</title>
<path fill="none" stroke="black" d="M422.281,-97.4817C441.678,-86.1022 462.859,-73.6758 480.17,-63.52"/>
<polygon fill="black" stroke="black" points="481.986,-66.5128 488.84,-58.4337 478.444,-60.4751 481.986,-66.5128"/>
</g>
<!-- Node0xf321330 -->
<g id="node14" class="node"><title>Node0xf321330</title>
<polygon fill="none" stroke="black" points="104,-203.5 104,-421.5 450,-421.5 450,-203.5 104,-203.5"/>
<text text-anchor="start" x="112" y="-406.3" font-family="Times,serif" font-size="14.00">0x413317:</text>
<text text-anchor="start" x="112" y="-391.3" font-family="Times,serif" font-size="14.00"> v31 = g3</text>
<text text-anchor="start" x="112" y="-376.3" font-family="Times,serif" font-size="14.00"> g1 = False</text>
<text text-anchor="start" x="112" y="-361.3" font-family="Times,serif" font-size="14.00"> *(IntToPtrCastExpr&lt;ptr&gt;((v31 + &#45;4))) = &#45;1</text>
<text text-anchor="start" x="112" y="-346.3" font-family="Times,serif" font-size="14.00"> v27 = g4</text>
<text text-anchor="start" x="112" y="-331.3" font-family="Times,serif" font-size="14.00"> v18 = IntToPtrCastExpr&lt;ptr&gt;(v27)</text>
<text text-anchor="start" x="112" y="-316.3" font-family="Times,serif" font-size="14.00"> g10 = PtrToIntCastExpr&lt;int32&gt;(&amp;(v18))</text>
<text text-anchor="start" x="112" y="-301.3" font-family="Times,serif" font-size="14.00"> v32 = g9</text>
<text text-anchor="start" x="112" y="-286.3" font-family="Times,serif" font-size="14.00"> v35 = g2</text>
<text text-anchor="start" x="112" y="-271.3" font-family="Times,serif" font-size="14.00"> *(IntToPtrCastExpr&lt;ptr&gt;((v32 + 28))) = v35</text>
<text text-anchor="start" x="112" y="-256.3" font-family="Times,serif" font-size="14.00"> v1 = v18</text>
<text text-anchor="start" x="112" y="-241.3" font-family="Times,serif" font-size="14.00"> function_40c741(v1)</text>
<text text-anchor="start" x="112" y="-226.3" font-family="Times,serif" font-size="14.00"> v34 = g9</text>
<text text-anchor="start" x="112" y="-211.3" font-family="Times,serif" font-size="14.00"> v33 = v34</text>
</g>
<!-- Node0xf3214e0&#45;&gt;Node0xf321330 -->
<g id="edge14" class="edge"><title>Node0xf3214e0&#45;&gt;Node0xf321330</title>
<path fill="none" stroke="black" d="M132.324,-474.351C142.676,-462.841 157.047,-446.864 172.742,-429.414"/>
<polygon fill="black" stroke="black" points="175.456,-431.63 179.541,-421.855 170.252,-426.949 175.456,-431.63"/>
</g>
<!-- Node0xf31cad0&#45;&gt;Node0xf321330 -->
<g id="edge15" class="edge"><title>Node0xf31cad0&#45;&gt;Node0xf321330</title>
<path fill="none" stroke="black" d="M304.685,-459.251C303.115,-450.986 301.34,-441.644 299.467,-431.78"/>
<polygon fill="black" stroke="black" points="302.869,-430.935 297.564,-421.763 295.992,-432.241 302.869,-430.935"/>
</g>
<!-- Node0xf321330&#45;&gt;Node0xf320dd0 -->
<g id="edge16" class="edge"><title>Node0xf321330&#45;&gt;Node0xf320dd0</title>
<path fill="none" stroke="black" d="M330.825,-203.246C335.771,-193.297 340.557,-183.672 344.922,-174.893"/>
<polygon fill="black" stroke="black" points="348.163,-176.235 349.481,-165.723 341.895,-173.119 348.163,-176.235"/>
</g>
</g>
</svg>
