<?xml version="1.0" encoding="UTF-8" standalone="no"?>
<!DOCTYPE svg PUBLIC "-//W3C//DTD SVG 1.1//EN"
 "http://www.w3.org/Graphics/SVG/1.1/DTD/svg11.dtd">
<!-- Generated by graphviz version 2.38.0 (20140413.2041)
 -->
<!-- Title: Control&#45;flow graph for function &#39;function_4179c1()&#39;. Pages: 1 -->
<svg width="489pt" height="668pt"
 viewBox="0.00 0.00 489.00 668.00" xmlns="http://www.w3.org/2000/svg" xmlns:xlink="http://www.w3.org/1999/xlink">
<g id="graph0" class="graph" transform="scale(1 1) rotate(0) translate(4 664)">
<title>Control&#45;flow graph for function &#39;function_4179c1()&#39;.</title>
<polygon fill="white" stroke="none" points="-4,4 -4,-664 485,-664 485,4 -4,4"/>
<text text-anchor="middle" x="240.5" y="-7.8" font-family="Times,serif" font-size="14.00">Control&#45;flow graph for function &#39;function_4179c1()&#39;.</text>
<!-- Node0xf4d3080 -->
<g id="node1" class="node"><title>Node0xf4d3080</title>
<polygon fill="none" stroke="black" points="292,-623.5 292,-659.5 351,-659.5 351,-623.5 292,-623.5"/>
<text text-anchor="start" x="300" y="-637.8" font-family="Times,serif" font-size="14.00">entry:</text>
</g>
<!-- Node0xf4d4430 -->
<g id="node2" class="node"><title>Node0xf4d4430</title>
<polygon fill="none" stroke="black" points="162,-397.5 162,-585.5 481,-585.5 481,-397.5 162,-397.5"/>
<text text-anchor="start" x="170" y="-570.3" font-family="Times,serif" font-size="14.00">v1</text>
<text text-anchor="start" x="170" y="-555.3" font-family="Times,serif" font-size="14.00"> result</text>
<text text-anchor="start" x="170" y="-540.3" font-family="Times,serif" font-size="14.00"> v2</text>
<text text-anchor="start" x="170" y="-525.3" font-family="Times,serif" font-size="14.00"> v3</text>
<text text-anchor="start" x="170" y="-510.3" font-family="Times,serif" font-size="14.00"> v4</text>
<text text-anchor="start" x="170" y="-495.3" font-family="Times,serif" font-size="14.00"> v5</text>
<text text-anchor="start" x="170" y="-480.3" font-family="Times,serif" font-size="14.00"> v6</text>
<text text-anchor="start" x="170" y="-465.3" font-family="Times,serif" font-size="14.00"> v1 = function_419f94()</text>
<text text-anchor="start" x="170" y="-450.3" font-family="Times,serif" font-size="14.00"> v5 = *(IntToPtrCastExpr&lt;ptr&gt;((v1 + 4)))</text>
<text text-anchor="start" x="170" y="-435.3" font-family="Times,serif" font-size="14.00"> g5 = v5</text>
<text text-anchor="start" x="170" y="-420.3" font-family="Times,serif" font-size="14.00"> g1 = False</text>
<text text-anchor="start" x="170" y="-405.3" font-family="Times,serif" font-size="14.00"> g207 = (v5 == 0)</text>
</g>
<!-- Node0xf4d3080&#45;&gt;Node0xf4d4430 -->
<g id="edge1" class="edge"><title>Node0xf4d3080&#45;&gt;Node0xf4d4430</title>
<path fill="none" stroke="black" d="M321.5,-623.233C321.5,-615.721 321.5,-606.26 321.5,-595.877"/>
<polygon fill="black" stroke="black" points="325,-595.674 321.5,-585.674 318,-595.675 325,-595.674"/>
</g>
<!-- Node0xf4d4560 -->
<g id="node3" class="node"><title>Node0xf4d4560</title>
<polygon fill="none" stroke="black" points="272,-323.5 272,-359.5 371,-359.5 371,-323.5 272,-323.5"/>
<text text-anchor="start" x="280" y="-337.8" font-family="Times,serif" font-size="14.00">if (v5 != 0):</text>
</g>
<!-- Node0xf4d4430&#45;&gt;Node0xf4d4560 -->
<g id="edge2" class="edge"><title>Node0xf4d4430&#45;&gt;Node0xf4d4560</title>
<path fill="none" stroke="black" d="M321.5,-397.189C321.5,-387.348 321.5,-377.996 321.5,-369.899"/>
<polygon fill="black" stroke="black" points="325,-369.708 321.5,-359.708 318,-369.708 325,-369.708"/>
</g>
<!-- Node0xf4d48e0 -->
<g id="node4" class="node"><title>Node0xf4d48e0</title>
<polygon fill="none" stroke="black" points="0,-188.5 0,-271.5 337,-271.5 337,-188.5 0,-188.5"/>
<text text-anchor="start" x="8" y="-256.3" font-family="Times,serif" font-size="14.00">0x4179cd:</text>
<text text-anchor="start" x="8" y="-241.3" font-family="Times,serif" font-size="14.00"> v4 = *(IntToPtrCastExpr&lt;ptr&gt;(v5))</text>
<text text-anchor="start" x="8" y="-226.3" font-family="Times,serif" font-size="14.00"> g2 = v4</text>
<text text-anchor="start" x="8" y="-211.3" font-family="Times,serif" font-size="14.00"> v6 = *(IntToPtrCastExpr&lt;ptr&gt;((v4 + 108)))</text>
<text text-anchor="start" x="8" y="-196.3" font-family="Times,serif" font-size="14.00"> IntToPtrCastExpr&lt;ptr&gt;(v6)()</text>
</g>
<!-- Node0xf4d4560&#45;&gt;Node0xf4d48e0 -->
<g id="edge3" class="edge"><title>Node0xf4d4560&#45;&gt;Node0xf4d48e0</title>
<path fill="none" stroke="black" d="M297.594,-323.391C280.378,-311.069 256.273,-293.818 233.549,-277.554"/>
<polygon fill="black" stroke="black" points="235.423,-274.592 225.254,-271.618 231.349,-280.284 235.423,-274.592"/>
<text text-anchor="middle" x="295.5" y="-293.8" font-family="Times,serif" font-size="14.00">v5 != 0</text>
</g>
<!-- Node0xf4d47f0 -->
<g id="node5" class="node"><title>Node0xf4d47f0</title>
<polygon fill="none" stroke="black" points="203.5,-97.5 203.5,-150.5 427.5,-150.5 427.5,-97.5 203.5,-97.5"/>
<text text-anchor="start" x="211.5" y="-135.3" font-family="Times,serif" font-size="14.00">0x4179d2:</text>
<text text-anchor="start" x="211.5" y="-120.3" font-family="Times,serif" font-size="14.00"> result = function_41799c(0)</text>
<text text-anchor="start" x="211.5" y="-105.3" font-family="Times,serif" font-size="14.00"> return result</text>
</g>
<!-- Node0xf4d4560&#45;&gt;Node0xf4d47f0 -->
<g id="edge4" class="edge"><title>Node0xf4d4560&#45;&gt;Node0xf4d47f0</title>
<path fill="none" stroke="black" d="M329.276,-323.473C335.042,-309.867 342.415,-290.137 345.5,-272 351.761,-235.195 353.728,-224.415 345.5,-188 343.34,-178.441 339.55,-168.632 335.374,-159.686"/>
<polygon fill="black" stroke="black" points="338.51,-158.131 330.937,-150.722 332.237,-161.236 338.51,-158.131"/>
<text text-anchor="middle" x="381.5" y="-226.3" font-family="Times,serif" font-size="14.00">v5 == 0</text>
</g>
<!-- Node0xf4d48e0&#45;&gt;Node0xf4d47f0 -->
<g id="edge5" class="edge"><title>Node0xf4d48e0&#45;&gt;Node0xf4d47f0</title>
<path fill="none" stroke="black" d="M225.755,-188.493C240.85,-177.813 256.908,-166.453 271.205,-156.338"/>
<polygon fill="black" stroke="black" points="273.256,-159.174 279.399,-150.541 269.214,-153.459 273.256,-159.174"/>
</g>
<!-- Node0xf4d43b0 -->
<g id="node6" class="node"><title>Node0xf4d43b0</title>
<polygon fill="none" stroke="black" points="288.5,-23.5 288.5,-59.5 342.5,-59.5 342.5,-23.5 288.5,-23.5"/>
<text text-anchor="start" x="296.5" y="-37.8" font-family="Times,serif" font-size="14.00">exit:</text>
</g>
<!-- Node0xf4d47f0&#45;&gt;Node0xf4d43b0 -->
<g id="edge6" class="edge"><title>Node0xf4d47f0&#45;&gt;Node0xf4d43b0</title>
<path fill="none" stroke="black" d="M315.5,-97.0862C315.5,-88.4596 315.5,-78.8224 315.5,-70.0748"/>
<polygon fill="black" stroke="black" points="319,-69.9735 315.5,-59.9735 312,-69.9735 319,-69.9735"/>
</g>
</g>
</svg>
