<?xml version="1.0" encoding="UTF-8" standalone="no"?>
<!DOCTYPE svg PUBLIC "-//W3C//DTD SVG 1.1//EN"
 "http://www.w3.org/Graphics/SVG/1.1/DTD/svg11.dtd">
<!-- Generated by graphviz version 2.38.0 (20140413.2041)
 -->
<!-- Title: Control&#45;flow graph for function &#39;function_432200(*a1)&#39;. Pages: 1 -->
<svg width="429pt" height="593pt"
 viewBox="0.00 0.00 429.00 593.00" xmlns="http://www.w3.org/2000/svg" xmlns:xlink="http://www.w3.org/1999/xlink">
<g id="graph0" class="graph" transform="scale(1 1) rotate(0) translate(4 589)">
<title>Control&#45;flow graph for function &#39;function_432200(*a1)&#39;.</title>
<polygon fill="white" stroke="none" points="-4,4 -4,-589 425,-589 425,4 -4,4"/>
<text text-anchor="middle" x="210.5" y="-7.8" font-family="Times,serif" font-size="14.00">Control&#45;flow graph for function &#39;function_432200(*a1)&#39;.</text>
<!-- Node0x101113d0 -->
<g id="node1" class="node"><title>Node0x101113d0</title>
<polygon fill="none" stroke="black" points="181,-546.5 181,-584.5 240,-584.5 240,-546.5 181,-546.5"/>
<text text-anchor="start" x="189" y="-569.3" font-family="Times,serif" font-size="14.00">entry:</text>
<text text-anchor="start" x="189" y="-554.3" font-family="Times,serif" font-size="14.00"> a1</text>
</g>
<!-- Node0x10111790 -->
<g id="node2" class="node"><title>Node0x10111790</title>
<polygon fill="none" stroke="black" points="0,-96.5 0,-509.5 421,-509.5 421,-96.5 0,-96.5"/>
<text text-anchor="start" x="8" y="-494.3" font-family="Times,serif" font-size="14.00">v1</text>
<text text-anchor="start" x="8" y="-479.3" font-family="Times,serif" font-size="14.00"> v2</text>
<text text-anchor="start" x="8" y="-464.3" font-family="Times,serif" font-size="14.00"> v3</text>
<text text-anchor="start" x="8" y="-449.3" font-family="Times,serif" font-size="14.00"> v4</text>
<text text-anchor="start" x="8" y="-434.3" font-family="Times,serif" font-size="14.00"> v5</text>
<text text-anchor="start" x="8" y="-419.3" font-family="Times,serif" font-size="14.00"> v6</text>
<text text-anchor="start" x="8" y="-404.3" font-family="Times,serif" font-size="14.00"> v7</text>
<text text-anchor="start" x="8" y="-389.3" font-family="Times,serif" font-size="14.00"> v8</text>
<text text-anchor="start" x="8" y="-374.3" font-family="Times,serif" font-size="14.00"> v9</text>
<text text-anchor="start" x="8" y="-359.3" font-family="Times,serif" font-size="14.00"> v10</text>
<text text-anchor="start" x="8" y="-344.3" font-family="Times,serif" font-size="14.00"> result</text>
<text text-anchor="start" x="8" y="-329.3" font-family="Times,serif" font-size="14.00"> v11</text>
<text text-anchor="start" x="8" y="-314.3" font-family="Times,serif" font-size="14.00"> v12</text>
<text text-anchor="start" x="8" y="-299.3" font-family="Times,serif" font-size="14.00"> v9 = v10</text>
<text text-anchor="start" x="8" y="-284.3" font-family="Times,serif" font-size="14.00"> v9 = a1</text>
<text text-anchor="start" x="8" y="-269.3" font-family="Times,serif" font-size="14.00"> result = PtrToIntCastExpr&lt;int32&gt;(a1)</text>
<text text-anchor="start" x="8" y="-254.3" font-family="Times,serif" font-size="14.00"> g2 = result</text>
<text text-anchor="start" x="8" y="-239.3" font-family="Times,serif" font-size="14.00"> *(&amp;(a1[&#39;0&#39;])) = 0</text>
<text text-anchor="start" x="8" y="-224.3" font-family="Times,serif" font-size="14.00"> *(&amp;(a1[&#39;1&#39;])) = NULL</text>
<text text-anchor="start" x="8" y="-209.3" font-family="Times,serif" font-size="14.00"> *(&amp;(a1[&#39;2&#39;])) = IntToPtrCastExpr&lt;ptr&gt;(1732584193)</text>
<text text-anchor="start" x="8" y="-194.3" font-family="Times,serif" font-size="14.00"> *(IntToPtrCastExpr&lt;ptr&gt;((result + 12))) = &#45;271733879</text>
<text text-anchor="start" x="8" y="-179.3" font-family="Times,serif" font-size="14.00"> v11 = v9</text>
<text text-anchor="start" x="8" y="-164.3" font-family="Times,serif" font-size="14.00"> *(&amp;(v11[&#39;4&#39;])) = IntToPtrCastExpr&lt;ptr&gt;(&#45;1732584194)</text>
<text text-anchor="start" x="8" y="-149.3" font-family="Times,serif" font-size="14.00"> v12 = v9</text>
<text text-anchor="start" x="8" y="-134.3" font-family="Times,serif" font-size="14.00"> *(&amp;(v12[&#39;5&#39;])) = IntToPtrCastExpr&lt;ptr&gt;(271733878)</text>
<text text-anchor="start" x="8" y="-119.3" font-family="Times,serif" font-size="14.00"> g3 = v7</text>
<text text-anchor="start" x="8" y="-104.3" font-family="Times,serif" font-size="14.00"> return result</text>
</g>
<!-- Node0x101113d0&#45;&gt;Node0x10111790 -->
<g id="edge1" class="edge"><title>Node0x101113d0&#45;&gt;Node0x10111790</title>
<path fill="none" stroke="black" d="M210.5,-546.182C210.5,-539.029 210.5,-530.078 210.5,-519.867"/>
<polygon fill="black" stroke="black" points="214,-519.708 210.5,-509.708 207,-519.708 214,-519.708"/>
</g>
<!-- Node0x10111730 -->
<g id="node3" class="node"><title>Node0x10111730</title>
<polygon fill="none" stroke="black" points="183.5,-23.5 183.5,-59.5 237.5,-59.5 237.5,-23.5 183.5,-23.5"/>
<text text-anchor="start" x="191.5" y="-37.8" font-family="Times,serif" font-size="14.00">exit:</text>
</g>
<!-- Node0x10111790&#45;&gt;Node0x10111730 -->
<g id="edge2" class="edge"><title>Node0x10111790&#45;&gt;Node0x10111730</title>
<path fill="none" stroke="black" d="M210.5,-96.2686C210.5,-86.5147 210.5,-77.6453 210.5,-70.048"/>
<polygon fill="black" stroke="black" points="214,-69.8725 210.5,-59.8726 207,-69.8726 214,-69.8725"/>
</g>
</g>
</svg>
