<?xml version="1.0" encoding="UTF-8" standalone="no"?>
<!DOCTYPE svg PUBLIC "-//W3C//DTD SVG 1.1//EN"
 "http://www.w3.org/Graphics/SVG/1.1/DTD/svg11.dtd">
<!-- Generated by graphviz version 2.38.0 (20140413.2041)
 -->
<!-- Title: Control&#45;flow graph for function &#39;function_40dcf8()&#39;. Pages: 1 -->
<svg width="699pt" height="698pt"
 viewBox="0.00 0.00 699.00 698.00" xmlns="http://www.w3.org/2000/svg" xmlns:xlink="http://www.w3.org/1999/xlink">
<g id="graph0" class="graph" transform="scale(1 1) rotate(0) translate(4 694)">
<title>Control&#45;flow graph for function &#39;function_40dcf8()&#39;.</title>
<polygon fill="white" stroke="none" points="-4,4 -4,-694 695,-694 695,4 -4,4"/>
<text text-anchor="middle" x="345.5" y="-7.8" font-family="Times,serif" font-size="14.00">Control&#45;flow graph for function &#39;function_40dcf8()&#39;.</text>
<!-- Node0xf08b150 -->
<g id="node1" class="node"><title>Node0xf08b150</title>
<polygon fill="none" stroke="black" points="362.5,-653.5 362.5,-689.5 421.5,-689.5 421.5,-653.5 362.5,-653.5"/>
<text text-anchor="start" x="370.5" y="-667.8" font-family="Times,serif" font-size="14.00">entry:</text>
</g>
<!-- Node0xf08b950 -->
<g id="node2" class="node"><title>Node0xf08b950</title>
<polygon fill="none" stroke="black" points="93,-352.5 93,-615.5 691,-615.5 691,-352.5 93,-352.5"/>
<text text-anchor="start" x="101" y="-600.3" font-family="Times,serif" font-size="14.00">v1</text>
<text text-anchor="start" x="101" y="-585.3" font-family="Times,serif" font-size="14.00"> v2</text>
<text text-anchor="start" x="101" y="-570.3" font-family="Times,serif" font-size="14.00"> result</text>
<text text-anchor="start" x="101" y="-555.3" font-family="Times,serif" font-size="14.00"> v3</text>
<text text-anchor="start" x="101" y="-540.3" font-family="Times,serif" font-size="14.00"> v4</text>
<text text-anchor="start" x="101" y="-525.3" font-family="Times,serif" font-size="14.00"> v5</text>
<text text-anchor="start" x="101" y="-510.3" font-family="Times,serif" font-size="14.00"> v6</text>
<text text-anchor="start" x="101" y="-495.3" font-family="Times,serif" font-size="14.00"> v7</text>
<text text-anchor="start" x="101" y="-480.3" font-family="Times,serif" font-size="14.00"> v8</text>
<text text-anchor="start" x="101" y="-465.3" font-family="Times,serif" font-size="14.00"> v9</text>
<text text-anchor="start" x="101" y="-450.3" font-family="Times,serif" font-size="14.00"> v10</text>
<text text-anchor="start" x="101" y="-435.3" font-family="Times,serif" font-size="14.00"> v11</text>
<text text-anchor="start" x="101" y="-420.3" font-family="Times,serif" font-size="14.00"> hLibModule</text>
<text text-anchor="start" x="101" y="-405.3" font-family="Times,serif" font-size="14.00"> v10 = g5</text>
<text text-anchor="start" x="101" y="-390.3" font-family="Times,serif" font-size="14.00"> *(IntToPtrCastExpr&lt;ptr&gt;(v10)) = PtrToIntCastExpr&lt;int32&gt;(&amp;(vtable_456c30))</text>
<text text-anchor="start" x="101" y="-375.3" font-family="Times,serif" font-size="14.00"> v11 = g5</text>
<text text-anchor="start" x="101" y="-360.3" font-family="Times,serif" font-size="14.00"> hLibModule = *(IntToPtrCastExpr&lt;ptr&gt;((v11 + 4)))</text>
</g>
<!-- Node0xf08b150&#45;&gt;Node0xf08b950 -->
<g id="edge1" class="edge"><title>Node0xf08b150&#45;&gt;Node0xf08b950</title>
<path fill="none" stroke="black" d="M392,-653.381C392,-645.896 392,-636.378 392,-625.688"/>
<polygon fill="black" stroke="black" points="395.5,-625.565 392,-615.565 388.5,-625.566 395.5,-625.565"/>
</g>
<!-- Node0xf08b8f0 -->
<g id="node3" class="node"><title>Node0xf08b8f0</title>
<polygon fill="none" stroke="black" points="308,-278.5 308,-314.5 476,-314.5 476,-278.5 308,-278.5"/>
<text text-anchor="start" x="316" y="-292.8" font-family="Times,serif" font-size="14.00">if (hLibModule != 0):</text>
</g>
<!-- Node0xf08b950&#45;&gt;Node0xf08b8f0 -->
<g id="edge2" class="edge"><title>Node0xf08b950&#45;&gt;Node0xf08b8f0</title>
<path fill="none" stroke="black" d="M392,-352.403C392,-342.307 392,-332.933 392,-324.892"/>
<polygon fill="black" stroke="black" points="395.5,-324.809 392,-314.809 388.5,-324.81 395.5,-324.809"/>
</g>
<!-- Node0xf086cb0 -->
<g id="node4" class="node"><title>Node0xf086cb0</title>
<polygon fill="none" stroke="black" points="0,-173.5 0,-226.5 426,-226.5 426,-173.5 0,-173.5"/>
<text text-anchor="start" x="8" y="-211.3" font-family="Times,serif" font-size="14.00">0x40dd05:</text>
<text text-anchor="start" x="8" y="-196.3" font-family="Times,serif" font-size="14.00"> v2 = FreeLibrary(IntToPtrCastExpr&lt;ptr&gt;(hLibModule))</text>
<text text-anchor="start" x="8" y="-181.3" font-family="Times,serif" font-size="14.00"> result = v2</text>
</g>
<!-- Node0xf08b8f0&#45;&gt;Node0xf086cb0 -->
<g id="edge3" class="edge"><title>Node0xf08b8f0&#45;&gt;Node0xf086cb0</title>
<path fill="none" stroke="black" d="M359.584,-278.387C334.75,-265.276 299.852,-246.852 270.336,-231.27"/>
<polygon fill="black" stroke="black" points="271.844,-228.108 261.366,-226.534 268.576,-234.298 271.844,-228.108"/>
<text text-anchor="middle" x="385.5" y="-248.8" font-family="Times,serif" font-size="14.00">hLibModule != 0</text>
</g>
<!-- Node0xf08b9b0 -->
<g id="node5" class="node"><title>Node0xf08b9b0</title>
<polygon fill="none" stroke="black" points="336.5,-97.5 336.5,-135.5 449.5,-135.5 449.5,-97.5 336.5,-97.5"/>
<text text-anchor="start" x="344.5" y="-120.3" font-family="Times,serif" font-size="14.00">0x40dd0c:</text>
<text text-anchor="start" x="344.5" y="-105.3" font-family="Times,serif" font-size="14.00"> return result</text>
</g>
<!-- Node0xf08b8f0&#45;&gt;Node0xf08b9b0 -->
<g id="edge4" class="edge"><title>Node0xf08b8f0&#45;&gt;Node0xf08b9b0</title>
<path fill="none" stroke="black" d="M430.727,-278.301C437.656,-273.413 443.95,-267.363 448,-260 469.262,-221.346 439.664,-172.753 416.329,-143.462"/>
<polygon fill="black" stroke="black" points="419.022,-141.227 409.961,-135.737 413.621,-145.679 419.022,-141.227"/>
<text text-anchor="middle" x="520.5" y="-196.3" font-family="Times,serif" font-size="14.00">hLibModule == 0</text>
</g>
<!-- Node0xf086cb0&#45;&gt;Node0xf08b9b0 -->
<g id="edge5" class="edge"><title>Node0xf086cb0&#45;&gt;Node0xf08b9b0</title>
<path fill="none" stroke="black" d="M269.459,-173.437C293.291,-162.646 320.785,-150.197 343.777,-139.787"/>
<polygon fill="black" stroke="black" points="345.336,-142.923 353.002,-135.61 342.449,-136.546 345.336,-142.923"/>
</g>
<!-- Node0xf088b80 -->
<g id="node6" class="node"><title>Node0xf088b80</title>
<polygon fill="none" stroke="black" points="366,-23.5 366,-59.5 420,-59.5 420,-23.5 366,-23.5"/>
<text text-anchor="start" x="374" y="-37.8" font-family="Times,serif" font-size="14.00">exit:</text>
</g>
<!-- Node0xf08b9b0&#45;&gt;Node0xf088b80 -->
<g id="edge6" class="edge"><title>Node0xf08b9b0&#45;&gt;Node0xf088b80</title>
<path fill="none" stroke="black" d="M393,-97.4551C393,-89.2008 393,-79.2377 393,-70.0742"/>
<polygon fill="black" stroke="black" points="396.5,-69.8347 393,-59.8347 389.5,-69.8347 396.5,-69.8347"/>
</g>
</g>
</svg>
