<?xml version="1.0" encoding="UTF-8" standalone="no"?>
<!DOCTYPE svg PUBLIC "-//W3C//DTD SVG 1.1//EN"
 "http://www.w3.org/Graphics/SVG/1.1/DTD/svg11.dtd">
<!-- Generated by graphviz version 2.38.0 (20140413.2041)
 -->
<!-- Title: Control&#45;flow graph for function &#39;function_4143cb(*a1, *a2)&#39;. Pages: 1 -->
<svg width="487pt" height="1598pt"
 viewBox="0.00 0.00 486.50 1598.00" xmlns="http://www.w3.org/2000/svg" xmlns:xlink="http://www.w3.org/1999/xlink">
<g id="graph0" class="graph" transform="scale(1 1) rotate(0) translate(4 1594)">
<title>Control&#45;flow graph for function &#39;function_4143cb(*a1, *a2)&#39;.</title>
<polygon fill="white" stroke="none" points="-4,4 -4,-1594 482.5,-1594 482.5,4 -4,4"/>
<text text-anchor="middle" x="239.25" y="-7.8" font-family="Times,serif" font-size="14.00">Control&#45;flow graph for function &#39;function_4143cb(*a1, *a2)&#39;.</text>
<!-- Node0xf393c40 -->
<g id="node1" class="node"><title>Node0xf393c40</title>
<polygon fill="none" stroke="black" points="108.5,-1536.5 108.5,-1589.5 167.5,-1589.5 167.5,-1536.5 108.5,-1536.5"/>
<text text-anchor="start" x="116.5" y="-1574.3" font-family="Times,serif" font-size="14.00">entry:</text>
<text text-anchor="start" x="116.5" y="-1559.3" font-family="Times,serif" font-size="14.00"> a1</text>
<text text-anchor="start" x="116.5" y="-1544.3" font-family="Times,serif" font-size="14.00"> a2</text>
</g>
<!-- Node0xf394220 -->
<g id="node2" class="node"><title>Node0xf394220</title>
<polygon fill="none" stroke="black" points="0,-1130.5 0,-1498.5 276,-1498.5 276,-1130.5 0,-1130.5"/>
<text text-anchor="start" x="8" y="-1483.3" font-family="Times,serif" font-size="14.00">v1</text>
<text text-anchor="start" x="8" y="-1468.3" font-family="Times,serif" font-size="14.00"> result</text>
<text text-anchor="start" x="8" y="-1453.3" font-family="Times,serif" font-size="14.00"> v2</text>
<text text-anchor="start" x="8" y="-1438.3" font-family="Times,serif" font-size="14.00"> v3</text>
<text text-anchor="start" x="8" y="-1423.3" font-family="Times,serif" font-size="14.00"> v4</text>
<text text-anchor="start" x="8" y="-1408.3" font-family="Times,serif" font-size="14.00"> v5</text>
<text text-anchor="start" x="8" y="-1393.3" font-family="Times,serif" font-size="14.00"> v6</text>
<text text-anchor="start" x="8" y="-1378.3" font-family="Times,serif" font-size="14.00"> v7</text>
<text text-anchor="start" x="8" y="-1363.3" font-family="Times,serif" font-size="14.00"> v8</text>
<text text-anchor="start" x="8" y="-1348.3" font-family="Times,serif" font-size="14.00"> v9</text>
<text text-anchor="start" x="8" y="-1333.3" font-family="Times,serif" font-size="14.00"> v10</text>
<text text-anchor="start" x="8" y="-1318.3" font-family="Times,serif" font-size="14.00"> v11</text>
<text text-anchor="start" x="8" y="-1303.3" font-family="Times,serif" font-size="14.00"> v12</text>
<text text-anchor="start" x="8" y="-1288.3" font-family="Times,serif" font-size="14.00"> v13</text>
<text text-anchor="start" x="8" y="-1273.3" font-family="Times,serif" font-size="14.00"> v14</text>
<text text-anchor="start" x="8" y="-1258.3" font-family="Times,serif" font-size="14.00"> v15</text>
<text text-anchor="start" x="8" y="-1243.3" font-family="Times,serif" font-size="14.00"> v16</text>
<text text-anchor="start" x="8" y="-1228.3" font-family="Times,serif" font-size="14.00"> v17</text>
<text text-anchor="start" x="8" y="-1213.3" font-family="Times,serif" font-size="14.00"> hWnd</text>
<text text-anchor="start" x="8" y="-1198.3" font-family="Times,serif" font-size="14.00"> v18</text>
<text text-anchor="start" x="8" y="-1183.3" font-family="Times,serif" font-size="14.00"> v19</text>
<text text-anchor="start" x="8" y="-1168.3" font-family="Times,serif" font-size="14.00"> v20</text>
<text text-anchor="start" x="8" y="-1153.3" font-family="Times,serif" font-size="14.00"> v11 = v12</text>
<text text-anchor="start" x="8" y="-1138.3" font-family="Times,serif" font-size="14.00"> v3 = PtrToIntCastExpr&lt;int32&gt;(a2)</text>
</g>
<!-- Node0xf393c40&#45;&gt;Node0xf394220 -->
<g id="edge1" class="edge"><title>Node0xf393c40&#45;&gt;Node0xf394220</title>
<path fill="none" stroke="black" d="M138,-1536.09C138,-1528.26 138,-1519.01 138,-1508.79"/>
<polygon fill="black" stroke="black" points="141.5,-1508.71 138,-1498.71 134.5,-1508.71 141.5,-1508.71"/>
</g>
<!-- Node0xf393f60 -->
<g id="node3" class="node"><title>Node0xf393f60</title>
<polygon fill="none" stroke="black" points="68,-1056.5 68,-1092.5 208,-1092.5 208,-1056.5 68,-1056.5"/>
<text text-anchor="start" x="76" y="-1070.8" font-family="Times,serif" font-size="14.00">if (a2 == NULL):</text>
</g>
<!-- Node0xf394220&#45;&gt;Node0xf393f60 -->
<g id="edge2" class="edge"><title>Node0xf394220&#45;&gt;Node0xf393f60</title>
<path fill="none" stroke="black" d="M138,-1130.4C138,-1120.27 138,-1111.02 138,-1103.12"/>
<polygon fill="black" stroke="black" points="141.5,-1102.9 138,-1092.9 134.5,-1102.9 141.5,-1102.9"/>
</g>
<!-- Node0xf397b80 -->
<g id="node4" class="node"><title>Node0xf397b80</title>
<polygon fill="none" stroke="black" points="9.5,-849.5 9.5,-917.5 122.5,-917.5 122.5,-849.5 9.5,-849.5"/>
<text text-anchor="start" x="17.5" y="-902.3" font-family="Times,serif" font-size="14.00">v18 = v12</text>
<text text-anchor="start" x="17.5" y="-887.3" font-family="Times,serif" font-size="14.00"> result = v3</text>
<text text-anchor="start" x="17.5" y="-872.3" font-family="Times,serif" font-size="14.00"> g9 = v18</text>
<text text-anchor="start" x="17.5" y="-857.3" font-family="Times,serif" font-size="14.00"> return result</text>
</g>
<!-- Node0xf393f60&#45;&gt;Node0xf397b80 -->
<g id="edge3" class="edge"><title>Node0xf393f60&#45;&gt;Node0xf397b80</title>
<path fill="none" stroke="black" d="M93.9257,-1056.32C86.4733,-1051.49 79.654,-1045.45 75,-1038 54.5893,-1005.31 54.3379,-960.668 57.9993,-927.955"/>
<polygon fill="black" stroke="black" points="61.5033,-928.148 59.305,-917.783 54.5602,-927.256 61.5033,-928.148"/>
<text text-anchor="middle" x="122" y="-1026.8" font-family="Times,serif" font-size="14.00">a2 == NULL</text>
</g>
<!-- Node0xdfeeba0 -->
<g id="node5" class="node"><title>Node0xdfeeba0</title>
<polygon fill="none" stroke="black" points="94.5,-936.5 94.5,-1004.5 379.5,-1004.5 379.5,-936.5 94.5,-936.5"/>
<text text-anchor="start" x="102.5" y="-989.3" font-family="Times,serif" font-size="14.00">0x4143d2:</text>
<text text-anchor="start" x="102.5" y="-974.3" font-family="Times,serif" font-size="14.00"> v20 = PtrToIntCastExpr&lt;int32&gt;(a1)</text>
<text text-anchor="start" x="102.5" y="-959.3" font-family="Times,serif" font-size="14.00"> v4 = v3</text>
<text text-anchor="start" x="102.5" y="-944.3" font-family="Times,serif" font-size="14.00"> hWnd = a2</text>
</g>
<!-- Node0xf393f60&#45;&gt;Node0xdfeeba0 -->
<g id="edge4" class="edge"><title>Node0xf393f60&#45;&gt;Node0xdfeeba0</title>
<path fill="none" stroke="black" d="M154.794,-1056.2C166.551,-1044.08 182.764,-1027.38 197.687,-1012"/>
<polygon fill="black" stroke="black" points="200.43,-1014.2 204.883,-1004.59 195.407,-1009.33 200.43,-1014.2"/>
<text text-anchor="middle" x="229" y="-1026.8" font-family="Times,serif" font-size="14.00">a2 != NULL</text>
</g>
<!-- Node0xf3941c0 -->
<g id="node6" class="node"><title>Node0xf3941c0</title>
<polygon fill="none" stroke="black" points="235,-23.5 235,-59.5 289,-59.5 289,-23.5 235,-23.5"/>
<text text-anchor="start" x="243" y="-37.8" font-family="Times,serif" font-size="14.00">exit:</text>
</g>
<!-- Node0xf397b80&#45;&gt;Node0xf3941c0 -->
<g id="edge5" class="edge"><title>Node0xf397b80&#45;&gt;Node0xf3941c0</title>
<path fill="none" stroke="black" d="M66,-849.372C66,-826.849 66,-796.377 66,-769.5 66,-769.5 66,-769.5 66,-145.5 66,-74.5717 167.822,-52.38 224.687,-45.517"/>
<polygon fill="black" stroke="black" points="225.192,-48.9826 234.747,-44.4056 224.423,-42.0249 225.192,-48.9826"/>
</g>
<!-- Node0xf397940 -->
<g id="node7" class="node"><title>Node0xf397940</title>
<polygon fill="none" stroke="black" points="188.5,-794.5 188.5,-830.5 285.5,-830.5 285.5,-794.5 188.5,-794.5"/>
<text text-anchor="start" x="196.5" y="-808.8" font-family="Times,serif" font-size="14.00">while True:</text>
</g>
<!-- Node0xdfeeba0&#45;&gt;Node0xf397940 -->
<g id="edge6" class="edge"><title>Node0xdfeeba0&#45;&gt;Node0xf397940</title>
<path fill="none" stroke="black" d="M237,-936.416C237,-907.96 237,-867.405 237,-840.777"/>
<polygon fill="black" stroke="black" points="240.5,-840.632 237,-830.632 233.5,-840.632 240.5,-840.632"/>
</g>
<!-- Node0xf397c00 -->
<g id="node8" class="node"><title>Node0xf397c00</title>
<polygon fill="none" stroke="black" points="153,-689.5 153,-742.5 361,-742.5 361,-689.5 153,-689.5"/>
<text text-anchor="start" x="161" y="-727.3" font-family="Times,serif" font-size="14.00">0x4143d2:</text>
<text text-anchor="start" x="161" y="-712.3" font-family="Times,serif" font-size="14.00"> v5 = GetDlgCtrlID(hWnd)</text>
<text text-anchor="start" x="161" y="-697.3" font-family="Times,serif" font-size="14.00"> v2 = v4</text>
</g>
<!-- Node0xf397940&#45;&gt;Node0xf397c00 -->
<g id="edge7" class="edge"><title>Node0xf397940&#45;&gt;Node0xf397c00</title>
<path fill="none" stroke="black" d="M240.668,-794.167C243.118,-782.59 246.43,-766.943 249.431,-752.765"/>
<polygon fill="black" stroke="black" points="252.898,-753.288 251.544,-742.78 246.049,-751.838 252.898,-753.288"/>
<text text-anchor="middle" x="265" y="-764.8" font-family="Times,serif" font-size="14.00">True</text>
</g>
<!-- Node0xf397890 -->
<g id="node9" class="node"><title>Node0xf397890</title>
<polygon fill="none" stroke="black" points="212,-615.5 212,-651.5 328,-651.5 328,-615.5 212,-615.5"/>
<text text-anchor="start" x="220" y="-629.8" font-family="Times,serif" font-size="14.00">if (v5 != v20):</text>
</g>
<!-- Node0xf397c00&#45;&gt;Node0xf397890 -->
<g id="edge8" class="edge"><title>Node0xf397c00&#45;&gt;Node0xf397890</title>
<path fill="none" stroke="black" d="M261.185,-689.086C262.578,-680.46 264.134,-670.822 265.547,-662.075"/>
<polygon fill="black" stroke="black" points="269.039,-662.404 267.178,-651.974 262.129,-661.288 269.039,-662.404"/>
</g>
<!-- Node0xf3977a0 -->
<g id="node10" class="node"><title>Node0xf3977a0</title>
<polygon fill="none" stroke="black" points="132,-510.5 132,-563.5 408,-563.5 408,-510.5 132,-510.5"/>
<text text-anchor="start" x="140" y="-548.3" font-family="Times,serif" font-size="14.00">0x4143df:</text>
<text text-anchor="start" x="140" y="-533.3" font-family="Times,serif" font-size="14.00"> v6 = GetWindow(hWnd, 2)</text>
<text text-anchor="start" x="140" y="-518.3" font-family="Times,serif" font-size="14.00"> v1 = PtrToIntCastExpr&lt;int32&gt;(v6)</text>
</g>
<!-- Node0xf397890&#45;&gt;Node0xf3977a0 -->
<g id="edge9" class="edge"><title>Node0xf397890&#45;&gt;Node0xf3977a0</title>
<path fill="none" stroke="black" d="M270,-615.167C270,-603.703 270,-588.247 270,-574.178"/>
<polygon fill="black" stroke="black" points="273.5,-573.78 270,-563.78 266.5,-573.78 273.5,-573.78"/>
<text text-anchor="middle" x="305.5" y="-585.8" font-family="Times,serif" font-size="14.00">v5 != v20</text>
</g>
<!-- Node0xf397e20 -->
<g id="node11" class="node"><title>Node0xf397e20</title>
<polygon fill="none" stroke="black" points="365.5,-393.5 365.5,-491.5 478.5,-491.5 478.5,-393.5 365.5,-393.5"/>
<text text-anchor="start" x="373.5" y="-476.3" font-family="Times,serif" font-size="14.00">0x4143ee:</text>
<text text-anchor="start" x="373.5" y="-461.3" font-family="Times,serif" font-size="14.00"> v19 = v11</text>
<text text-anchor="start" x="373.5" y="-446.3" font-family="Times,serif" font-size="14.00"> v18 = v19</text>
<text text-anchor="start" x="373.5" y="-431.3" font-family="Times,serif" font-size="14.00"> result = v2</text>
<text text-anchor="start" x="373.5" y="-416.3" font-family="Times,serif" font-size="14.00"> g9 = v18</text>
<text text-anchor="start" x="373.5" y="-401.3" font-family="Times,serif" font-size="14.00"> return result</text>
</g>
<!-- Node0xf397890&#45;&gt;Node0xf397e20 -->
<g id="edge10" class="edge"><title>Node0xf397890&#45;&gt;Node0xf397e20</title>
<path fill="none" stroke="black" d="M328.133,-620.851C359.969,-611.243 396.928,-594.102 417,-564 428.979,-546.035 432.118,-522.99 431.596,-501.873"/>
<polygon fill="black" stroke="black" points="435.081,-501.497 431.068,-491.692 428.091,-501.859 435.081,-501.497"/>
<text text-anchor="middle" x="438.5" y="-585.8" font-family="Times,serif" font-size="14.00">v5 == v20</text>
</g>
<!-- Node0xf397820 -->
<g id="node12" class="node"><title>Node0xf397820</title>
<polygon fill="none" stroke="black" points="192,-338.5 192,-374.5 332,-374.5 332,-338.5 192,-338.5"/>
<text text-anchor="start" x="200" y="-352.8" font-family="Times,serif" font-size="14.00">if (v6 == NULL):</text>
</g>
<!-- Node0xf3977a0&#45;&gt;Node0xf397820 -->
<g id="edge11" class="edge"><title>Node0xf3977a0&#45;&gt;Node0xf397820</title>
<path fill="none" stroke="black" d="M268.854,-510.425C267.361,-477.11 264.761,-419.094 263.228,-384.903"/>
<polygon fill="black" stroke="black" points="266.715,-384.533 262.771,-374.7 259.722,-384.847 266.715,-384.533"/>
</g>
<!-- Node0xf397e20&#45;&gt;Node0xf3941c0 -->
<g id="edge12" class="edge"><title>Node0xf397e20&#45;&gt;Node0xf3941c0</title>
<path fill="none" stroke="black" d="M402.352,-393.412C394.373,-369.756 387,-340.57 387,-313.5 387,-313.5 387,-313.5 387,-145.5 387,-99.2948 335.502,-69.9697 298.615,-54.8913"/>
<polygon fill="black" stroke="black" points="299.711,-51.5622 289.123,-51.1884 297.167,-58.0835 299.711,-51.5622"/>
</g>
<!-- Node0xf398080 -->
<g id="node13" class="node"><title>Node0xf398080</title>
<polygon fill="none" stroke="black" points="226,-241 226,-279 298,-279 298,-241 226,-241"/>
<text text-anchor="start" x="234" y="-263.8" font-family="Times,serif" font-size="14.00">v2 = v1</text>
<text text-anchor="start" x="234" y="-248.8" font-family="Times,serif" font-size="14.00"> break</text>
</g>
<!-- Node0xf397820&#45;&gt;Node0xf398080 -->
<g id="edge13" class="edge"><title>Node0xf397820&#45;&gt;Node0xf398080</title>
<path fill="none" stroke="black" d="M262,-338.167C262,-324.573 262,-305.367 262,-289.516"/>
<polygon fill="black" stroke="black" points="265.5,-289.189 262,-279.189 258.5,-289.189 265.5,-289.189"/>
<text text-anchor="middle" x="309" y="-308.8" font-family="Times,serif" font-size="14.00">v6 == NULL</text>
</g>
<!-- Node0xf398020 -->
<g id="node14" class="node"><title>Node0xf398020</title>
<polygon fill="none" stroke="black" points="95.5,-233.5 95.5,-286.5 196.5,-286.5 196.5,-233.5 95.5,-233.5"/>
<text text-anchor="start" x="103.5" y="-271.3" font-family="Times,serif" font-size="14.00">v4 = v1</text>
<text text-anchor="start" x="103.5" y="-256.3" font-family="Times,serif" font-size="14.00"> hWnd = v6</text>
<text text-anchor="start" x="103.5" y="-241.3" font-family="Times,serif" font-size="14.00"> continue</text>
</g>
<!-- Node0xf397820&#45;&gt;Node0xf398020 -->
<g id="edge14" class="edge"><title>Node0xf397820&#45;&gt;Node0xf398020</title>
<path fill="none" stroke="black" d="M197.094,-338.278C187.175,-333.545 177.695,-327.557 170,-320 163.351,-313.47 158.478,-304.844 154.933,-296.211"/>
<polygon fill="black" stroke="black" points="158.146,-294.8 151.471,-286.572 151.558,-297.167 158.146,-294.8"/>
<text text-anchor="middle" x="214" y="-308.8" font-family="Times,serif" font-size="14.00">v6 != NULL</text>
</g>
<!-- Node0xf3979c0 -->
<g id="node15" class="node"><title>Node0xf3979c0</title>
<polygon fill="none" stroke="black" points="205.5,-97.5 205.5,-195.5 318.5,-195.5 318.5,-97.5 205.5,-97.5"/>
<text text-anchor="start" x="213.5" y="-180.3" font-family="Times,serif" font-size="14.00">0x4143ee:</text>
<text text-anchor="start" x="213.5" y="-165.3" font-family="Times,serif" font-size="14.00"> v19 = v11</text>
<text text-anchor="start" x="213.5" y="-150.3" font-family="Times,serif" font-size="14.00"> v18 = v19</text>
<text text-anchor="start" x="213.5" y="-135.3" font-family="Times,serif" font-size="14.00"> result = v2</text>
<text text-anchor="start" x="213.5" y="-120.3" font-family="Times,serif" font-size="14.00"> g9 = v18</text>
<text text-anchor="start" x="213.5" y="-105.3" font-family="Times,serif" font-size="14.00"> return result</text>
</g>
<!-- Node0xf398080&#45;&gt;Node0xf3979c0 -->
<g id="edge15" class="edge"><title>Node0xf398080&#45;&gt;Node0xf3979c0</title>
<path fill="none" stroke="black" d="M262,-240.588C262,-230.924 262,-218.491 262,-205.877"/>
<polygon fill="black" stroke="black" points="265.5,-205.772 262,-195.772 258.5,-205.772 265.5,-205.772"/>
</g>
<!-- Node0xf398020&#45;&gt;Node0xf397940 -->
<g id="edge16" class="edge"><title>Node0xf398020&#45;&gt;Node0xf397940</title>
<path fill="none" stroke="black" d="M127.7,-286.536C116.382,-304.829 104,-330.544 104,-355.5 104,-717 104,-717 104,-717 104,-756.263 142.993,-780.712 178.752,-794.879"/>
<polygon fill="black" stroke="black" points="177.639,-798.2 188.231,-798.434 180.097,-791.646 177.639,-798.2"/>
</g>
<!-- Node0xf3979c0&#45;&gt;Node0xf3941c0 -->
<g id="edge17" class="edge"><title>Node0xf3979c0&#45;&gt;Node0xf3941c0</title>
<path fill="none" stroke="black" d="M262,-97.3173C262,-87.893 262,-78.32 262,-69.8676"/>
<polygon fill="black" stroke="black" points="265.5,-69.856 262,-59.8561 258.5,-69.8561 265.5,-69.856"/>
</g>
</g>
</svg>
