<?xml version="1.0" encoding="UTF-8" standalone="no"?>
<!DOCTYPE svg PUBLIC "-//W3C//DTD SVG 1.1//EN"
 "http://www.w3.org/Graphics/SVG/1.1/DTD/svg11.dtd">
<!-- Generated by graphviz version 2.38.0 (20140413.2041)
 -->
<!-- Title: Control&#45;flow graph for function &#39;function_40a160(*a1, *a2)&#39;. Pages: 1 -->
<svg width="890pt" height="984pt"
 viewBox="0.00 0.00 889.50 984.00" xmlns="http://www.w3.org/2000/svg" xmlns:xlink="http://www.w3.org/1999/xlink">
<g id="graph0" class="graph" transform="scale(1 1) rotate(0) translate(4 980)">
<title>Control&#45;flow graph for function &#39;function_40a160(*a1, *a2)&#39;.</title>
<polygon fill="white" stroke="none" points="-4,4 -4,-980 885.5,-980 885.5,4 -4,4"/>
<text text-anchor="middle" x="440.75" y="-7.8" font-family="Times,serif" font-size="14.00">Control&#45;flow graph for function &#39;function_40a160(*a1, *a2)&#39;.</text>
<!-- Node0xef71700 -->
<g id="node1" class="node"><title>Node0xef71700</title>
<polygon fill="none" stroke="black" points="408,-922.5 408,-975.5 467,-975.5 467,-922.5 408,-922.5"/>
<text text-anchor="start" x="416" y="-960.3" font-family="Times,serif" font-size="14.00">entry:</text>
<text text-anchor="start" x="416" y="-945.3" font-family="Times,serif" font-size="14.00"> a1</text>
<text text-anchor="start" x="416" y="-930.3" font-family="Times,serif" font-size="14.00"> a2</text>
</g>
<!-- Node0xef6fe90 -->
<g id="node2" class="node"><title>Node0xef6fe90</title>
<polygon fill="none" stroke="black" points="295,-426.5 295,-884.5 580,-884.5 580,-426.5 295,-426.5"/>
<text text-anchor="start" x="303" y="-869.3" font-family="Times,serif" font-size="14.00">v1</text>
<text text-anchor="start" x="303" y="-854.3" font-family="Times,serif" font-size="14.00"> v2</text>
<text text-anchor="start" x="303" y="-839.3" font-family="Times,serif" font-size="14.00"> v3</text>
<text text-anchor="start" x="303" y="-824.3" font-family="Times,serif" font-size="14.00"> result</text>
<text text-anchor="start" x="303" y="-809.3" font-family="Times,serif" font-size="14.00"> result2</text>
<text text-anchor="start" x="303" y="-794.3" font-family="Times,serif" font-size="14.00"> v4</text>
<text text-anchor="start" x="303" y="-779.3" font-family="Times,serif" font-size="14.00"> v5</text>
<text text-anchor="start" x="303" y="-764.3" font-family="Times,serif" font-size="14.00"> v6</text>
<text text-anchor="start" x="303" y="-749.3" font-family="Times,serif" font-size="14.00"> v7</text>
<text text-anchor="start" x="303" y="-734.3" font-family="Times,serif" font-size="14.00"> v8</text>
<text text-anchor="start" x="303" y="-719.3" font-family="Times,serif" font-size="14.00"> v9</text>
<text text-anchor="start" x="303" y="-704.3" font-family="Times,serif" font-size="14.00"> v10</text>
<text text-anchor="start" x="303" y="-689.3" font-family="Times,serif" font-size="14.00"> v11</text>
<text text-anchor="start" x="303" y="-674.3" font-family="Times,serif" font-size="14.00"> v12</text>
<text text-anchor="start" x="303" y="-659.3" font-family="Times,serif" font-size="14.00"> v13</text>
<text text-anchor="start" x="303" y="-644.3" font-family="Times,serif" font-size="14.00"> v14</text>
<text text-anchor="start" x="303" y="-629.3" font-family="Times,serif" font-size="14.00"> v15</text>
<text text-anchor="start" x="303" y="-614.3" font-family="Times,serif" font-size="14.00"> v16</text>
<text text-anchor="start" x="303" y="-599.3" font-family="Times,serif" font-size="14.00"> v17</text>
<text text-anchor="start" x="303" y="-584.3" font-family="Times,serif" font-size="14.00"> v18</text>
<text text-anchor="start" x="303" y="-569.3" font-family="Times,serif" font-size="14.00"> v19</text>
<text text-anchor="start" x="303" y="-554.3" font-family="Times,serif" font-size="14.00"> v7 = v8</text>
<text text-anchor="start" x="303" y="-539.3" font-family="Times,serif" font-size="14.00"> v9 = v10</text>
<text text-anchor="start" x="303" y="-524.3" font-family="Times,serif" font-size="14.00"> v9 = a1</text>
<text text-anchor="start" x="303" y="-509.3" font-family="Times,serif" font-size="14.00"> v18 = PtrToIntCastExpr&lt;int32&gt;(a1)</text>
<text text-anchor="start" x="303" y="-494.3" font-family="Times,serif" font-size="14.00"> g2 = v18</text>
<text text-anchor="start" x="303" y="-479.3" font-family="Times,serif" font-size="14.00"> v12 = g9</text>
<text text-anchor="start" x="303" y="-464.3" font-family="Times,serif" font-size="14.00"> v5 = v12</text>
<text text-anchor="start" x="303" y="-449.3" font-family="Times,serif" font-size="14.00"> v13 = g5</text>
<text text-anchor="start" x="303" y="-434.3" font-family="Times,serif" font-size="14.00"> g9 = v13</text>
</g>
<!-- Node0xef71700&#45;&gt;Node0xef6fe90 -->
<g id="edge1" class="edge"><title>Node0xef71700&#45;&gt;Node0xef6fe90</title>
<path fill="none" stroke="black" d="M437.5,-922.387C437.5,-914.596 437.5,-905.322 437.5,-894.983"/>
<polygon fill="black" stroke="black" points="441,-894.759 437.5,-884.759 434,-894.759 441,-894.759"/>
</g>
<!-- Node0xef716a0 -->
<g id="node3" class="node"><title>Node0xef716a0</title>
<polygon fill="none" stroke="black" points="367.5,-352.5 367.5,-388.5 507.5,-388.5 507.5,-352.5 367.5,-352.5"/>
<text text-anchor="start" x="375.5" y="-366.8" font-family="Times,serif" font-size="14.00">if (a1 == NULL):</text>
</g>
<!-- Node0xef6fe90&#45;&gt;Node0xef716a0 -->
<g id="edge2" class="edge"><title>Node0xef6fe90&#45;&gt;Node0xef716a0</title>
<path fill="none" stroke="black" d="M437.5,-426.401C437.5,-416.091 437.5,-406.778 437.5,-398.873"/>
<polygon fill="black" stroke="black" points="441,-398.678 437.5,-388.678 434,-398.678 441,-398.678"/>
</g>
<!-- Node0xef70660 -->
<g id="node4" class="node"><title>Node0xef70660</title>
<polygon fill="none" stroke="black" points="0,-120 0,-278 427,-278 427,-120 0,-120"/>
<text text-anchor="start" x="8" y="-262.8" font-family="Times,serif" font-size="14.00">0x40a16b:</text>
<text text-anchor="start" x="8" y="-247.8" font-family="Times,serif" font-size="14.00"> v7 = NULL</text>
<text text-anchor="start" x="8" y="-232.8" font-family="Times,serif" font-size="14.00"> v2 = CreateCompatibleDC(NULL)</text>
<text text-anchor="start" x="8" y="-217.8" font-family="Times,serif" font-size="14.00"> v7 = BitCastExpr&lt;ptr&gt;(v2)</text>
<text text-anchor="start" x="8" y="-202.8" font-family="Times,serif" font-size="14.00"> v14 = g9</text>
<text text-anchor="start" x="8" y="-187.8" font-family="Times,serif" font-size="14.00"> g5 = v14</text>
<text text-anchor="start" x="8" y="-172.8" font-family="Times,serif" font-size="14.00"> result = function_41333d(BitCastExpr&lt;ptr&gt;(v2), &amp;(v5))</text>
<text text-anchor="start" x="8" y="-157.8" font-family="Times,serif" font-size="14.00"> v16 = v7</text>
<text text-anchor="start" x="8" y="-142.8" font-family="Times,serif" font-size="14.00"> g9 = PtrToIntCastExpr&lt;int32&gt;(v16)</text>
<text text-anchor="start" x="8" y="-127.8" font-family="Times,serif" font-size="14.00"> return result</text>
</g>
<!-- Node0xef716a0&#45;&gt;Node0xef70660 -->
<g id="edge3" class="edge"><title>Node0xef716a0&#45;&gt;Node0xef70660</title>
<path fill="none" stroke="black" d="M414.789,-352.315C393.165,-335.952 358.941,-310.054 324.803,-284.222"/>
<polygon fill="black" stroke="black" points="326.687,-281.259 316.6,-278.016 322.463,-286.841 326.687,-281.259"/>
<text text-anchor="middle" x="436.5" y="-322.8" font-family="Times,serif" font-size="14.00">a1 == NULL</text>
</g>
<!-- Node0xef70a00 -->
<g id="node5" class="node"><title>Node0xef70a00</title>
<polygon fill="none" stroke="black" points="445.5,-97.5 445.5,-300.5 881.5,-300.5 881.5,-97.5 445.5,-97.5"/>
<text text-anchor="start" x="453.5" y="-285.3" font-family="Times,serif" font-size="14.00">0x40a17e:</text>
<text text-anchor="start" x="453.5" y="-270.3" font-family="Times,serif" font-size="14.00"> v19 = *(IntToPtrCastExpr&lt;ptr&gt;((v18 + 4)))</text>
<text text-anchor="start" x="453.5" y="-255.3" font-family="Times,serif" font-size="14.00"> g2 = v19</text>
<text text-anchor="start" x="453.5" y="-240.3" font-family="Times,serif" font-size="14.00"> v1 = IntToPtrCastExpr&lt;ptr&gt;(v19)</text>
<text text-anchor="start" x="453.5" y="-225.3" font-family="Times,serif" font-size="14.00"> v7 = v1</text>
<text text-anchor="start" x="453.5" y="-210.3" font-family="Times,serif" font-size="14.00"> v3 = CreateCompatibleDC(&amp;(v1[&#39;0&#39;]))</text>
<text text-anchor="start" x="453.5" y="-195.3" font-family="Times,serif" font-size="14.00"> v7 = BitCastExpr&lt;ptr&gt;(v3)</text>
<text text-anchor="start" x="453.5" y="-180.3" font-family="Times,serif" font-size="14.00"> v15 = g9</text>
<text text-anchor="start" x="453.5" y="-165.3" font-family="Times,serif" font-size="14.00"> g5 = v15</text>
<text text-anchor="start" x="453.5" y="-150.3" font-family="Times,serif" font-size="14.00"> result2 = function_41333d(BitCastExpr&lt;ptr&gt;(v3), &amp;(v5))</text>
<text text-anchor="start" x="453.5" y="-135.3" font-family="Times,serif" font-size="14.00"> v17 = v7</text>
<text text-anchor="start" x="453.5" y="-120.3" font-family="Times,serif" font-size="14.00"> g9 = PtrToIntCastExpr&lt;int32&gt;(v17)</text>
<text text-anchor="start" x="453.5" y="-105.3" font-family="Times,serif" font-size="14.00"> return result2</text>
</g>
<!-- Node0xef716a0&#45;&gt;Node0xef70a00 -->
<g id="edge4" class="edge"><title>Node0xef716a0&#45;&gt;Node0xef70a00</title>
<path fill="none" stroke="black" d="M462.031,-352.328C470.177,-346.561 479.266,-340.055 487.5,-334 499.428,-325.228 511.756,-316.059 524.092,-306.812"/>
<polygon fill="black" stroke="black" points="526.3,-309.53 532.195,-300.727 522.097,-303.933 526.3,-309.53"/>
<text text-anchor="middle" x="551.5" y="-322.8" font-family="Times,serif" font-size="14.00">a1 != NULL</text>
</g>
<!-- Node0xef6fe30 -->
<g id="node6" class="node"><title>Node0xef6fe30</title>
<polygon fill="none" stroke="black" points="463.5,-23.5 463.5,-59.5 517.5,-59.5 517.5,-23.5 463.5,-23.5"/>
<text text-anchor="start" x="471.5" y="-37.8" font-family="Times,serif" font-size="14.00">exit:</text>
</g>
<!-- Node0xef70660&#45;&gt;Node0xef6fe30 -->
<g id="edge5" class="edge"><title>Node0xef70660&#45;&gt;Node0xef6fe30</title>
<path fill="none" stroke="black" d="M352.812,-119.794C390.533,-98.6189 428.173,-77.4885 454.541,-62.6863"/>
<polygon fill="black" stroke="black" points="456.373,-65.672 463.379,-57.7248 452.946,-59.568 456.373,-65.672"/>
</g>
<!-- Node0xef70a00&#45;&gt;Node0xef6fe30 -->
<g id="edge6" class="edge"><title>Node0xef70a00&#45;&gt;Node0xef6fe30</title>
<path fill="none" stroke="black" d="M551.493,-97.3235C538.782,-85.8976 526.877,-75.1972 517.019,-66.3368"/>
<polygon fill="black" stroke="black" points="519.353,-63.7285 509.576,-59.6466 514.674,-68.9346 519.353,-63.7285"/>
</g>
</g>
</svg>
