<?xml version="1.0" encoding="UTF-8" standalone="no"?>
<!DOCTYPE svg PUBLIC "-//W3C//DTD SVG 1.1//EN"
 "http://www.w3.org/Graphics/SVG/1.1/DTD/svg11.dtd">
<!-- Generated by graphviz version 2.38.0 (20140413.2041)
 -->
<!-- Title: Control&#45;flow graph for function &#39;function_42a3b0(a1, a2, a3, a4)&#39;. Pages: 1 -->
<svg width="703pt" height="1266pt"
 viewBox="0.00 0.00 702.50 1266.00" xmlns="http://www.w3.org/2000/svg" xmlns:xlink="http://www.w3.org/1999/xlink">
<g id="graph0" class="graph" transform="scale(1 1) rotate(0) translate(4 1262)">
<title>Control&#45;flow graph for function &#39;function_42a3b0(a1, a2, a3, a4)&#39;.</title>
<polygon fill="white" stroke="none" points="-4,4 -4,-1262 698.5,-1262 698.5,4 -4,4"/>
<text text-anchor="middle" x="347.25" y="-7.8" font-family="Times,serif" font-size="14.00">Control&#45;flow graph for function &#39;function_42a3b0(a1, a2, a3, a4)&#39;.</text>
<!-- Node0xff2a8c0 -->
<g id="node1" class="node"><title>Node0xff2a8c0</title>
<polygon fill="none" stroke="black" points="515,-1174.5 515,-1257.5 574,-1257.5 574,-1174.5 515,-1174.5"/>
<text text-anchor="start" x="523" y="-1242.3" font-family="Times,serif" font-size="14.00">entry:</text>
<text text-anchor="start" x="523" y="-1227.3" font-family="Times,serif" font-size="14.00"> a1</text>
<text text-anchor="start" x="523" y="-1212.3" font-family="Times,serif" font-size="14.00"> a2</text>
<text text-anchor="start" x="523" y="-1197.3" font-family="Times,serif" font-size="14.00"> a3</text>
<text text-anchor="start" x="523" y="-1182.3" font-family="Times,serif" font-size="14.00"> a4</text>
</g>
<!-- Node0xcd5eac0 -->
<g id="node2" class="node"><title>Node0xcd5eac0</title>
<polygon fill="none" stroke="black" points="394.5,-828.5 394.5,-1136.5 694.5,-1136.5 694.5,-828.5 394.5,-828.5"/>
<text text-anchor="start" x="402.5" y="-1121.3" font-family="Times,serif" font-size="14.00">v1</text>
<text text-anchor="start" x="402.5" y="-1106.3" font-family="Times,serif" font-size="14.00"> v2</text>
<text text-anchor="start" x="402.5" y="-1091.3" font-family="Times,serif" font-size="14.00"> v3</text>
<text text-anchor="start" x="402.5" y="-1076.3" font-family="Times,serif" font-size="14.00"> v4</text>
<text text-anchor="start" x="402.5" y="-1061.3" font-family="Times,serif" font-size="14.00"> v5</text>
<text text-anchor="start" x="402.5" y="-1046.3" font-family="Times,serif" font-size="14.00"> v6</text>
<text text-anchor="start" x="402.5" y="-1031.3" font-family="Times,serif" font-size="14.00"> v7</text>
<text text-anchor="start" x="402.5" y="-1016.3" font-family="Times,serif" font-size="14.00"> v8</text>
<text text-anchor="start" x="402.5" y="-1001.3" font-family="Times,serif" font-size="14.00"> v9</text>
<text text-anchor="start" x="402.5" y="-986.3" font-family="Times,serif" font-size="14.00"> v10</text>
<text text-anchor="start" x="402.5" y="-971.3" font-family="Times,serif" font-size="14.00"> v11</text>
<text text-anchor="start" x="402.5" y="-956.3" font-family="Times,serif" font-size="14.00"> v12</text>
<text text-anchor="start" x="402.5" y="-941.3" font-family="Times,serif" font-size="14.00"> v13</text>
<text text-anchor="start" x="402.5" y="-926.3" font-family="Times,serif" font-size="14.00"> v14</text>
<text text-anchor="start" x="402.5" y="-911.3" font-family="Times,serif" font-size="14.00"> v15</text>
<text text-anchor="start" x="402.5" y="-896.3" font-family="Times,serif" font-size="14.00"> v16</text>
<text text-anchor="start" x="402.5" y="-881.3" font-family="Times,serif" font-size="14.00"> v14 = g3</text>
<text text-anchor="start" x="402.5" y="-866.3" font-family="Times,serif" font-size="14.00"> v5 = v14</text>
<text text-anchor="start" x="402.5" y="-851.3" font-family="Times,serif" font-size="14.00"> g3 = PtrToIntCastExpr&lt;int32&gt;(&amp;(v5))</text>
<text text-anchor="start" x="402.5" y="-836.3" font-family="Times,serif" font-size="14.00"> v15 = v14</text>
</g>
<!-- Node0xff2a8c0&#45;&gt;Node0xcd5eac0 -->
<g id="edge1" class="edge"><title>Node0xff2a8c0&#45;&gt;Node0xcd5eac0</title>
<path fill="none" stroke="black" d="M544.5,-1174.41C544.5,-1166.05 544.5,-1156.76 544.5,-1146.92"/>
<polygon fill="black" stroke="black" points="548,-1146.9 544.5,-1136.9 541,-1146.9 548,-1146.9"/>
</g>
<!-- Node0xff14fe0 -->
<g id="node3" class="node"><title>Node0xff14fe0</title>
<polygon fill="none" stroke="black" points="495,-754.5 495,-790.5 594,-790.5 594,-754.5 495,-754.5"/>
<text text-anchor="start" x="503" y="-768.8" font-family="Times,serif" font-size="14.00">if (a3 != 0):</text>
</g>
<!-- Node0xcd5eac0&#45;&gt;Node0xff14fe0 -->
<g id="edge2" class="edge"><title>Node0xcd5eac0&#45;&gt;Node0xff14fe0</title>
<path fill="none" stroke="black" d="M544.5,-828.422C544.5,-818.163 544.5,-808.731 544.5,-800.685"/>
<polygon fill="black" stroke="black" points="548,-800.625 544.5,-790.625 541,-800.625 548,-800.625"/>
</g>
<!-- Node0xfef97e0 -->
<g id="node4" class="node"><title>Node0xfef97e0</title>
<polygon fill="none" stroke="black" points="471,-666.5 471,-702.5 544,-702.5 544,-666.5 471,-666.5"/>
<text text-anchor="start" x="479" y="-680.8" font-family="Times,serif" font-size="14.00">v13 = 0</text>
</g>
<!-- Node0xff14fe0&#45;&gt;Node0xfef97e0 -->
<g id="edge3" class="edge"><title>Node0xff14fe0&#45;&gt;Node0xfef97e0</title>
<path fill="none" stroke="black" d="M524.366,-754.46C519.309,-749.093 514.479,-742.779 511.5,-736 508.338,-728.804 506.896,-720.477 506.359,-712.686"/>
<polygon fill="black" stroke="black" points="509.855,-712.462 506.111,-702.551 502.857,-712.634 509.855,-712.462"/>
<text text-anchor="middle" x="538.5" y="-724.8" font-family="Times,serif" font-size="14.00">a3 != 0</text>
</g>
<!-- Node0xff03e70 -->
<g id="node5" class="node"><title>Node0xff03e70</title>
<polygon fill="none" stroke="black" points="500.5,-97.5 500.5,-150.5 590.5,-150.5 590.5,-97.5 500.5,-97.5"/>
<text text-anchor="start" x="508.5" y="-135.3" font-family="Times,serif" font-size="14.00">0x42a3ea:</text>
<text text-anchor="start" x="508.5" y="-120.3" font-family="Times,serif" font-size="14.00"> g3 = v15</text>
<text text-anchor="start" x="508.5" y="-105.3" font-family="Times,serif" font-size="14.00"> return 0</text>
</g>
<!-- Node0xff14fe0&#45;&gt;Node0xff03e70 -->
<g id="edge4" class="edge"><title>Node0xff14fe0&#45;&gt;Node0xff03e70</title>
<path fill="none" stroke="black" d="M556.154,-754.218C566.336,-737.42 579.5,-710.808 579.5,-685.5 579.5,-685.5 579.5,-685.5 579.5,-214 579.5,-195.196 572.795,-175.541 565.339,-159.499"/>
<polygon fill="black" stroke="black" points="568.468,-157.929 560.908,-150.505 562.188,-161.022 568.468,-157.929"/>
<text text-anchor="middle" x="609.5" y="-427.8" font-family="Times,serif" font-size="14.00">a3 == 0</text>
</g>
<!-- Node0xff03160 -->
<g id="node6" class="node"><title>Node0xff03160</title>
<polygon fill="none" stroke="black" points="454,-592.5 454,-628.5 551,-628.5 551,-592.5 454,-592.5"/>
<text text-anchor="start" x="462" y="-606.8" font-family="Times,serif" font-size="14.00">while True:</text>
</g>
<!-- Node0xfef97e0&#45;&gt;Node0xff03160 -->
<g id="edge5" class="edge"><title>Node0xfef97e0&#45;&gt;Node0xff03160</title>
<path fill="none" stroke="black" d="M506.315,-666.437C505.75,-658.307 505.061,-648.376 504.424,-639.205"/>
<polygon fill="black" stroke="black" points="507.896,-638.674 503.711,-628.941 500.912,-639.159 507.896,-638.674"/>
</g>
<!-- Node0xe715c70 -->
<g id="node7" class="node"><title>Node0xe715c70</title>
<polygon fill="none" stroke="black" points="518.5,-23.5 518.5,-59.5 572.5,-59.5 572.5,-23.5 518.5,-23.5"/>
<text text-anchor="start" x="526.5" y="-37.8" font-family="Times,serif" font-size="14.00">exit:</text>
</g>
<!-- Node0xff03e70&#45;&gt;Node0xe715c70 -->
<g id="edge6" class="edge"><title>Node0xff03e70&#45;&gt;Node0xe715c70</title>
<path fill="none" stroke="black" d="M545.5,-97.0862C545.5,-88.4596 545.5,-78.8224 545.5,-70.0748"/>
<polygon fill="black" stroke="black" points="549,-69.9735 545.5,-59.9735 542,-69.9735 549,-69.9735"/>
</g>
<!-- Node0xfece700 -->
<g id="node8" class="node"><title>Node0xfece700</title>
<polygon fill="none" stroke="black" points="0,-457.5 0,-540.5 509,-540.5 509,-457.5 0,-457.5"/>
<text text-anchor="start" x="8" y="-525.3" font-family="Times,serif" font-size="14.00">0x42a3db:</text>
<text text-anchor="start" x="8" y="-510.3" font-family="Times,serif" font-size="14.00"> v3 = rand()</text>
<text text-anchor="start" x="8" y="-495.3" font-family="Times,serif" font-size="14.00"> *(IntToPtrCastExpr&lt;ptr&gt;((v13 + a2))) = TruncCastExpr&lt;int8&gt;(v3)</text>
<text text-anchor="start" x="8" y="-480.3" font-family="Times,serif" font-size="14.00"> v1 = (v13 + 1)</text>
<text text-anchor="start" x="8" y="-465.3" font-family="Times,serif" font-size="14.00"> g2 = v1</text>
</g>
<!-- Node0xff03160&#45;&gt;Node0xfece700 -->
<g id="edge7" class="edge"><title>Node0xff03160&#45;&gt;Node0xfece700</title>
<path fill="none" stroke="black" d="M463.75,-592.391C434.802,-579.609 393.84,-561.523 355.822,-544.737"/>
<polygon fill="black" stroke="black" points="356.791,-541.339 346.229,-540.502 353.964,-547.742 356.791,-541.339"/>
<text text-anchor="middle" x="432.5" y="-562.8" font-family="Times,serif" font-size="14.00">True</text>
</g>
<!-- Node0xfedb1a0 -->
<g id="node9" class="node"><title>Node0xfedb1a0</title>
<polygon fill="none" stroke="black" points="314,-369.5 314,-405.5 427,-405.5 427,-369.5 314,-369.5"/>
<text text-anchor="start" x="322" y="-383.8" font-family="Times,serif" font-size="14.00">if (v1 &gt;= a3):</text>
</g>
<!-- Node0xfece700&#45;&gt;Node0xfedb1a0 -->
<g id="edge8" class="edge"><title>Node0xfece700&#45;&gt;Node0xfedb1a0</title>
<path fill="none" stroke="black" d="M297.694,-457.226C313.673,-442.143 331.259,-425.542 345.143,-412.436"/>
<polygon fill="black" stroke="black" points="347.573,-414.955 352.443,-405.546 342.768,-409.865 347.573,-414.955"/>
</g>
<!-- Node0xfee9980 -->
<g id="node10" class="node"><title>Node0xfee9980</title>
<polygon fill="none" stroke="black" points="291.5,-279.5 291.5,-317.5 449.5,-317.5 449.5,-279.5 291.5,-279.5"/>
<text text-anchor="start" x="299.5" y="-302.3" font-family="Times,serif" font-size="14.00">break &#45;&gt; 0x42a3d3:</text>
<text text-anchor="start" x="299.5" y="-287.3" font-family="Times,serif" font-size="14.00"> break</text>
</g>
<!-- Node0xfedb1a0&#45;&gt;Node0xfee9980 -->
<g id="edge9" class="edge"><title>Node0xfedb1a0&#45;&gt;Node0xfee9980</title>
<path fill="none" stroke="black" d="M370.5,-369.312C370.5,-357.511 370.5,-341.572 370.5,-327.904"/>
<polygon fill="black" stroke="black" points="374,-327.551 370.5,-317.551 367,-327.551 374,-327.551"/>
<text text-anchor="middle" x="404.5" y="-339.8" font-family="Times,serif" font-size="14.00">v1 &gt;= a3</text>
</g>
<!-- Node0xfeda120 -->
<g id="node11" class="node"><title>Node0xfeda120</title>
<polygon fill="none" stroke="black" points="468,-279.5 468,-317.5 551,-317.5 551,-279.5 468,-279.5"/>
<text text-anchor="start" x="476" y="-302.3" font-family="Times,serif" font-size="14.00">v13 = v1</text>
<text text-anchor="start" x="476" y="-287.3" font-family="Times,serif" font-size="14.00"> continue</text>
</g>
<!-- Node0xfedb1a0&#45;&gt;Node0xfeda120 -->
<g id="edge10" class="edge"><title>Node0xfedb1a0&#45;&gt;Node0xfeda120</title>
<path fill="none" stroke="black" d="M408.627,-369.438C419.79,-363.983 431.851,-357.628 442.5,-351 455.43,-342.953 468.89,-332.964 480.324,-323.932"/>
<polygon fill="black" stroke="black" points="482.649,-326.554 488.256,-317.565 478.267,-321.095 482.649,-326.554"/>
<text text-anchor="middle" x="492.5" y="-339.8" font-family="Times,serif" font-size="14.00">v1 &lt; a3</text>
</g>
<!-- Node0xfeccbf0 -->
<g id="node12" class="node"><title>Node0xfeccbf0</title>
<polygon fill="none" stroke="black" points="423,-188.5 423,-241.5 518,-241.5 518,-188.5 423,-188.5"/>
<text text-anchor="start" x="431" y="-226.3" font-family="Times,serif" font-size="14.00">0x42a3d3:</text>
<text text-anchor="start" x="431" y="-211.3" font-family="Times,serif" font-size="14.00"> v16 = v5</text>
<text text-anchor="start" x="431" y="-196.3" font-family="Times,serif" font-size="14.00"> v15 = v16</text>
</g>
<!-- Node0xfee9980&#45;&gt;Node0xfeccbf0 -->
<g id="edge11" class="edge"><title>Node0xfee9980&#45;&gt;Node0xfeccbf0</title>
<path fill="none" stroke="black" d="M392.693,-279.413C403.939,-270.247 417.936,-258.84 430.946,-248.237"/>
<polygon fill="black" stroke="black" points="433.345,-250.797 438.885,-241.766 428.922,-245.371 433.345,-250.797"/>
</g>
<!-- Node0xfeda120&#45;&gt;Node0xff03160 -->
<g id="edge12" class="edge"><title>Node0xfeda120&#45;&gt;Node0xff03160</title>
<path fill="none" stroke="black" d="M517.975,-317.687C520.235,-323.42 522.363,-329.86 523.5,-336 524.714,-342.555 523.605,-344.334 523.5,-351 522.167,-435.476 527.914,-457.158 517.5,-541 515.777,-554.875 512.581,-570.086 509.58,-582.643"/>
<polygon fill="black" stroke="black" points="506.151,-581.93 507.143,-592.479 512.946,-583.615 506.151,-581.93"/>
</g>
<!-- Node0xfeccbf0&#45;&gt;Node0xff03e70 -->
<g id="edge13" class="edge"><title>Node0xfeccbf0&#45;&gt;Node0xff03e70</title>
<path fill="none" stroke="black" d="M492.193,-188.258C500.045,-178.94 509.028,-168.281 517.353,-158.401"/>
<polygon fill="black" stroke="black" points="520.088,-160.587 523.856,-150.685 514.735,-156.076 520.088,-160.587"/>
</g>
</g>
</svg>
