<?xml version="1.0" encoding="UTF-8" standalone="no"?>
<!DOCTYPE svg PUBLIC "-//W3C//DTD SVG 1.1//EN"
 "http://www.w3.org/Graphics/SVG/1.1/DTD/svg11.dtd">
<!-- Generated by graphviz version 2.38.0 (20140413.2041)
 -->
<!-- Title: Control&#45;flow graph for function &#39;function_4255ae(a1, a2, a3)&#39;. Pages: 1 -->
<svg width="1590pt" height="1637pt"
 viewBox="0.00 0.00 1590.00 1637.00" xmlns="http://www.w3.org/2000/svg" xmlns:xlink="http://www.w3.org/1999/xlink">
<g id="graph0" class="graph" transform="scale(1 1) rotate(0) translate(4 1633)">
<title>Control&#45;flow graph for function &#39;function_4255ae(a1, a2, a3)&#39;.</title>
<polygon fill="white" stroke="none" points="-4,4 -4,-1633 1586,-1633 1586,4 -4,4"/>
<text text-anchor="middle" x="791" y="-7.8" font-family="Times,serif" font-size="14.00">Control&#45;flow graph for function &#39;function_4255ae(a1, a2, a3)&#39;.</text>
<!-- Node0xfc203f0 -->
<g id="node1" class="node"><title>Node0xfc203f0</title>
<polygon fill="none" stroke="black" points="392.5,-1560.5 392.5,-1628.5 451.5,-1628.5 451.5,-1560.5 392.5,-1560.5"/>
<text text-anchor="start" x="400.5" y="-1613.3" font-family="Times,serif" font-size="14.00">entry:</text>
<text text-anchor="start" x="400.5" y="-1598.3" font-family="Times,serif" font-size="14.00"> a1</text>
<text text-anchor="start" x="400.5" y="-1583.3" font-family="Times,serif" font-size="14.00"> a2</text>
<text text-anchor="start" x="400.5" y="-1568.3" font-family="Times,serif" font-size="14.00"> a3</text>
</g>
<!-- Node0xfc24b40 -->
<g id="node2" class="node"><title>Node0xfc24b40</title>
<polygon fill="none" stroke="black" points="223,-1169.5 223,-1522.5 621,-1522.5 621,-1169.5 223,-1169.5"/>
<text text-anchor="start" x="231" y="-1507.3" font-family="Times,serif" font-size="14.00">v1</text>
<text text-anchor="start" x="231" y="-1492.3" font-family="Times,serif" font-size="14.00"> v2</text>
<text text-anchor="start" x="231" y="-1477.3" font-family="Times,serif" font-size="14.00"> v3</text>
<text text-anchor="start" x="231" y="-1462.3" font-family="Times,serif" font-size="14.00"> v4</text>
<text text-anchor="start" x="231" y="-1447.3" font-family="Times,serif" font-size="14.00"> v5</text>
<text text-anchor="start" x="231" y="-1432.3" font-family="Times,serif" font-size="14.00"> v6</text>
<text text-anchor="start" x="231" y="-1417.3" font-family="Times,serif" font-size="14.00"> v7</text>
<text text-anchor="start" x="231" y="-1402.3" font-family="Times,serif" font-size="14.00"> v8</text>
<text text-anchor="start" x="231" y="-1387.3" font-family="Times,serif" font-size="14.00"> v9</text>
<text text-anchor="start" x="231" y="-1372.3" font-family="Times,serif" font-size="14.00"> v10</text>
<text text-anchor="start" x="231" y="-1357.3" font-family="Times,serif" font-size="14.00"> v11</text>
<text text-anchor="start" x="231" y="-1342.3" font-family="Times,serif" font-size="14.00"> v12</text>
<text text-anchor="start" x="231" y="-1327.3" font-family="Times,serif" font-size="14.00"> v13</text>
<text text-anchor="start" x="231" y="-1312.3" font-family="Times,serif" font-size="14.00"> v14</text>
<text text-anchor="start" x="231" y="-1297.3" font-family="Times,serif" font-size="14.00"> v15</text>
<text text-anchor="start" x="231" y="-1282.3" font-family="Times,serif" font-size="14.00"> result</text>
<text text-anchor="start" x="231" y="-1267.3" font-family="Times,serif" font-size="14.00"> v16</text>
<text text-anchor="start" x="231" y="-1252.3" font-family="Times,serif" font-size="14.00"> v17</text>
<text text-anchor="start" x="231" y="-1237.3" font-family="Times,serif" font-size="14.00"> v10 = v11</text>
<text text-anchor="start" x="231" y="-1222.3" font-family="Times,serif" font-size="14.00"> g3 = PtrToIntCastExpr&lt;int32&gt;(&amp;(v10))</text>
<text text-anchor="start" x="231" y="-1207.3" font-family="Times,serif" font-size="14.00"> result = g5</text>
<text text-anchor="start" x="231" y="-1192.3" font-family="Times,serif" font-size="14.00"> v1 = IntToPtrCastExpr&lt;ptr&gt;(result)</text>
<text text-anchor="start" x="231" y="-1177.3" font-family="Times,serif" font-size="14.00"> v17 = ((result &amp; &#45;65536) | ExtCastExpr&lt;int32&gt;(a2))</text>
</g>
<!-- Node0xfc203f0&#45;&gt;Node0xfc24b40 -->
<g id="edge1" class="edge"><title>Node0xfc203f0&#45;&gt;Node0xfc24b40</title>
<path fill="none" stroke="black" d="M422,-1560.26C422,-1552.12 422,-1542.84 422,-1532.81"/>
<polygon fill="black" stroke="black" points="425.5,-1532.54 422,-1522.54 418.5,-1532.54 425.5,-1532.54"/>
</g>
<!-- Node0xfc20390 -->
<g id="node3" class="node"><title>Node0xfc20390</title>
<polygon fill="none" stroke="black" points="360.5,-1093.5 360.5,-1131.5 483.5,-1131.5 483.5,-1093.5 360.5,-1093.5"/>
<text text-anchor="start" x="368.5" y="-1116.3" font-family="Times,serif" font-size="14.00">if (v17 == 10):</text>
<text text-anchor="start" x="368.5" y="-1101.3" font-family="Times,serif" font-size="14.00"> else:</text>
</g>
<!-- Node0xfc24b40&#45;&gt;Node0xfc20390 -->
<g id="edge2" class="edge"><title>Node0xfc24b40&#45;&gt;Node0xfc20390</title>
<path fill="none" stroke="black" d="M422,-1169.24C422,-1159.06 422,-1149.73 422,-1141.74"/>
<polygon fill="black" stroke="black" points="425.5,-1141.72 422,-1131.72 418.5,-1141.72 425.5,-1141.72"/>
</g>
<!-- Node0xfc27860 -->
<g id="node4" class="node"><title>Node0xfc27860</title>
<polygon fill="none" stroke="black" points="0,-988.5 0,-1041.5 508,-1041.5 508,-988.5 0,-988.5"/>
<text text-anchor="start" x="8" y="-1026.3" font-family="Times,serif" font-size="14.00">0x4255bd:</text>
<text text-anchor="start" x="8" y="-1011.3" font-family="Times,serif" font-size="14.00"> *(&amp;(v1[&#39;0&#39;])) = a2</text>
<text text-anchor="start" x="8" y="-996.3" font-family="Times,serif" font-size="14.00"> *(IntToPtrCastExpr&lt;ptr&gt;((result + 8))) = ExtCastExpr&lt;int32&gt;(a1)</text>
</g>
<!-- Node0xfc20390&#45;&gt;Node0xfc27860 -->
<g id="edge3" class="edge"><title>Node0xfc20390&#45;&gt;Node0xfc27860</title>
<path fill="none" stroke="black" d="M390.005,-1093.31C366.825,-1080.14 334.936,-1062.01 307.861,-1046.62"/>
<polygon fill="black" stroke="black" points="309.307,-1043.41 298.884,-1041.51 305.848,-1049.5 309.307,-1043.41"/>
<text text-anchor="middle" x="393" y="-1063.8" font-family="Times,serif" font-size="14.00">v17 == 10</text>
</g>
<!-- Node0xfcfc930 -->
<g id="node5" class="node"><title>Node0xfcfc930</title>
<polygon fill="none" stroke="black" points="526,-988.5 526,-1041.5 654,-1041.5 654,-988.5 526,-988.5"/>
<text text-anchor="start" x="534" y="-1026.3" font-family="Times,serif" font-size="14.00">0x4255c2:</text>
<text text-anchor="start" x="534" y="-1011.3" font-family="Times,serif" font-size="14.00"> if (v17 == 11):</text>
<text text-anchor="start" x="534" y="-996.3" font-family="Times,serif" font-size="14.00"> else:</text>
</g>
<!-- Node0xfc20390&#45;&gt;Node0xfcfc930 -->
<g id="edge4" class="edge"><title>Node0xfc20390&#45;&gt;Node0xfcfc930</title>
<path fill="none" stroke="black" d="M453.995,-1093.31C477.175,-1080.14 509.064,-1062.01 536.139,-1046.62"/>
<polygon fill="black" stroke="black" points="538.152,-1049.5 545.116,-1041.51 534.693,-1043.41 538.152,-1049.5"/>
<text text-anchor="middle" x="548" y="-1063.8" font-family="Times,serif" font-size="14.00">v17 != 10</text>
</g>
<!-- Node0xfc27800 -->
<g id="node6" class="node"><title>Node0xfc27800</title>
<polygon fill="none" stroke="black" points="197.5,-796.5 197.5,-864.5 310.5,-864.5 310.5,-796.5 197.5,-796.5"/>
<text text-anchor="start" x="205.5" y="-849.3" font-family="Times,serif" font-size="14.00">0x42560f:</text>
<text text-anchor="start" x="205.5" y="-834.3" font-family="Times,serif" font-size="14.00"> v16 = v10</text>
<text text-anchor="start" x="205.5" y="-819.3" font-family="Times,serif" font-size="14.00"> g3 = v16</text>
<text text-anchor="start" x="205.5" y="-804.3" font-family="Times,serif" font-size="14.00"> return result</text>
</g>
<!-- Node0xfc27860&#45;&gt;Node0xfc27800 -->
<g id="edge5" class="edge"><title>Node0xfc27860&#45;&gt;Node0xfc27800</title>
<path fill="none" stroke="black" d="M254,-988.239C254,-958.728 254,-909.903 254,-874.579"/>
<polygon fill="black" stroke="black" points="257.5,-874.544 254,-864.544 250.5,-874.544 257.5,-874.544"/>
</g>
<!-- Node0xfd00ec0 -->
<g id="node7" class="node"><title>Node0xfd00ec0</title>
<polygon fill="none" stroke="black" points="269,-652.5 269,-705.5 823,-705.5 823,-652.5 269,-652.5"/>
<text text-anchor="start" x="277" y="-690.3" font-family="Times,serif" font-size="14.00">0x4255c8:</text>
<text text-anchor="start" x="277" y="-675.3" font-family="Times,serif" font-size="14.00"> *(&amp;(v1[&#39;0&#39;])) = a2</text>
<text text-anchor="start" x="277" y="-660.3" font-family="Times,serif" font-size="14.00"> *(IntToPtrCastExpr&lt;ptr&gt;((result + 8))) = ExtCastExpr&lt;int16&gt;((a1 != 0))</text>
</g>
<!-- Node0xfcfc930&#45;&gt;Node0xfd00ec0 -->
<g id="edge6" class="edge"><title>Node0xfcfc930&#45;&gt;Node0xfd00ec0</title>
<path fill="none" stroke="black" d="M586.62,-988.346C578.846,-929.332 559.677,-783.819 550.735,-715.943"/>
<polygon fill="black" stroke="black" points="554.167,-715.198 549.391,-705.741 547.227,-716.113 554.167,-715.198"/>
<text text-anchor="middle" x="619" y="-906.3" font-family="Times,serif" font-size="14.00">v17 == 11</text>
</g>
<!-- Node0xfc1ae70 -->
<g id="node8" class="node"><title>Node0xfc1ae70</title>
<polygon fill="none" stroke="black" points="774,-883.5 774,-936.5 902,-936.5 902,-883.5 774,-883.5"/>
<text text-anchor="start" x="782" y="-921.3" font-family="Times,serif" font-size="14.00">0x4255d8:</text>
<text text-anchor="start" x="782" y="-906.3" font-family="Times,serif" font-size="14.00"> if (v17 == 22):</text>
<text text-anchor="start" x="782" y="-891.3" font-family="Times,serif" font-size="14.00"> else:</text>
</g>
<!-- Node0xfcfc930&#45;&gt;Node0xfc1ae70 -->
<g id="edge7" class="edge"><title>Node0xfcfc930&#45;&gt;Node0xfc1ae70</title>
<path fill="none" stroke="black" d="M651.622,-988.407C686.519,-973.914 730.328,-955.719 766.703,-940.611"/>
<polygon fill="black" stroke="black" points="768.373,-943.708 776.265,-936.64 765.688,-937.243 768.373,-943.708"/>
<text text-anchor="middle" x="765" y="-958.8" font-family="Times,serif" font-size="14.00">v17 != 11</text>
</g>
<!-- Node0xfc24760 -->
<g id="node9" class="node"><title>Node0xfc24760</title>
<polygon fill="none" stroke="black" points="763,-23.5 763,-59.5 817,-59.5 817,-23.5 763,-23.5"/>
<text text-anchor="start" x="771" y="-37.8" font-family="Times,serif" font-size="14.00">exit:</text>
</g>
<!-- Node0xfc27800&#45;&gt;Node0xfc24760 -->
<g id="edge8" class="edge"><title>Node0xfc27800&#45;&gt;Node0xfc24760</title>
<path fill="none" stroke="black" d="M254,-796.248C254,-765.952 254,-719.97 254,-680 254,-680 254,-680 254,-138 254,-87.3071 630.394,-54.5118 752.353,-45.216"/>
<polygon fill="black" stroke="black" points="752.974,-48.6793 762.683,-44.4387 752.448,-41.699 752.974,-48.6793"/>
</g>
<!-- Node0xfd00e60 -->
<g id="node10" class="node"><title>Node0xfd00e60</title>
<polygon fill="none" stroke="black" points="552.5,-460.5 552.5,-528.5 665.5,-528.5 665.5,-460.5 552.5,-460.5"/>
<text text-anchor="start" x="560.5" y="-513.3" font-family="Times,serif" font-size="14.00">0x42560f:</text>
<text text-anchor="start" x="560.5" y="-498.3" font-family="Times,serif" font-size="14.00"> v16 = v10</text>
<text text-anchor="start" x="560.5" y="-483.3" font-family="Times,serif" font-size="14.00"> g3 = v16</text>
<text text-anchor="start" x="560.5" y="-468.3" font-family="Times,serif" font-size="14.00"> return result</text>
</g>
<!-- Node0xfd00ec0&#45;&gt;Node0xfd00e60 -->
<g id="edge9" class="edge"><title>Node0xfd00ec0&#45;&gt;Node0xfd00e60</title>
<path fill="none" stroke="black" d="M490.939,-652.387C484.57,-647.192 478.95,-641.095 475,-634 463.326,-613.031 463.408,-601.015 475,-580 489.795,-553.18 517.077,-533.703 543.182,-520.256"/>
<polygon fill="black" stroke="black" points="544.916,-523.304 552.345,-515.749 541.826,-517.023 544.916,-523.304"/>
</g>
<!-- Node0xfd02f30 -->
<g id="node11" class="node"><title>Node0xfd02f30</title>
<polygon fill="none" stroke="black" points="765.5,-732 765.5,-770 910.5,-770 910.5,-732 765.5,-732"/>
<text text-anchor="start" x="773.5" y="-754.8" font-family="Times,serif" font-size="14.00">0x4255de:</text>
<text text-anchor="start" x="773.5" y="-739.8" font-family="Times,serif" font-size="14.00"> *(&amp;(v1[&#39;0&#39;])) = a2</text>
</g>
<!-- Node0xfc1ae70&#45;&gt;Node0xfd02f30 -->
<g id="edge10" class="edge"><title>Node0xfc1ae70&#45;&gt;Node0xfd02f30</title>
<path fill="none" stroke="black" d="M838,-883.426C838,-855.102 838,-809.572 838,-780.226"/>
<polygon fill="black" stroke="black" points="841.5,-780.208 838,-770.208 834.5,-780.208 841.5,-780.208"/>
<text text-anchor="middle" x="877" y="-826.8" font-family="Times,serif" font-size="14.00">v17 == 22</text>
</g>
<!-- Node0xfd04470 -->
<g id="node12" class="node"><title>Node0xfd04470</title>
<polygon fill="none" stroke="black" points="1019,-724.5 1019,-777.5 1147,-777.5 1147,-724.5 1019,-724.5"/>
<text text-anchor="start" x="1027" y="-762.3" font-family="Times,serif" font-size="14.00">0x4255e3:</text>
<text text-anchor="start" x="1027" y="-747.3" font-family="Times,serif" font-size="14.00"> if (v17 == 23):</text>
<text text-anchor="start" x="1027" y="-732.3" font-family="Times,serif" font-size="14.00"> else:</text>
</g>
<!-- Node0xfc1ae70&#45;&gt;Node0xfd04470 -->
<g id="edge11" class="edge"><title>Node0xfc1ae70&#45;&gt;Node0xfd04470</title>
<path fill="none" stroke="black" d="M887.945,-883.369C898.65,-877.552 909.803,-871.242 920,-865 961.92,-839.337 1007.77,-807.16 1040.13,-783.712"/>
<polygon fill="black" stroke="black" points="1042.45,-786.359 1048.47,-777.646 1038.33,-780.698 1042.45,-786.359"/>
<text text-anchor="middle" x="1058" y="-826.8" font-family="Times,serif" font-size="14.00">v17 != 22</text>
</g>
<!-- Node0xfd00e60&#45;&gt;Node0xfc24760 -->
<g id="edge12" class="edge"><title>Node0xfd00e60&#45;&gt;Node0xfc24760</title>
<path fill="none" stroke="black" d="M608.918,-460.224C609.676,-432.358 612.724,-391.83 623,-358 658.161,-242.244 736.801,-119.575 772.168,-67.8423"/>
<polygon fill="black" stroke="black" points="775.062,-69.8112 777.855,-59.5912 769.298,-65.8388 775.062,-69.8112"/>
</g>
<!-- Node0xfd02ed0 -->
<g id="node13" class="node"><title>Node0xfd02ed0</title>
<polygon fill="none" stroke="black" points="484,-588 484,-626 992,-626 992,-588 484,-588"/>
<text text-anchor="start" x="492" y="-610.8" font-family="Times,serif" font-size="14.00">0x425609:</text>
<text text-anchor="start" x="492" y="-595.8" font-family="Times,serif" font-size="14.00"> *(IntToPtrCastExpr&lt;ptr&gt;((result + 8))) = ExtCastExpr&lt;int32&gt;(a1)</text>
</g>
<!-- Node0xfd02f30&#45;&gt;Node0xfd02ed0 -->
<g id="edge13" class="edge"><title>Node0xfd02f30&#45;&gt;Node0xfd02ed0</title>
<path fill="none" stroke="black" d="M840.095,-731.929C841.57,-710.778 840.874,-675.641 824,-652 818.081,-643.707 810.128,-636.872 801.44,-631.271"/>
<polygon fill="black" stroke="black" points="802.954,-628.101 792.555,-626.072 799.419,-634.143 802.954,-628.101"/>
</g>
<!-- Node0xfd07040 -->
<g id="node14" class="node"><title>Node0xfd07040</title>
<polygon fill="none" stroke="black" points="1010.5,-588 1010.5,-626 1155.5,-626 1155.5,-588 1010.5,-588"/>
<text text-anchor="start" x="1018.5" y="-610.8" font-family="Times,serif" font-size="14.00">0x4255e9:</text>
<text text-anchor="start" x="1018.5" y="-595.8" font-family="Times,serif" font-size="14.00"> *(&amp;(v1[&#39;0&#39;])) = a2</text>
</g>
<!-- Node0xfd04470&#45;&gt;Node0xfd07040 -->
<g id="edge14" class="edge"><title>Node0xfd04470&#45;&gt;Node0xfd07040</title>
<path fill="none" stroke="black" d="M1083,-724.285C1083,-699.529 1083,-662.166 1083,-636.511"/>
<polygon fill="black" stroke="black" points="1086.5,-636.304 1083,-626.304 1079.5,-636.304 1086.5,-636.304"/>
<text text-anchor="middle" x="1122" y="-675.3" font-family="Times,serif" font-size="14.00">v17 == 23</text>
</g>
<!-- Node0xfd07d40 -->
<g id="node15" class="node"><title>Node0xfd07d40</title>
<polygon fill="none" stroke="black" points="1174,-580.5 1174,-633.5 1302,-633.5 1302,-580.5 1174,-580.5"/>
<text text-anchor="start" x="1182" y="-618.3" font-family="Times,serif" font-size="14.00">0x4255ee:</text>
<text text-anchor="start" x="1182" y="-603.3" font-family="Times,serif" font-size="14.00"> if (v17 == 25):</text>
<text text-anchor="start" x="1182" y="-588.3" font-family="Times,serif" font-size="14.00"> else:</text>
</g>
<!-- Node0xfd04470&#45;&gt;Node0xfd07d40 -->
<g id="edge15" class="edge"><title>Node0xfd04470&#45;&gt;Node0xfd07d40</title>
<path fill="none" stroke="black" d="M1138.97,-724.269C1148.13,-718.878 1157.17,-712.752 1165,-706 1185.99,-687.899 1204.58,-662.745 1217.74,-642.454"/>
<polygon fill="black" stroke="black" points="1220.82,-644.125 1223.21,-633.803 1214.91,-640.38 1220.82,-644.125"/>
<text text-anchor="middle" x="1246" y="-675.3" font-family="Times,serif" font-size="14.00">v17 != 23</text>
</g>
<!-- Node0xfd02ed0&#45;&gt;Node0xfd00e60 -->
<g id="edge16" class="edge"><title>Node0xfd02ed0&#45;&gt;Node0xfd00e60</title>
<path fill="none" stroke="black" d="M716.698,-587.753C700.073,-573.512 676.361,-553.201 655.417,-535.26"/>
<polygon fill="black" stroke="black" points="657.417,-532.365 647.546,-528.518 652.864,-537.682 657.417,-532.365"/>
</g>
<!-- Node0xfd06fe0 -->
<g id="node16" class="node"><title>Node0xfd06fe0</title>
<polygon fill="none" stroke="black" points="624,-358.5 624,-441.5 1132,-441.5 1132,-358.5 624,-358.5"/>
<text text-anchor="start" x="632" y="-426.3" font-family="Times,serif" font-size="14.00">0x425609:</text>
<text text-anchor="start" x="632" y="-411.3" font-family="Times,serif" font-size="14.00"> *(IntToPtrCastExpr&lt;ptr&gt;((result + 8))) = ExtCastExpr&lt;int32&gt;(a1)</text>
<text text-anchor="start" x="632" y="-396.3" font-family="Times,serif" font-size="14.00"> v16 = v10</text>
<text text-anchor="start" x="632" y="-381.3" font-family="Times,serif" font-size="14.00"> g3 = v16</text>
<text text-anchor="start" x="632" y="-366.3" font-family="Times,serif" font-size="14.00"> return result</text>
</g>
<!-- Node0xfd07040&#45;&gt;Node0xfd06fe0 -->
<g id="edge17" class="edge"><title>Node0xfd07040&#45;&gt;Node0xfd06fe0</title>
<path fill="none" stroke="black" d="M1064.81,-587.808C1033.9,-556.898 970.168,-493.168 925.791,-448.791"/>
<polygon fill="black" stroke="black" points="928.114,-446.165 918.568,-441.568 923.165,-451.114 928.114,-446.165"/>
</g>
<!-- Node0xfd093d0 -->
<g id="node17" class="node"><title>Node0xfd093d0</title>
<polygon fill="none" stroke="black" points="1074.5,-475.5 1074.5,-513.5 1219.5,-513.5 1219.5,-475.5 1074.5,-475.5"/>
<text text-anchor="start" x="1082.5" y="-498.3" font-family="Times,serif" font-size="14.00">0x4255f4:</text>
<text text-anchor="start" x="1082.5" y="-483.3" font-family="Times,serif" font-size="14.00"> *(&amp;(v1[&#39;0&#39;])) = a2</text>
</g>
<!-- Node0xfd07d40&#45;&gt;Node0xfd093d0 -->
<g id="edge18" class="edge"><title>Node0xfd07d40&#45;&gt;Node0xfd093d0</title>
<path fill="none" stroke="black" d="M1200.75,-580.358C1194.05,-574.772 1187.46,-568.554 1182,-562 1172.28,-550.338 1164.17,-535.542 1158.21,-522.868"/>
<polygon fill="black" stroke="black" points="1161.37,-521.364 1154.08,-513.677 1154.99,-524.233 1161.37,-521.364"/>
<text text-anchor="middle" x="1221" y="-550.8" font-family="Times,serif" font-size="14.00">v17 == 25</text>
</g>
<!-- Node0xfd0ad50 -->
<g id="node18" class="node"><title>Node0xfd0ad50</title>
<polygon fill="none" stroke="black" points="1238,-468 1238,-521 1366,-521 1366,-468 1238,-468"/>
<text text-anchor="start" x="1246" y="-505.8" font-family="Times,serif" font-size="14.00">0x4255f9:</text>
<text text-anchor="start" x="1246" y="-490.8" font-family="Times,serif" font-size="14.00"> if (v17 == 19):</text>
<text text-anchor="start" x="1246" y="-475.8" font-family="Times,serif" font-size="14.00"> else:</text>
</g>
<!-- Node0xfd07d40&#45;&gt;Node0xfd0ad50 -->
<g id="edge19" class="edge"><title>Node0xfd07d40&#45;&gt;Node0xfd0ad50</title>
<path fill="none" stroke="black" d="M1252.84,-580.371C1261.51,-565.417 1272.55,-546.351 1281.97,-530.08"/>
<polygon fill="black" stroke="black" points="1285.03,-531.78 1287.02,-521.372 1278.97,-528.272 1285.03,-531.78"/>
<text text-anchor="middle" x="1307" y="-550.8" font-family="Times,serif" font-size="14.00">v17 != 25</text>
</g>
<!-- Node0xfd06fe0&#45;&gt;Node0xfc24760 -->
<g id="edge20" class="edge"><title>Node0xfd06fe0&#45;&gt;Node0xfc24760</title>
<path fill="none" stroke="black" d="M844.817,-358.396C829.498,-337.239 812.79,-310.159 804,-283 780.027,-208.926 783.516,-115.414 787.204,-69.8988"/>
<polygon fill="black" stroke="black" points="790.715,-69.9254 788.105,-59.6571 783.742,-69.3118 790.715,-69.9254"/>
</g>
<!-- Node0xfd09370 -->
<g id="node19" class="node"><title>Node0xfd09370</title>
<polygon fill="none" stroke="black" points="805,-199.5 805,-282.5 1313,-282.5 1313,-199.5 805,-199.5"/>
<text text-anchor="start" x="813" y="-267.3" font-family="Times,serif" font-size="14.00">0x425609:</text>
<text text-anchor="start" x="813" y="-252.3" font-family="Times,serif" font-size="14.00"> *(IntToPtrCastExpr&lt;ptr&gt;((result + 8))) = ExtCastExpr&lt;int32&gt;(a1)</text>
<text text-anchor="start" x="813" y="-237.3" font-family="Times,serif" font-size="14.00"> v16 = v10</text>
<text text-anchor="start" x="813" y="-222.3" font-family="Times,serif" font-size="14.00"> g3 = v16</text>
<text text-anchor="start" x="813" y="-207.3" font-family="Times,serif" font-size="14.00"> return result</text>
</g>
<!-- Node0xfd093d0&#45;&gt;Node0xfd09370 -->
<g id="edge21" class="edge"><title>Node0xfd093d0&#45;&gt;Node0xfd09370</title>
<path fill="none" stroke="black" d="M1147.74,-475.392C1148.24,-448.856 1147.01,-398.197 1133,-358 1124.74,-334.315 1110.81,-310.545 1097.25,-290.744"/>
<polygon fill="black" stroke="black" points="1100.08,-288.69 1091.48,-282.512 1094.35,-292.709 1100.08,-288.69"/>
</g>
<!-- Node0xfd0d700 -->
<g id="node20" class="node"><title>Node0xfd0d700</title>
<polygon fill="none" stroke="black" points="1188.5,-301.5 1188.5,-339.5 1333.5,-339.5 1333.5,-301.5 1188.5,-301.5"/>
<text text-anchor="start" x="1196.5" y="-324.3" font-family="Times,serif" font-size="14.00">0x4255ff:</text>
<text text-anchor="start" x="1196.5" y="-309.3" font-family="Times,serif" font-size="14.00"> *(&amp;(v1[&#39;0&#39;])) = a2</text>
</g>
<!-- Node0xfd0ad50&#45;&gt;Node0xfd0d700 -->
<g id="edge22" class="edge"><title>Node0xfd0ad50&#45;&gt;Node0xfd0d700</title>
<path fill="none" stroke="black" d="M1295.86,-467.75C1288.28,-435.954 1275.44,-382.077 1267.64,-349.345"/>
<polygon fill="black" stroke="black" points="1271.02,-348.432 1265.29,-339.516 1264.21,-350.055 1271.02,-348.432"/>
<text text-anchor="middle" x="1327" y="-396.3" font-family="Times,serif" font-size="14.00">v17 == 19</text>
</g>
<!-- Node0xfd88680 -->
<g id="node21" class="node"><title>Node0xfd88680</title>
<polygon fill="none" stroke="black" points="1351.5,-301.5 1351.5,-339.5 1488.5,-339.5 1488.5,-301.5 1351.5,-301.5"/>
<text text-anchor="start" x="1359.5" y="-324.3" font-family="Times,serif" font-size="14.00">0x425604:</text>
<text text-anchor="start" x="1359.5" y="-309.3" font-family="Times,serif" font-size="14.00"> *(&amp;(v1[&#39;0&#39;])) = 3</text>
</g>
<!-- Node0xfd0ad50&#45;&gt;Node0xfd88680 -->
<g id="edge23" class="edge"><title>Node0xfd0ad50&#45;&gt;Node0xfd88680</title>
<path fill="none" stroke="black" d="M1343.25,-467.783C1352.93,-460.345 1362.57,-451.608 1370,-442 1391.55,-414.121 1405.37,-375.627 1412.9,-349.714"/>
<polygon fill="black" stroke="black" points="1416.36,-350.353 1415.66,-339.781 1409.61,-348.48 1416.36,-350.353"/>
<text text-anchor="middle" x="1446" y="-396.3" font-family="Times,serif" font-size="14.00">v17 != 19</text>
</g>
<!-- Node0xfd09370&#45;&gt;Node0xfc24760 -->
<g id="edge24" class="edge"><title>Node0xfd09370&#45;&gt;Node0xfc24760</title>
<path fill="none" stroke="black" d="M1003.59,-199.317C948.539,-158.899 866.073,-98.3528 821.427,-65.5739"/>
<polygon fill="black" stroke="black" points="823.416,-62.692 813.284,-59.5951 819.273,-68.3346 823.416,-62.692"/>
</g>
<!-- Node0xfd0d6a0 -->
<g id="node22" class="node"><title>Node0xfd0d6a0</title>
<polygon fill="none" stroke="black" points="1074,-97.5 1074,-180.5 1582,-180.5 1582,-97.5 1074,-97.5"/>
<text text-anchor="start" x="1082" y="-165.3" font-family="Times,serif" font-size="14.00">0x425609:</text>
<text text-anchor="start" x="1082" y="-150.3" font-family="Times,serif" font-size="14.00"> *(IntToPtrCastExpr&lt;ptr&gt;((result + 8))) = ExtCastExpr&lt;int32&gt;(a1)</text>
<text text-anchor="start" x="1082" y="-135.3" font-family="Times,serif" font-size="14.00"> v16 = v10</text>
<text text-anchor="start" x="1082" y="-120.3" font-family="Times,serif" font-size="14.00"> g3 = v16</text>
<text text-anchor="start" x="1082" y="-105.3" font-family="Times,serif" font-size="14.00"> return result</text>
</g>
<!-- Node0xfd0d700&#45;&gt;Node0xfd0d6a0 -->
<g id="edge25" class="edge"><title>Node0xfd0d700&#45;&gt;Node0xfd0d6a0</title>
<path fill="none" stroke="black" d="M1296.64,-301.388C1303.43,-296.34 1309.74,-290.218 1314,-283 1330.19,-255.536 1333.7,-219.853 1333.16,-191.002"/>
<polygon fill="black" stroke="black" points="1336.65,-190.58 1332.8,-180.71 1329.66,-190.829 1336.65,-190.58"/>
</g>
<!-- Node0xfd88680&#45;&gt;Node0xfd0d6a0 -->
<g id="edge26" class="edge"><title>Node0xfd88680&#45;&gt;Node0xfd0d6a0</title>
<path fill="none" stroke="black" d="M1410.67,-301.301C1397.41,-275.419 1372.59,-227.008 1353.6,-189.95"/>
<polygon fill="black" stroke="black" points="1356.58,-188.096 1348.91,-180.794 1350.35,-191.289 1356.58,-188.096"/>
</g>
<!-- Node0xfd0d6a0&#45;&gt;Node0xfc24760 -->
<g id="edge27" class="edge"><title>Node0xfd0d6a0&#45;&gt;Node0xfc24760</title>
<path fill="none" stroke="black" d="M1099.84,-97.4994C996.04,-79.074 883.934,-59.1741 827.297,-49.1205"/>
<polygon fill="black" stroke="black" points="827.839,-45.6622 817.381,-47.3604 826.616,-52.5544 827.839,-45.6622"/>
</g>
</g>
</svg>
