<?xml version="1.0" encoding="UTF-8" standalone="no"?>
<!DOCTYPE svg PUBLIC "-//W3C//DTD SVG 1.1//EN"
 "http://www.w3.org/Graphics/SVG/1.1/DTD/svg11.dtd">
<!-- Generated by graphviz version 2.38.0 (20140413.2041)
 -->
<!-- Title: Control&#45;flow graph for function &#39;function_411e77()&#39;. Pages: 1 -->
<svg width="394pt" height="850pt"
 viewBox="0.00 0.00 394.00 850.00" xmlns="http://www.w3.org/2000/svg" xmlns:xlink="http://www.w3.org/1999/xlink">
<g id="graph0" class="graph" transform="scale(1 1) rotate(0) translate(4 846)">
<title>Control&#45;flow graph for function &#39;function_411e77()&#39;.</title>
<polygon fill="white" stroke="none" points="-4,4 -4,-846 390,-846 390,4 -4,4"/>
<text text-anchor="middle" x="193" y="-7.8" font-family="Times,serif" font-size="14.00">Control&#45;flow graph for function &#39;function_411e77()&#39;.</text>
<!-- Node0xf2561a0 -->
<g id="node1" class="node"><title>Node0xf2561a0</title>
<polygon fill="none" stroke="black" points="149.5,-805.5 149.5,-841.5 208.5,-841.5 208.5,-805.5 149.5,-805.5"/>
<text text-anchor="start" x="157.5" y="-819.8" font-family="Times,serif" font-size="14.00">entry:</text>
</g>
<!-- Node0xf255e80 -->
<g id="node2" class="node"><title>Node0xf255e80</title>
<polygon fill="none" stroke="black" points="35.5,-429.5 35.5,-767.5 322.5,-767.5 322.5,-429.5 35.5,-429.5"/>
<text text-anchor="start" x="43.5" y="-752.3" font-family="Times,serif" font-size="14.00">v1</text>
<text text-anchor="start" x="43.5" y="-737.3" font-family="Times,serif" font-size="14.00"> v2</text>
<text text-anchor="start" x="43.5" y="-722.3" font-family="Times,serif" font-size="14.00"> v3</text>
<text text-anchor="start" x="43.5" y="-707.3" font-family="Times,serif" font-size="14.00"> v4</text>
<text text-anchor="start" x="43.5" y="-692.3" font-family="Times,serif" font-size="14.00"> v5</text>
<text text-anchor="start" x="43.5" y="-677.3" font-family="Times,serif" font-size="14.00"> v6</text>
<text text-anchor="start" x="43.5" y="-662.3" font-family="Times,serif" font-size="14.00"> v7</text>
<text text-anchor="start" x="43.5" y="-647.3" font-family="Times,serif" font-size="14.00"> v8</text>
<text text-anchor="start" x="43.5" y="-632.3" font-family="Times,serif" font-size="14.00"> v9</text>
<text text-anchor="start" x="43.5" y="-617.3" font-family="Times,serif" font-size="14.00"> v10</text>
<text text-anchor="start" x="43.5" y="-602.3" font-family="Times,serif" font-size="14.00"> v11</text>
<text text-anchor="start" x="43.5" y="-587.3" font-family="Times,serif" font-size="14.00"> v12</text>
<text text-anchor="start" x="43.5" y="-572.3" font-family="Times,serif" font-size="14.00"> v13</text>
<text text-anchor="start" x="43.5" y="-557.3" font-family="Times,serif" font-size="14.00"> v14</text>
<text text-anchor="start" x="43.5" y="-542.3" font-family="Times,serif" font-size="14.00"> v15</text>
<text text-anchor="start" x="43.5" y="-527.3" font-family="Times,serif" font-size="14.00"> v4 = v7</text>
<text text-anchor="start" x="43.5" y="-512.3" font-family="Times,serif" font-size="14.00"> v9 = g5</text>
<text text-anchor="start" x="43.5" y="-497.3" font-family="Times,serif" font-size="14.00"> g2 = v9</text>
<text text-anchor="start" x="43.5" y="-482.3" font-family="Times,serif" font-size="14.00"> v10 = *(IntToPtrCastExpr&lt;ptr&gt;(v9))</text>
<text text-anchor="start" x="43.5" y="-467.3" font-family="Times,serif" font-size="14.00"> g8 = v10</text>
<text text-anchor="start" x="43.5" y="-452.3" font-family="Times,serif" font-size="14.00"> v14 = v4</text>
<text text-anchor="start" x="43.5" y="-437.3" font-family="Times,serif" font-size="14.00"> v11 = *(&amp;(v14[&#39;0&#39;]))</text>
</g>
<!-- Node0xf2561a0&#45;&gt;Node0xf255e80 -->
<g id="edge1" class="edge"><title>Node0xf2561a0&#45;&gt;Node0xf255e80</title>
<path fill="none" stroke="black" d="M179,-805.372C179,-798.032 179,-788.688 179,-778.048"/>
<polygon fill="black" stroke="black" points="182.5,-777.932 179,-767.932 175.5,-777.932 182.5,-777.932"/>
</g>
<!-- Node0xf256770 -->
<g id="node3" class="node"><title>Node0xf256770</title>
<polygon fill="none" stroke="black" points="116.5,-353.5 116.5,-391.5 241.5,-391.5 241.5,-353.5 116.5,-353.5"/>
<text text-anchor="start" x="124.5" y="-376.3" font-family="Times,serif" font-size="14.00">if (v10 != v11):</text>
<text text-anchor="start" x="124.5" y="-361.3" font-family="Times,serif" font-size="14.00"> else:</text>
</g>
<!-- Node0xf255e80&#45;&gt;Node0xf256770 -->
<g id="edge2" class="edge"><title>Node0xf255e80&#45;&gt;Node0xf256770</title>
<path fill="none" stroke="black" d="M179,-429.447C179,-419.269 179,-409.924 179,-401.905"/>
<polygon fill="black" stroke="black" points="182.5,-401.84 179,-391.84 175.5,-401.84 182.5,-401.84"/>
</g>
<!-- Node0x7b2fd60 -->
<g id="node4" class="node"><title>Node0x7b2fd60</title>
<polygon fill="none" stroke="black" points="35,-203.5 35,-301.5 187,-301.5 187,-203.5 35,-203.5"/>
<text text-anchor="start" x="43" y="-286.3" font-family="Times,serif" font-size="14.00">0x411e83:</text>
<text text-anchor="start" x="43" y="-271.3" font-family="Times,serif" font-size="14.00"> function_4178b1()</text>
<text text-anchor="start" x="43" y="-256.3" font-family="Times,serif" font-size="14.00"> v6 = v4</text>
<text text-anchor="start" x="43" y="-241.3" font-family="Times,serif" font-size="14.00"> v13 = g2</text>
<text text-anchor="start" x="43" y="-226.3" font-family="Times,serif" font-size="14.00"> v12 = v13</text>
<text text-anchor="start" x="43" y="-211.3" font-family="Times,serif" font-size="14.00"> v5 = v6</text>
</g>
<!-- Node0xf256770&#45;&gt;Node0x7b2fd60 -->
<g id="edge3" class="edge"><title>Node0xf256770&#45;&gt;Node0x7b2fd60</title>
<path fill="none" stroke="black" d="M153.64,-353.39C147.517,-348.038 141.461,-341.778 137,-335 132.195,-327.699 128.225,-319.447 124.96,-311.068"/>
<polygon fill="black" stroke="black" points="128.235,-309.831 121.567,-301.598 121.645,-312.193 128.235,-309.831"/>
<text text-anchor="middle" x="177" y="-323.8" font-family="Times,serif" font-size="14.00">v10 != v11</text>
</g>
<!-- Node0xf256d00 -->
<g id="node5" class="node"><title>Node0xf256d00</title>
<polygon fill="none" stroke="black" points="205,-233.5 205,-271.5 291,-271.5 291,-233.5 205,-233.5"/>
<text text-anchor="start" x="213" y="-256.3" font-family="Times,serif" font-size="14.00">v12 = v9</text>
<text text-anchor="start" x="213" y="-241.3" font-family="Times,serif" font-size="14.00"> v5 = v14</text>
</g>
<!-- Node0xf256770&#45;&gt;Node0xf256d00 -->
<g id="edge4" class="edge"><title>Node0xf256770&#45;&gt;Node0xf256d00</title>
<path fill="none" stroke="black" d="M201.273,-353.27C206.946,-347.833 212.659,-341.561 217,-335 227.86,-318.585 235.685,-297.822 240.757,-281.361"/>
<polygon fill="black" stroke="black" points="244.121,-282.325 243.561,-271.745 237.401,-280.365 244.121,-282.325"/>
<text text-anchor="middle" x="268" y="-323.8" font-family="Times,serif" font-size="14.00">v10 == v11</text>
</g>
<!-- Node0xf256880 -->
<g id="node6" class="node"><title>Node0xf256880</title>
<polygon fill="none" stroke="black" points="24.5,-97.5 24.5,-165.5 361.5,-165.5 361.5,-97.5 24.5,-97.5"/>
<text text-anchor="start" x="32.5" y="-150.3" font-family="Times,serif" font-size="14.00">0x411e88:</text>
<text text-anchor="start" x="32.5" y="-135.3" font-family="Times,serif" font-size="14.00"> v15 = *(&amp;(v5[&#39;1&#39;]))</text>
<text text-anchor="start" x="32.5" y="-120.3" font-family="Times,serif" font-size="14.00"> *(IntToPtrCastExpr&lt;ptr&gt;((v12 + 4))) = v15</text>
<text text-anchor="start" x="32.5" y="-105.3" font-family="Times,serif" font-size="14.00"> return</text>
</g>
<!-- Node0x7b2fd60&#45;&gt;Node0xf256880 -->
<g id="edge5" class="edge"><title>Node0x7b2fd60&#45;&gt;Node0xf256880</title>
<path fill="none" stroke="black" d="M144.116,-203.441C150.786,-193.761 157.746,-183.662 164.252,-174.22"/>
<polygon fill="black" stroke="black" points="167.286,-175.985 170.078,-165.764 161.522,-172.013 167.286,-175.985"/>
</g>
<!-- Node0xf256d00&#45;&gt;Node0xf256880 -->
<g id="edge6" class="edge"><title>Node0xf256d00&#45;&gt;Node0xf256880</title>
<path fill="none" stroke="black" d="M239.647,-233.426C232.487,-217.935 221.889,-195.005 212.603,-174.914"/>
<polygon fill="black" stroke="black" points="215.682,-173.232 208.309,-165.623 209.328,-176.169 215.682,-173.232"/>
</g>
<!-- Node0xf256600 -->
<g id="node7" class="node"><title>Node0xf256600</title>
<polygon fill="none" stroke="black" points="166,-23.5 166,-59.5 220,-59.5 220,-23.5 166,-23.5"/>
<text text-anchor="start" x="174" y="-37.8" font-family="Times,serif" font-size="14.00">exit:</text>
</g>
<!-- Node0xf256880&#45;&gt;Node0xf256600 -->
<g id="edge7" class="edge"><title>Node0xf256880&#45;&gt;Node0xf256600</title>
<path fill="none" stroke="black" d="M193,-97.4817C193,-88.3281 193,-78.4972 193,-69.7155"/>
<polygon fill="black" stroke="black" points="196.5,-69.6402 193,-59.6402 189.5,-69.6403 196.5,-69.6402"/>
</g>
</g>
</svg>
