<?xml version="1.0" encoding="UTF-8" standalone="no"?>
<!DOCTYPE svg PUBLIC "-//W3C//DTD SVG 1.1//EN"
 "http://www.w3.org/Graphics/SVG/1.1/DTD/svg11.dtd">
<!-- Generated by graphviz version 2.38.0 (20140413.2041)
 -->
<!-- Title: Control&#45;flow graph for function &#39;function_4256b3(a1, a2)&#39;. Pages: 1 -->
<svg width="722pt" height="2775pt"
 viewBox="0.00 0.00 721.50 2775.00" xmlns="http://www.w3.org/2000/svg" xmlns:xlink="http://www.w3.org/1999/xlink">
<g id="graph0" class="graph" transform="scale(1 1) rotate(0) translate(4 2771)">
<title>Control&#45;flow graph for function &#39;function_4256b3(a1, a2)&#39;.</title>
<polygon fill="white" stroke="none" points="-4,4 -4,-2771 717.5,-2771 717.5,4 -4,4"/>
<text text-anchor="middle" x="356.75" y="-7.8" font-family="Times,serif" font-size="14.00">Control&#45;flow graph for function &#39;function_4256b3(a1, a2)&#39;.</text>
<!-- Node0xfc41bf0 -->
<g id="node1" class="node"><title>Node0xfc41bf0</title>
<polygon fill="none" stroke="black" points="366.5,-2713.5 366.5,-2766.5 425.5,-2766.5 425.5,-2713.5 366.5,-2713.5"/>
<text text-anchor="start" x="374.5" y="-2751.3" font-family="Times,serif" font-size="14.00">entry:</text>
<text text-anchor="start" x="374.5" y="-2736.3" font-family="Times,serif" font-size="14.00"> a1</text>
<text text-anchor="start" x="374.5" y="-2721.3" font-family="Times,serif" font-size="14.00"> a2</text>
</g>
<!-- Node0xfc41a80 -->
<g id="node2" class="node"><title>Node0xfc41a80</title>
<polygon fill="none" stroke="black" points="237,-1752.5 237,-2675.5 555,-2675.5 555,-1752.5 237,-1752.5"/>
<text text-anchor="start" x="245" y="-2660.3" font-family="Times,serif" font-size="14.00">v1</text>
<text text-anchor="start" x="245" y="-2645.3" font-family="Times,serif" font-size="14.00"> v2</text>
<text text-anchor="start" x="245" y="-2630.3" font-family="Times,serif" font-size="14.00"> v3</text>
<text text-anchor="start" x="245" y="-2615.3" font-family="Times,serif" font-size="14.00"> v4</text>
<text text-anchor="start" x="245" y="-2600.3" font-family="Times,serif" font-size="14.00"> v5</text>
<text text-anchor="start" x="245" y="-2585.3" font-family="Times,serif" font-size="14.00"> v6</text>
<text text-anchor="start" x="245" y="-2570.3" font-family="Times,serif" font-size="14.00"> v7</text>
<text text-anchor="start" x="245" y="-2555.3" font-family="Times,serif" font-size="14.00"> v8</text>
<text text-anchor="start" x="245" y="-2540.3" font-family="Times,serif" font-size="14.00"> v9</text>
<text text-anchor="start" x="245" y="-2525.3" font-family="Times,serif" font-size="14.00"> v10</text>
<text text-anchor="start" x="245" y="-2510.3" font-family="Times,serif" font-size="14.00"> v11</text>
<text text-anchor="start" x="245" y="-2495.3" font-family="Times,serif" font-size="14.00"> v12</text>
<text text-anchor="start" x="245" y="-2480.3" font-family="Times,serif" font-size="14.00"> v13</text>
<text text-anchor="start" x="245" y="-2465.3" font-family="Times,serif" font-size="14.00"> v14</text>
<text text-anchor="start" x="245" y="-2450.3" font-family="Times,serif" font-size="14.00"> v15</text>
<text text-anchor="start" x="245" y="-2435.3" font-family="Times,serif" font-size="14.00"> v16</text>
<text text-anchor="start" x="245" y="-2420.3" font-family="Times,serif" font-size="14.00"> v17</text>
<text text-anchor="start" x="245" y="-2405.3" font-family="Times,serif" font-size="14.00"> v18</text>
<text text-anchor="start" x="245" y="-2390.3" font-family="Times,serif" font-size="14.00"> v19</text>
<text text-anchor="start" x="245" y="-2375.3" font-family="Times,serif" font-size="14.00"> v20</text>
<text text-anchor="start" x="245" y="-2360.3" font-family="Times,serif" font-size="14.00"> v21</text>
<text text-anchor="start" x="245" y="-2345.3" font-family="Times,serif" font-size="14.00"> v22</text>
<text text-anchor="start" x="245" y="-2330.3" font-family="Times,serif" font-size="14.00"> v23</text>
<text text-anchor="start" x="245" y="-2315.3" font-family="Times,serif" font-size="14.00"> v24</text>
<text text-anchor="start" x="245" y="-2300.3" font-family="Times,serif" font-size="14.00"> v25</text>
<text text-anchor="start" x="245" y="-2285.3" font-family="Times,serif" font-size="14.00"> v26</text>
<text text-anchor="start" x="245" y="-2270.3" font-family="Times,serif" font-size="14.00"> v27</text>
<text text-anchor="start" x="245" y="-2255.3" font-family="Times,serif" font-size="14.00"> v28</text>
<text text-anchor="start" x="245" y="-2240.3" font-family="Times,serif" font-size="14.00"> v29</text>
<text text-anchor="start" x="245" y="-2225.3" font-family="Times,serif" font-size="14.00"> v30</text>
<text text-anchor="start" x="245" y="-2210.3" font-family="Times,serif" font-size="14.00"> v31</text>
<text text-anchor="start" x="245" y="-2195.3" font-family="Times,serif" font-size="14.00"> v32</text>
<text text-anchor="start" x="245" y="-2180.3" font-family="Times,serif" font-size="14.00"> v33</text>
<text text-anchor="start" x="245" y="-2165.3" font-family="Times,serif" font-size="14.00"> v34</text>
<text text-anchor="start" x="245" y="-2150.3" font-family="Times,serif" font-size="14.00"> v35</text>
<text text-anchor="start" x="245" y="-2135.3" font-family="Times,serif" font-size="14.00"> v36</text>
<text text-anchor="start" x="245" y="-2120.3" font-family="Times,serif" font-size="14.00"> v37</text>
<text text-anchor="start" x="245" y="-2105.3" font-family="Times,serif" font-size="14.00"> v38</text>
<text text-anchor="start" x="245" y="-2090.3" font-family="Times,serif" font-size="14.00"> v39</text>
<text text-anchor="start" x="245" y="-2075.3" font-family="Times,serif" font-size="14.00"> v40</text>
<text text-anchor="start" x="245" y="-2060.3" font-family="Times,serif" font-size="14.00"> v41</text>
<text text-anchor="start" x="245" y="-2045.3" font-family="Times,serif" font-size="14.00"> v42</text>
<text text-anchor="start" x="245" y="-2030.3" font-family="Times,serif" font-size="14.00"> v43</text>
<text text-anchor="start" x="245" y="-2015.3" font-family="Times,serif" font-size="14.00"> v44</text>
<text text-anchor="start" x="245" y="-2000.3" font-family="Times,serif" font-size="14.00"> v45</text>
<text text-anchor="start" x="245" y="-1985.3" font-family="Times,serif" font-size="14.00"> v46</text>
<text text-anchor="start" x="245" y="-1970.3" font-family="Times,serif" font-size="14.00"> v47</text>
<text text-anchor="start" x="245" y="-1955.3" font-family="Times,serif" font-size="14.00"> v48</text>
<text text-anchor="start" x="245" y="-1940.3" font-family="Times,serif" font-size="14.00"> v49</text>
<text text-anchor="start" x="245" y="-1925.3" font-family="Times,serif" font-size="14.00"> v50</text>
<text text-anchor="start" x="245" y="-1910.3" font-family="Times,serif" font-size="14.00"> v51</text>
<text text-anchor="start" x="245" y="-1895.3" font-family="Times,serif" font-size="14.00"> v15 = v16</text>
<text text-anchor="start" x="245" y="-1880.3" font-family="Times,serif" font-size="14.00"> v12 = v13</text>
<text text-anchor="start" x="245" y="-1865.3" font-family="Times,serif" font-size="14.00"> v27 = g9</text>
<text text-anchor="start" x="245" y="-1850.3" font-family="Times,serif" font-size="14.00"> v28 = g7</text>
<text text-anchor="start" x="245" y="-1835.3" font-family="Times,serif" font-size="14.00"> v19 = v28</text>
<text text-anchor="start" x="245" y="-1820.3" font-family="Times,serif" font-size="14.00"> g10 = PtrToIntCastExpr&lt;int32&gt;(&amp;(v19))</text>
<text text-anchor="start" x="245" y="-1805.3" font-family="Times,serif" font-size="14.00"> g7 = a1</text>
<text text-anchor="start" x="245" y="-1790.3" font-family="Times,serif" font-size="14.00"> v29 = g5</text>
<text text-anchor="start" x="245" y="-1775.3" font-family="Times,serif" font-size="14.00"> g9 = v29</text>
<text text-anchor="start" x="245" y="-1760.3" font-family="Times,serif" font-size="14.00"> v30 = a1</text>
</g>
<!-- Node0xfc41bf0&#45;&gt;Node0xfc41a80 -->
<g id="edge1" class="edge"><title>Node0xfc41bf0&#45;&gt;Node0xfc41a80</title>
<path fill="none" stroke="black" d="M396,-2713.37C396,-2705.66 396,-2696.41 396,-2685.88"/>
<polygon fill="black" stroke="black" points="399.5,-2685.85 396,-2675.85 392.5,-2685.85 399.5,-2685.85"/>
</g>
<!-- Node0x4c45900 -->
<g id="node3" class="node"><title>Node0x4c45900</title>
<polygon fill="none" stroke="black" points="303,-1678.5 303,-1714.5 489,-1714.5 489,-1678.5 303,-1678.5"/>
<text text-anchor="start" x="311" y="-1692.8" font-family="Times,serif" font-size="14.00">if (a1 &lt;= 4294967295):</text>
</g>
<!-- Node0xfc41a80&#45;&gt;Node0x4c45900 -->
<g id="edge2" class="edge"><title>Node0xfc41a80&#45;&gt;Node0x4c45900</title>
<path fill="none" stroke="black" d="M396,-1752.18C396,-1741.65 396,-1732.35 396,-1724.54"/>
<polygon fill="black" stroke="black" points="399.5,-1724.53 396,-1714.53 392.5,-1724.53 399.5,-1724.53"/>
</g>
<!-- Node0xfbefcd0 -->
<g id="node4" class="node"><title>Node0xfbefcd0</title>
<polygon fill="none" stroke="black" points="311.5,-1573.5 311.5,-1626.5 400.5,-1626.5 400.5,-1573.5 311.5,-1573.5"/>
<text text-anchor="start" x="319.5" y="-1611.3" font-family="Times,serif" font-size="14.00">0x4256bf:</text>
<text text-anchor="start" x="319.5" y="-1596.3" font-family="Times,serif" font-size="14.00"> g7 = 0</text>
<text text-anchor="start" x="319.5" y="-1581.3" font-family="Times,serif" font-size="14.00"> v30 = 0</text>
</g>
<!-- Node0x4c45900&#45;&gt;Node0xfbefcd0 -->
<g id="edge3" class="edge"><title>Node0x4c45900&#45;&gt;Node0xfbefcd0</title>
<path fill="none" stroke="black" d="M338.839,-1678.48C330.974,-1673.73 323.92,-1667.69 319,-1660 313.823,-1651.91 315.419,-1643.17 320.084,-1634.95"/>
<polygon fill="black" stroke="black" points="323.042,-1636.82 325.9,-1626.62 317.303,-1632.81 323.042,-1636.82"/>
<text text-anchor="middle" x="389.5" y="-1648.8" font-family="Times,serif" font-size="14.00">a1 &lt;= 4294967295</text>
</g>
<!-- Node0xfc67860 -->
<g id="node5" class="node"><title>Node0xfc67860</title>
<polygon fill="none" stroke="black" points="269.5,-1452.5 269.5,-1535.5 606.5,-1535.5 606.5,-1452.5 269.5,-1452.5"/>
<text text-anchor="start" x="277.5" y="-1520.3" font-family="Times,serif" font-size="14.00">0x4256c1:</text>
<text text-anchor="start" x="277.5" y="-1505.3" font-family="Times,serif" font-size="14.00"> v43 = *(IntToPtrCastExpr&lt;ptr&gt;((v29 + 8)))</text>
<text text-anchor="start" x="277.5" y="-1490.3" font-family="Times,serif" font-size="14.00"> g2 = v43</text>
<text text-anchor="start" x="277.5" y="-1475.3" font-family="Times,serif" font-size="14.00"> v1 = IntToPtrCastExpr&lt;ptr&gt;((v43 + 8))</text>
<text text-anchor="start" x="277.5" y="-1460.3" font-family="Times,serif" font-size="14.00"> v51 = *(v1)</text>
</g>
<!-- Node0x4c45900&#45;&gt;Node0xfc67860 -->
<g id="edge4" class="edge"><title>Node0x4c45900&#45;&gt;Node0xfc67860</title>
<path fill="none" stroke="black" d="M441.437,-1678.44C448.852,-1673.62 455.551,-1667.55 460,-1660 480.374,-1625.4 472.153,-1579.76 460.374,-1545.25"/>
<polygon fill="black" stroke="black" points="463.662,-1544.05 456.978,-1535.83 457.077,-1546.42 463.662,-1544.05"/>
<text text-anchor="middle" x="537.5" y="-1596.3" font-family="Times,serif" font-size="14.00">a1 &gt; 4294967295</text>
</g>
<!-- Node0xfbefcd0&#45;&gt;Node0xfc67860 -->
<g id="edge5" class="edge"><title>Node0xfbefcd0&#45;&gt;Node0xfc67860</title>
<path fill="none" stroke="black" d="M376.27,-1573.29C383.305,-1564.37 391.446,-1554.04 399.461,-1543.88"/>
<polygon fill="black" stroke="black" points="402.395,-1545.81 405.838,-1535.79 396.898,-1541.48 402.395,-1545.81"/>
</g>
<!-- Node0xfc678c0 -->
<g id="node6" class="node"><title>Node0xfc678c0</title>
<polygon fill="none" stroke="black" points="378.5,-1376.5 378.5,-1414.5 497.5,-1414.5 497.5,-1376.5 378.5,-1376.5"/>
<text text-anchor="start" x="386.5" y="-1399.3" font-family="Times,serif" font-size="14.00">if (v30 &gt; v51):</text>
<text text-anchor="start" x="386.5" y="-1384.3" font-family="Times,serif" font-size="14.00"> else:</text>
</g>
<!-- Node0xfc67860&#45;&gt;Node0xfc678c0 -->
<g id="edge6" class="edge"><title>Node0xfc67860&#45;&gt;Node0xfc678c0</title>
<path fill="none" stroke="black" d="M438,-1452.35C438,-1443.08 438,-1433.43 438,-1424.8"/>
<polygon fill="black" stroke="black" points="441.5,-1424.54 438,-1414.54 434.5,-1424.54 441.5,-1424.54"/>
</g>
<!-- Node0xfb8e8d0 -->
<g id="node7" class="node"><title>Node0xfb8e8d0</title>
<polygon fill="none" stroke="black" points="301.5,-1211.5 301.5,-1324.5 458.5,-1324.5 458.5,-1211.5 301.5,-1211.5"/>
<text text-anchor="start" x="309.5" y="-1309.3" font-family="Times,serif" font-size="14.00">0x4256c9:</text>
<text text-anchor="start" x="309.5" y="-1294.3" font-family="Times,serif" font-size="14.00"> v33 = g203</text>
<text text-anchor="start" x="309.5" y="-1279.3" font-family="Times,serif" font-size="14.00"> g5 = v33</text>
<text text-anchor="start" x="309.5" y="-1264.3" font-family="Times,serif" font-size="14.00"> g1 = False</text>
<text text-anchor="start" x="309.5" y="-1249.3" font-family="Times,serif" font-size="14.00"> g207 = (v33 == 0)</text>
<text text-anchor="start" x="309.5" y="-1234.3" font-family="Times,serif" font-size="14.00"> v31 = v30</text>
<text text-anchor="start" x="309.5" y="-1219.3" font-family="Times,serif" font-size="14.00"> v38 = v29</text>
</g>
<!-- Node0xfc678c0&#45;&gt;Node0xfb8e8d0 -->
<g id="edge7" class="edge"><title>Node0xfc678c0&#45;&gt;Node0xfb8e8d0</title>
<path fill="none" stroke="black" d="M429.566,-1376.25C424.287,-1364.83 417.135,-1349.35 409.908,-1333.71"/>
<polygon fill="black" stroke="black" points="413.029,-1332.13 405.657,-1324.52 406.675,-1335.06 413.029,-1332.13"/>
<text text-anchor="middle" x="458" y="-1346.8" font-family="Times,serif" font-size="14.00">v30 &gt; v51</text>
</g>
<!-- Node0xfc1e5d0 -->
<g id="node8" class="node"><title>Node0xfc1e5d0</title>
<polygon fill="none" stroke="black" points="376.5,-974.5 376.5,-1192.5 713.5,-1192.5 713.5,-974.5 376.5,-974.5"/>
<text text-anchor="start" x="384.5" y="-1177.3" font-family="Times,serif" font-size="14.00">0x4256f4:</text>
<text text-anchor="start" x="384.5" y="-1162.3" font-family="Times,serif" font-size="14.00"> *(IntToPtrCastExpr&lt;ptr&gt;((v43 + 12))) = &#45;1</text>
<text text-anchor="start" x="384.5" y="-1147.3" font-family="Times,serif" font-size="14.00"> v40 = g9</text>
<text text-anchor="start" x="384.5" y="-1132.3" font-family="Times,serif" font-size="14.00"> v48 = *(IntToPtrCastExpr&lt;ptr&gt;((v40 + 8)))</text>
<text text-anchor="start" x="384.5" y="-1117.3" font-family="Times,serif" font-size="14.00"> g2 = v48</text>
<text text-anchor="start" x="384.5" y="-1102.3" font-family="Times,serif" font-size="14.00"> *(IntToPtrCastExpr&lt;ptr&gt;((v48 + 4))) = 0</text>
<text text-anchor="start" x="384.5" y="-1087.3" font-family="Times,serif" font-size="14.00"> v41 = g9</text>
<text text-anchor="start" x="384.5" y="-1072.3" font-family="Times,serif" font-size="14.00"> v49 = *(IntToPtrCastExpr&lt;ptr&gt;((v41 + 8)))</text>
<text text-anchor="start" x="384.5" y="-1057.3" font-family="Times,serif" font-size="14.00"> g2 = v49</text>
<text text-anchor="start" x="384.5" y="-1042.3" font-family="Times,serif" font-size="14.00"> *(IntToPtrCastExpr&lt;ptr&gt;(v49)) = v41</text>
<text text-anchor="start" x="384.5" y="-1027.3" font-family="Times,serif" font-size="14.00"> v42 = g9</text>
<text text-anchor="start" x="384.5" y="-1012.3" font-family="Times,serif" font-size="14.00"> v50 = *(IntToPtrCastExpr&lt;ptr&gt;((v42 + 8)))</text>
<text text-anchor="start" x="384.5" y="-997.3" font-family="Times,serif" font-size="14.00"> v8 = IntToPtrCastExpr&lt;ptr&gt;(v50)</text>
<text text-anchor="start" x="384.5" y="-982.3" font-family="Times,serif" font-size="14.00"> v9 = v8</text>
</g>
<!-- Node0xfc678c0&#45;&gt;Node0xfc1e5d0 -->
<g id="edge8" class="edge"><title>Node0xfc678c0&#45;&gt;Node0xfc1e5d0</title>
<path fill="none" stroke="black" d="M479.473,-1376.41C486.972,-1371.44 493.989,-1365.34 499,-1358 529.737,-1312.99 542.285,-1254.3 546.72,-1202.84"/>
<polygon fill="black" stroke="black" points="550.226,-1202.89 547.502,-1192.65 543.247,-1202.35 550.226,-1202.89"/>
<text text-anchor="middle" x="551" y="-1346.8" font-family="Times,serif" font-size="14.00">v30 &lt;= v51</text>
</g>
<!-- Node0xfb8e930 -->
<g id="node9" class="node"><title>Node0xfb8e930</title>
<polygon fill="none" stroke="black" points="307,-919.5 307,-955.5 415,-955.5 415,-919.5 307,-919.5"/>
<text text-anchor="start" x="315" y="-933.8" font-family="Times,serif" font-size="14.00">if (v33 != 0):</text>
</g>
<!-- Node0xfb8e8d0&#45;&gt;Node0xfb8e930 -->
<g id="edge9" class="edge"><title>Node0xfb8e8d0&#45;&gt;Node0xfb8e930</title>
<path fill="none" stroke="black" d="M376.158,-1211.24C375.756,-1205.09 375.362,-1198.91 375,-1193 369.938,-1110.4 364.801,-1012.67 362.399,-965.993"/>
<polygon fill="black" stroke="black" points="365.884,-965.593 361.876,-955.785 358.893,-965.951 365.884,-965.593"/>
</g>
<!-- Node0xfcacf90 -->
<g id="node10" class="node"><title>Node0xfcacf90</title>
<polygon fill="none" stroke="black" points="401,-817.5 401,-900.5 689,-900.5 689,-817.5 401,-817.5"/>
<text text-anchor="start" x="409" y="-885.3" font-family="Times,serif" font-size="14.00">0x425707:</text>
<text text-anchor="start" x="409" y="-870.3" font-family="Times,serif" font-size="14.00"> v37 = v19</text>
<text text-anchor="start" x="409" y="-855.3" font-family="Times,serif" font-size="14.00"> g7 = v37</text>
<text text-anchor="start" x="409" y="-840.3" font-family="Times,serif" font-size="14.00"> g9 = v27</text>
<text text-anchor="start" x="409" y="-825.3" font-family="Times,serif" font-size="14.00"> return PtrToIntCastExpr&lt;int32&gt;(v9)</text>
</g>
<!-- Node0xfc1e5d0&#45;&gt;Node0xfcacf90 -->
<g id="edge10" class="edge"><title>Node0xfc1e5d0&#45;&gt;Node0xfcacf90</title>
<path fill="none" stroke="black" d="M545,-974.183C545,-951.99 545,-929.64 545,-910.672"/>
<polygon fill="black" stroke="black" points="548.5,-910.504 545,-900.504 541.5,-910.504 548.5,-910.504"/>
</g>
<!-- Node0xfbfabe0 -->
<g id="node11" class="node"><title>Node0xfbfabe0</title>
<polygon fill="none" stroke="black" points="0,-610.5 0,-798.5 338,-798.5 338,-610.5 0,-610.5"/>
<text text-anchor="start" x="8" y="-783.3" font-family="Times,serif" font-size="14.00">0x4256d3:</text>
<text text-anchor="start" x="8" y="-768.3" font-family="Times,serif" font-size="14.00"> v34 = *(IntToPtrCastExpr&lt;ptr&gt;(v33))</text>
<text text-anchor="start" x="8" y="-753.3" font-family="Times,serif" font-size="14.00"> g8 = v34</text>
<text text-anchor="start" x="8" y="-738.3" font-family="Times,serif" font-size="14.00"> v44 = *(v1)</text>
<text text-anchor="start" x="8" y="-723.3" font-family="Times,serif" font-size="14.00"> v12 = v30</text>
<text text-anchor="start" x="8" y="-708.3" font-family="Times,serif" font-size="14.00"> g10 = PtrToIntCastExpr&lt;int32&gt;(&amp;(v12))</text>
<text text-anchor="start" x="8" y="-693.3" font-family="Times,serif" font-size="14.00"> v45 = *(IntToPtrCastExpr&lt;ptr&gt;(v34))</text>
<text text-anchor="start" x="8" y="-678.3" font-family="Times,serif" font-size="14.00"> IntToPtrCastExpr&lt;ptr&gt;(v45)(v30, v44, v43)</text>
<text text-anchor="start" x="8" y="-663.3" font-family="Times,serif" font-size="14.00"> v39 = g9</text>
<text text-anchor="start" x="8" y="-648.3" font-family="Times,serif" font-size="14.00"> v32 = g7</text>
<text text-anchor="start" x="8" y="-633.3" font-family="Times,serif" font-size="14.00"> v31 = v32</text>
<text text-anchor="start" x="8" y="-618.3" font-family="Times,serif" font-size="14.00"> v38 = v39</text>
</g>
<!-- Node0xfb8e930&#45;&gt;Node0xfbfabe0 -->
<g id="edge11" class="edge"><title>Node0xfb8e930&#45;&gt;Node0xfbfabe0</title>
<path fill="none" stroke="black" d="M323.07,-919.423C313.941,-914.284 304.632,-908.093 297,-901 268.22,-874.255 242.896,-839.766 222.533,-807.221"/>
<polygon fill="black" stroke="black" points="225.417,-805.23 217.194,-798.549 219.457,-808.9 225.417,-805.23"/>
<text text-anchor="middle" x="328.5" y="-855.3" font-family="Times,serif" font-size="14.00">v33 != 0</text>
</g>
<!-- Node0xfb74bd0 -->
<g id="node12" class="node"><title>Node0xfb74bd0</title>
<polygon fill="none" stroke="black" points="119.5,-429.5 119.5,-572.5 456.5,-572.5 456.5,-429.5 119.5,-429.5"/>
<text text-anchor="start" x="127.5" y="-557.3" font-family="Times,serif" font-size="14.00">0x4256dc:</text>
<text text-anchor="start" x="127.5" y="-542.3" font-family="Times,serif" font-size="14.00"> v46 = *(IntToPtrCastExpr&lt;ptr&gt;((v38 + 4)))</text>
<text text-anchor="start" x="127.5" y="-527.3" font-family="Times,serif" font-size="14.00"> g5 = v46</text>
<text text-anchor="start" x="127.5" y="-512.3" font-family="Times,serif" font-size="14.00"> v35 = *(IntToPtrCastExpr&lt;ptr&gt;(v46))</text>
<text text-anchor="start" x="127.5" y="-497.3" font-family="Times,serif" font-size="14.00"> v2 = IntToPtrCastExpr&lt;ptr&gt;(v35)</text>
<text text-anchor="start" x="127.5" y="-482.3" font-family="Times,serif" font-size="14.00"> v15 = v31</text>
<text text-anchor="start" x="127.5" y="-467.3" font-family="Times,serif" font-size="14.00"> g10 = PtrToIntCastExpr&lt;int32&gt;(&amp;(v15))</text>
<text text-anchor="start" x="127.5" y="-452.3" font-family="Times,serif" font-size="14.00"> v47 = *(IntToPtrCastExpr&lt;ptr&gt;(v35))</text>
<text text-anchor="start" x="127.5" y="-437.3" font-family="Times,serif" font-size="14.00"> IntToPtrCastExpr&lt;ptr&gt;(v47)(v31, v27)</text>
</g>
<!-- Node0xfb8e930&#45;&gt;Node0xfb74bd0 -->
<g id="edge12" class="edge"><title>Node0xfb8e930&#45;&gt;Node0xfb74bd0</title>
<path fill="none" stroke="black" d="M363.049,-919.399C368.365,-870.144 380.003,-724.188 347,-610 344.286,-600.61 340.658,-591.126 336.529,-581.883"/>
<polygon fill="black" stroke="black" points="339.655,-580.307 332.248,-572.733 333.315,-583.273 339.655,-580.307"/>
<text text-anchor="middle" x="404.5" y="-700.8" font-family="Times,serif" font-size="14.00">v33 == 0</text>
</g>
<!-- Node0xc25bb70 -->
<g id="node13" class="node"><title>Node0xc25bb70</title>
<polygon fill="none" stroke="black" points="469,-23.5 469,-59.5 523,-59.5 523,-23.5 469,-23.5"/>
<text text-anchor="start" x="477" y="-37.8" font-family="Times,serif" font-size="14.00">exit:</text>
</g>
<!-- Node0xfcacf90&#45;&gt;Node0xc25bb70 -->
<g id="edge13" class="edge"><title>Node0xfcacf90&#45;&gt;Node0xc25bb70</title>
<path fill="none" stroke="black" d="M545,-817.442C545,-765.282 545,-671.892 545,-592 545,-592 545,-592 545,-138 545,-112.217 530.687,-86.4076 517.532,-68.1319"/>
<polygon fill="black" stroke="black" points="520.056,-65.6668 511.235,-59.7984 514.472,-69.8869 520.056,-65.6668"/>
</g>
<!-- Node0xfbfabe0&#45;&gt;Node0xfb74bd0 -->
<g id="edge14" class="edge"><title>Node0xfbfabe0&#45;&gt;Node0xfb74bd0</title>
<path fill="none" stroke="black" d="M223.972,-610.418C229.707,-600.707 235.498,-590.9 241.131,-581.362"/>
<polygon fill="black" stroke="black" points="244.182,-583.079 246.254,-572.688 238.155,-579.519 244.182,-583.079"/>
</g>
<!-- Node0xfb74c30 -->
<g id="node14" class="node"><title>Node0xfb74c30</title>
<polygon fill="none" stroke="black" points="234,-353.5 234,-391.5 342,-391.5 342,-353.5 234,-353.5"/>
<text text-anchor="start" x="242" y="-376.3" font-family="Times,serif" font-size="14.00">if (v35 != 0):</text>
<text text-anchor="start" x="242" y="-361.3" font-family="Times,serif" font-size="14.00"> else:</text>
</g>
<!-- Node0xfb74bd0&#45;&gt;Node0xfb74c30 -->
<g id="edge15" class="edge"><title>Node0xfb74bd0&#45;&gt;Node0xfb74c30</title>
<path fill="none" stroke="black" d="M288,-429.353C288,-419.594 288,-410.073 288,-401.737"/>
<polygon fill="black" stroke="black" points="291.5,-401.54 288,-391.54 284.5,-401.54 291.5,-401.54"/>
</g>
<!-- Node0xfc0ae60 -->
<g id="node15" class="node"><title>Node0xfc0ae60</title>
<polygon fill="none" stroke="black" points="55.5,-218.5 55.5,-301.5 388.5,-301.5 388.5,-218.5 55.5,-218.5"/>
<text text-anchor="start" x="63.5" y="-286.3" font-family="Times,serif" font-size="14.00">0x4256ec:</text>
<text text-anchor="start" x="63.5" y="-271.3" font-family="Times,serif" font-size="14.00"> *(IntToPtrCastExpr&lt;ptr&gt;((v35 + 12))) = &#45;1</text>
<text text-anchor="start" x="63.5" y="-256.3" font-family="Times,serif" font-size="14.00"> v36 = g9</text>
<text text-anchor="start" x="63.5" y="-241.3" font-family="Times,serif" font-size="14.00"> *(&amp;(v2[&#39;0&#39;])) = v36</text>
<text text-anchor="start" x="63.5" y="-226.3" font-family="Times,serif" font-size="14.00"> v9 = v2</text>
</g>
<!-- Node0xfb74c30&#45;&gt;Node0xfc0ae60 -->
<g id="edge16" class="edge"><title>Node0xfb74c30&#45;&gt;Node0xfc0ae60</title>
<path fill="none" stroke="black" d="M277.101,-353.253C270.123,-341.57 260.705,-325.801 251.63,-310.608"/>
<polygon fill="black" stroke="black" points="254.48,-308.554 246.347,-301.764 248.47,-312.144 254.48,-308.554"/>
<text text-anchor="middle" x="296.5" y="-323.8" font-family="Times,serif" font-size="14.00">v35 != 0</text>
</g>
<!-- Node0xfc0afd0 -->
<g id="node16" class="node"><title>Node0xfc0afd0</title>
<polygon fill="none" stroke="black" points="407,-242 407,-278 479,-278 479,-242 407,-242"/>
<text text-anchor="start" x="415" y="-256.3" font-family="Times,serif" font-size="14.00">v9 = v2</text>
</g>
<!-- Node0xfb74c30&#45;&gt;Node0xfc0afd0 -->
<g id="edge17" class="edge"><title>Node0xfb74c30&#45;&gt;Node0xfc0afd0</title>
<path fill="none" stroke="black" d="M319.425,-353.301C341.695,-339.968 371.945,-320.96 397,-302 403.838,-296.826 410.903,-290.872 417.384,-285.134"/>
<polygon fill="black" stroke="black" points="420.144,-287.358 425.218,-278.057 415.451,-282.163 420.144,-287.358"/>
<text text-anchor="middle" x="406.5" y="-323.8" font-family="Times,serif" font-size="14.00">v35 == 0</text>
</g>
<!-- Node0xfc1e570 -->
<g id="node17" class="node"><title>Node0xfc1e570</title>
<polygon fill="none" stroke="black" points="229,-97.5 229,-180.5 517,-180.5 517,-97.5 229,-97.5"/>
<text text-anchor="start" x="237" y="-165.3" font-family="Times,serif" font-size="14.00">0x425707:</text>
<text text-anchor="start" x="237" y="-150.3" font-family="Times,serif" font-size="14.00"> v37 = v19</text>
<text text-anchor="start" x="237" y="-135.3" font-family="Times,serif" font-size="14.00"> g7 = v37</text>
<text text-anchor="start" x="237" y="-120.3" font-family="Times,serif" font-size="14.00"> g9 = v27</text>
<text text-anchor="start" x="237" y="-105.3" font-family="Times,serif" font-size="14.00"> return PtrToIntCastExpr&lt;int32&gt;(v9)</text>
</g>
<!-- Node0xfc0ae60&#45;&gt;Node0xfc1e570 -->
<g id="edge18" class="edge"><title>Node0xfc0ae60&#45;&gt;Node0xfc1e570</title>
<path fill="none" stroke="black" d="M273.543,-218.38C286.349,-208.288 300.181,-197.387 313.341,-187.016"/>
<polygon fill="black" stroke="black" points="315.745,-189.578 321.433,-180.639 311.412,-184.08 315.745,-189.578"/>
</g>
<!-- Node0xfc0afd0&#45;&gt;Node0xfc1e570 -->
<g id="edge19" class="edge"><title>Node0xfc0afd0&#45;&gt;Node0xfc1e570</title>
<path fill="none" stroke="black" d="M432.971,-241.95C424.877,-228.191 413.066,-208.113 402.062,-189.406"/>
<polygon fill="black" stroke="black" points="405,-187.496 396.913,-180.651 398.966,-191.045 405,-187.496"/>
</g>
<!-- Node0xfc1e570&#45;&gt;Node0xc25bb70 -->
<g id="edge20" class="edge"><title>Node0xfc1e570&#45;&gt;Node0xc25bb70</title>
<path fill="none" stroke="black" d="M425.163,-97.4994C439.101,-86.6775 453.695,-75.3469 465.989,-65.8014"/>
<polygon fill="black" stroke="black" points="468.344,-68.4037 474.096,-59.5064 464.051,-62.8746 468.344,-68.4037"/>
</g>
</g>
</svg>
