<?xml version="1.0" encoding="UTF-8" standalone="no"?>
<!DOCTYPE svg PUBLIC "-//W3C//DTD SVG 1.1//EN"
 "http://www.w3.org/Graphics/SVG/1.1/DTD/svg11.dtd">
<!-- Generated by graphviz version 2.38.0 (20140413.2041)
 -->
<!-- Title: Control&#45;flow graph for function &#39;function_41b21d()&#39;. Pages: 1 -->
<svg width="553pt" height="2054pt"
 viewBox="0.00 0.00 552.50 2054.00" xmlns="http://www.w3.org/2000/svg" xmlns:xlink="http://www.w3.org/1999/xlink">
<g id="graph0" class="graph" transform="scale(1 1) rotate(0) translate(4 2050)">
<title>Control&#45;flow graph for function &#39;function_41b21d()&#39;.</title>
<polygon fill="white" stroke="none" points="-4,4 -4,-2050 548.5,-2050 548.5,4 -4,4"/>
<text text-anchor="middle" x="272.25" y="-7.8" font-family="Times,serif" font-size="14.00">Control&#45;flow graph for function &#39;function_41b21d()&#39;.</text>
<!-- Node0xf642e00 -->
<g id="node1" class="node"><title>Node0xf642e00</title>
<polygon fill="none" stroke="black" points="121.5,-2009.5 121.5,-2045.5 180.5,-2045.5 180.5,-2009.5 121.5,-2009.5"/>
<text text-anchor="start" x="129.5" y="-2023.8" font-family="Times,serif" font-size="14.00">entry:</text>
</g>
<!-- Node0xf6432b0 -->
<g id="node2" class="node"><title>Node0xf6432b0</title>
<polygon fill="none" stroke="black" points="99,-1468.5 99,-1971.5 203,-1971.5 203,-1468.5 99,-1468.5"/>
<text text-anchor="start" x="107" y="-1956.3" font-family="Times,serif" font-size="14.00">v1</text>
<text text-anchor="start" x="107" y="-1941.3" font-family="Times,serif" font-size="14.00"> v2</text>
<text text-anchor="start" x="107" y="-1926.3" font-family="Times,serif" font-size="14.00"> v3</text>
<text text-anchor="start" x="107" y="-1911.3" font-family="Times,serif" font-size="14.00"> v4</text>
<text text-anchor="start" x="107" y="-1896.3" font-family="Times,serif" font-size="14.00"> v5</text>
<text text-anchor="start" x="107" y="-1881.3" font-family="Times,serif" font-size="14.00"> v6</text>
<text text-anchor="start" x="107" y="-1866.3" font-family="Times,serif" font-size="14.00"> v7</text>
<text text-anchor="start" x="107" y="-1851.3" font-family="Times,serif" font-size="14.00"> v8</text>
<text text-anchor="start" x="107" y="-1836.3" font-family="Times,serif" font-size="14.00"> v9</text>
<text text-anchor="start" x="107" y="-1821.3" font-family="Times,serif" font-size="14.00"> v10</text>
<text text-anchor="start" x="107" y="-1806.3" font-family="Times,serif" font-size="14.00"> v11</text>
<text text-anchor="start" x="107" y="-1791.3" font-family="Times,serif" font-size="14.00"> v12</text>
<text text-anchor="start" x="107" y="-1776.3" font-family="Times,serif" font-size="14.00"> v13</text>
<text text-anchor="start" x="107" y="-1761.3" font-family="Times,serif" font-size="14.00"> v14</text>
<text text-anchor="start" x="107" y="-1746.3" font-family="Times,serif" font-size="14.00"> v15</text>
<text text-anchor="start" x="107" y="-1731.3" font-family="Times,serif" font-size="14.00"> v16</text>
<text text-anchor="start" x="107" y="-1716.3" font-family="Times,serif" font-size="14.00"> v17</text>
<text text-anchor="start" x="107" y="-1701.3" font-family="Times,serif" font-size="14.00"> v18</text>
<text text-anchor="start" x="107" y="-1686.3" font-family="Times,serif" font-size="14.00"> v19</text>
<text text-anchor="start" x="107" y="-1671.3" font-family="Times,serif" font-size="14.00"> v20</text>
<text text-anchor="start" x="107" y="-1656.3" font-family="Times,serif" font-size="14.00"> v21</text>
<text text-anchor="start" x="107" y="-1641.3" font-family="Times,serif" font-size="14.00"> v22</text>
<text text-anchor="start" x="107" y="-1626.3" font-family="Times,serif" font-size="14.00"> v23</text>
<text text-anchor="start" x="107" y="-1611.3" font-family="Times,serif" font-size="14.00"> v24</text>
<text text-anchor="start" x="107" y="-1596.3" font-family="Times,serif" font-size="14.00"> v25</text>
<text text-anchor="start" x="107" y="-1581.3" font-family="Times,serif" font-size="14.00"> v26</text>
<text text-anchor="start" x="107" y="-1566.3" font-family="Times,serif" font-size="14.00"> v27</text>
<text text-anchor="start" x="107" y="-1551.3" font-family="Times,serif" font-size="14.00"> v28</text>
<text text-anchor="start" x="107" y="-1536.3" font-family="Times,serif" font-size="14.00"> v29</text>
<text text-anchor="start" x="107" y="-1521.3" font-family="Times,serif" font-size="14.00"> v30</text>
<text text-anchor="start" x="107" y="-1506.3" font-family="Times,serif" font-size="14.00"> v10 = v11</text>
<text text-anchor="start" x="107" y="-1491.3" font-family="Times,serif" font-size="14.00"> v8 = v9</text>
<text text-anchor="start" x="107" y="-1476.3" font-family="Times,serif" font-size="14.00"> v28 = g147</text>
</g>
<!-- Node0xf642e00&#45;&gt;Node0xf6432b0 -->
<g id="edge1" class="edge"><title>Node0xf642e00&#45;&gt;Node0xf6432b0</title>
<path fill="none" stroke="black" d="M151,-2009.2C151,-2001.95 151,-1992.7 151,-1982"/>
<polygon fill="black" stroke="black" points="154.5,-1981.77 151,-1971.77 147.5,-1981.77 154.5,-1981.77"/>
</g>
<!-- Node0xf643420 -->
<g id="node3" class="node"><title>Node0xf643420</title>
<polygon fill="none" stroke="black" points="94,-1394.5 94,-1430.5 208,-1430.5 208,-1394.5 94,-1394.5"/>
<text text-anchor="start" x="102" y="-1408.8" font-family="Times,serif" font-size="14.00">if (v28 == 0):</text>
</g>
<!-- Node0xf6432b0&#45;&gt;Node0xf643420 -->
<g id="edge2" class="edge"><title>Node0xf6432b0&#45;&gt;Node0xf643420</title>
<path fill="none" stroke="black" d="M151,-1468.47C151,-1458.08 151,-1448.73 151,-1440.81"/>
<polygon fill="black" stroke="black" points="154.5,-1440.61 151,-1430.61 147.5,-1440.61 154.5,-1440.61"/>
</g>
<!-- Node0xf644410 -->
<g id="node4" class="node"><title>Node0xf644410</title>
<polygon fill="none" stroke="black" points="0,-1052.5 0,-1090.5 92,-1090.5 92,-1052.5 0,-1052.5"/>
<text text-anchor="start" x="8" y="-1075.3" font-family="Times,serif" font-size="14.00">0x41b261:</text>
<text text-anchor="start" x="8" y="-1060.3" font-family="Times,serif" font-size="14.00"> return</text>
</g>
<!-- Node0xf643420&#45;&gt;Node0xf644410 -->
<g id="edge3" class="edge"><title>Node0xf643420&#45;&gt;Node0xf644410</title>
<path fill="none" stroke="black" d="M133.681,-1394.24C128.99,-1388.78 124.302,-1382.47 121,-1376 73.1153,-1282.18 54.7305,-1156.2 48.6373,-1100.73"/>
<polygon fill="black" stroke="black" points="52.0998,-1100.18 47.5775,-1090.6 45.1378,-1100.91 52.0998,-1100.18"/>
<text text-anchor="middle" x="155.5" y="-1364.8" font-family="Times,serif" font-size="14.00">v28 == 0</text>
</g>
<!-- Node0xf6437a0 -->
<g id="node5" class="node"><title>Node0xf6437a0</title>
<polygon fill="none" stroke="black" points="155.5,-1109.5 155.5,-1342.5 544.5,-1342.5 544.5,-1109.5 155.5,-1109.5"/>
<text text-anchor="start" x="163.5" y="-1327.3" font-family="Times,serif" font-size="14.00">0x41b226:</text>
<text text-anchor="start" x="163.5" y="-1312.3" font-family="Times,serif" font-size="14.00"> g147 = (v28 + &#45;1)</text>
<text text-anchor="start" x="163.5" y="-1297.3" font-family="Times,serif" font-size="14.00"> v18 = g4</text>
<text text-anchor="start" x="163.5" y="-1282.3" font-family="Times,serif" font-size="14.00"> v19 = g9</text>
<text text-anchor="start" x="163.5" y="-1267.3" font-family="Times,serif" font-size="14.00"> v20 = g7</text>
<text text-anchor="start" x="163.5" y="-1252.3" font-family="Times,serif" font-size="14.00"> v8 = v20</text>
<text text-anchor="start" x="163.5" y="-1237.3" font-family="Times,serif" font-size="14.00"> g7 = 417028</text>
<text text-anchor="start" x="163.5" y="-1222.3" font-family="Times,serif" font-size="14.00"> v10 = IntToPtrCastExpr&lt;ptr&gt;(4643408)</text>
<text text-anchor="start" x="163.5" y="-1207.3" font-family="Times,serif" font-size="14.00"> DeleteCriticalSection(BitCastExpr&lt;ptr&gt;(&amp;(g148)))</text>
<text text-anchor="start" x="163.5" y="-1192.3" font-family="Times,serif" font-size="14.00"> g9 = 4643432</text>
<text text-anchor="start" x="163.5" y="-1177.3" font-family="Times,serif" font-size="14.00"> g4 = 4643000</text>
<text text-anchor="start" x="163.5" y="-1162.3" font-family="Times,serif" font-size="14.00"> v5 = g149</text>
<text text-anchor="start" x="163.5" y="-1147.3" font-family="Times,serif" font-size="14.00"> v4 = PtrToIntCastExpr&lt;int32&gt;(&amp;(v10))</text>
<text text-anchor="start" x="163.5" y="-1132.3" font-family="Times,serif" font-size="14.00"> v21 = 4643000</text>
<text text-anchor="start" x="163.5" y="-1117.3" font-family="Times,serif" font-size="14.00"> v6 = 4643432</text>
</g>
<!-- Node0xf643420&#45;&gt;Node0xf6437a0 -->
<g id="edge4" class="edge"><title>Node0xf643420&#45;&gt;Node0xf6437a0</title>
<path fill="none" stroke="black" d="M169.365,-1394.47C181.565,-1383.16 198.802,-1367.18 217.832,-1349.54"/>
<polygon fill="black" stroke="black" points="220.253,-1352.07 225.206,-1342.7 215.494,-1346.93 220.253,-1352.07"/>
<text text-anchor="middle" x="236.5" y="-1364.8" font-family="Times,serif" font-size="14.00">v28 != 0</text>
</g>
<!-- Node0x8d96830 -->
<g id="node6" class="node"><title>Node0x8d96830</title>
<polygon fill="none" stroke="black" points="40,-23.5 40,-59.5 94,-59.5 94,-23.5 40,-23.5"/>
<text text-anchor="start" x="48" y="-37.8" font-family="Times,serif" font-size="14.00">exit:</text>
</g>
<!-- Node0xf644410&#45;&gt;Node0x8d96830 -->
<g id="edge5" class="edge"><title>Node0xf644410&#45;&gt;Node0x8d96830</title>
<path fill="none" stroke="black" d="M43.9376,-1052.47C41.8728,-1032.83 39,-1000.47 39,-972.5 39,-972.5 39,-972.5 39,-145.5 39,-118.746 47.9056,-89.4088 55.6719,-68.9114"/>
<polygon fill="black" stroke="black" points="58.9277,-70.1956 59.3489,-59.6092 52.4178,-67.6224 58.9277,-70.1956"/>
</g>
<!-- Node0xf643e20 -->
<g id="node7" class="node"><title>Node0xf643e20</title>
<polygon fill="none" stroke="black" points="319.5,-997.5 319.5,-1033.5 416.5,-1033.5 416.5,-997.5 319.5,-997.5"/>
<text text-anchor="start" x="327.5" y="-1011.8" font-family="Times,serif" font-size="14.00">while True:</text>
</g>
<!-- Node0xf6437a0&#45;&gt;Node0xf643e20 -->
<g id="edge6" class="edge"><title>Node0xf6437a0&#45;&gt;Node0xf643e20</title>
<path fill="none" stroke="black" d="M359.974,-1109.47C362.09,-1084.96 364.133,-1061.29 365.628,-1043.97"/>
<polygon fill="black" stroke="black" points="369.154,-1043.82 366.527,-1033.56 362.18,-1043.22 369.154,-1043.82"/>
</g>
<!-- Node0xf6444c0 -->
<g id="node8" class="node"><title>Node0xf6444c0</title>
<polygon fill="none" stroke="black" points="289.5,-847.5 289.5,-945.5 446.5,-945.5 446.5,-847.5 289.5,-847.5"/>
<text text-anchor="start" x="297.5" y="-930.3" font-family="Times,serif" font-size="14.00">0x41b246:</text>
<text text-anchor="start" x="297.5" y="-915.3" font-family="Times,serif" font-size="14.00"> v29 = *(&amp;(v5[v6]))</text>
<text text-anchor="start" x="297.5" y="-900.3" font-family="Times,serif" font-size="14.00"> g1 = False</text>
<text text-anchor="start" x="297.5" y="-885.3" font-family="Times,serif" font-size="14.00"> g207 = (v29 == 0)</text>
<text text-anchor="start" x="297.5" y="-870.3" font-family="Times,serif" font-size="14.00"> v26 = v6</text>
<text text-anchor="start" x="297.5" y="-855.3" font-family="Times,serif" font-size="14.00"> v24 = v21</text>
</g>
<!-- Node0xf643e20&#45;&gt;Node0xf6444c0 -->
<g id="edge7" class="edge"><title>Node0xf643e20&#45;&gt;Node0xf6444c0</title>
<path fill="none" stroke="black" d="M368,-997.487C368,-986.309 368,-970.968 368,-955.658"/>
<polygon fill="black" stroke="black" points="371.5,-955.646 368,-945.646 364.5,-955.646 371.5,-955.646"/>
<text text-anchor="middle" x="385" y="-967.8" font-family="Times,serif" font-size="14.00">True</text>
</g>
<!-- Node0xf644650 -->
<g id="node9" class="node"><title>Node0xf644650</title>
<polygon fill="none" stroke="black" points="314,-773.5 314,-809.5 422,-809.5 422,-773.5 314,-773.5"/>
<text text-anchor="start" x="322" y="-787.8" font-family="Times,serif" font-size="14.00">if (v29 != 0):</text>
</g>
<!-- Node0xf6444c0&#45;&gt;Node0xf644650 -->
<g id="edge8" class="edge"><title>Node0xf6444c0&#45;&gt;Node0xf644650</title>
<path fill="none" stroke="black" d="M368,-847.317C368,-837.893 368,-828.32 368,-819.868"/>
<polygon fill="black" stroke="black" points="371.5,-819.856 368,-809.856 364.5,-819.856 371.5,-819.856"/>
</g>
<!-- Node0xf644d50 -->
<g id="node10" class="node"><title>Node0xf644d50</title>
<polygon fill="none" stroke="black" points="67,-533.5 67,-721.5 345,-721.5 345,-533.5 67,-533.5"/>
<text text-anchor="start" x="75" y="-706.3" font-family="Times,serif" font-size="14.00">0x41b24b:</text>
<text text-anchor="start" x="75" y="-691.3" font-family="Times,serif" font-size="14.00"> v10 = IntToPtrCastExpr&lt;ptr&gt;(v21)</text>
<text text-anchor="start" x="75" y="-676.3" font-family="Times,serif" font-size="14.00"> g10 = v4</text>
<text text-anchor="start" x="75" y="-661.3" font-family="Times,serif" font-size="14.00"> v30 = g7</text>
<text text-anchor="start" x="75" y="-646.3" font-family="Times,serif" font-size="14.00"> IntToPtrCastExpr&lt;ptr&gt;(v30)(v21)</text>
<text text-anchor="start" x="75" y="-631.3" font-family="Times,serif" font-size="14.00"> v7 = g9</text>
<text text-anchor="start" x="75" y="-616.3" font-family="Times,serif" font-size="14.00"> v22 = *(&amp;(v5[v7]))</text>
<text text-anchor="start" x="75" y="-601.3" font-family="Times,serif" font-size="14.00"> *(&amp;(v5[v7])) = (v22 + &#45;1)</text>
<text text-anchor="start" x="75" y="-586.3" font-family="Times,serif" font-size="14.00"> v25 = g4</text>
<text text-anchor="start" x="75" y="-571.3" font-family="Times,serif" font-size="14.00"> v27 = g9</text>
<text text-anchor="start" x="75" y="-556.3" font-family="Times,serif" font-size="14.00"> v26 = v27</text>
<text text-anchor="start" x="75" y="-541.3" font-family="Times,serif" font-size="14.00"> v24 = v25</text>
</g>
<!-- Node0xf644650&#45;&gt;Node0xf644d50 -->
<g id="edge9" class="edge"><title>Node0xf644650&#45;&gt;Node0xf644d50</title>
<path fill="none" stroke="black" d="M331.12,-773.369C321.776,-768.16 312.101,-761.949 304,-755 294.849,-747.15 285.985,-738.326 277.572,-729.084"/>
<polygon fill="black" stroke="black" points="280.181,-726.75 270.926,-721.593 274.945,-731.396 280.181,-726.75"/>
<text text-anchor="middle" x="335.5" y="-743.8" font-family="Times,serif" font-size="14.00">v29 != 0</text>
</g>
<!-- Node0xf644850 -->
<g id="node11" class="node"><title>Node0xf644850</title>
<polygon fill="none" stroke="black" points="203.5,-412.5 203.5,-495.5 338.5,-495.5 338.5,-412.5 203.5,-412.5"/>
<text text-anchor="start" x="211.5" y="-480.3" font-family="Times,serif" font-size="14.00">0x41b250:</text>
<text text-anchor="start" x="211.5" y="-465.3" font-family="Times,serif" font-size="14.00"> v1 = (v24 + 24)</text>
<text text-anchor="start" x="211.5" y="-450.3" font-family="Times,serif" font-size="14.00"> g4 = v1</text>
<text text-anchor="start" x="211.5" y="-435.3" font-family="Times,serif" font-size="14.00"> v2 = (v26 + 4)</text>
<text text-anchor="start" x="211.5" y="-420.3" font-family="Times,serif" font-size="14.00"> g9 = v2</text>
</g>
<!-- Node0xf644650&#45;&gt;Node0xf644850 -->
<g id="edge10" class="edge"><title>Node0xf644650&#45;&gt;Node0xf644850</title>
<path fill="none" stroke="black" d="M371.259,-773.489C378.61,-730.653 392.963,-615.852 354,-533 348.938,-522.236 341.672,-512.223 333.517,-503.203"/>
<polygon fill="black" stroke="black" points="335.932,-500.665 326.486,-495.866 330.877,-505.508 335.932,-500.665"/>
<text text-anchor="middle" x="415.5" y="-623.8" font-family="Times,serif" font-size="14.00">v29 == 0</text>
</g>
<!-- Node0xf644d50&#45;&gt;Node0xf644850 -->
<g id="edge11" class="edge"><title>Node0xf644d50&#45;&gt;Node0xf644850</title>
<path fill="none" stroke="black" d="M241.258,-533.472C244.94,-523.757 248.575,-514.168 251.971,-505.207"/>
<polygon fill="black" stroke="black" points="255.282,-506.347 255.553,-495.755 248.736,-503.866 255.282,-506.347"/>
</g>
<!-- Node0x94bba60 -->
<g id="node12" class="node"><title>Node0x94bba60</title>
<polygon fill="none" stroke="black" points="191.5,-338.5 191.5,-374.5 350.5,-374.5 350.5,-338.5 191.5,-338.5"/>
<text text-anchor="start" x="199.5" y="-352.8" font-family="Times,serif" font-size="14.00">if (v1 &gt;= 4643408):</text>
</g>
<!-- Node0xf644850&#45;&gt;Node0x94bba60 -->
<g id="edge12" class="edge"><title>Node0xf644850&#45;&gt;Node0x94bba60</title>
<path fill="none" stroke="black" d="M271,-412.499C271,-403.206 271,-393.537 271,-384.946"/>
<polygon fill="black" stroke="black" points="274.5,-384.749 271,-374.749 267.5,-384.749 274.5,-384.749"/>
</g>
<!-- Node0xf645150 -->
<g id="node13" class="node"><title>Node0xf645150</title>
<polygon fill="none" stroke="black" points="95,-241 95,-279 253,-279 253,-241 95,-241"/>
<text text-anchor="start" x="103" y="-263.8" font-family="Times,serif" font-size="14.00">break &#45;&gt; 0x41b25e:</text>
<text text-anchor="start" x="103" y="-248.8" font-family="Times,serif" font-size="14.00"> break</text>
</g>
<!-- Node0x94bba60&#45;&gt;Node0xf645150 -->
<g id="edge13" class="edge"><title>Node0x94bba60&#45;&gt;Node0xf645150</title>
<path fill="none" stroke="black" d="M202.131,-338.445C193.607,-333.723 185.851,-327.695 180,-320 173.41,-311.333 171.241,-299.759 170.964,-289.158"/>
<polygon fill="black" stroke="black" points="174.466,-289.112 171.225,-279.025 167.469,-288.932 174.466,-289.112"/>
<text text-anchor="middle" x="237" y="-308.8" font-family="Times,serif" font-size="14.00">v1 &gt;= 4643408</text>
</g>
<!-- Node0x94b9650 -->
<g id="node14" class="node"><title>Node0x94b9650</title>
<polygon fill="none" stroke="black" points="299.5,-233.5 299.5,-286.5 382.5,-286.5 382.5,-233.5 299.5,-233.5"/>
<text text-anchor="start" x="307.5" y="-271.3" font-family="Times,serif" font-size="14.00">v21 = v1</text>
<text text-anchor="start" x="307.5" y="-256.3" font-family="Times,serif" font-size="14.00"> v6 = v2</text>
<text text-anchor="start" x="307.5" y="-241.3" font-family="Times,serif" font-size="14.00"> continue</text>
</g>
<!-- Node0x94bba60&#45;&gt;Node0x94b9650 -->
<g id="edge14" class="edge"><title>Node0x94bba60&#45;&gt;Node0x94b9650</title>
<path fill="none" stroke="black" d="M283.839,-338.167C292.747,-326.141 304.91,-309.722 315.726,-295.12"/>
<polygon fill="black" stroke="black" points="318.764,-296.899 321.904,-286.78 313.139,-292.732 318.764,-296.899"/>
<text text-anchor="middle" x="360" y="-308.8" font-family="Times,serif" font-size="14.00">v1 &lt; 4643408</text>
</g>
<!-- Node0xf643480 -->
<g id="node15" class="node"><title>Node0xf643480</title>
<polygon fill="none" stroke="black" points="82,-97.5 82,-195.5 174,-195.5 174,-97.5 82,-97.5"/>
<text text-anchor="start" x="90" y="-180.3" font-family="Times,serif" font-size="14.00">0x41b25e:</text>
<text text-anchor="start" x="90" y="-165.3" font-family="Times,serif" font-size="14.00"> v23 = v8</text>
<text text-anchor="start" x="90" y="-150.3" font-family="Times,serif" font-size="14.00"> g7 = v23</text>
<text text-anchor="start" x="90" y="-135.3" font-family="Times,serif" font-size="14.00"> g9 = v19</text>
<text text-anchor="start" x="90" y="-120.3" font-family="Times,serif" font-size="14.00"> g4 = v18</text>
<text text-anchor="start" x="90" y="-105.3" font-family="Times,serif" font-size="14.00"> return</text>
</g>
<!-- Node0xf645150&#45;&gt;Node0xf643480 -->
<g id="edge15" class="edge"><title>Node0xf645150&#45;&gt;Node0xf643480</title>
<path fill="none" stroke="black" d="M166.404,-240.588C162.338,-230.733 157.084,-217.997 151.775,-205.128"/>
<polygon fill="black" stroke="black" points="154.964,-203.682 147.915,-195.772 148.493,-206.351 154.964,-203.682"/>
</g>
<!-- Node0x94b9650&#45;&gt;Node0xf643e20 -->
<g id="edge16" class="edge"><title>Node0x94b9650&#45;&gt;Node0xf643e20</title>
<path fill="none" stroke="black" d="M382.849,-270.933C423.138,-283.282 478,-308.691 478,-355.5 478,-897.5 478,-897.5 478,-897.5 478,-939.039 440.74,-971.858 409.591,-992.036"/>
<polygon fill="black" stroke="black" points="407.639,-989.129 401.004,-997.389 411.341,-995.069 407.639,-989.129"/>
</g>
<!-- Node0xf643480&#45;&gt;Node0x8d96830 -->
<g id="edge17" class="edge"><title>Node0xf643480&#45;&gt;Node0x8d96830</title>
<path fill="none" stroke="black" d="M99.4646,-97.3173C93.5732,-87.3694 87.5836,-77.2558 82.3799,-68.4694"/>
<polygon fill="black" stroke="black" points="85.3861,-66.6768 77.2788,-59.8561 79.3631,-70.2439 85.3861,-66.6768"/>
</g>
</g>
</svg>
