<?xml version="1.0" encoding="UTF-8" standalone="no"?>
<!DOCTYPE svg PUBLIC "-//W3C//DTD SVG 1.1//EN"
 "http://www.w3.org/Graphics/SVG/1.1/DTD/svg11.dtd">
<!-- Generated by graphviz version 2.38.0 (20140413.2041)
 -->
<!-- Title: Control&#45;flow graph for function &#39;function_4029b0(*a1, *a2)&#39;. Pages: 1 -->
<svg width="576pt" height="1255pt"
 viewBox="0.00 0.00 575.50 1255.00" xmlns="http://www.w3.org/2000/svg" xmlns:xlink="http://www.w3.org/1999/xlink">
<g id="graph0" class="graph" transform="scale(1 1) rotate(0) translate(4 1251)">
<title>Control&#45;flow graph for function &#39;function_4029b0(*a1, *a2)&#39;.</title>
<polygon fill="white" stroke="none" points="-4,4 -4,-1251 571.5,-1251 571.5,4 -4,4"/>
<text text-anchor="middle" x="283.75" y="-7.8" font-family="Times,serif" font-size="14.00">Control&#45;flow graph for function &#39;function_4029b0(*a1, *a2)&#39;.</text>
<!-- Node0xef06f50 -->
<g id="node1" class="node"><title>Node0xef06f50</title>
<polygon fill="none" stroke="black" points="371,-1193.5 371,-1246.5 430,-1246.5 430,-1193.5 371,-1193.5"/>
<text text-anchor="start" x="379" y="-1231.3" font-family="Times,serif" font-size="14.00">entry:</text>
<text text-anchor="start" x="379" y="-1216.3" font-family="Times,serif" font-size="14.00"> a1</text>
<text text-anchor="start" x="379" y="-1201.3" font-family="Times,serif" font-size="14.00"> a2</text>
</g>
<!-- Node0xef07380 -->
<g id="node2" class="node"><title>Node0xef07380</title>
<polygon fill="none" stroke="black" points="246,-577.5 246,-1155.5 555,-1155.5 555,-577.5 246,-577.5"/>
<text text-anchor="start" x="254" y="-1140.3" font-family="Times,serif" font-size="14.00">v1</text>
<text text-anchor="start" x="254" y="-1125.3" font-family="Times,serif" font-size="14.00"> v2</text>
<text text-anchor="start" x="254" y="-1110.3" font-family="Times,serif" font-size="14.00"> v3</text>
<text text-anchor="start" x="254" y="-1095.3" font-family="Times,serif" font-size="14.00"> v4</text>
<text text-anchor="start" x="254" y="-1080.3" font-family="Times,serif" font-size="14.00"> v5</text>
<text text-anchor="start" x="254" y="-1065.3" font-family="Times,serif" font-size="14.00"> v6</text>
<text text-anchor="start" x="254" y="-1050.3" font-family="Times,serif" font-size="14.00"> v7</text>
<text text-anchor="start" x="254" y="-1035.3" font-family="Times,serif" font-size="14.00"> v8</text>
<text text-anchor="start" x="254" y="-1020.3" font-family="Times,serif" font-size="14.00"> v9</text>
<text text-anchor="start" x="254" y="-1005.3" font-family="Times,serif" font-size="14.00"> v10</text>
<text text-anchor="start" x="254" y="-990.3" font-family="Times,serif" font-size="14.00"> v11</text>
<text text-anchor="start" x="254" y="-975.3" font-family="Times,serif" font-size="14.00"> v12</text>
<text text-anchor="start" x="254" y="-960.3" font-family="Times,serif" font-size="14.00"> v13</text>
<text text-anchor="start" x="254" y="-945.3" font-family="Times,serif" font-size="14.00"> v14</text>
<text text-anchor="start" x="254" y="-930.3" font-family="Times,serif" font-size="14.00"> v15</text>
<text text-anchor="start" x="254" y="-915.3" font-family="Times,serif" font-size="14.00"> v16</text>
<text text-anchor="start" x="254" y="-900.3" font-family="Times,serif" font-size="14.00"> v17</text>
<text text-anchor="start" x="254" y="-885.3" font-family="Times,serif" font-size="14.00"> v18</text>
<text text-anchor="start" x="254" y="-870.3" font-family="Times,serif" font-size="14.00"> result</text>
<text text-anchor="start" x="254" y="-855.3" font-family="Times,serif" font-size="14.00"> v19</text>
<text text-anchor="start" x="254" y="-840.3" font-family="Times,serif" font-size="14.00"> v20</text>
<text text-anchor="start" x="254" y="-825.3" font-family="Times,serif" font-size="14.00"> v21</text>
<text text-anchor="start" x="254" y="-810.3" font-family="Times,serif" font-size="14.00"> v22</text>
<text text-anchor="start" x="254" y="-795.3" font-family="Times,serif" font-size="14.00"> v23</text>
<text text-anchor="start" x="254" y="-780.3" font-family="Times,serif" font-size="14.00"> v7 = v8</text>
<text text-anchor="start" x="254" y="-765.3" font-family="Times,serif" font-size="14.00"> v5 = v6</text>
<text text-anchor="start" x="254" y="-750.3" font-family="Times,serif" font-size="14.00"> v10 = v11</text>
<text text-anchor="start" x="254" y="-735.3" font-family="Times,serif" font-size="14.00"> v12 = v13</text>
<text text-anchor="start" x="254" y="-720.3" font-family="Times,serif" font-size="14.00"> v10 = a1</text>
<text text-anchor="start" x="254" y="-705.3" font-family="Times,serif" font-size="14.00"> v12 = a2</text>
<text text-anchor="start" x="254" y="-690.3" font-family="Times,serif" font-size="14.00"> g10 = PtrToIntCastExpr&lt;int32&gt;(&amp;(v5))</text>
<text text-anchor="start" x="254" y="-675.3" font-family="Times,serif" font-size="14.00"> v15 = g5</text>
<text text-anchor="start" x="254" y="-660.3" font-family="Times,serif" font-size="14.00"> g9 = v15</text>
<text text-anchor="start" x="254" y="-645.3" font-family="Times,serif" font-size="14.00"> v22 = PtrToIntCastExpr&lt;int32&gt;(a1)</text>
<text text-anchor="start" x="254" y="-630.3" font-family="Times,serif" font-size="14.00"> g5 = v22</text>
<text text-anchor="start" x="254" y="-615.3" font-family="Times,serif" font-size="14.00"> g1 = False</text>
<text text-anchor="start" x="254" y="-600.3" font-family="Times,serif" font-size="14.00"> g207 = (a1 == NULL)</text>
<text text-anchor="start" x="254" y="-585.3" font-family="Times,serif" font-size="14.00"> v16 = v22</text>
</g>
<!-- Node0xef06f50&#45;&gt;Node0xef07380 -->
<g id="edge1" class="edge"><title>Node0xef06f50&#45;&gt;Node0xef07380</title>
<path fill="none" stroke="black" d="M400.5,-1193.44C400.5,-1185.58 400.5,-1176.16 400.5,-1165.57"/>
<polygon fill="black" stroke="black" points="404,-1165.53 400.5,-1155.53 397,-1165.53 404,-1165.53"/>
</g>
<!-- Node0xef06fb0 -->
<g id="node3" class="node"><title>Node0xef06fb0</title>
<polygon fill="none" stroke="black" points="330.5,-503.5 330.5,-539.5 470.5,-539.5 470.5,-503.5 330.5,-503.5"/>
<text text-anchor="start" x="338.5" y="-517.8" font-family="Times,serif" font-size="14.00">if (a1 == NULL):</text>
</g>
<!-- Node0xef07380&#45;&gt;Node0xef06fb0 -->
<g id="edge2" class="edge"><title>Node0xef07380&#45;&gt;Node0xef06fb0</title>
<path fill="none" stroke="black" d="M400.5,-577.229C400.5,-566.957 400.5,-557.75 400.5,-549.948"/>
<polygon fill="black" stroke="black" points="404,-549.89 400.5,-539.89 397,-549.89 404,-549.89"/>
</g>
<!-- Node0xef07d60 -->
<g id="node4" class="node"><title>Node0xef07d60</title>
<polygon fill="none" stroke="black" points="0,-368.5 0,-451.5 427,-451.5 427,-368.5 0,-368.5"/>
<text text-anchor="start" x="8" y="-436.3" font-family="Times,serif" font-size="14.00">0x4029bb:</text>
<text text-anchor="start" x="8" y="-421.3" font-family="Times,serif" font-size="14.00"> v7 = IntToPtrCastExpr&lt;ptr&gt;(&#45;2147467259)</text>
<text text-anchor="start" x="8" y="-406.3" font-family="Times,serif" font-size="14.00"> function_4024f0(IntToPtrCastExpr&lt;ptr&gt;(&#45;2147467259))</text>
<text text-anchor="start" x="8" y="-391.3" font-family="Times,serif" font-size="14.00"> v17 = g5</text>
<text text-anchor="start" x="8" y="-376.3" font-family="Times,serif" font-size="14.00"> v16 = v17</text>
</g>
<!-- Node0xef06fb0&#45;&gt;Node0xef07d60 -->
<g id="edge3" class="edge"><title>Node0xef06fb0&#45;&gt;Node0xef07d60</title>
<path fill="none" stroke="black" d="M371.281,-503.391C349.87,-490.853 319.742,-473.211 291.544,-456.699"/>
<polygon fill="black" stroke="black" points="293.264,-453.651 282.866,-451.618 289.727,-459.692 293.264,-453.651"/>
<text text-anchor="middle" x="382.5" y="-473.8" font-family="Times,serif" font-size="14.00">a1 == NULL</text>
</g>
<!-- Node0xef078d0 -->
<g id="node5" class="node"><title>Node0xef078d0</title>
<polygon fill="none" stroke="black" points="221.5,-97.5 221.5,-330.5 567.5,-330.5 567.5,-97.5 221.5,-97.5"/>
<text text-anchor="start" x="229.5" y="-315.3" font-family="Times,serif" font-size="14.00">0x4029c5:</text>
<text text-anchor="start" x="229.5" y="-300.3" font-family="Times,serif" font-size="14.00"> v19 = *(IntToPtrCastExpr&lt;ptr&gt;(v16))</text>
<text text-anchor="start" x="229.5" y="-285.3" font-family="Times,serif" font-size="14.00"> g2 = v19</text>
<text text-anchor="start" x="229.5" y="-270.3" font-family="Times,serif" font-size="14.00"> v23 = *(IntToPtrCastExpr&lt;ptr&gt;((v19 + 12)))</text>
<text text-anchor="start" x="229.5" y="-255.3" font-family="Times,serif" font-size="14.00"> g8 = v23</text>
<text text-anchor="start" x="229.5" y="-240.3" font-family="Times,serif" font-size="14.00"> IntToPtrCastExpr&lt;ptr&gt;(v23)()</text>
<text text-anchor="start" x="229.5" y="-225.3" font-family="Times,serif" font-size="14.00"> v21 = g2</text>
<text text-anchor="start" x="229.5" y="-210.3" font-family="Times,serif" font-size="14.00"> v1 = (v21 + 16)</text>
<text text-anchor="start" x="229.5" y="-195.3" font-family="Times,serif" font-size="14.00"> g2 = v1</text>
<text text-anchor="start" x="229.5" y="-180.3" font-family="Times,serif" font-size="14.00"> v18 = g9</text>
<text text-anchor="start" x="229.5" y="-165.3" font-family="Times,serif" font-size="14.00"> *(IntToPtrCastExpr&lt;ptr&gt;(v18)) = v1</text>
<text text-anchor="start" x="229.5" y="-150.3" font-family="Times,serif" font-size="14.00"> result = g9</text>
<text text-anchor="start" x="229.5" y="-135.3" font-family="Times,serif" font-size="14.00"> v20 = v5</text>
<text text-anchor="start" x="229.5" y="-120.3" font-family="Times,serif" font-size="14.00"> g9 = v20</text>
<text text-anchor="start" x="229.5" y="-105.3" font-family="Times,serif" font-size="14.00"> return result</text>
</g>
<!-- Node0xef06fb0&#45;&gt;Node0xef078d0 -->
<g id="edge4" class="edge"><title>Node0xef06fb0&#45;&gt;Node0xef078d0</title>
<path fill="none" stroke="black" d="M420.715,-503.495C425.774,-498.129 430.584,-491.807 433.5,-485 439.286,-471.494 435.055,-466.687 435.5,-452 436.63,-414.684 440.373,-405.014 435.5,-368 434.327,-359.09 432.785,-349.962 430.988,-340.816"/>
<polygon fill="black" stroke="black" points="434.39,-339.982 428.943,-330.894 427.534,-341.395 434.39,-339.982"/>
<text text-anchor="middle" x="482.5" y="-406.3" font-family="Times,serif" font-size="14.00">a1 != NULL</text>
</g>
<!-- Node0xef07d60&#45;&gt;Node0xef078d0 -->
<g id="edge5" class="edge"><title>Node0xef07d60&#45;&gt;Node0xef078d0</title>
<path fill="none" stroke="black" d="M251.444,-368.331C260.035,-359.123 269.592,-348.879 279.579,-338.175"/>
<polygon fill="black" stroke="black" points="282.292,-340.397 286.555,-330.698 277.174,-335.622 282.292,-340.397"/>
</g>
<!-- Node0x5739780 -->
<g id="node6" class="node"><title>Node0x5739780</title>
<polygon fill="none" stroke="black" points="367.5,-23.5 367.5,-59.5 421.5,-59.5 421.5,-23.5 367.5,-23.5"/>
<text text-anchor="start" x="375.5" y="-37.8" font-family="Times,serif" font-size="14.00">exit:</text>
</g>
<!-- Node0xef078d0&#45;&gt;Node0x5739780 -->
<g id="edge6" class="edge"><title>Node0xef078d0&#45;&gt;Node0x5739780</title>
<path fill="none" stroke="black" d="M394.5,-97.3858C394.5,-87.4233 394.5,-78.0972 394.5,-70.0599"/>
<polygon fill="black" stroke="black" points="398,-69.9601 394.5,-59.9601 391,-69.9602 398,-69.9601"/>
</g>
</g>
</svg>
