<?xml version="1.0" encoding="UTF-8" standalone="no"?>
<!DOCTYPE svg PUBLIC "-//W3C//DTD SVG 1.1//EN"
 "http://www.w3.org/Graphics/SVG/1.1/DTD/svg11.dtd">
<!-- Generated by graphviz version 2.38.0 (20140413.2041)
 -->
<!-- Title: Control&#45;flow graph for function &#39;function_401cb0()&#39;. Pages: 1 -->
<svg width="588pt" height="1028pt"
 viewBox="0.00 0.00 587.50 1028.00" xmlns="http://www.w3.org/2000/svg" xmlns:xlink="http://www.w3.org/1999/xlink">
<g id="graph0" class="graph" transform="scale(1 1) rotate(0) translate(4 1024)">
<title>Control&#45;flow graph for function &#39;function_401cb0()&#39;.</title>
<polygon fill="white" stroke="none" points="-4,4 -4,-1024 583.5,-1024 583.5,4 -4,4"/>
<text text-anchor="middle" x="289.75" y="-7.8" font-family="Times,serif" font-size="14.00">Control&#45;flow graph for function &#39;function_401cb0()&#39;.</text>
<!-- Node0xeffa970 -->
<g id="node1" class="node"><title>Node0xeffa970</title>
<polygon fill="none" stroke="black" points="235,-983.5 235,-1019.5 294,-1019.5 294,-983.5 235,-983.5"/>
<text text-anchor="start" x="243" y="-997.8" font-family="Times,serif" font-size="14.00">entry:</text>
</g>
<!-- Node0xefefa30 -->
<g id="node2" class="node"><title>Node0xefefa30</title>
<polygon fill="none" stroke="black" points="24,-442.5 24,-945.5 505,-945.5 505,-442.5 24,-442.5"/>
<text text-anchor="start" x="32" y="-930.3" font-family="Times,serif" font-size="14.00">v1</text>
<text text-anchor="start" x="32" y="-915.3" font-family="Times,serif" font-size="14.00"> v2</text>
<text text-anchor="start" x="32" y="-900.3" font-family="Times,serif" font-size="14.00"> v3</text>
<text text-anchor="start" x="32" y="-885.3" font-family="Times,serif" font-size="14.00"> v4</text>
<text text-anchor="start" x="32" y="-870.3" font-family="Times,serif" font-size="14.00"> v5</text>
<text text-anchor="start" x="32" y="-855.3" font-family="Times,serif" font-size="14.00"> v6</text>
<text text-anchor="start" x="32" y="-840.3" font-family="Times,serif" font-size="14.00"> v7</text>
<text text-anchor="start" x="32" y="-825.3" font-family="Times,serif" font-size="14.00"> v8</text>
<text text-anchor="start" x="32" y="-810.3" font-family="Times,serif" font-size="14.00"> v9</text>
<text text-anchor="start" x="32" y="-795.3" font-family="Times,serif" font-size="14.00"> v10</text>
<text text-anchor="start" x="32" y="-780.3" font-family="Times,serif" font-size="14.00"> v11</text>
<text text-anchor="start" x="32" y="-765.3" font-family="Times,serif" font-size="14.00"> v12</text>
<text text-anchor="start" x="32" y="-750.3" font-family="Times,serif" font-size="14.00"> v13</text>
<text text-anchor="start" x="32" y="-735.3" font-family="Times,serif" font-size="14.00"> v14</text>
<text text-anchor="start" x="32" y="-720.3" font-family="Times,serif" font-size="14.00"> v15</text>
<text text-anchor="start" x="32" y="-705.3" font-family="Times,serif" font-size="14.00"> v16</text>
<text text-anchor="start" x="32" y="-690.3" font-family="Times,serif" font-size="14.00"> v17</text>
<text text-anchor="start" x="32" y="-675.3" font-family="Times,serif" font-size="14.00"> v18</text>
<text text-anchor="start" x="32" y="-660.3" font-family="Times,serif" font-size="14.00"> v19</text>
<text text-anchor="start" x="32" y="-645.3" font-family="Times,serif" font-size="14.00"> v14 = g5</text>
<text text-anchor="start" x="32" y="-630.3" font-family="Times,serif" font-size="14.00"> v9 = v14</text>
<text text-anchor="start" x="32" y="-615.3" font-family="Times,serif" font-size="14.00"> v15 = g9</text>
<text text-anchor="start" x="32" y="-600.3" font-family="Times,serif" font-size="14.00"> v1 = IntToPtrCastExpr&lt;ptr&gt;(v15)</text>
<text text-anchor="start" x="32" y="-585.3" font-family="Times,serif" font-size="14.00"> g9 = v14</text>
<text text-anchor="start" x="32" y="-570.3" font-family="Times,serif" font-size="14.00"> v3 = function_411b2c()</text>
<text text-anchor="start" x="32" y="-555.3" font-family="Times,serif" font-size="14.00"> v16 = *(IntToPtrCastExpr&lt;ptr&gt;(v3))</text>
<text text-anchor="start" x="32" y="-540.3" font-family="Times,serif" font-size="14.00"> g5 = v16</text>
<text text-anchor="start" x="32" y="-525.3" font-family="Times,serif" font-size="14.00"> g8 = PtrToIntCastExpr&lt;int32&gt;(&amp;(v9))</text>
<text text-anchor="start" x="32" y="-510.3" font-family="Times,serif" font-size="14.00"> v17 = *(IntToPtrCastExpr&lt;ptr&gt;(v16))</text>
<text text-anchor="start" x="32" y="-495.3" font-family="Times,serif" font-size="14.00"> g2 = v17</text>
<text text-anchor="start" x="32" y="-480.3" font-family="Times,serif" font-size="14.00"> IntToPtrCastExpr&lt;ptr&gt;(v17)(v3, PtrToIntCastExpr&lt;int32&gt;(&quot;&quot;))</text>
<text text-anchor="start" x="32" y="-465.3" font-family="Times,serif" font-size="14.00"> g1 = (v1 &lt; BitCastExpr&lt;ptr&gt;(&quot;&quot;))</text>
<text text-anchor="start" x="32" y="-450.3" font-family="Times,serif" font-size="14.00"> g207 = (v1 == BitCastExpr&lt;ptr&gt;(&quot;&quot;))</text>
</g>
<!-- Node0xeffa970&#45;&gt;Node0xefefa30 -->
<g id="edge1" class="edge"><title>Node0xeffa970&#45;&gt;Node0xefefa30</title>
<path fill="none" stroke="black" d="M264.5,-983.2C264.5,-975.952 264.5,-966.704 264.5,-955.998"/>
<polygon fill="black" stroke="black" points="268,-955.77 264.5,-945.77 261,-955.77 268,-955.77"/>
</g>
<!-- Node0xeffa910 -->
<g id="node3" class="node"><title>Node0xeffa910</title>
<polygon fill="none" stroke="black" points="137.5,-368.5 137.5,-404.5 391.5,-404.5 391.5,-368.5 137.5,-368.5"/>
<text text-anchor="start" x="145.5" y="-382.8" font-family="Times,serif" font-size="14.00">if (v1 == BitCastExpr&lt;ptr&gt;(&quot;&quot;)):</text>
</g>
<!-- Node0xefefa30&#45;&gt;Node0xeffa910 -->
<g id="edge2" class="edge"><title>Node0xefefa30&#45;&gt;Node0xeffa910</title>
<path fill="none" stroke="black" d="M264.5,-442.47C264.5,-432.079 264.5,-422.729 264.5,-414.812"/>
<polygon fill="black" stroke="black" points="268,-414.614 264.5,-404.614 261,-414.614 268,-414.614"/>
</g>
<!-- Node0xeffb000 -->
<g id="node4" class="node"><title>Node0xeffb000</title>
<polygon fill="none" stroke="black" points="-2.84217e-14,-263.5 -2.84217e-14,-316.5 329,-316.5 329,-263.5 -2.84217e-14,-263.5"/>
<text text-anchor="start" x="8" y="-301.3" font-family="Times,serif" font-size="14.00">0x401cd4:</text>
<text text-anchor="start" x="8" y="-286.3" font-family="Times,serif" font-size="14.00"> v18 = g9</text>
<text text-anchor="start" x="8" y="-271.3" font-family="Times,serif" font-size="14.00"> *(IntToPtrCastExpr&lt;ptr&gt;((v18 + 84))) = 1</text>
</g>
<!-- Node0xeffa910&#45;&gt;Node0xeffb000 -->
<g id="edge3" class="edge"><title>Node0xeffa910&#45;&gt;Node0xeffb000</title>
<path fill="none" stroke="black" d="M174.302,-368.355C166.242,-363.608 159.047,-357.598 153.5,-350 148.564,-343.239 147.81,-334.912 149.098,-326.666"/>
<polygon fill="black" stroke="black" points="152.544,-327.307 151.539,-316.76 145.748,-325.632 152.544,-327.307"/>
<text text-anchor="middle" x="258" y="-338.8" font-family="Times,serif" font-size="14.00">v1 == BitCastExpr&lt;ptr&gt;(&quot;&quot;)</text>
</g>
<!-- Node0xeffaec0 -->
<g id="node5" class="node"><title>Node0xeffaec0</title>
<polygon fill="none" stroke="black" points="90,-97.5 90,-225.5 545,-225.5 545,-97.5 90,-97.5"/>
<text text-anchor="start" x="98" y="-210.3" font-family="Times,serif" font-size="14.00">0x401cd8:</text>
<text text-anchor="start" x="98" y="-195.3" font-family="Times,serif" font-size="14.00"> g5 = 0</text>
<text text-anchor="start" x="98" y="-180.3" font-family="Times,serif" font-size="14.00"> v19 = *(IntToPtrCastExpr&lt;ptr&gt;(8))</text>
<text text-anchor="start" x="98" y="-165.3" font-family="Times,serif" font-size="14.00"> g8 = v19</text>
<text text-anchor="start" x="98" y="-150.3" font-family="Times,serif" font-size="14.00"> IntToPtrCastExpr&lt;ptr&gt;(v19)(PtrToIntCastExpr&lt;int32&gt;(&quot;&quot;))</text>
<text text-anchor="start" x="98" y="-135.3" font-family="Times,serif" font-size="14.00"> g9 = PtrToIntCastExpr&lt;int32&gt;(&quot;&quot;)</text>
<text text-anchor="start" x="98" y="-120.3" font-family="Times,serif" font-size="14.00"> g5 = v3</text>
<text text-anchor="start" x="98" y="-105.3" font-family="Times,serif" font-size="14.00"> return PtrToIntCastExpr&lt;int32&gt;(&quot;&quot;)</text>
</g>
<!-- Node0xeffa910&#45;&gt;Node0xeffaec0 -->
<g id="edge4" class="edge"><title>Node0xeffa910&#45;&gt;Node0xeffaec0</title>
<path fill="none" stroke="black" d="M341.719,-368.475C349.845,-363.743 357.097,-357.704 362.5,-350 386.068,-316.396 376.738,-271.97 360.617,-234.798"/>
<polygon fill="black" stroke="black" points="363.719,-233.164 356.388,-225.515 357.348,-236.066 363.719,-233.164"/>
<text text-anchor="middle" x="478" y="-286.3" font-family="Times,serif" font-size="14.00">v1 != BitCastExpr&lt;ptr&gt;(&quot;&quot;)</text>
</g>
<!-- Node0xeffb000&#45;&gt;Node0xeffaec0 -->
<g id="edge5" class="edge"><title>Node0xeffb000&#45;&gt;Node0xeffaec0</title>
<path fill="none" stroke="black" d="M195.462,-263.401C206.557,-254.228 219.661,-243.393 233.094,-232.287"/>
<polygon fill="black" stroke="black" points="235.551,-234.796 241.028,-225.727 231.091,-229.402 235.551,-234.796"/>
</g>
<!-- Node0xeffa580 -->
<g id="node6" class="node"><title>Node0xeffa580</title>
<polygon fill="none" stroke="black" points="290.5,-23.5 290.5,-59.5 344.5,-59.5 344.5,-23.5 290.5,-23.5"/>
<text text-anchor="start" x="298.5" y="-37.8" font-family="Times,serif" font-size="14.00">exit:</text>
</g>
<!-- Node0xeffaec0&#45;&gt;Node0xeffa580 -->
<g id="edge6" class="edge"><title>Node0xeffaec0&#45;&gt;Node0xeffa580</title>
<path fill="none" stroke="black" d="M317.5,-97.3546C317.5,-87.7534 317.5,-78.2993 317.5,-70.016"/>
<polygon fill="black" stroke="black" points="321,-69.8875 317.5,-59.8875 314,-69.8876 321,-69.8875"/>
</g>
</g>
</svg>
