<?xml version="1.0" encoding="UTF-8" standalone="no"?>
<!DOCTYPE svg PUBLIC "-//W3C//DTD SVG 1.1//EN"
 "http://www.w3.org/Graphics/SVG/1.1/DTD/svg11.dtd">
<!-- Generated by graphviz version 2.38.0 (20140413.2041)
 -->
<!-- Title: Control&#45;flow graph for function &#39;function_417d2c(a1)&#39;. Pages: 1 -->
<svg width="461pt" height="821pt"
 viewBox="0.00 0.00 461.00 821.00" xmlns="http://www.w3.org/2000/svg" xmlns:xlink="http://www.w3.org/1999/xlink">
<g id="graph0" class="graph" transform="scale(1 1) rotate(0) translate(4 817)">
<title>Control&#45;flow graph for function &#39;function_417d2c(a1)&#39;.</title>
<polygon fill="white" stroke="none" points="-4,4 -4,-817 457,-817 457,4 -4,4"/>
<text text-anchor="middle" x="226.5" y="-7.8" font-family="Times,serif" font-size="14.00">Control&#45;flow graph for function &#39;function_417d2c(a1)&#39;.</text>
<!-- Node0xf4ec720 -->
<g id="node1" class="node"><title>Node0xf4ec720</title>
<polygon fill="none" stroke="black" points="259.5,-774.5 259.5,-812.5 318.5,-812.5 318.5,-774.5 259.5,-774.5"/>
<text text-anchor="start" x="267.5" y="-797.3" font-family="Times,serif" font-size="14.00">entry:</text>
<text text-anchor="start" x="267.5" y="-782.3" font-family="Times,serif" font-size="14.00"> a1</text>
</g>
<!-- Node0xf4ecd00 -->
<g id="node2" class="node"><title>Node0xf4ecd00</title>
<polygon fill="none" stroke="black" points="125,-533.5 125,-736.5 453,-736.5 453,-533.5 125,-533.5"/>
<text text-anchor="start" x="133" y="-721.3" font-family="Times,serif" font-size="14.00">v1</text>
<text text-anchor="start" x="133" y="-706.3" font-family="Times,serif" font-size="14.00"> v2</text>
<text text-anchor="start" x="133" y="-691.3" font-family="Times,serif" font-size="14.00"> result</text>
<text text-anchor="start" x="133" y="-676.3" font-family="Times,serif" font-size="14.00"> v3</text>
<text text-anchor="start" x="133" y="-661.3" font-family="Times,serif" font-size="14.00"> v4</text>
<text text-anchor="start" x="133" y="-646.3" font-family="Times,serif" font-size="14.00"> v5</text>
<text text-anchor="start" x="133" y="-631.3" font-family="Times,serif" font-size="14.00"> v6</text>
<text text-anchor="start" x="133" y="-616.3" font-family="Times,serif" font-size="14.00"> v7</text>
<text text-anchor="start" x="133" y="-601.3" font-family="Times,serif" font-size="14.00"> v8</text>
<text text-anchor="start" x="133" y="-586.3" font-family="Times,serif" font-size="14.00"> v9</text>
<text text-anchor="start" x="133" y="-571.3" font-family="Times,serif" font-size="14.00"> v7 = g5</text>
<text text-anchor="start" x="133" y="-556.3" font-family="Times,serif" font-size="14.00"> v8 = *(IntToPtrCastExpr&lt;ptr&gt;((v7 + 36)))</text>
<text text-anchor="start" x="133" y="-541.3" font-family="Times,serif" font-size="14.00"> result = v8</text>
</g>
<!-- Node0xf4ec720&#45;&gt;Node0xf4ecd00 -->
<g id="edge1" class="edge"><title>Node0xf4ec720&#45;&gt;Node0xf4ecd00</title>
<path fill="none" stroke="black" d="M289,-774.241C289,-766.664 289,-757.212 289,-746.828"/>
<polygon fill="black" stroke="black" points="292.5,-746.618 289,-736.618 285.5,-746.618 292.5,-746.618"/>
</g>
<!-- Node0xf4e6230 -->
<g id="node3" class="node"><title>Node0xf4e6230</title>
<polygon fill="none" stroke="black" points="236.5,-459.5 236.5,-495.5 341.5,-495.5 341.5,-459.5 236.5,-459.5"/>
<text text-anchor="start" x="244.5" y="-473.8" font-family="Times,serif" font-size="14.00">if (v8 == 0):</text>
</g>
<!-- Node0xf4ecd00&#45;&gt;Node0xf4e6230 -->
<g id="edge2" class="edge"><title>Node0xf4ecd00&#45;&gt;Node0xf4e6230</title>
<path fill="none" stroke="black" d="M289,-533.323C289,-523.368 289,-513.964 289,-505.847"/>
<polygon fill="black" stroke="black" points="292.5,-505.647 289,-495.647 285.5,-505.647 292.5,-505.647"/>
</g>
<!-- Node0xf4ed320 -->
<g id="node4" class="node"><title>Node0xf4ed320</title>
<polygon fill="none" stroke="black" points="0,-369.5 0,-407.5 328,-407.5 328,-369.5 0,-369.5"/>
<text text-anchor="start" x="8" y="-392.3" font-family="Times,serif" font-size="14.00">0x417d33:</text>
<text text-anchor="start" x="8" y="-377.3" font-family="Times,serif" font-size="14.00"> v9 = *(IntToPtrCastExpr&lt;ptr&gt;((v7 + 32)))</text>
</g>
<!-- Node0xf4e6230&#45;&gt;Node0xf4ed320 -->
<g id="edge3" class="edge"><title>Node0xf4e6230&#45;&gt;Node0xf4ed320</title>
<path fill="none" stroke="black" d="M264.304,-459.312C245.419,-446.167 219.157,-427.889 198.242,-413.333"/>
<polygon fill="black" stroke="black" points="200.143,-410.391 189.936,-407.551 196.144,-416.137 200.143,-410.391"/>
<text text-anchor="middle" x="268" y="-429.8" font-family="Times,serif" font-size="14.00">v8 == 0</text>
</g>
<!-- Node0xf4ed230 -->
<g id="node5" class="node"><title>Node0xf4ed230</title>
<polygon fill="none" stroke="black" points="222.5,-97.5 222.5,-135.5 335.5,-135.5 335.5,-97.5 222.5,-97.5"/>
<text text-anchor="start" x="230.5" y="-120.3" font-family="Times,serif" font-size="14.00">0x417d46:</text>
<text text-anchor="start" x="230.5" y="-105.3" font-family="Times,serif" font-size="14.00"> return result</text>
</g>
<!-- Node0xf4e6230&#45;&gt;Node0xf4ed230 -->
<g id="edge4" class="edge"><title>Node0xf4e6230&#45;&gt;Node0xf4ed230</title>
<path fill="none" stroke="black" d="M313.189,-459.438C332.38,-443.715 356,-418.477 356,-389.5 356,-389.5 356,-389.5 356,-206.5 356,-179.923 336.12,-157.376 316.562,-141.626"/>
<polygon fill="black" stroke="black" points="318.623,-138.795 308.55,-135.51 314.375,-144.359 318.623,-138.795"/>
<text text-anchor="middle" x="383" y="-308.8" font-family="Times,serif" font-size="14.00">v8 != 0</text>
</g>
<!-- Node0xf4ed3c0 -->
<g id="node6" class="node"><title>Node0xf4ed3c0</title>
<polygon fill="none" stroke="black" points="111.5,-293.5 111.5,-331.5 216.5,-331.5 216.5,-293.5 111.5,-293.5"/>
<text text-anchor="start" x="119.5" y="-316.3" font-family="Times,serif" font-size="14.00">if (v9 == 0):</text>
<text text-anchor="start" x="119.5" y="-301.3" font-family="Times,serif" font-size="14.00"> else:</text>
</g>
<!-- Node0xf4ed320&#45;&gt;Node0xf4ed3c0 -->
<g id="edge5" class="edge"><title>Node0xf4ed320&#45;&gt;Node0xf4ed3c0</title>
<path fill="none" stroke="black" d="M164,-369.208C164,-360.964 164,-351.038 164,-341.862"/>
<polygon fill="black" stroke="black" points="167.5,-341.582 164,-331.582 160.5,-341.582 167.5,-341.582"/>
</g>
<!-- Node0xf4e8920 -->
<g id="node7" class="node"><title>Node0xf4e8920</title>
<polygon fill="none" stroke="black" points="252,-23.5 252,-59.5 306,-59.5 306,-23.5 252,-23.5"/>
<text text-anchor="start" x="260" y="-37.8" font-family="Times,serif" font-size="14.00">exit:</text>
</g>
<!-- Node0xf4ed230&#45;&gt;Node0xf4e8920 -->
<g id="edge6" class="edge"><title>Node0xf4ed230&#45;&gt;Node0xf4e8920</title>
<path fill="none" stroke="black" d="M279,-97.4551C279,-89.2008 279,-79.2377 279,-70.0742"/>
<polygon fill="black" stroke="black" points="282.5,-69.8347 279,-59.8347 275.5,-69.8347 282.5,-69.8347"/>
</g>
<!-- Node0xf4e92b0 -->
<g id="node8" class="node"><title>Node0xf4e92b0</title>
<polygon fill="none" stroke="black" points="23.5,-173.5 23.5,-241.5 212.5,-241.5 212.5,-173.5 23.5,-173.5"/>
<text text-anchor="start" x="31.5" y="-226.3" font-family="Times,serif" font-size="14.00">0x417d3a:</text>
<text text-anchor="start" x="31.5" y="-211.3" font-family="Times,serif" font-size="14.00"> GetActiveWindow()</text>
<text text-anchor="start" x="31.5" y="-196.3" font-family="Times,serif" font-size="14.00"> v2 = function_40ee6b()</text>
<text text-anchor="start" x="31.5" y="-181.3" font-family="Times,serif" font-size="14.00"> result = v2</text>
</g>
<!-- Node0xf4ed3c0&#45;&gt;Node0xf4e92b0 -->
<g id="edge7" class="edge"><title>Node0xf4ed3c0&#45;&gt;Node0xf4e92b0</title>
<path fill="none" stroke="black" d="M155.776,-293.086C150.561,-281.409 143.589,-265.797 137.054,-251.165"/>
<polygon fill="black" stroke="black" points="140.12,-249.447 132.847,-241.743 133.729,-252.301 140.12,-249.447"/>
<text text-anchor="middle" x="177" y="-263.8" font-family="Times,serif" font-size="14.00">v9 == 0</text>
</g>
<!-- Node0xf4ed4f0 -->
<g id="node9" class="node"><title>Node0xf4ed4f0</title>
<polygon fill="none" stroke="black" points="230.5,-189.5 230.5,-225.5 327.5,-225.5 327.5,-189.5 230.5,-189.5"/>
<text text-anchor="start" x="238.5" y="-203.8" font-family="Times,serif" font-size="14.00">result = v9</text>
</g>
<!-- Node0xf4ed3c0&#45;&gt;Node0xf4ed4f0 -->
<g id="edge8" class="edge"><title>Node0xf4ed3c0&#45;&gt;Node0xf4ed4f0</title>
<path fill="none" stroke="black" d="M188.334,-293.446C195.753,-287.719 203.837,-281.248 211,-275 226.291,-261.662 242.57,-245.807 255.366,-232.924"/>
<polygon fill="black" stroke="black" points="257.936,-235.302 262.463,-225.723 252.951,-230.388 257.936,-235.302"/>
<text text-anchor="middle" x="254" y="-263.8" font-family="Times,serif" font-size="14.00">v9 != 0</text>
</g>
<!-- Node0xf4e92b0&#45;&gt;Node0xf4ed230 -->
<g id="edge9" class="edge"><title>Node0xf4e92b0&#45;&gt;Node0xf4ed230</title>
<path fill="none" stroke="black" d="M177.95,-173.36C197.593,-162.502 218.984,-150.676 237.007,-140.713"/>
<polygon fill="black" stroke="black" points="239.039,-143.589 246.098,-135.688 235.653,-137.463 239.039,-143.589"/>
</g>
<!-- Node0xf4ed4f0&#45;&gt;Node0xf4ed230 -->
<g id="edge10" class="edge"><title>Node0xf4ed4f0&#45;&gt;Node0xf4ed230</title>
<path fill="none" stroke="black" d="M279,-189.34C279,-177.023 279,-160.143 279,-145.841"/>
<polygon fill="black" stroke="black" points="282.5,-145.524 279,-135.524 275.5,-145.524 282.5,-145.524"/>
</g>
</g>
</svg>
