<?xml version="1.0" encoding="UTF-8" standalone="no"?>
<!DOCTYPE svg PUBLIC "-//W3C//DTD SVG 1.1//EN"
 "http://www.w3.org/Graphics/SVG/1.1/DTD/svg11.dtd">
<!-- Generated by graphviz version 2.38.0 (20140413.2041)
 -->
<!-- Title: Control&#45;flow graph for function &#39;function_41cda1(a1)&#39;. Pages: 1 -->
<svg width="467pt" height="721pt"
 viewBox="0.00 0.00 467.00 721.00" xmlns="http://www.w3.org/2000/svg" xmlns:xlink="http://www.w3.org/1999/xlink">
<g id="graph0" class="graph" transform="scale(1 1) rotate(0) translate(4 717)">
<title>Control&#45;flow graph for function &#39;function_41cda1(a1)&#39;.</title>
<polygon fill="white" stroke="none" points="-4,4 -4,-717 463,-717 463,4 -4,4"/>
<text text-anchor="middle" x="229.5" y="-7.8" font-family="Times,serif" font-size="14.00">Control&#45;flow graph for function &#39;function_41cda1(a1)&#39;.</text>
<!-- Node0xf6f5010 -->
<g id="node1" class="node"><title>Node0xf6f5010</title>
<polygon fill="none" stroke="black" points="261,-674.5 261,-712.5 320,-712.5 320,-674.5 261,-674.5"/>
<text text-anchor="start" x="269" y="-697.3" font-family="Times,serif" font-size="14.00">entry:</text>
<text text-anchor="start" x="269" y="-682.3" font-family="Times,serif" font-size="14.00"> a1</text>
</g>
<!-- Node0xf6f2e00 -->
<g id="node2" class="node"><title>Node0xf6f2e00</title>
<polygon fill="none" stroke="black" points="122,-508.5 122,-636.5 459,-636.5 459,-508.5 122,-508.5"/>
<text text-anchor="start" x="130" y="-621.3" font-family="Times,serif" font-size="14.00">result</text>
<text text-anchor="start" x="130" y="-606.3" font-family="Times,serif" font-size="14.00"> v1</text>
<text text-anchor="start" x="130" y="-591.3" font-family="Times,serif" font-size="14.00"> v2</text>
<text text-anchor="start" x="130" y="-576.3" font-family="Times,serif" font-size="14.00"> v3</text>
<text text-anchor="start" x="130" y="-561.3" font-family="Times,serif" font-size="14.00"> v4</text>
<text text-anchor="start" x="130" y="-546.3" font-family="Times,serif" font-size="14.00"> v5</text>
<text text-anchor="start" x="130" y="-531.3" font-family="Times,serif" font-size="14.00"> v3 = g5</text>
<text text-anchor="start" x="130" y="-516.3" font-family="Times,serif" font-size="14.00"> v5 = *(IntToPtrCastExpr&lt;ptr&gt;((v3 + 112)))</text>
</g>
<!-- Node0xf6f5010&#45;&gt;Node0xf6f2e00 -->
<g id="edge1" class="edge"><title>Node0xf6f5010&#45;&gt;Node0xf6f2e00</title>
<path fill="none" stroke="black" d="M290.5,-674.426C290.5,-666.592 290.5,-656.856 290.5,-646.546"/>
<polygon fill="black" stroke="black" points="294,-646.529 290.5,-636.529 287,-646.529 294,-646.529"/>
</g>
<!-- Node0xf6f2320 -->
<g id="node3" class="node"><title>Node0xf6f2320</title>
<polygon fill="none" stroke="black" points="227.5,-434.5 227.5,-470.5 353.5,-470.5 353.5,-434.5 227.5,-434.5"/>
<text text-anchor="start" x="235.5" y="-448.8" font-family="Times,serif" font-size="14.00">if (v5 != 4096):</text>
</g>
<!-- Node0xf6f2e00&#45;&gt;Node0xf6f2320 -->
<g id="edge2" class="edge"><title>Node0xf6f2e00&#45;&gt;Node0xf6f2320</title>
<path fill="none" stroke="black" d="M290.5,-508.355C290.5,-498.753 290.5,-489.299 290.5,-481.016"/>
<polygon fill="black" stroke="black" points="294,-480.887 290.5,-470.888 287,-480.888 294,-480.887"/>
</g>
<!-- Node0xf6f24d0 -->
<g id="node4" class="node"><title>Node0xf6f24d0</title>
<polygon fill="none" stroke="black" points="0,-329.5 0,-382.5 337,-382.5 337,-329.5 0,-329.5"/>
<text text-anchor="start" x="8" y="-367.3" font-family="Times,serif" font-size="14.00">0x41cda9:</text>
<text text-anchor="start" x="8" y="-352.3" font-family="Times,serif" font-size="14.00"> g2 = 0</text>
<text text-anchor="start" x="8" y="-337.3" font-family="Times,serif" font-size="14.00"> v4 = *(IntToPtrCastExpr&lt;ptr&gt;((v3 + 108)))</text>
</g>
<!-- Node0xf6f2320&#45;&gt;Node0xf6f24d0 -->
<g id="edge3" class="edge"><title>Node0xf6f2320&#45;&gt;Node0xf6f24d0</title>
<path fill="none" stroke="black" d="M268.407,-434.387C251.991,-421.671 229.124,-403.959 209.409,-388.688"/>
<polygon fill="black" stroke="black" points="211.514,-385.891 201.465,-382.534 207.227,-391.425 211.514,-385.891"/>
<text text-anchor="middle" x="285" y="-404.8" font-family="Times,serif" font-size="14.00">v5 != 4096</text>
</g>
<!-- Node0xf6f2f30 -->
<g id="node5" class="node"><title>Node0xf6f2f30</title>
<polygon fill="none" stroke="black" points="309,-257.5 309,-310.5 422,-310.5 422,-257.5 309,-257.5"/>
<text text-anchor="start" x="317" y="-295.3" font-family="Times,serif" font-size="14.00">0x41cdb1:</text>
<text text-anchor="start" x="317" y="-280.3" font-family="Times,serif" font-size="14.00"> result = 0</text>
<text text-anchor="start" x="317" y="-265.3" font-family="Times,serif" font-size="14.00"> return result</text>
</g>
<!-- Node0xf6f2320&#45;&gt;Node0xf6f2f30 -->
<g id="edge4" class="edge"><title>Node0xf6f2320&#45;&gt;Node0xf6f2f30</title>
<path fill="none" stroke="black" d="M312.105,-434.327C318.178,-428.869 324.487,-422.54 329.5,-416 350.622,-388.446 359.356,-349.269 362.965,-320.945"/>
<polygon fill="black" stroke="black" points="366.481,-320.994 364.112,-310.667 359.524,-320.217 366.481,-320.994"/>
<text text-anchor="middle" x="381" y="-404.8" font-family="Times,serif" font-size="14.00">v5 == 4096</text>
</g>
<!-- Node0xf6f3910 -->
<g id="node6" class="node"><title>Node0xf6f3910</title>
<polygon fill="none" stroke="black" points="119,-202.5 119,-238.5 218,-238.5 218,-202.5 119,-202.5"/>
<text text-anchor="start" x="127" y="-216.8" font-family="Times,serif" font-size="14.00">if (v4 != 1):</text>
</g>
<!-- Node0xf6f24d0&#45;&gt;Node0xf6f3910 -->
<g id="edge5" class="edge"><title>Node0xf6f24d0&#45;&gt;Node0xf6f3910</title>
<path fill="none" stroke="black" d="M168.5,-329.26C168.5,-306.131 168.5,-272.278 168.5,-248.709"/>
<polygon fill="black" stroke="black" points="172,-248.679 168.5,-238.679 165,-248.68 172,-248.679"/>
</g>
<!-- Node0xf6f0a40 -->
<g id="node7" class="node"><title>Node0xf6f0a40</title>
<polygon fill="none" stroke="black" points="253.5,-23.5 253.5,-59.5 307.5,-59.5 307.5,-23.5 253.5,-23.5"/>
<text text-anchor="start" x="261.5" y="-37.8" font-family="Times,serif" font-size="14.00">exit:</text>
</g>
<!-- Node0xf6f2f30&#45;&gt;Node0xf6f0a40 -->
<g id="edge6" class="edge"><title>Node0xf6f2f30&#45;&gt;Node0xf6f0a40</title>
<path fill="none" stroke="black" d="M368.728,-257.489C372.246,-219.94 374.134,-148.663 346.5,-97 339.45,-83.82 327.751,-72.5834 316.145,-63.7978"/>
<polygon fill="black" stroke="black" points="317.954,-60.7895 307.778,-57.841 313.894,-66.4919 317.954,-60.7895"/>
</g>
<!-- Node0xf6f2680 -->
<g id="node8" class="node"><title>Node0xf6f2680</title>
<polygon fill="none" stroke="black" points="93,-105 93,-143 206,-143 206,-105 93,-105"/>
<text text-anchor="start" x="101" y="-127.8" font-family="Times,serif" font-size="14.00">result = 1</text>
<text text-anchor="start" x="101" y="-112.8" font-family="Times,serif" font-size="14.00"> return result</text>
</g>
<!-- Node0xf6f3910&#45;&gt;Node0xf6f2680 -->
<g id="edge7" class="edge"><title>Node0xf6f3910&#45;&gt;Node0xf6f2680</title>
<path fill="none" stroke="black" d="M165.015,-202.167C162.256,-188.442 158.346,-168.997 155.142,-153.06"/>
<polygon fill="black" stroke="black" points="158.56,-152.303 153.157,-143.189 151.697,-153.683 158.56,-152.303"/>
<text text-anchor="middle" x="188.5" y="-172.8" font-family="Times,serif" font-size="14.00">v4 != 1</text>
</g>
<!-- Node0xf6f3880 -->
<g id="node9" class="node"><title>Node0xf6f3880</title>
<polygon fill="none" stroke="black" points="224,-97.5 224,-150.5 337,-150.5 337,-97.5 224,-97.5"/>
<text text-anchor="start" x="232" y="-135.3" font-family="Times,serif" font-size="14.00">0x41cdb1:</text>
<text text-anchor="start" x="232" y="-120.3" font-family="Times,serif" font-size="14.00"> result = 0</text>
<text text-anchor="start" x="232" y="-105.3" font-family="Times,serif" font-size="14.00"> return result</text>
</g>
<!-- Node0xf6f3910&#45;&gt;Node0xf6f3880 -->
<g id="edge8" class="edge"><title>Node0xf6f3910&#45;&gt;Node0xf6f3880</title>
<path fill="none" stroke="black" d="M194.775,-202.403C202.903,-196.802 211.752,-190.374 219.5,-184 229.278,-175.956 239.365,-166.664 248.452,-157.868"/>
<polygon fill="black" stroke="black" points="251.137,-160.138 255.821,-150.635 246.233,-155.142 251.137,-160.138"/>
<text text-anchor="middle" x="265.5" y="-172.8" font-family="Times,serif" font-size="14.00">v4 == 1</text>
</g>
<!-- Node0xf6f2680&#45;&gt;Node0xf6f0a40 -->
<g id="edge9" class="edge"><title>Node0xf6f2680&#45;&gt;Node0xf6f0a40</title>
<path fill="none" stroke="black" d="M178.899,-104.934C198.437,-92.9281 224.207,-77.0923 244.904,-64.3736"/>
<polygon fill="black" stroke="black" points="246.744,-67.3514 253.431,-59.1339 243.079,-61.3875 246.744,-67.3514"/>
</g>
<!-- Node0xf6f3880&#45;&gt;Node0xf6f0a40 -->
<g id="edge10" class="edge"><title>Node0xf6f3880&#45;&gt;Node0xf6f0a40</title>
<path fill="none" stroke="black" d="M280.5,-97.0862C280.5,-88.4596 280.5,-78.8224 280.5,-70.0748"/>
<polygon fill="black" stroke="black" points="284,-69.9735 280.5,-59.9735 277,-69.9735 284,-69.9735"/>
</g>
</g>
</svg>
