<?xml version="1.0" encoding="UTF-8" standalone="no"?>
<!DOCTYPE svg PUBLIC "-//W3C//DTD SVG 1.1//EN"
 "http://www.w3.org/Graphics/SVG/1.1/DTD/svg11.dtd">
<!-- Generated by graphviz version 2.38.0 (20140413.2041)
 -->
<!-- Title: Control&#45;flow graph for function &#39;function_43b9d0(*file_path, *a2, *a3)&#39;. Pages: 1 -->
<svg width="1255pt" height="2571pt"
 viewBox="0.00 0.00 1255.00 2571.00" xmlns="http://www.w3.org/2000/svg" xmlns:xlink="http://www.w3.org/1999/xlink">
<g id="graph0" class="graph" transform="scale(1 1) rotate(0) translate(4 2567)">
<title>Control&#45;flow graph for function &#39;function_43b9d0(*file_path, *a2, *a3)&#39;.</title>
<polygon fill="white" stroke="none" points="-4,4 -4,-2567 1251,-2567 1251,4 -4,4"/>
<text text-anchor="middle" x="623.5" y="-7.8" font-family="Times,serif" font-size="14.00">Control&#45;flow graph for function &#39;function_43b9d0(*file_path, *a2, *a3)&#39;.</text>
<!-- Node0x1019bf50 -->
<g id="node1" class="node"><title>Node0x1019bf50</title>
<polygon fill="none" stroke="black" points="396,-2494.5 396,-2562.5 479,-2562.5 479,-2494.5 396,-2494.5"/>
<text text-anchor="start" x="404" y="-2547.3" font-family="Times,serif" font-size="14.00">entry:</text>
<text text-anchor="start" x="404" y="-2532.3" font-family="Times,serif" font-size="14.00"> file_path</text>
<text text-anchor="start" x="404" y="-2517.3" font-family="Times,serif" font-size="14.00"> a2</text>
<text text-anchor="start" x="404" y="-2502.3" font-family="Times,serif" font-size="14.00"> a3</text>
</g>
<!-- Node0x101512d0 -->
<g id="node2" class="node"><title>Node0x101512d0</title>
<polygon fill="none" stroke="black" points="258,-1338.5 258,-2456.5 617,-2456.5 617,-1338.5 258,-1338.5"/>
<text text-anchor="start" x="266" y="-2441.3" font-family="Times,serif" font-size="14.00">v1</text>
<text text-anchor="start" x="266" y="-2426.3" font-family="Times,serif" font-size="14.00"> v2</text>
<text text-anchor="start" x="266" y="-2411.3" font-family="Times,serif" font-size="14.00"> v3</text>
<text text-anchor="start" x="266" y="-2396.3" font-family="Times,serif" font-size="14.00"> v4</text>
<text text-anchor="start" x="266" y="-2381.3" font-family="Times,serif" font-size="14.00"> file</text>
<text text-anchor="start" x="266" y="-2366.3" font-family="Times,serif" font-size="14.00"> v5</text>
<text text-anchor="start" x="266" y="-2351.3" font-family="Times,serif" font-size="14.00"> v6</text>
<text text-anchor="start" x="266" y="-2336.3" font-family="Times,serif" font-size="14.00"> v7</text>
<text text-anchor="start" x="266" y="-2321.3" font-family="Times,serif" font-size="14.00"> v8</text>
<text text-anchor="start" x="266" y="-2306.3" font-family="Times,serif" font-size="14.00"> v9</text>
<text text-anchor="start" x="266" y="-2291.3" font-family="Times,serif" font-size="14.00"> is_ferror</text>
<text text-anchor="start" x="266" y="-2276.3" font-family="Times,serif" font-size="14.00"> v10</text>
<text text-anchor="start" x="266" y="-2261.3" font-family="Times,serif" font-size="14.00"> v11</text>
<text text-anchor="start" x="266" y="-2246.3" font-family="Times,serif" font-size="14.00"> v12</text>
<text text-anchor="start" x="266" y="-2231.3" font-family="Times,serif" font-size="14.00"> v13</text>
<text text-anchor="start" x="266" y="-2216.3" font-family="Times,serif" font-size="14.00"> v14</text>
<text text-anchor="start" x="266" y="-2201.3" font-family="Times,serif" font-size="14.00"> v15</text>
<text text-anchor="start" x="266" y="-2186.3" font-family="Times,serif" font-size="14.00"> v16</text>
<text text-anchor="start" x="266" y="-2171.3" font-family="Times,serif" font-size="14.00"> v17</text>
<text text-anchor="start" x="266" y="-2156.3" font-family="Times,serif" font-size="14.00"> v18</text>
<text text-anchor="start" x="266" y="-2141.3" font-family="Times,serif" font-size="14.00"> v19</text>
<text text-anchor="start" x="266" y="-2126.3" font-family="Times,serif" font-size="14.00"> v20</text>
<text text-anchor="start" x="266" y="-2111.3" font-family="Times,serif" font-size="14.00"> v21</text>
<text text-anchor="start" x="266" y="-2096.3" font-family="Times,serif" font-size="14.00"> v22</text>
<text text-anchor="start" x="266" y="-2081.3" font-family="Times,serif" font-size="14.00"> v23</text>
<text text-anchor="start" x="266" y="-2066.3" font-family="Times,serif" font-size="14.00"> v24</text>
<text text-anchor="start" x="266" y="-2051.3" font-family="Times,serif" font-size="14.00"> v25</text>
<text text-anchor="start" x="266" y="-2036.3" font-family="Times,serif" font-size="14.00"> v26</text>
<text text-anchor="start" x="266" y="-2021.3" font-family="Times,serif" font-size="14.00"> v27</text>
<text text-anchor="start" x="266" y="-2006.3" font-family="Times,serif" font-size="14.00"> v28</text>
<text text-anchor="start" x="266" y="-1991.3" font-family="Times,serif" font-size="14.00"> v29</text>
<text text-anchor="start" x="266" y="-1976.3" font-family="Times,serif" font-size="14.00"> v30</text>
<text text-anchor="start" x="266" y="-1961.3" font-family="Times,serif" font-size="14.00"> v31</text>
<text text-anchor="start" x="266" y="-1946.3" font-family="Times,serif" font-size="14.00"> v32</text>
<text text-anchor="start" x="266" y="-1931.3" font-family="Times,serif" font-size="14.00"> v33</text>
<text text-anchor="start" x="266" y="-1916.3" font-family="Times,serif" font-size="14.00"> v34</text>
<text text-anchor="start" x="266" y="-1901.3" font-family="Times,serif" font-size="14.00"> v35</text>
<text text-anchor="start" x="266" y="-1886.3" font-family="Times,serif" font-size="14.00"> v36</text>
<text text-anchor="start" x="266" y="-1871.3" font-family="Times,serif" font-size="14.00"> v37</text>
<text text-anchor="start" x="266" y="-1856.3" font-family="Times,serif" font-size="14.00"> v38</text>
<text text-anchor="start" x="266" y="-1841.3" font-family="Times,serif" font-size="14.00"> v39</text>
<text text-anchor="start" x="266" y="-1826.3" font-family="Times,serif" font-size="14.00"> v40</text>
<text text-anchor="start" x="266" y="-1811.3" font-family="Times,serif" font-size="14.00"> v41</text>
<text text-anchor="start" x="266" y="-1796.3" font-family="Times,serif" font-size="14.00"> v42</text>
<text text-anchor="start" x="266" y="-1781.3" font-family="Times,serif" font-size="14.00"> v43</text>
<text text-anchor="start" x="266" y="-1766.3" font-family="Times,serif" font-size="14.00"> v44</text>
<text text-anchor="start" x="266" y="-1751.3" font-family="Times,serif" font-size="14.00"> v45</text>
<text text-anchor="start" x="266" y="-1736.3" font-family="Times,serif" font-size="14.00"> stream</text>
<text text-anchor="start" x="266" y="-1721.3" font-family="Times,serif" font-size="14.00"> v46</text>
<text text-anchor="start" x="266" y="-1706.3" font-family="Times,serif" font-size="14.00"> v47</text>
<text text-anchor="start" x="266" y="-1691.3" font-family="Times,serif" font-size="14.00"> v21 = v22</text>
<text text-anchor="start" x="266" y="-1676.3" font-family="Times,serif" font-size="14.00"> v19 = v20</text>
<text text-anchor="start" x="266" y="-1661.3" font-family="Times,serif" font-size="14.00"> v17 = v18</text>
<text text-anchor="start" x="266" y="-1646.3" font-family="Times,serif" font-size="14.00"> v15 = v16</text>
<text text-anchor="start" x="266" y="-1631.3" font-family="Times,serif" font-size="14.00"> v27 = v28</text>
<text text-anchor="start" x="266" y="-1616.3" font-family="Times,serif" font-size="14.00"> v13 = v14</text>
<text text-anchor="start" x="266" y="-1601.3" font-family="Times,serif" font-size="14.00"> v30 = v31</text>
<text text-anchor="start" x="266" y="-1586.3" font-family="Times,serif" font-size="14.00"> v26 = v29</text>
<text text-anchor="start" x="266" y="-1571.3" font-family="Times,serif" font-size="14.00"> v37 = v38</text>
<text text-anchor="start" x="266" y="-1556.3" font-family="Times,serif" font-size="14.00"> v39 = v40</text>
<text text-anchor="start" x="266" y="-1541.3" font-family="Times,serif" font-size="14.00"> v35 = v36</text>
<text text-anchor="start" x="266" y="-1526.3" font-family="Times,serif" font-size="14.00"> v33 = v34</text>
<text text-anchor="start" x="266" y="-1511.3" font-family="Times,serif" font-size="14.00"> v37 = file_path</text>
<text text-anchor="start" x="266" y="-1496.3" font-family="Times,serif" font-size="14.00"> v39 = a2</text>
<text text-anchor="start" x="266" y="-1481.3" font-family="Times,serif" font-size="14.00"> v35 = a3</text>
<text text-anchor="start" x="266" y="-1466.3" font-family="Times,serif" font-size="14.00"> g3 = PtrToIntCastExpr&lt;int32&gt;(&amp;(v26))</text>
<text text-anchor="start" x="266" y="-1451.3" font-family="Times,serif" font-size="14.00"> v1 = PtrToIntCastExpr&lt;int32&gt;(&amp;(v33))</text>
<text text-anchor="start" x="266" y="-1436.3" font-family="Times,serif" font-size="14.00"> v17 = BitCastExpr&lt;ptr&gt;(&quot;rb&quot;)</text>
<text text-anchor="start" x="266" y="-1421.3" font-family="Times,serif" font-size="14.00"> g2 = PtrToIntCastExpr&lt;int32&gt;(file_path)</text>
<text text-anchor="start" x="266" y="-1406.3" font-family="Times,serif" font-size="14.00"> v19 = file_path</text>
<text text-anchor="start" x="266" y="-1391.3" font-family="Times,serif" font-size="14.00"> file = fopen(BitCastExpr&lt;ptr&gt;(file_path), &quot;rb&quot;)</text>
<text text-anchor="start" x="266" y="-1376.3" font-family="Times,serif" font-size="14.00"> v2 = PtrToIntCastExpr&lt;int32&gt;(&amp;(v15))</text>
<text text-anchor="start" x="266" y="-1361.3" font-family="Times,serif" font-size="14.00"> g10 = v2</text>
<text text-anchor="start" x="266" y="-1346.3" font-family="Times,serif" font-size="14.00"> v13 = file</text>
</g>
<!-- Node0x1019bf50&#45;&gt;Node0x101512d0 -->
<g id="edge1" class="edge"><title>Node0x1019bf50&#45;&gt;Node0x101512d0</title>
<path fill="none" stroke="black" d="M437.5,-2494.13C437.5,-2486.19 437.5,-2477 437.5,-2466.74"/>
<polygon fill="black" stroke="black" points="441,-2466.58 437.5,-2456.58 434,-2466.58 441,-2466.58"/>
</g>
<!-- Node0x1015c6e0 -->
<g id="node3" class="node"><title>Node0x1015c6e0</title>
<polygon fill="none" stroke="black" points="365.5,-1262.5 365.5,-1300.5 509.5,-1300.5 509.5,-1262.5 365.5,-1262.5"/>
<text text-anchor="start" x="373.5" y="-1285.3" font-family="Times,serif" font-size="14.00">if (file == NULL):</text>
<text text-anchor="start" x="373.5" y="-1270.3" font-family="Times,serif" font-size="14.00"> else:</text>
</g>
<!-- Node0x101512d0&#45;&gt;Node0x1015c6e0 -->
<g id="edge2" class="edge"><title>Node0x101512d0&#45;&gt;Node0x1015c6e0</title>
<path fill="none" stroke="black" d="M437.5,-1338.34C437.5,-1327.87 437.5,-1318.62 437.5,-1310.82"/>
<polygon fill="black" stroke="black" points="441,-1310.77 437.5,-1300.77 434,-1310.77 441,-1310.77"/>
</g>
<!-- Node0x10168e60 -->
<g id="node4" class="node"><title>Node0x10168e60</title>
<polygon fill="none" stroke="black" points="264.5,-1150 264.5,-1188 356.5,-1188 356.5,-1150 264.5,-1150"/>
<text text-anchor="start" x="272.5" y="-1172.8" font-family="Times,serif" font-size="14.00">0x43b9fd:</text>
<text text-anchor="start" x="272.5" y="-1157.8" font-family="Times,serif" font-size="14.00"> g2 = &#45;122</text>
</g>
<!-- Node0x1015c6e0&#45;&gt;Node0x10168e60 -->
<g id="edge3" class="edge"><title>Node0x1015c6e0&#45;&gt;Node0x10168e60</title>
<path fill="none" stroke="black" d="M416.529,-1262.25C395.387,-1243.86 362.606,-1215.34 339.092,-1194.88"/>
<polygon fill="black" stroke="black" points="341.344,-1192.2 331.503,-1188.27 336.749,-1197.48 341.344,-1192.2"/>
<text text-anchor="middle" x="443" y="-1232.8" font-family="Times,serif" font-size="14.00">file == NULL</text>
</g>
<!-- Node0x10150ae0 -->
<g id="node5" class="node"><title>Node0x10150ae0</title>
<polygon fill="none" stroke="black" points="533.5,-1127.5 533.5,-1210.5 915.5,-1210.5 915.5,-1127.5 533.5,-1127.5"/>
<text text-anchor="start" x="541.5" y="-1195.3" font-family="Times,serif" font-size="14.00">0x43ba07:</text>
<text text-anchor="start" x="541.5" y="-1180.3" font-family="Times,serif" font-size="14.00"> v43 = v35</text>
<text text-anchor="start" x="541.5" y="-1165.3" font-family="Times,serif" font-size="14.00"> v17 = v43</text>
<text text-anchor="start" x="541.5" y="-1150.3" font-family="Times,serif" font-size="14.00"> v3 = PtrToIntCastExpr&lt;int32&gt;(&amp;(v27))</text>
<text text-anchor="start" x="541.5" y="-1135.3" font-family="Times,serif" font-size="14.00"> function_4398d0(BitCastExpr&lt;ptr&gt;(&amp;(v27)), v43)</text>
</g>
<!-- Node0x1015c6e0&#45;&gt;Node0x10150ae0 -->
<g id="edge4" class="edge"><title>Node0x1015c6e0&#45;&gt;Node0x10150ae0</title>
<path fill="none" stroke="black" d="M484.571,-1262.38C518.572,-1249.29 566.017,-1231.02 609.748,-1214.18"/>
<polygon fill="black" stroke="black" points="611.233,-1217.36 619.307,-1210.5 608.717,-1210.83 611.233,-1217.36"/>
<text text-anchor="middle" x="611" y="-1232.8" font-family="Times,serif" font-size="14.00">file != NULL</text>
</g>
<!-- Node0x1013f930 -->
<g id="node6" class="node"><title>Node0x1013f930</title>
<polygon fill="none" stroke="black" points="0,-921.5 0,-1034.5 441,-1034.5 441,-921.5 0,-921.5"/>
<text text-anchor="start" x="8" y="-1019.3" font-family="Times,serif" font-size="14.00">0x43bab3:</text>
<text text-anchor="start" x="8" y="-1004.3" font-family="Times,serif" font-size="14.00"> v41 = g3</text>
<text text-anchor="start" x="8" y="-989.3" font-family="Times,serif" font-size="14.00"> g5 = (v41 ^ v1)</text>
<text text-anchor="start" x="8" y="-974.3" font-family="Times,serif" font-size="14.00"> v12 = function_43c16e(&amp;(v15), NULL, NULL, NULL, 0, 0)</text>
<text text-anchor="start" x="8" y="-959.3" font-family="Times,serif" font-size="14.00"> v42 = v26</text>
<text text-anchor="start" x="8" y="-944.3" font-family="Times,serif" font-size="14.00"> g3 = v42</text>
<text text-anchor="start" x="8" y="-929.3" font-family="Times,serif" font-size="14.00"> return PtrToIntCastExpr&lt;int32&gt;(v12)</text>
</g>
<!-- Node0x10168e60&#45;&gt;Node0x1013f930 -->
<g id="edge5" class="edge"><title>Node0x10168e60&#45;&gt;Node0x1013f930</title>
<path fill="none" stroke="black" d="M301.87,-1149.88C290.352,-1125.69 269.336,-1081.56 251.549,-1044.2"/>
<polygon fill="black" stroke="black" points="254.563,-1042.39 247.103,-1034.87 248.243,-1045.4 254.563,-1042.39"/>
</g>
<!-- Node0x10156eb0 -->
<g id="node7" class="node"><title>Node0x10156eb0</title>
<polygon fill="none" stroke="black" points="736,-1053.5 736,-1089.5 833,-1089.5 833,-1053.5 736,-1053.5"/>
<text text-anchor="start" x="744" y="-1067.8" font-family="Times,serif" font-size="14.00">while True:</text>
</g>
<!-- Node0x10150ae0&#45;&gt;Node0x10156eb0 -->
<g id="edge6" class="edge"><title>Node0x10150ae0&#45;&gt;Node0x10156eb0</title>
<path fill="none" stroke="black" d="M749.945,-1127.5C756.174,-1117.59 762.67,-1107.25 768.327,-1098.24"/>
<polygon fill="black" stroke="black" points="771.306,-1100.08 773.663,-1089.75 765.379,-1096.35 771.306,-1100.08"/>
</g>
<!-- Node0x1017a980 -->
<g id="node8" class="node"><title>Node0x1017a980</title>
<polygon fill="none" stroke="black" points="437.5,-23.5 437.5,-59.5 491.5,-59.5 491.5,-23.5 437.5,-23.5"/>
<text text-anchor="start" x="445.5" y="-37.8" font-family="Times,serif" font-size="14.00">exit:</text>
</g>
<!-- Node0x1013f930&#45;&gt;Node0x1017a980 -->
<g id="edge7" class="edge"><title>Node0x1013f930&#45;&gt;Node0x1017a980</title>
<path fill="none" stroke="black" d="M218.652,-921.217C217.228,-873.401 215.5,-802.677 215.5,-741 215.5,-741 215.5,-741 215.5,-190.5 215.5,-148.095 205.002,-127.463 234.5,-97 260.836,-69.8022 368.693,-53.498 426.875,-46.5132"/>
<polygon fill="black" stroke="black" points="427.603,-49.9522 437.13,-45.317 426.791,-42.9993 427.603,-49.9522"/>
</g>
<!-- Node0x10156980 -->
<g id="node9" class="node"><title>Node0x10156980</title>
<polygon fill="none" stroke="black" points="640.5,-759.5 640.5,-902.5 928.5,-902.5 928.5,-759.5 640.5,-759.5"/>
<text text-anchor="start" x="648.5" y="-887.3" font-family="Times,serif" font-size="14.00">0x43ba1a:</text>
<text text-anchor="start" x="648.5" y="-872.3" font-family="Times,serif" font-size="14.00"> v44 = v13</text>
<text text-anchor="start" x="648.5" y="-857.3" font-family="Times,serif" font-size="14.00"> g2 = PtrToIntCastExpr&lt;int32&gt;(v44)</text>
<text text-anchor="start" x="648.5" y="-842.3" font-family="Times,serif" font-size="14.00"> v17 = v44</text>
<text text-anchor="start" x="648.5" y="-827.3" font-family="Times,serif" font-size="14.00"> v19 = IntToPtrCastExpr&lt;ptr&gt;(1024)</text>
<text text-anchor="start" x="648.5" y="-812.3" font-family="Times,serif" font-size="14.00"> v21 = IntToPtrCastExpr&lt;ptr&gt;(1)</text>
<text text-anchor="start" x="648.5" y="-797.3" font-family="Times,serif" font-size="14.00"> v6 = _fread(v2)</text>
<text text-anchor="start" x="648.5" y="-782.3" font-family="Times,serif" font-size="14.00"> v4 = IntToPtrCastExpr&lt;ptr&gt;(v6)</text>
<text text-anchor="start" x="648.5" y="-767.3" font-family="Times,serif" font-size="14.00"> v30 = v4</text>
</g>
<!-- Node0x10156eb0&#45;&gt;Node0x10156980 -->
<g id="edge8" class="edge"><title>Node0x10156eb0&#45;&gt;Node0x10156980</title>
<path fill="none" stroke="black" d="M784.5,-1053.35C784.5,-1024.27 784.5,-963.532 784.5,-913.025"/>
<polygon fill="black" stroke="black" points="788,-912.746 784.5,-902.746 781,-912.746 788,-912.746"/>
<text text-anchor="middle" x="801.5" y="-974.3" font-family="Times,serif" font-size="14.00">True</text>
</g>
<!-- Node0x10177680 -->
<g id="node10" class="node"><title>Node0x10177680</title>
<polygon fill="none" stroke="black" points="732,-683.5 732,-721.5 837,-721.5 837,-683.5 732,-683.5"/>
<text text-anchor="start" x="740" y="-706.3" font-family="Times,serif" font-size="14.00">if (v6 == 0):</text>
<text text-anchor="start" x="740" y="-691.3" font-family="Times,serif" font-size="14.00"> else:</text>
</g>
<!-- Node0x10156980&#45;&gt;Node0x10177680 -->
<g id="edge9" class="edge"><title>Node0x10156980&#45;&gt;Node0x10177680</title>
<path fill="none" stroke="black" d="M784.5,-759.353C784.5,-749.594 784.5,-740.073 784.5,-731.737"/>
<polygon fill="black" stroke="black" points="788,-731.54 784.5,-721.54 781,-731.54 788,-731.54"/>
</g>
<!-- Node0x1011d950 -->
<g id="node11" class="node"><title>Node0x1011d950</title>
<polygon fill="none" stroke="black" points="271.5,-413.5 271.5,-631.5 653.5,-631.5 653.5,-413.5 271.5,-413.5"/>
<text text-anchor="start" x="279.5" y="-616.3" font-family="Times,serif" font-size="14.00">0x43ba59:</text>
<text text-anchor="start" x="279.5" y="-601.3" font-family="Times,serif" font-size="14.00"> v45 = v39</text>
<text text-anchor="start" x="279.5" y="-586.3" font-family="Times,serif" font-size="14.00"> v17 = v45</text>
<text text-anchor="start" x="279.5" y="-571.3" font-family="Times,serif" font-size="14.00"> g2 = v3</text>
<text text-anchor="start" x="279.5" y="-556.3" font-family="Times,serif" font-size="14.00"> function_43b260(BitCastExpr&lt;ptr&gt;(&amp;(v27)), v45)</text>
<text text-anchor="start" x="279.5" y="-541.3" font-family="Times,serif" font-size="14.00"> v17 = IntToPtrCastExpr&lt;ptr&gt;(472)</text>
<text text-anchor="start" x="279.5" y="-526.3" font-family="Times,serif" font-size="14.00"> v19 = NULL</text>
<text text-anchor="start" x="279.5" y="-511.3" font-family="Times,serif" font-size="14.00"> _memset(BitCastExpr&lt;ptr&gt;(&amp;(v27)))</text>
<text text-anchor="start" x="279.5" y="-496.3" font-family="Times,serif" font-size="14.00"> stream = v13</text>
<text text-anchor="start" x="279.5" y="-481.3" font-family="Times,serif" font-size="14.00"> g8 = PtrToIntCastExpr&lt;int32&gt;(stream)</text>
<text text-anchor="start" x="279.5" y="-466.3" font-family="Times,serif" font-size="14.00"> v17 = stream</text>
<text text-anchor="start" x="279.5" y="-451.3" font-family="Times,serif" font-size="14.00"> is_ferror = ferror(stream)</text>
<text text-anchor="start" x="279.5" y="-436.3" font-family="Times,serif" font-size="14.00"> v47 = v13</text>
<text text-anchor="start" x="279.5" y="-421.3" font-family="Times,serif" font-size="14.00"> v46 = PtrToIntCastExpr&lt;int32&gt;(v47)</text>
</g>
<!-- Node0x10177680&#45;&gt;Node0x1011d950 -->
<g id="edge10" class="edge"><title>Node0x10177680&#45;&gt;Node0x1011d950</title>
<path fill="none" stroke="black" d="M751.853,-683.453C729.301,-670.987 697.216,-653.25 662.561,-634.093"/>
<polygon fill="black" stroke="black" points="664.144,-630.969 653.699,-629.194 660.757,-637.095 664.144,-630.969"/>
<text text-anchor="middle" x="744.5" y="-653.8" font-family="Times,serif" font-size="14.00">v6 == 0</text>
</g>
<!-- Node0x101767a0 -->
<g id="node12" class="node"><title>Node0x101767a0</title>
<polygon fill="none" stroke="black" points="672,-481 672,-564 1247,-564 1247,-481 672,-481"/>
<text text-anchor="start" x="680" y="-548.8" font-family="Times,serif" font-size="14.00">0x43ba3d:</text>
<text text-anchor="start" x="680" y="-533.8" font-family="Times,serif" font-size="14.00"> v17 = v4</text>
<text text-anchor="start" x="680" y="-518.8" font-family="Times,serif" font-size="14.00"> g2 = v2</text>
<text text-anchor="start" x="680" y="-503.8" font-family="Times,serif" font-size="14.00"> function_439a30(BitCastExpr&lt;ptr&gt;(&amp;(v27)), BitCastExpr&lt;ptr&gt;(&amp;(v15)), v4)</text>
<text text-anchor="start" x="680" y="-488.8" font-family="Times,serif" font-size="14.00"> continue</text>
</g>
<!-- Node0x10177680&#45;&gt;Node0x101767a0 -->
<g id="edge11" class="edge"><title>Node0x10177680&#45;&gt;Node0x101767a0</title>
<path fill="none" stroke="black" d="M802.243,-683.453C827.823,-657.435 875.972,-608.459 912.283,-571.526"/>
<polygon fill="black" stroke="black" points="914.862,-573.895 919.377,-564.311 909.871,-568.988 914.862,-573.895"/>
<text text-anchor="middle" x="857.5" y="-653.8" font-family="Times,serif" font-size="14.00">v6 != 0</text>
</g>
<!-- Node0x1016cc40 -->
<g id="node13" class="node"><title>Node0x1016cc40</title>
<polygon fill="none" stroke="black" points="390,-337.5 390,-375.5 539,-375.5 539,-337.5 390,-337.5"/>
<text text-anchor="start" x="398" y="-360.3" font-family="Times,serif" font-size="14.00">if (is_ferror == 0):</text>
<text text-anchor="start" x="398" y="-345.3" font-family="Times,serif" font-size="14.00"> else:</text>
</g>
<!-- Node0x1011d950&#45;&gt;Node0x1016cc40 -->
<g id="edge12" class="edge"><title>Node0x1011d950&#45;&gt;Node0x1016cc40</title>
<path fill="none" stroke="black" d="M463.817,-413.481C463.938,-403.585 464.052,-394.254 464.151,-386.151"/>
<polygon fill="black" stroke="black" points="467.653,-385.967 464.275,-375.925 460.654,-385.881 467.653,-385.967"/>
</g>
<!-- Node0x101767a0&#45;&gt;Node0x10156eb0 -->
<g id="edge13" class="edge"><title>Node0x101767a0&#45;&gt;Node0x10156eb0</title>
<path fill="none" stroke="black" d="M965.449,-564.144C974.15,-635.696 984.609,-787.506 937.5,-903 912.262,-964.875 853.271,-1018.31 816.354,-1047.31"/>
<polygon fill="black" stroke="black" points="814.158,-1044.58 808.381,-1053.47 818.435,-1050.13 814.158,-1044.58"/>
</g>
<!-- Node0x1017dee0 -->
<g id="node14" class="node"><title>Node0x1017dee0</title>
<polygon fill="none" stroke="black" points="244,-105 244,-278 685,-278 685,-105 244,-105"/>
<text text-anchor="start" x="252" y="-262.8" font-family="Times,serif" font-size="14.00">0x43baa5:</text>
<text text-anchor="start" x="252" y="-247.8" font-family="Times,serif" font-size="14.00"> v17 = v47</text>
<text text-anchor="start" x="252" y="-232.8" font-family="Times,serif" font-size="14.00"> _fclose(v46)</text>
<text text-anchor="start" x="252" y="-217.8" font-family="Times,serif" font-size="14.00"> g10 = v2</text>
<text text-anchor="start" x="252" y="-202.8" font-family="Times,serif" font-size="14.00"> g2 = 0</text>
<text text-anchor="start" x="252" y="-187.8" font-family="Times,serif" font-size="14.00"> v41 = g3</text>
<text text-anchor="start" x="252" y="-172.8" font-family="Times,serif" font-size="14.00"> g5 = (v41 ^ v1)</text>
<text text-anchor="start" x="252" y="-157.8" font-family="Times,serif" font-size="14.00"> v12 = function_43c16e(&amp;(v15), NULL, NULL, NULL, 0, 0)</text>
<text text-anchor="start" x="252" y="-142.8" font-family="Times,serif" font-size="14.00"> v42 = v26</text>
<text text-anchor="start" x="252" y="-127.8" font-family="Times,serif" font-size="14.00"> g3 = v42</text>
<text text-anchor="start" x="252" y="-112.8" font-family="Times,serif" font-size="14.00"> return PtrToIntCastExpr&lt;int32&gt;(v12)</text>
</g>
<!-- Node0x1016cc40&#45;&gt;Node0x1017dee0 -->
<g id="edge14" class="edge"><title>Node0x1016cc40&#45;&gt;Node0x1017dee0</title>
<path fill="none" stroke="black" d="M464.5,-337.433C464.5,-324.927 464.5,-307.205 464.5,-288.428"/>
<polygon fill="black" stroke="black" points="468,-288.225 464.5,-278.225 461,-288.225 468,-288.225"/>
<text text-anchor="middle" x="516.5" y="-307.8" font-family="Times,serif" font-size="14.00">is_ferror == 0</text>
</g>
<!-- Node0x10179b10 -->
<g id="node15" class="node"><title>Node0x10179b10</title>
<polygon fill="none" stroke="black" points="703,-97.5 703,-285.5 1144,-285.5 1144,-97.5 703,-97.5"/>
<text text-anchor="start" x="711" y="-270.3" font-family="Times,serif" font-size="14.00">0x43ba92:</text>
<text text-anchor="start" x="711" y="-255.3" font-family="Times,serif" font-size="14.00"> g2 = v46</text>
<text text-anchor="start" x="711" y="-240.3" font-family="Times,serif" font-size="14.00"> v17 = v47</text>
<text text-anchor="start" x="711" y="-225.3" font-family="Times,serif" font-size="14.00"> _fclose(v46)</text>
<text text-anchor="start" x="711" y="-210.3" font-family="Times,serif" font-size="14.00"> g10 = v2</text>
<text text-anchor="start" x="711" y="-195.3" font-family="Times,serif" font-size="14.00"> g2 = &#45;122</text>
<text text-anchor="start" x="711" y="-180.3" font-family="Times,serif" font-size="14.00"> v41 = g3</text>
<text text-anchor="start" x="711" y="-165.3" font-family="Times,serif" font-size="14.00"> g5 = (v41 ^ v1)</text>
<text text-anchor="start" x="711" y="-150.3" font-family="Times,serif" font-size="14.00"> v12 = function_43c16e(&amp;(v15), NULL, NULL, NULL, 0, 0)</text>
<text text-anchor="start" x="711" y="-135.3" font-family="Times,serif" font-size="14.00"> v42 = v26</text>
<text text-anchor="start" x="711" y="-120.3" font-family="Times,serif" font-size="14.00"> g3 = v42</text>
<text text-anchor="start" x="711" y="-105.3" font-family="Times,serif" font-size="14.00"> return PtrToIntCastExpr&lt;int32&gt;(v12)</text>
</g>
<!-- Node0x1016cc40&#45;&gt;Node0x10179b10 -->
<g id="edge15" class="edge"><title>Node0x1016cc40&#45;&gt;Node0x10179b10</title>
<path fill="none" stroke="black" d="M529.668,-337.442C573.434,-324.919 632.503,-307.254 692.979,-286.132"/>
<polygon fill="black" stroke="black" points="694.424,-289.334 702.695,-282.713 692.1,-282.731 694.424,-289.334"/>
<text text-anchor="middle" x="687.5" y="-307.8" font-family="Times,serif" font-size="14.00">is_ferror != 0</text>
</g>
<!-- Node0x1017dee0&#45;&gt;Node0x1017a980 -->
<g id="edge16" class="edge"><title>Node0x1017dee0&#45;&gt;Node0x1017a980</title>
<path fill="none" stroke="black" d="M464.5,-104.836C464.5,-92.1613 464.5,-79.9545 464.5,-69.7543"/>
<polygon fill="black" stroke="black" points="468,-69.5463 464.5,-59.5463 461,-69.5464 468,-69.5463"/>
</g>
<!-- Node0x10179b10&#45;&gt;Node0x1017a980 -->
<g id="edge17" class="edge"><title>Node0x10179b10&#45;&gt;Node0x1017a980</title>
<path fill="none" stroke="black" d="M702.784,-100.023C699.675,-98.9941 696.579,-97.9858 693.5,-97 627.061,-75.7265 547.405,-58.5912 501.699,-49.5342"/>
<polygon fill="black" stroke="black" points="502.146,-46.0551 491.659,-47.5666 500.799,-52.9244 502.146,-46.0551"/>
</g>
</g>
</svg>
