<?xml version="1.0" encoding="UTF-8" standalone="no"?>
<!DOCTYPE svg PUBLIC "-//W3C//DTD SVG 1.1//EN"
 "http://www.w3.org/Graphics/SVG/1.1/DTD/svg11.dtd">
<!-- Generated by graphviz version 2.38.0 (20140413.2041)
 -->
<!-- Title: Control&#45;flow graph for function &#39;function_40bcf0(a1)&#39;. Pages: 1 -->
<svg width="648pt" height="4002pt"
 viewBox="0.00 0.00 648.00 4002.00" xmlns="http://www.w3.org/2000/svg" xmlns:xlink="http://www.w3.org/1999/xlink">
<g id="graph0" class="graph" transform="scale(1 1) rotate(0) translate(4 3998)">
<title>Control&#45;flow graph for function &#39;function_40bcf0(a1)&#39;.</title>
<polygon fill="white" stroke="none" points="-4,4 -4,-3998 644,-3998 644,4 -4,4"/>
<text text-anchor="middle" x="320" y="-7.8" font-family="Times,serif" font-size="14.00">Control&#45;flow graph for function &#39;function_40bcf0(a1)&#39;.</text>
<!-- Node0xefa7620 -->
<g id="node1" class="node"><title>Node0xefa7620</title>
<polygon fill="none" stroke="black" points="317.5,-3955.5 317.5,-3993.5 376.5,-3993.5 376.5,-3955.5 317.5,-3955.5"/>
<text text-anchor="start" x="325.5" y="-3978.3" font-family="Times,serif" font-size="14.00">entry:</text>
<text text-anchor="start" x="325.5" y="-3963.3" font-family="Times,serif" font-size="14.00"> a1</text>
</g>
<!-- Node0xefa5c00 -->
<g id="node2" class="node"><title>Node0xefa5c00</title>
<polygon fill="none" stroke="black" points="169.5,-2529.5 169.5,-3917.5 524.5,-3917.5 524.5,-2529.5 169.5,-2529.5"/>
<text text-anchor="start" x="177.5" y="-3902.3" font-family="Times,serif" font-size="14.00">v1</text>
<text text-anchor="start" x="177.5" y="-3887.3" font-family="Times,serif" font-size="14.00"> v2</text>
<text text-anchor="start" x="177.5" y="-3872.3" font-family="Times,serif" font-size="14.00"> v3</text>
<text text-anchor="start" x="177.5" y="-3857.3" font-family="Times,serif" font-size="14.00"> v4</text>
<text text-anchor="start" x="177.5" y="-3842.3" font-family="Times,serif" font-size="14.00"> v5</text>
<text text-anchor="start" x="177.5" y="-3827.3" font-family="Times,serif" font-size="14.00"> v6</text>
<text text-anchor="start" x="177.5" y="-3812.3" font-family="Times,serif" font-size="14.00"> v7</text>
<text text-anchor="start" x="177.5" y="-3797.3" font-family="Times,serif" font-size="14.00"> v8</text>
<text text-anchor="start" x="177.5" y="-3782.3" font-family="Times,serif" font-size="14.00"> v9</text>
<text text-anchor="start" x="177.5" y="-3767.3" font-family="Times,serif" font-size="14.00"> v10</text>
<text text-anchor="start" x="177.5" y="-3752.3" font-family="Times,serif" font-size="14.00"> v11</text>
<text text-anchor="start" x="177.5" y="-3737.3" font-family="Times,serif" font-size="14.00"> v12</text>
<text text-anchor="start" x="177.5" y="-3722.3" font-family="Times,serif" font-size="14.00"> v13</text>
<text text-anchor="start" x="177.5" y="-3707.3" font-family="Times,serif" font-size="14.00"> v14</text>
<text text-anchor="start" x="177.5" y="-3692.3" font-family="Times,serif" font-size="14.00"> v15</text>
<text text-anchor="start" x="177.5" y="-3677.3" font-family="Times,serif" font-size="14.00"> v16</text>
<text text-anchor="start" x="177.5" y="-3662.3" font-family="Times,serif" font-size="14.00"> result</text>
<text text-anchor="start" x="177.5" y="-3647.3" font-family="Times,serif" font-size="14.00"> v17</text>
<text text-anchor="start" x="177.5" y="-3632.3" font-family="Times,serif" font-size="14.00"> v18</text>
<text text-anchor="start" x="177.5" y="-3617.3" font-family="Times,serif" font-size="14.00"> v19</text>
<text text-anchor="start" x="177.5" y="-3602.3" font-family="Times,serif" font-size="14.00"> v20</text>
<text text-anchor="start" x="177.5" y="-3587.3" font-family="Times,serif" font-size="14.00"> v21</text>
<text text-anchor="start" x="177.5" y="-3572.3" font-family="Times,serif" font-size="14.00"> v22</text>
<text text-anchor="start" x="177.5" y="-3557.3" font-family="Times,serif" font-size="14.00"> v23</text>
<text text-anchor="start" x="177.5" y="-3542.3" font-family="Times,serif" font-size="14.00"> v24</text>
<text text-anchor="start" x="177.5" y="-3527.3" font-family="Times,serif" font-size="14.00"> v25</text>
<text text-anchor="start" x="177.5" y="-3512.3" font-family="Times,serif" font-size="14.00"> v26</text>
<text text-anchor="start" x="177.5" y="-3497.3" font-family="Times,serif" font-size="14.00"> v27</text>
<text text-anchor="start" x="177.5" y="-3482.3" font-family="Times,serif" font-size="14.00"> v28</text>
<text text-anchor="start" x="177.5" y="-3467.3" font-family="Times,serif" font-size="14.00"> v29</text>
<text text-anchor="start" x="177.5" y="-3452.3" font-family="Times,serif" font-size="14.00"> v30</text>
<text text-anchor="start" x="177.5" y="-3437.3" font-family="Times,serif" font-size="14.00"> v31</text>
<text text-anchor="start" x="177.5" y="-3422.3" font-family="Times,serif" font-size="14.00"> v32</text>
<text text-anchor="start" x="177.5" y="-3407.3" font-family="Times,serif" font-size="14.00"> v33</text>
<text text-anchor="start" x="177.5" y="-3392.3" font-family="Times,serif" font-size="14.00"> v34</text>
<text text-anchor="start" x="177.5" y="-3377.3" font-family="Times,serif" font-size="14.00"> v35</text>
<text text-anchor="start" x="177.5" y="-3362.3" font-family="Times,serif" font-size="14.00"> v36</text>
<text text-anchor="start" x="177.5" y="-3347.3" font-family="Times,serif" font-size="14.00"> v37</text>
<text text-anchor="start" x="177.5" y="-3332.3" font-family="Times,serif" font-size="14.00"> v38</text>
<text text-anchor="start" x="177.5" y="-3317.3" font-family="Times,serif" font-size="14.00"> v39</text>
<text text-anchor="start" x="177.5" y="-3302.3" font-family="Times,serif" font-size="14.00"> v40</text>
<text text-anchor="start" x="177.5" y="-3287.3" font-family="Times,serif" font-size="14.00"> v41</text>
<text text-anchor="start" x="177.5" y="-3272.3" font-family="Times,serif" font-size="14.00"> v42</text>
<text text-anchor="start" x="177.5" y="-3257.3" font-family="Times,serif" font-size="14.00"> v43</text>
<text text-anchor="start" x="177.5" y="-3242.3" font-family="Times,serif" font-size="14.00"> v44</text>
<text text-anchor="start" x="177.5" y="-3227.3" font-family="Times,serif" font-size="14.00"> v45</text>
<text text-anchor="start" x="177.5" y="-3212.3" font-family="Times,serif" font-size="14.00"> v46</text>
<text text-anchor="start" x="177.5" y="-3197.3" font-family="Times,serif" font-size="14.00"> v47</text>
<text text-anchor="start" x="177.5" y="-3182.3" font-family="Times,serif" font-size="14.00"> v48</text>
<text text-anchor="start" x="177.5" y="-3167.3" font-family="Times,serif" font-size="14.00"> v49</text>
<text text-anchor="start" x="177.5" y="-3152.3" font-family="Times,serif" font-size="14.00"> v50</text>
<text text-anchor="start" x="177.5" y="-3137.3" font-family="Times,serif" font-size="14.00"> v51</text>
<text text-anchor="start" x="177.5" y="-3122.3" font-family="Times,serif" font-size="14.00"> v52</text>
<text text-anchor="start" x="177.5" y="-3107.3" font-family="Times,serif" font-size="14.00"> v53</text>
<text text-anchor="start" x="177.5" y="-3092.3" font-family="Times,serif" font-size="14.00"> v54</text>
<text text-anchor="start" x="177.5" y="-3077.3" font-family="Times,serif" font-size="14.00"> v55</text>
<text text-anchor="start" x="177.5" y="-3062.3" font-family="Times,serif" font-size="14.00"> v56</text>
<text text-anchor="start" x="177.5" y="-3047.3" font-family="Times,serif" font-size="14.00"> v57</text>
<text text-anchor="start" x="177.5" y="-3032.3" font-family="Times,serif" font-size="14.00"> v58</text>
<text text-anchor="start" x="177.5" y="-3017.3" font-family="Times,serif" font-size="14.00"> v59</text>
<text text-anchor="start" x="177.5" y="-3002.3" font-family="Times,serif" font-size="14.00"> v60</text>
<text text-anchor="start" x="177.5" y="-2987.3" font-family="Times,serif" font-size="14.00"> v61</text>
<text text-anchor="start" x="177.5" y="-2972.3" font-family="Times,serif" font-size="14.00"> v62</text>
<text text-anchor="start" x="177.5" y="-2957.3" font-family="Times,serif" font-size="14.00"> v63</text>
<text text-anchor="start" x="177.5" y="-2942.3" font-family="Times,serif" font-size="14.00"> v64</text>
<text text-anchor="start" x="177.5" y="-2927.3" font-family="Times,serif" font-size="14.00"> v65</text>
<text text-anchor="start" x="177.5" y="-2912.3" font-family="Times,serif" font-size="14.00"> v66</text>
<text text-anchor="start" x="177.5" y="-2897.3" font-family="Times,serif" font-size="14.00"> v67</text>
<text text-anchor="start" x="177.5" y="-2882.3" font-family="Times,serif" font-size="14.00"> v68</text>
<text text-anchor="start" x="177.5" y="-2867.3" font-family="Times,serif" font-size="14.00"> v69</text>
<text text-anchor="start" x="177.5" y="-2852.3" font-family="Times,serif" font-size="14.00"> v70</text>
<text text-anchor="start" x="177.5" y="-2837.3" font-family="Times,serif" font-size="14.00"> v71</text>
<text text-anchor="start" x="177.5" y="-2822.3" font-family="Times,serif" font-size="14.00"> v72</text>
<text text-anchor="start" x="177.5" y="-2807.3" font-family="Times,serif" font-size="14.00"> v73</text>
<text text-anchor="start" x="177.5" y="-2792.3" font-family="Times,serif" font-size="14.00"> v74</text>
<text text-anchor="start" x="177.5" y="-2777.3" font-family="Times,serif" font-size="14.00"> v75</text>
<text text-anchor="start" x="177.5" y="-2762.3" font-family="Times,serif" font-size="14.00"> v76</text>
<text text-anchor="start" x="177.5" y="-2747.3" font-family="Times,serif" font-size="14.00"> v77</text>
<text text-anchor="start" x="177.5" y="-2732.3" font-family="Times,serif" font-size="14.00"> v78</text>
<text text-anchor="start" x="177.5" y="-2717.3" font-family="Times,serif" font-size="14.00"> v79</text>
<text text-anchor="start" x="177.5" y="-2702.3" font-family="Times,serif" font-size="14.00"> v80</text>
<text text-anchor="start" x="177.5" y="-2687.3" font-family="Times,serif" font-size="14.00"> v81</text>
<text text-anchor="start" x="177.5" y="-2672.3" font-family="Times,serif" font-size="14.00"> v18 = v19</text>
<text text-anchor="start" x="177.5" y="-2657.3" font-family="Times,serif" font-size="14.00"> v26 = g3</text>
<text text-anchor="start" x="177.5" y="-2642.3" font-family="Times,serif" font-size="14.00"> g3 = 16</text>
<text text-anchor="start" x="177.5" y="-2627.3" font-family="Times,serif" font-size="14.00"> v28 = g9</text>
<text text-anchor="start" x="177.5" y="-2612.3" font-family="Times,serif" font-size="14.00"> v54 = *(IntToPtrCastExpr&lt;ptr&gt;((v28 + 148)))</text>
<text text-anchor="start" x="177.5" y="-2597.3" font-family="Times,serif" font-size="14.00"> v27 = g7</text>
<text text-anchor="start" x="177.5" y="-2582.3" font-family="Times,serif" font-size="14.00"> v18 = v27</text>
<text text-anchor="start" x="177.5" y="-2567.3" font-family="Times,serif" font-size="14.00"> v1 = PtrToIntCastExpr&lt;int32&gt;(&amp;(v18))</text>
<text text-anchor="start" x="177.5" y="-2552.3" font-family="Times,serif" font-size="14.00"> g10 = v1</text>
<text text-anchor="start" x="177.5" y="-2537.3" font-family="Times,serif" font-size="14.00"> v29 = v28</text>
</g>
<!-- Node0xefa7620&#45;&gt;Node0xefa5c00 -->
<g id="edge1" class="edge"><title>Node0xefa7620&#45;&gt;Node0xefa5c00</title>
<path fill="none" stroke="black" d="M347,-3955.36C347,-3948.1 347,-3938.82 347,-3927.81"/>
<polygon fill="black" stroke="black" points="350.5,-3927.69 347,-3917.69 343.5,-3927.69 350.5,-3927.69"/>
</g>
<!-- Node0xefa7fa0 -->
<g id="node3" class="node"><title>Node0xefa7fa0</title>
<polygon fill="none" stroke="black" points="285.5,-2455.5 285.5,-2491.5 408.5,-2491.5 408.5,-2455.5 285.5,-2455.5"/>
<text text-anchor="start" x="293.5" y="-2469.8" font-family="Times,serif" font-size="14.00">if (v54 &gt;= 16):</text>
</g>
<!-- Node0xefa5c00&#45;&gt;Node0xefa7fa0 -->
<g id="edge2" class="edge"><title>Node0xefa5c00&#45;&gt;Node0xefa7fa0</title>
<path fill="none" stroke="black" d="M347,-2529.2C347,-2518.79 347,-2509.64 347,-2501.96"/>
<polygon fill="black" stroke="black" points="350.5,-2501.78 347,-2491.78 343.5,-2501.78 350.5,-2501.78"/>
</g>
<!-- Node0xefa47a0 -->
<g id="node4" class="node"><title>Node0xefa47a0</title>
<polygon fill="none" stroke="black" points="9.5,-2290.5 9.5,-2403.5 364.5,-2403.5 364.5,-2290.5 9.5,-2290.5"/>
<text text-anchor="start" x="17.5" y="-2388.3" font-family="Times,serif" font-size="14.00">0x40bd00:</text>
<text text-anchor="start" x="17.5" y="-2373.3" font-family="Times,serif" font-size="14.00"> v55 = *(IntToPtrCastExpr&lt;ptr&gt;((v28 + 128)))</text>
<text text-anchor="start" x="17.5" y="-2358.3" font-family="Times,serif" font-size="14.00"> function_40c783()</text>
<text text-anchor="start" x="17.5" y="-2343.3" font-family="Times,serif" font-size="14.00"> g10 = v1</text>
<text text-anchor="start" x="17.5" y="-2328.3" font-family="Times,serif" font-size="14.00"> v30 = g9</text>
<text text-anchor="start" x="17.5" y="-2313.3" font-family="Times,serif" font-size="14.00"> v29 = v30</text>
<text text-anchor="start" x="17.5" y="-2298.3" font-family="Times,serif" font-size="14.00"> v17 = v55</text>
</g>
<!-- Node0xefa7fa0&#45;&gt;Node0xefa47a0 -->
<g id="edge3" class="edge"><title>Node0xefa7fa0&#45;&gt;Node0xefa47a0</title>
<path fill="none" stroke="black" d="M325.088,-2455.45C309.691,-2443.47 288.065,-2426.64 266.488,-2409.85"/>
<polygon fill="black" stroke="black" points="268.594,-2407.06 258.553,-2403.68 264.296,-2412.58 268.594,-2407.06"/>
<text text-anchor="middle" x="339" y="-2425.8" font-family="Times,serif" font-size="14.00">v54 &gt;= 16</text>
</g>
<!-- Node0xefa2ea0 -->
<g id="node5" class="node"><title>Node0xefa2ea0</title>
<polygon fill="none" stroke="black" points="77.5,-2034.5 77.5,-2252.5 604.5,-2252.5 604.5,-2034.5 77.5,-2034.5"/>
<text text-anchor="start" x="85.5" y="-2237.3" font-family="Times,serif" font-size="14.00">0x40bd0f:</text>
<text text-anchor="start" x="85.5" y="-2222.3" font-family="Times,serif" font-size="14.00"> g4 = 0</text>
<text text-anchor="start" x="85.5" y="-2207.3" font-family="Times,serif" font-size="14.00"> g7 = 15</text>
<text text-anchor="start" x="85.5" y="-2192.3" font-family="Times,serif" font-size="14.00"> *(IntToPtrCastExpr&lt;ptr&gt;((v29 + 148))) = 15</text>
<text text-anchor="start" x="85.5" y="-2177.3" font-family="Times,serif" font-size="14.00"> v31 = g9</text>
<text text-anchor="start" x="85.5" y="-2162.3" font-family="Times,serif" font-size="14.00"> v56 = g4</text>
<text text-anchor="start" x="85.5" y="-2147.3" font-family="Times,serif" font-size="14.00"> *(IntToPtrCastExpr&lt;ptr&gt;((v31 + 144))) = v56</text>
<text text-anchor="start" x="85.5" y="-2132.3" font-family="Times,serif" font-size="14.00"> v32 = g9</text>
<text text-anchor="start" x="85.5" y="-2117.3" font-family="Times,serif" font-size="14.00"> v57 = g4</text>
<text text-anchor="start" x="85.5" y="-2102.3" font-family="Times,serif" font-size="14.00"> *(IntToPtrCastExpr&lt;ptr&gt;((v32 + 128))) = TruncCastExpr&lt;int8&gt;(v57)</text>
<text text-anchor="start" x="85.5" y="-2087.3" font-family="Times,serif" font-size="14.00"> v34 = g9</text>
<text text-anchor="start" x="85.5" y="-2072.3" font-family="Times,serif" font-size="14.00"> v58 = *(IntToPtrCastExpr&lt;ptr&gt;((v34 + 120)))</text>
<text text-anchor="start" x="85.5" y="-2057.3" font-family="Times,serif" font-size="14.00"> v78 = g3</text>
<text text-anchor="start" x="85.5" y="-2042.3" font-family="Times,serif" font-size="14.00"> v35 = v34</text>
</g>
<!-- Node0xefa7fa0&#45;&gt;Node0xefa2ea0 -->
<g id="edge4" class="edge"><title>Node0xefa7fa0&#45;&gt;Node0xefa2ea0</title>
<path fill="none" stroke="black" d="M369.068,-2455.44C374.299,-2450.15 379.176,-2443.89 382,-2437 384.529,-2430.83 382.227,-2428.66 382,-2422 379.999,-2363.23 381.338,-2348.21 373,-2290 371.721,-2281.07 370.196,-2271.87 368.516,-2262.64"/>
<polygon fill="black" stroke="black" points="371.922,-2261.81 366.637,-2252.63 365.042,-2263.1 371.922,-2261.81"/>
<text text-anchor="middle" x="415" y="-2343.3" font-family="Times,serif" font-size="14.00">v54 &lt; 16</text>
</g>
<!-- Node0xefa47a0&#45;&gt;Node0xefa2ea0 -->
<g id="edge5" class="edge"><title>Node0xefa47a0&#45;&gt;Node0xefa2ea0</title>
<path fill="none" stroke="black" d="M229.489,-2290.41C236.584,-2281.12 244.172,-2271.19 251.928,-2261.05"/>
<polygon fill="black" stroke="black" points="254.886,-2262.94 258.178,-2252.87 249.324,-2258.69 254.886,-2262.94"/>
</g>
<!-- Node0xefa7a50 -->
<g id="node6" class="node"><title>Node0xefa7a50</title>
<polygon fill="none" stroke="black" points="275.5,-1960.5 275.5,-1996.5 406.5,-1996.5 406.5,-1960.5 275.5,-1960.5"/>
<text text-anchor="start" x="283.5" y="-1974.8" font-family="Times,serif" font-size="14.00">if (v58 &gt;= v78):</text>
</g>
<!-- Node0xefa2ea0&#45;&gt;Node0xefa7a50 -->
<g id="edge6" class="edge"><title>Node0xefa2ea0&#45;&gt;Node0xefa7a50</title>
<path fill="none" stroke="black" d="M341,-2034.23C341,-2024.2 341,-2014.79 341,-2006.68"/>
<polygon fill="black" stroke="black" points="344.5,-2006.52 341,-1996.52 337.5,-2006.52 344.5,-2006.52"/>
</g>
<!-- Node0xefa7d80 -->
<g id="node7" class="node"><title>Node0xefa7d80</title>
<polygon fill="none" stroke="black" points="3.5,-1795.5 3.5,-1908.5 358.5,-1908.5 358.5,-1795.5 3.5,-1795.5"/>
<text text-anchor="start" x="11.5" y="-1893.3" font-family="Times,serif" font-size="14.00">0x40bd2d:</text>
<text text-anchor="start" x="11.5" y="-1878.3" font-family="Times,serif" font-size="14.00"> v59 = *(IntToPtrCastExpr&lt;ptr&gt;((v34 + 100)))</text>
<text text-anchor="start" x="11.5" y="-1863.3" font-family="Times,serif" font-size="14.00"> g5 = v59</text>
<text text-anchor="start" x="11.5" y="-1848.3" font-family="Times,serif" font-size="14.00"> function_40c783()</text>
<text text-anchor="start" x="11.5" y="-1833.3" font-family="Times,serif" font-size="14.00"> g10 = v1</text>
<text text-anchor="start" x="11.5" y="-1818.3" font-family="Times,serif" font-size="14.00"> v36 = g9</text>
<text text-anchor="start" x="11.5" y="-1803.3" font-family="Times,serif" font-size="14.00"> v35 = v36</text>
</g>
<!-- Node0xefa7a50&#45;&gt;Node0xefa7d80 -->
<g id="edge7" class="edge"><title>Node0xefa7a50&#45;&gt;Node0xefa7d80</title>
<path fill="none" stroke="black" d="M318.52,-1960.19C311.031,-1954.41 302.65,-1947.94 295,-1942 283.719,-1933.24 271.824,-1923.98 260.144,-1914.88"/>
<polygon fill="black" stroke="black" points="262.14,-1912 252.102,-1908.61 257.835,-1917.52 262.14,-1912"/>
<text text-anchor="middle" x="338" y="-1930.8" font-family="Times,serif" font-size="14.00">v58 &gt;= v78</text>
</g>
<!-- Node0xefa3d60 -->
<g id="node8" class="node"><title>Node0xefa3d60</title>
<polygon fill="none" stroke="black" points="71.5,-1554.5 71.5,-1757.5 598.5,-1757.5 598.5,-1554.5 71.5,-1554.5"/>
<text text-anchor="start" x="79.5" y="-1742.3" font-family="Times,serif" font-size="14.00">0x40bd39:</text>
<text text-anchor="start" x="79.5" y="-1727.3" font-family="Times,serif" font-size="14.00"> v60 = g7</text>
<text text-anchor="start" x="79.5" y="-1712.3" font-family="Times,serif" font-size="14.00"> *(IntToPtrCastExpr&lt;ptr&gt;((v35 + 120))) = v60</text>
<text text-anchor="start" x="79.5" y="-1697.3" font-family="Times,serif" font-size="14.00"> v37 = g9</text>
<text text-anchor="start" x="79.5" y="-1682.3" font-family="Times,serif" font-size="14.00"> v61 = g4</text>
<text text-anchor="start" x="79.5" y="-1667.3" font-family="Times,serif" font-size="14.00"> *(IntToPtrCastExpr&lt;ptr&gt;((v37 + 116))) = v61</text>
<text text-anchor="start" x="79.5" y="-1652.3" font-family="Times,serif" font-size="14.00"> v38 = g9</text>
<text text-anchor="start" x="79.5" y="-1637.3" font-family="Times,serif" font-size="14.00"> v62 = g4</text>
<text text-anchor="start" x="79.5" y="-1622.3" font-family="Times,serif" font-size="14.00"> *(IntToPtrCastExpr&lt;ptr&gt;((v38 + 100))) = TruncCastExpr&lt;int8&gt;(v62)</text>
<text text-anchor="start" x="79.5" y="-1607.3" font-family="Times,serif" font-size="14.00"> v39 = g9</text>
<text text-anchor="start" x="79.5" y="-1592.3" font-family="Times,serif" font-size="14.00"> v63 = *(IntToPtrCastExpr&lt;ptr&gt;((v39 + 88)))</text>
<text text-anchor="start" x="79.5" y="-1577.3" font-family="Times,serif" font-size="14.00"> v79 = g3</text>
<text text-anchor="start" x="79.5" y="-1562.3" font-family="Times,serif" font-size="14.00"> v40 = v39</text>
</g>
<!-- Node0xefa7a50&#45;&gt;Node0xefa3d60 -->
<g id="edge8" class="edge"><title>Node0xefa7a50&#45;&gt;Node0xefa3d60</title>
<path fill="none" stroke="black" d="M366.991,-1960.22C372.652,-1955.08 377.878,-1948.94 381,-1942 383.733,-1935.92 381.352,-1933.66 381,-1927 377.885,-1868.09 376.793,-1853.18 367,-1795 365.501,-1786.09 363.774,-1776.9 361.914,-1767.7"/>
<polygon fill="black" stroke="black" points="365.302,-1766.79 359.85,-1757.71 358.447,-1768.21 365.302,-1766.79"/>
<text text-anchor="middle" x="418" y="-1848.3" font-family="Times,serif" font-size="14.00">v58 &lt; v78</text>
</g>
<!-- Node0xefa7d80&#45;&gt;Node0xefa3d60 -->
<g id="edge9" class="edge"><title>Node0xefa7d80&#45;&gt;Node0xefa3d60</title>
<path fill="none" stroke="black" d="M225.13,-1795.41C232.638,-1785.95 240.659,-1775.85 248.819,-1765.57"/>
<polygon fill="black" stroke="black" points="251.604,-1767.69 255.08,-1757.68 246.122,-1763.33 251.604,-1767.69"/>
</g>
<!-- Node0xefa43a0 -->
<g id="node9" class="node"><title>Node0xefa43a0</title>
<polygon fill="none" stroke="black" points="269.5,-1480.5 269.5,-1516.5 400.5,-1516.5 400.5,-1480.5 269.5,-1480.5"/>
<text text-anchor="start" x="277.5" y="-1494.8" font-family="Times,serif" font-size="14.00">if (v63 &gt;= v79):</text>
</g>
<!-- Node0xefa3d60&#45;&gt;Node0xefa43a0 -->
<g id="edge10" class="edge"><title>Node0xefa3d60&#45;&gt;Node0xefa43a0</title>
<path fill="none" stroke="black" d="M335,-1554.32C335,-1544.37 335,-1534.96 335,-1526.85"/>
<polygon fill="black" stroke="black" points="338.5,-1526.65 335,-1516.65 331.5,-1526.65 338.5,-1526.65"/>
</g>
<!-- Node0xefa5130 -->
<g id="node10" class="node"><title>Node0xefa5130</title>
<polygon fill="none" stroke="black" points="6,-1315.5 6,-1428.5 352,-1428.5 352,-1315.5 6,-1315.5"/>
<text text-anchor="start" x="14" y="-1413.3" font-family="Times,serif" font-size="14.00">0x40bd47:</text>
<text text-anchor="start" x="14" y="-1398.3" font-family="Times,serif" font-size="14.00"> v64 = *(IntToPtrCastExpr&lt;ptr&gt;((v39 + 68)))</text>
<text text-anchor="start" x="14" y="-1383.3" font-family="Times,serif" font-size="14.00"> g8 = v64</text>
<text text-anchor="start" x="14" y="-1368.3" font-family="Times,serif" font-size="14.00"> function_40c783()</text>
<text text-anchor="start" x="14" y="-1353.3" font-family="Times,serif" font-size="14.00"> g10 = v1</text>
<text text-anchor="start" x="14" y="-1338.3" font-family="Times,serif" font-size="14.00"> v41 = g9</text>
<text text-anchor="start" x="14" y="-1323.3" font-family="Times,serif" font-size="14.00"> v40 = v41</text>
</g>
<!-- Node0xefa43a0&#45;&gt;Node0xefa5130 -->
<g id="edge11" class="edge"><title>Node0xefa43a0&#45;&gt;Node0xefa5130</title>
<path fill="none" stroke="black" d="M311.918,-1480.34C304.259,-1474.57 295.72,-1468.06 288,-1462 277.101,-1453.44 265.679,-1444.3 254.502,-1435.26"/>
<polygon fill="black" stroke="black" points="256.39,-1432.29 246.418,-1428.71 251.982,-1437.73 256.39,-1432.29"/>
<text text-anchor="middle" x="331" y="-1450.8" font-family="Times,serif" font-size="14.00">v63 &gt;= v79</text>
</g>
<!-- Node0xefa1e00 -->
<g id="node11" class="node"><title>Node0xefa1e00</title>
<polygon fill="none" stroke="black" points="70,-1059.5 70,-1277.5 588,-1277.5 588,-1059.5 70,-1059.5"/>
<text text-anchor="start" x="78" y="-1262.3" font-family="Times,serif" font-size="14.00">0x40bd53:</text>
<text text-anchor="start" x="78" y="-1247.3" font-family="Times,serif" font-size="14.00"> v65 = g7</text>
<text text-anchor="start" x="78" y="-1232.3" font-family="Times,serif" font-size="14.00"> *(IntToPtrCastExpr&lt;ptr&gt;((v40 + 88))) = v65</text>
<text text-anchor="start" x="78" y="-1217.3" font-family="Times,serif" font-size="14.00"> v42 = g9</text>
<text text-anchor="start" x="78" y="-1202.3" font-family="Times,serif" font-size="14.00"> v66 = g4</text>
<text text-anchor="start" x="78" y="-1187.3" font-family="Times,serif" font-size="14.00"> *(IntToPtrCastExpr&lt;ptr&gt;((v42 + 84))) = v66</text>
<text text-anchor="start" x="78" y="-1172.3" font-family="Times,serif" font-size="14.00"> v43 = g9</text>
<text text-anchor="start" x="78" y="-1157.3" font-family="Times,serif" font-size="14.00"> v67 = g4</text>
<text text-anchor="start" x="78" y="-1142.3" font-family="Times,serif" font-size="14.00"> *(IntToPtrCastExpr&lt;ptr&gt;((v43 + 68))) = TruncCastExpr&lt;int8&gt;(v67)</text>
<text text-anchor="start" x="78" y="-1127.3" font-family="Times,serif" font-size="14.00"> v44 = g9</text>
<text text-anchor="start" x="78" y="-1112.3" font-family="Times,serif" font-size="14.00"> v68 = *(IntToPtrCastExpr&lt;ptr&gt;((v44 + 60)))</text>
<text text-anchor="start" x="78" y="-1097.3" font-family="Times,serif" font-size="14.00"> v80 = g3</text>
<text text-anchor="start" x="78" y="-1082.3" font-family="Times,serif" font-size="14.00"> v45 = v44</text>
<text text-anchor="start" x="78" y="-1067.3" font-family="Times,serif" font-size="14.00"> result = v17</text>
</g>
<!-- Node0xefa43a0&#45;&gt;Node0xefa1e00 -->
<g id="edge12" class="edge"><title>Node0xefa43a0&#45;&gt;Node0xefa1e00</title>
<path fill="none" stroke="black" d="M359.948,-1480.48C365.623,-1475.27 370.891,-1469.03 374,-1462 376.695,-1455.9 374.327,-1453.66 374,-1447 371.108,-1388.12 370.236,-1373.22 361,-1315 359.586,-1306.09 357.964,-1296.91 356.216,-1287.69"/>
<polygon fill="black" stroke="black" points="359.615,-1286.83 354.273,-1277.69 352.744,-1288.17 359.615,-1286.83"/>
<text text-anchor="middle" x="411" y="-1368.3" font-family="Times,serif" font-size="14.00">v63 &lt; v79</text>
</g>
<!-- Node0xefa5130&#45;&gt;Node0xefa1e00 -->
<g id="edge13" class="edge"><title>Node0xefa5130&#45;&gt;Node0xefa1e00</title>
<path fill="none" stroke="black" d="M220.385,-1315.41C227.296,-1306.12 234.687,-1296.19 242.242,-1286.05"/>
<polygon fill="black" stroke="black" points="245.165,-1287.98 248.329,-1277.87 239.55,-1283.8 245.165,-1287.98"/>
</g>
<!-- Node0xefa79c0 -->
<g id="node12" class="node"><title>Node0xefa79c0</title>
<polygon fill="none" stroke="black" points="263.5,-985.5 263.5,-1021.5 394.5,-1021.5 394.5,-985.5 263.5,-985.5"/>
<text text-anchor="start" x="271.5" y="-999.8" font-family="Times,serif" font-size="14.00">if (v68 &gt;= v80):</text>
</g>
<!-- Node0xefa1e00&#45;&gt;Node0xefa79c0 -->
<g id="edge14" class="edge"><title>Node0xefa1e00&#45;&gt;Node0xefa79c0</title>
<path fill="none" stroke="black" d="M329,-1059.23C329,-1049.2 329,-1039.79 329,-1031.68"/>
<polygon fill="black" stroke="black" points="332.5,-1031.52 329,-1021.52 325.5,-1031.52 332.5,-1031.52"/>
</g>
<!-- Node0xefaac70 -->
<g id="node13" class="node"><title>Node0xefaac70</title>
<polygon fill="none" stroke="black" points="0,-820.5 0,-933.5 346,-933.5 346,-820.5 0,-820.5"/>
<text text-anchor="start" x="8" y="-918.3" font-family="Times,serif" font-size="14.00">0x40bd61:</text>
<text text-anchor="start" x="8" y="-903.3" font-family="Times,serif" font-size="14.00"> v69 = *(IntToPtrCastExpr&lt;ptr&gt;((v44 + 40)))</text>
<text text-anchor="start" x="8" y="-888.3" font-family="Times,serif" font-size="14.00"> function_40c783()</text>
<text text-anchor="start" x="8" y="-873.3" font-family="Times,serif" font-size="14.00"> g10 = v1</text>
<text text-anchor="start" x="8" y="-858.3" font-family="Times,serif" font-size="14.00"> v46 = g9</text>
<text text-anchor="start" x="8" y="-843.3" font-family="Times,serif" font-size="14.00"> v45 = v46</text>
<text text-anchor="start" x="8" y="-828.3" font-family="Times,serif" font-size="14.00"> result = v69</text>
</g>
<!-- Node0xefa79c0&#45;&gt;Node0xefaac70 -->
<g id="edge15" class="edge"><title>Node0xefa79c0&#45;&gt;Node0xefaac70</title>
<path fill="none" stroke="black" d="M305.918,-985.338C298.259,-979.572 289.72,-973.064 282,-967 271.101,-958.439 259.679,-949.302 248.502,-940.264"/>
<polygon fill="black" stroke="black" points="250.39,-937.289 240.418,-933.71 245.982,-942.726 250.39,-937.289"/>
<text text-anchor="middle" x="325" y="-955.8" font-family="Times,serif" font-size="14.00">v68 &gt;= v80</text>
</g>
<!-- Node0xefa5d70 -->
<g id="node14" class="node"><title>Node0xefa5d70</title>
<polygon fill="none" stroke="black" points="64,-594.5 64,-782.5 582,-782.5 582,-594.5 64,-594.5"/>
<text text-anchor="start" x="72" y="-767.3" font-family="Times,serif" font-size="14.00">0x40bd6d:</text>
<text text-anchor="start" x="72" y="-752.3" font-family="Times,serif" font-size="14.00"> v70 = g7</text>
<text text-anchor="start" x="72" y="-737.3" font-family="Times,serif" font-size="14.00"> *(IntToPtrCastExpr&lt;ptr&gt;((v45 + 60))) = v70</text>
<text text-anchor="start" x="72" y="-722.3" font-family="Times,serif" font-size="14.00"> v47 = g9</text>
<text text-anchor="start" x="72" y="-707.3" font-family="Times,serif" font-size="14.00"> v71 = g4</text>
<text text-anchor="start" x="72" y="-692.3" font-family="Times,serif" font-size="14.00"> *(IntToPtrCastExpr&lt;ptr&gt;((v47 + 56))) = v71</text>
<text text-anchor="start" x="72" y="-677.3" font-family="Times,serif" font-size="14.00"> v48 = g9</text>
<text text-anchor="start" x="72" y="-662.3" font-family="Times,serif" font-size="14.00"> v72 = g4</text>
<text text-anchor="start" x="72" y="-647.3" font-family="Times,serif" font-size="14.00"> *(IntToPtrCastExpr&lt;ptr&gt;((v48 + 40))) = TruncCastExpr&lt;int8&gt;(v72)</text>
<text text-anchor="start" x="72" y="-632.3" font-family="Times,serif" font-size="14.00"> v49 = g9</text>
<text text-anchor="start" x="72" y="-617.3" font-family="Times,serif" font-size="14.00"> v73 = *(IntToPtrCastExpr&lt;ptr&gt;((v49 + 32)))</text>
<text text-anchor="start" x="72" y="-602.3" font-family="Times,serif" font-size="14.00"> v81 = g3</text>
</g>
<!-- Node0xefa79c0&#45;&gt;Node0xefa5d70 -->
<g id="edge16" class="edge"><title>Node0xefa79c0&#45;&gt;Node0xefa5d70</title>
<path fill="none" stroke="black" d="M353.948,-985.485C359.623,-980.275 364.891,-974.034 368,-967 370.695,-960.902 368.327,-958.659 368,-952 365.108,-893.121 364.934,-878.108 355,-820 353.47,-811.05 351.666,-801.805 349.705,-792.562"/>
<polygon fill="black" stroke="black" points="353.072,-791.572 347.523,-782.547 346.232,-793.062 353.072,-791.572"/>
<text text-anchor="middle" x="405" y="-873.3" font-family="Times,serif" font-size="14.00">v68 &lt; v80</text>
</g>
<!-- Node0xefaac70&#45;&gt;Node0xefa5d70 -->
<g id="edge17" class="edge"><title>Node0xefaac70&#45;&gt;Node0xefa5d70</title>
<path fill="none" stroke="black" d="M217.802,-820.296C225.438,-810.802 233.575,-800.685 241.813,-790.443"/>
<polygon fill="black" stroke="black" points="244.585,-792.581 248.125,-782.595 239.13,-788.194 244.585,-792.581"/>
</g>
<!-- Node0xefa57f0 -->
<g id="node15" class="node"><title>Node0xefa57f0</title>
<polygon fill="none" stroke="black" points="257.5,-518.5 257.5,-556.5 388.5,-556.5 388.5,-518.5 257.5,-518.5"/>
<text text-anchor="start" x="265.5" y="-541.3" font-family="Times,serif" font-size="14.00">if (v73 &gt;= v81):</text>
<text text-anchor="start" x="265.5" y="-526.3" font-family="Times,serif" font-size="14.00"> else:</text>
</g>
<!-- Node0xefa5d70&#45;&gt;Node0xefa57f0 -->
<g id="edge18" class="edge"><title>Node0xefa5d70&#45;&gt;Node0xefa57f0</title>
<path fill="none" stroke="black" d="M323,-594.406C323,-584.426 323,-574.921 323,-566.673"/>
<polygon fill="black" stroke="black" points="326.5,-566.619 323,-556.619 319.5,-566.619 326.5,-566.619"/>
</g>
<!-- Node0xefaaee0 -->
<g id="node16" class="node"><title>Node0xefaaee0</title>
<polygon fill="none" stroke="black" points="64,-353.5 64,-466.5 410,-466.5 410,-353.5 64,-353.5"/>
<text text-anchor="start" x="72" y="-451.3" font-family="Times,serif" font-size="14.00">0x40bd7b:</text>
<text text-anchor="start" x="72" y="-436.3" font-family="Times,serif" font-size="14.00"> v74 = *(IntToPtrCastExpr&lt;ptr&gt;((v49 + 12)))</text>
<text text-anchor="start" x="72" y="-421.3" font-family="Times,serif" font-size="14.00"> g5 = v74</text>
<text text-anchor="start" x="72" y="-406.3" font-family="Times,serif" font-size="14.00"> function_40c783()</text>
<text text-anchor="start" x="72" y="-391.3" font-family="Times,serif" font-size="14.00"> g10 = v1</text>
<text text-anchor="start" x="72" y="-376.3" font-family="Times,serif" font-size="14.00"> v51 = g9</text>
<text text-anchor="start" x="72" y="-361.3" font-family="Times,serif" font-size="14.00"> v50 = v51</text>
</g>
<!-- Node0xefa57f0&#45;&gt;Node0xefaaee0 -->
<g id="edge19" class="edge"><title>Node0xefa57f0&#45;&gt;Node0xefaaee0</title>
<path fill="none" stroke="black" d="M310.495,-518.251C302.521,-506.615 291.665,-490.773 280.745,-474.837"/>
<polygon fill="black" stroke="black" points="283.583,-472.787 275.043,-466.516 277.809,-476.744 283.583,-472.787"/>
<text text-anchor="middle" x="341" y="-488.8" font-family="Times,serif" font-size="14.00">v73 &gt;= v81</text>
</g>
<!-- Node0xefab120 -->
<g id="node17" class="node"><title>Node0xefab120</title>
<polygon fill="none" stroke="black" points="428,-392 428,-428 518,-428 518,-392 428,-392"/>
<text text-anchor="start" x="436" y="-406.3" font-family="Times,serif" font-size="14.00">v50 = v49</text>
</g>
<!-- Node0xefa57f0&#45;&gt;Node0xefab120 -->
<g id="edge20" class="edge"><title>Node0xefa57f0&#45;&gt;Node0xefab120</title>
<path fill="none" stroke="black" d="M359.628,-518.428C369.224,-513.035 379.31,-506.745 388,-500 412.517,-480.972 436.576,-454.885 452.805,-435.875"/>
<polygon fill="black" stroke="black" points="455.5,-438.108 459.259,-428.202 450.143,-433.602 455.5,-438.108"/>
<text text-anchor="middle" x="441" y="-488.8" font-family="Times,serif" font-size="14.00">v73 &lt; v81</text>
</g>
<!-- Node0xefa6140 -->
<g id="node18" class="node"><title>Node0xefa6140</title>
<polygon fill="none" stroke="black" points="122,-97.5 122,-315.5 640,-315.5 640,-97.5 122,-97.5"/>
<text text-anchor="start" x="130" y="-300.3" font-family="Times,serif" font-size="14.00">0x40bd87:</text>
<text text-anchor="start" x="130" y="-285.3" font-family="Times,serif" font-size="14.00"> v75 = g7</text>
<text text-anchor="start" x="130" y="-270.3" font-family="Times,serif" font-size="14.00"> *(IntToPtrCastExpr&lt;ptr&gt;((v50 + 32))) = v75</text>
<text text-anchor="start" x="130" y="-255.3" font-family="Times,serif" font-size="14.00"> v33 = v18</text>
<text text-anchor="start" x="130" y="-240.3" font-family="Times,serif" font-size="14.00"> g7 = v33</text>
<text text-anchor="start" x="130" y="-225.3" font-family="Times,serif" font-size="14.00"> v52 = g9</text>
<text text-anchor="start" x="130" y="-210.3" font-family="Times,serif" font-size="14.00"> v76 = g4</text>
<text text-anchor="start" x="130" y="-195.3" font-family="Times,serif" font-size="14.00"> *(IntToPtrCastExpr&lt;ptr&gt;((v52 + 28))) = v76</text>
<text text-anchor="start" x="130" y="-180.3" font-family="Times,serif" font-size="14.00"> g3 = v26</text>
<text text-anchor="start" x="130" y="-165.3" font-family="Times,serif" font-size="14.00"> v53 = g9</text>
<text text-anchor="start" x="130" y="-150.3" font-family="Times,serif" font-size="14.00"> v77 = g4</text>
<text text-anchor="start" x="130" y="-135.3" font-family="Times,serif" font-size="14.00"> *(IntToPtrCastExpr&lt;ptr&gt;((v53 + 12))) = TruncCastExpr&lt;int8&gt;(v77)</text>
<text text-anchor="start" x="130" y="-120.3" font-family="Times,serif" font-size="14.00"> g4 = v22</text>
<text text-anchor="start" x="130" y="-105.3" font-family="Times,serif" font-size="14.00"> return result</text>
</g>
<!-- Node0xefaaee0&#45;&gt;Node0xefa6140 -->
<g id="edge21" class="edge"><title>Node0xefaaee0&#45;&gt;Node0xefa6140</title>
<path fill="none" stroke="black" d="M276.73,-353.406C283.364,-344.122 290.46,-334.193 297.712,-324.046"/>
<polygon fill="black" stroke="black" points="300.589,-326.039 303.556,-315.868 294.894,-321.969 300.589,-326.039"/>
</g>
<!-- Node0xefab120&#45;&gt;Node0xefa6140 -->
<g id="edge22" class="edge"><title>Node0xefab120&#45;&gt;Node0xefa6140</title>
<path fill="none" stroke="black" d="M465.156,-391.82C458.004,-376.155 446.753,-351.514 434.778,-325.286"/>
<polygon fill="black" stroke="black" points="437.855,-323.598 430.518,-315.955 431.487,-326.505 437.855,-323.598"/>
</g>
<!-- Node0xefa7680 -->
<g id="node19" class="node"><title>Node0xefa7680</title>
<polygon fill="none" stroke="black" points="354,-23.5 354,-59.5 408,-59.5 408,-23.5 354,-23.5"/>
<text text-anchor="start" x="362" y="-37.8" font-family="Times,serif" font-size="14.00">exit:</text>
</g>
<!-- Node0xefa6140&#45;&gt;Node0xefa7680 -->
<g id="edge23" class="edge"><title>Node0xefa6140&#45;&gt;Node0xefa7680</title>
<path fill="none" stroke="black" d="M381,-97.2301C381,-87.2044 381,-77.7868 381,-69.684"/>
<polygon fill="black" stroke="black" points="384.5,-69.516 381,-59.516 377.5,-69.5161 384.5,-69.516"/>
</g>
</g>
</svg>
