<?xml version="1.0" encoding="UTF-8" standalone="no"?>
<!DOCTYPE svg PUBLIC "-//W3C//DTD SVG 1.1//EN"
 "http://www.w3.org/Graphics/SVG/1.1/DTD/svg11.dtd">
<!-- Generated by graphviz version 2.38.0 (20140413.2041)
 -->
<!-- Title: Control&#45;flow graph for function &#39;function_40c90a(*a1, *a2)&#39;. Pages: 1 -->
<svg width="1029pt" height="1888pt"
 viewBox="0.00 0.00 1028.50 1888.00" xmlns="http://www.w3.org/2000/svg" xmlns:xlink="http://www.w3.org/1999/xlink">
<g id="graph0" class="graph" transform="scale(1 1) rotate(0) translate(4 1884)">
<title>Control&#45;flow graph for function &#39;function_40c90a(*a1, *a2)&#39;.</title>
<polygon fill="white" stroke="none" points="-4,4 -4,-1884 1024.5,-1884 1024.5,4 -4,4"/>
<text text-anchor="middle" x="510.25" y="-7.8" font-family="Times,serif" font-size="14.00">Control&#45;flow graph for function &#39;function_40c90a(*a1, *a2)&#39;.</text>
<!-- Node0xefc2aa0 -->
<g id="node1" class="node"><title>Node0xefc2aa0</title>
<polygon fill="none" stroke="black" points="209,-1826.5 209,-1879.5 268,-1879.5 268,-1826.5 209,-1826.5"/>
<text text-anchor="start" x="217" y="-1864.3" font-family="Times,serif" font-size="14.00">entry:</text>
<text text-anchor="start" x="217" y="-1849.3" font-family="Times,serif" font-size="14.00"> a1</text>
<text text-anchor="start" x="217" y="-1834.3" font-family="Times,serif" font-size="14.00"> a2</text>
</g>
<!-- Node0xefc8bb0 -->
<g id="node2" class="node"><title>Node0xefc8bb0</title>
<polygon fill="none" stroke="black" points="89,-1270.5 89,-1788.5 388,-1788.5 388,-1270.5 89,-1270.5"/>
<text text-anchor="start" x="97" y="-1773.3" font-family="Times,serif" font-size="14.00">v1</text>
<text text-anchor="start" x="97" y="-1758.3" font-family="Times,serif" font-size="14.00"> v2</text>
<text text-anchor="start" x="97" y="-1743.3" font-family="Times,serif" font-size="14.00"> v3</text>
<text text-anchor="start" x="97" y="-1728.3" font-family="Times,serif" font-size="14.00"> v4</text>
<text text-anchor="start" x="97" y="-1713.3" font-family="Times,serif" font-size="14.00"> v5</text>
<text text-anchor="start" x="97" y="-1698.3" font-family="Times,serif" font-size="14.00"> v6</text>
<text text-anchor="start" x="97" y="-1683.3" font-family="Times,serif" font-size="14.00"> v7</text>
<text text-anchor="start" x="97" y="-1668.3" font-family="Times,serif" font-size="14.00"> v8</text>
<text text-anchor="start" x="97" y="-1653.3" font-family="Times,serif" font-size="14.00"> v9</text>
<text text-anchor="start" x="97" y="-1638.3" font-family="Times,serif" font-size="14.00"> v10</text>
<text text-anchor="start" x="97" y="-1623.3" font-family="Times,serif" font-size="14.00"> v11</text>
<text text-anchor="start" x="97" y="-1608.3" font-family="Times,serif" font-size="14.00"> v12</text>
<text text-anchor="start" x="97" y="-1593.3" font-family="Times,serif" font-size="14.00"> v13</text>
<text text-anchor="start" x="97" y="-1578.3" font-family="Times,serif" font-size="14.00"> v14</text>
<text text-anchor="start" x="97" y="-1563.3" font-family="Times,serif" font-size="14.00"> v15</text>
<text text-anchor="start" x="97" y="-1548.3" font-family="Times,serif" font-size="14.00"> result</text>
<text text-anchor="start" x="97" y="-1533.3" font-family="Times,serif" font-size="14.00"> v16</text>
<text text-anchor="start" x="97" y="-1518.3" font-family="Times,serif" font-size="14.00"> v17</text>
<text text-anchor="start" x="97" y="-1503.3" font-family="Times,serif" font-size="14.00"> v18</text>
<text text-anchor="start" x="97" y="-1488.3" font-family="Times,serif" font-size="14.00"> v19</text>
<text text-anchor="start" x="97" y="-1473.3" font-family="Times,serif" font-size="14.00"> v20</text>
<text text-anchor="start" x="97" y="-1458.3" font-family="Times,serif" font-size="14.00"> v21</text>
<text text-anchor="start" x="97" y="-1443.3" font-family="Times,serif" font-size="14.00"> v22</text>
<text text-anchor="start" x="97" y="-1428.3" font-family="Times,serif" font-size="14.00"> v23</text>
<text text-anchor="start" x="97" y="-1413.3" font-family="Times,serif" font-size="14.00"> v24</text>
<text text-anchor="start" x="97" y="-1398.3" font-family="Times,serif" font-size="14.00"> v12 = v14</text>
<text text-anchor="start" x="97" y="-1383.3" font-family="Times,serif" font-size="14.00"> v12 = a1</text>
<text text-anchor="start" x="97" y="-1368.3" font-family="Times,serif" font-size="14.00"> function_40c815()</text>
<text text-anchor="start" x="97" y="-1353.3" font-family="Times,serif" font-size="14.00"> v16 = g9</text>
<text text-anchor="start" x="97" y="-1338.3" font-family="Times,serif" font-size="14.00"> v17 = g7</text>
<text text-anchor="start" x="97" y="-1323.3" font-family="Times,serif" font-size="14.00"> v8 = v17</text>
<text text-anchor="start" x="97" y="-1308.3" font-family="Times,serif" font-size="14.00"> v1 = PtrToIntCastExpr&lt;int32&gt;(&amp;(v8))</text>
<text text-anchor="start" x="97" y="-1293.3" font-family="Times,serif" font-size="14.00"> g10 = v1</text>
<text text-anchor="start" x="97" y="-1278.3" font-family="Times,serif" font-size="14.00"> result = 305397826</text>
</g>
<!-- Node0xefc2aa0&#45;&gt;Node0xefc8bb0 -->
<g id="edge1" class="edge"><title>Node0xefc2aa0&#45;&gt;Node0xefc8bb0</title>
<path fill="none" stroke="black" d="M238.5,-1826.23C238.5,-1818.5 238.5,-1809.29 238.5,-1798.99"/>
<polygon fill="black" stroke="black" points="242,-1798.79 238.5,-1788.79 235,-1798.79 242,-1798.79"/>
</g>
<!-- Node0xefc8c10 -->
<g id="node3" class="node"><title>Node0xefc8c10</title>
<polygon fill="none" stroke="black" points="0,-1196.5 0,-1232.5 477,-1232.5 477,-1196.5 0,-1196.5"/>
<text text-anchor="start" x="8" y="-1210.8" font-family="Times,serif" font-size="14.00">if (TruncCastExpr&lt;int8&gt;(PtrToIntCastExpr&lt;int32&gt;(a2)) == 3):</text>
</g>
<!-- Node0xefc8bb0&#45;&gt;Node0xefc8c10 -->
<g id="edge2" class="edge"><title>Node0xefc8bb0&#45;&gt;Node0xefc8c10</title>
<path fill="none" stroke="black" d="M238.5,-1270.38C238.5,-1259.98 238.5,-1250.64 238.5,-1242.73"/>
<polygon fill="black" stroke="black" points="242,-1242.56 238.5,-1232.56 235,-1242.56 242,-1242.56"/>
</g>
<!-- Node0xefc96e0 -->
<g id="node4" class="node"><title>Node0xefc96e0</title>
<polygon fill="none" stroke="black" points="269.5,-1076.5 269.5,-1144.5 555.5,-1144.5 555.5,-1076.5 269.5,-1076.5"/>
<text text-anchor="start" x="277.5" y="-1129.3" font-family="Times,serif" font-size="14.00">0x40c922:</text>
<text text-anchor="start" x="277.5" y="-1114.3" font-family="Times,serif" font-size="14.00"> v21 = v12</text>
<text text-anchor="start" x="277.5" y="-1099.3" font-family="Times,serif" font-size="14.00"> g9 = PtrToIntCastExpr&lt;int32&gt;(v21)</text>
<text text-anchor="start" x="277.5" y="-1084.3" font-family="Times,serif" font-size="14.00"> v22 = *(&amp;(v21[&#39;2&#39;]))</text>
</g>
<!-- Node0xefc8c10&#45;&gt;Node0xefc96e0 -->
<g id="edge3" class="edge"><title>Node0xefc8c10&#45;&gt;Node0xefc96e0</title>
<path fill="none" stroke="black" d="M267.624,-1196.43C289.361,-1183.69 319.92,-1165.77 347.372,-1149.68"/>
<polygon fill="black" stroke="black" points="349.303,-1152.6 356.16,-1144.53 345.763,-1146.56 349.303,-1152.6"/>
<text text-anchor="middle" x="536.5" y="-1166.8" font-family="Times,serif" font-size="14.00">TruncCastExpr&lt;int8&gt;(PtrToIntCastExpr&lt;int32&gt;(a2)) == 3</text>
</g>
<!-- Node0xefc8cf0 -->
<g id="node5" class="node"><title>Node0xefc8cf0</title>
<polygon fill="none" stroke="black" points="666,-97.5 666,-180.5 779,-180.5 779,-97.5 666,-97.5"/>
<text text-anchor="start" x="674" y="-165.3" font-family="Times,serif" font-size="14.00">0x40c951:</text>
<text text-anchor="start" x="674" y="-150.3" font-family="Times,serif" font-size="14.00"> v20 = v8</text>
<text text-anchor="start" x="674" y="-135.3" font-family="Times,serif" font-size="14.00"> g7 = v20</text>
<text text-anchor="start" x="674" y="-120.3" font-family="Times,serif" font-size="14.00"> g9 = v16</text>
<text text-anchor="start" x="674" y="-105.3" font-family="Times,serif" font-size="14.00"> return result</text>
</g>
<!-- Node0xefc8c10&#45;&gt;Node0xefc8cf0 -->
<g id="edge4" class="edge"><title>Node0xefc8c10&#45;&gt;Node0xefc8cf0</title>
<path fill="none" stroke="black" d="M217.728,-1196.29C197.731,-1177.67 170.5,-1145.98 170.5,-1111.5 170.5,-1111.5 170.5,-1111.5 170.5,-319.5 170.5,-218.567 508.484,-165.686 655.514,-147.457"/>
<polygon fill="black" stroke="black" points="656.262,-150.892 665.763,-146.204 655.412,-143.943 656.262,-150.892"/>
<text text-anchor="middle" x="383.5" y="-733.8" font-family="Times,serif" font-size="14.00">TruncCastExpr&lt;int8&gt;(PtrToIntCastExpr&lt;int32&gt;(a2)) != 3</text>
</g>
<!-- Node0xefc9740 -->
<g id="node6" class="node"><title>Node0xefc9740</title>
<polygon fill="none" stroke="black" points="567.5,-1002.5 567.5,-1038.5 681.5,-1038.5 681.5,-1002.5 567.5,-1002.5"/>
<text text-anchor="start" x="575.5" y="-1016.8" font-family="Times,serif" font-size="14.00">if (v22 &gt;= 1):</text>
</g>
<!-- Node0xefc96e0&#45;&gt;Node0xefc9740 -->
<g id="edge5" class="edge"><title>Node0xefc96e0&#45;&gt;Node0xefc9740</title>
<path fill="none" stroke="black" d="M492.044,-1076.48C519.531,-1065.07 549.553,-1052.61 574.055,-1042.44"/>
<polygon fill="black" stroke="black" points="575.608,-1045.58 583.502,-1038.52 572.924,-1039.12 575.608,-1045.58"/>
</g>
<!-- Node0xefc8b50 -->
<g id="node7" class="node"><title>Node0xefc8b50</title>
<polygon fill="none" stroke="black" points="761.5,-23.5 761.5,-59.5 815.5,-59.5 815.5,-23.5 761.5,-23.5"/>
<text text-anchor="start" x="769.5" y="-37.8" font-family="Times,serif" font-size="14.00">exit:</text>
</g>
<!-- Node0xefc8cf0&#45;&gt;Node0xefc8b50 -->
<g id="edge6" class="edge"><title>Node0xefc8cf0&#45;&gt;Node0xefc8b50</title>
<path fill="none" stroke="black" d="M750.49,-97.4994C757.341,-87.5862 764.487,-77.2462 770.709,-68.2424"/>
<polygon fill="black" stroke="black" points="773.773,-69.9659 776.579,-59.7494 768.014,-65.9861 773.773,-69.9659"/>
</g>
<!-- Node0xefc9d10 -->
<g id="node8" class="node"><title>Node0xefc9d10</title>
<polygon fill="none" stroke="black" points="653,-912.5 653,-950.5 816,-950.5 816,-912.5 653,-912.5"/>
<text text-anchor="start" x="661" y="-935.3" font-family="Times,serif" font-size="14.00">0x40c92d:</text>
<text text-anchor="start" x="661" y="-920.3" font-family="Times,serif" font-size="14.00"> v23 = *(&amp;(v21[&#39;3&#39;]))</text>
</g>
<!-- Node0xefc9740&#45;&gt;Node0xefc9d10 -->
<g id="edge7" class="edge"><title>Node0xefc9740&#45;&gt;Node0xefc9d10</title>
<path fill="none" stroke="black" d="M646.232,-1002.31C662.63,-989.343 685.347,-971.376 703.628,-956.917"/>
<polygon fill="black" stroke="black" points="706.004,-959.5 711.677,-950.551 701.662,-954.009 706.004,-959.5"/>
<text text-anchor="middle" x="721" y="-972.8" font-family="Times,serif" font-size="14.00">v22 &gt;= 1</text>
</g>
<!-- Node0xefc9980 -->
<g id="node9" class="node"><title>Node0xefc9980</title>
<polygon fill="none" stroke="black" points="676,-301.5 676,-339.5 769,-339.5 769,-301.5 676,-301.5"/>
<text text-anchor="start" x="684" y="-324.3" font-family="Times,serif" font-size="14.00">0x40c948:</text>
<text text-anchor="start" x="684" y="-309.3" font-family="Times,serif" font-size="14.00"> result = 0</text>
</g>
<!-- Node0xefc9740&#45;&gt;Node0xefc9980 -->
<g id="edge8" class="edge"><title>Node0xefc9740&#45;&gt;Node0xefc9980</title>
<path fill="none" stroke="black" d="M624.5,-1002.5C624.5,-984.959 624.5,-956.818 624.5,-932.5 624.5,-932.5 624.5,-932.5 624.5,-408.5 624.5,-380.335 647.417,-359.065 671.087,-344.608"/>
<polygon fill="black" stroke="black" points="672.882,-347.613 679.801,-339.59 669.388,-341.548 672.882,-347.613"/>
<text text-anchor="middle" x="653" y="-658.8" font-family="Times,serif" font-size="14.00">v22 &lt; 1</text>
</g>
<!-- Node0xefc9650 -->
<g id="node10" class="node"><title>Node0xefc9650</title>
<polygon fill="none" stroke="black" points="683.5,-838.5 683.5,-874.5 785.5,-874.5 785.5,-838.5 683.5,-838.5"/>
<text text-anchor="start" x="691.5" y="-852.8" font-family="Times,serif" font-size="14.00">if (v23 &gt; 0):</text>
</g>
<!-- Node0xefc9d10&#45;&gt;Node0xefc9650 -->
<g id="edge9" class="edge"><title>Node0xefc9d10&#45;&gt;Node0xefc9650</title>
<path fill="none" stroke="black" d="M734.5,-912.455C734.5,-904.201 734.5,-894.238 734.5,-885.074"/>
<polygon fill="black" stroke="black" points="738,-884.835 734.5,-874.835 731,-884.835 738,-884.835"/>
</g>
<!-- Node0xefc9980&#45;&gt;Node0xefc8cf0 -->
<g id="edge10" class="edge"><title>Node0xefc9980&#45;&gt;Node0xefc8cf0</title>
<path fill="none" stroke="black" d="M722.5,-301.301C722.5,-275.638 722.5,-227.827 722.5,-190.895"/>
<polygon fill="black" stroke="black" points="726,-190.794 722.5,-180.794 719,-190.794 726,-190.794"/>
</g>
<!-- Node0xefc9650&#45;&gt;Node0xefc9980 -->
<g id="edge12" class="edge"><title>Node0xefc9650&#45;&gt;Node0xefc9980</title>
<path fill="none" stroke="black" d="M725.107,-838.23C713.854,-815.89 696.5,-775.448 696.5,-738.5 696.5,-738.5 696.5,-738.5 696.5,-408.5 696.5,-388.135 703.121,-366.168 709.681,-349.403"/>
<polygon fill="black" stroke="black" points="713.108,-350.275 713.698,-339.697 706.64,-347.598 713.108,-350.275"/>
<text text-anchor="middle" x="731" y="-570.8" font-family="Times,serif" font-size="14.00">v23 &lt;= 0</text>
</g>
<!-- Node0xefc90c0 -->
<g id="node11" class="node"><title>Node0xefc90c0</title>
<polygon fill="none" stroke="black" points="724.5,-688.5 724.5,-786.5 1020.5,-786.5 1020.5,-688.5 724.5,-688.5"/>
<text text-anchor="start" x="732.5" y="-771.3" font-family="Times,serif" font-size="14.00">0x40c932:</text>
<text text-anchor="start" x="732.5" y="-756.3" font-family="Times,serif" font-size="14.00"> g7 = 418194</text>
<text text-anchor="start" x="732.5" y="-741.3" font-family="Times,serif" font-size="14.00"> v3 = GetSystemMetrics(0)</text>
<text text-anchor="start" x="732.5" y="-726.3" font-family="Times,serif" font-size="14.00"> g10 = v1</text>
<text text-anchor="start" x="732.5" y="-711.3" font-family="Times,serif" font-size="14.00"> v18 = g9</text>
<text text-anchor="start" x="732.5" y="-696.3" font-family="Times,serif" font-size="14.00"> v19 = *(IntToPtrCastExpr&lt;ptr&gt;(v18))</text>
</g>
<!-- Node0xefc9650&#45;&gt;Node0xefc90c0 -->
<g id="edge11" class="edge"><title>Node0xefc9650&#45;&gt;Node0xefc90c0</title>
<path fill="none" stroke="black" d="M754.566,-838.487C768.755,-826.458 788.631,-809.606 808.028,-793.161"/>
<polygon fill="black" stroke="black" points="810.349,-795.782 815.713,-786.646 805.822,-790.443 810.349,-795.782"/>
<text text-anchor="middle" x="819" y="-808.8" font-family="Times,serif" font-size="14.00">v23 &gt; 0</text>
</g>
<!-- Node0xefc70a0 -->
<g id="node12" class="node"><title>Node0xefc70a0</title>
<polygon fill="none" stroke="black" points="817.5,-600.5 817.5,-636.5 927.5,-636.5 927.5,-600.5 817.5,-600.5"/>
<text text-anchor="start" x="825.5" y="-614.8" font-family="Times,serif" font-size="14.00">if (v19 &lt; v3):</text>
</g>
<!-- Node0xefc90c0&#45;&gt;Node0xefc70a0 -->
<g id="edge13" class="edge"><title>Node0xefc90c0&#45;&gt;Node0xefc70a0</title>
<path fill="none" stroke="black" d="M872.5,-688.236C872.5,-674.117 872.5,-659.177 872.5,-646.845"/>
<polygon fill="black" stroke="black" points="876,-646.766 872.5,-636.766 869,-646.766 876,-646.766"/>
</g>
<!-- Node0xefc70a0&#45;&gt;Node0xefc9980 -->
<g id="edge15" class="edge"><title>Node0xefc70a0&#45;&gt;Node0xefc9980</title>
<path fill="none" stroke="black" d="M844.115,-600.434C826.051,-588.211 803.502,-570.204 789.5,-549 747.491,-485.383 731.201,-394.782 725.402,-349.509"/>
<polygon fill="black" stroke="black" points="728.871,-349.042 724.201,-339.531 721.921,-349.878 728.871,-349.042"/>
</g>
<!-- Node0xefc7180 -->
<g id="node13" class="node"><title>Node0xefc7180</title>
<polygon fill="none" stroke="black" points="798,-465.5 798,-548.5 1011,-548.5 1011,-465.5 798,-465.5"/>
<text text-anchor="start" x="806" y="-533.3" font-family="Times,serif" font-size="14.00">0x40c93f:</text>
<text text-anchor="start" x="806" y="-518.3" font-family="Times,serif" font-size="14.00"> v4 = GetSystemMetrics(1)</text>
<text text-anchor="start" x="806" y="-503.3" font-family="Times,serif" font-size="14.00"> g10 = v1</text>
<text text-anchor="start" x="806" y="-488.3" font-family="Times,serif" font-size="14.00"> v13 = v12</text>
<text text-anchor="start" x="806" y="-473.3" font-family="Times,serif" font-size="14.00"> v24 = *(&amp;(v13[&#39;1&#39;]))</text>
</g>
<!-- Node0xefc70a0&#45;&gt;Node0xefc7180 -->
<g id="edge14" class="edge"><title>Node0xefc70a0&#45;&gt;Node0xefc7180</title>
<path fill="none" stroke="black" d="M877.5,-600.391C880.816,-589.042 885.355,-573.511 889.765,-558.422"/>
<polygon fill="black" stroke="black" points="893.184,-559.198 892.63,-548.618 886.465,-557.235 893.184,-559.198"/>
<text text-anchor="middle" x="919" y="-570.8" font-family="Times,serif" font-size="14.00">v19 &lt; v3</text>
</g>
<!-- Node0xf018d90 -->
<g id="node14" class="node"><title>Node0xf018d90</title>
<polygon fill="none" stroke="black" points="797.5,-391.5 797.5,-427.5 907.5,-427.5 907.5,-391.5 797.5,-391.5"/>
<text text-anchor="start" x="805.5" y="-405.8" font-family="Times,serif" font-size="14.00">if (v24 &lt; v4):</text>
</g>
<!-- Node0xefc7180&#45;&gt;Node0xf018d90 -->
<g id="edge16" class="edge"><title>Node0xefc7180&#45;&gt;Node0xf018d90</title>
<path fill="none" stroke="black" d="M882.447,-465.499C877.162,-455.793 871.654,-445.677 866.824,-436.807"/>
<polygon fill="black" stroke="black" points="869.748,-434.858 861.892,-427.749 863.601,-438.206 869.748,-434.858"/>
</g>
<!-- Node0xf018d90&#45;&gt;Node0xefc9980 -->
<g id="edge18" class="edge"><title>Node0xf018d90&#45;&gt;Node0xefc9980</title>
<path fill="none" stroke="black" d="M830.188,-391.359C816.856,-381.323 799.46,-368.583 783.5,-358 776.846,-353.588 769.661,-349.076 762.636,-344.795"/>
<polygon fill="black" stroke="black" points="764.25,-341.681 753.877,-339.521 760.639,-347.678 764.25,-341.681"/>
</g>
<!-- Node0xf018df0 -->
<g id="node15" class="node"><title>Node0xf018df0</title>
<polygon fill="none" stroke="black" points="751,-199.5 751,-282.5 912,-282.5 912,-199.5 751,-199.5"/>
<text text-anchor="start" x="759" y="-267.3" font-family="Times,serif" font-size="14.00">result = 305397826</text>
<text text-anchor="start" x="759" y="-252.3" font-family="Times,serif" font-size="14.00"> v20 = v8</text>
<text text-anchor="start" x="759" y="-237.3" font-family="Times,serif" font-size="14.00"> g7 = v20</text>
<text text-anchor="start" x="759" y="-222.3" font-family="Times,serif" font-size="14.00"> g9 = v16</text>
<text text-anchor="start" x="759" y="-207.3" font-family="Times,serif" font-size="14.00"> return result</text>
</g>
<!-- Node0xf018d90&#45;&gt;Node0xf018df0 -->
<g id="edge17" class="edge"><title>Node0xf018d90&#45;&gt;Node0xf018df0</title>
<path fill="none" stroke="black" d="M850.332,-391.309C847.426,-368.268 842.143,-326.385 837.911,-292.83"/>
<polygon fill="black" stroke="black" points="841.359,-292.197 836.635,-282.714 834.414,-293.073 841.359,-292.197"/>
<text text-anchor="middle" x="880" y="-361.8" font-family="Times,serif" font-size="14.00">v24 &lt; v4</text>
</g>
<!-- Node0xf018df0&#45;&gt;Node0xefc8b50 -->
<g id="edge19" class="edge"><title>Node0xf018df0&#45;&gt;Node0xefc8b50</title>
<path fill="none" stroke="black" d="M822.59,-199.078C814.155,-160.336 801.729,-103.259 794.44,-69.7813"/>
<polygon fill="black" stroke="black" points="797.813,-68.8209 792.265,-59.7944 790.973,-70.3101 797.813,-68.8209"/>
</g>
</g>
</svg>
