<?xml version="1.0" encoding="UTF-8" standalone="no"?>
<!DOCTYPE svg PUBLIC "-//W3C//DTD SVG 1.1//EN"
 "http://www.w3.org/Graphics/SVG/1.1/DTD/svg11.dtd">
<!-- Generated by graphviz version 2.38.0 (20140413.2041)
 -->
<!-- Title: Control&#45;flow graph for function &#39;function_41b17d()&#39;. Pages: 1 -->
<svg width="702pt" height="562pt"
 viewBox="0.00 0.00 702.00 562.00" xmlns="http://www.w3.org/2000/svg" xmlns:xlink="http://www.w3.org/1999/xlink">
<g id="graph0" class="graph" transform="scale(1 1) rotate(0) translate(4 558)">
<title>Control&#45;flow graph for function &#39;function_41b17d()&#39;.</title>
<polygon fill="white" stroke="none" points="-4,4 -4,-558 698,-558 698,4 -4,4"/>
<text text-anchor="middle" x="347" y="-7.8" font-family="Times,serif" font-size="14.00">Control&#45;flow graph for function &#39;function_41b17d()&#39;.</text>
<!-- Node0xf640460 -->
<g id="node1" class="node"><title>Node0xf640460</title>
<polygon fill="none" stroke="black" points="193.5,-517.5 193.5,-553.5 252.5,-553.5 252.5,-517.5 193.5,-517.5"/>
<text text-anchor="start" x="201.5" y="-531.8" font-family="Times,serif" font-size="14.00">entry:</text>
</g>
<!-- Node0xf63f5a0 -->
<g id="node2" class="node"><title>Node0xf63f5a0</title>
<polygon fill="none" stroke="black" points="129.5,-291.5 129.5,-479.5 316.5,-479.5 316.5,-291.5 129.5,-291.5"/>
<text text-anchor="start" x="137.5" y="-464.3" font-family="Times,serif" font-size="14.00">v1</text>
<text text-anchor="start" x="137.5" y="-449.3" font-family="Times,serif" font-size="14.00"> v2</text>
<text text-anchor="start" x="137.5" y="-434.3" font-family="Times,serif" font-size="14.00"> v3</text>
<text text-anchor="start" x="137.5" y="-419.3" font-family="Times,serif" font-size="14.00"> v4</text>
<text text-anchor="start" x="137.5" y="-404.3" font-family="Times,serif" font-size="14.00"> v5</text>
<text text-anchor="start" x="137.5" y="-389.3" font-family="Times,serif" font-size="14.00"> v6</text>
<text text-anchor="start" x="137.5" y="-374.3" font-family="Times,serif" font-size="14.00"> v7</text>
<text text-anchor="start" x="137.5" y="-359.3" font-family="Times,serif" font-size="14.00"> v3 = v4</text>
<text text-anchor="start" x="137.5" y="-344.3" font-family="Times,serif" font-size="14.00"> v6 = v7</text>
<text text-anchor="start" x="137.5" y="-329.3" font-family="Times,serif" font-size="14.00"> v1 = function_41b0fb()</text>
<text text-anchor="start" x="137.5" y="-314.3" font-family="Times,serif" font-size="14.00"> g5 = v1</text>
<text text-anchor="start" x="137.5" y="-299.3" font-family="Times,serif" font-size="14.00"> g1 = False</text>
</g>
<!-- Node0xf640460&#45;&gt;Node0xf63f5a0 -->
<g id="edge1" class="edge"><title>Node0xf640460&#45;&gt;Node0xf63f5a0</title>
<path fill="none" stroke="black" d="M223,-517.233C223,-509.721 223,-500.26 223,-489.877"/>
<polygon fill="black" stroke="black" points="226.5,-489.674 223,-479.674 219.5,-489.675 226.5,-489.674"/>
</g>
<!-- Node0xf63ef30 -->
<g id="node3" class="node"><title>Node0xf63ef30</title>
<polygon fill="none" stroke="black" points="170.5,-217.5 170.5,-253.5 275.5,-253.5 275.5,-217.5 170.5,-217.5"/>
<text text-anchor="start" x="178.5" y="-231.8" font-family="Times,serif" font-size="14.00">if (v1 == 0):</text>
</g>
<!-- Node0xf63f5a0&#45;&gt;Node0xf63ef30 -->
<g id="edge2" class="edge"><title>Node0xf63f5a0&#45;&gt;Node0xf63ef30</title>
<path fill="none" stroke="black" d="M223,-291.189C223,-281.348 223,-271.996 223,-263.899"/>
<polygon fill="black" stroke="black" points="226.5,-263.708 223,-253.708 219.5,-263.708 226.5,-263.708"/>
</g>
<!-- Node0xf6405f0 -->
<g id="node4" class="node"><title>Node0xf6405f0</title>
<polygon fill="none" stroke="black" points="0,-112.5 0,-150.5 92,-150.5 92,-112.5 0,-112.5"/>
<text text-anchor="start" x="8" y="-135.3" font-family="Times,serif" font-size="14.00">0x41b194:</text>
<text text-anchor="start" x="8" y="-120.3" font-family="Times,serif" font-size="14.00"> return 0</text>
</g>
<!-- Node0xf63ef30&#45;&gt;Node0xf6405f0 -->
<g id="edge3" class="edge"><title>Node0xf63ef30&#45;&gt;Node0xf6405f0</title>
<path fill="none" stroke="black" d="M191.991,-217.487C167.23,-203.806 131.716,-183.97 101,-166 95.4903,-162.777 89.7026,-159.325 84.0348,-155.907"/>
<polygon fill="black" stroke="black" points="85.6499,-152.793 75.2843,-150.601 82.0205,-158.779 85.6499,-152.793"/>
<text text-anchor="middle" x="188" y="-187.8" font-family="Times,serif" font-size="14.00">v1 == 0</text>
</g>
<!-- Node0xf640590 -->
<g id="node5" class="node"><title>Node0xf640590</title>
<polygon fill="none" stroke="black" points="110,-97.5 110,-165.5 694,-165.5 694,-97.5 110,-97.5"/>
<text text-anchor="start" x="118" y="-150.3" font-family="Times,serif" font-size="14.00">0x41b18c:</text>
<text text-anchor="start" x="118" y="-135.3" font-family="Times,serif" font-size="14.00"> g5 = (v1 + 28)</text>
<text text-anchor="start" x="118" y="-120.3" font-family="Times,serif" font-size="14.00"> function_41b3c5(BitCastExpr&lt;ptr&gt;(&amp;(v3)), NULL, BitCastExpr&lt;ptr&gt;(&amp;(v6)))</text>
<text text-anchor="start" x="118" y="-105.3" font-family="Times,serif" font-size="14.00"> return 0</text>
</g>
<!-- Node0xf63ef30&#45;&gt;Node0xf640590 -->
<g id="edge4" class="edge"><title>Node0xf63ef30&#45;&gt;Node0xf640590</title>
<path fill="none" stroke="black" d="M252.961,-217.427C275.322,-204.685 306.759,-186.771 335,-170.679"/>
<polygon fill="black" stroke="black" points="337.086,-173.519 344.041,-165.527 333.62,-167.437 337.086,-173.519"/>
<text text-anchor="middle" x="334" y="-187.8" font-family="Times,serif" font-size="14.00">v1 != 0</text>
</g>
<!-- Node0xf6403c0 -->
<g id="node6" class="node"><title>Node0xf6403c0</title>
<polygon fill="none" stroke="black" points="238,-23.5 238,-59.5 292,-59.5 292,-23.5 238,-23.5"/>
<text text-anchor="start" x="246" y="-37.8" font-family="Times,serif" font-size="14.00">exit:</text>
</g>
<!-- Node0xf6405f0&#45;&gt;Node0xf6403c0 -->
<g id="edge5" class="edge"><title>Node0xf6405f0&#45;&gt;Node0xf6403c0</title>
<path fill="none" stroke="black" d="M73.0242,-112.368C81.7279,-106.988 91.566,-101.372 101,-97 143.063,-77.5074 194.095,-61.6908 227.946,-52.2139"/>
<polygon fill="black" stroke="black" points="229.16,-55.5099 237.871,-49.4793 227.3,-48.7614 229.16,-55.5099"/>
</g>
<!-- Node0xf640590&#45;&gt;Node0xf6403c0 -->
<g id="edge6" class="edge"><title>Node0xf640590&#45;&gt;Node0xf6403c0</title>
<path fill="none" stroke="black" d="M350.596,-97.4817C333.84,-86.7187 315.626,-75.0192 300.324,-65.1901"/>
<polygon fill="black" stroke="black" points="301.99,-62.0999 291.684,-59.6402 298.206,-67.9896 301.99,-62.0999"/>
</g>
</g>
</svg>
