<?xml version="1.0" encoding="UTF-8" standalone="no"?>
<!DOCTYPE svg PUBLIC "-//W3C//DTD SVG 1.1//EN"
 "http://www.w3.org/Graphics/SVG/1.1/DTD/svg11.dtd">
<!-- Generated by graphviz version 2.38.0 (20140413.2041)
 -->
<!-- Title: Control&#45;flow graph for function &#39;function_417b77(*a1)&#39;. Pages: 1 -->
<svg width="420pt" height="682pt"
 viewBox="0.00 0.00 420.00 682.00" xmlns="http://www.w3.org/2000/svg" xmlns:xlink="http://www.w3.org/1999/xlink">
<g id="graph0" class="graph" transform="scale(1 1) rotate(0) translate(4 678)">
<title>Control&#45;flow graph for function &#39;function_417b77(*a1)&#39;.</title>
<polygon fill="white" stroke="none" points="-4,4 -4,-678 416,-678 416,4 -4,4"/>
<text text-anchor="middle" x="206" y="-7.8" font-family="Times,serif" font-size="14.00">Control&#45;flow graph for function &#39;function_417b77(*a1)&#39;.</text>
<!-- Node0xf4e2770 -->
<g id="node1" class="node"><title>Node0xf4e2770</title>
<polygon fill="none" stroke="black" points="191.75,-635.5 191.75,-673.5 250.75,-673.5 250.75,-635.5 191.75,-635.5"/>
<text text-anchor="start" x="199.75" y="-658.3" font-family="Times,serif" font-size="14.00">entry:</text>
<text text-anchor="start" x="199.75" y="-643.3" font-family="Times,serif" font-size="14.00"> a1</text>
</g>
<!-- Node0x8b5c4d0 -->
<g id="node2" class="node"><title>Node0x8b5c4d0</title>
<polygon fill="none" stroke="black" points="82.75,-454.5 82.75,-597.5 359.75,-597.5 359.75,-454.5 82.75,-454.5"/>
<text text-anchor="start" x="90.75" y="-582.3" font-family="Times,serif" font-size="14.00">v1</text>
<text text-anchor="start" x="90.75" y="-567.3" font-family="Times,serif" font-size="14.00"> v2</text>
<text text-anchor="start" x="90.75" y="-552.3" font-family="Times,serif" font-size="14.00"> v3</text>
<text text-anchor="start" x="90.75" y="-537.3" font-family="Times,serif" font-size="14.00"> v4</text>
<text text-anchor="start" x="90.75" y="-522.3" font-family="Times,serif" font-size="14.00"> v5</text>
<text text-anchor="start" x="90.75" y="-507.3" font-family="Times,serif" font-size="14.00"> v2 = v3</text>
<text text-anchor="start" x="90.75" y="-492.3" font-family="Times,serif" font-size="14.00"> v2 = a1</text>
<text text-anchor="start" x="90.75" y="-477.3" font-family="Times,serif" font-size="14.00"> g2 = PtrToIntCastExpr&lt;int32&gt;(a1)</text>
<text text-anchor="start" x="90.75" y="-462.3" font-family="Times,serif" font-size="14.00"> v4 = *(&amp;(a1[&#39;1&#39;]))</text>
</g>
<!-- Node0xf4e2770&#45;&gt;Node0x8b5c4d0 -->
<g id="edge1" class="edge"><title>Node0xf4e2770&#45;&gt;Node0x8b5c4d0</title>
<path fill="none" stroke="black" d="M221.25,-635.376C221.25,-627.61 221.25,-617.95 221.25,-607.621"/>
<polygon fill="black" stroke="black" points="224.75,-607.552 221.25,-597.552 217.75,-607.552 224.75,-607.552"/>
</g>
<!-- Node0xf4d9930 -->
<g id="node3" class="node"><title>Node0xf4d9930</title>
<polygon fill="none" stroke="black" points="159.75,-380.5 159.75,-416.5 282.75,-416.5 282.75,-380.5 159.75,-380.5"/>
<text text-anchor="start" x="167.75" y="-394.8" font-family="Times,serif" font-size="14.00">if (v4 == 256):</text>
</g>
<!-- Node0x8b5c4d0&#45;&gt;Node0xf4d9930 -->
<g id="edge2" class="edge"><title>Node0x8b5c4d0&#45;&gt;Node0xf4d9930</title>
<path fill="none" stroke="black" d="M221.25,-454.181C221.25,-444.439 221.25,-434.961 221.25,-426.707"/>
<polygon fill="black" stroke="black" points="224.75,-426.642 221.25,-416.642 217.75,-426.642 224.75,-426.642"/>
</g>
<!-- Node0xf4dabf0 -->
<g id="node4" class="node"><title>Node0xf4dabf0</title>
<polygon fill="none" stroke="black" points="94.75,-290.5 94.75,-328.5 239.75,-328.5 239.75,-290.5 94.75,-290.5"/>
<text text-anchor="start" x="102.75" y="-313.3" font-family="Times,serif" font-size="14.00">0x417b84:</text>
<text text-anchor="start" x="102.75" y="-298.3" font-family="Times,serif" font-size="14.00"> v5 = *(&amp;(a1[&#39;2&#39;]))</text>
</g>
<!-- Node0xf4d9930&#45;&gt;Node0xf4dabf0 -->
<g id="edge3" class="edge"><title>Node0xf4d9930&#45;&gt;Node0xf4dabf0</title>
<path fill="none" stroke="black" d="M192.937,-380.305C186.55,-375.168 180.431,-369.007 176.25,-362 172.111,-355.063 169.762,-346.725 168.459,-338.798"/>
<polygon fill="black" stroke="black" points="171.924,-338.293 167.286,-328.767 164.971,-339.106 171.924,-338.293"/>
<text text-anchor="middle" x="215.25" y="-350.8" font-family="Times,serif" font-size="14.00">v4 == 256</text>
</g>
<!-- Node0xaccb3b0 -->
<g id="node5" class="node"><title>Node0xaccb3b0</title>
<polygon fill="none" stroke="black" points="162.25,-105 162.25,-143 254.25,-143 254.25,-105 162.25,-105"/>
<text text-anchor="start" x="170.25" y="-127.8" font-family="Times,serif" font-size="14.00">0x417b8e:</text>
<text text-anchor="start" x="170.25" y="-112.8" font-family="Times,serif" font-size="14.00"> return 0</text>
</g>
<!-- Node0xf4d9930&#45;&gt;Node0xaccb3b0 -->
<g id="edge4" class="edge"><title>Node0xf4d9930&#45;&gt;Node0xaccb3b0</title>
<path fill="none" stroke="black" d="M242.078,-380.238C247.01,-374.952 251.603,-368.735 254.25,-362 285.625,-282.166 287.954,-247.879 254.25,-169 251.324,-162.153 246.752,-155.862 241.604,-150.31"/>
<polygon fill="black" stroke="black" points="243.928,-147.688 234.325,-143.212 239.041,-152.699 243.928,-147.688"/>
<text text-anchor="middle" x="315.25" y="-260.8" font-family="Times,serif" font-size="14.00">v4 != 256</text>
</g>
<!-- Node0xf4d9460 -->
<g id="node6" class="node"><title>Node0xf4d9460</title>
<polygon fill="none" stroke="black" points="110.25,-202.5 110.25,-238.5 224.25,-238.5 224.25,-202.5 110.25,-202.5"/>
<text text-anchor="start" x="118.25" y="-216.8" font-family="Times,serif" font-size="14.00">if (v5 == 13):</text>
</g>
<!-- Node0xf4dabf0&#45;&gt;Node0xf4d9460 -->
<g id="edge5" class="edge"><title>Node0xf4dabf0&#45;&gt;Node0xf4d9460</title>
<path fill="none" stroke="black" d="M167.25,-290.474C167.25,-278.456 167.25,-262.434 167.25,-248.857"/>
<polygon fill="black" stroke="black" points="170.75,-248.615 167.25,-238.615 163.75,-248.615 170.75,-248.615"/>
</g>
<!-- Node0xf4d9a80 -->
<g id="node7" class="node"><title>Node0xf4d9a80</title>
<polygon fill="none" stroke="black" points="136.25,-23.5 136.25,-59.5 190.25,-59.5 190.25,-23.5 136.25,-23.5"/>
<text text-anchor="start" x="144.25" y="-37.8" font-family="Times,serif" font-size="14.00">exit:</text>
</g>
<!-- Node0xaccb3b0&#45;&gt;Node0xf4d9a80 -->
<g id="edge6" class="edge"><title>Node0xaccb3b0&#45;&gt;Node0xf4d9a80</title>
<path fill="none" stroke="black" d="M198.039,-104.733C192.064,-94.0451 184.422,-80.3736 177.822,-68.5684"/>
<polygon fill="black" stroke="black" points="180.74,-66.6145 172.805,-59.5935 174.63,-70.0301 180.74,-66.6145"/>
</g>
<!-- Node0xf4d9460&#45;&gt;Node0xaccb3b0 -->
<g id="edge8" class="edge"><title>Node0xf4d9460&#45;&gt;Node0xaccb3b0</title>
<path fill="none" stroke="black" d="M174.77,-202.167C180.781,-188.312 189.322,-168.626 196.273,-152.605"/>
<polygon fill="black" stroke="black" points="199.589,-153.756 200.358,-143.189 193.167,-150.97 199.589,-153.756"/>
<text text-anchor="middle" x="220.75" y="-172.8" font-family="Times,serif" font-size="14.00">v5 != 13</text>
</g>
<!-- Node0xf4d9d80 -->
<g id="node8" class="node"><title>Node0xf4d9d80</title>
<polygon fill="none" stroke="black" points="52.25,-97.5 52.25,-150.5 144.25,-150.5 144.25,-97.5 52.25,-97.5"/>
<text text-anchor="start" x="60.25" y="-135.3" font-family="Times,serif" font-size="14.00">0x417b8a:</text>
<text text-anchor="start" x="60.25" y="-120.3" font-family="Times,serif" font-size="14.00"> g2 = 0</text>
<text text-anchor="start" x="60.25" y="-105.3" font-family="Times,serif" font-size="14.00"> return 1</text>
</g>
<!-- Node0xf4d9460&#45;&gt;Node0xf4d9d80 -->
<g id="edge7" class="edge"><title>Node0xf4d9460&#45;&gt;Node0xf4d9d80</title>
<path fill="none" stroke="black" d="M129.836,-202.321C122.383,-197.361 115.305,-191.276 110.25,-184 105.459,-177.104 102.493,-168.726 100.678,-160.475"/>
<polygon fill="black" stroke="black" points="104.123,-159.851 98.9911,-150.582 97.2223,-161.028 104.123,-159.851"/>
<text text-anchor="middle" x="144.75" y="-172.8" font-family="Times,serif" font-size="14.00">v5 == 13</text>
</g>
<!-- Node0xf4d9d80&#45;&gt;Node0xf4d9a80 -->
<g id="edge9" class="edge"><title>Node0xf4d9d80&#45;&gt;Node0xf4d9a80</title>
<path fill="none" stroke="black" d="M119.174,-97.0862C126.752,-87.7013 135.296,-77.1202 142.83,-67.7896"/>
<polygon fill="black" stroke="black" points="145.582,-69.9526 149.141,-59.9735 140.136,-65.555 145.582,-69.9526"/>
</g>
</g>
</svg>
