<?xml version="1.0" encoding="UTF-8" standalone="no"?>
<!DOCTYPE svg PUBLIC "-//W3C//DTD SVG 1.1//EN"
 "http://www.w3.org/Graphics/SVG/1.1/DTD/svg11.dtd">
<!-- Generated by graphviz version 2.38.0 (20140413.2041)
 -->
<!-- Title: Control&#45;flow graph for function &#39;function_414113(*hResData, *a2, *a3, a4)&#39;. Pages: 1 -->
<svg width="565pt" height="683pt"
 viewBox="0.00 0.00 565.00 683.00" xmlns="http://www.w3.org/2000/svg" xmlns:xlink="http://www.w3.org/1999/xlink">
<g id="graph0" class="graph" transform="scale(1 1) rotate(0) translate(4 679)">
<title>Control&#45;flow graph for function &#39;function_414113(*hResData, *a2, *a3, a4)&#39;.</title>
<polygon fill="white" stroke="none" points="-4,4 -4,-679 561,-679 561,4 -4,4"/>
<text text-anchor="middle" x="278.5" y="-7.8" font-family="Times,serif" font-size="14.00">Control&#45;flow graph for function &#39;function_414113(*hResData, *a2, *a3, a4)&#39;.</text>
<!-- Node0xf36c200 -->
<g id="node1" class="node"><title>Node0xf36c200</title>
<polygon fill="none" stroke="black" points="233.5,-591.5 233.5,-674.5 323.5,-674.5 323.5,-591.5 233.5,-591.5"/>
<text text-anchor="start" x="241.5" y="-659.3" font-family="Times,serif" font-size="14.00">entry:</text>
<text text-anchor="start" x="241.5" y="-644.3" font-family="Times,serif" font-size="14.00"> hResData</text>
<text text-anchor="start" x="241.5" y="-629.3" font-family="Times,serif" font-size="14.00"> a2</text>
<text text-anchor="start" x="241.5" y="-614.3" font-family="Times,serif" font-size="14.00"> a3</text>
<text text-anchor="start" x="241.5" y="-599.3" font-family="Times,serif" font-size="14.00"> a4</text>
</g>
<!-- Node0xf36ccd0 -->
<g id="node2" class="node"><title>Node0xf36ccd0</title>
<polygon fill="none" stroke="black" points="24.5,-96.5 24.5,-554.5 532.5,-554.5 532.5,-96.5 24.5,-96.5"/>
<text text-anchor="start" x="32.5" y="-539.3" font-family="Times,serif" font-size="14.00">v1</text>
<text text-anchor="start" x="32.5" y="-524.3" font-family="Times,serif" font-size="14.00"> result</text>
<text text-anchor="start" x="32.5" y="-509.3" font-family="Times,serif" font-size="14.00"> v2</text>
<text text-anchor="start" x="32.5" y="-494.3" font-family="Times,serif" font-size="14.00"> v3</text>
<text text-anchor="start" x="32.5" y="-479.3" font-family="Times,serif" font-size="14.00"> v4</text>
<text text-anchor="start" x="32.5" y="-464.3" font-family="Times,serif" font-size="14.00"> v5</text>
<text text-anchor="start" x="32.5" y="-449.3" font-family="Times,serif" font-size="14.00"> v6</text>
<text text-anchor="start" x="32.5" y="-434.3" font-family="Times,serif" font-size="14.00"> v7</text>
<text text-anchor="start" x="32.5" y="-419.3" font-family="Times,serif" font-size="14.00"> v8</text>
<text text-anchor="start" x="32.5" y="-404.3" font-family="Times,serif" font-size="14.00"> v9</text>
<text text-anchor="start" x="32.5" y="-389.3" font-family="Times,serif" font-size="14.00"> v10</text>
<text text-anchor="start" x="32.5" y="-374.3" font-family="Times,serif" font-size="14.00"> v11</text>
<text text-anchor="start" x="32.5" y="-359.3" font-family="Times,serif" font-size="14.00"> v12</text>
<text text-anchor="start" x="32.5" y="-344.3" font-family="Times,serif" font-size="14.00"> v13</text>
<text text-anchor="start" x="32.5" y="-329.3" font-family="Times,serif" font-size="14.00"> v14</text>
<text text-anchor="start" x="32.5" y="-314.3" font-family="Times,serif" font-size="14.00"> v15</text>
<text text-anchor="start" x="32.5" y="-299.3" font-family="Times,serif" font-size="14.00"> v16</text>
<text text-anchor="start" x="32.5" y="-284.3" font-family="Times,serif" font-size="14.00"> v17</text>
<text text-anchor="start" x="32.5" y="-269.3" font-family="Times,serif" font-size="14.00"> v18</text>
<text text-anchor="start" x="32.5" y="-254.3" font-family="Times,serif" font-size="14.00"> v4 = v5</text>
<text text-anchor="start" x="32.5" y="-239.3" font-family="Times,serif" font-size="14.00"> v16 = g5</text>
<text text-anchor="start" x="32.5" y="-224.3" font-family="Times,serif" font-size="14.00"> g9 = v16</text>
<text text-anchor="start" x="32.5" y="-209.3" font-family="Times,serif" font-size="14.00"> v1 = LockResource(hResData)</text>
<text text-anchor="start" x="32.5" y="-194.3" font-family="Times,serif" font-size="14.00"> v17 = g9</text>
<text text-anchor="start" x="32.5" y="-179.3" font-family="Times,serif" font-size="14.00"> g5 = v17</text>
<text text-anchor="start" x="32.5" y="-164.3" font-family="Times,serif" font-size="14.00"> v4 = BitCastExpr&lt;ptr&gt;(v1)</text>
<text text-anchor="start" x="32.5" y="-149.3" font-family="Times,serif" font-size="14.00"> result = function_4140e8(BitCastExpr&lt;ptr&gt;(v1), a2, NULL, a3, v9)</text>
<text text-anchor="start" x="32.5" y="-134.3" font-family="Times,serif" font-size="14.00"> v18 = v4</text>
<text text-anchor="start" x="32.5" y="-119.3" font-family="Times,serif" font-size="14.00"> g9 = PtrToIntCastExpr&lt;int32&gt;(v18)</text>
<text text-anchor="start" x="32.5" y="-104.3" font-family="Times,serif" font-size="14.00"> return result</text>
</g>
<!-- Node0xf36c200&#45;&gt;Node0xf36ccd0 -->
<g id="edge1" class="edge"><title>Node0xf36c200&#45;&gt;Node0xf36ccd0</title>
<path fill="none" stroke="black" d="M278.5,-591.432C278.5,-583.421 278.5,-574.493 278.5,-564.899"/>
<polygon fill="black" stroke="black" points="282,-564.67 278.5,-554.67 275,-564.67 282,-564.67"/>
</g>
<!-- Node0xf36ca60 -->
<g id="node3" class="node"><title>Node0xf36ca60</title>
<polygon fill="none" stroke="black" points="251.5,-23.5 251.5,-59.5 305.5,-59.5 305.5,-23.5 251.5,-23.5"/>
<text text-anchor="start" x="259.5" y="-37.8" font-family="Times,serif" font-size="14.00">exit:</text>
</g>
<!-- Node0xf36ccd0&#45;&gt;Node0xf36ca60 -->
<g id="edge2" class="edge"><title>Node0xf36ccd0&#45;&gt;Node0xf36ca60</title>
<path fill="none" stroke="black" d="M278.5,-96.2058C278.5,-86.3861 278.5,-77.4977 278.5,-69.9055"/>
<polygon fill="black" stroke="black" points="282,-69.7521 278.5,-59.7522 275,-69.7522 282,-69.7521"/>
</g>
</g>
</svg>
