<?xml version="1.0" encoding="UTF-8" standalone="no"?>
<!DOCTYPE svg PUBLIC "-//W3C//DTD SVG 1.1//EN"
 "http://www.w3.org/Graphics/SVG/1.1/DTD/svg11.dtd">
<!-- Generated by graphviz version 2.38.0 (20140413.2041)
 -->
<!-- Title: Control&#45;flow graph for function &#39;function_414a4a(a1)&#39;. Pages: 1 -->
<svg width="478pt" height="762pt"
 viewBox="0.00 0.00 478.00 762.00" xmlns="http://www.w3.org/2000/svg" xmlns:xlink="http://www.w3.org/1999/xlink">
<g id="graph0" class="graph" transform="scale(1 1) rotate(0) translate(4 758)">
<title>Control&#45;flow graph for function &#39;function_414a4a(a1)&#39;.</title>
<polygon fill="white" stroke="none" points="-4,4 -4,-758 474,-758 474,4 -4,4"/>
<text text-anchor="middle" x="235" y="-7.8" font-family="Times,serif" font-size="14.00">Control&#45;flow graph for function &#39;function_414a4a(a1)&#39;.</text>
<!-- Node0xf3b9a90 -->
<g id="node1" class="node"><title>Node0xf3b9a90</title>
<polygon fill="none" stroke="black" points="251.5,-715.5 251.5,-753.5 310.5,-753.5 310.5,-715.5 251.5,-715.5"/>
<text text-anchor="start" x="259.5" y="-738.3" font-family="Times,serif" font-size="14.00">entry:</text>
<text text-anchor="start" x="259.5" y="-723.3" font-family="Times,serif" font-size="14.00"> a1</text>
</g>
<!-- Node0xf3bad20 -->
<g id="node2" class="node"><title>Node0xf3bad20</title>
<polygon fill="none" stroke="black" points="110.5,-414.5 110.5,-677.5 451.5,-677.5 451.5,-414.5 110.5,-414.5"/>
<text text-anchor="start" x="118.5" y="-662.3" font-family="Times,serif" font-size="14.00">v1</text>
<text text-anchor="start" x="118.5" y="-647.3" font-family="Times,serif" font-size="14.00"> v2</text>
<text text-anchor="start" x="118.5" y="-632.3" font-family="Times,serif" font-size="14.00"> v3</text>
<text text-anchor="start" x="118.5" y="-617.3" font-family="Times,serif" font-size="14.00"> v4</text>
<text text-anchor="start" x="118.5" y="-602.3" font-family="Times,serif" font-size="14.00"> v5</text>
<text text-anchor="start" x="118.5" y="-587.3" font-family="Times,serif" font-size="14.00"> v6</text>
<text text-anchor="start" x="118.5" y="-572.3" font-family="Times,serif" font-size="14.00"> v7</text>
<text text-anchor="start" x="118.5" y="-557.3" font-family="Times,serif" font-size="14.00"> v8</text>
<text text-anchor="start" x="118.5" y="-542.3" font-family="Times,serif" font-size="14.00"> v9</text>
<text text-anchor="start" x="118.5" y="-527.3" font-family="Times,serif" font-size="14.00"> v10</text>
<text text-anchor="start" x="118.5" y="-512.3" font-family="Times,serif" font-size="14.00"> v11</text>
<text text-anchor="start" x="118.5" y="-497.3" font-family="Times,serif" font-size="14.00"> v12</text>
<text text-anchor="start" x="118.5" y="-482.3" font-family="Times,serif" font-size="14.00"> v4 = v5</text>
<text text-anchor="start" x="118.5" y="-467.3" font-family="Times,serif" font-size="14.00"> v7 = g3</text>
<text text-anchor="start" x="118.5" y="-452.3" font-family="Times,serif" font-size="14.00"> v10 = *(IntToPtrCastExpr&lt;ptr&gt;((v7 + &#45;20)))</text>
<text text-anchor="start" x="118.5" y="-437.3" font-family="Times,serif" font-size="14.00"> g5 = v10</text>
<text text-anchor="start" x="118.5" y="-422.3" font-family="Times,serif" font-size="14.00"> g9 = 0</text>
</g>
<!-- Node0xf3b9a90&#45;&gt;Node0xf3bad20 -->
<g id="edge1" class="edge"><title>Node0xf3b9a90&#45;&gt;Node0xf3bad20</title>
<path fill="none" stroke="black" d="M281,-715.278C281,-707.846 281,-698.547 281,-688.16"/>
<polygon fill="black" stroke="black" points="284.5,-687.892 281,-677.892 277.5,-687.892 284.5,-687.892"/>
</g>
<!-- Node0xf3bbe30 -->
<g id="node3" class="node"><title>Node0xf3bbe30</title>
<polygon fill="none" stroke="black" points="227,-338.5 227,-376.5 335,-376.5 335,-338.5 227,-338.5"/>
<text text-anchor="start" x="235" y="-361.3" font-family="Times,serif" font-size="14.00">if (v10 != 0):</text>
<text text-anchor="start" x="235" y="-346.3" font-family="Times,serif" font-size="14.00"> else:</text>
</g>
<!-- Node0xf3bad20&#45;&gt;Node0xf3bbe30 -->
<g id="edge2" class="edge"><title>Node0xf3bad20&#45;&gt;Node0xf3bbe30</title>
<path fill="none" stroke="black" d="M281,-414.456C281,-404.355 281,-394.953 281,-386.849"/>
<polygon fill="black" stroke="black" points="284.5,-386.658 281,-376.658 277.5,-386.658 284.5,-386.658"/>
</g>
<!-- Node0xf3b8190 -->
<g id="node4" class="node"><title>Node0xf3b8190</title>
<polygon fill="none" stroke="black" points="0,-188.5 0,-286.5 338,-286.5 338,-188.5 0,-188.5"/>
<text text-anchor="start" x="8" y="-271.3" font-family="Times,serif" font-size="14.00">0x414a53:</text>
<text text-anchor="start" x="8" y="-256.3" font-family="Times,serif" font-size="14.00"> function_4177bd(BitCastExpr&lt;ptr&gt;(&amp;(v4)))</text>
<text text-anchor="start" x="8" y="-241.3" font-family="Times,serif" font-size="14.00"> v9 = g3</text>
<text text-anchor="start" x="8" y="-226.3" font-family="Times,serif" font-size="14.00"> v12 = g9</text>
<text text-anchor="start" x="8" y="-211.3" font-family="Times,serif" font-size="14.00"> v11 = v12</text>
<text text-anchor="start" x="8" y="-196.3" font-family="Times,serif" font-size="14.00"> v8 = v9</text>
</g>
<!-- Node0xf3bbe30&#45;&gt;Node0xf3b8190 -->
<g id="edge3" class="edge"><title>Node0xf3bbe30&#45;&gt;Node0xf3b8190</title>
<path fill="none" stroke="black" d="M263.745,-338.321C252.358,-326.324 236.778,-309.909 221.542,-293.856"/>
<polygon fill="black" stroke="black" points="224.004,-291.367 214.581,-286.523 218.927,-296.186 224.004,-291.367"/>
<text text-anchor="middle" x="276.5" y="-308.8" font-family="Times,serif" font-size="14.00">v10 != 0</text>
</g>
<!-- Node0xf3bc450 -->
<g id="node5" class="node"><title>Node0xf3bc450</title>
<polygon fill="none" stroke="black" points="355.5,-218.5 355.5,-256.5 432.5,-256.5 432.5,-218.5 355.5,-218.5"/>
<text text-anchor="start" x="363.5" y="-241.3" font-family="Times,serif" font-size="14.00">v11 = 0</text>
<text text-anchor="start" x="363.5" y="-226.3" font-family="Times,serif" font-size="14.00"> v8 = v7</text>
</g>
<!-- Node0xf3bbe30&#45;&gt;Node0xf3bc450 -->
<g id="edge4" class="edge"><title>Node0xf3bbe30&#45;&gt;Node0xf3bc450</title>
<path fill="none" stroke="black" d="M298.409,-338.321C317.459,-318.428 348.14,-286.39 369.589,-263.991"/>
<polygon fill="black" stroke="black" points="372.368,-266.149 376.757,-256.506 367.313,-261.308 372.368,-266.149"/>
<text text-anchor="middle" x="361.5" y="-308.8" font-family="Times,serif" font-size="14.00">v10 == 0</text>
</g>
<!-- Node0xf3ba0c0 -->
<g id="node6" class="node"><title>Node0xf3ba0c0</title>
<polygon fill="none" stroke="black" points="142,-97.5 142,-150.5 470,-150.5 470,-97.5 142,-97.5"/>
<text text-anchor="start" x="150" y="-135.3" font-family="Times,serif" font-size="14.00">0x414a58:</text>
<text text-anchor="start" x="150" y="-120.3" font-family="Times,serif" font-size="14.00"> *(IntToPtrCastExpr&lt;ptr&gt;((v8 + 8))) = v11</text>
<text text-anchor="start" x="150" y="-105.3" font-family="Times,serif" font-size="14.00"> return 4278837</text>
</g>
<!-- Node0xf3b8190&#45;&gt;Node0xf3ba0c0 -->
<g id="edge5" class="edge"><title>Node0xf3b8190&#45;&gt;Node0xf3ba0c0</title>
<path fill="none" stroke="black" d="M228.293,-188.243C241.22,-177.722 254.592,-166.839 266.523,-157.129"/>
<polygon fill="black" stroke="black" points="268.983,-159.64 274.529,-150.613 264.564,-154.211 268.983,-159.64"/>
</g>
<!-- Node0xf3bc450&#45;&gt;Node0xf3ba0c0 -->
<g id="edge6" class="edge"><title>Node0xf3bc450&#45;&gt;Node0xf3ba0c0</title>
<path fill="none" stroke="black" d="M379.469,-218.088C366.739,-201.96 347.921,-178.115 332.516,-158.597"/>
<polygon fill="black" stroke="black" points="335.094,-156.214 326.151,-150.532 329.599,-160.55 335.094,-156.214"/>
</g>
<!-- Node0xf3bacc0 -->
<g id="node7" class="node"><title>Node0xf3bacc0</title>
<polygon fill="none" stroke="black" points="279,-23.5 279,-59.5 333,-59.5 333,-23.5 279,-23.5"/>
<text text-anchor="start" x="287" y="-37.8" font-family="Times,serif" font-size="14.00">exit:</text>
</g>
<!-- Node0xf3ba0c0&#45;&gt;Node0xf3bacc0 -->
<g id="edge7" class="edge"><title>Node0xf3ba0c0&#45;&gt;Node0xf3bacc0</title>
<path fill="none" stroke="black" d="M306,-97.0862C306,-88.4596 306,-78.8224 306,-70.0748"/>
<polygon fill="black" stroke="black" points="309.5,-69.9735 306,-59.9735 302.5,-69.9735 309.5,-69.9735"/>
</g>
</g>
</svg>
