<?xml version="1.0" encoding="UTF-8" standalone="no"?>
<!DOCTYPE svg PUBLIC "-//W3C//DTD SVG 1.1//EN"
 "http://www.w3.org/Graphics/SVG/1.1/DTD/svg11.dtd">
<!-- Generated by graphviz version 2.38.0 (20140413.2041)
 -->
<!-- Title: Control&#45;flow graph for function &#39;function_41a4bf(*lpFileTime, *a2, *a3)&#39;. Pages: 1 -->
<svg width="1213pt" height="1944pt"
 viewBox="0.00 0.00 1213.00 1944.00" xmlns="http://www.w3.org/2000/svg" xmlns:xlink="http://www.w3.org/1999/xlink">
<g id="graph0" class="graph" transform="scale(1 1) rotate(0) translate(4 1940)">
<title>Control&#45;flow graph for function &#39;function_41a4bf(*lpFileTime, *a2, *a3)&#39;.</title>
<polygon fill="white" stroke="none" points="-4,4 -4,-1940 1209,-1940 1209,4 -4,4"/>
<text text-anchor="middle" x="602.5" y="-7.8" font-family="Times,serif" font-size="14.00">Control&#45;flow graph for function &#39;function_41a4bf(*lpFileTime, *a2, *a3)&#39;.</text>
<!-- Node0xf5f3170 -->
<g id="node1" class="node"><title>Node0xf5f3170</title>
<polygon fill="none" stroke="black" points="760,-1867.5 760,-1935.5 857,-1935.5 857,-1867.5 760,-1867.5"/>
<text text-anchor="start" x="768" y="-1920.3" font-family="Times,serif" font-size="14.00">entry:</text>
<text text-anchor="start" x="768" y="-1905.3" font-family="Times,serif" font-size="14.00"> lpFileTime</text>
<text text-anchor="start" x="768" y="-1890.3" font-family="Times,serif" font-size="14.00"> a2</text>
<text text-anchor="start" x="768" y="-1875.3" font-family="Times,serif" font-size="14.00"> a3</text>
</g>
<!-- Node0xf5f3670 -->
<g id="node2" class="node"><title>Node0xf5f3670</title>
<polygon fill="none" stroke="black" points="500,-861.5 500,-1829.5 1117,-1829.5 1117,-861.5 500,-861.5"/>
<text text-anchor="start" x="508" y="-1814.3" font-family="Times,serif" font-size="14.00">v1</text>
<text text-anchor="start" x="508" y="-1799.3" font-family="Times,serif" font-size="14.00"> v2</text>
<text text-anchor="start" x="508" y="-1784.3" font-family="Times,serif" font-size="14.00"> v3</text>
<text text-anchor="start" x="508" y="-1769.3" font-family="Times,serif" font-size="14.00"> v4</text>
<text text-anchor="start" x="508" y="-1754.3" font-family="Times,serif" font-size="14.00"> v5</text>
<text text-anchor="start" x="508" y="-1739.3" font-family="Times,serif" font-size="14.00"> v6</text>
<text text-anchor="start" x="508" y="-1724.3" font-family="Times,serif" font-size="14.00"> v7</text>
<text text-anchor="start" x="508" y="-1709.3" font-family="Times,serif" font-size="14.00"> v8</text>
<text text-anchor="start" x="508" y="-1694.3" font-family="Times,serif" font-size="14.00"> v9</text>
<text text-anchor="start" x="508" y="-1679.3" font-family="Times,serif" font-size="14.00"> v10</text>
<text text-anchor="start" x="508" y="-1664.3" font-family="Times,serif" font-size="14.00"> v11</text>
<text text-anchor="start" x="508" y="-1649.3" font-family="Times,serif" font-size="14.00"> v12</text>
<text text-anchor="start" x="508" y="-1634.3" font-family="Times,serif" font-size="14.00"> lpLocalFileTime</text>
<text text-anchor="start" x="508" y="-1619.3" font-family="Times,serif" font-size="14.00"> v13</text>
<text text-anchor="start" x="508" y="-1604.3" font-family="Times,serif" font-size="14.00"> lpSystemTime</text>
<text text-anchor="start" x="508" y="-1589.3" font-family="Times,serif" font-size="14.00"> v14</text>
<text text-anchor="start" x="508" y="-1574.3" font-family="Times,serif" font-size="14.00"> v15</text>
<text text-anchor="start" x="508" y="-1559.3" font-family="Times,serif" font-size="14.00"> v16</text>
<text text-anchor="start" x="508" y="-1544.3" font-family="Times,serif" font-size="14.00"> v17</text>
<text text-anchor="start" x="508" y="-1529.3" font-family="Times,serif" font-size="14.00"> v18</text>
<text text-anchor="start" x="508" y="-1514.3" font-family="Times,serif" font-size="14.00"> v19</text>
<text text-anchor="start" x="508" y="-1499.3" font-family="Times,serif" font-size="14.00"> v20</text>
<text text-anchor="start" x="508" y="-1484.3" font-family="Times,serif" font-size="14.00"> v21</text>
<text text-anchor="start" x="508" y="-1469.3" font-family="Times,serif" font-size="14.00"> v22</text>
<text text-anchor="start" x="508" y="-1454.3" font-family="Times,serif" font-size="14.00"> v23</text>
<text text-anchor="start" x="508" y="-1439.3" font-family="Times,serif" font-size="14.00"> v24</text>
<text text-anchor="start" x="508" y="-1424.3" font-family="Times,serif" font-size="14.00"> v25</text>
<text text-anchor="start" x="508" y="-1409.3" font-family="Times,serif" font-size="14.00"> v26</text>
<text text-anchor="start" x="508" y="-1394.3" font-family="Times,serif" font-size="14.00"> v27</text>
<text text-anchor="start" x="508" y="-1379.3" font-family="Times,serif" font-size="14.00"> v28</text>
<text text-anchor="start" x="508" y="-1364.3" font-family="Times,serif" font-size="14.00"> v29</text>
<text text-anchor="start" x="508" y="-1349.3" font-family="Times,serif" font-size="14.00"> v30</text>
<text text-anchor="start" x="508" y="-1334.3" font-family="Times,serif" font-size="14.00"> v31</text>
<text text-anchor="start" x="508" y="-1319.3" font-family="Times,serif" font-size="14.00"> v32</text>
<text text-anchor="start" x="508" y="-1304.3" font-family="Times,serif" font-size="14.00"> v33</text>
<text text-anchor="start" x="508" y="-1289.3" font-family="Times,serif" font-size="14.00"> v34</text>
<text text-anchor="start" x="508" y="-1274.3" font-family="Times,serif" font-size="14.00"> v35</text>
<text text-anchor="start" x="508" y="-1259.3" font-family="Times,serif" font-size="14.00"> result</text>
<text text-anchor="start" x="508" y="-1244.3" font-family="Times,serif" font-size="14.00"> v36</text>
<text text-anchor="start" x="508" y="-1229.3" font-family="Times,serif" font-size="14.00"> v37</text>
<text text-anchor="start" x="508" y="-1214.3" font-family="Times,serif" font-size="14.00"> v38</text>
<text text-anchor="start" x="508" y="-1199.3" font-family="Times,serif" font-size="14.00"> v39</text>
<text text-anchor="start" x="508" y="-1184.3" font-family="Times,serif" font-size="14.00"> v40</text>
<text text-anchor="start" x="508" y="-1169.3" font-family="Times,serif" font-size="14.00"> v20 = v21</text>
<text text-anchor="start" x="508" y="-1154.3" font-family="Times,serif" font-size="14.00"> v18 = v19</text>
<text text-anchor="start" x="508" y="-1139.3" font-family="Times,serif" font-size="14.00"> lpSystemTime = v14</text>
<text text-anchor="start" x="508" y="-1124.3" font-family="Times,serif" font-size="14.00"> lpLocalFileTime = v13</text>
<text text-anchor="start" x="508" y="-1109.3" font-family="Times,serif" font-size="14.00"> v11 = v12</text>
<text text-anchor="start" x="508" y="-1094.3" font-family="Times,serif" font-size="14.00"> v15 = v22</text>
<text text-anchor="start" x="508" y="-1079.3" font-family="Times,serif" font-size="14.00"> v28 = v29</text>
<text text-anchor="start" x="508" y="-1064.3" font-family="Times,serif" font-size="14.00"> v30 = v31</text>
<text text-anchor="start" x="508" y="-1049.3" font-family="Times,serif" font-size="14.00"> v26 = v27</text>
<text text-anchor="start" x="508" y="-1034.3" font-family="Times,serif" font-size="14.00"> v28 = lpFileTime</text>
<text text-anchor="start" x="508" y="-1019.3" font-family="Times,serif" font-size="14.00"> v30 = a2</text>
<text text-anchor="start" x="508" y="-1004.3" font-family="Times,serif" font-size="14.00"> v26 = a3</text>
<text text-anchor="start" x="508" y="-989.3" font-family="Times,serif" font-size="14.00"> g3 = PtrToIntCastExpr&lt;int32&gt;(&amp;(v15))</text>
<text text-anchor="start" x="508" y="-974.3" font-family="Times,serif" font-size="14.00"> v32 = g9</text>
<text text-anchor="start" x="508" y="-959.3" font-family="Times,serif" font-size="14.00"> v16 = v32</text>
<text text-anchor="start" x="508" y="-944.3" font-family="Times,serif" font-size="14.00"> v1 = PtrToIntCastExpr&lt;int32&gt;(&amp;(lpLocalFileTime))</text>
<text text-anchor="start" x="508" y="-929.3" font-family="Times,serif" font-size="14.00"> g2 = v1</text>
<text text-anchor="start" x="508" y="-914.3" font-family="Times,serif" font-size="14.00"> v20 = lpFileTime</text>
<text text-anchor="start" x="508" y="-899.3" font-family="Times,serif" font-size="14.00"> v33 = g5</text>
<text text-anchor="start" x="508" y="-884.3" font-family="Times,serif" font-size="14.00"> g9 = v33</text>
<text text-anchor="start" x="508" y="-869.3" font-family="Times,serif" font-size="14.00"> v7 = FileTimeToLocalFileTime(lpFileTime, BitCastExpr&lt;ptr&gt;(&amp;(lpLocalFileTime)))</text>
</g>
<!-- Node0xf5f3170&#45;&gt;Node0xf5f3670 -->
<g id="edge1" class="edge"><title>Node0xf5f3170&#45;&gt;Node0xf5f3670</title>
<path fill="none" stroke="black" d="M808.5,-1867.09C808.5,-1859.2 808.5,-1850.1 808.5,-1839.96"/>
<polygon fill="black" stroke="black" points="812,-1839.94 808.5,-1829.94 805,-1839.94 812,-1839.94"/>
</g>
<!-- Node0xf5f2430 -->
<g id="node3" class="node"><title>Node0xf5f2430</title>
<polygon fill="none" stroke="black" points="781.5,-787.5 781.5,-823.5 835.5,-823.5 835.5,-787.5 781.5,-787.5"/>
<text text-anchor="start" x="789.5" y="-801.8" font-family="Times,serif" font-size="14.00">if v7:</text>
</g>
<!-- Node0xf5f3670&#45;&gt;Node0xf5f2430 -->
<g id="edge2" class="edge"><title>Node0xf5f3670&#45;&gt;Node0xf5f2430</title>
<path fill="none" stroke="black" d="M808.5,-861.297C808.5,-850.721 808.5,-841.393 808.5,-833.57"/>
<polygon fill="black" stroke="black" points="812,-833.538 808.5,-823.538 805,-833.538 812,-833.538"/>
</g>
<!-- Node0xf5f38d0 -->
<g id="node4" class="node"><title>Node0xf5f38d0</title>
<polygon fill="none" stroke="black" points="408,-516.5 408,-569.5 1205,-569.5 1205,-516.5 408,-516.5"/>
<text text-anchor="start" x="416" y="-554.3" font-family="Times,serif" font-size="14.00">0x41a4ea_2:</text>
<text text-anchor="start" x="416" y="-539.3" font-family="Times,serif" font-size="14.00"> g2 = v1</text>
<text text-anchor="start" x="416" y="-524.3" font-family="Times,serif" font-size="14.00"> v9 = FileTimeToSystemTime(BitCastExpr&lt;ptr&gt;(&amp;(lpLocalFileTime)), BitCastExpr&lt;ptr&gt;(&amp;(lpSystemTime)))</text>
</g>
<!-- Node0xf5f2430&#45;&gt;Node0xf5f38d0 -->
<g id="edge3" class="edge"><title>Node0xf5f2430&#45;&gt;Node0xf5f38d0</title>
<path fill="none" stroke="black" d="M786.551,-787.346C772.434,-774.838 755.319,-756.537 747.5,-736 727.101,-682.419 726.43,-660.322 747.5,-607 751.844,-596.005 759.114,-585.804 767.094,-576.952"/>
<polygon fill="black" stroke="black" points="769.821,-579.166 774.233,-569.533 764.777,-574.312 769.821,-579.166"/>
<text text-anchor="middle" x="756.5" y="-667.8" font-family="Times,serif" font-size="14.00">v7</text>
</g>
<!-- Node0xf5ed900 -->
<g id="node5" class="node"><title>Node0xf5ed900</title>
<polygon fill="none" stroke="black" points="775,-607.5 775,-735.5 1202,-735.5 1202,-607.5 775,-607.5"/>
<text text-anchor="start" x="783" y="-720.3" font-family="Times,serif" font-size="14.00">0x41a4d9:</text>
<text text-anchor="start" x="783" y="-705.3" font-family="Times,serif" font-size="14.00"> v34 = g9</text>
<text text-anchor="start" x="783" y="-690.3" font-family="Times,serif" font-size="14.00"> *(IntToPtrCastExpr&lt;ptr&gt;(v34)) = 0</text>
<text text-anchor="start" x="783" y="-675.3" font-family="Times,serif" font-size="14.00"> v37 = g9</text>
<text text-anchor="start" x="783" y="-660.3" font-family="Times,serif" font-size="14.00"> *(IntToPtrCastExpr&lt;ptr&gt;((v37 + 4))) = 0</text>
<text text-anchor="start" x="783" y="-645.3" font-family="Times,serif" font-size="14.00"> v18 = IntToPtrCastExpr&lt;ptr&gt;(&#45;2147024809)</text>
<text text-anchor="start" x="783" y="-630.3" font-family="Times,serif" font-size="14.00"> function_4024f0(IntToPtrCastExpr&lt;ptr&gt;(&#45;2147024809))</text>
<text text-anchor="start" x="783" y="-615.3" font-family="Times,serif" font-size="14.00"> goto 0x41a4ea_2</text>
</g>
<!-- Node0xf5f2430&#45;&gt;Node0xf5ed900 -->
<g id="edge4" class="edge"><title>Node0xf5f2430&#45;&gt;Node0xf5ed900</title>
<path fill="none" stroke="black" d="M832.032,-787.243C848.314,-775.303 871.153,-758.555 894.36,-741.536"/>
<polygon fill="black" stroke="black" points="896.579,-744.249 902.573,-735.513 892.439,-738.604 896.579,-744.249"/>
<text text-anchor="middle" x="905.5" y="-757.8" font-family="Times,serif" font-size="14.00">not (v7)</text>
</g>
<!-- Node0xf5f2de0 -->
<g id="node6" class="node"><title>Node0xf5f2de0</title>
<polygon fill="none" stroke="black" points="665.5,-442.5 665.5,-478.5 793.5,-478.5 793.5,-442.5 665.5,-442.5"/>
<text text-anchor="start" x="673.5" y="-456.8" font-family="Times,serif" font-size="14.00">if (v9 != False):</text>
</g>
<!-- Node0xf5f38d0&#45;&gt;Node0xf5f2de0 -->
<g id="edge5" class="edge"><title>Node0xf5f38d0&#45;&gt;Node0xf5f2de0</title>
<path fill="none" stroke="black" d="M781.713,-516.086C772.555,-506.512 762.206,-495.692 753.151,-486.226"/>
<polygon fill="black" stroke="black" points="755.655,-483.781 746.214,-478.974 750.597,-488.619 755.655,-483.781"/>
</g>
<!-- Node0xf5ed900&#45;&gt;Node0xf5f38d0 -->
<g id="edge6" class="edge"><title>Node0xf5ed900&#45;&gt;Node0xf5f38d0</title>
<path fill="none" stroke="black" d="M897.767,-607.435C881.839,-596.365 865.902,-585.287 851.904,-575.558"/>
<polygon fill="black" stroke="black" points="853.666,-572.521 843.457,-569.687 849.671,-578.269 853.666,-572.521"/>
</g>
<!-- Node0xf5f3740 -->
<g id="node7" class="node"><title>Node0xf5f3740</title>
<polygon fill="none" stroke="black" points="0,-97.5 0,-390.5 601,-390.5 601,-97.5 0,-97.5"/>
<text text-anchor="start" x="8" y="-375.3" font-family="Times,serif" font-size="14.00">0x41a4fc:</text>
<text text-anchor="start" x="8" y="-360.3" font-family="Times,serif" font-size="14.00"> v39 = v30</text>
<text text-anchor="start" x="8" y="-345.3" font-family="Times,serif" font-size="14.00"> v18 = v39</text>
<text text-anchor="start" x="8" y="-330.3" font-family="Times,serif" font-size="14.00"> v4 = PtrToIntCastExpr&lt;int32&gt;(&amp;(lpSystemTime))</text>
<text text-anchor="start" x="8" y="-315.3" font-family="Times,serif" font-size="14.00"> g2 = v4</text>
<text text-anchor="start" x="8" y="-300.3" font-family="Times,serif" font-size="14.00"> g5 = PtrToIntCastExpr&lt;int32&gt;(&amp;(v11))</text>
<text text-anchor="start" x="8" y="-285.3" font-family="Times,serif" font-size="14.00"> function_41a467(BitCastExpr&lt;ptr&gt;(&amp;(lpSystemTime)), BitCastExpr&lt;ptr&gt;(v39))</text>
<text text-anchor="start" x="8" y="-270.3" font-family="Times,serif" font-size="14.00"> v40 = v11</text>
<text text-anchor="start" x="8" y="-255.3" font-family="Times,serif" font-size="14.00"> v35 = g9</text>
<text text-anchor="start" x="8" y="-240.3" font-family="Times,serif" font-size="14.00"> *(IntToPtrCastExpr&lt;ptr&gt;(v35)) = v40</text>
<text text-anchor="start" x="8" y="-225.3" font-family="Times,serif" font-size="14.00"> g2 = v24</text>
<text text-anchor="start" x="8" y="-210.3" font-family="Times,serif" font-size="14.00"> v38 = g9</text>
<text text-anchor="start" x="8" y="-195.3" font-family="Times,serif" font-size="14.00"> *(IntToPtrCastExpr&lt;ptr&gt;((v38 + 4))) = v24</text>
<text text-anchor="start" x="8" y="-180.3" font-family="Times,serif" font-size="14.00"> result = g9</text>
<text text-anchor="start" x="8" y="-165.3" font-family="Times,serif" font-size="14.00"> g9 = v4</text>
<text text-anchor="start" x="8" y="-150.3" font-family="Times,serif" font-size="14.00"> g10 = PtrToIntCastExpr&lt;int32&gt;(&amp;(v18))</text>
<text text-anchor="start" x="8" y="-135.3" font-family="Times,serif" font-size="14.00"> v36 = v15</text>
<text text-anchor="start" x="8" y="-120.3" font-family="Times,serif" font-size="14.00"> g3 = v36</text>
<text text-anchor="start" x="8" y="-105.3" font-family="Times,serif" font-size="14.00"> return result</text>
</g>
<!-- Node0xf5f2de0&#45;&gt;Node0xf5f3740 -->
<g id="edge7" class="edge"><title>Node0xf5f2de0&#45;&gt;Node0xf5f3740</title>
<path fill="none" stroke="black" d="M685.338,-442.424C671.504,-436.823 656.26,-430.391 642.5,-424 622.778,-414.84 602.561,-405.126 582.291,-395.147"/>
<polygon fill="black" stroke="black" points="583.806,-391.991 573.291,-390.7 580.706,-398.267 583.806,-391.991"/>
<text text-anchor="middle" x="683.5" y="-412.8" font-family="Times,serif" font-size="14.00">v9 != False</text>
</g>
<!-- Node0xf5f4070 -->
<g id="node8" class="node"><title>Node0xf5f4070</title>
<polygon fill="none" stroke="black" points="619,-180 619,-308 1046,-308 1046,-180 619,-180"/>
<text text-anchor="start" x="627" y="-292.8" font-family="Times,serif" font-size="14.00">0x41a4d9:</text>
<text text-anchor="start" x="627" y="-277.8" font-family="Times,serif" font-size="14.00"> v34 = g9</text>
<text text-anchor="start" x="627" y="-262.8" font-family="Times,serif" font-size="14.00"> *(IntToPtrCastExpr&lt;ptr&gt;(v34)) = 0</text>
<text text-anchor="start" x="627" y="-247.8" font-family="Times,serif" font-size="14.00"> v37 = g9</text>
<text text-anchor="start" x="627" y="-232.8" font-family="Times,serif" font-size="14.00"> *(IntToPtrCastExpr&lt;ptr&gt;((v37 + 4))) = 0</text>
<text text-anchor="start" x="627" y="-217.8" font-family="Times,serif" font-size="14.00"> v18 = IntToPtrCastExpr&lt;ptr&gt;(&#45;2147024809)</text>
<text text-anchor="start" x="627" y="-202.8" font-family="Times,serif" font-size="14.00"> function_4024f0(IntToPtrCastExpr&lt;ptr&gt;(&#45;2147024809))</text>
<text text-anchor="start" x="627" y="-187.8" font-family="Times,serif" font-size="14.00"> goto 0x41a4ea_2</text>
</g>
<!-- Node0xf5f2de0&#45;&gt;Node0xf5f4070 -->
<g id="edge8" class="edge"><title>Node0xf5f2de0&#45;&gt;Node0xf5f4070</title>
<path fill="none" stroke="black" d="M727.608,-442.321C727.061,-432.387 727.311,-419.762 730.5,-409 740.17,-376.37 758.206,-343.834 776.455,-316.446"/>
<polygon fill="black" stroke="black" points="779.389,-318.356 782.116,-308.118 773.599,-314.42 779.389,-318.356"/>
<text text-anchor="middle" x="774.5" y="-412.8" font-family="Times,serif" font-size="14.00">v9 == False</text>
</g>
<!-- Node0xf5f35f0 -->
<g id="node9" class="node"><title>Node0xf5f35f0</title>
<polygon fill="none" stroke="black" points="273.5,-23.5 273.5,-59.5 327.5,-59.5 327.5,-23.5 273.5,-23.5"/>
<text text-anchor="start" x="281.5" y="-37.8" font-family="Times,serif" font-size="14.00">exit:</text>
</g>
<!-- Node0xf5f3740&#45;&gt;Node0xf5f35f0 -->
<g id="edge9" class="edge"><title>Node0xf5f3740&#45;&gt;Node0xf5f35f0</title>
<path fill="none" stroke="black" d="M300.5,-97.2875C300.5,-87.0994 300.5,-77.7061 300.5,-69.6805"/>
<polygon fill="black" stroke="black" points="304,-69.6378 300.5,-59.6378 297,-69.6379 304,-69.6378"/>
</g>
<!-- Node0xf5f4070&#45;&gt;Node0xf5f38d0 -->
<g id="edge10" class="edge"><title>Node0xf5f4070&#45;&gt;Node0xf5f38d0</title>
<path fill="none" stroke="black" d="M827.902,-308.404C825.328,-342.651 821.949,-385.658 818.5,-424 816.021,-451.567 812.837,-482.716 810.372,-506.086"/>
<polygon fill="black" stroke="black" points="806.869,-505.922 809.295,-516.235 813.83,-506.661 806.869,-505.922"/>
</g>
</g>
</svg>
