<?xml version="1.0" encoding="UTF-8" standalone="no"?>
<!DOCTYPE svg PUBLIC "-//W3C//DTD SVG 1.1//EN"
 "http://www.w3.org/Graphics/SVG/1.1/DTD/svg11.dtd">
<!-- Generated by graphviz version 2.38.0 (20140413.2041)
 -->
<!-- Title: Control&#45;flow graph for function &#39;function_40fab4(*a1, a2, a3)&#39;. Pages: 1 -->
<svg width="1055pt" height="2074pt"
 viewBox="0.00 0.00 1055.00 2074.00" xmlns="http://www.w3.org/2000/svg" xmlns:xlink="http://www.w3.org/1999/xlink">
<g id="graph0" class="graph" transform="scale(1 1) rotate(0) translate(4 2070)">
<title>Control&#45;flow graph for function &#39;function_40fab4(*a1, a2, a3)&#39;.</title>
<polygon fill="white" stroke="none" points="-4,4 -4,-2070 1051,-2070 1051,4 -4,4"/>
<text text-anchor="middle" x="523.5" y="-7.8" font-family="Times,serif" font-size="14.00">Control&#45;flow graph for function &#39;function_40fab4(*a1, a2, a3)&#39;.</text>
<!-- Node0xf10c7c0 -->
<g id="node1" class="node"><title>Node0xf10c7c0</title>
<polygon fill="none" stroke="black" points="284,-1997.5 284,-2065.5 343,-2065.5 343,-1997.5 284,-1997.5"/>
<text text-anchor="start" x="292" y="-2050.3" font-family="Times,serif" font-size="14.00">entry:</text>
<text text-anchor="start" x="292" y="-2035.3" font-family="Times,serif" font-size="14.00"> a1</text>
<text text-anchor="start" x="292" y="-2020.3" font-family="Times,serif" font-size="14.00"> a2</text>
<text text-anchor="start" x="292" y="-2005.3" font-family="Times,serif" font-size="14.00"> a3</text>
</g>
<!-- Node0xf10da30 -->
<g id="node2" class="node"><title>Node0xf10da30</title>
<polygon fill="none" stroke="black" points="145,-1081.5 145,-1959.5 482,-1959.5 482,-1081.5 145,-1081.5"/>
<text text-anchor="start" x="153" y="-1944.3" font-family="Times,serif" font-size="14.00">v1</text>
<text text-anchor="start" x="153" y="-1929.3" font-family="Times,serif" font-size="14.00"> v2</text>
<text text-anchor="start" x="153" y="-1914.3" font-family="Times,serif" font-size="14.00"> v3</text>
<text text-anchor="start" x="153" y="-1899.3" font-family="Times,serif" font-size="14.00"> v4</text>
<text text-anchor="start" x="153" y="-1884.3" font-family="Times,serif" font-size="14.00"> v5</text>
<text text-anchor="start" x="153" y="-1869.3" font-family="Times,serif" font-size="14.00"> v6</text>
<text text-anchor="start" x="153" y="-1854.3" font-family="Times,serif" font-size="14.00"> v7</text>
<text text-anchor="start" x="153" y="-1839.3" font-family="Times,serif" font-size="14.00"> v8</text>
<text text-anchor="start" x="153" y="-1824.3" font-family="Times,serif" font-size="14.00"> v9</text>
<text text-anchor="start" x="153" y="-1809.3" font-family="Times,serif" font-size="14.00"> v10</text>
<text text-anchor="start" x="153" y="-1794.3" font-family="Times,serif" font-size="14.00"> v11</text>
<text text-anchor="start" x="153" y="-1779.3" font-family="Times,serif" font-size="14.00"> v12</text>
<text text-anchor="start" x="153" y="-1764.3" font-family="Times,serif" font-size="14.00"> v13</text>
<text text-anchor="start" x="153" y="-1749.3" font-family="Times,serif" font-size="14.00"> v14</text>
<text text-anchor="start" x="153" y="-1734.3" font-family="Times,serif" font-size="14.00"> v15</text>
<text text-anchor="start" x="153" y="-1719.3" font-family="Times,serif" font-size="14.00"> v16</text>
<text text-anchor="start" x="153" y="-1704.3" font-family="Times,serif" font-size="14.00"> v17</text>
<text text-anchor="start" x="153" y="-1689.3" font-family="Times,serif" font-size="14.00"> v18</text>
<text text-anchor="start" x="153" y="-1674.3" font-family="Times,serif" font-size="14.00"> v19</text>
<text text-anchor="start" x="153" y="-1659.3" font-family="Times,serif" font-size="14.00"> v20</text>
<text text-anchor="start" x="153" y="-1644.3" font-family="Times,serif" font-size="14.00"> v21</text>
<text text-anchor="start" x="153" y="-1629.3" font-family="Times,serif" font-size="14.00"> v22</text>
<text text-anchor="start" x="153" y="-1614.3" font-family="Times,serif" font-size="14.00"> v23</text>
<text text-anchor="start" x="153" y="-1599.3" font-family="Times,serif" font-size="14.00"> v24</text>
<text text-anchor="start" x="153" y="-1584.3" font-family="Times,serif" font-size="14.00"> v25</text>
<text text-anchor="start" x="153" y="-1569.3" font-family="Times,serif" font-size="14.00"> v26</text>
<text text-anchor="start" x="153" y="-1554.3" font-family="Times,serif" font-size="14.00"> v27</text>
<text text-anchor="start" x="153" y="-1539.3" font-family="Times,serif" font-size="14.00"> v28</text>
<text text-anchor="start" x="153" y="-1524.3" font-family="Times,serif" font-size="14.00"> v29</text>
<text text-anchor="start" x="153" y="-1509.3" font-family="Times,serif" font-size="14.00"> v30</text>
<text text-anchor="start" x="153" y="-1494.3" font-family="Times,serif" font-size="14.00"> v31</text>
<text text-anchor="start" x="153" y="-1479.3" font-family="Times,serif" font-size="14.00"> v32</text>
<text text-anchor="start" x="153" y="-1464.3" font-family="Times,serif" font-size="14.00"> v33</text>
<text text-anchor="start" x="153" y="-1449.3" font-family="Times,serif" font-size="14.00"> v34</text>
<text text-anchor="start" x="153" y="-1434.3" font-family="Times,serif" font-size="14.00"> v35</text>
<text text-anchor="start" x="153" y="-1419.3" font-family="Times,serif" font-size="14.00"> v36</text>
<text text-anchor="start" x="153" y="-1404.3" font-family="Times,serif" font-size="14.00"> v37</text>
<text text-anchor="start" x="153" y="-1389.3" font-family="Times,serif" font-size="14.00"> v38</text>
<text text-anchor="start" x="153" y="-1374.3" font-family="Times,serif" font-size="14.00"> v39</text>
<text text-anchor="start" x="153" y="-1359.3" font-family="Times,serif" font-size="14.00"> v40</text>
<text text-anchor="start" x="153" y="-1344.3" font-family="Times,serif" font-size="14.00"> v41</text>
<text text-anchor="start" x="153" y="-1329.3" font-family="Times,serif" font-size="14.00"> v42</text>
<text text-anchor="start" x="153" y="-1314.3" font-family="Times,serif" font-size="14.00"> v43</text>
<text text-anchor="start" x="153" y="-1299.3" font-family="Times,serif" font-size="14.00"> v44</text>
<text text-anchor="start" x="153" y="-1284.3" font-family="Times,serif" font-size="14.00"> v45</text>
<text text-anchor="start" x="153" y="-1269.3" font-family="Times,serif" font-size="14.00"> v18 = v19</text>
<text text-anchor="start" x="153" y="-1254.3" font-family="Times,serif" font-size="14.00"> v16 = v17</text>
<text text-anchor="start" x="153" y="-1239.3" font-family="Times,serif" font-size="14.00"> v22 = v23</text>
<text text-anchor="start" x="153" y="-1224.3" font-family="Times,serif" font-size="14.00"> v28 = v29</text>
<text text-anchor="start" x="153" y="-1209.3" font-family="Times,serif" font-size="14.00"> v28 = a1</text>
<text text-anchor="start" x="153" y="-1194.3" font-family="Times,serif" font-size="14.00"> v30 = a2</text>
<text text-anchor="start" x="153" y="-1179.3" font-family="Times,serif" font-size="14.00"> v43 = PtrToIntCastExpr&lt;int32&gt;(a1)</text>
<text text-anchor="start" x="153" y="-1164.3" font-family="Times,serif" font-size="14.00"> g2 = v43</text>
<text text-anchor="start" x="153" y="-1149.3" font-family="Times,serif" font-size="14.00"> v44 = *(IntToPtrCastExpr&lt;ptr&gt;((v43 + 8)))</text>
<text text-anchor="start" x="153" y="-1134.3" font-family="Times,serif" font-size="14.00"> v10 = IntToPtrCastExpr&lt;ptr&gt;(v44)</text>
<text text-anchor="start" x="153" y="-1119.3" font-family="Times,serif" font-size="14.00"> v33 = g9</text>
<text text-anchor="start" x="153" y="-1104.3" font-family="Times,serif" font-size="14.00"> v34 = g7</text>
<text text-anchor="start" x="153" y="-1089.3" font-family="Times,serif" font-size="14.00"> v22 = v34</text>
</g>
<!-- Node0xf10c7c0&#45;&gt;Node0xf10da30 -->
<g id="edge1" class="edge"><title>Node0xf10c7c0&#45;&gt;Node0xf10da30</title>
<path fill="none" stroke="black" d="M313.5,-1997.5C313.5,-1989.48 313.5,-1980.2 313.5,-1969.88"/>
<polygon fill="black" stroke="black" points="317,-1969.68 313.5,-1959.68 310,-1969.68 317,-1969.68"/>
</g>
<!-- Node0xf10d8b0 -->
<g id="node3" class="node"><title>Node0xf10d8b0</title>
<polygon fill="none" stroke="black" points="256.5,-1007.5 256.5,-1043.5 370.5,-1043.5 370.5,-1007.5 256.5,-1007.5"/>
<text text-anchor="start" x="264.5" y="-1021.8" font-family="Times,serif" font-size="14.00">if (v44 == 0):</text>
</g>
<!-- Node0xf10da30&#45;&gt;Node0xf10d8b0 -->
<g id="edge2" class="edge"><title>Node0xf10da30&#45;&gt;Node0xf10d8b0</title>
<path fill="none" stroke="black" d="M313.5,-1081.14C313.5,-1070.64 313.5,-1061.36 313.5,-1053.56"/>
<polygon fill="black" stroke="black" points="317,-1053.55 313.5,-1043.55 310,-1053.55 317,-1053.55"/>
</g>
<!-- Node0xf10ea70 -->
<g id="node4" class="node"><title>Node0xf10ea70</title>
<polygon fill="none" stroke="black" points="0,-800.5 0,-883.5 347,-883.5 347,-800.5 0,-800.5"/>
<text text-anchor="start" x="8" y="-868.3" font-family="Times,serif" font-size="14.00">v36 = v34</text>
<text text-anchor="start" x="8" y="-853.3" font-family="Times,serif" font-size="14.00"> v14 = IntToPtrCastExpr&lt;ptr&gt;(&#45;2147417848)</text>
<text text-anchor="start" x="8" y="-838.3" font-family="Times,serif" font-size="14.00"> g7 = v36</text>
<text text-anchor="start" x="8" y="-823.3" font-family="Times,serif" font-size="14.00"> g9 = v33</text>
<text text-anchor="start" x="8" y="-808.3" font-family="Times,serif" font-size="14.00"> return PtrToIntCastExpr&lt;int32&gt;(v14)</text>
</g>
<!-- Node0xf10d8b0&#45;&gt;Node0xf10ea70 -->
<g id="edge3" class="edge"><title>Node0xf10d8b0&#45;&gt;Node0xf10ea70</title>
<path fill="none" stroke="black" d="M299.781,-1007.2C295.221,-1001.43 290.127,-994.948 285.5,-989 260.417,-956.755 232.447,-920.294 210.733,-891.875"/>
<polygon fill="black" stroke="black" points="213.345,-889.529 204.494,-883.706 207.782,-893.778 213.345,-889.529"/>
<text text-anchor="middle" x="320" y="-977.8" font-family="Times,serif" font-size="14.00">v44 == 0</text>
</g>
<!-- Node0xf10e000 -->
<g id="node5" class="node"><title>Node0xf10e000</title>
<polygon fill="none" stroke="black" points="374,-902.5 374,-955.5 487,-955.5 487,-902.5 374,-902.5"/>
<text text-anchor="start" x="382" y="-940.3" font-family="Times,serif" font-size="14.00">0x40fac8:</text>
<text text-anchor="start" x="382" y="-925.3" font-family="Times,serif" font-size="14.00"> if (v26 != 0):</text>
<text text-anchor="start" x="382" y="-910.3" font-family="Times,serif" font-size="14.00"> else:</text>
</g>
<!-- Node0xf10d8b0&#45;&gt;Node0xf10e000 -->
<g id="edge4" class="edge"><title>Node0xf10d8b0&#45;&gt;Node0xf10e000</title>
<path fill="none" stroke="black" d="M334.688,-1007.39C350.361,-994.728 372.166,-977.116 391.015,-961.891"/>
<polygon fill="black" stroke="black" points="393.306,-964.54 398.886,-955.534 388.908,-959.095 393.306,-964.54"/>
<text text-anchor="middle" x="408" y="-977.8" font-family="Times,serif" font-size="14.00">v44 != 0</text>
</g>
<!-- Node0xf10d9d0 -->
<g id="node6" class="node"><title>Node0xf10d9d0</title>
<polygon fill="none" stroke="black" points="199.5,-23.5 199.5,-59.5 253.5,-59.5 253.5,-23.5 199.5,-23.5"/>
<text text-anchor="start" x="207.5" y="-37.8" font-family="Times,serif" font-size="14.00">exit:</text>
</g>
<!-- Node0xf10ea70&#45;&gt;Node0xf10d9d0 -->
<g id="edge5" class="edge"><title>Node0xf10ea70&#45;&gt;Node0xf10d9d0</title>
<path fill="none" stroke="black" d="M168.323,-800.286C156.453,-698.601 131.132,-425.682 169.5,-203 177.927,-154.092 199.804,-100.327 213.873,-69.0945"/>
<polygon fill="black" stroke="black" points="217.157,-70.3299 218.14,-59.7807 210.793,-67.4145 217.157,-70.3299"/>
</g>
<!-- Node0xf10eb60 -->
<g id="node7" class="node"><title>Node0xf10eb60</title>
<polygon fill="none" stroke="black" points="179,-203.5 179,-781.5 682,-781.5 682,-203.5 179,-203.5"/>
<text text-anchor="start" x="187" y="-766.3" font-family="Times,serif" font-size="14.00">0x40fad6:</text>
<text text-anchor="start" x="187" y="-751.3" font-family="Times,serif" font-size="14.00"> v35 = *(&amp;(v10[&#39;0&#39;]))</text>
<text text-anchor="start" x="187" y="-736.3" font-family="Times,serif" font-size="14.00"> g5 = v35</text>
<text text-anchor="start" x="187" y="-721.3" font-family="Times,serif" font-size="14.00"> g1 = (&amp;(v22) &lt; IntToPtrCastExpr&lt;ptr&gt;(16))</text>
<text text-anchor="start" x="187" y="-706.3" font-family="Times,serif" font-size="14.00"> g207 = (&amp;(v22) == IntToPtrCastExpr&lt;ptr&gt;(16))</text>
<text text-anchor="start" x="187" y="-691.3" font-family="Times,serif" font-size="14.00"> v16 = a2</text>
<text text-anchor="start" x="187" y="-676.3" font-family="Times,serif" font-size="14.00"> v42 = g6</text>
<text text-anchor="start" x="187" y="-661.3" font-family="Times,serif" font-size="14.00"> v4 = (&#45;4 if v42 else 4)</text>
<text text-anchor="start" x="187" y="-646.3" font-family="Times,serif" font-size="14.00"> v5 = (v4 + PtrToIntCastExpr&lt;int32&gt;(&amp;(v30)))</text>
<text text-anchor="start" x="187" y="-631.3" font-family="Times,serif" font-size="14.00"> v1 = (v4 + PtrToIntCastExpr&lt;int32&gt;(&amp;(v16)))</text>
<text text-anchor="start" x="187" y="-616.3" font-family="Times,serif" font-size="14.00"> g9 = v5</text>
<text text-anchor="start" x="187" y="-601.3" font-family="Times,serif" font-size="14.00"> g7 = v1</text>
<text text-anchor="start" x="187" y="-586.3" font-family="Times,serif" font-size="14.00"> v38 = *(IntToPtrCastExpr&lt;ptr&gt;(v5))</text>
<text text-anchor="start" x="187" y="-571.3" font-family="Times,serif" font-size="14.00"> *(IntToPtrCastExpr&lt;ptr&gt;(v1)) = v38</text>
<text text-anchor="start" x="187" y="-556.3" font-family="Times,serif" font-size="14.00"> v6 = (v5 + v4)</text>
<text text-anchor="start" x="187" y="-541.3" font-family="Times,serif" font-size="14.00"> v2 = (v1 + v4)</text>
<text text-anchor="start" x="187" y="-526.3" font-family="Times,serif" font-size="14.00"> g9 = v6</text>
<text text-anchor="start" x="187" y="-511.3" font-family="Times,serif" font-size="14.00"> g7 = v2</text>
<text text-anchor="start" x="187" y="-496.3" font-family="Times,serif" font-size="14.00"> v39 = *(IntToPtrCastExpr&lt;ptr&gt;(v6))</text>
<text text-anchor="start" x="187" y="-481.3" font-family="Times,serif" font-size="14.00"> *(IntToPtrCastExpr&lt;ptr&gt;(v2)) = v39</text>
<text text-anchor="start" x="187" y="-466.3" font-family="Times,serif" font-size="14.00"> v7 = (v6 + v4)</text>
<text text-anchor="start" x="187" y="-451.3" font-family="Times,serif" font-size="14.00"> v3 = (v2 + v4)</text>
<text text-anchor="start" x="187" y="-436.3" font-family="Times,serif" font-size="14.00"> g9 = v7</text>
<text text-anchor="start" x="187" y="-421.3" font-family="Times,serif" font-size="14.00"> g7 = v3</text>
<text text-anchor="start" x="187" y="-406.3" font-family="Times,serif" font-size="14.00"> v18 = v10</text>
<text text-anchor="start" x="187" y="-391.3" font-family="Times,serif" font-size="14.00"> g10 = PtrToIntCastExpr&lt;int32&gt;(&amp;(v18))</text>
<text text-anchor="start" x="187" y="-376.3" font-family="Times,serif" font-size="14.00"> v40 = *(IntToPtrCastExpr&lt;ptr&gt;(v7))</text>
<text text-anchor="start" x="187" y="-361.3" font-family="Times,serif" font-size="14.00"> *(IntToPtrCastExpr&lt;ptr&gt;(v3)) = v40</text>
<text text-anchor="start" x="187" y="-346.3" font-family="Times,serif" font-size="14.00"> g9 = (v7 + v4)</text>
<text text-anchor="start" x="187" y="-331.3" font-family="Times,serif" font-size="14.00"> g7 = (v3 + v4)</text>
<text text-anchor="start" x="187" y="-316.3" font-family="Times,serif" font-size="14.00"> v41 = g5</text>
<text text-anchor="start" x="187" y="-301.3" font-family="Times,serif" font-size="14.00"> v45 = *(IntToPtrCastExpr&lt;ptr&gt;((v41 + 48)))</text>
<text text-anchor="start" x="187" y="-286.3" font-family="Times,serif" font-size="14.00"> v8 = v18</text>
<text text-anchor="start" x="187" y="-271.3" font-family="Times,serif" font-size="14.00"> v9 = v16</text>
<text text-anchor="start" x="187" y="-256.3" font-family="Times,serif" font-size="14.00"> IntToPtrCastExpr&lt;ptr&gt;(v45)(PtrToIntCastExpr&lt;int32&gt;(v8), v9, 0)</text>
<text text-anchor="start" x="187" y="-241.3" font-family="Times,serif" font-size="14.00"> v37 = v22</text>
<text text-anchor="start" x="187" y="-226.3" font-family="Times,serif" font-size="14.00"> v36 = v37</text>
<text text-anchor="start" x="187" y="-211.3" font-family="Times,serif" font-size="14.00"> v14 = v10</text>
</g>
<!-- Node0xf10e000&#45;&gt;Node0xf10eb60 -->
<g id="edge6" class="edge"><title>Node0xf10e000&#45;&gt;Node0xf10eb60</title>
<path fill="none" stroke="black" d="M430.5,-902.442C430.5,-877.826 430.5,-837.656 430.5,-791.873"/>
<polygon fill="black" stroke="black" points="434,-791.708 430.5,-781.708 427,-791.708 434,-791.708"/>
<text text-anchor="middle" x="462" y="-838.3" font-family="Times,serif" font-size="14.00">v26 != 0</text>
</g>
<!-- Node0xf10ebc0 -->
<g id="node8" class="node"><title>Node0xf10ebc0</title>
<polygon fill="none" stroke="black" points="700,-473.5 700,-511.5 1047,-511.5 1047,-473.5 700,-473.5"/>
<text text-anchor="start" x="708" y="-496.3" font-family="Times,serif" font-size="14.00">v36 = v34</text>
<text text-anchor="start" x="708" y="-481.3" font-family="Times,serif" font-size="14.00"> v14 = IntToPtrCastExpr&lt;ptr&gt;(&#45;2147467261)</text>
</g>
<!-- Node0xf10e000&#45;&gt;Node0xf10ebc0 -->
<g id="edge7" class="edge"><title>Node0xf10e000&#45;&gt;Node0xf10ebc0</title>
<path fill="none" stroke="black" d="M487.125,-906.148C543.801,-882.176 631.041,-839.349 691.5,-782 775.43,-702.387 837.243,-576.292 861.824,-521.007"/>
<polygon fill="black" stroke="black" points="865.167,-522.099 865.978,-511.535 858.756,-519.288 865.167,-522.099"/>
<text text-anchor="middle" x="701" y="-838.3" font-family="Times,serif" font-size="14.00">v26 == 0</text>
</g>
<!-- Node0xf10df20 -->
<g id="node9" class="node"><title>Node0xf10df20</title>
<polygon fill="none" stroke="black" points="282,-97.5 282,-165.5 579,-165.5 579,-97.5 282,-97.5"/>
<text text-anchor="start" x="290" y="-150.3" font-family="Times,serif" font-size="14.00">0x40faed:</text>
<text text-anchor="start" x="290" y="-135.3" font-family="Times,serif" font-size="14.00"> g7 = v36</text>
<text text-anchor="start" x="290" y="-120.3" font-family="Times,serif" font-size="14.00"> g9 = v33</text>
<text text-anchor="start" x="290" y="-105.3" font-family="Times,serif" font-size="14.00"> return PtrToIntCastExpr&lt;int32&gt;(v14)</text>
</g>
<!-- Node0xf10eb60&#45;&gt;Node0xf10df20 -->
<g id="edge8" class="edge"><title>Node0xf10eb60&#45;&gt;Node0xf10df20</title>
<path fill="none" stroke="black" d="M430.5,-203.427C430.5,-193.34 430.5,-183.985 430.5,-175.598"/>
<polygon fill="black" stroke="black" points="434,-175.51 430.5,-165.51 427,-175.51 434,-175.51"/>
</g>
<!-- Node0xf10ebc0&#45;&gt;Node0xf10df20 -->
<g id="edge9" class="edge"><title>Node0xf10ebc0&#45;&gt;Node0xf10df20</title>
<path fill="none" stroke="black" d="M867.418,-473.331C849.37,-422.282 791.078,-276.509 691.5,-203 661.515,-180.865 625.022,-165.679 588.941,-155.26"/>
<polygon fill="black" stroke="black" points="589.855,-151.882 579.283,-152.58 587.983,-158.627 589.855,-151.882"/>
</g>
<!-- Node0xf10df20&#45;&gt;Node0xf10d9d0 -->
<g id="edge10" class="edge"><title>Node0xf10df20&#45;&gt;Node0xf10d9d0</title>
<path fill="none" stroke="black" d="M353.958,-97.4817C322.679,-83.9891 287.989,-69.0247 262.706,-58.1185"/>
<polygon fill="black" stroke="black" points="264.073,-54.896 253.504,-54.1488 261.3,-61.3235 264.073,-54.896"/>
</g>
</g>
</svg>
