<?xml version="1.0" encoding="UTF-8" standalone="no"?>
<!DOCTYPE svg PUBLIC "-//W3C//DTD SVG 1.1//EN"
 "http://www.w3.org/Graphics/SVG/1.1/DTD/svg11.dtd">
<!-- Generated by graphviz version 2.38.0 (20140413.2041)
 -->
<!-- Title: Control&#45;flow graph for function &#39;function_422f38(*a1, *a2)&#39;. Pages: 1 -->
<svg width="450pt" height="1249pt"
 viewBox="0.00 0.00 450.00 1249.00" xmlns="http://www.w3.org/2000/svg" xmlns:xlink="http://www.w3.org/1999/xlink">
<g id="graph0" class="graph" transform="scale(1 1) rotate(0) translate(4 1245)">
<title>Control&#45;flow graph for function &#39;function_422f38(*a1, *a2)&#39;.</title>
<polygon fill="white" stroke="none" points="-4,4 -4,-1245 446,-1245 446,4 -4,4"/>
<text text-anchor="middle" x="221" y="-7.8" font-family="Times,serif" font-size="14.00">Control&#45;flow graph for function &#39;function_422f38(*a1, *a2)&#39;.</text>
<!-- Node0xfa9be80 -->
<g id="node1" class="node"><title>Node0xfa9be80</title>
<polygon fill="none" stroke="black" points="153.75,-1187.5 153.75,-1240.5 212.75,-1240.5 212.75,-1187.5 153.75,-1187.5"/>
<text text-anchor="start" x="161.75" y="-1225.3" font-family="Times,serif" font-size="14.00">entry:</text>
<text text-anchor="start" x="161.75" y="-1210.3" font-family="Times,serif" font-size="14.00"> a1</text>
<text text-anchor="start" x="161.75" y="-1195.3" font-family="Times,serif" font-size="14.00"> a2</text>
</g>
<!-- Node0xfa9efb0 -->
<g id="node2" class="node"><title>Node0xfa9efb0</title>
<polygon fill="none" stroke="black" points="40.75,-706.5 40.75,-1149.5 325.75,-1149.5 325.75,-706.5 40.75,-706.5"/>
<text text-anchor="start" x="48.75" y="-1134.3" font-family="Times,serif" font-size="14.00">v1</text>
<text text-anchor="start" x="48.75" y="-1119.3" font-family="Times,serif" font-size="14.00"> v2</text>
<text text-anchor="start" x="48.75" y="-1104.3" font-family="Times,serif" font-size="14.00"> v3</text>
<text text-anchor="start" x="48.75" y="-1089.3" font-family="Times,serif" font-size="14.00"> v4</text>
<text text-anchor="start" x="48.75" y="-1074.3" font-family="Times,serif" font-size="14.00"> v5</text>
<text text-anchor="start" x="48.75" y="-1059.3" font-family="Times,serif" font-size="14.00"> v6</text>
<text text-anchor="start" x="48.75" y="-1044.3" font-family="Times,serif" font-size="14.00"> v7</text>
<text text-anchor="start" x="48.75" y="-1029.3" font-family="Times,serif" font-size="14.00"> v8</text>
<text text-anchor="start" x="48.75" y="-1014.3" font-family="Times,serif" font-size="14.00"> v9</text>
<text text-anchor="start" x="48.75" y="-999.3" font-family="Times,serif" font-size="14.00"> v10</text>
<text text-anchor="start" x="48.75" y="-984.3" font-family="Times,serif" font-size="14.00"> v11</text>
<text text-anchor="start" x="48.75" y="-969.3" font-family="Times,serif" font-size="14.00"> v12</text>
<text text-anchor="start" x="48.75" y="-954.3" font-family="Times,serif" font-size="14.00"> v13</text>
<text text-anchor="start" x="48.75" y="-939.3" font-family="Times,serif" font-size="14.00"> result</text>
<text text-anchor="start" x="48.75" y="-924.3" font-family="Times,serif" font-size="14.00"> v14</text>
<text text-anchor="start" x="48.75" y="-909.3" font-family="Times,serif" font-size="14.00"> v15</text>
<text text-anchor="start" x="48.75" y="-894.3" font-family="Times,serif" font-size="14.00"> v16</text>
<text text-anchor="start" x="48.75" y="-879.3" font-family="Times,serif" font-size="14.00"> v17</text>
<text text-anchor="start" x="48.75" y="-864.3" font-family="Times,serif" font-size="14.00"> v18</text>
<text text-anchor="start" x="48.75" y="-849.3" font-family="Times,serif" font-size="14.00"> v19</text>
<text text-anchor="start" x="48.75" y="-834.3" font-family="Times,serif" font-size="14.00"> v20</text>
<text text-anchor="start" x="48.75" y="-819.3" font-family="Times,serif" font-size="14.00"> v8 = v11</text>
<text text-anchor="start" x="48.75" y="-804.3" font-family="Times,serif" font-size="14.00"> v12 = v13</text>
<text text-anchor="start" x="48.75" y="-789.3" font-family="Times,serif" font-size="14.00"> v8 = a1</text>
<text text-anchor="start" x="48.75" y="-774.3" font-family="Times,serif" font-size="14.00"> v12 = a2</text>
<text text-anchor="start" x="48.75" y="-759.3" font-family="Times,serif" font-size="14.00"> v17 = PtrToIntCastExpr&lt;int32&gt;(a1)</text>
<text text-anchor="start" x="48.75" y="-744.3" font-family="Times,serif" font-size="14.00"> g8 = v17</text>
<text text-anchor="start" x="48.75" y="-729.3" font-family="Times,serif" font-size="14.00"> result = g5</text>
<text text-anchor="start" x="48.75" y="-714.3" font-family="Times,serif" font-size="14.00"> v3 = IntToPtrCastExpr&lt;ptr&gt;(result)</text>
</g>
<!-- Node0xfa9be80&#45;&gt;Node0xfa9efb0 -->
<g id="edge1" class="edge"><title>Node0xfa9be80&#45;&gt;Node0xfa9efb0</title>
<path fill="none" stroke="black" d="M183.25,-1187.3C183.25,-1179.48 183.25,-1170.19 183.25,-1159.85"/>
<polygon fill="black" stroke="black" points="186.75,-1159.62 183.25,-1149.62 179.75,-1159.62 186.75,-1159.62"/>
</g>
<!-- Node0xfaa0930 -->
<g id="node3" class="node"><title>Node0xfaa0930</title>
<polygon fill="none" stroke="black" points="109.75,-632.5 109.75,-668.5 256.75,-668.5 256.75,-632.5 109.75,-632.5"/>
<text text-anchor="start" x="117.75" y="-646.8" font-family="Times,serif" font-size="14.00">if (result == v17):</text>
</g>
<!-- Node0xfa9efb0&#45;&gt;Node0xfaa0930 -->
<g id="edge2" class="edge"><title>Node0xfa9efb0&#45;&gt;Node0xfaa0930</title>
<path fill="none" stroke="black" d="M183.25,-706.259C183.25,-695.999 183.25,-686.718 183.25,-678.834"/>
<polygon fill="black" stroke="black" points="186.75,-678.662 183.25,-668.662 179.75,-678.662 186.75,-678.662"/>
</g>
<!-- Node0xfaa0a80 -->
<g id="node4" class="node"><title>Node0xfaa0a80</title>
<polygon fill="none" stroke="black" points="64.75,-455.5 64.75,-493.5 177.75,-493.5 177.75,-455.5 64.75,-455.5"/>
<text text-anchor="start" x="72.75" y="-478.3" font-family="Times,serif" font-size="14.00">0x422f5b:</text>
<text text-anchor="start" x="72.75" y="-463.3" font-family="Times,serif" font-size="14.00"> return result</text>
</g>
<!-- Node0xfaa0930&#45;&gt;Node0xfaa0a80 -->
<g id="edge3" class="edge"><title>Node0xfaa0930&#45;&gt;Node0xfaa0a80</title>
<path fill="none" stroke="black" d="M136.79,-632.35C129.389,-627.549 122.711,-621.52 118.25,-614 98.1617,-580.14 104.991,-532.951 112.527,-503.325"/>
<polygon fill="black" stroke="black" points="115.917,-504.198 115.179,-493.629 109.165,-502.352 115.917,-504.198"/>
<text text-anchor="middle" x="169.25" y="-602.8" font-family="Times,serif" font-size="14.00">result == v17</text>
</g>
<!-- Node0xfa9f160 -->
<g id="node5" class="node"><title>Node0xfa9f160</title>
<polygon fill="none" stroke="black" points="169.25,-512.5 169.25,-580.5 323.25,-580.5 323.25,-512.5 169.25,-512.5"/>
<text text-anchor="start" x="177.25" y="-565.3" font-family="Times,serif" font-size="14.00">0x422f42:</text>
<text text-anchor="start" x="177.25" y="-550.3" font-family="Times,serif" font-size="14.00"> v20 = *(&amp;(a1[&#39;2&#39;]))</text>
<text text-anchor="start" x="177.25" y="-535.3" font-family="Times,serif" font-size="14.00"> v14 = *(&amp;(a1[&#39;0&#39;]))</text>
<text text-anchor="start" x="177.25" y="-520.3" font-family="Times,serif" font-size="14.00"> v6 = v14</text>
</g>
<!-- Node0xfaa0930&#45;&gt;Node0xfa9f160 -->
<g id="edge4" class="edge"><title>Node0xfaa0930&#45;&gt;Node0xfa9f160</title>
<path fill="none" stroke="black" d="M207.533,-632.238C213.655,-626.952 219.756,-620.736 224.25,-614 229.052,-606.802 232.884,-598.468 235.915,-590.185"/>
<polygon fill="black" stroke="black" points="239.282,-591.15 239.114,-580.556 232.64,-588.942 239.282,-591.15"/>
<text text-anchor="middle" x="280.25" y="-602.8" font-family="Times,serif" font-size="14.00">result != v17</text>
</g>
<!-- Node0xfa9ef50 -->
<g id="node6" class="node"><title>Node0xfa9ef50</title>
<polygon fill="none" stroke="black" points="127.25,-23.5 127.25,-59.5 181.25,-59.5 181.25,-23.5 127.25,-23.5"/>
<text text-anchor="start" x="135.25" y="-37.8" font-family="Times,serif" font-size="14.00">exit:</text>
</g>
<!-- Node0xfaa0a80&#45;&gt;Node0xfa9ef50 -->
<g id="edge5" class="edge"><title>Node0xfaa0a80&#45;&gt;Node0xfa9ef50</title>
<path fill="none" stroke="black" d="M121.25,-455.435C121.25,-435.407 121.25,-402.146 121.25,-373.5 121.25,-373.5 121.25,-373.5 121.25,-168 121.25,-132.953 133.436,-94.1564 142.998,-69.1096"/>
<polygon fill="black" stroke="black" points="146.341,-70.1722 146.762,-59.5857 139.831,-67.5993 146.341,-70.1722"/>
</g>
<!-- Node0xfa93170 -->
<g id="node7" class="node"><title>Node0xfa93170</title>
<polygon fill="none" stroke="black" points="192.25,-398.5 192.25,-436.5 300.25,-436.5 300.25,-398.5 192.25,-398.5"/>
<text text-anchor="start" x="200.25" y="-421.3" font-family="Times,serif" font-size="14.00">if (v20 != 0):</text>
<text text-anchor="start" x="200.25" y="-406.3" font-family="Times,serif" font-size="14.00"> else:</text>
</g>
<!-- Node0xfa9f160&#45;&gt;Node0xfa93170 -->
<g id="edge6" class="edge"><title>Node0xfa9f160&#45;&gt;Node0xfa93170</title>
<path fill="none" stroke="black" d="M246.25,-512.464C246.25,-492.124 246.25,-466.319 246.25,-446.9"/>
<polygon fill="black" stroke="black" points="249.75,-446.844 246.25,-436.844 242.75,-446.844 249.75,-446.844"/>
</g>
<!-- Node0xfaa0b00 -->
<g id="node8" class="node"><title>Node0xfaa0b00</title>
<polygon fill="none" stroke="black" points="155.75,-278.5 155.75,-346.5 292.75,-346.5 292.75,-278.5 155.75,-278.5"/>
<text text-anchor="start" x="163.75" y="-331.3" font-family="Times,serif" font-size="14.00">0x422f4a:</text>
<text text-anchor="start" x="163.75" y="-316.3" font-family="Times,serif" font-size="14.00"> *(&amp;(a1[&#39;0&#39;])) = 0</text>
<text text-anchor="start" x="163.75" y="-301.3" font-family="Times,serif" font-size="14.00"> v16 = v6</text>
<text text-anchor="start" x="163.75" y="-286.3" font-family="Times,serif" font-size="14.00"> v15 = v16</text>
</g>
<!-- Node0xfa93170&#45;&gt;Node0xfaa0b00 -->
<g id="edge7" class="edge"><title>Node0xfa93170&#45;&gt;Node0xfaa0b00</title>
<path fill="none" stroke="black" d="M242.317,-398.086C239.847,-386.52 236.552,-371.094 233.452,-356.584"/>
<polygon fill="black" stroke="black" points="236.862,-355.792 231.351,-346.743 230.017,-357.254 236.862,-355.792"/>
<text text-anchor="middle" x="269.75" y="-368.8" font-family="Times,serif" font-size="14.00">v20 != 0</text>
</g>
<!-- Node0xfaa0b80 -->
<g id="node9" class="node"><title>Node0xfaa0b80</title>
<polygon fill="none" stroke="black" points="311.25,-294.5 311.25,-330.5 401.25,-330.5 401.25,-294.5 311.25,-294.5"/>
<text text-anchor="start" x="319.25" y="-308.8" font-family="Times,serif" font-size="14.00">v15 = v14</text>
</g>
<!-- Node0xfa93170&#45;&gt;Node0xfaa0b80 -->
<g id="edge8" class="edge"><title>Node0xfa93170&#45;&gt;Node0xfaa0b80</title>
<path fill="none" stroke="black" d="M280.2,-398.402C288.815,-393.05 297.746,-386.787 305.25,-380 318.401,-368.105 330.589,-352.464 339.751,-339.34"/>
<polygon fill="black" stroke="black" points="342.871,-340.974 345.584,-330.732 337.077,-337.046 342.871,-340.974"/>
<text text-anchor="middle" x="353.75" y="-368.8" font-family="Times,serif" font-size="14.00">v20 == 0</text>
</g>
<!-- Node0xfaa0990 -->
<g id="node10" class="node"><title>Node0xfaa0990</title>
<polygon fill="none" stroke="black" points="149.75,-97.5 149.75,-240.5 312.75,-240.5 312.75,-97.5 149.75,-97.5"/>
<text text-anchor="start" x="157.75" y="-225.3" font-family="Times,serif" font-size="14.00">0x422f4d:</text>
<text text-anchor="start" x="157.75" y="-210.3" font-family="Times,serif" font-size="14.00"> *(&amp;(v3[&#39;0&#39;])) = v15</text>
<text text-anchor="start" x="157.75" y="-195.3" font-family="Times,serif" font-size="14.00"> v9 = v8</text>
<text text-anchor="start" x="157.75" y="-180.3" font-family="Times,serif" font-size="14.00"> v18 = *(&amp;(v9[&#39;1&#39;]))</text>
<text text-anchor="start" x="157.75" y="-165.3" font-family="Times,serif" font-size="14.00"> *(&amp;(v3[&#39;1&#39;])) = v18</text>
<text text-anchor="start" x="157.75" y="-150.3" font-family="Times,serif" font-size="14.00"> v10 = v8</text>
<text text-anchor="start" x="157.75" y="-135.3" font-family="Times,serif" font-size="14.00"> v19 = *(&amp;(v10[&#39;2&#39;]))</text>
<text text-anchor="start" x="157.75" y="-120.3" font-family="Times,serif" font-size="14.00"> *(&amp;(v3[&#39;2&#39;])) = v19</text>
<text text-anchor="start" x="157.75" y="-105.3" font-family="Times,serif" font-size="14.00"> return result</text>
</g>
<!-- Node0xfaa0b00&#45;&gt;Node0xfaa0990 -->
<g id="edge9" class="edge"><title>Node0xfaa0b00&#45;&gt;Node0xfaa0990</title>
<path fill="none" stroke="black" d="M225.891,-278.325C226.308,-269.897 226.775,-260.469 227.254,-250.784"/>
<polygon fill="black" stroke="black" points="230.758,-250.79 227.756,-240.629 223.766,-250.444 230.758,-250.79"/>
</g>
<!-- Node0xfaa0b80&#45;&gt;Node0xfaa0990 -->
<g id="edge10" class="edge"><title>Node0xfaa0b80&#45;&gt;Node0xfaa0990</title>
<path fill="none" stroke="black" d="M341.172,-294.432C330.661,-282.533 315.809,-265.72 300.411,-248.29"/>
<polygon fill="black" stroke="black" points="303.033,-245.972 293.789,-240.795 297.787,-250.606 303.033,-245.972"/>
</g>
<!-- Node0xfaa0990&#45;&gt;Node0xfa9ef50 -->
<g id="edge11" class="edge"><title>Node0xfaa0990&#45;&gt;Node0xfa9ef50</title>
<path fill="none" stroke="black" d="M187.799,-97.181C181.486,-86.8917 175.354,-76.8966 170.096,-68.3274"/>
<polygon fill="black" stroke="black" points="172.98,-66.3352 164.767,-59.642 167.014,-69.996 172.98,-66.3352"/>
</g>
</g>
</svg>
