<?xml version="1.0" encoding="UTF-8" standalone="no"?>
<!DOCTYPE svg PUBLIC "-//W3C//DTD SVG 1.1//EN"
 "http://www.w3.org/Graphics/SVG/1.1/DTD/svg11.dtd">
<!-- Generated by graphviz version 2.38.0 (20140413.2041)
 -->
<!-- Title: Control&#45;flow graph for function &#39;function_4140e8(*a1, *a2, *a3, *a4, a5)&#39;. Pages: 1 -->
<svg width="553pt" height="1135pt"
 viewBox="0.00 0.00 553.00 1135.00" xmlns="http://www.w3.org/2000/svg" xmlns:xlink="http://www.w3.org/1999/xlink">
<g id="graph0" class="graph" transform="scale(1 1) rotate(0) translate(4 1131)">
<title>Control&#45;flow graph for function &#39;function_4140e8(*a1, *a2, *a3, *a4, a5)&#39;.</title>
<polygon fill="white" stroke="none" points="-4,4 -4,-1131 549,-1131 549,4 -4,4"/>
<text text-anchor="middle" x="272.5" y="-7.8" font-family="Times,serif" font-size="14.00">Control&#45;flow graph for function &#39;function_4140e8(*a1, *a2, *a3, *a4, a5)&#39;.</text>
<!-- Node0xf371110 -->
<g id="node1" class="node"><title>Node0xf371110</title>
<polygon fill="none" stroke="black" points="222,-1028.5 222,-1126.5 281,-1126.5 281,-1028.5 222,-1028.5"/>
<text text-anchor="start" x="230" y="-1111.3" font-family="Times,serif" font-size="14.00">entry:</text>
<text text-anchor="start" x="230" y="-1096.3" font-family="Times,serif" font-size="14.00"> a1</text>
<text text-anchor="start" x="230" y="-1081.3" font-family="Times,serif" font-size="14.00"> a2</text>
<text text-anchor="start" x="230" y="-1066.3" font-family="Times,serif" font-size="14.00"> a3</text>
<text text-anchor="start" x="230" y="-1051.3" font-family="Times,serif" font-size="14.00"> a4</text>
<text text-anchor="start" x="230" y="-1036.3" font-family="Times,serif" font-size="14.00"> a5</text>
</g>
<!-- Node0xf370f80 -->
<g id="node2" class="node"><title>Node0xf370f80</title>
<polygon fill="none" stroke="black" points="113,-517.5 113,-990.5 390,-990.5 390,-517.5 113,-517.5"/>
<text text-anchor="start" x="121" y="-975.3" font-family="Times,serif" font-size="14.00">v1</text>
<text text-anchor="start" x="121" y="-960.3" font-family="Times,serif" font-size="14.00"> v2</text>
<text text-anchor="start" x="121" y="-945.3" font-family="Times,serif" font-size="14.00"> v3</text>
<text text-anchor="start" x="121" y="-930.3" font-family="Times,serif" font-size="14.00"> result</text>
<text text-anchor="start" x="121" y="-915.3" font-family="Times,serif" font-size="14.00"> v4</text>
<text text-anchor="start" x="121" y="-900.3" font-family="Times,serif" font-size="14.00"> v5</text>
<text text-anchor="start" x="121" y="-885.3" font-family="Times,serif" font-size="14.00"> v6</text>
<text text-anchor="start" x="121" y="-870.3" font-family="Times,serif" font-size="14.00"> v7</text>
<text text-anchor="start" x="121" y="-855.3" font-family="Times,serif" font-size="14.00"> v8</text>
<text text-anchor="start" x="121" y="-840.3" font-family="Times,serif" font-size="14.00"> v9</text>
<text text-anchor="start" x="121" y="-825.3" font-family="Times,serif" font-size="14.00"> v10</text>
<text text-anchor="start" x="121" y="-810.3" font-family="Times,serif" font-size="14.00"> v11</text>
<text text-anchor="start" x="121" y="-795.3" font-family="Times,serif" font-size="14.00"> v12</text>
<text text-anchor="start" x="121" y="-780.3" font-family="Times,serif" font-size="14.00"> v13</text>
<text text-anchor="start" x="121" y="-765.3" font-family="Times,serif" font-size="14.00"> v14</text>
<text text-anchor="start" x="121" y="-750.3" font-family="Times,serif" font-size="14.00"> v15</text>
<text text-anchor="start" x="121" y="-735.3" font-family="Times,serif" font-size="14.00"> v16</text>
<text text-anchor="start" x="121" y="-720.3" font-family="Times,serif" font-size="14.00"> v17</text>
<text text-anchor="start" x="121" y="-705.3" font-family="Times,serif" font-size="14.00"> v18</text>
<text text-anchor="start" x="121" y="-690.3" font-family="Times,serif" font-size="14.00"> v19</text>
<text text-anchor="start" x="121" y="-675.3" font-family="Times,serif" font-size="14.00"> v20</text>
<text text-anchor="start" x="121" y="-660.3" font-family="Times,serif" font-size="14.00"> v21</text>
<text text-anchor="start" x="121" y="-645.3" font-family="Times,serif" font-size="14.00"> v22</text>
<text text-anchor="start" x="121" y="-630.3" font-family="Times,serif" font-size="14.00"> v5 = v6</text>
<text text-anchor="start" x="121" y="-615.3" font-family="Times,serif" font-size="14.00"> v13 = v14</text>
<text text-anchor="start" x="121" y="-600.3" font-family="Times,serif" font-size="14.00"> v13 = a1</text>
<text text-anchor="start" x="121" y="-585.3" font-family="Times,serif" font-size="14.00"> g2 = PtrToIntCastExpr&lt;int32&gt;(a2)</text>
<text text-anchor="start" x="121" y="-570.3" font-family="Times,serif" font-size="14.00"> v16 = g5</text>
<text text-anchor="start" x="121" y="-555.3" font-family="Times,serif" font-size="14.00"> g9 = v16</text>
<text text-anchor="start" x="121" y="-540.3" font-family="Times,serif" font-size="14.00"> v19 = v16</text>
<text text-anchor="start" x="121" y="-525.3" font-family="Times,serif" font-size="14.00"> v21 = a1</text>
</g>
<!-- Node0xf371110&#45;&gt;Node0xf370f80 -->
<g id="edge1" class="edge"><title>Node0xf371110&#45;&gt;Node0xf370f80</title>
<path fill="none" stroke="black" d="M251.5,-1028.37C251.5,-1019.89 251.5,-1010.58 251.5,-1000.66"/>
<polygon fill="black" stroke="black" points="255,-1000.55 251.5,-990.553 248,-1000.55 255,-1000.55"/>
</g>
<!-- Node0xf36e4b0 -->
<g id="node3" class="node"><title>Node0xf36e4b0</title>
<polygon fill="none" stroke="black" points="181.5,-443.5 181.5,-479.5 321.5,-479.5 321.5,-443.5 181.5,-443.5"/>
<text text-anchor="start" x="189.5" y="-457.8" font-family="Times,serif" font-size="14.00">if (a2 == NULL):</text>
</g>
<!-- Node0xf370f80&#45;&gt;Node0xf36e4b0 -->
<g id="edge2" class="edge"><title>Node0xf370f80&#45;&gt;Node0xf36e4b0</title>
<path fill="none" stroke="black" d="M251.5,-517.482C251.5,-507.134 251.5,-497.799 251.5,-489.881"/>
<polygon fill="black" stroke="black" points="255,-489.675 251.5,-479.675 248,-489.675 255,-489.675"/>
</g>
<!-- Node0x68a7ab0 -->
<g id="node4" class="node"><title>Node0x68a7ab0</title>
<polygon fill="none" stroke="black" points="119,-293.5 119,-391.5 270,-391.5 270,-293.5 119,-293.5"/>
<text text-anchor="start" x="127" y="-376.3" font-family="Times,serif" font-size="14.00">0x4140f3:</text>
<text text-anchor="start" x="127" y="-361.3" font-family="Times,serif" font-size="14.00"> function_40a1a0()</text>
<text text-anchor="start" x="127" y="-346.3" font-family="Times,serif" font-size="14.00"> v22 = v13</text>
<text text-anchor="start" x="127" y="-331.3" font-family="Times,serif" font-size="14.00"> v20 = g9</text>
<text text-anchor="start" x="127" y="-316.3" font-family="Times,serif" font-size="14.00"> v19 = v20</text>
<text text-anchor="start" x="127" y="-301.3" font-family="Times,serif" font-size="14.00"> v21 = v22</text>
</g>
<!-- Node0xf36e4b0&#45;&gt;Node0x68a7ab0 -->
<g id="edge3" class="edge"><title>Node0xf36e4b0&#45;&gt;Node0x68a7ab0</title>
<path fill="none" stroke="black" d="M215.887,-443.394C208.999,-438.431 202.644,-432.326 198.5,-425 194.483,-417.9 192.071,-409.87 190.745,-401.688"/>
<polygon fill="black" stroke="black" points="194.216,-401.236 189.631,-391.684 187.259,-402.01 194.216,-401.236"/>
<text text-anchor="middle" x="245.5" y="-413.8" font-family="Times,serif" font-size="14.00">a2 == NULL</text>
</g>
<!-- Node0xf361d60 -->
<g id="node5" class="node"><title>Node0xf361d60</title>
<polygon fill="none" stroke="black" points="0,-97.5 0,-255.5 545,-255.5 545,-97.5 0,-97.5"/>
<text text-anchor="start" x="8" y="-240.3" font-family="Times,serif" font-size="14.00">0x4140f8:</text>
<text text-anchor="start" x="8" y="-225.3" font-family="Times,serif" font-size="14.00"> v5 = v21</text>
<text text-anchor="start" x="8" y="-210.3" font-family="Times,serif" font-size="14.00"> *(IntToPtrCastExpr&lt;ptr&gt;((v19 + 100))) = PtrToIntCastExpr&lt;int32&gt;(a3)</text>
<text text-anchor="start" x="8" y="-195.3" font-family="Times,serif" font-size="14.00"> v17 = g9</text>
<text text-anchor="start" x="8" y="-180.3" font-family="Times,serif" font-size="14.00"> g5 = v17</text>
<text text-anchor="start" x="8" y="-165.3" font-family="Times,serif" font-size="14.00"> v1 = v5</text>
<text text-anchor="start" x="8" y="-150.3" font-family="Times,serif" font-size="14.00"> result = function_413d25(v1)</text>
<text text-anchor="start" x="8" y="-135.3" font-family="Times,serif" font-size="14.00"> v18 = v5</text>
<text text-anchor="start" x="8" y="-120.3" font-family="Times,serif" font-size="14.00"> g9 = PtrToIntCastExpr&lt;int32&gt;(v18)</text>
<text text-anchor="start" x="8" y="-105.3" font-family="Times,serif" font-size="14.00"> return result</text>
</g>
<!-- Node0xf36e4b0&#45;&gt;Node0xf361d60 -->
<g id="edge4" class="edge"><title>Node0xf36e4b0&#45;&gt;Node0xf361d60</title>
<path fill="none" stroke="black" d="M278.128,-443.326C283.932,-438.188 289.291,-432.022 292.5,-425 315.127,-375.478 310.56,-314.579 300.124,-265.582"/>
<polygon fill="black" stroke="black" points="303.495,-264.623 297.89,-255.632 296.665,-266.156 303.495,-264.623"/>
<text text-anchor="middle" x="352.5" y="-338.8" font-family="Times,serif" font-size="14.00">a2 != NULL</text>
</g>
<!-- Node0x68a7ab0&#45;&gt;Node0xf361d60 -->
<g id="edge5" class="edge"><title>Node0x68a7ab0&#45;&gt;Node0xf361d60</title>
<path fill="none" stroke="black" d="M217.481,-293.182C221.737,-284.231 226.302,-274.633 230.916,-264.933"/>
<polygon fill="black" stroke="black" points="234.211,-266.154 235.345,-255.62 227.89,-263.147 234.211,-266.154"/>
</g>
<!-- Node0xf374680 -->
<g id="node6" class="node"><title>Node0xf374680</title>
<polygon fill="none" stroke="black" points="245.5,-23.5 245.5,-59.5 299.5,-59.5 299.5,-23.5 245.5,-23.5"/>
<text text-anchor="start" x="253.5" y="-37.8" font-family="Times,serif" font-size="14.00">exit:</text>
</g>
<!-- Node0xf361d60&#45;&gt;Node0xf374680 -->
<g id="edge6" class="edge"><title>Node0xf361d60&#45;&gt;Node0xf374680</title>
<path fill="none" stroke="black" d="M272.5,-97.3641C272.5,-87.4565 272.5,-77.9047 272.5,-69.6254"/>
<polygon fill="black" stroke="black" points="276,-69.5515 272.5,-59.5516 269,-69.5516 276,-69.5515"/>
</g>
</g>
</svg>
