<?xml version="1.0" encoding="UTF-8" standalone="no"?>
<!DOCTYPE svg PUBLIC "-//W3C//DTD SVG 1.1//EN"
 "http://www.w3.org/Graphics/SVG/1.1/DTD/svg11.dtd">
<!-- Generated by graphviz version 2.38.0 (20140413.2041)
 -->
<!-- Title: Control&#45;flow graph for function &#39;function_41ad46(*a1, a2, a3)&#39;. Pages: 1 -->
<svg width="1072pt" height="2435pt"
 viewBox="0.00 0.00 1072.00 2435.00" xmlns="http://www.w3.org/2000/svg" xmlns:xlink="http://www.w3.org/1999/xlink">
<g id="graph0" class="graph" transform="scale(1 1) rotate(0) translate(4 2431)">
<title>Control&#45;flow graph for function &#39;function_41ad46(*a1, a2, a3)&#39;.</title>
<polygon fill="white" stroke="none" points="-4,4 -4,-2431 1068,-2431 1068,4 -4,4"/>
<text text-anchor="middle" x="532" y="-7.8" font-family="Times,serif" font-size="14.00">Control&#45;flow graph for function &#39;function_41ad46(*a1, a2, a3)&#39;.</text>
<!-- Node0xf61a080 -->
<g id="node1" class="node"><title>Node0xf61a080</title>
<polygon fill="none" stroke="black" points="578.5,-2358.5 578.5,-2426.5 637.5,-2426.5 637.5,-2358.5 578.5,-2358.5"/>
<text text-anchor="start" x="586.5" y="-2411.3" font-family="Times,serif" font-size="14.00">entry:</text>
<text text-anchor="start" x="586.5" y="-2396.3" font-family="Times,serif" font-size="14.00"> a1</text>
<text text-anchor="start" x="586.5" y="-2381.3" font-family="Times,serif" font-size="14.00"> a2</text>
<text text-anchor="start" x="586.5" y="-2366.3" font-family="Times,serif" font-size="14.00"> a3</text>
</g>
<!-- Node0xf620040 -->
<g id="node2" class="node"><title>Node0xf620040</title>
<polygon fill="none" stroke="black" points="421.5,-1397.5 421.5,-2320.5 794.5,-2320.5 794.5,-1397.5 421.5,-1397.5"/>
<text text-anchor="start" x="429.5" y="-2305.3" font-family="Times,serif" font-size="14.00">v1</text>
<text text-anchor="start" x="429.5" y="-2290.3" font-family="Times,serif" font-size="14.00"> v2</text>
<text text-anchor="start" x="429.5" y="-2275.3" font-family="Times,serif" font-size="14.00"> v3</text>
<text text-anchor="start" x="429.5" y="-2260.3" font-family="Times,serif" font-size="14.00"> lpCriticalSection</text>
<text text-anchor="start" x="429.5" y="-2245.3" font-family="Times,serif" font-size="14.00"> v4</text>
<text text-anchor="start" x="429.5" y="-2230.3" font-family="Times,serif" font-size="14.00"> v5</text>
<text text-anchor="start" x="429.5" y="-2215.3" font-family="Times,serif" font-size="14.00"> lpCriticalSection2</text>
<text text-anchor="start" x="429.5" y="-2200.3" font-family="Times,serif" font-size="14.00"> v6</text>
<text text-anchor="start" x="429.5" y="-2185.3" font-family="Times,serif" font-size="14.00"> v7</text>
<text text-anchor="start" x="429.5" y="-2170.3" font-family="Times,serif" font-size="14.00"> v8</text>
<text text-anchor="start" x="429.5" y="-2155.3" font-family="Times,serif" font-size="14.00"> v9</text>
<text text-anchor="start" x="429.5" y="-2140.3" font-family="Times,serif" font-size="14.00"> v10</text>
<text text-anchor="start" x="429.5" y="-2125.3" font-family="Times,serif" font-size="14.00"> v11</text>
<text text-anchor="start" x="429.5" y="-2110.3" font-family="Times,serif" font-size="14.00"> v12</text>
<text text-anchor="start" x="429.5" y="-2095.3" font-family="Times,serif" font-size="14.00"> v13</text>
<text text-anchor="start" x="429.5" y="-2080.3" font-family="Times,serif" font-size="14.00"> v14</text>
<text text-anchor="start" x="429.5" y="-2065.3" font-family="Times,serif" font-size="14.00"> v15</text>
<text text-anchor="start" x="429.5" y="-2050.3" font-family="Times,serif" font-size="14.00"> v16</text>
<text text-anchor="start" x="429.5" y="-2035.3" font-family="Times,serif" font-size="14.00"> v17</text>
<text text-anchor="start" x="429.5" y="-2020.3" font-family="Times,serif" font-size="14.00"> v18</text>
<text text-anchor="start" x="429.5" y="-2005.3" font-family="Times,serif" font-size="14.00"> v19</text>
<text text-anchor="start" x="429.5" y="-1990.3" font-family="Times,serif" font-size="14.00"> v20</text>
<text text-anchor="start" x="429.5" y="-1975.3" font-family="Times,serif" font-size="14.00"> v21</text>
<text text-anchor="start" x="429.5" y="-1960.3" font-family="Times,serif" font-size="14.00"> v22</text>
<text text-anchor="start" x="429.5" y="-1945.3" font-family="Times,serif" font-size="14.00"> v23</text>
<text text-anchor="start" x="429.5" y="-1930.3" font-family="Times,serif" font-size="14.00"> v24</text>
<text text-anchor="start" x="429.5" y="-1915.3" font-family="Times,serif" font-size="14.00"> v25</text>
<text text-anchor="start" x="429.5" y="-1900.3" font-family="Times,serif" font-size="14.00"> v26</text>
<text text-anchor="start" x="429.5" y="-1885.3" font-family="Times,serif" font-size="14.00"> v27</text>
<text text-anchor="start" x="429.5" y="-1870.3" font-family="Times,serif" font-size="14.00"> v28</text>
<text text-anchor="start" x="429.5" y="-1855.3" font-family="Times,serif" font-size="14.00"> v29</text>
<text text-anchor="start" x="429.5" y="-1840.3" font-family="Times,serif" font-size="14.00"> v30</text>
<text text-anchor="start" x="429.5" y="-1825.3" font-family="Times,serif" font-size="14.00"> v31</text>
<text text-anchor="start" x="429.5" y="-1810.3" font-family="Times,serif" font-size="14.00"> v32</text>
<text text-anchor="start" x="429.5" y="-1795.3" font-family="Times,serif" font-size="14.00"> v33</text>
<text text-anchor="start" x="429.5" y="-1780.3" font-family="Times,serif" font-size="14.00"> dwTlsIndex</text>
<text text-anchor="start" x="429.5" y="-1765.3" font-family="Times,serif" font-size="14.00"> v34</text>
<text text-anchor="start" x="429.5" y="-1750.3" font-family="Times,serif" font-size="14.00"> v35</text>
<text text-anchor="start" x="429.5" y="-1735.3" font-family="Times,serif" font-size="14.00"> v36</text>
<text text-anchor="start" x="429.5" y="-1720.3" font-family="Times,serif" font-size="14.00"> v37</text>
<text text-anchor="start" x="429.5" y="-1705.3" font-family="Times,serif" font-size="14.00"> v38</text>
<text text-anchor="start" x="429.5" y="-1690.3" font-family="Times,serif" font-size="14.00"> v39</text>
<text text-anchor="start" x="429.5" y="-1675.3" font-family="Times,serif" font-size="14.00"> v40</text>
<text text-anchor="start" x="429.5" y="-1660.3" font-family="Times,serif" font-size="14.00"> v41</text>
<text text-anchor="start" x="429.5" y="-1645.3" font-family="Times,serif" font-size="14.00"> v13 = v14</text>
<text text-anchor="start" x="429.5" y="-1630.3" font-family="Times,serif" font-size="14.00"> v11 = v12</text>
<text text-anchor="start" x="429.5" y="-1615.3" font-family="Times,serif" font-size="14.00"> v9 = v10</text>
<text text-anchor="start" x="429.5" y="-1600.3" font-family="Times,serif" font-size="14.00"> v17 = v18</text>
<text text-anchor="start" x="429.5" y="-1585.3" font-family="Times,serif" font-size="14.00"> v21 = v22</text>
<text text-anchor="start" x="429.5" y="-1570.3" font-family="Times,serif" font-size="14.00"> v21 = a1</text>
<text text-anchor="start" x="429.5" y="-1555.3" font-family="Times,serif" font-size="14.00"> v24 = g4</text>
<text text-anchor="start" x="429.5" y="-1540.3" font-family="Times,serif" font-size="14.00"> v25 = g9</text>
<text text-anchor="start" x="429.5" y="-1525.3" font-family="Times,serif" font-size="14.00"> v17 = IntToPtrCastExpr&lt;ptr&gt;(v25)</text>
<text text-anchor="start" x="429.5" y="-1510.3" font-family="Times,serif" font-size="14.00"> v26 = g5</text>
<text text-anchor="start" x="429.5" y="-1495.3" font-family="Times,serif" font-size="14.00"> g9 = v26</text>
<text text-anchor="start" x="429.5" y="-1480.3" font-family="Times,serif" font-size="14.00"> v37 = (v26 + 28)</text>
<text text-anchor="start" x="429.5" y="-1465.3" font-family="Times,serif" font-size="14.00"> g4 = v37</text>
<text text-anchor="start" x="429.5" y="-1450.3" font-family="Times,serif" font-size="14.00"> lpCriticalSection = IntToPtrCastExpr&lt;ptr&gt;(v37)</text>
<text text-anchor="start" x="429.5" y="-1435.3" font-family="Times,serif" font-size="14.00"> v9 = lpCriticalSection</text>
<text text-anchor="start" x="429.5" y="-1420.3" font-family="Times,serif" font-size="14.00"> EnterCriticalSection(lpCriticalSection)</text>
<text text-anchor="start" x="429.5" y="-1405.3" font-family="Times,serif" font-size="14.00"> v27 = g9</text>
</g>
<!-- Node0xf61a080&#45;&gt;Node0xf620040 -->
<g id="edge1" class="edge"><title>Node0xf61a080&#45;&gt;Node0xf620040</title>
<path fill="none" stroke="black" d="M608,-2358.25C608,-2350.33 608,-2341.18 608,-2331"/>
<polygon fill="black" stroke="black" points="611.5,-2330.93 608,-2320.93 604.5,-2330.93 611.5,-2330.93"/>
</g>
<!-- Node0xf61c8f0 -->
<g id="node3" class="node"><title>Node0xf61c8f0</title>
<polygon fill="none" stroke="black" points="555.5,-1321.5 555.5,-1359.5 660.5,-1359.5 660.5,-1321.5 555.5,-1321.5"/>
<text text-anchor="start" x="563.5" y="-1344.3" font-family="Times,serif" font-size="14.00">if (a2 == 0):</text>
<text text-anchor="start" x="563.5" y="-1329.3" font-family="Times,serif" font-size="14.00"> else:</text>
</g>
<!-- Node0xf620040&#45;&gt;Node0xf61c8f0 -->
<g id="edge2" class="edge"><title>Node0xf620040&#45;&gt;Node0xf61c8f0</title>
<path fill="none" stroke="black" d="M608,-1397.27C608,-1386.9 608,-1377.7 608,-1369.91"/>
<polygon fill="black" stroke="black" points="611.5,-1369.86 608,-1359.86 604.5,-1369.86 611.5,-1369.86"/>
</g>
<!-- Node0xf61fe10 -->
<g id="node4" class="node"><title>Node0xf61fe10</title>
<polygon fill="none" stroke="black" points="212.5,-1201.5 212.5,-1269.5 565.5,-1269.5 565.5,-1201.5 212.5,-1201.5"/>
<text text-anchor="start" x="220.5" y="-1254.3" font-family="Times,serif" font-size="14.00">0x41ad5b:</text>
<text text-anchor="start" x="220.5" y="-1239.3" font-family="Times,serif" font-size="14.00"> dwTlsIndex = *(IntToPtrCastExpr&lt;ptr&gt;(v27))</text>
<text text-anchor="start" x="220.5" y="-1224.3" font-family="Times,serif" font-size="14.00"> v9 = IntToPtrCastExpr&lt;ptr&gt;(dwTlsIndex)</text>
<text text-anchor="start" x="220.5" y="-1209.3" font-family="Times,serif" font-size="14.00"> v6 = TlsGetValue(dwTlsIndex)</text>
</g>
<!-- Node0xf61c8f0&#45;&gt;Node0xf61fe10 -->
<g id="edge3" class="edge"><title>Node0xf61c8f0&#45;&gt;Node0xf61fe10</title>
<path fill="none" stroke="black" d="M569.603,-1321.44C541.675,-1308.31 502.877,-1290.06 468.397,-1273.84"/>
<polygon fill="black" stroke="black" points="469.806,-1270.64 459.267,-1269.55 466.827,-1276.97 469.806,-1270.64"/>
<text text-anchor="middle" x="555" y="-1291.8" font-family="Times,serif" font-size="14.00">a2 == 0</text>
</g>
<!-- Node0xf623010 -->
<g id="node5" class="node"><title>Node0xf623010</title>
<polygon fill="none" stroke="black" points="584,-1209 584,-1262 930,-1262 930,-1209 584,-1209"/>
<text text-anchor="start" x="592" y="-1246.8" font-family="Times,serif" font-size="14.00">0x41ad75:</text>
<text text-anchor="start" x="592" y="-1231.8" font-family="Times,serif" font-size="14.00"> v39 = *(IntToPtrCastExpr&lt;ptr&gt;((v27 + 20)))</text>
<text text-anchor="start" x="592" y="-1216.8" font-family="Times,serif" font-size="14.00"> g2 = v39</text>
</g>
<!-- Node0xf61c8f0&#45;&gt;Node0xf623010 -->
<g id="edge4" class="edge"><title>Node0xf61c8f0&#45;&gt;Node0xf623010</title>
<path fill="none" stroke="black" d="M634.295,-1321.32C655.687,-1306.53 686.372,-1285.32 711.704,-1267.81"/>
<polygon fill="black" stroke="black" points="713.833,-1270.59 720.069,-1262.03 709.853,-1264.84 713.833,-1270.59"/>
<text text-anchor="middle" x="709" y="-1291.8" font-family="Times,serif" font-size="14.00">a2 != 0</text>
</g>
<!-- Node0xf61f470 -->
<g id="node6" class="node"><title>Node0xf61f470</title>
<polygon fill="none" stroke="black" points="322,-1127.5 322,-1163.5 456,-1163.5 456,-1127.5 322,-1127.5"/>
<text text-anchor="start" x="330" y="-1141.8" font-family="Times,serif" font-size="14.00">if (v6 != NULL):</text>
</g>
<!-- Node0xf61fe10&#45;&gt;Node0xf61f470 -->
<g id="edge5" class="edge"><title>Node0xf61fe10&#45;&gt;Node0xf61f470</title>
<path fill="none" stroke="black" d="M389,-1201.48C389,-1192.33 389,-1182.5 389,-1173.72"/>
<polygon fill="black" stroke="black" points="392.5,-1173.64 389,-1163.64 385.5,-1173.64 392.5,-1173.64"/>
</g>
<!-- Node0xf61dc60 -->
<g id="node7" class="node"><title>Node0xf61dc60</title>
<polygon fill="none" stroke="black" points="703,-1127.5 703,-1163.5 811,-1163.5 811,-1127.5 703,-1127.5"/>
<text text-anchor="start" x="711" y="-1141.8" font-family="Times,serif" font-size="14.00">if (v39 != 0):</text>
</g>
<!-- Node0xf623010&#45;&gt;Node0xf61dc60 -->
<g id="edge6" class="edge"><title>Node0xf623010&#45;&gt;Node0xf61dc60</title>
<path fill="none" stroke="black" d="M757,-1208.57C757,-1197.58 757,-1184.78 757,-1173.66"/>
<polygon fill="black" stroke="black" points="760.5,-1173.63 757,-1163.63 753.5,-1173.63 760.5,-1173.63"/>
</g>
<!-- Node0xf624730 -->
<g id="node8" class="node"><title>Node0xf624730</title>
<polygon fill="none" stroke="black" points="0,-947.5 0,-1075.5 374,-1075.5 374,-947.5 0,-947.5"/>
<text text-anchor="start" x="8" y="-1060.3" font-family="Times,serif" font-size="14.00">0x41ad67:</text>
<text text-anchor="start" x="8" y="-1045.3" font-family="Times,serif" font-size="14.00"> v38 = v21</text>
<text text-anchor="start" x="8" y="-1030.3" font-family="Times,serif" font-size="14.00"> v9 = v38</text>
<text text-anchor="start" x="8" y="-1015.3" font-family="Times,serif" font-size="14.00"> v28 = g9</text>
<text text-anchor="start" x="8" y="-1000.3" font-family="Times,serif" font-size="14.00"> g5 = v28</text>
<text text-anchor="start" x="8" y="-985.3" font-family="Times,serif" font-size="14.00"> v11 = BitCastExpr&lt;ptr&gt;(v6)</text>
<text text-anchor="start" x="8" y="-970.3" font-family="Times,serif" font-size="14.00"> v1 = v17</text>
<text text-anchor="start" x="8" y="-955.3" font-family="Times,serif" font-size="14.00"> function_41acb1(BitCastExpr&lt;ptr&gt;(v6), v38, v1)</text>
</g>
<!-- Node0xf61f470&#45;&gt;Node0xf624730 -->
<g id="edge7" class="edge"><title>Node0xf61f470&#45;&gt;Node0xf624730</title>
<path fill="none" stroke="black" d="M344.236,-1127.36C332.154,-1122.07 319.304,-1115.82 308,-1109 294.57,-1100.89 280.973,-1091.46 267.983,-1081.74"/>
<polygon fill="black" stroke="black" points="270.059,-1078.92 259.98,-1075.65 265.822,-1084.49 270.059,-1078.92"/>
<text text-anchor="middle" x="352" y="-1097.8" font-family="Times,serif" font-size="14.00">v6 != NULL</text>
</g>
<!-- Node0xf61ddf0 -->
<g id="node9" class="node"><title>Node0xf61ddf0</title>
<polygon fill="none" stroke="black" points="130,-623.5 130,-766.5 512,-766.5 512,-623.5 130,-623.5"/>
<text text-anchor="start" x="138" y="-751.3" font-family="Times,serif" font-size="14.00">0x41ad93:</text>
<text text-anchor="start" x="138" y="-736.3" font-family="Times,serif" font-size="14.00"> v33 = g4</text>
<text text-anchor="start" x="138" y="-721.3" font-family="Times,serif" font-size="14.00"> lpCriticalSection2 = IntToPtrCastExpr&lt;ptr&gt;(v33)</text>
<text text-anchor="start" x="138" y="-706.3" font-family="Times,serif" font-size="14.00"> v9 = lpCriticalSection2</text>
<text text-anchor="start" x="138" y="-691.3" font-family="Times,serif" font-size="14.00"> LeaveCriticalSection(lpCriticalSection2)</text>
<text text-anchor="start" x="138" y="-676.3" font-family="Times,serif" font-size="14.00"> v35 = v17</text>
<text text-anchor="start" x="138" y="-661.3" font-family="Times,serif" font-size="14.00"> g9 = PtrToIntCastExpr&lt;int32&gt;(v35)</text>
<text text-anchor="start" x="138" y="-646.3" font-family="Times,serif" font-size="14.00"> g4 = v24</text>
<text text-anchor="start" x="138" y="-631.3" font-family="Times,serif" font-size="14.00"> return</text>
</g>
<!-- Node0xf61f470&#45;&gt;Node0xf61ddf0 -->
<g id="edge8" class="edge"><title>Node0xf61f470&#45;&gt;Node0xf61ddf0</title>
<path fill="none" stroke="black" d="M393.098,-1127.27C394.283,-1121.49 395.414,-1115 396,-1109 396.648,-1102.36 396.294,-1100.66 396,-1094 393.108,-1028.48 393.785,-1011.7 383,-947 373.385,-889.321 357.5,-825.345 344.216,-776.419"/>
<polygon fill="black" stroke="black" points="347.525,-775.25 341.511,-766.528 340.773,-777.097 347.525,-775.25"/>
<text text-anchor="middle" x="443" y="-1007.8" font-family="Times,serif" font-size="14.00">v6 == NULL</text>
</g>
<!-- Node0xf6244d0 -->
<g id="node10" class="node"><title>Node0xf6244d0</title>
<polygon fill="none" stroke="black" points="543.5,-955 543.5,-1068 812.5,-1068 812.5,-955 543.5,-955"/>
<text text-anchor="start" x="551.5" y="-1052.8" font-family="Times,serif" font-size="14.00">0x41ad7c:</text>
<text text-anchor="start" x="551.5" y="-1037.8" font-family="Times,serif" font-size="14.00"> v29 = g7</text>
<text text-anchor="start" x="551.5" y="-1022.8" font-family="Times,serif" font-size="14.00"> v4 = IntToPtrCastExpr&lt;ptr&gt;(v29)</text>
<text text-anchor="start" x="551.5" y="-1007.8" font-family="Times,serif" font-size="14.00"> v9 = v4</text>
<text text-anchor="start" x="551.5" y="-992.8" font-family="Times,serif" font-size="14.00"> v2 = v4</text>
<text text-anchor="start" x="551.5" y="-977.8" font-family="Times,serif" font-size="14.00"> v30 = v27</text>
<text text-anchor="start" x="551.5" y="-962.8" font-family="Times,serif" font-size="14.00"> v36 = v39</text>
</g>
<!-- Node0xf61dc60&#45;&gt;Node0xf6244d0 -->
<g id="edge9" class="edge"><title>Node0xf61dc60&#45;&gt;Node0xf6244d0</title>
<path fill="none" stroke="black" d="M746.672,-1127.24C738.873,-1114.21 727.646,-1095.45 716.523,-1076.87"/>
<polygon fill="black" stroke="black" points="719.399,-1074.86 711.26,-1068.07 713.392,-1078.45 719.399,-1074.86"/>
<text text-anchor="middle" x="764.5" y="-1097.8" font-family="Times,serif" font-size="14.00">v39 != 0</text>
</g>
<!-- Node0xf615f50 -->
<g id="node11" class="node"><title>Node0xf615f50</title>
<polygon fill="none" stroke="black" points="682,-785.5 682,-928.5 1064,-928.5 1064,-785.5 682,-785.5"/>
<text text-anchor="start" x="690" y="-913.3" font-family="Times,serif" font-size="14.00">0x41ad93:</text>
<text text-anchor="start" x="690" y="-898.3" font-family="Times,serif" font-size="14.00"> v33 = g4</text>
<text text-anchor="start" x="690" y="-883.3" font-family="Times,serif" font-size="14.00"> lpCriticalSection2 = IntToPtrCastExpr&lt;ptr&gt;(v33)</text>
<text text-anchor="start" x="690" y="-868.3" font-family="Times,serif" font-size="14.00"> v9 = lpCriticalSection2</text>
<text text-anchor="start" x="690" y="-853.3" font-family="Times,serif" font-size="14.00"> LeaveCriticalSection(lpCriticalSection2)</text>
<text text-anchor="start" x="690" y="-838.3" font-family="Times,serif" font-size="14.00"> v35 = v17</text>
<text text-anchor="start" x="690" y="-823.3" font-family="Times,serif" font-size="14.00"> g9 = PtrToIntCastExpr&lt;int32&gt;(v35)</text>
<text text-anchor="start" x="690" y="-808.3" font-family="Times,serif" font-size="14.00"> g4 = v24</text>
<text text-anchor="start" x="690" y="-793.3" font-family="Times,serif" font-size="14.00"> return</text>
</g>
<!-- Node0xf61dc60&#45;&gt;Node0xf615f50 -->
<g id="edge10" class="edge"><title>Node0xf61dc60&#45;&gt;Node0xf615f50</title>
<path fill="none" stroke="black" d="M780.429,-1127.24C787.114,-1121.77 794.162,-1115.47 800,-1109 811.812,-1095.92 814.991,-1092.17 822,-1076 840.886,-1032.42 853.363,-980.768 861.245,-938.684"/>
<polygon fill="black" stroke="black" points="864.705,-939.222 863.054,-928.757 857.818,-937.968 864.705,-939.222"/>
<text text-anchor="middle" x="846.5" y="-1097.8" font-family="Times,serif" font-size="14.00">v39 == 0</text>
</g>
<!-- Node0xf624730&#45;&gt;Node0xf61ddf0 -->
<g id="edge11" class="edge"><title>Node0xf624730&#45;&gt;Node0xf61ddf0</title>
<path fill="none" stroke="black" d="M213.956,-947.235C234.972,-897.909 264.292,-829.096 286.933,-775.956"/>
<polygon fill="black" stroke="black" points="290.236,-777.134 290.935,-766.562 283.796,-774.39 290.236,-777.134"/>
</g>
<!-- Node0xf61ffe0 -->
<g id="node12" class="node"><title>Node0xf61ffe0</title>
<polygon fill="none" stroke="black" points="513,-23.5 513,-59.5 567,-59.5 567,-23.5 513,-23.5"/>
<text text-anchor="start" x="521" y="-37.8" font-family="Times,serif" font-size="14.00">exit:</text>
</g>
<!-- Node0xf61ddf0&#45;&gt;Node0xf61ffe0 -->
<g id="edge12" class="edge"><title>Node0xf61ddf0&#45;&gt;Node0xf61ffe0</title>
<path fill="none" stroke="black" d="M321,-623.24C321,-583.004 321,-531.681 321,-486 321,-486 321,-486 321,-183 321,-143.856 313.002,-125.343 340,-97 382.512,-52.3699 457.659,-43.0631 502.746,-41.7916"/>
<polygon fill="black" stroke="black" points="503.036,-45.2874 512.978,-41.6266 502.923,-38.2883 503.036,-45.2874"/>
</g>
<!-- Node0xf624380 -->
<g id="node13" class="node"><title>Node0xf624380</title>
<polygon fill="none" stroke="black" points="618.5,-677 618.5,-713 715.5,-713 715.5,-677 618.5,-677"/>
<text text-anchor="start" x="626.5" y="-691.3" font-family="Times,serif" font-size="14.00">while True:</text>
</g>
<!-- Node0xf6244d0&#45;&gt;Node0xf624380 -->
<g id="edge13" class="edge"><title>Node0xf6244d0&#45;&gt;Node0xf624380</title>
<path fill="none" stroke="black" d="M676.059,-954.998C673.681,-887.005 669.747,-774.536 667.949,-723.139"/>
<polygon fill="black" stroke="black" points="671.447,-723.008 667.599,-713.137 664.451,-723.253 671.447,-723.008"/>
</g>
<!-- Node0xf615f50&#45;&gt;Node0xf61ffe0 -->
<g id="edge14" class="edge"><title>Node0xf615f50&#45;&gt;Node0xf61ffe0</title>
<path fill="none" stroke="black" d="M873,-785.232C873,-733.502 873,-661.646 873,-598.5 873,-598.5 873,-598.5 873,-183 873,-143.856 882.303,-124.041 854,-97 814.822,-59.5681 651.783,-47.5113 577.351,-43.9125"/>
<polygon fill="black" stroke="black" points="577.187,-40.4015 567.037,-43.4409 576.867,-47.3942 577.187,-40.4015"/>
</g>
<!-- Node0xf624550 -->
<g id="node14" class="node"><title>Node0xf624550</title>
<polygon fill="none" stroke="black" points="431.5,-398.5 431.5,-571.5 768.5,-571.5 768.5,-398.5 431.5,-398.5"/>
<text text-anchor="start" x="439.5" y="-556.3" font-family="Times,serif" font-size="14.00">0x41ad7d:</text>
<text text-anchor="start" x="439.5" y="-541.3" font-family="Times,serif" font-size="14.00"> v40 = v21</text>
<text text-anchor="start" x="439.5" y="-526.3" font-family="Times,serif" font-size="14.00"> v11 = v40</text>
<text text-anchor="start" x="439.5" y="-511.3" font-family="Times,serif" font-size="14.00"> v41 = *(IntToPtrCastExpr&lt;ptr&gt;((v36 + 4)))</text>
<text text-anchor="start" x="439.5" y="-496.3" font-family="Times,serif" font-size="14.00"> g7 = v41</text>
<text text-anchor="start" x="439.5" y="-481.3" font-family="Times,serif" font-size="14.00"> v5 = IntToPtrCastExpr&lt;ptr&gt;(v36)</text>
<text text-anchor="start" x="439.5" y="-466.3" font-family="Times,serif" font-size="14.00"> v13 = v5</text>
<text text-anchor="start" x="439.5" y="-451.3" font-family="Times,serif" font-size="14.00"> g5 = v30</text>
<text text-anchor="start" x="439.5" y="-436.3" font-family="Times,serif" font-size="14.00"> function_41acb1(v5, v40, v2)</text>
<text text-anchor="start" x="439.5" y="-421.3" font-family="Times,serif" font-size="14.00"> v32 = g7</text>
<text text-anchor="start" x="439.5" y="-406.3" font-family="Times,serif" font-size="14.00"> g2 = v32</text>
</g>
<!-- Node0xf624380&#45;&gt;Node0xf624550 -->
<g id="edge15" class="edge"><title>Node0xf624380&#45;&gt;Node0xf624550</title>
<path fill="none" stroke="black" d="M661.517,-676.978C654.689,-655.781 642.487,-617.9 630.741,-581.433"/>
<polygon fill="black" stroke="black" points="634.004,-580.149 627.607,-571.704 627.341,-582.295 634.004,-580.149"/>
<text text-anchor="middle" x="654" y="-593.8" font-family="Times,serif" font-size="14.00">True</text>
</g>
<!-- Node0xf6245f0 -->
<g id="node15" class="node"><title>Node0xf6245f0</title>
<polygon fill="none" stroke="black" points="543,-322.5 543,-360.5 657,-360.5 657,-322.5 543,-322.5"/>
<text text-anchor="start" x="551" y="-345.3" font-family="Times,serif" font-size="14.00">if (v32 == 0):</text>
<text text-anchor="start" x="551" y="-330.3" font-family="Times,serif" font-size="14.00"> else:</text>
</g>
<!-- Node0xf624550&#45;&gt;Node0xf6245f0 -->
<g id="edge16" class="edge"><title>Node0xf624550&#45;&gt;Node0xf6245f0</title>
<path fill="none" stroke="black" d="M600,-398.425C600,-388.55 600,-379.079 600,-370.829"/>
<polygon fill="black" stroke="black" points="603.5,-370.754 600,-360.754 596.5,-370.754 603.5,-370.754"/>
</g>
<!-- Node0xf624eb0 -->
<g id="node16" class="node"><title>Node0xf624eb0</title>
<polygon fill="none" stroke="black" points="349,-97.5 349,-270.5 731,-270.5 731,-97.5 349,-97.5"/>
<text text-anchor="start" x="357" y="-255.3" font-family="Times,serif" font-size="14.00">0x41ad92:</text>
<text text-anchor="start" x="357" y="-240.3" font-family="Times,serif" font-size="14.00"> v34 = v13</text>
<text text-anchor="start" x="357" y="-225.3" font-family="Times,serif" font-size="14.00"> g7 = PtrToIntCastExpr&lt;int32&gt;(v34)</text>
<text text-anchor="start" x="357" y="-210.3" font-family="Times,serif" font-size="14.00"> v33 = g4</text>
<text text-anchor="start" x="357" y="-195.3" font-family="Times,serif" font-size="14.00"> lpCriticalSection2 = IntToPtrCastExpr&lt;ptr&gt;(v33)</text>
<text text-anchor="start" x="357" y="-180.3" font-family="Times,serif" font-size="14.00"> v9 = lpCriticalSection2</text>
<text text-anchor="start" x="357" y="-165.3" font-family="Times,serif" font-size="14.00"> LeaveCriticalSection(lpCriticalSection2)</text>
<text text-anchor="start" x="357" y="-150.3" font-family="Times,serif" font-size="14.00"> v35 = v17</text>
<text text-anchor="start" x="357" y="-135.3" font-family="Times,serif" font-size="14.00"> g9 = PtrToIntCastExpr&lt;int32&gt;(v35)</text>
<text text-anchor="start" x="357" y="-120.3" font-family="Times,serif" font-size="14.00"> g4 = v24</text>
<text text-anchor="start" x="357" y="-105.3" font-family="Times,serif" font-size="14.00"> return</text>
</g>
<!-- Node0xf6245f0&#45;&gt;Node0xf624eb0 -->
<g id="edge17" class="edge"><title>Node0xf6245f0&#45;&gt;Node0xf624eb0</title>
<path fill="none" stroke="black" d="M592.421,-322.347C590.013,-316.503 587.363,-309.991 585,-304 581.942,-296.247 578.807,-288.194 575.686,-280.098"/>
<polygon fill="black" stroke="black" points="578.886,-278.669 572.032,-270.589 572.352,-281.179 578.886,-278.669"/>
<text text-anchor="middle" x="619.5" y="-292.8" font-family="Times,serif" font-size="14.00">v32 == 0</text>
</g>
<!-- Node0x9410f40 -->
<g id="node17" class="node"><title>Node0x9410f40</title>
<polygon fill="none" stroke="black" points="749.5,-127.5 749.5,-240.5 844.5,-240.5 844.5,-127.5 749.5,-127.5"/>
<text text-anchor="start" x="757.5" y="-225.3" font-family="Times,serif" font-size="14.00">0x41ad7d:</text>
<text text-anchor="start" x="757.5" y="-210.3" font-family="Times,serif" font-size="14.00"> v31 = g9</text>
<text text-anchor="start" x="757.5" y="-195.3" font-family="Times,serif" font-size="14.00"> v3 = v9</text>
<text text-anchor="start" x="757.5" y="-180.3" font-family="Times,serif" font-size="14.00"> v2 = v3</text>
<text text-anchor="start" x="757.5" y="-165.3" font-family="Times,serif" font-size="14.00"> v30 = v31</text>
<text text-anchor="start" x="757.5" y="-150.3" font-family="Times,serif" font-size="14.00"> v36 = v32</text>
<text text-anchor="start" x="757.5" y="-135.3" font-family="Times,serif" font-size="14.00"> continue</text>
</g>
<!-- Node0xf6245f0&#45;&gt;Node0x9410f40 -->
<g id="edge18" class="edge"><title>Node0xf6245f0&#45;&gt;Node0x9410f40</title>
<path fill="none" stroke="black" d="M651.809,-322.439C680.05,-310.815 714.366,-293.625 740,-271 747.353,-264.51 754.167,-256.863 760.338,-248.85"/>
<polygon fill="black" stroke="black" points="763.192,-250.876 766.29,-240.744 757.55,-246.733 763.192,-250.876"/>
<text text-anchor="middle" x="743.5" y="-292.8" font-family="Times,serif" font-size="14.00">v32 != 0</text>
</g>
<!-- Node0xf624eb0&#45;&gt;Node0xf61ffe0 -->
<g id="edge19" class="edge"><title>Node0xf624eb0&#45;&gt;Node0xf61ffe0</title>
<path fill="none" stroke="black" d="M540,-97.2233C540,-87.4821 540,-78.1602 540,-70.0586"/>
<polygon fill="black" stroke="black" points="543.5,-69.8425 540,-59.8425 536.5,-69.8426 543.5,-69.8425"/>
</g>
<!-- Node0x9410f40&#45;&gt;Node0xf624380 -->
<g id="edge20" class="edge"><title>Node0x9410f40&#45;&gt;Node0xf624380</title>
<path fill="none" stroke="black" d="M805.655,-240.745C815.22,-318.325 823.797,-461.73 778,-572 761.179,-612.503 724.755,-648.209 698.205,-670.361"/>
<polygon fill="black" stroke="black" points="695.856,-667.761 690.315,-676.791 700.278,-673.187 695.856,-667.761"/>
</g>
</g>
</svg>
