<?xml version="1.0" encoding="UTF-8" standalone="no"?>
<!DOCTYPE svg PUBLIC "-//W3C//DTD SVG 1.1//EN"
 "http://www.w3.org/Graphics/SVG/1.1/DTD/svg11.dtd">
<!-- Generated by graphviz version 2.38.0 (20140413.2041)
 -->
<!-- Title: Control&#45;flow graph for function &#39;function_41af90(*a1, a2)&#39;. Pages: 1 -->
<svg width="695pt" height="1866pt"
 viewBox="0.00 0.00 695.00 1866.00" xmlns="http://www.w3.org/2000/svg" xmlns:xlink="http://www.w3.org/1999/xlink">
<g id="graph0" class="graph" transform="scale(1 1) rotate(0) translate(4 1862)">
<title>Control&#45;flow graph for function &#39;function_41af90(*a1, a2)&#39;.</title>
<polygon fill="white" stroke="none" points="-4,4 -4,-1862 691,-1862 691,4 -4,4"/>
<text text-anchor="middle" x="343.5" y="-7.8" font-family="Times,serif" font-size="14.00">Control&#45;flow graph for function &#39;function_41af90(*a1, a2)&#39;.</text>
<!-- Node0xf6349a0 -->
<g id="node1" class="node"><title>Node0xf6349a0</title>
<polygon fill="none" stroke="black" points="132,-1804.5 132,-1857.5 191,-1857.5 191,-1804.5 132,-1804.5"/>
<text text-anchor="start" x="140" y="-1842.3" font-family="Times,serif" font-size="14.00">entry:</text>
<text text-anchor="start" x="140" y="-1827.3" font-family="Times,serif" font-size="14.00"> a1</text>
<text text-anchor="start" x="140" y="-1812.3" font-family="Times,serif" font-size="14.00"> a2</text>
</g>
<!-- Node0xf633590 -->
<g id="node2" class="node"><title>Node0xf633590</title>
<polygon fill="none" stroke="black" points="9,-1293.5 9,-1766.5 314,-1766.5 314,-1293.5 9,-1293.5"/>
<text text-anchor="start" x="17" y="-1751.3" font-family="Times,serif" font-size="14.00">v1</text>
<text text-anchor="start" x="17" y="-1736.3" font-family="Times,serif" font-size="14.00"> v2</text>
<text text-anchor="start" x="17" y="-1721.3" font-family="Times,serif" font-size="14.00"> v3</text>
<text text-anchor="start" x="17" y="-1706.3" font-family="Times,serif" font-size="14.00"> v4</text>
<text text-anchor="start" x="17" y="-1691.3" font-family="Times,serif" font-size="14.00"> result</text>
<text text-anchor="start" x="17" y="-1676.3" font-family="Times,serif" font-size="14.00"> v5</text>
<text text-anchor="start" x="17" y="-1661.3" font-family="Times,serif" font-size="14.00"> v6</text>
<text text-anchor="start" x="17" y="-1646.3" font-family="Times,serif" font-size="14.00"> v7</text>
<text text-anchor="start" x="17" y="-1631.3" font-family="Times,serif" font-size="14.00"> v8</text>
<text text-anchor="start" x="17" y="-1616.3" font-family="Times,serif" font-size="14.00"> v9</text>
<text text-anchor="start" x="17" y="-1601.3" font-family="Times,serif" font-size="14.00"> v10</text>
<text text-anchor="start" x="17" y="-1586.3" font-family="Times,serif" font-size="14.00"> v11</text>
<text text-anchor="start" x="17" y="-1571.3" font-family="Times,serif" font-size="14.00"> v12</text>
<text text-anchor="start" x="17" y="-1556.3" font-family="Times,serif" font-size="14.00"> v13</text>
<text text-anchor="start" x="17" y="-1541.3" font-family="Times,serif" font-size="14.00"> v14</text>
<text text-anchor="start" x="17" y="-1526.3" font-family="Times,serif" font-size="14.00"> v15</text>
<text text-anchor="start" x="17" y="-1511.3" font-family="Times,serif" font-size="14.00"> hMem2</text>
<text text-anchor="start" x="17" y="-1496.3" font-family="Times,serif" font-size="14.00"> v16</text>
<text text-anchor="start" x="17" y="-1481.3" font-family="Times,serif" font-size="14.00"> v17</text>
<text text-anchor="start" x="17" y="-1466.3" font-family="Times,serif" font-size="14.00"> hMem3</text>
<text text-anchor="start" x="17" y="-1451.3" font-family="Times,serif" font-size="14.00"> v18</text>
<text text-anchor="start" x="17" y="-1436.3" font-family="Times,serif" font-size="14.00"> v19</text>
<text text-anchor="start" x="17" y="-1421.3" font-family="Times,serif" font-size="14.00"> v20</text>
<text text-anchor="start" x="17" y="-1406.3" font-family="Times,serif" font-size="14.00"> v21</text>
<text text-anchor="start" x="17" y="-1391.3" font-family="Times,serif" font-size="14.00"> hMem</text>
<text text-anchor="start" x="17" y="-1376.3" font-family="Times,serif" font-size="14.00"> v9 = v10</text>
<text text-anchor="start" x="17" y="-1361.3" font-family="Times,serif" font-size="14.00"> v7 = v8</text>
<text text-anchor="start" x="17" y="-1346.3" font-family="Times,serif" font-size="14.00"> v1 = PtrToIntCastExpr&lt;int32&gt;(&amp;(v7))</text>
<text text-anchor="start" x="17" y="-1331.3" font-family="Times,serif" font-size="14.00"> g10 = v1</text>
<text text-anchor="start" x="17" y="-1316.3" font-family="Times,serif" font-size="14.00"> hMem = PtrToIntCastExpr&lt;int32&gt;(a1)</text>
<text text-anchor="start" x="17" y="-1301.3" font-family="Times,serif" font-size="14.00"> g7 = hMem</text>
</g>
<!-- Node0xf6349a0&#45;&gt;Node0xf633590 -->
<g id="edge1" class="edge"><title>Node0xf6349a0&#45;&gt;Node0xf633590</title>
<path fill="none" stroke="black" d="M161.5,-1804.25C161.5,-1796.47 161.5,-1787.21 161.5,-1776.88"/>
<polygon fill="black" stroke="black" points="165,-1776.66 161.5,-1766.66 158,-1776.66 165,-1776.66"/>
</g>
<!-- Node0xf635230 -->
<g id="node3" class="node"><title>Node0xf635230</title>
<polygon fill="none" stroke="black" points="91.5,-1219.5 91.5,-1255.5 231.5,-1255.5 231.5,-1219.5 91.5,-1219.5"/>
<text text-anchor="start" x="99.5" y="-1233.8" font-family="Times,serif" font-size="14.00">if (a1 == NULL):</text>
</g>
<!-- Node0xf633590&#45;&gt;Node0xf635230 -->
<g id="edge2" class="edge"><title>Node0xf633590&#45;&gt;Node0xf635230</title>
<path fill="none" stroke="black" d="M161.5,-1293.48C161.5,-1283.13 161.5,-1273.8 161.5,-1265.88"/>
<polygon fill="black" stroke="black" points="165,-1265.67 161.5,-1255.67 158,-1265.67 165,-1265.67"/>
</g>
<!-- Node0xf635860 -->
<g id="node4" class="node"><title>Node0xf635860</title>
<polygon fill="none" stroke="black" points="0,-997.5 0,-1050.5 113,-1050.5 113,-997.5 0,-997.5"/>
<text text-anchor="start" x="8" y="-1035.3" font-family="Times,serif" font-size="14.00">v19 = v8</text>
<text text-anchor="start" x="8" y="-1020.3" font-family="Times,serif" font-size="14.00"> g7 = v19</text>
<text text-anchor="start" x="8" y="-1005.3" font-family="Times,serif" font-size="14.00"> return result</text>
</g>
<!-- Node0xf635230&#45;&gt;Node0xf635860 -->
<g id="edge3" class="edge"><title>Node0xf635230&#45;&gt;Node0xf635860</title>
<path fill="none" stroke="black" d="M118.018,-1219.49C109.877,-1214.59 102.16,-1208.49 96.5,-1201 65.501,-1159.98 57.8065,-1099.25 56.2777,-1060.92"/>
<polygon fill="black" stroke="black" points="59.7713,-1060.63 55.9958,-1050.74 52.774,-1060.83 59.7713,-1060.63"/>
<text text-anchor="middle" x="143.5" y="-1189.8" font-family="Times,serif" font-size="14.00">a1 == NULL</text>
</g>
<!-- Node0xf635430 -->
<g id="node5" class="node"><title>Node0xf635430</title>
<polygon fill="none" stroke="black" points="161.5,-1069.5 161.5,-1167.5 361.5,-1167.5 361.5,-1069.5 161.5,-1069.5"/>
<text text-anchor="start" x="169.5" y="-1152.3" font-family="Times,serif" font-size="14.00">0x41af99:</text>
<text text-anchor="start" x="169.5" y="-1137.3" font-family="Times,serif" font-size="14.00"> v15 = g9</text>
<text text-anchor="start" x="169.5" y="-1122.3" font-family="Times,serif" font-size="14.00"> v9 = v15</text>
<text text-anchor="start" x="169.5" y="-1107.3" font-family="Times,serif" font-size="14.00"> v2 = GlobalFlags(hMem)</text>
<text text-anchor="start" x="169.5" y="-1092.3" font-family="Times,serif" font-size="14.00"> v21 = (v2 &amp; 255)</text>
<text text-anchor="start" x="169.5" y="-1077.3" font-family="Times,serif" font-size="14.00"> g9 = v21</text>
</g>
<!-- Node0xf635230&#45;&gt;Node0xf635430 -->
<g id="edge4" class="edge"><title>Node0xf635230&#45;&gt;Node0xf635430</title>
<path fill="none" stroke="black" d="M176.041,-1219.49C186.05,-1207.78 199.964,-1191.5 213.661,-1175.47"/>
<polygon fill="black" stroke="black" points="216.513,-1177.52 220.35,-1167.65 211.192,-1172.97 216.513,-1177.52"/>
<text text-anchor="middle" x="247.5" y="-1189.8" font-family="Times,serif" font-size="14.00">a1 != NULL</text>
</g>
<!-- Node0xf633510 -->
<g id="node6" class="node"><title>Node0xf633510</title>
<polygon fill="none" stroke="black" points="254.5,-23.5 254.5,-59.5 308.5,-59.5 308.5,-23.5 254.5,-23.5"/>
<text text-anchor="start" x="262.5" y="-37.8" font-family="Times,serif" font-size="14.00">exit:</text>
</g>
<!-- Node0xf635860&#45;&gt;Node0xf633510 -->
<g id="edge5" class="edge"><title>Node0xf635860&#45;&gt;Node0xf633510</title>
<path fill="none" stroke="black" d="M55.3658,-997.424C54.5163,-976.062 53.5,-944.802 53.5,-917.5 53.5,-917.5 53.5,-917.5 53.5,-183 53.5,-143.196 50.0654,-124.854 78.5,-97 123.146,-53.265 198.914,-43.6557 244.179,-42.0857"/>
<polygon fill="black" stroke="black" points="244.529,-45.5787 254.446,-41.8497 244.368,-38.5806 244.529,-45.5787"/>
</g>
<!-- Node0xf635960 -->
<g id="node7" class="node"><title>Node0xf635960</title>
<polygon fill="none" stroke="black" points="221,-942.5 221,-978.5 338,-978.5 338,-942.5 221,-942.5"/>
<text text-anchor="start" x="229" y="-956.8" font-family="Times,serif" font-size="14.00">if (v2 != 255):</text>
</g>
<!-- Node0xf635430&#45;&gt;Node0xf635960 -->
<g id="edge6" class="edge"><title>Node0xf635430&#45;&gt;Node0xf635960</title>
<path fill="none" stroke="black" d="M267.047,-1069.42C270.101,-1042.96 273.78,-1011.07 276.344,-988.852"/>
<polygon fill="black" stroke="black" points="279.836,-989.121 277.505,-978.786 272.882,-988.319 279.836,-989.121"/>
</g>
<!-- Node0x94671e0 -->
<g id="node8" class="node"><title>Node0x94671e0</title>
<polygon fill="none" stroke="black" points="234.5,-854.5 234.5,-890.5 324.5,-890.5 324.5,-854.5 234.5,-854.5"/>
<text text-anchor="start" x="242.5" y="-868.8" font-family="Times,serif" font-size="14.00">v16 = v21</text>
</g>
<!-- Node0xf635960&#45;&gt;Node0x94671e0 -->
<g id="edge7" class="edge"><title>Node0xf635960&#45;&gt;Node0x94671e0</title>
<path fill="none" stroke="black" d="M279.5,-942.097C279.5,-930.246 279.5,-914.317 279.5,-900.792"/>
<polygon fill="black" stroke="black" points="283,-900.584 279.5,-890.584 276,-900.584 283,-900.584"/>
<text text-anchor="middle" x="315.5" y="-912.8" font-family="Times,serif" font-size="14.00">v2 != 255</text>
</g>
<!-- Node0xf635a80 -->
<g id="node9" class="node"><title>Node0xf635a80</title>
<polygon fill="none" stroke="black" points="300,-662.5 300,-835.5 687,-835.5 687,-662.5 300,-662.5"/>
<text text-anchor="start" x="308" y="-820.3" font-family="Times,serif" font-size="14.00">0x41afb7:</text>
<text text-anchor="start" x="308" y="-805.3" font-family="Times,serif" font-size="14.00"> hMem3 = g7</text>
<text text-anchor="start" x="308" y="-790.3" font-family="Times,serif" font-size="14.00"> v4 = GlobalFree(IntToPtrCastExpr&lt;ptr&gt;(hMem3))</text>
<text text-anchor="start" x="308" y="-775.3" font-family="Times,serif" font-size="14.00"> v18 = v9</text>
<text text-anchor="start" x="308" y="-760.3" font-family="Times,serif" font-size="14.00"> g9 = v18</text>
<text text-anchor="start" x="308" y="-745.3" font-family="Times,serif" font-size="14.00"> g10 = v1</text>
<text text-anchor="start" x="308" y="-730.3" font-family="Times,serif" font-size="14.00"> v20 = v7</text>
<text text-anchor="start" x="308" y="-715.3" font-family="Times,serif" font-size="14.00"> v19 = v20</text>
<text text-anchor="start" x="308" y="-700.3" font-family="Times,serif" font-size="14.00"> result = v4</text>
<text text-anchor="start" x="308" y="-685.3" font-family="Times,serif" font-size="14.00"> g7 = v19</text>
<text text-anchor="start" x="308" y="-670.3" font-family="Times,serif" font-size="14.00"> return result</text>
</g>
<!-- Node0xf635960&#45;&gt;Node0xf635a80 -->
<g id="edge8" class="edge"><title>Node0xf635960&#45;&gt;Node0xf635a80</title>
<path fill="none" stroke="black" d="M324.91,-942.474C335.508,-937.397 346.358,-931.222 355.5,-924 383.862,-901.594 409.957,-872.264 431.643,-844.087"/>
<polygon fill="black" stroke="black" points="434.684,-845.868 437.934,-835.784 429.105,-841.641 434.684,-845.868"/>
<text text-anchor="middle" x="410.5" y="-912.8" font-family="Times,serif" font-size="14.00">v2 == 255</text>
</g>
<!-- Node0x4f9af50 -->
<g id="node10" class="node"><title>Node0x4f9af50</title>
<polygon fill="none" stroke="black" points="231,-607.5 231,-643.5 328,-643.5 328,-607.5 231,-607.5"/>
<text text-anchor="start" x="239" y="-621.8" font-family="Times,serif" font-size="14.00">while True:</text>
</g>
<!-- Node0x94671e0&#45;&gt;Node0x4f9af50 -->
<g id="edge9" class="edge"><title>Node0x94671e0&#45;&gt;Node0x4f9af50</title>
<path fill="none" stroke="black" d="M279.5,-854.272C279.5,-812.363 279.5,-704.809 279.5,-653.942"/>
<polygon fill="black" stroke="black" points="283,-653.709 279.5,-643.709 276,-653.709 283,-653.709"/>
</g>
<!-- Node0xf635a80&#45;&gt;Node0xf633510 -->
<g id="edge10" class="edge"><title>Node0xf635a80&#45;&gt;Node0xf633510</title>
<path fill="none" stroke="black" d="M507.822,-662.34C511.028,-636.736 513.5,-608.548 513.5,-582.5 513.5,-582.5 513.5,-582.5 513.5,-183 513.5,-142.663 513.906,-124.611 484.5,-97 439.062,-54.3354 363.887,-44.3416 318.885,-42.415"/>
<polygon fill="black" stroke="black" points="318.779,-38.91 308.675,-42.0945 318.56,-45.9066 318.779,-38.91"/>
</g>
<!-- Node0xf635ec0 -->
<g id="node11" class="node"><title>Node0xf635ec0</title>
<polygon fill="none" stroke="black" points="81.5,-472.5 81.5,-555.5 447.5,-555.5 447.5,-472.5 81.5,-472.5"/>
<text text-anchor="start" x="89.5" y="-540.3" font-family="Times,serif" font-size="14.00">0x41afab:</text>
<text text-anchor="start" x="89.5" y="-525.3" font-family="Times,serif" font-size="14.00"> hMem2 = g7</text>
<text text-anchor="start" x="89.5" y="-510.3" font-family="Times,serif" font-size="14.00"> g9 = (v16 + &#45;1)</text>
<text text-anchor="start" x="89.5" y="-495.3" font-family="Times,serif" font-size="14.00"> GlobalUnlock(IntToPtrCastExpr&lt;ptr&gt;(hMem2))</text>
<text text-anchor="start" x="89.5" y="-480.3" font-family="Times,serif" font-size="14.00"> v17 = g9</text>
</g>
<!-- Node0x4f9af50&#45;&gt;Node0xf635ec0 -->
<g id="edge11" class="edge"><title>Node0x4f9af50&#45;&gt;Node0xf635ec0</title>
<path fill="none" stroke="black" d="M277.156,-607.391C275.616,-596.15 273.515,-580.807 271.466,-565.853"/>
<polygon fill="black" stroke="black" points="274.889,-565.051 270.064,-555.618 267.954,-566.001 274.889,-565.051"/>
<text text-anchor="middle" x="291.5" y="-577.8" font-family="Times,serif" font-size="14.00">True</text>
</g>
<!-- Node0xf6363d0 -->
<g id="node12" class="node"><title>Node0xf6363d0</title>
<polygon fill="none" stroke="black" points="224.5,-398.5 224.5,-434.5 338.5,-434.5 338.5,-398.5 224.5,-398.5"/>
<text text-anchor="start" x="232.5" y="-412.8" font-family="Times,serif" font-size="14.00">if (v17 == 0):</text>
</g>
<!-- Node0xf635ec0&#45;&gt;Node0xf6363d0 -->
<g id="edge12" class="edge"><title>Node0xf635ec0&#45;&gt;Node0xf6363d0</title>
<path fill="none" stroke="black" d="M271.71,-472.499C273.382,-463.103 275.123,-453.322 276.665,-444.66"/>
<polygon fill="black" stroke="black" points="280.123,-445.208 278.429,-434.749 273.231,-443.981 280.123,-445.208"/>
</g>
<!-- Node0xf636980 -->
<g id="node13" class="node"><title>Node0xf636980</title>
<polygon fill="none" stroke="black" points="204,-308.5 204,-346.5 359,-346.5 359,-308.5 204,-308.5"/>
<text text-anchor="start" x="212" y="-331.3" font-family="Times,serif" font-size="14.00">break &#45;&gt; 0x41afb7:</text>
<text text-anchor="start" x="212" y="-316.3" font-family="Times,serif" font-size="14.00"> break</text>
</g>
<!-- Node0xf6363d0&#45;&gt;Node0xf636980 -->
<g id="edge13" class="edge"><title>Node0xf6363d0&#45;&gt;Node0xf636980</title>
<path fill="none" stroke="black" d="M281.5,-398.312C281.5,-386.511 281.5,-370.572 281.5,-356.904"/>
<polygon fill="black" stroke="black" points="285,-356.551 281.5,-346.551 278,-356.551 285,-356.551"/>
<text text-anchor="middle" x="316" y="-368.8" font-family="Times,serif" font-size="14.00">v17 == 0</text>
</g>
<!-- Node0xf6368d0 -->
<g id="node14" class="node"><title>Node0xf6368d0</title>
<polygon fill="none" stroke="black" points="383.5,-308.5 383.5,-346.5 473.5,-346.5 473.5,-308.5 383.5,-308.5"/>
<text text-anchor="start" x="391.5" y="-331.3" font-family="Times,serif" font-size="14.00">v16 = v17</text>
<text text-anchor="start" x="391.5" y="-316.3" font-family="Times,serif" font-size="14.00"> continue</text>
</g>
<!-- Node0xf6363d0&#45;&gt;Node0xf6368d0 -->
<g id="edge14" class="edge"><title>Node0xf6363d0&#45;&gt;Node0xf6368d0</title>
<path fill="none" stroke="black" d="M319.598,-398.352C331.015,-392.847 343.437,-386.487 354.5,-380 368.542,-371.766 383.388,-361.723 396.067,-352.699"/>
<polygon fill="black" stroke="black" points="398.395,-355.336 404.462,-346.65 394.303,-349.657 398.395,-355.336"/>
<text text-anchor="middle" x="409" y="-368.8" font-family="Times,serif" font-size="14.00">v17 != 0</text>
</g>
<!-- Node0xf635e20 -->
<g id="node15" class="node"><title>Node0xf635e20</title>
<polygon fill="none" stroke="black" points="88,-97.5 88,-270.5 475,-270.5 475,-97.5 88,-97.5"/>
<text text-anchor="start" x="96" y="-255.3" font-family="Times,serif" font-size="14.00">0x41afb7:</text>
<text text-anchor="start" x="96" y="-240.3" font-family="Times,serif" font-size="14.00"> hMem3 = g7</text>
<text text-anchor="start" x="96" y="-225.3" font-family="Times,serif" font-size="14.00"> v4 = GlobalFree(IntToPtrCastExpr&lt;ptr&gt;(hMem3))</text>
<text text-anchor="start" x="96" y="-210.3" font-family="Times,serif" font-size="14.00"> v18 = v9</text>
<text text-anchor="start" x="96" y="-195.3" font-family="Times,serif" font-size="14.00"> g9 = v18</text>
<text text-anchor="start" x="96" y="-180.3" font-family="Times,serif" font-size="14.00"> g10 = v1</text>
<text text-anchor="start" x="96" y="-165.3" font-family="Times,serif" font-size="14.00"> v20 = v7</text>
<text text-anchor="start" x="96" y="-150.3" font-family="Times,serif" font-size="14.00"> v19 = v20</text>
<text text-anchor="start" x="96" y="-135.3" font-family="Times,serif" font-size="14.00"> result = v4</text>
<text text-anchor="start" x="96" y="-120.3" font-family="Times,serif" font-size="14.00"> g7 = v19</text>
<text text-anchor="start" x="96" y="-105.3" font-family="Times,serif" font-size="14.00"> return result</text>
</g>
<!-- Node0xf636980&#45;&gt;Node0xf635e20 -->
<g id="edge15" class="edge"><title>Node0xf636980&#45;&gt;Node0xf635e20</title>
<path fill="none" stroke="black" d="M281.5,-308.291C281.5,-300.655 281.5,-291.148 281.5,-280.822"/>
<polygon fill="black" stroke="black" points="285,-280.706 281.5,-270.706 278,-280.706 285,-280.706"/>
</g>
<!-- Node0xf6368d0&#45;&gt;Node0x4f9af50 -->
<g id="edge16" class="edge"><title>Node0xf6368d0&#45;&gt;Node0x4f9af50</title>
<path fill="none" stroke="black" d="M438.237,-346.661C458.881,-387.912 501.602,-490.183 456.5,-556 430.143,-594.463 378.842,-611.334 338.227,-618.731"/>
<polygon fill="black" stroke="black" points="337.439,-615.314 328.153,-620.415 338.593,-622.219 337.439,-615.314"/>
</g>
<!-- Node0xf635e20&#45;&gt;Node0xf633510 -->
<g id="edge17" class="edge"><title>Node0xf635e20&#45;&gt;Node0xf633510</title>
<path fill="none" stroke="black" d="M281.5,-97.2233C281.5,-87.4821 281.5,-78.1602 281.5,-70.0586"/>
<polygon fill="black" stroke="black" points="285,-69.8425 281.5,-59.8425 278,-69.8426 285,-69.8425"/>
</g>
</g>
</svg>
