<?xml version="1.0" encoding="UTF-8" standalone="no"?>
<!DOCTYPE svg PUBLIC "-//W3C//DTD SVG 1.1//EN"
 "http://www.w3.org/Graphics/SVG/1.1/DTD/svg11.dtd">
<!-- Generated by graphviz version 2.38.0 (20140413.2041)
 -->
<!-- Title: Control&#45;flow graph for function &#39;function_40f7a7(*a1)&#39;. Pages: 1 -->
<svg width="519pt" height="2211pt"
 viewBox="0.00 0.00 519.00 2211.00" xmlns="http://www.w3.org/2000/svg" xmlns:xlink="http://www.w3.org/1999/xlink">
<g id="graph0" class="graph" transform="scale(1 1) rotate(0) translate(4 2207)">
<title>Control&#45;flow graph for function &#39;function_40f7a7(*a1)&#39;.</title>
<polygon fill="white" stroke="none" points="-4,4 -4,-2207 515,-2207 515,4 -4,4"/>
<text text-anchor="middle" x="255.5" y="-7.8" font-family="Times,serif" font-size="14.00">Control&#45;flow graph for function &#39;function_40f7a7(*a1)&#39;.</text>
<!-- Node0x6fed2e0 -->
<g id="node1" class="node"><title>Node0x6fed2e0</title>
<polygon fill="none" stroke="black" points="88,-2164.5 88,-2202.5 147,-2202.5 147,-2164.5 88,-2164.5"/>
<text text-anchor="start" x="96" y="-2187.3" font-family="Times,serif" font-size="14.00">entry:</text>
<text text-anchor="start" x="96" y="-2172.3" font-family="Times,serif" font-size="14.00"> a1</text>
</g>
<!-- Node0xf0fbf00 -->
<g id="node2" class="node"><title>Node0xf0fbf00</title>
<polygon fill="none" stroke="black" points="74.5,-1818.5 74.5,-2126.5 160.5,-2126.5 160.5,-1818.5 74.5,-1818.5"/>
<text text-anchor="start" x="82.5" y="-2111.3" font-family="Times,serif" font-size="14.00">v1</text>
<text text-anchor="start" x="82.5" y="-2096.3" font-family="Times,serif" font-size="14.00"> v2</text>
<text text-anchor="start" x="82.5" y="-2081.3" font-family="Times,serif" font-size="14.00"> v3</text>
<text text-anchor="start" x="82.5" y="-2066.3" font-family="Times,serif" font-size="14.00"> v4</text>
<text text-anchor="start" x="82.5" y="-2051.3" font-family="Times,serif" font-size="14.00"> v5</text>
<text text-anchor="start" x="82.5" y="-2036.3" font-family="Times,serif" font-size="14.00"> v6</text>
<text text-anchor="start" x="82.5" y="-2021.3" font-family="Times,serif" font-size="14.00"> v7</text>
<text text-anchor="start" x="82.5" y="-2006.3" font-family="Times,serif" font-size="14.00"> v8</text>
<text text-anchor="start" x="82.5" y="-1991.3" font-family="Times,serif" font-size="14.00"> v9</text>
<text text-anchor="start" x="82.5" y="-1976.3" font-family="Times,serif" font-size="14.00"> v10</text>
<text text-anchor="start" x="82.5" y="-1961.3" font-family="Times,serif" font-size="14.00"> v11</text>
<text text-anchor="start" x="82.5" y="-1946.3" font-family="Times,serif" font-size="14.00"> v12</text>
<text text-anchor="start" x="82.5" y="-1931.3" font-family="Times,serif" font-size="14.00"> v13</text>
<text text-anchor="start" x="82.5" y="-1916.3" font-family="Times,serif" font-size="14.00"> result</text>
<text text-anchor="start" x="82.5" y="-1901.3" font-family="Times,serif" font-size="14.00"> v14</text>
<text text-anchor="start" x="82.5" y="-1886.3" font-family="Times,serif" font-size="14.00"> v15</text>
<text text-anchor="start" x="82.5" y="-1871.3" font-family="Times,serif" font-size="14.00"> v16</text>
<text text-anchor="start" x="82.5" y="-1856.3" font-family="Times,serif" font-size="14.00"> v17</text>
<text text-anchor="start" x="82.5" y="-1841.3" font-family="Times,serif" font-size="14.00"> v10 = g5</text>
<text text-anchor="start" x="82.5" y="-1826.3" font-family="Times,serif" font-size="14.00"> g9 = v10</text>
</g>
<!-- Node0x6fed2e0&#45;&gt;Node0xf0fbf00 -->
<g id="edge1" class="edge"><title>Node0x6fed2e0&#45;&gt;Node0xf0fbf00</title>
<path fill="none" stroke="black" d="M117.5,-2164.32C117.5,-2156.87 117.5,-2147.5 117.5,-2136.94"/>
<polygon fill="black" stroke="black" points="121,-2136.93 117.5,-2126.93 114,-2136.93 121,-2136.93"/>
</g>
<!-- Node0xf0ff040 -->
<g id="node3" class="node"><title>Node0xf0ff040</title>
<polygon fill="none" stroke="black" points="60.5,-1744.5 60.5,-1780.5 174.5,-1780.5 174.5,-1744.5 60.5,-1744.5"/>
<text text-anchor="start" x="68.5" y="-1758.8" font-family="Times,serif" font-size="14.00">if (v10 == 0):</text>
</g>
<!-- Node0xf0fbf00&#45;&gt;Node0xf0ff040 -->
<g id="edge2" class="edge"><title>Node0xf0fbf00&#45;&gt;Node0xf0ff040</title>
<path fill="none" stroke="black" d="M117.5,-1818.42C117.5,-1808.16 117.5,-1798.73 117.5,-1790.68"/>
<polygon fill="black" stroke="black" points="121,-1790.63 117.5,-1780.63 114,-1790.63 121,-1790.63"/>
</g>
<!-- Node0x6ffed60 -->
<g id="node4" class="node"><title>Node0x6ffed60</title>
<polygon fill="none" stroke="black" points="0,-1552.5 0,-1605.5 89,-1605.5 89,-1552.5 0,-1552.5"/>
<text text-anchor="start" x="8" y="-1590.3" font-family="Times,serif" font-size="14.00">0x40f7b4:</text>
<text text-anchor="start" x="8" y="-1575.3" font-family="Times,serif" font-size="14.00"> g9 = v5</text>
<text text-anchor="start" x="8" y="-1560.3" font-family="Times,serif" font-size="14.00"> return 0</text>
</g>
<!-- Node0xf0ff040&#45;&gt;Node0x6ffed60 -->
<g id="edge3" class="edge"><title>Node0xf0ff040&#45;&gt;Node0x6ffed60</title>
<path fill="none" stroke="black" d="M99.8355,-1744.27C87.6525,-1731.32 72.1496,-1712.52 63.5,-1693 52.668,-1668.55 47.9728,-1638.63 45.9563,-1615.71"/>
<polygon fill="black" stroke="black" points="49.4453,-1615.43 45.2059,-1605.72 42.4649,-1615.96 49.4453,-1615.43"/>
<text text-anchor="middle" x="118" y="-1714.8" font-family="Times,serif" font-size="14.00">v10 == 0</text>
</g>
<!-- Node0x6ff7800 -->
<g id="node5" class="node"><title>Node0x6ff7800</title>
<polygon fill="none" stroke="black" points="72.5,-1624.5 72.5,-1692.5 418.5,-1692.5 418.5,-1624.5 72.5,-1624.5"/>
<text text-anchor="start" x="80.5" y="-1677.3" font-family="Times,serif" font-size="14.00">0x40f7ae:</text>
<text text-anchor="start" x="80.5" y="-1662.3" font-family="Times,serif" font-size="14.00"> v16 = *(IntToPtrCastExpr&lt;ptr&gt;((v10 + 32)))</text>
<text text-anchor="start" x="80.5" y="-1647.3" font-family="Times,serif" font-size="14.00"> g1 = False</text>
<text text-anchor="start" x="80.5" y="-1632.3" font-family="Times,serif" font-size="14.00"> g207 = (v16 == 0)</text>
</g>
<!-- Node0xf0ff040&#45;&gt;Node0x6ff7800 -->
<g id="edge4" class="edge"><title>Node0xf0ff040&#45;&gt;Node0x6ff7800</title>
<path fill="none" stroke="black" d="M138.924,-1744.43C154.499,-1732.02 176.231,-1714.7 196.011,-1698.94"/>
<polygon fill="black" stroke="black" points="198.415,-1701.5 204.055,-1692.53 194.053,-1696.02 198.415,-1701.5"/>
<text text-anchor="middle" x="210" y="-1714.8" font-family="Times,serif" font-size="14.00">v10 != 0</text>
</g>
<!-- Node0xf0febe0 -->
<g id="node6" class="node"><title>Node0xf0febe0</title>
<polygon fill="none" stroke="black" points="104.5,-23.5 104.5,-59.5 158.5,-59.5 158.5,-23.5 104.5,-23.5"/>
<text text-anchor="start" x="112.5" y="-37.8" font-family="Times,serif" font-size="14.00">exit:</text>
</g>
<!-- Node0x6ffed60&#45;&gt;Node0xf0febe0 -->
<g id="edge5" class="edge"><title>Node0x6ffed60&#45;&gt;Node0xf0febe0</title>
<path fill="none" stroke="black" d="M44.5,-1552.42C44.5,-1531.05 44.5,-1499.79 44.5,-1472.5 44.5,-1472.5 44.5,-1472.5 44.5,-138 44.5,-105.84 71.7949,-79.7453 95.8078,-63.011"/>
<polygon fill="black" stroke="black" points="98.0532,-65.7215 104.45,-57.2753 94.1822,-59.8892 98.0532,-65.7215"/>
</g>
<!-- Node0xf0fe2b0 -->
<g id="node7" class="node"><title>Node0xf0fe2b0</title>
<polygon fill="none" stroke="black" points="188.5,-1497.5 188.5,-1533.5 302.5,-1533.5 302.5,-1497.5 188.5,-1497.5"/>
<text text-anchor="start" x="196.5" y="-1511.8" font-family="Times,serif" font-size="14.00">if (v16 == 0):</text>
</g>
<!-- Node0x6ff7800&#45;&gt;Node0xf0fe2b0 -->
<g id="edge6" class="edge"><title>Node0x6ff7800&#45;&gt;Node0xf0fe2b0</title>
<path fill="none" stroke="black" d="M245.5,-1624.44C245.5,-1599.85 245.5,-1566.69 245.5,-1543.64"/>
<polygon fill="black" stroke="black" points="249,-1543.52 245.5,-1533.52 242,-1543.52 249,-1543.52"/>
</g>
<!-- Node0xf0fb430 -->
<g id="node8" class="node"><title>Node0xf0fb430</title>
<polygon fill="none" stroke="black" points="59,-1245.5 59,-1298.5 148,-1298.5 148,-1245.5 59,-1245.5"/>
<text text-anchor="start" x="67" y="-1283.3" font-family="Times,serif" font-size="14.00">0x40f7b4:</text>
<text text-anchor="start" x="67" y="-1268.3" font-family="Times,serif" font-size="14.00"> g9 = v5</text>
<text text-anchor="start" x="67" y="-1253.3" font-family="Times,serif" font-size="14.00"> return 0</text>
</g>
<!-- Node0xf0fe2b0&#45;&gt;Node0xf0fb430 -->
<g id="edge7" class="edge"><title>Node0xf0fe2b0&#45;&gt;Node0xf0fb430</title>
<path fill="none" stroke="black" d="M191.345,-1497.46C166.295,-1486.74 138.586,-1470.23 122.5,-1446 95.3513,-1405.1 95.0087,-1346.44 98.3828,-1309.03"/>
<polygon fill="black" stroke="black" points="101.913,-1308.92 99.4684,-1298.61 94.9509,-1308.19 101.913,-1308.92"/>
<text text-anchor="middle" x="190" y="-1467.8" font-family="Times,serif" font-size="14.00">v16 == 0</text>
</g>
<!-- Node0xf0ff290 -->
<g id="node9" class="node"><title>Node0xf0ff290</title>
<polygon fill="none" stroke="black" points="132,-1317.5 132,-1445.5 487,-1445.5 487,-1317.5 132,-1317.5"/>
<text text-anchor="start" x="140" y="-1430.3" font-family="Times,serif" font-size="14.00">0x40f7b8:</text>
<text text-anchor="start" x="140" y="-1415.3" font-family="Times,serif" font-size="14.00"> v15 = *(IntToPtrCastExpr&lt;ptr&gt;(v10))</text>
<text text-anchor="start" x="140" y="-1400.3" font-family="Times,serif" font-size="14.00"> g2 = v15</text>
<text text-anchor="start" x="140" y="-1385.3" font-family="Times,serif" font-size="14.00"> v17 = *(IntToPtrCastExpr&lt;ptr&gt;((v15 + 288)))</text>
<text text-anchor="start" x="140" y="-1370.3" font-family="Times,serif" font-size="14.00"> IntToPtrCastExpr&lt;ptr&gt;(v17)()</text>
<text text-anchor="start" x="140" y="-1355.3" font-family="Times,serif" font-size="14.00"> v11 = g2</text>
<text text-anchor="start" x="140" y="-1340.3" font-family="Times,serif" font-size="14.00"> v12 = g9</text>
<text text-anchor="start" x="140" y="-1325.3" font-family="Times,serif" font-size="14.00"> v13 = v12</text>
</g>
<!-- Node0xf0fe2b0&#45;&gt;Node0xf0ff290 -->
<g id="edge8" class="edge"><title>Node0xf0fe2b0&#45;&gt;Node0xf0ff290</title>
<path fill="none" stroke="black" d="M253.867,-1497.24C259.277,-1486.09 266.723,-1470.73 274.409,-1454.88"/>
<polygon fill="black" stroke="black" points="277.735,-1456.04 278.948,-1445.51 271.436,-1452.98 277.735,-1456.04"/>
<text text-anchor="middle" x="302" y="-1467.8" font-family="Times,serif" font-size="14.00">v16 != 0</text>
</g>
<!-- Node0xf0fb430&#45;&gt;Node0xf0febe0 -->
<g id="edge9" class="edge"><title>Node0xf0fb430&#45;&gt;Node0xf0febe0</title>
<path fill="none" stroke="black" d="M99.7194,-1245.48C96.8876,-1224.15 93.5,-1192.91 93.5,-1165.5 93.5,-1165.5 93.5,-1165.5 93.5,-138 93.5,-113.118 104.774,-87.008 115.041,-68.3902"/>
<polygon fill="black" stroke="black" points="118.126,-70.0469 120.099,-59.6374 112.065,-66.5445 118.126,-70.0469"/>
</g>
<!-- Node0xf0ff380 -->
<g id="node10" class="node"><title>Node0xf0ff380</title>
<polygon fill="none" stroke="black" points="252.5,-1190.5 252.5,-1226.5 366.5,-1226.5 366.5,-1190.5 252.5,-1190.5"/>
<text text-anchor="start" x="260.5" y="-1204.8" font-family="Times,serif" font-size="14.00">if (v11 == 0):</text>
</g>
<!-- Node0xf0ff290&#45;&gt;Node0xf0ff380 -->
<g id="edge10" class="edge"><title>Node0xf0ff290&#45;&gt;Node0xf0ff380</title>
<path fill="none" stroke="black" d="M309.5,-1317.31C309.5,-1289.48 309.5,-1258.25 309.5,-1236.6"/>
<polygon fill="black" stroke="black" points="313,-1236.5 309.5,-1226.5 306,-1236.5 313,-1236.5"/>
</g>
<!-- Node0xf0fb490 -->
<g id="node11" class="node"><title>Node0xf0fb490</title>
<polygon fill="none" stroke="black" points="159.5,-1055.5 159.5,-1138.5 389.5,-1138.5 389.5,-1055.5 159.5,-1055.5"/>
<text text-anchor="start" x="167.5" y="-1123.3" font-family="Times,serif" font-size="14.00">0x40f7c4:</text>
<text text-anchor="start" x="167.5" y="-1108.3" font-family="Times,serif" font-size="14.00"> g5 = v12</text>
<text text-anchor="start" x="167.5" y="-1093.3" font-family="Times,serif" font-size="14.00"> v1 = function_40f768(v5, v7)</text>
<text text-anchor="start" x="167.5" y="-1078.3" font-family="Times,serif" font-size="14.00"> g9 = v1</text>
<text text-anchor="start" x="167.5" y="-1063.3" font-family="Times,serif" font-size="14.00"> v13 = v1</text>
</g>
<!-- Node0xf0ff380&#45;&gt;Node0xf0fb490 -->
<g id="edge11" class="edge"><title>Node0xf0ff380&#45;&gt;Node0xf0fb490</title>
<path fill="none" stroke="black" d="M304.031,-1190.39C300.404,-1179.04 295.44,-1163.51 290.617,-1148.42"/>
<polygon fill="black" stroke="black" points="293.861,-1147.08 287.483,-1138.62 287.194,-1149.21 293.861,-1147.08"/>
<text text-anchor="middle" x="332" y="-1160.8" font-family="Times,serif" font-size="14.00">v11 == 0</text>
</g>
<!-- Node0xf0fe6d0 -->
<g id="node12" class="node"><title>Node0xf0fe6d0</title>
<polygon fill="none" stroke="black" points="230,-979.5 230,-1017.5 349,-1017.5 349,-979.5 230,-979.5"/>
<text text-anchor="start" x="238" y="-1002.3" font-family="Times,serif" font-size="14.00">0x40f7cd:</text>
<text text-anchor="start" x="238" y="-987.3" font-family="Times,serif" font-size="14.00"> if (v13 == 0):</text>
</g>
<!-- Node0xf0ff380&#45;&gt;Node0xf0fe6d0 -->
<g id="edge12" class="edge"><title>Node0xf0ff380&#45;&gt;Node0xf0fe6d0</title>
<path fill="none" stroke="black" d="M348.494,-1190.29C368.342,-1179.02 390.034,-1162.06 398.5,-1139 411.365,-1103.95 418.011,-1086.83 398.5,-1055 389.223,-1039.87 374.382,-1028.7 358.6,-1020.52"/>
<polygon fill="black" stroke="black" points="359.766,-1017.2 349.234,-1016.04 356.747,-1023.51 359.766,-1017.2"/>
<text text-anchor="middle" x="442" y="-1093.3" font-family="Times,serif" font-size="14.00">v11 != 0</text>
</g>
<!-- Node0xf0fb490&#45;&gt;Node0xf0fe6d0 -->
<g id="edge13" class="edge"><title>Node0xf0fb490&#45;&gt;Node0xf0fe6d0</title>
<path fill="none" stroke="black" d="M280.818,-1055.35C282.275,-1045.98 283.793,-1036.21 285.145,-1027.52"/>
<polygon fill="black" stroke="black" points="288.619,-1027.96 286.696,-1017.54 281.702,-1026.88 288.619,-1027.96"/>
</g>
<!-- Node0xf0fb4f0 -->
<g id="node13" class="node"><title>Node0xf0fb4f0</title>
<polygon fill="none" stroke="black" points="118,-802.5 118,-855.5 231,-855.5 231,-802.5 118,-802.5"/>
<text text-anchor="start" x="126" y="-840.3" font-family="Times,serif" font-size="14.00">result = 0</text>
<text text-anchor="start" x="126" y="-825.3" font-family="Times,serif" font-size="14.00"> g9 = v5</text>
<text text-anchor="start" x="126" y="-810.3" font-family="Times,serif" font-size="14.00"> return result</text>
</g>
<!-- Node0xf0fe6d0&#45;&gt;Node0xf0fb4f0 -->
<g id="edge14" class="edge"><title>Node0xf0fe6d0&#45;&gt;Node0xf0fb4f0</title>
<path fill="none" stroke="black" d="M267.114,-979.315C261.016,-973.786 254.673,-967.456 249.5,-961 225.459,-930.998 204.342,-892.362 190.693,-864.84"/>
<polygon fill="black" stroke="black" points="193.715,-863.053 186.184,-855.601 187.424,-866.123 193.715,-863.053"/>
<text text-anchor="middle" x="284" y="-949.8" font-family="Times,serif" font-size="14.00">v13 == 0</text>
</g>
<!-- Node0xf0fe730 -->
<g id="node14" class="node"><title>Node0xf0fe730</title>
<polygon fill="none" stroke="black" points="254.5,-874.5 254.5,-927.5 484.5,-927.5 484.5,-874.5 254.5,-874.5"/>
<text text-anchor="start" x="262.5" y="-912.3" font-family="Times,serif" font-size="14.00">0x40f7d1:</text>
<text text-anchor="start" x="262.5" y="-897.3" font-family="Times,serif" font-size="14.00"> g5 = v13</text>
<text text-anchor="start" x="262.5" y="-882.3" font-family="Times,serif" font-size="14.00"> v3 = function_40f768(v5, v7)</text>
</g>
<!-- Node0xf0fe6d0&#45;&gt;Node0xf0fe730 -->
<g id="edge15" class="edge"><title>Node0xf0fe6d0&#45;&gt;Node0xf0fe730</title>
<path fill="none" stroke="black" d="M304.925,-979.087C315.269,-966.739 329.192,-950.118 341.461,-935.471"/>
<polygon fill="black" stroke="black" points="344.336,-937.49 348.075,-927.577 338.97,-932.995 344.336,-937.49"/>
<text text-anchor="middle" x="364" y="-949.8" font-family="Times,serif" font-size="14.00">v13 != 0</text>
</g>
<!-- Node0xf0fb4f0&#45;&gt;Node0xf0febe0 -->
<g id="edge16" class="edge"><title>Node0xf0fb4f0&#45;&gt;Node0xf0febe0</title>
<path fill="none" stroke="black" d="M157.505,-802.299C145.486,-781.631 131.5,-751.377 131.5,-722.5 131.5,-722.5 131.5,-722.5 131.5,-138 131.5,-115.025 131.5,-88.94 131.5,-69.8443"/>
<polygon fill="black" stroke="black" points="135,-69.7523 131.5,-59.7523 128,-69.7523 135,-69.7523"/>
</g>
<!-- Node0x6ffded0 -->
<g id="node15" class="node"><title>Node0x6ffded0</title>
<polygon fill="none" stroke="black" points="326,-747.5 326,-783.5 425,-783.5 425,-747.5 326,-747.5"/>
<text text-anchor="start" x="334" y="-761.8" font-family="Times,serif" font-size="14.00">if (v3 != 0):</text>
</g>
<!-- Node0xf0fe730&#45;&gt;Node0x6ffded0 -->
<g id="edge17" class="edge"><title>Node0xf0fe730&#45;&gt;Node0x6ffded0</title>
<path fill="none" stroke="black" d="M370.657,-874.26C371.696,-851.131 373.218,-817.278 374.277,-793.709"/>
<polygon fill="black" stroke="black" points="377.775,-793.827 374.728,-783.679 370.782,-793.512 377.775,-793.827"/>
</g>
<!-- Node0xf0fb550 -->
<g id="node16" class="node"><title>Node0xf0fb550</title>
<polygon fill="none" stroke="black" points="339.5,-659.5 339.5,-695.5 411.5,-695.5 411.5,-659.5 339.5,-659.5"/>
<text text-anchor="start" x="347.5" y="-673.8" font-family="Times,serif" font-size="14.00">v4 = v3</text>
</g>
<!-- Node0x6ffded0&#45;&gt;Node0xf0fb550 -->
<g id="edge18" class="edge"><title>Node0x6ffded0&#45;&gt;Node0xf0fb550</title>
<path fill="none" stroke="black" d="M375.5,-747.097C375.5,-735.246 375.5,-719.317 375.5,-705.792"/>
<polygon fill="black" stroke="black" points="379,-705.584 375.5,-695.584 372,-705.584 379,-705.584"/>
<text text-anchor="middle" x="402.5" y="-717.8" font-family="Times,serif" font-size="14.00">v3 != 0</text>
</g>
<!-- Node0xf0ff990 -->
<g id="node17" class="node"><title>Node0xf0ff990</title>
<polygon fill="none" stroke="black" points="398,-557.5 398,-640.5 511,-640.5 511,-557.5 398,-557.5"/>
<text text-anchor="start" x="406" y="-625.3" font-family="Times,serif" font-size="14.00">0x40f7e2:</text>
<text text-anchor="start" x="406" y="-610.3" font-family="Times,serif" font-size="14.00"> v14 = g9</text>
<text text-anchor="start" x="406" y="-595.3" font-family="Times,serif" font-size="14.00"> result = v14</text>
<text text-anchor="start" x="406" y="-580.3" font-family="Times,serif" font-size="14.00"> g9 = v5</text>
<text text-anchor="start" x="406" y="-565.3" font-family="Times,serif" font-size="14.00"> return result</text>
</g>
<!-- Node0x6ffded0&#45;&gt;Node0xf0ff990 -->
<g id="edge19" class="edge"><title>Node0x6ffded0&#45;&gt;Node0xf0ff990</title>
<path fill="none" stroke="black" d="M412.104,-747.497C419.526,-742.504 426.56,-736.36 431.5,-729 446.821,-706.173 452.803,-676.15 454.848,-650.813"/>
<polygon fill="black" stroke="black" points="458.353,-650.836 455.483,-640.638 451.367,-650.4 458.353,-650.836"/>
<text text-anchor="middle" x="468.5" y="-717.8" font-family="Times,serif" font-size="14.00">v3 == 0</text>
</g>
<!-- Node0xf0fb5b0 -->
<g id="node18" class="node"><title>Node0xf0fb5b0</title>
<polygon fill="none" stroke="black" points="327,-502.5 327,-538.5 424,-538.5 424,-502.5 327,-502.5"/>
<text text-anchor="start" x="335" y="-516.8" font-family="Times,serif" font-size="14.00">while True:</text>
</g>
<!-- Node0xf0fb550&#45;&gt;Node0xf0fb5b0 -->
<g id="edge20" class="edge"><title>Node0xf0fb550&#45;&gt;Node0xf0fb5b0</title>
<path fill="none" stroke="black" d="M375.5,-659.32C375.5,-632.668 375.5,-581.109 375.5,-549.165"/>
<polygon fill="black" stroke="black" points="379,-548.757 375.5,-538.757 372,-548.757 379,-548.757"/>
</g>
<!-- Node0xf0ff990&#45;&gt;Node0xf0febe0 -->
<g id="edge21" class="edge"><title>Node0xf0ff990&#45;&gt;Node0xf0febe0</title>
<path fill="none" stroke="black" d="M455.006,-557.284C455.254,-533.933 455.5,-504.069 455.5,-477.5 455.5,-477.5 455.5,-477.5 455.5,-138 455.5,-78.7499 253.628,-53.5347 168.576,-45.5404"/>
<polygon fill="black" stroke="black" points="168.843,-42.0503 158.567,-44.6288 168.208,-49.0215 168.843,-42.0503"/>
</g>
<!-- Node0xf0ff680 -->
<g id="node19" class="node"><title>Node0xf0ff680</title>
<polygon fill="none" stroke="black" points="159.5,-382.5 159.5,-450.5 389.5,-450.5 389.5,-382.5 159.5,-382.5"/>
<text text-anchor="start" x="167.5" y="-435.3" font-family="Times,serif" font-size="14.00">0x40f7d5:</text>
<text text-anchor="start" x="167.5" y="-420.3" font-family="Times,serif" font-size="14.00"> g9 = v4</text>
<text text-anchor="start" x="167.5" y="-405.3" font-family="Times,serif" font-size="14.00"> g5 = v4</text>
<text text-anchor="start" x="167.5" y="-390.3" font-family="Times,serif" font-size="14.00"> v2 = function_40f768(v5, v7)</text>
</g>
<!-- Node0xf0fb5b0&#45;&gt;Node0xf0ff680 -->
<g id="edge22" class="edge"><title>Node0xf0fb5b0&#45;&gt;Node0xf0ff680</title>
<path fill="none" stroke="black" d="M358.367,-502.197C346.372,-490.083 329.831,-473.379 314.608,-458.005"/>
<polygon fill="black" stroke="black" points="316.789,-455.233 307.266,-450.59 311.815,-460.159 316.789,-455.233"/>
<text text-anchor="middle" x="357.5" y="-472.8" font-family="Times,serif" font-size="14.00">True</text>
</g>
<!-- Node0xf0ff0f0 -->
<g id="node20" class="node"><title>Node0xf0ff0f0</title>
<polygon fill="none" stroke="black" points="222,-308.5 222,-344.5 327,-344.5 327,-308.5 222,-308.5"/>
<text text-anchor="start" x="230" y="-322.8" font-family="Times,serif" font-size="14.00">if (v2 == 0):</text>
</g>
<!-- Node0xf0ff680&#45;&gt;Node0xf0ff0f0 -->
<g id="edge23" class="edge"><title>Node0xf0ff680&#45;&gt;Node0xf0ff0f0</title>
<path fill="none" stroke="black" d="M274.5,-382.482C274.5,-373.328 274.5,-363.497 274.5,-354.715"/>
<polygon fill="black" stroke="black" points="278,-354.64 274.5,-344.64 271,-354.64 278,-354.64"/>
</g>
<!-- Node0xf1003d0 -->
<g id="node21" class="node"><title>Node0xf1003d0</title>
<polygon fill="none" stroke="black" points="163,-218.5 163,-256.5 318,-256.5 318,-218.5 163,-218.5"/>
<text text-anchor="start" x="171" y="-241.3" font-family="Times,serif" font-size="14.00">break &#45;&gt; 0x40f7e2:</text>
<text text-anchor="start" x="171" y="-226.3" font-family="Times,serif" font-size="14.00"> break</text>
</g>
<!-- Node0xf0ff0f0&#45;&gt;Node0xf1003d0 -->
<g id="edge24" class="edge"><title>Node0xf0ff0f0&#45;&gt;Node0xf1003d0</title>
<path fill="none" stroke="black" d="M266.382,-308.296C263.758,-302.526 260.906,-296.027 258.5,-290 255.472,-282.416 252.442,-274.099 249.755,-266.403"/>
<polygon fill="black" stroke="black" points="253.002,-265.082 246.449,-256.757 246.38,-267.351 253.002,-265.082"/>
<text text-anchor="middle" x="288.5" y="-278.8" font-family="Times,serif" font-size="14.00">v2 == 0</text>
</g>
<!-- Node0xf100370 -->
<g id="node22" class="node"><title>Node0xf100370</title>
<polygon fill="none" stroke="black" points="341,-218.5 341,-256.5 424,-256.5 424,-218.5 341,-218.5"/>
<text text-anchor="start" x="349" y="-241.3" font-family="Times,serif" font-size="14.00">v4 = v2</text>
<text text-anchor="start" x="349" y="-226.3" font-family="Times,serif" font-size="14.00"> continue</text>
</g>
<!-- Node0xf0ff0f0&#45;&gt;Node0xf100370 -->
<g id="edge25" class="edge"><title>Node0xf0ff0f0&#45;&gt;Node0xf100370</title>
<path fill="none" stroke="black" d="M295.837,-308.312C311.937,-295.343 334.24,-277.376 352.189,-262.917"/>
<polygon fill="black" stroke="black" points="354.5,-265.55 360.092,-256.551 350.108,-260.099 354.5,-265.55"/>
<text text-anchor="middle" x="362.5" y="-278.8" font-family="Times,serif" font-size="14.00">v2 != 0</text>
</g>
<!-- Node0xf0ff5d0 -->
<g id="node23" class="node"><title>Node0xf0ff5d0</title>
<polygon fill="none" stroke="black" points="166,-97.5 166,-180.5 279,-180.5 279,-97.5 166,-97.5"/>
<text text-anchor="start" x="174" y="-165.3" font-family="Times,serif" font-size="14.00">0x40f7e2:</text>
<text text-anchor="start" x="174" y="-150.3" font-family="Times,serif" font-size="14.00"> v14 = g9</text>
<text text-anchor="start" x="174" y="-135.3" font-family="Times,serif" font-size="14.00"> result = v14</text>
<text text-anchor="start" x="174" y="-120.3" font-family="Times,serif" font-size="14.00"> g9 = v5</text>
<text text-anchor="start" x="174" y="-105.3" font-family="Times,serif" font-size="14.00"> return result</text>
</g>
<!-- Node0xf1003d0&#45;&gt;Node0xf0ff5d0 -->
<g id="edge26" class="edge"><title>Node0xf1003d0&#45;&gt;Node0xf0ff5d0</title>
<path fill="none" stroke="black" d="M237.114,-218.349C235.633,-210.405 233.813,-200.649 231.967,-190.752"/>
<polygon fill="black" stroke="black" points="235.398,-190.059 230.123,-180.87 228.517,-191.342 235.398,-190.059"/>
</g>
<!-- Node0xf100370&#45;&gt;Node0xf0fb5b0 -->
<g id="edge27" class="edge"><title>Node0xf100370&#45;&gt;Node0xf0fb5b0</title>
<path fill="none" stroke="black" d="M388.993,-256.857C390.762,-262.597 392.472,-268.999 393.5,-275 406.716,-352.13 411.119,-373.77 398.5,-451 396.169,-465.263 391.279,-480.561 386.604,-493.074"/>
<polygon fill="black" stroke="black" points="383.324,-491.851 382.954,-502.439 389.847,-494.392 383.324,-491.851"/>
</g>
<!-- Node0xf0ff5d0&#45;&gt;Node0xf0febe0 -->
<g id="edge28" class="edge"><title>Node0xf0ff5d0&#45;&gt;Node0xf0febe0</title>
<path fill="none" stroke="black" d="M183.908,-97.4994C174.068,-87.1731 163.787,-76.3838 154.964,-67.124"/>
<polygon fill="black" stroke="black" points="157.369,-64.5745 147.937,-59.7494 152.301,-69.4035 157.369,-64.5745"/>
</g>
</g>
</svg>
