<?xml version="1.0" encoding="UTF-8" standalone="no"?>
<!DOCTYPE svg PUBLIC "-//W3C//DTD SVG 1.1//EN"
 "http://www.w3.org/Graphics/SVG/1.1/DTD/svg11.dtd">
<!-- Generated by graphviz version 2.38.0 (20140413.2041)
 -->
<!-- Title: Control&#45;flow graph for function &#39;function_41c925(*a1, a2, *a3, *a4, *a5, *a6)&#39;. Pages: 1 -->
<svg width="1131pt" height="3374pt"
 viewBox="0.00 0.00 1130.50 3374.00" xmlns="http://www.w3.org/2000/svg" xmlns:xlink="http://www.w3.org/1999/xlink">
<g id="graph0" class="graph" transform="scale(1 1) rotate(0) translate(4 3370)">
<title>Control&#45;flow graph for function &#39;function_41c925(*a1, a2, *a3, *a4, *a5, *a6)&#39;.</title>
<polygon fill="white" stroke="none" points="-4,4 -4,-3370 1126.5,-3370 1126.5,4 -4,4"/>
<text text-anchor="middle" x="561.25" y="-7.8" font-family="Times,serif" font-size="14.00">Control&#45;flow graph for function &#39;function_41c925(*a1, a2, *a3, *a4, *a5, *a6)&#39;.</text>
<!-- Node0xf6d9930 -->
<g id="node1" class="node"><title>Node0xf6d9930</title>
<polygon fill="none" stroke="black" points="214.5,-3252.5 214.5,-3365.5 273.5,-3365.5 273.5,-3252.5 214.5,-3252.5"/>
<text text-anchor="start" x="222.5" y="-3350.3" font-family="Times,serif" font-size="14.00">entry:</text>
<text text-anchor="start" x="222.5" y="-3335.3" font-family="Times,serif" font-size="14.00"> a1</text>
<text text-anchor="start" x="222.5" y="-3320.3" font-family="Times,serif" font-size="14.00"> a2</text>
<text text-anchor="start" x="222.5" y="-3305.3" font-family="Times,serif" font-size="14.00"> a3</text>
<text text-anchor="start" x="222.5" y="-3290.3" font-family="Times,serif" font-size="14.00"> a4</text>
<text text-anchor="start" x="222.5" y="-3275.3" font-family="Times,serif" font-size="14.00"> a5</text>
<text text-anchor="start" x="222.5" y="-3260.3" font-family="Times,serif" font-size="14.00"> a6</text>
</g>
<!-- Node0xf6dce10 -->
<g id="node2" class="node"><title>Node0xf6dce10</title>
<polygon fill="none" stroke="black" points="85,-2156.5 85,-3214.5 403,-3214.5 403,-2156.5 85,-2156.5"/>
<text text-anchor="start" x="93" y="-3199.3" font-family="Times,serif" font-size="14.00">v1</text>
<text text-anchor="start" x="93" y="-3184.3" font-family="Times,serif" font-size="14.00"> v2</text>
<text text-anchor="start" x="93" y="-3169.3" font-family="Times,serif" font-size="14.00"> v3</text>
<text text-anchor="start" x="93" y="-3154.3" font-family="Times,serif" font-size="14.00"> v4</text>
<text text-anchor="start" x="93" y="-3139.3" font-family="Times,serif" font-size="14.00"> v5</text>
<text text-anchor="start" x="93" y="-3124.3" font-family="Times,serif" font-size="14.00"> v6</text>
<text text-anchor="start" x="93" y="-3109.3" font-family="Times,serif" font-size="14.00"> v7</text>
<text text-anchor="start" x="93" y="-3094.3" font-family="Times,serif" font-size="14.00"> v8</text>
<text text-anchor="start" x="93" y="-3079.3" font-family="Times,serif" font-size="14.00"> v9</text>
<text text-anchor="start" x="93" y="-3064.3" font-family="Times,serif" font-size="14.00"> v10</text>
<text text-anchor="start" x="93" y="-3049.3" font-family="Times,serif" font-size="14.00"> v11</text>
<text text-anchor="start" x="93" y="-3034.3" font-family="Times,serif" font-size="14.00"> v12</text>
<text text-anchor="start" x="93" y="-3019.3" font-family="Times,serif" font-size="14.00"> v13</text>
<text text-anchor="start" x="93" y="-3004.3" font-family="Times,serif" font-size="14.00"> v14</text>
<text text-anchor="start" x="93" y="-2989.3" font-family="Times,serif" font-size="14.00"> v15</text>
<text text-anchor="start" x="93" y="-2974.3" font-family="Times,serif" font-size="14.00"> v16</text>
<text text-anchor="start" x="93" y="-2959.3" font-family="Times,serif" font-size="14.00"> v17</text>
<text text-anchor="start" x="93" y="-2944.3" font-family="Times,serif" font-size="14.00"> v18</text>
<text text-anchor="start" x="93" y="-2929.3" font-family="Times,serif" font-size="14.00"> v19</text>
<text text-anchor="start" x="93" y="-2914.3" font-family="Times,serif" font-size="14.00"> v20</text>
<text text-anchor="start" x="93" y="-2899.3" font-family="Times,serif" font-size="14.00"> v21</text>
<text text-anchor="start" x="93" y="-2884.3" font-family="Times,serif" font-size="14.00"> v22</text>
<text text-anchor="start" x="93" y="-2869.3" font-family="Times,serif" font-size="14.00"> v23</text>
<text text-anchor="start" x="93" y="-2854.3" font-family="Times,serif" font-size="14.00"> v24</text>
<text text-anchor="start" x="93" y="-2839.3" font-family="Times,serif" font-size="14.00"> v25</text>
<text text-anchor="start" x="93" y="-2824.3" font-family="Times,serif" font-size="14.00"> v26</text>
<text text-anchor="start" x="93" y="-2809.3" font-family="Times,serif" font-size="14.00"> v27</text>
<text text-anchor="start" x="93" y="-2794.3" font-family="Times,serif" font-size="14.00"> v28</text>
<text text-anchor="start" x="93" y="-2779.3" font-family="Times,serif" font-size="14.00"> v29</text>
<text text-anchor="start" x="93" y="-2764.3" font-family="Times,serif" font-size="14.00"> v30</text>
<text text-anchor="start" x="93" y="-2749.3" font-family="Times,serif" font-size="14.00"> v31</text>
<text text-anchor="start" x="93" y="-2734.3" font-family="Times,serif" font-size="14.00"> v32</text>
<text text-anchor="start" x="93" y="-2719.3" font-family="Times,serif" font-size="14.00"> v33</text>
<text text-anchor="start" x="93" y="-2704.3" font-family="Times,serif" font-size="14.00"> v34</text>
<text text-anchor="start" x="93" y="-2689.3" font-family="Times,serif" font-size="14.00"> v35</text>
<text text-anchor="start" x="93" y="-2674.3" font-family="Times,serif" font-size="14.00"> v36</text>
<text text-anchor="start" x="93" y="-2659.3" font-family="Times,serif" font-size="14.00"> v37</text>
<text text-anchor="start" x="93" y="-2644.3" font-family="Times,serif" font-size="14.00"> v38</text>
<text text-anchor="start" x="93" y="-2629.3" font-family="Times,serif" font-size="14.00"> v39</text>
<text text-anchor="start" x="93" y="-2614.3" font-family="Times,serif" font-size="14.00"> v40</text>
<text text-anchor="start" x="93" y="-2599.3" font-family="Times,serif" font-size="14.00"> v41</text>
<text text-anchor="start" x="93" y="-2584.3" font-family="Times,serif" font-size="14.00"> v42</text>
<text text-anchor="start" x="93" y="-2569.3" font-family="Times,serif" font-size="14.00"> v43</text>
<text text-anchor="start" x="93" y="-2554.3" font-family="Times,serif" font-size="14.00"> v44</text>
<text text-anchor="start" x="93" y="-2539.3" font-family="Times,serif" font-size="14.00"> v45</text>
<text text-anchor="start" x="93" y="-2524.3" font-family="Times,serif" font-size="14.00"> v46</text>
<text text-anchor="start" x="93" y="-2509.3" font-family="Times,serif" font-size="14.00"> v47</text>
<text text-anchor="start" x="93" y="-2494.3" font-family="Times,serif" font-size="14.00"> v48</text>
<text text-anchor="start" x="93" y="-2479.3" font-family="Times,serif" font-size="14.00"> v49</text>
<text text-anchor="start" x="93" y="-2464.3" font-family="Times,serif" font-size="14.00"> v50</text>
<text text-anchor="start" x="93" y="-2449.3" font-family="Times,serif" font-size="14.00"> v51</text>
<text text-anchor="start" x="93" y="-2434.3" font-family="Times,serif" font-size="14.00"> v52</text>
<text text-anchor="start" x="93" y="-2419.3" font-family="Times,serif" font-size="14.00"> v53</text>
<text text-anchor="start" x="93" y="-2404.3" font-family="Times,serif" font-size="14.00"> v54</text>
<text text-anchor="start" x="93" y="-2389.3" font-family="Times,serif" font-size="14.00"> v15 = v16</text>
<text text-anchor="start" x="93" y="-2374.3" font-family="Times,serif" font-size="14.00"> v11 = v12</text>
<text text-anchor="start" x="93" y="-2359.3" font-family="Times,serif" font-size="14.00"> v7 = v8</text>
<text text-anchor="start" x="93" y="-2344.3" font-family="Times,serif" font-size="14.00"> v5 = v6</text>
<text text-anchor="start" x="93" y="-2329.3" font-family="Times,serif" font-size="14.00"> v13 = v18</text>
<text text-anchor="start" x="93" y="-2314.3" font-family="Times,serif" font-size="14.00"> v23 = v24</text>
<text text-anchor="start" x="93" y="-2299.3" font-family="Times,serif" font-size="14.00"> v26 = v27</text>
<text text-anchor="start" x="93" y="-2284.3" font-family="Times,serif" font-size="14.00"> v23 = a3</text>
<text text-anchor="start" x="93" y="-2269.3" font-family="Times,serif" font-size="14.00"> v26 = a5</text>
<text text-anchor="start" x="93" y="-2254.3" font-family="Times,serif" font-size="14.00"> g3 = PtrToIntCastExpr&lt;int32&gt;(&amp;(v13))</text>
<text text-anchor="start" x="93" y="-2239.3" font-family="Times,serif" font-size="14.00"> v32 = g9</text>
<text text-anchor="start" x="93" y="-2224.3" font-family="Times,serif" font-size="14.00"> v20 = v32</text>
<text text-anchor="start" x="93" y="-2209.3" font-family="Times,serif" font-size="14.00"> g10 = PtrToIntCastExpr&lt;int32&gt;(&amp;(v20))</text>
<text text-anchor="start" x="93" y="-2194.3" font-family="Times,serif" font-size="14.00"> v49 = PtrToIntCastExpr&lt;int32&gt;(a1)</text>
<text text-anchor="start" x="93" y="-2179.3" font-family="Times,serif" font-size="14.00"> g9 = v49</text>
<text text-anchor="start" x="93" y="-2164.3" font-family="Times,serif" font-size="14.00"> g8 = 0</text>
</g>
<!-- Node0xf6d9930&#45;&gt;Node0xf6dce10 -->
<g id="edge1" class="edge"><title>Node0xf6d9930&#45;&gt;Node0xf6dce10</title>
<path fill="none" stroke="black" d="M244,-3252.3C244,-3243.86 244,-3234.63 244,-3224.71"/>
<polygon fill="black" stroke="black" points="247.5,-3224.58 244,-3214.58 240.5,-3224.58 247.5,-3224.58"/>
</g>
<!-- Node0xf6dc980 -->
<g id="node3" class="node"><title>Node0xf6dc980</title>
<polygon fill="none" stroke="black" points="174,-2082.5 174,-2118.5 314,-2118.5 314,-2082.5 174,-2082.5"/>
<text text-anchor="start" x="182" y="-2096.8" font-family="Times,serif" font-size="14.00">if (a1 == NULL):</text>
</g>
<!-- Node0xf6dce10&#45;&gt;Node0xf6dc980 -->
<g id="edge2" class="edge"><title>Node0xf6dce10&#45;&gt;Node0xf6dc980</title>
<path fill="none" stroke="black" d="M244,-2156.35C244,-2146.02 244,-2136.9 244,-2129.2"/>
<polygon fill="black" stroke="black" points="247.5,-2128.98 244,-2118.98 240.5,-2128.98 247.5,-2128.98"/>
</g>
<!-- Node0xf6df110 -->
<g id="node4" class="node"><title>Node0xf6df110</title>
<polygon fill="none" stroke="black" points="0,-1875.5 0,-1973.5 338,-1973.5 338,-1875.5 0,-1875.5"/>
<text text-anchor="start" x="8" y="-1958.3" font-family="Times,serif" font-size="14.00">v41 = v12</text>
<text text-anchor="start" x="8" y="-1943.3" font-family="Times,serif" font-size="14.00"> v44 = v10</text>
<text text-anchor="start" x="8" y="-1928.3" font-family="Times,serif" font-size="14.00"> v2 = IntToPtrCastExpr&lt;ptr&gt;(&#45;2147467259)</text>
<text text-anchor="start" x="8" y="-1913.3" font-family="Times,serif" font-size="14.00"> g9 = v41</text>
<text text-anchor="start" x="8" y="-1898.3" font-family="Times,serif" font-size="14.00"> g3 = PtrToIntCastExpr&lt;int32&gt;(v44)</text>
<text text-anchor="start" x="8" y="-1883.3" font-family="Times,serif" font-size="14.00"> return PtrToIntCastExpr&lt;int32&gt;(v2)</text>
</g>
<!-- Node0xf6dc980&#45;&gt;Node0xf6df110 -->
<g id="edge3" class="edge"><title>Node0xf6dc980&#45;&gt;Node0xf6df110</title>
<path fill="none" stroke="black" d="M208.553,-2082.37C201.403,-2077.38 194.661,-2071.27 190,-2064 174.942,-2040.5 169.164,-2010.23 167.373,-1983.99"/>
<polygon fill="black" stroke="black" points="170.857,-1983.59 166.858,-1973.78 163.866,-1983.94 170.857,-1983.59"/>
<text text-anchor="middle" x="237" y="-2052.8" font-family="Times,serif" font-size="14.00">a1 == NULL</text>
</g>
<!-- Node0x5082d40 -->
<g id="node5" class="node"><title>Node0x5082d40</title>
<polygon fill="none" stroke="black" points="206.5,-1992.5 206.5,-2030.5 491.5,-2030.5 491.5,-1992.5 206.5,-1992.5"/>
<text text-anchor="start" x="214.5" y="-2015.3" font-family="Times,serif" font-size="14.00">0x41c939:</text>
<text text-anchor="start" x="214.5" y="-2000.3" font-family="Times,serif" font-size="14.00"> v50 = PtrToIntCastExpr&lt;int32&gt;(a3)</text>
</g>
<!-- Node0xf6dc980&#45;&gt;Node0x5082d40 -->
<g id="edge4" class="edge"><title>Node0xf6dc980&#45;&gt;Node0x5082d40</title>
<path fill="none" stroke="black" d="M264.745,-2082.31C280.256,-2069.46 301.691,-2051.7 319.059,-2037.31"/>
<polygon fill="black" stroke="black" points="321.747,-2039.63 327.214,-2030.55 317.281,-2034.24 321.747,-2039.63"/>
<text text-anchor="middle" x="347" y="-2052.8" font-family="Times,serif" font-size="14.00">a1 != NULL</text>
</g>
<!-- Node0xf6dcd90 -->
<g id="node6" class="node"><title>Node0xf6dcd90</title>
<polygon fill="none" stroke="black" points="231,-23.5 231,-59.5 285,-59.5 285,-23.5 231,-23.5"/>
<text text-anchor="start" x="239" y="-37.8" font-family="Times,serif" font-size="14.00">exit:</text>
</g>
<!-- Node0xf6df110&#45;&gt;Node0xf6dcd90 -->
<g id="edge5" class="edge"><title>Node0xf6df110&#45;&gt;Node0xf6dcd90</title>
<path fill="none" stroke="black" d="M169,-1875.48C169,-1851.46 169,-1821.94 169,-1795.5 169,-1795.5 169,-1795.5 169,-190.5 169,-141.169 205.763,-94.115 232.033,-66.7876"/>
<polygon fill="black" stroke="black" points="234.581,-69.1885 239.125,-59.6175 229.605,-64.2658 234.581,-69.1885"/>
</g>
<!-- Node0xf6dd060 -->
<g id="node7" class="node"><title>Node0xf6dd060</title>
<polygon fill="none" stroke="black" points="283,-1820.5 283,-1856.5 423,-1856.5 423,-1820.5 283,-1820.5"/>
<text text-anchor="start" x="291" y="-1834.8" font-family="Times,serif" font-size="14.00">if (a3 == NULL):</text>
</g>
<!-- Node0x5082d40&#45;&gt;Node0xf6dd060 -->
<g id="edge6" class="edge"><title>Node0x5082d40&#45;&gt;Node0xf6dd060</title>
<path fill="none" stroke="black" d="M349.428,-1992.2C350.133,-1962.06 351.542,-1901.82 352.364,-1866.69"/>
<polygon fill="black" stroke="black" points="355.864,-1866.73 352.599,-1856.65 348.866,-1866.56 355.864,-1866.73"/>
</g>
<!-- Node0xf6df310 -->
<g id="node8" class="node"><title>Node0xf6df310</title>
<polygon fill="none" stroke="black" points="184,-1598.5 184,-1696.5 522,-1696.5 522,-1598.5 184,-1598.5"/>
<text text-anchor="start" x="192" y="-1681.3" font-family="Times,serif" font-size="14.00">v41 = v12</text>
<text text-anchor="start" x="192" y="-1666.3" font-family="Times,serif" font-size="14.00"> v44 = v10</text>
<text text-anchor="start" x="192" y="-1651.3" font-family="Times,serif" font-size="14.00"> v2 = IntToPtrCastExpr&lt;ptr&gt;(&#45;2147467259)</text>
<text text-anchor="start" x="192" y="-1636.3" font-family="Times,serif" font-size="14.00"> g9 = v41</text>
<text text-anchor="start" x="192" y="-1621.3" font-family="Times,serif" font-size="14.00"> g3 = PtrToIntCastExpr&lt;int32&gt;(v44)</text>
<text text-anchor="start" x="192" y="-1606.3" font-family="Times,serif" font-size="14.00"> return PtrToIntCastExpr&lt;int32&gt;(v2)</text>
</g>
<!-- Node0xf6dd060&#45;&gt;Node0xf6df310 -->
<g id="edge7" class="edge"><title>Node0xf6dd060&#45;&gt;Node0xf6df310</title>
<path fill="none" stroke="black" d="M353,-1820.39C353,-1795.04 353,-1746.26 353,-1707.12"/>
<polygon fill="black" stroke="black" points="356.5,-1706.88 353,-1696.88 349.5,-1706.88 356.5,-1706.88"/>
<text text-anchor="middle" x="400" y="-1790.8" font-family="Times,serif" font-size="14.00">a3 == NULL</text>
</g>
<!-- Node0xf6dd270 -->
<g id="node9" class="node"><title>Node0xf6dd270</title>
<polygon fill="none" stroke="black" points="387.5,-1715.5 387.5,-1768.5 672.5,-1768.5 672.5,-1715.5 387.5,-1715.5"/>
<text text-anchor="start" x="395.5" y="-1753.3" font-family="Times,serif" font-size="14.00">0x41c93e:</text>
<text text-anchor="start" x="395.5" y="-1738.3" font-family="Times,serif" font-size="14.00"> v51 = PtrToIntCastExpr&lt;int32&gt;(a5)</text>
<text text-anchor="start" x="395.5" y="-1723.3" font-family="Times,serif" font-size="14.00"> g2 = v51</text>
</g>
<!-- Node0xf6dd060&#45;&gt;Node0xf6dd270 -->
<g id="edge8" class="edge"><title>Node0xf6dd060&#45;&gt;Node0xf6dd270</title>
<path fill="none" stroke="black" d="M408.919,-1820.45C423.011,-1815.29 437.859,-1809.09 451,-1802 465.09,-1794.4 479.428,-1784.48 491.953,-1774.95"/>
<polygon fill="black" stroke="black" points="494.154,-1777.67 499.9,-1768.77 489.857,-1772.15 494.154,-1777.67"/>
<text text-anchor="middle" x="519" y="-1790.8" font-family="Times,serif" font-size="14.00">a3 != NULL</text>
</g>
<!-- Node0xf6df310&#45;&gt;Node0xf6dcd90 -->
<g id="edge9" class="edge"><title>Node0xf6df310&#45;&gt;Node0xf6dcd90</title>
<path fill="none" stroke="black" d="M276.323,-1598.22C252.805,-1577.24 233,-1550.18 233,-1518.5 233,-1518.5 233,-1518.5 233,-190.5 233,-147.797 243.244,-99.1186 250.618,-69.6138"/>
<polygon fill="black" stroke="black" points="254.077,-70.2145 253.18,-59.6577 247.298,-68.4698 254.077,-70.2145"/>
</g>
<!-- Node0xf6dd2d0 -->
<g id="node10" class="node"><title>Node0xf6dd2d0</title>
<polygon fill="none" stroke="black" points="467,-1543.5 467,-1579.5 607,-1579.5 607,-1543.5 467,-1543.5"/>
<text text-anchor="start" x="475" y="-1557.8" font-family="Times,serif" font-size="14.00">if (a5 == NULL):</text>
</g>
<!-- Node0xf6dd270&#45;&gt;Node0xf6dd2d0 -->
<g id="edge10" class="edge"><title>Node0xf6dd270&#45;&gt;Node0xf6dd2d0</title>
<path fill="none" stroke="black" d="M531.003,-1715.43C532.309,-1682.11 534.585,-1624.09 535.925,-1589.9"/>
<polygon fill="black" stroke="black" points="539.431,-1589.83 536.325,-1579.7 532.436,-1589.56 539.431,-1589.83"/>
</g>
<!-- Node0xf6df540 -->
<g id="node11" class="node"><title>Node0xf6df540</title>
<polygon fill="none" stroke="black" points="248,-1021.5 248,-1119.5 586,-1119.5 586,-1021.5 248,-1021.5"/>
<text text-anchor="start" x="256" y="-1104.3" font-family="Times,serif" font-size="14.00">v41 = v12</text>
<text text-anchor="start" x="256" y="-1089.3" font-family="Times,serif" font-size="14.00"> v44 = v10</text>
<text text-anchor="start" x="256" y="-1074.3" font-family="Times,serif" font-size="14.00"> v2 = IntToPtrCastExpr&lt;ptr&gt;(&#45;2147467259)</text>
<text text-anchor="start" x="256" y="-1059.3" font-family="Times,serif" font-size="14.00"> g9 = v41</text>
<text text-anchor="start" x="256" y="-1044.3" font-family="Times,serif" font-size="14.00"> g3 = PtrToIntCastExpr&lt;int32&gt;(v44)</text>
<text text-anchor="start" x="256" y="-1029.3" font-family="Times,serif" font-size="14.00"> return PtrToIntCastExpr&lt;int32&gt;(v2)</text>
</g>
<!-- Node0xf6dd2d0&#45;&gt;Node0xf6df540 -->
<g id="edge11" class="edge"><title>Node0xf6dd2d0&#45;&gt;Node0xf6df540</title>
<path fill="none" stroke="black" d="M493.526,-1543.42C471.518,-1532.31 446.807,-1515.47 434,-1492 370.858,-1376.29 388.271,-1214.82 404.058,-1129.56"/>
<polygon fill="black" stroke="black" points="407.532,-1130.03 405.97,-1119.55 400.656,-1128.72 407.532,-1130.03"/>
<text text-anchor="middle" x="510" y="-1513.8" font-family="Times,serif" font-size="14.00">a5 == NULL</text>
</g>
<!-- Node0xf6dd570 -->
<g id="node12" class="node"><title>Node0xf6dd570</title>
<polygon fill="none" stroke="black" points="443.5,-1138.5 443.5,-1491.5 1122.5,-1491.5 1122.5,-1138.5 443.5,-1138.5"/>
<text text-anchor="start" x="451.5" y="-1476.3" font-family="Times,serif" font-size="14.00">0x41c945:</text>
<text text-anchor="start" x="451.5" y="-1461.3" font-family="Times,serif" font-size="14.00"> v39 = *(&amp;(a5[&#39;0&#39;]))</text>
<text text-anchor="start" x="451.5" y="-1446.3" font-family="Times,serif" font-size="14.00"> g4 = v39</text>
<text text-anchor="start" x="451.5" y="-1431.3" font-family="Times,serif" font-size="14.00"> v33 = g7</text>
<text text-anchor="start" x="451.5" y="-1416.3" font-family="Times,serif" font-size="14.00"> g7 = a2</text>
<text text-anchor="start" x="451.5" y="-1401.3" font-family="Times,serif" font-size="14.00"> v5 = NULL</text>
<text text-anchor="start" x="451.5" y="-1386.3" font-family="Times,serif" font-size="14.00"> v7 = a3</text>
<text text-anchor="start" x="451.5" y="-1371.3" font-family="Times,serif" font-size="14.00"> v52 = *(IntToPtrCastExpr&lt;ptr&gt;((v49 + 36)))</text>
<text text-anchor="start" x="451.5" y="-1356.3" font-family="Times,serif" font-size="14.00"> g1 = False</text>
<text text-anchor="start" x="451.5" y="-1341.3" font-family="Times,serif" font-size="14.00"> g207 = (v52 == 0)</text>
<text text-anchor="start" x="451.5" y="-1326.3" font-family="Times,serif" font-size="14.00"> v47 = (ExtCastExpr&lt;int32&gt;((v52 == 0)) ^ 1)</text>
<text text-anchor="start" x="451.5" y="-1311.3" font-family="Times,serif" font-size="14.00"> v11 = a2</text>
<text text-anchor="start" x="451.5" y="-1296.3" font-family="Times,serif" font-size="14.00"> v53 = ((v47 | 2) + v47)</text>
<text text-anchor="start" x="451.5" y="-1281.3" font-family="Times,serif" font-size="14.00"> g5 = v53</text>
<text text-anchor="start" x="451.5" y="-1266.3" font-family="Times,serif" font-size="14.00"> v15 = a5</text>
<text text-anchor="start" x="451.5" y="-1251.3" font-family="Times,serif" font-size="14.00"> g10 = PtrToIntCastExpr&lt;int32&gt;(&amp;(v15))</text>
<text text-anchor="start" x="451.5" y="-1236.3" font-family="Times,serif" font-size="14.00"> v54 = *(IntToPtrCastExpr&lt;ptr&gt;((v39 + 16)))</text>
<text text-anchor="start" x="451.5" y="-1221.3" font-family="Times,serif" font-size="14.00"> IntToPtrCastExpr&lt;ptr&gt;(v54)(v51, v53, a2, v49, PtrToIntCastExpr&lt;int32&gt;(a4), v50, 0, v33)</text>
<text text-anchor="start" x="451.5" y="-1206.3" font-family="Times,serif" font-size="14.00"> v34 = g7</text>
<text text-anchor="start" x="451.5" y="-1191.3" font-family="Times,serif" font-size="14.00"> v35 = g2</text>
<text text-anchor="start" x="451.5" y="-1176.3" font-family="Times,serif" font-size="14.00"> g4 = v35</text>
<text text-anchor="start" x="451.5" y="-1161.3" font-family="Times,serif" font-size="14.00"> v42 = a2</text>
<text text-anchor="start" x="451.5" y="-1146.3" font-family="Times,serif" font-size="14.00"> v37 = v35</text>
</g>
<!-- Node0xf6dd2d0&#45;&gt;Node0xf6dd570 -->
<g id="edge12" class="edge"><title>Node0xf6dd2d0&#45;&gt;Node0xf6dd570</title>
<path fill="none" stroke="black" d="M554.298,-1543.31C565.401,-1532.27 581.093,-1516.68 599.118,-1498.76"/>
<polygon fill="black" stroke="black" points="601.788,-1501.04 606.414,-1491.51 596.854,-1496.08 601.788,-1501.04"/>
<text text-anchor="middle" x="629" y="-1513.8" font-family="Times,serif" font-size="14.00">a5 != NULL</text>
</g>
<!-- Node0xf6df540&#45;&gt;Node0xf6dcd90 -->
<g id="edge13" class="edge"><title>Node0xf6df540&#45;&gt;Node0xf6dcd90</title>
<path fill="none" stroke="black" d="M330.144,-1021.45C304.908,-1000.88 284,-974.027 284,-941.5 284,-941.5 284,-941.5 284,-190.5 284,-147.748 273.346,-99.0838 265.678,-69.5951"/>
<polygon fill="black" stroke="black" points="268.981,-68.399 263.013,-59.6448 262.219,-70.2099 268.981,-68.399"/>
</g>
<!-- Node0xf6de3c0 -->
<g id="node13" class="node"><title>Node0xf6de3c0</title>
<polygon fill="none" stroke="black" points="720,-966.5 720,-1002.5 828,-1002.5 828,-966.5 720,-966.5"/>
<text text-anchor="start" x="728" y="-980.8" font-family="Times,serif" font-size="14.00">if (v34 != 0):</text>
</g>
<!-- Node0xf6dd570&#45;&gt;Node0xf6de3c0 -->
<g id="edge14" class="edge"><title>Node0xf6dd570&#45;&gt;Node0xf6de3c0</title>
<path fill="none" stroke="black" d="M778.184,-1138.21C776.842,-1089.24 775.538,-1041.65 774.752,-1012.96"/>
<polygon fill="black" stroke="black" points="778.25,-1012.82 774.477,-1002.92 771.253,-1013.01 778.25,-1012.82"/>
</g>
<!-- Node0xf6df770 -->
<g id="node14" class="node"><title>Node0xf6df770</title>
<polygon fill="none" stroke="black" points="600,-861.5 600,-914.5 736,-914.5 736,-861.5 600,-861.5"/>
<text text-anchor="start" x="608" y="-899.3" font-family="Times,serif" font-size="14.00">0x41c96c:</text>
<text text-anchor="start" x="608" y="-884.3" font-family="Times,serif" font-size="14.00"> v45 = g9</text>
<text text-anchor="start" x="608" y="-869.3" font-family="Times,serif" font-size="14.00"> g9 = (v45 + 20)</text>
</g>
<!-- Node0xf6de3c0&#45;&gt;Node0xf6df770 -->
<g id="edge15" class="edge"><title>Node0xf6de3c0&#45;&gt;Node0xf6df770</title>
<path fill="none" stroke="black" d="M723.605,-966.314C713.997,-961.447 704.587,-955.401 697,-948 690.1,-941.269 684.596,-932.559 680.319,-923.906"/>
<polygon fill="black" stroke="black" points="683.444,-922.322 676.15,-914.638 677.06,-925.193 683.444,-922.322"/>
<text text-anchor="middle" x="728.5" y="-936.8" font-family="Times,serif" font-size="14.00">v34 != 0</text>
</g>
<!-- Node0xf6de470 -->
<g id="node15" class="node"><title>Node0xf6de470</title>
<polygon fill="none" stroke="black" points="314,-97.5 314,-285.5 632,-285.5 632,-97.5 314,-97.5"/>
<text text-anchor="start" x="322" y="-270.3" font-family="Times,serif" font-size="14.00">0x41c97d:</text>
<text text-anchor="start" x="322" y="-255.3" font-family="Times,serif" font-size="14.00"> v40 = v15</text>
<text text-anchor="start" x="322" y="-240.3" font-family="Times,serif" font-size="14.00"> g7 = PtrToIntCastExpr&lt;int32&gt;(v40)</text>
<text text-anchor="start" x="322" y="-225.3" font-family="Times,serif" font-size="14.00"> v1 = IntToPtrCastExpr&lt;ptr&gt;(v37)</text>
<text text-anchor="start" x="322" y="-210.3" font-family="Times,serif" font-size="14.00"> g4 = v53</text>
<text text-anchor="start" x="322" y="-195.3" font-family="Times,serif" font-size="14.00"> g10 = PtrToIntCastExpr&lt;int32&gt;(&amp;(v11))</text>
<text text-anchor="start" x="322" y="-180.3" font-family="Times,serif" font-size="14.00"> v41 = v42</text>
<text text-anchor="start" x="322" y="-165.3" font-family="Times,serif" font-size="14.00"> v44 = a1</text>
<text text-anchor="start" x="322" y="-150.3" font-family="Times,serif" font-size="14.00"> v2 = v1</text>
<text text-anchor="start" x="322" y="-135.3" font-family="Times,serif" font-size="14.00"> g9 = v41</text>
<text text-anchor="start" x="322" y="-120.3" font-family="Times,serif" font-size="14.00"> g3 = PtrToIntCastExpr&lt;int32&gt;(v44)</text>
<text text-anchor="start" x="322" y="-105.3" font-family="Times,serif" font-size="14.00"> return PtrToIntCastExpr&lt;int32&gt;(v2)</text>
</g>
<!-- Node0xf6de3c0&#45;&gt;Node0xf6de470 -->
<g id="edge16" class="edge"><title>Node0xf6de3c0&#45;&gt;Node0xf6de470</title>
<path fill="none" stroke="black" d="M774,-966.428C774,-947.503 774,-916.07 774,-889 774,-889 774,-889 774,-364 774,-293.346 710.617,-251.423 642.021,-226.739"/>
<polygon fill="black" stroke="black" points="642.909,-223.343 632.314,-223.37 640.613,-229.956 642.909,-223.343"/>
<text text-anchor="middle" x="808.5" y="-592.8" font-family="Times,serif" font-size="14.00">v34 == 0</text>
</g>
<!-- Node0xf6df8b0 -->
<g id="node16" class="node"><title>Node0xf6df8b0</title>
<polygon fill="none" stroke="black" points="612.5,-787.5 612.5,-823.5 709.5,-823.5 709.5,-787.5 612.5,-787.5"/>
<text text-anchor="start" x="620.5" y="-801.8" font-family="Times,serif" font-size="14.00">while True:</text>
</g>
<!-- Node0xf6df770&#45;&gt;Node0xf6df8b0 -->
<g id="edge17" class="edge"><title>Node0xf6df770&#45;&gt;Node0xf6df8b0</title>
<path fill="none" stroke="black" d="M665.747,-861.086C664.996,-852.46 664.158,-842.822 663.398,-834.075"/>
<polygon fill="black" stroke="black" points="666.873,-833.633 662.519,-823.974 659.899,-834.239 666.873,-833.633"/>
</g>
<!-- Node0xf6de470&#45;&gt;Node0xf6dcd90 -->
<g id="edge18" class="edge"><title>Node0xf6de470&#45;&gt;Node0xf6dcd90</title>
<path fill="none" stroke="black" d="M337.753,-97.3994C320.503,-85.5254 304.277,-74.3558 291.022,-65.2312"/>
<polygon fill="black" stroke="black" points="292.981,-62.3307 282.759,-59.5435 289.012,-68.0967 292.981,-62.3307"/>
</g>
<!-- Node0xf6dfbf0 -->
<g id="node17" class="node"><title>Node0xf6dfbf0</title>
<polygon fill="none" stroke="black" points="481,-622.5 481,-735.5 633,-735.5 633,-622.5 481,-622.5"/>
<text text-anchor="start" x="489" y="-720.3" font-family="Times,serif" font-size="14.00">0x41c96f:</text>
<text text-anchor="start" x="489" y="-705.3" font-family="Times,serif" font-size="14.00"> function_40c783()</text>
<text text-anchor="start" x="489" y="-690.3" font-family="Times,serif" font-size="14.00"> v46 = g9</text>
<text text-anchor="start" x="489" y="-675.3" font-family="Times,serif" font-size="14.00"> g9 = (v46 + 52)</text>
<text text-anchor="start" x="489" y="-660.3" font-family="Times,serif" font-size="14.00"> v36 = g7</text>
<text text-anchor="start" x="489" y="-645.3" font-family="Times,serif" font-size="14.00"> v48 = (v36 + &#45;1)</text>
<text text-anchor="start" x="489" y="-630.3" font-family="Times,serif" font-size="14.00"> g7 = v48</text>
</g>
<!-- Node0xf6df8b0&#45;&gt;Node0xf6dfbf0 -->
<g id="edge19" class="edge"><title>Node0xf6df8b0&#45;&gt;Node0xf6dfbf0</title>
<path fill="none" stroke="black" d="M634.13,-787.341C626.813,-781.972 619.203,-775.687 613,-769 605.944,-761.393 599.261,-752.776 593.133,-743.974"/>
<polygon fill="black" stroke="black" points="595.92,-741.847 587.434,-735.505 590.113,-745.755 595.92,-741.847"/>
<text text-anchor="middle" x="630" y="-757.8" font-family="Times,serif" font-size="14.00">True</text>
</g>
<!-- Node0xf6dfe20 -->
<g id="node18" class="node"><title>Node0xf6dfe20</title>
<polygon fill="none" stroke="black" points="500,-534.5 500,-570.5 614,-570.5 614,-534.5 500,-534.5"/>
<text text-anchor="start" x="508" y="-548.8" font-family="Times,serif" font-size="14.00">if (v48 == 0):</text>
</g>
<!-- Node0xf6dfbf0&#45;&gt;Node0xf6dfe20 -->
<g id="edge20" class="edge"><title>Node0xf6dfbf0&#45;&gt;Node0xf6dfe20</title>
<path fill="none" stroke="black" d="M557,-622.305C557,-608.029 557,-593.288 557,-581.13"/>
<polygon fill="black" stroke="black" points="560.5,-580.778 557,-570.778 553.5,-580.779 560.5,-580.778"/>
</g>
<!-- Node0xf6e00a0 -->
<g id="node19" class="node"><title>Node0xf6e00a0</title>
<polygon fill="none" stroke="black" points="394,-444.5 394,-482.5 552,-482.5 552,-444.5 394,-444.5"/>
<text text-anchor="start" x="402" y="-467.3" font-family="Times,serif" font-size="14.00">break &#45;&gt; 0x41c97d:</text>
<text text-anchor="start" x="402" y="-452.3" font-family="Times,serif" font-size="14.00"> break</text>
</g>
<!-- Node0xf6dfe20&#45;&gt;Node0xf6e00a0 -->
<g id="edge21" class="edge"><title>Node0xf6dfe20&#45;&gt;Node0xf6e00a0</title>
<path fill="none" stroke="black" d="M505.095,-534.377C496.685,-529.588 488.836,-523.556 483,-516 477.911,-509.411 475.181,-500.962 473.775,-492.82"/>
<polygon fill="black" stroke="black" points="477.246,-492.369 472.623,-482.836 470.292,-493.172 477.246,-492.369"/>
<text text-anchor="middle" x="517.5" y="-504.8" font-family="Times,serif" font-size="14.00">v48 == 0</text>
</g>
<!-- Node0xf6e0040 -->
<g id="node20" class="node"><title>Node0xf6e0040</title>
<polygon fill="none" stroke="black" points="570,-444.5 570,-482.5 746,-482.5 746,-444.5 570,-444.5"/>
<text text-anchor="start" x="578" y="-467.3" font-family="Times,serif" font-size="14.00">continue &#45;&gt; 0x41c96f:</text>
<text text-anchor="start" x="578" y="-452.3" font-family="Times,serif" font-size="14.00"> continue</text>
</g>
<!-- Node0xf6dfe20&#45;&gt;Node0xf6e0040 -->
<g id="edge22" class="edge"><title>Node0xf6dfe20&#45;&gt;Node0xf6e0040</title>
<path fill="none" stroke="black" d="M563.029,-534.336C567.478,-523.667 574.427,-510.265 584,-501 589.166,-496 595.151,-491.558 601.435,-487.647"/>
<polygon fill="black" stroke="black" points="603.216,-490.66 610.14,-482.64 599.726,-484.592 603.216,-490.66"/>
<text text-anchor="middle" x="615.5" y="-504.8" font-family="Times,serif" font-size="14.00">v48 != 0</text>
</g>
<!-- Node0xf6df960 -->
<g id="node21" class="node"><title>Node0xf6df960</title>
<polygon fill="none" stroke="black" points="425.5,-323.5 425.5,-406.5 520.5,-406.5 520.5,-323.5 425.5,-323.5"/>
<text text-anchor="start" x="433.5" y="-391.3" font-family="Times,serif" font-size="14.00">0x41c97d:</text>
<text text-anchor="start" x="433.5" y="-376.3" font-family="Times,serif" font-size="14.00"> v38 = g4</text>
<text text-anchor="start" x="433.5" y="-361.3" font-family="Times,serif" font-size="14.00"> v43 = v11</text>
<text text-anchor="start" x="433.5" y="-346.3" font-family="Times,serif" font-size="14.00"> v42 = v43</text>
<text text-anchor="start" x="433.5" y="-331.3" font-family="Times,serif" font-size="14.00"> v37 = v38</text>
</g>
<!-- Node0xf6e00a0&#45;&gt;Node0xf6df960 -->
<g id="edge23" class="edge"><title>Node0xf6e00a0&#45;&gt;Node0xf6df960</title>
<path fill="none" stroke="black" d="M473,-444.349C473,-436.488 473,-426.852 473,-417.061"/>
<polygon fill="black" stroke="black" points="476.5,-416.87 473,-406.87 469.5,-416.87 476.5,-416.87"/>
</g>
<!-- Node0xf6e0040&#45;&gt;Node0xf6df8b0 -->
<g id="edge24" class="edge"><title>Node0xf6e0040&#45;&gt;Node0xf6df8b0</title>
<path fill="none" stroke="black" d="M658.16,-482.613C658.655,-538.693 660.164,-709.72 660.757,-776.947"/>
<polygon fill="black" stroke="black" points="657.259,-777.203 660.847,-787.172 664.259,-777.141 657.259,-777.203"/>
</g>
<!-- Node0xf6df960&#45;&gt;Node0xf6de470 -->
<g id="edge25" class="edge"><title>Node0xf6df960&#45;&gt;Node0xf6de470</title>
<path fill="none" stroke="black" d="M473,-323.357C473,-314.829 473,-305.469 473,-295.798"/>
<polygon fill="black" stroke="black" points="476.5,-295.629 473,-285.629 469.5,-295.629 476.5,-295.629"/>
</g>
</g>
</svg>
