<?xml version="1.0" encoding="UTF-8" standalone="no"?>
<!DOCTYPE svg PUBLIC "-//W3C//DTD SVG 1.1//EN"
 "http://www.w3.org/Graphics/SVG/1.1/DTD/svg11.dtd">
<!-- Generated by graphviz version 2.38.0 (20140413.2041)
 -->
<!-- Title: Control&#45;flow graph for function &#39;function_41c0fd(*a1)&#39;. Pages: 1 -->
<svg width="415pt" height="428pt"
 viewBox="0.00 0.00 415.00 428.00" xmlns="http://www.w3.org/2000/svg" xmlns:xlink="http://www.w3.org/1999/xlink">
<g id="graph0" class="graph" transform="scale(1 1) rotate(0) translate(4 424)">
<title>Control&#45;flow graph for function &#39;function_41c0fd(*a1)&#39;.</title>
<polygon fill="white" stroke="none" points="-4,4 -4,-424 411,-424 411,4 -4,4"/>
<text text-anchor="middle" x="203.5" y="-7.8" font-family="Times,serif" font-size="14.00">Control&#45;flow graph for function &#39;function_41c0fd(*a1)&#39;.</text>
<!-- Node0xf6a5210 -->
<g id="node1" class="node"><title>Node0xf6a5210</title>
<polygon fill="none" stroke="black" points="174,-381.5 174,-419.5 233,-419.5 233,-381.5 174,-381.5"/>
<text text-anchor="start" x="182" y="-404.3" font-family="Times,serif" font-size="14.00">entry:</text>
<text text-anchor="start" x="182" y="-389.3" font-family="Times,serif" font-size="14.00"> a1</text>
</g>
<!-- Node0xf6a5050 -->
<g id="node2" class="node"><title>Node0xf6a5050</title>
<polygon fill="none" stroke="black" points="36,-96.5 36,-344.5 371,-344.5 371,-96.5 36,-96.5"/>
<text text-anchor="start" x="44" y="-329.3" font-family="Times,serif" font-size="14.00">v1</text>
<text text-anchor="start" x="44" y="-314.3" font-family="Times,serif" font-size="14.00"> v2</text>
<text text-anchor="start" x="44" y="-299.3" font-family="Times,serif" font-size="14.00"> v3</text>
<text text-anchor="start" x="44" y="-284.3" font-family="Times,serif" font-size="14.00"> v4</text>
<text text-anchor="start" x="44" y="-269.3" font-family="Times,serif" font-size="14.00"> v5</text>
<text text-anchor="start" x="44" y="-254.3" font-family="Times,serif" font-size="14.00"> v6</text>
<text text-anchor="start" x="44" y="-239.3" font-family="Times,serif" font-size="14.00"> v7</text>
<text text-anchor="start" x="44" y="-224.3" font-family="Times,serif" font-size="14.00"> v2 = v3</text>
<text text-anchor="start" x="44" y="-209.3" font-family="Times,serif" font-size="14.00"> v2 = a1</text>
<text text-anchor="start" x="44" y="-194.3" font-family="Times,serif" font-size="14.00"> v6 = PtrToIntCastExpr&lt;int32&gt;(a1)</text>
<text text-anchor="start" x="44" y="-179.3" font-family="Times,serif" font-size="14.00"> g2 = v6</text>
<text text-anchor="start" x="44" y="-164.3" font-family="Times,serif" font-size="14.00"> v7 = *(IntToPtrCastExpr&lt;ptr&gt;((v6 + 2)))</text>
<text text-anchor="start" x="44" y="-149.3" font-family="Times,serif" font-size="14.00"> v5 = (&amp;(a1[&#39;3&#39;]) if (v7 == &#45;1) else &amp;(a1[&#39;0&#39;]))</text>
<text text-anchor="start" x="44" y="-134.3" font-family="Times,serif" font-size="14.00"> v4 = *(v5)</text>
<text text-anchor="start" x="44" y="-119.3" font-family="Times,serif" font-size="14.00"> g2 = v4</text>
<text text-anchor="start" x="44" y="-104.3" font-family="Times,serif" font-size="14.00"> return (v4 &amp; 64)</text>
</g>
<!-- Node0xf6a5210&#45;&gt;Node0xf6a5050 -->
<g id="edge1" class="edge"><title>Node0xf6a5210&#45;&gt;Node0xf6a5050</title>
<path fill="none" stroke="black" d="M203.5,-381.453C203.5,-374.152 203.5,-365.044 203.5,-354.901"/>
<polygon fill="black" stroke="black" points="207,-354.885 203.5,-344.885 200,-354.885 207,-354.885"/>
</g>
<!-- Node0xf6a49d0 -->
<g id="node3" class="node"><title>Node0xf6a49d0</title>
<polygon fill="none" stroke="black" points="176.5,-23.5 176.5,-59.5 230.5,-59.5 230.5,-23.5 176.5,-23.5"/>
<text text-anchor="start" x="184.5" y="-37.8" font-family="Times,serif" font-size="14.00">exit:</text>
</g>
<!-- Node0xf6a5050&#45;&gt;Node0xf6a49d0 -->
<g id="edge2" class="edge"><title>Node0xf6a5050&#45;&gt;Node0xf6a49d0</title>
<path fill="none" stroke="black" d="M203.5,-96.0862C203.5,-86.536 203.5,-77.6318 203.5,-69.9315"/>
<polygon fill="black" stroke="black" points="207,-69.9051 203.5,-59.9051 200,-69.9052 207,-69.9051"/>
</g>
</g>
</svg>
