<?xml version="1.0" encoding="UTF-8" standalone="no"?>
<!DOCTYPE svg PUBLIC "-//W3C//DTD SVG 1.1//EN"
 "http://www.w3.org/Graphics/SVG/1.1/DTD/svg11.dtd">
<!-- Generated by graphviz version 2.38.0 (20140413.2041)
 -->
<!-- Title: Control&#45;flow graph for function &#39;function_41ae59(a1)&#39;. Pages: 1 -->
<svg width="1012pt" height="2728pt"
 viewBox="0.00 0.00 1012.00 2728.00" xmlns="http://www.w3.org/2000/svg" xmlns:xlink="http://www.w3.org/1999/xlink">
<g id="graph0" class="graph" transform="scale(1 1) rotate(0) translate(4 2724)">
<title>Control&#45;flow graph for function &#39;function_41ae59(a1)&#39;.</title>
<polygon fill="white" stroke="none" points="-4,4 -4,-2724 1008,-2724 1008,4 -4,4"/>
<text text-anchor="middle" x="502" y="-7.8" font-family="Times,serif" font-size="14.00">Control&#45;flow graph for function &#39;function_41ae59(a1)&#39;.</text>
<!-- Node0xf629a20 -->
<g id="node1" class="node"><title>Node0xf629a20</title>
<polygon fill="none" stroke="black" points="484,-2681.5 484,-2719.5 543,-2719.5 543,-2681.5 484,-2681.5"/>
<text text-anchor="start" x="492" y="-2704.3" font-family="Times,serif" font-size="14.00">entry:</text>
<text text-anchor="start" x="492" y="-2689.3" font-family="Times,serif" font-size="14.00"> a1</text>
</g>
<!-- Node0xf62c520 -->
<g id="node2" class="node"><title>Node0xf62c520</title>
<polygon fill="none" stroke="black" points="340.5,-1915.5 340.5,-2643.5 686.5,-2643.5 686.5,-1915.5 340.5,-1915.5"/>
<text text-anchor="start" x="348.5" y="-2628.3" font-family="Times,serif" font-size="14.00">v1</text>
<text text-anchor="start" x="348.5" y="-2613.3" font-family="Times,serif" font-size="14.00"> v2</text>
<text text-anchor="start" x="348.5" y="-2598.3" font-family="Times,serif" font-size="14.00"> v3</text>
<text text-anchor="start" x="348.5" y="-2583.3" font-family="Times,serif" font-size="14.00"> v4</text>
<text text-anchor="start" x="348.5" y="-2568.3" font-family="Times,serif" font-size="14.00"> v5</text>
<text text-anchor="start" x="348.5" y="-2553.3" font-family="Times,serif" font-size="14.00"> lpCriticalSection</text>
<text text-anchor="start" x="348.5" y="-2538.3" font-family="Times,serif" font-size="14.00"> v6</text>
<text text-anchor="start" x="348.5" y="-2523.3" font-family="Times,serif" font-size="14.00"> v7</text>
<text text-anchor="start" x="348.5" y="-2508.3" font-family="Times,serif" font-size="14.00"> hMem</text>
<text text-anchor="start" x="348.5" y="-2493.3" font-family="Times,serif" font-size="14.00"> v8</text>
<text text-anchor="start" x="348.5" y="-2478.3" font-family="Times,serif" font-size="14.00"> v9</text>
<text text-anchor="start" x="348.5" y="-2463.3" font-family="Times,serif" font-size="14.00"> v10</text>
<text text-anchor="start" x="348.5" y="-2448.3" font-family="Times,serif" font-size="14.00"> v11</text>
<text text-anchor="start" x="348.5" y="-2433.3" font-family="Times,serif" font-size="14.00"> v12</text>
<text text-anchor="start" x="348.5" y="-2418.3" font-family="Times,serif" font-size="14.00"> v13</text>
<text text-anchor="start" x="348.5" y="-2403.3" font-family="Times,serif" font-size="14.00"> v14</text>
<text text-anchor="start" x="348.5" y="-2388.3" font-family="Times,serif" font-size="14.00"> v15</text>
<text text-anchor="start" x="348.5" y="-2373.3" font-family="Times,serif" font-size="14.00"> v16</text>
<text text-anchor="start" x="348.5" y="-2358.3" font-family="Times,serif" font-size="14.00"> v17</text>
<text text-anchor="start" x="348.5" y="-2343.3" font-family="Times,serif" font-size="14.00"> v18</text>
<text text-anchor="start" x="348.5" y="-2328.3" font-family="Times,serif" font-size="14.00"> v19</text>
<text text-anchor="start" x="348.5" y="-2313.3" font-family="Times,serif" font-size="14.00"> v20</text>
<text text-anchor="start" x="348.5" y="-2298.3" font-family="Times,serif" font-size="14.00"> v21</text>
<text text-anchor="start" x="348.5" y="-2283.3" font-family="Times,serif" font-size="14.00"> v22</text>
<text text-anchor="start" x="348.5" y="-2268.3" font-family="Times,serif" font-size="14.00"> v23</text>
<text text-anchor="start" x="348.5" y="-2253.3" font-family="Times,serif" font-size="14.00"> v24</text>
<text text-anchor="start" x="348.5" y="-2238.3" font-family="Times,serif" font-size="14.00"> v25</text>
<text text-anchor="start" x="348.5" y="-2223.3" font-family="Times,serif" font-size="14.00"> dwTlsIndex</text>
<text text-anchor="start" x="348.5" y="-2208.3" font-family="Times,serif" font-size="14.00"> v26</text>
<text text-anchor="start" x="348.5" y="-2193.3" font-family="Times,serif" font-size="14.00"> v27</text>
<text text-anchor="start" x="348.5" y="-2178.3" font-family="Times,serif" font-size="14.00"> v28</text>
<text text-anchor="start" x="348.5" y="-2163.3" font-family="Times,serif" font-size="14.00"> v29</text>
<text text-anchor="start" x="348.5" y="-2148.3" font-family="Times,serif" font-size="14.00"> v30</text>
<text text-anchor="start" x="348.5" y="-2133.3" font-family="Times,serif" font-size="14.00"> v31</text>
<text text-anchor="start" x="348.5" y="-2118.3" font-family="Times,serif" font-size="14.00"> v32</text>
<text text-anchor="start" x="348.5" y="-2103.3" font-family="Times,serif" font-size="14.00"> v33</text>
<text text-anchor="start" x="348.5" y="-2088.3" font-family="Times,serif" font-size="14.00"> pMem</text>
<text text-anchor="start" x="348.5" y="-2073.3" font-family="Times,serif" font-size="14.00"> v12 = v13</text>
<text text-anchor="start" x="348.5" y="-2058.3" font-family="Times,serif" font-size="14.00"> v10 = v11</text>
<text text-anchor="start" x="348.5" y="-2043.3" font-family="Times,serif" font-size="14.00"> v16 = v17</text>
<text text-anchor="start" x="348.5" y="-2028.3" font-family="Times,serif" font-size="14.00"> v20 = g5</text>
<text text-anchor="start" x="348.5" y="-2013.3" font-family="Times,serif" font-size="14.00"> g9 = v20</text>
<text text-anchor="start" x="348.5" y="-1998.3" font-family="Times,serif" font-size="14.00"> v32 = *(IntToPtrCastExpr&lt;ptr&gt;((v20 + 20)))</text>
<text text-anchor="start" x="348.5" y="-1983.3" font-family="Times,serif" font-size="14.00"> g2 = v32</text>
<text text-anchor="start" x="348.5" y="-1968.3" font-family="Times,serif" font-size="14.00"> v21 = g7</text>
<text text-anchor="start" x="348.5" y="-1953.3" font-family="Times,serif" font-size="14.00"> v4 = IntToPtrCastExpr&lt;ptr&gt;(v21)</text>
<text text-anchor="start" x="348.5" y="-1938.3" font-family="Times,serif" font-size="14.00"> v16 = v4</text>
<text text-anchor="start" x="348.5" y="-1923.3" font-family="Times,serif" font-size="14.00"> v24 = v20</text>
</g>
<!-- Node0xf629a20&#45;&gt;Node0xf62c520 -->
<g id="edge1" class="edge"><title>Node0xf629a20&#45;&gt;Node0xf62c520</title>
<path fill="none" stroke="black" d="M513.5,-2681.5C513.5,-2674.11 513.5,-2664.67 513.5,-2653.64"/>
<polygon fill="black" stroke="black" points="517,-2653.54 513.5,-2643.54 510,-2653.54 517,-2653.54"/>
</g>
<!-- Node0xf62c000 -->
<g id="node3" class="node"><title>Node0xf62c000</title>
<polygon fill="none" stroke="black" points="459.5,-1841.5 459.5,-1877.5 567.5,-1877.5 567.5,-1841.5 459.5,-1841.5"/>
<text text-anchor="start" x="467.5" y="-1855.8" font-family="Times,serif" font-size="14.00">if (v32 != 0):</text>
</g>
<!-- Node0xf62c520&#45;&gt;Node0xf62c000 -->
<g id="edge2" class="edge"><title>Node0xf62c520&#45;&gt;Node0xf62c000</title>
<path fill="none" stroke="black" d="M513.5,-1915.15C513.5,-1904.75 513.5,-1895.5 513.5,-1887.71"/>
<polygon fill="black" stroke="black" points="517,-1887.68 513.5,-1877.68 510,-1887.68 517,-1887.68"/>
</g>
<!-- Node0xf62c7e0 -->
<g id="node4" class="node"><title>Node0xf62c7e0</title>
<polygon fill="none" stroke="black" points="326,-1721.5 326,-1789.5 421,-1789.5 421,-1721.5 326,-1721.5"/>
<text text-anchor="start" x="334" y="-1774.3" font-family="Times,serif" font-size="14.00">0x41ae64:</text>
<text text-anchor="start" x="334" y="-1759.3" font-family="Times,serif" font-size="14.00"> v2 = v4</text>
<text text-anchor="start" x="334" y="-1744.3" font-family="Times,serif" font-size="14.00"> v22 = v20</text>
<text text-anchor="start" x="334" y="-1729.3" font-family="Times,serif" font-size="14.00"> v27 = v32</text>
</g>
<!-- Node0xf62c000&#45;&gt;Node0xf62c7e0 -->
<g id="edge3" class="edge"><title>Node0xf62c000&#45;&gt;Node0xf62c7e0</title>
<path fill="none" stroke="black" d="M490.067,-1841.43C472.88,-1828.91 448.839,-1811.39 427.052,-1795.52"/>
<polygon fill="black" stroke="black" points="428.974,-1792.59 418.831,-1789.53 424.852,-1798.24 428.974,-1792.59"/>
<text text-anchor="middle" x="495" y="-1811.8" font-family="Times,serif" font-size="14.00">v32 != 0</text>
</g>
<!-- Node0x9432d40 -->
<g id="node5" class="node"><title>Node0x9432d40</title>
<polygon fill="none" stroke="black" points="439,-1721.5 439,-1789.5 792,-1789.5 792,-1721.5 439,-1721.5"/>
<text text-anchor="start" x="447" y="-1774.3" font-family="Times,serif" font-size="14.00">0x41ae77:</text>
<text text-anchor="start" x="447" y="-1759.3" font-family="Times,serif" font-size="14.00"> dwTlsIndex = *(IntToPtrCastExpr&lt;ptr&gt;(v24))</text>
<text text-anchor="start" x="447" y="-1744.3" font-family="Times,serif" font-size="14.00"> g2 = dwTlsIndex</text>
<text text-anchor="start" x="447" y="-1729.3" font-family="Times,serif" font-size="14.00"> v28 = v24</text>
</g>
<!-- Node0xf62c000&#45;&gt;Node0x9432d40 -->
<g id="edge4" class="edge"><title>Node0xf62c000&#45;&gt;Node0x9432d40</title>
<path fill="none" stroke="black" d="M530.803,-1841.2C542.917,-1829.08 559.621,-1812.38 574.995,-1797"/>
<polygon fill="black" stroke="black" points="577.814,-1799.14 582.41,-1789.59 572.864,-1794.19 577.814,-1799.14"/>
<text text-anchor="middle" x="595" y="-1811.8" font-family="Times,serif" font-size="14.00">v32 == 0</text>
</g>
<!-- Node0xf62d730 -->
<g id="node6" class="node"><title>Node0xf62d730</title>
<polygon fill="none" stroke="black" points="325,-1647.5 325,-1683.5 422,-1683.5 422,-1647.5 325,-1647.5"/>
<text text-anchor="start" x="333" y="-1661.8" font-family="Times,serif" font-size="14.00">while True:</text>
</g>
<!-- Node0xf62c7e0&#45;&gt;Node0xf62d730 -->
<g id="edge5" class="edge"><title>Node0xf62c7e0&#45;&gt;Node0xf62d730</title>
<path fill="none" stroke="black" d="M373.5,-1721.48C373.5,-1712.33 373.5,-1702.5 373.5,-1693.72"/>
<polygon fill="black" stroke="black" points="377,-1693.64 373.5,-1683.64 370,-1693.64 377,-1693.64"/>
</g>
<!-- Node0xf62c890 -->
<g id="node7" class="node"><title>Node0xf62c890</title>
<polygon fill="none" stroke="black" points="531,-1647.5 531,-1683.5 700,-1683.5 700,-1647.5 531,-1647.5"/>
<text text-anchor="start" x="539" y="-1661.8" font-family="Times,serif" font-size="14.00">if (dwTlsIndex != &#45;1):</text>
</g>
<!-- Node0x9432d40&#45;&gt;Node0xf62c890 -->
<g id="edge6" class="edge"><title>Node0x9432d40&#45;&gt;Node0xf62c890</title>
<path fill="none" stroke="black" d="M615.5,-1721.48C615.5,-1712.33 615.5,-1702.5 615.5,-1693.72"/>
<polygon fill="black" stroke="black" points="619,-1693.64 615.5,-1683.64 612,-1693.64 619,-1693.64"/>
</g>
<!-- Node0xf62d9d0 -->
<g id="node8" class="node"><title>Node0xf62d9d0</title>
<polygon fill="none" stroke="black" points="19,-1422.5 19,-1595.5 356,-1595.5 356,-1422.5 19,-1422.5"/>
<text text-anchor="start" x="27" y="-1580.3" font-family="Times,serif" font-size="14.00">0x41ae64:</text>
<text text-anchor="start" x="27" y="-1565.3" font-family="Times,serif" font-size="14.00"> v33 = *(IntToPtrCastExpr&lt;ptr&gt;((v27 + 4)))</text>
<text text-anchor="start" x="27" y="-1550.3" font-family="Times,serif" font-size="14.00"> g7 = v33</text>
<text text-anchor="start" x="27" y="-1535.3" font-family="Times,serif" font-size="14.00"> v10 = NULL</text>
<text text-anchor="start" x="27" y="-1520.3" font-family="Times,serif" font-size="14.00"> v5 = IntToPtrCastExpr&lt;ptr&gt;(v27)</text>
<text text-anchor="start" x="27" y="-1505.3" font-family="Times,serif" font-size="14.00"> v12 = v5</text>
<text text-anchor="start" x="27" y="-1490.3" font-family="Times,serif" font-size="14.00"> g5 = v22</text>
<text text-anchor="start" x="27" y="-1475.3" font-family="Times,serif" font-size="14.00"> function_41acb1(v5, NULL, v2)</text>
<text text-anchor="start" x="27" y="-1460.3" font-family="Times,serif" font-size="14.00"> v23 = g7</text>
<text text-anchor="start" x="27" y="-1445.3" font-family="Times,serif" font-size="14.00"> g2 = v23</text>
<text text-anchor="start" x="27" y="-1430.3" font-family="Times,serif" font-size="14.00"> v25 = g9</text>
</g>
<!-- Node0xf62d730&#45;&gt;Node0xf62d9d0 -->
<g id="edge7" class="edge"><title>Node0xf62d730&#45;&gt;Node0xf62d9d0</title>
<path fill="none" stroke="black" d="M352.884,-1647.38C338.9,-1635.76 319.203,-1619.4 298.257,-1602"/>
<polygon fill="black" stroke="black" points="300.42,-1599.25 290.492,-1595.55 295.948,-1604.63 300.42,-1599.25"/>
<text text-anchor="middle" x="346.5" y="-1617.8" font-family="Times,serif" font-size="14.00">True</text>
</g>
<!-- Node0xf62d7d0 -->
<g id="node9" class="node"><title>Node0xf62d7d0</title>
<polygon fill="none" stroke="black" points="419,-1467.5 419,-1550.5 754,-1550.5 754,-1467.5 419,-1467.5"/>
<text text-anchor="start" x="427" y="-1535.3" font-family="Times,serif" font-size="14.00">0x41ae7e:</text>
<text text-anchor="start" x="427" y="-1520.3" font-family="Times,serif" font-size="14.00"> v10 = IntToPtrCastExpr&lt;ptr&gt;(dwTlsIndex)</text>
<text text-anchor="start" x="427" y="-1505.3" font-family="Times,serif" font-size="14.00"> TlsFree(dwTlsIndex)</text>
<text text-anchor="start" x="427" y="-1490.3" font-family="Times,serif" font-size="14.00"> v29 = g9</text>
<text text-anchor="start" x="427" y="-1475.3" font-family="Times,serif" font-size="14.00"> v28 = v29</text>
</g>
<!-- Node0xf62c890&#45;&gt;Node0xf62d7d0 -->
<g id="edge8" class="edge"><title>Node0xf62c890&#45;&gt;Node0xf62d7d0</title>
<path fill="none" stroke="black" d="M612.286,-1647.38C608.377,-1626.55 601.605,-1590.48 595.982,-1560.52"/>
<polygon fill="black" stroke="black" points="599.41,-1559.81 594.125,-1550.62 592.53,-1561.1 599.41,-1559.81"/>
<text text-anchor="middle" x="669.5" y="-1617.8" font-family="Times,serif" font-size="14.00">dwTlsIndex != &#45;1</text>
</g>
<!-- Node0xf62d2c0 -->
<g id="node10" class="node"><title>Node0xf62d2c0</title>
<polygon fill="none" stroke="black" points="456,-1331.5 456,-1384.5 821,-1384.5 821,-1331.5 456,-1331.5"/>
<text text-anchor="start" x="464" y="-1369.3" font-family="Times,serif" font-size="14.00">0x41ae85:</text>
<text text-anchor="start" x="464" y="-1354.3" font-family="Times,serif" font-size="14.00"> pMem = *(IntToPtrCastExpr&lt;ptr&gt;((v28 + 16)))</text>
<text text-anchor="start" x="464" y="-1339.3" font-family="Times,serif" font-size="14.00"> g2 = pMem</text>
</g>
<!-- Node0xf62c890&#45;&gt;Node0xf62d2c0 -->
<g id="edge9" class="edge"><title>Node0xf62c890&#45;&gt;Node0xf62d2c0</title>
<path fill="none" stroke="black" d="M700.135,-1649.68C727.53,-1639.81 753.451,-1623.38 763.5,-1596 790.149,-1523.4 804.051,-1487.85 763.5,-1422 755.346,-1408.76 743.46,-1398.2 730.216,-1389.81"/>
<polygon fill="black" stroke="black" points="731.739,-1386.65 721.342,-1384.61 728.197,-1392.69 731.739,-1386.65"/>
<text text-anchor="middle" x="853.5" y="-1505.3" font-family="Times,serif" font-size="14.00">dwTlsIndex == &#45;1</text>
</g>
<!-- Node0xf62da70 -->
<g id="node11" class="node"><title>Node0xf62da70</title>
<polygon fill="none" stroke="black" points="150.5,-1339 150.5,-1377 258.5,-1377 258.5,-1339 150.5,-1339"/>
<text text-anchor="start" x="158.5" y="-1361.8" font-family="Times,serif" font-size="14.00">if (v23 != 0):</text>
<text text-anchor="start" x="158.5" y="-1346.8" font-family="Times,serif" font-size="14.00"> else:</text>
</g>
<!-- Node0xf62d9d0&#45;&gt;Node0xf62da70 -->
<g id="edge10" class="edge"><title>Node0xf62d9d0&#45;&gt;Node0xf62da70</title>
<path fill="none" stroke="black" d="M197.29,-1422.19C198.721,-1409.65 200.102,-1397.54 201.266,-1387.34"/>
<polygon fill="black" stroke="black" points="204.779,-1387.43 202.436,-1377.09 197.825,-1386.63 204.779,-1387.43"/>
</g>
<!-- Node0xf62d7d0&#45;&gt;Node0xf62d2c0 -->
<g id="edge11" class="edge"><title>Node0xf62d7d0&#45;&gt;Node0xf62d2c0</title>
<path fill="none" stroke="black" d="M600.709,-1467.29C608.689,-1444.42 618.548,-1416.17 626.195,-1394.26"/>
<polygon fill="black" stroke="black" points="629.548,-1395.27 629.539,-1384.68 622.939,-1392.97 629.548,-1395.27"/>
</g>
<!-- Node0xf62d320 -->
<g id="node12" class="node"><title>Node0xf62d320</title>
<polygon fill="none" stroke="black" points="574.5,-1211.5 574.5,-1249.5 702.5,-1249.5 702.5,-1211.5 574.5,-1211.5"/>
<text text-anchor="start" x="582.5" y="-1234.3" font-family="Times,serif" font-size="14.00">if (pMem != 0):</text>
<text text-anchor="start" x="582.5" y="-1219.3" font-family="Times,serif" font-size="14.00"> else:</text>
</g>
<!-- Node0xf62d2c0&#45;&gt;Node0xf62d320 -->
<g id="edge12" class="edge"><title>Node0xf62d2c0&#45;&gt;Node0xf62d320</title>
<path fill="none" stroke="black" d="M638.5,-1331.3C638.5,-1310.56 638.5,-1281.42 638.5,-1259.98"/>
<polygon fill="black" stroke="black" points="642,-1259.85 638.5,-1249.85 635,-1259.85 642,-1259.85"/>
</g>
<!-- Node0xf62ec30 -->
<g id="node13" class="node"><title>Node0xf62ec30</title>
<polygon fill="none" stroke="black" points="296,-1181.5 296,-1279.5 391,-1279.5 391,-1181.5 296,-1181.5"/>
<text text-anchor="start" x="304" y="-1264.3" font-family="Times,serif" font-size="14.00">0x41ae64:</text>
<text text-anchor="start" x="304" y="-1249.3" font-family="Times,serif" font-size="14.00"> v3 = v16</text>
<text text-anchor="start" x="304" y="-1234.3" font-family="Times,serif" font-size="14.00"> v2 = v3</text>
<text text-anchor="start" x="304" y="-1219.3" font-family="Times,serif" font-size="14.00"> v22 = v25</text>
<text text-anchor="start" x="304" y="-1204.3" font-family="Times,serif" font-size="14.00"> v27 = v23</text>
<text text-anchor="start" x="304" y="-1189.3" font-family="Times,serif" font-size="14.00"> continue</text>
</g>
<!-- Node0xf62da70&#45;&gt;Node0xf62ec30 -->
<g id="edge13" class="edge"><title>Node0xf62da70&#45;&gt;Node0xf62ec30</title>
<path fill="none" stroke="black" d="M239.98,-1338.93C252.486,-1331.73 266.227,-1322.81 277.5,-1313 286.21,-1305.42 294.655,-1296.59 302.432,-1287.6"/>
<polygon fill="black" stroke="black" points="305.329,-1289.59 309.084,-1279.69 299.97,-1285.09 305.329,-1289.59"/>
<text text-anchor="middle" x="324" y="-1301.8" font-family="Times,serif" font-size="14.00">v23 != 0</text>
</g>
<!-- Node0xf62ef20 -->
<g id="node14" class="node"><title>Node0xf62ef20</title>
<polygon fill="none" stroke="black" points="159.5,-1212.5 159.5,-1248.5 249.5,-1248.5 249.5,-1212.5 159.5,-1212.5"/>
<text text-anchor="start" x="167.5" y="-1226.8" font-family="Times,serif" font-size="14.00">v24 = v25</text>
</g>
<!-- Node0xf62da70&#45;&gt;Node0xf62ef20 -->
<g id="edge14" class="edge"><title>Node0xf62da70&#45;&gt;Node0xf62ef20</title>
<path fill="none" stroke="black" d="M204.5,-1338.75C204.5,-1317.76 204.5,-1283.09 204.5,-1258.87"/>
<polygon fill="black" stroke="black" points="208,-1258.56 204.5,-1248.56 201,-1258.56 208,-1258.56"/>
<text text-anchor="middle" x="239" y="-1301.8" font-family="Times,serif" font-size="14.00">v23 == 0</text>
</g>
<!-- Node0xf629290 -->
<g id="node15" class="node"><title>Node0xf629290</title>
<polygon fill="none" stroke="black" points="579,-986.5 579,-1129.5 1004,-1129.5 1004,-986.5 579,-986.5"/>
<text text-anchor="start" x="587" y="-1114.3" font-family="Times,serif" font-size="14.00">0x41ae8c:</text>
<text text-anchor="start" x="587" y="-1099.3" font-family="Times,serif" font-size="14.00"> v10 = IntToPtrCastExpr&lt;ptr&gt;(pMem)</text>
<text text-anchor="start" x="587" y="-1084.3" font-family="Times,serif" font-size="14.00"> hMem = GlobalHandle(IntToPtrCastExpr&lt;ptr&gt;(pMem))</text>
<text text-anchor="start" x="587" y="-1069.3" font-family="Times,serif" font-size="14.00"> v10 = BitCastExpr&lt;ptr&gt;(hMem)</text>
<text text-anchor="start" x="587" y="-1054.3" font-family="Times,serif" font-size="14.00"> GlobalUnlock(hMem)</text>
<text text-anchor="start" x="587" y="-1039.3" font-family="Times,serif" font-size="14.00"> v10 = BitCastExpr&lt;ptr&gt;(hMem)</text>
<text text-anchor="start" x="587" y="-1024.3" font-family="Times,serif" font-size="14.00"> GlobalFree(hMem)</text>
<text text-anchor="start" x="587" y="-1009.3" font-family="Times,serif" font-size="14.00"> v31 = g9</text>
<text text-anchor="start" x="587" y="-994.3" font-family="Times,serif" font-size="14.00"> v30 = v31</text>
</g>
<!-- Node0xf62d320&#45;&gt;Node0xf629290 -->
<g id="edge15" class="edge"><title>Node0xf62d320&#45;&gt;Node0xf629290</title>
<path fill="none" stroke="black" d="M654.874,-1211.25C670.869,-1193.43 696.339,-1165.05 720.977,-1137.59"/>
<polygon fill="black" stroke="black" points="723.821,-1139.66 727.895,-1129.88 718.611,-1134.99 723.821,-1139.66"/>
<text text-anchor="middle" x="750.5" y="-1151.8" font-family="Times,serif" font-size="14.00">pMem != 0</text>
</g>
<!-- Node0xf629410 -->
<g id="node16" class="node"><title>Node0xf629410</title>
<polygon fill="none" stroke="black" points="470.5,-1040 470.5,-1076 560.5,-1076 560.5,-1040 470.5,-1040"/>
<text text-anchor="start" x="478.5" y="-1054.3" font-family="Times,serif" font-size="14.00">v30 = v28</text>
</g>
<!-- Node0xf62d320&#45;&gt;Node0xf629410 -->
<g id="edge16" class="edge"><title>Node0xf62d320&#45;&gt;Node0xf629410</title>
<path fill="none" stroke="black" d="M622.158,-1211.38C610.624,-1198.29 595.053,-1180 582.5,-1163 563.494,-1137.26 543.922,-1106.27 530.877,-1084.84"/>
<polygon fill="black" stroke="black" points="533.706,-1082.76 525.538,-1076.01 527.716,-1086.38 533.706,-1082.76"/>
<text text-anchor="middle" x="626.5" y="-1151.8" font-family="Times,serif" font-size="14.00">pMem == 0</text>
</g>
<!-- Node0xf62ec30&#45;&gt;Node0xf62d730 -->
<g id="edge17" class="edge"><title>Node0xf62ec30&#45;&gt;Node0xf62d730</title>
<path fill="none" stroke="black" d="M356.197,-1279.6C357.49,-1285.76 358.642,-1292.01 359.5,-1298 377.472,-1423.5 375.957,-1575.48 374.396,-1636.84"/>
<polygon fill="black" stroke="black" points="370.887,-1637.12 374.108,-1647.21 377.884,-1637.31 370.887,-1637.12"/>
</g>
<!-- Node0x9435100 -->
<g id="node17" class="node"><title>Node0x9435100</title>
<polygon fill="none" stroke="black" points="28,-1024 28,-1092 381,-1092 381,-1024 28,-1024"/>
<text text-anchor="start" x="36" y="-1076.8" font-family="Times,serif" font-size="14.00">0x41ae77:</text>
<text text-anchor="start" x="36" y="-1061.8" font-family="Times,serif" font-size="14.00"> dwTlsIndex = *(IntToPtrCastExpr&lt;ptr&gt;(v24))</text>
<text text-anchor="start" x="36" y="-1046.8" font-family="Times,serif" font-size="14.00"> g2 = dwTlsIndex</text>
<text text-anchor="start" x="36" y="-1031.8" font-family="Times,serif" font-size="14.00"> v28 = v24</text>
</g>
<!-- Node0xf62ef20&#45;&gt;Node0x9435100 -->
<g id="edge18" class="edge"><title>Node0xf62ef20&#45;&gt;Node0x9435100</title>
<path fill="none" stroke="black" d="M204.5,-1212.21C204.5,-1186.63 204.5,-1137.88 204.5,-1102.22"/>
<polygon fill="black" stroke="black" points="208,-1102.07 204.5,-1092.07 201,-1102.07 208,-1102.07"/>
</g>
<!-- Node0xf62d5c0 -->
<g id="node18" class="node"><title>Node0xf62d5c0</title>
<polygon fill="none" stroke="black" points="474.5,-790.5 474.5,-948.5 838.5,-948.5 838.5,-790.5 474.5,-790.5"/>
<text text-anchor="start" x="482.5" y="-933.3" font-family="Times,serif" font-size="14.00">0x41aea3:</text>
<text text-anchor="start" x="482.5" y="-918.3" font-family="Times,serif" font-size="14.00"> v1 = (v30 + 28)</text>
<text text-anchor="start" x="482.5" y="-903.3" font-family="Times,serif" font-size="14.00"> g9 = v1</text>
<text text-anchor="start" x="482.5" y="-888.3" font-family="Times,serif" font-size="14.00"> lpCriticalSection = IntToPtrCastExpr&lt;ptr&gt;(v1)</text>
<text text-anchor="start" x="482.5" y="-873.3" font-family="Times,serif" font-size="14.00"> v10 = lpCriticalSection</text>
<text text-anchor="start" x="482.5" y="-858.3" font-family="Times,serif" font-size="14.00"> DeleteCriticalSection(lpCriticalSection)</text>
<text text-anchor="start" x="482.5" y="-843.3" font-family="Times,serif" font-size="14.00"> v26 = v16</text>
<text text-anchor="start" x="482.5" y="-828.3" font-family="Times,serif" font-size="14.00"> g7 = PtrToIntCastExpr&lt;int32&gt;(v26)</text>
<text text-anchor="start" x="482.5" y="-813.3" font-family="Times,serif" font-size="14.00"> g9 = v15</text>
<text text-anchor="start" x="482.5" y="-798.3" font-family="Times,serif" font-size="14.00"> return</text>
</g>
<!-- Node0xf629290&#45;&gt;Node0xf62d5c0 -->
<g id="edge19" class="edge"><title>Node0xf629290&#45;&gt;Node0xf62d5c0</title>
<path fill="none" stroke="black" d="M740.462,-986.492C733.462,-976.822 726.211,-966.804 719.034,-956.89"/>
<polygon fill="black" stroke="black" points="721.73,-954.645 713.031,-948.597 716.059,-958.749 721.73,-954.645"/>
</g>
<!-- Node0xf629410&#45;&gt;Node0xf62d5c0 -->
<g id="edge20" class="edge"><title>Node0xf629410&#45;&gt;Node0xf62d5c0</title>
<path fill="none" stroke="black" d="M528.512,-1039.79C542.969,-1020.67 567.404,-988.346 591.073,-957.039"/>
<polygon fill="black" stroke="black" points="594.154,-958.769 597.393,-948.681 588.57,-954.547 594.154,-958.769"/>
</g>
<!-- Node0xf62d620 -->
<g id="node19" class="node"><title>Node0xf62d620</title>
<polygon fill="none" stroke="black" points="120,-851.5 120,-887.5 289,-887.5 289,-851.5 120,-851.5"/>
<text text-anchor="start" x="128" y="-865.8" font-family="Times,serif" font-size="14.00">if (dwTlsIndex != &#45;1):</text>
</g>
<!-- Node0x9435100&#45;&gt;Node0xf62d620 -->
<g id="edge21" class="edge"><title>Node0x9435100&#45;&gt;Node0xf62d620</title>
<path fill="none" stroke="black" d="M204.5,-1023.66C204.5,-987.887 204.5,-931.722 204.5,-898.265"/>
<polygon fill="black" stroke="black" points="208,-897.852 204.5,-887.852 201,-897.852 208,-897.852"/>
</g>
<!-- Node0xf62a140 -->
<g id="node20" class="node"><title>Node0xf62a140</title>
<polygon fill="none" stroke="black" points="562.5,-23.5 562.5,-59.5 616.5,-59.5 616.5,-23.5 562.5,-23.5"/>
<text text-anchor="start" x="570.5" y="-37.8" font-family="Times,serif" font-size="14.00">exit:</text>
</g>
<!-- Node0xf62d5c0&#45;&gt;Node0xf62a140 -->
<g id="edge22" class="edge"><title>Node0xf62d5c0&#45;&gt;Node0xf62a140</title>
<path fill="none" stroke="black" d="M656.5,-790.411C656.5,-761.393 656.5,-728.193 656.5,-698 656.5,-698 656.5,-698 656.5,-175.5 656.5,-134.385 630.647,-93.0292 611.059,-67.5969"/>
<polygon fill="black" stroke="black" points="613.667,-65.2533 604.703,-59.6058 608.189,-69.6108 613.667,-65.2533"/>
</g>
<!-- Node0xf62efb0 -->
<g id="node21" class="node"><title>Node0xf62efb0</title>
<polygon fill="none" stroke="black" points="291,-655.5 291,-738.5 626,-738.5 626,-655.5 291,-655.5"/>
<text text-anchor="start" x="299" y="-723.3" font-family="Times,serif" font-size="14.00">0x41ae7e:</text>
<text text-anchor="start" x="299" y="-708.3" font-family="Times,serif" font-size="14.00"> v10 = IntToPtrCastExpr&lt;ptr&gt;(dwTlsIndex)</text>
<text text-anchor="start" x="299" y="-693.3" font-family="Times,serif" font-size="14.00"> TlsFree(dwTlsIndex)</text>
<text text-anchor="start" x="299" y="-678.3" font-family="Times,serif" font-size="14.00"> v29 = g9</text>
<text text-anchor="start" x="299" y="-663.3" font-family="Times,serif" font-size="14.00"> v28 = v29</text>
</g>
<!-- Node0xf62d620&#45;&gt;Node0xf62efb0 -->
<g id="edge23" class="edge"><title>Node0xf62d620&#45;&gt;Node0xf62efb0</title>
<path fill="none" stroke="black" d="M230.253,-851.213C267.229,-826.393 336.698,-779.761 389.325,-744.435"/>
<polygon fill="black" stroke="black" points="391.597,-747.125 397.949,-738.646 387.695,-741.313 391.597,-747.125"/>
<text text-anchor="middle" x="430.5" y="-760.8" font-family="Times,serif" font-size="14.00">dwTlsIndex != &#45;1</text>
</g>
<!-- Node0xf62cfe0 -->
<g id="node22" class="node"><title>Node0xf62cfe0</title>
<polygon fill="none" stroke="black" points="0,-564.5 0,-617.5 365,-617.5 365,-564.5 0,-564.5"/>
<text text-anchor="start" x="8" y="-602.3" font-family="Times,serif" font-size="14.00">0x41ae85:</text>
<text text-anchor="start" x="8" y="-587.3" font-family="Times,serif" font-size="14.00"> pMem = *(IntToPtrCastExpr&lt;ptr&gt;((v28 + 16)))</text>
<text text-anchor="start" x="8" y="-572.3" font-family="Times,serif" font-size="14.00"> g2 = pMem</text>
</g>
<!-- Node0xf62d620&#45;&gt;Node0xf62cfe0 -->
<g id="edge24" class="edge"><title>Node0xf62d620&#45;&gt;Node0xf62cfe0</title>
<path fill="none" stroke="black" d="M194.845,-851.168C181.958,-826.945 159.799,-781.19 151.5,-739 144.294,-702.369 143.038,-691.362 151.5,-655 153.735,-645.395 157.653,-635.569 161.968,-626.622"/>
<polygon fill="black" stroke="black" points="165.113,-628.157 166.553,-617.661 158.882,-624.969 165.113,-628.157"/>
<text text-anchor="middle" x="216.5" y="-693.3" font-family="Times,serif" font-size="14.00">dwTlsIndex == &#45;1</text>
</g>
<!-- Node0xf62efb0&#45;&gt;Node0xf62cfe0 -->
<g id="edge25" class="edge"><title>Node0xf62efb0&#45;&gt;Node0xf62cfe0</title>
<path fill="none" stroke="black" d="M351.001,-655.493C320.54,-644.015 287.992,-631.75 259.703,-621.091"/>
<polygon fill="black" stroke="black" points="260.874,-617.792 250.282,-617.541 258.406,-624.342 260.874,-617.792"/>
</g>
<!-- Node0xf62d0d0 -->
<g id="node23" class="node"><title>Node0xf62d0d0</title>
<polygon fill="none" stroke="black" points="118.5,-488.5 118.5,-526.5 246.5,-526.5 246.5,-488.5 118.5,-488.5"/>
<text text-anchor="start" x="126.5" y="-511.3" font-family="Times,serif" font-size="14.00">if (pMem != 0):</text>
<text text-anchor="start" x="126.5" y="-496.3" font-family="Times,serif" font-size="14.00"> else:</text>
</g>
<!-- Node0xf62cfe0&#45;&gt;Node0xf62d0d0 -->
<g id="edge26" class="edge"><title>Node0xf62cfe0&#45;&gt;Node0xf62d0d0</title>
<path fill="none" stroke="black" d="M182.5,-564.213C182.5,-555.526 182.5,-545.787 182.5,-536.91"/>
<polygon fill="black" stroke="black" points="186,-536.638 182.5,-526.638 179,-536.638 186,-536.638"/>
</g>
<!-- Node0xf62f140 -->
<g id="node24" class="node"><title>Node0xf62f140</title>
<polygon fill="none" stroke="black" points="203,-293.5 203,-436.5 628,-436.5 628,-293.5 203,-293.5"/>
<text text-anchor="start" x="211" y="-421.3" font-family="Times,serif" font-size="14.00">0x41ae8c:</text>
<text text-anchor="start" x="211" y="-406.3" font-family="Times,serif" font-size="14.00"> v10 = IntToPtrCastExpr&lt;ptr&gt;(pMem)</text>
<text text-anchor="start" x="211" y="-391.3" font-family="Times,serif" font-size="14.00"> hMem = GlobalHandle(IntToPtrCastExpr&lt;ptr&gt;(pMem))</text>
<text text-anchor="start" x="211" y="-376.3" font-family="Times,serif" font-size="14.00"> v10 = BitCastExpr&lt;ptr&gt;(hMem)</text>
<text text-anchor="start" x="211" y="-361.3" font-family="Times,serif" font-size="14.00"> GlobalUnlock(hMem)</text>
<text text-anchor="start" x="211" y="-346.3" font-family="Times,serif" font-size="14.00"> v10 = BitCastExpr&lt;ptr&gt;(hMem)</text>
<text text-anchor="start" x="211" y="-331.3" font-family="Times,serif" font-size="14.00"> GlobalFree(hMem)</text>
<text text-anchor="start" x="211" y="-316.3" font-family="Times,serif" font-size="14.00"> v31 = g9</text>
<text text-anchor="start" x="211" y="-301.3" font-family="Times,serif" font-size="14.00"> v30 = v31</text>
</g>
<!-- Node0xf62d0d0&#45;&gt;Node0xf62f140 -->
<g id="edge27" class="edge"><title>Node0xf62d0d0&#45;&gt;Node0xf62f140</title>
<path fill="none" stroke="black" d="M226.496,-488.372C238.697,-482.891 251.8,-476.571 263.5,-470 278.532,-461.558 293.974,-452.059 308.988,-442.322"/>
<polygon fill="black" stroke="black" points="311.324,-444.975 317.772,-436.568 307.489,-439.12 311.324,-444.975"/>
<text text-anchor="middle" x="326.5" y="-458.8" font-family="Times,serif" font-size="14.00">pMem != 0</text>
</g>
<!-- Node0xf62f450 -->
<g id="node25" class="node"><title>Node0xf62f450</title>
<polygon fill="none" stroke="black" points="94.5,-347 94.5,-383 184.5,-383 184.5,-347 94.5,-347"/>
<text text-anchor="start" x="102.5" y="-361.3" font-family="Times,serif" font-size="14.00">v30 = v28</text>
</g>
<!-- Node0xf62d0d0&#45;&gt;Node0xf62f450 -->
<g id="edge28" class="edge"><title>Node0xf62d0d0&#45;&gt;Node0xf62f450</title>
<path fill="none" stroke="black" d="M176.967,-488.42C169.532,-464.129 156.263,-420.772 147.676,-392.713"/>
<polygon fill="black" stroke="black" points="151.016,-391.669 144.743,-383.131 144.323,-393.718 151.016,-391.669"/>
<text text-anchor="middle" x="215.5" y="-458.8" font-family="Times,serif" font-size="14.00">pMem == 0</text>
</g>
<!-- Node0xf62e880 -->
<g id="node26" class="node"><title>Node0xf62e880</title>
<polygon fill="none" stroke="black" points="233.5,-97.5 233.5,-255.5 597.5,-255.5 597.5,-97.5 233.5,-97.5"/>
<text text-anchor="start" x="241.5" y="-240.3" font-family="Times,serif" font-size="14.00">0x41aea3:</text>
<text text-anchor="start" x="241.5" y="-225.3" font-family="Times,serif" font-size="14.00"> v1 = (v30 + 28)</text>
<text text-anchor="start" x="241.5" y="-210.3" font-family="Times,serif" font-size="14.00"> g9 = v1</text>
<text text-anchor="start" x="241.5" y="-195.3" font-family="Times,serif" font-size="14.00"> lpCriticalSection = IntToPtrCastExpr&lt;ptr&gt;(v1)</text>
<text text-anchor="start" x="241.5" y="-180.3" font-family="Times,serif" font-size="14.00"> v10 = lpCriticalSection</text>
<text text-anchor="start" x="241.5" y="-165.3" font-family="Times,serif" font-size="14.00"> DeleteCriticalSection(lpCriticalSection)</text>
<text text-anchor="start" x="241.5" y="-150.3" font-family="Times,serif" font-size="14.00"> v26 = v16</text>
<text text-anchor="start" x="241.5" y="-135.3" font-family="Times,serif" font-size="14.00"> g7 = PtrToIntCastExpr&lt;int32&gt;(v26)</text>
<text text-anchor="start" x="241.5" y="-120.3" font-family="Times,serif" font-size="14.00"> g9 = v15</text>
<text text-anchor="start" x="241.5" y="-105.3" font-family="Times,serif" font-size="14.00"> return</text>
</g>
<!-- Node0xf62f140&#45;&gt;Node0xf62e880 -->
<g id="edge29" class="edge"><title>Node0xf62f140&#45;&gt;Node0xf62e880</title>
<path fill="none" stroke="black" d="M415.5,-293.492C415.5,-284.402 415.5,-275.005 415.5,-265.675"/>
<polygon fill="black" stroke="black" points="419,-265.597 415.5,-255.597 412,-265.597 419,-265.597"/>
</g>
<!-- Node0xf62f450&#45;&gt;Node0xf62e880 -->
<g id="edge30" class="edge"><title>Node0xf62f450&#45;&gt;Node0xf62e880</title>
<path fill="none" stroke="black" d="M149.512,-346.788C159.219,-331.232 175.143,-308.467 193.5,-293 207.026,-281.604 221.865,-270.911 237.256,-260.986"/>
<polygon fill="black" stroke="black" points="239.273,-263.852 245.859,-255.552 235.535,-257.934 239.273,-263.852"/>
</g>
<!-- Node0xf62e880&#45;&gt;Node0xf62a140 -->
<g id="edge31" class="edge"><title>Node0xf62e880&#45;&gt;Node0xf62a140</title>
<path fill="none" stroke="black" d="M517.723,-97.3641C532.724,-85.898 547.101,-74.9084 558.996,-65.8163"/>
<polygon fill="black" stroke="black" points="561.373,-68.4051 567.192,-59.5516 557.122,-62.8437 561.373,-68.4051"/>
</g>
</g>
</svg>
