<?xml version="1.0" encoding="UTF-8" standalone="no"?>
<!DOCTYPE svg PUBLIC "-//W3C//DTD SVG 1.1//EN"
 "http://www.w3.org/Graphics/SVG/1.1/DTD/svg11.dtd">
<!-- Generated by graphviz version 2.38.0 (20140413.2041)
 -->
<!-- Title: Control&#45;flow graph for function &#39;function_427f0d(*a1, *a2)&#39;. Pages: 1 -->
<svg width="767pt" height="687pt"
 viewBox="0.00 0.00 767.00 687.00" xmlns="http://www.w3.org/2000/svg" xmlns:xlink="http://www.w3.org/1999/xlink">
<g id="graph0" class="graph" transform="scale(1 1) rotate(0) translate(4 683)">
<title>Control&#45;flow graph for function &#39;function_427f0d(*a1, *a2)&#39;.</title>
<polygon fill="white" stroke="none" points="-4,4 -4,-683 763,-683 763,4 -4,4"/>
<text text-anchor="middle" x="379.5" y="-7.8" font-family="Times,serif" font-size="14.00">Control&#45;flow graph for function &#39;function_427f0d(*a1, *a2)&#39;.</text>
<!-- Node0xfe7fa10 -->
<g id="node1" class="node"><title>Node0xfe7fa10</title>
<polygon fill="none" stroke="black" points="342.5,-625.5 342.5,-678.5 401.5,-678.5 401.5,-625.5 342.5,-625.5"/>
<text text-anchor="start" x="350.5" y="-663.3" font-family="Times,serif" font-size="14.00">entry:</text>
<text text-anchor="start" x="350.5" y="-648.3" font-family="Times,serif" font-size="14.00"> a1</text>
<text text-anchor="start" x="350.5" y="-633.3" font-family="Times,serif" font-size="14.00"> a2</text>
</g>
<!-- Node0xfe83e70 -->
<g id="node2" class="node"><title>Node0xfe83e70</title>
<polygon fill="none" stroke="black" points="104,-384.5 104,-587.5 640,-587.5 640,-384.5 104,-384.5"/>
<text text-anchor="start" x="112" y="-572.3" font-family="Times,serif" font-size="14.00">v1</text>
<text text-anchor="start" x="112" y="-557.3" font-family="Times,serif" font-size="14.00"> v2</text>
<text text-anchor="start" x="112" y="-542.3" font-family="Times,serif" font-size="14.00"> v3</text>
<text text-anchor="start" x="112" y="-527.3" font-family="Times,serif" font-size="14.00"> v4</text>
<text text-anchor="start" x="112" y="-512.3" font-family="Times,serif" font-size="14.00"> v5</text>
<text text-anchor="start" x="112" y="-497.3" font-family="Times,serif" font-size="14.00"> v6</text>
<text text-anchor="start" x="112" y="-482.3" font-family="Times,serif" font-size="14.00"> v7</text>
<text text-anchor="start" x="112" y="-467.3" font-family="Times,serif" font-size="14.00"> v8</text>
<text text-anchor="start" x="112" y="-452.3" font-family="Times,serif" font-size="14.00"> v9</text>
<text text-anchor="start" x="112" y="-437.3" font-family="Times,serif" font-size="14.00"> v5 = v6</text>
<text text-anchor="start" x="112" y="-422.3" font-family="Times,serif" font-size="14.00"> v5 = a1</text>
<text text-anchor="start" x="112" y="-407.3" font-family="Times,serif" font-size="14.00"> v8 = g5</text>
<text text-anchor="start" x="112" y="-392.3" font-family="Times,serif" font-size="14.00"> *(IntToPtrCastExpr&lt;ptr&gt;((v8 + 116))) = PtrToIntCastExpr&lt;int32&gt;(a1)</text>
</g>
<!-- Node0xfe7fa10&#45;&gt;Node0xfe83e70 -->
<g id="edge1" class="edge"><title>Node0xfe7fa10&#45;&gt;Node0xfe83e70</title>
<path fill="none" stroke="black" d="M372,-625.375C372,-617.402 372,-608.051 372,-598.037"/>
<polygon fill="black" stroke="black" points="375.5,-597.828 372,-587.828 368.5,-597.828 375.5,-597.828"/>
</g>
<!-- Node0xfe844d0 -->
<g id="node3" class="node"><title>Node0xfe844d0</title>
<polygon fill="none" stroke="black" points="230.5,-308.5 230.5,-346.5 513.5,-346.5 513.5,-308.5 230.5,-308.5"/>
<text text-anchor="start" x="238.5" y="-331.3" font-family="Times,serif" font-size="14.00">if (a1 != IntToPtrCastExpr&lt;ptr&gt;(1)):</text>
<text text-anchor="start" x="238.5" y="-316.3" font-family="Times,serif" font-size="14.00"> else:</text>
</g>
<!-- Node0xfe83e70&#45;&gt;Node0xfe844d0 -->
<g id="edge2" class="edge"><title>Node0xfe83e70&#45;&gt;Node0xfe844d0</title>
<path fill="none" stroke="black" d="M372,-384.117C372,-374.358 372,-365.113 372,-357.064"/>
<polygon fill="black" stroke="black" points="375.5,-356.893 372,-346.893 368.5,-356.894 375.5,-356.893"/>
</g>
<!-- Node0x4b64b30 -->
<g id="node4" class="node"><title>Node0x4b64b30</title>
<polygon fill="none" stroke="black" points="0,-173.5 0,-256.5 402,-256.5 402,-173.5 0,-173.5"/>
<text text-anchor="start" x="8" y="-241.3" font-family="Times,serif" font-size="14.00">0x427f19:</text>
<text text-anchor="start" x="8" y="-226.3" font-family="Times,serif" font-size="14.00"> v9 = (2 if (a1 == IntToPtrCastExpr&lt;ptr&gt;(2)) else &#45;1)</text>
<text text-anchor="start" x="8" y="-211.3" font-family="Times,serif" font-size="14.00"> g5 = v9</text>
<text text-anchor="start" x="8" y="-196.3" font-family="Times,serif" font-size="14.00"> v2 = IntToPtrCastExpr&lt;ptr&gt;(v9)</text>
<text text-anchor="start" x="8" y="-181.3" font-family="Times,serif" font-size="14.00"> v3 = v2</text>
</g>
<!-- Node0xfe844d0&#45;&gt;Node0x4b64b30 -->
<g id="edge3" class="edge"><title>Node0xfe844d0&#45;&gt;Node0x4b64b30</title>
<path fill="none" stroke="black" d="M299.271,-308.396C286.59,-303.529 273.966,-297.474 263,-290 252.829,-283.068 243.392,-274.023 235.104,-264.649"/>
<polygon fill="black" stroke="black" points="237.547,-262.117 228.421,-256.736 232.199,-266.634 237.547,-262.117"/>
<text text-anchor="middle" x="382" y="-278.8" font-family="Times,serif" font-size="14.00">a1 != IntToPtrCastExpr&lt;ptr&gt;(1)</text>
</g>
<!-- Node0xfe84870 -->
<g id="node5" class="node"><title>Node0xfe84870</title>
<polygon fill="none" stroke="black" points="420,-197 420,-233 668,-233 668,-197 420,-197"/>
<text text-anchor="start" x="428" y="-211.3" font-family="Times,serif" font-size="14.00">v3 = IntToPtrCastExpr&lt;ptr&gt;(1)</text>
</g>
<!-- Node0xfe844d0&#45;&gt;Node0xfe84870 -->
<g id="edge4" class="edge"><title>Node0xfe844d0&#45;&gt;Node0xfe84870</title>
<path fill="none" stroke="black" d="M467.988,-308.448C479.804,-303.673 491.163,-297.635 501,-290 516.552,-277.928 527.525,-258.529 534.492,-242.621"/>
<polygon fill="black" stroke="black" points="537.773,-243.845 538.317,-233.264 531.293,-241.196 537.773,-243.845"/>
<text text-anchor="middle" x="637" y="-278.8" font-family="Times,serif" font-size="14.00">a1 == IntToPtrCastExpr&lt;ptr&gt;(1)</text>
</g>
<!-- Node0xfe84720 -->
<g id="node6" class="node"><title>Node0xfe84720</title>
<polygon fill="none" stroke="black" points="268,-97.5 268,-135.5 556,-135.5 556,-97.5 268,-97.5"/>
<text text-anchor="start" x="276" y="-120.3" font-family="Times,serif" font-size="14.00">0x427f28:</text>
<text text-anchor="start" x="276" y="-105.3" font-family="Times,serif" font-size="14.00"> return PtrToIntCastExpr&lt;int32&gt;(v3)</text>
</g>
<!-- Node0x4b64b30&#45;&gt;Node0xfe84720 -->
<g id="edge5" class="edge"><title>Node0x4b64b30&#45;&gt;Node0xfe84720</title>
<path fill="none" stroke="black" d="M289.566,-173.495C314.715,-161.993 341.183,-149.888 363.05,-139.887"/>
<polygon fill="black" stroke="black" points="364.798,-142.936 372.436,-135.594 361.887,-136.571 364.798,-142.936"/>
</g>
<!-- Node0xfe84870&#45;&gt;Node0xfe84720 -->
<g id="edge6" class="edge"><title>Node0xfe84870&#45;&gt;Node0xfe84720</title>
<path fill="none" stroke="black" d="M520.705,-196.97C499.743,-181.646 468.709,-158.958 445.161,-141.742"/>
<polygon fill="black" stroke="black" points="446.994,-138.748 436.856,-135.671 442.863,-144.399 446.994,-138.748"/>
</g>
<!-- Node0xfe83df0 -->
<g id="node7" class="node"><title>Node0xfe83df0</title>
<polygon fill="none" stroke="black" points="385,-23.5 385,-59.5 439,-59.5 439,-23.5 385,-23.5"/>
<text text-anchor="start" x="393" y="-37.8" font-family="Times,serif" font-size="14.00">exit:</text>
</g>
<!-- Node0xfe84720&#45;&gt;Node0xfe83df0 -->
<g id="edge7" class="edge"><title>Node0xfe84720&#45;&gt;Node0xfe83df0</title>
<path fill="none" stroke="black" d="M412,-97.4551C412,-89.2008 412,-79.2377 412,-70.0742"/>
<polygon fill="black" stroke="black" points="415.5,-69.8347 412,-59.8347 408.5,-69.8347 415.5,-69.8347"/>
</g>
</g>
</svg>
