<?xml version="1.0" encoding="UTF-8" standalone="no"?>
<!DOCTYPE svg PUBLIC "-//W3C//DTD SVG 1.1//EN"
 "http://www.w3.org/Graphics/SVG/1.1/DTD/svg11.dtd">
<!-- Generated by graphviz version 2.38.0 (20140413.2041)
 -->
<!-- Title: Control&#45;flow graph for function &#39;function_4024f0(*a1)&#39;. Pages: 1 -->
<svg width="690pt" height="745pt"
 viewBox="0.00 0.00 690.00 745.00" xmlns="http://www.w3.org/2000/svg" xmlns:xlink="http://www.w3.org/1999/xlink">
<g id="graph0" class="graph" transform="scale(1 1) rotate(0) translate(4 741)">
<title>Control&#45;flow graph for function &#39;function_4024f0(*a1)&#39;.</title>
<polygon fill="white" stroke="none" points="-4,4 -4,-741 686,-741 686,4 -4,4"/>
<text text-anchor="middle" x="341" y="-7.8" font-family="Times,serif" font-size="14.00">Control&#45;flow graph for function &#39;function_4024f0(*a1)&#39;.</text>
<!-- Node0xf0003b0 -->
<g id="node1" class="node"><title>Node0xf0003b0</title>
<polygon fill="none" stroke="black" points="157.5,-698.5 157.5,-736.5 216.5,-736.5 216.5,-698.5 157.5,-698.5"/>
<text text-anchor="start" x="165.5" y="-721.3" font-family="Times,serif" font-size="14.00">entry:</text>
<text text-anchor="start" x="165.5" y="-706.3" font-family="Times,serif" font-size="14.00"> a1</text>
</g>
<!-- Node0xf0007f0 -->
<g id="node2" class="node"><title>Node0xf0007f0</title>
<polygon fill="none" stroke="black" points="49,-412.5 49,-660.5 325,-660.5 325,-412.5 49,-412.5"/>
<text text-anchor="start" x="57" y="-645.3" font-family="Times,serif" font-size="14.00">v1</text>
<text text-anchor="start" x="57" y="-630.3" font-family="Times,serif" font-size="14.00"> result</text>
<text text-anchor="start" x="57" y="-615.3" font-family="Times,serif" font-size="14.00"> v2</text>
<text text-anchor="start" x="57" y="-600.3" font-family="Times,serif" font-size="14.00"> v3</text>
<text text-anchor="start" x="57" y="-585.3" font-family="Times,serif" font-size="14.00"> v4</text>
<text text-anchor="start" x="57" y="-570.3" font-family="Times,serif" font-size="14.00"> v5</text>
<text text-anchor="start" x="57" y="-555.3" font-family="Times,serif" font-size="14.00"> v6</text>
<text text-anchor="start" x="57" y="-540.3" font-family="Times,serif" font-size="14.00"> v7</text>
<text text-anchor="start" x="57" y="-525.3" font-family="Times,serif" font-size="14.00"> v8</text>
<text text-anchor="start" x="57" y="-510.3" font-family="Times,serif" font-size="14.00"> v9</text>
<text text-anchor="start" x="57" y="-495.3" font-family="Times,serif" font-size="14.00"> v2 = v3</text>
<text text-anchor="start" x="57" y="-480.3" font-family="Times,serif" font-size="14.00"> v5 = v6</text>
<text text-anchor="start" x="57" y="-465.3" font-family="Times,serif" font-size="14.00"> v5 = a1</text>
<text text-anchor="start" x="57" y="-450.3" font-family="Times,serif" font-size="14.00"> v9 = PtrToIntCastExpr&lt;int32&gt;(a1)</text>
<text text-anchor="start" x="57" y="-435.3" font-family="Times,serif" font-size="14.00"> g2 = v9</text>
<text text-anchor="start" x="57" y="-420.3" font-family="Times,serif" font-size="14.00"> v7 = v9</text>
</g>
<!-- Node0xf0003b0&#45;&gt;Node0xf0007f0 -->
<g id="edge1" class="edge"><title>Node0xf0003b0&#45;&gt;Node0xf0007f0</title>
<path fill="none" stroke="black" d="M187,-698.351C187,-690.875 187,-681.514 187,-671.088"/>
<polygon fill="black" stroke="black" points="190.5,-670.794 187,-660.794 183.5,-670.794 190.5,-670.794"/>
</g>
<!-- Node0xf0004f0 -->
<g id="node3" class="node"><title>Node0xf0004f0</title>
<polygon fill="none" stroke="black" points="-2.84217e-14,-338.5 -2.84217e-14,-374.5 374,-374.5 374,-338.5 -2.84217e-14,-338.5"/>
<text text-anchor="start" x="8" y="-352.8" font-family="Times,serif" font-size="14.00">if (a1 == IntToPtrCastExpr&lt;ptr&gt;(&#45;2147024882)):</text>
</g>
<!-- Node0xf0007f0&#45;&gt;Node0xf0004f0 -->
<g id="edge2" class="edge"><title>Node0xf0007f0&#45;&gt;Node0xf0004f0</title>
<path fill="none" stroke="black" d="M187,-412.358C187,-402.332 187,-392.986 187,-384.952"/>
<polygon fill="black" stroke="black" points="190.5,-384.869 187,-374.869 183.5,-384.869 190.5,-384.869"/>
</g>
<!-- Node0xefd0d00 -->
<g id="node4" class="node"><title>Node0xefd0d00</title>
<polygon fill="none" stroke="black" points="22,-218.5 22,-286.5 218,-286.5 218,-218.5 22,-218.5"/>
<text text-anchor="start" x="30" y="-271.3" font-family="Times,serif" font-size="14.00">0x4024fb:</text>
<text text-anchor="start" x="30" y="-256.3" font-family="Times,serif" font-size="14.00"> function_41787d(NULL)</text>
<text text-anchor="start" x="30" y="-241.3" font-family="Times,serif" font-size="14.00"> v8 = g2</text>
<text text-anchor="start" x="30" y="-226.3" font-family="Times,serif" font-size="14.00"> v7 = v8</text>
</g>
<!-- Node0xf0004f0&#45;&gt;Node0xefd0d00 -->
<g id="edge3" class="edge"><title>Node0xf0004f0&#45;&gt;Node0xefd0d00</title>
<path fill="none" stroke="black" d="M53.8606,-338.468C36.3049,-333.694 22.2196,-327.643 16,-320 8.02569,-310.2 9.2394,-301.387 15.8323,-293.626"/>
<polygon fill="black" stroke="black" points="18.279,-296.132 23.2899,-286.797 13.5513,-290.969 18.279,-296.132"/>
<text text-anchor="middle" x="180.5" y="-308.8" font-family="Times,serif" font-size="14.00">a1 == IntToPtrCastExpr&lt;ptr&gt;(&#45;2147024882)</text>
</g>
<!-- Node0xefd0c10 -->
<g id="node5" class="node"><title>Node0xefd0c10</title>
<polygon fill="none" stroke="black" points="163,-97.5 163,-180.5 423,-180.5 423,-97.5 163,-97.5"/>
<text text-anchor="start" x="171" y="-165.3" font-family="Times,serif" font-size="14.00">0x402500:</text>
<text text-anchor="start" x="171" y="-150.3" font-family="Times,serif" font-size="14.00"> v2 = IntToPtrCastExpr&lt;ptr&gt;(v7)</text>
<text text-anchor="start" x="171" y="-135.3" font-family="Times,serif" font-size="14.00"> function_417675()</text>
<text text-anchor="start" x="171" y="-120.3" font-family="Times,serif" font-size="14.00"> result = g2</text>
<text text-anchor="start" x="171" y="-105.3" font-family="Times,serif" font-size="14.00"> return result</text>
</g>
<!-- Node0xf0004f0&#45;&gt;Node0xefd0c10 -->
<g id="edge4" class="edge"><title>Node0xf0004f0&#45;&gt;Node0xefd0c10</title>
<path fill="none" stroke="black" d="M307.052,-338.469C324.668,-333.643 338.94,-327.573 345,-320 375.043,-282.458 353.053,-228.256 329.104,-189.151"/>
<polygon fill="black" stroke="black" points="331.965,-187.127 323.658,-180.551 326.051,-190.872 331.965,-187.127"/>
<text text-anchor="middle" x="520.5" y="-248.8" font-family="Times,serif" font-size="14.00">a1 != IntToPtrCastExpr&lt;ptr&gt;(&#45;2147024882)</text>
</g>
<!-- Node0xefd0d00&#45;&gt;Node0xefd0c10 -->
<g id="edge5" class="edge"><title>Node0xefd0d00&#45;&gt;Node0xefd0c10</title>
<path fill="none" stroke="black" d="M171.437,-218.348C187.128,-208.235 204.672,-196.928 221.443,-186.119"/>
<polygon fill="black" stroke="black" points="223.62,-188.88 230.129,-180.521 219.828,-182.996 223.62,-188.88"/>
</g>
<!-- Node0xf000440 -->
<g id="node6" class="node"><title>Node0xf000440</title>
<polygon fill="none" stroke="black" points="266,-23.5 266,-59.5 320,-59.5 320,-23.5 266,-23.5"/>
<text text-anchor="start" x="274" y="-37.8" font-family="Times,serif" font-size="14.00">exit:</text>
</g>
<!-- Node0xefd0c10&#45;&gt;Node0xf000440 -->
<g id="edge6" class="edge"><title>Node0xefd0c10&#45;&gt;Node0xf000440</title>
<path fill="none" stroke="black" d="M293,-97.4994C293,-88.2058 293,-78.537 293,-69.9459"/>
<polygon fill="black" stroke="black" points="296.5,-69.7494 293,-59.7494 289.5,-69.7494 296.5,-69.7494"/>
</g>
</g>
</svg>
