<?xml version="1.0" encoding="UTF-8" standalone="no"?>
<!DOCTYPE svg PUBLIC "-//W3C//DTD SVG 1.1//EN"
 "http://www.w3.org/Graphics/SVG/1.1/DTD/svg11.dtd">
<!-- Generated by graphviz version 2.38.0 (20140413.2041)
 -->
<!-- Title: Control&#45;flow graph for function &#39;function_431320(*file_path, *a2)&#39;. Pages: 1 -->
<svg width="1237pt" height="2466pt"
 viewBox="0.00 0.00 1236.50 2466.00" xmlns="http://www.w3.org/2000/svg" xmlns:xlink="http://www.w3.org/1999/xlink">
<g id="graph0" class="graph" transform="scale(1 1) rotate(0) translate(4 2462)">
<title>Control&#45;flow graph for function &#39;function_431320(*file_path, *a2)&#39;.</title>
<polygon fill="white" stroke="none" points="-4,4 -4,-2462 1232.5,-2462 1232.5,4 -4,4"/>
<text text-anchor="middle" x="614.25" y="-7.8" font-family="Times,serif" font-size="14.00">Control&#45;flow graph for function &#39;function_431320(*file_path, *a2)&#39;.</text>
<!-- Node0x100fa5b0 -->
<g id="node1" class="node"><title>Node0x100fa5b0</title>
<polygon fill="none" stroke="black" points="311,-2404.5 311,-2457.5 394,-2457.5 394,-2404.5 311,-2404.5"/>
<text text-anchor="start" x="319" y="-2442.3" font-family="Times,serif" font-size="14.00">entry:</text>
<text text-anchor="start" x="319" y="-2427.3" font-family="Times,serif" font-size="14.00"> file_path</text>
<text text-anchor="start" x="319" y="-2412.3" font-family="Times,serif" font-size="14.00"> a2</text>
</g>
<!-- Node0xd5ad640 -->
<g id="node2" class="node"><title>Node0xd5ad640</title>
<polygon fill="none" stroke="black" points="173,-1278.5 173,-2366.5 532,-2366.5 532,-1278.5 173,-1278.5"/>
<text text-anchor="start" x="181" y="-2351.3" font-family="Times,serif" font-size="14.00">v1</text>
<text text-anchor="start" x="181" y="-2336.3" font-family="Times,serif" font-size="14.00"> v2</text>
<text text-anchor="start" x="181" y="-2321.3" font-family="Times,serif" font-size="14.00"> v3</text>
<text text-anchor="start" x="181" y="-2306.3" font-family="Times,serif" font-size="14.00"> v4</text>
<text text-anchor="start" x="181" y="-2291.3" font-family="Times,serif" font-size="14.00"> v5</text>
<text text-anchor="start" x="181" y="-2276.3" font-family="Times,serif" font-size="14.00"> file</text>
<text text-anchor="start" x="181" y="-2261.3" font-family="Times,serif" font-size="14.00"> v6</text>
<text text-anchor="start" x="181" y="-2246.3" font-family="Times,serif" font-size="14.00"> v7</text>
<text text-anchor="start" x="181" y="-2231.3" font-family="Times,serif" font-size="14.00"> v8</text>
<text text-anchor="start" x="181" y="-2216.3" font-family="Times,serif" font-size="14.00"> v9</text>
<text text-anchor="start" x="181" y="-2201.3" font-family="Times,serif" font-size="14.00"> v10</text>
<text text-anchor="start" x="181" y="-2186.3" font-family="Times,serif" font-size="14.00"> is_ferror</text>
<text text-anchor="start" x="181" y="-2171.3" font-family="Times,serif" font-size="14.00"> v11</text>
<text text-anchor="start" x="181" y="-2156.3" font-family="Times,serif" font-size="14.00"> v12</text>
<text text-anchor="start" x="181" y="-2141.3" font-family="Times,serif" font-size="14.00"> v13</text>
<text text-anchor="start" x="181" y="-2126.3" font-family="Times,serif" font-size="14.00"> v14</text>
<text text-anchor="start" x="181" y="-2111.3" font-family="Times,serif" font-size="14.00"> v15</text>
<text text-anchor="start" x="181" y="-2096.3" font-family="Times,serif" font-size="14.00"> v16</text>
<text text-anchor="start" x="181" y="-2081.3" font-family="Times,serif" font-size="14.00"> v17</text>
<text text-anchor="start" x="181" y="-2066.3" font-family="Times,serif" font-size="14.00"> v18</text>
<text text-anchor="start" x="181" y="-2051.3" font-family="Times,serif" font-size="14.00"> v19</text>
<text text-anchor="start" x="181" y="-2036.3" font-family="Times,serif" font-size="14.00"> v20</text>
<text text-anchor="start" x="181" y="-2021.3" font-family="Times,serif" font-size="14.00"> v21</text>
<text text-anchor="start" x="181" y="-2006.3" font-family="Times,serif" font-size="14.00"> v22</text>
<text text-anchor="start" x="181" y="-1991.3" font-family="Times,serif" font-size="14.00"> v23</text>
<text text-anchor="start" x="181" y="-1976.3" font-family="Times,serif" font-size="14.00"> v24</text>
<text text-anchor="start" x="181" y="-1961.3" font-family="Times,serif" font-size="14.00"> v25</text>
<text text-anchor="start" x="181" y="-1946.3" font-family="Times,serif" font-size="14.00"> v26</text>
<text text-anchor="start" x="181" y="-1931.3" font-family="Times,serif" font-size="14.00"> v27</text>
<text text-anchor="start" x="181" y="-1916.3" font-family="Times,serif" font-size="14.00"> v28</text>
<text text-anchor="start" x="181" y="-1901.3" font-family="Times,serif" font-size="14.00"> v29</text>
<text text-anchor="start" x="181" y="-1886.3" font-family="Times,serif" font-size="14.00"> v30</text>
<text text-anchor="start" x="181" y="-1871.3" font-family="Times,serif" font-size="14.00"> v31</text>
<text text-anchor="start" x="181" y="-1856.3" font-family="Times,serif" font-size="14.00"> v32</text>
<text text-anchor="start" x="181" y="-1841.3" font-family="Times,serif" font-size="14.00"> v33</text>
<text text-anchor="start" x="181" y="-1826.3" font-family="Times,serif" font-size="14.00"> v34</text>
<text text-anchor="start" x="181" y="-1811.3" font-family="Times,serif" font-size="14.00"> v35</text>
<text text-anchor="start" x="181" y="-1796.3" font-family="Times,serif" font-size="14.00"> v36</text>
<text text-anchor="start" x="181" y="-1781.3" font-family="Times,serif" font-size="14.00"> v37</text>
<text text-anchor="start" x="181" y="-1766.3" font-family="Times,serif" font-size="14.00"> v38</text>
<text text-anchor="start" x="181" y="-1751.3" font-family="Times,serif" font-size="14.00"> v39</text>
<text text-anchor="start" x="181" y="-1736.3" font-family="Times,serif" font-size="14.00"> v40</text>
<text text-anchor="start" x="181" y="-1721.3" font-family="Times,serif" font-size="14.00"> v41</text>
<text text-anchor="start" x="181" y="-1706.3" font-family="Times,serif" font-size="14.00"> v42</text>
<text text-anchor="start" x="181" y="-1691.3" font-family="Times,serif" font-size="14.00"> v43</text>
<text text-anchor="start" x="181" y="-1676.3" font-family="Times,serif" font-size="14.00"> v44</text>
<text text-anchor="start" x="181" y="-1661.3" font-family="Times,serif" font-size="14.00"> stream</text>
<text text-anchor="start" x="181" y="-1646.3" font-family="Times,serif" font-size="14.00"> v45</text>
<text text-anchor="start" x="181" y="-1631.3" font-family="Times,serif" font-size="14.00"> v46</text>
<text text-anchor="start" x="181" y="-1616.3" font-family="Times,serif" font-size="14.00"> v21 = v22</text>
<text text-anchor="start" x="181" y="-1601.3" font-family="Times,serif" font-size="14.00"> v19 = v20</text>
<text text-anchor="start" x="181" y="-1586.3" font-family="Times,serif" font-size="14.00"> v17 = v18</text>
<text text-anchor="start" x="181" y="-1571.3" font-family="Times,serif" font-size="14.00"> v15 = v16</text>
<text text-anchor="start" x="181" y="-1556.3" font-family="Times,serif" font-size="14.00"> v27 = v28</text>
<text text-anchor="start" x="181" y="-1541.3" font-family="Times,serif" font-size="14.00"> v14 = v25</text>
<text text-anchor="start" x="181" y="-1526.3" font-family="Times,serif" font-size="14.00"> v31 = v32</text>
<text text-anchor="start" x="181" y="-1511.3" font-family="Times,serif" font-size="14.00"> v36 = v37</text>
<text text-anchor="start" x="181" y="-1496.3" font-family="Times,serif" font-size="14.00"> v38 = v39</text>
<text text-anchor="start" x="181" y="-1481.3" font-family="Times,serif" font-size="14.00"> v34 = v35</text>
<text text-anchor="start" x="181" y="-1466.3" font-family="Times,serif" font-size="14.00"> v36 = file_path</text>
<text text-anchor="start" x="181" y="-1451.3" font-family="Times,serif" font-size="14.00"> v38 = a2</text>
<text text-anchor="start" x="181" y="-1436.3" font-family="Times,serif" font-size="14.00"> v40 = g3</text>
<text text-anchor="start" x="181" y="-1421.3" font-family="Times,serif" font-size="14.00"> v29 = v40</text>
<text text-anchor="start" x="181" y="-1406.3" font-family="Times,serif" font-size="14.00"> g3 = PtrToIntCastExpr&lt;int32&gt;(&amp;(v29))</text>
<text text-anchor="start" x="181" y="-1391.3" font-family="Times,serif" font-size="14.00"> v1 = PtrToIntCastExpr&lt;int32&gt;(&amp;(v34))</text>
<text text-anchor="start" x="181" y="-1376.3" font-family="Times,serif" font-size="14.00"> v17 = BitCastExpr&lt;ptr&gt;(&quot;rb&quot;)</text>
<text text-anchor="start" x="181" y="-1361.3" font-family="Times,serif" font-size="14.00"> g2 = PtrToIntCastExpr&lt;int32&gt;(file_path)</text>
<text text-anchor="start" x="181" y="-1346.3" font-family="Times,serif" font-size="14.00"> v19 = file_path</text>
<text text-anchor="start" x="181" y="-1331.3" font-family="Times,serif" font-size="14.00"> file = fopen(BitCastExpr&lt;ptr&gt;(file_path), &quot;rb&quot;)</text>
<text text-anchor="start" x="181" y="-1316.3" font-family="Times,serif" font-size="14.00"> v2 = PtrToIntCastExpr&lt;int32&gt;(&amp;(v15))</text>
<text text-anchor="start" x="181" y="-1301.3" font-family="Times,serif" font-size="14.00"> v5 = v2</text>
<text text-anchor="start" x="181" y="-1286.3" font-family="Times,serif" font-size="14.00"> v14 = file</text>
</g>
<!-- Node0x100fa5b0&#45;&gt;Node0xd5ad640 -->
<g id="edge1" class="edge"><title>Node0x100fa5b0&#45;&gt;Node0xd5ad640</title>
<path fill="none" stroke="black" d="M352.5,-2404.33C352.5,-2396.65 352.5,-2387.41 352.5,-2376.87"/>
<polygon fill="black" stroke="black" points="356,-2376.83 352.5,-2366.83 349,-2376.83 356,-2376.83"/>
</g>
<!-- Node0x100ee280 -->
<g id="node3" class="node"><title>Node0x100ee280</title>
<polygon fill="none" stroke="black" points="280.5,-1202.5 280.5,-1240.5 424.5,-1240.5 424.5,-1202.5 280.5,-1202.5"/>
<text text-anchor="start" x="288.5" y="-1225.3" font-family="Times,serif" font-size="14.00">if (file == NULL):</text>
<text text-anchor="start" x="288.5" y="-1210.3" font-family="Times,serif" font-size="14.00"> else:</text>
</g>
<!-- Node0xd5ad640&#45;&gt;Node0x100ee280 -->
<g id="edge2" class="edge"><title>Node0xd5ad640&#45;&gt;Node0x100ee280</title>
<path fill="none" stroke="black" d="M352.5,-1278.31C352.5,-1267.86 352.5,-1258.62 352.5,-1250.82"/>
<polygon fill="black" stroke="black" points="356,-1250.77 352.5,-1240.77 349,-1250.77 356,-1250.77"/>
</g>
<!-- Node0x100f3d50 -->
<g id="node4" class="node"><title>Node0x100f3d50</title>
<polygon fill="none" stroke="black" points="182.5,-1105 182.5,-1143 274.5,-1143 274.5,-1105 182.5,-1105"/>
<text text-anchor="start" x="190.5" y="-1127.8" font-family="Times,serif" font-size="14.00">0x43134d:</text>
<text text-anchor="start" x="190.5" y="-1112.8" font-family="Times,serif" font-size="14.00"> g2 = &#45;118</text>
</g>
<!-- Node0x100ee280&#45;&gt;Node0x100f3d50 -->
<g id="edge3" class="edge"><title>Node0x100ee280&#45;&gt;Node0x100f3d50</title>
<path fill="none" stroke="black" d="M328.885,-1202.31C309.406,-1187.31 281.594,-1165.89 260.182,-1149.4"/>
<polygon fill="black" stroke="black" points="262.086,-1146.45 252.027,-1143.12 257.814,-1151.99 262.086,-1146.45"/>
<text text-anchor="middle" x="352" y="-1172.8" font-family="Times,serif" font-size="14.00">file == NULL</text>
</g>
<!-- Node0x100f4230 -->
<g id="node5" class="node"><title>Node0x100f4230</title>
<polygon fill="none" stroke="black" points="392.5,-1097.5 392.5,-1150.5 734.5,-1150.5 734.5,-1097.5 392.5,-1097.5"/>
<text text-anchor="start" x="400.5" y="-1135.3" font-family="Times,serif" font-size="14.00">0x431357:</text>
<text text-anchor="start" x="400.5" y="-1120.3" font-family="Times,serif" font-size="14.00"> v3 = PtrToIntCastExpr&lt;int32&gt;(&amp;(v27))</text>
<text text-anchor="start" x="400.5" y="-1105.3" font-family="Times,serif" font-size="14.00"> function_42f1e0(BitCastExpr&lt;ptr&gt;(&amp;(v27)))</text>
</g>
<!-- Node0x100ee280&#45;&gt;Node0x100f4230 -->
<g id="edge4" class="edge"><title>Node0x100ee280&#45;&gt;Node0x100f4230</title>
<path fill="none" stroke="black" d="M392.684,-1202.31C422.303,-1188.91 463.245,-1170.38 497.621,-1154.82"/>
<polygon fill="black" stroke="black" points="499.461,-1157.83 507.128,-1150.51 496.575,-1151.45 499.461,-1157.83"/>
<text text-anchor="middle" x="511" y="-1172.8" font-family="Times,serif" font-size="14.00">file != NULL</text>
</g>
<!-- Node0x100eebf0 -->
<g id="node6" class="node"><title>Node0x100eebf0</title>
<polygon fill="none" stroke="black" points="0,-891.5 0,-1004.5 441,-1004.5 441,-891.5 0,-891.5"/>
<text text-anchor="start" x="8" y="-989.3" font-family="Times,serif" font-size="14.00">0x4313ff:</text>
<text text-anchor="start" x="8" y="-974.3" font-family="Times,serif" font-size="14.00"> v41 = g3</text>
<text text-anchor="start" x="8" y="-959.3" font-family="Times,serif" font-size="14.00"> g5 = (v41 ^ v1)</text>
<text text-anchor="start" x="8" y="-944.3" font-family="Times,serif" font-size="14.00"> v13 = function_43c16e(&amp;(v15), NULL, NULL, NULL, 0, 0)</text>
<text text-anchor="start" x="8" y="-929.3" font-family="Times,serif" font-size="14.00"> v42 = v29</text>
<text text-anchor="start" x="8" y="-914.3" font-family="Times,serif" font-size="14.00"> g3 = v42</text>
<text text-anchor="start" x="8" y="-899.3" font-family="Times,serif" font-size="14.00"> return PtrToIntCastExpr&lt;int32&gt;(v13)</text>
</g>
<!-- Node0x100f3d50&#45;&gt;Node0x100eebf0 -->
<g id="edge5" class="edge"><title>Node0x100f3d50&#45;&gt;Node0x100eebf0</title>
<path fill="none" stroke="black" d="M227.659,-1104.71C226.682,-1083.45 225.013,-1047.17 223.533,-1014.97"/>
<polygon fill="black" stroke="black" points="227.016,-1014.51 223.06,-1004.68 220.023,-1014.83 227.016,-1014.51"/>
</g>
<!-- Node0x100ee400 -->
<g id="node7" class="node"><title>Node0x100ee400</title>
<polygon fill="none" stroke="black" points="520,-1023.5 520,-1059.5 617,-1059.5 617,-1023.5 520,-1023.5"/>
<text text-anchor="start" x="528" y="-1037.8" font-family="Times,serif" font-size="14.00">while True:</text>
</g>
<!-- Node0x100f4230&#45;&gt;Node0x100ee400 -->
<g id="edge6" class="edge"><title>Node0x100f4230&#45;&gt;Node0x100ee400</title>
<path fill="none" stroke="black" d="M565.11,-1097.09C565.645,-1088.46 566.244,-1078.82 566.787,-1070.07"/>
<polygon fill="black" stroke="black" points="570.288,-1070.17 567.415,-1059.97 563.301,-1069.74 570.288,-1070.17"/>
</g>
<!-- Node0x10101c20 -->
<g id="node8" class="node"><title>Node0x10101c20</title>
<polygon fill="none" stroke="black" points="442.5,-23.5 442.5,-59.5 496.5,-59.5 496.5,-23.5 442.5,-23.5"/>
<text text-anchor="start" x="450.5" y="-37.8" font-family="Times,serif" font-size="14.00">exit:</text>
</g>
<!-- Node0x100eebf0&#45;&gt;Node0x10101c20 -->
<g id="edge7" class="edge"><title>Node0x100eebf0&#45;&gt;Node0x10101c20</title>
<path fill="none" stroke="black" d="M220.5,-891.21C220.5,-843.389 220.5,-772.663 220.5,-711 220.5,-711 220.5,-711 220.5,-183 220.5,-143.856 212.033,-124.889 239.5,-97 266.066,-70.0265 373.822,-53.6233 431.929,-46.5657"/>
<polygon fill="black" stroke="black" points="432.649,-50.005 442.17,-45.3562 431.828,-43.0533 432.649,-50.005"/>
</g>
<!-- Node0x100f0d90 -->
<g id="node9" class="node"><title>Node0x100f0d90</title>
<polygon fill="none" stroke="black" points="424.5,-729.5 424.5,-872.5 712.5,-872.5 712.5,-729.5 424.5,-729.5"/>
<text text-anchor="start" x="432.5" y="-857.3" font-family="Times,serif" font-size="14.00">0x431366:</text>
<text text-anchor="start" x="432.5" y="-842.3" font-family="Times,serif" font-size="14.00"> v43 = v14</text>
<text text-anchor="start" x="432.5" y="-827.3" font-family="Times,serif" font-size="14.00"> v17 = v43</text>
<text text-anchor="start" x="432.5" y="-812.3" font-family="Times,serif" font-size="14.00"> v19 = IntToPtrCastExpr&lt;ptr&gt;(1024)</text>
<text text-anchor="start" x="432.5" y="-797.3" font-family="Times,serif" font-size="14.00"> v21 = IntToPtrCastExpr&lt;ptr&gt;(1)</text>
<text text-anchor="start" x="432.5" y="-782.3" font-family="Times,serif" font-size="14.00"> g2 = v2</text>
<text text-anchor="start" x="432.5" y="-767.3" font-family="Times,serif" font-size="14.00"> v7 = _fread(v2)</text>
<text text-anchor="start" x="432.5" y="-752.3" font-family="Times,serif" font-size="14.00"> v4 = IntToPtrCastExpr&lt;ptr&gt;(v7)</text>
<text text-anchor="start" x="432.5" y="-737.3" font-family="Times,serif" font-size="14.00"> v31 = v4</text>
</g>
<!-- Node0x100ee400&#45;&gt;Node0x100f0d90 -->
<g id="edge8" class="edge"><title>Node0x100ee400&#45;&gt;Node0x100f0d90</title>
<path fill="none" stroke="black" d="M568.5,-1023.35C568.5,-994.27 568.5,-933.532 568.5,-883.025"/>
<polygon fill="black" stroke="black" points="572,-882.746 568.5,-872.746 565,-882.746 572,-882.746"/>
<text text-anchor="middle" x="585.5" y="-944.3" font-family="Times,serif" font-size="14.00">True</text>
</g>
<!-- Node0x100f1370 -->
<g id="node10" class="node"><title>Node0x100f1370</title>
<polygon fill="none" stroke="black" points="516,-653.5 516,-691.5 621,-691.5 621,-653.5 516,-653.5"/>
<text text-anchor="start" x="524" y="-676.3" font-family="Times,serif" font-size="14.00">if (v7 == 0):</text>
<text text-anchor="start" x="524" y="-661.3" font-family="Times,serif" font-size="14.00"> else:</text>
</g>
<!-- Node0x100f0d90&#45;&gt;Node0x100f1370 -->
<g id="edge9" class="edge"><title>Node0x100f0d90&#45;&gt;Node0x100f1370</title>
<path fill="none" stroke="black" d="M568.5,-729.353C568.5,-719.594 568.5,-710.073 568.5,-701.737"/>
<polygon fill="black" stroke="black" points="572,-701.54 568.5,-691.54 565,-701.54 572,-701.54"/>
</g>
<!-- Node0x100f3510 -->
<g id="node11" class="node"><title>Node0x100f3510</title>
<polygon fill="none" stroke="black" points="256.5,-398.5 256.5,-601.5 638.5,-601.5 638.5,-398.5 256.5,-398.5"/>
<text text-anchor="start" x="264.5" y="-586.3" font-family="Times,serif" font-size="14.00">0x4313a5:</text>
<text text-anchor="start" x="264.5" y="-571.3" font-family="Times,serif" font-size="14.00"> v44 = v38</text>
<text text-anchor="start" x="264.5" y="-556.3" font-family="Times,serif" font-size="14.00"> v17 = v44</text>
<text text-anchor="start" x="264.5" y="-541.3" font-family="Times,serif" font-size="14.00"> function_4310b0(BitCastExpr&lt;ptr&gt;(&amp;(v27)), v44)</text>
<text text-anchor="start" x="264.5" y="-526.3" font-family="Times,serif" font-size="14.00"> v17 = IntToPtrCastExpr&lt;ptr&gt;(220)</text>
<text text-anchor="start" x="264.5" y="-511.3" font-family="Times,serif" font-size="14.00"> v19 = NULL</text>
<text text-anchor="start" x="264.5" y="-496.3" font-family="Times,serif" font-size="14.00"> g2 = v3</text>
<text text-anchor="start" x="264.5" y="-481.3" font-family="Times,serif" font-size="14.00"> _memset(BitCastExpr&lt;ptr&gt;(&amp;(v27)))</text>
<text text-anchor="start" x="264.5" y="-466.3" font-family="Times,serif" font-size="14.00"> stream = v14</text>
<text text-anchor="start" x="264.5" y="-451.3" font-family="Times,serif" font-size="14.00"> v17 = stream</text>
<text text-anchor="start" x="264.5" y="-436.3" font-family="Times,serif" font-size="14.00"> is_ferror = ferror(stream)</text>
<text text-anchor="start" x="264.5" y="-421.3" font-family="Times,serif" font-size="14.00"> v46 = v14</text>
<text text-anchor="start" x="264.5" y="-406.3" font-family="Times,serif" font-size="14.00"> v45 = PtrToIntCastExpr&lt;int32&gt;(v46)</text>
</g>
<!-- Node0x100f1370&#45;&gt;Node0x100f3510 -->
<g id="edge10" class="edge"><title>Node0x100f1370&#45;&gt;Node0x100f3510</title>
<path fill="none" stroke="black" d="M555.551,-653.254C547.587,-642.032 536.654,-626.626 524.785,-609.901"/>
<polygon fill="black" stroke="black" points="527.534,-607.727 518.892,-601.598 521.825,-611.778 527.534,-607.727"/>
<text text-anchor="middle" x="572.5" y="-623.8" font-family="Times,serif" font-size="14.00">v7 == 0</text>
</g>
<!-- Node0x100f5d20 -->
<g id="node12" class="node"><title>Node0x100f5d20</title>
<polygon fill="none" stroke="black" points="656.5,-458.5 656.5,-541.5 1228.5,-541.5 1228.5,-458.5 656.5,-458.5"/>
<text text-anchor="start" x="664.5" y="-526.3" font-family="Times,serif" font-size="14.00">0x431389:</text>
<text text-anchor="start" x="664.5" y="-511.3" font-family="Times,serif" font-size="14.00"> v17 = v4</text>
<text text-anchor="start" x="664.5" y="-496.3" font-family="Times,serif" font-size="14.00"> g2 = v3</text>
<text text-anchor="start" x="664.5" y="-481.3" font-family="Times,serif" font-size="14.00"> function_42f230(BitCastExpr&lt;ptr&gt;(&amp;(v27)), BitCastExpr&lt;ptr&gt;(&amp;(v15)), v4)</text>
<text text-anchor="start" x="664.5" y="-466.3" font-family="Times,serif" font-size="14.00"> continue</text>
</g>
<!-- Node0x100f1370&#45;&gt;Node0x100f5d20 -->
<g id="edge11" class="edge"><title>Node0x100f1370&#45;&gt;Node0x100f5d20</title>
<path fill="none" stroke="black" d="M608.17,-653.415C663.901,-628.008 767.178,-580.926 844.258,-545.787"/>
<polygon fill="black" stroke="black" points="845.876,-548.896 853.523,-541.563 842.972,-542.526 845.876,-548.896"/>
<text text-anchor="middle" x="705.5" y="-623.8" font-family="Times,serif" font-size="14.00">v7 != 0</text>
</g>
<!-- Node0x100fc2c0 -->
<g id="node13" class="node"><title>Node0x100fc2c0</title>
<polygon fill="none" stroke="black" points="395,-322.5 395,-360.5 544,-360.5 544,-322.5 395,-322.5"/>
<text text-anchor="start" x="403" y="-345.3" font-family="Times,serif" font-size="14.00">if (is_ferror == 0):</text>
<text text-anchor="start" x="403" y="-330.3" font-family="Times,serif" font-size="14.00"> else:</text>
</g>
<!-- Node0x100f3510&#45;&gt;Node0x100fc2c0 -->
<g id="edge12" class="edge"><title>Node0x100f3510&#45;&gt;Node0x100fc2c0</title>
<path fill="none" stroke="black" d="M461.682,-398.117C463.054,-388.358 464.353,-379.113 465.485,-371.064"/>
<polygon fill="black" stroke="black" points="468.988,-371.283 466.914,-360.893 462.056,-370.309 468.988,-371.283"/>
</g>
<!-- Node0x100f5d20&#45;&gt;Node0x100ee400 -->
<g id="edge13" class="edge"><title>Node0x100f5d20&#45;&gt;Node0x100ee400</title>
<path fill="none" stroke="black" d="M921.529,-541.579C884.668,-611.594 804.288,-758.584 721.5,-873 675.888,-936.037 660.555,-949.035 606.5,-1005 602.907,-1008.72 599.02,-1012.55 595.149,-1016.26"/>
<polygon fill="black" stroke="black" points="592.687,-1013.77 587.809,-1023.18 597.488,-1018.87 592.687,-1013.77"/>
</g>
<!-- Node0x100f5e40 -->
<g id="node14" class="node"><title>Node0x100f5e40</title>
<polygon fill="none" stroke="black" points="249,-97.5 249,-270.5 690,-270.5 690,-97.5 249,-97.5"/>
<text text-anchor="start" x="257" y="-255.3" font-family="Times,serif" font-size="14.00">0x4313f1:</text>
<text text-anchor="start" x="257" y="-240.3" font-family="Times,serif" font-size="14.00"> g2 = v45</text>
<text text-anchor="start" x="257" y="-225.3" font-family="Times,serif" font-size="14.00"> v17 = v46</text>
<text text-anchor="start" x="257" y="-210.3" font-family="Times,serif" font-size="14.00"> _fclose(v45)</text>
<text text-anchor="start" x="257" y="-195.3" font-family="Times,serif" font-size="14.00"> g2 = 0</text>
<text text-anchor="start" x="257" y="-180.3" font-family="Times,serif" font-size="14.00"> v41 = g3</text>
<text text-anchor="start" x="257" y="-165.3" font-family="Times,serif" font-size="14.00"> g5 = (v41 ^ v1)</text>
<text text-anchor="start" x="257" y="-150.3" font-family="Times,serif" font-size="14.00"> v13 = function_43c16e(&amp;(v15), NULL, NULL, NULL, 0, 0)</text>
<text text-anchor="start" x="257" y="-135.3" font-family="Times,serif" font-size="14.00"> v42 = v29</text>
<text text-anchor="start" x="257" y="-120.3" font-family="Times,serif" font-size="14.00"> g3 = v42</text>
<text text-anchor="start" x="257" y="-105.3" font-family="Times,serif" font-size="14.00"> return PtrToIntCastExpr&lt;int32&gt;(v13)</text>
</g>
<!-- Node0x100fc2c0&#45;&gt;Node0x100f5e40 -->
<g id="edge14" class="edge"><title>Node0x100fc2c0&#45;&gt;Node0x100f5e40</title>
<path fill="none" stroke="black" d="M469.5,-322.358C469.5,-311.411 469.5,-296.524 469.5,-280.579"/>
<polygon fill="black" stroke="black" points="473,-280.541 469.5,-270.541 466,-280.541 473,-280.541"/>
<text text-anchor="middle" x="521.5" y="-292.8" font-family="Times,serif" font-size="14.00">is_ferror == 0</text>
</g>
<!-- Node0x100f19d0 -->
<g id="node15" class="node"><title>Node0x100f19d0</title>
<polygon fill="none" stroke="black" points="708,-105 708,-263 1149,-263 1149,-105 708,-105"/>
<text text-anchor="start" x="716" y="-247.8" font-family="Times,serif" font-size="14.00">0x4313de:</text>
<text text-anchor="start" x="716" y="-232.8" font-family="Times,serif" font-size="14.00"> v17 = v46</text>
<text text-anchor="start" x="716" y="-217.8" font-family="Times,serif" font-size="14.00"> _fclose(v45)</text>
<text text-anchor="start" x="716" y="-202.8" font-family="Times,serif" font-size="14.00"> g2 = &#45;118</text>
<text text-anchor="start" x="716" y="-187.8" font-family="Times,serif" font-size="14.00"> v41 = g3</text>
<text text-anchor="start" x="716" y="-172.8" font-family="Times,serif" font-size="14.00"> g5 = (v41 ^ v1)</text>
<text text-anchor="start" x="716" y="-157.8" font-family="Times,serif" font-size="14.00"> v13 = function_43c16e(&amp;(v15), NULL, NULL, NULL, 0, 0)</text>
<text text-anchor="start" x="716" y="-142.8" font-family="Times,serif" font-size="14.00"> v42 = v29</text>
<text text-anchor="start" x="716" y="-127.8" font-family="Times,serif" font-size="14.00"> g3 = v42</text>
<text text-anchor="start" x="716" y="-112.8" font-family="Times,serif" font-size="14.00"> return PtrToIntCastExpr&lt;int32&gt;(v13)</text>
</g>
<!-- Node0x100fc2c0&#45;&gt;Node0x100f19d0 -->
<g id="edge15" class="edge"><title>Node0x100fc2c0&#45;&gt;Node0x100f19d0</title>
<path fill="none" stroke="black" d="M533.313,-322.441C579.673,-309.024 643.788,-289.856 699.5,-271 703.86,-269.524 708.262,-268.019 712.694,-266.49"/>
<polygon fill="black" stroke="black" points="714.141,-269.693 722.44,-263.106 711.845,-263.08 714.141,-269.693"/>
<text text-anchor="middle" x="691.5" y="-292.8" font-family="Times,serif" font-size="14.00">is_ferror != 0</text>
</g>
<!-- Node0x100f5e40&#45;&gt;Node0x10101c20 -->
<g id="edge16" class="edge"><title>Node0x100f5e40&#45;&gt;Node0x10101c20</title>
<path fill="none" stroke="black" d="M469.5,-97.2233C469.5,-87.4821 469.5,-78.1602 469.5,-70.0586"/>
<polygon fill="black" stroke="black" points="473,-69.8425 469.5,-59.8425 466,-69.8426 473,-69.8425"/>
</g>
<!-- Node0x100f19d0&#45;&gt;Node0x10101c20 -->
<g id="edge17" class="edge"><title>Node0x100f19d0&#45;&gt;Node0x10101c20</title>
<path fill="none" stroke="black" d="M724.5,-104.91C716.083,-102.158 707.726,-99.5082 699.5,-97 632.495,-76.5695 552.583,-59.1529 506.77,-49.8149"/>
<polygon fill="black" stroke="black" points="507.202,-46.3316 496.707,-47.7822 505.816,-53.193 507.202,-46.3316"/>
</g>
</g>
</svg>
