<?xml version="1.0" encoding="UTF-8" standalone="no"?>
<!DOCTYPE svg PUBLIC "-//W3C//DTD SVG 1.1//EN"
 "http://www.w3.org/Graphics/SVG/1.1/DTD/svg11.dtd">
<!-- Generated by graphviz version 2.38.0 (20140413.2041)
 -->
<!-- Title: Control&#45;flow graph for function &#39;function_41a8a4(*a1)&#39;. Pages: 1 -->
<svg width="686pt" height="751pt"
 viewBox="0.00 0.00 686.00 751.00" xmlns="http://www.w3.org/2000/svg" xmlns:xlink="http://www.w3.org/1999/xlink">
<g id="graph0" class="graph" transform="scale(1 1) rotate(0) translate(4 747)">
<title>Control&#45;flow graph for function &#39;function_41a8a4(*a1)&#39;.</title>
<polygon fill="white" stroke="none" points="-4,4 -4,-747 682,-747 682,4 -4,4"/>
<text text-anchor="middle" x="339" y="-7.8" font-family="Times,serif" font-size="14.00">Control&#45;flow graph for function &#39;function_41a8a4(*a1)&#39;.</text>
<!-- Node0xf5f9ef0 -->
<g id="node1" class="node"><title>Node0xf5f9ef0</title>
<polygon fill="none" stroke="black" points="109.5,-704.5 109.5,-742.5 168.5,-742.5 168.5,-704.5 109.5,-704.5"/>
<text text-anchor="start" x="117.5" y="-727.3" font-family="Times,serif" font-size="14.00">entry:</text>
<text text-anchor="start" x="117.5" y="-712.3" font-family="Times,serif" font-size="14.00"> a1</text>
</g>
<!-- Node0xf6005b0 -->
<g id="node2" class="node"><title>Node0xf6005b0</title>
<polygon fill="none" stroke="black" points="0,-493.5 0,-666.5 278,-666.5 278,-493.5 0,-493.5"/>
<text text-anchor="start" x="8" y="-651.3" font-family="Times,serif" font-size="14.00">result</text>
<text text-anchor="start" x="8" y="-636.3" font-family="Times,serif" font-size="14.00"> v1</text>
<text text-anchor="start" x="8" y="-621.3" font-family="Times,serif" font-size="14.00"> v2</text>
<text text-anchor="start" x="8" y="-606.3" font-family="Times,serif" font-size="14.00"> v3</text>
<text text-anchor="start" x="8" y="-591.3" font-family="Times,serif" font-size="14.00"> v4</text>
<text text-anchor="start" x="8" y="-576.3" font-family="Times,serif" font-size="14.00"> v5</text>
<text text-anchor="start" x="8" y="-561.3" font-family="Times,serif" font-size="14.00"> v6</text>
<text text-anchor="start" x="8" y="-546.3" font-family="Times,serif" font-size="14.00"> v7</text>
<text text-anchor="start" x="8" y="-531.3" font-family="Times,serif" font-size="14.00"> v5 = g5</text>
<text text-anchor="start" x="8" y="-516.3" font-family="Times,serif" font-size="14.00"> v6 = *(IntToPtrCastExpr&lt;ptr&gt;(v5))</text>
<text text-anchor="start" x="8" y="-501.3" font-family="Times,serif" font-size="14.00"> g2 = v6</text>
</g>
<!-- Node0xf5f9ef0&#45;&gt;Node0xf6005b0 -->
<g id="edge1" class="edge"><title>Node0xf5f9ef0&#45;&gt;Node0xf6005b0</title>
<path fill="none" stroke="black" d="M139,-704.291C139,-696.655 139,-687.148 139,-676.822"/>
<polygon fill="black" stroke="black" points="142.5,-676.706 139,-666.706 135.5,-676.706 142.5,-676.706"/>
</g>
<!-- Node0xf5fc5d0 -->
<g id="node3" class="node"><title>Node0xf5fc5d0</title>
<polygon fill="none" stroke="black" points="86.5,-419.5 86.5,-455.5 191.5,-455.5 191.5,-419.5 86.5,-419.5"/>
<text text-anchor="start" x="94.5" y="-433.8" font-family="Times,serif" font-size="14.00">if (v6 == 0):</text>
</g>
<!-- Node0xf6005b0&#45;&gt;Node0xf5fc5d0 -->
<g id="edge2" class="edge"><title>Node0xf6005b0&#45;&gt;Node0xf5fc5d0</title>
<path fill="none" stroke="black" d="M139,-493.223C139,-483.482 139,-474.16 139,-466.059"/>
<polygon fill="black" stroke="black" points="142.5,-465.842 139,-455.843 135.5,-465.843 142.5,-465.842"/>
</g>
<!-- Node0xf6012e0 -->
<g id="node4" class="node"><title>Node0xf6012e0</title>
<polygon fill="none" stroke="black" points="52,-257.5 52,-295.5 144,-295.5 144,-257.5 52,-257.5"/>
<text text-anchor="start" x="60" y="-280.3" font-family="Times,serif" font-size="14.00">0x41a8bb:</text>
<text text-anchor="start" x="60" y="-265.3" font-family="Times,serif" font-size="14.00"> return 0</text>
</g>
<!-- Node0xf5fc5d0&#45;&gt;Node0xf6012e0 -->
<g id="edge3" class="edge"><title>Node0xf5fc5d0&#45;&gt;Node0xf6012e0</title>
<path fill="none" stroke="black" d="M110.007,-419.279C103.954,-414.208 98.3868,-408.084 95,-401 80.6091,-370.898 84.8162,-331.775 90.3322,-305.711"/>
<polygon fill="black" stroke="black" points="93.795,-306.271 92.6415,-295.739 86.9755,-304.692 93.795,-306.271"/>
<text text-anchor="middle" x="125" y="-389.8" font-family="Times,serif" font-size="14.00">v6 == 0</text>
</g>
<!-- Node0xf600ac0 -->
<g id="node5" class="node"><title>Node0xf600ac0</title>
<polygon fill="none" stroke="black" points="133.5,-314.5 133.5,-367.5 228.5,-367.5 228.5,-314.5 133.5,-314.5"/>
<text text-anchor="start" x="141.5" y="-352.3" font-family="Times,serif" font-size="14.00">0x41a8aa:</text>
<text text-anchor="start" x="141.5" y="-337.3" font-family="Times,serif" font-size="14.00"> v7 = g145</text>
<text text-anchor="start" x="141.5" y="-322.3" font-family="Times,serif" font-size="14.00"> g5 = v7</text>
</g>
<!-- Node0xf5fc5d0&#45;&gt;Node0xf600ac0 -->
<g id="edge4" class="edge"><title>Node0xf5fc5d0&#45;&gt;Node0xf600ac0</title>
<path fill="none" stroke="black" d="M149.318,-419.45C152.61,-413.69 156.138,-407.159 159,-401 162.537,-393.388 165.931,-385.035 168.951,-377.069"/>
<polygon fill="black" stroke="black" points="172.258,-378.215 172.431,-367.622 165.69,-375.795 172.258,-378.215"/>
<text text-anchor="middle" x="193" y="-389.8" font-family="Times,serif" font-size="14.00">v6 != 0</text>
</g>
<!-- Node0xf600530 -->
<g id="node6" class="node"><title>Node0xf600530</title>
<polygon fill="none" stroke="black" points="145,-23.5 145,-59.5 199,-59.5 199,-23.5 145,-23.5"/>
<text text-anchor="start" x="153" y="-37.8" font-family="Times,serif" font-size="14.00">exit:</text>
</g>
<!-- Node0xf6012e0&#45;&gt;Node0xf600530 -->
<g id="edge5" class="edge"><title>Node0xf6012e0&#45;&gt;Node0xf600530</title>
<path fill="none" stroke="black" d="M96.0874,-257.46C93.3413,-223.989 91.1485,-150.791 117,-97 122.55,-85.452 131.591,-74.9483 140.755,-66.312"/>
<polygon fill="black" stroke="black" points="143.255,-68.7727 148.407,-59.5148 138.606,-63.5392 143.255,-68.7727"/>
</g>
<!-- Node0xf5f7580 -->
<g id="node7" class="node"><title>Node0xf5f7580</title>
<polygon fill="none" stroke="black" points="128.5,-202.5 128.5,-238.5 233.5,-238.5 233.5,-202.5 128.5,-202.5"/>
<text text-anchor="start" x="136.5" y="-216.8" font-family="Times,serif" font-size="14.00">if (v7 == 0):</text>
</g>
<!-- Node0xf600ac0&#45;&gt;Node0xf5f7580 -->
<g id="edge6" class="edge"><title>Node0xf600ac0&#45;&gt;Node0xf5f7580</title>
<path fill="none" stroke="black" d="M181,-314.287C181,-294.989 181,-268.614 181,-248.916"/>
<polygon fill="black" stroke="black" points="184.5,-248.747 181,-238.747 177.5,-248.747 184.5,-248.747"/>
</g>
<!-- Node0xf601360 -->
<g id="node8" class="node"><title>Node0xf601360</title>
<polygon fill="none" stroke="black" points="126,-105 126,-143 218,-143 218,-105 126,-105"/>
<text text-anchor="start" x="134" y="-127.8" font-family="Times,serif" font-size="14.00">0x41a8bb:</text>
<text text-anchor="start" x="134" y="-112.8" font-family="Times,serif" font-size="14.00"> return 0</text>
</g>
<!-- Node0xf5f7580&#45;&gt;Node0xf601360 -->
<g id="edge7" class="edge"><title>Node0xf5f7580&#45;&gt;Node0xf601360</title>
<path fill="none" stroke="black" d="M179.349,-202.167C178.055,-188.573 176.225,-169.367 174.716,-153.516"/>
<polygon fill="black" stroke="black" points="178.165,-152.812 173.732,-143.189 171.196,-153.476 178.165,-152.812"/>
<text text-anchor="middle" x="208" y="-172.8" font-family="Times,serif" font-size="14.00">v7 == 0</text>
</g>
<!-- Node0xf601040 -->
<g id="node9" class="node"><title>Node0xf601040</title>
<polygon fill="none" stroke="black" points="236,-97.5 236,-150.5 678,-150.5 678,-97.5 236,-97.5"/>
<text text-anchor="start" x="244" y="-135.3" font-family="Times,serif" font-size="14.00">0x41a8b4:</text>
<text text-anchor="start" x="244" y="-120.3" font-family="Times,serif" font-size="14.00"> result = function_41a857(IntToPtrCastExpr&lt;ptr&gt;(v6), v3)</text>
<text text-anchor="start" x="244" y="-105.3" font-family="Times,serif" font-size="14.00"> return result</text>
</g>
<!-- Node0xf5f7580&#45;&gt;Node0xf601040 -->
<g id="edge8" class="edge"><title>Node0xf5f7580&#45;&gt;Node0xf601040</title>
<path fill="none" stroke="black" d="M230.662,-202.496C270.228,-188.949 326.508,-169.679 373.047,-153.745"/>
<polygon fill="black" stroke="black" points="374.192,-157.052 382.519,-150.502 371.924,-150.43 374.192,-157.052"/>
<text text-anchor="middle" x="354" y="-172.8" font-family="Times,serif" font-size="14.00">v7 != 0</text>
</g>
<!-- Node0xf601360&#45;&gt;Node0xf600530 -->
<g id="edge9" class="edge"><title>Node0xf601360&#45;&gt;Node0xf600530</title>
<path fill="none" stroke="black" d="M172,-104.733C172,-94.3626 172,-81.1832 172,-69.6251"/>
<polygon fill="black" stroke="black" points="175.5,-69.5935 172,-59.5935 168.5,-69.5936 175.5,-69.5935"/>
</g>
<!-- Node0xf601040&#45;&gt;Node0xf600530 -->
<g id="edge10" class="edge"><title>Node0xf601040&#45;&gt;Node0xf600530</title>
<path fill="none" stroke="black" d="M366.433,-97.4187C313.204,-82.3839 248.775,-64.1857 209.09,-52.9763"/>
<polygon fill="black" stroke="black" points="209.887,-49.5646 199.312,-50.2145 207.984,-56.301 209.887,-49.5646"/>
</g>
</g>
</svg>
