<?xml version="1.0" encoding="UTF-8" standalone="no"?>
<!DOCTYPE svg PUBLIC "-//W3C//DTD SVG 1.1//EN"
 "http://www.w3.org/Graphics/SVG/1.1/DTD/svg11.dtd">
<!-- Generated by graphviz version 2.38.0 (20140413.2041)
 -->
<!-- Title: Control&#45;flow graph for function &#39;function_41f0ac(a1, a2)&#39;. Pages: 1 -->
<svg width="433pt" height="925pt"
 viewBox="0.00 0.00 433.00 925.00" xmlns="http://www.w3.org/2000/svg" xmlns:xlink="http://www.w3.org/1999/xlink">
<g id="graph0" class="graph" transform="scale(1 1) rotate(0) translate(4 921)">
<title>Control&#45;flow graph for function &#39;function_41f0ac(a1, a2)&#39;.</title>
<polygon fill="white" stroke="none" points="-4,4 -4,-921 429,-921 429,4 -4,4"/>
<text text-anchor="middle" x="212.5" y="-7.8" font-family="Times,serif" font-size="14.00">Control&#45;flow graph for function &#39;function_41f0ac(a1, a2)&#39;.</text>
<!-- Node0xf83d6f0 -->
<g id="node1" class="node"><title>Node0xf83d6f0</title>
<polygon fill="none" stroke="black" points="183,-863.5 183,-916.5 242,-916.5 242,-863.5 183,-863.5"/>
<text text-anchor="start" x="191" y="-901.3" font-family="Times,serif" font-size="14.00">entry:</text>
<text text-anchor="start" x="191" y="-886.3" font-family="Times,serif" font-size="14.00"> a1</text>
<text text-anchor="start" x="191" y="-871.3" font-family="Times,serif" font-size="14.00"> a2</text>
</g>
<!-- Node0xf7f77b0 -->
<g id="node2" class="node"><title>Node0xf7f77b0</title>
<polygon fill="none" stroke="black" points="20.5,-367.5 20.5,-825.5 404.5,-825.5 404.5,-367.5 20.5,-367.5"/>
<text text-anchor="start" x="28.5" y="-810.3" font-family="Times,serif" font-size="14.00">v1</text>
<text text-anchor="start" x="28.5" y="-795.3" font-family="Times,serif" font-size="14.00"> v2</text>
<text text-anchor="start" x="28.5" y="-780.3" font-family="Times,serif" font-size="14.00"> v3</text>
<text text-anchor="start" x="28.5" y="-765.3" font-family="Times,serif" font-size="14.00"> v4</text>
<text text-anchor="start" x="28.5" y="-750.3" font-family="Times,serif" font-size="14.00"> v5</text>
<text text-anchor="start" x="28.5" y="-735.3" font-family="Times,serif" font-size="14.00"> v6</text>
<text text-anchor="start" x="28.5" y="-720.3" font-family="Times,serif" font-size="14.00"> v7</text>
<text text-anchor="start" x="28.5" y="-705.3" font-family="Times,serif" font-size="14.00"> v8</text>
<text text-anchor="start" x="28.5" y="-690.3" font-family="Times,serif" font-size="14.00"> v9</text>
<text text-anchor="start" x="28.5" y="-675.3" font-family="Times,serif" font-size="14.00"> v10</text>
<text text-anchor="start" x="28.5" y="-660.3" font-family="Times,serif" font-size="14.00"> v11</text>
<text text-anchor="start" x="28.5" y="-645.3" font-family="Times,serif" font-size="14.00"> v12</text>
<text text-anchor="start" x="28.5" y="-630.3" font-family="Times,serif" font-size="14.00"> v13</text>
<text text-anchor="start" x="28.5" y="-615.3" font-family="Times,serif" font-size="14.00"> v14</text>
<text text-anchor="start" x="28.5" y="-600.3" font-family="Times,serif" font-size="14.00"> v15</text>
<text text-anchor="start" x="28.5" y="-585.3" font-family="Times,serif" font-size="14.00"> v16</text>
<text text-anchor="start" x="28.5" y="-570.3" font-family="Times,serif" font-size="14.00"> v17</text>
<text text-anchor="start" x="28.5" y="-555.3" font-family="Times,serif" font-size="14.00"> v18</text>
<text text-anchor="start" x="28.5" y="-540.3" font-family="Times,serif" font-size="14.00"> v19</text>
<text text-anchor="start" x="28.5" y="-525.3" font-family="Times,serif" font-size="14.00"> v20</text>
<text text-anchor="start" x="28.5" y="-510.3" font-family="Times,serif" font-size="14.00"> v17 = g3</text>
<text text-anchor="start" x="28.5" y="-495.3" font-family="Times,serif" font-size="14.00"> v10 = v17</text>
<text text-anchor="start" x="28.5" y="-480.3" font-family="Times,serif" font-size="14.00"> g3 = PtrToIntCastExpr&lt;int32&gt;(&amp;(v10))</text>
<text text-anchor="start" x="28.5" y="-465.3" font-family="Times,serif" font-size="14.00"> v18 = g5</text>
<text text-anchor="start" x="28.5" y="-450.3" font-family="Times,serif" font-size="14.00"> v1 = IntToPtrCastExpr&lt;ptr&gt;(v18)</text>
<text text-anchor="start" x="28.5" y="-435.3" font-family="Times,serif" font-size="14.00"> v4 = v1</text>
<text text-anchor="start" x="28.5" y="-420.3" font-family="Times,serif" font-size="14.00"> g2 = a1</text>
<text text-anchor="start" x="28.5" y="-405.3" font-family="Times,serif" font-size="14.00"> v20 = *(IntToPtrCastExpr&lt;ptr&gt;((a1 + &#45;176)))</text>
<text text-anchor="start" x="28.5" y="-390.3" font-family="Times,serif" font-size="14.00"> g5 = PtrToIntCastExpr&lt;int32&gt;(&amp;(v4))</text>
<text text-anchor="start" x="28.5" y="-375.3" font-family="Times,serif" font-size="14.00"> function_419fad(IntToPtrCastExpr&lt;ptr&gt;(v20), v1)</text>
</g>
<!-- Node0xf83d6f0&#45;&gt;Node0xf7f77b0 -->
<g id="edge1" class="edge"><title>Node0xf83d6f0&#45;&gt;Node0xf7f77b0</title>
<path fill="none" stroke="black" d="M212.5,-863.387C212.5,-855.596 212.5,-846.322 212.5,-835.983"/>
<polygon fill="black" stroke="black" points="216,-835.759 212.5,-825.759 209,-835.759 216,-835.759"/>
</g>
<!-- Node0xf83d780 -->
<g id="node3" class="node"><title>Node0xf83d780</title>
<polygon fill="none" stroke="black" points="158.5,-293.5 158.5,-329.5 266.5,-329.5 266.5,-293.5 158.5,-293.5"/>
<text text-anchor="start" x="166.5" y="-307.8" font-family="Times,serif" font-size="14.00">if (v18 != 0):</text>
</g>
<!-- Node0xf7f77b0&#45;&gt;Node0xf83d780 -->
<g id="edge2" class="edge"><title>Node0xf7f77b0&#45;&gt;Node0xf83d780</title>
<path fill="none" stroke="black" d="M212.5,-367.401C212.5,-357.091 212.5,-347.778 212.5,-339.873"/>
<polygon fill="black" stroke="black" points="216,-339.678 212.5,-329.678 209,-339.678 216,-339.678"/>
</g>
<!-- Node0xf84c0e0 -->
<g id="node4" class="node"><title>Node0xf84c0e0</title>
<polygon fill="none" stroke="black" points="63.5,-203.5 63.5,-241.5 215.5,-241.5 215.5,-203.5 63.5,-203.5"/>
<text text-anchor="start" x="71.5" y="-226.3" font-family="Times,serif" font-size="14.00">0x41f0c8:</text>
<text text-anchor="start" x="71.5" y="-211.3" font-family="Times,serif" font-size="14.00"> function_419779()</text>
</g>
<!-- Node0xf83d780&#45;&gt;Node0xf84c0e0 -->
<g id="edge3" class="edge"><title>Node0xf83d780&#45;&gt;Node0xf84c0e0</title>
<path fill="none" stroke="black" d="M192.347,-293.227C186.33,-287.668 179.902,-281.309 174.5,-275 167.994,-267.402 161.618,-258.568 156.129,-250.385"/>
<polygon fill="black" stroke="black" points="158.954,-248.309 150.556,-241.85 153.093,-252.136 158.954,-248.309"/>
<text text-anchor="middle" x="206" y="-263.8" font-family="Times,serif" font-size="14.00">v18 != 0</text>
</g>
<!-- Node0xf7dfb30 -->
<g id="node5" class="node"><title>Node0xf7dfb30</title>
<polygon fill="none" stroke="black" points="134.5,-97.5 134.5,-165.5 300.5,-165.5 300.5,-97.5 134.5,-97.5"/>
<text text-anchor="start" x="142.5" y="-150.3" font-family="Times,serif" font-size="14.00">0x41f0d2:</text>
<text text-anchor="start" x="142.5" y="-135.3" font-family="Times,serif" font-size="14.00"> v19 = v10</text>
<text text-anchor="start" x="142.5" y="-120.3" font-family="Times,serif" font-size="14.00"> g3 = v19</text>
<text text-anchor="start" x="142.5" y="-105.3" font-family="Times,serif" font-size="14.00"> return &#45;2147467263</text>
</g>
<!-- Node0xf83d780&#45;&gt;Node0xf7dfb30 -->
<g id="edge4" class="edge"><title>Node0xf83d780&#45;&gt;Node0xf7dfb30</title>
<path fill="none" stroke="black" d="M227.819,-293.236C231.753,-287.775 235.451,-281.468 237.5,-275 247.792,-242.512 241.436,-204.184 233.252,-175.466"/>
<polygon fill="black" stroke="black" points="236.553,-174.29 230.306,-165.734 229.854,-176.319 236.553,-174.29"/>
<text text-anchor="middle" x="277" y="-218.8" font-family="Times,serif" font-size="14.00">v18 == 0</text>
</g>
<!-- Node0xf84c0e0&#45;&gt;Node0xf7dfb30 -->
<g id="edge5" class="edge"><title>Node0xf84c0e0&#45;&gt;Node0xf7dfb30</title>
<path fill="none" stroke="black" d="M155.284,-203.49C162.95,-194.743 172.497,-183.849 181.793,-173.243"/>
<polygon fill="black" stroke="black" points="184.528,-175.432 188.487,-165.605 179.264,-170.818 184.528,-175.432"/>
</g>
<!-- Node0xf7d33e0 -->
<g id="node6" class="node"><title>Node0xf7d33e0</title>
<polygon fill="none" stroke="black" points="190.5,-23.5 190.5,-59.5 244.5,-59.5 244.5,-23.5 190.5,-23.5"/>
<text text-anchor="start" x="198.5" y="-37.8" font-family="Times,serif" font-size="14.00">exit:</text>
</g>
<!-- Node0xf7dfb30&#45;&gt;Node0xf7d33e0 -->
<g id="edge6" class="edge"><title>Node0xf7dfb30&#45;&gt;Node0xf7d33e0</title>
<path fill="none" stroke="black" d="M217.5,-97.4817C217.5,-88.3281 217.5,-78.4972 217.5,-69.7155"/>
<polygon fill="black" stroke="black" points="221,-69.6402 217.5,-59.6402 214,-69.6403 221,-69.6402"/>
</g>
</g>
</svg>
