<?xml version="1.0" encoding="UTF-8" standalone="no"?>
<!DOCTYPE svg PUBLIC "-//W3C//DTD SVG 1.1//EN"
 "http://www.w3.org/Graphics/SVG/1.1/DTD/svg11.dtd">
<!-- Generated by graphviz version 2.38.0 (20140413.2041)
 -->
<!-- Title: Control&#45;flow graph for function &#39;function_423e4a(*a1, *a2)&#39;. Pages: 1 -->
<svg width="510pt" height="1735pt"
 viewBox="0.00 0.00 510.00 1735.00" xmlns="http://www.w3.org/2000/svg" xmlns:xlink="http://www.w3.org/1999/xlink">
<g id="graph0" class="graph" transform="scale(1 1) rotate(0) translate(4 1731)">
<title>Control&#45;flow graph for function &#39;function_423e4a(*a1, *a2)&#39;.</title>
<polygon fill="white" stroke="none" points="-4,4 -4,-1731 506,-1731 506,4 -4,4"/>
<text text-anchor="middle" x="251" y="-7.8" font-family="Times,serif" font-size="14.00">Control&#45;flow graph for function &#39;function_423e4a(*a1, *a2)&#39;.</text>
<!-- Node0xfb238c0 -->
<g id="node1" class="node"><title>Node0xfb238c0</title>
<polygon fill="none" stroke="black" points="299.5,-1673.5 299.5,-1726.5 358.5,-1726.5 358.5,-1673.5 299.5,-1673.5"/>
<text text-anchor="start" x="307.5" y="-1711.3" font-family="Times,serif" font-size="14.00">entry:</text>
<text text-anchor="start" x="307.5" y="-1696.3" font-family="Times,serif" font-size="14.00"> a1</text>
<text text-anchor="start" x="307.5" y="-1681.3" font-family="Times,serif" font-size="14.00"> a2</text>
</g>
<!-- Node0xfb240b0 -->
<g id="node2" class="node"><title>Node0xfb240b0</title>
<polygon fill="none" stroke="black" points="156,-1027.5 156,-1635.5 502,-1635.5 502,-1027.5 156,-1027.5"/>
<text text-anchor="start" x="164" y="-1620.3" font-family="Times,serif" font-size="14.00">v1</text>
<text text-anchor="start" x="164" y="-1605.3" font-family="Times,serif" font-size="14.00"> v2</text>
<text text-anchor="start" x="164" y="-1590.3" font-family="Times,serif" font-size="14.00"> v3</text>
<text text-anchor="start" x="164" y="-1575.3" font-family="Times,serif" font-size="14.00"> v4</text>
<text text-anchor="start" x="164" y="-1560.3" font-family="Times,serif" font-size="14.00"> v5</text>
<text text-anchor="start" x="164" y="-1545.3" font-family="Times,serif" font-size="14.00"> v6</text>
<text text-anchor="start" x="164" y="-1530.3" font-family="Times,serif" font-size="14.00"> v7</text>
<text text-anchor="start" x="164" y="-1515.3" font-family="Times,serif" font-size="14.00"> v8</text>
<text text-anchor="start" x="164" y="-1500.3" font-family="Times,serif" font-size="14.00"> v9</text>
<text text-anchor="start" x="164" y="-1485.3" font-family="Times,serif" font-size="14.00"> v10</text>
<text text-anchor="start" x="164" y="-1470.3" font-family="Times,serif" font-size="14.00"> v11</text>
<text text-anchor="start" x="164" y="-1455.3" font-family="Times,serif" font-size="14.00"> v12</text>
<text text-anchor="start" x="164" y="-1440.3" font-family="Times,serif" font-size="14.00"> v13</text>
<text text-anchor="start" x="164" y="-1425.3" font-family="Times,serif" font-size="14.00"> v14</text>
<text text-anchor="start" x="164" y="-1410.3" font-family="Times,serif" font-size="14.00"> v15</text>
<text text-anchor="start" x="164" y="-1395.3" font-family="Times,serif" font-size="14.00"> v16</text>
<text text-anchor="start" x="164" y="-1380.3" font-family="Times,serif" font-size="14.00"> v17</text>
<text text-anchor="start" x="164" y="-1365.3" font-family="Times,serif" font-size="14.00"> v18</text>
<text text-anchor="start" x="164" y="-1350.3" font-family="Times,serif" font-size="14.00"> result</text>
<text text-anchor="start" x="164" y="-1335.3" font-family="Times,serif" font-size="14.00"> v19</text>
<text text-anchor="start" x="164" y="-1320.3" font-family="Times,serif" font-size="14.00"> v20</text>
<text text-anchor="start" x="164" y="-1305.3" font-family="Times,serif" font-size="14.00"> v21</text>
<text text-anchor="start" x="164" y="-1290.3" font-family="Times,serif" font-size="14.00"> v22</text>
<text text-anchor="start" x="164" y="-1275.3" font-family="Times,serif" font-size="14.00"> v23</text>
<text text-anchor="start" x="164" y="-1260.3" font-family="Times,serif" font-size="14.00"> v24</text>
<text text-anchor="start" x="164" y="-1245.3" font-family="Times,serif" font-size="14.00"> v25</text>
<text text-anchor="start" x="164" y="-1230.3" font-family="Times,serif" font-size="14.00"> v26</text>
<text text-anchor="start" x="164" y="-1215.3" font-family="Times,serif" font-size="14.00"> v27</text>
<text text-anchor="start" x="164" y="-1200.3" font-family="Times,serif" font-size="14.00"> v28</text>
<text text-anchor="start" x="164" y="-1185.3" font-family="Times,serif" font-size="14.00"> v29</text>
<text text-anchor="start" x="164" y="-1170.3" font-family="Times,serif" font-size="14.00"> v30</text>
<text text-anchor="start" x="164" y="-1155.3" font-family="Times,serif" font-size="14.00"> v31</text>
<text text-anchor="start" x="164" y="-1140.3" font-family="Times,serif" font-size="14.00"> v7 = v8</text>
<text text-anchor="start" x="164" y="-1125.3" font-family="Times,serif" font-size="14.00"> v12 = v13</text>
<text text-anchor="start" x="164" y="-1110.3" font-family="Times,serif" font-size="14.00"> v10 = v11</text>
<text text-anchor="start" x="164" y="-1095.3" font-family="Times,serif" font-size="14.00"> g10 = PtrToIntCastExpr&lt;int32&gt;(&amp;(v10))</text>
<text text-anchor="start" x="164" y="-1080.3" font-family="Times,serif" font-size="14.00"> v17 = g5</text>
<text text-anchor="start" x="164" y="-1065.3" font-family="Times,serif" font-size="14.00"> g9 = v17</text>
<text text-anchor="start" x="164" y="-1050.3" font-family="Times,serif" font-size="14.00"> v30 = *(IntToPtrCastExpr&lt;ptr&gt;((v17 + 24)))</text>
<text text-anchor="start" x="164" y="-1035.3" font-family="Times,serif" font-size="14.00"> v18 = v17</text>
</g>
<!-- Node0xfb238c0&#45;&gt;Node0xfb240b0 -->
<g id="edge1" class="edge"><title>Node0xfb238c0&#45;&gt;Node0xfb240b0</title>
<path fill="none" stroke="black" d="M329,-1673.23C329,-1665.51 329,-1656.31 329,-1645.95"/>
<polygon fill="black" stroke="black" points="332.5,-1645.69 329,-1635.69 325.5,-1645.69 332.5,-1645.69"/>
</g>
<!-- Node0xfb24160 -->
<g id="node3" class="node"><title>Node0xfb24160</title>
<polygon fill="none" stroke="black" points="272,-953.5 272,-989.5 386,-989.5 386,-953.5 272,-953.5"/>
<text text-anchor="start" x="280" y="-967.8" font-family="Times,serif" font-size="14.00">if (v30 == 1):</text>
</g>
<!-- Node0xfb240b0&#45;&gt;Node0xfb24160 -->
<g id="edge2" class="edge"><title>Node0xfb240b0&#45;&gt;Node0xfb24160</title>
<path fill="none" stroke="black" d="M329,-1027.26C329,-1016.95 329,-1007.73 329,-999.919"/>
<polygon fill="black" stroke="black" points="332.5,-999.86 329,-989.86 325.5,-999.86 332.5,-999.86"/>
</g>
<!-- Node0xfb24fa0 -->
<g id="node4" class="node"><title>Node0xfb24fa0</title>
<polygon fill="none" stroke="black" points="0,-788.5 0,-901.5 346,-901.5 346,-788.5 0,-788.5"/>
<text text-anchor="start" x="8" y="-886.3" font-family="Times,serif" font-size="14.00">0x423e53:</text>
<text text-anchor="start" x="8" y="-871.3" font-family="Times,serif" font-size="14.00"> v26 = *(IntToPtrCastExpr&lt;ptr&gt;((v17 + 20)))</text>
<text text-anchor="start" x="8" y="-856.3" font-family="Times,serif" font-size="14.00"> v12 = IntToPtrCastExpr&lt;ptr&gt;(v26)</text>
<text text-anchor="start" x="8" y="-841.3" font-family="Times,serif" font-size="14.00"> v7 = IntToPtrCastExpr&lt;ptr&gt;(4)</text>
<text text-anchor="start" x="8" y="-826.3" font-family="Times,serif" font-size="14.00"> function_423a53()</text>
<text text-anchor="start" x="8" y="-811.3" font-family="Times,serif" font-size="14.00"> v21 = g9</text>
<text text-anchor="start" x="8" y="-796.3" font-family="Times,serif" font-size="14.00"> v18 = v21</text>
</g>
<!-- Node0xfb24160&#45;&gt;Node0xfb24fa0 -->
<g id="edge3" class="edge"><title>Node0xfb24160&#45;&gt;Node0xfb24fa0</title>
<path fill="none" stroke="black" d="M307.636,-953.45C292.689,-941.521 271.723,-924.788 250.778,-908.073"/>
<polygon fill="black" stroke="black" points="252.763,-905.179 242.764,-901.677 248.397,-910.65 252.763,-905.179"/>
<text text-anchor="middle" x="317.5" y="-923.8" font-family="Times,serif" font-size="14.00">v30 == 1</text>
</g>
<!-- Node0xfb24da0 -->
<g id="node5" class="node"><title>Node0xfb24da0</title>
<polygon fill="none" stroke="black" points="150,-637.5 150,-750.5 496,-750.5 496,-637.5 150,-637.5"/>
<text text-anchor="start" x="158" y="-735.3" font-family="Times,serif" font-size="14.00">0x423e5d:</text>
<text text-anchor="start" x="158" y="-720.3" font-family="Times,serif" font-size="14.00"> v27 = *(IntToPtrCastExpr&lt;ptr&gt;((v18 + 40)))</text>
<text text-anchor="start" x="158" y="-705.3" font-family="Times,serif" font-size="14.00"> g2 = v27</text>
<text text-anchor="start" x="158" y="-690.3" font-family="Times,serif" font-size="14.00"> v28 = *(IntToPtrCastExpr&lt;ptr&gt;((v18 + 44)))</text>
<text text-anchor="start" x="158" y="-675.3" font-family="Times,serif" font-size="14.00"> v25 = (v27 + 4)</text>
<text text-anchor="start" x="158" y="-660.3" font-family="Times,serif" font-size="14.00"> g8 = v25</text>
<text text-anchor="start" x="158" y="-645.3" font-family="Times,serif" font-size="14.00"> v22 = v18</text>
</g>
<!-- Node0xfb24160&#45;&gt;Node0xfb24da0 -->
<g id="edge4" class="edge"><title>Node0xfb24160&#45;&gt;Node0xfb24da0</title>
<path fill="none" stroke="black" d="M345.527,-953.408C349.776,-947.952 353.774,-941.604 356,-935 359.339,-925.095 383.69,-955.651 355,-788 353.456,-778.977 351.155,-769.655 348.483,-760.555"/>
<polygon fill="black" stroke="black" points="351.76,-759.306 345.455,-750.792 345.074,-761.38 351.76,-759.306"/>
<text text-anchor="middle" x="399.5" y="-841.3" font-family="Times,serif" font-size="14.00">v30 != 1</text>
</g>
<!-- Node0xfb24fa0&#45;&gt;Node0xfb24da0 -->
<g id="edge5" class="edge"><title>Node0xfb24fa0&#45;&gt;Node0xfb24da0</title>
<path fill="none" stroke="black" d="M229.281,-788.094C239.182,-778.26 249.547,-767.963 259.625,-757.952"/>
<polygon fill="black" stroke="black" points="262.274,-760.254 266.902,-750.724 257.341,-755.288 262.274,-760.254"/>
</g>
<!-- Node0xfb24f20 -->
<g id="node6" class="node"><title>Node0xfb24f20</title>
<polygon fill="none" stroke="black" points="263.5,-563.5 263.5,-599.5 382.5,-599.5 382.5,-563.5 263.5,-563.5"/>
<text text-anchor="start" x="271.5" y="-577.8" font-family="Times,serif" font-size="14.00">if (v25 &gt; v28):</text>
</g>
<!-- Node0xfb24da0&#45;&gt;Node0xfb24f20 -->
<g id="edge6" class="edge"><title>Node0xfb24da0&#45;&gt;Node0xfb24f20</title>
<path fill="none" stroke="black" d="M323,-637.426C323,-627.86 323,-618.307 323,-609.913"/>
<polygon fill="black" stroke="black" points="326.5,-609.644 323,-599.644 319.5,-609.644 326.5,-609.644"/>
</g>
<!-- Node0xfb25b50 -->
<g id="node7" class="node"><title>Node0xfb25b50</title>
<polygon fill="none" stroke="black" points="72,-353.5 72,-511.5 332,-511.5 332,-353.5 72,-353.5"/>
<text text-anchor="start" x="80" y="-496.3" font-family="Times,serif" font-size="14.00">0x423e6a:</text>
<text text-anchor="start" x="80" y="-481.3" font-family="Times,serif" font-size="14.00"> v1 = ((v27 &#45; v28) + 4)</text>
<text text-anchor="start" x="80" y="-466.3" font-family="Times,serif" font-size="14.00"> g2 = v1</text>
<text text-anchor="start" x="80" y="-451.3" font-family="Times,serif" font-size="14.00"> v3 = IntToPtrCastExpr&lt;ptr&gt;(v1)</text>
<text text-anchor="start" x="80" y="-436.3" font-family="Times,serif" font-size="14.00"> v12 = v3</text>
<text text-anchor="start" x="80" y="-421.3" font-family="Times,serif" font-size="14.00"> g5 = v18</text>
<text text-anchor="start" x="80" y="-406.3" font-family="Times,serif" font-size="14.00"> v2 = v10</text>
<text text-anchor="start" x="80" y="-391.3" font-family="Times,serif" font-size="14.00"> function_423ca7(v3, v2, v14)</text>
<text text-anchor="start" x="80" y="-376.3" font-family="Times,serif" font-size="14.00"> v23 = g9</text>
<text text-anchor="start" x="80" y="-361.3" font-family="Times,serif" font-size="14.00"> v22 = v23</text>
</g>
<!-- Node0xfb24f20&#45;&gt;Node0xfb25b50 -->
<g id="edge7" class="edge"><title>Node0xfb24f20&#45;&gt;Node0xfb25b50</title>
<path fill="none" stroke="black" d="M299.662,-563.153C292.98,-557.689 285.91,-551.401 280,-545 272.761,-537.159 265.648,-528.614 258.842,-519.857"/>
<polygon fill="black" stroke="black" points="261.526,-517.605 252.683,-511.77 255.957,-521.846 261.526,-517.605"/>
<text text-anchor="middle" x="317" y="-533.8" font-family="Times,serif" font-size="14.00">v25 &gt; v28</text>
</g>
<!-- Node0xfb25190 -->
<g id="node8" class="node"><title>Node0xfb25190</title>
<polygon fill="none" stroke="black" points="147,-97.5 147,-315.5 493,-315.5 493,-97.5 147,-97.5"/>
<text text-anchor="start" x="155" y="-300.3" font-family="Times,serif" font-size="14.00">0x423e77:</text>
<text text-anchor="start" x="155" y="-285.3" font-family="Times,serif" font-size="14.00"> v29 = *(IntToPtrCastExpr&lt;ptr&gt;((v22 + 40)))</text>
<text text-anchor="start" x="155" y="-270.3" font-family="Times,serif" font-size="14.00"> g2 = v29</text>
<text text-anchor="start" x="155" y="-255.3" font-family="Times,serif" font-size="14.00"> v19 = *(IntToPtrCastExpr&lt;ptr&gt;(v29))</text>
<text text-anchor="start" x="155" y="-240.3" font-family="Times,serif" font-size="14.00"> g2 = v19</text>
<text text-anchor="start" x="155" y="-225.3" font-family="Times,serif" font-size="14.00"> *(a1) = v19</text>
<text text-anchor="start" x="155" y="-210.3" font-family="Times,serif" font-size="14.00"> v24 = g9</text>
<text text-anchor="start" x="155" y="-195.3" font-family="Times,serif" font-size="14.00"> v4 = IntToPtrCastExpr&lt;ptr&gt;((v24 + 40))</text>
<text text-anchor="start" x="155" y="-180.3" font-family="Times,serif" font-size="14.00"> v31 = *(v4)</text>
<text text-anchor="start" x="155" y="-165.3" font-family="Times,serif" font-size="14.00"> *(v4) = (v31 + 4)</text>
<text text-anchor="start" x="155" y="-150.3" font-family="Times,serif" font-size="14.00"> result = g9</text>
<text text-anchor="start" x="155" y="-135.3" font-family="Times,serif" font-size="14.00"> v20 = v10</text>
<text text-anchor="start" x="155" y="-120.3" font-family="Times,serif" font-size="14.00"> g9 = v20</text>
<text text-anchor="start" x="155" y="-105.3" font-family="Times,serif" font-size="14.00"> return result</text>
</g>
<!-- Node0xfb24f20&#45;&gt;Node0xfb25190 -->
<g id="edge8" class="edge"><title>Node0xfb24f20&#45;&gt;Node0xfb25190</title>
<path fill="none" stroke="black" d="M342.261,-563.411C347.017,-558.043 351.471,-551.742 354,-545 356.342,-538.758 354.244,-536.662 354,-530 351.109,-451.174 349.528,-431.416 341,-353 340.037,-344.149 338.947,-335.009 337.782,-325.823"/>
<polygon fill="black" stroke="black" points="341.246,-325.316 336.491,-315.848 334.304,-326.214 341.246,-325.316"/>
<text text-anchor="middle" x="396" y="-428.8" font-family="Times,serif" font-size="14.00">v25 &lt;= v28</text>
</g>
<!-- Node0xfb25b50&#45;&gt;Node0xfb25190 -->
<g id="edge9" class="edge"><title>Node0xfb25b50&#45;&gt;Node0xfb25190</title>
<path fill="none" stroke="black" d="M243.105,-353.47C248.045,-344.093 253.169,-334.365 258.321,-324.586"/>
<polygon fill="black" stroke="black" points="261.491,-326.077 263.055,-315.598 255.298,-322.815 261.491,-326.077"/>
</g>
<!-- Node0xfb24030 -->
<g id="node9" class="node"><title>Node0xfb24030</title>
<polygon fill="none" stroke="black" points="293,-23.5 293,-59.5 347,-59.5 347,-23.5 293,-23.5"/>
<text text-anchor="start" x="301" y="-37.8" font-family="Times,serif" font-size="14.00">exit:</text>
</g>
<!-- Node0xfb25190&#45;&gt;Node0xfb24030 -->
<g id="edge10" class="edge"><title>Node0xfb25190&#45;&gt;Node0xfb24030</title>
<path fill="none" stroke="black" d="M320,-97.2301C320,-87.2044 320,-77.7868 320,-69.684"/>
<polygon fill="black" stroke="black" points="323.5,-69.516 320,-59.516 316.5,-69.5161 323.5,-69.516"/>
</g>
</g>
</svg>
