<?xml version="1.0" encoding="UTF-8" standalone="no"?>
<!DOCTYPE svg PUBLIC "-//W3C//DTD SVG 1.1//EN"
 "http://www.w3.org/Graphics/SVG/1.1/DTD/svg11.dtd">
<!-- Generated by graphviz version 2.38.0 (20140413.2041)
 -->
<!-- Title: Control&#45;flow graph for function &#39;function_407f70()&#39;. Pages: 1 -->
<svg width="391pt" height="666pt"
 viewBox="0.00 0.00 391.00 666.00" xmlns="http://www.w3.org/2000/svg" xmlns:xlink="http://www.w3.org/1999/xlink">
<g id="graph0" class="graph" transform="scale(1 1) rotate(0) translate(4 662)">
<title>Control&#45;flow graph for function &#39;function_407f70()&#39;.</title>
<polygon fill="white" stroke="none" points="-4,4 -4,-662 387,-662 387,4 -4,4"/>
<text text-anchor="middle" x="191.5" y="-7.8" font-family="Times,serif" font-size="14.00">Control&#45;flow graph for function &#39;function_407f70()&#39;.</text>
<!-- Node0xef31c30 -->
<g id="node1" class="node"><title>Node0xef31c30</title>
<polygon fill="none" stroke="black" points="162,-621.5 162,-657.5 221,-657.5 221,-621.5 162,-621.5"/>
<text text-anchor="start" x="170" y="-635.8" font-family="Times,serif" font-size="14.00">entry:</text>
</g>
<!-- Node0xef302d0 -->
<g id="node2" class="node"><title>Node0xef302d0</title>
<polygon fill="none" stroke="black" points="37,-96.5 37,-584.5 346,-584.5 346,-96.5 37,-96.5"/>
<text text-anchor="start" x="45" y="-569.3" font-family="Times,serif" font-size="14.00">v1</text>
<text text-anchor="start" x="45" y="-554.3" font-family="Times,serif" font-size="14.00"> v2</text>
<text text-anchor="start" x="45" y="-539.3" font-family="Times,serif" font-size="14.00"> v3</text>
<text text-anchor="start" x="45" y="-524.3" font-family="Times,serif" font-size="14.00"> v4</text>
<text text-anchor="start" x="45" y="-509.3" font-family="Times,serif" font-size="14.00"> v5</text>
<text text-anchor="start" x="45" y="-494.3" font-family="Times,serif" font-size="14.00"> v6</text>
<text text-anchor="start" x="45" y="-479.3" font-family="Times,serif" font-size="14.00"> v7</text>
<text text-anchor="start" x="45" y="-464.3" font-family="Times,serif" font-size="14.00"> v8</text>
<text text-anchor="start" x="45" y="-449.3" font-family="Times,serif" font-size="14.00"> v9</text>
<text text-anchor="start" x="45" y="-434.3" font-family="Times,serif" font-size="14.00"> v10</text>
<text text-anchor="start" x="45" y="-419.3" font-family="Times,serif" font-size="14.00"> v11</text>
<text text-anchor="start" x="45" y="-404.3" font-family="Times,serif" font-size="14.00"> v12</text>
<text text-anchor="start" x="45" y="-389.3" font-family="Times,serif" font-size="14.00"> v13</text>
<text text-anchor="start" x="45" y="-374.3" font-family="Times,serif" font-size="14.00"> v14</text>
<text text-anchor="start" x="45" y="-359.3" font-family="Times,serif" font-size="14.00"> v15</text>
<text text-anchor="start" x="45" y="-344.3" font-family="Times,serif" font-size="14.00"> v16</text>
<text text-anchor="start" x="45" y="-329.3" font-family="Times,serif" font-size="14.00"> v17</text>
<text text-anchor="start" x="45" y="-314.3" font-family="Times,serif" font-size="14.00"> v18</text>
<text text-anchor="start" x="45" y="-299.3" font-family="Times,serif" font-size="14.00"> v19</text>
<text text-anchor="start" x="45" y="-284.3" font-family="Times,serif" font-size="14.00"> v20</text>
<text text-anchor="start" x="45" y="-269.3" font-family="Times,serif" font-size="14.00"> v21</text>
<text text-anchor="start" x="45" y="-254.3" font-family="Times,serif" font-size="14.00"> v22</text>
<text text-anchor="start" x="45" y="-239.3" font-family="Times,serif" font-size="14.00"> v23</text>
<text text-anchor="start" x="45" y="-224.3" font-family="Times,serif" font-size="14.00"> v24</text>
<text text-anchor="start" x="45" y="-209.3" font-family="Times,serif" font-size="14.00"> v25</text>
<text text-anchor="start" x="45" y="-194.3" font-family="Times,serif" font-size="14.00"> v26</text>
<text text-anchor="start" x="45" y="-179.3" font-family="Times,serif" font-size="14.00"> v27</text>
<text text-anchor="start" x="45" y="-164.3" font-family="Times,serif" font-size="14.00"> v10 = v14</text>
<text text-anchor="start" x="45" y="-149.3" font-family="Times,serif" font-size="14.00"> g3 = PtrToIntCastExpr&lt;int32&gt;(&amp;(v10))</text>
<text text-anchor="start" x="45" y="-134.3" font-family="Times,serif" font-size="14.00"> g1 = False</text>
<text text-anchor="start" x="45" y="-119.3" font-family="Times,serif" font-size="14.00"> abort()</text>
<text text-anchor="start" x="45" y="-104.3" font-family="Times,serif" font-size="14.00"> # UNREACHABLE</text>
</g>
<!-- Node0xef31c30&#45;&gt;Node0xef302d0 -->
<g id="edge1" class="edge"><title>Node0xef31c30&#45;&gt;Node0xef302d0</title>
<path fill="none" stroke="black" d="M191.5,-621.248C191.5,-614.212 191.5,-605.29 191.5,-594.989"/>
<polygon fill="black" stroke="black" points="195,-594.706 191.5,-584.706 188,-594.706 195,-594.706"/>
</g>
<!-- Node0xef31450 -->
<g id="node3" class="node"><title>Node0xef31450</title>
<polygon fill="none" stroke="black" points="164.5,-23.5 164.5,-59.5 218.5,-59.5 218.5,-23.5 164.5,-23.5"/>
<text text-anchor="start" x="172.5" y="-37.8" font-family="Times,serif" font-size="14.00">exit:</text>
</g>
<!-- Node0xef302d0&#45;&gt;Node0xef31450 -->
<g id="edge2" class="edge"><title>Node0xef302d0&#45;&gt;Node0xef31450</title>
<path fill="none" stroke="black" d="M191.5,-96.2845C191.5,-86.407 191.5,-77.489 191.5,-69.8836"/>
<polygon fill="black" stroke="black" points="195,-69.7211 191.5,-59.7211 188,-69.7212 195,-69.7211"/>
</g>
</g>
</svg>
