<?xml version="1.0" encoding="UTF-8" standalone="no"?>
<!DOCTYPE svg PUBLIC "-//W3C//DTD SVG 1.1//EN"
 "http://www.w3.org/Graphics/SVG/1.1/DTD/svg11.dtd">
<!-- Generated by graphviz version 2.38.0 (20140413.2041)
 -->
<!-- Title: Control&#45;flow graph for function &#39;function_4105e6(a1)&#39;. Pages: 1 -->
<svg width="4855pt" height="3960pt"
 viewBox="0.00 0.00 4855.00 3960.00" xmlns="http://www.w3.org/2000/svg" xmlns:xlink="http://www.w3.org/1999/xlink">
<g id="graph0" class="graph" transform="scale(1 1) rotate(0) translate(4 3956)">
<title>Control&#45;flow graph for function &#39;function_4105e6(a1)&#39;.</title>
<polygon fill="white" stroke="none" points="-4,4 -4,-3956 4851,-3956 4851,4 -4,4"/>
<text text-anchor="middle" x="2423.5" y="-7.8" font-family="Times,serif" font-size="14.00">Control&#45;flow graph for function &#39;function_4105e6(a1)&#39;.</text>
<!-- Node0xf144580 -->
<g id="node1" class="node"><title>Node0xf144580</title>
<polygon fill="none" stroke="black" points="1606,-3913.5 1606,-3951.5 1665,-3951.5 1665,-3913.5 1606,-3913.5"/>
<text text-anchor="start" x="1614" y="-3936.3" font-family="Times,serif" font-size="14.00">entry:</text>
<text text-anchor="start" x="1614" y="-3921.3" font-family="Times,serif" font-size="14.00"> a1</text>
</g>
<!-- Node0xf146ee0 -->
<g id="node2" class="node"><title>Node0xf146ee0</title>
<polygon fill="none" stroke="black" points="1366,-2097.5 1366,-3875.5 1905,-3875.5 1905,-2097.5 1366,-2097.5"/>
<text text-anchor="start" x="1374" y="-3860.3" font-family="Times,serif" font-size="14.00">v1</text>
<text text-anchor="start" x="1374" y="-3845.3" font-family="Times,serif" font-size="14.00"> v2</text>
<text text-anchor="start" x="1374" y="-3830.3" font-family="Times,serif" font-size="14.00"> v3</text>
<text text-anchor="start" x="1374" y="-3815.3" font-family="Times,serif" font-size="14.00"> v4</text>
<text text-anchor="start" x="1374" y="-3800.3" font-family="Times,serif" font-size="14.00"> v5</text>
<text text-anchor="start" x="1374" y="-3785.3" font-family="Times,serif" font-size="14.00"> v6</text>
<text text-anchor="start" x="1374" y="-3770.3" font-family="Times,serif" font-size="14.00"> v7</text>
<text text-anchor="start" x="1374" y="-3755.3" font-family="Times,serif" font-size="14.00"> lParam</text>
<text text-anchor="start" x="1374" y="-3740.3" font-family="Times,serif" font-size="14.00"> v8</text>
<text text-anchor="start" x="1374" y="-3725.3" font-family="Times,serif" font-size="14.00"> v9</text>
<text text-anchor="start" x="1374" y="-3710.3" font-family="Times,serif" font-size="14.00"> v10</text>
<text text-anchor="start" x="1374" y="-3695.3" font-family="Times,serif" font-size="14.00"> v11</text>
<text text-anchor="start" x="1374" y="-3680.3" font-family="Times,serif" font-size="14.00"> v12</text>
<text text-anchor="start" x="1374" y="-3665.3" font-family="Times,serif" font-size="14.00"> v13</text>
<text text-anchor="start" x="1374" y="-3650.3" font-family="Times,serif" font-size="14.00"> v14</text>
<text text-anchor="start" x="1374" y="-3635.3" font-family="Times,serif" font-size="14.00"> v15</text>
<text text-anchor="start" x="1374" y="-3620.3" font-family="Times,serif" font-size="14.00"> v16</text>
<text text-anchor="start" x="1374" y="-3605.3" font-family="Times,serif" font-size="14.00"> v17</text>
<text text-anchor="start" x="1374" y="-3590.3" font-family="Times,serif" font-size="14.00"> v18</text>
<text text-anchor="start" x="1374" y="-3575.3" font-family="Times,serif" font-size="14.00"> v19</text>
<text text-anchor="start" x="1374" y="-3560.3" font-family="Times,serif" font-size="14.00"> v20</text>
<text text-anchor="start" x="1374" y="-3545.3" font-family="Times,serif" font-size="14.00"> v21</text>
<text text-anchor="start" x="1374" y="-3530.3" font-family="Times,serif" font-size="14.00"> nAtom</text>
<text text-anchor="start" x="1374" y="-3515.3" font-family="Times,serif" font-size="14.00"> v22</text>
<text text-anchor="start" x="1374" y="-3500.3" font-family="Times,serif" font-size="14.00"> v23</text>
<text text-anchor="start" x="1374" y="-3485.3" font-family="Times,serif" font-size="14.00"> v24</text>
<text text-anchor="start" x="1374" y="-3470.3" font-family="Times,serif" font-size="14.00"> v25</text>
<text text-anchor="start" x="1374" y="-3455.3" font-family="Times,serif" font-size="14.00"> v26</text>
<text text-anchor="start" x="1374" y="-3440.3" font-family="Times,serif" font-size="14.00"> v27</text>
<text text-anchor="start" x="1374" y="-3425.3" font-family="Times,serif" font-size="14.00"> v28</text>
<text text-anchor="start" x="1374" y="-3410.3" font-family="Times,serif" font-size="14.00"> v29</text>
<text text-anchor="start" x="1374" y="-3395.3" font-family="Times,serif" font-size="14.00"> v30</text>
<text text-anchor="start" x="1374" y="-3380.3" font-family="Times,serif" font-size="14.00"> v31</text>
<text text-anchor="start" x="1374" y="-3365.3" font-family="Times,serif" font-size="14.00"> v32</text>
<text text-anchor="start" x="1374" y="-3350.3" font-family="Times,serif" font-size="14.00"> v33</text>
<text text-anchor="start" x="1374" y="-3335.3" font-family="Times,serif" font-size="14.00"> v34</text>
<text text-anchor="start" x="1374" y="-3320.3" font-family="Times,serif" font-size="14.00"> v35</text>
<text text-anchor="start" x="1374" y="-3305.3" font-family="Times,serif" font-size="14.00"> v36</text>
<text text-anchor="start" x="1374" y="-3290.3" font-family="Times,serif" font-size="14.00"> v37</text>
<text text-anchor="start" x="1374" y="-3275.3" font-family="Times,serif" font-size="14.00"> v38</text>
<text text-anchor="start" x="1374" y="-3260.3" font-family="Times,serif" font-size="14.00"> v39</text>
<text text-anchor="start" x="1374" y="-3245.3" font-family="Times,serif" font-size="14.00"> v40</text>
<text text-anchor="start" x="1374" y="-3230.3" font-family="Times,serif" font-size="14.00"> v41</text>
<text text-anchor="start" x="1374" y="-3215.3" font-family="Times,serif" font-size="14.00"> v42</text>
<text text-anchor="start" x="1374" y="-3200.3" font-family="Times,serif" font-size="14.00"> v43</text>
<text text-anchor="start" x="1374" y="-3185.3" font-family="Times,serif" font-size="14.00"> v44</text>
<text text-anchor="start" x="1374" y="-3170.3" font-family="Times,serif" font-size="14.00"> v45</text>
<text text-anchor="start" x="1374" y="-3155.3" font-family="Times,serif" font-size="14.00"> v46</text>
<text text-anchor="start" x="1374" y="-3140.3" font-family="Times,serif" font-size="14.00"> v47</text>
<text text-anchor="start" x="1374" y="-3125.3" font-family="Times,serif" font-size="14.00"> hWnd4</text>
<text text-anchor="start" x="1374" y="-3110.3" font-family="Times,serif" font-size="14.00"> v48</text>
<text text-anchor="start" x="1374" y="-3095.3" font-family="Times,serif" font-size="14.00"> hWnd2</text>
<text text-anchor="start" x="1374" y="-3080.3" font-family="Times,serif" font-size="14.00"> hWnd3</text>
<text text-anchor="start" x="1374" y="-3065.3" font-family="Times,serif" font-size="14.00"> v49</text>
<text text-anchor="start" x="1374" y="-3050.3" font-family="Times,serif" font-size="14.00"> v50</text>
<text text-anchor="start" x="1374" y="-3035.3" font-family="Times,serif" font-size="14.00"> v51</text>
<text text-anchor="start" x="1374" y="-3020.3" font-family="Times,serif" font-size="14.00"> v52</text>
<text text-anchor="start" x="1374" y="-3005.3" font-family="Times,serif" font-size="14.00"> v53</text>
<text text-anchor="start" x="1374" y="-2990.3" font-family="Times,serif" font-size="14.00"> hWnd5</text>
<text text-anchor="start" x="1374" y="-2975.3" font-family="Times,serif" font-size="14.00"> v54</text>
<text text-anchor="start" x="1374" y="-2960.3" font-family="Times,serif" font-size="14.00"> v55</text>
<text text-anchor="start" x="1374" y="-2945.3" font-family="Times,serif" font-size="14.00"> v56</text>
<text text-anchor="start" x="1374" y="-2930.3" font-family="Times,serif" font-size="14.00"> v57</text>
<text text-anchor="start" x="1374" y="-2915.3" font-family="Times,serif" font-size="14.00"> v58</text>
<text text-anchor="start" x="1374" y="-2900.3" font-family="Times,serif" font-size="14.00"> v59</text>
<text text-anchor="start" x="1374" y="-2885.3" font-family="Times,serif" font-size="14.00"> v60</text>
<text text-anchor="start" x="1374" y="-2870.3" font-family="Times,serif" font-size="14.00"> v61</text>
<text text-anchor="start" x="1374" y="-2855.3" font-family="Times,serif" font-size="14.00"> v62</text>
<text text-anchor="start" x="1374" y="-2840.3" font-family="Times,serif" font-size="14.00"> v63</text>
<text text-anchor="start" x="1374" y="-2825.3" font-family="Times,serif" font-size="14.00"> v64</text>
<text text-anchor="start" x="1374" y="-2810.3" font-family="Times,serif" font-size="14.00"> v65</text>
<text text-anchor="start" x="1374" y="-2795.3" font-family="Times,serif" font-size="14.00"> v66</text>
<text text-anchor="start" x="1374" y="-2780.3" font-family="Times,serif" font-size="14.00"> v67</text>
<text text-anchor="start" x="1374" y="-2765.3" font-family="Times,serif" font-size="14.00"> v68</text>
<text text-anchor="start" x="1374" y="-2750.3" font-family="Times,serif" font-size="14.00"> v69</text>
<text text-anchor="start" x="1374" y="-2735.3" font-family="Times,serif" font-size="14.00"> v70</text>
<text text-anchor="start" x="1374" y="-2720.3" font-family="Times,serif" font-size="14.00"> hWnd</text>
<text text-anchor="start" x="1374" y="-2705.3" font-family="Times,serif" font-size="14.00"> v71</text>
<text text-anchor="start" x="1374" y="-2690.3" font-family="Times,serif" font-size="14.00"> v72</text>
<text text-anchor="start" x="1374" y="-2675.3" font-family="Times,serif" font-size="14.00"> wParam</text>
<text text-anchor="start" x="1374" y="-2660.3" font-family="Times,serif" font-size="14.00"> lpPrevWndFunc</text>
<text text-anchor="start" x="1374" y="-2645.3" font-family="Times,serif" font-size="14.00"> v73</text>
<text text-anchor="start" x="1374" y="-2630.3" font-family="Times,serif" font-size="14.00"> result</text>
<text text-anchor="start" x="1374" y="-2615.3" font-family="Times,serif" font-size="14.00"> dwNewLong</text>
<text text-anchor="start" x="1374" y="-2600.3" font-family="Times,serif" font-size="14.00"> v74</text>
<text text-anchor="start" x="1374" y="-2585.3" font-family="Times,serif" font-size="14.00"> v75</text>
<text text-anchor="start" x="1374" y="-2570.3" font-family="Times,serif" font-size="14.00"> v76</text>
<text text-anchor="start" x="1374" y="-2555.3" font-family="Times,serif" font-size="14.00"> v77</text>
<text text-anchor="start" x="1374" y="-2540.3" font-family="Times,serif" font-size="14.00"> lParam2</text>
<text text-anchor="start" x="1374" y="-2525.3" font-family="Times,serif" font-size="14.00"> wParam2</text>
<text text-anchor="start" x="1374" y="-2510.3" font-family="Times,serif" font-size="14.00"> Msg</text>
<text text-anchor="start" x="1374" y="-2495.3" font-family="Times,serif" font-size="14.00"> lpPrevWndFunc2</text>
<text text-anchor="start" x="1374" y="-2480.3" font-family="Times,serif" font-size="14.00"> v78</text>
<text text-anchor="start" x="1374" y="-2465.3" font-family="Times,serif" font-size="14.00"> v79</text>
<text text-anchor="start" x="1374" y="-2450.3" font-family="Times,serif" font-size="14.00"> v80</text>
<text text-anchor="start" x="1374" y="-2435.3" font-family="Times,serif" font-size="14.00"> v38 = v39</text>
<text text-anchor="start" x="1374" y="-2420.3" font-family="Times,serif" font-size="14.00"> v36 = v37</text>
<text text-anchor="start" x="1374" y="-2405.3" font-family="Times,serif" font-size="14.00"> v34 = v35</text>
<text text-anchor="start" x="1374" y="-2390.3" font-family="Times,serif" font-size="14.00"> v32 = v33</text>
<text text-anchor="start" x="1374" y="-2375.3" font-family="Times,serif" font-size="14.00"> v41 = 64</text>
<text text-anchor="start" x="1374" y="-2360.3" font-family="Times,serif" font-size="14.00"> g2 = 4534147</text>
<text text-anchor="start" x="1374" y="-2345.3" font-family="Times,serif" font-size="14.00"> __EH_prolog3_catch()</text>
<text text-anchor="start" x="1374" y="-2330.3" font-family="Times,serif" font-size="14.00"> v54 = g3</text>
<text text-anchor="start" x="1374" y="-2315.3" font-family="Times,serif" font-size="14.00"> hWnd = *(IntToPtrCastExpr&lt;ptr&gt;((v54 + 8)))</text>
<text text-anchor="start" x="1374" y="-2300.3" font-family="Times,serif" font-size="14.00"> g7 = hWnd</text>
<text text-anchor="start" x="1374" y="-2285.3" font-family="Times,serif" font-size="14.00"> g9 = 4548500</text>
<text text-anchor="start" x="1374" y="-2270.3" font-family="Times,serif" font-size="14.00"> v15 = GetPropA(IntToPtrCastExpr&lt;ptr&gt;(hWnd), &quot;AfxOldWndProc423&quot;)</text>
<text text-anchor="start" x="1374" y="-2255.3" font-family="Times,serif" font-size="14.00"> v55 = g3</text>
<text text-anchor="start" x="1374" y="-2240.3" font-family="Times,serif" font-size="14.00"> *(IntToPtrCastExpr&lt;ptr&gt;((v55 + &#45;20))) = 0</text>
<text text-anchor="start" x="1374" y="-2225.3" font-family="Times,serif" font-size="14.00"> v56 = g3</text>
<text text-anchor="start" x="1374" y="-2210.3" font-family="Times,serif" font-size="14.00"> *(IntToPtrCastExpr&lt;ptr&gt;((v56 + &#45;4))) = 0</text>
<text text-anchor="start" x="1374" y="-2195.3" font-family="Times,serif" font-size="14.00"> v57 = g3</text>
<text text-anchor="start" x="1374" y="-2180.3" font-family="Times,serif" font-size="14.00"> *(IntToPtrCastExpr&lt;ptr&gt;((v57 + &#45;24))) = v15</text>
<text text-anchor="start" x="1374" y="-2165.3" font-family="Times,serif" font-size="14.00"> v58 = g3</text>
<text text-anchor="start" x="1374" y="-2150.3" font-family="Times,serif" font-size="14.00"> v71 = *(IntToPtrCastExpr&lt;ptr&gt;((v58 + 12)))</text>
<text text-anchor="start" x="1374" y="-2135.3" font-family="Times,serif" font-size="14.00"> g4 = 1</text>
<text text-anchor="start" x="1374" y="-2120.3" font-family="Times,serif" font-size="14.00"> v78 = (v71 + &#45;6)</text>
<text text-anchor="start" x="1374" y="-2105.3" font-family="Times,serif" font-size="14.00"> g2 = v78</text>
</g>
<!-- Node0xf144580&#45;&gt;Node0xf146ee0 -->
<g id="edge1" class="edge"><title>Node0xf144580&#45;&gt;Node0xf146ee0</title>
<path fill="none" stroke="black" d="M1635.5,-3913.49C1635.5,-3906.24 1635.5,-3896.95 1635.5,-3885.85"/>
<polygon fill="black" stroke="black" points="1639,-3885.65 1635.5,-3875.65 1632,-3885.65 1639,-3885.65"/>
</g>
<!-- Node0xf13a560 -->
<g id="node3" class="node"><title>Node0xf13a560</title>
<polygon fill="none" stroke="black" points="1578.5,-2021.5 1578.5,-2059.5 1692.5,-2059.5 1692.5,-2021.5 1578.5,-2021.5"/>
<text text-anchor="start" x="1586.5" y="-2044.3" font-family="Times,serif" font-size="14.00">if (v71 == 6):</text>
<text text-anchor="start" x="1586.5" y="-2029.3" font-family="Times,serif" font-size="14.00"> else:</text>
</g>
<!-- Node0xf146ee0&#45;&gt;Node0xf13a560 -->
<g id="edge2" class="edge"><title>Node0xf146ee0&#45;&gt;Node0xf13a560</title>
<path fill="none" stroke="black" d="M1635.5,-2097.38C1635.5,-2086.72 1635.5,-2077.39 1635.5,-2069.57"/>
<polygon fill="black" stroke="black" points="1639,-2069.53 1635.5,-2059.53 1632,-2069.53 1639,-2069.53"/>
</g>
<!-- Node0xf145fc0 -->
<g id="node4" class="node"><title>Node0xf145fc0</title>
<polygon fill="none" stroke="black" points="864,-1706.5 864,-1969.5 1757,-1969.5 1757,-1706.5 864,-1706.5"/>
<text text-anchor="start" x="872" y="-1954.3" font-family="Times,serif" font-size="14.00">0x4106bc:</text>
<text text-anchor="start" x="872" y="-1939.3" font-family="Times,serif" font-size="14.00"> v76 = *(IntToPtrCastExpr&lt;ptr&gt;((v58 + 20)))</text>
<text text-anchor="start" x="872" y="-1924.3" font-family="Times,serif" font-size="14.00"> v25 = function_40ee6b()</text>
<text text-anchor="start" x="872" y="-1909.3" font-family="Times,serif" font-size="14.00"> v50 = g7</text>
<text text-anchor="start" x="872" y="-1894.3" font-family="Times,serif" font-size="14.00"> g9 = v25</text>
<text text-anchor="start" x="872" y="-1879.3" font-family="Times,serif" font-size="14.00"> v26 = function_40ee6b()</text>
<text text-anchor="start" x="872" y="-1864.3" font-family="Times,serif" font-size="14.00"> v12 = IntToPtrCastExpr&lt;ptr&gt;(v26)</text>
<text text-anchor="start" x="872" y="-1849.3" font-family="Times,serif" font-size="14.00"> v51 = g9</text>
<text text-anchor="start" x="872" y="-1834.3" font-family="Times,serif" font-size="14.00"> v65 = g3</text>
<text text-anchor="start" x="872" y="-1819.3" font-family="Times,serif" font-size="14.00"> v77 = *(IntToPtrCastExpr&lt;ptr&gt;((v65 + 16)))</text>
<text text-anchor="start" x="872" y="-1804.3" font-family="Times,serif" font-size="14.00"> v13 = IntToPtrCastExpr&lt;ptr&gt;(v77)</text>
<text text-anchor="start" x="872" y="-1789.3" font-family="Times,serif" font-size="14.00"> v32 = v13</text>
<text text-anchor="start" x="872" y="-1774.3" font-family="Times,serif" font-size="14.00"> v34 = v12</text>
<text text-anchor="start" x="872" y="-1759.3" font-family="Times,serif" font-size="14.00"> v1 = v41</text>
<text text-anchor="start" x="872" y="-1744.3" font-family="Times,serif" font-size="14.00"> function_4104fa(v12, v13, IntToPtrCastExpr&lt;ptr&gt;(v51), IntToPtrCastExpr&lt;ptr&gt;(v50), IntToPtrCastExpr&lt;ptr&gt;(v76), v1)</text>
<text text-anchor="start" x="872" y="-1729.3" font-family="Times,serif" font-size="14.00"> v53 = g4</text>
<text text-anchor="start" x="872" y="-1714.3" font-family="Times,serif" font-size="14.00"> v52 = v53</text>
</g>
<!-- Node0xf13a560&#45;&gt;Node0xf145fc0 -->
<g id="edge3" class="edge"><title>Node0xf13a560&#45;&gt;Node0xf145fc0</title>
<path fill="none" stroke="black" d="M1606.09,-2021.35C1587.1,-2009.64 1560.48,-1993.22 1530.91,-1974.98"/>
<polygon fill="black" stroke="black" points="1532.43,-1971.8 1522.08,-1969.53 1528.75,-1977.76 1532.43,-1971.8"/>
<text text-anchor="middle" x="1608" y="-1991.8" font-family="Times,serif" font-size="14.00">v71 == 6</text>
</g>
<!-- Node0xf146110 -->
<g id="node5" class="node"><title>Node0xf146110</title>
<polygon fill="none" stroke="black" points="1775,-1811.5 1775,-1864.5 1924,-1864.5 1924,-1811.5 1775,-1811.5"/>
<text text-anchor="start" x="1783" y="-1849.3" font-family="Times,serif" font-size="14.00">0x41061c:</text>
<text text-anchor="start" x="1783" y="-1834.3" font-family="Times,serif" font-size="14.00"> v79 = (v71 + &#45;32)</text>
<text text-anchor="start" x="1783" y="-1819.3" font-family="Times,serif" font-size="14.00"> g2 = v79</text>
</g>
<!-- Node0xf13a560&#45;&gt;Node0xf146110 -->
<g id="edge4" class="edge"><title>Node0xf13a560&#45;&gt;Node0xf146110</title>
<path fill="none" stroke="black" d="M1682.45,-2021.42C1708.94,-2009.6 1741.44,-1992.23 1765.5,-1970 1795.19,-1942.58 1818.86,-1902.47 1833.41,-1873.87"/>
<polygon fill="black" stroke="black" points="1836.68,-1875.16 1837.99,-1864.65 1830.41,-1872.05 1836.68,-1875.16"/>
<text text-anchor="middle" x="1772" y="-1991.8" font-family="Times,serif" font-size="14.00">v71 != 6</text>
</g>
<!-- Node0xf147660 -->
<g id="node6" class="node"><title>Node0xf147660</title>
<polygon fill="none" stroke="black" points="1254,-1630.5 1254,-1668.5 1367,-1668.5 1367,-1630.5 1254,-1630.5"/>
<text text-anchor="start" x="1262" y="-1653.3" font-family="Times,serif" font-size="14.00">0x4106d6:</text>
<text text-anchor="start" x="1262" y="-1638.3" font-family="Times,serif" font-size="14.00"> if (v52 != 0):</text>
</g>
<!-- Node0xf145fc0&#45;&gt;Node0xf147660 -->
<g id="edge5" class="edge"><title>Node0xf145fc0&#45;&gt;Node0xf147660</title>
<path fill="none" stroke="black" d="M1310.5,-1706.46C1310.5,-1696.36 1310.5,-1686.95 1310.5,-1678.85"/>
<polygon fill="black" stroke="black" points="1314,-1678.66 1310.5,-1668.66 1307,-1678.66 1314,-1678.66"/>
</g>
<!-- Node0xf1475d0 -->
<g id="node7" class="node"><title>Node0xf1475d0</title>
<polygon fill="none" stroke="black" points="1788,-1630.5 1788,-1668.5 1911,-1668.5 1911,-1630.5 1788,-1630.5"/>
<text text-anchor="start" x="1796" y="-1653.3" font-family="Times,serif" font-size="14.00">if (v78 == 26):</text>
<text text-anchor="start" x="1796" y="-1638.3" font-family="Times,serif" font-size="14.00"> else:</text>
</g>
<!-- Node0xf146110&#45;&gt;Node0xf1475d0 -->
<g id="edge6" class="edge"><title>Node0xf146110&#45;&gt;Node0xf1475d0</title>
<path fill="none" stroke="black" d="M1849.5,-1811.46C1849.5,-1776.83 1849.5,-1715.18 1849.5,-1679.06"/>
<polygon fill="black" stroke="black" points="1853,-1678.73 1849.5,-1668.73 1846,-1678.73 1853,-1678.73"/>
</g>
<!-- Node0xf146420 -->
<g id="node8" class="node"><title>Node0xf146420</title>
<polygon fill="none" stroke="black" points="0,-1375.5 0,-1578.5 1313,-1578.5 1313,-1375.5 0,-1375.5"/>
<text text-anchor="start" x="8" y="-1563.3" font-family="Times,serif" font-size="14.00">0x4106da:</text>
<text text-anchor="start" x="8" y="-1548.3" font-family="Times,serif" font-size="14.00"> v66 = g3</text>
<text text-anchor="start" x="8" y="-1533.3" font-family="Times,serif" font-size="14.00"> lParam2 = *(IntToPtrCastExpr&lt;ptr&gt;((v66 + 20)))</text>
<text text-anchor="start" x="8" y="-1518.3" font-family="Times,serif" font-size="14.00"> v36 = IntToPtrCastExpr&lt;ptr&gt;(lParam2)</text>
<text text-anchor="start" x="8" y="-1503.3" font-family="Times,serif" font-size="14.00"> wParam2 = *(IntToPtrCastExpr&lt;ptr&gt;((v66 + 16)))</text>
<text text-anchor="start" x="8" y="-1488.3" font-family="Times,serif" font-size="14.00"> v38 = IntToPtrCastExpr&lt;ptr&gt;(wParam2)</text>
<text text-anchor="start" x="8" y="-1473.3" font-family="Times,serif" font-size="14.00"> Msg = *(IntToPtrCastExpr&lt;ptr&gt;((v66 + 12)))</text>
<text text-anchor="start" x="8" y="-1458.3" font-family="Times,serif" font-size="14.00"> hWnd5 = g7</text>
<text text-anchor="start" x="8" y="-1443.3" font-family="Times,serif" font-size="14.00"> lpPrevWndFunc2 = *(IntToPtrCastExpr&lt;ptr&gt;((v66 + &#45;24)))</text>
<text text-anchor="start" x="8" y="-1428.3" font-family="Times,serif" font-size="14.00"> v28 = CallWindowProcA(IntToPtrCastExpr&lt;ptr&gt;(lpPrevWndFunc2), IntToPtrCastExpr&lt;ptr&gt;(hWnd5), Msg, IntToPtrCastExpr&lt;ptr&gt;(wParam2), IntToPtrCastExpr&lt;ptr&gt;(lParam2))</text>
<text text-anchor="start" x="8" y="-1413.3" font-family="Times,serif" font-size="14.00"> g10 = PtrToIntCastExpr&lt;int32&gt;(&amp;(v34))</text>
<text text-anchor="start" x="8" y="-1398.3" font-family="Times,serif" font-size="14.00"> v67 = g3</text>
<text text-anchor="start" x="8" y="-1383.3" font-family="Times,serif" font-size="14.00"> *(IntToPtrCastExpr&lt;ptr&gt;((v67 + &#45;20))) = v28</text>
</g>
<!-- Node0xf147660&#45;&gt;Node0xf146420 -->
<g id="edge7" class="edge"><title>Node0xf147660&#45;&gt;Node0xf146420</title>
<path fill="none" stroke="black" d="M1253.89,-1633.74C1205.66,-1621.17 1131.66,-1601.87 1051.98,-1581.1"/>
<polygon fill="black" stroke="black" points="1052.79,-1577.7 1042.23,-1578.56 1051.02,-1584.47 1052.79,-1577.7"/>
<text text-anchor="middle" x="1201" y="-1600.8" font-family="Times,serif" font-size="14.00">v52 != 0</text>
</g>
<!-- Node0xf145f60 -->
<g id="node9" class="node"><title>Node0xf145f60</title>
<polygon fill="none" stroke="black" points="492.5,-1036.5 492.5,-1119.5 858.5,-1119.5 858.5,-1036.5 492.5,-1036.5"/>
<text text-anchor="start" x="500.5" y="-1104.3" font-family="Times,serif" font-size="14.00">0x41066c:</text>
<text text-anchor="start" x="500.5" y="-1089.3" font-family="Times,serif" font-size="14.00"> v63 = g3</text>
<text text-anchor="start" x="500.5" y="-1074.3" font-family="Times,serif" font-size="14.00"> result = *(IntToPtrCastExpr&lt;ptr&gt;((v63 + &#45;20)))</text>
<text text-anchor="start" x="500.5" y="-1059.3" font-family="Times,serif" font-size="14.00"> __EH_epilog3()</text>
<text text-anchor="start" x="500.5" y="-1044.3" font-family="Times,serif" font-size="14.00"> return result</text>
</g>
<!-- Node0xf147660&#45;&gt;Node0xf145f60 -->
<g id="edge8" class="edge"><title>Node0xf147660&#45;&gt;Node0xf145f60</title>
<path fill="none" stroke="black" d="M1317.77,-1630.36C1335.22,-1583.66 1374.25,-1457.19 1321.5,-1375 1222.4,-1220.58 1020.39,-1145.68 868.506,-1110.02"/>
<polygon fill="black" stroke="black" points="869.107,-1106.57 858.576,-1107.73 867.532,-1113.39 869.107,-1106.57"/>
<text text-anchor="middle" x="1383" y="-1473.3" font-family="Times,serif" font-size="14.00">v52 == 0</text>
</g>
<!-- Node0xf148800 -->
<g id="node10" class="node"><title>Node0xf148800</title>
<polygon fill="none" stroke="black" points="1385,-1138.5 1385,-1356.5 2118,-1356.5 2118,-1138.5 1385,-1138.5"/>
<text text-anchor="start" x="1393" y="-1341.3" font-family="Times,serif" font-size="14.00">0x41069b:</text>
<text text-anchor="start" x="1393" y="-1326.3" font-family="Times,serif" font-size="14.00"> v23 = function_40ee6b()</text>
<text text-anchor="start" x="1393" y="-1311.3" font-family="Times,serif" font-size="14.00"> v11 = IntToPtrCastExpr&lt;ptr&gt;(v23)</text>
<text text-anchor="start" x="1393" y="-1296.3" font-family="Times,serif" font-size="14.00"> v64 = g3</text>
<text text-anchor="start" x="1393" y="-1281.3" font-family="Times,serif" font-size="14.00"> v70 = (v64 + 20)</text>
<text text-anchor="start" x="1393" y="-1266.3" font-family="Times,serif" font-size="14.00"> v74 = *(IntToPtrCastExpr&lt;ptr&gt;(v70))</text>
<text text-anchor="start" x="1393" y="-1251.3" font-family="Times,serif" font-size="14.00"> v75 = *(IntToPtrCastExpr&lt;ptr&gt;(v70))</text>
<text text-anchor="start" x="1393" y="-1236.3" font-family="Times,serif" font-size="14.00"> v29 = ExtCastExpr&lt;int32&gt;(v75)</text>
<text text-anchor="start" x="1393" y="-1221.3" font-family="Times,serif" font-size="14.00"> g5 = v29</text>
<text text-anchor="start" x="1393" y="-1206.3" font-family="Times,serif" font-size="14.00"> v32 = v11</text>
<text text-anchor="start" x="1393" y="-1191.3" font-family="Times,serif" font-size="14.00"> v24 = function_410570(v11, IntToPtrCastExpr&lt;ptr&gt;(v29), IntToPtrCastExpr&lt;ptr&gt;((v74 / 65536)))</text>
<text text-anchor="start" x="1393" y="-1176.3" font-family="Times,serif" font-size="14.00"> v49 = ExtCastExpr&lt;int32&gt;((v24 == 0))</text>
<text text-anchor="start" x="1393" y="-1161.3" font-family="Times,serif" font-size="14.00"> g4 = v49</text>
<text text-anchor="start" x="1393" y="-1146.3" font-family="Times,serif" font-size="14.00"> v52 = v49</text>
</g>
<!-- Node0xf1475d0&#45;&gt;Node0xf148800 -->
<g id="edge9" class="edge"><title>Node0xf1475d0&#45;&gt;Node0xf148800</title>
<path fill="none" stroke="black" d="M1845.03,-1630.27C1833.79,-1584.37 1803.54,-1460.93 1780.47,-1366.73"/>
<polygon fill="black" stroke="black" points="1783.82,-1365.72 1778.04,-1356.84 1777.02,-1367.39 1783.82,-1365.72"/>
<text text-anchor="middle" x="1878.5" y="-1600.8" font-family="Times,serif" font-size="14.00">v78 == 26</text>
</g>
<!-- Node0xf148db0 -->
<g id="node11" class="node"><title>Node0xf148db0</title>
<polygon fill="none" stroke="black" points="2375.5,-1450.5 2375.5,-1503.5 2533.5,-1503.5 2533.5,-1450.5 2375.5,-1450.5"/>
<text text-anchor="start" x="2383.5" y="-1488.3" font-family="Times,serif" font-size="14.00">0x410621:</text>
<text text-anchor="start" x="2383.5" y="-1473.3" font-family="Times,serif" font-size="14.00"> v80 = (v71 + &#45;130)</text>
<text text-anchor="start" x="2383.5" y="-1458.3" font-family="Times,serif" font-size="14.00"> g2 = v80</text>
</g>
<!-- Node0xf1475d0&#45;&gt;Node0xf148db0 -->
<g id="edge10" class="edge"><title>Node0xf1475d0&#45;&gt;Node0xf148db0</title>
<path fill="none" stroke="black" d="M1911.12,-1631.13C2018.6,-1600.85 2240.72,-1538.25 2365.11,-1503.19"/>
<polygon fill="black" stroke="black" points="2366.33,-1506.49 2375,-1500.4 2364.43,-1499.75 2366.33,-1506.49"/>
<text text-anchor="middle" x="2064.5" y="-1600.8" font-family="Times,serif" font-size="14.00">v78 != 26</text>
</g>
<!-- Node0xf146420&#45;&gt;Node0xf145f60 -->
<g id="edge11" class="edge"><title>Node0xf146420&#45;&gt;Node0xf145f60</title>
<path fill="none" stroke="black" d="M661.319,-1375.31C665.06,-1297.13 670.093,-1191.97 673.048,-1130.24"/>
<polygon fill="black" stroke="black" points="676.557,-1130.13 673.539,-1119.97 669.565,-1129.79 676.557,-1130.13"/>
</g>
<!-- Node0xf146e80 -->
<g id="node12" class="node"><title>Node0xf146e80</title>
<polygon fill="none" stroke="black" points="1717.5,-23.5 1717.5,-59.5 1771.5,-59.5 1771.5,-23.5 1717.5,-23.5"/>
<text text-anchor="start" x="1725.5" y="-37.8" font-family="Times,serif" font-size="14.00">exit:</text>
</g>
<!-- Node0xf145f60&#45;&gt;Node0xf146e80 -->
<g id="edge12" class="edge"><title>Node0xf145f60&#45;&gt;Node0xf146e80</title>
<path fill="none" stroke="black" d="M675.5,-1036.33C675.5,-1015.45 675.5,-989.617 675.5,-966.5 675.5,-966.5 675.5,-966.5 675.5,-393 675.5,-261.174 600.716,-189.643 694.5,-97 731.265,-60.6824 1524.84,-45.9679 1707.32,-43.0579"/>
<polygon fill="black" stroke="black" points="1707.54,-46.5549 1717.49,-42.898 1707.43,-39.5558 1707.54,-46.5549"/>
</g>
<!-- Node0xf148a60 -->
<g id="node13" class="node"><title>Node0xf148a60</title>
<polygon fill="none" stroke="black" points="1685,-742.5 1685,-780.5 1804,-780.5 1804,-742.5 1685,-742.5"/>
<text text-anchor="start" x="1693" y="-765.3" font-family="Times,serif" font-size="14.00">0x4106d6:</text>
<text text-anchor="start" x="1693" y="-750.3" font-family="Times,serif" font-size="14.00"> if (v52 == 0):</text>
</g>
<!-- Node0xf148800&#45;&gt;Node0xf148a60 -->
<g id="edge13" class="edge"><title>Node0xf148800&#45;&gt;Node0xf148a60</title>
<path fill="none" stroke="black" d="M1749.94,-1138.48C1748.31,-1026.06 1745.87,-857.293 1744.91,-790.835"/>
<polygon fill="black" stroke="black" points="1748.41,-790.663 1744.76,-780.714 1741.41,-790.764 1748.41,-790.663"/>
</g>
<!-- Node0xf148e10 -->
<g id="node14" class="node"><title>Node0xf148e10</title>
<polygon fill="none" stroke="black" points="2811,-1059 2811,-1097 2934,-1097 2934,-1059 2811,-1059"/>
<text text-anchor="start" x="2819" y="-1081.8" font-family="Times,serif" font-size="14.00">if (v79 == 98):</text>
<text text-anchor="start" x="2819" y="-1066.8" font-family="Times,serif" font-size="14.00"> else:</text>
</g>
<!-- Node0xf148db0&#45;&gt;Node0xf148e10 -->
<g id="edge14" class="edge"><title>Node0xf148db0&#45;&gt;Node0xf148e10</title>
<path fill="none" stroke="black" d="M2481.6,-1450.26C2557.36,-1378.31 2770.67,-1175.72 2845.86,-1104.3"/>
<polygon fill="black" stroke="black" points="2848.67,-1106.46 2853.51,-1097.03 2843.85,-1101.38 2848.67,-1106.46"/>
</g>
<!-- Node0xf146240 -->
<g id="node15" class="node"><title>Node0xf146240</title>
<polygon fill="none" stroke="black" points="703.5,-352.5 703.5,-435.5 1069.5,-435.5 1069.5,-352.5 703.5,-352.5"/>
<text text-anchor="start" x="711.5" y="-420.3" font-family="Times,serif" font-size="14.00">0x41066c:</text>
<text text-anchor="start" x="711.5" y="-405.3" font-family="Times,serif" font-size="14.00"> v63 = g3</text>
<text text-anchor="start" x="711.5" y="-390.3" font-family="Times,serif" font-size="14.00"> result = *(IntToPtrCastExpr&lt;ptr&gt;((v63 + &#45;20)))</text>
<text text-anchor="start" x="711.5" y="-375.3" font-family="Times,serif" font-size="14.00"> __EH_epilog3()</text>
<text text-anchor="start" x="711.5" y="-360.3" font-family="Times,serif" font-size="14.00"> return result</text>
</g>
<!-- Node0xf148a60&#45;&gt;Node0xf146240 -->
<g id="edge15" class="edge"><title>Node0xf148a60&#45;&gt;Node0xf146240</title>
<path fill="none" stroke="black" d="M1684.95,-760.728C1541.16,-760.272 1179.42,-752.832 1078.5,-691 985.781,-634.195 929.328,-513.839 903.428,-445.384"/>
<polygon fill="black" stroke="black" points="906.586,-443.833 899.828,-435.674 900.023,-446.267 906.586,-443.833"/>
<text text-anchor="middle" x="1202" y="-712.8" font-family="Times,serif" font-size="14.00">v52 == 0</text>
</g>
<!-- Node0xf146350 -->
<g id="node16" class="node"><title>Node0xf146350</title>
<polygon fill="none" stroke="black" points="1088,-262.5 1088,-525.5 2401,-525.5 2401,-262.5 1088,-262.5"/>
<text text-anchor="start" x="1096" y="-510.3" font-family="Times,serif" font-size="14.00">0x4106da:</text>
<text text-anchor="start" x="1096" y="-495.3" font-family="Times,serif" font-size="14.00"> v66 = g3</text>
<text text-anchor="start" x="1096" y="-480.3" font-family="Times,serif" font-size="14.00"> lParam2 = *(IntToPtrCastExpr&lt;ptr&gt;((v66 + 20)))</text>
<text text-anchor="start" x="1096" y="-465.3" font-family="Times,serif" font-size="14.00"> v36 = IntToPtrCastExpr&lt;ptr&gt;(lParam2)</text>
<text text-anchor="start" x="1096" y="-450.3" font-family="Times,serif" font-size="14.00"> wParam2 = *(IntToPtrCastExpr&lt;ptr&gt;((v66 + 16)))</text>
<text text-anchor="start" x="1096" y="-435.3" font-family="Times,serif" font-size="14.00"> v38 = IntToPtrCastExpr&lt;ptr&gt;(wParam2)</text>
<text text-anchor="start" x="1096" y="-420.3" font-family="Times,serif" font-size="14.00"> Msg = *(IntToPtrCastExpr&lt;ptr&gt;((v66 + 12)))</text>
<text text-anchor="start" x="1096" y="-405.3" font-family="Times,serif" font-size="14.00"> hWnd5 = g7</text>
<text text-anchor="start" x="1096" y="-390.3" font-family="Times,serif" font-size="14.00"> lpPrevWndFunc2 = *(IntToPtrCastExpr&lt;ptr&gt;((v66 + &#45;24)))</text>
<text text-anchor="start" x="1096" y="-375.3" font-family="Times,serif" font-size="14.00"> v28 = CallWindowProcA(IntToPtrCastExpr&lt;ptr&gt;(lpPrevWndFunc2), IntToPtrCastExpr&lt;ptr&gt;(hWnd5), Msg, IntToPtrCastExpr&lt;ptr&gt;(wParam2), IntToPtrCastExpr&lt;ptr&gt;(lParam2))</text>
<text text-anchor="start" x="1096" y="-360.3" font-family="Times,serif" font-size="14.00"> g10 = PtrToIntCastExpr&lt;int32&gt;(&amp;(v34))</text>
<text text-anchor="start" x="1096" y="-345.3" font-family="Times,serif" font-size="14.00"> v67 = g3</text>
<text text-anchor="start" x="1096" y="-330.3" font-family="Times,serif" font-size="14.00"> *(IntToPtrCastExpr&lt;ptr&gt;((v67 + &#45;20))) = v28</text>
<text text-anchor="start" x="1096" y="-315.3" font-family="Times,serif" font-size="14.00"> v63 = g3</text>
<text text-anchor="start" x="1096" y="-300.3" font-family="Times,serif" font-size="14.00"> result = *(IntToPtrCastExpr&lt;ptr&gt;((v63 + &#45;20)))</text>
<text text-anchor="start" x="1096" y="-285.3" font-family="Times,serif" font-size="14.00"> __EH_epilog3()</text>
<text text-anchor="start" x="1096" y="-270.3" font-family="Times,serif" font-size="14.00"> return result</text>
</g>
<!-- Node0xf148a60&#45;&gt;Node0xf146350 -->
<g id="edge16" class="edge"><title>Node0xf148a60&#45;&gt;Node0xf146350</title>
<path fill="none" stroke="black" d="M1744.5,-742.375C1744.5,-704.664 1744.5,-614.693 1744.5,-535.767"/>
<polygon fill="black" stroke="black" points="1748,-535.706 1744.5,-525.706 1741,-535.706 1748,-535.706"/>
<text text-anchor="middle" x="1776" y="-712.8" font-family="Times,serif" font-size="14.00">v52 != 0</text>
</g>
<!-- Node0xf1480b0 -->
<g id="node17" class="node"><title>Node0xf1480b0</title>
<polygon fill="none" stroke="black" points="2606.5,-799.5 2606.5,-927.5 3138.5,-927.5 3138.5,-799.5 2606.5,-799.5"/>
<text text-anchor="start" x="2614.5" y="-912.3" font-family="Times,serif" font-size="14.00">0x410677:</text>
<text text-anchor="start" x="2614.5" y="-897.3" font-family="Times,serif" font-size="14.00"> dwNewLong = *(IntToPtrCastExpr&lt;ptr&gt;((v58 + &#45;24)))</text>
<text text-anchor="start" x="2614.5" y="-882.3" font-family="Times,serif" font-size="14.00"> hWnd2 = g7</text>
<text text-anchor="start" x="2614.5" y="-867.3" font-family="Times,serif" font-size="14.00"> SetWindowLongA(IntToPtrCastExpr&lt;ptr&gt;(hWnd2), &#45;4, dwNewLong)</text>
<text text-anchor="start" x="2614.5" y="-852.3" font-family="Times,serif" font-size="14.00"> hWnd3 = g7</text>
<text text-anchor="start" x="2614.5" y="-837.3" font-family="Times,serif" font-size="14.00"> RemovePropA(IntToPtrCastExpr&lt;ptr&gt;(hWnd3), &quot;AfxOldWndProc423&quot;)</text>
<text text-anchor="start" x="2614.5" y="-822.3" font-family="Times,serif" font-size="14.00"> nAtom = GlobalFindAtomA(&quot;AfxOldWndProc423&quot;)</text>
<text text-anchor="start" x="2614.5" y="-807.3" font-family="Times,serif" font-size="14.00"> GlobalDeleteAtom(nAtom)</text>
</g>
<!-- Node0xf148e10&#45;&gt;Node0xf1480b0 -->
<g id="edge17" class="edge"><title>Node0xf148e10&#45;&gt;Node0xf1480b0</title>
<path fill="none" stroke="black" d="M2872.5,-1058.88C2872.5,-1032.31 2872.5,-981.235 2872.5,-938.108"/>
<polygon fill="black" stroke="black" points="2876,-937.906 2872.5,-927.906 2869,-937.906 2876,-937.906"/>
<text text-anchor="middle" x="2911.5" y="-1006.8" font-family="Times,serif" font-size="14.00">v79 == 98</text>
</g>
<!-- Node0xf148320 -->
<g id="node18" class="node"><title>Node0xf148320</title>
<polygon fill="none" stroke="black" points="2989,-946.5 2989,-984.5 3138,-984.5 3138,-946.5 2989,-946.5"/>
<text text-anchor="start" x="2997" y="-969.3" font-family="Times,serif" font-size="14.00">0x410626:</text>
<text text-anchor="start" x="2997" y="-954.3" font-family="Times,serif" font-size="14.00"> g2 = (v71 + &#45;272)</text>
</g>
<!-- Node0xf148e10&#45;&gt;Node0xf148320 -->
<g id="edge18" class="edge"><title>Node0xf148e10&#45;&gt;Node0xf148320</title>
<path fill="none" stroke="black" d="M2904.04,-1058.75C2936.76,-1039.82 2988.03,-1010.16 3023.56,-989.608"/>
<polygon fill="black" stroke="black" points="3025.33,-992.628 3032.23,-984.59 3021.82,-986.568 3025.33,-992.628"/>
<text text-anchor="middle" x="3031.5" y="-1006.8" font-family="Times,serif" font-size="14.00">v79 != 98</text>
</g>
<!-- Node0xf146240&#45;&gt;Node0xf146e80 -->
<g id="edge19" class="edge"><title>Node0xf146240&#45;&gt;Node0xf146e80</title>
<path fill="none" stroke="black" d="M899.586,-352.351C923.35,-285.909 980.431,-155.587 1078.5,-97 1132.62,-64.6686 1574.98,-47.9501 1707.27,-43.6402"/>
<polygon fill="black" stroke="black" points="1707.44,-47.1366 1717.32,-43.3172 1707.21,-40.1402 1707.44,-47.1366"/>
</g>
<!-- Node0xf146350&#45;&gt;Node0xf146e80 -->
<g id="edge20" class="edge"><title>Node0xf146350&#45;&gt;Node0xf146e80</title>
<path fill="none" stroke="black" d="M1744.5,-262.487C1744.5,-191.913 1744.5,-110.967 1744.5,-69.735"/>
<polygon fill="black" stroke="black" points="1748,-69.6686 1744.5,-59.6687 1741,-69.6687 1748,-69.6686"/>
</g>
<!-- Node0xf148f90 -->
<g id="node19" class="node"><title>Node0xf148f90</title>
<polygon fill="none" stroke="black" points="2419,-262.5 2419,-525.5 3732,-525.5 3732,-262.5 2419,-262.5"/>
<text text-anchor="start" x="2427" y="-510.3" font-family="Times,serif" font-size="14.00">0x4106da:</text>
<text text-anchor="start" x="2427" y="-495.3" font-family="Times,serif" font-size="14.00"> v66 = g3</text>
<text text-anchor="start" x="2427" y="-480.3" font-family="Times,serif" font-size="14.00"> lParam2 = *(IntToPtrCastExpr&lt;ptr&gt;((v66 + 20)))</text>
<text text-anchor="start" x="2427" y="-465.3" font-family="Times,serif" font-size="14.00"> v36 = IntToPtrCastExpr&lt;ptr&gt;(lParam2)</text>
<text text-anchor="start" x="2427" y="-450.3" font-family="Times,serif" font-size="14.00"> wParam2 = *(IntToPtrCastExpr&lt;ptr&gt;((v66 + 16)))</text>
<text text-anchor="start" x="2427" y="-435.3" font-family="Times,serif" font-size="14.00"> v38 = IntToPtrCastExpr&lt;ptr&gt;(wParam2)</text>
<text text-anchor="start" x="2427" y="-420.3" font-family="Times,serif" font-size="14.00"> Msg = *(IntToPtrCastExpr&lt;ptr&gt;((v66 + 12)))</text>
<text text-anchor="start" x="2427" y="-405.3" font-family="Times,serif" font-size="14.00"> hWnd5 = g7</text>
<text text-anchor="start" x="2427" y="-390.3" font-family="Times,serif" font-size="14.00"> lpPrevWndFunc2 = *(IntToPtrCastExpr&lt;ptr&gt;((v66 + &#45;24)))</text>
<text text-anchor="start" x="2427" y="-375.3" font-family="Times,serif" font-size="14.00"> v28 = CallWindowProcA(IntToPtrCastExpr&lt;ptr&gt;(lpPrevWndFunc2), IntToPtrCastExpr&lt;ptr&gt;(hWnd5), Msg, IntToPtrCastExpr&lt;ptr&gt;(wParam2), IntToPtrCastExpr&lt;ptr&gt;(lParam2))</text>
<text text-anchor="start" x="2427" y="-360.3" font-family="Times,serif" font-size="14.00"> g10 = PtrToIntCastExpr&lt;int32&gt;(&amp;(v34))</text>
<text text-anchor="start" x="2427" y="-345.3" font-family="Times,serif" font-size="14.00"> v67 = g3</text>
<text text-anchor="start" x="2427" y="-330.3" font-family="Times,serif" font-size="14.00"> *(IntToPtrCastExpr&lt;ptr&gt;((v67 + &#45;20))) = v28</text>
<text text-anchor="start" x="2427" y="-315.3" font-family="Times,serif" font-size="14.00"> v63 = g3</text>
<text text-anchor="start" x="2427" y="-300.3" font-family="Times,serif" font-size="14.00"> result = *(IntToPtrCastExpr&lt;ptr&gt;((v63 + &#45;20)))</text>
<text text-anchor="start" x="2427" y="-285.3" font-family="Times,serif" font-size="14.00"> __EH_epilog3()</text>
<text text-anchor="start" x="2427" y="-270.3" font-family="Times,serif" font-size="14.00"> return result</text>
</g>
<!-- Node0xf1480b0&#45;&gt;Node0xf148f90 -->
<g id="edge21" class="edge"><title>Node0xf1480b0&#45;&gt;Node0xf148f90</title>
<path fill="none" stroke="black" d="M2899.88,-799.451C2929.14,-732.051 2976.49,-623.017 3014.65,-535.134"/>
<polygon fill="black" stroke="black" points="3017.89,-536.452 3018.67,-525.885 3011.47,-533.664 3017.89,-536.452"/>
</g>
<!-- Node0xf1483b0 -->
<g id="node20" class="node"><title>Node0xf1483b0</title>
<polygon fill="none" stroke="black" points="3087.5,-743.5 3087.5,-779.5 3219.5,-779.5 3219.5,-743.5 3087.5,-743.5"/>
<text text-anchor="start" x="3095.5" y="-757.8" font-family="Times,serif" font-size="14.00">if (v80 == 142):</text>
</g>
<!-- Node0xf148320&#45;&gt;Node0xf1483b0 -->
<g id="edge22" class="edge"><title>Node0xf148320&#45;&gt;Node0xf1483b0</title>
<path fill="none" stroke="black" d="M3119.03,-946.488C3127,-941.657 3134.26,-935.591 3139.5,-928 3167.98,-886.696 3164.22,-825.083 3158.88,-789.85"/>
<polygon fill="black" stroke="black" points="3162.3,-789.102 3157.21,-779.814 3155.4,-790.253 3162.3,-789.102"/>
</g>
<!-- Node0xf148f90&#45;&gt;Node0xf146e80 -->
<g id="edge23" class="edge"><title>Node0xf148f90&#45;&gt;Node0xf146e80</title>
<path fill="none" stroke="black" d="M2835.11,-262.364C2711.75,-201.515 2556.96,-134.432 2410.5,-97 2290.07,-66.2226 1904.63,-48.7843 1782.2,-43.9182"/>
<polygon fill="black" stroke="black" points="1781.98,-40.4069 1771.85,-43.5119 1781.7,-47.4015 1781.98,-40.4069"/>
</g>
<!-- Node0xf1483b0&#45;&gt;Node0xf148f90 -->
<g id="edge25" class="edge"><title>Node0xf1483b0&#45;&gt;Node0xf148f90</title>
<path fill="none" stroke="black" d="M3149.84,-743.361C3141.93,-706.277 3122.56,-615.505 3105.57,-535.918"/>
<polygon fill="black" stroke="black" points="3108.92,-534.822 3103.41,-525.772 3102.07,-536.283 3108.92,-534.822"/>
<text text-anchor="middle" x="3185" y="-712.8" font-family="Times,serif" font-size="14.00">v80 != 142</text>
</g>
<!-- Node0xf148530 -->
<g id="node21" class="node"><title>Node0xf148530</title>
<polygon fill="none" stroke="black" points="3750,-97.5 3750,-690.5 4847,-690.5 4847,-97.5 3750,-97.5"/>
<text text-anchor="start" x="3758" y="-675.3" font-family="Times,serif" font-size="14.00">0x410631:</text>
<text text-anchor="start" x="3758" y="-660.3" font-family="Times,serif" font-size="14.00"> v16 = function_40ee6b()</text>
<text text-anchor="start" x="3758" y="-645.3" font-family="Times,serif" font-size="14.00"> g9 = v16</text>
<text text-anchor="start" x="3758" y="-630.3" font-family="Times,serif" font-size="14.00"> v59 = g3</text>
<text text-anchor="start" x="3758" y="-615.3" font-family="Times,serif" font-size="14.00"> v68 = (v59 + &#45;48)</text>
<text text-anchor="start" x="3758" y="-600.3" font-family="Times,serif" font-size="14.00"> g2 = v68</text>
<text text-anchor="start" x="3758" y="-585.3" font-family="Times,serif" font-size="14.00"> v7 = IntToPtrCastExpr&lt;ptr&gt;(v16)</text>
<text text-anchor="start" x="3758" y="-570.3" font-family="Times,serif" font-size="14.00"> v32 = v7</text>
<text text-anchor="start" x="3758" y="-555.3" font-family="Times,serif" font-size="14.00"> function_40db81(v7, IntToPtrCastExpr&lt;ptr&gt;(v68), IntToPtrCastExpr&lt;ptr&gt;((v59 + &#45;32)))</text>
<text text-anchor="start" x="3758" y="-540.3" font-family="Times,serif" font-size="14.00"> v60 = g3</text>
<text text-anchor="start" x="3758" y="-525.3" font-family="Times,serif" font-size="14.00"> v72 = *(IntToPtrCastExpr&lt;ptr&gt;((v60 + 20)))</text>
<text text-anchor="start" x="3758" y="-510.3" font-family="Times,serif" font-size="14.00"> lParam = IntToPtrCastExpr&lt;ptr&gt;(v72)</text>
<text text-anchor="start" x="3758" y="-495.3" font-family="Times,serif" font-size="14.00"> v34 = lParam</text>
<text text-anchor="start" x="3758" y="-480.3" font-family="Times,serif" font-size="14.00"> wParam = *(IntToPtrCastExpr&lt;ptr&gt;((v60 + 16)))</text>
<text text-anchor="start" x="3758" y="-465.3" font-family="Times,serif" font-size="14.00"> v36 = IntToPtrCastExpr&lt;ptr&gt;(wParam)</text>
<text text-anchor="start" x="3758" y="-450.3" font-family="Times,serif" font-size="14.00"> v38 = IntToPtrCastExpr&lt;ptr&gt;(272)</text>
<text text-anchor="start" x="3758" y="-435.3" font-family="Times,serif" font-size="14.00"> hWnd4 = g7</text>
<text text-anchor="start" x="3758" y="-420.3" font-family="Times,serif" font-size="14.00"> lpPrevWndFunc = *(IntToPtrCastExpr&lt;ptr&gt;((v60 + &#45;24)))</text>
<text text-anchor="start" x="3758" y="-405.3" font-family="Times,serif" font-size="14.00"> v18 = CallWindowProcA(IntToPtrCastExpr&lt;ptr&gt;(lpPrevWndFunc), IntToPtrCastExpr&lt;ptr&gt;(hWnd4), 272, IntToPtrCastExpr&lt;ptr&gt;(wParam), lParam)</text>
<text text-anchor="start" x="3758" y="-390.3" font-family="Times,serif" font-size="14.00"> v61 = g3</text>
<text text-anchor="start" x="3758" y="-375.3" font-family="Times,serif" font-size="14.00"> v73 = *(IntToPtrCastExpr&lt;ptr&gt;((v61 + &#45;32)))</text>
<text text-anchor="start" x="3758" y="-360.3" font-family="Times,serif" font-size="14.00"> v34 = IntToPtrCastExpr&lt;ptr&gt;(v73)</text>
<text text-anchor="start" x="3758" y="-345.3" font-family="Times,serif" font-size="14.00"> *(IntToPtrCastExpr&lt;ptr&gt;((v61 + &#45;20))) = v18</text>
<text text-anchor="start" x="3758" y="-330.3" font-family="Times,serif" font-size="14.00"> v62 = g3</text>
<text text-anchor="start" x="3758" y="-315.3" font-family="Times,serif" font-size="14.00"> v69 = (v62 + &#45;48)</text>
<text text-anchor="start" x="3758" y="-300.3" font-family="Times,serif" font-size="14.00"> g2 = v69</text>
<text text-anchor="start" x="3758" y="-285.3" font-family="Times,serif" font-size="14.00"> v9 = IntToPtrCastExpr&lt;ptr&gt;(v69)</text>
<text text-anchor="start" x="3758" y="-270.3" font-family="Times,serif" font-size="14.00"> v36 = v9</text>
<text text-anchor="start" x="3758" y="-255.3" font-family="Times,serif" font-size="14.00"> v48 = g9</text>
<text text-anchor="start" x="3758" y="-240.3" font-family="Times,serif" font-size="14.00"> v10 = IntToPtrCastExpr&lt;ptr&gt;(v48)</text>
<text text-anchor="start" x="3758" y="-225.3" font-family="Times,serif" font-size="14.00"> v38 = v10</text>
<text text-anchor="start" x="3758" y="-210.3" font-family="Times,serif" font-size="14.00"> g10 = PtrToIntCastExpr&lt;int32&gt;(&amp;(v38))</text>
<text text-anchor="start" x="3758" y="-195.3" font-family="Times,serif" font-size="14.00"> v2 = v34</text>
<text text-anchor="start" x="3758" y="-180.3" font-family="Times,serif" font-size="14.00"> v3 = v32</text>
<text text-anchor="start" x="3758" y="-165.3" font-family="Times,serif" font-size="14.00"> function_40f489(v10, v9, v2, v3)</text>
<text text-anchor="start" x="3758" y="-150.3" font-family="Times,serif" font-size="14.00"> v63 = g3</text>
<text text-anchor="start" x="3758" y="-135.3" font-family="Times,serif" font-size="14.00"> result = *(IntToPtrCastExpr&lt;ptr&gt;((v63 + &#45;20)))</text>
<text text-anchor="start" x="3758" y="-120.3" font-family="Times,serif" font-size="14.00"> __EH_epilog3()</text>
<text text-anchor="start" x="3758" y="-105.3" font-family="Times,serif" font-size="14.00"> return result</text>
</g>
<!-- Node0xf1483b0&#45;&gt;Node0xf148530 -->
<g id="edge24" class="edge"><title>Node0xf1483b0&#45;&gt;Node0xf148530</title>
<path fill="none" stroke="black" d="M3219.52,-760.565C3328.19,-758.979 3550.75,-748.579 3739.9,-691.411"/>
<polygon fill="black" stroke="black" points="3741.21,-694.671 3749.74,-688.386 3739.15,-687.98 3741.21,-694.671"/>
<text text-anchor="middle" x="3707" y="-712.8" font-family="Times,serif" font-size="14.00">v80 == 142</text>
</g>
<!-- Node0xf148530&#45;&gt;Node0xf146e80 -->
<g id="edge26" class="edge"><title>Node0xf148530&#45;&gt;Node0xf146e80</title>
<path fill="none" stroke="black" d="M3749.84,-99.2471C3747.06,-98.4823 3744.28,-97.7331 3741.5,-97 3545.3,-45.2532 2039.09,-42.5709 1781.82,-42.4919"/>
<polygon fill="black" stroke="black" points="1781.51,-38.9919 1771.51,-42.4899 1781.51,-45.9919 1781.51,-38.9919"/>
</g>
</g>
</svg>
