<?xml version="1.0" encoding="UTF-8" standalone="no"?>
<!DOCTYPE svg PUBLIC "-//W3C//DTD SVG 1.1//EN"
 "http://www.w3.org/Graphics/SVG/1.1/DTD/svg11.dtd">
<!-- Generated by graphviz version 2.38.0 (20140413.2041)
 -->
<!-- Title: Control&#45;flow graph for function &#39;function_4141b8(a1, *a2, *a3, *a4)&#39;. Pages: 1 -->
<svg width="514pt" height="548pt"
 viewBox="0.00 0.00 514.00 548.00" xmlns="http://www.w3.org/2000/svg" xmlns:xlink="http://www.w3.org/1999/xlink">
<g id="graph0" class="graph" transform="scale(1 1) rotate(0) translate(4 544)">
<title>Control&#45;flow graph for function &#39;function_4141b8(a1, *a2, *a3, *a4)&#39;.</title>
<polygon fill="white" stroke="none" points="-4,4 -4,-544 510,-544 510,4 -4,4"/>
<text text-anchor="middle" x="253" y="-7.8" font-family="Times,serif" font-size="14.00">Control&#45;flow graph for function &#39;function_4141b8(a1, *a2, *a3, *a4)&#39;.</text>
<!-- Node0xf381ac0 -->
<g id="node1" class="node"><title>Node0xf381ac0</title>
<polygon fill="none" stroke="black" points="223.5,-456.5 223.5,-539.5 282.5,-539.5 282.5,-456.5 223.5,-456.5"/>
<text text-anchor="start" x="231.5" y="-524.3" font-family="Times,serif" font-size="14.00">entry:</text>
<text text-anchor="start" x="231.5" y="-509.3" font-family="Times,serif" font-size="14.00"> a1</text>
<text text-anchor="start" x="231.5" y="-494.3" font-family="Times,serif" font-size="14.00"> a2</text>
<text text-anchor="start" x="231.5" y="-479.3" font-family="Times,serif" font-size="14.00"> a3</text>
<text text-anchor="start" x="231.5" y="-464.3" font-family="Times,serif" font-size="14.00"> a4</text>
</g>
<!-- Node0xf382080 -->
<g id="node2" class="node"><title>Node0xf382080</title>
<polygon fill="none" stroke="black" points="10,-96.5 10,-419.5 496,-419.5 496,-96.5 10,-96.5"/>
<text text-anchor="start" x="18" y="-404.3" font-family="Times,serif" font-size="14.00">v1</text>
<text text-anchor="start" x="18" y="-389.3" font-family="Times,serif" font-size="14.00"> v2</text>
<text text-anchor="start" x="18" y="-374.3" font-family="Times,serif" font-size="14.00"> v3</text>
<text text-anchor="start" x="18" y="-359.3" font-family="Times,serif" font-size="14.00"> v4</text>
<text text-anchor="start" x="18" y="-344.3" font-family="Times,serif" font-size="14.00"> v5</text>
<text text-anchor="start" x="18" y="-329.3" font-family="Times,serif" font-size="14.00"> v6</text>
<text text-anchor="start" x="18" y="-314.3" font-family="Times,serif" font-size="14.00"> v7</text>
<text text-anchor="start" x="18" y="-299.3" font-family="Times,serif" font-size="14.00"> v8</text>
<text text-anchor="start" x="18" y="-284.3" font-family="Times,serif" font-size="14.00"> v9</text>
<text text-anchor="start" x="18" y="-269.3" font-family="Times,serif" font-size="14.00"> v10</text>
<text text-anchor="start" x="18" y="-254.3" font-family="Times,serif" font-size="14.00"> v11</text>
<text text-anchor="start" x="18" y="-239.3" font-family="Times,serif" font-size="14.00"> v12</text>
<text text-anchor="start" x="18" y="-224.3" font-family="Times,serif" font-size="14.00"> v13</text>
<text text-anchor="start" x="18" y="-209.3" font-family="Times,serif" font-size="14.00"> v14</text>
<text text-anchor="start" x="18" y="-194.3" font-family="Times,serif" font-size="14.00"> v15</text>
<text text-anchor="start" x="18" y="-179.3" font-family="Times,serif" font-size="14.00"> v6 = v7</text>
<text text-anchor="start" x="18" y="-164.3" font-family="Times,serif" font-size="14.00"> v2 = function_414662(a1, a2, PtrToIntCastExpr&lt;int32&gt;(a3), v9)</text>
<text text-anchor="start" x="18" y="-149.3" font-family="Times,serif" font-size="14.00"> v1 = IntToPtrCastExpr&lt;ptr&gt;(v2)</text>
<text text-anchor="start" x="18" y="-134.3" font-family="Times,serif" font-size="14.00"> v6 = v1</text>
<text text-anchor="start" x="18" y="-119.3" font-family="Times,serif" font-size="14.00"> function_40b7c0(v1)</text>
<text text-anchor="start" x="18" y="-104.3" font-family="Times,serif" font-size="14.00"> return</text>
</g>
<!-- Node0xf381ac0&#45;&gt;Node0xf382080 -->
<g id="edge1" class="edge"><title>Node0xf381ac0&#45;&gt;Node0xf382080</title>
<path fill="none" stroke="black" d="M253,-456.357C253,-448.277 253,-439.329 253,-429.834"/>
<polygon fill="black" stroke="black" points="256.5,-429.755 253,-419.755 249.5,-429.755 256.5,-429.755"/>
</g>
<!-- Node0xf382000 -->
<g id="node3" class="node"><title>Node0xf382000</title>
<polygon fill="none" stroke="black" points="226,-23.5 226,-59.5 280,-59.5 280,-23.5 226,-23.5"/>
<text text-anchor="start" x="234" y="-37.8" font-family="Times,serif" font-size="14.00">exit:</text>
</g>
<!-- Node0xf382080&#45;&gt;Node0xf382000 -->
<g id="edge2" class="edge"><title>Node0xf382080&#45;&gt;Node0xf382000</title>
<path fill="none" stroke="black" d="M253,-96.3505C253,-86.5078 253,-77.4706 253,-69.7249"/>
<polygon fill="black" stroke="black" points="256.5,-69.6852 253,-59.6852 249.5,-69.6852 256.5,-69.6852"/>
</g>
</g>
</svg>
