<?xml version="1.0" encoding="UTF-8" standalone="no"?>
<!DOCTYPE svg PUBLIC "-//W3C//DTD SVG 1.1//EN"
 "http://www.w3.org/Graphics/SVG/1.1/DTD/svg11.dtd">
<!-- Generated by graphviz version 2.38.0 (20140413.2041)
 -->
<!-- Title: Control&#45;flow graph for function &#39;function_41b70e(*a1, *a2)&#39;. Pages: 1 -->
<svg width="842pt" height="3769pt"
 viewBox="0.00 0.00 842.00 3769.00" xmlns="http://www.w3.org/2000/svg" xmlns:xlink="http://www.w3.org/1999/xlink">
<g id="graph0" class="graph" transform="scale(1 1) rotate(0) translate(4 3765)">
<title>Control&#45;flow graph for function &#39;function_41b70e(*a1, *a2)&#39;.</title>
<polygon fill="white" stroke="none" points="-4,4 -4,-3765 838,-3765 838,4 -4,4"/>
<text text-anchor="middle" x="417" y="-7.8" font-family="Times,serif" font-size="14.00">Control&#45;flow graph for function &#39;function_41b70e(*a1, *a2)&#39;.</text>
<!-- Node0xf668ba0 -->
<g id="node1" class="node"><title>Node0xf668ba0</title>
<polygon fill="none" stroke="black" points="582.5,-3707.5 582.5,-3760.5 641.5,-3760.5 641.5,-3707.5 582.5,-3707.5"/>
<text text-anchor="start" x="590.5" y="-3745.3" font-family="Times,serif" font-size="14.00">entry:</text>
<text text-anchor="start" x="590.5" y="-3730.3" font-family="Times,serif" font-size="14.00"> a1</text>
<text text-anchor="start" x="590.5" y="-3715.3" font-family="Times,serif" font-size="14.00"> a2</text>
</g>
<!-- Node0xf66f750 -->
<g id="node2" class="node"><title>Node0xf66f750</title>
<polygon fill="none" stroke="black" points="390,-2506.5 390,-3669.5 834,-3669.5 834,-2506.5 390,-2506.5"/>
<text text-anchor="start" x="398" y="-3654.3" font-family="Times,serif" font-size="14.00">v1</text>
<text text-anchor="start" x="398" y="-3639.3" font-family="Times,serif" font-size="14.00"> v2</text>
<text text-anchor="start" x="398" y="-3624.3" font-family="Times,serif" font-size="14.00"> v3</text>
<text text-anchor="start" x="398" y="-3609.3" font-family="Times,serif" font-size="14.00"> v4</text>
<text text-anchor="start" x="398" y="-3594.3" font-family="Times,serif" font-size="14.00"> v5</text>
<text text-anchor="start" x="398" y="-3579.3" font-family="Times,serif" font-size="14.00"> v6</text>
<text text-anchor="start" x="398" y="-3564.3" font-family="Times,serif" font-size="14.00"> v7</text>
<text text-anchor="start" x="398" y="-3549.3" font-family="Times,serif" font-size="14.00"> v8</text>
<text text-anchor="start" x="398" y="-3534.3" font-family="Times,serif" font-size="14.00"> v9</text>
<text text-anchor="start" x="398" y="-3519.3" font-family="Times,serif" font-size="14.00"> v10</text>
<text text-anchor="start" x="398" y="-3504.3" font-family="Times,serif" font-size="14.00"> v11</text>
<text text-anchor="start" x="398" y="-3489.3" font-family="Times,serif" font-size="14.00"> v12</text>
<text text-anchor="start" x="398" y="-3474.3" font-family="Times,serif" font-size="14.00"> v13</text>
<text text-anchor="start" x="398" y="-3459.3" font-family="Times,serif" font-size="14.00"> v14</text>
<text text-anchor="start" x="398" y="-3444.3" font-family="Times,serif" font-size="14.00"> v15</text>
<text text-anchor="start" x="398" y="-3429.3" font-family="Times,serif" font-size="14.00"> v16</text>
<text text-anchor="start" x="398" y="-3414.3" font-family="Times,serif" font-size="14.00"> v17</text>
<text text-anchor="start" x="398" y="-3399.3" font-family="Times,serif" font-size="14.00"> v18</text>
<text text-anchor="start" x="398" y="-3384.3" font-family="Times,serif" font-size="14.00"> v19</text>
<text text-anchor="start" x="398" y="-3369.3" font-family="Times,serif" font-size="14.00"> v20</text>
<text text-anchor="start" x="398" y="-3354.3" font-family="Times,serif" font-size="14.00"> v21</text>
<text text-anchor="start" x="398" y="-3339.3" font-family="Times,serif" font-size="14.00"> v22</text>
<text text-anchor="start" x="398" y="-3324.3" font-family="Times,serif" font-size="14.00"> v23</text>
<text text-anchor="start" x="398" y="-3309.3" font-family="Times,serif" font-size="14.00"> v24</text>
<text text-anchor="start" x="398" y="-3294.3" font-family="Times,serif" font-size="14.00"> v25</text>
<text text-anchor="start" x="398" y="-3279.3" font-family="Times,serif" font-size="14.00"> v26</text>
<text text-anchor="start" x="398" y="-3264.3" font-family="Times,serif" font-size="14.00"> v27</text>
<text text-anchor="start" x="398" y="-3249.3" font-family="Times,serif" font-size="14.00"> v28</text>
<text text-anchor="start" x="398" y="-3234.3" font-family="Times,serif" font-size="14.00"> v29</text>
<text text-anchor="start" x="398" y="-3219.3" font-family="Times,serif" font-size="14.00"> v30</text>
<text text-anchor="start" x="398" y="-3204.3" font-family="Times,serif" font-size="14.00"> v31</text>
<text text-anchor="start" x="398" y="-3189.3" font-family="Times,serif" font-size="14.00"> v32</text>
<text text-anchor="start" x="398" y="-3174.3" font-family="Times,serif" font-size="14.00"> v33</text>
<text text-anchor="start" x="398" y="-3159.3" font-family="Times,serif" font-size="14.00"> v34</text>
<text text-anchor="start" x="398" y="-3144.3" font-family="Times,serif" font-size="14.00"> v35</text>
<text text-anchor="start" x="398" y="-3129.3" font-family="Times,serif" font-size="14.00"> v36</text>
<text text-anchor="start" x="398" y="-3114.3" font-family="Times,serif" font-size="14.00"> v37</text>
<text text-anchor="start" x="398" y="-3099.3" font-family="Times,serif" font-size="14.00"> v38</text>
<text text-anchor="start" x="398" y="-3084.3" font-family="Times,serif" font-size="14.00"> v39</text>
<text text-anchor="start" x="398" y="-3069.3" font-family="Times,serif" font-size="14.00"> v40</text>
<text text-anchor="start" x="398" y="-3054.3" font-family="Times,serif" font-size="14.00"> v41</text>
<text text-anchor="start" x="398" y="-3039.3" font-family="Times,serif" font-size="14.00"> v42</text>
<text text-anchor="start" x="398" y="-3024.3" font-family="Times,serif" font-size="14.00"> v43</text>
<text text-anchor="start" x="398" y="-3009.3" font-family="Times,serif" font-size="14.00"> v44</text>
<text text-anchor="start" x="398" y="-2994.3" font-family="Times,serif" font-size="14.00"> v45</text>
<text text-anchor="start" x="398" y="-2979.3" font-family="Times,serif" font-size="14.00"> v46</text>
<text text-anchor="start" x="398" y="-2964.3" font-family="Times,serif" font-size="14.00"> v47</text>
<text text-anchor="start" x="398" y="-2949.3" font-family="Times,serif" font-size="14.00"> v48</text>
<text text-anchor="start" x="398" y="-2934.3" font-family="Times,serif" font-size="14.00"> v49</text>
<text text-anchor="start" x="398" y="-2919.3" font-family="Times,serif" font-size="14.00"> v50</text>
<text text-anchor="start" x="398" y="-2904.3" font-family="Times,serif" font-size="14.00"> v51</text>
<text text-anchor="start" x="398" y="-2889.3" font-family="Times,serif" font-size="14.00"> v52</text>
<text text-anchor="start" x="398" y="-2874.3" font-family="Times,serif" font-size="14.00"> v53</text>
<text text-anchor="start" x="398" y="-2859.3" font-family="Times,serif" font-size="14.00"> v15 = v16</text>
<text text-anchor="start" x="398" y="-2844.3" font-family="Times,serif" font-size="14.00"> v11 = v12</text>
<text text-anchor="start" x="398" y="-2829.3" font-family="Times,serif" font-size="14.00"> v20 = v21</text>
<text text-anchor="start" x="398" y="-2814.3" font-family="Times,serif" font-size="14.00"> v18 = v19</text>
<text text-anchor="start" x="398" y="-2799.3" font-family="Times,serif" font-size="14.00"> v24 = v25</text>
<text text-anchor="start" x="398" y="-2784.3" font-family="Times,serif" font-size="14.00"> v24 = a2</text>
<text text-anchor="start" x="398" y="-2769.3" font-family="Times,serif" font-size="14.00"> g3 = PtrToIntCastExpr&lt;int32&gt;(&amp;(v18))</text>
<text text-anchor="start" x="398" y="-2754.3" font-family="Times,serif" font-size="14.00"> v30 = g5</text>
<text text-anchor="start" x="398" y="-2739.3" font-family="Times,serif" font-size="14.00"> v20 = IntToPtrCastExpr&lt;ptr&gt;(v30)</text>
<text text-anchor="start" x="398" y="-2724.3" font-family="Times,serif" font-size="14.00"> v36 = *(IntToPtrCastExpr&lt;ptr&gt;(v30))</text>
<text text-anchor="start" x="398" y="-2709.3" font-family="Times,serif" font-size="14.00"> g2 = v36</text>
<text text-anchor="start" x="398" y="-2694.3" font-family="Times,serif" font-size="14.00"> v31 = g9</text>
<text text-anchor="start" x="398" y="-2679.3" font-family="Times,serif" font-size="14.00"> v32 = g7</text>
<text text-anchor="start" x="398" y="-2664.3" font-family="Times,serif" font-size="14.00"> v11 = v32</text>
<text text-anchor="start" x="398" y="-2649.3" font-family="Times,serif" font-size="14.00"> g10 = PtrToIntCastExpr&lt;int32&gt;(&amp;(v11))</text>
<text text-anchor="start" x="398" y="-2634.3" font-family="Times,serif" font-size="14.00"> v53 = *(IntToPtrCastExpr&lt;ptr&gt;((v36 + 56)))</text>
<text text-anchor="start" x="398" y="-2619.3" font-family="Times,serif" font-size="14.00"> IntToPtrCastExpr&lt;ptr&gt;(v53)(v32, v31, v30, v30, v19, v22)</text>
<text text-anchor="start" x="398" y="-2604.3" font-family="Times,serif" font-size="14.00"> v33 = g2</text>
<text text-anchor="start" x="398" y="-2589.3" font-family="Times,serif" font-size="14.00"> g7 = v33</text>
<text text-anchor="start" x="398" y="-2574.3" font-family="Times,serif" font-size="14.00"> v6 = PtrToIntCastExpr&lt;int32&gt;(&amp;(v20))</text>
<text text-anchor="start" x="398" y="-2559.3" font-family="Times,serif" font-size="14.00"> v7 = PtrToIntCastExpr&lt;int32&gt;(&amp;(v15))</text>
<text text-anchor="start" x="398" y="-2544.3" font-family="Times,serif" font-size="14.00"> v3 = PtrToIntCastExpr&lt;int32&gt;(a1)</text>
<text text-anchor="start" x="398" y="-2529.3" font-family="Times,serif" font-size="14.00"> v4 = PtrToIntCastExpr&lt;int32&gt;(v13)</text>
<text text-anchor="start" x="398" y="-2514.3" font-family="Times,serif" font-size="14.00"> v41 = v33</text>
</g>
<!-- Node0xf668ba0&#45;&gt;Node0xf66f750 -->
<g id="edge1" class="edge"><title>Node0xf668ba0&#45;&gt;Node0xf66f750</title>
<path fill="none" stroke="black" d="M612,-3707.36C612,-3699.66 612,-3690.39 612,-3679.79"/>
<polygon fill="black" stroke="black" points="615.5,-3679.68 612,-3669.68 608.5,-3679.68 615.5,-3679.68"/>
</g>
<!-- Node0xf66bf70 -->
<g id="node3" class="node"><title>Node0xf66bf70</title>
<polygon fill="none" stroke="black" points="563.5,-2432.5 563.5,-2468.5 660.5,-2468.5 660.5,-2432.5 563.5,-2432.5"/>
<text text-anchor="start" x="571.5" y="-2446.8" font-family="Times,serif" font-size="14.00">while True:</text>
</g>
<!-- Node0xf66f750&#45;&gt;Node0xf66bf70 -->
<g id="edge2" class="edge"><title>Node0xf66f750&#45;&gt;Node0xf66bf70</title>
<path fill="none" stroke="black" d="M612,-2506.23C612,-2495.88 612,-2486.76 612,-2479.08"/>
<polygon fill="black" stroke="black" points="615.5,-2478.88 612,-2468.88 608.5,-2478.88 615.5,-2478.88"/>
</g>
<!-- Node0xf665ba0 -->
<g id="node4" class="node"><title>Node0xf665ba0</title>
<polygon fill="none" stroke="black" points="308.5,-2312.5 308.5,-2380.5 645.5,-2380.5 645.5,-2312.5 308.5,-2312.5"/>
<text text-anchor="start" x="316.5" y="-2365.3" font-family="Times,serif" font-size="14.00">0x41b71f:</text>
<text text-anchor="start" x="316.5" y="-2350.3" font-family="Times,serif" font-size="14.00"> v50 = *(IntToPtrCastExpr&lt;ptr&gt;((v41 + 4)))</text>
<text text-anchor="start" x="316.5" y="-2335.3" font-family="Times,serif" font-size="14.00"> v45 = *(IntToPtrCastExpr&lt;ptr&gt;(v50))</text>
<text text-anchor="start" x="316.5" y="-2320.3" font-family="Times,serif" font-size="14.00"> v27 = v50</text>
</g>
<!-- Node0xf66bf70&#45;&gt;Node0xf665ba0 -->
<g id="edge3" class="edge"><title>Node0xf66bf70&#45;&gt;Node0xf665ba0</title>
<path fill="none" stroke="black" d="M589.404,-2432.43C572.904,-2419.96 549.853,-2402.54 528.917,-2386.73"/>
<polygon fill="black" stroke="black" points="530.801,-2383.76 520.712,-2380.53 526.581,-2389.35 530.801,-2383.76"/>
<text text-anchor="middle" x="582" y="-2402.8" font-family="Times,serif" font-size="14.00">True</text>
</g>
<!-- Node0xf665c90 -->
<g id="node5" class="node"><title>Node0xf665c90</title>
<polygon fill="none" stroke="black" points="423,-2238.5 423,-2274.5 531,-2274.5 531,-2238.5 423,-2238.5"/>
<text text-anchor="start" x="431" y="-2252.8" font-family="Times,serif" font-size="14.00">if (v45 != 0):</text>
</g>
<!-- Node0xf665ba0&#45;&gt;Node0xf665c90 -->
<g id="edge4" class="edge"><title>Node0xf665ba0&#45;&gt;Node0xf665c90</title>
<path fill="none" stroke="black" d="M477,-2312.48C477,-2303.33 477,-2293.5 477,-2284.72"/>
<polygon fill="black" stroke="black" points="480.5,-2284.64 477,-2274.64 473.5,-2284.64 480.5,-2284.64"/>
</g>
<!-- Node0xf66b6d0 -->
<g id="node6" class="node"><title>Node0xf66b6d0</title>
<polygon fill="none" stroke="black" points="393,-2150.5 393,-2186.5 483,-2186.5 483,-2150.5 393,-2150.5"/>
<text text-anchor="start" x="401" y="-2164.8" font-family="Times,serif" font-size="14.00">v26 = v50</text>
</g>
<!-- Node0xf665c90&#45;&gt;Node0xf66b6d0 -->
<g id="edge5" class="edge"><title>Node0xf665c90&#45;&gt;Node0xf66b6d0</title>
<path fill="none" stroke="black" d="M452.773,-2238.34C447.243,-2233.13 442.09,-2226.93 439,-2220 435.807,-2212.84 434.722,-2204.53 434.661,-2196.74"/>
<polygon fill="black" stroke="black" points="438.165,-2196.74 435.113,-2186.59 431.172,-2196.43 438.165,-2196.74"/>
<text text-anchor="middle" x="470.5" y="-2208.8" font-family="Times,serif" font-size="14.00">v45 != 0</text>
</g>
<!-- Node0xf6670e0 -->
<g id="node7" class="node"><title>Node0xf6670e0</title>
<polygon fill="none" stroke="black" points="256.5,-1596.5 256.5,-1679.5 639.5,-1679.5 639.5,-1596.5 256.5,-1596.5"/>
<text text-anchor="start" x="264.5" y="-1664.3" font-family="Times,serif" font-size="14.00">0x41b72c:</text>
<text text-anchor="start" x="264.5" y="-1649.3" font-family="Times,serif" font-size="14.00"> v46 = (v27 + 4)</text>
<text text-anchor="start" x="264.5" y="-1634.3" font-family="Times,serif" font-size="14.00"> g9 = v46</text>
<text text-anchor="start" x="264.5" y="-1619.3" font-family="Times,serif" font-size="14.00"> v48 = *(&amp;(IntToPtrCastExpr&lt;ptr&gt;(v27)[&#39;1&#39;][v46]))</text>
<text text-anchor="start" x="264.5" y="-1604.3" font-family="Times,serif" font-size="14.00"> v34 = v41</text>
</g>
<!-- Node0xf665c90&#45;&gt;Node0xf6670e0 -->
<g id="edge6" class="edge"><title>Node0xf665c90&#45;&gt;Node0xf6670e0</title>
<path fill="none" stroke="black" d="M490.982,-2238.18C494.97,-2232.62 499.034,-2226.27 502,-2220 511.963,-2198.95 516,-2192.79 516,-2169.5 516,-2169.5 516,-2169.5 516,-1735.5 516,-1718.2 508.604,-1701.81 498.69,-1687.62"/>
<polygon fill="black" stroke="black" points="501.408,-1685.41 492.598,-1679.52 495.816,-1689.62 501.408,-1685.41"/>
<text text-anchor="middle" x="550.5" y="-1941.8" font-family="Times,serif" font-size="14.00">v45 == 0</text>
</g>
<!-- Node0x95d02d0 -->
<g id="node8" class="node"><title>Node0x95d02d0</title>
<polygon fill="none" stroke="black" points="389.5,-2076.5 389.5,-2112.5 486.5,-2112.5 486.5,-2076.5 389.5,-2076.5"/>
<text text-anchor="start" x="397.5" y="-2090.8" font-family="Times,serif" font-size="14.00">while True:</text>
</g>
<!-- Node0xf66b6d0&#45;&gt;Node0x95d02d0 -->
<g id="edge7" class="edge"><title>Node0xf66b6d0&#45;&gt;Node0x95d02d0</title>
<path fill="none" stroke="black" d="M438,-2150.44C438,-2142.31 438,-2132.38 438,-2123.2"/>
<polygon fill="black" stroke="black" points="441.5,-2122.94 438,-2112.94 434.5,-2122.94 441.5,-2122.94"/>
</g>
<!-- Node0xf66bda0 -->
<g id="node9" class="node"><title>Node0xf66bda0</title>
<polygon fill="none" stroke="black" points="391.5,-1522.5 391.5,-1558.5 504.5,-1558.5 504.5,-1522.5 391.5,-1522.5"/>
<text text-anchor="start" x="399.5" y="-1536.8" font-family="Times,serif" font-size="14.00">if (v48 != &#45;1):</text>
</g>
<!-- Node0xf6670e0&#45;&gt;Node0xf66bda0 -->
<g id="edge8" class="edge"><title>Node0xf6670e0&#45;&gt;Node0xf66bda0</title>
<path fill="none" stroke="black" d="M448,-1596.5C448,-1587.21 448,-1577.54 448,-1568.95"/>
<polygon fill="black" stroke="black" points="451.5,-1568.75 448,-1558.75 444.5,-1568.75 451.5,-1568.75"/>
</g>
<!-- Node0xf66fb50 -->
<g id="node10" class="node"><title>Node0xf66fb50</title>
<polygon fill="none" stroke="black" points="162.5,-1971.5 162.5,-2024.5 449.5,-2024.5 449.5,-1971.5 162.5,-1971.5"/>
<text text-anchor="start" x="170.5" y="-2009.3" font-family="Times,serif" font-size="14.00">0x41b724:</text>
<text text-anchor="start" x="170.5" y="-1994.3" font-family="Times,serif" font-size="14.00"> v1 = (v26 + 8)</text>
<text text-anchor="start" x="170.5" y="-1979.3" font-family="Times,serif" font-size="14.00"> v44 = *(IntToPtrCastExpr&lt;ptr&gt;(v1))</text>
</g>
<!-- Node0x95d02d0&#45;&gt;Node0xf66fb50 -->
<g id="edge9" class="edge"><title>Node0x95d02d0&#45;&gt;Node0xf66fb50</title>
<path fill="none" stroke="black" d="M414.096,-2076.39C396.256,-2063.61 371.373,-2045.8 349.978,-2030.48"/>
<polygon fill="black" stroke="black" points="351.835,-2027.51 341.667,-2024.53 347.76,-2033.2 351.835,-2027.51"/>
<text text-anchor="middle" x="405" y="-2046.8" font-family="Times,serif" font-size="14.00">True</text>
</g>
<!-- Node0xf66fc20 -->
<g id="node11" class="node"><title>Node0xf66fc20</title>
<polygon fill="none" stroke="black" points="400,-1432.5 400,-1470.5 490,-1470.5 490,-1432.5 400,-1432.5"/>
<text text-anchor="start" x="408" y="-1455.3" font-family="Times,serif" font-size="14.00">v49 = v48</text>
<text text-anchor="start" x="408" y="-1440.3" font-family="Times,serif" font-size="14.00"> v8 = v46</text>
</g>
<!-- Node0xf66bda0&#45;&gt;Node0xf66fc20 -->
<g id="edge10" class="edge"><title>Node0xf66bda0&#45;&gt;Node0xf66fc20</title>
<path fill="none" stroke="black" d="M446.896,-1522.17C446.562,-1516.39 446.224,-1509.92 446,-1504 445.715,-1496.47 445.509,-1488.31 445.361,-1480.76"/>
<polygon fill="black" stroke="black" points="448.858,-1480.56 445.189,-1470.62 441.859,-1480.68 448.858,-1480.56"/>
<text text-anchor="middle" x="479.5" y="-1492.8" font-family="Times,serif" font-size="14.00">v48 != &#45;1</text>
</g>
<!-- Node0xf66f330 -->
<g id="node12" class="node"><title>Node0xf66f330</title>
<polygon fill="none" stroke="black" points="350,-412.5 350,-465.5 646,-465.5 646,-412.5 350,-412.5"/>
<text text-anchor="start" x="358" y="-450.3" font-family="Times,serif" font-size="14.00">0x41b760:</text>
<text text-anchor="start" x="358" y="-435.3" font-family="Times,serif" font-size="14.00"> v38 = *(IntToPtrCastExpr&lt;ptr&gt;(v34))</text>
<text text-anchor="start" x="358" y="-420.3" font-family="Times,serif" font-size="14.00"> g7 = v38</text>
</g>
<!-- Node0xf66bda0&#45;&gt;Node0xf66f330 -->
<g id="edge11" class="edge"><title>Node0xf66bda0&#45;&gt;Node0xf66f330</title>
<path fill="none" stroke="black" d="M491.243,-1522.31C499.4,-1517.42 507.185,-1511.37 513,-1504 527.695,-1485.38 527,-1476.22 527,-1452.5 527,-1452.5 527,-1452.5 527,-529 527,-510.697 521.387,-491.273 515.1,-475.257"/>
<polygon fill="black" stroke="black" points="518.221,-473.648 511.142,-465.765 511.76,-476.342 518.221,-473.648"/>
<text text-anchor="middle" x="563.5" y="-977.3" font-family="Times,serif" font-size="14.00">v48 == &#45;1</text>
</g>
<!-- Node0xf672cd0 -->
<g id="node13" class="node"><title>Node0xf672cd0</title>
<polygon fill="none" stroke="black" points="251,-1883.5 251,-1919.5 365,-1919.5 365,-1883.5 251,-1883.5"/>
<text text-anchor="start" x="259" y="-1897.8" font-family="Times,serif" font-size="14.00">if (v44 == 0):</text>
</g>
<!-- Node0xf66fb50&#45;&gt;Node0xf672cd0 -->
<g id="edge12" class="edge"><title>Node0xf66fb50&#45;&gt;Node0xf672cd0</title>
<path fill="none" stroke="black" d="M306.547,-1971.18C306.818,-1958.37 307.145,-1942.9 307.42,-1929.88"/>
<polygon fill="black" stroke="black" points="310.925,-1929.71 307.637,-1919.64 303.926,-1929.56 310.925,-1929.71"/>
</g>
<!-- Node0xf66fcc0 -->
<g id="node14" class="node"><title>Node0xf66fcc0</title>
<polygon fill="none" stroke="black" points="396.5,-1358.5 396.5,-1394.5 493.5,-1394.5 493.5,-1358.5 396.5,-1358.5"/>
<text text-anchor="start" x="404.5" y="-1372.8" font-family="Times,serif" font-size="14.00">while True:</text>
</g>
<!-- Node0xf66fc20&#45;&gt;Node0xf66fcc0 -->
<g id="edge13" class="edge"><title>Node0xf66fc20&#45;&gt;Node0xf66fcc0</title>
<path fill="none" stroke="black" d="M445,-1432.46C445,-1424.2 445,-1414.24 445,-1405.07"/>
<polygon fill="black" stroke="black" points="448.5,-1404.83 445,-1394.83 441.5,-1404.83 448.5,-1404.83"/>
</g>
<!-- Node0xf66b760 -->
<g id="node15" class="node"><title>Node0xf66b760</title>
<polygon fill="none" stroke="black" points="445,-338.5 445,-374.5 559,-374.5 559,-338.5 445,-338.5"/>
<text text-anchor="start" x="453" y="-352.8" font-family="Times,serif" font-size="14.00">if (v38 == 0):</text>
</g>
<!-- Node0xf66f330&#45;&gt;Node0xf66b760 -->
<g id="edge14" class="edge"><title>Node0xf66f330&#45;&gt;Node0xf66b760</title>
<path fill="none" stroke="black" d="M499.288,-412.086C499.716,-403.46 500.195,-393.822 500.63,-385.075"/>
<polygon fill="black" stroke="black" points="504.131,-385.135 501.132,-374.974 497.14,-384.787 504.131,-385.135"/>
</g>
<!-- Node0xf673dc0 -->
<g id="node16" class="node"><title>Node0xf673dc0</title>
<polygon fill="none" stroke="black" points="286.5,-1793.5 286.5,-1831.5 367.5,-1831.5 367.5,-1793.5 286.5,-1793.5"/>
<text text-anchor="start" x="294.5" y="-1816.3" font-family="Times,serif" font-size="14.00">v27 = v1</text>
<text text-anchor="start" x="294.5" y="-1801.3" font-family="Times,serif" font-size="14.00"> break</text>
</g>
<!-- Node0xf672cd0&#45;&gt;Node0xf673dc0 -->
<g id="edge15" class="edge"><title>Node0xf672cd0&#45;&gt;Node0xf673dc0</title>
<path fill="none" stroke="black" d="M306.507,-1883.43C306.093,-1873.53 306.343,-1860.91 309,-1850 309.729,-1847.01 310.732,-1843.98 311.894,-1841"/>
<polygon fill="black" stroke="black" points="315.104,-1842.4 316.009,-1831.84 308.718,-1839.53 315.104,-1842.4"/>
<text text-anchor="middle" x="343.5" y="-1853.8" font-family="Times,serif" font-size="14.00">v44 == 0</text>
</g>
<!-- Node0xf6736d0 -->
<g id="node17" class="node"><title>Node0xf6736d0</title>
<polygon fill="none" stroke="black" points="395.5,-1793.5 395.5,-1831.5 478.5,-1831.5 478.5,-1793.5 395.5,-1793.5"/>
<text text-anchor="start" x="403.5" y="-1816.3" font-family="Times,serif" font-size="14.00">v26 = v1</text>
<text text-anchor="start" x="403.5" y="-1801.3" font-family="Times,serif" font-size="14.00"> continue</text>
</g>
<!-- Node0xf672cd0&#45;&gt;Node0xf6736d0 -->
<g id="edge16" class="edge"><title>Node0xf672cd0&#45;&gt;Node0xf6736d0</title>
<path fill="none" stroke="black" d="M346.029,-1883.36C356.682,-1878 368.059,-1871.71 378,-1865 389.473,-1857.26 401.15,-1847.53 411.055,-1838.62"/>
<polygon fill="black" stroke="black" points="413.587,-1841.05 418.581,-1831.71 408.85,-1835.9 413.587,-1841.05"/>
<text text-anchor="middle" x="428.5" y="-1853.8" font-family="Times,serif" font-size="14.00">v44 != 0</text>
</g>
<!-- Node0xf66dd70 -->
<g id="node18" class="node"><title>Node0xf66dd70</title>
<polygon fill="none" stroke="black" points="99,-1208.5 99,-1306.5 453,-1306.5 453,-1208.5 99,-1208.5"/>
<text text-anchor="start" x="107" y="-1291.3" font-family="Times,serif" font-size="14.00">0x41b731:</text>
<text text-anchor="start" x="107" y="-1276.3" font-family="Times,serif" font-size="14.00"> g2 = v49</text>
<text text-anchor="start" x="107" y="-1261.3" font-family="Times,serif" font-size="14.00"> g5 = v30</text>
<text text-anchor="start" x="107" y="-1246.3" font-family="Times,serif" font-size="14.00"> v51 = *(IntToPtrCastExpr&lt;ptr&gt;((v49 + v30)))</text>
<text text-anchor="start" x="107" y="-1231.3" font-family="Times,serif" font-size="14.00"> v5 = IntToPtrCastExpr&lt;ptr&gt;(v51)</text>
<text text-anchor="start" x="107" y="-1216.3" font-family="Times,serif" font-size="14.00"> v42 = v8</text>
</g>
<!-- Node0xf66fcc0&#45;&gt;Node0xf66dd70 -->
<g id="edge17" class="edge"><title>Node0xf66fcc0&#45;&gt;Node0xf66dd70</title>
<path fill="none" stroke="black" d="M420.426,-1358.49C402.819,-1346.3 378.061,-1329.16 354.009,-1312.51"/>
<polygon fill="black" stroke="black" points="355.758,-1309.46 345.544,-1306.65 351.773,-1315.22 355.758,-1309.46"/>
<text text-anchor="middle" x="408" y="-1328.8" font-family="Times,serif" font-size="14.00">True</text>
</g>
<!-- Node0xf66fad0 -->
<g id="node19" class="node"><title>Node0xf66fad0</title>
<polygon fill="none" stroke="black" points="422.5,-248.5 422.5,-286.5 581.5,-286.5 581.5,-248.5 422.5,-248.5"/>
<text text-anchor="start" x="430.5" y="-271.3" font-family="Times,serif" font-size="14.00">break &#45;&gt; 0x41b768:</text>
<text text-anchor="start" x="430.5" y="-256.3" font-family="Times,serif" font-size="14.00"> break</text>
</g>
<!-- Node0xf66b760&#45;&gt;Node0xf66fad0 -->
<g id="edge18" class="edge"><title>Node0xf66b760&#45;&gt;Node0xf66fad0</title>
<path fill="none" stroke="black" d="M502,-338.312C502,-326.511 502,-310.572 502,-296.904"/>
<polygon fill="black" stroke="black" points="505.5,-296.551 502,-286.551 498.5,-296.551 505.5,-296.551"/>
<text text-anchor="middle" x="536.5" y="-308.8" font-family="Times,serif" font-size="14.00">v38 == 0</text>
</g>
<!-- Node0xf66b880 -->
<g id="node20" class="node"><title>Node0xf66b880</title>
<polygon fill="none" stroke="black" points="614,-248.5 614,-286.5 704,-286.5 704,-248.5 614,-248.5"/>
<text text-anchor="start" x="622" y="-271.3" font-family="Times,serif" font-size="14.00">v41 = v38</text>
<text text-anchor="start" x="622" y="-256.3" font-family="Times,serif" font-size="14.00"> continue</text>
</g>
<!-- Node0xf66b760&#45;&gt;Node0xf66b880 -->
<g id="edge19" class="edge"><title>Node0xf66b760&#45;&gt;Node0xf66b880</title>
<path fill="none" stroke="black" d="M537.738,-338.457C549.127,-332.806 561.701,-326.337 573,-320 583.971,-313.847 586.246,-311.525 597,-305 604.058,-300.718 611.604,-296.214 618.916,-291.888"/>
<polygon fill="black" stroke="black" points="621.161,-294.627 627.998,-286.534 617.606,-288.597 621.161,-294.627"/>
<text text-anchor="middle" x="628.5" y="-308.8" font-family="Times,serif" font-size="14.00">v38 != 0</text>
</g>
<!-- Node0xf66b500 -->
<g id="node21" class="node"><title>Node0xf66b500</title>
<polygon fill="none" stroke="black" points="367,-1717.5 367,-1755.5 459,-1755.5 459,-1717.5 367,-1717.5"/>
<text text-anchor="start" x="375" y="-1740.3" font-family="Times,serif" font-size="14.00">0x41b727:</text>
<text text-anchor="start" x="375" y="-1725.3" font-family="Times,serif" font-size="14.00"> v27 = v1</text>
</g>
<!-- Node0xf673dc0&#45;&gt;Node0xf66b500 -->
<g id="edge20" class="edge"><title>Node0xf673dc0&#45;&gt;Node0xf66b500</title>
<path fill="none" stroke="black" d="M348.258,-1793.21C359.089,-1783.89 372.418,-1772.42 384.16,-1762.32"/>
<polygon fill="black" stroke="black" points="386.689,-1764.76 391.986,-1755.58 382.123,-1759.45 386.689,-1764.76"/>
</g>
<!-- Node0xf6736d0&#45;&gt;Node0x95d02d0 -->
<g id="edge21" class="edge"><title>Node0xf6736d0&#45;&gt;Node0x95d02d0</title>
<path fill="none" stroke="black" d="M453.816,-1831.52C457.959,-1837.04 461.828,-1843.41 464,-1850 466.087,-1856.33 464.125,-1858.33 464,-1865 462.666,-1936.15 469.392,-1954.76 458,-2025 455.738,-2038.95 451.521,-2054.07 447.541,-2066.54"/>
<polygon fill="black" stroke="black" points="444.125,-2065.72 444.301,-2076.32 450.769,-2067.93 444.125,-2065.72"/>
</g>
<!-- Node0xf66dea0 -->
<g id="node22" class="node"><title>Node0xf66dea0</title>
<polygon fill="none" stroke="black" points="222,-1134.5 222,-1170.5 330,-1170.5 330,-1134.5 222,-1134.5"/>
<text text-anchor="start" x="230" y="-1148.8" font-family="Times,serif" font-size="14.00">if (v51 != 0):</text>
</g>
<!-- Node0xf66dd70&#45;&gt;Node0xf66dea0 -->
<g id="edge22" class="edge"><title>Node0xf66dd70&#45;&gt;Node0xf66dea0</title>
<path fill="none" stroke="black" d="M276,-1208.32C276,-1198.89 276,-1189.32 276,-1180.87"/>
<polygon fill="black" stroke="black" points="279.5,-1180.86 276,-1170.86 272.5,-1180.86 279.5,-1180.86"/>
</g>
<!-- Node0xf66b200 -->
<g id="node23" class="node"><title>Node0xf66b200</title>
<polygon fill="none" stroke="black" points="454.5,-97.5 454.5,-210.5 549.5,-210.5 549.5,-97.5 454.5,-97.5"/>
<text text-anchor="start" x="462.5" y="-195.3" font-family="Times,serif" font-size="14.00">0x41b768:</text>
<text text-anchor="start" x="462.5" y="-180.3" font-family="Times,serif" font-size="14.00"> v39 = v11</text>
<text text-anchor="start" x="462.5" y="-165.3" font-family="Times,serif" font-size="14.00"> g7 = v39</text>
<text text-anchor="start" x="462.5" y="-150.3" font-family="Times,serif" font-size="14.00"> g9 = v31</text>
<text text-anchor="start" x="462.5" y="-135.3" font-family="Times,serif" font-size="14.00"> v40 = v18</text>
<text text-anchor="start" x="462.5" y="-120.3" font-family="Times,serif" font-size="14.00"> g3 = v40</text>
<text text-anchor="start" x="462.5" y="-105.3" font-family="Times,serif" font-size="14.00"> return 0</text>
</g>
<!-- Node0xf66fad0&#45;&gt;Node0xf66b200 -->
<g id="edge23" class="edge"><title>Node0xf66fad0&#45;&gt;Node0xf66b200</title>
<path fill="none" stroke="black" d="M502,-248.088C502,-240.294 502,-230.699 502,-220.661"/>
<polygon fill="black" stroke="black" points="505.5,-220.525 502,-210.525 498.5,-220.525 505.5,-220.525"/>
</g>
<!-- Node0xf66b880&#45;&gt;Node0xf66bf70 -->
<g id="edge24" class="edge"><title>Node0xf66b880&#45;&gt;Node0xf66bf70</title>
<path fill="none" stroke="black" d="M663.995,-286.674C668.358,-304.167 674,-331.437 674,-355.5 674,-2347.5 674,-2347.5 674,-2347.5 674,-2377.19 654.583,-2405.59 637.482,-2424.85"/>
<polygon fill="black" stroke="black" points="634.835,-2422.56 630.602,-2432.27 639.968,-2427.32 634.835,-2422.56"/>
</g>
<!-- Node0xf66b500&#45;&gt;Node0xf6670e0 -->
<g id="edge25" class="edge"><title>Node0xf66b500&#45;&gt;Node0xf6670e0</title>
<path fill="none" stroke="black" d="M419.583,-1717.35C422.494,-1709.32 426.077,-1699.45 429.705,-1689.44"/>
<polygon fill="black" stroke="black" points="433.057,-1690.46 433.177,-1679.87 426.477,-1688.08 433.057,-1690.46"/>
</g>
<!-- Node0xf673e60 -->
<g id="node24" class="node"><title>Node0xf673e60</title>
<polygon fill="none" stroke="black" points="0,-879.5 0,-1082.5 320,-1082.5 320,-879.5 0,-879.5"/>
<text text-anchor="start" x="8" y="-1067.3" font-family="Times,serif" font-size="14.00">0x41b73d:</text>
<text text-anchor="start" x="8" y="-1052.3" font-family="Times,serif" font-size="14.00"> v37 = *(IntToPtrCastExpr&lt;ptr&gt;(v51))</text>
<text text-anchor="start" x="8" y="-1037.3" font-family="Times,serif" font-size="14.00"> g5 = v37</text>
<text text-anchor="start" x="8" y="-1022.3" font-family="Times,serif" font-size="14.00"> g1 = False</text>
<text text-anchor="start" x="8" y="-1007.3" font-family="Times,serif" font-size="14.00"> g207 = True</text>
<text text-anchor="start" x="8" y="-992.3" font-family="Times,serif" font-size="14.00"> v20 = NULL</text>
<text text-anchor="start" x="8" y="-977.3" font-family="Times,serif" font-size="14.00"> g8 = v6</text>
<text text-anchor="start" x="8" y="-962.3" font-family="Times,serif" font-size="14.00"> v15 = v5</text>
<text text-anchor="start" x="8" y="-947.3" font-family="Times,serif" font-size="14.00"> g10 = v7</text>
<text text-anchor="start" x="8" y="-932.3" font-family="Times,serif" font-size="14.00"> v52 = *(IntToPtrCastExpr&lt;ptr&gt;(v37))</text>
<text text-anchor="start" x="8" y="-917.3" font-family="Times,serif" font-size="14.00"> IntToPtrCastExpr&lt;ptr&gt;(v52)(v51, v3, v4)</text>
<text text-anchor="start" x="8" y="-902.3" font-family="Times,serif" font-size="14.00"> v43 = g9</text>
<text text-anchor="start" x="8" y="-887.3" font-family="Times,serif" font-size="14.00"> v42 = v43</text>
</g>
<!-- Node0xf66dea0&#45;&gt;Node0xf673e60 -->
<g id="edge26" class="edge"><title>Node0xf66dea0&#45;&gt;Node0xf673e60</title>
<path fill="none" stroke="black" d="M264.239,-1134.31C256.666,-1123.25 246.108,-1107.82 234.597,-1091"/>
<polygon fill="black" stroke="black" points="237.415,-1088.92 228.879,-1082.65 231.639,-1092.88 237.415,-1088.92"/>
<text text-anchor="middle" x="282.5" y="-1104.8" font-family="Times,serif" font-size="14.00">v51 != 0</text>
</g>
<!-- Node0xf6738f0 -->
<g id="node25" class="node"><title>Node0xf6738f0</title>
<polygon fill="none" stroke="black" points="238,-773.5 238,-841.5 420,-841.5 420,-773.5 238,-773.5"/>
<text text-anchor="start" x="246" y="-826.3" font-family="Times,serif" font-size="14.00">0x41b758:</text>
<text text-anchor="start" x="246" y="-811.3" font-family="Times,serif" font-size="14.00"> v2 = (v42 + 8)</text>
<text text-anchor="start" x="246" y="-796.3" font-family="Times,serif" font-size="14.00"> g9 = v2</text>
<text text-anchor="start" x="246" y="-781.3" font-family="Times,serif" font-size="14.00"> v47 = *(&amp;(v5[&#39;1&#39;][v2]))</text>
</g>
<!-- Node0xf66dea0&#45;&gt;Node0xf6738f0 -->
<g id="edge27" class="edge"><title>Node0xf66dea0&#45;&gt;Node0xf6738f0</title>
<path fill="none" stroke="black" d="M300.873,-1134.32C307.144,-1129.03 313.395,-1122.8 318,-1116 326.671,-1103.2 326.524,-1098.26 329,-1083 342.124,-1002.13 337.621,-906.078 333.247,-851.71"/>
<polygon fill="black" stroke="black" points="336.734,-851.404 332.408,-841.733 329.758,-851.991 336.734,-851.404"/>
<text text-anchor="middle" x="372.5" y="-977.3" font-family="Times,serif" font-size="14.00">v51 == 0</text>
</g>
<!-- Node0xf66f6f0 -->
<g id="node26" class="node"><title>Node0xf66f6f0</title>
<polygon fill="none" stroke="black" points="475,-23.5 475,-59.5 529,-59.5 529,-23.5 475,-23.5"/>
<text text-anchor="start" x="483" y="-37.8" font-family="Times,serif" font-size="14.00">exit:</text>
</g>
<!-- Node0xf66b200&#45;&gt;Node0xf66f6f0 -->
<g id="edge28" class="edge"><title>Node0xf66b200&#45;&gt;Node0xf66f6f0</title>
<path fill="none" stroke="black" d="M502,-97.4263C502,-87.8599 502,-78.3065 502,-69.9133"/>
<polygon fill="black" stroke="black" points="505.5,-69.6444 502,-59.6444 498.5,-69.6444 505.5,-69.6444"/>
</g>
<!-- Node0xf673e60&#45;&gt;Node0xf6738f0 -->
<g id="edge29" class="edge"><title>Node0xf673e60&#45;&gt;Node0xf6738f0</title>
<path fill="none" stroke="black" d="M259.286,-879.246C269.83,-868.545 280.058,-858.166 289.284,-848.803"/>
<polygon fill="black" stroke="black" points="291.93,-851.105 296.456,-841.526 286.944,-846.192 291.93,-851.105"/>
</g>
<!-- Node0xf673a70 -->
<g id="node27" class="node"><title>Node0xf673a70</title>
<polygon fill="none" stroke="black" points="269.5,-699.5 269.5,-735.5 388.5,-735.5 388.5,-699.5 269.5,-699.5"/>
<text text-anchor="start" x="277.5" y="-713.8" font-family="Times,serif" font-size="14.00">if (v47 == &#45;1):</text>
</g>
<!-- Node0xf6738f0&#45;&gt;Node0xf673a70 -->
<g id="edge30" class="edge"><title>Node0xf6738f0&#45;&gt;Node0xf673a70</title>
<path fill="none" stroke="black" d="M329,-773.482C329,-764.328 329,-754.497 329,-745.715"/>
<polygon fill="black" stroke="black" points="332.5,-745.64 329,-735.64 325.5,-745.64 332.5,-745.64"/>
</g>
<!-- Node0xf673f30 -->
<g id="node28" class="node"><title>Node0xf673f30</title>
<polygon fill="none" stroke="black" points="225.5,-602 225.5,-640 384.5,-640 384.5,-602 225.5,-602"/>
<text text-anchor="start" x="233.5" y="-624.8" font-family="Times,serif" font-size="14.00">break &#45;&gt; 0x41b75b:</text>
<text text-anchor="start" x="233.5" y="-609.8" font-family="Times,serif" font-size="14.00"> break</text>
</g>
<!-- Node0xf673a70&#45;&gt;Node0xf673f30 -->
<g id="edge31" class="edge"><title>Node0xf673a70&#45;&gt;Node0xf673f30</title>
<path fill="none" stroke="black" d="M313.681,-699.236C309.747,-693.775 306.049,-687.468 304,-681 300.933,-671.318 300.391,-660.286 300.879,-650.402"/>
<polygon fill="black" stroke="black" points="304.383,-650.507 301.742,-640.246 297.408,-649.914 304.383,-650.507"/>
<text text-anchor="middle" x="340.5" y="-669.8" font-family="Times,serif" font-size="14.00">v47 == &#45;1</text>
</g>
<!-- Node0xf673d60 -->
<g id="node29" class="node"><title>Node0xf673d60</title>
<polygon fill="none" stroke="black" points="407,-594.5 407,-647.5 497,-647.5 497,-594.5 407,-594.5"/>
<text text-anchor="start" x="415" y="-632.3" font-family="Times,serif" font-size="14.00">v49 = v47</text>
<text text-anchor="start" x="415" y="-617.3" font-family="Times,serif" font-size="14.00"> v8 = v2</text>
<text text-anchor="start" x="415" y="-602.3" font-family="Times,serif" font-size="14.00"> continue</text>
</g>
<!-- Node0xf673a70&#45;&gt;Node0xf673d60 -->
<g id="edge32" class="edge"><title>Node0xf673a70&#45;&gt;Node0xf673d60</title>
<path fill="none" stroke="black" d="M352.542,-699.305C360.361,-693.536 369.089,-687.035 377,-681 388.341,-672.348 400.537,-662.842 411.731,-654.035"/>
<polygon fill="black" stroke="black" points="413.993,-656.709 419.678,-647.768 409.658,-651.212 413.993,-656.709"/>
<text text-anchor="middle" x="429.5" y="-669.8" font-family="Times,serif" font-size="14.00">v47 != &#45;1</text>
</g>
<!-- Node0xf66fa30 -->
<g id="node30" class="node"><title>Node0xf66fa30</title>
<polygon fill="none" stroke="black" points="367.5,-503.5 367.5,-556.5 462.5,-556.5 462.5,-503.5 367.5,-503.5"/>
<text text-anchor="start" x="375.5" y="-541.3" font-family="Times,serif" font-size="14.00">0x41b75b:</text>
<text text-anchor="start" x="375.5" y="-526.3" font-family="Times,serif" font-size="14.00"> v35 = g7</text>
<text text-anchor="start" x="375.5" y="-511.3" font-family="Times,serif" font-size="14.00"> v34 = v35</text>
</g>
<!-- Node0xf673f30&#45;&gt;Node0xf66fa30 -->
<g id="edge33" class="edge"><title>Node0xf673f30&#45;&gt;Node0xf66fa30</title>
<path fill="none" stroke="black" d="M327.26,-601.99C340.946,-590.917 358.884,-576.403 374.971,-563.387"/>
<polygon fill="black" stroke="black" points="377.611,-565.753 383.183,-556.742 373.208,-560.312 377.611,-565.753"/>
</g>
<!-- Node0xf673d60&#45;&gt;Node0xf66fcc0 -->
<g id="edge34" class="edge"><title>Node0xf673d60&#45;&gt;Node0xf66fcc0</title>
<path fill="none" stroke="black" d="M464.467,-647.826C472.327,-666.464 481,-692.474 481,-716.5 481,-1258.5 481,-1258.5 481,-1258.5 481,-1290.67 468.413,-1325.7 458.124,-1348.97"/>
<polygon fill="black" stroke="black" points="454.889,-1347.62 453.899,-1358.17 461.251,-1350.54 454.889,-1347.62"/>
</g>
<!-- Node0xf66fa30&#45;&gt;Node0xf66f330 -->
<g id="edge35" class="edge"><title>Node0xf66fa30&#45;&gt;Node0xf66f330</title>
<path fill="none" stroke="black" d="M439.007,-503.258C447.782,-493.848 457.834,-483.069 467.125,-473.107"/>
<polygon fill="black" stroke="black" points="469.786,-475.385 474.047,-465.685 464.667,-470.611 469.786,-475.385"/>
</g>
</g>
</svg>
