<?xml version="1.0" encoding="UTF-8" standalone="no"?>
<!DOCTYPE svg PUBLIC "-//W3C//DTD SVG 1.1//EN"
 "http://www.w3.org/Graphics/SVG/1.1/DTD/svg11.dtd">
<!-- Generated by graphviz version 2.38.0 (20140413.2041)
 -->
<!-- Title: Control&#45;flow graph for function &#39;function_4178e1(*a1, *a2, **a3, a4)&#39;. Pages: 1 -->
<svg width="1726pt" height="2563pt"
 viewBox="0.00 0.00 1725.50 2563.00" xmlns="http://www.w3.org/2000/svg" xmlns:xlink="http://www.w3.org/1999/xlink">
<g id="graph0" class="graph" transform="scale(1 1) rotate(0) translate(4 2559)">
<title>Control&#45;flow graph for function &#39;function_4178e1(*a1, *a2, **a3, a4)&#39;.</title>
<polygon fill="white" stroke="none" points="-4,4 -4,-2559 1721.5,-2559 1721.5,4 -4,4"/>
<text text-anchor="middle" x="858.75" y="-7.8" font-family="Times,serif" font-size="14.00">Control&#45;flow graph for function &#39;function_4178e1(*a1, *a2, **a3, a4)&#39;.</text>
<!-- Node0xf4ccf30 -->
<g id="node1" class="node"><title>Node0xf4ccf30</title>
<polygon fill="none" stroke="black" points="1440,-2471.5 1440,-2554.5 1499,-2554.5 1499,-2471.5 1440,-2471.5"/>
<text text-anchor="start" x="1448" y="-2539.3" font-family="Times,serif" font-size="14.00">entry:</text>
<text text-anchor="start" x="1448" y="-2524.3" font-family="Times,serif" font-size="14.00"> a1</text>
<text text-anchor="start" x="1448" y="-2509.3" font-family="Times,serif" font-size="14.00"> a2</text>
<text text-anchor="start" x="1448" y="-2494.3" font-family="Times,serif" font-size="14.00"> a3</text>
<text text-anchor="start" x="1448" y="-2479.3" font-family="Times,serif" font-size="14.00"> a4</text>
</g>
<!-- Node0xf4cdbc0 -->
<g id="node2" class="node"><title>Node0xf4cdbc0</title>
<polygon fill="none" stroke="black" points="1315,-1645.5 1315,-2433.5 1624,-2433.5 1624,-1645.5 1315,-1645.5"/>
<text text-anchor="start" x="1323" y="-2418.3" font-family="Times,serif" font-size="14.00">v1</text>
<text text-anchor="start" x="1323" y="-2403.3" font-family="Times,serif" font-size="14.00"> v2</text>
<text text-anchor="start" x="1323" y="-2388.3" font-family="Times,serif" font-size="14.00"> v3</text>
<text text-anchor="start" x="1323" y="-2373.3" font-family="Times,serif" font-size="14.00"> v4</text>
<text text-anchor="start" x="1323" y="-2358.3" font-family="Times,serif" font-size="14.00"> v5</text>
<text text-anchor="start" x="1323" y="-2343.3" font-family="Times,serif" font-size="14.00"> v6</text>
<text text-anchor="start" x="1323" y="-2328.3" font-family="Times,serif" font-size="14.00"> v7</text>
<text text-anchor="start" x="1323" y="-2313.3" font-family="Times,serif" font-size="14.00"> v8</text>
<text text-anchor="start" x="1323" y="-2298.3" font-family="Times,serif" font-size="14.00"> v9</text>
<text text-anchor="start" x="1323" y="-2283.3" font-family="Times,serif" font-size="14.00"> v10</text>
<text text-anchor="start" x="1323" y="-2268.3" font-family="Times,serif" font-size="14.00"> v11</text>
<text text-anchor="start" x="1323" y="-2253.3" font-family="Times,serif" font-size="14.00"> v12</text>
<text text-anchor="start" x="1323" y="-2238.3" font-family="Times,serif" font-size="14.00"> v13</text>
<text text-anchor="start" x="1323" y="-2223.3" font-family="Times,serif" font-size="14.00"> v14</text>
<text text-anchor="start" x="1323" y="-2208.3" font-family="Times,serif" font-size="14.00"> v15</text>
<text text-anchor="start" x="1323" y="-2193.3" font-family="Times,serif" font-size="14.00"> v16</text>
<text text-anchor="start" x="1323" y="-2178.3" font-family="Times,serif" font-size="14.00"> v17</text>
<text text-anchor="start" x="1323" y="-2163.3" font-family="Times,serif" font-size="14.00"> v18</text>
<text text-anchor="start" x="1323" y="-2148.3" font-family="Times,serif" font-size="14.00"> v19</text>
<text text-anchor="start" x="1323" y="-2133.3" font-family="Times,serif" font-size="14.00"> v20</text>
<text text-anchor="start" x="1323" y="-2118.3" font-family="Times,serif" font-size="14.00"> result</text>
<text text-anchor="start" x="1323" y="-2103.3" font-family="Times,serif" font-size="14.00"> v21</text>
<text text-anchor="start" x="1323" y="-2088.3" font-family="Times,serif" font-size="14.00"> v22</text>
<text text-anchor="start" x="1323" y="-2073.3" font-family="Times,serif" font-size="14.00"> v23</text>
<text text-anchor="start" x="1323" y="-2058.3" font-family="Times,serif" font-size="14.00"> v24</text>
<text text-anchor="start" x="1323" y="-2043.3" font-family="Times,serif" font-size="14.00"> v25</text>
<text text-anchor="start" x="1323" y="-2028.3" font-family="Times,serif" font-size="14.00"> v26</text>
<text text-anchor="start" x="1323" y="-2013.3" font-family="Times,serif" font-size="14.00"> v27</text>
<text text-anchor="start" x="1323" y="-1998.3" font-family="Times,serif" font-size="14.00"> v28</text>
<text text-anchor="start" x="1323" y="-1983.3" font-family="Times,serif" font-size="14.00"> v29</text>
<text text-anchor="start" x="1323" y="-1968.3" font-family="Times,serif" font-size="14.00"> v30</text>
<text text-anchor="start" x="1323" y="-1953.3" font-family="Times,serif" font-size="14.00"> v31</text>
<text text-anchor="start" x="1323" y="-1938.3" font-family="Times,serif" font-size="14.00"> v32</text>
<text text-anchor="start" x="1323" y="-1923.3" font-family="Times,serif" font-size="14.00"> v33</text>
<text text-anchor="start" x="1323" y="-1908.3" font-family="Times,serif" font-size="14.00"> v34</text>
<text text-anchor="start" x="1323" y="-1893.3" font-family="Times,serif" font-size="14.00"> v35</text>
<text text-anchor="start" x="1323" y="-1878.3" font-family="Times,serif" font-size="14.00"> v36</text>
<text text-anchor="start" x="1323" y="-1863.3" font-family="Times,serif" font-size="14.00"> v37</text>
<text text-anchor="start" x="1323" y="-1848.3" font-family="Times,serif" font-size="14.00"> v38</text>
<text text-anchor="start" x="1323" y="-1833.3" font-family="Times,serif" font-size="14.00"> v39</text>
<text text-anchor="start" x="1323" y="-1818.3" font-family="Times,serif" font-size="14.00"> v40</text>
<text text-anchor="start" x="1323" y="-1803.3" font-family="Times,serif" font-size="14.00"> v41</text>
<text text-anchor="start" x="1323" y="-1788.3" font-family="Times,serif" font-size="14.00"> v21 = g4</text>
<text text-anchor="start" x="1323" y="-1773.3" font-family="Times,serif" font-size="14.00"> v22 = g9</text>
<text text-anchor="start" x="1323" y="-1758.3" font-family="Times,serif" font-size="14.00"> v23 = g7</text>
<text text-anchor="start" x="1323" y="-1743.3" font-family="Times,serif" font-size="14.00"> v2 = IntToPtrCastExpr&lt;ptr&gt;(v23)</text>
<text text-anchor="start" x="1323" y="-1728.3" font-family="Times,serif" font-size="14.00"> v7 = v2</text>
<text text-anchor="start" x="1323" y="-1713.3" font-family="Times,serif" font-size="14.00"> g10 = PtrToIntCastExpr&lt;int32&gt;(&amp;(v7))</text>
<text text-anchor="start" x="1323" y="-1698.3" font-family="Times,serif" font-size="14.00"> g7 = PtrToIntCastExpr&lt;int32&gt;(a1)</text>
<text text-anchor="start" x="1323" y="-1683.3" font-family="Times,serif" font-size="14.00"> g4 = 0</text>
<text text-anchor="start" x="1323" y="-1668.3" font-family="Times,serif" font-size="14.00"> v24 = g5</text>
<text text-anchor="start" x="1323" y="-1653.3" font-family="Times,serif" font-size="14.00"> g9 = v24</text>
</g>
<!-- Node0xf4ccf30&#45;&gt;Node0xf4cdbc0 -->
<g id="edge1" class="edge"><title>Node0xf4ccf30&#45;&gt;Node0xf4cdbc0</title>
<path fill="none" stroke="black" d="M1469.5,-2471.39C1469.5,-2463.27 1469.5,-2454.12 1469.5,-2444.14"/>
<polygon fill="black" stroke="black" points="1473,-2443.89 1469.5,-2433.89 1466,-2443.89 1473,-2443.89"/>
</g>
<!-- Node0xf4cdfa0 -->
<g id="node3" class="node"><title>Node0xf4cdfa0</title>
<polygon fill="none" stroke="black" points="1402.5,-1571.5 1402.5,-1607.5 1536.5,-1607.5 1536.5,-1571.5 1402.5,-1571.5"/>
<text text-anchor="start" x="1410.5" y="-1585.8" font-family="Times,serif" font-size="14.00">if (a1 != NULL):</text>
</g>
<!-- Node0xf4cdbc0&#45;&gt;Node0xf4cdfa0 -->
<g id="edge2" class="edge"><title>Node0xf4cdbc0&#45;&gt;Node0xf4cdfa0</title>
<path fill="none" stroke="black" d="M1469.5,-1645.43C1469.5,-1634.94 1469.5,-1625.63 1469.5,-1617.79"/>
<polygon fill="black" stroke="black" points="1473,-1617.72 1469.5,-1607.72 1466,-1617.72 1473,-1617.72"/>
</g>
<!-- Node0xf4ce7b0 -->
<g id="node4" class="node"><title>Node0xf4ce7b0</title>
<polygon fill="none" stroke="black" points="1263.5,-1481.5 1263.5,-1519.5 1401.5,-1519.5 1401.5,-1481.5 1263.5,-1481.5"/>
<text text-anchor="start" x="1271.5" y="-1504.3" font-family="Times,serif" font-size="14.00">0x4178f0:</text>
<text text-anchor="start" x="1271.5" y="-1489.3" font-family="Times,serif" font-size="14.00"> if (a2 != NULL):</text>
</g>
<!-- Node0xf4cdfa0&#45;&gt;Node0xf4ce7b0 -->
<g id="edge3" class="edge"><title>Node0xf4cdfa0&#45;&gt;Node0xf4ce7b0</title>
<path fill="none" stroke="black" d="M1442.43,-1571.31C1421.55,-1558.05 1392.44,-1539.56 1369.42,-1524.95"/>
<polygon fill="black" stroke="black" points="1371.24,-1521.96 1360.93,-1519.55 1367.49,-1527.87 1371.24,-1521.96"/>
<text text-anchor="middle" x="1456.5" y="-1541.8" font-family="Times,serif" font-size="14.00">a1 != NULL</text>
</g>
<!-- Node0x8b013e0 -->
<g id="node5" class="node"><title>Node0x8b013e0</title>
<polygon fill="none" stroke="black" points="1431.5,-1349.5 1431.5,-1462.5 1717.5,-1462.5 1717.5,-1349.5 1431.5,-1349.5"/>
<text text-anchor="start" x="1439.5" y="-1447.3" font-family="Times,serif" font-size="14.00">0x41792b:</text>
<text text-anchor="start" x="1439.5" y="-1432.3" font-family="Times,serif" font-size="14.00"> v28 = v2</text>
<text text-anchor="start" x="1439.5" y="-1417.3" font-family="Times,serif" font-size="14.00"> result = 0</text>
<text text-anchor="start" x="1439.5" y="-1402.3" font-family="Times,serif" font-size="14.00"> g7 = PtrToIntCastExpr&lt;int32&gt;(v28)</text>
<text text-anchor="start" x="1439.5" y="-1387.3" font-family="Times,serif" font-size="14.00"> g9 = v22</text>
<text text-anchor="start" x="1439.5" y="-1372.3" font-family="Times,serif" font-size="14.00"> g4 = v21</text>
<text text-anchor="start" x="1439.5" y="-1357.3" font-family="Times,serif" font-size="14.00"> return result</text>
</g>
<!-- Node0xf4cdfa0&#45;&gt;Node0x8b013e0 -->
<g id="edge4" class="edge"><title>Node0xf4cdfa0&#45;&gt;Node0x8b013e0</title>
<path fill="none" stroke="black" d="M1488.55,-1571.48C1494.11,-1565.93 1499.92,-1559.51 1504.5,-1553 1521.92,-1528.22 1537.08,-1498.43 1548.79,-1472.24"/>
<polygon fill="black" stroke="black" points="1552.13,-1473.33 1552.95,-1462.77 1545.73,-1470.52 1552.13,-1473.33"/>
<text text-anchor="middle" x="1559.5" y="-1541.8" font-family="Times,serif" font-size="14.00">a1 == NULL</text>
</g>
<!-- Node0xf4ceaf0 -->
<g id="node6" class="node"><title>Node0xf4ceaf0</title>
<polygon fill="none" stroke="black" points="1027,-1262.5 1027,-1330.5 1304,-1330.5 1304,-1262.5 1027,-1262.5"/>
<text text-anchor="start" x="1035" y="-1315.3" font-family="Times,serif" font-size="14.00">0x4178f6:</text>
<text text-anchor="start" x="1035" y="-1300.3" font-family="Times,serif" font-size="14.00"> g2 = PtrToIntCastExpr&lt;int32&gt;(a3)</text>
<text text-anchor="start" x="1035" y="-1285.3" font-family="Times,serif" font-size="14.00"> v39 = 0</text>
<text text-anchor="start" x="1035" y="-1270.3" font-family="Times,serif" font-size="14.00"> v30 = v24</text>
</g>
<!-- Node0xf4ce7b0&#45;&gt;Node0xf4ceaf0 -->
<g id="edge5" class="edge"><title>Node0xf4ce7b0&#45;&gt;Node0xf4ceaf0</title>
<path fill="none" stroke="black" d="M1263.39,-1487.21C1248.42,-1481.83 1233.73,-1474.11 1222.5,-1463 1189.51,-1430.38 1175.6,-1377.82 1169.74,-1340.7"/>
<polygon fill="black" stroke="black" points="1173.19,-1340.06 1168.29,-1330.66 1166.26,-1341.06 1173.19,-1340.06"/>
<text text-anchor="middle" x="1266.5" y="-1402.3" font-family="Times,serif" font-size="14.00">a2 != NULL</text>
</g>
<!-- Node0x693ca80 -->
<g id="node7" class="node"><title>Node0x693ca80</title>
<polygon fill="none" stroke="black" points="1210.5,-1130.5 1210.5,-1243.5 1496.5,-1243.5 1496.5,-1130.5 1210.5,-1130.5"/>
<text text-anchor="start" x="1218.5" y="-1228.3" font-family="Times,serif" font-size="14.00">0x41792b:</text>
<text text-anchor="start" x="1218.5" y="-1213.3" font-family="Times,serif" font-size="14.00"> v28 = v2</text>
<text text-anchor="start" x="1218.5" y="-1198.3" font-family="Times,serif" font-size="14.00"> result = 0</text>
<text text-anchor="start" x="1218.5" y="-1183.3" font-family="Times,serif" font-size="14.00"> g7 = PtrToIntCastExpr&lt;int32&gt;(v28)</text>
<text text-anchor="start" x="1218.5" y="-1168.3" font-family="Times,serif" font-size="14.00"> g9 = v22</text>
<text text-anchor="start" x="1218.5" y="-1153.3" font-family="Times,serif" font-size="14.00"> g4 = v21</text>
<text text-anchor="start" x="1218.5" y="-1138.3" font-family="Times,serif" font-size="14.00"> return result</text>
</g>
<!-- Node0xf4ce7b0&#45;&gt;Node0x693ca80 -->
<g id="edge6" class="edge"><title>Node0xf4ce7b0&#45;&gt;Node0x693ca80</title>
<path fill="none" stroke="black" d="M1330.11,-1481.34C1329.45,-1475.49 1328.83,-1468.98 1328.5,-1463 1325.74,-1412.41 1324.6,-1399.52 1328.5,-1349 1330.93,-1317.46 1336.01,-1282.76 1340.96,-1253.68"/>
<polygon fill="black" stroke="black" points="1344.44,-1254.09 1342.7,-1243.64 1337.54,-1252.89 1344.44,-1254.09"/>
<text text-anchor="middle" x="1375.5" y="-1402.3" font-family="Times,serif" font-size="14.00">a2 == NULL</text>
</g>
<!-- Node0xf4cdb40 -->
<g id="node8" class="node"><title>Node0xf4cdb40</title>
<polygon fill="none" stroke="black" points="1473.5,-23.5 1473.5,-59.5 1527.5,-59.5 1527.5,-23.5 1473.5,-23.5"/>
<text text-anchor="start" x="1481.5" y="-37.8" font-family="Times,serif" font-size="14.00">exit:</text>
</g>
<!-- Node0x8b013e0&#45;&gt;Node0xf4cdb40 -->
<g id="edge7" class="edge"><title>Node0x8b013e0&#45;&gt;Node0xf4cdb40</title>
<path fill="none" stroke="black" d="M1566.14,-1349.39C1560.28,-1305.64 1553.5,-1243.07 1553.5,-1188 1553.5,-1188 1553.5,-1188 1553.5,-175.5 1553.5,-136.095 1533.18,-94.4906 1517.7,-68.5219"/>
<polygon fill="black" stroke="black" points="1520.49,-66.3745 1512.26,-59.6949 1514.53,-70.0451 1520.49,-66.3745"/>
</g>
<!-- Node0xf4ceb90 -->
<g id="node9" class="node"><title>Node0xf4ceb90</title>
<polygon fill="none" stroke="black" points="1098.5,-1075.5 1098.5,-1111.5 1232.5,-1111.5 1232.5,-1075.5 1098.5,-1075.5"/>
<text text-anchor="start" x="1106.5" y="-1089.8" font-family="Times,serif" font-size="14.00">if (a3 != NULL):</text>
</g>
<!-- Node0xf4ceaf0&#45;&gt;Node0xf4ceb90 -->
<g id="edge8" class="edge"><title>Node0xf4ceaf0&#45;&gt;Node0xf4ceb90</title>
<path fill="none" stroke="black" d="M1165.5,-1262.31C1165.5,-1223.1 1165.5,-1158.6 1165.5,-1122.04"/>
<polygon fill="black" stroke="black" points="1169,-1121.65 1165.5,-1111.65 1162,-1121.65 1169,-1121.65"/>
</g>
<!-- Node0x693ca80&#45;&gt;Node0xf4cdb40 -->
<g id="edge9" class="edge"><title>Node0x693ca80&#45;&gt;Node0xf4cdb40</title>
<path fill="none" stroke="black" d="M1456.4,-1130.41C1481.1,-1109.49 1500.5,-1082.78 1500.5,-1050.5 1500.5,-1050.5 1500.5,-1050.5 1500.5,-175.5 1500.5,-138.97 1500.5,-96.7973 1500.5,-69.9064"/>
<polygon fill="black" stroke="black" points="1504,-69.7165 1500.5,-59.7166 1497,-69.7166 1504,-69.7165"/>
</g>
<!-- Node0xf4cf500 -->
<g id="node10" class="node"><title>Node0xf4cf500</title>
<polygon fill="none" stroke="black" points="899,-925.5 899,-1023.5 1130,-1023.5 1130,-925.5 899,-925.5"/>
<text text-anchor="start" x="907" y="-1008.3" font-family="Times,serif" font-size="14.00">0x4178fe:</text>
<text text-anchor="start" x="907" y="-993.3" font-family="Times,serif" font-size="14.00"> *(BitCastExpr&lt;ptr&gt;(a3)) = 0</text>
<text text-anchor="start" x="907" y="-978.3" font-family="Times,serif" font-size="14.00"> v31 = g9</text>
<text text-anchor="start" x="907" y="-963.3" font-family="Times,serif" font-size="14.00"> v40 = g4</text>
<text text-anchor="start" x="907" y="-948.3" font-family="Times,serif" font-size="14.00"> v39 = v40</text>
<text text-anchor="start" x="907" y="-933.3" font-family="Times,serif" font-size="14.00"> v30 = v31</text>
</g>
<!-- Node0xf4ceb90&#45;&gt;Node0xf4cf500 -->
<g id="edge10" class="edge"><title>Node0xf4ceb90&#45;&gt;Node0xf4cf500</title>
<path fill="none" stroke="black" d="M1098.27,-1076.14C1086.24,-1071.26 1074.41,-1065 1064.5,-1057 1056,-1050.13 1048.56,-1041.41 1042.2,-1032.23"/>
<polygon fill="black" stroke="black" points="1045.05,-1030.2 1036.67,-1023.72 1039.19,-1034.01 1045.05,-1030.2"/>
<text text-anchor="middle" x="1108.5" y="-1045.8" font-family="Times,serif" font-size="14.00">a3 != NULL</text>
</g>
<!-- Node0xf4cefc0 -->
<g id="node11" class="node"><title>Node0xf4cefc0</title>
<polygon fill="none" stroke="black" points="899.5,-819.5 899.5,-887.5 1245.5,-887.5 1245.5,-819.5 899.5,-819.5"/>
<text text-anchor="start" x="907.5" y="-872.3" font-family="Times,serif" font-size="14.00">0x417900:</text>
<text text-anchor="start" x="907.5" y="-857.3" font-family="Times,serif" font-size="14.00"> v36 = *(IntToPtrCastExpr&lt;ptr&gt;((v30 + 12)))</text>
<text text-anchor="start" x="907.5" y="-842.3" font-family="Times,serif" font-size="14.00"> v27 = v39</text>
<text text-anchor="start" x="907.5" y="-827.3" font-family="Times,serif" font-size="14.00"> v33 = v30</text>
</g>
<!-- Node0xf4ceb90&#45;&gt;Node0xf4cefc0 -->
<g id="edge11" class="edge"><title>Node0xf4ceb90&#45;&gt;Node0xf4cefc0</title>
<path fill="none" stroke="black" d="M1165.95,-1075.36C1166.11,-1043.89 1163.28,-975.508 1138.5,-925 1133.25,-914.299 1125.83,-904.104 1117.84,-894.96"/>
<polygon fill="black" stroke="black" points="1120.37,-892.544 1111.03,-887.538 1115.21,-897.274 1120.37,-892.544"/>
<text text-anchor="middle" x="1210.5" y="-970.8" font-family="Times,serif" font-size="14.00">a3 == NULL</text>
</g>
<!-- Node0xf4cf500&#45;&gt;Node0xf4cefc0 -->
<g id="edge12" class="edge"><title>Node0xf4cf500&#45;&gt;Node0xf4cefc0</title>
<path fill="none" stroke="black" d="M1037.92,-925.441C1042.55,-915.959 1047.36,-906.074 1051.88,-896.799"/>
<polygon fill="black" stroke="black" points="1055.05,-898.287 1056.29,-887.764 1048.76,-895.22 1055.05,-898.287"/>
</g>
<!-- Node0xf4cf070 -->
<g id="node12" class="node"><title>Node0xf4cf070</title>
<polygon fill="none" stroke="black" points="1007,-745.5 1007,-781.5 1138,-781.5 1138,-745.5 1007,-745.5"/>
<text text-anchor="start" x="1015" y="-759.8" font-family="Times,serif" font-size="14.00">if (v36 == v39):</text>
</g>
<!-- Node0xf4cefc0&#45;&gt;Node0xf4cf070 -->
<g id="edge13" class="edge"><title>Node0xf4cefc0&#45;&gt;Node0xf4cf070</title>
<path fill="none" stroke="black" d="M1072.5,-819.482C1072.5,-810.328 1072.5,-800.497 1072.5,-791.715"/>
<polygon fill="black" stroke="black" points="1076,-791.64 1072.5,-781.64 1069,-791.64 1076,-791.64"/>
</g>
<!-- Node0xf4cf7e0 -->
<g id="node13" class="node"><title>Node0xf4cf7e0</title>
<polygon fill="none" stroke="black" points="894.5,-595.5 894.5,-693.5 1046.5,-693.5 1046.5,-595.5 894.5,-595.5"/>
<text text-anchor="start" x="902.5" y="-678.3" font-family="Times,serif" font-size="14.00">0x417905:</text>
<text text-anchor="start" x="902.5" y="-663.3" font-family="Times,serif" font-size="14.00"> function_417854()</text>
<text text-anchor="start" x="902.5" y="-648.3" font-family="Times,serif" font-size="14.00"> v32 = g9</text>
<text text-anchor="start" x="902.5" y="-633.3" font-family="Times,serif" font-size="14.00"> v41 = g4</text>
<text text-anchor="start" x="902.5" y="-618.3" font-family="Times,serif" font-size="14.00"> v27 = v41</text>
<text text-anchor="start" x="902.5" y="-603.3" font-family="Times,serif" font-size="14.00"> v33 = v32</text>
</g>
<!-- Node0xf4cf070&#45;&gt;Node0xf4cf7e0 -->
<g id="edge14" class="edge"><title>Node0xf4cf070&#45;&gt;Node0xf4cf7e0</title>
<path fill="none" stroke="black" d="M1006.93,-746.294C997.588,-741.447 988.972,-735.158 982.5,-727 977.134,-720.235 973.631,-712.128 971.412,-703.688"/>
<polygon fill="black" stroke="black" points="974.798,-702.781 969.361,-693.688 967.941,-704.188 974.798,-702.781"/>
<text text-anchor="middle" x="1025.5" y="-715.8" font-family="Times,serif" font-size="14.00">v36 == v39</text>
</g>
<!-- Node0xf4cf1a0 -->
<g id="node14" class="node"><title>Node0xf4cf1a0</title>
<polygon fill="none" stroke="black" points="804.5,-519.5 804.5,-557.5 1150.5,-557.5 1150.5,-519.5 804.5,-519.5"/>
<text text-anchor="start" x="812.5" y="-542.3" font-family="Times,serif" font-size="14.00">0x41790a:</text>
<text text-anchor="start" x="812.5" y="-527.3" font-family="Times,serif" font-size="14.00"> v37 = *(IntToPtrCastExpr&lt;ptr&gt;((v33 + 16)))</text>
</g>
<!-- Node0xf4cf070&#45;&gt;Node0xf4cf1a0 -->
<g id="edge15" class="edge"><title>Node0xf4cf070&#45;&gt;Node0xf4cf1a0</title>
<path fill="none" stroke="black" d="M1075.18,-745.399C1079.28,-713.408 1083.94,-643.378 1055.5,-595 1047.97,-582.195 1036.19,-571.567 1024.05,-563.156"/>
<polygon fill="black" stroke="black" points="1025.92,-560.2 1015.63,-557.687 1022.11,-566.07 1025.92,-560.2"/>
<text text-anchor="middle" x="1118.5" y="-640.8" font-family="Times,serif" font-size="14.00">v36 != v39</text>
</g>
<!-- Node0xf4cf7e0&#45;&gt;Node0xf4cf1a0 -->
<g id="edge16" class="edge"><title>Node0xf4cf7e0&#45;&gt;Node0xf4cf1a0</title>
<path fill="none" stroke="black" d="M973.734,-595.458C974.373,-585.952 975.025,-576.27 975.603,-567.69"/>
<polygon fill="black" stroke="black" points="979.108,-567.721 976.288,-557.509 972.124,-567.251 979.108,-567.721"/>
</g>
<!-- Node0x8b02c00 -->
<g id="node15" class="node"><title>Node0x8b02c00</title>
<polygon fill="none" stroke="black" points="912,-443.5 912,-481.5 1043,-481.5 1043,-443.5 912,-443.5"/>
<text text-anchor="start" x="920" y="-466.3" font-family="Times,serif" font-size="14.00">if (v37 == v27):</text>
<text text-anchor="start" x="920" y="-451.3" font-family="Times,serif" font-size="14.00"> else:</text>
</g>
<!-- Node0xf4cf1a0&#45;&gt;Node0x8b02c00 -->
<g id="edge17" class="edge"><title>Node0xf4cf1a0&#45;&gt;Node0x8b02c00</title>
<path fill="none" stroke="black" d="M977.5,-519.208C977.5,-510.964 977.5,-501.038 977.5,-491.862"/>
<polygon fill="black" stroke="black" points="981,-491.582 977.5,-481.582 974,-491.582 981,-491.582"/>
</g>
<!-- Node0xf4cb530 -->
<g id="node16" class="node"><title>Node0xf4cb530</title>
<polygon fill="none" stroke="black" points="0,-316 0,-369 469,-369 469,-316 0,-316"/>
<text text-anchor="start" x="8" y="-353.8" font-family="Times,serif" font-size="14.00">0x417924:</text>
<text text-anchor="start" x="8" y="-338.8" font-family="Times,serif" font-size="14.00"> v26 = g7</text>
<text text-anchor="start" x="8" y="-323.8" font-family="Times,serif" font-size="14.00"> *(IntToPtrCastExpr&lt;ptr&gt;(v26)) = TruncCastExpr&lt;int8&gt;(v27)</text>
</g>
<!-- Node0x8b02c00&#45;&gt;Node0xf4cb530 -->
<g id="edge18" class="edge"><title>Node0x8b02c00&#45;&gt;Node0xf4cb530</title>
<path fill="none" stroke="black" d="M911.791,-453.619C816.024,-441.849 632.611,-418.236 477.5,-392 440.958,-385.819 401.49,-378.306 365.206,-371.057"/>
<polygon fill="black" stroke="black" points="365.554,-367.557 355.061,-369.02 364.176,-374.42 365.554,-367.557"/>
<text text-anchor="middle" x="726.5" y="-413.8" font-family="Times,serif" font-size="14.00">v37 == v27</text>
</g>
<!-- Node0xf4cb590 -->
<g id="node17" class="node"><title>Node0xf4cb590</title>
<polygon fill="none" stroke="black" points="487,-293.5 487,-391.5 1472,-391.5 1472,-293.5 487,-293.5"/>
<text text-anchor="start" x="495" y="-376.3" font-family="Times,serif" font-size="14.00">0x41790f:</text>
<text text-anchor="start" x="495" y="-361.3" font-family="Times,serif" font-size="14.00"> v35 = (v33 + 20)</text>
<text text-anchor="start" x="495" y="-346.3" font-family="Times,serif" font-size="14.00"> g2 = v35</text>
<text text-anchor="start" x="495" y="-331.3" font-family="Times,serif" font-size="14.00"> v25 = g7</text>
<text text-anchor="start" x="495" y="-316.3" font-family="Times,serif" font-size="14.00"> v1 = v7</text>
<text text-anchor="start" x="495" y="-301.3" font-family="Times,serif" font-size="14.00"> function_411b05(IntToPtrCastExpr&lt;ptr&gt;(v25), BitCastExpr&lt;ptr&gt;(a2), IntToPtrCastExpr&lt;ptr&gt;(v35), IntToPtrCastExpr&lt;ptr&gt;(&#45;1), v1)</text>
</g>
<!-- Node0x8b02c00&#45;&gt;Node0xf4cb590 -->
<g id="edge19" class="edge"><title>Node0x8b02c00&#45;&gt;Node0xf4cb590</title>
<path fill="none" stroke="black" d="M977.808,-443.321C977.999,-432.08 978.255,-416.962 978.51,-401.896"/>
<polygon fill="black" stroke="black" points="982.016,-401.581 978.686,-391.523 975.017,-401.462 982.016,-401.581"/>
<text text-anchor="middle" x="1018.5" y="-413.8" font-family="Times,serif" font-size="14.00">v37 != v27</text>
</g>
<!-- Node0xf4cf410 -->
<g id="node18" class="node"><title>Node0xf4cf410</title>
<polygon fill="none" stroke="black" points="806.5,-97.5 806.5,-255.5 1152.5,-255.5 1152.5,-97.5 806.5,-97.5"/>
<text text-anchor="start" x="814.5" y="-240.3" font-family="Times,serif" font-size="14.00">0x417926:</text>
<text text-anchor="start" x="814.5" y="-225.3" font-family="Times,serif" font-size="14.00"> v34 = g9</text>
<text text-anchor="start" x="814.5" y="-210.3" font-family="Times,serif" font-size="14.00"> v38 = *(IntToPtrCastExpr&lt;ptr&gt;((v34 + 16)))</text>
<text text-anchor="start" x="814.5" y="-195.3" font-family="Times,serif" font-size="14.00"> v29 = v7</text>
<text text-anchor="start" x="814.5" y="-180.3" font-family="Times,serif" font-size="14.00"> v28 = v29</text>
<text text-anchor="start" x="814.5" y="-165.3" font-family="Times,serif" font-size="14.00"> result = v38</text>
<text text-anchor="start" x="814.5" y="-150.3" font-family="Times,serif" font-size="14.00"> g7 = PtrToIntCastExpr&lt;int32&gt;(v28)</text>
<text text-anchor="start" x="814.5" y="-135.3" font-family="Times,serif" font-size="14.00"> g9 = v22</text>
<text text-anchor="start" x="814.5" y="-120.3" font-family="Times,serif" font-size="14.00"> g4 = v21</text>
<text text-anchor="start" x="814.5" y="-105.3" font-family="Times,serif" font-size="14.00"> return result</text>
</g>
<!-- Node0xf4cb530&#45;&gt;Node0xf4cf410 -->
<g id="edge20" class="edge"><title>Node0xf4cb530&#45;&gt;Node0xf4cf410</title>
<path fill="none" stroke="black" d="M350.497,-315.965C469.715,-289.721 657.073,-248.477 796.337,-217.82"/>
<polygon fill="black" stroke="black" points="797.266,-221.2 806.279,-215.632 795.761,-214.364 797.266,-221.2"/>
</g>
<!-- Node0xf4cb590&#45;&gt;Node0xf4cf410 -->
<g id="edge21" class="edge"><title>Node0xf4cb590&#45;&gt;Node0xf4cf410</title>
<path fill="none" stroke="black" d="M979.5,-293.182C979.5,-284.508 979.5,-275.226 979.5,-265.833"/>
<polygon fill="black" stroke="black" points="983,-265.62 979.5,-255.62 976,-265.62 983,-265.62"/>
</g>
<!-- Node0xf4cf410&#45;&gt;Node0xf4cdb40 -->
<g id="edge22" class="edge"><title>Node0xf4cf410&#45;&gt;Node0xf4cdb40</title>
<path fill="none" stroke="black" d="M1152.62,-131.305C1263.7,-102.95 1398.75,-68.4751 1463.02,-52.0681"/>
<polygon fill="black" stroke="black" points="1464.25,-55.3649 1473.08,-49.5002 1462.52,-48.5825 1464.25,-55.3649"/>
</g>
</g>
</svg>
