<?xml version="1.0" encoding="UTF-8" standalone="no"?>
<!DOCTYPE svg PUBLIC "-//W3C//DTD SVG 1.1//EN"
 "http://www.w3.org/Graphics/SVG/1.1/DTD/svg11.dtd">
<!-- Generated by graphviz version 2.38.0 (20140413.2041)
 -->
<!-- Title: Control&#45;flow graph for function &#39;function_417616(*a1, *a2, *a3)&#39;. Pages: 1 -->
<svg width="588pt" height="954pt"
 viewBox="0.00 0.00 588.00 954.00" xmlns="http://www.w3.org/2000/svg" xmlns:xlink="http://www.w3.org/1999/xlink">
<g id="graph0" class="graph" transform="scale(1 1) rotate(0) translate(4 950)">
<title>Control&#45;flow graph for function &#39;function_417616(*a1, *a2, *a3)&#39;.</title>
<polygon fill="white" stroke="none" points="-4,4 -4,-950 584,-950 584,4 -4,4"/>
<text text-anchor="middle" x="290" y="-7.8" font-family="Times,serif" font-size="14.00">Control&#45;flow graph for function &#39;function_417616(*a1, *a2, *a3)&#39;.</text>
<!-- Node0xf4b3320 -->
<g id="node1" class="node"><title>Node0xf4b3320</title>
<polygon fill="none" stroke="black" points="267.5,-877.5 267.5,-945.5 326.5,-945.5 326.5,-877.5 267.5,-877.5"/>
<text text-anchor="start" x="275.5" y="-930.3" font-family="Times,serif" font-size="14.00">entry:</text>
<text text-anchor="start" x="275.5" y="-915.3" font-family="Times,serif" font-size="14.00"> a1</text>
<text text-anchor="start" x="275.5" y="-900.3" font-family="Times,serif" font-size="14.00"> a2</text>
<text text-anchor="start" x="275.5" y="-885.3" font-family="Times,serif" font-size="14.00"> a3</text>
</g>
<!-- Node0xf4af360 -->
<g id="node2" class="node"><title>Node0xf4af360</title>
<polygon fill="none" stroke="black" points="80,-336.5 80,-839.5 514,-839.5 514,-336.5 80,-336.5"/>
<text text-anchor="start" x="88" y="-824.3" font-family="Times,serif" font-size="14.00">v1</text>
<text text-anchor="start" x="88" y="-809.3" font-family="Times,serif" font-size="14.00"> result</text>
<text text-anchor="start" x="88" y="-794.3" font-family="Times,serif" font-size="14.00"> v2</text>
<text text-anchor="start" x="88" y="-779.3" font-family="Times,serif" font-size="14.00"> v3</text>
<text text-anchor="start" x="88" y="-764.3" font-family="Times,serif" font-size="14.00"> v4</text>
<text text-anchor="start" x="88" y="-749.3" font-family="Times,serif" font-size="14.00"> v5</text>
<text text-anchor="start" x="88" y="-734.3" font-family="Times,serif" font-size="14.00"> v6</text>
<text text-anchor="start" x="88" y="-719.3" font-family="Times,serif" font-size="14.00"> v7</text>
<text text-anchor="start" x="88" y="-704.3" font-family="Times,serif" font-size="14.00"> v8</text>
<text text-anchor="start" x="88" y="-689.3" font-family="Times,serif" font-size="14.00"> v9</text>
<text text-anchor="start" x="88" y="-674.3" font-family="Times,serif" font-size="14.00"> v10</text>
<text text-anchor="start" x="88" y="-659.3" font-family="Times,serif" font-size="14.00"> v11</text>
<text text-anchor="start" x="88" y="-644.3" font-family="Times,serif" font-size="14.00"> v12</text>
<text text-anchor="start" x="88" y="-629.3" font-family="Times,serif" font-size="14.00"> v13</text>
<text text-anchor="start" x="88" y="-614.3" font-family="Times,serif" font-size="14.00"> v14</text>
<text text-anchor="start" x="88" y="-599.3" font-family="Times,serif" font-size="14.00"> v15</text>
<text text-anchor="start" x="88" y="-584.3" font-family="Times,serif" font-size="14.00"> v16</text>
<text text-anchor="start" x="88" y="-569.3" font-family="Times,serif" font-size="14.00"> v17</text>
<text text-anchor="start" x="88" y="-554.3" font-family="Times,serif" font-size="14.00"> v18</text>
<text text-anchor="start" x="88" y="-539.3" font-family="Times,serif" font-size="14.00"> v19</text>
<text text-anchor="start" x="88" y="-524.3" font-family="Times,serif" font-size="14.00"> v20</text>
<text text-anchor="start" x="88" y="-509.3" font-family="Times,serif" font-size="14.00"> v5 = v6</text>
<text text-anchor="start" x="88" y="-494.3" font-family="Times,serif" font-size="14.00"> v2 = v3</text>
<text text-anchor="start" x="88" y="-479.3" font-family="Times,serif" font-size="14.00"> v10 = v11</text>
<text text-anchor="start" x="88" y="-464.3" font-family="Times,serif" font-size="14.00"> v8 = v9</text>
<text text-anchor="start" x="88" y="-449.3" font-family="Times,serif" font-size="14.00"> v12 = v13</text>
<text text-anchor="start" x="88" y="-434.3" font-family="Times,serif" font-size="14.00"> v16 = v17</text>
<text text-anchor="start" x="88" y="-419.3" font-family="Times,serif" font-size="14.00"> v16 = a2</text>
<text text-anchor="start" x="88" y="-404.3" font-family="Times,serif" font-size="14.00"> g3 = PtrToIntCastExpr&lt;int32&gt;(&amp;(v8))</text>
<text text-anchor="start" x="88" y="-389.3" font-family="Times,serif" font-size="14.00"> v2 = a2</text>
<text text-anchor="start" x="88" y="-374.3" font-family="Times,serif" font-size="14.00"> v10 = NULL</text>
<text text-anchor="start" x="88" y="-359.3" font-family="Times,serif" font-size="14.00"> g2 = PtrToIntCastExpr&lt;int32&gt;(&amp;(v10))</text>
<text text-anchor="start" x="88" y="-344.3" font-family="Times,serif" font-size="14.00"> v1 = function_4175f6(BitCastExpr&lt;ptr&gt;(&amp;(v10)), a1, a2)</text>
</g>
<!-- Node0xf4b3320&#45;&gt;Node0xf4af360 -->
<g id="edge1" class="edge"><title>Node0xf4b3320&#45;&gt;Node0xf4af360</title>
<path fill="none" stroke="black" d="M297,-877.305C297,-869.22 297,-859.933 297,-849.76"/>
<polygon fill="black" stroke="black" points="300.5,-849.745 297,-839.745 293.5,-849.745 300.5,-849.745"/>
</g>
<!-- Node0xf4a2a90 -->
<g id="node3" class="node"><title>Node0xf4a2a90</title>
<polygon fill="none" stroke="black" points="248,-262.5 248,-298.5 346,-298.5 346,-262.5 248,-262.5"/>
<text text-anchor="start" x="256" y="-276.8" font-family="Times,serif" font-size="14.00">if (v1 &gt; &#45;1):</text>
</g>
<!-- Node0xf4af360&#45;&gt;Node0xf4a2a90 -->
<g id="edge2" class="edge"><title>Node0xf4af360&#45;&gt;Node0xf4a2a90</title>
<path fill="none" stroke="black" d="M297,-336.47C297,-326.079 297,-316.729 297,-308.812"/>
<polygon fill="black" stroke="black" points="300.5,-308.614 297,-298.614 293.5,-308.614 300.5,-308.614"/>
</g>
<!-- Node0xf4bd0e0 -->
<g id="node4" class="node"><title>Node0xf4bd0e0</title>
<polygon fill="none" stroke="black" points="0,-97.5 0,-210.5 296,-210.5 296,-97.5 0,-97.5"/>
<text text-anchor="start" x="8" y="-195.3" font-family="Times,serif" font-size="14.00">0x417638:</text>
<text text-anchor="start" x="8" y="-180.3" font-family="Times,serif" font-size="14.00"> v20 = v10</text>
<text text-anchor="start" x="8" y="-165.3" font-family="Times,serif" font-size="14.00"> v2 = v20</text>
<text text-anchor="start" x="8" y="-150.3" font-family="Times,serif" font-size="14.00"> result = CoTaskMemAlloc(&amp;(v20[&#39;0&#39;]))</text>
<text text-anchor="start" x="8" y="-135.3" font-family="Times,serif" font-size="14.00"> v19 = v8</text>
<text text-anchor="start" x="8" y="-120.3" font-family="Times,serif" font-size="14.00"> g3 = v19</text>
<text text-anchor="start" x="8" y="-105.3" font-family="Times,serif" font-size="14.00"> return result</text>
</g>
<!-- Node0xf4a2a90&#45;&gt;Node0xf4bd0e0 -->
<g id="edge3" class="edge"><title>Node0xf4a2a90&#45;&gt;Node0xf4bd0e0</title>
<path fill="none" stroke="black" d="M276.595,-262.45C262.382,-250.574 242.469,-233.936 222.552,-217.293"/>
<polygon fill="black" stroke="black" points="224.551,-214.403 214.633,-210.677 220.063,-219.775 224.551,-214.403"/>
<text text-anchor="middle" x="279" y="-232.8" font-family="Times,serif" font-size="14.00">v1 &gt; &#45;1</text>
</g>
<!-- Node0xf4a4b20 -->
<g id="node5" class="node"><title>Node0xf4a4b20</title>
<polygon fill="none" stroke="black" points="314,-120 314,-188 580,-188 580,-120 314,-120"/>
<text text-anchor="start" x="322" y="-172.8" font-family="Times,serif" font-size="14.00">0x417634:</text>
<text text-anchor="start" x="322" y="-157.8" font-family="Times,serif" font-size="14.00"> v18 = v8</text>
<text text-anchor="start" x="322" y="-142.8" font-family="Times,serif" font-size="14.00"> g3 = v18</text>
<text text-anchor="start" x="322" y="-127.8" font-family="Times,serif" font-size="14.00"> return BitCastExpr&lt;ptr&gt;(&amp;(v12))</text>
</g>
<!-- Node0xf4a2a90&#45;&gt;Node0xf4a4b20 -->
<g id="edge4" class="edge"><title>Node0xf4a2a90&#45;&gt;Node0xf4a4b20</title>
<path fill="none" stroke="black" d="M317.542,-262.45C338.428,-245.114 371.539,-217.633 399.046,-194.802"/>
<polygon fill="black" stroke="black" points="401.551,-197.271 407.011,-188.191 397.08,-191.885 401.551,-197.271"/>
<text text-anchor="middle" x="386" y="-232.8" font-family="Times,serif" font-size="14.00">v1 &lt;= &#45;1</text>
</g>
<!-- Node0xf4be940 -->
<g id="node6" class="node"><title>Node0xf4be940</title>
<polygon fill="none" stroke="black" points="304,-23.5 304,-59.5 358,-59.5 358,-23.5 304,-23.5"/>
<text text-anchor="start" x="312" y="-37.8" font-family="Times,serif" font-size="14.00">exit:</text>
</g>
<!-- Node0xf4bd0e0&#45;&gt;Node0xf4be940 -->
<g id="edge5" class="edge"><title>Node0xf4bd0e0&#45;&gt;Node0xf4be940</title>
<path fill="none" stroke="black" d="M240.036,-97.4263C259.53,-85.6556 278.991,-73.9045 294.88,-64.3101"/>
<polygon fill="black" stroke="black" points="297.045,-67.0917 303.796,-58.9264 293.426,-61.0993 297.045,-67.0917"/>
</g>
<!-- Node0xf4a4b20&#45;&gt;Node0xf4be940 -->
<g id="edge6" class="edge"><title>Node0xf4a4b20&#45;&gt;Node0xf4be940</title>
<path fill="none" stroke="black" d="M412.196,-119.846C394.303,-102.801 372.883,-82.397 356.537,-66.8262"/>
<polygon fill="black" stroke="black" points="358.613,-63.9697 348.958,-59.6066 353.785,-69.0382 358.613,-63.9697"/>
</g>
</g>
</svg>
