<?xml version="1.0" encoding="UTF-8" standalone="no"?>
<!DOCTYPE svg PUBLIC "-//W3C//DTD SVG 1.1//EN"
 "http://www.w3.org/Graphics/SVG/1.1/DTD/svg11.dtd">
<!-- Generated by graphviz version 2.38.0 (20140413.2041)
 -->
<!-- Title: Control&#45;flow graph for function &#39;function_419f1e(*a1)&#39;. Pages: 1 -->
<svg width="622pt" height="398pt"
 viewBox="0.00 0.00 622.00 398.00" xmlns="http://www.w3.org/2000/svg" xmlns:xlink="http://www.w3.org/1999/xlink">
<g id="graph0" class="graph" transform="scale(1 1) rotate(0) translate(4 394)">
<title>Control&#45;flow graph for function &#39;function_419f1e(*a1)&#39;.</title>
<polygon fill="white" stroke="none" points="-4,4 -4,-394 618,-394 618,4 -4,4"/>
<text text-anchor="middle" x="307" y="-7.8" font-family="Times,serif" font-size="14.00">Control&#45;flow graph for function &#39;function_419f1e(*a1)&#39;.</text>
<!-- Node0xf5cf550 -->
<g id="node1" class="node"><title>Node0xf5cf550</title>
<polygon fill="none" stroke="black" points="277.5,-351.5 277.5,-389.5 336.5,-389.5 336.5,-351.5 277.5,-351.5"/>
<text text-anchor="start" x="285.5" y="-374.3" font-family="Times,serif" font-size="14.00">entry:</text>
<text text-anchor="start" x="285.5" y="-359.3" font-family="Times,serif" font-size="14.00"> a1</text>
</g>
<!-- Node0xf5cfe90 -->
<g id="node2" class="node"><title>Node0xf5cfe90</title>
<polygon fill="none" stroke="black" points="-5.68434e-14,-96.5 -5.68434e-14,-314.5 614,-314.5 614,-96.5 -5.68434e-14,-96.5"/>
<text text-anchor="start" x="8" y="-299.3" font-family="Times,serif" font-size="14.00">v1</text>
<text text-anchor="start" x="8" y="-284.3" font-family="Times,serif" font-size="14.00"> result</text>
<text text-anchor="start" x="8" y="-269.3" font-family="Times,serif" font-size="14.00"> v2</text>
<text text-anchor="start" x="8" y="-254.3" font-family="Times,serif" font-size="14.00"> v3</text>
<text text-anchor="start" x="8" y="-239.3" font-family="Times,serif" font-size="14.00"> v4</text>
<text text-anchor="start" x="8" y="-224.3" font-family="Times,serif" font-size="14.00"> v5</text>
<text text-anchor="start" x="8" y="-209.3" font-family="Times,serif" font-size="14.00"> v6</text>
<text text-anchor="start" x="8" y="-194.3" font-family="Times,serif" font-size="14.00"> v7</text>
<text text-anchor="start" x="8" y="-179.3" font-family="Times,serif" font-size="14.00"> v7 = g5</text>
<text text-anchor="start" x="8" y="-164.3" font-family="Times,serif" font-size="14.00"> g9 = v7</text>
<text text-anchor="start" x="8" y="-149.3" font-family="Times,serif" font-size="14.00"> result = function_419e15()</text>
<text text-anchor="start" x="8" y="-134.3" font-family="Times,serif" font-size="14.00"> *(IntToPtrCastExpr&lt;ptr&gt;(result)) = PtrToIntCastExpr&lt;int32&gt;(&amp;(vtable_458528))</text>
<text text-anchor="start" x="8" y="-119.3" font-family="Times,serif" font-size="14.00"> g9 = 1</text>
<text text-anchor="start" x="8" y="-104.3" font-family="Times,serif" font-size="14.00"> return result</text>
</g>
<!-- Node0xf5cf550&#45;&gt;Node0xf5cfe90 -->
<g id="edge1" class="edge"><title>Node0xf5cf550&#45;&gt;Node0xf5cfe90</title>
<path fill="none" stroke="black" d="M307,-351.433C307,-344.021 307,-334.777 307,-324.567"/>
<polygon fill="black" stroke="black" points="310.5,-324.511 307,-314.511 303.5,-324.511 310.5,-324.511"/>
</g>
<!-- Node0xf5cfe30 -->
<g id="node3" class="node"><title>Node0xf5cfe30</title>
<polygon fill="none" stroke="black" points="280,-23.5 280,-59.5 334,-59.5 334,-23.5 280,-23.5"/>
<text text-anchor="start" x="288" y="-37.8" font-family="Times,serif" font-size="14.00">exit:</text>
</g>
<!-- Node0xf5cfe90&#45;&gt;Node0xf5cfe30 -->
<g id="edge2" class="edge"><title>Node0xf5cfe90&#45;&gt;Node0xf5cfe30</title>
<path fill="none" stroke="black" d="M307,-96.4437C307,-86.8181 307,-77.7685 307,-69.9316"/>
<polygon fill="black" stroke="black" points="310.5,-69.7265 307,-59.7265 303.5,-69.7266 310.5,-69.7265"/>
</g>
</g>
</svg>
