<?xml version="1.0" encoding="UTF-8" standalone="no"?>
<!DOCTYPE svg PUBLIC "-//W3C//DTD SVG 1.1//EN"
 "http://www.w3.org/Graphics/SVG/1.1/DTD/svg11.dtd">
<!-- Generated by graphviz version 2.38.0 (20140413.2041)
 -->
<!-- Title: Control&#45;flow graph for function &#39;function_412266()&#39;. Pages: 1 -->
<svg width="395pt" height="591pt"
 viewBox="0.00 0.00 395.00 591.00" xmlns="http://www.w3.org/2000/svg" xmlns:xlink="http://www.w3.org/1999/xlink">
<g id="graph0" class="graph" transform="scale(1 1) rotate(0) translate(4 587)">
<title>Control&#45;flow graph for function &#39;function_412266()&#39;.</title>
<polygon fill="white" stroke="none" points="-4,4 -4,-587 391,-587 391,4 -4,4"/>
<text text-anchor="middle" x="193.5" y="-7.8" font-family="Times,serif" font-size="14.00">Control&#45;flow graph for function &#39;function_412266()&#39;.</text>
<!-- Node0xf2ad8b0 -->
<g id="node1" class="node"><title>Node0xf2ad8b0</title>
<polygon fill="none" stroke="black" points="164,-546.5 164,-582.5 223,-582.5 223,-546.5 164,-546.5"/>
<text text-anchor="start" x="172" y="-560.8" font-family="Times,serif" font-size="14.00">entry:</text>
</g>
<!-- Node0xf2aee80 -->
<g id="node2" class="node"><title>Node0xf2aee80</title>
<polygon fill="none" stroke="black" points="43.5,-96.5 43.5,-509.5 343.5,-509.5 343.5,-96.5 43.5,-96.5"/>
<text text-anchor="start" x="51.5" y="-494.3" font-family="Times,serif" font-size="14.00">v1</text>
<text text-anchor="start" x="51.5" y="-479.3" font-family="Times,serif" font-size="14.00"> v2</text>
<text text-anchor="start" x="51.5" y="-464.3" font-family="Times,serif" font-size="14.00"> v3</text>
<text text-anchor="start" x="51.5" y="-449.3" font-family="Times,serif" font-size="14.00"> v4</text>
<text text-anchor="start" x="51.5" y="-434.3" font-family="Times,serif" font-size="14.00"> v5</text>
<text text-anchor="start" x="51.5" y="-419.3" font-family="Times,serif" font-size="14.00"> v6</text>
<text text-anchor="start" x="51.5" y="-404.3" font-family="Times,serif" font-size="14.00"> v7</text>
<text text-anchor="start" x="51.5" y="-389.3" font-family="Times,serif" font-size="14.00"> v8</text>
<text text-anchor="start" x="51.5" y="-374.3" font-family="Times,serif" font-size="14.00"> v9</text>
<text text-anchor="start" x="51.5" y="-359.3" font-family="Times,serif" font-size="14.00"> v10</text>
<text text-anchor="start" x="51.5" y="-344.3" font-family="Times,serif" font-size="14.00"> v11</text>
<text text-anchor="start" x="51.5" y="-329.3" font-family="Times,serif" font-size="14.00"> v12</text>
<text text-anchor="start" x="51.5" y="-314.3" font-family="Times,serif" font-size="14.00"> v13</text>
<text text-anchor="start" x="51.5" y="-299.3" font-family="Times,serif" font-size="14.00"> v14</text>
<text text-anchor="start" x="51.5" y="-284.3" font-family="Times,serif" font-size="14.00"> v15</text>
<text text-anchor="start" x="51.5" y="-269.3" font-family="Times,serif" font-size="14.00"> v7 = v8</text>
<text text-anchor="start" x="51.5" y="-254.3" font-family="Times,serif" font-size="14.00"> g3 = PtrToIntCastExpr&lt;int32&gt;(&amp;(v7))</text>
<text text-anchor="start" x="51.5" y="-239.3" font-family="Times,serif" font-size="14.00"> v14 = g5</text>
<text text-anchor="start" x="51.5" y="-224.3" font-family="Times,serif" font-size="14.00"> v1 = v14</text>
<text text-anchor="start" x="51.5" y="-209.3" font-family="Times,serif" font-size="14.00"> g2 = PtrToIntCastExpr&lt;int32&gt;(&amp;(v1))</text>
<text text-anchor="start" x="51.5" y="-194.3" font-family="Times,serif" font-size="14.00"> function_4121b3()</text>
<text text-anchor="start" x="51.5" y="-179.3" font-family="Times,serif" font-size="14.00"> g5 = v12</text>
<text text-anchor="start" x="51.5" y="-164.3" font-family="Times,serif" font-size="14.00"> function_411e5b()</text>
<text text-anchor="start" x="51.5" y="-149.3" font-family="Times,serif" font-size="14.00"> g2 = v12</text>
<text text-anchor="start" x="51.5" y="-134.3" font-family="Times,serif" font-size="14.00"> v15 = v7</text>
<text text-anchor="start" x="51.5" y="-119.3" font-family="Times,serif" font-size="14.00"> g3 = v15</text>
<text text-anchor="start" x="51.5" y="-104.3" font-family="Times,serif" font-size="14.00"> return</text>
</g>
<!-- Node0xf2ad8b0&#45;&gt;Node0xf2aee80 -->
<g id="edge1" class="edge"><title>Node0xf2ad8b0&#45;&gt;Node0xf2aee80</title>
<path fill="none" stroke="black" d="M193.5,-546.473C193.5,-539.381 193.5,-530.372 193.5,-520.024"/>
<polygon fill="black" stroke="black" points="197,-519.712 193.5,-509.712 190,-519.712 197,-519.712"/>
</g>
<!-- Node0xf2ad650 -->
<g id="node3" class="node"><title>Node0xf2ad650</title>
<polygon fill="none" stroke="black" points="166.5,-23.5 166.5,-59.5 220.5,-59.5 220.5,-23.5 166.5,-23.5"/>
<text text-anchor="start" x="174.5" y="-37.8" font-family="Times,serif" font-size="14.00">exit:</text>
</g>
<!-- Node0xf2aee80&#45;&gt;Node0xf2ad650 -->
<g id="edge2" class="edge"><title>Node0xf2aee80&#45;&gt;Node0xf2ad650</title>
<path fill="none" stroke="black" d="M193.5,-96.2686C193.5,-86.5147 193.5,-77.6453 193.5,-70.048"/>
<polygon fill="black" stroke="black" points="197,-69.8725 193.5,-59.8726 190,-69.8726 197,-69.8725"/>
</g>
</g>
</svg>
