<?xml version="1.0" encoding="UTF-8" standalone="no"?>
<!DOCTYPE svg PUBLIC "-//W3C//DTD SVG 1.1//EN"
 "http://www.w3.org/Graphics/SVG/1.1/DTD/svg11.dtd">
<!-- Generated by graphviz version 2.38.0 (20140413.2041)
 -->
<!-- Title: Control&#45;flow graph for function &#39;function_41c856(a1, a2)&#39;. Pages: 1 -->
<svg width="671pt" height="1302pt"
 viewBox="0.00 0.00 670.50 1302.00" xmlns="http://www.w3.org/2000/svg" xmlns:xlink="http://www.w3.org/1999/xlink">
<g id="graph0" class="graph" transform="scale(1 1) rotate(0) translate(4 1298)">
<title>Control&#45;flow graph for function &#39;function_41c856(a1, a2)&#39;.</title>
<polygon fill="white" stroke="none" points="-4,4 -4,-1298 666.5,-1298 666.5,4 -4,4"/>
<text text-anchor="middle" x="331.25" y="-7.8" font-family="Times,serif" font-size="14.00">Control&#45;flow graph for function &#39;function_41c856(a1, a2)&#39;.</text>
<!-- Node0xf6d7480 -->
<g id="node1" class="node"><title>Node0xf6d7480</title>
<polygon fill="none" stroke="black" points="413,-1240.5 413,-1293.5 472,-1293.5 472,-1240.5 413,-1240.5"/>
<text text-anchor="start" x="421" y="-1278.3" font-family="Times,serif" font-size="14.00">entry:</text>
<text text-anchor="start" x="421" y="-1263.3" font-family="Times,serif" font-size="14.00"> a1</text>
<text text-anchor="start" x="421" y="-1248.3" font-family="Times,serif" font-size="14.00"> a2</text>
</g>
<!-- Node0xf6d7ca0 -->
<g id="node2" class="node"><title>Node0xf6d7ca0</title>
<polygon fill="none" stroke="black" points="246.5,-519.5 246.5,-1202.5 638.5,-1202.5 638.5,-519.5 246.5,-519.5"/>
<text text-anchor="start" x="254.5" y="-1187.3" font-family="Times,serif" font-size="14.00">v1</text>
<text text-anchor="start" x="254.5" y="-1172.3" font-family="Times,serif" font-size="14.00"> v2</text>
<text text-anchor="start" x="254.5" y="-1157.3" font-family="Times,serif" font-size="14.00"> v3</text>
<text text-anchor="start" x="254.5" y="-1142.3" font-family="Times,serif" font-size="14.00"> v4</text>
<text text-anchor="start" x="254.5" y="-1127.3" font-family="Times,serif" font-size="14.00"> v5</text>
<text text-anchor="start" x="254.5" y="-1112.3" font-family="Times,serif" font-size="14.00"> v6</text>
<text text-anchor="start" x="254.5" y="-1097.3" font-family="Times,serif" font-size="14.00"> result</text>
<text text-anchor="start" x="254.5" y="-1082.3" font-family="Times,serif" font-size="14.00"> v7</text>
<text text-anchor="start" x="254.5" y="-1067.3" font-family="Times,serif" font-size="14.00"> v8</text>
<text text-anchor="start" x="254.5" y="-1052.3" font-family="Times,serif" font-size="14.00"> v9</text>
<text text-anchor="start" x="254.5" y="-1037.3" font-family="Times,serif" font-size="14.00"> v10</text>
<text text-anchor="start" x="254.5" y="-1022.3" font-family="Times,serif" font-size="14.00"> v11</text>
<text text-anchor="start" x="254.5" y="-1007.3" font-family="Times,serif" font-size="14.00"> v12</text>
<text text-anchor="start" x="254.5" y="-992.3" font-family="Times,serif" font-size="14.00"> v13</text>
<text text-anchor="start" x="254.5" y="-977.3" font-family="Times,serif" font-size="14.00"> v14</text>
<text text-anchor="start" x="254.5" y="-962.3" font-family="Times,serif" font-size="14.00"> v15</text>
<text text-anchor="start" x="254.5" y="-947.3" font-family="Times,serif" font-size="14.00"> v16</text>
<text text-anchor="start" x="254.5" y="-932.3" font-family="Times,serif" font-size="14.00"> v17</text>
<text text-anchor="start" x="254.5" y="-917.3" font-family="Times,serif" font-size="14.00"> v18</text>
<text text-anchor="start" x="254.5" y="-902.3" font-family="Times,serif" font-size="14.00"> v19</text>
<text text-anchor="start" x="254.5" y="-887.3" font-family="Times,serif" font-size="14.00"> v20</text>
<text text-anchor="start" x="254.5" y="-872.3" font-family="Times,serif" font-size="14.00"> v21</text>
<text text-anchor="start" x="254.5" y="-857.3" font-family="Times,serif" font-size="14.00"> v22</text>
<text text-anchor="start" x="254.5" y="-842.3" font-family="Times,serif" font-size="14.00"> v23</text>
<text text-anchor="start" x="254.5" y="-827.3" font-family="Times,serif" font-size="14.00"> v24</text>
<text text-anchor="start" x="254.5" y="-812.3" font-family="Times,serif" font-size="14.00"> v25</text>
<text text-anchor="start" x="254.5" y="-797.3" font-family="Times,serif" font-size="14.00"> v26</text>
<text text-anchor="start" x="254.5" y="-782.3" font-family="Times,serif" font-size="14.00"> v27</text>
<text text-anchor="start" x="254.5" y="-767.3" font-family="Times,serif" font-size="14.00"> v28</text>
<text text-anchor="start" x="254.5" y="-752.3" font-family="Times,serif" font-size="14.00"> v9 = v10</text>
<text text-anchor="start" x="254.5" y="-737.3" font-family="Times,serif" font-size="14.00"> v14 = v15</text>
<text text-anchor="start" x="254.5" y="-722.3" font-family="Times,serif" font-size="14.00"> v12 = 4</text>
<text text-anchor="start" x="254.5" y="-707.3" font-family="Times,serif" font-size="14.00"> g2 = 4535470</text>
<text text-anchor="start" x="254.5" y="-692.3" font-family="Times,serif" font-size="14.00"> __EH_prolog3()</text>
<text text-anchor="start" x="254.5" y="-677.3" font-family="Times,serif" font-size="14.00"> v19 = g5</text>
<text text-anchor="start" x="254.5" y="-662.3" font-family="Times,serif" font-size="14.00"> g9 = v19</text>
<text text-anchor="start" x="254.5" y="-647.3" font-family="Times,serif" font-size="14.00"> v14 = IntToPtrCastExpr&lt;ptr&gt;(60)</text>
<text text-anchor="start" x="254.5" y="-632.3" font-family="Times,serif" font-size="14.00"> v5 = function_40c753(IntToPtrCastExpr&lt;ptr&gt;(60))</text>
<text text-anchor="start" x="254.5" y="-617.3" font-family="Times,serif" font-size="14.00"> g10 = PtrToIntCastExpr&lt;int32&gt;(&amp;(v12))</text>
<text text-anchor="start" x="254.5" y="-602.3" font-family="Times,serif" font-size="14.00"> g5 = v5</text>
<text text-anchor="start" x="254.5" y="-587.3" font-family="Times,serif" font-size="14.00"> v21 = g3</text>
<text text-anchor="start" x="254.5" y="-572.3" font-family="Times,serif" font-size="14.00"> *(IntToPtrCastExpr&lt;ptr&gt;((v21 + &#45;16))) = v5</text>
<text text-anchor="start" x="254.5" y="-557.3" font-family="Times,serif" font-size="14.00"> v20 = g5</text>
<text text-anchor="start" x="254.5" y="-542.3" font-family="Times,serif" font-size="14.00"> v22 = g3</text>
<text text-anchor="start" x="254.5" y="-527.3" font-family="Times,serif" font-size="14.00"> *(IntToPtrCastExpr&lt;ptr&gt;((v22 + &#45;4))) = 0</text>
</g>
<!-- Node0xf6d7480&#45;&gt;Node0xf6d7ca0 -->
<g id="edge1" class="edge"><title>Node0xf6d7480&#45;&gt;Node0xf6d7ca0</title>
<path fill="none" stroke="black" d="M442.5,-1240.42C442.5,-1232.73 442.5,-1223.54 442.5,-1213.15"/>
<polygon fill="black" stroke="black" points="446,-1212.85 442.5,-1202.85 439,-1212.85 446,-1212.85"/>
</g>
<!-- Node0xf6d6840 -->
<g id="node3" class="node"><title>Node0xf6d6840</title>
<polygon fill="none" stroke="black" points="388.5,-443.5 388.5,-481.5 496.5,-481.5 496.5,-443.5 388.5,-443.5"/>
<text text-anchor="start" x="396.5" y="-466.3" font-family="Times,serif" font-size="14.00">if (v20 != 0):</text>
<text text-anchor="start" x="396.5" y="-451.3" font-family="Times,serif" font-size="14.00"> else:</text>
</g>
<!-- Node0xf6d7ca0&#45;&gt;Node0xf6d6840 -->
<g id="edge2" class="edge"><title>Node0xf6d7ca0&#45;&gt;Node0xf6d6840</title>
<path fill="none" stroke="black" d="M442.5,-519.468C442.5,-509.051 442.5,-499.742 442.5,-491.846"/>
<polygon fill="black" stroke="black" points="446,-491.657 442.5,-481.657 439,-491.657 446,-491.657"/>
</g>
<!-- Node0xf6d8390 -->
<g id="node4" class="node"><title>Node0xf6d8390</title>
<polygon fill="none" stroke="black" points="0,-233.5 0,-391.5 549,-391.5 549,-233.5 0,-233.5"/>
<text text-anchor="start" x="8" y="-376.3" font-family="Times,serif" font-size="14.00">0x41c87a:</text>
<text text-anchor="start" x="8" y="-361.3" font-family="Times,serif" font-size="14.00"> v14 = NULL</text>
<text text-anchor="start" x="8" y="-346.3" font-family="Times,serif" font-size="14.00"> v23 = g9</text>
<text text-anchor="start" x="8" y="-331.3" font-family="Times,serif" font-size="14.00"> v25 = *(IntToPtrCastExpr&lt;ptr&gt;((v23 + 48)))</text>
<text text-anchor="start" x="8" y="-316.3" font-family="Times,serif" font-size="14.00"> v26 = *(IntToPtrCastExpr&lt;ptr&gt;((v23 + 40)))</text>
<text text-anchor="start" x="8" y="-301.3" font-family="Times,serif" font-size="14.00"> v27 = *(IntToPtrCastExpr&lt;ptr&gt;((v23 + 32)))</text>
<text text-anchor="start" x="8" y="-286.3" font-family="Times,serif" font-size="14.00"> v9 = v27</text>
<text text-anchor="start" x="8" y="-271.3" font-family="Times,serif" font-size="14.00"> v1 = v12</text>
<text text-anchor="start" x="8" y="-256.3" font-family="Times,serif" font-size="14.00"> v6 = function_41c817(v27, v26, IntToPtrCastExpr&lt;ptr&gt;(v25), NULL, v1)</text>
<text text-anchor="start" x="8" y="-241.3" font-family="Times,serif" font-size="14.00"> result = v6</text>
</g>
<!-- Node0xf6d6840&#45;&gt;Node0xf6d8390 -->
<g id="edge3" class="edge"><title>Node0xf6d6840&#45;&gt;Node0xf6d8390</title>
<path fill="none" stroke="black" d="M421.9,-443.352C408.596,-431.632 390.218,-415.442 370.947,-398.465"/>
<polygon fill="black" stroke="black" points="373.052,-395.655 363.235,-391.671 368.425,-400.908 373.052,-395.655"/>
<text text-anchor="middle" x="429" y="-413.8" font-family="Times,serif" font-size="14.00">v20 != 0</text>
</g>
<!-- Node0xf6d9300 -->
<g id="node5" class="node"><title>Node0xf6d9300</title>
<polygon fill="none" stroke="black" points="567,-294.5 567,-330.5 656,-330.5 656,-294.5 567,-294.5"/>
<text text-anchor="start" x="575" y="-308.8" font-family="Times,serif" font-size="14.00">result = 0</text>
</g>
<!-- Node0xf6d6840&#45;&gt;Node0xf6d9300 -->
<g id="edge4" class="edge"><title>Node0xf6d6840&#45;&gt;Node0xf6d9300</title>
<path fill="none" stroke="black" d="M481.947,-443.379C505.865,-431.124 536.003,-413.312 558.5,-392 574.467,-376.874 588.217,-356.126 597.708,-339.759"/>
<polygon fill="black" stroke="black" points="600.947,-341.138 602.788,-330.704 594.843,-337.713 600.947,-341.138"/>
<text text-anchor="middle" x="570" y="-413.8" font-family="Times,serif" font-size="14.00">v20 == 0</text>
</g>
<!-- Node0xf6d81a0 -->
<g id="node6" class="node"><title>Node0xf6d81a0</title>
<polygon fill="none" stroke="black" points="300.5,-97.5 300.5,-195.5 662.5,-195.5 662.5,-97.5 300.5,-97.5"/>
<text text-anchor="start" x="308.5" y="-180.3" font-family="Times,serif" font-size="14.00">0x41c889:</text>
<text text-anchor="start" x="308.5" y="-165.3" font-family="Times,serif" font-size="14.00"> v24 = g9</text>
<text text-anchor="start" x="308.5" y="-150.3" font-family="Times,serif" font-size="14.00"> v28 = *(IntToPtrCastExpr&lt;ptr&gt;((v24 + 44)))</text>
<text text-anchor="start" x="308.5" y="-135.3" font-family="Times,serif" font-size="14.00"> *(IntToPtrCastExpr&lt;ptr&gt;((result + 44))) = v28</text>
<text text-anchor="start" x="308.5" y="-120.3" font-family="Times,serif" font-size="14.00"> __EH_epilog3()</text>
<text text-anchor="start" x="308.5" y="-105.3" font-family="Times,serif" font-size="14.00"> return result</text>
</g>
<!-- Node0xf6d8390&#45;&gt;Node0xf6d81a0 -->
<g id="edge5" class="edge"><title>Node0xf6d8390&#45;&gt;Node0xf6d81a0</title>
<path fill="none" stroke="black" d="M373.15,-233.342C386.476,-222.785 399.908,-212.143 412.563,-202.117"/>
<polygon fill="black" stroke="black" points="415.092,-204.578 420.757,-195.625 410.745,-199.092 415.092,-204.578"/>
</g>
<!-- Node0xf6d9300&#45;&gt;Node0xf6d81a0 -->
<g id="edge6" class="edge"><title>Node0xf6d9300&#45;&gt;Node0xf6d81a0</title>
<path fill="none" stroke="black" d="M600.985,-294.486C590.732,-278.256 574.4,-253.34 558.5,-233 550.831,-223.19 542.331,-213.087 533.86,-203.417"/>
<polygon fill="black" stroke="black" points="536.338,-200.936 527.089,-195.768 531.097,-205.576 536.338,-200.936"/>
</g>
<!-- Node0xf6d7c40 -->
<g id="node7" class="node"><title>Node0xf6d7c40</title>
<polygon fill="none" stroke="black" points="454.5,-23.5 454.5,-59.5 508.5,-59.5 508.5,-23.5 454.5,-23.5"/>
<text text-anchor="start" x="462.5" y="-37.8" font-family="Times,serif" font-size="14.00">exit:</text>
</g>
<!-- Node0xf6d81a0&#45;&gt;Node0xf6d7c40 -->
<g id="edge7" class="edge"><title>Node0xf6d81a0&#45;&gt;Node0xf6d7c40</title>
<path fill="none" stroke="black" d="M481.5,-97.3173C481.5,-87.893 481.5,-78.32 481.5,-69.8676"/>
<polygon fill="black" stroke="black" points="485,-69.856 481.5,-59.8561 478,-69.8561 485,-69.856"/>
</g>
</g>
</svg>
