<?xml version="1.0" encoding="UTF-8" standalone="no"?>
<!DOCTYPE svg PUBLIC "-//W3C//DTD SVG 1.1//EN"
 "http://www.w3.org/Graphics/SVG/1.1/DTD/svg11.dtd">
<!-- Generated by graphviz version 2.38.0 (20140413.2041)
 -->
<!-- Title: Control&#45;flow graph for function &#39;function_42ec30(*a1)&#39;. Pages: 1 -->
<svg width="3068pt" height="2481pt"
 viewBox="0.00 0.00 3067.50 2481.00" xmlns="http://www.w3.org/2000/svg" xmlns:xlink="http://www.w3.org/1999/xlink">
<g id="graph0" class="graph" transform="scale(1 1) rotate(0) translate(4 2477)">
<title>Control&#45;flow graph for function &#39;function_42ec30(*a1)&#39;.</title>
<polygon fill="white" stroke="none" points="-4,4 -4,-2477 3063.5,-2477 3063.5,4 -4,4"/>
<text text-anchor="middle" x="1529.75" y="-7.8" font-family="Times,serif" font-size="14.00">Control&#45;flow graph for function &#39;function_42ec30(*a1)&#39;.</text>
<!-- Node0x100bb9c0 -->
<g id="node1" class="node"><title>Node0x100bb9c0</title>
<polygon fill="none" stroke="black" points="1897.5,-2434.5 1897.5,-2472.5 1956.5,-2472.5 1956.5,-2434.5 1897.5,-2434.5"/>
<text text-anchor="start" x="1905.5" y="-2457.3" font-family="Times,serif" font-size="14.00">entry:</text>
<text text-anchor="start" x="1905.5" y="-2442.3" font-family="Times,serif" font-size="14.00"> a1</text>
</g>
<!-- Node0x100cc5f0 -->
<g id="node2" class="node"><title>Node0x100cc5f0</title>
<polygon fill="none" stroke="black" points="1772.5,-1683.5 1772.5,-2396.5 2081.5,-2396.5 2081.5,-1683.5 1772.5,-1683.5"/>
<text text-anchor="start" x="1780.5" y="-2381.3" font-family="Times,serif" font-size="14.00">v1</text>
<text text-anchor="start" x="1780.5" y="-2366.3" font-family="Times,serif" font-size="14.00"> v2</text>
<text text-anchor="start" x="1780.5" y="-2351.3" font-family="Times,serif" font-size="14.00"> v3</text>
<text text-anchor="start" x="1780.5" y="-2336.3" font-family="Times,serif" font-size="14.00"> v4</text>
<text text-anchor="start" x="1780.5" y="-2321.3" font-family="Times,serif" font-size="14.00"> v5</text>
<text text-anchor="start" x="1780.5" y="-2306.3" font-family="Times,serif" font-size="14.00"> v6</text>
<text text-anchor="start" x="1780.5" y="-2291.3" font-family="Times,serif" font-size="14.00"> v7</text>
<text text-anchor="start" x="1780.5" y="-2276.3" font-family="Times,serif" font-size="14.00"> memcmp_rc</text>
<text text-anchor="start" x="1780.5" y="-2261.3" font-family="Times,serif" font-size="14.00"> v8</text>
<text text-anchor="start" x="1780.5" y="-2246.3" font-family="Times,serif" font-size="14.00"> v9</text>
<text text-anchor="start" x="1780.5" y="-2231.3" font-family="Times,serif" font-size="14.00"> v10</text>
<text text-anchor="start" x="1780.5" y="-2216.3" font-family="Times,serif" font-size="14.00"> memcmp_rc2</text>
<text text-anchor="start" x="1780.5" y="-2201.3" font-family="Times,serif" font-size="14.00"> v11</text>
<text text-anchor="start" x="1780.5" y="-2186.3" font-family="Times,serif" font-size="14.00"> v12</text>
<text text-anchor="start" x="1780.5" y="-2171.3" font-family="Times,serif" font-size="14.00"> v13</text>
<text text-anchor="start" x="1780.5" y="-2156.3" font-family="Times,serif" font-size="14.00"> v14</text>
<text text-anchor="start" x="1780.5" y="-2141.3" font-family="Times,serif" font-size="14.00"> str</text>
<text text-anchor="start" x="1780.5" y="-2126.3" font-family="Times,serif" font-size="14.00"> v15</text>
<text text-anchor="start" x="1780.5" y="-2111.3" font-family="Times,serif" font-size="14.00"> v16</text>
<text text-anchor="start" x="1780.5" y="-2096.3" font-family="Times,serif" font-size="14.00"> v17</text>
<text text-anchor="start" x="1780.5" y="-2081.3" font-family="Times,serif" font-size="14.00"> v18</text>
<text text-anchor="start" x="1780.5" y="-2066.3" font-family="Times,serif" font-size="14.00"> v19</text>
<text text-anchor="start" x="1780.5" y="-2051.3" font-family="Times,serif" font-size="14.00"> v20</text>
<text text-anchor="start" x="1780.5" y="-2036.3" font-family="Times,serif" font-size="14.00"> v21</text>
<text text-anchor="start" x="1780.5" y="-2021.3" font-family="Times,serif" font-size="14.00"> v22</text>
<text text-anchor="start" x="1780.5" y="-2006.3" font-family="Times,serif" font-size="14.00"> v23</text>
<text text-anchor="start" x="1780.5" y="-1991.3" font-family="Times,serif" font-size="14.00"> v24</text>
<text text-anchor="start" x="1780.5" y="-1976.3" font-family="Times,serif" font-size="14.00"> v25</text>
<text text-anchor="start" x="1780.5" y="-1961.3" font-family="Times,serif" font-size="14.00"> v26</text>
<text text-anchor="start" x="1780.5" y="-1946.3" font-family="Times,serif" font-size="14.00"> v27</text>
<text text-anchor="start" x="1780.5" y="-1931.3" font-family="Times,serif" font-size="14.00"> v28</text>
<text text-anchor="start" x="1780.5" y="-1916.3" font-family="Times,serif" font-size="14.00"> v29</text>
<text text-anchor="start" x="1780.5" y="-1901.3" font-family="Times,serif" font-size="14.00"> v30</text>
<text text-anchor="start" x="1780.5" y="-1886.3" font-family="Times,serif" font-size="14.00"> v31</text>
<text text-anchor="start" x="1780.5" y="-1871.3" font-family="Times,serif" font-size="14.00"> v32</text>
<text text-anchor="start" x="1780.5" y="-1856.3" font-family="Times,serif" font-size="14.00"> v33</text>
<text text-anchor="start" x="1780.5" y="-1841.3" font-family="Times,serif" font-size="14.00"> v16 = v17</text>
<text text-anchor="start" x="1780.5" y="-1826.3" font-family="Times,serif" font-size="14.00"> str = v15</text>
<text text-anchor="start" x="1780.5" y="-1811.3" font-family="Times,serif" font-size="14.00"> v25 = v26</text>
<text text-anchor="start" x="1780.5" y="-1796.3" font-family="Times,serif" font-size="14.00"> v28 = v29</text>
<text text-anchor="start" x="1780.5" y="-1781.3" font-family="Times,serif" font-size="14.00"> v31 = g3</text>
<text text-anchor="start" x="1780.5" y="-1766.3" font-family="Times,serif" font-size="14.00"> v23 = v31</text>
<text text-anchor="start" x="1780.5" y="-1751.3" font-family="Times,serif" font-size="14.00"> g3 = PtrToIntCastExpr&lt;int32&gt;(&amp;(v23))</text>
<text text-anchor="start" x="1780.5" y="-1736.3" font-family="Times,serif" font-size="14.00"> v2 = PtrToIntCastExpr&lt;int32&gt;(&amp;(v16))</text>
<text text-anchor="start" x="1780.5" y="-1721.3" font-family="Times,serif" font-size="14.00"> v5 = v2</text>
<text text-anchor="start" x="1780.5" y="-1706.3" font-family="Times,serif" font-size="14.00"> v3 = PtrToIntCastExpr&lt;int32&gt;(&amp;(v28))</text>
<text text-anchor="start" x="1780.5" y="-1691.3" font-family="Times,serif" font-size="14.00"> g2 = v3</text>
</g>
<!-- Node0x100bb9c0&#45;&gt;Node0x100cc5f0 -->
<g id="edge1" class="edge"><title>Node0x100bb9c0&#45;&gt;Node0x100cc5f0</title>
<path fill="none" stroke="black" d="M1927,-2434.29C1927,-2427.02 1927,-2417.81 1927,-2407.07"/>
<polygon fill="black" stroke="black" points="1930.5,-2406.78 1927,-2396.78 1923.5,-2406.78 1930.5,-2406.78"/>
</g>
<!-- Node0x100c8ec0 -->
<g id="node3" class="node"><title>Node0x100c8ec0</title>
<polygon fill="none" stroke="black" points="1860,-1609.5 1860,-1645.5 1994,-1645.5 1994,-1609.5 1860,-1609.5"/>
<text text-anchor="start" x="1868" y="-1623.8" font-family="Times,serif" font-size="14.00">if (a1 != NULL):</text>
</g>
<!-- Node0x100cc5f0&#45;&gt;Node0x100c8ec0 -->
<g id="edge2" class="edge"><title>Node0x100cc5f0&#45;&gt;Node0x100c8ec0</title>
<path fill="none" stroke="black" d="M1927,-1683.44C1927,-1673 1927,-1663.71 1927,-1655.87"/>
<polygon fill="black" stroke="black" points="1930.5,-1655.79 1927,-1645.79 1923.5,-1655.79 1930.5,-1655.79"/>
</g>
<!-- Node0x100cfaf0 -->
<g id="node4" class="node"><title>Node0x100cfaf0</title>
<polygon fill="none" stroke="black" points="1689,-1519.5 1689,-1557.5 1943,-1557.5 1943,-1519.5 1689,-1519.5"/>
<text text-anchor="start" x="1697" y="-1542.3" font-family="Times,serif" font-size="14.00">0x42ec49:</text>
<text text-anchor="start" x="1697" y="-1527.3" font-family="Times,serif" font-size="14.00"> printf(&quot; Base64 encoding test: &quot;)</text>
</g>
<!-- Node0x100c8ec0&#45;&gt;Node0x100cfaf0 -->
<g id="edge3" class="edge"><title>Node0x100c8ec0&#45;&gt;Node0x100cfaf0</title>
<path fill="none" stroke="black" d="M1902.03,-1609.39C1893.94,-1603.68 1884.99,-1597.2 1877,-1591 1866.11,-1582.56 1854.48,-1572.91 1844.32,-1564.26"/>
<polygon fill="black" stroke="black" points="1846.4,-1561.43 1836.54,-1557.58 1841.85,-1566.75 1846.4,-1561.43"/>
<text text-anchor="middle" x="1921" y="-1579.8" font-family="Times,serif" font-size="14.00">a1 != NULL</text>
</g>
<!-- Node0xd4fb6f0 -->
<g id="node5" class="node"><title>Node0xd4fb6f0</title>
<polygon fill="none" stroke="black" points="804.5,-1368.5 804.5,-1481.5 3059.5,-1481.5 3059.5,-1368.5 804.5,-1368.5"/>
<text text-anchor="start" x="812.5" y="-1466.3" font-family="Times,serif" font-size="14.00">0x42ec56:</text>
<text text-anchor="start" x="812.5" y="-1451.3" font-family="Times,serif" font-size="14.00"> v25 = 128</text>
<text text-anchor="start" x="812.5" y="-1436.3" font-family="Times,serif" font-size="14.00"> v16 = &quot;\x24\x48\x6e\x56\x87\x62\x5a\xbd\xbf\x17\xd9\xa2\xc4\x17\x1a\x01\x94\xed\x8f\x1e\x11\xb3\xd7\x09\x0c\xb6\xe9\x10\x6f\x22\xee\x13\xca\xb3\x07\x05\x76\xc9\xfa\x31\x6c\x08\x34\xff\x8d\xc2\x6c\x38&quot;</text>
<text text-anchor="start" x="812.5" y="-1421.3" font-family="Times,serif" font-size="14.00"> g2 = PtrToIntCastExpr&lt;int32&gt;(&quot;\x24\x48\x6e\x56\x87\x62\x5a\xbd\xbf\x17\xd9\xa2\xc4\x17\x1a\x01\x94\xed\x8f\x1e\x11\xb3\xd7\x09\x0c\xb6\xe9\x10\x6f\x22\xee\x13\xca\xb3\x07\x05\x76\xc9\xfa\x31\x6c\x08\x34\xff\x8d\xc2\x6c\x38&quot;)</text>
<text text-anchor="start" x="812.5" y="-1406.3" font-family="Times,serif" font-size="14.00"> v4 = PtrToIntCastExpr&lt;int32&gt;(&amp;(str))</text>
<text text-anchor="start" x="812.5" y="-1391.3" font-family="Times,serif" font-size="14.00"> v7 = function_42e790(BitCastExpr&lt;ptr&gt;(&amp;(str)), BitCastExpr&lt;ptr&gt;(&amp;(v25)), &quot;\x24\x48\x6e\x56\x87\x62\x5a\xbd\xbf\x17\xd9\xa2\xc4\x17\x1a\x01\x94\xed\x8f\x1e\x11\xb3\xd7\x09\x0c\xb6\xe9\x10\x6f\x22\xee\x13\xca\xb3\x07\x05\x76\xc9\xfa\x31\x6c\x08\x34\xff\x8d\xc2\x6c\x38&quot;, IntToPtrCastExpr&lt;ptr&gt;(64))</text>
<text text-anchor="start" x="812.5" y="-1376.3" font-family="Times,serif" font-size="14.00"> v5 = v2</text>
</g>
<!-- Node0x100c8ec0&#45;&gt;Node0xd4fb6f0 -->
<g id="edge4" class="edge"><title>Node0x100c8ec0&#45;&gt;Node0xd4fb6f0</title>
<path fill="none" stroke="black" d="M1951.32,-1609.38C1956.85,-1604.17 1961.98,-1597.96 1965,-1591 1978.66,-1559.55 1972.86,-1522.26 1962.57,-1491.09"/>
<polygon fill="black" stroke="black" points="1965.86,-1489.91 1959.25,-1481.63 1959.26,-1492.23 1965.86,-1489.91"/>
<text text-anchor="middle" x="2021" y="-1534.8" font-family="Times,serif" font-size="14.00">a1 == NULL</text>
</g>
<!-- Node0x100cfaf0&#45;&gt;Node0xd4fb6f0 -->
<g id="edge5" class="edge"><title>Node0x100cfaf0&#45;&gt;Node0xd4fb6f0</title>
<path fill="none" stroke="black" d="M1834.9,-1519.34C1843.88,-1510.7 1855.21,-1499.81 1866.93,-1488.55"/>
<polygon fill="black" stroke="black" points="1869.47,-1490.96 1874.26,-1481.5 1864.62,-1485.91 1869.47,-1490.96"/>
</g>
<!-- Node0x100cfbe0 -->
<g id="node6" class="node"><title>Node0x100cfbe0</title>
<polygon fill="none" stroke="black" points="1879.5,-1294.5 1879.5,-1330.5 1984.5,-1330.5 1984.5,-1294.5 1879.5,-1294.5"/>
<text text-anchor="start" x="1887.5" y="-1308.8" font-family="Times,serif" font-size="14.00">if (v7 == 0):</text>
</g>
<!-- Node0xd4fb6f0&#45;&gt;Node0x100cfbe0 -->
<g id="edge6" class="edge"><title>Node0xd4fb6f0&#45;&gt;Node0x100cfbe0</title>
<path fill="none" stroke="black" d="M1932,-1368.43C1932,-1358.86 1932,-1349.31 1932,-1340.91"/>
<polygon fill="black" stroke="black" points="1935.5,-1340.64 1932,-1330.64 1928.5,-1340.64 1935.5,-1340.64"/>
</g>
<!-- Node0x100ca8f0 -->
<g id="node7" class="node"><title>Node0x100ca8f0</title>
<polygon fill="none" stroke="black" points="793.5,-1174.5 793.5,-1242.5 2070.5,-1242.5 2070.5,-1174.5 793.5,-1174.5"/>
<text text-anchor="start" x="801.5" y="-1227.3" font-family="Times,serif" font-size="14.00">0x42ec87:</text>
<text text-anchor="start" x="801.5" y="-1212.3" font-family="Times,serif" font-size="14.00"> g2 = v4</text>
<text text-anchor="start" x="801.5" y="-1197.3" font-family="Times,serif" font-size="14.00"> memcmp_rc = memcmp(&quot;JEhuVodiWr2/F9mixBcaAZTtjx4Rs9cJDLbpEG8i7hPKswcFdsn6MWwINP+Nwmw4AEPpVJevUEvRQbqVMVoLlw==&quot;, BitCastExpr&lt;ptr&gt;(&amp;(str)), 88)</text>
<text text-anchor="start" x="801.5" y="-1182.3" font-family="Times,serif" font-size="14.00"> v5 = v2</text>
</g>
<!-- Node0x100cfbe0&#45;&gt;Node0x100ca8f0 -->
<g id="edge7" class="edge"><title>Node0x100cfbe0&#45;&gt;Node0x100ca8f0</title>
<path fill="none" stroke="black" d="M1879.44,-1300.78C1814.41,-1287.51 1700.46,-1264.27 1603.83,-1244.55"/>
<polygon fill="black" stroke="black" points="1604.44,-1241.11 1593.94,-1242.54 1603.04,-1247.96 1604.44,-1241.11"/>
<text text-anchor="middle" x="1786" y="-1264.8" font-family="Times,serif" font-size="14.00">v7 == 0</text>
</g>
<!-- Node0x100d3ff0 -->
<g id="node8" class="node"><title>Node0x100d3ff0</title>
<polygon fill="none" stroke="black" points="2030,-996.5 2030,-1034.5 2168,-1034.5 2168,-996.5 2030,-996.5"/>
<text text-anchor="start" x="2038" y="-1019.3" font-family="Times,serif" font-size="14.00">0x42eca1:</text>
<text text-anchor="start" x="2038" y="-1004.3" font-family="Times,serif" font-size="14.00"> if (a1 != NULL):</text>
</g>
<!-- Node0x100cfbe0&#45;&gt;Node0x100d3ff0 -->
<g id="edge8" class="edge"><title>Node0x100cfbe0&#45;&gt;Node0x100d3ff0</title>
<path fill="none" stroke="black" d="M1984.85,-1300.92C2017.5,-1291.47 2057.18,-1274.12 2079,-1243 2121.15,-1182.87 2112.61,-1090.54 2104.78,-1044.55"/>
<polygon fill="black" stroke="black" points="2108.22,-1043.9 2102.99,-1034.68 2101.34,-1045.15 2108.22,-1043.9"/>
<text text-anchor="middle" x="2138" y="-1144.8" font-family="Times,serif" font-size="14.00">v7 != 0</text>
</g>
<!-- Node0x100ce010 -->
<g id="node9" class="node"><title>Node0x100ce010</title>
<polygon fill="none" stroke="black" points="1344,-1086.5 1344,-1122.5 1520,-1122.5 1520,-1086.5 1344,-1086.5"/>
<text text-anchor="start" x="1352" y="-1100.8" font-family="Times,serif" font-size="14.00">if (memcmp_rc == 0):</text>
</g>
<!-- Node0x100ca8f0&#45;&gt;Node0x100ce010 -->
<g id="edge9" class="edge"><title>Node0x100ca8f0&#45;&gt;Node0x100ce010</title>
<path fill="none" stroke="black" d="M1432,-1174.38C1432,-1160.93 1432,-1145.58 1432,-1132.79"/>
<polygon fill="black" stroke="black" points="1435.5,-1132.74 1432,-1122.74 1428.5,-1132.74 1435.5,-1132.74"/>
</g>
<!-- Node0x100ce130 -->
<g id="node10" class="node"><title>Node0x100ce130</title>
<polygon fill="none" stroke="black" points="2029.5,-906.5 2029.5,-944.5 2168.5,-944.5 2168.5,-906.5 2029.5,-906.5"/>
<text text-anchor="start" x="2037.5" y="-929.3" font-family="Times,serif" font-size="14.00">0x42eca7:</text>
<text text-anchor="start" x="2037.5" y="-914.3" font-family="Times,serif" font-size="14.00"> printf(&quot;failed\n&quot;)</text>
</g>
<!-- Node0x100d3ff0&#45;&gt;Node0x100ce130 -->
<g id="edge10" class="edge"><title>Node0x100d3ff0&#45;&gt;Node0x100ce130</title>
<path fill="none" stroke="black" d="M2099,-996.266C2099,-984.349 2099,-968.538 2099,-954.982"/>
<polygon fill="black" stroke="black" points="2102.5,-954.71 2099,-944.71 2095.5,-954.71 2102.5,-954.71"/>
<text text-anchor="middle" x="2143" y="-966.8" font-family="Times,serif" font-size="14.00">a1 != NULL</text>
</g>
<!-- Node0x100cfa90 -->
<g id="node11" class="node"><title>Node0x100cfa90</title>
<polygon fill="none" stroke="black" points="1928,-725.5 1928,-868.5 2482,-868.5 2482,-725.5 1928,-725.5"/>
<text text-anchor="start" x="1936" y="-853.3" font-family="Times,serif" font-size="14.00">0x42ecb4:</text>
<text text-anchor="start" x="1936" y="-838.3" font-family="Times,serif" font-size="14.00"> g2 = 1</text>
<text text-anchor="start" x="1936" y="-823.3" font-family="Times,serif" font-size="14.00"> v32 = g3</text>
<text text-anchor="start" x="1936" y="-808.3" font-family="Times,serif" font-size="14.00"> g5 = (v32 ^ v3)</text>
<text text-anchor="start" x="1936" y="-793.3" font-family="Times,serif" font-size="14.00"> v1 = v16</text>
<text text-anchor="start" x="1936" y="-778.3" font-family="Times,serif" font-size="14.00"> v13 = function_43c16e(BitCastExpr&lt;ptr&gt;(v1), &amp;(str), NULL, NULL, 0, 0)</text>
<text text-anchor="start" x="1936" y="-763.3" font-family="Times,serif" font-size="14.00"> v33 = v23</text>
<text text-anchor="start" x="1936" y="-748.3" font-family="Times,serif" font-size="14.00"> g3 = v33</text>
<text text-anchor="start" x="1936" y="-733.3" font-family="Times,serif" font-size="14.00"> return PtrToIntCastExpr&lt;int32&gt;(v13)</text>
</g>
<!-- Node0x100d3ff0&#45;&gt;Node0x100cfa90 -->
<g id="edge11" class="edge"><title>Node0x100d3ff0&#45;&gt;Node0x100cfa90</title>
<path fill="none" stroke="black" d="M2168.36,-997.167C2177.13,-992.282 2185.09,-986.021 2191,-978 2211.65,-949.993 2217.02,-912.427 2216.49,-878.859"/>
<polygon fill="black" stroke="black" points="2219.97,-878.461 2216.14,-868.585 2212.98,-878.697 2219.97,-878.461"/>
<text text-anchor="middle" x="2262" y="-921.8" font-family="Times,serif" font-size="14.00">a1 == NULL</text>
</g>
<!-- Node0x100ce010&#45;&gt;Node0x100d3ff0 -->
<g id="edge13" class="edge"><title>Node0x100ce010&#45;&gt;Node0x100d3ff0</title>
<path fill="none" stroke="black" d="M1520.23,-1091.99C1651.05,-1074.93 1894.48,-1043.18 2019.85,-1026.82"/>
<polygon fill="black" stroke="black" points="2020.31,-1030.29 2029.77,-1025.53 2019.41,-1023.35 2020.31,-1030.29"/>
<text text-anchor="middle" x="1868.5" y="-1056.8" font-family="Times,serif" font-size="14.00">memcmp_rc != 0</text>
</g>
<!-- Node0x100d4110 -->
<g id="node12" class="node"><title>Node0x100d4110</title>
<polygon fill="none" stroke="black" points="1136,-996.5 1136,-1034.5 1274,-1034.5 1274,-996.5 1136,-996.5"/>
<text text-anchor="start" x="1144" y="-1019.3" font-family="Times,serif" font-size="14.00">0x42ecbe:</text>
<text text-anchor="start" x="1144" y="-1004.3" font-family="Times,serif" font-size="14.00"> if (a1 != NULL):</text>
</g>
<!-- Node0x100ce010&#45;&gt;Node0x100d4110 -->
<g id="edge12" class="edge"><title>Node0x100ce010&#45;&gt;Node0x100d4110</title>
<path fill="none" stroke="black" d="M1387.42,-1086.42C1351.48,-1072.64 1300.68,-1053.17 1261.82,-1038.28"/>
<polygon fill="black" stroke="black" points="1262.8,-1034.91 1252.21,-1034.59 1260.3,-1041.44 1262.8,-1034.91"/>
<text text-anchor="middle" x="1404.5" y="-1056.8" font-family="Times,serif" font-size="14.00">memcmp_rc == 0</text>
</g>
<!-- Node0x100ce130&#45;&gt;Node0x100cfa90 -->
<g id="edge14" class="edge"><title>Node0x100ce130&#45;&gt;Node0x100cfa90</title>
<path fill="none" stroke="black" d="M2114.19,-906.376C2121.16,-898.049 2129.97,-887.546 2139.33,-876.375"/>
<polygon fill="black" stroke="black" points="2142.14,-878.465 2145.88,-868.552 2136.78,-873.969 2142.14,-878.465"/>
</g>
<!-- Node0x100cf140 -->
<g id="node13" class="node"><title>Node0x100cf140</title>
<polygon fill="none" stroke="black" points="1873,-23.5 1873,-59.5 1927,-59.5 1927,-23.5 1873,-23.5"/>
<text text-anchor="start" x="1881" y="-37.8" font-family="Times,serif" font-size="14.00">exit:</text>
</g>
<!-- Node0x100cfa90&#45;&gt;Node0x100cf140 -->
<g id="edge15" class="edge"><title>Node0x100cfa90&#45;&gt;Node0x100cf140</title>
<path fill="none" stroke="black" d="M2205,-725.312C2205,-707.428 2205,-688.257 2205,-670.5 2205,-670.5 2205,-670.5 2205,-168 2205,-135.334 2209.93,-119.238 2186,-97 2150.34,-63.8608 2006.44,-49.7368 1937.36,-44.7742"/>
<polygon fill="black" stroke="black" points="1937.56,-41.2795 1927.34,-44.081 1937.07,-48.2628 1937.56,-41.2795"/>
</g>
<!-- Node0x100cbbc0 -->
<g id="node14" class="node"><title>Node0x100cbbc0</title>
<polygon fill="none" stroke="black" points="851.5,-906.5 851.5,-944.5 1168.5,-944.5 1168.5,-906.5 851.5,-906.5"/>
<text text-anchor="start" x="859.5" y="-929.3" font-family="Times,serif" font-size="14.00">0x42ecc4:</text>
<text text-anchor="start" x="859.5" y="-914.3" font-family="Times,serif" font-size="14.00"> printf(&quot;passed\n Base64 decoding test: &quot;)</text>
</g>
<!-- Node0x100d4110&#45;&gt;Node0x100cbbc0 -->
<g id="edge16" class="edge"><title>Node0x100d4110&#45;&gt;Node0x100cbbc0</title>
<path fill="none" stroke="black" d="M1149.3,-996.407C1134.09,-990.971 1117.74,-984.665 1103,-978 1084.7,-969.723 1065.15,-959.174 1048.72,-949.782"/>
<polygon fill="black" stroke="black" points="1050.35,-946.682 1039.94,-944.705 1046.84,-952.742 1050.35,-946.682"/>
<text text-anchor="middle" x="1147" y="-966.8" font-family="Times,serif" font-size="14.00">a1 != NULL</text>
</g>
<!-- Node0x100cce90 -->
<g id="node15" class="node"><title>Node0x100cce90</title>
<polygon fill="none" stroke="black" points="110.5,-748 110.5,-846 1909.5,-846 1909.5,-748 110.5,-748"/>
<text text-anchor="start" x="118.5" y="-830.8" font-family="Times,serif" font-size="14.00">0x42ecd1:</text>
<text text-anchor="start" x="118.5" y="-815.8" font-family="Times,serif" font-size="14.00"> v25 = 128</text>
<text text-anchor="start" x="118.5" y="-800.8" font-family="Times,serif" font-size="14.00"> v16 = &quot;JEhuVodiWr2/F9mixBcaAZTtjx4Rs9cJDLbpEG8i7hPKswcFdsn6MWwINP+Nwmw4AEPpVJevUEvRQbqVMVoLlw==&quot;</text>
<text text-anchor="start" x="118.5" y="-785.8" font-family="Times,serif" font-size="14.00"> g2 = v4</text>
<text text-anchor="start" x="118.5" y="-770.8" font-family="Times,serif" font-size="14.00"> v10 = function_42ea00(BitCastExpr&lt;ptr&gt;(&amp;(str)), BitCastExpr&lt;ptr&gt;(&amp;(v25)), BitCastExpr&lt;ptr&gt;(&quot;JEhuVodiWr2/F9mixBcaAZTtjx4Rs9cJDLbpEG8i7hPKswcFdsn6MWwINP+Nwmw4AEPpVJevUEvRQbqVMVoLlw==&quot;), IntToPtrCastExpr&lt;ptr&gt;(88))</text>
<text text-anchor="start" x="118.5" y="-755.8" font-family="Times,serif" font-size="14.00"> v5 = v2</text>
</g>
<!-- Node0x100d4110&#45;&gt;Node0x100cce90 -->
<g id="edge17" class="edge"><title>Node0x100d4110&#45;&gt;Node0x100cce90</title>
<path fill="none" stroke="black" d="M1204.29,-996.289C1202.55,-973.252 1196.68,-933.3 1177,-906 1161.69,-884.766 1140.8,-866.637 1118.98,-851.636"/>
<polygon fill="black" stroke="black" points="1120.85,-848.672 1110.58,-846.04 1116.97,-854.497 1120.85,-848.672"/>
<text text-anchor="middle" x="1242" y="-921.8" font-family="Times,serif" font-size="14.00">a1 == NULL</text>
</g>
<!-- Node0x100cbbc0&#45;&gt;Node0x100cce90 -->
<g id="edge18" class="edge"><title>Node0x100cbbc0&#45;&gt;Node0x100cce90</title>
<path fill="none" stroke="black" d="M1010,-906.376C1010,-893.118 1010,-874.341 1010,-856.133"/>
<polygon fill="black" stroke="black" points="1013.5,-856.115 1010,-846.115 1006.5,-856.115 1013.5,-856.115"/>
</g>
<!-- Node0x100cd010 -->
<g id="node16" class="node"><title>Node0x100cd010</title>
<polygon fill="none" stroke="black" points="953,-651.5 953,-687.5 1067,-687.5 1067,-651.5 953,-651.5"/>
<text text-anchor="start" x="961" y="-665.8" font-family="Times,serif" font-size="14.00">if (v10 == 0):</text>
</g>
<!-- Node0x100cce90&#45;&gt;Node0x100cd010 -->
<g id="edge19" class="edge"><title>Node0x100cce90&#45;&gt;Node0x100cd010</title>
<path fill="none" stroke="black" d="M1010,-747.837C1010,-730.982 1010,-712.64 1010,-698.05"/>
<polygon fill="black" stroke="black" points="1013.5,-697.712 1010,-687.712 1006.5,-697.712 1013.5,-697.712"/>
</g>
<!-- Node0x100cbc40 -->
<g id="node17" class="node"><title>Node0x100cbc40</title>
<polygon fill="none" stroke="black" points="0,-546.5 0,-599.5 1894,-599.5 1894,-546.5 0,-546.5"/>
<text text-anchor="start" x="8" y="-584.3" font-family="Times,serif" font-size="14.00">0x42ed02:</text>
<text text-anchor="start" x="8" y="-569.3" font-family="Times,serif" font-size="14.00"> memcmp_rc2 = memcmp(&quot;\x24\x48\x6e\x56\x87\x62\x5a\xbd\xbf\x17\xd9\xa2\xc4\x17\x1a\x01\x94\xed\x8f\x1e\x11\xb3\xd7\x09\x0c\xb6\xe9\x10\x6f\x22\xee\x13\xca\xb3\x07\x05\x76\xc9\xfa\x31\x6c\x08\x34\xff\x8d\xc2\x6c\x38&quot;, BitCastExpr&lt;ptr&gt;(&amp;(str)), 64)</text>
<text text-anchor="start" x="8" y="-554.3" font-family="Times,serif" font-size="14.00"> v5 = v2</text>
</g>
<!-- Node0x100cd010&#45;&gt;Node0x100cbc40 -->
<g id="edge20" class="edge"><title>Node0x100cd010&#45;&gt;Node0x100cbc40</title>
<path fill="none" stroke="black" d="M998.445,-651.167C990.427,-639.141 979.481,-622.722 969.747,-608.12"/>
<polygon fill="black" stroke="black" points="972.646,-606.159 964.186,-599.78 966.821,-610.042 972.646,-606.159"/>
<text text-anchor="middle" x="1020.5" y="-621.8" font-family="Times,serif" font-size="14.00">v10 == 0</text>
</g>
<!-- Node0x100d2c50 -->
<g id="node18" class="node"><title>Node0x100d2c50</title>
<polygon fill="none" stroke="black" points="1815,-368.5 1815,-406.5 1953,-406.5 1953,-368.5 1815,-368.5"/>
<text text-anchor="start" x="1823" y="-391.3" font-family="Times,serif" font-size="14.00">0x42ed1c:</text>
<text text-anchor="start" x="1823" y="-376.3" font-family="Times,serif" font-size="14.00"> if (a1 != NULL):</text>
</g>
<!-- Node0x100cd010&#45;&gt;Node0x100d2c50 -->
<g id="edge21" class="edge"><title>Node0x100cd010&#45;&gt;Node0x100d2c50</title>
<path fill="none" stroke="black" d="M1067.01,-668.51C1254.94,-667.956 1846.21,-661.315 1903,-600 1949.68,-549.604 1918.34,-460.525 1897.83,-415.771"/>
<polygon fill="black" stroke="black" points="1900.96,-414.212 1893.52,-406.669 1894.63,-417.205 1900.96,-414.212"/>
<text text-anchor="middle" x="1959.5" y="-516.8" font-family="Times,serif" font-size="14.00">v10 != 0</text>
</g>
<!-- Node0x100cbce0 -->
<g id="node19" class="node"><title>Node0x100cbce0</title>
<polygon fill="none" stroke="black" points="1219.5,-458.5 1219.5,-494.5 1404.5,-494.5 1404.5,-458.5 1219.5,-458.5"/>
<text text-anchor="start" x="1227.5" y="-472.8" font-family="Times,serif" font-size="14.00">if (memcmp_rc2 == 0):</text>
</g>
<!-- Node0x100cbc40&#45;&gt;Node0x100cbce0 -->
<g id="edge22" class="edge"><title>Node0x100cbc40&#45;&gt;Node0x100cbce0</title>
<path fill="none" stroke="black" d="M1045.77,-546.427C1105.82,-530.88 1181.31,-511.336 1236.56,-497.033"/>
<polygon fill="black" stroke="black" points="1237.48,-500.41 1246.28,-494.515 1235.72,-493.633 1237.48,-500.41"/>
</g>
<!-- Node0x100cbf90 -->
<g id="node20" class="node"><title>Node0x100cbf90</title>
<polygon fill="none" stroke="black" points="1761.5,-278.5 1761.5,-316.5 1900.5,-316.5 1900.5,-278.5 1761.5,-278.5"/>
<text text-anchor="start" x="1769.5" y="-301.3" font-family="Times,serif" font-size="14.00">0x42ed22:</text>
<text text-anchor="start" x="1769.5" y="-286.3" font-family="Times,serif" font-size="14.00"> printf(&quot;failed\n&quot;)</text>
</g>
<!-- Node0x100d2c50&#45;&gt;Node0x100cbf90 -->
<g id="edge23" class="edge"><title>Node0x100d2c50&#45;&gt;Node0x100cbf90</title>
<path fill="none" stroke="black" d="M1851.42,-368.41C1844.95,-363.304 1838.94,-357.152 1835,-350 1831.15,-343.011 1829.49,-334.657 1828.96,-326.732"/>
<polygon fill="black" stroke="black" points="1832.46,-326.668 1828.84,-316.711 1825.46,-326.754 1832.46,-326.668"/>
<text text-anchor="middle" x="1879" y="-338.8" font-family="Times,serif" font-size="14.00">a1 != NULL</text>
</g>
<!-- Node0x100cdbe0 -->
<g id="node21" class="node"><title>Node0x100cdbe0</title>
<polygon fill="none" stroke="black" points="1623,-97.5 1623,-240.5 2177,-240.5 2177,-97.5 1623,-97.5"/>
<text text-anchor="start" x="1631" y="-225.3" font-family="Times,serif" font-size="14.00">0x42ed2f:</text>
<text text-anchor="start" x="1631" y="-210.3" font-family="Times,serif" font-size="14.00"> g2 = 1</text>
<text text-anchor="start" x="1631" y="-195.3" font-family="Times,serif" font-size="14.00"> v32 = g3</text>
<text text-anchor="start" x="1631" y="-180.3" font-family="Times,serif" font-size="14.00"> g5 = (v32 ^ v3)</text>
<text text-anchor="start" x="1631" y="-165.3" font-family="Times,serif" font-size="14.00"> v1 = v16</text>
<text text-anchor="start" x="1631" y="-150.3" font-family="Times,serif" font-size="14.00"> v13 = function_43c16e(BitCastExpr&lt;ptr&gt;(v1), &amp;(str), NULL, NULL, 0, 0)</text>
<text text-anchor="start" x="1631" y="-135.3" font-family="Times,serif" font-size="14.00"> v33 = v23</text>
<text text-anchor="start" x="1631" y="-120.3" font-family="Times,serif" font-size="14.00"> g3 = v33</text>
<text text-anchor="start" x="1631" y="-105.3" font-family="Times,serif" font-size="14.00"> return PtrToIntCastExpr&lt;int32&gt;(v13)</text>
</g>
<!-- Node0x100d2c50&#45;&gt;Node0x100cdbe0 -->
<g id="edge24" class="edge"><title>Node0x100d2c50&#45;&gt;Node0x100cdbe0</title>
<path fill="none" stroke="black" d="M1909.77,-368.117C1915.13,-362.923 1920.05,-356.806 1923,-350 1936.41,-319.092 1934.6,-282.598 1927.95,-250.577"/>
<polygon fill="black" stroke="black" points="1931.36,-249.778 1925.74,-240.794 1924.53,-251.319 1931.36,-249.778"/>
<text text-anchor="middle" x="1981" y="-293.8" font-family="Times,serif" font-size="14.00">a1 == NULL</text>
</g>
<!-- Node0x100cbce0&#45;&gt;Node0x100d2c50 -->
<g id="edge26" class="edge"><title>Node0x100cbce0&#45;&gt;Node0x100d2c50</title>
<path fill="none" stroke="black" d="M1404.54,-461.425C1515.61,-444.531 1699.99,-416.488 1804.78,-400.549"/>
<polygon fill="black" stroke="black" points="1805.62,-403.962 1814.98,-398.998 1804.57,-397.042 1805.62,-403.962"/>
<text text-anchor="middle" x="1700" y="-428.8" font-family="Times,serif" font-size="14.00">memcmp_rc2 != 0</text>
</g>
<!-- Node0x100cbff0 -->
<g id="node22" class="node"><title>Node0x100cbff0</title>
<polygon fill="none" stroke="black" points="1243,-368.5 1243,-406.5 1381,-406.5 1381,-368.5 1243,-368.5"/>
<text text-anchor="start" x="1251" y="-391.3" font-family="Times,serif" font-size="14.00">0x42ed36:</text>
<text text-anchor="start" x="1251" y="-376.3" font-family="Times,serif" font-size="14.00"> if (a1 != NULL):</text>
</g>
<!-- Node0x100cbce0&#45;&gt;Node0x100cbff0 -->
<g id="edge25" class="edge"><title>Node0x100cbce0&#45;&gt;Node0x100cbff0</title>
<path fill="none" stroke="black" d="M1312,-458.312C1312,-446.511 1312,-430.572 1312,-416.904"/>
<polygon fill="black" stroke="black" points="1315.5,-416.551 1312,-406.551 1308.5,-416.551 1315.5,-416.551"/>
<text text-anchor="middle" x="1382" y="-428.8" font-family="Times,serif" font-size="14.00">memcmp_rc2 == 0</text>
</g>
<!-- Node0x100cbf90&#45;&gt;Node0x100cdbe0 -->
<g id="edge27" class="edge"><title>Node0x100cbf90&#45;&gt;Node0x100cdbe0</title>
<path fill="none" stroke="black" d="M1840.89,-278.376C1845.3,-270.29 1850.83,-260.151 1856.72,-249.34"/>
<polygon fill="black" stroke="black" points="1859.8,-251.007 1861.52,-240.552 1853.66,-247.655 1859.8,-251.007"/>
</g>
<!-- Node0x100cdbe0&#45;&gt;Node0x100cf140 -->
<g id="edge28" class="edge"><title>Node0x100cdbe0&#45;&gt;Node0x100cf140</title>
<path fill="none" stroke="black" d="M1900,-97.181C1900,-87.439 1900,-77.9608 1900,-69.7068"/>
<polygon fill="black" stroke="black" points="1903.5,-69.642 1900,-59.642 1896.5,-69.6421 1903.5,-69.642"/>
</g>
<!-- Node0xe9b8300 -->
<g id="node23" class="node"><title>Node0xe9b8300</title>
<polygon fill="none" stroke="black" points="1166,-278.5 1166,-316.5 1328,-316.5 1328,-278.5 1166,-278.5"/>
<text text-anchor="start" x="1174" y="-301.3" font-family="Times,serif" font-size="14.00">0x42ed3c:</text>
<text text-anchor="start" x="1174" y="-286.3" font-family="Times,serif" font-size="14.00"> printf(&quot;passed\n\n&quot;)</text>
</g>
<!-- Node0x100cbff0&#45;&gt;Node0xe9b8300 -->
<g id="edge29" class="edge"><title>Node0x100cbff0&#45;&gt;Node0xe9b8300</title>
<path fill="none" stroke="black" d="M1280.6,-368.446C1273.67,-363.242 1266.94,-357.038 1262,-350 1257.19,-343.139 1253.9,-334.737 1251.67,-326.725"/>
<polygon fill="black" stroke="black" points="1255.06,-325.864 1249.37,-316.932 1248.25,-327.467 1255.06,-325.864"/>
<text text-anchor="middle" x="1306" y="-338.8" font-family="Times,serif" font-size="14.00">a1 != NULL</text>
</g>
<!-- Node0x100cc290 -->
<g id="node24" class="node"><title>Node0x100cc290</title>
<polygon fill="none" stroke="black" points="1051,-97.5 1051,-240.5 1605,-240.5 1605,-97.5 1051,-97.5"/>
<text text-anchor="start" x="1059" y="-225.3" font-family="Times,serif" font-size="14.00">0x42ed49:</text>
<text text-anchor="start" x="1059" y="-210.3" font-family="Times,serif" font-size="14.00"> g2 = 0</text>
<text text-anchor="start" x="1059" y="-195.3" font-family="Times,serif" font-size="14.00"> v32 = g3</text>
<text text-anchor="start" x="1059" y="-180.3" font-family="Times,serif" font-size="14.00"> g5 = (v32 ^ v3)</text>
<text text-anchor="start" x="1059" y="-165.3" font-family="Times,serif" font-size="14.00"> v1 = v16</text>
<text text-anchor="start" x="1059" y="-150.3" font-family="Times,serif" font-size="14.00"> v13 = function_43c16e(BitCastExpr&lt;ptr&gt;(v1), &amp;(str), NULL, NULL, 0, 0)</text>
<text text-anchor="start" x="1059" y="-135.3" font-family="Times,serif" font-size="14.00"> v33 = v23</text>
<text text-anchor="start" x="1059" y="-120.3" font-family="Times,serif" font-size="14.00"> g3 = v33</text>
<text text-anchor="start" x="1059" y="-105.3" font-family="Times,serif" font-size="14.00"> return PtrToIntCastExpr&lt;int32&gt;(v13)</text>
</g>
<!-- Node0x100cbff0&#45;&gt;Node0x100cc290 -->
<g id="edge30" class="edge"><title>Node0x100cbff0&#45;&gt;Node0x100cc290</title>
<path fill="none" stroke="black" d="M1336.73,-368.4C1342.1,-363.126 1347.06,-356.901 1350,-350 1363.2,-319.027 1361.53,-282.522 1355.11,-250.511"/>
<polygon fill="black" stroke="black" points="1358.53,-249.756 1352.98,-240.731 1351.69,-251.247 1358.53,-249.756"/>
<text text-anchor="middle" x="1407" y="-293.8" font-family="Times,serif" font-size="14.00">a1 == NULL</text>
</g>
<!-- Node0xe9b8300&#45;&gt;Node0x100cc290 -->
<g id="edge31" class="edge"><title>Node0xe9b8300&#45;&gt;Node0x100cc290</title>
<path fill="none" stroke="black" d="M1258.61,-278.376C1263.83,-270.21 1270.4,-259.95 1277.4,-249.018"/>
<polygon fill="black" stroke="black" points="1280.38,-250.861 1282.82,-240.552 1274.48,-247.086 1280.38,-250.861"/>
</g>
<!-- Node0x100cc290&#45;&gt;Node0x100cf140 -->
<g id="edge32" class="edge"><title>Node0x100cc290&#45;&gt;Node0x100cf140</title>
<path fill="none" stroke="black" d="M1605.34,-98.9118C1608.24,-98.2674 1611.13,-97.63 1614,-97 1702.83,-77.5266 1808.05,-58.5076 1862.76,-48.9216"/>
<polygon fill="black" stroke="black" points="1863.44,-52.3558 1872.69,-47.1881 1862.24,-45.46 1863.44,-52.3558"/>
</g>
</g>
</svg>
