<?xml version="1.0" encoding="UTF-8" standalone="no"?>
<!DOCTYPE svg PUBLIC "-//W3C//DTD SVG 1.1//EN"
 "http://www.w3.org/Graphics/SVG/1.1/DTD/svg11.dtd">
<!-- Generated by graphviz version 2.38.0 (20140413.2041)
 -->
<!-- Title: Control&#45;flow graph for function &#39;function_414136(*a1, *a2, *a3)&#39;. Pages: 1 -->
<svg width="487pt" height="488pt"
 viewBox="0.00 0.00 487.00 488.00" xmlns="http://www.w3.org/2000/svg" xmlns:xlink="http://www.w3.org/1999/xlink">
<g id="graph0" class="graph" transform="scale(1 1) rotate(0) translate(4 484)">
<title>Control&#45;flow graph for function &#39;function_414136(*a1, *a2, *a3)&#39;.</title>
<polygon fill="white" stroke="none" points="-4,4 -4,-484 483,-484 483,4 -4,4"/>
<text text-anchor="middle" x="239.5" y="-7.8" font-family="Times,serif" font-size="14.00">Control&#45;flow graph for function &#39;function_414136(*a1, *a2, *a3)&#39;.</text>
<!-- Node0xf36c2b0 -->
<g id="node1" class="node"><title>Node0xf36c2b0</title>
<polygon fill="none" stroke="black" points="210,-411.5 210,-479.5 269,-479.5 269,-411.5 210,-411.5"/>
<text text-anchor="start" x="218" y="-464.3" font-family="Times,serif" font-size="14.00">entry:</text>
<text text-anchor="start" x="218" y="-449.3" font-family="Times,serif" font-size="14.00"> a1</text>
<text text-anchor="start" x="218" y="-434.3" font-family="Times,serif" font-size="14.00"> a2</text>
<text text-anchor="start" x="218" y="-419.3" font-family="Times,serif" font-size="14.00"> a3</text>
</g>
<!-- Node0xf37d4d0 -->
<g id="node2" class="node"><title>Node0xf37d4d0</title>
<polygon fill="none" stroke="black" points="89.5,-96.5 89.5,-374.5 389.5,-374.5 389.5,-96.5 89.5,-96.5"/>
<text text-anchor="start" x="97.5" y="-359.3" font-family="Times,serif" font-size="14.00">v1</text>
<text text-anchor="start" x="97.5" y="-344.3" font-family="Times,serif" font-size="14.00"> v2</text>
<text text-anchor="start" x="97.5" y="-329.3" font-family="Times,serif" font-size="14.00"> v3</text>
<text text-anchor="start" x="97.5" y="-314.3" font-family="Times,serif" font-size="14.00"> v4</text>
<text text-anchor="start" x="97.5" y="-299.3" font-family="Times,serif" font-size="14.00"> v5</text>
<text text-anchor="start" x="97.5" y="-284.3" font-family="Times,serif" font-size="14.00"> v6</text>
<text text-anchor="start" x="97.5" y="-269.3" font-family="Times,serif" font-size="14.00"> v7</text>
<text text-anchor="start" x="97.5" y="-254.3" font-family="Times,serif" font-size="14.00"> v8</text>
<text text-anchor="start" x="97.5" y="-239.3" font-family="Times,serif" font-size="14.00"> v9</text>
<text text-anchor="start" x="97.5" y="-224.3" font-family="Times,serif" font-size="14.00"> v10</text>
<text text-anchor="start" x="97.5" y="-209.3" font-family="Times,serif" font-size="14.00"> v11</text>
<text text-anchor="start" x="97.5" y="-194.3" font-family="Times,serif" font-size="14.00"> v12</text>
<text text-anchor="start" x="97.5" y="-179.3" font-family="Times,serif" font-size="14.00"> v3 = v4</text>
<text text-anchor="start" x="97.5" y="-164.3" font-family="Times,serif" font-size="14.00"> v10 = v11</text>
<text text-anchor="start" x="97.5" y="-149.3" font-family="Times,serif" font-size="14.00"> v10 = a1</text>
<text text-anchor="start" x="97.5" y="-134.3" font-family="Times,serif" font-size="14.00"> v3 = a1</text>
<text text-anchor="start" x="97.5" y="-119.3" font-family="Times,serif" font-size="14.00"> function_4140e8(a1, a2, a3, NULL, v8)</text>
<text text-anchor="start" x="97.5" y="-104.3" font-family="Times,serif" font-size="14.00"> return</text>
</g>
<!-- Node0xf36c2b0&#45;&gt;Node0xf37d4d0 -->
<g id="edge1" class="edge"><title>Node0xf36c2b0&#45;&gt;Node0xf37d4d0</title>
<path fill="none" stroke="black" d="M239.5,-411.081C239.5,-403.24 239.5,-394.385 239.5,-384.927"/>
<polygon fill="black" stroke="black" points="243,-384.868 239.5,-374.868 236,-384.868 243,-384.868"/>
</g>
<!-- Node0xf37d450 -->
<g id="node3" class="node"><title>Node0xf37d450</title>
<polygon fill="none" stroke="black" points="212.5,-23.5 212.5,-59.5 266.5,-59.5 266.5,-23.5 212.5,-23.5"/>
<text text-anchor="start" x="220.5" y="-37.8" font-family="Times,serif" font-size="14.00">exit:</text>
</g>
<!-- Node0xf37d4d0&#45;&gt;Node0xf37d450 -->
<g id="edge2" class="edge"><title>Node0xf37d4d0&#45;&gt;Node0xf37d450</title>
<path fill="none" stroke="black" d="M239.5,-96.4937C239.5,-86.7679 239.5,-77.7587 239.5,-69.9967"/>
<polygon fill="black" stroke="black" points="243,-69.9092 239.5,-59.9092 236,-69.9093 243,-69.9092"/>
</g>
</g>
</svg>
