<?xml version="1.0" encoding="UTF-8" standalone="no"?>
<!DOCTYPE svg PUBLIC "-//W3C//DTD SVG 1.1//EN"
 "http://www.w3.org/Graphics/SVG/1.1/DTD/svg11.dtd">
<!-- Generated by graphviz version 2.38.0 (20140413.2041)
 -->
<!-- Title: Control&#45;flow graph for function &#39;function_420783(*a1)&#39;. Pages: 1 -->
<svg width="572pt" height="1107pt"
 viewBox="0.00 0.00 571.50 1107.00" xmlns="http://www.w3.org/2000/svg" xmlns:xlink="http://www.w3.org/1999/xlink">
<g id="graph0" class="graph" transform="scale(1 1) rotate(0) translate(4 1103)">
<title>Control&#45;flow graph for function &#39;function_420783(*a1)&#39;.</title>
<polygon fill="white" stroke="none" points="-4,4 -4,-1103 567.5,-1103 567.5,4 -4,4"/>
<text text-anchor="middle" x="281.75" y="-7.8" font-family="Times,serif" font-size="14.00">Control&#45;flow graph for function &#39;function_420783(*a1)&#39;.</text>
<!-- Node0xf921df0 -->
<g id="node1" class="node"><title>Node0xf921df0</title>
<polygon fill="none" stroke="black" points="352,-1060.5 352,-1098.5 411,-1098.5 411,-1060.5 352,-1060.5"/>
<text text-anchor="start" x="360" y="-1083.3" font-family="Times,serif" font-size="14.00">entry:</text>
<text text-anchor="start" x="360" y="-1068.3" font-family="Times,serif" font-size="14.00"> a1</text>
</g>
<!-- Node0xf91e6f0 -->
<g id="node2" class="node"><title>Node0xf91e6f0</title>
<polygon fill="none" stroke="black" points="208.5,-459.5 208.5,-1022.5 554.5,-1022.5 554.5,-459.5 208.5,-459.5"/>
<text text-anchor="start" x="216.5" y="-1007.3" font-family="Times,serif" font-size="14.00">v1</text>
<text text-anchor="start" x="216.5" y="-992.3" font-family="Times,serif" font-size="14.00"> v2</text>
<text text-anchor="start" x="216.5" y="-977.3" font-family="Times,serif" font-size="14.00"> v3</text>
<text text-anchor="start" x="216.5" y="-962.3" font-family="Times,serif" font-size="14.00"> v4</text>
<text text-anchor="start" x="216.5" y="-947.3" font-family="Times,serif" font-size="14.00"> v5</text>
<text text-anchor="start" x="216.5" y="-932.3" font-family="Times,serif" font-size="14.00"> v6</text>
<text text-anchor="start" x="216.5" y="-917.3" font-family="Times,serif" font-size="14.00"> v7</text>
<text text-anchor="start" x="216.5" y="-902.3" font-family="Times,serif" font-size="14.00"> v8</text>
<text text-anchor="start" x="216.5" y="-887.3" font-family="Times,serif" font-size="14.00"> v9</text>
<text text-anchor="start" x="216.5" y="-872.3" font-family="Times,serif" font-size="14.00"> v10</text>
<text text-anchor="start" x="216.5" y="-857.3" font-family="Times,serif" font-size="14.00"> v11</text>
<text text-anchor="start" x="216.5" y="-842.3" font-family="Times,serif" font-size="14.00"> v12</text>
<text text-anchor="start" x="216.5" y="-827.3" font-family="Times,serif" font-size="14.00"> v13</text>
<text text-anchor="start" x="216.5" y="-812.3" font-family="Times,serif" font-size="14.00"> v14</text>
<text text-anchor="start" x="216.5" y="-797.3" font-family="Times,serif" font-size="14.00"> v15</text>
<text text-anchor="start" x="216.5" y="-782.3" font-family="Times,serif" font-size="14.00"> v16</text>
<text text-anchor="start" x="216.5" y="-767.3" font-family="Times,serif" font-size="14.00"> v17</text>
<text text-anchor="start" x="216.5" y="-752.3" font-family="Times,serif" font-size="14.00"> v18</text>
<text text-anchor="start" x="216.5" y="-737.3" font-family="Times,serif" font-size="14.00"> v19</text>
<text text-anchor="start" x="216.5" y="-722.3" font-family="Times,serif" font-size="14.00"> v20</text>
<text text-anchor="start" x="216.5" y="-707.3" font-family="Times,serif" font-size="14.00"> v21</text>
<text text-anchor="start" x="216.5" y="-692.3" font-family="Times,serif" font-size="14.00"> v22</text>
<text text-anchor="start" x="216.5" y="-677.3" font-family="Times,serif" font-size="14.00"> v23</text>
<text text-anchor="start" x="216.5" y="-662.3" font-family="Times,serif" font-size="14.00"> v10 = v11</text>
<text text-anchor="start" x="216.5" y="-647.3" font-family="Times,serif" font-size="14.00"> v7 = v8</text>
<text text-anchor="start" x="216.5" y="-632.3" font-family="Times,serif" font-size="14.00"> v17 = g5</text>
<text text-anchor="start" x="216.5" y="-617.3" font-family="Times,serif" font-size="14.00"> g9 = v17</text>
<text text-anchor="start" x="216.5" y="-602.3" font-family="Times,serif" font-size="14.00"> function_41dcf5(BitCastExpr&lt;ptr&gt;(v13))</text>
<text text-anchor="start" x="216.5" y="-587.3" font-family="Times,serif" font-size="14.00"> v18 = g9</text>
<text text-anchor="start" x="216.5" y="-572.3" font-family="Times,serif" font-size="14.00"> v20 = *(IntToPtrCastExpr&lt;ptr&gt;(v18))</text>
<text text-anchor="start" x="216.5" y="-557.3" font-family="Times,serif" font-size="14.00"> v2 = IntToPtrCastExpr&lt;ptr&gt;(v20)</text>
<text text-anchor="start" x="216.5" y="-542.3" font-family="Times,serif" font-size="14.00"> v21 = *(IntToPtrCastExpr&lt;ptr&gt;(v20))</text>
<text text-anchor="start" x="216.5" y="-527.3" font-family="Times,serif" font-size="14.00"> g5 = v21</text>
<text text-anchor="start" x="216.5" y="-512.3" font-family="Times,serif" font-size="14.00"> v7 = v2</text>
<text text-anchor="start" x="216.5" y="-497.3" font-family="Times,serif" font-size="14.00"> g10 = PtrToIntCastExpr&lt;int32&gt;(&amp;(v7))</text>
<text text-anchor="start" x="216.5" y="-482.3" font-family="Times,serif" font-size="14.00"> v23 = *(IntToPtrCastExpr&lt;ptr&gt;((v21 + 28)))</text>
<text text-anchor="start" x="216.5" y="-467.3" font-family="Times,serif" font-size="14.00"> IntToPtrCastExpr&lt;ptr&gt;(v23)(v20, 0)</text>
</g>
<!-- Node0xf921df0&#45;&gt;Node0xf91e6f0 -->
<g id="edge1" class="edge"><title>Node0xf921df0&#45;&gt;Node0xf91e6f0</title>
<path fill="none" stroke="black" d="M381.5,-1060.41C381.5,-1053.09 381.5,-1043.82 381.5,-1033.08"/>
<polygon fill="black" stroke="black" points="385,-1032.82 381.5,-1022.82 378,-1032.82 385,-1032.82"/>
</g>
<!-- Node0xf8f6d30 -->
<g id="node3" class="node"><title>Node0xf8f6d30</title>
<polygon fill="none" stroke="black" points="324.5,-383.5 324.5,-421.5 438.5,-421.5 438.5,-383.5 324.5,-383.5"/>
<text text-anchor="start" x="332.5" y="-406.3" font-family="Times,serif" font-size="14.00">if (v20 &gt;= 0):</text>
<text text-anchor="start" x="332.5" y="-391.3" font-family="Times,serif" font-size="14.00"> else:</text>
</g>
<!-- Node0xf91e6f0&#45;&gt;Node0xf8f6d30 -->
<g id="edge2" class="edge"><title>Node0xf91e6f0&#45;&gt;Node0xf8f6d30</title>
<path fill="none" stroke="black" d="M381.5,-459.444C381.5,-449.155 381.5,-439.897 381.5,-432.011"/>
<polygon fill="black" stroke="black" points="385,-431.812 381.5,-421.812 378,-431.812 385,-431.812"/>
</g>
<!-- Node0xf9039a0 -->
<g id="node4" class="node"><title>Node0xf9039a0</title>
<polygon fill="none" stroke="black" points="0,-203.5 0,-331.5 473,-331.5 473,-203.5 0,-203.5"/>
<text text-anchor="start" x="8" y="-316.3" font-family="Times,serif" font-size="14.00">0x420799:</text>
<text text-anchor="start" x="8" y="-301.3" font-family="Times,serif" font-size="14.00"> v10 = 0</text>
<text text-anchor="start" x="8" y="-286.3" font-family="Times,serif" font-size="14.00"> v19 = g9</text>
<text text-anchor="start" x="8" y="-271.3" font-family="Times,serif" font-size="14.00"> g5 = v19</text>
<text text-anchor="start" x="8" y="-256.3" font-family="Times,serif" font-size="14.00"> v1 = v7</text>
<text text-anchor="start" x="8" y="-241.3" font-family="Times,serif" font-size="14.00"> v5 = function_41f8e3(0, IntToPtrCastExpr&lt;ptr&gt;(1), &amp;(v1[&#39;0&#39;]))</text>
<text text-anchor="start" x="8" y="-226.3" font-family="Times,serif" font-size="14.00"> v3 = IntToPtrCastExpr&lt;ptr&gt;(v5)</text>
<text text-anchor="start" x="8" y="-211.3" font-family="Times,serif" font-size="14.00"> v6 = v3</text>
</g>
<!-- Node0xf8f6d30&#45;&gt;Node0xf9039a0 -->
<g id="edge3" class="edge"><title>Node0xf8f6d30&#45;&gt;Node0xf9039a0</title>
<path fill="none" stroke="black" d="M361.642,-383.286C348.748,-371.458 331.033,-355.209 312.987,-338.657"/>
<polygon fill="black" stroke="black" points="314.982,-335.737 305.246,-331.557 310.25,-340.896 314.982,-335.737"/>
<text text-anchor="middle" x="374" y="-353.8" font-family="Times,serif" font-size="14.00">v20 &gt;= 0</text>
</g>
<!-- Node0xf919a00 -->
<g id="node5" class="node"><title>Node0xf919a00</title>
<polygon fill="none" stroke="black" points="491.5,-249.5 491.5,-285.5 563.5,-285.5 563.5,-249.5 491.5,-249.5"/>
<text text-anchor="start" x="499.5" y="-263.8" font-family="Times,serif" font-size="14.00">v6 = v2</text>
</g>
<!-- Node0xf8f6d30&#45;&gt;Node0xf919a00 -->
<g id="edge4" class="edge"><title>Node0xf8f6d30&#45;&gt;Node0xf919a00</title>
<path fill="none" stroke="black" d="M413.286,-383.274C434.031,-370.488 460.97,-352.132 481.5,-332 492.997,-320.726 503.691,-306.313 511.868,-294.069"/>
<polygon fill="black" stroke="black" points="514.848,-295.907 517.354,-285.612 508.975,-292.097 514.848,-295.907"/>
<text text-anchor="middle" x="488" y="-353.8" font-family="Times,serif" font-size="14.00">v20 &lt; 0</text>
</g>
<!-- Node0xf8f2000 -->
<g id="node6" class="node"><title>Node0xf8f2000</title>
<polygon fill="none" stroke="black" points="270.5,-97.5 270.5,-165.5 558.5,-165.5 558.5,-97.5 270.5,-97.5"/>
<text text-anchor="start" x="278.5" y="-150.3" font-family="Times,serif" font-size="14.00">0x4207a4:</text>
<text text-anchor="start" x="278.5" y="-135.3" font-family="Times,serif" font-size="14.00"> v22 = v7</text>
<text text-anchor="start" x="278.5" y="-120.3" font-family="Times,serif" font-size="14.00"> g9 = PtrToIntCastExpr&lt;int32&gt;(v22)</text>
<text text-anchor="start" x="278.5" y="-105.3" font-family="Times,serif" font-size="14.00"> return PtrToIntCastExpr&lt;int32&gt;(v6)</text>
</g>
<!-- Node0xf9039a0&#45;&gt;Node0xf8f2000 -->
<g id="edge5" class="edge"><title>Node0xf9039a0&#45;&gt;Node0xf8f2000</title>
<path fill="none" stroke="black" d="M320.288,-203.424C334.625,-192.631 349.143,-181.701 362.347,-171.761"/>
<polygon fill="black" stroke="black" points="364.501,-174.52 370.386,-165.71 360.291,-168.928 364.501,-174.52"/>
</g>
<!-- Node0xf919a00&#45;&gt;Node0xf8f2000 -->
<g id="edge6" class="edge"><title>Node0xf919a00&#45;&gt;Node0xf8f2000</title>
<path fill="none" stroke="black" d="M515.985,-249.329C507.018,-236.283 494.03,-218.076 481.5,-203 473.239,-193.061 463.929,-182.763 454.935,-173.209"/>
<polygon fill="black" stroke="black" points="457.246,-170.56 447.817,-165.728 452.175,-175.385 457.246,-170.56"/>
</g>
<!-- Node0xf931f60 -->
<g id="node7" class="node"><title>Node0xf931f60</title>
<polygon fill="none" stroke="black" points="387.5,-23.5 387.5,-59.5 441.5,-59.5 441.5,-23.5 387.5,-23.5"/>
<text text-anchor="start" x="395.5" y="-37.8" font-family="Times,serif" font-size="14.00">exit:</text>
</g>
<!-- Node0xf8f2000&#45;&gt;Node0xf931f60 -->
<g id="edge7" class="edge"><title>Node0xf8f2000&#45;&gt;Node0xf931f60</title>
<path fill="none" stroke="black" d="M414.5,-97.4817C414.5,-88.3281 414.5,-78.4972 414.5,-69.7155"/>
<polygon fill="black" stroke="black" points="418,-69.6402 414.5,-59.6402 411,-69.6403 418,-69.6402"/>
</g>
</g>
</svg>
