<?xml version="1.0" encoding="UTF-8" standalone="no"?>
<!DOCTYPE svg PUBLIC "-//W3C//DTD SVG 1.1//EN"
 "http://www.w3.org/Graphics/SVG/1.1/DTD/svg11.dtd">
<!-- Generated by graphviz version 2.38.0 (20140413.2041)
 -->
<!-- Title: Control&#45;flow graph for function &#39;function_414e57()&#39;. Pages: 1 -->
<svg width="542pt" height="2084pt"
 viewBox="0.00 0.00 541.50 2084.00" xmlns="http://www.w3.org/2000/svg" xmlns:xlink="http://www.w3.org/1999/xlink">
<g id="graph0" class="graph" transform="scale(1 1) rotate(0) translate(4 2080)">
<title>Control&#45;flow graph for function &#39;function_414e57()&#39;.</title>
<polygon fill="white" stroke="none" points="-4,4 -4,-2080 537.5,-2080 537.5,4 -4,4"/>
<text text-anchor="middle" x="266.75" y="-7.8" font-family="Times,serif" font-size="14.00">Control&#45;flow graph for function &#39;function_414e57()&#39;.</text>
<!-- Node0xf3d2290 -->
<g id="node1" class="node"><title>Node0xf3d2290</title>
<polygon fill="none" stroke="black" points="143.5,-2039.5 143.5,-2075.5 202.5,-2075.5 202.5,-2039.5 143.5,-2039.5"/>
<text text-anchor="start" x="151.5" y="-2053.8" font-family="Times,serif" font-size="14.00">entry:</text>
</g>
<!-- Node0xf3ce450 -->
<g id="node2" class="node"><title>Node0xf3ce450</title>
<polygon fill="none" stroke="black" points="0,-1138.5 0,-2001.5 346,-2001.5 346,-1138.5 0,-1138.5"/>
<text text-anchor="start" x="8" y="-1986.3" font-family="Times,serif" font-size="14.00">v1</text>
<text text-anchor="start" x="8" y="-1971.3" font-family="Times,serif" font-size="14.00"> v2</text>
<text text-anchor="start" x="8" y="-1956.3" font-family="Times,serif" font-size="14.00"> v3</text>
<text text-anchor="start" x="8" y="-1941.3" font-family="Times,serif" font-size="14.00"> v4</text>
<text text-anchor="start" x="8" y="-1926.3" font-family="Times,serif" font-size="14.00"> v5</text>
<text text-anchor="start" x="8" y="-1911.3" font-family="Times,serif" font-size="14.00"> v6</text>
<text text-anchor="start" x="8" y="-1896.3" font-family="Times,serif" font-size="14.00"> v7</text>
<text text-anchor="start" x="8" y="-1881.3" font-family="Times,serif" font-size="14.00"> v8</text>
<text text-anchor="start" x="8" y="-1866.3" font-family="Times,serif" font-size="14.00"> v9</text>
<text text-anchor="start" x="8" y="-1851.3" font-family="Times,serif" font-size="14.00"> v10</text>
<text text-anchor="start" x="8" y="-1836.3" font-family="Times,serif" font-size="14.00"> v11</text>
<text text-anchor="start" x="8" y="-1821.3" font-family="Times,serif" font-size="14.00"> v12</text>
<text text-anchor="start" x="8" y="-1806.3" font-family="Times,serif" font-size="14.00"> v13</text>
<text text-anchor="start" x="8" y="-1791.3" font-family="Times,serif" font-size="14.00"> v14</text>
<text text-anchor="start" x="8" y="-1776.3" font-family="Times,serif" font-size="14.00"> v15</text>
<text text-anchor="start" x="8" y="-1761.3" font-family="Times,serif" font-size="14.00"> v16</text>
<text text-anchor="start" x="8" y="-1746.3" font-family="Times,serif" font-size="14.00"> v17</text>
<text text-anchor="start" x="8" y="-1731.3" font-family="Times,serif" font-size="14.00"> v18</text>
<text text-anchor="start" x="8" y="-1716.3" font-family="Times,serif" font-size="14.00"> v19</text>
<text text-anchor="start" x="8" y="-1701.3" font-family="Times,serif" font-size="14.00"> v20</text>
<text text-anchor="start" x="8" y="-1686.3" font-family="Times,serif" font-size="14.00"> v21</text>
<text text-anchor="start" x="8" y="-1671.3" font-family="Times,serif" font-size="14.00"> v22</text>
<text text-anchor="start" x="8" y="-1656.3" font-family="Times,serif" font-size="14.00"> v23</text>
<text text-anchor="start" x="8" y="-1641.3" font-family="Times,serif" font-size="14.00"> v24</text>
<text text-anchor="start" x="8" y="-1626.3" font-family="Times,serif" font-size="14.00"> v25</text>
<text text-anchor="start" x="8" y="-1611.3" font-family="Times,serif" font-size="14.00"> v26</text>
<text text-anchor="start" x="8" y="-1596.3" font-family="Times,serif" font-size="14.00"> v27</text>
<text text-anchor="start" x="8" y="-1581.3" font-family="Times,serif" font-size="14.00"> v28</text>
<text text-anchor="start" x="8" y="-1566.3" font-family="Times,serif" font-size="14.00"> v29</text>
<text text-anchor="start" x="8" y="-1551.3" font-family="Times,serif" font-size="14.00"> v30</text>
<text text-anchor="start" x="8" y="-1536.3" font-family="Times,serif" font-size="14.00"> v31</text>
<text text-anchor="start" x="8" y="-1521.3" font-family="Times,serif" font-size="14.00"> v32</text>
<text text-anchor="start" x="8" y="-1506.3" font-family="Times,serif" font-size="14.00"> v33</text>
<text text-anchor="start" x="8" y="-1491.3" font-family="Times,serif" font-size="14.00"> v34</text>
<text text-anchor="start" x="8" y="-1476.3" font-family="Times,serif" font-size="14.00"> v35</text>
<text text-anchor="start" x="8" y="-1461.3" font-family="Times,serif" font-size="14.00"> v36</text>
<text text-anchor="start" x="8" y="-1446.3" font-family="Times,serif" font-size="14.00"> v37</text>
<text text-anchor="start" x="8" y="-1431.3" font-family="Times,serif" font-size="14.00"> v38</text>
<text text-anchor="start" x="8" y="-1416.3" font-family="Times,serif" font-size="14.00"> v39</text>
<text text-anchor="start" x="8" y="-1401.3" font-family="Times,serif" font-size="14.00"> v40</text>
<text text-anchor="start" x="8" y="-1386.3" font-family="Times,serif" font-size="14.00"> v41</text>
<text text-anchor="start" x="8" y="-1371.3" font-family="Times,serif" font-size="14.00"> v42</text>
<text text-anchor="start" x="8" y="-1356.3" font-family="Times,serif" font-size="14.00"> v43</text>
<text text-anchor="start" x="8" y="-1341.3" font-family="Times,serif" font-size="14.00"> v44</text>
<text text-anchor="start" x="8" y="-1326.3" font-family="Times,serif" font-size="14.00"> v45</text>
<text text-anchor="start" x="8" y="-1311.3" font-family="Times,serif" font-size="14.00"> v46</text>
<text text-anchor="start" x="8" y="-1296.3" font-family="Times,serif" font-size="14.00"> v47</text>
<text text-anchor="start" x="8" y="-1281.3" font-family="Times,serif" font-size="14.00"> v8 = v9</text>
<text text-anchor="start" x="8" y="-1266.3" font-family="Times,serif" font-size="14.00"> v6 = v7</text>
<text text-anchor="start" x="8" y="-1251.3" font-family="Times,serif" font-size="14.00"> v4 = v5</text>
<text text-anchor="start" x="8" y="-1236.3" font-family="Times,serif" font-size="14.00"> v14 = v18</text>
<text text-anchor="start" x="8" y="-1221.3" font-family="Times,serif" font-size="14.00"> g3 = PtrToIntCastExpr&lt;int32&gt;(&amp;(v14))</text>
<text text-anchor="start" x="8" y="-1206.3" font-family="Times,serif" font-size="14.00"> v37 = g5</text>
<text text-anchor="start" x="8" y="-1191.3" font-family="Times,serif" font-size="14.00"> v26 = v37</text>
<text text-anchor="start" x="8" y="-1176.3" font-family="Times,serif" font-size="14.00"> v44 = *(IntToPtrCastExpr&lt;ptr&gt;((v37 + 68)))</text>
<text text-anchor="start" x="8" y="-1161.3" font-family="Times,serif" font-size="14.00"> g2 = v44</text>
<text text-anchor="start" x="8" y="-1146.3" font-family="Times,serif" font-size="14.00"> v26 = v44</text>
</g>
<!-- Node0xf3d2290&#45;&gt;Node0xf3ce450 -->
<g id="edge1" class="edge"><title>Node0xf3d2290&#45;&gt;Node0xf3ce450</title>
<path fill="none" stroke="black" d="M173,-2039.22C173,-2031.97 173,-2022.64 173,-2011.64"/>
<polygon fill="black" stroke="black" points="176.5,-2011.55 173,-2001.55 169.5,-2011.55 176.5,-2011.55"/>
</g>
<!-- Node0xf3d5760 -->
<g id="node3" class="node"><title>Node0xf3d5760</title>
<polygon fill="none" stroke="black" points="116,-1064.5 116,-1100.5 230,-1100.5 230,-1064.5 116,-1064.5"/>
<text text-anchor="start" x="124" y="-1078.8" font-family="Times,serif" font-size="14.00">if (v44 == 0):</text>
</g>
<!-- Node0xf3ce450&#45;&gt;Node0xf3d5760 -->
<g id="edge2" class="edge"><title>Node0xf3ce450&#45;&gt;Node0xf3d5760</title>
<path fill="none" stroke="black" d="M173,-1138.25C173,-1127.74 173,-1118.44 173,-1110.63"/>
<polygon fill="black" stroke="black" points="176.5,-1110.6 173,-1100.6 169.5,-1110.6 176.5,-1110.6"/>
</g>
<!-- Node0xf3d6880 -->
<g id="node4" class="node"><title>Node0xf3d6880</title>
<polygon fill="none" stroke="black" points="56,-842.5 56,-895.5 146,-895.5 146,-842.5 56,-842.5"/>
<text text-anchor="start" x="64" y="-880.3" font-family="Times,serif" font-size="14.00">v42 = v18</text>
<text text-anchor="start" x="64" y="-865.3" font-family="Times,serif" font-size="14.00"> g3 = v42</text>
<text text-anchor="start" x="64" y="-850.3" font-family="Times,serif" font-size="14.00"> return</text>
</g>
<!-- Node0xf3d5760&#45;&gt;Node0xf3d6880 -->
<g id="edge3" class="edge"><title>Node0xf3d5760&#45;&gt;Node0xf3d6880</title>
<path fill="none" stroke="black" d="M153.465,-1064.17C148.418,-1058.8 143.442,-1052.56 140,-1046 116.496,-1001.23 107.125,-942.878 103.411,-905.912"/>
<polygon fill="black" stroke="black" points="106.866,-905.262 102.468,-895.624 99.895,-905.901 106.866,-905.262"/>
<text text-anchor="middle" x="174.5" y="-1034.8" font-family="Times,serif" font-size="14.00">v44 == 0</text>
</g>
<!-- Node0xf3d6120 -->
<g id="node5" class="node"><title>Node0xf3d6120</title>
<polygon fill="none" stroke="black" points="142,-914.5 142,-1012.5 450,-1012.5 450,-914.5 142,-914.5"/>
<text text-anchor="start" x="150" y="-997.3" font-family="Times,serif" font-size="14.00">0x414e65:</text>
<text text-anchor="start" x="150" y="-982.3" font-family="Times,serif" font-size="14.00"> v38 = g9</text>
<text text-anchor="start" x="150" y="-967.3" font-family="Times,serif" font-size="14.00"> v4 = v38</text>
<text text-anchor="start" x="150" y="-952.3" font-family="Times,serif" font-size="14.00"> g9 = (v37 + 64)</text>
<text text-anchor="start" x="150" y="-937.3" font-family="Times,serif" font-size="14.00"> v1 = PtrToIntCastExpr&lt;int32&gt;(&amp;(v26))</text>
<text text-anchor="start" x="150" y="-922.3" font-family="Times,serif" font-size="14.00"> v2 = PtrToIntCastExpr&lt;int32&gt;(&amp;(v6))</text>
</g>
<!-- Node0xf3d5760&#45;&gt;Node0xf3d6120 -->
<g id="edge4" class="edge"><title>Node0xf3d5760&#45;&gt;Node0xf3d6120</title>
<path fill="none" stroke="black" d="M190.885,-1064.49C203.42,-1052.56 220.934,-1035.9 238.077,-1019.6"/>
<polygon fill="black" stroke="black" points="240.552,-1022.07 245.385,-1012.65 235.727,-1017 240.552,-1022.07"/>
<text text-anchor="middle" x="255.5" y="-1034.8" font-family="Times,serif" font-size="14.00">v44 != 0</text>
</g>
<!-- Node0xf3ce3f0 -->
<g id="node6" class="node"><title>Node0xf3ce3f0</title>
<polygon fill="none" stroke="black" points="125,-23.5 125,-59.5 179,-59.5 179,-23.5 125,-23.5"/>
<text text-anchor="start" x="133" y="-37.8" font-family="Times,serif" font-size="14.00">exit:</text>
</g>
<!-- Node0xf3d6880&#45;&gt;Node0xf3ce3f0 -->
<g id="edge5" class="edge"><title>Node0xf3d6880&#45;&gt;Node0xf3ce3f0</title>
<path fill="none" stroke="black" d="M100.622,-842.419C100.339,-821.054 100,-789.792 100,-762.5 100,-762.5 100,-762.5 100,-160.5 100,-126.507 118.294,-91.3247 133.181,-68.3236"/>
<polygon fill="black" stroke="black" points="136.209,-70.0922 138.878,-59.8391 130.398,-66.1899 136.209,-70.0922"/>
</g>
<!-- Node0xf3d67e0 -->
<g id="node7" class="node"><title>Node0xf3d67e0</title>
<polygon fill="none" stroke="black" points="251.5,-787.5 251.5,-823.5 348.5,-823.5 348.5,-787.5 251.5,-787.5"/>
<text text-anchor="start" x="259.5" y="-801.8" font-family="Times,serif" font-size="14.00">while True:</text>
</g>
<!-- Node0xf3d6120&#45;&gt;Node0xf3d67e0 -->
<g id="edge6" class="edge"><title>Node0xf3d6120&#45;&gt;Node0xf3d67e0</title>
<path fill="none" stroke="black" d="M297.233,-914.422C297.911,-887.956 298.729,-856.074 299.299,-833.852"/>
<polygon fill="black" stroke="black" points="302.799,-833.873 299.557,-823.786 295.801,-833.693 302.799,-833.873"/>
</g>
<!-- Node0xf3d6920 -->
<g id="node8" class="node"><title>Node0xf3d6920</title>
<polygon fill="none" stroke="black" points="127.5,-592.5 127.5,-735.5 472.5,-735.5 472.5,-592.5 127.5,-592.5"/>
<text text-anchor="start" x="135.5" y="-720.3" font-family="Times,serif" font-size="14.00">0x414e69:</text>
<text text-anchor="start" x="135.5" y="-705.3" font-family="Times,serif" font-size="14.00"> g2 = v1</text>
<text text-anchor="start" x="135.5" y="-690.3" font-family="Times,serif" font-size="14.00"> g10 = v2</text>
<text text-anchor="start" x="135.5" y="-675.3" font-family="Times,serif" font-size="14.00"> function_40d5ec(BitCastExpr&lt;ptr&gt;(&amp;(v26)))</text>
<text text-anchor="start" x="135.5" y="-660.3" font-family="Times,serif" font-size="14.00"> v40 = v26</text>
<text text-anchor="start" x="135.5" y="-645.3" font-family="Times,serif" font-size="14.00"> g2 = v40</text>
<text text-anchor="start" x="135.5" y="-630.3" font-family="Times,serif" font-size="14.00"> v45 = *(IntToPtrCastExpr&lt;ptr&gt;((v40 + 4)))</text>
<text text-anchor="start" x="135.5" y="-615.3" font-family="Times,serif" font-size="14.00"> g2 = v45</text>
<text text-anchor="start" x="135.5" y="-600.3" font-family="Times,serif" font-size="14.00"> v46 = v40</text>
</g>
<!-- Node0xf3d67e0&#45;&gt;Node0xf3d6920 -->
<g id="edge7" class="edge"><title>Node0xf3d67e0&#45;&gt;Node0xf3d6920</title>
<path fill="none" stroke="black" d="M300,-787.395C300,-776.592 300,-761.762 300,-746.149"/>
<polygon fill="black" stroke="black" points="303.5,-745.81 300,-735.81 296.5,-745.81 303.5,-745.81"/>
<text text-anchor="middle" x="317" y="-757.8" font-family="Times,serif" font-size="14.00">True</text>
</g>
<!-- Node0xf3d6be0 -->
<g id="node9" class="node"><title>Node0xf3d6be0</title>
<polygon fill="none" stroke="black" points="246,-518.5 246,-554.5 354,-554.5 354,-518.5 246,-518.5"/>
<text text-anchor="start" x="254" y="-532.8" font-family="Times,serif" font-size="14.00">if (v45 != 0):</text>
</g>
<!-- Node0xf3d6920&#45;&gt;Node0xf3d6be0 -->
<g id="edge8" class="edge"><title>Node0xf3d6920&#45;&gt;Node0xf3d6be0</title>
<path fill="none" stroke="black" d="M300,-592.181C300,-582.439 300,-572.961 300,-564.707"/>
<polygon fill="black" stroke="black" points="303.5,-564.642 300,-554.642 296.5,-564.642 303.5,-564.642"/>
</g>
<!-- Node0xf3d7350 -->
<g id="node10" class="node"><title>Node0xf3d7350</title>
<polygon fill="none" stroke="black" points="172,-368.5 172,-466.5 324,-466.5 324,-368.5 172,-368.5"/>
<text text-anchor="start" x="180" y="-451.3" font-family="Times,serif" font-size="14.00">0x414e7d:</text>
<text text-anchor="start" x="180" y="-436.3" font-family="Times,serif" font-size="14.00"> v8 = v35</text>
<text text-anchor="start" x="180" y="-421.3" font-family="Times,serif" font-size="14.00"> g5 = v45</text>
<text text-anchor="start" x="180" y="-406.3" font-family="Times,serif" font-size="14.00"> function_41d1d4()</text>
<text text-anchor="start" x="180" y="-391.3" font-family="Times,serif" font-size="14.00"> v47 = v26</text>
<text text-anchor="start" x="180" y="-376.3" font-family="Times,serif" font-size="14.00"> v46 = v47</text>
</g>
<!-- Node0xf3d6be0&#45;&gt;Node0xf3d7350 -->
<g id="edge9" class="edge"><title>Node0xf3d6be0&#45;&gt;Node0xf3d7350</title>
<path fill="none" stroke="black" d="M291.556,-518.233C288.78,-512.459 285.712,-505.973 283,-500 279.523,-492.341 275.936,-484.239 272.445,-476.233"/>
<polygon fill="black" stroke="black" points="275.592,-474.693 268.403,-466.911 269.17,-477.478 275.592,-474.693"/>
<text text-anchor="middle" x="314.5" y="-488.8" font-family="Times,serif" font-size="14.00">v45 != 0</text>
</g>
<!-- Node0xf3d7160 -->
<g id="node11" class="node"><title>Node0xf3d7160</title>
<polygon fill="none" stroke="black" points="266.5,-277.5 266.5,-330.5 385.5,-330.5 385.5,-277.5 266.5,-277.5"/>
<text text-anchor="start" x="274.5" y="-315.3" font-family="Times,serif" font-size="14.00">0x414e87:</text>
<text text-anchor="start" x="274.5" y="-300.3" font-family="Times,serif" font-size="14.00"> if (v46 == 0):</text>
<text text-anchor="start" x="274.5" y="-285.3" font-family="Times,serif" font-size="14.00"> else:</text>
</g>
<!-- Node0xf3d6be0&#45;&gt;Node0xf3d7160 -->
<g id="edge10" class="edge"><title>Node0xf3d6be0&#45;&gt;Node0xf3d7160</title>
<path fill="none" stroke="black" d="M330.758,-518.121C336.904,-513.116 342.53,-507.062 346,-500 371.237,-448.646 354.696,-380.633 340.369,-339.996"/>
<polygon fill="black" stroke="black" points="343.625,-338.709 336.895,-330.527 337.054,-341.12 343.625,-338.709"/>
<text text-anchor="middle" x="393.5" y="-413.8" font-family="Times,serif" font-size="14.00">v45 == 0</text>
</g>
<!-- Node0xf3d7350&#45;&gt;Node0xf3d7160 -->
<g id="edge11" class="edge"><title>Node0xf3d7350&#45;&gt;Node0xf3d7160</title>
<path fill="none" stroke="black" d="M281.758,-368.243C288.693,-358.329 295.854,-348.094 302.34,-338.821"/>
<polygon fill="black" stroke="black" points="305.218,-340.813 308.082,-330.613 299.482,-336.801 305.218,-340.813"/>
</g>
<!-- Node0xf3d7470 -->
<g id="node12" class="node"><title>Node0xf3d7470</title>
<polygon fill="none" stroke="black" points="135,-97.5 135,-225.5 431,-225.5 431,-97.5 135,-97.5"/>
<text text-anchor="start" x="143" y="-210.3" font-family="Times,serif" font-size="14.00">0x414e8d:</text>
<text text-anchor="start" x="143" y="-195.3" font-family="Times,serif" font-size="14.00"> v39 = g10</text>
<text text-anchor="start" x="143" y="-180.3" font-family="Times,serif" font-size="14.00"> v41 = *(IntToPtrCastExpr&lt;ptr&gt;(v39))</text>
<text text-anchor="start" x="143" y="-165.3" font-family="Times,serif" font-size="14.00"> g9 = v41</text>
<text text-anchor="start" x="143" y="-150.3" font-family="Times,serif" font-size="14.00"> v43 = v14</text>
<text text-anchor="start" x="143" y="-135.3" font-family="Times,serif" font-size="14.00"> v42 = v43</text>
<text text-anchor="start" x="143" y="-120.3" font-family="Times,serif" font-size="14.00"> g3 = v42</text>
<text text-anchor="start" x="143" y="-105.3" font-family="Times,serif" font-size="14.00"> return</text>
</g>
<!-- Node0xf3d7160&#45;&gt;Node0xf3d7470 -->
<g id="edge12" class="edge"><title>Node0xf3d7160&#45;&gt;Node0xf3d7470</title>
<path fill="none" stroke="black" d="M311.867,-277.41C308.974,-271.486 306.158,-265.121 304,-259 301.345,-251.47 298.961,-243.487 296.838,-235.464"/>
<polygon fill="black" stroke="black" points="300.212,-234.529 294.376,-225.686 293.424,-236.238 300.212,-234.529"/>
<text text-anchor="middle" x="338.5" y="-247.8" font-family="Times,serif" font-size="14.00">v46 == 0</text>
</g>
<!-- Node0xf3d1ab0 -->
<g id="node13" class="node"><title>Node0xf3d1ab0</title>
<polygon fill="none" stroke="black" points="454.5,-143.5 454.5,-179.5 533.5,-179.5 533.5,-143.5 454.5,-143.5"/>
<text text-anchor="start" x="462.5" y="-157.8" font-family="Times,serif" font-size="14.00">continue</text>
</g>
<!-- Node0xf3d7160&#45;&gt;Node0xf3d1ab0 -->
<g id="edge13" class="edge"><title>Node0xf3d7160&#45;&gt;Node0xf3d1ab0</title>
<path fill="none" stroke="black" d="M369.706,-277.424C391.821,-263.529 418.467,-245.273 440,-226 452.879,-214.473 465.495,-199.879 475.29,-187.59"/>
<polygon fill="black" stroke="black" points="478.197,-189.554 481.589,-179.516 472.678,-185.248 478.197,-189.554"/>
<text text-anchor="middle" x="447.5" y="-247.8" font-family="Times,serif" font-size="14.00">v46 != 0</text>
</g>
<!-- Node0xf3d7470&#45;&gt;Node0xf3ce3f0 -->
<g id="edge14" class="edge"><title>Node0xf3d7470&#45;&gt;Node0xf3ce3f0</title>
<path fill="none" stroke="black" d="M212.898,-97.3546C200.706,-86.3723 188.727,-75.5826 178.663,-66.5174"/>
<polygon fill="black" stroke="black" points="180.808,-63.7386 171.035,-59.6464 176.123,-68.9397 180.808,-63.7386"/>
</g>
<!-- Node0xf3d1ab0&#45;&gt;Node0xf3d67e0 -->
<g id="edge15" class="edge"><title>Node0xf3d1ab0&#45;&gt;Node0xf3d67e0</title>
<path fill="none" stroke="black" d="M495.214,-179.794C496.967,-206.298 500,-258.565 500,-303 500,-665 500,-665 500,-665 500,-697.666 502.911,-711.773 481,-736 449.524,-770.803 398.52,-788.02 358.663,-796.48"/>
<polygon fill="black" stroke="black" points="357.912,-793.061 348.789,-798.448 359.281,-799.926 357.912,-793.061"/>
</g>
</g>
</svg>
