<?xml version="1.0" encoding="UTF-8" standalone="no"?>
<!DOCTYPE svg PUBLIC "-//W3C//DTD SVG 1.1//EN"
 "http://www.w3.org/Graphics/SVG/1.1/DTD/svg11.dtd">
<!-- Generated by graphviz version 2.38.0 (20140413.2041)
 -->
<!-- Title: Control&#45;flow graph for function &#39;function_42bc40(*a1, *a2, *a3)&#39;. Pages: 1 -->
<svg width="652pt" height="882pt"
 viewBox="0.00 0.00 652.00 882.00" xmlns="http://www.w3.org/2000/svg" xmlns:xlink="http://www.w3.org/1999/xlink">
<g id="graph0" class="graph" transform="scale(1 1) rotate(0) translate(4 878)">
<title>Control&#45;flow graph for function &#39;function_42bc40(*a1, *a2, *a3)&#39;.</title>
<polygon fill="white" stroke="none" points="-4,4 -4,-878 648,-878 648,4 -4,4"/>
<text text-anchor="middle" x="322" y="-7.8" font-family="Times,serif" font-size="14.00">Control&#45;flow graph for function &#39;function_42bc40(*a1, *a2, *a3)&#39;.</text>
<!-- Node0xffffc70 -->
<g id="node1" class="node"><title>Node0xffffc70</title>
<polygon fill="none" stroke="black" points="210.5,-805.5 210.5,-873.5 269.5,-873.5 269.5,-805.5 210.5,-805.5"/>
<text text-anchor="start" x="218.5" y="-858.3" font-family="Times,serif" font-size="14.00">entry:</text>
<text text-anchor="start" x="218.5" y="-843.3" font-family="Times,serif" font-size="14.00"> a1</text>
<text text-anchor="start" x="218.5" y="-828.3" font-family="Times,serif" font-size="14.00"> a2</text>
<text text-anchor="start" x="218.5" y="-813.3" font-family="Times,serif" font-size="14.00"> a3</text>
</g>
<!-- Node0xffff4f0 -->
<g id="node2" class="node"><title>Node0xffff4f0</title>
<polygon fill="none" stroke="black" points="90,-414.5 90,-767.5 390,-767.5 390,-414.5 90,-414.5"/>
<text text-anchor="start" x="98" y="-752.3" font-family="Times,serif" font-size="14.00">result</text>
<text text-anchor="start" x="98" y="-737.3" font-family="Times,serif" font-size="14.00"> v1</text>
<text text-anchor="start" x="98" y="-722.3" font-family="Times,serif" font-size="14.00"> v2</text>
<text text-anchor="start" x="98" y="-707.3" font-family="Times,serif" font-size="14.00"> v3</text>
<text text-anchor="start" x="98" y="-692.3" font-family="Times,serif" font-size="14.00"> v4</text>
<text text-anchor="start" x="98" y="-677.3" font-family="Times,serif" font-size="14.00"> v5</text>
<text text-anchor="start" x="98" y="-662.3" font-family="Times,serif" font-size="14.00"> v6</text>
<text text-anchor="start" x="98" y="-647.3" font-family="Times,serif" font-size="14.00"> v7</text>
<text text-anchor="start" x="98" y="-632.3" font-family="Times,serif" font-size="14.00"> v8</text>
<text text-anchor="start" x="98" y="-617.3" font-family="Times,serif" font-size="14.00"> v9</text>
<text text-anchor="start" x="98" y="-602.3" font-family="Times,serif" font-size="14.00"> v10</text>
<text text-anchor="start" x="98" y="-587.3" font-family="Times,serif" font-size="14.00"> v11</text>
<text text-anchor="start" x="98" y="-572.3" font-family="Times,serif" font-size="14.00"> v12</text>
<text text-anchor="start" x="98" y="-557.3" font-family="Times,serif" font-size="14.00"> v13</text>
<text text-anchor="start" x="98" y="-542.3" font-family="Times,serif" font-size="14.00"> v14</text>
<text text-anchor="start" x="98" y="-527.3" font-family="Times,serif" font-size="14.00"> v15</text>
<text text-anchor="start" x="98" y="-512.3" font-family="Times,serif" font-size="14.00"> v16</text>
<text text-anchor="start" x="98" y="-497.3" font-family="Times,serif" font-size="14.00"> v17</text>
<text text-anchor="start" x="98" y="-482.3" font-family="Times,serif" font-size="14.00"> v18</text>
<text text-anchor="start" x="98" y="-467.3" font-family="Times,serif" font-size="14.00"> v3 = v4</text>
<text text-anchor="start" x="98" y="-452.3" font-family="Times,serif" font-size="14.00"> v9 = v11</text>
<text text-anchor="start" x="98" y="-437.3" font-family="Times,serif" font-size="14.00"> g3 = PtrToIntCastExpr&lt;int32&gt;(&amp;(v9))</text>
<text text-anchor="start" x="98" y="-422.3" font-family="Times,serif" font-size="14.00"> v18 = PtrToIntCastExpr&lt;int32&gt;(a3)</text>
</g>
<!-- Node0xffffc70&#45;&gt;Node0xffff4f0 -->
<g id="edge1" class="edge"><title>Node0xffffc70&#45;&gt;Node0xffff4f0</title>
<path fill="none" stroke="black" d="M240,-805.256C240,-797.125 240,-787.844 240,-777.811"/>
<polygon fill="black" stroke="black" points="243.5,-777.542 240,-767.542 236.5,-777.542 243.5,-777.542"/>
</g>
<!-- Node0x100000f0 -->
<g id="node3" class="node"><title>Node0x100000f0</title>
<polygon fill="none" stroke="black" points="99.5,-338.5 99.5,-376.5 380.5,-376.5 380.5,-338.5 99.5,-338.5"/>
<text text-anchor="start" x="107.5" y="-361.3" font-family="Times,serif" font-size="14.00">if (a3 &gt; IntToPtrCastExpr&lt;ptr&gt;(&#45;1)):</text>
<text text-anchor="start" x="107.5" y="-346.3" font-family="Times,serif" font-size="14.00"> else:</text>
</g>
<!-- Node0xffff4f0&#45;&gt;Node0x100000f0 -->
<g id="edge2" class="edge"><title>Node0xffff4f0&#45;&gt;Node0x100000f0</title>
<path fill="none" stroke="black" d="M240,-414.245C240,-404.06 240,-394.733 240,-386.742"/>
<polygon fill="black" stroke="black" points="243.5,-386.718 240,-376.718 236.5,-386.718 243.5,-386.718"/>
</g>
<!-- Node0x10000b40 -->
<g id="node4" class="node"><title>Node0x10000b40</title>
<polygon fill="none" stroke="black" points="146.5,-248.5 146.5,-286.5 247.5,-286.5 247.5,-248.5 146.5,-248.5"/>
<text text-anchor="start" x="154.5" y="-271.3" font-family="Times,serif" font-size="14.00">0x42bc4c:</text>
<text text-anchor="start" x="154.5" y="-256.3" font-family="Times,serif" font-size="14.00"> g2 = &#45;(v18)</text>
</g>
<!-- Node0x100000f0&#45;&gt;Node0x10000b40 -->
<g id="edge3" class="edge"><title>Node0x100000f0&#45;&gt;Node0x10000b40</title>
<path fill="none" stroke="black" d="M146.204,-338.47C129.385,-333.361 115.451,-327.193 110,-320 97.6621,-303.721 114.52,-291.6 136.58,-283.221"/>
<polygon fill="black" stroke="black" points="137.98,-286.44 146.282,-279.857 135.687,-279.826 137.98,-286.44"/>
<text text-anchor="middle" x="234" y="-308.8" font-family="Times,serif" font-size="14.00">a3 &lt;= IntToPtrCastExpr&lt;ptr&gt;(&#45;1)</text>
</g>
<!-- Node0x10000960 -->
<g id="node5" class="node"><title>Node0x10000960</title>
<polygon fill="none" stroke="black" points="0,-97.5 0,-210.5 644,-210.5 644,-97.5 0,-97.5"/>
<text text-anchor="start" x="8" y="-195.3" font-family="Times,serif" font-size="14.00">0x42bc5c:</text>
<text text-anchor="start" x="8" y="-180.3" font-family="Times,serif" font-size="14.00"> v3 = ((ExtCastExpr&lt;int32&gt;((a3 &lt; NULL)) ^ 1) + ExtCastExpr&lt;int32&gt;((a3 &lt; NULL)))</text>
<text text-anchor="start" x="8" y="-165.3" font-family="Times,serif" font-size="14.00"> g2 = PtrToIntCastExpr&lt;int32&gt;(a2)</text>
<text text-anchor="start" x="8" y="-150.3" font-family="Times,serif" font-size="14.00"> result = function_42bb20(a1, a2, &amp;(v3))</text>
<text text-anchor="start" x="8" y="-135.3" font-family="Times,serif" font-size="14.00"> v17 = v9</text>
<text text-anchor="start" x="8" y="-120.3" font-family="Times,serif" font-size="14.00"> g3 = v17</text>
<text text-anchor="start" x="8" y="-105.3" font-family="Times,serif" font-size="14.00"> return result</text>
</g>
<!-- Node0x100000f0&#45;&gt;Node0x10000960 -->
<g id="edge4" class="edge"><title>Node0x100000f0&#45;&gt;Node0x10000960</title>
<path fill="none" stroke="black" d="M337.22,-338.487C345.239,-333.655 352.4,-327.594 358,-320 379.144,-291.328 372.106,-252.703 358.876,-220.032"/>
<polygon fill="black" stroke="black" points="361.963,-218.351 354.799,-210.546 355.533,-221.115 361.963,-218.351"/>
<text text-anchor="middle" x="489" y="-263.8" font-family="Times,serif" font-size="14.00">a3 &gt; IntToPtrCastExpr&lt;ptr&gt;(&#45;1)</text>
</g>
<!-- Node0x10000b40&#45;&gt;Node0x10000960 -->
<g id="edge5" class="edge"><title>Node0x10000b40&#45;&gt;Node0x10000960</title>
<path fill="none" stroke="black" d="M217.362,-248.337C227.135,-239.62 239.481,-228.607 252.237,-217.229"/>
<polygon fill="black" stroke="black" points="254.645,-219.77 259.778,-210.502 249.986,-214.547 254.645,-219.77"/>
</g>
<!-- Node0xd0d7130 -->
<g id="node6" class="node"><title>Node0xd0d7130</title>
<polygon fill="none" stroke="black" points="295,-23.5 295,-59.5 349,-59.5 349,-23.5 295,-23.5"/>
<text text-anchor="start" x="303" y="-37.8" font-family="Times,serif" font-size="14.00">exit:</text>
</g>
<!-- Node0x10000960&#45;&gt;Node0xd0d7130 -->
<g id="edge6" class="edge"><title>Node0x10000960&#45;&gt;Node0xd0d7130</title>
<path fill="none" stroke="black" d="M322,-97.4263C322,-87.8599 322,-78.3065 322,-69.9133"/>
<polygon fill="black" stroke="black" points="325.5,-69.6444 322,-59.6444 318.5,-69.6444 325.5,-69.6444"/>
</g>
</g>
</svg>
