<?xml version="1.0" encoding="UTF-8" standalone="no"?>
<!DOCTYPE svg PUBLIC "-//W3C//DTD SVG 1.1//EN"
 "http://www.w3.org/Graphics/SVG/1.1/DTD/svg11.dtd">
<!-- Generated by graphviz version 2.38.0 (20140413.2041)
 -->
<!-- Title: Control&#45;flow graph for function &#39;function_40a1c0(*a1, *a2)&#39;. Pages: 1 -->
<svg width="696pt" height="894pt"
 viewBox="0.00 0.00 696.00 894.00" xmlns="http://www.w3.org/2000/svg" xmlns:xlink="http://www.w3.org/1999/xlink">
<g id="graph0" class="graph" transform="scale(1 1) rotate(0) translate(4 890)">
<title>Control&#45;flow graph for function &#39;function_40a1c0(*a1, *a2)&#39;.</title>
<polygon fill="white" stroke="none" points="-4,4 -4,-890 692,-890 692,4 -4,4"/>
<text text-anchor="middle" x="344" y="-7.8" font-family="Times,serif" font-size="14.00">Control&#45;flow graph for function &#39;function_40a1c0(*a1, *a2)&#39;.</text>
<!-- Node0xef72850 -->
<g id="node1" class="node"><title>Node0xef72850</title>
<polygon fill="none" stroke="black" points="192.5,-832.5 192.5,-885.5 251.5,-885.5 251.5,-832.5 192.5,-832.5"/>
<text text-anchor="start" x="200.5" y="-870.3" font-family="Times,serif" font-size="14.00">entry:</text>
<text text-anchor="start" x="200.5" y="-855.3" font-family="Times,serif" font-size="14.00"> a1</text>
<text text-anchor="start" x="200.5" y="-840.3" font-family="Times,serif" font-size="14.00"> a2</text>
</g>
<!-- Node0xef72a40 -->
<g id="node2" class="node"><title>Node0xef72a40</title>
<polygon fill="none" stroke="black" points="79.5,-381.5 79.5,-794.5 364.5,-794.5 364.5,-381.5 79.5,-381.5"/>
<text text-anchor="start" x="87.5" y="-779.3" font-family="Times,serif" font-size="14.00">v1</text>
<text text-anchor="start" x="87.5" y="-764.3" font-family="Times,serif" font-size="14.00"> v2</text>
<text text-anchor="start" x="87.5" y="-749.3" font-family="Times,serif" font-size="14.00"> v3</text>
<text text-anchor="start" x="87.5" y="-734.3" font-family="Times,serif" font-size="14.00"> v4</text>
<text text-anchor="start" x="87.5" y="-719.3" font-family="Times,serif" font-size="14.00"> v5</text>
<text text-anchor="start" x="87.5" y="-704.3" font-family="Times,serif" font-size="14.00"> v6</text>
<text text-anchor="start" x="87.5" y="-689.3" font-family="Times,serif" font-size="14.00"> v7</text>
<text text-anchor="start" x="87.5" y="-674.3" font-family="Times,serif" font-size="14.00"> v8</text>
<text text-anchor="start" x="87.5" y="-659.3" font-family="Times,serif" font-size="14.00"> v9</text>
<text text-anchor="start" x="87.5" y="-644.3" font-family="Times,serif" font-size="14.00"> v10</text>
<text text-anchor="start" x="87.5" y="-629.3" font-family="Times,serif" font-size="14.00"> v11</text>
<text text-anchor="start" x="87.5" y="-614.3" font-family="Times,serif" font-size="14.00"> v12</text>
<text text-anchor="start" x="87.5" y="-599.3" font-family="Times,serif" font-size="14.00"> v13</text>
<text text-anchor="start" x="87.5" y="-584.3" font-family="Times,serif" font-size="14.00"> v14</text>
<text text-anchor="start" x="87.5" y="-569.3" font-family="Times,serif" font-size="14.00"> v15</text>
<text text-anchor="start" x="87.5" y="-554.3" font-family="Times,serif" font-size="14.00"> v16</text>
<text text-anchor="start" x="87.5" y="-539.3" font-family="Times,serif" font-size="14.00"> v17</text>
<text text-anchor="start" x="87.5" y="-524.3" font-family="Times,serif" font-size="14.00"> v18</text>
<text text-anchor="start" x="87.5" y="-509.3" font-family="Times,serif" font-size="14.00"> v5 = v6</text>
<text text-anchor="start" x="87.5" y="-494.3" font-family="Times,serif" font-size="14.00"> v11 = v12</text>
<text text-anchor="start" x="87.5" y="-479.3" font-family="Times,serif" font-size="14.00"> v11 = a2</text>
<text text-anchor="start" x="87.5" y="-464.3" font-family="Times,serif" font-size="14.00"> v13 = g7</text>
<text text-anchor="start" x="87.5" y="-449.3" font-family="Times,serif" font-size="14.00"> v18 = PtrToIntCastExpr&lt;int32&gt;(a1)</text>
<text text-anchor="start" x="87.5" y="-434.3" font-family="Times,serif" font-size="14.00"> g7 = v18</text>
<text text-anchor="start" x="87.5" y="-419.3" font-family="Times,serif" font-size="14.00"> v14 = g5</text>
<text text-anchor="start" x="87.5" y="-404.3" font-family="Times,serif" font-size="14.00"> g9 = v14</text>
<text text-anchor="start" x="87.5" y="-389.3" font-family="Times,serif" font-size="14.00"> v1 = function_41a037()</text>
</g>
<!-- Node0xef72850&#45;&gt;Node0xef72a40 -->
<g id="edge1" class="edge"><title>Node0xef72850&#45;&gt;Node0xef72a40</title>
<path fill="none" stroke="black" d="M222,-832.207C222,-824.384 222,-815.096 222,-804.789"/>
<polygon fill="black" stroke="black" points="225.5,-804.609 222,-794.609 218.5,-804.609 225.5,-804.609"/>
</g>
<!-- Node0xef72980 -->
<g id="node3" class="node"><title>Node0xef72980</title>
<polygon fill="none" stroke="black" points="169.5,-307.5 169.5,-343.5 274.5,-343.5 274.5,-307.5 169.5,-307.5"/>
<text text-anchor="start" x="177.5" y="-321.8" font-family="Times,serif" font-size="14.00">if (v1 == 0):</text>
</g>
<!-- Node0xef72a40&#45;&gt;Node0xef72980 -->
<g id="edge2" class="edge"><title>Node0xef72a40&#45;&gt;Node0xef72980</title>
<path fill="none" stroke="black" d="M222,-381.427C222,-371.194 222,-361.906 222,-353.999"/>
<polygon fill="black" stroke="black" points="225.5,-353.788 222,-343.788 218.5,-353.788 225.5,-353.788"/>
</g>
<!-- Node0xef73280 -->
<g id="node4" class="node"><title>Node0xef73280</title>
<polygon fill="none" stroke="black" points="0,-142.5 0,-210.5 92,-210.5 92,-142.5 0,-142.5"/>
<text text-anchor="start" x="8" y="-195.3" font-family="Times,serif" font-size="14.00">0x40a1d2:</text>
<text text-anchor="start" x="8" y="-180.3" font-family="Times,serif" font-size="14.00"> g7 = v18</text>
<text text-anchor="start" x="8" y="-165.3" font-family="Times,serif" font-size="14.00"> g9 = v13</text>
<text text-anchor="start" x="8" y="-150.3" font-family="Times,serif" font-size="14.00"> return 0</text>
</g>
<!-- Node0xef72980&#45;&gt;Node0xef73280 -->
<g id="edge3" class="edge"><title>Node0xef72980&#45;&gt;Node0xef73280</title>
<path fill="none" stroke="black" d="M182.065,-307.475C156.974,-295.497 124.944,-277.749 101,-256 89.3904,-245.455 78.8743,-232.034 70.2202,-219.285"/>
<polygon fill="black" stroke="black" points="72.9438,-217.055 64.5358,-210.609 67.0887,-220.891 72.9438,-217.055"/>
<text text-anchor="middle" x="175" y="-277.8" font-family="Times,serif" font-size="14.00">v1 == 0</text>
</g>
<!-- Node0xef72be0 -->
<g id="node5" class="node"><title>Node0xef72be0</title>
<polygon fill="none" stroke="black" points="110,-97.5 110,-255.5 688,-255.5 688,-97.5 110,-97.5"/>
<text text-anchor="start" x="118" y="-240.3" font-family="Times,serif" font-size="14.00">0x40a1d7:</text>
<text text-anchor="start" x="118" y="-225.3" font-family="Times,serif" font-size="14.00"> v15 = g7</text>
<text text-anchor="start" x="118" y="-210.3" font-family="Times,serif" font-size="14.00"> v5 = v1</text>
<text text-anchor="start" x="118" y="-195.3" font-family="Times,serif" font-size="14.00"> v16 = g9</text>
<text text-anchor="start" x="118" y="-180.3" font-family="Times,serif" font-size="14.00"> g5 = v16</text>
<text text-anchor="start" x="118" y="-165.3" font-family="Times,serif" font-size="14.00"> function_40a1f0(&amp;(v5), IntToPtrCastExpr&lt;ptr&gt;(v15), BitCastExpr&lt;ptr&gt;(a1))</text>
<text text-anchor="start" x="118" y="-150.3" font-family="Times,serif" font-size="14.00"> v17 = v5</text>
<text text-anchor="start" x="118" y="-135.3" font-family="Times,serif" font-size="14.00"> g7 = v17</text>
<text text-anchor="start" x="118" y="-120.3" font-family="Times,serif" font-size="14.00"> g9 = v15</text>
<text text-anchor="start" x="118" y="-105.3" font-family="Times,serif" font-size="14.00"> return 0</text>
</g>
<!-- Node0xef72980&#45;&gt;Node0xef72be0 -->
<g id="edge4" class="edge"><title>Node0xef72980&#45;&gt;Node0xef72be0</title>
<path fill="none" stroke="black" d="M242.651,-307.35C256.64,-295.731 276.281,-279.419 296.933,-262.268"/>
<polygon fill="black" stroke="black" points="299.431,-264.743 304.887,-255.661 294.958,-259.358 299.431,-264.743"/>
<text text-anchor="middle" x="307" y="-277.8" font-family="Times,serif" font-size="14.00">v1 != 0</text>
</g>
<!-- Node0xef729e0 -->
<g id="node6" class="node"><title>Node0xef729e0</title>
<polygon fill="none" stroke="black" points="236,-23.5 236,-59.5 290,-59.5 290,-23.5 236,-23.5"/>
<text text-anchor="start" x="244" y="-37.8" font-family="Times,serif" font-size="14.00">exit:</text>
</g>
<!-- Node0xef73280&#45;&gt;Node0xef729e0 -->
<g id="edge5" class="edge"><title>Node0xef73280&#45;&gt;Node0xef729e0</title>
<path fill="none" stroke="black" d="M62.7702,-142.306C72.1418,-126.655 85.1413,-108.859 101,-97 138.258,-69.1389 190.641,-54.9624 225.649,-48.1587"/>
<polygon fill="black" stroke="black" points="226.714,-51.5219 235.92,-46.2769 225.453,-44.6365 226.714,-51.5219"/>
</g>
<!-- Node0xef72be0&#45;&gt;Node0xef729e0 -->
<g id="edge6" class="edge"><title>Node0xef72be0&#45;&gt;Node0xef729e0</title>
<path fill="none" stroke="black" d="M319.102,-97.3641C307.718,-86.232 296.794,-75.549 287.66,-66.6156"/>
<polygon fill="black" stroke="black" points="290.033,-64.041 280.436,-59.5516 285.139,-69.0457 290.033,-64.041"/>
</g>
</g>
</svg>
