<?xml version="1.0" encoding="UTF-8" standalone="no"?>
<!DOCTYPE svg PUBLIC "-//W3C//DTD SVG 1.1//EN"
 "http://www.w3.org/Graphics/SVG/1.1/DTD/svg11.dtd">
<!-- Generated by graphviz version 2.38.0 (20140413.2041)
 -->
<!-- Title: Control&#45;flow graph for function &#39;function_40f5f8(*a1, Msg, *wParam, *lParam, a5)&#39;. Pages: 1 -->
<svg width="620pt" height="1107pt"
 viewBox="0.00 0.00 620.00 1107.00" xmlns="http://www.w3.org/2000/svg" xmlns:xlink="http://www.w3.org/1999/xlink">
<g id="graph0" class="graph" transform="scale(1 1) rotate(0) translate(4 1103)">
<title>Control&#45;flow graph for function &#39;function_40f5f8(*a1, Msg, *wParam, *lParam, a5)&#39;.</title>
<polygon fill="white" stroke="none" points="-4,4 -4,-1103 616,-1103 616,4 -4,4"/>
<text text-anchor="middle" x="306" y="-7.8" font-family="Times,serif" font-size="14.00">Control&#45;flow graph for function &#39;function_40f5f8(*a1, Msg, *wParam, *lParam, a5)&#39;.</text>
<!-- Node0xf0ed240 -->
<g id="node1" class="node"><title>Node0xf0ed240</title>
<polygon fill="none" stroke="black" points="188.25,-1000.5 188.25,-1098.5 267.25,-1098.5 267.25,-1000.5 188.25,-1000.5"/>
<text text-anchor="start" x="196.25" y="-1083.3" font-family="Times,serif" font-size="14.00">entry:</text>
<text text-anchor="start" x="196.25" y="-1068.3" font-family="Times,serif" font-size="14.00"> a1</text>
<text text-anchor="start" x="196.25" y="-1053.3" font-family="Times,serif" font-size="14.00"> Msg</text>
<text text-anchor="start" x="196.25" y="-1038.3" font-family="Times,serif" font-size="14.00"> wParam</text>
<text text-anchor="start" x="196.25" y="-1023.3" font-family="Times,serif" font-size="14.00"> lParam</text>
<text text-anchor="start" x="196.25" y="-1008.3" font-family="Times,serif" font-size="14.00"> a5</text>
</g>
<!-- Node0xf0ee910 -->
<g id="node2" class="node"><title>Node0xf0ee910</title>
<polygon fill="none" stroke="black" points="73.25,-504.5 73.25,-962.5 382.25,-962.5 382.25,-504.5 73.25,-504.5"/>
<text text-anchor="start" x="81.25" y="-947.3" font-family="Times,serif" font-size="14.00">hWnd</text>
<text text-anchor="start" x="81.25" y="-932.3" font-family="Times,serif" font-size="14.00"> v1</text>
<text text-anchor="start" x="81.25" y="-917.3" font-family="Times,serif" font-size="14.00"> v2</text>
<text text-anchor="start" x="81.25" y="-902.3" font-family="Times,serif" font-size="14.00"> v3</text>
<text text-anchor="start" x="81.25" y="-887.3" font-family="Times,serif" font-size="14.00"> result</text>
<text text-anchor="start" x="81.25" y="-872.3" font-family="Times,serif" font-size="14.00"> v4</text>
<text text-anchor="start" x="81.25" y="-857.3" font-family="Times,serif" font-size="14.00"> v5</text>
<text text-anchor="start" x="81.25" y="-842.3" font-family="Times,serif" font-size="14.00"> v6</text>
<text text-anchor="start" x="81.25" y="-827.3" font-family="Times,serif" font-size="14.00"> v7</text>
<text text-anchor="start" x="81.25" y="-812.3" font-family="Times,serif" font-size="14.00"> v8</text>
<text text-anchor="start" x="81.25" y="-797.3" font-family="Times,serif" font-size="14.00"> v9</text>
<text text-anchor="start" x="81.25" y="-782.3" font-family="Times,serif" font-size="14.00"> v10</text>
<text text-anchor="start" x="81.25" y="-767.3" font-family="Times,serif" font-size="14.00"> v11</text>
<text text-anchor="start" x="81.25" y="-752.3" font-family="Times,serif" font-size="14.00"> v12</text>
<text text-anchor="start" x="81.25" y="-737.3" font-family="Times,serif" font-size="14.00"> v13</text>
<text text-anchor="start" x="81.25" y="-722.3" font-family="Times,serif" font-size="14.00"> v14</text>
<text text-anchor="start" x="81.25" y="-707.3" font-family="Times,serif" font-size="14.00"> v15</text>
<text text-anchor="start" x="81.25" y="-692.3" font-family="Times,serif" font-size="14.00"> v16</text>
<text text-anchor="start" x="81.25" y="-677.3" font-family="Times,serif" font-size="14.00"> v17</text>
<text text-anchor="start" x="81.25" y="-662.3" font-family="Times,serif" font-size="14.00"> v18</text>
<text text-anchor="start" x="81.25" y="-647.3" font-family="Times,serif" font-size="14.00"> v19</text>
<text text-anchor="start" x="81.25" y="-632.3" font-family="Times,serif" font-size="14.00"> v20</text>
<text text-anchor="start" x="81.25" y="-617.3" font-family="Times,serif" font-size="14.00"> v21</text>
<text text-anchor="start" x="81.25" y="-602.3" font-family="Times,serif" font-size="14.00"> v22</text>
<text text-anchor="start" x="81.25" y="-587.3" font-family="Times,serif" font-size="14.00"> v23</text>
<text text-anchor="start" x="81.25" y="-572.3" font-family="Times,serif" font-size="14.00"> v24</text>
<text text-anchor="start" x="81.25" y="-557.3" font-family="Times,serif" font-size="14.00"> v8 = v9</text>
<text text-anchor="start" x="81.25" y="-542.3" font-family="Times,serif" font-size="14.00"> v21 = g3</text>
<text text-anchor="start" x="81.25" y="-527.3" font-family="Times,serif" font-size="14.00"> v12 = v21</text>
<text text-anchor="start" x="81.25" y="-512.3" font-family="Times,serif" font-size="14.00"> g3 = PtrToIntCastExpr&lt;int32&gt;(&amp;(v12))</text>
</g>
<!-- Node0xf0ed240&#45;&gt;Node0xf0ee910 -->
<g id="edge1" class="edge"><title>Node0xf0ed240&#45;&gt;Node0xf0ee910</title>
<path fill="none" stroke="black" d="M227.75,-1000.47C227.75,-991.964 227.75,-982.619 227.75,-972.674"/>
<polygon fill="black" stroke="black" points="231.25,-972.538 227.75,-962.538 224.25,-972.538 231.25,-972.538"/>
</g>
<!-- Node0xf0f14c0 -->
<g id="node3" class="node"><title>Node0xf0f14c0</title>
<polygon fill="none" stroke="black" points="159.25,-428.5 159.25,-466.5 296.25,-466.5 296.25,-428.5 159.25,-428.5"/>
<text text-anchor="start" x="167.25" y="-451.3" font-family="Times,serif" font-size="14.00">if (Msg == 864):</text>
<text text-anchor="start" x="167.25" y="-436.3" font-family="Times,serif" font-size="14.00"> else:</text>
</g>
<!-- Node0xf0ee910&#45;&gt;Node0xf0f14c0 -->
<g id="edge2" class="edge"><title>Node0xf0ee910&#45;&gt;Node0xf0f14c0</title>
<path fill="none" stroke="black" d="M227.75,-504.27C227.75,-494.158 227.75,-484.984 227.75,-477.13"/>
<polygon fill="black" stroke="black" points="231.25,-476.946 227.75,-466.946 224.25,-476.946 231.25,-476.946"/>
</g>
<!-- Node0xf0ef210 -->
<g id="node4" class="node"><title>Node0xf0ef210</title>
<polygon fill="none" stroke="black" points="47.25,-248.5 47.25,-316.5 142.25,-316.5 142.25,-248.5 47.25,-248.5"/>
<text text-anchor="start" x="55.25" y="-301.3" font-family="Times,serif" font-size="14.00">0x40f604:</text>
<text text-anchor="start" x="55.25" y="-286.3" font-family="Times,serif" font-size="14.00"> g2 = 0</text>
<text text-anchor="start" x="55.25" y="-271.3" font-family="Times,serif" font-size="14.00"> v23 = v21</text>
<text text-anchor="start" x="55.25" y="-256.3" font-family="Times,serif" font-size="14.00"> result = 1</text>
</g>
<!-- Node0xf0f14c0&#45;&gt;Node0xf0ef210 -->
<g id="edge3" class="edge"><title>Node0xf0f14c0&#45;&gt;Node0xf0ef210</title>
<path fill="none" stroke="black" d="M204.535,-428.242C188.594,-415.028 167.546,-396.187 151.75,-377 138.802,-361.272 126.707,-342.329 117.019,-325.618"/>
<polygon fill="black" stroke="black" points="119.877,-323.564 111.894,-316.598 113.791,-327.022 119.877,-323.564"/>
<text text-anchor="middle" x="229.75" y="-398.8" font-family="Times,serif" font-size="14.00">Msg == 864</text>
</g>
<!-- Node0xf0ef270 -->
<g id="node5" class="node"><title>Node0xf0ef270</title>
<polygon fill="none" stroke="black" points="160.75,-188.5 160.75,-376.5 564.75,-376.5 564.75,-188.5 160.75,-188.5"/>
<text text-anchor="start" x="168.75" y="-361.3" font-family="Times,serif" font-size="14.00">0x40f609:</text>
<text text-anchor="start" x="168.75" y="-346.3" font-family="Times,serif" font-size="14.00"> g9 = PtrToIntCastExpr&lt;int32&gt;(a1)</text>
<text text-anchor="start" x="168.75" y="-331.3" font-family="Times,serif" font-size="14.00"> function_40ee92()</text>
<text text-anchor="start" x="168.75" y="-316.3" font-family="Times,serif" font-size="14.00"> v22 = g9</text>
<text text-anchor="start" x="168.75" y="-301.3" font-family="Times,serif" font-size="14.00"> hWnd = IntToPtrCastExpr&lt;ptr&gt;(v22)</text>
<text text-anchor="start" x="168.75" y="-286.3" font-family="Times,serif" font-size="14.00"> v8 = hWnd</text>
<text text-anchor="start" x="168.75" y="-271.3" font-family="Times,serif" font-size="14.00"> v3 = DefWindowProcA(hWnd, Msg, wParam, lParam)</text>
<text text-anchor="start" x="168.75" y="-256.3" font-family="Times,serif" font-size="14.00"> v1 = PtrToIntCastExpr&lt;int32&gt;(v3)</text>
<text text-anchor="start" x="168.75" y="-241.3" font-family="Times,serif" font-size="14.00"> g9 = PtrToIntCastExpr&lt;int32&gt;(v10)</text>
<text text-anchor="start" x="168.75" y="-226.3" font-family="Times,serif" font-size="14.00"> v24 = v12</text>
<text text-anchor="start" x="168.75" y="-211.3" font-family="Times,serif" font-size="14.00"> v23 = v24</text>
<text text-anchor="start" x="168.75" y="-196.3" font-family="Times,serif" font-size="14.00"> result = v1</text>
</g>
<!-- Node0xf0f14c0&#45;&gt;Node0xf0ef270 -->
<g id="edge4" class="edge"><title>Node0xf0f14c0&#45;&gt;Node0xf0ef270</title>
<path fill="none" stroke="black" d="M257.625,-428.411C265.301,-423.018 273.225,-416.732 279.75,-410 287.238,-402.274 294.454,-393.781 301.295,-384.966"/>
<polygon fill="black" stroke="black" points="304.234,-386.881 307.468,-376.792 298.648,-382.663 304.234,-386.881"/>
<text text-anchor="middle" x="334.75" y="-398.8" font-family="Times,serif" font-size="14.00">Msg != 864</text>
</g>
<!-- Node0xf0eea30 -->
<g id="node6" class="node"><title>Node0xf0eea30</title>
<polygon fill="none" stroke="black" points="202.25,-97.5 202.25,-150.5 315.25,-150.5 315.25,-97.5 202.25,-97.5"/>
<text text-anchor="start" x="210.25" y="-135.3" font-family="Times,serif" font-size="14.00">0x40f63f:</text>
<text text-anchor="start" x="210.25" y="-120.3" font-family="Times,serif" font-size="14.00"> g3 = v23</text>
<text text-anchor="start" x="210.25" y="-105.3" font-family="Times,serif" font-size="14.00"> return result</text>
</g>
<!-- Node0xf0ef210&#45;&gt;Node0xf0eea30 -->
<g id="edge5" class="edge"><title>Node0xf0ef210&#45;&gt;Node0xf0eea30</title>
<path fill="none" stroke="black" d="M109.785,-248.448C119.717,-229.182 134.141,-205.341 151.75,-188 164.269,-175.672 179.662,-164.808 194.83,-155.725"/>
<polygon fill="black" stroke="black" points="196.81,-158.624 203.712,-150.586 193.304,-152.565 196.81,-158.624"/>
</g>
<!-- Node0xf0ef270&#45;&gt;Node0xf0eea30 -->
<g id="edge6" class="edge"><title>Node0xf0ef270&#45;&gt;Node0xf0eea30</title>
<path fill="none" stroke="black" d="M300.751,-188.203C293.9,-177.894 287.289,-167.946 281.419,-159.113"/>
<polygon fill="black" stroke="black" points="284.265,-157.071 275.815,-150.68 278.435,-160.946 284.265,-157.071"/>
</g>
<!-- Node0xf0ee8b0 -->
<g id="node7" class="node"><title>Node0xf0ee8b0</title>
<polygon fill="none" stroke="black" points="231.75,-23.5 231.75,-59.5 285.75,-59.5 285.75,-23.5 231.75,-23.5"/>
<text text-anchor="start" x="239.75" y="-37.8" font-family="Times,serif" font-size="14.00">exit:</text>
</g>
<!-- Node0xf0eea30&#45;&gt;Node0xf0ee8b0 -->
<g id="edge7" class="edge"><title>Node0xf0eea30&#45;&gt;Node0xf0ee8b0</title>
<path fill="none" stroke="black" d="M258.75,-97.0862C258.75,-88.4596 258.75,-78.8224 258.75,-70.0748"/>
<polygon fill="black" stroke="black" points="262.25,-69.9735 258.75,-59.9735 255.25,-69.9735 262.25,-69.9735"/>
</g>
</g>
</svg>
