<?xml version="1.0" encoding="UTF-8" standalone="no"?>
<!DOCTYPE svg PUBLIC "-//W3C//DTD SVG 1.1//EN"
 "http://www.w3.org/Graphics/SVG/1.1/DTD/svg11.dtd">
<!-- Generated by graphviz version 2.38.0 (20140413.2041)
 -->
<!-- Title: Control&#45;flow graph for function &#39;function_412ff0(*a1, a2, a3, a4, a5, a6)&#39;. Pages: 1 -->
<svg width="702pt" height="1902pt"
 viewBox="0.00 0.00 701.50 1902.00" xmlns="http://www.w3.org/2000/svg" xmlns:xlink="http://www.w3.org/1999/xlink">
<g id="graph0" class="graph" transform="scale(1 1) rotate(0) translate(4 1898)">
<title>Control&#45;flow graph for function &#39;function_412ff0(*a1, a2, a3, a4, a5, a6)&#39;.</title>
<polygon fill="white" stroke="none" points="-4,4 -4,-1898 697.5,-1898 697.5,4 -4,4"/>
<text text-anchor="middle" x="346.75" y="-7.8" font-family="Times,serif" font-size="14.00">Control&#45;flow graph for function &#39;function_412ff0(*a1, a2, a3, a4, a5, a6)&#39;.</text>
<!-- Node0xf2d53b0 -->
<g id="node1" class="node"><title>Node0xf2d53b0</title>
<polygon fill="none" stroke="black" points="210.5,-1780.5 210.5,-1893.5 269.5,-1893.5 269.5,-1780.5 210.5,-1780.5"/>
<text text-anchor="start" x="218.5" y="-1878.3" font-family="Times,serif" font-size="14.00">entry:</text>
<text text-anchor="start" x="218.5" y="-1863.3" font-family="Times,serif" font-size="14.00"> a1</text>
<text text-anchor="start" x="218.5" y="-1848.3" font-family="Times,serif" font-size="14.00"> a2</text>
<text text-anchor="start" x="218.5" y="-1833.3" font-family="Times,serif" font-size="14.00"> a3</text>
<text text-anchor="start" x="218.5" y="-1818.3" font-family="Times,serif" font-size="14.00"> a4</text>
<text text-anchor="start" x="218.5" y="-1803.3" font-family="Times,serif" font-size="14.00"> a5</text>
<text text-anchor="start" x="218.5" y="-1788.3" font-family="Times,serif" font-size="14.00"> a6</text>
</g>
<!-- Node0xf311920 -->
<g id="node2" class="node"><title>Node0xf311920</title>
<polygon fill="none" stroke="black" points="71.5,-834.5 71.5,-1742.5 408.5,-1742.5 408.5,-834.5 71.5,-834.5"/>
<text text-anchor="start" x="79.5" y="-1727.3" font-family="Times,serif" font-size="14.00">v1</text>
<text text-anchor="start" x="79.5" y="-1712.3" font-family="Times,serif" font-size="14.00"> v2</text>
<text text-anchor="start" x="79.5" y="-1697.3" font-family="Times,serif" font-size="14.00"> result</text>
<text text-anchor="start" x="79.5" y="-1682.3" font-family="Times,serif" font-size="14.00"> v3</text>
<text text-anchor="start" x="79.5" y="-1667.3" font-family="Times,serif" font-size="14.00"> v4</text>
<text text-anchor="start" x="79.5" y="-1652.3" font-family="Times,serif" font-size="14.00"> v5</text>
<text text-anchor="start" x="79.5" y="-1637.3" font-family="Times,serif" font-size="14.00"> v6</text>
<text text-anchor="start" x="79.5" y="-1622.3" font-family="Times,serif" font-size="14.00"> v7</text>
<text text-anchor="start" x="79.5" y="-1607.3" font-family="Times,serif" font-size="14.00"> v8</text>
<text text-anchor="start" x="79.5" y="-1592.3" font-family="Times,serif" font-size="14.00"> v9</text>
<text text-anchor="start" x="79.5" y="-1577.3" font-family="Times,serif" font-size="14.00"> v10</text>
<text text-anchor="start" x="79.5" y="-1562.3" font-family="Times,serif" font-size="14.00"> v11</text>
<text text-anchor="start" x="79.5" y="-1547.3" font-family="Times,serif" font-size="14.00"> v12</text>
<text text-anchor="start" x="79.5" y="-1532.3" font-family="Times,serif" font-size="14.00"> v13</text>
<text text-anchor="start" x="79.5" y="-1517.3" font-family="Times,serif" font-size="14.00"> v14</text>
<text text-anchor="start" x="79.5" y="-1502.3" font-family="Times,serif" font-size="14.00"> v15</text>
<text text-anchor="start" x="79.5" y="-1487.3" font-family="Times,serif" font-size="14.00"> v16</text>
<text text-anchor="start" x="79.5" y="-1472.3" font-family="Times,serif" font-size="14.00"> v17</text>
<text text-anchor="start" x="79.5" y="-1457.3" font-family="Times,serif" font-size="14.00"> v18</text>
<text text-anchor="start" x="79.5" y="-1442.3" font-family="Times,serif" font-size="14.00"> v19</text>
<text text-anchor="start" x="79.5" y="-1427.3" font-family="Times,serif" font-size="14.00"> v20</text>
<text text-anchor="start" x="79.5" y="-1412.3" font-family="Times,serif" font-size="14.00"> v21</text>
<text text-anchor="start" x="79.5" y="-1397.3" font-family="Times,serif" font-size="14.00"> v22</text>
<text text-anchor="start" x="79.5" y="-1382.3" font-family="Times,serif" font-size="14.00"> v23</text>
<text text-anchor="start" x="79.5" y="-1367.3" font-family="Times,serif" font-size="14.00"> v24</text>
<text text-anchor="start" x="79.5" y="-1352.3" font-family="Times,serif" font-size="14.00"> v25</text>
<text text-anchor="start" x="79.5" y="-1337.3" font-family="Times,serif" font-size="14.00"> v26</text>
<text text-anchor="start" x="79.5" y="-1322.3" font-family="Times,serif" font-size="14.00"> v27</text>
<text text-anchor="start" x="79.5" y="-1307.3" font-family="Times,serif" font-size="14.00"> v28</text>
<text text-anchor="start" x="79.5" y="-1292.3" font-family="Times,serif" font-size="14.00"> v29</text>
<text text-anchor="start" x="79.5" y="-1277.3" font-family="Times,serif" font-size="14.00"> v30</text>
<text text-anchor="start" x="79.5" y="-1262.3" font-family="Times,serif" font-size="14.00"> v31</text>
<text text-anchor="start" x="79.5" y="-1247.3" font-family="Times,serif" font-size="14.00"> v32</text>
<text text-anchor="start" x="79.5" y="-1232.3" font-family="Times,serif" font-size="14.00"> v33</text>
<text text-anchor="start" x="79.5" y="-1217.3" font-family="Times,serif" font-size="14.00"> v34</text>
<text text-anchor="start" x="79.5" y="-1202.3" font-family="Times,serif" font-size="14.00"> v35</text>
<text text-anchor="start" x="79.5" y="-1187.3" font-family="Times,serif" font-size="14.00"> v36</text>
<text text-anchor="start" x="79.5" y="-1172.3" font-family="Times,serif" font-size="14.00"> v37</text>
<text text-anchor="start" x="79.5" y="-1157.3" font-family="Times,serif" font-size="14.00"> v38</text>
<text text-anchor="start" x="79.5" y="-1142.3" font-family="Times,serif" font-size="14.00"> v39</text>
<text text-anchor="start" x="79.5" y="-1127.3" font-family="Times,serif" font-size="14.00"> v40</text>
<text text-anchor="start" x="79.5" y="-1112.3" font-family="Times,serif" font-size="14.00"> v41</text>
<text text-anchor="start" x="79.5" y="-1097.3" font-family="Times,serif" font-size="14.00"> v42</text>
<text text-anchor="start" x="79.5" y="-1082.3" font-family="Times,serif" font-size="14.00"> v19 = v20</text>
<text text-anchor="start" x="79.5" y="-1067.3" font-family="Times,serif" font-size="14.00"> v10 = v11</text>
<text text-anchor="start" x="79.5" y="-1052.3" font-family="Times,serif" font-size="14.00"> v3 = v4</text>
<text text-anchor="start" x="79.5" y="-1037.3" font-family="Times,serif" font-size="14.00"> v31 = g3</text>
<text text-anchor="start" x="79.5" y="-1022.3" font-family="Times,serif" font-size="14.00"> v12 = v31</text>
<text text-anchor="start" x="79.5" y="-1007.3" font-family="Times,serif" font-size="14.00"> g3 = PtrToIntCastExpr&lt;int32&gt;(&amp;(v12))</text>
<text text-anchor="start" x="79.5" y="-992.3" font-family="Times,serif" font-size="14.00"> v32 = g5</text>
<text text-anchor="start" x="79.5" y="-977.3" font-family="Times,serif" font-size="14.00"> g9 = v32</text>
<text text-anchor="start" x="79.5" y="-962.3" font-family="Times,serif" font-size="14.00"> v40 = *(IntToPtrCastExpr&lt;ptr&gt;((v32 + 4)))</text>
<text text-anchor="start" x="79.5" y="-947.3" font-family="Times,serif" font-size="14.00"> g2 = v40</text>
<text text-anchor="start" x="79.5" y="-932.3" font-family="Times,serif" font-size="14.00"> v42 = *(IntToPtrCastExpr&lt;ptr&gt;((v32 + 8)))</text>
<text text-anchor="start" x="79.5" y="-917.3" font-family="Times,serif" font-size="14.00"> v33 = g7</text>
<text text-anchor="start" x="79.5" y="-902.3" font-family="Times,serif" font-size="14.00"> v3 = v33</text>
<text text-anchor="start" x="79.5" y="-887.3" font-family="Times,serif" font-size="14.00"> g7 = 420736</text>
<text text-anchor="start" x="79.5" y="-872.3" font-family="Times,serif" font-size="14.00"> v37 = v32</text>
<text text-anchor="start" x="79.5" y="-857.3" font-family="Times,serif" font-size="14.00"> v36 = v8</text>
<text text-anchor="start" x="79.5" y="-842.3" font-family="Times,serif" font-size="14.00"> v35 = v9</text>
</g>
<!-- Node0xf2d53b0&#45;&gt;Node0xf311920 -->
<g id="edge1" class="edge"><title>Node0xf2d53b0&#45;&gt;Node0xf311920</title>
<path fill="none" stroke="black" d="M240,-1780.34C240,-1771.88 240,-1762.64 240,-1752.74"/>
<polygon fill="black" stroke="black" points="243.5,-1752.62 240,-1742.62 236.5,-1752.62 243.5,-1752.62"/>
</g>
<!-- Node0xf310d40 -->
<g id="node3" class="node"><title>Node0xf310d40</title>
<polygon fill="none" stroke="black" points="177.5,-760.5 177.5,-796.5 302.5,-796.5 302.5,-760.5 177.5,-760.5"/>
<text text-anchor="start" x="185.5" y="-774.8" font-family="Times,serif" font-size="14.00">if (v40 != v42):</text>
</g>
<!-- Node0xf311920&#45;&gt;Node0xf310d40 -->
<g id="edge2" class="edge"><title>Node0xf311920&#45;&gt;Node0xf310d40</title>
<path fill="none" stroke="black" d="M240,-834.348C240,-823.794 240,-814.47 240,-806.64"/>
<polygon fill="black" stroke="black" points="243.5,-806.595 240,-796.595 236.5,-806.595 243.5,-806.595"/>
</g>
<!-- Node0xf311fb0 -->
<g id="node4" class="node"><title>Node0xf311fb0</title>
<polygon fill="none" stroke="black" points="72.5,-595.5 72.5,-708.5 251.5,-708.5 251.5,-595.5 72.5,-595.5"/>
<text text-anchor="start" x="80.5" y="-693.3" font-family="Times,serif" font-size="14.00">0x413005:</text>
<text text-anchor="start" x="80.5" y="-678.3" font-family="Times,serif" font-size="14.00"> v10 = v40</text>
<text text-anchor="start" x="80.5" y="-663.3" font-family="Times,serif" font-size="14.00"> ScaleViewportExtEx()</text>
<text text-anchor="start" x="80.5" y="-648.3" font-family="Times,serif" font-size="14.00"> v38 = g9</text>
<text text-anchor="start" x="80.5" y="-633.3" font-family="Times,serif" font-size="14.00"> v37 = v38</text>
<text text-anchor="start" x="80.5" y="-618.3" font-family="Times,serif" font-size="14.00"> v36 = a3</text>
<text text-anchor="start" x="80.5" y="-603.3" font-family="Times,serif" font-size="14.00"> v35 = a2</text>
</g>
<!-- Node0xf310d40&#45;&gt;Node0xf311fb0 -->
<g id="edge3" class="edge"><title>Node0xf310d40&#45;&gt;Node0xf311fb0</title>
<path fill="none" stroke="black" d="M212.362,-760.235C205.655,-755.027 198.988,-748.85 194,-742 188.677,-734.689 184.163,-726.404 180.356,-717.903"/>
<polygon fill="black" stroke="black" points="183.571,-716.518 176.499,-708.629 177.108,-719.206 183.571,-716.518"/>
<text text-anchor="middle" x="234" y="-730.8" font-family="Times,serif" font-size="14.00">v40 != v42</text>
</g>
<!-- Node0xf311570 -->
<g id="node5" class="node"><title>Node0xf311570</title>
<polygon fill="none" stroke="black" points="81.5,-474.5 81.5,-557.5 418.5,-557.5 418.5,-474.5 81.5,-474.5"/>
<text text-anchor="start" x="89.5" y="-542.3" font-family="Times,serif" font-size="14.00">0x413017:</text>
<text text-anchor="start" x="89.5" y="-527.3" font-family="Times,serif" font-size="14.00"> v41 = *(IntToPtrCastExpr&lt;ptr&gt;((v37 + 8)))</text>
<text text-anchor="start" x="89.5" y="-512.3" font-family="Times,serif" font-size="14.00"> g9 = v41</text>
<text text-anchor="start" x="89.5" y="-497.3" font-family="Times,serif" font-size="14.00"> g1 = False</text>
<text text-anchor="start" x="89.5" y="-482.3" font-family="Times,serif" font-size="14.00"> g207 = (v41 == 0)</text>
</g>
<!-- Node0xf310d40&#45;&gt;Node0xf311570 -->
<g id="edge4" class="edge"><title>Node0xf310d40&#45;&gt;Node0xf311570</title>
<path fill="none" stroke="black" d="M261.448,-760.337C266.53,-755.051 271.265,-748.81 274,-742 296.827,-685.165 282.948,-614.103 268.605,-567.224"/>
<polygon fill="black" stroke="black" points="271.912,-566.073 265.551,-557.601 265.24,-568.191 271.912,-566.073"/>
<text text-anchor="middle" x="330" y="-648.3" font-family="Times,serif" font-size="14.00">v40 == v42</text>
</g>
<!-- Node0xf311fb0&#45;&gt;Node0xf311570 -->
<g id="edge5" class="edge"><title>Node0xf311fb0&#45;&gt;Node0xf311570</title>
<path fill="none" stroke="black" d="M198.555,-595.336C204.919,-585.647 211.496,-575.631 217.734,-566.133"/>
<polygon fill="black" stroke="black" points="220.787,-567.859 223.351,-557.579 214.936,-564.017 220.787,-567.859"/>
</g>
<!-- Node0xf311be0 -->
<g id="node6" class="node"><title>Node0xf311be0</title>
<polygon fill="none" stroke="black" points="193,-398.5 193,-436.5 307,-436.5 307,-398.5 193,-398.5"/>
<text text-anchor="start" x="201" y="-421.3" font-family="Times,serif" font-size="14.00">if (v41 == 0):</text>
<text text-anchor="start" x="201" y="-406.3" font-family="Times,serif" font-size="14.00"> else:</text>
</g>
<!-- Node0xf311570&#45;&gt;Node0xf311be0 -->
<g id="edge6" class="edge"><title>Node0xf311570&#45;&gt;Node0xf311be0</title>
<path fill="none" stroke="black" d="M250,-474.355C250,-465.083 250,-455.427 250,-446.803"/>
<polygon fill="black" stroke="black" points="253.5,-446.538 250,-436.538 246.5,-446.538 253.5,-446.538"/>
</g>
<!-- Node0xf3128a0 -->
<g id="node7" class="node"><title>Node0xf3128a0</title>
<polygon fill="none" stroke="black" points="0,-263.5 0,-316.5 276,-316.5 276,-263.5 0,-263.5"/>
<text text-anchor="start" x="8" y="-301.3" font-family="Times,serif" font-size="14.00">0x413017:</text>
<text text-anchor="start" x="8" y="-286.3" font-family="Times,serif" font-size="14.00"> v2 = PtrToIntCastExpr&lt;int32&gt;(a1)</text>
<text text-anchor="start" x="8" y="-271.3" font-family="Times,serif" font-size="14.00"> result = v2</text>
</g>
<!-- Node0xf311be0&#45;&gt;Node0xf3128a0 -->
<g id="edge7" class="edge"><title>Node0xf311be0&#45;&gt;Node0xf3128a0</title>
<path fill="none" stroke="black" d="M233.714,-398.251C216.49,-378.951 188.938,-348.077 167.807,-324.4"/>
<polygon fill="black" stroke="black" points="170.182,-321.804 160.912,-316.674 164.959,-326.465 170.182,-321.804"/>
<text text-anchor="middle" x="251.5" y="-368.8" font-family="Times,serif" font-size="14.00">v41 == 0</text>
</g>
<!-- Node0xf311a90 -->
<g id="node8" class="node"><title>Node0xf311a90</title>
<polygon fill="none" stroke="black" points="294.5,-233.5 294.5,-346.5 693.5,-346.5 693.5,-233.5 294.5,-233.5"/>
<text text-anchor="start" x="302.5" y="-331.3" font-family="Times,serif" font-size="14.00">0x41301e:</text>
<text text-anchor="start" x="302.5" y="-316.3" font-family="Times,serif" font-size="14.00"> v19 = v41</text>
<text text-anchor="start" x="302.5" y="-301.3" font-family="Times,serif" font-size="14.00"> g10 = PtrToIntCastExpr&lt;int32&gt;(&amp;(v19))</text>
<text text-anchor="start" x="302.5" y="-286.3" font-family="Times,serif" font-size="14.00"> v39 = g7</text>
<text text-anchor="start" x="302.5" y="-271.3" font-family="Times,serif" font-size="14.00"> v1 = PtrToIntCastExpr&lt;int32&gt;(a1)</text>
<text text-anchor="start" x="302.5" y="-256.3" font-family="Times,serif" font-size="14.00"> IntToPtrCastExpr&lt;ptr&gt;(v39)(v41, a2, a3, a4, a5, v1)</text>
<text text-anchor="start" x="302.5" y="-241.3" font-family="Times,serif" font-size="14.00"> result = v1</text>
</g>
<!-- Node0xf311be0&#45;&gt;Node0xf311a90 -->
<g id="edge8" class="edge"><title>Node0xf311be0&#45;&gt;Node0xf311a90</title>
<path fill="none" stroke="black" d="M285.219,-398.385C309.57,-385.861 343.484,-368.417 376.907,-351.226"/>
<polygon fill="black" stroke="black" points="378.556,-354.314 385.848,-346.627 375.354,-348.089 378.556,-354.314"/>
<text text-anchor="middle" x="373.5" y="-368.8" font-family="Times,serif" font-size="14.00">v41 != 0</text>
</g>
<!-- Node0xf311e50 -->
<g id="node9" class="node"><title>Node0xf311e50</title>
<polygon fill="none" stroke="black" points="300.5,-97.5 300.5,-195.5 413.5,-195.5 413.5,-97.5 300.5,-97.5"/>
<text text-anchor="start" x="308.5" y="-180.3" font-family="Times,serif" font-size="14.00">0x413030:</text>
<text text-anchor="start" x="308.5" y="-165.3" font-family="Times,serif" font-size="14.00"> v34 = v10</text>
<text text-anchor="start" x="308.5" y="-150.3" font-family="Times,serif" font-size="14.00"> g7 = v34</text>
<text text-anchor="start" x="308.5" y="-135.3" font-family="Times,serif" font-size="14.00"> g9 = v35</text>
<text text-anchor="start" x="308.5" y="-120.3" font-family="Times,serif" font-size="14.00"> g3 = v36</text>
<text text-anchor="start" x="308.5" y="-105.3" font-family="Times,serif" font-size="14.00"> return result</text>
</g>
<!-- Node0xf3128a0&#45;&gt;Node0xf311e50 -->
<g id="edge9" class="edge"><title>Node0xf3128a0&#45;&gt;Node0xf311e50</title>
<path fill="none" stroke="black" d="M177.659,-263.375C209.383,-242.878 254.529,-213.709 291.587,-189.765"/>
<polygon fill="black" stroke="black" points="293.833,-192.48 300.333,-184.114 290.034,-186.601 293.833,-192.48"/>
</g>
<!-- Node0xf311a90&#45;&gt;Node0xf311e50 -->
<g id="edge10" class="edge"><title>Node0xf311a90&#45;&gt;Node0xf311e50</title>
<path fill="none" stroke="black" d="M440.247,-233.482C430.475,-223.388 420.282,-212.861 410.517,-202.775"/>
<polygon fill="black" stroke="black" points="412.964,-200.271 403.494,-195.521 407.935,-205.14 412.964,-200.271"/>
</g>
<!-- Node0xf30bf20 -->
<g id="node10" class="node"><title>Node0xf30bf20</title>
<polygon fill="none" stroke="black" points="330,-23.5 330,-59.5 384,-59.5 384,-23.5 330,-23.5"/>
<text text-anchor="start" x="338" y="-37.8" font-family="Times,serif" font-size="14.00">exit:</text>
</g>
<!-- Node0xf311e50&#45;&gt;Node0xf30bf20 -->
<g id="edge11" class="edge"><title>Node0xf311e50&#45;&gt;Node0xf30bf20</title>
<path fill="none" stroke="black" d="M357,-97.3173C357,-87.893 357,-78.32 357,-69.8676"/>
<polygon fill="black" stroke="black" points="360.5,-69.856 357,-59.8561 353.5,-69.8561 360.5,-69.856"/>
</g>
</g>
</svg>
