<?xml version="1.0" encoding="UTF-8" standalone="no"?>
<!DOCTYPE svg PUBLIC "-//W3C//DTD SVG 1.1//EN"
 "http://www.w3.org/Graphics/SVG/1.1/DTD/svg11.dtd">
<!-- Generated by graphviz version 2.38.0 (20140413.2041)
 -->
<!-- Title: Control&#45;flow graph for function &#39;function_41032b(*a1, *a2)&#39;. Pages: 1 -->
<svg width="454pt" height="1295pt"
 viewBox="0.00 0.00 454.00 1295.00" xmlns="http://www.w3.org/2000/svg" xmlns:xlink="http://www.w3.org/1999/xlink">
<g id="graph0" class="graph" transform="scale(1 1) rotate(0) translate(4 1291)">
<title>Control&#45;flow graph for function &#39;function_41032b(*a1, *a2)&#39;.</title>
<polygon fill="white" stroke="none" points="-4,4 -4,-1291 450,-1291 450,4 -4,4"/>
<text text-anchor="middle" x="223" y="-7.8" font-family="Times,serif" font-size="14.00">Control&#45;flow graph for function &#39;function_41032b(*a1, *a2)&#39;.</text>
<!-- Node0xf136a20 -->
<g id="node1" class="node"><title>Node0xf136a20</title>
<polygon fill="none" stroke="black" points="256.25,-1233.5 256.25,-1286.5 315.25,-1286.5 315.25,-1233.5 256.25,-1233.5"/>
<text text-anchor="start" x="264.25" y="-1271.3" font-family="Times,serif" font-size="14.00">entry:</text>
<text text-anchor="start" x="264.25" y="-1256.3" font-family="Times,serif" font-size="14.00"> a1</text>
<text text-anchor="start" x="264.25" y="-1241.3" font-family="Times,serif" font-size="14.00"> a2</text>
</g>
<!-- Node0xf136c30 -->
<g id="node2" class="node"><title>Node0xf136c30</title>
<polygon fill="none" stroke="black" points="147.25,-872.5 147.25,-1195.5 424.25,-1195.5 424.25,-872.5 147.25,-872.5"/>
<text text-anchor="start" x="155.25" y="-1180.3" font-family="Times,serif" font-size="14.00">v1</text>
<text text-anchor="start" x="155.25" y="-1165.3" font-family="Times,serif" font-size="14.00"> v2</text>
<text text-anchor="start" x="155.25" y="-1150.3" font-family="Times,serif" font-size="14.00"> v3</text>
<text text-anchor="start" x="155.25" y="-1135.3" font-family="Times,serif" font-size="14.00"> v4</text>
<text text-anchor="start" x="155.25" y="-1120.3" font-family="Times,serif" font-size="14.00"> v5</text>
<text text-anchor="start" x="155.25" y="-1105.3" font-family="Times,serif" font-size="14.00"> v6</text>
<text text-anchor="start" x="155.25" y="-1090.3" font-family="Times,serif" font-size="14.00"> v7</text>
<text text-anchor="start" x="155.25" y="-1075.3" font-family="Times,serif" font-size="14.00"> v8</text>
<text text-anchor="start" x="155.25" y="-1060.3" font-family="Times,serif" font-size="14.00"> v9</text>
<text text-anchor="start" x="155.25" y="-1045.3" font-family="Times,serif" font-size="14.00"> v10</text>
<text text-anchor="start" x="155.25" y="-1030.3" font-family="Times,serif" font-size="14.00"> v11</text>
<text text-anchor="start" x="155.25" y="-1015.3" font-family="Times,serif" font-size="14.00"> v12</text>
<text text-anchor="start" x="155.25" y="-1000.3" font-family="Times,serif" font-size="14.00"> v13</text>
<text text-anchor="start" x="155.25" y="-985.3" font-family="Times,serif" font-size="14.00"> v2 = v3</text>
<text text-anchor="start" x="155.25" y="-970.3" font-family="Times,serif" font-size="14.00"> v4 = v5</text>
<text text-anchor="start" x="155.25" y="-955.3" font-family="Times,serif" font-size="14.00"> v2 = a1</text>
<text text-anchor="start" x="155.25" y="-940.3" font-family="Times,serif" font-size="14.00"> v4 = a2</text>
<text text-anchor="start" x="155.25" y="-925.3" font-family="Times,serif" font-size="14.00"> g2 = PtrToIntCastExpr&lt;int32&gt;(a1)</text>
<text text-anchor="start" x="155.25" y="-910.3" font-family="Times,serif" font-size="14.00"> v6 = *(&amp;(a1[&#39;0&#39;]))</text>
<text text-anchor="start" x="155.25" y="-895.3" font-family="Times,serif" font-size="14.00"> g8 = v6</text>
<text text-anchor="start" x="155.25" y="-880.3" font-family="Times,serif" font-size="14.00"> v7 = *(&amp;(a2[&#39;0&#39;]))</text>
</g>
<!-- Node0xf136a20&#45;&gt;Node0xf136c30 -->
<g id="edge1" class="edge"><title>Node0xf136a20&#45;&gt;Node0xf136c30</title>
<path fill="none" stroke="black" d="M285.75,-1233.3C285.75,-1225.38 285.75,-1215.99 285.75,-1205.68"/>
<polygon fill="black" stroke="black" points="289.25,-1205.53 285.75,-1195.53 282.25,-1205.53 289.25,-1205.53"/>
</g>
<!-- Node0xf136ac0 -->
<g id="node3" class="node"><title>Node0xf136ac0</title>
<polygon fill="none" stroke="black" points="229.25,-798.5 229.25,-834.5 342.25,-834.5 342.25,-798.5 229.25,-798.5"/>
<text text-anchor="start" x="237.25" y="-812.8" font-family="Times,serif" font-size="14.00">if (v6 == v7):</text>
</g>
<!-- Node0xf136c30&#45;&gt;Node0xf136ac0 -->
<g id="edge2" class="edge"><title>Node0xf136c30&#45;&gt;Node0xf136ac0</title>
<path fill="none" stroke="black" d="M285.75,-872.437C285.75,-862.13 285.75,-852.68 285.75,-844.631"/>
<polygon fill="black" stroke="black" points="289.25,-844.576 285.75,-834.576 282.25,-844.576 289.25,-844.576"/>
</g>
<!-- Node0xf1372a0 -->
<g id="node4" class="node"><title>Node0xf1372a0</title>
<polygon fill="none" stroke="black" points="145.75,-678.5 145.75,-746.5 299.75,-746.5 299.75,-678.5 145.75,-678.5"/>
<text text-anchor="start" x="153.75" y="-731.3" font-family="Times,serif" font-size="14.00">0x410339:</text>
<text text-anchor="start" x="153.75" y="-716.3" font-family="Times,serif" font-size="14.00"> v8 = *(&amp;(a1[&#39;1&#39;]))</text>
<text text-anchor="start" x="153.75" y="-701.3" font-family="Times,serif" font-size="14.00"> g8 = v8</text>
<text text-anchor="start" x="153.75" y="-686.3" font-family="Times,serif" font-size="14.00"> v11 = *(&amp;(a2[&#39;1&#39;]))</text>
</g>
<!-- Node0xf136ac0&#45;&gt;Node0xf1372a0 -->
<g id="edge3" class="edge"><title>Node0xf136ac0&#45;&gt;Node0xf1372a0</title>
<path fill="none" stroke="black" d="M262.544,-798.479C256.434,-793.112 250.289,-786.794 245.75,-780 240.921,-772.772 237,-764.424 233.855,-756.138"/>
<polygon fill="black" stroke="black" points="237.098,-754.808 230.511,-746.509 230.485,-757.104 237.098,-754.808"/>
<text text-anchor="middle" x="279.75" y="-768.8" font-family="Times,serif" font-size="14.00">v6 == v7</text>
</g>
<!-- Node0xf137140 -->
<g id="node5" class="node"><title>Node0xf137140</title>
<polygon fill="none" stroke="black" points="157.75,-105 157.75,-143 249.75,-143 249.75,-105 157.75,-105"/>
<text text-anchor="start" x="165.75" y="-127.8" font-family="Times,serif" font-size="14.00">0x410355:</text>
<text text-anchor="start" x="165.75" y="-112.8" font-family="Times,serif" font-size="14.00"> return 0</text>
</g>
<!-- Node0xf136ac0&#45;&gt;Node0xf137140 -->
<g id="edge4" class="edge"><title>Node0xf136ac0&#45;&gt;Node0xf137140</title>
<path fill="none" stroke="black" d="M302.024,-798.149C306.406,-792.686 310.756,-786.399 313.75,-780 326.551,-752.643 327.75,-743.703 327.75,-713.5 327.75,-713.5 327.75,-713.5 327.75,-219.5 327.75,-182.389 292.181,-157.923 259.143,-143.202"/>
<polygon fill="black" stroke="black" points="260.497,-139.974 249.923,-139.306 257.772,-146.422 260.497,-139.974"/>
<text text-anchor="middle" x="358.75" y="-454.8" font-family="Times,serif" font-size="14.00">v6 != v7</text>
</g>
<!-- Node0xf1376a0 -->
<g id="node6" class="node"><title>Node0xf1376a0</title>
<polygon fill="none" stroke="black" points="161.75,-604.5 161.75,-640.5 283.75,-640.5 283.75,-604.5 161.75,-604.5"/>
<text text-anchor="start" x="169.75" y="-618.8" font-family="Times,serif" font-size="14.00">if (v8 == v11):</text>
</g>
<!-- Node0xf1372a0&#45;&gt;Node0xf1376a0 -->
<g id="edge5" class="edge"><title>Node0xf1372a0&#45;&gt;Node0xf1376a0</title>
<path fill="none" stroke="black" d="M222.75,-678.482C222.75,-669.328 222.75,-659.497 222.75,-650.715"/>
<polygon fill="black" stroke="black" points="226.25,-650.64 222.75,-640.64 219.25,-650.64 226.25,-650.64"/>
</g>
<!-- Node0x7215110 -->
<g id="node7" class="node"><title>Node0x7215110</title>
<polygon fill="none" stroke="black" points="128.75,-23.5 128.75,-59.5 182.75,-59.5 182.75,-23.5 128.75,-23.5"/>
<text text-anchor="start" x="136.75" y="-37.8" font-family="Times,serif" font-size="14.00">exit:</text>
</g>
<!-- Node0xf137140&#45;&gt;Node0x7215110 -->
<g id="edge6" class="edge"><title>Node0xf137140&#45;&gt;Node0x7215110</title>
<path fill="none" stroke="black" d="M192.858,-104.733C186.422,-93.9393 178.171,-80.1026 171.085,-68.2183"/>
<polygon fill="black" stroke="black" points="174.07,-66.39 165.942,-59.5935 168.058,-69.9751 174.07,-66.39"/>
</g>
<!-- Node0xf1376a0&#45;&gt;Node0xf137140 -->
<g id="edge8" class="edge"><title>Node0xf1376a0&#45;&gt;Node0xf137140</title>
<path fill="none" stroke="black" d="M227.942,-604.356C233.567,-584.233 241.75,-549.762 241.75,-519.5 241.75,-519.5 241.75,-519.5 241.75,-219.5 241.75,-195.557 231.12,-170.506 221.105,-152.217"/>
<polygon fill="black" stroke="black" points="224.002,-150.235 215.983,-143.311 217.934,-153.724 224.002,-150.235"/>
<text text-anchor="middle" x="277.25" y="-366.8" font-family="Times,serif" font-size="14.00">v8 != v11</text>
</g>
<!-- Node0xf137770 -->
<g id="node8" class="node"><title>Node0xf137770</title>
<polygon fill="none" stroke="black" points="59.75,-484.5 59.75,-552.5 213.75,-552.5 213.75,-484.5 59.75,-484.5"/>
<text text-anchor="start" x="67.75" y="-537.3" font-family="Times,serif" font-size="14.00">0x410341:</text>
<text text-anchor="start" x="67.75" y="-522.3" font-family="Times,serif" font-size="14.00"> v9 = *(&amp;(a1[&#39;2&#39;]))</text>
<text text-anchor="start" x="67.75" y="-507.3" font-family="Times,serif" font-size="14.00"> g8 = v9</text>
<text text-anchor="start" x="67.75" y="-492.3" font-family="Times,serif" font-size="14.00"> v12 = *(&amp;(a2[&#39;2&#39;]))</text>
</g>
<!-- Node0xf1376a0&#45;&gt;Node0xf137770 -->
<g id="edge7" class="edge"><title>Node0xf1376a0&#45;&gt;Node0xf137770</title>
<path fill="none" stroke="black" d="M172.694,-604.296C164.365,-599.5 156.561,-593.486 150.75,-586 145.498,-579.234 142.099,-570.959 139.924,-562.573"/>
<polygon fill="black" stroke="black" points="143.348,-561.847 137.896,-552.762 136.493,-563.264 143.348,-561.847"/>
<text text-anchor="middle" x="189.25" y="-574.8" font-family="Times,serif" font-size="14.00">v8 == v11</text>
</g>
<!-- Node0xf137840 -->
<g id="node9" class="node"><title>Node0xf137840</title>
<polygon fill="none" stroke="black" points="75.75,-396.5 75.75,-432.5 197.75,-432.5 197.75,-396.5 75.75,-396.5"/>
<text text-anchor="start" x="83.75" y="-410.8" font-family="Times,serif" font-size="14.00">if (v9 == v12):</text>
</g>
<!-- Node0xf137770&#45;&gt;Node0xf137840 -->
<g id="edge9" class="edge"><title>Node0xf137770&#45;&gt;Node0xf137840</title>
<path fill="none" stroke="black" d="M136.75,-484.384C136.75,-470.932 136.75,-455.579 136.75,-442.787"/>
<polygon fill="black" stroke="black" points="140.25,-442.742 136.75,-432.742 133.25,-442.742 140.25,-442.742"/>
</g>
<!-- Node0xf137840&#45;&gt;Node0xf137140 -->
<g id="edge11" class="edge"><title>Node0xf137840&#45;&gt;Node0xf137140</title>
<path fill="none" stroke="black" d="M172.33,-396.375C179.219,-391.412 185.583,-385.313 189.75,-378 230.941,-305.716 218.912,-202.154 209.816,-152.978"/>
<polygon fill="black" stroke="black" points="213.233,-152.211 207.883,-143.065 206.362,-153.55 213.233,-152.211"/>
</g>
<!-- Node0xf137ba0 -->
<g id="node10" class="node"><title>Node0xf137ba0</title>
<polygon fill="none" stroke="black" points="21.75,-276.5 21.75,-344.5 175.75,-344.5 175.75,-276.5 21.75,-276.5"/>
<text text-anchor="start" x="29.75" y="-329.3" font-family="Times,serif" font-size="14.00">0x410349:</text>
<text text-anchor="start" x="29.75" y="-314.3" font-family="Times,serif" font-size="14.00"> v10 = *(&amp;(a1[&#39;3&#39;]))</text>
<text text-anchor="start" x="29.75" y="-299.3" font-family="Times,serif" font-size="14.00"> g2 = v10</text>
<text text-anchor="start" x="29.75" y="-284.3" font-family="Times,serif" font-size="14.00"> v13 = *(&amp;(a2[&#39;3&#39;]))</text>
</g>
<!-- Node0xf137840&#45;&gt;Node0xf137ba0 -->
<g id="edge10" class="edge"><title>Node0xf137840&#45;&gt;Node0xf137ba0</title>
<path fill="none" stroke="black" d="M123.11,-396.217C119.272,-390.659 115.422,-384.301 112.75,-378 109.642,-370.668 107.199,-362.579 105.287,-354.642"/>
<polygon fill="black" stroke="black" points="108.679,-353.77 103.14,-344.739 101.839,-355.253 108.679,-353.77"/>
<text text-anchor="middle" x="151.25" y="-366.8" font-family="Times,serif" font-size="14.00">v9 == v12</text>
</g>
<!-- Node0xf137c00 -->
<g id="node11" class="node"><title>Node0xf137c00</title>
<polygon fill="none" stroke="black" points="33.25,-202.5 33.25,-238.5 164.25,-238.5 164.25,-202.5 33.25,-202.5"/>
<text text-anchor="start" x="41.25" y="-216.8" font-family="Times,serif" font-size="14.00">if (v10 == v13):</text>
</g>
<!-- Node0xf137ba0&#45;&gt;Node0xf137c00 -->
<g id="edge12" class="edge"><title>Node0xf137ba0&#45;&gt;Node0xf137c00</title>
<path fill="none" stroke="black" d="M98.75,-276.482C98.75,-267.328 98.75,-257.497 98.75,-248.715"/>
<polygon fill="black" stroke="black" points="102.25,-248.64 98.75,-238.64 95.2501,-248.64 102.25,-248.64"/>
</g>
<!-- Node0xf137c00&#45;&gt;Node0xf137140 -->
<g id="edge14" class="edge"><title>Node0xf137c00&#45;&gt;Node0xf137140</title>
<path fill="none" stroke="black" d="M138.2,-202.376C147.503,-197.27 156.968,-191.107 164.75,-184 174.667,-174.943 183.228,-162.856 189.783,-151.98"/>
<polygon fill="black" stroke="black" points="192.866,-153.64 194.803,-143.223 186.793,-150.159 192.866,-153.64"/>
</g>
<!-- Node0xf137c60 -->
<g id="node12" class="node"><title>Node0xf137c60</title>
<polygon fill="none" stroke="black" points="39.75,-97.5 39.75,-150.5 131.75,-150.5 131.75,-97.5 39.75,-97.5"/>
<text text-anchor="start" x="47.75" y="-135.3" font-family="Times,serif" font-size="14.00">0x410351:</text>
<text text-anchor="start" x="47.75" y="-120.3" font-family="Times,serif" font-size="14.00"> g2 = 0</text>
<text text-anchor="start" x="47.75" y="-105.3" font-family="Times,serif" font-size="14.00"> return 1</text>
</g>
<!-- Node0xf137c00&#45;&gt;Node0xf137c60 -->
<g id="edge13" class="edge"><title>Node0xf137c00&#45;&gt;Node0xf137c60</title>
<path fill="none" stroke="black" d="M86.6755,-202.21C83.4487,-196.65 80.4013,-190.295 78.75,-184 76.7847,-176.508 76.5747,-168.334 77.2593,-160.524"/>
<polygon fill="black" stroke="black" points="80.736,-160.931 78.6023,-150.553 73.7986,-159.997 80.736,-160.931"/>
<text text-anchor="middle" x="121.75" y="-172.8" font-family="Times,serif" font-size="14.00">v10 == v13</text>
</g>
<!-- Node0xf137c60&#45;&gt;Node0x7215110 -->
<g id="edge15" class="edge"><title>Node0xf137c60&#45;&gt;Node0x7215110</title>
<path fill="none" stroke="black" d="M108.284,-97.0862C116.445,-87.7013 125.645,-77.1202 133.759,-67.7896"/>
<polygon fill="black" stroke="black" points="136.635,-69.8162 140.556,-59.9735 131.353,-65.2229 136.635,-69.8162"/>
</g>
</g>
</svg>
