<?xml version="1.0" encoding="UTF-8" standalone="no"?>
<!DOCTYPE svg PUBLIC "-//W3C//DTD SVG 1.1//EN"
 "http://www.w3.org/Graphics/SVG/1.1/DTD/svg11.dtd">
<!-- Generated by graphviz version 2.38.0 (20140413.2041)
 -->
<!-- Title: Control&#45;flow graph for function &#39;function_4128c7(*a1)&#39;. Pages: 1 -->
<svg width="479pt" height="852pt"
 viewBox="0.00 0.00 479.00 852.00" xmlns="http://www.w3.org/2000/svg" xmlns:xlink="http://www.w3.org/1999/xlink">
<g id="graph0" class="graph" transform="scale(1 1) rotate(0) translate(4 848)">
<title>Control&#45;flow graph for function &#39;function_4128c7(*a1)&#39;.</title>
<polygon fill="white" stroke="none" points="-4,4 -4,-848 475,-848 475,4 -4,4"/>
<text text-anchor="middle" x="235.5" y="-7.8" font-family="Times,serif" font-size="14.00">Control&#45;flow graph for function &#39;function_4128c7(*a1)&#39;.</text>
<!-- Node0xf2dccf0 -->
<g id="node1" class="node"><title>Node0xf2dccf0</title>
<polygon fill="none" stroke="black" points="252,-805.5 252,-843.5 311,-843.5 311,-805.5 252,-805.5"/>
<text text-anchor="start" x="260" y="-828.3" font-family="Times,serif" font-size="14.00">entry:</text>
<text text-anchor="start" x="260" y="-813.3" font-family="Times,serif" font-size="14.00"> a1</text>
</g>
<!-- Node0xf2e4810 -->
<g id="node2" class="node"><title>Node0xf2e4810</title>
<polygon fill="none" stroke="black" points="138,-429.5 138,-767.5 425,-767.5 425,-429.5 138,-429.5"/>
<text text-anchor="start" x="146" y="-752.3" font-family="Times,serif" font-size="14.00">v1</text>
<text text-anchor="start" x="146" y="-737.3" font-family="Times,serif" font-size="14.00"> v2</text>
<text text-anchor="start" x="146" y="-722.3" font-family="Times,serif" font-size="14.00"> v3</text>
<text text-anchor="start" x="146" y="-707.3" font-family="Times,serif" font-size="14.00"> v4</text>
<text text-anchor="start" x="146" y="-692.3" font-family="Times,serif" font-size="14.00"> v5</text>
<text text-anchor="start" x="146" y="-677.3" font-family="Times,serif" font-size="14.00"> v6</text>
<text text-anchor="start" x="146" y="-662.3" font-family="Times,serif" font-size="14.00"> v7</text>
<text text-anchor="start" x="146" y="-647.3" font-family="Times,serif" font-size="14.00"> v8</text>
<text text-anchor="start" x="146" y="-632.3" font-family="Times,serif" font-size="14.00"> v9</text>
<text text-anchor="start" x="146" y="-617.3" font-family="Times,serif" font-size="14.00"> v10</text>
<text text-anchor="start" x="146" y="-602.3" font-family="Times,serif" font-size="14.00"> v11</text>
<text text-anchor="start" x="146" y="-587.3" font-family="Times,serif" font-size="14.00"> v12</text>
<text text-anchor="start" x="146" y="-572.3" font-family="Times,serif" font-size="14.00"> v13</text>
<text text-anchor="start" x="146" y="-557.3" font-family="Times,serif" font-size="14.00"> v5 = v6</text>
<text text-anchor="start" x="146" y="-542.3" font-family="Times,serif" font-size="14.00"> v5 = a1</text>
<text text-anchor="start" x="146" y="-527.3" font-family="Times,serif" font-size="14.00"> v8 = g5</text>
<text text-anchor="start" x="146" y="-512.3" font-family="Times,serif" font-size="14.00"> g9 = v8</text>
<text text-anchor="start" x="146" y="-497.3" font-family="Times,serif" font-size="14.00"> v12 = (v8 + 16)</text>
<text text-anchor="start" x="146" y="-482.3" font-family="Times,serif" font-size="14.00"> g5 = v12</text>
<text text-anchor="start" x="146" y="-467.3" font-family="Times,serif" font-size="14.00"> v9 = *(IntToPtrCastExpr&lt;ptr&gt;(v12))</text>
<text text-anchor="start" x="146" y="-452.3" font-family="Times,serif" font-size="14.00"> g1 = False</text>
<text text-anchor="start" x="146" y="-437.3" font-family="Times,serif" font-size="14.00"> g207 = (v9 == 0)</text>
</g>
<!-- Node0xf2dccf0&#45;&gt;Node0xf2e4810 -->
<g id="edge1" class="edge"><title>Node0xf2dccf0&#45;&gt;Node0xf2e4810</title>
<path fill="none" stroke="black" d="M281.5,-805.169C281.5,-797.729 281.5,-788.381 281.5,-777.799"/>
<polygon fill="black" stroke="black" points="285,-777.754 281.5,-767.754 278,-777.754 285,-777.754"/>
</g>
<!-- Node0xf2e4610 -->
<g id="node3" class="node"><title>Node0xf2e4610</title>
<polygon fill="none" stroke="black" points="232,-353.5 232,-391.5 331,-391.5 331,-353.5 232,-353.5"/>
<text text-anchor="start" x="240" y="-376.3" font-family="Times,serif" font-size="14.00">if (v9 != 0):</text>
<text text-anchor="start" x="240" y="-361.3" font-family="Times,serif" font-size="14.00"> else:</text>
</g>
<!-- Node0xf2e4810&#45;&gt;Node0xf2e4610 -->
<g id="edge2" class="edge"><title>Node0xf2e4810&#45;&gt;Node0xf2e4610</title>
<path fill="none" stroke="black" d="M281.5,-429.447C281.5,-419.269 281.5,-409.924 281.5,-401.905"/>
<polygon fill="black" stroke="black" points="285,-401.84 281.5,-391.84 278,-401.84 285,-401.84"/>
</g>
<!-- Node0xf2e5340 -->
<g id="node4" class="node"><title>Node0xf2e5340</title>
<polygon fill="none" stroke="black" points="0,-218.5 0,-301.5 337,-301.5 337,-218.5 0,-218.5"/>
<text text-anchor="start" x="8" y="-286.3" font-family="Times,serif" font-size="14.00">0x4128d3:</text>
<text text-anchor="start" x="8" y="-271.3" font-family="Times,serif" font-size="14.00"> v13 = *(IntToPtrCastExpr&lt;ptr&gt;((v9 + 28)))</text>
<text text-anchor="start" x="8" y="-256.3" font-family="Times,serif" font-size="14.00"> IntToPtrCastExpr&lt;ptr&gt;(v13)()</text>
<text text-anchor="start" x="8" y="-241.3" font-family="Times,serif" font-size="14.00"> v11 = g9</text>
<text text-anchor="start" x="8" y="-226.3" font-family="Times,serif" font-size="14.00"> v10 = v11</text>
</g>
<!-- Node0xf2e4610&#45;&gt;Node0xf2e5340 -->
<g id="edge3" class="edge"><title>Node0xf2e4610&#45;&gt;Node0xf2e5340</title>
<path fill="none" stroke="black" d="M262.84,-353.253C250.446,-341.133 233.556,-324.617 217.49,-308.906"/>
<polygon fill="black" stroke="black" points="219.783,-306.253 210.186,-301.764 214.889,-311.258 219.783,-306.253"/>
<text text-anchor="middle" x="269.5" y="-323.8" font-family="Times,serif" font-size="14.00">v9 != 0</text>
</g>
<!-- Node0xf2e53c0 -->
<g id="node5" class="node"><title>Node0xf2e53c0</title>
<polygon fill="none" stroke="black" points="355,-242 355,-278 436,-278 436,-242 355,-242"/>
<text text-anchor="start" x="363" y="-256.3" font-family="Times,serif" font-size="14.00">v10 = v8</text>
</g>
<!-- Node0xf2e4610&#45;&gt;Node0xf2e53c0 -->
<g id="edge4" class="edge"><title>Node0xf2e4610&#45;&gt;Node0xf2e53c0</title>
<path fill="none" stroke="black" d="M300.325,-353.253C319.475,-334.691 349.264,-305.816 370.41,-285.32"/>
<polygon fill="black" stroke="black" points="373.029,-287.655 377.774,-278.182 368.157,-282.629 373.029,-287.655"/>
<text text-anchor="middle" x="361.5" y="-323.8" font-family="Times,serif" font-size="14.00">v9 == 0</text>
</g>
<!-- Node0xf2e4df0 -->
<g id="node6" class="node"><title>Node0xf2e4df0</title>
<polygon fill="none" stroke="black" points="142,-97.5 142,-180.5 471,-180.5 471,-97.5 142,-97.5"/>
<text text-anchor="start" x="150" y="-165.3" font-family="Times,serif" font-size="14.00">0x4128d6:</text>
<text text-anchor="start" x="150" y="-150.3" font-family="Times,serif" font-size="14.00"> g1 = False</text>
<text text-anchor="start" x="150" y="-135.3" font-family="Times,serif" font-size="14.00"> *(IntToPtrCastExpr&lt;ptr&gt;((v10 + 28))) = 0</text>
<text text-anchor="start" x="150" y="-120.3" font-family="Times,serif" font-size="14.00"> g9 = v2</text>
<text text-anchor="start" x="150" y="-105.3" font-family="Times,serif" font-size="14.00"> return IntToPtrCastExpr&lt;ptr&gt;(v9)</text>
</g>
<!-- Node0xf2e5340&#45;&gt;Node0xf2e4df0 -->
<g id="edge5" class="edge"><title>Node0xf2e5340&#45;&gt;Node0xf2e4df0</title>
<path fill="none" stroke="black" d="M215.606,-218.38C227.135,-208.438 239.574,-197.712 251.439,-187.48"/>
<polygon fill="black" stroke="black" points="253.85,-190.022 259.138,-180.841 249.279,-184.721 253.85,-190.022"/>
</g>
<!-- Node0xf2e53c0&#45;&gt;Node0xf2e4df0 -->
<g id="edge6" class="edge"><title>Node0xf2e53c0&#45;&gt;Node0xf2e4df0</title>
<path fill="none" stroke="black" d="M382.748,-241.95C372.365,-228.067 357.169,-207.749 343.071,-188.898"/>
<polygon fill="black" stroke="black" points="345.695,-186.563 336.903,-180.651 340.09,-190.756 345.695,-186.563"/>
</g>
<!-- Node0xf2e4790 -->
<g id="node7" class="node"><title>Node0xf2e4790</title>
<polygon fill="none" stroke="black" points="279.5,-23.5 279.5,-59.5 333.5,-59.5 333.5,-23.5 279.5,-23.5"/>
<text text-anchor="start" x="287.5" y="-37.8" font-family="Times,serif" font-size="14.00">exit:</text>
</g>
<!-- Node0xf2e4df0&#45;&gt;Node0xf2e4790 -->
<g id="edge7" class="edge"><title>Node0xf2e4df0&#45;&gt;Node0xf2e4790</title>
<path fill="none" stroke="black" d="M306.5,-97.4994C306.5,-88.2058 306.5,-78.537 306.5,-69.9459"/>
<polygon fill="black" stroke="black" points="310,-69.7494 306.5,-59.7494 303,-69.7494 310,-69.7494"/>
</g>
</g>
</svg>
