<?xml version="1.0" encoding="UTF-8" standalone="no"?>
<!DOCTYPE svg PUBLIC "-//W3C//DTD SVG 1.1//EN"
 "http://www.w3.org/Graphics/SVG/1.1/DTD/svg11.dtd">
<!-- Generated by graphviz version 2.38.0 (20140413.2041)
 -->
<!-- Title: Control&#45;flow graph for function &#39;function_411646()&#39;. Pages: 1 -->
<svg width="395pt" height="366pt"
 viewBox="0.00 0.00 395.00 366.00" xmlns="http://www.w3.org/2000/svg" xmlns:xlink="http://www.w3.org/1999/xlink">
<g id="graph0" class="graph" transform="scale(1 1) rotate(0) translate(4 362)">
<title>Control&#45;flow graph for function &#39;function_411646()&#39;.</title>
<polygon fill="white" stroke="none" points="-4,4 -4,-362 391,-362 391,4 -4,4"/>
<text text-anchor="middle" x="193.5" y="-7.8" font-family="Times,serif" font-size="14.00">Control&#45;flow graph for function &#39;function_411646()&#39;.</text>
<!-- Node0xf207040 -->
<g id="node1" class="node"><title>Node0xf207040</title>
<polygon fill="none" stroke="black" points="164,-321.5 164,-357.5 223,-357.5 223,-321.5 164,-321.5"/>
<text text-anchor="start" x="172" y="-335.8" font-family="Times,serif" font-size="14.00">entry:</text>
</g>
<!-- Node0xf180960 -->
<g id="node2" class="node"><title>Node0xf180960</title>
<polygon fill="none" stroke="black" points="27,-96.5 27,-284.5 360,-284.5 360,-96.5 27,-96.5"/>
<text text-anchor="start" x="35" y="-269.3" font-family="Times,serif" font-size="14.00">v1</text>
<text text-anchor="start" x="35" y="-254.3" font-family="Times,serif" font-size="14.00"> result</text>
<text text-anchor="start" x="35" y="-239.3" font-family="Times,serif" font-size="14.00"> v2</text>
<text text-anchor="start" x="35" y="-224.3" font-family="Times,serif" font-size="14.00"> v3</text>
<text text-anchor="start" x="35" y="-209.3" font-family="Times,serif" font-size="14.00"> v4</text>
<text text-anchor="start" x="35" y="-194.3" font-family="Times,serif" font-size="14.00"> v5</text>
<text text-anchor="start" x="35" y="-179.3" font-family="Times,serif" font-size="14.00"> v6</text>
<text text-anchor="start" x="35" y="-164.3" font-family="Times,serif" font-size="14.00"> v4 = 1</text>
<text text-anchor="start" x="35" y="-149.3" font-family="Times,serif" font-size="14.00"> function_41b2cf(BitCastExpr&lt;ptr&gt;(&amp;(v4)))</text>
<text text-anchor="start" x="35" y="-134.3" font-family="Times,serif" font-size="14.00"> __CxxThrowException_8()</text>
<text text-anchor="start" x="35" y="-119.3" font-family="Times,serif" font-size="14.00"> result = g2</text>
<text text-anchor="start" x="35" y="-104.3" font-family="Times,serif" font-size="14.00"> return result</text>
</g>
<!-- Node0xf207040&#45;&gt;Node0xf180960 -->
<g id="edge1" class="edge"><title>Node0xf207040&#45;&gt;Node0xf180960</title>
<path fill="none" stroke="black" d="M193.5,-321.35C193.5,-314.079 193.5,-304.97 193.5,-294.967"/>
<polygon fill="black" stroke="black" points="197,-294.701 193.5,-284.702 190,-294.702 197,-294.701"/>
</g>
<!-- Node0xf1f26a0 -->
<g id="node3" class="node"><title>Node0xf1f26a0</title>
<polygon fill="none" stroke="black" points="166.5,-23.5 166.5,-59.5 220.5,-59.5 220.5,-23.5 166.5,-23.5"/>
<text text-anchor="start" x="174.5" y="-37.8" font-family="Times,serif" font-size="14.00">exit:</text>
</g>
<!-- Node0xf180960&#45;&gt;Node0xf1f26a0 -->
<g id="edge2" class="edge"><title>Node0xf180960&#45;&gt;Node0xf1f26a0</title>
<path fill="none" stroke="black" d="M193.5,-96.4027C193.5,-86.9531 193.5,-77.9697 193.5,-70.142"/>
<polygon fill="black" stroke="black" points="197,-69.9174 193.5,-59.9174 190,-69.9174 197,-69.9174"/>
</g>
</g>
</svg>
