<?xml version="1.0" encoding="UTF-8" standalone="no"?>
<!DOCTYPE svg PUBLIC "-//W3C//DTD SVG 1.1//EN"
 "http://www.w3.org/Graphics/SVG/1.1/DTD/svg11.dtd">
<!-- Generated by graphviz version 2.38.0 (20140413.2041)
 -->
<!-- Title: Control&#45;flow graph for function &#39;function_420094(a1)&#39;. Pages: 1 -->
<svg width="957pt" height="2713pt"
 viewBox="0.00 0.00 957.00 2713.00" xmlns="http://www.w3.org/2000/svg" xmlns:xlink="http://www.w3.org/1999/xlink">
<g id="graph0" class="graph" transform="scale(1 1) rotate(0) translate(4 2709)">
<title>Control&#45;flow graph for function &#39;function_420094(a1)&#39;.</title>
<polygon fill="white" stroke="none" points="-4,4 -4,-2709 953,-2709 953,4 -4,4"/>
<text text-anchor="middle" x="474.5" y="-7.8" font-family="Times,serif" font-size="14.00">Control&#45;flow graph for function &#39;function_420094(a1)&#39;.</text>
<!-- Node0xf879580 -->
<g id="node1" class="node"><title>Node0xf879580</title>
<polygon fill="none" stroke="black" points="532.5,-2666.5 532.5,-2704.5 591.5,-2704.5 591.5,-2666.5 532.5,-2666.5"/>
<text text-anchor="start" x="540.5" y="-2689.3" font-family="Times,serif" font-size="14.00">entry:</text>
<text text-anchor="start" x="540.5" y="-2674.3" font-family="Times,serif" font-size="14.00"> a1</text>
</g>
<!-- Node0xf87b640 -->
<g id="node2" class="node"><title>Node0xf87b640</title>
<polygon fill="none" stroke="black" points="282,-1405.5 282,-2628.5 842,-2628.5 842,-1405.5 282,-1405.5"/>
<text text-anchor="start" x="290" y="-2613.3" font-family="Times,serif" font-size="14.00">v1</text>
<text text-anchor="start" x="290" y="-2598.3" font-family="Times,serif" font-size="14.00"> v2</text>
<text text-anchor="start" x="290" y="-2583.3" font-family="Times,serif" font-size="14.00"> v3</text>
<text text-anchor="start" x="290" y="-2568.3" font-family="Times,serif" font-size="14.00"> v4</text>
<text text-anchor="start" x="290" y="-2553.3" font-family="Times,serif" font-size="14.00"> v5</text>
<text text-anchor="start" x="290" y="-2538.3" font-family="Times,serif" font-size="14.00"> v6</text>
<text text-anchor="start" x="290" y="-2523.3" font-family="Times,serif" font-size="14.00"> v7</text>
<text text-anchor="start" x="290" y="-2508.3" font-family="Times,serif" font-size="14.00"> v8</text>
<text text-anchor="start" x="290" y="-2493.3" font-family="Times,serif" font-size="14.00"> v9</text>
<text text-anchor="start" x="290" y="-2478.3" font-family="Times,serif" font-size="14.00"> v10</text>
<text text-anchor="start" x="290" y="-2463.3" font-family="Times,serif" font-size="14.00"> v11</text>
<text text-anchor="start" x="290" y="-2448.3" font-family="Times,serif" font-size="14.00"> v12</text>
<text text-anchor="start" x="290" y="-2433.3" font-family="Times,serif" font-size="14.00"> v13</text>
<text text-anchor="start" x="290" y="-2418.3" font-family="Times,serif" font-size="14.00"> v14</text>
<text text-anchor="start" x="290" y="-2403.3" font-family="Times,serif" font-size="14.00"> v15</text>
<text text-anchor="start" x="290" y="-2388.3" font-family="Times,serif" font-size="14.00"> v16</text>
<text text-anchor="start" x="290" y="-2373.3" font-family="Times,serif" font-size="14.00"> v17</text>
<text text-anchor="start" x="290" y="-2358.3" font-family="Times,serif" font-size="14.00"> v18</text>
<text text-anchor="start" x="290" y="-2343.3" font-family="Times,serif" font-size="14.00"> v19</text>
<text text-anchor="start" x="290" y="-2328.3" font-family="Times,serif" font-size="14.00"> v20</text>
<text text-anchor="start" x="290" y="-2313.3" font-family="Times,serif" font-size="14.00"> v21</text>
<text text-anchor="start" x="290" y="-2298.3" font-family="Times,serif" font-size="14.00"> v22</text>
<text text-anchor="start" x="290" y="-2283.3" font-family="Times,serif" font-size="14.00"> v23</text>
<text text-anchor="start" x="290" y="-2268.3" font-family="Times,serif" font-size="14.00"> v24</text>
<text text-anchor="start" x="290" y="-2253.3" font-family="Times,serif" font-size="14.00"> v25</text>
<text text-anchor="start" x="290" y="-2238.3" font-family="Times,serif" font-size="14.00"> v26</text>
<text text-anchor="start" x="290" y="-2223.3" font-family="Times,serif" font-size="14.00"> result</text>
<text text-anchor="start" x="290" y="-2208.3" font-family="Times,serif" font-size="14.00"> v27</text>
<text text-anchor="start" x="290" y="-2193.3" font-family="Times,serif" font-size="14.00"> v28</text>
<text text-anchor="start" x="290" y="-2178.3" font-family="Times,serif" font-size="14.00"> v29</text>
<text text-anchor="start" x="290" y="-2163.3" font-family="Times,serif" font-size="14.00"> v30</text>
<text text-anchor="start" x="290" y="-2148.3" font-family="Times,serif" font-size="14.00"> v31</text>
<text text-anchor="start" x="290" y="-2133.3" font-family="Times,serif" font-size="14.00"> v32</text>
<text text-anchor="start" x="290" y="-2118.3" font-family="Times,serif" font-size="14.00"> v33</text>
<text text-anchor="start" x="290" y="-2103.3" font-family="Times,serif" font-size="14.00"> v34</text>
<text text-anchor="start" x="290" y="-2088.3" font-family="Times,serif" font-size="14.00"> v35</text>
<text text-anchor="start" x="290" y="-2073.3" font-family="Times,serif" font-size="14.00"> v36</text>
<text text-anchor="start" x="290" y="-2058.3" font-family="Times,serif" font-size="14.00"> v37</text>
<text text-anchor="start" x="290" y="-2043.3" font-family="Times,serif" font-size="14.00"> v38</text>
<text text-anchor="start" x="290" y="-2028.3" font-family="Times,serif" font-size="14.00"> v39</text>
<text text-anchor="start" x="290" y="-2013.3" font-family="Times,serif" font-size="14.00"> v40</text>
<text text-anchor="start" x="290" y="-1998.3" font-family="Times,serif" font-size="14.00"> v41</text>
<text text-anchor="start" x="290" y="-1983.3" font-family="Times,serif" font-size="14.00"> v42</text>
<text text-anchor="start" x="290" y="-1968.3" font-family="Times,serif" font-size="14.00"> v43</text>
<text text-anchor="start" x="290" y="-1953.3" font-family="Times,serif" font-size="14.00"> v44</text>
<text text-anchor="start" x="290" y="-1938.3" font-family="Times,serif" font-size="14.00"> v45</text>
<text text-anchor="start" x="290" y="-1923.3" font-family="Times,serif" font-size="14.00"> v46</text>
<text text-anchor="start" x="290" y="-1908.3" font-family="Times,serif" font-size="14.00"> v47</text>
<text text-anchor="start" x="290" y="-1893.3" font-family="Times,serif" font-size="14.00"> v48</text>
<text text-anchor="start" x="290" y="-1878.3" font-family="Times,serif" font-size="14.00"> v49</text>
<text text-anchor="start" x="290" y="-1863.3" font-family="Times,serif" font-size="14.00"> v50</text>
<text text-anchor="start" x="290" y="-1848.3" font-family="Times,serif" font-size="14.00"> v51</text>
<text text-anchor="start" x="290" y="-1833.3" font-family="Times,serif" font-size="14.00"> v52</text>
<text text-anchor="start" x="290" y="-1818.3" font-family="Times,serif" font-size="14.00"> v53</text>
<text text-anchor="start" x="290" y="-1803.3" font-family="Times,serif" font-size="14.00"> v54</text>
<text text-anchor="start" x="290" y="-1788.3" font-family="Times,serif" font-size="14.00"> v21 = v22</text>
<text text-anchor="start" x="290" y="-1773.3" font-family="Times,serif" font-size="14.00"> v18 = v19</text>
<text text-anchor="start" x="290" y="-1758.3" font-family="Times,serif" font-size="14.00"> v15 = v16</text>
<text text-anchor="start" x="290" y="-1743.3" font-family="Times,serif" font-size="14.00"> g2 = 4533992</text>
<text text-anchor="start" x="290" y="-1728.3" font-family="Times,serif" font-size="14.00"> __EH_prolog3()</text>
<text text-anchor="start" x="290" y="-1713.3" font-family="Times,serif" font-size="14.00"> v33 = g3</text>
<text text-anchor="start" x="290" y="-1698.3" font-family="Times,serif" font-size="14.00"> v42 = *(IntToPtrCastExpr&lt;ptr&gt;((v33 + 8)))</text>
<text text-anchor="start" x="290" y="-1683.3" font-family="Times,serif" font-size="14.00"> g9 = v42</text>
<text text-anchor="start" x="290" y="-1668.3" font-family="Times,serif" font-size="14.00"> v41 = *(IntToPtrCastExpr&lt;ptr&gt;((v42 + &#45;200)))</text>
<text text-anchor="start" x="290" y="-1653.3" font-family="Times,serif" font-size="14.00"> g5 = (v33 + &#45;20)</text>
<text text-anchor="start" x="290" y="-1638.3" font-family="Times,serif" font-size="14.00"> function_419fad(IntToPtrCastExpr&lt;ptr&gt;(v41), IntToPtrCastExpr&lt;ptr&gt;(8))</text>
<text text-anchor="start" x="290" y="-1623.3" font-family="Times,serif" font-size="14.00"> v34 = g3</text>
<text text-anchor="start" x="290" y="-1608.3" font-family="Times,serif" font-size="14.00"> v43 = *(IntToPtrCastExpr&lt;ptr&gt;((v34 + 20)))</text>
<text text-anchor="start" x="290" y="-1593.3" font-family="Times,serif" font-size="14.00"> v15 = v43</text>
<text text-anchor="start" x="290" y="-1578.3" font-family="Times,serif" font-size="14.00"> g4 = 0</text>
<text text-anchor="start" x="290" y="-1563.3" font-family="Times,serif" font-size="14.00"> v44 = *(IntToPtrCastExpr&lt;ptr&gt;((v34 + 16)))</text>
<text text-anchor="start" x="290" y="-1548.3" font-family="Times,serif" font-size="14.00"> v28 = g9</text>
<text text-anchor="start" x="290" y="-1533.3" font-family="Times,serif" font-size="14.00"> g5 = v28</text>
<text text-anchor="start" x="290" y="-1518.3" font-family="Times,serif" font-size="14.00"> v45 = *(IntToPtrCastExpr&lt;ptr&gt;((v34 + 12)))</text>
<text text-anchor="start" x="290" y="-1503.3" font-family="Times,serif" font-size="14.00"> v18 = v45</text>
<text text-anchor="start" x="290" y="-1488.3" font-family="Times,serif" font-size="14.00"> g10 = PtrToIntCastExpr&lt;int32&gt;(&amp;(v18))</text>
<text text-anchor="start" x="290" y="-1473.3" font-family="Times,serif" font-size="14.00"> *(IntToPtrCastExpr&lt;ptr&gt;((v34 + &#45;4))) = 0</text>
<text text-anchor="start" x="290" y="-1458.3" font-family="Times,serif" font-size="14.00"> v1 = v18</text>
<text text-anchor="start" x="290" y="-1443.3" font-family="Times,serif" font-size="14.00"> function_41f7c1(TruncCastExpr&lt;int8&gt;(v1), v44, &amp;(v15), 7, v41, 8, 0)</text>
<text text-anchor="start" x="290" y="-1428.3" font-family="Times,serif" font-size="14.00"> g7 = 0</text>
<text text-anchor="start" x="290" y="-1413.3" font-family="Times,serif" font-size="14.00"> v31 = g4</text>
</g>
<!-- Node0xf879580&#45;&gt;Node0xf87b640 -->
<g id="edge1" class="edge"><title>Node0xf879580&#45;&gt;Node0xf87b640</title>
<path fill="none" stroke="black" d="M562,-2666.33C562,-2659.07 562,-2649.8 562,-2638.82"/>
<polygon fill="black" stroke="black" points="565.5,-2638.75 562,-2628.75 558.5,-2638.75 565.5,-2638.75"/>
</g>
<!-- Node0xf87cd20 -->
<g id="node3" class="node"><title>Node0xf87cd20</title>
<polygon fill="none" stroke="black" points="511,-1329.5 511,-1367.5 613,-1367.5 613,-1329.5 511,-1329.5"/>
<text text-anchor="start" x="519" y="-1352.3" font-family="Times,serif" font-size="14.00">if (v31 &gt; 0):</text>
<text text-anchor="start" x="519" y="-1337.3" font-family="Times,serif" font-size="14.00"> else:</text>
</g>
<!-- Node0xf87b640&#45;&gt;Node0xf87cd20 -->
<g id="edge2" class="edge"><title>Node0xf87b640&#45;&gt;Node0xf87cd20</title>
<path fill="none" stroke="black" d="M562,-1405.46C562,-1394.93 562,-1385.65 562,-1377.82"/>
<polygon fill="black" stroke="black" points="565.5,-1377.75 562,-1367.75 558.5,-1377.75 565.5,-1377.75"/>
</g>
<!-- Node0xf87a930 -->
<g id="node4" class="node"><title>Node0xf87a930</title>
<polygon fill="none" stroke="black" points="167,-1179.5 167,-1277.5 517,-1277.5 517,-1179.5 167,-1179.5"/>
<text text-anchor="start" x="175" y="-1262.3" font-family="Times,serif" font-size="14.00">0x4200ce:</text>
<text text-anchor="start" x="175" y="-1247.3" font-family="Times,serif" font-size="14.00"> v35 = g3</text>
<text text-anchor="start" x="175" y="-1232.3" font-family="Times,serif" font-size="14.00"> *(IntToPtrCastExpr&lt;ptr&gt;((v35 + &#45;4))) = &#45;1</text>
<text text-anchor="start" x="175" y="-1217.3" font-family="Times,serif" font-size="14.00"> v36 = g3</text>
<text text-anchor="start" x="175" y="-1202.3" font-family="Times,serif" font-size="14.00"> v46 = *(IntToPtrCastExpr&lt;ptr&gt;((v36 + &#45;16)))</text>
<text text-anchor="start" x="175" y="-1187.3" font-family="Times,serif" font-size="14.00"> v51 = g4</text>
</g>
<!-- Node0xf87cd20&#45;&gt;Node0xf87a930 -->
<g id="edge3" class="edge"><title>Node0xf87cd20&#45;&gt;Node0xf87a930</title>
<path fill="none" stroke="black" d="M528.107,-1329.32C504.53,-1316.68 471.804,-1299.12 440.36,-1282.26"/>
<polygon fill="black" stroke="black" points="442.001,-1279.17 431.534,-1277.52 438.693,-1285.33 442.001,-1279.17"/>
<text text-anchor="middle" x="518.5" y="-1299.8" font-family="Times,serif" font-size="14.00">v31 &gt; 0</text>
</g>
<!-- Node0xf87d9f0 -->
<g id="node5" class="node"><title>Node0xf87d9f0</title>
<polygon fill="none" stroke="black" points="535,-1194.5 535,-1262.5 885,-1262.5 885,-1194.5 535,-1194.5"/>
<text text-anchor="start" x="543" y="-1247.3" font-family="Times,serif" font-size="14.00">0x4200e4:</text>
<text text-anchor="start" x="543" y="-1232.3" font-family="Times,serif" font-size="14.00"> v37 = g9</text>
<text text-anchor="start" x="543" y="-1217.3" font-family="Times,serif" font-size="14.00"> v47 = *(IntToPtrCastExpr&lt;ptr&gt;((v37 + &#45;84)))</text>
<text text-anchor="start" x="543" y="-1202.3" font-family="Times,serif" font-size="14.00"> g9 = v47</text>
</g>
<!-- Node0xf87cd20&#45;&gt;Node0xf87d9f0 -->
<g id="edge4" class="edge"><title>Node0xf87cd20&#45;&gt;Node0xf87d9f0</title>
<path fill="none" stroke="black" d="M584.801,-1329.32C604.848,-1313.34 634.729,-1289.51 660.271,-1269.15"/>
<polygon fill="black" stroke="black" points="662.757,-1271.64 668.394,-1262.67 658.393,-1266.17 662.757,-1271.64"/>
<text text-anchor="middle" x="656.5" y="-1299.8" font-family="Times,serif" font-size="14.00">v31 &lt;= 0</text>
</g>
<!-- Node0xf87ab30 -->
<g id="node6" class="node"><title>Node0xf87ab30</title>
<polygon fill="none" stroke="black" points="279.5,-1105.5 279.5,-1141.5 404.5,-1141.5 404.5,-1105.5 279.5,-1105.5"/>
<text text-anchor="start" x="287.5" y="-1119.8" font-family="Times,serif" font-size="14.00">if (v46 != v51):</text>
</g>
<!-- Node0xf87a930&#45;&gt;Node0xf87ab30 -->
<g id="edge5" class="edge"><title>Node0xf87a930&#45;&gt;Node0xf87ab30</title>
<path fill="none" stroke="black" d="M342,-1179.32C342,-1169.89 342,-1160.32 342,-1151.87"/>
<polygon fill="black" stroke="black" points="345.5,-1151.86 342,-1141.86 338.5,-1151.86 345.5,-1151.86"/>
</g>
<!-- Node0xa7779a0 -->
<g id="node7" class="node"><title>Node0xa7779a0</title>
<polygon fill="none" stroke="black" points="647.5,-1105.5 647.5,-1141.5 772.5,-1141.5 772.5,-1105.5 647.5,-1105.5"/>
<text text-anchor="start" x="655.5" y="-1119.8" font-family="Times,serif" font-size="14.00">if (v47 != v31):</text>
</g>
<!-- Node0xf87d9f0&#45;&gt;Node0xa7779a0 -->
<g id="edge6" class="edge"><title>Node0xf87d9f0&#45;&gt;Node0xa7779a0</title>
<path fill="none" stroke="black" d="M710,-1194.34C710,-1180.65 710,-1164.97 710,-1151.94"/>
<polygon fill="black" stroke="black" points="713.5,-1151.72 710,-1141.72 706.5,-1151.72 713.5,-1151.72"/>
</g>
<!-- Node0xa777690 -->
<g id="node8" class="node"><title>Node0xa777690</title>
<polygon fill="none" stroke="black" points="0,-985.5 0,-1053.5 318,-1053.5 318,-985.5 0,-985.5"/>
<text text-anchor="start" x="8" y="-1038.3" font-family="Times,serif" font-size="14.00">0x4200d7:</text>
<text text-anchor="start" x="8" y="-1023.3" font-family="Times,serif" font-size="14.00"> v21 = v51</text>
<text text-anchor="start" x="8" y="-1008.3" font-family="Times,serif" font-size="14.00"> g10 = PtrToIntCastExpr&lt;int32&gt;(&amp;(v21))</text>
<text text-anchor="start" x="8" y="-993.3" font-family="Times,serif" font-size="14.00"> function_419779()</text>
</g>
<!-- Node0xf87ab30&#45;&gt;Node0xa777690 -->
<g id="edge7" class="edge"><title>Node0xf87ab30&#45;&gt;Node0xa777690</title>
<path fill="none" stroke="black" d="M298.773,-1105.45C286.064,-1100 272.283,-1093.64 260,-1087 244.637,-1078.7 228.596,-1068.77 213.938,-1059.15"/>
<polygon fill="black" stroke="black" points="215.75,-1056.15 205.483,-1053.54 211.878,-1061.98 215.75,-1056.15"/>
<text text-anchor="middle" x="300" y="-1075.8" font-family="Times,serif" font-size="14.00">v46 != v51</text>
</g>
<!-- Node0xf87d6f0 -->
<g id="node9" class="node"><title>Node0xf87d6f0</title>
<polygon fill="none" stroke="black" points="191,-894.5 191,-947.5 301,-947.5 301,-894.5 191,-894.5"/>
<text text-anchor="start" x="199" y="-932.3" font-family="Times,serif" font-size="14.00">0x4200e0:</text>
<text text-anchor="start" x="199" y="-917.3" font-family="Times,serif" font-size="14.00"> v29 = g7</text>
<text text-anchor="start" x="199" y="-902.3" font-family="Times,serif" font-size="14.00"> result = v29</text>
</g>
<!-- Node0xf87ab30&#45;&gt;Node0xf87d6f0 -->
<g id="edge8" class="edge"><title>Node0xf87ab30&#45;&gt;Node0xf87d6f0</title>
<path fill="none" stroke="black" d="M344.352,-1105.49C347.27,-1078.08 349.421,-1023.35 327,-985 320.122,-973.234 310.121,-962.875 299.478,-954.132"/>
<polygon fill="black" stroke="black" points="301.305,-951.12 291.256,-947.764 297.019,-956.654 301.305,-951.12"/>
<text text-anchor="middle" x="389" y="-1015.8" font-family="Times,serif" font-size="14.00">v46 == v51</text>
</g>
<!-- Node0xf87e9b0 -->
<g id="node10" class="node"><title>Node0xf87e9b0</title>
<polygon fill="none" stroke="black" points="469,-993 469,-1046 815,-1046 815,-993 469,-993"/>
<text text-anchor="start" x="477" y="-1030.8" font-family="Times,serif" font-size="14.00">0x4200eb:</text>
<text text-anchor="start" x="477" y="-1015.8" font-family="Times,serif" font-size="14.00"> v38 = g3</text>
<text text-anchor="start" x="477" y="-1000.8" font-family="Times,serif" font-size="14.00"> v52 = *(IntToPtrCastExpr&lt;ptr&gt;((v38 + 12)))</text>
</g>
<!-- Node0xa7779a0&#45;&gt;Node0xf87e9b0 -->
<g id="edge9" class="edge"><title>Node0xa7779a0&#45;&gt;Node0xf87e9b0</title>
<path fill="none" stroke="black" d="M698.465,-1105.2C689.301,-1091.45 676.196,-1071.79 664.918,-1054.88"/>
<polygon fill="black" stroke="black" points="667.676,-1052.7 659.217,-1046.33 661.852,-1056.59 667.676,-1052.7"/>
<text text-anchor="middle" x="726" y="-1075.8" font-family="Times,serif" font-size="14.00">v47 != v31</text>
</g>
<!-- Node0xf87a570 -->
<g id="node11" class="node"><title>Node0xf87a570</title>
<polygon fill="none" stroke="black" points="446,-458.5 446,-556.5 796,-556.5 796,-458.5 446,-458.5"/>
<text text-anchor="start" x="454" y="-541.3" font-family="Times,serif" font-size="14.00">0x42010c:</text>
<text text-anchor="start" x="454" y="-526.3" font-family="Times,serif" font-size="14.00"> v39 = g3</text>
<text text-anchor="start" x="454" y="-511.3" font-family="Times,serif" font-size="14.00"> *(IntToPtrCastExpr&lt;ptr&gt;((v39 + &#45;4))) = &#45;1</text>
<text text-anchor="start" x="454" y="-496.3" font-family="Times,serif" font-size="14.00"> v40 = g3</text>
<text text-anchor="start" x="454" y="-481.3" font-family="Times,serif" font-size="14.00"> v50 = *(IntToPtrCastExpr&lt;ptr&gt;((v40 + &#45;16)))</text>
<text text-anchor="start" x="454" y="-466.3" font-family="Times,serif" font-size="14.00"> v53 = g4</text>
</g>
<!-- Node0xa7779a0&#45;&gt;Node0xf87a570 -->
<g id="edge10" class="edge"><title>Node0xa7779a0&#45;&gt;Node0xf87a570</title>
<path fill="none" stroke="black" d="M772.672,-1107.26C814.925,-1092.81 863,-1066.31 863,-1020.5 863,-1020.5 863,-1020.5 863,-717.5 863,-661.965 878.862,-637.229 844,-594 833.066,-580.442 819.717,-569.032 805.039,-559.429"/>
<polygon fill="black" stroke="black" points="806.594,-556.276 796.251,-553.981 802.906,-562.225 806.594,-556.276"/>
<text text-anchor="middle" x="906" y="-917.3" font-family="Times,serif" font-size="14.00">v47 == v31</text>
</g>
<!-- Node0xa777690&#45;&gt;Node0xf87d6f0 -->
<g id="edge11" class="edge"><title>Node0xa777690&#45;&gt;Node0xf87d6f0</title>
<path fill="none" stroke="black" d="M188.94,-985.29C197.706,-975.568 207.287,-964.94 216.053,-955.217"/>
<polygon fill="black" stroke="black" points="218.78,-957.419 222.877,-947.648 213.581,-952.732 218.78,-957.419"/>
</g>
<!-- Node0xf87b6f0 -->
<g id="node12" class="node"><title>Node0xf87b6f0</title>
<polygon fill="none" stroke="black" points="234,-97.5 234,-150.5 364,-150.5 364,-97.5 234,-97.5"/>
<text text-anchor="start" x="242" y="-135.3" font-family="Times,serif" font-size="14.00">0x420120:</text>
<text text-anchor="start" x="242" y="-120.3" font-family="Times,serif" font-size="14.00"> __EH_epilog3()</text>
<text text-anchor="start" x="242" y="-105.3" font-family="Times,serif" font-size="14.00"> return result</text>
</g>
<!-- Node0xf87d6f0&#45;&gt;Node0xf87b6f0 -->
<g id="edge12" class="edge"><title>Node0xf87d6f0&#45;&gt;Node0xf87b6f0</title>
<path fill="none" stroke="black" d="M246,-894.363C246,-856.236 246,-782.33 246,-719.5 246,-719.5 246,-719.5 246,-206.5 246,-189.029 254.666,-172.361 264.989,-158.704"/>
<polygon fill="black" stroke="black" points="267.977,-160.576 271.569,-150.609 262.545,-156.161 267.977,-160.576"/>
</g>
<!-- Node0xf87ea50 -->
<g id="node13" class="node"><title>Node0xf87ea50</title>
<polygon fill="none" stroke="black" points="555.5,-903 555.5,-939 686.5,-939 686.5,-903 555.5,-903"/>
<text text-anchor="start" x="563.5" y="-917.3" font-family="Times,serif" font-size="14.00">if (v52 != &#45;128):</text>
</g>
<!-- Node0xf87e9b0&#45;&gt;Node0xf87ea50 -->
<g id="edge13" class="edge"><title>Node0xf87e9b0&#45;&gt;Node0xf87ea50</title>
<path fill="none" stroke="black" d="M636.428,-992.893C633.484,-979.367 629.872,-962.77 626.883,-949.036"/>
<polygon fill="black" stroke="black" points="630.287,-948.217 624.741,-939.19 623.447,-949.705 630.287,-948.217"/>
</g>
<!-- Node0xf87a5d0 -->
<g id="node14" class="node"><title>Node0xf87a5d0</title>
<polygon fill="none" stroke="black" points="558.5,-384.5 558.5,-420.5 683.5,-420.5 683.5,-384.5 558.5,-384.5"/>
<text text-anchor="start" x="566.5" y="-398.8" font-family="Times,serif" font-size="14.00">if (v50 != v53):</text>
</g>
<!-- Node0xf87a570&#45;&gt;Node0xf87a5d0 -->
<g id="edge14" class="edge"><title>Node0xf87a570&#45;&gt;Node0xf87a5d0</title>
<path fill="none" stroke="black" d="M621,-458.317C621,-448.893 621,-439.32 621,-430.868"/>
<polygon fill="black" stroke="black" points="624.5,-430.856 621,-420.856 617.5,-430.856 624.5,-430.856"/>
</g>
<!-- Node0xf87b5e0 -->
<g id="node15" class="node"><title>Node0xf87b5e0</title>
<polygon fill="none" stroke="black" points="272,-23.5 272,-59.5 326,-59.5 326,-23.5 272,-23.5"/>
<text text-anchor="start" x="280" y="-37.8" font-family="Times,serif" font-size="14.00">exit:</text>
</g>
<!-- Node0xf87b6f0&#45;&gt;Node0xf87b5e0 -->
<g id="edge15" class="edge"><title>Node0xf87b6f0&#45;&gt;Node0xf87b5e0</title>
<path fill="none" stroke="black" d="M299,-97.0862C299,-88.4596 299,-78.8224 299,-70.0748"/>
<polygon fill="black" stroke="black" points="302.5,-69.9735 299,-59.9735 295.5,-69.9735 302.5,-69.9735"/>
</g>
<!-- Node0xf87ea50&#45;&gt;Node0xf87a570 -->
<g id="edge17" class="edge"><title>Node0xf87ea50&#45;&gt;Node0xf87a570</title>
<path fill="none" stroke="black" d="M555.335,-913.315C472.527,-903.374 337.268,-881.588 307,-843 272.849,-799.463 273.404,-637.967 307,-594 324.47,-571.137 377.747,-552.932 435.572,-539.297"/>
<polygon fill="black" stroke="black" points="436.688,-542.632 445.647,-536.977 435.117,-535.811 436.688,-542.632"/>
<text text-anchor="middle" x="352.5" y="-714.8" font-family="Times,serif" font-size="14.00">v52 == &#45;128</text>
</g>
<!-- Node0xf87d750 -->
<g id="node16" class="node"><title>Node0xf87d750</title>
<polygon fill="none" stroke="black" points="407.5,-594.5 407.5,-842.5 834.5,-842.5 834.5,-594.5 407.5,-594.5"/>
<text text-anchor="start" x="415.5" y="-827.3" font-family="Times,serif" font-size="14.00">0x4200f1:</text>
<text text-anchor="start" x="415.5" y="-812.3" font-family="Times,serif" font-size="14.00"> v6 = IntToPtrCastExpr&lt;ptr&gt;((v47 + 68))</text>
<text text-anchor="start" x="415.5" y="-797.3" font-family="Times,serif" font-size="14.00"> v48 = *(v6)</text>
<text text-anchor="start" x="415.5" y="-782.3" font-family="Times,serif" font-size="14.00"> g7 = v48</text>
<text text-anchor="start" x="415.5" y="-767.3" font-family="Times,serif" font-size="14.00"> g5 = v47</text>
<text text-anchor="start" x="415.5" y="-752.3" font-family="Times,serif" font-size="14.00"> *(v6) = 1</text>
<text text-anchor="start" x="415.5" y="-737.3" font-family="Times,serif" font-size="14.00"> v2 = v18</text>
<text text-anchor="start" x="415.5" y="-722.3" font-family="Times,serif" font-size="14.00"> v3 = v15</text>
<text text-anchor="start" x="415.5" y="-707.3" font-family="Times,serif" font-size="14.00"> function_41fcee(v2, v44, v3, IntToPtrCastExpr&lt;ptr&gt;(7))</text>
<text text-anchor="start" x="415.5" y="-692.3" font-family="Times,serif" font-size="14.00"> v30 = g9</text>
<text text-anchor="start" x="415.5" y="-677.3" font-family="Times,serif" font-size="14.00"> v32 = *(IntToPtrCastExpr&lt;ptr&gt;(v30))</text>
<text text-anchor="start" x="415.5" y="-662.3" font-family="Times,serif" font-size="14.00"> g5 = v30</text>
<text text-anchor="start" x="415.5" y="-647.3" font-family="Times,serif" font-size="14.00"> v49 = g7</text>
<text text-anchor="start" x="415.5" y="-632.3" font-family="Times,serif" font-size="14.00"> *(IntToPtrCastExpr&lt;ptr&gt;((v30 + 68))) = v49</text>
<text text-anchor="start" x="415.5" y="-617.3" font-family="Times,serif" font-size="14.00"> v54 = *(IntToPtrCastExpr&lt;ptr&gt;((v32 + 16)))</text>
<text text-anchor="start" x="415.5" y="-602.3" font-family="Times,serif" font-size="14.00"> IntToPtrCastExpr&lt;ptr&gt;(v54)()</text>
</g>
<!-- Node0xf87ea50&#45;&gt;Node0xf87d750 -->
<g id="edge16" class="edge"><title>Node0xf87ea50&#45;&gt;Node0xf87d750</title>
<path fill="none" stroke="black" d="M621,-902.905C621,-890.591 621,-872.703 621,-852.865"/>
<polygon fill="black" stroke="black" points="624.5,-852.661 621,-842.661 617.5,-852.661 624.5,-852.661"/>
<text text-anchor="middle" x="663.5" y="-864.8" font-family="Times,serif" font-size="14.00">v52 != &#45;128</text>
</g>
<!-- Node0xf87ed80 -->
<g id="node17" class="node"><title>Node0xf87ed80</title>
<polygon fill="none" stroke="black" points="274,-264.5 274,-332.5 592,-332.5 592,-264.5 274,-264.5"/>
<text text-anchor="start" x="282" y="-317.3" font-family="Times,serif" font-size="14.00">0x420115:</text>
<text text-anchor="start" x="282" y="-302.3" font-family="Times,serif" font-size="14.00"> v21 = v53</text>
<text text-anchor="start" x="282" y="-287.3" font-family="Times,serif" font-size="14.00"> g10 = PtrToIntCastExpr&lt;int32&gt;(&amp;(v21))</text>
<text text-anchor="start" x="282" y="-272.3" font-family="Times,serif" font-size="14.00"> function_419779()</text>
</g>
<!-- Node0xf87a5d0&#45;&gt;Node0xf87ed80 -->
<g id="edge18" class="edge"><title>Node0xf87a5d0&#45;&gt;Node0xf87ed80</title>
<path fill="none" stroke="black" d="M574.183,-384.345C560.95,-378.976 546.701,-372.691 534,-366 518.473,-357.821 502.317,-347.892 487.598,-338.229"/>
<polygon fill="black" stroke="black" points="489.378,-335.21 479.114,-332.586 485.502,-341.038 489.378,-335.21"/>
<text text-anchor="middle" x="574" y="-354.8" font-family="Times,serif" font-size="14.00">v50 != v53</text>
</g>
<!-- Node0xf87a700 -->
<g id="node18" class="node"><title>Node0xf87a700</title>
<polygon fill="none" stroke="black" points="386.5,-188.5 386.5,-226.5 479.5,-226.5 479.5,-188.5 386.5,-188.5"/>
<text text-anchor="start" x="394.5" y="-211.3" font-family="Times,serif" font-size="14.00">0x42011e:</text>
<text text-anchor="start" x="394.5" y="-196.3" font-family="Times,serif" font-size="14.00"> result = 0</text>
</g>
<!-- Node0xf87a5d0&#45;&gt;Node0xf87a700 -->
<g id="edge19" class="edge"><title>Node0xf87a5d0&#45;&gt;Node0xf87a700</title>
<path fill="none" stroke="black" d="M623.758,-384.437C627.338,-355.966 630.061,-298.501 601,-264 573.686,-231.574 526.99,-217.98 489.751,-212.337"/>
<polygon fill="black" stroke="black" points="489.903,-208.826 479.522,-210.948 488.96,-215.762 489.903,-208.826"/>
<text text-anchor="middle" x="668" y="-294.8" font-family="Times,serif" font-size="14.00">v50 == v53</text>
</g>
<!-- Node0xf87d750&#45;&gt;Node0xf87a570 -->
<g id="edge20" class="edge"><title>Node0xf87d750&#45;&gt;Node0xf87a570</title>
<path fill="none" stroke="black" d="M621,-594.413C621,-584.859 621,-575.519 621,-566.727"/>
<polygon fill="black" stroke="black" points="624.5,-566.677 621,-556.677 617.5,-566.677 624.5,-566.677"/>
</g>
<!-- Node0xf87ed80&#45;&gt;Node0xf87a700 -->
<g id="edge21" class="edge"><title>Node0xf87ed80&#45;&gt;Node0xf87a700</title>
<path fill="none" stroke="black" d="M433,-264.36C433,-255.365 433,-245.707 433,-236.993"/>
<polygon fill="black" stroke="black" points="436.5,-236.941 433,-226.941 429.5,-236.941 436.5,-236.941"/>
</g>
<!-- Node0xf87a700&#45;&gt;Node0xf87b6f0 -->
<g id="edge22" class="edge"><title>Node0xf87a700&#45;&gt;Node0xf87b6f0</title>
<path fill="none" stroke="black" d="M403.261,-188.413C387.557,-178.861 367.849,-166.874 349.807,-155.901"/>
<polygon fill="black" stroke="black" points="351.471,-152.817 341.108,-150.611 347.833,-158.797 351.471,-152.817"/>
</g>
</g>
</svg>
