<?xml version="1.0" encoding="UTF-8" standalone="no"?>
<!DOCTYPE svg PUBLIC "-//W3C//DTD SVG 1.1//EN"
 "http://www.w3.org/Graphics/SVG/1.1/DTD/svg11.dtd">
<!-- Generated by graphviz version 2.38.0 (20140413.2041)
 -->
<!-- Title: Control&#45;flow graph for function &#39;function_4138bc(a1)&#39;. Pages: 1 -->
<svg width="697pt" height="852pt"
 viewBox="0.00 0.00 696.50 852.00" xmlns="http://www.w3.org/2000/svg" xmlns:xlink="http://www.w3.org/1999/xlink">
<g id="graph0" class="graph" transform="scale(1 1) rotate(0) translate(4 848)">
<title>Control&#45;flow graph for function &#39;function_4138bc(a1)&#39;.</title>
<polygon fill="white" stroke="none" points="-4,4 -4,-848 692.5,-848 692.5,4 -4,4"/>
<text text-anchor="middle" x="344.25" y="-7.8" font-family="Times,serif" font-size="14.00">Control&#45;flow graph for function &#39;function_4138bc(a1)&#39;.</text>
<!-- Node0xf335f90 -->
<g id="node1" class="node"><title>Node0xf335f90</title>
<polygon fill="none" stroke="black" points="435.5,-805.5 435.5,-843.5 494.5,-843.5 494.5,-805.5 435.5,-805.5"/>
<text text-anchor="start" x="443.5" y="-828.3" font-family="Times,serif" font-size="14.00">entry:</text>
<text text-anchor="start" x="443.5" y="-813.3" font-family="Times,serif" font-size="14.00"> a1</text>
</g>
<!-- Node0x7fabc60 -->
<g id="node2" class="node"><title>Node0x7fabc60</title>
<polygon fill="none" stroke="black" points="370,-459.5 370,-767.5 560,-767.5 560,-459.5 370,-459.5"/>
<text text-anchor="start" x="378" y="-752.3" font-family="Times,serif" font-size="14.00">v1</text>
<text text-anchor="start" x="378" y="-737.3" font-family="Times,serif" font-size="14.00"> v2</text>
<text text-anchor="start" x="378" y="-722.3" font-family="Times,serif" font-size="14.00"> v3</text>
<text text-anchor="start" x="378" y="-707.3" font-family="Times,serif" font-size="14.00"> result</text>
<text text-anchor="start" x="378" y="-692.3" font-family="Times,serif" font-size="14.00"> v4</text>
<text text-anchor="start" x="378" y="-677.3" font-family="Times,serif" font-size="14.00"> v5</text>
<text text-anchor="start" x="378" y="-662.3" font-family="Times,serif" font-size="14.00"> v6</text>
<text text-anchor="start" x="378" y="-647.3" font-family="Times,serif" font-size="14.00"> v7</text>
<text text-anchor="start" x="378" y="-632.3" font-family="Times,serif" font-size="14.00"> v8</text>
<text text-anchor="start" x="378" y="-617.3" font-family="Times,serif" font-size="14.00"> v9</text>
<text text-anchor="start" x="378" y="-602.3" font-family="Times,serif" font-size="14.00"> v10</text>
<text text-anchor="start" x="378" y="-587.3" font-family="Times,serif" font-size="14.00"> v11</text>
<text text-anchor="start" x="378" y="-572.3" font-family="Times,serif" font-size="14.00"> v12</text>
<text text-anchor="start" x="378" y="-557.3" font-family="Times,serif" font-size="14.00"> v13</text>
<text text-anchor="start" x="378" y="-542.3" font-family="Times,serif" font-size="14.00"> v14</text>
<text text-anchor="start" x="378" y="-527.3" font-family="Times,serif" font-size="14.00"> v4 = v5</text>
<text text-anchor="start" x="378" y="-512.3" font-family="Times,serif" font-size="14.00"> v8 = 1</text>
<text text-anchor="start" x="378" y="-497.3" font-family="Times,serif" font-size="14.00"> v11 = g5</text>
<text text-anchor="start" x="378" y="-482.3" font-family="Times,serif" font-size="14.00"> g9 = v11</text>
<text text-anchor="start" x="378" y="-467.3" font-family="Times,serif" font-size="14.00"> v2 = function_40e7b4()</text>
</g>
<!-- Node0xf335f90&#45;&gt;Node0x7fabc60 -->
<g id="edge1" class="edge"><title>Node0xf335f90&#45;&gt;Node0x7fabc60</title>
<path fill="none" stroke="black" d="M465,-805.318C465,-797.867 465,-788.501 465,-777.943"/>
<polygon fill="black" stroke="black" points="468.5,-777.931 465,-767.931 461.5,-777.931 468.5,-777.931"/>
</g>
<!-- Node0xf33a5c0 -->
<g id="node3" class="node"><title>Node0xf33a5c0</title>
<polygon fill="none" stroke="black" points="415.5,-383.5 415.5,-421.5 514.5,-421.5 514.5,-383.5 415.5,-383.5"/>
<text text-anchor="start" x="423.5" y="-406.3" font-family="Times,serif" font-size="14.00">if (v2 != 0):</text>
<text text-anchor="start" x="423.5" y="-391.3" font-family="Times,serif" font-size="14.00"> else:</text>
</g>
<!-- Node0x7fabc60&#45;&gt;Node0xf33a5c0 -->
<g id="edge2" class="edge"><title>Node0x7fabc60&#45;&gt;Node0xf33a5c0</title>
<path fill="none" stroke="black" d="M465,-459.234C465,-449.177 465,-439.898 465,-431.912"/>
<polygon fill="black" stroke="black" points="468.5,-431.874 465,-421.874 461.5,-431.874 468.5,-431.874"/>
</g>
<!-- Node0xf33a1e0 -->
<g id="node4" class="node"><title>Node0xf33a1e0</title>
<polygon fill="none" stroke="black" points="-5.68434e-14,-188.5 -5.68434e-14,-331.5 578,-331.5 578,-188.5 -5.68434e-14,-188.5"/>
<text text-anchor="start" x="8" y="-316.3" font-family="Times,serif" font-size="14.00">0x4138ca:</text>
<text text-anchor="start" x="8" y="-301.3" font-family="Times,serif" font-size="14.00"> v4 = IntToPtrCastExpr&lt;ptr&gt;(1)</text>
<text text-anchor="start" x="8" y="-286.3" font-family="Times,serif" font-size="14.00"> v12 = g9</text>
<text text-anchor="start" x="8" y="-271.3" font-family="Times,serif" font-size="14.00"> g5 = v12</text>
<text text-anchor="start" x="8" y="-256.3" font-family="Times,serif" font-size="14.00"> v3 = function_413896(IntToPtrCastExpr&lt;ptr&gt;(1), BitCastExpr&lt;ptr&gt;(&amp;(v8)))</text>
<text text-anchor="start" x="8" y="-241.3" font-family="Times,serif" font-size="14.00"> v1 = ExtCastExpr&lt;int32&gt;(v3)</text>
<text text-anchor="start" x="8" y="-226.3" font-family="Times,serif" font-size="14.00"> v14 = v4</text>
<text text-anchor="start" x="8" y="-211.3" font-family="Times,serif" font-size="14.00"> v13 = v14</text>
<text text-anchor="start" x="8" y="-196.3" font-family="Times,serif" font-size="14.00"> result = v1</text>
</g>
<!-- Node0xf33a5c0&#45;&gt;Node0xf33a1e0 -->
<g id="edge3" class="edge"><title>Node0xf33a5c0&#45;&gt;Node0xf33a1e0</title>
<path fill="none" stroke="black" d="M442.351,-383.42C427.385,-371.472 406.641,-354.912 385.242,-337.829"/>
<polygon fill="black" stroke="black" points="387.336,-335.023 377.337,-331.519 382.969,-340.494 387.336,-335.023"/>
<text text-anchor="middle" x="445" y="-353.8" font-family="Times,serif" font-size="14.00">v2 != 0</text>
</g>
<!-- Node0xf33ae30 -->
<g id="node5" class="node"><title>Node0xf33ae30</title>
<polygon fill="none" stroke="black" points="595.5,-241 595.5,-279 688.5,-279 688.5,-241 595.5,-241"/>
<text text-anchor="start" x="603.5" y="-263.8" font-family="Times,serif" font-size="14.00">v13 = v5</text>
<text text-anchor="start" x="603.5" y="-248.8" font-family="Times,serif" font-size="14.00"> result = 0</text>
</g>
<!-- Node0xf33a5c0&#45;&gt;Node0xf33ae30 -->
<g id="edge4" class="edge"><title>Node0xf33a5c0&#45;&gt;Node0xf33ae30</title>
<path fill="none" stroke="black" d="M505.753,-383.362C530.782,-371.044 562.607,-353.17 587,-332 601.725,-319.221 615.188,-301.985 625.108,-287.696"/>
<polygon fill="black" stroke="black" points="628.117,-289.494 630.806,-279.246 622.313,-285.58 628.117,-289.494"/>
<text text-anchor="middle" x="592" y="-353.8" font-family="Times,serif" font-size="14.00">v2 == 0</text>
</g>
<!-- Node0xf33aae0 -->
<g id="node6" class="node"><title>Node0xf33aae0</title>
<polygon fill="none" stroke="black" points="363,-97.5 363,-150.5 649,-150.5 649,-97.5 363,-97.5"/>
<text text-anchor="start" x="371" y="-135.3" font-family="Times,serif" font-size="14.00">0x4138d3:</text>
<text text-anchor="start" x="371" y="-120.3" font-family="Times,serif" font-size="14.00"> g9 = PtrToIntCastExpr&lt;int32&gt;(v13)</text>
<text text-anchor="start" x="371" y="-105.3" font-family="Times,serif" font-size="14.00"> return result</text>
</g>
<!-- Node0xf33a1e0&#45;&gt;Node0xf33aae0 -->
<g id="edge5" class="edge"><title>Node0xf33a1e0&#45;&gt;Node0xf33aae0</title>
<path fill="none" stroke="black" d="M403.219,-188.468C421.656,-177.084 439.871,-165.835 455.729,-156.043"/>
<polygon fill="black" stroke="black" points="457.613,-158.993 464.283,-150.761 453.935,-153.037 457.613,-158.993"/>
</g>
<!-- Node0xf33ae30&#45;&gt;Node0xf33aae0 -->
<g id="edge6" class="edge"><title>Node0xf33ae30&#45;&gt;Node0xf33aae0</title>
<path fill="none" stroke="black" d="M629.808,-240.776C619.351,-225.798 603.412,-204.444 587,-188 576.161,-177.14 563.448,-166.457 551.347,-157.06"/>
<polygon fill="black" stroke="black" points="553.174,-154.052 543.099,-150.774 548.931,-159.619 553.174,-154.052"/>
</g>
<!-- Node0xf33a3b0 -->
<g id="node7" class="node"><title>Node0xf33a3b0</title>
<polygon fill="none" stroke="black" points="479,-23.5 479,-59.5 533,-59.5 533,-23.5 479,-23.5"/>
<text text-anchor="start" x="487" y="-37.8" font-family="Times,serif" font-size="14.00">exit:</text>
</g>
<!-- Node0xf33aae0&#45;&gt;Node0xf33a3b0 -->
<g id="edge7" class="edge"><title>Node0xf33aae0&#45;&gt;Node0xf33a3b0</title>
<path fill="none" stroke="black" d="M506,-97.0862C506,-88.4596 506,-78.8224 506,-70.0748"/>
<polygon fill="black" stroke="black" points="509.5,-69.9735 506,-59.9735 502.5,-69.9735 509.5,-69.9735"/>
</g>
</g>
</svg>
