<?xml version="1.0" encoding="UTF-8" standalone="no"?>
<!DOCTYPE svg PUBLIC "-//W3C//DTD SVG 1.1//EN"
 "http://www.w3.org/Graphics/SVG/1.1/DTD/svg11.dtd">
<!-- Generated by graphviz version 2.38.0 (20140413.2041)
 -->
<!-- Title: Control&#45;flow graph for function &#39;function_4556ee()&#39;. Pages: 1 -->
<svg width="394pt" height="306pt"
 viewBox="0.00 0.00 394.00 306.00" xmlns="http://www.w3.org/2000/svg" xmlns:xlink="http://www.w3.org/1999/xlink">
<g id="graph0" class="graph" transform="scale(1 1) rotate(0) translate(4 302)">
<title>Control&#45;flow graph for function &#39;function_4556ee()&#39;.</title>
<polygon fill="white" stroke="none" points="-4,4 -4,-302 390,-302 390,4 -4,4"/>
<text text-anchor="middle" x="193" y="-7.8" font-family="Times,serif" font-size="14.00">Control&#45;flow graph for function &#39;function_4556ee()&#39;.</text>
<!-- Node0x10214a40 -->
<g id="node1" class="node"><title>Node0x10214a40</title>
<polygon fill="none" stroke="black" points="163.5,-261.5 163.5,-297.5 222.5,-297.5 222.5,-261.5 163.5,-261.5"/>
<text text-anchor="start" x="171.5" y="-275.8" font-family="Times,serif" font-size="14.00">entry:</text>
</g>
<!-- Node0x10214e40 -->
<g id="node2" class="node"><title>Node0x10214e40</title>
<polygon fill="none" stroke="black" points="3,-96.5 3,-224.5 383,-224.5 383,-96.5 3,-96.5"/>
<text text-anchor="start" x="11" y="-209.3" font-family="Times,serif" font-size="14.00">atexit_rc</text>
<text text-anchor="start" x="11" y="-194.3" font-family="Times,serif" font-size="14.00"> v1</text>
<text text-anchor="start" x="11" y="-179.3" font-family="Times,serif" font-size="14.00"> v2</text>
<text text-anchor="start" x="11" y="-164.3" font-family="Times,serif" font-size="14.00"> v3</text>
<text text-anchor="start" x="11" y="-149.3" font-family="Times,serif" font-size="14.00"> v4</text>
<text text-anchor="start" x="11" y="-134.3" font-family="Times,serif" font-size="14.00"> atexit_rc = atexit(function_455904)</text>
<text text-anchor="start" x="11" y="-119.3" font-family="Times,serif" font-size="14.00"> g5 = PtrToIntCastExpr&lt;int32&gt;(function_455904)</text>
<text text-anchor="start" x="11" y="-104.3" font-family="Times,serif" font-size="14.00"> return atexit_rc</text>
</g>
<!-- Node0x10214a40&#45;&gt;Node0x10214e40 -->
<g id="edge1" class="edge"><title>Node0x10214a40&#45;&gt;Node0x10214e40</title>
<path fill="none" stroke="black" d="M193,-261.487C193,-254.024 193,-244.706 193,-234.78"/>
<polygon fill="black" stroke="black" points="196.5,-234.697 193,-224.697 189.5,-234.697 196.5,-234.697"/>
</g>
<!-- Node0x102149c0 -->
<g id="node3" class="node"><title>Node0x102149c0</title>
<polygon fill="none" stroke="black" points="166,-23.5 166,-59.5 220,-59.5 220,-23.5 166,-23.5"/>
<text text-anchor="start" x="174" y="-37.8" font-family="Times,serif" font-size="14.00">exit:</text>
</g>
<!-- Node0x10214e40&#45;&gt;Node0x102149c0 -->
<g id="edge2" class="edge"><title>Node0x10214e40&#45;&gt;Node0x102149c0</title>
<path fill="none" stroke="black" d="M193,-96.206C193,-87.0257 193,-78.004 193,-70.0532"/>
<polygon fill="black" stroke="black" points="196.5,-69.9607 193,-59.9608 189.5,-69.9608 196.5,-69.9607"/>
</g>
</g>
</svg>
