<?xml version="1.0" encoding="UTF-8" standalone="no"?>
<!DOCTYPE svg PUBLIC "-//W3C//DTD SVG 1.1//EN"
 "http://www.w3.org/Graphics/SVG/1.1/DTD/svg11.dtd">
<!-- Generated by graphviz version 2.38.0 (20140413.2041)
 -->
<!-- Title: Control&#45;flow graph for function &#39;entry_point()&#39;. Pages: 1 -->
<svg width="357pt" height="531pt"
 viewBox="0.00 0.00 357.00 531.00" xmlns="http://www.w3.org/2000/svg" xmlns:xlink="http://www.w3.org/1999/xlink">
<g id="graph0" class="graph" transform="scale(1 1) rotate(0) translate(4 527)">
<title>Control&#45;flow graph for function &#39;entry_point()&#39;.</title>
<polygon fill="white" stroke="none" points="-4,4 -4,-527 353,-527 353,4 -4,4"/>
<text text-anchor="middle" x="174.5" y="-7.8" font-family="Times,serif" font-size="14.00">Control&#45;flow graph for function &#39;entry_point()&#39;.</text>
<!-- Node0x1015b5c0 -->
<g id="node1" class="node"><title>Node0x1015b5c0</title>
<polygon fill="none" stroke="black" points="145,-486.5 145,-522.5 204,-522.5 204,-486.5 145,-486.5"/>
<text text-anchor="start" x="153" y="-500.8" font-family="Times,serif" font-size="14.00">entry:</text>
</g>
<!-- Node0x1015f8b0 -->
<g id="node2" class="node"><title>Node0x1015f8b0</title>
<polygon fill="none" stroke="black" points="75.5,-96.5 75.5,-449.5 273.5,-449.5 273.5,-96.5 75.5,-96.5"/>
<text text-anchor="start" x="83.5" y="-434.3" font-family="Times,serif" font-size="14.00">v1</text>
<text text-anchor="start" x="83.5" y="-419.3" font-family="Times,serif" font-size="14.00"> v2</text>
<text text-anchor="start" x="83.5" y="-404.3" font-family="Times,serif" font-size="14.00"> v3</text>
<text text-anchor="start" x="83.5" y="-389.3" font-family="Times,serif" font-size="14.00"> v4</text>
<text text-anchor="start" x="83.5" y="-374.3" font-family="Times,serif" font-size="14.00"> v5</text>
<text text-anchor="start" x="83.5" y="-359.3" font-family="Times,serif" font-size="14.00"> v6</text>
<text text-anchor="start" x="83.5" y="-344.3" font-family="Times,serif" font-size="14.00"> v7</text>
<text text-anchor="start" x="83.5" y="-329.3" font-family="Times,serif" font-size="14.00"> v8</text>
<text text-anchor="start" x="83.5" y="-314.3" font-family="Times,serif" font-size="14.00"> v9</text>
<text text-anchor="start" x="83.5" y="-299.3" font-family="Times,serif" font-size="14.00"> v10</text>
<text text-anchor="start" x="83.5" y="-284.3" font-family="Times,serif" font-size="14.00"> v11</text>
<text text-anchor="start" x="83.5" y="-269.3" font-family="Times,serif" font-size="14.00"> v12</text>
<text text-anchor="start" x="83.5" y="-254.3" font-family="Times,serif" font-size="14.00"> v13</text>
<text text-anchor="start" x="83.5" y="-239.3" font-family="Times,serif" font-size="14.00"> v14</text>
<text text-anchor="start" x="83.5" y="-224.3" font-family="Times,serif" font-size="14.00"> v15</text>
<text text-anchor="start" x="83.5" y="-209.3" font-family="Times,serif" font-size="14.00"> v16</text>
<text text-anchor="start" x="83.5" y="-194.3" font-family="Times,serif" font-size="14.00"> v17</text>
<text text-anchor="start" x="83.5" y="-179.3" font-family="Times,serif" font-size="14.00"> v18</text>
<text text-anchor="start" x="83.5" y="-164.3" font-family="Times,serif" font-size="14.00"> v19</text>
<text text-anchor="start" x="83.5" y="-149.3" font-family="Times,serif" font-size="14.00"> v20</text>
<text text-anchor="start" x="83.5" y="-134.3" font-family="Times,serif" font-size="14.00"> ___security_init_cookie()</text>
<text text-anchor="start" x="83.5" y="-119.3" font-family="Times,serif" font-size="14.00"> _qm__qm__qm_()</text>
<text text-anchor="start" x="83.5" y="-104.3" font-family="Times,serif" font-size="14.00"> return</text>
</g>
<!-- Node0x1015b5c0&#45;&gt;Node0x1015f8b0 -->
<g id="edge1" class="edge"><title>Node0x1015b5c0&#45;&gt;Node0x1015f8b0</title>
<path fill="none" stroke="black" d="M174.5,-486.25C174.5,-479.14 174.5,-470.159 174.5,-459.929"/>
<polygon fill="black" stroke="black" points="178,-459.76 174.5,-449.76 171,-459.76 178,-459.76"/>
</g>
<!-- Node0x1015b520 -->
<g id="node3" class="node"><title>Node0x1015b520</title>
<polygon fill="none" stroke="black" points="147.5,-23.5 147.5,-59.5 201.5,-59.5 201.5,-23.5 147.5,-23.5"/>
<text text-anchor="start" x="155.5" y="-37.8" font-family="Times,serif" font-size="14.00">exit:</text>
</g>
<!-- Node0x1015f8b0&#45;&gt;Node0x1015b520 -->
<g id="edge2" class="edge"><title>Node0x1015f8b0&#45;&gt;Node0x1015b520</title>
<path fill="none" stroke="black" d="M174.5,-96.3076C174.5,-86.3944 174.5,-77.3361 174.5,-69.5941"/>
<polygon fill="black" stroke="black" points="178,-69.574 174.5,-59.574 171,-69.574 178,-69.574"/>
</g>
</g>
</svg>
