<?xml version="1.0" encoding="UTF-8" standalone="no"?>
<!DOCTYPE svg PUBLIC "-//W3C//DTD SVG 1.1//EN"
 "http://www.w3.org/Graphics/SVG/1.1/DTD/svg11.dtd">
<!-- Generated by graphviz version 2.38.0 (20140413.2041)
 -->
<!-- Title: Control&#45;flow graph for function &#39;function_41d6f0(a1)&#39;. Pages: 1 -->
<svg width="409pt" height="293pt"
 viewBox="0.00 0.00 409.00 293.00" xmlns="http://www.w3.org/2000/svg" xmlns:xlink="http://www.w3.org/1999/xlink">
<g id="graph0" class="graph" transform="scale(1 1) rotate(0) translate(4 289)">
<title>Control&#45;flow graph for function &#39;function_41d6f0(a1)&#39;.</title>
<polygon fill="white" stroke="none" points="-4,4 -4,-289 405,-289 405,4 -4,4"/>
<text text-anchor="middle" x="200.5" y="-7.8" font-family="Times,serif" font-size="14.00">Control&#45;flow graph for function &#39;function_41d6f0(a1)&#39;.</text>
<!-- Node0xf731250 -->
<g id="node1" class="node"><title>Node0xf731250</title>
<polygon fill="none" stroke="black" points="171,-246.5 171,-284.5 230,-284.5 230,-246.5 171,-246.5"/>
<text text-anchor="start" x="179" y="-269.3" font-family="Times,serif" font-size="14.00">entry:</text>
<text text-anchor="start" x="179" y="-254.3" font-family="Times,serif" font-size="14.00"> a1</text>
</g>
<!-- Node0xf731640 -->
<g id="node2" class="node"><title>Node0xf731640</title>
<polygon fill="none" stroke="black" points="24,-96.5 24,-209.5 377,-209.5 377,-96.5 24,-96.5"/>
<text text-anchor="start" x="32" y="-194.3" font-family="Times,serif" font-size="14.00">v1</text>
<text text-anchor="start" x="32" y="-179.3" font-family="Times,serif" font-size="14.00"> v2</text>
<text text-anchor="start" x="32" y="-164.3" font-family="Times,serif" font-size="14.00"> v3</text>
<text text-anchor="start" x="32" y="-149.3" font-family="Times,serif" font-size="14.00"> result</text>
<text text-anchor="start" x="32" y="-134.3" font-family="Times,serif" font-size="14.00"> v3 = g5</text>
<text text-anchor="start" x="32" y="-119.3" font-family="Times,serif" font-size="14.00"> result = *(IntToPtrCastExpr&lt;ptr&gt;((v3 + 44)))</text>
<text text-anchor="start" x="32" y="-104.3" font-family="Times,serif" font-size="14.00"> return result</text>
</g>
<!-- Node0xf731250&#45;&gt;Node0xf731640 -->
<g id="edge1" class="edge"><title>Node0xf731250&#45;&gt;Node0xf731640</title>
<path fill="none" stroke="black" d="M200.5,-246.253C200.5,-238.701 200.5,-229.442 200.5,-219.734"/>
<polygon fill="black" stroke="black" points="204,-219.508 200.5,-209.508 197,-219.508 204,-219.508"/>
</g>
<!-- Node0xf731160 -->
<g id="node3" class="node"><title>Node0xf731160</title>
<polygon fill="none" stroke="black" points="173.5,-23.5 173.5,-59.5 227.5,-59.5 227.5,-23.5 173.5,-23.5"/>
<text text-anchor="start" x="181.5" y="-37.8" font-family="Times,serif" font-size="14.00">exit:</text>
</g>
<!-- Node0xf731640&#45;&gt;Node0xf731160 -->
<g id="edge2" class="edge"><title>Node0xf731640&#45;&gt;Node0xf731160</title>
<path fill="none" stroke="black" d="M200.5,-96.2876C200.5,-87.1343 200.5,-78.0169 200.5,-69.9591"/>
<polygon fill="black" stroke="black" points="204,-69.7241 200.5,-59.7242 197,-69.7242 204,-69.7241"/>
</g>
</g>
</svg>
