<?xml version="1.0" encoding="UTF-8" standalone="no"?>
<!DOCTYPE svg PUBLIC "-//W3C//DTD SVG 1.1//EN"
 "http://www.w3.org/Graphics/SVG/1.1/DTD/svg11.dtd">
<!-- Generated by graphviz version 2.38.0 (20140413.2041)
 -->
<!-- Title: Control&#45;flow graph for function &#39;function_41498e(nIDDlgItem, **a2, a3)&#39;. Pages: 1 -->
<svg width="682pt" height="1849pt"
 viewBox="0.00 0.00 682.00 1849.00" xmlns="http://www.w3.org/2000/svg" xmlns:xlink="http://www.w3.org/1999/xlink">
<g id="graph0" class="graph" transform="scale(1 1) rotate(0) translate(4 1845)">
<title>Control&#45;flow graph for function &#39;function_41498e(nIDDlgItem, **a2, a3)&#39;.</title>
<polygon fill="white" stroke="none" points="-4,4 -4,-1845 678,-1845 678,4 -4,4"/>
<text text-anchor="middle" x="337" y="-7.8" font-family="Times,serif" font-size="14.00">Control&#45;flow graph for function &#39;function_41498e(nIDDlgItem, **a2, a3)&#39;.</text>
<!-- Node0xf3b2cc0 -->
<g id="node1" class="node"><title>Node0xf3b2cc0</title>
<polygon fill="none" stroke="black" points="424,-1772.5 424,-1840.5 530,-1840.5 530,-1772.5 424,-1772.5"/>
<text text-anchor="start" x="432" y="-1825.3" font-family="Times,serif" font-size="14.00">entry:</text>
<text text-anchor="start" x="432" y="-1810.3" font-family="Times,serif" font-size="14.00"> nIDDlgItem</text>
<text text-anchor="start" x="432" y="-1795.3" font-family="Times,serif" font-size="14.00"> a2</text>
<text text-anchor="start" x="432" y="-1780.3" font-family="Times,serif" font-size="14.00"> a3</text>
</g>
<!-- Node0xf3b5ee0 -->
<g id="node2" class="node"><title>Node0xf3b5ee0</title>
<polygon fill="none" stroke="black" points="304,-1156.5 304,-1734.5 650,-1734.5 650,-1156.5 304,-1156.5"/>
<text text-anchor="start" x="312" y="-1719.3" font-family="Times,serif" font-size="14.00">v1</text>
<text text-anchor="start" x="312" y="-1704.3" font-family="Times,serif" font-size="14.00"> v2</text>
<text text-anchor="start" x="312" y="-1689.3" font-family="Times,serif" font-size="14.00"> v3</text>
<text text-anchor="start" x="312" y="-1674.3" font-family="Times,serif" font-size="14.00"> v4</text>
<text text-anchor="start" x="312" y="-1659.3" font-family="Times,serif" font-size="14.00"> v5</text>
<text text-anchor="start" x="312" y="-1644.3" font-family="Times,serif" font-size="14.00"> v6</text>
<text text-anchor="start" x="312" y="-1629.3" font-family="Times,serif" font-size="14.00"> v7</text>
<text text-anchor="start" x="312" y="-1614.3" font-family="Times,serif" font-size="14.00"> v8</text>
<text text-anchor="start" x="312" y="-1599.3" font-family="Times,serif" font-size="14.00"> v9</text>
<text text-anchor="start" x="312" y="-1584.3" font-family="Times,serif" font-size="14.00"> v10</text>
<text text-anchor="start" x="312" y="-1569.3" font-family="Times,serif" font-size="14.00"> v11</text>
<text text-anchor="start" x="312" y="-1554.3" font-family="Times,serif" font-size="14.00"> v12</text>
<text text-anchor="start" x="312" y="-1539.3" font-family="Times,serif" font-size="14.00"> v13</text>
<text text-anchor="start" x="312" y="-1524.3" font-family="Times,serif" font-size="14.00"> v14</text>
<text text-anchor="start" x="312" y="-1509.3" font-family="Times,serif" font-size="14.00"> v15</text>
<text text-anchor="start" x="312" y="-1494.3" font-family="Times,serif" font-size="14.00"> v16</text>
<text text-anchor="start" x="312" y="-1479.3" font-family="Times,serif" font-size="14.00"> v17</text>
<text text-anchor="start" x="312" y="-1464.3" font-family="Times,serif" font-size="14.00"> v18</text>
<text text-anchor="start" x="312" y="-1449.3" font-family="Times,serif" font-size="14.00"> hDlg</text>
<text text-anchor="start" x="312" y="-1434.3" font-family="Times,serif" font-size="14.00"> v19</text>
<text text-anchor="start" x="312" y="-1419.3" font-family="Times,serif" font-size="14.00"> v20</text>
<text text-anchor="start" x="312" y="-1404.3" font-family="Times,serif" font-size="14.00"> v21</text>
<text text-anchor="start" x="312" y="-1389.3" font-family="Times,serif" font-size="14.00"> v22</text>
<text text-anchor="start" x="312" y="-1374.3" font-family="Times,serif" font-size="14.00"> v23</text>
<text text-anchor="start" x="312" y="-1359.3" font-family="Times,serif" font-size="14.00"> v24</text>
<text text-anchor="start" x="312" y="-1344.3" font-family="Times,serif" font-size="14.00"> v25</text>
<text text-anchor="start" x="312" y="-1329.3" font-family="Times,serif" font-size="14.00"> v26</text>
<text text-anchor="start" x="312" y="-1314.3" font-family="Times,serif" font-size="14.00"> v27</text>
<text text-anchor="start" x="312" y="-1299.3" font-family="Times,serif" font-size="14.00"> v4 = v5</text>
<text text-anchor="start" x="312" y="-1284.3" font-family="Times,serif" font-size="14.00"> v9 = v10</text>
<text text-anchor="start" x="312" y="-1269.3" font-family="Times,serif" font-size="14.00"> v16 = g9</text>
<text text-anchor="start" x="312" y="-1254.3" font-family="Times,serif" font-size="14.00"> v17 = g5</text>
<text text-anchor="start" x="312" y="-1239.3" font-family="Times,serif" font-size="14.00"> g9 = v17</text>
<text text-anchor="start" x="312" y="-1224.3" font-family="Times,serif" font-size="14.00"> v24 = *(IntToPtrCastExpr&lt;ptr&gt;((v17 + 32)))</text>
<text text-anchor="start" x="312" y="-1209.3" font-family="Times,serif" font-size="14.00"> g2 = v24</text>
<text text-anchor="start" x="312" y="-1194.3" font-family="Times,serif" font-size="14.00"> v18 = g7</text>
<text text-anchor="start" x="312" y="-1179.3" font-family="Times,serif" font-size="14.00"> v9 = v18</text>
<text text-anchor="start" x="312" y="-1164.3" font-family="Times,serif" font-size="14.00"> hDlg = NULL</text>
</g>
<!-- Node0xf3b2cc0&#45;&gt;Node0xf3b5ee0 -->
<g id="edge1" class="edge"><title>Node0xf3b2cc0&#45;&gt;Node0xf3b5ee0</title>
<path fill="none" stroke="black" d="M477,-1772.37C477,-1764.28 477,-1754.96 477,-1744.71"/>
<polygon fill="black" stroke="black" points="480.5,-1744.6 477,-1734.6 473.5,-1744.6 480.5,-1744.6"/>
</g>
<!-- Node0xf3ac4f0 -->
<g id="node3" class="node"><title>Node0xf3ac4f0</title>
<polygon fill="none" stroke="black" points="423,-1082.5 423,-1118.5 531,-1118.5 531,-1082.5 423,-1082.5"/>
<text text-anchor="start" x="431" y="-1096.8" font-family="Times,serif" font-size="14.00">if (v24 != 0):</text>
</g>
<!-- Node0xf3b5ee0&#45;&gt;Node0xf3ac4f0 -->
<g id="edge2" class="edge"><title>Node0xf3b5ee0&#45;&gt;Node0xf3ac4f0</title>
<path fill="none" stroke="black" d="M477,-1156.23C477,-1145.96 477,-1136.75 477,-1128.95"/>
<polygon fill="black" stroke="black" points="480.5,-1128.89 477,-1118.89 473.5,-1128.89 480.5,-1128.89"/>
</g>
<!-- Node0xf3b7b20 -->
<g id="node4" class="node"><title>Node0xf3b7b20</title>
<polygon fill="none" stroke="black" points="148,-947.5 148,-1030.5 494,-1030.5 494,-947.5 148,-947.5"/>
<text text-anchor="start" x="156" y="-1015.3" font-family="Times,serif" font-size="14.00">0x414999:</text>
<text text-anchor="start" x="156" y="-1000.3" font-family="Times,serif" font-size="14.00"> v25 = *(IntToPtrCastExpr&lt;ptr&gt;((v24 + 32)))</text>
<text text-anchor="start" x="156" y="-985.3" font-family="Times,serif" font-size="14.00"> g2 = v25</text>
<text text-anchor="start" x="156" y="-970.3" font-family="Times,serif" font-size="14.00"> v3 = IntToPtrCastExpr&lt;ptr&gt;(v25)</text>
<text text-anchor="start" x="156" y="-955.3" font-family="Times,serif" font-size="14.00"> hDlg = v3</text>
</g>
<!-- Node0xf3ac4f0&#45;&gt;Node0xf3b7b20 -->
<g id="edge3" class="edge"><title>Node0xf3ac4f0&#45;&gt;Node0xf3b7b20</title>
<path fill="none" stroke="black" d="M452.625,-1082.39C435.071,-1070.07 410.495,-1052.82 387.324,-1036.55"/>
<polygon fill="black" stroke="black" points="389.063,-1033.5 378.867,-1030.62 385.041,-1039.23 389.063,-1033.5"/>
<text text-anchor="middle" x="454.5" y="-1052.8" font-family="Times,serif" font-size="14.00">v24 != 0</text>
</g>
<!-- Node0x8331790 -->
<g id="node5" class="node"><title>Node0x8331790</title>
<polygon fill="none" stroke="black" points="330.5,-811.5 330.5,-909.5 611.5,-909.5 611.5,-811.5 330.5,-811.5"/>
<text text-anchor="start" x="338.5" y="-894.3" font-family="Times,serif" font-size="14.00">0x41499c:</text>
<text text-anchor="start" x="338.5" y="-879.3" font-family="Times,serif" font-size="14.00"> v4 = nIDDlgItem</text>
<text text-anchor="start" x="338.5" y="-864.3" font-family="Times,serif" font-size="14.00"> v2 = GetDlgItem(hDlg, nIDDlgItem)</text>
<text text-anchor="start" x="338.5" y="-849.3" font-family="Times,serif" font-size="14.00"> g1 = False</text>
<text text-anchor="start" x="338.5" y="-834.3" font-family="Times,serif" font-size="14.00"> g207 = (v2 == NULL)</text>
<text text-anchor="start" x="338.5" y="-819.3" font-family="Times,serif" font-size="14.00"> v22 = v2</text>
</g>
<!-- Node0xf3ac4f0&#45;&gt;Node0x8331790 -->
<g id="edge4" class="edge"><title>Node0xf3ac4f0&#45;&gt;Node0x8331790</title>
<path fill="none" stroke="black" d="M485.549,-1082.27C491.774,-1068.71 499.673,-1049.14 503,-1031 509.735,-994.279 509.649,-983.736 503,-947 501.362,-937.952 498.823,-928.614 495.876,-919.582"/>
<polygon fill="black" stroke="black" points="499.115,-918.238 492.54,-909.929 492.498,-920.524 499.115,-918.238"/>
<text text-anchor="middle" x="543.5" y="-985.3" font-family="Times,serif" font-size="14.00">v24 == 0</text>
</g>
<!-- Node0xf3b7b20&#45;&gt;Node0x8331790 -->
<g id="edge5" class="edge"><title>Node0xf3b7b20&#45;&gt;Node0x8331790</title>
<path fill="none" stroke="black" d="M369.287,-947.278C381.06,-937.349 393.844,-926.569 406.246,-916.109"/>
<polygon fill="black" stroke="black" points="408.519,-918.771 413.907,-909.648 404.006,-913.42 408.519,-918.771"/>
</g>
<!-- Node0xf3b71c0 -->
<g id="node6" class="node"><title>Node0xf3b71c0</title>
<polygon fill="none" stroke="black" points="401,-737.5 401,-773.5 541,-773.5 541,-737.5 401,-737.5"/>
<text text-anchor="start" x="409" y="-751.8" font-family="Times,serif" font-size="14.00">if (v2 == NULL):</text>
</g>
<!-- Node0x8331790&#45;&gt;Node0xf3b71c0 -->
<g id="edge6" class="edge"><title>Node0x8331790&#45;&gt;Node0xf3b71c0</title>
<path fill="none" stroke="black" d="M471,-811.317C471,-801.893 471,-792.32 471,-783.868"/>
<polygon fill="black" stroke="black" points="474.5,-783.856 471,-773.856 467.5,-783.856 474.5,-783.856"/>
</g>
<!-- Node0xf3b7ba0 -->
<g id="node7" class="node"><title>Node0xf3b7ba0</title>
<polygon fill="none" stroke="black" points="156,-527.5 156,-685.5 502,-685.5 502,-527.5 156,-527.5"/>
<text text-anchor="start" x="164" y="-670.3" font-family="Times,serif" font-size="14.00">0x4149ad:</text>
<text text-anchor="start" x="164" y="-655.3" font-family="Times,serif" font-size="14.00"> v4 = nIDDlgItem</text>
<text text-anchor="start" x="164" y="-640.3" font-family="Times,serif" font-size="14.00"> g10 = PtrToIntCastExpr&lt;int32&gt;(&amp;(v4))</text>
<text text-anchor="start" x="164" y="-625.3" font-family="Times,serif" font-size="14.00"> v19 = g9</text>
<text text-anchor="start" x="164" y="-610.3" font-family="Times,serif" font-size="14.00"> v21 = *(IntToPtrCastExpr&lt;ptr&gt;(v19))</text>
<text text-anchor="start" x="164" y="-595.3" font-family="Times,serif" font-size="14.00"> g2 = v21</text>
<text text-anchor="start" x="164" y="-580.3" font-family="Times,serif" font-size="14.00"> g5 = v19</text>
<text text-anchor="start" x="164" y="-565.3" font-family="Times,serif" font-size="14.00"> v27 = *(IntToPtrCastExpr&lt;ptr&gt;((v21 + 84)))</text>
<text text-anchor="start" x="164" y="-550.3" font-family="Times,serif" font-size="14.00"> IntToPtrCastExpr&lt;ptr&gt;(v27)(nIDDlgItem)</text>
<text text-anchor="start" x="164" y="-535.3" font-family="Times,serif" font-size="14.00"> v20 = g2</text>
</g>
<!-- Node0xf3b71c0&#45;&gt;Node0xf3b7ba0 -->
<g id="edge7" class="edge"><title>Node0xf3b71c0&#45;&gt;Node0xf3b7ba0</title>
<path fill="none" stroke="black" d="M439.083,-737.438C430.488,-732.112 421.502,-725.826 414,-719 405.42,-711.193 397.089,-702.429 389.211,-693.335"/>
<polygon fill="black" stroke="black" points="391.831,-691.013 382.705,-685.631 386.483,-695.53 391.831,-691.013"/>
<text text-anchor="middle" x="461" y="-707.8" font-family="Times,serif" font-size="14.00">v2 == NULL</text>
</g>
<!-- Node0x833a610 -->
<g id="node8" class="node"><title>Node0x833a610</title>
<polygon fill="none" stroke="black" points="386,-410.5 386,-508.5 674,-508.5 674,-410.5 386,-410.5"/>
<text text-anchor="start" x="394" y="-493.3" font-family="Times,serif" font-size="14.00">0x4149bf:</text>
<text text-anchor="start" x="394" y="-478.3" font-family="Times,serif" font-size="14.00"> *(a2) = v22</text>
<text text-anchor="start" x="394" y="-463.3" font-family="Times,serif" font-size="14.00"> v23 = v9</text>
<text text-anchor="start" x="394" y="-448.3" font-family="Times,serif" font-size="14.00"> g7 = v23</text>
<text text-anchor="start" x="394" y="-433.3" font-family="Times,serif" font-size="14.00"> g9 = v16</text>
<text text-anchor="start" x="394" y="-418.3" font-family="Times,serif" font-size="14.00"> return PtrToIntCastExpr&lt;int32&gt;(a2)</text>
</g>
<!-- Node0xf3b71c0&#45;&gt;Node0x833a610 -->
<g id="edge8" class="edge"><title>Node0xf3b71c0&#45;&gt;Node0x833a610</title>
<path fill="none" stroke="black" d="M493.888,-737.454C499.417,-732.169 504.681,-725.899 508,-719 538.449,-655.702 539.965,-573.595 536.498,-519.085"/>
<polygon fill="black" stroke="black" points="539.975,-518.627 535.772,-508.902 532.992,-519.125 539.975,-518.627"/>
<text text-anchor="middle" x="559" y="-707.8" font-family="Times,serif" font-size="14.00">v2 != NULL</text>
</g>
<!-- Node0xf3b7080 -->
<g id="node9" class="node"><title>Node0xf3b7080</title>
<polygon fill="none" stroke="black" points="275,-353.5 275,-391.5 383,-391.5 383,-353.5 275,-353.5"/>
<text text-anchor="start" x="283" y="-376.3" font-family="Times,serif" font-size="14.00">if (v20 != 0):</text>
<text text-anchor="start" x="283" y="-361.3" font-family="Times,serif" font-size="14.00"> else:</text>
</g>
<!-- Node0xf3b7ba0&#45;&gt;Node0xf3b7080 -->
<g id="edge9" class="edge"><title>Node0xf3b7ba0&#45;&gt;Node0xf3b7080</title>
<path fill="none" stroke="black" d="M329,-527.279C329,-483.975 329,-432.787 329,-401.753"/>
<polygon fill="black" stroke="black" points="332.5,-401.662 329,-391.662 325.5,-401.662 332.5,-401.662"/>
</g>
<!-- Node0xf3b5e60 -->
<g id="node10" class="node"><title>Node0xf3b5e60</title>
<polygon fill="none" stroke="black" points="454,-23.5 454,-59.5 508,-59.5 508,-23.5 454,-23.5"/>
<text text-anchor="start" x="462" y="-37.8" font-family="Times,serif" font-size="14.00">exit:</text>
</g>
<!-- Node0x833a610&#45;&gt;Node0xf3b5e60 -->
<g id="edge10" class="edge"><title>Node0x833a610&#45;&gt;Node0xf3b5e60</title>
<path fill="none" stroke="black" d="M530,-410.345C530,-385.84 530,-355.583 530,-328.5 530,-328.5 530,-328.5 530,-145.5 530,-116.866 514.366,-87.7167 500.76,-67.7706"/>
<polygon fill="black" stroke="black" points="503.561,-65.6692 494.91,-59.5516 497.858,-69.7283 503.561,-65.6692"/>
</g>
<!-- Node0xf3b80c0 -->
<g id="node11" class="node"><title>Node0xf3b80c0</title>
<polygon fill="none" stroke="black" points="0,-233.5 0,-301.5 346,-301.5 346,-233.5 0,-233.5"/>
<text text-anchor="start" x="8" y="-286.3" font-family="Times,serif" font-size="14.00">0x4149bc:</text>
<text text-anchor="start" x="8" y="-271.3" font-family="Times,serif" font-size="14.00"> v26 = *(IntToPtrCastExpr&lt;ptr&gt;((v20 + 36)))</text>
<text text-anchor="start" x="8" y="-256.3" font-family="Times,serif" font-size="14.00"> v1 = IntToPtrCastExpr&lt;ptr&gt;(v26)</text>
<text text-anchor="start" x="8" y="-241.3" font-family="Times,serif" font-size="14.00"> v22 = v1</text>
</g>
<!-- Node0xf3b7080&#45;&gt;Node0xf3b80c0 -->
<g id="edge11" class="edge"><title>Node0xf3b7080&#45;&gt;Node0xf3b80c0</title>
<path fill="none" stroke="black" d="M301.469,-353.323C282.143,-340.562 255.572,-323.019 231.609,-307.197"/>
<polygon fill="black" stroke="black" points="233.531,-304.272 223.258,-301.683 229.674,-310.114 233.531,-304.272"/>
<text text-anchor="middle" x="301.5" y="-323.8" font-family="Times,serif" font-size="14.00">v20 != 0</text>
</g>
<!-- Node0xf3b8220 -->
<g id="node12" class="node"><title>Node0xf3b8220</title>
<polygon fill="none" stroke="black" points="364.5,-249.5 364.5,-285.5 471.5,-285.5 471.5,-249.5 364.5,-249.5"/>
<text text-anchor="start" x="372.5" y="-263.8" font-family="Times,serif" font-size="14.00">v22 = NULL</text>
</g>
<!-- Node0xf3b7080&#45;&gt;Node0xf3b8220 -->
<g id="edge12" class="edge"><title>Node0xf3b7080&#45;&gt;Node0xf3b8220</title>
<path fill="none" stroke="black" d="M344.911,-353.086C359.22,-336.527 380.366,-312.053 396.237,-293.686"/>
<polygon fill="black" stroke="black" points="399.225,-295.582 403.114,-285.727 393.928,-291.005 399.225,-295.582"/>
<text text-anchor="middle" x="408.5" y="-323.8" font-family="Times,serif" font-size="14.00">v20 == 0</text>
</g>
<!-- Node0xf3b8060 -->
<g id="node13" class="node"><title>Node0xf3b8060</title>
<polygon fill="none" stroke="black" points="214,-97.5 214,-195.5 502,-195.5 502,-97.5 214,-97.5"/>
<text text-anchor="start" x="222" y="-180.3" font-family="Times,serif" font-size="14.00">0x4149bf:</text>
<text text-anchor="start" x="222" y="-165.3" font-family="Times,serif" font-size="14.00"> *(a2) = v22</text>
<text text-anchor="start" x="222" y="-150.3" font-family="Times,serif" font-size="14.00"> v23 = v9</text>
<text text-anchor="start" x="222" y="-135.3" font-family="Times,serif" font-size="14.00"> g7 = v23</text>
<text text-anchor="start" x="222" y="-120.3" font-family="Times,serif" font-size="14.00"> g9 = v16</text>
<text text-anchor="start" x="222" y="-105.3" font-family="Times,serif" font-size="14.00"> return PtrToIntCastExpr&lt;int32&gt;(a2)</text>
</g>
<!-- Node0xf3b80c0&#45;&gt;Node0xf3b8060 -->
<g id="edge13" class="edge"><title>Node0xf3b80c0&#45;&gt;Node0xf3b8060</title>
<path fill="none" stroke="black" d="M224.533,-233.352C240.01,-223.396 257.405,-212.207 274.396,-201.277"/>
<polygon fill="black" stroke="black" points="276.716,-203.947 283.233,-195.594 272.929,-198.06 276.716,-203.947"/>
</g>
<!-- Node0xf3b8220&#45;&gt;Node0xf3b8060 -->
<g id="edge14" class="edge"><title>Node0xf3b8220&#45;&gt;Node0xf3b8060</title>
<path fill="none" stroke="black" d="M409.403,-249.45C403.416,-237.575 395.055,-220.992 386.814,-204.647"/>
<polygon fill="black" stroke="black" points="389.89,-202.975 382.263,-195.622 383.64,-206.127 389.89,-202.975"/>
</g>
<!-- Node0xf3b8060&#45;&gt;Node0xf3b5e60 -->
<g id="edge15" class="edge"><title>Node0xf3b8060&#45;&gt;Node0xf3b5e60</title>
<path fill="none" stroke="black" d="M415.539,-97.3173C428.519,-86.4475 441.736,-75.3797 452.863,-66.0618"/>
<polygon fill="black" stroke="black" points="455.143,-68.7177 460.563,-59.614 450.649,-63.3509 455.143,-68.7177"/>
</g>
</g>
</svg>
