<?xml version="1.0" encoding="UTF-8" standalone="no"?>
<!DOCTYPE svg PUBLIC "-//W3C//DTD SVG 1.1//EN"
 "http://www.w3.org/Graphics/SVG/1.1/DTD/svg11.dtd">
<!-- Generated by graphviz version 2.38.0 (20140413.2041)
 -->
<!-- Title: Control&#45;flow graph for function &#39;function_427cac(a1, a2, a3, a4)&#39;. Pages: 1 -->
<svg width="1007pt" height="3967pt"
 viewBox="0.00 0.00 1006.50 3967.00" xmlns="http://www.w3.org/2000/svg" xmlns:xlink="http://www.w3.org/1999/xlink">
<g id="graph0" class="graph" transform="scale(1 1) rotate(0) translate(4 3963)">
<title>Control&#45;flow graph for function &#39;function_427cac(a1, a2, a3, a4)&#39;.</title>
<polygon fill="white" stroke="none" points="-4,4 -4,-3963 1002.5,-3963 1002.5,4 -4,4"/>
<text text-anchor="middle" x="499.25" y="-7.8" font-family="Times,serif" font-size="14.00">Control&#45;flow graph for function &#39;function_427cac(a1, a2, a3, a4)&#39;.</text>
<!-- Node0xfe74bd0 -->
<g id="node1" class="node"><title>Node0xfe74bd0</title>
<polygon fill="none" stroke="black" points="223,-3875.5 223,-3958.5 282,-3958.5 282,-3875.5 223,-3875.5"/>
<text text-anchor="start" x="231" y="-3943.3" font-family="Times,serif" font-size="14.00">entry:</text>
<text text-anchor="start" x="231" y="-3928.3" font-family="Times,serif" font-size="14.00"> a1</text>
<text text-anchor="start" x="231" y="-3913.3" font-family="Times,serif" font-size="14.00"> a2</text>
<text text-anchor="start" x="231" y="-3898.3" font-family="Times,serif" font-size="14.00"> a3</text>
<text text-anchor="start" x="231" y="-3883.3" font-family="Times,serif" font-size="14.00"> a4</text>
</g>
<!-- Node0xfe752c0 -->
<g id="node2" class="node"><title>Node0xfe752c0</title>
<polygon fill="none" stroke="black" points="79.5,-2329.5 79.5,-3837.5 425.5,-3837.5 425.5,-2329.5 79.5,-2329.5"/>
<text text-anchor="start" x="87.5" y="-3822.3" font-family="Times,serif" font-size="14.00">v1</text>
<text text-anchor="start" x="87.5" y="-3807.3" font-family="Times,serif" font-size="14.00"> v2</text>
<text text-anchor="start" x="87.5" y="-3792.3" font-family="Times,serif" font-size="14.00"> v3</text>
<text text-anchor="start" x="87.5" y="-3777.3" font-family="Times,serif" font-size="14.00"> v4</text>
<text text-anchor="start" x="87.5" y="-3762.3" font-family="Times,serif" font-size="14.00"> v5</text>
<text text-anchor="start" x="87.5" y="-3747.3" font-family="Times,serif" font-size="14.00"> v6</text>
<text text-anchor="start" x="87.5" y="-3732.3" font-family="Times,serif" font-size="14.00"> v7</text>
<text text-anchor="start" x="87.5" y="-3717.3" font-family="Times,serif" font-size="14.00"> v8</text>
<text text-anchor="start" x="87.5" y="-3702.3" font-family="Times,serif" font-size="14.00"> v9</text>
<text text-anchor="start" x="87.5" y="-3687.3" font-family="Times,serif" font-size="14.00"> v10</text>
<text text-anchor="start" x="87.5" y="-3672.3" font-family="Times,serif" font-size="14.00"> v11</text>
<text text-anchor="start" x="87.5" y="-3657.3" font-family="Times,serif" font-size="14.00"> v12</text>
<text text-anchor="start" x="87.5" y="-3642.3" font-family="Times,serif" font-size="14.00"> v13</text>
<text text-anchor="start" x="87.5" y="-3627.3" font-family="Times,serif" font-size="14.00"> v14</text>
<text text-anchor="start" x="87.5" y="-3612.3" font-family="Times,serif" font-size="14.00"> v15</text>
<text text-anchor="start" x="87.5" y="-3597.3" font-family="Times,serif" font-size="14.00"> v16</text>
<text text-anchor="start" x="87.5" y="-3582.3" font-family="Times,serif" font-size="14.00"> v17</text>
<text text-anchor="start" x="87.5" y="-3567.3" font-family="Times,serif" font-size="14.00"> v18</text>
<text text-anchor="start" x="87.5" y="-3552.3" font-family="Times,serif" font-size="14.00"> v19</text>
<text text-anchor="start" x="87.5" y="-3537.3" font-family="Times,serif" font-size="14.00"> v20</text>
<text text-anchor="start" x="87.5" y="-3522.3" font-family="Times,serif" font-size="14.00"> v21</text>
<text text-anchor="start" x="87.5" y="-3507.3" font-family="Times,serif" font-size="14.00"> v22</text>
<text text-anchor="start" x="87.5" y="-3492.3" font-family="Times,serif" font-size="14.00"> v23</text>
<text text-anchor="start" x="87.5" y="-3477.3" font-family="Times,serif" font-size="14.00"> v24</text>
<text text-anchor="start" x="87.5" y="-3462.3" font-family="Times,serif" font-size="14.00"> result</text>
<text text-anchor="start" x="87.5" y="-3447.3" font-family="Times,serif" font-size="14.00"> v25</text>
<text text-anchor="start" x="87.5" y="-3432.3" font-family="Times,serif" font-size="14.00"> v26</text>
<text text-anchor="start" x="87.5" y="-3417.3" font-family="Times,serif" font-size="14.00"> v27</text>
<text text-anchor="start" x="87.5" y="-3402.3" font-family="Times,serif" font-size="14.00"> v28</text>
<text text-anchor="start" x="87.5" y="-3387.3" font-family="Times,serif" font-size="14.00"> v29</text>
<text text-anchor="start" x="87.5" y="-3372.3" font-family="Times,serif" font-size="14.00"> v30</text>
<text text-anchor="start" x="87.5" y="-3357.3" font-family="Times,serif" font-size="14.00"> v31</text>
<text text-anchor="start" x="87.5" y="-3342.3" font-family="Times,serif" font-size="14.00"> v32</text>
<text text-anchor="start" x="87.5" y="-3327.3" font-family="Times,serif" font-size="14.00"> v33</text>
<text text-anchor="start" x="87.5" y="-3312.3" font-family="Times,serif" font-size="14.00"> v34</text>
<text text-anchor="start" x="87.5" y="-3297.3" font-family="Times,serif" font-size="14.00"> v35</text>
<text text-anchor="start" x="87.5" y="-3282.3" font-family="Times,serif" font-size="14.00"> v36</text>
<text text-anchor="start" x="87.5" y="-3267.3" font-family="Times,serif" font-size="14.00"> v37</text>
<text text-anchor="start" x="87.5" y="-3252.3" font-family="Times,serif" font-size="14.00"> v38</text>
<text text-anchor="start" x="87.5" y="-3237.3" font-family="Times,serif" font-size="14.00"> v39</text>
<text text-anchor="start" x="87.5" y="-3222.3" font-family="Times,serif" font-size="14.00"> v40</text>
<text text-anchor="start" x="87.5" y="-3207.3" font-family="Times,serif" font-size="14.00"> v41</text>
<text text-anchor="start" x="87.5" y="-3192.3" font-family="Times,serif" font-size="14.00"> v42</text>
<text text-anchor="start" x="87.5" y="-3177.3" font-family="Times,serif" font-size="14.00"> v43</text>
<text text-anchor="start" x="87.5" y="-3162.3" font-family="Times,serif" font-size="14.00"> v44</text>
<text text-anchor="start" x="87.5" y="-3147.3" font-family="Times,serif" font-size="14.00"> v45</text>
<text text-anchor="start" x="87.5" y="-3132.3" font-family="Times,serif" font-size="14.00"> v46</text>
<text text-anchor="start" x="87.5" y="-3117.3" font-family="Times,serif" font-size="14.00"> v47</text>
<text text-anchor="start" x="87.5" y="-3102.3" font-family="Times,serif" font-size="14.00"> v48</text>
<text text-anchor="start" x="87.5" y="-3087.3" font-family="Times,serif" font-size="14.00"> v49</text>
<text text-anchor="start" x="87.5" y="-3072.3" font-family="Times,serif" font-size="14.00"> v50</text>
<text text-anchor="start" x="87.5" y="-3057.3" font-family="Times,serif" font-size="14.00"> v51</text>
<text text-anchor="start" x="87.5" y="-3042.3" font-family="Times,serif" font-size="14.00"> v52</text>
<text text-anchor="start" x="87.5" y="-3027.3" font-family="Times,serif" font-size="14.00"> v53</text>
<text text-anchor="start" x="87.5" y="-3012.3" font-family="Times,serif" font-size="14.00"> v54</text>
<text text-anchor="start" x="87.5" y="-2997.3" font-family="Times,serif" font-size="14.00"> v55</text>
<text text-anchor="start" x="87.5" y="-2982.3" font-family="Times,serif" font-size="14.00"> v56</text>
<text text-anchor="start" x="87.5" y="-2967.3" font-family="Times,serif" font-size="14.00"> v57</text>
<text text-anchor="start" x="87.5" y="-2952.3" font-family="Times,serif" font-size="14.00"> v58</text>
<text text-anchor="start" x="87.5" y="-2937.3" font-family="Times,serif" font-size="14.00"> v59</text>
<text text-anchor="start" x="87.5" y="-2922.3" font-family="Times,serif" font-size="14.00"> v60</text>
<text text-anchor="start" x="87.5" y="-2907.3" font-family="Times,serif" font-size="14.00"> v61</text>
<text text-anchor="start" x="87.5" y="-2892.3" font-family="Times,serif" font-size="14.00"> v62</text>
<text text-anchor="start" x="87.5" y="-2877.3" font-family="Times,serif" font-size="14.00"> v63</text>
<text text-anchor="start" x="87.5" y="-2862.3" font-family="Times,serif" font-size="14.00"> v64</text>
<text text-anchor="start" x="87.5" y="-2847.3" font-family="Times,serif" font-size="14.00"> v65</text>
<text text-anchor="start" x="87.5" y="-2832.3" font-family="Times,serif" font-size="14.00"> v66</text>
<text text-anchor="start" x="87.5" y="-2817.3" font-family="Times,serif" font-size="14.00"> v67</text>
<text text-anchor="start" x="87.5" y="-2802.3" font-family="Times,serif" font-size="14.00"> v68</text>
<text text-anchor="start" x="87.5" y="-2787.3" font-family="Times,serif" font-size="14.00"> v69</text>
<text text-anchor="start" x="87.5" y="-2772.3" font-family="Times,serif" font-size="14.00"> v70</text>
<text text-anchor="start" x="87.5" y="-2757.3" font-family="Times,serif" font-size="14.00"> v71</text>
<text text-anchor="start" x="87.5" y="-2742.3" font-family="Times,serif" font-size="14.00"> v72</text>
<text text-anchor="start" x="87.5" y="-2727.3" font-family="Times,serif" font-size="14.00"> v73</text>
<text text-anchor="start" x="87.5" y="-2712.3" font-family="Times,serif" font-size="14.00"> v74</text>
<text text-anchor="start" x="87.5" y="-2697.3" font-family="Times,serif" font-size="14.00"> v75</text>
<text text-anchor="start" x="87.5" y="-2682.3" font-family="Times,serif" font-size="14.00"> v76</text>
<text text-anchor="start" x="87.5" y="-2667.3" font-family="Times,serif" font-size="14.00"> v77</text>
<text text-anchor="start" x="87.5" y="-2652.3" font-family="Times,serif" font-size="14.00"> v78</text>
<text text-anchor="start" x="87.5" y="-2637.3" font-family="Times,serif" font-size="14.00"> v79</text>
<text text-anchor="start" x="87.5" y="-2622.3" font-family="Times,serif" font-size="14.00"> v80</text>
<text text-anchor="start" x="87.5" y="-2607.3" font-family="Times,serif" font-size="14.00"> v81</text>
<text text-anchor="start" x="87.5" y="-2592.3" font-family="Times,serif" font-size="14.00"> v82</text>
<text text-anchor="start" x="87.5" y="-2577.3" font-family="Times,serif" font-size="14.00"> v83</text>
<text text-anchor="start" x="87.5" y="-2562.3" font-family="Times,serif" font-size="14.00"> v84</text>
<text text-anchor="start" x="87.5" y="-2547.3" font-family="Times,serif" font-size="14.00"> v85</text>
<text text-anchor="start" x="87.5" y="-2532.3" font-family="Times,serif" font-size="14.00"> v86</text>
<text text-anchor="start" x="87.5" y="-2517.3" font-family="Times,serif" font-size="14.00"> v87</text>
<text text-anchor="start" x="87.5" y="-2502.3" font-family="Times,serif" font-size="14.00"> v36 = v37</text>
<text text-anchor="start" x="87.5" y="-2487.3" font-family="Times,serif" font-size="14.00"> v34 = v35</text>
<text text-anchor="start" x="87.5" y="-2472.3" font-family="Times,serif" font-size="14.00"> v32 = v33</text>
<text text-anchor="start" x="87.5" y="-2457.3" font-family="Times,serif" font-size="14.00"> v30 = v31</text>
<text text-anchor="start" x="87.5" y="-2442.3" font-family="Times,serif" font-size="14.00"> v28 = v29</text>
<text text-anchor="start" x="87.5" y="-2427.3" font-family="Times,serif" font-size="14.00"> v26 = v27</text>
<text text-anchor="start" x="87.5" y="-2412.3" font-family="Times,serif" font-size="14.00"> v39 = v42</text>
<text text-anchor="start" x="87.5" y="-2397.3" font-family="Times,serif" font-size="14.00"> v44 = v45</text>
<text text-anchor="start" x="87.5" y="-2382.3" font-family="Times,serif" font-size="14.00"> v52 = g5</text>
<text text-anchor="start" x="87.5" y="-2367.3" font-family="Times,serif" font-size="14.00"> g9 = v52</text>
<text text-anchor="start" x="87.5" y="-2352.3" font-family="Times,serif" font-size="14.00"> v80 = *(IntToPtrCastExpr&lt;ptr&gt;((v52 + 24)))</text>
<text text-anchor="start" x="87.5" y="-2337.3" font-family="Times,serif" font-size="14.00"> g2 = (&#45;1 &#45; v80)</text>
</g>
<!-- Node0xfe74bd0&#45;&gt;Node0xfe752c0 -->
<g id="edge1" class="edge"><title>Node0xfe74bd0&#45;&gt;Node0xfe752c0</title>
<path fill="none" stroke="black" d="M252.5,-3875.33C252.5,-3867.18 252.5,-3857.93 252.5,-3847.73"/>
<polygon fill="black" stroke="black" points="256,-3847.65 252.5,-3837.65 249,-3847.65 256,-3847.65"/>
</g>
<!-- Node0xfe76820 -->
<g id="node3" class="node"><title>Node0xfe76820</title>
<polygon fill="none" stroke="black" points="193,-2255.5 193,-2291.5 312,-2291.5 312,-2255.5 193,-2255.5"/>
<text text-anchor="start" x="201" y="-2269.8" font-family="Times,serif" font-size="14.00">if (v80 == &#45;2):</text>
</g>
<!-- Node0xfe752c0&#45;&gt;Node0xfe76820 -->
<g id="edge2" class="edge"><title>Node0xfe752c0&#45;&gt;Node0xfe76820</title>
<path fill="none" stroke="black" d="M252.5,-2329.4C252.5,-2318.92 252.5,-2309.73 252.5,-2302.02"/>
<polygon fill="black" stroke="black" points="256,-2301.8 252.5,-2291.8 249,-2301.8 256,-2301.8"/>
</g>
<!-- Node0xfe71d70 -->
<g id="node4" class="node"><title>Node0xfe71d70</title>
<polygon fill="none" stroke="black" points="0,-2150.5 0,-2203.5 261,-2203.5 261,-2150.5 0,-2150.5"/>
<text text-anchor="start" x="8" y="-2188.3" font-family="Times,serif" font-size="14.00">0x427cb8:</text>
<text text-anchor="start" x="8" y="-2173.3" font-family="Times,serif" font-size="14.00"> v26 = IntToPtrCastExpr&lt;ptr&gt;(2)</text>
<text text-anchor="start" x="8" y="-2158.3" font-family="Times,serif" font-size="14.00"> function_423a53()</text>
</g>
<!-- Node0xfe76820&#45;&gt;Node0xfe71d70 -->
<g id="edge3" class="edge"><title>Node0xfe76820&#45;&gt;Node0xfe71d70</title>
<path fill="none" stroke="black" d="M230.407,-2255.39C213.991,-2242.67 191.124,-2224.96 171.409,-2209.69"/>
<polygon fill="black" stroke="black" points="173.514,-2206.89 163.465,-2203.53 169.227,-2212.42 173.514,-2206.89"/>
<text text-anchor="middle" x="243" y="-2225.8" font-family="Times,serif" font-size="14.00">v80 == &#45;2</text>
</g>
<!-- Node0xfe6d630 -->
<g id="node5" class="node"><title>Node0xfe6d630</title>
<polygon fill="none" stroke="black" points="106.5,-2014.5 106.5,-2112.5 392.5,-2112.5 392.5,-2014.5 106.5,-2014.5"/>
<text text-anchor="start" x="114.5" y="-2097.3" font-family="Times,serif" font-size="14.00">0x427cc2:</text>
<text text-anchor="start" x="114.5" y="-2082.3" font-family="Times,serif" font-size="14.00"> v53 = g7</text>
<text text-anchor="start" x="114.5" y="-2067.3" font-family="Times,serif" font-size="14.00"> v26 = NULL</text>
<text text-anchor="start" x="114.5" y="-2052.3" font-family="Times,serif" font-size="14.00"> function_427898()</text>
<text text-anchor="start" x="114.5" y="-2037.3" font-family="Times,serif" font-size="14.00"> v81 = v44</text>
<text text-anchor="start" x="114.5" y="-2022.3" font-family="Times,serif" font-size="14.00"> g7 = PtrToIntCastExpr&lt;int32&gt;(v81)</text>
</g>
<!-- Node0xfe76820&#45;&gt;Node0xfe6d630 -->
<g id="edge4" class="edge"><title>Node0xfe76820&#45;&gt;Node0xfe6d630</title>
<path fill="none" stroke="black" d="M271.761,-2255.41C276.517,-2250.04 280.971,-2243.74 283.5,-2237 285.842,-2230.76 284.139,-2228.64 283.5,-2222 280.283,-2188.6 272.617,-2151.93 265.377,-2122.38"/>
<polygon fill="black" stroke="black" points="268.765,-2121.5 262.945,-2112.64 261.974,-2123.19 268.765,-2121.5"/>
<text text-anchor="middle" x="315" y="-2173.3" font-family="Times,serif" font-size="14.00">v80 != &#45;2</text>
</g>
<!-- Node0xfe71d70&#45;&gt;Node0xfe6d630 -->
<g id="edge5" class="edge"><title>Node0xfe71d70&#45;&gt;Node0xfe6d630</title>
<path fill="none" stroke="black" d="M157.801,-2150.42C167.595,-2141.24 179.055,-2130.5 190.491,-2119.79"/>
<polygon fill="black" stroke="black" points="193.081,-2122.16 197.985,-2112.77 188.294,-2117.05 193.081,-2122.16"/>
</g>
<!-- Node0xfe6da50 -->
<g id="node6" class="node"><title>Node0xfe6da50</title>
<polygon fill="none" stroke="black" points="175,-1938.5 175,-1976.5 324,-1976.5 324,-1938.5 175,-1938.5"/>
<text text-anchor="start" x="183" y="-1961.3" font-family="Times,serif" font-size="14.00">if (v81 == NULL):</text>
<text text-anchor="start" x="183" y="-1946.3" font-family="Times,serif" font-size="14.00"> else:</text>
</g>
<!-- Node0xfe6d630&#45;&gt;Node0xfe6da50 -->
<g id="edge6" class="edge"><title>Node0xfe6d630&#45;&gt;Node0xfe6da50</title>
<path fill="none" stroke="black" d="M249.5,-2014.46C249.5,-2004.95 249.5,-1995.27 249.5,-1986.69"/>
<polygon fill="black" stroke="black" points="253,-1986.51 249.5,-1976.51 246,-1986.51 253,-1986.51"/>
</g>
<!-- Node0xfe79c80 -->
<g id="node7" class="node"><title>Node0xfe79c80</title>
<polygon fill="none" stroke="black" points="86.5,-1521.5 86.5,-1649.5 286.5,-1649.5 286.5,-1521.5 86.5,-1521.5"/>
<text text-anchor="start" x="94.5" y="-1634.3" font-family="Times,serif" font-size="14.00">0x427cd2:</text>
<text text-anchor="start" x="94.5" y="-1619.3" font-family="Times,serif" font-size="14.00"> v28 = NULL</text>
<text text-anchor="start" x="94.5" y="-1604.3" font-family="Times,serif" font-size="14.00"> v54 = g9</text>
<text text-anchor="start" x="94.5" y="-1589.3" font-family="Times,serif" font-size="14.00"> g5 = v54</text>
<text text-anchor="start" x="94.5" y="-1574.3" font-family="Times,serif" font-size="14.00"> v22 = function_423d94()</text>
<text text-anchor="start" x="94.5" y="-1559.3" font-family="Times,serif" font-size="14.00"> v68 = g10</text>
<text text-anchor="start" x="94.5" y="-1544.3" font-family="Times,serif" font-size="14.00"> v67 = v68</text>
<text text-anchor="start" x="94.5" y="-1529.3" font-family="Times,serif" font-size="14.00"> result = v22</text>
</g>
<!-- Node0xfe6da50&#45;&gt;Node0xfe79c80 -->
<g id="edge7" class="edge"><title>Node0xfe6da50&#45;&gt;Node0xfe79c80</title>
<path fill="none" stroke="black" d="M204.418,-1938.41C197.249,-1933.51 190.792,-1927.45 186.5,-1920 140.524,-1840.23 151.666,-1730.88 166.706,-1659.48"/>
<polygon fill="black" stroke="black" points="170.136,-1660.18 168.849,-1649.66 163.297,-1658.68 170.136,-1660.18"/>
<text text-anchor="middle" x="238" y="-1908.8" font-family="Times,serif" font-size="14.00">v81 == NULL</text>
</g>
<!-- Node0xfe79d00 -->
<g id="node8" class="node"><title>Node0xfe79d00</title>
<polygon fill="none" stroke="black" points="215,-1668.5 215,-1886.5 638,-1886.5 638,-1668.5 215,-1668.5"/>
<text text-anchor="start" x="223" y="-1871.3" font-family="Times,serif" font-size="14.00">0x427cdc:</text>
<text text-anchor="start" x="223" y="-1856.3" font-family="Times,serif" font-size="14.00"> v75 = g9</text>
<text text-anchor="start" x="223" y="-1841.3" font-family="Times,serif" font-size="14.00"> v82 = *(IntToPtrCastExpr&lt;ptr&gt;((v75 + 56)))</text>
<text text-anchor="start" x="223" y="-1826.3" font-family="Times,serif" font-size="14.00"> g5 = v82</text>
<text text-anchor="start" x="223" y="-1811.3" font-family="Times,serif" font-size="14.00"> v55 = g4</text>
<text text-anchor="start" x="223" y="-1796.3" font-family="Times,serif" font-size="14.00"> v9 = IntToPtrCastExpr&lt;ptr&gt;(v55)</text>
<text text-anchor="start" x="223" y="-1781.3" font-family="Times,serif" font-size="14.00"> v28 = v9</text>
<text text-anchor="start" x="223" y="-1766.3" font-family="Times,serif" font-size="14.00"> v30 = BitCastExpr&lt;ptr&gt;(v81)</text>
<text text-anchor="start" x="223" y="-1751.3" font-family="Times,serif" font-size="14.00"> v3 = v26</text>
<text text-anchor="start" x="223" y="-1736.3" font-family="Times,serif" font-size="14.00"> v17 = function_41b577(BitCastExpr&lt;ptr&gt;(v81), v9, v3)</text>
<text text-anchor="start" x="223" y="-1721.3" font-family="Times,serif" font-size="14.00"> v69 = *(IntToPtrCastExpr&lt;ptr&gt;(v17))</text>
<text text-anchor="start" x="223" y="-1706.3" font-family="Times,serif" font-size="14.00"> g4 = v69</text>
<text text-anchor="start" x="223" y="-1691.3" font-family="Times,serif" font-size="14.00"> g1 = False</text>
<text text-anchor="start" x="223" y="-1676.3" font-family="Times,serif" font-size="14.00"> g207 = (v69 == 0)</text>
</g>
<!-- Node0xfe6da50&#45;&gt;Node0xfe79d00 -->
<g id="edge8" class="edge"><title>Node0xfe6da50&#45;&gt;Node0xfe79d00</title>
<path fill="none" stroke="black" d="M272.345,-1938.45C279.293,-1932.73 286.846,-1926.25 293.5,-1920 302.32,-1911.71 311.282,-1902.96 320.172,-1894.05"/>
<polygon fill="black" stroke="black" points="322.733,-1896.44 327.283,-1886.87 317.759,-1891.51 322.733,-1896.44"/>
<text text-anchor="middle" x="358" y="-1908.8" font-family="Times,serif" font-size="14.00">v81 != NULL</text>
</g>
<!-- Node0xfe766c0 -->
<g id="node9" class="node"><title>Node0xfe766c0</title>
<polygon fill="none" stroke="black" points="50,-361 50,-474 387,-474 387,-361 50,-361"/>
<text text-anchor="start" x="58" y="-458.8" font-family="Times,serif" font-size="14.00">0x427d3e:</text>
<text text-anchor="start" x="58" y="-443.8" font-family="Times,serif" font-size="14.00"> v73 = *(IntToPtrCastExpr&lt;ptr&gt;(v67))</text>
<text text-anchor="start" x="58" y="-428.8" font-family="Times,serif" font-size="14.00"> g7 = v73</text>
<text text-anchor="start" x="58" y="-413.8" font-family="Times,serif" font-size="14.00"> v74 = *(IntToPtrCastExpr&lt;ptr&gt;((v67 + 4)))</text>
<text text-anchor="start" x="58" y="-398.8" font-family="Times,serif" font-size="14.00"> g9 = v74</text>
<text text-anchor="start" x="58" y="-383.8" font-family="Times,serif" font-size="14.00"> g10 = (v67 + 16)</text>
<text text-anchor="start" x="58" y="-368.8" font-family="Times,serif" font-size="14.00"> return result</text>
</g>
<!-- Node0xfe79c80&#45;&gt;Node0xfe766c0 -->
<g id="edge9" class="edge"><title>Node0xfe79c80&#45;&gt;Node0xfe766c0</title>
<path fill="none" stroke="black" d="M186.5,-1521.33C186.5,-1495.91 186.5,-1466.31 186.5,-1439.5 186.5,-1439.5 186.5,-1439.5 186.5,-604 186.5,-563.845 193.872,-519.503 201.539,-484.244"/>
<polygon fill="black" stroke="black" points="205.045,-484.603 203.811,-474.08 198.213,-483.076 205.045,-484.603"/>
</g>
<!-- Node0xfe77760 -->
<g id="node10" class="node"><title>Node0xfe77760</title>
<polygon fill="none" stroke="black" points="369.5,-1464.5 369.5,-1502.5 483.5,-1502.5 483.5,-1464.5 369.5,-1464.5"/>
<text text-anchor="start" x="377.5" y="-1487.3" font-family="Times,serif" font-size="14.00">if (v69 == 0):</text>
<text text-anchor="start" x="377.5" y="-1472.3" font-family="Times,serif" font-size="14.00"> else:</text>
</g>
<!-- Node0xfe79d00&#45;&gt;Node0xfe77760 -->
<g id="edge10" class="edge"><title>Node0xfe79d00&#45;&gt;Node0xfe77760</title>
<path fill="none" stroke="black" d="M426.5,-1668.18C426.5,-1612.29 426.5,-1548.49 426.5,-1512.7"/>
<polygon fill="black" stroke="black" points="430,-1512.53 426.5,-1502.53 423,-1512.53 430,-1512.53"/>
</g>
<!-- Node0xfe6dae0 -->
<g id="node11" class="node"><title>Node0xfe6dae0</title>
<polygon fill="none" stroke="black" points="332.5,-23.5 332.5,-59.5 386.5,-59.5 386.5,-23.5 332.5,-23.5"/>
<text text-anchor="start" x="340.5" y="-37.8" font-family="Times,serif" font-size="14.00">exit:</text>
</g>
<!-- Node0xfe766c0&#45;&gt;Node0xfe6dae0 -->
<g id="edge11" class="edge"><title>Node0xfe766c0&#45;&gt;Node0xfe6dae0</title>
<path fill="none" stroke="black" d="M239.457,-360.912C270.205,-279.353 326.378,-130.355 349.325,-69.4878"/>
<polygon fill="black" stroke="black" points="352.71,-70.4309 352.963,-59.8391 346.16,-67.9615 352.71,-70.4309"/>
</g>
<!-- Node0xfe71ff0 -->
<g id="node12" class="node"><title>Node0xfe71ff0</title>
<polygon fill="none" stroke="black" points="215,-699.5 215,-1412.5 638,-1412.5 638,-699.5 215,-699.5"/>
<text text-anchor="start" x="223" y="-1397.3" font-family="Times,serif" font-size="14.00">0x427d0f:</text>
<text text-anchor="start" x="223" y="-1382.3" font-family="Times,serif" font-size="14.00"> v59 = g7</text>
<text text-anchor="start" x="223" y="-1367.3" font-family="Times,serif" font-size="14.00"> v70 = *(IntToPtrCastExpr&lt;ptr&gt;(v59))</text>
<text text-anchor="start" x="223" y="-1352.3" font-family="Times,serif" font-size="14.00"> g2 = v70</text>
<text text-anchor="start" x="223" y="-1337.3" font-family="Times,serif" font-size="14.00"> g5 = v59</text>
<text text-anchor="start" x="223" y="-1322.3" font-family="Times,serif" font-size="14.00"> v83 = *(IntToPtrCastExpr&lt;ptr&gt;(v70))</text>
<text text-anchor="start" x="223" y="-1307.3" font-family="Times,serif" font-size="14.00"> IntToPtrCastExpr&lt;ptr&gt;(v83)()</text>
<text text-anchor="start" x="223" y="-1292.3" font-family="Times,serif" font-size="14.00"> v60 = g2</text>
<text text-anchor="start" x="223" y="-1277.3" font-family="Times,serif" font-size="14.00"> v11 = IntToPtrCastExpr&lt;ptr&gt;(v60)</text>
<text text-anchor="start" x="223" y="-1262.3" font-family="Times,serif" font-size="14.00"> v32 = v11</text>
<text text-anchor="start" x="223" y="-1247.3" font-family="Times,serif" font-size="14.00"> v61 = g9</text>
<text text-anchor="start" x="223" y="-1232.3" font-family="Times,serif" font-size="14.00"> g5 = v61</text>
<text text-anchor="start" x="223" y="-1217.3" font-family="Times,serif" font-size="14.00"> v4 = v30</text>
<text text-anchor="start" x="223" y="-1202.3" font-family="Times,serif" font-size="14.00"> v6 = v28</text>
<text text-anchor="start" x="223" y="-1187.3" font-family="Times,serif" font-size="14.00"> v7 = v26</text>
<text text-anchor="start" x="223" y="-1172.3" font-family="Times,serif" font-size="14.00"> function_4279d7(v11, v4, v6, v7, v53)</text>
<text text-anchor="start" x="223" y="-1157.3" font-family="Times,serif" font-size="14.00"> v62 = g9</text>
<text text-anchor="start" x="223" y="-1142.3" font-family="Times,serif" font-size="14.00"> g5 = v62</text>
<text text-anchor="start" x="223" y="-1127.3" font-family="Times,serif" font-size="14.00"> v2 = v32</text>
<text text-anchor="start" x="223" y="-1112.3" font-family="Times,serif" font-size="14.00"> function_427545(BitCastExpr&lt;ptr&gt;(v2))</text>
<text text-anchor="start" x="223" y="-1097.3" font-family="Times,serif" font-size="14.00"> v76 = g9</text>
<text text-anchor="start" x="223" y="-1082.3" font-family="Times,serif" font-size="14.00"> v84 = *(IntToPtrCastExpr&lt;ptr&gt;((v76 + 56)))</text>
<text text-anchor="start" x="223" y="-1067.3" font-family="Times,serif" font-size="14.00"> g5 = v84</text>
<text text-anchor="start" x="223" y="-1052.3" font-family="Times,serif" font-size="14.00"> v63 = g7</text>
<text text-anchor="start" x="223" y="-1037.3" font-family="Times,serif" font-size="14.00"> v12 = IntToPtrCastExpr&lt;ptr&gt;(v63)</text>
<text text-anchor="start" x="223" y="-1022.3" font-family="Times,serif" font-size="14.00"> v34 = v12</text>
<text text-anchor="start" x="223" y="-1007.3" font-family="Times,serif" font-size="14.00"> v5 = v32</text>
<text text-anchor="start" x="223" y="-992.3" font-family="Times,serif" font-size="14.00"> v8 = v30</text>
<text text-anchor="start" x="223" y="-977.3" font-family="Times,serif" font-size="14.00"> v21 = function_41b577(v12, BitCastExpr&lt;ptr&gt;(v5), v8)</text>
<text text-anchor="start" x="223" y="-962.3" font-family="Times,serif" font-size="14.00"> v77 = g9</text>
<text text-anchor="start" x="223" y="-947.3" font-family="Times,serif" font-size="14.00"> v85 = *(IntToPtrCastExpr&lt;ptr&gt;((v77 + 52)))</text>
<text text-anchor="start" x="223" y="-932.3" font-family="Times,serif" font-size="14.00"> *(IntToPtrCastExpr&lt;ptr&gt;(v21)) = v85</text>
<text text-anchor="start" x="223" y="-917.3" font-family="Times,serif" font-size="14.00"> v78 = g9</text>
<text text-anchor="start" x="223" y="-902.3" font-family="Times,serif" font-size="14.00"> v14 = IntToPtrCastExpr&lt;ptr&gt;((v78 + 52))</text>
<text text-anchor="start" x="223" y="-887.3" font-family="Times,serif" font-size="14.00"> v86 = *(v14)</text>
<text text-anchor="start" x="223" y="-872.3" font-family="Times,serif" font-size="14.00"> v1 = (v86 + 1)</text>
<text text-anchor="start" x="223" y="-857.3" font-family="Times,serif" font-size="14.00"> g207 = (v1 == 0)</text>
<text text-anchor="start" x="223" y="-842.3" font-family="Times,serif" font-size="14.00"> *(v14) = v1</text>
<text text-anchor="start" x="223" y="-827.3" font-family="Times,serif" font-size="14.00"> v64 = g7</text>
<text text-anchor="start" x="223" y="-812.3" font-family="Times,serif" font-size="14.00"> v71 = *(IntToPtrCastExpr&lt;ptr&gt;(v64))</text>
<text text-anchor="start" x="223" y="-797.3" font-family="Times,serif" font-size="14.00"> v65 = g9</text>
<text text-anchor="start" x="223" y="-782.3" font-family="Times,serif" font-size="14.00"> v36 = IntToPtrCastExpr&lt;ptr&gt;(v65)</text>
<text text-anchor="start" x="223" y="-767.3" font-family="Times,serif" font-size="14.00"> g10 = PtrToIntCastExpr&lt;int32&gt;(&amp;(v36))</text>
<text text-anchor="start" x="223" y="-752.3" font-family="Times,serif" font-size="14.00"> g5 = v64</text>
<text text-anchor="start" x="223" y="-737.3" font-family="Times,serif" font-size="14.00"> v87 = *(IntToPtrCastExpr&lt;ptr&gt;((v71 + 8)))</text>
<text text-anchor="start" x="223" y="-722.3" font-family="Times,serif" font-size="14.00"> IntToPtrCastExpr&lt;ptr&gt;(v87)(v65)</text>
<text text-anchor="start" x="223" y="-707.3" font-family="Times,serif" font-size="14.00"> v25 = v71</text>
</g>
<!-- Node0xfe77760&#45;&gt;Node0xfe71ff0 -->
<g id="edge12" class="edge"><title>Node0xfe77760&#45;&gt;Node0xfe71ff0</title>
<path fill="none" stroke="black" d="M426.5,-1464.49C426.5,-1454.24 426.5,-1440.06 426.5,-1423.11"/>
<polygon fill="black" stroke="black" points="430,-1422.82 426.5,-1412.82 423,-1422.82 430,-1422.82"/>
<text text-anchor="middle" x="461" y="-1434.8" font-family="Times,serif" font-size="14.00">v69 == 0</text>
</g>
<!-- Node0xfe789e0 -->
<g id="node13" class="node"><title>Node0xfe789e0</title>
<polygon fill="none" stroke="black" points="656,-1022 656,-1090 761,-1090 761,-1022 656,-1022"/>
<text text-anchor="start" x="664" y="-1074.8" font-family="Times,serif" font-size="14.00">0x427cec:</text>
<text text-anchor="start" x="664" y="-1059.8" font-family="Times,serif" font-size="14.00"> g2 = 32767</text>
<text text-anchor="start" x="664" y="-1044.8" font-family="Times,serif" font-size="14.00"> v56 = g9</text>
<text text-anchor="start" x="664" y="-1029.8" font-family="Times,serif" font-size="14.00"> g5 = v56</text>
</g>
<!-- Node0xfe77760&#45;&gt;Node0xfe789e0 -->
<g id="edge13" class="edge"><title>Node0xfe77760&#45;&gt;Node0xfe789e0</title>
<path fill="none" stroke="black" d="M483.897,-1480.46C534.591,-1475.43 606.623,-1459.8 647.5,-1413 724.951,-1324.32 721.603,-1174.21 714.316,-1100.49"/>
<polygon fill="black" stroke="black" points="717.758,-1099.76 713.222,-1090.19 710.798,-1100.5 717.758,-1099.76"/>
<text text-anchor="middle" x="656" y="-1434.8" font-family="Times,serif" font-size="14.00">v69 != 0</text>
</g>
<!-- Node0xfe716e0 -->
<g id="node14" class="node"><title>Node0xfe716e0</title>
<polygon fill="none" stroke="black" points="230.5,-548.5 230.5,-661.5 526.5,-661.5 526.5,-548.5 230.5,-548.5"/>
<text text-anchor="start" x="238.5" y="-646.3" font-family="Times,serif" font-size="14.00">0x427d3d:</text>
<text text-anchor="start" x="238.5" y="-631.3" font-family="Times,serif" font-size="14.00"> v66 = g10</text>
<text text-anchor="start" x="238.5" y="-616.3" font-family="Times,serif" font-size="14.00"> v72 = *(IntToPtrCastExpr&lt;ptr&gt;(v66))</text>
<text text-anchor="start" x="238.5" y="-601.3" font-family="Times,serif" font-size="14.00"> v79 = (v66 + 4)</text>
<text text-anchor="start" x="238.5" y="-586.3" font-family="Times,serif" font-size="14.00"> g4 = v72</text>
<text text-anchor="start" x="238.5" y="-571.3" font-family="Times,serif" font-size="14.00"> v67 = v79</text>
<text text-anchor="start" x="238.5" y="-556.3" font-family="Times,serif" font-size="14.00"> result = v25</text>
</g>
<!-- Node0xfe71ff0&#45;&gt;Node0xfe716e0 -->
<g id="edge14" class="edge"><title>Node0xfe71ff0&#45;&gt;Node0xfe716e0</title>
<path fill="none" stroke="black" d="M388.475,-699.306C387.437,-689.594 386.452,-680.388 385.536,-671.813"/>
<polygon fill="black" stroke="black" points="388.995,-671.247 384.452,-661.676 382.035,-671.991 388.995,-671.247"/>
</g>
<!-- Node0xfe720a0 -->
<g id="node15" class="node"><title>Node0xfe720a0</title>
<polygon fill="none" stroke="black" points="639.5,-586 639.5,-624 777.5,-624 777.5,-586 639.5,-586"/>
<text text-anchor="start" x="647.5" y="-608.8" font-family="Times,serif" font-size="14.00">if (v69 &gt; 32766):</text>
<text text-anchor="start" x="647.5" y="-593.8" font-family="Times,serif" font-size="14.00"> else:</text>
</g>
<!-- Node0xfe789e0&#45;&gt;Node0xfe720a0 -->
<g id="edge15" class="edge"><title>Node0xfe789e0&#45;&gt;Node0xfe720a0</title>
<path fill="none" stroke="black" d="M708.5,-1021.98C708.5,-937.458 708.5,-714.314 708.5,-634.716"/>
<polygon fill="black" stroke="black" points="712,-634.466 708.5,-624.466 705,-634.466 712,-634.466"/>
</g>
<!-- Node0xfe716e0&#45;&gt;Node0xfe766c0 -->
<g id="edge16" class="edge"><title>Node0xfe716e0&#45;&gt;Node0xfe766c0</title>
<path fill="none" stroke="black" d="M330.495,-548.344C312.459,-527.434 291.826,-503.512 273.224,-481.946"/>
<polygon fill="black" stroke="black" points="275.653,-479.403 266.471,-474.117 270.353,-483.975 275.653,-479.403"/>
</g>
<!-- Node0xfe73350 -->
<g id="node16" class="node"><title>Node0xfe73350</title>
<polygon fill="none" stroke="black" points="405,-338.5 405,-496.5 702,-496.5 702,-338.5 405,-338.5"/>
<text text-anchor="start" x="413" y="-481.3" font-family="Times,serif" font-size="14.00">0x427cff:</text>
<text text-anchor="start" x="413" y="-466.3" font-family="Times,serif" font-size="14.00"> v32 = IntToPtrCastExpr&lt;ptr&gt;(32767)</text>
<text text-anchor="start" x="413" y="-451.3" font-family="Times,serif" font-size="14.00"> function_423d94()</text>
<text text-anchor="start" x="413" y="-436.3" font-family="Times,serif" font-size="14.00"> v57 = g4</text>
<text text-anchor="start" x="413" y="-421.3" font-family="Times,serif" font-size="14.00"> v10 = IntToPtrCastExpr&lt;ptr&gt;(v57)</text>
<text text-anchor="start" x="413" y="-406.3" font-family="Times,serif" font-size="14.00"> v34 = v10</text>
<text text-anchor="start" x="413" y="-391.3" font-family="Times,serif" font-size="14.00"> v58 = g9</text>
<text text-anchor="start" x="413" y="-376.3" font-family="Times,serif" font-size="14.00"> g5 = v58</text>
<text text-anchor="start" x="413" y="-361.3" font-family="Times,serif" font-size="14.00"> v24 = function_423dce(v10)</text>
<text text-anchor="start" x="413" y="-346.3" font-family="Times,serif" font-size="14.00"> v25 = v24</text>
</g>
<!-- Node0xfe720a0&#45;&gt;Node0xfe73350 -->
<g id="edge17" class="edge"><title>Node0xfe720a0&#45;&gt;Node0xfe73350</title>
<path fill="none" stroke="black" d="M693.356,-585.876C677.345,-566.714 650.91,-535.077 625.308,-504.437"/>
<polygon fill="black" stroke="black" points="627.921,-502.107 618.823,-496.677 622.55,-506.595 627.921,-502.107"/>
<text text-anchor="middle" x="691" y="-518.8" font-family="Times,serif" font-size="14.00">v69 &gt; 32766</text>
</g>
<!-- Node0xfe731b0 -->
<g id="node17" class="node"><title>Node0xfe731b0</title>
<polygon fill="none" stroke="black" points="720.5,-383.5 720.5,-451.5 998.5,-451.5 998.5,-383.5 720.5,-383.5"/>
<text text-anchor="start" x="728.5" y="-436.3" font-family="Times,serif" font-size="14.00">0x427cf7:</text>
<text text-anchor="start" x="728.5" y="-421.3" font-family="Times,serif" font-size="14.00"> v32 = IntToPtrCastExpr&lt;ptr&gt;(v69)</text>
<text text-anchor="start" x="728.5" y="-406.3" font-family="Times,serif" font-size="14.00"> v23 = function_423d94()</text>
<text text-anchor="start" x="728.5" y="-391.3" font-family="Times,serif" font-size="14.00"> v25 = v23</text>
</g>
<!-- Node0xfe720a0&#45;&gt;Node0xfe731b0 -->
<g id="edge18" class="edge"><title>Node0xfe720a0&#45;&gt;Node0xfe731b0</title>
<path fill="none" stroke="black" d="M723.253,-585.876C746.879,-556.853 793.8,-499.211 825.913,-459.761"/>
<polygon fill="black" stroke="black" points="828.928,-461.601 832.527,-451.636 823.499,-457.182 828.928,-461.601"/>
<text text-anchor="middle" x="831" y="-518.8" font-family="Times,serif" font-size="14.00">v69 &lt;= 32766</text>
</g>
<!-- Node0xfe72c00 -->
<g id="node18" class="node"><title>Node0xfe72c00</title>
<polygon fill="none" stroke="black" points="385,-97.5 385,-300.5 722,-300.5 722,-97.5 385,-97.5"/>
<text text-anchor="start" x="393" y="-285.3" font-family="Times,serif" font-size="14.00">0x427d3d:</text>
<text text-anchor="start" x="393" y="-270.3" font-family="Times,serif" font-size="14.00"> v66 = g10</text>
<text text-anchor="start" x="393" y="-255.3" font-family="Times,serif" font-size="14.00"> v72 = *(IntToPtrCastExpr&lt;ptr&gt;(v66))</text>
<text text-anchor="start" x="393" y="-240.3" font-family="Times,serif" font-size="14.00"> v79 = (v66 + 4)</text>
<text text-anchor="start" x="393" y="-225.3" font-family="Times,serif" font-size="14.00"> g4 = v72</text>
<text text-anchor="start" x="393" y="-210.3" font-family="Times,serif" font-size="14.00"> v67 = v79</text>
<text text-anchor="start" x="393" y="-195.3" font-family="Times,serif" font-size="14.00"> result = v25</text>
<text text-anchor="start" x="393" y="-180.3" font-family="Times,serif" font-size="14.00"> v73 = *(IntToPtrCastExpr&lt;ptr&gt;(v67))</text>
<text text-anchor="start" x="393" y="-165.3" font-family="Times,serif" font-size="14.00"> g7 = v73</text>
<text text-anchor="start" x="393" y="-150.3" font-family="Times,serif" font-size="14.00"> v74 = *(IntToPtrCastExpr&lt;ptr&gt;((v67 + 4)))</text>
<text text-anchor="start" x="393" y="-135.3" font-family="Times,serif" font-size="14.00"> g9 = v74</text>
<text text-anchor="start" x="393" y="-120.3" font-family="Times,serif" font-size="14.00"> g10 = (v67 + 16)</text>
<text text-anchor="start" x="393" y="-105.3" font-family="Times,serif" font-size="14.00"> return result</text>
</g>
<!-- Node0xfe73350&#45;&gt;Node0xfe72c00 -->
<g id="edge19" class="edge"><title>Node0xfe73350&#45;&gt;Node0xfe72c00</title>
<path fill="none" stroke="black" d="M553.5,-338.339C553.5,-329.355 553.5,-320.071 553.5,-310.762"/>
<polygon fill="black" stroke="black" points="557,-310.664 553.5,-300.664 550,-310.664 557,-310.664"/>
</g>
<!-- Node0xfe731b0&#45;&gt;Node0xfe72c00 -->
<g id="edge20" class="edge"><title>Node0xfe731b0&#45;&gt;Node0xfe72c00</title>
<path fill="none" stroke="black" d="M812.692,-383.383C783.307,-362.592 743.61,-334.506 704.124,-306.569"/>
<polygon fill="black" stroke="black" points="705.89,-303.531 695.705,-300.612 701.847,-309.245 705.89,-303.531"/>
</g>
<!-- Node0xfe72c00&#45;&gt;Node0xfe6dae0 -->
<g id="edge21" class="edge"><title>Node0xfe72c00&#45;&gt;Node0xfe6dae0</title>
<path fill="none" stroke="black" d="M427.897,-97.3235C413.501,-85.7845 400.028,-74.9854 388.911,-66.0741"/>
<polygon fill="black" stroke="black" points="390.884,-63.17 380.892,-59.6466 386.506,-68.632 390.884,-63.17"/>
</g>
</g>
</svg>
