<?xml version="1.0" encoding="UTF-8" standalone="no"?>
<!DOCTYPE svg PUBLIC "-//W3C//DTD SVG 1.1//EN"
 "http://www.w3.org/Graphics/SVG/1.1/DTD/svg11.dtd">
<!-- Generated by graphviz version 2.38.0 (20140413.2041)
 -->
<!-- Title: Control&#45;flow graph for function &#39;function_42ab10(**a1, *a2, *a3)&#39;. Pages: 1 -->
<svg width="1436pt" height="1822pt"
 viewBox="0.00 0.00 1435.79 1822.00" xmlns="http://www.w3.org/2000/svg" xmlns:xlink="http://www.w3.org/1999/xlink">
<g id="graph0" class="graph" transform="scale(1 1) rotate(0) translate(4 1818)">
<title>Control&#45;flow graph for function &#39;function_42ab10(**a1, *a2, *a3)&#39;.</title>
<polygon fill="white" stroke="none" points="-4,4 -4,-1818 1431.79,-1818 1431.79,4 -4,4"/>
<text text-anchor="middle" x="713.894" y="-7.8" font-family="Times,serif" font-size="14.00">Control&#45;flow graph for function &#39;function_42ab10(**a1, *a2, *a3)&#39;.</text>
<!-- Node0xff8d940 -->
<g id="node1" class="node"><title>Node0xff8d940</title>
<polygon fill="none" stroke="black" points="682.289,-1745.5 682.289,-1813.5 741.289,-1813.5 741.289,-1745.5 682.289,-1745.5"/>
<text text-anchor="start" x="690.289" y="-1798.3" font-family="Times,serif" font-size="14.00">entry:</text>
<text text-anchor="start" x="690.289" y="-1783.3" font-family="Times,serif" font-size="14.00"> a1</text>
<text text-anchor="start" x="690.289" y="-1768.3" font-family="Times,serif" font-size="14.00"> a2</text>
<text text-anchor="start" x="690.289" y="-1753.3" font-family="Times,serif" font-size="14.00"> a3</text>
</g>
<!-- Node0xff988d0 -->
<g id="node2" class="node"><title>Node0xff988d0</title>
<polygon fill="none" stroke="black" points="524.289,-1384.5 524.289,-1707.5 899.289,-1707.5 899.289,-1384.5 524.289,-1384.5"/>
<text text-anchor="start" x="532.289" y="-1692.3" font-family="Times,serif" font-size="14.00">v1</text>
<text text-anchor="start" x="532.289" y="-1677.3" font-family="Times,serif" font-size="14.00"> v2</text>
<text text-anchor="start" x="532.289" y="-1662.3" font-family="Times,serif" font-size="14.00"> v3</text>
<text text-anchor="start" x="532.289" y="-1647.3" font-family="Times,serif" font-size="14.00"> v4</text>
<text text-anchor="start" x="532.289" y="-1632.3" font-family="Times,serif" font-size="14.00"> v5</text>
<text text-anchor="start" x="532.289" y="-1617.3" font-family="Times,serif" font-size="14.00"> v6</text>
<text text-anchor="start" x="532.289" y="-1602.3" font-family="Times,serif" font-size="14.00"> v7</text>
<text text-anchor="start" x="532.289" y="-1587.3" font-family="Times,serif" font-size="14.00"> v8</text>
<text text-anchor="start" x="532.289" y="-1572.3" font-family="Times,serif" font-size="14.00"> v9</text>
<text text-anchor="start" x="532.289" y="-1557.3" font-family="Times,serif" font-size="14.00"> result</text>
<text text-anchor="start" x="532.289" y="-1542.3" font-family="Times,serif" font-size="14.00"> v10</text>
<text text-anchor="start" x="532.289" y="-1527.3" font-family="Times,serif" font-size="14.00"> v11</text>
<text text-anchor="start" x="532.289" y="-1512.3" font-family="Times,serif" font-size="14.00"> v12</text>
<text text-anchor="start" x="532.289" y="-1497.3" font-family="Times,serif" font-size="14.00"> v4 = v5</text>
<text text-anchor="start" x="532.289" y="-1482.3" font-family="Times,serif" font-size="14.00"> g3 = PtrToIntCastExpr&lt;int32&gt;(&amp;(v4))</text>
<text text-anchor="start" x="532.289" y="-1467.3" font-family="Times,serif" font-size="14.00"> v11 = PtrToIntCastExpr&lt;int32&gt;(a1)</text>
<text text-anchor="start" x="532.289" y="-1452.3" font-family="Times,serif" font-size="14.00"> g2 = v11</text>
<text text-anchor="start" x="532.289" y="-1437.3" font-family="Times,serif" font-size="14.00"> *(BitCastExpr&lt;ptr&gt;(a1)) = 255</text>
<text text-anchor="start" x="532.289" y="-1422.3" font-family="Times,serif" font-size="14.00"> v3 = (PtrToIntCastExpr&lt;int32&gt;(a3) * 16777216)</text>
<text text-anchor="start" x="532.289" y="-1407.3" font-family="Times,serif" font-size="14.00"> v2 = (v3 / 16777216)</text>
<text text-anchor="start" x="532.289" y="-1392.3" font-family="Times,serif" font-size="14.00"> v12 = (v2 + &#45;48)</text>
</g>
<!-- Node0xff8d940&#45;&gt;Node0xff988d0 -->
<g id="edge1" class="edge"><title>Node0xff8d940&#45;&gt;Node0xff988d0</title>
<path fill="none" stroke="black" d="M711.789,-1745.33C711.789,-1737.17 711.789,-1727.87 711.789,-1717.86"/>
<polygon fill="black" stroke="black" points="715.289,-1717.61 711.789,-1707.61 708.289,-1717.61 715.289,-1717.61"/>
</g>
<!-- Node0xff9bde0 -->
<g id="node3" class="node"><title>Node0xff9bde0</title>
<polygon fill="none" stroke="black" points="629.289,-1308.5 629.289,-1346.5 794.289,-1346.5 794.289,-1308.5 629.289,-1308.5"/>
<text text-anchor="start" x="637.289" y="-1331.3" font-family="Times,serif" font-size="14.00">if (v3 &lt; 805306368):</text>
<text text-anchor="start" x="637.289" y="-1316.3" font-family="Times,serif" font-size="14.00"> else:</text>
</g>
<!-- Node0xff988d0&#45;&gt;Node0xff9bde0 -->
<g id="edge2" class="edge"><title>Node0xff988d0&#45;&gt;Node0xff9bde0</title>
<path fill="none" stroke="black" d="M711.789,-1384.25C711.789,-1374.15 711.789,-1364.85 711.789,-1356.86"/>
<polygon fill="black" stroke="black" points="715.289,-1356.82 711.789,-1346.82 708.289,-1356.82 715.289,-1356.82"/>
</g>
<!-- Node0xff9b1e0 -->
<g id="node4" class="node"><title>Node0xff9b1e0</title>
<polygon fill="none" stroke="black" points="494.789,-1196 494.789,-1249 664.789,-1249 664.789,-1196 494.789,-1196"/>
<text text-anchor="start" x="502.789" y="-1233.8" font-family="Times,serif" font-size="14.00">0x42ab25:</text>
<text text-anchor="start" x="502.789" y="-1218.8" font-family="Times,serif" font-size="14.00"> if (v3 &gt; 956301312):</text>
<text text-anchor="start" x="502.789" y="-1203.8" font-family="Times,serif" font-size="14.00"> else:</text>
</g>
<!-- Node0xff9bde0&#45;&gt;Node0xff9b1e0 -->
<g id="edge3" class="edge"><title>Node0xff9bde0&#45;&gt;Node0xff9b1e0</title>
<path fill="none" stroke="black" d="M654.074,-1308.36C643.347,-1303.43 632.72,-1297.37 623.789,-1290 613.256,-1281.31 604.308,-1269.45 597.287,-1258.14"/>
<polygon fill="black" stroke="black" points="600.158,-1256.12 592.076,-1249.27 594.121,-1259.66 600.158,-1256.12"/>
<text text-anchor="middle" x="689.789" y="-1278.8" font-family="Times,serif" font-size="14.00">v3 &gt;= 805306368</text>
</g>
<!-- Node0xff989a0 -->
<g id="node5" class="node"><title>Node0xff989a0</title>
<polygon fill="none" stroke="black" points="699.789,-1188.5 699.789,-1256.5 947.789,-1256.5 947.789,-1188.5 699.789,-1188.5"/>
<text text-anchor="start" x="707.789" y="-1241.3" font-family="Times,serif" font-size="14.00">0x42ab58:</text>
<text text-anchor="start" x="707.789" y="-1226.3" font-family="Times,serif" font-size="14.00"> g2 = v2</text>
<text text-anchor="start" x="707.789" y="-1211.3" font-family="Times,serif" font-size="14.00"> v10 = *(BitCastExpr&lt;ptr&gt;(a1))</text>
<text text-anchor="start" x="707.789" y="-1196.3" font-family="Times,serif" font-size="14.00"> result = &#45;6</text>
</g>
<!-- Node0xff9bde0&#45;&gt;Node0xff989a0 -->
<g id="edge4" class="edge"><title>Node0xff9bde0&#45;&gt;Node0xff989a0</title>
<path fill="none" stroke="black" d="M737.285,-1308.26C744.729,-1302.64 752.751,-1296.26 759.789,-1290 768.859,-1281.93 778.167,-1272.81 786.778,-1263.96"/>
<polygon fill="black" stroke="black" points="789.419,-1266.27 793.827,-1256.63 784.373,-1261.42 789.419,-1266.27"/>
<text text-anchor="middle" x="833.789" y="-1278.8" font-family="Times,serif" font-size="14.00">v3 &lt; 805306368</text>
</g>
<!-- Node0xe7bc540 -->
<g id="node6" class="node"><title>Node0xe7bc540</title>
<polygon fill="none" stroke="black" points="246.289,-1091 246.289,-1129 437.289,-1129 437.289,-1091 246.289,-1091"/>
<text text-anchor="start" x="254.289" y="-1113.8" font-family="Times,serif" font-size="14.00">0x42ab3a:</text>
<text text-anchor="start" x="254.289" y="-1098.8" font-family="Times,serif" font-size="14.00"> if (v3 &gt;= 1090519040):</text>
</g>
<!-- Node0xff9b1e0&#45;&gt;Node0xe7bc540 -->
<g id="edge5" class="edge"><title>Node0xff9b1e0&#45;&gt;Node0xe7bc540</title>
<path fill="none" stroke="black" d="M515.303,-1195.92C496.015,-1187.95 474.915,-1178.9 455.789,-1170 431.677,-1158.78 405.272,-1145.2 383.951,-1133.9"/>
<polygon fill="black" stroke="black" points="385.315,-1130.66 374.844,-1129.04 382.024,-1136.83 385.315,-1130.66"/>
<text text-anchor="middle" x="515.789" y="-1158.8" font-family="Times,serif" font-size="14.00">v3 &gt; 956301312</text>
</g>
<!-- Node0xff8cde0 -->
<g id="node7" class="node"><title>Node0xff8cde0</title>
<polygon fill="none" stroke="black" points="455.789,-1083.5 455.789,-1136.5 703.789,-1136.5 703.789,-1083.5 455.789,-1083.5"/>
<text text-anchor="start" x="463.789" y="-1121.3" font-family="Times,serif" font-size="14.00">0x42ab2e:</text>
<text text-anchor="start" x="463.789" y="-1106.3" font-family="Times,serif" font-size="14.00"> g2 = v12</text>
<text text-anchor="start" x="463.789" y="-1091.3" font-family="Times,serif" font-size="14.00"> *(BitCastExpr&lt;ptr&gt;(a1)) = v12</text>
</g>
<!-- Node0xff9b1e0&#45;&gt;Node0xff8cde0 -->
<g id="edge6" class="edge"><title>Node0xff9b1e0&#45;&gt;Node0xff8cde0</title>
<path fill="none" stroke="black" d="M579.789,-1195.87C579.789,-1181.33 579.789,-1162.91 579.789,-1146.94"/>
<polygon fill="black" stroke="black" points="583.289,-1146.87 579.789,-1136.87 576.289,-1146.87 583.289,-1146.87"/>
<text text-anchor="middle" x="645.789" y="-1158.8" font-family="Times,serif" font-size="14.00">v3 &lt;= 956301312</text>
</g>
<!-- Node0xff98a00 -->
<g id="node8" class="node"><title>Node0xff98a00</title>
<polygon fill="none" stroke="black" points="721.789,-1092 721.789,-1128 1031.79,-1128 1031.79,-1092 721.789,-1092"/>
<text text-anchor="start" x="729.789" y="-1106.3" font-family="Times,serif" font-size="14.00">if (v10 &lt; PtrToIntCastExpr&lt;int32&gt;(a2)):</text>
</g>
<!-- Node0xff989a0&#45;&gt;Node0xff98a00 -->
<g id="edge7" class="edge"><title>Node0xff989a0&#45;&gt;Node0xff98a00</title>
<path fill="none" stroke="black" d="M839.691,-1188.35C847.495,-1172.08 856.766,-1152.74 864.089,-1137.48"/>
<polygon fill="black" stroke="black" points="867.415,-1138.64 868.584,-1128.11 861.103,-1135.61 867.415,-1138.64"/>
</g>
<!-- Node0xff98010 -->
<g id="node9" class="node"><title>Node0xff98010</title>
<polygon fill="none" stroke="black" points="225.789,-978.5 225.789,-1016.5 317.789,-1016.5 317.789,-978.5 225.789,-978.5"/>
<text text-anchor="start" x="233.789" y="-1001.3" font-family="Times,serif" font-size="14.00">0x42ab43:</text>
<text text-anchor="start" x="233.789" y="-986.3" font-family="Times,serif" font-size="14.00"> g2 = v2</text>
</g>
<!-- Node0xe7bc540&#45;&gt;Node0xff98010 -->
<g id="edge8" class="edge"><title>Node0xe7bc540&#45;&gt;Node0xff98010</title>
<path fill="none" stroke="black" d="M299.156,-1090.9C288.712,-1084.33 278.813,-1075.79 272.789,-1065 266.434,-1053.61 265.491,-1039.33 266.422,-1026.93"/>
<polygon fill="black" stroke="black" points="269.941,-1026.97 267.633,-1016.63 262.989,-1026.15 269.941,-1026.97"/>
<text text-anchor="middle" x="343.289" y="-1053.8" font-family="Times,serif" font-size="14.00">v3 &gt;= 1090519040</text>
</g>
<!-- Node0xff8c7c0 -->
<g id="node10" class="node"><title>Node0xff8c7c0</title>
<polygon fill="none" stroke="black" points="418.789,-963.5 418.789,-1031.5 666.789,-1031.5 666.789,-963.5 418.789,-963.5"/>
<text text-anchor="start" x="426.789" y="-1016.3" font-family="Times,serif" font-size="14.00">0x42ab58:</text>
<text text-anchor="start" x="426.789" y="-1001.3" font-family="Times,serif" font-size="14.00"> g2 = v2</text>
<text text-anchor="start" x="426.789" y="-986.3" font-family="Times,serif" font-size="14.00"> v10 = *(BitCastExpr&lt;ptr&gt;(a1))</text>
<text text-anchor="start" x="426.789" y="-971.3" font-family="Times,serif" font-size="14.00"> result = &#45;6</text>
</g>
<!-- Node0xe7bc540&#45;&gt;Node0xff8c7c0 -->
<g id="edge9" class="edge"><title>Node0xe7bc540&#45;&gt;Node0xff8c7c0</title>
<path fill="none" stroke="black" d="M373.141,-1090.95C385.964,-1083.29 400.807,-1074.04 413.789,-1065 422.617,-1058.85 423.634,-1055.65 432.789,-1050 440.497,-1045.24 448.716,-1040.63 457.058,-1036.25"/>
<polygon fill="black" stroke="black" points="458.838,-1039.27 466.138,-1031.59 455.643,-1033.04 458.838,-1039.27"/>
<text text-anchor="middle" x="497.289" y="-1053.8" font-family="Times,serif" font-size="14.00">v3 &lt; 1090519040</text>
</g>
<!-- Node0xff8cde0&#45;&gt;Node0xff8c7c0 -->
<g id="edge10" class="edge"><title>Node0xff8cde0&#45;&gt;Node0xff8c7c0</title>
<path fill="none" stroke="black" d="M574.818,-1083.44C572.497,-1072.95 569.436,-1060.77 565.789,-1050 564.8,-1047.08 563.707,-1044.1 562.549,-1041.12"/>
<polygon fill="black" stroke="black" points="565.707,-1039.59 558.684,-1031.66 559.227,-1042.24 565.707,-1039.59"/>
</g>
<!-- Node0xe7bc4c0 -->
<g id="node11" class="node"><title>Node0xe7bc4c0</title>
<polygon fill="none" stroke="black" points="918.289,-978.5 918.289,-1016.5 1011.29,-1016.5 1011.29,-978.5 918.289,-978.5"/>
<text text-anchor="start" x="926.289" y="-1001.3" font-family="Times,serif" font-size="14.00">0x42ab87:</text>
<text text-anchor="start" x="926.289" y="-986.3" font-family="Times,serif" font-size="14.00"> result = 0</text>
</g>
<!-- Node0xff98a00&#45;&gt;Node0xe7bc4c0 -->
<g id="edge11" class="edge"><title>Node0xff98a00&#45;&gt;Node0xe7bc4c0</title>
<path fill="none" stroke="black" d="M868.068,-1091.83C863.071,-1079.4 859.16,-1062.63 866.789,-1050 876.349,-1034.18 892.56,-1022.97 909.075,-1015.15"/>
<polygon fill="black" stroke="black" points="910.478,-1018.36 918.24,-1011.15 907.675,-1011.94 910.478,-1018.36"/>
<text text-anchor="middle" x="999.289" y="-1053.8" font-family="Times,serif" font-size="14.00">v10 &lt; PtrToIntCastExpr&lt;int32&gt;(a2)</text>
</g>
<!-- Node0xff9b0f0 -->
<g id="node12" class="node"><title>Node0xff9b0f0</title>
<polygon fill="none" stroke="black" points="1067.29,-872.5 1067.29,-925.5 1180.29,-925.5 1180.29,-872.5 1067.29,-872.5"/>
<text text-anchor="start" x="1075.29" y="-910.3" font-family="Times,serif" font-size="14.00">0x42ab89:</text>
<text text-anchor="start" x="1075.29" y="-895.3" font-family="Times,serif" font-size="14.00"> g3 = v5</text>
<text text-anchor="start" x="1075.29" y="-880.3" font-family="Times,serif" font-size="14.00"> return result</text>
</g>
<!-- Node0xff98a00&#45;&gt;Node0xff9b0f0 -->
<g id="edge12" class="edge"><title>Node0xff98a00&#45;&gt;Node0xff9b0f0</title>
<path fill="none" stroke="black" d="M1032.09,-1098.65C1076.92,-1092.23 1117.61,-1081.84 1131.79,-1065 1161.85,-1029.31 1150.47,-972.337 1138.18,-935.55"/>
<polygon fill="black" stroke="black" points="1141.35,-934.012 1134.72,-925.744 1134.75,-936.339 1141.35,-934.012"/>
<text text-anchor="middle" x="1289.29" y="-993.8" font-family="Times,serif" font-size="14.00">v10 &gt;= PtrToIntCastExpr&lt;int32&gt;(a2)</text>
</g>
<!-- Node0xff9b260 -->
<g id="node13" class="node"><title>Node0xff9b260</title>
<polygon fill="none" stroke="black" points="184.789,-880 184.789,-918 358.789,-918 358.789,-880 184.789,-880"/>
<text text-anchor="start" x="192.789" y="-902.8" font-family="Times,serif" font-size="14.00">if (v3 &gt; 1174405120):</text>
<text text-anchor="start" x="192.789" y="-887.8" font-family="Times,serif" font-size="14.00"> else:</text>
</g>
<!-- Node0xff98010&#45;&gt;Node0xff9b260 -->
<g id="edge13" class="edge"><title>Node0xff98010&#45;&gt;Node0xff9b260</title>
<path fill="none" stroke="black" d="M271.789,-978.349C271.789,-964.197 271.789,-944.292 271.789,-928.087"/>
<polygon fill="black" stroke="black" points="275.289,-928.069 271.789,-918.07 268.289,-928.07 275.289,-928.069"/>
</g>
<!-- Node0xff8cb20 -->
<g id="node14" class="node"><title>Node0xff8cb20</title>
<polygon fill="none" stroke="black" points="387.789,-881 387.789,-917 697.789,-917 697.789,-881 387.789,-881"/>
<text text-anchor="start" x="395.789" y="-895.3" font-family="Times,serif" font-size="14.00">if (v10 &lt; PtrToIntCastExpr&lt;int32&gt;(a2)):</text>
</g>
<!-- Node0xff8c7c0&#45;&gt;Node0xff8cb20 -->
<g id="edge14" class="edge"><title>Node0xff8c7c0&#45;&gt;Node0xff8cb20</title>
<path fill="none" stroke="black" d="M542.789,-963.29C542.789,-951.557 542.789,-938.504 542.789,-927.315"/>
<polygon fill="black" stroke="black" points="546.289,-927.263 542.789,-917.263 539.289,-927.263 546.289,-927.263"/>
</g>
<!-- Node0xe7bc4c0&#45;&gt;Node0xff9b0f0 -->
<g id="edge15" class="edge"><title>Node0xe7bc4c0&#45;&gt;Node0xff9b0f0</title>
<path fill="none" stroke="black" d="M994.696,-978.349C1016.76,-964.958 1047.31,-946.417 1073.15,-930.733"/>
<polygon fill="black" stroke="black" points="1074.98,-933.715 1081.72,-925.535 1071.35,-927.731 1074.98,-933.715"/>
</g>
<!-- Node0xff8d8c0 -->
<g id="node15" class="node"><title>Node0xff8d8c0</title>
<polygon fill="none" stroke="black" points="873.789,-23.5 873.789,-59.5 927.789,-59.5 927.789,-23.5 873.789,-23.5"/>
<text text-anchor="start" x="881.789" y="-37.8" font-family="Times,serif" font-size="14.00">exit:</text>
</g>
<!-- Node0xff9b0f0&#45;&gt;Node0xff8d8c0 -->
<g id="edge16" class="edge"><title>Node0xff9b0f0&#45;&gt;Node0xff8d8c0</title>
<path fill="none" stroke="black" d="M1123.79,-872.464C1123.79,-853.229 1123.79,-826.209 1123.79,-802.5 1123.79,-802.5 1123.79,-802.5 1123.79,-123 1123.79,-84.01 1001.66,-58.6413 938.161,-48.0868"/>
<polygon fill="black" stroke="black" points="938.564,-44.6066 928.133,-46.4621 937.445,-51.5165 938.564,-44.6066"/>
</g>
<!-- Node0xff9c640 -->
<g id="node16" class="node"><title>Node0xff9c640</title>
<polygon fill="none" stroke="black" points="158.789,-782.5 158.789,-820.5 250.789,-820.5 250.789,-782.5 158.789,-782.5"/>
<text text-anchor="start" x="166.789" y="-805.3" font-family="Times,serif" font-size="14.00">0x42ab58:</text>
<text text-anchor="start" x="166.789" y="-790.3" font-family="Times,serif" font-size="14.00"> g2 = v2</text>
</g>
<!-- Node0xff9b260&#45;&gt;Node0xff9c640 -->
<g id="edge17" class="edge"><title>Node0xff9b260&#45;&gt;Node0xff9c640</title>
<path fill="none" stroke="black" d="M245.195,-879.793C236.382,-872.634 227.198,-863.781 220.789,-854 216.171,-846.952 212.822,-838.495 210.421,-830.49"/>
<polygon fill="black" stroke="black" points="213.785,-829.518 207.863,-820.732 207.013,-831.293 213.785,-829.518"/>
<text text-anchor="middle" x="285.289" y="-842.8" font-family="Times,serif" font-size="14.00">v3 &gt; 1174405120</text>
</g>
<!-- Node0xe7bcfd0 -->
<g id="node17" class="node"><title>Node0xe7bcfd0</title>
<polygon fill="none" stroke="black" points="252.289,-710.5 252.289,-763.5 545.289,-763.5 545.289,-710.5 252.289,-710.5"/>
<text text-anchor="start" x="260.289" y="-748.3" font-family="Times,serif" font-size="14.00">0x42ab4c:</text>
<text text-anchor="start" x="260.289" y="-733.3" font-family="Times,serif" font-size="14.00"> *(BitCastExpr&lt;ptr&gt;(a1)) = (v2 + &#45;55)</text>
<text text-anchor="start" x="260.289" y="-718.3" font-family="Times,serif" font-size="14.00"> g2 = v2</text>
</g>
<!-- Node0xff9b260&#45;&gt;Node0xe7bcfd0 -->
<g id="edge18" class="edge"><title>Node0xff9b260&#45;&gt;Node0xe7bcfd0</title>
<path fill="none" stroke="black" d="M315.49,-879.884C327.792,-873.169 340.37,-864.558 349.789,-854 370.255,-831.059 383.022,-798.319 390.373,-773.468"/>
<polygon fill="black" stroke="black" points="393.784,-774.265 393.109,-763.691 387.043,-772.378 393.784,-774.265"/>
<text text-anchor="middle" x="431.289" y="-842.8" font-family="Times,serif" font-size="14.00">v3 &lt;= 1174405120</text>
</g>
<!-- Node0xff8cf30 -->
<g id="node18" class="node"><title>Node0xff8cf30</title>
<polygon fill="none" stroke="black" points="581.289,-782.5 581.289,-820.5 674.289,-820.5 674.289,-782.5 581.289,-782.5"/>
<text text-anchor="start" x="589.289" y="-805.3" font-family="Times,serif" font-size="14.00">0x42ab87:</text>
<text text-anchor="start" x="589.289" y="-790.3" font-family="Times,serif" font-size="14.00"> result = 0</text>
</g>
<!-- Node0xff8cb20&#45;&gt;Node0xff8cf30 -->
<g id="edge19" class="edge"><title>Node0xff8cb20&#45;&gt;Node0xff8cf30</title>
<path fill="none" stroke="black" d="M536.79,-880.791C533.534,-868.177 531.644,-851.197 539.789,-839 547.328,-827.711 559.079,-819.908 571.566,-814.517"/>
<polygon fill="black" stroke="black" points="573.102,-817.678 581.201,-810.847 570.61,-811.136 573.102,-817.678"/>
<text text-anchor="middle" x="672.289" y="-842.8" font-family="Times,serif" font-size="14.00">v10 &lt; PtrToIntCastExpr&lt;int32&gt;(a2)</text>
</g>
<!-- Node0xff8cd30 -->
<g id="node19" class="node"><title>Node0xff8cd30</title>
<polygon fill="none" stroke="black" points="762.289,-638.5 762.289,-691.5 875.289,-691.5 875.289,-638.5 762.289,-638.5"/>
<text text-anchor="start" x="770.289" y="-676.3" font-family="Times,serif" font-size="14.00">0x42ab89:</text>
<text text-anchor="start" x="770.289" y="-661.3" font-family="Times,serif" font-size="14.00"> g3 = v5</text>
<text text-anchor="start" x="770.289" y="-646.3" font-family="Times,serif" font-size="14.00"> return result</text>
</g>
<!-- Node0xff8cb20&#45;&gt;Node0xff8cd30 -->
<g id="edge20" class="edge"><title>Node0xff8cb20&#45;&gt;Node0xff8cd30</title>
<path fill="none" stroke="black" d="M698.07,-887.975C745.438,-881.586 789.172,-871.125 804.789,-854 824.41,-832.484 823.519,-750.046 821.151,-701.775"/>
<polygon fill="black" stroke="black" points="824.643,-701.537 820.613,-691.739 817.653,-701.912 824.643,-701.537"/>
<text text-anchor="middle" x="959.289" y="-797.8" font-family="Times,serif" font-size="14.00">v10 &gt;= PtrToIntCastExpr&lt;int32&gt;(a2)</text>
</g>
<!-- Node0xff9c6a0 -->
<g id="node20" class="node"><title>Node0xff9c6a0</title>
<polygon fill="none" stroke="black" points="50.7889,-647 50.7889,-683 236.789,-683 236.789,-647 50.7889,-647"/>
<text text-anchor="start" x="58.7889" y="-661.3" font-family="Times,serif" font-size="14.00">if (v3 &gt;= 1627389952):</text>
</g>
<!-- Node0xff9c640&#45;&gt;Node0xff9c6a0 -->
<g id="edge21" class="edge"><title>Node0xff9c640&#45;&gt;Node0xff9c6a0</title>
<path fill="none" stroke="black" d="M196.562,-782.361C186.066,-759.217 167.831,-719.01 155.785,-692.451"/>
<polygon fill="black" stroke="black" points="158.819,-690.666 151.501,-683.005 152.444,-693.557 158.819,-690.666"/>
</g>
<!-- Node0xff9c050 -->
<g id="node21" class="node"><title>Node0xff9c050</title>
<polygon fill="none" stroke="black" points="191.789,-352.5 191.789,-405.5 439.789,-405.5 439.789,-352.5 191.789,-352.5"/>
<text text-anchor="start" x="199.789" y="-390.3" font-family="Times,serif" font-size="14.00">0x42ab76:</text>
<text text-anchor="start" x="199.789" y="-375.3" font-family="Times,serif" font-size="14.00"> v10 = *(BitCastExpr&lt;ptr&gt;(a1))</text>
<text text-anchor="start" x="199.789" y="-360.3" font-family="Times,serif" font-size="14.00"> result = &#45;6</text>
</g>
<!-- Node0xe7bcfd0&#45;&gt;Node0xff9c050 -->
<g id="edge22" class="edge"><title>Node0xe7bcfd0&#45;&gt;Node0xff9c050</title>
<path fill="none" stroke="black" d="M434.594,-710.397C461.159,-688.153 492.789,-653.309 492.789,-613.5 492.789,-613.5 492.789,-613.5 492.789,-469 492.789,-440.54 474.298,-421.18 449.268,-408.01"/>
<polygon fill="black" stroke="black" points="450.689,-404.809 440.162,-403.605 447.64,-411.111 450.689,-404.809"/>
</g>
<!-- Node0xff8cf30&#45;&gt;Node0xff8cd30 -->
<g id="edge23" class="edge"><title>Node0xff8cf30&#45;&gt;Node0xff8cd30</title>
<path fill="none" stroke="black" d="M653.548,-782.361C684.409,-760.629 736.635,-723.852 774.118,-697.457"/>
<polygon fill="black" stroke="black" points="776.193,-700.276 782.354,-691.657 772.162,-694.553 776.193,-700.276"/>
</g>
<!-- Node0xff8cd30&#45;&gt;Node0xff8d8c0 -->
<g id="edge24" class="edge"><title>Node0xff8cd30&#45;&gt;Node0xff8d8c0</title>
<path fill="none" stroke="black" d="M858.348,-638.404C879.317,-621.464 900.789,-597.128 900.789,-568.5 900.789,-568.5 900.789,-568.5 900.789,-123 900.789,-105.286 900.789,-85.379 900.789,-69.7932"/>
<polygon fill="black" stroke="black" points="904.289,-69.7734 900.789,-59.7734 897.289,-69.7735 904.289,-69.7734"/>
</g>
<!-- Node0xff9c6a0&#45;&gt;Node0xff9c050 -->
<g id="edge26" class="edge"><title>Node0xff9c6a0&#45;&gt;Node0xff9c050</title>
<path fill="none" stroke="black" d="M106.904,-646.976C56.4684,-621.198 -24.3059,-569.464 7.78893,-515 44.0878,-453.402 116.141,-419.844 181.434,-401.595"/>
<polygon fill="black" stroke="black" points="182.683,-404.883 191.43,-398.904 180.864,-398.124 182.683,-404.883"/>
<text text-anchor="middle" x="72.2889" y="-518.8" font-family="Times,serif" font-size="14.00">v3 &lt; 1627389952</text>
</g>
<!-- Node0xff9cc10 -->
<g id="node22" class="node"><title>Node0xff9cc10</title>
<polygon fill="none" stroke="black" points="48.2889,-548.5 48.2889,-586.5 239.289,-586.5 239.289,-548.5 48.2889,-548.5"/>
<text text-anchor="start" x="56.2889" y="-571.3" font-family="Times,serif" font-size="14.00">0x42ab61:</text>
<text text-anchor="start" x="56.2889" y="-556.3" font-family="Times,serif" font-size="14.00"> if (v3 &lt;= 1711276032):</text>
</g>
<!-- Node0xff9c6a0&#45;&gt;Node0xff9cc10 -->
<g id="edge25" class="edge"><title>Node0xff9c6a0&#45;&gt;Node0xff9cc10</title>
<path fill="none" stroke="black" d="M143.789,-646.927C143.789,-633.019 143.789,-613.091 143.789,-596.804"/>
<polygon fill="black" stroke="black" points="147.289,-596.726 143.789,-586.726 140.289,-596.726 147.289,-596.726"/>
<text text-anchor="middle" x="214.289" y="-608.8" font-family="Times,serif" font-size="14.00">v3 &gt;= 1627389952</text>
</g>
<!-- Node0xff9c0f0 -->
<g id="node23" class="node"><title>Node0xff9c0f0</title>
<polygon fill="none" stroke="black" points="160.789,-278.5 160.789,-314.5 470.789,-314.5 470.789,-278.5 160.789,-278.5"/>
<text text-anchor="start" x="168.789" y="-292.8" font-family="Times,serif" font-size="14.00">if (v10 &lt; PtrToIntCastExpr&lt;int32&gt;(a2)):</text>
</g>
<!-- Node0xff9c050&#45;&gt;Node0xff9c0f0 -->
<g id="edge27" class="edge"><title>Node0xff9c050&#45;&gt;Node0xff9c0f0</title>
<path fill="none" stroke="black" d="M315.789,-352.086C315.789,-343.46 315.789,-333.822 315.789,-325.075"/>
<polygon fill="black" stroke="black" points="319.289,-324.973 315.789,-314.974 312.289,-324.974 319.289,-324.973"/>
</g>
<!-- Node0xff9cc10&#45;&gt;Node0xff9c050 -->
<g id="edge29" class="edge"><title>Node0xff9cc10&#45;&gt;Node0xff9c050</title>
<path fill="none" stroke="black" d="M141.254,-548.433C138.626,-522.299 137.766,-473.725 161.789,-443 172.424,-429.399 186.487,-418.714 201.799,-410.326"/>
<polygon fill="black" stroke="black" points="203.634,-413.319 210.942,-405.648 200.445,-407.087 203.634,-413.319"/>
</g>
<!-- Node0xff9cd70 -->
<g id="node24" class="node"><title>Node0xff9cd70</title>
<polygon fill="none" stroke="black" points="171.289,-443.5 171.289,-496.5 464.289,-496.5 464.289,-443.5 171.289,-443.5"/>
<text text-anchor="start" x="179.289" y="-481.3" font-family="Times,serif" font-size="14.00">0x42ab6a:</text>
<text text-anchor="start" x="179.289" y="-466.3" font-family="Times,serif" font-size="14.00"> g2 = v11</text>
<text text-anchor="start" x="179.289" y="-451.3" font-family="Times,serif" font-size="14.00"> *(BitCastExpr&lt;ptr&gt;(a1)) = (v2 + &#45;87)</text>
</g>
<!-- Node0xff9cc10&#45;&gt;Node0xff9cd70 -->
<g id="edge28" class="edge"><title>Node0xff9cc10&#45;&gt;Node0xff9cd70</title>
<path fill="none" stroke="black" d="M176.927,-548.312C201.038,-535.079 234.25,-516.85 262.369,-501.417"/>
<polygon fill="black" stroke="black" points="264.22,-504.394 271.302,-496.514 260.852,-498.258 264.22,-504.394"/>
<text text-anchor="middle" x="307.289" y="-518.8" font-family="Times,serif" font-size="14.00">v3 &lt;= 1711276032</text>
</g>
<!-- Node0xe7bd120 -->
<g id="node25" class="node"><title>Node0xe7bd120</title>
<polygon fill="none" stroke="black" points="368.289,-188.5 368.289,-226.5 461.289,-226.5 461.289,-188.5 368.289,-188.5"/>
<text text-anchor="start" x="376.289" y="-211.3" font-family="Times,serif" font-size="14.00">0x42ab87:</text>
<text text-anchor="start" x="376.289" y="-196.3" font-family="Times,serif" font-size="14.00"> result = 0</text>
</g>
<!-- Node0xff9c0f0&#45;&gt;Node0xe7bd120 -->
<g id="edge30" class="edge"><title>Node0xff9c0f0&#45;&gt;Node0xe7bd120</title>
<path fill="none" stroke="black" d="M311.551,-278.078C310.035,-267.572 310.091,-254.441 316.789,-245 326.576,-231.205 342.219,-222.616 358.159,-217.272"/>
<polygon fill="black" stroke="black" points="359.472,-220.533 368.072,-214.346 357.491,-213.82 359.472,-220.533"/>
<text text-anchor="middle" x="449.289" y="-248.8" font-family="Times,serif" font-size="14.00">v10 &lt; PtrToIntCastExpr&lt;int32&gt;(a2)</text>
</g>
<!-- Node0xff98a60 -->
<g id="node26" class="node"><title>Node0xff98a60</title>
<polygon fill="none" stroke="black" points="539.289,-97.5 539.289,-150.5 652.289,-150.5 652.289,-97.5 539.289,-97.5"/>
<text text-anchor="start" x="547.289" y="-135.3" font-family="Times,serif" font-size="14.00">0x42ab89:</text>
<text text-anchor="start" x="547.289" y="-120.3" font-family="Times,serif" font-size="14.00"> g3 = v5</text>
<text text-anchor="start" x="547.289" y="-105.3" font-family="Times,serif" font-size="14.00"> return result</text>
</g>
<!-- Node0xff9c0f0&#45;&gt;Node0xff98a60 -->
<g id="edge31" class="edge"><title>Node0xff9c0f0&#45;&gt;Node0xff98a60</title>
<path fill="none" stroke="black" d="M471.144,-290.887C519.868,-286.1 565.276,-277.004 581.789,-260 606.752,-234.294 606.998,-191.491 603.083,-160.974"/>
<polygon fill="black" stroke="black" points="606.494,-160.115 601.559,-150.74 599.57,-161.147 606.494,-160.115"/>
<text text-anchor="middle" x="744.289" y="-203.8" font-family="Times,serif" font-size="14.00">v10 &gt;= PtrToIntCastExpr&lt;int32&gt;(a2)</text>
</g>
<!-- Node0xff9cd70&#45;&gt;Node0xff9c050 -->
<g id="edge32" class="edge"><title>Node0xff9cd70&#45;&gt;Node0xff9c050</title>
<path fill="none" stroke="black" d="M317.21,-443.258C317.018,-434.678 316.799,-424.961 316.593,-415.762"/>
<polygon fill="black" stroke="black" points="320.09,-415.603 316.366,-405.685 313.092,-415.761 320.09,-415.603"/>
</g>
<!-- Node0xe7bd120&#45;&gt;Node0xff98a60 -->
<g id="edge33" class="edge"><title>Node0xe7bd120&#45;&gt;Node0xff98a60</title>
<path fill="none" stroke="black" d="M454.959,-188.413C477.035,-178.472 504.97,-165.894 530.129,-154.565"/>
<polygon fill="black" stroke="black" points="531.575,-157.753 539.256,-150.455 528.701,-151.37 531.575,-157.753"/>
</g>
<!-- Node0xff98a60&#45;&gt;Node0xff8d8c0 -->
<g id="edge34" class="edge"><title>Node0xff98a60&#45;&gt;Node0xff8d8c0</title>
<path fill="none" stroke="black" d="M652.442,-108.047C714.138,-91.7637 811.029,-66.1908 863.695,-52.2903"/>
<polygon fill="black" stroke="black" points="864.84,-55.6082 873.615,-49.672 863.053,-48.8399 864.84,-55.6082"/>
</g>
</g>
</svg>
