<?xml version="1.0" encoding="UTF-8" standalone="no"?>
<!DOCTYPE svg PUBLIC "-//W3C//DTD SVG 1.1//EN"
 "http://www.w3.org/Graphics/SVG/1.1/DTD/svg11.dtd">
<!-- Generated by graphviz version 2.38.0 (20140413.2041)
 -->
<!-- Title: Control&#45;flow graph for function &#39;function_41bb5c()&#39;. Pages: 1 -->
<svg width="394pt" height="366pt"
 viewBox="0.00 0.00 394.00 366.00" xmlns="http://www.w3.org/2000/svg" xmlns:xlink="http://www.w3.org/1999/xlink">
<g id="graph0" class="graph" transform="scale(1 1) rotate(0) translate(4 362)">
<title>Control&#45;flow graph for function &#39;function_41bb5c()&#39;.</title>
<polygon fill="white" stroke="none" points="-4,4 -4,-362 390,-362 390,4 -4,4"/>
<text text-anchor="middle" x="193" y="-7.8" font-family="Times,serif" font-size="14.00">Control&#45;flow graph for function &#39;function_41bb5c()&#39;.</text>
<!-- Node0xf67ee40 -->
<g id="node1" class="node"><title>Node0xf67ee40</title>
<polygon fill="none" stroke="black" points="163.5,-321.5 163.5,-357.5 222.5,-357.5 222.5,-321.5 163.5,-321.5"/>
<text text-anchor="start" x="171.5" y="-335.8" font-family="Times,serif" font-size="14.00">entry:</text>
</g>
<!-- Node0xf687090 -->
<g id="node2" class="node"><title>Node0xf687090</title>
<polygon fill="none" stroke="black" points="29,-96.5 29,-284.5 357,-284.5 357,-96.5 29,-96.5"/>
<text text-anchor="start" x="37" y="-269.3" font-family="Times,serif" font-size="14.00">v1</text>
<text text-anchor="start" x="37" y="-254.3" font-family="Times,serif" font-size="14.00"> v2</text>
<text text-anchor="start" x="37" y="-239.3" font-family="Times,serif" font-size="14.00"> v3</text>
<text text-anchor="start" x="37" y="-224.3" font-family="Times,serif" font-size="14.00"> v4</text>
<text text-anchor="start" x="37" y="-209.3" font-family="Times,serif" font-size="14.00"> result</text>
<text text-anchor="start" x="37" y="-194.3" font-family="Times,serif" font-size="14.00"> v5</text>
<text text-anchor="start" x="37" y="-179.3" font-family="Times,serif" font-size="14.00"> v1 = function_419f61()</text>
<text text-anchor="start" x="37" y="-164.3" font-family="Times,serif" font-size="14.00"> v5 = *(IntToPtrCastExpr&lt;ptr&gt;((v1 + 44)))</text>
<text text-anchor="start" x="37" y="-149.3" font-family="Times,serif" font-size="14.00"> g1 = False</text>
<text text-anchor="start" x="37" y="-134.3" font-family="Times,serif" font-size="14.00"> result = ExtCastExpr&lt;int32&gt;((v5 == 0))</text>
<text text-anchor="start" x="37" y="-119.3" font-family="Times,serif" font-size="14.00"> g5 = result</text>
<text text-anchor="start" x="37" y="-104.3" font-family="Times,serif" font-size="14.00"> return result</text>
</g>
<!-- Node0xf67ee40&#45;&gt;Node0xf687090 -->
<g id="edge1" class="edge"><title>Node0xf67ee40&#45;&gt;Node0xf687090</title>
<path fill="none" stroke="black" d="M193,-321.35C193,-314.079 193,-304.97 193,-294.967"/>
<polygon fill="black" stroke="black" points="196.5,-294.701 193,-284.702 189.5,-294.702 196.5,-294.701"/>
</g>
<!-- Node0xf687030 -->
<g id="node3" class="node"><title>Node0xf687030</title>
<polygon fill="none" stroke="black" points="166,-23.5 166,-59.5 220,-59.5 220,-23.5 166,-23.5"/>
<text text-anchor="start" x="174" y="-37.8" font-family="Times,serif" font-size="14.00">exit:</text>
</g>
<!-- Node0xf687090&#45;&gt;Node0xf687030 -->
<g id="edge2" class="edge"><title>Node0xf687090&#45;&gt;Node0xf687030</title>
<path fill="none" stroke="black" d="M193,-96.4027C193,-86.9531 193,-77.9697 193,-70.142"/>
<polygon fill="black" stroke="black" points="196.5,-69.9174 193,-59.9174 189.5,-69.9174 196.5,-69.9174"/>
</g>
</g>
</svg>
