<?xml version="1.0" encoding="UTF-8" standalone="no"?>
<!DOCTYPE svg PUBLIC "-//W3C//DTD SVG 1.1//EN"
 "http://www.w3.org/Graphics/SVG/1.1/DTD/svg11.dtd">
<!-- Generated by graphviz version 2.38.0 (20140413.2041)
 -->
<!-- Title: Control&#45;flow graph for function &#39;function_412e39(x, y, *lpString, *c, a5)&#39;. Pages: 1 -->
<svg width="696pt" height="533pt"
 viewBox="0.00 0.00 696.00 533.00" xmlns="http://www.w3.org/2000/svg" xmlns:xlink="http://www.w3.org/1999/xlink">
<g id="graph0" class="graph" transform="scale(1 1) rotate(0) translate(4 529)">
<title>Control&#45;flow graph for function &#39;function_412e39(x, y, *lpString, *c, a5)&#39;.</title>
<polygon fill="white" stroke="none" points="-4,4 -4,-529 692,-529 692,4 -4,4"/>
<text text-anchor="middle" x="344" y="-7.8" font-family="Times,serif" font-size="14.00">Control&#45;flow graph for function &#39;function_412e39(x, y, *lpString, *c, a5)&#39;.</text>
<!-- Node0xf301b50 -->
<g id="node1" class="node"><title>Node0xf301b50</title>
<polygon fill="none" stroke="black" points="304.5,-426.5 304.5,-524.5 383.5,-524.5 383.5,-426.5 304.5,-426.5"/>
<text text-anchor="start" x="312.5" y="-509.3" font-family="Times,serif" font-size="14.00">entry:</text>
<text text-anchor="start" x="312.5" y="-494.3" font-family="Times,serif" font-size="14.00"> x</text>
<text text-anchor="start" x="312.5" y="-479.3" font-family="Times,serif" font-size="14.00"> y</text>
<text text-anchor="start" x="312.5" y="-464.3" font-family="Times,serif" font-size="14.00"> lpString</text>
<text text-anchor="start" x="312.5" y="-449.3" font-family="Times,serif" font-size="14.00"> c</text>
<text text-anchor="start" x="312.5" y="-434.3" font-family="Times,serif" font-size="14.00"> a5</text>
</g>
<!-- Node0xf305fa0 -->
<g id="node2" class="node"><title>Node0xf305fa0</title>
<polygon fill="none" stroke="black" points="0,-96.5 0,-389.5 688,-389.5 688,-96.5 0,-96.5"/>
<text text-anchor="start" x="8" y="-374.3" font-family="Times,serif" font-size="14.00">result</text>
<text text-anchor="start" x="8" y="-359.3" font-family="Times,serif" font-size="14.00"> v1</text>
<text text-anchor="start" x="8" y="-344.3" font-family="Times,serif" font-size="14.00"> v2</text>
<text text-anchor="start" x="8" y="-329.3" font-family="Times,serif" font-size="14.00"> v3</text>
<text text-anchor="start" x="8" y="-314.3" font-family="Times,serif" font-size="14.00"> v4</text>
<text text-anchor="start" x="8" y="-299.3" font-family="Times,serif" font-size="14.00"> v5</text>
<text text-anchor="start" x="8" y="-284.3" font-family="Times,serif" font-size="14.00"> v6</text>
<text text-anchor="start" x="8" y="-269.3" font-family="Times,serif" font-size="14.00"> v7</text>
<text text-anchor="start" x="8" y="-254.3" font-family="Times,serif" font-size="14.00"> v8</text>
<text text-anchor="start" x="8" y="-239.3" font-family="Times,serif" font-size="14.00"> v9</text>
<text text-anchor="start" x="8" y="-224.3" font-family="Times,serif" font-size="14.00"> v10</text>
<text text-anchor="start" x="8" y="-209.3" font-family="Times,serif" font-size="14.00"> v11</text>
<text text-anchor="start" x="8" y="-194.3" font-family="Times,serif" font-size="14.00"> v12</text>
<text text-anchor="start" x="8" y="-179.3" font-family="Times,serif" font-size="14.00"> v13</text>
<text text-anchor="start" x="8" y="-164.3" font-family="Times,serif" font-size="14.00"> hdc</text>
<text text-anchor="start" x="8" y="-149.3" font-family="Times,serif" font-size="14.00"> v13 = g5</text>
<text text-anchor="start" x="8" y="-134.3" font-family="Times,serif" font-size="14.00"> hdc = *(IntToPtrCastExpr&lt;ptr&gt;((v13 + 4)))</text>
<text text-anchor="start" x="8" y="-119.3" font-family="Times,serif" font-size="14.00"> result = TextOutA(IntToPtrCastExpr&lt;ptr&gt;(hdc), x, y, lpString, PtrToIntCastExpr&lt;int32&gt;(c))</text>
<text text-anchor="start" x="8" y="-104.3" font-family="Times,serif" font-size="14.00"> return result</text>
</g>
<!-- Node0xf301b50&#45;&gt;Node0xf305fa0 -->
<g id="edge1" class="edge"><title>Node0xf301b50&#45;&gt;Node0xf305fa0</title>
<path fill="none" stroke="black" d="M344,-426.46C344,-418.224 344,-409.285 344,-399.935"/>
<polygon fill="black" stroke="black" points="347.5,-399.643 344,-389.643 340.5,-399.643 347.5,-399.643"/>
</g>
<!-- Node0xf305f20 -->
<g id="node3" class="node"><title>Node0xf305f20</title>
<polygon fill="none" stroke="black" points="317,-23.5 317,-59.5 371,-59.5 371,-23.5 317,-23.5"/>
<text text-anchor="start" x="325" y="-37.8" font-family="Times,serif" font-size="14.00">exit:</text>
</g>
<!-- Node0xf305fa0&#45;&gt;Node0xf305f20 -->
<g id="edge2" class="edge"><title>Node0xf305fa0&#45;&gt;Node0xf305f20</title>
<path fill="none" stroke="black" d="M344,-96.4876C344,-86.7125 344,-77.686 344,-69.9233"/>
<polygon fill="black" stroke="black" points="347.5,-69.8444 344,-59.8445 340.5,-69.8445 347.5,-69.8444"/>
</g>
</g>
</svg>
