<?xml version="1.0" encoding="UTF-8" standalone="no"?>
<!DOCTYPE svg PUBLIC "-//W3C//DTD SVG 1.1//EN"
 "http://www.w3.org/Graphics/SVG/1.1/DTD/svg11.dtd">
<!-- Generated by graphviz version 2.38.0 (20140413.2041)
 -->
<!-- Title: Control&#45;flow graph for function &#39;function_41a847(*a1)&#39;. Pages: 1 -->
<svg width="510pt" height="489pt"
 viewBox="0.00 0.00 510.00 489.00" xmlns="http://www.w3.org/2000/svg" xmlns:xlink="http://www.w3.org/1999/xlink">
<g id="graph0" class="graph" transform="scale(1 1) rotate(0) translate(4 485)">
<title>Control&#45;flow graph for function &#39;function_41a847(*a1)&#39;.</title>
<polygon fill="white" stroke="none" points="-4,4 -4,-485 506,-485 506,4 -4,4"/>
<text text-anchor="middle" x="251" y="-7.8" font-family="Times,serif" font-size="14.00">Control&#45;flow graph for function &#39;function_41a847(*a1)&#39;.</text>
<!-- Node0xf5fcf40 -->
<g id="node1" class="node"><title>Node0xf5fcf40</title>
<polygon fill="none" stroke="black" points="236.5,-442.5 236.5,-480.5 295.5,-480.5 295.5,-442.5 236.5,-442.5"/>
<text text-anchor="start" x="244.5" y="-465.3" font-family="Times,serif" font-size="14.00">entry:</text>
<text text-anchor="start" x="244.5" y="-450.3" font-family="Times,serif" font-size="14.00"> a1</text>
</g>
<!-- Node0xf5fc290 -->
<g id="node2" class="node"><title>Node0xf5fc290</title>
<polygon fill="none" stroke="black" points="227.5,-276.5 227.5,-404.5 304.5,-404.5 304.5,-276.5 227.5,-276.5"/>
<text text-anchor="start" x="235.5" y="-389.3" font-family="Times,serif" font-size="14.00">result</text>
<text text-anchor="start" x="235.5" y="-374.3" font-family="Times,serif" font-size="14.00"> v1</text>
<text text-anchor="start" x="235.5" y="-359.3" font-family="Times,serif" font-size="14.00"> hMem</text>
<text text-anchor="start" x="235.5" y="-344.3" font-family="Times,serif" font-size="14.00"> v2</text>
<text text-anchor="start" x="235.5" y="-329.3" font-family="Times,serif" font-size="14.00"> v3</text>
<text text-anchor="start" x="235.5" y="-314.3" font-family="Times,serif" font-size="14.00"> v4</text>
<text text-anchor="start" x="235.5" y="-299.3" font-family="Times,serif" font-size="14.00"> v2 = v3</text>
<text text-anchor="start" x="235.5" y="-284.3" font-family="Times,serif" font-size="14.00"> v2 = a1</text>
</g>
<!-- Node0xf5fcf40&#45;&gt;Node0xf5fc290 -->
<g id="edge1" class="edge"><title>Node0xf5fcf40&#45;&gt;Node0xf5fc290</title>
<path fill="none" stroke="black" d="M266,-442.426C266,-434.592 266,-424.856 266,-414.546"/>
<polygon fill="black" stroke="black" points="269.5,-414.529 266,-404.529 262.5,-414.529 269.5,-414.529"/>
</g>
<!-- Node0xf5faaf0 -->
<g id="node3" class="node"><title>Node0xf5faaf0</title>
<polygon fill="none" stroke="black" points="196,-202.5 196,-238.5 336,-238.5 336,-202.5 196,-202.5"/>
<text text-anchor="start" x="204" y="-216.8" font-family="Times,serif" font-size="14.00">if (a1 == NULL):</text>
</g>
<!-- Node0xf5fc290&#45;&gt;Node0xf5faaf0 -->
<g id="edge2" class="edge"><title>Node0xf5fc290&#45;&gt;Node0xf5faaf0</title>
<path fill="none" stroke="black" d="M266,-276.355C266,-266.753 266,-257.299 266,-249.016"/>
<polygon fill="black" stroke="black" points="269.5,-248.887 266,-238.888 262.5,-248.888 269.5,-248.887"/>
</g>
<!-- Node0xf5f43b0 -->
<g id="node4" class="node"><title>Node0xf5f43b0</title>
<polygon fill="none" stroke="black" points="0,-97.5 0,-150.5 272,-150.5 272,-97.5 0,-97.5"/>
<text text-anchor="start" x="8" y="-135.3" font-family="Times,serif" font-size="14.00">0x41a854:</text>
<text text-anchor="start" x="8" y="-120.3" font-family="Times,serif" font-size="14.00"> v1 = g2</text>
<text text-anchor="start" x="8" y="-105.3" font-family="Times,serif" font-size="14.00"> return IntToPtrCastExpr&lt;ptr&gt;(v1)</text>
</g>
<!-- Node0xf5faaf0&#45;&gt;Node0xf5f43b0 -->
<g id="edge3" class="edge"><title>Node0xf5faaf0&#45;&gt;Node0xf5f43b0</title>
<path fill="none" stroke="black" d="M242.458,-202.387C224.888,-189.615 200.383,-171.801 179.312,-156.484"/>
<polygon fill="black" stroke="black" points="181.273,-153.583 171.126,-150.534 177.157,-159.245 181.273,-153.583"/>
<text text-anchor="middle" x="264" y="-172.8" font-family="Times,serif" font-size="14.00">a1 == NULL</text>
</g>
<!-- Node0xf5fd080 -->
<g id="node5" class="node"><title>Node0xf5fd080</title>
<polygon fill="none" stroke="black" points="290,-97.5 290,-150.5 502,-150.5 502,-97.5 290,-97.5"/>
<text text-anchor="start" x="298" y="-135.3" font-family="Times,serif" font-size="14.00">0x41a84e:</text>
<text text-anchor="start" x="298" y="-120.3" font-family="Times,serif" font-size="14.00"> result = LocalFree(hMem)</text>
<text text-anchor="start" x="298" y="-105.3" font-family="Times,serif" font-size="14.00"> return result</text>
</g>
<!-- Node0xf5faaf0&#45;&gt;Node0xf5fd080 -->
<g id="edge4" class="edge"><title>Node0xf5faaf0&#45;&gt;Node0xf5fd080</title>
<path fill="none" stroke="black" d="M289.935,-202.178C297.911,-196.401 306.841,-189.927 315,-184 327.237,-175.111 340.504,-165.454 352.691,-156.578"/>
<polygon fill="black" stroke="black" points="354.907,-159.293 360.929,-150.576 350.785,-153.635 354.907,-159.293"/>
<text text-anchor="middle" x="379" y="-172.8" font-family="Times,serif" font-size="14.00">a1 != NULL</text>
</g>
<!-- Node0xf5f4fe0 -->
<g id="node6" class="node"><title>Node0xf5f4fe0</title>
<polygon fill="none" stroke="black" points="268,-23.5 268,-59.5 322,-59.5 322,-23.5 268,-23.5"/>
<text text-anchor="start" x="276" y="-37.8" font-family="Times,serif" font-size="14.00">exit:</text>
</g>
<!-- Node0xf5f43b0&#45;&gt;Node0xf5f4fe0 -->
<g id="edge5" class="edge"><title>Node0xf5f43b0&#45;&gt;Node0xf5f4fe0</title>
<path fill="none" stroke="black" d="M186.746,-97.308C210.18,-85.4437 237.466,-71.6291 258.781,-60.8374"/>
<polygon fill="black" stroke="black" points="260.479,-63.9009 267.819,-56.2613 257.317,-57.6557 260.479,-63.9009"/>
</g>
<!-- Node0xf5fd080&#45;&gt;Node0xf5f4fe0 -->
<g id="edge6" class="edge"><title>Node0xf5fd080&#45;&gt;Node0xf5f4fe0</title>
<path fill="none" stroke="black" d="M363.765,-97.308C351.194,-87.2885 336.878,-75.8782 324.575,-66.0722"/>
<polygon fill="black" stroke="black" points="326.427,-63.0724 316.425,-59.5766 322.064,-68.5464 326.427,-63.0724"/>
</g>
</g>
</svg>
