<?xml version="1.0" encoding="UTF-8" standalone="no"?>
<!DOCTYPE svg PUBLIC "-//W3C//DTD SVG 1.1//EN"
 "http://www.w3.org/Graphics/SVG/1.1/DTD/svg11.dtd">
<!-- Generated by graphviz version 2.38.0 (20140413.2041)
 -->
<!-- Title: Control&#45;flow graph for function &#39;function_409450(a1, a2)&#39;. Pages: 1 -->
<svg width="969pt" height="2322pt"
 viewBox="0.00 0.00 968.50 2322.00" xmlns="http://www.w3.org/2000/svg" xmlns:xlink="http://www.w3.org/1999/xlink">
<g id="graph0" class="graph" transform="scale(1 1) rotate(0) translate(4 2318)">
<title>Control&#45;flow graph for function &#39;function_409450(a1, a2)&#39;.</title>
<polygon fill="white" stroke="none" points="-4,4 -4,-2318 964.5,-2318 964.5,4 -4,4"/>
<text text-anchor="middle" x="480.25" y="-7.8" font-family="Times,serif" font-size="14.00">Control&#45;flow graph for function &#39;function_409450(a1, a2)&#39;.</text>
<!-- Node0xef429f0 -->
<g id="node1" class="node"><title>Node0xef429f0</title>
<polygon fill="none" stroke="black" points="264,-2260.5 264,-2313.5 323,-2313.5 323,-2260.5 264,-2260.5"/>
<text text-anchor="start" x="272" y="-2298.3" font-family="Times,serif" font-size="14.00">entry:</text>
<text text-anchor="start" x="272" y="-2283.3" font-family="Times,serif" font-size="14.00"> a1</text>
<text text-anchor="start" x="272" y="-2268.3" font-family="Times,serif" font-size="14.00"> a2</text>
</g>
<!-- Node0xef43b80 -->
<g id="node2" class="node"><title>Node0xef43b80</title>
<polygon fill="none" stroke="black" points="125,-1404.5 125,-2222.5 462,-2222.5 462,-1404.5 125,-1404.5"/>
<text text-anchor="start" x="133" y="-2207.3" font-family="Times,serif" font-size="14.00">v1</text>
<text text-anchor="start" x="133" y="-2192.3" font-family="Times,serif" font-size="14.00"> v2</text>
<text text-anchor="start" x="133" y="-2177.3" font-family="Times,serif" font-size="14.00"> v3</text>
<text text-anchor="start" x="133" y="-2162.3" font-family="Times,serif" font-size="14.00"> v4</text>
<text text-anchor="start" x="133" y="-2147.3" font-family="Times,serif" font-size="14.00"> v5</text>
<text text-anchor="start" x="133" y="-2132.3" font-family="Times,serif" font-size="14.00"> v6</text>
<text text-anchor="start" x="133" y="-2117.3" font-family="Times,serif" font-size="14.00"> result</text>
<text text-anchor="start" x="133" y="-2102.3" font-family="Times,serif" font-size="14.00"> result2</text>
<text text-anchor="start" x="133" y="-2087.3" font-family="Times,serif" font-size="14.00"> v7</text>
<text text-anchor="start" x="133" y="-2072.3" font-family="Times,serif" font-size="14.00"> v8</text>
<text text-anchor="start" x="133" y="-2057.3" font-family="Times,serif" font-size="14.00"> v9</text>
<text text-anchor="start" x="133" y="-2042.3" font-family="Times,serif" font-size="14.00"> v10</text>
<text text-anchor="start" x="133" y="-2027.3" font-family="Times,serif" font-size="14.00"> v11</text>
<text text-anchor="start" x="133" y="-2012.3" font-family="Times,serif" font-size="14.00"> v12</text>
<text text-anchor="start" x="133" y="-1997.3" font-family="Times,serif" font-size="14.00"> v13</text>
<text text-anchor="start" x="133" y="-1982.3" font-family="Times,serif" font-size="14.00"> v14</text>
<text text-anchor="start" x="133" y="-1967.3" font-family="Times,serif" font-size="14.00"> v15</text>
<text text-anchor="start" x="133" y="-1952.3" font-family="Times,serif" font-size="14.00"> v16</text>
<text text-anchor="start" x="133" y="-1937.3" font-family="Times,serif" font-size="14.00"> v17</text>
<text text-anchor="start" x="133" y="-1922.3" font-family="Times,serif" font-size="14.00"> v18</text>
<text text-anchor="start" x="133" y="-1907.3" font-family="Times,serif" font-size="14.00"> v19</text>
<text text-anchor="start" x="133" y="-1892.3" font-family="Times,serif" font-size="14.00"> v20</text>
<text text-anchor="start" x="133" y="-1877.3" font-family="Times,serif" font-size="14.00"> v21</text>
<text text-anchor="start" x="133" y="-1862.3" font-family="Times,serif" font-size="14.00"> v22</text>
<text text-anchor="start" x="133" y="-1847.3" font-family="Times,serif" font-size="14.00"> v23</text>
<text text-anchor="start" x="133" y="-1832.3" font-family="Times,serif" font-size="14.00"> v24</text>
<text text-anchor="start" x="133" y="-1817.3" font-family="Times,serif" font-size="14.00"> v25</text>
<text text-anchor="start" x="133" y="-1802.3" font-family="Times,serif" font-size="14.00"> v26</text>
<text text-anchor="start" x="133" y="-1787.3" font-family="Times,serif" font-size="14.00"> v27</text>
<text text-anchor="start" x="133" y="-1772.3" font-family="Times,serif" font-size="14.00"> v28</text>
<text text-anchor="start" x="133" y="-1757.3" font-family="Times,serif" font-size="14.00"> v29</text>
<text text-anchor="start" x="133" y="-1742.3" font-family="Times,serif" font-size="14.00"> v30</text>
<text text-anchor="start" x="133" y="-1727.3" font-family="Times,serif" font-size="14.00"> v31</text>
<text text-anchor="start" x="133" y="-1712.3" font-family="Times,serif" font-size="14.00"> v32</text>
<text text-anchor="start" x="133" y="-1697.3" font-family="Times,serif" font-size="14.00"> v33</text>
<text text-anchor="start" x="133" y="-1682.3" font-family="Times,serif" font-size="14.00"> v34</text>
<text text-anchor="start" x="133" y="-1667.3" font-family="Times,serif" font-size="14.00"> v35</text>
<text text-anchor="start" x="133" y="-1652.3" font-family="Times,serif" font-size="14.00"> v36</text>
<text text-anchor="start" x="133" y="-1637.3" font-family="Times,serif" font-size="14.00"> v37</text>
<text text-anchor="start" x="133" y="-1622.3" font-family="Times,serif" font-size="14.00"> v38</text>
<text text-anchor="start" x="133" y="-1607.3" font-family="Times,serif" font-size="14.00"> v39</text>
<text text-anchor="start" x="133" y="-1592.3" font-family="Times,serif" font-size="14.00"> v40</text>
<text text-anchor="start" x="133" y="-1577.3" font-family="Times,serif" font-size="14.00"> v41</text>
<text text-anchor="start" x="133" y="-1562.3" font-family="Times,serif" font-size="14.00"> v42</text>
<text text-anchor="start" x="133" y="-1547.3" font-family="Times,serif" font-size="14.00"> v15 = v16</text>
<text text-anchor="start" x="133" y="-1532.3" font-family="Times,serif" font-size="14.00"> v7 = v8</text>
<text text-anchor="start" x="133" y="-1517.3" font-family="Times,serif" font-size="14.00"> v22 = g4</text>
<text text-anchor="start" x="133" y="-1502.3" font-family="Times,serif" font-size="14.00"> v23 = g3</text>
<text text-anchor="start" x="133" y="-1487.3" font-family="Times,serif" font-size="14.00"> v24 = g7</text>
<text text-anchor="start" x="133" y="-1472.3" font-family="Times,serif" font-size="14.00"> v33 = g9</text>
<text text-anchor="start" x="133" y="-1457.3" font-family="Times,serif" font-size="14.00"> v36 = *(IntToPtrCastExpr&lt;ptr&gt;((v33 + 4)))</text>
<text text-anchor="start" x="133" y="-1442.3" font-family="Times,serif" font-size="14.00"> g7 = v36</text>
<text text-anchor="start" x="133" y="-1427.3" font-family="Times,serif" font-size="14.00"> v25 = g2</text>
<text text-anchor="start" x="133" y="-1412.3" font-family="Times,serif" font-size="14.00"> g4 = v25</text>
</g>
<!-- Node0xef429f0&#45;&gt;Node0xef43b80 -->
<g id="edge1" class="edge"><title>Node0xef429f0&#45;&gt;Node0xef43b80</title>
<path fill="none" stroke="black" d="M293.5,-2260.32C293.5,-2252.67 293.5,-2243.52 293.5,-2233.15"/>
<polygon fill="black" stroke="black" points="297,-2232.84 293.5,-2222.84 290,-2232.84 297,-2232.84"/>
</g>
<!-- Node0xef43850 -->
<g id="node3" class="node"><title>Node0xef43850</title>
<polygon fill="none" stroke="black" points="236.5,-1328.5 236.5,-1366.5 350.5,-1366.5 350.5,-1328.5 236.5,-1328.5"/>
<text text-anchor="start" x="244.5" y="-1351.3" font-family="Times,serif" font-size="14.00">if (v36 == 0):</text>
<text text-anchor="start" x="244.5" y="-1336.3" font-family="Times,serif" font-size="14.00"> else:</text>
</g>
<!-- Node0xef43b80&#45;&gt;Node0xef43850 -->
<g id="edge2" class="edge"><title>Node0xef43b80&#45;&gt;Node0xef43850</title>
<path fill="none" stroke="black" d="M293.5,-1404.47C293.5,-1393.95 293.5,-1384.6 293.5,-1376.7"/>
<polygon fill="black" stroke="black" points="297,-1376.52 293.5,-1366.52 290,-1376.52 297,-1376.52"/>
</g>
<!-- Node0x5a1e310 -->
<g id="node4" class="node"><title>Node0x5a1e310</title>
<polygon fill="none" stroke="black" points="17.5,-1046.5 17.5,-1099.5 327.5,-1099.5 327.5,-1046.5 17.5,-1046.5"/>
<text text-anchor="start" x="25.5" y="-1084.3" font-family="Times,serif" font-size="14.00">0x409479:</text>
<text text-anchor="start" x="25.5" y="-1069.3" font-family="Times,serif" font-size="14.00"> v4 = IntToPtrCastExpr&lt;ptr&gt;((v33 + 8))</text>
<text text-anchor="start" x="25.5" y="-1054.3" font-family="Times,serif" font-size="14.00"> v5 = v4</text>
</g>
<!-- Node0xef43850&#45;&gt;Node0x5a1e310 -->
<g id="edge3" class="edge"><title>Node0xef43850&#45;&gt;Node0x5a1e310</title>
<path fill="none" stroke="black" d="M248.244,-1328.46C226.036,-1317.14 201.177,-1300.23 187.5,-1277 156.94,-1225.09 160.425,-1152.32 166.167,-1109.47"/>
<polygon fill="black" stroke="black" points="169.64,-1109.91 167.615,-1099.51 162.712,-1108.9 169.64,-1109.91"/>
<text text-anchor="middle" x="252" y="-1298.8" font-family="Times,serif" font-size="14.00">v36 == 0</text>
</g>
<!-- Node0xef44d90 -->
<g id="node5" class="node"><title>Node0xef44d90</title>
<polygon fill="none" stroke="black" points="196.5,-1118.5 196.5,-1276.5 960.5,-1276.5 960.5,-1118.5 196.5,-1118.5"/>
<text text-anchor="start" x="204.5" y="-1261.3" font-family="Times,serif" font-size="14.00">0x40947d:</text>
<text text-anchor="start" x="204.5" y="-1246.3" font-family="Times,serif" font-size="14.00"> v2 = IntToPtrCastExpr&lt;ptr&gt;((v33 + 8))</text>
<text text-anchor="start" x="204.5" y="-1231.3" font-family="Times,serif" font-size="14.00"> v37 = *(v2)</text>
<text text-anchor="start" x="204.5" y="-1216.3" font-family="Times,serif" font-size="14.00"> v35 = (ExtCastExpr&lt;int64&gt;((v37 &#45; v36)) * 2021161081)</text>
<text text-anchor="start" x="204.5" y="-1201.3" font-family="Times,serif" font-size="14.00"> g2 = TruncCastExpr&lt;int32&gt;(v35)</text>
<text text-anchor="start" x="204.5" y="-1186.3" font-family="Times,serif" font-size="14.00"> v41 = (TruncCastExpr&lt;int32&gt;((v35 / 4294967296)) / 64)</text>
<text text-anchor="start" x="204.5" y="-1171.3" font-family="Times,serif" font-size="14.00"> v38 = *(IntToPtrCastExpr&lt;ptr&gt;((v33 + 12)))</text>
<text text-anchor="start" x="204.5" y="-1156.3" font-family="Times,serif" font-size="14.00"> v42 = (TruncCastExpr&lt;int32&gt;(((ExtCastExpr&lt;int64&gt;((v38 &#45; v36)) * 2021161081) / 4294967296)) / 64)</text>
<text text-anchor="start" x="204.5" y="-1141.3" font-family="Times,serif" font-size="14.00"> v1 = ((v42 &gt;&gt; 31) + v42)</text>
<text text-anchor="start" x="204.5" y="-1126.3" font-family="Times,serif" font-size="14.00"> g2 = v1</text>
</g>
<!-- Node0xef43850&#45;&gt;Node0xef44d90 -->
<g id="edge4" class="edge"><title>Node0xef43850&#45;&gt;Node0xef44d90</title>
<path fill="none" stroke="black" d="M328.447,-1328.35C351.984,-1316.13 384.88,-1299.05 419.095,-1281.28"/>
<polygon fill="black" stroke="black" points="421.031,-1284.22 428.293,-1276.5 417.805,-1278 421.031,-1284.22"/>
<text text-anchor="middle" x="417" y="-1298.8" font-family="Times,serif" font-size="14.00">v36 != 0</text>
</g>
<!-- Node0xef44580 -->
<g id="node6" class="node"><title>Node0xef44580</title>
<polygon fill="none" stroke="black" points="159.5,-547.5 159.5,-645.5 263.5,-645.5 263.5,-547.5 159.5,-547.5"/>
<text text-anchor="start" x="167.5" y="-630.3" font-family="Times,serif" font-size="14.00">0x4094c8:</text>
<text text-anchor="start" x="167.5" y="-615.3" font-family="Times,serif" font-size="14.00"> v40 = *(v5)</text>
<text text-anchor="start" x="167.5" y="-600.3" font-family="Times,serif" font-size="14.00"> g3 = v40</text>
<text text-anchor="start" x="167.5" y="-585.3" font-family="Times,serif" font-size="14.00"> v30 = v25</text>
<text text-anchor="start" x="167.5" y="-570.3" font-family="Times,serif" font-size="14.00"> v28 = v33</text>
<text text-anchor="start" x="167.5" y="-555.3" font-family="Times,serif" font-size="14.00"> v26 = v40</text>
</g>
<!-- Node0x5a1e310&#45;&gt;Node0xef44580 -->
<g id="edge5" class="edge"><title>Node0x5a1e310&#45;&gt;Node0xef44580</title>
<path fill="none" stroke="black" d="M174.597,-1046.49C180.637,-972.996 198.189,-759.454 206.725,-655.59"/>
<polygon fill="black" stroke="black" points="210.217,-655.841 207.548,-645.588 203.24,-655.268 210.217,-655.841"/>
</g>
<!-- Node0xef43cf0 -->
<g id="node7" class="node"><title>Node0xef43cf0</title>
<polygon fill="none" stroke="black" points="444.5,-989.5 444.5,-1027.5 674.5,-1027.5 674.5,-989.5 444.5,-989.5"/>
<text text-anchor="start" x="452.5" y="-1012.3" font-family="Times,serif" font-size="14.00">if (((v41 &gt;&gt; 31) + v41) &lt; v1):</text>
<text text-anchor="start" x="452.5" y="-997.3" font-family="Times,serif" font-size="14.00"> else:</text>
</g>
<!-- Node0xef44d90&#45;&gt;Node0xef43cf0 -->
<g id="edge6" class="edge"><title>Node0xef44d90&#45;&gt;Node0xef43cf0</title>
<path fill="none" stroke="black" d="M570.552,-1118.28C567.647,-1089.68 564.542,-1059.13 562.366,-1037.7"/>
<polygon fill="black" stroke="black" points="565.84,-1037.28 561.347,-1027.68 558.876,-1037.98 565.84,-1037.28"/>
</g>
<!-- Node0xef44a20 -->
<g id="node8" class="node"><title>Node0xef44a20</title>
<polygon fill="none" stroke="black" points="152,-473.5 152,-509.5 271,-509.5 271,-473.5 152,-473.5"/>
<text text-anchor="start" x="160" y="-487.8" font-family="Times,serif" font-size="14.00">if (v36 &gt; v40):</text>
</g>
<!-- Node0xef44580&#45;&gt;Node0xef44a20 -->
<g id="edge7" class="edge"><title>Node0xef44580&#45;&gt;Node0xef44a20</title>
<path fill="none" stroke="black" d="M211.5,-547.317C211.5,-537.893 211.5,-528.32 211.5,-519.868"/>
<polygon fill="black" stroke="black" points="215,-519.856 211.5,-509.856 208,-519.856 215,-519.856"/>
</g>
<!-- Node0xef456b0 -->
<g id="node9" class="node"><title>Node0xef456b0</title>
<polygon fill="none" stroke="black" points="362,-664.5 362,-882.5 757,-882.5 757,-664.5 362,-664.5"/>
<text text-anchor="start" x="370" y="-867.3" font-family="Times,serif" font-size="14.00">0x409497:</text>
<text text-anchor="start" x="370" y="-852.3" font-family="Times,serif" font-size="14.00"> v39 = *(v2)</text>
<text text-anchor="start" x="370" y="-837.3" font-family="Times,serif" font-size="14.00"> g7 = v39</text>
<text text-anchor="start" x="370" y="-822.3" font-family="Times,serif" font-size="14.00"> v7 = NULL</text>
<text text-anchor="start" x="370" y="-807.3" font-family="Times,serif" font-size="14.00"> g8 = 1</text>
<text text-anchor="start" x="370" y="-792.3" font-family="Times,serif" font-size="14.00"> g2 = v39</text>
<text text-anchor="start" x="370" y="-777.3" font-family="Times,serif" font-size="14.00"> result = function_40a0b0(0, 0, v24, v23)</text>
<text text-anchor="start" x="370" y="-762.3" font-family="Times,serif" font-size="14.00"> v32 = g7</text>
<text text-anchor="start" x="370" y="-747.3" font-family="Times,serif" font-size="14.00"> v34 = g9</text>
<text text-anchor="start" x="370" y="-732.3" font-family="Times,serif" font-size="14.00"> *(IntToPtrCastExpr&lt;ptr&gt;((v34 + 8))) = (v32 + 136)</text>
<text text-anchor="start" x="370" y="-717.3" font-family="Times,serif" font-size="14.00"> g7 = v24</text>
<text text-anchor="start" x="370" y="-702.3" font-family="Times,serif" font-size="14.00"> g3 = v23</text>
<text text-anchor="start" x="370" y="-687.3" font-family="Times,serif" font-size="14.00"> g4 = v22</text>
<text text-anchor="start" x="370" y="-672.3" font-family="Times,serif" font-size="14.00"> return result</text>
</g>
<!-- Node0xef43cf0&#45;&gt;Node0xef456b0 -->
<g id="edge8" class="edge"><title>Node0xef43cf0&#45;&gt;Node0xef456b0</title>
<path fill="none" stroke="black" d="M559.5,-989.217C559.5,-967.797 559.5,-930.432 559.5,-892.814"/>
<polygon fill="black" stroke="black" points="563,-892.735 559.5,-882.735 556,-892.735 563,-892.735"/>
<text text-anchor="middle" x="651.5" y="-959.8" font-family="Times,serif" font-size="14.00">((v41 &gt;&gt; 31) + v41) &lt; v1</text>
</g>
<!-- Node0xef45710 -->
<g id="node10" class="node"><title>Node0xef45710</title>
<polygon fill="none" stroke="black" points="262.5,-901.5 262.5,-937.5 334.5,-937.5 334.5,-901.5 262.5,-901.5"/>
<text text-anchor="start" x="270.5" y="-915.8" font-family="Times,serif" font-size="14.00">v5 = v2</text>
</g>
<!-- Node0xef43cf0&#45;&gt;Node0xef45710 -->
<g id="edge9" class="edge"><title>Node0xef43cf0&#45;&gt;Node0xef45710</title>
<path fill="none" stroke="black" d="M444.406,-995.418C401.916,-989.461 359.694,-981.313 341.5,-971 330.916,-965.001 321.744,-955.351 314.621,-946.087"/>
<polygon fill="black" stroke="black" points="317.349,-943.885 308.674,-937.802 311.662,-947.967 317.349,-943.885"/>
<text text-anchor="middle" x="439.5" y="-959.8" font-family="Times,serif" font-size="14.00">((v41 &gt;&gt; 31) + v41) &gt;= v1</text>
</g>
<!-- Node0xef45330 -->
<g id="node11" class="node"><title>Node0xef45330</title>
<polygon fill="none" stroke="black" points="235,-293.5 235,-421.5 464,-421.5 464,-293.5 235,-293.5"/>
<text text-anchor="start" x="243" y="-406.3" font-family="Times,serif" font-size="14.00">0x4094cf:</text>
<text text-anchor="start" x="243" y="-391.3" font-family="Times,serif" font-size="14.00"> __invalid_parameter_noinfo()</text>
<text text-anchor="start" x="243" y="-376.3" font-family="Times,serif" font-size="14.00"> v27 = g3</text>
<text text-anchor="start" x="243" y="-361.3" font-family="Times,serif" font-size="14.00"> v29 = g9</text>
<text text-anchor="start" x="243" y="-346.3" font-family="Times,serif" font-size="14.00"> v31 = g4</text>
<text text-anchor="start" x="243" y="-331.3" font-family="Times,serif" font-size="14.00"> v30 = v31</text>
<text text-anchor="start" x="243" y="-316.3" font-family="Times,serif" font-size="14.00"> v28 = v29</text>
<text text-anchor="start" x="243" y="-301.3" font-family="Times,serif" font-size="14.00"> v26 = v27</text>
</g>
<!-- Node0xef44a20&#45;&gt;Node0xef45330 -->
<g id="edge10" class="edge"><title>Node0xef44a20&#45;&gt;Node0xef45330</title>
<path fill="none" stroke="black" d="M229.541,-473.243C241.751,-461.564 258.771,-445.284 276.161,-428.651"/>
<polygon fill="black" stroke="black" points="278.816,-430.954 283.623,-421.513 273.977,-425.896 278.816,-430.954"/>
<text text-anchor="middle" x="301.5" y="-443.8" font-family="Times,serif" font-size="14.00">v36 &gt; v40</text>
</g>
<!-- Node0xef44b00 -->
<g id="node12" class="node"><title>Node0xef44b00</title>
<polygon fill="none" stroke="black" points="0,-97.5 0,-255.5 531,-255.5 531,-97.5 0,-97.5"/>
<text text-anchor="start" x="8" y="-240.3" font-family="Times,serif" font-size="14.00">0x4094d4:</text>
<text text-anchor="start" x="8" y="-225.3" font-family="Times,serif" font-size="14.00"> v15 = IntToPtrCastExpr&lt;ptr&gt;(v30)</text>
<text text-anchor="start" x="8" y="-210.3" font-family="Times,serif" font-size="14.00"> v6 = PtrToIntCastExpr&lt;int32&gt;(&amp;(v7))</text>
<text text-anchor="start" x="8" y="-195.3" font-family="Times,serif" font-size="14.00"> g2 = v28</text>
<text text-anchor="start" x="8" y="-180.3" font-family="Times,serif" font-size="14.00"> result2 = function_4096d0(v6, v30, v28, IntToPtrCastExpr&lt;ptr&gt;(v26))</text>
<text text-anchor="start" x="8" y="-165.3" font-family="Times,serif" font-size="14.00"> g7 = v6</text>
<text text-anchor="start" x="8" y="-150.3" font-family="Times,serif" font-size="14.00"> g10 = PtrToIntCastExpr&lt;int32&gt;(&amp;(v15))</text>
<text text-anchor="start" x="8" y="-135.3" font-family="Times,serif" font-size="14.00"> g3 = v30</text>
<text text-anchor="start" x="8" y="-120.3" font-family="Times,serif" font-size="14.00"> g4 = v28</text>
<text text-anchor="start" x="8" y="-105.3" font-family="Times,serif" font-size="14.00"> return result2</text>
</g>
<!-- Node0xef44a20&#45;&gt;Node0xef44b00 -->
<g id="edge11" class="edge"><title>Node0xef44a20&#45;&gt;Node0xef44b00</title>
<path fill="none" stroke="black" d="M184.603,-473.404C168.201,-461.285 148.681,-443.406 139.5,-422 116.902,-369.308 116.414,-345.48 139.5,-293 144.028,-282.706 149.978,-272.928 156.827,-263.74"/>
<polygon fill="black" stroke="black" points="159.628,-265.84 163.066,-255.819 154.129,-261.509 159.628,-265.84"/>
<text text-anchor="middle" x="182.5" y="-353.8" font-family="Times,serif" font-size="14.00">v36 &lt;= v40</text>
</g>
<!-- Node0xef43b20 -->
<g id="node13" class="node"><title>Node0xef43b20</title>
<polygon fill="none" stroke="black" points="452.5,-23.5 452.5,-59.5 506.5,-59.5 506.5,-23.5 452.5,-23.5"/>
<text text-anchor="start" x="460.5" y="-37.8" font-family="Times,serif" font-size="14.00">exit:</text>
</g>
<!-- Node0xef456b0&#45;&gt;Node0xef43b20 -->
<g id="edge12" class="edge"><title>Node0xef456b0&#45;&gt;Node0xef43b20</title>
<path fill="none" stroke="black" d="M559.5,-664.315C559.5,-622.095 559.5,-573.282 559.5,-529 559.5,-529 559.5,-529 559.5,-175.5 559.5,-139.604 558.942,-127.797 540.5,-97 533.534,-85.3671 523.279,-74.8306 513.158,-66.1908"/>
<polygon fill="black" stroke="black" points="515.106,-63.2644 505.134,-59.6837 510.697,-68.7011 515.106,-63.2644"/>
</g>
<!-- Node0xef45710&#45;&gt;Node0xef44580 -->
<g id="edge13" class="edge"><title>Node0xef45710&#45;&gt;Node0xef44580</title>
<path fill="none" stroke="black" d="M293.823,-901.242C281.443,-855.565 247.39,-729.922 227.169,-655.313"/>
<polygon fill="black" stroke="black" points="230.526,-654.32 224.532,-645.584 223.77,-656.151 230.526,-654.32"/>
</g>
<!-- Node0xef45330&#45;&gt;Node0xef44b00 -->
<g id="edge14" class="edge"><title>Node0xef45330&#45;&gt;Node0xef44b00</title>
<path fill="none" stroke="black" d="M319.885,-293.391C315.554,-284.162 311.029,-274.521 306.52,-264.912"/>
<polygon fill="black" stroke="black" points="309.625,-263.29 302.209,-255.724 303.288,-266.264 309.625,-263.29"/>
</g>
<!-- Node0xef44b00&#45;&gt;Node0xef43b20 -->
<g id="edge15" class="edge"><title>Node0xef44b00&#45;&gt;Node0xef43b20</title>
<path fill="none" stroke="black" d="M391.222,-97.3641C410.36,-85.4704 428.672,-74.0893 443.607,-64.8071"/>
<polygon fill="black" stroke="black" points="445.802,-67.5642 452.448,-59.3129 442.107,-61.6189 445.802,-67.5642"/>
</g>
</g>
</svg>
