<?xml version="1.0" encoding="UTF-8" standalone="no"?>
<!DOCTYPE svg PUBLIC "-//W3C//DTD SVG 1.1//EN"
 "http://www.w3.org/Graphics/SVG/1.1/DTD/svg11.dtd">
<!-- Generated by graphviz version 2.38.0 (20140413.2041)
 -->
<!-- Title: Control&#45;flow graph for function &#39;function_4178cb()&#39;. Pages: 1 -->
<svg width="394pt" height="291pt"
 viewBox="0.00 0.00 394.00 291.00" xmlns="http://www.w3.org/2000/svg" xmlns:xlink="http://www.w3.org/1999/xlink">
<g id="graph0" class="graph" transform="scale(1 1) rotate(0) translate(4 287)">
<title>Control&#45;flow graph for function &#39;function_4178cb()&#39;.</title>
<polygon fill="white" stroke="none" points="-4,4 -4,-287 390,-287 390,4 -4,4"/>
<text text-anchor="middle" x="193" y="-7.8" font-family="Times,serif" font-size="14.00">Control&#45;flow graph for function &#39;function_4178cb()&#39;.</text>
<!-- Node0xf4cc990 -->
<g id="node1" class="node"><title>Node0xf4cc990</title>
<polygon fill="none" stroke="black" points="163.5,-246.5 163.5,-282.5 222.5,-282.5 222.5,-246.5 163.5,-246.5"/>
<text text-anchor="start" x="171.5" y="-260.8" font-family="Times,serif" font-size="14.00">entry:</text>
</g>
<!-- Node0xf4ccb30 -->
<g id="node2" class="node"><title>Node0xf4ccb30</title>
<polygon fill="none" stroke="black" points="25.5,-96.5 25.5,-209.5 360.5,-209.5 360.5,-96.5 25.5,-96.5"/>
<text text-anchor="start" x="33.5" y="-194.3" font-family="Times,serif" font-size="14.00">v1</text>
<text text-anchor="start" x="33.5" y="-179.3" font-family="Times,serif" font-size="14.00"> v2</text>
<text text-anchor="start" x="33.5" y="-164.3" font-family="Times,serif" font-size="14.00"> v3</text>
<text text-anchor="start" x="33.5" y="-149.3" font-family="Times,serif" font-size="14.00"> result</text>
<text text-anchor="start" x="33.5" y="-134.3" font-family="Times,serif" font-size="14.00"> result = g5</text>
<text text-anchor="start" x="33.5" y="-119.3" font-family="Times,serif" font-size="14.00"> *(IntToPtrCastExpr&lt;ptr&gt;((result + 4))) = 1</text>
<text text-anchor="start" x="33.5" y="-104.3" font-family="Times,serif" font-size="14.00"> return result</text>
</g>
<!-- Node0xf4cc990&#45;&gt;Node0xf4ccb30 -->
<g id="edge1" class="edge"><title>Node0xf4cc990&#45;&gt;Node0xf4ccb30</title>
<path fill="none" stroke="black" d="M193,-246.391C193,-238.98 193,-229.786 193,-220.096"/>
<polygon fill="black" stroke="black" points="196.5,-219.873 193,-209.873 189.5,-219.873 196.5,-219.873"/>
</g>
<!-- Node0xf4cc880 -->
<g id="node3" class="node"><title>Node0xf4cc880</title>
<polygon fill="none" stroke="black" points="166,-23.5 166,-59.5 220,-59.5 220,-23.5 166,-23.5"/>
<text text-anchor="start" x="174" y="-37.8" font-family="Times,serif" font-size="14.00">exit:</text>
</g>
<!-- Node0xf4ccb30&#45;&gt;Node0xf4cc880 -->
<g id="edge2" class="edge"><title>Node0xf4ccb30&#45;&gt;Node0xf4cc880</title>
<path fill="none" stroke="black" d="M193,-96.2876C193,-87.1343 193,-78.0169 193,-69.9591"/>
<polygon fill="black" stroke="black" points="196.5,-69.7241 193,-59.7242 189.5,-69.7242 196.5,-69.7241"/>
</g>
</g>
</svg>
