<?xml version="1.0" encoding="UTF-8" standalone="no"?>
<!DOCTYPE svg PUBLIC "-//W3C//DTD SVG 1.1//EN"
 "http://www.w3.org/Graphics/SVG/1.1/DTD/svg11.dtd">
<!-- Generated by graphviz version 2.38.0 (20140413.2041)
 -->
<!-- Title: Control&#45;flow graph for function &#39;function_412403()&#39;. Pages: 1 -->
<svg width="963pt" height="3548pt"
 viewBox="0.00 0.00 962.50 3548.00" xmlns="http://www.w3.org/2000/svg" xmlns:xlink="http://www.w3.org/1999/xlink">
<g id="graph0" class="graph" transform="scale(1 1) rotate(0) translate(4 3544)">
<title>Control&#45;flow graph for function &#39;function_412403()&#39;.</title>
<polygon fill="white" stroke="none" points="-4,4 -4,-3544 958.5,-3544 958.5,4 -4,4"/>
<text text-anchor="middle" x="477.25" y="-7.8" font-family="Times,serif" font-size="14.00">Control&#45;flow graph for function &#39;function_412403()&#39;.</text>
<!-- Node0xf2bef20 -->
<g id="node1" class="node"><title>Node0xf2bef20</title>
<polygon fill="none" stroke="black" points="766,-3503.5 766,-3539.5 825,-3539.5 825,-3503.5 766,-3503.5"/>
<text text-anchor="start" x="774" y="-3517.8" font-family="Times,serif" font-size="14.00">entry:</text>
</g>
<!-- Node0xf2bf950 -->
<g id="node2" class="node"><title>Node0xf2bf950</title>
<polygon fill="none" stroke="black" points="636.5,-2362.5 636.5,-3465.5 954.5,-3465.5 954.5,-2362.5 636.5,-2362.5"/>
<text text-anchor="start" x="644.5" y="-3450.3" font-family="Times,serif" font-size="14.00">v1</text>
<text text-anchor="start" x="644.5" y="-3435.3" font-family="Times,serif" font-size="14.00"> v2</text>
<text text-anchor="start" x="644.5" y="-3420.3" font-family="Times,serif" font-size="14.00"> v3</text>
<text text-anchor="start" x="644.5" y="-3405.3" font-family="Times,serif" font-size="14.00"> v4</text>
<text text-anchor="start" x="644.5" y="-3390.3" font-family="Times,serif" font-size="14.00"> v5</text>
<text text-anchor="start" x="644.5" y="-3375.3" font-family="Times,serif" font-size="14.00"> v6</text>
<text text-anchor="start" x="644.5" y="-3360.3" font-family="Times,serif" font-size="14.00"> v7</text>
<text text-anchor="start" x="644.5" y="-3345.3" font-family="Times,serif" font-size="14.00"> v8</text>
<text text-anchor="start" x="644.5" y="-3330.3" font-family="Times,serif" font-size="14.00"> v9</text>
<text text-anchor="start" x="644.5" y="-3315.3" font-family="Times,serif" font-size="14.00"> v10</text>
<text text-anchor="start" x="644.5" y="-3300.3" font-family="Times,serif" font-size="14.00"> v11</text>
<text text-anchor="start" x="644.5" y="-3285.3" font-family="Times,serif" font-size="14.00"> v12</text>
<text text-anchor="start" x="644.5" y="-3270.3" font-family="Times,serif" font-size="14.00"> v13</text>
<text text-anchor="start" x="644.5" y="-3255.3" font-family="Times,serif" font-size="14.00"> v14</text>
<text text-anchor="start" x="644.5" y="-3240.3" font-family="Times,serif" font-size="14.00"> v15</text>
<text text-anchor="start" x="644.5" y="-3225.3" font-family="Times,serif" font-size="14.00"> v16</text>
<text text-anchor="start" x="644.5" y="-3210.3" font-family="Times,serif" font-size="14.00"> v17</text>
<text text-anchor="start" x="644.5" y="-3195.3" font-family="Times,serif" font-size="14.00"> v18</text>
<text text-anchor="start" x="644.5" y="-3180.3" font-family="Times,serif" font-size="14.00"> v19</text>
<text text-anchor="start" x="644.5" y="-3165.3" font-family="Times,serif" font-size="14.00"> v20</text>
<text text-anchor="start" x="644.5" y="-3150.3" font-family="Times,serif" font-size="14.00"> v21</text>
<text text-anchor="start" x="644.5" y="-3135.3" font-family="Times,serif" font-size="14.00"> v22</text>
<text text-anchor="start" x="644.5" y="-3120.3" font-family="Times,serif" font-size="14.00"> v23</text>
<text text-anchor="start" x="644.5" y="-3105.3" font-family="Times,serif" font-size="14.00"> v24</text>
<text text-anchor="start" x="644.5" y="-3090.3" font-family="Times,serif" font-size="14.00"> v25</text>
<text text-anchor="start" x="644.5" y="-3075.3" font-family="Times,serif" font-size="14.00"> v26</text>
<text text-anchor="start" x="644.5" y="-3060.3" font-family="Times,serif" font-size="14.00"> v27</text>
<text text-anchor="start" x="644.5" y="-3045.3" font-family="Times,serif" font-size="14.00"> v28</text>
<text text-anchor="start" x="644.5" y="-3030.3" font-family="Times,serif" font-size="14.00"> v29</text>
<text text-anchor="start" x="644.5" y="-3015.3" font-family="Times,serif" font-size="14.00"> v30</text>
<text text-anchor="start" x="644.5" y="-3000.3" font-family="Times,serif" font-size="14.00"> v31</text>
<text text-anchor="start" x="644.5" y="-2985.3" font-family="Times,serif" font-size="14.00"> v32</text>
<text text-anchor="start" x="644.5" y="-2970.3" font-family="Times,serif" font-size="14.00"> v33</text>
<text text-anchor="start" x="644.5" y="-2955.3" font-family="Times,serif" font-size="14.00"> v34</text>
<text text-anchor="start" x="644.5" y="-2940.3" font-family="Times,serif" font-size="14.00"> v35</text>
<text text-anchor="start" x="644.5" y="-2925.3" font-family="Times,serif" font-size="14.00"> v36</text>
<text text-anchor="start" x="644.5" y="-2910.3" font-family="Times,serif" font-size="14.00"> v37</text>
<text text-anchor="start" x="644.5" y="-2895.3" font-family="Times,serif" font-size="14.00"> v38</text>
<text text-anchor="start" x="644.5" y="-2880.3" font-family="Times,serif" font-size="14.00"> v39</text>
<text text-anchor="start" x="644.5" y="-2865.3" font-family="Times,serif" font-size="14.00"> v40</text>
<text text-anchor="start" x="644.5" y="-2850.3" font-family="Times,serif" font-size="14.00"> v41</text>
<text text-anchor="start" x="644.5" y="-2835.3" font-family="Times,serif" font-size="14.00"> v42</text>
<text text-anchor="start" x="644.5" y="-2820.3" font-family="Times,serif" font-size="14.00"> v43</text>
<text text-anchor="start" x="644.5" y="-2805.3" font-family="Times,serif" font-size="14.00"> v44</text>
<text text-anchor="start" x="644.5" y="-2790.3" font-family="Times,serif" font-size="14.00"> v45</text>
<text text-anchor="start" x="644.5" y="-2775.3" font-family="Times,serif" font-size="14.00"> v46</text>
<text text-anchor="start" x="644.5" y="-2760.3" font-family="Times,serif" font-size="14.00"> v47</text>
<text text-anchor="start" x="644.5" y="-2745.3" font-family="Times,serif" font-size="14.00"> v48</text>
<text text-anchor="start" x="644.5" y="-2730.3" font-family="Times,serif" font-size="14.00"> v49</text>
<text text-anchor="start" x="644.5" y="-2715.3" font-family="Times,serif" font-size="14.00"> v50</text>
<text text-anchor="start" x="644.5" y="-2700.3" font-family="Times,serif" font-size="14.00"> v51</text>
<text text-anchor="start" x="644.5" y="-2685.3" font-family="Times,serif" font-size="14.00"> v27 = v28</text>
<text text-anchor="start" x="644.5" y="-2670.3" font-family="Times,serif" font-size="14.00"> v25 = v26</text>
<text text-anchor="start" x="644.5" y="-2655.3" font-family="Times,serif" font-size="14.00"> v17 = v18</text>
<text text-anchor="start" x="644.5" y="-2640.3" font-family="Times,serif" font-size="14.00"> v14 = v15</text>
<text text-anchor="start" x="644.5" y="-2625.3" font-family="Times,serif" font-size="14.00"> v31 = v32</text>
<text text-anchor="start" x="644.5" y="-2610.3" font-family="Times,serif" font-size="14.00"> v24 = v30</text>
<text text-anchor="start" x="644.5" y="-2595.3" font-family="Times,serif" font-size="14.00"> v13 = v16</text>
<text text-anchor="start" x="644.5" y="-2580.3" font-family="Times,serif" font-size="14.00"> g3 = PtrToIntCastExpr&lt;int32&gt;(&amp;(v24))</text>
<text text-anchor="start" x="644.5" y="-2565.3" font-family="Times,serif" font-size="14.00"> v35 = g5</text>
<text text-anchor="start" x="644.5" y="-2550.3" font-family="Times,serif" font-size="14.00"> g9 = v35</text>
<text text-anchor="start" x="644.5" y="-2535.3" font-family="Times,serif" font-size="14.00"> v22 = v35</text>
<text text-anchor="start" x="644.5" y="-2520.3" font-family="Times,serif" font-size="14.00"> g10 = PtrToIntCastExpr&lt;int32&gt;(&amp;(v22))</text>
<text text-anchor="start" x="644.5" y="-2505.3" font-family="Times,serif" font-size="14.00"> v1 = PtrToIntCastExpr&lt;int32&gt;(&amp;(v14))</text>
<text text-anchor="start" x="644.5" y="-2490.3" font-family="Times,serif" font-size="14.00"> g5 = v1</text>
<text text-anchor="start" x="644.5" y="-2475.3" font-family="Times,serif" font-size="14.00"> function_411e5b()</text>
<text text-anchor="start" x="644.5" y="-2460.3" font-family="Times,serif" font-size="14.00"> g7 = 0</text>
<text text-anchor="start" x="644.5" y="-2445.3" font-family="Times,serif" font-size="14.00"> v5 = PtrToIntCastExpr&lt;int32&gt;(&amp;(v17))</text>
<text text-anchor="start" x="644.5" y="-2430.3" font-family="Times,serif" font-size="14.00"> v6 = PtrToIntCastExpr&lt;int32&gt;(&amp;(v27))</text>
<text text-anchor="start" x="644.5" y="-2415.3" font-family="Times,serif" font-size="14.00"> v2 = PtrToIntCastExpr&lt;int32&gt;(&amp;(v31))</text>
<text text-anchor="start" x="644.5" y="-2400.3" font-family="Times,serif" font-size="14.00"> v3 = PtrToIntCastExpr&lt;int32&gt;(&amp;(v25))</text>
<text text-anchor="start" x="644.5" y="-2385.3" font-family="Times,serif" font-size="14.00"> v4 = PtrToIntCastExpr&lt;int32&gt;(&amp;(v13))</text>
<text text-anchor="start" x="644.5" y="-2370.3" font-family="Times,serif" font-size="14.00"> v50 = v32</text>
</g>
<!-- Node0xf2bef20&#45;&gt;Node0xf2bf950 -->
<g id="edge1" class="edge"><title>Node0xf2bef20&#45;&gt;Node0xf2bf950</title>
<path fill="none" stroke="black" d="M795.5,-3503.35C795.5,-3496.13 795.5,-3486.81 795.5,-3475.74"/>
<polygon fill="black" stroke="black" points="799,-3475.57 795.5,-3465.57 792,-3475.57 799,-3475.57"/>
</g>
<!-- Node0xf2bf8f0 -->
<g id="node3" class="node"><title>Node0xf2bf8f0</title>
<polygon fill="none" stroke="black" points="747,-2288.5 747,-2324.5 844,-2324.5 844,-2288.5 747,-2288.5"/>
<text text-anchor="start" x="755" y="-2302.8" font-family="Times,serif" font-size="14.00">while True:</text>
</g>
<!-- Node0xf2bf950&#45;&gt;Node0xf2bf8f0 -->
<g id="edge2" class="edge"><title>Node0xf2bf950&#45;&gt;Node0xf2bf8f0</title>
<path fill="none" stroke="black" d="M795.5,-2362.3C795.5,-2351.96 795.5,-2342.84 795.5,-2335.15"/>
<polygon fill="black" stroke="black" points="799,-2334.94 795.5,-2324.94 792,-2334.94 799,-2334.94"/>
</g>
<!-- Node0xf2bf9b0 -->
<g id="node4" class="node"><title>Node0xf2bf9b0</title>
<polygon fill="none" stroke="black" points="649,-2198.5 649,-2236.5 762,-2236.5 762,-2198.5 649,-2198.5"/>
<text text-anchor="start" x="657" y="-2221.3" font-family="Times,serif" font-size="14.00">0x412419:</text>
<text text-anchor="start" x="657" y="-2206.3" font-family="Times,serif" font-size="14.00"> if (v50 != 0):</text>
</g>
<!-- Node0xf2bf8f0&#45;&gt;Node0xf2bf9b0 -->
<g id="edge3" class="edge"><title>Node0xf2bf8f0&#45;&gt;Node0xf2bf9b0</title>
<path fill="none" stroke="black" d="M777.719,-2288.31C764.544,-2275.58 746.384,-2258.02 731.571,-2243.7"/>
<polygon fill="black" stroke="black" points="733.796,-2240.98 724.174,-2236.55 728.931,-2246.02 733.796,-2240.98"/>
<text text-anchor="middle" x="775.5" y="-2258.8" font-family="Times,serif" font-size="14.00">True</text>
</g>
<!-- Node0xf2c03f0 -->
<g id="node5" class="node"><title>Node0xf2c03f0</title>
<polygon fill="none" stroke="black" points="331.5,-2048.5 331.5,-2146.5 677.5,-2146.5 677.5,-2048.5 331.5,-2048.5"/>
<text text-anchor="start" x="339.5" y="-2131.3" font-family="Times,serif" font-size="14.00">0x41241f:</text>
<text text-anchor="start" x="339.5" y="-2116.3" font-family="Times,serif" font-size="14.00"> g2 = v2</text>
<text text-anchor="start" x="339.5" y="-2101.3" font-family="Times,serif" font-size="14.00"> g10 = v3</text>
<text text-anchor="start" x="339.5" y="-2086.3" font-family="Times,serif" font-size="14.00"> function_411e91(BitCastExpr&lt;ptr&gt;(&amp;(v31)))</text>
<text text-anchor="start" x="339.5" y="-2071.3" font-family="Times,serif" font-size="14.00"> v45 = v31</text>
<text text-anchor="start" x="339.5" y="-2056.3" font-family="Times,serif" font-size="14.00"> g4 = v45</text>
</g>
<!-- Node0xf2bf9b0&#45;&gt;Node0xf2c03f0 -->
<g id="edge4" class="edge"><title>Node0xf2bf9b0&#45;&gt;Node0xf2c03f0</title>
<path fill="none" stroke="black" d="M658.788,-2198.49C646.11,-2193.06 632.561,-2186.73 620.5,-2180 605.768,-2171.78 590.608,-2162.12 576.307,-2152.37"/>
<polygon fill="black" stroke="black" points="578.213,-2149.44 567.995,-2146.64 574.238,-2155.2 578.213,-2149.44"/>
<text text-anchor="middle" x="652" y="-2168.8" font-family="Times,serif" font-size="14.00">v50 != 0</text>
</g>
<!-- Node0xf2bdce0 -->
<g id="node6" class="node"><title>Node0xf2bdce0</title>
<polygon fill="none" stroke="black" points="628.5,-1901.5 628.5,-2029.5 780.5,-2029.5 780.5,-1901.5 628.5,-1901.5"/>
<text text-anchor="start" x="636.5" y="-2014.3" font-family="Times,serif" font-size="14.00">0x412441:</text>
<text text-anchor="start" x="636.5" y="-1999.3" font-family="Times,serif" font-size="14.00"> g2 = v5</text>
<text text-anchor="start" x="636.5" y="-1984.3" font-family="Times,serif" font-size="14.00"> function_412287()</text>
<text text-anchor="start" x="636.5" y="-1969.3" font-family="Times,serif" font-size="14.00"> v11 = v6</text>
<text text-anchor="start" x="636.5" y="-1954.3" font-family="Times,serif" font-size="14.00"> g5 = v1</text>
<text text-anchor="start" x="636.5" y="-1939.3" font-family="Times,serif" font-size="14.00"> function_411e77()</text>
<text text-anchor="start" x="636.5" y="-1924.3" font-family="Times,serif" font-size="14.00"> v47 = v31</text>
<text text-anchor="start" x="636.5" y="-1909.3" font-family="Times,serif" font-size="14.00"> g4 = v47</text>
</g>
<!-- Node0xf2bf9b0&#45;&gt;Node0xf2bdce0 -->
<g id="edge5" class="edge"><title>Node0xf2bf9b0&#45;&gt;Node0xf2bdce0</title>
<path fill="none" stroke="black" d="M705.426,-2198.12C705.295,-2165.16 705.011,-2094.34 704.793,-2039.63"/>
<polygon fill="black" stroke="black" points="708.293,-2039.6 704.752,-2029.62 701.293,-2039.63 708.293,-2039.6"/>
<text text-anchor="middle" x="739" y="-2168.8" font-family="Times,serif" font-size="14.00">v50 == 0</text>
</g>
<!-- Node0xf2bccb0 -->
<g id="node7" class="node"><title>Node0xf2bccb0</title>
<polygon fill="none" stroke="black" points="450.5,-1846.5 450.5,-1882.5 558.5,-1882.5 558.5,-1846.5 450.5,-1846.5"/>
<text text-anchor="start" x="458.5" y="-1860.8" font-family="Times,serif" font-size="14.00">if (v45 != 0):</text>
</g>
<!-- Node0xf2c03f0&#45;&gt;Node0xf2bccb0 -->
<g id="edge6" class="edge"><title>Node0xf2c03f0&#45;&gt;Node0xf2bccb0</title>
<path fill="none" stroke="black" d="M504.5,-2048.36C504.5,-2001.3 504.5,-1931.32 504.5,-1893.01"/>
<polygon fill="black" stroke="black" points="508,-1892.65 504.5,-1882.65 501,-1892.65 508,-1892.65"/>
</g>
<!-- Node0xf2bdd40 -->
<g id="node8" class="node"><title>Node0xf2bdd40</title>
<polygon fill="none" stroke="black" points="603.5,-1591.5 603.5,-1627.5 711.5,-1627.5 711.5,-1591.5 603.5,-1591.5"/>
<text text-anchor="start" x="611.5" y="-1605.8" font-family="Times,serif" font-size="14.00">if (v47 != 0):</text>
</g>
<!-- Node0xf2bdce0&#45;&gt;Node0xf2bdd40 -->
<g id="edge7" class="edge"><title>Node0xf2bdce0&#45;&gt;Node0xf2bdd40</title>
<path fill="none" stroke="black" d="M702.26,-1901.36C699.717,-1849.85 694.404,-1775.33 683.5,-1711 679.217,-1685.73 671.669,-1657.52 665.805,-1637.44"/>
<polygon fill="black" stroke="black" points="669.125,-1636.32 662.919,-1627.74 662.415,-1638.32 669.125,-1636.32"/>
</g>
<!-- Node0xf2c1d60 -->
<g id="node9" class="node"><title>Node0xf2c1d60</title>
<polygon fill="none" stroke="black" points="338,-1711.5 338,-1794.5 675,-1794.5 675,-1711.5 338,-1711.5"/>
<text text-anchor="start" x="346" y="-1779.3" font-family="Times,serif" font-size="14.00">0x412432:</text>
<text text-anchor="start" x="346" y="-1764.3" font-family="Times,serif" font-size="14.00"> v46 = *(IntToPtrCastExpr&lt;ptr&gt;((v45 + 8)))</text>
<text text-anchor="start" x="346" y="-1749.3" font-family="Times,serif" font-size="14.00"> g5 = v46</text>
<text text-anchor="start" x="346" y="-1734.3" font-family="Times,serif" font-size="14.00"> function_411dbf()</text>
<text text-anchor="start" x="346" y="-1719.3" font-family="Times,serif" font-size="14.00"> g2 = v4</text>
</g>
<!-- Node0xf2bccb0&#45;&gt;Node0xf2c1d60 -->
<g id="edge8" class="edge"><title>Node0xf2bccb0&#45;&gt;Node0xf2c1d60</title>
<path fill="none" stroke="black" d="M504.812,-1846.39C505.018,-1835.15 505.298,-1819.81 505.571,-1804.85"/>
<polygon fill="black" stroke="black" points="509.075,-1804.68 505.758,-1794.62 502.076,-1804.55 509.075,-1804.68"/>
<text text-anchor="middle" x="537" y="-1816.8" font-family="Times,serif" font-size="14.00">v45 != 0</text>
</g>
<!-- Node0x7c2ebb0 -->
<g id="node10" class="node"><title>Node0x7c2ebb0</title>
<polygon fill="none" stroke="black" points="217.5,-1545.5 217.5,-1673.5 369.5,-1673.5 369.5,-1545.5 217.5,-1545.5"/>
<text text-anchor="start" x="225.5" y="-1658.3" font-family="Times,serif" font-size="14.00">0x412441:</text>
<text text-anchor="start" x="225.5" y="-1643.3" font-family="Times,serif" font-size="14.00"> g2 = v5</text>
<text text-anchor="start" x="225.5" y="-1628.3" font-family="Times,serif" font-size="14.00"> function_412287()</text>
<text text-anchor="start" x="225.5" y="-1613.3" font-family="Times,serif" font-size="14.00"> v11 = v6</text>
<text text-anchor="start" x="225.5" y="-1598.3" font-family="Times,serif" font-size="14.00"> g5 = v1</text>
<text text-anchor="start" x="225.5" y="-1583.3" font-family="Times,serif" font-size="14.00"> function_411e77()</text>
<text text-anchor="start" x="225.5" y="-1568.3" font-family="Times,serif" font-size="14.00"> v47 = v31</text>
<text text-anchor="start" x="225.5" y="-1553.3" font-family="Times,serif" font-size="14.00"> g4 = v47</text>
</g>
<!-- Node0xf2bccb0&#45;&gt;Node0x7c2ebb0 -->
<g id="edge9" class="edge"><title>Node0xf2bccb0&#45;&gt;Node0x7c2ebb0</title>
<path fill="none" stroke="black" d="M450.375,-1856.03C385.462,-1845.84 282.492,-1825.3 259.5,-1795 235.554,-1763.44 242.038,-1720.22 255.441,-1683.55"/>
<polygon fill="black" stroke="black" points="258.835,-1684.47 259.183,-1673.88 252.308,-1681.94 258.835,-1684.47"/>
<text text-anchor="middle" x="294" y="-1749.3" font-family="Times,serif" font-size="14.00">v45 == 0</text>
</g>
<!-- Node0xf2c1bc0 -->
<g id="node11" class="node"><title>Node0xf2c1bc0</title>
<polygon fill="none" stroke="black" points="428,-1457.5 428,-1493.5 551,-1493.5 551,-1457.5 428,-1457.5"/>
<text text-anchor="start" x="436" y="-1471.8" font-family="Times,serif" font-size="14.00">goto 0x41245c</text>
</g>
<!-- Node0xf2bdd40&#45;&gt;Node0xf2c1bc0 -->
<g id="edge10" class="edge"><title>Node0xf2bdd40&#45;&gt;Node0xf2c1bc0</title>
<path fill="none" stroke="black" d="M635.537,-1591.24C605.773,-1567.86 552.531,-1526.02 519.216,-1499.85"/>
<polygon fill="black" stroke="black" points="521.228,-1496.98 511.202,-1493.55 516.903,-1502.48 521.228,-1496.98"/>
<text text-anchor="middle" x="586" y="-1515.8" font-family="Times,serif" font-size="14.00">v47 != 0</text>
</g>
<!-- Node0xf2c01f0 -->
<g id="node12" class="node"><title>Node0xf2c01f0</title>
<polygon fill="none" stroke="black" points="489,-1250.5 489,-1438.5 826,-1438.5 826,-1250.5 489,-1250.5"/>
<text text-anchor="start" x="497" y="-1423.3" font-family="Times,serif" font-size="14.00">0x412479:</text>
<text text-anchor="start" x="497" y="-1408.3" font-family="Times,serif" font-size="14.00"> v40 = v11</text>
<text text-anchor="start" x="497" y="-1393.3" font-family="Times,serif" font-size="14.00"> v41 = *(IntToPtrCastExpr&lt;ptr&gt;(v40))</text>
<text text-anchor="start" x="497" y="-1378.3" font-family="Times,serif" font-size="14.00"> g7 = v41</text>
<text text-anchor="start" x="497" y="-1363.3" font-family="Times,serif" font-size="14.00"> v42 = *(IntToPtrCastExpr&lt;ptr&gt;((v40 + 4)))</text>
<text text-anchor="start" x="497" y="-1348.3" font-family="Times,serif" font-size="14.00"> g9 = v42</text>
<text text-anchor="start" x="497" y="-1333.3" font-family="Times,serif" font-size="14.00"> v43 = *(IntToPtrCastExpr&lt;ptr&gt;((v40 + 8)))</text>
<text text-anchor="start" x="497" y="-1318.3" font-family="Times,serif" font-size="14.00"> g4 = v43</text>
<text text-anchor="start" x="497" y="-1303.3" font-family="Times,serif" font-size="14.00"> g10 = (v40 + 12)</text>
<text text-anchor="start" x="497" y="-1288.3" font-family="Times,serif" font-size="14.00"> v44 = v24</text>
<text text-anchor="start" x="497" y="-1273.3" font-family="Times,serif" font-size="14.00"> g3 = v44</text>
<text text-anchor="start" x="497" y="-1258.3" font-family="Times,serif" font-size="14.00"> return</text>
</g>
<!-- Node0xf2bdd40&#45;&gt;Node0xf2c01f0 -->
<g id="edge11" class="edge"><title>Node0xf2bdd40&#45;&gt;Node0xf2c01f0</title>
<path fill="none" stroke="black" d="M657.5,-1591.24C657.5,-1562.42 657.5,-1502.35 657.5,-1448.82"/>
<polygon fill="black" stroke="black" points="661,-1448.56 657.5,-1438.56 654,-1448.56 661,-1448.56"/>
<text text-anchor="middle" x="692" y="-1515.8" font-family="Times,serif" font-size="14.00">v47 == 0</text>
</g>
<!-- Node0xf2c1d60&#45;&gt;Node0x7c2ebb0 -->
<g id="edge12" class="edge"><title>Node0xf2c1d60&#45;&gt;Node0x7c2ebb0</title>
<path fill="none" stroke="black" d="M445.463,-1711.45C424.534,-1697.55 400.721,-1681.73 378.256,-1666.81"/>
<polygon fill="black" stroke="black" points="379.987,-1663.75 369.721,-1661.14 376.114,-1669.58 379.987,-1663.75"/>
</g>
<!-- Node0xf2c1450 -->
<g id="node13" class="node"><title>Node0xf2c1450</title>
<polygon fill="none" stroke="black" points="236.5,-1457.5 236.5,-1493.5 350.5,-1493.5 350.5,-1457.5 236.5,-1457.5"/>
<text text-anchor="start" x="244.5" y="-1471.8" font-family="Times,serif" font-size="14.00">if (v47 == 0):</text>
</g>
<!-- Node0x7c2ebb0&#45;&gt;Node0xf2c1450 -->
<g id="edge13" class="edge"><title>Node0x7c2ebb0&#45;&gt;Node0xf2c1450</title>
<path fill="none" stroke="black" d="M293.5,-1545.21C293.5,-1530.62 293.5,-1515.85 293.5,-1503.77"/>
<polygon fill="black" stroke="black" points="297,-1503.5 293.5,-1493.5 290,-1503.5 297,-1503.5"/>
</g>
<!-- Node0xf2c16b0 -->
<g id="node14" class="node"><title>Node0xf2c16b0</title>
<polygon fill="none" stroke="black" points="372.5,-1193.5 372.5,-1231.5 464.5,-1231.5 464.5,-1193.5 372.5,-1193.5"/>
<text text-anchor="start" x="380.5" y="-1216.3" font-family="Times,serif" font-size="14.00">0x41245c:</text>
<text text-anchor="start" x="380.5" y="-1201.3" font-family="Times,serif" font-size="14.00"> v36 = g7</text>
</g>
<!-- Node0xf2c1bc0&#45;&gt;Node0xf2c16b0 -->
<g id="edge14" class="edge"><title>Node0xf2c1bc0&#45;&gt;Node0xf2c16b0</title>
<path fill="none" stroke="black" d="M484.387,-1457.23C482.744,-1451.45 480.971,-1444.97 479.5,-1439 458.96,-1355.63 470.174,-1330.19 439.5,-1250 438.299,-1246.86 436.851,-1243.67 435.284,-1240.55"/>
<polygon fill="black" stroke="black" points="438.216,-1238.61 430.354,-1231.51 432.072,-1241.97 438.216,-1238.61"/>
</g>
<!-- Node0xf2bc510 -->
<g id="node15" class="node"><title>Node0xf2bc510</title>
<polygon fill="none" stroke="black" points="299.5,-23.5 299.5,-59.5 353.5,-59.5 353.5,-23.5 299.5,-23.5"/>
<text text-anchor="start" x="307.5" y="-37.8" font-family="Times,serif" font-size="14.00">exit:</text>
</g>
<!-- Node0xf2c01f0&#45;&gt;Node0xf2bc510 -->
<g id="edge15" class="edge"><title>Node0xf2c01f0&#45;&gt;Node0xf2bc510</title>
<path fill="none" stroke="black" d="M716.556,-1250.22C741.77,-1201.8 765.5,-1140.54 765.5,-1081.5 765.5,-1081.5 765.5,-1081.5 765.5,-243 765.5,-168.138 743.265,-139.302 681.5,-97 630.296,-61.9308 444.075,-48.4473 363.772,-44.1843"/>
<polygon fill="black" stroke="black" points="363.784,-40.6804 353.618,-43.6648 363.426,-47.6713 363.784,-40.6804"/>
</g>
<!-- Node0xf2c1450&#45;&gt;Node0xf2c16b0 -->
<g id="edge17" class="edge"><title>Node0xf2c1450&#45;&gt;Node0xf2c16b0</title>
<path fill="none" stroke="black" d="M296.198,-1457.23C303.087,-1417.46 324.299,-1317.63 372.5,-1250 375.457,-1245.85 379.012,-1241.93 382.819,-1238.31"/>
<polygon fill="black" stroke="black" points="385.126,-1240.94 390.36,-1231.73 380.524,-1235.67 385.126,-1240.94"/>
<text text-anchor="middle" x="404" y="-1340.8" font-family="Times,serif" font-size="14.00">v47 != 0</text>
</g>
<!-- Node0xf2c0d00 -->
<g id="node16" class="node"><title>Node0xf2c0d00</title>
<polygon fill="none" stroke="black" points="0,-986.5 0,-1174.5 337,-1174.5 337,-986.5 0,-986.5"/>
<text text-anchor="start" x="8" y="-1159.3" font-family="Times,serif" font-size="14.00">0x412479:</text>
<text text-anchor="start" x="8" y="-1144.3" font-family="Times,serif" font-size="14.00"> v40 = v11</text>
<text text-anchor="start" x="8" y="-1129.3" font-family="Times,serif" font-size="14.00"> v41 = *(IntToPtrCastExpr&lt;ptr&gt;(v40))</text>
<text text-anchor="start" x="8" y="-1114.3" font-family="Times,serif" font-size="14.00"> g7 = v41</text>
<text text-anchor="start" x="8" y="-1099.3" font-family="Times,serif" font-size="14.00"> v42 = *(IntToPtrCastExpr&lt;ptr&gt;((v40 + 4)))</text>
<text text-anchor="start" x="8" y="-1084.3" font-family="Times,serif" font-size="14.00"> g9 = v42</text>
<text text-anchor="start" x="8" y="-1069.3" font-family="Times,serif" font-size="14.00"> v43 = *(IntToPtrCastExpr&lt;ptr&gt;((v40 + 8)))</text>
<text text-anchor="start" x="8" y="-1054.3" font-family="Times,serif" font-size="14.00"> g4 = v43</text>
<text text-anchor="start" x="8" y="-1039.3" font-family="Times,serif" font-size="14.00"> g10 = (v40 + 12)</text>
<text text-anchor="start" x="8" y="-1024.3" font-family="Times,serif" font-size="14.00"> v44 = v24</text>
<text text-anchor="start" x="8" y="-1009.3" font-family="Times,serif" font-size="14.00"> g3 = v44</text>
<text text-anchor="start" x="8" y="-994.3" font-family="Times,serif" font-size="14.00"> return</text>
</g>
<!-- Node0xf2c1450&#45;&gt;Node0xf2c0d00 -->
<g id="edge16" class="edge"><title>Node0xf2c1450&#45;&gt;Node0xf2c0d00</title>
<path fill="none" stroke="black" d="M248.328,-1457.45C240.339,-1452.59 232.871,-1446.52 227.5,-1439 174.911,-1365.4 162.785,-1261.69 162.259,-1184.92"/>
<polygon fill="black" stroke="black" points="165.759,-1184.74 162.255,-1174.74 158.759,-1184.75 165.759,-1184.74"/>
<text text-anchor="middle" x="262" y="-1340.8" font-family="Times,serif" font-size="14.00">v47 == 0</text>
</g>
<!-- Node0x7c3e8a0 -->
<g id="node17" class="node"><title>Node0x7c3e8a0</title>
<polygon fill="none" stroke="black" points="361.5,-931.5 361.5,-967.5 475.5,-967.5 475.5,-931.5 361.5,-931.5"/>
<text text-anchor="start" x="369.5" y="-945.8" font-family="Times,serif" font-size="14.00">if (v36 == 0):</text>
</g>
<!-- Node0xf2c16b0&#45;&gt;Node0x7c3e8a0 -->
<g id="edge18" class="edge"><title>Node0xf2c16b0&#45;&gt;Node0x7c3e8a0</title>
<path fill="none" stroke="black" d="M418.5,-1193.15C418.5,-1147.99 418.5,-1031.28 418.5,-977.891"/>
<polygon fill="black" stroke="black" points="422,-977.802 418.5,-967.802 415,-977.802 422,-977.802"/>
</g>
<!-- Node0xf2c0d00&#45;&gt;Node0xf2bc510 -->
<g id="edge19" class="edge"><title>Node0xf2c0d00&#45;&gt;Node0xf2bc510</title>
<path fill="none" stroke="black" d="M165.551,-986.134C164.951,-960.338 164.5,-932.337 164.5,-906.5 164.5,-906.5 164.5,-906.5 164.5,-243 164.5,-163.165 243.17,-97.232 290.865,-64.5945"/>
<polygon fill="black" stroke="black" points="293.022,-67.363 299.385,-58.892 289.128,-61.5459 293.022,-67.363"/>
</g>
<!-- Node0xf2c1ff0 -->
<g id="node18" class="node"><title>Node0xf2c1ff0</title>
<polygon fill="none" stroke="black" points="359.5,-706.5 359.5,-879.5 737.5,-879.5 737.5,-706.5 359.5,-706.5"/>
<text text-anchor="start" x="367.5" y="-864.3" font-family="Times,serif" font-size="14.00">0x412460:</text>
<text text-anchor="start" x="367.5" y="-849.3" font-family="Times,serif" font-size="14.00"> g7 = 1</text>
<text text-anchor="start" x="367.5" y="-834.3" font-family="Times,serif" font-size="14.00"> v48 = *(IntToPtrCastExpr&lt;ptr&gt;((v47 + 8)))</text>
<text text-anchor="start" x="367.5" y="-819.3" font-family="Times,serif" font-size="14.00"> v49 = v11</text>
<text text-anchor="start" x="367.5" y="-804.3" font-family="Times,serif" font-size="14.00"> *(IntToPtrCastExpr&lt;ptr&gt;((v49 + &#45;4))) = v48</text>
<text text-anchor="start" x="367.5" y="-789.3" font-family="Times,serif" font-size="14.00"> *(IntToPtrCastExpr&lt;ptr&gt;((v49 + &#45;8))) = 4269161</text>
<text text-anchor="start" x="367.5" y="-774.3" font-family="Times,serif" font-size="14.00"> function_411dd8()</text>
<text text-anchor="start" x="367.5" y="-759.3" font-family="Times,serif" font-size="14.00"> v37 = g2</text>
<text text-anchor="start" x="367.5" y="-744.3" font-family="Times,serif" font-size="14.00"> v38 = g10</text>
<text text-anchor="start" x="367.5" y="-729.3" font-family="Times,serif" font-size="14.00"> v9 = IntToPtrCastExpr&lt;ptr&gt;(v38)</text>
<text text-anchor="start" x="367.5" y="-714.3" font-family="Times,serif" font-size="14.00"> g10 = (v38 + 4)</text>
</g>
<!-- Node0x7c3e8a0&#45;&gt;Node0xf2c1ff0 -->
<g id="edge20" class="edge"><title>Node0x7c3e8a0&#45;&gt;Node0xf2c1ff0</title>
<path fill="none" stroke="black" d="M432.909,-931.375C442.425,-920.066 455.728,-904.256 469.936,-887.371"/>
<polygon fill="black" stroke="black" points="472.756,-889.455 476.517,-879.549 467.4,-884.948 472.756,-889.455"/>
<text text-anchor="middle" x="496" y="-901.8" font-family="Times,serif" font-size="14.00">v36 == 0</text>
</g>
<!-- Node0xf2c1810 -->
<g id="node19" class="node"><title>Node0xf2c1810</title>
<polygon fill="none" stroke="black" points="180,-499.5 180,-687.5 517,-687.5 517,-499.5 180,-499.5"/>
<text text-anchor="start" x="188" y="-672.3" font-family="Times,serif" font-size="14.00">0x412479:</text>
<text text-anchor="start" x="188" y="-657.3" font-family="Times,serif" font-size="14.00"> v40 = v11</text>
<text text-anchor="start" x="188" y="-642.3" font-family="Times,serif" font-size="14.00"> v41 = *(IntToPtrCastExpr&lt;ptr&gt;(v40))</text>
<text text-anchor="start" x="188" y="-627.3" font-family="Times,serif" font-size="14.00"> g7 = v41</text>
<text text-anchor="start" x="188" y="-612.3" font-family="Times,serif" font-size="14.00"> v42 = *(IntToPtrCastExpr&lt;ptr&gt;((v40 + 4)))</text>
<text text-anchor="start" x="188" y="-597.3" font-family="Times,serif" font-size="14.00"> g9 = v42</text>
<text text-anchor="start" x="188" y="-582.3" font-family="Times,serif" font-size="14.00"> v43 = *(IntToPtrCastExpr&lt;ptr&gt;((v40 + 8)))</text>
<text text-anchor="start" x="188" y="-567.3" font-family="Times,serif" font-size="14.00"> g4 = v43</text>
<text text-anchor="start" x="188" y="-552.3" font-family="Times,serif" font-size="14.00"> g10 = (v40 + 12)</text>
<text text-anchor="start" x="188" y="-537.3" font-family="Times,serif" font-size="14.00"> v44 = v24</text>
<text text-anchor="start" x="188" y="-522.3" font-family="Times,serif" font-size="14.00"> g3 = v44</text>
<text text-anchor="start" x="188" y="-507.3" font-family="Times,serif" font-size="14.00"> return</text>
</g>
<!-- Node0x7c3e8a0&#45;&gt;Node0xf2c1810 -->
<g id="edge21" class="edge"><title>Node0x7c3e8a0&#45;&gt;Node0xf2c1810</title>
<path fill="none" stroke="black" d="M393.455,-931.326C377.901,-919.058 359.256,-901.04 350.5,-880 326.789,-823.025 325.668,-753.942 330.772,-698.003"/>
<polygon fill="black" stroke="black" points="334.288,-698.014 331.794,-687.717 327.322,-697.322 334.288,-698.014"/>
<text text-anchor="middle" x="404" y="-901.8" font-family="Times,serif" font-size="14.00">v36 != 0</text>
</g>
<!-- Node0xf2c2190 -->
<g id="node20" class="node"><title>Node0xf2c2190</title>
<polygon fill="none" stroke="black" points="442,-442.5 442,-480.5 655,-480.5 655,-442.5 442,-442.5"/>
<text text-anchor="start" x="450" y="-465.3" font-family="Times,serif" font-size="14.00">if ((v37 * 16777216) == 0):</text>
<text text-anchor="start" x="450" y="-450.3" font-family="Times,serif" font-size="14.00"> else:</text>
</g>
<!-- Node0xf2c1ff0&#45;&gt;Node0xf2c2190 -->
<g id="edge22" class="edge"><title>Node0xf2c1ff0&#45;&gt;Node0xf2c2190</title>
<path fill="none" stroke="black" d="M548.5,-706.288C548.5,-635.173 548.5,-538.309 548.5,-490.941"/>
<polygon fill="black" stroke="black" points="552,-490.808 548.5,-480.808 545,-490.808 552,-490.808"/>
</g>
<!-- Node0xf2c1810&#45;&gt;Node0xf2bc510 -->
<g id="edge23" class="edge"><title>Node0xf2c1810&#45;&gt;Node0xf2bc510</title>
<path fill="none" stroke="black" d="M312.908,-499.33C301.801,-465.712 291.018,-427.142 285.5,-391 265.778,-261.83 244.089,-220.931 285.5,-97 289.026,-86.4474 295.488,-76.2986 302.255,-67.679"/>
<polygon fill="black" stroke="black" points="305.015,-69.8345 308.751,-59.9201 299.648,-65.341 305.015,-69.8345"/>
</g>
<!-- Node0xf2c29f0 -->
<g id="node21" class="node"><title>Node0xf2c29f0</title>
<polygon fill="none" stroke="black" points="294.5,-97.5 294.5,-390.5 672.5,-390.5 672.5,-97.5 294.5,-97.5"/>
<text text-anchor="start" x="302.5" y="-375.3" font-family="Times,serif" font-size="14.00">0x41246e:</text>
<text text-anchor="start" x="302.5" y="-360.3" font-family="Times,serif" font-size="14.00"> g2 = v1</text>
<text text-anchor="start" x="302.5" y="-345.3" font-family="Times,serif" font-size="14.00"> *(v9) = v1</text>
<text text-anchor="start" x="302.5" y="-330.3" font-family="Times,serif" font-size="14.00"> v11 = v38</text>
<text text-anchor="start" x="302.5" y="-315.3" font-family="Times,serif" font-size="14.00"> v39 = g9</text>
<text text-anchor="start" x="302.5" y="-300.3" font-family="Times,serif" font-size="14.00"> g5 = v39</text>
<text text-anchor="start" x="302.5" y="-285.3" font-family="Times,serif" font-size="14.00"> *(IntToPtrCastExpr&lt;ptr&gt;((v38 + &#45;4))) = 4269177</text>
<text text-anchor="start" x="302.5" y="-270.3" font-family="Times,serif" font-size="14.00"> function_411e77()</text>
<text text-anchor="start" x="302.5" y="-255.3" font-family="Times,serif" font-size="14.00"> v40 = v11</text>
<text text-anchor="start" x="302.5" y="-240.3" font-family="Times,serif" font-size="14.00"> v41 = *(IntToPtrCastExpr&lt;ptr&gt;(v40))</text>
<text text-anchor="start" x="302.5" y="-225.3" font-family="Times,serif" font-size="14.00"> g7 = v41</text>
<text text-anchor="start" x="302.5" y="-210.3" font-family="Times,serif" font-size="14.00"> v42 = *(IntToPtrCastExpr&lt;ptr&gt;((v40 + 4)))</text>
<text text-anchor="start" x="302.5" y="-195.3" font-family="Times,serif" font-size="14.00"> g9 = v42</text>
<text text-anchor="start" x="302.5" y="-180.3" font-family="Times,serif" font-size="14.00"> v43 = *(IntToPtrCastExpr&lt;ptr&gt;((v40 + 8)))</text>
<text text-anchor="start" x="302.5" y="-165.3" font-family="Times,serif" font-size="14.00"> g4 = v43</text>
<text text-anchor="start" x="302.5" y="-150.3" font-family="Times,serif" font-size="14.00"> g10 = (v40 + 12)</text>
<text text-anchor="start" x="302.5" y="-135.3" font-family="Times,serif" font-size="14.00"> v44 = v24</text>
<text text-anchor="start" x="302.5" y="-120.3" font-family="Times,serif" font-size="14.00"> g3 = v44</text>
<text text-anchor="start" x="302.5" y="-105.3" font-family="Times,serif" font-size="14.00"> return</text>
</g>
<!-- Node0xf2c2190&#45;&gt;Node0xf2c29f0 -->
<g id="edge24" class="edge"><title>Node0xf2c2190&#45;&gt;Node0xf2c29f0</title>
<path fill="none" stroke="black" d="M441.918,-444.22C421.83,-438.986 405.041,-432.324 398.5,-424 392.682,-416.596 389.079,-408.73 387.286,-400.583"/>
<polygon fill="black" stroke="black" points="390.737,-399.981 385.967,-390.521 383.796,-400.891 390.737,-399.981"/>
<text text-anchor="middle" x="482.5" y="-412.8" font-family="Times,serif" font-size="14.00">(v37 * 16777216) == 0</text>
</g>
<!-- Node0xf2c2a70 -->
<g id="node22" class="node"><title>Node0xf2c2a70</title>
<polygon fill="none" stroke="black" points="794,-210 794,-278 889,-278 889,-210 794,-210"/>
<text text-anchor="start" x="802" y="-262.8" font-family="Times,serif" font-size="14.00">0x412460:</text>
<text text-anchor="start" x="802" y="-247.8" font-family="Times,serif" font-size="14.00"> v51 = v31</text>
<text text-anchor="start" x="802" y="-232.8" font-family="Times,serif" font-size="14.00"> v50 = v51</text>
<text text-anchor="start" x="802" y="-217.8" font-family="Times,serif" font-size="14.00"> continue</text>
</g>
<!-- Node0xf2c2190&#45;&gt;Node0xf2c2a70 -->
<g id="edge25" class="edge"><title>Node0xf2c2190&#45;&gt;Node0xf2c2a70</title>
<path fill="none" stroke="black" d="M589.638,-442.395C616.749,-429.66 652.471,-411.315 681.5,-391 726.423,-359.562 772.078,-316.572 803.058,-285.389"/>
<polygon fill="black" stroke="black" points="805.688,-287.706 810.218,-278.128 800.704,-282.791 805.688,-287.706"/>
<text text-anchor="middle" x="731.5" y="-412.8" font-family="Times,serif" font-size="14.00">(v37 * 16777216) != 0</text>
</g>
<!-- Node0xf2c29f0&#45;&gt;Node0xf2bc510 -->
<g id="edge26" class="edge"><title>Node0xf2c29f0&#45;&gt;Node0xf2bc510</title>
<path fill="none" stroke="black" d="M369.401,-97.2875C360.698,-86.1733 352.736,-76.0048 346.096,-67.526"/>
<polygon fill="black" stroke="black" points="348.841,-65.3534 339.92,-59.6378 343.329,-69.6691 348.841,-65.3534"/>
</g>
<!-- Node0xf2c2a70&#45;&gt;Node0xf2bf8f0 -->
<g id="edge27" class="edge"><title>Node0xf2c2a70&#45;&gt;Node0xf2bf8f0</title>
<path fill="none" stroke="black" d="M841.5,-278.226C841.5,-320.553 841.5,-395.962 841.5,-460.5 841.5,-2218.5 841.5,-2218.5 841.5,-2218.5 841.5,-2241.2 829.113,-2263.77 817.195,-2280.23"/>
<polygon fill="black" stroke="black" points="814.359,-2278.17 811.074,-2288.25 819.923,-2282.42 814.359,-2278.17"/>
</g>
</g>
</svg>
