<?xml version="1.0" encoding="UTF-8" standalone="no"?>
<!DOCTYPE svg PUBLIC "-//W3C//DTD SVG 1.1//EN"
 "http://www.w3.org/Graphics/SVG/1.1/DTD/svg11.dtd">
<!-- Generated by graphviz version 2.38.0 (20140413.2041)
 -->
<!-- Title: Control&#45;flow graph for function &#39;function_4196dc(a1)&#39;. Pages: 1 -->
<svg width="604pt" height="1292pt"
 viewBox="0.00 0.00 603.53 1292.00" xmlns="http://www.w3.org/2000/svg" xmlns:xlink="http://www.w3.org/1999/xlink">
<g id="graph0" class="graph" transform="scale(1 1) rotate(0) translate(4 1288)">
<title>Control&#45;flow graph for function &#39;function_4196dc(a1)&#39;.</title>
<polygon fill="white" stroke="none" points="-4,4 -4,-1288 599.527,-1288 599.527,4 -4,4"/>
<text text-anchor="middle" x="297.764" y="-7.8" font-family="Times,serif" font-size="14.00">Control&#45;flow graph for function &#39;function_4196dc(a1)&#39;.</text>
<!-- Node0xf5b6320 -->
<g id="node1" class="node"><title>Node0xf5b6320</title>
<polygon fill="none" stroke="black" points="424.027,-1245.5 424.027,-1283.5 483.027,-1283.5 483.027,-1245.5 424.027,-1245.5"/>
<text text-anchor="start" x="432.027" y="-1268.3" font-family="Times,serif" font-size="14.00">entry:</text>
<text text-anchor="start" x="432.027" y="-1253.3" font-family="Times,serif" font-size="14.00"> a1</text>
</g>
<!-- Node0x4ed1d20 -->
<g id="node2" class="node"><title>Node0x4ed1d20</title>
<polygon fill="none" stroke="black" points="391.027,-869.5 391.027,-1207.5 516.027,-1207.5 516.027,-869.5 391.027,-869.5"/>
<text text-anchor="start" x="399.027" y="-1192.3" font-family="Times,serif" font-size="14.00">result</text>
<text text-anchor="start" x="399.027" y="-1177.3" font-family="Times,serif" font-size="14.00"> v1</text>
<text text-anchor="start" x="399.027" y="-1162.3" font-family="Times,serif" font-size="14.00"> func</text>
<text text-anchor="start" x="399.027" y="-1147.3" font-family="Times,serif" font-size="14.00"> func2</text>
<text text-anchor="start" x="399.027" y="-1132.3" font-family="Times,serif" font-size="14.00"> func3</text>
<text text-anchor="start" x="399.027" y="-1117.3" font-family="Times,serif" font-size="14.00"> moduleHandle</text>
<text text-anchor="start" x="399.027" y="-1102.3" font-family="Times,serif" font-size="14.00"> func4</text>
<text text-anchor="start" x="399.027" y="-1087.3" font-family="Times,serif" font-size="14.00"> result2</text>
<text text-anchor="start" x="399.027" y="-1072.3" font-family="Times,serif" font-size="14.00"> hModule</text>
<text text-anchor="start" x="399.027" y="-1057.3" font-family="Times,serif" font-size="14.00"> v2</text>
<text text-anchor="start" x="399.027" y="-1042.3" font-family="Times,serif" font-size="14.00"> v3</text>
<text text-anchor="start" x="399.027" y="-1027.3" font-family="Times,serif" font-size="14.00"> v4</text>
<text text-anchor="start" x="399.027" y="-1012.3" font-family="Times,serif" font-size="14.00"> v5</text>
<text text-anchor="start" x="399.027" y="-997.3" font-family="Times,serif" font-size="14.00"> v6</text>
<text text-anchor="start" x="399.027" y="-982.3" font-family="Times,serif" font-size="14.00"> v7</text>
<text text-anchor="start" x="399.027" y="-967.3" font-family="Times,serif" font-size="14.00"> v8</text>
<text text-anchor="start" x="399.027" y="-952.3" font-family="Times,serif" font-size="14.00"> v9</text>
<text text-anchor="start" x="399.027" y="-937.3" font-family="Times,serif" font-size="14.00"> v10</text>
<text text-anchor="start" x="399.027" y="-922.3" font-family="Times,serif" font-size="14.00"> v11</text>
<text text-anchor="start" x="399.027" y="-907.3" font-family="Times,serif" font-size="14.00"> v12</text>
<text text-anchor="start" x="399.027" y="-892.3" font-family="Times,serif" font-size="14.00"> hModule = v2</text>
<text text-anchor="start" x="399.027" y="-877.3" font-family="Times,serif" font-size="14.00"> v12 = g144</text>
</g>
<!-- Node0xf5b6320&#45;&gt;Node0x4ed1d20 -->
<g id="edge1" class="edge"><title>Node0xf5b6320&#45;&gt;Node0x4ed1d20</title>
<path fill="none" stroke="black" d="M453.527,-1245.17C453.527,-1237.73 453.527,-1228.38 453.527,-1217.8"/>
<polygon fill="black" stroke="black" points="457.027,-1217.75 453.527,-1207.75 450.027,-1217.75 457.027,-1217.75"/>
</g>
<!-- Node0xf5ab590 -->
<g id="node3" class="node"><title>Node0xf5ab590</title>
<polygon fill="none" stroke="black" points="396.527,-795.5 396.527,-831.5 510.527,-831.5 510.527,-795.5 396.527,-795.5"/>
<text text-anchor="start" x="404.527" y="-809.8" font-family="Times,serif" font-size="14.00">if (v12 == 0):</text>
</g>
<!-- Node0x4ed1d20&#45;&gt;Node0xf5ab590 -->
<g id="edge2" class="edge"><title>Node0x4ed1d20&#45;&gt;Node0xf5ab590</title>
<path fill="none" stroke="black" d="M453.527,-869.338C453.527,-859.29 453.527,-850.078 453.527,-842.189"/>
<polygon fill="black" stroke="black" points="457.027,-841.969 453.527,-831.969 450.027,-841.969 457.027,-841.969"/>
</g>
<!-- Node0xf5afc20 -->
<g id="node4" class="node"><title>Node0xf5afc20</title>
<polygon fill="none" stroke="black" points="103.027,-675.5 103.027,-743.5 498.027,-743.5 498.027,-675.5 103.027,-675.5"/>
<text text-anchor="start" x="111.027" y="-728.3" font-family="Times,serif" font-size="14.00">0x4196e5:</text>
<text text-anchor="start" x="111.027" y="-713.3" font-family="Times,serif" font-size="14.00"> moduleHandle = GetModuleHandleA(&quot;KERNEL32&quot;)</text>
<text text-anchor="start" x="111.027" y="-698.3" font-family="Times,serif" font-size="14.00"> result = PtrToIntCastExpr&lt;int32&gt;(moduleHandle)</text>
<text text-anchor="start" x="111.027" y="-683.3" font-family="Times,serif" font-size="14.00"> g144 = result</text>
</g>
<!-- Node0xf5ab590&#45;&gt;Node0xf5afc20 -->
<g id="edge3" class="edge"><title>Node0xf5ab590&#45;&gt;Node0xf5afc20</title>
<path fill="none" stroke="black" d="M427.918,-795.427C408.97,-782.795 382.399,-765.081 358.423,-749.097"/>
<polygon fill="black" stroke="black" points="360.329,-746.162 350.067,-743.527 356.446,-751.986 360.329,-746.162"/>
<text text-anchor="middle" x="435.027" y="-765.8" font-family="Times,serif" font-size="14.00">v12 == 0</text>
</g>
<!-- Node0xf5ab650 -->
<g id="node5" class="node"><title>Node0xf5ab650</title>
<polygon fill="none" stroke="black" points="220.527,-97.5 220.527,-135.5 342.527,-135.5 342.527,-97.5 220.527,-97.5"/>
<text text-anchor="start" x="228.527" y="-120.3" font-family="Times,serif" font-size="14.00">0x419749:</text>
<text text-anchor="start" x="228.527" y="-105.3" font-family="Times,serif" font-size="14.00"> return result2</text>
</g>
<!-- Node0xf5ab590&#45;&gt;Node0xf5ab650 -->
<g id="edge4" class="edge"><title>Node0xf5ab590&#45;&gt;Node0xf5ab650</title>
<path fill="none" stroke="black" d="M478.523,-795.346C501.668,-777.222 532.527,-746.338 532.527,-710.5 532.527,-710.5 532.527,-710.5 532.527,-387 532.527,-314.948 555.708,-284.414 513.527,-226 475.543,-173.398 405.486,-145.511 352.259,-131.254"/>
<polygon fill="black" stroke="black" points="353.084,-127.852 342.527,-128.748 351.338,-134.631 353.084,-127.852"/>
<text text-anchor="middle" x="564.027" y="-615.8" font-family="Times,serif" font-size="14.00">v12 != 0</text>
</g>
<!-- Node0xf5ab4a0 -->
<g id="node6" class="node"><title>Node0xf5ab4a0</title>
<polygon fill="none" stroke="black" points="168.027,-601.5 168.027,-637.5 395.027,-637.5 395.027,-601.5 168.027,-601.5"/>
<text text-anchor="start" x="176.027" y="-615.8" font-family="Times,serif" font-size="14.00">if (moduleHandle == NULL):</text>
</g>
<!-- Node0xf5afc20&#45;&gt;Node0xf5ab4a0 -->
<g id="edge5" class="edge"><title>Node0xf5afc20&#45;&gt;Node0xf5ab4a0</title>
<path fill="none" stroke="black" d="M293.398,-675.482C291.4,-666.228 289.253,-656.281 287.341,-647.426"/>
<polygon fill="black" stroke="black" points="290.76,-646.676 285.228,-637.64 283.917,-648.154 290.76,-646.676"/>
</g>
<!-- Node0xf5a7850 -->
<g id="node7" class="node"><title>Node0xf5a7850</title>
<polygon fill="none" stroke="black" points="162.527,-23.5 162.527,-59.5 216.527,-59.5 216.527,-23.5 162.527,-23.5"/>
<text text-anchor="start" x="170.527" y="-37.8" font-family="Times,serif" font-size="14.00">exit:</text>
</g>
<!-- Node0xf5ab650&#45;&gt;Node0xf5a7850 -->
<g id="edge6" class="edge"><title>Node0xf5ab650&#45;&gt;Node0xf5a7850</title>
<path fill="none" stroke="black" d="M258.785,-97.4551C246.826,-87.9651 232.019,-76.2165 219.17,-66.0211"/>
<polygon fill="black" stroke="black" points="221.068,-63.059 211.059,-59.585 216.717,-68.5425 221.068,-63.059"/>
</g>
<!-- Node0xf5b1860 -->
<g id="node8" class="node"><title>Node0xf5b1860</title>
<polygon fill="none" stroke="black" points="34.5271,-154.5 34.5271,-207.5 186.527,-207.5 186.527,-154.5 34.5271,-154.5"/>
<text text-anchor="start" x="42.5271" y="-192.3" font-family="Times,serif" font-size="14.00">0x4196f9:</text>
<text text-anchor="start" x="42.5271" y="-177.3" font-family="Times,serif" font-size="14.00"> function_4178b1()</text>
<text text-anchor="start" x="42.5271" y="-162.3" font-family="Times,serif" font-size="14.00"> return result</text>
</g>
<!-- Node0xf5ab4a0&#45;&gt;Node0xf5b1860 -->
<g id="edge7" class="edge"><title>Node0xf5ab4a0&#45;&gt;Node0xf5b1860</title>
<path fill="none" stroke="black" d="M167.751,-604.503C143.668,-599.394 118.809,-592.444 96.5271,-583 73.0269,-573.04 61.298,-572.647 49.5271,-550 -16.8825,-422.228 -16.0676,-354.193 49.5271,-226 51.5903,-221.968 54.2144,-218.22 57.2094,-214.755"/>
<polygon fill="black" stroke="black" points="59.7307,-217.183 64.2848,-207.617 54.7592,-212.255 59.7307,-217.183"/>
<text text-anchor="middle" x="187.027" y="-571.8" font-family="Times,serif" font-size="14.00">moduleHandle == NULL</text>
</g>
<!-- Node0xf5b1b20 -->
<g id="node9" class="node"><title>Node0xf5b1b20</title>
<polygon fill="none" stroke="black" points="58.5271,-226.5 58.5271,-549.5 504.527,-549.5 504.527,-226.5 58.5271,-226.5"/>
<text text-anchor="start" x="66.5271" y="-534.3" font-family="Times,serif" font-size="14.00">0x4196fe:</text>
<text text-anchor="start" x="66.5271" y="-519.3" font-family="Times,serif" font-size="14.00"> v8 = g9</text>
<text text-anchor="start" x="66.5271" y="-504.3" font-family="Times,serif" font-size="14.00"> g9 = 415640</text>
<text text-anchor="start" x="66.5271" y="-489.3" font-family="Times,serif" font-size="14.00"> hModule = result</text>
<text text-anchor="start" x="66.5271" y="-474.3" font-family="Times,serif" font-size="14.00"> func = GetProcAddress(&amp;(hModule), &quot;CreateActCtxW&quot;)</text>
<text text-anchor="start" x="66.5271" y="-459.3" font-family="Times,serif" font-size="14.00"> v9 = g144</text>
<text text-anchor="start" x="66.5271" y="-444.3" font-family="Times,serif" font-size="14.00"> hModule = v9</text>
<text text-anchor="start" x="66.5271" y="-429.3" font-family="Times,serif" font-size="14.00"> g140 = PtrToIntCastExpr&lt;int32&gt;(func)</text>
<text text-anchor="start" x="66.5271" y="-414.3" font-family="Times,serif" font-size="14.00"> func2 = GetProcAddress(&amp;(hModule), &quot;ReleaseActCtx&quot;)</text>
<text text-anchor="start" x="66.5271" y="-399.3" font-family="Times,serif" font-size="14.00"> v10 = g144</text>
<text text-anchor="start" x="66.5271" y="-384.3" font-family="Times,serif" font-size="14.00"> hModule = v10</text>
<text text-anchor="start" x="66.5271" y="-369.3" font-family="Times,serif" font-size="14.00"> g141 = PtrToIntCastExpr&lt;int32&gt;(func2)</text>
<text text-anchor="start" x="66.5271" y="-354.3" font-family="Times,serif" font-size="14.00"> func3 = GetProcAddress(&amp;(hModule), &quot;ActivateActCtx&quot;)</text>
<text text-anchor="start" x="66.5271" y="-339.3" font-family="Times,serif" font-size="14.00"> v11 = g144</text>
<text text-anchor="start" x="66.5271" y="-324.3" font-family="Times,serif" font-size="14.00"> hModule = v11</text>
<text text-anchor="start" x="66.5271" y="-309.3" font-family="Times,serif" font-size="14.00"> g142 = PtrToIntCastExpr&lt;int32&gt;(func3)</text>
<text text-anchor="start" x="66.5271" y="-294.3" font-family="Times,serif" font-size="14.00"> func4 = GetProcAddress(&amp;(hModule), &quot;DeactivateActCtx&quot;)</text>
<text text-anchor="start" x="66.5271" y="-279.3" font-family="Times,serif" font-size="14.00"> v1 = PtrToIntCastExpr&lt;int32&gt;(func4)</text>
<text text-anchor="start" x="66.5271" y="-264.3" font-family="Times,serif" font-size="14.00"> g143 = v1</text>
<text text-anchor="start" x="66.5271" y="-249.3" font-family="Times,serif" font-size="14.00"> g9 = v8</text>
<text text-anchor="start" x="66.5271" y="-234.3" font-family="Times,serif" font-size="14.00"> result2 = v1</text>
</g>
<!-- Node0xf5ab4a0&#45;&gt;Node0xf5b1b20 -->
<g id="edge8" class="edge"><title>Node0xf5ab4a0&#45;&gt;Node0xf5b1b20</title>
<path fill="none" stroke="black" d="M281.527,-601.25C281.527,-590.891 281.527,-576.557 281.527,-560.182"/>
<polygon fill="black" stroke="black" points="285.027,-559.74 281.527,-549.74 278.027,-559.74 285.027,-559.74"/>
<text text-anchor="middle" x="369.027" y="-571.8" font-family="Times,serif" font-size="14.00">moduleHandle != NULL</text>
</g>
<!-- Node0xf5b1860&#45;&gt;Node0xf5a7850 -->
<g id="edge9" class="edge"><title>Node0xf5b1860&#45;&gt;Node0xf5a7850</title>
<path fill="none" stroke="black" d="M125.201,-154.46C139.287,-129.943 160.456,-93.0986 174.619,-68.4471"/>
<polygon fill="black" stroke="black" points="177.728,-70.0617 179.675,-59.6473 171.659,-66.5744 177.728,-70.0617"/>
</g>
<!-- Node0xf5b1b20&#45;&gt;Node0xf5ab650 -->
<g id="edge10" class="edge"><title>Node0xf5b1b20&#45;&gt;Node0xf5ab650</title>
<path fill="none" stroke="black" d="M281.527,-226.339C281.527,-195.189 281.527,-165.959 281.527,-145.651"/>
<polygon fill="black" stroke="black" points="285.027,-145.606 281.527,-135.606 278.027,-145.606 285.027,-145.606"/>
</g>
</g>
</svg>
