<?xml version="1.0" encoding="UTF-8" standalone="no"?>
<!DOCTYPE svg PUBLIC "-//W3C//DTD SVG 1.1//EN"
 "http://www.w3.org/Graphics/SVG/1.1/DTD/svg11.dtd">
<!-- Generated by graphviz version 2.38.0 (20140413.2041)
 -->
<!-- Title: Control&#45;flow graph for function &#39;function_4219a5()&#39;. Pages: 1 -->
<svg width="911pt" height="3319pt"
 viewBox="0.00 0.00 910.50 3319.00" xmlns="http://www.w3.org/2000/svg" xmlns:xlink="http://www.w3.org/1999/xlink">
<g id="graph0" class="graph" transform="scale(1 1) rotate(0) translate(4 3315)">
<title>Control&#45;flow graph for function &#39;function_4219a5()&#39;.</title>
<polygon fill="white" stroke="none" points="-4,4 -4,-3315 906.5,-3315 906.5,4 -4,4"/>
<text text-anchor="middle" x="451.25" y="-7.8" font-family="Times,serif" font-size="14.00">Control&#45;flow graph for function &#39;function_4219a5()&#39;.</text>
<!-- Node0xf9a93b0 -->
<g id="node1" class="node"><title>Node0xf9a93b0</title>
<polygon fill="none" stroke="black" points="435,-3274.5 435,-3310.5 494,-3310.5 494,-3274.5 435,-3274.5"/>
<text text-anchor="start" x="443" y="-3288.8" font-family="Times,serif" font-size="14.00">entry:</text>
</g>
<!-- Node0xf9a8ff0 -->
<g id="node2" class="node"><title>Node0xf9a8ff0</title>
<polygon fill="none" stroke="black" points="291.5,-2358.5 291.5,-3236.5 637.5,-3236.5 637.5,-2358.5 291.5,-2358.5"/>
<text text-anchor="start" x="299.5" y="-3221.3" font-family="Times,serif" font-size="14.00">v1</text>
<text text-anchor="start" x="299.5" y="-3206.3" font-family="Times,serif" font-size="14.00"> v2</text>
<text text-anchor="start" x="299.5" y="-3191.3" font-family="Times,serif" font-size="14.00"> v3</text>
<text text-anchor="start" x="299.5" y="-3176.3" font-family="Times,serif" font-size="14.00"> v4</text>
<text text-anchor="start" x="299.5" y="-3161.3" font-family="Times,serif" font-size="14.00"> v5</text>
<text text-anchor="start" x="299.5" y="-3146.3" font-family="Times,serif" font-size="14.00"> v6</text>
<text text-anchor="start" x="299.5" y="-3131.3" font-family="Times,serif" font-size="14.00"> v7</text>
<text text-anchor="start" x="299.5" y="-3116.3" font-family="Times,serif" font-size="14.00"> v8</text>
<text text-anchor="start" x="299.5" y="-3101.3" font-family="Times,serif" font-size="14.00"> v9</text>
<text text-anchor="start" x="299.5" y="-3086.3" font-family="Times,serif" font-size="14.00"> v10</text>
<text text-anchor="start" x="299.5" y="-3071.3" font-family="Times,serif" font-size="14.00"> v11</text>
<text text-anchor="start" x="299.5" y="-3056.3" font-family="Times,serif" font-size="14.00"> v12</text>
<text text-anchor="start" x="299.5" y="-3041.3" font-family="Times,serif" font-size="14.00"> v13</text>
<text text-anchor="start" x="299.5" y="-3026.3" font-family="Times,serif" font-size="14.00"> v14</text>
<text text-anchor="start" x="299.5" y="-3011.3" font-family="Times,serif" font-size="14.00"> v15</text>
<text text-anchor="start" x="299.5" y="-2996.3" font-family="Times,serif" font-size="14.00"> v16</text>
<text text-anchor="start" x="299.5" y="-2981.3" font-family="Times,serif" font-size="14.00"> v17</text>
<text text-anchor="start" x="299.5" y="-2966.3" font-family="Times,serif" font-size="14.00"> v18</text>
<text text-anchor="start" x="299.5" y="-2951.3" font-family="Times,serif" font-size="14.00"> v19</text>
<text text-anchor="start" x="299.5" y="-2936.3" font-family="Times,serif" font-size="14.00"> v20</text>
<text text-anchor="start" x="299.5" y="-2921.3" font-family="Times,serif" font-size="14.00"> v21</text>
<text text-anchor="start" x="299.5" y="-2906.3" font-family="Times,serif" font-size="14.00"> v22</text>
<text text-anchor="start" x="299.5" y="-2891.3" font-family="Times,serif" font-size="14.00"> v23</text>
<text text-anchor="start" x="299.5" y="-2876.3" font-family="Times,serif" font-size="14.00"> v24</text>
<text text-anchor="start" x="299.5" y="-2861.3" font-family="Times,serif" font-size="14.00"> v25</text>
<text text-anchor="start" x="299.5" y="-2846.3" font-family="Times,serif" font-size="14.00"> v26</text>
<text text-anchor="start" x="299.5" y="-2831.3" font-family="Times,serif" font-size="14.00"> v27</text>
<text text-anchor="start" x="299.5" y="-2816.3" font-family="Times,serif" font-size="14.00"> v28</text>
<text text-anchor="start" x="299.5" y="-2801.3" font-family="Times,serif" font-size="14.00"> v29</text>
<text text-anchor="start" x="299.5" y="-2786.3" font-family="Times,serif" font-size="14.00"> v30</text>
<text text-anchor="start" x="299.5" y="-2771.3" font-family="Times,serif" font-size="14.00"> v31</text>
<text text-anchor="start" x="299.5" y="-2756.3" font-family="Times,serif" font-size="14.00"> v32</text>
<text text-anchor="start" x="299.5" y="-2741.3" font-family="Times,serif" font-size="14.00"> v33</text>
<text text-anchor="start" x="299.5" y="-2726.3" font-family="Times,serif" font-size="14.00"> v34</text>
<text text-anchor="start" x="299.5" y="-2711.3" font-family="Times,serif" font-size="14.00"> v35</text>
<text text-anchor="start" x="299.5" y="-2696.3" font-family="Times,serif" font-size="14.00"> v36</text>
<text text-anchor="start" x="299.5" y="-2681.3" font-family="Times,serif" font-size="14.00"> v37</text>
<text text-anchor="start" x="299.5" y="-2666.3" font-family="Times,serif" font-size="14.00"> v38</text>
<text text-anchor="start" x="299.5" y="-2651.3" font-family="Times,serif" font-size="14.00"> v39</text>
<text text-anchor="start" x="299.5" y="-2636.3" font-family="Times,serif" font-size="14.00"> v40</text>
<text text-anchor="start" x="299.5" y="-2621.3" font-family="Times,serif" font-size="14.00"> v41</text>
<text text-anchor="start" x="299.5" y="-2606.3" font-family="Times,serif" font-size="14.00"> v42</text>
<text text-anchor="start" x="299.5" y="-2591.3" font-family="Times,serif" font-size="14.00"> v43</text>
<text text-anchor="start" x="299.5" y="-2576.3" font-family="Times,serif" font-size="14.00"> v44</text>
<text text-anchor="start" x="299.5" y="-2561.3" font-family="Times,serif" font-size="14.00"> v45</text>
<text text-anchor="start" x="299.5" y="-2546.3" font-family="Times,serif" font-size="14.00"> v46</text>
<text text-anchor="start" x="299.5" y="-2531.3" font-family="Times,serif" font-size="14.00"> v47</text>
<text text-anchor="start" x="299.5" y="-2516.3" font-family="Times,serif" font-size="14.00"> v48</text>
<text text-anchor="start" x="299.5" y="-2501.3" font-family="Times,serif" font-size="14.00"> v49</text>
<text text-anchor="start" x="299.5" y="-2486.3" font-family="Times,serif" font-size="14.00"> v19 = v20</text>
<text text-anchor="start" x="299.5" y="-2471.3" font-family="Times,serif" font-size="14.00"> v17 = v18</text>
<text text-anchor="start" x="299.5" y="-2456.3" font-family="Times,serif" font-size="14.00"> v3 = PtrToIntCastExpr&lt;int32&gt;(&amp;(v17))</text>
<text text-anchor="start" x="299.5" y="-2441.3" font-family="Times,serif" font-size="14.00"> g10 = v3</text>
<text text-anchor="start" x="299.5" y="-2426.3" font-family="Times,serif" font-size="14.00"> v25 = g5</text>
<text text-anchor="start" x="299.5" y="-2411.3" font-family="Times,serif" font-size="14.00"> g9 = v25</text>
<text text-anchor="start" x="299.5" y="-2396.3" font-family="Times,serif" font-size="14.00"> v45 = *(IntToPtrCastExpr&lt;ptr&gt;((v25 + 16)))</text>
<text text-anchor="start" x="299.5" y="-2381.3" font-family="Times,serif" font-size="14.00"> g5 = v45</text>
<text text-anchor="start" x="299.5" y="-2366.3" font-family="Times,serif" font-size="14.00"> v29 = v25</text>
</g>
<!-- Node0xf9a93b0&#45;&gt;Node0xf9a8ff0 -->
<g id="edge1" class="edge"><title>Node0xf9a93b0&#45;&gt;Node0xf9a8ff0</title>
<path fill="none" stroke="black" d="M464.5,-3274.24C464.5,-3266.99 464.5,-3257.66 464.5,-3246.65"/>
<polygon fill="black" stroke="black" points="468,-3246.55 464.5,-3236.55 461,-3246.55 468,-3246.55"/>
</g>
<!-- Node0xaf0ff00 -->
<g id="node3" class="node"><title>Node0xaf0ff00</title>
<polygon fill="none" stroke="black" points="410.5,-2284.5 410.5,-2320.5 518.5,-2320.5 518.5,-2284.5 410.5,-2284.5"/>
<text text-anchor="start" x="418.5" y="-2298.8" font-family="Times,serif" font-size="14.00">if (v45 != 0):</text>
</g>
<!-- Node0xf9a8ff0&#45;&gt;Node0xaf0ff00 -->
<g id="edge2" class="edge"><title>Node0xf9a8ff0&#45;&gt;Node0xaf0ff00</title>
<path fill="none" stroke="black" d="M464.5,-2358.14C464.5,-2347.64 464.5,-2338.36 464.5,-2330.56"/>
<polygon fill="black" stroke="black" points="468,-2330.55 464.5,-2320.55 461,-2330.55 468,-2330.55"/>
</g>
<!-- Node0xf9b6900 -->
<g id="node4" class="node"><title>Node0xf9b6900</title>
<polygon fill="none" stroke="black" points="204.5,-2179.5 204.5,-2232.5 500.5,-2232.5 500.5,-2179.5 204.5,-2179.5"/>
<text text-anchor="start" x="212.5" y="-2217.3" font-family="Times,serif" font-size="14.00">0x4219af:</text>
<text text-anchor="start" x="212.5" y="-2202.3" font-family="Times,serif" font-size="14.00"> v32 = *(IntToPtrCastExpr&lt;ptr&gt;(v25))</text>
<text text-anchor="start" x="212.5" y="-2187.3" font-family="Times,serif" font-size="14.00"> v4 = IntToPtrCastExpr&lt;ptr&gt;(v32)</text>
</g>
<!-- Node0xaf0ff00&#45;&gt;Node0xf9b6900 -->
<g id="edge3" class="edge"><title>Node0xaf0ff00&#45;&gt;Node0xf9b6900</title>
<path fill="none" stroke="black" d="M444.218,-2284.39C429.349,-2271.84 408.714,-2254.43 390.781,-2239.3"/>
<polygon fill="black" stroke="black" points="392.663,-2236.31 382.763,-2232.53 388.149,-2241.66 392.663,-2236.31"/>
<text text-anchor="middle" x="454" y="-2254.8" font-family="Times,serif" font-size="14.00">v45 != 0</text>
</g>
<!-- Node0xf986e10 -->
<g id="node5" class="node"><title>Node0xf986e10</title>
<polygon fill="none" stroke="black" points="326.5,-1291.5 326.5,-1344.5 622.5,-1344.5 622.5,-1291.5 326.5,-1291.5"/>
<text text-anchor="start" x="334.5" y="-1329.3" font-family="Times,serif" font-size="14.00">0x4219d6:</text>
<text text-anchor="start" x="334.5" y="-1314.3" font-family="Times,serif" font-size="14.00"> v44 = *(IntToPtrCastExpr&lt;ptr&gt;(v29))</text>
<text text-anchor="start" x="334.5" y="-1299.3" font-family="Times,serif" font-size="14.00"> g1 = False</text>
</g>
<!-- Node0xaf0ff00&#45;&gt;Node0xf986e10 -->
<g id="edge4" class="edge"><title>Node0xaf0ff00&#45;&gt;Node0xf986e10</title>
<path fill="none" stroke="black" d="M485.456,-2284.32C504.121,-2266.97 528.5,-2238.31 528.5,-2207 528.5,-2207 528.5,-2207 528.5,-1445.5 528.5,-1412.32 512.594,-1377.9 498.048,-1353.35"/>
<polygon fill="black" stroke="black" points="500.997,-1351.47 492.782,-1344.77 495.032,-1355.13 500.997,-1351.47"/>
<text text-anchor="middle" x="563" y="-1847.8" font-family="Times,serif" font-size="14.00">v45 == 0</text>
</g>
<!-- Node0xf9672f0 -->
<g id="node6" class="node"><title>Node0xf9672f0</title>
<polygon fill="none" stroke="black" points="295.5,-2103.5 295.5,-2141.5 409.5,-2141.5 409.5,-2103.5 295.5,-2103.5"/>
<text text-anchor="start" x="303.5" y="-2126.3" font-family="Times,serif" font-size="14.00">if (v32 == 0):</text>
<text text-anchor="start" x="303.5" y="-2111.3" font-family="Times,serif" font-size="14.00"> else:</text>
</g>
<!-- Node0xf9b6900&#45;&gt;Node0xf9672f0 -->
<g id="edge5" class="edge"><title>Node0xf9b6900&#45;&gt;Node0xf9672f0</title>
<path fill="none" stroke="black" d="M352.5,-2179.21C352.5,-2170.53 352.5,-2160.79 352.5,-2151.91"/>
<polygon fill="black" stroke="black" points="356,-2151.64 352.5,-2141.64 349,-2151.64 356,-2151.64"/>
</g>
<!-- Node0xf98f280 -->
<g id="node7" class="node"><title>Node0xf98f280</title>
<polygon fill="none" stroke="black" points="417.5,-1217.5 417.5,-1253.5 531.5,-1253.5 531.5,-1217.5 417.5,-1217.5"/>
<text text-anchor="start" x="425.5" y="-1231.8" font-family="Times,serif" font-size="14.00">if (v44 == 0):</text>
</g>
<!-- Node0xf986e10&#45;&gt;Node0xf98f280 -->
<g id="edge6" class="edge"><title>Node0xf986e10&#45;&gt;Node0xf98f280</title>
<path fill="none" stroke="black" d="M474.5,-1291.09C474.5,-1282.46 474.5,-1272.82 474.5,-1264.07"/>
<polygon fill="black" stroke="black" points="478,-1263.97 474.5,-1253.97 471,-1263.97 478,-1263.97"/>
</g>
<!-- Node0xf974ae0 -->
<g id="node8" class="node"><title>Node0xf974ae0</title>
<polygon fill="none" stroke="black" points="115,-1976 115,-2014 210,-2014 210,-1976 115,-1976"/>
<text text-anchor="start" x="123" y="-1998.8" font-family="Times,serif" font-size="14.00">0x4219af:</text>
<text text-anchor="start" x="123" y="-1983.8" font-family="Times,serif" font-size="14.00"> v38 = v25</text>
</g>
<!-- Node0xf9672f0&#45;&gt;Node0xf974ae0 -->
<g id="edge7" class="edge"><title>Node0xf9672f0&#45;&gt;Node0xf974ae0</title>
<path fill="none" stroke="black" d="M309.819,-2103.46C282.486,-2090.95 246.941,-2072.82 218.5,-2052 206.477,-2043.2 194.597,-2031.81 184.894,-2021.61"/>
<polygon fill="black" stroke="black" points="187.298,-2019.05 177.933,-2014.1 182.164,-2023.81 187.298,-2019.05"/>
<text text-anchor="middle" x="306" y="-2073.8" font-family="Times,serif" font-size="14.00">v32 == 0</text>
</g>
<!-- Node0xf9c13a0 -->
<g id="node9" class="node"><title>Node0xf9c13a0</title>
<polygon fill="none" stroke="black" points="228,-1938.5 228,-2051.5 497,-2051.5 497,-1938.5 228,-1938.5"/>
<text text-anchor="start" x="236" y="-2036.3" font-family="Times,serif" font-size="14.00">0x4219b5:</text>
<text text-anchor="start" x="236" y="-2021.3" font-family="Times,serif" font-size="14.00"> v5 = IntToPtrCastExpr&lt;ptr&gt;(v32)</text>
<text text-anchor="start" x="236" y="-2006.3" font-family="Times,serif" font-size="14.00"> v19 = v5</text>
<text text-anchor="start" x="236" y="-1991.3" font-family="Times,serif" font-size="14.00"> v2 = v17</text>
<text text-anchor="start" x="236" y="-1976.3" font-family="Times,serif" font-size="14.00"> function_4207ce(v5, v2)</text>
<text text-anchor="start" x="236" y="-1961.3" font-family="Times,serif" font-size="14.00"> v39 = g9</text>
<text text-anchor="start" x="236" y="-1946.3" font-family="Times,serif" font-size="14.00"> v38 = v39</text>
</g>
<!-- Node0xf9672f0&#45;&gt;Node0xf9c13a0 -->
<g id="edge8" class="edge"><title>Node0xf9672f0&#45;&gt;Node0xf9c13a0</title>
<path fill="none" stroke="black" d="M353.954,-2103.25C354.847,-2092.04 356.051,-2076.93 357.274,-2061.59"/>
<polygon fill="black" stroke="black" points="360.771,-2061.76 358.076,-2051.52 353.793,-2061.21 360.771,-2061.76"/>
<text text-anchor="middle" x="388" y="-2073.8" font-family="Times,serif" font-size="14.00">v32 != 0</text>
</g>
<!-- Node0xf968b60 -->
<g id="node10" class="node"><title>Node0xf968b60</title>
<polygon fill="none" stroke="black" points="277,-935.5 277,-1003.5 574,-1003.5 574,-935.5 277,-935.5"/>
<text text-anchor="start" x="285" y="-988.3" font-family="Times,serif" font-size="14.00">v13 = v14</text>
<text text-anchor="start" x="285" y="-973.3" font-family="Times,serif" font-size="14.00"> v37 = v17</text>
<text text-anchor="start" x="285" y="-958.3" font-family="Times,serif" font-size="14.00"> g9 = PtrToIntCastExpr&lt;int32&gt;(v37)</text>
<text text-anchor="start" x="285" y="-943.3" font-family="Times,serif" font-size="14.00"> return PtrToIntCastExpr&lt;int32&gt;(v13)</text>
</g>
<!-- Node0xf98f280&#45;&gt;Node0xf968b60 -->
<g id="edge9" class="edge"><title>Node0xf98f280&#45;&gt;Node0xf968b60</title>
<path fill="none" stroke="black" d="M452.709,-1217.32C447.479,-1212.03 442.533,-1205.8 439.5,-1199 412.715,-1138.98 414.693,-1061.16 419.45,-1013.57"/>
<polygon fill="black" stroke="black" points="422.932,-1013.93 420.532,-1003.61 415.973,-1013.17 422.932,-1013.93"/>
<text text-anchor="middle" x="474" y="-1187.8" font-family="Times,serif" font-size="14.00">v44 == 0</text>
</g>
<!-- Node0xf96b990 -->
<g id="node11" class="node"><title>Node0xf96b990</title>
<polygon fill="none" stroke="black" points="463.5,-1022.5 463.5,-1165.5 773.5,-1165.5 773.5,-1022.5 463.5,-1022.5"/>
<text text-anchor="start" x="471.5" y="-1150.3" font-family="Times,serif" font-size="14.00">0x4219db:</text>
<text text-anchor="start" x="471.5" y="-1135.3" font-family="Times,serif" font-size="14.00"> g5 = v29</text>
<text text-anchor="start" x="471.5" y="-1120.3" font-family="Times,serif" font-size="14.00"> v1 = v17</text>
<text text-anchor="start" x="471.5" y="-1105.3" font-family="Times,serif" font-size="14.00"> function_41dcf5(BitCastExpr&lt;ptr&gt;(v1))</text>
<text text-anchor="start" x="471.5" y="-1090.3" font-family="Times,serif" font-size="14.00"> v30 = g9</text>
<text text-anchor="start" x="471.5" y="-1075.3" font-family="Times,serif" font-size="14.00"> v7 = IntToPtrCastExpr&lt;ptr&gt;(v30)</text>
<text text-anchor="start" x="471.5" y="-1060.3" font-family="Times,serif" font-size="14.00"> v34 = *(v7)</text>
<text text-anchor="start" x="471.5" y="-1045.3" font-family="Times,serif" font-size="14.00"> g2 = v34</text>
<text text-anchor="start" x="471.5" y="-1030.3" font-family="Times,serif" font-size="14.00"> v43 = v30</text>
</g>
<!-- Node0xf98f280&#45;&gt;Node0xf96b990 -->
<g id="edge10" class="edge"><title>Node0xf98f280&#45;&gt;Node0xf96b990</title>
<path fill="none" stroke="black" d="M492.157,-1217.39C504.051,-1205.87 520.676,-1189.77 537.967,-1173.02"/>
<polygon fill="black" stroke="black" points="540.659,-1175.28 545.406,-1165.81 535.788,-1170.25 540.659,-1175.28"/>
<text text-anchor="middle" x="556" y="-1187.8" font-family="Times,serif" font-size="14.00">v44 != 0</text>
</g>
<!-- Node0xf971f60 -->
<g id="node12" class="node"><title>Node0xf971f60</title>
<polygon fill="none" stroke="black" points="62.5,-1802.5 62.5,-1900.5 408.5,-1900.5 408.5,-1802.5 62.5,-1802.5"/>
<text text-anchor="start" x="70.5" y="-1885.3" font-family="Times,serif" font-size="14.00">0x4219bb:</text>
<text text-anchor="start" x="70.5" y="-1870.3" font-family="Times,serif" font-size="14.00"> v26 = g7</text>
<text text-anchor="start" x="70.5" y="-1855.3" font-family="Times,serif" font-size="14.00"> v19 = IntToPtrCastExpr&lt;ptr&gt;(v26)</text>
<text text-anchor="start" x="70.5" y="-1840.3" font-family="Times,serif" font-size="14.00"> v46 = *(IntToPtrCastExpr&lt;ptr&gt;((v38 + 16)))</text>
<text text-anchor="start" x="70.5" y="-1825.3" font-family="Times,serif" font-size="14.00"> g7 = v46</text>
<text text-anchor="start" x="70.5" y="-1810.3" font-family="Times,serif" font-size="14.00"> v40 = v38</text>
</g>
<!-- Node0xf974ae0&#45;&gt;Node0xf971f60 -->
<g id="edge11" class="edge"><title>Node0xf974ae0&#45;&gt;Node0xf971f60</title>
<path fill="none" stroke="black" d="M171.894,-1975.79C180.533,-1959.05 193.813,-1933.3 206.008,-1909.67"/>
<polygon fill="black" stroke="black" points="209.143,-1911.22 210.617,-1900.73 202.922,-1908.01 209.143,-1911.22"/>
</g>
<!-- Node0xf9c13a0&#45;&gt;Node0xf971f60 -->
<g id="edge12" class="edge"><title>Node0xf9c13a0&#45;&gt;Node0xf971f60</title>
<path fill="none" stroke="black" d="M312.671,-1938.48C303.7,-1928.49 294.347,-1918.07 285.374,-1908.07"/>
<polygon fill="black" stroke="black" points="287.884,-1905.63 278.6,-1900.52 282.675,-1910.3 287.884,-1905.63"/>
</g>
<!-- Node0xf9a9330 -->
<g id="node13" class="node"><title>Node0xf9a9330</title>
<polygon fill="none" stroke="black" points="452.5,-23.5 452.5,-59.5 506.5,-59.5 506.5,-23.5 452.5,-23.5"/>
<text text-anchor="start" x="460.5" y="-37.8" font-family="Times,serif" font-size="14.00">exit:</text>
</g>
<!-- Node0xf968b60&#45;&gt;Node0xf9a9330 -->
<g id="edge13" class="edge"><title>Node0xf968b60&#45;&gt;Node0xf9a9330</title>
<path fill="none" stroke="black" d="M425.053,-935.372C424.786,-912.85 424.5,-882.378 424.5,-855.5 424.5,-855.5 424.5,-855.5 424.5,-130.5 424.5,-106.502 439.391,-83.6523 453.676,-67.2535"/>
<polygon fill="black" stroke="black" points="456.386,-69.4772 460.572,-59.7445 451.23,-64.7422 456.386,-69.4772"/>
</g>
<!-- Node0xf98bcf0 -->
<g id="node14" class="node"><title>Node0xf98bcf0</title>
<polygon fill="none" stroke="black" points="567.5,-880.5 567.5,-916.5 675.5,-916.5 675.5,-880.5 567.5,-880.5"/>
<text text-anchor="start" x="575.5" y="-894.8" font-family="Times,serif" font-size="14.00">if (v34 != 0):</text>
</g>
<!-- Node0xf96b990&#45;&gt;Node0xf98bcf0 -->
<g id="edge14" class="edge"><title>Node0xf96b990&#45;&gt;Node0xf98bcf0</title>
<path fill="none" stroke="black" d="M619.596,-1022.32C620.109,-989.217 620.69,-951.713 621.074,-926.953"/>
<polygon fill="black" stroke="black" points="624.575,-926.906 621.231,-916.853 617.576,-926.797 624.575,-926.906"/>
</g>
<!-- Node0xf9995c0 -->
<g id="node15" class="node"><title>Node0xf9995c0</title>
<polygon fill="none" stroke="black" points="181.5,-1728.5 181.5,-1764.5 289.5,-1764.5 289.5,-1728.5 181.5,-1728.5"/>
<text text-anchor="start" x="189.5" y="-1742.8" font-family="Times,serif" font-size="14.00">if (v46 != 0):</text>
</g>
<!-- Node0xf971f60&#45;&gt;Node0xf9995c0 -->
<g id="edge15" class="edge"><title>Node0xf971f60&#45;&gt;Node0xf9995c0</title>
<path fill="none" stroke="black" d="M235.5,-1802.32C235.5,-1792.89 235.5,-1783.32 235.5,-1774.87"/>
<polygon fill="black" stroke="black" points="239,-1774.86 235.5,-1764.86 232,-1774.86 239,-1774.86"/>
</g>
<!-- Node0xf997b50 -->
<g id="node16" class="node"><title>Node0xf997b50</title>
<polygon fill="none" stroke="black" points="453,-625.5 453,-828.5 790,-828.5 790,-625.5 453,-625.5"/>
<text text-anchor="start" x="461" y="-813.3" font-family="Times,serif" font-size="14.00">0x4219e8:</text>
<text text-anchor="start" x="461" y="-798.3" font-family="Times,serif" font-size="14.00"> g1 = False</text>
<text text-anchor="start" x="461" y="-783.3" font-family="Times,serif" font-size="14.00"> g207 = True</text>
<text text-anchor="start" x="461" y="-768.3" font-family="Times,serif" font-size="14.00"> *(v7) = 0</text>
<text text-anchor="start" x="461" y="-753.3" font-family="Times,serif" font-size="14.00"> v31 = g2</text>
<text text-anchor="start" x="461" y="-738.3" font-family="Times,serif" font-size="14.00"> v35 = *(IntToPtrCastExpr&lt;ptr&gt;(v31))</text>
<text text-anchor="start" x="461" y="-723.3" font-family="Times,serif" font-size="14.00"> g5 = v35</text>
<text text-anchor="start" x="461" y="-708.3" font-family="Times,serif" font-size="14.00"> v19 = IntToPtrCastExpr&lt;ptr&gt;(v31)</text>
<text text-anchor="start" x="461" y="-693.3" font-family="Times,serif" font-size="14.00"> g10 = PtrToIntCastExpr&lt;int32&gt;(&amp;(v19))</text>
<text text-anchor="start" x="461" y="-678.3" font-family="Times,serif" font-size="14.00"> v48 = *(IntToPtrCastExpr&lt;ptr&gt;((v35 + 8)))</text>
<text text-anchor="start" x="461" y="-663.3" font-family="Times,serif" font-size="14.00"> IntToPtrCastExpr&lt;ptr&gt;(v48)(v31)</text>
<text text-anchor="start" x="461" y="-648.3" font-family="Times,serif" font-size="14.00"> v42 = g9</text>
<text text-anchor="start" x="461" y="-633.3" font-family="Times,serif" font-size="14.00"> v43 = v42</text>
</g>
<!-- Node0xf98bcf0&#45;&gt;Node0xf997b50 -->
<g id="edge16" class="edge"><title>Node0xf98bcf0&#45;&gt;Node0xf997b50</title>
<path fill="none" stroke="black" d="M621.5,-880.315C621.5,-869.651 621.5,-854.937 621.5,-838.831"/>
<polygon fill="black" stroke="black" points="625,-838.647 621.5,-828.647 618,-838.647 625,-838.647"/>
<text text-anchor="middle" x="653" y="-850.8" font-family="Times,serif" font-size="14.00">v34 != 0</text>
</g>
<!-- Node0xae0d320 -->
<g id="node17" class="node"><title>Node0xae0d320</title>
<polygon fill="none" stroke="black" points="544.5,-504.5 544.5,-587.5 854.5,-587.5 854.5,-504.5 544.5,-504.5"/>
<text text-anchor="start" x="552.5" y="-572.3" font-family="Times,serif" font-size="14.00">0x4219f1:</text>
<text text-anchor="start" x="552.5" y="-557.3" font-family="Times,serif" font-size="14.00"> v8 = IntToPtrCastExpr&lt;ptr&gt;((v43 + 4))</text>
<text text-anchor="start" x="552.5" y="-542.3" font-family="Times,serif" font-size="14.00"> v47 = *(v8)</text>
<text text-anchor="start" x="552.5" y="-527.3" font-family="Times,serif" font-size="14.00"> v9 = IntToPtrCastExpr&lt;ptr&gt;(v47)</text>
<text text-anchor="start" x="552.5" y="-512.3" font-family="Times,serif" font-size="14.00"> g1 = False</text>
</g>
<!-- Node0xf98bcf0&#45;&gt;Node0xae0d320 -->
<g id="edge17" class="edge"><title>Node0xf98bcf0&#45;&gt;Node0xae0d320</title>
<path fill="none" stroke="black" d="M675.844,-892.643C717.346,-885.756 771.947,-869.126 799.5,-829 850.823,-754.258 839.278,-706.475 799.5,-625 793.974,-613.681 785.924,-603.526 776.754,-594.58"/>
<polygon fill="black" stroke="black" points="778.93,-591.827 769.187,-587.665 774.208,-596.994 778.93,-591.827"/>
<text text-anchor="middle" x="868" y="-723.3" font-family="Times,serif" font-size="14.00">v34 == 0</text>
</g>
<!-- Node0xf976360 -->
<g id="node18" class="node"><title>Node0xf976360</title>
<polygon fill="none" stroke="black" points="0,-1548.5 0,-1676.5 361,-1676.5 361,-1548.5 0,-1548.5"/>
<text text-anchor="start" x="8" y="-1661.3" font-family="Times,serif" font-size="14.00">0x4219c3:</text>
<text text-anchor="start" x="8" y="-1646.3" font-family="Times,serif" font-size="14.00"> g5 = v46</text>
<text text-anchor="start" x="8" y="-1631.3" font-family="Times,serif" font-size="14.00"> function_41c9ad(IntToPtrCastExpr&lt;ptr&gt;(v26))</text>
<text text-anchor="start" x="8" y="-1616.3" font-family="Times,serif" font-size="14.00"> v27 = g7</text>
<text text-anchor="start" x="8" y="-1601.3" font-family="Times,serif" font-size="14.00"> function_40c783()</text>
<text text-anchor="start" x="8" y="-1586.3" font-family="Times,serif" font-size="14.00"> g5 = v27</text>
<text text-anchor="start" x="8" y="-1571.3" font-family="Times,serif" font-size="14.00"> v41 = g9</text>
<text text-anchor="start" x="8" y="-1556.3" font-family="Times,serif" font-size="14.00"> v40 = v41</text>
</g>
<!-- Node0xf9995c0&#45;&gt;Node0xf976360 -->
<g id="edge18" class="edge"><title>Node0xf9995c0&#45;&gt;Node0xf976360</title>
<path fill="none" stroke="black" d="M228.31,-1728.24C223.661,-1717.09 217.262,-1701.73 210.657,-1685.88"/>
<polygon fill="black" stroke="black" points="213.832,-1684.4 206.755,-1676.51 207.371,-1687.09 213.832,-1684.4"/>
<text text-anchor="middle" x="251" y="-1698.8" font-family="Times,serif" font-size="14.00">v46 != 0</text>
</g>
<!-- Node0xf9724d0 -->
<g id="node19" class="node"><title>Node0xf9724d0</title>
<polygon fill="none" stroke="black" points="172,-1382.5 172,-1510.5 501,-1510.5 501,-1382.5 172,-1382.5"/>
<text text-anchor="start" x="180" y="-1495.3" font-family="Times,serif" font-size="14.00">0x4219d1:</text>
<text text-anchor="start" x="180" y="-1480.3" font-family="Times,serif" font-size="14.00"> *(IntToPtrCastExpr&lt;ptr&gt;((v40 + 16))) = 0</text>
<text text-anchor="start" x="180" y="-1465.3" font-family="Times,serif" font-size="14.00"> v33 = v19</text>
<text text-anchor="start" x="180" y="-1450.3" font-family="Times,serif" font-size="14.00"> g7 = PtrToIntCastExpr&lt;int32&gt;(v33)</text>
<text text-anchor="start" x="180" y="-1435.3" font-family="Times,serif" font-size="14.00"> g10 = v3</text>
<text text-anchor="start" x="180" y="-1420.3" font-family="Times,serif" font-size="14.00"> v28 = g9</text>
<text text-anchor="start" x="180" y="-1405.3" font-family="Times,serif" font-size="14.00"> v29 = v28</text>
<text text-anchor="start" x="180" y="-1390.3" font-family="Times,serif" font-size="14.00"> v14 = v4</text>
</g>
<!-- Node0xf9995c0&#45;&gt;Node0xf9724d0 -->
<g id="edge19" class="edge"><title>Node0xf9995c0&#45;&gt;Node0xf9724d0</title>
<path fill="none" stroke="black" d="M289.75,-1732.53C318.806,-1722.52 352.113,-1705.41 369.5,-1677 398.148,-1630.18 386.916,-1568.13 370.159,-1520.35"/>
<polygon fill="black" stroke="black" points="373.348,-1518.88 366.628,-1510.69 366.773,-1521.28 373.348,-1518.88"/>
<text text-anchor="middle" x="422" y="-1608.8" font-family="Times,serif" font-size="14.00">v46 == 0</text>
</g>
<!-- Node0xf997b50&#45;&gt;Node0xae0d320 -->
<g id="edge20" class="edge"><title>Node0xf997b50&#45;&gt;Node0xae0d320</title>
<path fill="none" stroke="black" d="M665.402,-625.252C669.625,-615.56 673.77,-606.048 677.634,-597.179"/>
<polygon fill="black" stroke="black" points="680.923,-598.394 681.709,-587.829 674.505,-595.598 680.923,-598.394"/>
</g>
<!-- Node0xf9082e0 -->
<g id="node20" class="node"><title>Node0xf9082e0</title>
<polygon fill="none" stroke="black" points="645.5,-428.5 645.5,-466.5 753.5,-466.5 753.5,-428.5 645.5,-428.5"/>
<text text-anchor="start" x="653.5" y="-451.3" font-family="Times,serif" font-size="14.00">if (v47 != 0):</text>
<text text-anchor="start" x="653.5" y="-436.3" font-family="Times,serif" font-size="14.00"> else:</text>
</g>
<!-- Node0xae0d320&#45;&gt;Node0xf9082e0 -->
<g id="edge21" class="edge"><title>Node0xae0d320&#45;&gt;Node0xf9082e0</title>
<path fill="none" stroke="black" d="M699.5,-504.355C699.5,-495.083 699.5,-485.427 699.5,-476.803"/>
<polygon fill="black" stroke="black" points="703,-476.538 699.5,-466.538 696,-476.538 703,-476.538"/>
</g>
<!-- Node0xf976360&#45;&gt;Node0xf9724d0 -->
<g id="edge22" class="edge"><title>Node0xf976360&#45;&gt;Node0xf9724d0</title>
<path fill="none" stroke="black" d="M240.814,-1548.09C250.106,-1538.32 259.751,-1528.18 269.184,-1518.27"/>
<polygon fill="black" stroke="black" points="271.991,-1520.4 276.347,-1510.74 266.919,-1515.57 271.991,-1520.4"/>
</g>
<!-- Node0xf9724d0&#45;&gt;Node0xf986e10 -->
<g id="edge23" class="edge"><title>Node0xf9724d0&#45;&gt;Node0xf986e10</title>
<path fill="none" stroke="black" d="M405.5,-1382.25C417.098,-1371.62 428.697,-1360.99 438.984,-1351.56"/>
<polygon fill="black" stroke="black" points="441.567,-1353.94 446.574,-1344.6 436.837,-1348.78 441.567,-1353.94"/>
</g>
<!-- Node0xf970c60 -->
<g id="node21" class="node"><title>Node0xf970c60</title>
<polygon fill="none" stroke="black" points="453,-203.5 453,-376.5 790,-376.5 790,-203.5 453,-203.5"/>
<text text-anchor="start" x="461" y="-361.3" font-family="Times,serif" font-size="14.00">0x4219f8:</text>
<text text-anchor="start" x="461" y="-346.3" font-family="Times,serif" font-size="14.00"> g1 = False</text>
<text text-anchor="start" x="461" y="-331.3" font-family="Times,serif" font-size="14.00"> g207 = True</text>
<text text-anchor="start" x="461" y="-316.3" font-family="Times,serif" font-size="14.00"> *(v8) = 0</text>
<text text-anchor="start" x="461" y="-301.3" font-family="Times,serif" font-size="14.00"> v36 = *(&amp;(v9[&#39;0&#39;]))</text>
<text text-anchor="start" x="461" y="-286.3" font-family="Times,serif" font-size="14.00"> g5 = v36</text>
<text text-anchor="start" x="461" y="-271.3" font-family="Times,serif" font-size="14.00"> v19 = IntToPtrCastExpr&lt;ptr&gt;(v47)</text>
<text text-anchor="start" x="461" y="-256.3" font-family="Times,serif" font-size="14.00"> g10 = PtrToIntCastExpr&lt;int32&gt;(&amp;(v19))</text>
<text text-anchor="start" x="461" y="-241.3" font-family="Times,serif" font-size="14.00"> v49 = *(IntToPtrCastExpr&lt;ptr&gt;((v36 + 8)))</text>
<text text-anchor="start" x="461" y="-226.3" font-family="Times,serif" font-size="14.00"> IntToPtrCastExpr&lt;ptr&gt;(v49)(v47)</text>
<text text-anchor="start" x="461" y="-211.3" font-family="Times,serif" font-size="14.00"> v13 = v9</text>
</g>
<!-- Node0xf9082e0&#45;&gt;Node0xf970c60 -->
<g id="edge24" class="edge"><title>Node0xf9082e0&#45;&gt;Node0xf970c60</title>
<path fill="none" stroke="black" d="M690.4,-428.358C684.805,-417.204 677.159,-401.961 668.99,-385.676"/>
<polygon fill="black" stroke="black" points="672.02,-383.91 664.408,-376.541 665.763,-387.049 672.02,-383.91"/>
<text text-anchor="middle" x="712" y="-398.8" font-family="Times,serif" font-size="14.00">v47 != 0</text>
</g>
<!-- Node0xf984580 -->
<g id="node22" class="node"><title>Node0xf984580</title>
<polygon fill="none" stroke="black" points="808,-272 808,-308 889,-308 889,-272 808,-272"/>
<text text-anchor="start" x="816" y="-286.3" font-family="Times,serif" font-size="14.00">v13 = v9</text>
</g>
<!-- Node0xf9082e0&#45;&gt;Node0xf984580 -->
<g id="edge25" class="edge"><title>Node0xf9082e0&#45;&gt;Node0xf984580</title>
<path fill="none" stroke="black" d="M732.962,-428.437C753.881,-415.971 780.383,-397.909 799.5,-377 815.545,-359.451 828.561,-335.747 837.134,-317.669"/>
<polygon fill="black" stroke="black" points="840.453,-318.829 841.431,-308.279 834.087,-315.916 840.453,-318.829"/>
<text text-anchor="middle" x="814" y="-398.8" font-family="Times,serif" font-size="14.00">v47 == 0</text>
</g>
<!-- Node0xf96e6d0 -->
<g id="node23" class="node"><title>Node0xf96e6d0</title>
<polygon fill="none" stroke="black" points="473,-97.5 473,-165.5 770,-165.5 770,-97.5 473,-97.5"/>
<text text-anchor="start" x="481" y="-150.3" font-family="Times,serif" font-size="14.00">0x421a02:</text>
<text text-anchor="start" x="481" y="-135.3" font-family="Times,serif" font-size="14.00"> v37 = v17</text>
<text text-anchor="start" x="481" y="-120.3" font-family="Times,serif" font-size="14.00"> g9 = PtrToIntCastExpr&lt;int32&gt;(v37)</text>
<text text-anchor="start" x="481" y="-105.3" font-family="Times,serif" font-size="14.00"> return PtrToIntCastExpr&lt;int32&gt;(v13)</text>
</g>
<!-- Node0xf970c60&#45;&gt;Node0xf96e6d0 -->
<g id="edge26" class="edge"><title>Node0xf970c60&#45;&gt;Node0xf96e6d0</title>
<path fill="none" stroke="black" d="M621.5,-203.424C621.5,-193.886 621.5,-184.495 621.5,-175.823"/>
<polygon fill="black" stroke="black" points="625,-175.642 621.5,-165.642 618,-175.642 625,-175.642"/>
</g>
<!-- Node0xf984580&#45;&gt;Node0xf96e6d0 -->
<g id="edge27" class="edge"><title>Node0xf984580&#45;&gt;Node0xf96e6d0</title>
<path fill="none" stroke="black" d="M842.708,-271.866C835.419,-252.68 821.169,-221.815 799.5,-203 784.294,-189.797 766.316,-178.895 747.729,-169.944"/>
<polygon fill="black" stroke="black" points="749.111,-166.727 738.566,-165.705 746.172,-173.08 749.111,-166.727"/>
</g>
<!-- Node0xf96e6d0&#45;&gt;Node0xf9a9330 -->
<g id="edge28" class="edge"><title>Node0xf96e6d0&#45;&gt;Node0xf9a9330</title>
<path fill="none" stroke="black" d="M568.22,-97.4817C550.558,-86.5358 531.332,-74.6213 515.308,-64.6907"/>
<polygon fill="black" stroke="black" points="517.109,-61.6892 506.765,-59.3965 513.421,-67.6392 517.109,-61.6892"/>
</g>
</g>
</svg>
