<?xml version="1.0" encoding="UTF-8" standalone="no"?>
<!DOCTYPE svg PUBLIC "-//W3C//DTD SVG 1.1//EN"
 "http://www.w3.org/Graphics/SVG/1.1/DTD/svg11.dtd">
<!-- Generated by graphviz version 2.38.0 (20140413.2041)
 -->
<!-- Title: Control&#45;flow graph for function &#39;function_42c0a0(*a1, *a2, *a3)&#39;. Pages: 1 -->
<svg width="486pt" height="713pt"
 viewBox="0.00 0.00 486.00 713.00" xmlns="http://www.w3.org/2000/svg" xmlns:xlink="http://www.w3.org/1999/xlink">
<g id="graph0" class="graph" transform="scale(1 1) rotate(0) translate(4 709)">
<title>Control&#45;flow graph for function &#39;function_42c0a0(*a1, *a2, *a3)&#39;.</title>
<polygon fill="white" stroke="none" points="-4,4 -4,-709 482,-709 482,4 -4,4"/>
<text text-anchor="middle" x="239" y="-7.8" font-family="Times,serif" font-size="14.00">Control&#45;flow graph for function &#39;function_42c0a0(*a1, *a2, *a3)&#39;.</text>
<!-- Node0x1001e890 -->
<g id="node1" class="node"><title>Node0x1001e890</title>
<polygon fill="none" stroke="black" points="209.5,-636.5 209.5,-704.5 268.5,-704.5 268.5,-636.5 209.5,-636.5"/>
<text text-anchor="start" x="217.5" y="-689.3" font-family="Times,serif" font-size="14.00">entry:</text>
<text text-anchor="start" x="217.5" y="-674.3" font-family="Times,serif" font-size="14.00"> a1</text>
<text text-anchor="start" x="217.5" y="-659.3" font-family="Times,serif" font-size="14.00"> a2</text>
<text text-anchor="start" x="217.5" y="-644.3" font-family="Times,serif" font-size="14.00"> a3</text>
</g>
<!-- Node0x1002f2a0 -->
<g id="node2" class="node"><title>Node0x1002f2a0</title>
<polygon fill="none" stroke="black" points="13,-96.5 13,-599.5 465,-599.5 465,-96.5 13,-96.5"/>
<text text-anchor="start" x="21" y="-584.3" font-family="Times,serif" font-size="14.00">result</text>
<text text-anchor="start" x="21" y="-569.3" font-family="Times,serif" font-size="14.00"> v1</text>
<text text-anchor="start" x="21" y="-554.3" font-family="Times,serif" font-size="14.00"> v2</text>
<text text-anchor="start" x="21" y="-539.3" font-family="Times,serif" font-size="14.00"> v3</text>
<text text-anchor="start" x="21" y="-524.3" font-family="Times,serif" font-size="14.00"> v4</text>
<text text-anchor="start" x="21" y="-509.3" font-family="Times,serif" font-size="14.00"> v5</text>
<text text-anchor="start" x="21" y="-494.3" font-family="Times,serif" font-size="14.00"> v6</text>
<text text-anchor="start" x="21" y="-479.3" font-family="Times,serif" font-size="14.00"> v7</text>
<text text-anchor="start" x="21" y="-464.3" font-family="Times,serif" font-size="14.00"> v8</text>
<text text-anchor="start" x="21" y="-449.3" font-family="Times,serif" font-size="14.00"> v9</text>
<text text-anchor="start" x="21" y="-434.3" font-family="Times,serif" font-size="14.00"> v10</text>
<text text-anchor="start" x="21" y="-419.3" font-family="Times,serif" font-size="14.00"> v11</text>
<text text-anchor="start" x="21" y="-404.3" font-family="Times,serif" font-size="14.00"> v12</text>
<text text-anchor="start" x="21" y="-389.3" font-family="Times,serif" font-size="14.00"> v13</text>
<text text-anchor="start" x="21" y="-374.3" font-family="Times,serif" font-size="14.00"> v14</text>
<text text-anchor="start" x="21" y="-359.3" font-family="Times,serif" font-size="14.00"> v15</text>
<text text-anchor="start" x="21" y="-344.3" font-family="Times,serif" font-size="14.00"> v16</text>
<text text-anchor="start" x="21" y="-329.3" font-family="Times,serif" font-size="14.00"> v17</text>
<text text-anchor="start" x="21" y="-314.3" font-family="Times,serif" font-size="14.00"> v18</text>
<text text-anchor="start" x="21" y="-299.3" font-family="Times,serif" font-size="14.00"> v19</text>
<text text-anchor="start" x="21" y="-284.3" font-family="Times,serif" font-size="14.00"> v8 = v9</text>
<text text-anchor="start" x="21" y="-269.3" font-family="Times,serif" font-size="14.00"> v5 = v6</text>
<text text-anchor="start" x="21" y="-254.3" font-family="Times,serif" font-size="14.00"> v11 = v12</text>
<text text-anchor="start" x="21" y="-239.3" font-family="Times,serif" font-size="14.00"> v16 = v17</text>
<text text-anchor="start" x="21" y="-224.3" font-family="Times,serif" font-size="14.00"> v16 = a1</text>
<text text-anchor="start" x="21" y="-209.3" font-family="Times,serif" font-size="14.00"> g3 = PtrToIntCastExpr&lt;int32&gt;(&amp;(v11))</text>
<text text-anchor="start" x="21" y="-194.3" font-family="Times,serif" font-size="14.00"> v3 = 1</text>
<text text-anchor="start" x="21" y="-179.3" font-family="Times,serif" font-size="14.00"> g2 = PtrToIntCastExpr&lt;int32&gt;(a2)</text>
<text text-anchor="start" x="21" y="-164.3" font-family="Times,serif" font-size="14.00"> v8 = a1</text>
<text text-anchor="start" x="21" y="-149.3" font-family="Times,serif" font-size="14.00"> result = function_42bca0(a1, a2, BitCastExpr&lt;ptr&gt;(&amp;(v3)))</text>
<text text-anchor="start" x="21" y="-134.3" font-family="Times,serif" font-size="14.00"> v19 = v11</text>
<text text-anchor="start" x="21" y="-119.3" font-family="Times,serif" font-size="14.00"> g3 = v19</text>
<text text-anchor="start" x="21" y="-104.3" font-family="Times,serif" font-size="14.00"> return result</text>
</g>
<!-- Node0x1001e890&#45;&gt;Node0x1002f2a0 -->
<g id="edge1" class="edge"><title>Node0x1001e890&#45;&gt;Node0x1002f2a0</title>
<path fill="none" stroke="black" d="M239,-636.408C239,-628.551 239,-619.556 239,-609.714"/>
<polygon fill="black" stroke="black" points="242.5,-609.6 239,-599.6 235.5,-609.6 242.5,-609.6"/>
</g>
<!-- Node0x1002f240 -->
<g id="node3" class="node"><title>Node0x1002f240</title>
<polygon fill="none" stroke="black" points="212,-23.5 212,-59.5 266,-59.5 266,-23.5 212,-23.5"/>
<text text-anchor="start" x="220" y="-37.8" font-family="Times,serif" font-size="14.00">exit:</text>
</g>
<!-- Node0x1002f2a0&#45;&gt;Node0x1002f240 -->
<g id="edge2" class="edge"><title>Node0x1002f2a0&#45;&gt;Node0x1002f240</title>
<path fill="none" stroke="black" d="M239,-96.2376C239,-86.3472 239,-77.4289 239,-69.8291"/>
<polygon fill="black" stroke="black" points="242.5,-69.6782 239,-59.6783 235.5,-69.6783 242.5,-69.6782"/>
</g>
</g>
</svg>
