<?xml version="1.0" encoding="UTF-8" standalone="no"?>
<!DOCTYPE svg PUBLIC "-//W3C//DTD SVG 1.1//EN"
 "http://www.w3.org/Graphics/SVG/1.1/DTD/svg11.dtd">
<!-- Generated by graphviz version 2.38.0 (20140413.2041)
 -->
<!-- Title: Control&#45;flow graph for function &#39;function_426f90(a1, a2, *a3)&#39;. Pages: 1 -->
<svg width="538pt" height="488pt"
 viewBox="0.00 0.00 538.00 488.00" xmlns="http://www.w3.org/2000/svg" xmlns:xlink="http://www.w3.org/1999/xlink">
<g id="graph0" class="graph" transform="scale(1 1) rotate(0) translate(4 484)">
<title>Control&#45;flow graph for function &#39;function_426f90(a1, a2, *a3)&#39;.</title>
<polygon fill="white" stroke="none" points="-4,4 -4,-484 534,-484 534,4 -4,4"/>
<text text-anchor="middle" x="265" y="-7.8" font-family="Times,serif" font-size="14.00">Control&#45;flow graph for function &#39;function_426f90(a1, a2, *a3)&#39;.</text>
<!-- Node0xfdce7d0 -->
<g id="node1" class="node"><title>Node0xfdce7d0</title>
<polygon fill="none" stroke="black" points="235.5,-411.5 235.5,-479.5 294.5,-479.5 294.5,-411.5 235.5,-411.5"/>
<text text-anchor="start" x="243.5" y="-464.3" font-family="Times,serif" font-size="14.00">entry:</text>
<text text-anchor="start" x="243.5" y="-449.3" font-family="Times,serif" font-size="14.00"> a1</text>
<text text-anchor="start" x="243.5" y="-434.3" font-family="Times,serif" font-size="14.00"> a2</text>
<text text-anchor="start" x="243.5" y="-419.3" font-family="Times,serif" font-size="14.00"> a3</text>
</g>
<!-- Node0xfdcede0 -->
<g id="node2" class="node"><title>Node0xfdcede0</title>
<polygon fill="none" stroke="black" points="0,-96.5 0,-374.5 530,-374.5 530,-96.5 0,-96.5"/>
<text text-anchor="start" x="8" y="-359.3" font-family="Times,serif" font-size="14.00">result</text>
<text text-anchor="start" x="8" y="-344.3" font-family="Times,serif" font-size="14.00"> v1</text>
<text text-anchor="start" x="8" y="-329.3" font-family="Times,serif" font-size="14.00"> v2</text>
<text text-anchor="start" x="8" y="-314.3" font-family="Times,serif" font-size="14.00"> v3</text>
<text text-anchor="start" x="8" y="-299.3" font-family="Times,serif" font-size="14.00"> v4</text>
<text text-anchor="start" x="8" y="-284.3" font-family="Times,serif" font-size="14.00"> v5</text>
<text text-anchor="start" x="8" y="-269.3" font-family="Times,serif" font-size="14.00"> v6</text>
<text text-anchor="start" x="8" y="-254.3" font-family="Times,serif" font-size="14.00"> v7</text>
<text text-anchor="start" x="8" y="-239.3" font-family="Times,serif" font-size="14.00"> v8</text>
<text text-anchor="start" x="8" y="-224.3" font-family="Times,serif" font-size="14.00"> v9</text>
<text text-anchor="start" x="8" y="-209.3" font-family="Times,serif" font-size="14.00"> v2 = v3</text>
<text text-anchor="start" x="8" y="-194.3" font-family="Times,serif" font-size="14.00"> v6 = v7</text>
<text text-anchor="start" x="8" y="-179.3" font-family="Times,serif" font-size="14.00"> v6 = a3</text>
<text text-anchor="start" x="8" y="-164.3" font-family="Times,serif" font-size="14.00"> v2 = a3</text>
<text text-anchor="start" x="8" y="-149.3" font-family="Times,serif" font-size="14.00"> v4 = a2</text>
<text text-anchor="start" x="8" y="-134.3" font-family="Times,serif" font-size="14.00"> g5 = (a1 + &#45;64)</text>
<text text-anchor="start" x="8" y="-119.3" font-family="Times,serif" font-size="14.00"> result = function_41b834(BitCastExpr&lt;ptr&gt;(&amp;(v4)), &amp;(a3[&#39;0&#39;]), NULL)</text>
<text text-anchor="start" x="8" y="-104.3" font-family="Times,serif" font-size="14.00"> return result</text>
</g>
<!-- Node0xfdce7d0&#45;&gt;Node0xfdcede0 -->
<g id="edge1" class="edge"><title>Node0xfdce7d0&#45;&gt;Node0xfdcede0</title>
<path fill="none" stroke="black" d="M265,-411.081C265,-403.24 265,-394.385 265,-384.927"/>
<polygon fill="black" stroke="black" points="268.5,-384.868 265,-374.868 261.5,-384.868 268.5,-384.868"/>
</g>
<!-- Node0xfdced60 -->
<g id="node3" class="node"><title>Node0xfdced60</title>
<polygon fill="none" stroke="black" points="238,-23.5 238,-59.5 292,-59.5 292,-23.5 238,-23.5"/>
<text text-anchor="start" x="246" y="-37.8" font-family="Times,serif" font-size="14.00">exit:</text>
</g>
<!-- Node0xfdcede0&#45;&gt;Node0xfdced60 -->
<g id="edge2" class="edge"><title>Node0xfdcede0&#45;&gt;Node0xfdced60</title>
<path fill="none" stroke="black" d="M265,-96.4937C265,-86.7679 265,-77.7587 265,-69.9967"/>
<polygon fill="black" stroke="black" points="268.5,-69.9092 265,-59.9092 261.5,-69.9093 268.5,-69.9092"/>
</g>
</g>
</svg>
