<?xml version="1.0" encoding="UTF-8" standalone="no"?>
<!DOCTYPE svg PUBLIC "-//W3C//DTD SVG 1.1//EN"
 "http://www.w3.org/Graphics/SVG/1.1/DTD/svg11.dtd">
<!-- Generated by graphviz version 2.38.0 (20140413.2041)
 -->
<!-- Title: Control&#45;flow graph for function &#39;function_411b61(*nIDDlgItem, *a2)&#39;. Pages: 1 -->
<svg width="1046pt" height="819pt"
 viewBox="0.00 0.00 1046.00 819.00" xmlns="http://www.w3.org/2000/svg" xmlns:xlink="http://www.w3.org/1999/xlink">
<g id="graph0" class="graph" transform="scale(1 1) rotate(0) translate(4 815)">
<title>Control&#45;flow graph for function &#39;function_411b61(*nIDDlgItem, *a2)&#39;.</title>
<polygon fill="white" stroke="none" points="-4,4 -4,-815 1042,-815 1042,4 -4,4"/>
<text text-anchor="middle" x="519" y="-7.8" font-family="Times,serif" font-size="14.00">Control&#45;flow graph for function &#39;function_411b61(*nIDDlgItem, *a2)&#39;.</text>
<!-- Node0xf2909c0 -->
<g id="node1" class="node"><title>Node0xf2909c0</title>
<polygon fill="none" stroke="black" points="543.5,-757.5 543.5,-810.5 649.5,-810.5 649.5,-757.5 543.5,-757.5"/>
<text text-anchor="start" x="551.5" y="-795.3" font-family="Times,serif" font-size="14.00">entry:</text>
<text text-anchor="start" x="551.5" y="-780.3" font-family="Times,serif" font-size="14.00"> nIDDlgItem</text>
<text text-anchor="start" x="551.5" y="-765.3" font-family="Times,serif" font-size="14.00"> a2</text>
</g>
<!-- Node0xf1eee10 -->
<g id="node2" class="node"><title>Node0xf1eee10</title>
<polygon fill="none" stroke="black" points="423.5,-351.5 423.5,-719.5 769.5,-719.5 769.5,-351.5 423.5,-351.5"/>
<text text-anchor="start" x="431.5" y="-704.3" font-family="Times,serif" font-size="14.00">v1</text>
<text text-anchor="start" x="431.5" y="-689.3" font-family="Times,serif" font-size="14.00"> result</text>
<text text-anchor="start" x="431.5" y="-674.3" font-family="Times,serif" font-size="14.00"> result2</text>
<text text-anchor="start" x="431.5" y="-659.3" font-family="Times,serif" font-size="14.00"> v2</text>
<text text-anchor="start" x="431.5" y="-644.3" font-family="Times,serif" font-size="14.00"> v3</text>
<text text-anchor="start" x="431.5" y="-629.3" font-family="Times,serif" font-size="14.00"> v4</text>
<text text-anchor="start" x="431.5" y="-614.3" font-family="Times,serif" font-size="14.00"> v5</text>
<text text-anchor="start" x="431.5" y="-599.3" font-family="Times,serif" font-size="14.00"> v6</text>
<text text-anchor="start" x="431.5" y="-584.3" font-family="Times,serif" font-size="14.00"> v7</text>
<text text-anchor="start" x="431.5" y="-569.3" font-family="Times,serif" font-size="14.00"> v8</text>
<text text-anchor="start" x="431.5" y="-554.3" font-family="Times,serif" font-size="14.00"> v9</text>
<text text-anchor="start" x="431.5" y="-539.3" font-family="Times,serif" font-size="14.00"> v10</text>
<text text-anchor="start" x="431.5" y="-524.3" font-family="Times,serif" font-size="14.00"> v11</text>
<text text-anchor="start" x="431.5" y="-509.3" font-family="Times,serif" font-size="14.00"> v12</text>
<text text-anchor="start" x="431.5" y="-494.3" font-family="Times,serif" font-size="14.00"> hDlg</text>
<text text-anchor="start" x="431.5" y="-479.3" font-family="Times,serif" font-size="14.00"> v13</text>
<text text-anchor="start" x="431.5" y="-464.3" font-family="Times,serif" font-size="14.00"> v14</text>
<text text-anchor="start" x="431.5" y="-449.3" font-family="Times,serif" font-size="14.00"> v3 = v4</text>
<text text-anchor="start" x="431.5" y="-434.3" font-family="Times,serif" font-size="14.00"> v7 = v8</text>
<text text-anchor="start" x="431.5" y="-419.3" font-family="Times,serif" font-size="14.00"> v7 = nIDDlgItem</text>
<text text-anchor="start" x="431.5" y="-404.3" font-family="Times,serif" font-size="14.00"> v12 = g5</text>
<text text-anchor="start" x="431.5" y="-389.3" font-family="Times,serif" font-size="14.00"> v14 = *(IntToPtrCastExpr&lt;ptr&gt;((v12 + 76)))</text>
<text text-anchor="start" x="431.5" y="-374.3" font-family="Times,serif" font-size="14.00"> g1 = False</text>
<text text-anchor="start" x="431.5" y="-359.3" font-family="Times,serif" font-size="14.00"> g207 = (v14 == 0)</text>
</g>
<!-- Node0xf2909c0&#45;&gt;Node0xf1eee10 -->
<g id="edge1" class="edge"><title>Node0xf2909c0&#45;&gt;Node0xf1eee10</title>
<path fill="none" stroke="black" d="M596.5,-757.086C596.5,-749.264 596.5,-740.007 596.5,-729.788"/>
<polygon fill="black" stroke="black" points="600,-729.711 596.5,-719.711 593,-729.711 600,-729.711"/>
</g>
<!-- Node0xf1fc430 -->
<g id="node3" class="node"><title>Node0xf1fc430</title>
<polygon fill="none" stroke="black" points="539.5,-277.5 539.5,-313.5 653.5,-313.5 653.5,-277.5 539.5,-277.5"/>
<text text-anchor="start" x="547.5" y="-291.8" font-family="Times,serif" font-size="14.00">if (v14 == 0):</text>
</g>
<!-- Node0xf1eee10&#45;&gt;Node0xf1fc430 -->
<g id="edge2" class="edge"><title>Node0xf1eee10&#45;&gt;Node0xf1fc430</title>
<path fill="none" stroke="black" d="M596.5,-351.401C596.5,-341.268 596.5,-332.019 596.5,-324.119"/>
<polygon fill="black" stroke="black" points="600,-323.898 596.5,-313.898 593,-323.898 600,-323.898"/>
</g>
<!-- Node0xf2111b0 -->
<g id="node4" class="node"><title>Node0xf2111b0</title>
<polygon fill="none" stroke="black" points="0,-105 0,-218 665,-218 665,-105 0,-105"/>
<text text-anchor="start" x="8" y="-202.8" font-family="Times,serif" font-size="14.00">0x411b67:</text>
<text text-anchor="start" x="8" y="-187.8" font-family="Times,serif" font-size="14.00"> v3 = nIDDlgItem</text>
<text text-anchor="start" x="8" y="-172.8" font-family="Times,serif" font-size="14.00"> hDlg = *(IntToPtrCastExpr&lt;ptr&gt;((v12 + 32)))</text>
<text text-anchor="start" x="8" y="-157.8" font-family="Times,serif" font-size="14.00"> v1 = GetDlgItem(IntToPtrCastExpr&lt;ptr&gt;(hDlg), PtrToIntCastExpr&lt;int32&gt;(nIDDlgItem))</text>
<text text-anchor="start" x="8" y="-142.8" font-family="Times,serif" font-size="14.00"> v3 = BitCastExpr&lt;ptr&gt;(v1)</text>
<text text-anchor="start" x="8" y="-127.8" font-family="Times,serif" font-size="14.00"> result = function_40ee6b()</text>
<text text-anchor="start" x="8" y="-112.8" font-family="Times,serif" font-size="14.00"> return result</text>
</g>
<!-- Node0xf1fc430&#45;&gt;Node0xf2111b0 -->
<g id="edge3" class="edge"><title>Node0xf1fc430&#45;&gt;Node0xf2111b0</title>
<path fill="none" stroke="black" d="M562.257,-277.379C534.176,-263.338 492.666,-242.583 452.625,-222.563"/>
<polygon fill="black" stroke="black" points="454.081,-219.378 443.572,-218.036 450.951,-225.639 454.081,-219.378"/>
<text text-anchor="middle" x="553" y="-247.8" font-family="Times,serif" font-size="14.00">v14 == 0</text>
</g>
<!-- Node0x7aa3900 -->
<g id="node5" class="node"><title>Node0x7aa3900</title>
<polygon fill="none" stroke="black" points="683,-97.5 683,-225.5 1038,-225.5 1038,-97.5 683,-97.5"/>
<text text-anchor="start" x="691" y="-210.3" font-family="Times,serif" font-size="14.00">0x411b7d:</text>
<text text-anchor="start" x="691" y="-195.3" font-family="Times,serif" font-size="14.00"> g5 = v14</text>
<text text-anchor="start" x="691" y="-180.3" font-family="Times,serif" font-size="14.00"> v11 = *(IntToPtrCastExpr&lt;ptr&gt;(v14))</text>
<text text-anchor="start" x="691" y="-165.3" font-family="Times,serif" font-size="14.00"> g2 = v11</text>
<text text-anchor="start" x="691" y="-150.3" font-family="Times,serif" font-size="14.00"> v13 = *(IntToPtrCastExpr&lt;ptr&gt;((v11 + 116)))</text>
<text text-anchor="start" x="691" y="-135.3" font-family="Times,serif" font-size="14.00"> IntToPtrCastExpr&lt;ptr&gt;(v13)()</text>
<text text-anchor="start" x="691" y="-120.3" font-family="Times,serif" font-size="14.00"> result2 = g2</text>
<text text-anchor="start" x="691" y="-105.3" font-family="Times,serif" font-size="14.00"> return result2</text>
</g>
<!-- Node0xf1fc430&#45;&gt;Node0x7aa3900 -->
<g id="edge4" class="edge"><title>Node0xf1fc430&#45;&gt;Node0x7aa3900</title>
<path fill="none" stroke="black" d="M630.743,-277.379C655.204,-265.148 689.856,-247.822 724.849,-230.325"/>
<polygon fill="black" stroke="black" points="726.853,-233.237 734.232,-225.634 723.722,-226.976 726.853,-233.237"/>
<text text-anchor="middle" x="728" y="-247.8" font-family="Times,serif" font-size="14.00">v14 != 0</text>
</g>
<!-- Node0xf2487c0 -->
<g id="node6" class="node"><title>Node0xf2487c0</title>
<polygon fill="none" stroke="black" points="631.5,-23.5 631.5,-59.5 685.5,-59.5 685.5,-23.5 631.5,-23.5"/>
<text text-anchor="start" x="639.5" y="-37.8" font-family="Times,serif" font-size="14.00">exit:</text>
</g>
<!-- Node0xf2111b0&#45;&gt;Node0xf2487c0 -->
<g id="edge5" class="edge"><title>Node0xf2111b0&#45;&gt;Node0xf2487c0</title>
<path fill="none" stroke="black" d="M485.954,-104.955C536.39,-86.6992 588.05,-68.0004 621.528,-55.8827"/>
<polygon fill="black" stroke="black" points="623.1,-59.0357 631.312,-52.3411 620.718,-52.4536 623.1,-59.0357"/>
</g>
<!-- Node0x7aa3900&#45;&gt;Node0xf2487c0 -->
<g id="edge6" class="edge"><title>Node0x7aa3900&#45;&gt;Node0xf2487c0</title>
<path fill="none" stroke="black" d="M752.404,-97.3546C731.509,-85.1489 711.022,-73.1809 694.542,-63.554"/>
<polygon fill="black" stroke="black" points="696.222,-60.4819 685.821,-58.46 692.691,-66.5262 696.222,-60.4819"/>
</g>
</g>
</svg>
