<?xml version="1.0" encoding="UTF-8" standalone="no"?>
<!DOCTYPE svg PUBLIC "-//W3C//DTD SVG 1.1//EN"
 "http://www.w3.org/Graphics/SVG/1.1/DTD/svg11.dtd">
<!-- Generated by graphviz version 2.38.0 (20140413.2041)
 -->
<!-- Title: Control&#45;flow graph for function &#39;function_409dc0(*a1, a2)&#39;. Pages: 1 -->
<svg width="1467pt" height="2610pt"
 viewBox="0.00 0.00 1466.50 2610.00" xmlns="http://www.w3.org/2000/svg" xmlns:xlink="http://www.w3.org/1999/xlink">
<g id="graph0" class="graph" transform="scale(1 1) rotate(0) translate(4 2606)">
<title>Control&#45;flow graph for function &#39;function_409dc0(*a1, a2)&#39;.</title>
<polygon fill="white" stroke="none" points="-4,4 -4,-2606 1462.5,-2606 1462.5,4 -4,4"/>
<text text-anchor="middle" x="729.25" y="-7.8" font-family="Times,serif" font-size="14.00">Control&#45;flow graph for function &#39;function_409dc0(*a1, a2)&#39;.</text>
<!-- Node0xef61b70 -->
<g id="node1" class="node"><title>Node0xef61b70</title>
<polygon fill="none" stroke="black" points="655,-2548.5 655,-2601.5 714,-2601.5 714,-2548.5 655,-2548.5"/>
<text text-anchor="start" x="663" y="-2586.3" font-family="Times,serif" font-size="14.00">entry:</text>
<text text-anchor="start" x="663" y="-2571.3" font-family="Times,serif" font-size="14.00"> a1</text>
<text text-anchor="start" x="663" y="-2556.3" font-family="Times,serif" font-size="14.00"> a2</text>
</g>
<!-- Node0xef63360 -->
<g id="node2" class="node"><title>Node0xef63360</title>
<polygon fill="none" stroke="black" points="509.5,-1332.5 509.5,-2510.5 859.5,-2510.5 859.5,-1332.5 509.5,-1332.5"/>
<text text-anchor="start" x="517.5" y="-2495.3" font-family="Times,serif" font-size="14.00">v1</text>
<text text-anchor="start" x="517.5" y="-2480.3" font-family="Times,serif" font-size="14.00"> v2</text>
<text text-anchor="start" x="517.5" y="-2465.3" font-family="Times,serif" font-size="14.00"> v3</text>
<text text-anchor="start" x="517.5" y="-2450.3" font-family="Times,serif" font-size="14.00"> v4</text>
<text text-anchor="start" x="517.5" y="-2435.3" font-family="Times,serif" font-size="14.00"> result</text>
<text text-anchor="start" x="517.5" y="-2420.3" font-family="Times,serif" font-size="14.00"> v5</text>
<text text-anchor="start" x="517.5" y="-2405.3" font-family="Times,serif" font-size="14.00"> v6</text>
<text text-anchor="start" x="517.5" y="-2390.3" font-family="Times,serif" font-size="14.00"> v7</text>
<text text-anchor="start" x="517.5" y="-2375.3" font-family="Times,serif" font-size="14.00"> v8</text>
<text text-anchor="start" x="517.5" y="-2360.3" font-family="Times,serif" font-size="14.00"> v9</text>
<text text-anchor="start" x="517.5" y="-2345.3" font-family="Times,serif" font-size="14.00"> v10</text>
<text text-anchor="start" x="517.5" y="-2330.3" font-family="Times,serif" font-size="14.00"> v11</text>
<text text-anchor="start" x="517.5" y="-2315.3" font-family="Times,serif" font-size="14.00"> v12</text>
<text text-anchor="start" x="517.5" y="-2300.3" font-family="Times,serif" font-size="14.00"> v13</text>
<text text-anchor="start" x="517.5" y="-2285.3" font-family="Times,serif" font-size="14.00"> v14</text>
<text text-anchor="start" x="517.5" y="-2270.3" font-family="Times,serif" font-size="14.00"> v15</text>
<text text-anchor="start" x="517.5" y="-2255.3" font-family="Times,serif" font-size="14.00"> v16</text>
<text text-anchor="start" x="517.5" y="-2240.3" font-family="Times,serif" font-size="14.00"> v17</text>
<text text-anchor="start" x="517.5" y="-2225.3" font-family="Times,serif" font-size="14.00"> v18</text>
<text text-anchor="start" x="517.5" y="-2210.3" font-family="Times,serif" font-size="14.00"> v19</text>
<text text-anchor="start" x="517.5" y="-2195.3" font-family="Times,serif" font-size="14.00"> v20</text>
<text text-anchor="start" x="517.5" y="-2180.3" font-family="Times,serif" font-size="14.00"> v21</text>
<text text-anchor="start" x="517.5" y="-2165.3" font-family="Times,serif" font-size="14.00"> v22</text>
<text text-anchor="start" x="517.5" y="-2150.3" font-family="Times,serif" font-size="14.00"> v23</text>
<text text-anchor="start" x="517.5" y="-2135.3" font-family="Times,serif" font-size="14.00"> v24</text>
<text text-anchor="start" x="517.5" y="-2120.3" font-family="Times,serif" font-size="14.00"> v25</text>
<text text-anchor="start" x="517.5" y="-2105.3" font-family="Times,serif" font-size="14.00"> v26</text>
<text text-anchor="start" x="517.5" y="-2090.3" font-family="Times,serif" font-size="14.00"> v27</text>
<text text-anchor="start" x="517.5" y="-2075.3" font-family="Times,serif" font-size="14.00"> v28</text>
<text text-anchor="start" x="517.5" y="-2060.3" font-family="Times,serif" font-size="14.00"> v29</text>
<text text-anchor="start" x="517.5" y="-2045.3" font-family="Times,serif" font-size="14.00"> v30</text>
<text text-anchor="start" x="517.5" y="-2030.3" font-family="Times,serif" font-size="14.00"> v31</text>
<text text-anchor="start" x="517.5" y="-2015.3" font-family="Times,serif" font-size="14.00"> v32</text>
<text text-anchor="start" x="517.5" y="-2000.3" font-family="Times,serif" font-size="14.00"> v33</text>
<text text-anchor="start" x="517.5" y="-1985.3" font-family="Times,serif" font-size="14.00"> v34</text>
<text text-anchor="start" x="517.5" y="-1970.3" font-family="Times,serif" font-size="14.00"> v35</text>
<text text-anchor="start" x="517.5" y="-1955.3" font-family="Times,serif" font-size="14.00"> v36</text>
<text text-anchor="start" x="517.5" y="-1940.3" font-family="Times,serif" font-size="14.00"> v37</text>
<text text-anchor="start" x="517.5" y="-1925.3" font-family="Times,serif" font-size="14.00"> v38</text>
<text text-anchor="start" x="517.5" y="-1910.3" font-family="Times,serif" font-size="14.00"> v39</text>
<text text-anchor="start" x="517.5" y="-1895.3" font-family="Times,serif" font-size="14.00"> result2</text>
<text text-anchor="start" x="517.5" y="-1880.3" font-family="Times,serif" font-size="14.00"> v40</text>
<text text-anchor="start" x="517.5" y="-1865.3" font-family="Times,serif" font-size="14.00"> v41</text>
<text text-anchor="start" x="517.5" y="-1850.3" font-family="Times,serif" font-size="14.00"> v42</text>
<text text-anchor="start" x="517.5" y="-1835.3" font-family="Times,serif" font-size="14.00"> v43</text>
<text text-anchor="start" x="517.5" y="-1820.3" font-family="Times,serif" font-size="14.00"> v44</text>
<text text-anchor="start" x="517.5" y="-1805.3" font-family="Times,serif" font-size="14.00"> v45</text>
<text text-anchor="start" x="517.5" y="-1790.3" font-family="Times,serif" font-size="14.00"> v46</text>
<text text-anchor="start" x="517.5" y="-1775.3" font-family="Times,serif" font-size="14.00"> v47</text>
<text text-anchor="start" x="517.5" y="-1760.3" font-family="Times,serif" font-size="14.00"> v48</text>
<text text-anchor="start" x="517.5" y="-1745.3" font-family="Times,serif" font-size="14.00"> v49</text>
<text text-anchor="start" x="517.5" y="-1730.3" font-family="Times,serif" font-size="14.00"> v9 = v10</text>
<text text-anchor="start" x="517.5" y="-1715.3" font-family="Times,serif" font-size="14.00"> v7 = v8</text>
<text text-anchor="start" x="517.5" y="-1700.3" font-family="Times,serif" font-size="14.00"> v24 = g3</text>
<text text-anchor="start" x="517.5" y="-1685.3" font-family="Times,serif" font-size="14.00"> v25 = g9</text>
<text text-anchor="start" x="517.5" y="-1670.3" font-family="Times,serif" font-size="14.00"> v5 = v25</text>
<text text-anchor="start" x="517.5" y="-1655.3" font-family="Times,serif" font-size="14.00"> v26 = g5</text>
<text text-anchor="start" x="517.5" y="-1640.3" font-family="Times,serif" font-size="14.00"> g4 = v26</text>
<text text-anchor="start" x="517.5" y="-1625.3" font-family="Times,serif" font-size="14.00"> v35 = *(IntToPtrCastExpr&lt;ptr&gt;(v26))</text>
<text text-anchor="start" x="517.5" y="-1610.3" font-family="Times,serif" font-size="14.00"> g2 = v35</text>
<text text-anchor="start" x="517.5" y="-1595.3" font-family="Times,serif" font-size="14.00"> v45 = *(IntToPtrCastExpr&lt;ptr&gt;((v35 + &#45;12)))</text>
<text text-anchor="start" x="517.5" y="-1580.3" font-family="Times,serif" font-size="14.00"> g3 = v45</text>
<text text-anchor="start" x="517.5" y="-1565.3" font-family="Times,serif" font-size="14.00"> v27 = g7</text>
<text text-anchor="start" x="517.5" y="-1550.3" font-family="Times,serif" font-size="14.00"> v7 = v27</text>
<text text-anchor="start" x="517.5" y="-1535.3" font-family="Times,serif" font-size="14.00"> g10 = PtrToIntCastExpr&lt;int32&gt;(&amp;(v7))</text>
<text text-anchor="start" x="517.5" y="-1520.3" font-family="Times,serif" font-size="14.00"> v46 = PtrToIntCastExpr&lt;int32&gt;(a1)</text>
<text text-anchor="start" x="517.5" y="-1505.3" font-family="Times,serif" font-size="14.00"> v22 = (v46 &#45; v35)</text>
<text text-anchor="start" x="517.5" y="-1490.3" font-family="Times,serif" font-size="14.00"> g7 = v22</text>
<text text-anchor="start" x="517.5" y="-1475.3" font-family="Times,serif" font-size="14.00"> v48 = *(IntToPtrCastExpr&lt;ptr&gt;((v35 + &#45;4)))</text>
<text text-anchor="start" x="517.5" y="-1460.3" font-family="Times,serif" font-size="14.00"> v47 = *(IntToPtrCastExpr&lt;ptr&gt;((v35 + &#45;8)))</text>
<text text-anchor="start" x="517.5" y="-1445.3" font-family="Times,serif" font-size="14.00"> v43 = (v45 + a2)</text>
<text text-anchor="start" x="517.5" y="-1430.3" font-family="Times,serif" font-size="14.00"> g9 = v43</text>
<text text-anchor="start" x="517.5" y="-1415.3" font-family="Times,serif" font-size="14.00"> v23 = (v47 &#45; v43)</text>
<text text-anchor="start" x="517.5" y="-1400.3" font-family="Times,serif" font-size="14.00"> g2 = v23</text>
<text text-anchor="start" x="517.5" y="-1385.3" font-family="Times,serif" font-size="14.00"> v31 = a2</text>
<text text-anchor="start" x="517.5" y="-1370.3" font-family="Times,serif" font-size="14.00"> v29 = v26</text>
<text text-anchor="start" x="517.5" y="-1355.3" font-family="Times,serif" font-size="14.00"> v38 = v45</text>
<text text-anchor="start" x="517.5" y="-1340.3" font-family="Times,serif" font-size="14.00"> v44 = v22</text>
</g>
<!-- Node0xef61b70&#45;&gt;Node0xef63360 -->
<g id="edge1" class="edge"><title>Node0xef61b70&#45;&gt;Node0xef63360</title>
<path fill="none" stroke="black" d="M684.5,-2548.46C684.5,-2540.76 684.5,-2531.49 684.5,-2520.87"/>
<polygon fill="black" stroke="black" points="688,-2520.75 684.5,-2510.75 681,-2520.75 688,-2520.75"/>
</g>
<!-- Node0xef62e60 -->
<g id="node3" class="node"><title>Node0xef62e60</title>
<polygon fill="none" stroke="black" points="608.5,-1258.5 608.5,-1294.5 760.5,-1294.5 760.5,-1258.5 608.5,-1258.5"/>
<text text-anchor="start" x="616.5" y="-1272.8" font-family="Times,serif" font-size="14.00">if (v23 &lt; (1 &#45; v48)):</text>
</g>
<!-- Node0xef63360&#45;&gt;Node0xef62e60 -->
<g id="edge2" class="edge"><title>Node0xef63360&#45;&gt;Node0xef62e60</title>
<path fill="none" stroke="black" d="M684.5,-1332.32C684.5,-1321.95 684.5,-1312.82 684.5,-1305.12"/>
<polygon fill="black" stroke="black" points="688,-1304.91 684.5,-1294.91 681,-1304.91 688,-1304.91"/>
</g>
<!-- Node0xef64b40 -->
<g id="node4" class="node"><title>Node0xef64b40</title>
<polygon fill="none" stroke="black" points="0,-1018.5 0,-1206.5 751,-1206.5 751,-1018.5 0,-1018.5"/>
<text text-anchor="start" x="8" y="-1191.3" font-family="Times,serif" font-size="14.00">0x409de9:</text>
<text text-anchor="start" x="8" y="-1176.3" font-family="Times,serif" font-size="14.00"> v9 = IntToPtrCastExpr&lt;ptr&gt;(v43)</text>
<text text-anchor="start" x="8" y="-1161.3" font-family="Times,serif" font-size="14.00"> g10 = PtrToIntCastExpr&lt;int32&gt;(&amp;(v9))</text>
<text text-anchor="start" x="8" y="-1146.3" font-family="Times,serif" font-size="14.00"> g5 = v26</text>
<text text-anchor="start" x="8" y="-1131.3" font-family="Times,serif" font-size="14.00"> function_402570(IntToPtrCastExpr&lt;ptr&gt;(v43), BitCastExpr&lt;ptr&gt;(&amp;(v7)), BitCastExpr&lt;ptr&gt;(&amp;(v5)))</text>
<text text-anchor="start" x="8" y="-1116.3" font-family="Times,serif" font-size="14.00"> v28 = g7</text>
<text text-anchor="start" x="8" y="-1101.3" font-family="Times,serif" font-size="14.00"> v36 = g3</text>
<text text-anchor="start" x="8" y="-1086.3" font-family="Times,serif" font-size="14.00"> v30 = g4</text>
<text text-anchor="start" x="8" y="-1071.3" font-family="Times,serif" font-size="14.00"> v31 = v46</text>
<text text-anchor="start" x="8" y="-1056.3" font-family="Times,serif" font-size="14.00"> v29 = v30</text>
<text text-anchor="start" x="8" y="-1041.3" font-family="Times,serif" font-size="14.00"> v38 = v36</text>
<text text-anchor="start" x="8" y="-1026.3" font-family="Times,serif" font-size="14.00"> v44 = v28</text>
</g>
<!-- Node0xef62e60&#45;&gt;Node0xef64b40 -->
<g id="edge3" class="edge"><title>Node0xef62e60&#45;&gt;Node0xef64b40</title>
<path fill="none" stroke="black" d="M652.016,-1258.47C629.232,-1246.52 596.729,-1229.48 561.968,-1211.26"/>
<polygon fill="black" stroke="black" points="563.568,-1208.15 553.086,-1206.6 560.317,-1214.35 563.568,-1208.15"/>
<text text-anchor="middle" x="664" y="-1228.8" font-family="Times,serif" font-size="14.00">v23 &lt; (1 &#45; v48)</text>
</g>
<!-- Node0xef63990 -->
<g id="node5" class="node"><title>Node0xef63990</title>
<polygon fill="none" stroke="black" points="530.5,-927.5 530.5,-980.5 826.5,-980.5 826.5,-927.5 530.5,-927.5"/>
<text text-anchor="start" x="538.5" y="-965.3" font-family="Times,serif" font-size="14.00">0x409df5:</text>
<text text-anchor="start" x="538.5" y="-950.3" font-family="Times,serif" font-size="14.00"> v37 = *(IntToPtrCastExpr&lt;ptr&gt;(v29))</text>
<text text-anchor="start" x="538.5" y="-935.3" font-family="Times,serif" font-size="14.00"> g2 = v37</text>
</g>
<!-- Node0xef62e60&#45;&gt;Node0xef63990 -->
<g id="edge4" class="edge"><title>Node0xef62e60&#45;&gt;Node0xef63990</title>
<path fill="none" stroke="black" d="M712.869,-1258.39C729.863,-1246.38 749.965,-1228.62 759.5,-1207 793.393,-1130.14 796.406,-1093.46 759.5,-1018 753.637,-1006.01 744.27,-995.646 733.952,-986.979"/>
<polygon fill="black" stroke="black" points="735.948,-984.096 725.918,-980.683 731.63,-989.606 735.948,-984.096"/>
<text text-anchor="middle" x="846" y="-1108.8" font-family="Times,serif" font-size="14.00">v23 &gt;= (1 &#45; v48)</text>
</g>
<!-- Node0xef64b40&#45;&gt;Node0xef63990 -->
<g id="edge5" class="edge"><title>Node0xef64b40&#45;&gt;Node0xef63990</title>
<path fill="none" stroke="black" d="M555.695,-1018.43C578.739,-1006.53 600.864,-995.099 619.83,-985.303"/>
<polygon fill="black" stroke="black" points="621.598,-988.329 628.877,-980.63 618.386,-982.11 621.598,-988.329"/>
</g>
<!-- Node0xef63a80 -->
<g id="node6" class="node"><title>Node0xef63a80</title>
<polygon fill="none" stroke="black" points="613,-853.5 613,-889.5 744,-889.5 744,-853.5 613,-853.5"/>
<text text-anchor="start" x="621" y="-867.8" font-family="Times,serif" font-size="14.00">if (v44 &lt;= v38):</text>
</g>
<!-- Node0xef63990&#45;&gt;Node0xef63a80 -->
<g id="edge6" class="edge"><title>Node0xef63990&#45;&gt;Node0xef63a80</title>
<path fill="none" stroke="black" d="M678.5,-927.086C678.5,-918.46 678.5,-908.822 678.5,-900.075"/>
<polygon fill="black" stroke="black" points="682,-899.973 678.5,-889.974 675,-899.974 682,-899.973"/>
</g>
<!-- Node0x5b027c0 -->
<g id="node7" class="node"><title>Node0x5b027c0</title>
<polygon fill="none" stroke="black" points="544,-718.5 544,-801.5 813,-801.5 813,-718.5 544,-718.5"/>
<text text-anchor="start" x="552" y="-786.3" font-family="Times,serif" font-size="14.00">0x409e02:</text>
<text text-anchor="start" x="552" y="-771.3" font-family="Times,serif" font-size="14.00"> v9 = IntToPtrCastExpr&lt;ptr&gt;(v31)</text>
<text text-anchor="start" x="552" y="-756.3" font-family="Times,serif" font-size="14.00"> g2 = (v37 + v38)</text>
<text text-anchor="start" x="552" y="-741.3" font-family="Times,serif" font-size="14.00"> _memcpy_s()</text>
<text text-anchor="start" x="552" y="-726.3" font-family="Times,serif" font-size="14.00"> v32 = g9</text>
</g>
<!-- Node0xef63a80&#45;&gt;Node0x5b027c0 -->
<g id="edge7" class="edge"><title>Node0xef63a80&#45;&gt;Node0x5b027c0</title>
<path fill="none" stroke="black" d="M647.087,-853.234C640.807,-848.225 635.055,-842.14 631.5,-835 628.529,-829.032 629.3,-826.293 631.5,-820 632.602,-816.848 633.951,-813.738 635.487,-810.694"/>
<polygon fill="black" stroke="black" points="638.659,-812.196 640.593,-801.78 632.585,-808.717 638.659,-812.196"/>
<text text-anchor="middle" x="668.5" y="-823.8" font-family="Times,serif" font-size="14.00">v44 &gt; v38</text>
</g>
<!-- Node0xef63a80&#45;&gt;Node0x5b027c0 -->
<g id="edge8" class="edge"><title>Node0xef63a80&#45;&gt;Node0x5b027c0</title>
<path fill="none" stroke="black" d="M695.027,-853.408C699.276,-847.952 703.274,-841.604 705.5,-835 708.08,-827.346 708.032,-819.285 706.432,-811.412"/>
<polygon fill="black" stroke="black" points="709.743,-810.256 703.656,-801.585 703.007,-812.16 709.743,-810.256"/>
<text text-anchor="middle" x="751.5" y="-823.8" font-family="Times,serif" font-size="14.00">v44 &lt;= v38</text>
</g>
<!-- Node0xef63ea0 -->
<g id="node8" class="node"><title>Node0xef63ea0</title>
<polygon fill="none" stroke="black" points="627.5,-644.5 627.5,-680.5 729.5,-680.5 729.5,-644.5 627.5,-644.5"/>
<text text-anchor="start" x="635.5" y="-658.8" font-family="Times,serif" font-size="14.00">if (v32 &lt; 0):</text>
</g>
<!-- Node0x5b027c0&#45;&gt;Node0xef63ea0 -->
<g id="edge9" class="edge"><title>Node0x5b027c0&#45;&gt;Node0xef63ea0</title>
<path fill="none" stroke="black" d="M678.5,-718.499C678.5,-709.206 678.5,-699.537 678.5,-690.946"/>
<polygon fill="black" stroke="black" points="682,-690.749 678.5,-680.749 675,-690.749 682,-690.749"/>
</g>
<!-- Node0xef64d40 -->
<g id="node9" class="node"><title>Node0xef64d40</title>
<polygon fill="none" stroke="black" points="414,-407.5 414,-490.5 841,-490.5 841,-407.5 414,-407.5"/>
<text text-anchor="start" x="422" y="-475.3" font-family="Times,serif" font-size="14.00">0x409e2f:</text>
<text text-anchor="start" x="422" y="-460.3" font-family="Times,serif" font-size="14.00"> v9 = IntToPtrCastExpr&lt;ptr&gt;(&#45;2147024809)</text>
<text text-anchor="start" x="422" y="-445.3" font-family="Times,serif" font-size="14.00"> function_4024f0(IntToPtrCastExpr&lt;ptr&gt;(&#45;2147024809))</text>
<text text-anchor="start" x="422" y="-430.3" font-family="Times,serif" font-size="14.00"> result = g2</text>
<text text-anchor="start" x="422" y="-415.3" font-family="Times,serif" font-size="14.00"> return result</text>
</g>
<!-- Node0xef63ea0&#45;&gt;Node0xef64d40 -->
<g id="edge10" class="edge"><title>Node0xef63ea0&#45;&gt;Node0xef64d40</title>
<path fill="none" stroke="black" d="M674.326,-644.192C666.857,-613.217 650.941,-547.21 639.745,-500.781"/>
<polygon fill="black" stroke="black" points="643.109,-499.8 637.362,-490.899 636.304,-501.441 643.109,-499.8"/>
<text text-anchor="middle" x="698" y="-614.8" font-family="Times,serif" font-size="14.00">v32 &lt; 0</text>
</g>
<!-- Node0xef647b0 -->
<g id="node10" class="node"><title>Node0xef647b0</title>
<polygon fill="none" stroke="black" points="688,-509.5 688,-592.5 1029,-592.5 1029,-509.5 688,-509.5"/>
<text text-anchor="start" x="696" y="-577.3" font-family="Times,serif" font-size="14.00">0x409e18:</text>
<text text-anchor="start" x="696" y="-562.3" font-family="Times,serif" font-size="14.00"> v33 = g4</text>
<text text-anchor="start" x="696" y="-547.3" font-family="Times,serif" font-size="14.00"> v39 = *(IntToPtrCastExpr&lt;ptr&gt;(v33))</text>
<text text-anchor="start" x="696" y="-532.3" font-family="Times,serif" font-size="14.00"> g2 = v39</text>
<text text-anchor="start" x="696" y="-517.3" font-family="Times,serif" font-size="14.00"> v49 = *(IntToPtrCastExpr&lt;ptr&gt;((v39 + &#45;8)))</text>
</g>
<!-- Node0xef63ea0&#45;&gt;Node0xef647b0 -->
<g id="edge11" class="edge"><title>Node0xef63ea0&#45;&gt;Node0xef647b0</title>
<path fill="none" stroke="black" d="M706.625,-644.391C727.146,-631.907 755.985,-614.363 783.027,-597.913"/>
<polygon fill="black" stroke="black" points="785.006,-600.806 791.73,-592.618 781.368,-594.825 785.006,-600.806"/>
<text text-anchor="middle" x="793" y="-614.8" font-family="Times,serif" font-size="14.00">v32 &gt;= 0</text>
</g>
<!-- Node0xef63300 -->
<g id="node11" class="node"><title>Node0xef63300</title>
<polygon fill="none" stroke="black" points="837.5,-23.5 837.5,-59.5 891.5,-59.5 891.5,-23.5 837.5,-23.5"/>
<text text-anchor="start" x="845.5" y="-37.8" font-family="Times,serif" font-size="14.00">exit:</text>
</g>
<!-- Node0xef64d40&#45;&gt;Node0xef63300 -->
<g id="edge12" class="edge"><title>Node0xef64d40&#45;&gt;Node0xef63300</title>
<path fill="none" stroke="black" d="M615.033,-407.361C595.82,-335.808 568.34,-186.463 641.5,-97 664.717,-68.6092 769.81,-52.8716 827.053,-46.2677"/>
<polygon fill="black" stroke="black" points="827.605,-49.7279 837.155,-45.1399 826.828,-42.7712 827.605,-49.7279"/>
</g>
<!-- Node0xef639f0 -->
<g id="node12" class="node"><title>Node0xef639f0</title>
<polygon fill="none" stroke="black" points="805,-352.5 805,-388.5 924,-388.5 924,-352.5 805,-352.5"/>
<text text-anchor="start" x="813" y="-366.8" font-family="Times,serif" font-size="14.00">if (v32 &gt; v49):</text>
</g>
<!-- Node0xef647b0&#45;&gt;Node0xef639f0 -->
<g id="edge13" class="edge"><title>Node0xef647b0&#45;&gt;Node0xef639f0</title>
<path fill="none" stroke="black" d="M859.861,-509.496C861.001,-475.6 862.595,-428.172 863.587,-398.672"/>
<polygon fill="black" stroke="black" points="867.085,-398.786 863.923,-388.674 860.089,-398.55 867.085,-398.786"/>
</g>
<!-- Node0xef63780 -->
<g id="node13" class="node"><title>Node0xef63780</title>
<polygon fill="none" stroke="black" points="651,-157.5 651,-240.5 1078,-240.5 1078,-157.5 651,-157.5"/>
<text text-anchor="start" x="659" y="-225.3" font-family="Times,serif" font-size="14.00">0x409e2f:</text>
<text text-anchor="start" x="659" y="-210.3" font-family="Times,serif" font-size="14.00"> v9 = IntToPtrCastExpr&lt;ptr&gt;(&#45;2147024809)</text>
<text text-anchor="start" x="659" y="-195.3" font-family="Times,serif" font-size="14.00"> function_4024f0(IntToPtrCastExpr&lt;ptr&gt;(&#45;2147024809))</text>
<text text-anchor="start" x="659" y="-180.3" font-family="Times,serif" font-size="14.00"> result = g2</text>
<text text-anchor="start" x="659" y="-165.3" font-family="Times,serif" font-size="14.00"> return result</text>
</g>
<!-- Node0xef639f0&#45;&gt;Node0xef63780 -->
<g id="edge14" class="edge"><title>Node0xef639f0&#45;&gt;Node0xef63780</title>
<path fill="none" stroke="black" d="M864.5,-352.315C864.5,-328.746 864.5,-285.395 864.5,-250.952"/>
<polygon fill="black" stroke="black" points="868,-250.58 864.5,-240.58 861,-250.58 868,-250.58"/>
<text text-anchor="middle" x="901.5" y="-322.8" font-family="Times,serif" font-size="14.00">v32 &gt; v49</text>
</g>
<!-- Node0xef649a0 -->
<g id="node14" class="node"><title>Node0xef649a0</title>
<polygon fill="none" stroke="black" points="1096.5,-97.5 1096.5,-300.5 1458.5,-300.5 1458.5,-97.5 1096.5,-97.5"/>
<text text-anchor="start" x="1104.5" y="-285.3" font-family="Times,serif" font-size="14.00">0x409e1f:</text>
<text text-anchor="start" x="1104.5" y="-270.3" font-family="Times,serif" font-size="14.00"> *(IntToPtrCastExpr&lt;ptr&gt;((v39 + &#45;12))) = v32</text>
<text text-anchor="start" x="1104.5" y="-255.3" font-family="Times,serif" font-size="14.00"> v34 = g4</text>
<text text-anchor="start" x="1104.5" y="-240.3" font-family="Times,serif" font-size="14.00"> result2 = *(IntToPtrCastExpr&lt;ptr&gt;(v34))</text>
<text text-anchor="start" x="1104.5" y="-225.3" font-family="Times,serif" font-size="14.00"> v40 = v7</text>
<text text-anchor="start" x="1104.5" y="-210.3" font-family="Times,serif" font-size="14.00"> g7 = v40</text>
<text text-anchor="start" x="1104.5" y="-195.3" font-family="Times,serif" font-size="14.00"> v42 = g9</text>
<text text-anchor="start" x="1104.5" y="-180.3" font-family="Times,serif" font-size="14.00"> *(IntToPtrCastExpr&lt;ptr&gt;((v42 + result2))) = 0</text>
<text text-anchor="start" x="1104.5" y="-165.3" font-family="Times,serif" font-size="14.00"> v41 = v5</text>
<text text-anchor="start" x="1104.5" y="-150.3" font-family="Times,serif" font-size="14.00"> g9 = v41</text>
<text text-anchor="start" x="1104.5" y="-135.3" font-family="Times,serif" font-size="14.00"> g3 = v24</text>
<text text-anchor="start" x="1104.5" y="-120.3" font-family="Times,serif" font-size="14.00"> g4 = v16</text>
<text text-anchor="start" x="1104.5" y="-105.3" font-family="Times,serif" font-size="14.00"> return result2</text>
</g>
<!-- Node0xef639f0&#45;&gt;Node0xef649a0 -->
<g id="edge15" class="edge"><title>Node0xef639f0&#45;&gt;Node0xef649a0</title>
<path fill="none" stroke="black" d="M924.271,-354.473C967.495,-342.853 1027.2,-325.252 1086.78,-301.18"/>
<polygon fill="black" stroke="black" points="1088.41,-304.293 1096.34,-297.261 1085.76,-297.816 1088.41,-304.293"/>
<text text-anchor="middle" x="1082.5" y="-322.8" font-family="Times,serif" font-size="14.00">v32 &lt;= v49</text>
</g>
<!-- Node0xef63780&#45;&gt;Node0xef63300 -->
<g id="edge16" class="edge"><title>Node0xef63780&#45;&gt;Node0xef63300</title>
<path fill="none" stroke="black" d="M864.5,-157.144C864.5,-129.676 864.5,-94.2112 864.5,-70.0477"/>
<polygon fill="black" stroke="black" points="868,-69.8102 864.5,-59.8102 861,-69.8102 868,-69.8102"/>
</g>
<!-- Node0xef649a0&#45;&gt;Node0xef63300 -->
<g id="edge17" class="edge"><title>Node0xef649a0&#45;&gt;Node0xef63300</title>
<path fill="none" stroke="black" d="M1096.43,-100.498C1093.45,-99.298 1090.47,-98.1309 1087.5,-97 1024.1,-72.8359 946.407,-56.7088 901.466,-48.6155"/>
<polygon fill="black" stroke="black" points="902.039,-45.1626 891.583,-46.8705 900.822,-52.056 902.039,-45.1626"/>
</g>
</g>
</svg>
