<?xml version="1.0" encoding="UTF-8" standalone="no"?>
<!DOCTYPE svg PUBLIC "-//W3C//DTD SVG 1.1//EN"
 "http://www.w3.org/Graphics/SVG/1.1/DTD/svg11.dtd">
<!-- Generated by graphviz version 2.38.0 (20140413.2041)
 -->
<!-- Title: Control&#45;flow graph for function &#39;function_40ed89()&#39;. Pages: 1 -->
<svg width="593pt" height="862pt"
 viewBox="0.00 0.00 593.00 862.00" xmlns="http://www.w3.org/2000/svg" xmlns:xlink="http://www.w3.org/1999/xlink">
<g id="graph0" class="graph" transform="scale(1 1) rotate(0) translate(4 858)">
<title>Control&#45;flow graph for function &#39;function_40ed89()&#39;.</title>
<polygon fill="white" stroke="none" points="-4,4 -4,-858 589,-858 589,4 -4,4"/>
<text text-anchor="middle" x="292.5" y="-7.8" font-family="Times,serif" font-size="14.00">Control&#45;flow graph for function &#39;function_40ed89()&#39;.</text>
<!-- Node0xf0ccf10 -->
<g id="node1" class="node"><title>Node0xf0ccf10</title>
<polygon fill="none" stroke="black" points="223,-817.5 223,-853.5 282,-853.5 282,-817.5 223,-817.5"/>
<text text-anchor="start" x="231" y="-831.8" font-family="Times,serif" font-size="14.00">entry:</text>
</g>
<!-- Node0xf0cd340 -->
<g id="node2" class="node"><title>Node0xf0cd340</title>
<polygon fill="none" stroke="black" points="0,-486.5 0,-779.5 505,-779.5 505,-486.5 0,-486.5"/>
<text text-anchor="start" x="8" y="-764.3" font-family="Times,serif" font-size="14.00">v1</text>
<text text-anchor="start" x="8" y="-749.3" font-family="Times,serif" font-size="14.00"> v2</text>
<text text-anchor="start" x="8" y="-734.3" font-family="Times,serif" font-size="14.00"> v3</text>
<text text-anchor="start" x="8" y="-719.3" font-family="Times,serif" font-size="14.00"> v4</text>
<text text-anchor="start" x="8" y="-704.3" font-family="Times,serif" font-size="14.00"> v5</text>
<text text-anchor="start" x="8" y="-689.3" font-family="Times,serif" font-size="14.00"> v6</text>
<text text-anchor="start" x="8" y="-674.3" font-family="Times,serif" font-size="14.00"> v7</text>
<text text-anchor="start" x="8" y="-659.3" font-family="Times,serif" font-size="14.00"> v8</text>
<text text-anchor="start" x="8" y="-644.3" font-family="Times,serif" font-size="14.00"> v9</text>
<text text-anchor="start" x="8" y="-629.3" font-family="Times,serif" font-size="14.00"> v10</text>
<text text-anchor="start" x="8" y="-614.3" font-family="Times,serif" font-size="14.00"> v11</text>
<text text-anchor="start" x="8" y="-599.3" font-family="Times,serif" font-size="14.00"> v12</text>
<text text-anchor="start" x="8" y="-584.3" font-family="Times,serif" font-size="14.00"> v13</text>
<text text-anchor="start" x="8" y="-569.3" font-family="Times,serif" font-size="14.00"> v14</text>
<text text-anchor="start" x="8" y="-554.3" font-family="Times,serif" font-size="14.00"> v15</text>
<text text-anchor="start" x="8" y="-539.3" font-family="Times,serif" font-size="14.00"> g5 = 4642928</text>
<text text-anchor="start" x="8" y="-524.3" font-family="Times,serif" font-size="14.00"> v5 = function_41ad9f(PtrToIntCastExpr&lt;int32&gt;(function_40d6aa))</text>
<text text-anchor="start" x="8" y="-509.3" font-family="Times,serif" font-size="14.00"> g9 = v5</text>
<text text-anchor="start" x="8" y="-494.3" font-family="Times,serif" font-size="14.00"> g1 = False</text>
</g>
<!-- Node0xf0ccf10&#45;&gt;Node0xf0cd340 -->
<g id="edge1" class="edge"><title>Node0xf0ccf10&#45;&gt;Node0xf0cd340</title>
<path fill="none" stroke="black" d="M252.5,-817.405C252.5,-810.01 252.5,-800.604 252.5,-789.972"/>
<polygon fill="black" stroke="black" points="256,-789.886 252.5,-779.886 249,-789.886 256,-789.886"/>
</g>
<!-- Node0xf0cd2e0 -->
<g id="node3" class="node"><title>Node0xf0cd2e0</title>
<polygon fill="none" stroke="black" points="200,-412.5 200,-448.5 305,-448.5 305,-412.5 200,-412.5"/>
<text text-anchor="start" x="208" y="-426.8" font-family="Times,serif" font-size="14.00">if (v5 == 0):</text>
</g>
<!-- Node0xf0cd340&#45;&gt;Node0xf0cd2e0 -->
<g id="edge2" class="edge"><title>Node0xf0cd340&#45;&gt;Node0xf0cd2e0</title>
<path fill="none" stroke="black" d="M252.5,-486.288C252.5,-476.099 252.5,-466.706 252.5,-458.68"/>
<polygon fill="black" stroke="black" points="256,-458.638 252.5,-448.638 249,-458.638 256,-458.638"/>
</g>
<!-- Node0xf0cd9e0 -->
<g id="node4" class="node"><title>Node0xf0cd9e0</title>
<polygon fill="none" stroke="black" points="35.5,-202.5 35.5,-255.5 187.5,-255.5 187.5,-202.5 35.5,-202.5"/>
<text text-anchor="start" x="43.5" y="-240.3" font-family="Times,serif" font-size="14.00">0x40ed9f:</text>
<text text-anchor="start" x="43.5" y="-225.3" font-family="Times,serif" font-size="14.00"> function_4178b1()</text>
<text text-anchor="start" x="43.5" y="-210.3" font-family="Times,serif" font-size="14.00"> return 0</text>
</g>
<!-- Node0xf0cd2e0&#45;&gt;Node0xf0cd9e0 -->
<g id="edge3" class="edge"><title>Node0xf0cd2e0&#45;&gt;Node0xf0cd9e0</title>
<path fill="none" stroke="black" d="M238.016,-412.402C226.643,-398.757 210.595,-379.009 197.5,-361 174.212,-328.974 149.606,-291.02 132.708,-264.23"/>
<polygon fill="black" stroke="black" points="135.569,-262.205 127.286,-255.598 129.641,-265.928 135.569,-262.205"/>
<text text-anchor="middle" x="252.5" y="-382.8" font-family="Times,serif" font-size="14.00">v5 == 0</text>
</g>
<!-- Node0xf0cd4e0 -->
<g id="node5" class="node"><title>Node0xf0cd4e0</title>
<polygon fill="none" stroke="black" points="206,-97.5 206,-360.5 585,-360.5 585,-97.5 206,-97.5"/>
<text text-anchor="start" x="214" y="-345.3" font-family="Times,serif" font-size="14.00">0x40eda4:</text>
<text text-anchor="start" x="214" y="-330.3" font-family="Times,serif" font-size="14.00"> GetMessageTime()</text>
<text text-anchor="start" x="214" y="-315.3" font-family="Times,serif" font-size="14.00"> v11 = g9</text>
<text text-anchor="start" x="214" y="-300.3" font-family="Times,serif" font-size="14.00"> *(IntToPtrCastExpr&lt;ptr&gt;((v11 + 104))) = v5</text>
<text text-anchor="start" x="214" y="-285.3" font-family="Times,serif" font-size="14.00"> v4 = GetMessagePos()</text>
<text text-anchor="start" x="214" y="-270.3" font-family="Times,serif" font-size="14.00"> g5 = ((v4 * 65536) / 65536)</text>
<text text-anchor="start" x="214" y="-255.3" font-family="Times,serif" font-size="14.00"> g1 = ((v4 &amp; 32768) != 0)</text>
<text text-anchor="start" x="214" y="-240.3" font-family="Times,serif" font-size="14.00"> v6 = (v4 / 65536)</text>
<text text-anchor="start" x="214" y="-225.3" font-family="Times,serif" font-size="14.00"> g2 = v6</text>
<text text-anchor="start" x="214" y="-210.3" font-family="Times,serif" font-size="14.00"> v12 = g9</text>
<text text-anchor="start" x="214" y="-195.3" font-family="Times,serif" font-size="14.00"> *(IntToPtrCastExpr&lt;ptr&gt;((v12 + 112))) = v6</text>
<text text-anchor="start" x="214" y="-180.3" font-family="Times,serif" font-size="14.00"> v13 = g9</text>
<text text-anchor="start" x="214" y="-165.3" font-family="Times,serif" font-size="14.00"> v15 = g5</text>
<text text-anchor="start" x="214" y="-150.3" font-family="Times,serif" font-size="14.00"> *(IntToPtrCastExpr&lt;ptr&gt;((v13 + 108))) = v15</text>
<text text-anchor="start" x="214" y="-135.3" font-family="Times,serif" font-size="14.00"> v14 = g9</text>
<text text-anchor="start" x="214" y="-120.3" font-family="Times,serif" font-size="14.00"> g9 = PtrToIntCastExpr&lt;int32&gt;(function_40d6aa)</text>
<text text-anchor="start" x="214" y="-105.3" font-family="Times,serif" font-size="14.00"> return (v14 + 88)</text>
</g>
<!-- Node0xf0cd2e0&#45;&gt;Node0xf0cd4e0 -->
<g id="edge4" class="edge"><title>Node0xf0cd2e0&#45;&gt;Node0xf0cd4e0</title>
<path fill="none" stroke="black" d="M270.09,-412.367C275.57,-406.711 281.486,-400.262 286.5,-394 292.897,-386.012 299.287,-377.65 305.587,-369.11"/>
<polygon fill="black" stroke="black" points="308.529,-371.016 311.595,-360.875 302.874,-366.89 308.529,-371.016"/>
<text text-anchor="middle" x="323.5" y="-382.8" font-family="Times,serif" font-size="14.00">v5 != 0</text>
</g>
<!-- Node0xf0cb9a0 -->
<g id="node6" class="node"><title>Node0xf0cb9a0</title>
<polygon fill="none" stroke="black" points="258.5,-23.5 258.5,-59.5 312.5,-59.5 312.5,-23.5 258.5,-23.5"/>
<text text-anchor="start" x="266.5" y="-37.8" font-family="Times,serif" font-size="14.00">exit:</text>
</g>
<!-- Node0xf0cd9e0&#45;&gt;Node0xf0cb9a0 -->
<g id="edge5" class="edge"><title>Node0xf0cd9e0&#45;&gt;Node0xf0cb9a0</title>
<path fill="none" stroke="black" d="M123.918,-202.495C138.591,-174.237 165.147,-128.51 197.5,-97 212.599,-82.2952 232.333,-69.6252 249.286,-60.2119"/>
<polygon fill="black" stroke="black" points="251.222,-63.1445 258.371,-55.3251 247.906,-56.9797 251.222,-63.1445"/>
</g>
<!-- Node0xf0cd4e0&#45;&gt;Node0xf0cb9a0 -->
<g id="edge6" class="edge"><title>Node0xf0cd4e0&#45;&gt;Node0xf0cb9a0</title>
<path fill="none" stroke="black" d="M318.057,-97.4032C311.73,-86.7333 305.881,-76.87 300.938,-68.5339"/>
<polygon fill="black" stroke="black" points="303.876,-66.6257 295.764,-59.8095 297.855,-70.1961 303.876,-66.6257"/>
</g>
</g>
</svg>
