<?xml version="1.0" encoding="UTF-8" standalone="no"?>
<!DOCTYPE svg PUBLIC "-//W3C//DTD SVG 1.1//EN"
 "http://www.w3.org/Graphics/SVG/1.1/DTD/svg11.dtd">
<!-- Generated by graphviz version 2.38.0 (20140413.2041)
 -->
<!-- Title: Control&#45;flow graph for function &#39;function_4029e0(a1)&#39;. Pages: 1 -->
<svg width="596pt" height="293pt"
 viewBox="0.00 0.00 596.00 293.00" xmlns="http://www.w3.org/2000/svg" xmlns:xlink="http://www.w3.org/1999/xlink">
<g id="graph0" class="graph" transform="scale(1 1) rotate(0) translate(4 289)">
<title>Control&#45;flow graph for function &#39;function_4029e0(a1)&#39;.</title>
<polygon fill="white" stroke="none" points="-4,4 -4,-289 592,-289 592,4 -4,4"/>
<text text-anchor="middle" x="294" y="-7.8" font-family="Times,serif" font-size="14.00">Control&#45;flow graph for function &#39;function_4029e0(a1)&#39;.</text>
<!-- Node0xef07980 -->
<g id="node1" class="node"><title>Node0xef07980</title>
<polygon fill="none" stroke="black" points="264.5,-246.5 264.5,-284.5 323.5,-284.5 323.5,-246.5 264.5,-246.5"/>
<text text-anchor="start" x="272.5" y="-269.3" font-family="Times,serif" font-size="14.00">entry:</text>
<text text-anchor="start" x="272.5" y="-254.3" font-family="Times,serif" font-size="14.00"> a1</text>
</g>
<!-- Node0xef083b0 -->
<g id="node2" class="node"><title>Node0xef083b0</title>
<polygon fill="none" stroke="black" points="0,-96.5 0,-209.5 588,-209.5 588,-96.5 0,-96.5"/>
<text text-anchor="start" x="8" y="-194.3" font-family="Times,serif" font-size="14.00">v1</text>
<text text-anchor="start" x="8" y="-179.3" font-family="Times,serif" font-size="14.00"> v2</text>
<text text-anchor="start" x="8" y="-164.3" font-family="Times,serif" font-size="14.00"> v3</text>
<text text-anchor="start" x="8" y="-149.3" font-family="Times,serif" font-size="14.00"> v3 = g5</text>
<text text-anchor="start" x="8" y="-134.3" font-family="Times,serif" font-size="14.00"> *(IntToPtrCastExpr&lt;ptr&gt;(v3)) = PtrToIntCastExpr&lt;int32&gt;(&amp;(vtable_45cd0c))</text>
<text text-anchor="start" x="8" y="-119.3" font-family="Times,serif" font-size="14.00"> _qm__qm_1exception_std__UAE_XZ()</text>
<text text-anchor="start" x="8" y="-104.3" font-family="Times,serif" font-size="14.00"> return</text>
</g>
<!-- Node0xef07980&#45;&gt;Node0xef083b0 -->
<g id="edge1" class="edge"><title>Node0xef07980&#45;&gt;Node0xef083b0</title>
<path fill="none" stroke="black" d="M294,-246.253C294,-238.701 294,-229.442 294,-219.734"/>
<polygon fill="black" stroke="black" points="297.5,-219.508 294,-209.508 290.5,-219.508 297.5,-219.508"/>
</g>
<!-- Node0xef08350 -->
<g id="node3" class="node"><title>Node0xef08350</title>
<polygon fill="none" stroke="black" points="267,-23.5 267,-59.5 321,-59.5 321,-23.5 267,-23.5"/>
<text text-anchor="start" x="275" y="-37.8" font-family="Times,serif" font-size="14.00">exit:</text>
</g>
<!-- Node0xef083b0&#45;&gt;Node0xef08350 -->
<g id="edge2" class="edge"><title>Node0xef083b0&#45;&gt;Node0xef08350</title>
<path fill="none" stroke="black" d="M294,-96.2876C294,-87.1343 294,-78.0169 294,-69.9591"/>
<polygon fill="black" stroke="black" points="297.5,-69.7241 294,-59.7242 290.5,-69.7242 297.5,-69.7241"/>
</g>
</g>
</svg>
