<?xml version="1.0" encoding="UTF-8" standalone="no"?>
<!DOCTYPE svg PUBLIC "-//W3C//DTD SVG 1.1//EN"
 "http://www.w3.org/Graphics/SVG/1.1/DTD/svg11.dtd">
<!-- Generated by graphviz version 2.38.0 (20140413.2041)
 -->
<!-- Title: Control&#45;flow graph for function &#39;function_4277fe(*a1)&#39;. Pages: 1 -->
<svg width="690pt" height="3782pt"
 viewBox="0.00 0.00 690.00 3782.00" xmlns="http://www.w3.org/2000/svg" xmlns:xlink="http://www.w3.org/1999/xlink">
<g id="graph0" class="graph" transform="scale(1 1) rotate(0) translate(4 3778)">
<title>Control&#45;flow graph for function &#39;function_4277fe(*a1)&#39;.</title>
<polygon fill="white" stroke="none" points="-4,4 -4,-3778 686,-3778 686,4 -4,4"/>
<text text-anchor="middle" x="341" y="-7.8" font-family="Times,serif" font-size="14.00">Control&#45;flow graph for function &#39;function_4277fe(*a1)&#39;.</text>
<!-- Node0xfe5b840 -->
<g id="node1" class="node"><title>Node0xfe5b840</title>
<polygon fill="none" stroke="black" points="406.5,-3735.5 406.5,-3773.5 465.5,-3773.5 465.5,-3735.5 406.5,-3735.5"/>
<text text-anchor="start" x="414.5" y="-3758.3" font-family="Times,serif" font-size="14.00">entry:</text>
<text text-anchor="start" x="414.5" y="-3743.3" font-family="Times,serif" font-size="14.00"> a1</text>
</g>
<!-- Node0xfe5e490 -->
<g id="node2" class="node"><title>Node0xfe5e490</title>
<polygon fill="none" stroke="black" points="263,-2339.5 263,-3697.5 609,-3697.5 609,-2339.5 263,-2339.5"/>
<text text-anchor="start" x="271" y="-3682.3" font-family="Times,serif" font-size="14.00">v1</text>
<text text-anchor="start" x="271" y="-3667.3" font-family="Times,serif" font-size="14.00"> v2</text>
<text text-anchor="start" x="271" y="-3652.3" font-family="Times,serif" font-size="14.00"> v3</text>
<text text-anchor="start" x="271" y="-3637.3" font-family="Times,serif" font-size="14.00"> v4</text>
<text text-anchor="start" x="271" y="-3622.3" font-family="Times,serif" font-size="14.00"> v5</text>
<text text-anchor="start" x="271" y="-3607.3" font-family="Times,serif" font-size="14.00"> v6</text>
<text text-anchor="start" x="271" y="-3592.3" font-family="Times,serif" font-size="14.00"> v7</text>
<text text-anchor="start" x="271" y="-3577.3" font-family="Times,serif" font-size="14.00"> v8</text>
<text text-anchor="start" x="271" y="-3562.3" font-family="Times,serif" font-size="14.00"> v9</text>
<text text-anchor="start" x="271" y="-3547.3" font-family="Times,serif" font-size="14.00"> v10</text>
<text text-anchor="start" x="271" y="-3532.3" font-family="Times,serif" font-size="14.00"> v11</text>
<text text-anchor="start" x="271" y="-3517.3" font-family="Times,serif" font-size="14.00"> v12</text>
<text text-anchor="start" x="271" y="-3502.3" font-family="Times,serif" font-size="14.00"> v13</text>
<text text-anchor="start" x="271" y="-3487.3" font-family="Times,serif" font-size="14.00"> v14</text>
<text text-anchor="start" x="271" y="-3472.3" font-family="Times,serif" font-size="14.00"> v15</text>
<text text-anchor="start" x="271" y="-3457.3" font-family="Times,serif" font-size="14.00"> v16</text>
<text text-anchor="start" x="271" y="-3442.3" font-family="Times,serif" font-size="14.00"> v17</text>
<text text-anchor="start" x="271" y="-3427.3" font-family="Times,serif" font-size="14.00"> v18</text>
<text text-anchor="start" x="271" y="-3412.3" font-family="Times,serif" font-size="14.00"> v19</text>
<text text-anchor="start" x="271" y="-3397.3" font-family="Times,serif" font-size="14.00"> v20</text>
<text text-anchor="start" x="271" y="-3382.3" font-family="Times,serif" font-size="14.00"> v21</text>
<text text-anchor="start" x="271" y="-3367.3" font-family="Times,serif" font-size="14.00"> v22</text>
<text text-anchor="start" x="271" y="-3352.3" font-family="Times,serif" font-size="14.00"> v23</text>
<text text-anchor="start" x="271" y="-3337.3" font-family="Times,serif" font-size="14.00"> v24</text>
<text text-anchor="start" x="271" y="-3322.3" font-family="Times,serif" font-size="14.00"> v25</text>
<text text-anchor="start" x="271" y="-3307.3" font-family="Times,serif" font-size="14.00"> v26</text>
<text text-anchor="start" x="271" y="-3292.3" font-family="Times,serif" font-size="14.00"> v27</text>
<text text-anchor="start" x="271" y="-3277.3" font-family="Times,serif" font-size="14.00"> v28</text>
<text text-anchor="start" x="271" y="-3262.3" font-family="Times,serif" font-size="14.00"> v29</text>
<text text-anchor="start" x="271" y="-3247.3" font-family="Times,serif" font-size="14.00"> v30</text>
<text text-anchor="start" x="271" y="-3232.3" font-family="Times,serif" font-size="14.00"> v31</text>
<text text-anchor="start" x="271" y="-3217.3" font-family="Times,serif" font-size="14.00"> v32</text>
<text text-anchor="start" x="271" y="-3202.3" font-family="Times,serif" font-size="14.00"> v33</text>
<text text-anchor="start" x="271" y="-3187.3" font-family="Times,serif" font-size="14.00"> v34</text>
<text text-anchor="start" x="271" y="-3172.3" font-family="Times,serif" font-size="14.00"> v35</text>
<text text-anchor="start" x="271" y="-3157.3" font-family="Times,serif" font-size="14.00"> v36</text>
<text text-anchor="start" x="271" y="-3142.3" font-family="Times,serif" font-size="14.00"> v37</text>
<text text-anchor="start" x="271" y="-3127.3" font-family="Times,serif" font-size="14.00"> v38</text>
<text text-anchor="start" x="271" y="-3112.3" font-family="Times,serif" font-size="14.00"> v39</text>
<text text-anchor="start" x="271" y="-3097.3" font-family="Times,serif" font-size="14.00"> v40</text>
<text text-anchor="start" x="271" y="-3082.3" font-family="Times,serif" font-size="14.00"> v41</text>
<text text-anchor="start" x="271" y="-3067.3" font-family="Times,serif" font-size="14.00"> v42</text>
<text text-anchor="start" x="271" y="-3052.3" font-family="Times,serif" font-size="14.00"> v43</text>
<text text-anchor="start" x="271" y="-3037.3" font-family="Times,serif" font-size="14.00"> v44</text>
<text text-anchor="start" x="271" y="-3022.3" font-family="Times,serif" font-size="14.00"> v45</text>
<text text-anchor="start" x="271" y="-3007.3" font-family="Times,serif" font-size="14.00"> v46</text>
<text text-anchor="start" x="271" y="-2992.3" font-family="Times,serif" font-size="14.00"> v47</text>
<text text-anchor="start" x="271" y="-2977.3" font-family="Times,serif" font-size="14.00"> v48</text>
<text text-anchor="start" x="271" y="-2962.3" font-family="Times,serif" font-size="14.00"> v49</text>
<text text-anchor="start" x="271" y="-2947.3" font-family="Times,serif" font-size="14.00"> v50</text>
<text text-anchor="start" x="271" y="-2932.3" font-family="Times,serif" font-size="14.00"> v51</text>
<text text-anchor="start" x="271" y="-2917.3" font-family="Times,serif" font-size="14.00"> v52</text>
<text text-anchor="start" x="271" y="-2902.3" font-family="Times,serif" font-size="14.00"> v53</text>
<text text-anchor="start" x="271" y="-2887.3" font-family="Times,serif" font-size="14.00"> v54</text>
<text text-anchor="start" x="271" y="-2872.3" font-family="Times,serif" font-size="14.00"> v55</text>
<text text-anchor="start" x="271" y="-2857.3" font-family="Times,serif" font-size="14.00"> v56</text>
<text text-anchor="start" x="271" y="-2842.3" font-family="Times,serif" font-size="14.00"> v57</text>
<text text-anchor="start" x="271" y="-2827.3" font-family="Times,serif" font-size="14.00"> v58</text>
<text text-anchor="start" x="271" y="-2812.3" font-family="Times,serif" font-size="14.00"> v59</text>
<text text-anchor="start" x="271" y="-2797.3" font-family="Times,serif" font-size="14.00"> v60</text>
<text text-anchor="start" x="271" y="-2782.3" font-family="Times,serif" font-size="14.00"> v61</text>
<text text-anchor="start" x="271" y="-2767.3" font-family="Times,serif" font-size="14.00"> v62</text>
<text text-anchor="start" x="271" y="-2752.3" font-family="Times,serif" font-size="14.00"> v63</text>
<text text-anchor="start" x="271" y="-2737.3" font-family="Times,serif" font-size="14.00"> v64</text>
<text text-anchor="start" x="271" y="-2722.3" font-family="Times,serif" font-size="14.00"> v65</text>
<text text-anchor="start" x="271" y="-2707.3" font-family="Times,serif" font-size="14.00"> v66</text>
<text text-anchor="start" x="271" y="-2692.3" font-family="Times,serif" font-size="14.00"> v67</text>
<text text-anchor="start" x="271" y="-2677.3" font-family="Times,serif" font-size="14.00"> v68</text>
<text text-anchor="start" x="271" y="-2662.3" font-family="Times,serif" font-size="14.00"> v69</text>
<text text-anchor="start" x="271" y="-2647.3" font-family="Times,serif" font-size="14.00"> v70</text>
<text text-anchor="start" x="271" y="-2632.3" font-family="Times,serif" font-size="14.00"> v71</text>
<text text-anchor="start" x="271" y="-2617.3" font-family="Times,serif" font-size="14.00"> result</text>
<text text-anchor="start" x="271" y="-2602.3" font-family="Times,serif" font-size="14.00"> v72</text>
<text text-anchor="start" x="271" y="-2587.3" font-family="Times,serif" font-size="14.00"> v35 = v36</text>
<text text-anchor="start" x="271" y="-2572.3" font-family="Times,serif" font-size="14.00"> v33 = v34</text>
<text text-anchor="start" x="271" y="-2557.3" font-family="Times,serif" font-size="14.00"> v31 = v32</text>
<text text-anchor="start" x="271" y="-2542.3" font-family="Times,serif" font-size="14.00"> v29 = v30</text>
<text text-anchor="start" x="271" y="-2527.3" font-family="Times,serif" font-size="14.00"> v40 = v41</text>
<text text-anchor="start" x="271" y="-2512.3" font-family="Times,serif" font-size="14.00"> v38 = v39</text>
<text text-anchor="start" x="271" y="-2497.3" font-family="Times,serif" font-size="14.00"> v42 = v43</text>
<text text-anchor="start" x="271" y="-2482.3" font-family="Times,serif" font-size="14.00"> v42 = a1</text>
<text text-anchor="start" x="271" y="-2467.3" font-family="Times,serif" font-size="14.00"> g2 = 4538431</text>
<text text-anchor="start" x="271" y="-2452.3" font-family="Times,serif" font-size="14.00"> __EH_prolog3()</text>
<text text-anchor="start" x="271" y="-2437.3" font-family="Times,serif" font-size="14.00"> v46 = g5</text>
<text text-anchor="start" x="271" y="-2422.3" font-family="Times,serif" font-size="14.00"> g4 = v46</text>
<text text-anchor="start" x="271" y="-2407.3" font-family="Times,serif" font-size="14.00"> v70 = *(IntToPtrCastExpr&lt;ptr&gt;((v46 + 60)))</text>
<text text-anchor="start" x="271" y="-2392.3" font-family="Times,serif" font-size="14.00"> g7 = v70</text>
<text text-anchor="start" x="271" y="-2377.3" font-family="Times,serif" font-size="14.00"> g9 = 0</text>
<text text-anchor="start" x="271" y="-2362.3" font-family="Times,serif" font-size="14.00"> v56 = g3</text>
<text text-anchor="start" x="271" y="-2347.3" font-family="Times,serif" font-size="14.00"> *(IntToPtrCastExpr&lt;ptr&gt;((v56 + &#45;16))) = 0</text>
</g>
<!-- Node0xfe5b840&#45;&gt;Node0xfe5e490 -->
<g id="edge1" class="edge"><title>Node0xfe5b840&#45;&gt;Node0xfe5e490</title>
<path fill="none" stroke="black" d="M436,-3735.36C436,-3728.1 436,-3718.82 436,-3707.82"/>
<polygon fill="black" stroke="black" points="439.5,-3707.71 436,-3697.71 432.5,-3707.71 439.5,-3707.71"/>
</g>
<!-- Node0xfe5f600 -->
<g id="node3" class="node"><title>Node0xfe5f600</title>
<polygon fill="none" stroke="black" points="379,-2263.5 379,-2301.5 493,-2301.5 493,-2263.5 379,-2263.5"/>
<text text-anchor="start" x="387" y="-2286.3" font-family="Times,serif" font-size="14.00">if (v70 == 0):</text>
<text text-anchor="start" x="387" y="-2271.3" font-family="Times,serif" font-size="14.00"> else:</text>
</g>
<!-- Node0xfe5e490&#45;&gt;Node0xfe5f600 -->
<g id="edge2" class="edge"><title>Node0xfe5e490&#45;&gt;Node0xfe5f600</title>
<path fill="none" stroke="black" d="M436,-2339.27C436,-2328.73 436,-2319.46 436,-2311.66"/>
<polygon fill="black" stroke="black" points="439.5,-2311.63 436,-2301.63 432.5,-2311.63 439.5,-2311.63"/>
</g>
<!-- Node0xfe60ab0 -->
<g id="node4" class="node"><title>Node0xfe60ab0</title>
<polygon fill="none" stroke="black" points="87.5,-2083.5 87.5,-2211.5 488.5,-2211.5 488.5,-2083.5 87.5,-2083.5"/>
<text text-anchor="start" x="95.5" y="-2196.3" font-family="Times,serif" font-size="14.00">0x427818:</text>
<text text-anchor="start" x="95.5" y="-2181.3" font-family="Times,serif" font-size="14.00"> v40 = IntToPtrCastExpr&lt;ptr&gt;(28)</text>
<text text-anchor="start" x="95.5" y="-2166.3" font-family="Times,serif" font-size="14.00"> v21 = function_40c753(IntToPtrCastExpr&lt;ptr&gt;(28))</text>
<text text-anchor="start" x="95.5" y="-2151.3" font-family="Times,serif" font-size="14.00"> v57 = g3</text>
<text text-anchor="start" x="95.5" y="-2136.3" font-family="Times,serif" font-size="14.00"> *(IntToPtrCastExpr&lt;ptr&gt;((v57 + &#45;20))) = v21</text>
<text text-anchor="start" x="95.5" y="-2121.3" font-family="Times,serif" font-size="14.00"> v52 = g9</text>
<text text-anchor="start" x="95.5" y="-2106.3" font-family="Times,serif" font-size="14.00"> v58 = g3</text>
<text text-anchor="start" x="95.5" y="-2091.3" font-family="Times,serif" font-size="14.00"> *(IntToPtrCastExpr&lt;ptr&gt;((v58 + &#45;4))) = v52</text>
</g>
<!-- Node0xfe5f600&#45;&gt;Node0xfe60ab0 -->
<g id="edge3" class="edge"><title>Node0xfe5f600&#45;&gt;Node0xfe60ab0</title>
<path fill="none" stroke="black" d="M415.732,-2263.29C402.57,-2251.46 384.488,-2235.21 366.07,-2218.66"/>
<polygon fill="black" stroke="black" points="367.946,-2215.64 358.169,-2211.56 363.267,-2220.84 367.946,-2215.64"/>
<text text-anchor="middle" x="426.5" y="-2233.8" font-family="Times,serif" font-size="14.00">v70 == 0</text>
</g>
<!-- Node0xfe60dd0 -->
<g id="node5" class="node"><title>Node0xfe60dd0</title>
<polygon fill="none" stroke="black" points="468.5,-2011.5 468.5,-2064.5 563.5,-2064.5 563.5,-2011.5 468.5,-2011.5"/>
<text text-anchor="start" x="476.5" y="-2049.3" font-family="Times,serif" font-size="14.00">0x4277fe:</text>
<text text-anchor="start" x="476.5" y="-2034.3" font-family="Times,serif" font-size="14.00"> v49 = g7</text>
<text text-anchor="start" x="476.5" y="-2019.3" font-family="Times,serif" font-size="14.00"> v48 = v49</text>
</g>
<!-- Node0xfe5f600&#45;&gt;Node0xfe60dd0 -->
<g id="edge4" class="edge"><title>Node0xfe5f600&#45;&gt;Node0xfe60dd0</title>
<path fill="none" stroke="black" d="M457.542,-2263.46C471.288,-2250.62 488.135,-2232.13 497,-2212 516.565,-2167.58 519.057,-2110.79 518.199,-2074.64"/>
<polygon fill="black" stroke="black" points="521.695,-2074.45 517.86,-2064.57 514.699,-2074.68 521.695,-2074.45"/>
<text text-anchor="middle" x="517.5" y="-2233.8" font-family="Times,serif" font-size="14.00">v70 != 0</text>
</g>
<!-- Node0xfe60b50 -->
<g id="node6" class="node"><title>Node0xfe60b50</title>
<polygon fill="none" stroke="black" points="222.5,-1954.5 222.5,-1992.5 353.5,-1992.5 353.5,-1954.5 222.5,-1954.5"/>
<text text-anchor="start" x="230.5" y="-1977.3" font-family="Times,serif" font-size="14.00">if (v21 == v52):</text>
<text text-anchor="start" x="230.5" y="-1962.3" font-family="Times,serif" font-size="14.00"> else:</text>
</g>
<!-- Node0xfe60ab0&#45;&gt;Node0xfe60b50 -->
<g id="edge5" class="edge"><title>Node0xfe60ab0&#45;&gt;Node0xfe60b50</title>
<path fill="none" stroke="black" d="M288,-2083.43C288,-2055.87 288,-2024.92 288,-2003.08"/>
<polygon fill="black" stroke="black" points="291.5,-2002.85 288,-1992.85 284.5,-2002.85 291.5,-2002.85"/>
</g>
<!-- Node0xfe5f6a0 -->
<g id="node7" class="node"><title>Node0xfe5f6a0</title>
<polygon fill="none" stroke="black" points="228,-1487.5 228,-1645.5 682,-1645.5 682,-1487.5 228,-1487.5"/>
<text text-anchor="start" x="236" y="-1630.3" font-family="Times,serif" font-size="14.00">0x42783d:</text>
<text text-anchor="start" x="236" y="-1615.3" font-family="Times,serif" font-size="14.00"> v60 = g3</text>
<text text-anchor="start" x="236" y="-1600.3" font-family="Times,serif" font-size="14.00"> v68 = (v60 + &#45;16)</text>
<text text-anchor="start" x="236" y="-1585.3" font-family="Times,serif" font-size="14.00"> g2 = v68</text>
<text text-anchor="start" x="236" y="-1570.3" font-family="Times,serif" font-size="14.00"> v13 = IntToPtrCastExpr&lt;ptr&gt;(v68)</text>
<text text-anchor="start" x="236" y="-1555.3" font-family="Times,serif" font-size="14.00"> v29 = IntToPtrCastExpr&lt;ptr&gt;(1)</text>
<text text-anchor="start" x="236" y="-1540.3" font-family="Times,serif" font-size="14.00"> g10 = PtrToIntCastExpr&lt;int32&gt;(&amp;(v29))</text>
<text text-anchor="start" x="236" y="-1525.3" font-family="Times,serif" font-size="14.00"> g5 = v48</text>
<text text-anchor="start" x="236" y="-1510.3" font-family="Times,serif" font-size="14.00"> v4 = v40</text>
<text text-anchor="start" x="236" y="-1495.3" font-family="Times,serif" font-size="14.00"> v23 = function_41b405(IntToPtrCastExpr&lt;ptr&gt;(1), v13, v4)</text>
</g>
<!-- Node0xfe60dd0&#45;&gt;Node0xfe5f6a0 -->
<g id="edge6" class="edge"><title>Node0xfe60dd0&#45;&gt;Node0xfe5f6a0</title>
<path fill="none" stroke="black" d="M516,-2011.37C516,-1989.59 516,-1957.49 516,-1929.5 516,-1929.5 516,-1929.5 516,-1731.5 516,-1705.89 509.384,-1679.36 500.51,-1655.29"/>
<polygon fill="black" stroke="black" points="503.731,-1653.92 496.867,-1645.85 497.2,-1656.44 503.731,-1653.92"/>
</g>
<!-- Node0xfe5cf60 -->
<g id="node8" class="node"><title>Node0xfe5cf60</title>
<polygon fill="none" stroke="black" points="0,-1842 0,-1880 92,-1880 92,-1842 0,-1842"/>
<text text-anchor="start" x="8" y="-1864.8" font-family="Times,serif" font-size="14.00">0x427835:</text>
<text text-anchor="start" x="8" y="-1849.8" font-family="Times,serif" font-size="14.00"> g2 = 0</text>
</g>
<!-- Node0xfe60b50&#45;&gt;Node0xfe5cf60 -->
<g id="edge7" class="edge"><title>Node0xfe60b50&#45;&gt;Node0xfe5cf60</title>
<path fill="none" stroke="black" d="M226.294,-1954.48C188.889,-1942.37 140.856,-1924.68 101,-1903 92.2258,-1898.23 83.2977,-1892.18 75.2581,-1886.21"/>
<polygon fill="black" stroke="black" points="77.3115,-1883.37 67.2454,-1880.07 73.0533,-1888.93 77.3115,-1883.37"/>
<text text-anchor="middle" x="214" y="-1924.8" font-family="Times,serif" font-size="14.00">v21 == v52</text>
</g>
<!-- Node0xfe5d040 -->
<g id="node9" class="node"><title>Node0xfe5d040</title>
<polygon fill="none" stroke="black" points="110.5,-1819.5 110.5,-1902.5 487.5,-1902.5 487.5,-1819.5 110.5,-1819.5"/>
<text text-anchor="start" x="118.5" y="-1887.3" font-family="Times,serif" font-size="14.00">0x42782a:</text>
<text text-anchor="start" x="118.5" y="-1872.3" font-family="Times,serif" font-size="14.00"> v40 = IntToPtrCastExpr&lt;ptr&gt;(10)</text>
<text text-anchor="start" x="118.5" y="-1857.3" font-family="Times,serif" font-size="14.00"> g5 = v21</text>
<text text-anchor="start" x="118.5" y="-1842.3" font-family="Times,serif" font-size="14.00"> v2 = v38</text>
<text text-anchor="start" x="118.5" y="-1827.3" font-family="Times,serif" font-size="14.00"> function_41b4f0(IntToPtrCastExpr&lt;ptr&gt;(10), v2)</text>
</g>
<!-- Node0xfe60b50&#45;&gt;Node0xfe5d040 -->
<g id="edge8" class="edge"><title>Node0xfe60b50&#45;&gt;Node0xfe5d040</title>
<path fill="none" stroke="black" d="M289.816,-1954.25C290.947,-1942.9 292.461,-1927.68 293.934,-1912.89"/>
<polygon fill="black" stroke="black" points="297.434,-1913.06 294.942,-1902.76 290.469,-1912.37 297.434,-1913.06"/>
<text text-anchor="middle" x="333" y="-1924.8" font-family="Times,serif" font-size="14.00">v21 != v52</text>
</g>
<!-- Node0xfe5e6b0 -->
<g id="node10" class="node"><title>Node0xfe5e6b0</title>
<polygon fill="none" stroke="black" points="398,-1411.5 398,-1449.5 512,-1449.5 512,-1411.5 398,-1411.5"/>
<text text-anchor="start" x="406" y="-1434.3" font-family="Times,serif" font-size="14.00">if (v23 == 0):</text>
<text text-anchor="start" x="406" y="-1419.3" font-family="Times,serif" font-size="14.00"> else:</text>
</g>
<!-- Node0xfe5f6a0&#45;&gt;Node0xfe5e6b0 -->
<g id="edge9" class="edge"><title>Node0xfe5f6a0&#45;&gt;Node0xfe5e6b0</title>
<path fill="none" stroke="black" d="M455,-1487.16C455,-1477.45 455,-1468.06 455,-1459.85"/>
<polygon fill="black" stroke="black" points="458.5,-1459.8 455,-1449.8 451.5,-1459.8 458.5,-1459.8"/>
</g>
<!-- Node0xfe60d70 -->
<g id="node11" class="node"><title>Node0xfe60d70</title>
<polygon fill="none" stroke="black" points="134.5,-1683.5 134.5,-1781.5 463.5,-1781.5 463.5,-1683.5 134.5,-1683.5"/>
<text text-anchor="start" x="142.5" y="-1766.3" font-family="Times,serif" font-size="14.00">0x427837:</text>
<text text-anchor="start" x="142.5" y="-1751.3" font-family="Times,serif" font-size="14.00"> v59 = g3</text>
<text text-anchor="start" x="142.5" y="-1736.3" font-family="Times,serif" font-size="14.00"> *(IntToPtrCastExpr&lt;ptr&gt;((v59 + &#45;4))) = &#45;1</text>
<text text-anchor="start" x="142.5" y="-1721.3" font-family="Times,serif" font-size="14.00"> v47 = g2</text>
<text text-anchor="start" x="142.5" y="-1706.3" font-family="Times,serif" font-size="14.00"> g7 = v47</text>
<text text-anchor="start" x="142.5" y="-1691.3" font-family="Times,serif" font-size="14.00"> v48 = v47</text>
</g>
<!-- Node0xfe5cf60&#45;&gt;Node0xfe60d70 -->
<g id="edge10" class="edge"><title>Node0xfe5cf60&#45;&gt;Node0xfe60d70</title>
<path fill="none" stroke="black" d="M67.9307,-1841.81C77.6944,-1834.2 89.5546,-1825.62 101,-1819 121.514,-1807.14 143.985,-1795.92 166.191,-1785.75"/>
<polygon fill="black" stroke="black" points="167.682,-1788.92 175.349,-1781.61 164.796,-1782.54 167.682,-1788.92"/>
</g>
<!-- Node0xfe5d040&#45;&gt;Node0xfe60d70 -->
<g id="edge11" class="edge"><title>Node0xfe5d040&#45;&gt;Node0xfe60d70</title>
<path fill="none" stroke="black" d="M299,-1819.28C299,-1810.47 299,-1801 299,-1791.67"/>
<polygon fill="black" stroke="black" points="302.5,-1791.65 299,-1781.65 295.5,-1791.65 302.5,-1791.65"/>
</g>
<!-- Node0xfe60e70 -->
<g id="node12" class="node"><title>Node0xfe60e70</title>
<polygon fill="none" stroke="black" points="83.5,-1276.5 83.5,-1359.5 484.5,-1359.5 484.5,-1276.5 83.5,-1276.5"/>
<text text-anchor="start" x="91.5" y="-1344.3" font-family="Times,serif" font-size="14.00">0x427853:</text>
<text text-anchor="start" x="91.5" y="-1329.3" font-family="Times,serif" font-size="14.00"> v31 = IntToPtrCastExpr&lt;ptr&gt;(20)</text>
<text text-anchor="start" x="91.5" y="-1314.3" font-family="Times,serif" font-size="14.00"> v24 = function_40c753(IntToPtrCastExpr&lt;ptr&gt;(20))</text>
<text text-anchor="start" x="91.5" y="-1299.3" font-family="Times,serif" font-size="14.00"> v53 = g9</text>
<text text-anchor="start" x="91.5" y="-1284.3" font-family="Times,serif" font-size="14.00"> v50 = v24</text>
</g>
<!-- Node0xfe5e6b0&#45;&gt;Node0xfe60e70 -->
<g id="edge12" class="edge"><title>Node0xfe5e6b0&#45;&gt;Node0xfe60e70</title>
<path fill="none" stroke="black" d="M426.763,-1411.25C407.246,-1398.64 380.362,-1381.27 355.183,-1365"/>
<polygon fill="black" stroke="black" points="357.021,-1362.02 346.722,-1359.53 353.221,-1367.9 357.021,-1362.02"/>
<text text-anchor="middle" x="428.5" y="-1381.8" font-family="Times,serif" font-size="14.00">v23 == 0</text>
</g>
<!-- Node0xfe5cee0 -->
<g id="node13" class="node"><title>Node0xfe5cee0</title>
<polygon fill="none" stroke="black" points="346,-1174.5 346,-1257.5 678,-1257.5 678,-1174.5 346,-1174.5"/>
<text text-anchor="start" x="354" y="-1242.3" font-family="Times,serif" font-size="14.00">0x42784e:</text>
<text text-anchor="start" x="354" y="-1227.3" font-family="Times,serif" font-size="14.00"> v61 = g3</text>
<text text-anchor="start" x="354" y="-1212.3" font-family="Times,serif" font-size="14.00"> v14 = IntToPtrCastExpr&lt;ptr&gt;((v61 + &#45;16))</text>
<text text-anchor="start" x="354" y="-1197.3" font-family="Times,serif" font-size="14.00"> v64 = v61</text>
<text text-anchor="start" x="354" y="-1182.3" font-family="Times,serif" font-size="14.00"> v45 = v14</text>
</g>
<!-- Node0xfe5e6b0&#45;&gt;Node0xfe5cee0 -->
<g id="edge13" class="edge"><title>Node0xfe5e6b0&#45;&gt;Node0xfe5cee0</title>
<path fill="none" stroke="black" d="M467.283,-1411.47C475.9,-1397.91 486.927,-1378.56 493,-1360 502.703,-1330.35 507.462,-1295.69 509.791,-1267.92"/>
<polygon fill="black" stroke="black" points="513.304,-1267.87 510.57,-1257.64 506.324,-1267.34 513.304,-1267.87"/>
<text text-anchor="middle" x="516.5" y="-1381.8" font-family="Times,serif" font-size="14.00">v23 != 0</text>
</g>
<!-- Node0xfe60d70&#45;&gt;Node0xfe5f6a0 -->
<g id="edge14" class="edge"><title>Node0xfe60d70&#45;&gt;Node0xfe5f6a0</title>
<path fill="none" stroke="black" d="M344.961,-1683.18C354.002,-1673.68 363.737,-1663.44 373.545,-1653.13"/>
<polygon fill="black" stroke="black" points="376.335,-1655.28 380.691,-1645.62 371.263,-1650.45 376.335,-1655.28"/>
</g>
<!-- Node0xfe60ef0 -->
<g id="node14" class="node"><title>Node0xfe60ef0</title>
<polygon fill="none" stroke="black" points="221.5,-1119.5 221.5,-1155.5 346.5,-1155.5 346.5,-1119.5 221.5,-1119.5"/>
<text text-anchor="start" x="229.5" y="-1133.8" font-family="Times,serif" font-size="14.00">if (v24 != v53):</text>
</g>
<!-- Node0xfe60e70&#45;&gt;Node0xfe60ef0 -->
<g id="edge15" class="edge"><title>Node0xfe60e70&#45;&gt;Node0xfe60ef0</title>
<path fill="none" stroke="black" d="M284,-1276.5C284,-1242.75 284,-1195.59 284,-1166.06"/>
<polygon fill="black" stroke="black" points="287.5,-1165.67 284,-1155.67 280.5,-1165.67 287.5,-1165.67"/>
</g>
<!-- Node0xfe5cb90 -->
<g id="node15" class="node"><title>Node0xfe5cb90</title>
<polygon fill="none" stroke="black" points="266.5,-427.5 266.5,-540.5 619.5,-540.5 619.5,-427.5 266.5,-427.5"/>
<text text-anchor="start" x="274.5" y="-525.3" font-family="Times,serif" font-size="14.00">0x427884:</text>
<text text-anchor="start" x="274.5" y="-510.3" font-family="Times,serif" font-size="14.00"> v44 = *(v45)</text>
<text text-anchor="start" x="274.5" y="-495.3" font-family="Times,serif" font-size="14.00"> v20 = v44</text>
<text text-anchor="start" x="274.5" y="-480.3" font-family="Times,serif" font-size="14.00"> result = *(IntToPtrCastExpr&lt;ptr&gt;((v64 + 8)))</text>
<text text-anchor="start" x="274.5" y="-465.3" font-family="Times,serif" font-size="14.00"> v66 = g4</text>
<text text-anchor="start" x="274.5" y="-450.3" font-family="Times,serif" font-size="14.00"> v72 = g7</text>
<text text-anchor="start" x="274.5" y="-435.3" font-family="Times,serif" font-size="14.00"> *(IntToPtrCastExpr&lt;ptr&gt;((v66 + 60))) = v72</text>
</g>
<!-- Node0xfe5cee0&#45;&gt;Node0xfe5cb90 -->
<g id="edge16" class="edge"><title>Node0xfe5cee0&#45;&gt;Node0xfe5cb90</title>
<path fill="none" stroke="black" d="M512,-1174.28C512,-1150.93 512,-1121.07 512,-1094.5 512,-1094.5 512,-1094.5 512,-754 512,-675.323 516.282,-653.153 493,-578 490.071,-568.544 486.152,-558.94 481.793,-549.67"/>
<polygon fill="black" stroke="black" points="484.855,-547.964 477.306,-540.53 478.571,-551.049 484.855,-547.964"/>
</g>
<!-- Node0xfe61750 -->
<g id="node16" class="node"><title>Node0xfe61750</title>
<polygon fill="none" stroke="black" points="127.5,-969.5 127.5,-1067.5 344.5,-1067.5 344.5,-969.5 127.5,-969.5"/>
<text text-anchor="start" x="135.5" y="-1052.3" font-family="Times,serif" font-size="14.00">0x42785f:</text>
<text text-anchor="start" x="135.5" y="-1037.3" font-family="Times,serif" font-size="14.00"> g5 = v24</text>
<text text-anchor="start" x="135.5" y="-1022.3" font-family="Times,serif" font-size="14.00"> v1 = v29</text>
<text text-anchor="start" x="135.5" y="-1007.3" font-family="Times,serif" font-size="14.00"> v25 = function_427559(v1)</text>
<text text-anchor="start" x="135.5" y="-992.3" font-family="Times,serif" font-size="14.00"> g9 = v25</text>
<text text-anchor="start" x="135.5" y="-977.3" font-family="Times,serif" font-size="14.00"> v50 = v25</text>
</g>
<!-- Node0xfe60ef0&#45;&gt;Node0xfe61750 -->
<g id="edge17" class="edge"><title>Node0xfe60ef0&#45;&gt;Node0xfe61750</title>
<path fill="none" stroke="black" d="M277.02,-1119.49C272.391,-1108.2 266.021,-1092.68 259.68,-1077.22"/>
<polygon fill="black" stroke="black" points="262.786,-1075.57 255.752,-1067.65 256.31,-1078.23 262.786,-1075.57"/>
<text text-anchor="middle" x="309" y="-1089.8" font-family="Times,serif" font-size="14.00">v24 != v53</text>
</g>
<!-- Node0xc8ab190 -->
<g id="node17" class="node"><title>Node0xc8ab190</title>
<polygon fill="none" stroke="black" points="38.5,-578.5 38.5,-931.5 483.5,-931.5 483.5,-578.5 38.5,-578.5"/>
<text text-anchor="start" x="46.5" y="-916.3" font-family="Times,serif" font-size="14.00">0x427868:</text>
<text text-anchor="start" x="46.5" y="-901.3" font-family="Times,serif" font-size="14.00"> v62 = g4</text>
<text text-anchor="start" x="46.5" y="-886.3" font-family="Times,serif" font-size="14.00"> v71 = *(IntToPtrCastExpr&lt;ptr&gt;((v62 + 64)))</text>
<text text-anchor="start" x="46.5" y="-871.3" font-family="Times,serif" font-size="14.00"> v31 = IntToPtrCastExpr&lt;ptr&gt;(v71)</text>
<text text-anchor="start" x="46.5" y="-856.3" font-family="Times,serif" font-size="14.00"> g5 = v50</text>
<text text-anchor="start" x="46.5" y="-841.3" font-family="Times,serif" font-size="14.00"> v33 = IntToPtrCastExpr&lt;ptr&gt;(1)</text>
<text text-anchor="start" x="46.5" y="-826.3" font-family="Times,serif" font-size="14.00"> v63 = g3</text>
<text text-anchor="start" x="46.5" y="-811.3" font-family="Times,serif" font-size="14.00"> *(IntToPtrCastExpr&lt;ptr&gt;((v63 + &#45;20))) = v50</text>
<text text-anchor="start" x="46.5" y="-796.3" font-family="Times,serif" font-size="14.00"> v3 = v33</text>
<text text-anchor="start" x="46.5" y="-781.3" font-family="Times,serif" font-size="14.00"> v5 = v31</text>
<text text-anchor="start" x="46.5" y="-766.3" font-family="Times,serif" font-size="14.00"> v7 = v29</text>
<text text-anchor="start" x="46.5" y="-751.3" font-family="Times,serif" font-size="14.00"> function_427570(v3, v5, v7, v13)</text>
<text text-anchor="start" x="46.5" y="-736.3" font-family="Times,serif" font-size="14.00"> v35 = IntToPtrCastExpr&lt;ptr&gt;(1)</text>
<text text-anchor="start" x="46.5" y="-721.3" font-family="Times,serif" font-size="14.00"> v51 = g7</text>
<text text-anchor="start" x="46.5" y="-706.3" font-family="Times,serif" font-size="14.00"> g5 = v51</text>
<text text-anchor="start" x="46.5" y="-691.3" font-family="Times,serif" font-size="14.00"> v6 = v33</text>
<text text-anchor="start" x="46.5" y="-676.3" font-family="Times,serif" font-size="14.00"> v8 = v31</text>
<text text-anchor="start" x="46.5" y="-661.3" font-family="Times,serif" font-size="14.00"> v27 = function_41b577(IntToPtrCastExpr&lt;ptr&gt;(1), v6, v8)</text>
<text text-anchor="start" x="46.5" y="-646.3" font-family="Times,serif" font-size="14.00"> v54 = g9</text>
<text text-anchor="start" x="46.5" y="-631.3" font-family="Times,serif" font-size="14.00"> *(IntToPtrCastExpr&lt;ptr&gt;(v27)) = v54</text>
<text text-anchor="start" x="46.5" y="-616.3" font-family="Times,serif" font-size="14.00"> v65 = g3</text>
<text text-anchor="start" x="46.5" y="-601.3" font-family="Times,serif" font-size="14.00"> v64 = v65</text>
<text text-anchor="start" x="46.5" y="-586.3" font-family="Times,serif" font-size="14.00"> v45 = &amp;(g9)</text>
</g>
<!-- Node0xfe60ef0&#45;&gt;Node0xc8ab190 -->
<g id="edge18" class="edge"><title>Node0xfe60ef0&#45;&gt;Node0xc8ab190</title>
<path fill="none" stroke="black" d="M333.954,-1119.41C341.54,-1114.63 348.369,-1108.59 353,-1101 383.555,-1050.92 364.877,-1026.45 353,-969 351.109,-959.851 348.805,-950.611 346.179,-941.373"/>
<polygon fill="black" stroke="black" points="349.524,-940.344 343.329,-931.749 342.812,-942.331 349.524,-940.344"/>
<text text-anchor="middle" x="413" y="-1014.8" font-family="Times,serif" font-size="14.00">v24 == v53</text>
</g>
<!-- Node0xfe5cc80 -->
<g id="node18" class="node"><title>Node0xfe5cc80</title>
<polygon fill="none" stroke="black" points="381,-353.5 381,-389.5 505,-389.5 505,-353.5 381,-353.5"/>
<text text-anchor="start" x="389" y="-367.8" font-family="Times,serif" font-size="14.00">if (result != 0):</text>
</g>
<!-- Node0xfe5cb90&#45;&gt;Node0xfe5cc80 -->
<g id="edge19" class="edge"><title>Node0xfe5cb90&#45;&gt;Node0xfe5cc80</title>
<path fill="none" stroke="black" d="M443,-427.426C443,-417.86 443,-408.307 443,-399.913"/>
<polygon fill="black" stroke="black" points="446.5,-399.644 443,-389.644 439.5,-399.644 446.5,-399.644"/>
</g>
<!-- Node0xfe61750&#45;&gt;Node0xc8ab190 -->
<g id="edge20" class="edge"><title>Node0xfe61750&#45;&gt;Node0xc8ab190</title>
<path fill="none" stroke="black" d="M240.615,-969.232C241.429,-960.71 242.32,-951.397 243.258,-941.581"/>
<polygon fill="black" stroke="black" points="246.744,-941.895 244.212,-931.607 239.776,-941.229 246.744,-941.895"/>
</g>
<!-- Node0xc8ab190&#45;&gt;Node0xfe5cb90 -->
<g id="edge21" class="edge"><title>Node0xc8ab190&#45;&gt;Node0xfe5cb90</title>
<path fill="none" stroke="black" d="M379.856,-578.328C386.776,-568.101 393.458,-558.225 399.719,-548.97"/>
<polygon fill="black" stroke="black" points="402.642,-550.897 405.346,-540.653 396.844,-546.974 402.642,-550.897"/>
</g>
<!-- Node0xfe609a0 -->
<g id="node19" class="node"><title>Node0xfe609a0</title>
<polygon fill="none" stroke="black" points="143,-248.5 143,-301.5 455,-301.5 455,-248.5 143,-248.5"/>
<text text-anchor="start" x="151" y="-286.3" font-family="Times,serif" font-size="14.00">0x42788e:</text>
<text text-anchor="start" x="151" y="-271.3" font-family="Times,serif" font-size="14.00"> v55 = v20</text>
<text text-anchor="start" x="151" y="-256.3" font-family="Times,serif" font-size="14.00"> *(IntToPtrCastExpr&lt;ptr&gt;(result)) = v55</text>
</g>
<!-- Node0xfe5cc80&#45;&gt;Node0xfe609a0 -->
<g id="edge22" class="edge"><title>Node0xfe5cc80&#45;&gt;Node0xfe609a0</title>
<path fill="none" stroke="black" d="M416.923,-353.387C397.289,-340.502 369.835,-322.486 346.357,-307.078"/>
<polygon fill="black" stroke="black" points="348.19,-304.095 337.909,-301.534 344.349,-309.947 348.19,-304.095"/>
<text text-anchor="middle" x="427.5" y="-323.8" font-family="Times,serif" font-size="14.00">result != 0</text>
</g>
<!-- Node0xc8b38f0 -->
<g id="node20" class="node"><title>Node0xc8b38f0</title>
<polygon fill="none" stroke="black" points="248,-97.5 248,-210.5 626,-210.5 626,-97.5 248,-97.5"/>
<text text-anchor="start" x="256" y="-195.3" font-family="Times,serif" font-size="14.00">0x427890:</text>
<text text-anchor="start" x="256" y="-180.3" font-family="Times,serif" font-size="14.00"> v69 = g10</text>
<text text-anchor="start" x="256" y="-165.3" font-family="Times,serif" font-size="14.00"> *(IntToPtrCastExpr&lt;ptr&gt;((v69 + &#45;4))) = 4356245</text>
<text text-anchor="start" x="256" y="-150.3" font-family="Times,serif" font-size="14.00"> __EH_epilog3()</text>
<text text-anchor="start" x="256" y="-135.3" font-family="Times,serif" font-size="14.00"> v67 = g10</text>
<text text-anchor="start" x="256" y="-120.3" font-family="Times,serif" font-size="14.00"> g10 = (v67 + 8)</text>
<text text-anchor="start" x="256" y="-105.3" font-family="Times,serif" font-size="14.00"> return result</text>
</g>
<!-- Node0xfe5cc80&#45;&gt;Node0xc8b38f0 -->
<g id="edge23" class="edge"><title>Node0xfe5cc80&#45;&gt;Node0xc8b38f0</title>
<path fill="none" stroke="black" d="M460.131,-353.497C464.537,-348.044 468.685,-341.674 471,-335 473.185,-328.702 471.323,-326.659 471,-320 469.443,-287.887 470.064,-279.574 464,-248 462.277,-239.027 460.069,-229.673 457.659,-220.504"/>
<polygon fill="black" stroke="black" points="460.981,-219.384 454.978,-210.654 454.227,-221.222 460.981,-219.384"/>
<text text-anchor="middle" x="512.5" y="-271.3" font-family="Times,serif" font-size="14.00">result == 0</text>
</g>
<!-- Node0xfe609a0&#45;&gt;Node0xc8b38f0 -->
<g id="edge24" class="edge"><title>Node0xfe609a0&#45;&gt;Node0xc8b38f0</title>
<path fill="none" stroke="black" d="M328.604,-248.472C339.396,-239.166 352.12,-228.193 364.985,-217.1"/>
<polygon fill="black" stroke="black" points="367.274,-219.747 372.562,-210.566 362.703,-214.446 367.274,-219.747"/>
</g>
<!-- Node0xfe5e410 -->
<g id="node21" class="node"><title>Node0xfe5e410</title>
<polygon fill="none" stroke="black" points="410,-23.5 410,-59.5 464,-59.5 464,-23.5 410,-23.5"/>
<text text-anchor="start" x="418" y="-37.8" font-family="Times,serif" font-size="14.00">exit:</text>
</g>
<!-- Node0xc8b38f0&#45;&gt;Node0xfe5e410 -->
<g id="edge25" class="edge"><title>Node0xc8b38f0&#45;&gt;Node0xfe5e410</title>
<path fill="none" stroke="black" d="M437,-97.4263C437,-87.8599 437,-78.3065 437,-69.9133"/>
<polygon fill="black" stroke="black" points="440.5,-69.6444 437,-59.6444 433.5,-69.6444 440.5,-69.6444"/>
</g>
</g>
</svg>
