<?xml version="1.0" encoding="UTF-8" standalone="no"?>
<!DOCTYPE svg PUBLIC "-//W3C//DTD SVG 1.1//EN"
 "http://www.w3.org/Graphics/SVG/1.1/DTD/svg11.dtd">
<!-- Generated by graphviz version 2.38.0 (20140413.2041)
 -->
<!-- Title: Control&#45;flow graph for function &#39;function_42ef90(*a1)&#39;. Pages: 1 -->
<svg width="534pt" height="1234pt"
 viewBox="0.00 0.00 533.50 1234.00" xmlns="http://www.w3.org/2000/svg" xmlns:xlink="http://www.w3.org/1999/xlink">
<g id="graph0" class="graph" transform="scale(1 1) rotate(0) translate(4 1230)">
<title>Control&#45;flow graph for function &#39;function_42ef90(*a1)&#39;.</title>
<polygon fill="white" stroke="none" points="-4,4 -4,-1230 529.5,-1230 529.5,4 -4,4"/>
<text text-anchor="middle" x="262.75" y="-7.8" font-family="Times,serif" font-size="14.00">Control&#45;flow graph for function &#39;function_42ef90(*a1)&#39;.</text>
<!-- Node0x100dd960 -->
<g id="node1" class="node"><title>Node0x100dd960</title>
<polygon fill="none" stroke="black" points="120,-1187.5 120,-1225.5 179,-1225.5 179,-1187.5 120,-1187.5"/>
<text text-anchor="start" x="128" y="-1210.3" font-family="Times,serif" font-size="14.00">entry:</text>
<text text-anchor="start" x="128" y="-1195.3" font-family="Times,serif" font-size="14.00"> a1</text>
</g>
<!-- Node0x100ddfc0 -->
<g id="node2" class="node"><title>Node0x100ddfc0</title>
<polygon fill="none" stroke="black" points="0,-796.5 0,-1149.5 299,-1149.5 299,-796.5 0,-796.5"/>
<text text-anchor="start" x="8" y="-1134.3" font-family="Times,serif" font-size="14.00">v1</text>
<text text-anchor="start" x="8" y="-1119.3" font-family="Times,serif" font-size="14.00"> v2</text>
<text text-anchor="start" x="8" y="-1104.3" font-family="Times,serif" font-size="14.00"> v3</text>
<text text-anchor="start" x="8" y="-1089.3" font-family="Times,serif" font-size="14.00"> v4</text>
<text text-anchor="start" x="8" y="-1074.3" font-family="Times,serif" font-size="14.00"> v5</text>
<text text-anchor="start" x="8" y="-1059.3" font-family="Times,serif" font-size="14.00"> v6</text>
<text text-anchor="start" x="8" y="-1044.3" font-family="Times,serif" font-size="14.00"> v7</text>
<text text-anchor="start" x="8" y="-1029.3" font-family="Times,serif" font-size="14.00"> v8</text>
<text text-anchor="start" x="8" y="-1014.3" font-family="Times,serif" font-size="14.00"> result</text>
<text text-anchor="start" x="8" y="-999.3" font-family="Times,serif" font-size="14.00"> v9</text>
<text text-anchor="start" x="8" y="-984.3" font-family="Times,serif" font-size="14.00"> v10</text>
<text text-anchor="start" x="8" y="-969.3" font-family="Times,serif" font-size="14.00"> v11</text>
<text text-anchor="start" x="8" y="-954.3" font-family="Times,serif" font-size="14.00"> v12</text>
<text text-anchor="start" x="8" y="-939.3" font-family="Times,serif" font-size="14.00"> v13</text>
<text text-anchor="start" x="8" y="-924.3" font-family="Times,serif" font-size="14.00"> v14</text>
<text text-anchor="start" x="8" y="-909.3" font-family="Times,serif" font-size="14.00"> v15</text>
<text text-anchor="start" x="8" y="-894.3" font-family="Times,serif" font-size="14.00"> v16</text>
<text text-anchor="start" x="8" y="-879.3" font-family="Times,serif" font-size="14.00"> v3 = v4</text>
<text text-anchor="start" x="8" y="-864.3" font-family="Times,serif" font-size="14.00"> v7 = v8</text>
<text text-anchor="start" x="8" y="-849.3" font-family="Times,serif" font-size="14.00"> v7 = a1</text>
<text text-anchor="start" x="8" y="-834.3" font-family="Times,serif" font-size="14.00"> v1 = PtrToIntCastExpr&lt;int32&gt;(&amp;(v3))</text>
<text text-anchor="start" x="8" y="-819.3" font-family="Times,serif" font-size="14.00"> g10 = v1</text>
<text text-anchor="start" x="8" y="-804.3" font-family="Times,serif" font-size="14.00"> g3 = v1</text>
</g>
<!-- Node0x100dd960&#45;&gt;Node0x100ddfc0 -->
<g id="edge1" class="edge"><title>Node0x100dd960&#45;&gt;Node0x100ddfc0</title>
<path fill="none" stroke="black" d="M149.5,-1187.33C149.5,-1179.91 149.5,-1170.55 149.5,-1159.93"/>
<polygon fill="black" stroke="black" points="153,-1159.84 149.5,-1149.84 146,-1159.84 153,-1159.84"/>
</g>
<!-- Node0x100de9a0 -->
<g id="node3" class="node"><title>Node0x100de9a0</title>
<polygon fill="none" stroke="black" points="79.5,-722.5 79.5,-758.5 219.5,-758.5 219.5,-722.5 79.5,-722.5"/>
<text text-anchor="start" x="87.5" y="-736.8" font-family="Times,serif" font-size="14.00">if (a1 == NULL):</text>
</g>
<!-- Node0x100ddfc0&#45;&gt;Node0x100de9a0 -->
<g id="edge2" class="edge"><title>Node0x100ddfc0&#45;&gt;Node0x100de9a0</title>
<path fill="none" stroke="black" d="M149.5,-796.418C149.5,-786.318 149.5,-777.08 149.5,-769.179"/>
<polygon fill="black" stroke="black" points="153,-768.949 149.5,-758.949 146,-768.949 153,-768.949"/>
</g>
<!-- Node0xd5462c0 -->
<g id="node4" class="node"><title>Node0xd5462c0</title>
<polygon fill="none" stroke="black" points="10.5,-485.5 10.5,-553.5 144.5,-553.5 144.5,-485.5 10.5,-485.5"/>
<text text-anchor="start" x="18.5" y="-538.3" font-family="Times,serif" font-size="14.00">v11 = v4</text>
<text text-anchor="start" x="18.5" y="-523.3" font-family="Times,serif" font-size="14.00"> result = &#45;20736</text>
<text text-anchor="start" x="18.5" y="-508.3" font-family="Times,serif" font-size="14.00"> g3 = v11</text>
<text text-anchor="start" x="18.5" y="-493.3" font-family="Times,serif" font-size="14.00"> return result</text>
</g>
<!-- Node0x100de9a0&#45;&gt;Node0xd5462c0 -->
<g id="edge3" class="edge"><title>Node0x100de9a0&#45;&gt;Node0xd5462c0</title>
<path fill="none" stroke="black" d="M103.599,-722.421C96.0468,-717.598 89.1715,-711.543 84.5,-704 58.4028,-661.863 61.4212,-603.229 67.8166,-563.676"/>
<polygon fill="black" stroke="black" points="71.2679,-564.258 69.5466,-553.804 64.3729,-563.05 71.2679,-564.258"/>
<text text-anchor="middle" x="131.5" y="-692.8" font-family="Times,serif" font-size="14.00">a1 == NULL</text>
</g>
<!-- Node0x100decd0 -->
<g id="node5" class="node"><title>Node0x100decd0</title>
<polygon fill="none" stroke="black" points="106,-572.5 106,-670.5 391,-670.5 391,-572.5 106,-572.5"/>
<text text-anchor="start" x="114" y="-655.3" font-family="Times,serif" font-size="14.00">0x42ef99:</text>
<text text-anchor="start" x="114" y="-640.3" font-family="Times,serif" font-size="14.00"> v14 = PtrToIntCastExpr&lt;int32&gt;(a1)</text>
<text text-anchor="start" x="114" y="-625.3" font-family="Times,serif" font-size="14.00"> g2 = v14</text>
<text text-anchor="start" x="114" y="-610.3" font-family="Times,serif" font-size="14.00"> v13 = *(&amp;(a1[&#39;0&#39;]))</text>
<text text-anchor="start" x="114" y="-595.3" font-family="Times,serif" font-size="14.00"> g1 = False</text>
<text text-anchor="start" x="114" y="-580.3" font-family="Times,serif" font-size="14.00"> g207 = (v13 == 0)</text>
</g>
<!-- Node0x100de9a0&#45;&gt;Node0x100decd0 -->
<g id="edge4" class="edge"><title>Node0x100de9a0&#45;&gt;Node0x100decd0</title>
<path fill="none" stroke="black" d="M163.895,-722.487C173.804,-710.777 187.579,-694.498 201.139,-678.472"/>
<polygon fill="black" stroke="black" points="203.974,-680.54 207.761,-670.646 198.63,-676.019 203.974,-680.54"/>
<text text-anchor="middle" x="234.5" y="-692.8" font-family="Times,serif" font-size="14.00">a1 != NULL</text>
</g>
<!-- Node0x100ddf40 -->
<g id="node6" class="node"><title>Node0x100ddf40</title>
<polygon fill="none" stroke="black" points="96.5,-23.5 96.5,-59.5 150.5,-59.5 150.5,-23.5 96.5,-23.5"/>
<text text-anchor="start" x="104.5" y="-37.8" font-family="Times,serif" font-size="14.00">exit:</text>
</g>
<!-- Node0xd5462c0&#45;&gt;Node0x100ddf40 -->
<g id="edge5" class="edge"><title>Node0xd5462c0&#45;&gt;Node0x100ddf40</title>
<path fill="none" stroke="black" d="M77.5,-485.286C77.5,-462.317 77.5,-431.052 77.5,-403.5 77.5,-403.5 77.5,-403.5 77.5,-123 77.5,-102.682 88.6835,-82.8292 100.022,-67.9227"/>
<polygon fill="black" stroke="black" points="103.064,-69.7272 106.632,-59.7514 97.6219,-65.3246 103.064,-69.7272"/>
</g>
<!-- Node0x100dee70 -->
<g id="node7" class="node"><title>Node0x100dee70</title>
<polygon fill="none" stroke="black" points="194.5,-428.5 194.5,-466.5 302.5,-466.5 302.5,-428.5 194.5,-428.5"/>
<text text-anchor="start" x="202.5" y="-451.3" font-family="Times,serif" font-size="14.00">if (v13 != 0):</text>
<text text-anchor="start" x="202.5" y="-436.3" font-family="Times,serif" font-size="14.00"> else:</text>
</g>
<!-- Node0x100decd0&#45;&gt;Node0x100dee70 -->
<g id="edge6" class="edge"><title>Node0x100decd0&#45;&gt;Node0x100dee70</title>
<path fill="none" stroke="black" d="M248.5,-572.131C248.5,-541.353 248.5,-502.566 248.5,-476.726"/>
<polygon fill="black" stroke="black" points="252,-476.505 248.5,-466.505 245,-476.505 252,-476.505"/>
</g>
<!-- Node0x100df150 -->
<g id="node8" class="node"><title>Node0x100df150</title>
<polygon fill="none" stroke="black" points="105.5,-188.5 105.5,-376.5 373.5,-376.5 373.5,-188.5 105.5,-188.5"/>
<text text-anchor="start" x="113.5" y="-361.3" font-family="Times,serif" font-size="14.00">0x42efa8:</text>
<text text-anchor="start" x="113.5" y="-346.3" font-family="Times,serif" font-size="14.00"> v15 = *(&amp;(a1[&#39;1&#39;]))</text>
<text text-anchor="start" x="113.5" y="-331.3" font-family="Times,serif" font-size="14.00"> g2 = v14</text>
<text text-anchor="start" x="113.5" y="-316.3" font-family="Times,serif" font-size="14.00"> v10 = *(&amp;(a1[&#39;0&#39;]))</text>
<text text-anchor="start" x="113.5" y="-301.3" font-family="Times,serif" font-size="14.00"> g5 = v10</text>
<text text-anchor="start" x="113.5" y="-286.3" font-family="Times,serif" font-size="14.00"> v16 = *(&amp;(a1[&#39;3&#39;]))</text>
<text text-anchor="start" x="113.5" y="-271.3" font-family="Times,serif" font-size="14.00"> g8 = v16</text>
<text text-anchor="start" x="113.5" y="-256.3" font-family="Times,serif" font-size="14.00"> IntToPtrCastExpr&lt;ptr&gt;(v16)(v15)</text>
<text text-anchor="start" x="113.5" y="-241.3" font-family="Times,serif" font-size="14.00"> g10 = v1</text>
<text text-anchor="start" x="113.5" y="-226.3" font-family="Times,serif" font-size="14.00"> v12 = v3</text>
<text text-anchor="start" x="113.5" y="-211.3" font-family="Times,serif" font-size="14.00"> v11 = v12</text>
<text text-anchor="start" x="113.5" y="-196.3" font-family="Times,serif" font-size="14.00"> result = 0</text>
</g>
<!-- Node0x100dee70&#45;&gt;Node0x100df150 -->
<g id="edge7" class="edge"><title>Node0x100dee70&#45;&gt;Node0x100df150</title>
<path fill="none" stroke="black" d="M247.502,-428.433C246.904,-417.588 246.088,-402.82 245.206,-386.844"/>
<polygon fill="black" stroke="black" points="248.696,-386.556 244.65,-376.764 241.706,-386.942 248.696,-386.556"/>
<text text-anchor="middle" x="277" y="-398.8" font-family="Times,serif" font-size="14.00">v13 != 0</text>
</g>
<!-- Node0x100df2e0 -->
<g id="node9" class="node"><title>Node0x100df2e0</title>
<polygon fill="none" stroke="black" points="391.5,-263.5 391.5,-301.5 525.5,-301.5 525.5,-263.5 391.5,-263.5"/>
<text text-anchor="start" x="399.5" y="-286.3" font-family="Times,serif" font-size="14.00">v11 = v4</text>
<text text-anchor="start" x="399.5" y="-271.3" font-family="Times,serif" font-size="14.00"> result = &#45;20736</text>
</g>
<!-- Node0x100dee70&#45;&gt;Node0x100df2e0 -->
<g id="edge8" class="edge"><title>Node0x100dee70&#45;&gt;Node0x100df2e0</title>
<path fill="none" stroke="black" d="M294.104,-428.476C321.413,-416.368 355.878,-398.677 382.5,-377 406.098,-357.786 427.418,-330.216 441.429,-309.992"/>
<polygon fill="black" stroke="black" points="444.439,-311.788 447.152,-301.547 438.645,-307.861 444.439,-311.788"/>
<text text-anchor="middle" x="390" y="-398.8" font-family="Times,serif" font-size="14.00">v13 == 0</text>
</g>
<!-- Node0x100df0f0 -->
<g id="node10" class="node"><title>Node0x100df0f0</title>
<polygon fill="none" stroke="black" points="183,-97.5 183,-150.5 296,-150.5 296,-97.5 183,-97.5"/>
<text text-anchor="start" x="191" y="-135.3" font-family="Times,serif" font-size="14.00">0x42efbe:</text>
<text text-anchor="start" x="191" y="-120.3" font-family="Times,serif" font-size="14.00"> g3 = v11</text>
<text text-anchor="start" x="191" y="-105.3" font-family="Times,serif" font-size="14.00"> return result</text>
</g>
<!-- Node0x100df150&#45;&gt;Node0x100df0f0 -->
<g id="edge9" class="edge"><title>Node0x100df150&#45;&gt;Node0x100df0f0</title>
<path fill="none" stroke="black" d="M239.5,-188.203C239.5,-178.538 239.5,-169.191 239.5,-160.782"/>
<polygon fill="black" stroke="black" points="243,-160.68 239.5,-150.68 236,-160.68 243,-160.68"/>
</g>
<!-- Node0x100df2e0&#45;&gt;Node0x100df0f0 -->
<g id="edge10" class="edge"><title>Node0x100df2e0&#45;&gt;Node0x100df0f0</title>
<path fill="none" stroke="black" d="M447.401,-263.137C434.155,-242.521 410.276,-209.187 382.5,-188 359.644,-170.566 331.209,-156.771 305.729,-146.589"/>
<polygon fill="black" stroke="black" points="306.715,-143.217 296.127,-142.863 304.184,-149.743 306.715,-143.217"/>
</g>
<!-- Node0x100df0f0&#45;&gt;Node0x100ddf40 -->
<g id="edge11" class="edge"><title>Node0x100df0f0&#45;&gt;Node0x100ddf40</title>
<path fill="none" stroke="black" d="M202.478,-97.308C187.762,-87.0959 170.965,-75.4388 156.655,-65.5083"/>
<polygon fill="black" stroke="black" points="158.318,-62.4025 148.107,-59.5766 154.327,-68.1534 158.318,-62.4025"/>
</g>
</g>
</svg>
