<?xml version="1.0" encoding="UTF-8" standalone="no"?>
<!DOCTYPE svg PUBLIC "-//W3C//DTD SVG 1.1//EN"
 "http://www.w3.org/Graphics/SVG/1.1/DTD/svg11.dtd">
<!-- Generated by graphviz version 2.38.0 (20140413.2041)
 -->
<!-- Title: Control&#45;flow graph for function &#39;function_424f2c(*a1, *a2, a3)&#39;. Pages: 1 -->
<svg width="1084pt" height="2458pt"
 viewBox="0.00 0.00 1084.00 2458.00" xmlns="http://www.w3.org/2000/svg" xmlns:xlink="http://www.w3.org/1999/xlink">
<g id="graph0" class="graph" transform="scale(1 1) rotate(0) translate(4 2454)">
<title>Control&#45;flow graph for function &#39;function_424f2c(*a1, *a2, a3)&#39;.</title>
<polygon fill="white" stroke="none" points="-4,4 -4,-2454 1080,-2454 1080,4 -4,4"/>
<text text-anchor="middle" x="538" y="-7.8" font-family="Times,serif" font-size="14.00">Control&#45;flow graph for function &#39;function_424f2c(*a1, *a2, a3)&#39;.</text>
<!-- Node0xc0114f0 -->
<g id="node1" class="node"><title>Node0xc0114f0</title>
<polygon fill="none" stroke="black" points="634.5,-2381.5 634.5,-2449.5 693.5,-2449.5 693.5,-2381.5 634.5,-2381.5"/>
<text text-anchor="start" x="642.5" y="-2434.3" font-family="Times,serif" font-size="14.00">entry:</text>
<text text-anchor="start" x="642.5" y="-2419.3" font-family="Times,serif" font-size="14.00"> a1</text>
<text text-anchor="start" x="642.5" y="-2404.3" font-family="Times,serif" font-size="14.00"> a2</text>
<text text-anchor="start" x="642.5" y="-2389.3" font-family="Times,serif" font-size="14.00"> a3</text>
</g>
<!-- Node0xfb8b8c0 -->
<g id="node2" class="node"><title>Node0xfb8b8c0</title>
<polygon fill="none" stroke="black" points="529.5,-1750.5 529.5,-2343.5 798.5,-2343.5 798.5,-1750.5 529.5,-1750.5"/>
<text text-anchor="start" x="537.5" y="-2328.3" font-family="Times,serif" font-size="14.00">v1</text>
<text text-anchor="start" x="537.5" y="-2313.3" font-family="Times,serif" font-size="14.00"> v2</text>
<text text-anchor="start" x="537.5" y="-2298.3" font-family="Times,serif" font-size="14.00"> v3</text>
<text text-anchor="start" x="537.5" y="-2283.3" font-family="Times,serif" font-size="14.00"> v4</text>
<text text-anchor="start" x="537.5" y="-2268.3" font-family="Times,serif" font-size="14.00"> v5</text>
<text text-anchor="start" x="537.5" y="-2253.3" font-family="Times,serif" font-size="14.00"> v6</text>
<text text-anchor="start" x="537.5" y="-2238.3" font-family="Times,serif" font-size="14.00"> v7</text>
<text text-anchor="start" x="537.5" y="-2223.3" font-family="Times,serif" font-size="14.00"> v8</text>
<text text-anchor="start" x="537.5" y="-2208.3" font-family="Times,serif" font-size="14.00"> v9</text>
<text text-anchor="start" x="537.5" y="-2193.3" font-family="Times,serif" font-size="14.00"> v10</text>
<text text-anchor="start" x="537.5" y="-2178.3" font-family="Times,serif" font-size="14.00"> v11</text>
<text text-anchor="start" x="537.5" y="-2163.3" font-family="Times,serif" font-size="14.00"> v12</text>
<text text-anchor="start" x="537.5" y="-2148.3" font-family="Times,serif" font-size="14.00"> v13</text>
<text text-anchor="start" x="537.5" y="-2133.3" font-family="Times,serif" font-size="14.00"> v14</text>
<text text-anchor="start" x="537.5" y="-2118.3" font-family="Times,serif" font-size="14.00"> v15</text>
<text text-anchor="start" x="537.5" y="-2103.3" font-family="Times,serif" font-size="14.00"> v16</text>
<text text-anchor="start" x="537.5" y="-2088.3" font-family="Times,serif" font-size="14.00"> v17</text>
<text text-anchor="start" x="537.5" y="-2073.3" font-family="Times,serif" font-size="14.00"> v18</text>
<text text-anchor="start" x="537.5" y="-2058.3" font-family="Times,serif" font-size="14.00"> v19</text>
<text text-anchor="start" x="537.5" y="-2043.3" font-family="Times,serif" font-size="14.00"> v20</text>
<text text-anchor="start" x="537.5" y="-2028.3" font-family="Times,serif" font-size="14.00"> v21</text>
<text text-anchor="start" x="537.5" y="-2013.3" font-family="Times,serif" font-size="14.00"> v22</text>
<text text-anchor="start" x="537.5" y="-1998.3" font-family="Times,serif" font-size="14.00"> v23</text>
<text text-anchor="start" x="537.5" y="-1983.3" font-family="Times,serif" font-size="14.00"> v24</text>
<text text-anchor="start" x="537.5" y="-1968.3" font-family="Times,serif" font-size="14.00"> v25</text>
<text text-anchor="start" x="537.5" y="-1953.3" font-family="Times,serif" font-size="14.00"> v26</text>
<text text-anchor="start" x="537.5" y="-1938.3" font-family="Times,serif" font-size="14.00"> v27</text>
<text text-anchor="start" x="537.5" y="-1923.3" font-family="Times,serif" font-size="14.00"> v28</text>
<text text-anchor="start" x="537.5" y="-1908.3" font-family="Times,serif" font-size="14.00"> v29</text>
<text text-anchor="start" x="537.5" y="-1893.3" font-family="Times,serif" font-size="14.00"> result</text>
<text text-anchor="start" x="537.5" y="-1878.3" font-family="Times,serif" font-size="14.00"> v30</text>
<text text-anchor="start" x="537.5" y="-1863.3" font-family="Times,serif" font-size="14.00"> v31</text>
<text text-anchor="start" x="537.5" y="-1848.3" font-family="Times,serif" font-size="14.00"> v4 = v5</text>
<text text-anchor="start" x="537.5" y="-1833.3" font-family="Times,serif" font-size="14.00"> v8 = v9</text>
<text text-anchor="start" x="537.5" y="-1818.3" font-family="Times,serif" font-size="14.00"> v14 = g7</text>
<text text-anchor="start" x="537.5" y="-1803.3" font-family="Times,serif" font-size="14.00"> v1 = IntToPtrCastExpr&lt;ptr&gt;(v14)</text>
<text text-anchor="start" x="537.5" y="-1788.3" font-family="Times,serif" font-size="14.00"> v8 = v1</text>
<text text-anchor="start" x="537.5" y="-1773.3" font-family="Times,serif" font-size="14.00"> v15 = g5</text>
<text text-anchor="start" x="537.5" y="-1758.3" font-family="Times,serif" font-size="14.00"> g9 = v15</text>
</g>
<!-- Node0xc0114f0&#45;&gt;Node0xfb8b8c0 -->
<g id="edge1" class="edge"><title>Node0xc0114f0&#45;&gt;Node0xfb8b8c0</title>
<path fill="none" stroke="black" d="M664,-2381.33C664,-2373.25 664,-2363.95 664,-2353.7"/>
<polygon fill="black" stroke="black" points="667.5,-2353.6 664,-2343.6 660.5,-2353.6 667.5,-2353.6"/>
</g>
<!-- Node0xfb79d10 -->
<g id="node3" class="node"><title>Node0xfb79d10</title>
<polygon fill="none" stroke="black" points="594,-1674.5 594,-1712.5 734,-1712.5 734,-1674.5 594,-1674.5"/>
<text text-anchor="start" x="602" y="-1697.3" font-family="Times,serif" font-size="14.00">if (a2 == NULL):</text>
<text text-anchor="start" x="602" y="-1682.3" font-family="Times,serif" font-size="14.00"> else:</text>
</g>
<!-- Node0xfb8b8c0&#45;&gt;Node0xfb79d10 -->
<g id="edge2" class="edge"><title>Node0xfb8b8c0&#45;&gt;Node0xfb79d10</title>
<path fill="none" stroke="black" d="M664,-1750.2C664,-1739.91 664,-1730.68 664,-1722.83"/>
<polygon fill="black" stroke="black" points="667.5,-1722.68 664,-1712.68 660.5,-1722.68 667.5,-1722.68"/>
</g>
<!-- Node0xfc38090 -->
<g id="node4" class="node"><title>Node0xfc38090</title>
<polygon fill="none" stroke="black" points="399.5,-1532 399.5,-1615 684.5,-1615 684.5,-1532 399.5,-1532"/>
<text text-anchor="start" x="407.5" y="-1599.8" font-family="Times,serif" font-size="14.00">0x424f37:</text>
<text text-anchor="start" x="407.5" y="-1584.8" font-family="Times,serif" font-size="14.00"> v28 = PtrToIntCastExpr&lt;int32&gt;(a1)</text>
<text text-anchor="start" x="407.5" y="-1569.8" font-family="Times,serif" font-size="14.00"> g7 = v28</text>
<text text-anchor="start" x="407.5" y="-1554.8" font-family="Times,serif" font-size="14.00"> v16 = v28</text>
<text text-anchor="start" x="407.5" y="-1539.8" font-family="Times,serif" font-size="14.00"> v18 = v15</text>
</g>
<!-- Node0xfb79d10&#45;&gt;Node0xfc38090 -->
<g id="edge3" class="edge"><title>Node0xfb79d10&#45;&gt;Node0xfc38090</title>
<path fill="none" stroke="black" d="M645.205,-1674.32C630.866,-1660.45 610.425,-1640.68 591.512,-1622.39"/>
<polygon fill="black" stroke="black" points="593.701,-1619.64 584.08,-1615.2 588.834,-1624.67 593.701,-1619.64"/>
<text text-anchor="middle" x="672" y="-1644.8" font-family="Times,serif" font-size="14.00">a2 == NULL</text>
</g>
<!-- Node0xfb83e90 -->
<g id="node5" class="node"><title>Node0xfb83e90</title>
<polygon fill="none" stroke="black" points="703,-1524.5 703,-1622.5 873,-1622.5 873,-1524.5 703,-1524.5"/>
<text text-anchor="start" x="711" y="-1607.3" font-family="Times,serif" font-size="14.00">0x424f40:</text>
<text text-anchor="start" x="711" y="-1592.3" font-family="Times,serif" font-size="14.00"> function_41787d(v1)</text>
<text text-anchor="start" x="711" y="-1577.3" font-family="Times,serif" font-size="14.00"> v23 = g9</text>
<text text-anchor="start" x="711" y="-1562.3" font-family="Times,serif" font-size="14.00"> v17 = g7</text>
<text text-anchor="start" x="711" y="-1547.3" font-family="Times,serif" font-size="14.00"> v16 = v17</text>
<text text-anchor="start" x="711" y="-1532.3" font-family="Times,serif" font-size="14.00"> v18 = v23</text>
</g>
<!-- Node0xfb79d10&#45;&gt;Node0xfb83e90 -->
<g id="edge4" class="edge"><title>Node0xfb79d10&#45;&gt;Node0xfb83e90</title>
<path fill="none" stroke="black" d="M697.556,-1674.5C706.265,-1669.1 715.342,-1662.8 723,-1656 731.586,-1648.38 739.906,-1639.54 747.567,-1630.54"/>
<polygon fill="black" stroke="black" points="750.441,-1632.56 754.119,-1622.62 745.048,-1628.09 750.441,-1632.56"/>
<text text-anchor="middle" x="782" y="-1644.8" font-family="Times,serif" font-size="14.00">a2 != NULL</text>
</g>
<!-- Node0xfbd58a0 -->
<g id="node6" class="node"><title>Node0xfbd58a0</title>
<polygon fill="none" stroke="black" points="519,-1403.5 519,-1486.5 865,-1486.5 865,-1403.5 519,-1403.5"/>
<text text-anchor="start" x="527" y="-1471.3" font-family="Times,serif" font-size="14.00">0x424f45:</text>
<text text-anchor="start" x="527" y="-1456.3" font-family="Times,serif" font-size="14.00"> v29 = *(IntToPtrCastExpr&lt;ptr&gt;((v18 + 24)))</text>
<text text-anchor="start" x="527" y="-1441.3" font-family="Times,serif" font-size="14.00"> g2 = v29</text>
<text text-anchor="start" x="527" y="-1426.3" font-family="Times,serif" font-size="14.00"> g1 = False</text>
<text text-anchor="start" x="527" y="-1411.3" font-family="Times,serif" font-size="14.00"> g207 = (a2 == NULL)</text>
</g>
<!-- Node0xfc38090&#45;&gt;Node0xfbd58a0 -->
<g id="edge5" class="edge"><title>Node0xfc38090&#45;&gt;Node0xfbd58a0</title>
<path fill="none" stroke="black" d="M590.287,-1531.78C604.873,-1519.48 621.01,-1505.87 636.052,-1493.18"/>
<polygon fill="black" stroke="black" points="638.416,-1495.77 643.804,-1486.65 633.903,-1490.42 638.416,-1495.77"/>
</g>
<!-- Node0xfb83e90&#45;&gt;Node0xfbd58a0 -->
<g id="edge6" class="edge"><title>Node0xfb83e90&#45;&gt;Node0xfbd58a0</title>
<path fill="none" stroke="black" d="M751.433,-1524.31C744.064,-1514.61 736.314,-1504.39 728.933,-1494.67"/>
<polygon fill="black" stroke="black" points="731.67,-1492.48 722.836,-1486.63 726.093,-1496.71 731.67,-1492.48"/>
</g>
<!-- Node0xfc8bbb0 -->
<g id="node7" class="node"><title>Node0xfc8bbb0</title>
<polygon fill="none" stroke="black" points="622,-1329.5 622,-1365.5 762,-1365.5 762,-1329.5 622,-1329.5"/>
<text text-anchor="start" x="630" y="-1343.8" font-family="Times,serif" font-size="14.00">if (a2 == NULL):</text>
</g>
<!-- Node0xfbd58a0&#45;&gt;Node0xfc8bbb0 -->
<g id="edge7" class="edge"><title>Node0xfbd58a0&#45;&gt;Node0xfc8bbb0</title>
<path fill="none" stroke="black" d="M692,-1403.5C692,-1394.21 692,-1384.54 692,-1375.95"/>
<polygon fill="black" stroke="black" points="695.5,-1375.75 692,-1365.75 688.5,-1375.75 695.5,-1375.75"/>
</g>
<!-- Node0xfc0e7e0 -->
<g id="node8" class="node"><title>Node0xfc0e7e0</title>
<polygon fill="none" stroke="black" points="506,-1149.5 506,-1202.5 680,-1202.5 680,-1149.5 506,-1149.5"/>
<text text-anchor="start" x="514" y="-1187.3" font-family="Times,serif" font-size="14.00">0x424f52:</text>
<text text-anchor="start" x="514" y="-1172.3" font-family="Times,serif" font-size="14.00"> g1 = (v16 &lt; v29)</text>
<text text-anchor="start" x="514" y="-1157.3" font-family="Times,serif" font-size="14.00"> g207 = (v16 == v29)</text>
</g>
<!-- Node0xfc8bbb0&#45;&gt;Node0xfc0e7e0 -->
<g id="edge8" class="edge"><title>Node0xfc8bbb0&#45;&gt;Node0xfc0e7e0</title>
<path fill="none" stroke="black" d="M681.963,-1329.31C665.875,-1301.77 634.006,-1247.21 613.104,-1211.42"/>
<polygon fill="black" stroke="black" points="616.108,-1209.62 608.042,-1202.75 610.064,-1213.15 616.108,-1209.62"/>
<text text-anchor="middle" x="718" y="-1299.8" font-family="Times,serif" font-size="14.00">a2 == NULL</text>
</g>
<!-- Node0xfb6ae80 -->
<g id="node9" class="node"><title>Node0xfb6ae80</title>
<polygon fill="none" stroke="black" points="698.5,-1074.5 698.5,-1277.5 1053.5,-1277.5 1053.5,-1074.5 698.5,-1074.5"/>
<text text-anchor="start" x="706.5" y="-1262.3" font-family="Times,serif" font-size="14.00">0x424f56:</text>
<text text-anchor="start" x="706.5" y="-1247.3" font-family="Times,serif" font-size="14.00"> v20 = *(IntToPtrCastExpr&lt;ptr&gt;(v18))</text>
<text text-anchor="start" x="706.5" y="-1232.3" font-family="Times,serif" font-size="14.00"> g2 = v20</text>
<text text-anchor="start" x="706.5" y="-1217.3" font-family="Times,serif" font-size="14.00"> v4 = IntToPtrCastExpr&lt;ptr&gt;(v16)</text>
<text text-anchor="start" x="706.5" y="-1202.3" font-family="Times,serif" font-size="14.00"> g10 = PtrToIntCastExpr&lt;int32&gt;(&amp;(v4))</text>
<text text-anchor="start" x="706.5" y="-1187.3" font-family="Times,serif" font-size="14.00"> g5 = v18</text>
<text text-anchor="start" x="706.5" y="-1172.3" font-family="Times,serif" font-size="14.00"> v31 = *(IntToPtrCastExpr&lt;ptr&gt;((v20 + 100)))</text>
<text text-anchor="start" x="706.5" y="-1157.3" font-family="Times,serif" font-size="14.00"> IntToPtrCastExpr&lt;ptr&gt;(v31)(v16)</text>
<text text-anchor="start" x="706.5" y="-1142.3" font-family="Times,serif" font-size="14.00"> v24 = g9</text>
<text text-anchor="start" x="706.5" y="-1127.3" font-family="Times,serif" font-size="14.00"> v25 = v24</text>
<text text-anchor="start" x="706.5" y="-1112.3" font-family="Times,serif" font-size="14.00"> v2 = IntToPtrCastExpr&lt;ptr&gt;((v25 + 20))</text>
<text text-anchor="start" x="706.5" y="-1097.3" font-family="Times,serif" font-size="14.00"> result = *(v2)</text>
<text text-anchor="start" x="706.5" y="-1082.3" font-family="Times,serif" font-size="14.00"> v26 = v25</text>
</g>
<!-- Node0xfc8bbb0&#45;&gt;Node0xfb6ae80 -->
<g id="edge9" class="edge"><title>Node0xfc8bbb0&#45;&gt;Node0xfb6ae80</title>
<path fill="none" stroke="black" d="M738.398,-1329.34C749.008,-1324.3 759.845,-1318.17 769,-1311 778.801,-1303.32 788.256,-1294.58 797.215,-1285.32"/>
<polygon fill="black" stroke="black" points="799.991,-1287.48 804.291,-1277.79 794.891,-1282.68 799.991,-1287.48"/>
<text text-anchor="middle" x="828" y="-1299.8" font-family="Times,serif" font-size="14.00">a2 != NULL</text>
</g>
<!-- Node0xfc31bb0 -->
<g id="node10" class="node"><title>Node0xfc31bb0</title>
<polygon fill="none" stroke="black" points="527.5,-1000.5 527.5,-1036.5 658.5,-1036.5 658.5,-1000.5 527.5,-1000.5"/>
<text text-anchor="start" x="535.5" y="-1014.8" font-family="Times,serif" font-size="14.00">if (v16 &lt;= v29):</text>
</g>
<!-- Node0xfc0e7e0&#45;&gt;Node0xfc31bb0 -->
<g id="edge10" class="edge"><title>Node0xfc0e7e0&#45;&gt;Node0xfc31bb0</title>
<path fill="none" stroke="black" d="M593,-1149.32C593,-1121.02 593,-1075.68 593,-1046.76"/>
<polygon fill="black" stroke="black" points="596.5,-1046.55 593,-1036.55 589.5,-1046.55 596.5,-1046.55"/>
</g>
<!-- Node0xfc835e0 -->
<g id="node11" class="node"><title>Node0xfc835e0</title>
<polygon fill="none" stroke="black" points="806,-1000.5 806,-1036.5 946,-1036.5 946,-1000.5 806,-1000.5"/>
<text text-anchor="start" x="814" y="-1014.8" font-family="Times,serif" font-size="14.00">if (a1 == NULL):</text>
</g>
<!-- Node0xfb6ae80&#45;&gt;Node0xfc835e0 -->
<g id="edge11" class="edge"><title>Node0xfb6ae80&#45;&gt;Node0xfc835e0</title>
<path fill="none" stroke="black" d="M876,-1074.32C876,-1064.37 876,-1054.96 876,-1046.85"/>
<polygon fill="black" stroke="black" points="879.5,-1046.65 876,-1036.65 872.5,-1046.65 879.5,-1046.65"/>
</g>
<!-- Node0xfc660b0 -->
<g id="node12" class="node"><title>Node0xfc660b0</title>
<polygon fill="none" stroke="black" points="78.5,-813 78.5,-881 397.5,-881 397.5,-813 78.5,-813"/>
<text text-anchor="start" x="86.5" y="-865.8" font-family="Times,serif" font-size="14.00">v25 = v18</text>
<text text-anchor="start" x="86.5" y="-850.8" font-family="Times,serif" font-size="14.00"> v2 = IntToPtrCastExpr&lt;ptr&gt;((v25 + 20))</text>
<text text-anchor="start" x="86.5" y="-835.8" font-family="Times,serif" font-size="14.00"> result = *(v2)</text>
<text text-anchor="start" x="86.5" y="-820.8" font-family="Times,serif" font-size="14.00"> v26 = v25</text>
</g>
<!-- Node0xfc31bb0&#45;&gt;Node0xfc660b0 -->
<g id="edge12" class="edge"><title>Node0xfc31bb0&#45;&gt;Node0xfc660b0</title>
<path fill="none" stroke="black" d="M537.869,-1000.38C500.019,-987.887 449.042,-969.591 406,-949 368.117,-930.877 327.721,-906.758 296.036,-886.635"/>
<polygon fill="black" stroke="black" points="297.65,-883.513 287.34,-881.073 293.878,-889.41 297.65,-883.513"/>
<text text-anchor="middle" x="525" y="-970.8" font-family="Times,serif" font-size="14.00">v16 &lt;= v29</text>
</g>
<!-- Node0xfbd8e60 -->
<g id="node13" class="node"><title>Node0xfbd8e60</title>
<polygon fill="none" stroke="black" points="415.5,-745.5 415.5,-948.5 770.5,-948.5 770.5,-745.5 415.5,-745.5"/>
<text text-anchor="start" x="423.5" y="-933.3" font-family="Times,serif" font-size="14.00">0x424f56:</text>
<text text-anchor="start" x="423.5" y="-918.3" font-family="Times,serif" font-size="14.00"> v20 = *(IntToPtrCastExpr&lt;ptr&gt;(v18))</text>
<text text-anchor="start" x="423.5" y="-903.3" font-family="Times,serif" font-size="14.00"> g2 = v20</text>
<text text-anchor="start" x="423.5" y="-888.3" font-family="Times,serif" font-size="14.00"> v4 = IntToPtrCastExpr&lt;ptr&gt;(v16)</text>
<text text-anchor="start" x="423.5" y="-873.3" font-family="Times,serif" font-size="14.00"> g10 = PtrToIntCastExpr&lt;int32&gt;(&amp;(v4))</text>
<text text-anchor="start" x="423.5" y="-858.3" font-family="Times,serif" font-size="14.00"> g5 = v18</text>
<text text-anchor="start" x="423.5" y="-843.3" font-family="Times,serif" font-size="14.00"> v31 = *(IntToPtrCastExpr&lt;ptr&gt;((v20 + 100)))</text>
<text text-anchor="start" x="423.5" y="-828.3" font-family="Times,serif" font-size="14.00"> IntToPtrCastExpr&lt;ptr&gt;(v31)(v16)</text>
<text text-anchor="start" x="423.5" y="-813.3" font-family="Times,serif" font-size="14.00"> v24 = g9</text>
<text text-anchor="start" x="423.5" y="-798.3" font-family="Times,serif" font-size="14.00"> v25 = v24</text>
<text text-anchor="start" x="423.5" y="-783.3" font-family="Times,serif" font-size="14.00"> v2 = IntToPtrCastExpr&lt;ptr&gt;((v25 + 20))</text>
<text text-anchor="start" x="423.5" y="-768.3" font-family="Times,serif" font-size="14.00"> result = *(v2)</text>
<text text-anchor="start" x="423.5" y="-753.3" font-family="Times,serif" font-size="14.00"> v26 = v25</text>
</g>
<!-- Node0xfc31bb0&#45;&gt;Node0xfbd8e60 -->
<g id="edge13" class="edge"><title>Node0xfc31bb0&#45;&gt;Node0xfbd8e60</title>
<path fill="none" stroke="black" d="M593,-1000.31C593,-989.651 593,-974.937 593,-958.831"/>
<polygon fill="black" stroke="black" points="596.5,-958.647 593,-948.647 589.5,-958.647 596.5,-958.647"/>
<text text-anchor="middle" x="630" y="-970.8" font-family="Times,serif" font-size="14.00">v16 &gt; v29</text>
</g>
<!-- Node0xfb72000 -->
<g id="node14" class="node"><title>Node0xfb72000</title>
<polygon fill="none" stroke="black" points="827.5,-828 827.5,-866 916.5,-866 916.5,-828 827.5,-828"/>
<text text-anchor="start" x="835.5" y="-850.8" font-family="Times,serif" font-size="14.00">0x424f6b:</text>
<text text-anchor="start" x="835.5" y="-835.8" font-family="Times,serif" font-size="14.00"> v19 = g7</text>
</g>
<!-- Node0xfc835e0&#45;&gt;Node0xfb72000 -->
<g id="edge14" class="edge"><title>Node0xfc835e0&#45;&gt;Node0xfb72000</title>
<path fill="none" stroke="black" d="M875.594,-1000.31C874.907,-971.178 873.506,-911.808 872.67,-876.41"/>
<polygon fill="black" stroke="black" points="876.166,-876.169 872.431,-866.254 869.168,-876.334 876.166,-876.169"/>
<text text-anchor="middle" x="923" y="-970.8" font-family="Times,serif" font-size="14.00">a1 == NULL</text>
</g>
<!-- Node0xfb74d20 -->
<g id="node15" class="node"><title>Node0xfb74d20</title>
<polygon fill="none" stroke="black" points="700,-383.5 700,-511.5 1046,-511.5 1046,-383.5 700,-383.5"/>
<text text-anchor="start" x="708" y="-496.3" font-family="Times,serif" font-size="14.00">0x424f72:</text>
<text text-anchor="start" x="708" y="-481.3" font-family="Times,serif" font-size="14.00"> v30 = g7</text>
<text text-anchor="start" x="708" y="-466.3" font-family="Times,serif" font-size="14.00"> *(IntToPtrCastExpr&lt;ptr&gt;((v26 + 28))) = v30</text>
<text text-anchor="start" x="708" y="-451.3" font-family="Times,serif" font-size="14.00"> v21 = v4</text>
<text text-anchor="start" x="708" y="-436.3" font-family="Times,serif" font-size="14.00"> g7 = PtrToIntCastExpr&lt;int32&gt;(v21)</text>
<text text-anchor="start" x="708" y="-421.3" font-family="Times,serif" font-size="14.00"> v22 = v8</text>
<text text-anchor="start" x="708" y="-406.3" font-family="Times,serif" font-size="14.00"> g9 = PtrToIntCastExpr&lt;int32&gt;(v22)</text>
<text text-anchor="start" x="708" y="-391.3" font-family="Times,serif" font-size="14.00"> return result</text>
</g>
<!-- Node0xfc835e0&#45;&gt;Node0xfb74d20 -->
<g id="edge15" class="edge"><title>Node0xfc835e0&#45;&gt;Node0xfb74d20</title>
<path fill="none" stroke="black" d="M946.154,-1003.18C956.87,-998.115 966.754,-991.266 974,-982 1010.89,-934.831 988,-907.88 988,-848 988,-848 988,-848 988,-582.5 988,-559.371 978.012,-538.236 963.923,-519.929"/>
<polygon fill="black" stroke="black" points="966.233,-517.228 957.182,-511.72 960.823,-521.67 966.233,-517.228"/>
<text text-anchor="middle" x="1032" y="-684.8" font-family="Times,serif" font-size="14.00">a1 != NULL</text>
</g>
<!-- Node0xfc4bb30 -->
<g id="node16" class="node"><title>Node0xfc4bb30</title>
<polygon fill="none" stroke="black" points="168,-670.5 168,-706.5 308,-706.5 308,-670.5 168,-670.5"/>
<text text-anchor="start" x="176" y="-684.8" font-family="Times,serif" font-size="14.00">if (a1 == NULL):</text>
</g>
<!-- Node0xfc660b0&#45;&gt;Node0xfc4bb30 -->
<g id="edge16" class="edge"><title>Node0xfc660b0&#45;&gt;Node0xfc4bb30</title>
<path fill="none" stroke="black" d="M238,-812.81C238,-784.263 238,-743.578 238,-716.864"/>
<polygon fill="black" stroke="black" points="241.5,-716.687 238,-706.687 234.5,-716.687 241.5,-716.687"/>
</g>
<!-- Node0xfba4010 -->
<g id="node17" class="node"><title>Node0xfba4010</title>
<polygon fill="none" stroke="black" points="523,-670.5 523,-706.5 663,-706.5 663,-670.5 523,-670.5"/>
<text text-anchor="start" x="531" y="-684.8" font-family="Times,serif" font-size="14.00">if (a1 == NULL):</text>
</g>
<!-- Node0xfbd8e60&#45;&gt;Node0xfba4010 -->
<g id="edge17" class="edge"><title>Node0xfbd8e60&#45;&gt;Node0xfba4010</title>
<path fill="none" stroke="black" d="M593,-745.117C593,-734.918 593,-725.28 593,-716.983"/>
<polygon fill="black" stroke="black" points="596.5,-716.912 593,-706.912 589.5,-716.912 596.5,-716.912"/>
</g>
<!-- Node0xfb79b30 -->
<g id="node18" class="node"><title>Node0xfb79b30</title>
<polygon fill="none" stroke="black" points="803.5,-669.5 803.5,-707.5 938.5,-707.5 938.5,-669.5 803.5,-669.5"/>
<text text-anchor="start" x="811.5" y="-692.3" font-family="Times,serif" font-size="14.00">if (v19 &lt; result):</text>
<text text-anchor="start" x="811.5" y="-677.3" font-family="Times,serif" font-size="14.00"> else:</text>
</g>
<!-- Node0xfb72000&#45;&gt;Node0xfb79b30 -->
<g id="edge18" class="edge"><title>Node0xfb72000&#45;&gt;Node0xfb79b30</title>
<path fill="none" stroke="black" d="M871.883,-827.741C871.71,-800.648 871.384,-749.575 871.18,-717.667"/>
<polygon fill="black" stroke="black" points="874.68,-717.62 871.116,-707.643 867.68,-717.665 874.68,-717.62"/>
</g>
<!-- Node0xfc5eeb0 -->
<g id="node19" class="node"><title>Node0xfc5eeb0</title>
<polygon fill="none" stroke="black" points="510,-23.5 510,-59.5 564,-59.5 564,-23.5 510,-23.5"/>
<text text-anchor="start" x="518" y="-37.8" font-family="Times,serif" font-size="14.00">exit:</text>
</g>
<!-- Node0xfb74d20&#45;&gt;Node0xfc5eeb0 -->
<g id="edge19" class="edge"><title>Node0xfb74d20&#45;&gt;Node0xfc5eeb0</title>
<path fill="none" stroke="black" d="M861.901,-383.371C844.853,-305.076 804.737,-172.708 719,-97 678.261,-61.0263 614.565,-48.783 574.342,-44.6253"/>
<polygon fill="black" stroke="black" points="574.432,-41.119 564.155,-43.6933 573.794,-48.0899 574.432,-41.119"/>
</g>
<!-- Node0xfb7e160 -->
<g id="node20" class="node"><title>Node0xfb7e160</title>
<polygon fill="none" stroke="black" points="129.5,-564.5 129.5,-602.5 218.5,-602.5 218.5,-564.5 129.5,-564.5"/>
<text text-anchor="start" x="137.5" y="-587.3" font-family="Times,serif" font-size="14.00">0x424f6b:</text>
<text text-anchor="start" x="137.5" y="-572.3" font-family="Times,serif" font-size="14.00"> v19 = g7</text>
</g>
<!-- Node0xfc4bb30&#45;&gt;Node0xfb7e160 -->
<g id="edge20" class="edge"><title>Node0xfc4bb30&#45;&gt;Node0xfb7e160</title>
<path fill="none" stroke="black" d="M199.603,-670.378C191.938,-665.227 184.785,-658.812 180,-651 173.163,-639.837 171.19,-625.584 171.121,-613.137"/>
<polygon fill="black" stroke="black" points="174.631,-612.902 171.475,-602.788 167.635,-612.663 174.631,-612.902"/>
<text text-anchor="middle" x="227" y="-639.8" font-family="Times,serif" font-size="14.00">a1 == NULL</text>
</g>
<!-- Node0xfb907c0 -->
<g id="node21" class="node"><title>Node0xfb907c0</title>
<polygon fill="none" stroke="black" points="0,-97.5 0,-225.5 346,-225.5 346,-97.5 0,-97.5"/>
<text text-anchor="start" x="8" y="-210.3" font-family="Times,serif" font-size="14.00">0x424f72:</text>
<text text-anchor="start" x="8" y="-195.3" font-family="Times,serif" font-size="14.00"> v30 = g7</text>
<text text-anchor="start" x="8" y="-180.3" font-family="Times,serif" font-size="14.00"> *(IntToPtrCastExpr&lt;ptr&gt;((v26 + 28))) = v30</text>
<text text-anchor="start" x="8" y="-165.3" font-family="Times,serif" font-size="14.00"> v21 = v4</text>
<text text-anchor="start" x="8" y="-150.3" font-family="Times,serif" font-size="14.00"> g7 = PtrToIntCastExpr&lt;int32&gt;(v21)</text>
<text text-anchor="start" x="8" y="-135.3" font-family="Times,serif" font-size="14.00"> v22 = v8</text>
<text text-anchor="start" x="8" y="-120.3" font-family="Times,serif" font-size="14.00"> g9 = PtrToIntCastExpr&lt;int32&gt;(v22)</text>
<text text-anchor="start" x="8" y="-105.3" font-family="Times,serif" font-size="14.00"> return result</text>
</g>
<!-- Node0xfc4bb30&#45;&gt;Node0xfb907c0 -->
<g id="edge21" class="edge"><title>Node0xfc4bb30&#45;&gt;Node0xfb907c0</title>
<path fill="none" stroke="black" d="M258.998,-670.263C264.634,-664.663 270.209,-658.056 274,-651 288.294,-624.393 288,-614.703 288,-584.5 288,-584.5 288,-584.5 288,-296.5 288,-273.371 278.012,-252.236 263.923,-233.929"/>
<polygon fill="black" stroke="black" points="266.233,-231.228 257.182,-225.72 260.823,-235.67 266.233,-231.228"/>
<text text-anchor="middle" x="332" y="-443.8" font-family="Times,serif" font-size="14.00">a1 != NULL</text>
</g>
<!-- Node0xfc09ec0 -->
<g id="node22" class="node"><title>Node0xfc09ec0</title>
<polygon fill="none" stroke="black" points="435.5,-564.5 435.5,-602.5 524.5,-602.5 524.5,-564.5 435.5,-564.5"/>
<text text-anchor="start" x="443.5" y="-587.3" font-family="Times,serif" font-size="14.00">0x424f6b:</text>
<text text-anchor="start" x="443.5" y="-572.3" font-family="Times,serif" font-size="14.00"> v19 = g7</text>
</g>
<!-- Node0xfba4010&#45;&gt;Node0xfc09ec0 -->
<g id="edge22" class="edge"><title>Node0xfba4010&#45;&gt;Node0xfc09ec0</title>
<path fill="none" stroke="black" d="M522.913,-676.349C508.739,-670.92 495.338,-662.883 486,-651 477.663,-640.39 475.667,-625.679 475.969,-612.791"/>
<polygon fill="black" stroke="black" points="479.481,-612.74 476.675,-602.523 472.498,-612.26 479.481,-612.74"/>
<text text-anchor="middle" x="533" y="-639.8" font-family="Times,serif" font-size="14.00">a1 == NULL</text>
</g>
<!-- Node0xfb925d0 -->
<g id="node23" class="node"><title>Node0xfb925d0</title>
<polygon fill="none" stroke="black" points="364,-97.5 364,-225.5 710,-225.5 710,-97.5 364,-97.5"/>
<text text-anchor="start" x="372" y="-210.3" font-family="Times,serif" font-size="14.00">0x424f72:</text>
<text text-anchor="start" x="372" y="-195.3" font-family="Times,serif" font-size="14.00"> v30 = g7</text>
<text text-anchor="start" x="372" y="-180.3" font-family="Times,serif" font-size="14.00"> *(IntToPtrCastExpr&lt;ptr&gt;((v26 + 28))) = v30</text>
<text text-anchor="start" x="372" y="-165.3" font-family="Times,serif" font-size="14.00"> v21 = v4</text>
<text text-anchor="start" x="372" y="-150.3" font-family="Times,serif" font-size="14.00"> g7 = PtrToIntCastExpr&lt;int32&gt;(v21)</text>
<text text-anchor="start" x="372" y="-135.3" font-family="Times,serif" font-size="14.00"> v22 = v8</text>
<text text-anchor="start" x="372" y="-120.3" font-family="Times,serif" font-size="14.00"> g9 = PtrToIntCastExpr&lt;int32&gt;(v22)</text>
<text text-anchor="start" x="372" y="-105.3" font-family="Times,serif" font-size="14.00"> return result</text>
</g>
<!-- Node0xfba4010&#45;&gt;Node0xfb925d0 -->
<g id="edge23" class="edge"><title>Node0xfba4010&#45;&gt;Node0xfb925d0</title>
<path fill="none" stroke="black" d="M593.268,-670.369C593.564,-649.93 594,-614.722 594,-584.5 594,-584.5 594,-584.5 594,-296.5 594,-275.643 588.08,-254.312 580.056,-234.98"/>
<polygon fill="black" stroke="black" points="583.19,-233.41 575.965,-225.66 576.78,-236.224 583.19,-233.41"/>
<text text-anchor="middle" x="638" y="-443.8" font-family="Times,serif" font-size="14.00">a1 != NULL</text>
</g>
<!-- Node0xfc77b60 -->
<g id="node24" class="node"><title>Node0xfc77b60</title>
<polygon fill="none" stroke="black" points="706,-549.5 706,-617.5 810,-617.5 810,-549.5 706,-549.5"/>
<text text-anchor="start" x="714" y="-602.3" font-family="Times,serif" font-size="14.00">0x424f6f:</text>
<text text-anchor="start" x="714" y="-587.3" font-family="Times,serif" font-size="14.00"> *(v2) = v19</text>
<text text-anchor="start" x="714" y="-572.3" font-family="Times,serif" font-size="14.00"> v27 = g9</text>
<text text-anchor="start" x="714" y="-557.3" font-family="Times,serif" font-size="14.00"> v26 = v27</text>
</g>
<!-- Node0xfb79b30&#45;&gt;Node0xfc77b60 -->
<g id="edge24" class="edge"><title>Node0xfb79b30&#45;&gt;Node0xfc77b60</title>
<path fill="none" stroke="black" d="M803.332,-669.535C793.906,-664.725 785.052,-658.654 778,-651 771.887,-644.365 767.638,-635.926 764.687,-627.305"/>
<polygon fill="black" stroke="black" points="768.016,-626.216 761.876,-617.581 761.291,-628.16 768.016,-626.216"/>
<text text-anchor="middle" x="823" y="-639.8" font-family="Times,serif" font-size="14.00">v19 &lt; result</text>
</g>
<!-- Node0xfb90d50 -->
<g id="node25" class="node"><title>Node0xfb90d50</title>
<polygon fill="none" stroke="black" points="828,-565.5 828,-601.5 918,-601.5 918,-565.5 828,-565.5"/>
<text text-anchor="start" x="836" y="-579.8" font-family="Times,serif" font-size="14.00">v26 = v25</text>
</g>
<!-- Node0xfb79b30&#45;&gt;Node0xfb90d50 -->
<g id="edge25" class="edge"><title>Node0xfb79b30&#45;&gt;Node0xfb90d50</title>
<path fill="none" stroke="black" d="M871.358,-669.086C871.666,-653.198 872.116,-630.025 872.467,-611.949"/>
<polygon fill="black" stroke="black" points="875.971,-611.793 872.665,-601.727 868.972,-611.657 875.971,-611.793"/>
<text text-anchor="middle" x="923" y="-639.8" font-family="Times,serif" font-size="14.00">v19 &gt;= result</text>
</g>
<!-- Node0xfbf5140 -->
<g id="node26" class="node"><title>Node0xfbf5140</title>
<polygon fill="none" stroke="black" points="103.5,-428.5 103.5,-466.5 238.5,-466.5 238.5,-428.5 103.5,-428.5"/>
<text text-anchor="start" x="111.5" y="-451.3" font-family="Times,serif" font-size="14.00">if (v19 &lt; result):</text>
<text text-anchor="start" x="111.5" y="-436.3" font-family="Times,serif" font-size="14.00"> else:</text>
</g>
<!-- Node0xfb7e160&#45;&gt;Node0xfbf5140 -->
<g id="edge26" class="edge"><title>Node0xfb7e160&#45;&gt;Node0xfbf5140</title>
<path fill="none" stroke="black" d="M173.595,-564.428C173.092,-541.95 172.227,-503.317 171.635,-476.875"/>
<polygon fill="black" stroke="black" points="175.131,-476.633 171.408,-466.713 168.133,-476.789 175.131,-476.633"/>
</g>
<!-- Node0xfb907c0&#45;&gt;Node0xfc5eeb0 -->
<g id="edge27" class="edge"><title>Node0xfb907c0&#45;&gt;Node0xfc5eeb0</title>
<path fill="none" stroke="black" d="M346.339,-99.8225C349.246,-98.8699 352.135,-97.9283 355,-97 404.905,-80.8309 463.05,-63.7166 499.933,-53.0726"/>
<polygon fill="black" stroke="black" points="501.106,-56.3772 509.748,-50.2482 499.17,-49.6502 501.106,-56.3772"/>
</g>
<!-- Node0xfbf6270 -->
<g id="node27" class="node"><title>Node0xfbf6270</title>
<polygon fill="none" stroke="black" points="409.5,-428.5 409.5,-466.5 544.5,-466.5 544.5,-428.5 409.5,-428.5"/>
<text text-anchor="start" x="417.5" y="-451.3" font-family="Times,serif" font-size="14.00">if (v19 &lt; result):</text>
<text text-anchor="start" x="417.5" y="-436.3" font-family="Times,serif" font-size="14.00"> else:</text>
</g>
<!-- Node0xfc09ec0&#45;&gt;Node0xfbf6270 -->
<g id="edge28" class="edge"><title>Node0xfc09ec0&#45;&gt;Node0xfbf6270</title>
<path fill="none" stroke="black" d="M479.595,-564.428C479.092,-541.95 478.227,-503.317 477.635,-476.875"/>
<polygon fill="black" stroke="black" points="481.131,-476.633 477.408,-466.713 474.133,-476.789 481.131,-476.633"/>
</g>
<!-- Node0xfb925d0&#45;&gt;Node0xfc5eeb0 -->
<g id="edge29" class="edge"><title>Node0xfb925d0&#45;&gt;Node0xfc5eeb0</title>
<path fill="none" stroke="black" d="M537,-97.3546C537,-87.7534 537,-78.2993 537,-70.016"/>
<polygon fill="black" stroke="black" points="540.5,-69.8875 537,-59.8875 533.5,-69.8876 540.5,-69.8875"/>
</g>
<!-- Node0xfc77b60&#45;&gt;Node0xfb74d20 -->
<g id="edge30" class="edge"><title>Node0xfc77b60&#45;&gt;Node0xfb74d20</title>
<path fill="none" stroke="black" d="M786.427,-549.376C794.348,-540.146 803.269,-529.752 812.295,-519.235"/>
<polygon fill="black" stroke="black" points="815.016,-521.438 818.873,-511.57 809.704,-516.879 815.016,-521.438"/>
</g>
<!-- Node0xfb90d50&#45;&gt;Node0xfb74d20 -->
<g id="edge31" class="edge"><title>Node0xfb90d50&#45;&gt;Node0xfb74d20</title>
<path fill="none" stroke="black" d="M873,-565.256C873,-553.9 873,-538.175 873,-521.941"/>
<polygon fill="black" stroke="black" points="876.5,-521.801 873,-511.801 869.5,-521.801 876.5,-521.801"/>
</g>
<!-- Node0xfba5510 -->
<g id="node28" class="node"><title>Node0xfba5510</title>
<polygon fill="none" stroke="black" points="6,-263.5 6,-331.5 110,-331.5 110,-263.5 6,-263.5"/>
<text text-anchor="start" x="14" y="-316.3" font-family="Times,serif" font-size="14.00">0x424f6f:</text>
<text text-anchor="start" x="14" y="-301.3" font-family="Times,serif" font-size="14.00"> *(v2) = v19</text>
<text text-anchor="start" x="14" y="-286.3" font-family="Times,serif" font-size="14.00"> v27 = g9</text>
<text text-anchor="start" x="14" y="-271.3" font-family="Times,serif" font-size="14.00"> v26 = v27</text>
</g>
<!-- Node0xfbf5140&#45;&gt;Node0xfba5510 -->
<g id="edge32" class="edge"><title>Node0xfbf5140&#45;&gt;Node0xfba5510</title>
<path fill="none" stroke="black" d="M142.778,-428.28C122.061,-413.536 94.726,-390.999 78,-365 73.3586,-357.785 69.7523,-349.444 66.9641,-341.159"/>
<polygon fill="black" stroke="black" points="70.2975,-340.09 64.0539,-331.531 63.5969,-342.116 70.2975,-340.09"/>
<text text-anchor="middle" x="123" y="-353.8" font-family="Times,serif" font-size="14.00">v19 &lt; result</text>
</g>
<!-- Node0xfc24010 -->
<g id="node29" class="node"><title>Node0xfc24010</title>
<polygon fill="none" stroke="black" points="128,-279.5 128,-315.5 218,-315.5 218,-279.5 128,-279.5"/>
<text text-anchor="start" x="136" y="-293.8" font-family="Times,serif" font-size="14.00">v26 = v25</text>
</g>
<!-- Node0xfbf5140&#45;&gt;Node0xfc24010 -->
<g id="edge33" class="edge"><title>Node0xfbf5140&#45;&gt;Node0xfc24010</title>
<path fill="none" stroke="black" d="M171.139,-428.358C171.299,-408.962 171.593,-377.307 172,-350 172.117,-342.131 172.272,-333.587 172.425,-325.761"/>
<polygon fill="black" stroke="black" points="175.926,-325.734 172.628,-315.666 168.927,-325.594 175.926,-325.734"/>
<text text-anchor="middle" x="223" y="-353.8" font-family="Times,serif" font-size="14.00">v19 &gt;= result</text>
</g>
<!-- Node0xfb7ef80 -->
<g id="node30" class="node"><title>Node0xfb7ef80</title>
<polygon fill="none" stroke="black" points="326,-263.5 326,-331.5 430,-331.5 430,-263.5 326,-263.5"/>
<text text-anchor="start" x="334" y="-316.3" font-family="Times,serif" font-size="14.00">0x424f6f:</text>
<text text-anchor="start" x="334" y="-301.3" font-family="Times,serif" font-size="14.00"> *(v2) = v19</text>
<text text-anchor="start" x="334" y="-286.3" font-family="Times,serif" font-size="14.00"> v27 = g9</text>
<text text-anchor="start" x="334" y="-271.3" font-family="Times,serif" font-size="14.00"> v26 = v27</text>
</g>
<!-- Node0xfbf6270&#45;&gt;Node0xfb7ef80 -->
<g id="edge34" class="edge"><title>Node0xfbf6270&#45;&gt;Node0xfb7ef80</title>
<path fill="none" stroke="black" d="M444.495,-428.248C422.674,-414.068 395.531,-392.248 382,-365 378.455,-357.862 376.529,-349.749 375.607,-341.702"/>
<polygon fill="black" stroke="black" points="379.092,-341.367 374.929,-331.624 372.108,-341.836 379.092,-341.367"/>
<text text-anchor="middle" x="427" y="-353.8" font-family="Times,serif" font-size="14.00">v19 &lt; result</text>
</g>
<!-- Node0xfc8f700 -->
<g id="node31" class="node"><title>Node0xfc8f700</title>
<polygon fill="none" stroke="black" points="457,-279.5 457,-315.5 547,-315.5 547,-279.5 457,-279.5"/>
<text text-anchor="start" x="465" y="-293.8" font-family="Times,serif" font-size="14.00">v26 = v25</text>
</g>
<!-- Node0xfbf6270&#45;&gt;Node0xfc8f700 -->
<g id="edge35" class="edge"><title>Node0xfbf6270&#45;&gt;Node0xfc8f700</title>
<path fill="none" stroke="black" d="M474.938,-428.451C473.218,-408.863 471.917,-376.795 478,-350 479.925,-341.52 483.37,-332.773 487.061,-324.949"/>
<polygon fill="black" stroke="black" points="490.224,-326.448 491.597,-315.943 483.973,-323.299 490.224,-326.448"/>
<text text-anchor="middle" x="529" y="-353.8" font-family="Times,serif" font-size="14.00">v19 &gt;= result</text>
</g>
<!-- Node0xfba5510&#45;&gt;Node0xfb907c0 -->
<g id="edge36" class="edge"><title>Node0xfba5510&#45;&gt;Node0xfb907c0</title>
<path fill="none" stroke="black" d="M86.427,-263.376C94.3483,-254.146 103.269,-243.752 112.295,-233.235"/>
<polygon fill="black" stroke="black" points="115.016,-235.438 118.873,-225.57 109.704,-230.879 115.016,-235.438"/>
</g>
<!-- Node0xfc24010&#45;&gt;Node0xfb907c0 -->
<g id="edge37" class="edge"><title>Node0xfc24010&#45;&gt;Node0xfb907c0</title>
<path fill="none" stroke="black" d="M173,-279.256C173,-267.9 173,-252.175 173,-235.941"/>
<polygon fill="black" stroke="black" points="176.5,-235.801 173,-225.801 169.5,-235.801 176.5,-235.801"/>
</g>
<!-- Node0xfb7ef80&#45;&gt;Node0xfb925d0 -->
<g id="edge38" class="edge"><title>Node0xfb7ef80&#45;&gt;Node0xfb925d0</title>
<path fill="none" stroke="black" d="M417.303,-263.376C428.574,-253.878 441.308,-243.146 454.159,-232.316"/>
<polygon fill="black" stroke="black" points="456.772,-234.691 462.163,-225.57 452.261,-229.338 456.772,-234.691"/>
</g>
<!-- Node0xfc8f700&#45;&gt;Node0xfb925d0 -->
<g id="edge39" class="edge"><title>Node0xfc8f700&#45;&gt;Node0xfb925d0</title>
<path fill="none" stroke="black" d="M506.504,-279.256C509.498,-267.793 513.655,-251.878 517.938,-235.481"/>
<polygon fill="black" stroke="black" points="521.325,-236.361 520.466,-225.801 514.552,-234.592 521.325,-236.361"/>
</g>
</g>
</svg>
