<?xml version="1.0" encoding="UTF-8" standalone="no"?>
<!DOCTYPE svg PUBLIC "-//W3C//DTD SVG 1.1//EN"
 "http://www.w3.org/Graphics/SVG/1.1/DTD/svg11.dtd">
<!-- Generated by graphviz version 2.38.0 (20140413.2041)
 -->
<!-- Title: Control&#45;flow graph for function &#39;function_417854()&#39;. Pages: 1 -->
<svg width="777pt" height="726pt"
 viewBox="0.00 0.00 777.00 726.00" xmlns="http://www.w3.org/2000/svg" xmlns:xlink="http://www.w3.org/1999/xlink">
<g id="graph0" class="graph" transform="scale(1 1) rotate(0) translate(4 722)">
<title>Control&#45;flow graph for function &#39;function_417854()&#39;.</title>
<polygon fill="white" stroke="none" points="-4,4 -4,-722 773,-722 773,4 -4,4"/>
<text text-anchor="middle" x="384.5" y="-7.8" font-family="Times,serif" font-size="14.00">Control&#45;flow graph for function &#39;function_417854()&#39;.</text>
<!-- Node0xf4cb3f0 -->
<g id="node1" class="node"><title>Node0xf4cb3f0</title>
<polygon fill="none" stroke="black" points="355,-681.5 355,-717.5 414,-717.5 414,-681.5 355,-681.5"/>
<text text-anchor="start" x="363" y="-695.8" font-family="Times,serif" font-size="14.00">entry:</text>
</g>
<!-- Node0xf4cb7d0 -->
<g id="node2" class="node"><title>Node0xf4cb7d0</title>
<polygon fill="none" stroke="black" points="0,-96.5 0,-644.5 769,-644.5 769,-96.5 0,-96.5"/>
<text text-anchor="start" x="8" y="-629.3" font-family="Times,serif" font-size="14.00">v1</text>
<text text-anchor="start" x="8" y="-614.3" font-family="Times,serif" font-size="14.00"> v2</text>
<text text-anchor="start" x="8" y="-599.3" font-family="Times,serif" font-size="14.00"> v3</text>
<text text-anchor="start" x="8" y="-584.3" font-family="Times,serif" font-size="14.00"> v4</text>
<text text-anchor="start" x="8" y="-569.3" font-family="Times,serif" font-size="14.00"> v5</text>
<text text-anchor="start" x="8" y="-554.3" font-family="Times,serif" font-size="14.00"> v6</text>
<text text-anchor="start" x="8" y="-539.3" font-family="Times,serif" font-size="14.00"> v7</text>
<text text-anchor="start" x="8" y="-524.3" font-family="Times,serif" font-size="14.00"> v8</text>
<text text-anchor="start" x="8" y="-509.3" font-family="Times,serif" font-size="14.00"> v9</text>
<text text-anchor="start" x="8" y="-494.3" font-family="Times,serif" font-size="14.00"> v10</text>
<text text-anchor="start" x="8" y="-479.3" font-family="Times,serif" font-size="14.00"> v11</text>
<text text-anchor="start" x="8" y="-464.3" font-family="Times,serif" font-size="14.00"> result</text>
<text text-anchor="start" x="8" y="-449.3" font-family="Times,serif" font-size="14.00"> v12</text>
<text text-anchor="start" x="8" y="-434.3" font-family="Times,serif" font-size="14.00"> v13</text>
<text text-anchor="start" x="8" y="-419.3" font-family="Times,serif" font-size="14.00"> v14</text>
<text text-anchor="start" x="8" y="-404.3" font-family="Times,serif" font-size="14.00"> v15</text>
<text text-anchor="start" x="8" y="-389.3" font-family="Times,serif" font-size="14.00"> v16</text>
<text text-anchor="start" x="8" y="-374.3" font-family="Times,serif" font-size="14.00"> v6 = v7</text>
<text text-anchor="start" x="8" y="-359.3" font-family="Times,serif" font-size="14.00"> v12 = g5</text>
<text text-anchor="start" x="8" y="-344.3" font-family="Times,serif" font-size="14.00"> g9 = v12</text>
<text text-anchor="start" x="8" y="-329.3" font-family="Times,serif" font-size="14.00"> v10 = 128</text>
<text text-anchor="start" x="8" y="-314.3" font-family="Times,serif" font-size="14.00"> v15 = (v12 + 20)</text>
<text text-anchor="start" x="8" y="-299.3" font-family="Times,serif" font-size="14.00"> g2 = v15</text>
<text text-anchor="start" x="8" y="-284.3" font-family="Times,serif" font-size="14.00"> v4 = v15</text>
<text text-anchor="start" x="8" y="-269.3" font-family="Times,serif" font-size="14.00"> v16 = *(IntToPtrCastExpr&lt;ptr&gt;((v12 + 148)))</text>
<text text-anchor="start" x="8" y="-254.3" font-family="Times,serif" font-size="14.00"> v6 = v16</text>
<text text-anchor="start" x="8" y="-239.3" font-family="Times,serif" font-size="14.00"> *(IntToPtrCastExpr&lt;ptr&gt;((v12 + 12))) = 1</text>
<text text-anchor="start" x="8" y="-224.3" font-family="Times,serif" font-size="14.00"> v3 = function_419fe0(BitCastExpr&lt;ptr&gt;(&amp;(v6)), BitCastExpr&lt;ptr&gt;(&amp;(v4)), BitCastExpr&lt;ptr&gt;(&amp;(v10)))</text>
<text text-anchor="start" x="8" y="-209.3" font-family="Times,serif" font-size="14.00"> result = ExtCastExpr&lt;int32&gt;((v3 != 0))</text>
<text text-anchor="start" x="8" y="-194.3" font-family="Times,serif" font-size="14.00"> g2 = ExtCastExpr&lt;int32&gt;((v3 != 0))</text>
<text text-anchor="start" x="8" y="-179.3" font-family="Times,serif" font-size="14.00"> g1 = (v3 != 0)</text>
<text text-anchor="start" x="8" y="-164.3" font-family="Times,serif" font-size="14.00"> v14 = g9</text>
<text text-anchor="start" x="8" y="-149.3" font-family="Times,serif" font-size="14.00"> *(IntToPtrCastExpr&lt;ptr&gt;((v14 + 16))) = result</text>
<text text-anchor="start" x="8" y="-134.3" font-family="Times,serif" font-size="14.00"> v13 = v6</text>
<text text-anchor="start" x="8" y="-119.3" font-family="Times,serif" font-size="14.00"> g9 = v13</text>
<text text-anchor="start" x="8" y="-104.3" font-family="Times,serif" font-size="14.00"> return result</text>
</g>
<!-- Node0xf4cb3f0&#45;&gt;Node0xf4cb7d0 -->
<g id="edge1" class="edge"><title>Node0xf4cb3f0&#45;&gt;Node0xf4cb7d0</title>
<path fill="none" stroke="black" d="M384.5,-681.379C384.5,-674.286 384.5,-665.245 384.5,-654.744"/>
<polygon fill="black" stroke="black" points="388,-654.705 384.5,-644.705 381,-654.705 388,-654.705"/>
</g>
<!-- Node0xf4cb350 -->
<g id="node3" class="node"><title>Node0xf4cb350</title>
<polygon fill="none" stroke="black" points="357.5,-23.5 357.5,-59.5 411.5,-59.5 411.5,-23.5 357.5,-23.5"/>
<text text-anchor="start" x="365.5" y="-37.8" font-family="Times,serif" font-size="14.00">exit:</text>
</g>
<!-- Node0xf4cb7d0&#45;&gt;Node0xf4cb350 -->
<g id="edge2" class="edge"><title>Node0xf4cb7d0&#45;&gt;Node0xf4cb350</title>
<path fill="none" stroke="black" d="M384.5,-96.4974C384.5,-86.5059 384.5,-77.5242 384.5,-69.885"/>
<polygon fill="black" stroke="black" points="388,-69.6921 384.5,-59.6921 381,-69.6922 388,-69.6921"/>
</g>
</g>
</svg>
