<?xml version="1.0" encoding="UTF-8" standalone="no"?>
<!DOCTYPE svg PUBLIC "-//W3C//DTD SVG 1.1//EN"
 "http://www.w3.org/Graphics/SVG/1.1/DTD/svg11.dtd">
<!-- Generated by graphviz version 2.38.0 (20140413.2041)
 -->
<!-- Title: Control&#45;flow graph for function &#39;function_41ecfe(a1)&#39;. Pages: 1 -->
<svg width="1040pt" height="3224pt"
 viewBox="0.00 0.00 1040.00 3224.00" xmlns="http://www.w3.org/2000/svg" xmlns:xlink="http://www.w3.org/1999/xlink">
<g id="graph0" class="graph" transform="scale(1 1) rotate(0) translate(4 3220)">
<title>Control&#45;flow graph for function &#39;function_41ecfe(a1)&#39;.</title>
<polygon fill="white" stroke="none" points="-4,4 -4,-3220 1036,-3220 1036,4 -4,4"/>
<text text-anchor="middle" x="516" y="-7.8" font-family="Times,serif" font-size="14.00">Control&#45;flow graph for function &#39;function_41ecfe(a1)&#39;.</text>
<!-- Node0xf83e9b0 -->
<g id="node1" class="node"><title>Node0xf83e9b0</title>
<polygon fill="none" stroke="black" points="429.5,-3177.5 429.5,-3215.5 488.5,-3215.5 488.5,-3177.5 429.5,-3177.5"/>
<text text-anchor="start" x="437.5" y="-3200.3" font-family="Times,serif" font-size="14.00">entry:</text>
<text text-anchor="start" x="437.5" y="-3185.3" font-family="Times,serif" font-size="14.00"> a1</text>
</g>
<!-- Node0xf82f1c0 -->
<g id="node2" class="node"><title>Node0xf82f1c0</title>
<polygon fill="none" stroke="black" points="179,-1736.5 179,-3139.5 739,-3139.5 739,-1736.5 179,-1736.5"/>
<text text-anchor="start" x="187" y="-3124.3" font-family="Times,serif" font-size="14.00">v1</text>
<text text-anchor="start" x="187" y="-3109.3" font-family="Times,serif" font-size="14.00"> v2</text>
<text text-anchor="start" x="187" y="-3094.3" font-family="Times,serif" font-size="14.00"> v3</text>
<text text-anchor="start" x="187" y="-3079.3" font-family="Times,serif" font-size="14.00"> v4</text>
<text text-anchor="start" x="187" y="-3064.3" font-family="Times,serif" font-size="14.00"> v5</text>
<text text-anchor="start" x="187" y="-3049.3" font-family="Times,serif" font-size="14.00"> v6</text>
<text text-anchor="start" x="187" y="-3034.3" font-family="Times,serif" font-size="14.00"> lprcSrc</text>
<text text-anchor="start" x="187" y="-3019.3" font-family="Times,serif" font-size="14.00"> lprcDst</text>
<text text-anchor="start" x="187" y="-3004.3" font-family="Times,serif" font-size="14.00"> lpRect</text>
<text text-anchor="start" x="187" y="-2989.3" font-family="Times,serif" font-size="14.00"> v7</text>
<text text-anchor="start" x="187" y="-2974.3" font-family="Times,serif" font-size="14.00"> v8</text>
<text text-anchor="start" x="187" y="-2959.3" font-family="Times,serif" font-size="14.00"> v9</text>
<text text-anchor="start" x="187" y="-2944.3" font-family="Times,serif" font-size="14.00"> v10</text>
<text text-anchor="start" x="187" y="-2929.3" font-family="Times,serif" font-size="14.00"> v11</text>
<text text-anchor="start" x="187" y="-2914.3" font-family="Times,serif" font-size="14.00"> v12</text>
<text text-anchor="start" x="187" y="-2899.3" font-family="Times,serif" font-size="14.00"> v13</text>
<text text-anchor="start" x="187" y="-2884.3" font-family="Times,serif" font-size="14.00"> v14</text>
<text text-anchor="start" x="187" y="-2869.3" font-family="Times,serif" font-size="14.00"> v15</text>
<text text-anchor="start" x="187" y="-2854.3" font-family="Times,serif" font-size="14.00"> v16</text>
<text text-anchor="start" x="187" y="-2839.3" font-family="Times,serif" font-size="14.00"> v17</text>
<text text-anchor="start" x="187" y="-2824.3" font-family="Times,serif" font-size="14.00"> v18</text>
<text text-anchor="start" x="187" y="-2809.3" font-family="Times,serif" font-size="14.00"> v19</text>
<text text-anchor="start" x="187" y="-2794.3" font-family="Times,serif" font-size="14.00"> v20</text>
<text text-anchor="start" x="187" y="-2779.3" font-family="Times,serif" font-size="14.00"> v21</text>
<text text-anchor="start" x="187" y="-2764.3" font-family="Times,serif" font-size="14.00"> v22</text>
<text text-anchor="start" x="187" y="-2749.3" font-family="Times,serif" font-size="14.00"> v23</text>
<text text-anchor="start" x="187" y="-2734.3" font-family="Times,serif" font-size="14.00"> v24</text>
<text text-anchor="start" x="187" y="-2719.3" font-family="Times,serif" font-size="14.00"> v25</text>
<text text-anchor="start" x="187" y="-2704.3" font-family="Times,serif" font-size="14.00"> v26</text>
<text text-anchor="start" x="187" y="-2689.3" font-family="Times,serif" font-size="14.00"> v27</text>
<text text-anchor="start" x="187" y="-2674.3" font-family="Times,serif" font-size="14.00"> v28</text>
<text text-anchor="start" x="187" y="-2659.3" font-family="Times,serif" font-size="14.00"> v29</text>
<text text-anchor="start" x="187" y="-2644.3" font-family="Times,serif" font-size="14.00"> result</text>
<text text-anchor="start" x="187" y="-2629.3" font-family="Times,serif" font-size="14.00"> v30</text>
<text text-anchor="start" x="187" y="-2614.3" font-family="Times,serif" font-size="14.00"> v31</text>
<text text-anchor="start" x="187" y="-2599.3" font-family="Times,serif" font-size="14.00"> v32</text>
<text text-anchor="start" x="187" y="-2584.3" font-family="Times,serif" font-size="14.00"> v33</text>
<text text-anchor="start" x="187" y="-2569.3" font-family="Times,serif" font-size="14.00"> v34</text>
<text text-anchor="start" x="187" y="-2554.3" font-family="Times,serif" font-size="14.00"> v35</text>
<text text-anchor="start" x="187" y="-2539.3" font-family="Times,serif" font-size="14.00"> v36</text>
<text text-anchor="start" x="187" y="-2524.3" font-family="Times,serif" font-size="14.00"> v37</text>
<text text-anchor="start" x="187" y="-2509.3" font-family="Times,serif" font-size="14.00"> v38</text>
<text text-anchor="start" x="187" y="-2494.3" font-family="Times,serif" font-size="14.00"> v39</text>
<text text-anchor="start" x="187" y="-2479.3" font-family="Times,serif" font-size="14.00"> v40</text>
<text text-anchor="start" x="187" y="-2464.3" font-family="Times,serif" font-size="14.00"> v41</text>
<text text-anchor="start" x="187" y="-2449.3" font-family="Times,serif" font-size="14.00"> v42</text>
<text text-anchor="start" x="187" y="-2434.3" font-family="Times,serif" font-size="14.00"> v43</text>
<text text-anchor="start" x="187" y="-2419.3" font-family="Times,serif" font-size="14.00"> v44</text>
<text text-anchor="start" x="187" y="-2404.3" font-family="Times,serif" font-size="14.00"> v45</text>
<text text-anchor="start" x="187" y="-2389.3" font-family="Times,serif" font-size="14.00"> v46</text>
<text text-anchor="start" x="187" y="-2374.3" font-family="Times,serif" font-size="14.00"> v47</text>
<text text-anchor="start" x="187" y="-2359.3" font-family="Times,serif" font-size="14.00"> v48</text>
<text text-anchor="start" x="187" y="-2344.3" font-family="Times,serif" font-size="14.00"> v49</text>
<text text-anchor="start" x="187" y="-2329.3" font-family="Times,serif" font-size="14.00"> v50</text>
<text text-anchor="start" x="187" y="-2314.3" font-family="Times,serif" font-size="14.00"> v51</text>
<text text-anchor="start" x="187" y="-2299.3" font-family="Times,serif" font-size="14.00"> v52</text>
<text text-anchor="start" x="187" y="-2284.3" font-family="Times,serif" font-size="14.00"> v53</text>
<text text-anchor="start" x="187" y="-2269.3" font-family="Times,serif" font-size="14.00"> v54</text>
<text text-anchor="start" x="187" y="-2254.3" font-family="Times,serif" font-size="14.00"> v55</text>
<text text-anchor="start" x="187" y="-2239.3" font-family="Times,serif" font-size="14.00"> v56</text>
<text text-anchor="start" x="187" y="-2224.3" font-family="Times,serif" font-size="14.00"> v57</text>
<text text-anchor="start" x="187" y="-2209.3" font-family="Times,serif" font-size="14.00"> v58</text>
<text text-anchor="start" x="187" y="-2194.3" font-family="Times,serif" font-size="14.00"> v59</text>
<text text-anchor="start" x="187" y="-2179.3" font-family="Times,serif" font-size="14.00"> v60</text>
<text text-anchor="start" x="187" y="-2164.3" font-family="Times,serif" font-size="14.00"> v61</text>
<text text-anchor="start" x="187" y="-2149.3" font-family="Times,serif" font-size="14.00"> hWnd</text>
<text text-anchor="start" x="187" y="-2134.3" font-family="Times,serif" font-size="14.00"> v62</text>
<text text-anchor="start" x="187" y="-2119.3" font-family="Times,serif" font-size="14.00"> v63</text>
<text text-anchor="start" x="187" y="-2104.3" font-family="Times,serif" font-size="14.00"> v64</text>
<text text-anchor="start" x="187" y="-2089.3" font-family="Times,serif" font-size="14.00"> v65</text>
<text text-anchor="start" x="187" y="-2074.3" font-family="Times,serif" font-size="14.00"> v66</text>
<text text-anchor="start" x="187" y="-2059.3" font-family="Times,serif" font-size="14.00"> v67</text>
<text text-anchor="start" x="187" y="-2044.3" font-family="Times,serif" font-size="14.00"> v68</text>
<text text-anchor="start" x="187" y="-2029.3" font-family="Times,serif" font-size="14.00"> v69</text>
<text text-anchor="start" x="187" y="-2014.3" font-family="Times,serif" font-size="14.00"> v24 = v25</text>
<text text-anchor="start" x="187" y="-1999.3" font-family="Times,serif" font-size="14.00"> v22 = v23</text>
<text text-anchor="start" x="187" y="-1984.3" font-family="Times,serif" font-size="14.00"> v20 = v21</text>
<text text-anchor="start" x="187" y="-1969.3" font-family="Times,serif" font-size="14.00"> v18 = v19</text>
<text text-anchor="start" x="187" y="-1954.3" font-family="Times,serif" font-size="14.00"> g2 = 4533992</text>
<text text-anchor="start" x="187" y="-1939.3" font-family="Times,serif" font-size="14.00"> __EH_prolog3()</text>
<text text-anchor="start" x="187" y="-1924.3" font-family="Times,serif" font-size="14.00"> v35 = g3</text>
<text text-anchor="start" x="187" y="-1909.3" font-family="Times,serif" font-size="14.00"> v54 = *(IntToPtrCastExpr&lt;ptr&gt;((v35 + 8)))</text>
<text text-anchor="start" x="187" y="-1894.3" font-family="Times,serif" font-size="14.00"> g7 = v54</text>
<text text-anchor="start" x="187" y="-1879.3" font-family="Times,serif" font-size="14.00"> v51 = *(IntToPtrCastExpr&lt;ptr&gt;((v54 + &#45;176)))</text>
<text text-anchor="start" x="187" y="-1864.3" font-family="Times,serif" font-size="14.00"> g5 = (v35 + &#45;20)</text>
<text text-anchor="start" x="187" y="-1849.3" font-family="Times,serif" font-size="14.00"> function_419fad(IntToPtrCastExpr&lt;ptr&gt;(v51), IntToPtrCastExpr&lt;ptr&gt;(8))</text>
<text text-anchor="start" x="187" y="-1834.3" font-family="Times,serif" font-size="14.00"> v36 = g3</text>
<text text-anchor="start" x="187" y="-1819.3" font-family="Times,serif" font-size="14.00"> v55 = *(IntToPtrCastExpr&lt;ptr&gt;((v36 + 16)))</text>
<text text-anchor="start" x="187" y="-1804.3" font-family="Times,serif" font-size="14.00"> g2 = v55</text>
<text text-anchor="start" x="187" y="-1789.3" font-family="Times,serif" font-size="14.00"> g4 = 0</text>
<text text-anchor="start" x="187" y="-1774.3" font-family="Times,serif" font-size="14.00"> g1 = False</text>
<text text-anchor="start" x="187" y="-1759.3" font-family="Times,serif" font-size="14.00"> g207 = (v55 == 0)</text>
<text text-anchor="start" x="187" y="-1744.3" font-family="Times,serif" font-size="14.00"> *(IntToPtrCastExpr&lt;ptr&gt;((v36 + &#45;4))) = 0</text>
</g>
<!-- Node0xf83e9b0&#45;&gt;Node0xf82f1c0 -->
<g id="edge1" class="edge"><title>Node0xf83e9b0&#45;&gt;Node0xf82f1c0</title>
<path fill="none" stroke="black" d="M459,-3177.17C459,-3169.93 459,-3160.7 459,-3149.75"/>
<polygon fill="black" stroke="black" points="462.5,-3149.69 459,-3139.69 455.5,-3149.69 462.5,-3149.69"/>
</g>
<!-- Node0xf83a020 -->
<g id="node3" class="node"><title>Node0xf83a020</title>
<polygon fill="none" stroke="black" points="405,-1662.5 405,-1698.5 513,-1698.5 513,-1662.5 405,-1662.5"/>
<text text-anchor="start" x="413" y="-1676.8" font-family="Times,serif" font-size="14.00">if (v55 != 0):</text>
</g>
<!-- Node0xf82f1c0&#45;&gt;Node0xf83a020 -->
<g id="edge2" class="edge"><title>Node0xf82f1c0&#45;&gt;Node0xf83a020</title>
<path fill="none" stroke="black" d="M459,-1736.44C459,-1725.98 459,-1716.8 459,-1709.08"/>
<polygon fill="black" stroke="black" points="462.5,-1708.85 459,-1698.85 455.5,-1708.85 462.5,-1708.85"/>
</g>
<!-- Node0xf7da850 -->
<g id="node4" class="node"><title>Node0xf7da850</title>
<polygon fill="none" stroke="black" points="173,-1542.5 173,-1610.5 469,-1610.5 469,-1542.5 173,-1542.5"/>
<text text-anchor="start" x="181" y="-1595.3" font-family="Times,serif" font-size="14.00">0x41ed27:</text>
<text text-anchor="start" x="181" y="-1580.3" font-family="Times,serif" font-size="14.00"> v30 = g2</text>
<text text-anchor="start" x="181" y="-1565.3" font-family="Times,serif" font-size="14.00"> v32 = g4</text>
<text text-anchor="start" x="181" y="-1550.3" font-family="Times,serif" font-size="14.00"> *(IntToPtrCastExpr&lt;ptr&gt;(v30)) = v32</text>
</g>
<!-- Node0xf83a020&#45;&gt;Node0xf7da850 -->
<g id="edge3" class="edge"><title>Node0xf83a020&#45;&gt;Node0xf7da850</title>
<path fill="none" stroke="black" d="M435.902,-1662.43C418.961,-1649.91 395.263,-1632.39 373.787,-1616.52"/>
<polygon fill="black" stroke="black" points="375.805,-1613.66 365.683,-1610.53 371.645,-1619.29 375.805,-1613.66"/>
<text text-anchor="middle" x="442.5" y="-1632.8" font-family="Times,serif" font-size="14.00">v55 != 0</text>
</g>
<!-- Node0xf8403d0 -->
<g id="node5" class="node"><title>Node0xf8403d0</title>
<polygon fill="none" stroke="black" points="218.5,-1331.5 218.5,-1504.5 687.5,-1504.5 687.5,-1331.5 218.5,-1331.5"/>
<text text-anchor="start" x="226.5" y="-1489.3" font-family="Times,serif" font-size="14.00">0x41ed29:</text>
<text text-anchor="start" x="226.5" y="-1474.3" font-family="Times,serif" font-size="14.00"> v37 = g3</text>
<text text-anchor="start" x="226.5" y="-1459.3" font-family="Times,serif" font-size="14.00"> v56 = *(IntToPtrCastExpr&lt;ptr&gt;((v37 + 12)))</text>
<text text-anchor="start" x="226.5" y="-1444.3" font-family="Times,serif" font-size="14.00"> v4 = IntToPtrCastExpr&lt;ptr&gt;(v56)</text>
<text text-anchor="start" x="226.5" y="-1429.3" font-family="Times,serif" font-size="14.00"> v18 = v4</text>
<text text-anchor="start" x="226.5" y="-1414.3" font-family="Times,serif" font-size="14.00"> v33 = g7</text>
<text text-anchor="start" x="226.5" y="-1399.3" font-family="Times,serif" font-size="14.00"> v52 = *(IntToPtrCastExpr&lt;ptr&gt;((v33 + &#45;172)))</text>
<text text-anchor="start" x="226.5" y="-1384.3" font-family="Times,serif" font-size="14.00"> g5 = v52</text>
<text text-anchor="start" x="226.5" y="-1369.3" font-family="Times,serif" font-size="14.00"> v20 = IntToPtrCastExpr&lt;ptr&gt;(4572516)</text>
<text text-anchor="start" x="226.5" y="-1354.3" font-family="Times,serif" font-size="14.00"> v5 = PtrToIntCastExpr&lt;int32&gt;(&amp;(v20))</text>
<text text-anchor="start" x="226.5" y="-1339.3" font-family="Times,serif" font-size="14.00"> v13 = function_41b7f4(IntToPtrCastExpr&lt;ptr&gt;(4572516), v4)</text>
</g>
<!-- Node0xf83a020&#45;&gt;Node0xf8403d0 -->
<g id="edge4" class="edge"><title>Node0xf83a020&#45;&gt;Node0xf8403d0</title>
<path fill="none" stroke="black" d="M470.476,-1662.14C473.542,-1656.58 476.436,-1650.24 478,-1644 488.488,-1602.18 485.396,-1554.88 478.437,-1514.48"/>
<polygon fill="black" stroke="black" points="481.879,-1513.85 476.642,-1504.64 474.992,-1515.1 481.879,-1513.85"/>
<text text-anchor="middle" x="519.5" y="-1572.8" font-family="Times,serif" font-size="14.00">v55 == 0</text>
</g>
<!-- Node0xf7da850&#45;&gt;Node0xf8403d0 -->
<g id="edge5" class="edge"><title>Node0xf7da850&#45;&gt;Node0xf8403d0</title>
<path fill="none" stroke="black" d="M348.994,-1542.31C356.606,-1533.29 365.241,-1523.05 374.204,-1512.42"/>
<polygon fill="black" stroke="black" points="377.006,-1514.53 380.778,-1504.63 371.656,-1510.01 377.006,-1514.53"/>
</g>
<!-- Node0xa3fb9b0 -->
<g id="node6" class="node"><title>Node0xa3fb9b0</title>
<polygon fill="none" stroke="black" points="399.5,-1255.5 399.5,-1293.5 506.5,-1293.5 506.5,-1255.5 399.5,-1255.5"/>
<text text-anchor="start" x="407.5" y="-1278.3" font-family="Times,serif" font-size="14.00">if (v13 &gt; &#45;1):</text>
<text text-anchor="start" x="407.5" y="-1263.3" font-family="Times,serif" font-size="14.00"> else:</text>
</g>
<!-- Node0xf8403d0&#45;&gt;Node0xa3fb9b0 -->
<g id="edge6" class="edge"><title>Node0xf8403d0&#45;&gt;Node0xa3fb9b0</title>
<path fill="none" stroke="black" d="M453,-1331.42C453,-1321.55 453,-1312.08 453,-1303.83"/>
<polygon fill="black" stroke="black" points="456.5,-1303.75 453,-1293.75 449.5,-1303.75 456.5,-1303.75"/>
</g>
<!-- Node0xf849840 -->
<g id="node7" class="node"><title>Node0xf849840</title>
<polygon fill="none" stroke="black" points="158,-535.5 158,-1203.5 520,-1203.5 520,-535.5 158,-535.5"/>
<text text-anchor="start" x="166" y="-1188.3" font-family="Times,serif" font-size="14.00">0x41ed59:</text>
<text text-anchor="start" x="166" y="-1173.3" font-family="Times,serif" font-size="14.00"> v34 = g7</text>
<text text-anchor="start" x="166" y="-1158.3" font-family="Times,serif" font-size="14.00"> v53 = *(IntToPtrCastExpr&lt;ptr&gt;((v34 + &#45;172)))</text>
<text text-anchor="start" x="166" y="-1143.3" font-family="Times,serif" font-size="14.00"> g2 = v53</text>
<text text-anchor="start" x="166" y="-1128.3" font-family="Times,serif" font-size="14.00"> v59 = *(IntToPtrCastExpr&lt;ptr&gt;((v53 + 32)))</text>
<text text-anchor="start" x="166" y="-1113.3" font-family="Times,serif" font-size="14.00"> g9 = v59</text>
<text text-anchor="start" x="166" y="-1098.3" font-family="Times,serif" font-size="14.00"> v1 = (v34 + &#45;156)</text>
<text text-anchor="start" x="166" y="-1083.3" font-family="Times,serif" font-size="14.00"> g7 = v1</text>
<text text-anchor="start" x="166" y="-1068.3" font-family="Times,serif" font-size="14.00"> lprcSrc = IntToPtrCastExpr&lt;ptr&gt;(v1)</text>
<text text-anchor="start" x="166" y="-1053.3" font-family="Times,serif" font-size="14.00"> v22 = lprcSrc</text>
<text text-anchor="start" x="166" y="-1038.3" font-family="Times,serif" font-size="14.00"> v40 = g3</text>
<text text-anchor="start" x="166" y="-1023.3" font-family="Times,serif" font-size="14.00"> v60 = *(IntToPtrCastExpr&lt;ptr&gt;((v40 + 20)))</text>
<text text-anchor="start" x="166" y="-1008.3" font-family="Times,serif" font-size="14.00"> lprcDst = IntToPtrCastExpr&lt;ptr&gt;(v60)</text>
<text text-anchor="start" x="166" y="-993.3" font-family="Times,serif" font-size="14.00"> v24 = lprcDst</text>
<text text-anchor="start" x="166" y="-978.3" font-family="Times,serif" font-size="14.00"> CopyRect(lprcDst, lprcSrc)</text>
<text text-anchor="start" x="166" y="-963.3" font-family="Times,serif" font-size="14.00"> v41 = g3</text>
<text text-anchor="start" x="166" y="-948.3" font-family="Times,serif" font-size="14.00"> v61 = *(IntToPtrCastExpr&lt;ptr&gt;((v41 + 24)))</text>
<text text-anchor="start" x="166" y="-933.3" font-family="Times,serif" font-size="14.00"> lpRect = IntToPtrCastExpr&lt;ptr&gt;(v61)</text>
<text text-anchor="start" x="166" y="-918.3" font-family="Times,serif" font-size="14.00"> v22 = lpRect</text>
<text text-anchor="start" x="166" y="-903.3" font-family="Times,serif" font-size="14.00"> v42 = g9</text>
<text text-anchor="start" x="166" y="-888.3" font-family="Times,serif" font-size="14.00"> hWnd = *(IntToPtrCastExpr&lt;ptr&gt;((v42 + 32)))</text>
<text text-anchor="start" x="166" y="-873.3" font-family="Times,serif" font-size="14.00"> v24 = IntToPtrCastExpr&lt;ptr&gt;(hWnd)</text>
<text text-anchor="start" x="166" y="-858.3" font-family="Times,serif" font-size="14.00"> GetClientRect(hWnd, lpRect)</text>
<text text-anchor="start" x="166" y="-843.3" font-family="Times,serif" font-size="14.00"> g10 = v5</text>
<text text-anchor="start" x="166" y="-828.3" font-family="Times,serif" font-size="14.00"> v43 = g3</text>
<text text-anchor="start" x="166" y="-813.3" font-family="Times,serif" font-size="14.00"> v62 = *(IntToPtrCastExpr&lt;ptr&gt;((v43 + 28)))</text>
<text text-anchor="start" x="166" y="-798.3" font-family="Times,serif" font-size="14.00"> g2 = v62</text>
<text text-anchor="start" x="166" y="-783.3" font-family="Times,serif" font-size="14.00"> *(IntToPtrCastExpr&lt;ptr&gt;((v43 + &#45;4))) = &#45;1</text>
<text text-anchor="start" x="166" y="-768.3" font-family="Times,serif" font-size="14.00"> v44 = g3</text>
<text text-anchor="start" x="166" y="-753.3" font-family="Times,serif" font-size="14.00"> v63 = *(IntToPtrCastExpr&lt;ptr&gt;((v44 + &#45;16)))</text>
<text text-anchor="start" x="166" y="-738.3" font-family="Times,serif" font-size="14.00"> v69 = g4</text>
<text text-anchor="start" x="166" y="-723.3" font-family="Times,serif" font-size="14.00"> v45 = g2</text>
<text text-anchor="start" x="166" y="-708.3" font-family="Times,serif" font-size="14.00"> *(IntToPtrCastExpr&lt;ptr&gt;((v45 + 4))) = v69</text>
<text text-anchor="start" x="166" y="-693.3" font-family="Times,serif" font-size="14.00"> v46 = g9</text>
<text text-anchor="start" x="166" y="-678.3" font-family="Times,serif" font-size="14.00"> v64 = *(IntToPtrCastExpr&lt;ptr&gt;((v46 + 32)))</text>
<text text-anchor="start" x="166" y="-663.3" font-family="Times,serif" font-size="14.00"> g9 = v64</text>
<text text-anchor="start" x="166" y="-648.3" font-family="Times,serif" font-size="14.00"> v47 = g2</text>
<text text-anchor="start" x="166" y="-633.3" font-family="Times,serif" font-size="14.00"> *(IntToPtrCastExpr&lt;ptr&gt;((v47 + 8))) = v64</text>
<text text-anchor="start" x="166" y="-618.3" font-family="Times,serif" font-size="14.00"> v48 = g2</text>
<text text-anchor="start" x="166" y="-603.3" font-family="Times,serif" font-size="14.00"> v65 = g4</text>
<text text-anchor="start" x="166" y="-588.3" font-family="Times,serif" font-size="14.00"> *(IntToPtrCastExpr&lt;ptr&gt;((v48 + 12))) = v65</text>
<text text-anchor="start" x="166" y="-573.3" font-family="Times,serif" font-size="14.00"> v49 = g2</text>
<text text-anchor="start" x="166" y="-558.3" font-family="Times,serif" font-size="14.00"> v66 = g4</text>
<text text-anchor="start" x="166" y="-543.3" font-family="Times,serif" font-size="14.00"> *(IntToPtrCastExpr&lt;ptr&gt;((v49 + 16))) = v66</text>
</g>
<!-- Node0xa3fb9b0&#45;&gt;Node0xf849840 -->
<g id="edge7" class="edge"><title>Node0xa3fb9b0&#45;&gt;Node0xf849840</title>
<path fill="none" stroke="black" d="M447.88,-1255.4C444.937,-1245 440.859,-1230.58 435.999,-1213.4"/>
<polygon fill="black" stroke="black" points="439.31,-1212.25 433.22,-1203.58 432.575,-1214.15 439.31,-1212.25"/>
<text text-anchor="middle" x="472.5" y="-1225.8" font-family="Times,serif" font-size="14.00">v13 &gt; &#45;1</text>
</g>
<!-- Node0xa40f290 -->
<g id="node8" class="node"><title>Node0xa40f290</title>
<polygon fill="none" stroke="black" points="538,-820.5 538,-918.5 888,-918.5 888,-820.5 538,-820.5"/>
<text text-anchor="start" x="546" y="-903.3" font-family="Times,serif" font-size="14.00">0x41ed40:</text>
<text text-anchor="start" x="546" y="-888.3" font-family="Times,serif" font-size="14.00"> v38 = g3</text>
<text text-anchor="start" x="546" y="-873.3" font-family="Times,serif" font-size="14.00"> *(IntToPtrCastExpr&lt;ptr&gt;((v38 + &#45;4))) = &#45;1</text>
<text text-anchor="start" x="546" y="-858.3" font-family="Times,serif" font-size="14.00"> v39 = g3</text>
<text text-anchor="start" x="546" y="-843.3" font-family="Times,serif" font-size="14.00"> v57 = *(IntToPtrCastExpr&lt;ptr&gt;((v39 + &#45;16)))</text>
<text text-anchor="start" x="546" y="-828.3" font-family="Times,serif" font-size="14.00"> v68 = g4</text>
</g>
<!-- Node0xa3fb9b0&#45;&gt;Node0xa40f290 -->
<g id="edge8" class="edge"><title>Node0xa3fb9b0&#45;&gt;Node0xa40f290</title>
<path fill="none" stroke="black" d="M484.3,-1255.34C492.183,-1249.99 500.3,-1243.74 507,-1237 519.424,-1224.5 519.845,-1219.06 529,-1204 586.728,-1109.01 647.976,-994.978 683.233,-927.864"/>
<polygon fill="black" stroke="black" points="686.488,-929.194 688.032,-918.712 680.288,-925.943 686.488,-929.194"/>
<text text-anchor="middle" x="555.5" y="-1225.8" font-family="Times,serif" font-size="14.00">v13 &lt;= &#45;1</text>
</g>
<!-- Node0xa16eec0 -->
<g id="node9" class="node"><title>Node0xa16eec0</title>
<polygon fill="none" stroke="black" points="276.5,-460.5 276.5,-496.5 401.5,-496.5 401.5,-460.5 276.5,-460.5"/>
<text text-anchor="start" x="284.5" y="-474.8" font-family="Times,serif" font-size="14.00">if (v63 != v69):</text>
</g>
<!-- Node0xf849840&#45;&gt;Node0xa16eec0 -->
<g id="edge9" class="edge"><title>Node0xf849840&#45;&gt;Node0xa16eec0</title>
<path fill="none" stroke="black" d="M339,-535.234C339,-524.391 339,-514.748 339,-506.658"/>
<polygon fill="black" stroke="black" points="342.5,-506.622 339,-496.622 335.5,-506.622 342.5,-506.622"/>
</g>
<!-- Node0xf832570 -->
<g id="node10" class="node"><title>Node0xf832570</title>
<polygon fill="none" stroke="black" points="650.5,-459.5 650.5,-497.5 775.5,-497.5 775.5,-459.5 650.5,-459.5"/>
<text text-anchor="start" x="658.5" y="-482.3" font-family="Times,serif" font-size="14.00">if (v57 != v68):</text>
<text text-anchor="start" x="658.5" y="-467.3" font-family="Times,serif" font-size="14.00"> else:</text>
</g>
<!-- Node0xa40f290&#45;&gt;Node0xf832570 -->
<g id="edge10" class="edge"><title>Node0xa40f290&#45;&gt;Node0xf832570</title>
<path fill="none" stroke="black" d="M713,-820.411C713,-738.382 713,-573.886 713,-507.872"/>
<polygon fill="black" stroke="black" points="716.5,-507.794 713,-497.794 709.5,-507.794 716.5,-507.794"/>
</g>
<!-- Node0xa40f3e0 -->
<g id="node11" class="node"><title>Node0xa40f3e0</title>
<polygon fill="none" stroke="black" points="0,-279.5 0,-407.5 350,-407.5 350,-279.5 0,-279.5"/>
<text text-anchor="start" x="8" y="-392.3" font-family="Times,serif" font-size="14.00">0x41ed99:</text>
<text text-anchor="start" x="8" y="-377.3" font-family="Times,serif" font-size="14.00"> v50 = g3</text>
<text text-anchor="start" x="8" y="-362.3" font-family="Times,serif" font-size="14.00"> v67 = *(IntToPtrCastExpr&lt;ptr&gt;((v50 + &#45;20)))</text>
<text text-anchor="start" x="8" y="-347.3" font-family="Times,serif" font-size="14.00"> v22 = IntToPtrCastExpr&lt;ptr&gt;(v67)</text>
<text text-anchor="start" x="8" y="-332.3" font-family="Times,serif" font-size="14.00"> v31 = g4</text>
<text text-anchor="start" x="8" y="-317.3" font-family="Times,serif" font-size="14.00"> v24 = IntToPtrCastExpr&lt;ptr&gt;(v31)</text>
<text text-anchor="start" x="8" y="-302.3" font-family="Times,serif" font-size="14.00"> g10 = PtrToIntCastExpr&lt;int32&gt;(&amp;(v24))</text>
<text text-anchor="start" x="8" y="-287.3" font-family="Times,serif" font-size="14.00"> function_419779()</text>
</g>
<!-- Node0xa16eec0&#45;&gt;Node0xa40f3e0 -->
<g id="edge11" class="edge"><title>Node0xa16eec0&#45;&gt;Node0xa40f3e0</title>
<path fill="none" stroke="black" d="M316.422,-460.181C308.645,-454.159 299.904,-447.327 292,-441 281.248,-432.394 270.006,-423.276 258.922,-414.215"/>
<polygon fill="black" stroke="black" points="260.843,-411.264 250.888,-407.636 256.407,-416.68 260.843,-411.264"/>
<text text-anchor="middle" x="332" y="-429.8" font-family="Times,serif" font-size="14.00">v63 != v69</text>
</g>
<!-- Node0xf775e90 -->
<g id="node12" class="node"><title>Node0xf775e90</title>
<polygon fill="none" stroke="black" points="339.5,-196 339.5,-234 432.5,-234 432.5,-196 339.5,-196"/>
<text text-anchor="start" x="347.5" y="-218.8" font-family="Times,serif" font-size="14.00">0x41eda2:</text>
<text text-anchor="start" x="347.5" y="-203.8" font-family="Times,serif" font-size="14.00"> result = 0</text>
</g>
<!-- Node0xa16eec0&#45;&gt;Node0xf775e90 -->
<g id="edge12" class="edge"><title>Node0xa16eec0&#45;&gt;Node0xf775e90</title>
<path fill="none" stroke="black" d="M358.867,-460.3C364.051,-454.701 369.016,-448.086 372,-441 399.857,-374.856 394.988,-288.02 389.984,-244.077"/>
<polygon fill="black" stroke="black" points="393.454,-243.617 388.762,-234.118 386.506,-244.47 393.454,-243.617"/>
<text text-anchor="middle" x="437" y="-339.8" font-family="Times,serif" font-size="14.00">v63 == v69</text>
</g>
<!-- Node0xf83baf0 -->
<g id="node13" class="node"><title>Node0xf83baf0</title>
<polygon fill="none" stroke="black" points="490,-287 490,-400 840,-400 840,-287 490,-287"/>
<text text-anchor="start" x="498" y="-384.8" font-family="Times,serif" font-size="14.00">0x41ed49:</text>
<text text-anchor="start" x="498" y="-369.8" font-family="Times,serif" font-size="14.00"> v58 = *(IntToPtrCastExpr&lt;ptr&gt;((v39 + &#45;20)))</text>
<text text-anchor="start" x="498" y="-354.8" font-family="Times,serif" font-size="14.00"> v22 = IntToPtrCastExpr&lt;ptr&gt;(v58)</text>
<text text-anchor="start" x="498" y="-339.8" font-family="Times,serif" font-size="14.00"> v24 = IntToPtrCastExpr&lt;ptr&gt;(v68)</text>
<text text-anchor="start" x="498" y="-324.8" font-family="Times,serif" font-size="14.00"> g10 = PtrToIntCastExpr&lt;int32&gt;(&amp;(v24))</text>
<text text-anchor="start" x="498" y="-309.8" font-family="Times,serif" font-size="14.00"> function_419779()</text>
<text text-anchor="start" x="498" y="-294.8" font-family="Times,serif" font-size="14.00"> result = &#45;2147467259</text>
</g>
<!-- Node0xf832570&#45;&gt;Node0xf83baf0 -->
<g id="edge13" class="edge"><title>Node0xf832570&#45;&gt;Node0xf83baf0</title>
<path fill="none" stroke="black" d="M706.426,-459.286C701.726,-446.26 695.089,-427.873 688.503,-409.624"/>
<polygon fill="black" stroke="black" points="691.761,-408.34 685.074,-400.122 685.177,-410.716 691.761,-408.34"/>
<text text-anchor="middle" x="738" y="-429.8" font-family="Times,serif" font-size="14.00">v57 != v68</text>
</g>
<!-- Node0xf779b50 -->
<g id="node14" class="node"><title>Node0xf779b50</title>
<polygon fill="none" stroke="black" points="858,-325.5 858,-361.5 1032,-361.5 1032,-325.5 858,-325.5"/>
<text text-anchor="start" x="866" y="-339.8" font-family="Times,serif" font-size="14.00">result = &#45;2147467259</text>
</g>
<!-- Node0xf832570&#45;&gt;Node0xf779b50 -->
<g id="edge14" class="edge"><title>Node0xf832570&#45;&gt;Node0xf779b50</title>
<path fill="none" stroke="black" d="M751.13,-459.437C778.735,-446.018 816.712,-426.849 849,-408 870.504,-395.446 893.819,-380.069 912.087,-367.59"/>
<polygon fill="black" stroke="black" points="914.363,-370.273 920.62,-361.723 910.397,-364.505 914.363,-370.273"/>
<text text-anchor="middle" x="859" y="-429.8" font-family="Times,serif" font-size="14.00">v57 == v68</text>
</g>
<!-- Node0xa40f3e0&#45;&gt;Node0xf775e90 -->
<g id="edge15" class="edge"><title>Node0xa40f3e0&#45;&gt;Node0xf775e90</title>
<path fill="none" stroke="black" d="M280.191,-279.435C304.074,-265.117 327.978,-250.786 347.007,-239.377"/>
<polygon fill="black" stroke="black" points="348.885,-242.332 355.662,-234.189 345.285,-236.329 348.885,-242.332"/>
</g>
<!-- Node0xf7b8be0 -->
<g id="node15" class="node"><title>Node0xf7b8be0</title>
<polygon fill="none" stroke="black" points="460,-97.5 460,-150.5 590,-150.5 590,-97.5 460,-97.5"/>
<text text-anchor="start" x="468" y="-135.3" font-family="Times,serif" font-size="14.00">0x41eda4:</text>
<text text-anchor="start" x="468" y="-120.3" font-family="Times,serif" font-size="14.00"> __EH_epilog3()</text>
<text text-anchor="start" x="468" y="-105.3" font-family="Times,serif" font-size="14.00"> return result</text>
</g>
<!-- Node0xf775e90&#45;&gt;Node0xf7b8be0 -->
<g id="edge16" class="edge"><title>Node0xf775e90&#45;&gt;Node0xf7b8be0</title>
<path fill="none" stroke="black" d="M414.129,-195.99C432.047,-184.516 455.735,-169.35 476.613,-155.982"/>
<polygon fill="black" stroke="black" points="478.526,-158.913 485.061,-150.573 474.752,-153.017 478.526,-158.913"/>
</g>
<!-- Node0xf766740 -->
<g id="node16" class="node"><title>Node0xf766740</title>
<polygon fill="none" stroke="black" points="600,-188.5 600,-241.5 730,-241.5 730,-188.5 600,-188.5"/>
<text text-anchor="start" x="608" y="-226.3" font-family="Times,serif" font-size="14.00">0x41eda4:</text>
<text text-anchor="start" x="608" y="-211.3" font-family="Times,serif" font-size="14.00"> __EH_epilog3()</text>
<text text-anchor="start" x="608" y="-196.3" font-family="Times,serif" font-size="14.00"> return result</text>
</g>
<!-- Node0xf83baf0&#45;&gt;Node0xf766740 -->
<g id="edge17" class="edge"><title>Node0xf83baf0&#45;&gt;Node0xf766740</title>
<path fill="none" stroke="black" d="M665,-286.647C665,-274.833 665,-262.669 665,-251.836"/>
<polygon fill="black" stroke="black" points="668.5,-251.509 665,-241.509 661.5,-251.509 668.5,-251.509"/>
</g>
<!-- Node0xf779b50&#45;&gt;Node0xf766740 -->
<g id="edge18" class="edge"><title>Node0xf779b50&#45;&gt;Node0xf766740</title>
<path fill="none" stroke="black" d="M922.709,-325.381C903.855,-311.497 875.717,-292.142 849,-279 814.392,-261.977 774.036,-247.603 739.951,-236.902"/>
<polygon fill="black" stroke="black" points="740.64,-233.452 730.052,-233.842 738.572,-240.139 740.64,-233.452"/>
</g>
<!-- Node0xf82ca10 -->
<g id="node17" class="node"><title>Node0xf82ca10</title>
<polygon fill="none" stroke="black" points="579,-23.5 579,-59.5 633,-59.5 633,-23.5 579,-23.5"/>
<text text-anchor="start" x="587" y="-37.8" font-family="Times,serif" font-size="14.00">exit:</text>
</g>
<!-- Node0xf7b8be0&#45;&gt;Node0xf82ca10 -->
<g id="edge19" class="edge"><title>Node0xf7b8be0&#45;&gt;Node0xf82ca10</title>
<path fill="none" stroke="black" d="M551.075,-97.0862C560.709,-87.5117 571.595,-76.6922 581.121,-67.2257"/>
<polygon fill="black" stroke="black" points="583.792,-69.5052 588.418,-59.9735 578.858,-64.5401 583.792,-69.5052"/>
</g>
<!-- Node0xf766740&#45;&gt;Node0xf82ca10 -->
<g id="edge20" class="edge"><title>Node0xf766740&#45;&gt;Node0xf82ca10</title>
<path fill="none" stroke="black" d="M656.167,-188.325C645.202,-156.453 626.583,-102.329 615.373,-69.7456"/>
<polygon fill="black" stroke="black" points="618.576,-68.2964 612.013,-59.979 611.957,-70.5737 618.576,-68.2964"/>
</g>
</g>
</svg>
