<?xml version="1.0" encoding="UTF-8" standalone="no"?>
<!DOCTYPE svg PUBLIC "-//W3C//DTD SVG 1.1//EN"
 "http://www.w3.org/Graphics/SVG/1.1/DTD/svg11.dtd">
<!-- Generated by graphviz version 2.38.0 (20140413.2041)
 -->
<!-- Title: Control&#45;flow graph for function &#39;function_4138f6(a1)&#39;. Pages: 1 -->
<svg width="409pt" height="518pt"
 viewBox="0.00 0.00 409.00 518.00" xmlns="http://www.w3.org/2000/svg" xmlns:xlink="http://www.w3.org/1999/xlink">
<g id="graph0" class="graph" transform="scale(1 1) rotate(0) translate(4 514)">
<title>Control&#45;flow graph for function &#39;function_4138f6(a1)&#39;.</title>
<polygon fill="white" stroke="none" points="-4,4 -4,-514 405,-514 405,4 -4,4"/>
<text text-anchor="middle" x="200.5" y="-7.8" font-family="Times,serif" font-size="14.00">Control&#45;flow graph for function &#39;function_4138f6(a1)&#39;.</text>
<!-- Node0xf33c140 -->
<g id="node1" class="node"><title>Node0xf33c140</title>
<polygon fill="none" stroke="black" points="171,-471.5 171,-509.5 230,-509.5 230,-471.5 171,-471.5"/>
<text text-anchor="start" x="179" y="-494.3" font-family="Times,serif" font-size="14.00">entry:</text>
<text text-anchor="start" x="179" y="-479.3" font-family="Times,serif" font-size="14.00"> a1</text>
</g>
<!-- Node0xf33c730 -->
<g id="node2" class="node"><title>Node0xf33c730</title>
<polygon fill="none" stroke="black" points="32,-96.5 32,-434.5 369,-434.5 369,-96.5 32,-96.5"/>
<text text-anchor="start" x="40" y="-419.3" font-family="Times,serif" font-size="14.00">result</text>
<text text-anchor="start" x="40" y="-404.3" font-family="Times,serif" font-size="14.00"> v1</text>
<text text-anchor="start" x="40" y="-389.3" font-family="Times,serif" font-size="14.00"> v2</text>
<text text-anchor="start" x="40" y="-374.3" font-family="Times,serif" font-size="14.00"> v3</text>
<text text-anchor="start" x="40" y="-359.3" font-family="Times,serif" font-size="14.00"> v4</text>
<text text-anchor="start" x="40" y="-344.3" font-family="Times,serif" font-size="14.00"> v5</text>
<text text-anchor="start" x="40" y="-329.3" font-family="Times,serif" font-size="14.00"> v6</text>
<text text-anchor="start" x="40" y="-314.3" font-family="Times,serif" font-size="14.00"> v7</text>
<text text-anchor="start" x="40" y="-299.3" font-family="Times,serif" font-size="14.00"> v8</text>
<text text-anchor="start" x="40" y="-284.3" font-family="Times,serif" font-size="14.00"> v9</text>
<text text-anchor="start" x="40" y="-269.3" font-family="Times,serif" font-size="14.00"> v4 = g5</text>
<text text-anchor="start" x="40" y="-254.3" font-family="Times,serif" font-size="14.00"> v6 = *(IntToPtrCastExpr&lt;ptr&gt;(v4))</text>
<text text-anchor="start" x="40" y="-239.3" font-family="Times,serif" font-size="14.00"> g2 = v6</text>
<text text-anchor="start" x="40" y="-224.3" font-family="Times,serif" font-size="14.00"> v8 = *(IntToPtrCastExpr&lt;ptr&gt;((v6 + 340)))</text>
<text text-anchor="start" x="40" y="-209.3" font-family="Times,serif" font-size="14.00"> IntToPtrCastExpr&lt;ptr&gt;(v8)()</text>
<text text-anchor="start" x="40" y="-194.3" font-family="Times,serif" font-size="14.00"> v5 = g5</text>
<text text-anchor="start" x="40" y="-179.3" font-family="Times,serif" font-size="14.00"> v7 = *(IntToPtrCastExpr&lt;ptr&gt;(v5))</text>
<text text-anchor="start" x="40" y="-164.3" font-family="Times,serif" font-size="14.00"> g2 = v7</text>
<text text-anchor="start" x="40" y="-149.3" font-family="Times,serif" font-size="14.00"> v9 = *(IntToPtrCastExpr&lt;ptr&gt;((v7 + 336)))</text>
<text text-anchor="start" x="40" y="-134.3" font-family="Times,serif" font-size="14.00"> IntToPtrCastExpr&lt;ptr&gt;(v9)()</text>
<text text-anchor="start" x="40" y="-119.3" font-family="Times,serif" font-size="14.00"> result = g2</text>
<text text-anchor="start" x="40" y="-104.3" font-family="Times,serif" font-size="14.00"> return result</text>
</g>
<!-- Node0xf33c140&#45;&gt;Node0xf33c730 -->
<g id="edge1" class="edge"><title>Node0xf33c140&#45;&gt;Node0xf33c730</title>
<path fill="none" stroke="black" d="M200.5,-471.251C200.5,-464.078 200.5,-455.122 200.5,-444.995"/>
<polygon fill="black" stroke="black" points="204,-444.946 200.5,-434.946 197,-444.946 204,-444.946"/>
</g>
<!-- Node0xf33c4c0 -->
<g id="node3" class="node"><title>Node0xf33c4c0</title>
<polygon fill="none" stroke="black" points="173.5,-23.5 173.5,-59.5 227.5,-59.5 227.5,-23.5 173.5,-23.5"/>
<text text-anchor="start" x="181.5" y="-37.8" font-family="Times,serif" font-size="14.00">exit:</text>
</g>
<!-- Node0xf33c730&#45;&gt;Node0xf33c4c0 -->
<g id="edge2" class="edge"><title>Node0xf33c730&#45;&gt;Node0xf33c4c0</title>
<path fill="none" stroke="black" d="M200.5,-96.24C200.5,-86.3752 200.5,-77.3412 200.5,-69.6101"/>
<polygon fill="black" stroke="black" points="204,-69.5972 200.5,-59.5972 197,-69.5973 204,-69.5972"/>
</g>
</g>
</svg>
