<?xml version="1.0" encoding="UTF-8" standalone="no"?>
<!DOCTYPE svg PUBLIC "-//W3C//DTD SVG 1.1//EN"
 "http://www.w3.org/Graphics/SVG/1.1/DTD/svg11.dtd">
<!-- Generated by graphviz version 2.38.0 (20140413.2041)
 -->
<!-- Title: Control&#45;flow graph for function &#39;function_423a2b(a1, a2)&#39;. Pages: 1 -->
<svg width="605pt" height="880pt"
 viewBox="0.00 0.00 605.00 880.00" xmlns="http://www.w3.org/2000/svg" xmlns:xlink="http://www.w3.org/1999/xlink">
<g id="graph0" class="graph" transform="scale(1 1) rotate(0) translate(4 876)">
<title>Control&#45;flow graph for function &#39;function_423a2b(a1, a2)&#39;.</title>
<polygon fill="white" stroke="none" points="-4,4 -4,-876 601,-876 601,4 -4,4"/>
<text text-anchor="middle" x="298.5" y="-7.8" font-family="Times,serif" font-size="14.00">Control&#45;flow graph for function &#39;function_423a2b(a1, a2)&#39;.</text>
<!-- Node0xfacdd20 -->
<g id="node1" class="node"><title>Node0xfacdd20</title>
<polygon fill="none" stroke="black" points="269,-818.5 269,-871.5 328,-871.5 328,-818.5 269,-818.5"/>
<text text-anchor="start" x="277" y="-856.3" font-family="Times,serif" font-size="14.00">entry:</text>
<text text-anchor="start" x="277" y="-841.3" font-family="Times,serif" font-size="14.00"> a1</text>
<text text-anchor="start" x="277" y="-826.3" font-family="Times,serif" font-size="14.00"> a2</text>
</g>
<!-- Node0xfacda20 -->
<g id="node2" class="node"><title>Node0xfacda20</title>
<polygon fill="none" stroke="black" points="0,-382.5 0,-780.5 597,-780.5 597,-382.5 0,-382.5"/>
<text text-anchor="start" x="8" y="-765.3" font-family="Times,serif" font-size="14.00">v1</text>
<text text-anchor="start" x="8" y="-750.3" font-family="Times,serif" font-size="14.00"> v2</text>
<text text-anchor="start" x="8" y="-735.3" font-family="Times,serif" font-size="14.00"> v3</text>
<text text-anchor="start" x="8" y="-720.3" font-family="Times,serif" font-size="14.00"> v4</text>
<text text-anchor="start" x="8" y="-705.3" font-family="Times,serif" font-size="14.00"> v5</text>
<text text-anchor="start" x="8" y="-690.3" font-family="Times,serif" font-size="14.00"> v6</text>
<text text-anchor="start" x="8" y="-675.3" font-family="Times,serif" font-size="14.00"> v7</text>
<text text-anchor="start" x="8" y="-660.3" font-family="Times,serif" font-size="14.00"> v8</text>
<text text-anchor="start" x="8" y="-645.3" font-family="Times,serif" font-size="14.00"> v9</text>
<text text-anchor="start" x="8" y="-630.3" font-family="Times,serif" font-size="14.00"> v10</text>
<text text-anchor="start" x="8" y="-615.3" font-family="Times,serif" font-size="14.00"> v11</text>
<text text-anchor="start" x="8" y="-600.3" font-family="Times,serif" font-size="14.00"> v12</text>
<text text-anchor="start" x="8" y="-585.3" font-family="Times,serif" font-size="14.00"> result</text>
<text text-anchor="start" x="8" y="-570.3" font-family="Times,serif" font-size="14.00"> v13</text>
<text text-anchor="start" x="8" y="-555.3" font-family="Times,serif" font-size="14.00"> v14</text>
<text text-anchor="start" x="8" y="-540.3" font-family="Times,serif" font-size="14.00"> v5 = v6</text>
<text text-anchor="start" x="8" y="-525.3" font-family="Times,serif" font-size="14.00"> v11 = g9</text>
<text text-anchor="start" x="8" y="-510.3" font-family="Times,serif" font-size="14.00"> v5 = IntToPtrCastExpr&lt;ptr&gt;(v11)</text>
<text text-anchor="start" x="8" y="-495.3" font-family="Times,serif" font-size="14.00"> g10 = PtrToIntCastExpr&lt;int32&gt;(&amp;(v5))</text>
<text text-anchor="start" x="8" y="-480.3" font-family="Times,serif" font-size="14.00"> v12 = g5</text>
<text text-anchor="start" x="8" y="-465.3" font-family="Times,serif" font-size="14.00"> g9 = v12</text>
<text text-anchor="start" x="8" y="-450.3" font-family="Times,serif" font-size="14.00"> v14 = *(IntToPtrCastExpr&lt;ptr&gt;((v12 + 12)))</text>
<text text-anchor="start" x="8" y="-435.3" font-family="Times,serif" font-size="14.00"> g5 = (v14 + &#45;16)</text>
<text text-anchor="start" x="8" y="-420.3" font-family="Times,serif" font-size="14.00"> *(IntToPtrCastExpr&lt;ptr&gt;(v12)) = PtrToIntCastExpr&lt;int32&gt;(&amp;(vtable_458cbc))</text>
<text text-anchor="start" x="8" y="-405.3" font-family="Times,serif" font-size="14.00"> v1 = v5</text>
<text text-anchor="start" x="8" y="-390.3" font-family="Times,serif" font-size="14.00"> function_402650(BitCastExpr&lt;ptr&gt;(v1))</text>
</g>
<!-- Node0xfacdd20&#45;&gt;Node0xfacda20 -->
<g id="edge1" class="edge"><title>Node0xfacdd20&#45;&gt;Node0xfacda20</title>
<path fill="none" stroke="black" d="M298.5,-818.45C298.5,-810.61 298.5,-801.289 298.5,-790.95"/>
<polygon fill="black" stroke="black" points="302,-790.742 298.5,-780.742 295,-790.742 302,-790.742"/>
</g>
<!-- Node0xfaed550 -->
<g id="node3" class="node"><title>Node0xfaed550</title>
<polygon fill="none" stroke="black" points="249,-308.5 249,-344.5 348,-344.5 348,-308.5 249,-308.5"/>
<text text-anchor="start" x="257" y="-322.8" font-family="Times,serif" font-size="14.00">if (a1 != 1):</text>
</g>
<!-- Node0xfacda20&#45;&gt;Node0xfaed550 -->
<g id="edge2" class="edge"><title>Node0xfacda20&#45;&gt;Node0xfaed550</title>
<path fill="none" stroke="black" d="M298.5,-382.397C298.5,-372.199 298.5,-362.927 298.5,-355.026"/>
<polygon fill="black" stroke="black" points="302,-354.815 298.5,-344.815 295,-354.815 302,-354.815"/>
</g>
<!-- Node0xfae9b20 -->
<g id="node4" class="node"><title>Node0xfae9b20</title>
<polygon fill="none" stroke="black" points="145.5,-218.5 145.5,-256.5 297.5,-256.5 297.5,-218.5 145.5,-218.5"/>
<text text-anchor="start" x="153.5" y="-241.3" font-family="Times,serif" font-size="14.00">0x423a46:</text>
<text text-anchor="start" x="153.5" y="-226.3" font-family="Times,serif" font-size="14.00"> function_40c783()</text>
</g>
<!-- Node0xfaed550&#45;&gt;Node0xfae9b20 -->
<g id="edge3" class="edge"><title>Node0xfaed550&#45;&gt;Node0xfae9b20</title>
<path fill="none" stroke="black" d="M282.24,-308.299C276.859,-302.53 270.875,-296.031 265.5,-290 258.223,-281.836 250.427,-272.806 243.448,-264.618"/>
<polygon fill="black" stroke="black" points="245.931,-262.134 236.792,-256.774 240.593,-266.663 245.931,-262.134"/>
<text text-anchor="middle" x="292.5" y="-278.8" font-family="Times,serif" font-size="14.00">a1 != 1</text>
</g>
<!-- Node0xfaca5b0 -->
<g id="node5" class="node"><title>Node0xfaca5b0</title>
<polygon fill="none" stroke="black" points="156.5,-97.5 156.5,-180.5 442.5,-180.5 442.5,-97.5 156.5,-97.5"/>
<text text-anchor="start" x="164.5" y="-165.3" font-family="Times,serif" font-size="14.00">0x423a4d:</text>
<text text-anchor="start" x="164.5" y="-150.3" font-family="Times,serif" font-size="14.00"> result = g9</text>
<text text-anchor="start" x="164.5" y="-135.3" font-family="Times,serif" font-size="14.00"> v13 = v5</text>
<text text-anchor="start" x="164.5" y="-120.3" font-family="Times,serif" font-size="14.00"> g9 = PtrToIntCastExpr&lt;int32&gt;(v13)</text>
<text text-anchor="start" x="164.5" y="-105.3" font-family="Times,serif" font-size="14.00"> return result</text>
</g>
<!-- Node0xfaed550&#45;&gt;Node0xfaca5b0 -->
<g id="edge4" class="edge"><title>Node0xfaed550&#45;&gt;Node0xfaca5b0</title>
<path fill="none" stroke="black" d="M311.172,-308.283C314.56,-302.726 317.761,-296.354 319.5,-290 328.37,-257.585 323.382,-220.112 316.17,-190.73"/>
<polygon fill="black" stroke="black" points="319.463,-189.484 313.546,-180.696 312.69,-191.256 319.463,-189.484"/>
<text text-anchor="middle" x="353.5" y="-233.8" font-family="Times,serif" font-size="14.00">a1 == 1</text>
</g>
<!-- Node0xfae9b20&#45;&gt;Node0xfaca5b0 -->
<g id="edge5" class="edge"><title>Node0xfae9b20&#45;&gt;Node0xfaca5b0</title>
<path fill="none" stroke="black" d="M236.171,-218.349C242.993,-209.909 251.469,-199.422 259.979,-188.895"/>
<polygon fill="black" stroke="black" points="262.901,-190.847 266.465,-180.87 257.457,-186.447 262.901,-190.847"/>
</g>
<!-- Node0xfacd9a0 -->
<g id="node6" class="node"><title>Node0xfacd9a0</title>
<polygon fill="none" stroke="black" points="272.5,-23.5 272.5,-59.5 326.5,-59.5 326.5,-23.5 272.5,-23.5"/>
<text text-anchor="start" x="280.5" y="-37.8" font-family="Times,serif" font-size="14.00">exit:</text>
</g>
<!-- Node0xfaca5b0&#45;&gt;Node0xfacd9a0 -->
<g id="edge6" class="edge"><title>Node0xfaca5b0&#45;&gt;Node0xfacd9a0</title>
<path fill="none" stroke="black" d="M299.5,-97.4994C299.5,-88.2058 299.5,-78.537 299.5,-69.9459"/>
<polygon fill="black" stroke="black" points="303,-69.7494 299.5,-59.7494 296,-69.7494 303,-69.7494"/>
</g>
</g>
</svg>
