<?xml version="1.0" encoding="UTF-8" standalone="no"?>
<!DOCTYPE svg PUBLIC "-//W3C//DTD SVG 1.1//EN"
 "http://www.w3.org/Graphics/SVG/1.1/DTD/svg11.dtd">
<!-- Generated by graphviz version 2.38.0 (20140413.2041)
 -->
<!-- Title: Control&#45;flow graph for function &#39;function_45548d()&#39;. Pages: 1 -->
<svg width="480pt" height="306pt"
 viewBox="0.00 0.00 480.00 306.00" xmlns="http://www.w3.org/2000/svg" xmlns:xlink="http://www.w3.org/1999/xlink">
<g id="graph0" class="graph" transform="scale(1 1) rotate(0) translate(4 302)">
<title>Control&#45;flow graph for function &#39;function_45548d()&#39;.</title>
<polygon fill="white" stroke="none" points="-4,4 -4,-302 476,-302 476,4 -4,4"/>
<text text-anchor="middle" x="236" y="-7.8" font-family="Times,serif" font-size="14.00">Control&#45;flow graph for function &#39;function_45548d()&#39;.</text>
<!-- Node0x10211ac0 -->
<g id="node1" class="node"><title>Node0x10211ac0</title>
<polygon fill="none" stroke="black" points="206.5,-261.5 206.5,-297.5 265.5,-297.5 265.5,-261.5 206.5,-261.5"/>
<text text-anchor="start" x="214.5" y="-275.8" font-family="Times,serif" font-size="14.00">entry:</text>
</g>
<!-- Node0x10211f00 -->
<g id="node2" class="node"><title>Node0x10211f00</title>
<polygon fill="none" stroke="black" points="0,-96.5 0,-224.5 472,-224.5 472,-96.5 0,-96.5"/>
<text text-anchor="start" x="8" y="-209.3" font-family="Times,serif" font-size="14.00">result</text>
<text text-anchor="start" x="8" y="-194.3" font-family="Times,serif" font-size="14.00"> v1</text>
<text text-anchor="start" x="8" y="-179.3" font-family="Times,serif" font-size="14.00"> v2</text>
<text text-anchor="start" x="8" y="-164.3" font-family="Times,serif" font-size="14.00"> v3</text>
<text text-anchor="start" x="8" y="-149.3" font-family="Times,serif" font-size="14.00"> v4</text>
<text text-anchor="start" x="8" y="-134.3" font-family="Times,serif" font-size="14.00"> result = RegisterWindowMessageA(&quot;commctrl_DragListMsg&quot;)</text>
<text text-anchor="start" x="8" y="-119.3" font-family="Times,serif" font-size="14.00"> g70 = result</text>
<text text-anchor="start" x="8" y="-104.3" font-family="Times,serif" font-size="14.00"> return result</text>
</g>
<!-- Node0x10211ac0&#45;&gt;Node0x10211f00 -->
<g id="edge1" class="edge"><title>Node0x10211ac0&#45;&gt;Node0x10211f00</title>
<path fill="none" stroke="black" d="M236,-261.487C236,-254.024 236,-244.706 236,-234.78"/>
<polygon fill="black" stroke="black" points="239.5,-234.697 236,-224.697 232.5,-234.697 239.5,-234.697"/>
</g>
<!-- Node0x10211a20 -->
<g id="node3" class="node"><title>Node0x10211a20</title>
<polygon fill="none" stroke="black" points="209,-23.5 209,-59.5 263,-59.5 263,-23.5 209,-23.5"/>
<text text-anchor="start" x="217" y="-37.8" font-family="Times,serif" font-size="14.00">exit:</text>
</g>
<!-- Node0x10211f00&#45;&gt;Node0x10211a20 -->
<g id="edge2" class="edge"><title>Node0x10211f00&#45;&gt;Node0x10211a20</title>
<path fill="none" stroke="black" d="M236,-96.206C236,-87.0257 236,-78.004 236,-70.0532"/>
<polygon fill="black" stroke="black" points="239.5,-69.9607 236,-59.9608 232.5,-69.9608 239.5,-69.9607"/>
</g>
</g>
</svg>
