<?xml version="1.0" encoding="UTF-8" standalone="no"?>
<!DOCTYPE svg PUBLIC "-//W3C//DTD SVG 1.1//EN"
 "http://www.w3.org/Graphics/SVG/1.1/DTD/svg11.dtd">
<!-- Generated by graphviz version 2.38.0 (20140413.2041)
 -->
<!-- Title: Control&#45;flow graph for function &#39;function_403070(a1)&#39;. Pages: 1 -->
<svg width="1194pt" height="774pt"
 viewBox="0.00 0.00 1194.00 774.00" xmlns="http://www.w3.org/2000/svg" xmlns:xlink="http://www.w3.org/1999/xlink">
<g id="graph0" class="graph" transform="scale(1 1) rotate(0) translate(4 770)">
<title>Control&#45;flow graph for function &#39;function_403070(a1)&#39;.</title>
<polygon fill="white" stroke="none" points="-4,4 -4,-770 1190,-770 1190,4 -4,4"/>
<text text-anchor="middle" x="593" y="-7.8" font-family="Times,serif" font-size="14.00">Control&#45;flow graph for function &#39;function_403070(a1)&#39;.</text>
<!-- Node0xef13a20 -->
<g id="node1" class="node"><title>Node0xef13a20</title>
<polygon fill="none" stroke="black" points="563.5,-727.5 563.5,-765.5 622.5,-765.5 622.5,-727.5 563.5,-727.5"/>
<text text-anchor="start" x="571.5" y="-750.3" font-family="Times,serif" font-size="14.00">entry:</text>
<text text-anchor="start" x="571.5" y="-735.3" font-family="Times,serif" font-size="14.00"> a1</text>
</g>
<!-- Node0xef16040 -->
<g id="node2" class="node"><title>Node0xef16040</title>
<polygon fill="none" stroke="black" points="405.5,-291.5 405.5,-689.5 780.5,-689.5 780.5,-291.5 405.5,-291.5"/>
<text text-anchor="start" x="413.5" y="-674.3" font-family="Times,serif" font-size="14.00">v1</text>
<text text-anchor="start" x="413.5" y="-659.3" font-family="Times,serif" font-size="14.00"> v2</text>
<text text-anchor="start" x="413.5" y="-644.3" font-family="Times,serif" font-size="14.00"> v3</text>
<text text-anchor="start" x="413.5" y="-629.3" font-family="Times,serif" font-size="14.00"> v4</text>
<text text-anchor="start" x="413.5" y="-614.3" font-family="Times,serif" font-size="14.00"> v5</text>
<text text-anchor="start" x="413.5" y="-599.3" font-family="Times,serif" font-size="14.00"> v6</text>
<text text-anchor="start" x="413.5" y="-584.3" font-family="Times,serif" font-size="14.00"> v7</text>
<text text-anchor="start" x="413.5" y="-569.3" font-family="Times,serif" font-size="14.00"> v8</text>
<text text-anchor="start" x="413.5" y="-554.3" font-family="Times,serif" font-size="14.00"> v9</text>
<text text-anchor="start" x="413.5" y="-539.3" font-family="Times,serif" font-size="14.00"> v10</text>
<text text-anchor="start" x="413.5" y="-524.3" font-family="Times,serif" font-size="14.00"> v11</text>
<text text-anchor="start" x="413.5" y="-509.3" font-family="Times,serif" font-size="14.00"> v12</text>
<text text-anchor="start" x="413.5" y="-494.3" font-family="Times,serif" font-size="14.00"> v13</text>
<text text-anchor="start" x="413.5" y="-479.3" font-family="Times,serif" font-size="14.00"> v14</text>
<text text-anchor="start" x="413.5" y="-464.3" font-family="Times,serif" font-size="14.00"> v15</text>
<text text-anchor="start" x="413.5" y="-449.3" font-family="Times,serif" font-size="14.00"> v4 = v5</text>
<text text-anchor="start" x="413.5" y="-434.3" font-family="Times,serif" font-size="14.00"> v13 = g162</text>
<text text-anchor="start" x="413.5" y="-419.3" font-family="Times,serif" font-size="14.00"> g2 = v13</text>
<text text-anchor="start" x="413.5" y="-404.3" font-family="Times,serif" font-size="14.00"> v12 = g9</text>
<text text-anchor="start" x="413.5" y="-389.3" font-family="Times,serif" font-size="14.00"> v7 = v12</text>
<text text-anchor="start" x="413.5" y="-374.3" font-family="Times,serif" font-size="14.00"> v15 = *(IntToPtrCastExpr&lt;ptr&gt;((v13 + 4)))</text>
<text text-anchor="start" x="413.5" y="-359.3" font-family="Times,serif" font-size="14.00"> g9 = v15</text>
<text text-anchor="start" x="413.5" y="-344.3" font-family="Times,serif" font-size="14.00"> v1 = function_4058e0(BitCastExpr&lt;ptr&gt;(&amp;(v7)))</text>
<text text-anchor="start" x="413.5" y="-329.3" font-family="Times,serif" font-size="14.00"> v14 = v7</text>
<text text-anchor="start" x="413.5" y="-314.3" font-family="Times,serif" font-size="14.00"> g9 = v14</text>
<text text-anchor="start" x="413.5" y="-299.3" font-family="Times,serif" font-size="14.00"> v7 = 0</text>
</g>
<!-- Node0xef13a20&#45;&gt;Node0xef16040 -->
<g id="edge1" class="edge"><title>Node0xef13a20&#45;&gt;Node0xef16040</title>
<path fill="none" stroke="black" d="M593,-727.233C593,-719.83 593,-710.501 593,-699.855"/>
<polygon fill="black" stroke="black" points="596.5,-699.724 593,-689.724 589.5,-699.724 596.5,-699.724"/>
</g>
<!-- Node0xef15300 -->
<g id="node3" class="node"><title>Node0xef15300</title>
<polygon fill="none" stroke="black" points="540.5,-217.5 540.5,-253.5 645.5,-253.5 645.5,-217.5 540.5,-217.5"/>
<text text-anchor="start" x="548.5" y="-231.8" font-family="Times,serif" font-size="14.00">if (v1 == 1):</text>
</g>
<!-- Node0xef16040&#45;&gt;Node0xef15300 -->
<g id="edge2" class="edge"><title>Node0xef16040&#45;&gt;Node0xef15300</title>
<path fill="none" stroke="black" d="M593,-291.397C593,-281.199 593,-271.927 593,-264.026"/>
<polygon fill="black" stroke="black" points="596.5,-263.815 593,-253.815 589.5,-263.815 596.5,-263.815"/>
</g>
<!-- Node0xef16740 -->
<g id="node4" class="node"><title>Node0xef16740</title>
<polygon fill="none" stroke="black" points="0,-97.5 0,-165.5 584,-165.5 584,-97.5 0,-97.5"/>
<text text-anchor="start" x="8" y="-150.3" font-family="Times,serif" font-size="14.00">0x403087:</text>
<text text-anchor="start" x="8" y="-135.3" font-family="Times,serif" font-size="14.00"> v4 = 4577504</text>
<text text-anchor="start" x="8" y="-120.3" font-family="Times,serif" font-size="14.00"> function_4187e2(BitCastExpr&lt;ptr&gt;(&amp;(v4)), NULL, BitCastExpr&lt;ptr&gt;(&amp;(v7)))</text>
<text text-anchor="start" x="8" y="-105.3" font-family="Times,serif" font-size="14.00"> return 0</text>
</g>
<!-- Node0xef15300&#45;&gt;Node0xef16740 -->
<g id="edge3" class="edge"><title>Node0xef15300&#45;&gt;Node0xef16740</title>
<path fill="none" stroke="black" d="M542.619,-217.427C503.552,-204.189 448.011,-185.368 399.14,-168.807"/>
<polygon fill="black" stroke="black" points="400.056,-165.421 389.461,-165.527 397.809,-172.051 400.056,-165.421"/>
<text text-anchor="middle" x="518" y="-187.8" font-family="Times,serif" font-size="14.00">v1 == 1</text>
</g>
<!-- Node0xef166e0 -->
<g id="node5" class="node"><title>Node0xef166e0</title>
<polygon fill="none" stroke="black" points="602,-97.5 602,-165.5 1186,-165.5 1186,-97.5 602,-97.5"/>
<text text-anchor="start" x="610" y="-150.3" font-family="Times,serif" font-size="14.00">0x403096:</text>
<text text-anchor="start" x="610" y="-135.3" font-family="Times,serif" font-size="14.00"> v4 = 4577516</text>
<text text-anchor="start" x="610" y="-120.3" font-family="Times,serif" font-size="14.00"> function_4187e2(BitCastExpr&lt;ptr&gt;(&amp;(v4)), NULL, BitCastExpr&lt;ptr&gt;(&amp;(v7)))</text>
<text text-anchor="start" x="610" y="-105.3" font-family="Times,serif" font-size="14.00"> return 0</text>
</g>
<!-- Node0xef15300&#45;&gt;Node0xef166e0 -->
<g id="edge4" class="edge"><title>Node0xef15300&#45;&gt;Node0xef166e0</title>
<path fill="none" stroke="black" d="M643.381,-217.427C682.448,-204.189 737.989,-185.368 786.86,-168.807"/>
<polygon fill="black" stroke="black" points="788.191,-172.051 796.539,-165.527 785.944,-165.421 788.191,-172.051"/>
<text text-anchor="middle" x="761" y="-187.8" font-family="Times,serif" font-size="14.00">v1 != 1</text>
</g>
<!-- Node0xef15fe0 -->
<g id="node6" class="node"><title>Node0xef15fe0</title>
<polygon fill="none" stroke="black" points="637,-23.5 637,-59.5 691,-59.5 691,-23.5 637,-23.5"/>
<text text-anchor="start" x="645" y="-37.8" font-family="Times,serif" font-size="14.00">exit:</text>
</g>
<!-- Node0xef16740&#45;&gt;Node0xef15fe0 -->
<g id="edge5" class="edge"><title>Node0xef16740&#45;&gt;Node0xef15fe0</title>
<path fill="none" stroke="black" d="M431.577,-97.4817C501.772,-80.8765 581.391,-62.042 626.857,-51.2864"/>
<polygon fill="black" stroke="black" points="627.914,-54.633 636.84,-48.9249 626.303,-47.821 627.914,-54.633"/>
</g>
<!-- Node0xef166e0&#45;&gt;Node0xef15fe0 -->
<g id="edge6" class="edge"><title>Node0xef166e0&#45;&gt;Node0xef15fe0</title>
<path fill="none" stroke="black" d="M807.702,-97.4817C770.758,-83.3467 729.593,-67.5964 700.823,-56.5889"/>
<polygon fill="black" stroke="black" points="701.782,-53.2083 691.191,-52.9037 699.28,-59.7461 701.782,-53.2083"/>
</g>
</g>
</svg>
