<?xml version="1.0" encoding="UTF-8" standalone="no"?>
<!DOCTYPE svg PUBLIC "-//W3C//DTD SVG 1.1//EN"
 "http://www.w3.org/Graphics/SVG/1.1/DTD/svg11.dtd">
<!-- Generated by graphviz version 2.38.0 (20140413.2041)
 -->
<!-- Title: Control&#45;flow graph for function &#39;function_408fe0(a1, cx)&#39;. Pages: 1 -->
<svg width="873pt" height="942pt"
 viewBox="0.00 0.00 872.50 942.00" xmlns="http://www.w3.org/2000/svg" xmlns:xlink="http://www.w3.org/1999/xlink">
<g id="graph0" class="graph" transform="scale(1 1) rotate(0) translate(4 938)">
<title>Control&#45;flow graph for function &#39;function_408fe0(a1, cx)&#39;.</title>
<polygon fill="white" stroke="none" points="-4,4 -4,-938 868.5,-938 868.5,4 -4,4"/>
<text text-anchor="middle" x="432.25" y="-7.8" font-family="Times,serif" font-size="14.00">Control&#45;flow graph for function &#39;function_408fe0(a1, cx)&#39;.</text>
<!-- Node0xef37d90 -->
<g id="node1" class="node"><title>Node0xef37d90</title>
<polygon fill="none" stroke="black" points="569.5,-880.5 569.5,-933.5 628.5,-933.5 628.5,-880.5 569.5,-880.5"/>
<text text-anchor="start" x="577.5" y="-918.3" font-family="Times,serif" font-size="14.00">entry:</text>
<text text-anchor="start" x="577.5" y="-903.3" font-family="Times,serif" font-size="14.00"> a1</text>
<text text-anchor="start" x="577.5" y="-888.3" font-family="Times,serif" font-size="14.00"> cx</text>
</g>
<!-- Node0xef39770 -->
<g id="node2" class="node"><title>Node0xef39770</title>
<polygon fill="none" stroke="black" points="523.5,-444.5 523.5,-842.5 674.5,-842.5 674.5,-444.5 523.5,-444.5"/>
<text text-anchor="start" x="531.5" y="-827.3" font-family="Times,serif" font-size="14.00">v1</text>
<text text-anchor="start" x="531.5" y="-812.3" font-family="Times,serif" font-size="14.00"> v2</text>
<text text-anchor="start" x="531.5" y="-797.3" font-family="Times,serif" font-size="14.00"> v3</text>
<text text-anchor="start" x="531.5" y="-782.3" font-family="Times,serif" font-size="14.00"> result</text>
<text text-anchor="start" x="531.5" y="-767.3" font-family="Times,serif" font-size="14.00"> v4</text>
<text text-anchor="start" x="531.5" y="-752.3" font-family="Times,serif" font-size="14.00"> v5</text>
<text text-anchor="start" x="531.5" y="-737.3" font-family="Times,serif" font-size="14.00"> v6</text>
<text text-anchor="start" x="531.5" y="-722.3" font-family="Times,serif" font-size="14.00"> v7</text>
<text text-anchor="start" x="531.5" y="-707.3" font-family="Times,serif" font-size="14.00"> v8</text>
<text text-anchor="start" x="531.5" y="-692.3" font-family="Times,serif" font-size="14.00"> v9</text>
<text text-anchor="start" x="531.5" y="-677.3" font-family="Times,serif" font-size="14.00"> v10</text>
<text text-anchor="start" x="531.5" y="-662.3" font-family="Times,serif" font-size="14.00"> v11</text>
<text text-anchor="start" x="531.5" y="-647.3" font-family="Times,serif" font-size="14.00"> v12</text>
<text text-anchor="start" x="531.5" y="-632.3" font-family="Times,serif" font-size="14.00"> v13</text>
<text text-anchor="start" x="531.5" y="-617.3" font-family="Times,serif" font-size="14.00"> v14</text>
<text text-anchor="start" x="531.5" y="-602.3" font-family="Times,serif" font-size="14.00"> v15</text>
<text text-anchor="start" x="531.5" y="-587.3" font-family="Times,serif" font-size="14.00"> v16</text>
<text text-anchor="start" x="531.5" y="-572.3" font-family="Times,serif" font-size="14.00"> v17</text>
<text text-anchor="start" x="531.5" y="-557.3" font-family="Times,serif" font-size="14.00"> v18</text>
<text text-anchor="start" x="531.5" y="-542.3" font-family="Times,serif" font-size="14.00"> v19</text>
<text text-anchor="start" x="531.5" y="-527.3" font-family="Times,serif" font-size="14.00"> cy</text>
<text text-anchor="start" x="531.5" y="-512.3" font-family="Times,serif" font-size="14.00"> hWnd</text>
<text text-anchor="start" x="531.5" y="-497.3" font-family="Times,serif" font-size="14.00"> v11 = v12</text>
<text text-anchor="start" x="531.5" y="-482.3" font-family="Times,serif" font-size="14.00"> v14 = v15</text>
<text text-anchor="start" x="531.5" y="-467.3" font-family="Times,serif" font-size="14.00"> function_40edc7()</text>
<text text-anchor="start" x="531.5" y="-452.3" font-family="Times,serif" font-size="14.00"> v19 = g177</text>
</g>
<!-- Node0xef37d90&#45;&gt;Node0xef39770 -->
<g id="edge1" class="edge"><title>Node0xef37d90&#45;&gt;Node0xef39770</title>
<path fill="none" stroke="black" d="M599,-880.45C599,-872.61 599,-863.289 599,-852.95"/>
<polygon fill="black" stroke="black" points="602.5,-852.742 599,-842.742 595.5,-852.742 602.5,-852.742"/>
</g>
<!-- Node0xef3a1a0 -->
<g id="node3" class="node"><title>Node0xef3a1a0</title>
<polygon fill="none" stroke="black" points="545,-368.5 545,-406.5 653,-406.5 653,-368.5 545,-368.5"/>
<text text-anchor="start" x="553" y="-391.3" font-family="Times,serif" font-size="14.00">if (v19 != 0):</text>
<text text-anchor="start" x="553" y="-376.3" font-family="Times,serif" font-size="14.00"> else:</text>
</g>
<!-- Node0xef39770&#45;&gt;Node0xef3a1a0 -->
<g id="edge2" class="edge"><title>Node0xef39770&#45;&gt;Node0xef3a1a0</title>
<path fill="none" stroke="black" d="M599,-444.241C599,-433.954 599,-424.589 599,-416.595"/>
<polygon fill="black" stroke="black" points="602.5,-416.586 599,-406.586 595.5,-416.586 602.5,-416.586"/>
</g>
<!-- Node0xef398a0 -->
<g id="node4" class="node"><title>Node0xef398a0</title>
<polygon fill="none" stroke="black" points="0,-173.5 0,-316.5 758,-316.5 758,-173.5 0,-173.5"/>
<text text-anchor="start" x="8" y="-301.3" font-family="Times,serif" font-size="14.00">0x408fee:</text>
<text text-anchor="start" x="8" y="-286.3" font-family="Times,serif" font-size="14.00"> cy = v14</text>
<text text-anchor="start" x="8" y="-271.3" font-family="Times,serif" font-size="14.00"> g8 = cx</text>
<text text-anchor="start" x="8" y="-256.3" font-family="Times,serif" font-size="14.00"> hWnd = *(IntToPtrCastExpr&lt;ptr&gt;((v19 + 32)))</text>
<text text-anchor="start" x="8" y="-241.3" font-family="Times,serif" font-size="14.00"> g2 = hWnd</text>
<text text-anchor="start" x="8" y="-226.3" font-family="Times,serif" font-size="14.00"> v11 = cy</text>
<text text-anchor="start" x="8" y="-211.3" font-family="Times,serif" font-size="14.00"> v3 = SetWindowPos(IntToPtrCastExpr&lt;ptr&gt;(hWnd), NULL, 0, 0, cx, PtrToIntCastExpr&lt;int32&gt;(cy), 6)</text>
<text text-anchor="start" x="8" y="-196.3" font-family="Times,serif" font-size="14.00"> v1 = ExtCastExpr&lt;int32&gt;(v3)</text>
<text text-anchor="start" x="8" y="-181.3" font-family="Times,serif" font-size="14.00"> result = v1</text>
</g>
<!-- Node0xef3a1a0&#45;&gt;Node0xef398a0 -->
<g id="edge3" class="edge"><title>Node0xef3a1a0&#45;&gt;Node0xef398a0</title>
<path fill="none" stroke="black" d="M570.689,-368.42C551.653,-356.263 525.14,-339.33 497.893,-321.93"/>
<polygon fill="black" stroke="black" points="499.734,-318.952 489.422,-316.519 495.966,-324.852 499.734,-318.952"/>
<text text-anchor="middle" x="571.5" y="-338.8" font-family="Times,serif" font-size="14.00">v19 != 0</text>
</g>
<!-- Node0xef3a6a0 -->
<g id="node5" class="node"><title>Node0xef3a6a0</title>
<polygon fill="none" stroke="black" points="775.5,-227 775.5,-263 864.5,-263 864.5,-227 775.5,-227"/>
<text text-anchor="start" x="783.5" y="-241.3" font-family="Times,serif" font-size="14.00">result = 0</text>
</g>
<!-- Node0xef3a1a0&#45;&gt;Node0xef3a6a0 -->
<g id="edge4" class="edge"><title>Node0xef3a1a0&#45;&gt;Node0xef3a6a0</title>
<path fill="none" stroke="black" d="M653.183,-372.251C688.149,-361.185 733.236,-343.253 767,-317 782.687,-304.802 796.039,-286.835 805.417,-272.027"/>
<polygon fill="black" stroke="black" points="808.522,-273.657 810.728,-263.295 802.541,-270.02 808.522,-273.657"/>
<text text-anchor="middle" x="772.5" y="-338.8" font-family="Times,serif" font-size="14.00">v19 == 0</text>
</g>
<!-- Node0xef397d0 -->
<g id="node6" class="node"><title>Node0xef397d0</title>
<polygon fill="none" stroke="black" points="594.5,-97.5 594.5,-135.5 707.5,-135.5 707.5,-97.5 594.5,-97.5"/>
<text text-anchor="start" x="602.5" y="-120.3" font-family="Times,serif" font-size="14.00">0x40900a:</text>
<text text-anchor="start" x="602.5" y="-105.3" font-family="Times,serif" font-size="14.00"> return result</text>
</g>
<!-- Node0xef398a0&#45;&gt;Node0xef397d0 -->
<g id="edge5" class="edge"><title>Node0xef398a0&#45;&gt;Node0xef397d0</title>
<path fill="none" stroke="black" d="M530.905,-173.353C557.076,-161.182 582.45,-149.381 603.079,-139.787"/>
<polygon fill="black" stroke="black" points="604.618,-142.931 612.21,-135.54 601.666,-136.584 604.618,-142.931"/>
</g>
<!-- Node0xef3a6a0&#45;&gt;Node0xef397d0 -->
<g id="edge6" class="edge"><title>Node0xef3a6a0&#45;&gt;Node0xef397d0</title>
<path fill="none" stroke="black" d="M810.543,-226.937C801.164,-211.268 785.539,-188.235 767,-173 750.547,-159.479 730.249,-148.328 711.257,-139.659"/>
<polygon fill="black" stroke="black" points="712.622,-136.436 702.06,-135.603 709.798,-142.841 712.622,-136.436"/>
</g>
<!-- Node0xef39710 -->
<g id="node7" class="node"><title>Node0xef39710</title>
<polygon fill="none" stroke="black" points="624,-23.5 624,-59.5 678,-59.5 678,-23.5 624,-23.5"/>
<text text-anchor="start" x="632" y="-37.8" font-family="Times,serif" font-size="14.00">exit:</text>
</g>
<!-- Node0xef397d0&#45;&gt;Node0xef39710 -->
<g id="edge7" class="edge"><title>Node0xef397d0&#45;&gt;Node0xef39710</title>
<path fill="none" stroke="black" d="M651,-97.4551C651,-89.2008 651,-79.2377 651,-70.0742"/>
<polygon fill="black" stroke="black" points="654.5,-69.8347 651,-59.8347 647.5,-69.8347 654.5,-69.8347"/>
</g>
</g>
</svg>
