<?xml version="1.0" encoding="UTF-8" standalone="no"?>
<!DOCTYPE svg PUBLIC "-//W3C//DTD SVG 1.1//EN"
 "http://www.w3.org/Graphics/SVG/1.1/DTD/svg11.dtd">
<!-- Generated by graphviz version 2.38.0 (20140413.2041)
 -->
<!-- Title: Control&#45;flow graph for function &#39;function_4134ee()&#39;. Pages: 1 -->
<svg width="607pt" height="1598pt"
 viewBox="0.00 0.00 607.00 1598.00" xmlns="http://www.w3.org/2000/svg" xmlns:xlink="http://www.w3.org/1999/xlink">
<g id="graph0" class="graph" transform="scale(1 1) rotate(0) translate(4 1594)">
<title>Control&#45;flow graph for function &#39;function_4134ee()&#39;.</title>
<polygon fill="white" stroke="none" points="-4,4 -4,-1594 603,-1594 603,4 -4,4"/>
<text text-anchor="middle" x="299.5" y="-7.8" font-family="Times,serif" font-size="14.00">Control&#45;flow graph for function &#39;function_4134ee()&#39;.</text>
<!-- Node0xf328900 -->
<g id="node1" class="node"><title>Node0xf328900</title>
<polygon fill="none" stroke="black" points="270,-1553.5 270,-1589.5 329,-1589.5 329,-1553.5 270,-1553.5"/>
<text text-anchor="start" x="278" y="-1567.8" font-family="Times,serif" font-size="14.00">entry:</text>
</g>
<!-- Node0xf328a00 -->
<g id="node2" class="node"><title>Node0xf328a00</title>
<polygon fill="none" stroke="black" points="0,-382.5 0,-1515.5 599,-1515.5 599,-382.5 0,-382.5"/>
<text text-anchor="start" x="8" y="-1500.3" font-family="Times,serif" font-size="14.00">v1</text>
<text text-anchor="start" x="8" y="-1485.3" font-family="Times,serif" font-size="14.00"> lpPaint</text>
<text text-anchor="start" x="8" y="-1470.3" font-family="Times,serif" font-size="14.00"> v2</text>
<text text-anchor="start" x="8" y="-1455.3" font-family="Times,serif" font-size="14.00"> v3</text>
<text text-anchor="start" x="8" y="-1440.3" font-family="Times,serif" font-size="14.00"> v4</text>
<text text-anchor="start" x="8" y="-1425.3" font-family="Times,serif" font-size="14.00"> v5</text>
<text text-anchor="start" x="8" y="-1410.3" font-family="Times,serif" font-size="14.00"> v6</text>
<text text-anchor="start" x="8" y="-1395.3" font-family="Times,serif" font-size="14.00"> v7</text>
<text text-anchor="start" x="8" y="-1380.3" font-family="Times,serif" font-size="14.00"> v8</text>
<text text-anchor="start" x="8" y="-1365.3" font-family="Times,serif" font-size="14.00"> v9</text>
<text text-anchor="start" x="8" y="-1350.3" font-family="Times,serif" font-size="14.00"> v10</text>
<text text-anchor="start" x="8" y="-1335.3" font-family="Times,serif" font-size="14.00"> v11</text>
<text text-anchor="start" x="8" y="-1320.3" font-family="Times,serif" font-size="14.00"> v12</text>
<text text-anchor="start" x="8" y="-1305.3" font-family="Times,serif" font-size="14.00"> v13</text>
<text text-anchor="start" x="8" y="-1290.3" font-family="Times,serif" font-size="14.00"> v14</text>
<text text-anchor="start" x="8" y="-1275.3" font-family="Times,serif" font-size="14.00"> v15</text>
<text text-anchor="start" x="8" y="-1260.3" font-family="Times,serif" font-size="14.00"> v16</text>
<text text-anchor="start" x="8" y="-1245.3" font-family="Times,serif" font-size="14.00"> v17</text>
<text text-anchor="start" x="8" y="-1230.3" font-family="Times,serif" font-size="14.00"> v18</text>
<text text-anchor="start" x="8" y="-1215.3" font-family="Times,serif" font-size="14.00"> v19</text>
<text text-anchor="start" x="8" y="-1200.3" font-family="Times,serif" font-size="14.00"> v20</text>
<text text-anchor="start" x="8" y="-1185.3" font-family="Times,serif" font-size="14.00"> result</text>
<text text-anchor="start" x="8" y="-1170.3" font-family="Times,serif" font-size="14.00"> v21</text>
<text text-anchor="start" x="8" y="-1155.3" font-family="Times,serif" font-size="14.00"> v22</text>
<text text-anchor="start" x="8" y="-1140.3" font-family="Times,serif" font-size="14.00"> v23</text>
<text text-anchor="start" x="8" y="-1125.3" font-family="Times,serif" font-size="14.00"> v24</text>
<text text-anchor="start" x="8" y="-1110.3" font-family="Times,serif" font-size="14.00"> v25</text>
<text text-anchor="start" x="8" y="-1095.3" font-family="Times,serif" font-size="14.00"> v26</text>
<text text-anchor="start" x="8" y="-1080.3" font-family="Times,serif" font-size="14.00"> v27</text>
<text text-anchor="start" x="8" y="-1065.3" font-family="Times,serif" font-size="14.00"> v28</text>
<text text-anchor="start" x="8" y="-1050.3" font-family="Times,serif" font-size="14.00"> v29</text>
<text text-anchor="start" x="8" y="-1035.3" font-family="Times,serif" font-size="14.00"> v30</text>
<text text-anchor="start" x="8" y="-1020.3" font-family="Times,serif" font-size="14.00"> v31</text>
<text text-anchor="start" x="8" y="-1005.3" font-family="Times,serif" font-size="14.00"> v32</text>
<text text-anchor="start" x="8" y="-990.3" font-family="Times,serif" font-size="14.00"> v33</text>
<text text-anchor="start" x="8" y="-975.3" font-family="Times,serif" font-size="14.00"> hWnd</text>
<text text-anchor="start" x="8" y="-960.3" font-family="Times,serif" font-size="14.00"> v15 = v16</text>
<text text-anchor="start" x="8" y="-945.3" font-family="Times,serif" font-size="14.00"> g2 = 4534506</text>
<text text-anchor="start" x="8" y="-930.3" font-family="Times,serif" font-size="14.00"> __EH_prolog3()</text>
<text text-anchor="start" x="8" y="-915.3" font-family="Times,serif" font-size="14.00"> v18 = g5</text>
<text text-anchor="start" x="8" y="-900.3" font-family="Times,serif" font-size="14.00"> g9 = v18</text>
<text text-anchor="start" x="8" y="-885.3" font-family="Times,serif" font-size="14.00"> v21 = g3</text>
<text text-anchor="start" x="8" y="-870.3" font-family="Times,serif" font-size="14.00"> *(IntToPtrCastExpr&lt;ptr&gt;((v21 + &#45;16))) = v18</text>
<text text-anchor="start" x="8" y="-855.3" font-family="Times,serif" font-size="14.00"> g2 = 0</text>
<text text-anchor="start" x="8" y="-840.3" font-family="Times,serif" font-size="14.00"> v22 = g9</text>
<text text-anchor="start" x="8" y="-825.3" font-family="Times,serif" font-size="14.00"> *(IntToPtrCastExpr&lt;ptr&gt;((v22 + 4))) = 0</text>
<text text-anchor="start" x="8" y="-810.3" font-family="Times,serif" font-size="14.00"> v23 = g9</text>
<text text-anchor="start" x="8" y="-795.3" font-family="Times,serif" font-size="14.00"> v30 = g2</text>
<text text-anchor="start" x="8" y="-780.3" font-family="Times,serif" font-size="14.00"> *(IntToPtrCastExpr&lt;ptr&gt;((v23 + 8))) = v30</text>
<text text-anchor="start" x="8" y="-765.3" font-family="Times,serif" font-size="14.00"> v24 = g9</text>
<text text-anchor="start" x="8" y="-750.3" font-family="Times,serif" font-size="14.00"> v31 = g2</text>
<text text-anchor="start" x="8" y="-735.3" font-family="Times,serif" font-size="14.00"> *(IntToPtrCastExpr&lt;ptr&gt;((v24 + 12))) = v31</text>
<text text-anchor="start" x="8" y="-720.3" font-family="Times,serif" font-size="14.00"> v25 = g3</text>
<text text-anchor="start" x="8" y="-705.3" font-family="Times,serif" font-size="14.00"> v32 = g2</text>
<text text-anchor="start" x="8" y="-690.3" font-family="Times,serif" font-size="14.00"> *(IntToPtrCastExpr&lt;ptr&gt;((v25 + &#45;4))) = v32</text>
<text text-anchor="start" x="8" y="-675.3" font-family="Times,serif" font-size="14.00"> v26 = g3</text>
<text text-anchor="start" x="8" y="-660.3" font-family="Times,serif" font-size="14.00"> v33 = *(IntToPtrCastExpr&lt;ptr&gt;((v26 + 8)))</text>
<text text-anchor="start" x="8" y="-645.3" font-family="Times,serif" font-size="14.00"> g2 = v33</text>
<text text-anchor="start" x="8" y="-630.3" font-family="Times,serif" font-size="14.00"> v27 = g9</text>
<text text-anchor="start" x="8" y="-615.3" font-family="Times,serif" font-size="14.00"> v9 = (v27 + 20)</text>
<text text-anchor="start" x="8" y="-600.3" font-family="Times,serif" font-size="14.00"> *(IntToPtrCastExpr&lt;ptr&gt;(v27)) = PtrToIntCastExpr&lt;int32&gt;(&amp;(vtable_457554))</text>
<text text-anchor="start" x="8" y="-585.3" font-family="Times,serif" font-size="14.00"> v28 = g2</text>
<text text-anchor="start" x="8" y="-570.3" font-family="Times,serif" font-size="14.00"> hWnd = *(IntToPtrCastExpr&lt;ptr&gt;((v28 + 32)))</text>
<text text-anchor="start" x="8" y="-555.3" font-family="Times,serif" font-size="14.00"> g2 = hWnd</text>
<text text-anchor="start" x="8" y="-540.3" font-family="Times,serif" font-size="14.00"> v19 = v9</text>
<text text-anchor="start" x="8" y="-525.3" font-family="Times,serif" font-size="14.00"> v15 = IntToPtrCastExpr&lt;ptr&gt;(v19)</text>
<text text-anchor="start" x="8" y="-510.3" font-family="Times,serif" font-size="14.00"> v29 = g9</text>
<text text-anchor="start" x="8" y="-495.3" font-family="Times,serif" font-size="14.00"> *(IntToPtrCastExpr&lt;ptr&gt;((v29 + 16))) = hWnd</text>
<text text-anchor="start" x="8" y="-480.3" font-family="Times,serif" font-size="14.00"> lpPaint = v15</text>
<text text-anchor="start" x="8" y="-465.3" font-family="Times,serif" font-size="14.00"> v10 = BeginPaint(IntToPtrCastExpr&lt;ptr&gt;(hWnd), BitCastExpr&lt;ptr&gt;(lpPaint))</text>
<text text-anchor="start" x="8" y="-450.3" font-family="Times,serif" font-size="14.00"> v15 = BitCastExpr&lt;ptr&gt;(v10)</text>
<text text-anchor="start" x="8" y="-435.3" font-family="Times,serif" font-size="14.00"> v20 = g9</text>
<text text-anchor="start" x="8" y="-420.3" font-family="Times,serif" font-size="14.00"> g5 = v20</text>
<text text-anchor="start" x="8" y="-405.3" font-family="Times,serif" font-size="14.00"> v11 = function_41333d(BitCastExpr&lt;ptr&gt;(v10), v14)</text>
<text text-anchor="start" x="8" y="-390.3" font-family="Times,serif" font-size="14.00"> g1 = False</text>
</g>
<!-- Node0xf328900&#45;&gt;Node0xf328a00 -->
<g id="edge1" class="edge"><title>Node0xf328900&#45;&gt;Node0xf328a00</title>
<path fill="none" stroke="black" d="M299.5,-1553.26C299.5,-1546.07 299.5,-1536.8 299.5,-1525.8"/>
<polygon fill="black" stroke="black" points="303,-1525.69 299.5,-1515.69 296,-1525.69 303,-1525.69"/>
</g>
<!-- Node0xf3288a0 -->
<g id="node3" class="node"><title>Node0xf3288a0</title>
<polygon fill="none" stroke="black" points="242.5,-308.5 242.5,-344.5 356.5,-344.5 356.5,-308.5 242.5,-308.5"/>
<text text-anchor="start" x="250.5" y="-322.8" font-family="Times,serif" font-size="14.00">if (v11 == 0):</text>
</g>
<!-- Node0xf328a00&#45;&gt;Node0xf3288a0 -->
<g id="edge2" class="edge"><title>Node0xf328a00&#45;&gt;Node0xf3288a0</title>
<path fill="none" stroke="black" d="M299.5,-382.293C299.5,-371.945 299.5,-362.82 299.5,-355.131"/>
<polygon fill="black" stroke="black" points="303,-354.919 299.5,-344.92 296,-354.92 303,-354.919"/>
</g>
<!-- Node0xf329980 -->
<g id="node4" class="node"><title>Node0xf329980</title>
<polygon fill="none" stroke="black" points="136.5,-203.5 136.5,-256.5 306.5,-256.5 306.5,-203.5 136.5,-203.5"/>
<text text-anchor="start" x="144.5" y="-241.3" font-family="Times,serif" font-size="14.00">0x413533:</text>
<text text-anchor="start" x="144.5" y="-226.3" font-family="Times,serif" font-size="14.00"> v1 = v15</text>
<text text-anchor="start" x="144.5" y="-211.3" font-family="Times,serif" font-size="14.00"> function_412d77(v1)</text>
</g>
<!-- Node0xf3288a0&#45;&gt;Node0xf329980 -->
<g id="edge3" class="edge"><title>Node0xf3288a0&#45;&gt;Node0xf329980</title>
<path fill="none" stroke="black" d="M278.129,-308.445C271.788,-302.895 265.059,-296.486 259.5,-290 253.027,-282.447 246.818,-273.711 241.363,-265.315"/>
<polygon fill="black" stroke="black" points="244.261,-263.35 235.971,-256.752 238.338,-267.079 244.261,-263.35"/>
<text text-anchor="middle" x="294" y="-278.8" font-family="Times,serif" font-size="14.00">v11 == 0</text>
</g>
<!-- Node0xf3297e0 -->
<g id="node5" class="node"><title>Node0xf3297e0</title>
<polygon fill="none" stroke="black" points="240.5,-97.5 240.5,-165.5 370.5,-165.5 370.5,-97.5 240.5,-97.5"/>
<text text-anchor="start" x="248.5" y="-150.3" font-family="Times,serif" font-size="14.00">0x413538:</text>
<text text-anchor="start" x="248.5" y="-135.3" font-family="Times,serif" font-size="14.00"> result = g9</text>
<text text-anchor="start" x="248.5" y="-120.3" font-family="Times,serif" font-size="14.00"> __EH_epilog3()</text>
<text text-anchor="start" x="248.5" y="-105.3" font-family="Times,serif" font-size="14.00"> return result</text>
</g>
<!-- Node0xf3288a0&#45;&gt;Node0xf3297e0 -->
<g id="edge4" class="edge"><title>Node0xf3288a0&#45;&gt;Node0xf3297e0</title>
<path fill="none" stroke="black" d="M317.537,-308.223C321.986,-302.853 326.148,-296.597 328.5,-290 341.83,-252.612 332.96,-207.595 322.606,-175.281"/>
<polygon fill="black" stroke="black" points="325.881,-174.039 319.368,-165.683 319.248,-176.277 325.881,-174.039"/>
<text text-anchor="middle" x="366" y="-226.3" font-family="Times,serif" font-size="14.00">v11 != 0</text>
</g>
<!-- Node0xf329980&#45;&gt;Node0xf3297e0 -->
<g id="edge5" class="edge"><title>Node0xf329980&#45;&gt;Node0xf3297e0</title>
<path fill="none" stroke="black" d="M243.79,-203.393C251.846,-194.138 261.154,-183.446 270.058,-173.216"/>
<polygon fill="black" stroke="black" points="272.835,-175.356 276.761,-165.516 267.555,-170.761 272.835,-175.356"/>
</g>
<!-- Node0xf328980 -->
<g id="node6" class="node"><title>Node0xf328980</title>
<polygon fill="none" stroke="black" points="278.5,-23.5 278.5,-59.5 332.5,-59.5 332.5,-23.5 278.5,-23.5"/>
<text text-anchor="start" x="286.5" y="-37.8" font-family="Times,serif" font-size="14.00">exit:</text>
</g>
<!-- Node0xf3297e0&#45;&gt;Node0xf328980 -->
<g id="edge6" class="edge"><title>Node0xf3297e0&#45;&gt;Node0xf328980</title>
<path fill="none" stroke="black" d="M305.5,-97.4817C305.5,-88.3281 305.5,-78.4972 305.5,-69.7155"/>
<polygon fill="black" stroke="black" points="309,-69.6402 305.5,-59.6402 302,-69.6403 309,-69.6402"/>
</g>
</g>
</svg>
