<?xml version="1.0" encoding="UTF-8" standalone="no"?>
<!DOCTYPE svg PUBLIC "-//W3C//DTD SVG 1.1//EN"
 "http://www.w3.org/Graphics/SVG/1.1/DTD/svg11.dtd">
<!-- Generated by graphviz version 2.38.0 (20140413.2041)
 -->
<!-- Title: Control&#45;flow graph for function &#39;function_40da25()&#39;. Pages: 1 -->
<svg width="674pt" height="1495pt"
 viewBox="0.00 0.00 673.50 1495.00" xmlns="http://www.w3.org/2000/svg" xmlns:xlink="http://www.w3.org/1999/xlink">
<g id="graph0" class="graph" transform="scale(1 1) rotate(0) translate(4 1491)">
<title>Control&#45;flow graph for function &#39;function_40da25()&#39;.</title>
<polygon fill="white" stroke="none" points="-4,4 -4,-1491 669.5,-1491 669.5,4 -4,4"/>
<text text-anchor="middle" x="332.75" y="-7.8" font-family="Times,serif" font-size="14.00">Control&#45;flow graph for function &#39;function_40da25()&#39;.</text>
<!-- Node0xf07a310 -->
<g id="node1" class="node"><title>Node0xf07a310</title>
<polygon fill="none" stroke="black" points="193,-1450.5 193,-1486.5 252,-1486.5 252,-1450.5 193,-1450.5"/>
<text text-anchor="start" x="201" y="-1464.8" font-family="Times,serif" font-size="14.00">entry:</text>
</g>
<!-- Node0xf07bac0 -->
<g id="node2" class="node"><title>Node0xf07bac0</title>
<polygon fill="none" stroke="black" points="0,-579.5 0,-1412.5 445,-1412.5 445,-579.5 0,-579.5"/>
<text text-anchor="start" x="8" y="-1397.3" font-family="Times,serif" font-size="14.00">v1</text>
<text text-anchor="start" x="8" y="-1382.3" font-family="Times,serif" font-size="14.00"> v2</text>
<text text-anchor="start" x="8" y="-1367.3" font-family="Times,serif" font-size="14.00"> v3</text>
<text text-anchor="start" x="8" y="-1352.3" font-family="Times,serif" font-size="14.00"> v4</text>
<text text-anchor="start" x="8" y="-1337.3" font-family="Times,serif" font-size="14.00"> v5</text>
<text text-anchor="start" x="8" y="-1322.3" font-family="Times,serif" font-size="14.00"> v6</text>
<text text-anchor="start" x="8" y="-1307.3" font-family="Times,serif" font-size="14.00"> v7</text>
<text text-anchor="start" x="8" y="-1292.3" font-family="Times,serif" font-size="14.00"> v8</text>
<text text-anchor="start" x="8" y="-1277.3" font-family="Times,serif" font-size="14.00"> v9</text>
<text text-anchor="start" x="8" y="-1262.3" font-family="Times,serif" font-size="14.00"> v10</text>
<text text-anchor="start" x="8" y="-1247.3" font-family="Times,serif" font-size="14.00"> moduleHandle</text>
<text text-anchor="start" x="8" y="-1232.3" font-family="Times,serif" font-size="14.00"> v11</text>
<text text-anchor="start" x="8" y="-1217.3" font-family="Times,serif" font-size="14.00"> result</text>
<text text-anchor="start" x="8" y="-1202.3" font-family="Times,serif" font-size="14.00"> v12</text>
<text text-anchor="start" x="8" y="-1187.3" font-family="Times,serif" font-size="14.00"> v13</text>
<text text-anchor="start" x="8" y="-1172.3" font-family="Times,serif" font-size="14.00"> v14</text>
<text text-anchor="start" x="8" y="-1157.3" font-family="Times,serif" font-size="14.00"> v15</text>
<text text-anchor="start" x="8" y="-1142.3" font-family="Times,serif" font-size="14.00"> v16</text>
<text text-anchor="start" x="8" y="-1127.3" font-family="Times,serif" font-size="14.00"> v17</text>
<text text-anchor="start" x="8" y="-1112.3" font-family="Times,serif" font-size="14.00"> v18</text>
<text text-anchor="start" x="8" y="-1097.3" font-family="Times,serif" font-size="14.00"> v19</text>
<text text-anchor="start" x="8" y="-1082.3" font-family="Times,serif" font-size="14.00"> v20</text>
<text text-anchor="start" x="8" y="-1067.3" font-family="Times,serif" font-size="14.00"> v21</text>
<text text-anchor="start" x="8" y="-1052.3" font-family="Times,serif" font-size="14.00"> v22</text>
<text text-anchor="start" x="8" y="-1037.3" font-family="Times,serif" font-size="14.00"> v23</text>
<text text-anchor="start" x="8" y="-1022.3" font-family="Times,serif" font-size="14.00"> v24</text>
<text text-anchor="start" x="8" y="-1007.3" font-family="Times,serif" font-size="14.00"> v25</text>
<text text-anchor="start" x="8" y="-992.3" font-family="Times,serif" font-size="14.00"> v26</text>
<text text-anchor="start" x="8" y="-977.3" font-family="Times,serif" font-size="14.00"> v27</text>
<text text-anchor="start" x="8" y="-962.3" font-family="Times,serif" font-size="14.00"> v28</text>
<text text-anchor="start" x="8" y="-947.3" font-family="Times,serif" font-size="14.00"> v29</text>
<text text-anchor="start" x="8" y="-932.3" font-family="Times,serif" font-size="14.00"> v30</text>
<text text-anchor="start" x="8" y="-917.3" font-family="Times,serif" font-size="14.00"> v31</text>
<text text-anchor="start" x="8" y="-902.3" font-family="Times,serif" font-size="14.00"> v32</text>
<text text-anchor="start" x="8" y="-887.3" font-family="Times,serif" font-size="14.00"> lpLibFileName</text>
<text text-anchor="start" x="8" y="-872.3" font-family="Times,serif" font-size="14.00"> v33</text>
<text text-anchor="start" x="8" y="-857.3" font-family="Times,serif" font-size="14.00"> v13 = v14</text>
<text text-anchor="start" x="8" y="-842.3" font-family="Times,serif" font-size="14.00"> __SEH_prolog4()</text>
<text text-anchor="start" x="8" y="-827.3" font-family="Times,serif" font-size="14.00"> g4 = 0</text>
<text text-anchor="start" x="8" y="-812.3" font-family="Times,serif" font-size="14.00"> v21 = g3</text>
<text text-anchor="start" x="8" y="-797.3" font-family="Times,serif" font-size="14.00"> *(IntToPtrCastExpr&lt;ptr&gt;((v21 + &#45;32))) = 0</text>
<text text-anchor="start" x="8" y="-782.3" font-family="Times,serif" font-size="14.00"> v22 = g3</text>
<text text-anchor="start" x="8" y="-767.3" font-family="Times,serif" font-size="14.00"> v30 = (v22 + &#45;32)</text>
<text text-anchor="start" x="8" y="-752.3" font-family="Times,serif" font-size="14.00"> g2 = v30</text>
<text text-anchor="start" x="8" y="-737.3" font-family="Times,serif" font-size="14.00"> v9 = function_419f61()</text>
<text text-anchor="start" x="8" y="-722.3" font-family="Times,serif" font-size="14.00"> v31 = *(IntToPtrCastExpr&lt;ptr&gt;((v9 + 128)))</text>
<text text-anchor="start" x="8" y="-707.3" font-family="Times,serif" font-size="14.00"> v13 = IntToPtrCastExpr&lt;ptr&gt;(v31)</text>
<text text-anchor="start" x="8" y="-692.3" font-family="Times,serif" font-size="14.00"> v3 = PtrToIntCastExpr&lt;int32&gt;(&amp;(v13))</text>
<text text-anchor="start" x="8" y="-677.3" font-family="Times,serif" font-size="14.00"> v10 = function_419789(v31, IntToPtrCastExpr&lt;ptr&gt;(v30))</text>
<text text-anchor="start" x="8" y="-662.3" font-family="Times,serif" font-size="14.00"> v23 = g3</text>
<text text-anchor="start" x="8" y="-647.3" font-family="Times,serif" font-size="14.00"> *(IntToPtrCastExpr&lt;ptr&gt;((v23 + &#45;36))) = v10</text>
<text text-anchor="start" x="8" y="-632.3" font-family="Times,serif" font-size="14.00"> v24 = g3</text>
<text text-anchor="start" x="8" y="-617.3" font-family="Times,serif" font-size="14.00"> v32 = g4</text>
<text text-anchor="start" x="8" y="-602.3" font-family="Times,serif" font-size="14.00"> *(IntToPtrCastExpr&lt;ptr&gt;((v24 + &#45;28))) = v32</text>
<text text-anchor="start" x="8" y="-587.3" font-family="Times,serif" font-size="14.00"> v20 = g4</text>
</g>
<!-- Node0xf07a310&#45;&gt;Node0xf07bac0 -->
<g id="edge1" class="edge"><title>Node0xf07a310&#45;&gt;Node0xf07bac0</title>
<path fill="none" stroke="black" d="M222.5,-1450.48C222.5,-1443.21 222.5,-1433.84 222.5,-1422.77"/>
<polygon fill="black" stroke="black" points="226,-1422.62 222.5,-1412.62 219,-1422.62 226,-1422.62"/>
</g>
<!-- Node0xf07b650 -->
<g id="node3" class="node"><title>Node0xf07b650</title>
<polygon fill="none" stroke="black" points="157,-503.5 157,-541.5 288,-541.5 288,-503.5 157,-503.5"/>
<text text-anchor="start" x="165" y="-526.3" font-family="Times,serif" font-size="14.00">if (v10 == v20):</text>
<text text-anchor="start" x="165" y="-511.3" font-family="Times,serif" font-size="14.00"> else:</text>
</g>
<!-- Node0xf07bac0&#45;&gt;Node0xf07b650 -->
<g id="edge2" class="edge"><title>Node0xf07bac0&#45;&gt;Node0xf07b650</title>
<path fill="none" stroke="black" d="M222.5,-579.439C222.5,-569.095 222.5,-559.888 222.5,-552.077"/>
<polygon fill="black" stroke="black" points="226,-551.992 222.5,-541.992 219,-551.992 226,-551.992"/>
</g>
<!-- Node0xf07c270 -->
<g id="node4" class="node"><title>Node0xf07c270</title>
<polygon fill="none" stroke="black" points="3.5,-301 3.5,-354 101.5,-354 101.5,-301 3.5,-301"/>
<text text-anchor="start" x="11.5" y="-338.8" font-family="Times,serif" font-size="14.00">0x40da54:</text>
<text text-anchor="start" x="11.5" y="-323.8" font-family="Times,serif" font-size="14.00"> g1 = False</text>
<text text-anchor="start" x="11.5" y="-308.8" font-family="Times,serif" font-size="14.00"> v19 = 0</text>
</g>
<!-- Node0xf07b650&#45;&gt;Node0xf07c270 -->
<g id="edge3" class="edge"><title>Node0xf07b650&#45;&gt;Node0xf07c270</title>
<path fill="none" stroke="black" d="M181.646,-503.439C158.411,-491.527 130.125,-474.052 110.5,-452 87.7389,-426.424 72.1909,-390.361 62.9666,-363.805"/>
<polygon fill="black" stroke="black" points="66.2249,-362.512 59.7391,-354.135 59.585,-364.728 66.2249,-362.512"/>
<text text-anchor="middle" x="192.5" y="-473.8" font-family="Times,serif" font-size="14.00">v10 == v20</text>
</g>
<!-- Node0xf07c2d0 -->
<g id="node5" class="node"><title>Node0xf07c2d0</title>
<polygon fill="none" stroke="black" points="119.5,-203.5 119.5,-451.5 665.5,-451.5 665.5,-203.5 119.5,-203.5"/>
<text text-anchor="start" x="127.5" y="-436.3" font-family="Times,serif" font-size="14.00">0x40da58:</text>
<text text-anchor="start" x="127.5" y="-421.3" font-family="Times,serif" font-size="14.00"> v25 = g3</text>
<text text-anchor="start" x="127.5" y="-406.3" font-family="Times,serif" font-size="14.00"> *(IntToPtrCastExpr&lt;ptr&gt;((v25 + &#45;4))) = v20</text>
<text text-anchor="start" x="127.5" y="-391.3" font-family="Times,serif" font-size="14.00"> v26 = g3</text>
<text text-anchor="start" x="127.5" y="-376.3" font-family="Times,serif" font-size="14.00"> lpLibFileName = *(IntToPtrCastExpr&lt;ptr&gt;((v26 + 8)))</text>
<text text-anchor="start" x="127.5" y="-361.3" font-family="Times,serif" font-size="14.00"> moduleHandle = LoadLibraryA(IntToPtrCastExpr&lt;ptr&gt;(lpLibFileName))</text>
<text text-anchor="start" x="127.5" y="-346.3" font-family="Times,serif" font-size="14.00"> g10 = v3</text>
<text text-anchor="start" x="127.5" y="-331.3" font-family="Times,serif" font-size="14.00"> v27 = g3</text>
<text text-anchor="start" x="127.5" y="-316.3" font-family="Times,serif" font-size="14.00"> *(IntToPtrCastExpr&lt;ptr&gt;((v27 + &#45;28))) = moduleHandle</text>
<text text-anchor="start" x="127.5" y="-301.3" font-family="Times,serif" font-size="14.00"> v28 = g3</text>
<text text-anchor="start" x="127.5" y="-286.3" font-family="Times,serif" font-size="14.00"> *(IntToPtrCastExpr&lt;ptr&gt;((v28 + &#45;4))) = &#45;2</text>
<text text-anchor="start" x="127.5" y="-271.3" font-family="Times,serif" font-size="14.00"> v1 = v13</text>
<text text-anchor="start" x="127.5" y="-256.3" font-family="Times,serif" font-size="14.00"> function_40da7e(PtrToIntCastExpr&lt;int32&gt;(v1))</text>
<text text-anchor="start" x="127.5" y="-241.3" font-family="Times,serif" font-size="14.00"> v29 = g3</text>
<text text-anchor="start" x="127.5" y="-226.3" font-family="Times,serif" font-size="14.00"> v33 = *(IntToPtrCastExpr&lt;ptr&gt;((v29 + &#45;28)))</text>
<text text-anchor="start" x="127.5" y="-211.3" font-family="Times,serif" font-size="14.00"> v19 = v33</text>
</g>
<!-- Node0xf07b650&#45;&gt;Node0xf07c2d0 -->
<g id="edge4" class="edge"><title>Node0xf07b650&#45;&gt;Node0xf07c2d0</title>
<path fill="none" stroke="black" d="M238.493,-503.343C248.313,-492.195 261.868,-476.806 276.895,-459.745"/>
<polygon fill="black" stroke="black" points="279.912,-461.616 283.895,-451.798 274.659,-456.989 279.912,-461.616"/>
<text text-anchor="middle" x="303.5" y="-473.8" font-family="Times,serif" font-size="14.00">v10 != v20</text>
</g>
<!-- Node0xf07bd30 -->
<g id="node6" class="node"><title>Node0xf07bd30</title>
<polygon fill="none" stroke="black" points="151.5,-97.5 151.5,-165.5 371.5,-165.5 371.5,-97.5 151.5,-97.5"/>
<text text-anchor="start" x="159.5" y="-150.3" font-family="Times,serif" font-size="14.00">0x40da76:</text>
<text text-anchor="start" x="159.5" y="-135.3" font-family="Times,serif" font-size="14.00"> g2 = v19</text>
<text text-anchor="start" x="159.5" y="-120.3" font-family="Times,serif" font-size="14.00"> result = unknown_43ea35()</text>
<text text-anchor="start" x="159.5" y="-105.3" font-family="Times,serif" font-size="14.00"> return result</text>
</g>
<!-- Node0xf07c270&#45;&gt;Node0xf07bd30 -->
<g id="edge5" class="edge"><title>Node0xf07c270&#45;&gt;Node0xf07bd30</title>
<path fill="none" stroke="black" d="M58.9331,-300.745C66.9308,-273.406 82.9995,-230.439 110.5,-203 123.374,-190.155 139.03,-179.367 155.325,-170.401"/>
<polygon fill="black" stroke="black" points="157.214,-173.362 164.431,-165.606 153.952,-167.169 157.214,-173.362"/>
</g>
<!-- Node0xf07c2d0&#45;&gt;Node0xf07bd30 -->
<g id="edge6" class="edge"><title>Node0xf07c2d0&#45;&gt;Node0xf07bd30</title>
<path fill="none" stroke="black" d="M309.35,-203.362C302.292,-192.909 295.529,-182.894 289.424,-173.854"/>
<polygon fill="black" stroke="black" points="292.282,-171.831 283.785,-165.502 286.481,-175.748 292.282,-171.831"/>
</g>
<!-- Node0xf07bcd0 -->
<g id="node7" class="node"><title>Node0xf07bcd0</title>
<polygon fill="none" stroke="black" points="234.5,-23.5 234.5,-59.5 288.5,-59.5 288.5,-23.5 234.5,-23.5"/>
<text text-anchor="start" x="242.5" y="-37.8" font-family="Times,serif" font-size="14.00">exit:</text>
</g>
<!-- Node0xf07bd30&#45;&gt;Node0xf07bcd0 -->
<g id="edge7" class="edge"><title>Node0xf07bd30&#45;&gt;Node0xf07bcd0</title>
<path fill="none" stroke="black" d="M261.5,-97.4817C261.5,-88.3281 261.5,-78.4972 261.5,-69.7155"/>
<polygon fill="black" stroke="black" points="265,-69.6402 261.5,-59.6402 258,-69.6403 265,-69.6402"/>
</g>
</g>
</svg>
