<?xml version="1.0" encoding="UTF-8" standalone="no"?>
<!DOCTYPE svg PUBLIC "-//W3C//DTD SVG 1.1//EN"
 "http://www.w3.org/Graphics/SVG/1.1/DTD/svg11.dtd">
<!-- Generated by graphviz version 2.38.0 (20140413.2041)
 -->
<!-- Title: Control&#45;flow graph for function &#39;function_409510(*a1)&#39;. Pages: 1 -->
<svg width="687pt" height="1201pt"
 viewBox="0.00 0.00 686.50 1201.00" xmlns="http://www.w3.org/2000/svg" xmlns:xlink="http://www.w3.org/1999/xlink">
<g id="graph0" class="graph" transform="scale(1 1) rotate(0) translate(4 1197)">
<title>Control&#45;flow graph for function &#39;function_409510(*a1)&#39;.</title>
<polygon fill="white" stroke="none" points="-4,4 -4,-1197 682.5,-1197 682.5,4 -4,4"/>
<text text-anchor="middle" x="339.25" y="-7.8" font-family="Times,serif" font-size="14.00">Control&#45;flow graph for function &#39;function_409510(*a1)&#39;.</text>
<!-- Node0xef45d60 -->
<g id="node1" class="node"><title>Node0xef45d60</title>
<polygon fill="none" stroke="black" points="404,-1154.5 404,-1192.5 463,-1192.5 463,-1154.5 404,-1154.5"/>
<text text-anchor="start" x="412" y="-1177.3" font-family="Times,serif" font-size="14.00">entry:</text>
<text text-anchor="start" x="412" y="-1162.3" font-family="Times,serif" font-size="14.00"> a1</text>
</g>
<!-- Node0xef45bc0 -->
<g id="node2" class="node"><title>Node0xef45bc0</title>
<polygon fill="none" stroke="black" points="263,-748.5 263,-1116.5 604,-1116.5 604,-748.5 263,-748.5"/>
<text text-anchor="start" x="271" y="-1101.3" font-family="Times,serif" font-size="14.00">v1</text>
<text text-anchor="start" x="271" y="-1086.3" font-family="Times,serif" font-size="14.00"> result</text>
<text text-anchor="start" x="271" y="-1071.3" font-family="Times,serif" font-size="14.00"> v2</text>
<text text-anchor="start" x="271" y="-1056.3" font-family="Times,serif" font-size="14.00"> v3</text>
<text text-anchor="start" x="271" y="-1041.3" font-family="Times,serif" font-size="14.00"> v4</text>
<text text-anchor="start" x="271" y="-1026.3" font-family="Times,serif" font-size="14.00"> v5</text>
<text text-anchor="start" x="271" y="-1011.3" font-family="Times,serif" font-size="14.00"> v6</text>
<text text-anchor="start" x="271" y="-996.3" font-family="Times,serif" font-size="14.00"> v7</text>
<text text-anchor="start" x="271" y="-981.3" font-family="Times,serif" font-size="14.00"> v8</text>
<text text-anchor="start" x="271" y="-966.3" font-family="Times,serif" font-size="14.00"> v9</text>
<text text-anchor="start" x="271" y="-951.3" font-family="Times,serif" font-size="14.00"> v10</text>
<text text-anchor="start" x="271" y="-936.3" font-family="Times,serif" font-size="14.00"> v11</text>
<text text-anchor="start" x="271" y="-921.3" font-family="Times,serif" font-size="14.00"> v12</text>
<text text-anchor="start" x="271" y="-906.3" font-family="Times,serif" font-size="14.00"> v13</text>
<text text-anchor="start" x="271" y="-891.3" font-family="Times,serif" font-size="14.00"> v14</text>
<text text-anchor="start" x="271" y="-876.3" font-family="Times,serif" font-size="14.00"> v4 = v5</text>
<text text-anchor="start" x="271" y="-861.3" font-family="Times,serif" font-size="14.00"> v4 = a1</text>
<text text-anchor="start" x="271" y="-846.3" font-family="Times,serif" font-size="14.00"> v8 = g5</text>
<text text-anchor="start" x="271" y="-831.3" font-family="Times,serif" font-size="14.00"> v9 = *(IntToPtrCastExpr&lt;ptr&gt;(v8))</text>
<text text-anchor="start" x="271" y="-816.3" font-family="Times,serif" font-size="14.00"> g2 = v9</text>
<text text-anchor="start" x="271" y="-801.3" font-family="Times,serif" font-size="14.00"> v12 = *(IntToPtrCastExpr&lt;ptr&gt;((v9 + &#45;16)))</text>
<text text-anchor="start" x="271" y="-786.3" font-family="Times,serif" font-size="14.00"> g5 = v12</text>
<text text-anchor="start" x="271" y="-771.3" font-family="Times,serif" font-size="14.00"> g1 = False</text>
<text text-anchor="start" x="271" y="-756.3" font-family="Times,serif" font-size="14.00"> g207 = (v12 == 0)</text>
</g>
<!-- Node0xef45d60&#45;&gt;Node0xef45bc0 -->
<g id="edge1" class="edge"><title>Node0xef45d60&#45;&gt;Node0xef45bc0</title>
<path fill="none" stroke="black" d="M433.5,-1154.14C433.5,-1146.69 433.5,-1137.32 433.5,-1126.67"/>
<polygon fill="black" stroke="black" points="437,-1126.54 433.5,-1116.54 430,-1126.54 437,-1126.54"/>
</g>
<!-- Node0xef45a40 -->
<g id="node3" class="node"><title>Node0xef45a40</title>
<polygon fill="none" stroke="black" points="379.5,-674.5 379.5,-710.5 487.5,-710.5 487.5,-674.5 379.5,-674.5"/>
<text text-anchor="start" x="387.5" y="-688.8" font-family="Times,serif" font-size="14.00">if (v12 != 0):</text>
</g>
<!-- Node0xef45bc0&#45;&gt;Node0xef45a40 -->
<g id="edge2" class="edge"><title>Node0xef45bc0&#45;&gt;Node0xef45a40</title>
<path fill="none" stroke="black" d="M433.5,-748.401C433.5,-738.268 433.5,-729.019 433.5,-721.119"/>
<polygon fill="black" stroke="black" points="437,-720.898 433.5,-710.898 430,-720.898 437,-720.898"/>
</g>
<!-- Node0xef46970 -->
<g id="node4" class="node"><title>Node0xef46970</title>
<polygon fill="none" stroke="black" points="131.5,-509.5 131.5,-622.5 477.5,-622.5 477.5,-509.5 131.5,-509.5"/>
<text text-anchor="start" x="139.5" y="-607.3" font-family="Times,serif" font-size="14.00">0x409519:</text>
<text text-anchor="start" x="139.5" y="-592.3" font-family="Times,serif" font-size="14.00"> v10 = *(IntToPtrCastExpr&lt;ptr&gt;(v12))</text>
<text text-anchor="start" x="139.5" y="-577.3" font-family="Times,serif" font-size="14.00"> g8 = v10</text>
<text text-anchor="start" x="139.5" y="-562.3" font-family="Times,serif" font-size="14.00"> v13 = *(IntToPtrCastExpr&lt;ptr&gt;((v10 + 16)))</text>
<text text-anchor="start" x="139.5" y="-547.3" font-family="Times,serif" font-size="14.00"> IntToPtrCastExpr&lt;ptr&gt;(v13)()</text>
<text text-anchor="start" x="139.5" y="-532.3" font-family="Times,serif" font-size="14.00"> g1 = False</text>
<text text-anchor="start" x="139.5" y="-517.3" font-family="Times,serif" font-size="14.00"> g207 = (v13 == 0)</text>
</g>
<!-- Node0xef45a40&#45;&gt;Node0xef46970 -->
<g id="edge3" class="edge"><title>Node0xef45a40&#45;&gt;Node0xef46970</title>
<path fill="none" stroke="black" d="M415.834,-674.45C403.637,-662.679 386.594,-646.23 369.503,-629.735"/>
<polygon fill="black" stroke="black" points="371.815,-627.103 362.189,-622.677 366.954,-632.14 371.815,-627.103"/>
<text text-anchor="middle" x="427" y="-644.8" font-family="Times,serif" font-size="14.00">v12 != 0</text>
</g>
<!-- Node0xef46190 -->
<g id="node5" class="node"><title>Node0xef46190</title>
<polygon fill="none" stroke="black" points="332.5,-347.5 332.5,-490.5 678.5,-490.5 678.5,-347.5 332.5,-347.5"/>
<text text-anchor="start" x="340.5" y="-475.3" font-family="Times,serif" font-size="14.00">0x409524:</text>
<text text-anchor="start" x="340.5" y="-460.3" font-family="Times,serif" font-size="14.00"> function_418880()</text>
<text text-anchor="start" x="340.5" y="-445.3" font-family="Times,serif" font-size="14.00"> v11 = *(IntToPtrCastExpr&lt;ptr&gt;(4642880))</text>
<text text-anchor="start" x="340.5" y="-430.3" font-family="Times,serif" font-size="14.00"> g8 = v11</text>
<text text-anchor="start" x="340.5" y="-415.3" font-family="Times,serif" font-size="14.00"> g5 = 4642880</text>
<text text-anchor="start" x="340.5" y="-400.3" font-family="Times,serif" font-size="14.00"> v14 = *(IntToPtrCastExpr&lt;ptr&gt;((v11 + 16)))</text>
<text text-anchor="start" x="340.5" y="-385.3" font-family="Times,serif" font-size="14.00"> IntToPtrCastExpr&lt;ptr&gt;(v14)()</text>
<text text-anchor="start" x="340.5" y="-370.3" font-family="Times,serif" font-size="14.00"> result = v14</text>
<text text-anchor="start" x="340.5" y="-355.3" font-family="Times,serif" font-size="14.00"> return result</text>
</g>
<!-- Node0xef45a40&#45;&gt;Node0xef46190 -->
<g id="edge4" class="edge"><title>Node0xef45a40&#45;&gt;Node0xef46190</title>
<path fill="none" stroke="black" d="M451.443,-674.457C463.693,-661.6 479.01,-642.834 486.5,-623 501.078,-584.394 506.319,-538.851 507.703,-500.695"/>
<polygon fill="black" stroke="black" points="511.203,-500.747 507.986,-490.653 504.206,-500.55 511.203,-500.747"/>
<text text-anchor="middle" x="512" y="-644.8" font-family="Times,serif" font-size="14.00">v12 == 0</text>
</g>
<!-- Node0xef46ad0 -->
<g id="node6" class="node"><title>Node0xef46ad0</title>
<polygon fill="none" stroke="black" points="250.5,-292.5 250.5,-328.5 358.5,-328.5 358.5,-292.5 250.5,-292.5"/>
<text text-anchor="start" x="258.5" y="-306.8" font-family="Times,serif" font-size="14.00">if (v13 != 0):</text>
</g>
<!-- Node0xef46970&#45;&gt;Node0xef46ad0 -->
<g id="edge5" class="edge"><title>Node0xef46970&#45;&gt;Node0xef46ad0</title>
<path fill="none" stroke="black" d="M304.5,-509.368C304.5,-456.634 304.5,-379.615 304.5,-338.972"/>
<polygon fill="black" stroke="black" points="308,-338.757 304.5,-328.757 301,-338.757 308,-338.757"/>
</g>
<!-- Node0xef45b60 -->
<g id="node7" class="node"><title>Node0xef45b60</title>
<polygon fill="none" stroke="black" points="277.5,-23.5 277.5,-59.5 331.5,-59.5 331.5,-23.5 277.5,-23.5"/>
<text text-anchor="start" x="285.5" y="-37.8" font-family="Times,serif" font-size="14.00">exit:</text>
</g>
<!-- Node0xef46190&#45;&gt;Node0xef45b60 -->
<g id="edge6" class="edge"><title>Node0xef46190&#45;&gt;Node0xef45b60</title>
<path fill="none" stroke="black" d="M522.636,-347.311C535.413,-276.272 542.278,-167.48 486.5,-97 452.063,-53.4862 384.282,-43.6277 341.859,-41.9821"/>
<polygon fill="black" stroke="black" points="341.74,-38.4781 331.655,-41.7252 341.564,-45.4759 341.74,-38.4781"/>
</g>
<!-- Node0xef46d10 -->
<g id="node8" class="node"><title>Node0xef46d10</title>
<polygon fill="none" stroke="black" points="0,-150 0,-188 113,-188 113,-150 0,-150"/>
<text text-anchor="start" x="8" y="-172.8" font-family="Times,serif" font-size="14.00">result = v13</text>
<text text-anchor="start" x="8" y="-157.8" font-family="Times,serif" font-size="14.00"> return result</text>
</g>
<!-- Node0xef46ad0&#45;&gt;Node0xef46d10 -->
<g id="edge7" class="edge"><title>Node0xef46ad0&#45;&gt;Node0xef46d10</title>
<path fill="none" stroke="black" d="M250.436,-296.273C212.502,-285.351 161.75,-267.333 122.5,-241 104.458,-228.896 87.8293,-210.945 75.776,-196.121"/>
<polygon fill="black" stroke="black" points="78.5155,-193.943 69.5706,-188.265 73.0224,-198.282 78.5155,-193.943"/>
<text text-anchor="middle" x="216" y="-262.8" font-family="Times,serif" font-size="14.00">v13 != 0</text>
</g>
<!-- Node0xef46c20 -->
<g id="node9" class="node"><title>Node0xef46c20</title>
<polygon fill="none" stroke="black" points="131.5,-97.5 131.5,-240.5 477.5,-240.5 477.5,-97.5 131.5,-97.5"/>
<text text-anchor="start" x="139.5" y="-225.3" font-family="Times,serif" font-size="14.00">0x409524:</text>
<text text-anchor="start" x="139.5" y="-210.3" font-family="Times,serif" font-size="14.00"> function_418880()</text>
<text text-anchor="start" x="139.5" y="-195.3" font-family="Times,serif" font-size="14.00"> v11 = *(IntToPtrCastExpr&lt;ptr&gt;(4642880))</text>
<text text-anchor="start" x="139.5" y="-180.3" font-family="Times,serif" font-size="14.00"> g8 = v11</text>
<text text-anchor="start" x="139.5" y="-165.3" font-family="Times,serif" font-size="14.00"> g5 = 4642880</text>
<text text-anchor="start" x="139.5" y="-150.3" font-family="Times,serif" font-size="14.00"> v14 = *(IntToPtrCastExpr&lt;ptr&gt;((v11 + 16)))</text>
<text text-anchor="start" x="139.5" y="-135.3" font-family="Times,serif" font-size="14.00"> IntToPtrCastExpr&lt;ptr&gt;(v14)()</text>
<text text-anchor="start" x="139.5" y="-120.3" font-family="Times,serif" font-size="14.00"> result = v14</text>
<text text-anchor="start" x="139.5" y="-105.3" font-family="Times,serif" font-size="14.00"> return result</text>
</g>
<!-- Node0xef46ad0&#45;&gt;Node0xef46c20 -->
<g id="edge8" class="edge"><title>Node0xef46ad0&#45;&gt;Node0xef46c20</title>
<path fill="none" stroke="black" d="M304.5,-292.395C304.5,-281.592 304.5,-266.762 304.5,-251.149"/>
<polygon fill="black" stroke="black" points="308,-250.81 304.5,-240.81 301,-250.81 308,-250.81"/>
<text text-anchor="middle" x="339" y="-262.8" font-family="Times,serif" font-size="14.00">v13 == 0</text>
</g>
<!-- Node0xef46d10&#45;&gt;Node0xef45b60 -->
<g id="edge9" class="edge"><title>Node0xef46d10&#45;&gt;Node0xef45b60</title>
<path fill="none" stroke="black" d="M68.8698,-149.999C80.8265,-133.899 100.349,-110.777 122.5,-97 167.814,-68.8162 228.545,-54.4883 267.107,-47.7596"/>
<polygon fill="black" stroke="black" points="268.072,-51.1474 277.364,-46.058 266.926,-44.2418 268.072,-51.1474"/>
</g>
<!-- Node0xef46c20&#45;&gt;Node0xef45b60 -->
<g id="edge10" class="edge"><title>Node0xef46c20&#45;&gt;Node0xef45b60</title>
<path fill="none" stroke="black" d="M304.5,-97.181C304.5,-87.439 304.5,-77.9608 304.5,-69.7068"/>
<polygon fill="black" stroke="black" points="308,-69.642 304.5,-59.642 301,-69.6421 308,-69.642"/>
</g>
</g>
</svg>
