<?xml version="1.0" encoding="UTF-8" standalone="no"?>
<!DOCTYPE svg PUBLIC "-//W3C//DTD SVG 1.1//EN"
 "http://www.w3.org/Graphics/SVG/1.1/DTD/svg11.dtd">
<!-- Generated by graphviz version 2.38.0 (20140413.2041)
 -->
<!-- Title: Control&#45;flow graph for function &#39;function_42563e(a1, a2, a3)&#39;. Pages: 1 -->
<svg width="464pt" height="957pt"
 viewBox="0.00 0.00 464.00 957.00" xmlns="http://www.w3.org/2000/svg" xmlns:xlink="http://www.w3.org/1999/xlink">
<g id="graph0" class="graph" transform="scale(1 1) rotate(0) translate(4 953)">
<title>Control&#45;flow graph for function &#39;function_42563e(a1, a2, a3)&#39;.</title>
<polygon fill="white" stroke="none" points="-4,4 -4,-953 460,-953 460,4 -4,4"/>
<text text-anchor="middle" x="228" y="-7.8" font-family="Times,serif" font-size="14.00">Control&#45;flow graph for function &#39;function_42563e(a1, a2, a3)&#39;.</text>
<!-- Node0xfc372c0 -->
<g id="node1" class="node"><title>Node0xfc372c0</title>
<polygon fill="none" stroke="black" points="246.75,-880.5 246.75,-948.5 305.75,-948.5 305.75,-880.5 246.75,-880.5"/>
<text text-anchor="start" x="254.75" y="-933.3" font-family="Times,serif" font-size="14.00">entry:</text>
<text text-anchor="start" x="254.75" y="-918.3" font-family="Times,serif" font-size="14.00"> a1</text>
<text text-anchor="start" x="254.75" y="-903.3" font-family="Times,serif" font-size="14.00"> a2</text>
<text text-anchor="start" x="254.75" y="-888.3" font-family="Times,serif" font-size="14.00"> a3</text>
</g>
<!-- Node0xfb8d950 -->
<g id="node2" class="node"><title>Node0xfb8d950</title>
<polygon fill="none" stroke="black" points="121.75,-474.5 121.75,-842.5 430.75,-842.5 430.75,-474.5 121.75,-474.5"/>
<text text-anchor="start" x="129.75" y="-827.3" font-family="Times,serif" font-size="14.00">v1</text>
<text text-anchor="start" x="129.75" y="-812.3" font-family="Times,serif" font-size="14.00"> v2</text>
<text text-anchor="start" x="129.75" y="-797.3" font-family="Times,serif" font-size="14.00"> v3</text>
<text text-anchor="start" x="129.75" y="-782.3" font-family="Times,serif" font-size="14.00"> v4</text>
<text text-anchor="start" x="129.75" y="-767.3" font-family="Times,serif" font-size="14.00"> v5</text>
<text text-anchor="start" x="129.75" y="-752.3" font-family="Times,serif" font-size="14.00"> v6</text>
<text text-anchor="start" x="129.75" y="-737.3" font-family="Times,serif" font-size="14.00"> v7</text>
<text text-anchor="start" x="129.75" y="-722.3" font-family="Times,serif" font-size="14.00"> v8</text>
<text text-anchor="start" x="129.75" y="-707.3" font-family="Times,serif" font-size="14.00"> v9</text>
<text text-anchor="start" x="129.75" y="-692.3" font-family="Times,serif" font-size="14.00"> v10</text>
<text text-anchor="start" x="129.75" y="-677.3" font-family="Times,serif" font-size="14.00"> v11</text>
<text text-anchor="start" x="129.75" y="-662.3" font-family="Times,serif" font-size="14.00"> v12</text>
<text text-anchor="start" x="129.75" y="-647.3" font-family="Times,serif" font-size="14.00"> v13</text>
<text text-anchor="start" x="129.75" y="-632.3" font-family="Times,serif" font-size="14.00"> v14</text>
<text text-anchor="start" x="129.75" y="-617.3" font-family="Times,serif" font-size="14.00"> result</text>
<text text-anchor="start" x="129.75" y="-602.3" font-family="Times,serif" font-size="14.00"> v15</text>
<text text-anchor="start" x="129.75" y="-587.3" font-family="Times,serif" font-size="14.00"> v16</text>
<text text-anchor="start" x="129.75" y="-572.3" font-family="Times,serif" font-size="14.00"> v4 = v5</text>
<text text-anchor="start" x="129.75" y="-557.3" font-family="Times,serif" font-size="14.00"> v7 = v8</text>
<text text-anchor="start" x="129.75" y="-542.3" font-family="Times,serif" font-size="14.00"> g10 = PtrToIntCastExpr&lt;int32&gt;(&amp;(v7))</text>
<text text-anchor="start" x="129.75" y="-527.3" font-family="Times,serif" font-size="14.00"> v13 = g5</text>
<text text-anchor="start" x="129.75" y="-512.3" font-family="Times,serif" font-size="14.00"> g9 = v13</text>
<text text-anchor="start" x="129.75" y="-497.3" font-family="Times,serif" font-size="14.00"> g1 = (v13 &lt; a1)</text>
<text text-anchor="start" x="129.75" y="-482.3" font-family="Times,serif" font-size="14.00"> g207 = (v13 == a1)</text>
</g>
<!-- Node0xfc372c0&#45;&gt;Node0xfb8d950 -->
<g id="edge1" class="edge"><title>Node0xfc372c0&#45;&gt;Node0xfb8d950</title>
<path fill="none" stroke="black" d="M276.25,-880.294C276.25,-872.175 276.25,-862.901 276.25,-852.857"/>
<polygon fill="black" stroke="black" points="279.75,-852.57 276.25,-842.57 272.75,-852.57 279.75,-852.57"/>
</g>
<!-- Node0xfc37260 -->
<g id="node3" class="node"><title>Node0xfc37260</title>
<polygon fill="none" stroke="black" points="218.25,-398.5 218.25,-436.5 334.25,-436.5 334.25,-398.5 218.25,-398.5"/>
<text text-anchor="start" x="226.25" y="-421.3" font-family="Times,serif" font-size="14.00">if (v13 != a1):</text>
<text text-anchor="start" x="226.25" y="-406.3" font-family="Times,serif" font-size="14.00"> else:</text>
</g>
<!-- Node0xfb8d950&#45;&gt;Node0xfc37260 -->
<g id="edge2" class="edge"><title>Node0xfb8d950&#45;&gt;Node0xfc37260</title>
<path fill="none" stroke="black" d="M276.25,-474.233C276.25,-464.014 276.25,-454.675 276.25,-446.684"/>
<polygon fill="black" stroke="black" points="279.75,-446.668 276.25,-436.668 272.75,-446.668 279.75,-446.668"/>
</g>
<!-- Node0xfc60150 -->
<g id="node4" class="node"><title>Node0xfc60150</title>
<polygon fill="none" stroke="black" points="11.75,-203.5 11.75,-346.5 320.75,-346.5 320.75,-203.5 11.75,-203.5"/>
<text text-anchor="start" x="19.75" y="-331.3" font-family="Times,serif" font-size="14.00">0x425647:</text>
<text text-anchor="start" x="19.75" y="-316.3" font-family="Times,serif" font-size="14.00"> VariantCopy()</text>
<text text-anchor="start" x="19.75" y="-301.3" font-family="Times,serif" font-size="14.00"> v14 = g2</text>
<text text-anchor="start" x="19.75" y="-286.3" font-family="Times,serif" font-size="14.00"> v1 = IntToPtrCastExpr&lt;ptr&gt;(v14)</text>
<text text-anchor="start" x="19.75" y="-271.3" font-family="Times,serif" font-size="14.00"> v4 = v1</text>
<text text-anchor="start" x="19.75" y="-256.3" font-family="Times,serif" font-size="14.00"> g10 = PtrToIntCastExpr&lt;int32&gt;(&amp;(v4))</text>
<text text-anchor="start" x="19.75" y="-241.3" font-family="Times,serif" font-size="14.00"> function_42556a(v1)</text>
<text text-anchor="start" x="19.75" y="-226.3" font-family="Times,serif" font-size="14.00"> v15 = g9</text>
<text text-anchor="start" x="19.75" y="-211.3" font-family="Times,serif" font-size="14.00"> result = v15</text>
</g>
<!-- Node0xfc37260&#45;&gt;Node0xfc60150 -->
<g id="edge3" class="edge"><title>Node0xfc37260&#45;&gt;Node0xfc60150</title>
<path fill="none" stroke="black" d="M262.095,-398.42C253.069,-386.891 240.681,-371.069 227.807,-354.625"/>
<polygon fill="black" stroke="black" points="230.381,-352.236 221.461,-346.519 224.87,-356.551 230.381,-352.236"/>
<text text-anchor="middle" x="282.75" y="-368.8" font-family="Times,serif" font-size="14.00">v13 != a1</text>
</g>
<!-- Node0xfbbaed0 -->
<g id="node5" class="node"><title>Node0xfbbaed0</title>
<polygon fill="none" stroke="black" points="338.75,-257 338.75,-293 435.75,-293 435.75,-257 338.75,-257"/>
<text text-anchor="start" x="346.75" y="-271.3" font-family="Times,serif" font-size="14.00">result = a1</text>
</g>
<!-- Node0xfc37260&#45;&gt;Node0xfbbaed0 -->
<g id="edge4" class="edge"><title>Node0xfc37260&#45;&gt;Node0xfbbaed0</title>
<path fill="none" stroke="black" d="M302.435,-398.238C309.299,-392.801 316.408,-386.537 322.25,-380 343.632,-356.075 362.364,-324.279 374.157,-302.169"/>
<polygon fill="black" stroke="black" points="377.395,-303.531 378.923,-293.047 371.19,-300.289 377.395,-303.531"/>
<text text-anchor="middle" x="371.75" y="-368.8" font-family="Times,serif" font-size="14.00">v13 == a1</text>
</g>
<!-- Node0xfc600f0 -->
<g id="node6" class="node"><title>Node0xfc600f0</title>
<polygon fill="none" stroke="black" points="158.25,-97.5 158.25,-165.5 444.25,-165.5 444.25,-97.5 158.25,-97.5"/>
<text text-anchor="start" x="166.25" y="-150.3" font-family="Times,serif" font-size="14.00">0x425658:</text>
<text text-anchor="start" x="166.25" y="-135.3" font-family="Times,serif" font-size="14.00"> v16 = v4</text>
<text text-anchor="start" x="166.25" y="-120.3" font-family="Times,serif" font-size="14.00"> g9 = PtrToIntCastExpr&lt;int32&gt;(v16)</text>
<text text-anchor="start" x="166.25" y="-105.3" font-family="Times,serif" font-size="14.00"> return result</text>
</g>
<!-- Node0xfc60150&#45;&gt;Node0xfc600f0 -->
<g id="edge5" class="edge"><title>Node0xfc60150&#45;&gt;Node0xfc600f0</title>
<path fill="none" stroke="black" d="M233.75,-203.25C243.633,-192.892 253.515,-182.533 262.55,-173.063"/>
<polygon fill="black" stroke="black" points="265.228,-175.327 269.598,-165.675 260.163,-170.495 265.228,-175.327"/>
</g>
<!-- Node0xfbbaed0&#45;&gt;Node0xfc600f0 -->
<g id="edge6" class="edge"><title>Node0xfbbaed0&#45;&gt;Node0xfc600f0</title>
<path fill="none" stroke="black" d="M376.876,-256.932C364.501,-236.569 343.378,-201.815 326.596,-174.204"/>
<polygon fill="black" stroke="black" points="329.502,-172.245 321.317,-165.517 323.52,-175.88 329.502,-172.245"/>
</g>
<!-- Node0xfb8d8f0 -->
<g id="node7" class="node"><title>Node0xfb8d8f0</title>
<polygon fill="none" stroke="black" points="274.25,-23.5 274.25,-59.5 328.25,-59.5 328.25,-23.5 274.25,-23.5"/>
<text text-anchor="start" x="282.25" y="-37.8" font-family="Times,serif" font-size="14.00">exit:</text>
</g>
<!-- Node0xfc600f0&#45;&gt;Node0xfb8d8f0 -->
<g id="edge7" class="edge"><title>Node0xfc600f0&#45;&gt;Node0xfb8d8f0</title>
<path fill="none" stroke="black" d="M301.25,-97.4817C301.25,-88.3281 301.25,-78.4972 301.25,-69.7155"/>
<polygon fill="black" stroke="black" points="304.75,-69.6402 301.25,-59.6402 297.75,-69.6403 304.75,-69.6402"/>
</g>
</g>
</svg>
